<svg class="bob" font-family="arial" font-size="14" height="208" width="1240" xmlns="http://www.w3.org/2000/svg">
<defs>
<marker id="triangle" markerHeight="8" markerWidth="8" orient="auto" refX="4" refY="2" viewBox="0 0 8 4">
<polygon class="fg_fill" points="0,0 0,4 8,2 0,0"/>
</marker>
<marker id="clear_triangle" markerHeight="10" markerWidth="10" orient="auto" refX="1" refY="7" viewBox="0 0 20 14">
<polygon class="bg_fill" points="2,2 2,12 18,7 2,2"/>
</marker>
<marker id="circle" markerHeight="5" markerWidth="5" orient="auto" refX="10" refY="10" viewBox="0 0 20 20">
<circle class="fg_fill" cx="10" cy="10" r="8"/>
</marker>
<marker id="square" markerHeight="5" markerWidth="5" orient="auto" refX="10" refY="10" viewBox="0 0 20 20">
<rect class="fg_fill" height="20" width="20" x="0" y="0"/>
</marker>
<marker id="open_circle" markerHeight="10" markerWidth="10" orient="auto" refX="10" refY="10" viewBox="0 0 20 20">
<circle class="bg_fill" cx="10" cy="10" r="4"/>
</marker>
<marker id="big_open_circle" markerHeight="20" markerWidth="20" orient="auto" refX="20" refY="20" viewBox="0 0 40 40">
<circle class="bg_fill" cx="20" cy="20" r="6"/>
</marker>
</defs>
<style type="text/css">

rect.backdrop {
    fill: white;
}
text{
    fill: black;
}

circle {
    fill: none;
    stroke: black;
    stroke-width: 2;
}

line {
    stroke: black;
    stroke-width: 2;
    stroke-opacity: 1;
    fill-opacity: 1;
    stroke-linecap: round;
    stroke-linejoin: miter;
}

path {
    fill: none;
    stroke: black;
    stroke-width: 2;
    stroke-opacity: 1;
    fill-opacity: 1;
    stroke-linecap: round;
    stroke-linejoin: miter;
}

line.dashed {
    stroke-dasharray: 5;
}

.fg_fill {
    fill: black;
}


.bg_fill {
    fill: white;
    stroke: black;
    stroke-width: 2;
}

tspan.head{
    fill: none;
    stroke: none;
}
    
</style>
<rect class="backdrop" height="208" width="1240" x="0" y="0"/>
<g>
<line x1="4" x2="4" y1="44" y2="196"/>
<path d="M 4 196 A 4 4 0 0 0 8 200"/>
<path d="M 8 40 A 4 4 0 0 0 4 44"/>
</g>
<g>
<line x1="8" x2="600" y1="40" y2="40"/>
<path d="M 604 44 A 4 4 0 0 0 600 40"/>
</g>
<g>
<line x1="8" x2="600" y1="200" y2="200"/>
<path d="M 600 200 A 4 4 0 0 0 604 196"/>
</g>
<g>
<line x1="604" x2="604" y1="44" y2="196"/>
</g>
<g>
<line x1="636" x2="636" y1="44" y2="196"/>
<path d="M 636 196 A 4 4 0 0 0 640 200"/>
<path d="M 640 40 A 4 4 0 0 0 636 44"/>
</g>
<g>
<line x1="640" x2="1232" y1="40" y2="40"/>
<path d="M 1236 44 A 4 4 0 0 0 1232 40"/>
</g>
<g>
<line x1="640" x2="1232" y1="200" y2="200"/>
<path d="M 1232 200 A 4 4 0 0 0 1236 196"/>
</g>
<g>
<line x1="1236" x2="1236" y1="44" y2="196"/>
</g>
<g>
<text x="1" y="12">
*
</text>
</g>
<g>
<text x="17" y="12">
plus sign denotes a center
</text>
</g>
<g>
<text x="17" y="92">
A=0.5,B=0.5
</text>
</g>
<g>
<text x="17" y="188">
A=0.5,B=0.5
</text>
</g>
<g>
<text x="41" y="140">
A=0.5,B=0.5
</text>
</g>
<g>
<text x="57" y="76">
●
</text>
</g>
<g>
<text x="57" y="172">
●
</text>
</g>
<g>
<text x="81" y="124">
●
</text>
</g>
<g>
<text x="265" y="60">
BAD CENTERS
</text>
</g>
<g>
<text x="305" y="124">
+
</text>
</g>
<g>
<text x="305" y="156">
+
</text>
</g>
<g>
<text x="457" y="140">
A=0.5,B=0.5
</text>
</g>
<g>
<text x="489" y="92">
A=0.5,B=0.5
</text>
</g>
<g>
<text x="489" y="188">
A=0.5,B=0.5
</text>
</g>
<g>
<text x="497" y="124">
●
</text>
</g>
<g>
<text x="529" y="76">
●
</text>
</g>
<g>
<text x="529" y="172">
●
</text>
</g>
<g>
<text x="649" y="92">
A=0.9,B=0.1
</text>
</g>
<g>
<text x="649" y="188">
A=0.9,B=0.1
</text>
</g>
<g>
<text x="673" y="140">
A=0.9,B=0.1
</text>
</g>
<g>
<text x="689" y="76">
●
</text>
</g>
<g>
<text x="689" y="124">
+
</text>
</g>
<g>
<text x="689" y="172">
●
</text>
</g>
<g>
<text x="713" y="124">
●
</text>
</g>
<g>
<text x="889" y="60">
GOOD CENTERS
</text>
</g>
<g>
<text x="1089" y="140">
A=0.1,B=0.9
</text>
</g>
<g>
<text x="1121" y="92">
A=0.1,B=0.9
</text>
</g>
<g>
<text x="1121" y="188">
A=0.1,B=0.9
</text>
</g>
<g>
<text x="1129" y="124">
●
</text>
</g>
<g>
<text x="1161" y="76">
●
</text>
</g>
<g>
<text x="1161" y="124">
+
</text>
</g>
<g>
<text x="1161" y="172">
●
</text>
</g>
</svg>
