<svg class="bob" font-family="arial" font-size="14" height="400" width="1360" xmlns="http://www.w3.org/2000/svg">
<defs>
<marker id="triangle" markerHeight="8" markerWidth="8" orient="auto" refX="4" refY="2" viewBox="0 0 8 4">
<polygon class="fg_fill" points="0,0 0,4 8,2 0,0"/>
</marker>
<marker id="clear_triangle" markerHeight="10" markerWidth="10" orient="auto" refX="1" refY="7" viewBox="0 0 20 14">
<polygon class="bg_fill" points="2,2 2,12 18,7 2,2"/>
</marker>
<marker id="circle" markerHeight="5" markerWidth="5" orient="auto" refX="10" refY="10" viewBox="0 0 20 20">
<circle class="fg_fill" cx="10" cy="10" r="8"/>
</marker>
<marker id="square" markerHeight="5" markerWidth="5" orient="auto" refX="10" refY="10" viewBox="0 0 20 20">
<rect class="fg_fill" height="20" width="20" x="0" y="0"/>
</marker>
<marker id="open_circle" markerHeight="10" markerWidth="10" orient="auto" refX="10" refY="10" viewBox="0 0 20 20">
<circle class="bg_fill" cx="10" cy="10" r="4"/>
</marker>
<marker id="big_open_circle" markerHeight="20" markerWidth="20" orient="auto" refX="20" refY="20" viewBox="0 0 40 40">
<circle class="bg_fill" cx="20" cy="20" r="6"/>
</marker>
</defs>
<style type="text/css">

rect.backdrop {
    fill: white;
}
text{
    fill: black;
}

circle {
    fill: none;
    stroke: black;
    stroke-width: 2;
}

line {
    stroke: black;
    stroke-width: 2;
    stroke-opacity: 1;
    fill-opacity: 1;
    stroke-linecap: round;
    stroke-linejoin: miter;
}

path {
    fill: none;
    stroke: black;
    stroke-width: 2;
    stroke-opacity: 1;
    fill-opacity: 1;
    stroke-linecap: round;
    stroke-linejoin: miter;
}

line.dashed {
    stroke-dasharray: 5;
}

.fg_fill {
    fill: black;
}


.bg_fill {
    fill: white;
    stroke: black;
    stroke-width: 2;
}

tspan.head{
    fill: none;
    stroke: none;
}
    
</style>
<rect class="backdrop" height="400" width="1360" x="0" y="0"/>
<g>
<line x1="4" x2="4" y1="248" y2="280"/>
<line x1="4" x2="52" y1="248" y2="248"/>
<line x1="4" x2="68" y1="280" y2="280"/>
<line x1="52" x2="52" y1="248" y2="240"/>
<line x1="52" x2="68" y1="248" y2="248"/>
<line x1="68" x2="68" y1="248" y2="240"/>
<line x1="68" x2="92" y1="248" y2="248"/>
<line x1="68" x2="68" y1="280" y2="288"/>
<line x1="68" x2="124" y1="280" y2="280"/>
<line x1="92" x2="92" y1="220" y2="248"/>
<line x1="92" x2="108" y1="248" y2="248"/>
<line x1="108" x2="108" y1="236" y2="248"/>
<line x1="108" x2="124" y1="248" y2="248"/>
<line x1="124" x2="124" y1="248" y2="280"/>
<line class="dashed" x1="52" x2="52" y1="128" y2="240"/>
<line class="dashed" x1="68" x2="68" y1="192" y2="240"/>
<line class="dashed" x1="68" x2="68" y1="288" y2="368"/>
<path d="M 96 216 A 4 4 0 0 0 92 220"/>
<path d="M 112 232 A 4 4 0 0 0 108 236"/>
</g>
<g>
<line marker-end="url(#triangle)" x1="28" x2="28" y1="76" y2="236"/>
<path d="M 32 72 A 4 4 0 0 0 28 76"/>
</g>
<g>
<line x1="32" x2="176" y1="72" y2="72"/>
<path d="M 176 72 A 4 4 0 0 0 180 68"/>
</g>
<g>
<line x1="52" x2="52" y1="124" y2="128"/>
<path d="M 56 120 A 4 4 0 0 0 52 124"/>
</g>
<g>
<line x1="68" x2="68" y1="188" y2="192"/>
<path d="M 72 184 A 4 4 0 0 0 68 188"/>
</g>
<g>
<line x1="68" x2="68" y1="372" y2="368"/>
<path d="M 68 372 A 4 4 0 0 0 72 376"/>
</g>
<g>
<line marker-end="url(#triangle)" x1="92" x2="92" y1="304" y2="292"/>
<line x1="92" x2="92" y1="304" y2="340"/>
<path d="M 92 340 A 4 4 0 0 0 96 344"/>
</g>
<g>
<line x1="96" x2="296" y1="216" y2="216"/>
<path d="M 300 220 A 4 4 0 0 0 296 216"/>
</g>
<g>
<line x1="96" x2="296" y1="344" y2="344"/>
<path d="M 296 344 A 4 4 0 0 0 300 340"/>
</g>
<g>
<line marker-end="url(#triangle)" x1="108" x2="108" y1="304" y2="292"/>
<line x1="108" x2="108" y1="304" y2="324"/>
<path d="M 108 324 A 4 4 0 0 0 112 328"/>
</g>
<g>
<line x1="112" x2="136" y1="232" y2="232"/>
<path d="M 140 236 A 4 4 0 0 0 136 232"/>
</g>
<g>
<line x1="112" x2="136" y1="328" y2="328"/>
<path d="M 136 328 A 4 4 0 0 0 140 324"/>
</g>
<g>
<line x1="140" x2="140" y1="236" y2="324"/>
</g>
<g>
<line marker-end="url(#triangle)" x1="160" x2="164" y1="120" y2="120"/>
<line class="dashed" x1="56" x2="160" y1="120" y2="120"/>
</g>
<g>
<line marker-end="url(#triangle)" x1="160" x2="164" y1="184" y2="184"/>
<line class="dashed" x1="72" x2="160" y1="184" y2="184"/>
</g>
<g>
<line marker-end="url(#triangle)" x1="160" x2="164" y1="376" y2="376"/>
<line class="dashed" x1="72" x2="160" y1="376" y2="376"/>
</g>
<g>
<line x1="164" x2="164" y1="24" y2="56"/>
<line x1="164" x2="244" y1="24" y2="24"/>
<line x1="164" x2="180" y1="56" y2="56"/>
<line x1="180" x2="180" y1="56" y2="68"/>
<line x1="180" x2="228" y1="56" y2="56"/>
<line x1="228" x2="228" y1="56" y2="68"/>
<line x1="228" x2="244" y1="56" y2="56"/>
<line x1="244" x2="244" y1="24" y2="56"/>
<path d="M 228 68 A 4 4 0 0 0 232 72"/>
</g>
<g>
<line x1="172" x2="172" y1="104" y2="112"/>
<line x1="172" x2="176" y1="104" y2="104"/>
<line class="dashed" x1="172" x2="172" y1="112" y2="128"/>
<line class="dashed" x1="176" x2="232" y1="104" y2="104"/>
</g>
<g>
<line x1="172" x2="172" y1="136" y2="128"/>
<line x1="172" x2="176" y1="136" y2="136"/>
<line class="dashed" x1="176" x2="232" y1="136" y2="136"/>
</g>
<g>
<line x1="172" x2="172" y1="168" y2="176"/>
<line x1="172" x2="176" y1="168" y2="168"/>
<line class="dashed" x1="172" x2="172" y1="176" y2="192"/>
<line class="dashed" x1="176" x2="232" y1="168" y2="168"/>
</g>
<g>
<line x1="172" x2="172" y1="200" y2="192"/>
<line x1="172" x2="176" y1="200" y2="200"/>
<line class="dashed" x1="176" x2="232" y1="200" y2="200"/>
</g>
<g>
<line x1="172" x2="172" y1="360" y2="368"/>
<line x1="172" x2="176" y1="360" y2="360"/>
<line class="dashed" x1="172" x2="172" y1="368" y2="384"/>
<line class="dashed" x1="176" x2="232" y1="360" y2="360"/>
</g>
<g>
<line x1="172" x2="172" y1="392" y2="384"/>
<line x1="172" x2="176" y1="392" y2="392"/>
<line class="dashed" x1="176" x2="232" y1="392" y2="392"/>
</g>
<g>
<line x1="232" x2="360" y1="72" y2="72"/>
<path d="M 364 76 A 4 4 0 0 0 360 72"/>
</g>
<g>
<line x1="236" x2="232" y1="104" y2="104"/>
<line x1="236" x2="236" y1="104" y2="112"/>
<line class="dashed" x1="236" x2="236" y1="112" y2="128"/>
</g>
<g>
<line x1="236" x2="232" y1="136" y2="136"/>
<line x1="236" x2="236" y1="136" y2="128"/>
</g>
<g>
<line x1="236" x2="232" y1="168" y2="168"/>
<line x1="236" x2="236" y1="168" y2="176"/>
<line class="dashed" x1="236" x2="236" y1="176" y2="192"/>
</g>
<g>
<line x1="236" x2="232" y1="200" y2="200"/>
<line x1="236" x2="236" y1="200" y2="192"/>
</g>
<g>
<line x1="236" x2="232" y1="360" y2="360"/>
<line x1="236" x2="236" y1="360" y2="368"/>
<line class="dashed" x1="236" x2="236" y1="368" y2="384"/>
</g>
<g>
<line x1="236" x2="232" y1="392" y2="392"/>
<line x1="236" x2="236" y1="392" y2="384"/>
</g>
<g>
<line marker-end="url(#triangle)" x1="248" x2="244" y1="120" y2="120"/>
<line class="dashed" x1="248" x2="336" y1="120" y2="120"/>
<path d="M 340 124 A 4 4 0 0 0 336 120"/>
</g>
<g>
<line marker-end="url(#triangle)" x1="248" x2="244" y1="184" y2="184"/>
<line class="dashed" x1="248" x2="320" y1="184" y2="184"/>
<path d="M 324 188 A 4 4 0 0 0 320 184"/>
</g>
<g>
<line marker-end="url(#triangle)" x1="248" x2="244" y1="376" y2="376"/>
<line class="dashed" x1="248" x2="320" y1="376" y2="376"/>
<path d="M 320 376 A 4 4 0 0 0 324 372"/>
</g>
<g>
<line x1="252" x2="252" y1="236" y2="324"/>
<path d="M 252 324 A 4 4 0 0 0 256 328"/>
<path d="M 256 232 A 4 4 0 0 0 252 236"/>
</g>
<g>
<line x1="256" x2="280" y1="232" y2="232"/>
<path d="M 284 236 A 4 4 0 0 0 280 232"/>
</g>
<g>
<line x1="256" x2="280" y1="328" y2="328"/>
<path d="M 280 328 A 4 4 0 0 0 284 324"/>
</g>
<g>
<line x1="268" x2="268" y1="248" y2="280"/>
<line x1="268" x2="284" y1="248" y2="248"/>
<line x1="268" x2="300" y1="280" y2="280"/>
<line x1="284" x2="284" y1="236" y2="248"/>
<line x1="284" x2="324" y1="248" y2="248"/>
<line x1="300" x2="300" y1="280" y2="340"/>
<line x1="300" x2="324" y1="280" y2="280"/>
<line x1="324" x2="324" y1="248" y2="240"/>
<line x1="324" x2="340" y1="248" y2="248"/>
<line x1="324" x2="324" y1="280" y2="288"/>
<line x1="324" x2="388" y1="280" y2="280"/>
<line x1="340" x2="340" y1="248" y2="240"/>
<line x1="340" x2="388" y1="248" y2="248"/>
<line x1="388" x2="388" y1="248" y2="280"/>
<line class="dashed" x1="324" x2="324" y1="192" y2="240"/>
<line class="dashed" x1="324" x2="324" y1="288" y2="368"/>
<line class="dashed" x1="340" x2="340" y1="128" y2="240"/>
</g>
<g>
<line marker-end="url(#triangle)" x1="284" x2="284" y1="304" y2="292"/>
<line x1="284" x2="284" y1="304" y2="324"/>
</g>
<g>
<line marker-end="url(#triangle)" x1="300" x2="300" y1="220" y2="236"/>
</g>
<g>
<line x1="324" x2="324" y1="188" y2="192"/>
</g>
<g>
<line x1="324" x2="324" y1="372" y2="368"/>
</g>
<g>
<line x1="340" x2="340" y1="124" y2="128"/>
</g>
<g>
<line marker-end="url(#triangle)" x1="364" x2="364" y1="76" y2="236"/>
</g>
<g>
<line x1="412" x2="412" y1="184" y2="216"/>
<line x1="412" x2="476" y1="184" y2="184"/>
<line x1="412" x2="476" y1="216" y2="216"/>
<line x1="476" x2="476" y1="152" y2="184"/>
<line x1="476" x2="500" y1="152" y2="200"/>
<line x1="476" x2="476" y1="216" y2="248"/>
<line x1="500" x2="476" y1="200" y2="248"/>
</g>
<g>
<line x1="524" x2="524" y1="184" y2="216"/>
<line x1="524" x2="596" y1="184" y2="184"/>
<line x1="524" x2="596" y1="216" y2="216"/>
<line x1="596" x2="596" y1="184" y2="200"/>
<line x1="596" x2="596" y1="200" y2="216"/>
<line x1="596" x2="612" y1="200" y2="200"/>
<line x1="612" x2="612" y1="172" y2="200"/>
<line x1="612" x2="612" y1="200" y2="228"/>
<path d="M 612 228 A 4 4 0 0 0 616 232"/>
<path d="M 616 168 A 4 4 0 0 0 612 172"/>
</g>
<g>
<line marker-end="url(#triangle)" x1="616" x2="628" y1="168" y2="168"/>
</g>
<g>
<line marker-end="url(#triangle)" x1="616" x2="628" y1="232" y2="232"/>
</g>
<g>
<line x1="636" x2="636" y1="136" y2="184"/>
<line x1="636" x2="708" y1="136" y2="136"/>
<line x1="636" x2="708" y1="184" y2="184"/>
<line x1="708" x2="708" y1="136" y2="152"/>
<line x1="708" x2="708" y1="152" y2="168"/>
<line marker-end="url(#triangle)" x1="708" x2="764" y1="152" y2="152"/>
<line x1="708" x2="708" y1="168" y2="184"/>
<line x1="708" x2="712" y1="168" y2="168"/>
<path d="M 718 172 A 8 8 0 0 0 712 168"/>
</g>
<g>
<line x1="636" x2="636" y1="216" y2="264"/>
<line x1="636" x2="708" y1="216" y2="216"/>
<line x1="636" x2="708" y1="264" y2="264"/>
<line x1="708" x2="708" y1="216" y2="232"/>
<line x1="708" x2="708" y1="232" y2="248"/>
<line x1="708" x2="712" y1="232" y2="232"/>
<line x1="708" x2="708" y1="248" y2="264"/>
<line marker-end="url(#triangle)" x1="708" x2="764" y1="248" y2="248"/>
<path d="M 712 232 A 8 8 0 0 0 718 228"/>
</g>
<g>
<line x1="718" x2="732" y1="172" y2="200"/>
<line x1="732" x2="718" y1="200" y2="228"/>
<line x1="732" x2="746" y1="200" y2="228"/>
<line x1="746" x2="732" y1="172" y2="200"/>
<path d="M 746 228 A 8 8 0 0 0 752 232"/>
<path d="M 752 168 A 8 8 0 0 0 746 172"/>
</g>
<g>
<line marker-end="url(#triangle)" x1="752" x2="764" y1="168" y2="168"/>
</g>
<g>
<line marker-end="url(#triangle)" x1="752" x2="764" y1="232" y2="232"/>
</g>
<g>
<line x1="772" x2="772" y1="136" y2="184"/>
<line x1="772" x2="844" y1="136" y2="136"/>
<line x1="772" x2="844" y1="184" y2="184"/>
<line x1="844" x2="844" y1="136" y2="152"/>
<line x1="844" x2="844" y1="152" y2="168"/>
<line marker-end="url(#triangle)" x1="844" x2="900" y1="152" y2="152"/>
<line x1="844" x2="844" y1="168" y2="184"/>
<line x1="844" x2="848" y1="168" y2="168"/>
<path d="M 854 172 A 8 8 0 0 0 848 168"/>
</g>
<g>
<line x1="772" x2="772" y1="216" y2="264"/>
<line x1="772" x2="844" y1="216" y2="216"/>
<line x1="772" x2="844" y1="264" y2="264"/>
<line x1="844" x2="844" y1="216" y2="232"/>
<line x1="844" x2="844" y1="232" y2="248"/>
<line x1="844" x2="848" y1="232" y2="232"/>
<line x1="844" x2="844" y1="248" y2="264"/>
<line marker-end="url(#triangle)" x1="844" x2="900" y1="248" y2="248"/>
<path d="M 848 232 A 8 8 0 0 0 854 228"/>
</g>
<g>
<line x1="854" x2="868" y1="172" y2="200"/>
<line x1="868" x2="854" y1="200" y2="228"/>
<line x1="868" x2="882" y1="200" y2="228"/>
<line x1="882" x2="868" y1="172" y2="200"/>
<path d="M 882 228 A 8 8 0 0 0 888 232"/>
<path d="M 888 168 A 8 8 0 0 0 882 172"/>
</g>
<g>
<line marker-end="url(#triangle)" x1="888" x2="900" y1="168" y2="168"/>
</g>
<g>
<line marker-end="url(#triangle)" x1="888" x2="900" y1="232" y2="232"/>
</g>
<g>
<line x1="908" x2="908" y1="136" y2="184"/>
<line x1="908" x2="988" y1="136" y2="136"/>
<line x1="908" x2="988" y1="184" y2="184"/>
<line x1="988" x2="988" y1="136" y2="152"/>
<line x1="988" x2="988" y1="152" y2="168"/>
<line marker-end="url(#triangle)" x1="988" x2="1044" y1="152" y2="152"/>
<line x1="988" x2="988" y1="168" y2="184"/>
<line x1="988" x2="992" y1="168" y2="168"/>
<path d="M 998 172 A 8 8 0 0 0 992 168"/>
</g>
<g>
<line x1="908" x2="908" y1="216" y2="264"/>
<line x1="908" x2="988" y1="216" y2="216"/>
<line x1="908" x2="988" y1="264" y2="264"/>
<line x1="988" x2="988" y1="216" y2="232"/>
<line x1="988" x2="988" y1="232" y2="248"/>
<line x1="988" x2="992" y1="232" y2="232"/>
<line x1="988" x2="988" y1="248" y2="264"/>
<line marker-end="url(#triangle)" x1="988" x2="1044" y1="248" y2="248"/>
<path d="M 992 232 A 8 8 0 0 0 998 228"/>
</g>
<g>
<line x1="998" x2="1012" y1="172" y2="200"/>
<line x1="1012" x2="998" y1="200" y2="228"/>
<line x1="1012" x2="1026" y1="200" y2="228"/>
<line x1="1026" x2="1012" y1="172" y2="200"/>
<path d="M 1026 228 A 8 8 0 0 0 1032 232"/>
<path d="M 1032 168 A 8 8 0 0 0 1026 172"/>
</g>
<g>
<line marker-end="url(#triangle)" x1="1032" x2="1044" y1="168" y2="168"/>
</g>
<g>
<line marker-end="url(#triangle)" x1="1032" x2="1044" y1="232" y2="232"/>
</g>
<g>
<line x1="1052" x2="1052" y1="136" y2="184"/>
<line x1="1052" x2="1124" y1="136" y2="136"/>
<line x1="1052" x2="1124" y1="184" y2="184"/>
<line x1="1124" x2="1124" y1="136" y2="152"/>
<line x1="1124" x2="1124" y1="152" y2="168"/>
<line marker-end="url(#triangle)" x1="1124" x2="1180" y1="152" y2="152"/>
<line x1="1124" x2="1124" y1="168" y2="184"/>
<line x1="1124" x2="1128" y1="168" y2="168"/>
<path d="M 1134 172 A 8 8 0 0 0 1128 168"/>
</g>
<g>
<line x1="1052" x2="1052" y1="216" y2="264"/>
<line x1="1052" x2="1124" y1="216" y2="216"/>
<line x1="1052" x2="1124" y1="264" y2="264"/>
<line x1="1124" x2="1124" y1="216" y2="232"/>
<line x1="1124" x2="1124" y1="232" y2="248"/>
<line x1="1124" x2="1128" y1="232" y2="232"/>
<line x1="1124" x2="1124" y1="248" y2="264"/>
<line marker-end="url(#triangle)" x1="1124" x2="1180" y1="248" y2="248"/>
<path d="M 1128 232 A 8 8 0 0 0 1134 228"/>
</g>
<g>
<line x1="1134" x2="1148" y1="172" y2="200"/>
<line x1="1148" x2="1134" y1="200" y2="228"/>
<line x1="1148" x2="1162" y1="200" y2="228"/>
<line x1="1162" x2="1148" y1="172" y2="200"/>
<path d="M 1162 228 A 8 8 0 0 0 1168 232"/>
<path d="M 1168 168 A 8 8 0 0 0 1162 172"/>
</g>
<g>
<line marker-end="url(#triangle)" x1="1168" x2="1180" y1="168" y2="168"/>
</g>
<g>
<line marker-end="url(#triangle)" x1="1168" x2="1180" y1="232" y2="232"/>
</g>
<g>
<line x1="1188" x2="1188" y1="136" y2="184"/>
<line x1="1188" x2="1260" y1="136" y2="136"/>
<line x1="1188" x2="1260" y1="184" y2="184"/>
<line x1="1260" x2="1260" y1="136" y2="168"/>
<line x1="1260" x2="1260" y1="168" y2="184"/>
<line x1="1260" x2="1272" y1="168" y2="168"/>
<path d="M 1276 172 A 4 4 0 0 0 1272 168"/>
</g>
<g>
<line x1="1188" x2="1188" y1="216" y2="264"/>
<line x1="1188" x2="1260" y1="216" y2="216"/>
<line x1="1188" x2="1260" y1="264" y2="264"/>
<line x1="1260" x2="1260" y1="216" y2="232"/>
<line x1="1260" x2="1260" y1="232" y2="264"/>
<line x1="1260" x2="1272" y1="232" y2="232"/>
<path d="M 1272 232 A 4 4 0 0 0 1276 228"/>
</g>
<g>
<line x1="1276" x2="1276" y1="172" y2="200"/>
<line x1="1276" x2="1276" y1="200" y2="228"/>
<line marker-end="url(#triangle)" x1="1276" x2="1292" y1="200" y2="200"/>
</g>
<g>
<line x1="1300" x2="1300" y1="184" y2="216"/>
<line x1="1300" x2="1356" y1="184" y2="184"/>
<line x1="1300" x2="1356" y1="216" y2="216"/>
<line x1="1356" x2="1356" y1="184" y2="216"/>
</g>
<g>
<text x="17" y="268">
hitter bat
</text>
</g>
<g>
<text x="65" y="60">
0.5
</text>
</g>
<g>
<text x="89" y="108">
0.75
</text>
</g>
<g>
<text x="97" y="172">
0.1
</text>
</g>
<g>
<text x="113" y="364">
0.15
</text>
</g>
<g>
<text x="145" y="284">
0.9
</text>
</g>
<g>
<text x="177" y="44">
SOURCE
</text>
</g>
<g>
<text x="185" y="188">
miss
</text>
</g>
<g>
<text x="185" y="236">
0.1
</text>
</g>
<g>
<text x="185" y="332">
0.1
</text>
</g>
<g>
<text x="185" y="380">
foul
</text>
</g>
<g>
<text x="193" y="124">
hit
</text>
</g>
<g>
<text x="225" y="284">
0.9
</text>
</g>
<g>
<text x="257" y="364">
0.4
</text>
</g>
<g>
<text x="281" y="108">
0.5
</text>
</g>
<g>
<text x="281" y="172">
0.1
</text>
</g>
<g>
<text x="281" y="268">
fouler bat
</text>
</g>
<g>
<text x="305" y="60">
0.5
</text>
</g>
<g>
<text x="417" y="12">
EXPLODE HMM BASED ON EMITTED SEQUENCE [foul,hit,miss,hit,hit]
</text>
</g>
<g>
<text x="537" y="204">
SOURCE
</text>
</g>
<g>
<text x="649" y="156">
hitter
</text>
</g>
<g>
<text x="649" y="172">
bat0
</text>
</g>
<g>
<text x="649" y="236">
fouler
</text>
</g>
<g>
<text x="649" y="252">
bat0
</text>
</g>
<g>
<text x="657" y="124">
foul
</text>
</g>
<g>
<text x="785" y="156">
hitter
</text>
</g>
<g>
<text x="785" y="172">
bat1
</text>
</g>
<g>
<text x="785" y="236">
fouler
</text>
</g>
<g>
<text x="785" y="252">
bat1
</text>
</g>
<g>
<text x="801" y="124">
hit
</text>
</g>
<g>
<text x="921" y="156">
hitter
</text>
</g>
<g>
<text x="921" y="172">
bat2
</text>
</g>
<g>
<text x="921" y="236">
fouler
</text>
</g>
<g>
<text x="921" y="252">
bat2
</text>
</g>
<g>
<text x="929" y="124">
miss
</text>
</g>
<g>
<text x="1065" y="156">
hitter
</text>
</g>
<g>
<text x="1065" y="172">
bat3
</text>
</g>
<g>
<text x="1065" y="236">
fouler
</text>
</g>
<g>
<text x="1065" y="252">
bat3
</text>
</g>
<g>
<text x="1081" y="124">
hit
</text>
</g>
<g>
<text x="1201" y="156">
hitter
</text>
</g>
<g>
<text x="1201" y="172">
bat4
</text>
</g>
<g>
<text x="1201" y="236">
fouler
</text>
</g>
<g>
<text x="1201" y="252">
bat4
</text>
</g>
<g>
<text x="1217" y="124">
hit
</text>
</g>
<g>
<text x="1313" y="204">
SINK
</text>
</g>
</svg>
