<svg class="bob" font-family="arial" font-size="14" height="224" width="488" xmlns="http://www.w3.org/2000/svg">
<defs>
<marker id="triangle" markerHeight="8" markerWidth="8" orient="auto" refX="4" refY="2" viewBox="0 0 8 4">
<polygon class="fg_fill" points="0,0 0,4 8,2 0,0"/>
</marker>
<marker id="clear_triangle" markerHeight="10" markerWidth="10" orient="auto" refX="1" refY="7" viewBox="0 0 20 14">
<polygon class="bg_fill" points="2,2 2,12 18,7 2,2"/>
</marker>
<marker id="circle" markerHeight="5" markerWidth="5" orient="auto" refX="10" refY="10" viewBox="0 0 20 20">
<circle class="fg_fill" cx="10" cy="10" r="8"/>
</marker>
<marker id="square" markerHeight="5" markerWidth="5" orient="auto" refX="10" refY="10" viewBox="0 0 20 20">
<rect class="fg_fill" height="20" width="20" x="0" y="0"/>
</marker>
<marker id="open_circle" markerHeight="10" markerWidth="10" orient="auto" refX="10" refY="10" viewBox="0 0 20 20">
<circle class="bg_fill" cx="10" cy="10" r="4"/>
</marker>
<marker id="big_open_circle" markerHeight="20" markerWidth="20" orient="auto" refX="20" refY="20" viewBox="0 0 40 40">
<circle class="bg_fill" cx="20" cy="20" r="6"/>
</marker>
</defs>
<style type="text/css">

rect.backdrop {
    fill: white;
}
text{
    fill: black;
}

circle {
    fill: none;
    stroke: black;
    stroke-width: 2;
}

line {
    stroke: black;
    stroke-width: 2;
    stroke-opacity: 1;
    fill-opacity: 1;
    stroke-linecap: round;
    stroke-linejoin: miter;
}

path {
    fill: none;
    stroke: black;
    stroke-width: 2;
    stroke-opacity: 1;
    fill-opacity: 1;
    stroke-linecap: round;
    stroke-linejoin: miter;
}

line.dashed {
    stroke-dasharray: 5;
}

.fg_fill {
    fill: black;
}


.bg_fill {
    fill: white;
    stroke: black;
    stroke-width: 2;
}

tspan.head{
    fill: none;
    stroke: none;
}
    
</style>
<rect class="backdrop" height="224" width="488" x="0" y="0"/>
<g>
<line x1="4" x2="4" y1="28" y2="52"/>
<path d="M 4 52 A 4 4 0 0 0 8 56"/>
<path d="M 8 24 A 4 4 0 0 0 4 28"/>
</g>
<g>
<line x1="4" x2="4" y1="108" y2="132"/>
<path d="M 4 132 A 4 4 0 0 0 8 136"/>
<path d="M 8 104 A 4 4 0 0 0 4 108"/>
</g>
<g>
<line x1="8" x2="104" y1="24" y2="24"/>
<path d="M 108 28 A 4 4 0 0 0 104 24"/>
</g>
<g>
<line x1="8" x2="104" y1="56" y2="56"/>
<path d="M 104 56 A 4 4 0 0 0 108 52"/>
</g>
<g>
<line x1="8" x2="136" y1="104" y2="104"/>
<path d="M 140 108 A 4 4 0 0 0 136 104"/>
</g>
<g>
<line x1="8" x2="136" y1="136" y2="136"/>
<path d="M 136 136 A 4 4 0 0 0 140 132"/>
</g>
<g>
<line x1="108" x2="108" y1="28" y2="52"/>
</g>
<g>
<line x1="116" x2="116" y1="28" y2="52"/>
<path d="M 116 52 A 4 4 0 0 0 120 56"/>
<path d="M 120 24 A 4 4 0 0 0 116 28"/>
</g>
<g>
<line x1="120" x2="184" y1="24" y2="24"/>
<path d="M 188 28 A 4 4 0 0 0 184 24"/>
</g>
<g>
<line x1="120" x2="184" y1="56" y2="56"/>
<path d="M 184 56 A 4 4 0 0 0 188 52"/>
</g>
<g>
<line x1="140" x2="140" y1="108" y2="132"/>
</g>
<g>
<line x1="148" x2="148" y1="108" y2="132"/>
<path d="M 148 132 A 4 4 0 0 0 152 136"/>
<path d="M 152 104 A 4 4 0 0 0 148 108"/>
</g>
<g>
<line x1="152" x2="248" y1="104" y2="104"/>
<path d="M 252 108 A 4 4 0 0 0 248 104"/>
</g>
<g>
<line x1="152" x2="248" y1="136" y2="136"/>
<path d="M 248 136 A 4 4 0 0 0 252 132"/>
</g>
<g>
<line x1="188" x2="188" y1="28" y2="52"/>
</g>
<g>
<line x1="196" x2="196" y1="28" y2="52"/>
<path d="M 196 52 A 4 4 0 0 0 200 56"/>
<path d="M 200 24 A 4 4 0 0 0 196 28"/>
</g>
<g>
<line x1="200" x2="328" y1="24" y2="24"/>
<path d="M 332 28 A 4 4 0 0 0 328 24"/>
</g>
<g>
<line x1="200" x2="328" y1="56" y2="56"/>
<path d="M 328 56 A 4 4 0 0 0 332 52"/>
</g>
<g>
<line x1="252" x2="252" y1="108" y2="132"/>
</g>
<g>
<line x1="260" x2="260" y1="108" y2="132"/>
<path d="M 260 132 A 4 4 0 0 0 264 136"/>
<path d="M 264 104 A 4 4 0 0 0 260 108"/>
</g>
<g>
<line x1="264" x2="328" y1="104" y2="104"/>
<path d="M 332 108 A 4 4 0 0 0 328 104"/>
</g>
<g>
<line x1="264" x2="328" y1="136" y2="136"/>
<path d="M 328 136 A 4 4 0 0 0 332 132"/>
</g>
<g>
<line x1="332" x2="332" y1="28" y2="52"/>
</g>
<g>
<line x1="332" x2="332" y1="108" y2="132"/>
</g>
<g>
<line x1="340" x2="340" y1="28" y2="52"/>
<path d="M 340 52 A 4 4 0 0 0 344 56"/>
<path d="M 344 24 A 4 4 0 0 0 340 28"/>
</g>
<g>
<line x1="340" x2="340" y1="108" y2="132"/>
<path d="M 340 132 A 4 4 0 0 0 344 136"/>
<path d="M 344 104 A 4 4 0 0 0 340 108"/>
</g>
<g>
<line x1="344" x2="440" y1="24" y2="24"/>
<path d="M 444 28 A 4 4 0 0 0 440 24"/>
</g>
<g>
<line x1="344" x2="440" y1="56" y2="56"/>
<path d="M 440 56 A 4 4 0 0 0 444 52"/>
</g>
<g>
<line x1="344" x2="440" y1="104" y2="104"/>
<path d="M 444 108 A 4 4 0 0 0 440 104"/>
</g>
<g>
<line x1="344" x2="440" y1="136" y2="136"/>
<path d="M 440 136 A 4 4 0 0 0 444 132"/>
</g>
<g>
<line x1="444" x2="444" y1="28" y2="52"/>
</g>
<g>
<line x1="444" x2="444" y1="108" y2="132"/>
</g>
<g>
<text x="1" y="12">
Region of chromosome set 1:
</text>
</g>
<g>
<text x="1" y="92">
Region of chromosome set 2:
</text>
</g>
<g>
<text x="1" y="172">
*
</text>
</g>
<g>
<text x="1" y="188">
*
</text>
</g>
<g>
<text x="1" y="204">
*
</text>
</g>
<g>
<text x="1" y="220">
*
</text>
</g>
<g>
<text x="17" y="44">
&gt;
</text>
</g>
<g>
<text x="17" y="124">
&lt;
</text>
</g>
<g>
<text x="17" y="172">
A1 and A2 are similar genes, but with reversed sequences.
</text>
</g>
<g>
<text x="17" y="188">
B1 and B2 are similar genes, but with reversed sequences.
</text>
</g>
<g>
<text x="17" y="204">
C1 and C2 are similar genes, but with reversed sequences.
</text>
</g>
<g>
<text x="17" y="220">
D1 and D2 are similar genes, but with reversed sequences.
</text>
</g>
<g>
<text x="33" y="44">
&gt;
</text>
</g>
<g>
<text x="33" y="124">
&lt;
</text>
</g>
<g>
<text x="49" y="44">
A1
</text>
</g>
<g>
<text x="49" y="124">
&lt;
</text>
</g>
<g>
<text x="65" y="124">
D2
</text>
</g>
<g>
<text x="73" y="44">
&gt;
</text>
</g>
<g>
<text x="89" y="44">
&gt;
</text>
</g>
<g>
<text x="89" y="124">
&lt;
</text>
</g>
<g>
<text x="105" y="124">
&lt;
</text>
</g>
<g>
<text x="121" y="124">
&lt;
</text>
</g>
<g>
<text x="129" y="44">
&gt;
</text>
</g>
<g>
<text x="145" y="44">
B1
</text>
</g>
<g>
<text x="161" y="124">
&lt;
</text>
</g>
<g>
<text x="169" y="44">
&gt;
</text>
</g>
<g>
<text x="177" y="124">
&lt;
</text>
</g>
<g>
<text x="193" y="124">
C2
</text>
</g>
<g>
<text x="209" y="44">
&gt;
</text>
</g>
<g>
<text x="217" y="124">
&lt;
</text>
</g>
<g>
<text x="225" y="44">
&gt;
</text>
</g>
<g>
<text x="233" y="124">
&lt;
</text>
</g>
<g>
<text x="241" y="44">
&gt;
</text>
</g>
<g>
<text x="257" y="44">
C1
</text>
</g>
<g>
<text x="273" y="124">
&lt;
</text>
</g>
<g>
<text x="281" y="44">
&gt;
</text>
</g>
<g>
<text x="289" y="124">
B2
</text>
</g>
<g>
<text x="297" y="44">
&gt;
</text>
</g>
<g>
<text x="313" y="44">
&gt;
</text>
</g>
<g>
<text x="313" y="124">
&lt;
</text>
</g>
<g>
<text x="353" y="44">
&gt;
</text>
</g>
<g>
<text x="353" y="124">
&lt;
</text>
</g>
<g>
<text x="369" y="44">
&gt;
</text>
</g>
<g>
<text x="369" y="124">
&lt;
</text>
</g>
<g>
<text x="385" y="44">
D1
</text>
</g>
<g>
<text x="385" y="124">
A2
</text>
</g>
<g>
<text x="409" y="44">
&gt;
</text>
</g>
<g>
<text x="409" y="124">
&lt;
</text>
</g>
<g>
<text x="425" y="44">
&gt;
</text>
</g>
<g>
<text x="425" y="124">
&lt;
</text>
</g>
</svg>
