<svg class="bob" font-family="arial" font-size="14" height="160" width="376" xmlns="http://www.w3.org/2000/svg">
<defs>
<marker id="triangle" markerHeight="8" markerWidth="8" orient="auto" refX="4" refY="2" viewBox="0 0 8 4">
<polygon class="fg_fill" points="0,0 0,4 8,2 0,0"/>
</marker>
<marker id="clear_triangle" markerHeight="10" markerWidth="10" orient="auto" refX="1" refY="7" viewBox="0 0 20 14">
<polygon class="bg_fill" points="2,2 2,12 18,7 2,2"/>
</marker>
<marker id="circle" markerHeight="5" markerWidth="5" orient="auto" refX="10" refY="10" viewBox="0 0 20 20">
<circle class="fg_fill" cx="10" cy="10" r="8"/>
</marker>
<marker id="square" markerHeight="5" markerWidth="5" orient="auto" refX="10" refY="10" viewBox="0 0 20 20">
<rect class="fg_fill" height="20" width="20" x="0" y="0"/>
</marker>
<marker id="open_circle" markerHeight="10" markerWidth="10" orient="auto" refX="10" refY="10" viewBox="0 0 20 20">
<circle class="bg_fill" cx="10" cy="10" r="4"/>
</marker>
<marker id="big_open_circle" markerHeight="20" markerWidth="20" orient="auto" refX="20" refY="20" viewBox="0 0 40 40">
<circle class="bg_fill" cx="20" cy="20" r="6"/>
</marker>
</defs>
<style type="text/css">

rect.backdrop {
    fill: white;
}
text{
    fill: black;
}

circle {
    fill: none;
    stroke: black;
    stroke-width: 2;
}

line {
    stroke: black;
    stroke-width: 2;
    stroke-opacity: 1;
    fill-opacity: 1;
    stroke-linecap: round;
    stroke-linejoin: miter;
}

path {
    fill: none;
    stroke: black;
    stroke-width: 2;
    stroke-opacity: 1;
    fill-opacity: 1;
    stroke-linecap: round;
    stroke-linejoin: miter;
}

line.dashed {
    stroke-dasharray: 5;
}

.fg_fill {
    fill: black;
}


.bg_fill {
    fill: white;
    stroke: black;
    stroke-width: 2;
}

tspan.head{
    fill: none;
    stroke: none;
}
    
</style>
<rect class="backdrop" height="160" width="376" x="0" y="0"/>
<g>
<line x1="4" x2="4" y1="124" y2="148"/>
<path d="M 4 148 A 4 4 0 0 0 8 152"/>
<path d="M 8 120 A 4 4 0 0 0 4 124"/>
</g>
<g>
<line x1="8" x2="52" y1="120" y2="120"/>
<line x1="52" x2="52" y1="40" y2="120"/>
<line x1="52" x2="72" y1="40" y2="40"/>
<line x1="52" x2="96" y1="120" y2="120"/>
<path d="M 72 40 A 4 4 0 0 0 76 36"/>
<path d="M 100 124 A 4 4 0 0 0 96 120"/>
</g>
<g>
<line x1="8" x2="96" y1="152" y2="152"/>
<path d="M 96 152 A 4 4 0 0 0 100 148"/>
</g>
<g>
<line x1="28" x2="28" y1="12" y2="36"/>
<path d="M 28 36 A 4 4 0 0 0 32 40"/>
<path d="M 32 8 A 4 4 0 0 0 28 12"/>
</g>
<g>
<line x1="32" x2="72" y1="8" y2="8"/>
<path d="M 76 12 A 4 4 0 0 0 72 8"/>
</g>
<g>
<line x1="32" x2="52" y1="40" y2="40"/>
<line x1="52" x2="52" y1="40" y2="32"/>
</g>
<g>
<line x1="76" x2="76" y1="12" y2="24"/>
<line x1="76" x2="76" y1="24" y2="36"/>
<line x1="76" x2="196" y1="24" y2="24"/>
<line x1="196" x2="196" y1="12" y2="24"/>
<line x1="196" x2="196" y1="24" y2="36"/>
<path d="M 196 36 A 4 4 0 0 0 200 40"/>
<path d="M 200 8 A 4 4 0 0 0 196 12"/>
</g>
<g>
<line x1="100" x2="100" y1="124" y2="136"/>
<line x1="100" x2="100" y1="136" y2="148"/>
<line x1="100" x2="196" y1="136" y2="136"/>
<line x1="196" x2="196" y1="124" y2="136"/>
<line x1="196" x2="196" y1="136" y2="148"/>
<path d="M 196 148 A 4 4 0 0 0 200 152"/>
<path d="M 200 120 A 4 4 0 0 0 196 124"/>
</g>
<g>
<line x1="200" x2="328" y1="8" y2="8"/>
<path d="M 332 12 A 4 4 0 0 0 328 8"/>
</g>
<g>
<line x1="200" x2="328" y1="40" y2="40"/>
<path d="M 328 40 A 4 4 0 0 0 332 36"/>
</g>
<g>
<line x1="200" x2="368" y1="120" y2="120"/>
<path d="M 372 124 A 4 4 0 0 0 368 120"/>
</g>
<g>
<line x1="200" x2="368" y1="152" y2="152"/>
<path d="M 368 152 A 4 4 0 0 0 372 148"/>
</g>
<g>
<line x1="332" x2="332" y1="12" y2="36"/>
</g>
<g>
<line x1="372" x2="372" y1="124" y2="148"/>
</g>
<g>
<text x="17" y="140">
Job
</text>
</g>
<g>
<text x="41" y="28">
Job
</text>
</g>
<g>
<text x="49" y="140">
queue
</text>
</g>
<g>
<text x="65" y="60">
0+
</text>
</g>
<g>
<text x="65" y="108">
1
</text>
</g>
<g>
<text x="89" y="12">
0+
</text>
</g>
<g>
<text x="113" y="124">
1
</text>
</g>
<g>
<text x="169" y="124">
1+
</text>
</g>
<g>
<text x="177" y="12">
1
</text>
</g>
<g>
<text x="209" y="28">
Job
</text>
</g>
<g>
<text x="209" y="140">
Compute
</text>
</g>
<g>
<text x="241" y="28">
definition
</text>
</g>
<g>
<text x="273" y="140">
environment
</text>
</g>
</svg>
