<?xml version="1.0" encoding="UTF-8" standalone="no"?>
<!DOCTYPE svg PUBLIC "-//W3C//DTD SVG 1.1//EN"
 "http://www.w3.org/Graphics/SVG/1.1/DTD/svg11.dtd">
<!-- Generated by graphviz version 2.40.1 (0)
 -->
<!-- Title: G Pages: 1 -->
<svg width="301pt" height="107pt"
 viewBox="0.00 0.00 301.00 107.00" xmlns="http://www.w3.org/2000/svg" xmlns:xlink="http://www.w3.org/1999/xlink">
<g id="graph0" class="graph" transform="scale(1 1) rotate(0) translate(4 103)">
<title>G</title>
<polygon fill="#ffffff" stroke="transparent" points="-4,4 -4,-103 297,-103 297,4 -4,4"/>
<!-- N1 -->
<g id="node1" class="node">
<title>N1</title>
<ellipse fill="none" stroke="#000000" cx="102.5" cy="-31.5" rx="14.5" ry="14.5"/>
<text text-anchor="middle" x="102.5" y="-29" font-family="Courier,monospace" font-weight="bold" font-size="10.00" fill="#000000">N1</text>
</g>
<!-- N2 -->
<g id="node2" class="node">
<title>N2</title>
<ellipse fill="none" stroke="#000000" cx="190.5" cy="-61.5" rx="14.5" ry="14.5"/>
<text text-anchor="middle" x="190.5" y="-59" font-family="Courier,monospace" font-weight="bold" font-size="10.00" fill="#000000">N2</text>
</g>
<!-- N1&#45;&#45;N2 -->
<g id="edge3" class="edge">
<title>N1&#45;&#45;N2</title>
<path fill="none" stroke="#000000" d="M116.25,-36.1875C132.6855,-41.7905 160.0353,-51.1143 176.5561,-56.7464"/>
<text text-anchor="middle" x="146.5" y="-52.5" font-family="Courier,monospace" font-weight="bold" font-size="10.00" fill="#000000">3.0</text>
</g>
<!-- v4 -->
<g id="node5" class="node">
<title>v4</title>
<ellipse fill="none" stroke="#000000" cx="190.5" cy="-14.5" rx="14.5" ry="14.5"/>
<text text-anchor="middle" x="190.5" y="-12" font-family="Courier,monospace" font-weight="bold" font-size="10.00" fill="#000000">v4</text>
</g>
<!-- N1&#45;&#45;v4 -->
<g id="edge2" class="edge">
<title>N1&#45;&#45;v4</title>
<path fill="none" stroke="#000000" d="M116.2779,-26.6827C122.0088,-24.8308 128.767,-22.8414 135,-21.5 148.6719,-18.5576 164.5234,-16.7106 175.7767,-15.6576"/>
<text text-anchor="middle" x="146.5" y="-24.5" font-family="Courier,monospace" font-weight="bold" font-size="10.00" fill="#000000">4.0</text>
</g>
<!-- v1 -->
<g id="node3" class="node">
<title>v1</title>
<ellipse fill="none" stroke="#000000" cx="278.5" cy="-84.5" rx="14.5" ry="14.5"/>
<text text-anchor="middle" x="278.5" y="-82" font-family="Courier,monospace" font-weight="bold" font-size="10.00" fill="#000000">v1</text>
</g>
<!-- N2&#45;&#45;v1 -->
<g id="edge4" class="edge">
<title>N2&#45;&#45;v1</title>
<path fill="none" stroke="#000000" d="M204.6387,-65.1953C221.0605,-69.4874 247.9896,-76.5257 264.3964,-80.8138"/>
<text text-anchor="middle" x="234.5" y="-78.5" font-family="Courier,monospace" font-weight="bold" font-size="10.00" fill="#000000">6.0</text>
</g>
<!-- v5 -->
<g id="node6" class="node">
<title>v5</title>
<ellipse fill="none" stroke="#000000" cx="278.5" cy="-37.5" rx="14.5" ry="14.5"/>
<text text-anchor="middle" x="278.5" y="-35" font-family="Courier,monospace" font-weight="bold" font-size="10.00" fill="#000000">v5</text>
</g>
<!-- N2&#45;&#45;v5 -->
<g id="edge5" class="edge">
<title>N2&#45;&#45;v5</title>
<path fill="none" stroke="#000000" d="M204.6387,-57.644C221.0605,-53.1653 247.9896,-45.821 264.3964,-41.3464"/>
<text text-anchor="middle" x="234.5" y="-54.5" font-family="Courier,monospace" font-weight="bold" font-size="10.00" fill="#000000">7.0</text>
</g>
<!-- v3 -->
<g id="node4" class="node">
<title>v3</title>
<ellipse fill="none" stroke="#000000" cx="14.5" cy="-31.5" rx="14.5" ry="14.5"/>
<text text-anchor="middle" x="14.5" y="-29" font-family="Courier,monospace" font-weight="bold" font-size="10.00" fill="#000000">v3</text>
</g>
<!-- v3&#45;&#45;N1 -->
<g id="edge1" class="edge">
<title>v3&#45;&#45;N1</title>
<path fill="none" stroke="#000000" d="M29.0314,-31.5C45.3364,-31.5 71.6332,-31.5 87.947,-31.5"/>
<text text-anchor="middle" x="58.5" y="-34.5" font-family="Courier,monospace" font-weight="bold" font-size="10.00" fill="#000000">3.0</text>
</g>
</g>
</svg>
