<svg class="bob" font-family="arial" font-size="14" height="480" width="848" xmlns="http://www.w3.org/2000/svg">
<defs>
<marker id="triangle" markerHeight="8" markerWidth="8" orient="auto" refX="4" refY="2" viewBox="0 0 8 4">
<polygon class="fg_fill" points="0,0 0,4 8,2 0,0"/>
</marker>
<marker id="clear_triangle" markerHeight="10" markerWidth="10" orient="auto" refX="1" refY="7" viewBox="0 0 20 14">
<polygon class="bg_fill" points="2,2 2,12 18,7 2,2"/>
</marker>
<marker id="circle" markerHeight="5" markerWidth="5" orient="auto" refX="10" refY="10" viewBox="0 0 20 20">
<circle class="fg_fill" cx="10" cy="10" r="8"/>
</marker>
<marker id="square" markerHeight="5" markerWidth="5" orient="auto" refX="10" refY="10" viewBox="0 0 20 20">
<rect class="fg_fill" height="20" width="20" x="0" y="0"/>
</marker>
<marker id="open_circle" markerHeight="10" markerWidth="10" orient="auto" refX="10" refY="10" viewBox="0 0 20 20">
<circle class="bg_fill" cx="10" cy="10" r="4"/>
</marker>
<marker id="big_open_circle" markerHeight="20" markerWidth="20" orient="auto" refX="20" refY="20" viewBox="0 0 40 40">
<circle class="bg_fill" cx="20" cy="20" r="6"/>
</marker>
</defs>
<style type="text/css">

rect.backdrop {
    fill: white;
}
text{
    fill: black;
}

circle {
    fill: none;
    stroke: black;
    stroke-width: 2;
}

line {
    stroke: black;
    stroke-width: 2;
    stroke-opacity: 1;
    fill-opacity: 1;
    stroke-linecap: round;
    stroke-linejoin: miter;
}

path {
    fill: none;
    stroke: black;
    stroke-width: 2;
    stroke-opacity: 1;
    fill-opacity: 1;
    stroke-linecap: round;
    stroke-linejoin: miter;
}

line.dashed {
    stroke-dasharray: 5;
}

.fg_fill {
    fill: black;
}


.bg_fill {
    fill: white;
    stroke: black;
    stroke-width: 2;
}

tspan.head{
    fill: none;
    stroke: none;
}
    
</style>
<rect class="backdrop" height="480" width="848" x="0" y="0"/>
<g>
<line x1="4" x2="4" y1="72" y2="200"/>
<line x1="4" x2="28" y1="72" y2="72"/>
<line x1="4" x2="28" y1="200" y2="200"/>
<line x1="28" x2="28" y1="72" y2="200"/>
<line x1="28" x2="44" y1="72" y2="72"/>
<line x1="28" x2="44" y1="200" y2="200"/>
<line x1="44" x2="60" y1="72" y2="72"/>
<line x1="44" x2="44" y1="200" y2="228"/>
<line x1="44" x2="60" y1="200" y2="200"/>
<line x1="60" x2="60" y1="72" y2="200"/>
<line x1="60" x2="84" y1="72" y2="72"/>
<line x1="60" x2="84" y1="200" y2="200"/>
<line x1="84" x2="84" y1="72" y2="200"/>
<path d="M 44 228 A 4 4 0 0 0 48 232"/>
</g>
<g>
<line x1="4" x2="4" y1="312" y2="440"/>
<line x1="4" x2="28" y1="312" y2="312"/>
<line x1="4" x2="28" y1="440" y2="440"/>
<line x1="28" x2="28" y1="312" y2="440"/>
<line x1="28" x2="44" y1="312" y2="312"/>
<line x1="28" x2="44" y1="440" y2="440"/>
<line x1="44" x2="60" y1="312" y2="312"/>
<line x1="44" x2="60" y1="440" y2="440"/>
<line x1="60" x2="60" y1="312" y2="440"/>
<line x1="60" x2="84" y1="312" y2="312"/>
<line x1="60" x2="84" y1="440" y2="440"/>
<line x1="84" x2="84" y1="312" y2="440"/>
</g>
<g>
<line x1="48" x2="216" y1="232" y2="232"/>
<path d="M 216 232 A 4 4 0 0 0 220 228"/>
</g>
<g>
<line x1="84" x2="144" y1="424" y2="424"/>
<path d="M 144 424 A 4 4 0 0 0 148 420"/>
</g>
<g>
<line x1="148" x2="148" y1="380" y2="420"/>
<path d="M 152 376 A 4 4 0 0 0 148 380"/>
</g>
<g>
<line marker-end="url(#triangle)" x1="152" x2="164" y1="376" y2="376"/>
</g>
<g>
<line x1="180" x2="180" y1="88" y2="152"/>
<line x1="180" x2="204" y1="88" y2="88"/>
<line x1="180" x2="204" y1="152" y2="152"/>
<line x1="204" x2="204" y1="88" y2="152"/>
<line x1="204" x2="220" y1="88" y2="88"/>
<line x1="204" x2="236" y1="152" y2="152"/>
<line x1="220" x2="220" y1="60" y2="88"/>
<line x1="220" x2="236" y1="88" y2="88"/>
<line x1="236" x2="236" y1="88" y2="152"/>
<line x1="236" x2="260" y1="88" y2="88"/>
<line x1="236" x2="260" y1="152" y2="152"/>
<line x1="260" x2="260" y1="88" y2="152"/>
<path d="M 224 56 A 4 4 0 0 0 220 60"/>
</g>
<g>
<line x1="180" x2="180" y1="312" y2="440"/>
<line x1="180" x2="204" y1="312" y2="312"/>
<line x1="180" x2="204" y1="440" y2="440"/>
<line x1="204" x2="204" y1="312" y2="440"/>
<line x1="204" x2="220" y1="312" y2="312"/>
<line x1="204" x2="220" y1="440" y2="440"/>
<line x1="220" x2="236" y1="312" y2="312"/>
<line x1="220" x2="236" y1="440" y2="440"/>
<line x1="236" x2="236" y1="312" y2="440"/>
<line x1="236" x2="260" y1="312" y2="312"/>
<line x1="236" x2="260" y1="440" y2="440"/>
<line x1="260" x2="260" y1="312" y2="440"/>
</g>
<g>
<line marker-end="url(#triangle)" x1="220" x2="220" y1="176" y2="164"/>
<line x1="220" x2="220" y1="176" y2="228"/>
</g>
<g>
<line x1="224" x2="392" y1="56" y2="56"/>
<path d="M 396 60 A 4 4 0 0 0 392 56"/>
</g>
<g>
<line x1="260" x2="320" y1="376" y2="376"/>
<path d="M 324 380 A 4 4 0 0 0 320 376"/>
</g>
<g>
<line x1="324" x2="324" y1="380" y2="388"/>
<path d="M 324 388 A 4 4 0 0 0 328 392"/>
</g>
<g>
<line marker-end="url(#triangle)" x1="328" x2="340" y1="392" y2="392"/>
</g>
<g>
<line x1="356" x2="356" y1="152" y2="200"/>
<line x1="356" x2="380" y1="152" y2="152"/>
<line x1="356" x2="380" y1="200" y2="200"/>
<line x1="380" x2="380" y1="152" y2="200"/>
<line x1="380" x2="412" y1="152" y2="152"/>
<line x1="380" x2="396" y1="200" y2="200"/>
<line x1="396" x2="396" y1="200" y2="228"/>
<line x1="396" x2="412" y1="200" y2="200"/>
<line x1="412" x2="412" y1="152" y2="200"/>
<line x1="412" x2="436" y1="152" y2="152"/>
<line x1="412" x2="436" y1="200" y2="200"/>
<line x1="436" x2="436" y1="152" y2="200"/>
<path d="M 396 228 A 4 4 0 0 0 400 232"/>
</g>
<g>
<line x1="356" x2="356" y1="312" y2="440"/>
<line x1="356" x2="380" y1="312" y2="312"/>
<line x1="356" x2="380" y1="440" y2="440"/>
<line x1="380" x2="380" y1="312" y2="440"/>
<line x1="380" x2="396" y1="312" y2="312"/>
<line x1="380" x2="396" y1="440" y2="440"/>
<line x1="396" x2="412" y1="312" y2="312"/>
<line x1="396" x2="412" y1="440" y2="440"/>
<line x1="412" x2="412" y1="312" y2="440"/>
<line x1="412" x2="436" y1="312" y2="312"/>
<line x1="412" x2="436" y1="440" y2="440"/>
<line x1="436" x2="436" y1="312" y2="440"/>
</g>
<g>
<line marker-end="url(#triangle)" x1="396" x2="396" y1="60" y2="140"/>
</g>
<g>
<line x1="400" x2="568" y1="232" y2="232"/>
<path d="M 568 232 A 4 4 0 0 0 572 228"/>
</g>
<g>
<line x1="532" x2="532" y1="104" y2="152"/>
<line x1="532" x2="556" y1="104" y2="104"/>
<line x1="532" x2="556" y1="152" y2="152"/>
<line x1="556" x2="556" y1="104" y2="152"/>
<line x1="556" x2="572" y1="104" y2="104"/>
<line x1="556" x2="588" y1="152" y2="152"/>
<line x1="572" x2="572" y1="60" y2="104"/>
<line x1="572" x2="588" y1="104" y2="104"/>
<line x1="588" x2="588" y1="104" y2="152"/>
<line x1="588" x2="612" y1="104" y2="104"/>
<line x1="588" x2="612" y1="152" y2="152"/>
<line x1="612" x2="612" y1="104" y2="152"/>
<path d="M 576 56 A 4 4 0 0 0 572 60"/>
</g>
<g>
<line marker-end="url(#triangle)" x1="572" x2="572" y1="176" y2="164"/>
<line x1="572" x2="572" y1="176" y2="228"/>
</g>
<g>
<line x1="576" x2="744" y1="56" y2="56"/>
<path d="M 748 60 A 4 4 0 0 0 744 56"/>
</g>
<g>
<line x1="708" x2="708" y1="168" y2="200"/>
<line x1="708" x2="732" y1="168" y2="168"/>
<line x1="708" x2="732" y1="200" y2="200"/>
<line x1="732" x2="732" y1="168" y2="200"/>
<line x1="732" x2="764" y1="168" y2="168"/>
<line x1="732" x2="764" y1="200" y2="200"/>
<line x1="764" x2="764" y1="168" y2="200"/>
<line x1="764" x2="788" y1="168" y2="168"/>
<line x1="764" x2="788" y1="200" y2="200"/>
<line x1="788" x2="788" y1="168" y2="200"/>
</g>
<g>
<line marker-end="url(#triangle)" x1="748" x2="748" y1="60" y2="156"/>
</g>
<g>
<text x="1" y="12">
PHASE 1: BACKSWEEP TEST TO FIND nana IN banana¶
</text>
</g>
<g>
<text x="1" y="252">
isolate to range where first a1-a3
</text>
</g>
<g>
<text x="1" y="300">
PHASE 2: WALK TO COMPUTE MISSING first_indexes AT END OF nana SEARCH ABOVE
</text>
</g>
<g>
<text x="1" y="476">
RESULT: nana OCCURS IN banana¶ AT INDEX 2
</text>
</g>
<g>
<text x="9" y="92">
¶1
</text>
</g>
<g>
<text x="9" y="108">
a1
</text>
</g>
<g>
<text x="9" y="124">
a2
</text>
</g>
<g>
<text x="9" y="140">
a3
</text>
</g>
<g>
<text x="9" y="156">
b1
</text>
</g>
<g>
<text x="9" y="172">
n1
</text>
</g>
<g>
<text x="9" y="188">
n2
</text>
</g>
<g>
<text x="9" y="332">
¶1
</text>
</g>
<g>
<text x="9" y="348">
a1
</text>
</g>
<g>
<text x="9" y="364">
a2
</text>
</g>
<g>
<text x="9" y="380">
a3
</text>
</g>
<g>
<text x="9" y="396">
b1
</text>
</g>
<g>
<text x="9" y="412">
n1
</text>
</g>
<g>
<text x="9" y="428">
n2
</text>
</g>
<g>
<text x="41" y="92">
6
</text>
</g>
<g>
<text x="41" y="124">
3
</text>
</g>
<g>
<text x="41" y="156">
0
</text>
</g>
<g>
<text x="41" y="332">
6
</text>
</g>
<g>
<text x="41" y="364">
3
</text>
</g>
<g>
<text x="41" y="396">
0
</text>
</g>
<g>
<text x="65" y="92">
a1
</text>
</g>
<g>
<text x="65" y="108">
n1
</text>
</g>
<g>
<text x="65" y="124">
n2
</text>
</g>
<g>
<text x="65" y="140">
b1
</text>
</g>
<g>
<text x="65" y="156">
¶1
</text>
</g>
<g>
<text x="65" y="172">
a2
</text>
</g>
<g>
<text x="65" y="188">
a3
</text>
</g>
<g>
<text x="65" y="332">
a1
</text>
</g>
<g>
<text x="65" y="348">
n1
</text>
</g>
<g>
<text x="65" y="364">
n2
</text>
</g>
<g>
<text x="65" y="380">
b1
</text>
</g>
<g>
<text x="65" y="396">
¶1
</text>
</g>
<g>
<text x="65" y="412">
a2
</text>
</g>
<g>
<text x="65" y="428">
a3
</text>
</g>
<g>
<text x="113" y="412">
1
</text>
</g>
<g>
<text x="169" y="44">
isolate to range where first n1-n2
</text>
</g>
<g>
<text x="185" y="108">
a1
</text>
</g>
<g>
<text x="185" y="124">
a2
</text>
</g>
<g>
<text x="185" y="140">
a3
</text>
</g>
<g>
<text x="185" y="332">
¶1
</text>
</g>
<g>
<text x="185" y="348">
a1
</text>
</g>
<g>
<text x="185" y="364">
a2
</text>
</g>
<g>
<text x="185" y="380">
a3
</text>
</g>
<g>
<text x="185" y="396">
b1
</text>
</g>
<g>
<text x="185" y="412">
n1
</text>
</g>
<g>
<text x="185" y="428">
n2
</text>
</g>
<g>
<text x="217" y="124">
3
</text>
</g>
<g>
<text x="217" y="332">
6
</text>
</g>
<g>
<text x="217" y="364">
3
</text>
</g>
<g>
<text x="217" y="396">
0
</text>
</g>
<g>
<text x="241" y="108">
n1
</text>
</g>
<g>
<text x="241" y="124">
n2
</text>
</g>
<g>
<text x="241" y="140">
b1
</text>
</g>
<g>
<text x="241" y="332">
a1
</text>
</g>
<g>
<text x="241" y="348">
n1
</text>
</g>
<g>
<text x="241" y="364">
n2
</text>
</g>
<g>
<text x="241" y="380">
b1
</text>
</g>
<g>
<text x="241" y="396">
¶1
</text>
</g>
<g>
<text x="241" y="412">
a2
</text>
</g>
<g>
<text x="241" y="428">
a3
</text>
</g>
<g>
<text x="297" y="364">
2
</text>
</g>
<g>
<text x="337" y="252">
isolate to range where first a2-a3
</text>
</g>
<g>
<text x="361" y="172">
n1
</text>
</g>
<g>
<text x="361" y="188">
n2
</text>
</g>
<g>
<text x="361" y="332">
¶1
</text>
</g>
<g>
<text x="361" y="348">
a1
</text>
</g>
<g>
<text x="361" y="364">
a2
</text>
</g>
<g>
<text x="361" y="380">
a3
</text>
</g>
<g>
<text x="361" y="396">
b1
</text>
</g>
<g>
<text x="361" y="412">
n1
</text>
</g>
<g>
<text x="361" y="428">
n2
</text>
</g>
<g>
<text x="393" y="332">
6
</text>
</g>
<g>
<text x="393" y="364">
3
</text>
</g>
<g>
<text x="393" y="396">
0
</text>
</g>
<g>
<text x="417" y="172">
a2
</text>
</g>
<g>
<text x="417" y="188">
a3
</text>
</g>
<g>
<text x="417" y="332">
a1
</text>
</g>
<g>
<text x="417" y="348">
n1
</text>
</g>
<g>
<text x="417" y="364">
n2
</text>
</g>
<g>
<text x="417" y="380">
b1
</text>
</g>
<g>
<text x="417" y="396">
¶1
</text>
</g>
<g>
<text x="417" y="412">
a2
</text>
</g>
<g>
<text x="417" y="428">
a3
</text>
</g>
<g>
<text x="473" y="396">
0+2=2
</text>
</g>
<g>
<text x="537" y="124">
a2
</text>
</g>
<g>
<text x="537" y="140">
a3
</text>
</g>
<g>
<text x="545" y="44">
isolate to range where first n2
</text>
</g>
<g>
<text x="569" y="124">
3
</text>
</g>
<g>
<text x="593" y="124">
n2
</text>
</g>
<g>
<text x="593" y="140">
b1
</text>
</g>
<g>
<text x="673" y="220">
(1 instance of nana)
</text>
</g>
<g>
<text x="713" y="188">
n2
</text>
</g>
<g>
<text x="769" y="188">
a3
</text>
</g>
</svg>
