<svg class="bob" font-family="arial" font-size="14" height="688" width="712" xmlns="http://www.w3.org/2000/svg">
<defs>
<marker id="triangle" markerHeight="8" markerWidth="8" orient="auto" refX="4" refY="2" viewBox="0 0 8 4">
<polygon class="fg_fill" points="0,0 0,4 8,2 0,0"/>
</marker>
<marker id="clear_triangle" markerHeight="10" markerWidth="10" orient="auto" refX="1" refY="7" viewBox="0 0 20 14">
<polygon class="bg_fill" points="2,2 2,12 18,7 2,2"/>
</marker>
<marker id="circle" markerHeight="5" markerWidth="5" orient="auto" refX="10" refY="10" viewBox="0 0 20 20">
<circle class="fg_fill" cx="10" cy="10" r="8"/>
</marker>
<marker id="square" markerHeight="5" markerWidth="5" orient="auto" refX="10" refY="10" viewBox="0 0 20 20">
<rect class="fg_fill" height="20" width="20" x="0" y="0"/>
</marker>
<marker id="open_circle" markerHeight="10" markerWidth="10" orient="auto" refX="10" refY="10" viewBox="0 0 20 20">
<circle class="bg_fill" cx="10" cy="10" r="4"/>
</marker>
<marker id="big_open_circle" markerHeight="20" markerWidth="20" orient="auto" refX="20" refY="20" viewBox="0 0 40 40">
<circle class="bg_fill" cx="20" cy="20" r="6"/>
</marker>
</defs>
<style type="text/css">

rect.backdrop {
    fill: white;
}
text{
    fill: black;
}

circle {
    fill: none;
    stroke: black;
    stroke-width: 2;
}

line {
    stroke: black;
    stroke-width: 2;
    stroke-opacity: 1;
    fill-opacity: 1;
    stroke-linecap: round;
    stroke-linejoin: miter;
}

path {
    fill: none;
    stroke: black;
    stroke-width: 2;
    stroke-opacity: 1;
    fill-opacity: 1;
    stroke-linecap: round;
    stroke-linejoin: miter;
}

line.dashed {
    stroke-dasharray: 5;
}

.fg_fill {
    fill: black;
}


.bg_fill {
    fill: white;
    stroke: black;
    stroke-width: 2;
}

tspan.head{
    fill: none;
    stroke: none;
}
    
</style>
<rect class="backdrop" height="688" width="712" x="0" y="0"/>
<g>
<line x1="64" x2="76" y1="248" y2="248"/>
<line x1="76" x2="76" y1="236" y2="248"/>
<line x1="76" x2="76" y1="248" y2="260"/>
<path d="M 76 260 A 4 4 0 0 0 80 264"/>
<path d="M 80 232 A 4 4 0 0 0 76 236"/>
</g>
<g>
<line x1="64" x2="76" y1="360" y2="360"/>
<line x1="76" x2="76" y1="332" y2="360"/>
<line x1="76" x2="76" y1="360" y2="388"/>
<line marker-end="url(#triangle)" x1="76" x2="140" y1="360" y2="360"/>
<path d="M 76 388 A 4 4 0 0 0 80 392"/>
<path d="M 80 328 A 4 4 0 0 0 76 332"/>
</g>
<g>
<line x1="64" x2="76" y1="488" y2="488"/>
<line x1="76" x2="76" y1="476" y2="488"/>
<line x1="76" x2="76" y1="488" y2="500"/>
<path d="M 76 500 A 4 4 0 0 0 80 504"/>
<path d="M 80 472 A 4 4 0 0 0 76 476"/>
</g>
<g>
<line x1="64" x2="76" y1="632" y2="632"/>
<line x1="76" x2="76" y1="604" y2="632"/>
<line x1="76" x2="76" y1="632" y2="660"/>
<path d="M 76 660 A 4 4 0 0 0 80 664"/>
<path d="M 80 600 A 4 4 0 0 0 76 604"/>
</g>
<g>
<line marker-end="url(#triangle)" x1="72" x2="132" y1="56" y2="56"/>
</g>
<g>
<line marker-end="url(#triangle)" x1="72" x2="132" y1="152" y2="152"/>
</g>
<g>
<line marker-end="url(#triangle)" x1="80" x2="140" y1="232" y2="232"/>
</g>
<g>
<line marker-end="url(#triangle)" x1="80" x2="140" y1="264" y2="264"/>
</g>
<g>
<line marker-end="url(#triangle)" x1="80" x2="140" y1="328" y2="328"/>
</g>
<g>
<line marker-end="url(#triangle)" x1="80" x2="140" y1="392" y2="392"/>
</g>
<g>
<line marker-end="url(#triangle)" x1="80" x2="140" y1="472" y2="472"/>
</g>
<g>
<line marker-end="url(#triangle)" x1="80" x2="140" y1="504" y2="504"/>
</g>
<g>
<line marker-end="url(#triangle)" x1="80" x2="140" y1="600" y2="600"/>
</g>
<g>
<line marker-end="url(#triangle)" x1="80" x2="140" y1="664" y2="664"/>
</g>
<g>
<line x1="216" x2="228" y1="472" y2="472"/>
<line x1="228" x2="228" y1="460" y2="472"/>
<line x1="228" x2="228" y1="472" y2="484"/>
<path d="M 228 484 A 4 4 0 0 0 232 488"/>
<path d="M 232 456 A 4 4 0 0 0 228 460"/>
</g>
<g>
<line x1="216" x2="228" y1="600" y2="600"/>
<line x1="228" x2="228" y1="588" y2="600"/>
<line x1="228" x2="228" y1="600" y2="612"/>
<path d="M 228 612 A 4 4 0 0 0 232 616"/>
<path d="M 232 584 A 4 4 0 0 0 228 588"/>
</g>
<g>
<line x1="216" x2="228" y1="664" y2="664"/>
<line x1="228" x2="228" y1="652" y2="664"/>
<line x1="228" x2="228" y1="664" y2="676"/>
<path d="M 228 676 A 4 4 0 0 0 232 680"/>
<path d="M 232 648 A 4 4 0 0 0 228 652"/>
</g>
<g>
<line marker-end="url(#triangle)" x1="232" x2="292" y1="456" y2="456"/>
</g>
<g>
<line marker-end="url(#triangle)" x1="232" x2="292" y1="488" y2="488"/>
</g>
<g>
<line marker-end="url(#triangle)" x1="232" x2="292" y1="584" y2="584"/>
</g>
<g>
<line marker-end="url(#triangle)" x1="232" x2="292" y1="616" y2="616"/>
</g>
<g>
<line marker-end="url(#triangle)" x1="232" x2="292" y1="648" y2="648"/>
</g>
<g>
<line marker-end="url(#triangle)" x1="232" x2="292" y1="680" y2="680"/>
</g>
<g>
<line x1="608" x2="616" y1="384" y2="368"/>
</g>
<g>
<line x1="608" x2="616" y1="512" y2="496"/>
</g>
<g>
<line x1="616" x2="624" y1="592" y2="608"/>
</g>
<g>
<line x1="616" x2="624" y1="672" y2="656"/>
</g>
<g>
<line x1="620" x2="620" y1="48" y2="64"/>
</g>
<g>
<line x1="620" x2="620" y1="144" y2="160"/>
</g>
<g>
<line x1="620" x2="620" y1="240" y2="256"/>
</g>
<g>
<line x1="620" x2="620" y1="336" y2="352"/>
</g>
<g>
<line x1="620" x2="620" y1="464" y2="480"/>
</g>
<g>
<line x1="636" x2="636" y1="624" y2="640"/>
</g>
<g>
<line x1="640" x2="648" y1="368" y2="384"/>
</g>
<g>
<line x1="640" x2="648" y1="496" y2="512"/>
</g>
<g>
<line x1="648" x2="656" y1="608" y2="592"/>
</g>
<g>
<line x1="648" x2="656" y1="656" y2="672"/>
</g>
<g>
<text x="1" y="60">
entity1
</text>
</g>
<g>
<text x="1" y="156">
entity2
</text>
</g>
<g>
<text x="1" y="252">
parent
</text>
</g>
<g>
<text x="1" y="364">
parent
</text>
</g>
<g>
<text x="1" y="492">
parent1
</text>
</g>
<g>
<text x="1" y="636">
parent1
</text>
</g>
<g>
<text x="73" y="12">
REAL EVOLUTIONARY PATH
</text>
</g>
<g>
<text x="145" y="60">
entity2
</text>
</g>
<g>
<text x="145" y="156">
entity1
</text>
</g>
<g>
<text x="153" y="236">
entity1
</text>
</g>
<g>
<text x="153" y="268">
entity2
</text>
</g>
<g>
<text x="153" y="332">
entity1
</text>
</g>
<g>
<text x="153" y="364">
entity2
</text>
</g>
<g>
<text x="153" y="396">
entity3
</text>
</g>
<g>
<text x="153" y="476">
parent2
</text>
</g>
<g>
<text x="153" y="508">
entity3
</text>
</g>
<g>
<text x="153" y="604">
parent2
</text>
</g>
<g>
<text x="153" y="668">
parent3
</text>
</g>
<g>
<text x="305" y="460">
entity1
</text>
</g>
<g>
<text x="305" y="492">
entity2
</text>
</g>
<g>
<text x="305" y="588">
entity1
</text>
</g>
<g>
<text x="305" y="620">
entity2
</text>
</g>
<g>
<text x="305" y="652">
entity3
</text>
</g>
<g>
<text x="305" y="684">
entity4
</text>
</g>
<g>
<text x="569" y="396">
entity2
</text>
</g>
<g>
<text x="569" y="524">
entity2
</text>
</g>
<g>
<text x="569" y="588">
entity1
</text>
</g>
<g>
<text x="569" y="684">
entity3
</text>
</g>
<g>
<text x="585" y="12">
SIMPLE TREE
</text>
</g>
<g>
<text x="601" y="44">
entity1
</text>
</g>
<g>
<text x="601" y="76">
entity2
</text>
</g>
<g>
<text x="601" y="140">
entity1
</text>
</g>
<g>
<text x="601" y="172">
entity2
</text>
</g>
<g>
<text x="601" y="236">
entity1
</text>
</g>
<g>
<text x="601" y="268">
entity2
</text>
</g>
<g>
<text x="601" y="332">
entity1
</text>
</g>
<g>
<text x="601" y="364">
parent1
</text>
</g>
<g>
<text x="601" y="460">
entity1
</text>
</g>
<g>
<text x="601" y="492">
parent1
</text>
</g>
<g>
<text x="609" y="620">
parent2
</text>
</g>
<g>
<text x="609" y="652">
parent3
</text>
</g>
<g>
<text x="649" y="396">
entity3
</text>
</g>
<g>
<text x="649" y="524">
entity3
</text>
</g>
<g>
<text x="657" y="588">
entity2
</text>
</g>
<g>
<text x="657" y="684">
entity4
</text>
</g>
</svg>
