<svg class="bob" font-family="arial" font-size="14" height="256" width="592" xmlns="http://www.w3.org/2000/svg">
<defs>
<marker id="triangle" markerHeight="8" markerWidth="8" orient="auto" refX="4" refY="2" viewBox="0 0 8 4">
<polygon class="fg_fill" points="0,0 0,4 8,2 0,0"/>
</marker>
<marker id="clear_triangle" markerHeight="10" markerWidth="10" orient="auto" refX="1" refY="7" viewBox="0 0 20 14">
<polygon class="bg_fill" points="2,2 2,12 18,7 2,2"/>
</marker>
<marker id="circle" markerHeight="5" markerWidth="5" orient="auto" refX="10" refY="10" viewBox="0 0 20 20">
<circle class="fg_fill" cx="10" cy="10" r="8"/>
</marker>
<marker id="square" markerHeight="5" markerWidth="5" orient="auto" refX="10" refY="10" viewBox="0 0 20 20">
<rect class="fg_fill" height="20" width="20" x="0" y="0"/>
</marker>
<marker id="open_circle" markerHeight="10" markerWidth="10" orient="auto" refX="10" refY="10" viewBox="0 0 20 20">
<circle class="bg_fill" cx="10" cy="10" r="4"/>
</marker>
<marker id="big_open_circle" markerHeight="20" markerWidth="20" orient="auto" refX="20" refY="20" viewBox="0 0 40 40">
<circle class="bg_fill" cx="20" cy="20" r="6"/>
</marker>
</defs>
<style type="text/css">

rect.backdrop {
    fill: white;
}
text{
    fill: black;
}

circle {
    fill: none;
    stroke: black;
    stroke-width: 2;
}

line {
    stroke: black;
    stroke-width: 2;
    stroke-opacity: 1;
    fill-opacity: 1;
    stroke-linecap: round;
    stroke-linejoin: miter;
}

path {
    fill: none;
    stroke: black;
    stroke-width: 2;
    stroke-opacity: 1;
    fill-opacity: 1;
    stroke-linecap: round;
    stroke-linejoin: miter;
}

line.dashed {
    stroke-dasharray: 5;
}

.fg_fill {
    fill: black;
}


.bg_fill {
    fill: white;
    stroke: black;
    stroke-width: 2;
}

tspan.head{
    fill: none;
    stroke: none;
}
    
</style>
<rect class="backdrop" height="256" width="592" x="0" y="0"/>
<g>
<line x1="68" x2="68" y1="80" y2="96"/>
</g>
<g>
<line x1="68" x2="68" y1="112" y2="128"/>
</g>
<g>
<line x1="68" x2="68" y1="208" y2="224"/>
</g>
<g>
<line x1="84" x2="84" y1="112" y2="128"/>
</g>
<g>
<line x1="84" x2="84" y1="208" y2="224"/>
</g>
<g>
<line x1="100" x2="100" y1="112" y2="128"/>
</g>
<g>
<line marker-end="url(#circle)" x1="364" x2="364" y1="60" y2="184"/>
<line marker-start="url(#circle)" x1="364" x2="364" y1="184" y2="212"/>
<line marker-end="url(#triangle)" marker-start="url(#circle)" x1="364" x2="388" y1="184" y2="184"/>
<path d="M 364 212 A 4 4 0 0 0 368 216"/>
<path d="M 368 56 A 4 4 0 0 0 364 60"/>
</g>
<g>
<line marker-end="url(#triangle)" x1="368" x2="580" y1="56" y2="56"/>
</g>
<g>
<line marker-end="url(#triangle)" x1="368" x2="388" y1="152" y2="152"/>
</g>
<g>
<line marker-end="url(#triangle)" x1="368" x2="420" y1="216" y2="216"/>
</g>
<g>
<line marker-end="url(#circle)" x1="396" x2="396" y1="124" y2="152"/>
<line marker-start="url(#circle)" x1="396" x2="392" y1="152" y2="152"/>
<line marker-end="url(#triangle)" marker-start="url(#circle)" x1="396" x2="420" y1="152" y2="152"/>
<path d="M 400 120 A 4 4 0 0 0 396 124"/>
</g>
<g>
<line marker-start="url(#circle)" x1="396" x2="392" y1="184" y2="184"/>
</g>
<g>
<line marker-end="url(#triangle)" x1="400" x2="452" y1="120" y2="120"/>
</g>
<g>
<line marker-start="url(#circle)" x1="428" x2="424" y1="152" y2="152"/>
</g>
<g>
<line marker-start="url(#circle)" x1="428" x2="424" y1="216" y2="216"/>
<line marker-start="url(#circle)" x1="428" x2="428" y1="216" y2="244"/>
<line marker-end="url(#triangle)" marker-start="url(#circle)" x1="428" x2="452" y1="216" y2="216"/>
<path d="M 428 244 A 4 4 0 0 0 432 248"/>
</g>
<g>
<line marker-end="url(#triangle)" x1="432" x2="516" y1="248" y2="248"/>
</g>
<g>
<line marker-end="url(#circle)" x1="460" x2="460" y1="92" y2="120"/>
<line marker-start="url(#circle)" x1="460" x2="456" y1="120" y2="120"/>
<line marker-end="url(#triangle)" marker-start="url(#circle)" x1="460" x2="484" y1="120" y2="120"/>
<path d="M 464 88 A 4 4 0 0 0 460 92"/>
</g>
<g>
<line marker-start="url(#circle)" x1="460" x2="456" y1="216" y2="216"/>
</g>
<g>
<line marker-end="url(#triangle)" x1="464" x2="548" y1="88" y2="88"/>
</g>
<g>
<line marker-start="url(#circle)" x1="492" x2="488" y1="120" y2="120"/>
</g>
<g>
<line marker-start="url(#circle)" x1="524" x2="520" y1="248" y2="248"/>
</g>
<g>
<line marker-start="url(#circle)" x1="556" x2="552" y1="88" y2="88"/>
</g>
<g>
<line marker-start="url(#circle)" x1="588" x2="584" y1="56" y2="56"/>
</g>
<g>
<text x="1" y="12">
SUFFIX ? FOR banana
</text>
</g>
<g>
<text x="33" y="44">
0
</text>
</g>
<g>
<text x="33" y="76">
1
</text>
</g>
<g>
<text x="33" y="108">
2
</text>
</g>
<g>
<text x="33" y="140">
3
</text>
</g>
<g>
<text x="33" y="172">
4
</text>
</g>
<g>
<text x="33" y="204">
5
</text>
</g>
<g>
<text x="33" y="236">
6
</text>
</g>
<g>
<text x="65" y="44">
¶
</text>
</g>
<g>
<text x="65" y="76">
a
</text>
</g>
<g>
<text x="65" y="108">
a
</text>
</g>
<g>
<text x="65" y="140">
a
</text>
</g>
<g>
<text x="65" y="172">
b
</text>
</g>
<g>
<text x="65" y="204">
n
</text>
</g>
<g>
<text x="65" y="236">
n
</text>
</g>
<g>
<text x="81" y="76">
¶
</text>
</g>
<g>
<text x="81" y="108">
n
</text>
</g>
<g>
<text x="81" y="140">
n
</text>
</g>
<g>
<text x="81" y="172">
a
</text>
</g>
<g>
<text x="81" y="204">
a
</text>
</g>
<g>
<text x="81" y="236">
a
</text>
</g>
<g>
<text x="97" y="108">
a
</text>
</g>
<g>
<text x="97" y="140">
a
</text>
</g>
<g>
<text x="97" y="172">
n
</text>
</g>
<g>
<text x="97" y="204">
¶
</text>
</g>
<g>
<text x="97" y="236">
n
</text>
</g>
<g>
<text x="113" y="108">
¶
</text>
</g>
<g>
<text x="113" y="140">
n
</text>
</g>
<g>
<text x="113" y="172">
a
</text>
</g>
<g>
<text x="113" y="236">
a
</text>
</g>
<g>
<text x="129" y="140">
a
</text>
</g>
<g>
<text x="129" y="172">
n
</text>
</g>
<g>
<text x="129" y="236">
¶
</text>
</g>
<g>
<text x="145" y="140">
¶
</text>
</g>
<g>
<text x="145" y="172">
a
</text>
</g>
<g>
<text x="161" y="172">
¶
</text>
</g>
<g>
<text x="353" y="12">
SUFFIX TREE FOR banana
</text>
</g>
<g>
<text x="377" y="140">
a
</text>
</g>
<g>
<text x="377" y="172">
¶
</text>
</g>
<g>
<text x="393" y="204">
na
</text>
</g>
<g>
<text x="409" y="140">
¶
</text>
</g>
<g>
<text x="425" y="108">
na
</text>
</g>
<g>
<text x="433" y="44">
banana¶
</text>
</g>
<g>
<text x="441" y="204">
¶
</text>
</g>
<g>
<text x="457" y="236">
na¶
</text>
</g>
<g>
<text x="473" y="108">
¶
</text>
</g>
<g>
<text x="497" y="76">
na¶
</text>
</g>
</svg>
