<svg class="bob" font-family="arial" font-size="14" height="320" width="256" xmlns="http://www.w3.org/2000/svg">
<defs>
<marker id="triangle" markerHeight="8" markerWidth="8" orient="auto" refX="4" refY="2" viewBox="0 0 8 4">
<polygon class="fg_fill" points="0,0 0,4 8,2 0,0"/>
</marker>
<marker id="clear_triangle" markerHeight="10" markerWidth="10" orient="auto" refX="1" refY="7" viewBox="0 0 20 14">
<polygon class="bg_fill" points="2,2 2,12 18,7 2,2"/>
</marker>
<marker id="circle" markerHeight="5" markerWidth="5" orient="auto" refX="10" refY="10" viewBox="0 0 20 20">
<circle class="fg_fill" cx="10" cy="10" r="8"/>
</marker>
<marker id="square" markerHeight="5" markerWidth="5" orient="auto" refX="10" refY="10" viewBox="0 0 20 20">
<rect class="fg_fill" height="20" width="20" x="0" y="0"/>
</marker>
<marker id="open_circle" markerHeight="10" markerWidth="10" orient="auto" refX="10" refY="10" viewBox="0 0 20 20">
<circle class="bg_fill" cx="10" cy="10" r="4"/>
</marker>
<marker id="big_open_circle" markerHeight="20" markerWidth="20" orient="auto" refX="20" refY="20" viewBox="0 0 40 40">
<circle class="bg_fill" cx="20" cy="20" r="6"/>
</marker>
</defs>
<style type="text/css">

rect.backdrop {
    fill: white;
}
text{
    fill: black;
}

circle {
    fill: none;
    stroke: black;
    stroke-width: 2;
}

line {
    stroke: black;
    stroke-width: 2;
    stroke-opacity: 1;
    fill-opacity: 1;
    stroke-linecap: round;
    stroke-linejoin: miter;
}

path {
    fill: none;
    stroke: black;
    stroke-width: 2;
    stroke-opacity: 1;
    fill-opacity: 1;
    stroke-linecap: round;
    stroke-linejoin: miter;
}

line.dashed {
    stroke-dasharray: 5;
}

.fg_fill {
    fill: black;
}


.bg_fill {
    fill: white;
    stroke: black;
    stroke-width: 2;
}

tspan.head{
    fill: none;
    stroke: none;
}
    
</style>
<rect class="backdrop" height="320" width="256" x="0" y="0"/>
<g>
<line x1="4" x2="4" y1="236" y2="276"/>
<path d="M 4 276 A 4 4 0 0 0 8 280"/>
<path d="M 8 232 A 4 4 0 0 0 4 236"/>
</g>
<g>
<line x1="8" x2="60" y1="232" y2="232"/>
<line x1="60" x2="72" y1="232" y2="232"/>
<line x1="92" x2="60" y1="168" y2="232"/>
<line x1="92" x2="124" y1="168" y2="232"/>
<line x1="92" x2="136" y1="168" y2="168"/>
<line x1="96" x2="124" y1="232" y2="232"/>
<line x1="124" x2="160" y1="232" y2="232"/>
<path d="M 76 236 A 4 4 0 0 0 72 232"/>
<path d="M 96 232 A 4 4 0 0 0 92 236"/>
<path d="M 136 168 A 4 4 0 0 0 140 164"/>
<path d="M 164 236 A 4 4 0 0 0 160 232"/>
</g>
<g>
<line x1="8" x2="72" y1="280" y2="280"/>
<path d="M 72 280 A 4 4 0 0 0 76 276"/>
</g>
<g>
<line x1="44" x2="44" y1="124" y2="164"/>
<path d="M 44 164 A 4 4 0 0 0 48 168"/>
<path d="M 48 120 A 4 4 0 0 0 44 124"/>
</g>
<g>
<line x1="48" x2="92" y1="120" y2="120"/>
<line x1="92" x2="136" y1="120" y2="120"/>
<line x1="124" x2="92" y1="56" y2="120"/>
<line x1="124" x2="168" y1="56" y2="56"/>
<line x1="124" x2="212" y1="56" y2="232"/>
<line x1="184" x2="212" y1="232" y2="232"/>
<line x1="212" x2="248" y1="232" y2="232"/>
<path d="M 140 124 A 4 4 0 0 0 136 120"/>
<path d="M 168 56 A 4 4 0 0 0 172 52"/>
<path d="M 184 232 A 4 4 0 0 0 180 236"/>
<path d="M 252 236 A 4 4 0 0 0 248 232"/>
</g>
<g>
<line x1="48" x2="92" y1="168" y2="168"/>
</g>
<g>
<line x1="76" x2="76" y1="12" y2="52"/>
<path d="M 76 52 A 4 4 0 0 0 80 56"/>
<path d="M 80 8 A 4 4 0 0 0 76 12"/>
</g>
<g>
<line x1="76" x2="76" y1="236" y2="276"/>
</g>
<g>
<line x1="80" x2="168" y1="8" y2="8"/>
<path d="M 172 12 A 4 4 0 0 0 168 8"/>
</g>
<g>
<line x1="80" x2="124" y1="56" y2="56"/>
</g>
<g>
<line x1="92" x2="92" y1="236" y2="276"/>
<path d="M 92 276 A 4 4 0 0 0 96 280"/>
</g>
<g>
<line x1="96" x2="160" y1="280" y2="280"/>
<path d="M 160 280 A 4 4 0 0 0 164 276"/>
</g>
<g>
<line x1="140" x2="140" y1="124" y2="164"/>
</g>
<g>
<line x1="164" x2="164" y1="236" y2="276"/>
</g>
<g>
<line x1="172" x2="172" y1="12" y2="52"/>
</g>
<g>
<line x1="180" x2="180" y1="236" y2="276"/>
<path d="M 180 276 A 4 4 0 0 0 184 280"/>
</g>
<g>
<line x1="184" x2="248" y1="280" y2="280"/>
<path d="M 248 280 A 4 4 0 0 0 252 276"/>
</g>
<g>
<line x1="252" x2="252" y1="236" y2="276"/>
</g>
<g>
<text x="1" y="316">
Parsimony score = 2+1+1+0 = 4
</text>
</g>
<g>
<text x="17" y="268">
ACTGGT
</text>
</g>
<g>
<text x="33" y="252">
Cat
</text>
</g>
<g>
<text x="57" y="140">
AncestorB
</text>
</g>
<g>
<text x="57" y="204">
1
</text>
</g>
<g>
<text x="65" y="156">
ACTGCT
</text>
</g>
<g>
<text x="89" y="28">
AncestorA
</text>
</g>
<g>
<text x="89" y="92">
2
</text>
</g>
<g>
<text x="97" y="44">
ATTGCC
</text>
</g>
<g>
<text x="105" y="268">
ACTGCT
</text>
</g>
<g>
<text x="113" y="252">
Lion
</text>
</g>
<g>
<text x="121" y="204">
0
</text>
</g>
<g>
<text x="177" y="140">
1
</text>
</g>
<g>
<text x="193" y="268">
ATTCCC
</text>
</g>
<g>
<text x="201" y="252">
Bear
</text>
</g>
</svg>
