<svg class="bob" font-family="arial" font-size="14" height="352" width="816" xmlns="http://www.w3.org/2000/svg">
<defs>
<marker id="triangle" markerHeight="8" markerWidth="8" orient="auto" refX="4" refY="2" viewBox="0 0 8 4">
<polygon class="fg_fill" points="0,0 0,4 8,2 0,0"/>
</marker>
<marker id="clear_triangle" markerHeight="10" markerWidth="10" orient="auto" refX="1" refY="7" viewBox="0 0 20 14">
<polygon class="bg_fill" points="2,2 2,12 18,7 2,2"/>
</marker>
<marker id="circle" markerHeight="5" markerWidth="5" orient="auto" refX="10" refY="10" viewBox="0 0 20 20">
<circle class="fg_fill" cx="10" cy="10" r="8"/>
</marker>
<marker id="square" markerHeight="5" markerWidth="5" orient="auto" refX="10" refY="10" viewBox="0 0 20 20">
<rect class="fg_fill" height="20" width="20" x="0" y="0"/>
</marker>
<marker id="open_circle" markerHeight="10" markerWidth="10" orient="auto" refX="10" refY="10" viewBox="0 0 20 20">
<circle class="bg_fill" cx="10" cy="10" r="4"/>
</marker>
<marker id="big_open_circle" markerHeight="20" markerWidth="20" orient="auto" refX="20" refY="20" viewBox="0 0 40 40">
<circle class="bg_fill" cx="20" cy="20" r="6"/>
</marker>
</defs>
<style type="text/css">

rect.backdrop {
    fill: white;
}
text{
    fill: black;
}

circle {
    fill: none;
    stroke: black;
    stroke-width: 2;
}

line {
    stroke: black;
    stroke-width: 2;
    stroke-opacity: 1;
    fill-opacity: 1;
    stroke-linecap: round;
    stroke-linejoin: miter;
}

path {
    fill: none;
    stroke: black;
    stroke-width: 2;
    stroke-opacity: 1;
    fill-opacity: 1;
    stroke-linecap: round;
    stroke-linejoin: miter;
}

line.dashed {
    stroke-dasharray: 5;
}

.fg_fill {
    fill: black;
}


.bg_fill {
    fill: white;
    stroke: black;
    stroke-width: 2;
}

tspan.head{
    fill: none;
    stroke: none;
}
    
</style>
<rect class="backdrop" height="352" width="816" x="0" y="0"/>
<g>
<line marker-end="url(#triangle)" x1="0" x2="20" y1="24" y2="24"/>
</g>
<g>
<line marker-end="url(#triangle)" x1="24" x2="28" y1="24" y2="24"/>
</g>
<g>
<line marker-end="url(#triangle)" x1="32" x2="36" y1="24" y2="24"/>
</g>
<g>
<line marker-end="url(#triangle)" x1="40" x2="44" y1="24" y2="24"/>
</g>
<g>
<line marker-start="url(#triangle)" x1="48" x2="52" y1="24" y2="24"/>
<line marker-end="url(#triangle)" x1="48" x2="52" y1="24" y2="24"/>
</g>
<g>
<line marker-end="url(#triangle)" x1="56" x2="76" y1="24" y2="24"/>
</g>
<g>
<line marker-end="url(#triangle)" x1="80" x2="84" y1="24" y2="24"/>
</g>
<g>
<line marker-end="url(#triangle)" x1="88" x2="92" y1="24" y2="24"/>
</g>
<g>
<line marker-end="url(#triangle)" x1="96" x2="100" y1="24" y2="24"/>
</g>
<g>
<line marker-start="url(#triangle)" x1="104" x2="108" y1="24" y2="24"/>
<line marker-end="url(#triangle)" x1="104" x2="108" y1="24" y2="24"/>
</g>
<g>
<line marker-end="url(#triangle)" x1="112" x2="140" y1="24" y2="24"/>
</g>
<g>
<line marker-end="url(#triangle)" x1="144" x2="148" y1="24" y2="24"/>
</g>
<g>
<line marker-end="url(#triangle)" x1="152" x2="156" y1="24" y2="24"/>
</g>
<g>
<line marker-end="url(#triangle)" x1="160" x2="164" y1="24" y2="24"/>
</g>
<g>
<line marker-start="url(#triangle)" x1="168" x2="172" y1="24" y2="24"/>
<line marker-end="url(#triangle)" x1="168" x2="172" y1="24" y2="24"/>
</g>
<g>
<line marker-end="url(#triangle)" x1="176" x2="196" y1="24" y2="24"/>
</g>
<g>
<line marker-end="url(#triangle)" x1="200" x2="204" y1="24" y2="24"/>
</g>
<g>
<line marker-end="url(#triangle)" x1="208" x2="212" y1="24" y2="24"/>
</g>
<g>
<line marker-end="url(#triangle)" x1="216" x2="220" y1="24" y2="24"/>
</g>
<g>
<line marker-end="url(#triangle)" x1="224" x2="228" y1="24" y2="24"/>
</g>
<g>
<line marker-end="url(#triangle)" x1="232" x2="236" y1="24" y2="24"/>
</g>
<g>
<line marker-end="url(#triangle)" x1="240" x2="244" y1="24" y2="24"/>
</g>
<g>
<line marker-end="url(#triangle)" x1="248" x2="252" y1="24" y2="24"/>
</g>
<g>
<line marker-start="url(#triangle)" x1="256" x2="260" y1="24" y2="24"/>
<line marker-end="url(#triangle)" x1="256" x2="260" y1="24" y2="24"/>
</g>
<g>
<line marker-end="url(#triangle)" x1="256" x2="276" y1="152" y2="152"/>
</g>
<g>
<line marker-end="url(#triangle)" x1="256" x2="276" y1="216" y2="216"/>
</g>
<g>
<line marker-end="url(#triangle)" x1="256" x2="276" y1="280" y2="280"/>
</g>
<g>
<line marker-end="url(#triangle)" x1="256" x2="276" y1="344" y2="344"/>
</g>
<g>
<line marker-end="url(#triangle)" x1="264" x2="284" y1="24" y2="24"/>
</g>
<g>
<line x1="272" x2="432" y1="184" y2="184"/>
<path d="M 272 184 A 4 4 0 0 0 268 188"/>
<path d="M 436 188 A 4 4 0 0 0 432 184"/>
</g>
<g>
<line marker-end="url(#triangle)" x1="280" x2="284" y1="152" y2="152"/>
</g>
<g>
<line marker-end="url(#triangle)" x1="280" x2="284" y1="216" y2="216"/>
</g>
<g>
<line marker-end="url(#triangle)" x1="280" x2="284" y1="280" y2="280"/>
</g>
<g>
<line marker-end="url(#triangle)" x1="280" x2="284" y1="344" y2="344"/>
</g>
<g>
<line marker-end="url(#triangle)" x1="288" x2="292" y1="24" y2="24"/>
</g>
<g>
<line marker-end="url(#triangle)" x1="288" x2="292" y1="152" y2="152"/>
</g>
<g>
<line marker-end="url(#triangle)" x1="288" x2="292" y1="216" y2="216"/>
</g>
<g>
<line marker-end="url(#triangle)" x1="288" x2="292" y1="280" y2="280"/>
</g>
<g>
<line marker-end="url(#triangle)" x1="288" x2="292" y1="344" y2="344"/>
</g>
<g>
<line marker-end="url(#triangle)" x1="296" x2="300" y1="24" y2="24"/>
</g>
<g>
<line marker-end="url(#triangle)" x1="296" x2="300" y1="152" y2="152"/>
</g>
<g>
<line marker-end="url(#triangle)" x1="296" x2="300" y1="216" y2="216"/>
</g>
<g>
<line marker-end="url(#triangle)" x1="296" x2="300" y1="280" y2="280"/>
</g>
<g>
<line marker-end="url(#triangle)" x1="296" x2="300" y1="344" y2="344"/>
</g>
<g>
<line marker-end="url(#triangle)" x1="304" x2="308" y1="24" y2="24"/>
</g>
<g>
<line marker-start="url(#triangle)" x1="304" x2="308" y1="152" y2="152"/>
<line marker-end="url(#triangle)" x1="304" x2="308" y1="152" y2="152"/>
</g>
<g>
<line marker-start="url(#triangle)" x1="304" x2="308" y1="216" y2="216"/>
<line marker-end="url(#triangle)" x1="304" x2="308" y1="216" y2="216"/>
</g>
<g>
<line marker-start="url(#triangle)" x1="304" x2="308" y1="280" y2="280"/>
<line marker-end="url(#triangle)" x1="304" x2="308" y1="280" y2="280"/>
</g>
<g>
<line marker-start="url(#triangle)" x1="304" x2="308" y1="344" y2="344"/>
<line marker-end="url(#triangle)" x1="304" x2="308" y1="344" y2="344"/>
</g>
<g>
<line marker-start="url(#triangle)" x1="312" x2="316" y1="24" y2="24"/>
<line marker-end="url(#triangle)" x1="312" x2="316" y1="24" y2="24"/>
</g>
<g>
<line marker-end="url(#triangle)" x1="312" x2="332" y1="152" y2="152"/>
</g>
<g>
<line marker-end="url(#triangle)" x1="312" x2="332" y1="216" y2="216"/>
</g>
<g>
<line x1="312" x2="328" y1="280" y2="280"/>
</g>
<g>
<line marker-end="url(#triangle)" x1="312" x2="332" y1="344" y2="344"/>
</g>
<g>
<line x1="320" x2="336" y1="24" y2="24"/>
</g>
<g>
<line x1="328" x2="432" y1="248" y2="248"/>
<path d="M 328 248 A 4 4 0 0 0 324 252"/>
<path d="M 436 252 A 4 4 0 0 0 432 248"/>
</g>
<g>
<line marker-end="url(#triangle)" x1="336" x2="340" y1="152" y2="152"/>
</g>
<g>
<line marker-end="url(#triangle)" x1="336" x2="340" y1="216" y2="216"/>
</g>
<g>
<line marker-start="url(#triangle)" x1="336" x2="332" y1="280" y2="280"/>
<line marker-end="url(#triangle)" x1="336" x2="332" y1="280" y2="280"/>
</g>
<g>
<line marker-end="url(#triangle)" x1="336" x2="340" y1="344" y2="344"/>
</g>
<g>
<line marker-end="url(#triangle)" x1="344" x2="348" y1="152" y2="152"/>
</g>
<g>
<line marker-end="url(#triangle)" x1="344" x2="348" y1="216" y2="216"/>
</g>
<g>
<line marker-end="url(#triangle)" x1="344" x2="340" y1="280" y2="280"/>
</g>
<g>
<line marker-end="url(#triangle)" x1="344" x2="348" y1="344" y2="344"/>
</g>
<g>
<line marker-end="url(#triangle)" x1="352" x2="356" y1="152" y2="152"/>
</g>
<g>
<line marker-end="url(#triangle)" x1="352" x2="356" y1="216" y2="216"/>
</g>
<g>
<line marker-end="url(#triangle)" x1="352" x2="348" y1="280" y2="280"/>
</g>
<g>
<line marker-end="url(#triangle)" x1="352" x2="356" y1="344" y2="344"/>
</g>
<g>
<line marker-start="url(#triangle)" x1="360" x2="364" y1="152" y2="152"/>
<line marker-end="url(#triangle)" x1="360" x2="364" y1="152" y2="152"/>
</g>
<g>
<line marker-start="url(#triangle)" x1="360" x2="364" y1="216" y2="216"/>
<line marker-end="url(#triangle)" x1="360" x2="364" y1="216" y2="216"/>
</g>
<g>
<line marker-end="url(#triangle)" x1="360" x2="356" y1="280" y2="280"/>
</g>
<g>
<line marker-start="url(#triangle)" x1="360" x2="364" y1="344" y2="344"/>
<line marker-end="url(#triangle)" x1="360" x2="364" y1="344" y2="344"/>
</g>
<g>
<line x1="368" x2="392" y1="152" y2="152"/>
</g>
<g>
<line x1="368" x2="392" y1="216" y2="216"/>
</g>
<g>
<line marker-end="url(#triangle)" x1="368" x2="364" y1="280" y2="280"/>
<line x1="368" x2="392" y1="280" y2="280"/>
</g>
<g>
<line marker-end="url(#triangle)" x1="368" x2="396" y1="344" y2="344"/>
</g>
<g>
<line marker-start="url(#triangle)" x1="400" x2="396" y1="152" y2="152"/>
<line marker-end="url(#triangle)" x1="400" x2="396" y1="152" y2="152"/>
</g>
<g>
<line marker-start="url(#triangle)" x1="400" x2="396" y1="216" y2="216"/>
<line marker-end="url(#triangle)" x1="400" x2="396" y1="216" y2="216"/>
</g>
<g>
<line marker-start="url(#triangle)" x1="400" x2="396" y1="280" y2="280"/>
<line marker-end="url(#triangle)" x1="400" x2="396" y1="280" y2="280"/>
</g>
<g>
<line marker-end="url(#triangle)" x1="400" x2="404" y1="344" y2="344"/>
</g>
<g>
<line marker-end="url(#triangle)" x1="408" x2="404" y1="152" y2="152"/>
</g>
<g>
<line marker-end="url(#triangle)" x1="408" x2="404" y1="216" y2="216"/>
</g>
<g>
<line marker-end="url(#triangle)" x1="408" x2="404" y1="280" y2="280"/>
</g>
<g>
<line marker-end="url(#triangle)" x1="408" x2="412" y1="344" y2="344"/>
</g>
<g>
<line marker-end="url(#triangle)" x1="416" x2="412" y1="152" y2="152"/>
</g>
<g>
<line marker-end="url(#triangle)" x1="416" x2="412" y1="216" y2="216"/>
</g>
<g>
<line marker-end="url(#triangle)" x1="416" x2="412" y1="280" y2="280"/>
</g>
<g>
<line marker-end="url(#triangle)" x1="416" x2="420" y1="344" y2="344"/>
</g>
<g>
<line marker-end="url(#triangle)" x1="424" x2="420" y1="152" y2="152"/>
</g>
<g>
<line marker-end="url(#triangle)" x1="424" x2="420" y1="216" y2="216"/>
</g>
<g>
<line marker-end="url(#triangle)" x1="424" x2="420" y1="280" y2="280"/>
</g>
<g>
<line marker-start="url(#triangle)" x1="424" x2="428" y1="344" y2="344"/>
<line marker-end="url(#triangle)" x1="424" x2="428" y1="344" y2="344"/>
</g>
<g>
<line marker-end="url(#triangle)" x1="432" x2="428" y1="152" y2="152"/>
<line marker-end="url(#triangle)" x1="432" x2="452" y1="152" y2="152"/>
</g>
<g>
<line marker-end="url(#triangle)" x1="432" x2="428" y1="216" y2="216"/>
<line marker-end="url(#triangle)" x1="432" x2="452" y1="216" y2="216"/>
</g>
<g>
<line marker-end="url(#triangle)" x1="432" x2="428" y1="280" y2="280"/>
<line marker-end="url(#triangle)" x1="432" x2="452" y1="280" y2="280"/>
</g>
<g>
<line marker-end="url(#triangle)" x1="432" x2="452" y1="344" y2="344"/>
</g>
<g>
<line marker-end="url(#triangle)" x1="456" x2="460" y1="152" y2="152"/>
</g>
<g>
<line marker-end="url(#triangle)" x1="456" x2="460" y1="216" y2="216"/>
</g>
<g>
<line marker-end="url(#triangle)" x1="456" x2="460" y1="280" y2="280"/>
</g>
<g>
<line marker-end="url(#triangle)" x1="456" x2="460" y1="344" y2="344"/>
</g>
<g>
<line marker-end="url(#triangle)" x1="464" x2="468" y1="152" y2="152"/>
</g>
<g>
<line marker-end="url(#triangle)" x1="464" x2="468" y1="216" y2="216"/>
</g>
<g>
<line marker-end="url(#triangle)" x1="464" x2="468" y1="280" y2="280"/>
</g>
<g>
<line marker-end="url(#triangle)" x1="464" x2="468" y1="344" y2="344"/>
</g>
<g>
<line marker-end="url(#triangle)" x1="472" x2="476" y1="152" y2="152"/>
</g>
<g>
<line marker-end="url(#triangle)" x1="472" x2="476" y1="216" y2="216"/>
</g>
<g>
<line marker-end="url(#triangle)" x1="472" x2="476" y1="280" y2="280"/>
</g>
<g>
<line marker-end="url(#triangle)" x1="472" x2="476" y1="344" y2="344"/>
</g>
<g>
<line marker-end="url(#triangle)" x1="480" x2="500" y1="24" y2="24"/>
</g>
<g>
<line marker-end="url(#triangle)" x1="480" x2="484" y1="152" y2="152"/>
</g>
<g>
<line marker-end="url(#triangle)" x1="480" x2="484" y1="216" y2="216"/>
</g>
<g>
<line marker-end="url(#triangle)" x1="480" x2="484" y1="280" y2="280"/>
</g>
<g>
<line marker-end="url(#triangle)" x1="480" x2="484" y1="344" y2="344"/>
</g>
<g>
<line marker-end="url(#triangle)" x1="488" x2="492" y1="152" y2="152"/>
</g>
<g>
<line marker-end="url(#triangle)" x1="488" x2="492" y1="216" y2="216"/>
</g>
<g>
<line marker-end="url(#triangle)" x1="488" x2="492" y1="280" y2="280"/>
</g>
<g>
<line marker-end="url(#triangle)" x1="488" x2="492" y1="344" y2="344"/>
</g>
<g>
<line marker-end="url(#triangle)" x1="496" x2="500" y1="152" y2="152"/>
</g>
<g>
<line marker-end="url(#triangle)" x1="496" x2="500" y1="216" y2="216"/>
</g>
<g>
<line marker-end="url(#triangle)" x1="496" x2="500" y1="280" y2="280"/>
</g>
<g>
<line marker-end="url(#triangle)" x1="496" x2="500" y1="344" y2="344"/>
</g>
<g>
<line marker-end="url(#triangle)" x1="504" x2="508" y1="24" y2="24"/>
</g>
<g>
<line marker-end="url(#triangle)" x1="504" x2="508" y1="152" y2="152"/>
</g>
<g>
<line marker-end="url(#triangle)" x1="504" x2="508" y1="216" y2="216"/>
</g>
<g>
<line marker-end="url(#triangle)" x1="504" x2="508" y1="280" y2="280"/>
</g>
<g>
<line marker-end="url(#triangle)" x1="504" x2="508" y1="344" y2="344"/>
</g>
<g>
<line marker-end="url(#triangle)" x1="512" x2="516" y1="24" y2="24"/>
</g>
<g>
<line marker-start="url(#triangle)" x1="512" x2="516" y1="152" y2="152"/>
<line marker-end="url(#triangle)" x1="512" x2="516" y1="152" y2="152"/>
</g>
<g>
<line marker-start="url(#triangle)" x1="512" x2="516" y1="216" y2="216"/>
<line marker-end="url(#triangle)" x1="512" x2="516" y1="216" y2="216"/>
</g>
<g>
<line marker-start="url(#triangle)" x1="512" x2="516" y1="280" y2="280"/>
<line marker-end="url(#triangle)" x1="512" x2="516" y1="280" y2="280"/>
</g>
<g>
<line marker-start="url(#triangle)" x1="512" x2="516" y1="344" y2="344"/>
<line marker-end="url(#triangle)" x1="512" x2="516" y1="344" y2="344"/>
</g>
<g>
<line marker-end="url(#triangle)" x1="520" x2="524" y1="24" y2="24"/>
</g>
<g>
<line x1="520" x2="536" y1="152" y2="152"/>
</g>
<g>
<line marker-end="url(#triangle)" x1="520" x2="540" y1="216" y2="216"/>
</g>
<g>
<line marker-end="url(#triangle)" x1="520" x2="540" y1="280" y2="280"/>
</g>
<g>
<line marker-end="url(#triangle)" x1="520" x2="540" y1="344" y2="344"/>
</g>
<g>
<line marker-start="url(#triangle)" x1="528" x2="532" y1="24" y2="24"/>
<line marker-end="url(#triangle)" x1="528" x2="532" y1="24" y2="24"/>
</g>
<g>
<line marker-end="url(#triangle)" x1="536" x2="556" y1="24" y2="24"/>
</g>
<g>
<line x1="536" x2="576" y1="120" y2="120"/>
<path d="M 536 120 A 4 4 0 0 0 532 124"/>
<path d="M 580 124 A 4 4 0 0 0 576 120"/>
</g>
<g>
<line marker-start="url(#triangle)" x1="544" x2="540" y1="152" y2="152"/>
<line marker-end="url(#triangle)" x1="544" x2="540" y1="152" y2="152"/>
</g>
<g>
<line marker-end="url(#triangle)" x1="544" x2="548" y1="216" y2="216"/>
</g>
<g>
<line marker-end="url(#triangle)" x1="544" x2="548" y1="280" y2="280"/>
</g>
<g>
<line marker-end="url(#triangle)" x1="544" x2="548" y1="344" y2="344"/>
</g>
<g>
<line marker-end="url(#triangle)" x1="552" x2="548" y1="152" y2="152"/>
</g>
<g>
<line marker-end="url(#triangle)" x1="552" x2="556" y1="216" y2="216"/>
</g>
<g>
<line marker-end="url(#triangle)" x1="552" x2="556" y1="280" y2="280"/>
</g>
<g>
<line marker-end="url(#triangle)" x1="552" x2="556" y1="344" y2="344"/>
</g>
<g>
<line marker-end="url(#triangle)" x1="560" x2="564" y1="24" y2="24"/>
</g>
<g>
<line marker-end="url(#triangle)" x1="560" x2="556" y1="152" y2="152"/>
</g>
<g>
<line marker-end="url(#triangle)" x1="560" x2="564" y1="216" y2="216"/>
</g>
<g>
<line marker-end="url(#triangle)" x1="560" x2="564" y1="280" y2="280"/>
</g>
<g>
<line marker-end="url(#triangle)" x1="560" x2="564" y1="344" y2="344"/>
</g>
<g>
<line marker-end="url(#triangle)" x1="568" x2="572" y1="24" y2="24"/>
</g>
<g>
<line marker-end="url(#triangle)" x1="568" x2="564" y1="152" y2="152"/>
</g>
<g>
<line marker-start="url(#triangle)" x1="568" x2="572" y1="216" y2="216"/>
<line marker-end="url(#triangle)" x1="568" x2="572" y1="216" y2="216"/>
</g>
<g>
<line marker-start="url(#triangle)" x1="568" x2="572" y1="280" y2="280"/>
<line marker-end="url(#triangle)" x1="568" x2="572" y1="280" y2="280"/>
</g>
<g>
<line marker-start="url(#triangle)" x1="568" x2="572" y1="344" y2="344"/>
<line marker-end="url(#triangle)" x1="568" x2="572" y1="344" y2="344"/>
</g>
<g>
<line marker-end="url(#triangle)" x1="576" x2="580" y1="24" y2="24"/>
</g>
<g>
<line marker-end="url(#triangle)" x1="576" x2="572" y1="152" y2="152"/>
<line x1="576" x2="592" y1="152" y2="152"/>
</g>
<g>
<line x1="576" x2="592" y1="216" y2="216"/>
</g>
<g>
<line x1="576" x2="592" y1="280" y2="280"/>
</g>
<g>
<line x1="576" x2="592" y1="344" y2="344"/>
</g>
<g>
<line marker-start="url(#triangle)" x1="584" x2="588" y1="24" y2="24"/>
<line marker-end="url(#triangle)" x1="584" x2="588" y1="24" y2="24"/>
</g>
<g>
<line x1="592" x2="616" y1="24" y2="24"/>
</g>
<g>
<line marker-start="url(#triangle)" x1="624" x2="620" y1="24" y2="24"/>
<line marker-end="url(#triangle)" x1="624" x2="620" y1="24" y2="24"/>
</g>
<g>
<line marker-end="url(#triangle)" x1="632" x2="628" y1="24" y2="24"/>
</g>
<g>
<line marker-end="url(#triangle)" x1="640" x2="636" y1="24" y2="24"/>
</g>
<g>
<line marker-end="url(#triangle)" x1="648" x2="644" y1="24" y2="24"/>
</g>
<g>
<line marker-end="url(#triangle)" x1="656" x2="652" y1="24" y2="24"/>
<line marker-end="url(#triangle)" x1="656" x2="676" y1="24" y2="24"/>
</g>
<g>
<line marker-end="url(#triangle)" x1="680" x2="684" y1="24" y2="24"/>
</g>
<g>
<line marker-end="url(#triangle)" x1="688" x2="692" y1="24" y2="24"/>
</g>
<g>
<line marker-end="url(#triangle)" x1="696" x2="700" y1="24" y2="24"/>
</g>
<g>
<line marker-end="url(#triangle)" x1="704" x2="708" y1="24" y2="24"/>
</g>
<g>
<line marker-end="url(#triangle)" x1="712" x2="716" y1="24" y2="24"/>
</g>
<g>
<line marker-end="url(#triangle)" x1="720" x2="724" y1="24" y2="24"/>
</g>
<g>
<line marker-end="url(#triangle)" x1="728" x2="732" y1="24" y2="24"/>
</g>
<g>
<line marker-start="url(#triangle)" x1="736" x2="740" y1="24" y2="24"/>
<line marker-end="url(#triangle)" x1="736" x2="740" y1="24" y2="24"/>
</g>
<g>
<line x1="744" x2="760" y1="24" y2="24"/>
</g>
<g>
<line marker-start="url(#triangle)" x1="768" x2="764" y1="24" y2="24"/>
<line marker-end="url(#triangle)" x1="768" x2="764" y1="24" y2="24"/>
</g>
<g>
<line marker-end="url(#triangle)" x1="776" x2="772" y1="24" y2="24"/>
</g>
<g>
<line marker-end="url(#triangle)" x1="784" x2="780" y1="24" y2="24"/>
</g>
<g>
<line marker-end="url(#triangle)" x1="792" x2="788" y1="24" y2="24"/>
</g>
<g>
<line marker-end="url(#triangle)" x1="800" x2="796" y1="24" y2="24"/>
<line x1="800" x2="816" y1="24" y2="24"/>
</g>
<g>
<text x="33" y="12">
A
</text>
</g>
<g>
<text x="89" y="12">
B
</text>
</g>
<g>
<text x="129" y="44">
DESIRED
</text>
</g>
<g>
<text x="153" y="12">
C
</text>
</g>
<g>
<text x="225" y="12">
D
</text>
</g>
<g>
<text x="289" y="140">
B
</text>
</g>
<g>
<text x="289" y="204">
B
</text>
</g>
<g>
<text x="289" y="268">
A
</text>
</g>
<g>
<text x="289" y="332">
A
</text>
</g>
<g>
<text x="297" y="12">
E
</text>
</g>
<g>
<text x="329" y="108">
Parsimonious reversal path
</text>
</g>
<g>
<text x="345" y="140">
C
</text>
</g>
<g>
<text x="345" y="204">
C
</text>
</g>
<g>
<text x="345" y="268">
C
</text>
</g>
<g>
<text x="345" y="332">
B
</text>
</g>
<g>
<text x="401" y="28">
vs
</text>
</g>
<g>
<text x="409" y="140">
A
</text>
</g>
<g>
<text x="409" y="204">
A
</text>
</g>
<g>
<text x="409" y="268">
B
</text>
</g>
<g>
<text x="409" y="332">
C
</text>
</g>
<g>
<text x="481" y="140">
D
</text>
</g>
<g>
<text x="481" y="204">
D
</text>
</g>
<g>
<text x="481" y="268">
D
</text>
</g>
<g>
<text x="481" y="332">
D
</text>
</g>
<g>
<text x="513" y="12">
B
</text>
</g>
<g>
<text x="553" y="140">
E
</text>
</g>
<g>
<text x="553" y="204">
E
</text>
</g>
<g>
<text x="553" y="268">
E
</text>
</g>
<g>
<text x="553" y="332">
E
</text>
</g>
<g>
<text x="569" y="12">
C
</text>
</g>
<g>
<text x="609" y="44">
UNDESIRED
</text>
</g>
<g>
<text x="633" y="12">
A
</text>
</g>
<g>
<text x="705" y="12">
D
</text>
</g>
<g>
<text x="777" y="12">
E
</text>
</g>
</svg>
