<svg class="bob" font-family="arial" font-size="14" height="160" width="600" xmlns="http://www.w3.org/2000/svg">
<defs>
<marker id="triangle" markerHeight="8" markerWidth="8" orient="auto" refX="4" refY="2" viewBox="0 0 8 4">
<polygon class="fg_fill" points="0,0 0,4 8,2 0,0"/>
</marker>
<marker id="clear_triangle" markerHeight="10" markerWidth="10" orient="auto" refX="1" refY="7" viewBox="0 0 20 14">
<polygon class="bg_fill" points="2,2 2,12 18,7 2,2"/>
</marker>
<marker id="circle" markerHeight="5" markerWidth="5" orient="auto" refX="10" refY="10" viewBox="0 0 20 20">
<circle class="fg_fill" cx="10" cy="10" r="8"/>
</marker>
<marker id="square" markerHeight="5" markerWidth="5" orient="auto" refX="10" refY="10" viewBox="0 0 20 20">
<rect class="fg_fill" height="20" width="20" x="0" y="0"/>
</marker>
<marker id="open_circle" markerHeight="10" markerWidth="10" orient="auto" refX="10" refY="10" viewBox="0 0 20 20">
<circle class="bg_fill" cx="10" cy="10" r="4"/>
</marker>
<marker id="big_open_circle" markerHeight="20" markerWidth="20" orient="auto" refX="20" refY="20" viewBox="0 0 40 40">
<circle class="bg_fill" cx="20" cy="20" r="6"/>
</marker>
</defs>
<style type="text/css">

rect.backdrop {
    fill: white;
}
text{
    fill: black;
}

circle {
    fill: none;
    stroke: black;
    stroke-width: 2;
}

line {
    stroke: black;
    stroke-width: 2;
    stroke-opacity: 1;
    fill-opacity: 1;
    stroke-linecap: round;
    stroke-linejoin: miter;
}

path {
    fill: none;
    stroke: black;
    stroke-width: 2;
    stroke-opacity: 1;
    fill-opacity: 1;
    stroke-linecap: round;
    stroke-linejoin: miter;
}

line.dashed {
    stroke-dasharray: 5;
}

.fg_fill {
    fill: black;
}


.bg_fill {
    fill: white;
    stroke: black;
    stroke-width: 2;
}

tspan.head{
    fill: none;
    stroke: none;
}
    
</style>
<rect class="backdrop" height="160" width="600" x="0" y="0"/>
<g>
<line marker-end="url(#triangle)" x1="4" x2="4" y1="48" y2="140"/>
</g>
<g>
<line marker-end="url(#triangle)" x1="20" x2="20" y1="64" y2="140"/>
</g>
<g>
<line marker-end="url(#triangle)" x1="36" x2="36" y1="80" y2="140"/>
</g>
<g>
<line marker-end="url(#triangle)" x1="52" x2="52" y1="96" y2="140"/>
</g>
<g>
<line marker-end="url(#triangle)" x1="68" x2="68" y1="112" y2="140"/>
</g>
<g>
<text x="1" y="12">
*
</text>
</g>
<g>
<text x="1" y="44">
contains rating? no.
</text>
</g>
<g>
<text x="1" y="156">
T
</text>
</g>
<g>
<text x="17" y="12">
Searching for rating
</text>
</g>
<g>
<text x="17" y="60">
contains rating? no.
</text>
</g>
<g>
<text x="17" y="156">
h
</text>
</g>
<g>
<text x="33" y="76">
contains rating? no.
</text>
</g>
<g>
<text x="33" y="156">
e
</text>
</g>
<g>
<text x="49" y="92">
contains rating? no.
</text>
</g>
<g>
<text x="65" y="108">
contains rating? YES.
</text>
</g>
<g>
<text x="65" y="156">
r
</text>
</g>
<g>
<text x="81" y="156">
a
</text>
</g>
<g>
<text x="97" y="156">
t
</text>
</g>
<g>
<text x="113" y="156">
i
</text>
</g>
<g>
<text x="129" y="156">
n
</text>
</g>
<g>
<text x="145" y="156">
g
</text>
</g>
<g>
<text x="177" y="156">
o
</text>
</g>
<g>
<text x="193" y="156">
f
</text>
</g>
<g>
<text x="225" y="156">
t
</text>
</g>
<g>
<text x="241" y="156">
h
</text>
</g>
<g>
<text x="257" y="156">
e
</text>
</g>
<g>
<text x="289" y="156">
m
</text>
</g>
<g>
<text x="305" y="156">
o
</text>
</g>
<g>
<text x="321" y="156">
v
</text>
</g>
<g>
<text x="337" y="156">
i
</text>
</g>
<g>
<text x="353" y="156">
e
</text>
</g>
<g>
<text x="385" y="156">
w
</text>
</g>
<g>
<text x="401" y="156">
a
</text>
</g>
<g>
<text x="417" y="156">
s
</text>
</g>
<g>
<text x="449" y="156">
v
</text>
</g>
<g>
<text x="465" y="156">
e
</text>
</g>
<g>
<text x="481" y="156">
r
</text>
</g>
<g>
<text x="497" y="156">
y
</text>
</g>
<g>
<text x="529" y="156">
g
</text>
</g>
<g>
<text x="545" y="156">
o
</text>
</g>
<g>
<text x="561" y="156">
o
</text>
</g>
<g>
<text x="577" y="156">
d
</text>
</g>
<g>
<text x="593" y="156">
.
</text>
</g>
</svg>
