<svg class="bob" font-family="arial" font-size="14" height="208" width="416" xmlns="http://www.w3.org/2000/svg">
<defs>
<marker id="triangle" markerHeight="8" markerWidth="8" orient="auto" refX="4" refY="2" viewBox="0 0 8 4">
<polygon class="fg_fill" points="0,0 0,4 8,2 0,0"/>
</marker>
<marker id="clear_triangle" markerHeight="10" markerWidth="10" orient="auto" refX="1" refY="7" viewBox="0 0 20 14">
<polygon class="bg_fill" points="2,2 2,12 18,7 2,2"/>
</marker>
<marker id="circle" markerHeight="5" markerWidth="5" orient="auto" refX="10" refY="10" viewBox="0 0 20 20">
<circle class="fg_fill" cx="10" cy="10" r="8"/>
</marker>
<marker id="square" markerHeight="5" markerWidth="5" orient="auto" refX="10" refY="10" viewBox="0 0 20 20">
<rect class="fg_fill" height="20" width="20" x="0" y="0"/>
</marker>
<marker id="open_circle" markerHeight="10" markerWidth="10" orient="auto" refX="10" refY="10" viewBox="0 0 20 20">
<circle class="bg_fill" cx="10" cy="10" r="4"/>
</marker>
<marker id="big_open_circle" markerHeight="20" markerWidth="20" orient="auto" refX="20" refY="20" viewBox="0 0 40 40">
<circle class="bg_fill" cx="20" cy="20" r="6"/>
</marker>
</defs>
<style type="text/css">

rect.backdrop {
    fill: white;
}
text{
    fill: black;
}

circle {
    fill: none;
    stroke: black;
    stroke-width: 2;
}

line {
    stroke: black;
    stroke-width: 2;
    stroke-opacity: 1;
    fill-opacity: 1;
    stroke-linecap: round;
    stroke-linejoin: miter;
}

path {
    fill: none;
    stroke: black;
    stroke-width: 2;
    stroke-opacity: 1;
    fill-opacity: 1;
    stroke-linecap: round;
    stroke-linejoin: miter;
}

line.dashed {
    stroke-dasharray: 5;
}

.fg_fill {
    fill: black;
}


.bg_fill {
    fill: white;
    stroke: black;
    stroke-width: 2;
}

tspan.head{
    fill: none;
    stroke: none;
}
    
</style>
<rect class="backdrop" height="208" width="416" x="0" y="0"/>
<g>
<line marker-end="url(#circle)" marker-start="url(#circle)" x1="148" x2="116" y1="72" y2="136"/>
<line marker-end="url(#circle)" marker-start="url(#circle)" x1="148" x2="180" y1="72" y2="136"/>
<line marker-end="url(#circle)" marker-start="url(#circle)" x1="180" x2="148" y1="8" y2="72"/>
<line marker-end="url(#circle)" marker-start="url(#circle)" x1="180" x2="244" y1="8" y2="136"/>
</g>
<g>
<text x="1" y="76">
Ancestor Feline
</text>
</g>
<g>
<text x="1" y="188">
*
</text>
</g>
<g>
<text x="17" y="188">
The same tree as shown above, but with distances
</text>
</g>
<g>
<text x="17" y="204">
assigned to edge weights
</text>
</g>
<g>
<text x="105" y="156">
Cat
</text>
</g>
<g>
<text x="113" y="108">
1
</text>
</g>
<g>
<text x="137" y="44">
6
</text>
</g>
<g>
<text x="169" y="156">
Lion
</text>
</g>
<g>
<text x="177" y="108">
1
</text>
</g>
<g>
<text x="193" y="12">
Ancestor Animal
</text>
</g>
<g>
<text x="225" y="76">
16
</text>
</g>
<g>
<text x="233" y="156">
Bear
</text>
</g>
</svg>
