<?xml version="1.0" encoding="UTF-8" standalone="no"?>
<!DOCTYPE svg PUBLIC "-//W3C//DTD SVG 1.1//EN"
 "http://www.w3.org/Graphics/SVG/1.1/DTD/svg11.dtd">
<!-- Generated by graphviz version 2.40.1 (0)
 -->
<!-- Title: G Pages: 1 -->
<svg width="1762pt" height="126pt"
 viewBox="0.00 0.00 1761.82 125.92" xmlns="http://www.w3.org/2000/svg" xmlns:xlink="http://www.w3.org/1999/xlink">
<g id="graph0" class="graph" transform="scale(1 1) rotate(0) translate(4 121.9247)">
<title>G</title>
<polygon fill="#ffffff" stroke="transparent" points="-4,4 -4,-121.9247 1757.8195,-121.9247 1757.8195,4 -4,4"/>
<!-- (&#45;1, &#39;SINK&#39;) -->
<g id="node1" class="node">
<title>(&#45;1, &#39;SINK&#39;)</title>
<polygon fill="none" stroke="#000000" points="1692.9567,-51.974 1697.071,-52.0726 1701.1428,-52.22 1705.1554,-52.416 1709.0926,-52.66 1712.9385,-52.9513 1716.6781,-53.2892 1720.2967,-53.6726 1723.7807,-54.1006 1727.117,-54.5719 1730.2936,-55.0853 1733.2996,-55.6394 1736.1248,-56.2327 1738.7603,-56.8635 1741.1984,-57.5301 1743.4323,-58.2306 1745.4565,-58.9632 1747.2667,-59.7259 1748.8596,-60.5165 1750.2333,-61.3329 1751.3869,-62.1728 1752.3205,-63.034 1753.0355,-63.9141 1753.5342,-64.8107 1753.8199,-65.7212 1753.8967,-66.6433 1753.7698,-67.5744 1753.445,-68.5119 1752.9287,-69.4533 1752.2281,-70.396 1751.3509,-71.3374 1750.3053,-72.275 1749.0996,-73.2061 1747.7427,-74.1281 1746.2436,-75.0387 1744.6114,-75.9353 1742.8551,-76.8154 1740.9839,-77.6765 1739.0068,-78.5165 1736.9325,-79.3329 1734.7697,-80.1235 1732.5265,-80.8862 1730.211,-81.6188 1727.8307,-82.3193 1725.3926,-82.9859 1722.9035,-83.6167 1720.3696,-84.2099 1717.7966,-84.764 1715.1899,-85.2775 1712.5542,-85.7488 1709.8938,-86.1768 1707.2127,-86.5602 1704.5144,-86.8981 1701.802,-87.1894 1699.0782,-87.4334 1696.3456,-87.6293 1693.6064,-87.7768 1690.8626,-87.8754 1688.1161,-87.9247 1685.3687,-87.9247 1682.6223,-87.8754 1679.8785,-87.7768 1677.1392,-87.6293 1674.4066,-87.4334 1671.6829,-87.1894 1668.9705,-86.8981 1666.2722,-86.5602 1663.5911,-86.1768 1660.9307,-85.7488 1658.295,-85.2775 1655.6882,-84.764 1653.1153,-84.2099 1650.5814,-83.6167 1648.0923,-82.9859 1645.6542,-82.3193 1643.2739,-81.6188 1640.9583,-80.8862 1638.7152,-80.1235 1636.5523,-79.3329 1634.4781,-78.5165 1632.501,-77.6765 1630.6298,-76.8154 1628.8735,-75.9353 1627.2413,-75.0387 1625.7422,-74.1281 1624.3853,-73.2061 1623.1796,-72.275 1622.1339,-71.3374 1621.2567,-70.396 1620.5562,-69.4533 1620.0399,-68.5119 1619.715,-67.5744 1619.5881,-66.6433 1619.665,-65.7212 1619.9507,-64.8107 1620.4494,-63.9141 1621.1644,-63.034 1622.098,-62.1728 1623.2516,-61.3329 1624.6252,-60.5165 1626.2182,-59.7259 1628.0284,-58.9632 1630.0526,-58.2306 1632.2865,-57.5301 1634.7245,-56.8635 1637.3601,-56.2327 1640.1853,-55.6394 1643.1912,-55.0853 1646.3679,-54.5719 1649.7042,-54.1006 1653.1881,-53.6726 1656.8068,-53.2892 1660.5463,-52.9513 1664.3923,-52.66 1668.3295,-52.416 1672.3421,-52.22 1676.4139,-52.0726 1680.5282,-51.974 1684.6682,-51.9247 1688.8167,-51.9247 1692.9567,-51.974"/>
<text text-anchor="middle" x="1686.7424" y="-67.4247" font-family="Courier,monospace" font-weight="bold" font-size="10.00" fill="#000000">(&#45;1, &#39;SINK&#39;)</text>
</g>
<!-- (&#45;1, &#39;SOURCE&#39;) -->
<g id="node2" class="node">
<title>(&#45;1, &#39;SOURCE&#39;)</title>
<polygon fill="none" stroke="#000000" points="83.5559,-39.974 88.2404,-40.0726 92.8765,-40.22 97.4452,-40.416 101.928,-40.66 106.3069,-40.9513 110.5648,-41.2892 114.6849,-41.6726 118.6516,-42.1006 122.4503,-42.5719 126.0672,-43.0853 129.4897,-43.6394 132.7064,-44.2327 135.7073,-44.8635 138.4832,-45.5301 141.0267,-46.2306 143.3314,-46.9632 145.3924,-47.7259 147.2061,-48.5165 148.7702,-49.3329 150.0836,-50.1728 151.1466,-51.034 151.9607,-51.9141 152.5285,-52.8107 152.8538,-53.7212 152.9413,-54.6433 152.7968,-55.5744 152.427,-56.5119 151.8391,-57.4533 151.0415,-58.396 150.0427,-59.3374 148.8521,-60.275 147.4794,-61.2061 145.9345,-62.1281 144.2276,-63.0387 142.3691,-63.9353 140.3695,-64.8154 138.239,-65.6765 135.9879,-66.5165 133.6261,-67.3329 131.1636,-68.1235 128.6095,-68.8862 125.9731,-69.6188 123.2629,-70.3193 120.4869,-70.9859 117.6529,-71.6167 114.7678,-72.2099 111.8383,-72.764 108.8703,-73.2775 105.8693,-73.7488 102.8402,-74.1768 99.7876,-74.5602 96.7153,-74.8981 93.627,-75.1894 90.5258,-75.4334 87.4145,-75.6293 84.2957,-75.7768 81.1716,-75.8754 78.0445,-75.9247 74.9164,-75.9247 71.7893,-75.8754 68.6652,-75.7768 65.5464,-75.6293 62.4351,-75.4334 59.3339,-75.1894 56.2456,-74.8981 53.1733,-74.5602 50.1207,-74.1768 47.0916,-73.7488 44.0906,-73.2775 41.1226,-72.764 38.1931,-72.2099 35.308,-71.6167 32.474,-70.9859 29.698,-70.3193 26.9878,-69.6188 24.3513,-68.8862 21.7973,-68.1235 19.3348,-67.3329 16.973,-66.5165 14.7219,-65.6765 12.5914,-64.8154 10.5918,-63.9353 8.7333,-63.0387 7.0264,-62.1281 5.4815,-61.2061 4.1088,-60.275 2.9182,-59.3374 1.9194,-58.396 1.1218,-57.4533 .5339,-56.5119 .164,-55.5744 .0196,-54.6433 .1071,-53.7212 .4323,-52.8107 1.0001,-51.9141 1.8142,-51.034 2.8773,-50.1728 4.1907,-49.3329 5.7547,-48.5165 7.5684,-47.7259 9.6295,-46.9632 11.9342,-46.2306 14.4777,-45.5301 17.2536,-44.8635 20.2544,-44.2327 23.4712,-43.6394 26.8937,-43.0853 30.5106,-42.5719 34.3093,-42.1006 38.276,-41.6726 42.3961,-41.2892 46.6539,-40.9513 51.0329,-40.66 55.5157,-40.416 60.0844,-40.22 64.7205,-40.0726 69.405,-39.974 74.1187,-39.9247 78.8422,-39.9247 83.5559,-39.974"/>
<text text-anchor="middle" x="76.4804" y="-55.4247" font-family="Courier,monospace" font-weight="bold" font-size="10.00" fill="#000000">(&#45;1, &#39;SOURCE&#39;)</text>
</g>
<!-- (0, &#39;A&#39;) -->
<g id="node3" class="node">
<title>(0, &#39;A&#39;)</title>
<polygon fill="none" stroke="#000000" points="384.677,-66.974 387.6203,-67.0726 390.5333,-67.22 393.4039,-67.416 396.2205,-67.66 398.9719,-67.9513 401.6472,-68.2892 404.236,-68.6726 406.7284,-69.1006 409.1151,-69.5719 411.3877,-70.0853 413.5381,-70.6394 415.5593,-71.2327 417.4448,-71.8635 419.189,-72.5301 420.7871,-73.2306 422.2352,-73.9632 423.5302,-74.7259 424.6698,-75.5165 425.6525,-76.3329 426.4777,-77.1728 427.1457,-78.034 427.6572,-78.9141 428.0139,-79.8107 428.2183,-80.7212 428.2733,-81.6433 428.1825,-82.5744 427.9501,-83.5119 427.5808,-84.4533 427.0796,-85.396 426.452,-86.3374 425.704,-87.275 424.8414,-88.2061 423.8707,-89.1281 422.7983,-90.0387 421.6306,-90.9353 420.3741,-91.8154 419.0355,-92.6765 417.6211,-93.5165 416.1372,-94.3329 414.5899,-95.1235 412.9851,-95.8862 411.3286,-96.6188 409.6257,-97.3193 407.8815,-97.9859 406.1008,-98.6167 404.2881,-99.2099 402.4474,-99.764 400.5825,-100.2775 398.6969,-100.7488 396.7937,-101.1768 394.8757,-101.5602 392.9453,-101.8981 391.0049,-102.1894 389.0563,-102.4334 387.1014,-102.6293 385.1418,-102.7768 383.1789,-102.8754 381.2141,-102.9247 379.2486,-102.9247 377.2838,-102.8754 375.3209,-102.7768 373.3612,-102.6293 371.4063,-102.4334 369.4578,-102.1894 367.5173,-101.8981 365.587,-101.5602 363.6689,-101.1768 361.7657,-100.7488 359.8801,-100.2775 358.0153,-99.764 356.1746,-99.2099 354.3618,-98.6167 352.5811,-97.9859 350.8369,-97.3193 349.134,-96.6188 347.4775,-95.8862 345.8728,-95.1235 344.3255,-94.3329 342.8416,-93.5165 341.4272,-92.6765 340.0885,-91.8154 338.8321,-90.9353 337.6644,-90.0387 336.5919,-89.1281 335.6212,-88.2061 334.7587,-87.275 334.0106,-86.3374 333.3831,-85.396 332.8819,-84.4533 332.5125,-83.5119 332.2801,-82.5744 332.1894,-81.6433 332.2443,-80.7212 332.4487,-79.8107 332.8055,-78.9141 333.317,-78.034 333.9849,-77.1728 334.8102,-76.3329 335.7929,-75.5165 336.9325,-74.7259 338.2275,-73.9632 339.6756,-73.2306 341.2737,-72.5301 343.0179,-71.8635 344.9034,-71.2327 346.9245,-70.6394 349.075,-70.0853 351.3475,-69.5719 353.7343,-69.1006 356.2267,-68.6726 358.8154,-68.2892 361.4907,-67.9513 364.2421,-67.66 367.0588,-67.416 369.9294,-67.22 372.8423,-67.0726 375.7857,-66.974 378.7474,-66.9247 381.7153,-66.9247 384.677,-66.974"/>
<text text-anchor="middle" x="380.2313" y="-82.4247" font-family="Courier,monospace" font-weight="bold" font-size="10.00" fill="#000000">(0, &#39;A&#39;)</text>
</g>
<!-- (&#45;1, &#39;SOURCE&#39;)&#45;&gt;(0, &#39;A&#39;) -->
<g id="edge1" class="edge">
<title>(&#45;1, &#39;SOURCE&#39;)&#45;&gt;(0, &#39;A&#39;)</title>
<path fill="none" stroke="#000000" d="M142.7645,-63.8166C196.167,-68.5635 270.532,-75.1737 321.7435,-79.7258"/>
<polygon fill="#000000" stroke="#000000" points="321.7131,-83.2368 331.9838,-80.636 322.333,-76.2643 321.7131,-83.2368"/>
<text text-anchor="middle" x="242.4609" y="-80.9247" font-family="Courier,monospace" font-weight="bold" font-size="10.00" fill="#000000">0.11401579526142158</text>
</g>
<!-- (0, &#39;B&#39;) -->
<g id="node4" class="node">
<title>(0, &#39;B&#39;)</title>
<polygon fill="none" stroke="#000000" points="384.677,-12.974 387.6203,-13.0726 390.5333,-13.22 393.4039,-13.416 396.2205,-13.66 398.9719,-13.9513 401.6472,-14.2892 404.236,-14.6726 406.7284,-15.1006 409.1151,-15.5719 411.3877,-16.0853 413.5381,-16.6394 415.5593,-17.2327 417.4448,-17.8635 419.189,-18.5301 420.7871,-19.2306 422.2352,-19.9632 423.5302,-20.7259 424.6698,-21.5165 425.6525,-22.3329 426.4777,-23.1728 427.1457,-24.034 427.6572,-24.9141 428.0139,-25.8107 428.2183,-26.7212 428.2733,-27.6433 428.1825,-28.5744 427.9501,-29.5119 427.5808,-30.4533 427.0796,-31.396 426.452,-32.3374 425.704,-33.275 424.8414,-34.2061 423.8707,-35.1281 422.7983,-36.0387 421.6306,-36.9353 420.3741,-37.8154 419.0355,-38.6765 417.6211,-39.5165 416.1372,-40.3329 414.5899,-41.1235 412.9851,-41.8862 411.3286,-42.6188 409.6257,-43.3193 407.8815,-43.9859 406.1008,-44.6167 404.2881,-45.2099 402.4474,-45.764 400.5825,-46.2775 398.6969,-46.7488 396.7937,-47.1768 394.8757,-47.5602 392.9453,-47.8981 391.0049,-48.1894 389.0563,-48.4334 387.1014,-48.6293 385.1418,-48.7768 383.1789,-48.8754 381.2141,-48.9247 379.2486,-48.9247 377.2838,-48.8754 375.3209,-48.7768 373.3612,-48.6293 371.4063,-48.4334 369.4578,-48.1894 367.5173,-47.8981 365.587,-47.5602 363.6689,-47.1768 361.7657,-46.7488 359.8801,-46.2775 358.0153,-45.764 356.1746,-45.2099 354.3618,-44.6167 352.5811,-43.9859 350.8369,-43.3193 349.134,-42.6188 347.4775,-41.8862 345.8728,-41.1235 344.3255,-40.3329 342.8416,-39.5165 341.4272,-38.6765 340.0885,-37.8154 338.8321,-36.9353 337.6644,-36.0387 336.5919,-35.1281 335.6212,-34.2061 334.7587,-33.275 334.0106,-32.3374 333.3831,-31.396 332.8819,-30.4533 332.5125,-29.5119 332.2801,-28.5744 332.1894,-27.6433 332.2443,-26.7212 332.4487,-25.8107 332.8055,-24.9141 333.317,-24.034 333.9849,-23.1728 334.8102,-22.3329 335.7929,-21.5165 336.9325,-20.7259 338.2275,-19.9632 339.6756,-19.2306 341.2737,-18.5301 343.0179,-17.8635 344.9034,-17.2327 346.9245,-16.6394 349.075,-16.0853 351.3475,-15.5719 353.7343,-15.1006 356.2267,-14.6726 358.8154,-14.2892 361.4907,-13.9513 364.2421,-13.66 367.0588,-13.416 369.9294,-13.22 372.8423,-13.0726 375.7857,-12.974 378.7474,-12.9247 381.7153,-12.9247 384.677,-12.974"/>
<text text-anchor="middle" x="380.2313" y="-28.4247" font-family="Courier,monospace" font-weight="bold" font-size="10.00" fill="#000000">(0, &#39;B&#39;)</text>
</g>
<!-- (&#45;1, &#39;SOURCE&#39;)&#45;&gt;(0, &#39;B&#39;) -->
<g id="edge2" class="edge">
<title>(&#45;1, &#39;SOURCE&#39;)&#45;&gt;(0, &#39;B&#39;)</title>
<path fill="none" stroke="#000000" d="M151.565,-51.2505C205.6902,-46.4394 277.4732,-40.0587 326.0659,-35.7394"/>
<polygon fill="#000000" stroke="#000000" points="326.4176,-39.222 336.0684,-34.8503 325.7978,-32.2495 326.4176,-39.222"/>
<text text-anchor="middle" x="242.4609" y="-51.9247" font-family="Courier,monospace" font-weight="bold" font-size="10.00" fill="#000000">0.13098155552689283</text>
</g>
<!-- (1, &#39;A&#39;) -->
<g id="node5" class="node">
<title>(1, &#39;A&#39;)</title>
<polygon fill="none" stroke="#000000" points="660.2179,-73.974 663.1612,-74.0726 666.0742,-74.22 668.9448,-74.416 671.7614,-74.66 674.5128,-74.9513 677.1881,-75.2892 679.7769,-75.6726 682.2693,-76.1006 684.656,-76.5719 686.9286,-77.0853 689.079,-77.6394 691.1002,-78.2327 692.9857,-78.8635 694.7298,-79.5301 696.328,-80.2306 697.7761,-80.9632 699.0711,-81.7259 700.2107,-82.5165 701.1934,-83.3329 702.0186,-84.1728 702.6865,-85.034 703.1981,-85.9141 703.5548,-86.8107 703.7592,-87.7212 703.8142,-88.6433 703.7234,-89.5744 703.491,-90.5119 703.1217,-91.4533 702.6205,-92.396 701.9929,-93.3374 701.2449,-94.275 700.3823,-95.2061 699.4116,-96.1281 698.3392,-97.0387 697.1715,-97.9353 695.915,-98.8154 694.5764,-99.6765 693.162,-100.5165 691.678,-101.3329 690.1308,-102.1235 688.526,-102.8862 686.8695,-103.6188 685.1666,-104.3193 683.4224,-104.9859 681.6417,-105.6167 679.829,-106.2099 677.9883,-106.764 676.1234,-107.2775 674.2378,-107.7488 672.3346,-108.1768 670.4166,-108.5602 668.4862,-108.8981 666.5458,-109.1894 664.5972,-109.4334 662.6423,-109.6293 660.6827,-109.7768 658.7198,-109.8754 656.755,-109.9247 654.7895,-109.9247 652.8247,-109.8754 650.8618,-109.7768 648.9021,-109.6293 646.9472,-109.4334 644.9987,-109.1894 643.0582,-108.8981 641.1279,-108.5602 639.2098,-108.1768 637.3066,-107.7488 635.421,-107.2775 633.5562,-106.764 631.7155,-106.2099 629.9027,-105.6167 628.122,-104.9859 626.3778,-104.3193 624.6749,-103.6188 623.0184,-102.8862 621.4137,-102.1235 619.8664,-101.3329 618.3825,-100.5165 616.968,-99.6765 615.6294,-98.8154 614.373,-97.9353 613.2053,-97.0387 612.1328,-96.1281 611.1621,-95.2061 610.2996,-94.275 609.5515,-93.3374 608.924,-92.396 608.4228,-91.4533 608.0534,-90.5119 607.821,-89.5744 607.7302,-88.6433 607.7852,-87.7212 607.9896,-86.8107 608.3464,-85.9141 608.8579,-85.034 609.5258,-84.1728 610.3511,-83.3329 611.3338,-82.5165 612.4734,-81.7259 613.7684,-80.9632 615.2165,-80.2306 616.8146,-79.5301 618.5588,-78.8635 620.4442,-78.2327 622.4654,-77.6394 624.6158,-77.0853 626.8884,-76.5719 629.2752,-76.1006 631.7676,-75.6726 634.3563,-75.2892 637.0316,-74.9513 639.783,-74.66 642.5997,-74.416 645.4703,-74.22 648.3832,-74.0726 651.3266,-73.974 654.2883,-73.9247 657.2561,-73.9247 660.2179,-73.974"/>
<text text-anchor="middle" x="655.7722" y="-89.4247" font-family="Courier,monospace" font-weight="bold" font-size="10.00" fill="#000000">(1, &#39;A&#39;)</text>
</g>
<!-- (0, &#39;A&#39;)&#45;&gt;(1, &#39;A&#39;) -->
<g id="edge3" class="edge">
<title>(0, &#39;A&#39;)&#45;&gt;(1, &#39;A&#39;)</title>
<path fill="none" stroke="#000000" d="M426.5772,-86.3605C433.2626,-86.5568 440.0582,-86.7505 446.5018,-86.9247 497.6831,-88.3084 555.9112,-89.6834 597.9291,-90.6403"/>
<polygon fill="#000000" stroke="#000000" points="597.9021,-94.1405 607.9789,-90.8682 598.0609,-87.1423 597.9021,-94.1405"/>
<text text-anchor="middle" x="518.0018" y="-92.9247" font-family="Courier,monospace" font-weight="bold" font-size="10.00" fill="#000000">0.08597351808254765</text>
</g>
<!-- (1, &#39;B&#39;) -->
<g id="node6" class="node">
<title>(1, &#39;B&#39;)</title>
<polygon fill="none" stroke="#000000" points="660.2179,-12.974 663.1612,-13.0726 666.0742,-13.22 668.9448,-13.416 671.7614,-13.66 674.5128,-13.9513 677.1881,-14.2892 679.7769,-14.6726 682.2693,-15.1006 684.656,-15.5719 686.9286,-16.0853 689.079,-16.6394 691.1002,-17.2327 692.9857,-17.8635 694.7298,-18.5301 696.328,-19.2306 697.7761,-19.9632 699.0711,-20.7259 700.2107,-21.5165 701.1934,-22.3329 702.0186,-23.1728 702.6865,-24.034 703.1981,-24.9141 703.5548,-25.8107 703.7592,-26.7212 703.8142,-27.6433 703.7234,-28.5744 703.491,-29.5119 703.1217,-30.4533 702.6205,-31.396 701.9929,-32.3374 701.2449,-33.275 700.3823,-34.2061 699.4116,-35.1281 698.3392,-36.0387 697.1715,-36.9353 695.915,-37.8154 694.5764,-38.6765 693.162,-39.5165 691.678,-40.3329 690.1308,-41.1235 688.526,-41.8862 686.8695,-42.6188 685.1666,-43.3193 683.4224,-43.9859 681.6417,-44.6167 679.829,-45.2099 677.9883,-45.764 676.1234,-46.2775 674.2378,-46.7488 672.3346,-47.1768 670.4166,-47.5602 668.4862,-47.8981 666.5458,-48.1894 664.5972,-48.4334 662.6423,-48.6293 660.6827,-48.7768 658.7198,-48.8754 656.755,-48.9247 654.7895,-48.9247 652.8247,-48.8754 650.8618,-48.7768 648.9021,-48.6293 646.9472,-48.4334 644.9987,-48.1894 643.0582,-47.8981 641.1279,-47.5602 639.2098,-47.1768 637.3066,-46.7488 635.421,-46.2775 633.5562,-45.764 631.7155,-45.2099 629.9027,-44.6167 628.122,-43.9859 626.3778,-43.3193 624.6749,-42.6188 623.0184,-41.8862 621.4137,-41.1235 619.8664,-40.3329 618.3825,-39.5165 616.968,-38.6765 615.6294,-37.8154 614.373,-36.9353 613.2053,-36.0387 612.1328,-35.1281 611.1621,-34.2061 610.2996,-33.275 609.5515,-32.3374 608.924,-31.396 608.4228,-30.4533 608.0534,-29.5119 607.821,-28.5744 607.7302,-27.6433 607.7852,-26.7212 607.9896,-25.8107 608.3464,-24.9141 608.8579,-24.034 609.5258,-23.1728 610.3511,-22.3329 611.3338,-21.5165 612.4734,-20.7259 613.7684,-19.9632 615.2165,-19.2306 616.8146,-18.5301 618.5588,-17.8635 620.4442,-17.2327 622.4654,-16.6394 624.6158,-16.0853 626.8884,-15.5719 629.2752,-15.1006 631.7676,-14.6726 634.3563,-14.2892 637.0316,-13.9513 639.783,-13.66 642.5997,-13.416 645.4703,-13.22 648.3832,-13.0726 651.3266,-12.974 654.2883,-12.9247 657.2561,-12.9247 660.2179,-12.974"/>
<text text-anchor="middle" x="655.7722" y="-28.4247" font-family="Courier,monospace" font-weight="bold" font-size="10.00" fill="#000000">(1, &#39;B&#39;)</text>
</g>
<!-- (0, &#39;A&#39;)&#45;&gt;(1, &#39;B&#39;) -->
<g id="edge4" class="edge">
<title>(0, &#39;A&#39;)&#45;&gt;(1, &#39;B&#39;)</title>
<path fill="none" stroke="#000000" d="M426.5605,-77.1215C433.2483,-76.028 440.0491,-74.9339 446.5018,-73.9247 509.9674,-63.9983 527.0029,-67.7674 589.5018,-52.9247 597.8096,-50.9517 606.5628,-48.3989 614.8872,-45.7347"/>
<polygon fill="#000000" stroke="#000000" points="616.0156,-49.0481 624.4101,-42.5841 613.8168,-42.4023 616.0156,-49.0481"/>
<text text-anchor="middle" x="518.0018" y="-76.9247" font-family="Courier,monospace" font-weight="bold" font-size="10.00" fill="#000000">0.16319657518257732</text>
</g>
<!-- (0, &#39;B&#39;)&#45;&gt;(1, &#39;A&#39;) -->
<g id="edge5" class="edge">
<title>(0, &#39;B&#39;)&#45;&gt;(1, &#39;A&#39;)</title>
<path fill="none" stroke="#000000" d="M426.8862,-23.5666C470.7937,-18.7569 537.4024,-17.0207 589.5018,-39.9247 599.8588,-44.4779 598.8451,-50.6403 607.5018,-57.9247 612.34,-61.9959 617.6494,-66.0793 622.9218,-69.9326"/>
<polygon fill="#000000" stroke="#000000" points="620.9289,-72.8102 631.1038,-75.7635 624.9915,-67.1096 620.9289,-72.8102"/>
<text text-anchor="middle" x="518.0018" y="-42.9247" font-family="Courier,monospace" font-weight="bold" font-size="10.00" fill="#000000">0.11401579526142158</text>
</g>
<!-- (0, &#39;B&#39;)&#45;&gt;(1, &#39;B&#39;) -->
<g id="edge6" class="edge">
<title>(0, &#39;B&#39;)&#45;&gt;(1, &#39;B&#39;)</title>
<path fill="none" stroke="#000000" d="M414.0551,-16.7526C424.2942,-13.1306 435.6937,-9.7469 446.5018,-7.9247 509.1728,2.6416 526.8307,2.6416 589.5018,-7.9247 597.0168,-9.1917 604.8177,-11.2136 612.3157,-13.5457"/>
<polygon fill="#000000" stroke="#000000" points="611.3549,-16.9146 621.9485,-16.7526 613.566,-10.273 611.3549,-16.9146"/>
<text text-anchor="middle" x="518.0018" y="-10.9247" font-family="Courier,monospace" font-weight="bold" font-size="10.00" fill="#000000">0.13098155552689283</text>
</g>
<!-- (2, &#39;A&#39;) -->
<g id="node7" class="node">
<title>(2, &#39;A&#39;)</title>
<polygon fill="none" stroke="#000000" points="950.7587,-77.974 953.7021,-78.0726 956.6151,-78.22 959.4857,-78.416 962.3023,-78.66 965.0537,-78.9513 967.729,-79.2892 970.3177,-79.6726 972.8101,-80.1006 975.1969,-80.5719 977.4695,-81.0853 979.6199,-81.6394 981.6411,-82.2327 983.5265,-82.8635 985.2707,-83.5301 986.8689,-84.2306 988.317,-84.9632 989.612,-85.7259 990.7515,-86.5165 991.7343,-87.3329 992.5595,-88.1728 993.2274,-89.034 993.739,-89.9141 994.0957,-90.8107 994.3001,-91.7212 994.3551,-92.6433 994.2643,-93.5744 994.0319,-94.5119 993.6625,-95.4533 993.1614,-96.396 992.5338,-97.3374 991.7857,-98.275 990.9232,-99.2061 989.9525,-100.1281 988.8801,-101.0387 987.7123,-101.9353 986.4559,-102.8154 985.1173,-103.6765 983.7029,-104.5165 982.2189,-105.3329 980.6716,-106.1235 979.0669,-106.8862 977.4104,-107.6188 975.7075,-108.3193 973.9633,-108.9859 972.1826,-109.6167 970.3699,-110.2099 968.5292,-110.764 966.6643,-111.2775 964.7787,-111.7488 962.8755,-112.1768 960.9575,-112.5602 959.0271,-112.8981 957.0867,-113.1894 955.1381,-113.4334 953.1832,-113.6293 951.2236,-113.7768 949.2607,-113.8754 947.2958,-113.9247 945.3304,-113.9247 943.3655,-113.8754 941.4026,-113.7768 939.443,-113.6293 937.4881,-113.4334 935.5396,-113.1894 933.5991,-112.8981 931.6687,-112.5602 929.7507,-112.1768 927.8475,-111.7488 925.9619,-111.2775 924.097,-110.764 922.2564,-110.2099 920.4436,-109.6167 918.6629,-108.9859 916.9187,-108.3193 915.2158,-107.6188 913.5593,-106.8862 911.9546,-106.1235 910.4073,-105.3329 908.9234,-104.5165 907.5089,-103.6765 906.1703,-102.8154 904.9139,-101.9353 903.7462,-101.0387 902.6737,-100.1281 901.703,-99.2061 900.8405,-98.275 900.0924,-97.3374 899.4649,-96.396 898.9637,-95.4533 898.5943,-94.5119 898.3619,-93.5744 898.2711,-92.6433 898.3261,-91.7212 898.5305,-90.8107 898.8873,-89.9141 899.3988,-89.034 900.0667,-88.1728 900.8919,-87.3329 901.8747,-86.5165 903.0143,-85.7259 904.3092,-84.9632 905.7574,-84.2306 907.3555,-83.5301 909.0997,-82.8635 910.9851,-82.2327 913.0063,-81.6394 915.1567,-81.0853 917.4293,-80.5719 919.8161,-80.1006 922.3085,-79.6726 924.8972,-79.2892 927.5725,-78.9513 930.3239,-78.66 933.1405,-78.416 936.0111,-78.22 938.9241,-78.0726 941.8675,-77.974 944.8292,-77.9247 947.797,-77.9247 950.7587,-77.974"/>
<text text-anchor="middle" x="946.3131" y="-93.4247" font-family="Courier,monospace" font-weight="bold" font-size="10.00" fill="#000000">(2, &#39;A&#39;)</text>
</g>
<!-- (1, &#39;A&#39;)&#45;&gt;(2, &#39;A&#39;) -->
<g id="edge7" class="edge">
<title>(1, &#39;A&#39;)&#45;&gt;(2, &#39;A&#39;)</title>
<path fill="none" stroke="#000000" d="M702.7755,-92.5718C753.3204,-93.2677 833.7438,-94.3749 888.2167,-95.1249"/>
<polygon fill="#000000" stroke="#000000" points="888.3633,-98.6271 898.4106,-95.2652 888.4598,-91.6278 888.3633,-98.6271"/>
<text text-anchor="middle" x="801.0427" y="-97.9247" font-family="Courier,monospace" font-weight="bold" font-size="10.00" fill="#000000">0.06637411895807382</text>
</g>
<!-- (2, &#39;B&#39;) -->
<g id="node8" class="node">
<title>(2, &#39;B&#39;)</title>
<polygon fill="none" stroke="#000000" points="950.7587,-16.974 953.7021,-17.0726 956.6151,-17.22 959.4857,-17.416 962.3023,-17.66 965.0537,-17.9513 967.729,-18.2892 970.3177,-18.6726 972.8101,-19.1006 975.1969,-19.5719 977.4695,-20.0853 979.6199,-20.6394 981.6411,-21.2327 983.5265,-21.8635 985.2707,-22.5301 986.8689,-23.2306 988.317,-23.9632 989.612,-24.7259 990.7515,-25.5165 991.7343,-26.3329 992.5595,-27.1728 993.2274,-28.034 993.739,-28.9141 994.0957,-29.8107 994.3001,-30.7212 994.3551,-31.6433 994.2643,-32.5744 994.0319,-33.5119 993.6625,-34.4533 993.1614,-35.396 992.5338,-36.3374 991.7857,-37.275 990.9232,-38.2061 989.9525,-39.1281 988.8801,-40.0387 987.7123,-40.9353 986.4559,-41.8154 985.1173,-42.6765 983.7029,-43.5165 982.2189,-44.3329 980.6716,-45.1235 979.0669,-45.8862 977.4104,-46.6188 975.7075,-47.3193 973.9633,-47.9859 972.1826,-48.6167 970.3699,-49.2099 968.5292,-49.764 966.6643,-50.2775 964.7787,-50.7488 962.8755,-51.1768 960.9575,-51.5602 959.0271,-51.8981 957.0867,-52.1894 955.1381,-52.4334 953.1832,-52.6293 951.2236,-52.7768 949.2607,-52.8754 947.2958,-52.9247 945.3304,-52.9247 943.3655,-52.8754 941.4026,-52.7768 939.443,-52.6293 937.4881,-52.4334 935.5396,-52.1894 933.5991,-51.8981 931.6687,-51.5602 929.7507,-51.1768 927.8475,-50.7488 925.9619,-50.2775 924.097,-49.764 922.2564,-49.2099 920.4436,-48.6167 918.6629,-47.9859 916.9187,-47.3193 915.2158,-46.6188 913.5593,-45.8862 911.9546,-45.1235 910.4073,-44.3329 908.9234,-43.5165 907.5089,-42.6765 906.1703,-41.8154 904.9139,-40.9353 903.7462,-40.0387 902.6737,-39.1281 901.703,-38.2061 900.8405,-37.275 900.0924,-36.3374 899.4649,-35.396 898.9637,-34.4533 898.5943,-33.5119 898.3619,-32.5744 898.2711,-31.6433 898.3261,-30.7212 898.5305,-29.8107 898.8873,-28.9141 899.3988,-28.034 900.0667,-27.1728 900.8919,-26.3329 901.8747,-25.5165 903.0143,-24.7259 904.3092,-23.9632 905.7574,-23.2306 907.3555,-22.5301 909.0997,-21.8635 910.9851,-21.2327 913.0063,-20.6394 915.1567,-20.0853 917.4293,-19.5719 919.8161,-19.1006 922.3085,-18.6726 924.8972,-18.2892 927.5725,-17.9513 930.3239,-17.66 933.1405,-17.416 936.0111,-17.22 938.9241,-17.0726 941.8675,-16.974 944.8292,-16.9247 947.797,-16.9247 950.7587,-16.974"/>
<text text-anchor="middle" x="946.3131" y="-32.4247" font-family="Courier,monospace" font-weight="bold" font-size="10.00" fill="#000000">(2, &#39;B&#39;)</text>
</g>
<!-- (1, &#39;A&#39;)&#45;&gt;(2, &#39;B&#39;) -->
<g id="edge8" class="edge">
<title>(1, &#39;A&#39;)&#45;&gt;(2, &#39;B&#39;)</title>
<path fill="none" stroke="#000000" d="M699.8849,-82.1175C707.2652,-80.6171 714.8572,-79.1593 722.0427,-77.9247 791.8593,-65.9283 811.0096,-72.8214 880.0427,-56.9247 888.3638,-55.0085 897.1229,-52.4813 905.4491,-49.8243"/>
<polygon fill="#000000" stroke="#000000" points="906.5771,-53.1378 914.9721,-46.6745 904.3789,-46.4919 906.5771,-53.1378"/>
<text text-anchor="middle" x="801.0427" y="-80.9247" font-family="Courier,monospace" font-weight="bold" font-size="10.00" fill="#000000">8.035281889836401e&#45;05</text>
</g>
<!-- (1, &#39;B&#39;)&#45;&gt;(2, &#39;A&#39;) -->
<g id="edge9" class="edge">
<title>(1, &#39;B&#39;)&#45;&gt;(2, &#39;A&#39;)</title>
<path fill="none" stroke="#000000" d="M703.4647,-29.7589C759.7728,-29.0616 849.6172,-30.2773 880.0427,-43.9247 890.3655,-48.555 889.386,-54.6403 898.0427,-61.9247 902.8809,-65.9959 908.1902,-70.0793 913.4627,-73.9326"/>
<polygon fill="#000000" stroke="#000000" points="911.4698,-76.8102 921.6447,-79.7635 915.5323,-71.1096 911.4698,-76.8102"/>
<text text-anchor="middle" x="801.0427" y="-46.9247" font-family="Courier,monospace" font-weight="bold" font-size="10.00" fill="#000000">0.08802359292212336</text>
</g>
<!-- (1, &#39;B&#39;)&#45;&gt;(2, &#39;B&#39;) -->
<g id="edge10" class="edge">
<title>(1, &#39;B&#39;)&#45;&gt;(2, &#39;B&#39;)</title>
<path fill="none" stroke="#000000" d="M693.9266,-18.0256C703.0344,-15.4951 712.7978,-13.2238 722.0427,-11.9247 791.5817,-2.153 810.7977,-.2501 880.0427,-11.9247 887.5577,-13.1917 895.3586,-15.2136 902.8565,-17.5457"/>
<polygon fill="#000000" stroke="#000000" points="901.8958,-20.9146 912.4894,-20.7526 904.1069,-14.273 901.8958,-20.9146"/>
<text text-anchor="middle" x="801.0427" y="-14.9247" font-family="Courier,monospace" font-weight="bold" font-size="10.00" fill="#000000">6.449116471043468e&#45;05</text>
</g>
<!-- (3, &#39;A&#39;) -->
<g id="node9" class="node">
<title>(3, &#39;A&#39;)</title>
<polygon fill="none" stroke="#000000" points="1241.2996,-81.974 1244.243,-82.0726 1247.156,-82.22 1250.0266,-82.416 1252.8432,-82.66 1255.5946,-82.9513 1258.2699,-83.2892 1260.8586,-83.6726 1263.351,-84.1006 1265.7378,-84.5719 1268.0104,-85.0853 1270.1608,-85.6394 1272.182,-86.2327 1274.0674,-86.8635 1275.8116,-87.5301 1277.4097,-88.2306 1278.8579,-88.9632 1280.1528,-89.7259 1281.2924,-90.5165 1282.2752,-91.3329 1283.1004,-92.1728 1283.7683,-93.034 1284.2798,-93.9141 1284.6366,-94.8107 1284.841,-95.7212 1284.896,-96.6433 1284.8052,-97.5744 1284.5728,-98.5119 1284.2034,-99.4533 1283.7022,-100.396 1283.0747,-101.3374 1282.3266,-102.275 1281.4641,-103.2061 1280.4934,-104.1281 1279.4209,-105.0387 1278.2532,-105.9353 1276.9968,-106.8154 1275.6582,-107.6765 1274.2437,-108.5165 1272.7598,-109.3329 1271.2125,-110.1235 1269.6078,-110.8862 1267.9513,-111.6188 1266.2484,-112.3193 1264.5042,-112.9859 1262.7235,-113.6167 1260.9107,-114.2099 1259.0701,-114.764 1257.2052,-115.2775 1255.3196,-115.7488 1253.4164,-116.1768 1251.4984,-116.5602 1249.568,-116.8981 1247.6275,-117.1894 1245.679,-117.4334 1243.7241,-117.6293 1241.7645,-117.7768 1239.8016,-117.8754 1237.8367,-117.9247 1235.8713,-117.9247 1233.9064,-117.8754 1231.9435,-117.7768 1229.9839,-117.6293 1228.029,-117.4334 1226.0804,-117.1894 1224.14,-116.8981 1222.2096,-116.5602 1220.2916,-116.1768 1218.3884,-115.7488 1216.5028,-115.2775 1214.6379,-114.764 1212.7972,-114.2099 1210.9845,-113.6167 1209.2038,-112.9859 1207.4596,-112.3193 1205.7567,-111.6188 1204.1002,-110.8862 1202.4955,-110.1235 1200.9482,-109.3329 1199.4642,-108.5165 1198.0498,-107.6765 1196.7112,-106.8154 1195.4548,-105.9353 1194.287,-105.0387 1193.2146,-104.1281 1192.2439,-103.2061 1191.3814,-102.275 1190.6333,-101.3374 1190.0057,-100.396 1189.5046,-99.4533 1189.1352,-98.5119 1188.9028,-97.5744 1188.812,-96.6433 1188.867,-95.7212 1189.0714,-94.8107 1189.4281,-93.9141 1189.9397,-93.034 1190.6076,-92.1728 1191.4328,-91.3329 1192.4156,-90.5165 1193.5551,-89.7259 1194.8501,-88.9632 1196.2982,-88.2306 1197.8964,-87.5301 1199.6406,-86.8635 1201.526,-86.2327 1203.5472,-85.6394 1205.6976,-85.0853 1207.9702,-84.5719 1210.357,-84.1006 1212.8494,-83.6726 1215.4381,-83.2892 1218.1134,-82.9513 1220.8648,-82.66 1223.6814,-82.416 1226.552,-82.22 1229.465,-82.0726 1232.4084,-81.974 1235.3701,-81.9247 1238.3379,-81.9247 1241.2996,-81.974"/>
<text text-anchor="middle" x="1236.854" y="-97.4247" font-family="Courier,monospace" font-weight="bold" font-size="10.00" fill="#000000">(3, &#39;A&#39;)</text>
</g>
<!-- (2, &#39;A&#39;)&#45;&gt;(3, &#39;A&#39;) -->
<g id="edge11" class="edge">
<title>(2, &#39;A&#39;)&#45;&gt;(3, &#39;A&#39;)</title>
<path fill="none" stroke="#000000" d="M993.3164,-96.5718C1043.8613,-97.2677 1124.2847,-98.3749 1178.7576,-99.1249"/>
<polygon fill="#000000" stroke="#000000" points="1178.9042,-102.6271 1188.9515,-99.2652 1179.0007,-95.6278 1178.9042,-102.6271"/>
<text text-anchor="middle" x="1091.5835" y="-101.9247" font-family="Courier,monospace" font-weight="bold" font-size="10.00" fill="#000000">0.06637411895807382</text>
</g>
<!-- (3, &#39;B&#39;) -->
<g id="node10" class="node">
<title>(3, &#39;B&#39;)</title>
<polygon fill="none" stroke="#000000" points="1241.2996,-20.974 1244.243,-21.0726 1247.156,-21.22 1250.0266,-21.416 1252.8432,-21.66 1255.5946,-21.9513 1258.2699,-22.2892 1260.8586,-22.6726 1263.351,-23.1006 1265.7378,-23.5719 1268.0104,-24.0853 1270.1608,-24.6394 1272.182,-25.2327 1274.0674,-25.8635 1275.8116,-26.5301 1277.4097,-27.2306 1278.8579,-27.9632 1280.1528,-28.7259 1281.2924,-29.5165 1282.2752,-30.3329 1283.1004,-31.1728 1283.7683,-32.034 1284.2798,-32.9141 1284.6366,-33.8107 1284.841,-34.7212 1284.896,-35.6433 1284.8052,-36.5744 1284.5728,-37.5119 1284.2034,-38.4533 1283.7022,-39.396 1283.0747,-40.3374 1282.3266,-41.275 1281.4641,-42.2061 1280.4934,-43.1281 1279.4209,-44.0387 1278.2532,-44.9353 1276.9968,-45.8154 1275.6582,-46.6765 1274.2437,-47.5165 1272.7598,-48.3329 1271.2125,-49.1235 1269.6078,-49.8862 1267.9513,-50.6188 1266.2484,-51.3193 1264.5042,-51.9859 1262.7235,-52.6167 1260.9107,-53.2099 1259.0701,-53.764 1257.2052,-54.2775 1255.3196,-54.7488 1253.4164,-55.1768 1251.4984,-55.5602 1249.568,-55.8981 1247.6275,-56.1894 1245.679,-56.4334 1243.7241,-56.6293 1241.7645,-56.7768 1239.8016,-56.8754 1237.8367,-56.9247 1235.8713,-56.9247 1233.9064,-56.8754 1231.9435,-56.7768 1229.9839,-56.6293 1228.029,-56.4334 1226.0804,-56.1894 1224.14,-55.8981 1222.2096,-55.5602 1220.2916,-55.1768 1218.3884,-54.7488 1216.5028,-54.2775 1214.6379,-53.764 1212.7972,-53.2099 1210.9845,-52.6167 1209.2038,-51.9859 1207.4596,-51.3193 1205.7567,-50.6188 1204.1002,-49.8862 1202.4955,-49.1235 1200.9482,-48.3329 1199.4642,-47.5165 1198.0498,-46.6765 1196.7112,-45.8154 1195.4548,-44.9353 1194.287,-44.0387 1193.2146,-43.1281 1192.2439,-42.2061 1191.3814,-41.275 1190.6333,-40.3374 1190.0057,-39.396 1189.5046,-38.4533 1189.1352,-37.5119 1188.9028,-36.5744 1188.812,-35.6433 1188.867,-34.7212 1189.0714,-33.8107 1189.4281,-32.9141 1189.9397,-32.034 1190.6076,-31.1728 1191.4328,-30.3329 1192.4156,-29.5165 1193.5551,-28.7259 1194.8501,-27.9632 1196.2982,-27.2306 1197.8964,-26.5301 1199.6406,-25.8635 1201.526,-25.2327 1203.5472,-24.6394 1205.6976,-24.0853 1207.9702,-23.5719 1210.357,-23.1006 1212.8494,-22.6726 1215.4381,-22.2892 1218.1134,-21.9513 1220.8648,-21.66 1223.6814,-21.416 1226.552,-21.22 1229.465,-21.0726 1232.4084,-20.974 1235.3701,-20.9247 1238.3379,-20.9247 1241.2996,-20.974"/>
<text text-anchor="middle" x="1236.854" y="-36.4247" font-family="Courier,monospace" font-weight="bold" font-size="10.00" fill="#000000">(3, &#39;B&#39;)</text>
</g>
<!-- (2, &#39;A&#39;)&#45;&gt;(3, &#39;B&#39;) -->
<g id="edge12" class="edge">
<title>(2, &#39;A&#39;)&#45;&gt;(3, &#39;B&#39;)</title>
<path fill="none" stroke="#000000" d="M990.4258,-86.1175C997.8061,-84.6171 1005.3981,-83.1593 1012.5835,-81.9247 1082.4002,-69.9283 1101.5505,-76.8214 1170.5835,-60.9247 1178.9047,-59.0085 1187.6638,-56.4813 1195.9899,-53.8243"/>
<polygon fill="#000000" stroke="#000000" points="1197.118,-57.1378 1205.513,-50.6745 1194.9197,-50.4919 1197.118,-57.1378"/>
<text text-anchor="middle" x="1091.5835" y="-84.9247" font-family="Courier,monospace" font-weight="bold" font-size="10.00" fill="#000000">8.035281889836401e&#45;05</text>
</g>
<!-- (2, &#39;B&#39;)&#45;&gt;(3, &#39;A&#39;) -->
<g id="edge13" class="edge">
<title>(2, &#39;B&#39;)&#45;&gt;(3, &#39;A&#39;)</title>
<path fill="none" stroke="#000000" d="M994.0056,-33.7589C1050.3137,-33.0616 1140.1581,-34.2773 1170.5835,-47.9247 1180.9063,-52.555 1179.9269,-58.6403 1188.5835,-65.9247 1193.4218,-69.9959 1198.7311,-74.0793 1204.0036,-77.9326"/>
<polygon fill="#000000" stroke="#000000" points="1202.0107,-80.8102 1212.1856,-83.7635 1206.0732,-75.1096 1202.0107,-80.8102"/>
<text text-anchor="middle" x="1091.5835" y="-50.9247" font-family="Courier,monospace" font-weight="bold" font-size="10.00" fill="#000000">0.08802359292212336</text>
</g>
<!-- (2, &#39;B&#39;)&#45;&gt;(3, &#39;B&#39;) -->
<g id="edge14" class="edge">
<title>(2, &#39;B&#39;)&#45;&gt;(3, &#39;B&#39;)</title>
<path fill="none" stroke="#000000" d="M984.4675,-22.0256C993.5753,-19.4951 1003.3387,-17.2238 1012.5835,-15.9247 1082.1226,-6.153 1101.3386,-4.2501 1170.5835,-15.9247 1178.0986,-17.1917 1185.8995,-19.2136 1193.3974,-21.5457"/>
<polygon fill="#000000" stroke="#000000" points="1192.4366,-24.9146 1203.0302,-24.7526 1194.6478,-18.273 1192.4366,-24.9146"/>
<text text-anchor="middle" x="1091.5835" y="-18.9247" font-family="Courier,monospace" font-weight="bold" font-size="10.00" fill="#000000">6.449116471043468e&#45;05</text>
</g>
<!-- (4, &#39;A&#39;) -->
<g id="node11" class="node">
<title>(4, &#39;A&#39;)</title>
<polygon fill="none" stroke="#000000" points="1516.8405,-78.974 1519.7839,-79.0726 1522.6968,-79.22 1525.5674,-79.416 1528.3841,-79.66 1531.1355,-79.9513 1533.8108,-80.2892 1536.3995,-80.6726 1538.8919,-81.1006 1541.2787,-81.5719 1543.5513,-82.0853 1545.7017,-82.6394 1547.7229,-83.2327 1549.6083,-83.8635 1551.3525,-84.5301 1552.9506,-85.2306 1554.3987,-85.9632 1555.6937,-86.7259 1556.8333,-87.5165 1557.816,-88.3329 1558.6413,-89.1728 1559.3092,-90.034 1559.8207,-90.9141 1560.1775,-91.8107 1560.3819,-92.7212 1560.4369,-93.6433 1560.3461,-94.5744 1560.1137,-95.5119 1559.7443,-96.4533 1559.2431,-97.396 1558.6156,-98.3374 1557.8675,-99.275 1557.005,-100.2061 1556.0343,-101.1281 1554.9618,-102.0387 1553.7941,-102.9353 1552.5377,-103.8154 1551.1991,-104.6765 1549.7846,-105.5165 1548.3007,-106.3329 1546.7534,-107.1235 1545.1487,-107.8862 1543.4922,-108.6188 1541.7893,-109.3193 1540.0451,-109.9859 1538.2644,-110.6167 1536.4516,-111.2099 1534.6109,-111.764 1532.7461,-112.2775 1530.8605,-112.7488 1528.9573,-113.1768 1527.0392,-113.5602 1525.1089,-113.8981 1523.1684,-114.1894 1521.2199,-114.4334 1519.265,-114.6293 1517.3053,-114.7768 1515.3424,-114.8754 1513.3776,-114.9247 1511.4121,-114.9247 1509.4473,-114.8754 1507.4844,-114.7768 1505.5248,-114.6293 1503.5699,-114.4334 1501.6213,-114.1894 1499.6809,-113.8981 1497.7505,-113.5602 1495.8325,-113.1768 1493.9293,-112.7488 1492.0437,-112.2775 1490.1788,-111.764 1488.3381,-111.2099 1486.5254,-110.6167 1484.7447,-109.9859 1483.0005,-109.3193 1481.2976,-108.6188 1479.6411,-107.8862 1478.0363,-107.1235 1476.4891,-106.3329 1475.0051,-105.5165 1473.5907,-104.6765 1472.2521,-103.8154 1470.9956,-102.9353 1469.8279,-102.0387 1468.7555,-101.1281 1467.7848,-100.2061 1466.9222,-99.275 1466.1742,-98.3374 1465.5466,-97.396 1465.0454,-96.4533 1464.6761,-95.5119 1464.4437,-94.5744 1464.3529,-93.6433 1464.4079,-92.7212 1464.6123,-91.8107 1464.969,-90.9141 1465.4806,-90.034 1466.1485,-89.1728 1466.9737,-88.3329 1467.9564,-87.5165 1469.096,-86.7259 1470.391,-85.9632 1471.8391,-85.2306 1473.4373,-84.5301 1475.1814,-83.8635 1477.0669,-83.2327 1479.0881,-82.6394 1481.2385,-82.0853 1483.5111,-81.5719 1485.8978,-81.1006 1488.3902,-80.6726 1490.979,-80.2892 1493.6543,-79.9513 1496.4057,-79.66 1499.2223,-79.416 1502.0929,-79.22 1505.0059,-79.0726 1507.9492,-78.974 1510.911,-78.9247 1513.8788,-78.9247 1516.8405,-78.974"/>
<text text-anchor="middle" x="1512.3949" y="-94.4247" font-family="Courier,monospace" font-weight="bold" font-size="10.00" fill="#000000">(4, &#39;A&#39;)</text>
</g>
<!-- (3, &#39;A&#39;)&#45;&gt;(4, &#39;A&#39;) -->
<g id="edge15" class="edge">
<title>(3, &#39;A&#39;)&#45;&gt;(4, &#39;A&#39;)</title>
<path fill="none" stroke="#000000" d="M1284.2324,-100.041C1326.6503,-100.0635 1390.5448,-99.896 1446.1244,-98.9247 1449.3469,-98.8684 1452.6572,-98.8005 1455.9977,-98.7241"/>
<polygon fill="#000000" stroke="#000000" points="1456.1419,-102.2217 1466.0515,-98.4732 1455.9672,-95.2239 1456.1419,-102.2217"/>
<text text-anchor="middle" x="1374.6244" y="-102.9247" font-family="Courier,monospace" font-weight="bold" font-size="10.00" fill="#000000">0.22467695804036233</text>
</g>
<!-- (4, &#39;B&#39;) -->
<g id="node12" class="node">
<title>(4, &#39;B&#39;)</title>
<polygon fill="none" stroke="#000000" points="1516.8405,-24.974 1519.7839,-25.0726 1522.6968,-25.22 1525.5674,-25.416 1528.3841,-25.66 1531.1355,-25.9513 1533.8108,-26.2892 1536.3995,-26.6726 1538.8919,-27.1006 1541.2787,-27.5719 1543.5513,-28.0853 1545.7017,-28.6394 1547.7229,-29.2327 1549.6083,-29.8635 1551.3525,-30.5301 1552.9506,-31.2306 1554.3987,-31.9632 1555.6937,-32.7259 1556.8333,-33.5165 1557.816,-34.3329 1558.6413,-35.1728 1559.3092,-36.034 1559.8207,-36.9141 1560.1775,-37.8107 1560.3819,-38.7212 1560.4369,-39.6433 1560.3461,-40.5744 1560.1137,-41.5119 1559.7443,-42.4533 1559.2431,-43.396 1558.6156,-44.3374 1557.8675,-45.275 1557.005,-46.2061 1556.0343,-47.1281 1554.9618,-48.0387 1553.7941,-48.9353 1552.5377,-49.8154 1551.1991,-50.6765 1549.7846,-51.5165 1548.3007,-52.3329 1546.7534,-53.1235 1545.1487,-53.8862 1543.4922,-54.6188 1541.7893,-55.3193 1540.0451,-55.9859 1538.2644,-56.6167 1536.4516,-57.2099 1534.6109,-57.764 1532.7461,-58.2775 1530.8605,-58.7488 1528.9573,-59.1768 1527.0392,-59.5602 1525.1089,-59.8981 1523.1684,-60.1894 1521.2199,-60.4334 1519.265,-60.6293 1517.3053,-60.7768 1515.3424,-60.8754 1513.3776,-60.9247 1511.4121,-60.9247 1509.4473,-60.8754 1507.4844,-60.7768 1505.5248,-60.6293 1503.5699,-60.4334 1501.6213,-60.1894 1499.6809,-59.8981 1497.7505,-59.5602 1495.8325,-59.1768 1493.9293,-58.7488 1492.0437,-58.2775 1490.1788,-57.764 1488.3381,-57.2099 1486.5254,-56.6167 1484.7447,-55.9859 1483.0005,-55.3193 1481.2976,-54.6188 1479.6411,-53.8862 1478.0363,-53.1235 1476.4891,-52.3329 1475.0051,-51.5165 1473.5907,-50.6765 1472.2521,-49.8154 1470.9956,-48.9353 1469.8279,-48.0387 1468.7555,-47.1281 1467.7848,-46.2061 1466.9222,-45.275 1466.1742,-44.3374 1465.5466,-43.396 1465.0454,-42.4533 1464.6761,-41.5119 1464.4437,-40.5744 1464.3529,-39.6433 1464.4079,-38.7212 1464.6123,-37.8107 1464.969,-36.9141 1465.4806,-36.034 1466.1485,-35.1728 1466.9737,-34.3329 1467.9564,-33.5165 1469.096,-32.7259 1470.391,-31.9632 1471.8391,-31.2306 1473.4373,-30.5301 1475.1814,-29.8635 1477.0669,-29.2327 1479.0881,-28.6394 1481.2385,-28.0853 1483.5111,-27.5719 1485.8978,-27.1006 1488.3902,-26.6726 1490.979,-26.2892 1493.6543,-25.9513 1496.4057,-25.66 1499.2223,-25.416 1502.0929,-25.22 1505.0059,-25.0726 1507.9492,-24.974 1510.911,-24.9247 1513.8788,-24.9247 1516.8405,-24.974"/>
<text text-anchor="middle" x="1512.3949" y="-40.4247" font-family="Courier,monospace" font-weight="bold" font-size="10.00" fill="#000000">(4, &#39;B&#39;)</text>
</g>
<!-- (3, &#39;A&#39;)&#45;&gt;(4, &#39;B&#39;) -->
<g id="edge16" class="edge">
<title>(3, &#39;A&#39;)&#45;&gt;(4, &#39;B&#39;)</title>
<path fill="none" stroke="#000000" d="M1280.9815,-90.2021C1288.36,-88.6915 1295.9476,-87.2084 1303.1244,-85.9247 1366.358,-74.6138 1383.6255,-79.7674 1446.1244,-64.9247 1454.4323,-62.9517 1463.1854,-60.3989 1471.5099,-57.7347"/>
<polygon fill="#000000" stroke="#000000" points="1472.6382,-61.0481 1481.0328,-54.5841 1470.4395,-54.4023 1472.6382,-61.0481"/>
<text text-anchor="middle" x="1374.6244" y="-88.9247" font-family="Courier,monospace" font-weight="bold" font-size="10.00" fill="#000000">0.4596984769175405</text>
</g>
<!-- (3, &#39;B&#39;)&#45;&gt;(4, &#39;A&#39;) -->
<g id="edge17" class="edge">
<title>(3, &#39;B&#39;)&#45;&gt;(4, &#39;A&#39;)</title>
<path fill="none" stroke="#000000" d="M1284.6283,-38.0174C1337.3204,-37.6928 1418.334,-39.3901 1446.1244,-51.9247 1456.4376,-56.5764 1455.102,-63.0986 1464.1244,-69.9247 1467.0941,-72.1715 1470.2718,-74.3572 1473.5263,-76.4487"/>
<polygon fill="#000000" stroke="#000000" points="1471.8679,-79.5365 1482.2306,-81.7425 1475.5054,-73.5558 1471.8679,-79.5365"/>
<text text-anchor="middle" x="1374.6244" y="-54.9247" font-family="Courier,monospace" font-weight="bold" font-size="10.00" fill="#000000">0.29796061181645506</text>
</g>
<!-- (3, &#39;B&#39;)&#45;&gt;(4, &#39;B&#39;) -->
<g id="edge18" class="edge">
<title>(3, &#39;B&#39;)&#45;&gt;(4, &#39;B&#39;)</title>
<path fill="none" stroke="#000000" d="M1275.0084,-26.0256C1284.1161,-23.4951 1293.8796,-21.2238 1303.1244,-19.9247 1366.0616,-11.0807 1383.4534,-9.3584 1446.1244,-19.9247 1453.6395,-21.1917 1461.4404,-23.2136 1468.9383,-25.5457"/>
<polygon fill="#000000" stroke="#000000" points="1467.9775,-28.9146 1478.5711,-28.7526 1470.1887,-22.273 1467.9775,-28.9146"/>
<text text-anchor="middle" x="1374.6244" y="-22.9247" font-family="Courier,monospace" font-weight="bold" font-size="10.00" fill="#000000">0.36895395330839675</text>
</g>
<!-- (4, &#39;A&#39;)&#45;&gt;(&#45;1, &#39;SINK&#39;) -->
<g id="edge19" class="edge">
<title>(4, &#39;A&#39;)&#45;&gt;(&#45;1, &#39;SINK&#39;)</title>
<path fill="none" stroke="#000000" d="M1559.1168,-89.6892C1578.8832,-86.6281 1602.2149,-83.0149 1623.4871,-79.7206"/>
<polygon fill="#000000" stroke="#000000" points="1624.0699,-83.1722 1633.4164,-78.1829 1622.9986,-76.2546 1624.0699,-83.1722"/>
<text text-anchor="middle" x="1590.1653" y="-88.9247" font-family="Courier,monospace" font-weight="bold" font-size="10.00" fill="#000000">1.0</text>
</g>
<!-- (4, &#39;B&#39;)&#45;&gt;(&#45;1, &#39;SINK&#39;) -->
<g id="edge20" class="edge">
<title>(4, &#39;B&#39;)&#45;&gt;(&#45;1, &#39;SINK&#39;)</title>
<path fill="none" stroke="#000000" d="M1553.7128,-49.3233C1571.972,-52.151 1593.9835,-55.5598 1614.7992,-58.7833"/>
<polygon fill="#000000" stroke="#000000" points="1614.4823,-62.2759 1624.9001,-60.3476 1615.5536,-55.3584 1614.4823,-62.2759"/>
<text text-anchor="middle" x="1590.1653" y="-58.9247" font-family="Courier,monospace" font-weight="bold" font-size="10.00" fill="#000000">1.0</text>
</g>
</g>
</svg>
