<?xml version="1.0" encoding="UTF-8" standalone="no"?>
<!DOCTYPE svg PUBLIC "-//W3C//DTD SVG 1.1//EN"
 "http://www.w3.org/Graphics/SVG/1.1/DTD/svg11.dtd">
<!-- Generated by graphviz version 2.40.1 (0)
 -->
<!-- Title: G Pages: 1 -->
<svg width="1975pt" height="609pt"
 viewBox="0.00 0.00 1974.71 608.63" xmlns="http://www.w3.org/2000/svg" xmlns:xlink="http://www.w3.org/1999/xlink">
<g id="graph0" class="graph" transform="scale(1 1) rotate(0) translate(4 604.6289)">
<title>G</title>
<polygon fill="#ffffff" stroke="transparent" points="-4,4 -4,-604.6289 1970.708,-604.6289 1970.708,4 -4,4"/>
<!-- STATE_A -->
<g id="node1" class="node">
<title>STATE_A</title>
<polygon fill="none" stroke="#000000" points="353.4168,-304.6782 355.1928,-304.7768 356.9505,-304.9242 358.6827,-305.1202 360.3823,-305.3642 362.0425,-305.6555 363.6568,-305.9934 365.2188,-306.3768 366.7228,-306.8048 368.163,-307.2761 369.5343,-307.7895 370.8319,-308.3436 372.0514,-308.9369 373.1891,-309.5677 374.2416,-310.2343 375.2059,-310.9348 376.0797,-311.6674 376.8611,-312.4301 377.5488,-313.2207 378.1418,-314.0371 378.6397,-314.877 379.0428,-315.7382 379.3514,-316.6183 379.5667,-317.5149 379.69,-318.4254 379.7232,-319.3475 379.6684,-320.2786 379.5282,-321.2161 379.3053,-322.1575 379.0029,-323.1002 378.6242,-324.0416 378.1728,-324.9792 377.6524,-325.9102 377.0666,-326.8323 376.4195,-327.7429 375.7149,-328.6395 374.9568,-329.5195 374.149,-330.3807 373.2955,-331.2207 372.4001,-332.0371 371.4665,-332.8277 370.4982,-333.5903 369.4986,-334.323 368.4711,-335.0235 367.4186,-335.6901 366.3441,-336.3209 365.2503,-336.9141 364.1396,-337.4682 363.0143,-337.9817 361.8765,-338.453 360.7281,-338.881 359.5708,-339.2644 358.406,-339.6022 357.2351,-339.8936 356.0593,-340.1375 354.8797,-340.3335 353.6972,-340.481 352.5128,-340.5795 351.3272,-340.6289 350.1412,-340.6289 348.9556,-340.5795 347.7712,-340.481 346.5887,-340.3335 345.4091,-340.1375 344.2334,-339.8936 343.0625,-339.6022 341.8977,-339.2644 340.7403,-338.881 339.5919,-338.453 338.4541,-337.9817 337.3288,-337.4682 336.2182,-336.9141 335.1243,-336.3209 334.0498,-335.6901 332.9974,-335.0235 331.9698,-334.323 330.9703,-333.5903 330.002,-332.8277 329.0683,-332.0371 328.1729,-331.2207 327.3194,-330.3807 326.5117,-329.5195 325.7535,-328.6395 325.0489,-327.7429 324.4018,-326.8323 323.8161,-325.9102 323.2956,-324.9792 322.8442,-324.0416 322.4656,-323.1002 322.1631,-322.1575 321.9403,-321.2161 321.8,-320.2786 321.7453,-319.3475 321.7784,-318.4254 321.9018,-317.5149 322.117,-316.6183 322.4257,-315.7382 322.8287,-314.877 323.3267,-314.0371 323.9197,-313.2207 324.6073,-312.4301 325.3887,-311.6674 326.2625,-310.9348 327.2268,-310.2343 328.2793,-309.5677 329.417,-308.9369 330.6366,-308.3436 331.9342,-307.7895 333.3055,-307.2761 334.7457,-306.8048 336.2496,-306.3768 337.8117,-305.9934 339.426,-305.6555 341.0862,-305.3642 342.7858,-305.1202 344.5179,-304.9242 346.2756,-304.7768 348.0517,-304.6782 349.8388,-304.6289 351.6296,-304.6289 353.4168,-304.6782"/>
<text text-anchor="middle" x="350.7342" y="-320.1289" font-family="Courier,monospace" font-weight="bold" font-size="10.00" fill="#000000">A</text>
</g>
<!-- STATE_B -->
<g id="node2" class="node">
<title>STATE_B</title>
<polygon fill="none" stroke="#000000" points="633.1602,-129.6782 634.9363,-129.7768 636.694,-129.9242 638.4261,-130.1202 640.1257,-130.3642 641.7859,-130.6555 643.4002,-130.9934 644.9623,-131.3768 646.4662,-131.8048 647.9064,-132.2761 649.2777,-132.7895 650.5753,-133.3436 651.7949,-133.9369 652.9326,-134.5677 653.9851,-135.2343 654.9494,-135.9348 655.8232,-136.6674 656.6046,-137.4301 657.2922,-138.2207 657.8852,-139.0371 658.3832,-139.877 658.7862,-140.7382 659.0949,-141.6183 659.3101,-142.5149 659.4334,-143.4254 659.4666,-144.3475 659.4118,-145.2786 659.2716,-146.2161 659.0487,-147.1575 658.7463,-148.1002 658.3677,-149.0416 657.9163,-149.9792 657.3958,-150.9102 656.8101,-151.8323 656.1629,-152.7429 655.4583,-153.6395 654.7002,-154.5195 653.8925,-155.3807 653.039,-156.2207 652.1436,-157.0371 651.2099,-157.8277 650.2416,-158.5903 649.242,-159.323 648.2145,-160.0235 647.162,-160.6901 646.0876,-161.3209 644.9937,-161.9141 643.883,-162.4682 642.7578,-162.9817 641.62,-163.453 640.4716,-163.881 639.3142,-164.2644 638.1494,-164.6022 636.9785,-164.8936 635.8027,-165.1375 634.6231,-165.3335 633.4407,-165.481 632.2562,-165.5795 631.0707,-165.6289 629.8847,-165.6289 628.6991,-165.5795 627.5146,-165.481 626.3322,-165.3335 625.1526,-165.1375 623.9768,-164.8936 622.8059,-164.6022 621.6411,-164.2644 620.4838,-163.881 619.3353,-163.453 618.1976,-162.9817 617.0723,-162.4682 615.9616,-161.9141 614.8678,-161.3209 613.7933,-160.6901 612.7408,-160.0235 611.7133,-159.323 610.7137,-158.5903 609.7454,-157.8277 608.8118,-157.0371 607.9164,-156.2207 607.0629,-155.3807 606.2551,-154.5195 605.497,-153.6395 604.7924,-152.7429 604.1452,-151.8323 603.5595,-150.9102 603.0391,-149.9792 602.5877,-149.0416 602.209,-148.1002 601.9066,-147.1575 601.6837,-146.2161 601.5435,-145.2786 601.4887,-144.3475 601.5219,-143.4254 601.6452,-142.5149 601.8605,-141.6183 602.1691,-140.7382 602.5722,-139.877 603.0701,-139.0371 603.6631,-138.2207 604.3507,-137.4301 605.1321,-136.6674 606.006,-135.9348 606.9703,-135.2343 608.0227,-134.5677 609.1604,-133.9369 610.38,-133.3436 611.6776,-132.7895 613.0489,-132.2761 614.4891,-131.8048 615.993,-131.3768 617.5551,-130.9934 619.1694,-130.6555 620.8296,-130.3642 622.5292,-130.1202 624.2614,-129.9242 626.0191,-129.7768 627.7951,-129.6782 629.5823,-129.6289 631.3731,-129.6289 633.1602,-129.6782"/>
<text text-anchor="middle" x="630.4777" y="-145.1289" font-family="Courier,monospace" font-weight="bold" font-size="10.00" fill="#000000">B</text>
</g>
<!-- STATE_A&#45;&gt;STATE_B -->
<g id="edge1" class="edge">
<title>STATE_A&#45;&gt;STATE_B</title>
<path fill="none" stroke="#000000" d="M359.7567,-304.9144C374.457,-277.8533 406.1603,-226.4385 447.7342,-198.6289 492.1236,-168.9359 553.5877,-156.3973 592.6929,-151.1945"/>
<polygon fill="#000000" stroke="#000000" points="593.3585,-154.639 602.8547,-149.9408 592.5013,-147.6916 593.3585,-154.639"/>
<text text-anchor="middle" x="515.7342" y="-201.6289" font-family="Courier,monospace" font-weight="bold" font-size="10.00" fill="#000000">0.9998000599820054</text>
</g>
<!-- STATE_E -->
<g id="node5" class="node">
<title>STATE_E</title>
<polygon fill="none" stroke="#000000" points="1638.9036,-315.6782 1640.6797,-315.7768 1642.4374,-315.9242 1644.1696,-316.1202 1645.8691,-316.3642 1647.5294,-316.6555 1649.1436,-316.9934 1650.7057,-317.3768 1652.2097,-317.8048 1653.6499,-318.2761 1655.0211,-318.7895 1656.3187,-319.3436 1657.5383,-319.9369 1658.676,-320.5677 1659.7285,-321.2343 1660.6928,-321.9348 1661.5666,-322.6674 1662.348,-323.4301 1663.0357,-324.2207 1663.6287,-325.0371 1664.1266,-325.877 1664.5296,-326.7382 1664.8383,-327.6183 1665.0536,-328.5149 1665.1769,-329.4254 1665.2101,-330.3475 1665.1553,-331.2786 1665.0151,-332.2161 1664.7922,-333.1575 1664.4898,-334.1002 1664.1111,-335.0416 1663.6597,-335.9792 1663.1393,-336.9102 1662.5535,-337.8323 1661.9064,-338.7429 1661.2018,-339.6395 1660.4436,-340.5195 1659.6359,-341.3807 1658.7824,-342.2207 1657.887,-343.0371 1656.9534,-343.8277 1655.985,-344.5903 1654.9855,-345.323 1653.9579,-346.0235 1652.9055,-346.6901 1651.831,-347.3209 1650.7372,-347.9141 1649.6265,-348.4682 1648.5012,-348.9817 1647.3634,-349.453 1646.215,-349.881 1645.0577,-350.2644 1643.8929,-350.6022 1642.722,-350.8936 1641.5462,-351.1375 1640.3666,-351.3335 1639.1841,-351.481 1637.9997,-351.5795 1636.8141,-351.6289 1635.6281,-351.6289 1634.4425,-351.5795 1633.2581,-351.481 1632.0756,-351.3335 1630.896,-351.1375 1629.7203,-350.8936 1628.5494,-350.6022 1627.3846,-350.2644 1626.2272,-349.881 1625.0788,-349.453 1623.941,-348.9817 1622.8157,-348.4682 1621.705,-347.9141 1620.6112,-347.3209 1619.5367,-346.6901 1618.4843,-346.0235 1617.4567,-345.323 1616.4572,-344.5903 1615.4889,-343.8277 1614.5552,-343.0371 1613.6598,-342.2207 1612.8063,-341.3807 1611.9986,-340.5195 1611.2404,-339.6395 1610.5358,-338.7429 1609.8887,-337.8323 1609.303,-336.9102 1608.7825,-335.9792 1608.3311,-335.0416 1607.9524,-334.1002 1607.65,-333.1575 1607.4272,-332.2161 1607.2869,-331.2786 1607.2321,-330.3475 1607.2653,-329.4254 1607.3886,-328.5149 1607.6039,-327.6183 1607.9126,-326.7382 1608.3156,-325.877 1608.8136,-325.0371 1609.4066,-324.2207 1610.0942,-323.4301 1610.8756,-322.6674 1611.7494,-321.9348 1612.7137,-321.2343 1613.7662,-320.5677 1614.9039,-319.9369 1616.1235,-319.3436 1617.4211,-318.7895 1618.7923,-318.2761 1620.2326,-317.8048 1621.7365,-317.3768 1623.2986,-316.9934 1624.9129,-316.6555 1626.5731,-316.3642 1628.2727,-316.1202 1630.0048,-315.9242 1631.7625,-315.7768 1633.5386,-315.6782 1635.3257,-315.6289 1637.1165,-315.6289 1638.9036,-315.6782"/>
<text text-anchor="middle" x="1636.2211" y="-331.1289" font-family="Courier,monospace" font-weight="bold" font-size="10.00" fill="#000000">E</text>
</g>
<!-- STATE_A&#45;&gt;STATE_E -->
<g id="edge2" class="edge">
<title>STATE_A&#45;&gt;STATE_E</title>
<path fill="none" stroke="#000000" d="M377.6786,-326.3242C427.4921,-332.8258 537.4025,-345.6289 630.4777,-345.6289 630.4777,-345.6289 630.4777,-345.6289 1284.2211,-345.6289 1398.6172,-345.6289 1533.8043,-339.22 1598.2988,-335.7695"/>
<polygon fill="#000000" stroke="#000000" points="1598.601,-339.2584 1608.397,-335.2224 1598.2222,-332.2686 1598.601,-339.2584"/>
<text text-anchor="middle" x="932.2211" y="-348.6289" font-family="Courier,monospace" font-weight="bold" font-size="10.00" fill="#000000">9.997000899730082e&#45;05</text>
</g>
<!-- STATE_F -->
<g id="node6" class="node">
<title>STATE_F</title>
<polygon fill="none" stroke="#000000" points="1286.9036,-188.6782 1288.6797,-188.7768 1290.4374,-188.9242 1292.1696,-189.1202 1293.8691,-189.3642 1295.5294,-189.6555 1297.1436,-189.9934 1298.7057,-190.3768 1300.2097,-190.8048 1301.6499,-191.2761 1303.0211,-191.7895 1304.3187,-192.3436 1305.5383,-192.9369 1306.676,-193.5677 1307.7285,-194.2343 1308.6928,-194.9348 1309.5666,-195.6674 1310.348,-196.4301 1311.0357,-197.2207 1311.6287,-198.0371 1312.1266,-198.877 1312.5296,-199.7382 1312.8383,-200.6183 1313.0536,-201.5149 1313.1769,-202.4254 1313.2101,-203.3475 1313.1553,-204.2786 1313.0151,-205.2161 1312.7922,-206.1575 1312.4898,-207.1002 1312.1111,-208.0416 1311.6597,-208.9792 1311.1393,-209.9102 1310.5535,-210.8323 1309.9064,-211.7429 1309.2018,-212.6395 1308.4436,-213.5195 1307.6359,-214.3807 1306.7824,-215.2207 1305.887,-216.0371 1304.9534,-216.8277 1303.985,-217.5903 1302.9855,-218.323 1301.9579,-219.0235 1300.9055,-219.6901 1299.831,-220.3209 1298.7372,-220.9141 1297.6265,-221.4682 1296.5012,-221.9817 1295.3634,-222.453 1294.215,-222.881 1293.0577,-223.2644 1291.8929,-223.6022 1290.722,-223.8936 1289.5462,-224.1375 1288.3666,-224.3335 1287.1841,-224.481 1285.9997,-224.5795 1284.8141,-224.6289 1283.6281,-224.6289 1282.4425,-224.5795 1281.2581,-224.481 1280.0756,-224.3335 1278.896,-224.1375 1277.7203,-223.8936 1276.5494,-223.6022 1275.3846,-223.2644 1274.2272,-222.881 1273.0788,-222.453 1271.941,-221.9817 1270.8157,-221.4682 1269.705,-220.9141 1268.6112,-220.3209 1267.5367,-219.6901 1266.4843,-219.0235 1265.4567,-218.323 1264.4572,-217.5903 1263.4889,-216.8277 1262.5552,-216.0371 1261.6598,-215.2207 1260.8063,-214.3807 1259.9986,-213.5195 1259.2404,-212.6395 1258.5358,-211.7429 1257.8887,-210.8323 1257.303,-209.9102 1256.7825,-208.9792 1256.3311,-208.0416 1255.9524,-207.1002 1255.65,-206.1575 1255.4272,-205.2161 1255.2869,-204.2786 1255.2321,-203.3475 1255.2653,-202.4254 1255.3886,-201.5149 1255.6039,-200.6183 1255.9126,-199.7382 1256.3156,-198.877 1256.8136,-198.0371 1257.4066,-197.2207 1258.0942,-196.4301 1258.8756,-195.6674 1259.7494,-194.9348 1260.7137,-194.2343 1261.7662,-193.5677 1262.9039,-192.9369 1264.1235,-192.3436 1265.4211,-191.7895 1266.7923,-191.2761 1268.2326,-190.8048 1269.7365,-190.3768 1271.2986,-189.9934 1272.9129,-189.6555 1274.5731,-189.3642 1276.2727,-189.1202 1278.0048,-188.9242 1279.7625,-188.7768 1281.5386,-188.6782 1283.3257,-188.6289 1285.1165,-188.6289 1286.9036,-188.6782"/>
<text text-anchor="middle" x="1284.2211" y="-204.1289" font-family="Courier,monospace" font-weight="bold" font-size="10.00" fill="#000000">F</text>
</g>
<!-- STATE_A&#45;&gt;STATE_F -->
<g id="edge3" class="edge">
<title>STATE_A&#45;&gt;STATE_F</title>
<path fill="none" stroke="#000000" d="M376.7842,-311.8086C431.3337,-289.8098 562.066,-240.5216 677.2211,-223.6289 789.3966,-207.1733 1073.8933,-212.9368 1187.2211,-209.6289 1206.5082,-209.0659 1227.9513,-208.4062 1245.7615,-207.8491"/>
<polygon fill="#000000" stroke="#000000" points="1245.8991,-211.3466 1255.7843,-207.5344 1245.6794,-204.35 1245.8991,-211.3466"/>
<text text-anchor="middle" x="756.2211" y="-226.6289" font-family="Courier,monospace" font-weight="bold" font-size="10.00" fill="#000000">9.997000899730082e&#45;05</text>
</g>
<!-- SYMBOL_x -->
<g id="node8" class="node">
<title>SYMBOL_x</title>
<polygon fill="none" stroke="#000000" stroke-dasharray="5,2" points="1940.6471,-486.6782 1942.4231,-486.7768 1944.1808,-486.9242 1945.913,-487.1202 1947.6126,-487.3642 1949.2728,-487.6555 1950.8871,-487.9934 1952.4492,-488.3768 1953.9531,-488.8048 1955.3933,-489.2761 1956.7646,-489.7895 1958.0622,-490.3436 1959.2818,-490.9369 1960.4195,-491.5677 1961.4719,-492.2343 1962.4363,-492.9348 1963.3101,-493.6674 1964.0915,-494.4301 1964.7791,-495.2207 1965.3721,-496.0371 1965.8701,-496.877 1966.2731,-497.7382 1966.5817,-498.6183 1966.797,-499.5149 1966.9203,-500.4254 1966.9535,-501.3475 1966.8987,-502.2786 1966.7585,-503.2161 1966.5356,-504.1575 1966.2332,-505.1002 1965.8545,-506.0416 1965.4032,-506.9792 1964.8827,-507.9102 1964.297,-508.8323 1963.6498,-509.7429 1962.9452,-510.6395 1962.1871,-511.5195 1961.3793,-512.3807 1960.5259,-513.2207 1959.6305,-514.0371 1958.6968,-514.8277 1957.7285,-515.5903 1956.7289,-516.323 1955.7014,-517.0235 1954.6489,-517.6901 1953.5744,-518.3209 1952.4806,-518.9141 1951.3699,-519.4682 1950.2447,-519.9817 1949.1069,-520.453 1947.9585,-520.881 1946.8011,-521.2644 1945.6363,-521.6022 1944.4654,-521.8936 1943.2896,-522.1375 1942.11,-522.3335 1940.9276,-522.481 1939.7431,-522.5795 1938.5575,-522.6289 1937.3716,-522.6289 1936.186,-522.5795 1935.0015,-522.481 1933.8191,-522.3335 1932.6395,-522.1375 1931.4637,-521.8936 1930.2928,-521.6022 1929.128,-521.2644 1927.9706,-520.881 1926.8222,-520.453 1925.6844,-519.9817 1924.5592,-519.4682 1923.4485,-518.9141 1922.3547,-518.3209 1921.2802,-517.6901 1920.2277,-517.0235 1919.2002,-516.323 1918.2006,-515.5903 1917.2323,-514.8277 1916.2986,-514.0371 1915.4032,-513.2207 1914.5498,-512.3807 1913.742,-511.5195 1912.9839,-510.6395 1912.2793,-509.7429 1911.6321,-508.8323 1911.0464,-507.9102 1910.5259,-506.9792 1910.0746,-506.0416 1909.6959,-505.1002 1909.3935,-504.1575 1909.1706,-503.2161 1909.0304,-502.2786 1908.9756,-501.3475 1909.0088,-500.4254 1909.1321,-499.5149 1909.3474,-498.6183 1909.656,-497.7382 1910.059,-496.877 1910.557,-496.0371 1911.15,-495.2207 1911.8376,-494.4301 1912.619,-493.6674 1913.4928,-492.9348 1914.4572,-492.2343 1915.5096,-491.5677 1916.6473,-490.9369 1917.8669,-490.3436 1919.1645,-489.7895 1920.5358,-489.2761 1921.976,-488.8048 1923.4799,-488.3768 1925.042,-487.9934 1926.6563,-487.6555 1928.3165,-487.3642 1930.0161,-487.1202 1931.7483,-486.9242 1933.506,-486.7768 1935.282,-486.6782 1937.0691,-486.6289 1938.86,-486.6289 1940.6471,-486.6782"/>
<text text-anchor="middle" x="1937.9645" y="-502.1289" font-family="Courier,monospace" font-weight="bold" font-size="10.00" fill="#000000">x</text>
</g>
<!-- STATE_A&#45;&gt;SYMBOL_x -->
<g id="edge14" class="edge">
<title>STATE_A&#45;&gt;SYMBOL_x</title>
<path fill="none" stroke="#000000" stroke-dasharray="5,2" d="M356.854,-340.1462C368.8871,-371.8036 398.7959,-438.2543 447.7342,-470.6289 572.1182,-552.9137 959.083,-589.6289 1108.2211,-589.6289 1108.2211,-589.6289 1108.2211,-589.6289 1636.2211,-589.6289 1752.3513,-589.6289 1783.3667,-575.6829 1891.2211,-532.6289 1897.9503,-529.9427 1904.8372,-526.3574 1911.185,-522.6515"/>
<polygon fill="#000000" stroke="#000000" points="1913.329,-525.4422 1920.0184,-517.2262 1909.6655,-519.4773 1913.329,-525.4422"/>
<text text-anchor="middle" x="1108.2211" y="-592.6289" font-family="Courier,monospace" font-weight="bold" font-size="10.00" fill="#000000">9.997000899730082e&#45;05</text>
</g>
<!-- SYMBOL_y -->
<g id="node9" class="node">
<title>SYMBOL_y</title>
<polygon fill="none" stroke="#000000" stroke-dasharray="5,2" points="1940.6471,-272.6782 1942.4231,-272.7768 1944.1808,-272.9242 1945.913,-273.1202 1947.6126,-273.3642 1949.2728,-273.6555 1950.8871,-273.9934 1952.4492,-274.3768 1953.9531,-274.8048 1955.3933,-275.2761 1956.7646,-275.7895 1958.0622,-276.3436 1959.2818,-276.9369 1960.4195,-277.5677 1961.4719,-278.2343 1962.4363,-278.9348 1963.3101,-279.6674 1964.0915,-280.4301 1964.7791,-281.2207 1965.3721,-282.0371 1965.8701,-282.877 1966.2731,-283.7382 1966.5817,-284.6183 1966.797,-285.5149 1966.9203,-286.4254 1966.9535,-287.3475 1966.8987,-288.2786 1966.7585,-289.2161 1966.5356,-290.1575 1966.2332,-291.1002 1965.8545,-292.0416 1965.4032,-292.9792 1964.8827,-293.9102 1964.297,-294.8323 1963.6498,-295.7429 1962.9452,-296.6395 1962.1871,-297.5195 1961.3793,-298.3807 1960.5259,-299.2207 1959.6305,-300.0371 1958.6968,-300.8277 1957.7285,-301.5903 1956.7289,-302.323 1955.7014,-303.0235 1954.6489,-303.6901 1953.5744,-304.3209 1952.4806,-304.9141 1951.3699,-305.4682 1950.2447,-305.9817 1949.1069,-306.453 1947.9585,-306.881 1946.8011,-307.2644 1945.6363,-307.6022 1944.4654,-307.8936 1943.2896,-308.1375 1942.11,-308.3335 1940.9276,-308.481 1939.7431,-308.5795 1938.5575,-308.6289 1937.3716,-308.6289 1936.186,-308.5795 1935.0015,-308.481 1933.8191,-308.3335 1932.6395,-308.1375 1931.4637,-307.8936 1930.2928,-307.6022 1929.128,-307.2644 1927.9706,-306.881 1926.8222,-306.453 1925.6844,-305.9817 1924.5592,-305.4682 1923.4485,-304.9141 1922.3547,-304.3209 1921.2802,-303.6901 1920.2277,-303.0235 1919.2002,-302.323 1918.2006,-301.5903 1917.2323,-300.8277 1916.2986,-300.0371 1915.4032,-299.2207 1914.5498,-298.3807 1913.742,-297.5195 1912.9839,-296.6395 1912.2793,-295.7429 1911.6321,-294.8323 1911.0464,-293.9102 1910.5259,-292.9792 1910.0746,-292.0416 1909.6959,-291.1002 1909.3935,-290.1575 1909.1706,-289.2161 1909.0304,-288.2786 1908.9756,-287.3475 1909.0088,-286.4254 1909.1321,-285.5149 1909.3474,-284.6183 1909.656,-283.7382 1910.059,-282.877 1910.557,-282.0371 1911.15,-281.2207 1911.8376,-280.4301 1912.619,-279.6674 1913.4928,-278.9348 1914.4572,-278.2343 1915.5096,-277.5677 1916.6473,-276.9369 1917.8669,-276.3436 1919.1645,-275.7895 1920.5358,-275.2761 1921.976,-274.8048 1923.4799,-274.3768 1925.042,-273.9934 1926.6563,-273.6555 1928.3165,-273.3642 1930.0161,-273.1202 1931.7483,-272.9242 1933.506,-272.7768 1935.282,-272.6782 1937.0691,-272.6289 1938.86,-272.6289 1940.6471,-272.6782"/>
<text text-anchor="middle" x="1937.9645" y="-288.1289" font-family="Courier,monospace" font-weight="bold" font-size="10.00" fill="#000000">y</text>
</g>
<!-- STATE_A&#45;&gt;SYMBOL_y -->
<g id="edge15" class="edge">
<title>STATE_A&#45;&gt;SYMBOL_y</title>
<path fill="none" stroke="#000000" stroke-dasharray="5,2" d="M379.4189,-321.9809C500.7793,-319.2469 984.0405,-308.4356 1381.2211,-300.6289 1575.9987,-296.8005 1809.1192,-292.8027 1899.5183,-291.2746"/>
<polygon fill="#000000" stroke="#000000" points="1899.6341,-294.7733 1909.5736,-291.1049 1899.5159,-287.7743 1899.6341,-294.7733"/>
<text text-anchor="middle" x="1108.2211" y="-310.6289" font-family="Courier,monospace" font-weight="bold" font-size="10.00" fill="#000000">0.49995001499550135</text>
</g>
<!-- SYMBOL_z -->
<g id="node10" class="node">
<title>SYMBOL_z</title>
<polygon fill="none" stroke="#000000" stroke-dasharray="5,2" points="1940.6471,-100.6782 1942.4231,-100.7768 1944.1808,-100.9242 1945.913,-101.1202 1947.6126,-101.3642 1949.2728,-101.6555 1950.8871,-101.9934 1952.4492,-102.3768 1953.9531,-102.8048 1955.3933,-103.2761 1956.7646,-103.7895 1958.0622,-104.3436 1959.2818,-104.9369 1960.4195,-105.5677 1961.4719,-106.2343 1962.4363,-106.9348 1963.3101,-107.6674 1964.0915,-108.4301 1964.7791,-109.2207 1965.3721,-110.0371 1965.8701,-110.877 1966.2731,-111.7382 1966.5817,-112.6183 1966.797,-113.5149 1966.9203,-114.4254 1966.9535,-115.3475 1966.8987,-116.2786 1966.7585,-117.2161 1966.5356,-118.1575 1966.2332,-119.1002 1965.8545,-120.0416 1965.4032,-120.9792 1964.8827,-121.9102 1964.297,-122.8323 1963.6498,-123.7429 1962.9452,-124.6395 1962.1871,-125.5195 1961.3793,-126.3807 1960.5259,-127.2207 1959.6305,-128.0371 1958.6968,-128.8277 1957.7285,-129.5903 1956.7289,-130.323 1955.7014,-131.0235 1954.6489,-131.6901 1953.5744,-132.3209 1952.4806,-132.9141 1951.3699,-133.4682 1950.2447,-133.9817 1949.1069,-134.453 1947.9585,-134.881 1946.8011,-135.2644 1945.6363,-135.6022 1944.4654,-135.8936 1943.2896,-136.1375 1942.11,-136.3335 1940.9276,-136.481 1939.7431,-136.5795 1938.5575,-136.6289 1937.3716,-136.6289 1936.186,-136.5795 1935.0015,-136.481 1933.8191,-136.3335 1932.6395,-136.1375 1931.4637,-135.8936 1930.2928,-135.6022 1929.128,-135.2644 1927.9706,-134.881 1926.8222,-134.453 1925.6844,-133.9817 1924.5592,-133.4682 1923.4485,-132.9141 1922.3547,-132.3209 1921.2802,-131.6901 1920.2277,-131.0235 1919.2002,-130.323 1918.2006,-129.5903 1917.2323,-128.8277 1916.2986,-128.0371 1915.4032,-127.2207 1914.5498,-126.3807 1913.742,-125.5195 1912.9839,-124.6395 1912.2793,-123.7429 1911.6321,-122.8323 1911.0464,-121.9102 1910.5259,-120.9792 1910.0746,-120.0416 1909.6959,-119.1002 1909.3935,-118.1575 1909.1706,-117.2161 1909.0304,-116.2786 1908.9756,-115.3475 1909.0088,-114.4254 1909.1321,-113.5149 1909.3474,-112.6183 1909.656,-111.7382 1910.059,-110.877 1910.557,-110.0371 1911.15,-109.2207 1911.8376,-108.4301 1912.619,-107.6674 1913.4928,-106.9348 1914.4572,-106.2343 1915.5096,-105.5677 1916.6473,-104.9369 1917.8669,-104.3436 1919.1645,-103.7895 1920.5358,-103.2761 1921.976,-102.8048 1923.4799,-102.3768 1925.042,-101.9934 1926.6563,-101.6555 1928.3165,-101.3642 1930.0161,-101.1202 1931.7483,-100.9242 1933.506,-100.7768 1935.282,-100.6782 1937.0691,-100.6289 1938.86,-100.6289 1940.6471,-100.6782"/>
<text text-anchor="middle" x="1937.9645" y="-116.1289" font-family="Courier,monospace" font-weight="bold" font-size="10.00" fill="#000000">z</text>
</g>
<!-- STATE_A&#45;&gt;SYMBOL_z -->
<g id="edge16" class="edge">
<title>STATE_A&#45;&gt;SYMBOL_z</title>
<path fill="none" stroke="#000000" stroke-dasharray="5,2" d="M366.4398,-306.3657C384.3051,-286.9918 413.1428,-252.9181 429.7342,-218.6289 443.7258,-189.7128 430.3758,-175.6583 447.7342,-148.6289 504.2106,-60.6874 525.9631,-.6289 630.4777,-.6289 630.4777,-.6289 630.4777,-.6289 1636.2211,-.6289 1751.9765,-.6289 1794.1517,9.4332 1891.2211,-53.6289 1905.6162,-62.9808 1917.0009,-78.4371 1924.9296,-91.9315"/>
<polygon fill="#000000" stroke="#000000" points="1921.9628,-93.7994 1929.8611,-100.8612 1928.0905,-90.4153 1921.9628,-93.7994"/>
<text text-anchor="middle" x="1108.2211" y="-3.6289" font-family="Courier,monospace" font-weight="bold" font-size="10.00" fill="#000000">0.49995001499550135</text>
</g>
<!-- STATE_C -->
<g id="node3" class="node">
<title>STATE_C</title>
<polygon fill="none" stroke="#000000" points="934.9036,-159.6782 936.6797,-159.7768 938.4374,-159.9242 940.1696,-160.1202 941.8691,-160.3642 943.5294,-160.6555 945.1436,-160.9934 946.7057,-161.3768 948.2097,-161.8048 949.6499,-162.2761 951.0211,-162.7895 952.3187,-163.3436 953.5383,-163.9369 954.676,-164.5677 955.7285,-165.2343 956.6928,-165.9348 957.5666,-166.6674 958.348,-167.4301 959.0357,-168.2207 959.6287,-169.0371 960.1266,-169.877 960.5296,-170.7382 960.8383,-171.6183 961.0536,-172.5149 961.1769,-173.4254 961.2101,-174.3475 961.1553,-175.2786 961.0151,-176.2161 960.7922,-177.1575 960.4898,-178.1002 960.1111,-179.0416 959.6597,-179.9792 959.1393,-180.9102 958.5535,-181.8323 957.9064,-182.7429 957.2018,-183.6395 956.4436,-184.5195 955.6359,-185.3807 954.7824,-186.2207 953.887,-187.0371 952.9534,-187.8277 951.985,-188.5903 950.9855,-189.323 949.9579,-190.0235 948.9055,-190.6901 947.831,-191.3209 946.7372,-191.9141 945.6265,-192.4682 944.5012,-192.9817 943.3634,-193.453 942.215,-193.881 941.0577,-194.2644 939.8929,-194.6022 938.722,-194.8936 937.5462,-195.1375 936.3666,-195.3335 935.1841,-195.481 933.9997,-195.5795 932.8141,-195.6289 931.6281,-195.6289 930.4425,-195.5795 929.2581,-195.481 928.0756,-195.3335 926.896,-195.1375 925.7203,-194.8936 924.5494,-194.6022 923.3846,-194.2644 922.2272,-193.881 921.0788,-193.453 919.941,-192.9817 918.8157,-192.4682 917.705,-191.9141 916.6112,-191.3209 915.5367,-190.6901 914.4843,-190.0235 913.4567,-189.323 912.4572,-188.5903 911.4889,-187.8277 910.5552,-187.0371 909.6598,-186.2207 908.8063,-185.3807 907.9986,-184.5195 907.2404,-183.6395 906.5358,-182.7429 905.8887,-181.8323 905.303,-180.9102 904.7825,-179.9792 904.3311,-179.0416 903.9524,-178.1002 903.65,-177.1575 903.4272,-176.2161 903.2869,-175.2786 903.2321,-174.3475 903.2653,-173.4254 903.3886,-172.5149 903.6039,-171.6183 903.9126,-170.7382 904.3156,-169.877 904.8136,-169.0371 905.4066,-168.2207 906.0942,-167.4301 906.8756,-166.6674 907.7494,-165.9348 908.7137,-165.2343 909.7662,-164.5677 910.9039,-163.9369 912.1235,-163.3436 913.4211,-162.7895 914.7923,-162.2761 916.2326,-161.8048 917.7365,-161.3768 919.2986,-160.9934 920.9129,-160.6555 922.5731,-160.3642 924.2727,-160.1202 926.0048,-159.9242 927.7625,-159.7768 929.5386,-159.6782 931.3257,-159.6289 933.1165,-159.6289 934.9036,-159.6782"/>
<text text-anchor="middle" x="932.2211" y="-175.1289" font-family="Courier,monospace" font-weight="bold" font-size="10.00" fill="#000000">C</text>
</g>
<!-- STATE_B&#45;&gt;STATE_C -->
<g id="edge4" class="edge">
<title>STATE_B&#45;&gt;STATE_C</title>
<path fill="none" stroke="#000000" d="M657.7876,-150.3441C711.5458,-155.6889 831.2426,-167.5894 893.2715,-173.7564"/>
<polygon fill="#000000" stroke="#000000" points="893.1367,-177.2602 903.4339,-174.7668 893.8293,-170.2945 893.1367,-177.2602"/>
<text text-anchor="middle" x="756.2211" y="-170.6289" font-family="Courier,monospace" font-weight="bold" font-size="10.00" fill="#000000">0.9999000199960009</text>
</g>
<!-- STATE_D -->
<g id="node4" class="node">
<title>STATE_D</title>
<polygon fill="none" stroke="#000000" points="1110.9036,-452.6782 1112.6797,-452.7768 1114.4374,-452.9242 1116.1696,-453.1202 1117.8691,-453.3642 1119.5294,-453.6555 1121.1436,-453.9934 1122.7057,-454.3768 1124.2097,-454.8048 1125.6499,-455.2761 1127.0211,-455.7895 1128.3187,-456.3436 1129.5383,-456.9369 1130.676,-457.5677 1131.7285,-458.2343 1132.6928,-458.9348 1133.5666,-459.6674 1134.348,-460.4301 1135.0357,-461.2207 1135.6287,-462.0371 1136.1266,-462.877 1136.5296,-463.7382 1136.8383,-464.6183 1137.0536,-465.5149 1137.1769,-466.4254 1137.2101,-467.3475 1137.1553,-468.2786 1137.0151,-469.2161 1136.7922,-470.1575 1136.4898,-471.1002 1136.1111,-472.0416 1135.6597,-472.9792 1135.1393,-473.9102 1134.5535,-474.8323 1133.9064,-475.7429 1133.2018,-476.6395 1132.4436,-477.5195 1131.6359,-478.3807 1130.7824,-479.2207 1129.887,-480.0371 1128.9534,-480.8277 1127.985,-481.5903 1126.9855,-482.323 1125.9579,-483.0235 1124.9055,-483.6901 1123.831,-484.3209 1122.7372,-484.9141 1121.6265,-485.4682 1120.5012,-485.9817 1119.3634,-486.453 1118.215,-486.881 1117.0577,-487.2644 1115.8929,-487.6022 1114.722,-487.8936 1113.5462,-488.1375 1112.3666,-488.3335 1111.1841,-488.481 1109.9997,-488.5795 1108.8141,-488.6289 1107.6281,-488.6289 1106.4425,-488.5795 1105.2581,-488.481 1104.0756,-488.3335 1102.896,-488.1375 1101.7203,-487.8936 1100.5494,-487.6022 1099.3846,-487.2644 1098.2272,-486.881 1097.0788,-486.453 1095.941,-485.9817 1094.8157,-485.4682 1093.705,-484.9141 1092.6112,-484.3209 1091.5367,-483.6901 1090.4843,-483.0235 1089.4567,-482.323 1088.4572,-481.5903 1087.4889,-480.8277 1086.5552,-480.0371 1085.6598,-479.2207 1084.8063,-478.3807 1083.9986,-477.5195 1083.2404,-476.6395 1082.5358,-475.7429 1081.8887,-474.8323 1081.303,-473.9102 1080.7825,-472.9792 1080.3311,-472.0416 1079.9524,-471.1002 1079.65,-470.1575 1079.4272,-469.2161 1079.2869,-468.2786 1079.2321,-467.3475 1079.2653,-466.4254 1079.3886,-465.5149 1079.6039,-464.6183 1079.9126,-463.7382 1080.3156,-462.877 1080.8136,-462.0371 1081.4066,-461.2207 1082.0942,-460.4301 1082.8756,-459.6674 1083.7494,-458.9348 1084.7137,-458.2343 1085.7662,-457.5677 1086.9039,-456.9369 1088.1235,-456.3436 1089.4211,-455.7895 1090.7923,-455.2761 1092.2326,-454.8048 1093.7365,-454.3768 1095.2986,-453.9934 1096.9129,-453.6555 1098.5731,-453.3642 1100.2727,-453.1202 1102.0048,-452.9242 1103.7625,-452.7768 1105.5386,-452.6782 1107.3257,-452.6289 1109.1165,-452.6289 1110.9036,-452.6782"/>
<text text-anchor="middle" x="1108.2211" y="-468.1289" font-family="Courier,monospace" font-weight="bold" font-size="10.00" fill="#000000">D</text>
</g>
<!-- STATE_B&#45;&gt;STATE_D -->
<g id="edge5" class="edge">
<title>STATE_B&#45;&gt;STATE_D</title>
<path fill="none" stroke="#000000" d="M634.87,-165.5347C640.8936,-186.2577 653.745,-219.925 677.2211,-238.6289 797.0228,-334.0776 886.4086,-234.8328 1011.2211,-323.6289 1053.8949,-353.9885 1082.8876,-409.5276 1097.4033,-442.9621"/>
<polygon fill="#000000" stroke="#000000" points="1094.3424,-444.7126 1101.4426,-452.5763 1100.7959,-442.0012 1094.3424,-444.7126"/>
<text text-anchor="middle" x="756.2211" y="-286.6289" font-family="Courier,monospace" font-weight="bold" font-size="10.00" fill="#000000">9.998000399920017e&#45;05</text>
</g>
<!-- STATE_B&#45;&gt;SYMBOL_x -->
<g id="edge17" class="edge">
<title>STATE_B&#45;&gt;SYMBOL_x</title>
<path fill="none" stroke="#000000" stroke-dasharray="5,2" d="M633.9042,-165.4312C641.0801,-201.0314 658.5739,-279.2496 677.2211,-298.6289 734.7247,-358.3898 773.6879,-337.1236 853.2211,-360.6289 922.4842,-381.099 961.6049,-346.1444 1011.2211,-398.6289 1041.9434,-431.1272 995.4209,-468.345 1029.2211,-497.6289 1147.5041,-600.1073 1576.7254,-515.2952 1733.2211,-516.6289 1803.4408,-517.2273 1821.5525,-525.4289 1891.2211,-516.6289 1895.4292,-516.0973 1899.8009,-515.3068 1904.107,-514.3804"/>
<polygon fill="#000000" stroke="#000000" points="1905.0167,-517.7616 1913.9276,-512.0303 1903.3876,-510.9538 1905.0167,-517.7616"/>
<text text-anchor="middle" x="1284.2211" y="-550.6289" font-family="Courier,monospace" font-weight="bold" font-size="10.00" fill="#000000">0.3333333333333333</text>
</g>
<!-- STATE_B&#45;&gt;SYMBOL_y -->
<g id="edge18" class="edge">
<title>STATE_B&#45;&gt;SYMBOL_y</title>
<path fill="none" stroke="#000000" stroke-dasharray="5,2" d="M658.449,-139.3413C664.5824,-137.8356 671.0792,-136.4757 677.2211,-135.6289 824.285,-115.3528 862.7876,-129.0995 1011.2211,-131.6289 1060.1948,-132.4634 1851.0746,-157.5686 1891.2211,-185.6289 1916.5509,-203.333 1928.3408,-238.046 1933.7028,-262.708"/>
<polygon fill="#000000" stroke="#000000" points="1930.2791,-263.4378 1935.628,-272.5832 1937.1497,-262.0982 1930.2791,-263.4378"/>
<text text-anchor="middle" x="1284.2211" y="-146.6289" font-family="Courier,monospace" font-weight="bold" font-size="10.00" fill="#000000">9.997000899730082e&#45;05</text>
</g>
<!-- STATE_B&#45;&gt;SYMBOL_z -->
<g id="edge19" class="edge">
<title>STATE_B&#45;&gt;SYMBOL_z</title>
<path fill="none" stroke="#000000" stroke-dasharray="5,2" d="M636.0716,-129.547C642.7348,-111.3388 655.7501,-84.0759 677.2211,-70.6289 773.6966,-10.2078 818.3869,-46.6289 932.2211,-46.6289 932.2211,-46.6289 932.2211,-46.6289 1636.2211,-46.6289 1734.7852,-46.6289 1846.6355,-83.4257 1902.4029,-104.408"/>
<polygon fill="#000000" stroke="#000000" points="1901.2357,-107.7088 1911.8264,-108.005 1903.732,-101.169 1901.2357,-107.7088"/>
<text text-anchor="middle" x="1284.2211" y="-49.6289" font-family="Courier,monospace" font-weight="bold" font-size="10.00" fill="#000000">0.6665666966576693</text>
</g>
<!-- STATE_C&#45;&gt;STATE_F -->
<g id="edge6" class="edge">
<title>STATE_C&#45;&gt;STATE_F</title>
<path fill="none" stroke="#000000" d="M959.7675,-179.8963C1006.5302,-183.7457 1104.4351,-191.8062 1187.2211,-198.6289 1206.3665,-200.2067 1227.6374,-201.9609 1245.3701,-203.4236"/>
<polygon fill="#000000" stroke="#000000" points="1245.1053,-206.9136 1255.3592,-204.2476 1245.6808,-199.9372 1245.1053,-206.9136"/>
<text text-anchor="middle" x="1108.2211" y="-201.6289" font-family="Courier,monospace" font-weight="bold" font-size="10.00" fill="#000000">1.0</text>
</g>
<!-- STATE_D&#45;&gt;STATE_A -->
<g id="edge7" class="edge">
<title>STATE_D&#45;&gt;STATE_A</title>
<path fill="none" stroke="#000000" d="M1080.1596,-472.4472C969.0813,-479.1912 560.7383,-499.5601 447.7342,-442.6289 407.7552,-422.4875 378.6378,-377.5084 363.2372,-348.7006"/>
<polygon fill="#000000" stroke="#000000" points="366.2416,-346.8905 358.5443,-339.6102 360.0216,-350.1016 366.2416,-346.8905"/>
<text text-anchor="middle" x="630.4777" y="-480.6289" font-family="Courier,monospace" font-weight="bold" font-size="10.00" fill="#000000">1.0</text>
</g>
<!-- STATE_D&#45;&gt;SYMBOL_x -->
<g id="edge20" class="edge">
<title>STATE_D&#45;&gt;SYMBOL_x</title>
<path fill="none" stroke="#000000" stroke-dasharray="5,2" d="M1135.355,-473.9397C1154.781,-476.1843 1181.5741,-479.0247 1205.2211,-480.6289 1470.0627,-498.5957 1789.6988,-503.2169 1899.0793,-504.3128"/>
<polygon fill="#000000" stroke="#000000" points="1899.264,-507.8146 1909.2971,-504.4109 1899.3312,-500.8149 1899.264,-507.8146"/>
<text text-anchor="middle" x="1460.2211" y="-498.6289" font-family="Courier,monospace" font-weight="bold" font-size="10.00" fill="#000000">9.997000899730082e&#45;05</text>
</g>
<!-- STATE_D&#45;&gt;SYMBOL_y -->
<g id="edge21" class="edge">
<title>STATE_D&#45;&gt;SYMBOL_y</title>
<path fill="none" stroke="#000000" stroke-dasharray="5,2" d="M1135.9246,-472.9556C1205.4555,-477.9207 1392.2866,-485.8345 1539.2211,-442.6289 1548.0011,-440.0472 1548.6939,-435.9516 1557.2211,-432.6289 1624.5172,-406.4063 1645.553,-413.6749 1715.2211,-394.6289 1794.1461,-373.0521 1821.827,-383.9784 1891.2211,-340.6289 1902.134,-333.8118 1912.1779,-323.8162 1920.1355,-314.5507"/>
<polygon fill="#000000" stroke="#000000" points="1922.9392,-316.651 1926.5609,-306.6944 1917.5207,-312.2193 1922.9392,-316.651"/>
<text text-anchor="middle" x="1460.2211" y="-473.6289" font-family="Courier,monospace" font-weight="bold" font-size="10.00" fill="#000000">9.997000899730082e&#45;05</text>
</g>
<!-- STATE_D&#45;&gt;SYMBOL_z -->
<g id="edge22" class="edge">
<title>STATE_D&#45;&gt;SYMBOL_z</title>
<path fill="none" stroke="#000000" stroke-dasharray="5,2" d="M1137.2766,-465.8168C1187.1279,-457.6133 1292.1918,-440.5549 1381.2211,-427.6289 1451.3258,-417.4505 1472.9241,-431.5885 1539.2211,-406.6289 1548.2193,-403.2412 1548.3652,-398.3729 1557.2211,-394.6289 1623.3812,-366.6584 1662.4516,-409.3616 1715.2211,-360.6289 1735.6743,-341.7403 1713.6261,-320.4063 1733.2211,-300.6289 1784.9674,-248.401 1838.2743,-302.6393 1891.2211,-251.6289 1920.1051,-223.8012 1931.164,-177.1005 1935.3828,-147.0925"/>
<polygon fill="#000000" stroke="#000000" points="1938.8946,-147.2119 1936.648,-136.858 1931.9475,-146.353 1938.8946,-147.2119"/>
<text text-anchor="middle" x="1460.2211" y="-430.6289" font-family="Courier,monospace" font-weight="bold" font-size="10.00" fill="#000000">0.9998000599820054</text>
</g>
<!-- STATE_E&#45;&gt;STATE_A -->
<g id="edge8" class="edge">
<title>STATE_E&#45;&gt;STATE_A</title>
<path fill="none" stroke="#000000" d="M1611.7166,-340.2495C1592.2322,-345.1932 1564.1942,-351.5973 1539.2211,-354.6289 1461.5376,-364.0592 1441.4653,-358.4065 1363.2211,-359.6289 1024.8235,-364.9155 940.0579,-367.4591 601.7342,-358.6289 533.2612,-356.8417 515.2496,-364.1797 447.7342,-352.6289 425.6424,-348.8493 401.567,-341.4236 382.9281,-334.906"/>
<polygon fill="#000000" stroke="#000000" points="384.043,-331.5877 373.4485,-331.5064 381.6799,-338.1768 384.043,-331.5877"/>
<text text-anchor="middle" x="932.2211" y="-366.6289" font-family="Courier,monospace" font-weight="bold" font-size="10.00" fill="#000000">1.0</text>
</g>
<!-- STATE_E&#45;&gt;SYMBOL_x -->
<g id="edge23" class="edge">
<title>STATE_E&#45;&gt;SYMBOL_x</title>
<path fill="none" stroke="#000000" stroke-dasharray="5,2" d="M1661.1529,-340.1742C1709.368,-353.7273 1817.1539,-388.4623 1891.2211,-445.6289 1903.0922,-454.7912 1913.7128,-467.594 1921.8188,-478.9327"/>
<polygon fill="#000000" stroke="#000000" points="1918.9667,-480.9626 1927.5064,-487.2336 1924.7413,-477.0059 1918.9667,-480.9626"/>
<text text-anchor="middle" x="1812.2211" y="-448.6289" font-family="Courier,monospace" font-weight="bold" font-size="10.00" fill="#000000">9.997000899730082e&#45;05</text>
</g>
<!-- STATE_E&#45;&gt;SYMBOL_y -->
<g id="edge24" class="edge">
<title>STATE_E&#45;&gt;SYMBOL_y</title>
<path fill="none" stroke="#000000" stroke-dasharray="5,2" d="M1665.1649,-332.0172C1712.7348,-328.9943 1810.2519,-321.2211 1891.2211,-304.6289 1895.6351,-303.7244 1900.2326,-302.5914 1904.747,-301.3639"/>
<polygon fill="#000000" stroke="#000000" points="1905.757,-304.7153 1914.3931,-298.5779 1903.8145,-297.9902 1905.757,-304.7153"/>
<text text-anchor="middle" x="1812.2211" y="-328.6289" font-family="Courier,monospace" font-weight="bold" font-size="10.00" fill="#000000">9.997000899730082e&#45;05</text>
</g>
<!-- STATE_E&#45;&gt;SYMBOL_z -->
<g id="edge25" class="edge">
<title>STATE_E&#45;&gt;SYMBOL_z</title>
<path fill="none" stroke="#000000" stroke-dasharray="5,2" d="M1651.0242,-317.3297C1669.2467,-297.7847 1701.6685,-264.6583 1733.2211,-240.6289 1791.5518,-196.2062 1867.2266,-154.829 1908.2883,-133.5645"/>
<polygon fill="#000000" stroke="#000000" points="1909.9349,-136.6535 1917.2292,-128.9695 1906.7352,-130.4276 1909.9349,-136.6535"/>
<text text-anchor="middle" x="1812.2211" y="-243.6289" font-family="Courier,monospace" font-weight="bold" font-size="10.00" fill="#000000">0.9998000599820054</text>
</g>
<!-- STATE_F&#45;&gt;STATE_B -->
<g id="edge9" class="edge">
<title>STATE_F&#45;&gt;STATE_B</title>
<path fill="none" stroke="#000000" d="M1256.2693,-198.8746C1236.924,-193.5723 1210.5603,-186.4736 1187.2211,-180.6289 1109.3103,-161.118 1091.0124,-148.8 1011.2211,-139.6289 941.4582,-131.6104 923.432,-138.3684 853.2211,-139.6289 788.7488,-140.7863 713.8302,-143.8267 669.3835,-145.8082"/>
<polygon fill="#000000" stroke="#000000" points="669.1346,-142.3158 659.3024,-146.2628 669.45,-149.3087 669.1346,-142.3158"/>
<text text-anchor="middle" x="932.2211" y="-142.6289" font-family="Courier,monospace" font-weight="bold" font-size="10.00" fill="#000000">0.5</text>
</g>
<!-- STATE_F&#45;&gt;STATE_E -->
<g id="edge10" class="edge">
<title>STATE_F&#45;&gt;STATE_E</title>
<path fill="none" stroke="#000000" d="M1307.3168,-214.9617C1367.0633,-236.518 1527.0928,-294.2559 1599.6075,-320.4189"/>
<polygon fill="#000000" stroke="#000000" points="1598.6449,-323.7923 1609.2393,-323.894 1601.0206,-317.2078 1598.6449,-323.7923"/>
<text text-anchor="middle" x="1460.2211" y="-298.6289" font-family="Courier,monospace" font-weight="bold" font-size="10.00" fill="#000000">0.5</text>
</g>
<!-- STATE_F&#45;&gt;SYMBOL_x -->
<g id="edge26" class="edge">
<title>STATE_F&#45;&gt;SYMBOL_x</title>
<path fill="none" stroke="#000000" stroke-dasharray="5,2" d="M1295.6931,-222.7313C1312.3239,-245.0798 1345.1159,-285.5716 1381.2211,-310.6289 1520.3631,-407.1946 1571.5469,-406.1621 1733.2211,-456.6289 1801.7879,-478.0321 1821.6508,-472.7549 1891.2211,-490.6289 1894.2415,-491.4049 1897.3599,-492.2472 1900.4855,-493.1207"/>
<polygon fill="#000000" stroke="#000000" points="1899.8045,-496.5669 1910.3827,-495.9741 1901.7436,-489.8408 1899.8045,-496.5669"/>
<text text-anchor="middle" x="1636.2211" y="-452.6289" font-family="Courier,monospace" font-weight="bold" font-size="10.00" fill="#000000">0.3333333333333333</text>
</g>
<!-- STATE_F&#45;&gt;SYMBOL_y -->
<g id="edge27" class="edge">
<title>STATE_F&#45;&gt;SYMBOL_y</title>
<path fill="none" stroke="#000000" stroke-dasharray="5,2" d="M1312.983,-203.8714C1419.4614,-194.1796 1790.2993,-165.1608 1891.2211,-220.6289 1908.0836,-229.8967 1919.9658,-248.1493 1927.5299,-263.6923"/>
<polygon fill="#000000" stroke="#000000" points="1924.3871,-265.2372 1931.6875,-272.9154 1930.7686,-262.3604 1924.3871,-265.2372"/>
<text text-anchor="middle" x="1636.2211" y="-191.6289" font-family="Courier,monospace" font-weight="bold" font-size="10.00" fill="#000000">9.997000899730082e&#45;05</text>
</g>
<!-- STATE_F&#45;&gt;SYMBOL_z -->
<g id="edge28" class="edge">
<title>STATE_F&#45;&gt;SYMBOL_z</title>
<path fill="none" stroke="#000000" stroke-dasharray="5,2" d="M1312.5012,-199.3894C1331.7663,-194.6616 1357.9071,-188.6432 1381.2211,-184.6289 1575.2163,-151.2257 1810.1673,-129.4086 1900.2879,-121.7188"/>
<polygon fill="#000000" stroke="#000000" points="1900.6305,-125.2024 1910.2999,-120.872 1900.0405,-118.2273 1900.6305,-125.2024"/>
<text text-anchor="middle" x="1636.2211" y="-160.6289" font-family="Courier,monospace" font-weight="bold" font-size="10.00" fill="#000000">0.6665666966576693</text>
</g>
<!-- STATE_SOURCE -->
<g id="node7" class="node">
<title>STATE_SOURCE</title>
<polygon fill="none" stroke="#000000" points="42.4515,-304.6782 44.8246,-304.7768 47.1732,-304.9242 49.4877,-305.1202 51.7587,-305.3642 53.9771,-305.6555 56.134,-305.9934 58.2213,-306.3768 60.2308,-306.8048 62.1552,-307.2761 63.9875,-307.7895 65.7213,-308.3436 67.3509,-308.9369 68.8711,-309.5677 70.2774,-310.2343 71.5659,-310.9348 72.7335,-311.6674 73.7776,-312.4301 74.6964,-313.2207 75.4887,-314.0371 76.1541,-314.877 76.6926,-315.7382 77.105,-316.6183 77.3927,-317.5149 77.5574,-318.4254 77.6018,-319.3475 77.5286,-320.2786 77.3412,-321.2161 77.0434,-322.1575 76.6393,-323.1002 76.1334,-324.0416 75.5302,-324.9792 74.8348,-325.9102 74.0521,-326.8323 73.1874,-327.7429 72.246,-328.6395 71.2329,-329.5195 70.1536,-330.3807 69.0132,-331.2207 67.8168,-332.0371 66.5693,-332.8277 65.2754,-333.5903 63.9398,-334.323 62.5668,-335.0235 61.1606,-335.6901 59.7248,-336.3209 58.2633,-336.9141 56.7792,-337.4682 55.2756,-337.9817 53.7553,-338.453 52.2208,-338.881 50.6744,-339.2644 49.118,-339.6022 47.5535,-339.8936 45.9824,-340.1375 44.4062,-340.3335 42.8263,-340.481 41.2436,-340.5795 39.6595,-340.6289 38.0748,-340.6289 36.4906,-340.5795 34.908,-340.481 33.328,-340.3335 31.7518,-340.1375 30.1808,-339.8936 28.6162,-339.6022 27.0598,-339.2644 25.5134,-338.881 23.9789,-338.453 22.4586,-337.9817 20.955,-337.4682 19.4709,-336.9141 18.0094,-336.3209 16.5737,-335.6901 15.1674,-335.0235 13.7944,-334.323 12.4588,-333.5903 11.1649,-332.8277 9.9174,-332.0371 8.721,-331.2207 7.5806,-330.3807 6.5013,-329.5195 5.4883,-328.6395 4.5468,-327.7429 3.6821,-326.8323 2.8994,-325.9102 2.204,-324.9792 1.6009,-324.0416 1.0949,-323.1002 .6908,-322.1575 .393,-321.2161 .2056,-320.2786 .1324,-319.3475 .1768,-318.4254 .3416,-317.5149 .6292,-316.6183 1.0416,-315.7382 1.5801,-314.877 2.2455,-314.0371 3.0379,-313.2207 3.9567,-312.4301 5.0008,-311.6674 6.1683,-310.9348 7.4568,-310.2343 8.8631,-309.5677 10.3833,-308.9369 12.0129,-308.3436 13.7467,-307.7895 15.579,-307.2761 17.5034,-306.8048 19.513,-306.3768 21.6002,-305.9934 23.7572,-305.6555 25.9755,-305.3642 28.2465,-305.1202 30.561,-304.9242 32.9096,-304.7768 35.2827,-304.6782 37.6707,-304.6289 40.0635,-304.6289 42.4515,-304.6782"/>
<text text-anchor="middle" x="38.8671" y="-320.1289" font-family="Courier,monospace" font-weight="bold" font-size="10.00" fill="#000000">SOURCE</text>
</g>
<!-- STATE_SOURCE&#45;&gt;STATE_A -->
<g id="edge11" class="edge">
<title>STATE_SOURCE&#45;&gt;STATE_A</title>
<path fill="none" stroke="#000000" d="M77.1081,-322.6289C136.7958,-322.6289 251.4864,-322.6289 311.6733,-322.6289"/>
<polygon fill="#000000" stroke="#000000" points="311.9013,-326.129 321.9013,-322.6289 311.9013,-319.129 311.9013,-326.129"/>
<text text-anchor="middle" x="174.7342" y="-325.6289" font-family="Courier,monospace" font-weight="bold" font-size="10.00" fill="#000000">9.997000899730082e&#45;05</text>
</g>
<!-- STATE_SOURCE&#45;&gt;STATE_B -->
<g id="edge12" class="edge">
<title>STATE_SOURCE&#45;&gt;STATE_B</title>
<path fill="none" stroke="#000000" d="M64.0043,-307.6876C126.3149,-271.6186 293.9979,-180.4193 447.7342,-148.6289 496.3725,-138.5712 553.8612,-140.4404 591.188,-143.4106"/>
<polygon fill="#000000" stroke="#000000" points="591.3605,-146.9384 601.6246,-144.3119 591.9629,-139.9644 591.3605,-146.9384"/>
<text text-anchor="middle" x="350.7342" y="-206.6289" font-family="Courier,monospace" font-weight="bold" font-size="10.00" fill="#000000">9.997000899730082e&#45;05</text>
</g>
<!-- STATE_SOURCE&#45;&gt;STATE_D -->
<g id="edge13" class="edge">
<title>STATE_SOURCE&#45;&gt;STATE_D</title>
<path fill="none" stroke="#000000" d="M49.9415,-339.4678C86.2036,-392.3525 207.321,-551.6289 350.7342,-551.6289 350.7342,-551.6289 350.7342,-551.6289 756.2211,-551.6289 876.8058,-551.6289 1014.8444,-505.9263 1076.0784,-483.1803"/>
<polygon fill="#000000" stroke="#000000" points="1077.4481,-486.4045 1085.5747,-479.6068 1074.9827,-479.853 1077.4481,-486.4045"/>
<text text-anchor="middle" x="515.7342" y="-554.6289" font-family="Courier,monospace" font-weight="bold" font-size="10.00" fill="#000000">0.9998000599820054</text>
</g>
</g>
</svg>
