<svg class="bob" font-family="arial" font-size="14" height="240" width="408" xmlns="http://www.w3.org/2000/svg">
<defs>
<marker id="triangle" markerHeight="8" markerWidth="8" orient="auto" refX="4" refY="2" viewBox="0 0 8 4">
<polygon class="fg_fill" points="0,0 0,4 8,2 0,0"/>
</marker>
<marker id="clear_triangle" markerHeight="10" markerWidth="10" orient="auto" refX="1" refY="7" viewBox="0 0 20 14">
<polygon class="bg_fill" points="2,2 2,12 18,7 2,2"/>
</marker>
<marker id="circle" markerHeight="5" markerWidth="5" orient="auto" refX="10" refY="10" viewBox="0 0 20 20">
<circle class="fg_fill" cx="10" cy="10" r="8"/>
</marker>
<marker id="square" markerHeight="5" markerWidth="5" orient="auto" refX="10" refY="10" viewBox="0 0 20 20">
<rect class="fg_fill" height="20" width="20" x="0" y="0"/>
</marker>
<marker id="open_circle" markerHeight="10" markerWidth="10" orient="auto" refX="10" refY="10" viewBox="0 0 20 20">
<circle class="bg_fill" cx="10" cy="10" r="4"/>
</marker>
<marker id="big_open_circle" markerHeight="20" markerWidth="20" orient="auto" refX="20" refY="20" viewBox="0 0 40 40">
<circle class="bg_fill" cx="20" cy="20" r="6"/>
</marker>
</defs>
<style type="text/css">

rect.backdrop {
    fill: white;
}
text{
    fill: black;
}

circle {
    fill: none;
    stroke: black;
    stroke-width: 2;
}

line {
    stroke: black;
    stroke-width: 2;
    stroke-opacity: 1;
    fill-opacity: 1;
    stroke-linecap: round;
    stroke-linejoin: miter;
}

path {
    fill: none;
    stroke: black;
    stroke-width: 2;
    stroke-opacity: 1;
    fill-opacity: 1;
    stroke-linecap: round;
    stroke-linejoin: miter;
}

line.dashed {
    stroke-dasharray: 5;
}

.fg_fill {
    fill: black;
}


.bg_fill {
    fill: white;
    stroke: black;
    stroke-width: 2;
}

tspan.head{
    fill: none;
    stroke: none;
}
    
</style>
<rect class="backdrop" height="240" width="408" x="0" y="0"/>
<g>
<line x1="4" x2="4" y1="92" y2="116"/>
<path d="M 4 116 A 4 4 0 0 0 8 120"/>
<path d="M 8 88 A 4 4 0 0 0 4 92"/>
</g>
<g>
<line x1="4" x2="4" y1="204" y2="228"/>
<path d="M 4 228 A 4 4 0 0 0 8 232"/>
<path d="M 8 200 A 4 4 0 0 0 4 204"/>
</g>
<g>
<line x1="8" x2="72" y1="88" y2="88"/>
<path d="M 76 92 A 4 4 0 0 0 72 88"/>
</g>
<g>
<line x1="8" x2="72" y1="120" y2="120"/>
<path d="M 72 120 A 4 4 0 0 0 76 116"/>
</g>
<g>
<line x1="8" x2="36" y1="200" y2="200"/>
<line x1="36" x2="36" y1="144" y2="200"/>
<line x1="36" x2="148" y1="200" y2="200"/>
<line x1="148" x2="148" y1="144" y2="200"/>
<line x1="148" x2="184" y1="200" y2="200"/>
<path d="M 188 204 A 4 4 0 0 0 184 200"/>
</g>
<g>
<line x1="8" x2="184" y1="232" y2="232"/>
<path d="M 184 232 A 4 4 0 0 0 188 228"/>
</g>
<g>
<line x1="12" x2="12" y1="12" y2="36"/>
<path d="M 12 36 A 4 4 0 0 0 16 40"/>
<path d="M 16 8 A 4 4 0 0 0 12 12"/>
</g>
<g>
<line x1="16" x2="64" y1="8" y2="8"/>
<path d="M 68 12 A 4 4 0 0 0 64 8"/>
</g>
<g>
<line x1="16" x2="44" y1="40" y2="40"/>
<line marker-end="url(#triangle)" x1="44" x2="44" y1="40" y2="76"/>
<line x1="44" x2="64" y1="40" y2="40"/>
<path d="M 64 40 A 4 4 0 0 0 68 36"/>
</g>
<g>
<line marker-end="url(#triangle)" x1="36" x2="36" y1="144" y2="132"/>
</g>
<g>
<line x1="68" x2="68" y1="12" y2="36"/>
</g>
<g>
<line x1="76" x2="76" y1="92" y2="116"/>
</g>
<g>
<line x1="116" x2="116" y1="92" y2="116"/>
<path d="M 116 116 A 4 4 0 0 0 120 120"/>
<path d="M 120 88 A 4 4 0 0 0 116 92"/>
</g>
<g>
<line x1="120" x2="184" y1="88" y2="88"/>
<path d="M 188 92 A 4 4 0 0 0 184 88"/>
</g>
<g>
<line x1="120" x2="184" y1="120" y2="120"/>
<path d="M 184 120 A 4 4 0 0 0 188 116"/>
</g>
<g>
<line x1="124" x2="124" y1="12" y2="36"/>
<path d="M 124 36 A 4 4 0 0 0 128 40"/>
<path d="M 128 8 A 4 4 0 0 0 124 12"/>
</g>
<g>
<line x1="128" x2="176" y1="8" y2="8"/>
<path d="M 180 12 A 4 4 0 0 0 176 8"/>
</g>
<g>
<line x1="128" x2="156" y1="40" y2="40"/>
<line marker-end="url(#triangle)" x1="156" x2="156" y1="40" y2="76"/>
<line x1="156" x2="176" y1="40" y2="40"/>
<path d="M 176 40 A 4 4 0 0 0 180 36"/>
</g>
<g>
<line marker-end="url(#triangle)" x1="148" x2="148" y1="144" y2="132"/>
</g>
<g>
<line marker-end="url(#triangle)" x1="164" x2="164" y1="144" y2="132"/>
<line x1="164" x2="164" y1="144" y2="164"/>
<path d="M 164 164 A 4 4 0 0 0 168 168"/>
</g>
<g>
<line x1="168" x2="296" y1="168" y2="168"/>
<path d="M 300 172 A 4 4 0 0 0 296 168"/>
</g>
<g>
<line x1="180" x2="180" y1="12" y2="36"/>
</g>
<g>
<line x1="188" x2="188" y1="92" y2="116"/>
</g>
<g>
<line x1="188" x2="188" y1="204" y2="228"/>
</g>
<g>
<line x1="228" x2="228" y1="12" y2="36"/>
<path d="M 228 36 A 4 4 0 0 0 232 40"/>
<path d="M 232 8 A 4 4 0 0 0 228 12"/>
</g>
<g>
<line x1="232" x2="280" y1="8" y2="8"/>
<path d="M 284 12 A 4 4 0 0 0 280 8"/>
</g>
<g>
<line x1="232" x2="280" y1="40" y2="40"/>
<path d="M 280 40 A 4 4 0 0 0 284 36"/>
</g>
<g>
<line x1="268" x2="268" y1="204" y2="228"/>
<path d="M 268 228 A 4 4 0 0 0 272 232"/>
<path d="M 272 200 A 4 4 0 0 0 268 204"/>
</g>
<g>
<line x1="272" x2="300" y1="200" y2="200"/>
<line x1="300" x2="300" y1="172" y2="200"/>
<line x1="300" x2="364" y1="200" y2="200"/>
<line x1="364" x2="364" y1="144" y2="200"/>
<line x1="364" x2="392" y1="200" y2="200"/>
<path d="M 396 204 A 4 4 0 0 0 392 200"/>
</g>
<g>
<line x1="272" x2="392" y1="232" y2="232"/>
<path d="M 392 232 A 4 4 0 0 0 396 228"/>
</g>
<g>
<line x1="284" x2="284" y1="12" y2="36"/>
</g>
<g>
<line x1="324" x2="324" y1="92" y2="116"/>
<path d="M 324 116 A 4 4 0 0 0 328 120"/>
<path d="M 328 88 A 4 4 0 0 0 324 92"/>
</g>
<g>
<line x1="328" x2="392" y1="88" y2="88"/>
<path d="M 396 92 A 4 4 0 0 0 392 88"/>
</g>
<g>
<line x1="328" x2="392" y1="120" y2="120"/>
<path d="M 392 120 A 4 4 0 0 0 396 116"/>
</g>
<g>
<line x1="332" x2="332" y1="12" y2="36"/>
<path d="M 332 36 A 4 4 0 0 0 336 40"/>
<path d="M 336 8 A 4 4 0 0 0 332 12"/>
</g>
<g>
<line x1="336" x2="384" y1="8" y2="8"/>
<path d="M 388 12 A 4 4 0 0 0 384 8"/>
</g>
<g>
<line x1="336" x2="364" y1="40" y2="40"/>
<line marker-end="url(#triangle)" x1="364" x2="364" y1="40" y2="76"/>
<line x1="364" x2="384" y1="40" y2="40"/>
<path d="M 384 40 A 4 4 0 0 0 388 36"/>
</g>
<g>
<line marker-end="url(#triangle)" x1="364" x2="364" y1="144" y2="132"/>
</g>
<g>
<line x1="388" x2="388" y1="12" y2="36"/>
</g>
<g>
<line x1="396" x2="396" y1="92" y2="116"/>
</g>
<g>
<line x1="396" x2="396" y1="204" y2="228"/>
</g>
<g>
<text x="17" y="108">
claim1
</text>
</g>
<g>
<text x="25" y="28">
vol1
</text>
</g>
<g>
<text x="81" y="220">
podA
</text>
</g>
<g>
<text x="129" y="108">
claim2
</text>
</g>
<g>
<text x="137" y="28">
vol2
</text>
</g>
<g>
<text x="241" y="28">
vol3
</text>
</g>
<g>
<text x="321" y="220">
podB
</text>
</g>
<g>
<text x="337" y="108">
claim3
</text>
</g>
<g>
<text x="345" y="28">
vol4
</text>
</g>
</svg>
