<svg class="bob" font-family="arial" font-size="14" height="48" width="616" xmlns="http://www.w3.org/2000/svg">
<defs>
<marker id="triangle" markerHeight="8" markerWidth="8" orient="auto" refX="4" refY="2" viewBox="0 0 8 4">
<polygon class="fg_fill" points="0,0 0,4 8,2 0,0"/>
</marker>
<marker id="clear_triangle" markerHeight="10" markerWidth="10" orient="auto" refX="1" refY="7" viewBox="0 0 20 14">
<polygon class="bg_fill" points="2,2 2,12 18,7 2,2"/>
</marker>
<marker id="circle" markerHeight="5" markerWidth="5" orient="auto" refX="10" refY="10" viewBox="0 0 20 20">
<circle class="fg_fill" cx="10" cy="10" r="8"/>
</marker>
<marker id="square" markerHeight="5" markerWidth="5" orient="auto" refX="10" refY="10" viewBox="0 0 20 20">
<rect class="fg_fill" height="20" width="20" x="0" y="0"/>
</marker>
<marker id="open_circle" markerHeight="10" markerWidth="10" orient="auto" refX="10" refY="10" viewBox="0 0 20 20">
<circle class="bg_fill" cx="10" cy="10" r="4"/>
</marker>
<marker id="big_open_circle" markerHeight="20" markerWidth="20" orient="auto" refX="20" refY="20" viewBox="0 0 40 40">
<circle class="bg_fill" cx="20" cy="20" r="6"/>
</marker>
</defs>
<style type="text/css">

rect.backdrop {
    fill: white;
}
text{
    fill: black;
}

circle {
    fill: none;
    stroke: black;
    stroke-width: 2;
}

line {
    stroke: black;
    stroke-width: 2;
    stroke-opacity: 1;
    fill-opacity: 1;
    stroke-linecap: round;
    stroke-linejoin: miter;
}

path {
    fill: none;
    stroke: black;
    stroke-width: 2;
    stroke-opacity: 1;
    fill-opacity: 1;
    stroke-linecap: round;
    stroke-linejoin: miter;
}

line.dashed {
    stroke-dasharray: 5;
}

.fg_fill {
    fill: black;
}


.bg_fill {
    fill: white;
    stroke: black;
    stroke-width: 2;
}

tspan.head{
    fill: none;
    stroke: none;
}
    
</style>
<rect class="backdrop" height="48" width="616" x="0" y="0"/>
<g>
<line x1="4" x2="4" y1="12" y2="36"/>
<path d="M 4 36 A 4 4 0 0 0 8 40"/>
<path d="M 8 8 A 4 4 0 0 0 4 12"/>
</g>
<g>
<line x1="8" x2="152" y1="8" y2="8"/>
<path d="M 156 12 A 4 4 0 0 0 152 8"/>
</g>
<g>
<line x1="8" x2="152" y1="40" y2="40"/>
<path d="M 152 40 A 4 4 0 0 0 156 36"/>
</g>
<g>
<line x1="156" x2="156" y1="12" y2="24"/>
<line x1="156" x2="156" y1="24" y2="36"/>
<line x1="156" x2="244" y1="24" y2="24"/>
<line x1="244" x2="244" y1="12" y2="24"/>
<line x1="244" x2="244" y1="24" y2="36"/>
<path d="M 244 36 A 4 4 0 0 0 248 40"/>
<path d="M 248 8 A 4 4 0 0 0 244 12"/>
</g>
<g>
<line x1="248" x2="376" y1="8" y2="8"/>
<path d="M 380 12 A 4 4 0 0 0 376 8"/>
</g>
<g>
<line x1="248" x2="376" y1="40" y2="40"/>
<path d="M 376 40 A 4 4 0 0 0 380 36"/>
</g>
<g>
<line x1="380" x2="380" y1="12" y2="24"/>
<line x1="380" x2="380" y1="24" y2="36"/>
<line x1="380" x2="492" y1="24" y2="24"/>
<line x1="492" x2="492" y1="12" y2="24"/>
<line x1="492" x2="492" y1="24" y2="36"/>
<path d="M 492 36 A 4 4 0 0 0 496 40"/>
<path d="M 496 8 A 4 4 0 0 0 492 12"/>
</g>
<g>
<line x1="496" x2="608" y1="8" y2="8"/>
<path d="M 612 12 A 4 4 0 0 0 608 8"/>
</g>
<g>
<line x1="496" x2="608" y1="40" y2="40"/>
<path d="M 608 40 A 4 4 0 0 0 612 36"/>
</g>
<g>
<line x1="612" x2="612" y1="12" y2="36"/>
</g>
<g>
<text x="17" y="28">
Instance store
</text>
</g>
<g>
<text x="169" y="12">
*
</text>
</g>
<g>
<text x="225" y="12">
1
</text>
</g>
<g>
<text x="257" y="28">
EC2 Instance
</text>
</g>
<g>
<text x="393" y="12">
1
</text>
</g>
<g>
<text x="465" y="12">
0+
</text>
</g>
<g>
<text x="505" y="28">
EBS volume
</text>
</g>
</svg>
