<svg class="bob" font-family="arial" font-size="14" height="144" width="344" xmlns="http://www.w3.org/2000/svg">
<defs>
<marker id="triangle" markerHeight="8" markerWidth="8" orient="auto" refX="4" refY="2" viewBox="0 0 8 4">
<polygon class="fg_fill" points="0,0 0,4 8,2 0,0"/>
</marker>
<marker id="clear_triangle" markerHeight="10" markerWidth="10" orient="auto" refX="1" refY="7" viewBox="0 0 20 14">
<polygon class="bg_fill" points="2,2 2,12 18,7 2,2"/>
</marker>
<marker id="circle" markerHeight="5" markerWidth="5" orient="auto" refX="10" refY="10" viewBox="0 0 20 20">
<circle class="fg_fill" cx="10" cy="10" r="8"/>
</marker>
<marker id="square" markerHeight="5" markerWidth="5" orient="auto" refX="10" refY="10" viewBox="0 0 20 20">
<rect class="fg_fill" height="20" width="20" x="0" y="0"/>
</marker>
<marker id="open_circle" markerHeight="10" markerWidth="10" orient="auto" refX="10" refY="10" viewBox="0 0 20 20">
<circle class="bg_fill" cx="10" cy="10" r="4"/>
</marker>
<marker id="big_open_circle" markerHeight="20" markerWidth="20" orient="auto" refX="20" refY="20" viewBox="0 0 40 40">
<circle class="bg_fill" cx="20" cy="20" r="6"/>
</marker>
</defs>
<style type="text/css">

rect.backdrop {
    fill: white;
}
text{
    fill: black;
}

circle {
    fill: none;
    stroke: black;
    stroke-width: 2;
}

line {
    stroke: black;
    stroke-width: 2;
    stroke-opacity: 1;
    fill-opacity: 1;
    stroke-linecap: round;
    stroke-linejoin: miter;
}

path {
    fill: none;
    stroke: black;
    stroke-width: 2;
    stroke-opacity: 1;
    fill-opacity: 1;
    stroke-linecap: round;
    stroke-linejoin: miter;
}

line.dashed {
    stroke-dasharray: 5;
}

.fg_fill {
    fill: black;
}


.bg_fill {
    fill: white;
    stroke: black;
    stroke-width: 2;
}

tspan.head{
    fill: none;
    stroke: none;
}
    
</style>
<rect class="backdrop" height="144" width="344" x="0" y="0"/>
<g>
<line x1="4" x2="4" y1="108" y2="132"/>
<path d="M 4 132 A 4 4 0 0 0 8 136"/>
<path d="M 8 104 A 4 4 0 0 0 4 108"/>
</g>
<g>
<line x1="8" x2="68" y1="104" y2="104"/>
<line x1="68" x2="68" y1="40" y2="104"/>
<line x1="68" x2="96" y1="40" y2="40"/>
<line x1="68" x2="128" y1="104" y2="104"/>
<path d="M 96 40 A 4 4 0 0 0 100 36"/>
<path d="M 132 108 A 4 4 0 0 0 128 104"/>
</g>
<g>
<line x1="8" x2="128" y1="136" y2="136"/>
<path d="M 128 136 A 4 4 0 0 0 132 132"/>
</g>
<g>
<line x1="28" x2="28" y1="12" y2="36"/>
<path d="M 28 36 A 4 4 0 0 0 32 40"/>
<path d="M 32 8 A 4 4 0 0 0 28 12"/>
</g>
<g>
<line x1="32" x2="96" y1="8" y2="8"/>
<path d="M 100 12 A 4 4 0 0 0 96 8"/>
</g>
<g>
<line x1="32" x2="68" y1="40" y2="40"/>
</g>
<g>
<line x1="100" x2="100" y1="12" y2="36"/>
</g>
<g>
<line x1="132" x2="132" y1="108" y2="120"/>
<line x1="132" x2="132" y1="120" y2="132"/>
<line x1="132" x2="276" y1="120" y2="120"/>
<line x1="276" x2="276" y1="108" y2="120"/>
<line x1="276" x2="276" y1="120" y2="132"/>
<path d="M 276 132 A 4 4 0 0 0 280 136"/>
<path d="M 280 104 A 4 4 0 0 0 276 108"/>
</g>
<g>
<line x1="280" x2="336" y1="104" y2="104"/>
<path d="M 340 108 A 4 4 0 0 0 336 104"/>
</g>
<g>
<line x1="280" x2="336" y1="136" y2="136"/>
<path d="M 336 136 A 4 4 0 0 0 340 132"/>
</g>
<g>
<line x1="340" x2="340" y1="108" y2="132"/>
</g>
<g>
<text x="17" y="124">
Route table
</text>
</g>
<g>
<text x="41" y="28">
Subnet
</text>
</g>
<g>
<text x="81" y="60">
1
</text>
</g>
<g>
<text x="81" y="92">
0..1
</text>
</g>
<g>
<text x="145" y="140">
1
</text>
</g>
<g>
<text x="249" y="140">
1+
</text>
</g>
<g>
<text x="289" y="124">
Route
</text>
</g>
</svg>
