<svg class="bob" font-family="arial" font-size="14" height="304" width="424" xmlns="http://www.w3.org/2000/svg">
<defs>
<marker id="triangle" markerHeight="8" markerWidth="8" orient="auto" refX="4" refY="2" viewBox="0 0 8 4">
<polygon class="fg_fill" points="0,0 0,4 8,2 0,0"/>
</marker>
<marker id="clear_triangle" markerHeight="10" markerWidth="10" orient="auto" refX="1" refY="7" viewBox="0 0 20 14">
<polygon class="bg_fill" points="2,2 2,12 18,7 2,2"/>
</marker>
<marker id="circle" markerHeight="5" markerWidth="5" orient="auto" refX="10" refY="10" viewBox="0 0 20 20">
<circle class="fg_fill" cx="10" cy="10" r="8"/>
</marker>
<marker id="square" markerHeight="5" markerWidth="5" orient="auto" refX="10" refY="10" viewBox="0 0 20 20">
<rect class="fg_fill" height="20" width="20" x="0" y="0"/>
</marker>
<marker id="open_circle" markerHeight="10" markerWidth="10" orient="auto" refX="10" refY="10" viewBox="0 0 20 20">
<circle class="bg_fill" cx="10" cy="10" r="4"/>
</marker>
<marker id="big_open_circle" markerHeight="20" markerWidth="20" orient="auto" refX="20" refY="20" viewBox="0 0 40 40">
<circle class="bg_fill" cx="20" cy="20" r="6"/>
</marker>
</defs>
<style type="text/css">

rect.backdrop {
    fill: white;
}
text{
    fill: black;
}

circle {
    fill: none;
    stroke: black;
    stroke-width: 2;
}

line {
    stroke: black;
    stroke-width: 2;
    stroke-opacity: 1;
    fill-opacity: 1;
    stroke-linecap: round;
    stroke-linejoin: miter;
}

path {
    fill: none;
    stroke: black;
    stroke-width: 2;
    stroke-opacity: 1;
    fill-opacity: 1;
    stroke-linecap: round;
    stroke-linejoin: miter;
}

line.dashed {
    stroke-dasharray: 5;
}

.fg_fill {
    fill: black;
}


.bg_fill {
    fill: white;
    stroke: black;
    stroke-width: 2;
}

tspan.head{
    fill: none;
    stroke: none;
}
    
</style>
<rect class="backdrop" height="304" width="424" x="0" y="0"/>
<g>
<line x1="4" x2="4" y1="252" y2="292"/>
<path d="M 4 292 A 4 4 0 0 0 8 296"/>
<path d="M 8 248 A 4 4 0 0 0 4 252"/>
</g>
<g>
<line x1="8" x2="60" y1="248" y2="248"/>
<line x1="60" x2="72" y1="248" y2="248"/>
<line x1="92" x2="60" y1="184" y2="248"/>
<line x1="92" x2="124" y1="184" y2="248"/>
<line x1="92" x2="136" y1="184" y2="184"/>
<line x1="96" x2="124" y1="248" y2="248"/>
<line x1="124" x2="160" y1="248" y2="248"/>
<path d="M 76 252 A 4 4 0 0 0 72 248"/>
<path d="M 96 248 A 4 4 0 0 0 92 252"/>
<path d="M 136 184 A 4 4 0 0 0 140 180"/>
<path d="M 164 252 A 4 4 0 0 0 160 248"/>
</g>
<g>
<line x1="8" x2="72" y1="296" y2="296"/>
<path d="M 72 296 A 4 4 0 0 0 76 292"/>
</g>
<g>
<line x1="44" x2="44" y1="140" y2="180"/>
<path d="M 44 180 A 4 4 0 0 0 48 184"/>
<path d="M 48 136 A 4 4 0 0 0 44 140"/>
</g>
<g>
<line x1="48" x2="92" y1="136" y2="136"/>
<line x1="92" x2="136" y1="136" y2="136"/>
<line x1="124" x2="92" y1="72" y2="136"/>
<line x1="124" x2="168" y1="72" y2="72"/>
<line x1="124" x2="212" y1="72" y2="248"/>
<line x1="184" x2="212" y1="248" y2="248"/>
<line x1="212" x2="248" y1="248" y2="248"/>
<path d="M 140 140 A 4 4 0 0 0 136 136"/>
<path d="M 168 72 A 4 4 0 0 0 172 68"/>
<path d="M 184 248 A 4 4 0 0 0 180 252"/>
<path d="M 252 252 A 4 4 0 0 0 248 248"/>
</g>
<g>
<line x1="48" x2="92" y1="184" y2="184"/>
</g>
<g>
<line x1="76" x2="76" y1="28" y2="68"/>
<path d="M 76 68 A 4 4 0 0 0 80 72"/>
<path d="M 80 24 A 4 4 0 0 0 76 28"/>
</g>
<g>
<line x1="76" x2="76" y1="252" y2="292"/>
</g>
<g>
<line x1="80" x2="168" y1="24" y2="24"/>
<path d="M 172 28 A 4 4 0 0 0 168 24"/>
</g>
<g>
<line x1="80" x2="124" y1="72" y2="72"/>
</g>
<g>
<line x1="92" x2="92" y1="252" y2="292"/>
<path d="M 92 292 A 4 4 0 0 0 96 296"/>
</g>
<g>
<line x1="96" x2="160" y1="296" y2="296"/>
<path d="M 160 296 A 4 4 0 0 0 164 292"/>
</g>
<g>
<line x1="140" x2="140" y1="140" y2="180"/>
</g>
<g>
<line x1="164" x2="164" y1="252" y2="292"/>
</g>
<g>
<line x1="172" x2="172" y1="28" y2="68"/>
</g>
<g>
<line x1="180" x2="180" y1="252" y2="292"/>
<path d="M 180 292 A 4 4 0 0 0 184 296"/>
</g>
<g>
<line x1="184" x2="248" y1="296" y2="296"/>
<path d="M 248 296 A 4 4 0 0 0 252 292"/>
</g>
<g>
<line x1="252" x2="252" y1="252" y2="292"/>
</g>
<g>
<text x="1" y="12">
Phylogenetic tree with ancestral sequences inferred
</text>
</g>
<g>
<text x="17" y="284">
ACTGGT
</text>
</g>
<g>
<text x="33" y="268">
Cat
</text>
</g>
<g>
<text x="57" y="156">
AncestorB
</text>
</g>
<g>
<text x="65" y="172">
ACTGCT
</text>
</g>
<g>
<text x="89" y="44">
AncestorA
</text>
</g>
<g>
<text x="97" y="60">
ATTGCC
</text>
</g>
<g>
<text x="105" y="284">
ACTGCT
</text>
</g>
<g>
<text x="113" y="268">
Lion
</text>
</g>
<g>
<text x="193" y="284">
ATTCCC
</text>
</g>
<g>
<text x="201" y="268">
Bear
</text>
</g>
</svg>
