<svg class="bob" font-family="arial" font-size="14" height="496" width="472" xmlns="http://www.w3.org/2000/svg">
<defs>
<marker id="triangle" markerHeight="8" markerWidth="8" orient="auto" refX="4" refY="2" viewBox="0 0 8 4">
<polygon class="fg_fill" points="0,0 0,4 8,2 0,0"/>
</marker>
<marker id="clear_triangle" markerHeight="10" markerWidth="10" orient="auto" refX="1" refY="7" viewBox="0 0 20 14">
<polygon class="bg_fill" points="2,2 2,12 18,7 2,2"/>
</marker>
<marker id="circle" markerHeight="5" markerWidth="5" orient="auto" refX="10" refY="10" viewBox="0 0 20 20">
<circle class="fg_fill" cx="10" cy="10" r="8"/>
</marker>
<marker id="square" markerHeight="5" markerWidth="5" orient="auto" refX="10" refY="10" viewBox="0 0 20 20">
<rect class="fg_fill" height="20" width="20" x="0" y="0"/>
</marker>
<marker id="open_circle" markerHeight="10" markerWidth="10" orient="auto" refX="10" refY="10" viewBox="0 0 20 20">
<circle class="bg_fill" cx="10" cy="10" r="4"/>
</marker>
<marker id="big_open_circle" markerHeight="20" markerWidth="20" orient="auto" refX="20" refY="20" viewBox="0 0 40 40">
<circle class="bg_fill" cx="20" cy="20" r="6"/>
</marker>
</defs>
<style type="text/css">

rect.backdrop {
    fill: white;
}
text{
    fill: black;
}

circle {
    fill: none;
    stroke: black;
    stroke-width: 2;
}

line {
    stroke: black;
    stroke-width: 2;
    stroke-opacity: 1;
    fill-opacity: 1;
    stroke-linecap: round;
    stroke-linejoin: miter;
}

path {
    fill: none;
    stroke: black;
    stroke-width: 2;
    stroke-opacity: 1;
    fill-opacity: 1;
    stroke-linecap: round;
    stroke-linejoin: miter;
}

line.dashed {
    stroke-dasharray: 5;
}

.fg_fill {
    fill: black;
}


.bg_fill {
    fill: white;
    stroke: black;
    stroke-width: 2;
}

tspan.head{
    fill: none;
    stroke: none;
}
    
</style>
<rect class="backdrop" height="496" width="472" x="0" y="0"/>
<g>
<line x1="32" x2="200" y1="312" y2="312"/>
<path d="M 32 312 A 4 4 0 0 0 28 316"/>
<path d="M 204 316 A 4 4 0 0 0 200 312"/>
</g>
<g>
<line x1="32" x2="200" y1="360" y2="360"/>
<path d="M 28 356 A 4 4 0 0 0 32 360"/>
<path d="M 200 360 A 4 4 0 0 0 204 356"/>
</g>
<g>
<line x1="32" x2="216" y1="408" y2="408"/>
<path d="M 32 408 A 4 4 0 0 0 28 412"/>
<path d="M 220 412 A 4 4 0 0 0 216 408"/>
</g>
<g>
<line x1="32" x2="216" y1="456" y2="456"/>
<path d="M 28 452 A 4 4 0 0 0 32 456"/>
<path d="M 216 456 A 4 4 0 0 0 220 452"/>
</g>
<g>
<line x1="48" x2="184" y1="216" y2="216"/>
<path d="M 48 216 A 4 4 0 0 0 44 220"/>
<path d="M 188 220 A 4 4 0 0 0 184 216"/>
</g>
<g>
<line x1="48" x2="184" y1="264" y2="264"/>
<path d="M 44 260 A 4 4 0 0 0 48 264"/>
<path d="M 184 264 A 4 4 0 0 0 188 260"/>
</g>
<g>
<line x1="64" x2="168" y1="120" y2="120"/>
<path d="M 64 120 A 4 4 0 0 0 60 124"/>
<path d="M 172 124 A 4 4 0 0 0 168 120"/>
</g>
<g>
<line x1="64" x2="168" y1="168" y2="168"/>
<path d="M 60 164 A 4 4 0 0 0 64 168"/>
<path d="M 168 168 A 4 4 0 0 0 172 164"/>
</g>
<g>
<line x1="80" x2="152" y1="24" y2="24"/>
<path d="M 80 24 A 4 4 0 0 0 76 28"/>
<path d="M 156 28 A 4 4 0 0 0 152 24"/>
</g>
<g>
<line x1="80" x2="152" y1="72" y2="72"/>
<path d="M 76 68 A 4 4 0 0 0 80 72"/>
<path d="M 152 72 A 4 4 0 0 0 156 68"/>
</g>
<g>
<text x="1" y="12">
Original HSP:
</text>
</g>
<g>
<text x="1" y="44">
G
</text>
</g>
<g>
<text x="1" y="108">
Expand HSP by 1 each way:
</text>
</g>
<g>
<text x="1" y="140">
G
</text>
</g>
<g>
<text x="1" y="204">
Expand HSP by 1 each way:
</text>
</g>
<g>
<text x="1" y="236">
G
</text>
</g>
<g>
<text x="1" y="300">
Expand HSP by 1 each way:
</text>
</g>
<g>
<text x="1" y="332">
G
</text>
</g>
<g>
<text x="1" y="396">
Expand HSP by 1 right (can&#39;t go left anymore):
</text>
</g>
<g>
<text x="1" y="428">
G
</text>
</g>
<g>
<text x="1" y="492">
... (keep expanding until score goes below threshold) ...
</text>
</g>
<g>
<text x="17" y="44">
G
</text>
</g>
<g>
<text x="17" y="140">
G
</text>
</g>
<g>
<text x="17" y="236">
G
</text>
</g>
<g>
<text x="17" y="332">
G
</text>
</g>
<g>
<text x="17" y="428">
G
</text>
</g>
<g>
<text x="33" y="44">
A
</text>
</g>
<g>
<text x="33" y="60">
A
</text>
</g>
<g>
<text x="33" y="140">
A
</text>
</g>
<g>
<text x="33" y="156">
A
</text>
</g>
<g>
<text x="33" y="236">
A
</text>
</g>
<g>
<text x="33" y="252">
A
</text>
</g>
<g>
<text x="33" y="332">
A
</text>
</g>
<g>
<text x="33" y="348">
A
</text>
</g>
<g>
<text x="33" y="428">
A
</text>
</g>
<g>
<text x="33" y="444">
A
</text>
</g>
<g>
<text x="49" y="44">
C
</text>
</g>
<g>
<text x="49" y="60">
C
</text>
</g>
<g>
<text x="49" y="140">
C
</text>
</g>
<g>
<text x="49" y="156">
C
</text>
</g>
<g>
<text x="49" y="236">
C
</text>
</g>
<g>
<text x="49" y="252">
C
</text>
</g>
<g>
<text x="49" y="332">
C
</text>
</g>
<g>
<text x="49" y="348">
C
</text>
</g>
<g>
<text x="49" y="428">
C
</text>
</g>
<g>
<text x="49" y="444">
C
</text>
</g>
<g>
<text x="65" y="44">
T
</text>
</g>
<g>
<text x="65" y="60">
C
</text>
</g>
<g>
<text x="65" y="140">
T
</text>
</g>
<g>
<text x="65" y="156">
C
</text>
</g>
<g>
<text x="65" y="236">
T
</text>
</g>
<g>
<text x="65" y="252">
C
</text>
</g>
<g>
<text x="65" y="332">
T
</text>
</g>
<g>
<text x="65" y="348">
C
</text>
</g>
<g>
<text x="65" y="428">
T
</text>
</g>
<g>
<text x="65" y="444">
C
</text>
</g>
<g>
<text x="81" y="44">
C
</text>
</g>
<g>
<text x="81" y="60">
C
</text>
</g>
<g>
<text x="81" y="140">
C
</text>
</g>
<g>
<text x="81" y="156">
C
</text>
</g>
<g>
<text x="81" y="236">
C
</text>
</g>
<g>
<text x="81" y="252">
C
</text>
</g>
<g>
<text x="81" y="332">
C
</text>
</g>
<g>
<text x="81" y="348">
C
</text>
</g>
<g>
<text x="81" y="428">
C
</text>
</g>
<g>
<text x="81" y="444">
C
</text>
</g>
<g>
<text x="97" y="44">
C
</text>
</g>
<g>
<text x="97" y="60">
T
</text>
</g>
<g>
<text x="97" y="140">
C
</text>
</g>
<g>
<text x="97" y="156">
T
</text>
</g>
<g>
<text x="97" y="236">
C
</text>
</g>
<g>
<text x="97" y="252">
T
</text>
</g>
<g>
<text x="97" y="332">
C
</text>
</g>
<g>
<text x="97" y="348">
T
</text>
</g>
<g>
<text x="97" y="428">
C
</text>
</g>
<g>
<text x="97" y="444">
T
</text>
</g>
<g>
<text x="113" y="44">
C
</text>
</g>
<g>
<text x="113" y="60">
T
</text>
</g>
<g>
<text x="113" y="140">
C
</text>
</g>
<g>
<text x="113" y="156">
T
</text>
</g>
<g>
<text x="113" y="236">
C
</text>
</g>
<g>
<text x="113" y="252">
T
</text>
</g>
<g>
<text x="113" y="332">
C
</text>
</g>
<g>
<text x="113" y="348">
T
</text>
</g>
<g>
<text x="113" y="428">
C
</text>
</g>
<g>
<text x="113" y="444">
T
</text>
</g>
<g>
<text x="129" y="44">
C
</text>
</g>
<g>
<text x="129" y="60">
A
</text>
</g>
<g>
<text x="129" y="140">
C
</text>
</g>
<g>
<text x="129" y="156">
A
</text>
</g>
<g>
<text x="129" y="236">
C
</text>
</g>
<g>
<text x="129" y="252">
A
</text>
</g>
<g>
<text x="129" y="332">
C
</text>
</g>
<g>
<text x="129" y="348">
A
</text>
</g>
<g>
<text x="129" y="428">
C
</text>
</g>
<g>
<text x="129" y="444">
A
</text>
</g>
<g>
<text x="145" y="44">
T
</text>
</g>
<g>
<text x="145" y="60">
T
</text>
</g>
<g>
<text x="145" y="140">
T
</text>
</g>
<g>
<text x="145" y="156">
T
</text>
</g>
<g>
<text x="145" y="236">
T
</text>
</g>
<g>
<text x="145" y="252">
T
</text>
</g>
<g>
<text x="145" y="332">
T
</text>
</g>
<g>
<text x="145" y="348">
T
</text>
</g>
<g>
<text x="145" y="428">
T
</text>
</g>
<g>
<text x="145" y="444">
T
</text>
</g>
<g>
<text x="161" y="44">
T
</text>
</g>
<g>
<text x="161" y="60">
T
</text>
</g>
<g>
<text x="161" y="140">
T
</text>
</g>
<g>
<text x="161" y="156">
T
</text>
</g>
<g>
<text x="161" y="236">
T
</text>
</g>
<g>
<text x="161" y="252">
T
</text>
</g>
<g>
<text x="161" y="332">
T
</text>
</g>
<g>
<text x="161" y="348">
T
</text>
</g>
<g>
<text x="161" y="428">
T
</text>
</g>
<g>
<text x="161" y="444">
T
</text>
</g>
<g>
<text x="177" y="44">
G
</text>
</g>
<g>
<text x="177" y="60">
G
</text>
</g>
<g>
<text x="177" y="140">
G
</text>
</g>
<g>
<text x="177" y="156">
G
</text>
</g>
<g>
<text x="177" y="236">
G
</text>
</g>
<g>
<text x="177" y="252">
G
</text>
</g>
<g>
<text x="177" y="332">
G
</text>
</g>
<g>
<text x="177" y="348">
G
</text>
</g>
<g>
<text x="177" y="428">
G
</text>
</g>
<g>
<text x="177" y="444">
G
</text>
</g>
<g>
<text x="193" y="44">
T
</text>
</g>
<g>
<text x="193" y="60">
T
</text>
</g>
<g>
<text x="193" y="140">
T
</text>
</g>
<g>
<text x="193" y="156">
T
</text>
</g>
<g>
<text x="193" y="236">
T
</text>
</g>
<g>
<text x="193" y="252">
T
</text>
</g>
<g>
<text x="193" y="332">
T
</text>
</g>
<g>
<text x="193" y="348">
T
</text>
</g>
<g>
<text x="193" y="428">
T
</text>
</g>
<g>
<text x="193" y="444">
T
</text>
</g>
<g>
<text x="209" y="44">
A
</text>
</g>
<g>
<text x="209" y="60">
A
</text>
</g>
<g>
<text x="209" y="140">
A
</text>
</g>
<g>
<text x="209" y="156">
A
</text>
</g>
<g>
<text x="209" y="236">
A
</text>
</g>
<g>
<text x="209" y="252">
A
</text>
</g>
<g>
<text x="209" y="332">
A
</text>
</g>
<g>
<text x="209" y="348">
A
</text>
</g>
<g>
<text x="209" y="428">
A
</text>
</g>
<g>
<text x="209" y="444">
A
</text>
</g>
<g>
<text x="225" y="44">
C
</text>
</g>
<g>
<text x="225" y="60">
A
</text>
</g>
<g>
<text x="225" y="140">
C
</text>
</g>
<g>
<text x="225" y="156">
A
</text>
</g>
<g>
<text x="225" y="236">
C
</text>
</g>
<g>
<text x="225" y="252">
A
</text>
</g>
<g>
<text x="225" y="332">
C
</text>
</g>
<g>
<text x="225" y="348">
A
</text>
</g>
<g>
<text x="225" y="428">
C
</text>
</g>
<g>
<text x="225" y="444">
A
</text>
</g>
<g>
<text x="241" y="44">
G
</text>
</g>
<g>
<text x="241" y="60">
G
</text>
</g>
<g>
<text x="241" y="140">
G
</text>
</g>
<g>
<text x="241" y="156">
G
</text>
</g>
<g>
<text x="241" y="236">
G
</text>
</g>
<g>
<text x="241" y="252">
G
</text>
</g>
<g>
<text x="241" y="332">
G
</text>
</g>
<g>
<text x="241" y="348">
G
</text>
</g>
<g>
<text x="241" y="428">
G
</text>
</g>
<g>
<text x="241" y="444">
G
</text>
</g>
<g>
<text x="257" y="44">
T
</text>
</g>
<g>
<text x="257" y="60">
T
</text>
</g>
<g>
<text x="257" y="140">
T
</text>
</g>
<g>
<text x="257" y="156">
T
</text>
</g>
<g>
<text x="257" y="236">
T
</text>
</g>
<g>
<text x="257" y="252">
T
</text>
</g>
<g>
<text x="257" y="332">
T
</text>
</g>
<g>
<text x="257" y="348">
T
</text>
</g>
<g>
<text x="257" y="428">
T
</text>
</g>
<g>
<text x="257" y="444">
T
</text>
</g>
<g>
<text x="273" y="60">
T
</text>
</g>
<g>
<text x="273" y="156">
T
</text>
</g>
<g>
<text x="273" y="252">
T
</text>
</g>
<g>
<text x="273" y="348">
T
</text>
</g>
<g>
<text x="273" y="444">
T
</text>
</g>
</svg>
