<?xml version="1.0" encoding="UTF-8" standalone="no"?>
<!DOCTYPE svg PUBLIC "-//W3C//DTD SVG 1.1//EN"
 "http://www.w3.org/Graphics/SVG/1.1/DTD/svg11.dtd">
<!-- Generated by graphviz version 2.40.1 (0)
 -->
<!-- Title: G Pages: 1 -->
<svg width="702pt" height="306pt"
 viewBox="0.00 0.00 702.00 306.20" xmlns="http://www.w3.org/2000/svg" xmlns:xlink="http://www.w3.org/1999/xlink">
<g id="graph0" class="graph" transform="scale(1 1) rotate(0) translate(4 302.2)">
<title>G</title>
<polygon fill="#ffffff" stroke="transparent" points="-4,4 -4,-302.2 698,-302.2 698,4 -4,4"/>
<text text-anchor="middle" x="347" y="-283" font-family="Times,serif" font-size="14.00" fill="#000000">CIRCULAR flattened on desired genome (blue edges)</text>
<!-- _C1_t_ -->
<g id="node1" class="node">
<title>_C1_t_</title>
<text text-anchor="middle" x="455" y="-133.9" font-family="Times,serif" font-size="14.00" fill="#000000">_C1_t_</text>
</g>
<!-- _C1_h_ -->
<g id="node2" class="node">
<title>_C1_h_</title>
<text text-anchor="middle" x="383" y="-133.9" font-family="Times,serif" font-size="14.00" fill="#000000">_C1_h_</text>
</g>
<!-- _C1_t_&#45;&#45;_C1_h_ -->
<g id="edge1" class="edge">
<title>_C1_t_:w&#45;&#45;_C1_h_:e</title>
<path fill="none" stroke="#000000" stroke-dasharray="5,2" d="M432,-137.6C424.2,-137.6 424.2,-137.6 406,-137.6"/>
</g>
<!-- _D1_h_ -->
<g id="node8" class="node">
<title>_D1_h_</title>
<text text-anchor="middle" x="599" y="-133.9" font-family="Times,serif" font-size="14.00" fill="#000000">_D1_h_</text>
</g>
<!-- _C1_t_&#45;&#45;_D1_h_ -->
<g id="edge5" class="edge">
<title>_C1_t_:e&#45;&#45;_D1_h_:w</title>
<path fill="none" stroke="#0000ff" d="M478,-137.6C546.6,-137.6 546.6,-137.6 576,-137.6"/>
</g>
<!-- _B1_t_ -->
<g id="node3" class="node">
<title>_B1_t_</title>
<text text-anchor="middle" x="311" y="-133.9" font-family="Times,serif" font-size="14.00" fill="#000000">_B1_t_</text>
</g>
<!-- _B1_t_&#45;&#45;_C1_h_ -->
<g id="edge7" class="edge">
<title>_B1_t_:e&#45;&#45;_C1_h_:w</title>
<path fill="none" stroke="#0000ff" d="M334,-137.6C341.8006,-137.5188 341.8006,-137.5188 360,-137.6"/>
</g>
<!-- _B1_h_ -->
<g id="node4" class="node">
<title>_B1_h_</title>
<text text-anchor="middle" x="239" y="-133.9" font-family="Times,serif" font-size="14.00" fill="#000000">_B1_h_</text>
</g>
<!-- _B1_t_&#45;&#45;_B1_h_ -->
<g id="edge2" class="edge">
<title>_B1_t_:w&#45;&#45;_B1_h_:e</title>
<path fill="none" stroke="#000000" stroke-dasharray="5,2" d="M288,-137.6C269.8,-137.6 269.8,-137.6 262,-137.6"/>
</g>
<!-- _B1_t_&#45;&#45;_D1_h_ -->
<g id="edge12" class="edge">
<title>_B1_t_:s&#45;&#45;_D1_h_:s</title>
<path fill="none" stroke="#ff0000" d="M311,-129.6C512.4426,-125.345 512.4426,-125.345 599,-129.6"/>
</g>
<!-- _B1_h_&#45;&#45;_C1_h_ -->
<g id="edge9" class="edge">
<title>_B1_h_:n&#45;&#45;_C1_h_:n</title>
<path fill="none" stroke="#ff0000" d="M239,-145.6C283.2202,-153.1975 283.2202,-153.1975 383,-145.6"/>
</g>
<!-- _A1_t_ -->
<g id="node5" class="node">
<title>_A1_t_</title>
<text text-anchor="middle" x="167" y="-133.9" font-family="Times,serif" font-size="14.00" fill="#000000">_A1_t_</text>
</g>
<!-- _A1_t_&#45;&#45;_C1_t_ -->
<g id="edge10" class="edge">
<title>_A1_t_:s&#45;&#45;_C1_t_:s</title>
<path fill="none" stroke="#ff0000" d="M167,-129.6C255.2134,-115.2606 255.2134,-115.2606 455,-129.6"/>
</g>
<!-- _A1_t_&#45;&#45;_B1_h_ -->
<g id="edge8" class="edge">
<title>_A1_t_:e&#45;&#45;_B1_h_:w</title>
<path fill="none" stroke="#0000ff" d="M190,-137.6C197.8008,-137.6913 197.8008,-137.6913 216,-137.6"/>
</g>
<!-- _A1_h_ -->
<g id="node6" class="node">
<title>_A1_h_</title>
<text text-anchor="middle" x="23" y="-133.9" font-family="Times,serif" font-size="14.00" fill="#000000">_A1_h_</text>
</g>
<!-- _A1_t_&#45;&#45;_A1_h_ -->
<g id="edge3" class="edge">
<title>_A1_t_:w&#45;&#45;_A1_h_:e</title>
<path fill="none" stroke="#000000" stroke-dasharray="5,2" d="M144,-137.6C75.401,-137.7966 75.401,-137.7966 46,-137.6"/>
</g>
<!-- _D1_t_ -->
<g id="node7" class="node">
<title>_D1_t_</title>
<text text-anchor="middle" x="671" y="-133.9" font-family="Times,serif" font-size="14.00" fill="#000000">_D1_t_</text>
</g>
<!-- _A1_h_&#45;&#45;_D1_t_ -->
<g id="edge6" class="edge">
<title>_A1_h_:n&#45;&#45;_D1_t_:n</title>
<path fill="none" stroke="#0000ff" d="M23,-145.6C347,-275.2 347,-275.2 671,-145.6"/>
</g>
<!-- _A1_h_&#45;&#45;_D1_t_ -->
<g id="edge11" class="edge">
<title>_A1_h_:s&#45;&#45;_D1_t_:s</title>
<path fill="none" stroke="#ff0000" d="M23,-129.6C347,0 347,0 671,-129.6"/>
</g>
<!-- _D1_t_&#45;&#45;_D1_h_ -->
<g id="edge4" class="edge">
<title>_D1_t_:w&#45;&#45;_D1_h_:e</title>
<path fill="none" stroke="#000000" stroke-dasharray="5,2" d="M648,-137.6C640.2,-137.6 640.2,-137.6 622,-137.6"/>
</g>
</g>
</svg>
