<svg class="bob" font-family="arial" font-size="14" height="432" width="648" xmlns="http://www.w3.org/2000/svg">
<defs>
<marker id="triangle" markerHeight="8" markerWidth="8" orient="auto" refX="4" refY="2" viewBox="0 0 8 4">
<polygon class="fg_fill" points="0,0 0,4 8,2 0,0"/>
</marker>
<marker id="clear_triangle" markerHeight="10" markerWidth="10" orient="auto" refX="1" refY="7" viewBox="0 0 20 14">
<polygon class="bg_fill" points="2,2 2,12 18,7 2,2"/>
</marker>
<marker id="circle" markerHeight="5" markerWidth="5" orient="auto" refX="10" refY="10" viewBox="0 0 20 20">
<circle class="fg_fill" cx="10" cy="10" r="8"/>
</marker>
<marker id="square" markerHeight="5" markerWidth="5" orient="auto" refX="10" refY="10" viewBox="0 0 20 20">
<rect class="fg_fill" height="20" width="20" x="0" y="0"/>
</marker>
<marker id="open_circle" markerHeight="10" markerWidth="10" orient="auto" refX="10" refY="10" viewBox="0 0 20 20">
<circle class="bg_fill" cx="10" cy="10" r="4"/>
</marker>
<marker id="big_open_circle" markerHeight="20" markerWidth="20" orient="auto" refX="20" refY="20" viewBox="0 0 40 40">
<circle class="bg_fill" cx="20" cy="20" r="6"/>
</marker>
</defs>
<style type="text/css">

rect.backdrop {
    fill: white;
}
text{
    fill: black;
}

circle {
    fill: none;
    stroke: black;
    stroke-width: 2;
}

line {
    stroke: black;
    stroke-width: 2;
    stroke-opacity: 1;
    fill-opacity: 1;
    stroke-linecap: round;
    stroke-linejoin: miter;
}

path {
    fill: none;
    stroke: black;
    stroke-width: 2;
    stroke-opacity: 1;
    fill-opacity: 1;
    stroke-linecap: round;
    stroke-linejoin: miter;
}

line.dashed {
    stroke-dasharray: 5;
}

.fg_fill {
    fill: black;
}


.bg_fill {
    fill: white;
    stroke: black;
    stroke-width: 2;
}

tspan.head{
    fill: none;
    stroke: none;
}
    
</style>
<rect class="backdrop" height="432" width="648" x="0" y="0"/>
<g>
<text x="1" y="380">
*
</text>
</g>
<g>
<text x="17" y="380">
I know the maximum alignment path travels through the edge at (2, 2) (3, 3)
</text>
</g>
<g>
<text x="17" y="396">
(denoted by larger circles). This is what the sub-division based on that edge
</text>
</g>
<g>
<text x="17" y="412">
looks like. Imagine the size of sub-graph 2 if it sub-division was based on
</text>
</g>
<g>
<text x="17" y="428">
just the node at (2,2) or (3, 3).
</text>
</g>
<g>
<text x="297" y="172">
sub-divide to...
</text>
</g>
<g>
<text x="433" y="188">
sub-graph1
</text>
</g>
<g>
<text x="553" y="348">
sub-graph2
</text>
</g>
<g>
<line marker-end="url(#triangle)" marker-start="url(#open_circle)" x1="4" x2="4" y1="8" y2="76"/>
<line marker-end="url(#triangle)" marker-start="url(#open_circle)" x1="4" x2="36" y1="8" y2="8"/>
<line marker-end="url(#triangle)" marker-start="url(#open_circle)" x1="4" x2="38" y1="8" y2="76"/>
</g>
<g>
<line marker-end="url(#triangle)" marker-start="url(#open_circle)" x1="4" x2="4" y1="88" y2="156"/>
<line marker-end="url(#triangle)" marker-start="url(#open_circle)" x1="4" x2="36" y1="88" y2="88"/>
<line marker-end="url(#triangle)" marker-start="url(#open_circle)" x1="4" x2="38" y1="88" y2="156"/>
</g>
<g>
<line marker-end="url(#triangle)" marker-start="url(#open_circle)" x1="4" x2="4" y1="168" y2="236"/>
<line marker-end="url(#triangle)" marker-start="url(#open_circle)" x1="4" x2="36" y1="168" y2="168"/>
<line marker-end="url(#triangle)" marker-start="url(#open_circle)" x1="4" x2="38" y1="168" y2="236"/>
</g>
<g>
<line marker-end="url(#triangle)" marker-start="url(#open_circle)" x1="4" x2="4" y1="248" y2="316"/>
<line marker-end="url(#triangle)" marker-start="url(#open_circle)" x1="4" x2="36" y1="248" y2="248"/>
<line marker-end="url(#triangle)" marker-start="url(#open_circle)" x1="4" x2="38" y1="248" y2="316"/>
</g>
<g>
<line marker-end="url(#triangle)" marker-start="url(#open_circle)" x1="4" x2="36" y1="328" y2="328"/>
</g>
<g>
<line marker-start="url(#open_circle)" x1="44" x2="40" y1="8" y2="8"/>
<line marker-end="url(#triangle)" marker-start="url(#open_circle)" x1="44" x2="44" y1="8" y2="76"/>
<line marker-end="url(#triangle)" marker-start="url(#open_circle)" x1="44" x2="76" y1="8" y2="8"/>
<line marker-end="url(#triangle)" marker-start="url(#open_circle)" x1="44" x2="78" y1="8" y2="76"/>
</g>
<g>
<line marker-start="url(#open_circle)" x1="44" x2="40" y1="88" y2="88"/>
<line marker-end="url(#triangle)" marker-start="url(#open_circle)" x1="44" x2="44" y1="88" y2="156"/>
<line marker-end="url(#triangle)" marker-start="url(#open_circle)" x1="44" x2="76" y1="88" y2="88"/>
<line marker-end="url(#triangle)" marker-start="url(#open_circle)" x1="44" x2="78" y1="88" y2="156"/>
</g>
<g>
<line marker-start="url(#open_circle)" x1="44" x2="40" y1="168" y2="168"/>
<line marker-end="url(#triangle)" marker-start="url(#open_circle)" x1="44" x2="44" y1="168" y2="236"/>
<line marker-end="url(#triangle)" marker-start="url(#open_circle)" x1="44" x2="76" y1="168" y2="168"/>
<line marker-end="url(#triangle)" marker-start="url(#open_circle)" x1="44" x2="78" y1="168" y2="236"/>
</g>
<g>
<line marker-start="url(#open_circle)" x1="44" x2="40" y1="248" y2="248"/>
<line marker-end="url(#triangle)" marker-start="url(#open_circle)" x1="44" x2="44" y1="248" y2="316"/>
<line marker-end="url(#triangle)" marker-start="url(#open_circle)" x1="44" x2="76" y1="248" y2="248"/>
<line marker-end="url(#triangle)" marker-start="url(#open_circle)" x1="44" x2="78" y1="248" y2="316"/>
</g>
<g>
<line marker-start="url(#open_circle)" x1="44" x2="40" y1="328" y2="328"/>
<line marker-end="url(#triangle)" marker-start="url(#open_circle)" x1="44" x2="76" y1="328" y2="328"/>
</g>
<g>
<line marker-start="url(#open_circle)" x1="84" x2="80" y1="8" y2="8"/>
<line marker-end="url(#triangle)" marker-start="url(#open_circle)" x1="84" x2="84" y1="8" y2="76"/>
<line marker-end="url(#triangle)" marker-start="url(#open_circle)" x1="84" x2="116" y1="8" y2="8"/>
<line marker-end="url(#triangle)" marker-start="url(#open_circle)" x1="84" x2="118" y1="8" y2="76"/>
</g>
<g>
<line marker-start="url(#open_circle)" x1="84" x2="80" y1="88" y2="88"/>
<line marker-end="url(#triangle)" marker-start="url(#open_circle)" x1="84" x2="84" y1="88" y2="156"/>
<line marker-end="url(#triangle)" marker-start="url(#open_circle)" x1="84" x2="116" y1="88" y2="88"/>
<line marker-end="url(#triangle)" marker-start="url(#open_circle)" x1="84" x2="118" y1="88" y2="156"/>
</g>
<g>
<line marker-start="url(#big_open_circle)" x1="84" x2="80" y1="168" y2="168"/>
<line marker-end="url(#triangle)" marker-start="url(#big_open_circle)" x1="84" x2="84" y1="168" y2="236"/>
<line marker-end="url(#triangle)" marker-start="url(#big_open_circle)" x1="84" x2="116" y1="168" y2="168"/>
<line marker-end="url(#triangle)" marker-start="url(#big_open_circle)" x1="84" x2="118" y1="168" y2="236"/>
</g>
<g>
<line marker-start="url(#open_circle)" x1="84" x2="80" y1="248" y2="248"/>
<line marker-end="url(#triangle)" marker-start="url(#open_circle)" x1="84" x2="84" y1="248" y2="316"/>
<line marker-end="url(#triangle)" marker-start="url(#open_circle)" x1="84" x2="116" y1="248" y2="248"/>
<line marker-end="url(#triangle)" marker-start="url(#open_circle)" x1="84" x2="118" y1="248" y2="316"/>
</g>
<g>
<line marker-start="url(#open_circle)" x1="84" x2="80" y1="328" y2="328"/>
<line marker-end="url(#triangle)" marker-start="url(#open_circle)" x1="84" x2="116" y1="328" y2="328"/>
</g>
<g>
<line marker-start="url(#open_circle)" x1="124" x2="120" y1="8" y2="8"/>
<line marker-end="url(#triangle)" marker-start="url(#open_circle)" x1="124" x2="124" y1="8" y2="76"/>
<line marker-end="url(#triangle)" marker-start="url(#open_circle)" x1="124" x2="156" y1="8" y2="8"/>
<line marker-end="url(#triangle)" marker-start="url(#open_circle)" x1="124" x2="158" y1="8" y2="76"/>
</g>
<g>
<line marker-start="url(#open_circle)" x1="124" x2="120" y1="88" y2="88"/>
<line marker-end="url(#triangle)" marker-start="url(#open_circle)" x1="124" x2="124" y1="88" y2="156"/>
<line marker-end="url(#triangle)" marker-start="url(#open_circle)" x1="124" x2="156" y1="88" y2="88"/>
<line marker-end="url(#triangle)" marker-start="url(#open_circle)" x1="124" x2="158" y1="88" y2="156"/>
</g>
<g>
<line marker-start="url(#open_circle)" x1="124" x2="120" y1="168" y2="168"/>
<line marker-end="url(#triangle)" marker-start="url(#open_circle)" x1="124" x2="124" y1="168" y2="236"/>
<line marker-end="url(#triangle)" marker-start="url(#open_circle)" x1="124" x2="156" y1="168" y2="168"/>
<line marker-end="url(#triangle)" marker-start="url(#open_circle)" x1="124" x2="158" y1="168" y2="236"/>
</g>
<g>
<line marker-start="url(#big_open_circle)" x1="124" x2="120" y1="248" y2="248"/>
<line marker-end="url(#triangle)" marker-start="url(#big_open_circle)" x1="124" x2="124" y1="248" y2="316"/>
<line marker-end="url(#triangle)" marker-start="url(#big_open_circle)" x1="124" x2="156" y1="248" y2="248"/>
<line marker-end="url(#triangle)" marker-start="url(#big_open_circle)" x1="124" x2="158" y1="248" y2="316"/>
</g>
<g>
<line marker-start="url(#open_circle)" x1="124" x2="120" y1="328" y2="328"/>
<line marker-end="url(#triangle)" marker-start="url(#open_circle)" x1="124" x2="156" y1="328" y2="328"/>
</g>
<g>
<line marker-start="url(#open_circle)" x1="164" x2="160" y1="8" y2="8"/>
<line marker-end="url(#triangle)" marker-start="url(#open_circle)" x1="164" x2="164" y1="8" y2="76"/>
<line marker-end="url(#triangle)" marker-start="url(#open_circle)" x1="164" x2="196" y1="8" y2="8"/>
<line marker-end="url(#triangle)" marker-start="url(#open_circle)" x1="164" x2="198" y1="8" y2="76"/>
</g>
<g>
<line marker-start="url(#open_circle)" x1="164" x2="160" y1="88" y2="88"/>
<line marker-end="url(#triangle)" marker-start="url(#open_circle)" x1="164" x2="164" y1="88" y2="156"/>
<line marker-end="url(#triangle)" marker-start="url(#open_circle)" x1="164" x2="196" y1="88" y2="88"/>
<line marker-end="url(#triangle)" marker-start="url(#open_circle)" x1="164" x2="198" y1="88" y2="156"/>
</g>
<g>
<line marker-start="url(#open_circle)" x1="164" x2="160" y1="168" y2="168"/>
<line marker-end="url(#triangle)" marker-start="url(#open_circle)" x1="164" x2="164" y1="168" y2="236"/>
<line marker-end="url(#triangle)" marker-start="url(#open_circle)" x1="164" x2="196" y1="168" y2="168"/>
<line marker-end="url(#triangle)" marker-start="url(#open_circle)" x1="164" x2="198" y1="168" y2="236"/>
</g>
<g>
<line marker-start="url(#open_circle)" x1="164" x2="160" y1="248" y2="248"/>
<line marker-end="url(#triangle)" marker-start="url(#open_circle)" x1="164" x2="164" y1="248" y2="316"/>
<line marker-end="url(#triangle)" marker-start="url(#open_circle)" x1="164" x2="196" y1="248" y2="248"/>
<line marker-end="url(#triangle)" marker-start="url(#open_circle)" x1="164" x2="198" y1="248" y2="316"/>
</g>
<g>
<line marker-start="url(#open_circle)" x1="164" x2="160" y1="328" y2="328"/>
<line marker-end="url(#triangle)" marker-start="url(#open_circle)" x1="164" x2="196" y1="328" y2="328"/>
</g>
<g>
<line marker-start="url(#open_circle)" x1="204" x2="200" y1="8" y2="8"/>
<line marker-end="url(#triangle)" marker-start="url(#open_circle)" x1="204" x2="204" y1="8" y2="76"/>
</g>
<g>
<line marker-start="url(#open_circle)" x1="204" x2="200" y1="88" y2="88"/>
<line marker-end="url(#triangle)" marker-start="url(#open_circle)" x1="204" x2="204" y1="88" y2="156"/>
</g>
<g>
<line marker-start="url(#open_circle)" x1="204" x2="200" y1="168" y2="168"/>
<line marker-end="url(#triangle)" marker-start="url(#open_circle)" x1="204" x2="204" y1="168" y2="236"/>
</g>
<g>
<line marker-start="url(#open_circle)" x1="204" x2="200" y1="248" y2="248"/>
<line marker-end="url(#triangle)" marker-start="url(#open_circle)" x1="204" x2="204" y1="248" y2="316"/>
</g>
<g>
<line marker-start="url(#open_circle)" x1="204" x2="200" y1="328" y2="328"/>
</g>
<g>
<line marker-end="url(#triangle)" marker-start="url(#open_circle)" x1="436" x2="436" y1="8" y2="76"/>
<line marker-end="url(#triangle)" marker-start="url(#open_circle)" x1="436" x2="468" y1="8" y2="8"/>
<line marker-end="url(#triangle)" marker-start="url(#open_circle)" x1="436" x2="470" y1="8" y2="76"/>
</g>
<g>
<line marker-end="url(#triangle)" marker-start="url(#open_circle)" x1="436" x2="436" y1="88" y2="156"/>
<line marker-end="url(#triangle)" marker-start="url(#open_circle)" x1="436" x2="468" y1="88" y2="88"/>
<line marker-end="url(#triangle)" marker-start="url(#open_circle)" x1="436" x2="470" y1="88" y2="156"/>
</g>
<g>
<line marker-end="url(#triangle)" marker-start="url(#open_circle)" x1="436" x2="468" y1="168" y2="168"/>
</g>
<g>
<line marker-start="url(#open_circle)" x1="476" x2="472" y1="8" y2="8"/>
<line marker-end="url(#triangle)" marker-start="url(#open_circle)" x1="476" x2="476" y1="8" y2="76"/>
<line marker-end="url(#triangle)" marker-start="url(#open_circle)" x1="476" x2="508" y1="8" y2="8"/>
<line marker-end="url(#triangle)" marker-start="url(#open_circle)" x1="476" x2="510" y1="8" y2="76"/>
</g>
<g>
<line marker-start="url(#open_circle)" x1="476" x2="472" y1="88" y2="88"/>
<line marker-end="url(#triangle)" marker-start="url(#open_circle)" x1="476" x2="476" y1="88" y2="156"/>
<line marker-end="url(#triangle)" marker-start="url(#open_circle)" x1="476" x2="508" y1="88" y2="88"/>
<line marker-end="url(#triangle)" marker-start="url(#open_circle)" x1="476" x2="510" y1="88" y2="156"/>
</g>
<g>
<line marker-start="url(#open_circle)" x1="476" x2="472" y1="168" y2="168"/>
<line marker-end="url(#triangle)" marker-start="url(#open_circle)" x1="476" x2="508" y1="168" y2="168"/>
</g>
<g>
<line marker-start="url(#open_circle)" x1="516" x2="512" y1="8" y2="8"/>
<line marker-end="url(#triangle)" marker-start="url(#open_circle)" x1="516" x2="516" y1="8" y2="76"/>
</g>
<g>
<line marker-start="url(#open_circle)" x1="516" x2="512" y1="88" y2="88"/>
<line marker-end="url(#triangle)" marker-start="url(#open_circle)" x1="516" x2="516" y1="88" y2="156"/>
</g>
<g>
<line marker-start="url(#big_open_circle)" x1="516" x2="512" y1="168" y2="168"/>
</g>
<g>
<line marker-end="url(#triangle)" marker-start="url(#big_open_circle)" x1="556" x2="556" y1="248" y2="316"/>
<line marker-end="url(#triangle)" marker-start="url(#big_open_circle)" x1="556" x2="588" y1="248" y2="248"/>
<line marker-end="url(#triangle)" marker-start="url(#big_open_circle)" x1="556" x2="590" y1="248" y2="316"/>
</g>
<g>
<line marker-end="url(#triangle)" marker-start="url(#open_circle)" x1="556" x2="588" y1="328" y2="328"/>
</g>
<g>
<line marker-start="url(#open_circle)" x1="596" x2="592" y1="248" y2="248"/>
<line marker-end="url(#triangle)" marker-start="url(#open_circle)" x1="596" x2="596" y1="248" y2="316"/>
<line marker-end="url(#triangle)" marker-start="url(#open_circle)" x1="596" x2="628" y1="248" y2="248"/>
<line marker-end="url(#triangle)" marker-start="url(#open_circle)" x1="596" x2="630" y1="248" y2="316"/>
</g>
<g>
<line marker-start="url(#open_circle)" x1="596" x2="592" y1="328" y2="328"/>
<line marker-end="url(#triangle)" marker-start="url(#open_circle)" x1="596" x2="628" y1="328" y2="328"/>
</g>
<g>
<line marker-start="url(#open_circle)" x1="636" x2="632" y1="248" y2="248"/>
<line marker-end="url(#triangle)" marker-start="url(#open_circle)" x1="636" x2="636" y1="248" y2="316"/>
</g>
<g>
<line marker-start="url(#open_circle)" x1="636" x2="632" y1="328" y2="328"/>
</g>
</svg>
