<?xml version="1.0" encoding="UTF-8" standalone="no"?>
<!DOCTYPE svg PUBLIC "-//W3C//DTD SVG 1.1//EN"
 "http://www.w3.org/Graphics/SVG/1.1/DTD/svg11.dtd">
<!-- Generated by graphviz version 2.40.1 (0)
 -->
<!-- Title: G Pages: 1 -->
<svg width="1953pt" height="609pt"
 viewBox="0.00 0.00 1952.71 608.63" xmlns="http://www.w3.org/2000/svg" xmlns:xlink="http://www.w3.org/1999/xlink">
<g id="graph0" class="graph" transform="scale(1 1) rotate(0) translate(4 604.6289)">
<title>G</title>
<polygon fill="#ffffff" stroke="transparent" points="-4,4 -4,-604.6289 1948.708,-604.6289 1948.708,4 -4,4"/>
<!-- STATE_A -->
<g id="node1" class="node">
<title>STATE_A</title>
<polygon fill="none" stroke="#000000" points="342.4168,-304.6782 344.1928,-304.7768 345.9505,-304.9242 347.6827,-305.1202 349.3823,-305.3642 351.0425,-305.6555 352.6568,-305.9934 354.2188,-306.3768 355.7228,-306.8048 357.163,-307.2761 358.5343,-307.7895 359.8319,-308.3436 361.0514,-308.9369 362.1891,-309.5677 363.2416,-310.2343 364.2059,-310.9348 365.0797,-311.6674 365.8611,-312.4301 366.5488,-313.2207 367.1418,-314.0371 367.6397,-314.877 368.0428,-315.7382 368.3514,-316.6183 368.5667,-317.5149 368.69,-318.4254 368.7232,-319.3475 368.6684,-320.2786 368.5282,-321.2161 368.3053,-322.1575 368.0029,-323.1002 367.6242,-324.0416 367.1728,-324.9792 366.6524,-325.9102 366.0666,-326.8323 365.4195,-327.7429 364.7149,-328.6395 363.9568,-329.5195 363.149,-330.3807 362.2955,-331.2207 361.4001,-332.0371 360.4665,-332.8277 359.4982,-333.5903 358.4986,-334.323 357.4711,-335.0235 356.4186,-335.6901 355.3441,-336.3209 354.2503,-336.9141 353.1396,-337.4682 352.0143,-337.9817 350.8765,-338.453 349.7281,-338.881 348.5708,-339.2644 347.406,-339.6022 346.2351,-339.8936 345.0593,-340.1375 343.8797,-340.3335 342.6972,-340.481 341.5128,-340.5795 340.3272,-340.6289 339.1412,-340.6289 337.9556,-340.5795 336.7712,-340.481 335.5887,-340.3335 334.4091,-340.1375 333.2334,-339.8936 332.0625,-339.6022 330.8977,-339.2644 329.7403,-338.881 328.5919,-338.453 327.4541,-337.9817 326.3288,-337.4682 325.2182,-336.9141 324.1243,-336.3209 323.0498,-335.6901 321.9974,-335.0235 320.9698,-334.323 319.9703,-333.5903 319.002,-332.8277 318.0683,-332.0371 317.1729,-331.2207 316.3194,-330.3807 315.5117,-329.5195 314.7535,-328.6395 314.0489,-327.7429 313.4018,-326.8323 312.8161,-325.9102 312.2956,-324.9792 311.8442,-324.0416 311.4656,-323.1002 311.1631,-322.1575 310.9403,-321.2161 310.8,-320.2786 310.7453,-319.3475 310.7784,-318.4254 310.9018,-317.5149 311.117,-316.6183 311.4257,-315.7382 311.8287,-314.877 312.3267,-314.0371 312.9197,-313.2207 313.6073,-312.4301 314.3887,-311.6674 315.2625,-310.9348 316.2268,-310.2343 317.2793,-309.5677 318.417,-308.9369 319.6366,-308.3436 320.9342,-307.7895 322.3055,-307.2761 323.7457,-306.8048 325.2496,-306.3768 326.8117,-305.9934 328.426,-305.6555 330.0862,-305.3642 331.7858,-305.1202 333.5179,-304.9242 335.2756,-304.7768 337.0517,-304.6782 338.8388,-304.6289 340.6296,-304.6289 342.4168,-304.6782"/>
<text text-anchor="middle" x="339.7342" y="-320.1289" font-family="Courier,monospace" font-weight="bold" font-size="10.00" fill="#000000">A</text>
</g>
<!-- STATE_B -->
<g id="node2" class="node">
<title>STATE_B</title>
<polygon fill="none" stroke="#000000" points="633.1602,-129.6782 634.9363,-129.7768 636.694,-129.9242 638.4261,-130.1202 640.1257,-130.3642 641.7859,-130.6555 643.4002,-130.9934 644.9623,-131.3768 646.4662,-131.8048 647.9064,-132.2761 649.2777,-132.7895 650.5753,-133.3436 651.7949,-133.9369 652.9326,-134.5677 653.9851,-135.2343 654.9494,-135.9348 655.8232,-136.6674 656.6046,-137.4301 657.2922,-138.2207 657.8852,-139.0371 658.3832,-139.877 658.7862,-140.7382 659.0949,-141.6183 659.3101,-142.5149 659.4334,-143.4254 659.4666,-144.3475 659.4118,-145.2786 659.2716,-146.2161 659.0487,-147.1575 658.7463,-148.1002 658.3677,-149.0416 657.9163,-149.9792 657.3958,-150.9102 656.8101,-151.8323 656.1629,-152.7429 655.4583,-153.6395 654.7002,-154.5195 653.8925,-155.3807 653.039,-156.2207 652.1436,-157.0371 651.2099,-157.8277 650.2416,-158.5903 649.242,-159.323 648.2145,-160.0235 647.162,-160.6901 646.0876,-161.3209 644.9937,-161.9141 643.883,-162.4682 642.7578,-162.9817 641.62,-163.453 640.4716,-163.881 639.3142,-164.2644 638.1494,-164.6022 636.9785,-164.8936 635.8027,-165.1375 634.6231,-165.3335 633.4407,-165.481 632.2562,-165.5795 631.0707,-165.6289 629.8847,-165.6289 628.6991,-165.5795 627.5146,-165.481 626.3322,-165.3335 625.1526,-165.1375 623.9768,-164.8936 622.8059,-164.6022 621.6411,-164.2644 620.4838,-163.881 619.3353,-163.453 618.1976,-162.9817 617.0723,-162.4682 615.9616,-161.9141 614.8678,-161.3209 613.7933,-160.6901 612.7408,-160.0235 611.7133,-159.323 610.7137,-158.5903 609.7454,-157.8277 608.8118,-157.0371 607.9164,-156.2207 607.0629,-155.3807 606.2551,-154.5195 605.497,-153.6395 604.7924,-152.7429 604.1452,-151.8323 603.5595,-150.9102 603.0391,-149.9792 602.5877,-149.0416 602.209,-148.1002 601.9066,-147.1575 601.6837,-146.2161 601.5435,-145.2786 601.4887,-144.3475 601.5219,-143.4254 601.6452,-142.5149 601.8605,-141.6183 602.1691,-140.7382 602.5722,-139.877 603.0701,-139.0371 603.6631,-138.2207 604.3507,-137.4301 605.1321,-136.6674 606.006,-135.9348 606.9703,-135.2343 608.0227,-134.5677 609.1604,-133.9369 610.38,-133.3436 611.6776,-132.7895 613.0489,-132.2761 614.4891,-131.8048 615.993,-131.3768 617.5551,-130.9934 619.1694,-130.6555 620.8296,-130.3642 622.5292,-130.1202 624.2614,-129.9242 626.0191,-129.7768 627.7951,-129.6782 629.5823,-129.6289 631.3731,-129.6289 633.1602,-129.6782"/>
<text text-anchor="middle" x="630.4777" y="-145.1289" font-family="Courier,monospace" font-weight="bold" font-size="10.00" fill="#000000">B</text>
</g>
<!-- STATE_A&#45;&gt;STATE_B -->
<g id="edge1" class="edge">
<title>STATE_A&#45;&gt;STATE_B</title>
<path fill="none" stroke="#000000" d="M347.1007,-304.7754C359.2873,-277.5281 386.2807,-225.8685 425.7342,-198.6289 476.1406,-163.8272 548.0499,-152.7302 591.8665,-149.2189"/>
<polygon fill="#000000" stroke="#000000" points="592.3755,-152.6918 602.1041,-148.4961 591.8824,-145.7092 592.3755,-152.6918"/>
<text text-anchor="middle" x="504.7342" y="-201.6289" font-family="Courier,monospace" font-weight="bold" font-size="10.00" fill="#000000">9.997000899730082e&#45;05</text>
</g>
<!-- STATE_E -->
<g id="node5" class="node">
<title>STATE_E</title>
<polygon fill="none" stroke="#000000" points="1616.9036,-315.6782 1618.6797,-315.7768 1620.4374,-315.9242 1622.1696,-316.1202 1623.8691,-316.3642 1625.5294,-316.6555 1627.1436,-316.9934 1628.7057,-317.3768 1630.2097,-317.8048 1631.6499,-318.2761 1633.0211,-318.7895 1634.3187,-319.3436 1635.5383,-319.9369 1636.676,-320.5677 1637.7285,-321.2343 1638.6928,-321.9348 1639.5666,-322.6674 1640.348,-323.4301 1641.0357,-324.2207 1641.6287,-325.0371 1642.1266,-325.877 1642.5296,-326.7382 1642.8383,-327.6183 1643.0536,-328.5149 1643.1769,-329.4254 1643.2101,-330.3475 1643.1553,-331.2786 1643.0151,-332.2161 1642.7922,-333.1575 1642.4898,-334.1002 1642.1111,-335.0416 1641.6597,-335.9792 1641.1393,-336.9102 1640.5535,-337.8323 1639.9064,-338.7429 1639.2018,-339.6395 1638.4436,-340.5195 1637.6359,-341.3807 1636.7824,-342.2207 1635.887,-343.0371 1634.9534,-343.8277 1633.985,-344.5903 1632.9855,-345.323 1631.9579,-346.0235 1630.9055,-346.6901 1629.831,-347.3209 1628.7372,-347.9141 1627.6265,-348.4682 1626.5012,-348.9817 1625.3634,-349.453 1624.215,-349.881 1623.0577,-350.2644 1621.8929,-350.6022 1620.722,-350.8936 1619.5462,-351.1375 1618.3666,-351.3335 1617.1841,-351.481 1615.9997,-351.5795 1614.8141,-351.6289 1613.6281,-351.6289 1612.4425,-351.5795 1611.2581,-351.481 1610.0756,-351.3335 1608.896,-351.1375 1607.7203,-350.8936 1606.5494,-350.6022 1605.3846,-350.2644 1604.2272,-349.881 1603.0788,-349.453 1601.941,-348.9817 1600.8157,-348.4682 1599.705,-347.9141 1598.6112,-347.3209 1597.5367,-346.6901 1596.4843,-346.0235 1595.4567,-345.323 1594.4572,-344.5903 1593.4889,-343.8277 1592.5552,-343.0371 1591.6598,-342.2207 1590.8063,-341.3807 1589.9986,-340.5195 1589.2404,-339.6395 1588.5358,-338.7429 1587.8887,-337.8323 1587.303,-336.9102 1586.7825,-335.9792 1586.3311,-335.0416 1585.9524,-334.1002 1585.65,-333.1575 1585.4272,-332.2161 1585.2869,-331.2786 1585.2321,-330.3475 1585.2653,-329.4254 1585.3886,-328.5149 1585.6039,-327.6183 1585.9126,-326.7382 1586.3156,-325.877 1586.8136,-325.0371 1587.4066,-324.2207 1588.0942,-323.4301 1588.8756,-322.6674 1589.7494,-321.9348 1590.7137,-321.2343 1591.7662,-320.5677 1592.9039,-319.9369 1594.1235,-319.3436 1595.4211,-318.7895 1596.7923,-318.2761 1598.2326,-317.8048 1599.7365,-317.3768 1601.2986,-316.9934 1602.9129,-316.6555 1604.5731,-316.3642 1606.2727,-316.1202 1608.0048,-315.9242 1609.7625,-315.7768 1611.5386,-315.6782 1613.3257,-315.6289 1615.1165,-315.6289 1616.9036,-315.6782"/>
<text text-anchor="middle" x="1614.2211" y="-331.1289" font-family="Courier,monospace" font-weight="bold" font-size="10.00" fill="#000000">E</text>
</g>
<!-- STATE_A&#45;&gt;STATE_E -->
<g id="edge2" class="edge">
<title>STATE_A&#45;&gt;STATE_E</title>
<path fill="none" stroke="#000000" d="M366.5344,-326.1722C417.7271,-332.6239 533.0072,-345.6289 630.4777,-345.6289 630.4777,-345.6289 630.4777,-345.6289 1262.2211,-345.6289 1376.6172,-345.6289 1511.8043,-339.22 1576.2988,-335.7695"/>
<polygon fill="#000000" stroke="#000000" points="1576.601,-339.2584 1586.397,-335.2224 1576.2222,-332.2686 1576.601,-339.2584"/>
<text text-anchor="middle" x="921.2211" y="-348.6289" font-family="Courier,monospace" font-weight="bold" font-size="10.00" fill="#000000">0.3333333333333333</text>
</g>
<!-- STATE_F -->
<g id="node6" class="node">
<title>STATE_F</title>
<polygon fill="none" stroke="#000000" points="1264.9036,-188.6782 1266.6797,-188.7768 1268.4374,-188.9242 1270.1696,-189.1202 1271.8691,-189.3642 1273.5294,-189.6555 1275.1436,-189.9934 1276.7057,-190.3768 1278.2097,-190.8048 1279.6499,-191.2761 1281.0211,-191.7895 1282.3187,-192.3436 1283.5383,-192.9369 1284.676,-193.5677 1285.7285,-194.2343 1286.6928,-194.9348 1287.5666,-195.6674 1288.348,-196.4301 1289.0357,-197.2207 1289.6287,-198.0371 1290.1266,-198.877 1290.5296,-199.7382 1290.8383,-200.6183 1291.0536,-201.5149 1291.1769,-202.4254 1291.2101,-203.3475 1291.1553,-204.2786 1291.0151,-205.2161 1290.7922,-206.1575 1290.4898,-207.1002 1290.1111,-208.0416 1289.6597,-208.9792 1289.1393,-209.9102 1288.5535,-210.8323 1287.9064,-211.7429 1287.2018,-212.6395 1286.4436,-213.5195 1285.6359,-214.3807 1284.7824,-215.2207 1283.887,-216.0371 1282.9534,-216.8277 1281.985,-217.5903 1280.9855,-218.323 1279.9579,-219.0235 1278.9055,-219.6901 1277.831,-220.3209 1276.7372,-220.9141 1275.6265,-221.4682 1274.5012,-221.9817 1273.3634,-222.453 1272.215,-222.881 1271.0577,-223.2644 1269.8929,-223.6022 1268.722,-223.8936 1267.5462,-224.1375 1266.3666,-224.3335 1265.1841,-224.481 1263.9997,-224.5795 1262.8141,-224.6289 1261.6281,-224.6289 1260.4425,-224.5795 1259.2581,-224.481 1258.0756,-224.3335 1256.896,-224.1375 1255.7203,-223.8936 1254.5494,-223.6022 1253.3846,-223.2644 1252.2272,-222.881 1251.0788,-222.453 1249.941,-221.9817 1248.8157,-221.4682 1247.705,-220.9141 1246.6112,-220.3209 1245.5367,-219.6901 1244.4843,-219.0235 1243.4567,-218.323 1242.4572,-217.5903 1241.4889,-216.8277 1240.5552,-216.0371 1239.6598,-215.2207 1238.8063,-214.3807 1237.9986,-213.5195 1237.2404,-212.6395 1236.5358,-211.7429 1235.8887,-210.8323 1235.303,-209.9102 1234.7825,-208.9792 1234.3311,-208.0416 1233.9524,-207.1002 1233.65,-206.1575 1233.4272,-205.2161 1233.2869,-204.2786 1233.2321,-203.3475 1233.2653,-202.4254 1233.3886,-201.5149 1233.6039,-200.6183 1233.9126,-199.7382 1234.3156,-198.877 1234.8136,-198.0371 1235.4066,-197.2207 1236.0942,-196.4301 1236.8756,-195.6674 1237.7494,-194.9348 1238.7137,-194.2343 1239.7662,-193.5677 1240.9039,-192.9369 1242.1235,-192.3436 1243.4211,-191.7895 1244.7923,-191.2761 1246.2326,-190.8048 1247.7365,-190.3768 1249.2986,-189.9934 1250.9129,-189.6555 1252.5731,-189.3642 1254.2727,-189.1202 1256.0048,-188.9242 1257.7625,-188.7768 1259.5386,-188.6782 1261.3257,-188.6289 1263.1165,-188.6289 1264.9036,-188.6782"/>
<text text-anchor="middle" x="1262.2211" y="-204.1289" font-family="Courier,monospace" font-weight="bold" font-size="10.00" fill="#000000">F</text>
</g>
<!-- STATE_A&#45;&gt;STATE_F -->
<g id="edge3" class="edge">
<title>STATE_A&#45;&gt;STATE_F</title>
<path fill="none" stroke="#000000" d="M364.1525,-310.844C381.1417,-302.9637 404.4711,-292.7699 425.7342,-285.6289 534.8629,-248.9792 563.1531,-239.1452 677.2211,-223.6289 892.2193,-194.3833 948.3393,-216.0937 1165.2211,-209.6289 1184.5078,-209.054 1205.9509,-208.3931 1223.7612,-207.8382"/>
<polygon fill="#000000" stroke="#000000" points="1223.8982,-211.3357 1233.7841,-207.5251 1223.6796,-204.3391 1223.8982,-211.3357"/>
<text text-anchor="middle" x="756.2211" y="-226.6289" font-family="Courier,monospace" font-weight="bold" font-size="10.00" fill="#000000">0.6665666966576693</text>
</g>
<!-- SYMBOL_x -->
<g id="node8" class="node">
<title>SYMBOL_x</title>
<polygon fill="none" stroke="#000000" stroke-dasharray="5,2" points="1918.6471,-486.6782 1920.4231,-486.7768 1922.1808,-486.9242 1923.913,-487.1202 1925.6126,-487.3642 1927.2728,-487.6555 1928.8871,-487.9934 1930.4492,-488.3768 1931.9531,-488.8048 1933.3933,-489.2761 1934.7646,-489.7895 1936.0622,-490.3436 1937.2818,-490.9369 1938.4195,-491.5677 1939.4719,-492.2343 1940.4363,-492.9348 1941.3101,-493.6674 1942.0915,-494.4301 1942.7791,-495.2207 1943.3721,-496.0371 1943.8701,-496.877 1944.2731,-497.7382 1944.5817,-498.6183 1944.797,-499.5149 1944.9203,-500.4254 1944.9535,-501.3475 1944.8987,-502.2786 1944.7585,-503.2161 1944.5356,-504.1575 1944.2332,-505.1002 1943.8545,-506.0416 1943.4032,-506.9792 1942.8827,-507.9102 1942.297,-508.8323 1941.6498,-509.7429 1940.9452,-510.6395 1940.1871,-511.5195 1939.3793,-512.3807 1938.5259,-513.2207 1937.6305,-514.0371 1936.6968,-514.8277 1935.7285,-515.5903 1934.7289,-516.323 1933.7014,-517.0235 1932.6489,-517.6901 1931.5744,-518.3209 1930.4806,-518.9141 1929.3699,-519.4682 1928.2447,-519.9817 1927.1069,-520.453 1925.9585,-520.881 1924.8011,-521.2644 1923.6363,-521.6022 1922.4654,-521.8936 1921.2896,-522.1375 1920.11,-522.3335 1918.9276,-522.481 1917.7431,-522.5795 1916.5575,-522.6289 1915.3716,-522.6289 1914.186,-522.5795 1913.0015,-522.481 1911.8191,-522.3335 1910.6395,-522.1375 1909.4637,-521.8936 1908.2928,-521.6022 1907.128,-521.2644 1905.9706,-520.881 1904.8222,-520.453 1903.6844,-519.9817 1902.5592,-519.4682 1901.4485,-518.9141 1900.3547,-518.3209 1899.2802,-517.6901 1898.2277,-517.0235 1897.2002,-516.323 1896.2006,-515.5903 1895.2323,-514.8277 1894.2986,-514.0371 1893.4032,-513.2207 1892.5498,-512.3807 1891.742,-511.5195 1890.9839,-510.6395 1890.2793,-509.7429 1889.6321,-508.8323 1889.0464,-507.9102 1888.5259,-506.9792 1888.0746,-506.0416 1887.6959,-505.1002 1887.3935,-504.1575 1887.1706,-503.2161 1887.0304,-502.2786 1886.9756,-501.3475 1887.0088,-500.4254 1887.1321,-499.5149 1887.3474,-498.6183 1887.656,-497.7382 1888.059,-496.877 1888.557,-496.0371 1889.15,-495.2207 1889.8376,-494.4301 1890.619,-493.6674 1891.4928,-492.9348 1892.4572,-492.2343 1893.5096,-491.5677 1894.6473,-490.9369 1895.8669,-490.3436 1897.1645,-489.7895 1898.5358,-489.2761 1899.976,-488.8048 1901.4799,-488.3768 1903.042,-487.9934 1904.6563,-487.6555 1906.3165,-487.3642 1908.0161,-487.1202 1909.7483,-486.9242 1911.506,-486.7768 1913.282,-486.6782 1915.0691,-486.6289 1916.86,-486.6289 1918.6471,-486.6782"/>
<text text-anchor="middle" x="1915.9645" y="-502.1289" font-family="Courier,monospace" font-weight="bold" font-size="10.00" fill="#000000">x</text>
</g>
<!-- STATE_A&#45;&gt;SYMBOL_x -->
<g id="edge14" class="edge">
<title>STATE_A&#45;&gt;SYMBOL_x</title>
<path fill="none" stroke="#000000" stroke-dasharray="5,2" d="M344.4803,-340.3514C354.0438,-372.3853 378.8311,-439.6537 425.7342,-472.6289 486.7041,-515.4937 1011.6911,-589.6289 1086.2211,-589.6289 1086.2211,-589.6289 1086.2211,-589.6289 1614.2211,-589.6289 1730.3513,-589.6289 1761.3667,-575.6829 1869.2211,-532.6289 1875.9503,-529.9427 1882.8372,-526.3574 1889.185,-522.6515"/>
<polygon fill="#000000" stroke="#000000" points="1891.329,-525.4422 1898.0184,-517.2262 1887.6655,-519.4773 1891.329,-525.4422"/>
<text text-anchor="middle" x="1086.2211" y="-592.6289" font-family="Courier,monospace" font-weight="bold" font-size="10.00" fill="#000000">0.49995001499550135</text>
</g>
<!-- SYMBOL_z -->
<g id="node9" class="node">
<title>SYMBOL_z</title>
<polygon fill="none" stroke="#000000" stroke-dasharray="5,2" points="1918.6471,-272.6782 1920.4231,-272.7768 1922.1808,-272.9242 1923.913,-273.1202 1925.6126,-273.3642 1927.2728,-273.6555 1928.8871,-273.9934 1930.4492,-274.3768 1931.9531,-274.8048 1933.3933,-275.2761 1934.7646,-275.7895 1936.0622,-276.3436 1937.2818,-276.9369 1938.4195,-277.5677 1939.4719,-278.2343 1940.4363,-278.9348 1941.3101,-279.6674 1942.0915,-280.4301 1942.7791,-281.2207 1943.3721,-282.0371 1943.8701,-282.877 1944.2731,-283.7382 1944.5817,-284.6183 1944.797,-285.5149 1944.9203,-286.4254 1944.9535,-287.3475 1944.8987,-288.2786 1944.7585,-289.2161 1944.5356,-290.1575 1944.2332,-291.1002 1943.8545,-292.0416 1943.4032,-292.9792 1942.8827,-293.9102 1942.297,-294.8323 1941.6498,-295.7429 1940.9452,-296.6395 1940.1871,-297.5195 1939.3793,-298.3807 1938.5259,-299.2207 1937.6305,-300.0371 1936.6968,-300.8277 1935.7285,-301.5903 1934.7289,-302.323 1933.7014,-303.0235 1932.6489,-303.6901 1931.5744,-304.3209 1930.4806,-304.9141 1929.3699,-305.4682 1928.2447,-305.9817 1927.1069,-306.453 1925.9585,-306.881 1924.8011,-307.2644 1923.6363,-307.6022 1922.4654,-307.8936 1921.2896,-308.1375 1920.11,-308.3335 1918.9276,-308.481 1917.7431,-308.5795 1916.5575,-308.6289 1915.3716,-308.6289 1914.186,-308.5795 1913.0015,-308.481 1911.8191,-308.3335 1910.6395,-308.1375 1909.4637,-307.8936 1908.2928,-307.6022 1907.128,-307.2644 1905.9706,-306.881 1904.8222,-306.453 1903.6844,-305.9817 1902.5592,-305.4682 1901.4485,-304.9141 1900.3547,-304.3209 1899.2802,-303.6901 1898.2277,-303.0235 1897.2002,-302.323 1896.2006,-301.5903 1895.2323,-300.8277 1894.2986,-300.0371 1893.4032,-299.2207 1892.5498,-298.3807 1891.742,-297.5195 1890.9839,-296.6395 1890.2793,-295.7429 1889.6321,-294.8323 1889.0464,-293.9102 1888.5259,-292.9792 1888.0746,-292.0416 1887.6959,-291.1002 1887.3935,-290.1575 1887.1706,-289.2161 1887.0304,-288.2786 1886.9756,-287.3475 1887.0088,-286.4254 1887.1321,-285.5149 1887.3474,-284.6183 1887.656,-283.7382 1888.059,-282.877 1888.557,-282.0371 1889.15,-281.2207 1889.8376,-280.4301 1890.619,-279.6674 1891.4928,-278.9348 1892.4572,-278.2343 1893.5096,-277.5677 1894.6473,-276.9369 1895.8669,-276.3436 1897.1645,-275.7895 1898.5358,-275.2761 1899.976,-274.8048 1901.4799,-274.3768 1903.042,-273.9934 1904.6563,-273.6555 1906.3165,-273.3642 1908.0161,-273.1202 1909.7483,-272.9242 1911.506,-272.7768 1913.282,-272.6782 1915.0691,-272.6289 1916.86,-272.6289 1918.6471,-272.6782"/>
<text text-anchor="middle" x="1915.9645" y="-288.1289" font-family="Courier,monospace" font-weight="bold" font-size="10.00" fill="#000000">z</text>
</g>
<!-- STATE_A&#45;&gt;SYMBOL_z -->
<g id="edge15" class="edge">
<title>STATE_A&#45;&gt;SYMBOL_z</title>
<path fill="none" stroke="#000000" stroke-dasharray="5,2" d="M368.5197,-321.9696C489.254,-319.2123 966.7217,-308.3888 1359.2211,-300.6289 1553.9983,-296.778 1787.119,-292.7932 1877.5182,-291.2716"/>
<polygon fill="#000000" stroke="#000000" points="1877.6338,-294.7702 1887.5735,-291.1026 1877.5161,-287.7712 1877.6338,-294.7702"/>
<text text-anchor="middle" x="1086.2211" y="-310.6289" font-family="Courier,monospace" font-weight="bold" font-size="10.00" fill="#000000">0.49995001499550135</text>
</g>
<!-- SYMBOL_y -->
<g id="node10" class="node">
<title>SYMBOL_y</title>
<polygon fill="none" stroke="#000000" stroke-dasharray="5,2" points="1918.6471,-100.6782 1920.4231,-100.7768 1922.1808,-100.9242 1923.913,-101.1202 1925.6126,-101.3642 1927.2728,-101.6555 1928.8871,-101.9934 1930.4492,-102.3768 1931.9531,-102.8048 1933.3933,-103.2761 1934.7646,-103.7895 1936.0622,-104.3436 1937.2818,-104.9369 1938.4195,-105.5677 1939.4719,-106.2343 1940.4363,-106.9348 1941.3101,-107.6674 1942.0915,-108.4301 1942.7791,-109.2207 1943.3721,-110.0371 1943.8701,-110.877 1944.2731,-111.7382 1944.5817,-112.6183 1944.797,-113.5149 1944.9203,-114.4254 1944.9535,-115.3475 1944.8987,-116.2786 1944.7585,-117.2161 1944.5356,-118.1575 1944.2332,-119.1002 1943.8545,-120.0416 1943.4032,-120.9792 1942.8827,-121.9102 1942.297,-122.8323 1941.6498,-123.7429 1940.9452,-124.6395 1940.1871,-125.5195 1939.3793,-126.3807 1938.5259,-127.2207 1937.6305,-128.0371 1936.6968,-128.8277 1935.7285,-129.5903 1934.7289,-130.323 1933.7014,-131.0235 1932.6489,-131.6901 1931.5744,-132.3209 1930.4806,-132.9141 1929.3699,-133.4682 1928.2447,-133.9817 1927.1069,-134.453 1925.9585,-134.881 1924.8011,-135.2644 1923.6363,-135.6022 1922.4654,-135.8936 1921.2896,-136.1375 1920.11,-136.3335 1918.9276,-136.481 1917.7431,-136.5795 1916.5575,-136.6289 1915.3716,-136.6289 1914.186,-136.5795 1913.0015,-136.481 1911.8191,-136.3335 1910.6395,-136.1375 1909.4637,-135.8936 1908.2928,-135.6022 1907.128,-135.2644 1905.9706,-134.881 1904.8222,-134.453 1903.6844,-133.9817 1902.5592,-133.4682 1901.4485,-132.9141 1900.3547,-132.3209 1899.2802,-131.6901 1898.2277,-131.0235 1897.2002,-130.323 1896.2006,-129.5903 1895.2323,-128.8277 1894.2986,-128.0371 1893.4032,-127.2207 1892.5498,-126.3807 1891.742,-125.5195 1890.9839,-124.6395 1890.2793,-123.7429 1889.6321,-122.8323 1889.0464,-121.9102 1888.5259,-120.9792 1888.0746,-120.0416 1887.6959,-119.1002 1887.3935,-118.1575 1887.1706,-117.2161 1887.0304,-116.2786 1886.9756,-115.3475 1887.0088,-114.4254 1887.1321,-113.5149 1887.3474,-112.6183 1887.656,-111.7382 1888.059,-110.877 1888.557,-110.0371 1889.15,-109.2207 1889.8376,-108.4301 1890.619,-107.6674 1891.4928,-106.9348 1892.4572,-106.2343 1893.5096,-105.5677 1894.6473,-104.9369 1895.8669,-104.3436 1897.1645,-103.7895 1898.5358,-103.2761 1899.976,-102.8048 1901.4799,-102.3768 1903.042,-101.9934 1904.6563,-101.6555 1906.3165,-101.3642 1908.0161,-101.1202 1909.7483,-100.9242 1911.506,-100.7768 1913.282,-100.6782 1915.0691,-100.6289 1916.86,-100.6289 1918.6471,-100.6782"/>
<text text-anchor="middle" x="1915.9645" y="-116.1289" font-family="Courier,monospace" font-weight="bold" font-size="10.00" fill="#000000">y</text>
</g>
<!-- STATE_A&#45;&gt;SYMBOL_y -->
<g id="edge16" class="edge">
<title>STATE_A&#45;&gt;SYMBOL_y</title>
<path fill="none" stroke="#000000" stroke-dasharray="5,2" d="M352.1425,-305.5957C367.147,-284.313 392.3037,-246.336 407.7342,-210.6289 419.6253,-183.1122 408.5037,-170.158 425.7342,-145.6289 489.8287,-54.3849 518.9718,-.6289 630.4777,-.6289 630.4777,-.6289 630.4777,-.6289 1614.2211,-.6289 1729.9765,-.6289 1772.1517,9.4332 1869.2211,-53.6289 1883.6162,-62.9808 1895.0009,-78.4371 1902.9296,-91.9315"/>
<polygon fill="#000000" stroke="#000000" points="1899.9628,-93.7994 1907.8611,-100.8612 1906.0905,-90.4153 1899.9628,-93.7994"/>
<text text-anchor="middle" x="1086.2211" y="-3.6289" font-family="Courier,monospace" font-weight="bold" font-size="10.00" fill="#000000">9.997000899730082e&#45;05</text>
</g>
<!-- STATE_C -->
<g id="node3" class="node">
<title>STATE_C</title>
<polygon fill="none" stroke="#000000" points="923.9036,-159.6782 925.6797,-159.7768 927.4374,-159.9242 929.1696,-160.1202 930.8691,-160.3642 932.5294,-160.6555 934.1436,-160.9934 935.7057,-161.3768 937.2097,-161.8048 938.6499,-162.2761 940.0211,-162.7895 941.3187,-163.3436 942.5383,-163.9369 943.676,-164.5677 944.7285,-165.2343 945.6928,-165.9348 946.5666,-166.6674 947.348,-167.4301 948.0357,-168.2207 948.6287,-169.0371 949.1266,-169.877 949.5296,-170.7382 949.8383,-171.6183 950.0536,-172.5149 950.1769,-173.4254 950.2101,-174.3475 950.1553,-175.2786 950.0151,-176.2161 949.7922,-177.1575 949.4898,-178.1002 949.1111,-179.0416 948.6597,-179.9792 948.1393,-180.9102 947.5535,-181.8323 946.9064,-182.7429 946.2018,-183.6395 945.4436,-184.5195 944.6359,-185.3807 943.7824,-186.2207 942.887,-187.0371 941.9534,-187.8277 940.985,-188.5903 939.9855,-189.323 938.9579,-190.0235 937.9055,-190.6901 936.831,-191.3209 935.7372,-191.9141 934.6265,-192.4682 933.5012,-192.9817 932.3634,-193.453 931.215,-193.881 930.0577,-194.2644 928.8929,-194.6022 927.722,-194.8936 926.5462,-195.1375 925.3666,-195.3335 924.1841,-195.481 922.9997,-195.5795 921.8141,-195.6289 920.6281,-195.6289 919.4425,-195.5795 918.2581,-195.481 917.0756,-195.3335 915.896,-195.1375 914.7203,-194.8936 913.5494,-194.6022 912.3846,-194.2644 911.2272,-193.881 910.0788,-193.453 908.941,-192.9817 907.8157,-192.4682 906.705,-191.9141 905.6112,-191.3209 904.5367,-190.6901 903.4843,-190.0235 902.4567,-189.323 901.4572,-188.5903 900.4889,-187.8277 899.5552,-187.0371 898.6598,-186.2207 897.8063,-185.3807 896.9986,-184.5195 896.2404,-183.6395 895.5358,-182.7429 894.8887,-181.8323 894.303,-180.9102 893.7825,-179.9792 893.3311,-179.0416 892.9524,-178.1002 892.65,-177.1575 892.4272,-176.2161 892.2869,-175.2786 892.2321,-174.3475 892.2653,-173.4254 892.3886,-172.5149 892.6039,-171.6183 892.9126,-170.7382 893.3156,-169.877 893.8136,-169.0371 894.4066,-168.2207 895.0942,-167.4301 895.8756,-166.6674 896.7494,-165.9348 897.7137,-165.2343 898.7662,-164.5677 899.9039,-163.9369 901.1235,-163.3436 902.4211,-162.7895 903.7923,-162.2761 905.2326,-161.8048 906.7365,-161.3768 908.2986,-160.9934 909.9129,-160.6555 911.5731,-160.3642 913.2727,-160.1202 915.0048,-159.9242 916.7625,-159.7768 918.5386,-159.6782 920.3257,-159.6289 922.1165,-159.6289 923.9036,-159.6782"/>
<text text-anchor="middle" x="921.2211" y="-175.1289" font-family="Courier,monospace" font-weight="bold" font-size="10.00" fill="#000000">C</text>
</g>
<!-- STATE_B&#45;&gt;STATE_C -->
<g id="edge4" class="edge">
<title>STATE_B&#45;&gt;STATE_C</title>
<path fill="none" stroke="#000000" d="M657.8301,-150.4512C709.7047,-155.8038 822.5242,-167.445 882.278,-173.6106"/>
<polygon fill="#000000" stroke="#000000" points="882.136,-177.1144 892.4425,-174.6594 882.8546,-170.1514 882.136,-177.1144"/>
<text text-anchor="middle" x="756.2211" y="-170.6289" font-family="Courier,monospace" font-weight="bold" font-size="10.00" fill="#000000">9.998000399920017e&#45;05</text>
</g>
<!-- STATE_D -->
<g id="node4" class="node">
<title>STATE_D</title>
<polygon fill="none" stroke="#000000" points="1088.9036,-452.6782 1090.6797,-452.7768 1092.4374,-452.9242 1094.1696,-453.1202 1095.8691,-453.3642 1097.5294,-453.6555 1099.1436,-453.9934 1100.7057,-454.3768 1102.2097,-454.8048 1103.6499,-455.2761 1105.0211,-455.7895 1106.3187,-456.3436 1107.5383,-456.9369 1108.676,-457.5677 1109.7285,-458.2343 1110.6928,-458.9348 1111.5666,-459.6674 1112.348,-460.4301 1113.0357,-461.2207 1113.6287,-462.0371 1114.1266,-462.877 1114.5296,-463.7382 1114.8383,-464.6183 1115.0536,-465.5149 1115.1769,-466.4254 1115.2101,-467.3475 1115.1553,-468.2786 1115.0151,-469.2161 1114.7922,-470.1575 1114.4898,-471.1002 1114.1111,-472.0416 1113.6597,-472.9792 1113.1393,-473.9102 1112.5535,-474.8323 1111.9064,-475.7429 1111.2018,-476.6395 1110.4436,-477.5195 1109.6359,-478.3807 1108.7824,-479.2207 1107.887,-480.0371 1106.9534,-480.8277 1105.985,-481.5903 1104.9855,-482.323 1103.9579,-483.0235 1102.9055,-483.6901 1101.831,-484.3209 1100.7372,-484.9141 1099.6265,-485.4682 1098.5012,-485.9817 1097.3634,-486.453 1096.215,-486.881 1095.0577,-487.2644 1093.8929,-487.6022 1092.722,-487.8936 1091.5462,-488.1375 1090.3666,-488.3335 1089.1841,-488.481 1087.9997,-488.5795 1086.8141,-488.6289 1085.6281,-488.6289 1084.4425,-488.5795 1083.2581,-488.481 1082.0756,-488.3335 1080.896,-488.1375 1079.7203,-487.8936 1078.5494,-487.6022 1077.3846,-487.2644 1076.2272,-486.881 1075.0788,-486.453 1073.941,-485.9817 1072.8157,-485.4682 1071.705,-484.9141 1070.6112,-484.3209 1069.5367,-483.6901 1068.4843,-483.0235 1067.4567,-482.323 1066.4572,-481.5903 1065.4889,-480.8277 1064.5552,-480.0371 1063.6598,-479.2207 1062.8063,-478.3807 1061.9986,-477.5195 1061.2404,-476.6395 1060.5358,-475.7429 1059.8887,-474.8323 1059.303,-473.9102 1058.7825,-472.9792 1058.3311,-472.0416 1057.9524,-471.1002 1057.65,-470.1575 1057.4272,-469.2161 1057.2869,-468.2786 1057.2321,-467.3475 1057.2653,-466.4254 1057.3886,-465.5149 1057.6039,-464.6183 1057.9126,-463.7382 1058.3156,-462.877 1058.8136,-462.0371 1059.4066,-461.2207 1060.0942,-460.4301 1060.8756,-459.6674 1061.7494,-458.9348 1062.7137,-458.2343 1063.7662,-457.5677 1064.9039,-456.9369 1066.1235,-456.3436 1067.4211,-455.7895 1068.7923,-455.2761 1070.2326,-454.8048 1071.7365,-454.3768 1073.2986,-453.9934 1074.9129,-453.6555 1076.5731,-453.3642 1078.2727,-453.1202 1080.0048,-452.9242 1081.7625,-452.7768 1083.5386,-452.6782 1085.3257,-452.6289 1087.1165,-452.6289 1088.9036,-452.6782"/>
<text text-anchor="middle" x="1086.2211" y="-468.1289" font-family="Courier,monospace" font-weight="bold" font-size="10.00" fill="#000000">D</text>
</g>
<!-- STATE_B&#45;&gt;STATE_D -->
<g id="edge5" class="edge">
<title>STATE_B&#45;&gt;STATE_D</title>
<path fill="none" stroke="#000000" d="M634.9247,-165.4666C641.0008,-186.1243 653.9028,-219.7287 677.2211,-238.6289 788.8722,-329.1255 872.8163,-239.3346 989.2211,-323.6289 1031.6387,-354.3455 1060.718,-409.7639 1075.3192,-443.0794"/>
<polygon fill="#000000" stroke="#000000" points="1072.2555,-444.8196 1079.3845,-452.6573 1078.6991,-442.0846 1072.2555,-444.8196"/>
<text text-anchor="middle" x="756.2211" y="-285.6289" font-family="Courier,monospace" font-weight="bold" font-size="10.00" fill="#000000">0.9999000199960009</text>
</g>
<!-- STATE_B&#45;&gt;SYMBOL_x -->
<g id="edge17" class="edge">
<title>STATE_B&#45;&gt;SYMBOL_x</title>
<path fill="none" stroke="#000000" stroke-dasharray="5,2" d="M633.9832,-165.578C641.2368,-201.0547 658.7642,-278.3866 677.2211,-297.6289 734.733,-357.588 774.0508,-335.4339 853.2211,-360.6289 913.0254,-379.6608 946.9451,-352.2446 989.2211,-398.6289 1019.3462,-431.6815 973.4209,-468.345 1007.2211,-497.6289 1125.5041,-600.1073 1554.7254,-515.2952 1711.2211,-516.6289 1781.4408,-517.2273 1799.5525,-525.4289 1869.2211,-516.6289 1873.4292,-516.0973 1877.8009,-515.3068 1882.107,-514.3804"/>
<polygon fill="#000000" stroke="#000000" points="1883.0167,-517.7616 1891.9276,-512.0303 1881.3876,-510.9538 1883.0167,-517.7616"/>
<text text-anchor="middle" x="1262.2211" y="-550.6289" font-family="Courier,monospace" font-weight="bold" font-size="10.00" fill="#000000">9.997000899730082e&#45;05</text>
</g>
<!-- STATE_B&#45;&gt;SYMBOL_z -->
<g id="edge18" class="edge">
<title>STATE_B&#45;&gt;SYMBOL_z</title>
<path fill="none" stroke="#000000" stroke-dasharray="5,2" d="M658.449,-139.3413C664.5824,-137.8356 671.0792,-136.4757 677.2211,-135.6289 814.5996,-116.6882 850.5632,-129.2661 989.2211,-131.6289 1038.1948,-132.4634 1829.0746,-157.5686 1869.2211,-185.6289 1894.5509,-203.333 1906.3408,-238.046 1911.7028,-262.708"/>
<polygon fill="#000000" stroke="#000000" points="1908.2791,-263.4378 1913.628,-272.5832 1915.1497,-262.0982 1908.2791,-263.4378"/>
<text text-anchor="middle" x="1262.2211" y="-146.6289" font-family="Courier,monospace" font-weight="bold" font-size="10.00" fill="#000000">0.6665666966576693</text>
</g>
<!-- STATE_B&#45;&gt;SYMBOL_y -->
<g id="edge19" class="edge">
<title>STATE_B&#45;&gt;SYMBOL_y</title>
<path fill="none" stroke="#000000" stroke-dasharray="5,2" d="M636.0831,-129.5652C642.7556,-111.3719 655.7784,-84.121 677.2211,-70.6289 769.4505,-12.5968 812.2533,-46.6289 921.2211,-46.6289 921.2211,-46.6289 921.2211,-46.6289 1614.2211,-46.6289 1712.7852,-46.6289 1824.6355,-83.4257 1880.4029,-104.408"/>
<polygon fill="#000000" stroke="#000000" points="1879.2357,-107.7088 1889.8264,-108.005 1881.732,-101.169 1879.2357,-107.7088"/>
<text text-anchor="middle" x="1262.2211" y="-49.6289" font-family="Courier,monospace" font-weight="bold" font-size="10.00" fill="#000000">0.3333333333333333</text>
</g>
<!-- STATE_C&#45;&gt;STATE_F -->
<g id="edge6" class="edge">
<title>STATE_C&#45;&gt;STATE_F</title>
<path fill="none" stroke="#000000" d="M948.8377,-179.9775C1009.3139,-185.1206 1153.6026,-197.3915 1223.2675,-203.3161"/>
<polygon fill="#000000" stroke="#000000" points="1223.1241,-206.8165 1233.3848,-204.1765 1223.7174,-199.8416 1223.1241,-206.8165"/>
<text text-anchor="middle" x="1086.2211" y="-200.6289" font-family="Courier,monospace" font-weight="bold" font-size="10.00" fill="#000000">1.0</text>
</g>
<!-- STATE_D&#45;&gt;STATE_A -->
<g id="edge7" class="edge">
<title>STATE_D&#45;&gt;STATE_A</title>
<path fill="none" stroke="#000000" d="M1058.4396,-472.6095C947.5395,-480.0413 537.1669,-502.8798 425.7342,-442.6289 388.4227,-422.4548 363.4125,-378.2174 350.3913,-349.458"/>
<polygon fill="#000000" stroke="#000000" points="353.4768,-347.7758 346.2851,-339.9957 347.0553,-350.5625 353.4768,-347.7758"/>
<text text-anchor="middle" x="630.4777" y="-483.6289" font-family="Courier,monospace" font-weight="bold" font-size="10.00" fill="#000000">1.0</text>
</g>
<!-- STATE_D&#45;&gt;SYMBOL_x -->
<g id="edge20" class="edge">
<title>STATE_D&#45;&gt;SYMBOL_x</title>
<path fill="none" stroke="#000000" stroke-dasharray="5,2" d="M1113.355,-473.9397C1132.781,-476.1843 1159.5741,-479.0247 1183.2211,-480.6289 1448.0627,-498.5957 1767.6988,-503.2169 1877.0793,-504.3128"/>
<polygon fill="#000000" stroke="#000000" points="1877.264,-507.8146 1887.2971,-504.4109 1877.3312,-500.8149 1877.264,-507.8146"/>
<text text-anchor="middle" x="1438.2211" y="-498.6289" font-family="Courier,monospace" font-weight="bold" font-size="10.00" fill="#000000">9.997000899730082e&#45;05</text>
</g>
<!-- STATE_D&#45;&gt;SYMBOL_z -->
<g id="edge21" class="edge">
<title>STATE_D&#45;&gt;SYMBOL_z</title>
<path fill="none" stroke="#000000" stroke-dasharray="5,2" d="M1113.9246,-472.9556C1183.4555,-477.9207 1370.2866,-485.8345 1517.2211,-442.6289 1526.0011,-440.0472 1526.6939,-435.9516 1535.2211,-432.6289 1602.5172,-406.4063 1623.553,-413.6749 1693.2211,-394.6289 1772.1461,-373.0521 1799.827,-383.9784 1869.2211,-340.6289 1880.134,-333.8118 1890.1779,-323.8162 1898.1355,-314.5507"/>
<polygon fill="#000000" stroke="#000000" points="1900.9392,-316.651 1904.5609,-306.6944 1895.5207,-312.2193 1900.9392,-316.651"/>
<text text-anchor="middle" x="1438.2211" y="-473.6289" font-family="Courier,monospace" font-weight="bold" font-size="10.00" fill="#000000">0.6665666966576693</text>
</g>
<!-- STATE_D&#45;&gt;SYMBOL_y -->
<g id="edge22" class="edge">
<title>STATE_D&#45;&gt;SYMBOL_y</title>
<path fill="none" stroke="#000000" stroke-dasharray="5,2" d="M1115.2766,-465.8168C1165.1279,-457.6133 1270.1918,-440.5549 1359.2211,-427.6289 1429.3258,-417.4505 1450.9241,-431.5885 1517.2211,-406.6289 1526.2193,-403.2412 1526.3652,-398.3729 1535.2211,-394.6289 1601.3812,-366.6584 1640.4516,-409.3616 1693.2211,-360.6289 1713.6743,-341.7403 1691.6261,-320.4063 1711.2211,-300.6289 1762.9674,-248.401 1816.2743,-302.6393 1869.2211,-251.6289 1898.1051,-223.8012 1909.164,-177.1005 1913.3828,-147.0925"/>
<polygon fill="#000000" stroke="#000000" points="1916.8946,-147.2119 1914.648,-136.858 1909.9475,-146.353 1916.8946,-147.2119"/>
<text text-anchor="middle" x="1438.2211" y="-430.6289" font-family="Courier,monospace" font-weight="bold" font-size="10.00" fill="#000000">0.3333333333333333</text>
</g>
<!-- STATE_E&#45;&gt;STATE_A -->
<g id="edge8" class="edge">
<title>STATE_E&#45;&gt;STATE_A</title>
<path fill="none" stroke="#000000" d="M1589.7166,-340.2495C1570.2322,-345.1932 1542.1942,-351.5973 1517.2211,-354.6289 1439.5376,-364.0592 1419.4653,-358.4065 1341.2211,-359.6289 1012.6001,-364.7627 930.3034,-366.405 601.7342,-358.6289 523.4885,-356.7771 502.6684,-367.015 425.7342,-352.6289 407.0699,-349.1388 386.9937,-342.3224 370.9364,-336.068"/>
<polygon fill="#000000" stroke="#000000" points="372.0905,-332.7598 361.5065,-332.2812 369.4819,-339.2556 372.0905,-332.7598"/>
<text text-anchor="middle" x="921.2211" y="-366.6289" font-family="Courier,monospace" font-weight="bold" font-size="10.00" fill="#000000">1.0</text>
</g>
<!-- STATE_E&#45;&gt;SYMBOL_x -->
<g id="edge23" class="edge">
<title>STATE_E&#45;&gt;SYMBOL_x</title>
<path fill="none" stroke="#000000" stroke-dasharray="5,2" d="M1639.1529,-340.1742C1687.368,-353.7273 1795.1539,-388.4623 1869.2211,-445.6289 1881.0922,-454.7912 1891.7128,-467.594 1899.8188,-478.9327"/>
<polygon fill="#000000" stroke="#000000" points="1896.9667,-480.9626 1905.5064,-487.2336 1902.7413,-477.0059 1896.9667,-480.9626"/>
<text text-anchor="middle" x="1790.2211" y="-448.6289" font-family="Courier,monospace" font-weight="bold" font-size="10.00" fill="#000000">9.997000899730082e&#45;05</text>
</g>
<!-- STATE_E&#45;&gt;SYMBOL_z -->
<g id="edge24" class="edge">
<title>STATE_E&#45;&gt;SYMBOL_z</title>
<path fill="none" stroke="#000000" stroke-dasharray="5,2" d="M1643.1649,-332.0172C1690.7348,-328.9943 1788.2519,-321.2211 1869.2211,-304.6289 1873.6351,-303.7244 1878.2326,-302.5914 1882.747,-301.3639"/>
<polygon fill="#000000" stroke="#000000" points="1883.757,-304.7153 1892.3931,-298.5779 1881.8145,-297.9902 1883.757,-304.7153"/>
<text text-anchor="middle" x="1790.2211" y="-328.6289" font-family="Courier,monospace" font-weight="bold" font-size="10.00" fill="#000000">0.9998000599820054</text>
</g>
<!-- STATE_E&#45;&gt;SYMBOL_y -->
<g id="edge25" class="edge">
<title>STATE_E&#45;&gt;SYMBOL_y</title>
<path fill="none" stroke="#000000" stroke-dasharray="5,2" d="M1629.0242,-317.3297C1647.2467,-297.7847 1679.6685,-264.6583 1711.2211,-240.6289 1769.5518,-196.2062 1845.2266,-154.829 1886.2883,-133.5645"/>
<polygon fill="#000000" stroke="#000000" points="1887.9349,-136.6535 1895.2292,-128.9695 1884.7352,-130.4276 1887.9349,-136.6535"/>
<text text-anchor="middle" x="1790.2211" y="-243.6289" font-family="Courier,monospace" font-weight="bold" font-size="10.00" fill="#000000">9.997000899730082e&#45;05</text>
</g>
<!-- STATE_F&#45;&gt;STATE_B -->
<g id="edge9" class="edge">
<title>STATE_F&#45;&gt;STATE_B</title>
<path fill="none" stroke="#000000" d="M1234.2693,-198.8746C1214.924,-193.5723 1188.5603,-186.4736 1165.2211,-180.6289 1087.3103,-161.118 1069.0124,-148.8 989.2211,-139.6289 929.172,-132.7269 913.6558,-138.544 853.2211,-139.6289 788.7488,-140.7863 713.8302,-143.8267 669.3835,-145.8082"/>
<polygon fill="#000000" stroke="#000000" points="669.1346,-142.3158 659.3024,-146.2628 669.45,-149.3087 669.1346,-142.3158"/>
<text text-anchor="middle" x="921.2211" y="-142.6289" font-family="Courier,monospace" font-weight="bold" font-size="10.00" fill="#000000">0.9999000199960009</text>
</g>
<!-- STATE_F&#45;&gt;STATE_E -->
<g id="edge10" class="edge">
<title>STATE_F&#45;&gt;STATE_E</title>
<path fill="none" stroke="#000000" d="M1285.3168,-214.9617C1345.0633,-236.518 1505.0928,-294.2559 1577.6075,-320.4189"/>
<polygon fill="#000000" stroke="#000000" points="1576.6449,-323.7923 1587.2393,-323.894 1579.0206,-317.2078 1576.6449,-323.7923"/>
<text text-anchor="middle" x="1438.2211" y="-298.6289" font-family="Courier,monospace" font-weight="bold" font-size="10.00" fill="#000000">9.998000399920017e&#45;05</text>
</g>
<!-- STATE_F&#45;&gt;SYMBOL_x -->
<g id="edge26" class="edge">
<title>STATE_F&#45;&gt;SYMBOL_x</title>
<path fill="none" stroke="#000000" stroke-dasharray="5,2" d="M1273.6931,-222.7313C1290.3239,-245.0798 1323.1159,-285.5716 1359.2211,-310.6289 1498.3631,-407.1946 1549.5469,-406.1621 1711.2211,-456.6289 1779.7879,-478.0321 1799.6508,-472.7549 1869.2211,-490.6289 1872.2415,-491.4049 1875.3599,-492.2472 1878.4855,-493.1207"/>
<polygon fill="#000000" stroke="#000000" points="1877.8045,-496.5669 1888.3827,-495.9741 1879.7436,-489.8408 1877.8045,-496.5669"/>
<text text-anchor="middle" x="1614.2211" y="-452.6289" font-family="Courier,monospace" font-weight="bold" font-size="10.00" fill="#000000">9.997000899730082e&#45;05</text>
</g>
<!-- STATE_F&#45;&gt;SYMBOL_z -->
<g id="edge27" class="edge">
<title>STATE_F&#45;&gt;SYMBOL_z</title>
<path fill="none" stroke="#000000" stroke-dasharray="5,2" d="M1290.983,-203.8714C1397.4614,-194.1796 1768.2993,-165.1608 1869.2211,-220.6289 1886.0836,-229.8967 1897.9658,-248.1493 1905.5299,-263.6923"/>
<polygon fill="#000000" stroke="#000000" points="1902.3871,-265.2372 1909.6875,-272.9154 1908.7686,-262.3604 1902.3871,-265.2372"/>
<text text-anchor="middle" x="1614.2211" y="-191.6289" font-family="Courier,monospace" font-weight="bold" font-size="10.00" fill="#000000">0.9998000599820054</text>
</g>
<!-- STATE_F&#45;&gt;SYMBOL_y -->
<g id="edge28" class="edge">
<title>STATE_F&#45;&gt;SYMBOL_y</title>
<path fill="none" stroke="#000000" stroke-dasharray="5,2" d="M1290.5012,-199.3894C1309.7663,-194.6616 1335.9071,-188.6432 1359.2211,-184.6289 1553.2163,-151.2257 1788.1673,-129.4086 1878.2879,-121.7188"/>
<polygon fill="#000000" stroke="#000000" points="1878.6305,-125.2024 1888.2999,-120.872 1878.0405,-118.2273 1878.6305,-125.2024"/>
<text text-anchor="middle" x="1614.2211" y="-160.6289" font-family="Courier,monospace" font-weight="bold" font-size="10.00" fill="#000000">9.997000899730082e&#45;05</text>
</g>
<!-- STATE_SOURCE -->
<g id="node7" class="node">
<title>STATE_SOURCE</title>
<polygon fill="none" stroke="#000000" points="42.4515,-304.6782 44.8246,-304.7768 47.1732,-304.9242 49.4877,-305.1202 51.7587,-305.3642 53.9771,-305.6555 56.134,-305.9934 58.2213,-306.3768 60.2308,-306.8048 62.1552,-307.2761 63.9875,-307.7895 65.7213,-308.3436 67.3509,-308.9369 68.8711,-309.5677 70.2774,-310.2343 71.5659,-310.9348 72.7335,-311.6674 73.7776,-312.4301 74.6964,-313.2207 75.4887,-314.0371 76.1541,-314.877 76.6926,-315.7382 77.105,-316.6183 77.3927,-317.5149 77.5574,-318.4254 77.6018,-319.3475 77.5286,-320.2786 77.3412,-321.2161 77.0434,-322.1575 76.6393,-323.1002 76.1334,-324.0416 75.5302,-324.9792 74.8348,-325.9102 74.0521,-326.8323 73.1874,-327.7429 72.246,-328.6395 71.2329,-329.5195 70.1536,-330.3807 69.0132,-331.2207 67.8168,-332.0371 66.5693,-332.8277 65.2754,-333.5903 63.9398,-334.323 62.5668,-335.0235 61.1606,-335.6901 59.7248,-336.3209 58.2633,-336.9141 56.7792,-337.4682 55.2756,-337.9817 53.7553,-338.453 52.2208,-338.881 50.6744,-339.2644 49.118,-339.6022 47.5535,-339.8936 45.9824,-340.1375 44.4062,-340.3335 42.8263,-340.481 41.2436,-340.5795 39.6595,-340.6289 38.0748,-340.6289 36.4906,-340.5795 34.908,-340.481 33.328,-340.3335 31.7518,-340.1375 30.1808,-339.8936 28.6162,-339.6022 27.0598,-339.2644 25.5134,-338.881 23.9789,-338.453 22.4586,-337.9817 20.955,-337.4682 19.4709,-336.9141 18.0094,-336.3209 16.5737,-335.6901 15.1674,-335.0235 13.7944,-334.323 12.4588,-333.5903 11.1649,-332.8277 9.9174,-332.0371 8.721,-331.2207 7.5806,-330.3807 6.5013,-329.5195 5.4883,-328.6395 4.5468,-327.7429 3.6821,-326.8323 2.8994,-325.9102 2.204,-324.9792 1.6009,-324.0416 1.0949,-323.1002 .6908,-322.1575 .393,-321.2161 .2056,-320.2786 .1324,-319.3475 .1768,-318.4254 .3416,-317.5149 .6292,-316.6183 1.0416,-315.7382 1.5801,-314.877 2.2455,-314.0371 3.0379,-313.2207 3.9567,-312.4301 5.0008,-311.6674 6.1683,-310.9348 7.4568,-310.2343 8.8631,-309.5677 10.3833,-308.9369 12.0129,-308.3436 13.7467,-307.7895 15.579,-307.2761 17.5034,-306.8048 19.513,-306.3768 21.6002,-305.9934 23.7572,-305.6555 25.9755,-305.3642 28.2465,-305.1202 30.561,-304.9242 32.9096,-304.7768 35.2827,-304.6782 37.6707,-304.6289 40.0635,-304.6289 42.4515,-304.6782"/>
<text text-anchor="middle" x="38.8671" y="-320.1289" font-family="Courier,monospace" font-weight="bold" font-size="10.00" fill="#000000">SOURCE</text>
</g>
<!-- STATE_SOURCE&#45;&gt;STATE_A -->
<g id="edge11" class="edge">
<title>STATE_SOURCE&#45;&gt;STATE_A</title>
<path fill="none" stroke="#000000" d="M76.9721,-322.6289C134.4314,-322.6289 242.6877,-322.6289 300.6931,-322.6289"/>
<polygon fill="#000000" stroke="#000000" points="300.9157,-326.129 310.9157,-322.6289 300.9156,-319.129 300.9157,-326.129"/>
<text text-anchor="middle" x="174.7342" y="-325.6289" font-family="Courier,monospace" font-weight="bold" font-size="10.00" fill="#000000">9.997000899730082e&#45;05</text>
</g>
<!-- STATE_SOURCE&#45;&gt;STATE_B -->
<g id="edge12" class="edge">
<title>STATE_SOURCE&#45;&gt;STATE_B</title>
<path fill="none" stroke="#000000" d="M62.9091,-307.1152C121.8127,-270.1441 279.2354,-177.5509 425.7342,-145.6289 482.4078,-133.2798 550.0154,-137.4856 591.5939,-142.1595"/>
<polygon fill="#000000" stroke="#000000" points="591.2379,-145.6417 601.5814,-143.348 592.0651,-138.6908 591.2379,-145.6417"/>
<text text-anchor="middle" x="339.7342" y="-198.6289" font-family="Courier,monospace" font-weight="bold" font-size="10.00" fill="#000000">0.9998000599820054</text>
</g>
<!-- STATE_SOURCE&#45;&gt;STATE_D -->
<g id="edge13" class="edge">
<title>STATE_SOURCE&#45;&gt;STATE_D</title>
<path fill="none" stroke="#000000" d="M49.6467,-339.8411C84.4806,-393.0977 199.9148,-551.6289 339.7342,-551.6289 339.7342,-551.6289 339.7342,-551.6289 756.2211,-551.6289 868.8687,-551.6289 997.0725,-506.5619 1054.9503,-483.6598"/>
<polygon fill="#000000" stroke="#000000" points="1056.2942,-486.8919 1064.2724,-479.9206 1053.6882,-480.395 1056.2942,-486.8919"/>
<text text-anchor="middle" x="504.7342" y="-554.6289" font-family="Courier,monospace" font-weight="bold" font-size="10.00" fill="#000000">9.997000899730082e&#45;05</text>
</g>
</g>
</svg>
