<svg class="bob" font-family="arial" font-size="14" height="192" width="384" xmlns="http://www.w3.org/2000/svg">
<defs>
<marker id="triangle" markerHeight="8" markerWidth="8" orient="auto" refX="4" refY="2" viewBox="0 0 8 4">
<polygon class="fg_fill" points="0,0 0,4 8,2 0,0"/>
</marker>
<marker id="clear_triangle" markerHeight="10" markerWidth="10" orient="auto" refX="1" refY="7" viewBox="0 0 20 14">
<polygon class="bg_fill" points="2,2 2,12 18,7 2,2"/>
</marker>
<marker id="circle" markerHeight="5" markerWidth="5" orient="auto" refX="10" refY="10" viewBox="0 0 20 20">
<circle class="fg_fill" cx="10" cy="10" r="8"/>
</marker>
<marker id="square" markerHeight="5" markerWidth="5" orient="auto" refX="10" refY="10" viewBox="0 0 20 20">
<rect class="fg_fill" height="20" width="20" x="0" y="0"/>
</marker>
<marker id="open_circle" markerHeight="10" markerWidth="10" orient="auto" refX="10" refY="10" viewBox="0 0 20 20">
<circle class="bg_fill" cx="10" cy="10" r="4"/>
</marker>
<marker id="big_open_circle" markerHeight="20" markerWidth="20" orient="auto" refX="20" refY="20" viewBox="0 0 40 40">
<circle class="bg_fill" cx="20" cy="20" r="6"/>
</marker>
</defs>
<style type="text/css">

rect.backdrop {
    fill: white;
}
text{
    fill: black;
}

circle {
    fill: none;
    stroke: black;
    stroke-width: 2;
}

line {
    stroke: black;
    stroke-width: 2;
    stroke-opacity: 1;
    fill-opacity: 1;
    stroke-linecap: round;
    stroke-linejoin: miter;
}

path {
    fill: none;
    stroke: black;
    stroke-width: 2;
    stroke-opacity: 1;
    fill-opacity: 1;
    stroke-linecap: round;
    stroke-linejoin: miter;
}

line.dashed {
    stroke-dasharray: 5;
}

.fg_fill {
    fill: black;
}


.bg_fill {
    fill: white;
    stroke: black;
    stroke-width: 2;
}

tspan.head{
    fill: none;
    stroke: none;
}
    
</style>
<rect class="backdrop" height="192" width="384" x="0" y="0"/>
<g>
<line x1="48" x2="88" y1="24" y2="24"/>
<path d="M 44 20 A 4 4 0 0 0 48 24"/>
<path d="M 92 28 A 4 4 0 0 0 88 24"/>
</g>
<g>
<line x1="48" x2="88" y1="56" y2="56"/>
<path d="M 48 56 A 4 4 0 0 0 44 60"/>
<path d="M 88 56 A 4 4 0 0 0 92 52"/>
</g>
<g>
<line x1="48" x2="88" y1="88" y2="88"/>
<path d="M 44 84 A 4 4 0 0 0 48 88"/>
<path d="M 92 92 A 4 4 0 0 0 88 88"/>
</g>
<g>
<line x1="48" x2="88" y1="120" y2="120"/>
<path d="M 48 120 A 4 4 0 0 0 44 124"/>
<path d="M 88 120 A 4 4 0 0 0 92 116"/>
</g>
<g>
<line x1="92" x2="92" y1="28" y2="40"/>
<line x1="92" x2="92" y1="40" y2="52"/>
<line x1="92" x2="112" y1="40" y2="40"/>
</g>
<g>
<line x1="92" x2="92" y1="92" y2="104"/>
<line x1="92" x2="92" y1="104" y2="116"/>
<line x1="92" x2="112" y1="104" y2="104"/>
</g>
<g>
<text x="1" y="12">
groupA
</text>
</g>
<g>
<text x="1" y="76">
groupB
</text>
</g>
<g>
<text x="1" y="140">
groupC
</text>
</g>
<g>
<text x="1" y="172">
*
</text>
</g>
<g>
<text x="1" y="188">
*
</text>
</g>
<g>
<text x="17" y="172">
userA is both in groupA and groupB
</text>
</g>
<g>
<text x="17" y="188">
serviceAccountA is both in groupB and groupC
</text>
</g>
<g>
<text x="121" y="44">
userA
</text>
</g>
<g>
<text x="121" y="108">
serviceAccountA
</text>
</g>
</svg>
