<?xml version="1.0" encoding="UTF-8" standalone="no"?>
<!DOCTYPE svg PUBLIC "-//W3C//DTD SVG 1.1//EN"
 "http://www.w3.org/Graphics/SVG/1.1/DTD/svg11.dtd">
<!-- Generated by graphviz version 2.40.1 (0)
 -->
<!-- Title: G Pages: 1 -->
<svg width="1834pt" height="608pt"
 viewBox="0.00 0.00 1833.71 608.31" xmlns="http://www.w3.org/2000/svg" xmlns:xlink="http://www.w3.org/1999/xlink">
<g id="graph0" class="graph" transform="scale(1 1) rotate(0) translate(4 604.306)">
<title>G</title>
<polygon fill="#ffffff" stroke="transparent" points="-4,4 -4,-604.306 1829.708,-604.306 1829.708,4 -4,4"/>
<!-- STATE_A -->
<g id="node1" class="node">
<title>STATE_A</title>
<polygon fill="none" stroke="#000000" points="327.4168,-304.3553 329.1928,-304.4538 330.9505,-304.6013 332.6827,-304.7973 334.3823,-305.0413 336.0425,-305.3326 337.6568,-305.6704 339.2188,-306.0539 340.7228,-306.4818 342.163,-306.9532 343.5343,-307.4666 344.8319,-308.0207 346.0514,-308.614 347.1891,-309.2447 348.2416,-309.9113 349.2059,-310.6119 350.0797,-311.3445 350.8611,-312.1072 351.5488,-312.8978 352.1418,-313.7142 352.6397,-314.5541 353.0428,-315.4153 353.3514,-316.2954 353.5667,-317.1919 353.69,-318.1025 353.7232,-319.0246 353.6684,-319.9557 353.5282,-320.8932 353.3053,-321.8346 353.0029,-322.7773 352.6242,-323.7187 352.1728,-324.6562 351.6524,-325.5873 351.0666,-326.5094 350.4195,-327.42 349.7149,-328.3165 348.9568,-329.1966 348.149,-330.0578 347.2955,-330.8978 346.4001,-331.7142 345.4665,-332.5048 344.4982,-333.2674 343.4986,-334 342.4711,-334.7006 341.4186,-335.3672 340.3441,-335.998 339.2503,-336.5912 338.1396,-337.1453 337.0143,-337.6587 335.8765,-338.1301 334.7281,-338.5581 333.5708,-338.9415 332.406,-339.2793 331.2351,-339.5706 330.0593,-339.8146 328.8797,-340.0106 327.6972,-340.1581 326.5128,-340.2566 325.3272,-340.306 324.1412,-340.306 322.9556,-340.2566 321.7712,-340.1581 320.5887,-340.0106 319.4091,-339.8146 318.2334,-339.5706 317.0625,-339.2793 315.8977,-338.9415 314.7403,-338.5581 313.5919,-338.1301 312.4541,-337.6587 311.3288,-337.1453 310.2182,-336.5912 309.1243,-335.998 308.0498,-335.3672 306.9974,-334.7006 305.9698,-334 304.9703,-333.2674 304.002,-332.5048 303.0683,-331.7142 302.1729,-330.8978 301.3194,-330.0578 300.5117,-329.1966 299.7535,-328.3165 299.0489,-327.42 298.4018,-326.5094 297.8161,-325.5873 297.2956,-324.6562 296.8442,-323.7187 296.4656,-322.7773 296.1631,-321.8346 295.9403,-320.8932 295.8,-319.9557 295.7453,-319.0246 295.7784,-318.1025 295.9018,-317.1919 296.117,-316.2954 296.4257,-315.4153 296.8287,-314.5541 297.3267,-313.7142 297.9197,-312.8978 298.6073,-312.1072 299.3887,-311.3445 300.2625,-310.6119 301.2268,-309.9113 302.2793,-309.2447 303.417,-308.614 304.6366,-308.0207 305.9342,-307.4666 307.3055,-306.9532 308.7457,-306.4818 310.2496,-306.0539 311.8117,-305.6704 313.426,-305.3326 315.0862,-305.0413 316.7858,-304.7973 318.5179,-304.6013 320.2756,-304.4538 322.0517,-304.3553 323.8388,-304.306 325.6296,-304.306 327.4168,-304.3553"/>
<text text-anchor="middle" x="324.7342" y="-319.806" font-family="Courier,monospace" font-weight="bold" font-size="10.00" fill="#000000">A</text>
</g>
<!-- STATE_B -->
<g id="node2" class="node">
<title>STATE_B</title>
<polygon fill="none" stroke="#000000" points="603.1602,-129.3553 604.9363,-129.4538 606.694,-129.6013 608.4261,-129.7973 610.1257,-130.0413 611.7859,-130.3326 613.4002,-130.6704 614.9623,-131.0539 616.4662,-131.4818 617.9064,-131.9532 619.2777,-132.4666 620.5753,-133.0207 621.7949,-133.614 622.9326,-134.2447 623.9851,-134.9113 624.9494,-135.6119 625.8232,-136.3445 626.6046,-137.1072 627.2922,-137.8978 627.8852,-138.7142 628.3832,-139.5541 628.7862,-140.4153 629.0949,-141.2954 629.3101,-142.1919 629.4334,-143.1025 629.4666,-144.0246 629.4118,-144.9557 629.2716,-145.8932 629.0487,-146.8346 628.7463,-147.7773 628.3677,-148.7187 627.9163,-149.6562 627.3958,-150.5873 626.8101,-151.5094 626.1629,-152.42 625.4583,-153.3165 624.7002,-154.1966 623.8925,-155.0578 623.039,-155.8978 622.1436,-156.7142 621.2099,-157.5048 620.2416,-158.2674 619.242,-159 618.2145,-159.7006 617.162,-160.3672 616.0876,-160.998 614.9937,-161.5912 613.883,-162.1453 612.7578,-162.6587 611.62,-163.1301 610.4716,-163.5581 609.3142,-163.9415 608.1494,-164.2793 606.9785,-164.5706 605.8027,-164.8146 604.6231,-165.0106 603.4407,-165.1581 602.2562,-165.2566 601.0707,-165.306 599.8847,-165.306 598.6991,-165.2566 597.5146,-165.1581 596.3322,-165.0106 595.1526,-164.8146 593.9768,-164.5706 592.8059,-164.2793 591.6411,-163.9415 590.4838,-163.5581 589.3353,-163.1301 588.1976,-162.6587 587.0723,-162.1453 585.9616,-161.5912 584.8678,-160.998 583.7933,-160.3672 582.7408,-159.7006 581.7133,-159 580.7137,-158.2674 579.7454,-157.5048 578.8118,-156.7142 577.9164,-155.8978 577.0629,-155.0578 576.2551,-154.1966 575.497,-153.3165 574.7924,-152.42 574.1452,-151.5094 573.5595,-150.5873 573.0391,-149.6562 572.5877,-148.7187 572.209,-147.7773 571.9066,-146.8346 571.6837,-145.8932 571.5435,-144.9557 571.4887,-144.0246 571.5219,-143.1025 571.6452,-142.1919 571.8605,-141.2954 572.1691,-140.4153 572.5722,-139.5541 573.0701,-138.7142 573.6631,-137.8978 574.3507,-137.1072 575.1321,-136.3445 576.006,-135.6119 576.9703,-134.9113 578.0227,-134.2447 579.1604,-133.614 580.38,-133.0207 581.6776,-132.4666 583.0489,-131.9532 584.4891,-131.4818 585.993,-131.0539 587.5551,-130.6704 589.1694,-130.3326 590.8296,-130.0413 592.5292,-129.7973 594.2614,-129.6013 596.0191,-129.4538 597.7951,-129.3553 599.5823,-129.306 601.3731,-129.306 603.1602,-129.3553"/>
<text text-anchor="middle" x="600.4777" y="-144.806" font-family="Courier,monospace" font-weight="bold" font-size="10.00" fill="#000000">B</text>
</g>
<!-- STATE_A&#45;&gt;STATE_B -->
<g id="edge1" class="edge">
<title>STATE_A&#45;&gt;STATE_B</title>
<path fill="none" stroke="#000000" d="M332.1624,-304.541C344.4316,-277.4122 371.5337,-225.9084 410.7342,-198.306 456.5318,-166.0583 521.6441,-154.1968 562.4504,-149.8366"/>
<polygon fill="#000000" stroke="#000000" points="562.9099,-153.3086 572.5256,-148.86 562.2345,-146.3412 562.9099,-153.3086"/>
<text text-anchor="middle" x="482.2342" y="-201.306" font-family="Courier,monospace" font-weight="bold" font-size="10.00" fill="#000000">0.05343970934524711</text>
</g>
<!-- STATE_E -->
<g id="node5" class="node">
<title>STATE_E</title>
<polygon fill="none" stroke="#000000" points="1523.9036,-315.3553 1525.6797,-315.4538 1527.4374,-315.6013 1529.1696,-315.7973 1530.8691,-316.0413 1532.5294,-316.3326 1534.1436,-316.6704 1535.7057,-317.0539 1537.2097,-317.4818 1538.6499,-317.9532 1540.0211,-318.4666 1541.3187,-319.0207 1542.5383,-319.614 1543.676,-320.2447 1544.7285,-320.9113 1545.6928,-321.6119 1546.5666,-322.3445 1547.348,-323.1072 1548.0357,-323.8978 1548.6287,-324.7142 1549.1266,-325.5541 1549.5296,-326.4153 1549.8383,-327.2954 1550.0536,-328.1919 1550.1769,-329.1025 1550.2101,-330.0246 1550.1553,-330.9557 1550.0151,-331.8932 1549.7922,-332.8346 1549.4898,-333.7773 1549.1111,-334.7187 1548.6597,-335.6562 1548.1393,-336.5873 1547.5535,-337.5094 1546.9064,-338.42 1546.2018,-339.3165 1545.4436,-340.1966 1544.6359,-341.0578 1543.7824,-341.8978 1542.887,-342.7142 1541.9534,-343.5048 1540.985,-344.2674 1539.9855,-345 1538.9579,-345.7006 1537.9055,-346.3672 1536.831,-346.998 1535.7372,-347.5912 1534.6265,-348.1453 1533.5012,-348.6587 1532.3634,-349.1301 1531.215,-349.5581 1530.0577,-349.9415 1528.8929,-350.2793 1527.722,-350.5706 1526.5462,-350.8146 1525.3666,-351.0106 1524.1841,-351.1581 1522.9997,-351.2566 1521.8141,-351.306 1520.6281,-351.306 1519.4425,-351.2566 1518.2581,-351.1581 1517.0756,-351.0106 1515.896,-350.8146 1514.7203,-350.5706 1513.5494,-350.2793 1512.3846,-349.9415 1511.2272,-349.5581 1510.0788,-349.1301 1508.941,-348.6587 1507.8157,-348.1453 1506.705,-347.5912 1505.6112,-346.998 1504.5367,-346.3672 1503.4843,-345.7006 1502.4567,-345 1501.4572,-344.2674 1500.4889,-343.5048 1499.5552,-342.7142 1498.6598,-341.8978 1497.8063,-341.0578 1496.9986,-340.1966 1496.2404,-339.3165 1495.5358,-338.42 1494.8887,-337.5094 1494.303,-336.5873 1493.7825,-335.6562 1493.3311,-334.7187 1492.9524,-333.7773 1492.65,-332.8346 1492.4272,-331.8932 1492.2869,-330.9557 1492.2321,-330.0246 1492.2653,-329.1025 1492.3886,-328.1919 1492.6039,-327.2954 1492.9126,-326.4153 1493.3156,-325.5541 1493.8136,-324.7142 1494.4066,-323.8978 1495.0942,-323.1072 1495.8756,-322.3445 1496.7494,-321.6119 1497.7137,-320.9113 1498.7662,-320.2447 1499.9039,-319.614 1501.1235,-319.0207 1502.4211,-318.4666 1503.7923,-317.9532 1505.2326,-317.4818 1506.7365,-317.0539 1508.2986,-316.6704 1509.9129,-316.3326 1511.5731,-316.0413 1513.2727,-315.7973 1515.0048,-315.6013 1516.7625,-315.4538 1518.5386,-315.3553 1520.3257,-315.306 1522.1165,-315.306 1523.9036,-315.3553"/>
<text text-anchor="middle" x="1521.2211" y="-330.806" font-family="Courier,monospace" font-weight="bold" font-size="10.00" fill="#000000">E</text>
</g>
<!-- STATE_A&#45;&gt;STATE_E -->
<g id="edge2" class="edge">
<title>STATE_A&#45;&gt;STATE_E</title>
<path fill="none" stroke="#000000" d="M351.6784,-326.0525C400.9571,-332.5698 508.9646,-345.306 600.4777,-345.306 600.4777,-345.306 600.4777,-345.306 1202.7211,-345.306 1303.9895,-345.306 1423.2413,-339.1732 1483.0093,-335.6761"/>
<polygon fill="#000000" stroke="#000000" points="1483.3397,-339.1627 1493.1149,-335.0766 1482.9251,-332.175 1483.3397,-339.1627"/>
<text text-anchor="middle" x="884.2211" y="-348.306" font-family="Courier,monospace" font-weight="bold" font-size="10.00" fill="#000000">0.9328178419744396</text>
</g>
<!-- STATE_F -->
<g id="node6" class="node">
<title>STATE_F</title>
<polygon fill="none" stroke="#000000" points="1205.4036,-188.3553 1207.1797,-188.4538 1208.9374,-188.6013 1210.6696,-188.7973 1212.3691,-189.0413 1214.0294,-189.3326 1215.6436,-189.6704 1217.2057,-190.0539 1218.7097,-190.4818 1220.1499,-190.9532 1221.5211,-191.4666 1222.8187,-192.0207 1224.0383,-192.614 1225.176,-193.2447 1226.2285,-193.9113 1227.1928,-194.6119 1228.0666,-195.3445 1228.848,-196.1072 1229.5357,-196.8978 1230.1287,-197.7142 1230.6266,-198.5541 1231.0296,-199.4153 1231.3383,-200.2954 1231.5536,-201.1919 1231.6769,-202.1025 1231.7101,-203.0246 1231.6553,-203.9557 1231.5151,-204.8932 1231.2922,-205.8346 1230.9898,-206.7773 1230.6111,-207.7187 1230.1597,-208.6562 1229.6393,-209.5873 1229.0535,-210.5094 1228.4064,-211.42 1227.7018,-212.3165 1226.9436,-213.1966 1226.1359,-214.0578 1225.2824,-214.8978 1224.387,-215.7142 1223.4534,-216.5048 1222.485,-217.2674 1221.4855,-218 1220.4579,-218.7006 1219.4055,-219.3672 1218.331,-219.998 1217.2372,-220.5912 1216.1265,-221.1453 1215.0012,-221.6587 1213.8634,-222.1301 1212.715,-222.5581 1211.5577,-222.9415 1210.3929,-223.2793 1209.222,-223.5706 1208.0462,-223.8146 1206.8666,-224.0106 1205.6841,-224.1581 1204.4997,-224.2566 1203.3141,-224.306 1202.1281,-224.306 1200.9425,-224.2566 1199.7581,-224.1581 1198.5756,-224.0106 1197.396,-223.8146 1196.2203,-223.5706 1195.0494,-223.2793 1193.8846,-222.9415 1192.7272,-222.5581 1191.5788,-222.1301 1190.441,-221.6587 1189.3157,-221.1453 1188.205,-220.5912 1187.1112,-219.998 1186.0367,-219.3672 1184.9843,-218.7006 1183.9567,-218 1182.9572,-217.2674 1181.9889,-216.5048 1181.0552,-215.7142 1180.1598,-214.8978 1179.3063,-214.0578 1178.4986,-213.1966 1177.7404,-212.3165 1177.0358,-211.42 1176.3887,-210.5094 1175.803,-209.5873 1175.2825,-208.6562 1174.8311,-207.7187 1174.4524,-206.7773 1174.15,-205.8346 1173.9272,-204.8932 1173.7869,-203.9557 1173.7321,-203.0246 1173.7653,-202.1025 1173.8886,-201.1919 1174.1039,-200.2954 1174.4126,-199.4153 1174.8156,-198.5541 1175.3136,-197.7142 1175.9066,-196.8978 1176.5942,-196.1072 1177.3756,-195.3445 1178.2494,-194.6119 1179.2137,-193.9113 1180.2662,-193.2447 1181.4039,-192.614 1182.6235,-192.0207 1183.9211,-191.4666 1185.2923,-190.9532 1186.7326,-190.4818 1188.2365,-190.0539 1189.7986,-189.6704 1191.4129,-189.3326 1193.0731,-189.0413 1194.7727,-188.7973 1196.5048,-188.6013 1198.2625,-188.4538 1200.0386,-188.3553 1201.8257,-188.306 1203.6165,-188.306 1205.4036,-188.3553"/>
<text text-anchor="middle" x="1202.7211" y="-203.806" font-family="Courier,monospace" font-weight="bold" font-size="10.00" fill="#000000">F</text>
</g>
<!-- STATE_A&#45;&gt;STATE_F -->
<g id="edge3" class="edge">
<title>STATE_A&#45;&gt;STATE_F</title>
<path fill="none" stroke="#000000" d="M349.557,-310.4498C366.5286,-302.6372 389.6778,-292.55 410.7342,-285.306 513.4812,-249.9578 539.6762,-238.8144 647.2211,-223.306 852.3043,-193.732 906.1211,-215.8878 1113.2211,-209.306 1129.8868,-208.7763 1148.297,-208.1639 1164.065,-207.631"/>
<polygon fill="#000000" stroke="#000000" points="1164.6298,-211.114 1174.5053,-207.2768 1164.3924,-204.118 1164.6298,-211.114"/>
<text text-anchor="middle" x="722.7211" y="-226.306" font-family="Courier,monospace" font-weight="bold" font-size="10.00" fill="#000000">0.013742448680313301</text>
</g>
<!-- SYMBOL_x -->
<g id="node8" class="node">
<title>SYMBOL_x</title>
<polygon fill="none" stroke="#000000" stroke-dasharray="5,2" points="1799.6471,-486.3553 1801.4231,-486.4538 1803.1808,-486.6013 1804.913,-486.7973 1806.6126,-487.0413 1808.2728,-487.3326 1809.8871,-487.6704 1811.4492,-488.0539 1812.9531,-488.4818 1814.3933,-488.9532 1815.7646,-489.4666 1817.0622,-490.0207 1818.2818,-490.614 1819.4195,-491.2447 1820.4719,-491.9113 1821.4363,-492.6119 1822.3101,-493.3445 1823.0915,-494.1072 1823.7791,-494.8978 1824.3721,-495.7142 1824.8701,-496.5541 1825.2731,-497.4153 1825.5817,-498.2954 1825.797,-499.1919 1825.9203,-500.1025 1825.9535,-501.0246 1825.8987,-501.9557 1825.7585,-502.8932 1825.5356,-503.8346 1825.2332,-504.7773 1824.8545,-505.7187 1824.4032,-506.6562 1823.8827,-507.5873 1823.297,-508.5094 1822.6498,-509.42 1821.9452,-510.3165 1821.1871,-511.1966 1820.3793,-512.0578 1819.5259,-512.8978 1818.6305,-513.7142 1817.6968,-514.5048 1816.7285,-515.2674 1815.7289,-516 1814.7014,-516.7006 1813.6489,-517.3672 1812.5744,-517.998 1811.4806,-518.5912 1810.3699,-519.1453 1809.2447,-519.6587 1808.1069,-520.1301 1806.9585,-520.5581 1805.8011,-520.9415 1804.6363,-521.2793 1803.4654,-521.5706 1802.2896,-521.8146 1801.11,-522.0106 1799.9276,-522.1581 1798.7431,-522.2566 1797.5575,-522.306 1796.3716,-522.306 1795.186,-522.2566 1794.0015,-522.1581 1792.8191,-522.0106 1791.6395,-521.8146 1790.4637,-521.5706 1789.2928,-521.2793 1788.128,-520.9415 1786.9706,-520.5581 1785.8222,-520.1301 1784.6844,-519.6587 1783.5592,-519.1453 1782.4485,-518.5912 1781.3547,-517.998 1780.2802,-517.3672 1779.2277,-516.7006 1778.2002,-516 1777.2006,-515.2674 1776.2323,-514.5048 1775.2986,-513.7142 1774.4032,-512.8978 1773.5498,-512.0578 1772.742,-511.1966 1771.9839,-510.3165 1771.2793,-509.42 1770.6321,-508.5094 1770.0464,-507.5873 1769.5259,-506.6562 1769.0746,-505.7187 1768.6959,-504.7773 1768.3935,-503.8346 1768.1706,-502.8932 1768.0304,-501.9557 1767.9756,-501.0246 1768.0088,-500.1025 1768.1321,-499.1919 1768.3474,-498.2954 1768.656,-497.4153 1769.059,-496.5541 1769.557,-495.7142 1770.15,-494.8978 1770.8376,-494.1072 1771.619,-493.3445 1772.4928,-492.6119 1773.4572,-491.9113 1774.5096,-491.2447 1775.6473,-490.614 1776.8669,-490.0207 1778.1645,-489.4666 1779.5358,-488.9532 1780.976,-488.4818 1782.4799,-488.0539 1784.042,-487.6704 1785.6563,-487.3326 1787.3165,-487.0413 1789.0161,-486.7973 1790.7483,-486.6013 1792.506,-486.4538 1794.282,-486.3553 1796.0691,-486.306 1797.86,-486.306 1799.6471,-486.3553"/>
<text text-anchor="middle" x="1796.9645" y="-501.806" font-family="Courier,monospace" font-weight="bold" font-size="10.00" fill="#000000">x</text>
</g>
<!-- STATE_A&#45;&gt;SYMBOL_x -->
<g id="edge14" class="edge">
<title>STATE_A&#45;&gt;SYMBOL_x</title>
<path fill="none" stroke="#000000" stroke-dasharray="5,2" d="M329.6232,-340.1199C339.3496,-371.9732 364.2976,-438.4272 410.7342,-471.306 527.1566,-553.7371 899.071,-589.306 1041.7211,-589.306 1041.7211,-589.306 1041.7211,-589.306 1521.2211,-589.306 1626.2126,-589.306 1652.9519,-570.827 1750.2211,-531.306 1756.7546,-528.6514 1763.4859,-525.2245 1769.7343,-521.7087"/>
<polygon fill="#000000" stroke="#000000" points="1771.6191,-524.6606 1778.4639,-516.5736 1768.07,-518.6271 1771.6191,-524.6606"/>
<text text-anchor="middle" x="1041.7211" y="-592.306" font-family="Courier,monospace" font-weight="bold" font-size="10.00" fill="#000000">0.3023481226276986</text>
</g>
<!-- SYMBOL_z -->
<g id="node9" class="node">
<title>SYMBOL_z</title>
<polygon fill="none" stroke="#000000" stroke-dasharray="5,2" points="1799.6471,-272.3553 1801.4231,-272.4538 1803.1808,-272.6013 1804.913,-272.7973 1806.6126,-273.0413 1808.2728,-273.3326 1809.8871,-273.6704 1811.4492,-274.0539 1812.9531,-274.4818 1814.3933,-274.9532 1815.7646,-275.4666 1817.0622,-276.0207 1818.2818,-276.614 1819.4195,-277.2447 1820.4719,-277.9113 1821.4363,-278.6119 1822.3101,-279.3445 1823.0915,-280.1072 1823.7791,-280.8978 1824.3721,-281.7142 1824.8701,-282.5541 1825.2731,-283.4153 1825.5817,-284.2954 1825.797,-285.1919 1825.9203,-286.1025 1825.9535,-287.0246 1825.8987,-287.9557 1825.7585,-288.8932 1825.5356,-289.8346 1825.2332,-290.7773 1824.8545,-291.7187 1824.4032,-292.6562 1823.8827,-293.5873 1823.297,-294.5094 1822.6498,-295.42 1821.9452,-296.3165 1821.1871,-297.1966 1820.3793,-298.0578 1819.5259,-298.8978 1818.6305,-299.7142 1817.6968,-300.5048 1816.7285,-301.2674 1815.7289,-302 1814.7014,-302.7006 1813.6489,-303.3672 1812.5744,-303.998 1811.4806,-304.5912 1810.3699,-305.1453 1809.2447,-305.6587 1808.1069,-306.1301 1806.9585,-306.5581 1805.8011,-306.9415 1804.6363,-307.2793 1803.4654,-307.5706 1802.2896,-307.8146 1801.11,-308.0106 1799.9276,-308.1581 1798.7431,-308.2566 1797.5575,-308.306 1796.3716,-308.306 1795.186,-308.2566 1794.0015,-308.1581 1792.8191,-308.0106 1791.6395,-307.8146 1790.4637,-307.5706 1789.2928,-307.2793 1788.128,-306.9415 1786.9706,-306.5581 1785.8222,-306.1301 1784.6844,-305.6587 1783.5592,-305.1453 1782.4485,-304.5912 1781.3547,-303.998 1780.2802,-303.3672 1779.2277,-302.7006 1778.2002,-302 1777.2006,-301.2674 1776.2323,-300.5048 1775.2986,-299.7142 1774.4032,-298.8978 1773.5498,-298.0578 1772.742,-297.1966 1771.9839,-296.3165 1771.2793,-295.42 1770.6321,-294.5094 1770.0464,-293.5873 1769.5259,-292.6562 1769.0746,-291.7187 1768.6959,-290.7773 1768.3935,-289.8346 1768.1706,-288.8932 1768.0304,-287.9557 1767.9756,-287.0246 1768.0088,-286.1025 1768.1321,-285.1919 1768.3474,-284.2954 1768.656,-283.4153 1769.059,-282.5541 1769.557,-281.7142 1770.15,-280.8978 1770.8376,-280.1072 1771.619,-279.3445 1772.4928,-278.6119 1773.4572,-277.9113 1774.5096,-277.2447 1775.6473,-276.614 1776.8669,-276.0207 1778.1645,-275.4666 1779.5358,-274.9532 1780.976,-274.4818 1782.4799,-274.0539 1784.042,-273.6704 1785.6563,-273.3326 1787.3165,-273.0413 1789.0161,-272.7973 1790.7483,-272.6013 1792.506,-272.4538 1794.282,-272.3553 1796.0691,-272.306 1797.86,-272.306 1799.6471,-272.3553"/>
<text text-anchor="middle" x="1796.9645" y="-287.806" font-family="Courier,monospace" font-weight="bold" font-size="10.00" fill="#000000">z</text>
</g>
<!-- STATE_A&#45;&gt;SYMBOL_z -->
<g id="edge15" class="edge">
<title>STATE_A&#45;&gt;SYMBOL_z</title>
<path fill="none" stroke="#000000" stroke-dasharray="5,2" d="M353.6222,-321.6182C470.7132,-318.837 921.4232,-308.1949 1292.2211,-300.306 1466.1681,-296.6051 1673.8452,-292.6309 1758.3492,-291.0325"/>
<polygon fill="#000000" stroke="#000000" points="1758.5716,-294.529 1768.5037,-290.8406 1758.4393,-287.5303 1758.5716,-294.529"/>
<text text-anchor="middle" x="1041.7211" y="-309.306" font-family="Courier,monospace" font-weight="bold" font-size="10.00" fill="#000000">0.38801087829550657</text>
</g>
<!-- SYMBOL_y -->
<g id="node10" class="node">
<title>SYMBOL_y</title>
<polygon fill="none" stroke="#000000" stroke-dasharray="5,2" points="1799.6471,-100.3553 1801.4231,-100.4538 1803.1808,-100.6013 1804.913,-100.7973 1806.6126,-101.0413 1808.2728,-101.3326 1809.8871,-101.6704 1811.4492,-102.0539 1812.9531,-102.4818 1814.3933,-102.9532 1815.7646,-103.4666 1817.0622,-104.0207 1818.2818,-104.614 1819.4195,-105.2447 1820.4719,-105.9113 1821.4363,-106.6119 1822.3101,-107.3445 1823.0915,-108.1072 1823.7791,-108.8978 1824.3721,-109.7142 1824.8701,-110.5541 1825.2731,-111.4153 1825.5817,-112.2954 1825.797,-113.1919 1825.9203,-114.1025 1825.9535,-115.0246 1825.8987,-115.9557 1825.7585,-116.8932 1825.5356,-117.8346 1825.2332,-118.7773 1824.8545,-119.7187 1824.4032,-120.6562 1823.8827,-121.5873 1823.297,-122.5094 1822.6498,-123.42 1821.9452,-124.3165 1821.1871,-125.1966 1820.3793,-126.0578 1819.5259,-126.8978 1818.6305,-127.7142 1817.6968,-128.5048 1816.7285,-129.2674 1815.7289,-130 1814.7014,-130.7006 1813.6489,-131.3672 1812.5744,-131.998 1811.4806,-132.5912 1810.3699,-133.1453 1809.2447,-133.6587 1808.1069,-134.1301 1806.9585,-134.5581 1805.8011,-134.9415 1804.6363,-135.2793 1803.4654,-135.5706 1802.2896,-135.8146 1801.11,-136.0106 1799.9276,-136.1581 1798.7431,-136.2566 1797.5575,-136.306 1796.3716,-136.306 1795.186,-136.2566 1794.0015,-136.1581 1792.8191,-136.0106 1791.6395,-135.8146 1790.4637,-135.5706 1789.2928,-135.2793 1788.128,-134.9415 1786.9706,-134.5581 1785.8222,-134.1301 1784.6844,-133.6587 1783.5592,-133.1453 1782.4485,-132.5912 1781.3547,-131.998 1780.2802,-131.3672 1779.2277,-130.7006 1778.2002,-130 1777.2006,-129.2674 1776.2323,-128.5048 1775.2986,-127.7142 1774.4032,-126.8978 1773.5498,-126.0578 1772.742,-125.1966 1771.9839,-124.3165 1771.2793,-123.42 1770.6321,-122.5094 1770.0464,-121.5873 1769.5259,-120.6562 1769.0746,-119.7187 1768.6959,-118.7773 1768.3935,-117.8346 1768.1706,-116.8932 1768.0304,-115.9557 1767.9756,-115.0246 1768.0088,-114.1025 1768.1321,-113.1919 1768.3474,-112.2954 1768.656,-111.4153 1769.059,-110.5541 1769.557,-109.7142 1770.15,-108.8978 1770.8376,-108.1072 1771.619,-107.3445 1772.4928,-106.6119 1773.4572,-105.9113 1774.5096,-105.2447 1775.6473,-104.614 1776.8669,-104.0207 1778.1645,-103.4666 1779.5358,-102.9532 1780.976,-102.4818 1782.4799,-102.0539 1784.042,-101.6704 1785.6563,-101.3326 1787.3165,-101.0413 1789.0161,-100.7973 1790.7483,-100.6013 1792.506,-100.4538 1794.282,-100.3553 1796.0691,-100.306 1797.86,-100.306 1799.6471,-100.3553"/>
<text text-anchor="middle" x="1796.9645" y="-115.806" font-family="Courier,monospace" font-weight="bold" font-size="10.00" fill="#000000">y</text>
</g>
<!-- STATE_A&#45;&gt;SYMBOL_y -->
<g id="edge16" class="edge">
<title>STATE_A&#45;&gt;SYMBOL_y</title>
<path fill="none" stroke="#000000" stroke-dasharray="5,2" d="M337.4915,-305.6147C352.609,-285.1195 377.6442,-248.8181 392.7342,-214.306 405.0867,-186.0547 393.655,-172.9773 410.7342,-147.306 469.8242,-58.4891 493.8003,-.306 600.4777,-.306 600.4777,-.306 600.4777,-.306 1521.2211,-.306 1625.6892,-.306 1663.263,4.5894 1750.2211,-53.306 1764.51,-62.8193 1775.891,-78.2812 1783.8443,-91.7383"/>
<polygon fill="#000000" stroke="#000000" points="1780.8752,-93.6007 1788.7964,-100.6366 1786.9918,-90.1966 1780.8752,-93.6007"/>
<text text-anchor="middle" x="1041.7211" y="-3.306" font-family="Courier,monospace" font-weight="bold" font-size="10.00" fill="#000000">0.30964099907679477</text>
</g>
<!-- STATE_C -->
<g id="node3" class="node">
<title>STATE_C</title>
<polygon fill="none" stroke="#000000" points="886.9036,-159.3553 888.6797,-159.4538 890.4374,-159.6013 892.1696,-159.7973 893.8691,-160.0413 895.5294,-160.3326 897.1436,-160.6704 898.7057,-161.0539 900.2097,-161.4818 901.6499,-161.9532 903.0211,-162.4666 904.3187,-163.0207 905.5383,-163.614 906.676,-164.2447 907.7285,-164.9113 908.6928,-165.6119 909.5666,-166.3445 910.348,-167.1072 911.0357,-167.8978 911.6287,-168.7142 912.1266,-169.5541 912.5296,-170.4153 912.8383,-171.2954 913.0536,-172.1919 913.1769,-173.1025 913.2101,-174.0246 913.1553,-174.9557 913.0151,-175.8932 912.7922,-176.8346 912.4898,-177.7773 912.1111,-178.7187 911.6597,-179.6562 911.1393,-180.5873 910.5535,-181.5094 909.9064,-182.42 909.2018,-183.3165 908.4436,-184.1966 907.6359,-185.0578 906.7824,-185.8978 905.887,-186.7142 904.9534,-187.5048 903.985,-188.2674 902.9855,-189 901.9579,-189.7006 900.9055,-190.3672 899.831,-190.998 898.7372,-191.5912 897.6265,-192.1453 896.5012,-192.6587 895.3634,-193.1301 894.215,-193.5581 893.0577,-193.9415 891.8929,-194.2793 890.722,-194.5706 889.5462,-194.8146 888.3666,-195.0106 887.1841,-195.1581 885.9997,-195.2566 884.8141,-195.306 883.6281,-195.306 882.4425,-195.2566 881.2581,-195.1581 880.0756,-195.0106 878.896,-194.8146 877.7203,-194.5706 876.5494,-194.2793 875.3846,-193.9415 874.2272,-193.5581 873.0788,-193.1301 871.941,-192.6587 870.8157,-192.1453 869.705,-191.5912 868.6112,-190.998 867.5367,-190.3672 866.4843,-189.7006 865.4567,-189 864.4572,-188.2674 863.4889,-187.5048 862.5552,-186.7142 861.6598,-185.8978 860.8063,-185.0578 859.9986,-184.1966 859.2404,-183.3165 858.5358,-182.42 857.8887,-181.5094 857.303,-180.5873 856.7825,-179.6562 856.3311,-178.7187 855.9524,-177.7773 855.65,-176.8346 855.4272,-175.8932 855.2869,-174.9557 855.2321,-174.0246 855.2653,-173.1025 855.3886,-172.1919 855.6039,-171.2954 855.9126,-170.4153 856.3156,-169.5541 856.8136,-168.7142 857.4066,-167.8978 858.0942,-167.1072 858.8756,-166.3445 859.7494,-165.6119 860.7137,-164.9113 861.7662,-164.2447 862.9039,-163.614 864.1235,-163.0207 865.4211,-162.4666 866.7923,-161.9532 868.2326,-161.4818 869.7365,-161.0539 871.2986,-160.6704 872.9129,-160.3326 874.5731,-160.0413 876.2727,-159.7973 878.0048,-159.6013 879.7625,-159.4538 881.5386,-159.3553 883.3257,-159.306 885.1165,-159.306 886.9036,-159.3553"/>
<text text-anchor="middle" x="884.2211" y="-174.806" font-family="Courier,monospace" font-weight="bold" font-size="10.00" fill="#000000">C</text>
</g>
<!-- STATE_B&#45;&gt;STATE_C -->
<g id="edge4" class="edge">
<title>STATE_B&#45;&gt;STATE_C</title>
<path fill="none" stroke="#000000" d="M627.6842,-150.1825C678.219,-155.5255 786.7287,-166.9982 845.1194,-173.1718"/>
<polygon fill="#000000" stroke="#000000" points="845.1011,-176.6893 855.4137,-174.2602 845.8372,-169.7281 845.1011,-176.6893"/>
<text text-anchor="middle" x="722.7211" y="-170.306" font-family="Courier,monospace" font-weight="bold" font-size="10.00" fill="#000000">0.5718583749182152</text>
</g>
<!-- STATE_D -->
<g id="node4" class="node">
<title>STATE_D</title>
<polygon fill="none" stroke="#000000" points="1044.4036,-452.3553 1046.1797,-452.4538 1047.9374,-452.6013 1049.6696,-452.7973 1051.3691,-453.0413 1053.0294,-453.3326 1054.6436,-453.6704 1056.2057,-454.0539 1057.7097,-454.4818 1059.1499,-454.9532 1060.5211,-455.4666 1061.8187,-456.0207 1063.0383,-456.614 1064.176,-457.2447 1065.2285,-457.9113 1066.1928,-458.6119 1067.0666,-459.3445 1067.848,-460.1072 1068.5357,-460.8978 1069.1287,-461.7142 1069.6266,-462.5541 1070.0296,-463.4153 1070.3383,-464.2954 1070.5536,-465.1919 1070.6769,-466.1025 1070.7101,-467.0246 1070.6553,-467.9557 1070.5151,-468.8932 1070.2922,-469.8346 1069.9898,-470.7773 1069.6111,-471.7187 1069.1597,-472.6562 1068.6393,-473.5873 1068.0535,-474.5094 1067.4064,-475.42 1066.7018,-476.3165 1065.9436,-477.1966 1065.1359,-478.0578 1064.2824,-478.8978 1063.387,-479.7142 1062.4534,-480.5048 1061.485,-481.2674 1060.4855,-482 1059.4579,-482.7006 1058.4055,-483.3672 1057.331,-483.998 1056.2372,-484.5912 1055.1265,-485.1453 1054.0012,-485.6587 1052.8634,-486.1301 1051.715,-486.5581 1050.5577,-486.9415 1049.3929,-487.2793 1048.222,-487.5706 1047.0462,-487.8146 1045.8666,-488.0106 1044.6841,-488.1581 1043.4997,-488.2566 1042.3141,-488.306 1041.1281,-488.306 1039.9425,-488.2566 1038.7581,-488.1581 1037.5756,-488.0106 1036.396,-487.8146 1035.2203,-487.5706 1034.0494,-487.2793 1032.8846,-486.9415 1031.7272,-486.5581 1030.5788,-486.1301 1029.441,-485.6587 1028.3157,-485.1453 1027.205,-484.5912 1026.1112,-483.998 1025.0367,-483.3672 1023.9843,-482.7006 1022.9567,-482 1021.9572,-481.2674 1020.9889,-480.5048 1020.0552,-479.7142 1019.1598,-478.8978 1018.3063,-478.0578 1017.4986,-477.1966 1016.7404,-476.3165 1016.0358,-475.42 1015.3887,-474.5094 1014.803,-473.5873 1014.2825,-472.6562 1013.8311,-471.7187 1013.4524,-470.7773 1013.15,-469.8346 1012.9272,-468.8932 1012.7869,-467.9557 1012.7321,-467.0246 1012.7653,-466.1025 1012.8886,-465.1919 1013.1039,-464.2954 1013.4126,-463.4153 1013.8156,-462.5541 1014.3136,-461.7142 1014.9066,-460.8978 1015.5942,-460.1072 1016.3756,-459.3445 1017.2494,-458.6119 1018.2137,-457.9113 1019.2662,-457.2447 1020.4039,-456.614 1021.6235,-456.0207 1022.9211,-455.4666 1024.2923,-454.9532 1025.7326,-454.4818 1027.2365,-454.0539 1028.7986,-453.6704 1030.4129,-453.3326 1032.0731,-453.0413 1033.7727,-452.7973 1035.5048,-452.6013 1037.2625,-452.4538 1039.0386,-452.3553 1040.8257,-452.306 1042.6165,-452.306 1044.4036,-452.3553"/>
<text text-anchor="middle" x="1041.7211" y="-467.806" font-family="Courier,monospace" font-weight="bold" font-size="10.00" fill="#000000">D</text>
</g>
<!-- STATE_B&#45;&gt;STATE_D -->
<g id="edge5" class="edge">
<title>STATE_B&#45;&gt;STATE_D</title>
<path fill="none" stroke="#000000" d="M604.9437,-165.1203C611.0382,-185.7553 623.9578,-219.3381 647.2211,-238.306 756.2842,-327.2313 840.012,-238.3849 952.2211,-323.306 993.0289,-354.1897 1019.2951,-409.5516 1032.2107,-442.8114"/>
<polygon fill="#000000" stroke="#000000" points="1029.0065,-444.2352 1035.7917,-452.3722 1035.5618,-441.7799 1029.0065,-444.2352"/>
<text text-anchor="middle" x="722.7211" y="-285.306" font-family="Courier,monospace" font-weight="bold" font-size="10.00" fill="#000000">0.42814162508178477</text>
</g>
<!-- STATE_B&#45;&gt;SYMBOL_x -->
<g id="edge17" class="edge">
<title>STATE_B&#45;&gt;SYMBOL_x</title>
<path fill="none" stroke="#000000" stroke-dasharray="5,2" d="M604.0044,-165.2349C611.2965,-200.6749 628.8905,-277.9434 647.2211,-297.306 702.3307,-355.5178 739.9961,-335.4981 816.2211,-360.306 875.8996,-379.7286 909.9451,-351.9216 952.2211,-398.306 982.3462,-431.3586 936.4713,-467.964 970.2211,-497.306 1077.0962,-590.2227 1465.609,-514.9574 1607.2211,-516.306 1670.7738,-516.9112 1687.1666,-524.2705 1750.2211,-516.306 1754.4292,-515.7744 1758.8009,-514.9838 1763.107,-514.0574"/>
<polygon fill="#000000" stroke="#000000" points="1764.0167,-517.4386 1772.9276,-511.7074 1762.3876,-510.6309 1764.0167,-517.4386"/>
<text text-anchor="middle" x="1202.7211" y="-546.306" font-family="Courier,monospace" font-weight="bold" font-size="10.00" fill="#000000">0.36465012661063506</text>
</g>
<!-- STATE_B&#45;&gt;SYMBOL_z -->
<g id="edge18" class="edge">
<title>STATE_B&#45;&gt;SYMBOL_z</title>
<path fill="none" stroke="#000000" stroke-dasharray="5,2" d="M628.4496,-139.0227C634.583,-137.5168 641.0796,-136.1556 647.2211,-135.306 781.5092,-116.727 816.6774,-128.7812 952.2211,-131.306 1041.0983,-132.9615 1677.3854,-137.3466 1750.2211,-188.306 1774.5518,-205.3289 1786.4806,-238.2465 1792.1501,-262.0929"/>
<polygon fill="#000000" stroke="#000000" points="1788.7562,-262.9591 1794.2758,-272.0026 1795.6006,-261.4909 1788.7562,-262.9591"/>
<text text-anchor="middle" x="1202.7211" y="-140.306" font-family="Courier,monospace" font-weight="bold" font-size="10.00" fill="#000000">0.12077752974290627</text>
</g>
<!-- STATE_B&#45;&gt;SYMBOL_y -->
<g id="edge19" class="edge">
<title>STATE_B&#45;&gt;SYMBOL_y</title>
<path fill="none" stroke="#000000" stroke-dasharray="5,2" d="M606.0909,-129.2548C612.7699,-111.0716 625.7978,-83.8289 647.2211,-70.306 736.7491,-13.7937 778.3491,-46.306 884.2211,-46.306 884.2211,-46.306 884.2211,-46.306 1521.2211,-46.306 1610.4656,-46.306 1710.8405,-82.0501 1762.356,-103.1685"/>
<polygon fill="#000000" stroke="#000000" points="1761.1143,-106.4428 1771.6914,-107.056 1763.8053,-99.9807 1761.1143,-106.4428"/>
<text text-anchor="middle" x="1202.7211" y="-49.306" font-family="Courier,monospace" font-weight="bold" font-size="10.00" fill="#000000">0.5145723436464587</text>
</g>
<!-- STATE_C&#45;&gt;STATE_F -->
<g id="edge6" class="edge">
<title>STATE_C&#45;&gt;STATE_F</title>
<path fill="none" stroke="#000000" d="M911.6519,-179.8036C968.254,-184.9573 1098.1562,-196.7851 1163.5691,-202.7411"/>
<polygon fill="#000000" stroke="#000000" points="1163.5942,-206.2578 1173.8704,-203.679 1164.229,-199.2866 1163.5942,-206.2578"/>
<text text-anchor="middle" x="1041.7211" y="-200.306" font-family="Courier,monospace" font-weight="bold" font-size="10.00" fill="#000000">1.0</text>
</g>
<!-- STATE_D&#45;&gt;STATE_A -->
<g id="edge7" class="edge">
<title>STATE_D&#45;&gt;STATE_A</title>
<path fill="none" stroke="#000000" d="M1013.7202,-472.234C905.6741,-479.196 516.6599,-499.7148 410.7342,-442.306 373.4426,-422.095 348.4266,-377.8684 335.3988,-349.1212"/>
<polygon fill="#000000" stroke="#000000" points="338.4848,-347.4407 331.2902,-339.6633 332.0644,-350.2298 338.4848,-347.4407"/>
<text text-anchor="middle" x="600.4777" y="-481.306" font-family="Courier,monospace" font-weight="bold" font-size="10.00" fill="#000000">1.0</text>
</g>
<!-- STATE_D&#45;&gt;SYMBOL_x -->
<g id="edge20" class="edge">
<title>STATE_D&#45;&gt;SYMBOL_x</title>
<path fill="none" stroke="#000000" stroke-dasharray="5,2" d="M1068.696,-473.8553C1086.4332,-476.0568 1110.1712,-478.7528 1131.2211,-480.306 1369.0593,-497.855 1655.6822,-502.7044 1758.191,-503.927"/>
<polygon fill="#000000" stroke="#000000" points="1758.3326,-507.4287 1768.3721,-504.0436 1758.4129,-500.4292 1758.3326,-507.4287"/>
<text text-anchor="middle" x="1363.7211" y="-498.306" font-family="Courier,monospace" font-weight="bold" font-size="10.00" fill="#000000">0.2370828701550448</text>
</g>
<!-- STATE_D&#45;&gt;SYMBOL_z -->
<g id="edge21" class="edge">
<title>STATE_D&#45;&gt;SYMBOL_z</title>
<path fill="none" stroke="#000000" stroke-dasharray="5,2" d="M1069.6451,-472.3881C1135.1098,-476.4031 1302.9422,-481.6454 1435.2211,-442.306 1443.9931,-439.6972 1444.7559,-435.7835 1453.2211,-432.306 1511.2732,-408.4582 1529.2283,-412.735 1589.2211,-394.306 1661.367,-372.1436 1686.7344,-381.1182 1750.2211,-340.306 1761.0447,-333.348 1771.0749,-323.3308 1779.0463,-314.0871"/>
<polygon fill="#000000" stroke="#000000" points="1781.8367,-316.2044 1785.4898,-306.2593 1776.4322,-311.7557 1781.8367,-316.2044"/>
<text text-anchor="middle" x="1363.7211" y="-471.306" font-family="Courier,monospace" font-weight="bold" font-size="10.00" fill="#000000">0.342117402453705</text>
</g>
<!-- STATE_D&#45;&gt;SYMBOL_y -->
<g id="edge22" class="edge">
<title>STATE_D&#45;&gt;SYMBOL_y</title>
<path fill="none" stroke="#000000" stroke-dasharray="5,2" d="M1070.6129,-465.1127C1117.1978,-456.7918 1211.8221,-440.108 1292.2211,-427.306 1355.6591,-417.2047 1375.2594,-429.3498 1435.2211,-406.306 1444.196,-402.8568 1444.4282,-398.1957 1453.2211,-394.306 1510.1997,-369.1004 1544.1532,-403.3264 1589.2211,-360.306 1609.3597,-341.0823 1587.9189,-320.3692 1607.2211,-300.306 1653.7996,-251.8909 1702.5293,-298.6248 1750.2211,-251.306 1778.6929,-223.0568 1789.8673,-176.4742 1794.2227,-146.6058"/>
<polygon fill="#000000" stroke="#000000" points="1797.7281,-146.7888 1795.5382,-136.4228 1790.7858,-145.8919 1797.7281,-146.7888"/>
<text text-anchor="middle" x="1363.7211" y="-430.306" font-family="Courier,monospace" font-weight="bold" font-size="10.00" fill="#000000">0.4207997273912502</text>
</g>
<!-- STATE_E&#45;&gt;STATE_A -->
<g id="edge8" class="edge">
<title>STATE_E&#45;&gt;STATE_A</title>
<path fill="none" stroke="#000000" d="M1497.015,-340.6504C1479.9242,-345.4814 1456.3892,-351.4249 1435.2211,-354.306 1364.2851,-363.9606 1345.8007,-358.0836 1274.2211,-359.306 962.0499,-364.637 883.8514,-366.188 571.7342,-358.306 500.1518,-356.4982 481.0985,-365.5791 410.7342,-352.306 392.0754,-348.7863 371.9996,-341.968 355.9411,-335.7201"/>
<polygon fill="#000000" stroke="#000000" points="357.0945,-332.4117 346.5103,-331.9381 354.489,-338.9087 357.0945,-332.4117"/>
<text text-anchor="middle" x="884.2211" y="-366.306" font-family="Courier,monospace" font-weight="bold" font-size="10.00" fill="#000000">1.0</text>
</g>
<!-- STATE_E&#45;&gt;SYMBOL_x -->
<g id="edge23" class="edge">
<title>STATE_E&#45;&gt;SYMBOL_x</title>
<path fill="none" stroke="#000000" stroke-dasharray="5,2" d="M1544.9346,-340.9309C1588.8125,-355.8516 1684.2045,-392.157 1750.2211,-445.306 1761.9017,-454.7099 1772.5026,-467.5377 1780.6448,-478.8304"/>
<polygon fill="#000000" stroke="#000000" points="1777.7943,-480.8619 1786.3691,-487.0847 1783.5465,-476.8728 1777.7943,-480.8619"/>
<text text-anchor="middle" x="1678.7211" y="-448.306" font-family="Courier,monospace" font-weight="bold" font-size="10.00" fill="#000000">0.15760907138715222</text>
</g>
<!-- STATE_E&#45;&gt;SYMBOL_z -->
<g id="edge24" class="edge">
<title>STATE_E&#45;&gt;SYMBOL_z</title>
<path fill="none" stroke="#000000" stroke-dasharray="5,2" d="M1550.0356,-331.1923C1593.6948,-327.6453 1679.061,-319.3606 1750.2211,-304.306 1754.6292,-303.3734 1759.2234,-302.224 1763.736,-300.9881"/>
<polygon fill="#000000" stroke="#000000" points="1764.7489,-304.3387 1773.3806,-298.1951 1762.8017,-297.615 1764.7489,-304.3387"/>
<text text-anchor="middle" x="1678.7211" y="-328.306" font-family="Courier,monospace" font-weight="bold" font-size="10.00" fill="#000000">0.7122473266289889</text>
</g>
<!-- STATE_E&#45;&gt;SYMBOL_y -->
<g id="edge25" class="edge">
<title>STATE_E&#45;&gt;SYMBOL_y</title>
<path fill="none" stroke="#000000" stroke-dasharray="5,2" d="M1534.4017,-316.6591C1550.3881,-297.0697 1578.7468,-264.19 1607.2211,-240.306 1659.639,-196.3381 1728.8753,-155.5656 1767.5664,-134.1021"/>
<polygon fill="#000000" stroke="#000000" points="1769.6399,-136.9563 1776.7162,-129.0711 1766.2671,-130.8224 1769.6399,-136.9563"/>
<text text-anchor="middle" x="1678.7211" y="-243.306" font-family="Courier,monospace" font-weight="bold" font-size="10.00" fill="#000000">0.1301436019838589</text>
</g>
<!-- STATE_F&#45;&gt;STATE_B -->
<g id="edge9" class="edge">
<title>STATE_F&#45;&gt;STATE_B</title>
<path fill="none" stroke="#000000" d="M1174.5386,-198.2999C1156.9329,-193.3317 1133.78,-186.8585 1113.2211,-181.306 1041.8288,-162.0244 1025.5703,-148.7158 952.2211,-139.306 892.268,-131.6147 876.6552,-138.1859 816.2211,-139.306 754.424,-140.4513 682.7213,-143.4406 639.5161,-145.423"/>
<polygon fill="#000000" stroke="#000000" points="639.2586,-141.9311 629.4318,-145.8912 639.5834,-148.9235 639.2586,-141.9311"/>
<text text-anchor="middle" x="884.2211" y="-142.306" font-family="Courier,monospace" font-weight="bold" font-size="10.00" fill="#000000">0.7001858034669421</text>
</g>
<!-- STATE_F&#45;&gt;STATE_E -->
<g id="edge10" class="edge">
<title>STATE_F&#45;&gt;STATE_E</title>
<path fill="none" stroke="#000000" d="M1225.1174,-215.2364C1279.5292,-236.9327 1419.0608,-292.5701 1485.2913,-318.9792"/>
<polygon fill="#000000" stroke="#000000" points="1484.305,-322.3538 1494.8902,-322.8067 1486.8978,-315.8517 1484.305,-322.3538"/>
<text text-anchor="middle" x="1363.7211" y="-298.306" font-family="Courier,monospace" font-weight="bold" font-size="10.00" fill="#000000">0.29981419653305785</text>
</g>
<!-- STATE_F&#45;&gt;SYMBOL_x -->
<g id="edge26" class="edge">
<title>STATE_F&#45;&gt;SYMBOL_x</title>
<path fill="none" stroke="#000000" stroke-dasharray="5,2" d="M1213.4197,-222.6431C1228.6747,-244.9011 1258.582,-284.8867 1292.2211,-310.306 1415.332,-403.3343 1461.4275,-405.7609 1607.2211,-456.306 1668.9443,-477.7047 1687.1268,-473.3717 1750.2211,-490.306 1753.233,-491.1143 1756.3453,-491.9797 1759.4668,-492.869"/>
<polygon fill="#000000" stroke="#000000" points="1758.7768,-496.3135 1769.3567,-495.7503 1760.7348,-489.5929 1758.7768,-496.3135"/>
<text text-anchor="middle" x="1521.2211" y="-452.306" font-family="Courier,monospace" font-weight="bold" font-size="10.00" fill="#000000">0.1854344444836496</text>
</g>
<!-- STATE_F&#45;&gt;SYMBOL_z -->
<g id="edge27" class="edge">
<title>STATE_F&#45;&gt;SYMBOL_z</title>
<path fill="none" stroke="#000000" stroke-dasharray="5,2" d="M1231.7101,-203.6239C1331.5853,-194.9031 1660.186,-170.6744 1750.2211,-220.306 1767.0719,-229.5949 1778.9545,-247.8469 1786.5217,-263.3843"/>
<polygon fill="#000000" stroke="#000000" points="1783.3783,-264.9279 1790.6815,-272.6034 1789.7588,-262.0488 1783.3783,-264.9279"/>
<text text-anchor="middle" x="1521.2211" y="-194.306" font-family="Courier,monospace" font-weight="bold" font-size="10.00" fill="#000000">0.5005105530301552</text>
</g>
<!-- STATE_F&#45;&gt;SYMBOL_y -->
<g id="edge28" class="edge">
<title>STATE_F&#45;&gt;SYMBOL_y</title>
<path fill="none" stroke="#000000" stroke-dasharray="5,2" d="M1231.2356,-199.6949C1248.7657,-195.7697 1271.7214,-190.8781 1292.2211,-187.306 1466.2293,-156.9841 1675.9195,-131.9795 1759.7231,-122.4492"/>
<polygon fill="#000000" stroke="#000000" points="1760.2294,-125.9143 1769.7724,-121.312 1759.4423,-118.9587 1760.2294,-125.9143"/>
<text text-anchor="middle" x="1521.2211" y="-164.306" font-family="Courier,monospace" font-weight="bold" font-size="10.00" fill="#000000">0.3140550024861953</text>
</g>
<!-- STATE_SOURCE -->
<g id="node7" class="node">
<title>STATE_SOURCE</title>
<polygon fill="none" stroke="#000000" points="42.4515,-304.3553 44.8246,-304.4538 47.1732,-304.6013 49.4877,-304.7973 51.7587,-305.0413 53.9771,-305.3326 56.134,-305.6704 58.2213,-306.0539 60.2308,-306.4818 62.1552,-306.9532 63.9875,-307.4666 65.7213,-308.0207 67.3509,-308.614 68.8711,-309.2447 70.2774,-309.9113 71.5659,-310.6119 72.7335,-311.3445 73.7776,-312.1072 74.6964,-312.8978 75.4887,-313.7142 76.1541,-314.5541 76.6926,-315.4153 77.105,-316.2954 77.3927,-317.1919 77.5574,-318.1025 77.6018,-319.0246 77.5286,-319.9557 77.3412,-320.8932 77.0434,-321.8346 76.6393,-322.7773 76.1334,-323.7187 75.5302,-324.6562 74.8348,-325.5873 74.0521,-326.5094 73.1874,-327.42 72.246,-328.3165 71.2329,-329.1966 70.1536,-330.0578 69.0132,-330.8978 67.8168,-331.7142 66.5693,-332.5048 65.2754,-333.2674 63.9398,-334 62.5668,-334.7006 61.1606,-335.3672 59.7248,-335.998 58.2633,-336.5912 56.7792,-337.1453 55.2756,-337.6587 53.7553,-338.1301 52.2208,-338.5581 50.6744,-338.9415 49.118,-339.2793 47.5535,-339.5706 45.9824,-339.8146 44.4062,-340.0106 42.8263,-340.1581 41.2436,-340.2566 39.6595,-340.306 38.0748,-340.306 36.4906,-340.2566 34.908,-340.1581 33.328,-340.0106 31.7518,-339.8146 30.1808,-339.5706 28.6162,-339.2793 27.0598,-338.9415 25.5134,-338.5581 23.9789,-338.1301 22.4586,-337.6587 20.955,-337.1453 19.4709,-336.5912 18.0094,-335.998 16.5737,-335.3672 15.1674,-334.7006 13.7944,-334 12.4588,-333.2674 11.1649,-332.5048 9.9174,-331.7142 8.721,-330.8978 7.5806,-330.0578 6.5013,-329.1966 5.4883,-328.3165 4.5468,-327.42 3.6821,-326.5094 2.8994,-325.5873 2.204,-324.6562 1.6009,-323.7187 1.0949,-322.7773 .6908,-321.8346 .393,-320.8932 .2056,-319.9557 .1324,-319.0246 .1768,-318.1025 .3416,-317.1919 .6292,-316.2954 1.0416,-315.4153 1.5801,-314.5541 2.2455,-313.7142 3.0379,-312.8978 3.9567,-312.1072 5.0008,-311.3445 6.1683,-310.6119 7.4568,-309.9113 8.8631,-309.2447 10.3833,-308.614 12.0129,-308.0207 13.7467,-307.4666 15.579,-306.9532 17.5034,-306.4818 19.513,-306.0539 21.6002,-305.6704 23.7572,-305.3326 25.9755,-305.0413 28.2465,-304.7973 30.561,-304.6013 32.9096,-304.4538 35.2827,-304.3553 37.6707,-304.306 40.0635,-304.306 42.4515,-304.3553"/>
<text text-anchor="middle" x="38.8671" y="-319.806" font-family="Courier,monospace" font-weight="bold" font-size="10.00" fill="#000000">SOURCE</text>
</g>
<!-- STATE_SOURCE&#45;&gt;STATE_A -->
<g id="edge11" class="edge">
<title>STATE_SOURCE&#45;&gt;STATE_A</title>
<path fill="none" stroke="#000000" d="M77.1238,-322.306C131.7228,-322.306 231.431,-322.306 286.1886,-322.306"/>
<polygon fill="#000000" stroke="#000000" points="286.1917,-325.8061 296.1916,-322.306 286.1916,-318.8061 286.1917,-325.8061"/>
<text text-anchor="middle" x="167.2342" y="-325.306" font-family="Courier,monospace" font-weight="bold" font-size="10.00" fill="#000000">0.11271205133746391</text>
</g>
<!-- STATE_SOURCE&#45;&gt;STATE_B -->
<g id="edge12" class="edge">
<title>STATE_SOURCE&#45;&gt;STATE_B</title>
<path fill="none" stroke="#000000" d="M62.3269,-306.7014C119.1182,-269.9792 269.7268,-178.8269 410.7342,-147.306 461.7179,-135.909 522.3515,-138.6327 561.1129,-142.3556"/>
<polygon fill="#000000" stroke="#000000" points="561.1329,-145.8762 571.4394,-143.4212 561.8515,-138.9131 561.1329,-145.8762"/>
<text text-anchor="middle" x="324.7342" y="-202.306" font-family="Courier,monospace" font-weight="bold" font-size="10.00" fill="#000000">0.4007165969798245</text>
</g>
<!-- STATE_SOURCE&#45;&gt;STATE_D -->
<g id="edge13" class="edge">
<title>STATE_SOURCE&#45;&gt;STATE_D</title>
<path fill="none" stroke="#000000" d="M48.8893,-339.5182C81.3335,-392.7748 189.2869,-551.306 324.7342,-551.306 324.7342,-551.306 324.7342,-551.306 722.7211,-551.306 831.0662,-551.306 953.9199,-506.8683 1010.3501,-483.8215"/>
<polygon fill="#000000" stroke="#000000" points="1011.8794,-486.9765 1019.7786,-479.9158 1009.2004,-480.5094 1011.8794,-486.9765"/>
<text text-anchor="middle" x="482.2342" y="-554.306" font-family="Courier,monospace" font-weight="bold" font-size="10.00" fill="#000000">0.4865713516827116</text>
</g>
</g>
</svg>
