<svg class="bob" font-family="arial" font-size="14" height="496" width="1248" xmlns="http://www.w3.org/2000/svg">
<defs>
<marker id="triangle" markerHeight="8" markerWidth="8" orient="auto" refX="4" refY="2" viewBox="0 0 8 4">
<polygon class="fg_fill" points="0,0 0,4 8,2 0,0"/>
</marker>
<marker id="clear_triangle" markerHeight="10" markerWidth="10" orient="auto" refX="1" refY="7" viewBox="0 0 20 14">
<polygon class="bg_fill" points="2,2 2,12 18,7 2,2"/>
</marker>
<marker id="circle" markerHeight="5" markerWidth="5" orient="auto" refX="10" refY="10" viewBox="0 0 20 20">
<circle class="fg_fill" cx="10" cy="10" r="8"/>
</marker>
<marker id="square" markerHeight="5" markerWidth="5" orient="auto" refX="10" refY="10" viewBox="0 0 20 20">
<rect class="fg_fill" height="20" width="20" x="0" y="0"/>
</marker>
<marker id="open_circle" markerHeight="10" markerWidth="10" orient="auto" refX="10" refY="10" viewBox="0 0 20 20">
<circle class="bg_fill" cx="10" cy="10" r="4"/>
</marker>
<marker id="big_open_circle" markerHeight="20" markerWidth="20" orient="auto" refX="20" refY="20" viewBox="0 0 40 40">
<circle class="bg_fill" cx="20" cy="20" r="6"/>
</marker>
</defs>
<style type="text/css">

rect.backdrop {
    fill: white;
}
text{
    fill: black;
}

circle {
    fill: none;
    stroke: black;
    stroke-width: 2;
}

line {
    stroke: black;
    stroke-width: 2;
    stroke-opacity: 1;
    fill-opacity: 1;
    stroke-linecap: round;
    stroke-linejoin: miter;
}

path {
    fill: none;
    stroke: black;
    stroke-width: 2;
    stroke-opacity: 1;
    fill-opacity: 1;
    stroke-linecap: round;
    stroke-linejoin: miter;
}

line.dashed {
    stroke-dasharray: 5;
}

.fg_fill {
    fill: black;
}


.bg_fill {
    fill: white;
    stroke: black;
    stroke-width: 2;
}

tspan.head{
    fill: none;
    stroke: none;
}
    
</style>
<rect class="backdrop" height="496" width="1248" x="0" y="0"/>
<g>
<line marker-end="url(#triangle)" x1="20" x2="20" y1="64" y2="52"/>
<line x1="20" x2="20" y1="64" y2="440"/>
<line marker-end="url(#triangle)" x1="20" x2="548" y1="440" y2="440"/>
</g>
<g>
<line marker-end="url(#triangle)" x1="584" x2="644" y1="232" y2="232"/>
</g>
<g>
<line marker-end="url(#triangle)" x1="700" x2="700" y1="64" y2="52"/>
<line x1="700" x2="700" y1="64" y2="440"/>
<line marker-end="url(#triangle)" x1="700" x2="1228" y1="440" y2="440"/>
</g>
<g>
<line marker-end="url(#triangle)" marker-start="url(#circle)" x1="724" x2="798" y1="88" y2="236"/>
</g>
<g>
<line marker-end="url(#triangle)" marker-start="url(#circle)" x1="844" x2="870" y1="312" y2="364"/>
</g>
<g>
<line marker-end="url(#triangle)" marker-start="url(#circle)" x1="900" x2="926" y1="296" y2="244"/>
</g>
<g>
<line marker-end="url(#triangle)" marker-start="url(#circle)" x1="1052" x2="1078" y1="376" y2="428"/>
</g>
<g>
<text x="1" y="76">
3&#39;
</text>
</g>
<g>
<text x="1" y="428">
5&#39;
</text>
</g>
<g>
<text x="9" y="12">
*
</text>
</g>
<g>
<text x="9" y="28">
*
</text>
</g>
<g>
<text x="9" y="188">
g
</text>
</g>
<g>
<text x="9" y="204">
e
</text>
</g>
<g>
<text x="9" y="220">
n
</text>
</g>
<g>
<text x="9" y="236">
o
</text>
</g>
<g>
<text x="9" y="252">
m
</text>
</g>
<g>
<text x="9" y="268">
e
</text>
</g>
<g>
<text x="9" y="284">
1
</text>
</g>
<g>
<text x="9" y="492">
*
</text>
</g>
<g>
<text x="25" y="12">
N = normal k-mer match
</text>
</g>
<g>
<text x="25" y="28">
R = reverse complement k-mer match
</text>
</g>
<g>
<text x="25" y="460">
5&#39;
</text>
</g>
<g>
<text x="25" y="492">
Remember that the direction of DNA is 5&#39; to 3&#39;.
</text>
</g>
<g>
<text x="41" y="92">
R
</text>
</g>
<g>
<text x="49" y="108">
R
</text>
</g>
<g>
<text x="49" y="252">
N
</text>
</g>
<g>
<text x="57" y="124">
R
</text>
</g>
<g>
<text x="57" y="364">
R
</text>
</g>
<g>
<text x="73" y="140">
R
</text>
</g>
<g>
<text x="73" y="284">
N
</text>
</g>
<g>
<text x="81" y="156">
R
</text>
</g>
<g>
<text x="81" y="172">
R
</text>
</g>
<g>
<text x="81" y="428">
R
</text>
</g>
<g>
<text x="89" y="188">
R
</text>
</g>
<g>
<text x="105" y="204">
R
</text>
</g>
<g>
<text x="113" y="220">
R
</text>
</g>
<g>
<text x="121" y="236">
R
</text>
</g>
<g>
<text x="129" y="396">
N
</text>
</g>
<g>
<text x="145" y="108">
N
</text>
</g>
<g>
<text x="161" y="316">
R
</text>
</g>
<g>
<text x="177" y="332">
R
</text>
</g>
<g>
<text x="185" y="124">
R
</text>
</g>
<g>
<text x="185" y="348">
R
</text>
</g>
<g>
<text x="193" y="364">
R
</text>
</g>
<g>
<text x="193" y="428">
R
</text>
</g>
<g>
<text x="209" y="172">
N
</text>
</g>
<g>
<text x="217" y="300">
N
</text>
</g>
<g>
<text x="225" y="284">
N
</text>
</g>
<g>
<text x="233" y="268">
N
</text>
</g>
<g>
<text x="249" y="252">
N
</text>
</g>
<g>
<text x="249" y="396">
N
</text>
</g>
<g>
<text x="249" y="460">
genome2
</text>
</g>
<g>
<text x="265" y="204">
R
</text>
</g>
<g>
<text x="289" y="92">
R
</text>
</g>
<g>
<text x="297" y="140">
R
</text>
</g>
<g>
<text x="337" y="268">
N
</text>
</g>
<g>
<text x="345" y="300">
N
</text>
</g>
<g>
<text x="353" y="428">
R
</text>
</g>
<g>
<text x="361" y="204">
N
</text>
</g>
<g>
<text x="369" y="380">
R
</text>
</g>
<g>
<text x="385" y="396">
R
</text>
</g>
<g>
<text x="393" y="140">
N
</text>
</g>
<g>
<text x="393" y="412">
R
</text>
</g>
<g>
<text x="401" y="428">
R
</text>
</g>
<g>
<text x="425" y="236">
R
</text>
</g>
<g>
<text x="425" y="300">
N
</text>
</g>
<g>
<text x="489" y="380">
R
</text>
</g>
<g>
<text x="489" y="412">
R
</text>
</g>
<g>
<text x="529" y="460">
3&#39;
</text>
</g>
<g>
<text x="585" y="252">
CLUSTER
</text>
</g>
<g>
<text x="681" y="76">
3&#39;
</text>
</g>
<g>
<text x="681" y="428">
5&#39;
</text>
</g>
<g>
<text x="689" y="188">
g
</text>
</g>
<g>
<text x="689" y="204">
e
</text>
</g>
<g>
<text x="689" y="220">
n
</text>
</g>
<g>
<text x="689" y="236">
o
</text>
</g>
<g>
<text x="689" y="252">
m
</text>
</g>
<g>
<text x="689" y="268">
e
</text>
</g>
<g>
<text x="689" y="284">
1
</text>
</g>
<g>
<text x="705" y="460">
5&#39;
</text>
</g>
<g>
<text x="745" y="172">
A
</text>
</g>
<g>
<text x="841" y="348">
B
</text>
</g>
<g>
<text x="897" y="268">
C
</text>
</g>
<g>
<text x="929" y="460">
genome2
</text>
</g>
<g>
<text x="1049" y="412">
D
</text>
</g>
<g>
<text x="1209" y="460">
3&#39;
</text>
</g>
</svg>
