<svg class="bob" font-family="arial" font-size="14" height="48" width="400" xmlns="http://www.w3.org/2000/svg">
<defs>
<marker id="triangle" markerHeight="8" markerWidth="8" orient="auto" refX="4" refY="2" viewBox="0 0 8 4">
<polygon class="fg_fill" points="0,0 0,4 8,2 0,0"/>
</marker>
<marker id="clear_triangle" markerHeight="10" markerWidth="10" orient="auto" refX="1" refY="7" viewBox="0 0 20 14">
<polygon class="bg_fill" points="2,2 2,12 18,7 2,2"/>
</marker>
<marker id="circle" markerHeight="5" markerWidth="5" orient="auto" refX="10" refY="10" viewBox="0 0 20 20">
<circle class="fg_fill" cx="10" cy="10" r="8"/>
</marker>
<marker id="square" markerHeight="5" markerWidth="5" orient="auto" refX="10" refY="10" viewBox="0 0 20 20">
<rect class="fg_fill" height="20" width="20" x="0" y="0"/>
</marker>
<marker id="open_circle" markerHeight="10" markerWidth="10" orient="auto" refX="10" refY="10" viewBox="0 0 20 20">
<circle class="bg_fill" cx="10" cy="10" r="4"/>
</marker>
<marker id="big_open_circle" markerHeight="20" markerWidth="20" orient="auto" refX="20" refY="20" viewBox="0 0 40 40">
<circle class="bg_fill" cx="20" cy="20" r="6"/>
</marker>
</defs>
<style type="text/css">

rect.backdrop {
    fill: white;
}
text{
    fill: black;
}

circle {
    fill: none;
    stroke: black;
    stroke-width: 2;
}

line {
    stroke: black;
    stroke-width: 2;
    stroke-opacity: 1;
    fill-opacity: 1;
    stroke-linecap: round;
    stroke-linejoin: miter;
}

path {
    fill: none;
    stroke: black;
    stroke-width: 2;
    stroke-opacity: 1;
    fill-opacity: 1;
    stroke-linecap: round;
    stroke-linejoin: miter;
}

line.dashed {
    stroke-dasharray: 5;
}

.fg_fill {
    fill: black;
}


.bg_fill {
    fill: white;
    stroke: black;
    stroke-width: 2;
}

tspan.head{
    fill: none;
    stroke: none;
}
    
</style>
<rect class="backdrop" height="48" width="400" x="0" y="0"/>
<g>
<line x1="4" x2="4" y1="12" y2="36"/>
<path d="M 4 36 A 4 4 0 0 0 8 40"/>
<path d="M 8 8 A 4 4 0 0 0 4 12"/>
</g>
<g>
<line x1="8" x2="72" y1="8" y2="8"/>
<path d="M 76 12 A 4 4 0 0 0 72 8"/>
</g>
<g>
<line x1="8" x2="72" y1="40" y2="40"/>
<path d="M 72 40 A 4 4 0 0 0 76 36"/>
</g>
<g>
<line x1="76" x2="76" y1="12" y2="24"/>
<line x1="76" x2="76" y1="24" y2="36"/>
<line x1="76" x2="220" y1="24" y2="24"/>
<line x1="220" x2="220" y1="12" y2="24"/>
<line x1="220" x2="220" y1="24" y2="36"/>
<path d="M 220 36 A 4 4 0 0 0 224 40"/>
<path d="M 224 8 A 4 4 0 0 0 220 12"/>
</g>
<g>
<line x1="224" x2="392" y1="8" y2="8"/>
<path d="M 396 12 A 4 4 0 0 0 392 8"/>
</g>
<g>
<line x1="224" x2="392" y1="40" y2="40"/>
<path d="M 392 40 A 4 4 0 0 0 396 36"/>
</g>
<g>
<line x1="396" x2="396" y1="12" y2="36"/>
</g>
<g>
<text x="17" y="28">
Region
</text>
</g>
<g>
<text x="89" y="44">
1
</text>
</g>
<g>
<text x="193" y="44">
2+
</text>
</g>
<g>
<text x="233" y="28">
Availability zone
</text>
</g>
</svg>
