<svg class="bob" font-family="arial" font-size="14" height="160" width="464" xmlns="http://www.w3.org/2000/svg">
<defs>
<marker id="triangle" markerHeight="8" markerWidth="8" orient="auto" refX="4" refY="2" viewBox="0 0 8 4">
<polygon class="fg_fill" points="0,0 0,4 8,2 0,0"/>
</marker>
<marker id="clear_triangle" markerHeight="10" markerWidth="10" orient="auto" refX="1" refY="7" viewBox="0 0 20 14">
<polygon class="bg_fill" points="2,2 2,12 18,7 2,2"/>
</marker>
<marker id="circle" markerHeight="5" markerWidth="5" orient="auto" refX="10" refY="10" viewBox="0 0 20 20">
<circle class="fg_fill" cx="10" cy="10" r="8"/>
</marker>
<marker id="square" markerHeight="5" markerWidth="5" orient="auto" refX="10" refY="10" viewBox="0 0 20 20">
<rect class="fg_fill" height="20" width="20" x="0" y="0"/>
</marker>
<marker id="open_circle" markerHeight="10" markerWidth="10" orient="auto" refX="10" refY="10" viewBox="0 0 20 20">
<circle class="bg_fill" cx="10" cy="10" r="4"/>
</marker>
<marker id="big_open_circle" markerHeight="20" markerWidth="20" orient="auto" refX="20" refY="20" viewBox="0 0 40 40">
<circle class="bg_fill" cx="20" cy="20" r="6"/>
</marker>
</defs>
<style type="text/css">

rect.backdrop {
    fill: white;
}
text{
    fill: black;
}

circle {
    fill: none;
    stroke: black;
    stroke-width: 2;
}

line {
    stroke: black;
    stroke-width: 2;
    stroke-opacity: 1;
    fill-opacity: 1;
    stroke-linecap: round;
    stroke-linejoin: miter;
}

path {
    fill: none;
    stroke: black;
    stroke-width: 2;
    stroke-opacity: 1;
    fill-opacity: 1;
    stroke-linecap: round;
    stroke-linejoin: miter;
}

line.dashed {
    stroke-dasharray: 5;
}

.fg_fill {
    fill: black;
}


.bg_fill {
    fill: white;
    stroke: black;
    stroke-width: 2;
}

tspan.head{
    fill: none;
    stroke: none;
}
    
</style>
<rect class="backdrop" height="160" width="464" x="0" y="0"/>
<g>
<line x1="290" x2="270" y1="60" y2="100"/>
<path d="M 270 100 A 16 16 0 0 0 268 108"/>
<path d="M 296 56 A 8 8 0 0 0 290 60"/>
<line marker-end="url(#open_circle)" x1="268" x2="268" y1="108" y2="152"/>
<line marker-end="url(#triangle)" marker-start="url(#open_circle)" x1="268" x2="324" y1="152" y2="152"/>
<line marker-end="url(#open_circle)" x1="298" x2="268" y1="92" y2="152"/>
</g>
<g>
<line x1="296" x2="432" y1="56" y2="56"/>
<path d="M 438 60 A 8 8 0 0 0 432 56"/>
</g>
<g>
<line x1="304" x2="360" y1="88" y2="88"/>
<path d="M 304 88 A 8 8 0 0 0 298 92"/>
<path d="M 366 92 A 8 8 0 0 0 360 88"/>
</g>
<g>
<line x1="360" x2="372" y1="104" y2="104"/>
<line x1="372" x2="432" y1="104" y2="104"/>
<path d="M 360 104 A 8 8 0 0 0 354 108"/>
<path d="M 438 108 A 8 8 0 0 0 432 104"/>
<line marker-end="url(#open_circle)" x1="354" x2="332" y1="108" y2="152"/>
</g>
<g>
<line marker-end="url(#triangle)" x1="366" x2="390" y1="92" y2="140"/>
</g>
<g>
<line x1="438" x2="458" y1="60" y2="100"/>
<path d="M 460 108 A 16 16 0 0 0 458 100"/>
</g>
<g>
<line marker-end="url(#triangle)" x1="438" x2="454" y1="108" y2="140"/>
</g>
<g>
<line marker-end="url(#triangle)" x1="460" x2="460" y1="108" y2="140"/>
</g>
<g>
<text x="1" y="12">
Row before:
</text>
</g>
<g>
<text x="33" y="44">
T
</text>
</g>
<g>
<text x="97" y="44">
A
</text>
</g>
<g>
<text x="161" y="44">
A
</text>
</g>
<g>
<text x="265" y="12">
Row after:
</text>
</g>
<g>
<text x="297" y="140">
T
</text>
</g>
<g>
<text x="329" y="76">
TA
</text>
</g>
<g>
<text x="353" y="44">
TAA
</text>
</g>
<g>
<text x="361" y="140">
A
</text>
</g>
<g>
<text x="393" y="92">
AA
</text>
</g>
<g>
<text x="425" y="140">
A
</text>
</g>
<g>
<line marker-end="url(#triangle)" marker-start="url(#open_circle)" x1="4" x2="60" y1="56" y2="56"/>
</g>
<g>
<line marker-start="url(#open_circle)" x1="68" x2="64" y1="56" y2="56"/>
<line marker-end="url(#triangle)" marker-start="url(#open_circle)" x1="68" x2="124" y1="56" y2="56"/>
</g>
<g>
<line marker-start="url(#open_circle)" x1="132" x2="128" y1="56" y2="56"/>
<line marker-end="url(#triangle)" marker-start="url(#open_circle)" x1="132" x2="188" y1="56" y2="56"/>
</g>
<g>
<line marker-start="url(#open_circle)" x1="196" x2="192" y1="56" y2="56"/>
</g>
<g>
<line marker-start="url(#open_circle)" x1="332" x2="328" y1="152" y2="152"/>
<line marker-end="url(#triangle)" marker-start="url(#open_circle)" x1="332" x2="388" y1="152" y2="152"/>
</g>
<g>
<line marker-start="url(#open_circle)" x1="396" x2="392" y1="152" y2="152"/>
<line marker-end="url(#triangle)" marker-start="url(#open_circle)" x1="396" x2="452" y1="152" y2="152"/>
</g>
<g>
<line marker-start="url(#open_circle)" x1="460" x2="456" y1="152" y2="152"/>
</g>
</svg>
