<?xml version="1.0" encoding="UTF-8" standalone="no"?>
<!DOCTYPE svg PUBLIC "-//W3C//DTD SVG 1.1//EN"
 "http://www.w3.org/Graphics/SVG/1.1/DTD/svg11.dtd">
<!-- Generated by graphviz version 2.40.1 (0)
 -->
<!-- Title: G Pages: 1 -->
<svg width="465pt" height="260pt"
 viewBox="0.00 0.00 465.19 260.00" xmlns="http://www.w3.org/2000/svg" xmlns:xlink="http://www.w3.org/1999/xlink">
<g id="graph0" class="graph" transform="scale(1 1) rotate(0) translate(4 256)">
<title>G</title>
<polygon fill="#ffffff" stroke="transparent" points="-4,4 -4,-256 461.1949,-256 461.1949,4 -4,4"/>
<!-- STATE_A -->
<g id="node1" class="node">
<title>STATE_A</title>
<polygon fill="none" stroke="#000000" points="168.1602,-78.0493 169.9363,-78.1479 171.694,-78.2953 173.4261,-78.4913 175.1257,-78.7353 176.7859,-79.0266 178.4002,-79.3645 179.9623,-79.7479 181.4662,-80.1759 182.9064,-80.6472 184.2777,-81.1606 185.5753,-81.7147 186.7949,-82.308 187.9326,-82.9388 188.9851,-83.6054 189.9494,-84.3059 190.8232,-85.0385 191.6046,-85.8012 192.2922,-86.5918 192.8852,-87.4082 193.3832,-88.2481 193.7862,-89.1093 194.0949,-89.9894 194.3101,-90.886 194.4334,-91.7965 194.4666,-92.7186 194.4118,-93.6497 194.2716,-94.5873 194.0487,-95.5287 193.7463,-96.4713 193.3677,-97.4127 192.9163,-98.3503 192.3958,-99.2814 191.8101,-100.2035 191.1629,-101.114 190.4583,-102.0106 189.7002,-102.8907 188.8925,-103.7519 188.039,-104.5918 187.1436,-105.4082 186.2099,-106.1988 185.2416,-106.9615 184.242,-107.6941 183.2145,-108.3946 182.162,-109.0612 181.0876,-109.692 179.9937,-110.2853 178.883,-110.8394 177.7578,-111.3528 176.62,-111.8241 175.4716,-112.2521 174.3142,-112.6355 173.1494,-112.9734 171.9785,-113.2647 170.8027,-113.5087 169.6231,-113.7047 168.4407,-113.8521 167.2562,-113.9507 166.0707,-114 164.8847,-114 163.6991,-113.9507 162.5146,-113.8521 161.3322,-113.7047 160.1526,-113.5087 158.9768,-113.2647 157.8059,-112.9734 156.6411,-112.6355 155.4838,-112.2521 154.3353,-111.8241 153.1976,-111.3528 152.0723,-110.8394 150.9616,-110.2853 149.8678,-109.692 148.7933,-109.0612 147.7408,-108.3946 146.7133,-107.6941 145.7137,-106.9615 144.7454,-106.1988 143.8118,-105.4082 142.9164,-104.5918 142.0629,-103.7519 141.2551,-102.8907 140.497,-102.0106 139.7924,-101.114 139.1452,-100.2035 138.5595,-99.2814 138.0391,-98.3503 137.5877,-97.4127 137.209,-96.4713 136.9066,-95.5287 136.6837,-94.5873 136.5435,-93.6497 136.4887,-92.7186 136.5219,-91.7965 136.6452,-90.886 136.8605,-89.9894 137.1691,-89.1093 137.5722,-88.2481 138.0701,-87.4082 138.6631,-86.5918 139.3507,-85.8012 140.1321,-85.0385 141.006,-84.3059 141.9703,-83.6054 143.0227,-82.9388 144.1604,-82.308 145.38,-81.7147 146.6776,-81.1606 148.0489,-80.6472 149.4891,-80.1759 150.993,-79.7479 152.5551,-79.3645 154.1694,-79.0266 155.8296,-78.7353 157.5292,-78.4913 159.2614,-78.2953 161.0191,-78.1479 162.7951,-78.0493 164.5823,-78 166.3731,-78 168.1602,-78.0493"/>
<text text-anchor="middle" x="165.4777" y="-93.5" font-family="Courier,monospace" font-weight="bold" font-size="10.00" fill="#000000">A</text>
</g>
<!-- STATE_A&#45;&gt;STATE_A -->
<g id="edge1" class="edge">
<title>STATE_A&#45;&gt;STATE_A</title>
<path fill="none" stroke="#000000" d="M155.37,-112.2903C152.9327,-122.3892 156.3019,-132 165.4777,-132 171.3559,-132 174.8511,-128.0557 175.9633,-122.5656"/>
<polygon fill="#000000" stroke="#000000" points="179.4507,-122.1548 175.5854,-112.2903 172.4554,-122.4122 179.4507,-122.1548"/>
<text text-anchor="middle" x="165.4777" y="-135" font-family="Courier,monospace" font-weight="bold" font-size="10.00" fill="#000000">0.377</text>
</g>
<!-- STATE_B -->
<g id="node2" class="node">
<title>STATE_B</title>
<polygon fill="none" stroke="#000000" points="299.6471,-78.0493 301.4231,-78.1479 303.1808,-78.2953 304.913,-78.4913 306.6126,-78.7353 308.2728,-79.0266 309.8871,-79.3645 311.4492,-79.7479 312.9531,-80.1759 314.3933,-80.6472 315.7646,-81.1606 317.0622,-81.7147 318.2818,-82.308 319.4195,-82.9388 320.4719,-83.6054 321.4363,-84.3059 322.3101,-85.0385 323.0915,-85.8012 323.7791,-86.5918 324.3721,-87.4082 324.8701,-88.2481 325.2731,-89.1093 325.5817,-89.9894 325.797,-90.886 325.9203,-91.7965 325.9535,-92.7186 325.8987,-93.6497 325.7585,-94.5873 325.5356,-95.5287 325.2332,-96.4713 324.8545,-97.4127 324.4032,-98.3503 323.8827,-99.2814 323.297,-100.2035 322.6498,-101.114 321.9452,-102.0106 321.1871,-102.8907 320.3793,-103.7519 319.5259,-104.5918 318.6305,-105.4082 317.6968,-106.1988 316.7285,-106.9615 315.7289,-107.6941 314.7014,-108.3946 313.6489,-109.0612 312.5744,-109.692 311.4806,-110.2853 310.3699,-110.8394 309.2447,-111.3528 308.1069,-111.8241 306.9585,-112.2521 305.8011,-112.6355 304.6363,-112.9734 303.4654,-113.2647 302.2896,-113.5087 301.11,-113.7047 299.9276,-113.8521 298.7431,-113.9507 297.5575,-114 296.3716,-114 295.186,-113.9507 294.0015,-113.8521 292.8191,-113.7047 291.6395,-113.5087 290.4637,-113.2647 289.2928,-112.9734 288.128,-112.6355 286.9706,-112.2521 285.8222,-111.8241 284.6844,-111.3528 283.5592,-110.8394 282.4485,-110.2853 281.3547,-109.692 280.2802,-109.0612 279.2277,-108.3946 278.2002,-107.6941 277.2006,-106.9615 276.2323,-106.1988 275.2986,-105.4082 274.4032,-104.5918 273.5498,-103.7519 272.742,-102.8907 271.9839,-102.0106 271.2793,-101.114 270.6321,-100.2035 270.0464,-99.2814 269.5259,-98.3503 269.0746,-97.4127 268.6959,-96.4713 268.3935,-95.5287 268.1706,-94.5873 268.0304,-93.6497 267.9756,-92.7186 268.0088,-91.7965 268.1321,-90.886 268.3474,-89.9894 268.656,-89.1093 269.059,-88.2481 269.557,-87.4082 270.15,-86.5918 270.8376,-85.8012 271.619,-85.0385 272.4928,-84.3059 273.4572,-83.6054 274.5096,-82.9388 275.6473,-82.308 276.8669,-81.7147 278.1645,-81.1606 279.5358,-80.6472 280.976,-80.1759 282.4799,-79.7479 284.042,-79.3645 285.6563,-79.0266 287.3165,-78.7353 289.0161,-78.4913 290.7483,-78.2953 292.506,-78.1479 294.282,-78.0493 296.0691,-78 297.86,-78 299.6471,-78.0493"/>
<text text-anchor="middle" x="296.9645" y="-93.5" font-family="Courier,monospace" font-weight="bold" font-size="10.00" fill="#000000">B</text>
</g>
<!-- STATE_A&#45;&gt;STATE_B -->
<g id="edge2" class="edge">
<title>STATE_A&#45;&gt;STATE_B</title>
<path fill="none" stroke="#000000" d="M194.0084,-96C212.8755,-96 237.8395,-96 258.4602,-96"/>
<polygon fill="#000000" stroke="#000000" points="258.4896,-99.5001 268.4895,-96 258.4895,-92.5001 258.4896,-99.5001"/>
<text text-anchor="middle" x="231.2211" y="-99" font-family="Courier,monospace" font-weight="bold" font-size="10.00" fill="#000000">0.623</text>
</g>
<!-- SYMBOL_x -->
<g id="node5" class="node">
<title>SYMBOL_x</title>
<polygon fill="none" stroke="#000000" stroke-dasharray="5,2" points="431.134,-216.0493 432.91,-216.1479 434.6677,-216.2953 436.3999,-216.4913 438.0995,-216.7353 439.7597,-217.0266 441.374,-217.3645 442.9361,-217.7479 444.44,-218.1759 445.8802,-218.6472 447.2515,-219.1606 448.5491,-219.7147 449.7687,-220.308 450.9064,-220.9388 451.9588,-221.6054 452.9231,-222.3059 453.7969,-223.0385 454.5784,-223.8012 455.266,-224.5918 455.859,-225.4082 456.3569,-226.2481 456.76,-227.1093 457.0686,-227.9894 457.2839,-228.886 457.4072,-229.7965 457.4404,-230.7186 457.3856,-231.6497 457.2454,-232.5873 457.0225,-233.5287 456.7201,-234.4713 456.3414,-235.4127 455.89,-236.3503 455.3696,-237.2814 454.7838,-238.2035 454.1367,-239.114 453.4321,-240.0106 452.674,-240.8907 451.8662,-241.7519 451.0127,-242.5918 450.1173,-243.4082 449.1837,-244.1988 448.2154,-244.9615 447.2158,-245.6941 446.1883,-246.3946 445.1358,-247.0612 444.0613,-247.692 442.9675,-248.2853 441.8568,-248.8394 440.7315,-249.3528 439.5938,-249.8241 438.4453,-250.2521 437.288,-250.6355 436.1232,-250.9734 434.9523,-251.2647 433.7765,-251.5087 432.5969,-251.7047 431.4145,-251.8521 430.23,-251.9507 429.0444,-252 427.8584,-252 426.6728,-251.9507 425.4884,-251.8521 424.306,-251.7047 423.1264,-251.5087 421.9506,-251.2647 420.7797,-250.9734 419.6149,-250.6355 418.4575,-250.2521 417.3091,-249.8241 416.1713,-249.3528 415.0461,-248.8394 413.9354,-248.2853 412.8415,-247.692 411.7671,-247.0612 410.7146,-246.3946 409.6871,-245.6941 408.6875,-244.9615 407.7192,-244.1988 406.7855,-243.4082 405.8901,-242.5918 405.0366,-241.7519 404.2289,-240.8907 403.4708,-240.0106 402.7662,-239.114 402.119,-238.2035 401.5333,-237.2814 401.0128,-236.3503 400.5614,-235.4127 400.1828,-234.4713 399.8804,-233.5287 399.6575,-232.5873 399.5173,-231.6497 399.4625,-230.7186 399.4956,-229.7965 399.619,-228.886 399.8342,-227.9894 400.1429,-227.1093 400.5459,-226.2481 401.0439,-225.4082 401.6369,-224.5918 402.3245,-223.8012 403.1059,-223.0385 403.9797,-222.3059 404.944,-221.6054 405.9965,-220.9388 407.1342,-220.308 408.3538,-219.7147 409.6514,-219.1606 411.0227,-218.6472 412.4629,-218.1759 413.9668,-217.7479 415.5289,-217.3645 417.1432,-217.0266 418.8034,-216.7353 420.503,-216.4913 422.2351,-216.2953 423.9928,-216.1479 425.7689,-216.0493 427.556,-216 429.3468,-216 431.134,-216.0493"/>
<text text-anchor="middle" x="428.4514" y="-231.5" font-family="Courier,monospace" font-weight="bold" font-size="10.00" fill="#000000">x</text>
</g>
<!-- STATE_A&#45;&gt;SYMBOL_x -->
<g id="edge8" class="edge">
<title>STATE_A&#45;&gt;SYMBOL_x</title>
<path fill="none" stroke="#000000" stroke-dasharray="5,2" d="M175.7688,-112.2355C192.0739,-136.3686 226.3315,-181.0025 268.2211,-201 306.9602,-219.4934 355.808,-227.6527 389.3249,-231.2341"/>
<polygon fill="#000000" stroke="#000000" points="389.3426,-234.7525 399.636,-232.2433 390.0245,-227.7858 389.3426,-234.7525"/>
<text text-anchor="middle" x="296.9645" y="-223" font-family="Courier,monospace" font-weight="bold" font-size="10.00" fill="#000000">0.176</text>
</g>
<!-- SYMBOL_y -->
<g id="node6" class="node">
<title>SYMBOL_y</title>
<polygon fill="none" stroke="#000000" stroke-dasharray="5,2" points="431.134,-142.0493 432.91,-142.1479 434.6677,-142.2953 436.3999,-142.4913 438.0995,-142.7353 439.7597,-143.0266 441.374,-143.3645 442.9361,-143.7479 444.44,-144.1759 445.8802,-144.6472 447.2515,-145.1606 448.5491,-145.7147 449.7687,-146.308 450.9064,-146.9388 451.9588,-147.6054 452.9231,-148.3059 453.7969,-149.0385 454.5784,-149.8012 455.266,-150.5918 455.859,-151.4082 456.3569,-152.2481 456.76,-153.1093 457.0686,-153.9894 457.2839,-154.886 457.4072,-155.7965 457.4404,-156.7186 457.3856,-157.6497 457.2454,-158.5873 457.0225,-159.5287 456.7201,-160.4713 456.3414,-161.4127 455.89,-162.3503 455.3696,-163.2814 454.7838,-164.2035 454.1367,-165.114 453.4321,-166.0106 452.674,-166.8907 451.8662,-167.7519 451.0127,-168.5918 450.1173,-169.4082 449.1837,-170.1988 448.2154,-170.9615 447.2158,-171.6941 446.1883,-172.3946 445.1358,-173.0612 444.0613,-173.692 442.9675,-174.2853 441.8568,-174.8394 440.7315,-175.3528 439.5938,-175.8241 438.4453,-176.2521 437.288,-176.6355 436.1232,-176.9734 434.9523,-177.2647 433.7765,-177.5087 432.5969,-177.7047 431.4145,-177.8521 430.23,-177.9507 429.0444,-178 427.8584,-178 426.6728,-177.9507 425.4884,-177.8521 424.306,-177.7047 423.1264,-177.5087 421.9506,-177.2647 420.7797,-176.9734 419.6149,-176.6355 418.4575,-176.2521 417.3091,-175.8241 416.1713,-175.3528 415.0461,-174.8394 413.9354,-174.2853 412.8415,-173.692 411.7671,-173.0612 410.7146,-172.3946 409.6871,-171.6941 408.6875,-170.9615 407.7192,-170.1988 406.7855,-169.4082 405.8901,-168.5918 405.0366,-167.7519 404.2289,-166.8907 403.4708,-166.0106 402.7662,-165.114 402.119,-164.2035 401.5333,-163.2814 401.0128,-162.3503 400.5614,-161.4127 400.1828,-160.4713 399.8804,-159.5287 399.6575,-158.5873 399.5173,-157.6497 399.4625,-156.7186 399.4956,-155.7965 399.619,-154.886 399.8342,-153.9894 400.1429,-153.1093 400.5459,-152.2481 401.0439,-151.4082 401.6369,-150.5918 402.3245,-149.8012 403.1059,-149.0385 403.9797,-148.3059 404.944,-147.6054 405.9965,-146.9388 407.1342,-146.308 408.3538,-145.7147 409.6514,-145.1606 411.0227,-144.6472 412.4629,-144.1759 413.9668,-143.7479 415.5289,-143.3645 417.1432,-143.0266 418.8034,-142.7353 420.503,-142.4913 422.2351,-142.2953 423.9928,-142.1479 425.7689,-142.0493 427.556,-142 429.3468,-142 431.134,-142.0493"/>
<text text-anchor="middle" x="428.4514" y="-157.5" font-family="Courier,monospace" font-weight="bold" font-size="10.00" fill="#000000">y</text>
</g>
<!-- STATE_A&#45;&gt;SYMBOL_y -->
<g id="edge9" class="edge">
<title>STATE_A&#45;&gt;SYMBOL_y</title>
<path fill="none" stroke="#000000" stroke-dasharray="5,2" d="M182.4527,-109.0803C212.787,-131.5337 279.1829,-176.5787 343.708,-193 360.0752,-197.1654 365.6106,-198.1097 381.708,-193 389.9631,-190.3796 398.0171,-185.7164 405.0494,-180.7057"/>
<polygon fill="#000000" stroke="#000000" points="407.5706,-183.1812 413.3489,-174.3007 403.2939,-177.6395 407.5706,-183.1812"/>
<text text-anchor="middle" x="296.9645" y="-189" font-family="Courier,monospace" font-weight="bold" font-size="10.00" fill="#000000">0.596</text>
</g>
<!-- SYMBOL_z -->
<g id="node7" class="node">
<title>SYMBOL_z</title>
<polygon fill="none" stroke="#000000" stroke-dasharray="5,2" points="431.134,-14.0493 432.91,-14.1479 434.6677,-14.2953 436.3999,-14.4913 438.0995,-14.7353 439.7597,-15.0266 441.374,-15.3645 442.9361,-15.7479 444.44,-16.1759 445.8802,-16.6472 447.2515,-17.1606 448.5491,-17.7147 449.7687,-18.308 450.9064,-18.9388 451.9588,-19.6054 452.9231,-20.3059 453.7969,-21.0385 454.5784,-21.8012 455.266,-22.5918 455.859,-23.4082 456.3569,-24.2481 456.76,-25.1093 457.0686,-25.9894 457.2839,-26.886 457.4072,-27.7965 457.4404,-28.7186 457.3856,-29.6497 457.2454,-30.5873 457.0225,-31.5287 456.7201,-32.4713 456.3414,-33.4127 455.89,-34.3503 455.3696,-35.2814 454.7838,-36.2035 454.1367,-37.114 453.4321,-38.0106 452.674,-38.8907 451.8662,-39.7519 451.0127,-40.5918 450.1173,-41.4082 449.1837,-42.1988 448.2154,-42.9615 447.2158,-43.6941 446.1883,-44.3946 445.1358,-45.0612 444.0613,-45.692 442.9675,-46.2853 441.8568,-46.8394 440.7315,-47.3528 439.5938,-47.8241 438.4453,-48.2521 437.288,-48.6355 436.1232,-48.9734 434.9523,-49.2647 433.7765,-49.5087 432.5969,-49.7047 431.4145,-49.8521 430.23,-49.9507 429.0444,-50 427.8584,-50 426.6728,-49.9507 425.4884,-49.8521 424.306,-49.7047 423.1264,-49.5087 421.9506,-49.2647 420.7797,-48.9734 419.6149,-48.6355 418.4575,-48.2521 417.3091,-47.8241 416.1713,-47.3528 415.0461,-46.8394 413.9354,-46.2853 412.8415,-45.692 411.7671,-45.0612 410.7146,-44.3946 409.6871,-43.6941 408.6875,-42.9615 407.7192,-42.1988 406.7855,-41.4082 405.8901,-40.5918 405.0366,-39.7519 404.2289,-38.8907 403.4708,-38.0106 402.7662,-37.114 402.119,-36.2035 401.5333,-35.2814 401.0128,-34.3503 400.5614,-33.4127 400.1828,-32.4713 399.8804,-31.5287 399.6575,-30.5873 399.5173,-29.6497 399.4625,-28.7186 399.4956,-27.7965 399.619,-26.886 399.8342,-25.9894 400.1429,-25.1093 400.5459,-24.2481 401.0439,-23.4082 401.6369,-22.5918 402.3245,-21.8012 403.1059,-21.0385 403.9797,-20.3059 404.944,-19.6054 405.9965,-18.9388 407.1342,-18.308 408.3538,-17.7147 409.6514,-17.1606 411.0227,-16.6472 412.4629,-16.1759 413.9668,-15.7479 415.5289,-15.3645 417.1432,-15.0266 418.8034,-14.7353 420.503,-14.4913 422.2351,-14.2953 423.9928,-14.1479 425.7689,-14.0493 427.556,-14 429.3468,-14 431.134,-14.0493"/>
<text text-anchor="middle" x="428.4514" y="-29.5" font-family="Courier,monospace" font-weight="bold" font-size="10.00" fill="#000000">z</text>
</g>
<!-- STATE_A&#45;&gt;SYMBOL_z -->
<g id="edge10" class="edge">
<title>STATE_A&#45;&gt;SYMBOL_z</title>
<path fill="none" stroke="#000000" stroke-dasharray="5,2" d="M189.9763,-84.2872C197.0754,-81.0867 204.8898,-77.7468 212.2211,-75 268.6419,-53.8606 284.2572,-51.7872 343.708,-42 358.9995,-39.4826 375.9442,-37.3528 390.6377,-35.7142"/>
<polygon fill="#000000" stroke="#000000" points="391.316,-39.1614 400.8831,-34.6093 390.5654,-32.2017 391.316,-39.1614"/>
<text text-anchor="middle" x="296.9645" y="-59" font-family="Courier,monospace" font-weight="bold" font-size="10.00" fill="#000000">0.228</text>
</g>
<!-- STATE_B&#45;&gt;STATE_A -->
<g id="edge3" class="edge">
<title>STATE_B&#45;&gt;STATE_A</title>
<path fill="none" stroke="#000000" d="M270.6142,-85.974C264.0482,-83.9146 256.9573,-82.0543 250.2211,-81 233.5354,-78.3884 228.9068,-78.3884 212.2211,-81 208.7477,-81.5436 205.1801,-82.3016 201.6387,-83.1906"/>
<polygon fill="#000000" stroke="#000000" points="200.493,-79.8774 191.828,-85.974 202.4036,-86.6116 200.493,-79.8774"/>
<text text-anchor="middle" x="231.2211" y="-84" font-family="Courier,monospace" font-weight="bold" font-size="10.00" fill="#000000">0.301</text>
</g>
<!-- STATE_C -->
<g id="node3" class="node">
<title>STATE_C</title>
<polygon fill="none" stroke="#000000" points="431.134,-81.0493 432.91,-81.1479 434.6677,-81.2953 436.3999,-81.4913 438.0995,-81.7353 439.7597,-82.0266 441.374,-82.3645 442.9361,-82.7479 444.44,-83.1759 445.8802,-83.6472 447.2515,-84.1606 448.5491,-84.7147 449.7687,-85.308 450.9064,-85.9388 451.9588,-86.6054 452.9231,-87.3059 453.7969,-88.0385 454.5784,-88.8012 455.266,-89.5918 455.859,-90.4082 456.3569,-91.2481 456.76,-92.1093 457.0686,-92.9894 457.2839,-93.886 457.4072,-94.7965 457.4404,-95.7186 457.3856,-96.6497 457.2454,-97.5873 457.0225,-98.5287 456.7201,-99.4713 456.3414,-100.4127 455.89,-101.3503 455.3696,-102.2814 454.7838,-103.2035 454.1367,-104.114 453.4321,-105.0106 452.674,-105.8907 451.8662,-106.7519 451.0127,-107.5918 450.1173,-108.4082 449.1837,-109.1988 448.2154,-109.9615 447.2158,-110.6941 446.1883,-111.3946 445.1358,-112.0612 444.0613,-112.692 442.9675,-113.2853 441.8568,-113.8394 440.7315,-114.3528 439.5938,-114.8241 438.4453,-115.2521 437.288,-115.6355 436.1232,-115.9734 434.9523,-116.2647 433.7765,-116.5087 432.5969,-116.7047 431.4145,-116.8521 430.23,-116.9507 429.0444,-117 427.8584,-117 426.6728,-116.9507 425.4884,-116.8521 424.306,-116.7047 423.1264,-116.5087 421.9506,-116.2647 420.7797,-115.9734 419.6149,-115.6355 418.4575,-115.2521 417.3091,-114.8241 416.1713,-114.3528 415.0461,-113.8394 413.9354,-113.2853 412.8415,-112.692 411.7671,-112.0612 410.7146,-111.3946 409.6871,-110.6941 408.6875,-109.9615 407.7192,-109.1988 406.7855,-108.4082 405.8901,-107.5918 405.0366,-106.7519 404.2289,-105.8907 403.4708,-105.0106 402.7662,-104.114 402.119,-103.2035 401.5333,-102.2814 401.0128,-101.3503 400.5614,-100.4127 400.1828,-99.4713 399.8804,-98.5287 399.6575,-97.5873 399.5173,-96.6497 399.4625,-95.7186 399.4956,-94.7965 399.619,-93.886 399.8342,-92.9894 400.1429,-92.1093 400.5459,-91.2481 401.0439,-90.4082 401.6369,-89.5918 402.3245,-88.8012 403.1059,-88.0385 403.9797,-87.3059 404.944,-86.6054 405.9965,-85.9388 407.1342,-85.308 408.3538,-84.7147 409.6514,-84.1606 411.0227,-83.6472 412.4629,-83.1759 413.9668,-82.7479 415.5289,-82.3645 417.1432,-82.0266 418.8034,-81.7353 420.503,-81.4913 422.2351,-81.2953 423.9928,-81.1479 425.7689,-81.0493 427.556,-81 429.3468,-81 431.134,-81.0493"/>
<text text-anchor="middle" x="428.4514" y="-96.5" font-family="Courier,monospace" font-weight="bold" font-size="10.00" fill="#000000">C</text>
</g>
<!-- STATE_B&#45;&gt;STATE_C -->
<g id="edge4" class="edge">
<title>STATE_B&#45;&gt;STATE_C</title>
<path fill="none" stroke="#000000" d="M322.777,-85.4733C329.4807,-83.2111 336.7699,-81.1545 343.708,-80 360.3678,-77.2277 365.1328,-76.76 381.708,-80 385.9636,-80.8319 390.3212,-82.0524 394.5821,-83.4802"/>
<polygon fill="#000000" stroke="#000000" points="393.6632,-86.8734 404.2555,-87.1025 396.118,-80.3179 393.6632,-86.8734"/>
<text text-anchor="middle" x="362.708" y="-83" font-family="Courier,monospace" font-weight="bold" font-size="10.00" fill="#000000">0.699</text>
</g>
<!-- STATE_B&#45;&gt;SYMBOL_x -->
<g id="edge11" class="edge">
<title>STATE_B&#45;&gt;SYMBOL_x</title>
<path fill="none" stroke="#000000" stroke-dasharray="5,2" d="M309.7578,-111.4025C318.9859,-122.357 331.8543,-137.3179 343.708,-150 363.5801,-171.2608 387.1619,-194.4834 404.3976,-211.112"/>
<polygon fill="#000000" stroke="#000000" points="402.1982,-213.8526 411.834,-218.2574 407.0483,-208.805 402.1982,-213.8526"/>
<text text-anchor="middle" x="362.708" y="-190" font-family="Courier,monospace" font-weight="bold" font-size="10.00" fill="#000000">0.225</text>
</g>
<!-- STATE_B&#45;&gt;SYMBOL_y -->
<g id="edge12" class="edge">
<title>STATE_B&#45;&gt;SYMBOL_y</title>
<path fill="none" stroke="#000000" stroke-dasharray="5,2" d="M317.799,-106.141C338.5116,-116.2226 370.6159,-131.8491 394.9195,-143.6787"/>
<polygon fill="#000000" stroke="#000000" points="393.6175,-146.9374 404.1407,-148.167 396.6811,-140.6434 393.6175,-146.9374"/>
<text text-anchor="middle" x="362.708" y="-138" font-family="Courier,monospace" font-weight="bold" font-size="10.00" fill="#000000">0.572</text>
</g>
<!-- STATE_B&#45;&gt;SYMBOL_z -->
<g id="edge13" class="edge">
<title>STATE_B&#45;&gt;SYMBOL_z</title>
<path fill="none" stroke="#000000" stroke-dasharray="5,2" d="M315.2554,-80.7985C323.5726,-74.3975 333.7627,-67.2353 343.708,-62 359.5684,-53.6509 378.2532,-46.7552 394.0364,-41.6893"/>
<polygon fill="#000000" stroke="#000000" points="395.412,-44.9274 403.9303,-38.6275 393.3425,-38.2403 395.412,-44.9274"/>
<text text-anchor="middle" x="362.708" y="-65" font-family="Courier,monospace" font-weight="bold" font-size="10.00" fill="#000000">0.203</text>
</g>
<!-- STATE_C&#45;&gt;STATE_B -->
<g id="edge5" class="edge">
<title>STATE_C&#45;&gt;STATE_B</title>
<path fill="none" stroke="#000000" d="M399.8372,-98.3471C380.8993,-97.9151 355.846,-97.3434 335.205,-96.8725"/>
<polygon fill="#000000" stroke="#000000" points="335.2491,-93.3727 325.1718,-96.6436 335.0893,-100.3709 335.2491,-93.3727"/>
<text text-anchor="middle" x="362.708" y="-100" font-family="Courier,monospace" font-weight="bold" font-size="10.00" fill="#000000">1.0</text>
</g>
<!-- STATE_SOURCE -->
<g id="node4" class="node">
<title>STATE_SOURCE</title>
<polygon fill="none" stroke="#000000" points="42.4515,-.0493 44.8246,-.1479 47.1732,-.2953 49.4877,-.4913 51.7587,-.7353 53.9771,-1.0266 56.134,-1.3645 58.2213,-1.7479 60.2308,-2.1759 62.1552,-2.6472 63.9875,-3.1606 65.7213,-3.7147 67.3509,-4.308 68.8711,-4.9388 70.2774,-5.6054 71.5659,-6.3059 72.7335,-7.0385 73.7776,-7.8012 74.6964,-8.5918 75.4887,-9.4082 76.1541,-10.2481 76.6926,-11.1093 77.105,-11.9894 77.3927,-12.886 77.5574,-13.7965 77.6018,-14.7186 77.5286,-15.6497 77.3412,-16.5873 77.0434,-17.5287 76.6393,-18.4713 76.1334,-19.4127 75.5302,-20.3503 74.8348,-21.2814 74.0521,-22.2035 73.1874,-23.114 72.246,-24.0106 71.2329,-24.8907 70.1536,-25.7519 69.0132,-26.5918 67.8168,-27.4082 66.5693,-28.1988 65.2754,-28.9615 63.9398,-29.6941 62.5668,-30.3946 61.1606,-31.0612 59.7248,-31.692 58.2633,-32.2853 56.7792,-32.8394 55.2756,-33.3528 53.7553,-33.8241 52.2208,-34.2521 50.6744,-34.6355 49.118,-34.9734 47.5535,-35.2647 45.9824,-35.5087 44.4062,-35.7047 42.8263,-35.8521 41.2436,-35.9507 39.6595,-36 38.0748,-36 36.4906,-35.9507 34.908,-35.8521 33.328,-35.7047 31.7518,-35.5087 30.1808,-35.2647 28.6162,-34.9734 27.0598,-34.6355 25.5134,-34.2521 23.9789,-33.8241 22.4586,-33.3528 20.955,-32.8394 19.4709,-32.2853 18.0094,-31.692 16.5737,-31.0612 15.1674,-30.3946 13.7944,-29.6941 12.4588,-28.9615 11.1649,-28.1988 9.9174,-27.4082 8.721,-26.5918 7.5806,-25.7519 6.5013,-24.8907 5.4883,-24.0106 4.5468,-23.114 3.6821,-22.2035 2.8994,-21.2814 2.204,-20.3503 1.6009,-19.4127 1.0949,-18.4713 .6908,-17.5287 .393,-16.5873 .2056,-15.6497 .1324,-14.7186 .1768,-13.7965 .3416,-12.886 .6292,-11.9894 1.0416,-11.1093 1.5801,-10.2481 2.2455,-9.4082 3.0379,-8.5918 3.9567,-7.8012 5.0008,-7.0385 6.1683,-6.3059 7.4568,-5.6054 8.8631,-4.9388 10.3833,-4.308 12.0129,-3.7147 13.7467,-3.1606 15.579,-2.6472 17.5034,-2.1759 19.513,-1.7479 21.6002,-1.3645 23.7572,-1.0266 25.9755,-.7353 28.2465,-.4913 30.561,-.2953 32.9096,-.1479 35.2827,-.0493 37.6707,0 40.0635,0 42.4515,-.0493"/>
<text text-anchor="middle" x="38.8671" y="-15.5" font-family="Courier,monospace" font-weight="bold" font-size="10.00" fill="#000000">SOURCE</text>
</g>
<!-- STATE_SOURCE&#45;&gt;STATE_A -->
<g id="edge6" class="edge">
<title>STATE_SOURCE&#45;&gt;STATE_A</title>
<path fill="none" stroke="#000000" d="M60.6322,-31.4087C81.1051,-44.0212 111.9557,-63.0272 134.8976,-77.1608"/>
<polygon fill="#000000" stroke="#000000" points="133.223,-80.24 143.5728,-82.5053 136.8946,-74.2802 133.223,-80.24"/>
<text text-anchor="middle" x="107.2342" y="-69" font-family="Courier,monospace" font-weight="bold" font-size="10.00" fill="#000000">0.5</text>
</g>
<!-- STATE_SOURCE&#45;&gt;STATE_B -->
<g id="edge7" class="edge">
<title>STATE_SOURCE&#45;&gt;STATE_B</title>
<path fill="none" stroke="#000000" d="M71.6963,-24.8153C113.7769,-34.0111 188.6531,-51.9321 250.2211,-75 254.4595,-76.588 258.8594,-78.3742 263.1891,-80.2171"/>
<polygon fill="#000000" stroke="#000000" points="261.9023,-83.4745 272.4659,-84.2872 264.7147,-77.0643 261.9023,-83.4745"/>
<text text-anchor="middle" x="165.4777" y="-58" font-family="Courier,monospace" font-weight="bold" font-size="10.00" fill="#000000">0.5</text>
</g>
</g>
</svg>
