<svg class="bob" font-family="arial" font-size="14" height="192" width="424" xmlns="http://www.w3.org/2000/svg">
<defs>
<marker id="triangle" markerHeight="8" markerWidth="8" orient="auto" refX="4" refY="2" viewBox="0 0 8 4">
<polygon class="fg_fill" points="0,0 0,4 8,2 0,0"/>
</marker>
<marker id="clear_triangle" markerHeight="10" markerWidth="10" orient="auto" refX="1" refY="7" viewBox="0 0 20 14">
<polygon class="bg_fill" points="2,2 2,12 18,7 2,2"/>
</marker>
<marker id="circle" markerHeight="5" markerWidth="5" orient="auto" refX="10" refY="10" viewBox="0 0 20 20">
<circle class="fg_fill" cx="10" cy="10" r="8"/>
</marker>
<marker id="square" markerHeight="5" markerWidth="5" orient="auto" refX="10" refY="10" viewBox="0 0 20 20">
<rect class="fg_fill" height="20" width="20" x="0" y="0"/>
</marker>
<marker id="open_circle" markerHeight="10" markerWidth="10" orient="auto" refX="10" refY="10" viewBox="0 0 20 20">
<circle class="bg_fill" cx="10" cy="10" r="4"/>
</marker>
<marker id="big_open_circle" markerHeight="20" markerWidth="20" orient="auto" refX="20" refY="20" viewBox="0 0 40 40">
<circle class="bg_fill" cx="20" cy="20" r="6"/>
</marker>
</defs>
<style type="text/css">

rect.backdrop {
    fill: white;
}
text{
    fill: black;
}

circle {
    fill: none;
    stroke: black;
    stroke-width: 2;
}

line {
    stroke: black;
    stroke-width: 2;
    stroke-opacity: 1;
    fill-opacity: 1;
    stroke-linecap: round;
    stroke-linejoin: miter;
}

path {
    fill: none;
    stroke: black;
    stroke-width: 2;
    stroke-opacity: 1;
    fill-opacity: 1;
    stroke-linecap: round;
    stroke-linejoin: miter;
}

line.dashed {
    stroke-dasharray: 5;
}

.fg_fill {
    fill: black;
}


.bg_fill {
    fill: white;
    stroke: black;
    stroke-width: 2;
}

tspan.head{
    fill: none;
    stroke: none;
}
    
</style>
<rect class="backdrop" height="192" width="424" x="0" y="0"/>
<g>
<line x1="4" x2="4" y1="12" y2="40"/>
<line x1="4" x2="4" y1="40" y2="116"/>
<line x1="4" x2="68" y1="40" y2="40"/>
<line x1="68" x2="68" y1="12" y2="40"/>
<line x1="68" x2="68" y1="40" y2="116"/>
<path d="M 4 116 A 4 4 0 0 0 8 120"/>
<path d="M 8 8 A 4 4 0 0 0 4 12"/>
<path d="M 64 120 A 4 4 0 0 0 68 116"/>
<path d="M 68 12 A 4 4 0 0 0 64 8"/>
</g>
<g>
<line x1="8" x2="64" y1="8" y2="8"/>
</g>
<g>
<line x1="8" x2="64" y1="120" y2="120"/>
</g>
<g>
<line x1="108" x2="108" y1="12" y2="40"/>
<line x1="108" x2="108" y1="40" y2="116"/>
<line x1="108" x2="172" y1="40" y2="40"/>
<line x1="172" x2="172" y1="12" y2="40"/>
<line x1="172" x2="172" y1="40" y2="116"/>
<path d="M 108 116 A 4 4 0 0 0 112 120"/>
<path d="M 112 8 A 4 4 0 0 0 108 12"/>
<path d="M 168 120 A 4 4 0 0 0 172 116"/>
<path d="M 172 12 A 4 4 0 0 0 168 8"/>
</g>
<g>
<line x1="112" x2="168" y1="8" y2="8"/>
</g>
<g>
<line x1="112" x2="168" y1="120" y2="120"/>
</g>
<g>
<line x1="212" x2="212" y1="12" y2="40"/>
<line x1="212" x2="212" y1="40" y2="116"/>
<line x1="212" x2="276" y1="40" y2="40"/>
<line x1="276" x2="276" y1="12" y2="40"/>
<line x1="276" x2="276" y1="40" y2="116"/>
<path d="M 212 116 A 4 4 0 0 0 216 120"/>
<path d="M 216 8 A 4 4 0 0 0 212 12"/>
<path d="M 272 120 A 4 4 0 0 0 276 116"/>
<path d="M 276 12 A 4 4 0 0 0 272 8"/>
</g>
<g>
<line x1="216" x2="272" y1="8" y2="8"/>
</g>
<g>
<line x1="216" x2="272" y1="120" y2="120"/>
</g>
<g>
<text x="1" y="156">
*
</text>
</g>
<g>
<text x="1" y="172">
*
</text>
</g>
<g>
<text x="1" y="188">
*
</text>
</g>
<g>
<text x="17" y="28">
nodeA
</text>
</g>
<g>
<text x="17" y="60">
podA
</text>
</g>
<g>
<text x="17" y="76">
podB
</text>
</g>
<g>
<text x="17" y="156">
nodeA running an instance of podA and podB
</text>
</g>
<g>
<text x="17" y="172">
nodeB running an instance of podA, podB, and podC
</text>
</g>
<g>
<text x="17" y="188">
nodeC running an instance of podA and podC
</text>
</g>
<g>
<text x="121" y="28">
nodeB
</text>
</g>
<g>
<text x="121" y="60">
podA
</text>
</g>
<g>
<text x="121" y="76">
podB
</text>
</g>
<g>
<text x="121" y="92">
podC
</text>
</g>
<g>
<text x="225" y="28">
nodeC
</text>
</g>
<g>
<text x="225" y="60">
podA
</text>
</g>
<g>
<text x="225" y="76">
podC
</text>
</g>
</svg>
