<svg class="bob" font-family="arial" font-size="14" height="144" width="304" xmlns="http://www.w3.org/2000/svg">
<defs>
<marker id="triangle" markerHeight="8" markerWidth="8" orient="auto" refX="4" refY="2" viewBox="0 0 8 4">
<polygon class="fg_fill" points="0,0 0,4 8,2 0,0"/>
</marker>
<marker id="clear_triangle" markerHeight="10" markerWidth="10" orient="auto" refX="1" refY="7" viewBox="0 0 20 14">
<polygon class="bg_fill" points="2,2 2,12 18,7 2,2"/>
</marker>
<marker id="circle" markerHeight="5" markerWidth="5" orient="auto" refX="10" refY="10" viewBox="0 0 20 20">
<circle class="fg_fill" cx="10" cy="10" r="8"/>
</marker>
<marker id="square" markerHeight="5" markerWidth="5" orient="auto" refX="10" refY="10" viewBox="0 0 20 20">
<rect class="fg_fill" height="20" width="20" x="0" y="0"/>
</marker>
<marker id="open_circle" markerHeight="10" markerWidth="10" orient="auto" refX="10" refY="10" viewBox="0 0 20 20">
<circle class="bg_fill" cx="10" cy="10" r="4"/>
</marker>
<marker id="big_open_circle" markerHeight="20" markerWidth="20" orient="auto" refX="20" refY="20" viewBox="0 0 40 40">
<circle class="bg_fill" cx="20" cy="20" r="6"/>
</marker>
</defs>
<style type="text/css">

rect.backdrop {
    fill: white;
}
text{
    fill: black;
}

circle {
    fill: none;
    stroke: black;
    stroke-width: 2;
}

line {
    stroke: black;
    stroke-width: 2;
    stroke-opacity: 1;
    fill-opacity: 1;
    stroke-linecap: round;
    stroke-linejoin: miter;
}

path {
    fill: none;
    stroke: black;
    stroke-width: 2;
    stroke-opacity: 1;
    fill-opacity: 1;
    stroke-linecap: round;
    stroke-linejoin: miter;
}

line.dashed {
    stroke-dasharray: 5;
}

.fg_fill {
    fill: black;
}


.bg_fill {
    fill: white;
    stroke: black;
    stroke-width: 2;
}

tspan.head{
    fill: none;
    stroke: none;
}
    
</style>
<rect class="backdrop" height="144" width="304" x="0" y="0"/>
<g>
<line x1="36" x2="36" y1="48" y2="96"/>
</g>
<g>
<line x1="40" x2="64" y1="40" y2="40"/>
</g>
<g>
<line x1="40" x2="52" y1="48" y2="72"/>
<line x1="52" x2="40" y1="72" y2="96"/>
<line x1="52" x2="64" y1="72" y2="48"/>
<line x1="52" x2="64" y1="72" y2="96"/>
</g>
<g>
<line x1="68" x2="68" y1="48" y2="96"/>
</g>
<g>
<line x1="72" x2="96" y1="48" y2="96"/>
</g>
<g>
<line x1="88" x2="96" y1="128" y2="112"/>
</g>
<g>
<line x1="104" x2="112" y1="112" y2="128"/>
</g>
<g>
<line x1="212" x2="212" y1="48" y2="96"/>
</g>
<g>
<line x1="216" x2="240" y1="40" y2="40"/>
</g>
<g>
<line x1="216" x2="228" y1="48" y2="72"/>
<line x1="228" x2="216" y1="72" y2="96"/>
<line x1="228" x2="240" y1="72" y2="48"/>
<line x1="228" x2="240" y1="72" y2="96"/>
</g>
<g>
<line x1="216" x2="240" y1="104" y2="104"/>
</g>
<g>
<line x1="244" x2="244" y1="48" y2="96"/>
</g>
<g>
<line x1="264" x2="272" y1="128" y2="112"/>
</g>
<g>
<line x1="264" x2="288" y1="136" y2="136"/>
</g>
<g>
<line x1="280" x2="288" y1="112" y2="128"/>
</g>
<g>
<text x="1" y="12">
CORRUPTED CLIQUES
</text>
</g>
<g>
<text x="33" y="44">
e
</text>
</g>
<g>
<text x="33" y="108">
d
</text>
</g>
<g>
<text x="65" y="44">
g
</text>
</g>
<g>
<text x="65" y="108">
f
</text>
</g>
<g>
<text x="81" y="140">
a
</text>
</g>
<g>
<text x="97" y="108">
c
</text>
</g>
<g>
<text x="113" y="140">
b
</text>
</g>
<g>
<text x="209" y="12">
CORRECTED
</text>
</g>
<g>
<text x="209" y="44">
g
</text>
</g>
<g>
<text x="209" y="108">
d
</text>
</g>
<g>
<text x="241" y="44">
e
</text>
</g>
<g>
<text x="241" y="108">
f
</text>
</g>
<g>
<text x="257" y="140">
a
</text>
</g>
<g>
<text x="273" y="108">
c
</text>
</g>
<g>
<text x="289" y="140">
b
</text>
</g>
</svg>
