<?xml version="1.0" encoding="UTF-8" standalone="no"?>
<!DOCTYPE svg PUBLIC "-//W3C//DTD SVG 1.1//EN"
 "http://www.w3.org/Graphics/SVG/1.1/DTD/svg11.dtd">
<!-- Generated by graphviz version 2.40.1 (0)
 -->
<!-- Title: G Pages: 1 -->
<svg width="329pt" height="137pt"
 viewBox="0.00 0.00 329.00 137.00" xmlns="http://www.w3.org/2000/svg" xmlns:xlink="http://www.w3.org/1999/xlink">
<g id="graph0" class="graph" transform="scale(1 1) rotate(0) translate(4 133)">
<title>G</title>
<polygon fill="#ffffff" stroke="transparent" points="-4,4 -4,-133 325,-133 325,4 -4,4"/>
<!-- i0 -->
<g id="node1" class="node">
<title>i0</title>
<ellipse fill="none" stroke="#000000" cx="87.5" cy="-61.5" rx="14.5" ry="14.5"/>
<text text-anchor="middle" x="87.5" y="-59" font-family="Courier,monospace" font-weight="bold" font-size="10.00" fill="#000000">i0</text>
</g>
<!-- i1 -->
<g id="node2" class="node">
<title>i1</title>
<ellipse fill="none" stroke="#000000" cx="160.5" cy="-61.5" rx="14.5" ry="14.5"/>
<text text-anchor="middle" x="160.5" y="-59" font-family="Courier,monospace" font-weight="bold" font-size="10.00" fill="#000000">i1</text>
</g>
<!-- i0&#45;&#45;i1 -->
<g id="edge4" class="edge">
<title>i0&#45;&#45;i1</title>
<path fill="none" stroke="#000000" d="M102.2726,-61.5C114.9378,-61.5 133.0905,-61.5 145.7493,-61.5"/>
<text text-anchor="middle" x="124" y="-64.5" font-family="Courier,monospace" font-weight="bold" font-size="10.00" fill="#000000"> </text>
</g>
<!-- i2 -->
<g id="node3" class="node">
<title>i2</title>
<ellipse fill="none" stroke="#000000" cx="233.5" cy="-91.5" rx="14.5" ry="14.5"/>
<text text-anchor="middle" x="233.5" y="-89" font-family="Courier,monospace" font-weight="bold" font-size="10.00" fill="#000000">i2</text>
</g>
<!-- i1&#45;&#45;i2 -->
<g id="edge5" class="edge">
<title>i1&#45;&#45;i2</title>
<path fill="none" stroke="#000000" d="M174.2307,-67.1428C187.282,-72.5063 206.8,-80.5274 219.8308,-85.8825"/>
<text text-anchor="middle" x="197" y="-79.5" font-family="Courier,monospace" font-weight="bold" font-size="10.00" fill="#000000"> </text>
</g>
<!-- v5 -->
<g id="node9" class="node">
<title>v5</title>
<ellipse fill="none" stroke="#000000" cx="233.5" cy="-44.5" rx="14.5" ry="14.5"/>
<text text-anchor="middle" x="233.5" y="-42" font-family="Courier,monospace" font-weight="bold" font-size="10.00" fill="#000000">v5</text>
</g>
<!-- i1&#45;&#45;v5 -->
<g id="edge8" class="edge">
<title>i1&#45;&#45;v5</title>
<path fill="none" stroke="#000000" d="M174.3102,-56.8251C180.0461,-54.995 186.7993,-52.9834 193,-51.5 201.4664,-49.4745 211.0613,-47.7898 218.7863,-46.5811"/>
<text text-anchor="middle" x="197" y="-54.5" font-family="Courier,monospace" font-weight="bold" font-size="10.00" fill="#000000"> </text>
</g>
<!-- v3 -->
<g id="node7" class="node">
<title>v3</title>
<ellipse fill="none" stroke="#000000" cx="306.5" cy="-114.5" rx="14.5" ry="14.5"/>
<text text-anchor="middle" x="306.5" y="-112" font-family="Courier,monospace" font-weight="bold" font-size="10.00" fill="#000000">v3</text>
</g>
<!-- i2&#45;&#45;v3 -->
<g id="edge6" class="edge">
<title>i2&#45;&#45;v3</title>
<path fill="none" stroke="#000000" d="M247.5751,-95.9346C260.5018,-100.0074 279.5551,-106.0105 292.4681,-110.079"/>
<text text-anchor="middle" x="270" y="-106.5" font-family="Courier,monospace" font-weight="bold" font-size="10.00" fill="#000000"> </text>
</g>
<!-- v4 -->
<g id="node8" class="node">
<title>v4</title>
<ellipse fill="none" stroke="#000000" cx="306.5" cy="-67.5" rx="14.5" ry="14.5"/>
<text text-anchor="middle" x="306.5" y="-65" font-family="Courier,monospace" font-weight="bold" font-size="10.00" fill="#000000">v4</text>
</g>
<!-- i2&#45;&#45;v4 -->
<g id="edge7" class="edge">
<title>i2&#45;&#45;v4</title>
<path fill="none" stroke="#000000" d="M247.5751,-86.8726C260.5018,-82.6227 279.5551,-76.3586 292.4681,-72.1132"/>
<text text-anchor="middle" x="270" y="-82.5" font-family="Courier,monospace" font-weight="bold" font-size="10.00" fill="#000000"> </text>
</g>
<!-- v0 -->
<g id="node4" class="node">
<title>v0</title>
<ellipse fill="none" stroke="#000000" cx="14.5" cy="-108.5" rx="14.5" ry="14.5"/>
<text text-anchor="middle" x="14.5" y="-106" font-family="Courier,monospace" font-weight="bold" font-size="10.00" fill="#000000">v0</text>
</g>
<!-- v0&#45;&#45;i0 -->
<g id="edge1" class="edge">
<title>v0&#45;&#45;i0</title>
<path fill="none" stroke="#000000" d="M26.8835,-100.5271C40.3886,-91.832 61.8668,-78.0036 75.2994,-69.3552"/>
<text text-anchor="middle" x="51" y="-88.5" font-family="Courier,monospace" font-weight="bold" font-size="10.00" fill="#000000"> </text>
</g>
<!-- v1 -->
<g id="node5" class="node">
<title>v1</title>
<ellipse fill="none" stroke="#000000" cx="14.5" cy="-61.5" rx="14.5" ry="14.5"/>
<text text-anchor="middle" x="14.5" y="-59" font-family="Courier,monospace" font-weight="bold" font-size="10.00" fill="#000000">v1</text>
</g>
<!-- v1&#45;&#45;i0 -->
<g id="edge2" class="edge">
<title>v1&#45;&#45;i0</title>
<path fill="none" stroke="#000000" d="M29.2726,-61.5C41.9378,-61.5 60.0905,-61.5 72.7493,-61.5"/>
<text text-anchor="middle" x="51" y="-64.5" font-family="Courier,monospace" font-weight="bold" font-size="10.00" fill="#000000"> </text>
</g>
<!-- v2 -->
<g id="node6" class="node">
<title>v2</title>
<ellipse fill="none" stroke="#000000" cx="14.5" cy="-14.5" rx="14.5" ry="14.5"/>
<text text-anchor="middle" x="14.5" y="-12" font-family="Courier,monospace" font-weight="bold" font-size="10.00" fill="#000000">v2</text>
</g>
<!-- v2&#45;&#45;i0 -->
<g id="edge3" class="edge">
<title>v2&#45;&#45;i0</title>
<path fill="none" stroke="#000000" d="M26.8835,-22.4729C40.3886,-31.168 61.8668,-44.9964 75.2994,-53.6448"/>
<text text-anchor="middle" x="51" y="-41.5" font-family="Courier,monospace" font-weight="bold" font-size="10.00" fill="#000000"> </text>
</g>
</g>
</svg>
