<svg class="bob" font-family="arial" font-size="14" height="336" width="576" xmlns="http://www.w3.org/2000/svg">
<defs>
<marker id="triangle" markerHeight="8" markerWidth="8" orient="auto" refX="4" refY="2" viewBox="0 0 8 4">
<polygon class="fg_fill" points="0,0 0,4 8,2 0,0"/>
</marker>
<marker id="clear_triangle" markerHeight="10" markerWidth="10" orient="auto" refX="1" refY="7" viewBox="0 0 20 14">
<polygon class="bg_fill" points="2,2 2,12 18,7 2,2"/>
</marker>
<marker id="circle" markerHeight="5" markerWidth="5" orient="auto" refX="10" refY="10" viewBox="0 0 20 20">
<circle class="fg_fill" cx="10" cy="10" r="8"/>
</marker>
<marker id="square" markerHeight="5" markerWidth="5" orient="auto" refX="10" refY="10" viewBox="0 0 20 20">
<rect class="fg_fill" height="20" width="20" x="0" y="0"/>
</marker>
<marker id="open_circle" markerHeight="10" markerWidth="10" orient="auto" refX="10" refY="10" viewBox="0 0 20 20">
<circle class="bg_fill" cx="10" cy="10" r="4"/>
</marker>
<marker id="big_open_circle" markerHeight="20" markerWidth="20" orient="auto" refX="20" refY="20" viewBox="0 0 40 40">
<circle class="bg_fill" cx="20" cy="20" r="6"/>
</marker>
</defs>
<style type="text/css">

rect.backdrop {
    fill: white;
}
text{
    fill: black;
}

circle {
    fill: none;
    stroke: black;
    stroke-width: 2;
}

line {
    stroke: black;
    stroke-width: 2;
    stroke-opacity: 1;
    fill-opacity: 1;
    stroke-linecap: round;
    stroke-linejoin: miter;
}

path {
    fill: none;
    stroke: black;
    stroke-width: 2;
    stroke-opacity: 1;
    fill-opacity: 1;
    stroke-linecap: round;
    stroke-linejoin: miter;
}

line.dashed {
    stroke-dasharray: 5;
}

.fg_fill {
    fill: black;
}


.bg_fill {
    fill: white;
    stroke: black;
    stroke-width: 2;
}

tspan.head{
    fill: none;
    stroke: none;
}
    
</style>
<rect class="backdrop" height="336" width="576" x="0" y="0"/>
<g>
<line x1="4" x2="4" y1="104" y2="136"/>
<line x1="4" x2="84" y1="104" y2="104"/>
<line x1="4" x2="28" y1="136" y2="136"/>
<line x1="28" x2="28" y1="136" y2="144"/>
<line x1="28" x2="44" y1="136" y2="136"/>
<line x1="44" x2="44" y1="136" y2="144"/>
<line x1="44" x2="116" y1="136" y2="136"/>
<line x1="84" x2="84" y1="76" y2="104"/>
<line x1="84" x2="100" y1="104" y2="104"/>
<line x1="100" x2="100" y1="92" y2="104"/>
<line x1="100" x2="116" y1="104" y2="104"/>
<line x1="116" x2="116" y1="104" y2="136"/>
<line class="dashed" x1="28" x2="28" y1="144" y2="304"/>
<line class="dashed" x1="44" x2="44" y1="144" y2="240"/>
<path d="M 88 72 A 4 4 0 0 0 84 76"/>
<path d="M 104 88 A 4 4 0 0 0 100 92"/>
</g>
<g>
<line x1="28" x2="28" y1="308" y2="304"/>
<path d="M 28 308 A 4 4 0 0 0 32 312"/>
</g>
<g>
<line x1="44" x2="44" y1="244" y2="240"/>
<path d="M 44 244 A 4 4 0 0 0 48 248"/>
</g>
<g>
<line marker-end="url(#triangle)" x1="52" x2="52" y1="28" y2="92"/>
<path d="M 56 24 A 4 4 0 0 0 52 28"/>
</g>
<g>
<line x1="56" x2="156" y1="24" y2="24"/>
<line x1="156" x2="156" y1="8" y2="24"/>
<line x1="156" x2="228" y1="8" y2="8"/>
<line x1="156" x2="156" y1="24" y2="40"/>
<line x1="156" x2="228" y1="40" y2="40"/>
<line x1="228" x2="228" y1="8" y2="24"/>
<line x1="228" x2="228" y1="24" y2="40"/>
<line x1="228" x2="320" y1="24" y2="24"/>
<path d="M 324 28 A 4 4 0 0 0 320 24"/>
</g>
<g>
<line marker-end="url(#triangle)" x1="84" x2="84" y1="160" y2="148"/>
<line x1="84" x2="84" y1="160" y2="196"/>
<path d="M 84 196 A 4 4 0 0 0 88 200"/>
</g>
<g>
<line x1="88" x2="288" y1="72" y2="72"/>
<path d="M 292 76 A 4 4 0 0 0 288 72"/>
</g>
<g>
<line x1="88" x2="288" y1="200" y2="200"/>
<path d="M 288 200 A 4 4 0 0 0 292 196"/>
</g>
<g>
<line marker-end="url(#triangle)" x1="100" x2="100" y1="160" y2="148"/>
<line x1="100" x2="100" y1="160" y2="180"/>
<path d="M 100 180 A 4 4 0 0 0 104 184"/>
</g>
<g>
<line x1="104" x2="128" y1="88" y2="88"/>
<path d="M 132 92 A 4 4 0 0 0 128 88"/>
</g>
<g>
<line x1="104" x2="128" y1="184" y2="184"/>
<path d="M 128 184 A 4 4 0 0 0 132 180"/>
</g>
<g>
<line x1="132" x2="132" y1="92" y2="180"/>
</g>
<g>
<line marker-end="url(#triangle)" x1="152" x2="156" y1="248" y2="248"/>
<line class="dashed" x1="48" x2="152" y1="248" y2="248"/>
</g>
<g>
<line marker-end="url(#triangle)" x1="152" x2="156" y1="312" y2="312"/>
<line class="dashed" x1="32" x2="152" y1="312" y2="312"/>
</g>
<g>
<line x1="164" x2="164" y1="232" y2="240"/>
<line x1="164" x2="168" y1="232" y2="232"/>
<line class="dashed" x1="164" x2="164" y1="240" y2="256"/>
<line class="dashed" x1="168" x2="224" y1="232" y2="232"/>
</g>
<g>
<line x1="164" x2="164" y1="264" y2="256"/>
<line x1="164" x2="168" y1="264" y2="264"/>
<line class="dashed" x1="168" x2="224" y1="264" y2="264"/>
</g>
<g>
<line x1="164" x2="164" y1="296" y2="304"/>
<line x1="164" x2="168" y1="296" y2="296"/>
<line class="dashed" x1="164" x2="164" y1="304" y2="320"/>
<line class="dashed" x1="168" x2="224" y1="296" y2="296"/>
</g>
<g>
<line x1="164" x2="164" y1="328" y2="320"/>
<line x1="164" x2="168" y1="328" y2="328"/>
<line class="dashed" x1="168" x2="224" y1="328" y2="328"/>
</g>
<g>
<line x1="228" x2="224" y1="232" y2="232"/>
<line x1="228" x2="228" y1="232" y2="240"/>
<line class="dashed" x1="228" x2="228" y1="240" y2="256"/>
</g>
<g>
<line x1="228" x2="224" y1="264" y2="264"/>
<line x1="228" x2="228" y1="264" y2="256"/>
</g>
<g>
<line x1="228" x2="224" y1="296" y2="296"/>
<line x1="228" x2="228" y1="296" y2="304"/>
<line class="dashed" x1="228" x2="228" y1="304" y2="320"/>
</g>
<g>
<line x1="228" x2="224" y1="328" y2="328"/>
<line x1="228" x2="228" y1="328" y2="320"/>
</g>
<g>
<line marker-end="url(#triangle)" x1="240" x2="236" y1="248" y2="248"/>
<line class="dashed" x1="240" x2="328" y1="248" y2="248"/>
<path d="M 328 248 A 4 4 0 0 0 332 244"/>
</g>
<g>
<line marker-end="url(#triangle)" x1="240" x2="236" y1="312" y2="312"/>
<line class="dashed" x1="240" x2="344" y1="312" y2="312"/>
<path d="M 344 312 A 4 4 0 0 0 348 308"/>
</g>
<g>
<line x1="260" x2="260" y1="104" y2="136"/>
<line x1="260" x2="364" y1="104" y2="104"/>
<line x1="260" x2="292" y1="136" y2="136"/>
<line x1="292" x2="292" y1="136" y2="196"/>
<line x1="292" x2="332" y1="136" y2="136"/>
<line x1="332" x2="332" y1="136" y2="144"/>
<line x1="332" x2="348" y1="136" y2="136"/>
<line x1="348" x2="348" y1="136" y2="144"/>
<line x1="348" x2="372" y1="136" y2="136"/>
<line x1="364" x2="364" y1="76" y2="104"/>
<line x1="364" x2="372" y1="104" y2="104"/>
<line x1="372" x2="372" y1="104" y2="136"/>
<line class="dashed" x1="332" x2="332" y1="144" y2="240"/>
<line class="dashed" x1="348" x2="348" y1="144" y2="304"/>
<path d="M 368 72 A 4 4 0 0 0 364 76"/>
</g>
<g>
<line marker-end="url(#triangle)" x1="292" x2="292" y1="76" y2="92"/>
</g>
<g>
<line marker-end="url(#triangle)" x1="324" x2="324" y1="28" y2="92"/>
</g>
<g>
<line x1="332" x2="332" y1="244" y2="240"/>
</g>
<g>
<line x1="348" x2="348" y1="308" y2="304"/>
</g>
<g>
<line x1="368" x2="464" y1="72" y2="72"/>
<path d="M 468 76 A 4 4 0 0 0 464 72"/>
</g>
<g>
<line marker-end="url(#triangle)" x1="384" x2="380" y1="120" y2="120"/>
<line x1="384" x2="460" y1="120" y2="120"/>
<line x1="460" x2="460" y1="104" y2="120"/>
<line x1="460" x2="572" y1="104" y2="104"/>
<line x1="460" x2="460" y1="120" y2="136"/>
<line x1="460" x2="572" y1="136" y2="136"/>
<line x1="572" x2="572" y1="104" y2="136"/>
</g>
<g>
<line marker-end="url(#triangle)" x1="468" x2="468" y1="76" y2="92"/>
</g>
<g>
<text x="49" y="124">
A
</text>
</g>
<g>
<text x="169" y="28">
SOURCE
</text>
</g>
<g>
<text x="193" y="252">
y
</text>
</g>
<g>
<text x="193" y="316">
z
</text>
</g>
<g>
<text x="305" y="124">
B
</text>
</g>
<g>
<text x="505" y="124">
C
</text>
</g>
</svg>
