<?xml version="1.0" encoding="UTF-8" standalone="no"?>
<!DOCTYPE svg PUBLIC "-//W3C//DTD SVG 1.1//EN"
 "http://www.w3.org/Graphics/SVG/1.1/DTD/svg11.dtd">
<!-- Generated by graphviz version 2.40.1 (0)
 -->
<!-- Title: G Pages: 1 -->
<svg width="2385pt" height="199pt"
 viewBox="0.00 0.00 2385.16 199.44" xmlns="http://www.w3.org/2000/svg" xmlns:xlink="http://www.w3.org/1999/xlink">
<g id="graph0" class="graph" transform="scale(1 1) rotate(0) translate(4 195.441)">
<title>G</title>
<polygon fill="#ffffff" stroke="transparent" points="-4,4 -4,-195.441 2381.163,-195.441 2381.163,4 -4,4"/>
<!-- (&#45;1, &#39;SINK&#39;) -->
<g id="node1" class="node">
<title>(&#45;1, &#39;SINK&#39;)</title>
<polygon fill="none" stroke="#000000" points="2263.0223,-99.836 2270.7119,-99.9534 2278.3221,-100.1291 2285.8216,-100.3625 2293.1801,-100.6532 2300.3682,-101.0002 2307.3574,-101.4027 2314.1206,-101.8595 2320.632,-102.3693 2326.8675,-102.9308 2332.8046,-103.5425 2338.4227,-104.2026 2343.703,-104.9093 2348.6288,-105.6607 2353.1855,-106.4548 2357.3606,-107.2894 2361.1439,-108.1622 2364.527,-109.0707 2367.5042,-110.0126 2370.0716,-110.9851 2372.2276,-111.9857 2373.9726,-113.0117 2375.3089,-114.0601 2376.241,-115.1282 2376.7749,-116.2129 2376.9185,-117.3114 2376.6814,-118.4206 2376.0742,-119.5375 2375.1093,-120.659 2373.7999,-121.782 2372.1605,-122.9035 2370.2061,-124.0203 2367.9527,-125.1295 2365.4168,-126.228 2362.6149,-127.3128 2359.5643,-128.3808 2356.2818,-129.4293 2352.7846,-130.4552 2349.0894,-131.4558 2345.2126,-132.4284 2341.1703,-133.3702 2336.9779,-134.2788 2332.6502,-135.1515 2328.2014,-135.9861 2323.6446,-136.7802 2318.9926,-137.5317 2314.2567,-138.2384 2309.4479,-138.8985 2304.5759,-139.5101 2299.6498,-140.0716 2294.6776,-140.5815 2289.6667,-141.0383 2284.6236,-141.4407 2279.5541,-141.7877 2274.4634,-142.0784 2269.3563,-142.3119 2264.2367,-142.4876 2259.1086,-142.605 2253.9754,-142.6637 2248.8406,-142.6637 2243.7075,-142.605 2238.5793,-142.4876 2233.4598,-142.3119 2228.3526,-142.0784 2223.2619,-141.7877 2218.1925,-141.4407 2213.1493,-141.0383 2208.1384,-140.5815 2203.1663,-140.0716 2198.2401,-139.5101 2193.3681,-138.8985 2188.5593,-138.2384 2183.8235,-137.5317 2179.1714,-136.7802 2174.6147,-135.9861 2170.1658,-135.1515 2165.8381,-134.2788 2161.6457,-133.3702 2157.6034,-132.4284 2153.7266,-131.4558 2150.0314,-130.4552 2146.5342,-129.4293 2143.2518,-128.3808 2140.2011,-127.3128 2137.3993,-126.228 2134.8633,-125.1295 2132.6099,-124.0203 2130.6556,-122.9035 2129.0161,-121.782 2127.7068,-120.659 2126.7418,-119.5375 2126.1347,-118.4206 2125.8975,-117.3114 2126.0412,-116.2129 2126.5751,-115.1282 2127.5071,-114.0601 2128.8435,-113.0117 2130.5884,-111.9857 2132.7444,-110.9851 2135.3118,-110.0126 2138.289,-109.0707 2141.6722,-108.1622 2145.4554,-107.2894 2149.6305,-106.4548 2154.1872,-105.6607 2159.1131,-104.9093 2164.3934,-104.2026 2170.0114,-103.5425 2175.9485,-102.9308 2182.184,-102.3693 2188.6955,-101.8595 2195.4586,-101.4027 2202.4478,-101.0002 2209.6359,-100.6532 2216.9945,-100.3625 2224.494,-100.1291 2232.1041,-99.9534 2239.7937,-99.836 2247.5312,-99.7772 2255.2848,-99.7772 2263.0223,-99.836"/>
<text text-anchor="middle" x="2251.408" y="-124.2205" font-family="Courier,monospace" font-weight="bold" font-size="10.00" fill="#000000">(&#45;1, &#39;SINK&#39;)</text>
<text text-anchor="middle" x="2251.408" y="-113.2205" font-family="Courier,monospace" font-weight="bold" font-size="10.00" fill="#000000">0.038671885171816495</text>
</g>
<!-- (&#45;1, &#39;SOURCE&#39;) -->
<g id="node2" class="node">
<title>(&#45;1, &#39;SOURCE&#39;)</title>
<polygon fill="none" stroke="#000000" points="100.3581,-81.836 105.9786,-81.9534 111.5409,-82.1291 117.0225,-82.3625 122.401,-82.6532 127.6549,-83.0002 132.7634,-83.4027 137.7068,-83.8595 142.4661,-84.3693 147.0237,-84.9308 151.3633,-85.5425 155.4696,-86.2026 159.3291,-86.9093 162.9295,-87.6607 166.2601,-88.4548 169.3118,-89.2894 172.077,-90.1622 174.5498,-91.0707 176.7259,-92.0126 178.6025,-92.9851 180.1783,-93.9857 181.4537,-95.0117 182.4305,-96.0601 183.1117,-97.1282 183.502,-98.2129 183.607,-99.3114 183.4336,-100.4206 182.9899,-101.5375 182.2846,-102.659 181.3275,-103.782 180.1292,-104.9035 178.7008,-106.0203 177.0537,-107.1295 175.2001,-108.228 173.1522,-109.3128 170.9224,-110.3808 168.5232,-111.4293 165.9671,-112.4552 163.2662,-113.4558 160.4325,-114.4284 157.4779,-115.3702 154.4136,-116.2788 151.2504,-117.1515 147.9987,-117.9861 144.6681,-118.7802 141.2678,-119.5317 137.8063,-120.2384 134.2914,-120.8985 130.7304,-121.5101 127.1298,-122.0716 123.4955,-122.5815 119.8329,-123.0383 116.1468,-123.4407 112.4415,-123.7877 108.7206,-124.0784 104.9877,-124.3119 101.2457,-124.4876 97.4974,-124.605 93.7455,-124.6637 89.9924,-124.6637 86.2405,-124.605 82.4922,-124.4876 78.7502,-124.3119 75.0173,-124.0784 71.2964,-123.7877 67.591,-123.4407 63.9049,-123.0383 60.2424,-122.5815 56.6081,-122.0716 53.0075,-121.5101 49.4465,-120.8985 45.9316,-120.2384 42.4701,-119.5317 39.0698,-118.7802 35.7392,-117.9861 32.4874,-117.1515 29.3243,-116.2788 26.2599,-115.3702 23.3053,-114.4284 20.4717,-113.4558 17.7708,-112.4552 15.2146,-111.4293 12.8154,-110.3808 10.5857,-109.3128 8.5378,-108.228 6.6842,-107.1295 5.0371,-106.0203 3.6087,-104.9035 2.4103,-103.782 1.4533,-102.659 .748,-101.5375 .3042,-100.4206 .1309,-99.3114 .2359,-98.2129 .6261,-97.1282 1.3074,-96.0601 2.2842,-95.0117 3.5596,-93.9857 5.1354,-92.9851 7.012,-92.0126 9.1881,-91.0707 11.6609,-90.1622 14.4261,-89.2894 17.4778,-88.4548 20.8084,-87.6607 24.4088,-86.9093 28.2682,-86.2026 32.3746,-85.5425 36.7141,-84.9308 41.2718,-84.3693 46.0311,-83.8595 50.9745,-83.4027 56.083,-83.0002 61.3369,-82.6532 66.7154,-82.3625 72.1969,-82.1291 77.7593,-81.9534 83.3798,-81.836 89.0353,-81.7772 94.7025,-81.7772 100.3581,-81.836"/>
<text text-anchor="middle" x="91.8689" y="-106.2205" font-family="Courier,monospace" font-weight="bold" font-size="10.00" fill="#000000">(&#45;1, &#39;SOURCE&#39;)</text>
<text text-anchor="middle" x="91.8689" y="-95.2205" font-family="Courier,monospace" font-weight="bold" font-size="10.00" fill="#000000">1.0</text>
</g>
<!-- (0, &#39;A&#39;) -->
<g id="node3" class="node">
<title>(0, &#39;A&#39;)</title>
<polygon fill="none" stroke="#000000" points="688.0312,-109.836 695.3809,-109.9534 702.6546,-110.1291 709.8226,-110.3625 716.8559,-110.6532 723.7262,-111.0002 730.4064,-111.4027 736.8706,-111.8595 743.0942,-112.3693 749.054,-112.9308 754.7287,-113.5425 760.0984,-114.2026 765.1453,-114.9093 769.8533,-115.6607 774.2086,-116.4548 778.1992,-117.2894 781.8151,-118.1622 785.0488,-119.0707 787.8943,-120.0126 790.3482,-120.9851 792.4089,-121.9857 794.0767,-123.0117 795.354,-124.0601 796.2448,-125.1282 796.7552,-126.2129 796.8925,-127.3114 796.6658,-128.4206 796.0855,-129.5375 795.1632,-130.659 793.9117,-131.782 792.3447,-132.9035 790.4768,-134.0203 788.323,-135.1295 785.8991,-136.228 783.2212,-137.3128 780.3054,-138.3808 777.1681,-139.4293 773.8254,-140.4552 770.2936,-141.4558 766.5882,-142.4284 762.7246,-143.3702 758.7175,-144.2788 754.5811,-145.1515 750.3289,-145.9861 745.9736,-146.7802 741.5272,-147.5317 737.0007,-148.2384 732.4045,-148.8985 727.7479,-149.5101 723.0395,-150.0716 718.2871,-150.5815 713.4977,-151.0383 708.6776,-151.4407 703.8322,-151.7877 698.9666,-152.0784 694.0852,-152.3119 689.1919,-152.4876 684.2905,-152.605 679.3843,-152.6637 674.4765,-152.6637 669.5702,-152.605 664.6688,-152.4876 659.7756,-152.3119 654.8941,-152.0784 650.0285,-151.7877 645.1832,-151.4407 640.363,-151.0383 635.5736,-150.5815 630.8212,-150.0716 626.1129,-149.5101 621.4563,-148.8985 616.86,-148.2384 612.3335,-147.5317 607.8871,-146.7802 603.5318,-145.9861 599.2796,-145.1515 595.1432,-144.2788 591.1362,-143.3702 587.2726,-142.4284 583.5672,-141.4558 580.0353,-140.4552 576.6927,-139.4293 573.5554,-138.3808 570.6396,-137.3128 567.9616,-136.228 565.5377,-135.1295 563.384,-134.0203 561.516,-132.9035 559.949,-131.782 558.6975,-130.659 557.7753,-129.5375 557.195,-128.4206 556.9683,-127.3114 557.1056,-126.2129 557.6159,-125.1282 558.5068,-124.0601 559.784,-123.0117 561.4518,-121.9857 563.5125,-120.9851 565.9664,-120.0126 568.812,-119.0707 572.0456,-118.1622 575.6616,-117.2894 579.6521,-116.4548 584.0074,-115.6607 588.7155,-114.9093 593.7623,-114.2026 599.1321,-113.5425 604.8067,-112.9308 610.7665,-112.3693 616.9901,-111.8595 623.4543,-111.4027 630.1346,-111.0002 637.0049,-110.6532 644.0381,-110.3625 651.2061,-110.1291 658.4798,-109.9534 665.8295,-109.836 673.225,-109.7772 680.6358,-109.7772 688.0312,-109.836"/>
<text text-anchor="middle" x="676.9304" y="-134.2205" font-family="Courier,monospace" font-weight="bold" font-size="10.00" fill="#000000">(0, &#39;A&#39;)</text>
<text text-anchor="middle" x="676.9304" y="-123.2205" font-family="Courier,monospace" font-weight="bold" font-size="10.00" fill="#000000">0.11401579526142158</text>
</g>
<!-- (&#45;1, &#39;SOURCE&#39;)&#45;&gt;(0, &#39;A&#39;) -->
<g id="edge1" class="edge">
<title>(&#45;1, &#39;SOURCE&#39;)&#45;&gt;(0, &#39;A&#39;)</title>
<path fill="none" stroke="#000000" d="M176.9419,-107.2919C274.156,-111.9444 434.3468,-119.6109 547.162,-125.01"/>
<polygon fill="#000000" stroke="#000000" points="547.0883,-128.5104 557.2442,-125.4925 547.423,-121.5184 547.0883,-128.5104"/>
<text text-anchor="middle" x="370.4687" y="-125.2205" font-family="Courier,monospace" font-weight="bold" font-size="10.00" fill="#000000">None</text>
</g>
<!-- (0, &#39;B&#39;) -->
<g id="node4" class="node">
<title>(0, &#39;B&#39;)</title>
<polygon fill="none" stroke="#000000" points="381.5696,-52.836 388.9193,-52.9534 396.193,-53.1291 403.361,-53.3625 410.3942,-53.6532 417.2645,-54.0002 423.9447,-54.4027 430.409,-54.8595 436.6325,-55.3693 442.5924,-55.9308 448.267,-56.5425 453.6367,-57.2026 458.6836,-57.9093 463.3917,-58.6607 467.747,-59.4548 471.7375,-60.2894 475.3535,-61.1622 478.5871,-62.0707 481.4327,-63.0126 483.8866,-63.9851 485.9472,-64.9857 487.6151,-66.0117 488.8923,-67.0601 489.7832,-68.1282 490.2935,-69.2129 490.4308,-70.3114 490.2041,-71.4206 489.6238,-72.5375 488.7015,-73.659 487.45,-74.782 485.8831,-75.9035 484.0151,-77.0203 481.8614,-78.1295 479.4375,-79.228 476.7595,-80.3128 473.8437,-81.3808 470.7064,-82.4293 467.3638,-83.4552 463.8319,-84.4558 460.1265,-85.4284 456.2629,-86.3702 452.2558,-87.2788 448.1195,-88.1515 443.8673,-88.9861 439.512,-89.7802 435.0656,-90.5317 430.5391,-91.2384 425.9428,-91.8985 421.2862,-92.5101 416.5779,-93.0716 411.8255,-93.5815 407.0361,-94.0383 402.2159,-94.4407 397.3705,-94.7877 392.5049,-95.0784 387.6235,-95.3119 382.7303,-95.4876 377.8288,-95.605 372.9226,-95.6637 368.0148,-95.6637 363.1086,-95.605 358.2071,-95.4876 353.3139,-95.3119 348.4325,-95.0784 343.5669,-94.7877 338.7215,-94.4407 333.9013,-94.0383 329.1119,-93.5815 324.3596,-93.0716 319.6512,-92.5101 314.9946,-91.8985 310.3983,-91.2384 305.8719,-90.5317 301.4254,-89.7802 297.0701,-88.9861 292.818,-88.1515 288.6816,-87.2788 284.6745,-86.3702 280.8109,-85.4284 277.1055,-84.4558 273.5736,-83.4552 270.231,-82.4293 267.0937,-81.3808 264.1779,-80.3128 261.4999,-79.228 259.0761,-78.1295 256.9223,-77.0203 255.0543,-75.9035 253.4874,-74.782 252.2359,-73.659 251.3136,-72.5375 250.7333,-71.4206 250.5066,-70.3114 250.6439,-69.2129 251.1542,-68.1282 252.0451,-67.0601 253.3224,-66.0117 254.9902,-64.9857 257.0508,-63.9851 259.5047,-63.0126 262.3503,-62.0707 265.5839,-61.1622 269.1999,-60.2894 273.1905,-59.4548 277.5457,-58.6607 282.2538,-57.9093 287.3007,-57.2026 292.6704,-56.5425 298.345,-55.9308 304.3049,-55.3693 310.5285,-54.8595 316.9927,-54.4027 323.6729,-54.0002 330.5432,-53.6532 337.5765,-53.3625 344.7444,-53.1291 352.0181,-52.9534 359.3678,-52.836 366.7633,-52.7772 374.1741,-52.7772 381.5696,-52.836"/>
<text text-anchor="middle" x="370.4687" y="-77.2205" font-family="Courier,monospace" font-weight="bold" font-size="10.00" fill="#000000">(0, &#39;B&#39;)</text>
<text text-anchor="middle" x="370.4687" y="-66.2205" font-family="Courier,monospace" font-weight="bold" font-size="10.00" fill="#000000">0.10151954413675898</text>
</g>
<!-- (&#45;1, &#39;SOURCE&#39;)&#45;&gt;(0, &#39;B&#39;) -->
<g id="edge2" class="edge">
<title>(&#45;1, &#39;SOURCE&#39;)&#45;&gt;(0, &#39;B&#39;)</title>
<path fill="none" stroke="#000000" d="M180.4024,-94.0048C207.3644,-91.1983 237.2659,-88.0858 265.2187,-85.1762"/>
<polygon fill="#000000" stroke="#000000" points="265.836,-88.6309 275.4199,-84.1143 265.1112,-81.6685 265.836,-88.6309"/>
<text text-anchor="middle" x="217.2379" y="-94.2205" font-family="Courier,monospace" font-weight="bold" font-size="10.00" fill="#000000">None</text>
</g>
<!-- (1, &#39;A&#39;) -->
<g id="node6" class="node">
<title>(1, &#39;A&#39;)</title>
<polygon fill="none" stroke="#000000" points="1001.0305,-110.836 1008.7202,-110.9534 1016.3303,-111.1291 1023.8298,-111.3625 1031.1883,-111.6532 1038.3764,-112.0002 1045.3656,-112.4027 1052.1288,-112.8595 1058.6402,-113.3693 1064.8757,-113.9308 1070.8128,-114.5425 1076.4309,-115.2026 1081.7112,-115.9093 1086.637,-116.6607 1091.1937,-117.4548 1095.3689,-118.2894 1099.1521,-119.1622 1102.5352,-120.0707 1105.5124,-121.0126 1108.0798,-121.9851 1110.2358,-122.9857 1111.9808,-124.0117 1113.3171,-125.0601 1114.2492,-126.1282 1114.7831,-127.2129 1114.9267,-128.3114 1114.6896,-129.4206 1114.0824,-130.5375 1113.1175,-131.659 1111.8081,-132.782 1110.1687,-133.9035 1108.2143,-135.0203 1105.9609,-136.1295 1103.425,-137.228 1100.6231,-138.3128 1097.5725,-139.3808 1094.29,-140.4293 1090.7928,-141.4552 1087.0976,-142.4558 1083.2208,-143.4284 1079.1785,-144.3702 1074.9861,-145.2788 1070.6584,-146.1515 1066.2096,-146.9861 1061.6528,-147.7802 1057.0008,-148.5317 1052.2649,-149.2384 1047.4561,-149.8985 1042.5841,-150.5101 1037.658,-151.0716 1032.6858,-151.5815 1027.6749,-152.0383 1022.6318,-152.4407 1017.5623,-152.7877 1012.4717,-153.0784 1007.3645,-153.3119 1002.2449,-153.4876 997.1168,-153.605 991.9836,-153.6637 986.8488,-153.6637 981.7157,-153.605 976.5875,-153.4876 971.468,-153.3119 966.3608,-153.0784 961.2701,-152.7877 956.2007,-152.4407 951.1575,-152.0383 946.1466,-151.5815 941.1745,-151.0716 936.2483,-150.5101 931.3763,-149.8985 926.5675,-149.2384 921.8317,-148.5317 917.1796,-147.7802 912.6229,-146.9861 908.174,-146.1515 903.8463,-145.2788 899.6539,-144.3702 895.6116,-143.4284 891.7348,-142.4558 888.0396,-141.4552 884.5424,-140.4293 881.26,-139.3808 878.2093,-138.3128 875.4075,-137.228 872.8715,-136.1295 870.6181,-135.0203 868.6638,-133.9035 867.0243,-132.782 865.715,-131.659 864.75,-130.5375 864.1429,-129.4206 863.9057,-128.3114 864.0494,-127.2129 864.5833,-126.1282 865.5154,-125.0601 866.8517,-124.0117 868.5966,-122.9857 870.7526,-121.9851 873.32,-121.0126 876.2972,-120.0707 879.6804,-119.1622 883.4636,-118.2894 887.6387,-117.4548 892.1954,-116.6607 897.1213,-115.9093 902.4016,-115.2026 908.0196,-114.5425 913.9567,-113.9308 920.1922,-113.3693 926.7037,-112.8595 933.4668,-112.4027 940.456,-112.0002 947.6441,-111.6532 955.0027,-111.3625 962.5022,-111.1291 970.1123,-110.9534 977.8019,-110.836 985.5395,-110.7772 993.293,-110.7772 1001.0305,-110.836"/>
<text text-anchor="middle" x="989.4162" y="-135.2205" font-family="Courier,monospace" font-weight="bold" font-size="10.00" fill="#000000">(1, &#39;A&#39;)</text>
<text text-anchor="middle" x="989.4162" y="-124.2205" font-family="Courier,monospace" font-weight="bold" font-size="10.00" fill="#000000">0.016771308806677928</text>
</g>
<!-- (0, &#39;A&#39;)&#45;&gt;(1, &#39;A&#39;) -->
<g id="edge3" class="edge">
<title>(0, &#39;A&#39;)&#45;&gt;(1, &#39;A&#39;)</title>
<path fill="none" stroke="#000000" d="M794.1776,-131.5957C814.2694,-131.66 835.2803,-131.7272 855.7622,-131.7928"/>
<polygon fill="#000000" stroke="#000000" points="855.7569,-135.2927 865.7681,-131.8248 855.7793,-128.2927 855.7569,-135.2927"/>
<text text-anchor="middle" x="830.1612" y="-134.2205" font-family="Courier,monospace" font-weight="bold" font-size="10.00" fill="#000000">None</text>
</g>
<!-- (1, &#39;B&#39;) -->
<g id="node7" class="node">
<title>(1, &#39;B&#39;)</title>
<polygon fill="none" stroke="#000000" points="1000.5171,-38.836 1007.8668,-38.9534 1015.1405,-39.1291 1022.3085,-39.3625 1029.3417,-39.6532 1036.212,-40.0002 1042.8923,-40.4027 1049.3565,-40.8595 1055.58,-41.3693 1061.5399,-41.9308 1067.2145,-42.5425 1072.5842,-43.2026 1077.6311,-43.9093 1082.3392,-44.6607 1086.6945,-45.4548 1090.685,-46.2894 1094.301,-47.1622 1097.5346,-48.0707 1100.3802,-49.0126 1102.8341,-49.9851 1104.8948,-50.9857 1106.5626,-52.0117 1107.8398,-53.0601 1108.7307,-54.1282 1109.241,-55.2129 1109.3783,-56.3114 1109.1516,-57.4206 1108.5713,-58.5375 1107.649,-59.659 1106.3976,-60.782 1104.8306,-61.9035 1102.9626,-63.0203 1100.8089,-64.1295 1098.385,-65.228 1095.707,-66.3128 1092.7912,-67.3808 1089.6539,-68.4293 1086.3113,-69.4552 1082.7794,-70.4558 1079.074,-71.4284 1075.2104,-72.3702 1071.2033,-73.2788 1067.067,-74.1515 1062.8148,-74.9861 1058.4595,-75.7802 1054.0131,-76.5317 1049.4866,-77.2384 1044.8903,-77.8985 1040.2337,-78.5101 1035.5254,-79.0716 1030.773,-79.5815 1025.9836,-80.0383 1021.1634,-80.4407 1016.3181,-80.7877 1011.4524,-81.0784 1006.571,-81.3119 1001.6778,-81.4876 996.7764,-81.605 991.8701,-81.6637 986.9623,-81.6637 982.0561,-81.605 977.1547,-81.4876 972.2614,-81.3119 967.38,-81.0784 962.5144,-80.7877 957.669,-80.4407 952.8488,-80.0383 948.0594,-79.5815 943.3071,-79.0716 938.5987,-78.5101 933.9421,-77.8985 929.3459,-77.2384 924.8194,-76.5317 920.3729,-75.7802 916.0177,-74.9861 911.7655,-74.1515 907.6291,-73.2788 903.622,-72.3702 899.7584,-71.4284 896.053,-70.4558 892.5211,-69.4552 889.1785,-68.4293 886.0412,-67.3808 883.1254,-66.3128 880.4474,-65.228 878.0236,-64.1295 875.8698,-63.0203 874.0019,-61.9035 872.4349,-60.782 871.1834,-59.659 870.2611,-58.5375 869.6808,-57.4206 869.4541,-56.3114 869.5914,-55.2129 870.1017,-54.1282 870.9926,-53.0601 872.2699,-52.0117 873.9377,-50.9857 875.9983,-49.9851 878.4523,-49.0126 881.2978,-48.0707 884.5314,-47.1622 888.1474,-46.2894 892.138,-45.4548 896.4933,-44.6607 901.2013,-43.9093 906.2482,-43.2026 911.6179,-42.5425 917.2925,-41.9308 923.2524,-41.3693 929.476,-40.8595 935.9402,-40.4027 942.6204,-40.0002 949.4907,-39.6532 956.524,-39.3625 963.692,-39.1291 970.9657,-38.9534 978.3153,-38.836 985.7108,-38.7772 993.1216,-38.7772 1000.5171,-38.836"/>
<text text-anchor="middle" x="989.4162" y="-63.2205" font-family="Courier,monospace" font-weight="bold" font-size="10.00" fill="#000000">(1, &#39;B&#39;)</text>
<text text-anchor="middle" x="989.4162" y="-52.2205" font-family="Courier,monospace" font-weight="bold" font-size="10.00" fill="#000000">0.02882894308693349</text>
</g>
<!-- (0, &#39;A&#39;)&#45;&gt;(1, &#39;B&#39;) -->
<g id="edge4" class="edge">
<title>(0, &#39;A&#39;)&#45;&gt;(1, &#39;B&#39;)</title>
<path fill="none" stroke="#000000" d="M754.9777,-113.4873C802.4862,-102.6929 862.9908,-88.9456 910.6327,-78.1209"/>
<polygon fill="#000000" stroke="#000000" points="911.6184,-81.4862 920.5944,-75.8575 910.0674,-74.6602 911.6184,-81.4862"/>
<text text-anchor="middle" x="830.1612" y="-100.2205" font-family="Courier,monospace" font-weight="bold" font-size="10.00" fill="#000000">None</text>
</g>
<!-- (0, &#39;C&#39;) -->
<g id="node5" class="node">
<title>(0, &#39;C&#39;)</title>
<polygon fill="none" stroke="#000000" points="688.0312,.164 695.3809,.0466 702.6546,-.1291 709.8226,-.3625 716.8559,-.6532 723.7262,-1.0002 730.4064,-1.4027 736.8706,-1.8595 743.0942,-2.3693 749.054,-2.9308 754.7287,-3.5425 760.0984,-4.2026 765.1453,-4.9093 769.8533,-5.6607 774.2086,-6.4548 778.1992,-7.2894 781.8151,-8.1622 785.0488,-9.0707 787.8943,-10.0126 790.3482,-10.9851 792.4089,-11.9857 794.0767,-13.0117 795.354,-14.0601 796.2448,-15.1282 796.7552,-16.2129 796.8925,-17.3114 796.6658,-18.4206 796.0855,-19.5375 795.1632,-20.659 793.9117,-21.782 792.3447,-22.9035 790.4768,-24.0203 788.323,-25.1295 785.8991,-26.228 783.2212,-27.3128 780.3054,-28.3808 777.1681,-29.4293 773.8254,-30.4552 770.2936,-31.4558 766.5882,-32.4284 762.7246,-33.3702 758.7175,-34.2788 754.5811,-35.1515 750.3289,-35.9861 745.9736,-36.7802 741.5272,-37.5317 737.0007,-38.2384 732.4045,-38.8985 727.7479,-39.5101 723.0395,-40.0716 718.2871,-40.5815 713.4977,-41.0383 708.6776,-41.4407 703.8322,-41.7877 698.9666,-42.0784 694.0852,-42.3119 689.1919,-42.4876 684.2905,-42.605 679.3843,-42.6637 674.4765,-42.6637 669.5702,-42.605 664.6688,-42.4876 659.7756,-42.3119 654.8941,-42.0784 650.0285,-41.7877 645.1832,-41.4407 640.363,-41.0383 635.5736,-40.5815 630.8212,-40.0716 626.1129,-39.5101 621.4563,-38.8985 616.86,-38.2384 612.3335,-37.5317 607.8871,-36.7802 603.5318,-35.9861 599.2796,-35.1515 595.1432,-34.2788 591.1362,-33.3702 587.2726,-32.4284 583.5672,-31.4558 580.0353,-30.4552 576.6927,-29.4293 573.5554,-28.3808 570.6396,-27.3128 567.9616,-26.228 565.5377,-25.1295 563.384,-24.0203 561.516,-22.9035 559.949,-21.782 558.6975,-20.659 557.7753,-19.5375 557.195,-18.4206 556.9683,-17.3114 557.1056,-16.2129 557.6159,-15.1282 558.5068,-14.0601 559.784,-13.0117 561.4518,-11.9857 563.5125,-10.9851 565.9664,-10.0126 568.812,-9.0707 572.0456,-8.1622 575.6616,-7.2894 579.6521,-6.4548 584.0074,-5.6607 588.7155,-4.9093 593.7623,-4.2026 599.1321,-3.5425 604.8067,-2.9308 610.7665,-2.3693 616.9901,-1.8595 623.4543,-1.4027 630.1346,-1.0002 637.0049,-.6532 644.0381,-.3625 651.2061,-.1291 658.4798,.0466 665.8295,.164 673.225,.2228 680.6358,.2228 688.0312,.164"/>
<text text-anchor="middle" x="676.9304" y="-24.2205" font-family="Courier,monospace" font-weight="bold" font-size="10.00" fill="#000000">(0, &#39;C&#39;)</text>
<text text-anchor="middle" x="676.9304" y="-13.2205" font-family="Courier,monospace" font-weight="bold" font-size="10.00" fill="#000000">0.07095812168167187</text>
</g>
<!-- (0, &#39;B&#39;)&#45;&gt;(0, &#39;C&#39;) -->
<g id="edge5" class="edge">
<title>(0, &#39;B&#39;)&#45;&gt;(0, &#39;C&#39;)</title>
<path fill="none" stroke="#000000" d="M462.0022,-58.3905C501.8381,-51.5012 548.3527,-43.4569 587.9016,-36.6173"/>
<polygon fill="#000000" stroke="#000000" points="588.5407,-40.0588 597.798,-34.9058 587.3478,-33.1612 588.5407,-40.0588"/>
<text text-anchor="middle" x="523.6995" y="-53.2205" font-family="Courier,monospace" font-weight="bold" font-size="10.00" fill="#000000">None</text>
</g>
<!-- (0, &#39;B&#39;)&#45;&gt;(1, &#39;A&#39;) -->
<g id="edge6" class="edge">
<title>(0, &#39;B&#39;)&#45;&gt;(1, &#39;A&#39;)</title>
<path fill="none" stroke="#000000" d="M490.3497,-70.9705C586.8881,-70.2196 725.7766,-73.3542 845.6612,-92.2205 870.5161,-96.1319 897.2035,-102.833 920.7553,-109.644"/>
<polygon fill="#000000" stroke="#000000" points="920.0608,-113.0881 930.6425,-112.5619 922.0422,-106.3744 920.0608,-113.0881"/>
<text text-anchor="middle" x="676.9304" y="-88.2205" font-family="Courier,monospace" font-weight="bold" font-size="10.00" fill="#000000">None</text>
</g>
<!-- (0, &#39;C&#39;)&#45;&gt;(1, &#39;B&#39;) -->
<g id="edge7" class="edge">
<title>(0, &#39;C&#39;)&#45;&gt;(1, &#39;B&#39;)</title>
<path fill="none" stroke="#000000" d="M766.895,-32.4486C800.2899,-36.6164 838.6436,-41.4032 873.9981,-45.8156"/>
<polygon fill="#000000" stroke="#000000" points="874.0161,-49.345 884.3726,-47.1104 874.883,-42.3988 874.0161,-49.345"/>
<text text-anchor="middle" x="830.1612" y="-45.2205" font-family="Courier,monospace" font-weight="bold" font-size="10.00" fill="#000000">None</text>
</g>
<!-- (2, &#39;A&#39;) -->
<g id="node9" class="node">
<title>(2, &#39;A&#39;)</title>
<polygon fill="none" stroke="#000000" points="1319.5406,-148.836 1327.2302,-148.9534 1334.8403,-149.1291 1342.3398,-149.3625 1349.6984,-149.6532 1356.8864,-150.0002 1363.8756,-150.4027 1370.6388,-150.8595 1377.1503,-151.3693 1383.3858,-151.9308 1389.3229,-152.5425 1394.9409,-153.2026 1400.2212,-153.9093 1405.147,-154.6607 1409.7038,-155.4548 1413.8789,-156.2894 1417.6621,-157.1622 1421.0453,-158.0707 1424.0225,-159.0126 1426.5899,-159.9851 1428.7459,-160.9857 1430.4908,-162.0117 1431.8271,-163.0601 1432.7592,-164.1282 1433.2931,-165.2129 1433.4368,-166.3114 1433.1996,-167.4206 1432.5924,-168.5375 1431.6275,-169.659 1430.3182,-170.782 1428.6787,-171.9035 1426.7244,-173.0203 1424.471,-174.1295 1421.935,-175.228 1419.1332,-176.3128 1416.0825,-177.3808 1412.8001,-178.4293 1409.3029,-179.4552 1405.6077,-180.4558 1401.7309,-181.4284 1397.6886,-182.3702 1393.4962,-183.2788 1389.1685,-184.1515 1384.7196,-184.9861 1380.1629,-185.7802 1375.5108,-186.5317 1370.775,-187.2384 1365.9661,-187.8985 1361.0942,-188.5101 1356.168,-189.0716 1351.1959,-189.5815 1346.1849,-190.0383 1341.1418,-190.4407 1336.0724,-190.7877 1330.9817,-191.0784 1325.8745,-191.3119 1320.7549,-191.4876 1315.6268,-191.605 1310.4937,-191.6637 1305.3589,-191.6637 1300.2257,-191.605 1295.0976,-191.4876 1289.978,-191.3119 1284.8708,-191.0784 1279.7802,-190.7877 1274.7107,-190.4407 1269.6676,-190.0383 1264.6567,-189.5815 1259.6845,-189.0716 1254.7584,-188.5101 1249.8864,-187.8985 1245.0776,-187.2384 1240.3417,-186.5317 1235.6896,-185.7802 1231.1329,-184.9861 1226.6841,-184.1515 1222.3564,-183.2788 1218.164,-182.3702 1214.1217,-181.4284 1210.2449,-180.4558 1206.5497,-179.4552 1203.0524,-178.4293 1199.77,-177.3808 1196.7194,-176.3128 1193.9175,-175.228 1191.3816,-174.1295 1189.1282,-173.0203 1187.1738,-171.9035 1185.5344,-170.782 1184.225,-169.659 1183.2601,-168.5375 1182.6529,-167.4206 1182.4157,-166.3114 1182.5594,-165.2129 1183.0933,-164.1282 1184.0254,-163.0601 1185.3617,-162.0117 1187.1067,-160.9857 1189.2627,-159.9851 1191.8301,-159.0126 1194.8072,-158.0707 1198.1904,-157.1622 1201.9736,-156.2894 1206.1488,-155.4548 1210.7055,-154.6607 1215.6313,-153.9093 1220.9116,-153.2026 1226.5297,-152.5425 1232.4668,-151.9308 1238.7023,-151.3693 1245.2137,-150.8595 1251.9769,-150.4027 1258.9661,-150.0002 1266.1542,-149.6532 1273.5127,-149.3625 1281.0122,-149.1291 1288.6223,-148.9534 1296.312,-148.836 1304.0495,-148.7772 1311.803,-148.7772 1319.5406,-148.836"/>
<text text-anchor="middle" x="1307.9263" y="-173.2205" font-family="Courier,monospace" font-weight="bold" font-size="10.00" fill="#000000">(2, &#39;A&#39;)</text>
<text text-anchor="middle" x="1307.9263" y="-162.2205" font-family="Courier,monospace" font-weight="bold" font-size="10.00" fill="#000000">0.008939923754685136</text>
</g>
<!-- (1, &#39;A&#39;)&#45;&gt;(2, &#39;A&#39;) -->
<g id="edge8" class="edge">
<title>(1, &#39;A&#39;)&#45;&gt;(2, &#39;A&#39;)</title>
<path fill="none" stroke="#000000" d="M1083.6869,-143.4675C1116.4108,-147.3716 1153.5531,-151.8029 1188.0625,-155.9201"/>
<polygon fill="#000000" stroke="#000000" points="1187.854,-159.4199 1198.1982,-157.1293 1188.6833,-152.4692 1187.854,-159.4199"/>
<text text-anchor="middle" x="1148.6712" y="-155.2205" font-family="Courier,monospace" font-weight="bold" font-size="10.00" fill="#000000">None</text>
</g>
<!-- (2, &#39;B&#39;) -->
<g id="node10" class="node">
<title>(2, &#39;B&#39;)</title>
<polygon fill="none" stroke="#000000" points="1638.0506,-62.836 1645.7402,-62.9534 1653.3504,-63.1291 1660.8499,-63.3625 1668.2084,-63.6532 1675.3965,-64.0002 1682.3857,-64.4027 1689.1489,-64.8595 1695.6603,-65.3693 1701.8958,-65.9308 1707.8329,-66.5425 1713.451,-67.2026 1718.7313,-67.9093 1723.6571,-68.6607 1728.2138,-69.4548 1732.3889,-70.2894 1736.1722,-71.1622 1739.5553,-72.0707 1742.5325,-73.0126 1745.0999,-73.9851 1747.2559,-74.9857 1749.0008,-76.0117 1750.3372,-77.0601 1751.2692,-78.1282 1751.8032,-79.2129 1751.9468,-80.3114 1751.7096,-81.4206 1751.1025,-82.5375 1750.1376,-83.659 1748.8282,-84.782 1747.1887,-85.9035 1745.2344,-87.0203 1742.981,-88.1295 1740.445,-89.228 1737.6432,-90.3128 1734.5926,-91.3808 1731.3101,-92.4293 1727.8129,-93.4552 1724.1177,-94.4558 1720.2409,-95.4284 1716.1986,-96.3702 1712.0062,-97.2788 1707.6785,-98.1515 1703.2297,-98.9861 1698.6729,-99.7802 1694.0209,-100.5317 1689.285,-101.2384 1684.4762,-101.8985 1679.6042,-102.5101 1674.6781,-103.0716 1669.7059,-103.5815 1664.695,-104.0383 1659.6519,-104.4407 1654.5824,-104.7877 1649.4917,-105.0784 1644.3846,-105.3119 1639.265,-105.4876 1634.1369,-105.605 1629.0037,-105.6637 1623.8689,-105.6637 1618.7358,-105.605 1613.6076,-105.4876 1608.4881,-105.3119 1603.3809,-105.0784 1598.2902,-104.7877 1593.2208,-104.4407 1588.1776,-104.0383 1583.1667,-103.5815 1578.1946,-103.0716 1573.2684,-102.5101 1568.3964,-101.8985 1563.5876,-101.2384 1558.8518,-100.5317 1554.1997,-99.7802 1549.643,-98.9861 1545.1941,-98.1515 1540.8664,-97.2788 1536.674,-96.3702 1532.6317,-95.4284 1528.7549,-94.4558 1525.0597,-93.4552 1521.5625,-92.4293 1518.2801,-91.3808 1515.2294,-90.3128 1512.4276,-89.228 1509.8916,-88.1295 1507.6382,-87.0203 1505.6839,-85.9035 1504.0444,-84.782 1502.7351,-83.659 1501.7701,-82.5375 1501.163,-81.4206 1500.9258,-80.3114 1501.0694,-79.2129 1501.6034,-78.1282 1502.5354,-77.0601 1503.8718,-76.0117 1505.6167,-74.9857 1507.7727,-73.9851 1510.3401,-73.0126 1513.3173,-72.0707 1516.7005,-71.1622 1520.4837,-70.2894 1524.6588,-69.4548 1529.2155,-68.6607 1534.1414,-67.9093 1539.4216,-67.2026 1545.0397,-66.5425 1550.9768,-65.9308 1557.2123,-65.3693 1563.7237,-64.8595 1570.4869,-64.4027 1577.4761,-64.0002 1584.6642,-63.6532 1592.0227,-63.3625 1599.5223,-63.1291 1607.1324,-62.9534 1614.822,-62.836 1622.5595,-62.7772 1630.3131,-62.7772 1638.0506,-62.836"/>
<text text-anchor="middle" x="1626.4363" y="-87.2205" font-family="Courier,monospace" font-weight="bold" font-size="10.00" fill="#000000">(2, &#39;B&#39;)</text>
<text text-anchor="middle" x="1626.4363" y="-76.2205" font-family="Courier,monospace" font-weight="bold" font-size="10.00" fill="#000000">0.017500092867307002</text>
</g>
<!-- (1, &#39;A&#39;)&#45;&gt;(2, &#39;B&#39;) -->
<g id="edge9" class="edge">
<title>(1, &#39;A&#39;)&#45;&gt;(2, &#39;B&#39;)</title>
<path fill="none" stroke="#000000" d="M1110.7342,-123.0791C1225.7569,-114.412 1397.3443,-101.4827 1510.5449,-92.953"/>
<polygon fill="#000000" stroke="#000000" points="1510.923,-96.4345 1520.6317,-92.1929 1510.3969,-89.4543 1510.923,-96.4345"/>
<text text-anchor="middle" x="1307.9263" y="-120.2205" font-family="Courier,monospace" font-weight="bold" font-size="10.00" fill="#000000">None</text>
</g>
<!-- (1, &#39;C&#39;) -->
<g id="node8" class="node">
<title>(1, &#39;C&#39;)</title>
<polygon fill="none" stroke="#000000" points="1319.0271,-40.836 1326.3768,-40.9534 1333.6505,-41.1291 1340.8185,-41.3625 1347.8518,-41.6532 1354.7221,-42.0002 1361.4023,-42.4027 1367.8665,-42.8595 1374.0901,-43.3693 1380.0499,-43.9308 1385.7246,-44.5425 1391.0943,-45.2026 1396.1412,-45.9093 1400.8492,-46.6607 1405.2045,-47.4548 1409.1951,-48.2894 1412.811,-49.1622 1416.0447,-50.0707 1418.8902,-51.0126 1421.3441,-51.9851 1423.4048,-52.9857 1425.0726,-54.0117 1426.3499,-55.0601 1427.2407,-56.1282 1427.7511,-57.2129 1427.8884,-58.3114 1427.6617,-59.4206 1427.0814,-60.5375 1426.1591,-61.659 1424.9076,-62.782 1423.3406,-63.9035 1421.4727,-65.0203 1419.3189,-66.1295 1416.895,-67.228 1414.2171,-68.3128 1411.3013,-69.3808 1408.164,-70.4293 1404.8213,-71.4552 1401.2895,-72.4558 1397.5841,-73.4284 1393.7205,-74.3702 1389.7134,-75.2788 1385.577,-76.1515 1381.3248,-76.9861 1376.9695,-77.7802 1372.5231,-78.5317 1367.9966,-79.2384 1363.4004,-79.8985 1358.7438,-80.5101 1354.0354,-81.0716 1349.283,-81.5815 1344.4936,-82.0383 1339.6735,-82.4407 1334.8281,-82.7877 1329.9625,-83.0784 1325.0811,-83.3119 1320.1878,-83.4876 1315.2864,-83.605 1310.3802,-83.6637 1305.4724,-83.6637 1300.5661,-83.605 1295.6647,-83.4876 1290.7715,-83.3119 1285.89,-83.0784 1281.0244,-82.7877 1276.1791,-82.4407 1271.3589,-82.0383 1266.5695,-81.5815 1261.8171,-81.0716 1257.1087,-80.5101 1252.4521,-79.8985 1247.8559,-79.2384 1243.3294,-78.5317 1238.883,-77.7802 1234.5277,-76.9861 1230.2755,-76.1515 1226.1391,-75.2788 1222.1321,-74.3702 1218.2685,-73.4284 1214.5631,-72.4558 1211.0312,-71.4552 1207.6886,-70.4293 1204.5512,-69.3808 1201.6355,-68.3128 1198.9575,-67.228 1196.5336,-66.1295 1194.3799,-65.0203 1192.5119,-63.9035 1190.9449,-62.782 1189.6934,-61.659 1188.7712,-60.5375 1188.1909,-59.4206 1187.9642,-58.3114 1188.1015,-57.2129 1188.6118,-56.1282 1189.5027,-55.0601 1190.7799,-54.0117 1192.4477,-52.9857 1194.5084,-51.9851 1196.9623,-51.0126 1199.8079,-50.0707 1203.0415,-49.1622 1206.6575,-48.2894 1210.648,-47.4548 1215.0033,-46.6607 1219.7114,-45.9093 1224.7582,-45.2026 1230.1279,-44.5425 1235.8026,-43.9308 1241.7624,-43.3693 1247.986,-42.8595 1254.4502,-42.4027 1261.1305,-42.0002 1268.0008,-41.6532 1275.034,-41.3625 1282.202,-41.1291 1289.4757,-40.9534 1296.8254,-40.836 1304.2209,-40.7772 1311.6317,-40.7772 1319.0271,-40.836"/>
<text text-anchor="middle" x="1307.9263" y="-65.2205" font-family="Courier,monospace" font-weight="bold" font-size="10.00" fill="#000000">(1, &#39;C&#39;)</text>
<text text-anchor="middle" x="1307.9263" y="-54.2205" font-family="Courier,monospace" font-weight="bold" font-size="10.00" fill="#000000">0.02015028405526415</text>
</g>
<!-- (1, &#39;B&#39;)&#45;&gt;(1, &#39;C&#39;) -->
<g id="edge10" class="edge">
<title>(1, &#39;B&#39;)&#45;&gt;(1, &#39;C&#39;)</title>
<path fill="none" stroke="#000000" d="M1106.4486,-60.8702C1125.7333,-60.983 1145.5126,-61.1022 1164.1712,-61.2205 1168.9873,-61.251 1173.8941,-61.2826 1178.8506,-61.315"/>
<polygon fill="#000000" stroke="#000000" points="1179.0582,-64.8163 1189.0811,-61.3823 1179.1044,-57.8165 1179.0582,-64.8163"/>
<text text-anchor="middle" x="1148.6712" y="-64.2205" font-family="Courier,monospace" font-weight="bold" font-size="10.00" fill="#000000">None</text>
</g>
<!-- (1, &#39;B&#39;)&#45;&gt;(2, &#39;A&#39;) -->
<g id="edge11" class="edge">
<title>(1, &#39;B&#39;)&#45;&gt;(2, &#39;A&#39;)</title>
<path fill="none" stroke="#000000" d="M1046.9828,-77.6358C1068.6029,-84.6474 1093.243,-93.2069 1115.1712,-102.2205 1145.8725,-114.8403 1151.1589,-123.3858 1182.1712,-135.2205 1195.205,-140.1943 1209.242,-144.7999 1223.0461,-148.9267"/>
<polygon fill="#000000" stroke="#000000" points="1222.4585,-152.4013 1233.0387,-151.8455 1224.4212,-145.6821 1222.4585,-152.4013"/>
<text text-anchor="middle" x="1148.6712" y="-129.2205" font-family="Courier,monospace" font-weight="bold" font-size="10.00" fill="#000000">None</text>
</g>
<!-- (1, &#39;C&#39;)&#45;&gt;(2, &#39;B&#39;) -->
<g id="edge12" class="edge">
<title>(1, &#39;C&#39;)&#45;&gt;(2, &#39;B&#39;)</title>
<path fill="none" stroke="#000000" d="M1411.7776,-69.3937C1438.051,-71.2084 1466.6227,-73.1819 1494.094,-75.0794"/>
<polygon fill="#000000" stroke="#000000" points="1493.9415,-78.5771 1504.1589,-75.7746 1494.4239,-71.5937 1493.9415,-78.5771"/>
<text text-anchor="middle" x="1467.1813" y="-76.2205" font-family="Courier,monospace" font-weight="bold" font-size="10.00" fill="#000000">None</text>
</g>
<!-- (2, &#39;A&#39;)&#45;&gt;(&#45;1, &#39;SINK&#39;) -->
<g id="edge13" class="edge">
<title>(2, &#39;A&#39;)&#45;&gt;(&#45;1, &#39;SINK&#39;)</title>
<path fill="none" stroke="#000000" d="M1428.7976,-171.9506C1577.3827,-172.9746 1837.0959,-171.1814 2058.653,-151.2205 2092.8896,-148.136 2130.2788,-142.7814 2162.9385,-137.4417"/>
<polygon fill="#000000" stroke="#000000" points="2163.6211,-140.8764 2172.9138,-135.7876 2162.4759,-133.9707 2163.6211,-140.8764"/>
<text text-anchor="middle" x="1785.6913" y="-170.2205" font-family="Courier,monospace" font-weight="bold" font-size="10.00" fill="#000000">None</text>
</g>
<!-- (2, &#39;B&#39;)&#45;&gt;(&#45;1, &#39;SINK&#39;) -->
<g id="edge14" class="edge">
<title>(2, &#39;B&#39;)&#45;&gt;(&#45;1, &#39;SINK&#39;)</title>
<path fill="none" stroke="#000000" d="M1748.8181,-75.6864C1835.5563,-71.4423 1954.5453,-69.2708 2058.653,-80.2205 2095.8151,-84.129 2136.3527,-92.1653 2170.6215,-100.0957"/>
<polygon fill="#000000" stroke="#000000" points="2170.0415,-103.5548 2180.5772,-102.4371 2171.6441,-96.7407 2170.0415,-103.5548"/>
<text text-anchor="middle" x="1938.9222" y="-83.2205" font-family="Courier,monospace" font-weight="bold" font-size="10.00" fill="#000000">None</text>
</g>
<!-- (2, &#39;C&#39;) -->
<g id="node11" class="node">
<title>(2, &#39;C&#39;)</title>
<polygon fill="none" stroke="#000000" points="1950.023,-99.836 1957.3727,-99.9534 1964.6464,-100.1291 1971.8144,-100.3625 1978.8477,-100.6532 1985.718,-101.0002 1992.3982,-101.4027 1998.8624,-101.8595 2005.086,-102.3693 2011.0458,-102.9308 2016.7205,-103.5425 2022.0902,-104.2026 2027.1371,-104.9093 2031.8451,-105.6607 2036.2004,-106.4548 2040.191,-107.2894 2043.8069,-108.1622 2047.0406,-109.0707 2049.8861,-110.0126 2052.34,-110.9851 2054.4007,-111.9857 2056.0685,-113.0117 2057.3458,-114.0601 2058.2366,-115.1282 2058.747,-116.2129 2058.8843,-117.3114 2058.6576,-118.4206 2058.0773,-119.5375 2057.155,-120.659 2055.9035,-121.782 2054.3365,-122.9035 2052.4686,-124.0203 2050.3148,-125.1295 2047.8909,-126.228 2045.213,-127.3128 2042.2972,-128.3808 2039.1599,-129.4293 2035.8172,-130.4552 2032.2854,-131.4558 2028.58,-132.4284 2024.7164,-133.3702 2020.7093,-134.2788 2016.5729,-135.1515 2012.3207,-135.9861 2007.9654,-136.7802 2003.519,-137.5317 1998.9925,-138.2384 1994.3963,-138.8985 1989.7397,-139.5101 1985.0313,-140.0716 1980.2789,-140.5815 1975.4895,-141.0383 1970.6694,-141.4407 1965.824,-141.7877 1960.9584,-142.0784 1956.077,-142.3119 1951.1837,-142.4876 1946.2823,-142.605 1941.3761,-142.6637 1936.4683,-142.6637 1931.562,-142.605 1926.6606,-142.4876 1921.7674,-142.3119 1916.8859,-142.0784 1912.0203,-141.7877 1907.175,-141.4407 1902.3548,-141.0383 1897.5654,-140.5815 1892.813,-140.0716 1888.1046,-139.5101 1883.448,-138.8985 1878.8518,-138.2384 1874.3253,-137.5317 1869.8789,-136.7802 1865.5236,-135.9861 1861.2714,-135.1515 1857.135,-134.2788 1853.128,-133.3702 1849.2643,-132.4284 1845.559,-131.4558 1842.0271,-130.4552 1838.6845,-129.4293 1835.5471,-128.3808 1832.6314,-127.3128 1829.9534,-126.228 1827.5295,-125.1295 1825.3758,-124.0203 1823.5078,-122.9035 1821.9408,-121.782 1820.6893,-120.659 1819.7671,-119.5375 1819.1868,-118.4206 1818.9601,-117.3114 1819.0974,-116.2129 1819.6077,-115.1282 1820.4986,-114.0601 1821.7758,-113.0117 1823.4436,-111.9857 1825.5043,-110.9851 1827.9582,-110.0126 1830.8038,-109.0707 1834.0374,-108.1622 1837.6534,-107.2894 1841.6439,-106.4548 1845.9992,-105.6607 1850.7073,-104.9093 1855.7541,-104.2026 1861.1238,-103.5425 1866.7985,-102.9308 1872.7583,-102.3693 1878.9819,-101.8595 1885.4461,-101.4027 1892.1264,-101.0002 1898.9967,-100.6532 1906.0299,-100.3625 1913.1979,-100.1291 1920.4716,-99.9534 1927.8213,-99.836 1935.2168,-99.7772 1942.6276,-99.7772 1950.023,-99.836"/>
<text text-anchor="middle" x="1938.9222" y="-124.2205" font-family="Courier,monospace" font-weight="bold" font-size="10.00" fill="#000000">(2, &#39;C&#39;)</text>
<text text-anchor="middle" x="1938.9222" y="-113.2205" font-family="Courier,monospace" font-weight="bold" font-size="10.00" fill="#000000">0.01223186854982436</text>
</g>
<!-- (2, &#39;B&#39;)&#45;&gt;(2, &#39;C&#39;) -->
<g id="edge15" class="edge">
<title>(2, &#39;B&#39;)&#45;&gt;(2, &#39;C&#39;)</title>
<path fill="none" stroke="#000000" d="M1720.6161,-95.3719C1752.5363,-99.1514 1788.5832,-103.4195 1822.0518,-107.3824"/>
<polygon fill="#000000" stroke="#000000" points="1822.0061,-110.9014 1832.3483,-108.6016 1822.8293,-103.9499 1822.0061,-110.9014"/>
<text text-anchor="middle" x="1785.6913" y="-106.2205" font-family="Courier,monospace" font-weight="bold" font-size="10.00" fill="#000000">None</text>
</g>
<!-- (2, &#39;C&#39;)&#45;&gt;(&#45;1, &#39;SINK&#39;) -->
<g id="edge16" class="edge">
<title>(2, &#39;C&#39;)&#45;&gt;(&#45;1, &#39;SINK&#39;)</title>
<path fill="none" stroke="#000000" d="M2056.6144,-121.2205C2076.7604,-121.2205 2097.8185,-121.2205 2118.3317,-121.2205"/>
<polygon fill="#000000" stroke="#000000" points="2118.3517,-124.7206 2128.3517,-121.2205 2118.3517,-117.7206 2118.3517,-124.7206"/>
<text text-anchor="middle" x="2092.153" y="-124.2205" font-family="Courier,monospace" font-weight="bold" font-size="10.00" fill="#000000">None</text>
</g>
</g>
</svg>
