<svg class="bob" font-family="arial" font-size="14" height="64" width="512" xmlns="http://www.w3.org/2000/svg">
<defs>
<marker id="triangle" markerHeight="8" markerWidth="8" orient="auto" refX="4" refY="2" viewBox="0 0 8 4">
<polygon class="fg_fill" points="0,0 0,4 8,2 0,0"/>
</marker>
<marker id="clear_triangle" markerHeight="10" markerWidth="10" orient="auto" refX="1" refY="7" viewBox="0 0 20 14">
<polygon class="bg_fill" points="2,2 2,12 18,7 2,2"/>
</marker>
<marker id="circle" markerHeight="5" markerWidth="5" orient="auto" refX="10" refY="10" viewBox="0 0 20 20">
<circle class="fg_fill" cx="10" cy="10" r="8"/>
</marker>
<marker id="square" markerHeight="5" markerWidth="5" orient="auto" refX="10" refY="10" viewBox="0 0 20 20">
<rect class="fg_fill" height="20" width="20" x="0" y="0"/>
</marker>
<marker id="open_circle" markerHeight="10" markerWidth="10" orient="auto" refX="10" refY="10" viewBox="0 0 20 20">
<circle class="bg_fill" cx="10" cy="10" r="4"/>
</marker>
<marker id="big_open_circle" markerHeight="20" markerWidth="20" orient="auto" refX="20" refY="20" viewBox="0 0 40 40">
<circle class="bg_fill" cx="20" cy="20" r="6"/>
</marker>
</defs>
<style type="text/css">

rect.backdrop {
    fill: white;
}
text{
    fill: black;
}

circle {
    fill: none;
    stroke: black;
    stroke-width: 2;
}

line {
    stroke: black;
    stroke-width: 2;
    stroke-opacity: 1;
    fill-opacity: 1;
    stroke-linecap: round;
    stroke-linejoin: miter;
}

path {
    fill: none;
    stroke: black;
    stroke-width: 2;
    stroke-opacity: 1;
    fill-opacity: 1;
    stroke-linecap: round;
    stroke-linejoin: miter;
}

line.dashed {
    stroke-dasharray: 5;
}

.fg_fill {
    fill: black;
}


.bg_fill {
    fill: white;
    stroke: black;
    stroke-width: 2;
}

tspan.head{
    fill: none;
    stroke: none;
}
    
</style>
<rect class="backdrop" height="64" width="512" x="0" y="0"/>
<g>
<line marker-end="url(#triangle)" x1="128" x2="140" y1="24" y2="24"/>
</g>
<g>
<line marker-end="url(#triangle)" x1="128" x2="140" y1="40" y2="40"/>
</g>
<g>
<line marker-end="url(#triangle)" x1="184" x2="196" y1="24" y2="24"/>
</g>
<g>
<line marker-end="url(#triangle)" x1="184" x2="196" y1="40" y2="40"/>
</g>
<g>
<line marker-end="url(#triangle)" x1="232" x2="244" y1="24" y2="24"/>
</g>
<g>
<line marker-end="url(#triangle)" x1="232" x2="244" y1="40" y2="40"/>
</g>
<g>
<line x1="256" x2="368" y1="8" y2="8"/>
<path d="M 256 8 A 4 4 0 0 0 252 12"/>
<path d="M 372 12 A 4 4 0 0 0 368 8"/>
</g>
<g>
<line x1="256" x2="368" y1="56" y2="56"/>
<path d="M 252 52 A 4 4 0 0 0 256 56"/>
<path d="M 368 56 A 4 4 0 0 0 372 52"/>
</g>
<g>
<line marker-end="url(#triangle)" x1="280" x2="292" y1="24" y2="24"/>
</g>
<g>
<line marker-end="url(#triangle)" x1="288" x2="284" y1="40" y2="40"/>
<line x1="288" x2="296" y1="40" y2="40"/>
</g>
<g>
<line marker-end="url(#triangle)" x1="328" x2="340" y1="24" y2="24"/>
</g>
<g>
<line marker-end="url(#triangle)" x1="336" x2="332" y1="40" y2="40"/>
<line x1="336" x2="344" y1="40" y2="40"/>
</g>
<g>
<line marker-end="url(#triangle)" x1="376" x2="388" y1="24" y2="24"/>
</g>
<g>
<line marker-end="url(#triangle)" x1="376" x2="388" y1="40" y2="40"/>
</g>
<g>
<line marker-end="url(#triangle)" x1="424" x2="436" y1="24" y2="24"/>
</g>
<g>
<line marker-end="url(#triangle)" x1="424" x2="436" y1="40" y2="40"/>
</g>
<g>
<line marker-end="url(#triangle)" x1="472" x2="484" y1="24" y2="24"/>
</g>
<g>
<line marker-end="url(#triangle)" x1="472" x2="484" y1="40" y2="40"/>
</g>
<g>
<text x="1" y="28">
BEFORE:
</text>
</g>
<g>
<text x="1" y="44">
AFTER:
</text>
</g>
<g>
<text x="105" y="28">
A1
</text>
</g>
<g>
<text x="105" y="44">
A1
</text>
</g>
<g>
<text x="161" y="28">
A2
</text>
</g>
<g>
<text x="161" y="44">
A2
</text>
</g>
<g>
<text x="209" y="28">
A3
</text>
</g>
<g>
<text x="209" y="44">
A3
</text>
</g>
<g>
<text x="257" y="28">
A4
</text>
</g>
<g>
<text x="257" y="44">
A7
</text>
</g>
<g>
<text x="305" y="28">
A5
</text>
</g>
<g>
<text x="305" y="44">
A6
</text>
</g>
<g>
<text x="353" y="28">
A6
</text>
</g>
<g>
<text x="353" y="44">
A5
</text>
</g>
<g>
<text x="401" y="28">
A7
</text>
</g>
<g>
<text x="401" y="44">
A7
</text>
</g>
<g>
<text x="449" y="28">
A8
</text>
</g>
<g>
<text x="449" y="44">
A8
</text>
</g>
<g>
<text x="497" y="28">
A9
</text>
</g>
<g>
<text x="497" y="44">
A9
</text>
</g>
</svg>
