<svg class="bob" font-family="arial" font-size="14" height="208" width="376" xmlns="http://www.w3.org/2000/svg">
<defs>
<marker id="triangle" markerHeight="8" markerWidth="8" orient="auto" refX="4" refY="2" viewBox="0 0 8 4">
<polygon class="fg_fill" points="0,0 0,4 8,2 0,0"/>
</marker>
<marker id="clear_triangle" markerHeight="10" markerWidth="10" orient="auto" refX="1" refY="7" viewBox="0 0 20 14">
<polygon class="bg_fill" points="2,2 2,12 18,7 2,2"/>
</marker>
<marker id="circle" markerHeight="5" markerWidth="5" orient="auto" refX="10" refY="10" viewBox="0 0 20 20">
<circle class="fg_fill" cx="10" cy="10" r="8"/>
</marker>
<marker id="square" markerHeight="5" markerWidth="5" orient="auto" refX="10" refY="10" viewBox="0 0 20 20">
<rect class="fg_fill" height="20" width="20" x="0" y="0"/>
</marker>
<marker id="open_circle" markerHeight="10" markerWidth="10" orient="auto" refX="10" refY="10" viewBox="0 0 20 20">
<circle class="bg_fill" cx="10" cy="10" r="4"/>
</marker>
<marker id="big_open_circle" markerHeight="20" markerWidth="20" orient="auto" refX="20" refY="20" viewBox="0 0 40 40">
<circle class="bg_fill" cx="20" cy="20" r="6"/>
</marker>
</defs>
<style type="text/css">

rect.backdrop {
    fill: white;
}
text{
    fill: black;
}

circle {
    fill: none;
    stroke: black;
    stroke-width: 2;
}

line {
    stroke: black;
    stroke-width: 2;
    stroke-opacity: 1;
    fill-opacity: 1;
    stroke-linecap: round;
    stroke-linejoin: miter;
}

path {
    fill: none;
    stroke: black;
    stroke-width: 2;
    stroke-opacity: 1;
    fill-opacity: 1;
    stroke-linecap: round;
    stroke-linejoin: miter;
}

line.dashed {
    stroke-dasharray: 5;
}

.fg_fill {
    fill: black;
}


.bg_fill {
    fill: white;
    stroke: black;
    stroke-width: 2;
}

tspan.head{
    fill: none;
    stroke: none;
}
    
</style>
<rect class="backdrop" height="208" width="376" x="0" y="0"/>
<g>
<line x1="4" x2="4" y1="60" y2="88"/>
<line x1="4" x2="4" y1="88" y2="100"/>
<line x1="4" x2="16" y1="88" y2="88"/>
<path d="M 4 100 A 4 4 0 0 0 8 104"/>
<path d="M 8 56 A 4 4 0 0 0 4 60"/>
</g>
<g>
<line x1="8" x2="200" y1="56" y2="56"/>
<path d="M 204 60 A 4 4 0 0 0 200 56"/>
</g>
<g>
<line x1="8" x2="16" y1="104" y2="104"/>
</g>
<g>
<line x1="116" x2="116" y1="156" y2="180"/>
<path d="M 116 180 A 4 4 0 0 0 120 184"/>
<path d="M 120 152 A 4 4 0 0 0 116 156"/>
</g>
<g>
<line x1="120" x2="128" y1="152" y2="152"/>
</g>
<g>
<line x1="120" x2="312" y1="184" y2="184"/>
<path d="M 312 184 A 4 4 0 0 0 316 180"/>
</g>
<g>
<line marker-end="url(#triangle)" x1="192" x2="188" y1="72" y2="72"/>
<line x1="192" x2="204" y1="72" y2="72"/>
<line x1="204" x2="204" y1="60" y2="72"/>
<line x1="204" x2="204" y1="72" y2="148"/>
<path d="M 200 152 A 4 4 0 0 0 204 148"/>
</g>
<g>
<line marker-end="url(#triangle)" x1="192" x2="188" y1="152" y2="152"/>
<line x1="192" x2="200" y1="152" y2="152"/>
</g>
<g>
<line x1="228" x2="228" y1="60" y2="84"/>
<path d="M 228 84 A 4 4 0 0 0 232 88"/>
<path d="M 232 56 A 4 4 0 0 0 228 60"/>
</g>
<g>
<line marker-end="url(#triangle)" x1="232" x2="364" y1="56" y2="56"/>
</g>
<g>
<line x1="232" x2="240" y1="88" y2="88"/>
</g>
<g>
<line marker-end="url(#triangle)" x1="304" x2="300" y1="88" y2="88"/>
<line x1="304" x2="312" y1="88" y2="88"/>
<path d="M 316 92 A 4 4 0 0 0 312 88"/>
</g>
<g>
<line x1="316" x2="316" y1="92" y2="180"/>
</g>
<g>
<line marker-start="url(#circle)" x1="372" x2="368" y1="56" y2="56"/>
</g>
<g>
<text x="1" y="12">
* search for substring nana
</text>
</g>
<g>
<text x="25" y="76">
¶1,a3
</text>
</g>
<g>
<text x="25" y="92">
a3,n2
</text>
</g>
<g>
<text x="25" y="108">
a2,n1
</text>
</g>
<g>
<text x="25" y="124">
a1,b1
</text>
</g>
<g>
<text x="25" y="140">
b1,¶1
</text>
</g>
<g>
<text x="25" y="156">
n2,a2
</text>
</g>
<g>
<text x="25" y="172">
n1,a1
</text>
</g>
<g>
<text x="73" y="44">
2 x na
</text>
</g>
<g>
<text x="137" y="76">
¶1,a3
</text>
</g>
<g>
<text x="137" y="92">
a3,n2
</text>
</g>
<g>
<text x="137" y="108">
a2,n1
</text>
</g>
<g>
<text x="137" y="124">
a1,b1
</text>
</g>
<g>
<text x="137" y="140">
b1,¶1
</text>
</g>
<g>
<text x="137" y="156">
n2,a2
</text>
</g>
<g>
<text x="137" y="172">
n1,a1
</text>
</g>
<g>
<text x="177" y="204">
1 x nan
</text>
</g>
<g>
<text x="249" y="76">
¶1,a3
</text>
</g>
<g>
<text x="249" y="92">
a3,n2
</text>
</g>
<g>
<text x="249" y="108">
a2,n1
</text>
</g>
<g>
<text x="249" y="124">
a1,b1
</text>
</g>
<g>
<text x="249" y="140">
b1,¶1
</text>
</g>
<g>
<text x="249" y="156">
n2,a2
</text>
</g>
<g>
<text x="249" y="172">
n1,a1
</text>
</g>
<g>
<text x="273" y="44">
1 x nana
</text>
</g>
</svg>
