<svg class="bob" font-family="arial" font-size="14" height="240" width="592" xmlns="http://www.w3.org/2000/svg">
<defs>
<marker id="triangle" markerHeight="8" markerWidth="8" orient="auto" refX="4" refY="2" viewBox="0 0 8 4">
<polygon class="fg_fill" points="0,0 0,4 8,2 0,0"/>
</marker>
<marker id="clear_triangle" markerHeight="10" markerWidth="10" orient="auto" refX="1" refY="7" viewBox="0 0 20 14">
<polygon class="bg_fill" points="2,2 2,12 18,7 2,2"/>
</marker>
<marker id="circle" markerHeight="5" markerWidth="5" orient="auto" refX="10" refY="10" viewBox="0 0 20 20">
<circle class="fg_fill" cx="10" cy="10" r="8"/>
</marker>
<marker id="square" markerHeight="5" markerWidth="5" orient="auto" refX="10" refY="10" viewBox="0 0 20 20">
<rect class="fg_fill" height="20" width="20" x="0" y="0"/>
</marker>
<marker id="open_circle" markerHeight="10" markerWidth="10" orient="auto" refX="10" refY="10" viewBox="0 0 20 20">
<circle class="bg_fill" cx="10" cy="10" r="4"/>
</marker>
<marker id="big_open_circle" markerHeight="20" markerWidth="20" orient="auto" refX="20" refY="20" viewBox="0 0 40 40">
<circle class="bg_fill" cx="20" cy="20" r="6"/>
</marker>
</defs>
<style type="text/css">

rect.backdrop {
    fill: white;
}
text{
    fill: black;
}

circle {
    fill: none;
    stroke: black;
    stroke-width: 2;
}

line {
    stroke: black;
    stroke-width: 2;
    stroke-opacity: 1;
    fill-opacity: 1;
    stroke-linecap: round;
    stroke-linejoin: miter;
}

path {
    fill: none;
    stroke: black;
    stroke-width: 2;
    stroke-opacity: 1;
    fill-opacity: 1;
    stroke-linecap: round;
    stroke-linejoin: miter;
}

line.dashed {
    stroke-dasharray: 5;
}

.fg_fill {
    fill: black;
}


.bg_fill {
    fill: white;
    stroke: black;
    stroke-width: 2;
}

tspan.head{
    fill: none;
    stroke: none;
}
    
</style>
<rect class="backdrop" height="240" width="592" x="0" y="0"/>
<g>
<line x1="4" x2="4" y1="204" y2="228"/>
<path d="M 4 228 A 4 4 0 0 0 8 232"/>
<path d="M 8 200 A 4 4 0 0 0 4 204"/>
</g>
<g>
<line x1="8" x2="60" y1="200" y2="200"/>
<line x1="60" x2="72" y1="200" y2="200"/>
<line x1="92" x2="60" y1="136" y2="200"/>
<line x1="92" x2="124" y1="136" y2="200"/>
<line x1="92" x2="136" y1="136" y2="136"/>
<line x1="96" x2="124" y1="200" y2="200"/>
<line x1="124" x2="160" y1="200" y2="200"/>
<path d="M 76 204 A 4 4 0 0 0 72 200"/>
<path d="M 96 200 A 4 4 0 0 0 92 204"/>
<path d="M 136 136 A 4 4 0 0 0 140 132"/>
<path d="M 164 204 A 4 4 0 0 0 160 200"/>
</g>
<g>
<line x1="8" x2="72" y1="232" y2="232"/>
<path d="M 72 232 A 4 4 0 0 0 76 228"/>
</g>
<g>
<line x1="44" x2="44" y1="108" y2="132"/>
<path d="M 44 132 A 4 4 0 0 0 48 136"/>
<path d="M 48 104 A 4 4 0 0 0 44 108"/>
</g>
<g>
<line x1="48" x2="92" y1="104" y2="104"/>
<line x1="92" x2="136" y1="104" y2="104"/>
<line x1="124" x2="92" y1="40" y2="104"/>
<line x1="124" x2="168" y1="40" y2="40"/>
<line x1="124" x2="204" y1="40" y2="200"/>
<line x1="184" x2="204" y1="200" y2="200"/>
<line x1="204" x2="248" y1="200" y2="200"/>
<path d="M 140 108 A 4 4 0 0 0 136 104"/>
<path d="M 168 40 A 4 4 0 0 0 172 36"/>
<path d="M 184 200 A 4 4 0 0 0 180 204"/>
<path d="M 252 204 A 4 4 0 0 0 248 200"/>
</g>
<g>
<line x1="48" x2="92" y1="136" y2="136"/>
</g>
<g>
<line x1="76" x2="76" y1="12" y2="36"/>
<path d="M 76 36 A 4 4 0 0 0 80 40"/>
<path d="M 80 8 A 4 4 0 0 0 76 12"/>
</g>
<g>
<line x1="76" x2="76" y1="204" y2="228"/>
</g>
<g>
<line x1="80" x2="168" y1="8" y2="8"/>
<path d="M 172 12 A 4 4 0 0 0 168 8"/>
</g>
<g>
<line x1="80" x2="124" y1="40" y2="40"/>
</g>
<g>
<line x1="92" x2="92" y1="204" y2="228"/>
<path d="M 92 228 A 4 4 0 0 0 96 232"/>
</g>
<g>
<line x1="96" x2="160" y1="232" y2="232"/>
<path d="M 160 232 A 4 4 0 0 0 164 228"/>
</g>
<g>
<line x1="140" x2="140" y1="108" y2="132"/>
</g>
<g>
<line x1="164" x2="164" y1="204" y2="228"/>
</g>
<g>
<line x1="172" x2="172" y1="12" y2="36"/>
</g>
<g>
<line x1="180" x2="180" y1="204" y2="228"/>
<path d="M 180 228 A 4 4 0 0 0 184 232"/>
</g>
<g>
<line x1="184" x2="248" y1="232" y2="232"/>
<path d="M 248 232 A 4 4 0 0 0 252 228"/>
</g>
<g>
<line x1="252" x2="252" y1="204" y2="228"/>
</g>
<g>
<line x1="332" x2="332" y1="204" y2="228"/>
<path d="M 332 228 A 4 4 0 0 0 336 232"/>
<path d="M 336 200 A 4 4 0 0 0 332 204"/>
</g>
<g>
<line x1="336" x2="372" y1="200" y2="200"/>
<line x1="372" x2="400" y1="200" y2="200"/>
<line x1="452" x2="372" y1="40" y2="200"/>
<line x1="452" x2="452" y1="40" y2="200"/>
<line x1="452" x2="492" y1="40" y2="120"/>
<line x1="452" x2="496" y1="40" y2="40"/>
<line x1="452" x2="488" y1="200" y2="200"/>
<line x1="472" x2="492" y1="120" y2="120"/>
<line x1="492" x2="560" y1="120" y2="120"/>
<path d="M 404 204 A 4 4 0 0 0 400 200"/>
<path d="M 472 120 A 4 4 0 0 0 468 124"/>
<path d="M 492 204 A 4 4 0 0 0 488 200"/>
<path d="M 496 40 A 4 4 0 0 0 500 36"/>
<path d="M 564 124 A 4 4 0 0 0 560 120"/>
</g>
<g>
<line x1="336" x2="400" y1="232" y2="232"/>
<path d="M 400 232 A 4 4 0 0 0 404 228"/>
</g>
<g>
<line x1="404" x2="404" y1="12" y2="36"/>
<path d="M 404 36 A 4 4 0 0 0 408 40"/>
<path d="M 408 8 A 4 4 0 0 0 404 12"/>
</g>
<g>
<line x1="404" x2="404" y1="204" y2="228"/>
</g>
<g>
<line x1="408" x2="496" y1="8" y2="8"/>
<path d="M 500 12 A 4 4 0 0 0 496 8"/>
</g>
<g>
<line x1="408" x2="452" y1="40" y2="40"/>
</g>
<g>
<line x1="420" x2="420" y1="204" y2="228"/>
<path d="M 420 228 A 4 4 0 0 0 424 232"/>
<path d="M 424 200 A 4 4 0 0 0 420 204"/>
</g>
<g>
<line x1="424" x2="452" y1="200" y2="200"/>
</g>
<g>
<line x1="424" x2="488" y1="232" y2="232"/>
<path d="M 488 232 A 4 4 0 0 0 492 228"/>
</g>
<g>
<line x1="468" x2="468" y1="124" y2="148"/>
<path d="M 468 148 A 4 4 0 0 0 472 152"/>
</g>
<g>
<line x1="472" x2="516" y1="152" y2="152"/>
<line x1="516" x2="540" y1="152" y2="200"/>
<line x1="516" x2="560" y1="152" y2="152"/>
<line x1="540" x2="576" y1="200" y2="200"/>
<path d="M 560 152 A 4 4 0 0 0 564 148"/>
<path d="M 580 204 A 4 4 0 0 0 576 200"/>
</g>
<g>
<line x1="492" x2="492" y1="204" y2="228"/>
</g>
<g>
<line x1="500" x2="500" y1="12" y2="36"/>
</g>
<g>
<line x1="508" x2="508" y1="204" y2="228"/>
<path d="M 508 228 A 4 4 0 0 0 512 232"/>
<path d="M 512 200 A 4 4 0 0 0 508 204"/>
</g>
<g>
<line x1="512" x2="540" y1="200" y2="200"/>
</g>
<g>
<line x1="512" x2="576" y1="232" y2="232"/>
<path d="M 576 232 A 4 4 0 0 0 580 228"/>
</g>
<g>
<line x1="564" x2="564" y1="124" y2="148"/>
</g>
<g>
<line x1="580" x2="580" y1="204" y2="228"/>
</g>
<g>
<text x="33" y="220">
Cat
</text>
</g>
<g>
<text x="57" y="124">
AncestorB
</text>
</g>
<g>
<text x="89" y="28">
AncestorA
</text>
</g>
<g>
<text x="113" y="220">
Lion
</text>
</g>
<g>
<text x="201" y="220">
Bear
</text>
</g>
<g>
<text x="361" y="220">
Cat
</text>
</g>
<g>
<text x="417" y="28">
AncestorB
</text>
</g>
<g>
<text x="441" y="220">
Lion
</text>
</g>
<g>
<text x="481" y="140">
AncestorA
</text>
</g>
<g>
<text x="529" y="220">
Bear
</text>
</g>
</svg>
