<?xml version="1.0" encoding="UTF-8" standalone="no"?>
<!DOCTYPE svg PUBLIC "-//W3C//DTD SVG 1.1//EN"
 "http://www.w3.org/Graphics/SVG/1.1/DTD/svg11.dtd">
<!-- Generated by graphviz version 2.40.1 (0)
 -->
<!-- Title: G Pages: 1 -->
<svg width="826pt" height="492pt"
 viewBox="0.00 0.00 825.71 492.00" xmlns="http://www.w3.org/2000/svg" xmlns:xlink="http://www.w3.org/1999/xlink">
<g id="graph0" class="graph" transform="scale(1 1) rotate(0) translate(4 488)">
<title>G</title>
<polygon fill="#ffffff" stroke="transparent" points="-4,4 -4,-488 821.7109,-488 821.7109,4 -4,4"/>
<!-- STATE_D,0,1 -->
<g id="node1" class="node">
<title>STATE_D,0,1</title>
<polygon fill="none" stroke="#000000" points="163.6749,-114.0493 165.7399,-114.1479 167.7835,-114.2953 169.7974,-114.4913 171.7735,-114.7353 173.7038,-115.0266 175.5807,-115.3645 177.3969,-115.7479 179.1454,-116.1759 180.8199,-116.6472 182.4143,-117.1606 183.9229,-117.7147 185.3409,-118.308 186.6637,-118.9388 187.8874,-119.6054 189.0086,-120.3059 190.0245,-121.0385 190.933,-121.8012 191.7325,-122.5918 192.422,-123.4082 193.0009,-124.2481 193.4695,-125.1093 193.8284,-125.9894 194.0787,-126.886 194.2221,-127.7965 194.2606,-128.7186 194.1969,-129.6497 194.0339,-130.5873 193.7748,-131.5287 193.4232,-132.4713 192.9829,-133.4127 192.4581,-134.3503 191.853,-135.2814 191.1719,-136.2035 190.4195,-137.114 189.6003,-138.0106 188.7189,-138.8907 187.7797,-139.7519 186.7874,-140.5918 185.7463,-141.4082 184.6608,-142.1988 183.535,-142.9615 182.3728,-143.6941 181.1781,-144.3946 179.9545,-145.0612 178.7052,-145.692 177.4334,-146.2853 176.142,-146.8394 174.8337,-147.3528 173.5109,-147.8241 172.1756,-148.2521 170.83,-148.6355 169.4757,-148.9734 168.1144,-149.2647 166.7473,-149.5087 165.3758,-149.7047 164.001,-149.8521 162.6239,-149.9507 161.2455,-150 159.8665,-150 158.4881,-149.9507 157.111,-149.8521 155.7362,-149.7047 154.3647,-149.5087 152.9976,-149.2647 151.6363,-148.9734 150.282,-148.6355 148.9364,-148.2521 147.6011,-147.8241 146.2783,-147.3528 144.9699,-146.8394 143.6786,-146.2853 142.4068,-145.692 141.1575,-145.0612 139.9339,-144.3946 138.7392,-143.6941 137.577,-142.9615 136.4512,-142.1988 135.3657,-141.4082 134.3246,-140.5918 133.3323,-139.7519 132.3931,-138.8907 131.5117,-138.0106 130.6925,-137.114 129.9401,-136.2035 129.259,-135.2814 128.6539,-134.3503 128.1291,-133.4127 127.6888,-132.4713 127.3372,-131.5287 127.0781,-130.5873 126.915,-129.6497 126.8514,-128.7186 126.8899,-127.7965 127.0333,-126.886 127.2836,-125.9894 127.6425,-125.1093 128.1111,-124.2481 128.69,-123.4082 129.3795,-122.5918 130.179,-121.8012 131.0875,-121.0385 132.1034,-120.3059 133.2246,-119.6054 134.4483,-118.9388 135.7711,-118.308 137.189,-117.7147 138.6977,-117.1606 140.2921,-116.6472 141.9666,-116.1759 143.7151,-115.7479 145.5313,-115.3645 147.4082,-115.0266 149.3385,-114.7353 151.3146,-114.4913 153.3285,-114.2953 155.3721,-114.1479 157.4371,-114.0493 159.5149,-114 161.5971,-114 163.6749,-114.0493"/>
<text text-anchor="middle" x="160.556" y="-129.5" font-family="Courier,monospace" font-weight="bold" font-size="10.00" fill="#000000">D,0,1</text>
</g>
<!-- STATE_I,1,1 -->
<g id="node6" class="node">
<title>STATE_I,1,1</title>
<polygon fill="none" stroke="#000000" points="290.3789,-114.0493 292.4439,-114.1479 294.4875,-114.2953 296.5014,-114.4913 298.4775,-114.7353 300.4078,-115.0266 302.2847,-115.3645 304.1009,-115.7479 305.8494,-116.1759 307.5239,-116.6472 309.1183,-117.1606 310.6269,-117.7147 312.0449,-118.308 313.3677,-118.9388 314.5914,-119.6054 315.7126,-120.3059 316.7285,-121.0385 317.637,-121.8012 318.4365,-122.5918 319.126,-123.4082 319.7049,-124.2481 320.1735,-125.1093 320.5324,-125.9894 320.7827,-126.886 320.9261,-127.7965 320.9646,-128.7186 320.9009,-129.6497 320.7379,-130.5873 320.4788,-131.5287 320.1272,-132.4713 319.6869,-133.4127 319.1621,-134.3503 318.557,-135.2814 317.8759,-136.2035 317.1235,-137.114 316.3043,-138.0106 315.4229,-138.8907 314.4837,-139.7519 313.4914,-140.5918 312.4503,-141.4082 311.3648,-142.1988 310.239,-142.9615 309.0768,-143.6941 307.8821,-144.3946 306.6584,-145.0612 305.4092,-145.692 304.1374,-146.2853 302.846,-146.8394 301.5377,-147.3528 300.2149,-147.8241 298.8796,-148.2521 297.534,-148.6355 296.1797,-148.9734 294.8184,-149.2647 293.4513,-149.5087 292.0798,-149.7047 290.705,-149.8521 289.3279,-149.9507 287.9494,-150 286.5705,-150 285.1921,-149.9507 283.815,-149.8521 282.4402,-149.7047 281.0687,-149.5087 279.7016,-149.2647 278.3403,-148.9734 276.986,-148.6355 275.6404,-148.2521 274.3051,-147.8241 272.9823,-147.3528 271.6739,-146.8394 270.3826,-146.2853 269.1108,-145.692 267.8615,-145.0612 266.6379,-144.3946 265.4432,-143.6941 264.281,-142.9615 263.1552,-142.1988 262.0697,-141.4082 261.0286,-140.5918 260.0363,-139.7519 259.0971,-138.8907 258.2157,-138.0106 257.3965,-137.114 256.644,-136.2035 255.963,-135.2814 255.3579,-134.3503 254.8331,-133.4127 254.3928,-132.4713 254.0412,-131.5287 253.7821,-130.5873 253.619,-129.6497 253.5554,-128.7186 253.5939,-127.7965 253.7373,-126.886 253.9876,-125.9894 254.3465,-125.1093 254.8151,-124.2481 255.394,-123.4082 256.0835,-122.5918 256.883,-121.8012 257.7915,-121.0385 258.8074,-120.3059 259.9286,-119.6054 261.1523,-118.9388 262.4751,-118.308 263.893,-117.7147 265.4017,-117.1606 266.9961,-116.6472 268.6706,-116.1759 270.4191,-115.7479 272.2353,-115.3645 274.1122,-115.0266 276.0425,-114.7353 278.0186,-114.4913 280.0325,-114.2953 282.0761,-114.1479 284.1411,-114.0493 286.2189,-114 288.3011,-114 290.3789,-114.0493"/>
<text text-anchor="middle" x="287.26" y="-129.5" font-family="Courier,monospace" font-weight="bold" font-size="10.00" fill="#000000">I,1,1</text>
</g>
<!-- STATE_D,0,1&#45;&gt;STATE_I,1,1 -->
<g id="edge1" class="edge">
<title>STATE_D,0,1&#45;&gt;STATE_I,1,1</title>
<path fill="none" stroke="#000000" d="M193.846,-132C209.123,-132 227.4363,-132 243.7846,-132"/>
<polygon fill="#000000" stroke="#000000" points="244.1924,-135.5001 254.1923,-132 244.1923,-128.5001 244.1924,-135.5001"/>
<text text-anchor="middle" x="223.908" y="-135" font-family="Courier,monospace" font-weight="bold" font-size="10.00" fill="#000000">nan</text>
</g>
<!-- STATE_D,1,1 -->
<g id="node2" class="node">
<title>STATE_D,1,1</title>
<polygon fill="none" stroke="#000000" points="290.3789,-218.0493 292.4439,-218.1479 294.4875,-218.2953 296.5014,-218.4913 298.4775,-218.7353 300.4078,-219.0266 302.2847,-219.3645 304.1009,-219.7479 305.8494,-220.1759 307.5239,-220.6472 309.1183,-221.1606 310.6269,-221.7147 312.0449,-222.308 313.3677,-222.9388 314.5914,-223.6054 315.7126,-224.3059 316.7285,-225.0385 317.637,-225.8012 318.4365,-226.5918 319.126,-227.4082 319.7049,-228.2481 320.1735,-229.1093 320.5324,-229.9894 320.7827,-230.886 320.9261,-231.7965 320.9646,-232.7186 320.9009,-233.6497 320.7379,-234.5873 320.4788,-235.5287 320.1272,-236.4713 319.6869,-237.4127 319.1621,-238.3503 318.557,-239.2814 317.8759,-240.2035 317.1235,-241.114 316.3043,-242.0106 315.4229,-242.8907 314.4837,-243.7519 313.4914,-244.5918 312.4503,-245.4082 311.3648,-246.1988 310.239,-246.9615 309.0768,-247.6941 307.8821,-248.3946 306.6584,-249.0612 305.4092,-249.692 304.1374,-250.2853 302.846,-250.8394 301.5377,-251.3528 300.2149,-251.8241 298.8796,-252.2521 297.534,-252.6355 296.1797,-252.9734 294.8184,-253.2647 293.4513,-253.5087 292.0798,-253.7047 290.705,-253.8521 289.3279,-253.9507 287.9494,-254 286.5705,-254 285.1921,-253.9507 283.815,-253.8521 282.4402,-253.7047 281.0687,-253.5087 279.7016,-253.2647 278.3403,-252.9734 276.986,-252.6355 275.6404,-252.2521 274.3051,-251.8241 272.9823,-251.3528 271.6739,-250.8394 270.3826,-250.2853 269.1108,-249.692 267.8615,-249.0612 266.6379,-248.3946 265.4432,-247.6941 264.281,-246.9615 263.1552,-246.1988 262.0697,-245.4082 261.0286,-244.5918 260.0363,-243.7519 259.0971,-242.8907 258.2157,-242.0106 257.3965,-241.114 256.644,-240.2035 255.963,-239.2814 255.3579,-238.3503 254.8331,-237.4127 254.3928,-236.4713 254.0412,-235.5287 253.7821,-234.5873 253.619,-233.6497 253.5554,-232.7186 253.5939,-231.7965 253.7373,-230.886 253.9876,-229.9894 254.3465,-229.1093 254.8151,-228.2481 255.394,-227.4082 256.0835,-226.5918 256.883,-225.8012 257.7915,-225.0385 258.8074,-224.3059 259.9286,-223.6054 261.1523,-222.9388 262.4751,-222.308 263.893,-221.7147 265.4017,-221.1606 266.9961,-220.6472 268.6706,-220.1759 270.4191,-219.7479 272.2353,-219.3645 274.1122,-219.0266 276.0425,-218.7353 278.0186,-218.4913 280.0325,-218.2953 282.0761,-218.1479 284.1411,-218.0493 286.2189,-218 288.3011,-218 290.3789,-218.0493"/>
<text text-anchor="middle" x="287.26" y="-233.5" font-family="Courier,monospace" font-weight="bold" font-size="10.00" fill="#000000">D,1,1</text>
</g>
<!-- STATE_I,2,1 -->
<g id="node8" class="node">
<title>STATE_I,2,1</title>
<polygon fill="none" stroke="#000000" points="417.0829,-176.0493 419.1479,-176.1479 421.1915,-176.2953 423.2054,-176.4913 425.1815,-176.7353 427.1118,-177.0266 428.9887,-177.3645 430.8049,-177.7479 432.5534,-178.1759 434.2279,-178.6472 435.8223,-179.1606 437.3309,-179.7147 438.7489,-180.308 440.0717,-180.9388 441.2954,-181.6054 442.4166,-182.3059 443.4325,-183.0385 444.341,-183.8012 445.1405,-184.5918 445.83,-185.4082 446.4089,-186.2481 446.8775,-187.1093 447.2364,-187.9894 447.4867,-188.886 447.6301,-189.7965 447.6686,-190.7186 447.6049,-191.6497 447.4419,-192.5873 447.1828,-193.5287 446.8312,-194.4713 446.3909,-195.4127 445.8661,-196.3503 445.261,-197.2814 444.5799,-198.2035 443.8275,-199.114 443.0083,-200.0106 442.1269,-200.8907 441.1877,-201.7519 440.1954,-202.5918 439.1543,-203.4082 438.0688,-204.1988 436.943,-204.9615 435.7808,-205.6941 434.5861,-206.3946 433.3624,-207.0612 432.1132,-207.692 430.8414,-208.2853 429.55,-208.8394 428.2417,-209.3528 426.9189,-209.8241 425.5836,-210.2521 424.238,-210.6355 422.8837,-210.9734 421.5224,-211.2647 420.1553,-211.5087 418.7838,-211.7047 417.409,-211.8521 416.0319,-211.9507 414.6534,-212 413.2745,-212 411.8961,-211.9507 410.519,-211.8521 409.1442,-211.7047 407.7727,-211.5087 406.4056,-211.2647 405.0443,-210.9734 403.69,-210.6355 402.3444,-210.2521 401.0091,-209.8241 399.6863,-209.3528 398.3779,-208.8394 397.0866,-208.2853 395.8148,-207.692 394.5655,-207.0612 393.3419,-206.3946 392.1472,-205.6941 390.985,-204.9615 389.8592,-204.1988 388.7737,-203.4082 387.7326,-202.5918 386.7403,-201.7519 385.8011,-200.8907 384.9197,-200.0106 384.1004,-199.114 383.348,-198.2035 382.667,-197.2814 382.0619,-196.3503 381.5371,-195.4127 381.0968,-194.4713 380.7452,-193.5287 380.4861,-192.5873 380.323,-191.6497 380.2594,-190.7186 380.2979,-189.7965 380.4413,-188.886 380.6916,-187.9894 381.0505,-187.1093 381.5191,-186.2481 382.098,-185.4082 382.7875,-184.5918 383.587,-183.8012 384.4955,-183.0385 385.5114,-182.3059 386.6326,-181.6054 387.8563,-180.9388 389.1791,-180.308 390.597,-179.7147 392.1057,-179.1606 393.7001,-178.6472 395.3746,-178.1759 397.1231,-177.7479 398.9393,-177.3645 400.8162,-177.0266 402.7465,-176.7353 404.7226,-176.4913 406.7365,-176.2953 408.7801,-176.1479 410.8451,-176.0493 412.9229,-176 415.0051,-176 417.0829,-176.0493"/>
<text text-anchor="middle" x="413.964" y="-191.5" font-family="Courier,monospace" font-weight="bold" font-size="10.00" fill="#000000">I,2,1</text>
</g>
<!-- STATE_D,1,1&#45;&gt;STATE_I,2,1 -->
<g id="edge2" class="edge">
<title>STATE_D,1,1&#45;&gt;STATE_I,2,1</title>
<path fill="none" stroke="#000000" d="M317.9315,-225.833C336.0181,-219.8376 358.9985,-212.22 377.9442,-205.9399"/>
<polygon fill="#000000" stroke="#000000" points="379.0456,-209.2621 387.4364,-202.7934 376.8431,-202.6177 379.0456,-209.2621"/>
<text text-anchor="middle" x="350.612" y="-221" font-family="Courier,monospace" font-weight="bold" font-size="10.00" fill="#000000">nan</text>
</g>
<!-- STATE_D,2,1 -->
<g id="node3" class="node">
<title>STATE_D,2,1</title>
<polygon fill="none" stroke="#000000" points="417.0829,-277.0493 419.1479,-277.1479 421.1915,-277.2953 423.2054,-277.4913 425.1815,-277.7353 427.1118,-278.0266 428.9887,-278.3645 430.8049,-278.7479 432.5534,-279.1759 434.2279,-279.6472 435.8223,-280.1606 437.3309,-280.7147 438.7489,-281.308 440.0717,-281.9388 441.2954,-282.6054 442.4166,-283.3059 443.4325,-284.0385 444.341,-284.8012 445.1405,-285.5918 445.83,-286.4082 446.4089,-287.2481 446.8775,-288.1093 447.2364,-288.9894 447.4867,-289.886 447.6301,-290.7965 447.6686,-291.7186 447.6049,-292.6497 447.4419,-293.5873 447.1828,-294.5287 446.8312,-295.4713 446.3909,-296.4127 445.8661,-297.3503 445.261,-298.2814 444.5799,-299.2035 443.8275,-300.114 443.0083,-301.0106 442.1269,-301.8907 441.1877,-302.7519 440.1954,-303.5918 439.1543,-304.4082 438.0688,-305.1988 436.943,-305.9615 435.7808,-306.6941 434.5861,-307.3946 433.3624,-308.0612 432.1132,-308.692 430.8414,-309.2853 429.55,-309.8394 428.2417,-310.3528 426.9189,-310.8241 425.5836,-311.2521 424.238,-311.6355 422.8837,-311.9734 421.5224,-312.2647 420.1553,-312.5087 418.7838,-312.7047 417.409,-312.8521 416.0319,-312.9507 414.6534,-313 413.2745,-313 411.8961,-312.9507 410.519,-312.8521 409.1442,-312.7047 407.7727,-312.5087 406.4056,-312.2647 405.0443,-311.9734 403.69,-311.6355 402.3444,-311.2521 401.0091,-310.8241 399.6863,-310.3528 398.3779,-309.8394 397.0866,-309.2853 395.8148,-308.692 394.5655,-308.0612 393.3419,-307.3946 392.1472,-306.6941 390.985,-305.9615 389.8592,-305.1988 388.7737,-304.4082 387.7326,-303.5918 386.7403,-302.7519 385.8011,-301.8907 384.9197,-301.0106 384.1004,-300.114 383.348,-299.2035 382.667,-298.2814 382.0619,-297.3503 381.5371,-296.4127 381.0968,-295.4713 380.7452,-294.5287 380.4861,-293.5873 380.323,-292.6497 380.2594,-291.7186 380.2979,-290.7965 380.4413,-289.886 380.6916,-288.9894 381.0505,-288.1093 381.5191,-287.2481 382.098,-286.4082 382.7875,-285.5918 383.587,-284.8012 384.4955,-284.0385 385.5114,-283.3059 386.6326,-282.6054 387.8563,-281.9388 389.1791,-281.308 390.597,-280.7147 392.1057,-280.1606 393.7001,-279.6472 395.3746,-279.1759 397.1231,-278.7479 398.9393,-278.3645 400.8162,-278.0266 402.7465,-277.7353 404.7226,-277.4913 406.7365,-277.2953 408.7801,-277.1479 410.8451,-277.0493 412.9229,-277 415.0051,-277 417.0829,-277.0493"/>
<text text-anchor="middle" x="413.964" y="-292.5" font-family="Courier,monospace" font-weight="bold" font-size="10.00" fill="#000000">D,2,1</text>
</g>
<!-- STATE_I,3,1 -->
<g id="node10" class="node">
<title>STATE_I,3,1</title>
<polygon fill="none" stroke="#000000" points="543.7869,-270.0493 545.8519,-270.1479 547.8955,-270.2953 549.9094,-270.4913 551.8855,-270.7353 553.8158,-271.0266 555.6927,-271.3645 557.5089,-271.7479 559.2574,-272.1759 560.9319,-272.6472 562.5263,-273.1606 564.0349,-273.7147 565.4529,-274.308 566.7757,-274.9388 567.9994,-275.6054 569.1206,-276.3059 570.1365,-277.0385 571.045,-277.8012 571.8445,-278.5918 572.534,-279.4082 573.1129,-280.2481 573.5815,-281.1093 573.9404,-281.9894 574.1907,-282.886 574.3341,-283.7965 574.3726,-284.7186 574.3089,-285.6497 574.1459,-286.5873 573.8868,-287.5287 573.5352,-288.4713 573.0949,-289.4127 572.5701,-290.3503 571.965,-291.2814 571.2839,-292.2035 570.5315,-293.114 569.7123,-294.0106 568.8309,-294.8907 567.8917,-295.7519 566.8994,-296.5918 565.8583,-297.4082 564.7728,-298.1988 563.647,-298.9615 562.4848,-299.6941 561.2901,-300.3946 560.0664,-301.0612 558.8172,-301.692 557.5454,-302.2853 556.254,-302.8394 554.9457,-303.3528 553.6229,-303.8241 552.2876,-304.2521 550.942,-304.6355 549.5877,-304.9734 548.2264,-305.2647 546.8593,-305.5087 545.4878,-305.7047 544.113,-305.8521 542.7359,-305.9507 541.3574,-306 539.9785,-306 538.6001,-305.9507 537.223,-305.8521 535.8482,-305.7047 534.4767,-305.5087 533.1096,-305.2647 531.7483,-304.9734 530.394,-304.6355 529.0484,-304.2521 527.7131,-303.8241 526.3903,-303.3528 525.0819,-302.8394 523.7906,-302.2853 522.5188,-301.692 521.2695,-301.0612 520.0459,-300.3946 518.8512,-299.6941 517.689,-298.9615 516.5632,-298.1988 515.4777,-297.4082 514.4366,-296.5918 513.4443,-295.7519 512.5051,-294.8907 511.6237,-294.0106 510.8044,-293.114 510.052,-292.2035 509.371,-291.2814 508.7659,-290.3503 508.2411,-289.4127 507.8008,-288.4713 507.4492,-287.5287 507.1901,-286.5873 507.027,-285.6497 506.9634,-284.7186 507.0019,-283.7965 507.1453,-282.886 507.3956,-281.9894 507.7545,-281.1093 508.2231,-280.2481 508.802,-279.4082 509.4915,-278.5918 510.291,-277.8012 511.1995,-277.0385 512.2154,-276.3059 513.3366,-275.6054 514.5603,-274.9388 515.8831,-274.308 517.301,-273.7147 518.8097,-273.1606 520.4041,-272.6472 522.0786,-272.1759 523.8271,-271.7479 525.6433,-271.3645 527.5202,-271.0266 529.4505,-270.7353 531.4266,-270.4913 533.4405,-270.2953 535.4841,-270.1479 537.5491,-270.0493 539.6269,-270 541.7091,-270 543.7869,-270.0493"/>
<text text-anchor="middle" x="540.668" y="-285.5" font-family="Courier,monospace" font-weight="bold" font-size="10.00" fill="#000000">I,3,1</text>
</g>
<!-- STATE_D,2,1&#45;&gt;STATE_I,3,1 -->
<g id="edge3" class="edge">
<title>STATE_D,2,1&#45;&gt;STATE_I,3,1</title>
<path fill="none" stroke="#000000" d="M444.614,-299.5374C458.1845,-300.905 474.3232,-301.6551 488.816,-300 493.5582,-299.4584 498.4978,-298.6468 503.3621,-297.6962"/>
<polygon fill="#000000" stroke="#000000" points="504.1124,-301.115 513.1536,-295.5917 502.6414,-294.2712 504.1124,-301.115"/>
<text text-anchor="middle" x="477.316" y="-303" font-family="Courier,monospace" font-weight="bold" font-size="10.00" fill="#000000">nan</text>
</g>
<!-- STATE_D,3,1 -->
<g id="node4" class="node">
<title>STATE_D,3,1</title>
<polygon fill="none" stroke="#000000" points="543.7869,-448.0493 545.8519,-448.1479 547.8955,-448.2953 549.9094,-448.4913 551.8855,-448.7353 553.8158,-449.0266 555.6927,-449.3645 557.5089,-449.7479 559.2574,-450.1759 560.9319,-450.6472 562.5263,-451.1606 564.0349,-451.7147 565.4529,-452.308 566.7757,-452.9388 567.9994,-453.6054 569.1206,-454.3059 570.1365,-455.0385 571.045,-455.8012 571.8445,-456.5918 572.534,-457.4082 573.1129,-458.2481 573.5815,-459.1093 573.9404,-459.9894 574.1907,-460.886 574.3341,-461.7965 574.3726,-462.7186 574.3089,-463.6497 574.1459,-464.5873 573.8868,-465.5287 573.5352,-466.4713 573.0949,-467.4127 572.5701,-468.3503 571.965,-469.2814 571.2839,-470.2035 570.5315,-471.114 569.7123,-472.0106 568.8309,-472.8907 567.8917,-473.7519 566.8994,-474.5918 565.8583,-475.4082 564.7728,-476.1988 563.647,-476.9615 562.4848,-477.6941 561.2901,-478.3946 560.0664,-479.0612 558.8172,-479.692 557.5454,-480.2853 556.254,-480.8394 554.9457,-481.3528 553.6229,-481.8241 552.2876,-482.2521 550.942,-482.6355 549.5877,-482.9734 548.2264,-483.2647 546.8593,-483.5087 545.4878,-483.7047 544.113,-483.8521 542.7359,-483.9507 541.3574,-484 539.9785,-484 538.6001,-483.9507 537.223,-483.8521 535.8482,-483.7047 534.4767,-483.5087 533.1096,-483.2647 531.7483,-482.9734 530.394,-482.6355 529.0484,-482.2521 527.7131,-481.8241 526.3903,-481.3528 525.0819,-480.8394 523.7906,-480.2853 522.5188,-479.692 521.2695,-479.0612 520.0459,-478.3946 518.8512,-477.6941 517.689,-476.9615 516.5632,-476.1988 515.4777,-475.4082 514.4366,-474.5918 513.4443,-473.7519 512.5051,-472.8907 511.6237,-472.0106 510.8044,-471.114 510.052,-470.2035 509.371,-469.2814 508.7659,-468.3503 508.2411,-467.4127 507.8008,-466.4713 507.4492,-465.5287 507.1901,-464.5873 507.027,-463.6497 506.9634,-462.7186 507.0019,-461.7965 507.1453,-460.886 507.3956,-459.9894 507.7545,-459.1093 508.2231,-458.2481 508.802,-457.4082 509.4915,-456.5918 510.291,-455.8012 511.1995,-455.0385 512.2154,-454.3059 513.3366,-453.6054 514.5603,-452.9388 515.8831,-452.308 517.301,-451.7147 518.8097,-451.1606 520.4041,-450.6472 522.0786,-450.1759 523.8271,-449.7479 525.6433,-449.3645 527.5202,-449.0266 529.4505,-448.7353 531.4266,-448.4913 533.4405,-448.2953 535.4841,-448.1479 537.5491,-448.0493 539.6269,-448 541.7091,-448 543.7869,-448.0493"/>
<text text-anchor="middle" x="540.668" y="-463.5" font-family="Courier,monospace" font-weight="bold" font-size="10.00" fill="#000000">D,3,1</text>
</g>
<!-- STATE_T,3,1 -->
<g id="node15" class="node">
<title>STATE_T,3,1</title>
<polygon fill="none" stroke="#000000" points="670.4909,-431.0493 672.5559,-431.1479 674.5995,-431.2953 676.6134,-431.4913 678.5895,-431.7353 680.5198,-432.0266 682.3967,-432.3645 684.2129,-432.7479 685.9614,-433.1759 687.6359,-433.6472 689.2303,-434.1606 690.7389,-434.7147 692.1569,-435.308 693.4797,-435.9388 694.7034,-436.6054 695.8246,-437.3059 696.8405,-438.0385 697.749,-438.8012 698.5485,-439.5918 699.238,-440.4082 699.8169,-441.2481 700.2855,-442.1093 700.6444,-442.9894 700.8947,-443.886 701.0381,-444.7965 701.0766,-445.7186 701.0129,-446.6497 700.8499,-447.5873 700.5908,-448.5287 700.2392,-449.4713 699.7989,-450.4127 699.2741,-451.3503 698.669,-452.2814 697.9879,-453.2035 697.2355,-454.114 696.4163,-455.0106 695.5349,-455.8907 694.5957,-456.7519 693.6034,-457.5918 692.5623,-458.4082 691.4768,-459.1988 690.351,-459.9615 689.1888,-460.6941 687.9941,-461.3946 686.7704,-462.0612 685.5212,-462.692 684.2494,-463.2853 682.958,-463.8394 681.6497,-464.3528 680.3269,-464.8241 678.9916,-465.2521 677.646,-465.6355 676.2917,-465.9734 674.9304,-466.2647 673.5633,-466.5087 672.1918,-466.7047 670.817,-466.8521 669.4399,-466.9507 668.0614,-467 666.6825,-467 665.3041,-466.9507 663.927,-466.8521 662.5522,-466.7047 661.1807,-466.5087 659.8136,-466.2647 658.4523,-465.9734 657.098,-465.6355 655.7524,-465.2521 654.4171,-464.8241 653.0943,-464.3528 651.7859,-463.8394 650.4946,-463.2853 649.2228,-462.692 647.9735,-462.0612 646.7499,-461.3946 645.5552,-460.6941 644.393,-459.9615 643.2672,-459.1988 642.1817,-458.4082 641.1406,-457.5918 640.1483,-456.7519 639.2091,-455.8907 638.3277,-455.0106 637.5084,-454.114 636.756,-453.2035 636.075,-452.2814 635.4699,-451.3503 634.9451,-450.4127 634.5048,-449.4713 634.1532,-448.5287 633.8941,-447.5873 633.731,-446.6497 633.6674,-445.7186 633.7059,-444.7965 633.8493,-443.886 634.0996,-442.9894 634.4585,-442.1093 634.9271,-441.2481 635.506,-440.4082 636.1955,-439.5918 636.995,-438.8012 637.9035,-438.0385 638.9194,-437.3059 640.0406,-436.6054 641.2643,-435.9388 642.5871,-435.308 644.005,-434.7147 645.5137,-434.1606 647.1081,-433.6472 648.7826,-433.1759 650.5311,-432.7479 652.3473,-432.3645 654.2242,-432.0266 656.1545,-431.7353 658.1306,-431.4913 660.1445,-431.2953 662.1881,-431.1479 664.2531,-431.0493 666.3309,-431 668.4131,-431 670.4909,-431.0493"/>
<text text-anchor="middle" x="667.372" y="-446.5" font-family="Courier,monospace" font-weight="bold" font-size="10.00" fill="#000000">T,3,1</text>
</g>
<!-- STATE_D,3,1&#45;&gt;STATE_T,3,1 -->
<g id="edge4" class="edge">
<title>STATE_D,3,1&#45;&gt;STATE_T,3,1</title>
<path fill="none" stroke="#000000" d="M574.3258,-464.9043C587.2554,-464.1821 602.1211,-462.9848 615.52,-461 620.0644,-460.3268 624.7995,-459.4625 629.4797,-458.5067"/>
<polygon fill="#000000" stroke="#000000" points="630.5209,-461.8618 639.5426,-456.3067 629.0258,-455.0233 630.5209,-461.8618"/>
<text text-anchor="middle" x="604.02" y="-466" font-family="Courier,monospace" font-weight="bold" font-size="10.00" fill="#000000">nan</text>
</g>
<!-- STATE_I,1,0 -->
<g id="node5" class="node">
<title>STATE_I,1,0</title>
<polygon fill="none" stroke="#000000" points="163.6749,-171.0493 165.7399,-171.1479 167.7835,-171.2953 169.7974,-171.4913 171.7735,-171.7353 173.7038,-172.0266 175.5807,-172.3645 177.3969,-172.7479 179.1454,-173.1759 180.8199,-173.6472 182.4143,-174.1606 183.9229,-174.7147 185.3409,-175.308 186.6637,-175.9388 187.8874,-176.6054 189.0086,-177.3059 190.0245,-178.0385 190.933,-178.8012 191.7325,-179.5918 192.422,-180.4082 193.0009,-181.2481 193.4695,-182.1093 193.8284,-182.9894 194.0787,-183.886 194.2221,-184.7965 194.2606,-185.7186 194.1969,-186.6497 194.0339,-187.5873 193.7748,-188.5287 193.4232,-189.4713 192.9829,-190.4127 192.4581,-191.3503 191.853,-192.2814 191.1719,-193.2035 190.4195,-194.114 189.6003,-195.0106 188.7189,-195.8907 187.7797,-196.7519 186.7874,-197.5918 185.7463,-198.4082 184.6608,-199.1988 183.535,-199.9615 182.3728,-200.6941 181.1781,-201.3946 179.9545,-202.0612 178.7052,-202.692 177.4334,-203.2853 176.142,-203.8394 174.8337,-204.3528 173.5109,-204.8241 172.1756,-205.2521 170.83,-205.6355 169.4757,-205.9734 168.1144,-206.2647 166.7473,-206.5087 165.3758,-206.7047 164.001,-206.8521 162.6239,-206.9507 161.2455,-207 159.8665,-207 158.4881,-206.9507 157.111,-206.8521 155.7362,-206.7047 154.3647,-206.5087 152.9976,-206.2647 151.6363,-205.9734 150.282,-205.6355 148.9364,-205.2521 147.6011,-204.8241 146.2783,-204.3528 144.9699,-203.8394 143.6786,-203.2853 142.4068,-202.692 141.1575,-202.0612 139.9339,-201.3946 138.7392,-200.6941 137.577,-199.9615 136.4512,-199.1988 135.3657,-198.4082 134.3246,-197.5918 133.3323,-196.7519 132.3931,-195.8907 131.5117,-195.0106 130.6925,-194.114 129.9401,-193.2035 129.259,-192.2814 128.6539,-191.3503 128.1291,-190.4127 127.6888,-189.4713 127.3372,-188.5287 127.0781,-187.5873 126.915,-186.6497 126.8514,-185.7186 126.8899,-184.7965 127.0333,-183.886 127.2836,-182.9894 127.6425,-182.1093 128.1111,-181.2481 128.69,-180.4082 129.3795,-179.5918 130.179,-178.8012 131.0875,-178.0385 132.1034,-177.3059 133.2246,-176.6054 134.4483,-175.9388 135.7711,-175.308 137.189,-174.7147 138.6977,-174.1606 140.2921,-173.6472 141.9666,-173.1759 143.7151,-172.7479 145.5313,-172.3645 147.4082,-172.0266 149.3385,-171.7353 151.3146,-171.4913 153.3285,-171.2953 155.3721,-171.1479 157.4371,-171.0493 159.5149,-171 161.5971,-171 163.6749,-171.0493"/>
<text text-anchor="middle" x="160.556" y="-186.5" font-family="Courier,monospace" font-weight="bold" font-size="10.00" fill="#000000">I,1,0</text>
</g>
<!-- STATE_I,1,0&#45;&gt;STATE_D,1,1 -->
<g id="edge5" class="edge">
<title>STATE_I,1,0&#45;&gt;STATE_D,1,1</title>
<path fill="none" stroke="#000000" d="M185.8919,-198.3982C203.6417,-204.9823 227.7094,-213.9101 247.9391,-221.4142"/>
<polygon fill="#000000" stroke="#000000" points="246.9243,-224.7707 257.5173,-224.9671 249.3588,-218.2077 246.9243,-224.7707"/>
<text text-anchor="middle" x="223.908" y="-219" font-family="Courier,monospace" font-weight="bold" font-size="10.00" fill="#000000">nan</text>
</g>
<!-- STATE_I,2,0 -->
<g id="node7" class="node">
<title>STATE_I,2,0</title>
<polygon fill="none" stroke="#000000" points="290.3789,-277.0493 292.4439,-277.1479 294.4875,-277.2953 296.5014,-277.4913 298.4775,-277.7353 300.4078,-278.0266 302.2847,-278.3645 304.1009,-278.7479 305.8494,-279.1759 307.5239,-279.6472 309.1183,-280.1606 310.6269,-280.7147 312.0449,-281.308 313.3677,-281.9388 314.5914,-282.6054 315.7126,-283.3059 316.7285,-284.0385 317.637,-284.8012 318.4365,-285.5918 319.126,-286.4082 319.7049,-287.2481 320.1735,-288.1093 320.5324,-288.9894 320.7827,-289.886 320.9261,-290.7965 320.9646,-291.7186 320.9009,-292.6497 320.7379,-293.5873 320.4788,-294.5287 320.1272,-295.4713 319.6869,-296.4127 319.1621,-297.3503 318.557,-298.2814 317.8759,-299.2035 317.1235,-300.114 316.3043,-301.0106 315.4229,-301.8907 314.4837,-302.7519 313.4914,-303.5918 312.4503,-304.4082 311.3648,-305.1988 310.239,-305.9615 309.0768,-306.6941 307.8821,-307.3946 306.6584,-308.0612 305.4092,-308.692 304.1374,-309.2853 302.846,-309.8394 301.5377,-310.3528 300.2149,-310.8241 298.8796,-311.2521 297.534,-311.6355 296.1797,-311.9734 294.8184,-312.2647 293.4513,-312.5087 292.0798,-312.7047 290.705,-312.8521 289.3279,-312.9507 287.9494,-313 286.5705,-313 285.1921,-312.9507 283.815,-312.8521 282.4402,-312.7047 281.0687,-312.5087 279.7016,-312.2647 278.3403,-311.9734 276.986,-311.6355 275.6404,-311.2521 274.3051,-310.8241 272.9823,-310.3528 271.6739,-309.8394 270.3826,-309.2853 269.1108,-308.692 267.8615,-308.0612 266.6379,-307.3946 265.4432,-306.6941 264.281,-305.9615 263.1552,-305.1988 262.0697,-304.4082 261.0286,-303.5918 260.0363,-302.7519 259.0971,-301.8907 258.2157,-301.0106 257.3965,-300.114 256.644,-299.2035 255.963,-298.2814 255.3579,-297.3503 254.8331,-296.4127 254.3928,-295.4713 254.0412,-294.5287 253.7821,-293.5873 253.619,-292.6497 253.5554,-291.7186 253.5939,-290.7965 253.7373,-289.886 253.9876,-288.9894 254.3465,-288.1093 254.8151,-287.2481 255.394,-286.4082 256.0835,-285.5918 256.883,-284.8012 257.7915,-284.0385 258.8074,-283.3059 259.9286,-282.6054 261.1523,-281.9388 262.4751,-281.308 263.893,-280.7147 265.4017,-280.1606 266.9961,-279.6472 268.6706,-279.1759 270.4191,-278.7479 272.2353,-278.3645 274.1122,-278.0266 276.0425,-277.7353 278.0186,-277.4913 280.0325,-277.2953 282.0761,-277.1479 284.1411,-277.0493 286.2189,-277 288.3011,-277 290.3789,-277.0493"/>
<text text-anchor="middle" x="287.26" y="-292.5" font-family="Courier,monospace" font-weight="bold" font-size="10.00" fill="#000000">I,2,0</text>
</g>
<!-- STATE_I,1,0&#45;&gt;STATE_I,2,0 -->
<g id="edge6" class="edge">
<title>STATE_I,1,0&#45;&gt;STATE_I,2,0</title>
<path fill="none" stroke="#000000" d="M177.6439,-203.2956C198.977,-221.1428 235.6996,-251.8648 260.7091,-272.7876"/>
<polygon fill="#000000" stroke="#000000" points="258.4674,-275.4755 268.3831,-279.2077 262.959,-270.1066 258.4674,-275.4755"/>
<text text-anchor="middle" x="223.908" y="-254" font-family="Courier,monospace" font-weight="bold" font-size="10.00" fill="#000000">nan</text>
</g>
<!-- STATE_M,2,1 -->
<g id="node12" class="node">
<title>STATE_M,2,1</title>
<polygon fill="none" stroke="#000000" points="417.0829,-122.0493 419.1479,-122.1479 421.1915,-122.2953 423.2054,-122.4913 425.1815,-122.7353 427.1118,-123.0266 428.9887,-123.3645 430.8049,-123.7479 432.5534,-124.1759 434.2279,-124.6472 435.8223,-125.1606 437.3309,-125.7147 438.7489,-126.308 440.0717,-126.9388 441.2954,-127.6054 442.4166,-128.3059 443.4325,-129.0385 444.341,-129.8012 445.1405,-130.5918 445.83,-131.4082 446.4089,-132.2481 446.8775,-133.1093 447.2364,-133.9894 447.4867,-134.886 447.6301,-135.7965 447.6686,-136.7186 447.6049,-137.6497 447.4419,-138.5873 447.1828,-139.5287 446.8312,-140.4713 446.3909,-141.4127 445.8661,-142.3503 445.261,-143.2814 444.5799,-144.2035 443.8275,-145.114 443.0083,-146.0106 442.1269,-146.8907 441.1877,-147.7519 440.1954,-148.5918 439.1543,-149.4082 438.0688,-150.1988 436.943,-150.9615 435.7808,-151.6941 434.5861,-152.3946 433.3624,-153.0612 432.1132,-153.692 430.8414,-154.2853 429.55,-154.8394 428.2417,-155.3528 426.9189,-155.8241 425.5836,-156.2521 424.238,-156.6355 422.8837,-156.9734 421.5224,-157.2647 420.1553,-157.5087 418.7838,-157.7047 417.409,-157.8521 416.0319,-157.9507 414.6534,-158 413.2745,-158 411.8961,-157.9507 410.519,-157.8521 409.1442,-157.7047 407.7727,-157.5087 406.4056,-157.2647 405.0443,-156.9734 403.69,-156.6355 402.3444,-156.2521 401.0091,-155.8241 399.6863,-155.3528 398.3779,-154.8394 397.0866,-154.2853 395.8148,-153.692 394.5655,-153.0612 393.3419,-152.3946 392.1472,-151.6941 390.985,-150.9615 389.8592,-150.1988 388.7737,-149.4082 387.7326,-148.5918 386.7403,-147.7519 385.8011,-146.8907 384.9197,-146.0106 384.1004,-145.114 383.348,-144.2035 382.667,-143.2814 382.0619,-142.3503 381.5371,-141.4127 381.0968,-140.4713 380.7452,-139.5287 380.4861,-138.5873 380.323,-137.6497 380.2594,-136.7186 380.2979,-135.7965 380.4413,-134.886 380.6916,-133.9894 381.0505,-133.1093 381.5191,-132.2481 382.098,-131.4082 382.7875,-130.5918 383.587,-129.8012 384.4955,-129.0385 385.5114,-128.3059 386.6326,-127.6054 387.8563,-126.9388 389.1791,-126.308 390.597,-125.7147 392.1057,-125.1606 393.7001,-124.6472 395.3746,-124.1759 397.1231,-123.7479 398.9393,-123.3645 400.8162,-123.0266 402.7465,-122.7353 404.7226,-122.4913 406.7365,-122.2953 408.7801,-122.1479 410.8451,-122.0493 412.9229,-122 415.0051,-122 417.0829,-122.0493"/>
<text text-anchor="middle" x="413.964" y="-137.5" font-family="Courier,monospace" font-weight="bold" font-size="10.00" fill="#000000">M,2,1</text>
</g>
<!-- STATE_I,1,0&#45;&gt;STATE_M,2,1 -->
<g id="edge7" class="edge">
<title>STATE_I,1,0&#45;&gt;STATE_M,2,1</title>
<path fill="none" stroke="#000000" d="M192.2845,-191.7684C232.8594,-194.2019 304.7342,-194.7526 362.112,-175 371.6144,-171.7287 381.0218,-166.2496 389.1614,-160.5861"/>
<polygon fill="#000000" stroke="#000000" points="391.4811,-163.2239 397.4407,-154.464 387.3192,-157.5955 391.4811,-163.2239"/>
<text text-anchor="middle" x="287.26" y="-195" font-family="Courier,monospace" font-weight="bold" font-size="10.00" fill="#000000">nan</text>
</g>
<!-- SYMBOL_A -->
<g id="node16" class="node">
<title>SYMBOL_A</title>
<polygon fill="none" stroke="#000000" stroke-dasharray="5,2" points="416.6465,-44.0493 418.4226,-44.1479 420.1803,-44.2953 421.9124,-44.4913 423.612,-44.7353 425.2723,-45.0266 426.8865,-45.3645 428.4486,-45.7479 429.9526,-46.1759 431.3928,-46.6472 432.764,-47.1606 434.0616,-47.7147 435.2812,-48.308 436.4189,-48.9388 437.4714,-49.6054 438.4357,-50.3059 439.3095,-51.0385 440.0909,-51.8012 440.7786,-52.5918 441.3715,-53.4082 441.8695,-54.2481 442.2725,-55.1093 442.5812,-55.9894 442.7965,-56.886 442.9198,-57.7965 442.953,-58.7186 442.8982,-59.6497 442.7579,-60.5873 442.5351,-61.5287 442.2327,-62.4713 441.854,-63.4127 441.4026,-64.3503 440.8821,-65.2814 440.2964,-66.2035 439.6493,-67.114 438.9447,-68.0106 438.1865,-68.8907 437.3788,-69.7519 436.5253,-70.5918 435.6299,-71.4082 434.6963,-72.1988 433.7279,-72.9615 432.7284,-73.6941 431.7008,-74.3946 430.6484,-75.0612 429.5739,-75.692 428.4801,-76.2853 427.3694,-76.8394 426.2441,-77.3528 425.1063,-77.8241 423.9579,-78.2521 422.8005,-78.6355 421.6357,-78.9734 420.4649,-79.2647 419.2891,-79.5087 418.1095,-79.7047 416.927,-79.8521 415.7426,-79.9507 414.557,-80 413.371,-80 412.1854,-79.9507 411.001,-79.8521 409.8185,-79.7047 408.6389,-79.5087 407.4631,-79.2647 406.2923,-78.9734 405.1275,-78.6355 403.9701,-78.2521 402.8217,-77.8241 401.6839,-77.3528 400.5586,-76.8394 399.4479,-76.2853 398.3541,-75.692 397.2796,-75.0612 396.2272,-74.3946 395.1996,-73.6941 394.2001,-72.9615 393.2317,-72.1988 392.2981,-71.4082 391.4027,-70.5918 390.5492,-69.7519 389.7415,-68.8907 388.9833,-68.0106 388.2787,-67.114 387.6316,-66.2035 387.0459,-65.2814 386.5254,-64.3503 386.074,-63.4127 385.6953,-62.4713 385.3929,-61.5287 385.17,-60.5873 385.0298,-59.6497 384.975,-58.7186 385.0082,-57.7965 385.1315,-56.886 385.3468,-55.9894 385.6555,-55.1093 386.0585,-54.2481 386.5565,-53.4082 387.1494,-52.5918 387.8371,-51.8012 388.6185,-51.0385 389.4923,-50.3059 390.4566,-49.6054 391.5091,-48.9388 392.6468,-48.308 393.8664,-47.7147 395.164,-47.1606 396.5352,-46.6472 397.9754,-46.1759 399.4794,-45.7479 401.0415,-45.3645 402.6557,-45.0266 404.316,-44.7353 406.0156,-44.4913 407.7477,-44.2953 409.5054,-44.1479 411.2815,-44.0493 413.0686,-44 414.8594,-44 416.6465,-44.0493"/>
<text text-anchor="middle" x="413.964" y="-59.5" font-family="Courier,monospace" font-weight="bold" font-size="10.00" fill="#000000">A</text>
</g>
<!-- STATE_I,1,0&#45;&gt;SYMBOL_A -->
<g id="edge21" class="edge">
<title>STATE_I,1,0&#45;&gt;SYMBOL_A</title>
<path fill="none" stroke="#000000" stroke-dasharray="5,2" d="M180.5612,-173.1685C185.3909,-168.8521 190.3297,-163.9832 194.408,-159 204.4983,-146.6707 202.1168,-140.1622 212.408,-128 227.6993,-109.9287 232.0887,-104.2899 253.408,-94 292.4424,-75.1598 341.9445,-67.4104 375.5922,-64.2237"/>
<polygon fill="#000000" stroke="#000000" points="376.2605,-67.6795 385.9264,-63.3412 375.6648,-60.7049 376.2605,-67.6795"/>
<text text-anchor="middle" x="287.26" y="-97" font-family="Courier,monospace" font-weight="bold" font-size="10.00" fill="#000000">1.0</text>
</g>
<!-- STATE_I,1,1&#45;&gt;STATE_I,2,1 -->
<g id="edge8" class="edge">
<title>STATE_I,1,1&#45;&gt;STATE_I,2,1</title>
<path fill="none" stroke="#000000" d="M310.2051,-143.2277C329.0899,-152.4686 356.1962,-165.7325 377.9676,-176.3859"/>
<polygon fill="#000000" stroke="#000000" points="376.7178,-179.6709 387.2385,-180.9224 379.7946,-173.3833 376.7178,-179.6709"/>
<text text-anchor="middle" x="350.612" y="-171" font-family="Courier,monospace" font-weight="bold" font-size="10.00" fill="#000000">nan</text>
</g>
<!-- STATE_I,1,1&#45;&gt;SYMBOL_A -->
<g id="edge22" class="edge">
<title>STATE_I,1,1&#45;&gt;SYMBOL_A</title>
<path fill="none" stroke="#000000" stroke-dasharray="5,2" d="M319.7561,-124.1692C333.3617,-120.1357 349.0224,-114.4695 362.112,-107 373.1616,-100.6946 384.0109,-91.8246 392.9061,-83.6246"/>
<polygon fill="#000000" stroke="#000000" points="395.3678,-86.1133 400.176,-76.6723 390.5298,-81.0543 395.3678,-86.1133"/>
<text text-anchor="middle" x="350.612" y="-120" font-family="Courier,monospace" font-weight="bold" font-size="10.00" fill="#000000">1.0</text>
</g>
<!-- STATE_I,2,0&#45;&gt;STATE_D,2,1 -->
<g id="edge9" class="edge">
<title>STATE_I,2,0&#45;&gt;STATE_D,2,1</title>
<path fill="none" stroke="#000000" d="M320.55,-295C335.827,-295 354.1403,-295 370.4886,-295"/>
<polygon fill="#000000" stroke="#000000" points="370.8964,-298.5001 380.8963,-295 370.8963,-291.5001 370.8964,-298.5001"/>
<text text-anchor="middle" x="350.612" y="-298" font-family="Courier,monospace" font-weight="bold" font-size="10.00" fill="#000000">nan</text>
</g>
<!-- STATE_I,3,0 -->
<g id="node9" class="node">
<title>STATE_I,3,0</title>
<polygon fill="none" stroke="#000000" points="417.0829,-378.0493 419.1479,-378.1479 421.1915,-378.2953 423.2054,-378.4913 425.1815,-378.7353 427.1118,-379.0266 428.9887,-379.3645 430.8049,-379.7479 432.5534,-380.1759 434.2279,-380.6472 435.8223,-381.1606 437.3309,-381.7147 438.7489,-382.308 440.0717,-382.9388 441.2954,-383.6054 442.4166,-384.3059 443.4325,-385.0385 444.341,-385.8012 445.1405,-386.5918 445.83,-387.4082 446.4089,-388.2481 446.8775,-389.1093 447.2364,-389.9894 447.4867,-390.886 447.6301,-391.7965 447.6686,-392.7186 447.6049,-393.6497 447.4419,-394.5873 447.1828,-395.5287 446.8312,-396.4713 446.3909,-397.4127 445.8661,-398.3503 445.261,-399.2814 444.5799,-400.2035 443.8275,-401.114 443.0083,-402.0106 442.1269,-402.8907 441.1877,-403.7519 440.1954,-404.5918 439.1543,-405.4082 438.0688,-406.1988 436.943,-406.9615 435.7808,-407.6941 434.5861,-408.3946 433.3624,-409.0612 432.1132,-409.692 430.8414,-410.2853 429.55,-410.8394 428.2417,-411.3528 426.9189,-411.8241 425.5836,-412.2521 424.238,-412.6355 422.8837,-412.9734 421.5224,-413.2647 420.1553,-413.5087 418.7838,-413.7047 417.409,-413.8521 416.0319,-413.9507 414.6534,-414 413.2745,-414 411.8961,-413.9507 410.519,-413.8521 409.1442,-413.7047 407.7727,-413.5087 406.4056,-413.2647 405.0443,-412.9734 403.69,-412.6355 402.3444,-412.2521 401.0091,-411.8241 399.6863,-411.3528 398.3779,-410.8394 397.0866,-410.2853 395.8148,-409.692 394.5655,-409.0612 393.3419,-408.3946 392.1472,-407.6941 390.985,-406.9615 389.8592,-406.1988 388.7737,-405.4082 387.7326,-404.5918 386.7403,-403.7519 385.8011,-402.8907 384.9197,-402.0106 384.1004,-401.114 383.348,-400.2035 382.667,-399.2814 382.0619,-398.3503 381.5371,-397.4127 381.0968,-396.4713 380.7452,-395.5287 380.4861,-394.5873 380.323,-393.6497 380.2594,-392.7186 380.2979,-391.7965 380.4413,-390.886 380.6916,-389.9894 381.0505,-389.1093 381.5191,-388.2481 382.098,-387.4082 382.7875,-386.5918 383.587,-385.8012 384.4955,-385.0385 385.5114,-384.3059 386.6326,-383.6054 387.8563,-382.9388 389.1791,-382.308 390.597,-381.7147 392.1057,-381.1606 393.7001,-380.6472 395.3746,-380.1759 397.1231,-379.7479 398.9393,-379.3645 400.8162,-379.0266 402.7465,-378.7353 404.7226,-378.4913 406.7365,-378.2953 408.7801,-378.1479 410.8451,-378.0493 412.9229,-378 415.0051,-378 417.0829,-378.0493"/>
<text text-anchor="middle" x="413.964" y="-393.5" font-family="Courier,monospace" font-weight="bold" font-size="10.00" fill="#000000">I,3,0</text>
</g>
<!-- STATE_I,2,0&#45;&gt;STATE_I,3,0 -->
<g id="edge10" class="edge">
<title>STATE_I,2,0&#45;&gt;STATE_I,3,0</title>
<path fill="none" stroke="#000000" d="M296.8421,-312.0446C306.0367,-327.1175 321.1529,-348.8511 339.112,-363 349.323,-371.0446 361.8012,-377.5553 373.6199,-382.6005"/>
<polygon fill="#000000" stroke="#000000" points="372.3173,-385.849 382.901,-386.3338 374.9296,-379.3547 372.3173,-385.849"/>
<text text-anchor="middle" x="350.612" y="-380" font-family="Courier,monospace" font-weight="bold" font-size="10.00" fill="#000000">nan</text>
</g>
<!-- STATE_M,3,1 -->
<g id="node13" class="node">
<title>STATE_M,3,1</title>
<polygon fill="none" stroke="#000000" points="543.7869,-324.0493 545.8519,-324.1479 547.8955,-324.2953 549.9094,-324.4913 551.8855,-324.7353 553.8158,-325.0266 555.6927,-325.3645 557.5089,-325.7479 559.2574,-326.1759 560.9319,-326.6472 562.5263,-327.1606 564.0349,-327.7147 565.4529,-328.308 566.7757,-328.9388 567.9994,-329.6054 569.1206,-330.3059 570.1365,-331.0385 571.045,-331.8012 571.8445,-332.5918 572.534,-333.4082 573.1129,-334.2481 573.5815,-335.1093 573.9404,-335.9894 574.1907,-336.886 574.3341,-337.7965 574.3726,-338.7186 574.3089,-339.6497 574.1459,-340.5873 573.8868,-341.5287 573.5352,-342.4713 573.0949,-343.4127 572.5701,-344.3503 571.965,-345.2814 571.2839,-346.2035 570.5315,-347.114 569.7123,-348.0106 568.8309,-348.8907 567.8917,-349.7519 566.8994,-350.5918 565.8583,-351.4082 564.7728,-352.1988 563.647,-352.9615 562.4848,-353.6941 561.2901,-354.3946 560.0664,-355.0612 558.8172,-355.692 557.5454,-356.2853 556.254,-356.8394 554.9457,-357.3528 553.6229,-357.8241 552.2876,-358.2521 550.942,-358.6355 549.5877,-358.9734 548.2264,-359.2647 546.8593,-359.5087 545.4878,-359.7047 544.113,-359.8521 542.7359,-359.9507 541.3574,-360 539.9785,-360 538.6001,-359.9507 537.223,-359.8521 535.8482,-359.7047 534.4767,-359.5087 533.1096,-359.2647 531.7483,-358.9734 530.394,-358.6355 529.0484,-358.2521 527.7131,-357.8241 526.3903,-357.3528 525.0819,-356.8394 523.7906,-356.2853 522.5188,-355.692 521.2695,-355.0612 520.0459,-354.3946 518.8512,-353.6941 517.689,-352.9615 516.5632,-352.1988 515.4777,-351.4082 514.4366,-350.5918 513.4443,-349.7519 512.5051,-348.8907 511.6237,-348.0106 510.8044,-347.114 510.052,-346.2035 509.371,-345.2814 508.7659,-344.3503 508.2411,-343.4127 507.8008,-342.4713 507.4492,-341.5287 507.1901,-340.5873 507.027,-339.6497 506.9634,-338.7186 507.0019,-337.7965 507.1453,-336.886 507.3956,-335.9894 507.7545,-335.1093 508.2231,-334.2481 508.802,-333.4082 509.4915,-332.5918 510.291,-331.8012 511.1995,-331.0385 512.2154,-330.3059 513.3366,-329.6054 514.5603,-328.9388 515.8831,-328.308 517.301,-327.7147 518.8097,-327.1606 520.4041,-326.6472 522.0786,-326.1759 523.8271,-325.7479 525.6433,-325.3645 527.5202,-325.0266 529.4505,-324.7353 531.4266,-324.4913 533.4405,-324.2953 535.4841,-324.1479 537.5491,-324.0493 539.6269,-324 541.7091,-324 543.7869,-324.0493"/>
<text text-anchor="middle" x="540.668" y="-339.5" font-family="Courier,monospace" font-weight="bold" font-size="10.00" fill="#000000">M,3,1</text>
</g>
<!-- STATE_I,2,0&#45;&gt;STATE_M,3,1 -->
<g id="edge11" class="edge">
<title>STATE_I,2,0&#45;&gt;STATE_M,3,1</title>
<path fill="none" stroke="#000000" d="M313.3952,-303.8095C331.848,-309.7302 357.2582,-317.285 380.112,-322 419.2095,-330.0662 464.3793,-335.3403 496.8297,-338.4365"/>
<polygon fill="#000000" stroke="#000000" points="496.6153,-341.9315 506.8948,-339.366 497.259,-334.9612 496.6153,-341.9315"/>
<text text-anchor="middle" x="413.964" y="-335" font-family="Courier,monospace" font-weight="bold" font-size="10.00" fill="#000000">nan</text>
</g>
<!-- SYMBOL_B -->
<g id="node17" class="node">
<title>SYMBOL_B</title>
<polygon fill="none" stroke="#000000" stroke-dasharray="5,2" points="543.3505,-176.0493 545.1266,-176.1479 546.8843,-176.2953 548.6164,-176.4913 550.316,-176.7353 551.9762,-177.0266 553.5905,-177.3645 555.1526,-177.7479 556.6566,-178.1759 558.0968,-178.6472 559.468,-179.1606 560.7656,-179.7147 561.9852,-180.308 563.1229,-180.9388 564.1754,-181.6054 565.1397,-182.3059 566.0135,-183.0385 566.7949,-183.8012 567.4826,-184.5918 568.0755,-185.4082 568.5735,-186.2481 568.9765,-187.1093 569.2852,-187.9894 569.5005,-188.886 569.6238,-189.7965 569.657,-190.7186 569.6022,-191.6497 569.4619,-192.5873 569.2391,-193.5287 568.9367,-194.4713 568.558,-195.4127 568.1066,-196.3503 567.5861,-197.2814 567.0004,-198.2035 566.3533,-199.114 565.6487,-200.0106 564.8905,-200.8907 564.0828,-201.7519 563.2293,-202.5918 562.3339,-203.4082 561.4003,-204.1988 560.4319,-204.9615 559.4324,-205.6941 558.4048,-206.3946 557.3524,-207.0612 556.2779,-207.692 555.1841,-208.2853 554.0734,-208.8394 552.9481,-209.3528 551.8103,-209.8241 550.6619,-210.2521 549.5045,-210.6355 548.3397,-210.9734 547.1689,-211.2647 545.9931,-211.5087 544.8135,-211.7047 543.631,-211.8521 542.4466,-211.9507 541.261,-212 540.075,-212 538.8894,-211.9507 537.705,-211.8521 536.5225,-211.7047 535.3429,-211.5087 534.1671,-211.2647 532.9963,-210.9734 531.8315,-210.6355 530.6741,-210.2521 529.5257,-209.8241 528.3879,-209.3528 527.2626,-208.8394 526.1519,-208.2853 525.0581,-207.692 523.9836,-207.0612 522.9312,-206.3946 521.9036,-205.6941 520.9041,-204.9615 519.9357,-204.1988 519.0021,-203.4082 518.1067,-202.5918 517.2532,-201.7519 516.4455,-200.8907 515.6873,-200.0106 514.9827,-199.114 514.3356,-198.2035 513.7498,-197.2814 513.2294,-196.3503 512.778,-195.4127 512.3993,-194.4713 512.0969,-193.5287 511.874,-192.5873 511.7338,-191.6497 511.679,-190.7186 511.7122,-189.7965 511.8355,-188.886 512.0508,-187.9894 512.3595,-187.1093 512.7625,-186.2481 513.2605,-185.4082 513.8534,-184.5918 514.5411,-183.8012 515.3225,-183.0385 516.1963,-182.3059 517.1606,-181.6054 518.2131,-180.9388 519.3508,-180.308 520.5704,-179.7147 521.868,-179.1606 523.2392,-178.6472 524.6794,-178.1759 526.1834,-177.7479 527.7455,-177.3645 529.3597,-177.0266 531.02,-176.7353 532.7195,-176.4913 534.4517,-176.2953 536.2094,-176.1479 537.9855,-176.0493 539.7726,-176 541.5634,-176 543.3505,-176.0493"/>
<text text-anchor="middle" x="540.668" y="-191.5" font-family="Courier,monospace" font-weight="bold" font-size="10.00" fill="#000000">B</text>
</g>
<!-- STATE_I,2,0&#45;&gt;SYMBOL_B -->
<g id="edge23" class="edge">
<title>STATE_I,2,0&#45;&gt;SYMBOL_B</title>
<path fill="none" stroke="#000000" stroke-dasharray="5,2" d="M315.6632,-283.2511C334.0227,-275.6876 358.4473,-265.6831 380.112,-257 424.5695,-239.1816 476.1519,-219.0347 508.5996,-206.4253"/>
<polygon fill="#000000" stroke="#000000" points="509.9712,-209.6474 518.0262,-202.765 507.4373,-203.1221 509.9712,-209.6474"/>
<text text-anchor="middle" x="413.964" y="-260" font-family="Courier,monospace" font-weight="bold" font-size="10.00" fill="#000000">1.0</text>
</g>
<!-- STATE_I,2,1&#45;&gt;STATE_I,3,1 -->
<g id="edge12" class="edge">
<title>STATE_I,2,1&#45;&gt;STATE_I,3,1</title>
<path fill="none" stroke="#000000" d="M431.4825,-208.1412C437.1853,-213.338 443.2227,-219.5412 447.816,-226 459.1144,-241.887 451.1199,-253.1908 465.816,-266 474.4935,-273.5633 485.6586,-278.5295 496.7035,-281.7895"/>
<polygon fill="#000000" stroke="#000000" points="496.185,-285.2685 506.7381,-284.3291 497.9025,-278.4825 496.185,-285.2685"/>
<text text-anchor="middle" x="477.316" y="-281" font-family="Courier,monospace" font-weight="bold" font-size="10.00" fill="#000000">nan</text>
</g>
<!-- STATE_I,2,1&#45;&gt;SYMBOL_B -->
<g id="edge24" class="edge">
<title>STATE_I,2,1&#45;&gt;SYMBOL_B</title>
<path fill="none" stroke="#000000" stroke-dasharray="5,2" d="M447.254,-194C463.8909,-194 484.1287,-194 501.508,-194"/>
<polygon fill="#000000" stroke="#000000" points="501.9021,-197.5001 511.902,-194 501.902,-190.5001 501.9021,-197.5001"/>
<text text-anchor="middle" x="477.316" y="-197" font-family="Courier,monospace" font-weight="bold" font-size="10.00" fill="#000000">1.0</text>
</g>
<!-- STATE_I,3,0&#45;&gt;STATE_D,3,1 -->
<g id="edge13" class="edge">
<title>STATE_I,3,0&#45;&gt;STATE_D,3,1</title>
<path fill="none" stroke="#000000" d="M435.7452,-408.0334C455.2719,-418.8213 484.2323,-434.8211 506.7834,-447.2798"/>
<polygon fill="#000000" stroke="#000000" points="505.2524,-450.4326 515.698,-452.2049 508.6375,-444.3055 505.2524,-450.4326"/>
<text text-anchor="middle" x="477.316" y="-440" font-family="Courier,monospace" font-weight="bold" font-size="10.00" fill="#000000">nan</text>
</g>
<!-- SYMBOL_C -->
<g id="node18" class="node">
<title>SYMBOL_C</title>
<polygon fill="none" stroke="#000000" stroke-dasharray="5,2" points="670.0545,-324.0493 671.8306,-324.1479 673.5883,-324.2953 675.3204,-324.4913 677.02,-324.7353 678.6802,-325.0266 680.2945,-325.3645 681.8566,-325.7479 683.3605,-326.1759 684.8008,-326.6472 686.172,-327.1606 687.4696,-327.7147 688.6892,-328.308 689.8269,-328.9388 690.8794,-329.6054 691.8437,-330.3059 692.7175,-331.0385 693.4989,-331.8012 694.1866,-332.5918 694.7795,-333.4082 695.2775,-334.2481 695.6805,-335.1093 695.9892,-335.9894 696.2045,-336.886 696.3278,-337.7965 696.361,-338.7186 696.3062,-339.6497 696.1659,-340.5873 695.9431,-341.5287 695.6407,-342.4713 695.262,-343.4127 694.8106,-344.3503 694.2901,-345.2814 693.7044,-346.2035 693.0573,-347.114 692.3527,-348.0106 691.5945,-348.8907 690.7868,-349.7519 689.9333,-350.5918 689.0379,-351.4082 688.1043,-352.1988 687.1359,-352.9615 686.1364,-353.6941 685.1088,-354.3946 684.0564,-355.0612 682.9819,-355.692 681.8881,-356.2853 680.7774,-356.8394 679.6521,-357.3528 678.5143,-357.8241 677.3659,-358.2521 676.2085,-358.6355 675.0437,-358.9734 673.8729,-359.2647 672.6971,-359.5087 671.5175,-359.7047 670.335,-359.8521 669.1506,-359.9507 667.965,-360 666.779,-360 665.5934,-359.9507 664.409,-359.8521 663.2265,-359.7047 662.0469,-359.5087 660.8711,-359.2647 659.7002,-358.9734 658.5355,-358.6355 657.3781,-358.2521 656.2297,-357.8241 655.0919,-357.3528 653.9666,-356.8394 652.8559,-356.2853 651.7621,-355.692 650.6876,-355.0612 649.6352,-354.3946 648.6076,-353.6941 647.6081,-352.9615 646.6397,-352.1988 645.7061,-351.4082 644.8107,-350.5918 643.9572,-349.7519 643.1495,-348.8907 642.3913,-348.0106 641.6867,-347.114 641.0396,-346.2035 640.4538,-345.2814 639.9334,-344.3503 639.482,-343.4127 639.1033,-342.4713 638.8009,-341.5287 638.578,-340.5873 638.4378,-339.6497 638.383,-338.7186 638.4162,-337.7965 638.5395,-336.886 638.7548,-335.9894 639.0635,-335.1093 639.4665,-334.2481 639.9644,-333.4082 640.5574,-332.5918 641.2451,-331.8012 642.0265,-331.0385 642.9003,-330.3059 643.8646,-329.6054 644.9171,-328.9388 646.0548,-328.308 647.2744,-327.7147 648.572,-327.1606 649.9432,-326.6472 651.3834,-326.1759 652.8874,-325.7479 654.4495,-325.3645 656.0637,-325.0266 657.724,-324.7353 659.4235,-324.4913 661.1557,-324.2953 662.9134,-324.1479 664.6895,-324.0493 666.4766,-324 668.2674,-324 670.0545,-324.0493"/>
<text text-anchor="middle" x="667.372" y="-339.5" font-family="Courier,monospace" font-weight="bold" font-size="10.00" fill="#000000">C</text>
</g>
<!-- STATE_I,3,0&#45;&gt;SYMBOL_C -->
<g id="edge25" class="edge">
<title>STATE_I,3,0&#45;&gt;SYMBOL_C</title>
<path fill="none" stroke="#000000" stroke-dasharray="5,2" d="M447.7063,-391.4917C480.351,-386.8562 531.1216,-378.9234 574.52,-369 594.3567,-364.4642 616.2247,-358.1706 633.7534,-352.8007"/>
<polygon fill="#000000" stroke="#000000" points="635.0126,-356.0746 643.5245,-349.766 632.9363,-349.3896 635.0126,-356.0746"/>
<text text-anchor="middle" x="540.668" y="-384" font-family="Courier,monospace" font-weight="bold" font-size="10.00" fill="#000000">1.0</text>
</g>
<!-- STATE_I,3,1&#45;&gt;STATE_T,3,1 -->
<g id="edge14" class="edge">
<title>STATE_I,3,1&#45;&gt;STATE_T,3,1</title>
<path fill="none" stroke="#000000" d="M560.4415,-301.1035C565.495,-305.1237 570.6012,-309.858 574.52,-315 586.8301,-331.1526 582.01,-339.6223 592.52,-357 607.49,-381.7522 628.5712,-407.0434 644.5483,-424.828"/>
<polygon fill="#000000" stroke="#000000" points="642.1661,-427.4101 651.4896,-432.4422 647.3391,-422.6941 642.1661,-427.4101"/>
<text text-anchor="middle" x="604.02" y="-392" font-family="Courier,monospace" font-weight="bold" font-size="10.00" fill="#000000">nan</text>
</g>
<!-- STATE_I,3,1&#45;&gt;SYMBOL_C -->
<g id="edge26" class="edge">
<title>STATE_I,3,1&#45;&gt;SYMBOL_C</title>
<path fill="none" stroke="#000000" stroke-dasharray="5,2" d="M564.7983,-298.2841C583.8513,-306.4043 610.7075,-317.8501 632.1605,-326.9932"/>
<polygon fill="#000000" stroke="#000000" points="631.0179,-330.3108 641.5896,-331.0118 633.7625,-323.8713 631.0179,-330.3108"/>
<text text-anchor="middle" x="604.02" y="-322" font-family="Courier,monospace" font-weight="bold" font-size="10.00" fill="#000000">1.0</text>
</g>
<!-- STATE_M,1,1 -->
<g id="node11" class="node">
<title>STATE_M,1,1</title>
<polygon fill="none" stroke="#000000" points="290.3789,-.0493 292.4439,-.1479 294.4875,-.2953 296.5014,-.4913 298.4775,-.7353 300.4078,-1.0266 302.2847,-1.3645 304.1009,-1.7479 305.8494,-2.1759 307.5239,-2.6472 309.1183,-3.1606 310.6269,-3.7147 312.0449,-4.308 313.3677,-4.9388 314.5914,-5.6054 315.7126,-6.3059 316.7285,-7.0385 317.637,-7.8012 318.4365,-8.5918 319.126,-9.4082 319.7049,-10.2481 320.1735,-11.1093 320.5324,-11.9894 320.7827,-12.886 320.9261,-13.7965 320.9646,-14.7186 320.9009,-15.6497 320.7379,-16.5873 320.4788,-17.5287 320.1272,-18.4713 319.6869,-19.4127 319.1621,-20.3503 318.557,-21.2814 317.8759,-22.2035 317.1235,-23.114 316.3043,-24.0106 315.4229,-24.8907 314.4837,-25.7519 313.4914,-26.5918 312.4503,-27.4082 311.3648,-28.1988 310.239,-28.9615 309.0768,-29.6941 307.8821,-30.3946 306.6584,-31.0612 305.4092,-31.692 304.1374,-32.2853 302.846,-32.8394 301.5377,-33.3528 300.2149,-33.8241 298.8796,-34.2521 297.534,-34.6355 296.1797,-34.9734 294.8184,-35.2647 293.4513,-35.5087 292.0798,-35.7047 290.705,-35.8521 289.3279,-35.9507 287.9494,-36 286.5705,-36 285.1921,-35.9507 283.815,-35.8521 282.4402,-35.7047 281.0687,-35.5087 279.7016,-35.2647 278.3403,-34.9734 276.986,-34.6355 275.6404,-34.2521 274.3051,-33.8241 272.9823,-33.3528 271.6739,-32.8394 270.3826,-32.2853 269.1108,-31.692 267.8615,-31.0612 266.6379,-30.3946 265.4432,-29.6941 264.281,-28.9615 263.1552,-28.1988 262.0697,-27.4082 261.0286,-26.5918 260.0363,-25.7519 259.0971,-24.8907 258.2157,-24.0106 257.3965,-23.114 256.644,-22.2035 255.963,-21.2814 255.3579,-20.3503 254.8331,-19.4127 254.3928,-18.4713 254.0412,-17.5287 253.7821,-16.5873 253.619,-15.6497 253.5554,-14.7186 253.5939,-13.7965 253.7373,-12.886 253.9876,-11.9894 254.3465,-11.1093 254.8151,-10.2481 255.394,-9.4082 256.0835,-8.5918 256.883,-7.8012 257.7915,-7.0385 258.8074,-6.3059 259.9286,-5.6054 261.1523,-4.9388 262.4751,-4.308 263.893,-3.7147 265.4017,-3.1606 266.9961,-2.6472 268.6706,-2.1759 270.4191,-1.7479 272.2353,-1.3645 274.1122,-1.0266 276.0425,-.7353 278.0186,-.4913 280.0325,-.2953 282.0761,-.1479 284.1411,-.0493 286.2189,0 288.3011,0 290.3789,-.0493"/>
<text text-anchor="middle" x="287.26" y="-15.5" font-family="Courier,monospace" font-weight="bold" font-size="10.00" fill="#000000">M,1,1</text>
</g>
<!-- STATE_M,1,1&#45;&gt;STATE_I,2,1 -->
<g id="edge15" class="edge">
<title>STATE_M,1,1&#45;&gt;STATE_I,2,1</title>
<path fill="none" stroke="#000000" d="M305.9772,-31.8337C323.2581,-45.6366 348.2763,-68.4275 362.112,-94 378.0133,-123.3903 362.0897,-138.8604 380.112,-167 381.2067,-168.7092 382.447,-170.3582 383.7901,-171.9407"/>
<polygon fill="#000000" stroke="#000000" points="381.6034,-174.7022 391.1631,-179.2698 386.5384,-169.7376 381.6034,-174.7022"/>
<text text-anchor="middle" x="350.612" y="-97" font-family="Courier,monospace" font-weight="bold" font-size="10.00" fill="#000000">nan</text>
</g>
<!-- STATE_M,1,1&#45;&gt;SYMBOL_A -->
<g id="edge27" class="edge">
<title>STATE_M,1,1&#45;&gt;SYMBOL_A</title>
<path fill="none" stroke="#000000" stroke-dasharray="5,2" d="M316.4607,-23.9783C330.469,-27.2075 347.3707,-31.637 362.112,-37 368.3368,-39.2646 374.8142,-42.0325 380.9961,-44.8911"/>
<polygon fill="#000000" stroke="#000000" points="379.8585,-48.2274 390.3884,-49.3988 382.8873,-41.9165 379.8585,-48.2274"/>
<text text-anchor="middle" x="350.612" y="-40" font-family="Courier,monospace" font-weight="bold" font-size="10.00" fill="#000000">1.0</text>
</g>
<!-- STATE_M,2,1&#45;&gt;STATE_I,3,1 -->
<g id="edge16" class="edge">
<title>STATE_M,2,1&#45;&gt;STATE_I,3,1</title>
<path fill="none" stroke="#000000" d="M433.7375,-153.1035C438.791,-157.1237 443.8972,-161.858 447.816,-167 460.1261,-183.1526 454.658,-192.0311 465.816,-209 479.5542,-229.8929 499.0926,-250.2971 514.7626,-265.1341"/>
<polygon fill="#000000" stroke="#000000" points="512.3921,-267.7092 522.102,-271.9483 517.1549,-262.5793 512.3921,-267.7092"/>
<text text-anchor="middle" x="477.316" y="-240" font-family="Courier,monospace" font-weight="bold" font-size="10.00" fill="#000000">nan</text>
</g>
<!-- STATE_M,2,1&#45;&gt;SYMBOL_B -->
<g id="edge28" class="edge">
<title>STATE_M,2,1&#45;&gt;SYMBOL_B</title>
<path fill="none" stroke="#000000" stroke-dasharray="5,2" d="M438.0943,-150.2841C457.1473,-158.4043 484.0035,-169.8501 505.4565,-178.9932"/>
<polygon fill="#000000" stroke="#000000" points="504.3139,-182.3108 514.8856,-183.0118 507.0585,-175.8713 504.3139,-182.3108"/>
<text text-anchor="middle" x="477.316" y="-174" font-family="Courier,monospace" font-weight="bold" font-size="10.00" fill="#000000">1.0</text>
</g>
<!-- STATE_M,3,1&#45;&gt;STATE_T,3,1 -->
<g id="edge17" class="edge">
<title>STATE_M,3,1&#45;&gt;STATE_T,3,1</title>
<path fill="none" stroke="#000000" d="M558.5446,-355.8991C564.2761,-361.0766 570.2401,-367.3294 574.52,-374 587.954,-394.9378 574.5678,-409.7784 592.52,-427 600.9871,-435.1225 612.2946,-440.2671 623.5508,-443.519"/>
<polygon fill="#000000" stroke="#000000" points="622.8115,-446.9413 633.3566,-445.9168 624.4742,-440.1416 622.8115,-446.9413"/>
<text text-anchor="middle" x="604.02" y="-443" font-family="Courier,monospace" font-weight="bold" font-size="10.00" fill="#000000">nan</text>
</g>
<!-- STATE_M,3,1&#45;&gt;SYMBOL_C -->
<g id="edge29" class="edge">
<title>STATE_M,3,1&#45;&gt;SYMBOL_C</title>
<path fill="none" stroke="#000000" stroke-dasharray="5,2" d="M573.958,-342C590.5949,-342 610.8327,-342 628.212,-342"/>
<polygon fill="#000000" stroke="#000000" points="628.6061,-345.5001 638.606,-342 628.606,-338.5001 628.6061,-345.5001"/>
<text text-anchor="middle" x="604.02" y="-345" font-family="Courier,monospace" font-weight="bold" font-size="10.00" fill="#000000">1.0</text>
</g>
<!-- STATE_S,0,0 -->
<g id="node14" class="node">
<title>STATE_S,0,0</title>
<polygon fill="none" stroke="#000000" points="36.9709,-114.0493 39.0359,-114.1479 41.0795,-114.2953 43.0934,-114.4913 45.0695,-114.7353 46.9998,-115.0266 48.8767,-115.3645 50.6929,-115.7479 52.4414,-116.1759 54.1159,-116.6472 55.7103,-117.1606 57.219,-117.7147 58.6369,-118.308 59.9597,-118.9388 61.1834,-119.6054 62.3046,-120.3059 63.3205,-121.0385 64.229,-121.8012 65.0285,-122.5918 65.718,-123.4082 66.2969,-124.2481 66.7655,-125.1093 67.1244,-125.9894 67.3747,-126.886 67.5181,-127.7965 67.5566,-128.7186 67.4929,-129.6497 67.3299,-130.5873 67.0708,-131.5287 66.7192,-132.4713 66.2789,-133.4127 65.7541,-134.3503 65.149,-135.2814 64.4679,-136.2035 63.7155,-137.114 62.8963,-138.0106 62.0149,-138.8907 61.0757,-139.7519 60.0834,-140.5918 59.0423,-141.4082 57.9568,-142.1988 56.831,-142.9615 55.6688,-143.6941 54.4741,-144.3946 53.2505,-145.0612 52.0012,-145.692 50.7294,-146.2853 49.438,-146.8394 48.1297,-147.3528 46.8069,-147.8241 45.4716,-148.2521 44.126,-148.6355 42.7717,-148.9734 41.4104,-149.2647 40.0433,-149.5087 38.6718,-149.7047 37.297,-149.8521 35.9199,-149.9507 34.5415,-150 33.1625,-150 31.7841,-149.9507 30.407,-149.8521 29.0322,-149.7047 27.6607,-149.5087 26.2936,-149.2647 24.9323,-148.9734 23.578,-148.6355 22.2324,-148.2521 20.8971,-147.8241 19.5743,-147.3528 18.2659,-146.8394 16.9746,-146.2853 15.7028,-145.692 14.4535,-145.0612 13.2299,-144.3946 12.0352,-143.6941 10.873,-142.9615 9.7472,-142.1988 8.6617,-141.4082 7.6206,-140.5918 6.6283,-139.7519 5.6891,-138.8907 4.8077,-138.0106 3.9885,-137.114 3.2361,-136.2035 2.555,-135.2814 1.9499,-134.3503 1.4251,-133.4127 .9848,-132.4713 .6332,-131.5287 .3741,-130.5873 .2111,-129.6497 .1474,-128.7186 .1859,-127.7965 .3293,-126.886 .5796,-125.9894 .9385,-125.1093 1.4071,-124.2481 1.986,-123.4082 2.6755,-122.5918 3.475,-121.8012 4.3835,-121.0385 5.3994,-120.3059 6.5206,-119.6054 7.7443,-118.9388 9.0671,-118.308 10.485,-117.7147 11.9937,-117.1606 13.5881,-116.6472 15.2626,-116.1759 17.0111,-115.7479 18.8273,-115.3645 20.7042,-115.0266 22.6345,-114.7353 24.6106,-114.4913 26.6245,-114.2953 28.6681,-114.1479 30.7331,-114.0493 32.8109,-114 34.8931,-114 36.9709,-114.0493"/>
<text text-anchor="middle" x="33.852" y="-129.5" font-family="Courier,monospace" font-weight="bold" font-size="10.00" fill="#000000">S,0,0</text>
</g>
<!-- STATE_S,0,0&#45;&gt;STATE_D,0,1 -->
<g id="edge18" class="edge">
<title>STATE_S,0,0&#45;&gt;STATE_D,0,1</title>
<path fill="none" stroke="#000000" d="M67.142,-132C82.419,-132 100.7323,-132 117.0806,-132"/>
<polygon fill="#000000" stroke="#000000" points="117.4884,-135.5001 127.4883,-132 117.4883,-128.5001 117.4884,-135.5001"/>
<text text-anchor="middle" x="97.204" y="-135" font-family="Courier,monospace" font-weight="bold" font-size="10.00" fill="#000000">nan</text>
</g>
<!-- STATE_S,0,0&#45;&gt;STATE_I,1,0 -->
<g id="edge19" class="edge">
<title>STATE_S,0,0&#45;&gt;STATE_I,1,0</title>
<path fill="none" stroke="#000000" d="M57.3871,-142.5877C75.9647,-150.9451 102.2243,-162.7585 123.6009,-172.3751"/>
<polygon fill="#000000" stroke="#000000" points="122.1738,-175.5709 132.7295,-176.4817 125.0457,-169.1872 122.1738,-175.5709"/>
<text text-anchor="middle" x="97.204" y="-168" font-family="Courier,monospace" font-weight="bold" font-size="10.00" fill="#000000">nan</text>
</g>
<!-- STATE_S,0,0&#45;&gt;STATE_M,1,1 -->
<g id="edge20" class="edge">
<title>STATE_S,0,0&#45;&gt;STATE_M,1,1</title>
<path fill="none" stroke="#000000" d="M61.4535,-119.583C108.4525,-98.4397 203.818,-55.5378 254.2607,-32.8453"/>
<polygon fill="#000000" stroke="#000000" points="255.7452,-36.0154 263.4289,-28.7208 252.8733,-29.6316 255.7452,-36.0154"/>
<text text-anchor="middle" x="160.556" y="-93" font-family="Courier,monospace" font-weight="bold" font-size="10.00" fill="#000000">nan</text>
</g>
<!-- SYMBOL_? -->
<g id="node19" class="node">
<title>SYMBOL_?</title>
<polygon fill="none" stroke="#000000" stroke-dasharray="5,2" points="791.65,-431.0493 793.426,-431.1479 795.1837,-431.2953 796.9159,-431.4913 798.6155,-431.7353 800.2757,-432.0266 801.89,-432.3645 803.4521,-432.7479 804.956,-433.1759 806.3962,-433.6472 807.7675,-434.1606 809.0651,-434.7147 810.2847,-435.308 811.4224,-435.9388 812.4748,-436.6054 813.4391,-437.3059 814.313,-438.0385 815.0944,-438.8012 815.782,-439.5918 816.375,-440.4082 816.8729,-441.2481 817.276,-442.1093 817.5846,-442.9894 817.7999,-443.886 817.9232,-444.7965 817.9564,-445.7186 817.9016,-446.6497 817.7614,-447.5873 817.5385,-448.5287 817.2361,-449.4713 816.8574,-450.4127 816.406,-451.3503 815.8856,-452.2814 815.2999,-453.2035 814.6527,-454.114 813.9481,-455.0106 813.19,-455.8907 812.3822,-456.7519 811.5288,-457.5918 810.6333,-458.4082 809.6997,-459.1988 808.7314,-459.9615 807.7318,-460.6941 806.7043,-461.3946 805.6518,-462.0612 804.5773,-462.692 803.4835,-463.2853 802.3728,-463.8394 801.2475,-464.3528 800.1098,-464.8241 798.9613,-465.2521 797.804,-465.6355 796.6392,-465.9734 795.4683,-466.2647 794.2925,-466.5087 793.1129,-466.7047 791.9305,-466.8521 790.746,-466.9507 789.5604,-467 788.3744,-467 787.1889,-466.9507 786.0044,-466.8521 784.822,-466.7047 783.6424,-466.5087 782.4666,-466.2647 781.2957,-465.9734 780.1309,-465.6355 778.9735,-465.2521 777.8251,-464.8241 776.6873,-464.3528 775.5621,-463.8394 774.4514,-463.2853 773.3575,-462.692 772.2831,-462.0612 771.2306,-461.3946 770.2031,-460.6941 769.2035,-459.9615 768.2352,-459.1988 767.3015,-458.4082 766.4061,-457.5918 765.5526,-456.7519 764.7449,-455.8907 763.9868,-455.0106 763.2822,-454.114 762.635,-453.2035 762.0493,-452.2814 761.5288,-451.3503 761.0774,-450.4127 760.6988,-449.4713 760.3964,-448.5287 760.1735,-447.5873 760.0333,-446.6497 759.9785,-445.7186 760.0117,-444.7965 760.135,-443.886 760.3503,-442.9894 760.6589,-442.1093 761.0619,-441.2481 761.5599,-440.4082 762.1529,-439.5918 762.8405,-438.8012 763.6219,-438.0385 764.4957,-437.3059 765.4601,-436.6054 766.5125,-435.9388 767.6502,-435.308 768.8698,-434.7147 770.1674,-434.1606 771.5387,-433.6472 772.9789,-433.1759 774.4828,-432.7479 776.0449,-432.3645 777.6592,-432.0266 779.3194,-431.7353 781.019,-431.4913 782.7511,-431.2953 784.5088,-431.1479 786.2849,-431.0493 788.072,-431 789.8628,-431 791.65,-431.0493"/>
<text text-anchor="middle" x="788.9674" y="-446.5" font-family="Courier,monospace" font-weight="bold" font-size="10.00" fill="#000000">?</text>
</g>
<!-- STATE_T,3,1&#45;&gt;SYMBOL_? -->
<g id="edge30" class="edge">
<title>STATE_T,3,1&#45;&gt;SYMBOL_?</title>
<path fill="none" stroke="#000000" stroke-dasharray="5,2" d="M700.5985,-449C715.9418,-449 734.2574,-449 750.2251,-449"/>
<polygon fill="#000000" stroke="#000000" points="750.3243,-452.5001 760.3242,-449 750.3242,-445.5001 750.3243,-452.5001"/>
<text text-anchor="middle" x="730.724" y="-452" font-family="Courier,monospace" font-weight="bold" font-size="10.00" fill="#000000">1.0</text>
</g>
</g>
</svg>
