<?xml version="1.0" encoding="UTF-8" standalone="no"?>
<!DOCTYPE svg PUBLIC "-//W3C//DTD SVG 1.1//EN"
 "http://www.w3.org/Graphics/SVG/1.1/DTD/svg11.dtd">
<!-- Generated by graphviz version 2.40.1 (0)
 -->
<!-- Title: G Pages: 1 -->
<svg width="2168pt" height="153pt"
 viewBox="0.00 0.00 2168.16 153.44" xmlns="http://www.w3.org/2000/svg" xmlns:xlink="http://www.w3.org/1999/xlink">
<g id="graph0" class="graph" transform="scale(1 1) rotate(0) translate(4 149.441)">
<title>G</title>
<polygon fill="#ffffff" stroke="transparent" points="-4,4 -4,-149.441 2164.163,-149.441 2164.163,4 -4,4"/>
<!-- (&#45;1, &#39;SINK&#39;) -->
<g id="node1" class="node">
<title>(&#45;1, &#39;SINK&#39;)</title>
<polygon fill="none" stroke="#000000" points="2046.0223,-48.836 2053.7119,-48.9534 2061.3221,-49.1291 2068.8216,-49.3625 2076.1801,-49.6532 2083.3682,-50.0002 2090.3574,-50.4027 2097.1206,-50.8595 2103.632,-51.3693 2109.8675,-51.9308 2115.8046,-52.5425 2121.4227,-53.2026 2126.703,-53.9093 2131.6288,-54.6607 2136.1855,-55.4548 2140.3606,-56.2894 2144.1439,-57.1622 2147.527,-58.0707 2150.5042,-59.0126 2153.0716,-59.9851 2155.2276,-60.9857 2156.9726,-62.0117 2158.3089,-63.0601 2159.241,-64.1282 2159.7749,-65.2129 2159.9185,-66.3114 2159.6814,-67.4206 2159.0742,-68.5375 2158.1093,-69.659 2156.7999,-70.782 2155.1605,-71.9035 2153.2061,-73.0203 2150.9527,-74.1295 2148.4168,-75.228 2145.6149,-76.3128 2142.5643,-77.3808 2139.2818,-78.4293 2135.7846,-79.4552 2132.0894,-80.4558 2128.2126,-81.4284 2124.1703,-82.3702 2119.9779,-83.2788 2115.6502,-84.1515 2111.2014,-84.9861 2106.6446,-85.7802 2101.9926,-86.5317 2097.2567,-87.2384 2092.4479,-87.8985 2087.5759,-88.5101 2082.6498,-89.0716 2077.6776,-89.5815 2072.6667,-90.0383 2067.6236,-90.4407 2062.5541,-90.7877 2057.4634,-91.0784 2052.3563,-91.3119 2047.2367,-91.4876 2042.1086,-91.605 2036.9754,-91.6637 2031.8406,-91.6637 2026.7075,-91.605 2021.5793,-91.4876 2016.4598,-91.3119 2011.3526,-91.0784 2006.2619,-90.7877 2001.1925,-90.4407 1996.1493,-90.0383 1991.1384,-89.5815 1986.1663,-89.0716 1981.2401,-88.5101 1976.3681,-87.8985 1971.5593,-87.2384 1966.8235,-86.5317 1962.1714,-85.7802 1957.6147,-84.9861 1953.1658,-84.1515 1948.8381,-83.2788 1944.6457,-82.3702 1940.6034,-81.4284 1936.7266,-80.4558 1933.0314,-79.4552 1929.5342,-78.4293 1926.2518,-77.3808 1923.2011,-76.3128 1920.3993,-75.228 1917.8633,-74.1295 1915.6099,-73.0203 1913.6556,-71.9035 1912.0161,-70.782 1910.7068,-69.659 1909.7418,-68.5375 1909.1347,-67.4206 1908.8975,-66.3114 1909.0412,-65.2129 1909.5751,-64.1282 1910.5071,-63.0601 1911.8435,-62.0117 1913.5884,-60.9857 1915.7444,-59.9851 1918.3118,-59.0126 1921.289,-58.0707 1924.6722,-57.1622 1928.4554,-56.2894 1932.6305,-55.4548 1937.1872,-54.6607 1942.1131,-53.9093 1947.3934,-53.2026 1953.0114,-52.5425 1958.9485,-51.9308 1965.184,-51.3693 1971.6955,-50.8595 1978.4586,-50.4027 1985.4478,-50.0002 1992.6359,-49.6532 1999.9945,-49.3625 2007.494,-49.1291 2015.1041,-48.9534 2022.7937,-48.836 2030.5312,-48.7772 2038.2848,-48.7772 2046.0223,-48.836"/>
<text text-anchor="middle" x="2034.408" y="-73.2205" font-family="Courier,monospace" font-weight="bold" font-size="10.00" fill="#000000">(&#45;1, &#39;SINK&#39;)</text>
<text text-anchor="middle" x="2034.408" y="-62.2205" font-family="Courier,monospace" font-weight="bold" font-size="10.00" fill="#000000">0.004553724543009471</text>
</g>
<!-- (&#45;1, &#39;SOURCE&#39;) -->
<g id="node2" class="node">
<title>(&#45;1, &#39;SOURCE&#39;)</title>
<polygon fill="none" stroke="#000000" points="100.3581,-71.836 105.9786,-71.9534 111.5409,-72.1291 117.0225,-72.3625 122.401,-72.6532 127.6549,-73.0002 132.7634,-73.4027 137.7068,-73.8595 142.4661,-74.3693 147.0237,-74.9308 151.3633,-75.5425 155.4696,-76.2026 159.3291,-76.9093 162.9295,-77.6607 166.2601,-78.4548 169.3118,-79.2894 172.077,-80.1622 174.5498,-81.0707 176.7259,-82.0126 178.6025,-82.9851 180.1783,-83.9857 181.4537,-85.0117 182.4305,-86.0601 183.1117,-87.1282 183.502,-88.2129 183.607,-89.3114 183.4336,-90.4206 182.9899,-91.5375 182.2846,-92.659 181.3275,-93.782 180.1292,-94.9035 178.7008,-96.0203 177.0537,-97.1295 175.2001,-98.228 173.1522,-99.3128 170.9224,-100.3808 168.5232,-101.4293 165.9671,-102.4552 163.2662,-103.4558 160.4325,-104.4284 157.4779,-105.3702 154.4136,-106.2788 151.2504,-107.1515 147.9987,-107.9861 144.6681,-108.7802 141.2678,-109.5317 137.8063,-110.2384 134.2914,-110.8985 130.7304,-111.5101 127.1298,-112.0716 123.4955,-112.5815 119.8329,-113.0383 116.1468,-113.4407 112.4415,-113.7877 108.7206,-114.0784 104.9877,-114.3119 101.2457,-114.4876 97.4974,-114.605 93.7455,-114.6637 89.9924,-114.6637 86.2405,-114.605 82.4922,-114.4876 78.7502,-114.3119 75.0173,-114.0784 71.2964,-113.7877 67.591,-113.4407 63.9049,-113.0383 60.2424,-112.5815 56.6081,-112.0716 53.0075,-111.5101 49.4465,-110.8985 45.9316,-110.2384 42.4701,-109.5317 39.0698,-108.7802 35.7392,-107.9861 32.4874,-107.1515 29.3243,-106.2788 26.2599,-105.3702 23.3053,-104.4284 20.4717,-103.4558 17.7708,-102.4552 15.2146,-101.4293 12.8154,-100.3808 10.5857,-99.3128 8.5378,-98.228 6.6842,-97.1295 5.0371,-96.0203 3.6087,-94.9035 2.4103,-93.782 1.4533,-92.659 .748,-91.5375 .3042,-90.4206 .1309,-89.3114 .2359,-88.2129 .6261,-87.1282 1.3074,-86.0601 2.2842,-85.0117 3.5596,-83.9857 5.1354,-82.9851 7.012,-82.0126 9.1881,-81.0707 11.6609,-80.1622 14.4261,-79.2894 17.4778,-78.4548 20.8084,-77.6607 24.4088,-76.9093 28.2682,-76.2026 32.3746,-75.5425 36.7141,-74.9308 41.2718,-74.3693 46.0311,-73.8595 50.9745,-73.4027 56.083,-73.0002 61.3369,-72.6532 66.7154,-72.3625 72.1969,-72.1291 77.7593,-71.9534 83.3798,-71.836 89.0353,-71.7772 94.7025,-71.7772 100.3581,-71.836"/>
<text text-anchor="middle" x="91.8689" y="-96.2205" font-family="Courier,monospace" font-weight="bold" font-size="10.00" fill="#000000">(&#45;1, &#39;SOURCE&#39;)</text>
<text text-anchor="middle" x="91.8689" y="-85.2205" font-family="Courier,monospace" font-weight="bold" font-size="10.00" fill="#000000">1.0</text>
</g>
<!-- (0, &#39;A&#39;) -->
<g id="node3" class="node">
<title>(0, &#39;A&#39;)</title>
<polygon fill="none" stroke="#000000" points="626.0312,-102.836 633.3809,-102.9534 640.6546,-103.1291 647.8226,-103.3625 654.8559,-103.6532 661.7262,-104.0002 668.4064,-104.4027 674.8706,-104.8595 681.0942,-105.3693 687.054,-105.9308 692.7287,-106.5425 698.0984,-107.2026 703.1453,-107.9093 707.8533,-108.6607 712.2086,-109.4548 716.1992,-110.2894 719.8151,-111.1622 723.0488,-112.0707 725.8943,-113.0126 728.3482,-113.9851 730.4089,-114.9857 732.0767,-116.0117 733.354,-117.0601 734.2448,-118.1282 734.7552,-119.2129 734.8925,-120.3114 734.6658,-121.4206 734.0855,-122.5375 733.1632,-123.659 731.9117,-124.782 730.3447,-125.9035 728.4768,-127.0203 726.323,-128.1295 723.8991,-129.228 721.2212,-130.3128 718.3054,-131.3808 715.1681,-132.4293 711.8254,-133.4552 708.2936,-134.4558 704.5882,-135.4284 700.7246,-136.3702 696.7175,-137.2788 692.5811,-138.1515 688.3289,-138.9861 683.9736,-139.7802 679.5272,-140.5317 675.0007,-141.2384 670.4045,-141.8985 665.7479,-142.5101 661.0395,-143.0716 656.2871,-143.5815 651.4977,-144.0383 646.6776,-144.4407 641.8322,-144.7877 636.9666,-145.0784 632.0852,-145.3119 627.1919,-145.4876 622.2905,-145.605 617.3843,-145.6637 612.4765,-145.6637 607.5702,-145.605 602.6688,-145.4876 597.7756,-145.3119 592.8941,-145.0784 588.0285,-144.7877 583.1832,-144.4407 578.363,-144.0383 573.5736,-143.5815 568.8212,-143.0716 564.1129,-142.5101 559.4563,-141.8985 554.86,-141.2384 550.3335,-140.5317 545.8871,-139.7802 541.5318,-138.9861 537.2796,-138.1515 533.1432,-137.2788 529.1362,-136.3702 525.2726,-135.4284 521.5672,-134.4558 518.0353,-133.4552 514.6927,-132.4293 511.5554,-131.3808 508.6396,-130.3128 505.9616,-129.228 503.5377,-128.1295 501.384,-127.0203 499.516,-125.9035 497.949,-124.782 496.6975,-123.659 495.7753,-122.5375 495.195,-121.4206 494.9683,-120.3114 495.1056,-119.2129 495.6159,-118.1282 496.5068,-117.0601 497.784,-116.0117 499.4518,-114.9857 501.5125,-113.9851 503.9664,-113.0126 506.812,-112.0707 510.0456,-111.1622 513.6616,-110.2894 517.6521,-109.4548 522.0074,-108.6607 526.7155,-107.9093 531.7623,-107.2026 537.1321,-106.5425 542.8067,-105.9308 548.7665,-105.3693 554.9901,-104.8595 561.4543,-104.4027 568.1346,-104.0002 575.0049,-103.6532 582.0381,-103.3625 589.2061,-103.1291 596.4798,-102.9534 603.8295,-102.836 611.225,-102.7772 618.6358,-102.7772 626.0312,-102.836"/>
<text text-anchor="middle" x="614.9304" y="-127.2205" font-family="Courier,monospace" font-weight="bold" font-size="10.00" fill="#000000">(0, &#39;A&#39;)</text>
<text text-anchor="middle" x="614.9304" y="-116.2205" font-family="Courier,monospace" font-weight="bold" font-size="10.00" fill="#000000">0.29796061181645506</text>
</g>
<!-- (&#45;1, &#39;SOURCE&#39;)&#45;&gt;(0, &#39;A&#39;) -->
<g id="edge1" class="edge">
<title>(&#45;1, &#39;SOURCE&#39;)&#45;&gt;(0, &#39;A&#39;)</title>
<path fill="none" stroke="#000000" d="M175.328,-98.1668C259.0378,-103.128 389.0995,-110.8363 486.0658,-116.5831"/>
<polygon fill="#000000" stroke="#000000" points="486.043,-120.0878 496.2326,-117.1857 486.4572,-113.1001 486.043,-120.0878"/>
</g>
<!-- (0, &#39;B&#39;) -->
<g id="node4" class="node">
<title>(0, &#39;B&#39;)</title>
<polygon fill="none" stroke="#000000" points="350.5696,-47.836 357.9193,-47.9534 365.193,-48.1291 372.361,-48.3625 379.3942,-48.6532 386.2645,-49.0002 392.9447,-49.4027 399.409,-49.8595 405.6325,-50.3693 411.5924,-50.9308 417.267,-51.5425 422.6367,-52.2026 427.6836,-52.9093 432.3917,-53.6607 436.747,-54.4548 440.7375,-55.2894 444.3535,-56.1622 447.5871,-57.0707 450.4327,-58.0126 452.8866,-58.9851 454.9472,-59.9857 456.6151,-61.0117 457.8923,-62.0601 458.7832,-63.1282 459.2935,-64.2129 459.4308,-65.3114 459.2041,-66.4206 458.6238,-67.5375 457.7015,-68.659 456.45,-69.782 454.8831,-70.9035 453.0151,-72.0203 450.8614,-73.1295 448.4375,-74.228 445.7595,-75.3128 442.8437,-76.3808 439.7064,-77.4293 436.3638,-78.4552 432.8319,-79.4558 429.1265,-80.4284 425.2629,-81.3702 421.2558,-82.2788 417.1195,-83.1515 412.8673,-83.9861 408.512,-84.7802 404.0656,-85.5317 399.5391,-86.2384 394.9428,-86.8985 390.2862,-87.5101 385.5779,-88.0716 380.8255,-88.5815 376.0361,-89.0383 371.2159,-89.4407 366.3705,-89.7877 361.5049,-90.0784 356.6235,-90.3119 351.7303,-90.4876 346.8288,-90.605 341.9226,-90.6637 337.0148,-90.6637 332.1086,-90.605 327.2071,-90.4876 322.3139,-90.3119 317.4325,-90.0784 312.5669,-89.7877 307.7215,-89.4407 302.9013,-89.0383 298.1119,-88.5815 293.3596,-88.0716 288.6512,-87.5101 283.9946,-86.8985 279.3983,-86.2384 274.8719,-85.5317 270.4254,-84.7802 266.0701,-83.9861 261.818,-83.1515 257.6816,-82.2788 253.6745,-81.3702 249.8109,-80.4284 246.1055,-79.4558 242.5736,-78.4552 239.231,-77.4293 236.0937,-76.3808 233.1779,-75.3128 230.4999,-74.228 228.0761,-73.1295 225.9223,-72.0203 224.0543,-70.9035 222.4874,-69.782 221.2359,-68.659 220.3136,-67.5375 219.7333,-66.4206 219.5066,-65.3114 219.6439,-64.2129 220.1542,-63.1282 221.0451,-62.0601 222.3224,-61.0117 223.9902,-59.9857 226.0508,-58.9851 228.5047,-58.0126 231.3503,-57.0707 234.5839,-56.1622 238.1999,-55.2894 242.1905,-54.4548 246.5457,-53.6607 251.2538,-52.9093 256.3007,-52.2026 261.6704,-51.5425 267.345,-50.9308 273.3049,-50.3693 279.5285,-49.8595 285.9927,-49.4027 292.6729,-49.0002 299.5432,-48.6532 306.5765,-48.3625 313.7444,-48.1291 321.0181,-47.9534 328.3678,-47.836 335.7633,-47.7772 343.1741,-47.7772 350.5696,-47.836"/>
<text text-anchor="middle" x="339.4687" y="-72.2205" font-family="Courier,monospace" font-weight="bold" font-size="10.00" fill="#000000">(0, &#39;B&#39;)</text>
<text text-anchor="middle" x="339.4687" y="-61.2205" font-family="Courier,monospace" font-weight="bold" font-size="10.00" fill="#000000">0.28596421073677897</text>
</g>
<!-- (&#45;1, &#39;SOURCE&#39;)&#45;&gt;(0, &#39;B&#39;) -->
<g id="edge2" class="edge">
<title>(&#45;1, &#39;SOURCE&#39;)&#45;&gt;(0, &#39;B&#39;)</title>
<path fill="none" stroke="#000000" d="M181.2581,-84.5559C197.9324,-82.9397 215.5114,-81.2357 232.6479,-79.5747"/>
<polygon fill="#000000" stroke="#000000" points="233.0607,-83.0512 242.6764,-78.6026 232.3853,-76.0838 233.0607,-83.0512"/>
</g>
<!-- (1, &#39;B&#39;) -->
<g id="node6" class="node">
<title>(1, &#39;B&#39;)</title>
<polygon fill="none" stroke="#000000" points="895.7088,-72.836 902.7189,-72.9534 909.6566,-73.1291 916.4933,-73.3625 923.2016,-73.6532 929.7545,-74.0002 936.1261,-74.4027 942.2916,-74.8595 948.2276,-75.3693 953.9121,-75.9308 959.3246,-76.5425 964.4462,-77.2026 969.2598,-77.9093 973.7504,-78.6607 977.9044,-79.4548 981.7106,-80.2894 985.1595,-81.1622 988.2437,-82.0707 990.9578,-83.0126 993.2983,-83.9851 995.2638,-84.9857 996.8545,-86.0117 998.0728,-87.0601 998.9225,-88.1282 999.4092,-89.2129 999.5402,-90.3114 999.324,-91.4206 998.7705,-92.5375 997.8908,-93.659 996.6972,-94.782 995.2026,-95.9035 993.4209,-97.0203 991.3667,-98.1295 989.0548,-99.228 986.5006,-100.3128 983.7195,-101.3808 980.7271,-102.4293 977.539,-103.4552 974.1703,-104.4558 970.6361,-105.4284 966.951,-106.3702 963.1291,-107.2788 959.1838,-108.1515 955.1281,-108.9861 950.974,-109.7802 946.733,-110.5317 942.4157,-111.2384 938.0318,-111.8985 933.5904,-112.5101 929.0996,-113.0716 924.5668,-113.5815 919.9987,-114.0383 915.4012,-114.4407 910.7797,-114.7877 906.1389,-115.0784 901.483,-115.3119 896.8159,-115.4876 892.1409,-115.605 887.4614,-115.6637 882.7803,-115.6637 878.1008,-115.605 873.4258,-115.4876 868.7587,-115.3119 864.1028,-115.0784 859.462,-114.7877 854.8405,-114.4407 850.2431,-114.0383 845.6749,-113.5815 841.1422,-113.0716 836.6513,-112.5101 832.2099,-111.8985 827.826,-111.2384 823.5087,-110.5317 819.2677,-109.7802 815.1136,-108.9861 811.0579,-108.1515 807.1127,-107.2788 803.2907,-106.3702 799.6056,-105.4284 796.0714,-104.4558 792.7028,-103.4552 789.5146,-102.4293 786.5222,-101.3808 783.7411,-100.3128 781.1869,-99.228 778.875,-98.1295 776.8208,-97.0203 775.0391,-95.9035 773.5446,-94.782 772.3509,-93.659 771.4712,-92.5375 770.9178,-91.4206 770.7015,-90.3114 770.8325,-89.2129 771.3192,-88.1282 772.1689,-87.0601 773.3872,-86.0117 774.9779,-84.9857 776.9434,-83.9851 779.2839,-83.0126 781.998,-82.0707 785.0822,-81.1622 788.5311,-80.2894 792.3373,-79.4548 796.4913,-78.6607 800.9819,-77.9093 805.7956,-77.2026 810.9172,-76.5425 816.3296,-75.9308 822.0141,-75.3693 827.9501,-74.8595 834.1156,-74.4027 840.4872,-74.0002 847.0401,-73.6532 853.7484,-73.3625 860.5852,-73.1291 867.5228,-72.9534 874.5329,-72.836 881.5867,-72.7772 888.655,-72.7772 895.7088,-72.836"/>
<text text-anchor="middle" x="885.1209" y="-97.2205" font-family="Courier,monospace" font-weight="bold" font-size="10.00" fill="#000000">(1, &#39;B&#39;)</text>
<text text-anchor="middle" x="885.1209" y="-86.2205" font-family="Courier,monospace" font-weight="bold" font-size="10.00" fill="#000000">0.2204782560617482</text>
</g>
<!-- (0, &#39;A&#39;)&#45;&gt;(1, &#39;B&#39;) -->
<g id="edge3" class="edge">
<title>(0, &#39;A&#39;)&#45;&gt;(1, &#39;B&#39;)</title>
<path fill="none" stroke="#000000" d="M723.6593,-112.148C743.8558,-109.9055 764.8704,-107.5722 784.8013,-105.3592"/>
<polygon fill="#000000" stroke="#000000" points="785.2487,-108.8312 794.8014,-104.2489 784.4762,-101.8739 785.2487,-108.8312"/>
</g>
<!-- (0, &#39;C&#39;) -->
<g id="node5" class="node">
<title>(0, &#39;C&#39;)</title>
<polygon fill="none" stroke="#000000" points="626.0312,-42.836 633.3809,-42.9534 640.6546,-43.1291 647.8226,-43.3625 654.8559,-43.6532 661.7262,-44.0002 668.4064,-44.4027 674.8706,-44.8595 681.0942,-45.3693 687.054,-45.9308 692.7287,-46.5425 698.0984,-47.2026 703.1453,-47.9093 707.8533,-48.6607 712.2086,-49.4548 716.1992,-50.2894 719.8151,-51.1622 723.0488,-52.0707 725.8943,-53.0126 728.3482,-53.9851 730.4089,-54.9857 732.0767,-56.0117 733.354,-57.0601 734.2448,-58.1282 734.7552,-59.2129 734.8925,-60.3114 734.6658,-61.4206 734.0855,-62.5375 733.1632,-63.659 731.9117,-64.782 730.3447,-65.9035 728.4768,-67.0203 726.323,-68.1295 723.8991,-69.228 721.2212,-70.3128 718.3054,-71.3808 715.1681,-72.4293 711.8254,-73.4552 708.2936,-74.4558 704.5882,-75.4284 700.7246,-76.3702 696.7175,-77.2788 692.5811,-78.1515 688.3289,-78.9861 683.9736,-79.7802 679.5272,-80.5317 675.0007,-81.2384 670.4045,-81.8985 665.7479,-82.5101 661.0395,-83.0716 656.2871,-83.5815 651.4977,-84.0383 646.6776,-84.4407 641.8322,-84.7877 636.9666,-85.0784 632.0852,-85.3119 627.1919,-85.4876 622.2905,-85.605 617.3843,-85.6637 612.4765,-85.6637 607.5702,-85.605 602.6688,-85.4876 597.7756,-85.3119 592.8941,-85.0784 588.0285,-84.7877 583.1832,-84.4407 578.363,-84.0383 573.5736,-83.5815 568.8212,-83.0716 564.1129,-82.5101 559.4563,-81.8985 554.86,-81.2384 550.3335,-80.5317 545.8871,-79.7802 541.5318,-78.9861 537.2796,-78.1515 533.1432,-77.2788 529.1362,-76.3702 525.2726,-75.4284 521.5672,-74.4558 518.0353,-73.4552 514.6927,-72.4293 511.5554,-71.3808 508.6396,-70.3128 505.9616,-69.228 503.5377,-68.1295 501.384,-67.0203 499.516,-65.9035 497.949,-64.782 496.6975,-63.659 495.7753,-62.5375 495.195,-61.4206 494.9683,-60.3114 495.1056,-59.2129 495.6159,-58.1282 496.5068,-57.0601 497.784,-56.0117 499.4518,-54.9857 501.5125,-53.9851 503.9664,-53.0126 506.812,-52.0707 510.0456,-51.1622 513.6616,-50.2894 517.6521,-49.4548 522.0074,-48.6607 526.7155,-47.9093 531.7623,-47.2026 537.1321,-46.5425 542.8067,-45.9308 548.7665,-45.3693 554.9901,-44.8595 561.4543,-44.4027 568.1346,-44.0002 575.0049,-43.6532 582.0381,-43.3625 589.2061,-43.1291 596.4798,-42.9534 603.8295,-42.836 611.225,-42.7772 618.6358,-42.7772 626.0312,-42.836"/>
<text text-anchor="middle" x="614.9304" y="-67.2205" font-family="Courier,monospace" font-weight="bold" font-size="10.00" fill="#000000">(0, &#39;C&#39;)</text>
<text text-anchor="middle" x="614.9304" y="-56.2205" font-family="Courier,monospace" font-weight="bold" font-size="10.00" fill="#000000">0.19987760420524112</text>
</g>
<!-- (0, &#39;B&#39;)&#45;&gt;(0, &#39;C&#39;) -->
<g id="edge4" class="edge">
<title>(0, &#39;B&#39;)&#45;&gt;(0, &#39;C&#39;)</title>
<path fill="none" stroke="#000000" d="M459.0884,-67.0492C469.2157,-66.8654 479.4759,-66.6792 489.6449,-66.4946"/>
<polygon fill="#000000" stroke="#000000" points="489.8404,-69.9917 499.7752,-66.3107 489.7133,-62.9929 489.8404,-69.9917"/>
</g>
<!-- (0, &#39;C&#39;)&#45;&gt;(1, &#39;B&#39;) -->
<g id="edge5" class="edge">
<title>(0, &#39;C&#39;)&#45;&gt;(1, &#39;B&#39;)</title>
<path fill="none" stroke="#000000" d="M708.2929,-74.5868C728.2177,-76.7991 749.4855,-79.1605 770.114,-81.4509"/>
<polygon fill="#000000" stroke="#000000" points="769.8556,-84.9437 780.1808,-82.5687 770.6281,-77.9864 769.8556,-84.9437"/>
</g>
<!-- (2, &#39;A&#39;) -->
<g id="node7" class="node">
<title>(2, &#39;A&#39;)</title>
<polygon fill="none" stroke="#000000" points="1172.9498,-72.836 1180.6395,-72.9534 1188.2496,-73.1291 1195.7491,-73.3625 1203.1076,-73.6532 1210.2957,-74.0002 1217.2849,-74.4027 1224.0481,-74.8595 1230.5595,-75.3693 1236.795,-75.9308 1242.7321,-76.5425 1248.3502,-77.2026 1253.6305,-77.9093 1258.5563,-78.6607 1263.113,-79.4548 1267.2882,-80.2894 1271.0714,-81.1622 1274.4546,-82.0707 1277.4318,-83.0126 1279.9992,-83.9851 1282.1551,-84.9857 1283.9001,-86.0117 1285.2364,-87.0601 1286.1685,-88.1282 1286.7024,-89.2129 1286.8461,-90.3114 1286.6089,-91.4206 1286.0017,-92.5375 1285.0368,-93.659 1283.7274,-94.782 1282.088,-95.9035 1280.1336,-97.0203 1277.8803,-98.1295 1275.3443,-99.228 1272.5425,-100.3128 1269.4918,-101.3808 1266.2094,-102.4293 1262.7121,-103.4552 1259.0169,-104.4558 1255.1402,-105.4284 1251.0978,-106.3702 1246.9054,-107.2788 1242.5778,-108.1515 1238.1289,-108.9861 1233.5722,-109.7802 1228.9201,-110.5317 1224.1842,-111.2384 1219.3754,-111.8985 1214.5034,-112.5101 1209.5773,-113.0716 1204.6051,-113.5815 1199.5942,-114.0383 1194.5511,-114.4407 1189.4816,-114.7877 1184.391,-115.0784 1179.2838,-115.3119 1174.1642,-115.4876 1169.0361,-115.605 1163.9029,-115.6637 1158.7681,-115.6637 1153.635,-115.605 1148.5069,-115.4876 1143.3873,-115.3119 1138.2801,-115.0784 1133.1895,-114.7877 1128.12,-114.4407 1123.0769,-114.0383 1118.066,-113.5815 1113.0938,-113.0716 1108.1676,-112.5101 1103.2957,-111.8985 1098.4868,-111.2384 1093.751,-110.5317 1089.0989,-109.7802 1084.5422,-108.9861 1080.0933,-108.1515 1075.7657,-107.2788 1071.5732,-106.3702 1067.5309,-105.4284 1063.6542,-104.4558 1059.9589,-103.4552 1056.4617,-102.4293 1053.1793,-101.3808 1050.1286,-100.3128 1047.3268,-99.228 1044.7908,-98.1295 1042.5375,-97.0203 1040.5831,-95.9035 1038.9437,-94.782 1037.6343,-93.659 1036.6694,-92.5375 1036.0622,-91.4206 1035.825,-90.3114 1035.9687,-89.2129 1036.5026,-88.1282 1037.4347,-87.0601 1038.771,-86.0117 1040.516,-84.9857 1042.6719,-83.9851 1045.2393,-83.0126 1048.2165,-82.0707 1051.5997,-81.1622 1055.3829,-80.2894 1059.558,-79.4548 1064.1148,-78.6607 1069.0406,-77.9093 1074.3209,-77.2026 1079.9389,-76.5425 1085.8761,-75.9308 1092.1116,-75.3693 1098.623,-74.8595 1105.3862,-74.4027 1112.3754,-74.0002 1119.5634,-73.6532 1126.922,-73.3625 1134.4215,-73.1291 1142.0316,-72.9534 1149.7212,-72.836 1157.4588,-72.7772 1165.2123,-72.7772 1172.9498,-72.836"/>
<text text-anchor="middle" x="1161.3355" y="-97.2205" font-family="Courier,monospace" font-weight="bold" font-size="10.00" fill="#000000">(2, &#39;A&#39;)</text>
<text text-anchor="middle" x="1161.3355" y="-86.2205" font-family="Courier,monospace" font-weight="bold" font-size="10.00" fill="#000000">0.015135078814022143</text>
</g>
<!-- (1, &#39;B&#39;)&#45;&gt;(2, &#39;A&#39;) -->
<g id="edge6" class="edge">
<title>(1, &#39;B&#39;)&#45;&gt;(2, &#39;A&#39;)</title>
<path fill="none" stroke="#000000" d="M997.4679,-94.2205C1007.5496,-94.2205 1017.8212,-94.2205 1028.0574,-94.2205"/>
<polygon fill="#000000" stroke="#000000" points="1028.2734,-97.7206 1038.2734,-94.2205 1028.2733,-90.7206 1028.2734,-97.7206"/>
</g>
<!-- (3, &#39;A&#39;) -->
<g id="node8" class="node">
<title>(3, &#39;A&#39;)</title>
<polygon fill="none" stroke="#000000" points="1753.7539,-97.836 1761.7831,-97.9534 1769.7292,-98.1291 1777.5599,-98.3625 1785.2433,-98.6532 1792.7488,-99.0002 1800.0466,-99.4027 1807.1084,-99.8595 1813.9074,-100.3693 1820.4182,-100.9308 1826.6174,-101.5425 1832.4836,-102.2026 1837.997,-102.9093 1843.1403,-103.6607 1847.8983,-104.4548 1852.2577,-105.2894 1856.208,-106.1622 1859.7406,-107.0707 1862.8492,-108.0126 1865.53,-108.9851 1867.7811,-109.9857 1869.6031,-111.0117 1870.9985,-112.0601 1871.9717,-113.1282 1872.5292,-114.2129 1872.6792,-115.3114 1872.4315,-116.4206 1871.7976,-117.5375 1870.79,-118.659 1869.4229,-119.782 1867.711,-120.9035 1865.6704,-122.0203 1863.3175,-123.1295 1860.6695,-124.228 1857.744,-125.3128 1854.5587,-126.3808 1851.1313,-127.4293 1847.4797,-128.4552 1843.6213,-129.4558 1839.5733,-130.4284 1835.3525,-131.3702 1830.975,-132.2788 1826.4562,-133.1515 1821.8109,-133.9861 1817.053,-134.7802 1812.1955,-135.5317 1807.2506,-136.2384 1802.2294,-136.8985 1797.1423,-137.5101 1791.9987,-138.0716 1786.8069,-138.5815 1781.5748,-139.0383 1776.309,-139.4407 1771.0157,-139.7877 1765.7002,-140.0784 1760.3675,-140.3119 1755.0219,-140.4876 1749.6674,-140.605 1744.3076,-140.6637 1738.946,-140.6637 1733.5862,-140.605 1728.2317,-140.4876 1722.8861,-140.3119 1717.5534,-140.0784 1712.2379,-139.7877 1706.9446,-139.4407 1701.6788,-139.0383 1696.4467,-138.5815 1691.2549,-138.0716 1686.1113,-137.5101 1681.0242,-136.8985 1676.003,-136.2384 1671.0581,-135.5317 1666.2006,-134.7802 1661.4427,-133.9861 1656.7974,-133.1515 1652.2786,-132.2788 1647.9011,-131.3702 1643.6803,-130.4284 1639.6323,-129.4558 1635.774,-128.4552 1632.1223,-127.4293 1628.695,-126.3808 1625.5096,-125.3128 1622.5841,-124.228 1619.9361,-123.1295 1617.5832,-122.0203 1615.5426,-120.9035 1613.8308,-119.782 1612.4636,-118.659 1611.456,-117.5375 1610.8221,-116.4206 1610.5744,-115.3114 1610.7244,-114.2129 1611.2819,-113.1282 1612.2551,-112.0601 1613.6505,-111.0117 1615.4725,-109.9857 1617.7236,-108.9851 1620.4044,-108.0126 1623.5131,-107.0707 1627.0456,-106.1622 1630.9959,-105.2894 1635.3554,-104.4548 1640.1133,-103.6607 1645.2566,-102.9093 1650.77,-102.2026 1656.6362,-101.5425 1662.8354,-100.9308 1669.3463,-100.3693 1676.1452,-99.8595 1683.207,-99.4027 1690.5048,-99.0002 1698.0103,-98.6532 1705.6937,-98.3625 1713.5244,-98.1291 1721.4705,-97.9534 1729.4997,-97.836 1737.5789,-97.7772 1745.6748,-97.7772 1753.7539,-97.836"/>
<text text-anchor="middle" x="1741.6268" y="-122.2205" font-family="Courier,monospace" font-weight="bold" font-size="10.00" fill="#000000">(3, &#39;A&#39;)</text>
<text text-anchor="middle" x="1741.6268" y="-111.2205" font-family="Courier,monospace" font-weight="bold" font-size="10.00" fill="#000000">0.0013012159720981163</text>
</g>
<!-- (2, &#39;A&#39;)&#45;&gt;(3, &#39;A&#39;) -->
<g id="edge7" class="edge">
<title>(2, &#39;A&#39;)&#45;&gt;(3, &#39;A&#39;)</title>
<path fill="none" stroke="#000000" d="M1275.6361,-99.1447C1368.8494,-103.1605 1500.9401,-108.8513 1600.6976,-113.149"/>
<polygon fill="#000000" stroke="#000000" points="1600.717,-116.653 1610.8584,-113.5867 1601.0183,-109.6595 1600.717,-116.653"/>
</g>
<!-- (3, &#39;B&#39;) -->
<g id="node9" class="node">
<title>(3, &#39;B&#39;)</title>
<polygon fill="none" stroke="#000000" points="1460.4599,-48.836 1468.1495,-48.9534 1475.7596,-49.1291 1483.2592,-49.3625 1490.6177,-49.6532 1497.8058,-50.0002 1504.795,-50.4027 1511.5582,-50.8595 1518.0696,-51.3693 1524.3051,-51.9308 1530.2422,-52.5425 1535.8603,-53.2026 1541.1405,-53.9093 1546.0664,-54.6607 1550.6231,-55.4548 1554.7982,-56.2894 1558.5814,-57.1622 1561.9646,-58.0707 1564.9418,-59.0126 1567.5092,-59.9851 1569.6652,-60.9857 1571.4101,-62.0117 1572.7465,-63.0601 1573.6785,-64.1282 1574.2125,-65.2129 1574.3561,-66.3114 1574.1189,-67.4206 1573.5118,-68.5375 1572.5468,-69.659 1571.2375,-70.782 1569.598,-71.9035 1567.6437,-73.0203 1565.3903,-74.1295 1562.8543,-75.228 1560.0525,-76.3128 1557.0018,-77.3808 1553.7194,-78.4293 1550.2222,-79.4552 1546.527,-80.4558 1542.6502,-81.4284 1538.6079,-82.3702 1534.4155,-83.2788 1530.0878,-84.1515 1525.6389,-84.9861 1521.0822,-85.7802 1516.4301,-86.5317 1511.6943,-87.2384 1506.8855,-87.8985 1502.0135,-88.5101 1497.0874,-89.0716 1492.1152,-89.5815 1487.1043,-90.0383 1482.0612,-90.4407 1476.9917,-90.7877 1471.901,-91.0784 1466.7938,-91.3119 1461.6743,-91.4876 1456.5461,-91.605 1451.413,-91.6637 1446.2782,-91.6637 1441.145,-91.605 1436.0169,-91.4876 1430.8973,-91.3119 1425.7902,-91.0784 1420.6995,-90.7877 1415.63,-90.4407 1410.5869,-90.0383 1405.576,-89.5815 1400.6038,-89.0716 1395.6777,-88.5101 1390.8057,-87.8985 1385.9969,-87.2384 1381.2611,-86.5317 1376.609,-85.7802 1372.0522,-84.9861 1367.6034,-84.1515 1363.2757,-83.2788 1359.0833,-82.3702 1355.041,-81.4284 1351.1642,-80.4558 1347.469,-79.4552 1343.9718,-78.4293 1340.6893,-77.3808 1337.6387,-76.3128 1334.8369,-75.228 1332.3009,-74.1295 1330.0475,-73.0203 1328.0932,-71.9035 1326.4537,-70.782 1325.1443,-69.659 1324.1794,-68.5375 1323.5723,-67.4206 1323.3351,-66.3114 1323.4787,-65.2129 1324.0127,-64.1282 1324.9447,-63.0601 1326.2811,-62.0117 1328.026,-60.9857 1330.182,-59.9851 1332.7494,-59.0126 1335.7266,-58.0707 1339.1097,-57.1622 1342.893,-56.2894 1347.0681,-55.4548 1351.6248,-54.6607 1356.5506,-53.9093 1361.8309,-53.2026 1367.449,-52.5425 1373.3861,-51.9308 1379.6216,-51.3693 1386.133,-50.8595 1392.8962,-50.4027 1399.8854,-50.0002 1407.0735,-49.6532 1414.432,-49.3625 1421.9315,-49.1291 1429.5417,-48.9534 1437.2313,-48.836 1444.9688,-48.7772 1452.7224,-48.7772 1460.4599,-48.836"/>
<text text-anchor="middle" x="1448.8456" y="-73.2205" font-family="Courier,monospace" font-weight="bold" font-size="10.00" fill="#000000">(3, &#39;B&#39;)</text>
<text text-anchor="middle" x="1448.8456" y="-62.2205" font-family="Courier,monospace" font-weight="bold" font-size="10.00" fill="#000000">0.001914411270891271</text>
</g>
<!-- (2, &#39;A&#39;)&#45;&gt;(3, &#39;B&#39;) -->
<g id="edge8" class="edge">
<title>(2, &#39;A&#39;)&#45;&gt;(3, &#39;B&#39;)</title>
<path fill="none" stroke="#000000" d="M1280.7679,-84.2508C1298.6949,-82.7544 1317.1417,-81.2145 1334.9489,-79.728"/>
<polygon fill="#000000" stroke="#000000" points="1335.6768,-83.1795 1345.351,-78.8597 1335.0944,-76.2038 1335.6768,-83.1795"/>
</g>
<!-- (3, &#39;A&#39;)&#45;&gt;(&#45;1, &#39;SINK&#39;) -->
<g id="edge9" class="edge">
<title>(3, &#39;A&#39;)&#45;&gt;(&#45;1, &#39;SINK&#39;)</title>
<path fill="none" stroke="#000000" d="M1838.712,-102.9722C1871.8994,-97.418 1908.9146,-91.2231 1941.7442,-85.7287"/>
<polygon fill="#000000" stroke="#000000" points="1942.5044,-89.1503 1951.7894,-84.0476 1941.3488,-82.2463 1942.5044,-89.1503"/>
</g>
<!-- (3, &#39;B&#39;)&#45;&gt;(&#45;1, &#39;SINK&#39;) -->
<g id="edge10" class="edge">
<title>(3, &#39;B&#39;)&#45;&gt;(&#45;1, &#39;SINK&#39;)</title>
<path fill="none" stroke="#000000" d="M1571.9556,-70.2205C1668.3581,-70.2205 1802.235,-70.2205 1901.1471,-70.2205"/>
<polygon fill="#000000" stroke="#000000" points="1901.2114,-73.7206 1911.2114,-70.2205 1901.2113,-66.7206 1901.2114,-73.7206"/>
</g>
<!-- (3, &#39;C&#39;) -->
<g id="node10" class="node">
<title>(3, &#39;C&#39;)</title>
<polygon fill="none" stroke="#000000" points="1753.7539,.164 1761.7831,.0466 1769.7292,-.1291 1777.5599,-.3625 1785.2433,-.6532 1792.7488,-1.0002 1800.0466,-1.4027 1807.1084,-1.8595 1813.9074,-2.3693 1820.4182,-2.9308 1826.6174,-3.5425 1832.4836,-4.2026 1837.997,-4.9093 1843.1403,-5.6607 1847.8983,-6.4548 1852.2577,-7.2894 1856.208,-8.1622 1859.7406,-9.0707 1862.8492,-10.0126 1865.53,-10.9851 1867.7811,-11.9857 1869.6031,-13.0117 1870.9985,-14.0601 1871.9717,-15.1282 1872.5292,-16.2129 1872.6792,-17.3114 1872.4315,-18.4206 1871.7976,-19.5375 1870.79,-20.659 1869.4229,-21.782 1867.711,-22.9035 1865.6704,-24.0203 1863.3175,-25.1295 1860.6695,-26.228 1857.744,-27.3128 1854.5587,-28.3808 1851.1313,-29.4293 1847.4797,-30.4552 1843.6213,-31.4558 1839.5733,-32.4284 1835.3525,-33.3702 1830.975,-34.2788 1826.4562,-35.1515 1821.8109,-35.9861 1817.053,-36.7802 1812.1955,-37.5317 1807.2506,-38.2384 1802.2294,-38.8985 1797.1423,-39.5101 1791.9987,-40.0716 1786.8069,-40.5815 1781.5748,-41.0383 1776.309,-41.4407 1771.0157,-41.7877 1765.7002,-42.0784 1760.3675,-42.3119 1755.0219,-42.4876 1749.6674,-42.605 1744.3076,-42.6637 1738.946,-42.6637 1733.5862,-42.605 1728.2317,-42.4876 1722.8861,-42.3119 1717.5534,-42.0784 1712.2379,-41.7877 1706.9446,-41.4407 1701.6788,-41.0383 1696.4467,-40.5815 1691.2549,-40.0716 1686.1113,-39.5101 1681.0242,-38.8985 1676.003,-38.2384 1671.0581,-37.5317 1666.2006,-36.7802 1661.4427,-35.9861 1656.7974,-35.1515 1652.2786,-34.2788 1647.9011,-33.3702 1643.6803,-32.4284 1639.6323,-31.4558 1635.774,-30.4552 1632.1223,-29.4293 1628.695,-28.3808 1625.5096,-27.3128 1622.5841,-26.228 1619.9361,-25.1295 1617.5832,-24.0203 1615.5426,-22.9035 1613.8308,-21.782 1612.4636,-20.659 1611.456,-19.5375 1610.8221,-18.4206 1610.5744,-17.3114 1610.7244,-16.2129 1611.2819,-15.1282 1612.2551,-14.0601 1613.6505,-13.0117 1615.4725,-11.9857 1617.7236,-10.9851 1620.4044,-10.0126 1623.5131,-9.0707 1627.0456,-8.1622 1630.9959,-7.2894 1635.3554,-6.4548 1640.1133,-5.6607 1645.2566,-4.9093 1650.77,-4.2026 1656.6362,-3.5425 1662.8354,-2.9308 1669.3463,-2.3693 1676.1452,-1.8595 1683.207,-1.4027 1690.5048,-1.0002 1698.0103,-.6532 1705.6937,-.3625 1713.5244,-.1291 1721.4705,.0466 1729.4997,.164 1737.5789,.2228 1745.6748,.2228 1753.7539,.164"/>
<text text-anchor="middle" x="1741.6268" y="-24.2205" font-family="Courier,monospace" font-weight="bold" font-size="10.00" fill="#000000">(3, &#39;C&#39;)</text>
<text text-anchor="middle" x="1741.6268" y="-13.2205" font-family="Courier,monospace" font-weight="bold" font-size="10.00" fill="#000000">0.0013380973000200835</text>
</g>
<!-- (3, &#39;B&#39;)&#45;&gt;(3, &#39;C&#39;) -->
<g id="edge11" class="edge">
<title>(3, &#39;B&#39;)&#45;&gt;(3, &#39;C&#39;)</title>
<path fill="none" stroke="#000000" d="M1543.9033,-54.3116C1577.0422,-48.7654 1614.1996,-42.5468 1647.2805,-37.0103"/>
<polygon fill="#000000" stroke="#000000" points="1648.1221,-40.4182 1657.4072,-35.3155 1646.9666,-33.5142 1648.1221,-40.4182"/>
</g>
<!-- (3, &#39;C&#39;)&#45;&gt;(&#45;1, &#39;SINK&#39;) -->
<g id="edge12" class="edge">
<title>(3, &#39;C&#39;)&#45;&gt;(&#45;1, &#39;SINK&#39;)</title>
<path fill="none" stroke="#000000" d="M1825.9185,-35.3276C1858.207,-40.7314 1895.4431,-46.9632 1929.4332,-52.6518"/>
<polygon fill="#000000" stroke="#000000" points="1928.9556,-56.1205 1939.3962,-54.3192 1930.1111,-49.2165 1928.9556,-56.1205"/>
</g>
</g>
</svg>
