<?xml version="1.0" encoding="UTF-8" standalone="no"?>
<!DOCTYPE svg PUBLIC "-//W3C//DTD SVG 1.1//EN"
 "http://www.w3.org/Graphics/SVG/1.1/DTD/svg11.dtd">
<!-- Generated by graphviz version 2.40.1 (0)
 -->
<!-- Title: G Pages: 1 -->
<svg width="437pt" height="350pt"
 viewBox="0.00 0.00 437.00 350.00" xmlns="http://www.w3.org/2000/svg" xmlns:xlink="http://www.w3.org/1999/xlink">
<g id="graph0" class="graph" transform="scale(1 1) rotate(0) translate(4 346)">
<title>G</title>
<polygon fill="#ffffff" stroke="transparent" points="-4,4 -4,-346 433,-346 433,4 -4,4"/>
<g id="clust1" class="cluster">
<title>cluster_2</title>
<polygon fill="none" stroke="#000000" points="0,-8 0,-167 429,-167 429,-8 0,-8"/>
<text text-anchor="middle" x="214.5" y="-155" font-family="Courier,monospace" font-weight="bold" font-size="10.00" fill="#000000">count(v1) + count(v2) + &#45;(leaf_count &#45; 2) * path(v1,v2)</text>
</g>
<g id="clust2" class="cluster">
<title>cluster_1</title>
<polygon fill="none" stroke="#000000" points="42,-175 42,-334 387,-334 387,-175 42,-175"/>
<text text-anchor="middle" x="214.5" y="-322" font-family="Courier,monospace" font-weight="bold" font-size="10.00" fill="#000000">count(v1) + count(v2)</text>
</g>
<!-- v0_x -->
<g id="node1" class="node">
<title>v0_x</title>
<ellipse fill="none" stroke="#000000" cx="64.5" cy="-125" rx="14.5" ry="14.5"/>
<text text-anchor="middle" x="64.5" y="-122.5" font-family="Courier,monospace" font-weight="bold" font-size="10.00" fill="#000000">v0</text>
</g>
<!-- i0_x -->
<g id="node2" class="node">
<title>i0_x</title>
<ellipse fill="none" stroke="#000000" cx="139.5" cy="-81" rx="14.5" ry="14.5"/>
<text text-anchor="middle" x="139.5" y="-78.5" font-family="Courier,monospace" font-weight="bold" font-size="10.00" fill="#000000">i0</text>
</g>
<!-- v0_x&#45;&#45;i0_x -->
<g id="edge1" class="edge">
<title>v0_x&#45;&#45;i0_x</title>
<path fill="none" stroke="#ffa500" stroke-width="2.5" d="M76.2107,-115.811C90.0859,-107.6709 112.1525,-94.7251 125.9531,-86.6287"/>
<path fill="none" stroke="transparent" stroke-width="2.5" d="M77.2227,-117.536C91.0979,-109.3959 113.1645,-96.4502 126.9652,-88.3538"/>
<path fill="none" stroke="#a020f0" stroke-width="2.5" d="M78.2348,-119.261C92.1099,-111.121 114.1765,-98.1752 127.9772,-90.0788"/>
<text text-anchor="middle" x="102" y="-108" font-family="Courier,monospace" font-weight="bold" font-size="10.00" fill="#000000"> </text>
</g>
<!-- i1_x -->
<g id="node5" class="node">
<title>i1_x</title>
<ellipse fill="none" stroke="#000000" cx="214.5" cy="-81" rx="14.5" ry="14.5"/>
<text text-anchor="middle" x="214.5" y="-78.5" font-family="Courier,monospace" font-weight="bold" font-size="10.00" fill="#000000">i1</text>
</g>
<!-- i0_x&#45;&#45;i1_x -->
<g id="edge4" class="edge">
<title>i0_x&#45;&#45;i1_x</title>
<path fill="none" stroke="#a020f0" stroke-width="2.5" d="M154.3176,-71C167.5515,-71 186.8224,-71 199.9684,-71"/>
<path fill="none" stroke="transparent" stroke-width="2.5" d="M154.3176,-73C167.5515,-73 186.8224,-73 199.9684,-73"/>
<path fill="none" stroke="#a020f0" stroke-width="2.5" d="M154.3176,-75C167.5515,-75 186.8224,-75 199.9684,-75"/>
<path fill="none" stroke="transparent" stroke-width="2.5" d="M154.3176,-77C167.5515,-77 186.8224,-77 199.9684,-77"/>
<path fill="none" stroke="#a020f0" stroke-width="2.5" d="M154.3176,-79C167.5515,-79 186.8224,-79 199.9684,-79"/>
<path fill="none" stroke="transparent" stroke-width="2.5" d="M154.3176,-81C167.5515,-81 186.8224,-81 199.9684,-81"/>
<path fill="none" stroke="#ffa500" stroke-width="2.5" d="M154.3176,-83C167.5515,-83 186.8224,-83 199.9684,-83"/>
<path fill="none" stroke="transparent" stroke-width="2.5" d="M154.3176,-85C167.5515,-85 186.8224,-85 199.9684,-85"/>
<path fill="none" stroke="#ffa500" stroke-width="2.5" d="M154.3176,-87C167.5515,-87 186.8224,-87 199.9684,-87"/>
<path fill="none" stroke="transparent" stroke-width="2.5" d="M154.3176,-89C167.5515,-89 186.8224,-89 199.9684,-89"/>
<path fill="none" stroke="#ffa500" stroke-width="2.5" d="M154.3176,-91C167.5515,-91 186.8224,-91 199.9684,-91"/>
<text text-anchor="middle" x="177" y="-84" font-family="Courier,monospace" font-weight="bold" font-size="10.00" fill="#000000"> </text>
</g>
<!-- v1_x -->
<g id="node3" class="node">
<title>v1_x</title>
<ellipse fill="#a020f0" stroke="#000000" cx="64.5" cy="-78" rx="14.5" ry="14.5"/>
<text text-anchor="middle" x="64.5" y="-75.5" font-family="Courier,monospace" font-weight="bold" font-size="10.00" fill="#000000">v1</text>
</g>
<!-- v1_x&#45;&#45;i0_x -->
<g id="edge2" class="edge">
<title>v1_x&#45;&#45;i0_x</title>
<path fill="none" stroke="#a020f0" stroke-width="2.5" d="M79.3975,-76.5943C92.6314,-77.1237 111.9023,-77.8945 125.0483,-78.4203"/>
<path fill="none" stroke="transparent" stroke-width="2.5" d="M79.3176,-78.5927C92.5515,-79.1221 111.8224,-79.8929 124.9684,-80.4187"/>
<path fill="none" stroke="#ffa500" stroke-width="2.5" d="M79.2377,-80.5911C92.4716,-81.1205 111.7424,-81.8913 124.8885,-82.4171"/>
<text text-anchor="middle" x="102" y="-82" font-family="Courier,monospace" font-weight="bold" font-size="10.00" fill="#000000"> </text>
</g>
<!-- v2_x -->
<g id="node4" class="node">
<title>v2_x</title>
<ellipse fill="#ffa500" stroke="#000000" cx="64.5" cy="-31" rx="14.5" ry="14.5"/>
<text text-anchor="middle" x="64.5" y="-28.5" font-family="Courier,monospace" font-weight="bold" font-size="10.00" fill="#000000">v2</text>
</g>
<!-- v2_x&#45;&#45;i0_x -->
<g id="edge3" class="edge">
<title>v2_x&#45;&#45;i0_x</title>
<path fill="none" stroke="#ffa500" stroke-width="2.5" d="M77.9941,-37.5924C91.9736,-46.9121 114.5712,-61.9771 128.4551,-71.2331"/>
<path fill="none" stroke="transparent" stroke-width="2.5" d="M76.8847,-39.2565C90.8642,-48.5762 113.4618,-63.6412 127.3457,-72.8972"/>
<path fill="none" stroke="#a020f0" stroke-width="2.5" d="M75.7753,-40.9206C89.7548,-50.2403 112.3524,-65.3053 126.2363,-74.5613"/>
<text text-anchor="middle" x="102" y="-61" font-family="Courier,monospace" font-weight="bold" font-size="10.00" fill="#000000"> </text>
</g>
<!-- i2_x -->
<g id="node6" class="node">
<title>i2_x</title>
<ellipse fill="none" stroke="#000000" cx="289.5" cy="-67" rx="14.5" ry="14.5"/>
<text text-anchor="middle" x="289.5" y="-64.5" font-family="Courier,monospace" font-weight="bold" font-size="10.00" fill="#000000">i2</text>
</g>
<!-- i1_x&#45;&#45;i2_x -->
<g id="edge5" class="edge">
<title>i1_x&#45;&#45;i2_x</title>
<path fill="none" stroke="#a020f0" stroke-width="2.5" d="M227.8598,-72.4025C241.1406,-69.9235 260.7159,-66.2694 273.9827,-63.7929"/>
<path fill="none" stroke="transparent" stroke-width="2.5" d="M228.2268,-74.3686C241.5076,-71.8895 261.0829,-68.2354 274.3497,-65.759"/>
<path fill="none" stroke="#a020f0" stroke-width="2.5" d="M228.5938,-76.3346C241.8746,-73.8555 261.4499,-70.2015 274.7166,-67.725"/>
<path fill="none" stroke="transparent" stroke-width="2.5" d="M228.9608,-78.3007C242.2416,-75.8216 261.8169,-72.1675 275.0836,-69.6911"/>
<path fill="none" stroke="#ffa500" stroke-width="2.5" d="M229.3277,-80.2667C242.6085,-77.7876 262.1839,-74.1336 275.4506,-71.6571"/>
<path fill="none" stroke="transparent" stroke-width="2.5" d="M229.6947,-82.2327C242.9755,-79.7537 262.5509,-76.0996 275.8176,-73.6231"/>
<path fill="none" stroke="#ffa500" stroke-width="2.5" d="M230.0617,-84.1988C243.3425,-81.7197 262.9179,-78.0656 276.1846,-75.5892"/>
<text text-anchor="middle" x="252" y="-77" font-family="Courier,monospace" font-weight="bold" font-size="10.00" fill="#000000"> </text>
</g>
<!-- v5_x -->
<g id="node9" class="node">
<title>v5_x</title>
<ellipse fill="none" stroke="#000000" cx="289.5" cy="-114" rx="14.5" ry="14.5"/>
<text text-anchor="middle" x="289.5" y="-111.5" font-family="Courier,monospace" font-weight="bold" font-size="10.00" fill="#000000">v5</text>
</g>
<!-- i1_x&#45;&#45;v5_x -->
<g id="edge8" class="edge">
<title>i1_x&#45;&#45;v5_x</title>
<path fill="none" stroke="#a020f0" stroke-width="2.5" d="M228.714,-85.0691C242.3654,-91.0757 263.4037,-100.3326 277.0131,-106.3207"/>
<path fill="none" stroke="transparent" stroke-width="2.5" d="M227.9085,-86.8997C241.5599,-92.9064 262.5982,-102.1632 276.2076,-108.1513"/>
<path fill="none" stroke="#ffa500" stroke-width="2.5" d="M227.103,-88.7304C240.7545,-94.737 261.7927,-103.9938 275.4021,-109.982"/>
<text text-anchor="middle" x="252" y="-102" font-family="Courier,monospace" font-weight="bold" font-size="10.00" fill="#000000"> </text>
</g>
<!-- v3_x -->
<g id="node7" class="node">
<title>v3_x</title>
<ellipse fill="none" stroke="#000000" cx="364.5" cy="-56" rx="14.5" ry="14.5"/>
<text text-anchor="middle" x="364.5" y="-53.5" font-family="Courier,monospace" font-weight="bold" font-size="10.00" fill="#000000">v3</text>
</g>
<!-- i2_x&#45;&#45;v3_x -->
<g id="edge6" class="edge">
<title>i2_x&#45;&#45;v3_x</title>
<path fill="none" stroke="#a020f0" stroke-width="2.5" d="M303.6705,-62.9003C316.9513,-60.9524 336.5267,-58.0814 349.7934,-56.1356"/>
<path fill="none" stroke="transparent" stroke-width="2.5" d="M303.9608,-64.8791C317.2416,-62.9312 336.8169,-60.0602 350.0836,-58.1144"/>
<path fill="none" stroke="#ffa500" stroke-width="2.5" d="M304.251,-66.8579C317.5318,-64.9101 337.1071,-62.039 350.3739,-60.0932"/>
<text text-anchor="middle" x="327" y="-65" font-family="Courier,monospace" font-weight="bold" font-size="10.00" fill="#000000"> </text>
</g>
<!-- v4_x -->
<g id="node8" class="node">
<title>v4_x</title>
<ellipse fill="none" stroke="#000000" cx="364.5" cy="-103" rx="14.5" ry="14.5"/>
<text text-anchor="middle" x="364.5" y="-100.5" font-family="Courier,monospace" font-weight="bold" font-size="10.00" fill="#000000">v4</text>
</g>
<!-- i2_x&#45;&#45;v4_x -->
<g id="edge7" class="edge">
<title>i2_x&#45;&#45;v4_x</title>
<path fill="none" stroke="#a020f0" stroke-width="2.5" d="M303.774,-71.633C317.4254,-78.1857 338.4637,-88.2841 352.073,-94.8166"/>
<path fill="none" stroke="transparent" stroke-width="2.5" d="M302.9085,-73.4361C316.5599,-79.9888 337.5982,-90.0871 351.2076,-96.6196"/>
<path fill="none" stroke="#ffa500" stroke-width="2.5" d="M302.043,-75.2391C315.6945,-81.7918 336.7327,-91.8902 350.3421,-98.4227"/>
<text text-anchor="middle" x="327" y="-89" font-family="Courier,monospace" font-weight="bold" font-size="10.00" fill="#000000"> </text>
</g>
<!-- v0_y -->
<g id="node10" class="node">
<title>v0_y</title>
<ellipse fill="none" stroke="#000000" cx="64.5" cy="-292" rx="14.5" ry="14.5"/>
<text text-anchor="middle" x="64.5" y="-289.5" font-family="Courier,monospace" font-weight="bold" font-size="10.00" fill="#000000">v0</text>
</g>
<!-- i0_y -->
<g id="node11" class="node">
<title>i0_y</title>
<ellipse fill="none" stroke="#000000" cx="139.5" cy="-248" rx="14.5" ry="14.5"/>
<text text-anchor="middle" x="139.5" y="-245.5" font-family="Courier,monospace" font-weight="bold" font-size="10.00" fill="#000000">i0</text>
</g>
<!-- v0_y&#45;&#45;i0_y -->
<g id="edge9" class="edge">
<title>v0_y&#45;&#45;i0_y:n</title>
<path fill="none" stroke="#ffa500" stroke-width="2.5" d="M79.3072,-290.5026C100.9754,-290.399 139.3005,-286.5574 137.5,-263"/>
<path fill="none" stroke="transparent" stroke-width="2.5" d="M79.3176,-292.5026C101.1749,-292.389 139.5,-288.5474 139.5,-263"/>
<path fill="none" stroke="#a020f0" stroke-width="2.5" d="M79.328,-294.5026C101.3744,-294.3791 139.6995,-290.5374 141.5,-263"/>
<text text-anchor="middle" x="102" y="-294" font-family="Courier,monospace" font-weight="bold" font-size="10.00" fill="#000000"> </text>
</g>
<!-- i1_y -->
<g id="node14" class="node">
<title>i1_y</title>
<ellipse fill="none" stroke="#000000" cx="214.5" cy="-248" rx="14.5" ry="14.5"/>
<text text-anchor="middle" x="214.5" y="-245.5" font-family="Courier,monospace" font-weight="bold" font-size="10.00" fill="#000000">i1</text>
</g>
<!-- i0_y&#45;&#45;i1_y -->
<g id="edge12" class="edge">
<title>i0_y&#45;&#45;i1_y</title>
<path fill="none" stroke="#a020f0" stroke-width="2.5" d="M154.3176,-238C167.5515,-238 186.8224,-238 199.9684,-238"/>
<path fill="none" stroke="transparent" stroke-width="2.5" d="M154.3176,-240C167.5515,-240 186.8224,-240 199.9684,-240"/>
<path fill="none" stroke="#a020f0" stroke-width="2.5" d="M154.3176,-242C167.5515,-242 186.8224,-242 199.9684,-242"/>
<path fill="none" stroke="transparent" stroke-width="2.5" d="M154.3176,-244C167.5515,-244 186.8224,-244 199.9684,-244"/>
<path fill="none" stroke="#a020f0" stroke-width="2.5" d="M154.3176,-246C167.5515,-246 186.8224,-246 199.9684,-246"/>
<path fill="none" stroke="transparent" stroke-width="2.5" d="M154.3176,-248C167.5515,-248 186.8224,-248 199.9684,-248"/>
<path fill="none" stroke="#ffa500" stroke-width="2.5" d="M154.3176,-250C167.5515,-250 186.8224,-250 199.9684,-250"/>
<path fill="none" stroke="transparent" stroke-width="2.5" d="M154.3176,-252C167.5515,-252 186.8224,-252 199.9684,-252"/>
<path fill="none" stroke="#ffa500" stroke-width="2.5" d="M154.3176,-254C167.5515,-254 186.8224,-254 199.9684,-254"/>
<path fill="none" stroke="transparent" stroke-width="2.5" d="M154.3176,-256C167.5515,-256 186.8224,-256 199.9684,-256"/>
<path fill="none" stroke="#ffa500" stroke-width="2.5" d="M154.3176,-258C167.5515,-258 186.8224,-258 199.9684,-258"/>
<text text-anchor="middle" x="177" y="-251" font-family="Courier,monospace" font-weight="bold" font-size="10.00" fill="#000000"> </text>
</g>
<!-- v1_y -->
<g id="node12" class="node">
<title>v1_y</title>
<ellipse fill="#a020f0" stroke="#000000" cx="64.5" cy="-245" rx="14.5" ry="14.5"/>
<text text-anchor="middle" x="64.5" y="-242.5" font-family="Courier,monospace" font-weight="bold" font-size="10.00" fill="#000000">v1</text>
</g>
<!-- v1_y&#45;&#45;i0_y -->
<g id="edge10" class="edge">
<title>v1_y&#45;&#45;i0_y</title>
<path fill="none" stroke="#a020f0" stroke-width="2.5" d="M79.7173,-235.6007C92.9512,-236.1301 112.2221,-236.9009 125.3681,-237.4267"/>
<path fill="none" stroke="transparent" stroke-width="2.5" d="M79.6373,-237.5991C92.8712,-238.1285 112.1421,-238.8993 125.2881,-239.4251"/>
<path fill="none" stroke="#a020f0" stroke-width="2.5" d="M79.5574,-239.5975C92.7913,-240.1269 112.0622,-240.8977 125.2082,-241.4235"/>
<path fill="none" stroke="transparent" stroke-width="2.5" d="M79.4775,-241.5959C92.7114,-242.1253 111.9823,-242.8961 125.1283,-243.4219"/>
<path fill="none" stroke="#a020f0" stroke-width="2.5" d="M79.3975,-243.5943C92.6314,-244.1237 111.9023,-244.8945 125.0483,-245.4203"/>
<path fill="none" stroke="transparent" stroke-width="2.5" d="M79.3176,-245.5927C92.5515,-246.1221 111.8224,-246.8929 124.9684,-247.4187"/>
<path fill="none" stroke="#a020f0" stroke-width="2.5" d="M79.2377,-247.5911C92.4716,-248.1205 111.7424,-248.8913 124.8885,-249.4171"/>
<path fill="none" stroke="transparent" stroke-width="2.5" d="M79.1577,-249.5895C92.3916,-250.1189 111.6625,-250.8897 124.8085,-251.4155"/>
<path fill="none" stroke="#a020f0" stroke-width="2.5" d="M79.0778,-251.5879C92.3117,-252.1173 111.5826,-252.8881 124.7286,-253.4139"/>
<path fill="none" stroke="transparent" stroke-width="2.5" d="M78.9978,-253.5863C92.2318,-254.1157 111.5026,-254.8865 124.6487,-255.4123"/>
<path fill="none" stroke="#ffa500" stroke-width="2.5" d="M78.9179,-255.5847C92.1518,-256.1141 111.4227,-256.8849 124.5687,-257.4107"/>
<text text-anchor="middle" x="102" y="-249" font-family="Courier,monospace" font-weight="bold" font-size="10.00" fill="#000000"> </text>
</g>
<!-- v2_y -->
<g id="node13" class="node">
<title>v2_y</title>
<ellipse fill="#ffa500" stroke="#000000" cx="64.5" cy="-198" rx="14.5" ry="14.5"/>
<text text-anchor="middle" x="64.5" y="-195.5" font-family="Courier,monospace" font-weight="bold" font-size="10.00" fill="#000000">v2</text>
</g>
<!-- v2_y&#45;&#45;i0_y -->
<g id="edge11" class="edge">
<title>v2_y&#45;&#45;i0_y:s</title>
<path fill="none" stroke="#ffa500" stroke-width="2.5" d="M80.0559,-188.5277C102.8686,-190.263 141.1937,-196.8494 149.5,-233"/>
<path fill="none" stroke="transparent" stroke-width="2.5" d="M79.9082,-190.5222C102.5299,-192.2341 140.855,-198.8205 147.5,-233"/>
<path fill="none" stroke="#ffa500" stroke-width="2.5" d="M79.7606,-192.5168C102.1911,-194.2052 140.5162,-200.7916 145.5,-233"/>
<path fill="none" stroke="transparent" stroke-width="2.5" d="M79.6129,-194.5113C101.8524,-196.1763 140.1775,-202.7627 143.5,-233"/>
<path fill="none" stroke="#ffa500" stroke-width="2.5" d="M79.4652,-196.5059C101.5136,-198.1474 139.8387,-204.7339 141.5,-233"/>
<path fill="none" stroke="transparent" stroke-width="2.5" d="M79.3176,-198.5004C101.1749,-200.1186 139.5,-206.705 139.5,-233"/>
<path fill="none" stroke="#ffa500" stroke-width="2.5" d="M79.1699,-200.4949C100.8361,-202.0897 139.1613,-208.6761 137.5,-233"/>
<path fill="none" stroke="transparent" stroke-width="2.5" d="M79.0223,-202.4895C100.4974,-204.0608 138.8225,-210.6472 135.5,-233"/>
<path fill="none" stroke="#ffa500" stroke-width="2.5" d="M78.8746,-204.484C100.1586,-206.0319 138.4838,-212.6183 133.5,-233"/>
<path fill="none" stroke="transparent" stroke-width="2.5" d="M78.7269,-206.4786C99.8199,-208.003 138.145,-214.5894 131.5,-233"/>
<path fill="none" stroke="#a020f0" stroke-width="2.5" d="M78.5793,-208.4731C99.4812,-209.9741 137.8063,-216.5605 129.5,-233"/>
<text text-anchor="middle" x="102" y="-205" font-family="Courier,monospace" font-weight="bold" font-size="10.00" fill="#000000"> </text>
</g>
<!-- i2_y -->
<g id="node15" class="node">
<title>i2_y</title>
<ellipse fill="none" stroke="#000000" cx="289.5" cy="-234" rx="14.5" ry="14.5"/>
<text text-anchor="middle" x="289.5" y="-231.5" font-family="Courier,monospace" font-weight="bold" font-size="10.00" fill="#000000">i2</text>
</g>
<!-- i1_y&#45;&#45;i2_y -->
<g id="edge13" class="edge">
<title>i1_y&#45;&#45;i2_y</title>
<path fill="none" stroke="#a020f0" stroke-width="2.5" d="M227.8598,-239.4025C241.1406,-236.9235 260.7159,-233.2694 273.9827,-230.7929"/>
<path fill="none" stroke="transparent" stroke-width="2.5" d="M228.2268,-241.3686C241.5076,-238.8895 261.0829,-235.2354 274.3497,-232.759"/>
<path fill="none" stroke="#a020f0" stroke-width="2.5" d="M228.5938,-243.3346C241.8746,-240.8555 261.4499,-237.2015 274.7166,-234.725"/>
<path fill="none" stroke="transparent" stroke-width="2.5" d="M228.9608,-245.3007C242.2416,-242.8216 261.8169,-239.1675 275.0836,-236.6911"/>
<path fill="none" stroke="#ffa500" stroke-width="2.5" d="M229.3277,-247.2667C242.6085,-244.7876 262.1839,-241.1336 275.4506,-238.6571"/>
<path fill="none" stroke="transparent" stroke-width="2.5" d="M229.6947,-249.2327C242.9755,-246.7537 262.5509,-243.0996 275.8176,-240.6231"/>
<path fill="none" stroke="#ffa500" stroke-width="2.5" d="M230.0617,-251.1988C243.3425,-248.7197 262.9179,-245.0656 276.1846,-242.5892"/>
<text text-anchor="middle" x="252" y="-244" font-family="Courier,monospace" font-weight="bold" font-size="10.00" fill="#000000"> </text>
</g>
<!-- v5_y -->
<g id="node18" class="node">
<title>v5_y</title>
<ellipse fill="none" stroke="#000000" cx="289.5" cy="-281" rx="14.5" ry="14.5"/>
<text text-anchor="middle" x="289.5" y="-278.5" font-family="Courier,monospace" font-weight="bold" font-size="10.00" fill="#000000">v5</text>
</g>
<!-- i1_y&#45;&#45;v5_y -->
<g id="edge16" class="edge">
<title>i1_y&#45;&#45;v5_y</title>
<path fill="none" stroke="#a020f0" stroke-width="2.5" d="M228.714,-252.0691C242.3654,-258.0757 263.4037,-267.3326 277.0131,-273.3207"/>
<path fill="none" stroke="transparent" stroke-width="2.5" d="M227.9085,-253.8997C241.5599,-259.9064 262.5982,-269.1632 276.2076,-275.1513"/>
<path fill="none" stroke="#ffa500" stroke-width="2.5" d="M227.103,-255.7304C240.7545,-261.737 261.7927,-270.9938 275.4021,-276.982"/>
<text text-anchor="middle" x="252" y="-269" font-family="Courier,monospace" font-weight="bold" font-size="10.00" fill="#000000"> </text>
</g>
<!-- v3_y -->
<g id="node16" class="node">
<title>v3_y</title>
<ellipse fill="none" stroke="#000000" cx="364.5" cy="-212" rx="14.5" ry="14.5"/>
<text text-anchor="middle" x="364.5" y="-209.5" font-family="Courier,monospace" font-weight="bold" font-size="10.00" fill="#000000">v3</text>
</g>
<!-- i2_y&#45;&#45;v3_y -->
<g id="edge14" class="edge">
<title>i2_y&#45;&#45;v3_y</title>
<path fill="none" stroke="#a020f0" stroke-width="2.5" d="M303.044,-227.9428C316.4528,-224.0096 336.5055,-218.1274 349.8934,-214.2003"/>
<path fill="none" stroke="transparent" stroke-width="2.5" d="M303.6069,-229.862C317.0157,-225.9287 337.0685,-220.0466 350.4563,-216.1195"/>
<path fill="none" stroke="#ffa500" stroke-width="2.5" d="M304.1699,-231.7811C317.5787,-227.8479 337.6314,-221.9657 351.0193,-218.0386"/>
<text text-anchor="middle" x="327" y="-227" font-family="Courier,monospace" font-weight="bold" font-size="10.00" fill="#000000"> </text>
</g>
<!-- v4_y -->
<g id="node17" class="node">
<title>v4_y</title>
<ellipse fill="none" stroke="#000000" cx="364.5" cy="-259" rx="14.5" ry="14.5"/>
<text text-anchor="middle" x="364.5" y="-256.5" font-family="Courier,monospace" font-weight="bold" font-size="10.00" fill="#000000">v4</text>
</g>
<!-- i2_y&#45;&#45;v4_y -->
<g id="edge15" class="edge">
<title>i2_y&#45;&#45;v4_y</title>
<path fill="none" stroke="#a020f0" stroke-width="2.5" d="M303.8886,-236.688C317.3364,-241.1706 337.7048,-247.9601 351.2095,-252.4617"/>
<path fill="none" stroke="transparent" stroke-width="2.5" d="M303.2562,-238.5854C316.704,-243.068 337.0724,-249.8575 350.5771,-254.359"/>
<path fill="none" stroke="#ffa500" stroke-width="2.5" d="M302.6237,-240.4828C316.0715,-244.9654 336.4399,-251.7548 349.9446,-256.2564"/>
<text text-anchor="middle" x="327" y="-250" font-family="Courier,monospace" font-weight="bold" font-size="10.00" fill="#000000"> </text>
</g>
</g>
</svg>
