<svg class="bob" font-family="arial" font-size="14" height="208" width="584" xmlns="http://www.w3.org/2000/svg">
<defs>
<marker id="triangle" markerHeight="8" markerWidth="8" orient="auto" refX="4" refY="2" viewBox="0 0 8 4">
<polygon class="fg_fill" points="0,0 0,4 8,2 0,0"/>
</marker>
<marker id="clear_triangle" markerHeight="10" markerWidth="10" orient="auto" refX="1" refY="7" viewBox="0 0 20 14">
<polygon class="bg_fill" points="2,2 2,12 18,7 2,2"/>
</marker>
<marker id="circle" markerHeight="5" markerWidth="5" orient="auto" refX="10" refY="10" viewBox="0 0 20 20">
<circle class="fg_fill" cx="10" cy="10" r="8"/>
</marker>
<marker id="square" markerHeight="5" markerWidth="5" orient="auto" refX="10" refY="10" viewBox="0 0 20 20">
<rect class="fg_fill" height="20" width="20" x="0" y="0"/>
</marker>
<marker id="open_circle" markerHeight="10" markerWidth="10" orient="auto" refX="10" refY="10" viewBox="0 0 20 20">
<circle class="bg_fill" cx="10" cy="10" r="4"/>
</marker>
<marker id="big_open_circle" markerHeight="20" markerWidth="20" orient="auto" refX="20" refY="20" viewBox="0 0 40 40">
<circle class="bg_fill" cx="20" cy="20" r="6"/>
</marker>
</defs>
<style type="text/css">

rect.backdrop {
    fill: white;
}
text{
    fill: black;
}

circle {
    fill: none;
    stroke: black;
    stroke-width: 2;
}

line {
    stroke: black;
    stroke-width: 2;
    stroke-opacity: 1;
    fill-opacity: 1;
    stroke-linecap: round;
    stroke-linejoin: miter;
}

path {
    fill: none;
    stroke: black;
    stroke-width: 2;
    stroke-opacity: 1;
    fill-opacity: 1;
    stroke-linecap: round;
    stroke-linejoin: miter;
}

line.dashed {
    stroke-dasharray: 5;
}

.fg_fill {
    fill: black;
}


.bg_fill {
    fill: white;
    stroke: black;
    stroke-width: 2;
}

tspan.head{
    fill: none;
    stroke: none;
}
    
</style>
<rect class="backdrop" height="208" width="584" x="0" y="0"/>
<g>
<line marker-end="url(#circle)" marker-start="url(#circle)" x1="4" x2="20" y1="56" y2="88"/>
<line marker-end="url(#circle)" marker-start="url(#circle)" x1="20" x2="36" y1="88" y2="120"/>
<line marker-end="url(#circle)" marker-start="url(#circle)" x1="36" x2="20" y1="56" y2="88"/>
<line marker-end="url(#circle)" marker-start="url(#circle)" x1="36" x2="20" y1="120" y2="152"/>
<line marker-end="url(#circle)" marker-start="url(#circle)" x1="36" x2="76" y1="120" y2="120"/>
<line marker-end="url(#circle)" marker-start="url(#circle)" x1="76" x2="76" y1="120" y2="152"/>
<line marker-end="url(#circle)" marker-start="url(#circle)" x1="76" x2="92" y1="120" y2="152"/>
<line marker-end="url(#circle)" marker-start="url(#circle)" x1="92" x2="76" y1="88" y2="120"/>
<line marker-end="url(#circle)" marker-start="url(#circle)" x1="92" x2="116" y1="88" y2="88"/>
</g>
<g>
<line marker-end="url(#circle)" marker-start="url(#circle)" x1="92" x2="92" y1="56" y2="88"/>
</g>
<g>
<line marker-end="url(#circle)" marker-start="url(#circle)" x1="396" x2="412" y1="88" y2="120"/>
<line marker-end="url(#circle)" marker-start="url(#circle)" x1="412" x2="396" y1="120" y2="152"/>
<line marker-end="url(#circle)" marker-start="url(#circle)" x1="412" x2="452" y1="120" y2="120"/>
<line marker-end="url(#circle)" marker-start="url(#circle)" x1="452" x2="452" y1="120" y2="152"/>
<line marker-end="url(#circle)" marker-start="url(#circle)" x1="452" x2="468" y1="120" y2="152"/>
<line marker-end="url(#circle)" marker-start="url(#circle)" x1="468" x2="452" y1="88" y2="120"/>
<line marker-end="url(#circle)" marker-start="url(#circle)" x1="468" x2="492" y1="88" y2="88"/>
<line marker-end="url(#circle)" marker-start="url(#circle)" x1="468" x2="452" y1="152" y2="184"/>
<line marker-end="url(#circle)" marker-start="url(#circle)" x1="468" x2="484" y1="152" y2="184"/>
</g>
<g>
<line marker-end="url(#circle)" marker-start="url(#circle)" x1="468" x2="468" y1="56" y2="88"/>
</g>
<g>
<text x="1" y="44">
A
</text>
</g>
<g>
<text x="17" y="124">
G
</text>
</g>
<g>
<text x="17" y="172">
I
</text>
</g>
<g>
<text x="25" y="12">
original
</text>
</g>
<g>
<text x="33" y="44">
B
</text>
</g>
<g>
<text x="33" y="92">
D
</text>
</g>
<g>
<text x="73" y="92">
E
</text>
</g>
<g>
<text x="73" y="172">
J
</text>
</g>
<g>
<text x="89" y="44">
C
</text>
</g>
<g>
<text x="89" y="124">
H
</text>
</g>
<g>
<text x="89" y="172">
K
</text>
</g>
<g>
<text x="129" y="92">
F
</text>
</g>
<g>
<text x="313" y="12">
interchange on edge(G,H), swap D
</text>
</g>
<g>
<text x="313" y="28">
branch with K branch
</text>
</g>
<g>
<text x="393" y="76">
K
</text>
</g>
<g>
<text x="393" y="124">
G
</text>
</g>
<g>
<text x="393" y="172">
I
</text>
</g>
<g>
<text x="433" y="156">
J
</text>
</g>
<g>
<text x="449" y="92">
E
</text>
</g>
<g>
<text x="449" y="204">
A
</text>
</g>
<g>
<text x="465" y="44">
C
</text>
</g>
<g>
<text x="465" y="124">
H
</text>
</g>
<g>
<text x="481" y="156">
D
</text>
</g>
<g>
<text x="481" y="204">
B
</text>
</g>
<g>
<text x="505" y="92">
F
</text>
</g>
</svg>
