<?xml version="1.0" encoding="UTF-8" standalone="no"?>
<!DOCTYPE svg PUBLIC "-//W3C//DTD SVG 1.1//EN"
 "http://www.w3.org/Graphics/SVG/1.1/DTD/svg11.dtd">
<!-- Generated by graphviz version 2.40.1 (0)
 -->
<!-- Title: G Pages: 1 -->
<svg width="369pt" height="517pt"
 viewBox="0.00 0.00 369.00 517.00" xmlns="http://www.w3.org/2000/svg" xmlns:xlink="http://www.w3.org/1999/xlink">
<g id="graph0" class="graph" transform="scale(1 1) rotate(0) translate(4 513)">
<title>G</title>
<polygon fill="#ffffff" stroke="transparent" points="-4,4 -4,-513 365,-513 365,4 -4,4"/>
<g id="clust1" class="cluster">
<title>cluster_three</title>
<polygon fill="none" stroke="#000000" points="4,-8 4,-167 358,-167 358,-8 4,-8"/>
<text text-anchor="middle" x="181" y="-155" font-family="Courier,monospace" font-weight="bold" font-size="10.00" fill="#000000">(path(v0,v1) + path(v0,v3) &#45; path(v1,v3)) / 2</text>
</g>
<g id="clust2" class="cluster">
<title>cluster_two</title>
<polygon fill="none" stroke="#000000" points="8,-175 8,-334 353,-334 353,-175 8,-175"/>
<text text-anchor="middle" x="180.5" y="-322" font-family="Courier,monospace" font-weight="bold" font-size="10.00" fill="#000000">path(v0,v1) + path(v0,v3) &#45; path(v1,v3)</text>
</g>
<g id="clust3" class="cluster">
<title>cluster_one</title>
<polygon fill="none" stroke="#000000" points="8,-342 8,-501 353,-501 353,-342 8,-342"/>
<text text-anchor="middle" x="180.5" y="-489" font-family="Courier,monospace" font-weight="bold" font-size="10.00" fill="#000000">path(v0,v1) + path(v0,v3)</text>
</g>
<!-- v0_z -->
<g id="node1" class="node">
<title>v0_z</title>
<ellipse fill="none" stroke="#000000" cx="30.5" cy="-125" rx="14.5" ry="14.5"/>
<text text-anchor="middle" x="30.5" y="-122.5" font-family="Courier,monospace" font-weight="bold" font-size="10.00" fill="#000000">v0</text>
</g>
<!-- i0_z -->
<g id="node2" class="node">
<title>i0_z</title>
<ellipse fill="none" stroke="#000000" cx="105.5" cy="-81" rx="14.5" ry="14.5"/>
<text text-anchor="middle" x="105.5" y="-78.5" font-family="Courier,monospace" font-weight="bold" font-size="10.00" fill="#000000">i0</text>
</g>
<!-- v0_z&#45;&#45;i0_z -->
<g id="edge1" class="edge">
<title>v0_z&#45;&#45;i0_z</title>
<path fill="none" stroke="#0000ff" stroke-width="2.5" d="M43.2227,-117.536C57.0979,-109.3959 79.1645,-96.4502 92.9652,-88.3538"/>
<text text-anchor="middle" x="68" y="-108" font-family="Courier,monospace" font-weight="bold" font-size="10.00" fill="#000000"> </text>
</g>
<!-- i1_z -->
<g id="node5" class="node">
<title>i1_z</title>
<ellipse fill="none" stroke="#000000" cx="180.5" cy="-81" rx="14.5" ry="14.5"/>
<text text-anchor="middle" x="180.5" y="-78.5" font-family="Courier,monospace" font-weight="bold" font-size="10.00" fill="#000000">i1</text>
</g>
<!-- i0_z&#45;&#45;i1_z -->
<g id="edge4" class="edge">
<title>i0_z&#45;&#45;i1_z</title>
<path fill="none" stroke="#000000" d="M120.3176,-81C133.5515,-81 152.8224,-81 165.9684,-81"/>
<text text-anchor="middle" x="143" y="-84" font-family="Courier,monospace" font-weight="bold" font-size="10.00" fill="#000000"> </text>
</g>
<!-- v1_z -->
<g id="node3" class="node">
<title>v1_z</title>
<ellipse fill="none" stroke="#000000" cx="30.5" cy="-78" rx="14.5" ry="14.5"/>
<text text-anchor="middle" x="30.5" y="-75.5" font-family="Courier,monospace" font-weight="bold" font-size="10.00" fill="#000000">v1</text>
</g>
<!-- v1_z&#45;&#45;i0_z -->
<g id="edge2" class="edge">
<title>v1_z&#45;&#45;i0_z</title>
<path fill="none" stroke="#000000" d="M45.3176,-78.5927C58.5515,-79.1221 77.8224,-79.8929 90.9684,-80.4187"/>
<text text-anchor="middle" x="68" y="-82" font-family="Courier,monospace" font-weight="bold" font-size="10.00" fill="#000000"> </text>
</g>
<!-- v2_z -->
<g id="node4" class="node">
<title>v2_z</title>
<ellipse fill="none" stroke="#000000" cx="30.5" cy="-31" rx="14.5" ry="14.5"/>
<text text-anchor="middle" x="30.5" y="-28.5" font-family="Courier,monospace" font-weight="bold" font-size="10.00" fill="#000000">v2</text>
</g>
<!-- v2_z&#45;&#45;i0_z -->
<g id="edge3" class="edge">
<title>v2_z&#45;&#45;i0_z</title>
<path fill="none" stroke="#000000" d="M42.8847,-39.2565C56.8642,-48.5762 79.4618,-63.6412 93.3457,-72.8972"/>
<text text-anchor="middle" x="68" y="-61" font-family="Courier,monospace" font-weight="bold" font-size="10.00" fill="#000000"> </text>
</g>
<!-- i2_z -->
<g id="node6" class="node">
<title>i2_z</title>
<ellipse fill="none" stroke="#000000" cx="255.5" cy="-67" rx="14.5" ry="14.5"/>
<text text-anchor="middle" x="255.5" y="-64.5" font-family="Courier,monospace" font-weight="bold" font-size="10.00" fill="#000000">i2</text>
</g>
<!-- i1_z&#45;&#45;i2_z -->
<g id="edge5" class="edge">
<title>i1_z&#45;&#45;i2_z</title>
<path fill="none" stroke="#000000" d="M194.9608,-78.3007C208.2416,-75.8216 227.8169,-72.1675 241.0836,-69.6911"/>
<text text-anchor="middle" x="218" y="-77" font-family="Courier,monospace" font-weight="bold" font-size="10.00" fill="#000000"> </text>
</g>
<!-- v5_z -->
<g id="node9" class="node">
<title>v5_z</title>
<ellipse fill="none" stroke="#000000" cx="255.5" cy="-114" rx="14.5" ry="14.5"/>
<text text-anchor="middle" x="255.5" y="-111.5" font-family="Courier,monospace" font-weight="bold" font-size="10.00" fill="#000000">v5</text>
</g>
<!-- i1_z&#45;&#45;v5_z -->
<g id="edge8" class="edge">
<title>i1_z&#45;&#45;v5_z</title>
<path fill="none" stroke="#000000" d="M193.9085,-86.8997C207.5599,-92.9064 228.5982,-102.1632 242.2076,-108.1513"/>
<text text-anchor="middle" x="218" y="-102" font-family="Courier,monospace" font-weight="bold" font-size="10.00" fill="#000000"> </text>
</g>
<!-- v3_z -->
<g id="node7" class="node">
<title>v3_z</title>
<ellipse fill="none" stroke="#000000" cx="330.5" cy="-56" rx="14.5" ry="14.5"/>
<text text-anchor="middle" x="330.5" y="-53.5" font-family="Courier,monospace" font-weight="bold" font-size="10.00" fill="#000000">v3</text>
</g>
<!-- i2_z&#45;&#45;v3_z -->
<g id="edge6" class="edge">
<title>i2_z&#45;&#45;v3_z</title>
<path fill="none" stroke="#000000" d="M269.9608,-64.8791C283.2416,-62.9312 302.8169,-60.0602 316.0836,-58.1144"/>
<text text-anchor="middle" x="293" y="-65" font-family="Courier,monospace" font-weight="bold" font-size="10.00" fill="#000000"> </text>
</g>
<!-- v4_z -->
<g id="node8" class="node">
<title>v4_z</title>
<ellipse fill="none" stroke="#000000" cx="330.5" cy="-103" rx="14.5" ry="14.5"/>
<text text-anchor="middle" x="330.5" y="-100.5" font-family="Courier,monospace" font-weight="bold" font-size="10.00" fill="#000000">v4</text>
</g>
<!-- i2_z&#45;&#45;v4_z -->
<g id="edge7" class="edge">
<title>i2_z&#45;&#45;v4_z</title>
<path fill="none" stroke="#000000" d="M268.9085,-73.4361C282.5599,-79.9888 303.5982,-90.0871 317.2076,-96.6196"/>
<text text-anchor="middle" x="293" y="-89" font-family="Courier,monospace" font-weight="bold" font-size="10.00" fill="#000000"> </text>
</g>
<!-- v0_y -->
<g id="node10" class="node">
<title>v0_y</title>
<ellipse fill="none" stroke="#000000" cx="30.5" cy="-292" rx="14.5" ry="14.5"/>
<text text-anchor="middle" x="30.5" y="-289.5" font-family="Courier,monospace" font-weight="bold" font-size="10.00" fill="#000000">v0</text>
</g>
<!-- i0_y -->
<g id="node11" class="node">
<title>i0_y</title>
<ellipse fill="none" stroke="#000000" cx="105.5" cy="-248" rx="14.5" ry="14.5"/>
<text text-anchor="middle" x="105.5" y="-245.5" font-family="Courier,monospace" font-weight="bold" font-size="10.00" fill="#000000">i0</text>
</g>
<!-- v0_y&#45;&#45;i0_y -->
<g id="edge9" class="edge">
<title>v0_y&#45;&#45;i0_y</title>
<path fill="none" stroke="#0000ff" stroke-width="2.5" d="M42.2107,-282.811C56.0859,-274.6709 78.1525,-261.7251 91.9531,-253.6287"/>
<path fill="none" stroke="transparent" stroke-width="2.5" d="M43.2227,-284.536C57.0979,-276.3959 79.1645,-263.4502 92.9652,-255.3538"/>
<path fill="none" stroke="#0000ff" stroke-width="2.5" d="M44.2348,-286.261C58.1099,-278.121 80.1765,-265.1752 93.9772,-257.0788"/>
</g>
<!-- i1_y -->
<g id="node14" class="node">
<title>i1_y</title>
<ellipse fill="none" stroke="#000000" cx="180.5" cy="-248" rx="14.5" ry="14.5"/>
<text text-anchor="middle" x="180.5" y="-245.5" font-family="Courier,monospace" font-weight="bold" font-size="10.00" fill="#000000">i1</text>
</g>
<!-- i0_y&#45;&#45;i1_y -->
<g id="edge12" class="edge">
<title>i0_y&#45;&#45;i1_y</title>
<path fill="none" stroke="#000000" d="M120.3176,-248C133.5515,-248 152.8224,-248 165.9684,-248"/>
<text text-anchor="middle" x="143" y="-251" font-family="Courier,monospace" font-weight="bold" font-size="10.00" fill="#000000"> </text>
</g>
<!-- v1_y -->
<g id="node12" class="node">
<title>v1_y</title>
<ellipse fill="none" stroke="#000000" cx="30.5" cy="-245" rx="14.5" ry="14.5"/>
<text text-anchor="middle" x="30.5" y="-242.5" font-family="Courier,monospace" font-weight="bold" font-size="10.00" fill="#000000">v1</text>
</g>
<!-- v1_y&#45;&#45;i0_y -->
<g id="edge10" class="edge">
<title>v1_y&#45;&#45;i0_y</title>
<path fill="none" stroke="#000000" d="M45.3176,-245.5927C58.5515,-246.1221 77.8224,-246.8929 90.9684,-247.4187"/>
<text text-anchor="middle" x="68" y="-249" font-family="Courier,monospace" font-weight="bold" font-size="10.00" fill="#000000"> </text>
</g>
<!-- v2_y -->
<g id="node13" class="node">
<title>v2_y</title>
<ellipse fill="none" stroke="#000000" cx="30.5" cy="-198" rx="14.5" ry="14.5"/>
<text text-anchor="middle" x="30.5" y="-195.5" font-family="Courier,monospace" font-weight="bold" font-size="10.00" fill="#000000">v2</text>
</g>
<!-- v2_y&#45;&#45;i0_y -->
<g id="edge11" class="edge">
<title>v2_y&#45;&#45;i0_y</title>
<path fill="none" stroke="#000000" d="M42.8847,-206.2565C56.8642,-215.5762 79.4618,-230.6412 93.3457,-239.8972"/>
<text text-anchor="middle" x="68" y="-228" font-family="Courier,monospace" font-weight="bold" font-size="10.00" fill="#000000"> </text>
</g>
<!-- i2_y -->
<g id="node15" class="node">
<title>i2_y</title>
<ellipse fill="none" stroke="#000000" cx="255.5" cy="-223" rx="14.5" ry="14.5"/>
<text text-anchor="middle" x="255.5" y="-220.5" font-family="Courier,monospace" font-weight="bold" font-size="10.00" fill="#000000">i2</text>
</g>
<!-- i1_y&#45;&#45;i2_y -->
<g id="edge13" class="edge">
<title>i1_y&#45;&#45;i2_y</title>
<path fill="none" stroke="#000000" d="M194.2562,-243.4146C207.704,-238.932 228.0724,-232.1425 241.5771,-227.641"/>
<text text-anchor="middle" x="218" y="-239" font-family="Courier,monospace" font-weight="bold" font-size="10.00" fill="#000000"> </text>
</g>
<!-- v5_y -->
<g id="node18" class="node">
<title>v5_y</title>
<ellipse fill="none" stroke="#000000" cx="255.5" cy="-270" rx="14.5" ry="14.5"/>
<text text-anchor="middle" x="255.5" y="-267.5" font-family="Courier,monospace" font-weight="bold" font-size="10.00" fill="#000000">v5</text>
</g>
<!-- i1_y&#45;&#45;v5_y -->
<g id="edge16" class="edge">
<title>i1_y&#45;&#45;v5_y</title>
<path fill="none" stroke="#000000" d="M194.6069,-252.138C208.0157,-256.0713 228.0685,-261.9534 241.4563,-265.8805"/>
<text text-anchor="middle" x="218" y="-263" font-family="Courier,monospace" font-weight="bold" font-size="10.00" fill="#000000"> </text>
</g>
<!-- v3_y -->
<g id="node16" class="node">
<title>v3_y</title>
<ellipse fill="none" stroke="#000000" cx="330.5" cy="-212" rx="14.5" ry="14.5"/>
<text text-anchor="middle" x="330.5" y="-209.5" font-family="Courier,monospace" font-weight="bold" font-size="10.00" fill="#000000">v3</text>
</g>
<!-- i2_y&#45;&#45;v3_y -->
<g id="edge14" class="edge">
<title>i2_y&#45;&#45;v3_y</title>
<path fill="none" stroke="#000000" d="M269.9608,-220.8791C283.2416,-218.9312 302.8169,-216.0602 316.0836,-214.1144"/>
<text text-anchor="middle" x="293" y="-221" font-family="Courier,monospace" font-weight="bold" font-size="10.00" fill="#000000"> </text>
</g>
<!-- v4_y -->
<g id="node17" class="node">
<title>v4_y</title>
<ellipse fill="none" stroke="#000000" cx="330.5" cy="-259" rx="14.5" ry="14.5"/>
<text text-anchor="middle" x="330.5" y="-256.5" font-family="Courier,monospace" font-weight="bold" font-size="10.00" fill="#000000">v4</text>
</g>
<!-- i2_y&#45;&#45;v4_y -->
<g id="edge15" class="edge">
<title>i2_y&#45;&#45;v4_y</title>
<path fill="none" stroke="#000000" d="M268.9085,-229.4361C282.5599,-235.9888 303.5982,-246.0871 317.2076,-252.6196"/>
<text text-anchor="middle" x="293" y="-245" font-family="Courier,monospace" font-weight="bold" font-size="10.00" fill="#000000"> </text>
</g>
<!-- v0_x -->
<g id="node19" class="node">
<title>v0_x</title>
<ellipse fill="none" stroke="#000000" cx="30.5" cy="-459" rx="14.5" ry="14.5"/>
<text text-anchor="middle" x="30.5" y="-456.5" font-family="Courier,monospace" font-weight="bold" font-size="10.00" fill="#000000">v0</text>
</g>
<!-- i0_x -->
<g id="node20" class="node">
<title>i0_x</title>
<ellipse fill="none" stroke="#000000" cx="105.5" cy="-415" rx="14.5" ry="14.5"/>
<text text-anchor="middle" x="105.5" y="-412.5" font-family="Courier,monospace" font-weight="bold" font-size="10.00" fill="#000000">i0</text>
</g>
<!-- v0_x&#45;&#45;i0_x -->
<g id="edge17" class="edge">
<title>v0_x&#45;&#45;i0_x</title>
<path fill="none" stroke="#0000ff" stroke-width="2.5" d="M42.2107,-449.811C56.0859,-441.6709 78.1525,-428.7251 91.9531,-420.6287"/>
<path fill="none" stroke="transparent" stroke-width="2.5" d="M43.2227,-451.536C57.0979,-443.3959 79.1645,-430.4502 92.9652,-422.3538"/>
<path fill="none" stroke="#0000ff" stroke-width="2.5" d="M44.2348,-453.261C58.1099,-445.121 80.1765,-432.1752 93.9772,-424.0788"/>
<text text-anchor="middle" x="68" y="-442" font-family="Courier,monospace" font-weight="bold" font-size="10.00" fill="#000000"> </text>
</g>
<!-- i1_x -->
<g id="node23" class="node">
<title>i1_x</title>
<ellipse fill="none" stroke="#000000" cx="180.5" cy="-415" rx="14.5" ry="14.5"/>
<text text-anchor="middle" x="180.5" y="-412.5" font-family="Courier,monospace" font-weight="bold" font-size="10.00" fill="#000000">i1</text>
</g>
<!-- i0_x&#45;&#45;i1_x -->
<g id="edge20" class="edge">
<title>i0_x&#45;&#45;i1_x</title>
<path fill="none" stroke="#0000ff" stroke-width="2.5" d="M120.3176,-415C133.5515,-415 152.8224,-415 165.9684,-415"/>
<text text-anchor="middle" x="143" y="-418" font-family="Courier,monospace" font-weight="bold" font-size="10.00" fill="#000000"> </text>
</g>
<!-- v1_x -->
<g id="node21" class="node">
<title>v1_x</title>
<ellipse fill="none" stroke="#000000" cx="30.5" cy="-412" rx="14.5" ry="14.5"/>
<text text-anchor="middle" x="30.5" y="-409.5" font-family="Courier,monospace" font-weight="bold" font-size="10.00" fill="#000000">v1</text>
</g>
<!-- v1_x&#45;&#45;i0_x -->
<g id="edge18" class="edge">
<title>v1_x&#45;&#45;i0_x</title>
<path fill="none" stroke="#0000ff" stroke-width="2.5" d="M45.3176,-412.5927C58.5515,-413.1221 77.8224,-413.8929 90.9684,-414.4187"/>
<text text-anchor="middle" x="68" y="-416" font-family="Courier,monospace" font-weight="bold" font-size="10.00" fill="#000000"> </text>
</g>
<!-- v2_x -->
<g id="node22" class="node">
<title>v2_x</title>
<ellipse fill="none" stroke="#000000" cx="30.5" cy="-365" rx="14.5" ry="14.5"/>
<text text-anchor="middle" x="30.5" y="-362.5" font-family="Courier,monospace" font-weight="bold" font-size="10.00" fill="#000000">v2</text>
</g>
<!-- v2_x&#45;&#45;i0_x -->
<g id="edge19" class="edge">
<title>v2_x&#45;&#45;i0_x</title>
<path fill="none" stroke="#000000" d="M42.8847,-373.2565C56.8642,-382.5762 79.4618,-397.6412 93.3457,-406.8972"/>
<text text-anchor="middle" x="68" y="-395" font-family="Courier,monospace" font-weight="bold" font-size="10.00" fill="#000000"> </text>
</g>
<!-- i2_x -->
<g id="node24" class="node">
<title>i2_x</title>
<ellipse fill="none" stroke="#000000" cx="255.5" cy="-390" rx="14.5" ry="14.5"/>
<text text-anchor="middle" x="255.5" y="-387.5" font-family="Courier,monospace" font-weight="bold" font-size="10.00" fill="#000000">i2</text>
</g>
<!-- i1_x&#45;&#45;i2_x -->
<g id="edge21" class="edge">
<title>i1_x&#45;&#45;i2_x</title>
<path fill="none" stroke="#0000ff" stroke-width="2.5" d="M194.2562,-410.4146C207.704,-405.932 228.0724,-399.1425 241.5771,-394.641"/>
<text text-anchor="middle" x="218" y="-406" font-family="Courier,monospace" font-weight="bold" font-size="10.00" fill="#000000"> </text>
</g>
<!-- v5_x -->
<g id="node27" class="node">
<title>v5_x</title>
<ellipse fill="none" stroke="#000000" cx="255.5" cy="-437" rx="14.5" ry="14.5"/>
<text text-anchor="middle" x="255.5" y="-434.5" font-family="Courier,monospace" font-weight="bold" font-size="10.00" fill="#000000">v5</text>
</g>
<!-- i1_x&#45;&#45;v5_x -->
<g id="edge24" class="edge">
<title>i1_x&#45;&#45;v5_x</title>
<path fill="none" stroke="#000000" d="M194.6069,-419.138C208.0157,-423.0713 228.0685,-428.9534 241.4563,-432.8805"/>
<text text-anchor="middle" x="218" y="-430" font-family="Courier,monospace" font-weight="bold" font-size="10.00" fill="#000000"> </text>
</g>
<!-- v3_x -->
<g id="node25" class="node">
<title>v3_x</title>
<ellipse fill="none" stroke="#000000" cx="330.5" cy="-379" rx="14.5" ry="14.5"/>
<text text-anchor="middle" x="330.5" y="-376.5" font-family="Courier,monospace" font-weight="bold" font-size="10.00" fill="#000000">v3</text>
</g>
<!-- i2_x&#45;&#45;v3_x -->
<g id="edge22" class="edge">
<title>i2_x&#45;&#45;v3_x</title>
<path fill="none" stroke="#0000ff" stroke-width="2.5" d="M269.9608,-387.8791C283.2416,-385.9312 302.8169,-383.0602 316.0836,-381.1144"/>
<text text-anchor="middle" x="293" y="-388" font-family="Courier,monospace" font-weight="bold" font-size="10.00" fill="#000000"> </text>
</g>
<!-- v4_x -->
<g id="node26" class="node">
<title>v4_x</title>
<ellipse fill="none" stroke="#000000" cx="330.5" cy="-426" rx="14.5" ry="14.5"/>
<text text-anchor="middle" x="330.5" y="-423.5" font-family="Courier,monospace" font-weight="bold" font-size="10.00" fill="#000000">v4</text>
</g>
<!-- i2_x&#45;&#45;v4_x -->
<g id="edge23" class="edge">
<title>i2_x&#45;&#45;v4_x</title>
<path fill="none" stroke="#000000" d="M268.9085,-396.4361C282.5599,-402.9888 303.5982,-413.0871 317.2076,-419.6196"/>
<text text-anchor="middle" x="293" y="-412" font-family="Courier,monospace" font-weight="bold" font-size="10.00" fill="#000000"> </text>
</g>
</g>
</svg>
