<?xml version="1.0" encoding="UTF-8" standalone="no"?>
<!DOCTYPE svg PUBLIC "-//W3C//DTD SVG 1.1//EN"
 "http://www.w3.org/Graphics/SVG/1.1/DTD/svg11.dtd">
<!-- Generated by graphviz version 2.40.1 (0)
 -->
<!-- Title: G Pages: 1 -->
<svg width="283pt" height="146pt"
 viewBox="0.00 0.00 283.00 146.00" xmlns="http://www.w3.org/2000/svg" xmlns:xlink="http://www.w3.org/1999/xlink">
<g id="graph0" class="graph" transform="scale(1 1) rotate(0) translate(4 142)">
<title>G</title>
<polygon fill="#ffffff" stroke="transparent" points="-4,4 -4,-142 279,-142 279,4 -4,4"/>
<!-- Bear -->
<g id="node1" class="node">
<title>Bear</title>
<polygon fill="none" stroke="#000000" points="99.4932,-61.716 .4932,-61.716 .4932,-25.716 99.4932,-25.716 99.4932,-61.716"/>
<text text-anchor="middle" x="49.9932" y="-46.716" font-family="Courier,monospace" font-weight="bold" font-size="10.00" fill="#000000">Bear</text>
<text text-anchor="middle" x="49.9932" y="-35.716" font-family="Courier,monospace" font-weight="bold" font-size="10.00" fill="#000000">seq: ATTCCC</text>
</g>
<!-- i1 -->
<g id="node5" class="node">
<title>i1</title>
<polygon fill="none" stroke="#000000" points="94.6643,-110.4388 40.6643,-110.4388 40.6643,-74.4388 94.6643,-74.4388 94.6643,-110.4388"/>
<text text-anchor="middle" x="67.6643" y="-89.9388" font-family="Courier,monospace" font-weight="bold" font-size="10.00" fill="#000000">i1</text>
</g>
<!-- Bear&#45;&#45;i1 -->
<g id="edge4" class="edge">
<title>Bear&#45;&#45;i1</title>
<path fill="none" stroke="#000000" d="M56.5733,-61.8586C58.0256,-65.8629 59.565,-70.1074 61.0198,-74.1186"/>
</g>
<!-- Cat -->
<g id="node2" class="node">
<title>Cat</title>
<polygon fill="none" stroke="#000000" points="274.5324,-137.9206 175.5324,-137.9206 175.5324,-101.9206 274.5324,-101.9206 274.5324,-137.9206"/>
<text text-anchor="middle" x="225.0324" y="-122.9206" font-family="Courier,monospace" font-weight="bold" font-size="10.00" fill="#000000">Cat</text>
<text text-anchor="middle" x="225.0324" y="-111.9206" font-family="Courier,monospace" font-weight="bold" font-size="10.00" fill="#000000">seq: ACTGGT</text>
</g>
<!-- i0 -->
<g id="node4" class="node">
<title>i0</title>
<polygon fill="none" stroke="#000000" points="179.0056,-80.8692 125.0056,-80.8692 125.0056,-44.8692 179.0056,-44.8692 179.0056,-80.8692"/>
<text text-anchor="middle" x="152.0056" y="-60.3692" font-family="Courier,monospace" font-weight="bold" font-size="10.00" fill="#000000">i0</text>
</g>
<!-- Cat&#45;&#45;i0 -->
<g id="edge1" class="edge">
<title>Cat&#45;&#45;i0</title>
<path fill="none" stroke="#000000" d="M201.9263,-101.8691C193.4019,-95.2096 183.7453,-87.6655 175.2121,-80.999"/>
</g>
<!-- Lion -->
<g id="node3" class="node">
<title>Lion</title>
<polygon fill="none" stroke="#000000" points="223.2317,-35.9756 124.2317,-35.9756 124.2317,.0244 223.2317,.0244 223.2317,-35.9756"/>
<text text-anchor="middle" x="173.7317" y="-20.9756" font-family="Courier,monospace" font-weight="bold" font-size="10.00" fill="#000000">Lion</text>
<text text-anchor="middle" x="173.7317" y="-9.9756" font-family="Courier,monospace" font-weight="bold" font-size="10.00" fill="#000000">seq: ACTGCT</text>
</g>
<!-- Lion&#45;&#45;i0 -->
<g id="edge2" class="edge">
<title>Lion&#45;&#45;i0</title>
<path fill="none" stroke="#000000" d="M165.0201,-35.9769C163.6034,-38.9041 162.1359,-41.9365 160.7192,-44.8639"/>
</g>
<!-- i0&#45;&#45;i1 -->
<g id="edge3" class="edge">
<title>i0&#45;&#45;i1</title>
<path fill="none" stroke="#000000" d="M124.8552,-72.388C115.2241,-75.7646 104.3907,-79.5627 94.7638,-82.9379"/>
</g>
</g>
</svg>
