<svg class="bob" font-family="arial" font-size="14" height="240" width="424" xmlns="http://www.w3.org/2000/svg">
<defs>
<marker id="triangle" markerHeight="8" markerWidth="8" orient="auto" refX="4" refY="2" viewBox="0 0 8 4">
<polygon class="fg_fill" points="0,0 0,4 8,2 0,0"/>
</marker>
<marker id="clear_triangle" markerHeight="10" markerWidth="10" orient="auto" refX="1" refY="7" viewBox="0 0 20 14">
<polygon class="bg_fill" points="2,2 2,12 18,7 2,2"/>
</marker>
<marker id="circle" markerHeight="5" markerWidth="5" orient="auto" refX="10" refY="10" viewBox="0 0 20 20">
<circle class="fg_fill" cx="10" cy="10" r="8"/>
</marker>
<marker id="square" markerHeight="5" markerWidth="5" orient="auto" refX="10" refY="10" viewBox="0 0 20 20">
<rect class="fg_fill" height="20" width="20" x="0" y="0"/>
</marker>
<marker id="open_circle" markerHeight="10" markerWidth="10" orient="auto" refX="10" refY="10" viewBox="0 0 20 20">
<circle class="bg_fill" cx="10" cy="10" r="4"/>
</marker>
<marker id="big_open_circle" markerHeight="20" markerWidth="20" orient="auto" refX="20" refY="20" viewBox="0 0 40 40">
<circle class="bg_fill" cx="20" cy="20" r="6"/>
</marker>
</defs>
<style type="text/css">

rect.backdrop {
    fill: white;
}
text{
    fill: black;
}

circle {
    fill: none;
    stroke: black;
    stroke-width: 2;
}

line {
    stroke: black;
    stroke-width: 2;
    stroke-opacity: 1;
    fill-opacity: 1;
    stroke-linecap: round;
    stroke-linejoin: miter;
}

path {
    fill: none;
    stroke: black;
    stroke-width: 2;
    stroke-opacity: 1;
    fill-opacity: 1;
    stroke-linecap: round;
    stroke-linejoin: miter;
}

line.dashed {
    stroke-dasharray: 5;
}

.fg_fill {
    fill: black;
}


.bg_fill {
    fill: white;
    stroke: black;
    stroke-width: 2;
}

tspan.head{
    fill: none;
    stroke: none;
}
    
</style>
<rect class="backdrop" height="240" width="424" x="0" y="0"/>
<g>
<line x1="4" x2="4" y1="108" y2="132"/>
<path d="M 4 132 A 4 4 0 0 0 8 136"/>
<path d="M 8 104 A 4 4 0 0 0 4 108"/>
</g>
<g>
<line x1="8" x2="72" y1="104" y2="104"/>
<path d="M 76 108 A 4 4 0 0 0 72 104"/>
</g>
<g>
<line x1="8" x2="72" y1="136" y2="136"/>
<path d="M 72 136 A 4 4 0 0 0 76 132"/>
</g>
<g>
<line x1="76" x2="76" y1="108" y2="120"/>
<line x1="76" x2="76" y1="120" y2="132"/>
<line x1="76" x2="220" y1="120" y2="120"/>
<line x1="220" x2="220" y1="108" y2="120"/>
<line x1="220" x2="220" y1="120" y2="132"/>
<path d="M 220 132 A 4 4 0 0 0 224 136"/>
<path d="M 224 104 A 4 4 0 0 0 220 108"/>
</g>
<g>
<line x1="212" x2="212" y1="12" y2="36"/>
<path d="M 212 36 A 4 4 0 0 0 216 40"/>
<path d="M 216 8 A 4 4 0 0 0 212 12"/>
</g>
<g>
<line x1="212" x2="212" y1="204" y2="228"/>
<path d="M 212 228 A 4 4 0 0 0 216 232"/>
<path d="M 216 200 A 4 4 0 0 0 212 204"/>
</g>
<g>
<line x1="216" x2="288" y1="8" y2="8"/>
<path d="M 292 12 A 4 4 0 0 0 288 8"/>
</g>
<g>
<line x1="216" x2="244" y1="40" y2="40"/>
<line x1="244" x2="244" y1="40" y2="104"/>
<line x1="244" x2="288" y1="40" y2="40"/>
<line x1="244" x2="264" y1="104" y2="104"/>
<path d="M 268 108 A 4 4 0 0 0 264 104"/>
<path d="M 288 40 A 4 4 0 0 0 292 36"/>
</g>
<g>
<line x1="216" x2="244" y1="200" y2="200"/>
<line x1="244" x2="244" y1="136" y2="200"/>
<line x1="244" x2="264" y1="136" y2="136"/>
<line x1="244" x2="280" y1="200" y2="200"/>
<path d="M 264 136 A 4 4 0 0 0 268 132"/>
<path d="M 284 204 A 4 4 0 0 0 280 200"/>
</g>
<g>
<line x1="216" x2="280" y1="232" y2="232"/>
<path d="M 280 232 A 4 4 0 0 0 284 228"/>
</g>
<g>
<line x1="224" x2="244" y1="104" y2="104"/>
</g>
<g>
<line x1="224" x2="244" y1="136" y2="136"/>
</g>
<g>
<line x1="268" x2="268" y1="108" y2="132"/>
</g>
<g>
<line x1="284" x2="284" y1="204" y2="216"/>
<line x1="284" x2="284" y1="216" y2="228"/>
<line x1="284" x2="380" y1="216" y2="216"/>
<line x1="380" x2="380" y1="204" y2="216"/>
<line x1="380" x2="380" y1="216" y2="228"/>
<path d="M 380 228 A 4 4 0 0 0 384 232"/>
<path d="M 384 200 A 4 4 0 0 0 380 204"/>
</g>
<g>
<line x1="292" x2="292" y1="12" y2="36"/>
</g>
<g>
<line x1="384" x2="416" y1="200" y2="200"/>
<path d="M 420 204 A 4 4 0 0 0 416 200"/>
</g>
<g>
<line x1="384" x2="416" y1="232" y2="232"/>
<path d="M 416 232 A 4 4 0 0 0 420 228"/>
</g>
<g>
<line x1="420" x2="420" y1="204" y2="228"/>
</g>
<g>
<text x="17" y="124">
Region
</text>
</g>
<g>
<text x="89" y="140">
1
</text>
</g>
<g>
<text x="193" y="140">
1+
</text>
</g>
<g>
<text x="217" y="92">
1+
</text>
</g>
<g>
<text x="225" y="28">
Account
</text>
</g>
<g>
<text x="225" y="156">
1
</text>
</g>
<g>
<text x="225" y="220">
Subnet
</text>
</g>
<g>
<text x="233" y="124">
VPC
</text>
</g>
<g>
<text x="257" y="60">
1
</text>
</g>
<g>
<text x="257" y="188">
1+
</text>
</g>
<g>
<text x="297" y="236">
1+
</text>
</g>
<g>
<text x="361" y="236">
1
</text>
</g>
<g>
<text x="393" y="220">
AZ
</text>
</g>
</svg>
