<svg class="bob" font-family="arial" font-size="14" height="1248" width="776" xmlns="http://www.w3.org/2000/svg">
<defs>
<marker id="triangle" markerHeight="8" markerWidth="8" orient="auto" refX="4" refY="2" viewBox="0 0 8 4">
<polygon class="fg_fill" points="0,0 0,4 8,2 0,0"/>
</marker>
<marker id="clear_triangle" markerHeight="10" markerWidth="10" orient="auto" refX="1" refY="7" viewBox="0 0 20 14">
<polygon class="bg_fill" points="2,2 2,12 18,7 2,2"/>
</marker>
<marker id="circle" markerHeight="5" markerWidth="5" orient="auto" refX="10" refY="10" viewBox="0 0 20 20">
<circle class="fg_fill" cx="10" cy="10" r="8"/>
</marker>
<marker id="square" markerHeight="5" markerWidth="5" orient="auto" refX="10" refY="10" viewBox="0 0 20 20">
<rect class="fg_fill" height="20" width="20" x="0" y="0"/>
</marker>
<marker id="open_circle" markerHeight="10" markerWidth="10" orient="auto" refX="10" refY="10" viewBox="0 0 20 20">
<circle class="bg_fill" cx="10" cy="10" r="4"/>
</marker>
<marker id="big_open_circle" markerHeight="20" markerWidth="20" orient="auto" refX="20" refY="20" viewBox="0 0 40 40">
<circle class="bg_fill" cx="20" cy="20" r="6"/>
</marker>
</defs>
<style type="text/css">

rect.backdrop {
    fill: white;
}
text{
    fill: black;
}

circle {
    fill: none;
    stroke: black;
    stroke-width: 2;
}

line {
    stroke: black;
    stroke-width: 2;
    stroke-opacity: 1;
    fill-opacity: 1;
    stroke-linecap: round;
    stroke-linejoin: miter;
}

path {
    fill: none;
    stroke: black;
    stroke-width: 2;
    stroke-opacity: 1;
    fill-opacity: 1;
    stroke-linecap: round;
    stroke-linejoin: miter;
}

line.dashed {
    stroke-dasharray: 5;
}

.fg_fill {
    fill: black;
}


.bg_fill {
    fill: white;
    stroke: black;
    stroke-width: 2;
}

tspan.head{
    fill: none;
    stroke: none;
}
    
</style>
<rect class="backdrop" height="1248" width="776" x="0" y="0"/>
<g>
<line x1="4" x2="4" y1="104" y2="136"/>
<line x1="4" x2="284" y1="104" y2="104"/>
<line x1="4" x2="20" y1="136" y2="136"/>
<line x1="20" x2="20" y1="136" y2="144"/>
<line x1="20" x2="36" y1="136" y2="136"/>
<line x1="36" x2="36" y1="136" y2="144"/>
<line x1="36" x2="52" y1="136" y2="136"/>
<line x1="52" x2="52" y1="136" y2="144"/>
<line x1="52" x2="68" y1="136" y2="136"/>
<line x1="68" x2="68" y1="136" y2="144"/>
<line x1="68" x2="84" y1="136" y2="136"/>
<line x1="84" x2="84" y1="136" y2="144"/>
<line x1="84" x2="100" y1="136" y2="136"/>
<line x1="100" x2="100" y1="136" y2="144"/>
<line x1="100" x2="116" y1="136" y2="136"/>
<line x1="116" x2="116" y1="136" y2="144"/>
<line x1="116" x2="132" y1="136" y2="136"/>
<line x1="132" x2="132" y1="136" y2="144"/>
<line x1="132" x2="148" y1="136" y2="136"/>
<line x1="148" x2="148" y1="136" y2="144"/>
<line x1="148" x2="164" y1="136" y2="136"/>
<line x1="164" x2="164" y1="136" y2="144"/>
<line x1="164" x2="180" y1="136" y2="136"/>
<line x1="180" x2="180" y1="136" y2="144"/>
<line x1="180" x2="196" y1="136" y2="136"/>
<line x1="196" x2="196" y1="136" y2="144"/>
<line x1="196" x2="212" y1="136" y2="136"/>
<line x1="212" x2="212" y1="136" y2="144"/>
<line x1="212" x2="228" y1="136" y2="136"/>
<line x1="228" x2="228" y1="136" y2="144"/>
<line x1="228" x2="244" y1="136" y2="136"/>
<line x1="244" x2="244" y1="136" y2="144"/>
<line x1="244" x2="260" y1="136" y2="136"/>
<line x1="260" x2="260" y1="136" y2="144"/>
<line x1="260" x2="316" y1="136" y2="136"/>
<line x1="284" x2="284" y1="76" y2="104"/>
<line x1="284" x2="300" y1="104" y2="104"/>
<line x1="300" x2="300" y1="92" y2="104"/>
<line x1="300" x2="316" y1="104" y2="104"/>
<line x1="316" x2="316" y1="104" y2="136"/>
<line class="dashed" x1="20" x2="20" y1="144" y2="1216"/>
<line class="dashed" x1="36" x2="36" y1="144" y2="1152"/>
<line class="dashed" x1="52" x2="52" y1="144" y2="1088"/>
<line class="dashed" x1="68" x2="68" y1="144" y2="1024"/>
<line class="dashed" x1="84" x2="84" y1="144" y2="960"/>
<line class="dashed" x1="100" x2="100" y1="144" y2="896"/>
<line class="dashed" x1="116" x2="116" y1="144" y2="832"/>
<line class="dashed" x1="132" x2="132" y1="144" y2="768"/>
<line class="dashed" x1="148" x2="148" y1="144" y2="704"/>
<line class="dashed" x1="164" x2="164" y1="144" y2="640"/>
<line class="dashed" x1="180" x2="180" y1="144" y2="576"/>
<line class="dashed" x1="196" x2="196" y1="144" y2="512"/>
<line class="dashed" x1="212" x2="212" y1="144" y2="448"/>
<line class="dashed" x1="228" x2="228" y1="144" y2="384"/>
<line class="dashed" x1="244" x2="244" y1="144" y2="320"/>
<line class="dashed" x1="260" x2="260" y1="144" y2="256"/>
<path d="M 288 72 A 4 4 0 0 0 284 76"/>
<path d="M 304 88 A 4 4 0 0 0 300 92"/>
</g>
<g>
<line x1="20" x2="20" y1="1220" y2="1216"/>
<path d="M 20 1220 A 4 4 0 0 0 24 1224"/>
</g>
<g>
<line x1="36" x2="36" y1="1156" y2="1152"/>
<path d="M 36 1156 A 4 4 0 0 0 40 1160"/>
</g>
<g>
<line x1="52" x2="52" y1="1092" y2="1088"/>
<path d="M 52 1092 A 4 4 0 0 0 56 1096"/>
</g>
<g>
<line x1="68" x2="68" y1="1028" y2="1024"/>
<path d="M 68 1028 A 4 4 0 0 0 72 1032"/>
</g>
<g>
<line x1="84" x2="84" y1="964" y2="960"/>
<path d="M 84 964 A 4 4 0 0 0 88 968"/>
</g>
<g>
<line x1="100" x2="100" y1="900" y2="896"/>
<path d="M 100 900 A 4 4 0 0 0 104 904"/>
</g>
<g>
<line x1="116" x2="116" y1="836" y2="832"/>
<path d="M 116 836 A 4 4 0 0 0 120 840"/>
</g>
<g>
<line x1="132" x2="132" y1="772" y2="768"/>
<path d="M 132 772 A 4 4 0 0 0 136 776"/>
</g>
<g>
<line x1="148" x2="148" y1="708" y2="704"/>
<path d="M 148 708 A 4 4 0 0 0 152 712"/>
</g>
<g>
<line x1="164" x2="164" y1="644" y2="640"/>
<path d="M 164 644 A 4 4 0 0 0 168 648"/>
</g>
<g>
<line x1="180" x2="180" y1="580" y2="576"/>
<path d="M 180 580 A 4 4 0 0 0 184 584"/>
</g>
<g>
<line x1="196" x2="196" y1="516" y2="512"/>
<path d="M 196 516 A 4 4 0 0 0 200 520"/>
</g>
<g>
<line x1="212" x2="212" y1="452" y2="448"/>
<path d="M 212 452 A 4 4 0 0 0 216 456"/>
</g>
<g>
<line x1="228" x2="228" y1="388" y2="384"/>
<path d="M 228 388 A 4 4 0 0 0 232 392"/>
</g>
<g>
<line x1="244" x2="244" y1="324" y2="320"/>
<path d="M 244 324 A 4 4 0 0 0 248 328"/>
</g>
<g>
<line marker-end="url(#triangle)" x1="252" x2="252" y1="28" y2="92"/>
<path d="M 256 24 A 4 4 0 0 0 252 28"/>
</g>
<g>
<line x1="256" x2="356" y1="24" y2="24"/>
<line x1="356" x2="356" y1="8" y2="24"/>
<line x1="356" x2="428" y1="8" y2="8"/>
<line x1="356" x2="356" y1="24" y2="40"/>
<line x1="356" x2="428" y1="40" y2="40"/>
<line x1="428" x2="428" y1="8" y2="24"/>
<line x1="428" x2="428" y1="24" y2="40"/>
<line x1="428" x2="520" y1="24" y2="24"/>
<path d="M 524 28 A 4 4 0 0 0 520 24"/>
</g>
<g>
<line x1="260" x2="260" y1="260" y2="256"/>
<path d="M 260 260 A 4 4 0 0 0 264 264"/>
</g>
<g>
<line marker-end="url(#triangle)" x1="284" x2="284" y1="160" y2="148"/>
<line x1="284" x2="284" y1="160" y2="196"/>
<path d="M 284 196 A 4 4 0 0 0 288 200"/>
</g>
<g>
<line x1="288" x2="488" y1="72" y2="72"/>
<path d="M 492 76 A 4 4 0 0 0 488 72"/>
</g>
<g>
<line x1="288" x2="488" y1="200" y2="200"/>
<path d="M 488 200 A 4 4 0 0 0 492 196"/>
</g>
<g>
<line marker-end="url(#triangle)" x1="300" x2="300" y1="160" y2="148"/>
<line x1="300" x2="300" y1="160" y2="180"/>
<path d="M 300 180 A 4 4 0 0 0 304 184"/>
</g>
<g>
<line x1="304" x2="328" y1="88" y2="88"/>
<path d="M 332 92 A 4 4 0 0 0 328 88"/>
</g>
<g>
<line x1="304" x2="328" y1="184" y2="184"/>
<path d="M 328 184 A 4 4 0 0 0 332 180"/>
</g>
<g>
<line x1="332" x2="332" y1="92" y2="180"/>
</g>
<g>
<line marker-end="url(#triangle)" x1="352" x2="356" y1="264" y2="264"/>
<line class="dashed" x1="264" x2="352" y1="264" y2="264"/>
</g>
<g>
<line marker-end="url(#triangle)" x1="352" x2="356" y1="328" y2="328"/>
<line class="dashed" x1="248" x2="352" y1="328" y2="328"/>
</g>
<g>
<line marker-end="url(#triangle)" x1="352" x2="356" y1="392" y2="392"/>
<line class="dashed" x1="232" x2="352" y1="392" y2="392"/>
</g>
<g>
<line marker-end="url(#triangle)" x1="352" x2="356" y1="456" y2="456"/>
<line class="dashed" x1="216" x2="352" y1="456" y2="456"/>
</g>
<g>
<line marker-end="url(#triangle)" x1="352" x2="356" y1="520" y2="520"/>
<line class="dashed" x1="200" x2="352" y1="520" y2="520"/>
</g>
<g>
<line marker-end="url(#triangle)" x1="352" x2="356" y1="584" y2="584"/>
<line class="dashed" x1="184" x2="352" y1="584" y2="584"/>
</g>
<g>
<line marker-end="url(#triangle)" x1="352" x2="356" y1="648" y2="648"/>
<line class="dashed" x1="168" x2="352" y1="648" y2="648"/>
</g>
<g>
<line marker-end="url(#triangle)" x1="352" x2="356" y1="712" y2="712"/>
<line class="dashed" x1="152" x2="352" y1="712" y2="712"/>
</g>
<g>
<line marker-end="url(#triangle)" x1="352" x2="356" y1="776" y2="776"/>
<line class="dashed" x1="136" x2="352" y1="776" y2="776"/>
</g>
<g>
<line marker-end="url(#triangle)" x1="352" x2="356" y1="840" y2="840"/>
<line class="dashed" x1="120" x2="352" y1="840" y2="840"/>
</g>
<g>
<line marker-end="url(#triangle)" x1="352" x2="356" y1="904" y2="904"/>
<line class="dashed" x1="104" x2="352" y1="904" y2="904"/>
</g>
<g>
<line marker-end="url(#triangle)" x1="352" x2="356" y1="968" y2="968"/>
<line class="dashed" x1="88" x2="352" y1="968" y2="968"/>
</g>
<g>
<line marker-end="url(#triangle)" x1="352" x2="356" y1="1032" y2="1032"/>
<line class="dashed" x1="72" x2="352" y1="1032" y2="1032"/>
</g>
<g>
<line marker-end="url(#triangle)" x1="352" x2="356" y1="1096" y2="1096"/>
<line class="dashed" x1="56" x2="352" y1="1096" y2="1096"/>
</g>
<g>
<line marker-end="url(#triangle)" x1="352" x2="356" y1="1160" y2="1160"/>
<line class="dashed" x1="40" x2="352" y1="1160" y2="1160"/>
</g>
<g>
<line marker-end="url(#triangle)" x1="352" x2="356" y1="1224" y2="1224"/>
<line class="dashed" x1="24" x2="352" y1="1224" y2="1224"/>
</g>
<g>
<line x1="364" x2="364" y1="248" y2="256"/>
<line x1="364" x2="368" y1="248" y2="248"/>
<line class="dashed" x1="364" x2="364" y1="256" y2="272"/>
<line class="dashed" x1="368" x2="424" y1="248" y2="248"/>
</g>
<g>
<line x1="364" x2="364" y1="280" y2="272"/>
<line x1="364" x2="368" y1="280" y2="280"/>
<line class="dashed" x1="368" x2="424" y1="280" y2="280"/>
</g>
<g>
<line x1="364" x2="364" y1="312" y2="320"/>
<line x1="364" x2="368" y1="312" y2="312"/>
<line class="dashed" x1="364" x2="364" y1="320" y2="336"/>
<line class="dashed" x1="368" x2="424" y1="312" y2="312"/>
</g>
<g>
<line x1="364" x2="364" y1="344" y2="336"/>
<line x1="364" x2="368" y1="344" y2="344"/>
<line class="dashed" x1="368" x2="424" y1="344" y2="344"/>
</g>
<g>
<line x1="364" x2="364" y1="376" y2="384"/>
<line x1="364" x2="368" y1="376" y2="376"/>
<line class="dashed" x1="364" x2="364" y1="384" y2="400"/>
<line class="dashed" x1="368" x2="424" y1="376" y2="376"/>
</g>
<g>
<line x1="364" x2="364" y1="408" y2="400"/>
<line x1="364" x2="368" y1="408" y2="408"/>
<line class="dashed" x1="368" x2="424" y1="408" y2="408"/>
</g>
<g>
<line x1="364" x2="364" y1="440" y2="448"/>
<line x1="364" x2="368" y1="440" y2="440"/>
<line class="dashed" x1="364" x2="364" y1="448" y2="464"/>
<line class="dashed" x1="368" x2="424" y1="440" y2="440"/>
</g>
<g>
<line x1="364" x2="364" y1="472" y2="464"/>
<line x1="364" x2="368" y1="472" y2="472"/>
<line class="dashed" x1="368" x2="424" y1="472" y2="472"/>
</g>
<g>
<line x1="364" x2="364" y1="504" y2="512"/>
<line x1="364" x2="368" y1="504" y2="504"/>
<line class="dashed" x1="364" x2="364" y1="512" y2="528"/>
<line class="dashed" x1="368" x2="424" y1="504" y2="504"/>
</g>
<g>
<line x1="364" x2="364" y1="536" y2="528"/>
<line x1="364" x2="368" y1="536" y2="536"/>
<line class="dashed" x1="368" x2="424" y1="536" y2="536"/>
</g>
<g>
<line x1="364" x2="364" y1="568" y2="576"/>
<line x1="364" x2="368" y1="568" y2="568"/>
<line class="dashed" x1="364" x2="364" y1="576" y2="592"/>
<line class="dashed" x1="368" x2="424" y1="568" y2="568"/>
</g>
<g>
<line x1="364" x2="364" y1="600" y2="592"/>
<line x1="364" x2="368" y1="600" y2="600"/>
<line class="dashed" x1="368" x2="424" y1="600" y2="600"/>
</g>
<g>
<line x1="364" x2="364" y1="632" y2="640"/>
<line x1="364" x2="368" y1="632" y2="632"/>
<line class="dashed" x1="364" x2="364" y1="640" y2="656"/>
<line class="dashed" x1="368" x2="424" y1="632" y2="632"/>
</g>
<g>
<line x1="364" x2="364" y1="664" y2="656"/>
<line x1="364" x2="368" y1="664" y2="664"/>
<line class="dashed" x1="368" x2="424" y1="664" y2="664"/>
</g>
<g>
<line x1="364" x2="364" y1="696" y2="704"/>
<line x1="364" x2="368" y1="696" y2="696"/>
<line class="dashed" x1="364" x2="364" y1="704" y2="720"/>
<line class="dashed" x1="368" x2="424" y1="696" y2="696"/>
</g>
<g>
<line x1="364" x2="364" y1="728" y2="720"/>
<line x1="364" x2="368" y1="728" y2="728"/>
<line class="dashed" x1="368" x2="424" y1="728" y2="728"/>
</g>
<g>
<line x1="364" x2="364" y1="760" y2="768"/>
<line x1="364" x2="368" y1="760" y2="760"/>
<line class="dashed" x1="364" x2="364" y1="768" y2="784"/>
<line class="dashed" x1="368" x2="424" y1="760" y2="760"/>
</g>
<g>
<line x1="364" x2="364" y1="792" y2="784"/>
<line x1="364" x2="368" y1="792" y2="792"/>
<line class="dashed" x1="368" x2="424" y1="792" y2="792"/>
</g>
<g>
<line x1="364" x2="364" y1="824" y2="832"/>
<line x1="364" x2="368" y1="824" y2="824"/>
<line class="dashed" x1="364" x2="364" y1="832" y2="848"/>
<line class="dashed" x1="368" x2="424" y1="824" y2="824"/>
</g>
<g>
<line x1="364" x2="364" y1="856" y2="848"/>
<line x1="364" x2="368" y1="856" y2="856"/>
<line class="dashed" x1="368" x2="424" y1="856" y2="856"/>
</g>
<g>
<line x1="364" x2="364" y1="888" y2="896"/>
<line x1="364" x2="368" y1="888" y2="888"/>
<line class="dashed" x1="364" x2="364" y1="896" y2="912"/>
<line class="dashed" x1="368" x2="424" y1="888" y2="888"/>
</g>
<g>
<line x1="364" x2="364" y1="920" y2="912"/>
<line x1="364" x2="368" y1="920" y2="920"/>
<line class="dashed" x1="368" x2="424" y1="920" y2="920"/>
</g>
<g>
<line x1="364" x2="364" y1="952" y2="960"/>
<line x1="364" x2="368" y1="952" y2="952"/>
<line class="dashed" x1="364" x2="364" y1="960" y2="976"/>
<line class="dashed" x1="368" x2="424" y1="952" y2="952"/>
</g>
<g>
<line x1="364" x2="364" y1="984" y2="976"/>
<line x1="364" x2="368" y1="984" y2="984"/>
<line class="dashed" x1="368" x2="424" y1="984" y2="984"/>
</g>
<g>
<line x1="364" x2="364" y1="1016" y2="1024"/>
<line x1="364" x2="368" y1="1016" y2="1016"/>
<line class="dashed" x1="364" x2="364" y1="1024" y2="1040"/>
<line class="dashed" x1="368" x2="424" y1="1016" y2="1016"/>
</g>
<g>
<line x1="364" x2="364" y1="1048" y2="1040"/>
<line x1="364" x2="368" y1="1048" y2="1048"/>
<line class="dashed" x1="368" x2="424" y1="1048" y2="1048"/>
</g>
<g>
<line x1="364" x2="364" y1="1080" y2="1088"/>
<line x1="364" x2="368" y1="1080" y2="1080"/>
<line class="dashed" x1="364" x2="364" y1="1088" y2="1104"/>
<line class="dashed" x1="368" x2="424" y1="1080" y2="1080"/>
</g>
<g>
<line x1="364" x2="364" y1="1112" y2="1104"/>
<line x1="364" x2="368" y1="1112" y2="1112"/>
<line class="dashed" x1="368" x2="424" y1="1112" y2="1112"/>
</g>
<g>
<line x1="364" x2="364" y1="1144" y2="1152"/>
<line x1="364" x2="368" y1="1144" y2="1144"/>
<line class="dashed" x1="364" x2="364" y1="1152" y2="1168"/>
<line class="dashed" x1="368" x2="424" y1="1144" y2="1144"/>
</g>
<g>
<line x1="364" x2="364" y1="1176" y2="1168"/>
<line x1="364" x2="368" y1="1176" y2="1176"/>
<line class="dashed" x1="368" x2="424" y1="1176" y2="1176"/>
</g>
<g>
<line x1="364" x2="364" y1="1208" y2="1216"/>
<line x1="364" x2="368" y1="1208" y2="1208"/>
<line class="dashed" x1="364" x2="364" y1="1216" y2="1232"/>
<line class="dashed" x1="368" x2="424" y1="1208" y2="1208"/>
</g>
<g>
<line x1="364" x2="364" y1="1240" y2="1232"/>
<line x1="364" x2="368" y1="1240" y2="1240"/>
<line class="dashed" x1="368" x2="424" y1="1240" y2="1240"/>
</g>
<g>
<line x1="428" x2="424" y1="248" y2="248"/>
<line x1="428" x2="428" y1="248" y2="256"/>
<line class="dashed" x1="428" x2="428" y1="256" y2="272"/>
</g>
<g>
<line x1="428" x2="424" y1="280" y2="280"/>
<line x1="428" x2="428" y1="280" y2="272"/>
</g>
<g>
<line x1="428" x2="424" y1="312" y2="312"/>
<line x1="428" x2="428" y1="312" y2="320"/>
<line class="dashed" x1="428" x2="428" y1="320" y2="336"/>
</g>
<g>
<line x1="428" x2="424" y1="344" y2="344"/>
<line x1="428" x2="428" y1="344" y2="336"/>
</g>
<g>
<line x1="428" x2="424" y1="376" y2="376"/>
<line x1="428" x2="428" y1="376" y2="384"/>
<line class="dashed" x1="428" x2="428" y1="384" y2="400"/>
</g>
<g>
<line x1="428" x2="424" y1="408" y2="408"/>
<line x1="428" x2="428" y1="408" y2="400"/>
</g>
<g>
<line x1="428" x2="424" y1="440" y2="440"/>
<line x1="428" x2="428" y1="440" y2="448"/>
<line class="dashed" x1="428" x2="428" y1="448" y2="464"/>
</g>
<g>
<line x1="428" x2="424" y1="472" y2="472"/>
<line x1="428" x2="428" y1="472" y2="464"/>
</g>
<g>
<line x1="428" x2="424" y1="504" y2="504"/>
<line x1="428" x2="428" y1="504" y2="512"/>
<line class="dashed" x1="428" x2="428" y1="512" y2="528"/>
</g>
<g>
<line x1="428" x2="424" y1="536" y2="536"/>
<line x1="428" x2="428" y1="536" y2="528"/>
</g>
<g>
<line x1="428" x2="424" y1="568" y2="568"/>
<line x1="428" x2="428" y1="568" y2="576"/>
<line class="dashed" x1="428" x2="428" y1="576" y2="592"/>
</g>
<g>
<line x1="428" x2="424" y1="600" y2="600"/>
<line x1="428" x2="428" y1="600" y2="592"/>
</g>
<g>
<line x1="428" x2="424" y1="632" y2="632"/>
<line x1="428" x2="428" y1="632" y2="640"/>
<line class="dashed" x1="428" x2="428" y1="640" y2="656"/>
</g>
<g>
<line x1="428" x2="424" y1="664" y2="664"/>
<line x1="428" x2="428" y1="664" y2="656"/>
</g>
<g>
<line x1="428" x2="424" y1="696" y2="696"/>
<line x1="428" x2="428" y1="696" y2="704"/>
<line class="dashed" x1="428" x2="428" y1="704" y2="720"/>
</g>
<g>
<line x1="428" x2="424" y1="728" y2="728"/>
<line x1="428" x2="428" y1="728" y2="720"/>
</g>
<g>
<line x1="428" x2="424" y1="760" y2="760"/>
<line x1="428" x2="428" y1="760" y2="768"/>
<line class="dashed" x1="428" x2="428" y1="768" y2="784"/>
</g>
<g>
<line x1="428" x2="424" y1="792" y2="792"/>
<line x1="428" x2="428" y1="792" y2="784"/>
</g>
<g>
<line x1="428" x2="424" y1="824" y2="824"/>
<line x1="428" x2="428" y1="824" y2="832"/>
<line class="dashed" x1="428" x2="428" y1="832" y2="848"/>
</g>
<g>
<line x1="428" x2="424" y1="856" y2="856"/>
<line x1="428" x2="428" y1="856" y2="848"/>
</g>
<g>
<line x1="428" x2="424" y1="888" y2="888"/>
<line x1="428" x2="428" y1="888" y2="896"/>
<line class="dashed" x1="428" x2="428" y1="896" y2="912"/>
</g>
<g>
<line x1="428" x2="424" y1="920" y2="920"/>
<line x1="428" x2="428" y1="920" y2="912"/>
</g>
<g>
<line x1="428" x2="424" y1="952" y2="952"/>
<line x1="428" x2="428" y1="952" y2="960"/>
<line class="dashed" x1="428" x2="428" y1="960" y2="976"/>
</g>
<g>
<line x1="428" x2="424" y1="984" y2="984"/>
<line x1="428" x2="428" y1="984" y2="976"/>
</g>
<g>
<line x1="428" x2="424" y1="1016" y2="1016"/>
<line x1="428" x2="428" y1="1016" y2="1024"/>
<line class="dashed" x1="428" x2="428" y1="1024" y2="1040"/>
</g>
<g>
<line x1="428" x2="424" y1="1048" y2="1048"/>
<line x1="428" x2="428" y1="1048" y2="1040"/>
</g>
<g>
<line x1="428" x2="424" y1="1080" y2="1080"/>
<line x1="428" x2="428" y1="1080" y2="1088"/>
<line class="dashed" x1="428" x2="428" y1="1088" y2="1104"/>
</g>
<g>
<line x1="428" x2="424" y1="1112" y2="1112"/>
<line x1="428" x2="428" y1="1112" y2="1104"/>
</g>
<g>
<line x1="428" x2="424" y1="1144" y2="1144"/>
<line x1="428" x2="428" y1="1144" y2="1152"/>
<line class="dashed" x1="428" x2="428" y1="1152" y2="1168"/>
</g>
<g>
<line x1="428" x2="424" y1="1176" y2="1176"/>
<line x1="428" x2="428" y1="1176" y2="1168"/>
</g>
<g>
<line x1="428" x2="424" y1="1208" y2="1208"/>
<line x1="428" x2="428" y1="1208" y2="1216"/>
<line class="dashed" x1="428" x2="428" y1="1216" y2="1232"/>
</g>
<g>
<line x1="428" x2="424" y1="1240" y2="1240"/>
<line x1="428" x2="428" y1="1240" y2="1232"/>
</g>
<g>
<line marker-end="url(#triangle)" x1="440" x2="436" y1="264" y2="264"/>
<line class="dashed" x1="440" x2="512" y1="264" y2="264"/>
<path d="M 512 264 A 4 4 0 0 0 516 260"/>
</g>
<g>
<line marker-end="url(#triangle)" x1="440" x2="436" y1="328" y2="328"/>
<line class="dashed" x1="440" x2="528" y1="328" y2="328"/>
<path d="M 528 328 A 4 4 0 0 0 532 324"/>
</g>
<g>
<line marker-end="url(#triangle)" x1="440" x2="436" y1="392" y2="392"/>
<line class="dashed" x1="440" x2="544" y1="392" y2="392"/>
<path d="M 544 392 A 4 4 0 0 0 548 388"/>
</g>
<g>
<line marker-end="url(#triangle)" x1="440" x2="436" y1="456" y2="456"/>
<line class="dashed" x1="440" x2="560" y1="456" y2="456"/>
<path d="M 560 456 A 4 4 0 0 0 564 452"/>
</g>
<g>
<line marker-end="url(#triangle)" x1="440" x2="436" y1="520" y2="520"/>
<line class="dashed" x1="440" x2="576" y1="520" y2="520"/>
<path d="M 576 520 A 4 4 0 0 0 580 516"/>
</g>
<g>
<line marker-end="url(#triangle)" x1="440" x2="436" y1="584" y2="584"/>
<line class="dashed" x1="440" x2="592" y1="584" y2="584"/>
<path d="M 592 584 A 4 4 0 0 0 596 580"/>
</g>
<g>
<line marker-end="url(#triangle)" x1="440" x2="436" y1="648" y2="648"/>
<line class="dashed" x1="440" x2="608" y1="648" y2="648"/>
<path d="M 608 648 A 4 4 0 0 0 612 644"/>
</g>
<g>
<line marker-end="url(#triangle)" x1="440" x2="436" y1="712" y2="712"/>
<line class="dashed" x1="440" x2="624" y1="712" y2="712"/>
<path d="M 624 712 A 4 4 0 0 0 628 708"/>
</g>
<g>
<line marker-end="url(#triangle)" x1="440" x2="436" y1="776" y2="776"/>
<line class="dashed" x1="440" x2="640" y1="776" y2="776"/>
<path d="M 640 776 A 4 4 0 0 0 644 772"/>
</g>
<g>
<line marker-end="url(#triangle)" x1="440" x2="436" y1="840" y2="840"/>
<line class="dashed" x1="440" x2="656" y1="840" y2="840"/>
<path d="M 656 840 A 4 4 0 0 0 660 836"/>
</g>
<g>
<line marker-end="url(#triangle)" x1="440" x2="436" y1="904" y2="904"/>
<line class="dashed" x1="440" x2="672" y1="904" y2="904"/>
<path d="M 672 904 A 4 4 0 0 0 676 900"/>
</g>
<g>
<line marker-end="url(#triangle)" x1="440" x2="436" y1="968" y2="968"/>
<line class="dashed" x1="440" x2="688" y1="968" y2="968"/>
<path d="M 688 968 A 4 4 0 0 0 692 964"/>
</g>
<g>
<line marker-end="url(#triangle)" x1="440" x2="436" y1="1032" y2="1032"/>
<line class="dashed" x1="440" x2="704" y1="1032" y2="1032"/>
<path d="M 704 1032 A 4 4 0 0 0 708 1028"/>
</g>
<g>
<line marker-end="url(#triangle)" x1="440" x2="436" y1="1096" y2="1096"/>
<line class="dashed" x1="440" x2="720" y1="1096" y2="1096"/>
<path d="M 720 1096 A 4 4 0 0 0 724 1092"/>
</g>
<g>
<line marker-end="url(#triangle)" x1="440" x2="436" y1="1160" y2="1160"/>
<line class="dashed" x1="440" x2="736" y1="1160" y2="1160"/>
<path d="M 736 1160 A 4 4 0 0 0 740 1156"/>
</g>
<g>
<line marker-end="url(#triangle)" x1="440" x2="436" y1="1224" y2="1224"/>
<line class="dashed" x1="440" x2="752" y1="1224" y2="1224"/>
<path d="M 752 1224 A 4 4 0 0 0 756 1220"/>
</g>
<g>
<line x1="444" x2="444" y1="92" y2="180"/>
<path d="M 444 180 A 4 4 0 0 0 448 184"/>
<path d="M 448 88 A 4 4 0 0 0 444 92"/>
</g>
<g>
<line x1="448" x2="472" y1="88" y2="88"/>
<path d="M 476 92 A 4 4 0 0 0 472 88"/>
</g>
<g>
<line x1="448" x2="472" y1="184" y2="184"/>
<path d="M 472 184 A 4 4 0 0 0 476 180"/>
</g>
<g>
<line x1="460" x2="460" y1="104" y2="136"/>
<line x1="460" x2="476" y1="104" y2="104"/>
<line x1="460" x2="492" y1="136" y2="136"/>
<line x1="476" x2="476" y1="92" y2="104"/>
<line x1="476" x2="772" y1="104" y2="104"/>
<line x1="492" x2="492" y1="136" y2="196"/>
<line x1="492" x2="516" y1="136" y2="136"/>
<line x1="516" x2="516" y1="136" y2="144"/>
<line x1="516" x2="532" y1="136" y2="136"/>
<line x1="532" x2="532" y1="136" y2="144"/>
<line x1="532" x2="548" y1="136" y2="136"/>
<line x1="548" x2="548" y1="136" y2="144"/>
<line x1="548" x2="564" y1="136" y2="136"/>
<line x1="564" x2="564" y1="136" y2="144"/>
<line x1="564" x2="580" y1="136" y2="136"/>
<line x1="580" x2="580" y1="136" y2="144"/>
<line x1="580" x2="596" y1="136" y2="136"/>
<line x1="596" x2="596" y1="136" y2="144"/>
<line x1="596" x2="612" y1="136" y2="136"/>
<line x1="612" x2="612" y1="136" y2="144"/>
<line x1="612" x2="628" y1="136" y2="136"/>
<line x1="628" x2="628" y1="136" y2="144"/>
<line x1="628" x2="644" y1="136" y2="136"/>
<line x1="644" x2="644" y1="136" y2="144"/>
<line x1="644" x2="660" y1="136" y2="136"/>
<line x1="660" x2="660" y1="136" y2="144"/>
<line x1="660" x2="676" y1="136" y2="136"/>
<line x1="676" x2="676" y1="136" y2="144"/>
<line x1="676" x2="692" y1="136" y2="136"/>
<line x1="692" x2="692" y1="136" y2="144"/>
<line x1="692" x2="708" y1="136" y2="136"/>
<line x1="708" x2="708" y1="136" y2="144"/>
<line x1="708" x2="724" y1="136" y2="136"/>
<line x1="724" x2="724" y1="136" y2="144"/>
<line x1="724" x2="740" y1="136" y2="136"/>
<line x1="740" x2="740" y1="136" y2="144"/>
<line x1="740" x2="756" y1="136" y2="136"/>
<line x1="756" x2="756" y1="136" y2="144"/>
<line x1="756" x2="772" y1="136" y2="136"/>
<line x1="772" x2="772" y1="104" y2="136"/>
<line class="dashed" x1="516" x2="516" y1="144" y2="256"/>
<line class="dashed" x1="532" x2="532" y1="144" y2="320"/>
<line class="dashed" x1="548" x2="548" y1="144" y2="384"/>
<line class="dashed" x1="564" x2="564" y1="144" y2="448"/>
<line class="dashed" x1="580" x2="580" y1="144" y2="512"/>
<line class="dashed" x1="596" x2="596" y1="144" y2="576"/>
<line class="dashed" x1="612" x2="612" y1="144" y2="640"/>
<line class="dashed" x1="628" x2="628" y1="144" y2="704"/>
<line class="dashed" x1="644" x2="644" y1="144" y2="768"/>
<line class="dashed" x1="660" x2="660" y1="144" y2="832"/>
<line class="dashed" x1="676" x2="676" y1="144" y2="896"/>
<line class="dashed" x1="692" x2="692" y1="144" y2="960"/>
<line class="dashed" x1="708" x2="708" y1="144" y2="1024"/>
<line class="dashed" x1="724" x2="724" y1="144" y2="1088"/>
<line class="dashed" x1="740" x2="740" y1="144" y2="1152"/>
<line class="dashed" x1="756" x2="756" y1="144" y2="1216"/>
</g>
<g>
<line marker-end="url(#triangle)" x1="476" x2="476" y1="160" y2="148"/>
<line x1="476" x2="476" y1="160" y2="180"/>
</g>
<g>
<line marker-end="url(#triangle)" x1="492" x2="492" y1="76" y2="92"/>
</g>
<g>
<line x1="516" x2="516" y1="260" y2="256"/>
</g>
<g>
<line marker-end="url(#triangle)" x1="524" x2="524" y1="28" y2="92"/>
</g>
<g>
<line x1="532" x2="532" y1="324" y2="320"/>
</g>
<g>
<line x1="548" x2="548" y1="388" y2="384"/>
</g>
<g>
<line x1="564" x2="564" y1="452" y2="448"/>
</g>
<g>
<line x1="580" x2="580" y1="516" y2="512"/>
</g>
<g>
<line x1="596" x2="596" y1="580" y2="576"/>
</g>
<g>
<line x1="612" x2="612" y1="644" y2="640"/>
</g>
<g>
<line x1="628" x2="628" y1="708" y2="704"/>
</g>
<g>
<line x1="644" x2="644" y1="772" y2="768"/>
</g>
<g>
<line x1="660" x2="660" y1="836" y2="832"/>
</g>
<g>
<line x1="676" x2="676" y1="900" y2="896"/>
</g>
<g>
<line x1="692" x2="692" y1="964" y2="960"/>
</g>
<g>
<line x1="708" x2="708" y1="1028" y2="1024"/>
</g>
<g>
<line x1="724" x2="724" y1="1092" y2="1088"/>
</g>
<g>
<line x1="740" x2="740" y1="1156" y2="1152"/>
</g>
<g>
<line x1="756" x2="756" y1="1220" y2="1216"/>
</g>
<g>
<text x="17" y="124">
CG island
</text>
</g>
<g>
<text x="217" y="44">
0.5
</text>
</g>
<g>
<text x="305" y="252">
0.06
</text>
</g>
<g>
<text x="305" y="316">
0.06
</text>
</g>
<g>
<text x="305" y="380">
0.06
</text>
</g>
<g>
<text x="305" y="444">
0.06
</text>
</g>
<g>
<text x="305" y="508">
0.06
</text>
</g>
<g>
<text x="305" y="572">
0.06
</text>
</g>
<g>
<text x="305" y="636">
0.06
</text>
</g>
<g>
<text x="305" y="700">
0.06
</text>
</g>
<g>
<text x="305" y="764">
0.06
</text>
</g>
<g>
<text x="305" y="828">
0.06
</text>
</g>
<g>
<text x="305" y="892">
0.06
</text>
</g>
<g>
<text x="305" y="956">
0.06
</text>
</g>
<g>
<text x="305" y="1020">
0.06
</text>
</g>
<g>
<text x="305" y="1084">
0.06
</text>
</g>
<g>
<text x="305" y="1148">
0.06
</text>
</g>
<g>
<text x="305" y="1212">
0.06
</text>
</g>
<g>
<text x="337" y="140">
0.999
</text>
</g>
<g>
<text x="369" y="28">
SOURCE
</text>
</g>
<g>
<text x="369" y="92">
0.001
</text>
</g>
<g>
<text x="369" y="188">
0.0001
</text>
</g>
<g>
<text x="385" y="140">
0.9999
</text>
</g>
<g>
<text x="385" y="268">
AA
</text>
</g>
<g>
<text x="385" y="332">
AC
</text>
</g>
<g>
<text x="385" y="396">
AT
</text>
</g>
<g>
<text x="385" y="460">
AG
</text>
</g>
<g>
<text x="385" y="524">
CA
</text>
</g>
<g>
<text x="385" y="588">
CC
</text>
</g>
<g>
<text x="385" y="652">
CT
</text>
</g>
<g>
<text x="385" y="716">
CG
</text>
</g>
<g>
<text x="385" y="780">
TA
</text>
</g>
<g>
<text x="385" y="844">
TC
</text>
</g>
<g>
<text x="385" y="908">
TT
</text>
</g>
<g>
<text x="385" y="972">
TG
</text>
</g>
<g>
<text x="385" y="1036">
GA
</text>
</g>
<g>
<text x="385" y="1100">
GC
</text>
</g>
<g>
<text x="385" y="1164">
GT
</text>
</g>
<g>
<text x="385" y="1228">
GG
</text>
</g>
<g>
<text x="449" y="252">
0.07
</text>
</g>
<g>
<text x="449" y="316">
0.07
</text>
</g>
<g>
<text x="449" y="380">
0.07
</text>
</g>
<g>
<text x="449" y="444">
0.07
</text>
</g>
<g>
<text x="449" y="508">
0.07
</text>
</g>
<g>
<text x="449" y="572">
0.07
</text>
</g>
<g>
<text x="449" y="636">
0.07
</text>
</g>
<g>
<text x="449" y="700">
0.00
</text>
</g>
<g>
<text x="449" y="764">
0.07
</text>
</g>
<g>
<text x="449" y="828">
0.07
</text>
</g>
<g>
<text x="449" y="892">
0.07
</text>
</g>
<g>
<text x="449" y="956">
0.07
</text>
</g>
<g>
<text x="449" y="1020">
0.07
</text>
</g>
<g>
<text x="449" y="1084">
0.00
</text>
</g>
<g>
<text x="449" y="1148">
0.07
</text>
</g>
<g>
<text x="449" y="1212">
0.07
</text>
</g>
<g>
<text x="473" y="124">
non-CG island
</text>
</g>
<g>
<text x="537" y="44">
0.5
</text>
</g>
</svg>
