<svg class="bob" font-family="arial" font-size="14" height="224" width="1096" xmlns="http://www.w3.org/2000/svg">
<defs>
<marker id="triangle" markerHeight="8" markerWidth="8" orient="auto" refX="4" refY="2" viewBox="0 0 8 4">
<polygon class="fg_fill" points="0,0 0,4 8,2 0,0"/>
</marker>
<marker id="clear_triangle" markerHeight="10" markerWidth="10" orient="auto" refX="1" refY="7" viewBox="0 0 20 14">
<polygon class="bg_fill" points="2,2 2,12 18,7 2,2"/>
</marker>
<marker id="circle" markerHeight="5" markerWidth="5" orient="auto" refX="10" refY="10" viewBox="0 0 20 20">
<circle class="fg_fill" cx="10" cy="10" r="8"/>
</marker>
<marker id="square" markerHeight="5" markerWidth="5" orient="auto" refX="10" refY="10" viewBox="0 0 20 20">
<rect class="fg_fill" height="20" width="20" x="0" y="0"/>
</marker>
<marker id="open_circle" markerHeight="10" markerWidth="10" orient="auto" refX="10" refY="10" viewBox="0 0 20 20">
<circle class="bg_fill" cx="10" cy="10" r="4"/>
</marker>
<marker id="big_open_circle" markerHeight="20" markerWidth="20" orient="auto" refX="20" refY="20" viewBox="0 0 40 40">
<circle class="bg_fill" cx="20" cy="20" r="6"/>
</marker>
</defs>
<style type="text/css">

rect.backdrop {
    fill: white;
}
text{
    fill: black;
}

circle {
    fill: none;
    stroke: black;
    stroke-width: 2;
}

line {
    stroke: black;
    stroke-width: 2;
    stroke-opacity: 1;
    fill-opacity: 1;
    stroke-linecap: round;
    stroke-linejoin: miter;
}

path {
    fill: none;
    stroke: black;
    stroke-width: 2;
    stroke-opacity: 1;
    fill-opacity: 1;
    stroke-linecap: round;
    stroke-linejoin: miter;
}

line.dashed {
    stroke-dasharray: 5;
}

.fg_fill {
    fill: black;
}


.bg_fill {
    fill: white;
    stroke: black;
    stroke-width: 2;
}

tspan.head{
    fill: none;
    stroke: none;
}
    
</style>
<rect class="backdrop" height="224" width="1096" x="0" y="0"/>
<g>
<line x1="4" x2="4" y1="120" y2="152"/>
<line x1="4" x2="76" y1="120" y2="120"/>
<line x1="4" x2="76" y1="152" y2="152"/>
<line x1="76" x2="76" y1="120" y2="136"/>
<line x1="76" x2="76" y1="136" y2="152"/>
<line x1="76" x2="92" y1="136" y2="136"/>
<line x1="92" x2="92" y1="92" y2="136"/>
<line x1="92" x2="92" y1="136" y2="180"/>
<path d="M 92 180 A 4 4 0 0 0 96 184"/>
<path d="M 96 88 A 4 4 0 0 0 92 92"/>
</g>
<g>
<line marker-end="url(#triangle)" x1="96" x2="132" y1="88" y2="88"/>
</g>
<g>
<line marker-end="url(#triangle)" x1="96" x2="132" y1="184" y2="184"/>
</g>
<g>
<line x1="140" x2="140" y1="56" y2="104"/>
<line x1="140" x2="212" y1="56" y2="56"/>
<line x1="140" x2="212" y1="104" y2="104"/>
<line x1="212" x2="212" y1="56" y2="72"/>
<line x1="212" x2="212" y1="72" y2="88"/>
<line marker-end="url(#triangle)" x1="212" x2="316" y1="72" y2="72"/>
<line x1="212" x2="212" y1="88" y2="104"/>
<line x1="212" x2="216" y1="88" y2="88"/>
<path d="M 222 92 A 8 8 0 0 0 216 88"/>
</g>
<g>
<line x1="140" x2="140" y1="168" y2="216"/>
<line x1="140" x2="212" y1="168" y2="168"/>
<line x1="140" x2="212" y1="216" y2="216"/>
<line x1="212" x2="212" y1="168" y2="184"/>
<line x1="212" x2="212" y1="184" y2="200"/>
<line x1="212" x2="216" y1="184" y2="184"/>
<line x1="212" x2="212" y1="200" y2="216"/>
<line marker-end="url(#triangle)" x1="212" x2="316" y1="200" y2="200"/>
<path d="M 216 184 A 8 8 0 0 0 222 180"/>
</g>
<g>
<line x1="222" x2="244" y1="92" y2="136"/>
<line x1="244" x2="222" y1="136" y2="180"/>
<line x1="244" x2="266" y1="136" y2="180"/>
<line x1="266" x2="244" y1="92" y2="136"/>
<path d="M 266 180 A 8 8 0 0 0 272 184"/>
<path d="M 272 88 A 8 8 0 0 0 266 92"/>
</g>
<g>
<line marker-end="url(#triangle)" x1="272" x2="316" y1="88" y2="88"/>
</g>
<g>
<line marker-end="url(#triangle)" x1="272" x2="316" y1="184" y2="184"/>
</g>
<g>
<line x1="324" x2="324" y1="56" y2="104"/>
<line x1="324" x2="396" y1="56" y2="56"/>
<line x1="324" x2="396" y1="104" y2="104"/>
<line x1="396" x2="396" y1="56" y2="72"/>
<line x1="396" x2="396" y1="72" y2="88"/>
<line marker-end="url(#triangle)" x1="396" x2="500" y1="72" y2="72"/>
<line x1="396" x2="396" y1="88" y2="104"/>
<line x1="396" x2="400" y1="88" y2="88"/>
<path d="M 406 92 A 8 8 0 0 0 400 88"/>
</g>
<g>
<line x1="324" x2="324" y1="168" y2="216"/>
<line x1="324" x2="396" y1="168" y2="168"/>
<line x1="324" x2="396" y1="216" y2="216"/>
<line x1="396" x2="396" y1="168" y2="184"/>
<line x1="396" x2="396" y1="184" y2="200"/>
<line x1="396" x2="400" y1="184" y2="184"/>
<line x1="396" x2="396" y1="200" y2="216"/>
<line marker-end="url(#triangle)" x1="396" x2="500" y1="200" y2="200"/>
<path d="M 400 184 A 8 8 0 0 0 406 180"/>
</g>
<g>
<line x1="406" x2="428" y1="92" y2="136"/>
<line x1="428" x2="406" y1="136" y2="180"/>
<line x1="428" x2="450" y1="136" y2="180"/>
<line x1="450" x2="428" y1="92" y2="136"/>
<path d="M 450 180 A 8 8 0 0 0 456 184"/>
<path d="M 456 88 A 8 8 0 0 0 450 92"/>
</g>
<g>
<line marker-end="url(#triangle)" x1="456" x2="500" y1="88" y2="88"/>
</g>
<g>
<line marker-end="url(#triangle)" x1="456" x2="500" y1="184" y2="184"/>
</g>
<g>
<line x1="508" x2="508" y1="56" y2="104"/>
<line x1="508" x2="588" y1="56" y2="56"/>
<line x1="508" x2="588" y1="104" y2="104"/>
<line x1="588" x2="588" y1="56" y2="72"/>
<line x1="588" x2="588" y1="72" y2="88"/>
<line marker-end="url(#triangle)" x1="588" x2="700" y1="72" y2="72"/>
<line x1="588" x2="588" y1="88" y2="104"/>
<line x1="588" x2="592" y1="88" y2="88"/>
<path d="M 598 92 A 8 8 0 0 0 592 88"/>
</g>
<g>
<line x1="508" x2="508" y1="168" y2="216"/>
<line x1="508" x2="588" y1="168" y2="168"/>
<line x1="508" x2="588" y1="216" y2="216"/>
<line x1="588" x2="588" y1="168" y2="184"/>
<line x1="588" x2="588" y1="184" y2="200"/>
<line x1="588" x2="592" y1="184" y2="184"/>
<line x1="588" x2="588" y1="200" y2="216"/>
<line marker-end="url(#triangle)" x1="588" x2="700" y1="200" y2="200"/>
<path d="M 592 184 A 8 8 0 0 0 598 180"/>
</g>
<g>
<line x1="598" x2="620" y1="92" y2="136"/>
<line x1="620" x2="598" y1="136" y2="180"/>
<line x1="620" x2="642" y1="136" y2="180"/>
<line x1="642" x2="620" y1="92" y2="136"/>
<path d="M 642 180 A 8 8 0 0 0 648 184"/>
<path d="M 648 88 A 8 8 0 0 0 642 92"/>
</g>
<g>
<line marker-end="url(#triangle)" x1="648" x2="700" y1="88" y2="88"/>
</g>
<g>
<line marker-end="url(#triangle)" x1="648" x2="700" y1="184" y2="184"/>
</g>
<g>
<line x1="708" x2="708" y1="56" y2="104"/>
<line x1="708" x2="780" y1="56" y2="56"/>
<line x1="708" x2="780" y1="104" y2="104"/>
<line x1="780" x2="780" y1="56" y2="72"/>
<line x1="780" x2="780" y1="72" y2="88"/>
<line marker-end="url(#triangle)" x1="780" x2="884" y1="72" y2="72"/>
<line x1="780" x2="780" y1="88" y2="104"/>
<line x1="780" x2="784" y1="88" y2="88"/>
<path d="M 790 92 A 8 8 0 0 0 784 88"/>
</g>
<g>
<line x1="708" x2="708" y1="168" y2="216"/>
<line x1="708" x2="780" y1="168" y2="168"/>
<line x1="708" x2="780" y1="216" y2="216"/>
<line x1="780" x2="780" y1="168" y2="184"/>
<line x1="780" x2="780" y1="184" y2="200"/>
<line x1="780" x2="784" y1="184" y2="184"/>
<line x1="780" x2="780" y1="200" y2="216"/>
<line marker-end="url(#triangle)" x1="780" x2="884" y1="200" y2="200"/>
<path d="M 784 184 A 8 8 0 0 0 790 180"/>
</g>
<g>
<line x1="790" x2="812" y1="92" y2="136"/>
<line x1="812" x2="790" y1="136" y2="180"/>
<line x1="812" x2="834" y1="136" y2="180"/>
<line x1="834" x2="812" y1="92" y2="136"/>
<path d="M 834 180 A 8 8 0 0 0 840 184"/>
<path d="M 840 88 A 8 8 0 0 0 834 92"/>
</g>
<g>
<line marker-end="url(#triangle)" x1="840" x2="884" y1="88" y2="88"/>
</g>
<g>
<line marker-end="url(#triangle)" x1="840" x2="884" y1="184" y2="184"/>
</g>
<g>
<line x1="892" x2="892" y1="56" y2="104"/>
<line x1="892" x2="964" y1="56" y2="56"/>
<line x1="892" x2="964" y1="104" y2="104"/>
<line x1="964" x2="964" y1="56" y2="88"/>
<line x1="964" x2="964" y1="88" y2="104"/>
<line x1="964" x2="1008" y1="88" y2="88"/>
<path d="M 1012 92 A 4 4 0 0 0 1008 88"/>
</g>
<g>
<line x1="892" x2="892" y1="168" y2="216"/>
<line x1="892" x2="964" y1="168" y2="168"/>
<line x1="892" x2="964" y1="216" y2="216"/>
<line x1="964" x2="964" y1="168" y2="184"/>
<line x1="964" x2="964" y1="184" y2="216"/>
<line x1="964" x2="1008" y1="184" y2="184"/>
<path d="M 1008 184 A 4 4 0 0 0 1012 180"/>
</g>
<g>
<line x1="1012" x2="1012" y1="92" y2="136"/>
<line x1="1012" x2="1012" y1="136" y2="180"/>
<line marker-end="url(#triangle)" x1="1012" x2="1028" y1="136" y2="136"/>
</g>
<g>
<line x1="1036" x2="1036" y1="120" y2="152"/>
<line x1="1036" x2="1092" y1="120" y2="120"/>
<line x1="1036" x2="1092" y1="152" y2="152"/>
<line x1="1092" x2="1092" y1="120" y2="152"/>
</g>
<g>
<text x="1" y="12">
*
</text>
</g>
<g>
<text x="1" y="28">
*
</text>
</g>
<g>
<text x="17" y="12">
HMM hidden states: [hitter bat, fouler bat]
</text>
</g>
<g>
<text x="17" y="28">
HMM emitted sequence: [foul, hit, miss, hit, hit]
</text>
</g>
<g>
<text x="17" y="140">
SOURCE
</text>
</g>
<g>
<text x="153" y="76">
hitter
</text>
</g>
<g>
<text x="153" y="92">
bat
</text>
</g>
<g>
<text x="153" y="140">
foul
</text>
</g>
<g>
<text x="153" y="188">
fouler
</text>
</g>
<g>
<text x="153" y="204">
bat
</text>
</g>
<g>
<text x="337" y="76">
hitter
</text>
</g>
<g>
<text x="337" y="92">
bat
</text>
</g>
<g>
<text x="337" y="140">
hit
</text>
</g>
<g>
<text x="337" y="188">
fouler
</text>
</g>
<g>
<text x="337" y="204">
bat
</text>
</g>
<g>
<text x="521" y="76">
hitter
</text>
</g>
<g>
<text x="521" y="92">
bat
</text>
</g>
<g>
<text x="521" y="140">
miss
</text>
</g>
<g>
<text x="521" y="188">
fouler
</text>
</g>
<g>
<text x="521" y="204">
bat
</text>
</g>
<g>
<text x="721" y="76">
hitter
</text>
</g>
<g>
<text x="721" y="92">
bat
</text>
</g>
<g>
<text x="721" y="140">
hit
</text>
</g>
<g>
<text x="721" y="188">
fouler
</text>
</g>
<g>
<text x="721" y="204">
bat
</text>
</g>
<g>
<text x="905" y="76">
hitter
</text>
</g>
<g>
<text x="905" y="92">
bat
</text>
</g>
<g>
<text x="905" y="140">
hit
</text>
</g>
<g>
<text x="905" y="188">
fouler
</text>
</g>
<g>
<text x="905" y="204">
bat
</text>
</g>
<g>
<text x="1049" y="140">
SINK
</text>
</g>
</svg>
