<svg class="bob" font-family="arial" font-size="14" height="608" width="312" xmlns="http://www.w3.org/2000/svg">
<defs>
<marker id="triangle" markerHeight="8" markerWidth="8" orient="auto" refX="4" refY="2" viewBox="0 0 8 4">
<polygon class="fg_fill" points="0,0 0,4 8,2 0,0"/>
</marker>
<marker id="clear_triangle" markerHeight="10" markerWidth="10" orient="auto" refX="1" refY="7" viewBox="0 0 20 14">
<polygon class="bg_fill" points="2,2 2,12 18,7 2,2"/>
</marker>
<marker id="circle" markerHeight="5" markerWidth="5" orient="auto" refX="10" refY="10" viewBox="0 0 20 20">
<circle class="fg_fill" cx="10" cy="10" r="8"/>
</marker>
<marker id="square" markerHeight="5" markerWidth="5" orient="auto" refX="10" refY="10" viewBox="0 0 20 20">
<rect class="fg_fill" height="20" width="20" x="0" y="0"/>
</marker>
<marker id="open_circle" markerHeight="10" markerWidth="10" orient="auto" refX="10" refY="10" viewBox="0 0 20 20">
<circle class="bg_fill" cx="10" cy="10" r="4"/>
</marker>
<marker id="big_open_circle" markerHeight="20" markerWidth="20" orient="auto" refX="20" refY="20" viewBox="0 0 40 40">
<circle class="bg_fill" cx="20" cy="20" r="6"/>
</marker>
</defs>
<style type="text/css">

rect.backdrop {
    fill: white;
}
text{
    fill: black;
}

circle {
    fill: none;
    stroke: black;
    stroke-width: 2;
}

line {
    stroke: black;
    stroke-width: 2;
    stroke-opacity: 1;
    fill-opacity: 1;
    stroke-linecap: round;
    stroke-linejoin: miter;
}

path {
    fill: none;
    stroke: black;
    stroke-width: 2;
    stroke-opacity: 1;
    fill-opacity: 1;
    stroke-linecap: round;
    stroke-linejoin: miter;
}

line.dashed {
    stroke-dasharray: 5;
}

.fg_fill {
    fill: black;
}


.bg_fill {
    fill: white;
    stroke: black;
    stroke-width: 2;
}

tspan.head{
    fill: none;
    stroke: none;
}
    
</style>
<rect class="backdrop" height="608" width="312" x="0" y="0"/>
<g>
<line x1="4" x2="4" y1="96" y2="208"/>
</g>
<g>
<line x1="4" x2="4" y1="556" y2="596"/>
<path d="M 4 596 A 4 4 0 0 0 8 600"/>
<path d="M 8 552 A 4 4 0 0 0 4 556"/>
</g>
<g>
<line x1="8" x2="60" y1="552" y2="552"/>
<line x1="60" x2="72" y1="552" y2="552"/>
<line x1="92" x2="60" y1="488" y2="552"/>
<line x1="92" x2="124" y1="488" y2="552"/>
<line x1="92" x2="136" y1="488" y2="488"/>
<line x1="96" x2="124" y1="552" y2="552"/>
<line x1="124" x2="160" y1="552" y2="552"/>
<path d="M 76 556 A 4 4 0 0 0 72 552"/>
<path d="M 96 552 A 4 4 0 0 0 92 556"/>
<path d="M 136 488 A 4 4 0 0 0 140 484"/>
<path d="M 164 556 A 4 4 0 0 0 160 552"/>
</g>
<g>
<line x1="8" x2="72" y1="600" y2="600"/>
<path d="M 72 600 A 4 4 0 0 0 76 596"/>
</g>
<g>
<line x1="20" x2="20" y1="96" y2="208"/>
</g>
<g>
<line x1="32" x2="40" y1="72" y2="72"/>
</g>
<g>
<line x1="36" x2="36" y1="152" y2="208"/>
<line x1="52" x2="36" y1="120" y2="152"/>
</g>
<g>
<line x1="44" x2="44" y1="444" y2="484"/>
<path d="M 44 484 A 4 4 0 0 0 48 488"/>
<path d="M 48 440 A 4 4 0 0 0 44 444"/>
</g>
<g>
<line x1="48" x2="92" y1="440" y2="440"/>
<line x1="92" x2="136" y1="440" y2="440"/>
<line x1="124" x2="92" y1="376" y2="440"/>
<line x1="124" x2="168" y1="376" y2="376"/>
<line x1="124" x2="212" y1="376" y2="552"/>
<line x1="184" x2="212" y1="552" y2="552"/>
<line x1="212" x2="248" y1="552" y2="552"/>
<path d="M 140 444 A 4 4 0 0 0 136 440"/>
<path d="M 168 376 A 4 4 0 0 0 172 372"/>
<path d="M 184 552 A 4 4 0 0 0 180 556"/>
<path d="M 252 556 A 4 4 0 0 0 248 552"/>
</g>
<g>
<line x1="48" x2="92" y1="488" y2="488"/>
</g>
<g>
<line x1="52" x2="52" y1="96" y2="120"/>
</g>
<g>
<line x1="52" x2="52" y1="152" y2="208"/>
<line x1="68" x2="52" y1="120" y2="152"/>
</g>
<g>
<line x1="68" x2="68" y1="96" y2="120"/>
</g>
<g>
<line x1="68" x2="68" y1="184" y2="208"/>
<line x1="100" x2="68" y1="120" y2="184"/>
</g>
<g>
<line x1="76" x2="76" y1="332" y2="372"/>
<path d="M 76 372 A 4 4 0 0 0 80 376"/>
<path d="M 80 328 A 4 4 0 0 0 76 332"/>
</g>
<g>
<line x1="76" x2="76" y1="556" y2="596"/>
</g>
<g>
<line x1="80" x2="88" y1="40" y2="40"/>
</g>
<g>
<line x1="80" x2="168" y1="328" y2="328"/>
<path d="M 172 332 A 4 4 0 0 0 168 328"/>
</g>
<g>
<line x1="80" x2="124" y1="376" y2="376"/>
</g>
<g>
<line x1="84" x2="84" y1="184" y2="208"/>
<line x1="116" x2="84" y1="120" y2="184"/>
</g>
<g>
<line x1="92" x2="92" y1="556" y2="596"/>
<path d="M 92 596 A 4 4 0 0 0 96 600"/>
</g>
<g>
<line x1="96" x2="160" y1="600" y2="600"/>
<path d="M 160 600 A 4 4 0 0 0 164 596"/>
</g>
<g>
<line x1="100" x2="100" y1="96" y2="120"/>
</g>
<g>
<line x1="116" x2="116" y1="96" y2="120"/>
</g>
<g>
<line x1="140" x2="140" y1="444" y2="484"/>
</g>
<g>
<line x1="164" x2="164" y1="556" y2="596"/>
</g>
<g>
<line x1="172" x2="172" y1="332" y2="372"/>
</g>
<g>
<line x1="180" x2="180" y1="556" y2="596"/>
<path d="M 180 596 A 4 4 0 0 0 184 600"/>
</g>
<g>
<line x1="184" x2="248" y1="600" y2="600"/>
<path d="M 248 600 A 4 4 0 0 0 252 596"/>
</g>
<g>
<line x1="252" x2="252" y1="556" y2="596"/>
</g>
<g>
<text x="1" y="12">
Step 1: Align and remove indels
</text>
</g>
<g>
<text x="1" y="44">
A
</text>
</g>
<g>
<text x="1" y="60">
A
</text>
</g>
<g>
<text x="1" y="76">
A
</text>
</g>
<g>
<text x="1" y="92">
✓
</text>
</g>
<g>
<text x="1" y="220">
A
</text>
</g>
<g>
<text x="1" y="236">
A
</text>
</g>
<g>
<text x="1" y="252">
A
</text>
</g>
<g>
<text x="1" y="300">
Step 2: Place new sequences into tree
</text>
</g>
<g>
<text x="17" y="44">
C
</text>
</g>
<g>
<text x="17" y="60">
C
</text>
</g>
<g>
<text x="17" y="76">
T
</text>
</g>
<g>
<text x="17" y="92">
✓
</text>
</g>
<g>
<text x="17" y="220">
C
</text>
</g>
<g>
<text x="17" y="236">
C
</text>
</g>
<g>
<text x="17" y="252">
T
</text>
</g>
<g>
<text x="17" y="588">
ACTGGT
</text>
</g>
<g>
<text x="33" y="44">
T
</text>
</g>
<g>
<text x="33" y="60">
T
</text>
</g>
<g>
<text x="33" y="92">
✗
</text>
</g>
<g>
<text x="33" y="220">
T
</text>
</g>
<g>
<text x="33" y="236">
T
</text>
</g>
<g>
<text x="33" y="252">
T
</text>
</g>
<g>
<text x="33" y="572">
Cat
</text>
</g>
<g>
<text x="49" y="44">
T
</text>
</g>
<g>
<text x="49" y="60">
T
</text>
</g>
<g>
<text x="49" y="76">
T
</text>
</g>
<g>
<text x="49" y="92">
✓
</text>
</g>
<g>
<text x="49" y="220">
G
</text>
</g>
<g>
<text x="49" y="236">
G
</text>
</g>
<g>
<text x="49" y="252">
C
</text>
</g>
<g>
<text x="57" y="460">
AncestorB
</text>
</g>
<g>
<text x="65" y="44">
G
</text>
</g>
<g>
<text x="65" y="60">
G
</text>
</g>
<g>
<text x="65" y="76">
C
</text>
</g>
<g>
<text x="65" y="92">
✓
</text>
</g>
<g>
<text x="65" y="220">
G
</text>
</g>
<g>
<text x="65" y="236">
C
</text>
</g>
<g>
<text x="65" y="252">
C
</text>
</g>
<g>
<text x="65" y="476">
??????
</text>
</g>
<g>
<text x="81" y="60">
G
</text>
</g>
<g>
<text x="81" y="76">
G
</text>
</g>
<g>
<text x="81" y="92">
✗
</text>
</g>
<g>
<text x="81" y="220">
T
</text>
</g>
<g>
<text x="81" y="236">
T
</text>
</g>
<g>
<text x="81" y="252">
C
</text>
</g>
<g>
<text x="89" y="348">
AncestorA
</text>
</g>
<g>
<text x="97" y="44">
G
</text>
</g>
<g>
<text x="97" y="60">
C
</text>
</g>
<g>
<text x="97" y="76">
C
</text>
</g>
<g>
<text x="97" y="92">
✓
</text>
</g>
<g>
<text x="97" y="364">
??????
</text>
</g>
<g>
<text x="105" y="588">
ACTGCT
</text>
</g>
<g>
<text x="113" y="44">
T
</text>
</g>
<g>
<text x="113" y="60">
T
</text>
</g>
<g>
<text x="113" y="76">
C
</text>
</g>
<g>
<text x="113" y="92">
✓
</text>
</g>
<g>
<text x="113" y="572">
Lion
</text>
</g>
<g>
<text x="193" y="588">
ATTCCC
</text>
</g>
<g>
<text x="201" y="572">
Bear
</text>
</g>
</svg>
