<svg class="bob" font-family="arial" font-size="14" height="112" width="360" xmlns="http://www.w3.org/2000/svg">
<defs>
<marker id="triangle" markerHeight="8" markerWidth="8" orient="auto" refX="4" refY="2" viewBox="0 0 8 4">
<polygon class="fg_fill" points="0,0 0,4 8,2 0,0"/>
</marker>
<marker id="clear_triangle" markerHeight="10" markerWidth="10" orient="auto" refX="1" refY="7" viewBox="0 0 20 14">
<polygon class="bg_fill" points="2,2 2,12 18,7 2,2"/>
</marker>
<marker id="circle" markerHeight="5" markerWidth="5" orient="auto" refX="10" refY="10" viewBox="0 0 20 20">
<circle class="fg_fill" cx="10" cy="10" r="8"/>
</marker>
<marker id="square" markerHeight="5" markerWidth="5" orient="auto" refX="10" refY="10" viewBox="0 0 20 20">
<rect class="fg_fill" height="20" width="20" x="0" y="0"/>
</marker>
<marker id="open_circle" markerHeight="10" markerWidth="10" orient="auto" refX="10" refY="10" viewBox="0 0 20 20">
<circle class="bg_fill" cx="10" cy="10" r="4"/>
</marker>
<marker id="big_open_circle" markerHeight="20" markerWidth="20" orient="auto" refX="20" refY="20" viewBox="0 0 40 40">
<circle class="bg_fill" cx="20" cy="20" r="6"/>
</marker>
</defs>
<style type="text/css">

rect.backdrop {
    fill: white;
}
text{
    fill: black;
}

circle {
    fill: none;
    stroke: black;
    stroke-width: 2;
}

line {
    stroke: black;
    stroke-width: 2;
    stroke-opacity: 1;
    fill-opacity: 1;
    stroke-linecap: round;
    stroke-linejoin: miter;
}

path {
    fill: none;
    stroke: black;
    stroke-width: 2;
    stroke-opacity: 1;
    fill-opacity: 1;
    stroke-linecap: round;
    stroke-linejoin: miter;
}

line.dashed {
    stroke-dasharray: 5;
}

.fg_fill {
    fill: black;
}


.bg_fill {
    fill: white;
    stroke: black;
    stroke-width: 2;
}

tspan.head{
    fill: none;
    stroke: none;
}
    
</style>
<rect class="backdrop" height="112" width="360" x="0" y="0"/>
<g>
<line x1="48" x2="80" y1="8" y2="8"/>
</g>
<g>
<line x1="48" x2="80" y1="40" y2="40"/>
</g>
<g>
<line x1="48" x2="80" y1="72" y2="72"/>
</g>
<g>
<line x1="48" x2="80" y1="104" y2="104"/>
</g>
<g>
<line x1="192" x2="232" y1="8" y2="8"/>
</g>
<g>
<line x1="192" x2="240" y1="40" y2="40"/>
<path d="M 240 40 A 4 4 0 0 0 244 36"/>
</g>
<g>
<line x1="192" x2="220" y1="72" y2="72"/>
<line x1="220" x2="220" y1="60" y2="72"/>
<line x1="220" x2="220" y1="72" y2="84"/>
<path d="M 220 84 A 4 4 0 0 0 224 88"/>
<path d="M 224 56 A 4 4 0 0 0 220 60"/>
</g>
<g>
<line x1="192" x2="232" y1="104" y2="104"/>
</g>
<g>
<line x1="224" x2="256" y1="56" y2="56"/>
<path d="M 256 56 A 4 4 0 0 0 260 52"/>
</g>
<g>
<line x1="224" x2="240" y1="88" y2="88"/>
<path d="M 244 92 A 4 4 0 0 0 240 88"/>
</g>
<g>
<line x1="244" x2="244" y1="16" y2="36"/>
</g>
<g>
<line x1="260" x2="260" y1="16" y2="52"/>
</g>
<g>
<text x="1" y="12">
RoleA
</text>
</g>
<g>
<text x="1" y="44">
RoleB
</text>
</g>
<g>
<text x="1" y="76">
RoleC
</text>
</g>
<g>
<text x="1" y="108">
RoleD
</text>
</g>
<g>
<text x="89" y="12">
RoleBinding1
</text>
</g>
<g>
<text x="89" y="44">
RoleBinding2
</text>
</g>
<g>
<text x="89" y="76">
RoleBinding3
</text>
</g>
<g>
<text x="89" y="108">
RoleBinding4
</text>
</g>
<g>
<text x="241" y="12">
userA
</text>
</g>
<g>
<text x="241" y="108">
serviceAccountB
</text>
</g>
</svg>
