<?xml version="1.0" encoding="UTF-8" standalone="no"?>
<!DOCTYPE svg PUBLIC "-//W3C//DTD SVG 1.1//EN"
 "http://www.w3.org/Graphics/SVG/1.1/DTD/svg11.dtd">
<!-- Generated by graphviz version 2.40.1 (0)
 -->
<!-- Title: G Pages: 1 -->
<svg width="317pt" height="200pt"
 viewBox="0.00 0.00 317.00 200.00" xmlns="http://www.w3.org/2000/svg" xmlns:xlink="http://www.w3.org/1999/xlink">
<g id="graph0" class="graph" transform="scale(1 1) rotate(0) translate(4 196)">
<title>G</title>
<polygon fill="#ffffff" stroke="transparent" points="-4,4 -4,-196 313,-196 313,4 -4,4"/>
<!-- N11 -->
<g id="node1" class="node">
<title>N11</title>
<ellipse fill="none" stroke="#000000" cx="102.5" cy="-108.5" rx="14.5" ry="14.5"/>
<text text-anchor="middle" x="102.5" y="-106" font-family="Courier,monospace" font-weight="bold" font-size="10.00" fill="#000000">N11</text>
</g>
<!-- N2 -->
<g id="node2" class="node">
<title>N2</title>
<ellipse fill="none" stroke="#000000" cx="198.5" cy="-154.5" rx="14.5" ry="14.5"/>
<text text-anchor="middle" x="198.5" y="-152" font-family="Courier,monospace" font-weight="bold" font-size="10.00" fill="#000000">N2</text>
</g>
<!-- N11&#45;&#45;N2 -->
<g id="edge2" class="edge">
<title>N11&#45;&#45;N2</title>
<path fill="none" stroke="#000000" d="M115.8484,-114.8961C134.1895,-123.6845 166.9837,-139.3984 185.265,-148.1582"/>
<text text-anchor="middle" x="150.5" y="-140.5" font-family="Courier,monospace" font-weight="bold" font-size="10.00" fill="#000000">4.0</text>
</g>
<!-- v5 -->
<g id="node9" class="node">
<title>v5</title>
<ellipse fill="none" stroke="#000000" cx="198.5" cy="-97.5" rx="14.5" ry="14.5"/>
<text text-anchor="middle" x="198.5" y="-95" font-family="Courier,monospace" font-weight="bold" font-size="10.00" fill="#000000">v5</text>
</g>
<!-- N11&#45;&#45;v5 -->
<g id="edge3" class="edge">
<title>N11&#45;&#45;v5</title>
<path fill="none" stroke="#000000" d="M116.2135,-103.338C121.9346,-101.4333 128.7028,-99.4976 135,-98.5 151.6615,-95.8603 171.089,-96.0187 184.025,-96.5735"/>
<text text-anchor="middle" x="150.5" y="-101.5" font-family="Courier,monospace" font-weight="bold" font-size="10.00" fill="#000000">7.0</text>
</g>
<!-- v0 -->
<g id="node4" class="node">
<title>v0</title>
<ellipse fill="none" stroke="#000000" cx="294.5" cy="-177.5" rx="14.5" ry="14.5"/>
<text text-anchor="middle" x="294.5" y="-175" font-family="Courier,monospace" font-weight="bold" font-size="10.00" fill="#000000">v0</text>
</g>
<!-- N2&#45;&#45;v0 -->
<g id="edge6" class="edge">
<title>N2&#45;&#45;v0</title>
<path fill="none" stroke="#000000" d="M212.6651,-157.8937C230.8155,-162.2423 262.0984,-169.7371 280.2768,-174.0923"/>
<text text-anchor="middle" x="246.5" y="-171.5" font-family="Courier,monospace" font-weight="bold" font-size="10.00" fill="#000000">11.0</text>
</g>
<!-- v1 -->
<g id="node5" class="node">
<title>v1</title>
<ellipse fill="none" stroke="#000000" cx="294.5" cy="-130.5" rx="14.5" ry="14.5"/>
<text text-anchor="middle" x="294.5" y="-128" font-family="Courier,monospace" font-weight="bold" font-size="10.00" fill="#000000">v1</text>
</g>
<!-- N2&#45;&#45;v1 -->
<g id="edge7" class="edge">
<title>N2&#45;&#45;v1</title>
<path fill="none" stroke="#000000" d="M212.6651,-150.9587C230.8155,-146.4211 262.0984,-138.6004 280.2768,-134.0558"/>
<text text-anchor="middle" x="246.5" y="-148.5" font-family="Courier,monospace" font-weight="bold" font-size="10.00" fill="#000000">2.0</text>
</g>
<!-- N7 -->
<g id="node3" class="node">
<title>N7</title>
<ellipse fill="none" stroke="#000000" cx="14.5" cy="-61.5" rx="14.5" ry="14.5"/>
<text text-anchor="middle" x="14.5" y="-59" font-family="Courier,monospace" font-weight="bold" font-size="10.00" fill="#000000">N7</text>
</g>
<!-- N7&#45;&#45;N11 -->
<g id="edge1" class="edge">
<title>N7&#45;&#45;N11</title>
<path fill="none" stroke="#000000" d="M27.4847,-68.435C44.1226,-77.3211 72.7985,-92.6367 89.462,-101.5365"/>
<text text-anchor="middle" x="58.5" y="-93.5" font-family="Courier,monospace" font-weight="bold" font-size="10.00" fill="#000000">3.0</text>
</g>
<!-- v3 -->
<g id="node7" class="node">
<title>v3</title>
<ellipse fill="none" stroke="#000000" cx="102.5" cy="-61.5" rx="14.5" ry="14.5"/>
<text text-anchor="middle" x="102.5" y="-59" font-family="Courier,monospace" font-weight="bold" font-size="10.00" fill="#000000">v3</text>
</g>
<!-- N7&#45;&#45;v3 -->
<g id="edge4" class="edge">
<title>N7&#45;&#45;v3</title>
<path fill="none" stroke="#000000" d="M29.0314,-61.5C45.3364,-61.5 71.6332,-61.5 87.947,-61.5"/>
<text text-anchor="middle" x="58.5" y="-64.5" font-family="Courier,monospace" font-weight="bold" font-size="10.00" fill="#000000">3.0</text>
</g>
<!-- v4 -->
<g id="node8" class="node">
<title>v4</title>
<ellipse fill="none" stroke="#000000" cx="102.5" cy="-14.5" rx="14.5" ry="14.5"/>
<text text-anchor="middle" x="102.5" y="-12" font-family="Courier,monospace" font-weight="bold" font-size="10.00" fill="#000000">v4</text>
</g>
<!-- N7&#45;&#45;v4 -->
<g id="edge8" class="edge">
<title>N7&#45;&#45;v4</title>
<path fill="none" stroke="#000000" d="M27.4847,-54.565C44.1226,-45.6789 72.7985,-30.3633 89.462,-21.4635"/>
<text text-anchor="middle" x="58.5" y="-47.5" font-family="Courier,monospace" font-weight="bold" font-size="10.00" fill="#000000">4.0</text>
</g>
<!-- v2 -->
<g id="node6" class="node">
<title>v2</title>
<ellipse fill="none" stroke="#000000" cx="102.5" cy="-165.5" rx="14.5" ry="14.5"/>
<text text-anchor="middle" x="102.5" y="-163" font-family="Courier,monospace" font-weight="bold" font-size="10.00" fill="#000000">v2</text>
</g>
<!-- v2&#45;&#45;N2 -->
<g id="edge5" class="edge">
<title>v2&#45;&#45;N2</title>
<path fill="none" stroke="#000000" d="M117.0803,-163.8293C135.124,-161.7618 165.6756,-158.2611 183.7825,-156.1864"/>
<text text-anchor="middle" x="150.5" y="-164.5" font-family="Courier,monospace" font-weight="bold" font-size="10.00" fill="#000000">10.0</text>
</g>
</g>
</svg>
