<svg class="bob" font-family="arial" font-size="14" height="320" width="384" xmlns="http://www.w3.org/2000/svg">
<defs>
<marker id="triangle" markerHeight="8" markerWidth="8" orient="auto" refX="4" refY="2" viewBox="0 0 8 4">
<polygon class="fg_fill" points="0,0 0,4 8,2 0,0"/>
</marker>
<marker id="clear_triangle" markerHeight="10" markerWidth="10" orient="auto" refX="1" refY="7" viewBox="0 0 20 14">
<polygon class="bg_fill" points="2,2 2,12 18,7 2,2"/>
</marker>
<marker id="circle" markerHeight="5" markerWidth="5" orient="auto" refX="10" refY="10" viewBox="0 0 20 20">
<circle class="fg_fill" cx="10" cy="10" r="8"/>
</marker>
<marker id="square" markerHeight="5" markerWidth="5" orient="auto" refX="10" refY="10" viewBox="0 0 20 20">
<rect class="fg_fill" height="20" width="20" x="0" y="0"/>
</marker>
<marker id="open_circle" markerHeight="10" markerWidth="10" orient="auto" refX="10" refY="10" viewBox="0 0 20 20">
<circle class="bg_fill" cx="10" cy="10" r="4"/>
</marker>
<marker id="big_open_circle" markerHeight="20" markerWidth="20" orient="auto" refX="20" refY="20" viewBox="0 0 40 40">
<circle class="bg_fill" cx="20" cy="20" r="6"/>
</marker>
</defs>
<style type="text/css">

rect.backdrop {
    fill: white;
}
text{
    fill: black;
}

circle {
    fill: none;
    stroke: black;
    stroke-width: 2;
}

line {
    stroke: black;
    stroke-width: 2;
    stroke-opacity: 1;
    fill-opacity: 1;
    stroke-linecap: round;
    stroke-linejoin: miter;
}

path {
    fill: none;
    stroke: black;
    stroke-width: 2;
    stroke-opacity: 1;
    fill-opacity: 1;
    stroke-linecap: round;
    stroke-linejoin: miter;
}

line.dashed {
    stroke-dasharray: 5;
}

.fg_fill {
    fill: black;
}


.bg_fill {
    fill: white;
    stroke: black;
    stroke-width: 2;
}

tspan.head{
    fill: none;
    stroke: none;
}
    
</style>
<rect class="backdrop" height="320" width="384" x="0" y="0"/>
<g>
<line x1="16" x2="48" y1="272" y2="208"/>
</g>
<g>
<line x1="16" x2="32" y1="280" y2="280"/>
</g>
<g>
<line x1="16" x2="24" y1="288" y2="304"/>
</g>
<g>
<line x1="32" x2="48" y1="312" y2="312"/>
</g>
<g>
<line x1="40" x2="56" y1="280" y2="280"/>
</g>
<g>
<line x1="56" x2="72" y1="312" y2="312"/>
</g>
<g>
<line x1="64" x2="88" y1="192" y2="144"/>
</g>
<g>
<line x1="64" x2="80" y1="200" y2="200"/>
</g>
<g>
<line x1="64" x2="80" y1="208" y2="240"/>
</g>
<g>
<line x1="64" x2="80" y1="280" y2="280"/>
</g>
<g>
<line x1="80" x2="96" y1="312" y2="312"/>
</g>
<g>
<line x1="88" x2="104" y1="200" y2="200"/>
</g>
<g>
<line x1="88" x2="104" y1="248" y2="248"/>
</g>
<g>
<line x1="88" x2="104" y1="280" y2="280"/>
</g>
<g>
<line x1="104" x2="128" y1="128" y2="80"/>
</g>
<g>
<line x1="104" x2="120" y1="136" y2="136"/>
</g>
<g>
<line x1="104" x2="112" y1="144" y2="160"/>
</g>
<g>
<line x1="112" x2="128" y1="200" y2="200"/>
</g>
<g>
<line x1="112" x2="128" y1="248" y2="248"/>
</g>
<g>
<line x1="112" x2="128" y1="280" y2="280"/>
</g>
<g>
<line x1="120" x2="136" y1="168" y2="168"/>
</g>
<g>
<line x1="128" x2="144" y1="136" y2="136"/>
</g>
<g>
<line x1="136" x2="152" y1="200" y2="200"/>
</g>
<g>
<line x1="144" x2="152" y1="64" y2="48"/>
</g>
<g>
<line x1="144" x2="160" y1="72" y2="72"/>
</g>
<g>
<line x1="144" x2="152" y1="80" y2="96"/>
</g>
<g>
<line x1="152" x2="168" y1="136" y2="136"/>
</g>
<g>
<line x1="168" x2="184" y1="72" y2="72"/>
</g>
<g>
<text x="1" y="12">
Recursive breaking down into smaller problems.
</text>
</g>
<g>
<text x="1" y="284">
17
</text>
</g>
<g>
<text x="25" y="316">
4
</text>
</g>
<g>
<text x="33" y="284">
5
</text>
</g>
<g>
<text x="49" y="204">
16
</text>
</g>
<g>
<text x="49" y="316">
3
</text>
</g>
<g>
<text x="57" y="284">
4
</text>
</g>
<g>
<text x="73" y="316">
2
</text>
</g>
<g>
<text x="81" y="204">
4
</text>
</g>
<g>
<text x="81" y="252">
3
</text>
</g>
<g>
<text x="81" y="284">
3
</text>
</g>
<g>
<text x="89" y="140">
15
</text>
</g>
<g>
<text x="97" y="316">
1
</text>
</g>
<g>
<text x="105" y="204">
3
</text>
</g>
<g>
<text x="105" y="252">
2
</text>
</g>
<g>
<text x="105" y="284">
2
</text>
</g>
<g>
<text x="113" y="172">
2
</text>
</g>
<g>
<text x="121" y="140">
3
</text>
</g>
<g>
<text x="129" y="76">
14
</text>
</g>
<g>
<text x="129" y="204">
2
</text>
</g>
<g>
<text x="129" y="252">
1
</text>
</g>
<g>
<text x="129" y="284">
1
</text>
</g>
<g>
<text x="137" y="172">
1
</text>
</g>
<g>
<text x="145" y="140">
2
</text>
</g>
<g>
<text x="153" y="44">
13
</text>
</g>
<g>
<text x="153" y="108">
1
</text>
</g>
<g>
<text x="153" y="204">
1
</text>
</g>
<g>
<text x="161" y="76">
2
</text>
</g>
<g>
<text x="169" y="140">
1
</text>
</g>
<g>
<text x="185" y="76">
1
</text>
</g>
</svg>
