<svg class="bob" font-family="arial" font-size="14" height="240" width="1056" xmlns="http://www.w3.org/2000/svg">
<defs>
<marker id="triangle" markerHeight="8" markerWidth="8" orient="auto" refX="4" refY="2" viewBox="0 0 8 4">
<polygon class="fg_fill" points="0,0 0,4 8,2 0,0"/>
</marker>
<marker id="clear_triangle" markerHeight="10" markerWidth="10" orient="auto" refX="1" refY="7" viewBox="0 0 20 14">
<polygon class="bg_fill" points="2,2 2,12 18,7 2,2"/>
</marker>
<marker id="circle" markerHeight="5" markerWidth="5" orient="auto" refX="10" refY="10" viewBox="0 0 20 20">
<circle class="fg_fill" cx="10" cy="10" r="8"/>
</marker>
<marker id="square" markerHeight="5" markerWidth="5" orient="auto" refX="10" refY="10" viewBox="0 0 20 20">
<rect class="fg_fill" height="20" width="20" x="0" y="0"/>
</marker>
<marker id="open_circle" markerHeight="10" markerWidth="10" orient="auto" refX="10" refY="10" viewBox="0 0 20 20">
<circle class="bg_fill" cx="10" cy="10" r="4"/>
</marker>
<marker id="big_open_circle" markerHeight="20" markerWidth="20" orient="auto" refX="20" refY="20" viewBox="0 0 40 40">
<circle class="bg_fill" cx="20" cy="20" r="6"/>
</marker>
</defs>
<style type="text/css">

rect.backdrop {
    fill: white;
}
text{
    fill: black;
}

circle {
    fill: none;
    stroke: black;
    stroke-width: 2;
}

line {
    stroke: black;
    stroke-width: 2;
    stroke-opacity: 1;
    fill-opacity: 1;
    stroke-linecap: round;
    stroke-linejoin: miter;
}

path {
    fill: none;
    stroke: black;
    stroke-width: 2;
    stroke-opacity: 1;
    fill-opacity: 1;
    stroke-linecap: round;
    stroke-linejoin: miter;
}

line.dashed {
    stroke-dasharray: 5;
}

.fg_fill {
    fill: black;
}


.bg_fill {
    fill: white;
    stroke: black;
    stroke-width: 2;
}

tspan.head{
    fill: none;
    stroke: none;
}
    
</style>
<rect class="backdrop" height="240" width="1056" x="0" y="0"/>
<g>
<line x1="4" x2="4" y1="28" y2="132"/>
<path d="M 4 132 A 4 4 0 0 0 8 136"/>
<path d="M 8 24 A 4 4 0 0 0 4 28"/>
</g>
<g>
<line x1="8" x2="248" y1="24" y2="24"/>
<path d="M 252 28 A 4 4 0 0 0 248 24"/>
</g>
<g>
<line x1="8" x2="16" y1="136" y2="136"/>
</g>
<g>
<line x1="28" x2="28" y1="56" y2="184"/>
<line x1="28" x2="52" y1="56" y2="56"/>
<line x1="28" x2="52" y1="184" y2="184"/>
<line x1="52" x2="52" y1="56" y2="184"/>
<line x1="52" x2="76" y1="56" y2="56"/>
<line x1="52" x2="76" y1="184" y2="184"/>
<line x1="76" x2="76" y1="56" y2="184"/>
</g>
<g>
<line x1="148" x2="148" y1="124" y2="212"/>
<path d="M 148 212 A 4 4 0 0 0 152 216"/>
<path d="M 152 120 A 4 4 0 0 0 148 124"/>
</g>
<g>
<line x1="152" x2="160" y1="120" y2="120"/>
</g>
<g>
<line x1="152" x2="376" y1="216" y2="216"/>
<path d="M 376 216 A 4 4 0 0 0 380 212"/>
</g>
<g>
<line x1="172" x2="172" y1="56" y2="184"/>
<line x1="172" x2="196" y1="56" y2="56"/>
<line x1="172" x2="196" y1="184" y2="184"/>
<line x1="196" x2="196" y1="56" y2="184"/>
<line x1="196" x2="220" y1="56" y2="56"/>
<line x1="196" x2="220" y1="184" y2="184"/>
<line x1="220" x2="220" y1="56" y2="184"/>
</g>
<g>
<line marker-end="url(#triangle)" x1="240" x2="236" y1="120" y2="120"/>
<line x1="240" x2="248" y1="120" y2="120"/>
<path d="M 248 120 A 4 4 0 0 0 252 116"/>
</g>
<g>
<line x1="252" x2="252" y1="28" y2="116"/>
</g>
<g>
<line x1="276" x2="276" y1="28" y2="164"/>
<path d="M 276 164 A 4 4 0 0 0 280 168"/>
<path d="M 280 24 A 4 4 0 0 0 276 28"/>
</g>
<g>
<line x1="280" x2="520" y1="24" y2="24"/>
<path d="M 524 28 A 4 4 0 0 0 520 24"/>
</g>
<g>
<line x1="280" x2="288" y1="168" y2="168"/>
</g>
<g>
<line x1="300" x2="300" y1="56" y2="184"/>
<line x1="300" x2="324" y1="56" y2="56"/>
<line x1="300" x2="324" y1="184" y2="184"/>
<line x1="324" x2="324" y1="56" y2="184"/>
<line x1="324" x2="348" y1="56" y2="56"/>
<line x1="324" x2="348" y1="184" y2="184"/>
<line x1="348" x2="348" y1="56" y2="184"/>
</g>
<g>
<line marker-end="url(#triangle)" x1="368" x2="364" y1="168" y2="168"/>
<line x1="368" x2="376" y1="168" y2="168"/>
<path d="M 380 172 A 4 4 0 0 0 376 168"/>
</g>
<g>
<line x1="380" x2="380" y1="172" y2="212"/>
</g>
<g>
<line x1="420" x2="420" y1="108" y2="212"/>
<path d="M 420 212 A 4 4 0 0 0 424 216"/>
<path d="M 424 104 A 4 4 0 0 0 420 108"/>
</g>
<g>
<line x1="424" x2="432" y1="104" y2="104"/>
</g>
<g>
<line x1="424" x2="648" y1="216" y2="216"/>
<path d="M 648 216 A 4 4 0 0 0 652 212"/>
</g>
<g>
<line x1="444" x2="444" y1="56" y2="184"/>
<line x1="444" x2="468" y1="56" y2="56"/>
<line x1="444" x2="468" y1="184" y2="184"/>
<line x1="468" x2="468" y1="56" y2="184"/>
<line x1="468" x2="492" y1="56" y2="56"/>
<line x1="468" x2="492" y1="184" y2="184"/>
<line x1="492" x2="492" y1="56" y2="184"/>
</g>
<g>
<line marker-end="url(#triangle)" x1="512" x2="508" y1="104" y2="104"/>
<line x1="512" x2="520" y1="104" y2="104"/>
<path d="M 520 104 A 4 4 0 0 0 524 100"/>
</g>
<g>
<line x1="524" x2="524" y1="28" y2="100"/>
</g>
<g>
<line x1="548" x2="548" y1="28" y2="148"/>
<path d="M 548 148 A 4 4 0 0 0 552 152"/>
<path d="M 552 24 A 4 4 0 0 0 548 28"/>
</g>
<g>
<line x1="552" x2="792" y1="24" y2="24"/>
<path d="M 796 28 A 4 4 0 0 0 792 24"/>
</g>
<g>
<line x1="552" x2="560" y1="152" y2="152"/>
</g>
<g>
<line x1="572" x2="572" y1="56" y2="184"/>
<line x1="572" x2="596" y1="56" y2="56"/>
<line x1="572" x2="596" y1="184" y2="184"/>
<line x1="596" x2="596" y1="56" y2="184"/>
<line x1="596" x2="620" y1="56" y2="56"/>
<line x1="596" x2="620" y1="184" y2="184"/>
<line x1="620" x2="620" y1="56" y2="184"/>
</g>
<g>
<line marker-end="url(#triangle)" x1="640" x2="636" y1="152" y2="152"/>
<line x1="640" x2="648" y1="152" y2="152"/>
<path d="M 652 156 A 4 4 0 0 0 648 152"/>
</g>
<g>
<line x1="652" x2="652" y1="156" y2="212"/>
</g>
<g>
<line x1="692" x2="692" y1="92" y2="212"/>
<path d="M 692 212 A 4 4 0 0 0 696 216"/>
<path d="M 696 88 A 4 4 0 0 0 692 92"/>
</g>
<g>
<line x1="696" x2="704" y1="88" y2="88"/>
</g>
<g>
<line x1="696" x2="944" y1="216" y2="216"/>
<path d="M 944 216 A 4 4 0 0 0 948 212"/>
</g>
<g>
<line x1="716" x2="716" y1="56" y2="184"/>
<line x1="716" x2="740" y1="56" y2="56"/>
<line x1="716" x2="740" y1="184" y2="184"/>
<line x1="740" x2="740" y1="56" y2="184"/>
<line x1="740" x2="764" y1="56" y2="56"/>
<line x1="740" x2="764" y1="184" y2="184"/>
<line x1="764" x2="764" y1="56" y2="184"/>
</g>
<g>
<line marker-end="url(#triangle)" x1="784" x2="780" y1="88" y2="88"/>
<line x1="784" x2="792" y1="88" y2="88"/>
<path d="M 792 88 A 4 4 0 0 0 796 84"/>
</g>
<g>
<line x1="796" x2="796" y1="28" y2="84"/>
</g>
<g>
<line x1="844" x2="844" y1="28" y2="68"/>
<path d="M 844 68 A 4 4 0 0 0 848 72"/>
<path d="M 848 24 A 4 4 0 0 0 844 28"/>
</g>
<g>
<line marker-end="url(#circle)" x1="848" x2="1052" y1="24" y2="24"/>
</g>
<g>
<line x1="848" x2="856" y1="72" y2="72"/>
</g>
<g>
<line x1="868" x2="868" y1="56" y2="184"/>
<line x1="868" x2="892" y1="56" y2="56"/>
<line x1="868" x2="892" y1="184" y2="184"/>
<line x1="892" x2="892" y1="56" y2="184"/>
<line x1="892" x2="916" y1="56" y2="56"/>
<line x1="892" x2="916" y1="184" y2="184"/>
<line x1="916" x2="916" y1="56" y2="184"/>
</g>
<g>
<line marker-end="url(#triangle)" x1="936" x2="932" y1="72" y2="72"/>
<line x1="936" x2="944" y1="72" y2="72"/>
<path d="M 948 76 A 4 4 0 0 0 944 72"/>
</g>
<g>
<line x1="948" x2="948" y1="76" y2="212"/>
</g>
<g>
<text x="33" y="76">
¶1
</text>
</g>
<g>
<text x="33" y="92">
a3
</text>
</g>
<g>
<text x="33" y="108">
a2
</text>
</g>
<g>
<text x="33" y="124">
a1
</text>
</g>
<g>
<text x="33" y="140">
b1
</text>
</g>
<g>
<text x="33" y="156">
n2
</text>
</g>
<g>
<text x="33" y="172">
n1
</text>
</g>
<g>
<text x="57" y="76">
a3
</text>
</g>
<g>
<text x="57" y="92">
n2
</text>
</g>
<g>
<text x="57" y="108">
n1
</text>
</g>
<g>
<text x="57" y="124">
b1
</text>
</g>
<g>
<text x="57" y="140">
¶1
</text>
</g>
<g>
<text x="57" y="156">
a2
</text>
</g>
<g>
<text x="57" y="172">
a1
</text>
</g>
<g>
<text x="113" y="12">
b
</text>
</g>
<g>
<text x="177" y="76">
¶1
</text>
</g>
<g>
<text x="177" y="92">
a3
</text>
</g>
<g>
<text x="177" y="108">
a2
</text>
</g>
<g>
<text x="177" y="124">
a1
</text>
</g>
<g>
<text x="177" y="140">
b1
</text>
</g>
<g>
<text x="177" y="156">
n2
</text>
</g>
<g>
<text x="177" y="172">
n1
</text>
</g>
<g>
<text x="201" y="76">
a3
</text>
</g>
<g>
<text x="201" y="92">
n2
</text>
</g>
<g>
<text x="201" y="108">
n1
</text>
</g>
<g>
<text x="201" y="124">
b1
</text>
</g>
<g>
<text x="201" y="140">
¶1
</text>
</g>
<g>
<text x="201" y="156">
a2
</text>
</g>
<g>
<text x="201" y="172">
a1
</text>
</g>
<g>
<text x="257" y="236">
ba
</text>
</g>
<g>
<text x="305" y="76">
¶1
</text>
</g>
<g>
<text x="305" y="92">
a3
</text>
</g>
<g>
<text x="305" y="108">
a2
</text>
</g>
<g>
<text x="305" y="124">
a1
</text>
</g>
<g>
<text x="305" y="140">
b1
</text>
</g>
<g>
<text x="305" y="156">
n2
</text>
</g>
<g>
<text x="305" y="172">
n1
</text>
</g>
<g>
<text x="329" y="76">
a3
</text>
</g>
<g>
<text x="329" y="92">
n2
</text>
</g>
<g>
<text x="329" y="108">
n1
</text>
</g>
<g>
<text x="329" y="124">
b1
</text>
</g>
<g>
<text x="329" y="140">
¶1
</text>
</g>
<g>
<text x="329" y="156">
a2
</text>
</g>
<g>
<text x="329" y="172">
a1
</text>
</g>
<g>
<text x="377" y="12">
ban
</text>
</g>
<g>
<text x="449" y="76">
¶1
</text>
</g>
<g>
<text x="449" y="92">
a3
</text>
</g>
<g>
<text x="449" y="108">
a2
</text>
</g>
<g>
<text x="449" y="124">
a1
</text>
</g>
<g>
<text x="449" y="140">
b1
</text>
</g>
<g>
<text x="449" y="156">
n2
</text>
</g>
<g>
<text x="449" y="172">
n1
</text>
</g>
<g>
<text x="473" y="76">
a3
</text>
</g>
<g>
<text x="473" y="92">
n2
</text>
</g>
<g>
<text x="473" y="108">
n1
</text>
</g>
<g>
<text x="473" y="124">
b1
</text>
</g>
<g>
<text x="473" y="140">
¶1
</text>
</g>
<g>
<text x="473" y="156">
a2
</text>
</g>
<g>
<text x="473" y="172">
a1
</text>
</g>
<g>
<text x="513" y="236">
bana
</text>
</g>
<g>
<text x="577" y="76">
¶1
</text>
</g>
<g>
<text x="577" y="92">
a3
</text>
</g>
<g>
<text x="577" y="108">
a2
</text>
</g>
<g>
<text x="577" y="124">
a1
</text>
</g>
<g>
<text x="577" y="140">
b1
</text>
</g>
<g>
<text x="577" y="156">
n2
</text>
</g>
<g>
<text x="577" y="172">
n1
</text>
</g>
<g>
<text x="601" y="76">
a3
</text>
</g>
<g>
<text x="601" y="92">
n2
</text>
</g>
<g>
<text x="601" y="108">
n1
</text>
</g>
<g>
<text x="601" y="124">
b1
</text>
</g>
<g>
<text x="601" y="140">
¶1
</text>
</g>
<g>
<text x="601" y="156">
a2
</text>
</g>
<g>
<text x="601" y="172">
a1
</text>
</g>
<g>
<text x="649" y="12">
banan
</text>
</g>
<g>
<text x="721" y="76">
¶1
</text>
</g>
<g>
<text x="721" y="92">
a3
</text>
</g>
<g>
<text x="721" y="108">
a2
</text>
</g>
<g>
<text x="721" y="124">
a1
</text>
</g>
<g>
<text x="721" y="140">
b1
</text>
</g>
<g>
<text x="721" y="156">
n2
</text>
</g>
<g>
<text x="721" y="172">
n1
</text>
</g>
<g>
<text x="745" y="76">
a3
</text>
</g>
<g>
<text x="745" y="92">
n2
</text>
</g>
<g>
<text x="745" y="108">
n1
</text>
</g>
<g>
<text x="745" y="124">
b1
</text>
</g>
<g>
<text x="745" y="140">
¶1
</text>
</g>
<g>
<text x="745" y="156">
a2
</text>
</g>
<g>
<text x="745" y="172">
a1
</text>
</g>
<g>
<text x="793" y="236">
banana
</text>
</g>
<g>
<text x="873" y="76">
¶1
</text>
</g>
<g>
<text x="873" y="92">
a3
</text>
</g>
<g>
<text x="873" y="108">
a2
</text>
</g>
<g>
<text x="873" y="124">
a1
</text>
</g>
<g>
<text x="873" y="140">
b1
</text>
</g>
<g>
<text x="873" y="156">
n2
</text>
</g>
<g>
<text x="873" y="172">
n1
</text>
</g>
<g>
<text x="897" y="76">
a3
</text>
</g>
<g>
<text x="897" y="92">
n2
</text>
</g>
<g>
<text x="897" y="108">
n1
</text>
</g>
<g>
<text x="897" y="124">
b1
</text>
</g>
<g>
<text x="897" y="140">
¶1
</text>
</g>
<g>
<text x="897" y="156">
a2
</text>
</g>
<g>
<text x="897" y="172">
a1
</text>
</g>
<g>
<text x="929" y="12">
banana¶
</text>
</g>
</svg>
