<svg class="bob" font-family="arial" font-size="14" height="176" width="688" xmlns="http://www.w3.org/2000/svg">
<defs>
<marker id="triangle" markerHeight="8" markerWidth="8" orient="auto" refX="4" refY="2" viewBox="0 0 8 4">
<polygon class="fg_fill" points="0,0 0,4 8,2 0,0"/>
</marker>
<marker id="clear_triangle" markerHeight="10" markerWidth="10" orient="auto" refX="1" refY="7" viewBox="0 0 20 14">
<polygon class="bg_fill" points="2,2 2,12 18,7 2,2"/>
</marker>
<marker id="circle" markerHeight="5" markerWidth="5" orient="auto" refX="10" refY="10" viewBox="0 0 20 20">
<circle class="fg_fill" cx="10" cy="10" r="8"/>
</marker>
<marker id="square" markerHeight="5" markerWidth="5" orient="auto" refX="10" refY="10" viewBox="0 0 20 20">
<rect class="fg_fill" height="20" width="20" x="0" y="0"/>
</marker>
<marker id="open_circle" markerHeight="10" markerWidth="10" orient="auto" refX="10" refY="10" viewBox="0 0 20 20">
<circle class="bg_fill" cx="10" cy="10" r="4"/>
</marker>
<marker id="big_open_circle" markerHeight="20" markerWidth="20" orient="auto" refX="20" refY="20" viewBox="0 0 40 40">
<circle class="bg_fill" cx="20" cy="20" r="6"/>
</marker>
</defs>
<style type="text/css">

rect.backdrop {
    fill: white;
}
text{
    fill: black;
}

circle {
    fill: none;
    stroke: black;
    stroke-width: 2;
}

line {
    stroke: black;
    stroke-width: 2;
    stroke-opacity: 1;
    fill-opacity: 1;
    stroke-linecap: round;
    stroke-linejoin: miter;
}

path {
    fill: none;
    stroke: black;
    stroke-width: 2;
    stroke-opacity: 1;
    fill-opacity: 1;
    stroke-linecap: round;
    stroke-linejoin: miter;
}

line.dashed {
    stroke-dasharray: 5;
}

.fg_fill {
    fill: black;
}


.bg_fill {
    fill: white;
    stroke: black;
    stroke-width: 2;
}

tspan.head{
    fill: none;
    stroke: none;
}
    
</style>
<rect class="backdrop" height="176" width="688" x="0" y="0"/>
<g>
<line x1="4" x2="4" y1="12" y2="36"/>
<path d="M 4 36 A 4 4 0 0 0 8 40"/>
<path d="M 8 8 A 4 4 0 0 0 4 12"/>
</g>
<g>
<line x1="8" x2="128" y1="8" y2="8"/>
<path d="M 132 12 A 4 4 0 0 0 128 8"/>
</g>
<g>
<line x1="8" x2="128" y1="40" y2="40"/>
<path d="M 128 40 A 4 4 0 0 0 132 36"/>
</g>
<g>
<line x1="132" x2="132" y1="12" y2="24"/>
<line x1="132" x2="132" y1="24" y2="36"/>
<line marker-end="url(#triangle)" x1="132" x2="204" y1="24" y2="24"/>
</g>
<g>
<line x1="212" x2="212" y1="12" y2="36"/>
<path d="M 212 36 A 4 4 0 0 0 216 40"/>
<path d="M 216 8 A 4 4 0 0 0 212 12"/>
</g>
<g>
<line x1="216" x2="384" y1="8" y2="8"/>
<path d="M 388 12 A 4 4 0 0 0 384 8"/>
</g>
<g>
<line x1="216" x2="384" y1="40" y2="40"/>
<path d="M 384 40 A 4 4 0 0 0 388 36"/>
</g>
<g>
<line x1="388" x2="388" y1="12" y2="36"/>
</g>
<g>
<line x1="388" x2="452" y1="24" y2="24"/>
<line x1="452" x2="452" y1="24" y2="88"/>
<line marker-end="url(#triangle)" x1="452" x2="484" y1="24" y2="24"/>
<line x1="452" x2="452" y1="88" y2="148"/>
<line marker-end="url(#triangle)" x1="452" x2="484" y1="88" y2="88"/>
<path d="M 452 148 A 4 4 0 0 0 456 152"/>
</g>
<g>
<line marker-end="url(#triangle)" x1="456" x2="484" y1="152" y2="152"/>
</g>
<g>
<line x1="492" x2="492" y1="12" y2="36"/>
<path d="M 492 36 A 4 4 0 0 0 496 40"/>
<path d="M 496 8 A 4 4 0 0 0 492 12"/>
</g>
<g>
<line x1="492" x2="492" y1="76" y2="100"/>
<path d="M 492 100 A 4 4 0 0 0 496 104"/>
<path d="M 496 72 A 4 4 0 0 0 492 76"/>
</g>
<g>
<line x1="492" x2="492" y1="140" y2="164"/>
<path d="M 492 164 A 4 4 0 0 0 496 168"/>
<path d="M 496 136 A 4 4 0 0 0 492 140"/>
</g>
<g>
<line x1="496" x2="664" y1="8" y2="8"/>
<path d="M 668 12 A 4 4 0 0 0 664 8"/>
</g>
<g>
<line x1="496" x2="664" y1="40" y2="40"/>
<path d="M 664 40 A 4 4 0 0 0 668 36"/>
</g>
<g>
<line x1="496" x2="664" y1="72" y2="72"/>
<path d="M 668 76 A 4 4 0 0 0 664 72"/>
</g>
<g>
<line x1="496" x2="664" y1="104" y2="104"/>
<path d="M 664 104 A 4 4 0 0 0 668 100"/>
</g>
<g>
<line x1="496" x2="664" y1="136" y2="136"/>
<path d="M 668 140 A 4 4 0 0 0 664 136"/>
</g>
<g>
<line x1="496" x2="664" y1="168" y2="168"/>
<path d="M 664 168 A 4 4 0 0 0 668 164"/>
</g>
<g>
<line x1="668" x2="668" y1="12" y2="36"/>
</g>
<g>
<line x1="668" x2="668" y1="76" y2="100"/>
</g>
<g>
<line x1="668" x2="668" y1="140" y2="164"/>
</g>
<g>
<text x="17" y="28">
API Gateway
</text>
</g>
<g>
<text x="225" y="28">
Methods/Resources
</text>
</g>
<g>
<text x="505" y="28">
Development Stage
</text>
</g>
<g>
<text x="505" y="92">
Canary Stage
</text>
</g>
<g>
<text x="505" y="156">
Production Stage
</text>
</g>
</svg>
