<svg class="bob" font-family="arial" font-size="14" height="384" width="1344" xmlns="http://www.w3.org/2000/svg">
<defs>
<marker id="triangle" markerHeight="8" markerWidth="8" orient="auto" refX="4" refY="2" viewBox="0 0 8 4">
<polygon class="fg_fill" points="0,0 0,4 8,2 0,0"/>
</marker>
<marker id="clear_triangle" markerHeight="10" markerWidth="10" orient="auto" refX="1" refY="7" viewBox="0 0 20 14">
<polygon class="bg_fill" points="2,2 2,12 18,7 2,2"/>
</marker>
<marker id="circle" markerHeight="5" markerWidth="5" orient="auto" refX="10" refY="10" viewBox="0 0 20 20">
<circle class="fg_fill" cx="10" cy="10" r="8"/>
</marker>
<marker id="square" markerHeight="5" markerWidth="5" orient="auto" refX="10" refY="10" viewBox="0 0 20 20">
<rect class="fg_fill" height="20" width="20" x="0" y="0"/>
</marker>
<marker id="open_circle" markerHeight="10" markerWidth="10" orient="auto" refX="10" refY="10" viewBox="0 0 20 20">
<circle class="bg_fill" cx="10" cy="10" r="4"/>
</marker>
<marker id="big_open_circle" markerHeight="20" markerWidth="20" orient="auto" refX="20" refY="20" viewBox="0 0 40 40">
<circle class="bg_fill" cx="20" cy="20" r="6"/>
</marker>
</defs>
<style type="text/css">

rect.backdrop {
    fill: white;
}
text{
    fill: black;
}

circle {
    fill: none;
    stroke: black;
    stroke-width: 2;
}

line {
    stroke: black;
    stroke-width: 2;
    stroke-opacity: 1;
    fill-opacity: 1;
    stroke-linecap: round;
    stroke-linejoin: miter;
}

path {
    fill: none;
    stroke: black;
    stroke-width: 2;
    stroke-opacity: 1;
    fill-opacity: 1;
    stroke-linecap: round;
    stroke-linejoin: miter;
}

line.dashed {
    stroke-dasharray: 5;
}

.fg_fill {
    fill: black;
}


.bg_fill {
    fill: white;
    stroke: black;
    stroke-width: 2;
}

tspan.head{
    fill: none;
    stroke: none;
}
    
</style>
<rect class="backdrop" height="384" width="1344" x="0" y="0"/>
<g>
<line x1="4" x2="4" y1="232" y2="264"/>
<line x1="4" x2="52" y1="232" y2="232"/>
<line x1="4" x2="68" y1="264" y2="264"/>
<line x1="52" x2="52" y1="232" y2="224"/>
<line x1="52" x2="68" y1="232" y2="232"/>
<line x1="68" x2="68" y1="232" y2="224"/>
<line x1="68" x2="92" y1="232" y2="232"/>
<line x1="68" x2="68" y1="264" y2="272"/>
<line x1="68" x2="124" y1="264" y2="264"/>
<line x1="92" x2="92" y1="204" y2="232"/>
<line x1="92" x2="108" y1="232" y2="232"/>
<line x1="108" x2="108" y1="220" y2="232"/>
<line x1="108" x2="124" y1="232" y2="232"/>
<line x1="124" x2="124" y1="232" y2="264"/>
<line class="dashed" x1="52" x2="52" y1="112" y2="224"/>
<line class="dashed" x1="68" x2="68" y1="176" y2="224"/>
<line class="dashed" x1="68" x2="68" y1="272" y2="352"/>
<path d="M 96 200 A 4 4 0 0 0 92 204"/>
<path d="M 112 216 A 4 4 0 0 0 108 220"/>
</g>
<g>
<line marker-end="url(#triangle)" x1="28" x2="28" y1="60" y2="220"/>
<path d="M 32 56 A 4 4 0 0 0 28 60"/>
</g>
<g>
<line x1="32" x2="176" y1="56" y2="56"/>
<path d="M 176 56 A 4 4 0 0 0 180 52"/>
</g>
<g>
<line x1="52" x2="52" y1="108" y2="112"/>
<path d="M 56 104 A 4 4 0 0 0 52 108"/>
</g>
<g>
<line x1="68" x2="68" y1="172" y2="176"/>
<path d="M 72 168 A 4 4 0 0 0 68 172"/>
</g>
<g>
<line x1="68" x2="68" y1="356" y2="352"/>
<path d="M 68 356 A 4 4 0 0 0 72 360"/>
</g>
<g>
<line marker-end="url(#triangle)" x1="92" x2="92" y1="288" y2="276"/>
<line x1="92" x2="92" y1="288" y2="324"/>
<path d="M 92 324 A 4 4 0 0 0 96 328"/>
</g>
<g>
<line x1="96" x2="296" y1="200" y2="200"/>
<path d="M 300 204 A 4 4 0 0 0 296 200"/>
</g>
<g>
<line x1="96" x2="296" y1="328" y2="328"/>
<path d="M 296 328 A 4 4 0 0 0 300 324"/>
</g>
<g>
<line marker-end="url(#triangle)" x1="108" x2="108" y1="288" y2="276"/>
<line x1="108" x2="108" y1="288" y2="308"/>
<path d="M 108 308 A 4 4 0 0 0 112 312"/>
</g>
<g>
<line x1="112" x2="136" y1="216" y2="216"/>
<path d="M 140 220 A 4 4 0 0 0 136 216"/>
</g>
<g>
<line x1="112" x2="136" y1="312" y2="312"/>
<path d="M 136 312 A 4 4 0 0 0 140 308"/>
</g>
<g>
<line x1="140" x2="140" y1="220" y2="308"/>
</g>
<g>
<line marker-end="url(#triangle)" x1="160" x2="164" y1="104" y2="104"/>
<line class="dashed" x1="56" x2="160" y1="104" y2="104"/>
</g>
<g>
<line marker-end="url(#triangle)" x1="160" x2="164" y1="168" y2="168"/>
<line class="dashed" x1="72" x2="160" y1="168" y2="168"/>
</g>
<g>
<line marker-end="url(#triangle)" x1="160" x2="164" y1="360" y2="360"/>
<line class="dashed" x1="72" x2="160" y1="360" y2="360"/>
</g>
<g>
<line x1="164" x2="164" y1="8" y2="40"/>
<line x1="164" x2="244" y1="8" y2="8"/>
<line x1="164" x2="180" y1="40" y2="40"/>
<line x1="180" x2="180" y1="40" y2="52"/>
<line x1="180" x2="228" y1="40" y2="40"/>
<line x1="228" x2="228" y1="40" y2="52"/>
<line x1="228" x2="244" y1="40" y2="40"/>
<line x1="244" x2="244" y1="8" y2="40"/>
<path d="M 228 52 A 4 4 0 0 0 232 56"/>
</g>
<g>
<line x1="172" x2="172" y1="88" y2="96"/>
<line x1="172" x2="176" y1="88" y2="88"/>
<line class="dashed" x1="172" x2="172" y1="96" y2="112"/>
<line class="dashed" x1="176" x2="232" y1="88" y2="88"/>
</g>
<g>
<line x1="172" x2="172" y1="120" y2="112"/>
<line x1="172" x2="176" y1="120" y2="120"/>
<line class="dashed" x1="176" x2="232" y1="120" y2="120"/>
</g>
<g>
<line x1="172" x2="172" y1="152" y2="160"/>
<line x1="172" x2="176" y1="152" y2="152"/>
<line class="dashed" x1="172" x2="172" y1="160" y2="176"/>
<line class="dashed" x1="176" x2="232" y1="152" y2="152"/>
</g>
<g>
<line x1="172" x2="172" y1="184" y2="176"/>
<line x1="172" x2="176" y1="184" y2="184"/>
<line class="dashed" x1="176" x2="232" y1="184" y2="184"/>
</g>
<g>
<line x1="172" x2="172" y1="344" y2="352"/>
<line x1="172" x2="176" y1="344" y2="344"/>
<line class="dashed" x1="172" x2="172" y1="352" y2="368"/>
<line class="dashed" x1="176" x2="232" y1="344" y2="344"/>
</g>
<g>
<line x1="172" x2="172" y1="376" y2="368"/>
<line x1="172" x2="176" y1="376" y2="376"/>
<line class="dashed" x1="176" x2="232" y1="376" y2="376"/>
</g>
<g>
<line x1="232" x2="360" y1="56" y2="56"/>
<path d="M 364 60 A 4 4 0 0 0 360 56"/>
</g>
<g>
<line x1="236" x2="232" y1="88" y2="88"/>
<line x1="236" x2="236" y1="88" y2="96"/>
<line class="dashed" x1="236" x2="236" y1="96" y2="112"/>
</g>
<g>
<line x1="236" x2="232" y1="120" y2="120"/>
<line x1="236" x2="236" y1="120" y2="112"/>
</g>
<g>
<line x1="236" x2="232" y1="152" y2="152"/>
<line x1="236" x2="236" y1="152" y2="160"/>
<line class="dashed" x1="236" x2="236" y1="160" y2="176"/>
</g>
<g>
<line x1="236" x2="232" y1="184" y2="184"/>
<line x1="236" x2="236" y1="184" y2="176"/>
</g>
<g>
<line x1="236" x2="232" y1="344" y2="344"/>
<line x1="236" x2="236" y1="344" y2="352"/>
<line class="dashed" x1="236" x2="236" y1="352" y2="368"/>
</g>
<g>
<line x1="236" x2="232" y1="376" y2="376"/>
<line x1="236" x2="236" y1="376" y2="368"/>
</g>
<g>
<line marker-end="url(#triangle)" x1="248" x2="244" y1="104" y2="104"/>
<line class="dashed" x1="248" x2="336" y1="104" y2="104"/>
<path d="M 340 108 A 4 4 0 0 0 336 104"/>
</g>
<g>
<line marker-end="url(#triangle)" x1="248" x2="244" y1="168" y2="168"/>
<line class="dashed" x1="248" x2="320" y1="168" y2="168"/>
<path d="M 324 172 A 4 4 0 0 0 320 168"/>
</g>
<g>
<line marker-end="url(#triangle)" x1="248" x2="244" y1="360" y2="360"/>
<line class="dashed" x1="248" x2="320" y1="360" y2="360"/>
<path d="M 320 360 A 4 4 0 0 0 324 356"/>
</g>
<g>
<line x1="252" x2="252" y1="220" y2="308"/>
<path d="M 252 308 A 4 4 0 0 0 256 312"/>
<path d="M 256 216 A 4 4 0 0 0 252 220"/>
</g>
<g>
<line x1="256" x2="280" y1="216" y2="216"/>
<path d="M 284 220 A 4 4 0 0 0 280 216"/>
</g>
<g>
<line x1="256" x2="280" y1="312" y2="312"/>
<path d="M 280 312 A 4 4 0 0 0 284 308"/>
</g>
<g>
<line x1="268" x2="268" y1="232" y2="264"/>
<line x1="268" x2="284" y1="232" y2="232"/>
<line x1="268" x2="300" y1="264" y2="264"/>
<line x1="284" x2="284" y1="220" y2="232"/>
<line x1="284" x2="324" y1="232" y2="232"/>
<line x1="300" x2="300" y1="264" y2="324"/>
<line x1="300" x2="324" y1="264" y2="264"/>
<line x1="324" x2="324" y1="232" y2="224"/>
<line x1="324" x2="340" y1="232" y2="232"/>
<line x1="324" x2="324" y1="264" y2="272"/>
<line x1="324" x2="388" y1="264" y2="264"/>
<line x1="340" x2="340" y1="232" y2="224"/>
<line x1="340" x2="388" y1="232" y2="232"/>
<line x1="388" x2="388" y1="232" y2="264"/>
<line class="dashed" x1="324" x2="324" y1="176" y2="224"/>
<line class="dashed" x1="324" x2="324" y1="272" y2="352"/>
<line class="dashed" x1="340" x2="340" y1="112" y2="224"/>
</g>
<g>
<line marker-end="url(#triangle)" x1="284" x2="284" y1="288" y2="276"/>
<line x1="284" x2="284" y1="288" y2="308"/>
</g>
<g>
<line marker-end="url(#triangle)" x1="300" x2="300" y1="204" y2="220"/>
</g>
<g>
<line x1="324" x2="324" y1="172" y2="176"/>
</g>
<g>
<line x1="324" x2="324" y1="356" y2="352"/>
</g>
<g>
<line x1="340" x2="340" y1="108" y2="112"/>
</g>
<g>
<line marker-end="url(#triangle)" x1="364" x2="364" y1="60" y2="220"/>
</g>
<g>
<line x1="412" x2="412" y1="168" y2="200"/>
<line x1="412" x2="596" y1="168" y2="168"/>
<line x1="412" x2="596" y1="200" y2="200"/>
<line x1="596" x2="596" y1="136" y2="168"/>
<line x1="596" x2="620" y1="136" y2="184"/>
<line x1="596" x2="596" y1="200" y2="232"/>
<line x1="620" x2="596" y1="184" y2="232"/>
</g>
<g>
<line x1="644" x2="644" y1="168" y2="200"/>
<line x1="644" x2="716" y1="168" y2="168"/>
<line x1="644" x2="716" y1="200" y2="200"/>
<line x1="716" x2="716" y1="168" y2="184"/>
<line x1="716" x2="716" y1="184" y2="200"/>
<line x1="716" x2="732" y1="184" y2="184"/>
<line x1="732" x2="732" y1="156" y2="184"/>
<line x1="732" x2="732" y1="184" y2="212"/>
<path d="M 732 212 A 4 4 0 0 0 736 216"/>
<path d="M 736 152 A 4 4 0 0 0 732 156"/>
</g>
<g>
<line marker-end="url(#triangle)" x1="736" x2="748" y1="152" y2="152"/>
</g>
<g>
<line marker-end="url(#triangle)" x1="736" x2="748" y1="216" y2="216"/>
</g>
<g>
<line x1="756" x2="756" y1="120" y2="168"/>
<line x1="756" x2="828" y1="120" y2="120"/>
<line x1="756" x2="828" y1="168" y2="168"/>
<line x1="828" x2="828" y1="120" y2="136"/>
<line x1="828" x2="828" y1="136" y2="152"/>
<line marker-end="url(#triangle)" x1="828" x2="884" y1="136" y2="136"/>
<line x1="828" x2="828" y1="152" y2="168"/>
<line x1="828" x2="832" y1="152" y2="152"/>
<path d="M 838 156 A 8 8 0 0 0 832 152"/>
</g>
<g>
<line x1="756" x2="756" y1="200" y2="248"/>
<line x1="756" x2="828" y1="200" y2="200"/>
<line x1="756" x2="828" y1="248" y2="248"/>
<line x1="828" x2="828" y1="200" y2="216"/>
<line x1="828" x2="828" y1="216" y2="232"/>
<line x1="828" x2="832" y1="216" y2="216"/>
<line x1="828" x2="828" y1="232" y2="248"/>
<line marker-end="url(#triangle)" x1="828" x2="884" y1="232" y2="232"/>
<path d="M 832 216 A 8 8 0 0 0 838 212"/>
</g>
<g>
<line x1="838" x2="852" y1="156" y2="184"/>
<line x1="852" x2="838" y1="184" y2="212"/>
<line x1="852" x2="866" y1="184" y2="212"/>
<line x1="866" x2="852" y1="156" y2="184"/>
<path d="M 866 212 A 8 8 0 0 0 872 216"/>
<path d="M 872 152 A 8 8 0 0 0 866 156"/>
</g>
<g>
<line marker-end="url(#triangle)" x1="872" x2="884" y1="152" y2="152"/>
</g>
<g>
<line marker-end="url(#triangle)" x1="872" x2="884" y1="216" y2="216"/>
</g>
<g>
<line x1="892" x2="892" y1="120" y2="168"/>
<line x1="892" x2="964" y1="120" y2="120"/>
<line x1="892" x2="964" y1="168" y2="168"/>
<line x1="964" x2="964" y1="120" y2="136"/>
<line x1="964" x2="964" y1="136" y2="152"/>
<line marker-end="url(#triangle)" x1="964" x2="1020" y1="136" y2="136"/>
<line x1="964" x2="964" y1="152" y2="168"/>
<line x1="964" x2="968" y1="152" y2="152"/>
<path d="M 974 156 A 8 8 0 0 0 968 152"/>
</g>
<g>
<line x1="892" x2="892" y1="200" y2="248"/>
<line x1="892" x2="964" y1="200" y2="200"/>
<line x1="892" x2="964" y1="248" y2="248"/>
<line x1="964" x2="964" y1="200" y2="216"/>
<line x1="964" x2="964" y1="216" y2="232"/>
<line x1="964" x2="968" y1="216" y2="216"/>
<line x1="964" x2="964" y1="232" y2="248"/>
<line marker-end="url(#triangle)" x1="964" x2="1020" y1="232" y2="232"/>
<path d="M 968 216 A 8 8 0 0 0 974 212"/>
</g>
<g>
<line x1="974" x2="988" y1="156" y2="184"/>
<line x1="988" x2="974" y1="184" y2="212"/>
<line x1="988" x2="1002" y1="184" y2="212"/>
<line x1="1002" x2="988" y1="156" y2="184"/>
<path d="M 1002 212 A 8 8 0 0 0 1008 216"/>
<path d="M 1008 152 A 8 8 0 0 0 1002 156"/>
</g>
<g>
<line marker-end="url(#triangle)" x1="1008" x2="1020" y1="152" y2="152"/>
</g>
<g>
<line marker-end="url(#triangle)" x1="1008" x2="1020" y1="216" y2="216"/>
</g>
<g>
<line x1="1028" x2="1028" y1="120" y2="168"/>
<line x1="1028" x2="1108" y1="120" y2="120"/>
<line x1="1028" x2="1108" y1="168" y2="168"/>
<line x1="1108" x2="1108" y1="120" y2="136"/>
<line x1="1108" x2="1108" y1="136" y2="152"/>
<line marker-end="url(#triangle)" x1="1108" x2="1164" y1="136" y2="136"/>
<line x1="1108" x2="1108" y1="152" y2="168"/>
<line x1="1108" x2="1112" y1="152" y2="152"/>
<path d="M 1118 156 A 8 8 0 0 0 1112 152"/>
</g>
<g>
<line x1="1028" x2="1028" y1="200" y2="248"/>
<line x1="1028" x2="1108" y1="200" y2="200"/>
<line x1="1028" x2="1108" y1="248" y2="248"/>
<line x1="1108" x2="1108" y1="200" y2="216"/>
<line x1="1108" x2="1108" y1="216" y2="232"/>
<line x1="1108" x2="1112" y1="216" y2="216"/>
<line x1="1108" x2="1108" y1="232" y2="248"/>
<line marker-end="url(#triangle)" x1="1108" x2="1164" y1="232" y2="232"/>
<path d="M 1112 216 A 8 8 0 0 0 1118 212"/>
</g>
<g>
<line x1="1118" x2="1132" y1="156" y2="184"/>
<line x1="1132" x2="1118" y1="184" y2="212"/>
<line x1="1132" x2="1146" y1="184" y2="212"/>
<line x1="1146" x2="1132" y1="156" y2="184"/>
<path d="M 1146 212 A 8 8 0 0 0 1152 216"/>
<path d="M 1152 152 A 8 8 0 0 0 1146 156"/>
</g>
<g>
<line marker-end="url(#triangle)" x1="1152" x2="1164" y1="152" y2="152"/>
</g>
<g>
<line marker-end="url(#triangle)" x1="1152" x2="1164" y1="216" y2="216"/>
</g>
<g>
<line x1="1172" x2="1172" y1="120" y2="168"/>
<line x1="1172" x2="1244" y1="120" y2="120"/>
<line x1="1172" x2="1244" y1="168" y2="168"/>
<line x1="1244" x2="1244" y1="120" y2="152"/>
<line x1="1244" x2="1244" y1="152" y2="168"/>
<line x1="1244" x2="1256" y1="152" y2="152"/>
<path d="M 1260 156 A 4 4 0 0 0 1256 152"/>
</g>
<g>
<line x1="1172" x2="1172" y1="200" y2="248"/>
<line x1="1172" x2="1244" y1="200" y2="200"/>
<line x1="1172" x2="1244" y1="248" y2="248"/>
<line x1="1244" x2="1244" y1="200" y2="216"/>
<line x1="1244" x2="1244" y1="216" y2="248"/>
<line x1="1244" x2="1256" y1="216" y2="216"/>
<path d="M 1256 216 A 4 4 0 0 0 1260 212"/>
</g>
<g>
<line x1="1260" x2="1260" y1="156" y2="184"/>
<line x1="1260" x2="1260" y1="184" y2="212"/>
<line marker-end="url(#triangle)" x1="1260" x2="1276" y1="184" y2="184"/>
</g>
<g>
<line x1="1284" x2="1284" y1="168" y2="200"/>
<line x1="1284" x2="1340" y1="168" y2="168"/>
<line x1="1284" x2="1340" y1="200" y2="200"/>
<line x1="1340" x2="1340" y1="168" y2="200"/>
</g>
<g>
<text x="17" y="252">
hitter bat
</text>
</g>
<g>
<text x="65" y="44">
0.5
</text>
</g>
<g>
<text x="89" y="92">
0.75
</text>
</g>
<g>
<text x="97" y="156">
0.1
</text>
</g>
<g>
<text x="113" y="348">
0.15
</text>
</g>
<g>
<text x="145" y="268">
0.9
</text>
</g>
<g>
<text x="177" y="28">
SOURCE
</text>
</g>
<g>
<text x="185" y="172">
miss
</text>
</g>
<g>
<text x="185" y="220">
0.1
</text>
</g>
<g>
<text x="185" y="316">
0.1
</text>
</g>
<g>
<text x="185" y="364">
foul
</text>
</g>
<g>
<text x="193" y="108">
hit
</text>
</g>
<g>
<text x="225" y="268">
0.9
</text>
</g>
<g>
<text x="257" y="348">
0.4
</text>
</g>
<g>
<text x="281" y="92">
0.5
</text>
</g>
<g>
<text x="281" y="156">
0.1
</text>
</g>
<g>
<text x="281" y="252">
fouler bat
</text>
</g>
<g>
<text x="305" y="44">
0.5
</text>
</g>
<g>
<text x="425" y="188">
[foul,hit,miss,hit]
</text>
</g>
<g>
<text x="481" y="156">
EXPLODE
</text>
</g>
<g>
<text x="657" y="188">
SOURCE
</text>
</g>
<g>
<text x="769" y="140">
hitter
</text>
</g>
<g>
<text x="769" y="156">
bat0
</text>
</g>
<g>
<text x="769" y="220">
fouler
</text>
</g>
<g>
<text x="769" y="236">
bat0
</text>
</g>
<g>
<text x="777" y="108">
foul
</text>
</g>
<g>
<text x="905" y="140">
hitter
</text>
</g>
<g>
<text x="905" y="156">
bat1
</text>
</g>
<g>
<text x="905" y="220">
fouler
</text>
</g>
<g>
<text x="905" y="236">
bat1
</text>
</g>
<g>
<text x="921" y="108">
hit
</text>
</g>
<g>
<text x="1041" y="140">
hitter
</text>
</g>
<g>
<text x="1041" y="156">
bat2
</text>
</g>
<g>
<text x="1041" y="220">
fouler
</text>
</g>
<g>
<text x="1041" y="236">
bat2
</text>
</g>
<g>
<text x="1049" y="108">
miss
</text>
</g>
<g>
<text x="1185" y="140">
hitter
</text>
</g>
<g>
<text x="1185" y="156">
bat3
</text>
</g>
<g>
<text x="1185" y="220">
fouler
</text>
</g>
<g>
<text x="1185" y="236">
bat3
</text>
</g>
<g>
<text x="1201" y="108">
hit
</text>
</g>
<g>
<text x="1297" y="188">
SINK
</text>
</g>
</svg>
