<svg class="bob" font-family="arial" font-size="14" height="240" width="744" xmlns="http://www.w3.org/2000/svg">
<defs>
<marker id="triangle" markerHeight="8" markerWidth="8" orient="auto" refX="4" refY="2" viewBox="0 0 8 4">
<polygon class="fg_fill" points="0,0 0,4 8,2 0,0"/>
</marker>
<marker id="clear_triangle" markerHeight="10" markerWidth="10" orient="auto" refX="1" refY="7" viewBox="0 0 20 14">
<polygon class="bg_fill" points="2,2 2,12 18,7 2,2"/>
</marker>
<marker id="circle" markerHeight="5" markerWidth="5" orient="auto" refX="10" refY="10" viewBox="0 0 20 20">
<circle class="fg_fill" cx="10" cy="10" r="8"/>
</marker>
<marker id="square" markerHeight="5" markerWidth="5" orient="auto" refX="10" refY="10" viewBox="0 0 20 20">
<rect class="fg_fill" height="20" width="20" x="0" y="0"/>
</marker>
<marker id="open_circle" markerHeight="10" markerWidth="10" orient="auto" refX="10" refY="10" viewBox="0 0 20 20">
<circle class="bg_fill" cx="10" cy="10" r="4"/>
</marker>
<marker id="big_open_circle" markerHeight="20" markerWidth="20" orient="auto" refX="20" refY="20" viewBox="0 0 40 40">
<circle class="bg_fill" cx="20" cy="20" r="6"/>
</marker>
</defs>
<style type="text/css">

rect.backdrop {
    fill: white;
}
text{
    fill: black;
}

circle {
    fill: none;
    stroke: black;
    stroke-width: 2;
}

line {
    stroke: black;
    stroke-width: 2;
    stroke-opacity: 1;
    fill-opacity: 1;
    stroke-linecap: round;
    stroke-linejoin: miter;
}

path {
    fill: none;
    stroke: black;
    stroke-width: 2;
    stroke-opacity: 1;
    fill-opacity: 1;
    stroke-linecap: round;
    stroke-linejoin: miter;
}

line.dashed {
    stroke-dasharray: 5;
}

.fg_fill {
    fill: black;
}


.bg_fill {
    fill: white;
    stroke: black;
    stroke-width: 2;
}

tspan.head{
    fill: none;
    stroke: none;
}
    
</style>
<rect class="backdrop" height="240" width="744" x="0" y="0"/>
<g>
<line x1="4" x2="4" y1="12" y2="36"/>
<path d="M 4 36 A 4 4 0 0 0 8 40"/>
<path d="M 8 8 A 4 4 0 0 0 4 12"/>
</g>
<g>
<line x1="8" x2="168" y1="8" y2="8"/>
<path d="M 172 12 A 4 4 0 0 0 168 8"/>
</g>
<g>
<line x1="8" x2="168" y1="40" y2="40"/>
<path d="M 168 40 A 4 4 0 0 0 172 36"/>
</g>
<g>
<line x1="172" x2="172" y1="12" y2="24"/>
<line x1="172" x2="172" y1="24" y2="36"/>
<line x1="172" x2="196" y1="24" y2="24"/>
<line x1="196" x2="196" y1="24" y2="88"/>
<line x1="196" x2="220" y1="88" y2="88"/>
<line x1="220" x2="220" y1="76" y2="88"/>
<line x1="220" x2="220" y1="88" y2="100"/>
<path d="M 220 100 A 4 4 0 0 0 224 104"/>
<path d="M 224 72 A 4 4 0 0 0 220 76"/>
</g>
<g>
<line x1="224" x2="384" y1="72" y2="72"/>
<path d="M 388 76 A 4 4 0 0 0 384 72"/>
</g>
<g>
<line x1="224" x2="384" y1="104" y2="104"/>
<path d="M 384 104 A 4 4 0 0 0 388 100"/>
</g>
<g>
<line x1="388" x2="388" y1="76" y2="88"/>
<line x1="388" x2="388" y1="88" y2="100"/>
<line x1="388" x2="412" y1="88" y2="88"/>
<line x1="412" x2="412" y1="88" y2="152"/>
<line x1="412" x2="436" y1="152" y2="152"/>
<line x1="436" x2="436" y1="140" y2="152"/>
<line x1="436" x2="436" y1="152" y2="164"/>
<path d="M 436 164 A 4 4 0 0 0 440 168"/>
<path d="M 440 136 A 4 4 0 0 0 436 140"/>
</g>
<g>
<line x1="440" x2="560" y1="136" y2="136"/>
<path d="M 564 140 A 4 4 0 0 0 560 136"/>
</g>
<g>
<line x1="440" x2="560" y1="168" y2="168"/>
<path d="M 560 168 A 4 4 0 0 0 564 164"/>
</g>
<g>
<line x1="564" x2="564" y1="140" y2="152"/>
<line x1="564" x2="564" y1="152" y2="164"/>
<line x1="564" x2="588" y1="152" y2="152"/>
<line x1="588" x2="588" y1="152" y2="216"/>
<line x1="588" x2="612" y1="216" y2="216"/>
<line x1="612" x2="612" y1="204" y2="216"/>
<line x1="612" x2="612" y1="216" y2="228"/>
<path d="M 612 228 A 4 4 0 0 0 616 232"/>
<path d="M 616 200 A 4 4 0 0 0 612 204"/>
</g>
<g>
<line x1="616" x2="728" y1="200" y2="200"/>
<path d="M 732 204 A 4 4 0 0 0 728 200"/>
</g>
<g>
<line x1="616" x2="728" y1="232" y2="232"/>
<path d="M 728 232 A 4 4 0 0 0 732 228"/>
</g>
<g>
<line x1="732" x2="732" y1="204" y2="228"/>
</g>
<g>
<text x="25" y="28">
C++ source file
</text>
</g>
<g>
<text x="209" y="60">
preprocessor (1 to 1)
</text>
</g>
<g>
<text x="233" y="92">
translation unit
</text>
</g>
<g>
<text x="425" y="124">
compiler (1 to 1)
</text>
</g>
<g>
<text x="449" y="156">
object file
</text>
</g>
<g>
<text x="601" y="188">
linker (1+ to 1)
</text>
</g>
<g>
<text x="625" y="220">
executable
</text>
</g>
</svg>
