<?xml version="1.0" encoding="UTF-8" standalone="no"?>
<!DOCTYPE svg PUBLIC "-//W3C//DTD SVG 1.1//EN"
 "http://www.w3.org/Graphics/SVG/1.1/DTD/svg11.dtd">
<!-- Generated by graphviz version 2.40.1 (0)
 -->
<!-- Title: G Pages: 1 -->
<svg width="321pt" height="366pt"
 viewBox="0.00 0.00 320.80 365.80" xmlns="http://www.w3.org/2000/svg" xmlns:xlink="http://www.w3.org/1999/xlink">
<g id="graph0" class="graph" transform="scale(1 1) rotate(0) translate(4 361.8)">
<title>G</title>
<polygon fill="#ffffff" stroke="transparent" points="-4,4 -4,-361.8 316.8,-361.8 316.8,4 -4,4"/>
<text text-anchor="middle" x="156.4" y="-342.6" font-family="Times,serif" font-size="14.00" fill="#000000">Alignment graph for &quot;hi&quot; vs &quot;qi&quot;</text>
<!-- S -->
<g id="node1" class="node">
<title>S</title>
<ellipse fill="#000000" stroke="#000000" cx="23" cy="-289.8" rx="1.8" ry="1.8"/>
</g>
<!-- E01 -->
<g id="node2" class="node">
<title>E01</title>
<ellipse fill="#000000" stroke="#000000" cx="23" cy="-145.8" rx="1.8" ry="1.8"/>
</g>
<!-- S&#45;&gt;E01 -->
<g id="edge1" class="edge">
<title>S&#45;&gt;E01</title>
<path fill="none" stroke="#000000" d="M23,-287.7644C23,-273.6462 23,-189.9328 23,-158.0871"/>
<polygon fill="#000000" stroke="#000000" points="26.5001,-157.9686 23,-147.9686 19.5001,-157.9686 26.5001,-157.9686"/>
<text text-anchor="middle" x="11.5" y="-256.7257" font-family="Times,serif" font-size="14.00" fill="#000000">&#45;</text>
<text text-anchor="middle" x="11.5" y="-241.7257" font-family="Times,serif" font-size="14.00" fill="#000000">q</text>
<text text-anchor="middle" x="11.5" y="-226.7257" font-family="Times,serif" font-size="14.00" fill="#000000">0.0</text>
</g>
<!-- E10 -->
<g id="node4" class="node">
<title>E10</title>
<ellipse fill="#000000" stroke="#000000" cx="167" cy="-289.8" rx="1.8" ry="1.8"/>
</g>
<!-- S&#45;&gt;E10 -->
<g id="edge2" class="edge">
<title>S&#45;&gt;E10</title>
<path fill="none" stroke="#ff0000" d="M25.0356,-289.8C39.1538,-289.8 122.8672,-289.8 154.7129,-289.8"/>
<polygon fill="#ff0000" stroke="#ff0000" points="154.8314,-293.3001 164.8314,-289.8 154.8314,-286.3001 154.8314,-293.3001"/>
<text text-anchor="middle" x="78.3743" y="-323.6" font-family="Times,serif" font-size="14.00" fill="#ff0000">h</text>
<text text-anchor="middle" x="78.3743" y="-308.6" font-family="Times,serif" font-size="14.00" fill="#ff0000">&#45;</text>
<text text-anchor="middle" x="78.3743" y="-293.6" font-family="Times,serif" font-size="14.00" fill="#ff0000">0.0</text>
</g>
<!-- E11 -->
<g id="node5" class="node">
<title>E11</title>
<ellipse fill="#000000" stroke="#000000" cx="167" cy="-145.8" rx="1.8" ry="1.8"/>
</g>
<!-- S&#45;&gt;E11 -->
<g id="edge3" class="edge">
<title>S&#45;&gt;E11</title>
<path fill="none" stroke="#000000" d="M24.6172,-288.1828C37.9424,-274.8576 129.833,-182.967 158.4866,-154.3134"/>
<polygon fill="#000000" stroke="#000000" points="160.9786,-156.7712 165.5748,-147.2252 156.0288,-151.8214 160.9786,-156.7712"/>
<text text-anchor="middle" x="76.0519" y="-255.0481" font-family="Times,serif" font-size="14.00" fill="#000000">h</text>
<text text-anchor="middle" x="76.0519" y="-240.0481" font-family="Times,serif" font-size="14.00" fill="#000000">q</text>
<text text-anchor="middle" x="76.0519" y="-225.0481" font-family="Times,serif" font-size="14.00" fill="#000000">&#45;1.0</text>
</g>
<!-- E02 -->
<g id="node3" class="node">
<title>E02</title>
<ellipse fill="#000000" stroke="#000000" cx="23" cy="-1.8" rx="1.8" ry="1.8"/>
</g>
<!-- E01&#45;&gt;E02 -->
<g id="edge7" class="edge">
<title>E01&#45;&gt;E02</title>
<path fill="none" stroke="#000000" d="M23,-143.7644C23,-129.6462 23,-45.9328 23,-14.0871"/>
<polygon fill="#000000" stroke="#000000" points="26.5001,-13.9686 23,-3.9686 19.5001,-13.9686 26.5001,-13.9686"/>
<text text-anchor="middle" x="11.5" y="-112.7257" font-family="Times,serif" font-size="14.00" fill="#000000">&#45;</text>
<text text-anchor="middle" x="11.5" y="-97.7257" font-family="Times,serif" font-size="14.00" fill="#000000">i</text>
<text text-anchor="middle" x="11.5" y="-82.7257" font-family="Times,serif" font-size="14.00" fill="#000000">0.0</text>
</g>
<!-- E01&#45;&gt;E11 -->
<g id="edge8" class="edge">
<title>E01&#45;&gt;E11</title>
<path fill="none" stroke="#000000" d="M25.0356,-145.8C39.1538,-145.8 122.8672,-145.8 154.7129,-145.8"/>
<polygon fill="#000000" stroke="#000000" points="154.8314,-149.3001 164.8314,-145.8 154.8314,-142.3001 154.8314,-149.3001"/>
<text text-anchor="middle" x="78.3743" y="-179.6" font-family="Times,serif" font-size="14.00" fill="#000000">h</text>
<text text-anchor="middle" x="78.3743" y="-164.6" font-family="Times,serif" font-size="14.00" fill="#000000">&#45;</text>
<text text-anchor="middle" x="78.3743" y="-149.6" font-family="Times,serif" font-size="14.00" fill="#000000">0.0</text>
</g>
<!-- E12 -->
<g id="node8" class="node">
<title>E12</title>
<ellipse fill="#000000" stroke="#000000" cx="167" cy="-1.8" rx="1.8" ry="1.8"/>
</g>
<!-- E01&#45;&gt;E12 -->
<g id="edge9" class="edge">
<title>E01&#45;&gt;E12</title>
<path fill="none" stroke="#000000" d="M24.6172,-144.1828C37.9424,-130.8576 129.833,-38.967 158.4866,-10.3134"/>
<polygon fill="#000000" stroke="#000000" points="160.9786,-12.7712 165.5748,-3.2252 156.0288,-7.8214 160.9786,-12.7712"/>
<text text-anchor="middle" x="76.0519" y="-111.0481" font-family="Times,serif" font-size="14.00" fill="#000000">h</text>
<text text-anchor="middle" x="76.0519" y="-96.0481" font-family="Times,serif" font-size="14.00" fill="#000000">i</text>
<text text-anchor="middle" x="76.0519" y="-81.0481" font-family="Times,serif" font-size="14.00" fill="#000000">&#45;1.0</text>
</g>
<!-- E02&#45;&gt;E12 -->
<g id="edge13" class="edge">
<title>E02&#45;&gt;E12</title>
<path fill="none" stroke="#000000" d="M25.0356,-1.8C39.1538,-1.8 122.8672,-1.8 154.7129,-1.8"/>
<polygon fill="#000000" stroke="#000000" points="154.8314,-5.3001 164.8314,-1.8 154.8314,1.6999 154.8314,-5.3001"/>
<text text-anchor="middle" x="78.3743" y="-35.6" font-family="Times,serif" font-size="14.00" fill="#000000">h</text>
<text text-anchor="middle" x="78.3743" y="-20.6" font-family="Times,serif" font-size="14.00" fill="#000000">&#45;</text>
<text text-anchor="middle" x="78.3743" y="-5.6" font-family="Times,serif" font-size="14.00" fill="#000000">0.0</text>
</g>
<!-- E10&#45;&gt;E11 -->
<g id="edge5" class="edge">
<title>E10&#45;&gt;E11</title>
<path fill="none" stroke="#ff0000" d="M167,-287.7644C167,-273.6462 167,-189.9328 167,-158.0871"/>
<polygon fill="#ff0000" stroke="#ff0000" points="170.5001,-157.9686 167,-147.9686 163.5001,-157.9686 170.5001,-157.9686"/>
<text text-anchor="middle" x="155.5" y="-256.7257" font-family="Times,serif" font-size="14.00" fill="#ff0000">&#45;</text>
<text text-anchor="middle" x="155.5" y="-241.7257" font-family="Times,serif" font-size="14.00" fill="#ff0000">q</text>
<text text-anchor="middle" x="155.5" y="-226.7257" font-family="Times,serif" font-size="14.00" fill="#ff0000">0.0</text>
</g>
<!-- E20 -->
<g id="node6" class="node">
<title>E20</title>
<ellipse fill="#000000" stroke="#000000" cx="311" cy="-289.8" rx="1.8" ry="1.8"/>
</g>
<!-- E10&#45;&gt;E20 -->
<g id="edge4" class="edge">
<title>E10&#45;&gt;E20</title>
<path fill="none" stroke="#000000" d="M169.0356,-289.8C183.1538,-289.8 266.8672,-289.8 298.7129,-289.8"/>
<polygon fill="#000000" stroke="#000000" points="298.8314,-293.3001 308.8314,-289.8 298.8314,-286.3001 298.8314,-293.3001"/>
<text text-anchor="middle" x="222.3743" y="-323.6" font-family="Times,serif" font-size="14.00" fill="#000000">i</text>
<text text-anchor="middle" x="222.3743" y="-308.6" font-family="Times,serif" font-size="14.00" fill="#000000">&#45;</text>
<text text-anchor="middle" x="222.3743" y="-293.6" font-family="Times,serif" font-size="14.00" fill="#000000">0.0</text>
</g>
<!-- E21 -->
<g id="node7" class="node">
<title>E21</title>
<ellipse fill="#000000" stroke="#000000" cx="311" cy="-145.8" rx="1.8" ry="1.8"/>
</g>
<!-- E10&#45;&gt;E21 -->
<g id="edge6" class="edge">
<title>E10&#45;&gt;E21</title>
<path fill="none" stroke="#000000" d="M168.6172,-288.1828C181.9424,-274.8576 273.833,-182.967 302.4866,-154.3134"/>
<polygon fill="#000000" stroke="#000000" points="304.9786,-156.7712 309.5748,-147.2252 300.0288,-151.8214 304.9786,-156.7712"/>
<text text-anchor="middle" x="220.0519" y="-255.0481" font-family="Times,serif" font-size="14.00" fill="#000000">i</text>
<text text-anchor="middle" x="220.0519" y="-240.0481" font-family="Times,serif" font-size="14.00" fill="#000000">q</text>
<text text-anchor="middle" x="220.0519" y="-225.0481" font-family="Times,serif" font-size="14.00" fill="#000000">&#45;1.0</text>
</g>
<!-- E11&#45;&gt;E21 -->
<g id="edge11" class="edge">
<title>E11&#45;&gt;E21</title>
<path fill="none" stroke="#000000" d="M169.0356,-145.8C183.1538,-145.8 266.8672,-145.8 298.7129,-145.8"/>
<polygon fill="#000000" stroke="#000000" points="298.8314,-149.3001 308.8314,-145.8 298.8314,-142.3001 298.8314,-149.3001"/>
<text text-anchor="middle" x="222.3743" y="-179.6" font-family="Times,serif" font-size="14.00" fill="#000000">i</text>
<text text-anchor="middle" x="222.3743" y="-164.6" font-family="Times,serif" font-size="14.00" fill="#000000">&#45;</text>
<text text-anchor="middle" x="222.3743" y="-149.6" font-family="Times,serif" font-size="14.00" fill="#000000">0.0</text>
</g>
<!-- E11&#45;&gt;E12 -->
<g id="edge10" class="edge">
<title>E11&#45;&gt;E12</title>
<path fill="none" stroke="#000000" d="M167,-143.7644C167,-129.6462 167,-45.9328 167,-14.0871"/>
<polygon fill="#000000" stroke="#000000" points="170.5001,-13.9686 167,-3.9686 163.5001,-13.9686 170.5001,-13.9686"/>
<text text-anchor="middle" x="155.5" y="-112.7257" font-family="Times,serif" font-size="14.00" fill="#000000">&#45;</text>
<text text-anchor="middle" x="155.5" y="-97.7257" font-family="Times,serif" font-size="14.00" fill="#000000">i</text>
<text text-anchor="middle" x="155.5" y="-82.7257" font-family="Times,serif" font-size="14.00" fill="#000000">0.0</text>
</g>
<!-- E22 -->
<g id="node9" class="node">
<title>E22</title>
<ellipse fill="#000000" stroke="#000000" cx="311" cy="-1.8" rx="1.8" ry="1.8"/>
</g>
<!-- E11&#45;&gt;E22 -->
<g id="edge12" class="edge">
<title>E11&#45;&gt;E22</title>
<path fill="none" stroke="#ff0000" d="M168.6172,-144.1828C181.9424,-130.8576 273.833,-38.967 302.4866,-10.3134"/>
<polygon fill="#ff0000" stroke="#ff0000" points="304.9786,-12.7712 309.5748,-3.2252 300.0288,-7.8214 304.9786,-12.7712"/>
<text text-anchor="middle" x="224.0519" y="-111.0481" font-family="Times,serif" font-size="14.00" fill="#ff0000">i</text>
<text text-anchor="middle" x="224.0519" y="-96.0481" font-family="Times,serif" font-size="14.00" fill="#ff0000">i</text>
<text text-anchor="middle" x="224.0519" y="-81.0481" font-family="Times,serif" font-size="14.00" fill="#ff0000">1.0</text>
</g>
<!-- E20&#45;&gt;E21 -->
<g id="edge15" class="edge">
<title>E20&#45;&gt;E21</title>
<path fill="none" stroke="#000000" d="M311,-287.7644C311,-273.6462 311,-189.9328 311,-158.0871"/>
<polygon fill="#000000" stroke="#000000" points="314.5001,-157.9686 311,-147.9686 307.5001,-157.9686 314.5001,-157.9686"/>
<text text-anchor="middle" x="299.5" y="-256.7257" font-family="Times,serif" font-size="14.00" fill="#000000">&#45;</text>
<text text-anchor="middle" x="299.5" y="-241.7257" font-family="Times,serif" font-size="14.00" fill="#000000">q</text>
<text text-anchor="middle" x="299.5" y="-226.7257" font-family="Times,serif" font-size="14.00" fill="#000000">0.0</text>
</g>
<!-- E21&#45;&gt;E22 -->
<g id="edge16" class="edge">
<title>E21&#45;&gt;E22</title>
<path fill="none" stroke="#000000" d="M311,-143.7644C311,-129.6462 311,-45.9328 311,-14.0871"/>
<polygon fill="#000000" stroke="#000000" points="314.5001,-13.9686 311,-3.9686 307.5001,-13.9686 314.5001,-13.9686"/>
<text text-anchor="middle" x="299.5" y="-112.7257" font-family="Times,serif" font-size="14.00" fill="#000000">&#45;</text>
<text text-anchor="middle" x="299.5" y="-97.7257" font-family="Times,serif" font-size="14.00" fill="#000000">i</text>
<text text-anchor="middle" x="299.5" y="-82.7257" font-family="Times,serif" font-size="14.00" fill="#000000">0.0</text>
</g>
<!-- E12&#45;&gt;E22 -->
<g id="edge14" class="edge">
<title>E12&#45;&gt;E22</title>
<path fill="none" stroke="#000000" d="M169.0356,-1.8C183.1538,-1.8 266.8672,-1.8 298.7129,-1.8"/>
<polygon fill="#000000" stroke="#000000" points="298.8314,-5.3001 308.8314,-1.8 298.8314,1.6999 298.8314,-5.3001"/>
<text text-anchor="middle" x="222.3743" y="-35.6" font-family="Times,serif" font-size="14.00" fill="#000000">i</text>
<text text-anchor="middle" x="222.3743" y="-20.6" font-family="Times,serif" font-size="14.00" fill="#000000">&#45;</text>
<text text-anchor="middle" x="222.3743" y="-5.6" font-family="Times,serif" font-size="14.00" fill="#000000">0.0</text>
</g>
</g>
</svg>
