<?xml version="1.0" encoding="UTF-8" standalone="no"?>
<!DOCTYPE svg PUBLIC "-//W3C//DTD SVG 1.1//EN"
 "http://www.w3.org/Graphics/SVG/1.1/DTD/svg11.dtd">
<!-- Generated by graphviz version 2.40.1 (0)
 -->
<!-- Title: G Pages: 1 -->
<svg width="406pt" height="365pt"
 viewBox="0.00 0.00 406.00 365.38" xmlns="http://www.w3.org/2000/svg" xmlns:xlink="http://www.w3.org/1999/xlink">
<g id="graph0" class="graph" transform="scale(1 1) rotate(0) translate(4 361.3803)">
<title>G</title>
<polygon fill="#ffffff" stroke="transparent" points="-4,4 -4,-361.3803 402,-361.3803 402,4 -4,4"/>
<!-- _B_t_ -->
<g id="node1" class="node">
<title>_B_t_</title>
<text text-anchor="middle" x="379" y="-174.9902" font-family="Times,serif" font-size="14.00" fill="#000000">_B_t_</text>
</g>
<!-- _B_h_ -->
<g id="node2" class="node">
<title>_B_h_</title>
<text text-anchor="middle" x="344.6231" y="-69.1888" font-family="Times,serif" font-size="14.00" fill="#000000">_B_h_</text>
</g>
<!-- _B_t_&#45;&#45;_B_h_ -->
<g id="edge1" class="edge">
<title>_B_t_&#45;&#45;_B_h_</title>
<path fill="none" stroke="#000000" stroke-dasharray="5,2" d="M373.3936,-161.4354C365.7886,-138.0298 352.5273,-97.2155 347.073,-80.4288"/>
<polygon fill="#000000" stroke="#000000" points="370.1088,-162.6522 376.5277,-171.0812 376.7662,-160.489 370.1088,-162.6522"/>
</g>
<!-- _D_t_ -->
<g id="node6" class="node">
<title>_D_t_</title>
<text text-anchor="middle" x="19" y="-174.9902" font-family="Times,serif" font-size="14.00" fill="#000000">_D_t_</text>
</g>
<!-- _B_t_&#45;&#45;_D_t_ -->
<g id="edge6" class="edge">
<title>_B_t_&#45;&#45;_D_t_</title>
<path fill="none" stroke="#0000ff" d="M359.899,-178.6902C297.5388,-178.6902 100.3489,-178.6902 38.055,-178.6902"/>
</g>
<!-- _E_t_ -->
<g id="node9" class="node">
<title>_E_t_</title>
<text text-anchor="middle" x="254.6231" y="-346.1803" font-family="Times,serif" font-size="14.00" fill="#000000">_E_t_</text>
</g>
<!-- _B_t_&#45;&#45;_E_t_ -->
<g id="edge13" class="edge">
<title>_B_t_&#45;&#45;_E_t_</title>
<path fill="none" stroke="#ff0000" d="M373.3326,-186.4907C352.6126,-215.0094 281.0981,-313.4406 260.3238,-342.034"/>
</g>
<!-- _A_t_ -->
<g id="node3" class="node">
<title>_A_t_</title>
<text text-anchor="middle" x="254.6231" y="-3.8" font-family="Times,serif" font-size="14.00" fill="#000000">_A_t_</text>
</g>
<!-- _A_t_&#45;&#45;_B_h_ -->
<g id="edge7" class="edge">
<title>_A_t_&#45;&#45;_B_h_</title>
<path fill="none" stroke="#0000ff" d="M258.9191,-15.1983C270.9258,-28.1685 304.1611,-52.9708 325.6091,-65.6178"/>
</g>
<!-- _A_t_&#45;&#45;_B_h_ -->
<g id="edge11" class="edge">
<title>_A_t_&#45;&#45;_B_h_</title>
<path fill="none" stroke="#ff0000" d="M273.8378,-14.8896C295.2376,-27.5404 328.1903,-52.1358 340.2357,-65.092"/>
</g>
<!-- _A_h_ -->
<g id="node4" class="node">
<title>_A_h_</title>
<text text-anchor="middle" x="143.3769" y="-3.8" font-family="Times,serif" font-size="14.00" fill="#000000">_A_h_</text>
</g>
<!-- _A_t_&#45;&#45;_A_h_ -->
<g id="edge2" class="edge">
<title>_A_t_&#45;&#45;_A_h_</title>
<path fill="none" stroke="#000000" stroke-dasharray="5,2" d="M225.4545,-7.5C205.6201,-7.5 179.9354,-7.5 162.6236,-7.5"/>
<polygon fill="#000000" stroke="#000000" points="225.4992,-11.0001 235.4992,-7.5 225.4991,-4.0001 225.4992,-11.0001"/>
</g>
<!-- _D_h_ -->
<g id="node5" class="node">
<title>_D_h_</title>
<text text-anchor="middle" x="53.3769" y="-69.1888" font-family="Times,serif" font-size="14.00" fill="#000000">_D_h_</text>
</g>
<!-- _A_h_&#45;&#45;_D_h_ -->
<g id="edge9" class="edge">
<title>_A_h_&#45;&#45;_D_h_</title>
<path fill="none" stroke="#0000ff" d="M133.0528,-15.0009C115.7845,-27.5471 81.2303,-52.6522 63.8579,-65.274"/>
</g>
<!-- _A_h_&#45;&#45;_D_t_ -->
<g id="edge12" class="edge">
<title>_A_h_&#45;&#45;_D_t_</title>
<path fill="none" stroke="#ff0000" d="M137.7095,-15.3005C116.9895,-43.8192 45.475,-142.2504 24.7007,-170.8438"/>
</g>
<!-- _D_h_&#45;&#45;_D_t_ -->
<g id="edge3" class="edge">
<title>_D_h_&#45;&#45;_D_t_</title>
<path fill="none" stroke="#000000" stroke-dasharray="5,2" d="M50.9046,-80.4978C45.429,-97.35 32.1647,-138.1733 24.5753,-161.5312"/>
<polygon fill="#000000" stroke="#000000" points="21.2114,-160.558 21.4499,-171.1501 27.8688,-162.7212 21.2114,-160.558"/>
</g>
<!-- _C_t_ -->
<g id="node7" class="node">
<title>_C_t_</title>
<text text-anchor="middle" x="53.3769" y="-280.7915" font-family="Times,serif" font-size="14.00" fill="#000000">_C_t_</text>
</g>
<!-- _C_h_ -->
<g id="node8" class="node">
<title>_C_h_</title>
<text text-anchor="middle" x="143.3769" y="-346.1803" font-family="Times,serif" font-size="14.00" fill="#000000">_C_h_</text>
</g>
<!-- _C_t_&#45;&#45;_C_h_ -->
<g id="edge4" class="edge">
<title>_C_t_&#45;&#45;_C_h_</title>
<path fill="none" stroke="#000000" stroke-dasharray="5,2" d="M71.9158,-297.9608C90.348,-311.3526 117.9666,-331.4186 132.896,-342.2655"/>
<polygon fill="#000000" stroke="#000000" points="73.8485,-295.0388 63.7011,-291.9924 69.734,-300.7019 73.8485,-295.0388"/>
</g>
<!-- _E_h_ -->
<g id="node10" class="node">
<title>_E_h_</title>
<text text-anchor="middle" x="344.6231" y="-280.7915" font-family="Times,serif" font-size="14.00" fill="#000000">_E_h_</text>
</g>
<!-- _C_t_&#45;&#45;_E_h_ -->
<g id="edge8" class="edge">
<title>_C_t_&#45;&#45;_E_h_</title>
<path fill="none" stroke="#0000ff" d="M72.4864,-288.0511C125.2584,-292.3031 272.5872,-292.305 325.4432,-288.0567"/>
</g>
<!-- _C_t_&#45;&#45;_E_h_ -->
<g id="edge14" class="edge">
<title>_C_t_&#45;&#45;_E_h_</title>
<path fill="none" stroke="#ff0000" d="M72.4864,-280.9319C125.2584,-276.6799 272.5872,-276.678 325.4432,-280.9263"/>
</g>
<!-- _C_h_&#45;&#45;_D_h_ -->
<g id="edge15" class="edge">
<title>_C_h_&#45;&#45;_D_h_</title>
<path fill="none" stroke="#ff0000" d="M140.8759,-342.1829C127.9301,-302.3398 68.6387,-119.8597 55.8236,-80.4188"/>
</g>
<!-- _C_h_&#45;&#45;_E_t_ -->
<g id="edge10" class="edge">
<title>_C_h_&#45;&#45;_E_t_</title>
<path fill="none" stroke="#0000ff" d="M162.5008,-349.8803C182.8771,-349.8803 214.9533,-349.8803 235.3764,-349.8803"/>
</g>
<!-- _E_t_&#45;&#45;_E_h_ -->
<g id="edge5" class="edge">
<title>_E_t_&#45;&#45;_E_h_</title>
<path fill="none" stroke="#000000" stroke-dasharray="5,2" d="M273.1619,-336.4111C291.5941,-323.0193 319.2127,-302.9532 334.1421,-292.1064"/>
<polygon fill="#000000" stroke="#000000" points="270.9801,-333.6699 264.9472,-342.3794 275.0947,-339.3331 270.9801,-333.6699"/>
</g>
</g>
</svg>
