<svg class="bob" font-family="arial" font-size="14" height="448" width="408" xmlns="http://www.w3.org/2000/svg">
<defs>
<marker id="triangle" markerHeight="8" markerWidth="8" orient="auto" refX="4" refY="2" viewBox="0 0 8 4">
<polygon class="fg_fill" points="0,0 0,4 8,2 0,0"/>
</marker>
<marker id="clear_triangle" markerHeight="10" markerWidth="10" orient="auto" refX="1" refY="7" viewBox="0 0 20 14">
<polygon class="bg_fill" points="2,2 2,12 18,7 2,2"/>
</marker>
<marker id="circle" markerHeight="5" markerWidth="5" orient="auto" refX="10" refY="10" viewBox="0 0 20 20">
<circle class="fg_fill" cx="10" cy="10" r="8"/>
</marker>
<marker id="square" markerHeight="5" markerWidth="5" orient="auto" refX="10" refY="10" viewBox="0 0 20 20">
<rect class="fg_fill" height="20" width="20" x="0" y="0"/>
</marker>
<marker id="open_circle" markerHeight="10" markerWidth="10" orient="auto" refX="10" refY="10" viewBox="0 0 20 20">
<circle class="bg_fill" cx="10" cy="10" r="4"/>
</marker>
<marker id="big_open_circle" markerHeight="20" markerWidth="20" orient="auto" refX="20" refY="20" viewBox="0 0 40 40">
<circle class="bg_fill" cx="20" cy="20" r="6"/>
</marker>
</defs>
<style type="text/css">

rect.backdrop {
    fill: white;
}
text{
    fill: black;
}

circle {
    fill: none;
    stroke: black;
    stroke-width: 2;
}

line {
    stroke: black;
    stroke-width: 2;
    stroke-opacity: 1;
    fill-opacity: 1;
    stroke-linecap: round;
    stroke-linejoin: miter;
}

path {
    fill: none;
    stroke: black;
    stroke-width: 2;
    stroke-opacity: 1;
    fill-opacity: 1;
    stroke-linecap: round;
    stroke-linejoin: miter;
}

line.dashed {
    stroke-dasharray: 5;
}

.fg_fill {
    fill: black;
}


.bg_fill {
    fill: white;
    stroke: black;
    stroke-width: 2;
}

tspan.head{
    fill: none;
    stroke: none;
}
    
</style>
<rect class="backdrop" height="448" width="408" x="0" y="0"/>
<g>
<line x1="4" x2="4" y1="152" y2="184"/>
<line x1="4" x2="68" y1="152" y2="152"/>
<line x1="4" x2="28" y1="184" y2="184"/>
<line x1="28" x2="28" y1="184" y2="192"/>
<line x1="28" x2="44" y1="184" y2="184"/>
<line x1="44" x2="44" y1="184" y2="192"/>
<line x1="44" x2="116" y1="184" y2="184"/>
<line x1="68" x2="68" y1="92" y2="152"/>
<line x1="68" x2="84" y1="152" y2="152"/>
<line x1="84" x2="84" y1="124" y2="152"/>
<line x1="84" x2="100" y1="152" y2="152"/>
<line x1="100" x2="100" y1="140" y2="152"/>
<line x1="100" x2="116" y1="152" y2="152"/>
<line x1="116" x2="116" y1="152" y2="184"/>
<line class="dashed" x1="28" x2="28" y1="192" y2="416"/>
<line class="dashed" x1="44" x2="44" y1="192" y2="352"/>
<path d="M 72 88 A 4 4 0 0 0 68 92"/>
<path d="M 88 120 A 4 4 0 0 0 84 124"/>
<path d="M 104 136 A 4 4 0 0 0 100 140"/>
</g>
<g>
<line x1="28" x2="28" y1="420" y2="416"/>
<path d="M 28 420 A 4 4 0 0 0 32 424"/>
</g>
<g>
<line x1="44" x2="44" y1="356" y2="352"/>
<path d="M 44 356 A 4 4 0 0 0 48 360"/>
</g>
<g>
<line marker-end="url(#triangle)" x1="52" x2="52" y1="28" y2="140"/>
<path d="M 56 24 A 4 4 0 0 0 52 28"/>
</g>
<g>
<line x1="56" x2="164" y1="24" y2="24"/>
<line x1="164" x2="164" y1="8" y2="24"/>
<line x1="164" x2="236" y1="8" y2="8"/>
<line x1="164" x2="164" y1="24" y2="40"/>
<line x1="164" x2="204" y1="40" y2="40"/>
<line x1="204" x2="204" y1="40" y2="72"/>
<line x1="204" x2="236" y1="40" y2="40"/>
<line x1="208" x2="204" y1="80" y2="72"/>
<line x1="208" x2="212" y1="80" y2="80"/>
<line x1="212" x2="212" y1="80" y2="96"/>
<line x1="212" x2="208" y1="96" y2="96"/>
<line x1="236" x2="236" y1="8" y2="24"/>
<line x1="236" x2="236" y1="24" y2="40"/>
<line x1="236" x2="352" y1="24" y2="24"/>
<path d="M 356 28 A 4 4 0 0 0 352 24"/>
</g>
<g>
<line marker-end="url(#triangle)" x1="60" x2="60" y1="208" y2="196"/>
<line x1="60" x2="60" y1="208" y2="260"/>
<path d="M 60 260 A 4 4 0 0 0 64 264"/>
</g>
<g>
<line x1="64" x2="88" y1="264" y2="264"/>
</g>
<g>
<line x1="72" x2="208" y1="88" y2="88"/>
</g>
<g>
<line marker-end="url(#triangle)" x1="84" x2="84" y1="208" y2="196"/>
<line x1="84" x2="84" y1="208" y2="248"/>
<line x1="88" x2="84" y1="256" y2="248"/>
<line x1="88" x2="92" y1="256" y2="256"/>
<line x1="92" x2="92" y1="256" y2="272"/>
<line x1="92" x2="88" y1="272" y2="272"/>
</g>
<g>
<line x1="84" x2="84" y1="280" y2="308"/>
<line x1="84" x2="88" y1="280" y2="272"/>
<path d="M 84 308 A 4 4 0 0 0 88 312"/>
</g>
<g>
<line x1="88" x2="168" y1="120" y2="120"/>
<path d="M 172 124 A 4 4 0 0 0 168 120"/>
</g>
<g>
<line x1="88" x2="320" y1="312" y2="312"/>
<path d="M 320 312 A 4 4 0 0 0 324 308"/>
</g>
<g>
<line x1="96" x2="160" y1="264" y2="264"/>
<path d="M 160 264 A 4 4 0 0 0 164 260"/>
</g>
<g>
<line marker-end="url(#triangle)" x1="100" x2="100" y1="208" y2="196"/>
<line x1="100" x2="100" y1="208" y2="228"/>
<path d="M 100 228 A 4 4 0 0 0 104 232"/>
</g>
<g>
<line x1="104" x2="128" y1="136" y2="136"/>
<path d="M 132 140 A 4 4 0 0 0 128 136"/>
</g>
<g>
<line x1="104" x2="128" y1="232" y2="232"/>
<path d="M 128 232 A 4 4 0 0 0 132 228"/>
</g>
<g>
<line x1="132" x2="132" y1="140" y2="228"/>
</g>
<g>
<line x1="148" x2="148" y1="152" y2="184"/>
<line x1="148" x2="260" y1="152" y2="152"/>
<line x1="148" x2="164" y1="184" y2="184"/>
<line x1="164" x2="164" y1="184" y2="260"/>
<line x1="164" x2="188" y1="184" y2="184"/>
<line x1="188" x2="188" y1="184" y2="228"/>
<line x1="188" x2="244" y1="184" y2="184"/>
<line x1="244" x2="244" y1="184" y2="260"/>
<line x1="244" x2="260" y1="184" y2="184"/>
<line x1="260" x2="260" y1="152" y2="184"/>
<path d="M 188 228 A 4 4 0 0 0 192 232"/>
<path d="M 244 260 A 4 4 0 0 0 248 264"/>
</g>
<g>
<line marker-end="url(#triangle)" x1="152" x2="156" y1="360" y2="360"/>
<line class="dashed" x1="48" x2="152" y1="360" y2="360"/>
</g>
<g>
<line marker-end="url(#triangle)" x1="152" x2="156" y1="424" y2="424"/>
<line class="dashed" x1="32" x2="152" y1="424" y2="424"/>
</g>
<g>
<line x1="164" x2="164" y1="344" y2="352"/>
<line x1="164" x2="168" y1="344" y2="344"/>
<line class="dashed" x1="164" x2="164" y1="352" y2="368"/>
<line class="dashed" x1="168" x2="224" y1="344" y2="344"/>
</g>
<g>
<line x1="164" x2="164" y1="376" y2="368"/>
<line x1="164" x2="168" y1="376" y2="376"/>
<line class="dashed" x1="168" x2="224" y1="376" y2="376"/>
</g>
<g>
<line x1="164" x2="164" y1="408" y2="416"/>
<line x1="164" x2="168" y1="408" y2="408"/>
<line class="dashed" x1="164" x2="164" y1="416" y2="432"/>
<line class="dashed" x1="168" x2="224" y1="408" y2="408"/>
</g>
<g>
<line x1="164" x2="164" y1="440" y2="432"/>
<line x1="164" x2="168" y1="440" y2="440"/>
<line class="dashed" x1="168" x2="224" y1="440" y2="440"/>
</g>
<g>
<line marker-end="url(#triangle)" x1="172" x2="172" y1="124" y2="140"/>
</g>
<g>
<line x1="192" x2="216" y1="232" y2="232"/>
<path d="M 216 232 A 4 4 0 0 0 220 228"/>
</g>
<g>
<line marker-end="url(#triangle)" x1="204" x2="204" y1="104" y2="140"/>
<line x1="204" x2="208" y1="104" y2="96"/>
</g>
<g>
<line x1="216" x2="336" y1="88" y2="88"/>
<path d="M 340 92 A 4 4 0 0 0 336 88"/>
</g>
<g>
<line marker-end="url(#triangle)" x1="220" x2="220" y1="208" y2="196"/>
<line x1="220" x2="220" y1="208" y2="228"/>
</g>
<g>
<line x1="228" x2="224" y1="344" y2="344"/>
<line x1="228" x2="228" y1="344" y2="352"/>
<line class="dashed" x1="228" x2="228" y1="352" y2="368"/>
</g>
<g>
<line x1="228" x2="224" y1="376" y2="376"/>
<line x1="228" x2="228" y1="376" y2="368"/>
</g>
<g>
<line x1="228" x2="224" y1="408" y2="408"/>
<line x1="228" x2="228" y1="408" y2="416"/>
<line class="dashed" x1="228" x2="228" y1="416" y2="432"/>
</g>
<g>
<line x1="228" x2="224" y1="440" y2="440"/>
<line x1="228" x2="228" y1="440" y2="432"/>
</g>
<g>
<line marker-end="url(#triangle)" x1="236" x2="236" y1="124" y2="140"/>
<path d="M 240 120 A 4 4 0 0 0 236 124"/>
</g>
<g>
<line x1="240" x2="320" y1="120" y2="120"/>
<path d="M 324 124 A 4 4 0 0 0 320 120"/>
</g>
<g>
<line marker-end="url(#triangle)" x1="240" x2="236" y1="360" y2="360"/>
<line class="dashed" x1="240" x2="360" y1="360" y2="360"/>
<path d="M 360 360 A 4 4 0 0 0 364 356"/>
</g>
<g>
<line marker-end="url(#triangle)" x1="240" x2="236" y1="424" y2="424"/>
<line class="dashed" x1="240" x2="376" y1="424" y2="424"/>
<path d="M 376 424 A 4 4 0 0 0 380 420"/>
</g>
<g>
<line x1="248" x2="328" y1="264" y2="264"/>
</g>
<g>
<line x1="276" x2="276" y1="140" y2="228"/>
<path d="M 276 228 A 4 4 0 0 0 280 232"/>
<path d="M 280 136 A 4 4 0 0 0 276 140"/>
</g>
<g>
<line x1="280" x2="304" y1="136" y2="136"/>
<path d="M 308 140 A 4 4 0 0 0 304 136"/>
</g>
<g>
<line x1="280" x2="304" y1="232" y2="232"/>
<path d="M 304 232 A 4 4 0 0 0 308 228"/>
</g>
<g>
<line x1="292" x2="292" y1="152" y2="184"/>
<line x1="292" x2="308" y1="152" y2="152"/>
<line x1="292" x2="324" y1="184" y2="184"/>
<line x1="308" x2="308" y1="140" y2="152"/>
<line x1="308" x2="324" y1="152" y2="152"/>
<line x1="324" x2="324" y1="124" y2="152"/>
<line x1="324" x2="404" y1="152" y2="152"/>
<line x1="324" x2="324" y1="184" y2="248"/>
<line x1="324" x2="364" y1="184" y2="184"/>
<line x1="328" x2="324" y1="256" y2="248"/>
<line x1="328" x2="332" y1="256" y2="256"/>
<line x1="332" x2="332" y1="256" y2="272"/>
<line x1="332" x2="328" y1="272" y2="272"/>
<line x1="364" x2="364" y1="184" y2="192"/>
<line x1="364" x2="380" y1="184" y2="184"/>
<line x1="380" x2="380" y1="184" y2="192"/>
<line x1="380" x2="404" y1="184" y2="184"/>
<line x1="404" x2="404" y1="152" y2="184"/>
<line class="dashed" x1="364" x2="364" y1="192" y2="352"/>
<line class="dashed" x1="380" x2="380" y1="192" y2="416"/>
</g>
<g>
<line marker-end="url(#triangle)" x1="308" x2="308" y1="208" y2="196"/>
<line x1="308" x2="308" y1="208" y2="228"/>
</g>
<g>
<line x1="324" x2="324" y1="280" y2="308"/>
<line x1="324" x2="328" y1="280" y2="272"/>
</g>
<g>
<line x1="336" x2="344" y1="264" y2="264"/>
<path d="M 344 264 A 4 4 0 0 0 348 260"/>
</g>
<g>
<line marker-end="url(#triangle)" x1="340" x2="340" y1="92" y2="140"/>
</g>
<g>
<line marker-end="url(#triangle)" x1="348" x2="348" y1="208" y2="196"/>
<line x1="348" x2="348" y1="208" y2="260"/>
</g>
<g>
<line marker-end="url(#triangle)" x1="356" x2="356" y1="28" y2="140"/>
</g>
<g>
<line x1="364" x2="364" y1="356" y2="352"/>
</g>
<g>
<line x1="380" x2="380" y1="420" y2="416"/>
</g>
<g>
<text x="49" y="172">
A
</text>
</g>
<g>
<text x="177" y="28">
SOURCE
</text>
</g>
<g>
<text x="193" y="172">
C
</text>
</g>
<g>
<text x="193" y="364">
y
</text>
</g>
<g>
<text x="193" y="428">
z
</text>
</g>
<g>
<text x="337" y="172">
B
</text>
</g>
</svg>
