<svg class="bob" font-family="arial" font-size="14" height="128" width="672" xmlns="http://www.w3.org/2000/svg">
<defs>
<marker id="triangle" markerHeight="8" markerWidth="8" orient="auto" refX="4" refY="2" viewBox="0 0 8 4">
<polygon class="fg_fill" points="0,0 0,4 8,2 0,0"/>
</marker>
<marker id="clear_triangle" markerHeight="10" markerWidth="10" orient="auto" refX="1" refY="7" viewBox="0 0 20 14">
<polygon class="bg_fill" points="2,2 2,12 18,7 2,2"/>
</marker>
<marker id="circle" markerHeight="5" markerWidth="5" orient="auto" refX="10" refY="10" viewBox="0 0 20 20">
<circle class="fg_fill" cx="10" cy="10" r="8"/>
</marker>
<marker id="square" markerHeight="5" markerWidth="5" orient="auto" refX="10" refY="10" viewBox="0 0 20 20">
<rect class="fg_fill" height="20" width="20" x="0" y="0"/>
</marker>
<marker id="open_circle" markerHeight="10" markerWidth="10" orient="auto" refX="10" refY="10" viewBox="0 0 20 20">
<circle class="bg_fill" cx="10" cy="10" r="4"/>
</marker>
<marker id="big_open_circle" markerHeight="20" markerWidth="20" orient="auto" refX="20" refY="20" viewBox="0 0 40 40">
<circle class="bg_fill" cx="20" cy="20" r="6"/>
</marker>
</defs>
<style type="text/css">

rect.backdrop {
    fill: white;
}
text{
    fill: black;
}

circle {
    fill: none;
    stroke: black;
    stroke-width: 2;
}

line {
    stroke: black;
    stroke-width: 2;
    stroke-opacity: 1;
    fill-opacity: 1;
    stroke-linecap: round;
    stroke-linejoin: miter;
}

path {
    fill: none;
    stroke: black;
    stroke-width: 2;
    stroke-opacity: 1;
    fill-opacity: 1;
    stroke-linecap: round;
    stroke-linejoin: miter;
}

line.dashed {
    stroke-dasharray: 5;
}

.fg_fill {
    fill: black;
}


.bg_fill {
    fill: white;
    stroke: black;
    stroke-width: 2;
}

tspan.head{
    fill: none;
    stroke: none;
}
    
</style>
<rect class="backdrop" height="128" width="672" x="0" y="0"/>
<g>
<line x1="8" x2="52" y1="24" y2="24"/>
<line x1="52" x2="52" y1="24" y2="84"/>
<line x1="52" x2="96" y1="24" y2="24"/>
<path d="M 4 20 A 4 4 0 0 0 8 24"/>
<path d="M 52 84 A 4 4 0 0 0 56 88"/>
<path d="M 96 24 A 4 4 0 0 0 100 20"/>
</g>
<g>
<line x1="56" x2="224" y1="88" y2="88"/>
</g>
<g>
<line x1="120" x2="132" y1="24" y2="24"/>
<line x1="132" x2="132" y1="24" y2="68"/>
<line x1="132" x2="144" y1="24" y2="24"/>
<path d="M 116 20 A 4 4 0 0 0 120 24"/>
<path d="M 132 68 A 4 4 0 0 0 136 72"/>
<path d="M 144 24 A 4 4 0 0 0 148 20"/>
</g>
<g>
<line x1="136" x2="224" y1="72" y2="72"/>
</g>
<g>
<line x1="168" x2="204" y1="24" y2="24"/>
<line x1="204" x2="204" y1="24" y2="52"/>
<line x1="204" x2="240" y1="24" y2="24"/>
<path d="M 164 20 A 4 4 0 0 0 168 24"/>
<path d="M 204 52 A 4 4 0 0 0 208 56"/>
<path d="M 240 24 A 4 4 0 0 0 244 20"/>
</g>
<g>
<line x1="208" x2="224" y1="56" y2="56"/>
</g>
<g>
<text x="1" y="124">
int const * * const = An unmodifiable pointer to a pointer to an unmodifiable int
</text>
</g>
<g>
<text x="9" y="12">
int const
</text>
</g>
<g>
<text x="121" y="12">
*
</text>
</g>
<g>
<text x="169" y="12">
* const
</text>
</g>
<g>
<text x="233" y="60">
an unmodifiable pointer to
</text>
</g>
<g>
<text x="233" y="76">
a pointer to
</text>
</g>
<g>
<text x="233" y="92">
an unmodifiable int
</text>
</g>
</svg>
