<?xml version="1.0" encoding="UTF-8" standalone="no"?>
<!DOCTYPE svg PUBLIC "-//W3C//DTD SVG 1.1//EN"
 "http://www.w3.org/Graphics/SVG/1.1/DTD/svg11.dtd">
<!-- Generated by graphviz version 2.40.1 (0)
 -->
<!-- Title: G Pages: 1 -->
<svg width="221pt" height="154pt"
 viewBox="0.00 0.00 221.00 154.00" xmlns="http://www.w3.org/2000/svg" xmlns:xlink="http://www.w3.org/1999/xlink">
<g id="graph0" class="graph" transform="scale(1 1) rotate(0) translate(4 150)">
<title>G</title>
<polygon fill="#ffffff" stroke="transparent" points="-4,4 -4,-150 217,-150 217,4 -4,4"/>
<!-- N1 -->
<g id="node1" class="node">
<title>N1</title>
<ellipse fill="none" stroke="#000000" cx="14.5" cy="-61.5" rx="14.5" ry="14.5"/>
<text text-anchor="middle" x="14.5" y="-59" font-family="Courier,monospace" font-weight="bold" font-size="10.00" fill="#000000">N1</text>
</g>
<!-- N2 -->
<g id="node2" class="node">
<title>N2</title>
<ellipse fill="none" stroke="#000000" cx="102.5" cy="-108.5" rx="14.5" ry="14.5"/>
<text text-anchor="middle" x="102.5" y="-106" font-family="Courier,monospace" font-weight="bold" font-size="10.00" fill="#000000">N2</text>
</g>
<!-- N1&#45;&#45;N2 -->
<g id="edge3" class="edge">
<title>N1&#45;&#45;N2</title>
<path fill="none" stroke="#000000" d="M27.4847,-68.435C44.1226,-77.3211 72.7985,-92.6367 89.462,-101.5365"/>
<text text-anchor="middle" x="58.5" y="-93.5" font-family="Courier,monospace" font-weight="bold" font-size="10.00" fill="#000000">7.0</text>
</g>
<!-- v3 -->
<g id="node5" class="node">
<title>v3</title>
<ellipse fill="none" stroke="#000000" cx="102.5" cy="-61.5" rx="14.5" ry="14.5"/>
<text text-anchor="middle" x="102.5" y="-59" font-family="Courier,monospace" font-weight="bold" font-size="10.00" fill="#000000">v3</text>
</g>
<!-- N1&#45;&#45;v3 -->
<g id="edge1" class="edge">
<title>N1&#45;&#45;v3</title>
<path fill="none" stroke="#000000" d="M29.0314,-61.5C45.3364,-61.5 71.6332,-61.5 87.947,-61.5"/>
<text text-anchor="middle" x="58.5" y="-64.5" font-family="Courier,monospace" font-weight="bold" font-size="10.00" fill="#000000">3.0</text>
</g>
<!-- v4 -->
<g id="node6" class="node">
<title>v4</title>
<ellipse fill="none" stroke="#000000" cx="102.5" cy="-14.5" rx="14.5" ry="14.5"/>
<text text-anchor="middle" x="102.5" y="-12" font-family="Courier,monospace" font-weight="bold" font-size="10.00" fill="#000000">v4</text>
</g>
<!-- N1&#45;&#45;v4 -->
<g id="edge2" class="edge">
<title>N1&#45;&#45;v4</title>
<path fill="none" stroke="#000000" d="M27.4847,-54.565C44.1226,-45.6789 72.7985,-30.3633 89.462,-21.4635"/>
<text text-anchor="middle" x="58.5" y="-47.5" font-family="Courier,monospace" font-weight="bold" font-size="10.00" fill="#000000">4.0</text>
</g>
<!-- v0 -->
<g id="node3" class="node">
<title>v0</title>
<ellipse fill="none" stroke="#000000" cx="198.5" cy="-131.5" rx="14.5" ry="14.5"/>
<text text-anchor="middle" x="198.5" y="-129" font-family="Courier,monospace" font-weight="bold" font-size="10.00" fill="#000000">v0</text>
</g>
<!-- N2&#45;&#45;v0 -->
<g id="edge4" class="edge">
<title>N2&#45;&#45;v0</title>
<path fill="none" stroke="#000000" d="M116.6651,-111.8937C134.8155,-116.2423 166.0984,-123.7371 184.2768,-128.0923"/>
<text text-anchor="middle" x="150.5" y="-125.5" font-family="Courier,monospace" font-weight="bold" font-size="10.00" fill="#000000">11.0</text>
</g>
<!-- v2 -->
<g id="node4" class="node">
<title>v2</title>
<ellipse fill="none" stroke="#000000" cx="198.5" cy="-84.5" rx="14.5" ry="14.5"/>
<text text-anchor="middle" x="198.5" y="-82" font-family="Courier,monospace" font-weight="bold" font-size="10.00" fill="#000000">v2</text>
</g>
<!-- N2&#45;&#45;v2 -->
<g id="edge5" class="edge">
<title>N2&#45;&#45;v2</title>
<path fill="none" stroke="#000000" d="M116.6651,-104.9587C134.8155,-100.4211 166.0984,-92.6004 184.2768,-88.0558"/>
<text text-anchor="middle" x="150.5" y="-102.5" font-family="Courier,monospace" font-weight="bold" font-size="10.00" fill="#000000">10.0</text>
</g>
</g>
</svg>
