<?xml version="1.0" encoding="utf-8" standalone="no"?>
<!DOCTYPE svg PUBLIC "-//W3C//DTD SVG 1.1//EN"
  "http://www.w3.org/Graphics/SVG/1.1/DTD/svg11.dtd">
<svg xmlns:xlink="http://www.w3.org/1999/xlink" width="371.52pt" height="290.190125pt" viewBox="0 0 371.52 290.190125" xmlns="http://www.w3.org/2000/svg" version="1.1">
 <metadata>
  <rdf:RDF xmlns:dc="http://purl.org/dc/elements/1.1/" xmlns:cc="http://creativecommons.org/ns#" xmlns:rdf="http://www.w3.org/1999/02/22-rdf-syntax-ns#">
   <cc:Work>
    <dc:type rdf:resource="http://purl.org/dc/dcmitype/StillImage"/>
    <dc:date>2024-01-18T01:41:38.193330</dc:date>
    <dc:format>image/svg+xml</dc:format>
    <dc:creator>
     <cc:Agent>
      <dc:title>Matplotlib v3.5.3, https://matplotlib.org/</dc:title>
     </cc:Agent>
    </dc:creator>
   </cc:Work>
  </rdf:RDF>
 </metadata>
 <defs>
  <style type="text/css">*{stroke-linejoin: round; stroke-linecap: butt}</style>
 </defs>
 <g id="figure_1">
  <g id="patch_1">
   <path d="M 0 290.190125 
L 371.52 290.190125 
L 371.52 0 
L 0 0 
z
" style="fill: #ffffff"/>
  </g>
  <g id="axes_1">
   <g id="patch_2">
    <path d="M 7.2 277.111219 
L 364.32 277.111219 
L 364.32 10.999219 
L 7.2 10.999219 
z
" style="fill: #ffffff"/>
   </g>
   <g id="matplotlib.axis_1">
    <g id="xtick_1">
     <g id="line2d_1">
      <defs>
       <path id="mabde1af34f" d="M 0 0 
L 0 3.5 
" style="stroke: #000000; stroke-width: 0.8"/>
      </defs>
      <g>
       <use xlink:href="#mabde1af34f" x="23.432727" y="144.055219" style="stroke: #000000; stroke-width: 0.8"/>
      </g>
     </g>
     <g id="text_1">
      <!-- −4 -->
      <g transform="translate(16.061634 158.653656)scale(0.1 -0.1)">
       <defs>
        <path id="DejaVuSans-2212" d="M 678 2272 
L 4684 2272 
L 4684 1741 
L 678 1741 
L 678 2272 
z
" transform="scale(0.015625)"/>
        <path id="DejaVuSans-34" d="M 2419 4116 
L 825 1625 
L 2419 1625 
L 2419 4116 
z
M 2253 4666 
L 3047 4666 
L 3047 1625 
L 3713 1625 
L 3713 1100 
L 3047 1100 
L 3047 0 
L 2419 0 
L 2419 1100 
L 313 1100 
L 313 1709 
L 2253 4666 
z
" transform="scale(0.015625)"/>
       </defs>
       <use xlink:href="#DejaVuSans-2212"/>
       <use xlink:href="#DejaVuSans-34" x="83.789062"/>
      </g>
     </g>
    </g>
    <g id="xtick_2">
     <g id="line2d_2">
      <g>
       <use xlink:href="#mabde1af34f" x="64.014545" y="144.055219" style="stroke: #000000; stroke-width: 0.8"/>
      </g>
     </g>
     <g id="text_2">
      <!-- −3 -->
      <g transform="translate(56.643452 158.653656)scale(0.1 -0.1)">
       <defs>
        <path id="DejaVuSans-33" d="M 2597 2516 
Q 3050 2419 3304 2112 
Q 3559 1806 3559 1356 
Q 3559 666 3084 287 
Q 2609 -91 1734 -91 
Q 1441 -91 1130 -33 
Q 819 25 488 141 
L 488 750 
Q 750 597 1062 519 
Q 1375 441 1716 441 
Q 2309 441 2620 675 
Q 2931 909 2931 1356 
Q 2931 1769 2642 2001 
Q 2353 2234 1838 2234 
L 1294 2234 
L 1294 2753 
L 1863 2753 
Q 2328 2753 2575 2939 
Q 2822 3125 2822 3475 
Q 2822 3834 2567 4026 
Q 2313 4219 1838 4219 
Q 1578 4219 1281 4162 
Q 984 4106 628 3988 
L 628 4550 
Q 988 4650 1302 4700 
Q 1616 4750 1894 4750 
Q 2613 4750 3031 4423 
Q 3450 4097 3450 3541 
Q 3450 3153 3228 2886 
Q 3006 2619 2597 2516 
z
" transform="scale(0.015625)"/>
       </defs>
       <use xlink:href="#DejaVuSans-2212"/>
       <use xlink:href="#DejaVuSans-33" x="83.789062"/>
      </g>
     </g>
    </g>
    <g id="xtick_3">
     <g id="line2d_3">
      <g>
       <use xlink:href="#mabde1af34f" x="104.596364" y="144.055219" style="stroke: #000000; stroke-width: 0.8"/>
      </g>
     </g>
     <g id="text_3">
      <!-- −2 -->
      <g transform="translate(97.22527 158.653656)scale(0.1 -0.1)">
       <defs>
        <path id="DejaVuSans-32" d="M 1228 531 
L 3431 531 
L 3431 0 
L 469 0 
L 469 531 
Q 828 903 1448 1529 
Q 2069 2156 2228 2338 
Q 2531 2678 2651 2914 
Q 2772 3150 2772 3378 
Q 2772 3750 2511 3984 
Q 2250 4219 1831 4219 
Q 1534 4219 1204 4116 
Q 875 4013 500 3803 
L 500 4441 
Q 881 4594 1212 4672 
Q 1544 4750 1819 4750 
Q 2544 4750 2975 4387 
Q 3406 4025 3406 3419 
Q 3406 3131 3298 2873 
Q 3191 2616 2906 2266 
Q 2828 2175 2409 1742 
Q 1991 1309 1228 531 
z
" transform="scale(0.015625)"/>
       </defs>
       <use xlink:href="#DejaVuSans-2212"/>
       <use xlink:href="#DejaVuSans-32" x="83.789062"/>
      </g>
     </g>
    </g>
    <g id="xtick_4">
     <g id="line2d_4">
      <g>
       <use xlink:href="#mabde1af34f" x="145.178182" y="144.055219" style="stroke: #000000; stroke-width: 0.8"/>
      </g>
     </g>
     <g id="text_4">
      <!-- −1 -->
      <g transform="translate(137.807088 158.653656)scale(0.1 -0.1)">
       <defs>
        <path id="DejaVuSans-31" d="M 794 531 
L 1825 531 
L 1825 4091 
L 703 3866 
L 703 4441 
L 1819 4666 
L 2450 4666 
L 2450 531 
L 3481 531 
L 3481 0 
L 794 0 
L 794 531 
z
" transform="scale(0.015625)"/>
       </defs>
       <use xlink:href="#DejaVuSans-2212"/>
       <use xlink:href="#DejaVuSans-31" x="83.789062"/>
      </g>
     </g>
    </g>
    <g id="xtick_5">
     <g id="line2d_5">
      <g>
       <use xlink:href="#mabde1af34f" x="185.76" y="144.055219" style="stroke: #000000; stroke-width: 0.8"/>
      </g>
     </g>
     <g id="text_5">
      <!-- 0 -->
      <g transform="translate(182.57875 158.653656)scale(0.1 -0.1)">
       <defs>
        <path id="DejaVuSans-30" d="M 2034 4250 
Q 1547 4250 1301 3770 
Q 1056 3291 1056 2328 
Q 1056 1369 1301 889 
Q 1547 409 2034 409 
Q 2525 409 2770 889 
Q 3016 1369 3016 2328 
Q 3016 3291 2770 3770 
Q 2525 4250 2034 4250 
z
M 2034 4750 
Q 2819 4750 3233 4129 
Q 3647 3509 3647 2328 
Q 3647 1150 3233 529 
Q 2819 -91 2034 -91 
Q 1250 -91 836 529 
Q 422 1150 422 2328 
Q 422 3509 836 4129 
Q 1250 4750 2034 4750 
z
" transform="scale(0.015625)"/>
       </defs>
       <use xlink:href="#DejaVuSans-30"/>
      </g>
     </g>
    </g>
    <g id="xtick_6">
     <g id="line2d_6">
      <g>
       <use xlink:href="#mabde1af34f" x="226.341818" y="144.055219" style="stroke: #000000; stroke-width: 0.8"/>
      </g>
     </g>
     <g id="text_6">
      <!-- 1 -->
      <g transform="translate(223.160568 158.653656)scale(0.1 -0.1)">
       <use xlink:href="#DejaVuSans-31"/>
      </g>
     </g>
    </g>
    <g id="xtick_7">
     <g id="line2d_7">
      <g>
       <use xlink:href="#mabde1af34f" x="266.923636" y="144.055219" style="stroke: #000000; stroke-width: 0.8"/>
      </g>
     </g>
     <g id="text_7">
      <!-- 2 -->
      <g transform="translate(263.742386 158.653656)scale(0.1 -0.1)">
       <use xlink:href="#DejaVuSans-32"/>
      </g>
     </g>
    </g>
    <g id="xtick_8">
     <g id="line2d_8">
      <g>
       <use xlink:href="#mabde1af34f" x="307.505455" y="144.055219" style="stroke: #000000; stroke-width: 0.8"/>
      </g>
     </g>
     <g id="text_8">
      <!-- 3 -->
      <g transform="translate(304.324205 158.653656)scale(0.1 -0.1)">
       <use xlink:href="#DejaVuSans-33"/>
      </g>
     </g>
    </g>
    <g id="xtick_9">
     <g id="line2d_9">
      <g>
       <use xlink:href="#mabde1af34f" x="348.087273" y="144.055219" style="stroke: #000000; stroke-width: 0.8"/>
      </g>
     </g>
     <g id="text_9">
      <!-- 4 -->
      <g transform="translate(344.906023 158.653656)scale(0.1 -0.1)">
       <use xlink:href="#DejaVuSans-34"/>
      </g>
     </g>
    </g>
   </g>
   <g id="matplotlib.axis_2">
    <g id="ytick_1">
     <g id="line2d_10">
      <defs>
       <path id="m904ca0f774" d="M 0 0 
L -3.5 0 
" style="stroke: #000000; stroke-width: 0.8"/>
      </defs>
      <g>
       <use xlink:href="#m904ca0f774" x="185.76" y="277.111219" style="stroke: #000000; stroke-width: 0.8"/>
      </g>
     </g>
     <g id="text_10">
      <!-- −4 -->
      <g transform="translate(164.017813 280.910437)scale(0.1 -0.1)">
       <use xlink:href="#DejaVuSans-2212"/>
       <use xlink:href="#DejaVuSans-34" x="83.789062"/>
      </g>
     </g>
    </g>
    <g id="ytick_2">
     <g id="line2d_11">
      <g>
       <use xlink:href="#m904ca0f774" x="185.76" y="243.847219" style="stroke: #000000; stroke-width: 0.8"/>
      </g>
     </g>
     <g id="text_11">
      <!-- −3 -->
      <g transform="translate(164.017813 247.646437)scale(0.1 -0.1)">
       <use xlink:href="#DejaVuSans-2212"/>
       <use xlink:href="#DejaVuSans-33" x="83.789062"/>
      </g>
     </g>
    </g>
    <g id="ytick_3">
     <g id="line2d_12">
      <g>
       <use xlink:href="#m904ca0f774" x="185.76" y="210.583219" style="stroke: #000000; stroke-width: 0.8"/>
      </g>
     </g>
     <g id="text_12">
      <!-- −2 -->
      <g transform="translate(164.017813 214.382437)scale(0.1 -0.1)">
       <use xlink:href="#DejaVuSans-2212"/>
       <use xlink:href="#DejaVuSans-32" x="83.789062"/>
      </g>
     </g>
    </g>
    <g id="ytick_4">
     <g id="line2d_13">
      <g>
       <use xlink:href="#m904ca0f774" x="185.76" y="177.319219" style="stroke: #000000; stroke-width: 0.8"/>
      </g>
     </g>
     <g id="text_13">
      <!-- −1 -->
      <g transform="translate(164.017813 181.118437)scale(0.1 -0.1)">
       <use xlink:href="#DejaVuSans-2212"/>
       <use xlink:href="#DejaVuSans-31" x="83.789062"/>
      </g>
     </g>
    </g>
    <g id="ytick_5">
     <g id="line2d_14">
      <g>
       <use xlink:href="#m904ca0f774" x="185.76" y="144.055219" style="stroke: #000000; stroke-width: 0.8"/>
      </g>
     </g>
     <g id="text_14">
      <!-- 0 -->
      <g transform="translate(172.3975 147.854437)scale(0.1 -0.1)">
       <use xlink:href="#DejaVuSans-30"/>
      </g>
     </g>
    </g>
    <g id="ytick_6">
     <g id="line2d_15">
      <g>
       <use xlink:href="#m904ca0f774" x="185.76" y="110.791219" style="stroke: #000000; stroke-width: 0.8"/>
      </g>
     </g>
     <g id="text_15">
      <!-- 1 -->
      <g transform="translate(172.3975 114.590437)scale(0.1 -0.1)">
       <use xlink:href="#DejaVuSans-31"/>
      </g>
     </g>
    </g>
    <g id="ytick_7">
     <g id="line2d_16">
      <g>
       <use xlink:href="#m904ca0f774" x="185.76" y="77.527219" style="stroke: #000000; stroke-width: 0.8"/>
      </g>
     </g>
     <g id="text_16">
      <!-- 2 -->
      <g transform="translate(172.3975 81.326437)scale(0.1 -0.1)">
       <use xlink:href="#DejaVuSans-32"/>
      </g>
     </g>
    </g>
    <g id="ytick_8">
     <g id="line2d_17">
      <g>
       <use xlink:href="#m904ca0f774" x="185.76" y="44.263219" style="stroke: #000000; stroke-width: 0.8"/>
      </g>
     </g>
     <g id="text_17">
      <!-- 3 -->
      <g transform="translate(172.3975 48.062437)scale(0.1 -0.1)">
       <use xlink:href="#DejaVuSans-33"/>
      </g>
     </g>
    </g>
    <g id="ytick_9">
     <g id="line2d_18">
      <g>
       <use xlink:href="#m904ca0f774" x="185.76" y="10.999219" style="stroke: #000000; stroke-width: 0.8"/>
      </g>
     </g>
     <g id="text_18">
      <!-- 4 -->
      <g transform="translate(172.3975 14.798437)scale(0.1 -0.1)">
       <use xlink:href="#DejaVuSans-34"/>
      </g>
     </g>
    </g>
   </g>
   <g id="line2d_19">
    <path d="M 101.015735 -1 
L 105.327568 13.385825 
L 109.552301 26.752207 
L 113.777035 39.39758 
L 118.001769 51.321946 
L 121.901523 61.689104 
L 125.801278 71.441913 
L 129.701032 80.580371 
L 133.275807 88.417601 
L 136.850581 95.738607 
L 140.425356 102.543388 
L 143.675152 108.281589 
L 146.924947 113.593158 
L 150.174742 118.478095 
L 153.424537 122.9364 
L 156.349353 126.584104 
L 159.274169 129.886235 
L 162.198984 132.842796 
L 164.798821 135.180739 
L 167.398657 137.245638 
L 169.998493 139.037493 
L 172.598329 140.556303 
L 175.198165 141.802068 
L 177.798002 142.774789 
L 180.072858 143.401938 
L 182.347715 143.820038 
L 184.622572 144.029088 
L 186.897428 144.029088 
L 189.172285 143.820038 
L 191.447142 143.401938 
L 193.721998 142.774789 
L 195.996855 141.938591 
L 198.596691 140.726956 
L 201.196527 139.242276 
L 203.796364 137.484552 
L 206.3962 135.453784 
L 208.996036 133.149971 
L 211.595872 130.573113 
L 214.520688 127.347775 
L 217.445504 123.776865 
L 220.370319 119.860383 
L 223.295135 115.598329 
L 226.54493 110.457413 
L 229.794726 104.889864 
L 233.044521 98.895684 
L 236.619296 91.809326 
L 240.19407 84.206743 
L 243.768845 76.087936 
L 247.6686 66.642302 
L 251.568354 56.582319 
L 255.468108 45.907985 
L 259.367862 34.619302 
L 263.592596 21.696617 
L 267.81733 8.052925 
L 270.504265 -1 
L 270.504265 -1 
" clip-path="url(#pab024fd2e3)" style="fill: none; stroke: #1f77b4; stroke-width: 1.5; stroke-linecap: square"/>
   </g>
   <g id="line2d_20">
    <path d="M 119.144391 291.190125 
L 121.576544 275.653212 
L 124.17638 260.300575 
L 126.776216 246.190986 
L 129.376052 233.27197 
L 131.975889 221.49105 
L 134.575725 210.795747 
L 137.175561 201.133587 
L 139.450418 193.485441 
L 141.725274 186.552961 
L 144.000131 180.300991 
L 146.274988 174.694375 
L 148.549844 169.697959 
L 150.824701 165.276586 
L 153.099558 161.395101 
L 155.049435 158.471173 
L 156.999312 155.89593 
L 158.949189 153.647233 
L 160.899066 151.702944 
L 162.848943 150.040924 
L 164.798821 148.639034 
L 166.748698 147.475136 
L 169.023554 146.388514 
L 171.298411 145.560536 
L 173.573268 144.956047 
L 176.173104 144.493764 
L 179.09792 144.202385 
L 182.997674 144.065709 
L 193.072039 143.86064 
L 195.996855 143.521295 
L 198.596691 143.002435 
L 200.871548 142.337679 
L 203.146405 141.43939 
L 205.421261 140.272413 
L 207.371138 139.031644 
L 209.321016 137.545504 
L 211.270893 135.791854 
L 213.22077 133.748555 
L 215.170647 131.39347 
L 217.120524 128.704458 
L 219.070401 125.659381 
L 221.020278 122.236101 
L 222.970156 118.412479 
L 225.245012 113.416062 
L 227.519869 107.809447 
L 229.794726 101.557477 
L 232.069582 94.624997 
L 234.344439 86.976851 
L 236.619296 78.577884 
L 238.894152 69.39294 
L 241.493989 57.888344 
L 244.093825 45.258772 
L 246.693661 31.451746 
L 249.293497 16.41479 
L 252.060254 -1 
L 252.060254 -1 
" clip-path="url(#pab024fd2e3)" style="fill: none; stroke: #ff7f0e; stroke-width: 1.5; stroke-linecap: square"/>
   </g>
   <g id="line2d_21">
    <path d="M 127.116439 -1 
L 129.376052 20.098411 
L 131.32593 36.376045 
L 133.275807 50.99532 
L 135.225684 64.072891 
L 137.175561 75.721157 
L 139.125438 86.048263 
L 141.075315 95.158101 
L 143.025192 103.150305 
L 144.97507 110.120257 
L 146.924947 116.15908 
L 148.549844 120.542957 
L 150.174742 124.388634 
L 151.79964 127.742076 
L 153.424537 130.647194 
L 155.049435 133.145848 
L 156.674333 135.277845 
L 158.29923 137.08094 
L 159.924128 138.590838 
L 161.549025 139.841189 
L 163.498903 141.043359 
L 165.44878 141.967882 
L 167.398657 142.661208 
L 169.673514 143.233935 
L 172.27335 143.649463 
L 175.523145 143.920535 
L 180.072858 144.042389 
L 192.097101 144.035439 
L 196.971794 143.861421 
L 200.221589 143.518789 
L 202.821425 143.015994 
L 205.096282 142.340708 
L 207.046159 141.537323 
L 208.996036 140.480049 
L 210.620934 139.370126 
L 212.245831 138.019863 
L 213.870729 136.396839 
L 215.495627 134.466583 
L 217.120524 132.192569 
L 218.745422 129.536221 
L 220.370319 126.456911 
L 221.995217 122.911959 
L 223.620115 118.856633 
L 225.245012 114.244148 
L 226.86991 109.025668 
L 228.494808 103.150305 
L 230.444685 95.158101 
L 232.394562 86.048263 
L 234.344439 75.721157 
L 236.294316 64.072891 
L 238.244193 50.99532 
L 240.19407 36.376045 
L 242.143948 20.098411 
L 244.093825 2.041507 
L 244.403561 -1 
L 244.403561 -1 
" clip-path="url(#pab024fd2e3)" style="fill: none; stroke: #2ca02c; stroke-width: 1.5; stroke-linecap: square"/>
   </g>
   <g id="line2d_22">
    <path d="M 131.124803 291.190125 
L 132.625848 272.048081 
L 134.250745 253.638247 
L 135.875643 237.410494 
L 137.500541 223.164827 
L 139.125438 210.713862 
L 140.750336 199.882417 
L 142.375233 190.507099 
L 144.000131 182.435893 
L 145.625029 175.527756 
L 147.249926 169.652198 
L 148.874824 164.688879 
L 150.499722 160.527193 
L 152.124619 157.06586 
L 153.749517 154.212515 
L 155.374414 151.883295 
L 156.999312 150.002429 
L 158.62421 148.501832 
L 160.249107 147.320685 
L 161.874005 146.405034 
L 163.823882 145.590245 
L 165.773759 145.018987 
L 168.048616 144.581938 
L 170.973432 144.268845 
L 174.873186 144.101438 
L 182.672695 144.055304 
L 198.596691 143.949881 
L 202.171466 143.695425 
L 204.771302 143.304675 
L 207.046159 142.734521 
L 208.996036 142.008175 
L 210.620934 141.185072 
L 212.245831 140.116228 
L 213.870729 138.750315 
L 215.495627 137.029311 
L 216.795545 135.353324 
L 218.095463 133.371748 
L 219.395381 131.044577 
L 220.695299 128.328458 
L 221.995217 125.176553 
L 223.295135 121.538408 
L 224.920033 116.224002 
L 226.54493 109.950412 
L 228.169828 102.593288 
L 229.794726 94.017968 
L 231.419623 84.079068 
L 233.044521 72.620073 
L 234.669419 59.472924 
L 236.294316 44.457605 
L 237.919214 27.381739 
L 239.544111 8.040172 
L 240.2403 -1 
L 240.2403 -1 
" clip-path="url(#pab024fd2e3)" style="fill: none; stroke: #d62728; stroke-width: 1.5; stroke-linecap: square"/>
   </g>
   <g id="line2d_23">
    <path d="M 133.889505 -1 
L 135.225684 20.031764 
L 136.850581 42.116196 
L 138.475479 60.821476 
L 140.100377 76.574545 
L 141.725274 89.760544 
L 143.025192 98.694912 
L 144.325111 106.368999 
L 145.625029 112.929226 
L 146.924947 118.508866 
L 148.224865 123.228859 
L 149.524783 127.198592 
L 150.824701 130.516666 
L 152.124619 133.271624 
L 153.424537 135.542663 
L 154.724455 137.400316 
L 156.024373 138.907106 
L 157.324292 140.118179 
L 158.949189 141.289263 
L 160.574087 142.15444 
L 162.198984 142.781277 
L 164.148862 143.296552 
L 166.423718 143.665974 
L 169.348534 143.909716 
L 173.898247 144.034475 
L 187.222408 144.055219 
L 201.196527 143.95446 
L 204.771302 143.703612 
L 207.371138 143.296552 
L 209.321016 142.781277 
L 210.945913 142.15444 
L 212.570811 141.289263 
L 213.870729 140.380551 
L 215.170647 139.235597 
L 216.470565 137.807632 
L 217.770483 136.043257 
L 219.070401 133.881853 
L 220.370319 131.254949 
L 221.670238 128.085579 
L 222.970156 124.287599 
L 224.270074 119.764992 
L 225.569992 114.411137 
L 226.86991 108.108056 
L 228.169828 100.725633 
L 229.469746 92.120813 
L 230.769664 82.136765 
L 232.069582 70.602031 
L 233.3695 57.329639 
L 234.669419 42.116196 
L 235.969337 24.740955 
L 237.594234 -0.384152 
L 237.630495 -1 
L 237.630495 -1 
" clip-path="url(#pab024fd2e3)" style="fill: none; stroke: #9467bd; stroke-width: 1.5; stroke-linecap: square"/>
   </g>
   <g id="line2d_24">
    <path d="M 135.574698 291.190125 
L 136.850581 266.912659 
L 138.1505 245.799343 
L 139.450418 227.875674 
L 140.750336 212.72954 
L 142.050254 199.992577 
L 143.350172 189.336587 
L 144.65009 180.470162 
L 145.950008 173.135499 
L 147.249926 167.105404 
L 148.549844 162.180484 
L 149.849762 158.186512 
L 151.149681 154.971965 
L 152.449599 152.405729 
L 153.749517 150.374964 
L 155.049435 148.783122 
L 156.349353 147.548118 
L 157.649271 146.600634 
L 159.274169 145.733054 
L 160.899066 145.132368 
L 162.848943 144.663311 
L 165.1238 144.347676 
L 168.373595 144.143348 
L 173.898247 144.061282 
L 205.421261 143.846802 
L 208.021097 143.558077 
L 209.970975 143.16039 
L 211.595872 142.645229 
L 213.22077 141.894278 
L 214.520688 141.068125 
L 215.820606 139.984809 
L 217.120524 138.580811 
L 218.420442 136.780631 
L 219.72036 134.495172 
L 221.020278 131.61998 
L 222.320197 128.033333 
L 223.620115 123.594191 
L 224.920033 118.139975 
L 226.219951 111.484194 
L 227.519869 103.413894 
L 228.819787 93.68694 
L 230.119705 82.029112 
L 231.419623 68.131017 
L 232.719541 51.64481 
L 234.019459 32.180711 
L 235.319378 9.303328 
L 235.842272 -1 
L 235.842272 -1 
" clip-path="url(#pab024fd2e3)" style="fill: none; stroke: #8c564b; stroke-width: 1.5; stroke-linecap: square"/>
   </g>
   <g id="patch_3">
    <path d="M 185.76 277.111219 
L 185.76 10.999219 
" style="fill: none; stroke: #000000; stroke-width: 0.8; stroke-linejoin: miter; stroke-linecap: square"/>
   </g>
   <g id="patch_4">
    <path d="M 364.32 277.111219 
L 364.32 10.999219 
" style="fill: none"/>
   </g>
   <g id="patch_5">
    <path d="M 7.2 144.055219 
L 364.32 144.055219 
" style="fill: none; stroke: #000000; stroke-width: 0.8; stroke-linejoin: miter; stroke-linecap: square"/>
   </g>
   <g id="patch_6">
    <path d="M 7.2 10.999219 
L 364.32 10.999219 
" style="fill: none"/>
   </g>
   <g id="legend_1">
    <g id="patch_7">
     <path d="M 14.2 107.067969 
L 66.860938 107.067969 
Q 68.860938 107.067969 68.860938 105.067969 
L 68.860938 17.999219 
Q 68.860938 15.999219 66.860938 15.999219 
L 14.2 15.999219 
Q 12.2 15.999219 12.2 17.999219 
L 12.2 105.067969 
Q 12.2 107.067969 14.2 107.067969 
z
" style="fill: #ffffff; opacity: 0.8; stroke: #cccccc; stroke-linejoin: miter"/>
    </g>
    <g id="line2d_25">
     <path d="M 16.2 24.097656 
L 26.2 24.097656 
L 36.2 24.097656 
" style="fill: none; stroke: #1f77b4; stroke-width: 1.5; stroke-linecap: square"/>
    </g>
    <g id="text_19">
     <!-- x^2 -->
     <g transform="translate(44.2 27.597656)scale(0.1 -0.1)">
      <defs>
       <path id="DejaVuSans-78" d="M 3513 3500 
L 2247 1797 
L 3578 0 
L 2900 0 
L 1881 1375 
L 863 0 
L 184 0 
L 1544 1831 
L 300 3500 
L 978 3500 
L 1906 2253 
L 2834 3500 
L 3513 3500 
z
" transform="scale(0.015625)"/>
       <path id="DejaVuSans-5e" d="M 2988 4666 
L 4684 2925 
L 4056 2925 
L 2681 4159 
L 1306 2925 
L 678 2925 
L 2375 4666 
L 2988 4666 
z
" transform="scale(0.015625)"/>
      </defs>
      <use xlink:href="#DejaVuSans-78"/>
      <use xlink:href="#DejaVuSans-5e" x="59.179688"/>
      <use xlink:href="#DejaVuSans-32" x="142.96875"/>
     </g>
    </g>
    <g id="line2d_26">
     <path d="M 16.2 38.775781 
L 26.2 38.775781 
L 36.2 38.775781 
" style="fill: none; stroke: #ff7f0e; stroke-width: 1.5; stroke-linecap: square"/>
    </g>
    <g id="text_20">
     <!-- x^3 -->
     <g transform="translate(44.2 42.275781)scale(0.1 -0.1)">
      <use xlink:href="#DejaVuSans-78"/>
      <use xlink:href="#DejaVuSans-5e" x="59.179688"/>
      <use xlink:href="#DejaVuSans-33" x="142.96875"/>
     </g>
    </g>
    <g id="line2d_27">
     <path d="M 16.2 53.453906 
L 26.2 53.453906 
L 36.2 53.453906 
" style="fill: none; stroke: #2ca02c; stroke-width: 1.5; stroke-linecap: square"/>
    </g>
    <g id="text_21">
     <!-- x^4 -->
     <g transform="translate(44.2 56.953906)scale(0.1 -0.1)">
      <use xlink:href="#DejaVuSans-78"/>
      <use xlink:href="#DejaVuSans-5e" x="59.179688"/>
      <use xlink:href="#DejaVuSans-34" x="142.96875"/>
     </g>
    </g>
    <g id="line2d_28">
     <path d="M 16.2 68.132031 
L 26.2 68.132031 
L 36.2 68.132031 
" style="fill: none; stroke: #d62728; stroke-width: 1.5; stroke-linecap: square"/>
    </g>
    <g id="text_22">
     <!-- x^5 -->
     <g transform="translate(44.2 71.632031)scale(0.1 -0.1)">
      <defs>
       <path id="DejaVuSans-35" d="M 691 4666 
L 3169 4666 
L 3169 4134 
L 1269 4134 
L 1269 2991 
Q 1406 3038 1543 3061 
Q 1681 3084 1819 3084 
Q 2600 3084 3056 2656 
Q 3513 2228 3513 1497 
Q 3513 744 3044 326 
Q 2575 -91 1722 -91 
Q 1428 -91 1123 -41 
Q 819 9 494 109 
L 494 744 
Q 775 591 1075 516 
Q 1375 441 1709 441 
Q 2250 441 2565 725 
Q 2881 1009 2881 1497 
Q 2881 1984 2565 2268 
Q 2250 2553 1709 2553 
Q 1456 2553 1204 2497 
Q 953 2441 691 2322 
L 691 4666 
z
" transform="scale(0.015625)"/>
      </defs>
      <use xlink:href="#DejaVuSans-78"/>
      <use xlink:href="#DejaVuSans-5e" x="59.179688"/>
      <use xlink:href="#DejaVuSans-35" x="142.96875"/>
     </g>
    </g>
    <g id="line2d_29">
     <path d="M 16.2 82.810156 
L 26.2 82.810156 
L 36.2 82.810156 
" style="fill: none; stroke: #9467bd; stroke-width: 1.5; stroke-linecap: square"/>
    </g>
    <g id="text_23">
     <!-- x^6 -->
     <g transform="translate(44.2 86.310156)scale(0.1 -0.1)">
      <defs>
       <path id="DejaVuSans-36" d="M 2113 2584 
Q 1688 2584 1439 2293 
Q 1191 2003 1191 1497 
Q 1191 994 1439 701 
Q 1688 409 2113 409 
Q 2538 409 2786 701 
Q 3034 994 3034 1497 
Q 3034 2003 2786 2293 
Q 2538 2584 2113 2584 
z
M 3366 4563 
L 3366 3988 
Q 3128 4100 2886 4159 
Q 2644 4219 2406 4219 
Q 1781 4219 1451 3797 
Q 1122 3375 1075 2522 
Q 1259 2794 1537 2939 
Q 1816 3084 2150 3084 
Q 2853 3084 3261 2657 
Q 3669 2231 3669 1497 
Q 3669 778 3244 343 
Q 2819 -91 2113 -91 
Q 1303 -91 875 529 
Q 447 1150 447 2328 
Q 447 3434 972 4092 
Q 1497 4750 2381 4750 
Q 2619 4750 2861 4703 
Q 3103 4656 3366 4563 
z
" transform="scale(0.015625)"/>
      </defs>
      <use xlink:href="#DejaVuSans-78"/>
      <use xlink:href="#DejaVuSans-5e" x="59.179688"/>
      <use xlink:href="#DejaVuSans-36" x="142.96875"/>
     </g>
    </g>
    <g id="line2d_30">
     <path d="M 16.2 97.488281 
L 26.2 97.488281 
L 36.2 97.488281 
" style="fill: none; stroke: #8c564b; stroke-width: 1.5; stroke-linecap: square"/>
    </g>
    <g id="text_24">
     <!-- x^7 -->
     <g transform="translate(44.2 100.988281)scale(0.1 -0.1)">
      <defs>
       <path id="DejaVuSans-37" d="M 525 4666 
L 3525 4666 
L 3525 4397 
L 1831 0 
L 1172 0 
L 2766 4134 
L 525 4134 
L 525 4666 
z
" transform="scale(0.015625)"/>
      </defs>
      <use xlink:href="#DejaVuSans-78"/>
      <use xlink:href="#DejaVuSans-5e" x="59.179688"/>
      <use xlink:href="#DejaVuSans-37" x="142.96875"/>
     </g>
    </g>
   </g>
  </g>
 </g>
 <defs>
  <clipPath id="pab024fd2e3">
   <rect x="7.2" y="10.999219" width="357.12" height="266.112"/>
  </clipPath>
 </defs>
</svg>
