<svg class="bob" font-family="arial" font-size="14" height="208" width="616" xmlns="http://www.w3.org/2000/svg">
<defs>
<marker id="triangle" markerHeight="8" markerWidth="8" orient="auto" refX="4" refY="2" viewBox="0 0 8 4">
<polygon class="fg_fill" points="0,0 0,4 8,2 0,0"/>
</marker>
<marker id="clear_triangle" markerHeight="10" markerWidth="10" orient="auto" refX="1" refY="7" viewBox="0 0 20 14">
<polygon class="bg_fill" points="2,2 2,12 18,7 2,2"/>
</marker>
<marker id="circle" markerHeight="5" markerWidth="5" orient="auto" refX="10" refY="10" viewBox="0 0 20 20">
<circle class="fg_fill" cx="10" cy="10" r="8"/>
</marker>
<marker id="square" markerHeight="5" markerWidth="5" orient="auto" refX="10" refY="10" viewBox="0 0 20 20">
<rect class="fg_fill" height="20" width="20" x="0" y="0"/>
</marker>
<marker id="open_circle" markerHeight="10" markerWidth="10" orient="auto" refX="10" refY="10" viewBox="0 0 20 20">
<circle class="bg_fill" cx="10" cy="10" r="4"/>
</marker>
<marker id="big_open_circle" markerHeight="20" markerWidth="20" orient="auto" refX="20" refY="20" viewBox="0 0 40 40">
<circle class="bg_fill" cx="20" cy="20" r="6"/>
</marker>
</defs>
<style type="text/css">

rect.backdrop {
    fill: white;
}
text{
    fill: black;
}

circle {
    fill: none;
    stroke: black;
    stroke-width: 2;
}

line {
    stroke: black;
    stroke-width: 2;
    stroke-opacity: 1;
    fill-opacity: 1;
    stroke-linecap: round;
    stroke-linejoin: miter;
}

path {
    fill: none;
    stroke: black;
    stroke-width: 2;
    stroke-opacity: 1;
    fill-opacity: 1;
    stroke-linecap: round;
    stroke-linejoin: miter;
}

line.dashed {
    stroke-dasharray: 5;
}

.fg_fill {
    fill: black;
}


.bg_fill {
    fill: white;
    stroke: black;
    stroke-width: 2;
}

tspan.head{
    fill: none;
    stroke: none;
}
    
</style>
<rect class="backdrop" height="208" width="616" x="0" y="0"/>
<g>
<line x1="16" x2="24" y1="48" y2="64"/>
</g>
<g>
<line x1="16" x2="24" y1="128" y2="112"/>
</g>
<g>
<line x1="28" x2="28" y1="80" y2="96"/>
</g>
<g>
<line x1="32" x2="40" y1="64" y2="48"/>
</g>
<g>
<line x1="32" x2="40" y1="112" y2="128"/>
</g>
<g>
<line x1="32" x2="40" y1="160" y2="144"/>
</g>
<g>
<line x1="48" x2="56" y1="144" y2="160"/>
</g>
<g>
<line x1="176" x2="184" y1="64" y2="48"/>
</g>
<g>
<line x1="188" x2="188" y1="48" y2="64"/>
</g>
<g>
<line x1="192" x2="200" y1="48" y2="64"/>
</g>
<g>
<line x1="192" x2="200" y1="96" y2="80"/>
</g>
<g>
<line x1="208" x2="216" y1="80" y2="96"/>
</g>
<g>
<line x1="208" x2="216" y1="128" y2="112"/>
</g>
<g>
<line x1="224" x2="232" y1="112" y2="128"/>
</g>
<g>
<line x1="360" x2="368" y1="96" y2="80"/>
</g>
<g>
<line x1="372" x2="372" y1="80" y2="96"/>
</g>
<g>
<line x1="376" x2="384" y1="64" y2="48"/>
</g>
<g>
<line x1="388" x2="388" y1="48" y2="64"/>
</g>
<g>
<line x1="392" x2="400" y1="48" y2="64"/>
</g>
<g>
<line x1="404" x2="404" y1="80" y2="96"/>
</g>
<g>
<line x1="408" x2="416" y1="80" y2="96"/>
</g>
<g>
<line x1="544" x2="552" y1="64" y2="48"/>
</g>
<g>
<line x1="556" x2="556" y1="48" y2="64"/>
</g>
<g>
<line x1="560" x2="568" y1="48" y2="64"/>
</g>
<g>
<line x1="560" x2="568" y1="96" y2="80"/>
</g>
<g>
<line x1="576" x2="584" y1="80" y2="96"/>
</g>
<g>
<line x1="576" x2="584" y1="128" y2="112"/>
</g>
<g>
<line x1="592" x2="600" y1="112" y2="128"/>
</g>
<g>
<text x="1" y="12">
UNROOTED
</text>
</g>
<g>
<text x="1" y="204">
*
</text>
</g>
<g>
<text x="9" y="44">
a
</text>
</g>
<g>
<text x="9" y="140">
e
</text>
</g>
<g>
<text x="17" y="204">
Either c, d, or f could be the root.
</text>
</g>
<g>
<text x="25" y="76">
c
</text>
</g>
<g>
<text x="25" y="108">
d
</text>
</g>
<g>
<text x="25" y="172">
g
</text>
</g>
<g>
<text x="41" y="44">
b
</text>
</g>
<g>
<text x="41" y="140">
f
</text>
</g>
<g>
<text x="57" y="172">
h
</text>
</g>
<g>
<text x="161" y="12">
c AS ROOT
</text>
</g>
<g>
<text x="169" y="76">
a
</text>
</g>
<g>
<text x="185" y="44">
c
</text>
</g>
<g>
<text x="185" y="76">
b
</text>
</g>
<g>
<text x="185" y="108">
e
</text>
</g>
<g>
<text x="201" y="76">
d
</text>
</g>
<g>
<text x="201" y="140">
g
</text>
</g>
<g>
<text x="217" y="108">
f
</text>
</g>
<g>
<text x="233" y="140">
h
</text>
</g>
<g>
<text x="345" y="12">
d AS ROOT
</text>
</g>
<g>
<text x="353" y="108">
a
</text>
</g>
<g>
<text x="369" y="76">
c
</text>
</g>
<g>
<text x="369" y="108">
b
</text>
</g>
<g>
<text x="385" y="44">
d
</text>
</g>
<g>
<text x="385" y="76">
e
</text>
</g>
<g>
<text x="401" y="76">
f
</text>
</g>
<g>
<text x="401" y="108">
g
</text>
</g>
<g>
<text x="417" y="108">
h
</text>
</g>
<g>
<text x="529" y="12">
f AS ROOT
</text>
</g>
<g>
<text x="537" y="76">
g
</text>
</g>
<g>
<text x="553" y="44">
f
</text>
</g>
<g>
<text x="553" y="76">
h
</text>
</g>
<g>
<text x="553" y="108">
e
</text>
</g>
<g>
<text x="569" y="76">
d
</text>
</g>
<g>
<text x="569" y="140">
a
</text>
</g>
<g>
<text x="585" y="108">
c
</text>
</g>
<g>
<text x="601" y="140">
b
</text>
</g>
</svg>
