<?xml version="1.0" encoding="UTF-8" standalone="no"?>
<!DOCTYPE svg PUBLIC "-//W3C//DTD SVG 1.1//EN"
 "http://www.w3.org/Graphics/SVG/1.1/DTD/svg11.dtd">
<!-- Generated by graphviz version 2.40.1 (0)
 -->
<!-- Title: G Pages: 1 -->
<svg width="334pt" height="311pt"
 viewBox="0.00 0.00 334.00 311.00" xmlns="http://www.w3.org/2000/svg" xmlns:xlink="http://www.w3.org/1999/xlink">
<g id="graph0" class="graph" transform="scale(1 1) rotate(0) translate(4 307)">
<title>G</title>
<polygon fill="#ffffff" stroke="transparent" points="-4,4 -4,-307 330,-307 330,4 -4,4"/>
<!-- _C_t_ -->
<g id="node1" class="node">
<title>_C_t_</title>
<text text-anchor="middle" x="307" y="-147.8" font-family="Times,serif" font-size="14.00" fill="#000000">_C_t_</text>
</g>
<!-- _C_h_ -->
<g id="node2" class="node">
<title>_C_h_</title>
<text text-anchor="middle" x="264.8234" y="-45.9766" font-family="Times,serif" font-size="14.00" fill="#000000">_C_h_</text>
</g>
<!-- _C_t_&#45;&#45;_C_h_ -->
<g id="edge1" class="edge">
<title>_C_t_&#45;&#45;_C_h_</title>
<path fill="none" stroke="#000000" stroke-dasharray="5,2" d="M303.8299,-143.8467C296.0136,-124.9765 275.885,-76.3818 268.0303,-57.4187"/>
</g>
<!-- _D_h_ -->
<g id="node8" class="node">
<title>_D_h_</title>
<text text-anchor="middle" x="264.8234" y="-249.6234" font-family="Times,serif" font-size="14.00" fill="#000000">_D_h_</text>
</g>
<!-- _C_t_&#45;&#45;_D_h_ -->
<g id="edge5" class="edge">
<title>_C_t_&#45;&#45;_D_h_</title>
<path fill="none" stroke="#0000ff" d="M299.3075,-159.3227C287.3934,-178.3825 267.6149,-226.6779 264.2405,-245.6196"/>
</g>
<!-- _C_t_&#45;&#45;_D_h_ -->
<g id="edge12" class="edge">
<title>_C_t_&#45;&#45;_D_h_</title>
<path fill="none" stroke="#ff0000" d="M307.5829,-159.2038C304.1979,-178.205 284.3055,-226.7448 272.4037,-245.6795"/>
</g>
<!-- _D_t_ -->
<g id="node7" class="node">
<title>_D_t_</title>
<text text-anchor="middle" x="163" y="-291.8" font-family="Times,serif" font-size="14.00" fill="#000000">_D_t_</text>
</g>
<!-- _C_h_&#45;&#45;_D_t_ -->
<g id="edge11" class="edge">
<title>_C_h_&#45;&#45;_D_t_</title>
<path fill="none" stroke="#ff0000" d="M261.6643,-57.3032C246.4917,-93.9332 181.2134,-251.5289 166.1222,-287.9624"/>
</g>
<!-- _B_t_ -->
<g id="node3" class="node">
<title>_B_t_</title>
<text text-anchor="middle" x="163" y="-3.8" font-family="Times,serif" font-size="14.00" fill="#000000">_B_t_</text>
</g>
<!-- _B_t_&#45;&#45;_C_h_ -->
<g id="edge7" class="edge">
<title>_B_t_&#45;&#45;_C_h_</title>
<path fill="none" stroke="#0000ff" d="M181.204,-15.0403C199.6234,-22.6699 227.948,-34.4024 246.4337,-42.0594"/>
</g>
<!-- _B_h_ -->
<g id="node4" class="node">
<title>_B_h_</title>
<text text-anchor="middle" x="61.1766" y="-45.9766" font-family="Times,serif" font-size="14.00" fill="#000000">_B_h_</text>
</g>
<!-- _B_t_&#45;&#45;_B_h_ -->
<g id="edge2" class="edge">
<title>_B_t_&#45;&#45;_B_h_</title>
<path fill="none" stroke="#000000" stroke-dasharray="5,2" d="M144.796,-15.0403C126.3766,-22.6699 98.052,-34.4024 79.5663,-42.0594"/>
</g>
<!-- _A_h_ -->
<g id="node6" class="node">
<title>_A_h_</title>
<text text-anchor="middle" x="61.1766" y="-249.6234" font-family="Times,serif" font-size="14.00" fill="#000000">_A_h_</text>
</g>
<!-- _B_t_&#45;&#45;_A_h_ -->
<g id="edge9" class="edge">
<title>_B_t_&#45;&#45;_A_h_</title>
<path fill="none" stroke="#ff0000" d="M159.841,-15.1266C144.6683,-51.7565 79.39,-209.3523 64.2988,-245.7857"/>
</g>
<!-- _A_t_ -->
<g id="node5" class="node">
<title>_A_t_</title>
<text text-anchor="middle" x="19" y="-147.8" font-family="Times,serif" font-size="14.00" fill="#000000">_A_t_</text>
</g>
<!-- _A_t_&#45;&#45;_B_h_ -->
<g id="edge8" class="edge">
<title>_A_t_&#45;&#45;_B_h_</title>
<path fill="none" stroke="#0000ff" d="M26.6925,-143.6773C38.6066,-124.6175 58.3851,-76.3221 61.7595,-57.3804"/>
</g>
<!-- _A_t_&#45;&#45;_B_h_ -->
<g id="edge10" class="edge">
<title>_A_t_&#45;&#45;_B_h_</title>
<path fill="none" stroke="#ff0000" d="M18.4171,-143.7962C21.8021,-124.795 41.6945,-76.2552 53.5963,-57.3205"/>
</g>
<!-- _A_t_&#45;&#45;_A_h_ -->
<g id="edge3" class="edge">
<title>_A_t_&#45;&#45;_A_h_</title>
<path fill="none" stroke="#000000" stroke-dasharray="5,2" d="M22.1701,-159.1533C29.9864,-178.0235 50.115,-226.6182 57.9697,-245.5813"/>
</g>
<!-- _A_h_&#45;&#45;_D_t_ -->
<g id="edge6" class="edge">
<title>_A_h_&#45;&#45;_D_t_</title>
<path fill="none" stroke="#0000ff" d="M79.3806,-260.8637C97.8,-268.4933 126.1247,-280.2257 144.6103,-287.8827"/>
</g>
<!-- _D_t_&#45;&#45;_D_h_ -->
<g id="edge4" class="edge">
<title>_D_t_&#45;&#45;_D_h_</title>
<path fill="none" stroke="#000000" stroke-dasharray="5,2" d="M181.204,-287.9597C199.6234,-280.3301 227.948,-268.5976 246.4337,-260.9406"/>
</g>
</g>
</svg>
