<?xml version="1.0" encoding="UTF-8" standalone="no"?>
<!DOCTYPE svg PUBLIC "-//W3C//DTD SVG 1.1//EN"
 "http://www.w3.org/Graphics/SVG/1.1/DTD/svg11.dtd">
<!-- Generated by graphviz version 2.40.1 (0)
 -->
<!-- Title: G Pages: 1 -->
<svg width="227pt" height="303pt"
 viewBox="0.00 0.00 227.00 303.00" xmlns="http://www.w3.org/2000/svg" xmlns:xlink="http://www.w3.org/1999/xlink">
<g id="graph0" class="graph" transform="scale(1 1) rotate(0) translate(4 299)">
<title>G</title>
<polygon fill="#ffffff" stroke="transparent" points="-4,4 -4,-299 223,-299 223,4 -4,4"/>
<g id="clust1" class="cluster">
<title>cluster_1</title>
<polygon fill="none" stroke="#000000" points="8,-8 8,-167 211,-167 211,-8 8,-8"/>
<text text-anchor="middle" x="109.5" y="-155" font-family="Courier,monospace" font-weight="bold" font-size="10.00" fill="#000000">v3 added at node(i0)</text>
</g>
<g id="clust2" class="cluster">
<title>cluster_0</title>
<polygon fill="none" stroke="#000000" points="8,-175 8,-287 211,-287 211,-175 8,-175"/>
<text text-anchor="middle" x="109.5" y="-275" font-family="Courier,monospace" font-weight="bold" font-size="10.00" fill="#000000">Original</text>
</g>
<!-- v0_z -->
<g id="node1" class="node">
<title>v0_z</title>
<ellipse fill="none" stroke="#000000" cx="30.5" cy="-81" rx="14.5" ry="14.5"/>
<text text-anchor="middle" x="30.5" y="-78.5" font-family="Courier,monospace" font-weight="bold" font-size="10.00" fill="#000000">v0</text>
</g>
<!-- i0_z -->
<g id="node2" class="node">
<title>i0_z</title>
<ellipse fill="#d2b48c" stroke="#000000" cx="113.5" cy="-81" rx="14.5" ry="14.5"/>
<text text-anchor="middle" x="113.5" y="-78.5" font-family="Courier,monospace" font-weight="bold" font-size="10.00" fill="#000000">i0</text>
</g>
<!-- v0_z&#45;&#45;i0_z -->
<g id="edge1" class="edge">
<title>v0_z&#45;&#45;i0_z</title>
<path fill="none" stroke="#000000" d="M45.3387,-81C60.4463,-81 83.7287,-81 98.7897,-81"/>
<text text-anchor="middle" x="72" y="-84" font-family="Courier,monospace" font-weight="bold" font-size="10.00" fill="#000000">11</text>
</g>
<!-- v1_z -->
<g id="node3" class="node">
<title>v1_z</title>
<ellipse fill="none" stroke="#000000" cx="188.5" cy="-31" rx="14.5" ry="14.5"/>
<text text-anchor="middle" x="188.5" y="-28.5" font-family="Courier,monospace" font-weight="bold" font-size="10.00" fill="#000000">v1</text>
</g>
<!-- i0_z&#45;&#45;v1_z -->
<g id="edge2" class="edge">
<title>i0_z&#45;&#45;v1_z</title>
<path fill="none" stroke="#000000" d="M125.8847,-72.7435C139.8642,-63.4238 162.4618,-48.3588 176.3457,-39.1028"/>
<text text-anchor="middle" x="151" y="-61" font-family="Courier,monospace" font-weight="bold" font-size="10.00" fill="#000000">3</text>
</g>
<!-- v2_z -->
<g id="node4" class="node">
<title>v2_z</title>
<ellipse fill="none" stroke="#000000" cx="188.5" cy="-78" rx="14.5" ry="14.5"/>
<text text-anchor="middle" x="188.5" y="-75.5" font-family="Courier,monospace" font-weight="bold" font-size="10.00" fill="#000000">v2</text>
</g>
<!-- i0_z&#45;&#45;v2_z -->
<g id="edge3" class="edge">
<title>i0_z&#45;&#45;v2_z</title>
<path fill="none" stroke="#000000" d="M128.3176,-80.4073C141.5515,-79.8779 160.8224,-79.1071 173.9684,-78.5813"/>
<text text-anchor="middle" x="151" y="-82" font-family="Courier,monospace" font-weight="bold" font-size="10.00" fill="#000000">4</text>
</g>
<!-- v3_z -->
<g id="node5" class="node">
<title>v3_z</title>
<ellipse fill="none" stroke="#000000" cx="188.5" cy="-125" rx="14.5" ry="14.5"/>
<text text-anchor="middle" x="188.5" y="-122.5" font-family="Courier,monospace" font-weight="bold" font-size="10.00" fill="#000000">v3</text>
</g>
<!-- i0_z&#45;&#45;v3_z -->
<g id="edge4" class="edge">
<title>i0_z&#45;&#45;v3_z</title>
<path fill="none" stroke="#000000" d="M126.2227,-88.464C140.0979,-96.6041 162.1645,-109.5498 175.9652,-117.6462"/>
<text text-anchor="middle" x="151" y="-108" font-family="Courier,monospace" font-weight="bold" font-size="10.00" fill="#000000">2</text>
</g>
<!-- v0_x -->
<g id="node6" class="node">
<title>v0_x</title>
<ellipse fill="none" stroke="#000000" cx="30.5" cy="-223" rx="14.5" ry="14.5"/>
<text text-anchor="middle" x="30.5" y="-220.5" font-family="Courier,monospace" font-weight="bold" font-size="10.00" fill="#000000">v0</text>
</g>
<!-- i0_x -->
<g id="node7" class="node">
<title>i0_x</title>
<ellipse fill="#d2b48c" stroke="#000000" cx="113.5" cy="-223" rx="14.5" ry="14.5"/>
<text text-anchor="middle" x="113.5" y="-220.5" font-family="Courier,monospace" font-weight="bold" font-size="10.00" fill="#000000">i0</text>
</g>
<!-- v0_x&#45;&#45;i0_x -->
<g id="edge5" class="edge">
<title>v0_x&#45;&#45;i0_x</title>
<path fill="none" stroke="#000000" d="M45.3387,-223C60.4463,-223 83.7287,-223 98.7897,-223"/>
<text text-anchor="middle" x="72" y="-226" font-family="Courier,monospace" font-weight="bold" font-size="10.00" fill="#000000">11</text>
</g>
<!-- v1_x -->
<g id="node8" class="node">
<title>v1_x</title>
<ellipse fill="none" stroke="#000000" cx="188.5" cy="-198" rx="14.5" ry="14.5"/>
<text text-anchor="middle" x="188.5" y="-195.5" font-family="Courier,monospace" font-weight="bold" font-size="10.00" fill="#000000">v1</text>
</g>
<!-- i0_x&#45;&#45;v1_x -->
<g id="edge6" class="edge">
<title>i0_x&#45;&#45;v1_x</title>
<path fill="none" stroke="#000000" d="M127.2562,-218.4146C140.704,-213.932 161.0724,-207.1425 174.5771,-202.641"/>
<text text-anchor="middle" x="151" y="-214" font-family="Courier,monospace" font-weight="bold" font-size="10.00" fill="#000000">3</text>
</g>
<!-- v2_x -->
<g id="node9" class="node">
<title>v2_x</title>
<ellipse fill="none" stroke="#000000" cx="188.5" cy="-245" rx="14.5" ry="14.5"/>
<text text-anchor="middle" x="188.5" y="-242.5" font-family="Courier,monospace" font-weight="bold" font-size="10.00" fill="#000000">v2</text>
</g>
<!-- i0_x&#45;&#45;v2_x -->
<g id="edge7" class="edge">
<title>i0_x&#45;&#45;v2_x</title>
<path fill="none" stroke="#000000" d="M127.6069,-227.138C141.0157,-231.0713 161.0685,-236.9534 174.4563,-240.8805"/>
<text text-anchor="middle" x="151" y="-238" font-family="Courier,monospace" font-weight="bold" font-size="10.00" fill="#000000">4</text>
</g>
</g>
</svg>
