<svg class="bob" font-family="arial" font-size="14" height="112" width="112" xmlns="http://www.w3.org/2000/svg">
<defs>
<marker id="triangle" markerHeight="8" markerWidth="8" orient="auto" refX="4" refY="2" viewBox="0 0 8 4">
<polygon class="fg_fill" points="0,0 0,4 8,2 0,0"/>
</marker>
<marker id="clear_triangle" markerHeight="10" markerWidth="10" orient="auto" refX="1" refY="7" viewBox="0 0 20 14">
<polygon class="bg_fill" points="2,2 2,12 18,7 2,2"/>
</marker>
<marker id="circle" markerHeight="5" markerWidth="5" orient="auto" refX="10" refY="10" viewBox="0 0 20 20">
<circle class="fg_fill" cx="10" cy="10" r="8"/>
</marker>
<marker id="square" markerHeight="5" markerWidth="5" orient="auto" refX="10" refY="10" viewBox="0 0 20 20">
<rect class="fg_fill" height="20" width="20" x="0" y="0"/>
</marker>
<marker id="open_circle" markerHeight="10" markerWidth="10" orient="auto" refX="10" refY="10" viewBox="0 0 20 20">
<circle class="bg_fill" cx="10" cy="10" r="4"/>
</marker>
<marker id="big_open_circle" markerHeight="20" markerWidth="20" orient="auto" refX="20" refY="20" viewBox="0 0 40 40">
<circle class="bg_fill" cx="20" cy="20" r="6"/>
</marker>
</defs>
<style type="text/css">

rect.backdrop {
    fill: white;
}
text{
    fill: black;
}

circle {
    fill: none;
    stroke: black;
    stroke-width: 2;
}

line {
    stroke: black;
    stroke-width: 2;
    stroke-opacity: 1;
    fill-opacity: 1;
    stroke-linecap: round;
    stroke-linejoin: miter;
}

path {
    fill: none;
    stroke: black;
    stroke-width: 2;
    stroke-opacity: 1;
    fill-opacity: 1;
    stroke-linecap: round;
    stroke-linejoin: miter;
}

line.dashed {
    stroke-dasharray: 5;
}

.fg_fill {
    fill: black;
}


.bg_fill {
    fill: white;
    stroke: black;
    stroke-width: 2;
}

tspan.head{
    fill: none;
    stroke: none;
}
    
</style>
<rect class="backdrop" height="112" width="112" x="0" y="0"/>
<g>
<line x1="4" x2="4" y1="64" y2="96"/>
</g>
<g>
<line x1="12" x2="12" y1="16" y2="48"/>
</g>
<g>
<line x1="24" x2="32" y1="56" y2="56"/>
</g>
<g>
<line x1="44" x2="44" y1="64" y2="80"/>
</g>
<g>
<line x1="56" x2="64" y1="54" y2="54"/>
</g>
<g>
<line x1="56" x2="64" y1="58" y2="58"/>
</g>
<g>
<line x1="76" x2="76" y1="32" y2="48"/>
</g>
<g>
<text x="1" y="60">
5x
</text>
</g>
<g>
<text x="1" y="108">
coefficient
</text>
</g>
<g>
<text x="9" y="12">
variable
</text>
</g>
<g>
<text x="41" y="60">
6
</text>
</g>
<g>
<text x="41" y="92">
constant
</text>
</g>
<g>
<text x="49" y="28">
constant
</text>
</g>
<g>
<text x="73" y="60">
1
</text>
</g>
</svg>
