<svg class="bob" font-family="arial" font-size="14" height="112" width="928" xmlns="http://www.w3.org/2000/svg">
<defs>
<marker id="triangle" markerHeight="8" markerWidth="8" orient="auto" refX="4" refY="2" viewBox="0 0 8 4">
<polygon class="fg_fill" points="0,0 0,4 8,2 0,0"/>
</marker>
<marker id="clear_triangle" markerHeight="10" markerWidth="10" orient="auto" refX="1" refY="7" viewBox="0 0 20 14">
<polygon class="bg_fill" points="2,2 2,12 18,7 2,2"/>
</marker>
<marker id="circle" markerHeight="5" markerWidth="5" orient="auto" refX="10" refY="10" viewBox="0 0 20 20">
<circle class="fg_fill" cx="10" cy="10" r="8"/>
</marker>
<marker id="square" markerHeight="5" markerWidth="5" orient="auto" refX="10" refY="10" viewBox="0 0 20 20">
<rect class="fg_fill" height="20" width="20" x="0" y="0"/>
</marker>
<marker id="open_circle" markerHeight="10" markerWidth="10" orient="auto" refX="10" refY="10" viewBox="0 0 20 20">
<circle class="bg_fill" cx="10" cy="10" r="4"/>
</marker>
<marker id="big_open_circle" markerHeight="20" markerWidth="20" orient="auto" refX="20" refY="20" viewBox="0 0 40 40">
<circle class="bg_fill" cx="20" cy="20" r="6"/>
</marker>
</defs>
<style type="text/css">

rect.backdrop {
    fill: white;
}
text{
    fill: black;
}

circle {
    fill: none;
    stroke: black;
    stroke-width: 2;
}

line {
    stroke: black;
    stroke-width: 2;
    stroke-opacity: 1;
    fill-opacity: 1;
    stroke-linecap: round;
    stroke-linejoin: miter;
}

path {
    fill: none;
    stroke: black;
    stroke-width: 2;
    stroke-opacity: 1;
    fill-opacity: 1;
    stroke-linecap: round;
    stroke-linejoin: miter;
}

line.dashed {
    stroke-dasharray: 5;
}

.fg_fill {
    fill: black;
}


.bg_fill {
    fill: white;
    stroke: black;
    stroke-width: 2;
}

tspan.head{
    fill: none;
    stroke: none;
}
    
</style>
<rect class="backdrop" height="112" width="928" x="0" y="0"/>
<g>
<line marker-end="url(#triangle)" x1="0" x2="20" y1="88" y2="88"/>
</g>
<g>
<line marker-end="url(#triangle)" x1="24" x2="28" y1="88" y2="88"/>
</g>
<g>
<line marker-end="url(#triangle)" x1="32" x2="36" y1="88" y2="88"/>
</g>
<g>
<line marker-end="url(#triangle)" x1="40" x2="44" y1="88" y2="88"/>
</g>
<g>
<line marker-end="url(#triangle)" x1="48" x2="52" y1="88" y2="88"/>
</g>
<g>
<line marker-end="url(#triangle)" x1="56" x2="60" y1="88" y2="88"/>
</g>
<g>
<line marker-end="url(#triangle)" x1="64" x2="68" y1="88" y2="88"/>
</g>
<g>
<line marker-end="url(#triangle)" x1="72" x2="76" y1="88" y2="88"/>
</g>
<g>
<line marker-end="url(#triangle)" x1="80" x2="84" y1="88" y2="88"/>
</g>
<g>
<line marker-end="url(#triangle)" x1="88" x2="92" y1="88" y2="88"/>
</g>
<g>
<line marker-end="url(#triangle)" x1="96" x2="100" y1="88" y2="88"/>
</g>
<g>
<line marker-end="url(#triangle)" x1="104" x2="108" y1="88" y2="88"/>
</g>
<g>
<line marker-end="url(#triangle)" x1="112" x2="116" y1="88" y2="88"/>
</g>
<g>
<line marker-start="url(#triangle)" x1="120" x2="124" y1="88" y2="88"/>
<line marker-end="url(#triangle)" x1="120" x2="124" y1="88" y2="88"/>
</g>
<g>
<line marker-end="url(#triangle)" x1="128" x2="156" y1="88" y2="88"/>
</g>
<g>
<line marker-end="url(#triangle)" x1="160" x2="164" y1="88" y2="88"/>
</g>
<g>
<line marker-end="url(#triangle)" x1="168" x2="172" y1="88" y2="88"/>
</g>
<g>
<line marker-end="url(#triangle)" x1="176" x2="180" y1="88" y2="88"/>
</g>
<g>
<line marker-end="url(#triangle)" x1="184" x2="188" y1="88" y2="88"/>
</g>
<g>
<line marker-end="url(#triangle)" x1="192" x2="196" y1="88" y2="88"/>
</g>
<g>
<line marker-start="url(#triangle)" x1="200" x2="204" y1="88" y2="88"/>
<line marker-end="url(#triangle)" x1="200" x2="204" y1="88" y2="88"/>
</g>
<g>
<line x1="208" x2="232" y1="88" y2="88"/>
</g>
<g>
<line marker-start="url(#triangle)" x1="240" x2="236" y1="88" y2="88"/>
<line marker-end="url(#triangle)" x1="240" x2="236" y1="88" y2="88"/>
</g>
<g>
<line marker-end="url(#triangle)" x1="248" x2="244" y1="88" y2="88"/>
</g>
<g>
<line marker-end="url(#triangle)" x1="256" x2="252" y1="88" y2="88"/>
</g>
<g>
<line marker-end="url(#triangle)" x1="264" x2="260" y1="88" y2="88"/>
</g>
<g>
<line marker-end="url(#triangle)" x1="272" x2="268" y1="88" y2="88"/>
</g>
<g>
<line marker-end="url(#triangle)" x1="280" x2="276" y1="88" y2="88"/>
</g>
<g>
<line marker-end="url(#triangle)" x1="288" x2="284" y1="88" y2="88"/>
<line marker-end="url(#triangle)" x1="288" x2="332" y1="88" y2="88"/>
</g>
<g>
<line marker-end="url(#triangle)" x1="336" x2="340" y1="88" y2="88"/>
</g>
<g>
<line marker-end="url(#triangle)" x1="344" x2="348" y1="88" y2="88"/>
</g>
<g>
<line marker-end="url(#triangle)" x1="352" x2="356" y1="88" y2="88"/>
</g>
<g>
<line marker-end="url(#triangle)" x1="360" x2="364" y1="88" y2="88"/>
</g>
<g>
<line marker-end="url(#triangle)" x1="368" x2="372" y1="88" y2="88"/>
</g>
<g>
<line marker-start="url(#triangle)" x1="376" x2="380" y1="88" y2="88"/>
<line marker-end="url(#triangle)" x1="376" x2="380" y1="88" y2="88"/>
</g>
<g>
<line x1="384" x2="432" y1="88" y2="88"/>
</g>
<g>
<line marker-end="url(#triangle)" x1="504" x2="524" y1="88" y2="88"/>
</g>
<g>
<line marker-end="url(#triangle)" x1="528" x2="532" y1="88" y2="88"/>
</g>
<g>
<line marker-end="url(#triangle)" x1="536" x2="540" y1="88" y2="88"/>
</g>
<g>
<line marker-end="url(#triangle)" x1="544" x2="548" y1="88" y2="88"/>
</g>
<g>
<line marker-end="url(#triangle)" x1="552" x2="556" y1="88" y2="88"/>
</g>
<g>
<line marker-end="url(#triangle)" x1="560" x2="564" y1="88" y2="88"/>
</g>
<g>
<line marker-start="url(#triangle)" x1="568" x2="572" y1="88" y2="88"/>
<line marker-end="url(#triangle)" x1="568" x2="572" y1="88" y2="88"/>
</g>
<g>
<line x1="576" x2="616" y1="88" y2="88"/>
</g>
<g>
<line marker-end="url(#triangle)" x1="588" x2="588" y1="48" y2="76"/>
</g>
<g>
<line marker-start="url(#triangle)" x1="624" x2="620" y1="88" y2="88"/>
<line marker-end="url(#triangle)" x1="624" x2="620" y1="88" y2="88"/>
</g>
<g>
<line marker-end="url(#triangle)" x1="632" x2="628" y1="88" y2="88"/>
</g>
<g>
<line marker-end="url(#triangle)" x1="640" x2="636" y1="88" y2="88"/>
</g>
<g>
<line marker-end="url(#triangle)" x1="648" x2="644" y1="88" y2="88"/>
</g>
<g>
<line marker-end="url(#triangle)" x1="656" x2="652" y1="88" y2="88"/>
</g>
<g>
<line marker-end="url(#triangle)" x1="664" x2="660" y1="88" y2="88"/>
</g>
<g>
<line marker-end="url(#triangle)" x1="672" x2="668" y1="88" y2="88"/>
<line marker-end="url(#triangle)" x1="672" x2="708" y1="88" y2="88"/>
</g>
<g>
<line marker-end="url(#triangle)" x1="684" x2="684" y1="48" y2="76"/>
</g>
<g>
<line marker-end="url(#triangle)" x1="712" x2="716" y1="88" y2="88"/>
</g>
<g>
<line marker-end="url(#triangle)" x1="720" x2="724" y1="88" y2="88"/>
</g>
<g>
<line marker-end="url(#triangle)" x1="728" x2="732" y1="88" y2="88"/>
</g>
<g>
<line marker-end="url(#triangle)" x1="736" x2="740" y1="88" y2="88"/>
</g>
<g>
<line marker-end="url(#triangle)" x1="744" x2="748" y1="88" y2="88"/>
</g>
<g>
<line marker-start="url(#triangle)" x1="752" x2="756" y1="88" y2="88"/>
<line marker-end="url(#triangle)" x1="752" x2="756" y1="88" y2="88"/>
</g>
<g>
<line x1="760" x2="800" y1="88" y2="88"/>
</g>
<g>
<line marker-end="url(#triangle)" x1="780" x2="780" y1="48" y2="76"/>
</g>
<g>
<line marker-start="url(#triangle)" x1="808" x2="804" y1="88" y2="88"/>
<line marker-end="url(#triangle)" x1="808" x2="804" y1="88" y2="88"/>
</g>
<g>
<line marker-end="url(#triangle)" x1="816" x2="812" y1="88" y2="88"/>
</g>
<g>
<line marker-end="url(#triangle)" x1="824" x2="820" y1="88" y2="88"/>
</g>
<g>
<line marker-end="url(#triangle)" x1="832" x2="828" y1="88" y2="88"/>
</g>
<g>
<line marker-end="url(#triangle)" x1="840" x2="836" y1="88" y2="88"/>
</g>
<g>
<line marker-end="url(#triangle)" x1="848" x2="844" y1="88" y2="88"/>
</g>
<g>
<line marker-end="url(#triangle)" x1="856" x2="852" y1="88" y2="88"/>
</g>
<g>
<line marker-end="url(#triangle)" x1="864" x2="860" y1="88" y2="88"/>
</g>
<g>
<line marker-end="url(#triangle)" x1="872" x2="868" y1="88" y2="88"/>
</g>
<g>
<line marker-end="url(#triangle)" x1="880" x2="876" y1="88" y2="88"/>
</g>
<g>
<line marker-end="url(#triangle)" x1="888" x2="884" y1="88" y2="88"/>
</g>
<g>
<line marker-end="url(#triangle)" x1="896" x2="892" y1="88" y2="88"/>
</g>
<g>
<line marker-end="url(#triangle)" x1="904" x2="900" y1="88" y2="88"/>
</g>
<g>
<line marker-end="url(#triangle)" x1="912" x2="908" y1="88" y2="88"/>
<line x1="912" x2="928" y1="88" y2="88"/>
</g>
<g>
<text x="1" y="12">
*
</text>
</g>
<g>
<text x="9" y="108">
5&#39;
</text>
</g>
<g>
<text x="17" y="12">
1 + 2 =  4 - 1
</text>
</g>
<g>
<text x="65" y="76">
A
</text>
</g>
<g>
<text x="177" y="76">
B
</text>
</g>
<g>
<text x="201" y="108">
DESIRED
</text>
</g>
<g>
<text x="257" y="76">
C
</text>
</g>
<g>
<text x="353" y="76">
D
</text>
</g>
<g>
<text x="409" y="108">
3&#39;
</text>
</g>
<g>
<text x="465" y="92">
vs
</text>
</g>
<g>
<text x="513" y="108">
5&#39;
</text>
</g>
<g>
<text x="545" y="76">
B
</text>
</g>
<g>
<text x="553" y="44">
adjacency
</text>
</g>
<g>
<text x="641" y="76">
C
</text>
</g>
<g>
<text x="649" y="44">
breakpoint
</text>
</g>
<g>
<text x="649" y="108">
UNDESIRED
</text>
</g>
<g>
<text x="729" y="76">
D
</text>
</g>
<g>
<text x="745" y="44">
breakpoint
</text>
</g>
<g>
<text x="849" y="76">
A
</text>
</g>
<g>
<text x="905" y="108">
3&#39;
</text>
</g>
</svg>
