<?xml version="1.0" encoding="UTF-8" standalone="no"?>
<!DOCTYPE svg PUBLIC "-//W3C//DTD SVG 1.1//EN"
 "http://www.w3.org/Graphics/SVG/1.1/DTD/svg11.dtd">
<!-- Generated by graphviz version 2.40.1 (0)
 -->
<!-- Title: G Pages: 1 -->
<svg width="345pt" height="154pt"
 viewBox="0.00 0.00 344.80 154.00" xmlns="http://www.w3.org/2000/svg" xmlns:xlink="http://www.w3.org/1999/xlink">
<g id="graph0" class="graph" transform="scale(1 1) rotate(0) translate(4 150)">
<title>G</title>
<polygon fill="#ffffff" stroke="transparent" points="-4,4 -4,-150 340.8,-150 340.8,4 -4,4"/>
<!-- N0 -->
<g id="node1" class="node">
<title>N0</title>
<ellipse fill="#000000" stroke="#000000" cx="1.8" cy="-67" rx="1.8" ry="1.8"/>
</g>
<!-- N1 -->
<g id="node2" class="node">
<title>N1</title>
<ellipse fill="#000000" stroke="#000000" cx="49.4" cy="-134" rx="1.8" ry="1.8"/>
</g>
<!-- N0&#45;&gt;N1 -->
<g id="edge1" class="edge">
<title>N0&#45;&gt;N1</title>
<path fill="none" stroke="#000000" d="M2.2734,-68.8841C3.9812,-75.4051 10.3267,-97.4121 21.6,-112 26.3703,-118.1729 33.2318,-123.6262 38.9443,-127.5594"/>
<polygon fill="#000000" stroke="#000000" points="37.3311,-130.6794 47.6601,-133.0381 41.0565,-124.753 37.3311,-130.6794"/>
<text text-anchor="middle" x="25.6" y="-122" font-family="Courier,monospace" font-weight="bold" font-size="10.00" fill="#000000">k</text>
</g>
<!-- N13 -->
<g id="node6" class="node">
<title>N13</title>
<ellipse fill="#000000" stroke="#000000" cx="49.4" cy="-67" rx="1.8" ry="1.8"/>
</g>
<!-- N0&#45;&gt;N13 -->
<g id="edge5" class="edge">
<title>N0&#45;&gt;N13</title>
<path fill="none" stroke="#000000" d="M3.8453,-67C9.5341,-67 25.8789,-67 37.3549,-67"/>
<polygon fill="#000000" stroke="#000000" points="37.4153,-70.5001 47.4153,-67 37.4153,-63.5001 37.4153,-70.5001"/>
<text text-anchor="middle" x="25.6" y="-70" font-family="Courier,monospace" font-weight="bold" font-size="10.00" fill="#000000">b</text>
</g>
<!-- N4 -->
<g id="node11" class="node">
<title>N4</title>
<ellipse fill="#000000" stroke="#000000" cx="239.8" cy="-25" rx="1.8" ry="1.8"/>
</g>
<!-- N0&#45;&gt;N4 -->
<g id="edge9" class="edge">
<title>N0&#45;&gt;N4</title>
<path fill="none" stroke="#000000" d="M2.1577,-65.0671C4.3116,-54.0817 16.5821,0 49.4,0 49.4,0 49.4,0 192.2,0 206.9599,0 221.6467,-9.5381 230.7194,-16.8314"/>
<polygon fill="#000000" stroke="#000000" points="228.6437,-19.6674 238.4591,-23.6559 233.2733,-14.417 228.6437,-19.6674"/>
<text text-anchor="middle" x="120.8" y="-3" font-family="Courier,monospace" font-weight="bold" font-size="10.00" fill="#000000">n</text>
</g>
<!-- N7 -->
<g id="node14" class="node">
<title>N7</title>
<ellipse fill="#000000" stroke="#000000" cx="49.4" cy="-33" rx="1.8" ry="1.8"/>
</g>
<!-- N0&#45;&gt;N7 -->
<g id="edge12" class="edge">
<title>N0&#45;&gt;N7</title>
<path fill="none" stroke="#000000" d="M3.223,-65.8841C6.4525,-63.3599 14.6,-57.0391 21.6,-52 27.4594,-47.782 34.1353,-43.2118 39.4763,-39.6109"/>
<polygon fill="#000000" stroke="#000000" points="41.5014,-42.4673 47.8753,-34.0042 37.6149,-36.6453 41.5014,-42.4673"/>
<text text-anchor="middle" x="25.6" y="-55" font-family="Courier,monospace" font-weight="bold" font-size="10.00" fill="#000000">e</text>
</g>
<!-- N9 -->
<g id="node16" class="node">
<title>N9</title>
<ellipse fill="#000000" stroke="#000000" cx="144.6" cy="-88" rx="1.8" ry="1.8"/>
</g>
<!-- N0&#45;&gt;N9 -->
<g id="edge14" class="edge">
<title>N0&#45;&gt;N9</title>
<path fill="none" stroke="#000000" d="M3.0649,-68.4143C5.9709,-71.5494 13.499,-79.0392 21.6,-82 60.1795,-96.1002 110.1297,-92.4157 132.6542,-89.6993"/>
<polygon fill="#000000" stroke="#000000" points="133.3604,-93.1351 142.7879,-88.3006 132.4032,-86.2008 133.3604,-93.1351"/>
<text text-anchor="middle" x="73.2" y="-94" font-family="Courier,monospace" font-weight="bold" font-size="10.00" fill="#000000">a</text>
</g>
<!-- N2 -->
<g id="node9" class="node">
<title>N2</title>
<ellipse fill="#000000" stroke="#000000" cx="97" cy="-135" rx="1.8" ry="1.8"/>
</g>
<!-- N1&#45;&gt;N2 -->
<g id="edge2" class="edge">
<title>N1&#45;&gt;N2</title>
<path fill="none" stroke="#000000" d="M51.4453,-134.043C57.1341,-134.1625 73.4789,-134.5059 84.9549,-134.747"/>
<polygon fill="#000000" stroke="#000000" points="84.9439,-138.2474 95.0153,-134.9583 85.091,-131.2489 84.9439,-138.2474"/>
<text text-anchor="middle" x="73.2" y="-137" font-family="Courier,monospace" font-weight="bold" font-size="10.00" fill="#000000">l</text>
</g>
<!-- N10 -->
<g id="node3" class="node">
<title>N10</title>
<ellipse fill="#000000" stroke="#000000" cx="192.2" cy="-121" rx="1.8" ry="1.8"/>
</g>
<!-- N11 -->
<g id="node4" class="node">
<title>N11</title>
<ellipse fill="#000000" stroke="#000000" cx="192.2" cy="-58" rx="1.8" ry="1.8"/>
</g>
<!-- N12 -->
<g id="node5" class="node">
<title>N12</title>
<ellipse fill="#000000" stroke="#000000" cx="239.8" cy="-58" rx="1.8" ry="1.8"/>
</g>
<!-- N11&#45;&gt;N12 -->
<g id="edge4" class="edge">
<title>N11&#45;&gt;N12</title>
<path fill="none" stroke="#000000" d="M194.2453,-58C199.9341,-58 216.2789,-58 227.7549,-58"/>
<polygon fill="#000000" stroke="#000000" points="227.8153,-61.5001 237.8153,-58 227.8153,-54.5001 227.8153,-61.5001"/>
<text text-anchor="middle" x="216" y="-61" font-family="Courier,monospace" font-weight="bold" font-size="10.00" fill="#000000">¶</text>
</g>
<!-- N11&#45;&gt;N4 -->
<g id="edge16" class="edge">
<title>N11&#45;&gt;N4</title>
<path fill="none" stroke="#ff0000" stroke-dasharray="5,2" d="M193.7837,-56.902C199.3168,-53.0661 218.0883,-40.0522 229.8776,-31.879"/>
<polygon fill="#ff0000" stroke="#ff0000" points="231.9374,-34.7098 238.1615,-26.1359 227.9492,-28.9571 231.9374,-34.7098"/>
</g>
<!-- N14 -->
<g id="node7" class="node">
<title>N14</title>
<ellipse fill="#000000" stroke="#000000" cx="97" cy="-67" rx="1.8" ry="1.8"/>
</g>
<!-- N13&#45;&gt;N14 -->
<g id="edge6" class="edge">
<title>N13&#45;&gt;N14</title>
<path fill="none" stroke="#000000" d="M51.4453,-67C57.1341,-67 73.4789,-67 84.9549,-67"/>
<polygon fill="#000000" stroke="#000000" points="85.0153,-70.5001 95.0153,-67 85.0153,-63.5001 85.0153,-70.5001"/>
<text text-anchor="middle" x="73.2" y="-70" font-family="Courier,monospace" font-weight="bold" font-size="10.00" fill="#000000">a</text>
</g>
<!-- N15 -->
<g id="node8" class="node">
<title>N15</title>
<ellipse fill="#000000" stroke="#000000" cx="144.6" cy="-50" rx="1.8" ry="1.8"/>
</g>
<!-- N14&#45;&gt;N15 -->
<g id="edge7" class="edge">
<title>N14&#45;&gt;N15</title>
<path fill="none" stroke="#000000" d="M98.2393,-65.4825C101.0928,-62.12 108.5207,-54.0956 116.8,-51 121.7025,-49.167 127.4364,-48.7067 132.4191,-48.7854"/>
<polygon fill="#000000" stroke="#000000" points="132.5029,-52.3056 142.7672,-49.6799 133.1058,-45.3317 132.5029,-52.3056"/>
<text text-anchor="middle" x="120.8" y="-54" font-family="Courier,monospace" font-weight="bold" font-size="10.00" fill="#000000">¶</text>
</g>
<!-- N14&#45;&gt;N9 -->
<g id="edge17" class="edge">
<title>N14&#45;&gt;N9</title>
<path fill="none" stroke="#ff0000" stroke-dasharray="5,2" d="M99.0453,-67.9023C104.8564,-70.4661 121.7868,-77.9354 133.2883,-83.0096"/>
<polygon fill="#ff0000" stroke="#ff0000" points="132.0533,-86.2901 142.6153,-87.1244 134.8789,-79.8857 132.0533,-86.2901"/>
</g>
<!-- N3 -->
<g id="node10" class="node">
<title>N3</title>
<ellipse fill="#000000" stroke="#000000" cx="144.6" cy="-135" rx="1.8" ry="1.8"/>
</g>
<!-- N2&#45;&gt;N3 -->
<g id="edge8" class="edge">
<title>N2&#45;&gt;N3</title>
<path fill="none" stroke="#000000" d="M99.0453,-135C104.7341,-135 121.0789,-135 132.5549,-135"/>
<polygon fill="#000000" stroke="#000000" points="132.6153,-138.5001 142.6153,-135 132.6153,-131.5001 132.6153,-138.5001"/>
<text text-anchor="middle" x="120.8" y="-138" font-family="Courier,monospace" font-weight="bold" font-size="10.00" fill="#000000">¶</text>
</g>
<!-- N5 -->
<g id="node12" class="node">
<title>N5</title>
<ellipse fill="#000000" stroke="#000000" cx="287.4" cy="-57" rx="1.8" ry="1.8"/>
</g>
<!-- N4&#45;&gt;N5 -->
<g id="edge10" class="edge">
<title>N4&#45;&gt;N5</title>
<path fill="none" stroke="#000000" d="M241.3837,-26.0647C246.8604,-29.7465 265.3066,-42.1473 277.1146,-50.0854"/>
<polygon fill="#000000" stroke="#000000" points="275.5098,-53.2239 285.7615,-55.8985 279.4152,-47.4146 275.5098,-53.2239"/>
<text text-anchor="middle" x="263.6" y="-45" font-family="Courier,monospace" font-weight="bold" font-size="10.00" fill="#000000">a</text>
</g>
<!-- N6 -->
<g id="node13" class="node">
<title>N6</title>
<ellipse fill="#000000" stroke="#000000" cx="335" cy="-57" rx="1.8" ry="1.8"/>
</g>
<!-- N5&#45;&gt;N6 -->
<g id="edge11" class="edge">
<title>N5&#45;&gt;N6</title>
<path fill="none" stroke="#000000" d="M289.4453,-57C295.1341,-57 311.4789,-57 322.9549,-57"/>
<polygon fill="#000000" stroke="#000000" points="323.0153,-60.5001 333.0153,-57 323.0153,-53.5001 323.0153,-60.5001"/>
<text text-anchor="middle" x="311.2" y="-60" font-family="Courier,monospace" font-weight="bold" font-size="10.00" fill="#000000">¶</text>
</g>
<!-- N5&#45;&gt;N9 -->
<g id="edge18" class="edge">
<title>N5&#45;&gt;N9</title>
<path fill="none" stroke="#ff0000" stroke-dasharray="5,2" d="M285.6626,-57.4974C279.6144,-59.22 258.9079,-65.0416 241.6,-69 211.0576,-75.9852 174.7418,-82.6711 156.423,-85.9316"/>
<polygon fill="#ff0000" stroke="#ff0000" points="155.7027,-82.5044 146.4585,-87.6809 156.9131,-89.399 155.7027,-82.5044"/>
</g>
<!-- N8 -->
<g id="node15" class="node">
<title>N8</title>
<ellipse fill="#000000" stroke="#000000" cx="97" cy="-33" rx="1.8" ry="1.8"/>
</g>
<!-- N7&#45;&gt;N8 -->
<g id="edge13" class="edge">
<title>N7&#45;&gt;N8</title>
<path fill="none" stroke="#000000" d="M51.4453,-33C57.1341,-33 73.4789,-33 84.9549,-33"/>
<polygon fill="#000000" stroke="#000000" points="85.0153,-36.5001 95.0153,-33 85.0153,-29.5001 85.0153,-36.5001"/>
<text text-anchor="middle" x="73.2" y="-36" font-family="Courier,monospace" font-weight="bold" font-size="10.00" fill="#000000">¶</text>
</g>
<!-- N9&#45;&gt;N10 -->
<g id="edge15" class="edge">
<title>N9&#45;&gt;N10</title>
<path fill="none" stroke="#000000" d="M146.1837,-89.098C151.7168,-92.9339 170.4883,-105.9478 182.2776,-114.121"/>
<polygon fill="#000000" stroke="#000000" points="180.3492,-117.0429 190.5615,-119.8641 184.3374,-111.2902 180.3492,-117.0429"/>
<text text-anchor="middle" x="168.4" y="-109" font-family="Courier,monospace" font-weight="bold" font-size="10.00" fill="#000000">¶</text>
</g>
<!-- N9&#45;&gt;N11 -->
<g id="edge3" class="edge">
<title>N9&#45;&gt;N11</title>
<path fill="none" stroke="#000000" d="M145.3851,-86.3168C147.6236,-81.7222 154.5192,-68.9155 164.4,-63 169.0939,-60.1898 174.9763,-58.8794 180.1199,-58.2952"/>
<polygon fill="#000000" stroke="#000000" points="180.4312,-61.7858 190.2873,-57.899 180.1586,-54.7911 180.4312,-61.7858"/>
<text text-anchor="middle" x="168.4" y="-66" font-family="Courier,monospace" font-weight="bold" font-size="10.00" fill="#000000">n</text>
</g>
</g>
</svg>
