<svg class="bob" font-family="arial" font-size="14" height="240" width="880" xmlns="http://www.w3.org/2000/svg">
<defs>
<marker id="triangle" markerHeight="8" markerWidth="8" orient="auto" refX="4" refY="2" viewBox="0 0 8 4">
<polygon class="fg_fill" points="0,0 0,4 8,2 0,0"/>
</marker>
<marker id="clear_triangle" markerHeight="10" markerWidth="10" orient="auto" refX="1" refY="7" viewBox="0 0 20 14">
<polygon class="bg_fill" points="2,2 2,12 18,7 2,2"/>
</marker>
<marker id="circle" markerHeight="5" markerWidth="5" orient="auto" refX="10" refY="10" viewBox="0 0 20 20">
<circle class="fg_fill" cx="10" cy="10" r="8"/>
</marker>
<marker id="square" markerHeight="5" markerWidth="5" orient="auto" refX="10" refY="10" viewBox="0 0 20 20">
<rect class="fg_fill" height="20" width="20" x="0" y="0"/>
</marker>
<marker id="open_circle" markerHeight="10" markerWidth="10" orient="auto" refX="10" refY="10" viewBox="0 0 20 20">
<circle class="bg_fill" cx="10" cy="10" r="4"/>
</marker>
<marker id="big_open_circle" markerHeight="20" markerWidth="20" orient="auto" refX="20" refY="20" viewBox="0 0 40 40">
<circle class="bg_fill" cx="20" cy="20" r="6"/>
</marker>
</defs>
<style type="text/css">

rect.backdrop {
    fill: white;
}
text{
    fill: black;
}

circle {
    fill: none;
    stroke: black;
    stroke-width: 2;
}

line {
    stroke: black;
    stroke-width: 2;
    stroke-opacity: 1;
    fill-opacity: 1;
    stroke-linecap: round;
    stroke-linejoin: miter;
}

path {
    fill: none;
    stroke: black;
    stroke-width: 2;
    stroke-opacity: 1;
    fill-opacity: 1;
    stroke-linecap: round;
    stroke-linejoin: miter;
}

line.dashed {
    stroke-dasharray: 5;
}

.fg_fill {
    fill: black;
}


.bg_fill {
    fill: white;
    stroke: black;
    stroke-width: 2;
}

tspan.head{
    fill: none;
    stroke: none;
}
    
</style>
<rect class="backdrop" height="240" width="880" x="0" y="0"/>
<g>
<line x1="4" x2="4" y1="136" y2="168"/>
<line x1="4" x2="76" y1="136" y2="136"/>
<line x1="4" x2="76" y1="168" y2="168"/>
<line x1="76" x2="76" y1="136" y2="152"/>
<line x1="76" x2="76" y1="152" y2="168"/>
<line x1="76" x2="92" y1="152" y2="152"/>
<line x1="92" x2="92" y1="108" y2="152"/>
<line x1="92" x2="92" y1="152" y2="196"/>
<path d="M 92 196 A 4 4 0 0 0 96 200"/>
<path d="M 96 104 A 4 4 0 0 0 92 108"/>
</g>
<g>
<line marker-end="url(#triangle)" x1="96" x2="132" y1="104" y2="104"/>
</g>
<g>
<line marker-end="url(#triangle)" x1="96" x2="132" y1="200" y2="200"/>
</g>
<g>
<line x1="140" x2="140" y1="72" y2="120"/>
<line x1="140" x2="172" y1="72" y2="72"/>
<line x1="140" x2="172" y1="120" y2="120"/>
<line x1="172" x2="172" y1="72" y2="88"/>
<line x1="172" x2="172" y1="88" y2="104"/>
<line marker-end="url(#triangle)" x1="172" x2="276" y1="88" y2="88"/>
<line x1="172" x2="172" y1="104" y2="120"/>
<line x1="172" x2="176" y1="104" y2="104"/>
<path d="M 182 108 A 8 8 0 0 0 176 104"/>
</g>
<g>
<line x1="140" x2="140" y1="184" y2="232"/>
<line x1="140" x2="172" y1="184" y2="184"/>
<line x1="140" x2="172" y1="232" y2="232"/>
<line x1="172" x2="172" y1="184" y2="200"/>
<line x1="172" x2="172" y1="200" y2="232"/>
<line x1="172" x2="176" y1="200" y2="200"/>
<path d="M 176 200 A 8 8 0 0 0 182 196"/>
</g>
<g>
<line x1="182" x2="204" y1="108" y2="152"/>
<line x1="204" x2="182" y1="152" y2="196"/>
<line x1="204" x2="226" y1="152" y2="196"/>
<line x1="226" x2="204" y1="108" y2="152"/>
<path d="M 226 196 A 8 8 0 0 0 232 200"/>
<path d="M 232 104 A 8 8 0 0 0 226 108"/>
</g>
<g>
<line marker-end="url(#triangle)" x1="232" x2="276" y1="104" y2="104"/>
</g>
<g>
<line marker-end="url(#triangle)" x1="232" x2="276" y1="200" y2="200"/>
</g>
<g>
<line x1="284" x2="284" y1="72" y2="120"/>
<line x1="284" x2="316" y1="72" y2="72"/>
<line x1="284" x2="316" y1="120" y2="120"/>
<line x1="316" x2="316" y1="72" y2="88"/>
<line x1="316" x2="316" y1="88" y2="104"/>
<line marker-end="url(#triangle)" x1="316" x2="420" y1="88" y2="88"/>
<line x1="316" x2="316" y1="104" y2="120"/>
<line x1="316" x2="320" y1="104" y2="104"/>
<path d="M 326 108 A 8 8 0 0 0 320 104"/>
</g>
<g>
<line x1="284" x2="284" y1="184" y2="232"/>
<line x1="284" x2="316" y1="184" y2="184"/>
<line x1="284" x2="316" y1="232" y2="232"/>
<line x1="316" x2="316" y1="184" y2="200"/>
<line x1="316" x2="316" y1="200" y2="232"/>
<line x1="316" x2="320" y1="200" y2="200"/>
<path d="M 320 200 A 8 8 0 0 0 326 196"/>
</g>
<g>
<line x1="326" x2="348" y1="108" y2="152"/>
<line x1="348" x2="326" y1="152" y2="196"/>
<line x1="348" x2="370" y1="152" y2="196"/>
<line x1="370" x2="348" y1="108" y2="152"/>
<path d="M 370 196 A 8 8 0 0 0 376 200"/>
<path d="M 376 104 A 8 8 0 0 0 370 108"/>
</g>
<g>
<line marker-end="url(#triangle)" x1="376" x2="420" y1="104" y2="104"/>
</g>
<g>
<line marker-end="url(#triangle)" x1="376" x2="420" y1="200" y2="200"/>
</g>
<g>
<line x1="428" x2="428" y1="72" y2="120"/>
<line x1="428" x2="460" y1="72" y2="72"/>
<line x1="428" x2="460" y1="120" y2="120"/>
<line x1="460" x2="460" y1="72" y2="88"/>
<line x1="460" x2="460" y1="88" y2="104"/>
<line marker-end="url(#triangle)" x1="460" x2="564" y1="88" y2="88"/>
<line x1="460" x2="460" y1="104" y2="120"/>
<line x1="460" x2="464" y1="104" y2="104"/>
<path d="M 470 108 A 8 8 0 0 0 464 104"/>
</g>
<g>
<line x1="428" x2="428" y1="184" y2="232"/>
<line x1="428" x2="460" y1="184" y2="184"/>
<line x1="428" x2="460" y1="232" y2="232"/>
<line x1="460" x2="460" y1="184" y2="200"/>
<line x1="460" x2="460" y1="200" y2="232"/>
<line x1="460" x2="464" y1="200" y2="200"/>
<path d="M 464 200 A 8 8 0 0 0 470 196"/>
</g>
<g>
<line x1="470" x2="492" y1="108" y2="152"/>
<line x1="492" x2="470" y1="152" y2="196"/>
<line x1="492" x2="514" y1="152" y2="196"/>
<line x1="514" x2="492" y1="108" y2="152"/>
<path d="M 514 196 A 8 8 0 0 0 520 200"/>
<path d="M 520 104 A 8 8 0 0 0 514 108"/>
</g>
<g>
<line marker-end="url(#triangle)" x1="520" x2="564" y1="104" y2="104"/>
</g>
<g>
<line marker-end="url(#triangle)" x1="520" x2="564" y1="200" y2="200"/>
</g>
<g>
<line x1="572" x2="572" y1="72" y2="120"/>
<line x1="572" x2="604" y1="72" y2="72"/>
<line x1="572" x2="604" y1="120" y2="120"/>
<line x1="604" x2="604" y1="72" y2="88"/>
<line x1="604" x2="604" y1="88" y2="104"/>
<line marker-end="url(#triangle)" x1="604" x2="708" y1="88" y2="88"/>
<line x1="604" x2="604" y1="104" y2="120"/>
<line x1="604" x2="608" y1="104" y2="104"/>
<path d="M 614 108 A 8 8 0 0 0 608 104"/>
</g>
<g>
<line x1="572" x2="572" y1="184" y2="232"/>
<line x1="572" x2="604" y1="184" y2="184"/>
<line x1="572" x2="604" y1="232" y2="232"/>
<line x1="604" x2="604" y1="184" y2="200"/>
<line x1="604" x2="604" y1="200" y2="232"/>
<line x1="604" x2="608" y1="200" y2="200"/>
<path d="M 608 200 A 8 8 0 0 0 614 196"/>
</g>
<g>
<line x1="614" x2="636" y1="108" y2="152"/>
<line x1="636" x2="614" y1="152" y2="196"/>
<line x1="636" x2="658" y1="152" y2="196"/>
<line x1="658" x2="636" y1="108" y2="152"/>
<path d="M 658 196 A 8 8 0 0 0 664 200"/>
<path d="M 664 104 A 8 8 0 0 0 658 108"/>
</g>
<g>
<line marker-end="url(#triangle)" x1="664" x2="708" y1="104" y2="104"/>
</g>
<g>
<line marker-end="url(#triangle)" x1="664" x2="708" y1="200" y2="200"/>
</g>
<g>
<line x1="716" x2="716" y1="72" y2="120"/>
<line x1="716" x2="748" y1="72" y2="72"/>
<line x1="716" x2="748" y1="120" y2="120"/>
<line x1="748" x2="748" y1="72" y2="104"/>
<line x1="748" x2="748" y1="104" y2="120"/>
<line x1="748" x2="792" y1="104" y2="104"/>
<path d="M 796 108 A 4 4 0 0 0 792 104"/>
</g>
<g>
<line x1="716" x2="716" y1="184" y2="232"/>
<line x1="716" x2="748" y1="184" y2="184"/>
<line x1="716" x2="748" y1="232" y2="232"/>
<line x1="748" x2="748" y1="184" y2="200"/>
<line x1="748" x2="748" y1="200" y2="232"/>
<line x1="748" x2="792" y1="200" y2="200"/>
<path d="M 792 200 A 4 4 0 0 0 796 196"/>
</g>
<g>
<line x1="796" x2="796" y1="108" y2="152"/>
<line x1="796" x2="796" y1="152" y2="196"/>
<line marker-end="url(#triangle)" x1="796" x2="812" y1="152" y2="152"/>
</g>
<g>
<line x1="820" x2="820" y1="136" y2="168"/>
<line x1="820" x2="876" y1="136" y2="136"/>
<line x1="820" x2="876" y1="168" y2="168"/>
<line x1="876" x2="876" y1="136" y2="168"/>
</g>
<g>
<text x="1" y="12">
*
</text>
</g>
<g>
<text x="17" y="12">
Weights have been rounded for brevity.
</text>
</g>
<g>
<text x="17" y="156">
SOURCE
</text>
</g>
<g>
<text x="89" y="92">
0.114
</text>
</g>
<g>
<text x="89" y="220">
0.102
</text>
</g>
<g>
<text x="153" y="44">
z
</text>
</g>
<g>
<text x="153" y="92">
A
</text>
</g>
<g>
<text x="153" y="204">
B
</text>
</g>
<g>
<text x="233" y="76">
0.086
</text>
</g>
<g>
<text x="233" y="124">
0.228
</text>
</g>
<g>
<text x="233" y="188">
0.126
</text>
</g>
<g>
<text x="297" y="44">
z
</text>
</g>
<g>
<text x="297" y="92">
A
</text>
</g>
<g>
<text x="297" y="204">
B
</text>
</g>
<g>
<text x="377" y="76">
0.066
</text>
</g>
<g>
<text x="377" y="124">
0.176
</text>
</g>
<g>
<text x="377" y="188">
0.140
</text>
</g>
<g>
<text x="441" y="44">
x
</text>
</g>
<g>
<text x="441" y="92">
A
</text>
</g>
<g>
<text x="441" y="204">
B
</text>
</g>
<g>
<text x="521" y="76">
0.066
</text>
</g>
<g>
<text x="521" y="124">
0.176
</text>
</g>
<g>
<text x="521" y="188">
0.140
</text>
</g>
<g>
<text x="585" y="44">
x
</text>
</g>
<g>
<text x="585" y="92">
A
</text>
</g>
<g>
<text x="585" y="204">
B
</text>
</g>
<g>
<text x="665" y="76">
0.225
</text>
</g>
<g>
<text x="665" y="124">
0.596
</text>
</g>
<g>
<text x="665" y="188">
0.356
</text>
</g>
<g>
<text x="729" y="44">
y
</text>
</g>
<g>
<text x="729" y="92">
A
</text>
</g>
<g>
<text x="729" y="204">
B
</text>
</g>
<g>
<text x="761" y="92">
1.0
</text>
</g>
<g>
<text x="761" y="220">
1.0
</text>
</g>
<g>
<text x="833" y="156">
SINK
</text>
</g>
</svg>
