<?xml version="1.0" encoding="UTF-8" standalone="no"?>
<!DOCTYPE svg PUBLIC "-//W3C//DTD SVG 1.1//EN"
 "http://www.w3.org/Graphics/SVG/1.1/DTD/svg11.dtd">
<!-- Generated by graphviz version 2.40.1 (0)
 -->
<!-- Title: G Pages: 1 -->
<svg width="1847pt" height="357pt"
 viewBox="0.00 0.00 1847.23 357.00" xmlns="http://www.w3.org/2000/svg" xmlns:xlink="http://www.w3.org/1999/xlink">
<g id="graph0" class="graph" transform="scale(1 1) rotate(0) translate(4 353)">
<title>G</title>
<polygon fill="#ffffff" stroke="transparent" points="-4,4 -4,-353 1843.2333,-353 1843.2333,4 -4,4"/>
<!-- (&#45;1, &#39;D,0,1&#39;) -->
<g id="node1" class="node">
<title>(&#45;1, &#39;D,0,1&#39;)</title>
<polygon fill="none" stroke="#000000" points="426.3473,-260.0493 430.7236,-260.1479 435.0547,-260.2953 439.3228,-260.4913 443.5107,-260.7353 447.6016,-261.0266 451.5793,-261.3645 455.4284,-261.7479 459.1342,-262.1759 462.6829,-262.6472 466.0619,-263.1606 469.2592,-263.7147 472.2643,-264.308 475.0677,-264.9388 477.6611,-265.6054 480.0372,-266.3059 482.1903,-267.0385 484.1158,-267.8012 485.8101,-268.5918 487.2713,-269.4082 488.4983,-270.2481 489.4914,-271.1093 490.2519,-271.9894 490.7824,-272.886 491.0863,-273.7965 491.168,-274.7186 491.033,-275.6497 490.6875,-276.5873 490.1383,-277.5287 489.3931,-278.4713 488.4601,-279.4127 487.3478,-280.3503 486.0654,-281.2814 484.6221,-282.2035 483.0275,-283.114 481.2913,-284.0106 479.4232,-284.8907 477.4329,-285.7519 475.3299,-286.5918 473.1235,-287.4082 470.8229,-288.1988 468.437,-288.9615 465.974,-289.6941 463.442,-290.3946 460.8487,-291.0612 458.2011,-291.692 455.5059,-292.2853 452.769,-292.8394 449.9963,-293.3528 447.1927,-293.8241 444.363,-294.2521 441.5111,-294.6355 438.641,-294.9734 435.7559,-295.2647 432.8587,-295.5087 429.9521,-295.7047 427.0384,-295.8521 424.1199,-295.9507 421.1985,-296 418.2762,-296 415.3548,-295.9507 412.4363,-295.8521 409.5226,-295.7047 406.616,-295.5087 403.7188,-295.2647 400.8337,-294.9734 397.9635,-294.6355 395.1117,-294.2521 392.2819,-293.8241 389.4784,-293.3528 386.7056,-292.8394 383.9688,-292.2853 381.2735,-291.692 378.6259,-291.0612 376.0326,-290.3946 373.5007,-289.6941 371.0377,-288.9615 368.6517,-288.1988 366.3511,-287.4082 364.1448,-286.5918 362.0418,-285.7519 360.0514,-284.8907 358.1833,-284.0106 356.4471,-283.114 354.8526,-282.2035 353.4093,-281.2814 352.1268,-280.3503 351.0146,-279.4127 350.0815,-278.4713 349.3363,-277.5287 348.7872,-276.5873 348.4416,-275.6497 348.3066,-274.7186 348.3884,-273.7965 348.6923,-272.886 349.2227,-271.9894 349.9833,-271.1093 350.9764,-270.2481 352.2034,-269.4082 353.6645,-268.5918 355.3589,-267.8012 357.2843,-267.0385 359.4375,-266.3059 361.8136,-265.6054 364.4069,-264.9388 367.2103,-264.308 370.2155,-263.7147 373.4128,-263.1606 376.7917,-262.6472 380.3405,-262.1759 384.0463,-261.7479 387.8954,-261.3645 391.8731,-261.0266 395.9639,-260.7353 400.1518,-260.4913 404.42,-260.2953 408.7511,-260.1479 413.1274,-260.0493 417.531,-260 421.9437,-260 426.3473,-260.0493"/>
<text text-anchor="middle" x="419.7373" y="-275.5" font-family="Courier,monospace" font-weight="bold" font-size="10.00" fill="#000000">(&#45;1, &#39;D,0,1&#39;)</text>
</g>
<!-- (&#45;1, &#39;D,0,2&#39;) -->
<g id="node2" class="node">
<title>(&#45;1, &#39;D,0,2&#39;)</title>
<polygon fill="none" stroke="#000000" points="763.3473,-313.0493 767.7236,-313.1479 772.0547,-313.2953 776.3228,-313.4913 780.5107,-313.7353 784.6016,-314.0266 788.5793,-314.3645 792.4284,-314.7479 796.1342,-315.1759 799.6829,-315.6472 803.0619,-316.1606 806.2592,-316.7147 809.2643,-317.308 812.0677,-317.9388 814.6611,-318.6054 817.0372,-319.3059 819.1903,-320.0385 821.1158,-320.8012 822.8101,-321.5918 824.2713,-322.4082 825.4983,-323.2481 826.4914,-324.1093 827.2519,-324.9894 827.7824,-325.886 828.0863,-326.7965 828.168,-327.7186 828.033,-328.6497 827.6875,-329.5873 827.1383,-330.5287 826.3931,-331.4713 825.4601,-332.4127 824.3478,-333.3503 823.0654,-334.2814 821.6221,-335.2035 820.0275,-336.114 818.2913,-337.0106 816.4232,-337.8907 814.4329,-338.7519 812.3299,-339.5918 810.1235,-340.4082 807.8229,-341.1988 805.437,-341.9615 802.974,-342.6941 800.442,-343.3946 797.8487,-344.0612 795.2011,-344.692 792.5059,-345.2853 789.769,-345.8394 786.9963,-346.3528 784.1927,-346.8241 781.363,-347.2521 778.5111,-347.6355 775.641,-347.9734 772.7559,-348.2647 769.8587,-348.5087 766.9521,-348.7047 764.0384,-348.8521 761.1199,-348.9507 758.1985,-349 755.2762,-349 752.3548,-348.9507 749.4363,-348.8521 746.5226,-348.7047 743.616,-348.5087 740.7188,-348.2647 737.8337,-347.9734 734.9635,-347.6355 732.1117,-347.2521 729.2819,-346.8241 726.4784,-346.3528 723.7056,-345.8394 720.9688,-345.2853 718.2735,-344.692 715.6259,-344.0612 713.0326,-343.3946 710.5007,-342.6941 708.0377,-341.9615 705.6517,-341.1988 703.3511,-340.4082 701.1448,-339.5918 699.0418,-338.7519 697.0514,-337.8907 695.1833,-337.0106 693.4471,-336.114 691.8526,-335.2035 690.4093,-334.2814 689.1268,-333.3503 688.0146,-332.4127 687.0815,-331.4713 686.3363,-330.5287 685.7872,-329.5873 685.4416,-328.6497 685.3066,-327.7186 685.3884,-326.7965 685.6923,-325.886 686.2227,-324.9894 686.9833,-324.1093 687.9764,-323.2481 689.2034,-322.4082 690.6645,-321.5918 692.3589,-320.8012 694.2843,-320.0385 696.4375,-319.3059 698.8136,-318.6054 701.4069,-317.9388 704.2103,-317.308 707.2155,-316.7147 710.4128,-316.1606 713.7917,-315.6472 717.3405,-315.1759 721.0463,-314.7479 724.8954,-314.3645 728.8731,-314.0266 732.9639,-313.7353 737.1518,-313.4913 741.42,-313.2953 745.7511,-313.1479 750.1274,-313.0493 754.531,-313 758.9437,-313 763.3473,-313.0493"/>
<text text-anchor="middle" x="756.7373" y="-328.5" font-family="Courier,monospace" font-weight="bold" font-size="10.00" fill="#000000">(&#45;1, &#39;D,0,2&#39;)</text>
</g>
<!-- (&#45;1, &#39;D,0,1&#39;)&#45;&gt;(&#45;1, &#39;D,0,2&#39;) -->
<g id="edge1" class="edge">
<title>(&#45;1, &#39;D,0,1&#39;)&#45;&gt;(&#45;1, &#39;D,0,2&#39;)</title>
<path fill="none" stroke="#000000" d="M468.9632,-288.8127C484.2338,-291.9882 501.1464,-295.3239 516.7373,-298 570.514,-307.2306 631.4206,-315.5804 678.4204,-321.5716"/>
<polygon fill="#000000" stroke="#000000" points="678.173,-325.0682 688.5334,-322.8518 679.0521,-318.1236 678.173,-325.0682"/>
<text text-anchor="middle" x="588.2373" y="-322" font-family="Courier,monospace" font-weight="bold" font-size="10.00" fill="#000000">0.49995001499550135</text>
</g>
<!-- (0, &#39;E,1,1&#39;) -->
<g id="node8" class="node">
<title>(0, &#39;E,1,1&#39;)</title>
<polygon fill="none" stroke="#000000" points="762.9516,-212.0493 767.0659,-212.1479 771.1377,-212.2953 775.1503,-212.4913 779.0875,-212.7353 782.9334,-213.0266 786.673,-213.3645 790.2916,-213.7479 793.7756,-214.1759 797.1119,-214.6472 800.2885,-215.1606 803.2945,-215.7147 806.1197,-216.308 808.7552,-216.9388 811.1933,-217.6054 813.4272,-218.3059 815.4514,-219.0385 817.2616,-219.8012 818.8545,-220.5918 820.2282,-221.4082 821.3818,-222.2481 822.3154,-223.1093 823.0304,-223.9894 823.5291,-224.886 823.8148,-225.7965 823.8916,-226.7186 823.7647,-227.6497 823.4399,-228.5873 822.9236,-229.5287 822.223,-230.4713 821.3458,-231.4127 820.3002,-232.3503 819.0945,-233.2814 817.7376,-234.2035 816.2385,-235.114 814.6063,-236.0106 812.85,-236.8907 810.9788,-237.7519 809.0017,-238.5918 806.9274,-239.4082 804.7646,-240.1988 802.5214,-240.9615 800.2059,-241.6941 797.8256,-242.3946 795.3875,-243.0612 792.8984,-243.692 790.3645,-244.2853 787.7915,-244.8394 785.1848,-245.3528 782.549,-245.8241 779.8887,-246.2521 777.2076,-246.6355 774.5093,-246.9734 771.7969,-247.2647 769.0731,-247.5087 766.3405,-247.7047 763.6013,-247.8521 760.8575,-247.9507 758.111,-248 755.3636,-248 752.6172,-247.9507 749.8734,-247.8521 747.1341,-247.7047 744.4015,-247.5087 741.6778,-247.2647 738.9654,-246.9734 736.2671,-246.6355 733.586,-246.2521 730.9256,-245.8241 728.2899,-245.3528 725.6831,-244.8394 723.1102,-244.2853 720.5763,-243.692 718.0872,-243.0612 715.6491,-242.3946 713.2687,-241.6941 710.9532,-240.9615 708.7101,-240.1988 706.5472,-239.4082 704.473,-238.5918 702.4959,-237.7519 700.6247,-236.8907 698.8684,-236.0106 697.2362,-235.114 695.737,-234.2035 694.3802,-233.2814 693.1745,-232.3503 692.1288,-231.4127 691.2516,-230.4713 690.5511,-229.5287 690.0348,-228.5873 689.7099,-227.6497 689.583,-226.7186 689.6599,-225.7965 689.9456,-224.886 690.4443,-223.9894 691.1593,-223.1093 692.0929,-222.2481 693.2465,-221.4082 694.6201,-220.5918 696.2131,-219.8012 698.0232,-219.0385 700.0475,-218.3059 702.2814,-217.6054 704.7194,-216.9388 707.355,-216.308 710.1802,-215.7147 713.1861,-215.1606 716.3628,-214.6472 719.6991,-214.1759 723.183,-213.7479 726.8017,-213.3645 730.5412,-213.0266 734.3872,-212.7353 738.3244,-212.4913 742.337,-212.2953 746.4088,-212.1479 750.5231,-212.0493 754.6631,-212 758.8116,-212 762.9516,-212.0493"/>
<text text-anchor="middle" x="756.7373" y="-227.5" font-family="Courier,monospace" font-weight="bold" font-size="10.00" fill="#000000">(0, &#39;E,1,1&#39;)</text>
</g>
<!-- (&#45;1, &#39;D,0,1&#39;)&#45;&gt;(0, &#39;E,1,1&#39;) -->
<g id="edge2" class="edge">
<title>(&#45;1, &#39;D,0,1&#39;)&#45;&gt;(0, &#39;E,1,1&#39;)</title>
<path fill="none" stroke="#000000" d="M478.3471,-265.8029C490.9791,-263.3751 504.2793,-260.9701 516.7373,-259 574.403,-249.8809 640.2628,-242.1095 688.3853,-236.9136"/>
<polygon fill="#000000" stroke="#000000" points="688.8048,-240.3888 698.3755,-235.8444 688.0598,-233.4286 688.8048,-240.3888"/>
<text text-anchor="middle" x="588.2373" y="-262" font-family="Courier,monospace" font-weight="bold" font-size="10.00" fill="#000000">0.49995001499550135</text>
</g>
<!-- (0, &#39;E,1,2&#39;) -->
<g id="node9" class="node">
<title>(0, &#39;E,1,2&#39;)</title>
<polygon fill="none" stroke="#000000" points="1103.9516,-287.0493 1108.0659,-287.1479 1112.1377,-287.2953 1116.1503,-287.4913 1120.0875,-287.7353 1123.9334,-288.0266 1127.673,-288.3645 1131.2916,-288.7479 1134.7756,-289.1759 1138.1119,-289.6472 1141.2885,-290.1606 1144.2945,-290.7147 1147.1197,-291.308 1149.7552,-291.9388 1152.1933,-292.6054 1154.4272,-293.3059 1156.4514,-294.0385 1158.2616,-294.8012 1159.8545,-295.5918 1161.2282,-296.4082 1162.3818,-297.2481 1163.3154,-298.1093 1164.0304,-298.9894 1164.5291,-299.886 1164.8148,-300.7965 1164.8916,-301.7186 1164.7647,-302.6497 1164.4399,-303.5873 1163.9236,-304.5287 1163.223,-305.4713 1162.3458,-306.4127 1161.3002,-307.3503 1160.0945,-308.2814 1158.7376,-309.2035 1157.2385,-310.114 1155.6063,-311.0106 1153.85,-311.8907 1151.9788,-312.7519 1150.0017,-313.5918 1147.9274,-314.4082 1145.7646,-315.1988 1143.5214,-315.9615 1141.2059,-316.6941 1138.8256,-317.3946 1136.3875,-318.0612 1133.8984,-318.692 1131.3645,-319.2853 1128.7915,-319.8394 1126.1848,-320.3528 1123.549,-320.8241 1120.8887,-321.2521 1118.2076,-321.6355 1115.5093,-321.9734 1112.7969,-322.2647 1110.0731,-322.5087 1107.3405,-322.7047 1104.6013,-322.8521 1101.8575,-322.9507 1099.111,-323 1096.3636,-323 1093.6172,-322.9507 1090.8734,-322.8521 1088.1341,-322.7047 1085.4015,-322.5087 1082.6778,-322.2647 1079.9654,-321.9734 1077.2671,-321.6355 1074.586,-321.2521 1071.9256,-320.8241 1069.2899,-320.3528 1066.6831,-319.8394 1064.1102,-319.2853 1061.5763,-318.692 1059.0872,-318.0612 1056.6491,-317.3946 1054.2687,-316.6941 1051.9532,-315.9615 1049.7101,-315.1988 1047.5472,-314.4082 1045.473,-313.5918 1043.4959,-312.7519 1041.6247,-311.8907 1039.8684,-311.0106 1038.2362,-310.114 1036.737,-309.2035 1035.3802,-308.2814 1034.1745,-307.3503 1033.1288,-306.4127 1032.2516,-305.4713 1031.5511,-304.5287 1031.0348,-303.5873 1030.7099,-302.6497 1030.583,-301.7186 1030.6599,-300.7965 1030.9456,-299.886 1031.4443,-298.9894 1032.1593,-298.1093 1033.0929,-297.2481 1034.2465,-296.4082 1035.6201,-295.5918 1037.2131,-294.8012 1039.0232,-294.0385 1041.0475,-293.3059 1043.2814,-292.6054 1045.7194,-291.9388 1048.355,-291.308 1051.1802,-290.7147 1054.1861,-290.1606 1057.3628,-289.6472 1060.6991,-289.1759 1064.183,-288.7479 1067.8017,-288.3645 1071.5412,-288.0266 1075.3872,-287.7353 1079.3244,-287.4913 1083.337,-287.2953 1087.4088,-287.1479 1091.5231,-287.0493 1095.6631,-287 1099.8116,-287 1103.9516,-287.0493"/>
<text text-anchor="middle" x="1097.7373" y="-302.5" font-family="Courier,monospace" font-weight="bold" font-size="10.00" fill="#000000">(0, &#39;E,1,2&#39;)</text>
</g>
<!-- (&#45;1, &#39;D,0,1&#39;)&#45;&gt;(0, &#39;E,1,2&#39;) -->
<g id="edge3" class="edge">
<title>(&#45;1, &#39;D,0,1&#39;)&#45;&gt;(0, &#39;E,1,2&#39;)</title>
<path fill="none" stroke="#000000" d="M487.84,-280.2523C570.2352,-283.0243 713.1631,-287.9832 835.7373,-293 897.7963,-295.54 968.1064,-298.7802 1020.2552,-301.2532"/>
<polygon fill="#000000" stroke="#000000" points="1020.28,-304.7582 1030.435,-301.7372 1020.6125,-297.7661 1020.28,-304.7582"/>
<text text-anchor="middle" x="756.7373" y="-296" font-family="Courier,monospace" font-weight="bold" font-size="10.00" fill="#000000">9.997000899730082e&#45;05</text>
</g>
<!-- (&#45;1, &#39;D,0,2&#39;)&#45;&gt;(0, &#39;E,1,2&#39;) -->
<g id="edge4" class="edge">
<title>(&#45;1, &#39;D,0,2&#39;)&#45;&gt;(0, &#39;E,1,2&#39;)</title>
<path fill="none" stroke="#000000" d="M827.807,-325.5812C886.2697,-321.1236 968.7066,-314.8381 1027.0613,-310.3888"/>
<polygon fill="#000000" stroke="#000000" points="1027.5966,-313.8582 1037.3015,-309.608 1027.0644,-306.8785 1027.5966,-313.8582"/>
<text text-anchor="middle" x="932.7373" y="-326" font-family="Courier,monospace" font-weight="bold" font-size="10.00" fill="#000000">1.0</text>
</g>
<!-- (&#45;1, &#39;S,&#45;1,&#45;1&#39;) -->
<g id="node3" class="node">
<title>(&#45;1, &#39;S,&#45;1,&#45;1&#39;)</title>
<polygon fill="none" stroke="#000000" points="88.3398,-207.0493 93.2864,-207.1479 98.1817,-207.2953 103.006,-207.4913 107.7395,-207.7353 112.3634,-208.0266 116.8594,-208.3645 121.21,-208.7479 125.3986,-209.1759 129.4097,-209.6472 133.2289,-210.1606 136.8429,-210.7147 140.2395,-211.308 143.4082,-211.9388 146.3394,-212.6054 149.0251,-213.3059 151.4588,-214.0385 153.6351,-214.8012 155.5502,-215.5918 157.2018,-216.4082 158.5887,-217.2481 159.7111,-218.1093 160.5708,-218.9894 161.1703,-219.886 161.5138,-220.7965 161.6062,-221.7186 161.4536,-222.6497 161.0631,-223.5873 160.4424,-224.5287 159.6001,-225.4713 158.5455,-226.4127 157.2883,-227.3503 155.8387,-228.2814 154.2074,-229.2035 152.4051,-230.114 150.4427,-231.0106 148.3312,-231.8907 146.0815,-232.7519 143.7045,-233.5918 141.2107,-234.4082 138.6103,-235.1988 135.9135,-235.9615 133.1296,-236.6941 130.2678,-237.3946 127.3365,-238.0612 124.344,-238.692 121.2975,-239.2853 118.2042,-239.8394 115.0701,-240.3528 111.9013,-240.8241 108.7028,-241.2521 105.4794,-241.6355 102.2353,-241.9734 98.9743,-242.2647 95.6996,-242.5087 92.4143,-242.7047 89.121,-242.8521 85.8222,-242.9507 82.5202,-243 79.2171,-243 75.9151,-242.9507 72.6163,-242.8521 69.323,-242.7047 66.0377,-242.5087 62.763,-242.2647 59.502,-241.9734 56.2579,-241.6355 53.0345,-241.2521 49.836,-240.8241 46.6672,-240.3528 43.5332,-239.8394 40.4398,-239.2853 37.3933,-238.692 34.4008,-238.0612 31.4696,-237.3946 28.6077,-236.6941 25.8239,-235.9615 23.127,-235.1988 20.5267,-234.4082 18.0329,-233.5918 15.6558,-232.7519 13.4062,-231.8907 11.2947,-231.0106 9.3322,-230.114 7.5299,-229.2035 5.8986,-228.2814 4.4491,-227.3503 3.1919,-226.4127 2.1373,-225.4713 1.295,-224.5287 .6743,-223.5873 .2837,-222.6497 .1311,-221.7186 .2235,-220.7965 .567,-219.886 1.1666,-218.9894 2.0262,-218.1093 3.1487,-217.2481 4.5356,-216.4082 6.1871,-215.5918 8.1022,-214.8012 10.2785,-214.0385 12.7122,-213.3059 15.3979,-212.6054 18.3292,-211.9388 21.4978,-211.308 24.8945,-210.7147 28.5084,-210.1606 32.3276,-209.6472 36.3387,-209.1759 40.5274,-208.7479 44.8779,-208.3645 49.3739,-208.0266 53.9978,-207.7353 58.7313,-207.4913 63.5556,-207.2953 68.451,-207.1479 73.3975,-207.0493 78.3748,-207 83.3625,-207 88.3398,-207.0493"/>
<text text-anchor="middle" x="80.8687" y="-222.5" font-family="Courier,monospace" font-weight="bold" font-size="10.00" fill="#000000">(&#45;1, &#39;S,&#45;1,&#45;1&#39;)</text>
</g>
<!-- (&#45;1, &#39;S,&#45;1,&#45;1&#39;)&#45;&gt;(&#45;1, &#39;D,0,1&#39;) -->
<g id="edge5" class="edge">
<title>(&#45;1, &#39;S,&#45;1,&#45;1&#39;)&#45;&gt;(&#45;1, &#39;D,0,1&#39;)</title>
<path fill="none" stroke="#000000" d="M141.4516,-234.4753C198.4369,-243.388 283.9097,-256.7562 345.0822,-266.3237"/>
<polygon fill="#000000" stroke="#000000" points="344.6429,-269.7975 355.0637,-267.8849 345.7246,-262.8816 344.6429,-269.7975"/>
<text text-anchor="middle" x="251.2373" y="-265" font-family="Courier,monospace" font-weight="bold" font-size="10.00" fill="#000000">0.39998000599820055</text>
</g>
<!-- (0, &#39;E,1,0&#39;) -->
<g id="node7" class="node">
<title>(0, &#39;E,1,0&#39;)</title>
<polygon fill="none" stroke="#000000" points="425.9516,-77.0493 430.0659,-77.1479 434.1377,-77.2953 438.1503,-77.4913 442.0875,-77.7353 445.9334,-78.0266 449.673,-78.3645 453.2916,-78.7479 456.7756,-79.1759 460.1119,-79.6472 463.2885,-80.1606 466.2945,-80.7147 469.1197,-81.308 471.7552,-81.9388 474.1933,-82.6054 476.4272,-83.3059 478.4514,-84.0385 480.2616,-84.8012 481.8545,-85.5918 483.2282,-86.4082 484.3818,-87.2481 485.3154,-88.1093 486.0304,-88.9894 486.5291,-89.886 486.8148,-90.7965 486.8916,-91.7186 486.7647,-92.6497 486.4399,-93.5873 485.9236,-94.5287 485.223,-95.4713 484.3458,-96.4127 483.3002,-97.3503 482.0945,-98.2814 480.7376,-99.2035 479.2385,-100.114 477.6063,-101.0106 475.85,-101.8907 473.9788,-102.7519 472.0017,-103.5918 469.9274,-104.4082 467.7646,-105.1988 465.5214,-105.9615 463.2059,-106.6941 460.8256,-107.3946 458.3875,-108.0612 455.8984,-108.692 453.3645,-109.2853 450.7915,-109.8394 448.1848,-110.3528 445.549,-110.8241 442.8887,-111.2521 440.2076,-111.6355 437.5093,-111.9734 434.7969,-112.2647 432.0731,-112.5087 429.3405,-112.7047 426.6013,-112.8521 423.8575,-112.9507 421.111,-113 418.3636,-113 415.6172,-112.9507 412.8734,-112.8521 410.1341,-112.7047 407.4015,-112.5087 404.6778,-112.2647 401.9654,-111.9734 399.2671,-111.6355 396.586,-111.2521 393.9256,-110.8241 391.2899,-110.3528 388.6831,-109.8394 386.1102,-109.2853 383.5763,-108.692 381.0872,-108.0612 378.6491,-107.3946 376.2687,-106.6941 373.9532,-105.9615 371.7101,-105.1988 369.5472,-104.4082 367.473,-103.5918 365.4959,-102.7519 363.6247,-101.8907 361.8684,-101.0106 360.2362,-100.114 358.737,-99.2035 357.3802,-98.2814 356.1745,-97.3503 355.1288,-96.4127 354.2516,-95.4713 353.5511,-94.5287 353.0348,-93.5873 352.7099,-92.6497 352.583,-91.7186 352.6599,-90.7965 352.9456,-89.886 353.4443,-88.9894 354.1593,-88.1093 355.0929,-87.2481 356.2465,-86.4082 357.6201,-85.5918 359.2131,-84.8012 361.0232,-84.0385 363.0475,-83.3059 365.2814,-82.6054 367.7194,-81.9388 370.355,-81.308 373.1802,-80.7147 376.1861,-80.1606 379.3628,-79.6472 382.6991,-79.1759 386.183,-78.7479 389.8017,-78.3645 393.5412,-78.0266 397.3872,-77.7353 401.3244,-77.4913 405.337,-77.2953 409.4088,-77.1479 413.5231,-77.0493 417.6631,-77 421.8116,-77 425.9516,-77.0493"/>
<text text-anchor="middle" x="419.7373" y="-92.5" font-family="Courier,monospace" font-weight="bold" font-size="10.00" fill="#000000">(0, &#39;E,1,0&#39;)</text>
</g>
<!-- (&#45;1, &#39;S,&#45;1,&#45;1&#39;)&#45;&gt;(0, &#39;E,1,0&#39;) -->
<g id="edge6" class="edge">
<title>(&#45;1, &#39;S,&#45;1,&#45;1&#39;)&#45;&gt;(0, &#39;E,1,0&#39;)</title>
<path fill="none" stroke="#000000" d="M123.1014,-208.7983C187.0608,-184.2616 308.009,-137.8623 373.9881,-112.5508"/>
<polygon fill="#000000" stroke="#000000" points="375.6165,-115.6748 383.6994,-108.8252 373.1092,-109.1393 375.6165,-115.6748"/>
<text text-anchor="middle" x="251.2373" y="-189" font-family="Courier,monospace" font-weight="bold" font-size="10.00" fill="#000000">0.5999200239928022</text>
</g>
<!-- (&#45;1, &#39;S,&#45;1,&#45;1&#39;)&#45;&gt;(0, &#39;E,1,1&#39;) -->
<g id="edge7" class="edge">
<title>(&#45;1, &#39;S,&#45;1,&#45;1&#39;)&#45;&gt;(0, &#39;E,1,1&#39;)</title>
<path fill="none" stroke="#000000" d="M159.7221,-225.5833C290.5896,-226.5515 551.0063,-228.478 680.2757,-229.4343"/>
<polygon fill="#000000" stroke="#000000" points="680.4587,-232.9357 690.4843,-229.5099 680.5105,-225.9359 680.4587,-232.9357"/>
<text text-anchor="middle" x="419.7373" y="-231" font-family="Courier,monospace" font-weight="bold" font-size="10.00" fill="#000000">9.997000899730082e&#45;05</text>
</g>
<!-- (&#45;1, &#39;VITERBI_SINK&#39;) -->
<g id="node4" class="node">
<title>(&#45;1, &#39;VITERBI_SINK&#39;)</title>
<polygon fill="none" stroke="#000000" points="1744.2482,-109.0493 1750.674,-109.1479 1757.0333,-109.2953 1763.3001,-109.4913 1769.4492,-109.7353 1775.4558,-110.0266 1781.2963,-110.3645 1786.9478,-110.7479 1792.389,-111.1759 1797.5996,-111.6472 1802.5609,-112.1606 1807.2556,-112.7147 1811.668,-113.308 1815.7842,-113.9388 1819.5919,-114.6054 1823.0808,-115.3059 1826.2422,-116.0385 1829.0693,-116.8012 1831.5572,-117.5918 1833.7026,-118.4082 1835.5042,-119.2481 1836.9623,-120.1093 1838.079,-120.9894 1838.8579,-121.886 1839.3041,-122.7965 1839.4241,-123.7186 1839.2259,-124.6497 1838.7186,-125.5873 1837.9122,-126.5287 1836.8181,-127.4713 1835.4481,-128.4127 1833.815,-129.3503 1831.932,-130.2814 1829.8128,-131.2035 1827.4715,-132.114 1824.9222,-133.0106 1822.1793,-133.8907 1819.2569,-134.7519 1816.1691,-135.5918 1812.9295,-136.4082 1809.5516,-137.1988 1806.0482,-137.9615 1802.4319,-138.6941 1798.7142,-139.3946 1794.9065,-140.0612 1791.019,-140.692 1787.0616,-141.2853 1783.0431,-141.8394 1778.9719,-142.3528 1774.8555,-142.8241 1770.7005,-143.2521 1766.5132,-143.6355 1762.299,-143.9734 1758.0628,-144.2647 1753.8089,-144.5087 1749.5411,-144.7047 1745.263,-144.8521 1740.9778,-144.9507 1736.6883,-145 1732.3975,-145 1728.108,-144.9507 1723.8228,-144.8521 1719.5447,-144.7047 1715.2769,-144.5087 1711.023,-144.2647 1706.7867,-143.9734 1702.5725,-143.6355 1698.3852,-143.2521 1694.2303,-142.8241 1690.1138,-142.3528 1686.0426,-141.8394 1682.0242,-141.2853 1678.0667,-140.692 1674.1793,-140.0612 1670.3715,-139.3946 1666.6539,-138.6941 1663.0375,-137.9615 1659.5342,-137.1988 1656.1563,-136.4082 1652.9167,-135.5918 1649.8288,-134.7519 1646.9064,-133.8907 1644.1635,-133.0106 1641.6143,-132.114 1639.273,-131.2035 1637.1538,-130.2814 1635.2708,-129.3503 1633.6377,-128.4127 1632.2677,-127.4713 1631.1735,-126.5287 1630.3672,-125.5873 1629.8599,-124.6497 1629.6616,-123.7186 1629.7817,-122.7965 1630.2279,-121.886 1631.0067,-120.9894 1632.1234,-120.1093 1633.5816,-119.2481 1635.3832,-118.4082 1637.5286,-117.5918 1640.0164,-116.8012 1642.8435,-116.0385 1646.0049,-115.3059 1649.4938,-114.6054 1653.3016,-113.9388 1657.4178,-113.308 1661.8302,-112.7147 1666.5249,-112.1606 1671.4861,-111.6472 1676.6968,-111.1759 1682.1379,-110.7479 1687.7895,-110.3645 1693.6299,-110.0266 1699.6366,-109.7353 1705.7856,-109.4913 1712.0525,-109.2953 1718.4118,-109.1479 1724.8375,-109.0493 1731.3033,-109 1737.7825,-109 1744.2482,-109.0493"/>
<text text-anchor="middle" x="1734.5429" y="-124.5" font-family="Courier,monospace" font-weight="bold" font-size="10.00" fill="#000000">(&#45;1, &#39;VITERBI_SINK&#39;)</text>
</g>
<!-- (0, &#39;D,1,1&#39;) -->
<g id="node5" class="node">
<title>(0, &#39;D,1,1&#39;)</title>
<polygon fill="none" stroke="#000000" points="762.9516,-107.0493 767.0659,-107.1479 771.1377,-107.2953 775.1503,-107.4913 779.0875,-107.7353 782.9334,-108.0266 786.673,-108.3645 790.2916,-108.7479 793.7756,-109.1759 797.1119,-109.6472 800.2885,-110.1606 803.2945,-110.7147 806.1197,-111.308 808.7552,-111.9388 811.1933,-112.6054 813.4272,-113.3059 815.4514,-114.0385 817.2616,-114.8012 818.8545,-115.5918 820.2282,-116.4082 821.3818,-117.2481 822.3154,-118.1093 823.0304,-118.9894 823.5291,-119.886 823.8148,-120.7965 823.8916,-121.7186 823.7647,-122.6497 823.4399,-123.5873 822.9236,-124.5287 822.223,-125.4713 821.3458,-126.4127 820.3002,-127.3503 819.0945,-128.2814 817.7376,-129.2035 816.2385,-130.114 814.6063,-131.0106 812.85,-131.8907 810.9788,-132.7519 809.0017,-133.5918 806.9274,-134.4082 804.7646,-135.1988 802.5214,-135.9615 800.2059,-136.6941 797.8256,-137.3946 795.3875,-138.0612 792.8984,-138.692 790.3645,-139.2853 787.7915,-139.8394 785.1848,-140.3528 782.549,-140.8241 779.8887,-141.2521 777.2076,-141.6355 774.5093,-141.9734 771.7969,-142.2647 769.0731,-142.5087 766.3405,-142.7047 763.6013,-142.8521 760.8575,-142.9507 758.111,-143 755.3636,-143 752.6172,-142.9507 749.8734,-142.8521 747.1341,-142.7047 744.4015,-142.5087 741.6778,-142.2647 738.9654,-141.9734 736.2671,-141.6355 733.586,-141.2521 730.9256,-140.8241 728.2899,-140.3528 725.6831,-139.8394 723.1102,-139.2853 720.5763,-138.692 718.0872,-138.0612 715.6491,-137.3946 713.2687,-136.6941 710.9532,-135.9615 708.7101,-135.1988 706.5472,-134.4082 704.473,-133.5918 702.4959,-132.7519 700.6247,-131.8907 698.8684,-131.0106 697.2362,-130.114 695.737,-129.2035 694.3802,-128.2814 693.1745,-127.3503 692.1288,-126.4127 691.2516,-125.4713 690.5511,-124.5287 690.0348,-123.5873 689.7099,-122.6497 689.583,-121.7186 689.6599,-120.7965 689.9456,-119.886 690.4443,-118.9894 691.1593,-118.1093 692.0929,-117.2481 693.2465,-116.4082 694.6201,-115.5918 696.2131,-114.8012 698.0232,-114.0385 700.0475,-113.3059 702.2814,-112.6054 704.7194,-111.9388 707.355,-111.308 710.1802,-110.7147 713.1861,-110.1606 716.3628,-109.6472 719.6991,-109.1759 723.183,-108.7479 726.8017,-108.3645 730.5412,-108.0266 734.3872,-107.7353 738.3244,-107.4913 742.337,-107.2953 746.4088,-107.1479 750.5231,-107.0493 754.6631,-107 758.8116,-107 762.9516,-107.0493"/>
<text text-anchor="middle" x="756.7373" y="-122.5" font-family="Courier,monospace" font-weight="bold" font-size="10.00" fill="#000000">(0, &#39;D,1,1&#39;)</text>
</g>
<!-- (0, &#39;D,1,2&#39;) -->
<g id="node6" class="node">
<title>(0, &#39;D,1,2&#39;)</title>
<polygon fill="none" stroke="#000000" points="1103.9516,-173.0493 1108.0659,-173.1479 1112.1377,-173.2953 1116.1503,-173.4913 1120.0875,-173.7353 1123.9334,-174.0266 1127.673,-174.3645 1131.2916,-174.7479 1134.7756,-175.1759 1138.1119,-175.6472 1141.2885,-176.1606 1144.2945,-176.7147 1147.1197,-177.308 1149.7552,-177.9388 1152.1933,-178.6054 1154.4272,-179.3059 1156.4514,-180.0385 1158.2616,-180.8012 1159.8545,-181.5918 1161.2282,-182.4082 1162.3818,-183.2481 1163.3154,-184.1093 1164.0304,-184.9894 1164.5291,-185.886 1164.8148,-186.7965 1164.8916,-187.7186 1164.7647,-188.6497 1164.4399,-189.5873 1163.9236,-190.5287 1163.223,-191.4713 1162.3458,-192.4127 1161.3002,-193.3503 1160.0945,-194.2814 1158.7376,-195.2035 1157.2385,-196.114 1155.6063,-197.0106 1153.85,-197.8907 1151.9788,-198.7519 1150.0017,-199.5918 1147.9274,-200.4082 1145.7646,-201.1988 1143.5214,-201.9615 1141.2059,-202.6941 1138.8256,-203.3946 1136.3875,-204.0612 1133.8984,-204.692 1131.3645,-205.2853 1128.7915,-205.8394 1126.1848,-206.3528 1123.549,-206.8241 1120.8887,-207.2521 1118.2076,-207.6355 1115.5093,-207.9734 1112.7969,-208.2647 1110.0731,-208.5087 1107.3405,-208.7047 1104.6013,-208.8521 1101.8575,-208.9507 1099.111,-209 1096.3636,-209 1093.6172,-208.9507 1090.8734,-208.8521 1088.1341,-208.7047 1085.4015,-208.5087 1082.6778,-208.2647 1079.9654,-207.9734 1077.2671,-207.6355 1074.586,-207.2521 1071.9256,-206.8241 1069.2899,-206.3528 1066.6831,-205.8394 1064.1102,-205.2853 1061.5763,-204.692 1059.0872,-204.0612 1056.6491,-203.3946 1054.2687,-202.6941 1051.9532,-201.9615 1049.7101,-201.1988 1047.5472,-200.4082 1045.473,-199.5918 1043.4959,-198.7519 1041.6247,-197.8907 1039.8684,-197.0106 1038.2362,-196.114 1036.737,-195.2035 1035.3802,-194.2814 1034.1745,-193.3503 1033.1288,-192.4127 1032.2516,-191.4713 1031.5511,-190.5287 1031.0348,-189.5873 1030.7099,-188.6497 1030.583,-187.7186 1030.6599,-186.7965 1030.9456,-185.886 1031.4443,-184.9894 1032.1593,-184.1093 1033.0929,-183.2481 1034.2465,-182.4082 1035.6201,-181.5918 1037.2131,-180.8012 1039.0232,-180.0385 1041.0475,-179.3059 1043.2814,-178.6054 1045.7194,-177.9388 1048.355,-177.308 1051.1802,-176.7147 1054.1861,-176.1606 1057.3628,-175.6472 1060.6991,-175.1759 1064.183,-174.7479 1067.8017,-174.3645 1071.5412,-174.0266 1075.3872,-173.7353 1079.3244,-173.4913 1083.337,-173.2953 1087.4088,-173.1479 1091.5231,-173.0493 1095.6631,-173 1099.8116,-173 1103.9516,-173.0493"/>
<text text-anchor="middle" x="1097.7373" y="-188.5" font-family="Courier,monospace" font-weight="bold" font-size="10.00" fill="#000000">(0, &#39;D,1,2&#39;)</text>
</g>
<!-- (0, &#39;D,1,1&#39;)&#45;&gt;(0, &#39;D,1,2&#39;) -->
<g id="edge8" class="edge">
<title>(0, &#39;D,1,1&#39;)&#45;&gt;(0, &#39;D,1,2&#39;)</title>
<path fill="none" stroke="#000000" d="M807.5366,-134.1883C822.4114,-136.8015 838.713,-139.5904 853.7373,-142 923.8043,-153.2373 942.471,-149.5782 1011.7373,-165 1022.1214,-167.312 1033.0766,-170.2375 1043.5616,-173.2855"/>
<polygon fill="#000000" stroke="#000000" points="1042.853,-176.7264 1053.4362,-176.2294 1044.8529,-170.0182 1042.853,-176.7264"/>
<text text-anchor="middle" x="932.7373" y="-168" font-family="Courier,monospace" font-weight="bold" font-size="10.00" fill="#000000">9.997000899730082e&#45;05</text>
</g>
<!-- (1, &#39;E,2,1&#39;) -->
<g id="node13" class="node">
<title>(1, &#39;E,2,1&#39;)</title>
<polygon fill="none" stroke="#000000" points="1103.9516,-59.0493 1108.0659,-59.1479 1112.1377,-59.2953 1116.1503,-59.4913 1120.0875,-59.7353 1123.9334,-60.0266 1127.673,-60.3645 1131.2916,-60.7479 1134.7756,-61.1759 1138.1119,-61.6472 1141.2885,-62.1606 1144.2945,-62.7147 1147.1197,-63.308 1149.7552,-63.9388 1152.1933,-64.6054 1154.4272,-65.3059 1156.4514,-66.0385 1158.2616,-66.8012 1159.8545,-67.5918 1161.2282,-68.4082 1162.3818,-69.2481 1163.3154,-70.1093 1164.0304,-70.9894 1164.5291,-71.886 1164.8148,-72.7965 1164.8916,-73.7186 1164.7647,-74.6497 1164.4399,-75.5873 1163.9236,-76.5287 1163.223,-77.4713 1162.3458,-78.4127 1161.3002,-79.3503 1160.0945,-80.2814 1158.7376,-81.2035 1157.2385,-82.114 1155.6063,-83.0106 1153.85,-83.8907 1151.9788,-84.7519 1150.0017,-85.5918 1147.9274,-86.4082 1145.7646,-87.1988 1143.5214,-87.9615 1141.2059,-88.6941 1138.8256,-89.3946 1136.3875,-90.0612 1133.8984,-90.692 1131.3645,-91.2853 1128.7915,-91.8394 1126.1848,-92.3528 1123.549,-92.8241 1120.8887,-93.2521 1118.2076,-93.6355 1115.5093,-93.9734 1112.7969,-94.2647 1110.0731,-94.5087 1107.3405,-94.7047 1104.6013,-94.8521 1101.8575,-94.9507 1099.111,-95 1096.3636,-95 1093.6172,-94.9507 1090.8734,-94.8521 1088.1341,-94.7047 1085.4015,-94.5087 1082.6778,-94.2647 1079.9654,-93.9734 1077.2671,-93.6355 1074.586,-93.2521 1071.9256,-92.8241 1069.2899,-92.3528 1066.6831,-91.8394 1064.1102,-91.2853 1061.5763,-90.692 1059.0872,-90.0612 1056.6491,-89.3946 1054.2687,-88.6941 1051.9532,-87.9615 1049.7101,-87.1988 1047.5472,-86.4082 1045.473,-85.5918 1043.4959,-84.7519 1041.6247,-83.8907 1039.8684,-83.0106 1038.2362,-82.114 1036.737,-81.2035 1035.3802,-80.2814 1034.1745,-79.3503 1033.1288,-78.4127 1032.2516,-77.4713 1031.5511,-76.5287 1031.0348,-75.5873 1030.7099,-74.6497 1030.583,-73.7186 1030.6599,-72.7965 1030.9456,-71.886 1031.4443,-70.9894 1032.1593,-70.1093 1033.0929,-69.2481 1034.2465,-68.4082 1035.6201,-67.5918 1037.2131,-66.8012 1039.0232,-66.0385 1041.0475,-65.3059 1043.2814,-64.6054 1045.7194,-63.9388 1048.355,-63.308 1051.1802,-62.7147 1054.1861,-62.1606 1057.3628,-61.6472 1060.6991,-61.1759 1064.183,-60.7479 1067.8017,-60.3645 1071.5412,-60.0266 1075.3872,-59.7353 1079.3244,-59.4913 1083.337,-59.2953 1087.4088,-59.1479 1091.5231,-59.0493 1095.6631,-59 1099.8116,-59 1103.9516,-59.0493"/>
<text text-anchor="middle" x="1097.7373" y="-74.5" font-family="Courier,monospace" font-weight="bold" font-size="10.00" fill="#000000">(1, &#39;E,2,1&#39;)</text>
</g>
<!-- (0, &#39;D,1,1&#39;)&#45;&gt;(1, &#39;E,2,1&#39;) -->
<g id="edge9" class="edge">
<title>(0, &#39;D,1,1&#39;)&#45;&gt;(1, &#39;E,2,1&#39;)</title>
<path fill="none" stroke="#000000" d="M813.288,-113.1807C826.5261,-110.6203 840.5993,-108.0645 853.7373,-106 912.5561,-96.7574 979.7668,-88.9728 1028.7351,-83.8038"/>
<polygon fill="#000000" stroke="#000000" points="1029.3162,-87.2622 1038.8979,-82.7409 1028.588,-80.3002 1029.3162,-87.2622"/>
<text text-anchor="middle" x="932.7373" y="-109" font-family="Courier,monospace" font-weight="bold" font-size="10.00" fill="#000000">9.997000899730082e&#45;05</text>
</g>
<!-- (1, &#39;E,2,2&#39;) -->
<g id="node14" class="node">
<title>(1, &#39;E,2,2&#39;)</title>
<polygon fill="none" stroke="#000000" points="1298.0287,-173.0493 1302.143,-173.1479 1306.2148,-173.2953 1310.2274,-173.4913 1314.1646,-173.7353 1318.0105,-174.0266 1321.7501,-174.3645 1325.3688,-174.7479 1328.8527,-175.1759 1332.189,-175.6472 1335.3656,-176.1606 1338.3716,-176.7147 1341.1968,-177.308 1343.8323,-177.9388 1346.2704,-178.6054 1348.5043,-179.3059 1350.5285,-180.0385 1352.3387,-180.8012 1353.9316,-181.5918 1355.3053,-182.4082 1356.4589,-183.2481 1357.3925,-184.1093 1358.1075,-184.9894 1358.6062,-185.886 1358.8919,-186.7965 1358.9688,-187.7186 1358.8418,-188.6497 1358.517,-189.5873 1358.0007,-190.5287 1357.3001,-191.4713 1356.4229,-192.4127 1355.3773,-193.3503 1354.1716,-194.2814 1352.8147,-195.2035 1351.3156,-196.114 1349.6834,-197.0106 1347.9271,-197.8907 1346.0559,-198.7519 1344.0788,-199.5918 1342.0045,-200.4082 1339.8417,-201.1988 1337.5985,-201.9615 1335.283,-202.6941 1332.9027,-203.3946 1330.4646,-204.0612 1327.9755,-204.692 1325.4416,-205.2853 1322.8686,-205.8394 1320.2619,-206.3528 1317.6262,-206.8241 1314.9658,-207.2521 1312.2847,-207.6355 1309.5864,-207.9734 1306.874,-208.2647 1304.1502,-208.5087 1301.4176,-208.7047 1298.6784,-208.8521 1295.9346,-208.9507 1293.1881,-209 1290.4408,-209 1287.6943,-208.9507 1284.9505,-208.8521 1282.2112,-208.7047 1279.4787,-208.5087 1276.7549,-208.2647 1274.0425,-207.9734 1271.3442,-207.6355 1268.6631,-207.2521 1266.0027,-206.8241 1263.367,-206.3528 1260.7603,-205.8394 1258.1873,-205.2853 1255.6534,-204.692 1253.1643,-204.0612 1250.7262,-203.3946 1248.3459,-202.6941 1246.0303,-201.9615 1243.7872,-201.1988 1241.6244,-200.4082 1239.5501,-199.5918 1237.573,-198.7519 1235.7018,-197.8907 1233.9455,-197.0106 1232.3133,-196.114 1230.8142,-195.2035 1229.4573,-194.2814 1228.2516,-193.3503 1227.2059,-192.4127 1226.3288,-191.4713 1225.6282,-190.5287 1225.1119,-189.5873 1224.787,-188.6497 1224.6601,-187.7186 1224.737,-186.7965 1225.0227,-185.886 1225.5214,-184.9894 1226.2364,-184.1093 1227.17,-183.2481 1228.3236,-182.4082 1229.6973,-181.5918 1231.2902,-180.8012 1233.1004,-180.0385 1235.1246,-179.3059 1237.3585,-178.6054 1239.7965,-177.9388 1242.4321,-177.308 1245.2573,-176.7147 1248.2633,-176.1606 1251.4399,-175.6472 1254.7762,-175.1759 1258.2601,-174.7479 1261.8788,-174.3645 1265.6183,-174.0266 1269.4643,-173.7353 1273.4015,-173.4913 1277.4141,-173.2953 1281.4859,-173.1479 1285.6002,-173.0493 1289.7402,-173 1293.8887,-173 1298.0287,-173.0493"/>
<text text-anchor="middle" x="1291.8144" y="-188.5" font-family="Courier,monospace" font-weight="bold" font-size="10.00" fill="#000000">(1, &#39;E,2,2&#39;)</text>
</g>
<!-- (0, &#39;D,1,1&#39;)&#45;&gt;(1, &#39;E,2,2&#39;) -->
<g id="edge10" class="edge">
<title>(0, &#39;D,1,1&#39;)&#45;&gt;(1, &#39;E,2,2&#39;)</title>
<path fill="none" stroke="#000000" d="M822.8238,-124.9871C904.158,-126.0092 1046.1846,-131.1773 1165.7373,-153 1190.7151,-157.5593 1217.7503,-165.315 1240.3564,-172.6354"/>
<polygon fill="#000000" stroke="#000000" points="1239.4872,-176.0342 1250.0803,-175.8449 1241.6813,-169.3869 1239.4872,-176.0342"/>
<text text-anchor="middle" x="1097.7373" y="-156" font-family="Courier,monospace" font-weight="bold" font-size="10.00" fill="#000000">0.9998000599820054</text>
</g>
<!-- (0, &#39;D,1,2&#39;)&#45;&gt;(1, &#39;E,2,2&#39;) -->
<g id="edge11" class="edge">
<title>(0, &#39;D,1,2&#39;)&#45;&gt;(1, &#39;E,2,2&#39;)</title>
<path fill="none" stroke="#000000" d="M1163.7138,-191C1180.2762,-191 1198.1881,-191 1215.2198,-191"/>
<polygon fill="#000000" stroke="#000000" points="1215.6909,-194.5001 1225.6908,-191 1215.6908,-187.5001 1215.6909,-194.5001"/>
<text text-anchor="middle" x="1195.2373" y="-194" font-family="Courier,monospace" font-weight="bold" font-size="10.00" fill="#000000">1.0</text>
</g>
<!-- (0, &#39;E,1,0&#39;)&#45;&gt;(0, &#39;D,1,1&#39;) -->
<g id="edge12" class="edge">
<title>(0, &#39;E,1,0&#39;)&#45;&gt;(0, &#39;D,1,1&#39;)</title>
<path fill="none" stroke="#000000" d="M479.2104,-100.2943C535.1196,-105.2714 619.0933,-112.7468 680.0232,-118.1708"/>
<polygon fill="#000000" stroke="#000000" points="680.0856,-121.6902 690.3566,-119.0907 680.7063,-114.7177 680.0856,-121.6902"/>
<text text-anchor="middle" x="588.2373" y="-120" font-family="Courier,monospace" font-weight="bold" font-size="10.00" fill="#000000">0.5999200239928022</text>
</g>
<!-- (1, &#39;E,2,0&#39;) -->
<g id="node12" class="node">
<title>(1, &#39;E,2,0&#39;)</title>
<polygon fill="none" stroke="#000000" points="762.9516,-.0493 767.0659,-.1479 771.1377,-.2953 775.1503,-.4913 779.0875,-.7353 782.9334,-1.0266 786.673,-1.3645 790.2916,-1.7479 793.7756,-2.1759 797.1119,-2.6472 800.2885,-3.1606 803.2945,-3.7147 806.1197,-4.308 808.7552,-4.9388 811.1933,-5.6054 813.4272,-6.3059 815.4514,-7.0385 817.2616,-7.8012 818.8545,-8.5918 820.2282,-9.4082 821.3818,-10.2481 822.3154,-11.1093 823.0304,-11.9894 823.5291,-12.886 823.8148,-13.7965 823.8916,-14.7186 823.7647,-15.6497 823.4399,-16.5873 822.9236,-17.5287 822.223,-18.4713 821.3458,-19.4127 820.3002,-20.3503 819.0945,-21.2814 817.7376,-22.2035 816.2385,-23.114 814.6063,-24.0106 812.85,-24.8907 810.9788,-25.7519 809.0017,-26.5918 806.9274,-27.4082 804.7646,-28.1988 802.5214,-28.9615 800.2059,-29.6941 797.8256,-30.3946 795.3875,-31.0612 792.8984,-31.692 790.3645,-32.2853 787.7915,-32.8394 785.1848,-33.3528 782.549,-33.8241 779.8887,-34.2521 777.2076,-34.6355 774.5093,-34.9734 771.7969,-35.2647 769.0731,-35.5087 766.3405,-35.7047 763.6013,-35.8521 760.8575,-35.9507 758.111,-36 755.3636,-36 752.6172,-35.9507 749.8734,-35.8521 747.1341,-35.7047 744.4015,-35.5087 741.6778,-35.2647 738.9654,-34.9734 736.2671,-34.6355 733.586,-34.2521 730.9256,-33.8241 728.2899,-33.3528 725.6831,-32.8394 723.1102,-32.2853 720.5763,-31.692 718.0872,-31.0612 715.6491,-30.3946 713.2687,-29.6941 710.9532,-28.9615 708.7101,-28.1988 706.5472,-27.4082 704.473,-26.5918 702.4959,-25.7519 700.6247,-24.8907 698.8684,-24.0106 697.2362,-23.114 695.737,-22.2035 694.3802,-21.2814 693.1745,-20.3503 692.1288,-19.4127 691.2516,-18.4713 690.5511,-17.5287 690.0348,-16.5873 689.7099,-15.6497 689.583,-14.7186 689.6599,-13.7965 689.9456,-12.886 690.4443,-11.9894 691.1593,-11.1093 692.0929,-10.2481 693.2465,-9.4082 694.6201,-8.5918 696.2131,-7.8012 698.0232,-7.0385 700.0475,-6.3059 702.2814,-5.6054 704.7194,-4.9388 707.355,-4.308 710.1802,-3.7147 713.1861,-3.1606 716.3628,-2.6472 719.6991,-2.1759 723.183,-1.7479 726.8017,-1.3645 730.5412,-1.0266 734.3872,-.7353 738.3244,-.4913 742.337,-.2953 746.4088,-.1479 750.5231,-.0493 754.6631,0 758.8116,0 762.9516,-.0493"/>
<text text-anchor="middle" x="756.7373" y="-15.5" font-family="Courier,monospace" font-weight="bold" font-size="10.00" fill="#000000">(1, &#39;E,2,0&#39;)</text>
</g>
<!-- (0, &#39;E,1,0&#39;)&#45;&gt;(1, &#39;E,2,0&#39;) -->
<g id="edge13" class="edge">
<title>(0, &#39;E,1,0&#39;)&#45;&gt;(1, &#39;E,2,0&#39;)</title>
<path fill="none" stroke="#000000" d="M447.5548,-78.0619C466.4045,-67.3946 492.25,-54.3042 516.7373,-47 570.8063,-30.872 634.2739,-23.6856 682.3578,-20.4972"/>
<polygon fill="#000000" stroke="#000000" points="682.6119,-23.9882 692.3759,-19.8757 682.1784,-17.0017 682.6119,-23.9882"/>
<text text-anchor="middle" x="588.2373" y="-50" font-family="Courier,monospace" font-weight="bold" font-size="10.00" fill="#000000">0.39998000599820055</text>
</g>
<!-- (0, &#39;E,1,0&#39;)&#45;&gt;(1, &#39;E,2,1&#39;) -->
<g id="edge14" class="edge">
<title>(0, &#39;E,1,0&#39;)&#45;&gt;(1, &#39;E,2,1&#39;)</title>
<path fill="none" stroke="#000000" d="M486.8237,-92.7876C538.8945,-91.1023 612.8946,-88.7772 677.7373,-87 798.4713,-83.6909 938.7456,-80.4786 1022.7643,-78.6225"/>
<polygon fill="#000000" stroke="#000000" points="1023.0578,-82.117 1032.9782,-78.3974 1022.9035,-75.1187 1023.0578,-82.117"/>
<text text-anchor="middle" x="756.7373" y="-90" font-family="Courier,monospace" font-weight="bold" font-size="10.00" fill="#000000">9.997000899730082e&#45;05</text>
</g>
<!-- (0, &#39;E,1,1&#39;)&#45;&gt;(0, &#39;D,1,2&#39;) -->
<g id="edge15" class="edge">
<title>(0, &#39;E,1,1&#39;)&#45;&gt;(0, &#39;D,1,2&#39;)</title>
<path fill="none" stroke="#000000" d="M823.8689,-227.2886C875.4589,-224.5887 948.3794,-219.4366 1011.7373,-210 1021.719,-208.5133 1032.2701,-206.5303 1042.4335,-204.4058"/>
<polygon fill="#000000" stroke="#000000" points="1043.396,-207.7787 1052.4322,-202.2471 1041.9188,-200.9363 1043.396,-207.7787"/>
<text text-anchor="middle" x="932.7373" y="-228" font-family="Courier,monospace" font-weight="bold" font-size="10.00" fill="#000000">9.997000899730082e&#45;05</text>
</g>
<!-- (0, &#39;E,1,1&#39;)&#45;&gt;(1, &#39;E,2,1&#39;) -->
<g id="edge16" class="edge">
<title>(0, &#39;E,1,1&#39;)&#45;&gt;(1, &#39;E,2,1&#39;)</title>
<path fill="none" stroke="#000000" d="M796.8104,-214.3958C814.0974,-208.1816 834.6858,-201.4614 853.7373,-197 888.2242,-188.924 985.114,-199.3616 1011.7373,-176 1034.9135,-155.6632 1009.9515,-132.6482 1029.7373,-109 1034.5724,-103.221 1040.6865,-98.4209 1047.2565,-94.4521"/>
<polygon fill="#000000" stroke="#000000" points="1049.2596,-97.3497 1056.4209,-89.5416 1045.9534,-91.1796 1049.2596,-97.3497"/>
<text text-anchor="middle" x="932.7373" y="-200" font-family="Courier,monospace" font-weight="bold" font-size="10.00" fill="#000000">9.997000899730082e&#45;05</text>
</g>
<!-- (0, &#39;E,1,1&#39;)&#45;&gt;(1, &#39;E,2,2&#39;) -->
<g id="edge17" class="edge">
<title>(0, &#39;E,1,1&#39;)&#45;&gt;(1, &#39;E,2,2&#39;)</title>
<path fill="none" stroke="#000000" d="M813.0828,-236.7974C826.3934,-238.1288 840.5497,-239.322 853.7373,-240 992.565,-247.1371 1028.8844,-242.399 1165.7373,-218 1188.5665,-213.9299 1213.5648,-208.7325 1235.2384,-203.9867"/>
<polygon fill="#000000" stroke="#000000" points="1236.2542,-207.3468 1245.2638,-201.7721 1234.7443,-200.5115 1236.2542,-207.3468"/>
<text text-anchor="middle" x="1097.7373" y="-241" font-family="Courier,monospace" font-weight="bold" font-size="10.00" fill="#000000">0.9998000599820054</text>
</g>
<!-- (0, &#39;E,1,2&#39;)&#45;&gt;(1, &#39;E,2,2&#39;) -->
<g id="edge18" class="edge">
<title>(0, &#39;E,1,2&#39;)&#45;&gt;(1, &#39;E,2,2&#39;)</title>
<path fill="none" stroke="#000000" d="M1154.4282,-293.2376C1171.917,-288.2143 1190.7628,-281.3044 1206.7373,-272 1231.6473,-257.4911 1254.9868,-234.3097 1270.8957,-216.4563"/>
<polygon fill="#000000" stroke="#000000" points="1273.7389,-218.5206 1277.6613,-208.6786 1268.4574,-213.9264 1273.7389,-218.5206"/>
<text text-anchor="middle" x="1195.2373" y="-285" font-family="Courier,monospace" font-weight="bold" font-size="10.00" fill="#000000">1.0</text>
</g>
<!-- (1, &#39;D,2,1&#39;) -->
<g id="node10" class="node">
<title>(1, &#39;D,2,1&#39;)</title>
<polygon fill="none" stroke="#000000" points="1103.9516,-3.0493 1108.0659,-3.1479 1112.1377,-3.2953 1116.1503,-3.4913 1120.0875,-3.7353 1123.9334,-4.0266 1127.673,-4.3645 1131.2916,-4.7479 1134.7756,-5.1759 1138.1119,-5.6472 1141.2885,-6.1606 1144.2945,-6.7147 1147.1197,-7.308 1149.7552,-7.9388 1152.1933,-8.6054 1154.4272,-9.3059 1156.4514,-10.0385 1158.2616,-10.8012 1159.8545,-11.5918 1161.2282,-12.4082 1162.3818,-13.2481 1163.3154,-14.1093 1164.0304,-14.9894 1164.5291,-15.886 1164.8148,-16.7965 1164.8916,-17.7186 1164.7647,-18.6497 1164.4399,-19.5873 1163.9236,-20.5287 1163.223,-21.4713 1162.3458,-22.4127 1161.3002,-23.3503 1160.0945,-24.2814 1158.7376,-25.2035 1157.2385,-26.114 1155.6063,-27.0106 1153.85,-27.8907 1151.9788,-28.7519 1150.0017,-29.5918 1147.9274,-30.4082 1145.7646,-31.1988 1143.5214,-31.9615 1141.2059,-32.6941 1138.8256,-33.3946 1136.3875,-34.0612 1133.8984,-34.692 1131.3645,-35.2853 1128.7915,-35.8394 1126.1848,-36.3528 1123.549,-36.8241 1120.8887,-37.2521 1118.2076,-37.6355 1115.5093,-37.9734 1112.7969,-38.2647 1110.0731,-38.5087 1107.3405,-38.7047 1104.6013,-38.8521 1101.8575,-38.9507 1099.111,-39 1096.3636,-39 1093.6172,-38.9507 1090.8734,-38.8521 1088.1341,-38.7047 1085.4015,-38.5087 1082.6778,-38.2647 1079.9654,-37.9734 1077.2671,-37.6355 1074.586,-37.2521 1071.9256,-36.8241 1069.2899,-36.3528 1066.6831,-35.8394 1064.1102,-35.2853 1061.5763,-34.692 1059.0872,-34.0612 1056.6491,-33.3946 1054.2687,-32.6941 1051.9532,-31.9615 1049.7101,-31.1988 1047.5472,-30.4082 1045.473,-29.5918 1043.4959,-28.7519 1041.6247,-27.8907 1039.8684,-27.0106 1038.2362,-26.114 1036.737,-25.2035 1035.3802,-24.2814 1034.1745,-23.3503 1033.1288,-22.4127 1032.2516,-21.4713 1031.5511,-20.5287 1031.0348,-19.5873 1030.7099,-18.6497 1030.583,-17.7186 1030.6599,-16.7965 1030.9456,-15.886 1031.4443,-14.9894 1032.1593,-14.1093 1033.0929,-13.2481 1034.2465,-12.4082 1035.6201,-11.5918 1037.2131,-10.8012 1039.0232,-10.0385 1041.0475,-9.3059 1043.2814,-8.6054 1045.7194,-7.9388 1048.355,-7.308 1051.1802,-6.7147 1054.1861,-6.1606 1057.3628,-5.6472 1060.6991,-5.1759 1064.183,-4.7479 1067.8017,-4.3645 1071.5412,-4.0266 1075.3872,-3.7353 1079.3244,-3.4913 1083.337,-3.2953 1087.4088,-3.1479 1091.5231,-3.0493 1095.6631,-3 1099.8116,-3 1103.9516,-3.0493"/>
<text text-anchor="middle" x="1097.7373" y="-18.5" font-family="Courier,monospace" font-weight="bold" font-size="10.00" fill="#000000">(1, &#39;D,2,1&#39;)</text>
</g>
<!-- (1, &#39;D,2,2&#39;) -->
<g id="node11" class="node">
<title>(1, &#39;D,2,2&#39;)</title>
<polygon fill="none" stroke="#000000" points="1298.0287,-59.0493 1302.143,-59.1479 1306.2148,-59.2953 1310.2274,-59.4913 1314.1646,-59.7353 1318.0105,-60.0266 1321.7501,-60.3645 1325.3688,-60.7479 1328.8527,-61.1759 1332.189,-61.6472 1335.3656,-62.1606 1338.3716,-62.7147 1341.1968,-63.308 1343.8323,-63.9388 1346.2704,-64.6054 1348.5043,-65.3059 1350.5285,-66.0385 1352.3387,-66.8012 1353.9316,-67.5918 1355.3053,-68.4082 1356.4589,-69.2481 1357.3925,-70.1093 1358.1075,-70.9894 1358.6062,-71.886 1358.8919,-72.7965 1358.9688,-73.7186 1358.8418,-74.6497 1358.517,-75.5873 1358.0007,-76.5287 1357.3001,-77.4713 1356.4229,-78.4127 1355.3773,-79.3503 1354.1716,-80.2814 1352.8147,-81.2035 1351.3156,-82.114 1349.6834,-83.0106 1347.9271,-83.8907 1346.0559,-84.7519 1344.0788,-85.5918 1342.0045,-86.4082 1339.8417,-87.1988 1337.5985,-87.9615 1335.283,-88.6941 1332.9027,-89.3946 1330.4646,-90.0612 1327.9755,-90.692 1325.4416,-91.2853 1322.8686,-91.8394 1320.2619,-92.3528 1317.6262,-92.8241 1314.9658,-93.2521 1312.2847,-93.6355 1309.5864,-93.9734 1306.874,-94.2647 1304.1502,-94.5087 1301.4176,-94.7047 1298.6784,-94.8521 1295.9346,-94.9507 1293.1881,-95 1290.4408,-95 1287.6943,-94.9507 1284.9505,-94.8521 1282.2112,-94.7047 1279.4787,-94.5087 1276.7549,-94.2647 1274.0425,-93.9734 1271.3442,-93.6355 1268.6631,-93.2521 1266.0027,-92.8241 1263.367,-92.3528 1260.7603,-91.8394 1258.1873,-91.2853 1255.6534,-90.692 1253.1643,-90.0612 1250.7262,-89.3946 1248.3459,-88.6941 1246.0303,-87.9615 1243.7872,-87.1988 1241.6244,-86.4082 1239.5501,-85.5918 1237.573,-84.7519 1235.7018,-83.8907 1233.9455,-83.0106 1232.3133,-82.114 1230.8142,-81.2035 1229.4573,-80.2814 1228.2516,-79.3503 1227.2059,-78.4127 1226.3288,-77.4713 1225.6282,-76.5287 1225.1119,-75.5873 1224.787,-74.6497 1224.6601,-73.7186 1224.737,-72.7965 1225.0227,-71.886 1225.5214,-70.9894 1226.2364,-70.1093 1227.17,-69.2481 1228.3236,-68.4082 1229.6973,-67.5918 1231.2902,-66.8012 1233.1004,-66.0385 1235.1246,-65.3059 1237.3585,-64.6054 1239.7965,-63.9388 1242.4321,-63.308 1245.2573,-62.7147 1248.2633,-62.1606 1251.4399,-61.6472 1254.7762,-61.1759 1258.2601,-60.7479 1261.8788,-60.3645 1265.6183,-60.0266 1269.4643,-59.7353 1273.4015,-59.4913 1277.4141,-59.2953 1281.4859,-59.1479 1285.6002,-59.0493 1289.7402,-59 1293.8887,-59 1298.0287,-59.0493"/>
<text text-anchor="middle" x="1291.8144" y="-74.5" font-family="Courier,monospace" font-weight="bold" font-size="10.00" fill="#000000">(1, &#39;D,2,2&#39;)</text>
</g>
<!-- (1, &#39;D,2,1&#39;)&#45;&gt;(1, &#39;D,2,2&#39;) -->
<g id="edge19" class="edge">
<title>(1, &#39;D,2,1&#39;)&#45;&gt;(1, &#39;D,2,2&#39;)</title>
<path fill="none" stroke="#000000" d="M1139.8492,-33.1512C1167.1932,-41.0411 1203.2132,-51.4345 1233.3216,-60.1222"/>
<polygon fill="#000000" stroke="#000000" points="1232.7062,-63.5873 1243.2846,-62.9969 1234.6469,-56.8617 1232.7062,-63.5873"/>
<text text-anchor="middle" x="1195.2373" y="-56" font-family="Courier,monospace" font-weight="bold" font-size="10.00" fill="#000000">1.0</text>
</g>
<!-- (2, &#39;X,&#45;1,&#45;1&#39;) -->
<g id="node15" class="node">
<title>(2, &#39;X,&#45;1,&#45;1&#39;)</title>
<polygon fill="none" stroke="#000000" points="1501.4474,-109.0493 1506.1319,-109.1479 1510.768,-109.2953 1515.3367,-109.4913 1519.8195,-109.7353 1524.1985,-110.0266 1528.4563,-110.3645 1532.5764,-110.7479 1536.5432,-111.1759 1540.3418,-111.6472 1543.9587,-112.1606 1547.3812,-112.7147 1550.598,-113.308 1553.5988,-113.9388 1556.3748,-114.6054 1558.9182,-115.3059 1561.223,-116.0385 1563.284,-116.8012 1565.0977,-117.5918 1566.6618,-118.4082 1567.9752,-119.2481 1569.0382,-120.1093 1569.8523,-120.9894 1570.4201,-121.886 1570.7454,-122.7965 1570.8329,-123.7186 1570.6884,-124.6497 1570.3185,-125.5873 1569.7307,-126.5287 1568.933,-127.4713 1567.9343,-128.4127 1566.7437,-129.3503 1565.3709,-130.2814 1563.826,-131.2035 1562.1191,-132.114 1560.2607,-133.0106 1558.261,-133.8907 1556.1305,-134.7519 1553.8794,-135.5918 1551.5177,-136.4082 1549.0551,-137.1988 1546.5011,-137.9615 1543.8647,-138.6941 1541.1544,-139.3946 1538.3785,-140.0612 1535.5444,-140.692 1532.6594,-141.2853 1529.7298,-141.8394 1526.7618,-142.3528 1523.7608,-142.8241 1520.7318,-143.2521 1517.6791,-143.6355 1514.6069,-143.9734 1511.5186,-144.2647 1508.4173,-144.5087 1505.306,-144.7047 1502.1872,-144.8521 1499.0632,-144.9507 1495.9361,-145 1492.8079,-145 1489.6808,-144.9507 1486.5568,-144.8521 1483.4379,-144.7047 1480.3266,-144.5087 1477.2254,-144.2647 1474.1371,-143.9734 1471.0648,-143.6355 1468.0122,-143.2521 1464.9832,-142.8241 1461.9822,-142.3528 1459.0142,-141.8394 1456.0846,-141.2853 1453.1996,-140.692 1450.3655,-140.0612 1447.5896,-139.3946 1444.8793,-138.6941 1442.2429,-137.9615 1439.6889,-137.1988 1437.2263,-136.4082 1434.8646,-135.5918 1432.6135,-134.7519 1430.483,-133.8907 1428.4833,-133.0106 1426.6248,-132.114 1424.918,-131.2035 1423.3731,-130.2814 1422.0003,-129.3503 1420.8097,-128.4127 1419.811,-127.4713 1419.0133,-126.5287 1418.4255,-125.5873 1418.0556,-124.6497 1417.9111,-123.7186 1417.9986,-122.7965 1418.3239,-121.886 1418.8917,-120.9894 1419.7058,-120.1093 1420.7688,-119.2481 1422.0822,-118.4082 1423.6463,-117.5918 1425.46,-116.8012 1427.521,-116.0385 1429.8258,-115.3059 1432.3692,-114.6054 1435.1452,-113.9388 1438.146,-113.308 1441.3627,-112.7147 1444.7853,-112.1606 1448.4021,-111.6472 1452.2008,-111.1759 1456.1676,-110.7479 1460.2877,-110.3645 1464.5455,-110.0266 1468.9245,-109.7353 1473.4073,-109.4913 1477.976,-109.2953 1482.6121,-109.1479 1487.2966,-109.0493 1492.0103,-109 1496.7337,-109 1501.4474,-109.0493"/>
<text text-anchor="middle" x="1494.372" y="-124.5" font-family="Courier,monospace" font-weight="bold" font-size="10.00" fill="#000000">(2, &#39;X,&#45;1,&#45;1&#39;)</text>
</g>
<!-- (1, &#39;D,2,2&#39;)&#45;&gt;(2, &#39;X,&#45;1,&#45;1&#39;) -->
<g id="edge20" class="edge">
<title>(1, &#39;D,2,2&#39;)&#45;&gt;(2, &#39;X,&#45;1,&#45;1&#39;)</title>
<path fill="none" stroke="#000000" d="M1337.0202,-88.1587C1363.9426,-94.8044 1398.5841,-103.3554 1428.5072,-110.7417"/>
<polygon fill="#000000" stroke="#000000" points="1427.9088,-114.199 1438.4562,-113.1975 1429.5864,-107.403 1427.9088,-114.199"/>
<text text-anchor="middle" x="1388.3916" y="-107" font-family="Courier,monospace" font-weight="bold" font-size="10.00" fill="#000000">1.0</text>
</g>
<!-- (1, &#39;E,2,0&#39;)&#45;&gt;(1, &#39;D,2,1&#39;) -->
<g id="edge21" class="edge">
<title>(1, &#39;E,2,0&#39;)&#45;&gt;(1, &#39;D,2,1&#39;)</title>
<path fill="none" stroke="#000000" d="M822.4856,-18.5784C879.2923,-19.0782 961.4282,-19.8008 1021.1824,-20.3265"/>
<polygon fill="#000000" stroke="#000000" points="1021.2885,-23.8275 1031.319,-20.4157 1021.3502,-16.8277 1021.2885,-23.8275"/>
<text text-anchor="middle" x="932.7373" y="-24" font-family="Courier,monospace" font-weight="bold" font-size="10.00" fill="#000000">1.0</text>
</g>
<!-- (1, &#39;E,2,1&#39;)&#45;&gt;(1, &#39;D,2,2&#39;) -->
<g id="edge22" class="edge">
<title>(1, &#39;E,2,1&#39;)&#45;&gt;(1, &#39;D,2,2&#39;)</title>
<path fill="none" stroke="#000000" d="M1163.7138,-77C1180.2762,-77 1198.1881,-77 1215.2198,-77"/>
<polygon fill="#000000" stroke="#000000" points="1215.6909,-80.5001 1225.6908,-77 1215.6908,-73.5001 1215.6909,-80.5001"/>
<text text-anchor="middle" x="1195.2373" y="-80" font-family="Courier,monospace" font-weight="bold" font-size="10.00" fill="#000000">1.0</text>
</g>
<!-- (1, &#39;E,2,2&#39;)&#45;&gt;(2, &#39;X,&#45;1,&#45;1&#39;) -->
<g id="edge23" class="edge">
<title>(1, &#39;E,2,2&#39;)&#45;&gt;(2, &#39;X,&#45;1,&#45;1&#39;)</title>
<path fill="none" stroke="#000000" d="M1337.5249,-176.5574C1368.5081,-166.7679 1409.5406,-153.8033 1441.8655,-143.5899"/>
<polygon fill="#000000" stroke="#000000" points="1443.1162,-146.8654 1451.597,-140.5152 1441.0072,-140.1906 1443.1162,-146.8654"/>
<text text-anchor="middle" x="1388.3916" y="-165" font-family="Courier,monospace" font-weight="bold" font-size="10.00" fill="#000000">1.0</text>
</g>
<!-- (2, &#39;X,&#45;1,&#45;1&#39;)&#45;&gt;(&#45;1, &#39;VITERBI_SINK&#39;) -->
<g id="edge24" class="edge">
<title>(2, &#39;X,&#45;1,&#45;1&#39;)&#45;&gt;(&#45;1, &#39;VITERBI_SINK&#39;)</title>
<path fill="none" stroke="#000000" d="M1569.3756,-127C1585.8284,-127 1603.6018,-127 1621.1825,-127"/>
<polygon fill="#000000" stroke="#000000" points="1621.5,-130.5001 1631.5,-127 1621.4999,-123.5001 1621.5,-130.5001"/>
<text text-anchor="middle" x="1600.3524" y="-130" font-family="Courier,monospace" font-weight="bold" font-size="10.00" fill="#000000">1.0</text>
</g>
</g>
</svg>
