<svg class="bob" font-family="arial" font-size="14" height="176" width="512" xmlns="http://www.w3.org/2000/svg">
<defs>
<marker id="triangle" markerHeight="8" markerWidth="8" orient="auto" refX="4" refY="2" viewBox="0 0 8 4">
<polygon class="fg_fill" points="0,0 0,4 8,2 0,0"/>
</marker>
<marker id="clear_triangle" markerHeight="10" markerWidth="10" orient="auto" refX="1" refY="7" viewBox="0 0 20 14">
<polygon class="bg_fill" points="2,2 2,12 18,7 2,2"/>
</marker>
<marker id="circle" markerHeight="5" markerWidth="5" orient="auto" refX="10" refY="10" viewBox="0 0 20 20">
<circle class="fg_fill" cx="10" cy="10" r="8"/>
</marker>
<marker id="square" markerHeight="5" markerWidth="5" orient="auto" refX="10" refY="10" viewBox="0 0 20 20">
<rect class="fg_fill" height="20" width="20" x="0" y="0"/>
</marker>
<marker id="open_circle" markerHeight="10" markerWidth="10" orient="auto" refX="10" refY="10" viewBox="0 0 20 20">
<circle class="bg_fill" cx="10" cy="10" r="4"/>
</marker>
<marker id="big_open_circle" markerHeight="20" markerWidth="20" orient="auto" refX="20" refY="20" viewBox="0 0 40 40">
<circle class="bg_fill" cx="20" cy="20" r="6"/>
</marker>
</defs>
<style type="text/css">

rect.backdrop {
    fill: white;
}
text{
    fill: black;
}

circle {
    fill: none;
    stroke: black;
    stroke-width: 2;
}

line {
    stroke: black;
    stroke-width: 2;
    stroke-opacity: 1;
    fill-opacity: 1;
    stroke-linecap: round;
    stroke-linejoin: miter;
}

path {
    fill: none;
    stroke: black;
    stroke-width: 2;
    stroke-opacity: 1;
    fill-opacity: 1;
    stroke-linecap: round;
    stroke-linejoin: miter;
}

line.dashed {
    stroke-dasharray: 5;
}

.fg_fill {
    fill: black;
}


.bg_fill {
    fill: white;
    stroke: black;
    stroke-width: 2;
}

tspan.head{
    fill: none;
    stroke: none;
}
    
</style>
<rect class="backdrop" height="176" width="512" x="0" y="0"/>
<g>
<line marker-end="url(#triangle)" x1="8" x2="4" y1="24" y2="24"/>
<line marker-end="url(#open_circle)" x1="8" x2="156" y1="24" y2="24"/>
<line marker-start="url(#open_circle)" x1="156" x2="156" y1="24" y2="48"/>
</g>
<g>
<line x1="12" x2="12" y1="32" y2="48"/>
</g>
<g>
<line x1="12" x2="60" y1="40" y2="40"/>
<line x1="60" x2="108" y1="40" y2="40"/>
<line x1="108" x2="156" y1="40" y2="40"/>
<line x1="156" x2="204" y1="40" y2="40"/>
<line x1="204" x2="252" y1="40" y2="40"/>
<line x1="252" x2="300" y1="40" y2="40"/>
<line x1="300" x2="348" y1="40" y2="40"/>
<line x1="348" x2="396" y1="40" y2="40"/>
<line x1="396" x2="444" y1="40" y2="40"/>
<line x1="444" x2="492" y1="40" y2="40"/>
</g>
<g>
<line x1="12" x2="12" y1="144" y2="160"/>
</g>
<g>
<line x1="12" x2="60" y1="152" y2="152"/>
<line x1="60" x2="108" y1="152" y2="152"/>
<line x1="108" x2="156" y1="152" y2="152"/>
<line x1="156" x2="204" y1="152" y2="152"/>
<line x1="204" x2="252" y1="152" y2="152"/>
<line x1="252" x2="300" y1="152" y2="152"/>
<line x1="300" x2="348" y1="152" y2="152"/>
<line x1="348" x2="396" y1="152" y2="152"/>
<line x1="396" x2="444" y1="152" y2="152"/>
<line x1="444" x2="492" y1="152" y2="152"/>
</g>
<g>
<line x1="60" x2="60" y1="32" y2="48"/>
</g>
<g>
<line x1="60" x2="60" y1="144" y2="160"/>
</g>
<g>
<line x1="108" x2="108" y1="32" y2="48"/>
</g>
<g>
<line x1="108" x2="108" y1="144" y2="160"/>
</g>
<g>
<line x1="156" x2="156" y1="144" y2="160"/>
</g>
<g>
<line x1="204" x2="204" y1="32" y2="48"/>
</g>
<g>
<line x1="204" x2="204" y1="144" y2="160"/>
</g>
<g>
<line x1="252" x2="252" y1="32" y2="48"/>
</g>
<g>
<line x1="252" x2="252" y1="144" y2="160"/>
</g>
<g>
<line x1="300" x2="300" y1="32" y2="48"/>
</g>
<g>
<line x1="300" x2="300" y1="144" y2="160"/>
</g>
<g>
<line x1="348" x2="348" y1="32" y2="48"/>
</g>
<g>
<line x1="396" x2="396" y1="32" y2="48"/>
</g>
<g>
<line x1="396" x2="396" y1="144" y2="160"/>
</g>
<g>
<line x1="444" x2="444" y1="32" y2="48"/>
</g>
<g>
<line x1="444" x2="444" y1="144" y2="160"/>
</g>
<g>
<line x1="492" x2="492" y1="32" y2="48"/>
</g>
<g>
<line x1="492" x2="492" y1="144" y2="160"/>
</g>
<g>
<text x="9" y="60">
-5
</text>
</g>
<g>
<text x="9" y="172">
-5
</text>
</g>
<g>
<text x="57" y="60">
-4
</text>
</g>
<g>
<text x="57" y="172">
-4
</text>
</g>
<g>
<text x="105" y="60">
-3
</text>
</g>
<g>
<text x="105" y="172">
-3
</text>
</g>
<g>
<text x="153" y="60">
-2
</text>
</g>
<g>
<text x="153" y="172">
-2
</text>
</g>
<g>
<text x="193" y="12">
RELATION: x &lt; -2
</text>
</g>
<g>
<text x="193" y="124">
RELATION: x &gt; 2
</text>
</g>
<g>
<text x="201" y="60">
-1
</text>
</g>
<g>
<text x="201" y="172">
-1
</text>
</g>
<g>
<text x="249" y="60">
0
</text>
</g>
<g>
<text x="249" y="172">
0
</text>
</g>
<g>
<text x="297" y="60">
1
</text>
</g>
<g>
<text x="297" y="172">
1
</text>
</g>
<g>
<text x="345" y="60">
2
</text>
</g>
<g>
<text x="345" y="172">
2
</text>
</g>
<g>
<text x="393" y="60">
3
</text>
</g>
<g>
<text x="393" y="172">
3
</text>
</g>
<g>
<text x="441" y="60">
4
</text>
</g>
<g>
<text x="441" y="172">
4
</text>
</g>
<g>
<text x="489" y="60">
5
</text>
</g>
<g>
<text x="489" y="172">
5
</text>
</g>
<g>
<line marker-start="url(#open_circle)" x1="348" x2="348" y1="136" y2="160"/>
<line marker-end="url(#triangle)" marker-start="url(#open_circle)" x1="348" x2="500" y1="136" y2="136"/>
</g>
</svg>
