<svg class="bob" font-family="arial" font-size="14" height="144" width="152" xmlns="http://www.w3.org/2000/svg">
<defs>
<marker id="triangle" markerHeight="8" markerWidth="8" orient="auto" refX="4" refY="2" viewBox="0 0 8 4">
<polygon class="fg_fill" points="0,0 0,4 8,2 0,0"/>
</marker>
<marker id="clear_triangle" markerHeight="10" markerWidth="10" orient="auto" refX="1" refY="7" viewBox="0 0 20 14">
<polygon class="bg_fill" points="2,2 2,12 18,7 2,2"/>
</marker>
<marker id="circle" markerHeight="5" markerWidth="5" orient="auto" refX="10" refY="10" viewBox="0 0 20 20">
<circle class="fg_fill" cx="10" cy="10" r="8"/>
</marker>
<marker id="square" markerHeight="5" markerWidth="5" orient="auto" refX="10" refY="10" viewBox="0 0 20 20">
<rect class="fg_fill" height="20" width="20" x="0" y="0"/>
</marker>
<marker id="open_circle" markerHeight="10" markerWidth="10" orient="auto" refX="10" refY="10" viewBox="0 0 20 20">
<circle class="bg_fill" cx="10" cy="10" r="4"/>
</marker>
<marker id="big_open_circle" markerHeight="20" markerWidth="20" orient="auto" refX="20" refY="20" viewBox="0 0 40 40">
<circle class="bg_fill" cx="20" cy="20" r="6"/>
</marker>
</defs>
<style type="text/css">

rect.backdrop {
    fill: white;
}
text{
    fill: black;
}

circle {
    fill: none;
    stroke: black;
    stroke-width: 2;
}

line {
    stroke: black;
    stroke-width: 2;
    stroke-opacity: 1;
    fill-opacity: 1;
    stroke-linecap: round;
    stroke-linejoin: miter;
}

path {
    fill: none;
    stroke: black;
    stroke-width: 2;
    stroke-opacity: 1;
    fill-opacity: 1;
    stroke-linecap: round;
    stroke-linejoin: miter;
}

line.dashed {
    stroke-dasharray: 5;
}

.fg_fill {
    fill: black;
}


.bg_fill {
    fill: white;
    stroke: black;
    stroke-width: 2;
}

tspan.head{
    fill: none;
    stroke: none;
}
    
</style>
<rect class="backdrop" height="144" width="152" x="0" y="0"/>
<g>
<line x1="20" x2="20" y1="16" y2="48"/>
</g>
<g>
<line x1="20" x2="20" y1="64" y2="116"/>
<path d="M 20 116 A 4 4 0 0 0 24 120"/>
</g>
<g>
<line x1="24" x2="128" y1="120" y2="120"/>
<path d="M 128 120 A 4 4 0 0 0 132 116"/>
</g>
<g>
<line x1="52" x2="52" y1="32" y2="48"/>
</g>
<g>
<line x1="52" x2="52" y1="64" y2="84"/>
<path d="M 52 84 A 4 4 0 0 0 56 88"/>
</g>
<g>
<line x1="56" x2="96" y1="88" y2="88"/>
<path d="M 96 88 A 4 4 0 0 0 100 84"/>
</g>
<g>
<line x1="100" x2="100" y1="16" y2="48"/>
</g>
<g>
<line x1="100" x2="100" y1="64" y2="84"/>
</g>
<g>
<line x1="132" x2="132" y1="32" y2="48"/>
</g>
<g>
<line x1="132" x2="132" y1="64" y2="116"/>
</g>
<g>
<text x="1" y="12">
first
</text>
</g>
<g>
<text x="9" y="60">
(a
</text>
</g>
<g>
<text x="33" y="60">
+
</text>
</g>
<g>
<text x="41" y="28">
last
</text>
</g>
<g>
<text x="49" y="60">
b)
</text>
</g>
<g>
<text x="57" y="108">
inner
</text>
</g>
<g>
<text x="57" y="140">
outer
</text>
</g>
<g>
<text x="73" y="60">
*
</text>
</g>
<g>
<text x="81" y="12">
first
</text>
</g>
<g>
<text x="89" y="60">
(c
</text>
</g>
<g>
<text x="113" y="60">
+
</text>
</g>
<g>
<text x="121" y="28">
last
</text>
</g>
<g>
<text x="129" y="60">
d)
</text>
</g>
</svg>
