<svg class="bob" font-family="arial" font-size="14" height="128" width="584" xmlns="http://www.w3.org/2000/svg">
<defs>
<marker id="triangle" markerHeight="8" markerWidth="8" orient="auto" refX="4" refY="2" viewBox="0 0 8 4">
<polygon class="fg_fill" points="0,0 0,4 8,2 0,0"/>
</marker>
<marker id="clear_triangle" markerHeight="10" markerWidth="10" orient="auto" refX="1" refY="7" viewBox="0 0 20 14">
<polygon class="bg_fill" points="2,2 2,12 18,7 2,2"/>
</marker>
<marker id="circle" markerHeight="5" markerWidth="5" orient="auto" refX="10" refY="10" viewBox="0 0 20 20">
<circle class="fg_fill" cx="10" cy="10" r="8"/>
</marker>
<marker id="square" markerHeight="5" markerWidth="5" orient="auto" refX="10" refY="10" viewBox="0 0 20 20">
<rect class="fg_fill" height="20" width="20" x="0" y="0"/>
</marker>
<marker id="open_circle" markerHeight="10" markerWidth="10" orient="auto" refX="10" refY="10" viewBox="0 0 20 20">
<circle class="bg_fill" cx="10" cy="10" r="4"/>
</marker>
<marker id="big_open_circle" markerHeight="20" markerWidth="20" orient="auto" refX="20" refY="20" viewBox="0 0 40 40">
<circle class="bg_fill" cx="20" cy="20" r="6"/>
</marker>
</defs>
<style type="text/css">

rect.backdrop {
    fill: white;
}
text{
    fill: black;
}

circle {
    fill: none;
    stroke: black;
    stroke-width: 2;
}

line {
    stroke: black;
    stroke-width: 2;
    stroke-opacity: 1;
    fill-opacity: 1;
    stroke-linecap: round;
    stroke-linejoin: miter;
}

path {
    fill: none;
    stroke: black;
    stroke-width: 2;
    stroke-opacity: 1;
    fill-opacity: 1;
    stroke-linecap: round;
    stroke-linejoin: miter;
}

line.dashed {
    stroke-dasharray: 5;
}

.fg_fill {
    fill: black;
}


.bg_fill {
    fill: white;
    stroke: black;
    stroke-width: 2;
}

tspan.head{
    fill: none;
    stroke: none;
}
    
</style>
<rect class="backdrop" height="128" width="584" x="0" y="0"/>
<g>
<line x1="0" x2="60" y1="72" y2="72"/>
<line x1="60" x2="60" y1="16" y2="72"/>
<line x1="60" x2="60" y1="72" y2="128"/>
<line x1="60" x2="92" y1="72" y2="72"/>
<line x1="92" x2="92" y1="32" y2="72"/>
<line marker-end="url(#triangle)" x1="92" x2="92" y1="72" y2="124"/>
<line x1="92" x2="120" y1="72" y2="72"/>
</g>
<g>
<line marker-end="url(#triangle)" x1="92" x2="92" y1="32" y2="20"/>
</g>
<g>
<line x1="152" x2="212" y1="72" y2="72"/>
<line x1="212" x2="212" y1="40" y2="72"/>
<line marker-end="url(#triangle)" x1="212" x2="268" y1="40" y2="40"/>
<line x1="212" x2="212" y1="72" y2="128"/>
<line x1="212" x2="272" y1="72" y2="72"/>
</g>
<g>
<line marker-end="url(#triangle)" x1="160" x2="156" y1="40" y2="40"/>
<line x1="160" x2="212" y1="40" y2="40"/>
<line x1="212" x2="212" y1="16" y2="40"/>
</g>
<g>
<line x1="312" x2="372" y1="72" y2="72"/>
<line x1="372" x2="372" y1="16" y2="72"/>
<line x1="372" x2="344" y1="72" y2="128"/>
<line x1="372" x2="372" y1="72" y2="128"/>
<line marker-end="url(#triangle)" x1="372" x2="398" y1="72" y2="20"/>
<line x1="372" x2="432" y1="72" y2="72"/>
</g>
<g>
<line x1="464" x2="524" y1="72" y2="72"/>
<line x1="524" x2="524" y1="16" y2="72"/>
<line marker-end="url(#triangle)" x1="524" x2="498" y1="72" y2="124"/>
<line x1="524" x2="524" y1="72" y2="128"/>
<line x1="524" x2="552" y1="72" y2="16"/>
<line x1="524" x2="584" y1="72" y2="72"/>
</g>
<g>
<text x="25" y="12">
0 denom
</text>
</g>
<g>
<text x="185" y="12">
0 num
</text>
</g>
<g>
<text x="361" y="12">
pos
</text>
</g>
<g>
<text x="513" y="12">
neg
</text>
</g>
</svg>
