<svg class="bob" font-family="arial" font-size="14" height="192" width="800" xmlns="http://www.w3.org/2000/svg">
<defs>
<marker id="triangle" markerHeight="8" markerWidth="8" orient="auto" refX="4" refY="2" viewBox="0 0 8 4">
<polygon class="fg_fill" points="0,0 0,4 8,2 0,0"/>
</marker>
<marker id="clear_triangle" markerHeight="10" markerWidth="10" orient="auto" refX="1" refY="7" viewBox="0 0 20 14">
<polygon class="bg_fill" points="2,2 2,12 18,7 2,2"/>
</marker>
<marker id="circle" markerHeight="5" markerWidth="5" orient="auto" refX="10" refY="10" viewBox="0 0 20 20">
<circle class="fg_fill" cx="10" cy="10" r="8"/>
</marker>
<marker id="square" markerHeight="5" markerWidth="5" orient="auto" refX="10" refY="10" viewBox="0 0 20 20">
<rect class="fg_fill" height="20" width="20" x="0" y="0"/>
</marker>
<marker id="open_circle" markerHeight="10" markerWidth="10" orient="auto" refX="10" refY="10" viewBox="0 0 20 20">
<circle class="bg_fill" cx="10" cy="10" r="4"/>
</marker>
<marker id="big_open_circle" markerHeight="20" markerWidth="20" orient="auto" refX="20" refY="20" viewBox="0 0 40 40">
<circle class="bg_fill" cx="20" cy="20" r="6"/>
</marker>
</defs>
<style type="text/css">

rect.backdrop {
    fill: white;
}
text{
    fill: black;
}

circle {
    fill: none;
    stroke: black;
    stroke-width: 2;
}

line {
    stroke: black;
    stroke-width: 2;
    stroke-opacity: 1;
    fill-opacity: 1;
    stroke-linecap: round;
    stroke-linejoin: miter;
}

path {
    fill: none;
    stroke: black;
    stroke-width: 2;
    stroke-opacity: 1;
    fill-opacity: 1;
    stroke-linecap: round;
    stroke-linejoin: miter;
}

line.dashed {
    stroke-dasharray: 5;
}

.fg_fill {
    fill: black;
}


.bg_fill {
    fill: white;
    stroke: black;
    stroke-width: 2;
}

tspan.head{
    fill: none;
    stroke: none;
}
    
</style>
<rect class="backdrop" height="192" width="800" x="0" y="0"/>
<g>
<line marker-end="url(#circle)" x1="84" x2="84" y1="140" y2="168"/>
<path d="M 88 136 A 4 4 0 0 0 84 140"/>
</g>
<g>
<line x1="88" x2="104" y1="136" y2="136"/>
<path d="M 104 136 A 8 8 0 0 0 110 132"/>
</g>
<g>
<line marker-end="url(#circle)" x1="124" x2="124" y1="76" y2="104"/>
<line marker-start="url(#circle)" x1="124" x2="110" y1="104" y2="132"/>
<line marker-start="url(#circle)" x1="124" x2="138" y1="104" y2="132"/>
<path d="M 128 72 A 4 4 0 0 0 124 76"/>
<path d="M 138 132 A 8 8 0 0 0 144 136"/>
</g>
<g>
<line x1="128" x2="184" y1="72" y2="72"/>
<path d="M 184 72 A 8 8 0 0 0 190 68"/>
</g>
<g>
<line x1="144" x2="160" y1="136" y2="136"/>
<path d="M 164 140 A 4 4 0 0 0 160 136"/>
</g>
<g>
<line marker-end="url(#circle)" x1="164" x2="164" y1="140" y2="168"/>
</g>
<g>
<line marker-start="url(#circle)" x1="204" x2="190" y1="40" y2="68"/>
<line marker-start="url(#circle)" x1="204" x2="218" y1="40" y2="68"/>
<path d="M 218 68 A 8 8 0 0 0 224 72"/>
</g>
<g>
<line x1="224" x2="280" y1="72" y2="72"/>
<path d="M 284 76 A 4 4 0 0 0 280 72"/>
</g>
<g>
<line marker-end="url(#circle)" x1="244" x2="244" y1="140" y2="168"/>
<path d="M 248 136 A 4 4 0 0 0 244 140"/>
</g>
<g>
<line x1="248" x2="264" y1="136" y2="136"/>
<path d="M 264 136 A 8 8 0 0 0 270 132"/>
</g>
<g>
<line marker-end="url(#circle)" x1="284" x2="284" y1="76" y2="104"/>
<line marker-start="url(#circle)" x1="284" x2="270" y1="104" y2="132"/>
<line marker-start="url(#circle)" x1="284" x2="298" y1="104" y2="132"/>
<path d="M 298 132 A 8 8 0 0 0 304 136"/>
</g>
<g>
<line x1="304" x2="320" y1="136" y2="136"/>
<path d="M 324 140 A 4 4 0 0 0 320 136"/>
</g>
<g>
<line marker-end="url(#circle)" x1="324" x2="324" y1="140" y2="168"/>
</g>
<g>
<line marker-start="url(#circle)" x1="580" x2="608" y1="72" y2="72"/>
<path d="M 614 76 A 8 8 0 0 0 608 72"/>
</g>
<g>
<line marker-start="url(#circle)" x1="580" x2="608" y1="136" y2="136"/>
<path d="M 608 136 A 8 8 0 0 0 614 132"/>
</g>
<g>
<line marker-end="url(#circle)" x1="614" x2="628" y1="76" y2="104"/>
<line marker-start="url(#circle)" x1="628" x2="614" y1="104" y2="132"/>
<line marker-end="url(#circle)" marker-start="url(#circle)" x1="628" x2="692" y1="104" y2="104"/>
<line marker-start="url(#circle)" x1="692" x2="706" y1="104" y2="132"/>
<line marker-end="url(#circle)" x1="706" x2="692" y1="76" y2="104"/>
<path d="M 706 132 A 8 8 0 0 0 712 136"/>
<path d="M 712 72 A 8 8 0 0 0 706 76"/>
</g>
<g>
<line marker-end="url(#circle)" x1="712" x2="748" y1="72" y2="72"/>
</g>
<g>
<line marker-end="url(#circle)" x1="712" x2="748" y1="136" y2="136"/>
</g>
<g>
<text x="9" y="108">
Ancestor B
</text>
</g>
<g>
<text x="57" y="188">
Entity1
</text>
</g>
<g>
<text x="137" y="188">
Entity2
</text>
</g>
<g>
<text x="177" y="12">
ROOTED
</text>
</g>
<g>
<text x="217" y="44">
Ancestor A
</text>
</g>
<g>
<text x="217" y="188">
Entity3
</text>
</g>
<g>
<text x="297" y="188">
Entity4
</text>
</g>
<g>
<text x="305" y="108">
Ancestor C
</text>
</g>
<g>
<text x="521" y="108">
Ancestor B
</text>
</g>
<g>
<text x="553" y="60">
Entity1
</text>
</g>
<g>
<text x="553" y="156">
Entity2
</text>
</g>
<g>
<text x="633" y="12">
UNROOTED
</text>
</g>
<g>
<text x="705" y="108">
Ancestor C
</text>
</g>
<g>
<text x="729" y="60">
Entity3
</text>
</g>
<g>
<text x="729" y="156">
Entity4
</text>
</g>
</svg>
