<svg class="bob" font-family="arial" font-size="14" height="112" width="104" xmlns="http://www.w3.org/2000/svg">
<defs>
<marker id="triangle" markerHeight="8" markerWidth="8" orient="auto" refX="4" refY="2" viewBox="0 0 8 4">
<polygon class="fg_fill" points="0,0 0,4 8,2 0,0"/>
</marker>
<marker id="clear_triangle" markerHeight="10" markerWidth="10" orient="auto" refX="1" refY="7" viewBox="0 0 20 14">
<polygon class="bg_fill" points="2,2 2,12 18,7 2,2"/>
</marker>
<marker id="circle" markerHeight="5" markerWidth="5" orient="auto" refX="10" refY="10" viewBox="0 0 20 20">
<circle class="fg_fill" cx="10" cy="10" r="8"/>
</marker>
<marker id="square" markerHeight="5" markerWidth="5" orient="auto" refX="10" refY="10" viewBox="0 0 20 20">
<rect class="fg_fill" height="20" width="20" x="0" y="0"/>
</marker>
<marker id="open_circle" markerHeight="10" markerWidth="10" orient="auto" refX="10" refY="10" viewBox="0 0 20 20">
<circle class="bg_fill" cx="10" cy="10" r="4"/>
</marker>
<marker id="big_open_circle" markerHeight="20" markerWidth="20" orient="auto" refX="20" refY="20" viewBox="0 0 40 40">
<circle class="bg_fill" cx="20" cy="20" r="6"/>
</marker>
</defs>
<style type="text/css">

rect.backdrop {
    fill: white;
}
text{
    fill: black;
}

circle {
    fill: none;
    stroke: black;
    stroke-width: 2;
}

line {
    stroke: black;
    stroke-width: 2;
    stroke-opacity: 1;
    fill-opacity: 1;
    stroke-linecap: round;
    stroke-linejoin: miter;
}

path {
    fill: none;
    stroke: black;
    stroke-width: 2;
    stroke-opacity: 1;
    fill-opacity: 1;
    stroke-linecap: round;
    stroke-linejoin: miter;
}

line.dashed {
    stroke-dasharray: 5;
}

.fg_fill {
    fill: black;
}


.bg_fill {
    fill: white;
    stroke: black;
    stroke-width: 2;
}

tspan.head{
    fill: none;
    stroke: none;
}
    
</style>
<rect class="backdrop" height="112" width="104" x="0" y="0"/>
<g>
<line x1="4" x2="4" y1="76" y2="100"/>
<path d="M 4 100 A 4 4 0 0 0 8 104"/>
<path d="M 8 72 A 4 4 0 0 0 4 76"/>
</g>
<g>
<line x1="8" x2="52" y1="72" y2="72"/>
<line x1="52" x2="52" y1="40" y2="72"/>
<line x1="52" x2="72" y1="40" y2="40"/>
<line x1="52" x2="88" y1="72" y2="72"/>
<path d="M 72 40 A 4 4 0 0 0 76 36"/>
<path d="M 92 76 A 4 4 0 0 0 88 72"/>
</g>
<g>
<line x1="8" x2="88" y1="104" y2="104"/>
<path d="M 88 104 A 4 4 0 0 0 92 100"/>
</g>
<g>
<line x1="28" x2="28" y1="12" y2="36"/>
<path d="M 28 36 A 4 4 0 0 0 32 40"/>
<path d="M 32 8 A 4 4 0 0 0 28 12"/>
</g>
<g>
<line x1="32" x2="72" y1="8" y2="8"/>
<path d="M 76 12 A 4 4 0 0 0 72 8"/>
</g>
<g>
<line x1="32" x2="52" y1="40" y2="40"/>
</g>
<g>
<line x1="76" x2="76" y1="12" y2="36"/>
</g>
<g>
<line x1="92" x2="92" y1="76" y2="100"/>
</g>
<g>
<text x="17" y="92">
Instance
</text>
</g>
<g>
<text x="41" y="28">
ENI
</text>
</g>
</svg>
