<svg class="bob" font-family="arial" font-size="14" height="304" width="632" xmlns="http://www.w3.org/2000/svg">
<defs>
<marker id="triangle" markerHeight="8" markerWidth="8" orient="auto" refX="4" refY="2" viewBox="0 0 8 4">
<polygon class="fg_fill" points="0,0 0,4 8,2 0,0"/>
</marker>
<marker id="clear_triangle" markerHeight="10" markerWidth="10" orient="auto" refX="1" refY="7" viewBox="0 0 20 14">
<polygon class="bg_fill" points="2,2 2,12 18,7 2,2"/>
</marker>
<marker id="circle" markerHeight="5" markerWidth="5" orient="auto" refX="10" refY="10" viewBox="0 0 20 20">
<circle class="fg_fill" cx="10" cy="10" r="8"/>
</marker>
<marker id="square" markerHeight="5" markerWidth="5" orient="auto" refX="10" refY="10" viewBox="0 0 20 20">
<rect class="fg_fill" height="20" width="20" x="0" y="0"/>
</marker>
<marker id="open_circle" markerHeight="10" markerWidth="10" orient="auto" refX="10" refY="10" viewBox="0 0 20 20">
<circle class="bg_fill" cx="10" cy="10" r="4"/>
</marker>
<marker id="big_open_circle" markerHeight="20" markerWidth="20" orient="auto" refX="20" refY="20" viewBox="0 0 40 40">
<circle class="bg_fill" cx="20" cy="20" r="6"/>
</marker>
</defs>
<style type="text/css">

rect.backdrop {
    fill: white;
}
text{
    fill: black;
}

circle {
    fill: none;
    stroke: black;
    stroke-width: 2;
}

line {
    stroke: black;
    stroke-width: 2;
    stroke-opacity: 1;
    fill-opacity: 1;
    stroke-linecap: round;
    stroke-linejoin: miter;
}

path {
    fill: none;
    stroke: black;
    stroke-width: 2;
    stroke-opacity: 1;
    fill-opacity: 1;
    stroke-linecap: round;
    stroke-linejoin: miter;
}

line.dashed {
    stroke-dasharray: 5;
}

.fg_fill {
    fill: black;
}


.bg_fill {
    fill: white;
    stroke: black;
    stroke-width: 2;
}

tspan.head{
    fill: none;
    stroke: none;
}
    
</style>
<rect class="backdrop" height="304" width="632" x="0" y="0"/>
<g>
<line marker-end="url(#circle)" x1="84" x2="84" y1="140" y2="216"/>
<path d="M 88 136 A 4 4 0 0 0 84 140"/>
</g>
<g>
<line x1="88" x2="104" y1="136" y2="136"/>
<path d="M 104 136 A 8 8 0 0 0 110 132"/>
</g>
<g>
<line marker-end="url(#circle)" x1="124" x2="124" y1="44" y2="104"/>
<line marker-start="url(#circle)" x1="124" x2="110" y1="104" y2="132"/>
<line marker-start="url(#circle)" x1="124" x2="138" y1="104" y2="132"/>
<path d="M 128 40 A 4 4 0 0 0 124 44"/>
<path d="M 138 132 A 8 8 0 0 0 144 136"/>
</g>
<g>
<line x1="128" x2="184" y1="40" y2="40"/>
<path d="M 184 40 A 8 8 0 0 0 190 36"/>
</g>
<g>
<line x1="144" x2="160" y1="136" y2="136"/>
<path d="M 164 140 A 4 4 0 0 0 160 136"/>
</g>
<g>
<line marker-end="url(#circle)" x1="164" x2="164" y1="140" y2="168"/>
</g>
<g>
<line marker-start="url(#circle)" x1="204" x2="190" y1="8" y2="36"/>
<line marker-start="url(#circle)" x1="204" x2="218" y1="8" y2="36"/>
<path d="M 218 36 A 8 8 0 0 0 224 40"/>
</g>
<g>
<line x1="224" x2="280" y1="40" y2="40"/>
<path d="M 284 44 A 4 4 0 0 0 280 40"/>
</g>
<g>
<line marker-end="url(#circle)" x1="244" x2="244" y1="108" y2="152"/>
<path d="M 248 104 A 4 4 0 0 0 244 108"/>
</g>
<g>
<line x1="248" x2="264" y1="104" y2="104"/>
<path d="M 264 104 A 8 8 0 0 0 270 100"/>
</g>
<g>
<line marker-end="url(#circle)" x1="284" x2="284" y1="44" y2="72"/>
<line marker-start="url(#circle)" x1="284" x2="270" y1="72" y2="100"/>
<line marker-start="url(#circle)" x1="284" x2="298" y1="72" y2="100"/>
<path d="M 298 100 A 8 8 0 0 0 304 104"/>
</g>
<g>
<line x1="304" x2="320" y1="104" y2="104"/>
<path d="M 324 108 A 4 4 0 0 0 320 104"/>
</g>
<g>
<line marker-end="url(#circle)" x1="324" x2="324" y1="108" y2="152"/>
</g>
<g>
<text x="1" y="268">
* vertical edge length denotes similarity to ancestor (closer = more similar)
</text>
</g>
<g>
<text x="1" y="284">
* ancestor features in brackets
</text>
</g>
<g>
<text x="1" y="300">
* ancestors not assumed to be a particular species (e.g. saber-toothed tiger)
</text>
</g>
<g>
<text x="9" y="108">
Ancestor B
</text>
</g>
<g>
<text x="9" y="124">
(4 legs,
</text>
</g>
<g>
<text x="9" y="140">
furry,
</text>
</g>
<g>
<text x="9" y="156">
sharp
</text>
</g>
<g>
<text x="9" y="172">
teeth)
</text>
</g>
<g>
<text x="57" y="236">
Leopard
</text>
</g>
<g>
<text x="145" y="188">
Tiger
</text>
</g>
<g>
<text x="209" y="172">
African
</text>
</g>
<g>
<text x="209" y="188">
Elephant
</text>
</g>
<g>
<text x="217" y="12">
Ancestor A
</text>
</g>
<g>
<text x="305" y="76">
Ancestor C
</text>
</g>
<g>
<text x="305" y="92">
(trunk, tusks, flat teeth, 4 legs)
</text>
</g>
<g>
<text x="305" y="172">
Indian
</text>
</g>
<g>
<text x="305" y="188">
Elephant
</text>
</g>
<g>
<text x="321" y="12">
(4 legs, teeth)
</text>
</g>
</svg>
