<svg class="bob" font-family="arial" font-size="14" height="128" width="528" xmlns="http://www.w3.org/2000/svg">
<defs>
<marker id="triangle" markerHeight="8" markerWidth="8" orient="auto" refX="4" refY="2" viewBox="0 0 8 4">
<polygon class="fg_fill" points="0,0 0,4 8,2 0,0"/>
</marker>
<marker id="clear_triangle" markerHeight="10" markerWidth="10" orient="auto" refX="1" refY="7" viewBox="0 0 20 14">
<polygon class="bg_fill" points="2,2 2,12 18,7 2,2"/>
</marker>
<marker id="circle" markerHeight="5" markerWidth="5" orient="auto" refX="10" refY="10" viewBox="0 0 20 20">
<circle class="fg_fill" cx="10" cy="10" r="8"/>
</marker>
<marker id="square" markerHeight="5" markerWidth="5" orient="auto" refX="10" refY="10" viewBox="0 0 20 20">
<rect class="fg_fill" height="20" width="20" x="0" y="0"/>
</marker>
<marker id="open_circle" markerHeight="10" markerWidth="10" orient="auto" refX="10" refY="10" viewBox="0 0 20 20">
<circle class="bg_fill" cx="10" cy="10" r="4"/>
</marker>
<marker id="big_open_circle" markerHeight="20" markerWidth="20" orient="auto" refX="20" refY="20" viewBox="0 0 40 40">
<circle class="bg_fill" cx="20" cy="20" r="6"/>
</marker>
</defs>
<style type="text/css">

rect.backdrop {
    fill: white;
}
text{
    fill: black;
}

circle {
    fill: none;
    stroke: black;
    stroke-width: 2;
}

line {
    stroke: black;
    stroke-width: 2;
    stroke-opacity: 1;
    fill-opacity: 1;
    stroke-linecap: round;
    stroke-linejoin: miter;
}

path {
    fill: none;
    stroke: black;
    stroke-width: 2;
    stroke-opacity: 1;
    fill-opacity: 1;
    stroke-linecap: round;
    stroke-linejoin: miter;
}

line.dashed {
    stroke-dasharray: 5;
}

.fg_fill {
    fill: black;
}


.bg_fill {
    fill: white;
    stroke: black;
    stroke-width: 2;
}

tspan.head{
    fill: none;
    stroke: none;
}
    
</style>
<rect class="backdrop" height="128" width="528" x="0" y="0"/>
<g>
<line marker-end="url(#circle)" marker-start="url(#circle)" x1="36" x2="12" y1="56" y2="104"/>
<line marker-end="url(#circle)" marker-start="url(#circle)" x1="36" x2="60" y1="56" y2="104"/>
<line marker-end="url(#circle)" marker-start="url(#circle)" x1="60" x2="36" y1="8" y2="56"/>
<line marker-end="url(#circle)" marker-start="url(#circle)" x1="60" x2="108" y1="8" y2="104"/>
</g>
<g>
<line marker-end="url(#circle)" marker-start="url(#circle)" x1="236" x2="212" y1="56" y2="104"/>
<line marker-end="url(#circle)" marker-start="url(#circle)" x1="236" x2="260" y1="56" y2="104"/>
<line marker-end="url(#circle)" marker-start="url(#circle)" x1="260" x2="236" y1="8" y2="56"/>
<line marker-end="url(#circle)" marker-start="url(#circle)" x1="260" x2="284" y1="8" y2="56"/>
<line marker-end="url(#circle)" marker-start="url(#circle)" x1="284" x2="308" y1="56" y2="104"/>
</g>
<g>
<line marker-end="url(#circle)" marker-start="url(#circle)" x1="436" x2="412" y1="56" y2="104"/>
<line marker-end="url(#circle)" marker-start="url(#circle)" x1="436" x2="460" y1="56" y2="104"/>
<line marker-end="url(#circle)" marker-start="url(#circle)" x1="460" x2="436" y1="8" y2="56"/>
<line marker-end="url(#circle)" marker-start="url(#circle)" x1="460" x2="508" y1="8" y2="104"/>
</g>
<g>
<text x="1" y="124">
Cat
</text>
</g>
<g>
<text x="9" y="76">
1
</text>
</g>
<g>
<text x="33" y="28">
1
</text>
</g>
<g>
<text x="49" y="124">
Lion
</text>
</g>
<g>
<text x="57" y="76">
1
</text>
</g>
<g>
<text x="97" y="60">
2
</text>
</g>
<g>
<text x="97" y="124">
Bear
</text>
</g>
<g>
<text x="201" y="124">
Cat
</text>
</g>
<g>
<text x="209" y="76">
1
</text>
</g>
<g>
<text x="233" y="28">
1
</text>
</g>
<g>
<text x="249" y="124">
Lion
</text>
</g>
<g>
<text x="257" y="76">
1
</text>
</g>
<g>
<text x="281" y="28">
1
</text>
</g>
<g>
<text x="297" y="124">
Bear
</text>
</g>
<g>
<text x="305" y="76">
1
</text>
</g>
<g>
<text x="401" y="124">
Cat
</text>
</g>
<g>
<text x="409" y="76">
1
</text>
</g>
<g>
<text x="417" y="28">
0.5
</text>
</g>
<g>
<text x="449" y="124">
Lion
</text>
</g>
<g>
<text x="457" y="76">
1
</text>
</g>
<g>
<text x="497" y="60">
1.5
</text>
</g>
<g>
<text x="497" y="124">
Bear
</text>
</g>
</svg>
