<?xml version="1.0" encoding="UTF-8" standalone="no"?>
<!DOCTYPE svg PUBLIC "-//W3C//DTD SVG 1.1//EN"
 "http://www.w3.org/Graphics/SVG/1.1/DTD/svg11.dtd">
<!-- Generated by graphviz version 2.40.1 (0)
 -->
<!-- Title: G Pages: 1 -->
<svg width="1931pt" height="657pt"
 viewBox="0.00 0.00 1930.71 657.16" xmlns="http://www.w3.org/2000/svg" xmlns:xlink="http://www.w3.org/1999/xlink">
<g id="graph0" class="graph" transform="scale(1 1) rotate(0) translate(4 653.1639)">
<title>G</title>
<polygon fill="#ffffff" stroke="transparent" points="-4,4 -4,-653.1639 1926.708,-653.1639 1926.708,4 -4,4"/>
<!-- STATE_A -->
<g id="node1" class="node">
<title>STATE_A</title>
<polygon fill="none" stroke="#000000" points="342.4168,-375.2133 344.1928,-375.3118 345.9505,-375.4593 347.6827,-375.6553 349.3823,-375.8992 351.0425,-376.1906 352.6568,-376.5284 354.2188,-376.9118 355.7228,-377.3398 357.163,-377.8111 358.5343,-378.3246 359.8319,-378.8787 361.0514,-379.4719 362.1891,-380.1027 363.2416,-380.7693 364.2059,-381.4698 365.0797,-382.2025 365.8611,-382.9651 366.5488,-383.7557 367.1418,-384.5721 367.6397,-385.4121 368.0428,-386.2733 368.3514,-387.1533 368.5667,-388.0499 368.69,-388.9605 368.7232,-389.8825 368.6684,-390.8136 368.5282,-391.7512 368.3053,-392.6926 368.0029,-393.6353 367.6242,-394.5767 367.1728,-395.5142 366.6524,-396.4453 366.0666,-397.3674 365.4195,-398.2779 364.7149,-399.1745 363.9568,-400.0546 363.149,-400.9158 362.2955,-401.7557 361.4001,-402.5721 360.4665,-403.3627 359.4982,-404.1254 358.4986,-404.858 357.4711,-405.5585 356.4186,-406.2251 355.3441,-406.8559 354.2503,-407.4492 353.1396,-408.0033 352.0143,-408.5167 350.8765,-408.988 349.7281,-409.416 348.5708,-409.7994 347.406,-410.1373 346.2351,-410.4286 345.0593,-410.6726 343.8797,-410.8686 342.6972,-411.016 341.5128,-411.1146 340.3272,-411.1639 339.1412,-411.1639 337.9556,-411.1146 336.7712,-411.016 335.5887,-410.8686 334.4091,-410.6726 333.2334,-410.4286 332.0625,-410.1373 330.8977,-409.7994 329.7403,-409.416 328.5919,-408.988 327.4541,-408.5167 326.3288,-408.0033 325.2182,-407.4492 324.1243,-406.8559 323.0498,-406.2251 321.9974,-405.5585 320.9698,-404.858 319.9703,-404.1254 319.002,-403.3627 318.0683,-402.5721 317.1729,-401.7557 316.3194,-400.9158 315.5117,-400.0546 314.7535,-399.1745 314.0489,-398.2779 313.4018,-397.3674 312.8161,-396.4453 312.2956,-395.5142 311.8442,-394.5767 311.4656,-393.6353 311.1631,-392.6926 310.9403,-391.7512 310.8,-390.8136 310.7453,-389.8825 310.7784,-388.9605 310.9018,-388.0499 311.117,-387.1533 311.4257,-386.2733 311.8287,-385.4121 312.3267,-384.5721 312.9197,-383.7557 313.6073,-382.9651 314.3887,-382.2025 315.2625,-381.4698 316.2268,-380.7693 317.2793,-380.1027 318.417,-379.4719 319.6366,-378.8787 320.9342,-378.3246 322.3055,-377.8111 323.7457,-377.3398 325.2496,-376.9118 326.8117,-376.5284 328.426,-376.1906 330.0862,-375.8992 331.7858,-375.6553 333.5179,-375.4593 335.2756,-375.3118 337.0517,-375.2133 338.8388,-375.1639 340.6296,-375.1639 342.4168,-375.2133"/>
<text text-anchor="middle" x="339.7342" y="-390.6639" font-family="Courier,monospace" font-weight="bold" font-size="10.00" fill="#000000">A</text>
</g>
<!-- STATE_B -->
<g id="node2" class="node">
<title>STATE_B</title>
<polygon fill="none" stroke="#000000" points="641.1602,-190.2133 642.9363,-190.3118 644.694,-190.4593 646.4261,-190.6553 648.1257,-190.8992 649.7859,-191.1906 651.4002,-191.5284 652.9623,-191.9118 654.4662,-192.3398 655.9064,-192.8111 657.2777,-193.3246 658.5753,-193.8787 659.7949,-194.4719 660.9326,-195.1027 661.9851,-195.7693 662.9494,-196.4698 663.8232,-197.2025 664.6046,-197.9651 665.2922,-198.7557 665.8852,-199.5721 666.3832,-200.4121 666.7862,-201.2733 667.0949,-202.1533 667.3101,-203.0499 667.4334,-203.9605 667.4666,-204.8825 667.4118,-205.8136 667.2716,-206.7512 667.0487,-207.6926 666.7463,-208.6353 666.3677,-209.5767 665.9163,-210.5142 665.3958,-211.4453 664.8101,-212.3674 664.1629,-213.2779 663.4583,-214.1745 662.7002,-215.0546 661.8925,-215.9158 661.039,-216.7557 660.1436,-217.5721 659.2099,-218.3627 658.2416,-219.1254 657.242,-219.858 656.2145,-220.5585 655.162,-221.2251 654.0876,-221.8559 652.9937,-222.4492 651.883,-223.0033 650.7578,-223.5167 649.62,-223.988 648.4716,-224.416 647.3142,-224.7994 646.1494,-225.1373 644.9785,-225.4286 643.8027,-225.6726 642.6231,-225.8686 641.4407,-226.016 640.2562,-226.1146 639.0707,-226.1639 637.8847,-226.1639 636.6991,-226.1146 635.5146,-226.016 634.3322,-225.8686 633.1526,-225.6726 631.9768,-225.4286 630.8059,-225.1373 629.6411,-224.7994 628.4838,-224.416 627.3353,-223.988 626.1976,-223.5167 625.0723,-223.0033 623.9616,-222.4492 622.8678,-221.8559 621.7933,-221.2251 620.7408,-220.5585 619.7133,-219.858 618.7137,-219.1254 617.7454,-218.3627 616.8118,-217.5721 615.9164,-216.7557 615.0629,-215.9158 614.2551,-215.0546 613.497,-214.1745 612.7924,-213.2779 612.1452,-212.3674 611.5595,-211.4453 611.0391,-210.5142 610.5877,-209.5767 610.209,-208.6353 609.9066,-207.6926 609.6837,-206.7512 609.5435,-205.8136 609.4887,-204.8825 609.5219,-203.9605 609.6452,-203.0499 609.8605,-202.1533 610.1691,-201.2733 610.5722,-200.4121 611.0701,-199.5721 611.6631,-198.7557 612.3507,-197.9651 613.1321,-197.2025 614.006,-196.4698 614.9703,-195.7693 616.0227,-195.1027 617.1604,-194.4719 618.38,-193.8787 619.6776,-193.3246 621.0489,-192.8111 622.4891,-192.3398 623.993,-191.9118 625.5551,-191.5284 627.1694,-191.1906 628.8296,-190.8992 630.5292,-190.6553 632.2614,-190.4593 634.0191,-190.3118 635.7951,-190.2133 637.5823,-190.1639 639.3731,-190.1639 641.1602,-190.2133"/>
<text text-anchor="middle" x="638.4777" y="-205.6639" font-family="Courier,monospace" font-weight="bold" font-size="10.00" fill="#000000">B</text>
</g>
<!-- STATE_A&#45;&gt;STATE_B -->
<g id="edge1" class="edge">
<title>STATE_A&#45;&gt;STATE_B</title>
<path fill="none" stroke="#000000" d="M358.3834,-378.2427C375.489,-364.811 401.7358,-344.8338 425.7342,-329.1639 489.1074,-287.784 567.2877,-245.4077 608.9881,-223.4551"/>
<polygon fill="#000000" stroke="#000000" points="610.8131,-226.4502 618.0445,-218.7071 607.5627,-220.2506 610.8131,-226.4502"/>
<text text-anchor="middle" x="508.7342" y="-332.1639" font-family="Courier,monospace" font-weight="bold" font-size="10.00" fill="#000000">0.5939947837076764</text>
</g>
<!-- STATE_E -->
<g id="node5" class="node">
<title>STATE_E</title>
<polygon fill="none" stroke="#000000" points="1602.4036,-497.2133 1604.1797,-497.3118 1605.9374,-497.4593 1607.6696,-497.6553 1609.3691,-497.8992 1611.0294,-498.1906 1612.6436,-498.5284 1614.2057,-498.9118 1615.7097,-499.3398 1617.1499,-499.8111 1618.5211,-500.3246 1619.8187,-500.8787 1621.0383,-501.4719 1622.176,-502.1027 1623.2285,-502.7693 1624.1928,-503.4698 1625.0666,-504.2025 1625.848,-504.9651 1626.5357,-505.7557 1627.1287,-506.5721 1627.6266,-507.4121 1628.0296,-508.2733 1628.3383,-509.1533 1628.5536,-510.0499 1628.6769,-510.9605 1628.7101,-511.8825 1628.6553,-512.8136 1628.5151,-513.7512 1628.2922,-514.6926 1627.9898,-515.6353 1627.6111,-516.5767 1627.1597,-517.5142 1626.6393,-518.4453 1626.0535,-519.3674 1625.4064,-520.2779 1624.7018,-521.1745 1623.9436,-522.0546 1623.1359,-522.9158 1622.2824,-523.7557 1621.387,-524.5721 1620.4534,-525.3627 1619.485,-526.1254 1618.4855,-526.858 1617.4579,-527.5585 1616.4055,-528.2251 1615.331,-528.8559 1614.2372,-529.4492 1613.1265,-530.0033 1612.0012,-530.5167 1610.8634,-530.988 1609.715,-531.416 1608.5577,-531.7994 1607.3929,-532.1373 1606.222,-532.4286 1605.0462,-532.6726 1603.8666,-532.8686 1602.6841,-533.016 1601.4997,-533.1146 1600.3141,-533.1639 1599.1281,-533.1639 1597.9425,-533.1146 1596.7581,-533.016 1595.5756,-532.8686 1594.396,-532.6726 1593.2203,-532.4286 1592.0494,-532.1373 1590.8846,-531.7994 1589.7272,-531.416 1588.5788,-530.988 1587.441,-530.5167 1586.3157,-530.0033 1585.205,-529.4492 1584.1112,-528.8559 1583.0367,-528.2251 1581.9843,-527.5585 1580.9567,-526.858 1579.9572,-526.1254 1578.9889,-525.3627 1578.0552,-524.5721 1577.1598,-523.7557 1576.3063,-522.9158 1575.4986,-522.0546 1574.7404,-521.1745 1574.0358,-520.2779 1573.3887,-519.3674 1572.803,-518.4453 1572.2825,-517.5142 1571.8311,-516.5767 1571.4524,-515.6353 1571.15,-514.6926 1570.9272,-513.7512 1570.7869,-512.8136 1570.7321,-511.8825 1570.7653,-510.9605 1570.8886,-510.0499 1571.1039,-509.1533 1571.4126,-508.2733 1571.8156,-507.4121 1572.3136,-506.5721 1572.9066,-505.7557 1573.5942,-504.9651 1574.3756,-504.2025 1575.2494,-503.4698 1576.2137,-502.7693 1577.2662,-502.1027 1578.4039,-501.4719 1579.6235,-500.8787 1580.9211,-500.3246 1582.2923,-499.8111 1583.7326,-499.3398 1585.2365,-498.9118 1586.7986,-498.5284 1588.4129,-498.1906 1590.0731,-497.8992 1591.7727,-497.6553 1593.5048,-497.4593 1595.2625,-497.3118 1597.0386,-497.2133 1598.8257,-497.1639 1600.6165,-497.1639 1602.4036,-497.2133"/>
<text text-anchor="middle" x="1599.7211" y="-512.6639" font-family="Courier,monospace" font-weight="bold" font-size="10.00" fill="#000000">E</text>
</g>
<!-- STATE_A&#45;&gt;STATE_E -->
<g id="edge2" class="edge">
<title>STATE_A&#45;&gt;STATE_E</title>
<path fill="none" stroke="#000000" d="M356.8117,-406.3047C373.4614,-418.4095 399.97,-435.8594 425.7342,-445.1639 515.6657,-477.6418 542.8614,-477.1639 638.4777,-477.1639 638.4777,-477.1639 638.4777,-477.1639 1078.7211,-477.1639 1270.7953,-477.1639 1319.2121,-480.9635 1510.2211,-501.1639 1526.8996,-502.9278 1545.2134,-505.6515 1560.9058,-508.2293"/>
<polygon fill="#000000" stroke="#000000" points="1560.3543,-511.6856 1570.796,-509.8906 1561.514,-504.7823 1560.3543,-511.6856"/>
<text text-anchor="middle" x="917.7211" y="-480.1639" font-family="Courier,monospace" font-weight="bold" font-size="10.00" fill="#000000">0.11702268122235741</text>
</g>
<!-- STATE_F -->
<g id="node6" class="node">
<title>STATE_F</title>
<polygon fill="none" stroke="#000000" points="1249.9036,-359.2133 1251.6797,-359.3118 1253.4374,-359.4593 1255.1696,-359.6553 1256.8691,-359.8992 1258.5294,-360.1906 1260.1436,-360.5284 1261.7057,-360.9118 1263.2097,-361.3398 1264.6499,-361.8111 1266.0211,-362.3246 1267.3187,-362.8787 1268.5383,-363.4719 1269.676,-364.1027 1270.7285,-364.7693 1271.6928,-365.4698 1272.5666,-366.2025 1273.348,-366.9651 1274.0357,-367.7557 1274.6287,-368.5721 1275.1266,-369.4121 1275.5296,-370.2733 1275.8383,-371.1533 1276.0536,-372.0499 1276.1769,-372.9605 1276.2101,-373.8825 1276.1553,-374.8136 1276.0151,-375.7512 1275.7922,-376.6926 1275.4898,-377.6353 1275.1111,-378.5767 1274.6597,-379.5142 1274.1393,-380.4453 1273.5535,-381.3674 1272.9064,-382.2779 1272.2018,-383.1745 1271.4436,-384.0546 1270.6359,-384.9158 1269.7824,-385.7557 1268.887,-386.5721 1267.9534,-387.3627 1266.985,-388.1254 1265.9855,-388.858 1264.9579,-389.5585 1263.9055,-390.2251 1262.831,-390.8559 1261.7372,-391.4492 1260.6265,-392.0033 1259.5012,-392.5167 1258.3634,-392.988 1257.215,-393.416 1256.0577,-393.7994 1254.8929,-394.1373 1253.722,-394.4286 1252.5462,-394.6726 1251.3666,-394.8686 1250.1841,-395.016 1248.9997,-395.1146 1247.8141,-395.1639 1246.6281,-395.1639 1245.4425,-395.1146 1244.2581,-395.016 1243.0756,-394.8686 1241.896,-394.6726 1240.7203,-394.4286 1239.5494,-394.1373 1238.3846,-393.7994 1237.2272,-393.416 1236.0788,-392.988 1234.941,-392.5167 1233.8157,-392.0033 1232.705,-391.4492 1231.6112,-390.8559 1230.5367,-390.2251 1229.4843,-389.5585 1228.4567,-388.858 1227.4572,-388.1254 1226.4889,-387.3627 1225.5552,-386.5721 1224.6598,-385.7557 1223.8063,-384.9158 1222.9986,-384.0546 1222.2404,-383.1745 1221.5358,-382.2779 1220.8887,-381.3674 1220.303,-380.4453 1219.7825,-379.5142 1219.3311,-378.5767 1218.9524,-377.6353 1218.65,-376.6926 1218.4272,-375.7512 1218.2869,-374.8136 1218.2321,-373.8825 1218.2653,-372.9605 1218.3886,-372.0499 1218.6039,-371.1533 1218.9126,-370.2733 1219.3156,-369.4121 1219.8136,-368.5721 1220.4066,-367.7557 1221.0942,-366.9651 1221.8756,-366.2025 1222.7494,-365.4698 1223.7137,-364.7693 1224.7662,-364.1027 1225.9039,-363.4719 1227.1235,-362.8787 1228.4211,-362.3246 1229.7923,-361.8111 1231.2326,-361.3398 1232.7365,-360.9118 1234.2986,-360.5284 1235.9129,-360.1906 1237.5731,-359.8992 1239.2727,-359.6553 1241.0048,-359.4593 1242.7625,-359.3118 1244.5386,-359.2133 1246.3257,-359.1639 1248.1165,-359.1639 1249.9036,-359.2133"/>
<text text-anchor="middle" x="1247.2211" y="-374.6639" font-family="Courier,monospace" font-weight="bold" font-size="10.00" fill="#000000">F</text>
</g>
<!-- STATE_A&#45;&gt;STATE_F -->
<g id="edge3" class="edge">
<title>STATE_A&#45;&gt;STATE_F</title>
<path fill="none" stroke="#000000" d="M368.3923,-392.6586C501.0846,-390.3191 1055.795,-380.539 1208.2834,-377.8504"/>
<polygon fill="#000000" stroke="#000000" points="1208.6194,-381.3451 1218.5561,-377.6693 1208.4959,-374.3462 1208.6194,-381.3451"/>
<text text-anchor="middle" x="756.7211" y="-389.1639" font-family="Courier,monospace" font-weight="bold" font-size="10.00" fill="#000000">0.2889825350699662</text>
</g>
<!-- SYMBOL_x -->
<g id="node8" class="node">
<title>SYMBOL_x</title>
<polygon fill="none" stroke="#000000" stroke-dasharray="5,2" points="1896.6471,-281.2133 1898.4231,-281.3118 1900.1808,-281.4593 1901.913,-281.6553 1903.6126,-281.8992 1905.2728,-282.1906 1906.8871,-282.5284 1908.4492,-282.9118 1909.9531,-283.3398 1911.3933,-283.8111 1912.7646,-284.3246 1914.0622,-284.8787 1915.2818,-285.4719 1916.4195,-286.1027 1917.4719,-286.7693 1918.4363,-287.4698 1919.3101,-288.2025 1920.0915,-288.9651 1920.7791,-289.7557 1921.3721,-290.5721 1921.8701,-291.4121 1922.2731,-292.2733 1922.5817,-293.1533 1922.797,-294.0499 1922.9203,-294.9605 1922.9535,-295.8825 1922.8987,-296.8136 1922.7585,-297.7512 1922.5356,-298.6926 1922.2332,-299.6353 1921.8545,-300.5767 1921.4032,-301.5142 1920.8827,-302.4453 1920.297,-303.3674 1919.6498,-304.2779 1918.9452,-305.1745 1918.1871,-306.0546 1917.3793,-306.9158 1916.5259,-307.7557 1915.6305,-308.5721 1914.6968,-309.3627 1913.7285,-310.1254 1912.7289,-310.858 1911.7014,-311.5585 1910.6489,-312.2251 1909.5744,-312.8559 1908.4806,-313.4492 1907.3699,-314.0033 1906.2447,-314.5167 1905.1069,-314.988 1903.9585,-315.416 1902.8011,-315.7994 1901.6363,-316.1373 1900.4654,-316.4286 1899.2896,-316.6726 1898.11,-316.8686 1896.9276,-317.016 1895.7431,-317.1146 1894.5575,-317.1639 1893.3716,-317.1639 1892.186,-317.1146 1891.0015,-317.016 1889.8191,-316.8686 1888.6395,-316.6726 1887.4637,-316.4286 1886.2928,-316.1373 1885.128,-315.7994 1883.9706,-315.416 1882.8222,-314.988 1881.6844,-314.5167 1880.5592,-314.0033 1879.4485,-313.4492 1878.3547,-312.8559 1877.2802,-312.2251 1876.2277,-311.5585 1875.2002,-310.858 1874.2006,-310.1254 1873.2323,-309.3627 1872.2986,-308.5721 1871.4032,-307.7557 1870.5498,-306.9158 1869.742,-306.0546 1868.9839,-305.1745 1868.2793,-304.2779 1867.6321,-303.3674 1867.0464,-302.4453 1866.5259,-301.5142 1866.0746,-300.5767 1865.6959,-299.6353 1865.3935,-298.6926 1865.1706,-297.7512 1865.0304,-296.8136 1864.9756,-295.8825 1865.0088,-294.9605 1865.1321,-294.0499 1865.3474,-293.1533 1865.656,-292.2733 1866.059,-291.4121 1866.557,-290.5721 1867.15,-289.7557 1867.8376,-288.9651 1868.619,-288.2025 1869.4928,-287.4698 1870.4572,-286.7693 1871.5096,-286.1027 1872.6473,-285.4719 1873.8669,-284.8787 1875.1645,-284.3246 1876.5358,-283.8111 1877.976,-283.3398 1879.4799,-282.9118 1881.042,-282.5284 1882.6563,-282.1906 1884.3165,-281.8992 1886.0161,-281.6553 1887.7483,-281.4593 1889.506,-281.3118 1891.282,-281.2133 1893.0691,-281.1639 1894.86,-281.1639 1896.6471,-281.2133"/>
<text text-anchor="middle" x="1893.9645" y="-296.6639" font-family="Courier,monospace" font-weight="bold" font-size="10.00" fill="#000000">x</text>
</g>
<!-- STATE_A&#45;&gt;SYMBOL_x -->
<g id="edge14" class="edge">
<title>STATE_A&#45;&gt;SYMBOL_x</title>
<path fill="none" stroke="#000000" stroke-dasharray="5,2" d="M366.3795,-397.4605C383.3232,-399.972 405.7553,-402.8914 425.7342,-404.1639 825.1413,-429.6038 926.9604,-431.8054 1326.2211,-404.1639 1480.6617,-393.4717 1518.1671,-379.417 1671.2211,-356.1639 1749.5987,-344.2562 1772.7913,-354.4595 1847.2211,-327.1639 1854.0237,-324.6692 1860.94,-321.1608 1867.2931,-317.4687"/>
<polygon fill="#000000" stroke="#000000" points="1869.4456,-320.2532 1876.1192,-312.0244 1865.7706,-314.2955 1869.4456,-320.2532"/>
<text text-anchor="middle" x="1078.7211" y="-424.1639" font-family="Courier,monospace" font-weight="bold" font-size="10.00" fill="#000000">0.6307607970866583</text>
</g>
<!-- SYMBOL_y -->
<g id="node9" class="node">
<title>SYMBOL_y</title>
<polygon fill="none" stroke="#000000" stroke-dasharray="5,2" points="1896.6471,-101.2133 1898.4231,-101.3118 1900.1808,-101.4593 1901.913,-101.6553 1903.6126,-101.8992 1905.2728,-102.1906 1906.8871,-102.5284 1908.4492,-102.9118 1909.9531,-103.3398 1911.3933,-103.8111 1912.7646,-104.3246 1914.0622,-104.8787 1915.2818,-105.4719 1916.4195,-106.1027 1917.4719,-106.7693 1918.4363,-107.4698 1919.3101,-108.2025 1920.0915,-108.9651 1920.7791,-109.7557 1921.3721,-110.5721 1921.8701,-111.4121 1922.2731,-112.2733 1922.5817,-113.1533 1922.797,-114.0499 1922.9203,-114.9605 1922.9535,-115.8825 1922.8987,-116.8136 1922.7585,-117.7512 1922.5356,-118.6926 1922.2332,-119.6353 1921.8545,-120.5767 1921.4032,-121.5142 1920.8827,-122.4453 1920.297,-123.3674 1919.6498,-124.2779 1918.9452,-125.1745 1918.1871,-126.0546 1917.3793,-126.9158 1916.5259,-127.7557 1915.6305,-128.5721 1914.6968,-129.3627 1913.7285,-130.1254 1912.7289,-130.858 1911.7014,-131.5585 1910.6489,-132.2251 1909.5744,-132.8559 1908.4806,-133.4492 1907.3699,-134.0033 1906.2447,-134.5167 1905.1069,-134.988 1903.9585,-135.416 1902.8011,-135.7994 1901.6363,-136.1373 1900.4654,-136.4286 1899.2896,-136.6726 1898.11,-136.8686 1896.9276,-137.016 1895.7431,-137.1146 1894.5575,-137.1639 1893.3716,-137.1639 1892.186,-137.1146 1891.0015,-137.016 1889.8191,-136.8686 1888.6395,-136.6726 1887.4637,-136.4286 1886.2928,-136.1373 1885.128,-135.7994 1883.9706,-135.416 1882.8222,-134.988 1881.6844,-134.5167 1880.5592,-134.0033 1879.4485,-133.4492 1878.3547,-132.8559 1877.2802,-132.2251 1876.2277,-131.5585 1875.2002,-130.858 1874.2006,-130.1254 1873.2323,-129.3627 1872.2986,-128.5721 1871.4032,-127.7557 1870.5498,-126.9158 1869.742,-126.0546 1868.9839,-125.1745 1868.2793,-124.2779 1867.6321,-123.3674 1867.0464,-122.4453 1866.5259,-121.5142 1866.0746,-120.5767 1865.6959,-119.6353 1865.3935,-118.6926 1865.1706,-117.7512 1865.0304,-116.8136 1864.9756,-115.8825 1865.0088,-114.9605 1865.1321,-114.0499 1865.3474,-113.1533 1865.656,-112.2733 1866.059,-111.4121 1866.557,-110.5721 1867.15,-109.7557 1867.8376,-108.9651 1868.619,-108.2025 1869.4928,-107.4698 1870.4572,-106.7693 1871.5096,-106.1027 1872.6473,-105.4719 1873.8669,-104.8787 1875.1645,-104.3246 1876.5358,-103.8111 1877.976,-103.3398 1879.4799,-102.9118 1881.042,-102.5284 1882.6563,-102.1906 1884.3165,-101.8992 1886.0161,-101.6553 1887.7483,-101.4593 1889.506,-101.3118 1891.282,-101.2133 1893.0691,-101.1639 1894.86,-101.1639 1896.6471,-101.2133"/>
<text text-anchor="middle" x="1893.9645" y="-116.6639" font-family="Courier,monospace" font-weight="bold" font-size="10.00" fill="#000000">y</text>
</g>
<!-- STATE_A&#45;&gt;SYMBOL_y -->
<g id="edge15" class="edge">
<title>STATE_A&#45;&gt;SYMBOL_y</title>
<path fill="none" stroke="#000000" stroke-dasharray="5,2" d="M345.3409,-375.3951C356.3034,-342.9851 383.2807,-273.5299 425.7342,-229.1639 517.9848,-132.7576 558.3995,-119.6443 685.2211,-78.1639 1101.9231,58.1295 1233.6535,-20.7577 1671.2211,-48.1639 1749.6976,-53.0791 1777.2951,-30.2046 1847.2211,-66.1639 1859.3251,-72.3883 1869.7166,-83.171 1877.6068,-93.3924"/>
<polygon fill="#000000" stroke="#000000" points="1874.9377,-95.6749 1883.6289,-101.734 1880.6132,-91.5774 1874.9377,-95.6749"/>
<text text-anchor="middle" x="1078.7211" y="-9.1639" font-family="Courier,monospace" font-weight="bold" font-size="10.00" fill="#000000">0.00553654982557627</text>
</g>
<!-- SYMBOL_z -->
<g id="node10" class="node">
<title>SYMBOL_z</title>
<polygon fill="none" stroke="#000000" stroke-dasharray="5,2" points="1896.6471,-530.2133 1898.4231,-530.3118 1900.1808,-530.4593 1901.913,-530.6553 1903.6126,-530.8992 1905.2728,-531.1906 1906.8871,-531.5284 1908.4492,-531.9118 1909.9531,-532.3398 1911.3933,-532.8111 1912.7646,-533.3246 1914.0622,-533.8787 1915.2818,-534.4719 1916.4195,-535.1027 1917.4719,-535.7693 1918.4363,-536.4698 1919.3101,-537.2025 1920.0915,-537.9651 1920.7791,-538.7557 1921.3721,-539.5721 1921.8701,-540.4121 1922.2731,-541.2733 1922.5817,-542.1533 1922.797,-543.0499 1922.9203,-543.9605 1922.9535,-544.8825 1922.8987,-545.8136 1922.7585,-546.7512 1922.5356,-547.6926 1922.2332,-548.6353 1921.8545,-549.5767 1921.4032,-550.5142 1920.8827,-551.4453 1920.297,-552.3674 1919.6498,-553.2779 1918.9452,-554.1745 1918.1871,-555.0546 1917.3793,-555.9158 1916.5259,-556.7557 1915.6305,-557.5721 1914.6968,-558.3627 1913.7285,-559.1254 1912.7289,-559.858 1911.7014,-560.5585 1910.6489,-561.2251 1909.5744,-561.8559 1908.4806,-562.4492 1907.3699,-563.0033 1906.2447,-563.5167 1905.1069,-563.988 1903.9585,-564.416 1902.8011,-564.7994 1901.6363,-565.1373 1900.4654,-565.4286 1899.2896,-565.6726 1898.11,-565.8686 1896.9276,-566.016 1895.7431,-566.1146 1894.5575,-566.1639 1893.3716,-566.1639 1892.186,-566.1146 1891.0015,-566.016 1889.8191,-565.8686 1888.6395,-565.6726 1887.4637,-565.4286 1886.2928,-565.1373 1885.128,-564.7994 1883.9706,-564.416 1882.8222,-563.988 1881.6844,-563.5167 1880.5592,-563.0033 1879.4485,-562.4492 1878.3547,-561.8559 1877.2802,-561.2251 1876.2277,-560.5585 1875.2002,-559.858 1874.2006,-559.1254 1873.2323,-558.3627 1872.2986,-557.5721 1871.4032,-556.7557 1870.5498,-555.9158 1869.742,-555.0546 1868.9839,-554.1745 1868.2793,-553.2779 1867.6321,-552.3674 1867.0464,-551.4453 1866.5259,-550.5142 1866.0746,-549.5767 1865.6959,-548.6353 1865.3935,-547.6926 1865.1706,-546.7512 1865.0304,-545.8136 1864.9756,-544.8825 1865.0088,-543.9605 1865.1321,-543.0499 1865.3474,-542.1533 1865.656,-541.2733 1866.059,-540.4121 1866.557,-539.5721 1867.15,-538.7557 1867.8376,-537.9651 1868.619,-537.2025 1869.4928,-536.4698 1870.4572,-535.7693 1871.5096,-535.1027 1872.6473,-534.4719 1873.8669,-533.8787 1875.1645,-533.3246 1876.5358,-532.8111 1877.976,-532.3398 1879.4799,-531.9118 1881.042,-531.5284 1882.6563,-531.1906 1884.3165,-530.8992 1886.0161,-530.6553 1887.7483,-530.4593 1889.506,-530.3118 1891.282,-530.2133 1893.0691,-530.1639 1894.86,-530.1639 1896.6471,-530.2133"/>
<text text-anchor="middle" x="1893.9645" y="-545.6639" font-family="Courier,monospace" font-weight="bold" font-size="10.00" fill="#000000">z</text>
</g>
<!-- STATE_A&#45;&gt;SYMBOL_z -->
<g id="edge16" class="edge">
<title>STATE_A&#45;&gt;SYMBOL_z</title>
<path fill="none" stroke="#000000" stroke-dasharray="5,2" d="M349.1708,-410.0038C381.5693,-465.3562 494.2641,-638.1639 638.4777,-638.1639 638.4777,-638.1639 638.4777,-638.1639 1599.7211,-638.1639 1712.1227,-638.1639 1745.7584,-634.5316 1847.2211,-586.1639 1856.0953,-581.9335 1864.7548,-575.6864 1872.1608,-569.474"/>
<polygon fill="#000000" stroke="#000000" points="1874.485,-572.0909 1879.6559,-562.8435 1869.8469,-566.8479 1874.485,-572.0909"/>
<text text-anchor="middle" x="1078.7211" y="-641.1639" font-family="Courier,monospace" font-weight="bold" font-size="10.00" fill="#000000">0.3637026530877655</text>
</g>
<!-- STATE_C -->
<g id="node3" class="node">
<title>STATE_C</title>
<polygon fill="none" stroke="#000000" points="920.4036,-244.2133 922.1797,-244.3118 923.9374,-244.4593 925.6696,-244.6553 927.3691,-244.8992 929.0294,-245.1906 930.6436,-245.5284 932.2057,-245.9118 933.7097,-246.3398 935.1499,-246.8111 936.5211,-247.3246 937.8187,-247.8787 939.0383,-248.4719 940.176,-249.1027 941.2285,-249.7693 942.1928,-250.4698 943.0666,-251.2025 943.848,-251.9651 944.5357,-252.7557 945.1287,-253.5721 945.6266,-254.4121 946.0296,-255.2733 946.3383,-256.1533 946.5536,-257.0499 946.6769,-257.9605 946.7101,-258.8825 946.6553,-259.8136 946.5151,-260.7512 946.2922,-261.6926 945.9898,-262.6353 945.6111,-263.5767 945.1597,-264.5142 944.6393,-265.4453 944.0535,-266.3674 943.4064,-267.2779 942.7018,-268.1745 941.9436,-269.0546 941.1359,-269.9158 940.2824,-270.7557 939.387,-271.5721 938.4534,-272.3627 937.485,-273.1254 936.4855,-273.858 935.4579,-274.5585 934.4055,-275.2251 933.331,-275.8559 932.2372,-276.4492 931.1265,-277.0033 930.0012,-277.5167 928.8634,-277.988 927.715,-278.416 926.5577,-278.7994 925.3929,-279.1373 924.222,-279.4286 923.0462,-279.6726 921.8666,-279.8686 920.6841,-280.016 919.4997,-280.1146 918.3141,-280.1639 917.1281,-280.1639 915.9425,-280.1146 914.7581,-280.016 913.5756,-279.8686 912.396,-279.6726 911.2203,-279.4286 910.0494,-279.1373 908.8846,-278.7994 907.7272,-278.416 906.5788,-277.988 905.441,-277.5167 904.3157,-277.0033 903.205,-276.4492 902.1112,-275.8559 901.0367,-275.2251 899.9843,-274.5585 898.9567,-273.858 897.9572,-273.1254 896.9889,-272.3627 896.0552,-271.5721 895.1598,-270.7557 894.3063,-269.9158 893.4986,-269.0546 892.7404,-268.1745 892.0358,-267.2779 891.3887,-266.3674 890.803,-265.4453 890.2825,-264.5142 889.8311,-263.5767 889.4524,-262.6353 889.15,-261.6926 888.9272,-260.7512 888.7869,-259.8136 888.7321,-258.8825 888.7653,-257.9605 888.8886,-257.0499 889.1039,-256.1533 889.4126,-255.2733 889.8156,-254.4121 890.3136,-253.5721 890.9066,-252.7557 891.5942,-251.9651 892.3756,-251.2025 893.2494,-250.4698 894.2137,-249.7693 895.2662,-249.1027 896.4039,-248.4719 897.6235,-247.8787 898.9211,-247.3246 900.2923,-246.8111 901.7326,-246.3398 903.2365,-245.9118 904.7986,-245.5284 906.4129,-245.1906 908.0731,-244.8992 909.7727,-244.6553 911.5048,-244.4593 913.2625,-244.3118 915.0386,-244.2133 916.8257,-244.1639 918.6165,-244.1639 920.4036,-244.2133"/>
<text text-anchor="middle" x="917.7211" y="-259.6639" font-family="Courier,monospace" font-weight="bold" font-size="10.00" fill="#000000">C</text>
</g>
<!-- STATE_B&#45;&gt;STATE_C -->
<g id="edge4" class="edge">
<title>STATE_B&#45;&gt;STATE_C</title>
<path fill="none" stroke="#000000" d="M664.4975,-213.1956C713.7997,-222.7297 821.0575,-243.4711 878.8967,-254.6561"/>
<polygon fill="#000000" stroke="#000000" points="878.2746,-258.1005 888.7573,-256.5629 879.6037,-251.2279 878.2746,-258.1005"/>
<text text-anchor="middle" x="756.7211" y="-247.1639" font-family="Courier,monospace" font-weight="bold" font-size="10.00" fill="#000000">0.507138011496441</text>
</g>
<!-- STATE_D -->
<g id="node4" class="node">
<title>STATE_D</title>
<polygon fill="none" stroke="#000000" points="1081.4036,-164.2133 1083.1797,-164.3118 1084.9374,-164.4593 1086.6696,-164.6553 1088.3691,-164.8992 1090.0294,-165.1906 1091.6436,-165.5284 1093.2057,-165.9118 1094.7097,-166.3398 1096.1499,-166.8111 1097.5211,-167.3246 1098.8187,-167.8787 1100.0383,-168.4719 1101.176,-169.1027 1102.2285,-169.7693 1103.1928,-170.4698 1104.0666,-171.2025 1104.848,-171.9651 1105.5357,-172.7557 1106.1287,-173.5721 1106.6266,-174.4121 1107.0296,-175.2733 1107.3383,-176.1533 1107.5536,-177.0499 1107.6769,-177.9605 1107.7101,-178.8825 1107.6553,-179.8136 1107.5151,-180.7512 1107.2922,-181.6926 1106.9898,-182.6353 1106.6111,-183.5767 1106.1597,-184.5142 1105.6393,-185.4453 1105.0535,-186.3674 1104.4064,-187.2779 1103.7018,-188.1745 1102.9436,-189.0546 1102.1359,-189.9158 1101.2824,-190.7557 1100.387,-191.5721 1099.4534,-192.3627 1098.485,-193.1254 1097.4855,-193.858 1096.4579,-194.5585 1095.4055,-195.2251 1094.331,-195.8559 1093.2372,-196.4492 1092.1265,-197.0033 1091.0012,-197.5167 1089.8634,-197.988 1088.715,-198.416 1087.5577,-198.7994 1086.3929,-199.1373 1085.222,-199.4286 1084.0462,-199.6726 1082.8666,-199.8686 1081.6841,-200.016 1080.4997,-200.1146 1079.3141,-200.1639 1078.1281,-200.1639 1076.9425,-200.1146 1075.7581,-200.016 1074.5756,-199.8686 1073.396,-199.6726 1072.2203,-199.4286 1071.0494,-199.1373 1069.8846,-198.7994 1068.7272,-198.416 1067.5788,-197.988 1066.441,-197.5167 1065.3157,-197.0033 1064.205,-196.4492 1063.1112,-195.8559 1062.0367,-195.2251 1060.9843,-194.5585 1059.9567,-193.858 1058.9572,-193.1254 1057.9889,-192.3627 1057.0552,-191.5721 1056.1598,-190.7557 1055.3063,-189.9158 1054.4986,-189.0546 1053.7404,-188.1745 1053.0358,-187.2779 1052.3887,-186.3674 1051.803,-185.4453 1051.2825,-184.5142 1050.8311,-183.5767 1050.4524,-182.6353 1050.15,-181.6926 1049.9272,-180.7512 1049.7869,-179.8136 1049.7321,-178.8825 1049.7653,-177.9605 1049.8886,-177.0499 1050.1039,-176.1533 1050.4126,-175.2733 1050.8156,-174.4121 1051.3136,-173.5721 1051.9066,-172.7557 1052.5942,-171.9651 1053.3756,-171.2025 1054.2494,-170.4698 1055.2137,-169.7693 1056.2662,-169.1027 1057.4039,-168.4719 1058.6235,-167.8787 1059.9211,-167.3246 1061.2923,-166.8111 1062.7326,-166.3398 1064.2365,-165.9118 1065.7986,-165.5284 1067.4129,-165.1906 1069.0731,-164.8992 1070.7727,-164.6553 1072.5048,-164.4593 1074.2625,-164.3118 1076.0386,-164.2133 1077.8257,-164.1639 1079.6165,-164.1639 1081.4036,-164.2133"/>
<text text-anchor="middle" x="1078.7211" y="-179.6639" font-family="Courier,monospace" font-weight="bold" font-size="10.00" fill="#000000">D</text>
</g>
<!-- STATE_B&#45;&gt;STATE_D -->
<g id="edge5" class="edge">
<title>STATE_B&#45;&gt;STATE_D</title>
<path fill="none" stroke="#000000" d="M667.6136,-204.0726C673.4369,-203.3541 679.5167,-202.6742 685.2211,-202.1639 815.1557,-190.54 969.8773,-185.1355 1040.3458,-183.1348"/>
<polygon fill="#000000" stroke="#000000" points="1040.6182,-186.6287 1050.5175,-182.8532 1040.4244,-179.6314 1040.6182,-186.6287"/>
<text text-anchor="middle" x="756.7211" y="-205.1639" font-family="Courier,monospace" font-weight="bold" font-size="10.00" fill="#000000">0.49286198850355895</text>
</g>
<!-- STATE_B&#45;&gt;SYMBOL_x -->
<g id="edge17" class="edge">
<title>STATE_B&#45;&gt;SYMBOL_x</title>
<path fill="none" stroke="#000000" stroke-dasharray="5,2" d="M662.7326,-196.1431C669.8278,-193.0812 677.7012,-190.1098 685.2211,-188.1639 824.4945,-152.1246 863.5479,-162.5068 1007.2211,-155.1639 1193.936,-145.6212 1692.6956,-96.9243 1847.2211,-202.1639 1870.4008,-217.9504 1882.4656,-248.5469 1888.4823,-271.1737"/>
<polygon fill="#000000" stroke="#000000" points="1885.0882,-272.0291 1890.8393,-280.9272 1891.8923,-270.3848 1885.0882,-272.0291"/>
<text text-anchor="middle" x="1247.2211" y="-148.1639" font-family="Courier,monospace" font-weight="bold" font-size="10.00" fill="#000000">0.0007884199789634084</text>
</g>
<!-- STATE_B&#45;&gt;SYMBOL_y -->
<g id="edge18" class="edge">
<title>STATE_B&#45;&gt;SYMBOL_y</title>
<path fill="none" stroke="#000000" stroke-dasharray="5,2" d="M643.3256,-190.1992C649.5965,-170.6368 662.5078,-140.0265 685.2211,-124.1639 757.7973,-73.4781 990.1979,-62.1639 1078.7211,-62.1639 1078.7211,-62.1639 1078.7211,-62.1639 1599.7211,-62.1639 1693.7718,-62.1639 1801.6969,-90.5792 1857.0187,-107.2842"/>
<polygon fill="#000000" stroke="#000000" points="1856.1344,-110.6739 1866.7211,-110.2577 1858.1856,-103.9811 1856.1344,-110.6739"/>
<text text-anchor="middle" x="1247.2211" y="-65.1639" font-family="Courier,monospace" font-weight="bold" font-size="10.00" fill="#000000">0.0027733411838137194</text>
</g>
<!-- STATE_B&#45;&gt;SYMBOL_z -->
<g id="edge19" class="edge">
<title>STATE_B&#45;&gt;SYMBOL_z</title>
<path fill="none" stroke="#000000" stroke-dasharray="5,2" d="M644.7784,-225.5433C652.0966,-243.6646 665.7125,-271.9196 685.2211,-290.1639 800.3841,-397.8636 1189.1171,-524.8007 1344.2211,-553.1639 1495.2154,-580.7756 1535.7496,-566.3052 1689.2211,-569.1639 1759.4311,-570.4717 1778.558,-583.8793 1847.2211,-569.1639 1853.1283,-567.8979 1859.1906,-565.826 1864.91,-563.4647"/>
<polygon fill="#000000" stroke="#000000" points="1866.4473,-566.6109 1874.1239,-559.3089 1863.5692,-560.23 1866.4473,-566.6109"/>
<text text-anchor="middle" x="1247.2211" y="-552.1639" font-family="Courier,monospace" font-weight="bold" font-size="10.00" fill="#000000">0.9964382388372229</text>
</g>
<!-- STATE_C&#45;&gt;STATE_F -->
<g id="edge6" class="edge">
<title>STATE_C&#45;&gt;STATE_F</title>
<path fill="none" stroke="#000000" d="M944.754,-265.7504C1005.1823,-273.8159 1146.2426,-292.9336 1150.2211,-296.1639 1168.2324,-310.788 1152.0872,-328.4916 1168.2211,-345.1639 1179.0904,-356.3959 1194.4391,-363.8069 1208.7205,-368.6379"/>
<polygon fill="#000000" stroke="#000000" points="1207.7827,-372.011 1218.3689,-371.5854 1209.8279,-365.3164 1207.7827,-372.011"/>
<text text-anchor="middle" x="1078.7211" y="-299.1639" font-family="Courier,monospace" font-weight="bold" font-size="10.00" fill="#000000">1.0</text>
</g>
<!-- STATE_C&#45;&gt;SYMBOL_x -->
<g id="edge22" class="edge">
<title>STATE_C&#45;&gt;SYMBOL_x</title>
<path fill="none" stroke="#000000" stroke-dasharray="5,2" d="M946.5246,-260.851C1046.748,-256.5945 1389.4745,-244.6544 1671.2211,-266.1639 1735.9962,-271.1091 1810.534,-283.5394 1854.8655,-291.6534"/>
<polygon fill="#000000" stroke="#000000" points="1854.4545,-295.1367 1864.9246,-293.5156 1855.7288,-288.2537 1854.4545,-295.1367"/>
<text text-anchor="middle" x="1427.2211" y="-260.1639" font-family="Courier,monospace" font-weight="bold" font-size="10.00" fill="#000000">0.0002682371633026418</text>
</g>
<!-- STATE_C&#45;&gt;SYMBOL_y -->
<g id="edge21" class="edge">
<title>STATE_C&#45;&gt;SYMBOL_y</title>
<path fill="none" stroke="#000000" stroke-dasharray="5,2" d="M946.7092,-258.007C964.2124,-255.5644 986.9758,-252.5065 1007.2211,-250.1639 1230.3462,-224.3464 1289.3233,-241.8521 1510.2211,-201.1639 1591.339,-186.2224 1608.6114,-169.6405 1689.2211,-152.1639 1747.324,-139.567 1815.656,-129.4908 1856.8471,-123.9246"/>
<polygon fill="#000000" stroke="#000000" points="1857.5132,-127.3668 1866.9624,-122.5748 1856.5873,-120.4283 1857.5132,-127.3668"/>
<text text-anchor="middle" x="1427.2211" y="-227.1639" font-family="Courier,monospace" font-weight="bold" font-size="10.00" fill="#000000">0.007172175131863255</text>
</g>
<!-- STATE_C&#45;&gt;SYMBOL_z -->
<g id="edge20" class="edge">
<title>STATE_C&#45;&gt;SYMBOL_z</title>
<path fill="none" stroke="#000000" stroke-dasharray="5,2" d="M940.9604,-270.2698C955.4684,-275.8735 974.1796,-284.1183 989.2211,-294.1639 998.3719,-300.2753 998.397,-304.5895 1007.2211,-311.1639 1073.4867,-360.5351 1093.8546,-368.1324 1168.2211,-404.1639 1322.4271,-478.8786 1360.0341,-509.3782 1528.2211,-542.1639 1646.2594,-565.1738 1789.7977,-557.425 1856.5207,-551.8325"/>
<polygon fill="#000000" stroke="#000000" points="1856.8956,-555.3132 1866.5541,-550.9585 1856.288,-548.3396 1856.8956,-555.3132"/>
<text text-anchor="middle" x="1427.2211" y="-541.1639" font-family="Courier,monospace" font-weight="bold" font-size="10.00" fill="#000000">0.9925595877048341</text>
</g>
<!-- STATE_D&#45;&gt;STATE_A -->
<g id="edge7" class="edge">
<title>STATE_D&#45;&gt;STATE_A</title>
<path fill="none" stroke="#000000" d="M1053.0782,-187.7669C993.5347,-200.8092 850.6162,-232.3113 846.2211,-235.1639 835.037,-242.423 839.0055,-251.3233 828.2211,-259.1639 738.3608,-324.4957 698.8489,-310.6755 591.7342,-340.1639 517.2879,-360.6588 428.5902,-377.6236 378.7572,-386.4927"/>
<polygon fill="#000000" stroke="#000000" points="377.9725,-383.077 368.7324,-388.2608 379.1884,-389.9706 377.9725,-383.077"/>
<text text-anchor="middle" x="638.4777" y="-337.1639" font-family="Courier,monospace" font-weight="bold" font-size="10.00" fill="#000000">1.0</text>
</g>
<!-- STATE_D&#45;&gt;SYMBOL_x -->
<g id="edge23" class="edge">
<title>STATE_D&#45;&gt;SYMBOL_x</title>
<path fill="none" stroke="#000000" stroke-dasharray="5,2" d="M1107.5649,-181.4772C1177.0155,-180.0897 1358.9812,-178.0374 1510.2211,-190.1639 1585.6238,-196.2098 1781.9244,-199.9741 1847.2211,-238.1639 1861.1223,-246.2943 1872.3063,-260.3186 1880.245,-272.8715"/>
<polygon fill="#000000" stroke="#000000" points="1877.3357,-274.8276 1885.4445,-281.6466 1883.3579,-271.2592 1877.3357,-274.8276"/>
<text text-anchor="middle" x="1427.2211" y="-193.1639" font-family="Courier,monospace" font-weight="bold" font-size="10.00" fill="#000000">0.00014006105768314035</text>
</g>
<!-- STATE_D&#45;&gt;SYMBOL_y -->
<g id="edge24" class="edge">
<title>STATE_D&#45;&gt;SYMBOL_y</title>
<path fill="none" stroke="#000000" stroke-dasharray="5,2" d="M1107.529,-177.2796C1178.6712,-165.473 1368.5002,-135.5226 1528.2211,-124.1639 1646.9708,-115.7189 1787.9367,-116.9612 1854.8982,-118.2315"/>
<polygon fill="#000000" stroke="#000000" points="1854.9267,-121.7327 1864.995,-118.4341 1855.0673,-114.7341 1854.9267,-121.7327"/>
<text text-anchor="middle" x="1427.2211" y="-146.1639" font-family="Courier,monospace" font-weight="bold" font-size="10.00" fill="#000000">0.2385994998169744</text>
</g>
<!-- STATE_D&#45;&gt;SYMBOL_z -->
<g id="edge25" class="edge">
<title>STATE_D&#45;&gt;SYMBOL_z</title>
<path fill="none" stroke="#000000" stroke-dasharray="5,2" d="M1100.7644,-191.5153C1195.2983,-231.5126 1567.1464,-387.7236 1689.2211,-422.1639 1757.8582,-441.5281 1790.4718,-406.9721 1847.2211,-450.1639 1869.623,-467.214 1881.7957,-497.724 1888.05,-520.1863"/>
<polygon fill="#000000" stroke="#000000" points="1884.7324,-521.3414 1890.5933,-530.1675 1891.5157,-519.6129 1884.7324,-521.3414"/>
<text text-anchor="middle" x="1427.2211" y="-361.1639" font-family="Courier,monospace" font-weight="bold" font-size="10.00" fill="#000000">0.7612604391253424</text>
</g>
<!-- STATE_E&#45;&gt;STATE_A -->
<g id="edge8" class="edge">
<title>STATE_E&#45;&gt;STATE_A</title>
<path fill="none" stroke="#000000" d="M1570.9432,-515.0838C1452.3046,-514.6168 989.5277,-511.4519 609.7342,-490.1639 527.7765,-485.5701 500.6494,-507.7181 425.7342,-474.1639 397.6886,-461.6024 373.0131,-435.9991 357.3696,-416.9226"/>
<polygon fill="#000000" stroke="#000000" points="359.9956,-414.6013 351.0364,-408.9459 354.5134,-418.9539 359.9956,-414.6013"/>
<text text-anchor="middle" x="917.7211" y="-508.1639" font-family="Courier,monospace" font-weight="bold" font-size="10.00" fill="#000000">1.0</text>
</g>
<!-- STATE_E&#45;&gt;SYMBOL_x -->
<g id="edge26" class="edge">
<title>STATE_E&#45;&gt;SYMBOL_x</title>
<path fill="none" stroke="#000000" stroke-dasharray="5,2" d="M1628.7048,-512.462C1679.6722,-506.2052 1785.7579,-486.2307 1847.2211,-425.1639 1873.9321,-398.6252 1885.5419,-355.4734 1890.4751,-327.201"/>
<polygon fill="#000000" stroke="#000000" points="1893.9581,-327.5823 1892.0564,-317.1595 1887.0433,-326.4933 1893.9581,-327.5823"/>
<text text-anchor="middle" x="1768.2211" y="-503.1639" font-family="Courier,monospace" font-weight="bold" font-size="10.00" fill="#000000">0.0004124376370066547</text>
</g>
<!-- STATE_E&#45;&gt;SYMBOL_y -->
<g id="edge27" class="edge">
<title>STATE_E&#45;&gt;SYMBOL_y</title>
<path fill="none" stroke="#000000" stroke-dasharray="5,2" d="M1628.5239,-508.7374C1643.2976,-504.019 1660.4107,-496.1067 1671.2211,-483.1639 1692.6426,-457.517 1675.3687,-440.5736 1689.2211,-410.1639 1715.3977,-352.6996 1830.3466,-201.4235 1875.5831,-142.8244"/>
<polygon fill="#000000" stroke="#000000" points="1878.3832,-144.9248 1881.7326,-134.8733 1872.8461,-140.6422 1878.3832,-144.9248"/>
<text text-anchor="middle" x="1768.2211" y="-413.1639" font-family="Courier,monospace" font-weight="bold" font-size="10.00" fill="#000000">0.944097947761436</text>
</g>
<!-- STATE_E&#45;&gt;SYMBOL_z -->
<g id="edge28" class="edge">
<title>STATE_E&#45;&gt;SYMBOL_z</title>
<path fill="none" stroke="#000000" stroke-dasharray="5,2" d="M1628.1236,-516.0361C1674.3397,-517.799 1768.5661,-522.8266 1847.2211,-536.1639 1850.0864,-536.6498 1853.0335,-537.2243 1855.9875,-537.8545"/>
<polygon fill="#000000" stroke="#000000" points="1855.4169,-541.315 1865.949,-540.164 1856.9979,-534.4959 1855.4169,-541.315"/>
<text text-anchor="middle" x="1768.2211" y="-539.1639" font-family="Courier,monospace" font-weight="bold" font-size="10.00" fill="#000000">0.055489614601557435</text>
</g>
<!-- STATE_F&#45;&gt;STATE_B -->
<g id="edge9" class="edge">
<title>STATE_F&#45;&gt;STATE_B</title>
<path fill="none" stroke="#000000" d="M1218.4187,-371.625C1106.972,-350.1275 709.0418,-272.7376 685.2211,-259.1639 673.6445,-252.5673 663.3233,-242.1105 655.3434,-232.378"/>
<polygon fill="#000000" stroke="#000000" points="658.1083,-230.232 649.2149,-224.4737 652.5763,-234.5212 658.1083,-230.232"/>
<text text-anchor="middle" x="917.7211" y="-328.1639" font-family="Courier,monospace" font-weight="bold" font-size="10.00" fill="#000000">0.5523649773100641</text>
</g>
<!-- STATE_F&#45;&gt;STATE_E -->
<g id="edge10" class="edge">
<title>STATE_F&#45;&gt;STATE_E</title>
<path fill="none" stroke="#000000" d="M1269.3416,-386.3249C1288.8577,-394.2328 1318.1692,-405.6875 1344.2211,-414.1639 1416.9108,-437.8148 1446.9602,-416.2545 1510.2211,-459.1639 1521.2555,-466.6485 1517.8038,-474.8418 1528.2211,-483.1639 1538.3484,-491.2544 1550.8458,-497.7563 1562.5447,-502.7309"/>
<polygon fill="#000000" stroke="#000000" points="1561.5294,-506.0942 1572.1143,-506.5518 1564.1251,-499.5932 1561.5294,-506.0942"/>
<text text-anchor="middle" x="1427.2211" y="-462.1639" font-family="Courier,monospace" font-weight="bold" font-size="10.00" fill="#000000">0.447635022689936</text>
</g>
<!-- STATE_F&#45;&gt;SYMBOL_x -->
<g id="edge29" class="edge">
<title>STATE_F&#45;&gt;SYMBOL_x</title>
<path fill="none" stroke="#000000" stroke-dasharray="5,2" d="M1276.2668,-373.6609C1381.0217,-361.027 1739.3867,-317.8067 1856.5601,-303.675"/>
<polygon fill="#000000" stroke="#000000" points="1857.3049,-307.1107 1866.8138,-302.4384 1856.4666,-300.161 1857.3049,-307.1107"/>
<text text-anchor="middle" x="1599.7211" y="-344.1639" font-family="Courier,monospace" font-weight="bold" font-size="10.00" fill="#000000">0.08519937934192652</text>
</g>
<!-- STATE_F&#45;&gt;SYMBOL_y -->
<g id="edge30" class="edge">
<title>STATE_F&#45;&gt;SYMBOL_y</title>
<path fill="none" stroke="#000000" stroke-dasharray="5,2" d="M1265.3352,-361.987C1283.9709,-347.1359 1314.4083,-324.9391 1344.2211,-312.1639 1413.6991,-282.3917 1437.7579,-296.6735 1510.2211,-275.1639 1663.5145,-229.661 1704.2373,-220.7532 1847.2211,-149.1639 1854.0975,-145.721 1861.2258,-141.5118 1867.7819,-137.3479"/>
<polygon fill="#000000" stroke="#000000" points="1869.8431,-140.1818 1876.2898,-131.774 1866.007,-134.3265 1869.8431,-140.1818"/>
<text text-anchor="middle" x="1599.7211" y="-272.1639" font-family="Courier,monospace" font-weight="bold" font-size="10.00" fill="#000000">0.18886650197142543</text>
</g>
<!-- STATE_F&#45;&gt;SYMBOL_z -->
<g id="edge31" class="edge">
<title>STATE_F&#45;&gt;SYMBOL_z</title>
<path fill="none" stroke="#000000" stroke-dasharray="5,2" d="M1276.2277,-374.6605C1327.1135,-371.6319 1434.2674,-371.4372 1510.2211,-414.1639 1521.232,-420.3579 1517.2209,-429.9509 1528.2211,-436.1639 1652.9462,-506.6095 1725.0188,-407.4276 1847.2211,-482.1639 1862.2091,-491.3303 1873.7126,-507.3033 1881.5572,-521.2393"/>
<polygon fill="#000000" stroke="#000000" points="1878.6499,-523.2308 1886.4014,-530.4533 1884.8458,-519.9733 1878.6499,-523.2308"/>
<text text-anchor="middle" x="1599.7211" y="-465.1639" font-family="Courier,monospace" font-weight="bold" font-size="10.00" fill="#000000">0.7259341186866481</text>
</g>
<!-- STATE_SOURCE -->
<g id="node7" class="node">
<title>STATE_SOURCE</title>
<polygon fill="none" stroke="#000000" points="42.4515,-66.2133 44.8246,-66.3118 47.1732,-66.4593 49.4877,-66.6553 51.7587,-66.8992 53.9771,-67.1906 56.134,-67.5284 58.2213,-67.9118 60.2308,-68.3398 62.1552,-68.8111 63.9875,-69.3246 65.7213,-69.8787 67.3509,-70.4719 68.8711,-71.1027 70.2774,-71.7693 71.5659,-72.4698 72.7335,-73.2025 73.7776,-73.9651 74.6964,-74.7557 75.4887,-75.5721 76.1541,-76.4121 76.6926,-77.2733 77.105,-78.1533 77.3927,-79.0499 77.5574,-79.9605 77.6018,-80.8825 77.5286,-81.8136 77.3412,-82.7512 77.0434,-83.6926 76.6393,-84.6353 76.1334,-85.5767 75.5302,-86.5142 74.8348,-87.4453 74.0521,-88.3674 73.1874,-89.2779 72.246,-90.1745 71.2329,-91.0546 70.1536,-91.9158 69.0132,-92.7557 67.8168,-93.5721 66.5693,-94.3627 65.2754,-95.1254 63.9398,-95.858 62.5668,-96.5585 61.1606,-97.2251 59.7248,-97.8559 58.2633,-98.4492 56.7792,-99.0033 55.2756,-99.5167 53.7553,-99.988 52.2208,-100.416 50.6744,-100.7994 49.118,-101.1373 47.5535,-101.4286 45.9824,-101.6726 44.4062,-101.8686 42.8263,-102.016 41.2436,-102.1146 39.6595,-102.1639 38.0748,-102.1639 36.4906,-102.1146 34.908,-102.016 33.328,-101.8686 31.7518,-101.6726 30.1808,-101.4286 28.6162,-101.1373 27.0598,-100.7994 25.5134,-100.416 23.9789,-99.988 22.4586,-99.5167 20.955,-99.0033 19.4709,-98.4492 18.0094,-97.8559 16.5737,-97.2251 15.1674,-96.5585 13.7944,-95.858 12.4588,-95.1254 11.1649,-94.3627 9.9174,-93.5721 8.721,-92.7557 7.5806,-91.9158 6.5013,-91.0546 5.4883,-90.1745 4.5468,-89.2779 3.6821,-88.3674 2.8994,-87.4453 2.204,-86.5142 1.6009,-85.5767 1.0949,-84.6353 .6908,-83.6926 .393,-82.7512 .2056,-81.8136 .1324,-80.8825 .1768,-79.9605 .3416,-79.0499 .6292,-78.1533 1.0416,-77.2733 1.5801,-76.4121 2.2455,-75.5721 3.0379,-74.7557 3.9567,-73.9651 5.0008,-73.2025 6.1683,-72.4698 7.4568,-71.7693 8.8631,-71.1027 10.3833,-70.4719 12.0129,-69.8787 13.7467,-69.3246 15.579,-68.8111 17.5034,-68.3398 19.513,-67.9118 21.6002,-67.5284 23.7572,-67.1906 25.9755,-66.8992 28.2465,-66.6553 30.561,-66.4593 32.9096,-66.3118 35.2827,-66.2133 37.6707,-66.1639 40.0635,-66.1639 42.4515,-66.2133"/>
<text text-anchor="middle" x="38.8671" y="-81.6639" font-family="Courier,monospace" font-weight="bold" font-size="10.00" fill="#000000">SOURCE</text>
</g>
<!-- STATE_SOURCE&#45;&gt;STATE_A -->
<g id="edge11" class="edge">
<title>STATE_SOURCE&#45;&gt;STATE_A</title>
<path fill="none" stroke="#000000" d="M54.2008,-99.9121C103.4798,-150.5232 258.0038,-309.2242 316.7546,-369.5632"/>
<polygon fill="#000000" stroke="#000000" points="314.5868,-372.3538 324.0706,-377.0769 319.6021,-367.4705 314.5868,-372.3538"/>
<text text-anchor="middle" x="174.7342" y="-304.1639" font-family="Courier,monospace" font-weight="bold" font-size="10.00" fill="#000000">0.0013989339689923716</text>
</g>
<!-- STATE_SOURCE&#45;&gt;STATE_B -->
<g id="edge12" class="edge">
<title>STATE_SOURCE&#45;&gt;STATE_B</title>
<path fill="none" stroke="#000000" d="M71.5306,-90.9188C174.0426,-112.1183 489.1249,-177.2776 599.6633,-200.1371"/>
<polygon fill="#000000" stroke="#000000" points="599.2064,-203.6166 609.708,-202.2143 600.624,-196.7616 599.2064,-203.6166"/>
<text text-anchor="middle" x="339.7342" y="-161.1639" font-family="Courier,monospace" font-weight="bold" font-size="10.00" fill="#000000">0.9982705401987124</text>
</g>
<!-- STATE_SOURCE&#45;&gt;STATE_D -->
<g id="edge13" class="edge">
<title>STATE_SOURCE&#45;&gt;STATE_D</title>
<path fill="none" stroke="#000000" d="M76.5604,-84.9945C119.4982,-86.1145 191.7429,-88.5268 253.7342,-93.1639 557.382,-115.8775 922.0205,-161.7569 1039.9294,-177.0633"/>
<polygon fill="#000000" stroke="#000000" points="1039.5544,-180.5439 1049.9225,-178.3641 1040.458,-173.6025 1039.5544,-180.5439"/>
<text text-anchor="middle" x="508.7342" y="-127.1639" font-family="Courier,monospace" font-weight="bold" font-size="10.00" fill="#000000">0.00033052583229516424</text>
</g>
</g>
</svg>
