<?xml version="1.0" encoding="UTF-8" standalone="no"?>
<!DOCTYPE svg PUBLIC "-//W3C//DTD SVG 1.1//EN"
 "http://www.w3.org/Graphics/SVG/1.1/DTD/svg11.dtd">
<!-- Generated by graphviz version 2.40.1 (0)
 -->
<!-- Title: G Pages: 1 -->
<svg width="345pt" height="134pt"
 viewBox="0.00 0.00 344.80 134.00" xmlns="http://www.w3.org/2000/svg" xmlns:xlink="http://www.w3.org/1999/xlink">
<g id="graph0" class="graph" transform="scale(1 1) rotate(0) translate(4 130)">
<title>G</title>
<polygon fill="#ffffff" stroke="transparent" points="-4,4 -4,-130 340.8,-130 340.8,4 -4,4"/>
<!-- N0 -->
<g id="node1" class="node">
<title>N0</title>
<ellipse fill="#000000" stroke="#000000" cx="1.8" cy="-67" rx="1.8" ry="1.8"/>
</g>
<!-- N1 -->
<g id="node2" class="node">
<title>N1</title>
<ellipse fill="#000000" stroke="#000000" cx="49.4" cy="-67" rx="1.8" ry="1.8"/>
</g>
<!-- N0&#45;&gt;N1 -->
<g id="edge1" class="edge">
<title>N0&#45;&gt;N1</title>
<path fill="none" stroke="#000000" d="M3.8453,-67C9.5341,-67 25.8789,-67 37.3549,-67"/>
<polygon fill="#000000" stroke="#000000" points="37.4153,-70.5001 47.4153,-67 37.4153,-63.5001 37.4153,-70.5001"/>
<text text-anchor="middle" x="25.6" y="-70" font-family="Courier,monospace" font-weight="bold" font-size="10.00" fill="#000000">b</text>
</g>
<!-- N11 -->
<g id="node4" class="node">
<title>N11</title>
<ellipse fill="#000000" stroke="#000000" cx="49.4" cy="-101" rx="1.8" ry="1.8"/>
</g>
<!-- N0&#45;&gt;N11 -->
<g id="edge3" class="edge">
<title>N0&#45;&gt;N11</title>
<path fill="none" stroke="#000000" d="M3.3837,-68.1312C8.9168,-72.0835 27.6883,-85.4917 39.4776,-93.9126"/>
<polygon fill="#000000" stroke="#000000" points="37.5898,-96.8653 47.7615,-99.8296 41.6585,-91.1691 37.5898,-96.8653"/>
<text text-anchor="middle" x="25.6" y="-89" font-family="Courier,monospace" font-weight="bold" font-size="10.00" fill="#000000">e</text>
</g>
<!-- N13 -->
<g id="node6" class="node">
<title>N13</title>
<ellipse fill="#000000" stroke="#000000" cx="49.4" cy="-33" rx="1.8" ry="1.8"/>
</g>
<!-- N0&#45;&gt;N13 -->
<g id="edge5" class="edge">
<title>N0&#45;&gt;N13</title>
<path fill="none" stroke="#000000" d="M3.223,-65.8841C6.4525,-63.3599 14.6,-57.0391 21.6,-52 27.4594,-47.782 34.1353,-43.2118 39.4763,-39.6109"/>
<polygon fill="#000000" stroke="#000000" points="41.5014,-42.4673 47.8753,-34.0042 37.6149,-36.6453 41.5014,-42.4673"/>
<text text-anchor="middle" x="25.6" y="-55" font-family="Courier,monospace" font-weight="bold" font-size="10.00" fill="#000000">k</text>
</g>
<!-- N4 -->
<g id="node11" class="node">
<title>N4</title>
<ellipse fill="#000000" stroke="#000000" cx="239.8" cy="-28" rx="1.8" ry="1.8"/>
</g>
<!-- N0&#45;&gt;N4 -->
<g id="edge9" class="edge">
<title>N0&#45;&gt;N4</title>
<path fill="none" stroke="#000000" d="M2.1577,-65.0671C4.3116,-54.0817 16.5821,0 49.4,0 49.4,0 49.4,0 192.2,0 207.5252,0 222.2701,-10.9161 231.1846,-19.1166"/>
<polygon fill="#000000" stroke="#000000" points="228.9683,-21.8527 238.4922,-26.4946 233.9418,-16.9267 228.9683,-21.8527"/>
<text text-anchor="middle" x="120.8" y="-3" font-family="Courier,monospace" font-weight="bold" font-size="10.00" fill="#000000">n</text>
</g>
<!-- N7 -->
<g id="node14" class="node">
<title>N7</title>
<ellipse fill="#000000" stroke="#000000" cx="144.6" cy="-94" rx="1.8" ry="1.8"/>
</g>
<!-- N0&#45;&gt;N7 -->
<g id="edge12" class="edge">
<title>N0&#45;&gt;N7</title>
<path fill="none" stroke="#000000" d="M2.3904,-68.8199C4.285,-74.3938 10.7306,-91.4312 21.6,-101 31.0178,-109.2908 35.3642,-109.222 47.6,-112 69.7908,-117.0381 76.5461,-116.7518 98.8,-112 111.2073,-109.3507 124.6315,-103.7182 133.7178,-99.4549"/>
<polygon fill="#000000" stroke="#000000" points="135.5091,-102.4736 142.9167,-94.8988 132.4022,-96.2008 135.5091,-102.4736"/>
<text text-anchor="middle" x="73.2" y="-118" font-family="Courier,monospace" font-weight="bold" font-size="10.00" fill="#000000">a</text>
</g>
<!-- N2 -->
<g id="node9" class="node">
<title>N2</title>
<ellipse fill="#000000" stroke="#000000" cx="97" cy="-68" rx="1.8" ry="1.8"/>
</g>
<!-- N1&#45;&gt;N2 -->
<g id="edge2" class="edge">
<title>N1&#45;&gt;N2</title>
<path fill="none" stroke="#000000" d="M51.4453,-67.043C57.1341,-67.1625 73.4789,-67.5059 84.9549,-67.747"/>
<polygon fill="#000000" stroke="#000000" points="84.9439,-71.2474 95.0153,-67.9583 85.091,-64.2489 84.9439,-71.2474"/>
<text text-anchor="middle" x="73.2" y="-70" font-family="Courier,monospace" font-weight="bold" font-size="10.00" fill="#000000">a</text>
</g>
<!-- N10 -->
<g id="node3" class="node">
<title>N10</title>
<ellipse fill="#000000" stroke="#000000" cx="239.8" cy="-61" rx="1.8" ry="1.8"/>
</g>
<!-- N12 -->
<g id="node5" class="node">
<title>N12</title>
<ellipse fill="#000000" stroke="#000000" cx="97" cy="-101" rx="1.8" ry="1.8"/>
</g>
<!-- N11&#45;&gt;N12 -->
<g id="edge4" class="edge">
<title>N11&#45;&gt;N12</title>
<path fill="none" stroke="#000000" d="M51.4453,-101C57.1341,-101 73.4789,-101 84.9549,-101"/>
<polygon fill="#000000" stroke="#000000" points="85.0153,-104.5001 95.0153,-101 85.0153,-97.5001 85.0153,-104.5001"/>
<text text-anchor="middle" x="73.2" y="-104" font-family="Courier,monospace" font-weight="bold" font-size="10.00" fill="#000000">¶</text>
</g>
<!-- N14 -->
<g id="node7" class="node">
<title>N14</title>
<ellipse fill="#000000" stroke="#000000" cx="97" cy="-33" rx="1.8" ry="1.8"/>
</g>
<!-- N13&#45;&gt;N14 -->
<g id="edge6" class="edge">
<title>N13&#45;&gt;N14</title>
<path fill="none" stroke="#000000" d="M51.4453,-33C57.1341,-33 73.4789,-33 84.9549,-33"/>
<polygon fill="#000000" stroke="#000000" points="85.0153,-36.5001 95.0153,-33 85.0153,-29.5001 85.0153,-36.5001"/>
<text text-anchor="middle" x="73.2" y="-36" font-family="Courier,monospace" font-weight="bold" font-size="10.00" fill="#000000">l</text>
</g>
<!-- N15 -->
<g id="node8" class="node">
<title>N15</title>
<ellipse fill="#000000" stroke="#000000" cx="144.6" cy="-34" rx="1.8" ry="1.8"/>
</g>
<!-- N14&#45;&gt;N15 -->
<g id="edge7" class="edge">
<title>N14&#45;&gt;N15</title>
<path fill="none" stroke="#000000" d="M99.0453,-33.043C104.7341,-33.1625 121.0789,-33.5059 132.5549,-33.747"/>
<polygon fill="#000000" stroke="#000000" points="132.5439,-37.2474 142.6153,-33.9583 132.691,-30.2489 132.5439,-37.2474"/>
<text text-anchor="middle" x="120.8" y="-36" font-family="Courier,monospace" font-weight="bold" font-size="10.00" fill="#000000">¶</text>
</g>
<!-- N3 -->
<g id="node10" class="node">
<title>N3</title>
<ellipse fill="#000000" stroke="#000000" cx="144.6" cy="-68" rx="1.8" ry="1.8"/>
</g>
<!-- N2&#45;&gt;N3 -->
<g id="edge8" class="edge">
<title>N2&#45;&gt;N3</title>
<path fill="none" stroke="#000000" d="M99.0453,-68C104.7341,-68 121.0789,-68 132.5549,-68"/>
<polygon fill="#000000" stroke="#000000" points="132.6153,-71.5001 142.6153,-68 132.6153,-64.5001 132.6153,-71.5001"/>
<text text-anchor="middle" x="120.8" y="-71" font-family="Courier,monospace" font-weight="bold" font-size="10.00" fill="#000000">¶</text>
</g>
<!-- N2&#45;&gt;N7 -->
<g id="edge18" class="edge">
<title>N2&#45;&gt;N7</title>
<path fill="none" stroke="#ff0000" stroke-dasharray="5,2" d="M98.8278,-69.174C102.2867,-71.3808 110.0484,-76.2615 116.8,-80 122.2248,-83.0038 128.372,-86.1276 133.5039,-88.6604"/>
<polygon fill="#ff0000" stroke="#ff0000" points="132.2921,-91.962 142.8187,-93.1627 135.3384,-85.6596 132.2921,-91.962"/>
</g>
<!-- N5 -->
<g id="node12" class="node">
<title>N5</title>
<ellipse fill="#000000" stroke="#000000" cx="287.4" cy="-60" rx="1.8" ry="1.8"/>
</g>
<!-- N4&#45;&gt;N5 -->
<g id="edge10" class="edge">
<title>N4&#45;&gt;N5</title>
<path fill="none" stroke="#000000" d="M241.3837,-29.0647C246.8604,-32.7465 265.3066,-45.1473 277.1146,-53.0854"/>
<polygon fill="#000000" stroke="#000000" points="275.5098,-56.2239 285.7615,-58.8985 279.4152,-50.4146 275.5098,-56.2239"/>
<text text-anchor="middle" x="263.6" y="-48" font-family="Courier,monospace" font-weight="bold" font-size="10.00" fill="#000000">a</text>
</g>
<!-- N6 -->
<g id="node13" class="node">
<title>N6</title>
<ellipse fill="#000000" stroke="#000000" cx="335" cy="-60" rx="1.8" ry="1.8"/>
</g>
<!-- N5&#45;&gt;N6 -->
<g id="edge11" class="edge">
<title>N5&#45;&gt;N6</title>
<path fill="none" stroke="#000000" d="M289.4453,-60C295.1341,-60 311.4789,-60 322.9549,-60"/>
<polygon fill="#000000" stroke="#000000" points="323.0153,-63.5001 333.0153,-60 323.0153,-56.5001 323.0153,-63.5001"/>
<text text-anchor="middle" x="311.2" y="-63" font-family="Courier,monospace" font-weight="bold" font-size="10.00" fill="#000000">¶</text>
</g>
<!-- N5&#45;&gt;N7 -->
<g id="edge17" class="edge">
<title>N5&#45;&gt;N7</title>
<path fill="none" stroke="#ff0000" stroke-dasharray="5,2" d="M285.6582,-60.4787C279.5955,-62.1401 258.8474,-67.7859 241.6,-72 210.9734,-79.4832 174.6934,-87.4827 156.4022,-91.4557"/>
<polygon fill="#ff0000" stroke="#ff0000" points="155.4909,-88.0717 146.4548,-93.6034 156.9682,-94.9141 155.4909,-88.0717"/>
</g>
<!-- N8 -->
<g id="node15" class="node">
<title>N8</title>
<ellipse fill="#000000" stroke="#000000" cx="192.2" cy="-124" rx="1.8" ry="1.8"/>
</g>
<!-- N7&#45;&gt;N8 -->
<g id="edge13" class="edge">
<title>N7&#45;&gt;N8</title>
<path fill="none" stroke="#000000" d="M146.1837,-94.9982C151.6604,-98.4498 170.1066,-110.0756 181.9146,-117.5176"/>
<polygon fill="#000000" stroke="#000000" points="180.2353,-120.5964 190.5615,-122.9673 183.9677,-114.6744 180.2353,-120.5964"/>
<text text-anchor="middle" x="168.4" y="-113" font-family="Courier,monospace" font-weight="bold" font-size="10.00" fill="#000000">¶</text>
</g>
<!-- N9 -->
<g id="node16" class="node">
<title>N9</title>
<ellipse fill="#000000" stroke="#000000" cx="192.2" cy="-61" rx="1.8" ry="1.8"/>
</g>
<!-- N7&#45;&gt;N9 -->
<g id="edge14" class="edge">
<title>N7&#45;&gt;N9</title>
<path fill="none" stroke="#000000" d="M145.3253,-92.1171C147.4108,-86.9772 153.9516,-72.6474 164.4,-66 169.0158,-63.0633 174.8882,-61.7366 180.0453,-61.1744"/>
<polygon fill="#000000" stroke="#000000" points="180.3781,-64.6662 190.2697,-60.8704 180.17,-57.6693 180.3781,-64.6662"/>
<text text-anchor="middle" x="168.4" y="-69" font-family="Courier,monospace" font-weight="bold" font-size="10.00" fill="#000000">n</text>
</g>
<!-- N9&#45;&gt;N10 -->
<g id="edge15" class="edge">
<title>N9&#45;&gt;N10</title>
<path fill="none" stroke="#000000" d="M194.2453,-61C199.9341,-61 216.2789,-61 227.7549,-61"/>
<polygon fill="#000000" stroke="#000000" points="227.8153,-64.5001 237.8153,-61 227.8153,-57.5001 227.8153,-64.5001"/>
<text text-anchor="middle" x="216" y="-64" font-family="Courier,monospace" font-weight="bold" font-size="10.00" fill="#000000">¶</text>
</g>
<!-- N9&#45;&gt;N4 -->
<g id="edge16" class="edge">
<title>N9&#45;&gt;N4</title>
<path fill="none" stroke="#ff0000" stroke-dasharray="5,2" d="M193.7837,-59.902C199.3168,-56.0661 218.0883,-43.0522 229.8776,-34.879"/>
<polygon fill="#ff0000" stroke="#ff0000" points="231.9374,-37.7098 238.1615,-29.1359 227.9492,-31.9571 231.9374,-37.7098"/>
</g>
</g>
</svg>
