<?xml version="1.0" encoding="UTF-8" standalone="no"?>
<!DOCTYPE svg PUBLIC "-//W3C//DTD SVG 1.1//EN"
 "http://www.w3.org/Graphics/SVG/1.1/DTD/svg11.dtd">
<!-- Generated by graphviz version 2.40.1 (0)
 -->
<!-- Title: G Pages: 1 -->
<svg width="465pt" height="185pt"
 viewBox="0.00 0.00 465.19 185.04" xmlns="http://www.w3.org/2000/svg" xmlns:xlink="http://www.w3.org/1999/xlink">
<g id="graph0" class="graph" transform="scale(1 1) rotate(0) translate(4 181.042)">
<title>G</title>
<polygon fill="#ffffff" stroke="transparent" points="-4,4 -4,-181.042 461.1949,-181.042 461.1949,4 -4,4"/>
<!-- STATE_A -->
<g id="node1" class="node">
<title>STATE_A</title>
<polygon fill="none" stroke="#000000" points="168.1602,-88.0913 169.9363,-88.1898 171.694,-88.3373 173.4261,-88.5333 175.1257,-88.7773 176.7859,-89.0686 178.4002,-89.4064 179.9623,-89.7899 181.4662,-90.2178 182.9064,-90.6892 184.2777,-91.2026 185.5753,-91.7567 186.7949,-92.35 187.9326,-92.9808 188.9851,-93.6473 189.9494,-94.3479 190.8232,-95.0805 191.6046,-95.8432 192.2922,-96.6338 192.8852,-97.4502 193.3832,-98.2901 193.7862,-99.1513 194.0949,-100.0314 194.3101,-100.9279 194.4334,-101.8385 194.4666,-102.7606 194.4118,-103.6917 194.2716,-104.6292 194.0487,-105.5706 193.7463,-106.5133 193.3677,-107.4547 192.9163,-108.3922 192.3958,-109.3233 191.8101,-110.2454 191.1629,-111.156 190.4583,-112.0525 189.7002,-112.9326 188.8925,-113.7938 188.039,-114.6338 187.1436,-115.4502 186.2099,-116.2408 185.2416,-117.0034 184.242,-117.736 183.2145,-118.4366 182.162,-119.1032 181.0876,-119.734 179.9937,-120.3272 178.883,-120.8813 177.7578,-121.3948 176.62,-121.8661 175.4716,-122.2941 174.3142,-122.6775 173.1494,-123.0153 171.9785,-123.3066 170.8027,-123.5506 169.6231,-123.7466 168.4407,-123.8941 167.2562,-123.9926 166.0707,-124.042 164.8847,-124.042 163.6991,-123.9926 162.5146,-123.8941 161.3322,-123.7466 160.1526,-123.5506 158.9768,-123.3066 157.8059,-123.0153 156.6411,-122.6775 155.4838,-122.2941 154.3353,-121.8661 153.1976,-121.3948 152.0723,-120.8813 150.9616,-120.3272 149.8678,-119.734 148.7933,-119.1032 147.7408,-118.4366 146.7133,-117.736 145.7137,-117.0034 144.7454,-116.2408 143.8118,-115.4502 142.9164,-114.6338 142.0629,-113.7938 141.2551,-112.9326 140.497,-112.0525 139.7924,-111.156 139.1452,-110.2454 138.5595,-109.3233 138.0391,-108.3922 137.5877,-107.4547 137.209,-106.5133 136.9066,-105.5706 136.6837,-104.6292 136.5435,-103.6917 136.4887,-102.7606 136.5219,-101.8385 136.6452,-100.9279 136.8605,-100.0314 137.1691,-99.1513 137.5722,-98.2901 138.0701,-97.4502 138.6631,-96.6338 139.3507,-95.8432 140.1321,-95.0805 141.006,-94.3479 141.9703,-93.6473 143.0227,-92.9808 144.1604,-92.35 145.38,-91.7567 146.6776,-91.2026 148.0489,-90.6892 149.4891,-90.2178 150.993,-89.7899 152.5551,-89.4064 154.1694,-89.0686 155.8296,-88.7773 157.5292,-88.5333 159.2614,-88.3373 161.0191,-88.1898 162.7951,-88.0913 164.5823,-88.042 166.3731,-88.042 168.1602,-88.0913"/>
<text text-anchor="middle" x="165.4777" y="-103.542" font-family="Courier,monospace" font-weight="bold" font-size="10.00" fill="#000000">A</text>
</g>
<!-- STATE_A&#45;&gt;STATE_A -->
<g id="edge1" class="edge">
<title>STATE_A&#45;&gt;STATE_A</title>
<path fill="none" stroke="#000000" d="M155.37,-122.3322C152.9327,-132.4311 156.3019,-142.042 165.4777,-142.042 171.3559,-142.042 174.8511,-138.0977 175.9633,-132.6076"/>
<polygon fill="#000000" stroke="#000000" points="179.4507,-132.1968 175.5854,-122.3322 172.4554,-132.4542 179.4507,-132.1968"/>
<text text-anchor="middle" x="165.4777" y="-145.042" font-family="Courier,monospace" font-weight="bold" font-size="10.00" fill="#000000">0.377</text>
</g>
<!-- STATE_B -->
<g id="node2" class="node">
<title>STATE_B</title>
<polygon fill="none" stroke="#000000" points="299.6471,-54.0913 301.4231,-54.1898 303.1808,-54.3373 304.913,-54.5333 306.6126,-54.7773 308.2728,-55.0686 309.8871,-55.4064 311.4492,-55.7899 312.9531,-56.2178 314.3933,-56.6892 315.7646,-57.2026 317.0622,-57.7567 318.2818,-58.35 319.4195,-58.9808 320.4719,-59.6473 321.4363,-60.3479 322.3101,-61.0805 323.0915,-61.8432 323.7791,-62.6338 324.3721,-63.4502 324.8701,-64.2901 325.2731,-65.1513 325.5817,-66.0314 325.797,-66.9279 325.9203,-67.8385 325.9535,-68.7606 325.8987,-69.6917 325.7585,-70.6292 325.5356,-71.5706 325.2332,-72.5133 324.8545,-73.4547 324.4032,-74.3922 323.8827,-75.3233 323.297,-76.2454 322.6498,-77.156 321.9452,-78.0525 321.1871,-78.9326 320.3793,-79.7938 319.5259,-80.6338 318.6305,-81.4502 317.6968,-82.2408 316.7285,-83.0034 315.7289,-83.736 314.7014,-84.4366 313.6489,-85.1032 312.5744,-85.734 311.4806,-86.3272 310.3699,-86.8813 309.2447,-87.3948 308.1069,-87.8661 306.9585,-88.2941 305.8011,-88.6775 304.6363,-89.0153 303.4654,-89.3066 302.2896,-89.5506 301.11,-89.7466 299.9276,-89.8941 298.7431,-89.9926 297.5575,-90.042 296.3716,-90.042 295.186,-89.9926 294.0015,-89.8941 292.8191,-89.7466 291.6395,-89.5506 290.4637,-89.3066 289.2928,-89.0153 288.128,-88.6775 286.9706,-88.2941 285.8222,-87.8661 284.6844,-87.3948 283.5592,-86.8813 282.4485,-86.3272 281.3547,-85.734 280.2802,-85.1032 279.2277,-84.4366 278.2002,-83.736 277.2006,-83.0034 276.2323,-82.2408 275.2986,-81.4502 274.4032,-80.6338 273.5498,-79.7938 272.742,-78.9326 271.9839,-78.0525 271.2793,-77.156 270.6321,-76.2454 270.0464,-75.3233 269.5259,-74.3922 269.0746,-73.4547 268.6959,-72.5133 268.3935,-71.5706 268.1706,-70.6292 268.0304,-69.6917 267.9756,-68.7606 268.0088,-67.8385 268.1321,-66.9279 268.3474,-66.0314 268.656,-65.1513 269.059,-64.2901 269.557,-63.4502 270.15,-62.6338 270.8376,-61.8432 271.619,-61.0805 272.4928,-60.3479 273.4572,-59.6473 274.5096,-58.9808 275.6473,-58.35 276.8669,-57.7567 278.1645,-57.2026 279.5358,-56.6892 280.976,-56.2178 282.4799,-55.7899 284.042,-55.4064 285.6563,-55.0686 287.3165,-54.7773 289.0161,-54.5333 290.7483,-54.3373 292.506,-54.1898 294.282,-54.0913 296.0691,-54.042 297.86,-54.042 299.6471,-54.0913"/>
<text text-anchor="middle" x="296.9645" y="-69.542" font-family="Courier,monospace" font-weight="bold" font-size="10.00" fill="#000000">B</text>
</g>
<!-- STATE_A&#45;&gt;STATE_B -->
<g id="edge2" class="edge">
<title>STATE_A&#45;&gt;STATE_B</title>
<path fill="none" stroke="#000000" d="M193.6849,-98.7481C213.7488,-93.56 240.8272,-86.558 262.2236,-81.0253"/>
<polygon fill="#000000" stroke="#000000" points="263.1059,-84.4124 271.9113,-78.5203 261.3535,-77.6353 263.1059,-84.4124"/>
<text text-anchor="middle" x="231.2211" y="-96.042" font-family="Courier,monospace" font-weight="bold" font-size="10.00" fill="#000000">0.623</text>
</g>
<!-- SYMBOL_y -->
<g id="node5" class="node">
<title>SYMBOL_y</title>
<polygon fill="none" stroke="#000000" stroke-dasharray="5,2" points="431.134,-67.0913 432.91,-67.1898 434.6677,-67.3373 436.3999,-67.5333 438.0995,-67.7773 439.7597,-68.0686 441.374,-68.4064 442.9361,-68.7899 444.44,-69.2178 445.8802,-69.6892 447.2515,-70.2026 448.5491,-70.7567 449.7687,-71.35 450.9064,-71.9808 451.9588,-72.6473 452.9231,-73.3479 453.7969,-74.0805 454.5784,-74.8432 455.266,-75.6338 455.859,-76.4502 456.3569,-77.2901 456.76,-78.1513 457.0686,-79.0314 457.2839,-79.9279 457.4072,-80.8385 457.4404,-81.7606 457.3856,-82.6917 457.2454,-83.6292 457.0225,-84.5706 456.7201,-85.5133 456.3414,-86.4547 455.89,-87.3922 455.3696,-88.3233 454.7838,-89.2454 454.1367,-90.156 453.4321,-91.0525 452.674,-91.9326 451.8662,-92.7938 451.0127,-93.6338 450.1173,-94.4502 449.1837,-95.2408 448.2154,-96.0034 447.2158,-96.736 446.1883,-97.4366 445.1358,-98.1032 444.0613,-98.734 442.9675,-99.3272 441.8568,-99.8813 440.7315,-100.3948 439.5938,-100.8661 438.4453,-101.2941 437.288,-101.6775 436.1232,-102.0153 434.9523,-102.3066 433.7765,-102.5506 432.5969,-102.7466 431.4145,-102.8941 430.23,-102.9926 429.0444,-103.042 427.8584,-103.042 426.6728,-102.9926 425.4884,-102.8941 424.306,-102.7466 423.1264,-102.5506 421.9506,-102.3066 420.7797,-102.0153 419.6149,-101.6775 418.4575,-101.2941 417.3091,-100.8661 416.1713,-100.3948 415.0461,-99.8813 413.9354,-99.3272 412.8415,-98.734 411.7671,-98.1032 410.7146,-97.4366 409.6871,-96.736 408.6875,-96.0034 407.7192,-95.2408 406.7855,-94.4502 405.8901,-93.6338 405.0366,-92.7938 404.2289,-91.9326 403.4708,-91.0525 402.7662,-90.156 402.119,-89.2454 401.5333,-88.3233 401.0128,-87.3922 400.5614,-86.4547 400.1828,-85.5133 399.8804,-84.5706 399.6575,-83.6292 399.5173,-82.6917 399.4625,-81.7606 399.4956,-80.8385 399.619,-79.9279 399.8342,-79.0314 400.1429,-78.1513 400.5459,-77.2901 401.0439,-76.4502 401.6369,-75.6338 402.3245,-74.8432 403.1059,-74.0805 403.9797,-73.3479 404.944,-72.6473 405.9965,-71.9808 407.1342,-71.35 408.3538,-70.7567 409.6514,-70.2026 411.0227,-69.6892 412.4629,-69.2178 413.9668,-68.7899 415.5289,-68.4064 417.1432,-68.0686 418.8034,-67.7773 420.503,-67.5333 422.2351,-67.3373 423.9928,-67.1898 425.7689,-67.0913 427.556,-67.042 429.3468,-67.042 431.134,-67.0913"/>
<text text-anchor="middle" x="428.4514" y="-82.542" font-family="Courier,monospace" font-weight="bold" font-size="10.00" fill="#000000">y</text>
</g>
<!-- STATE_A&#45;&gt;SYMBOL_y -->
<g id="edge8" class="edge">
<title>STATE_A&#45;&gt;SYMBOL_y</title>
<path fill="none" stroke="#000000" stroke-dasharray="5,2" d="M189.8577,-112.9059C230.6584,-123.192 314.8744,-139.2566 381.708,-118.042 389.9631,-115.4216 398.0171,-110.7584 405.0494,-105.7477"/>
<polygon fill="#000000" stroke="#000000" points="407.5706,-108.2231 413.3489,-99.3427 403.2939,-102.6815 407.5706,-108.2231"/>
<text text-anchor="middle" x="296.9645" y="-131.042" font-family="Courier,monospace" font-weight="bold" font-size="10.00" fill="#000000">0.596</text>
</g>
<!-- SYMBOL_z -->
<g id="node6" class="node">
<title>SYMBOL_z</title>
<polygon fill="none" stroke="#000000" stroke-dasharray="5,2" points="431.134,-141.0913 432.91,-141.1898 434.6677,-141.3373 436.3999,-141.5333 438.0995,-141.7773 439.7597,-142.0686 441.374,-142.4064 442.9361,-142.7899 444.44,-143.2178 445.8802,-143.6892 447.2515,-144.2026 448.5491,-144.7567 449.7687,-145.35 450.9064,-145.9808 451.9588,-146.6473 452.9231,-147.3479 453.7969,-148.0805 454.5784,-148.8432 455.266,-149.6338 455.859,-150.4502 456.3569,-151.2901 456.76,-152.1513 457.0686,-153.0314 457.2839,-153.9279 457.4072,-154.8385 457.4404,-155.7606 457.3856,-156.6917 457.2454,-157.6292 457.0225,-158.5706 456.7201,-159.5133 456.3414,-160.4547 455.89,-161.3922 455.3696,-162.3233 454.7838,-163.2454 454.1367,-164.156 453.4321,-165.0525 452.674,-165.9326 451.8662,-166.7938 451.0127,-167.6338 450.1173,-168.4502 449.1837,-169.2408 448.2154,-170.0034 447.2158,-170.736 446.1883,-171.4366 445.1358,-172.1032 444.0613,-172.734 442.9675,-173.3272 441.8568,-173.8813 440.7315,-174.3948 439.5938,-174.8661 438.4453,-175.2941 437.288,-175.6775 436.1232,-176.0153 434.9523,-176.3066 433.7765,-176.5506 432.5969,-176.7466 431.4145,-176.8941 430.23,-176.9926 429.0444,-177.042 427.8584,-177.042 426.6728,-176.9926 425.4884,-176.8941 424.306,-176.7466 423.1264,-176.5506 421.9506,-176.3066 420.7797,-176.0153 419.6149,-175.6775 418.4575,-175.2941 417.3091,-174.8661 416.1713,-174.3948 415.0461,-173.8813 413.9354,-173.3272 412.8415,-172.734 411.7671,-172.1032 410.7146,-171.4366 409.6871,-170.736 408.6875,-170.0034 407.7192,-169.2408 406.7855,-168.4502 405.8901,-167.6338 405.0366,-166.7938 404.2289,-165.9326 403.4708,-165.0525 402.7662,-164.156 402.119,-163.2454 401.5333,-162.3233 401.0128,-161.3922 400.5614,-160.4547 400.1828,-159.5133 399.8804,-158.5706 399.6575,-157.6292 399.5173,-156.6917 399.4625,-155.7606 399.4956,-154.8385 399.619,-153.9279 399.8342,-153.0314 400.1429,-152.1513 400.5459,-151.2901 401.0439,-150.4502 401.6369,-149.6338 402.3245,-148.8432 403.1059,-148.0805 403.9797,-147.3479 404.944,-146.6473 405.9965,-145.9808 407.1342,-145.35 408.3538,-144.7567 409.6514,-144.2026 411.0227,-143.6892 412.4629,-143.2178 413.9668,-142.7899 415.5289,-142.4064 417.1432,-142.0686 418.8034,-141.7773 420.503,-141.5333 422.2351,-141.3373 423.9928,-141.1898 425.7689,-141.0913 427.556,-141.042 429.3468,-141.042 431.134,-141.0913"/>
<text text-anchor="middle" x="428.4514" y="-156.542" font-family="Courier,monospace" font-weight="bold" font-size="10.00" fill="#000000">z</text>
</g>
<!-- STATE_A&#45;&gt;SYMBOL_z -->
<g id="edge9" class="edge">
<title>STATE_A&#45;&gt;SYMBOL_z</title>
<path fill="none" stroke="#000000" stroke-dasharray="5,2" d="M182.7847,-119.18C191.2357,-124.9488 201.8093,-131.2579 212.2211,-135.042 271.7051,-156.6606 345.9604,-160.2606 390.1642,-160.1681"/>
<polygon fill="#000000" stroke="#000000" points="390.2234,-163.6678 400.193,-160.082 390.1632,-156.6681 390.2234,-163.6678"/>
<text text-anchor="middle" x="296.9645" y="-160.042" font-family="Courier,monospace" font-weight="bold" font-size="10.00" fill="#000000">0.404</text>
</g>
<!-- STATE_B&#45;&gt;STATE_A -->
<g id="edge3" class="edge">
<title>STATE_B&#45;&gt;STATE_A</title>
<path fill="none" stroke="#000000" d="M267.9946,-67.0806C251.276,-65.3434 230.0902,-65.0934 212.2211,-71.042 204.1051,-73.7438 196.2613,-78.4666 189.3918,-83.5848"/>
<polygon fill="#000000" stroke="#000000" points="186.8396,-81.1475 181.2646,-90.1569 191.2411,-86.5905 186.8396,-81.1475"/>
<text text-anchor="middle" x="231.2211" y="-74.042" font-family="Courier,monospace" font-weight="bold" font-size="10.00" fill="#000000">0.301</text>
</g>
<!-- STATE_C -->
<g id="node3" class="node">
<title>STATE_C</title>
<polygon fill="none" stroke="#000000" points="431.134,-6.0913 432.91,-6.1898 434.6677,-6.3373 436.3999,-6.5333 438.0995,-6.7773 439.7597,-7.0686 441.374,-7.4064 442.9361,-7.7899 444.44,-8.2178 445.8802,-8.6892 447.2515,-9.2026 448.5491,-9.7567 449.7687,-10.35 450.9064,-10.9808 451.9588,-11.6473 452.9231,-12.3479 453.7969,-13.0805 454.5784,-13.8432 455.266,-14.6338 455.859,-15.4502 456.3569,-16.2901 456.76,-17.1513 457.0686,-18.0314 457.2839,-18.9279 457.4072,-19.8385 457.4404,-20.7606 457.3856,-21.6917 457.2454,-22.6292 457.0225,-23.5706 456.7201,-24.5133 456.3414,-25.4547 455.89,-26.3922 455.3696,-27.3233 454.7838,-28.2454 454.1367,-29.156 453.4321,-30.0525 452.674,-30.9326 451.8662,-31.7938 451.0127,-32.6338 450.1173,-33.4502 449.1837,-34.2408 448.2154,-35.0034 447.2158,-35.736 446.1883,-36.4366 445.1358,-37.1032 444.0613,-37.734 442.9675,-38.3272 441.8568,-38.8813 440.7315,-39.3948 439.5938,-39.8661 438.4453,-40.2941 437.288,-40.6775 436.1232,-41.0153 434.9523,-41.3066 433.7765,-41.5506 432.5969,-41.7466 431.4145,-41.8941 430.23,-41.9926 429.0444,-42.042 427.8584,-42.042 426.6728,-41.9926 425.4884,-41.8941 424.306,-41.7466 423.1264,-41.5506 421.9506,-41.3066 420.7797,-41.0153 419.6149,-40.6775 418.4575,-40.2941 417.3091,-39.8661 416.1713,-39.3948 415.0461,-38.8813 413.9354,-38.3272 412.8415,-37.734 411.7671,-37.1032 410.7146,-36.4366 409.6871,-35.736 408.6875,-35.0034 407.7192,-34.2408 406.7855,-33.4502 405.8901,-32.6338 405.0366,-31.7938 404.2289,-30.9326 403.4708,-30.0525 402.7662,-29.156 402.119,-28.2454 401.5333,-27.3233 401.0128,-26.3922 400.5614,-25.4547 400.1828,-24.5133 399.8804,-23.5706 399.6575,-22.6292 399.5173,-21.6917 399.4625,-20.7606 399.4956,-19.8385 399.619,-18.9279 399.8342,-18.0314 400.1429,-17.1513 400.5459,-16.2901 401.0439,-15.4502 401.6369,-14.6338 402.3245,-13.8432 403.1059,-13.0805 403.9797,-12.3479 404.944,-11.6473 405.9965,-10.9808 407.1342,-10.35 408.3538,-9.7567 409.6514,-9.2026 411.0227,-8.6892 412.4629,-8.2178 413.9668,-7.7899 415.5289,-7.4064 417.1432,-7.0686 418.8034,-6.7773 420.503,-6.5333 422.2351,-6.3373 423.9928,-6.1898 425.7689,-6.0913 427.556,-6.042 429.3468,-6.042 431.134,-6.0913"/>
<text text-anchor="middle" x="428.4514" y="-21.542" font-family="Courier,monospace" font-weight="bold" font-size="10.00" fill="#000000">C</text>
</g>
<!-- STATE_B&#45;&gt;STATE_C -->
<g id="edge4" class="edge">
<title>STATE_B&#45;&gt;STATE_C</title>
<path fill="none" stroke="#000000" d="M303.6718,-54.3525C310.8575,-38.2071 323.9654,-15.3408 343.708,-5.042 360.0233,3.469 380.0432,-.4536 396.527,-6.8889"/>
<polygon fill="#000000" stroke="#000000" points="395.2019,-10.1291 405.7692,-10.8933 397.9849,-3.7061 395.2019,-10.1291"/>
<text text-anchor="middle" x="362.708" y="-8.042" font-family="Courier,monospace" font-weight="bold" font-size="10.00" fill="#000000">0.699</text>
</g>
<!-- STATE_B&#45;&gt;SYMBOL_y -->
<g id="edge10" class="edge">
<title>STATE_B&#45;&gt;SYMBOL_y</title>
<path fill="none" stroke="#000000" stroke-dasharray="5,2" d="M325.7214,-70.6807C342.1825,-70.3257 363.1834,-70.591 381.708,-73.042 384.5891,-73.4232 387.5477,-73.9214 390.5098,-74.4979"/>
<polygon fill="#000000" stroke="#000000" points="389.9672,-77.9624 400.487,-76.7035 391.4782,-71.1274 389.9672,-77.9624"/>
<text text-anchor="middle" x="362.708" y="-76.042" font-family="Courier,monospace" font-weight="bold" font-size="10.00" fill="#000000">0.572</text>
</g>
<!-- STATE_B&#45;&gt;SYMBOL_z -->
<g id="edge11" class="edge">
<title>STATE_B&#45;&gt;SYMBOL_z</title>
<path fill="none" stroke="#000000" stroke-dasharray="5,2" d="M315.2472,-84.1389C336.835,-98.4228 373.0417,-122.3794 398.6898,-139.3498"/>
<polygon fill="#000000" stroke="#000000" points="397.0091,-142.4345 407.2802,-145.0337 400.8718,-136.5967 397.0091,-142.4345"/>
<text text-anchor="middle" x="362.708" y="-128.042" font-family="Courier,monospace" font-weight="bold" font-size="10.00" fill="#000000">0.428</text>
</g>
<!-- STATE_C&#45;&gt;STATE_B -->
<g id="edge5" class="edge">
<title>STATE_C&#45;&gt;STATE_B</title>
<path fill="none" stroke="#000000" d="M405.3977,-32.4579C385.4067,-39.7557 356.1378,-50.4404 333.0461,-58.8702"/>
<polygon fill="#000000" stroke="#000000" points="331.7663,-55.6114 323.5729,-62.3285 334.1668,-62.187 331.7663,-55.6114"/>
<text text-anchor="middle" x="362.708" y="-57.042" font-family="Courier,monospace" font-weight="bold" font-size="10.00" fill="#000000">1.0</text>
</g>
<!-- STATE_SOURCE -->
<g id="node4" class="node">
<title>STATE_SOURCE</title>
<polygon fill="none" stroke="#000000" points="42.4515,-46.0913 44.8246,-46.1898 47.1732,-46.3373 49.4877,-46.5333 51.7587,-46.7773 53.9771,-47.0686 56.134,-47.4064 58.2213,-47.7899 60.2308,-48.2178 62.1552,-48.6892 63.9875,-49.2026 65.7213,-49.7567 67.3509,-50.35 68.8711,-50.9808 70.2774,-51.6473 71.5659,-52.3479 72.7335,-53.0805 73.7776,-53.8432 74.6964,-54.6338 75.4887,-55.4502 76.1541,-56.2901 76.6926,-57.1513 77.105,-58.0314 77.3927,-58.9279 77.5574,-59.8385 77.6018,-60.7606 77.5286,-61.6917 77.3412,-62.6292 77.0434,-63.5706 76.6393,-64.5133 76.1334,-65.4547 75.5302,-66.3922 74.8348,-67.3233 74.0521,-68.2454 73.1874,-69.156 72.246,-70.0525 71.2329,-70.9326 70.1536,-71.7938 69.0132,-72.6338 67.8168,-73.4502 66.5693,-74.2408 65.2754,-75.0034 63.9398,-75.736 62.5668,-76.4366 61.1606,-77.1032 59.7248,-77.734 58.2633,-78.3272 56.7792,-78.8813 55.2756,-79.3948 53.7553,-79.8661 52.2208,-80.2941 50.6744,-80.6775 49.118,-81.0153 47.5535,-81.3066 45.9824,-81.5506 44.4062,-81.7466 42.8263,-81.8941 41.2436,-81.9926 39.6595,-82.042 38.0748,-82.042 36.4906,-81.9926 34.908,-81.8941 33.328,-81.7466 31.7518,-81.5506 30.1808,-81.3066 28.6162,-81.0153 27.0598,-80.6775 25.5134,-80.2941 23.9789,-79.8661 22.4586,-79.3948 20.955,-78.8813 19.4709,-78.3272 18.0094,-77.734 16.5737,-77.1032 15.1674,-76.4366 13.7944,-75.736 12.4588,-75.0034 11.1649,-74.2408 9.9174,-73.4502 8.721,-72.6338 7.5806,-71.7938 6.5013,-70.9326 5.4883,-70.0525 4.5468,-69.156 3.6821,-68.2454 2.8994,-67.3233 2.204,-66.3922 1.6009,-65.4547 1.0949,-64.5133 .6908,-63.5706 .393,-62.6292 .2056,-61.6917 .1324,-60.7606 .1768,-59.8385 .3416,-58.9279 .6292,-58.0314 1.0416,-57.1513 1.5801,-56.2901 2.2455,-55.4502 3.0379,-54.6338 3.9567,-53.8432 5.0008,-53.0805 6.1683,-52.3479 7.4568,-51.6473 8.8631,-50.9808 10.3833,-50.35 12.0129,-49.7567 13.7467,-49.2026 15.579,-48.6892 17.5034,-48.2178 19.513,-47.7899 21.6002,-47.4064 23.7572,-47.0686 25.9755,-46.7773 28.2465,-46.5333 30.561,-46.3373 32.9096,-46.1898 35.2827,-46.0913 37.6707,-46.042 40.0635,-46.042 42.4515,-46.0913"/>
<text text-anchor="middle" x="38.8671" y="-61.542" font-family="Courier,monospace" font-weight="bold" font-size="10.00" fill="#000000">SOURCE</text>
</g>
<!-- STATE_SOURCE&#45;&gt;STATE_A -->
<g id="edge6" class="edge">
<title>STATE_SOURCE&#45;&gt;STATE_A</title>
<path fill="none" stroke="#000000" d="M67.9141,-73.6776C85.9435,-79.6584 109.2781,-87.3991 128.6058,-93.8106"/>
<polygon fill="#000000" stroke="#000000" points="127.7049,-97.1993 138.2983,-97.0259 129.9089,-90.5553 127.7049,-97.1993"/>
<text text-anchor="middle" x="107.2342" y="-92.042" font-family="Courier,monospace" font-weight="bold" font-size="10.00" fill="#000000">0.5</text>
</g>
<!-- STATE_SOURCE&#45;&gt;STATE_B -->
<g id="edge7" class="edge">
<title>STATE_SOURCE&#45;&gt;STATE_B</title>
<path fill="none" stroke="#000000" d="M77.9746,-60.4694C120.5132,-57.2855 190.4393,-54.1026 250.2211,-61.042 253.0937,-61.3754 256.046,-61.8204 259.0037,-62.3407"/>
<polygon fill="#000000" stroke="#000000" points="258.4784,-65.8051 268.9724,-64.3466 259.8593,-58.9427 258.4784,-65.8051"/>
<text text-anchor="middle" x="165.4777" y="-60.042" font-family="Courier,monospace" font-weight="bold" font-size="10.00" fill="#000000">0.5</text>
</g>
</g>
</svg>
