<?xml version="1.0" encoding="UTF-8" standalone="no"?>
<!DOCTYPE svg PUBLIC "-//W3C//DTD SVG 1.1//EN"
 "http://www.w3.org/Graphics/SVG/1.1/DTD/svg11.dtd">
<!-- Generated by graphviz version 2.40.1 (0)
 -->
<!-- Title: G Pages: 1 -->
<svg width="317pt" height="183pt"
 viewBox="0.00 0.00 317.00 183.00" xmlns="http://www.w3.org/2000/svg" xmlns:xlink="http://www.w3.org/1999/xlink">
<g id="graph0" class="graph" transform="scale(1 1) rotate(0) translate(4 179)">
<title>G</title>
<polygon fill="#ffffff" stroke="transparent" points="-4,4 -4,-179 313,-179 313,4 -4,4"/>
<!-- N1 -->
<g id="node1" class="node">
<title>N1</title>
<ellipse fill="none" stroke="#000000" cx="198.5" cy="-58.5" rx="14.5" ry="14.5"/>
<text text-anchor="middle" x="198.5" y="-56" font-family="Courier,monospace" font-weight="bold" font-size="10.00" fill="#000000">N1</text>
</g>
<!-- v0 -->
<g id="node4" class="node">
<title>v0</title>
<ellipse fill="none" stroke="#000000" cx="294.5" cy="-61.5" rx="14.5" ry="14.5"/>
<text text-anchor="middle" x="294.5" y="-59" font-family="Courier,monospace" font-weight="bold" font-size="10.00" fill="#000000">v0</text>
</g>
<!-- N1&#45;&#45;v0 -->
<g id="edge4" class="edge">
<title>N1&#45;&#45;v0</title>
<path fill="none" stroke="#000000" d="M213.0803,-58.9556C231.124,-59.5195 261.6756,-60.4742 279.7825,-61.0401"/>
<text text-anchor="middle" x="246.5" y="-63.5" font-family="Courier,monospace" font-weight="bold" font-size="10.00" fill="#000000">11.0</text>
</g>
<!-- v1 -->
<g id="node5" class="node">
<title>v1</title>
<ellipse fill="none" stroke="#000000" cx="294.5" cy="-14.5" rx="14.5" ry="14.5"/>
<text text-anchor="middle" x="294.5" y="-12" font-family="Courier,monospace" font-weight="bold" font-size="10.00" fill="#000000">v1</text>
</g>
<!-- N1&#45;&#45;v1 -->
<g id="edge7" class="edge">
<title>N1&#45;&#45;v1</title>
<path fill="none" stroke="#000000" d="M211.8484,-52.382C230.1895,-43.9757 262.9837,-28.945 281.265,-20.5661"/>
<text text-anchor="middle" x="246.5" y="-46.5" font-family="Courier,monospace" font-weight="bold" font-size="10.00" fill="#000000">2.0</text>
</g>
<!-- N2 -->
<g id="node2" class="node">
<title>N2</title>
<ellipse fill="none" stroke="#000000" cx="102.5" cy="-105.5" rx="14.5" ry="14.5"/>
<text text-anchor="middle" x="102.5" y="-103" font-family="Courier,monospace" font-weight="bold" font-size="10.00" fill="#000000">N2</text>
</g>
<!-- N2&#45;&#45;N1 -->
<g id="edge6" class="edge">
<title>N2&#45;&#45;N1</title>
<path fill="none" stroke="#000000" d="M115.8484,-98.9649C134.1895,-89.9854 166.9837,-73.9299 185.265,-64.9796"/>
<text text-anchor="middle" x="150.5" y="-92.5" font-family="Courier,monospace" font-weight="bold" font-size="10.00" fill="#000000">4.0</text>
</g>
<!-- N3 -->
<g id="node3" class="node">
<title>N3</title>
<ellipse fill="none" stroke="#000000" cx="198.5" cy="-116.5" rx="14.5" ry="14.5"/>
<text text-anchor="middle" x="198.5" y="-114" font-family="Courier,monospace" font-weight="bold" font-size="10.00" fill="#000000">N3</text>
</g>
<!-- N2&#45;&#45;N3 -->
<g id="edge8" class="edge">
<title>N2&#45;&#45;N3</title>
<path fill="none" stroke="#000000" d="M117.0803,-107.1707C135.124,-109.2382 165.6756,-112.7389 183.7825,-114.8136"/>
<text text-anchor="middle" x="150.5" y="-115.5" font-family="Courier,monospace" font-weight="bold" font-size="10.00" fill="#000000">3.0</text>
</g>
<!-- v3 -->
<g id="node7" class="node">
<title>v3</title>
<ellipse fill="none" stroke="#000000" cx="294.5" cy="-160.5" rx="14.5" ry="14.5"/>
<text text-anchor="middle" x="294.5" y="-158" font-family="Courier,monospace" font-weight="bold" font-size="10.00" fill="#000000">v3</text>
</g>
<!-- N3&#45;&#45;v3 -->
<g id="edge1" class="edge">
<title>N3&#45;&#45;v3</title>
<path fill="none" stroke="#000000" d="M211.8484,-122.618C230.1895,-131.0243 262.9837,-146.055 281.265,-154.4339"/>
<text text-anchor="middle" x="246.5" y="-147.5" font-family="Courier,monospace" font-weight="bold" font-size="10.00" fill="#000000">3.0</text>
</g>
<!-- v4 -->
<g id="node8" class="node">
<title>v4</title>
<ellipse fill="none" stroke="#000000" cx="294.5" cy="-113.5" rx="14.5" ry="14.5"/>
<text text-anchor="middle" x="294.5" y="-111" font-family="Courier,monospace" font-weight="bold" font-size="10.00" fill="#000000">v4</text>
</g>
<!-- N3&#45;&#45;v4 -->
<g id="edge2" class="edge">
<title>N3&#45;&#45;v4</title>
<path fill="none" stroke="#000000" d="M213.0803,-116.0444C231.124,-115.4805 261.6756,-114.5258 279.7825,-113.9599"/>
<text text-anchor="middle" x="246.5" y="-117.5" font-family="Courier,monospace" font-weight="bold" font-size="10.00" fill="#000000">4.0</text>
</g>
<!-- v2 -->
<g id="node6" class="node">
<title>v2</title>
<ellipse fill="none" stroke="#000000" cx="102.5" cy="-48.5" rx="14.5" ry="14.5"/>
<text text-anchor="middle" x="102.5" y="-46" font-family="Courier,monospace" font-weight="bold" font-size="10.00" fill="#000000">v2</text>
</g>
<!-- v2&#45;&#45;N1 -->
<g id="edge3" class="edge">
<title>v2&#45;&#45;N1</title>
<path fill="none" stroke="#000000" d="M117.2119,-47.6789C130.136,-47.2076 149.4119,-47.1124 166,-49.5 172.2586,-50.4008 179.0208,-52.1434 184.7478,-53.8571"/>
<text text-anchor="middle" x="150.5" y="-52.5" font-family="Courier,monospace" font-weight="bold" font-size="10.00" fill="#000000">10.0</text>
</g>
<!-- v5 -->
<g id="node9" class="node">
<title>v5</title>
<ellipse fill="none" stroke="#000000" cx="14.5" cy="-105.5" rx="14.5" ry="14.5"/>
<text text-anchor="middle" x="14.5" y="-103" font-family="Courier,monospace" font-weight="bold" font-size="10.00" fill="#000000">v5</text>
</g>
<!-- v5&#45;&#45;N2 -->
<g id="edge5" class="edge">
<title>v5&#45;&#45;N2</title>
<path fill="none" stroke="#000000" d="M29.0314,-105.5C45.3364,-105.5 71.6332,-105.5 87.947,-105.5"/>
<text text-anchor="middle" x="58.5" y="-108.5" font-family="Courier,monospace" font-weight="bold" font-size="10.00" fill="#000000">7.0</text>
</g>
</g>
</svg>
