<?xml version="1.0" encoding="UTF-8" standalone="no"?>
<!DOCTYPE svg PUBLIC "-//W3C//DTD SVG 1.1//EN"
 "http://www.w3.org/Graphics/SVG/1.1/DTD/svg11.dtd">
<!-- Generated by graphviz version 2.40.1 (0)
 -->
<!-- Title: G Pages: 1 -->
<svg width="397pt" height="158pt"
 viewBox="0.00 0.00 397.00 158.00" xmlns="http://www.w3.org/2000/svg" xmlns:xlink="http://www.w3.org/1999/xlink">
<g id="graph0" class="graph" transform="scale(1 1) rotate(0) translate(4 154)">
<title>G</title>
<polygon fill="#ffffff" stroke="transparent" points="-4,4 -4,-154 393,-154 393,4 -4,4"/>
<!-- N1 -->
<g id="node1" class="node">
<title>N1</title>
<ellipse fill="none" stroke="#000000" cx="190.5" cy="-61.5" rx="14.5" ry="14.5"/>
<text text-anchor="middle" x="190.5" y="-59" font-family="Courier,monospace" font-weight="bold" font-size="10.00" fill="#000000">N1</text>
</g>
<!-- N3 -->
<g id="node3" class="node">
<title>N3</title>
<ellipse fill="none" stroke="#000000" cx="278.5" cy="-88.5" rx="14.5" ry="14.5"/>
<text text-anchor="middle" x="278.5" y="-86" font-family="Courier,monospace" font-weight="bold" font-size="10.00" fill="#000000">N3</text>
</g>
<!-- N1&#45;&#45;N3 -->
<g id="edge7" class="edge">
<title>N1&#45;&#45;N3</title>
<path fill="none" stroke="#000000" d="M204.6387,-65.838C221.0605,-70.8765 247.9896,-79.1389 264.3964,-84.1727"/>
<text text-anchor="middle" x="234.5" y="-80.5" font-family="Courier,monospace" font-weight="bold" font-size="10.00" fill="#000000">4.0</text>
</g>
<!-- v5 -->
<g id="node9" class="node">
<title>v5</title>
<ellipse fill="none" stroke="#000000" cx="278.5" cy="-41.5" rx="14.5" ry="14.5"/>
<text text-anchor="middle" x="278.5" y="-39" font-family="Courier,monospace" font-weight="bold" font-size="10.00" fill="#000000">v5</text>
</g>
<!-- N1&#45;&#45;v5 -->
<g id="edge3" class="edge">
<title>N1&#45;&#45;v5</title>
<path fill="none" stroke="#000000" d="M203.84,-55.2706C209.6174,-52.8086 216.5281,-50.1731 223,-48.5 236.5398,-44.9996 252.4079,-43.2223 263.7008,-42.3372"/>
<text text-anchor="middle" x="234.5" y="-51.5" font-family="Courier,monospace" font-weight="bold" font-size="10.00" fill="#000000">7.0</text>
</g>
<!-- N2 -->
<g id="node2" class="node">
<title>N2</title>
<ellipse fill="none" stroke="#000000" cx="102.5" cy="-31.5" rx="14.5" ry="14.5"/>
<text text-anchor="middle" x="102.5" y="-29" font-family="Courier,monospace" font-weight="bold" font-size="10.00" fill="#000000">N2</text>
</g>
<!-- N2&#45;&#45;N1 -->
<g id="edge5" class="edge">
<title>N2&#45;&#45;N1</title>
<path fill="none" stroke="#000000" d="M116.25,-36.1875C132.6855,-41.7905 160.0353,-51.1143 176.5561,-56.7464"/>
<text text-anchor="middle" x="146.5" y="-52.5" font-family="Courier,monospace" font-weight="bold" font-size="10.00" fill="#000000">3.0</text>
</g>
<!-- v3 -->
<g id="node7" class="node">
<title>v3</title>
<ellipse fill="none" stroke="#000000" cx="190.5" cy="-14.5" rx="14.5" ry="14.5"/>
<text text-anchor="middle" x="190.5" y="-12" font-family="Courier,monospace" font-weight="bold" font-size="10.00" fill="#000000">v3</text>
</g>
<!-- N2&#45;&#45;v3 -->
<g id="edge6" class="edge">
<title>N2&#45;&#45;v3</title>
<path fill="none" stroke="#000000" d="M116.2779,-26.6827C122.0088,-24.8308 128.767,-22.8414 135,-21.5 148.6719,-18.5576 164.5234,-16.7106 175.7767,-15.6576"/>
<text text-anchor="middle" x="146.5" y="-24.5" font-family="Courier,monospace" font-weight="bold" font-size="10.00" fill="#000000">3.0</text>
</g>
<!-- v0 -->
<g id="node4" class="node">
<title>v0</title>
<ellipse fill="none" stroke="#000000" cx="374.5" cy="-135.5" rx="14.5" ry="14.5"/>
<text text-anchor="middle" x="374.5" y="-133" font-family="Courier,monospace" font-weight="bold" font-size="10.00" fill="#000000">v0</text>
</g>
<!-- N3&#45;&#45;v0 -->
<g id="edge2" class="edge">
<title>N3&#45;&#45;v0</title>
<path fill="none" stroke="#000000" d="M291.8484,-95.0351C310.1895,-104.0146 342.9837,-120.0701 361.265,-129.0204"/>
<text text-anchor="middle" x="326.5" y="-121.5" font-family="Courier,monospace" font-weight="bold" font-size="10.00" fill="#000000">11.0</text>
</g>
<!-- v1 -->
<g id="node5" class="node">
<title>v1</title>
<ellipse fill="none" stroke="#000000" cx="374.5" cy="-88.5" rx="14.5" ry="14.5"/>
<text text-anchor="middle" x="374.5" y="-86" font-family="Courier,monospace" font-weight="bold" font-size="10.00" fill="#000000">v1</text>
</g>
<!-- N3&#45;&#45;v1 -->
<g id="edge1" class="edge">
<title>N3&#45;&#45;v1</title>
<path fill="none" stroke="#000000" d="M293.0803,-88.5C311.124,-88.5 341.6756,-88.5 359.7825,-88.5"/>
<text text-anchor="middle" x="326.5" y="-91.5" font-family="Courier,monospace" font-weight="bold" font-size="10.00" fill="#000000">2.0</text>
</g>
<!-- v2 -->
<g id="node6" class="node">
<title>v2</title>
<ellipse fill="none" stroke="#000000" cx="374.5" cy="-41.5" rx="14.5" ry="14.5"/>
<text text-anchor="middle" x="374.5" y="-39" font-family="Courier,monospace" font-weight="bold" font-size="10.00" fill="#000000">v2</text>
</g>
<!-- N3&#45;&#45;v2 -->
<g id="edge8" class="edge">
<title>N3&#45;&#45;v2</title>
<path fill="none" stroke="#000000" d="M291.8484,-81.9649C310.1895,-72.9854 342.9837,-56.9299 361.265,-47.9796"/>
<text text-anchor="middle" x="326.5" y="-74.5" font-family="Courier,monospace" font-weight="bold" font-size="10.00" fill="#000000">10.0</text>
</g>
<!-- v4 -->
<g id="node8" class="node">
<title>v4</title>
<ellipse fill="none" stroke="#000000" cx="14.5" cy="-31.5" rx="14.5" ry="14.5"/>
<text text-anchor="middle" x="14.5" y="-29" font-family="Courier,monospace" font-weight="bold" font-size="10.00" fill="#000000">v4</text>
</g>
<!-- v4&#45;&#45;N2 -->
<g id="edge4" class="edge">
<title>v4&#45;&#45;N2</title>
<path fill="none" stroke="#000000" d="M29.0314,-31.5C45.3364,-31.5 71.6332,-31.5 87.947,-31.5"/>
<text text-anchor="middle" x="58.5" y="-34.5" font-family="Courier,monospace" font-weight="bold" font-size="10.00" fill="#000000">4.0</text>
</g>
</g>
</svg>
