<svg class="bob" font-family="arial" font-size="14" height="448" width="504" xmlns="http://www.w3.org/2000/svg">
<defs>
<marker id="triangle" markerHeight="8" markerWidth="8" orient="auto" refX="4" refY="2" viewBox="0 0 8 4">
<polygon class="fg_fill" points="0,0 0,4 8,2 0,0"/>
</marker>
<marker id="clear_triangle" markerHeight="10" markerWidth="10" orient="auto" refX="1" refY="7" viewBox="0 0 20 14">
<polygon class="bg_fill" points="2,2 2,12 18,7 2,2"/>
</marker>
<marker id="circle" markerHeight="5" markerWidth="5" orient="auto" refX="10" refY="10" viewBox="0 0 20 20">
<circle class="fg_fill" cx="10" cy="10" r="8"/>
</marker>
<marker id="square" markerHeight="5" markerWidth="5" orient="auto" refX="10" refY="10" viewBox="0 0 20 20">
<rect class="fg_fill" height="20" width="20" x="0" y="0"/>
</marker>
<marker id="open_circle" markerHeight="10" markerWidth="10" orient="auto" refX="10" refY="10" viewBox="0 0 20 20">
<circle class="bg_fill" cx="10" cy="10" r="4"/>
</marker>
<marker id="big_open_circle" markerHeight="20" markerWidth="20" orient="auto" refX="20" refY="20" viewBox="0 0 40 40">
<circle class="bg_fill" cx="20" cy="20" r="6"/>
</marker>
</defs>
<style type="text/css">

rect.backdrop {
    fill: white;
}
text{
    fill: black;
}

circle {
    fill: none;
    stroke: black;
    stroke-width: 2;
}

line {
    stroke: black;
    stroke-width: 2;
    stroke-opacity: 1;
    fill-opacity: 1;
    stroke-linecap: round;
    stroke-linejoin: miter;
}

path {
    fill: none;
    stroke: black;
    stroke-width: 2;
    stroke-opacity: 1;
    fill-opacity: 1;
    stroke-linecap: round;
    stroke-linejoin: miter;
}

line.dashed {
    stroke-dasharray: 5;
}

.fg_fill {
    fill: black;
}


.bg_fill {
    fill: white;
    stroke: black;
    stroke-width: 2;
}

tspan.head{
    fill: none;
    stroke: none;
}
    
</style>
<rect class="backdrop" height="448" width="504" x="0" y="0"/>
<g>
<line x1="8" x2="16" y1="64" y2="48"/>
</g>
<g>
<line x1="20" x2="20" y1="48" y2="96"/>
</g>
<g>
<line x1="20" x2="20" y1="384" y2="432"/>
</g>
<g>
<line x1="24" x2="48" y1="40" y2="40"/>
</g>
<g>
<line x1="24" x2="48" y1="48" y2="96"/>
</g>
<g>
<line x1="24" x2="48" y1="104" y2="104"/>
</g>
<g>
<line x1="24" x2="48" y1="384" y2="432"/>
</g>
<g>
<line x1="24" x2="48" y1="440" y2="440"/>
</g>
<g>
<line x1="52" x2="52" y1="48" y2="96"/>
</g>
<g>
<line x1="168" x2="176" y1="240" y2="224"/>
</g>
<g>
<line x1="180" x2="180" y1="384" y2="432"/>
</g>
<g>
<line x1="184" x2="208" y1="376" y2="376"/>
</g>
<g>
<line x1="184" x2="196" y1="384" y2="408"/>
<line x1="196" x2="184" y1="408" y2="432"/>
<line x1="196" x2="208" y1="408" y2="384"/>
<line x1="196" x2="208" y1="408" y2="432"/>
</g>
<g>
<line x1="184" x2="208" y1="440" y2="440"/>
</g>
<g>
<line x1="212" x2="212" y1="384" y2="432"/>
</g>
<g>
<line x1="340" x2="340" y1="224" y2="272"/>
</g>
<g>
<line x1="340" x2="340" y1="384" y2="432"/>
</g>
<g>
<line x1="344" x2="368" y1="376" y2="376"/>
</g>
<g>
<line x1="344" x2="356" y1="384" y2="408"/>
<line x1="356" x2="344" y1="408" y2="432"/>
<line x1="356" x2="368" y1="408" y2="384"/>
<line x1="356" x2="368" y1="408" y2="432"/>
</g>
<g>
<line x1="344" x2="368" y1="440" y2="440"/>
</g>
<g>
<line x1="372" x2="372" y1="384" y2="432"/>
</g>
<g>
<text x="1" y="12">
original:
</text>
</g>
<g>
<text x="1" y="76">
t
</text>
</g>
<g>
<text x="1" y="172">
step1:
</text>
</g>
<g>
<text x="1" y="188">
prime with a
</text>
</g>
<g>
<text x="1" y="332">
step4:
</text>
</g>
<g>
<text x="1" y="348">
add c
</text>
</g>
<g>
<text x="17" y="44">
a
</text>
</g>
<g>
<text x="17" y="108">
b
</text>
</g>
<g>
<text x="17" y="220">
a
</text>
</g>
<g>
<text x="17" y="380">
a
</text>
</g>
<g>
<text x="17" y="444">
b
</text>
</g>
<g>
<text x="49" y="44">
d
</text>
</g>
<g>
<text x="49" y="108">
c
</text>
</g>
<g>
<text x="49" y="444">
c
</text>
</g>
<g>
<text x="161" y="172">
step2:
</text>
</g>
<g>
<text x="161" y="188">
add t
</text>
</g>
<g>
<text x="161" y="252">
t
</text>
</g>
<g>
<text x="161" y="332">
step4:
</text>
</g>
<g>
<text x="161" y="348">
add d
</text>
</g>
<g>
<text x="177" y="220">
a
</text>
</g>
<g>
<text x="177" y="380">
a
</text>
</g>
<g>
<text x="177" y="444">
b
</text>
</g>
<g>
<text x="209" y="380">
d
</text>
</g>
<g>
<text x="209" y="444">
c
</text>
</g>
<g>
<text x="321" y="172">
step3:
</text>
</g>
<g>
<text x="321" y="188">
add b, remove t
</text>
</g>
<g>
<text x="321" y="332">
step5:   (done)
</text>
</g>
<g>
<text x="321" y="348">
nothing to add/remove
</text>
</g>
<g>
<text x="337" y="220">
a
</text>
</g>
<g>
<text x="337" y="284">
b
</text>
</g>
<g>
<text x="337" y="380">
a
</text>
</g>
<g>
<text x="337" y="444">
b
</text>
</g>
<g>
<text x="369" y="380">
d
</text>
</g>
<g>
<text x="369" y="444">
c
</text>
</g>
</svg>
