<svg class="bob" font-family="arial" font-size="14" height="416" width="1344" xmlns="http://www.w3.org/2000/svg">
<defs>
<marker id="triangle" markerHeight="8" markerWidth="8" orient="auto" refX="4" refY="2" viewBox="0 0 8 4">
<polygon class="fg_fill" points="0,0 0,4 8,2 0,0"/>
</marker>
<marker id="clear_triangle" markerHeight="10" markerWidth="10" orient="auto" refX="1" refY="7" viewBox="0 0 20 14">
<polygon class="bg_fill" points="2,2 2,12 18,7 2,2"/>
</marker>
<marker id="circle" markerHeight="5" markerWidth="5" orient="auto" refX="10" refY="10" viewBox="0 0 20 20">
<circle class="fg_fill" cx="10" cy="10" r="8"/>
</marker>
<marker id="square" markerHeight="5" markerWidth="5" orient="auto" refX="10" refY="10" viewBox="0 0 20 20">
<rect class="fg_fill" height="20" width="20" x="0" y="0"/>
</marker>
<marker id="open_circle" markerHeight="10" markerWidth="10" orient="auto" refX="10" refY="10" viewBox="0 0 20 20">
<circle class="bg_fill" cx="10" cy="10" r="4"/>
</marker>
<marker id="big_open_circle" markerHeight="20" markerWidth="20" orient="auto" refX="20" refY="20" viewBox="0 0 40 40">
<circle class="bg_fill" cx="20" cy="20" r="6"/>
</marker>
</defs>
<style type="text/css">

rect.backdrop {
    fill: white;
}
text{
    fill: black;
}

circle {
    fill: none;
    stroke: black;
    stroke-width: 2;
}

line {
    stroke: black;
    stroke-width: 2;
    stroke-opacity: 1;
    fill-opacity: 1;
    stroke-linecap: round;
    stroke-linejoin: miter;
}

path {
    fill: none;
    stroke: black;
    stroke-width: 2;
    stroke-opacity: 1;
    fill-opacity: 1;
    stroke-linecap: round;
    stroke-linejoin: miter;
}

line.dashed {
    stroke-dasharray: 5;
}

.fg_fill {
    fill: black;
}


.bg_fill {
    fill: white;
    stroke: black;
    stroke-width: 2;
}

tspan.head{
    fill: none;
    stroke: none;
}
    
</style>
<rect class="backdrop" height="416" width="1344" x="0" y="0"/>
<g>
<line x1="4" x2="4" y1="200" y2="248"/>
<line x1="4" x2="44" y1="200" y2="200"/>
<line x1="4" x2="20" y1="248" y2="248"/>
<line marker-end="url(#triangle)" x1="20" x2="20" y1="248" y2="284"/>
<line x1="20" x2="44" y1="248" y2="248"/>
<line x1="44" x2="44" y1="200" y2="216"/>
<line x1="44" x2="44" y1="216" y2="248"/>
<line x1="44" x2="48" y1="216" y2="216"/>
<path d="M 48 216 A 8 8 0 0 0 54 212"/>
</g>
<g>
<line x1="4" x2="4" y1="296" y2="344"/>
<line x1="4" x2="44" y1="296" y2="296"/>
<line x1="4" x2="44" y1="344" y2="344"/>
<line x1="44" x2="44" y1="296" y2="312"/>
<line x1="44" x2="44" y1="312" y2="344"/>
<line x1="44" x2="48" y1="312" y2="312"/>
<path d="M 48 312 A 8 8 0 0 0 54 308"/>
</g>
<g>
<line x1="72" x2="104" y1="24" y2="24"/>
</g>
<g>
<line x1="90" x2="54" y1="236" y2="308"/>
<path d="M 96 232 A 8 8 0 0 0 90 236"/>
</g>
<g>
<line marker-end="url(#triangle)" x1="96" x2="148" y1="232" y2="232"/>
</g>
<g>
<line x1="98" x2="54" y1="124" y2="212"/>
<path d="M 104 120 A 8 8 0 0 0 98 124"/>
</g>
<g>
<line marker-end="url(#triangle)" x1="104" x2="148" y1="120" y2="120"/>
</g>
<g>
<line x1="156" x2="156" y1="88" y2="136"/>
<line x1="156" x2="196" y1="88" y2="88"/>
<line x1="156" x2="196" y1="136" y2="136"/>
<line x1="196" x2="196" y1="88" y2="104"/>
<line x1="196" x2="196" y1="104" y2="136"/>
<line x1="196" x2="224" y1="104" y2="104"/>
<path d="M 228 108 A 4 4 0 0 0 224 104"/>
</g>
<g>
<line x1="156" x2="156" y1="200" y2="248"/>
<line x1="156" x2="196" y1="200" y2="200"/>
<line x1="156" x2="172" y1="248" y2="248"/>
<line marker-end="url(#triangle)" x1="172" x2="172" y1="248" y2="284"/>
<line x1="172" x2="196" y1="248" y2="248"/>
<line x1="196" x2="196" y1="200" y2="232"/>
<line x1="196" x2="196" y1="232" y2="248"/>
<line x1="196" x2="224" y1="232" y2="232"/>
<path d="M 224 232 A 4 4 0 0 0 228 228"/>
</g>
<g>
<line x1="156" x2="156" y1="296" y2="344"/>
<line x1="156" x2="196" y1="296" y2="296"/>
<line x1="156" x2="196" y1="344" y2="344"/>
<line x1="196" x2="196" y1="296" y2="312"/>
<line x1="196" x2="196" y1="312" y2="344"/>
<line x1="196" x2="240" y1="312" y2="312"/>
<path d="M 240 312 A 4 4 0 0 0 244 308"/>
</g>
<g>
<line marker-end="url(#triangle)" x1="176" x2="196" y1="24" y2="24"/>
</g>
<g>
<line x1="220" x2="220" y1="152" y2="184"/>
<line x1="220" x2="276" y1="152" y2="152"/>
<line x1="220" x2="276" y1="184" y2="184"/>
<line x1="276" x2="276" y1="152" y2="184"/>
</g>
<g>
<line marker-end="url(#triangle)" x1="228" x2="228" y1="108" y2="140"/>
</g>
<g>
<line marker-end="url(#triangle)" x1="228" x2="228" y1="208" y2="196"/>
<line x1="228" x2="228" y1="208" y2="228"/>
</g>
<g>
<line marker-end="url(#triangle)" x1="244" x2="244" y1="208" y2="196"/>
<line x1="244" x2="244" y1="208" y2="308"/>
</g>
<g>
<line x1="492" x2="492" y1="200" y2="248"/>
<line x1="492" x2="532" y1="200" y2="200"/>
<line x1="492" x2="508" y1="248" y2="248"/>
<line marker-end="url(#triangle)" x1="508" x2="508" y1="248" y2="284"/>
<line x1="508" x2="532" y1="248" y2="248"/>
<line x1="532" x2="532" y1="200" y2="216"/>
<line x1="532" x2="532" y1="216" y2="248"/>
<line x1="532" x2="536" y1="216" y2="216"/>
<path d="M 536 216 A 8 8 0 0 0 542 212"/>
</g>
<g>
<line x1="492" x2="492" y1="296" y2="344"/>
<line x1="492" x2="532" y1="296" y2="296"/>
<line x1="492" x2="532" y1="344" y2="344"/>
<line x1="532" x2="532" y1="296" y2="312"/>
<line x1="532" x2="532" y1="312" y2="344"/>
<line x1="532" x2="536" y1="312" y2="312"/>
<path d="M 536 312 A 8 8 0 0 0 542 308"/>
</g>
<g>
<line marker-end="url(#triangle)" x1="568" x2="564" y1="24" y2="24"/>
<line x1="568" x2="592" y1="24" y2="24"/>
</g>
<g>
<line x1="578" x2="542" y1="236" y2="308"/>
<path d="M 584 232 A 8 8 0 0 0 578 236"/>
</g>
<g>
<line marker-end="url(#triangle)" x1="584" x2="636" y1="232" y2="232"/>
</g>
<g>
<line x1="586" x2="542" y1="124" y2="212"/>
<path d="M 592 120 A 8 8 0 0 0 586 124"/>
</g>
<g>
<line marker-end="url(#triangle)" x1="592" x2="636" y1="120" y2="120"/>
</g>
<g>
<line x1="644" x2="644" y1="88" y2="136"/>
<line x1="644" x2="684" y1="88" y2="88"/>
<line x1="644" x2="684" y1="136" y2="136"/>
<line x1="684" x2="684" y1="88" y2="104"/>
<line x1="684" x2="684" y1="104" y2="136"/>
<line x1="684" x2="712" y1="104" y2="104"/>
<path d="M 716 108 A 4 4 0 0 0 712 104"/>
</g>
<g>
<line x1="644" x2="644" y1="200" y2="248"/>
<line x1="644" x2="684" y1="200" y2="200"/>
<line x1="644" x2="660" y1="248" y2="248"/>
<line marker-end="url(#triangle)" x1="660" x2="660" y1="248" y2="284"/>
<line x1="660" x2="684" y1="248" y2="248"/>
<line x1="684" x2="684" y1="200" y2="232"/>
<line x1="684" x2="684" y1="232" y2="248"/>
<line x1="684" x2="712" y1="232" y2="232"/>
<path d="M 712 232 A 4 4 0 0 0 716 228"/>
</g>
<g>
<line x1="644" x2="644" y1="296" y2="344"/>
<line x1="644" x2="684" y1="296" y2="296"/>
<line x1="644" x2="684" y1="344" y2="344"/>
<line x1="684" x2="684" y1="296" y2="312"/>
<line x1="684" x2="684" y1="312" y2="344"/>
<line x1="684" x2="728" y1="312" y2="312"/>
<path d="M 728 312 A 4 4 0 0 0 732 308"/>
</g>
<g>
<line x1="672" x2="696" y1="24" y2="24"/>
</g>
<g>
<line x1="708" x2="708" y1="152" y2="184"/>
<line x1="708" x2="764" y1="152" y2="152"/>
<line x1="708" x2="764" y1="184" y2="184"/>
<line x1="764" x2="764" y1="152" y2="184"/>
</g>
<g>
<line marker-end="url(#triangle)" x1="716" x2="716" y1="108" y2="140"/>
</g>
<g>
<line marker-end="url(#triangle)" x1="716" x2="716" y1="208" y2="196"/>
<line x1="716" x2="716" y1="208" y2="228"/>
</g>
<g>
<line marker-end="url(#triangle)" x1="732" x2="732" y1="208" y2="196"/>
<line x1="732" x2="732" y1="208" y2="308"/>
</g>
<g>
<line x1="972" x2="972" y1="200" y2="248"/>
<line x1="972" x2="1012" y1="200" y2="200"/>
<line x1="972" x2="988" y1="248" y2="248"/>
<line marker-end="url(#triangle)" x1="988" x2="988" y1="248" y2="284"/>
<line x1="988" x2="1012" y1="248" y2="248"/>
<line x1="1012" x2="1012" y1="200" y2="216"/>
<line x1="1012" x2="1012" y1="216" y2="248"/>
<line x1="1012" x2="1016" y1="216" y2="216"/>
<path d="M 1016 216 A 8 8 0 0 0 1022 212"/>
</g>
<g>
<line x1="972" x2="972" y1="296" y2="344"/>
<line x1="972" x2="1012" y1="296" y2="296"/>
<line x1="972" x2="1012" y1="344" y2="344"/>
<line x1="1012" x2="1012" y1="296" y2="312"/>
<line x1="1012" x2="1012" y1="312" y2="328"/>
<line x1="1012" x2="1016" y1="312" y2="312"/>
<line x1="1012" x2="1012" y1="328" y2="344"/>
<line x1="1012" x2="1016" y1="328" y2="328"/>
<path d="M 1016 312 A 8 8 0 0 0 1022 308"/>
<path d="M 1016 328 A 8 8 0 0 0 1022 324"/>
</g>
<g>
<line marker-end="url(#triangle)" x1="1040" x2="1036" y1="24" y2="24"/>
<line x1="1040" x2="1064" y1="24" y2="24"/>
</g>
<g>
<line x1="1066" x2="1022" y1="124" y2="212"/>
<path d="M 1072 120 A 8 8 0 0 0 1066 124"/>
</g>
<g>
<line x1="1066" x2="1022" y1="236" y2="324"/>
<path d="M 1072 232 A 8 8 0 0 0 1066 236"/>
</g>
<g>
<line marker-end="url(#triangle)" x1="1072" x2="1116" y1="120" y2="120"/>
</g>
<g>
<line marker-end="url(#triangle)" x1="1072" x2="1116" y1="232" y2="232"/>
</g>
<g>
<line x1="1074" x2="1022" y1="204" y2="308"/>
<path d="M 1080 200 A 8 8 0 0 0 1074 204"/>
</g>
<g>
<line marker-end="url(#triangle)" x1="1080" x2="1100" y1="200" y2="200"/>
</g>
<g>
<line x1="1108" x2="1108" y1="168" y2="216"/>
<line x1="1108" x2="1148" y1="168" y2="168"/>
<line x1="1108" x2="1124" y1="216" y2="216"/>
<line x1="1148" x2="1148" y1="168" y2="184"/>
<line x1="1148" x2="1148" y1="184" y2="200"/>
<line x1="1148" x2="1176" y1="184" y2="184"/>
<line x1="1148" x2="1164" y1="200" y2="200"/>
<line x1="1164" x2="1164" y1="200" y2="248"/>
<path d="M 1180 188 A 4 4 0 0 0 1176 184"/>
</g>
<g>
<line x1="1124" x2="1124" y1="88" y2="136"/>
<line x1="1124" x2="1164" y1="88" y2="88"/>
<line x1="1124" x2="1164" y1="136" y2="136"/>
<line x1="1164" x2="1164" y1="88" y2="104"/>
<line x1="1164" x2="1164" y1="104" y2="136"/>
<line x1="1164" x2="1208" y1="104" y2="104"/>
<path d="M 1212 108 A 4 4 0 0 0 1208 104"/>
</g>
<g>
<line x1="1124" x2="1124" y1="200" y2="248"/>
<line x1="1124" x2="1148" y1="200" y2="200"/>
<line x1="1124" x2="1140" y1="248" y2="248"/>
<line marker-end="url(#triangle)" x1="1140" x2="1140" y1="248" y2="284"/>
<line x1="1140" x2="1164" y1="248" y2="248"/>
</g>
<g>
<line x1="1124" x2="1124" y1="296" y2="344"/>
<line x1="1124" x2="1164" y1="296" y2="296"/>
<line x1="1124" x2="1164" y1="344" y2="344"/>
<line x1="1164" x2="1164" y1="296" y2="312"/>
<line x1="1164" x2="1164" y1="312" y2="344"/>
<line x1="1164" x2="1224" y1="312" y2="312"/>
<path d="M 1224 312 A 4 4 0 0 0 1228 308"/>
</g>
<g>
<line x1="1144" x2="1168" y1="24" y2="24"/>
</g>
<g>
<line x1="1180" x2="1180" y1="188" y2="228"/>
<path d="M 1180 228 A 4 4 0 0 0 1184 232"/>
</g>
<g>
<line x1="1184" x2="1208" y1="232" y2="232"/>
<path d="M 1208 232 A 4 4 0 0 0 1212 228"/>
</g>
<g>
<line x1="1204" x2="1204" y1="152" y2="184"/>
<line x1="1204" x2="1260" y1="152" y2="152"/>
<line x1="1204" x2="1260" y1="184" y2="184"/>
<line x1="1260" x2="1260" y1="152" y2="184"/>
</g>
<g>
<line marker-end="url(#triangle)" x1="1212" x2="1212" y1="108" y2="140"/>
</g>
<g>
<line marker-end="url(#triangle)" x1="1212" x2="1212" y1="208" y2="196"/>
<line x1="1212" x2="1212" y1="208" y2="228"/>
</g>
<g>
<line marker-end="url(#triangle)" x1="1228" x2="1228" y1="208" y2="196"/>
<line x1="1228" x2="1228" y1="208" y2="308"/>
</g>
<g>
<text x="1" y="380">
c + d + e =
</text>
</g>
<g>
<text x="17" y="220">
B1
</text>
</g>
<g>
<text x="17" y="316">
C1
</text>
</g>
<g>
<text x="25" y="60">
z
</text>
</g>
<g>
<text x="73" y="12">
RIGHT-HAND SIDE
</text>
</g>
<g>
<text x="113" y="28">
forward
</text>
</g>
<g>
<text x="113" y="380">
Pr(B-&gt;A|y) +
</text>
</g>
<g>
<text x="113" y="396">
Pr(B-&gt;C) * Pr(C-&gt;B|y) +
</text>
</g>
<g>
<text x="113" y="412">
Pr(B-&gt;C) * Pr(C-&gt;B|y) * Pr(B-&gt;C)
</text>
</g>
<g>
<text x="169" y="108">
A2
</text>
</g>
<g>
<text x="169" y="220">
B2
</text>
</g>
<g>
<text x="169" y="316">
C2
</text>
</g>
<g>
<text x="177" y="60">
y
</text>
</g>
<g>
<text x="233" y="172">
SINK
</text>
</g>
<g>
<text x="489" y="380">
c + d + e =
</text>
</g>
<g>
<text x="505" y="220">
B1
</text>
</g>
<g>
<text x="505" y="316">
C1
</text>
</g>
<g>
<text x="513" y="60">
z
</text>
</g>
<g>
<text x="561" y="12">
RIGHT-HAND SIDE
</text>
</g>
<g>
<text x="569" y="44">
(non-exploded)
</text>
</g>
<g>
<text x="601" y="28">
backward
</text>
</g>
<g>
<text x="601" y="380">
Pr(B-&gt;A|y) +
</text>
</g>
<g>
<text x="601" y="396">
Pr(B-&gt;C) * Pr(C-&gt;B|y) * Pr(B-&gt;C) +
</text>
</g>
<g>
<text x="601" y="412">
Pr(B-&gt;C) * Pr(C-&gt;B|y) * Pr(B-&gt;C)
</text>
</g>
<g>
<text x="657" y="108">
A2
</text>
</g>
<g>
<text x="657" y="220">
B2
</text>
</g>
<g>
<text x="657" y="316">
C2
</text>
</g>
<g>
<text x="665" y="60">
y
</text>
</g>
<g>
<text x="721" y="172">
SINK
</text>
</g>
<g>
<text x="961" y="380">
c + d + e =
</text>
</g>
<g>
<text x="985" y="220">
B1
</text>
</g>
<g>
<text x="985" y="316">
C1
</text>
</g>
<g>
<text x="993" y="60">
z
</text>
</g>
<g>
<text x="1033" y="12">
RIGHT-HAND SIDE
</text>
</g>
<g>
<text x="1057" y="44">
(exploded)
</text>
</g>
<g>
<text x="1073" y="28">
backward
</text>
</g>
<g>
<text x="1073" y="380">
Pr(B-&gt;A|y) +
</text>
</g>
<g>
<text x="1073" y="396">
Pr(C-&gt;B|y) * Pr(B-&gt;C) +
</text>
</g>
<g>
<text x="1073" y="412">
Pr(B-&gt;C) * Pr(C-&gt;B|y) * Pr(B-&gt;C)
</text>
</g>
<g>
<text x="1121" y="188">
B2
</text>
</g>
<g>
<text x="1137" y="108">
A2
</text>
</g>
<g>
<text x="1137" y="220">
B2
</text>
</g>
<g>
<text x="1137" y="316">
C2
</text>
</g>
<g>
<text x="1145" y="60">
y
</text>
</g>
<g>
<text x="1217" y="172">
SINK
</text>
</g>
</svg>
