<svg class="bob" font-family="arial" font-size="14" height="304" width="456" xmlns="http://www.w3.org/2000/svg">
<defs>
<marker id="triangle" markerHeight="8" markerWidth="8" orient="auto" refX="4" refY="2" viewBox="0 0 8 4">
<polygon class="fg_fill" points="0,0 0,4 8,2 0,0"/>
</marker>
<marker id="clear_triangle" markerHeight="10" markerWidth="10" orient="auto" refX="1" refY="7" viewBox="0 0 20 14">
<polygon class="bg_fill" points="2,2 2,12 18,7 2,2"/>
</marker>
<marker id="circle" markerHeight="5" markerWidth="5" orient="auto" refX="10" refY="10" viewBox="0 0 20 20">
<circle class="fg_fill" cx="10" cy="10" r="8"/>
</marker>
<marker id="square" markerHeight="5" markerWidth="5" orient="auto" refX="10" refY="10" viewBox="0 0 20 20">
<rect class="fg_fill" height="20" width="20" x="0" y="0"/>
</marker>
<marker id="open_circle" markerHeight="10" markerWidth="10" orient="auto" refX="10" refY="10" viewBox="0 0 20 20">
<circle class="bg_fill" cx="10" cy="10" r="4"/>
</marker>
<marker id="big_open_circle" markerHeight="20" markerWidth="20" orient="auto" refX="20" refY="20" viewBox="0 0 40 40">
<circle class="bg_fill" cx="20" cy="20" r="6"/>
</marker>
</defs>
<style type="text/css">

rect.backdrop {
    fill: white;
}
text{
    fill: black;
}

circle {
    fill: none;
    stroke: black;
    stroke-width: 2;
}

line {
    stroke: black;
    stroke-width: 2;
    stroke-opacity: 1;
    fill-opacity: 1;
    stroke-linecap: round;
    stroke-linejoin: miter;
}

path {
    fill: none;
    stroke: black;
    stroke-width: 2;
    stroke-opacity: 1;
    fill-opacity: 1;
    stroke-linecap: round;
    stroke-linejoin: miter;
}

line.dashed {
    stroke-dasharray: 5;
}

.fg_fill {
    fill: black;
}


.bg_fill {
    fill: white;
    stroke: black;
    stroke-width: 2;
}

tspan.head{
    fill: none;
    stroke: none;
}
    
</style>
<rect class="backdrop" height="304" width="456" x="0" y="0"/>
<g>
<line x1="112" x2="184" y1="8" y2="8"/>
<path d="M 112 8 A 4 4 0 0 0 108 12"/>
<path d="M 188 12 A 4 4 0 0 0 184 8"/>
</g>
<g>
<line x1="112" x2="184" y1="56" y2="56"/>
<path d="M 108 52 A 4 4 0 0 0 112 56"/>
<path d="M 184 56 A 4 4 0 0 0 188 52"/>
</g>
<g>
<line x1="176" x2="264" y1="88" y2="88"/>
<path d="M 176 88 A 4 4 0 0 0 172 92"/>
<path d="M 268 92 A 4 4 0 0 0 264 88"/>
</g>
<g>
<line x1="176" x2="264" y1="136" y2="136"/>
<path d="M 172 132 A 4 4 0 0 0 176 136"/>
<path d="M 264 136 A 4 4 0 0 0 268 132"/>
</g>
<g>
<line x1="176" x2="248" y1="248" y2="248"/>
<path d="M 176 248 A 4 4 0 0 0 172 252"/>
<path d="M 252 252 A 4 4 0 0 0 248 248"/>
</g>
<g>
<line x1="176" x2="248" y1="296" y2="296"/>
<path d="M 172 292 A 4 4 0 0 0 176 296"/>
<path d="M 248 296 A 4 4 0 0 0 252 292"/>
</g>
<g>
<line x1="208" x2="328" y1="168" y2="168"/>
<path d="M 208 168 A 4 4 0 0 0 204 172"/>
<path d="M 332 172 A 4 4 0 0 0 328 168"/>
</g>
<g>
<line x1="208" x2="328" y1="216" y2="216"/>
<path d="M 204 212 A 4 4 0 0 0 208 216"/>
<path d="M 328 216 A 4 4 0 0 0 332 212"/>
</g>
<g>
<text x="1" y="28">
DB Seq 1:
</text>
</g>
<g>
<text x="1" y="44">
Quey Seq:
</text>
</g>
<g>
<text x="1" y="108">
DB Seq 2:
</text>
</g>
<g>
<text x="1" y="124">
Quey Seq:
</text>
</g>
<g>
<text x="1" y="188">
DB Seq 3:
</text>
</g>
<g>
<text x="1" y="204">
Quey Seq:
</text>
</g>
<g>
<text x="1" y="268">
DB Seq 4:
</text>
</g>
<g>
<text x="1" y="284">
Quey Seq:
</text>
</g>
<g>
<text x="97" y="44">
G
</text>
</g>
<g>
<text x="97" y="108">
G
</text>
</g>
<g>
<text x="97" y="188">
T
</text>
</g>
<g>
<text x="97" y="268">
G
</text>
</g>
<g>
<text x="113" y="28">
A
</text>
</g>
<g>
<text x="113" y="44">
A
</text>
</g>
<g>
<text x="113" y="108">
G
</text>
</g>
<g>
<text x="113" y="188">
T
</text>
</g>
<g>
<text x="113" y="268">
G
</text>
</g>
<g>
<text x="129" y="28">
C
</text>
</g>
<g>
<text x="129" y="44">
C
</text>
</g>
<g>
<text x="129" y="108">
C
</text>
</g>
<g>
<text x="129" y="188">
A
</text>
</g>
<g>
<text x="129" y="268">
C
</text>
</g>
<g>
<text x="145" y="28">
C
</text>
</g>
<g>
<text x="145" y="44">
C
</text>
</g>
<g>
<text x="145" y="108">
G
</text>
</g>
<g>
<text x="145" y="188">
G
</text>
</g>
<g>
<text x="145" y="268">
G
</text>
</g>
<g>
<text x="161" y="28">
C
</text>
</g>
<g>
<text x="161" y="44">
C
</text>
</g>
<g>
<text x="161" y="108">
T
</text>
</g>
<g>
<text x="161" y="124">
G
</text>
</g>
<g>
<text x="161" y="188">
G
</text>
</g>
<g>
<text x="161" y="268">
T
</text>
</g>
<g>
<text x="161" y="284">
G
</text>
</g>
<g>
<text x="177" y="28">
T
</text>
</g>
<g>
<text x="177" y="44">
T
</text>
</g>
<g>
<text x="177" y="108">
A
</text>
</g>
<g>
<text x="177" y="124">
A
</text>
</g>
<g>
<text x="177" y="188">
C
</text>
</g>
<g>
<text x="177" y="268">
C
</text>
</g>
<g>
<text x="177" y="284">
A
</text>
</g>
<g>
<text x="193" y="28">
G
</text>
</g>
<g>
<text x="193" y="44">
T
</text>
</g>
<g>
<text x="193" y="108">
C
</text>
</g>
<g>
<text x="193" y="124">
C
</text>
</g>
<g>
<text x="193" y="188">
C
</text>
</g>
<g>
<text x="193" y="204">
G
</text>
</g>
<g>
<text x="193" y="268">
C
</text>
</g>
<g>
<text x="193" y="284">
C
</text>
</g>
<g>
<text x="209" y="28">
G
</text>
</g>
<g>
<text x="209" y="44">
A
</text>
</g>
<g>
<text x="209" y="108">
C
</text>
</g>
<g>
<text x="209" y="124">
C
</text>
</g>
<g>
<text x="209" y="188">
A
</text>
</g>
<g>
<text x="209" y="204">
A
</text>
</g>
<g>
<text x="209" y="268">
C
</text>
</g>
<g>
<text x="209" y="284">
C
</text>
</g>
<g>
<text x="225" y="28">
G
</text>
</g>
<g>
<text x="225" y="44">
A
</text>
</g>
<g>
<text x="225" y="108">
C
</text>
</g>
<g>
<text x="225" y="124">
C
</text>
</g>
<g>
<text x="225" y="188">
C
</text>
</g>
<g>
<text x="225" y="204">
C
</text>
</g>
<g>
<text x="225" y="268">
C
</text>
</g>
<g>
<text x="225" y="284">
C
</text>
</g>
<g>
<text x="241" y="28">
C
</text>
</g>
<g>
<text x="241" y="44">
G
</text>
</g>
<g>
<text x="241" y="108">
T
</text>
</g>
<g>
<text x="241" y="124">
T
</text>
</g>
<g>
<text x="241" y="188">
C
</text>
</g>
<g>
<text x="241" y="204">
C
</text>
</g>
<g>
<text x="241" y="268">
T
</text>
</g>
<g>
<text x="241" y="284">
T
</text>
</g>
<g>
<text x="257" y="28">
G
</text>
</g>
<g>
<text x="257" y="44">
A
</text>
</g>
<g>
<text x="257" y="108">
T
</text>
</g>
<g>
<text x="257" y="124">
T
</text>
</g>
<g>
<text x="257" y="188">
C
</text>
</g>
<g>
<text x="257" y="204">
C
</text>
</g>
<g>
<text x="257" y="268">
T
</text>
</g>
<g>
<text x="257" y="284">
T
</text>
</g>
<g>
<text x="273" y="28">
T
</text>
</g>
<g>
<text x="273" y="44">
A
</text>
</g>
<g>
<text x="273" y="108">
T
</text>
</g>
<g>
<text x="273" y="124">
A
</text>
</g>
<g>
<text x="273" y="188">
T
</text>
</g>
<g>
<text x="273" y="204">
T
</text>
</g>
<g>
<text x="273" y="268">
G
</text>
</g>
<g>
<text x="273" y="284">
A
</text>
</g>
<g>
<text x="289" y="28">
T
</text>
</g>
<g>
<text x="289" y="44">
A
</text>
</g>
<g>
<text x="289" y="108">
A
</text>
</g>
<g>
<text x="289" y="124">
A
</text>
</g>
<g>
<text x="289" y="188">
T
</text>
</g>
<g>
<text x="289" y="204">
T
</text>
</g>
<g>
<text x="289" y="268">
T
</text>
</g>
<g>
<text x="289" y="284">
A
</text>
</g>
<g>
<text x="305" y="28">
A
</text>
</g>
<g>
<text x="305" y="44">
A
</text>
</g>
<g>
<text x="305" y="108">
C
</text>
</g>
<g>
<text x="305" y="124">
G
</text>
</g>
<g>
<text x="305" y="188">
A
</text>
</g>
<g>
<text x="305" y="204">
A
</text>
</g>
<g>
<text x="305" y="268">
A
</text>
</g>
<g>
<text x="305" y="284">
G
</text>
</g>
<g>
<text x="321" y="28">
C
</text>
</g>
<g>
<text x="321" y="44">
G
</text>
</g>
<g>
<text x="321" y="108">
G
</text>
</g>
<g>
<text x="321" y="124">
A
</text>
</g>
<g>
<text x="321" y="188">
A
</text>
</g>
<g>
<text x="321" y="204">
A
</text>
</g>
<g>
<text x="321" y="268">
C
</text>
</g>
<g>
<text x="321" y="284">
A
</text>
</g>
<g>
<text x="337" y="28">
G
</text>
</g>
<g>
<text x="337" y="44">
T
</text>
</g>
<g>
<text x="337" y="108">
T
</text>
</g>
<g>
<text x="337" y="124">
A
</text>
</g>
<g>
<text x="337" y="188">
T
</text>
</g>
<g>
<text x="337" y="204">
G
</text>
</g>
<g>
<text x="337" y="268">
G
</text>
</g>
<g>
<text x="337" y="284">
A
</text>
</g>
<g>
<text x="353" y="28">
T
</text>
</g>
<g>
<text x="353" y="44">
T
</text>
</g>
<g>
<text x="353" y="124">
A
</text>
</g>
<g>
<text x="353" y="204">
A
</text>
</g>
<g>
<text x="353" y="268">
T
</text>
</g>
<g>
<text x="353" y="284">
A
</text>
</g>
<g>
<text x="369" y="124">
A
</text>
</g>
<g>
<text x="369" y="204">
A
</text>
</g>
<g>
<text x="369" y="284">
A
</text>
</g>
<g>
<text x="385" y="124">
G
</text>
</g>
<g>
<text x="385" y="204">
A
</text>
</g>
<g>
<text x="385" y="284">
G
</text>
</g>
<g>
<text x="401" y="124">
T
</text>
</g>
<g>
<text x="401" y="204">
A
</text>
</g>
<g>
<text x="401" y="284">
T
</text>
</g>
<g>
<text x="417" y="124">
T
</text>
</g>
<g>
<text x="417" y="204">
G
</text>
</g>
<g>
<text x="417" y="284">
T
</text>
</g>
<g>
<text x="433" y="204">
T
</text>
</g>
<g>
<text x="449" y="204">
T
</text>
</g>
</svg>
