<svg class="bob" font-family="arial" font-size="14" height="320" width="136" xmlns="http://www.w3.org/2000/svg">
<defs>
<marker id="triangle" markerHeight="8" markerWidth="8" orient="auto" refX="4" refY="2" viewBox="0 0 8 4">
<polygon class="fg_fill" points="0,0 0,4 8,2 0,0"/>
</marker>
<marker id="clear_triangle" markerHeight="10" markerWidth="10" orient="auto" refX="1" refY="7" viewBox="0 0 20 14">
<polygon class="bg_fill" points="2,2 2,12 18,7 2,2"/>
</marker>
<marker id="circle" markerHeight="5" markerWidth="5" orient="auto" refX="10" refY="10" viewBox="0 0 20 20">
<circle class="fg_fill" cx="10" cy="10" r="8"/>
</marker>
<marker id="square" markerHeight="5" markerWidth="5" orient="auto" refX="10" refY="10" viewBox="0 0 20 20">
<rect class="fg_fill" height="20" width="20" x="0" y="0"/>
</marker>
<marker id="open_circle" markerHeight="10" markerWidth="10" orient="auto" refX="10" refY="10" viewBox="0 0 20 20">
<circle class="bg_fill" cx="10" cy="10" r="4"/>
</marker>
<marker id="big_open_circle" markerHeight="20" markerWidth="20" orient="auto" refX="20" refY="20" viewBox="0 0 40 40">
<circle class="bg_fill" cx="20" cy="20" r="6"/>
</marker>
</defs>
<style type="text/css">

rect.backdrop {
    fill: white;
}
text{
    fill: black;
}

circle {
    fill: none;
    stroke: black;
    stroke-width: 2;
}

line {
    stroke: black;
    stroke-width: 2;
    stroke-opacity: 1;
    fill-opacity: 1;
    stroke-linecap: round;
    stroke-linejoin: miter;
}

path {
    fill: none;
    stroke: black;
    stroke-width: 2;
    stroke-opacity: 1;
    fill-opacity: 1;
    stroke-linecap: round;
    stroke-linejoin: miter;
}

line.dashed {
    stroke-dasharray: 5;
}

.fg_fill {
    fill: black;
}


.bg_fill {
    fill: white;
    stroke: black;
    stroke-width: 2;
}

tspan.head{
    fill: none;
    stroke: none;
}
    
</style>
<rect class="backdrop" height="320" width="136" x="0" y="0"/>
<g>
<line marker-end="url(#triangle)" x1="4" x2="4" y1="16" y2="140"/>
</g>
<g>
<line marker-end="url(#triangle)" x1="4" x2="4" y1="176" y2="164"/>
<line x1="4" x2="4" y1="176" y2="304"/>
</g>
<g>
<line marker-end="url(#triangle)" x1="20" x2="20" y1="16" y2="140"/>
</g>
<g>
<line marker-end="url(#triangle)" x1="20" x2="20" y1="176" y2="164"/>
<line x1="20" x2="20" y1="176" y2="260"/>
<path d="M 20 260 A 4 4 0 0 0 24 264"/>
</g>
<g>
<line x1="24" x2="32" y1="264" y2="264"/>
<path d="M 36 268 A 4 4 0 0 0 32 264"/>
</g>
<g>
<line marker-end="url(#triangle)" x1="36" x2="36" y1="60" y2="140"/>
<path d="M 40 56 A 4 4 0 0 0 36 60"/>
</g>
<g>
<line marker-end="url(#triangle)" x1="36" x2="36" y1="176" y2="164"/>
<line x1="36" x2="36" y1="176" y2="244"/>
<path d="M 36 244 A 4 4 0 0 0 40 248"/>
</g>
<g>
<line x1="36" x2="36" y1="268" y2="304"/>
</g>
<g>
<line x1="40" x2="48" y1="56" y2="56"/>
<path d="M 48 56 A 4 4 0 0 0 52 52"/>
</g>
<g>
<line x1="40" x2="48" y1="248" y2="248"/>
<path d="M 52 252 A 4 4 0 0 0 48 248"/>
</g>
<g>
<line x1="52" x2="52" y1="16" y2="52"/>
</g>
<g>
<line marker-end="url(#triangle)" x1="52" x2="52" y1="76" y2="140"/>
<path d="M 56 72 A 4 4 0 0 0 52 76"/>
</g>
<g>
<line marker-end="url(#triangle)" x1="52" x2="52" y1="176" y2="164"/>
<line x1="52" x2="52" y1="176" y2="228"/>
<path d="M 52 228 A 4 4 0 0 0 56 232"/>
</g>
<g>
<line x1="52" x2="52" y1="252" y2="304"/>
</g>
<g>
<line x1="56" x2="64" y1="72" y2="72"/>
<path d="M 64 72 A 4 4 0 0 0 68 68"/>
</g>
<g>
<line x1="56" x2="64" y1="232" y2="232"/>
<path d="M 68 236 A 4 4 0 0 0 64 232"/>
</g>
<g>
<line x1="68" x2="68" y1="16" y2="68"/>
</g>
<g>
<line marker-end="url(#triangle)" x1="68" x2="68" y1="92" y2="140"/>
<path d="M 72 88 A 4 4 0 0 0 68 92"/>
</g>
<g>
<line marker-end="url(#triangle)" x1="68" x2="68" y1="176" y2="164"/>
<line x1="68" x2="68" y1="176" y2="212"/>
<path d="M 68 212 A 4 4 0 0 0 72 216"/>
</g>
<g>
<line x1="68" x2="68" y1="236" y2="304"/>
</g>
<g>
<line x1="72" x2="96" y1="88" y2="88"/>
<path d="M 96 88 A 4 4 0 0 0 100 84"/>
</g>
<g>
<line x1="72" x2="80" y1="216" y2="216"/>
<path d="M 84 220 A 4 4 0 0 0 80 216"/>
</g>
<g>
<line marker-end="url(#triangle)" x1="84" x2="84" y1="108" y2="140"/>
<path d="M 88 104 A 4 4 0 0 0 84 108"/>
</g>
<g>
<line marker-end="url(#triangle)" x1="84" x2="84" y1="176" y2="164"/>
<line x1="84" x2="84" y1="176" y2="196"/>
<path d="M 84 196 A 4 4 0 0 0 88 200"/>
</g>
<g>
<line x1="84" x2="84" y1="220" y2="304"/>
</g>
<g>
<line x1="88" x2="112" y1="104" y2="104"/>
<path d="M 112 104 A 4 4 0 0 0 116 100"/>
</g>
<g>
<line x1="88" x2="112" y1="200" y2="200"/>
<path d="M 116 204 A 4 4 0 0 0 112 200"/>
</g>
<g>
<line x1="100" x2="100" y1="16" y2="84"/>
</g>
<g>
<line x1="116" x2="116" y1="16" y2="100"/>
</g>
<g>
<line x1="116" x2="116" y1="204" y2="304"/>
</g>
<g>
<text x="1" y="12">
A
</text>
</g>
<g>
<text x="1" y="156">
A
</text>
</g>
<g>
<text x="1" y="316">
A
</text>
</g>
<g>
<text x="17" y="12">
A
</text>
</g>
<g>
<text x="17" y="156">
A
</text>
</g>
<g>
<text x="17" y="316">
C
</text>
</g>
<g>
<text x="33" y="12">
C
</text>
</g>
<g>
<text x="33" y="156">
C
</text>
</g>
<g>
<text x="33" y="316">
A
</text>
</g>
<g>
<text x="49" y="12">
C
</text>
</g>
<g>
<text x="49" y="156">
T
</text>
</g>
<g>
<text x="49" y="316">
C
</text>
</g>
<g>
<text x="65" y="12">
T
</text>
</g>
<g>
<text x="65" y="156">
G
</text>
</g>
<g>
<text x="65" y="316">
T
</text>
</g>
<g>
<text x="81" y="12">
T
</text>
</g>
<g>
<text x="81" y="156">
G
</text>
</g>
<g>
<text x="81" y="316">
G
</text>
</g>
<g>
<text x="97" y="12">
G
</text>
</g>
<g>
<text x="97" y="316">
T
</text>
</g>
<g>
<text x="113" y="12">
G
</text>
</g>
<g>
<text x="113" y="316">
G
</text>
</g>
<g>
<text x="129" y="316">
A
</text>
</g>
<g>
<line marker-start="url(#open_circle)" x1="20" x2="20" y1="280" y2="304"/>
</g>
<g>
<line marker-end="url(#open_circle)" x1="36" x2="36" y1="16" y2="40"/>
</g>
<g>
<line marker-end="url(#open_circle)" x1="84" x2="84" y1="16" y2="40"/>
</g>
<g>
<line marker-start="url(#open_circle)" x1="100" x2="100" y1="280" y2="304"/>
</g>
<g>
<line marker-start="url(#open_circle)" x1="132" x2="132" y1="280" y2="304"/>
</g>
</svg>
