<svg class="bob" font-family="arial" font-size="14" height="176" width="1000" xmlns="http://www.w3.org/2000/svg">
<defs>
<marker id="triangle" markerHeight="8" markerWidth="8" orient="auto" refX="4" refY="2" viewBox="0 0 8 4">
<polygon class="fg_fill" points="0,0 0,4 8,2 0,0"/>
</marker>
<marker id="clear_triangle" markerHeight="10" markerWidth="10" orient="auto" refX="1" refY="7" viewBox="0 0 20 14">
<polygon class="bg_fill" points="2,2 2,12 18,7 2,2"/>
</marker>
<marker id="circle" markerHeight="5" markerWidth="5" orient="auto" refX="10" refY="10" viewBox="0 0 20 20">
<circle class="fg_fill" cx="10" cy="10" r="8"/>
</marker>
<marker id="square" markerHeight="5" markerWidth="5" orient="auto" refX="10" refY="10" viewBox="0 0 20 20">
<rect class="fg_fill" height="20" width="20" x="0" y="0"/>
</marker>
<marker id="open_circle" markerHeight="10" markerWidth="10" orient="auto" refX="10" refY="10" viewBox="0 0 20 20">
<circle class="bg_fill" cx="10" cy="10" r="4"/>
</marker>
<marker id="big_open_circle" markerHeight="20" markerWidth="20" orient="auto" refX="20" refY="20" viewBox="0 0 40 40">
<circle class="bg_fill" cx="20" cy="20" r="6"/>
</marker>
</defs>
<style type="text/css">

rect.backdrop {
    fill: white;
}
text{
    fill: black;
}

circle {
    fill: none;
    stroke: black;
    stroke-width: 2;
}

line {
    stroke: black;
    stroke-width: 2;
    stroke-opacity: 1;
    fill-opacity: 1;
    stroke-linecap: round;
    stroke-linejoin: miter;
}

path {
    fill: none;
    stroke: black;
    stroke-width: 2;
    stroke-opacity: 1;
    fill-opacity: 1;
    stroke-linecap: round;
    stroke-linejoin: miter;
}

line.dashed {
    stroke-dasharray: 5;
}

.fg_fill {
    fill: black;
}


.bg_fill {
    fill: white;
    stroke: black;
    stroke-width: 2;
}

tspan.head{
    fill: none;
    stroke: none;
}
    
</style>
<rect class="backdrop" height="176" width="1000" x="0" y="0"/>
<g>
<line x1="12" x2="12" y1="32" y2="48"/>
</g>
<g>
<line x1="12" x2="60" y1="40" y2="40"/>
<line x1="60" x2="108" y1="40" y2="40"/>
<line x1="108" x2="156" y1="40" y2="40"/>
<line x1="156" x2="204" y1="40" y2="40"/>
<line x1="204" x2="252" y1="40" y2="40"/>
<line x1="252" x2="300" y1="40" y2="40"/>
<line x1="300" x2="348" y1="40" y2="40"/>
<line x1="348" x2="396" y1="40" y2="40"/>
<line x1="396" x2="444" y1="40" y2="40"/>
<line x1="444" x2="492" y1="40" y2="40"/>
<line x1="492" x2="540" y1="40" y2="40"/>
<line x1="540" x2="588" y1="40" y2="40"/>
<line x1="588" x2="636" y1="40" y2="40"/>
<line x1="636" x2="684" y1="40" y2="40"/>
<line x1="684" x2="732" y1="40" y2="40"/>
<line x1="732" x2="780" y1="40" y2="40"/>
<line x1="780" x2="828" y1="40" y2="40"/>
<line x1="828" x2="876" y1="40" y2="40"/>
<line x1="876" x2="924" y1="40" y2="40"/>
<line x1="924" x2="972" y1="40" y2="40"/>
</g>
<g>
<line x1="12" x2="12" y1="144" y2="160"/>
</g>
<g>
<line x1="12" x2="60" y1="152" y2="152"/>
<line x1="60" x2="108" y1="152" y2="152"/>
<line x1="108" x2="156" y1="152" y2="152"/>
<line x1="156" x2="204" y1="152" y2="152"/>
<line x1="204" x2="252" y1="152" y2="152"/>
<line x1="252" x2="300" y1="152" y2="152"/>
<line x1="300" x2="348" y1="152" y2="152"/>
<line x1="348" x2="396" y1="152" y2="152"/>
<line x1="396" x2="444" y1="152" y2="152"/>
<line x1="444" x2="492" y1="152" y2="152"/>
<line x1="492" x2="540" y1="152" y2="152"/>
<line x1="540" x2="588" y1="152" y2="152"/>
<line x1="588" x2="636" y1="152" y2="152"/>
<line x1="636" x2="684" y1="152" y2="152"/>
<line x1="684" x2="732" y1="152" y2="152"/>
<line x1="732" x2="780" y1="152" y2="152"/>
<line x1="780" x2="828" y1="152" y2="152"/>
<line x1="828" x2="876" y1="152" y2="152"/>
<line x1="876" x2="924" y1="152" y2="152"/>
<line x1="924" x2="972" y1="152" y2="152"/>
</g>
<g>
<line x1="60" x2="60" y1="32" y2="48"/>
</g>
<g>
<line x1="60" x2="60" y1="144" y2="160"/>
</g>
<g>
<line x1="108" x2="108" y1="32" y2="48"/>
</g>
<g>
<line x1="108" x2="108" y1="144" y2="160"/>
</g>
<g>
<line x1="156" x2="156" y1="32" y2="48"/>
</g>
<g>
<line x1="156" x2="156" y1="144" y2="160"/>
</g>
<g>
<line x1="204" x2="204" y1="32" y2="48"/>
</g>
<g>
<line x1="204" x2="204" y1="144" y2="160"/>
</g>
<g>
<line x1="252" x2="252" y1="32" y2="48"/>
</g>
<g>
<line x1="252" x2="252" y1="144" y2="160"/>
</g>
<g>
<line x1="300" x2="300" y1="32" y2="48"/>
</g>
<g>
<line x1="300" x2="300" y1="144" y2="160"/>
</g>
<g>
<line x1="348" x2="348" y1="32" y2="48"/>
</g>
<g>
<line x1="348" x2="348" y1="144" y2="160"/>
</g>
<g>
<line x1="396" x2="396" y1="32" y2="48"/>
</g>
<g>
<line x1="396" x2="396" y1="144" y2="160"/>
</g>
<g>
<line x1="444" x2="444" y1="32" y2="48"/>
</g>
<g>
<line x1="444" x2="444" y1="144" y2="160"/>
</g>
<g>
<line x1="492" x2="492" y1="32" y2="48"/>
</g>
<g>
<line x1="492" x2="492" y1="144" y2="160"/>
</g>
<g>
<line x1="540" x2="540" y1="32" y2="48"/>
</g>
<g>
<line x1="540" x2="540" y1="144" y2="160"/>
</g>
<g>
<line x1="588" x2="588" y1="32" y2="48"/>
</g>
<g>
<line x1="588" x2="588" y1="144" y2="160"/>
</g>
<g>
<line x1="636" x2="636" y1="32" y2="48"/>
</g>
<g>
<line x1="636" x2="636" y1="144" y2="160"/>
</g>
<g>
<line x1="684" x2="684" y1="32" y2="48"/>
</g>
<g>
<line x1="684" x2="684" y1="144" y2="160"/>
</g>
<g>
<line x1="732" x2="732" y1="32" y2="48"/>
</g>
<g>
<line marker-start="url(#circle)" x1="732" x2="732" y1="136" y2="160"/>
<line marker-end="url(#triangle)" marker-start="url(#circle)" x1="732" x2="980" y1="136" y2="136"/>
</g>
<g>
<line x1="780" x2="780" y1="32" y2="48"/>
</g>
<g>
<line x1="780" x2="780" y1="144" y2="160"/>
</g>
<g>
<line x1="828" x2="828" y1="32" y2="48"/>
</g>
<g>
<line x1="828" x2="828" y1="144" y2="160"/>
</g>
<g>
<line marker-start="url(#circle)" x1="876" x2="876" y1="24" y2="48"/>
<line marker-end="url(#triangle)" marker-start="url(#circle)" x1="876" x2="980" y1="24" y2="24"/>
</g>
<g>
<line x1="876" x2="876" y1="144" y2="160"/>
</g>
<g>
<line x1="924" x2="924" y1="32" y2="48"/>
</g>
<g>
<line x1="924" x2="924" y1="144" y2="160"/>
</g>
<g>
<line x1="972" x2="972" y1="32" y2="48"/>
</g>
<g>
<line x1="972" x2="972" y1="144" y2="160"/>
</g>
<g>
<text x="9" y="60">
-10
</text>
</g>
<g>
<text x="9" y="172">
-10
</text>
</g>
<g>
<text x="57" y="60">
-9
</text>
</g>
<g>
<text x="57" y="172">
-9
</text>
</g>
<g>
<text x="105" y="60">
-8
</text>
</g>
<g>
<text x="105" y="172">
-8
</text>
</g>
<g>
<text x="153" y="60">
-7
</text>
</g>
<g>
<text x="153" y="172">
-7
</text>
</g>
<g>
<text x="201" y="60">
-6
</text>
</g>
<g>
<text x="201" y="172">
-6
</text>
</g>
<g>
<text x="249" y="60">
-5
</text>
</g>
<g>
<text x="249" y="172">
-5
</text>
</g>
<g>
<text x="297" y="60">
-4
</text>
</g>
<g>
<text x="297" y="172">
-4
</text>
</g>
<g>
<text x="345" y="60">
-3
</text>
</g>
<g>
<text x="345" y="172">
-3
</text>
</g>
<g>
<text x="377" y="124">
RELATION: x+4-3 ≥ 8-3
</text>
</g>
<g>
<text x="393" y="12">
RELATION: x+4 ≥ 8
</text>
</g>
<g>
<text x="393" y="60">
-2
</text>
</g>
<g>
<text x="393" y="172">
-2
</text>
</g>
<g>
<text x="441" y="60">
-1
</text>
</g>
<g>
<text x="441" y="172">
-1
</text>
</g>
<g>
<text x="489" y="60">
0
</text>
</g>
<g>
<text x="489" y="172">
0
</text>
</g>
<g>
<text x="537" y="60">
1
</text>
</g>
<g>
<text x="537" y="172">
1
</text>
</g>
<g>
<text x="585" y="60">
2
</text>
</g>
<g>
<text x="585" y="172">
2
</text>
</g>
<g>
<text x="633" y="60">
3
</text>
</g>
<g>
<text x="633" y="172">
3
</text>
</g>
<g>
<text x="681" y="60">
4
</text>
</g>
<g>
<text x="681" y="172">
4
</text>
</g>
<g>
<text x="729" y="60">
5
</text>
</g>
<g>
<text x="729" y="172">
5
</text>
</g>
<g>
<text x="777" y="60">
6
</text>
</g>
<g>
<text x="777" y="172">
6
</text>
</g>
<g>
<text x="825" y="60">
7
</text>
</g>
<g>
<text x="825" y="172">
7
</text>
</g>
<g>
<text x="873" y="60">
8
</text>
</g>
<g>
<text x="873" y="172">
8
</text>
</g>
<g>
<text x="921" y="60">
9
</text>
</g>
<g>
<text x="921" y="172">
9
</text>
</g>
<g>
<text x="969" y="60">
10
</text>
</g>
<g>
<text x="969" y="172">
10
</text>
</g>
</svg>
