<svg class="bob" font-family="arial" font-size="14" height="160" width="728" xmlns="http://www.w3.org/2000/svg">
<defs>
<marker id="triangle" markerHeight="8" markerWidth="8" orient="auto" refX="4" refY="2" viewBox="0 0 8 4">
<polygon class="fg_fill" points="0,0 0,4 8,2 0,0"/>
</marker>
<marker id="clear_triangle" markerHeight="10" markerWidth="10" orient="auto" refX="1" refY="7" viewBox="0 0 20 14">
<polygon class="bg_fill" points="2,2 2,12 18,7 2,2"/>
</marker>
<marker id="circle" markerHeight="5" markerWidth="5" orient="auto" refX="10" refY="10" viewBox="0 0 20 20">
<circle class="fg_fill" cx="10" cy="10" r="8"/>
</marker>
<marker id="square" markerHeight="5" markerWidth="5" orient="auto" refX="10" refY="10" viewBox="0 0 20 20">
<rect class="fg_fill" height="20" width="20" x="0" y="0"/>
</marker>
<marker id="open_circle" markerHeight="10" markerWidth="10" orient="auto" refX="10" refY="10" viewBox="0 0 20 20">
<circle class="bg_fill" cx="10" cy="10" r="4"/>
</marker>
<marker id="big_open_circle" markerHeight="20" markerWidth="20" orient="auto" refX="20" refY="20" viewBox="0 0 40 40">
<circle class="bg_fill" cx="20" cy="20" r="6"/>
</marker>
</defs>
<style type="text/css">

rect.backdrop {
    fill: white;
}
text{
    fill: black;
}

circle {
    fill: none;
    stroke: black;
    stroke-width: 2;
}

line {
    stroke: black;
    stroke-width: 2;
    stroke-opacity: 1;
    fill-opacity: 1;
    stroke-linecap: round;
    stroke-linejoin: miter;
}

path {
    fill: none;
    stroke: black;
    stroke-width: 2;
    stroke-opacity: 1;
    fill-opacity: 1;
    stroke-linecap: round;
    stroke-linejoin: miter;
}

line.dashed {
    stroke-dasharray: 5;
}

.fg_fill {
    fill: black;
}


.bg_fill {
    fill: white;
    stroke: black;
    stroke-width: 2;
}

tspan.head{
    fill: none;
    stroke: none;
}
    
</style>
<rect class="backdrop" height="160" width="728" x="0" y="0"/>
<g>
<line x1="20" x2="20" y1="76" y2="132"/>
<path d="M 20 132 A 4 4 0 0 0 24 136"/>
<path d="M 24 72 A 4 4 0 0 0 20 76"/>
</g>
<g>
<line x1="24" x2="32" y1="72" y2="72"/>
</g>
<g>
<line x1="24" x2="80" y1="136" y2="136"/>
<path d="M 80 136 A 4 4 0 0 0 84 132"/>
</g>
<g>
<line x1="72" x2="80" y1="72" y2="72"/>
<path d="M 84 76 A 4 4 0 0 0 80 72"/>
</g>
<g>
<line x1="84" x2="84" y1="76" y2="132"/>
</g>
<g>
<line marker-end="url(#triangle)" x1="96" x2="212" y1="104" y2="104"/>
</g>
<g>
<line x1="228" x2="228" y1="76" y2="132"/>
<path d="M 228 132 A 4 4 0 0 0 232 136"/>
<path d="M 232 72 A 4 4 0 0 0 228 76"/>
</g>
<g>
<line x1="232" x2="240" y1="72" y2="72"/>
</g>
<g>
<line x1="232" x2="288" y1="136" y2="136"/>
<path d="M 288 136 A 4 4 0 0 0 292 132"/>
</g>
<g>
<line x1="280" x2="288" y1="72" y2="72"/>
<path d="M 292 76 A 4 4 0 0 0 288 72"/>
</g>
<g>
<line x1="292" x2="292" y1="76" y2="132"/>
</g>
<g>
<line x1="436" x2="436" y1="76" y2="132"/>
<path d="M 436 132 A 4 4 0 0 0 440 136"/>
<path d="M 440 72 A 4 4 0 0 0 436 76"/>
</g>
<g>
<line x1="440" x2="448" y1="72" y2="72"/>
</g>
<g>
<line x1="440" x2="496" y1="136" y2="136"/>
<path d="M 496 136 A 4 4 0 0 0 500 132"/>
</g>
<g>
<line x1="488" x2="496" y1="72" y2="72"/>
<path d="M 500 76 A 4 4 0 0 0 496 72"/>
</g>
<g>
<line x1="500" x2="500" y1="76" y2="132"/>
</g>
<g>
<line marker-end="url(#triangle)" x1="512" x2="628" y1="104" y2="104"/>
</g>
<g>
<line x1="644" x2="644" y1="76" y2="132"/>
<path d="M 644 132 A 4 4 0 0 0 648 136"/>
<path d="M 648 72 A 4 4 0 0 0 644 76"/>
</g>
<g>
<line x1="648" x2="656" y1="72" y2="72"/>
</g>
<g>
<line x1="648" x2="704" y1="136" y2="136"/>
<path d="M 704 136 A 4 4 0 0 0 708 132"/>
</g>
<g>
<line x1="696" x2="704" y1="72" y2="72"/>
<path d="M 708 76 A 4 4 0 0 0 704 72"/>
</g>
<g>
<line x1="708" x2="708" y1="76" y2="132"/>
</g>
<g>
<text x="17" y="156">
2A vs 4B
</text>
</g>
<g>
<text x="33" y="108">
A
</text>
</g>
<g>
<text x="33" y="124">
B
</text>
</g>
<g>
<text x="49" y="108">
B
</text>
</g>
<g>
<text x="49" y="124">
B
</text>
</g>
<g>
<text x="65" y="108">
B
</text>
</g>
<g>
<text x="65" y="124">
A
</text>
</g>
<g>
<text x="105" y="12">
P(A) * P(B|A)
</text>
</g>
<g>
<text x="105" y="28">
4/6 * 1/5
</text>
</g>
<g>
<text x="105" y="44">
4/30 = 2/15
</text>
</g>
<g>
<text x="105" y="92">
Remove a A
</text>
</g>
<g>
<text x="225" y="156">
1A vs 4B
</text>
</g>
<g>
<text x="241" y="124">
B
</text>
</g>
<g>
<text x="257" y="108">
B
</text>
</g>
<g>
<text x="257" y="124">
B
</text>
</g>
<g>
<text x="273" y="108">
B
</text>
</g>
<g>
<text x="273" y="124">
A
</text>
</g>
<g>
<text x="433" y="156">
2A vs 4B
</text>
</g>
<g>
<text x="449" y="108">
A
</text>
</g>
<g>
<text x="449" y="124">
B
</text>
</g>
<g>
<text x="465" y="108">
B
</text>
</g>
<g>
<text x="465" y="124">
B
</text>
</g>
<g>
<text x="481" y="108">
B
</text>
</g>
<g>
<text x="481" y="124">
A
</text>
</g>
<g>
<text x="521" y="12">
P(B) * P(A|B)
</text>
</g>
<g>
<text x="521" y="28">
2/6 * 2/5
</text>
</g>
<g>
<text x="521" y="44">
4/30 = 2/15
</text>
</g>
<g>
<text x="521" y="92">
Remove a B
</text>
</g>
<g>
<text x="641" y="156">
2A vs 3B
</text>
</g>
<g>
<text x="657" y="108">
A
</text>
</g>
<g>
<text x="657" y="124">
B
</text>
</g>
<g>
<text x="673" y="124">
B
</text>
</g>
<g>
<text x="689" y="108">
B
</text>
</g>
<g>
<text x="689" y="124">
A
</text>
</g>
</svg>
