<svg class="bob" font-family="arial" font-size="14" height="160" width="656" xmlns="http://www.w3.org/2000/svg">
<defs>
<marker id="triangle" markerHeight="8" markerWidth="8" orient="auto" refX="4" refY="2" viewBox="0 0 8 4">
<polygon class="fg_fill" points="0,0 0,4 8,2 0,0"/>
</marker>
<marker id="clear_triangle" markerHeight="10" markerWidth="10" orient="auto" refX="1" refY="7" viewBox="0 0 20 14">
<polygon class="bg_fill" points="2,2 2,12 18,7 2,2"/>
</marker>
<marker id="circle" markerHeight="5" markerWidth="5" orient="auto" refX="10" refY="10" viewBox="0 0 20 20">
<circle class="fg_fill" cx="10" cy="10" r="8"/>
</marker>
<marker id="square" markerHeight="5" markerWidth="5" orient="auto" refX="10" refY="10" viewBox="0 0 20 20">
<rect class="fg_fill" height="20" width="20" x="0" y="0"/>
</marker>
<marker id="open_circle" markerHeight="10" markerWidth="10" orient="auto" refX="10" refY="10" viewBox="0 0 20 20">
<circle class="bg_fill" cx="10" cy="10" r="4"/>
</marker>
<marker id="big_open_circle" markerHeight="20" markerWidth="20" orient="auto" refX="20" refY="20" viewBox="0 0 40 40">
<circle class="bg_fill" cx="20" cy="20" r="6"/>
</marker>
</defs>
<style type="text/css">

rect.backdrop {
    fill: white;
}
text{
    fill: black;
}

circle {
    fill: none;
    stroke: black;
    stroke-width: 2;
}

line {
    stroke: black;
    stroke-width: 2;
    stroke-opacity: 1;
    fill-opacity: 1;
    stroke-linecap: round;
    stroke-linejoin: miter;
}

path {
    fill: none;
    stroke: black;
    stroke-width: 2;
    stroke-opacity: 1;
    fill-opacity: 1;
    stroke-linecap: round;
    stroke-linejoin: miter;
}

line.dashed {
    stroke-dasharray: 5;
}

.fg_fill {
    fill: black;
}


.bg_fill {
    fill: white;
    stroke: black;
    stroke-width: 2;
}

tspan.head{
    fill: none;
    stroke: none;
}
    
</style>
<rect class="backdrop" height="160" width="656" x="0" y="0"/>
<g>
<line x1="8" x2="16" y1="96" y2="80"/>
<line x1="20" x2="16" y1="72" y2="80"/>
<line x1="20" x2="24" y1="72" y2="80"/>
<line x1="24" x2="32" y1="80" y2="96"/>
</g>
<g>
<line x1="20" x2="20" y1="64" y2="72"/>
<line marker-start="url(#open_circle)" x1="20" x2="20" y1="56" y2="64"/>
<line marker-start="url(#open_circle)" x1="20" x2="32" y1="56" y2="80"/>
</g>
<g>
<line x1="40" x2="48" y1="80" y2="64"/>
<line marker-start="url(#open_circle)" x1="52" x2="48" y1="56" y2="64"/>
<line marker-start="url(#open_circle)" x1="52" x2="52" y1="56" y2="64"/>
<line marker-start="url(#open_circle)" x1="52" x2="64" y1="56" y2="80"/>
</g>
<g>
<line x1="40" x2="48" y1="96" y2="80"/>
<line x1="52" x2="48" y1="72" y2="80"/>
<line x1="52" x2="56" y1="72" y2="80"/>
<line x1="56" x2="64" y1="80" y2="96"/>
</g>
<g>
<line x1="52" x2="52" y1="64" y2="72"/>
</g>
<g>
<line x1="72" x2="80" y1="96" y2="80"/>
<line x1="84" x2="80" y1="72" y2="80"/>
<line x1="84" x2="88" y1="72" y2="80"/>
<line x1="88" x2="96" y1="80" y2="96"/>
</g>
<g>
<line x1="84" x2="84" y1="64" y2="72"/>
<line marker-start="url(#open_circle)" x1="84" x2="84" y1="40" y2="64"/>
<line marker-start="url(#open_circle)" x1="84" x2="96" y1="40" y2="64"/>
</g>
<g>
<line x1="104" x2="112" y1="96" y2="80"/>
<line x1="116" x2="112" y1="72" y2="80"/>
<line x1="116" x2="120" y1="72" y2="80"/>
<line x1="120" x2="128" y1="80" y2="96"/>
</g>
<g>
<line x1="116" x2="116" y1="64" y2="72"/>
<line marker-start="url(#open_circle)" x1="116" x2="116" y1="40" y2="64"/>
<line marker-start="url(#open_circle)" x1="116" x2="128" y1="40" y2="64"/>
</g>
<g>
<line x1="136" x2="144" y1="96" y2="80"/>
<line x1="148" x2="144" y1="72" y2="80"/>
<line x1="148" x2="152" y1="72" y2="80"/>
<line x1="152" x2="160" y1="80" y2="96"/>
</g>
<g>
<line x1="148" x2="148" y1="64" y2="72"/>
<line marker-start="url(#open_circle)" x1="148" x2="148" y1="40" y2="64"/>
<line marker-start="url(#open_circle)" x1="148" x2="160" y1="40" y2="64"/>
</g>
<g>
<line x1="168" x2="176" y1="96" y2="80"/>
<line x1="180" x2="176" y1="72" y2="80"/>
<line x1="180" x2="184" y1="72" y2="80"/>
<line x1="184" x2="192" y1="80" y2="96"/>
</g>
<g>
<line x1="180" x2="180" y1="64" y2="72"/>
<line marker-start="url(#open_circle)" x1="180" x2="180" y1="40" y2="64"/>
<line marker-start="url(#open_circle)" x1="180" x2="192" y1="40" y2="64"/>
</g>
<g>
<line x1="200" x2="208" y1="96" y2="80"/>
<line x1="212" x2="208" y1="72" y2="80"/>
<line x1="212" x2="216" y1="72" y2="80"/>
<line x1="216" x2="224" y1="80" y2="96"/>
</g>
<g>
<line x1="212" x2="212" y1="64" y2="72"/>
<line marker-start="url(#open_circle)" x1="212" x2="212" y1="40" y2="64"/>
<line marker-start="url(#open_circle)" x1="212" x2="224" y1="40" y2="64"/>
</g>
<g>
<line x1="232" x2="240" y1="96" y2="80"/>
<line x1="244" x2="240" y1="72" y2="80"/>
<line x1="244" x2="248" y1="72" y2="80"/>
<line x1="248" x2="256" y1="80" y2="96"/>
</g>
<g>
<line x1="244" x2="244" y1="64" y2="72"/>
<line marker-start="url(#open_circle)" x1="244" x2="244" y1="40" y2="64"/>
<line marker-start="url(#open_circle)" x1="244" x2="256" y1="40" y2="64"/>
</g>
<g>
<line x1="264" x2="272" y1="96" y2="80"/>
<line x1="276" x2="272" y1="72" y2="80"/>
<line x1="276" x2="280" y1="72" y2="80"/>
<line x1="280" x2="288" y1="80" y2="96"/>
</g>
<g>
<line x1="276" x2="276" y1="64" y2="72"/>
<line marker-start="url(#open_circle)" x1="276" x2="276" y1="40" y2="64"/>
<line marker-start="url(#open_circle)" x1="276" x2="288" y1="40" y2="64"/>
</g>
<g>
<line x1="296" x2="304" y1="96" y2="80"/>
<line x1="308" x2="304" y1="72" y2="80"/>
<line x1="308" x2="312" y1="72" y2="80"/>
<line x1="312" x2="320" y1="80" y2="96"/>
</g>
<g>
<line x1="308" x2="308" y1="64" y2="72"/>
<line marker-start="url(#open_circle)" x1="308" x2="308" y1="40" y2="64"/>
<line marker-start="url(#open_circle)" x1="308" x2="320" y1="40" y2="64"/>
</g>
<g>
<line x1="328" x2="336" y1="96" y2="80"/>
<line x1="340" x2="336" y1="72" y2="80"/>
<line x1="340" x2="344" y1="72" y2="80"/>
<line x1="344" x2="352" y1="80" y2="96"/>
</g>
<g>
<line x1="340" x2="340" y1="64" y2="72"/>
<line marker-start="url(#open_circle)" x1="340" x2="340" y1="24" y2="64"/>
<line marker-start="url(#open_circle)" x1="340" x2="352" y1="24" y2="48"/>
</g>
<g>
<line x1="360" x2="368" y1="96" y2="80"/>
<line x1="372" x2="368" y1="72" y2="80"/>
<line x1="372" x2="376" y1="72" y2="80"/>
<line x1="376" x2="384" y1="80" y2="96"/>
</g>
<g>
<line x1="372" x2="372" y1="64" y2="72"/>
<line marker-start="url(#open_circle)" x1="372" x2="372" y1="24" y2="64"/>
<line marker-start="url(#open_circle)" x1="372" x2="384" y1="24" y2="48"/>
</g>
<g>
<line x1="392" x2="400" y1="96" y2="80"/>
<line x1="404" x2="400" y1="72" y2="80"/>
<line x1="404" x2="408" y1="72" y2="80"/>
<line x1="408" x2="416" y1="80" y2="96"/>
</g>
<g>
<line x1="404" x2="404" y1="64" y2="72"/>
<line marker-start="url(#open_circle)" x1="404" x2="404" y1="24" y2="64"/>
<line marker-start="url(#open_circle)" x1="404" x2="416" y1="24" y2="48"/>
</g>
<g>
<line x1="424" x2="432" y1="96" y2="80"/>
<line x1="436" x2="432" y1="72" y2="80"/>
<line x1="436" x2="440" y1="72" y2="80"/>
<line x1="440" x2="448" y1="80" y2="96"/>
</g>
<g>
<line x1="436" x2="436" y1="64" y2="72"/>
<line marker-start="url(#open_circle)" x1="436" x2="436" y1="24" y2="64"/>
<line marker-start="url(#open_circle)" x1="436" x2="448" y1="24" y2="48"/>
</g>
<g>
<line x1="456" x2="464" y1="96" y2="80"/>
<line x1="468" x2="464" y1="72" y2="80"/>
<line x1="468" x2="472" y1="72" y2="80"/>
<line x1="472" x2="480" y1="80" y2="96"/>
</g>
<g>
<line x1="468" x2="468" y1="64" y2="72"/>
<line marker-start="url(#open_circle)" x1="468" x2="468" y1="24" y2="64"/>
<line marker-start="url(#open_circle)" x1="468" x2="480" y1="24" y2="48"/>
</g>
<g>
<line x1="488" x2="496" y1="96" y2="80"/>
<line x1="500" x2="496" y1="72" y2="80"/>
<line x1="500" x2="504" y1="72" y2="80"/>
<line x1="504" x2="512" y1="80" y2="96"/>
</g>
<g>
<line x1="488" x2="500" y1="120" y2="120"/>
<line x1="500" x2="500" y1="120" y2="144"/>
<line x1="500" x2="512" y1="120" y2="120"/>
<path d="M 484 116 A 4 4 0 0 0 488 120"/>
<path d="M 512 120 A 4 4 0 0 0 516 116"/>
</g>
<g>
<line x1="500" x2="500" y1="64" y2="72"/>
<line marker-start="url(#open_circle)" x1="500" x2="500" y1="24" y2="64"/>
<line marker-start="url(#open_circle)" x1="500" x2="512" y1="24" y2="48"/>
</g>
<g>
<line x1="520" x2="528" y1="96" y2="80"/>
<line x1="532" x2="528" y1="72" y2="80"/>
<line x1="532" x2="536" y1="72" y2="80"/>
<line x1="536" x2="544" y1="80" y2="96"/>
</g>
<g>
<line x1="532" x2="532" y1="64" y2="72"/>
<line marker-start="url(#open_circle)" x1="532" x2="532" y1="24" y2="64"/>
<line marker-start="url(#open_circle)" x1="532" x2="544" y1="24" y2="48"/>
</g>
<g>
<line x1="552" x2="560" y1="96" y2="80"/>
<line x1="564" x2="560" y1="72" y2="80"/>
<line x1="564" x2="568" y1="72" y2="80"/>
<line x1="568" x2="576" y1="80" y2="96"/>
</g>
<g>
<line x1="564" x2="564" y1="64" y2="72"/>
<line marker-start="url(#open_circle)" x1="564" x2="564" y1="24" y2="64"/>
<line marker-start="url(#open_circle)" x1="564" x2="576" y1="24" y2="48"/>
</g>
<g>
<line x1="584" x2="592" y1="96" y2="80"/>
<line x1="596" x2="592" y1="72" y2="80"/>
<line x1="596" x2="600" y1="72" y2="80"/>
<line x1="600" x2="608" y1="80" y2="96"/>
</g>
<g>
<line x1="596" x2="596" y1="64" y2="72"/>
<line marker-start="url(#open_circle)" x1="596" x2="596" y1="24" y2="64"/>
<line marker-start="url(#open_circle)" x1="596" x2="608" y1="24" y2="48"/>
</g>
<g>
<line x1="616" x2="624" y1="96" y2="80"/>
<line x1="628" x2="624" y1="72" y2="80"/>
<line x1="628" x2="632" y1="72" y2="80"/>
<line x1="632" x2="640" y1="80" y2="96"/>
</g>
<g>
<line x1="628" x2="628" y1="64" y2="72"/>
<line marker-start="url(#open_circle)" x1="628" x2="628" y1="8" y2="64"/>
<line marker-start="url(#open_circle)" x1="628" x2="640" y1="8" y2="32"/>
</g>
<g>
<text x="17" y="108">
1
</text>
</g>
<g>
<text x="49" y="108">
2
</text>
</g>
<g>
<text x="81" y="108">
3
</text>
</g>
<g>
<text x="113" y="108">
4
</text>
</g>
<g>
<text x="145" y="108">
5
</text>
</g>
<g>
<text x="177" y="108">
6
</text>
</g>
<g>
<text x="209" y="108">
7
</text>
</g>
<g>
<text x="241" y="108">
8
</text>
</g>
<g>
<text x="273" y="108">
9
</text>
</g>
<g>
<text x="297" y="108">
10
</text>
</g>
<g>
<text x="329" y="108">
11
</text>
</g>
<g>
<text x="361" y="108">
12
</text>
</g>
<g>
<text x="393" y="108">
13
</text>
</g>
<g>
<text x="425" y="108">
14
</text>
</g>
<g>
<text x="449" y="156">
80th percentile
</text>
</g>
<g>
<text x="457" y="108">
15
</text>
</g>
<g>
<text x="489" y="108">
16
</text>
</g>
<g>
<text x="521" y="108">
17
</text>
</g>
<g>
<text x="553" y="108">
18
</text>
</g>
<g>
<text x="585" y="108">
19
</text>
</g>
<g>
<text x="617" y="108">
20
</text>
</g>
<g>
<line marker-start="url(#open_circle)" x1="20" x2="8" y1="56" y2="80"/>
</g>
<g>
<line marker-start="url(#open_circle)" x1="84" x2="72" y1="40" y2="64"/>
</g>
<g>
<line marker-start="url(#open_circle)" x1="116" x2="104" y1="40" y2="64"/>
</g>
<g>
<line marker-start="url(#open_circle)" x1="148" x2="136" y1="40" y2="64"/>
</g>
<g>
<line marker-start="url(#open_circle)" x1="180" x2="168" y1="40" y2="64"/>
</g>
<g>
<line marker-start="url(#open_circle)" x1="212" x2="200" y1="40" y2="64"/>
</g>
<g>
<line marker-start="url(#open_circle)" x1="244" x2="232" y1="40" y2="64"/>
</g>
<g>
<line marker-start="url(#open_circle)" x1="276" x2="264" y1="40" y2="64"/>
</g>
<g>
<line marker-start="url(#open_circle)" x1="308" x2="296" y1="40" y2="64"/>
</g>
<g>
<line marker-start="url(#open_circle)" x1="340" x2="328" y1="24" y2="48"/>
</g>
<g>
<line marker-start="url(#open_circle)" x1="372" x2="360" y1="24" y2="48"/>
</g>
<g>
<line marker-start="url(#open_circle)" x1="404" x2="392" y1="24" y2="48"/>
</g>
<g>
<line marker-start="url(#open_circle)" x1="436" x2="424" y1="24" y2="48"/>
</g>
<g>
<line marker-start="url(#open_circle)" x1="468" x2="456" y1="24" y2="48"/>
</g>
<g>
<line marker-start="url(#open_circle)" x1="500" x2="488" y1="24" y2="48"/>
</g>
<g>
<line marker-start="url(#open_circle)" x1="532" x2="520" y1="24" y2="48"/>
</g>
<g>
<line marker-start="url(#open_circle)" x1="564" x2="552" y1="24" y2="48"/>
</g>
<g>
<line marker-start="url(#open_circle)" x1="596" x2="584" y1="24" y2="48"/>
</g>
<g>
<line marker-start="url(#open_circle)" x1="628" x2="616" y1="8" y2="32"/>
</g>
</svg>
