<svg class="bob" font-family="arial" font-size="14" height="224" width="480" xmlns="http://www.w3.org/2000/svg">
<defs>
<marker id="triangle" markerHeight="8" markerWidth="8" orient="auto" refX="4" refY="2" viewBox="0 0 8 4">
<polygon class="fg_fill" points="0,0 0,4 8,2 0,0"/>
</marker>
<marker id="clear_triangle" markerHeight="10" markerWidth="10" orient="auto" refX="1" refY="7" viewBox="0 0 20 14">
<polygon class="bg_fill" points="2,2 2,12 18,7 2,2"/>
</marker>
<marker id="circle" markerHeight="5" markerWidth="5" orient="auto" refX="10" refY="10" viewBox="0 0 20 20">
<circle class="fg_fill" cx="10" cy="10" r="8"/>
</marker>
<marker id="square" markerHeight="5" markerWidth="5" orient="auto" refX="10" refY="10" viewBox="0 0 20 20">
<rect class="fg_fill" height="20" width="20" x="0" y="0"/>
</marker>
<marker id="open_circle" markerHeight="10" markerWidth="10" orient="auto" refX="10" refY="10" viewBox="0 0 20 20">
<circle class="bg_fill" cx="10" cy="10" r="4"/>
</marker>
<marker id="big_open_circle" markerHeight="20" markerWidth="20" orient="auto" refX="20" refY="20" viewBox="0 0 40 40">
<circle class="bg_fill" cx="20" cy="20" r="6"/>
</marker>
</defs>
<style type="text/css">

rect.backdrop {
    fill: white;
}
text{
    fill: black;
}

circle {
    fill: none;
    stroke: black;
    stroke-width: 2;
}

line {
    stroke: black;
    stroke-width: 2;
    stroke-opacity: 1;
    fill-opacity: 1;
    stroke-linecap: round;
    stroke-linejoin: miter;
}

path {
    fill: none;
    stroke: black;
    stroke-width: 2;
    stroke-opacity: 1;
    fill-opacity: 1;
    stroke-linecap: round;
    stroke-linejoin: miter;
}

line.dashed {
    stroke-dasharray: 5;
}

.fg_fill {
    fill: black;
}


.bg_fill {
    fill: white;
    stroke: black;
    stroke-width: 2;
}

tspan.head{
    fill: none;
    stroke: none;
}
    
</style>
<rect class="backdrop" height="224" width="480" x="0" y="0"/>
<g>
<line x1="0" x2="20" y1="136" y2="136"/>
<line x1="20" x2="20" y1="76" y2="136"/>
<line x1="20" x2="20" y1="136" y2="196"/>
<line x1="20" x2="56" y1="136" y2="136"/>
<path d="M 20 196 A 4 4 0 0 0 24 200"/>
<path d="M 24 72 A 4 4 0 0 0 20 76"/>
</g>
<g>
<line x1="24" x2="56" y1="72" y2="72"/>
</g>
<g>
<line x1="24" x2="56" y1="200" y2="200"/>
</g>
<g>
<line x1="128" x2="156" y1="72" y2="72"/>
<line x1="156" x2="156" y1="60" y2="72"/>
<line x1="156" x2="156" y1="72" y2="84"/>
<path d="M 156 84 A 4 4 0 0 0 160 88"/>
<path d="M 160 56 A 4 4 0 0 0 156 60"/>
</g>
<g>
<line x1="128" x2="156" y1="136" y2="136"/>
<line x1="156" x2="156" y1="124" y2="136"/>
<line x1="156" x2="156" y1="136" y2="148"/>
<path d="M 156 148 A 4 4 0 0 0 160 152"/>
<path d="M 160 120 A 4 4 0 0 0 156 124"/>
</g>
<g>
<line x1="128" x2="156" y1="200" y2="200"/>
<line x1="156" x2="156" y1="188" y2="200"/>
<line x1="156" x2="156" y1="200" y2="212"/>
<path d="M 156 212 A 4 4 0 0 0 160 216"/>
<path d="M 160 184 A 4 4 0 0 0 156 188"/>
</g>
<g>
<line x1="160" x2="208" y1="56" y2="56"/>
</g>
<g>
<line x1="160" x2="208" y1="88" y2="88"/>
</g>
<g>
<line x1="160" x2="208" y1="120" y2="120"/>
</g>
<g>
<line x1="160" x2="208" y1="152" y2="152"/>
</g>
<g>
<line x1="160" x2="208" y1="184" y2="184"/>
</g>
<g>
<line x1="160" x2="208" y1="216" y2="216"/>
</g>
<g>
<line x1="280" x2="376" y1="56" y2="56"/>
</g>
<g>
<line x1="280" x2="376" y1="88" y2="88"/>
</g>
<g>
<line x1="280" x2="376" y1="120" y2="120"/>
</g>
<g>
<line x1="280" x2="376" y1="152" y2="152"/>
</g>
<g>
<line x1="280" x2="376" y1="184" y2="184"/>
</g>
<g>
<line x1="280" x2="376" y1="216" y2="216"/>
</g>
<g>
<text x="41" y="44">
Selection 1
</text>
</g>
<g>
<text x="57" y="76">
[a,?,?]
</text>
</g>
<g>
<text x="57" y="140">
[b,?,?]
</text>
</g>
<g>
<text x="57" y="204">
[c,?,?]
</text>
</g>
<g>
<text x="201" y="28">
Selection 2
</text>
</g>
<g>
<text x="209" y="60">
[a,b,?]
</text>
</g>
<g>
<text x="209" y="92">
[a,c,?]
</text>
</g>
<g>
<text x="209" y="124">
[b,a,?]
</text>
</g>
<g>
<text x="209" y="156">
[b,c,?]
</text>
</g>
<g>
<text x="209" y="188">
[c,a,?]
</text>
</g>
<g>
<text x="209" y="220">
[c,b,?]
</text>
</g>
<g>
<text x="377" y="12">
Selection 3
</text>
</g>
<g>
<text x="377" y="60">
[a,b,c]
</text>
</g>
<g>
<text x="377" y="92">
[a,c,b]
</text>
</g>
<g>
<text x="377" y="124">
[b,a,c]
</text>
</g>
<g>
<text x="377" y="156">
[b,c,a]
</text>
</g>
<g>
<text x="377" y="188">
[c,a,b]
</text>
</g>
<g>
<text x="377" y="220">
[c,b,a]
</text>
</g>
</svg>
