<svg class="bob" font-family="arial" font-size="14" height="208" width="528" xmlns="http://www.w3.org/2000/svg">
<defs>
<marker id="triangle" markerHeight="8" markerWidth="8" orient="auto" refX="4" refY="2" viewBox="0 0 8 4">
<polygon class="fg_fill" points="0,0 0,4 8,2 0,0"/>
</marker>
<marker id="clear_triangle" markerHeight="10" markerWidth="10" orient="auto" refX="1" refY="7" viewBox="0 0 20 14">
<polygon class="bg_fill" points="2,2 2,12 18,7 2,2"/>
</marker>
<marker id="circle" markerHeight="5" markerWidth="5" orient="auto" refX="10" refY="10" viewBox="0 0 20 20">
<circle class="fg_fill" cx="10" cy="10" r="8"/>
</marker>
<marker id="square" markerHeight="5" markerWidth="5" orient="auto" refX="10" refY="10" viewBox="0 0 20 20">
<rect class="fg_fill" height="20" width="20" x="0" y="0"/>
</marker>
<marker id="open_circle" markerHeight="10" markerWidth="10" orient="auto" refX="10" refY="10" viewBox="0 0 20 20">
<circle class="bg_fill" cx="10" cy="10" r="4"/>
</marker>
<marker id="big_open_circle" markerHeight="20" markerWidth="20" orient="auto" refX="20" refY="20" viewBox="0 0 40 40">
<circle class="bg_fill" cx="20" cy="20" r="6"/>
</marker>
</defs>
<style type="text/css">

rect.backdrop {
    fill: white;
}
text{
    fill: black;
}

circle {
    fill: none;
    stroke: black;
    stroke-width: 2;
}

line {
    stroke: black;
    stroke-width: 2;
    stroke-opacity: 1;
    fill-opacity: 1;
    stroke-linecap: round;
    stroke-linejoin: miter;
}

path {
    fill: none;
    stroke: black;
    stroke-width: 2;
    stroke-opacity: 1;
    fill-opacity: 1;
    stroke-linecap: round;
    stroke-linejoin: miter;
}

line.dashed {
    stroke-dasharray: 5;
}

.fg_fill {
    fill: black;
}


.bg_fill {
    fill: white;
    stroke: black;
    stroke-width: 2;
}

tspan.head{
    fill: none;
    stroke: none;
}
    
</style>
<rect class="backdrop" height="208" width="528" x="0" y="0"/>
<g>
<line x1="0" x2="32" y1="120" y2="120"/>
</g>
<g>
<line x1="88" x2="132" y1="120" y2="120"/>
<line x1="132" x2="132" y1="60" y2="120"/>
<line x1="132" x2="132" y1="120" y2="180"/>
<line x1="132" x2="168" y1="120" y2="120"/>
<path d="M 132 180 A 4 4 0 0 0 136 184"/>
<path d="M 136 56 A 4 4 0 0 0 132 60"/>
</g>
<g>
<line x1="136" x2="168" y1="56" y2="56"/>
</g>
<g>
<line x1="136" x2="168" y1="184" y2="184"/>
</g>
<g>
<line x1="240" x2="292" y1="56" y2="56"/>
<line x1="292" x2="292" y1="44" y2="56"/>
<line x1="292" x2="292" y1="56" y2="68"/>
<path d="M 292 68 A 4 4 0 0 0 296 72"/>
<path d="M 296 40 A 4 4 0 0 0 292 44"/>
</g>
<g>
<line x1="240" x2="292" y1="120" y2="120"/>
<line x1="292" x2="292" y1="108" y2="120"/>
<line x1="292" x2="292" y1="120" y2="132"/>
<path d="M 292 132 A 4 4 0 0 0 296 136"/>
<path d="M 296 104 A 4 4 0 0 0 292 108"/>
</g>
<g>
<line x1="240" x2="292" y1="184" y2="184"/>
<line x1="292" x2="292" y1="172" y2="184"/>
<line x1="292" x2="292" y1="184" y2="196"/>
<path d="M 292 196 A 4 4 0 0 0 296 200"/>
<path d="M 296 168 A 4 4 0 0 0 292 172"/>
</g>
<g>
<line x1="296" x2="344" y1="40" y2="40"/>
</g>
<g>
<line x1="296" x2="344" y1="72" y2="72"/>
</g>
<g>
<line x1="296" x2="344" y1="104" y2="104"/>
</g>
<g>
<line x1="296" x2="344" y1="136" y2="136"/>
</g>
<g>
<line x1="296" x2="344" y1="168" y2="168"/>
</g>
<g>
<line x1="296" x2="344" y1="200" y2="200"/>
</g>
<g>
<text x="9" y="92">
(implicit)
</text>
</g>
<g>
<text x="41" y="124">
{b,d}
</text>
</g>
<g>
<text x="153" y="28">
Selection 1
</text>
</g>
<g>
<text x="177" y="60">
{b,d,a}
</text>
</g>
<g>
<text x="177" y="124">
{b,d,c}
</text>
</g>
<g>
<text x="177" y="188">
{b,d,e}
</text>
</g>
<g>
<text x="337" y="12">
Selection 2
</text>
</g>
<g>
<text x="353" y="44">
{b,d,a,c}
</text>
</g>
<g>
<text x="353" y="76">
{b,d,a,e}
</text>
</g>
<g>
<text x="353" y="108">
{b,d,c,a}
</text>
</g>
<g>
<text x="353" y="140">
{b,d,c,e}
</text>
</g>
<g>
<text x="353" y="172">
{b,d,e,a}
</text>
</g>
<g>
<text x="353" y="204">
{b,d,e,c}
</text>
</g>
</svg>
