<?xml version="1.0" encoding="UTF-8" standalone="no"?>
<!DOCTYPE svg PUBLIC "-//W3C//DTD SVG 1.1//EN"
 "http://www.w3.org/Graphics/SVG/1.1/DTD/svg11.dtd">
<!-- Generated by graphviz version 2.40.1 (0)
 -->
<!-- Title: G Pages: 1 -->
<svg width="406pt" height="365pt"
 viewBox="0.00 0.00 406.00 365.38" xmlns="http://www.w3.org/2000/svg" xmlns:xlink="http://www.w3.org/1999/xlink">
<g id="graph0" class="graph" transform="scale(1 1) rotate(0) translate(4 361.3803)">
<title>G</title>
<polygon fill="#ffffff" stroke="transparent" points="-4,4 -4,-361.3803 402,-361.3803 402,4 -4,4"/>
<!-- _C_t_ -->
<g id="node1" class="node">
<title>_C_t_</title>
<text text-anchor="middle" x="379" y="-174.9902" font-family="Times,serif" font-size="14.00" fill="#000000">_C_t_</text>
</g>
<!-- _C_h_ -->
<g id="node2" class="node">
<title>_C_h_</title>
<text text-anchor="middle" x="344.6231" y="-69.1888" font-family="Times,serif" font-size="14.00" fill="#000000">_C_h_</text>
</g>
<!-- _C_t_&#45;&#45;_C_h_ -->
<g id="edge1" class="edge">
<title>_C_t_&#45;&#45;_C_h_</title>
<path fill="none" stroke="#000000" stroke-dasharray="5,2" d="M373.3936,-161.4354C365.7886,-138.0298 352.5273,-97.2155 347.073,-80.4288"/>
<polygon fill="#000000" stroke="#000000" points="370.1088,-162.6522 376.5277,-171.0812 376.7662,-160.489 370.1088,-162.6522"/>
</g>
<!-- _E_h_ -->
<g id="node4" class="node">
<title>_E_h_</title>
<text text-anchor="middle" x="143.3769" y="-3.8" font-family="Times,serif" font-size="14.00" fill="#000000">_E_h_</text>
</g>
<!-- _C_t_&#45;&#45;_E_h_ -->
<g id="edge6" class="edge">
<title>_C_t_&#45;&#45;_E_h_</title>
<path fill="none" stroke="#0000ff" d="M368.5715,-171.1135C329.6511,-142.8361 193.1173,-43.6385 153.9523,-15.1834"/>
</g>
<!-- _E_t_ -->
<g id="node3" class="node">
<title>_E_t_</title>
<text text-anchor="middle" x="254.6231" y="-3.8" font-family="Times,serif" font-size="14.00" fill="#000000">_E_t_</text>
</g>
<!-- _C_h_&#45;&#45;_E_t_ -->
<g id="edge7" class="edge">
<title>_C_h_&#45;&#45;_E_t_</title>
<path fill="none" stroke="#0000ff" d="M334.2989,-65.3879C317.0306,-52.8417 282.4764,-27.7366 265.104,-15.1149"/>
</g>
<!-- _D_h_ -->
<g id="node7" class="node">
<title>_D_h_</title>
<text text-anchor="middle" x="53.3769" y="-280.7915" font-family="Times,serif" font-size="14.00" fill="#000000">_D_h_</text>
</g>
<!-- _C_h_&#45;&#45;_D_h_ -->
<g id="edge14" class="edge">
<title>_C_h_&#45;&#45;_D_h_</title>
<path fill="none" stroke="#ff0000" d="M334.2575,-80.4199C289.063,-113.2555 109.4724,-243.7358 63.9227,-276.8296"/>
</g>
<!-- _E_t_&#45;&#45;_E_h_ -->
<g id="edge2" class="edge">
<title>_E_t_&#45;&#45;_E_h_</title>
<path fill="none" stroke="#000000" stroke-dasharray="5,2" d="M225.4545,-1.4803C205.6201,-.2966 179.9354,-.5518 162.6236,-2.2459"/>
<polygon fill="#000000" stroke="#000000" points="225.2588,-4.9756 235.4992,-2.258 225.7992,2.0036 225.2588,-4.9756"/>
</g>
<!-- _E_h_&#45;&#45;_E_t_ -->
<g id="edge13" class="edge">
<title>_E_h_&#45;&#45;_E_t_</title>
<path fill="none" stroke="#ff0000" d="M162.5008,-12.742C182.8771,-14.7486 214.9533,-14.7527 235.3764,-12.7541"/>
</g>
<!-- _A_t_ -->
<g id="node5" class="node">
<title>_A_t_</title>
<text text-anchor="middle" x="53.3769" y="-69.1888" font-family="Times,serif" font-size="14.00" fill="#000000">_A_t_</text>
</g>
<!-- _A_h_ -->
<g id="node6" class="node">
<title>_A_h_</title>
<text text-anchor="middle" x="19" y="-174.9902" font-family="Times,serif" font-size="14.00" fill="#000000">_A_h_</text>
</g>
<!-- _A_t_&#45;&#45;_A_h_ -->
<g id="edge3" class="edge">
<title>_A_t_&#45;&#45;_A_h_</title>
<path fill="none" stroke="#000000" stroke-dasharray="5,2" d="M47.7705,-90.1436C40.1656,-113.5492 26.9042,-154.3635 21.4499,-171.1501"/>
<polygon fill="#000000" stroke="#000000" points="51.1431,-91.0899 50.9046,-80.4978 44.4857,-88.9268 51.1431,-91.0899"/>
</g>
<!-- _B_h_ -->
<g id="node10" class="node">
<title>_B_h_</title>
<text text-anchor="middle" x="344.6231" y="-280.7915" font-family="Times,serif" font-size="14.00" fill="#000000">_B_h_</text>
</g>
<!-- _A_t_&#45;&#45;_B_h_ -->
<g id="edge8" class="edge">
<title>_A_t_&#45;&#45;_B_h_</title>
<path fill="none" stroke="#0000ff" d="M59.7686,-80.4735C96.0218,-113.7074 274.4256,-243.6211 328.8824,-276.8835"/>
</g>
<!-- _A_t_&#45;&#45;_B_h_ -->
<g id="edge12" class="edge">
<title>_A_t_&#45;&#45;_B_h_</title>
<path fill="none" stroke="#ff0000" d="M69.2522,-80.5791C123.8266,-113.9476 301.7396,-243.5048 338.1493,-276.8316"/>
</g>
<!-- _A_h_&#45;&#45;_C_t_ -->
<g id="edge11" class="edge">
<title>_A_h_&#45;&#45;_C_t_</title>
<path fill="none" stroke="#ff0000" d="M38.101,-178.6902C100.4612,-178.6902 297.6511,-178.6902 359.945,-178.6902"/>
</g>
<!-- _A_h_&#45;&#45;_D_h_ -->
<g id="edge10" class="edge">
<title>_A_h_&#45;&#45;_D_h_</title>
<path fill="none" stroke="#0000ff" d="M21.4723,-186.2991C27.8151,-205.8203 44.6089,-257.5063 50.927,-276.9515"/>
</g>
<!-- _D_t_ -->
<g id="node8" class="node">
<title>_D_t_</title>
<text text-anchor="middle" x="143.3769" y="-346.1803" font-family="Times,serif" font-size="14.00" fill="#000000">_D_t_</text>
</g>
<!-- _D_h_&#45;&#45;_D_t_ -->
<g id="edge4" class="edge">
<title>_D_h_&#45;&#45;_D_t_</title>
<path fill="none" stroke="#000000" stroke-dasharray="5,2" d="M63.7011,-291.9924C78.5411,-302.7743 106.1471,-322.8313 124.6435,-336.2697"/>
<polygon fill="#000000" stroke="#000000" points="122.7485,-339.2191 132.896,-342.2655 126.8631,-333.556 122.7485,-339.2191"/>
</g>
<!-- _B_t_ -->
<g id="node9" class="node">
<title>_B_t_</title>
<text text-anchor="middle" x="254.6231" y="-346.1803" font-family="Times,serif" font-size="14.00" fill="#000000">_B_t_</text>
</g>
<!-- _B_t_&#45;&#45;_D_t_ -->
<g id="edge9" class="edge">
<title>_B_t_&#45;&#45;_D_t_</title>
<path fill="none" stroke="#0000ff" d="M235.4992,-344.6383C215.1229,-342.6317 183.0467,-342.6277 162.6236,-344.6263"/>
</g>
<!-- _B_t_&#45;&#45;_D_t_ -->
<g id="edge15" class="edge">
<title>_B_t_&#45;&#45;_D_t_</title>
<path fill="none" stroke="#ff0000" d="M235.4992,-355.1224C215.1229,-357.129 183.0467,-357.133 162.6236,-355.1344"/>
</g>
<!-- _B_t_&#45;&#45;_B_h_ -->
<g id="edge5" class="edge">
<title>_B_t_&#45;&#45;_B_h_</title>
<path fill="none" stroke="#000000" stroke-dasharray="5,2" d="M273.1619,-336.4111C291.5941,-323.0193 319.2127,-302.9532 334.1421,-292.1064"/>
<polygon fill="#000000" stroke="#000000" points="270.9801,-333.6699 264.9472,-342.3794 275.0947,-339.3331 270.9801,-333.6699"/>
</g>
</g>
</svg>
