<svg class="bob" font-family="arial" font-size="14" height="48" width="784" xmlns="http://www.w3.org/2000/svg">
<defs>
<marker id="triangle" markerHeight="8" markerWidth="8" orient="auto" refX="4" refY="2" viewBox="0 0 8 4">
<polygon class="fg_fill" points="0,0 0,4 8,2 0,0"/>
</marker>
<marker id="clear_triangle" markerHeight="10" markerWidth="10" orient="auto" refX="1" refY="7" viewBox="0 0 20 14">
<polygon class="bg_fill" points="2,2 2,12 18,7 2,2"/>
</marker>
<marker id="circle" markerHeight="5" markerWidth="5" orient="auto" refX="10" refY="10" viewBox="0 0 20 20">
<circle class="fg_fill" cx="10" cy="10" r="8"/>
</marker>
<marker id="square" markerHeight="5" markerWidth="5" orient="auto" refX="10" refY="10" viewBox="0 0 20 20">
<rect class="fg_fill" height="20" width="20" x="0" y="0"/>
</marker>
<marker id="open_circle" markerHeight="10" markerWidth="10" orient="auto" refX="10" refY="10" viewBox="0 0 20 20">
<circle class="bg_fill" cx="10" cy="10" r="4"/>
</marker>
<marker id="big_open_circle" markerHeight="20" markerWidth="20" orient="auto" refX="20" refY="20" viewBox="0 0 40 40">
<circle class="bg_fill" cx="20" cy="20" r="6"/>
</marker>
</defs>
<style type="text/css">

rect.backdrop {
    fill: white;
}
text{
    fill: black;
}

circle {
    fill: none;
    stroke: black;
    stroke-width: 2;
}

line {
    stroke: black;
    stroke-width: 2;
    stroke-opacity: 1;
    fill-opacity: 1;
    stroke-linecap: round;
    stroke-linejoin: miter;
}

path {
    fill: none;
    stroke: black;
    stroke-width: 2;
    stroke-opacity: 1;
    fill-opacity: 1;
    stroke-linecap: round;
    stroke-linejoin: miter;
}

line.dashed {
    stroke-dasharray: 5;
}

.fg_fill {
    fill: black;
}


.bg_fill {
    fill: white;
    stroke: black;
    stroke-width: 2;
}

tspan.head{
    fill: none;
    stroke: none;
}
    
</style>
<rect class="backdrop" height="48" width="784" x="0" y="0"/>
<g>
<line marker-end="url(#triangle)" x1="0" x2="20" y1="24" y2="24"/>
</g>
<g>
<line marker-end="url(#triangle)" x1="24" x2="28" y1="24" y2="24"/>
</g>
<g>
<line marker-end="url(#triangle)" x1="32" x2="36" y1="24" y2="24"/>
</g>
<g>
<line marker-end="url(#triangle)" x1="40" x2="44" y1="24" y2="24"/>
</g>
<g>
<line marker-end="url(#triangle)" x1="48" x2="52" y1="24" y2="24"/>
</g>
<g>
<line marker-end="url(#triangle)" x1="56" x2="60" y1="24" y2="24"/>
</g>
<g>
<line marker-start="url(#triangle)" x1="64" x2="68" y1="24" y2="24"/>
<line marker-end="url(#triangle)" x1="64" x2="68" y1="24" y2="24"/>
</g>
<g>
<line marker-end="url(#triangle)" x1="72" x2="92" y1="24" y2="24"/>
</g>
<g>
<line marker-end="url(#triangle)" x1="96" x2="100" y1="24" y2="24"/>
</g>
<g>
<line marker-end="url(#triangle)" x1="104" x2="108" y1="24" y2="24"/>
</g>
<g>
<line marker-end="url(#triangle)" x1="112" x2="116" y1="24" y2="24"/>
</g>
<g>
<line marker-end="url(#triangle)" x1="120" x2="124" y1="24" y2="24"/>
</g>
<g>
<line marker-end="url(#triangle)" x1="128" x2="132" y1="24" y2="24"/>
</g>
<g>
<line marker-start="url(#triangle)" x1="136" x2="140" y1="24" y2="24"/>
<line marker-end="url(#triangle)" x1="136" x2="140" y1="24" y2="24"/>
</g>
<g>
<line marker-end="url(#triangle)" x1="144" x2="164" y1="24" y2="24"/>
</g>
<g>
<line marker-end="url(#triangle)" x1="168" x2="172" y1="24" y2="24"/>
</g>
<g>
<line marker-end="url(#triangle)" x1="176" x2="180" y1="24" y2="24"/>
</g>
<g>
<line marker-end="url(#triangle)" x1="184" x2="188" y1="24" y2="24"/>
</g>
<g>
<line marker-end="url(#triangle)" x1="192" x2="196" y1="24" y2="24"/>
</g>
<g>
<line marker-end="url(#triangle)" x1="200" x2="204" y1="24" y2="24"/>
</g>
<g>
<line marker-start="url(#triangle)" x1="208" x2="212" y1="24" y2="24"/>
<line marker-end="url(#triangle)" x1="208" x2="212" y1="24" y2="24"/>
</g>
<g>
<line marker-end="url(#triangle)" x1="216" x2="236" y1="24" y2="24"/>
</g>
<g>
<line marker-end="url(#triangle)" x1="240" x2="244" y1="24" y2="24"/>
</g>
<g>
<line marker-end="url(#triangle)" x1="248" x2="252" y1="24" y2="24"/>
</g>
<g>
<line marker-end="url(#triangle)" x1="256" x2="260" y1="24" y2="24"/>
</g>
<g>
<line marker-end="url(#triangle)" x1="264" x2="268" y1="24" y2="24"/>
</g>
<g>
<line marker-start="url(#triangle)" x1="272" x2="276" y1="24" y2="24"/>
<line marker-end="url(#triangle)" x1="272" x2="276" y1="24" y2="24"/>
</g>
<g>
<line x1="280" x2="296" y1="24" y2="24"/>
</g>
<g>
<line marker-start="url(#triangle)" x1="304" x2="300" y1="24" y2="24"/>
<line marker-end="url(#triangle)" x1="304" x2="300" y1="24" y2="24"/>
</g>
<g>
<line marker-end="url(#triangle)" x1="312" x2="308" y1="24" y2="24"/>
</g>
<g>
<line marker-end="url(#triangle)" x1="320" x2="316" y1="24" y2="24"/>
</g>
<g>
<line marker-end="url(#triangle)" x1="328" x2="324" y1="24" y2="24"/>
</g>
<g>
<line marker-end="url(#triangle)" x1="336" x2="332" y1="24" y2="24"/>
</g>
<g>
<line marker-end="url(#triangle)" x1="344" x2="340" y1="24" y2="24"/>
<line x1="344" x2="360" y1="24" y2="24"/>
</g>
<g>
<line marker-end="url(#triangle)" x1="424" x2="444" y1="24" y2="24"/>
</g>
<g>
<line marker-end="url(#triangle)" x1="448" x2="452" y1="24" y2="24"/>
</g>
<g>
<line marker-end="url(#triangle)" x1="456" x2="460" y1="24" y2="24"/>
</g>
<g>
<line marker-end="url(#triangle)" x1="464" x2="468" y1="24" y2="24"/>
</g>
<g>
<line marker-end="url(#triangle)" x1="472" x2="476" y1="24" y2="24"/>
</g>
<g>
<line marker-end="url(#triangle)" x1="480" x2="484" y1="24" y2="24"/>
</g>
<g>
<line marker-start="url(#triangle)" x1="488" x2="492" y1="24" y2="24"/>
<line marker-end="url(#triangle)" x1="488" x2="492" y1="24" y2="24"/>
</g>
<g>
<line x1="496" x2="512" y1="24" y2="24"/>
</g>
<g>
<line marker-start="url(#triangle)" x1="520" x2="516" y1="24" y2="24"/>
<line marker-end="url(#triangle)" x1="520" x2="516" y1="24" y2="24"/>
</g>
<g>
<line marker-end="url(#triangle)" x1="528" x2="524" y1="24" y2="24"/>
</g>
<g>
<line marker-end="url(#triangle)" x1="536" x2="532" y1="24" y2="24"/>
</g>
<g>
<line marker-end="url(#triangle)" x1="544" x2="540" y1="24" y2="24"/>
</g>
<g>
<line marker-end="url(#triangle)" x1="552" x2="548" y1="24" y2="24"/>
</g>
<g>
<line marker-end="url(#triangle)" x1="560" x2="556" y1="24" y2="24"/>
</g>
<g>
<line marker-end="url(#triangle)" x1="568" x2="564" y1="24" y2="24"/>
<line x1="568" x2="584" y1="24" y2="24"/>
</g>
<g>
<line marker-start="url(#triangle)" x1="592" x2="588" y1="24" y2="24"/>
<line marker-end="url(#triangle)" x1="592" x2="588" y1="24" y2="24"/>
</g>
<g>
<line marker-end="url(#triangle)" x1="600" x2="596" y1="24" y2="24"/>
</g>
<g>
<line marker-end="url(#triangle)" x1="608" x2="604" y1="24" y2="24"/>
</g>
<g>
<line marker-end="url(#triangle)" x1="616" x2="612" y1="24" y2="24"/>
</g>
<g>
<line marker-end="url(#triangle)" x1="624" x2="620" y1="24" y2="24"/>
</g>
<g>
<line marker-end="url(#triangle)" x1="632" x2="628" y1="24" y2="24"/>
</g>
<g>
<line marker-end="url(#triangle)" x1="640" x2="636" y1="24" y2="24"/>
<line x1="640" x2="656" y1="24" y2="24"/>
</g>
<g>
<line marker-start="url(#triangle)" x1="664" x2="660" y1="24" y2="24"/>
<line marker-end="url(#triangle)" x1="664" x2="660" y1="24" y2="24"/>
</g>
<g>
<line marker-end="url(#triangle)" x1="672" x2="668" y1="24" y2="24"/>
</g>
<g>
<line marker-end="url(#triangle)" x1="680" x2="676" y1="24" y2="24"/>
</g>
<g>
<line marker-end="url(#triangle)" x1="688" x2="684" y1="24" y2="24"/>
</g>
<g>
<line marker-end="url(#triangle)" x1="696" x2="692" y1="24" y2="24"/>
</g>
<g>
<line marker-end="url(#triangle)" x1="704" x2="700" y1="24" y2="24"/>
<line marker-end="url(#triangle)" x1="704" x2="724" y1="24" y2="24"/>
</g>
<g>
<line marker-end="url(#triangle)" x1="728" x2="732" y1="24" y2="24"/>
</g>
<g>
<line marker-end="url(#triangle)" x1="736" x2="740" y1="24" y2="24"/>
</g>
<g>
<line marker-end="url(#triangle)" x1="744" x2="748" y1="24" y2="24"/>
</g>
<g>
<line marker-end="url(#triangle)" x1="752" x2="756" y1="24" y2="24"/>
</g>
<g>
<line marker-start="url(#triangle)" x1="760" x2="764" y1="24" y2="24"/>
<line marker-end="url(#triangle)" x1="760" x2="764" y1="24" y2="24"/>
</g>
<g>
<line x1="768" x2="784" y1="24" y2="24"/>
</g>
<g>
<text x="9" y="44">
5&#39;
</text>
</g>
<g>
<text x="41" y="12">
+1
</text>
</g>
<g>
<text x="105" y="12">
+2
</text>
</g>
<g>
<text x="161" y="44">
DESIRED
</text>
</g>
<g>
<text x="177" y="12">
+3
</text>
</g>
<g>
<text x="249" y="12">
+4
</text>
</g>
<g>
<text x="313" y="12">
+5
</text>
</g>
<g>
<text x="337" y="44">
3&#39;
</text>
</g>
<g>
<text x="385" y="28">
vs
</text>
</g>
<g>
<text x="433" y="44">
5&#39;
</text>
</g>
<g>
<text x="457" y="12">
+1
</text>
</g>
<g>
<text x="537" y="12">
-4
</text>
</g>
<g>
<text x="577" y="44">
UNDESIRED
</text>
</g>
<g>
<text x="601" y="12">
-3
</text>
</g>
<g>
<text x="673" y="12">
-2
</text>
</g>
<g>
<text x="729" y="12">
-5
</text>
</g>
<g>
<text x="761" y="44">
3&#39;
</text>
</g>
</svg>
