<?xml version="1.0" encoding="UTF-8" standalone="no"?>
<!DOCTYPE svg PUBLIC "-//W3C//DTD SVG 1.1//EN"
 "http://www.w3.org/Graphics/SVG/1.1/DTD/svg11.dtd">
<!-- Generated by graphviz version 2.40.1 (0)
 -->
<!-- Title: G Pages: 1 -->
<svg width="465pt" height="200pt"
 viewBox="0.00 0.00 465.19 200.00" xmlns="http://www.w3.org/2000/svg" xmlns:xlink="http://www.w3.org/1999/xlink">
<g id="graph0" class="graph" transform="scale(1 1) rotate(0) translate(4 196)">
<title>G</title>
<polygon fill="#ffffff" stroke="transparent" points="-4,4 -4,-196 461.1949,-196 461.1949,4 -4,4"/>
<!-- STATE_A -->
<g id="node1" class="node">
<title>STATE_A</title>
<polygon fill="none" stroke="#000000" points="168.1602,-56.0493 169.9363,-56.1479 171.694,-56.2953 173.4261,-56.4913 175.1257,-56.7353 176.7859,-57.0266 178.4002,-57.3645 179.9623,-57.7479 181.4662,-58.1759 182.9064,-58.6472 184.2777,-59.1606 185.5753,-59.7147 186.7949,-60.308 187.9326,-60.9388 188.9851,-61.6054 189.9494,-62.3059 190.8232,-63.0385 191.6046,-63.8012 192.2922,-64.5918 192.8852,-65.4082 193.3832,-66.2481 193.7862,-67.1093 194.0949,-67.9894 194.3101,-68.886 194.4334,-69.7965 194.4666,-70.7186 194.4118,-71.6497 194.2716,-72.5873 194.0487,-73.5287 193.7463,-74.4713 193.3677,-75.4127 192.9163,-76.3503 192.3958,-77.2814 191.8101,-78.2035 191.1629,-79.114 190.4583,-80.0106 189.7002,-80.8907 188.8925,-81.7519 188.039,-82.5918 187.1436,-83.4082 186.2099,-84.1988 185.2416,-84.9615 184.242,-85.6941 183.2145,-86.3946 182.162,-87.0612 181.0876,-87.692 179.9937,-88.2853 178.883,-88.8394 177.7578,-89.3528 176.62,-89.8241 175.4716,-90.2521 174.3142,-90.6355 173.1494,-90.9734 171.9785,-91.2647 170.8027,-91.5087 169.6231,-91.7047 168.4407,-91.8521 167.2562,-91.9507 166.0707,-92 164.8847,-92 163.6991,-91.9507 162.5146,-91.8521 161.3322,-91.7047 160.1526,-91.5087 158.9768,-91.2647 157.8059,-90.9734 156.6411,-90.6355 155.4838,-90.2521 154.3353,-89.8241 153.1976,-89.3528 152.0723,-88.8394 150.9616,-88.2853 149.8678,-87.692 148.7933,-87.0612 147.7408,-86.3946 146.7133,-85.6941 145.7137,-84.9615 144.7454,-84.1988 143.8118,-83.4082 142.9164,-82.5918 142.0629,-81.7519 141.2551,-80.8907 140.497,-80.0106 139.7924,-79.114 139.1452,-78.2035 138.5595,-77.2814 138.0391,-76.3503 137.5877,-75.4127 137.209,-74.4713 136.9066,-73.5287 136.6837,-72.5873 136.5435,-71.6497 136.4887,-70.7186 136.5219,-69.7965 136.6452,-68.886 136.8605,-67.9894 137.1691,-67.1093 137.5722,-66.2481 138.0701,-65.4082 138.6631,-64.5918 139.3507,-63.8012 140.1321,-63.0385 141.006,-62.3059 141.9703,-61.6054 143.0227,-60.9388 144.1604,-60.308 145.38,-59.7147 146.6776,-59.1606 148.0489,-58.6472 149.4891,-58.1759 150.993,-57.7479 152.5551,-57.3645 154.1694,-57.0266 155.8296,-56.7353 157.5292,-56.4913 159.2614,-56.2953 161.0191,-56.1479 162.7951,-56.0493 164.5823,-56 166.3731,-56 168.1602,-56.0493"/>
<text text-anchor="middle" x="165.4777" y="-71.5" font-family="Courier,monospace" font-weight="bold" font-size="10.00" fill="#000000">A</text>
</g>
<!-- STATE_A&#45;&gt;STATE_A -->
<g id="edge1" class="edge">
<title>STATE_A&#45;&gt;STATE_A</title>
<path fill="none" stroke="#000000" d="M155.37,-90.2903C152.9327,-100.3892 156.3019,-110 165.4777,-110 171.3559,-110 174.8511,-106.0557 175.9633,-100.5656"/>
<polygon fill="#000000" stroke="#000000" points="179.4507,-100.1548 175.5854,-90.2903 172.4554,-100.4122 179.4507,-100.1548"/>
<text text-anchor="middle" x="165.4777" y="-113" font-family="Courier,monospace" font-weight="bold" font-size="10.00" fill="#000000">0.377</text>
</g>
<!-- STATE_B -->
<g id="node2" class="node">
<title>STATE_B</title>
<polygon fill="none" stroke="#000000" points="299.6471,-46.0493 301.4231,-46.1479 303.1808,-46.2953 304.913,-46.4913 306.6126,-46.7353 308.2728,-47.0266 309.8871,-47.3645 311.4492,-47.7479 312.9531,-48.1759 314.3933,-48.6472 315.7646,-49.1606 317.0622,-49.7147 318.2818,-50.308 319.4195,-50.9388 320.4719,-51.6054 321.4363,-52.3059 322.3101,-53.0385 323.0915,-53.8012 323.7791,-54.5918 324.3721,-55.4082 324.8701,-56.2481 325.2731,-57.1093 325.5817,-57.9894 325.797,-58.886 325.9203,-59.7965 325.9535,-60.7186 325.8987,-61.6497 325.7585,-62.5873 325.5356,-63.5287 325.2332,-64.4713 324.8545,-65.4127 324.4032,-66.3503 323.8827,-67.2814 323.297,-68.2035 322.6498,-69.114 321.9452,-70.0106 321.1871,-70.8907 320.3793,-71.7519 319.5259,-72.5918 318.6305,-73.4082 317.6968,-74.1988 316.7285,-74.9615 315.7289,-75.6941 314.7014,-76.3946 313.6489,-77.0612 312.5744,-77.692 311.4806,-78.2853 310.3699,-78.8394 309.2447,-79.3528 308.1069,-79.8241 306.9585,-80.2521 305.8011,-80.6355 304.6363,-80.9734 303.4654,-81.2647 302.2896,-81.5087 301.11,-81.7047 299.9276,-81.8521 298.7431,-81.9507 297.5575,-82 296.3716,-82 295.186,-81.9507 294.0015,-81.8521 292.8191,-81.7047 291.6395,-81.5087 290.4637,-81.2647 289.2928,-80.9734 288.128,-80.6355 286.9706,-80.2521 285.8222,-79.8241 284.6844,-79.3528 283.5592,-78.8394 282.4485,-78.2853 281.3547,-77.692 280.2802,-77.0612 279.2277,-76.3946 278.2002,-75.6941 277.2006,-74.9615 276.2323,-74.1988 275.2986,-73.4082 274.4032,-72.5918 273.5498,-71.7519 272.742,-70.8907 271.9839,-70.0106 271.2793,-69.114 270.6321,-68.2035 270.0464,-67.2814 269.5259,-66.3503 269.0746,-65.4127 268.6959,-64.4713 268.3935,-63.5287 268.1706,-62.5873 268.0304,-61.6497 267.9756,-60.7186 268.0088,-59.7965 268.1321,-58.886 268.3474,-57.9894 268.656,-57.1093 269.059,-56.2481 269.557,-55.4082 270.15,-54.5918 270.8376,-53.8012 271.619,-53.0385 272.4928,-52.3059 273.4572,-51.6054 274.5096,-50.9388 275.6473,-50.308 276.8669,-49.7147 278.1645,-49.1606 279.5358,-48.6472 280.976,-48.1759 282.4799,-47.7479 284.042,-47.3645 285.6563,-47.0266 287.3165,-46.7353 289.0161,-46.4913 290.7483,-46.2953 292.506,-46.1479 294.282,-46.0493 296.0691,-46 297.86,-46 299.6471,-46.0493"/>
<text text-anchor="middle" x="296.9645" y="-61.5" font-family="Courier,monospace" font-weight="bold" font-size="10.00" fill="#000000">B</text>
</g>
<!-- STATE_A&#45;&gt;STATE_B -->
<g id="edge2" class="edge">
<title>STATE_A&#45;&gt;STATE_B</title>
<path fill="none" stroke="#000000" d="M194.5255,-72.6288C210.8966,-71.7701 231.7148,-70.5349 250.2211,-69 253.2941,-68.7451 256.4781,-68.4566 259.6735,-68.1499"/>
<polygon fill="#000000" stroke="#000000" points="260.1989,-71.6147 269.7964,-67.1272 259.4953,-64.6502 260.1989,-71.6147"/>
<text text-anchor="middle" x="231.2211" y="-74" font-family="Courier,monospace" font-weight="bold" font-size="10.00" fill="#000000">0.623</text>
</g>
<!-- SYMBOL_x -->
<g id="node4" class="node">
<title>SYMBOL_x</title>
<polygon fill="none" stroke="#000000" stroke-dasharray="5,2" points="431.134,-21.0493 432.91,-21.1479 434.6677,-21.2953 436.3999,-21.4913 438.0995,-21.7353 439.7597,-22.0266 441.374,-22.3645 442.9361,-22.7479 444.44,-23.1759 445.8802,-23.6472 447.2515,-24.1606 448.5491,-24.7147 449.7687,-25.308 450.9064,-25.9388 451.9588,-26.6054 452.9231,-27.3059 453.7969,-28.0385 454.5784,-28.8012 455.266,-29.5918 455.859,-30.4082 456.3569,-31.2481 456.76,-32.1093 457.0686,-32.9894 457.2839,-33.886 457.4072,-34.7965 457.4404,-35.7186 457.3856,-36.6497 457.2454,-37.5873 457.0225,-38.5287 456.7201,-39.4713 456.3414,-40.4127 455.89,-41.3503 455.3696,-42.2814 454.7838,-43.2035 454.1367,-44.114 453.4321,-45.0106 452.674,-45.8907 451.8662,-46.7519 451.0127,-47.5918 450.1173,-48.4082 449.1837,-49.1988 448.2154,-49.9615 447.2158,-50.6941 446.1883,-51.3946 445.1358,-52.0612 444.0613,-52.692 442.9675,-53.2853 441.8568,-53.8394 440.7315,-54.3528 439.5938,-54.8241 438.4453,-55.2521 437.288,-55.6355 436.1232,-55.9734 434.9523,-56.2647 433.7765,-56.5087 432.5969,-56.7047 431.4145,-56.8521 430.23,-56.9507 429.0444,-57 427.8584,-57 426.6728,-56.9507 425.4884,-56.8521 424.306,-56.7047 423.1264,-56.5087 421.9506,-56.2647 420.7797,-55.9734 419.6149,-55.6355 418.4575,-55.2521 417.3091,-54.8241 416.1713,-54.3528 415.0461,-53.8394 413.9354,-53.2853 412.8415,-52.692 411.7671,-52.0612 410.7146,-51.3946 409.6871,-50.6941 408.6875,-49.9615 407.7192,-49.1988 406.7855,-48.4082 405.8901,-47.5918 405.0366,-46.7519 404.2289,-45.8907 403.4708,-45.0106 402.7662,-44.114 402.119,-43.2035 401.5333,-42.2814 401.0128,-41.3503 400.5614,-40.4127 400.1828,-39.4713 399.8804,-38.5287 399.6575,-37.5873 399.5173,-36.6497 399.4625,-35.7186 399.4956,-34.7965 399.619,-33.886 399.8342,-32.9894 400.1429,-32.1093 400.5459,-31.2481 401.0439,-30.4082 401.6369,-29.5918 402.3245,-28.8012 403.1059,-28.0385 403.9797,-27.3059 404.944,-26.6054 405.9965,-25.9388 407.1342,-25.308 408.3538,-24.7147 409.6514,-24.1606 411.0227,-23.6472 412.4629,-23.1759 413.9668,-22.7479 415.5289,-22.3645 417.1432,-22.0266 418.8034,-21.7353 420.503,-21.4913 422.2351,-21.2953 423.9928,-21.1479 425.7689,-21.0493 427.556,-21 429.3468,-21 431.134,-21.0493"/>
<text text-anchor="middle" x="428.4514" y="-36.5" font-family="Courier,monospace" font-weight="bold" font-size="10.00" fill="#000000">x</text>
</g>
<!-- STATE_A&#45;&gt;SYMBOL_x -->
<g id="edge7" class="edge">
<title>STATE_A&#45;&gt;SYMBOL_x</title>
<path fill="none" stroke="#000000" stroke-dasharray="5,2" d="M186.8771,-60.3463C206.9685,-48.438 238.3279,-32.1358 268.2211,-26 309.2956,-17.5691 357.3459,-23.5115 390.0371,-29.8603"/>
<polygon fill="#000000" stroke="#000000" points="389.5842,-33.3401 400.0831,-31.9182 390.989,-26.4825 389.5842,-33.3401"/>
<text text-anchor="middle" x="296.9645" y="-29" font-family="Courier,monospace" font-weight="bold" font-size="10.00" fill="#000000">0.176</text>
</g>
<!-- SYMBOL_y -->
<g id="node5" class="node">
<title>SYMBOL_y</title>
<polygon fill="none" stroke="#000000" stroke-dasharray="5,2" points="431.134,-81.0493 432.91,-81.1479 434.6677,-81.2953 436.3999,-81.4913 438.0995,-81.7353 439.7597,-82.0266 441.374,-82.3645 442.9361,-82.7479 444.44,-83.1759 445.8802,-83.6472 447.2515,-84.1606 448.5491,-84.7147 449.7687,-85.308 450.9064,-85.9388 451.9588,-86.6054 452.9231,-87.3059 453.7969,-88.0385 454.5784,-88.8012 455.266,-89.5918 455.859,-90.4082 456.3569,-91.2481 456.76,-92.1093 457.0686,-92.9894 457.2839,-93.886 457.4072,-94.7965 457.4404,-95.7186 457.3856,-96.6497 457.2454,-97.5873 457.0225,-98.5287 456.7201,-99.4713 456.3414,-100.4127 455.89,-101.3503 455.3696,-102.2814 454.7838,-103.2035 454.1367,-104.114 453.4321,-105.0106 452.674,-105.8907 451.8662,-106.7519 451.0127,-107.5918 450.1173,-108.4082 449.1837,-109.1988 448.2154,-109.9615 447.2158,-110.6941 446.1883,-111.3946 445.1358,-112.0612 444.0613,-112.692 442.9675,-113.2853 441.8568,-113.8394 440.7315,-114.3528 439.5938,-114.8241 438.4453,-115.2521 437.288,-115.6355 436.1232,-115.9734 434.9523,-116.2647 433.7765,-116.5087 432.5969,-116.7047 431.4145,-116.8521 430.23,-116.9507 429.0444,-117 427.8584,-117 426.6728,-116.9507 425.4884,-116.8521 424.306,-116.7047 423.1264,-116.5087 421.9506,-116.2647 420.7797,-115.9734 419.6149,-115.6355 418.4575,-115.2521 417.3091,-114.8241 416.1713,-114.3528 415.0461,-113.8394 413.9354,-113.2853 412.8415,-112.692 411.7671,-112.0612 410.7146,-111.3946 409.6871,-110.6941 408.6875,-109.9615 407.7192,-109.1988 406.7855,-108.4082 405.8901,-107.5918 405.0366,-106.7519 404.2289,-105.8907 403.4708,-105.0106 402.7662,-104.114 402.119,-103.2035 401.5333,-102.2814 401.0128,-101.3503 400.5614,-100.4127 400.1828,-99.4713 399.8804,-98.5287 399.6575,-97.5873 399.5173,-96.6497 399.4625,-95.7186 399.4956,-94.7965 399.619,-93.886 399.8342,-92.9894 400.1429,-92.1093 400.5459,-91.2481 401.0439,-90.4082 401.6369,-89.5918 402.3245,-88.8012 403.1059,-88.0385 403.9797,-87.3059 404.944,-86.6054 405.9965,-85.9388 407.1342,-85.308 408.3538,-84.7147 409.6514,-84.1606 411.0227,-83.6472 412.4629,-83.1759 413.9668,-82.7479 415.5289,-82.3645 417.1432,-82.0266 418.8034,-81.7353 420.503,-81.4913 422.2351,-81.2953 423.9928,-81.1479 425.7689,-81.0493 427.556,-81 429.3468,-81 431.134,-81.0493"/>
<text text-anchor="middle" x="428.4514" y="-96.5" font-family="Courier,monospace" font-weight="bold" font-size="10.00" fill="#000000">y</text>
</g>
<!-- STATE_A&#45;&gt;SYMBOL_y -->
<g id="edge8" class="edge">
<title>STATE_A&#45;&gt;SYMBOL_y</title>
<path fill="none" stroke="#000000" stroke-dasharray="5,2" d="M185.749,-84.9071C206.061,-95.3918 238.4959,-110.9432 268.2211,-120 300.7867,-129.9222 309.7881,-130.1006 343.708,-133 360.5355,-134.4384 365.6471,-138.2233 381.708,-133 390.3503,-130.1893 398.7277,-125.1123 405.9462,-119.7242"/>
<polygon fill="#000000" stroke="#000000" points="408.24,-122.3708 413.834,-113.3732 403.85,-116.9185 408.24,-122.3708"/>
<text text-anchor="middle" x="296.9645" y="-134" font-family="Courier,monospace" font-weight="bold" font-size="10.00" fill="#000000">0.596</text>
</g>
<!-- SYMBOL_z -->
<g id="node6" class="node">
<title>SYMBOL_z</title>
<polygon fill="none" stroke="#000000" stroke-dasharray="5,2" points="431.134,-156.0493 432.91,-156.1479 434.6677,-156.2953 436.3999,-156.4913 438.0995,-156.7353 439.7597,-157.0266 441.374,-157.3645 442.9361,-157.7479 444.44,-158.1759 445.8802,-158.6472 447.2515,-159.1606 448.5491,-159.7147 449.7687,-160.308 450.9064,-160.9388 451.9588,-161.6054 452.9231,-162.3059 453.7969,-163.0385 454.5784,-163.8012 455.266,-164.5918 455.859,-165.4082 456.3569,-166.2481 456.76,-167.1093 457.0686,-167.9894 457.2839,-168.886 457.4072,-169.7965 457.4404,-170.7186 457.3856,-171.6497 457.2454,-172.5873 457.0225,-173.5287 456.7201,-174.4713 456.3414,-175.4127 455.89,-176.3503 455.3696,-177.2814 454.7838,-178.2035 454.1367,-179.114 453.4321,-180.0106 452.674,-180.8907 451.8662,-181.7519 451.0127,-182.5918 450.1173,-183.4082 449.1837,-184.1988 448.2154,-184.9615 447.2158,-185.6941 446.1883,-186.3946 445.1358,-187.0612 444.0613,-187.692 442.9675,-188.2853 441.8568,-188.8394 440.7315,-189.3528 439.5938,-189.8241 438.4453,-190.2521 437.288,-190.6355 436.1232,-190.9734 434.9523,-191.2647 433.7765,-191.5087 432.5969,-191.7047 431.4145,-191.8521 430.23,-191.9507 429.0444,-192 427.8584,-192 426.6728,-191.9507 425.4884,-191.8521 424.306,-191.7047 423.1264,-191.5087 421.9506,-191.2647 420.7797,-190.9734 419.6149,-190.6355 418.4575,-190.2521 417.3091,-189.8241 416.1713,-189.3528 415.0461,-188.8394 413.9354,-188.2853 412.8415,-187.692 411.7671,-187.0612 410.7146,-186.3946 409.6871,-185.6941 408.6875,-184.9615 407.7192,-184.1988 406.7855,-183.4082 405.8901,-182.5918 405.0366,-181.7519 404.2289,-180.8907 403.4708,-180.0106 402.7662,-179.114 402.119,-178.2035 401.5333,-177.2814 401.0128,-176.3503 400.5614,-175.4127 400.1828,-174.4713 399.8804,-173.5287 399.6575,-172.5873 399.5173,-171.6497 399.4625,-170.7186 399.4956,-169.7965 399.619,-168.886 399.8342,-167.9894 400.1429,-167.1093 400.5459,-166.2481 401.0439,-165.4082 401.6369,-164.5918 402.3245,-163.8012 403.1059,-163.0385 403.9797,-162.3059 404.944,-161.6054 405.9965,-160.9388 407.1342,-160.308 408.3538,-159.7147 409.6514,-159.1606 411.0227,-158.6472 412.4629,-158.1759 413.9668,-157.7479 415.5289,-157.3645 417.1432,-157.0266 418.8034,-156.7353 420.503,-156.4913 422.2351,-156.2953 423.9928,-156.1479 425.7689,-156.0493 427.556,-156 429.3468,-156 431.134,-156.0493"/>
<text text-anchor="middle" x="428.4514" y="-171.5" font-family="Courier,monospace" font-weight="bold" font-size="10.00" fill="#000000">z</text>
</g>
<!-- STATE_A&#45;&gt;SYMBOL_z -->
<g id="edge9" class="edge">
<title>STATE_A&#45;&gt;SYMBOL_z</title>
<path fill="none" stroke="#000000" stroke-dasharray="5,2" d="M178.7648,-89.0458C187.6039,-98.4544 199.8301,-110.3797 212.2211,-119 266.0579,-156.4538 343.2645,-168.4235 389.3796,-172.2353"/>
<polygon fill="#000000" stroke="#000000" points="389.3341,-175.7413 399.5643,-172.9857 389.8486,-168.7603 389.3341,-175.7413"/>
<text text-anchor="middle" x="296.9645" y="-165" font-family="Courier,monospace" font-weight="bold" font-size="10.00" fill="#000000">0.228</text>
</g>
<!-- STATE_B&#45;&gt;STATE_A -->
<g id="edge3" class="edge">
<title>STATE_B&#45;&gt;STATE_A</title>
<path fill="none" stroke="#000000" d="M268.5406,-57.4073C252.004,-54.543 230.8181,-52.543 212.2211,-56 208.2936,-56.7301 204.2705,-57.7777 200.3126,-59.0055"/>
<polygon fill="#000000" stroke="#000000" points="198.9945,-55.7582 190.7,-62.3501 201.2948,-62.3695 198.9945,-55.7582"/>
<text text-anchor="middle" x="231.2211" y="-59" font-family="Courier,monospace" font-weight="bold" font-size="10.00" fill="#000000">0.0</text>
</g>
<!-- STATE_B&#45;&gt;STATE_B -->
<g id="edge4" class="edge">
<title>STATE_B&#45;&gt;STATE_B</title>
<path fill="none" stroke="#000000" d="M285.9138,-79.916C283.031,-90.1504 286.7145,-100 296.9645,-100 303.6911,-100 307.5898,-95.7581 308.6605,-89.9494"/>
<polygon fill="#000000" stroke="#000000" points="312.1499,-89.6708 308.0153,-79.916 305.1643,-90.12 312.1499,-89.6708"/>
<text text-anchor="middle" x="296.9645" y="-103" font-family="Courier,monospace" font-weight="bold" font-size="10.00" fill="#000000">0.0</text>
</g>
<!-- STATE_B&#45;&gt;SYMBOL_x -->
<g id="edge10" class="edge">
<title>STATE_B&#45;&gt;SYMBOL_x</title>
<path fill="none" stroke="#000000" stroke-dasharray="5,2" d="M325.5733,-56.9456C331.5495,-55.5626 337.8221,-54.1774 343.708,-53 359.3903,-49.8631 376.8063,-46.8973 391.7508,-44.5099"/>
<polygon fill="#000000" stroke="#000000" points="392.315,-47.9643 401.6506,-42.9545 391.2285,-41.0492 392.315,-47.9643"/>
<text text-anchor="middle" x="362.708" y="-56" font-family="Courier,monospace" font-weight="bold" font-size="10.00" fill="#000000">0.0</text>
</g>
<!-- STATE_B&#45;&gt;SYMBOL_y -->
<g id="edge11" class="edge">
<title>STATE_B&#45;&gt;SYMBOL_y</title>
<path fill="none" stroke="#000000" stroke-dasharray="5,2" d="M321.6962,-70.5832C341.0497,-75.7349 368.2979,-82.988 390.4212,-88.8769"/>
<polygon fill="#000000" stroke="#000000" points="389.6148,-92.284 400.1786,-91.4742 391.4154,-85.5196 389.6148,-92.284"/>
<text text-anchor="middle" x="362.708" y="-88" font-family="Courier,monospace" font-weight="bold" font-size="10.00" fill="#000000">0.572</text>
</g>
<!-- STATE_B&#45;&gt;SYMBOL_z -->
<g id="edge12" class="edge">
<title>STATE_B&#45;&gt;SYMBOL_z</title>
<path fill="none" stroke="#000000" stroke-dasharray="5,2" d="M313.0874,-77.4882C335.336,-96.101 375.7107,-129.8779 402.3062,-152.1273"/>
<polygon fill="#000000" stroke="#000000" points="400.1665,-154.9005 410.0823,-158.6326 404.6581,-149.5315 400.1665,-154.9005"/>
<text text-anchor="middle" x="362.708" y="-135" font-family="Courier,monospace" font-weight="bold" font-size="10.00" fill="#000000">0.203</text>
</g>
<!-- STATE_SOURCE -->
<g id="node3" class="node">
<title>STATE_SOURCE</title>
<polygon fill="none" stroke="#000000" points="42.4515,-.0493 44.8246,-.1479 47.1732,-.2953 49.4877,-.4913 51.7587,-.7353 53.9771,-1.0266 56.134,-1.3645 58.2213,-1.7479 60.2308,-2.1759 62.1552,-2.6472 63.9875,-3.1606 65.7213,-3.7147 67.3509,-4.308 68.8711,-4.9388 70.2774,-5.6054 71.5659,-6.3059 72.7335,-7.0385 73.7776,-7.8012 74.6964,-8.5918 75.4887,-9.4082 76.1541,-10.2481 76.6926,-11.1093 77.105,-11.9894 77.3927,-12.886 77.5574,-13.7965 77.6018,-14.7186 77.5286,-15.6497 77.3412,-16.5873 77.0434,-17.5287 76.6393,-18.4713 76.1334,-19.4127 75.5302,-20.3503 74.8348,-21.2814 74.0521,-22.2035 73.1874,-23.114 72.246,-24.0106 71.2329,-24.8907 70.1536,-25.7519 69.0132,-26.5918 67.8168,-27.4082 66.5693,-28.1988 65.2754,-28.9615 63.9398,-29.6941 62.5668,-30.3946 61.1606,-31.0612 59.7248,-31.692 58.2633,-32.2853 56.7792,-32.8394 55.2756,-33.3528 53.7553,-33.8241 52.2208,-34.2521 50.6744,-34.6355 49.118,-34.9734 47.5535,-35.2647 45.9824,-35.5087 44.4062,-35.7047 42.8263,-35.8521 41.2436,-35.9507 39.6595,-36 38.0748,-36 36.4906,-35.9507 34.908,-35.8521 33.328,-35.7047 31.7518,-35.5087 30.1808,-35.2647 28.6162,-34.9734 27.0598,-34.6355 25.5134,-34.2521 23.9789,-33.8241 22.4586,-33.3528 20.955,-32.8394 19.4709,-32.2853 18.0094,-31.692 16.5737,-31.0612 15.1674,-30.3946 13.7944,-29.6941 12.4588,-28.9615 11.1649,-28.1988 9.9174,-27.4082 8.721,-26.5918 7.5806,-25.7519 6.5013,-24.8907 5.4883,-24.0106 4.5468,-23.114 3.6821,-22.2035 2.8994,-21.2814 2.204,-20.3503 1.6009,-19.4127 1.0949,-18.4713 .6908,-17.5287 .393,-16.5873 .2056,-15.6497 .1324,-14.7186 .1768,-13.7965 .3416,-12.886 .6292,-11.9894 1.0416,-11.1093 1.5801,-10.2481 2.2455,-9.4082 3.0379,-8.5918 3.9567,-7.8012 5.0008,-7.0385 6.1683,-6.3059 7.4568,-5.6054 8.8631,-4.9388 10.3833,-4.308 12.0129,-3.7147 13.7467,-3.1606 15.579,-2.6472 17.5034,-2.1759 19.513,-1.7479 21.6002,-1.3645 23.7572,-1.0266 25.9755,-.7353 28.2465,-.4913 30.561,-.2953 32.9096,-.1479 35.2827,-.0493 37.6707,0 40.0635,0 42.4515,-.0493"/>
<text text-anchor="middle" x="38.8671" y="-15.5" font-family="Courier,monospace" font-weight="bold" font-size="10.00" fill="#000000">SOURCE</text>
</g>
<!-- STATE_SOURCE&#45;&gt;STATE_A -->
<g id="edge5" class="edge">
<title>STATE_SOURCE&#45;&gt;STATE_A</title>
<path fill="none" stroke="#000000" d="M64.7942,-29.4676C83.8666,-37.9033 109.9912,-49.4583 130.8493,-58.6838"/>
<polygon fill="#000000" stroke="#000000" points="129.4568,-61.8949 140.0179,-62.7391 132.2883,-55.4932 129.4568,-61.8949"/>
<text text-anchor="middle" x="107.2342" y="-55" font-family="Courier,monospace" font-weight="bold" font-size="10.00" fill="#000000">0.5</text>
</g>
<!-- STATE_SOURCE&#45;&gt;STATE_B -->
<g id="edge6" class="edge">
<title>STATE_SOURCE&#45;&gt;STATE_B</title>
<path fill="none" stroke="#000000" d="M75.163,-20.8647C106.7734,-23.6783 153.7522,-28.629 194.2211,-36 219.4607,-40.5971 225.482,-43.2067 250.2211,-50 253.2283,-50.8258 256.3372,-51.7035 259.4564,-52.6013"/>
<polygon fill="#000000" stroke="#000000" points="258.7615,-56.0448 269.3422,-55.4975 260.7296,-49.3271 258.7615,-56.0448"/>
<text text-anchor="middle" x="165.4777" y="-39" font-family="Courier,monospace" font-weight="bold" font-size="10.00" fill="#000000">0.5</text>
</g>
</g>
</svg>
