<?xml version="1.0" encoding="UTF-8" standalone="no"?>
<!DOCTYPE svg PUBLIC "-//W3C//DTD SVG 1.1//EN"
 "http://www.w3.org/Graphics/SVG/1.1/DTD/svg11.dtd">
<!-- Generated by graphviz version 2.40.1 (0)
 -->
<!-- Title: G Pages: 1 -->
<svg width="405pt" height="131pt"
 viewBox="0.00 0.00 405.00 131.00" xmlns="http://www.w3.org/2000/svg" xmlns:xlink="http://www.w3.org/1999/xlink">
<g id="graph0" class="graph" transform="scale(1 1) rotate(0) translate(4 127)">
<title>G</title>
<polygon fill="#ffffff" stroke="transparent" points="-4,4 -4,-127 401,-127 401,4 -4,4"/>
<!-- N1 -->
<g id="node1" class="node">
<title>N1</title>
<ellipse fill="none" stroke="#000000" cx="286.5" cy="-38.5" rx="14.5" ry="14.5"/>
<text text-anchor="middle" x="286.5" y="-36" font-family="Courier,monospace" font-weight="bold" font-size="10.00" fill="#000000">N1</text>
</g>
<!-- v0 -->
<g id="node4" class="node">
<title>v0</title>
<ellipse fill="none" stroke="#000000" cx="382.5" cy="-62.5" rx="14.5" ry="14.5"/>
<text text-anchor="middle" x="382.5" y="-60" font-family="Courier,monospace" font-weight="bold" font-size="10.00" fill="#000000">v0</text>
</g>
<!-- N1&#45;&#45;v0 -->
<g id="edge2" class="edge">
<title>N1&#45;&#45;v0</title>
<path fill="none" stroke="#000000" d="M300.6651,-42.0413C318.8155,-46.5789 350.0984,-54.3996 368.2768,-58.9442"/>
<text text-anchor="middle" x="334.5" y="-57.5" font-family="Courier,monospace" font-weight="bold" font-size="10.00" fill="#000000">11.0</text>
</g>
<!-- v1 -->
<g id="node5" class="node">
<title>v1</title>
<ellipse fill="none" stroke="#000000" cx="382.5" cy="-15.5" rx="14.5" ry="14.5"/>
<text text-anchor="middle" x="382.5" y="-13" font-family="Courier,monospace" font-weight="bold" font-size="10.00" fill="#000000">v1</text>
</g>
<!-- N1&#45;&#45;v1 -->
<g id="edge4" class="edge">
<title>N1&#45;&#45;v1</title>
<path fill="none" stroke="#000000" d="M300.6949,-34.3929C306.37,-32.797 312.9772,-30.9967 319,-29.5 335.6529,-25.3616 354.9167,-21.202 367.8202,-18.5053"/>
<text text-anchor="middle" x="334.5" y="-32.5" font-family="Courier,monospace" font-weight="bold" font-size="10.00" fill="#000000">2.0</text>
</g>
<!-- N2 -->
<g id="node2" class="node">
<title>N2</title>
<ellipse fill="none" stroke="#000000" cx="190.5" cy="-108.5" rx="14.5" ry="14.5"/>
<text text-anchor="middle" x="190.5" y="-106" font-family="Courier,monospace" font-weight="bold" font-size="10.00" fill="#000000">N2</text>
</g>
<!-- N2&#45;&#45;N1 -->
<g id="edge5" class="edge">
<title>N2&#45;&#45;N1</title>
<path fill="none" stroke="#000000" d="M202.2715,-99.9166C220.6965,-86.4817 256.1481,-60.6316 274.6322,-47.1536"/>
<text text-anchor="middle" x="238.5" y="-86.5" font-family="Courier,monospace" font-weight="bold" font-size="10.00" fill="#000000">4.0</text>
</g>
<!-- v5 -->
<g id="node9" class="node">
<title>v5</title>
<ellipse fill="none" stroke="#000000" cx="286.5" cy="-108.5" rx="14.5" ry="14.5"/>
<text text-anchor="middle" x="286.5" y="-106" font-family="Courier,monospace" font-weight="bold" font-size="10.00" fill="#000000">v5</text>
</g>
<!-- N2&#45;&#45;v5 -->
<g id="edge6" class="edge">
<title>N2&#45;&#45;v5</title>
<path fill="none" stroke="#000000" d="M205.0803,-108.5C223.124,-108.5 253.6756,-108.5 271.7825,-108.5"/>
<text text-anchor="middle" x="238.5" y="-111.5" font-family="Courier,monospace" font-weight="bold" font-size="10.00" fill="#000000">7.0</text>
</g>
<!-- N3 -->
<g id="node3" class="node">
<title>N3</title>
<ellipse fill="none" stroke="#000000" cx="102.5" cy="-78.5" rx="14.5" ry="14.5"/>
<text text-anchor="middle" x="102.5" y="-76" font-family="Courier,monospace" font-weight="bold" font-size="10.00" fill="#000000">N3</text>
</g>
<!-- N3&#45;&#45;N2 -->
<g id="edge8" class="edge">
<title>N3&#45;&#45;N2</title>
<path fill="none" stroke="#000000" d="M116.25,-83.1875C132.6855,-88.7905 160.0353,-98.1143 176.5561,-103.7464"/>
<text text-anchor="middle" x="146.5" y="-99.5" font-family="Courier,monospace" font-weight="bold" font-size="10.00" fill="#000000">3.0</text>
</g>
<!-- v3 -->
<g id="node7" class="node">
<title>v3</title>
<ellipse fill="none" stroke="#000000" cx="190.5" cy="-61.5" rx="14.5" ry="14.5"/>
<text text-anchor="middle" x="190.5" y="-59" font-family="Courier,monospace" font-weight="bold" font-size="10.00" fill="#000000">v3</text>
</g>
<!-- N3&#45;&#45;v3 -->
<g id="edge1" class="edge">
<title>N3&#45;&#45;v3</title>
<path fill="none" stroke="#000000" d="M116.2779,-73.6827C122.0088,-71.8308 128.767,-69.8414 135,-68.5 148.6719,-65.5576 164.5234,-63.7106 175.7767,-62.6576"/>
<text text-anchor="middle" x="146.5" y="-71.5" font-family="Courier,monospace" font-weight="bold" font-size="10.00" fill="#000000">3.0</text>
</g>
<!-- v2 -->
<g id="node6" class="node">
<title>v2</title>
<ellipse fill="none" stroke="#000000" cx="190.5" cy="-14.5" rx="14.5" ry="14.5"/>
<text text-anchor="middle" x="190.5" y="-12" font-family="Courier,monospace" font-weight="bold" font-size="10.00" fill="#000000">v2</text>
</g>
<!-- v2&#45;&#45;N1 -->
<g id="edge3" class="edge">
<title>v2&#45;&#45;N1</title>
<path fill="none" stroke="#000000" d="M204.9555,-17.3371C217.8786,-19.9564 237.2983,-24.0972 254,-28.5 260.1651,-30.1252 266.9127,-32.1589 272.654,-33.9672"/>
<text text-anchor="middle" x="238.5" y="-31.5" font-family="Courier,monospace" font-weight="bold" font-size="10.00" fill="#000000">10.0</text>
</g>
<!-- v4 -->
<g id="node8" class="node">
<title>v4</title>
<ellipse fill="none" stroke="#000000" cx="14.5" cy="-78.5" rx="14.5" ry="14.5"/>
<text text-anchor="middle" x="14.5" y="-76" font-family="Courier,monospace" font-weight="bold" font-size="10.00" fill="#000000">v4</text>
</g>
<!-- v4&#45;&#45;N3 -->
<g id="edge7" class="edge">
<title>v4&#45;&#45;N3</title>
<path fill="none" stroke="#000000" d="M29.0314,-78.5C45.3364,-78.5 71.6332,-78.5 87.947,-78.5"/>
<text text-anchor="middle" x="58.5" y="-81.5" font-family="Courier,monospace" font-weight="bold" font-size="10.00" fill="#000000">4.0</text>
</g>
</g>
</svg>
