<svg class="bob" font-family="arial" font-size="14" height="80" width="552" xmlns="http://www.w3.org/2000/svg">
<defs>
<marker id="triangle" markerHeight="8" markerWidth="8" orient="auto" refX="4" refY="2" viewBox="0 0 8 4">
<polygon class="fg_fill" points="0,0 0,4 8,2 0,0"/>
</marker>
<marker id="clear_triangle" markerHeight="10" markerWidth="10" orient="auto" refX="1" refY="7" viewBox="0 0 20 14">
<polygon class="bg_fill" points="2,2 2,12 18,7 2,2"/>
</marker>
<marker id="circle" markerHeight="5" markerWidth="5" orient="auto" refX="10" refY="10" viewBox="0 0 20 20">
<circle class="fg_fill" cx="10" cy="10" r="8"/>
</marker>
<marker id="square" markerHeight="5" markerWidth="5" orient="auto" refX="10" refY="10" viewBox="0 0 20 20">
<rect class="fg_fill" height="20" width="20" x="0" y="0"/>
</marker>
<marker id="open_circle" markerHeight="10" markerWidth="10" orient="auto" refX="10" refY="10" viewBox="0 0 20 20">
<circle class="bg_fill" cx="10" cy="10" r="4"/>
</marker>
<marker id="big_open_circle" markerHeight="20" markerWidth="20" orient="auto" refX="20" refY="20" viewBox="0 0 40 40">
<circle class="bg_fill" cx="20" cy="20" r="6"/>
</marker>
</defs>
<style type="text/css">

rect.backdrop {
    fill: white;
}
text{
    fill: black;
}

circle {
    fill: none;
    stroke: black;
    stroke-width: 2;
}

line {
    stroke: black;
    stroke-width: 2;
    stroke-opacity: 1;
    fill-opacity: 1;
    stroke-linecap: round;
    stroke-linejoin: miter;
}

path {
    fill: none;
    stroke: black;
    stroke-width: 2;
    stroke-opacity: 1;
    fill-opacity: 1;
    stroke-linecap: round;
    stroke-linejoin: miter;
}

line.dashed {
    stroke-dasharray: 5;
}

.fg_fill {
    fill: black;
}


.bg_fill {
    fill: white;
    stroke: black;
    stroke-width: 2;
}

tspan.head{
    fill: none;
    stroke: none;
}
    
</style>
<rect class="backdrop" height="80" width="552" x="0" y="0"/>
<g>
<line marker-end="url(#triangle)" x1="48" x2="84" y1="40" y2="40"/>
</g>
<g>
<line x1="64" x2="96" y1="24" y2="24"/>
<path d="M 96 24 A 4 4 0 0 0 100 20"/>
</g>
<g>
<line x1="64" x2="96" y1="56" y2="56"/>
<path d="M 100 60 A 4 4 0 0 0 96 56"/>
</g>
<g>
<line x1="100" x2="100" y1="12" y2="20"/>
<path d="M 104 8 A 4 4 0 0 0 100 12"/>
</g>
<g>
<line x1="100" x2="100" y1="60" y2="68"/>
<path d="M 100 68 A 4 4 0 0 0 104 72"/>
</g>
<g>
<line x1="104" x2="160" y1="8" y2="8"/>
<path d="M 164 12 A 4 4 0 0 0 160 8"/>
</g>
<g>
<line x1="104" x2="160" y1="72" y2="72"/>
<path d="M 160 72 A 4 4 0 0 0 164 68"/>
</g>
<g>
<line x1="164" x2="164" y1="12" y2="20"/>
<path d="M 164 20 A 4 4 0 0 0 168 24"/>
</g>
<g>
<line x1="164" x2="164" y1="60" y2="68"/>
<path d="M 168 56 A 4 4 0 0 0 164 60"/>
</g>
<g>
<line x1="168" x2="200" y1="24" y2="24"/>
</g>
<g>
<line x1="168" x2="200" y1="56" y2="56"/>
</g>
<g>
<line marker-end="url(#triangle)" x1="184" x2="220" y1="40" y2="40"/>
</g>
<g>
<line marker-end="url(#triangle)" x1="296" x2="332" y1="40" y2="40"/>
</g>
<g>
<line x1="312" x2="344" y1="24" y2="24"/>
<path d="M 344 24 A 4 4 0 0 0 348 20"/>
</g>
<g>
<line x1="312" x2="344" y1="56" y2="56"/>
<path d="M 348 60 A 4 4 0 0 0 344 56"/>
</g>
<g>
<line x1="348" x2="348" y1="12" y2="20"/>
<path d="M 352 8 A 4 4 0 0 0 348 12"/>
</g>
<g>
<line x1="348" x2="348" y1="60" y2="68"/>
<path d="M 348 68 A 4 4 0 0 0 352 72"/>
</g>
<g>
<line x1="352" x2="408" y1="8" y2="8"/>
<path d="M 412 12 A 4 4 0 0 0 408 8"/>
</g>
<g>
<line x1="352" x2="408" y1="72" y2="72"/>
<path d="M 408 72 A 4 4 0 0 0 412 68"/>
</g>
<g>
<line x1="412" x2="412" y1="12" y2="20"/>
<path d="M 412 20 A 4 4 0 0 0 416 24"/>
</g>
<g>
<line x1="412" x2="412" y1="60" y2="68"/>
<path d="M 416 56 A 4 4 0 0 0 412 60"/>
</g>
<g>
<line x1="416" x2="448" y1="24" y2="24"/>
</g>
<g>
<line x1="416" x2="448" y1="56" y2="56"/>
</g>
<g>
<line marker-end="url(#triangle)" x1="432" x2="468" y1="40" y2="40"/>
</g>
<g>
<text x="1" y="44">
x^2
</text>
</g>
<g>
<text x="129" y="44">
g
</text>
</g>
<g>
<text x="233" y="44">
x^2-1
</text>
</g>
<g>
<text x="377" y="44">
f
</text>
</g>
<g>
<text x="481" y="44">
|x^2-1|
</text>
</g>
</svg>
