<?xml version="1.0" encoding="UTF-8" standalone="no"?>
<!DOCTYPE svg PUBLIC "-//W3C//DTD SVG 1.1//EN"
 "http://www.w3.org/Graphics/SVG/1.1/DTD/svg11.dtd">
<!-- Generated by graphviz version 2.40.1 (0)
 -->
<!-- Title: G Pages: 1 -->
<svg width="1872pt" height="609pt"
 viewBox="0.00 0.00 1871.71 608.63" xmlns="http://www.w3.org/2000/svg" xmlns:xlink="http://www.w3.org/1999/xlink">
<g id="graph0" class="graph" transform="scale(1 1) rotate(0) translate(4 604.6294)">
<title>G</title>
<polygon fill="#ffffff" stroke="transparent" points="-4,4 -4,-604.6294 1867.708,-604.6294 1867.708,4 -4,4"/>
<!-- STATE_A -->
<g id="node1" class="node">
<title>STATE_A</title>
<polygon fill="none" stroke="#000000" points="331.4168,-304.6787 333.1928,-304.7773 334.9505,-304.9247 336.6827,-305.1207 338.3823,-305.3647 340.0425,-305.656 341.6568,-305.9939 343.2188,-306.3773 344.7228,-306.8053 346.163,-307.2766 347.5343,-307.79 348.8319,-308.3441 350.0514,-308.9374 351.1891,-309.5682 352.2416,-310.2348 353.2059,-310.9353 354.0797,-311.6679 354.8611,-312.4306 355.5488,-313.2212 356.1418,-314.0376 356.6397,-314.8775 357.0428,-315.7387 357.3514,-316.6188 357.5667,-317.5154 357.69,-318.4259 357.7232,-319.348 357.6684,-320.2791 357.5282,-321.2166 357.3053,-322.158 357.0029,-323.1007 356.6242,-324.0421 356.1728,-324.9797 355.6524,-325.9108 355.0666,-326.8329 354.4195,-327.7434 353.7149,-328.64 352.9568,-329.5201 352.149,-330.3813 351.2955,-331.2212 350.4001,-332.0376 349.4665,-332.8282 348.4982,-333.5909 347.4986,-334.3235 346.4711,-335.024 345.4186,-335.6906 344.3441,-336.3214 343.2503,-336.9147 342.1396,-337.4688 341.0143,-337.9822 339.8765,-338.4535 338.7281,-338.8815 337.5708,-339.2649 336.406,-339.6028 335.2351,-339.8941 334.0593,-340.1381 332.8797,-340.3341 331.6972,-340.4815 330.5128,-340.5801 329.3272,-340.6294 328.1412,-340.6294 326.9556,-340.5801 325.7712,-340.4815 324.5887,-340.3341 323.4091,-340.1381 322.2334,-339.8941 321.0625,-339.6028 319.8977,-339.2649 318.7403,-338.8815 317.5919,-338.4535 316.4541,-337.9822 315.3288,-337.4688 314.2182,-336.9147 313.1243,-336.3214 312.0498,-335.6906 310.9974,-335.024 309.9698,-334.3235 308.9703,-333.5909 308.002,-332.8282 307.0683,-332.0376 306.1729,-331.2212 305.3194,-330.3813 304.5117,-329.5201 303.7535,-328.64 303.0489,-327.7434 302.4018,-326.8329 301.8161,-325.9108 301.2956,-324.9797 300.8442,-324.0421 300.4656,-323.1007 300.1631,-322.158 299.9403,-321.2166 299.8,-320.2791 299.7453,-319.348 299.7784,-318.4259 299.9018,-317.5154 300.117,-316.6188 300.4257,-315.7387 300.8287,-314.8775 301.3267,-314.0376 301.9197,-313.2212 302.6073,-312.4306 303.3887,-311.6679 304.2625,-310.9353 305.2268,-310.2348 306.2793,-309.5682 307.417,-308.9374 308.6366,-308.3441 309.9342,-307.79 311.3055,-307.2766 312.7457,-306.8053 314.2496,-306.3773 315.8117,-305.9939 317.426,-305.656 319.0862,-305.3647 320.7858,-305.1207 322.5179,-304.9247 324.2756,-304.7773 326.0517,-304.6787 327.8388,-304.6294 329.6296,-304.6294 331.4168,-304.6787"/>
<text text-anchor="middle" x="328.7342" y="-320.1294" font-family="Courier,monospace" font-weight="bold" font-size="10.00" fill="#000000">A</text>
</g>
<!-- STATE_B -->
<g id="node2" class="node">
<title>STATE_B</title>
<polygon fill="none" stroke="#000000" points="633.1602,-129.6787 634.9363,-129.7773 636.694,-129.9247 638.4261,-130.1207 640.1257,-130.3647 641.7859,-130.656 643.4002,-130.9939 644.9623,-131.3773 646.4662,-131.8053 647.9064,-132.2766 649.2777,-132.79 650.5753,-133.3441 651.7949,-133.9374 652.9326,-134.5682 653.9851,-135.2348 654.9494,-135.9353 655.8232,-136.6679 656.6046,-137.4306 657.2922,-138.2212 657.8852,-139.0376 658.3832,-139.8775 658.7862,-140.7387 659.0949,-141.6188 659.3101,-142.5154 659.4334,-143.4259 659.4666,-144.348 659.4118,-145.2791 659.2716,-146.2166 659.0487,-147.158 658.7463,-148.1007 658.3677,-149.0421 657.9163,-149.9797 657.3958,-150.9108 656.8101,-151.8329 656.1629,-152.7434 655.4583,-153.64 654.7002,-154.5201 653.8925,-155.3813 653.039,-156.2212 652.1436,-157.0376 651.2099,-157.8282 650.2416,-158.5909 649.242,-159.3235 648.2145,-160.024 647.162,-160.6906 646.0876,-161.3214 644.9937,-161.9147 643.883,-162.4688 642.7578,-162.9822 641.62,-163.4535 640.4716,-163.8815 639.3142,-164.2649 638.1494,-164.6028 636.9785,-164.8941 635.8027,-165.1381 634.6231,-165.3341 633.4407,-165.4815 632.2562,-165.5801 631.0707,-165.6294 629.8847,-165.6294 628.6991,-165.5801 627.5146,-165.4815 626.3322,-165.3341 625.1526,-165.1381 623.9768,-164.8941 622.8059,-164.6028 621.6411,-164.2649 620.4838,-163.8815 619.3353,-163.4535 618.1976,-162.9822 617.0723,-162.4688 615.9616,-161.9147 614.8678,-161.3214 613.7933,-160.6906 612.7408,-160.024 611.7133,-159.3235 610.7137,-158.5909 609.7454,-157.8282 608.8118,-157.0376 607.9164,-156.2212 607.0629,-155.3813 606.2551,-154.5201 605.497,-153.64 604.7924,-152.7434 604.1452,-151.8329 603.5595,-150.9108 603.0391,-149.9797 602.5877,-149.0421 602.209,-148.1007 601.9066,-147.158 601.6837,-146.2166 601.5435,-145.2791 601.4887,-144.348 601.5219,-143.4259 601.6452,-142.5154 601.8605,-141.6188 602.1691,-140.7387 602.5722,-139.8775 603.0701,-139.0376 603.6631,-138.2212 604.3507,-137.4306 605.1321,-136.6679 606.006,-135.9353 606.9703,-135.2348 608.0227,-134.5682 609.1604,-133.9374 610.38,-133.3441 611.6776,-132.79 613.0489,-132.2766 614.4891,-131.8053 615.993,-131.3773 617.5551,-130.9939 619.1694,-130.656 620.8296,-130.3647 622.5292,-130.1207 624.2614,-129.9247 626.0191,-129.7773 627.7951,-129.6787 629.5823,-129.6294 631.3731,-129.6294 633.1602,-129.6787"/>
<text text-anchor="middle" x="630.4777" y="-145.1294" font-family="Courier,monospace" font-weight="bold" font-size="10.00" fill="#000000">B</text>
</g>
<!-- STATE_A&#45;&gt;STATE_B -->
<g id="edge1" class="edge">
<title>STATE_A&#45;&gt;STATE_B</title>
<path fill="none" stroke="#000000" d="M337.4252,-305.2167C351.8926,-278.0853 383.5454,-226.0024 425.7342,-198.6294 477.1193,-165.2897 548.7288,-153.7448 592.2197,-149.747"/>
<polygon fill="#000000" stroke="#000000" points="592.7006,-153.2192 602.3769,-148.9041 592.1216,-146.2432 592.7006,-153.2192"/>
<text text-anchor="middle" x="504.7342" y="-201.6294" font-family="Courier,monospace" font-weight="bold" font-size="10.00" fill="#000000">9.997000899730082e&#45;05</text>
</g>
<!-- STATE_E -->
<g id="node5" class="node">
<title>STATE_E</title>
<polygon fill="none" stroke="#000000" points="1546.9036,-315.6787 1548.6797,-315.7773 1550.4374,-315.9247 1552.1696,-316.1207 1553.8691,-316.3647 1555.5294,-316.656 1557.1436,-316.9939 1558.7057,-317.3773 1560.2097,-317.8053 1561.6499,-318.2766 1563.0211,-318.79 1564.3187,-319.3441 1565.5383,-319.9374 1566.676,-320.5682 1567.7285,-321.2348 1568.6928,-321.9353 1569.5666,-322.6679 1570.348,-323.4306 1571.0357,-324.2212 1571.6287,-325.0376 1572.1266,-325.8775 1572.5296,-326.7387 1572.8383,-327.6188 1573.0536,-328.5154 1573.1769,-329.4259 1573.2101,-330.348 1573.1553,-331.2791 1573.0151,-332.2166 1572.7922,-333.158 1572.4898,-334.1007 1572.1111,-335.0421 1571.6597,-335.9797 1571.1393,-336.9108 1570.5535,-337.8329 1569.9064,-338.7434 1569.2018,-339.64 1568.4436,-340.5201 1567.6359,-341.3813 1566.7824,-342.2212 1565.887,-343.0376 1564.9534,-343.8282 1563.985,-344.5909 1562.9855,-345.3235 1561.9579,-346.024 1560.9055,-346.6906 1559.831,-347.3214 1558.7372,-347.9147 1557.6265,-348.4688 1556.5012,-348.9822 1555.3634,-349.4535 1554.215,-349.8815 1553.0577,-350.2649 1551.8929,-350.6028 1550.722,-350.8941 1549.5462,-351.1381 1548.3666,-351.3341 1547.1841,-351.4815 1545.9997,-351.5801 1544.8141,-351.6294 1543.6281,-351.6294 1542.4425,-351.5801 1541.2581,-351.4815 1540.0756,-351.3341 1538.896,-351.1381 1537.7203,-350.8941 1536.5494,-350.6028 1535.3846,-350.2649 1534.2272,-349.8815 1533.0788,-349.4535 1531.941,-348.9822 1530.8157,-348.4688 1529.705,-347.9147 1528.6112,-347.3214 1527.5367,-346.6906 1526.4843,-346.024 1525.4567,-345.3235 1524.4572,-344.5909 1523.4889,-343.8282 1522.5552,-343.0376 1521.6598,-342.2212 1520.8063,-341.3813 1519.9986,-340.5201 1519.2404,-339.64 1518.5358,-338.7434 1517.8887,-337.8329 1517.303,-336.9108 1516.7825,-335.9797 1516.3311,-335.0421 1515.9524,-334.1007 1515.65,-333.158 1515.4272,-332.2166 1515.2869,-331.2791 1515.2321,-330.348 1515.2653,-329.4259 1515.3886,-328.5154 1515.6039,-327.6188 1515.9126,-326.7387 1516.3156,-325.8775 1516.8136,-325.0376 1517.4066,-324.2212 1518.0942,-323.4306 1518.8756,-322.6679 1519.7494,-321.9353 1520.7137,-321.2348 1521.7662,-320.5682 1522.9039,-319.9374 1524.1235,-319.3441 1525.4211,-318.79 1526.7923,-318.2766 1528.2326,-317.8053 1529.7365,-317.3773 1531.2986,-316.9939 1532.9129,-316.656 1534.5731,-316.3647 1536.2727,-316.1207 1538.0048,-315.9247 1539.7625,-315.7773 1541.5386,-315.6787 1543.3257,-315.6294 1545.1165,-315.6294 1546.9036,-315.6787"/>
<text text-anchor="middle" x="1544.2211" y="-331.1294" font-family="Courier,monospace" font-weight="bold" font-size="10.00" fill="#000000">E</text>
</g>
<!-- STATE_A&#45;&gt;STATE_E -->
<g id="edge2" class="edge">
<title>STATE_A&#45;&gt;STATE_E</title>
<path fill="none" stroke="#000000" d="M355.7299,-326.0727C408.4454,-332.489 528.8167,-345.6294 630.4777,-345.6294 630.4777,-345.6294 630.4777,-345.6294 1236.2211,-345.6294 1333.4492,-345.6294 1447.8112,-339.5848 1506.0104,-336.0756"/>
<polygon fill="#000000" stroke="#000000" points="1506.4394,-339.556 1516.2071,-335.4519 1506.012,-332.5691 1506.4394,-339.556"/>
<text text-anchor="middle" x="921.2211" y="-348.6294" font-family="Courier,monospace" font-weight="bold" font-size="10.00" fill="#000000">0.9998000599820054</text>
</g>
<!-- STATE_F -->
<g id="node6" class="node">
<title>STATE_F</title>
<polygon fill="none" stroke="#000000" points="1238.9036,-188.6787 1240.6797,-188.7773 1242.4374,-188.9247 1244.1696,-189.1207 1245.8691,-189.3647 1247.5294,-189.656 1249.1436,-189.9939 1250.7057,-190.3773 1252.2097,-190.8053 1253.6499,-191.2766 1255.0211,-191.79 1256.3187,-192.3441 1257.5383,-192.9374 1258.676,-193.5682 1259.7285,-194.2348 1260.6928,-194.9353 1261.5666,-195.6679 1262.348,-196.4306 1263.0357,-197.2212 1263.6287,-198.0376 1264.1266,-198.8775 1264.5296,-199.7387 1264.8383,-200.6188 1265.0536,-201.5154 1265.1769,-202.4259 1265.2101,-203.348 1265.1553,-204.2791 1265.0151,-205.2166 1264.7922,-206.158 1264.4898,-207.1007 1264.1111,-208.0421 1263.6597,-208.9797 1263.1393,-209.9108 1262.5535,-210.8329 1261.9064,-211.7434 1261.2018,-212.64 1260.4436,-213.5201 1259.6359,-214.3813 1258.7824,-215.2212 1257.887,-216.0376 1256.9534,-216.8282 1255.985,-217.5909 1254.9855,-218.3235 1253.9579,-219.024 1252.9055,-219.6906 1251.831,-220.3214 1250.7372,-220.9147 1249.6265,-221.4688 1248.5012,-221.9822 1247.3634,-222.4535 1246.215,-222.8815 1245.0577,-223.2649 1243.8929,-223.6028 1242.722,-223.8941 1241.5462,-224.1381 1240.3666,-224.3341 1239.1841,-224.4815 1237.9997,-224.5801 1236.8141,-224.6294 1235.6281,-224.6294 1234.4425,-224.5801 1233.2581,-224.4815 1232.0756,-224.3341 1230.896,-224.1381 1229.7203,-223.8941 1228.5494,-223.6028 1227.3846,-223.2649 1226.2272,-222.8815 1225.0788,-222.4535 1223.941,-221.9822 1222.8157,-221.4688 1221.705,-220.9147 1220.6112,-220.3214 1219.5367,-219.6906 1218.4843,-219.024 1217.4567,-218.3235 1216.4572,-217.5909 1215.4889,-216.8282 1214.5552,-216.0376 1213.6598,-215.2212 1212.8063,-214.3813 1211.9986,-213.5201 1211.2404,-212.64 1210.5358,-211.7434 1209.8887,-210.8329 1209.303,-209.9108 1208.7825,-208.9797 1208.3311,-208.0421 1207.9524,-207.1007 1207.65,-206.158 1207.4272,-205.2166 1207.2869,-204.2791 1207.2321,-203.348 1207.2653,-202.4259 1207.3886,-201.5154 1207.6039,-200.6188 1207.9126,-199.7387 1208.3156,-198.8775 1208.8136,-198.0376 1209.4066,-197.2212 1210.0942,-196.4306 1210.8756,-195.6679 1211.7494,-194.9353 1212.7137,-194.2348 1213.7662,-193.5682 1214.9039,-192.9374 1216.1235,-192.3441 1217.4211,-191.79 1218.7923,-191.2766 1220.2326,-190.8053 1221.7365,-190.3773 1223.2986,-189.9939 1224.9129,-189.656 1226.5731,-189.3647 1228.2727,-189.1207 1230.0048,-188.9247 1231.7625,-188.7773 1233.5386,-188.6787 1235.3257,-188.6294 1237.1165,-188.6294 1238.9036,-188.6787"/>
<text text-anchor="middle" x="1236.2211" y="-204.1294" font-family="Courier,monospace" font-weight="bold" font-size="10.00" fill="#000000">F</text>
</g>
<!-- STATE_A&#45;&gt;STATE_F -->
<g id="edge3" class="edge">
<title>STATE_A&#45;&gt;STATE_F</title>
<path fill="none" stroke="#000000" d="M354.369,-311.8626C373.7509,-303.9651 401.1348,-293.3215 425.7342,-285.6294 535.6065,-251.2731 563.1601,-239.1976 677.2211,-223.6294 885.6033,-195.1873 940.016,-216.4066 1150.2211,-209.6294 1165.7211,-209.1297 1182.7911,-208.5419 1197.6094,-208.0198"/>
<polygon fill="#000000" stroke="#000000" points="1198.0771,-211.5055 1207.9467,-207.6533 1197.829,-204.5099 1198.0771,-211.5055"/>
<text text-anchor="middle" x="756.2211" y="-226.6294" font-family="Courier,monospace" font-weight="bold" font-size="10.00" fill="#000000">9.997000899730082e&#45;05</text>
</g>
<!-- SYMBOL_z -->
<g id="node8" class="node">
<title>SYMBOL_z</title>
<polygon fill="none" stroke="#000000" stroke-dasharray="5,2" points="1837.6471,-486.6787 1839.4231,-486.7773 1841.1808,-486.9247 1842.913,-487.1207 1844.6126,-487.3647 1846.2728,-487.656 1847.8871,-487.9939 1849.4492,-488.3773 1850.9531,-488.8053 1852.3933,-489.2766 1853.7646,-489.79 1855.0622,-490.3441 1856.2818,-490.9374 1857.4195,-491.5682 1858.4719,-492.2348 1859.4363,-492.9353 1860.3101,-493.6679 1861.0915,-494.4306 1861.7791,-495.2212 1862.3721,-496.0376 1862.8701,-496.8775 1863.2731,-497.7387 1863.5817,-498.6188 1863.797,-499.5154 1863.9203,-500.4259 1863.9535,-501.348 1863.8987,-502.2791 1863.7585,-503.2166 1863.5356,-504.158 1863.2332,-505.1007 1862.8545,-506.0421 1862.4032,-506.9797 1861.8827,-507.9108 1861.297,-508.8329 1860.6498,-509.7434 1859.9452,-510.64 1859.1871,-511.5201 1858.3793,-512.3813 1857.5259,-513.2212 1856.6305,-514.0376 1855.6968,-514.8282 1854.7285,-515.5909 1853.7289,-516.3235 1852.7014,-517.024 1851.6489,-517.6906 1850.5744,-518.3214 1849.4806,-518.9147 1848.3699,-519.4688 1847.2447,-519.9822 1846.1069,-520.4535 1844.9585,-520.8815 1843.8011,-521.2649 1842.6363,-521.6028 1841.4654,-521.8941 1840.2896,-522.1381 1839.11,-522.3341 1837.9276,-522.4815 1836.7431,-522.5801 1835.5575,-522.6294 1834.3716,-522.6294 1833.186,-522.5801 1832.0015,-522.4815 1830.8191,-522.3341 1829.6395,-522.1381 1828.4637,-521.8941 1827.2928,-521.6028 1826.128,-521.2649 1824.9706,-520.8815 1823.8222,-520.4535 1822.6844,-519.9822 1821.5592,-519.4688 1820.4485,-518.9147 1819.3547,-518.3214 1818.2802,-517.6906 1817.2277,-517.024 1816.2002,-516.3235 1815.2006,-515.5909 1814.2323,-514.8282 1813.2986,-514.0376 1812.4032,-513.2212 1811.5498,-512.3813 1810.742,-511.5201 1809.9839,-510.64 1809.2793,-509.7434 1808.6321,-508.8329 1808.0464,-507.9108 1807.5259,-506.9797 1807.0746,-506.0421 1806.6959,-505.1007 1806.3935,-504.158 1806.1706,-503.2166 1806.0304,-502.2791 1805.9756,-501.348 1806.0088,-500.4259 1806.1321,-499.5154 1806.3474,-498.6188 1806.656,-497.7387 1807.059,-496.8775 1807.557,-496.0376 1808.15,-495.2212 1808.8376,-494.4306 1809.619,-493.6679 1810.4928,-492.9353 1811.4572,-492.2348 1812.5096,-491.5682 1813.6473,-490.9374 1814.8669,-490.3441 1816.1645,-489.79 1817.5358,-489.2766 1818.976,-488.8053 1820.4799,-488.3773 1822.042,-487.9939 1823.6563,-487.656 1825.3165,-487.3647 1827.0161,-487.1207 1828.7483,-486.9247 1830.506,-486.7773 1832.282,-486.6787 1834.0691,-486.6294 1835.86,-486.6294 1837.6471,-486.6787"/>
<text text-anchor="middle" x="1834.9645" y="-502.1294" font-family="Courier,monospace" font-weight="bold" font-size="10.00" fill="#000000">z</text>
</g>
<!-- STATE_A&#45;&gt;SYMBOL_z -->
<g id="edge14" class="edge">
<title>STATE_A&#45;&gt;SYMBOL_z</title>
<path fill="none" stroke="#000000" stroke-dasharray="5,2" d="M334.7269,-340.0111C346.6433,-371.7743 376.4945,-438.9277 425.7342,-471.6294 487.1524,-512.4192 1004.9919,-589.6294 1078.7211,-589.6294 1078.7211,-589.6294 1078.7211,-589.6294 1544.2211,-589.6294 1655.5853,-589.6294 1684.992,-574.4112 1788.2211,-532.6294 1794.9374,-529.911 1801.8191,-526.3128 1808.166,-522.6045"/>
<polygon fill="#000000" stroke="#000000" points="1810.3085,-525.3963 1817.0007,-517.1825 1806.647,-519.4302 1810.3085,-525.3963"/>
<text text-anchor="middle" x="1078.7211" y="-592.6294" font-family="Courier,monospace" font-weight="bold" font-size="10.00" fill="#000000">0.5713571642792876</text>
</g>
<!-- SYMBOL_x -->
<g id="node9" class="node">
<title>SYMBOL_x</title>
<polygon fill="none" stroke="#000000" stroke-dasharray="5,2" points="1837.6471,-272.6787 1839.4231,-272.7773 1841.1808,-272.9247 1842.913,-273.1207 1844.6126,-273.3647 1846.2728,-273.656 1847.8871,-273.9939 1849.4492,-274.3773 1850.9531,-274.8053 1852.3933,-275.2766 1853.7646,-275.79 1855.0622,-276.3441 1856.2818,-276.9374 1857.4195,-277.5682 1858.4719,-278.2348 1859.4363,-278.9353 1860.3101,-279.6679 1861.0915,-280.4306 1861.7791,-281.2212 1862.3721,-282.0376 1862.8701,-282.8775 1863.2731,-283.7387 1863.5817,-284.6188 1863.797,-285.5154 1863.9203,-286.4259 1863.9535,-287.348 1863.8987,-288.2791 1863.7585,-289.2166 1863.5356,-290.158 1863.2332,-291.1007 1862.8545,-292.0421 1862.4032,-292.9797 1861.8827,-293.9108 1861.297,-294.8329 1860.6498,-295.7434 1859.9452,-296.64 1859.1871,-297.5201 1858.3793,-298.3813 1857.5259,-299.2212 1856.6305,-300.0376 1855.6968,-300.8282 1854.7285,-301.5909 1853.7289,-302.3235 1852.7014,-303.024 1851.6489,-303.6906 1850.5744,-304.3214 1849.4806,-304.9147 1848.3699,-305.4688 1847.2447,-305.9822 1846.1069,-306.4535 1844.9585,-306.8815 1843.8011,-307.2649 1842.6363,-307.6028 1841.4654,-307.8941 1840.2896,-308.1381 1839.11,-308.3341 1837.9276,-308.4815 1836.7431,-308.5801 1835.5575,-308.6294 1834.3716,-308.6294 1833.186,-308.5801 1832.0015,-308.4815 1830.8191,-308.3341 1829.6395,-308.1381 1828.4637,-307.8941 1827.2928,-307.6028 1826.128,-307.2649 1824.9706,-306.8815 1823.8222,-306.4535 1822.6844,-305.9822 1821.5592,-305.4688 1820.4485,-304.9147 1819.3547,-304.3214 1818.2802,-303.6906 1817.2277,-303.024 1816.2002,-302.3235 1815.2006,-301.5909 1814.2323,-300.8282 1813.2986,-300.0376 1812.4032,-299.2212 1811.5498,-298.3813 1810.742,-297.5201 1809.9839,-296.64 1809.2793,-295.7434 1808.6321,-294.8329 1808.0464,-293.9108 1807.5259,-292.9797 1807.0746,-292.0421 1806.6959,-291.1007 1806.3935,-290.158 1806.1706,-289.2166 1806.0304,-288.2791 1805.9756,-287.348 1806.0088,-286.4259 1806.1321,-285.5154 1806.3474,-284.6188 1806.656,-283.7387 1807.059,-282.8775 1807.557,-282.0376 1808.15,-281.2212 1808.8376,-280.4306 1809.619,-279.6679 1810.4928,-278.9353 1811.4572,-278.2348 1812.5096,-277.5682 1813.6473,-276.9374 1814.8669,-276.3441 1816.1645,-275.79 1817.5358,-275.2766 1818.976,-274.8053 1820.4799,-274.3773 1822.042,-273.9939 1823.6563,-273.656 1825.3165,-273.3647 1827.0161,-273.1207 1828.7483,-272.9247 1830.506,-272.7773 1832.282,-272.6787 1834.0691,-272.6294 1835.86,-272.6294 1837.6471,-272.6787"/>
<text text-anchor="middle" x="1834.9645" y="-288.1294" font-family="Courier,monospace" font-weight="bold" font-size="10.00" fill="#000000">x</text>
</g>
<!-- STATE_A&#45;&gt;SYMBOL_x -->
<g id="edge15" class="edge">
<title>STATE_A&#45;&gt;SYMBOL_x</title>
<path fill="none" stroke="#000000" stroke-dasharray="5,2" d="M357.5869,-321.9626C476.5396,-319.2195 940.5975,-308.5762 1322.2211,-300.6294 1499.3526,-296.9409 1710.9134,-292.9446 1796.3571,-291.3476"/>
<polygon fill="#000000" stroke="#000000" points="1796.6828,-294.8422 1806.6157,-291.156 1796.5521,-287.8434 1796.6828,-294.8422"/>
<text text-anchor="middle" x="1078.7211" y="-309.6294" font-family="Courier,monospace" font-weight="bold" font-size="10.00" fill="#000000">0.28572856714414246</text>
</g>
<!-- SYMBOL_y -->
<g id="node10" class="node">
<title>SYMBOL_y</title>
<polygon fill="none" stroke="#000000" stroke-dasharray="5,2" points="1837.6471,-100.6787 1839.4231,-100.7773 1841.1808,-100.9247 1842.913,-101.1207 1844.6126,-101.3647 1846.2728,-101.656 1847.8871,-101.9939 1849.4492,-102.3773 1850.9531,-102.8053 1852.3933,-103.2766 1853.7646,-103.79 1855.0622,-104.3441 1856.2818,-104.9374 1857.4195,-105.5682 1858.4719,-106.2348 1859.4363,-106.9353 1860.3101,-107.6679 1861.0915,-108.4306 1861.7791,-109.2212 1862.3721,-110.0376 1862.8701,-110.8775 1863.2731,-111.7387 1863.5817,-112.6188 1863.797,-113.5154 1863.9203,-114.4259 1863.9535,-115.348 1863.8987,-116.2791 1863.7585,-117.2166 1863.5356,-118.158 1863.2332,-119.1007 1862.8545,-120.0421 1862.4032,-120.9797 1861.8827,-121.9108 1861.297,-122.8329 1860.6498,-123.7434 1859.9452,-124.64 1859.1871,-125.5201 1858.3793,-126.3813 1857.5259,-127.2212 1856.6305,-128.0376 1855.6968,-128.8282 1854.7285,-129.5909 1853.7289,-130.3235 1852.7014,-131.024 1851.6489,-131.6906 1850.5744,-132.3214 1849.4806,-132.9147 1848.3699,-133.4688 1847.2447,-133.9822 1846.1069,-134.4535 1844.9585,-134.8815 1843.8011,-135.2649 1842.6363,-135.6028 1841.4654,-135.8941 1840.2896,-136.1381 1839.11,-136.3341 1837.9276,-136.4815 1836.7431,-136.5801 1835.5575,-136.6294 1834.3716,-136.6294 1833.186,-136.5801 1832.0015,-136.4815 1830.8191,-136.3341 1829.6395,-136.1381 1828.4637,-135.8941 1827.2928,-135.6028 1826.128,-135.2649 1824.9706,-134.8815 1823.8222,-134.4535 1822.6844,-133.9822 1821.5592,-133.4688 1820.4485,-132.9147 1819.3547,-132.3214 1818.2802,-131.6906 1817.2277,-131.024 1816.2002,-130.3235 1815.2006,-129.5909 1814.2323,-128.8282 1813.2986,-128.0376 1812.4032,-127.2212 1811.5498,-126.3813 1810.742,-125.5201 1809.9839,-124.64 1809.2793,-123.7434 1808.6321,-122.8329 1808.0464,-121.9108 1807.5259,-120.9797 1807.0746,-120.0421 1806.6959,-119.1007 1806.3935,-118.158 1806.1706,-117.2166 1806.0304,-116.2791 1805.9756,-115.348 1806.0088,-114.4259 1806.1321,-113.5154 1806.3474,-112.6188 1806.656,-111.7387 1807.059,-110.8775 1807.557,-110.0376 1808.15,-109.2212 1808.8376,-108.4306 1809.619,-107.6679 1810.4928,-106.9353 1811.4572,-106.2348 1812.5096,-105.5682 1813.6473,-104.9374 1814.8669,-104.3441 1816.1645,-103.79 1817.5358,-103.2766 1818.976,-102.8053 1820.4799,-102.3773 1822.042,-101.9939 1823.6563,-101.656 1825.3165,-101.3647 1827.0161,-101.1207 1828.7483,-100.9247 1830.506,-100.7773 1832.282,-100.6787 1834.0691,-100.6294 1835.86,-100.6294 1837.6471,-100.6787"/>
<text text-anchor="middle" x="1834.9645" y="-116.1294" font-family="Courier,monospace" font-weight="bold" font-size="10.00" fill="#000000">y</text>
</g>
<!-- STATE_A&#45;&gt;SYMBOL_y -->
<g id="edge16" class="edge">
<title>STATE_A&#45;&gt;SYMBOL_y</title>
<path fill="none" stroke="#000000" stroke-dasharray="5,2" d="M344.5075,-306.5809C362.4364,-287.448 391.3337,-253.7534 407.7342,-219.6294 422.2095,-189.5112 406.9614,-174.274 425.7342,-146.6294 488.5216,-54.1698 518.7144,-.6294 630.4777,-.6294 630.4777,-.6294 630.4777,-.6294 1544.2211,-.6294 1655.0091,-.6294 1695.7852,9.4409 1788.2211,-51.6294 1803.1703,-61.506 1814.7481,-77.9503 1822.6416,-92.0753"/>
<polygon fill="#000000" stroke="#000000" points="1819.5449,-93.7064 1827.2952,-100.9302 1825.7413,-90.4499 1819.5449,-93.7064"/>
<text text-anchor="middle" x="1078.7211" y="-3.6294" font-family="Courier,monospace" font-weight="bold" font-size="10.00" fill="#000000">0.14291426857656986</text>
</g>
<!-- STATE_C -->
<g id="node3" class="node">
<title>STATE_C</title>
<polygon fill="none" stroke="#000000" points="923.9036,-159.6787 925.6797,-159.7773 927.4374,-159.9247 929.1696,-160.1207 930.8691,-160.3647 932.5294,-160.656 934.1436,-160.9939 935.7057,-161.3773 937.2097,-161.8053 938.6499,-162.2766 940.0211,-162.79 941.3187,-163.3441 942.5383,-163.9374 943.676,-164.5682 944.7285,-165.2348 945.6928,-165.9353 946.5666,-166.6679 947.348,-167.4306 948.0357,-168.2212 948.6287,-169.0376 949.1266,-169.8775 949.5296,-170.7387 949.8383,-171.6188 950.0536,-172.5154 950.1769,-173.4259 950.2101,-174.348 950.1553,-175.2791 950.0151,-176.2166 949.7922,-177.158 949.4898,-178.1007 949.1111,-179.0421 948.6597,-179.9797 948.1393,-180.9108 947.5535,-181.8329 946.9064,-182.7434 946.2018,-183.64 945.4436,-184.5201 944.6359,-185.3813 943.7824,-186.2212 942.887,-187.0376 941.9534,-187.8282 940.985,-188.5909 939.9855,-189.3235 938.9579,-190.024 937.9055,-190.6906 936.831,-191.3214 935.7372,-191.9147 934.6265,-192.4688 933.5012,-192.9822 932.3634,-193.4535 931.215,-193.8815 930.0577,-194.2649 928.8929,-194.6028 927.722,-194.8941 926.5462,-195.1381 925.3666,-195.3341 924.1841,-195.4815 922.9997,-195.5801 921.8141,-195.6294 920.6281,-195.6294 919.4425,-195.5801 918.2581,-195.4815 917.0756,-195.3341 915.896,-195.1381 914.7203,-194.8941 913.5494,-194.6028 912.3846,-194.2649 911.2272,-193.8815 910.0788,-193.4535 908.941,-192.9822 907.8157,-192.4688 906.705,-191.9147 905.6112,-191.3214 904.5367,-190.6906 903.4843,-190.024 902.4567,-189.3235 901.4572,-188.5909 900.4889,-187.8282 899.5552,-187.0376 898.6598,-186.2212 897.8063,-185.3813 896.9986,-184.5201 896.2404,-183.64 895.5358,-182.7434 894.8887,-181.8329 894.303,-180.9108 893.7825,-179.9797 893.3311,-179.0421 892.9524,-178.1007 892.65,-177.158 892.4272,-176.2166 892.2869,-175.2791 892.2321,-174.348 892.2653,-173.4259 892.3886,-172.5154 892.6039,-171.6188 892.9126,-170.7387 893.3156,-169.8775 893.8136,-169.0376 894.4066,-168.2212 895.0942,-167.4306 895.8756,-166.6679 896.7494,-165.9353 897.7137,-165.2348 898.7662,-164.5682 899.9039,-163.9374 901.1235,-163.3441 902.4211,-162.79 903.7923,-162.2766 905.2326,-161.8053 906.7365,-161.3773 908.2986,-160.9939 909.9129,-160.656 911.5731,-160.3647 913.2727,-160.1207 915.0048,-159.9247 916.7625,-159.7773 918.5386,-159.6787 920.3257,-159.6294 922.1165,-159.6294 923.9036,-159.6787"/>
<text text-anchor="middle" x="921.2211" y="-175.1294" font-family="Courier,monospace" font-weight="bold" font-size="10.00" fill="#000000">C</text>
</g>
<!-- STATE_B&#45;&gt;STATE_C -->
<g id="edge4" class="edge">
<title>STATE_B&#45;&gt;STATE_C</title>
<path fill="none" stroke="#000000" d="M657.8301,-150.4517C709.7047,-155.8043 822.5242,-167.4455 882.278,-173.6111"/>
<polygon fill="#000000" stroke="#000000" points="882.136,-177.115 892.4425,-174.6599 882.8546,-170.1519 882.136,-177.115"/>
<text text-anchor="middle" x="756.2211" y="-170.6294" font-family="Courier,monospace" font-weight="bold" font-size="10.00" fill="#000000">0.5</text>
</g>
<!-- STATE_D -->
<g id="node4" class="node">
<title>STATE_D</title>
<polygon fill="none" stroke="#000000" points="1081.4036,-452.6787 1083.1797,-452.7773 1084.9374,-452.9247 1086.6696,-453.1207 1088.3691,-453.3647 1090.0294,-453.656 1091.6436,-453.9939 1093.2057,-454.3773 1094.7097,-454.8053 1096.1499,-455.2766 1097.5211,-455.79 1098.8187,-456.3441 1100.0383,-456.9374 1101.176,-457.5682 1102.2285,-458.2348 1103.1928,-458.9353 1104.0666,-459.6679 1104.848,-460.4306 1105.5357,-461.2212 1106.1287,-462.0376 1106.6266,-462.8775 1107.0296,-463.7387 1107.3383,-464.6188 1107.5536,-465.5154 1107.6769,-466.4259 1107.7101,-467.348 1107.6553,-468.2791 1107.5151,-469.2166 1107.2922,-470.158 1106.9898,-471.1007 1106.6111,-472.0421 1106.1597,-472.9797 1105.6393,-473.9108 1105.0535,-474.8329 1104.4064,-475.7434 1103.7018,-476.64 1102.9436,-477.5201 1102.1359,-478.3813 1101.2824,-479.2212 1100.387,-480.0376 1099.4534,-480.8282 1098.485,-481.5909 1097.4855,-482.3235 1096.4579,-483.024 1095.4055,-483.6906 1094.331,-484.3214 1093.2372,-484.9147 1092.1265,-485.4688 1091.0012,-485.9822 1089.8634,-486.4535 1088.715,-486.8815 1087.5577,-487.2649 1086.3929,-487.6028 1085.222,-487.8941 1084.0462,-488.1381 1082.8666,-488.3341 1081.6841,-488.4815 1080.4997,-488.5801 1079.3141,-488.6294 1078.1281,-488.6294 1076.9425,-488.5801 1075.7581,-488.4815 1074.5756,-488.3341 1073.396,-488.1381 1072.2203,-487.8941 1071.0494,-487.6028 1069.8846,-487.2649 1068.7272,-486.8815 1067.5788,-486.4535 1066.441,-485.9822 1065.3157,-485.4688 1064.205,-484.9147 1063.1112,-484.3214 1062.0367,-483.6906 1060.9843,-483.024 1059.9567,-482.3235 1058.9572,-481.5909 1057.9889,-480.8282 1057.0552,-480.0376 1056.1598,-479.2212 1055.3063,-478.3813 1054.4986,-477.5201 1053.7404,-476.64 1053.0358,-475.7434 1052.3887,-474.8329 1051.803,-473.9108 1051.2825,-472.9797 1050.8311,-472.0421 1050.4524,-471.1007 1050.15,-470.158 1049.9272,-469.2166 1049.7869,-468.2791 1049.7321,-467.348 1049.7653,-466.4259 1049.8886,-465.5154 1050.1039,-464.6188 1050.4126,-463.7387 1050.8156,-462.8775 1051.3136,-462.0376 1051.9066,-461.2212 1052.5942,-460.4306 1053.3756,-459.6679 1054.2494,-458.9353 1055.2137,-458.2348 1056.2662,-457.5682 1057.4039,-456.9374 1058.6235,-456.3441 1059.9211,-455.79 1061.2923,-455.2766 1062.7326,-454.8053 1064.2365,-454.3773 1065.7986,-453.9939 1067.4129,-453.656 1069.0731,-453.3647 1070.7727,-453.1207 1072.5048,-452.9247 1074.2625,-452.7773 1076.0386,-452.6787 1077.8257,-452.6294 1079.6165,-452.6294 1081.4036,-452.6787"/>
<text text-anchor="middle" x="1078.7211" y="-468.1294" font-family="Courier,monospace" font-weight="bold" font-size="10.00" fill="#000000">D</text>
</g>
<!-- STATE_B&#45;&gt;STATE_D -->
<g id="edge5" class="edge">
<title>STATE_B&#45;&gt;STATE_D</title>
<path fill="none" stroke="#000000" d="M634.9247,-165.4672C641.0008,-186.1248 653.9028,-219.7292 677.2211,-238.6294 788.8722,-329.126 874.3689,-237.2317 989.2211,-323.6294 1030.1184,-354.3945 1056.3544,-409.7964 1069.2402,-443.0958"/>
<polygon fill="#000000" stroke="#000000" points="1066.037,-444.5232 1072.812,-452.6688 1072.5953,-442.0761 1066.037,-444.5232"/>
<text text-anchor="middle" x="756.2211" y="-285.6294" font-family="Courier,monospace" font-weight="bold" font-size="10.00" fill="#000000">0.5</text>
</g>
<!-- STATE_B&#45;&gt;SYMBOL_z -->
<g id="edge17" class="edge">
<title>STATE_B&#45;&gt;SYMBOL_z</title>
<path fill="none" stroke="#000000" stroke-dasharray="5,2" d="M633.9832,-165.5785C641.2368,-201.0552 658.7642,-278.3872 677.2211,-297.6294 734.733,-357.5885 774.0508,-335.4344 853.2211,-360.6294 913.0254,-379.6614 946.9451,-352.2451 989.2211,-398.6294 1019.3462,-431.682 973.4844,-468.2723 1007.2211,-497.6294 1111.7087,-588.5526 1491.7189,-515.2805 1630.2211,-516.6294 1700.44,-517.3133 1718.5525,-525.4294 1788.2211,-516.6294 1792.4292,-516.0979 1796.8009,-515.3073 1801.107,-514.3809"/>
<polygon fill="#000000" stroke="#000000" points="1802.0167,-517.7621 1810.9276,-512.0308 1800.3876,-510.9543 1802.0167,-517.7621"/>
<text text-anchor="middle" x="1236.2211" y="-545.6294" font-family="Courier,monospace" font-weight="bold" font-size="10.00" fill="#000000">0.3333333333333333</text>
</g>
<!-- STATE_B&#45;&gt;SYMBOL_x -->
<g id="edge18" class="edge">
<title>STATE_B&#45;&gt;SYMBOL_x</title>
<path fill="none" stroke="#000000" stroke-dasharray="5,2" d="M658.449,-139.3418C664.5824,-137.8361 671.0792,-136.4762 677.2211,-135.6294 814.5996,-116.6887 850.5671,-129.0467 989.2211,-131.6294 1078.2012,-133.2868 1715.3521,-136.5381 1788.2211,-187.6294 1812.8719,-204.9131 1824.7619,-238.4365 1830.3342,-262.5496"/>
<polygon fill="#000000" stroke="#000000" points="1826.9516,-263.4749 1832.4138,-272.5531 1833.8051,-262.05 1826.9516,-263.4749"/>
<text text-anchor="middle" x="1236.2211" y="-140.6294" font-family="Courier,monospace" font-weight="bold" font-size="10.00" fill="#000000">0.3333333333333333</text>
</g>
<!-- STATE_B&#45;&gt;SYMBOL_y -->
<g id="edge19" class="edge">
<title>STATE_B&#45;&gt;SYMBOL_y</title>
<path fill="none" stroke="#000000" stroke-dasharray="5,2" d="M636.0831,-129.5657C642.7556,-111.3724 655.7784,-84.1215 677.2211,-70.6294 769.4505,-12.5973 812.2533,-46.6294 921.2211,-46.6294 921.2211,-46.6294 921.2211,-46.6294 1544.2211,-46.6294 1638.9473,-46.6294 1746.0777,-83.0854 1799.9964,-104.1153"/>
<polygon fill="#000000" stroke="#000000" points="1798.8437,-107.4232 1809.4299,-107.8503 1801.4206,-100.9148 1798.8437,-107.4232"/>
<text text-anchor="middle" x="1236.2211" y="-49.6294" font-family="Courier,monospace" font-weight="bold" font-size="10.00" fill="#000000">0.3333333333333333</text>
</g>
<!-- STATE_C&#45;&gt;STATE_F -->
<g id="edge6" class="edge">
<title>STATE_C&#45;&gt;STATE_F</title>
<path fill="none" stroke="#000000" d="M948.7171,-180.1392C991.711,-184.0662 1077.4703,-191.9099 1150.2211,-198.6294 1165.4804,-200.0388 1182.2617,-201.5978 1196.9181,-202.9624"/>
<polygon fill="#000000" stroke="#000000" points="1196.881,-206.474 1207.1625,-203.9167 1197.5303,-199.5042 1196.881,-206.474"/>
<text text-anchor="middle" x="1078.7211" y="-201.6294" font-family="Courier,monospace" font-weight="bold" font-size="10.00" fill="#000000">1.0</text>
</g>
<!-- STATE_D&#45;&gt;STATE_A -->
<g id="edge7" class="edge">
<title>STATE_D&#45;&gt;STATE_A</title>
<path fill="none" stroke="#000000" d="M1050.9776,-472.4121C941.1581,-479.0203 537.4437,-498.9424 425.7342,-442.6294 385.76,-422.4783 356.6412,-377.5021 341.2389,-348.6976"/>
<polygon fill="#000000" stroke="#000000" points="344.2436,-346.8878 336.5456,-339.6083 338.0238,-350.0995 344.2436,-346.8878"/>
<text text-anchor="middle" x="630.4777" y="-481.6294" font-family="Courier,monospace" font-weight="bold" font-size="10.00" fill="#000000">1.0</text>
</g>
<!-- STATE_D&#45;&gt;SYMBOL_z -->
<g id="edge20" class="edge">
<title>STATE_D&#45;&gt;SYMBOL_z</title>
<path fill="none" stroke="#000000" stroke-dasharray="5,2" d="M1105.696,-474.1791C1123.4332,-476.3808 1147.1712,-479.0768 1168.2211,-480.6294 1406.4166,-498.1984 1693.4699,-503.0356 1796.1328,-504.2527"/>
<polygon fill="#000000" stroke="#000000" points="1796.2899,-507.7546 1806.3291,-504.3687 1796.3697,-500.755 1796.2899,-507.7546"/>
<text text-anchor="middle" x="1390.2211" y="-498.6294" font-family="Courier,monospace" font-weight="bold" font-size="10.00" fill="#000000">0.3333333333333333</text>
</g>
<!-- STATE_D&#45;&gt;SYMBOL_x -->
<g id="edge21" class="edge">
<title>STATE_D&#45;&gt;SYMBOL_x</title>
<path fill="none" stroke="#000000" stroke-dasharray="5,2" d="M1106.6024,-472.5994C1170.4039,-476.2486 1331.3069,-480.5538 1458.2211,-442.6294 1466.9897,-440.0092 1467.7559,-436.1069 1476.2211,-432.6294 1534.2732,-408.7817 1551.9489,-412.123 1612.2211,-394.6294 1690.6754,-371.8586 1719.0379,-385.0721 1788.2211,-341.6294 1799.3922,-334.6146 1809.5815,-324.232 1817.5753,-314.6623"/>
<polygon fill="#000000" stroke="#000000" points="1820.5262,-316.5745 1824.0045,-306.5669 1815.0445,-312.2211 1820.5262,-316.5745"/>
<text text-anchor="middle" x="1390.2211" y="-470.6294" font-family="Courier,monospace" font-weight="bold" font-size="10.00" fill="#000000">0.3333333333333333</text>
</g>
<!-- STATE_D&#45;&gt;SYMBOL_y -->
<g id="edge22" class="edge">
<title>STATE_D&#45;&gt;SYMBOL_y</title>
<path fill="none" stroke="#000000" stroke-dasharray="5,2" d="M1107.5488,-465.3309C1153.0921,-457.0071 1244.5044,-440.4901 1322.2211,-427.6294 1382.5613,-417.6442 1401.2126,-428.7804 1458.2211,-406.6294 1467.1832,-403.1471 1467.4282,-398.5191 1476.2211,-394.6294 1533.1997,-369.4238 1567.1532,-403.6499 1612.2211,-360.6294 1632.3597,-341.4057 1610.6261,-320.4068 1630.2211,-300.6294 1681.9674,-248.4015 1735.2743,-302.6398 1788.2211,-251.6294 1817.1051,-223.8018 1828.164,-177.101 1832.3828,-147.093"/>
<polygon fill="#000000" stroke="#000000" points="1835.8946,-147.2124 1833.648,-136.8585 1828.9475,-146.3536 1835.8946,-147.2124"/>
<text text-anchor="middle" x="1390.2211" y="-430.6294" font-family="Courier,monospace" font-weight="bold" font-size="10.00" fill="#000000">0.3333333333333333</text>
</g>
<!-- STATE_E&#45;&gt;STATE_A -->
<g id="edge8" class="edge">
<title>STATE_E&#45;&gt;STATE_A</title>
<path fill="none" stroke="#000000" d="M1520.0138,-340.9645C1502.9223,-345.7912 1479.3872,-351.7334 1458.2211,-354.6294 1390.3727,-363.9125 1372.6907,-358.4095 1304.2211,-359.6294 992.0539,-365.1914 913.8635,-366.0164 601.7342,-358.6294 523.4885,-356.7776 502.9129,-365.6404 425.7342,-352.6294 403.6332,-348.9036 379.5578,-341.4782 360.9212,-334.9474"/>
<polygon fill="#000000" stroke="#000000" points="362.0374,-331.6294 351.4429,-331.5395 359.669,-338.2166 362.0374,-331.6294"/>
<text text-anchor="middle" x="921.2211" y="-366.6294" font-family="Courier,monospace" font-weight="bold" font-size="10.00" fill="#000000">1.0</text>
</g>
<!-- STATE_E&#45;&gt;SYMBOL_z -->
<g id="edge23" class="edge">
<title>STATE_E&#45;&gt;SYMBOL_z</title>
<path fill="none" stroke="#000000" stroke-dasharray="5,2" d="M1568.4235,-340.5472C1614.7111,-354.6308 1717.4623,-390.0801 1788.2211,-445.6294 1800.0163,-454.8892 1810.629,-467.7021 1818.7494,-479.0223"/>
<polygon fill="#000000" stroke="#000000" points="1815.8979,-481.0526 1824.4517,-487.3044 1821.6635,-477.083 1815.8979,-481.0526"/>
<text text-anchor="middle" x="1709.2211" y="-448.6294" font-family="Courier,monospace" font-weight="bold" font-size="10.00" fill="#000000">0.8331833783198375</text>
</g>
<!-- STATE_E&#45;&gt;SYMBOL_x -->
<g id="edge24" class="edge">
<title>STATE_E&#45;&gt;SYMBOL_x</title>
<path fill="none" stroke="#000000" stroke-dasharray="5,2" d="M1573.0287,-331.8233C1618.9394,-328.5837 1711.3661,-320.5812 1788.2211,-304.6294 1792.6328,-303.7137 1797.229,-302.5742 1801.7426,-301.3434"/>
<polygon fill="#000000" stroke="#000000" points="1802.7538,-304.6945 1811.3882,-298.5546 1800.8095,-297.9699 1802.7538,-304.6945"/>
<text text-anchor="middle" x="1709.2211" y="-329.6294" font-family="Courier,monospace" font-weight="bold" font-size="10.00" fill="#000000">9.997000899730082e&#45;05</text>
</g>
<!-- STATE_E&#45;&gt;SYMBOL_y -->
<g id="edge25" class="edge">
<title>STATE_E&#45;&gt;SYMBOL_y</title>
<path fill="none" stroke="#000000" stroke-dasharray="5,2" d="M1557.2623,-316.8134C1573.1146,-297.0613 1601.3444,-264.0253 1630.2211,-240.6294 1687.19,-194.4732 1763.3882,-153.7622 1804.9012,-133.0722"/>
<polygon fill="#000000" stroke="#000000" points="1806.527,-136.1729 1813.9453,-128.6086 1803.4289,-129.8958 1806.527,-136.1729"/>
<text text-anchor="middle" x="1709.2211" y="-243.6294" font-family="Courier,monospace" font-weight="bold" font-size="10.00" fill="#000000">0.1667166516711653</text>
</g>
<!-- STATE_F&#45;&gt;STATE_B -->
<g id="edge9" class="edge">
<title>STATE_F&#45;&gt;STATE_B</title>
<path fill="none" stroke="#000000" d="M1208.8124,-198.0054C1191.9644,-192.7885 1169.9061,-186.1086 1150.2211,-180.6294 1079.086,-160.8293 1062.4873,-148.8118 989.2211,-139.6294 929.2459,-132.1127 913.6558,-138.5445 853.2211,-139.6294 788.7488,-140.7868 713.8302,-143.8272 669.3835,-145.8087"/>
<polygon fill="#000000" stroke="#000000" points="669.1346,-142.3163 659.3024,-146.2634 669.45,-149.3092 669.1346,-142.3163"/>
<text text-anchor="middle" x="921.2211" y="-142.6294" font-family="Courier,monospace" font-weight="bold" font-size="10.00" fill="#000000">0.5</text>
</g>
<!-- STATE_F&#45;&gt;STATE_E -->
<g id="edge10" class="edge">
<title>STATE_F&#45;&gt;STATE_E</title>
<path fill="none" stroke="#000000" d="M1258.3717,-215.7629C1311.2444,-237.5643 1445.1713,-292.7874 1509.1496,-319.1681"/>
<polygon fill="#000000" stroke="#000000" points="1507.85,-322.418 1518.4291,-322.9944 1510.5184,-315.9466 1507.85,-322.418"/>
<text text-anchor="middle" x="1390.2211" y="-298.6294" font-family="Courier,monospace" font-weight="bold" font-size="10.00" fill="#000000">0.5</text>
</g>
<!-- STATE_F&#45;&gt;SYMBOL_z -->
<g id="edge26" class="edge">
<title>STATE_F&#45;&gt;SYMBOL_z</title>
<path fill="none" stroke="#000000" stroke-dasharray="5,2" d="M1246.3855,-222.953C1260.9097,-245.1952 1289.4924,-285.1627 1322.2211,-310.6294 1441.7803,-403.6602 1486.7737,-407.9266 1630.2211,-456.6294 1698.2375,-479.7221 1718.6508,-472.7554 1788.2211,-490.6294 1791.2415,-491.4054 1794.3599,-492.2477 1797.4855,-493.1212"/>
<polygon fill="#000000" stroke="#000000" points="1796.8045,-496.5674 1807.3827,-495.9746 1798.7436,-489.8413 1796.8045,-496.5674"/>
<text text-anchor="middle" x="1544.2211" y="-452.6294" font-family="Courier,monospace" font-weight="bold" font-size="10.00" fill="#000000">0.3333333333333333</text>
</g>
<!-- STATE_F&#45;&gt;SYMBOL_x -->
<g id="edge27" class="edge">
<title>STATE_F&#45;&gt;SYMBOL_x</title>
<path fill="none" stroke="#000000" stroke-dasharray="5,2" d="M1265.0997,-203.9491C1365.3766,-195.1597 1697.3363,-170.5418 1788.2211,-220.6294 1805.0729,-229.9166 1816.9554,-248.1686 1824.5224,-263.7065"/>
<polygon fill="#000000" stroke="#000000" points="1821.379,-265.2502 1828.682,-272.9259 1827.7596,-262.3713 1821.379,-265.2502"/>
<text text-anchor="middle" x="1544.2211" y="-193.6294" font-family="Courier,monospace" font-weight="bold" font-size="10.00" fill="#000000">0.3333333333333333</text>
</g>
<!-- STATE_F&#45;&gt;SYMBOL_y -->
<g id="edge28" class="edge">
<title>STATE_F&#45;&gt;SYMBOL_y</title>
<path fill="none" stroke="#000000" stroke-dasharray="5,2" d="M1264.7679,-199.6938C1281.4501,-195.7986 1302.9501,-191.0486 1322.2211,-187.6294 1499.0535,-156.2541 1712.4486,-131.7976 1797.4179,-122.5921"/>
<polygon fill="#000000" stroke="#000000" points="1798.0348,-126.0459 1807.6026,-121.4953 1797.2853,-119.0862 1798.0348,-126.0459"/>
<text text-anchor="middle" x="1544.2211" y="-165.6294" font-family="Courier,monospace" font-weight="bold" font-size="10.00" fill="#000000">0.3333333333333333</text>
</g>
<!-- STATE_SOURCE -->
<g id="node7" class="node">
<title>STATE_SOURCE</title>
<polygon fill="none" stroke="#000000" points="42.4515,-304.6787 44.8246,-304.7773 47.1732,-304.9247 49.4877,-305.1207 51.7587,-305.3647 53.9771,-305.656 56.134,-305.9939 58.2213,-306.3773 60.2308,-306.8053 62.1552,-307.2766 63.9875,-307.79 65.7213,-308.3441 67.3509,-308.9374 68.8711,-309.5682 70.2774,-310.2348 71.5659,-310.9353 72.7335,-311.6679 73.7776,-312.4306 74.6964,-313.2212 75.4887,-314.0376 76.1541,-314.8775 76.6926,-315.7387 77.105,-316.6188 77.3927,-317.5154 77.5574,-318.4259 77.6018,-319.348 77.5286,-320.2791 77.3412,-321.2166 77.0434,-322.158 76.6393,-323.1007 76.1334,-324.0421 75.5302,-324.9797 74.8348,-325.9108 74.0521,-326.8329 73.1874,-327.7434 72.246,-328.64 71.2329,-329.5201 70.1536,-330.3813 69.0132,-331.2212 67.8168,-332.0376 66.5693,-332.8282 65.2754,-333.5909 63.9398,-334.3235 62.5668,-335.024 61.1606,-335.6906 59.7248,-336.3214 58.2633,-336.9147 56.7792,-337.4688 55.2756,-337.9822 53.7553,-338.4535 52.2208,-338.8815 50.6744,-339.2649 49.118,-339.6028 47.5535,-339.8941 45.9824,-340.1381 44.4062,-340.3341 42.8263,-340.4815 41.2436,-340.5801 39.6595,-340.6294 38.0748,-340.6294 36.4906,-340.5801 34.908,-340.4815 33.328,-340.3341 31.7518,-340.1381 30.1808,-339.8941 28.6162,-339.6028 27.0598,-339.2649 25.5134,-338.8815 23.9789,-338.4535 22.4586,-337.9822 20.955,-337.4688 19.4709,-336.9147 18.0094,-336.3214 16.5737,-335.6906 15.1674,-335.024 13.7944,-334.3235 12.4588,-333.5909 11.1649,-332.8282 9.9174,-332.0376 8.721,-331.2212 7.5806,-330.3813 6.5013,-329.5201 5.4883,-328.64 4.5468,-327.7434 3.6821,-326.8329 2.8994,-325.9108 2.204,-324.9797 1.6009,-324.0421 1.0949,-323.1007 .6908,-322.158 .393,-321.2166 .2056,-320.2791 .1324,-319.348 .1768,-318.4259 .3416,-317.5154 .6292,-316.6188 1.0416,-315.7387 1.5801,-314.8775 2.2455,-314.0376 3.0379,-313.2212 3.9567,-312.4306 5.0008,-311.6679 6.1683,-310.9353 7.4568,-310.2348 8.8631,-309.5682 10.3833,-308.9374 12.0129,-308.3441 13.7467,-307.79 15.579,-307.2766 17.5034,-306.8053 19.513,-306.3773 21.6002,-305.9939 23.7572,-305.656 25.9755,-305.3647 28.2465,-305.1207 30.561,-304.9247 32.9096,-304.7773 35.2827,-304.6787 37.6707,-304.6294 40.0635,-304.6294 42.4515,-304.6787"/>
<text text-anchor="middle" x="38.8671" y="-320.1294" font-family="Courier,monospace" font-weight="bold" font-size="10.00" fill="#000000">SOURCE</text>
</g>
<!-- STATE_SOURCE&#45;&gt;STATE_A -->
<g id="edge11" class="edge">
<title>STATE_SOURCE&#45;&gt;STATE_A</title>
<path fill="none" stroke="#000000" d="M77.0602,-322.6294C132.3751,-322.6294 234.2372,-322.6294 289.9059,-322.6294"/>
<polygon fill="#000000" stroke="#000000" points="290.0689,-326.1295 300.0689,-322.6294 290.0688,-319.1295 290.0689,-326.1295"/>
<text text-anchor="middle" x="163.7342" y="-325.6294" font-family="Courier,monospace" font-weight="bold" font-size="10.00" fill="#000000">0.9998000599820054</text>
</g>
<!-- STATE_SOURCE&#45;&gt;STATE_B -->
<g id="edge12" class="edge">
<title>STATE_SOURCE&#45;&gt;STATE_B</title>
<path fill="none" stroke="#000000" d="M62.9231,-307.2024C121.8578,-270.4381 279.3443,-178.3636 425.7342,-146.6294 482.419,-134.3413 550.0234,-138.1241 591.5983,-142.4832"/>
<polygon fill="#000000" stroke="#000000" points="591.2591,-145.967 601.5849,-143.5944 592.0333,-139.0099 591.2591,-145.967"/>
<text text-anchor="middle" x="328.7342" y="-207.6294" font-family="Courier,monospace" font-weight="bold" font-size="10.00" fill="#000000">9.997000899730082e&#45;05</text>
</g>
<!-- STATE_SOURCE&#45;&gt;STATE_D -->
<g id="edge13" class="edge">
<title>STATE_SOURCE&#45;&gt;STATE_D</title>
<path fill="none" stroke="#000000" d="M49.092,-339.8416C82.1755,-393.0982 192.1294,-551.6294 328.7342,-551.6294 328.7342,-551.6294 328.7342,-551.6294 756.2211,-551.6294 865.9556,-551.6294 990.5376,-506.9703 1047.4161,-483.9733"/>
<polygon fill="#000000" stroke="#000000" points="1048.9869,-487.1121 1056.9112,-480.0797 1046.331,-480.6355 1048.9869,-487.1121"/>
<text text-anchor="middle" x="504.7342" y="-554.6294" font-family="Courier,monospace" font-weight="bold" font-size="10.00" fill="#000000">9.997000899730082e&#45;05</text>
</g>
</g>
</svg>
