<svg class="bob" font-family="arial" font-size="14" height="144" width="352" xmlns="http://www.w3.org/2000/svg">
<defs>
<marker id="triangle" markerHeight="8" markerWidth="8" orient="auto" refX="4" refY="2" viewBox="0 0 8 4">
<polygon class="fg_fill" points="0,0 0,4 8,2 0,0"/>
</marker>
<marker id="clear_triangle" markerHeight="10" markerWidth="10" orient="auto" refX="1" refY="7" viewBox="0 0 20 14">
<polygon class="bg_fill" points="2,2 2,12 18,7 2,2"/>
</marker>
<marker id="circle" markerHeight="5" markerWidth="5" orient="auto" refX="10" refY="10" viewBox="0 0 20 20">
<circle class="fg_fill" cx="10" cy="10" r="8"/>
</marker>
<marker id="square" markerHeight="5" markerWidth="5" orient="auto" refX="10" refY="10" viewBox="0 0 20 20">
<rect class="fg_fill" height="20" width="20" x="0" y="0"/>
</marker>
<marker id="open_circle" markerHeight="10" markerWidth="10" orient="auto" refX="10" refY="10" viewBox="0 0 20 20">
<circle class="bg_fill" cx="10" cy="10" r="4"/>
</marker>
<marker id="big_open_circle" markerHeight="20" markerWidth="20" orient="auto" refX="20" refY="20" viewBox="0 0 40 40">
<circle class="bg_fill" cx="20" cy="20" r="6"/>
</marker>
</defs>
<style type="text/css">

rect.backdrop {
    fill: white;
}
text{
    fill: black;
}

circle {
    fill: none;
    stroke: black;
    stroke-width: 2;
}

line {
    stroke: black;
    stroke-width: 2;
    stroke-opacity: 1;
    fill-opacity: 1;
    stroke-linecap: round;
    stroke-linejoin: miter;
}

path {
    fill: none;
    stroke: black;
    stroke-width: 2;
    stroke-opacity: 1;
    fill-opacity: 1;
    stroke-linecap: round;
    stroke-linejoin: miter;
}

line.dashed {
    stroke-dasharray: 5;
}

.fg_fill {
    fill: black;
}


.bg_fill {
    fill: white;
    stroke: black;
    stroke-width: 2;
}

tspan.head{
    fill: none;
    stroke: none;
}
    
</style>
<rect class="backdrop" height="144" width="352" x="0" y="0"/>
<g>
<line marker-end="url(#triangle)" x1="260" x2="260" y1="64" y2="52"/>
<line x1="260" x2="260" y1="64" y2="84"/>
<path d="M 260 84 A 4 4 0 0 0 264 88"/>
</g>
<g>
<line x1="264" x2="288" y1="88" y2="88"/>
<path d="M 292 92 A 4 4 0 0 0 288 88"/>
</g>
<g>
<line marker-end="url(#triangle)" x1="276" x2="276" y1="12" y2="28"/>
<path d="M 280 8 A 4 4 0 0 0 276 12"/>
</g>
<g>
<line x1="280" x2="344" y1="8" y2="8"/>
<path d="M 348 12 A 4 4 0 0 0 344 8"/>
</g>
<g>
<line x1="288" x2="296" y1="38" y2="38"/>
</g>
<g>
<line x1="288" x2="296" y1="42" y2="42"/>
</g>
<g>
<line marker-end="url(#triangle)" x1="292" x2="292" y1="92" y2="124"/>
</g>
<g>
<line marker-end="url(#triangle)" x1="308" x2="308" y1="64" y2="52"/>
<line marker-end="url(#triangle)" x1="308" x2="308" y1="64" y2="124"/>
</g>
<g>
<line x1="328" x2="336" y1="134" y2="134"/>
</g>
<g>
<line x1="328" x2="336" y1="138" y2="138"/>
</g>
<g>
<line marker-end="url(#triangle)" x1="348" x2="348" y1="12" y2="124"/>
</g>
<g>
<text x="1" y="44">
(base, exponent) to result
</text>
</g>
<g>
<text x="1" y="140">
(base, result) to exponent
</text>
</g>
<g>
<text x="257" y="44">
2^6
</text>
</g>
<g>
<text x="257" y="140">
log
</text>
</g>
<g>
<text x="289" y="140">
2
</text>
</g>
<g>
<text x="305" y="44">
64
</text>
</g>
<g>
<text x="305" y="140">
64
</text>
</g>
<g>
<text x="345" y="140">
6
</text>
</g>
</svg>
