<svg class="bob" font-family="arial" font-size="14" height="128" width="512" xmlns="http://www.w3.org/2000/svg">
<defs>
<marker id="triangle" markerHeight="8" markerWidth="8" orient="auto" refX="4" refY="2" viewBox="0 0 8 4">
<polygon class="fg_fill" points="0,0 0,4 8,2 0,0"/>
</marker>
<marker id="clear_triangle" markerHeight="10" markerWidth="10" orient="auto" refX="1" refY="7" viewBox="0 0 20 14">
<polygon class="bg_fill" points="2,2 2,12 18,7 2,2"/>
</marker>
<marker id="circle" markerHeight="5" markerWidth="5" orient="auto" refX="10" refY="10" viewBox="0 0 20 20">
<circle class="fg_fill" cx="10" cy="10" r="8"/>
</marker>
<marker id="square" markerHeight="5" markerWidth="5" orient="auto" refX="10" refY="10" viewBox="0 0 20 20">
<rect class="fg_fill" height="20" width="20" x="0" y="0"/>
</marker>
<marker id="open_circle" markerHeight="10" markerWidth="10" orient="auto" refX="10" refY="10" viewBox="0 0 20 20">
<circle class="bg_fill" cx="10" cy="10" r="4"/>
</marker>
<marker id="big_open_circle" markerHeight="20" markerWidth="20" orient="auto" refX="20" refY="20" viewBox="0 0 40 40">
<circle class="bg_fill" cx="20" cy="20" r="6"/>
</marker>
</defs>
<style type="text/css">

rect.backdrop {
    fill: white;
}
text{
    fill: black;
}

circle {
    fill: none;
    stroke: black;
    stroke-width: 2;
}

line {
    stroke: black;
    stroke-width: 2;
    stroke-opacity: 1;
    fill-opacity: 1;
    stroke-linecap: round;
    stroke-linejoin: miter;
}

path {
    fill: none;
    stroke: black;
    stroke-width: 2;
    stroke-opacity: 1;
    fill-opacity: 1;
    stroke-linecap: round;
    stroke-linejoin: miter;
}

line.dashed {
    stroke-dasharray: 5;
}

.fg_fill {
    fill: black;
}


.bg_fill {
    fill: white;
    stroke: black;
    stroke-width: 2;
}

tspan.head{
    fill: none;
    stroke: none;
}
    
</style>
<rect class="backdrop" height="128" width="512" x="0" y="0"/>
<g>
<line x1="4" x2="4" y1="12" y2="116"/>
<path d="M 4 116 A 4 4 0 0 0 8 120"/>
<path d="M 8 8 A 4 4 0 0 0 4 12"/>
</g>
<g>
<line x1="8" x2="344" y1="8" y2="8"/>
<path d="M 348 12 A 4 4 0 0 0 344 8"/>
</g>
<g>
<line x1="8" x2="344" y1="120" y2="120"/>
<path d="M 344 120 A 4 4 0 0 0 348 116"/>
</g>
<g>
<line x1="20" x2="20" y1="60" y2="100"/>
<path d="M 20 100 A 4 4 0 0 0 24 104"/>
<path d="M 24 56 A 4 4 0 0 0 20 60"/>
</g>
<g>
<line x1="24" x2="128" y1="56" y2="56"/>
<path d="M 132 60 A 4 4 0 0 0 128 56"/>
</g>
<g>
<line x1="24" x2="128" y1="104" y2="104"/>
<path d="M 128 104 A 4 4 0 0 0 132 100"/>
</g>
<g>
<line x1="132" x2="132" y1="60" y2="100"/>
</g>
<g>
<line marker-end="url(#triangle)" x1="144" x2="140" y1="72" y2="72"/>
<line x1="144" x2="220" y1="72" y2="72"/>
</g>
<g>
<line x1="220" x2="220" y1="60" y2="100"/>
<path d="M 220 100 A 4 4 0 0 0 224 104"/>
<path d="M 224 56 A 4 4 0 0 0 220 60"/>
</g>
<g>
<line x1="224" x2="320" y1="56" y2="56"/>
<path d="M 324 60 A 4 4 0 0 0 320 56"/>
</g>
<g>
<line x1="224" x2="320" y1="104" y2="104"/>
<path d="M 320 104 A 4 4 0 0 0 324 100"/>
</g>
<g>
<line x1="324" x2="324" y1="60" y2="100"/>
</g>
<g>
<line marker-end="url(#triangle)" x1="336" x2="332" y1="72" y2="72"/>
<line x1="336" x2="348" y1="72" y2="72"/>
<line x1="348" x2="348" y1="12" y2="72"/>
<line x1="348" x2="348" y1="72" y2="116"/>
<line x1="348" x2="420" y1="72" y2="72"/>
</g>
<g>
<line x1="420" x2="420" y1="60" y2="84"/>
<path d="M 420 84 A 4 4 0 0 0 424 88"/>
<path d="M 424 56 A 4 4 0 0 0 420 60"/>
</g>
<g>
<line x1="424" x2="504" y1="56" y2="56"/>
<path d="M 508 60 A 4 4 0 0 0 504 56"/>
</g>
<g>
<line x1="424" x2="504" y1="88" y2="88"/>
<path d="M 504 88 A 4 4 0 0 0 508 84"/>
</g>
<g>
<line x1="508" x2="508" y1="60" y2="84"/>
</g>
<g>
<text x="33" y="76">
Application
</text>
</g>
<g>
<text x="33" y="92">
Container
</text>
</g>
<g>
<text x="161" y="92">
send
</text>
</g>
<g>
<text x="161" y="108">
JSON
</text>
</g>
<g>
<text x="169" y="28">
Pod
</text>
</g>
<g>
<text x="233" y="76">
Adapter
</text>
</g>
<g>
<text x="233" y="92">
Container
</text>
</g>
<g>
<text x="361" y="92">
send
</text>
</g>
<g>
<text x="361" y="108">
YAML
</text>
</g>
<g>
<text x="433" y="76">
Database
</text>
</g>
</svg>
