<?xml version="1.0" encoding="UTF-8" standalone="no"?>
<!DOCTYPE svg PUBLIC "-//W3C//DTD SVG 1.1//EN"
 "http://www.w3.org/Graphics/SVG/1.1/DTD/svg11.dtd">
<!-- Generated by graphviz version 2.40.1 (0)
 -->
<!-- Title: G Pages: 1 -->
<svg width="250pt" height="195pt"
 viewBox="0.00 0.00 249.60 194.80" xmlns="http://www.w3.org/2000/svg" xmlns:xlink="http://www.w3.org/1999/xlink">
<g id="graph0" class="graph" transform="scale(1 1) rotate(0) translate(4 190.8)">
<title>G</title>
<polygon fill="#ffffff" stroke="transparent" points="-4,4 -4,-190.8 245.6,-190.8 245.6,4 -4,4"/>
<!-- N0 -->
<g id="node1" class="node">
<title>N0</title>
<ellipse fill="#000000" stroke="#000000" cx="1.8" cy="-69.8" rx="1.8" ry="1.8"/>
</g>
<!-- N1 -->
<g id="node2" class="node">
<title>N1</title>
<ellipse fill="#000000" stroke="#000000" cx="49.4" cy="-147.8" rx="1.8" ry="1.8"/>
</g>
<!-- N0&#45;&gt;N1 -->
<g id="edge1" class="edge">
<title>N0&#45;&gt;N1</title>
<path fill="none" stroke="#000000" d="M2.3304,-71.7482C4.2242,-78.503 11.1042,-101.3997 21.6,-117.8 26.7983,-125.9227 34.3053,-133.8704 40.2084,-139.5427"/>
<polygon fill="#000000" stroke="#000000" points="38.184,-142.4325 47.9377,-146.5696 42.8928,-137.253 38.184,-142.4325"/>
<text text-anchor="middle" x="25.6" y="-129.8" font-family="Courier,monospace" font-weight="bold" font-size="10.00" fill="#000000">n</text>
</g>
<!-- N10 -->
<g id="node3" class="node">
<title>N10</title>
<ellipse fill="#000000" stroke="#000000" cx="49.4" cy="-35.8" rx="1.8" ry="1.8"/>
</g>
<!-- N0&#45;&gt;N10 -->
<g id="edge15" class="edge">
<title>N0&#45;&gt;N10</title>
<path fill="none" stroke="#000000" d="M3.223,-68.6841C6.4525,-66.1599 14.6,-59.8391 21.6,-54.8 27.4594,-50.582 34.1353,-46.0118 39.4763,-42.4109"/>
<polygon fill="#000000" stroke="#000000" points="41.5014,-45.2673 47.8753,-36.8042 37.6149,-39.4453 41.5014,-45.2673"/>
<text text-anchor="middle" x="25.6" y="-57.8" font-family="Courier,monospace" font-weight="bold" font-size="10.00" fill="#000000">e</text>
</g>
<!-- N13 -->
<g id="node6" class="node">
<title>N13</title>
<ellipse fill="#000000" stroke="#000000" cx="49.4" cy="-69.8" rx="1.8" ry="1.8"/>
</g>
<!-- N0&#45;&gt;N13 -->
<g id="edge5" class="edge">
<title>N0&#45;&gt;N13</title>
<path fill="none" stroke="#000000" d="M3.8453,-69.8C9.5341,-69.8 25.8789,-69.8 37.3549,-69.8"/>
<polygon fill="#000000" stroke="#000000" points="37.4153,-73.3001 47.4153,-69.8 37.4153,-66.3001 37.4153,-73.3001"/>
<text text-anchor="middle" x="25.6" y="-72.8" font-family="Courier,monospace" font-weight="bold" font-size="10.00" fill="#000000">b</text>
</g>
<!-- N4 -->
<g id="node11" class="node">
<title>N4</title>
<ellipse fill="#000000" stroke="#000000" cx="144.6" cy="-127.8" rx="1.8" ry="1.8"/>
</g>
<!-- N0&#45;&gt;N4 -->
<g id="edge9" class="edge">
<title>N0&#45;&gt;N4</title>
<path fill="none" stroke="#000000" d="M3.1367,-71.054C6.1897,-73.8611 13.9992,-80.7231 21.6,-84.8 60.0806,-105.44 110.463,-119.4017 132.9201,-125.0214"/>
<polygon fill="#000000" stroke="#000000" points="132.2379,-128.457 142.779,-127.3912 133.874,-121.6509 132.2379,-128.457"/>
<text text-anchor="middle" x="73.2" y="-110.8" font-family="Courier,monospace" font-weight="bold" font-size="10.00" fill="#000000">a</text>
</g>
<!-- N7 -->
<g id="node14" class="node">
<title>N7</title>
<ellipse fill="#000000" stroke="#000000" cx="49.4" cy="-1.8" rx="1.8" ry="1.8"/>
</g>
<!-- N0&#45;&gt;N7 -->
<g id="edge12" class="edge">
<title>N0&#45;&gt;N7</title>
<path fill="none" stroke="#000000" d="M2.587,-68.0743C5.0475,-62.7519 12.9488,-46.2027 21.6,-33.8 27.3469,-25.561 34.869,-17.0103 40.6393,-10.8227"/>
<polygon fill="#000000" stroke="#000000" points="43.3435,-13.0603 47.7581,-3.429 38.3009,-8.2052 43.3435,-13.0603"/>
<text text-anchor="middle" x="25.6" y="-36.8" font-family="Courier,monospace" font-weight="bold" font-size="10.00" fill="#000000">k</text>
</g>
<!-- N2 -->
<g id="node9" class="node">
<title>N2</title>
<ellipse fill="#000000" stroke="#000000" cx="97" cy="-147.8" rx="1.8" ry="1.8"/>
</g>
<!-- N1&#45;&gt;N2 -->
<g id="edge2" class="edge">
<title>N1&#45;&gt;N2</title>
<path fill="none" stroke="#000000" d="M51.4453,-147.8C57.1341,-147.8 73.4789,-147.8 84.9549,-147.8"/>
<polygon fill="#000000" stroke="#000000" points="85.0153,-151.3001 95.0153,-147.8 85.0153,-144.3001 85.0153,-151.3001"/>
<text text-anchor="middle" x="73.2" y="-150.8" font-family="Courier,monospace" font-weight="bold" font-size="10.00" fill="#000000">a</text>
</g>
<!-- N11 -->
<g id="node4" class="node">
<title>N11</title>
<ellipse fill="#000000" stroke="#000000" cx="97" cy="-35.8" rx="1.8" ry="1.8"/>
</g>
<!-- N10&#45;&gt;N11 -->
<g id="edge3" class="edge">
<title>N10&#45;&gt;N11</title>
<path fill="none" stroke="#000000" d="M51.4453,-35.8C57.1341,-35.8 73.4789,-35.8 84.9549,-35.8"/>
<polygon fill="#000000" stroke="#000000" points="85.0153,-39.3001 95.0153,-35.8 85.0153,-32.3001 85.0153,-39.3001"/>
<text text-anchor="middle" x="73.2" y="-38.8" font-family="Courier,monospace" font-weight="bold" font-size="10.00" fill="#000000">¶</text>
</g>
<!-- N12 -->
<g id="node5" class="node">
<title>N12</title>
<ellipse fill="#000000" stroke="#000000" cx="192.2" cy="-127.8" rx="1.8" ry="1.8"/>
</g>
<!-- N14 -->
<g id="node7" class="node">
<title>N14</title>
<ellipse fill="#000000" stroke="#000000" cx="97" cy="-69.8" rx="1.8" ry="1.8"/>
</g>
<!-- N13&#45;&gt;N14 -->
<g id="edge6" class="edge">
<title>N13&#45;&gt;N14</title>
<path fill="none" stroke="#000000" d="M51.4453,-69.8C57.1341,-69.8 73.4789,-69.8 84.9549,-69.8"/>
<polygon fill="#000000" stroke="#000000" points="85.0153,-73.3001 95.0153,-69.8 85.0153,-66.3001 85.0153,-73.3001"/>
<text text-anchor="middle" x="73.2" y="-72.8" font-family="Courier,monospace" font-weight="bold" font-size="10.00" fill="#000000">a</text>
</g>
<!-- N15 -->
<g id="node8" class="node">
<title>N15</title>
<ellipse fill="#000000" stroke="#000000" cx="144.6" cy="-52.8" rx="1.8" ry="1.8"/>
</g>
<!-- N14&#45;&gt;N15 -->
<g id="edge7" class="edge">
<title>N14&#45;&gt;N15</title>
<path fill="none" stroke="#000000" d="M98.2393,-68.2825C101.0928,-64.92 108.5207,-56.8956 116.8,-53.8 121.7025,-51.967 127.4364,-51.5067 132.4191,-51.5854"/>
<polygon fill="#000000" stroke="#000000" points="132.5029,-55.1056 142.7672,-52.4799 133.1058,-48.1317 132.5029,-55.1056"/>
<text text-anchor="middle" x="120.8" y="-56.8" font-family="Courier,monospace" font-weight="bold" font-size="10.00" fill="#000000">¶</text>
</g>
<!-- N14&#45;&gt;N4 -->
<g id="edge18" class="edge">
<title>N14&#45;&gt;N4</title>
<path fill="none" stroke="#ff0000" stroke-dasharray="5,2" d="M98.6832,-70.8691C103.3104,-73.8707 116.4341,-82.8114 124.8,-92.8 130.888,-100.0688 136.0891,-109.4759 139.6309,-116.7066"/>
<polygon fill="#ff0000" stroke="#ff0000" points="136.5597,-118.4081 143.8885,-126.0592 142.9306,-115.5077 136.5597,-118.4081"/>
</g>
<!-- N3 -->
<g id="node10" class="node">
<title>N3</title>
<ellipse fill="#000000" stroke="#000000" cx="144.6" cy="-159.8" rx="1.8" ry="1.8"/>
</g>
<!-- N2&#45;&gt;N3 -->
<g id="edge8" class="edge">
<title>N2&#45;&gt;N3</title>
<path fill="none" stroke="#000000" d="M99.0453,-148.3156C104.7341,-149.7498 121.0789,-153.8703 132.5549,-156.7634"/>
<polygon fill="#000000" stroke="#000000" points="132.0631,-160.2489 142.6153,-159.2997 133.7743,-153.4612 132.0631,-160.2489"/>
<text text-anchor="middle" x="120.8" y="-156.8" font-family="Courier,monospace" font-weight="bold" font-size="10.00" fill="#000000">¶</text>
</g>
<!-- N2&#45;&gt;N4 -->
<g id="edge16" class="edge">
<title>N2&#45;&gt;N4</title>
<path fill="none" stroke="#ff0000" stroke-dasharray="5,2" d="M99.0453,-146.9406C104.8564,-144.499 121.7868,-137.3854 133.2883,-132.5528"/>
<polygon fill="#ff0000" stroke="#ff0000" points="134.7518,-135.7344 142.6153,-128.6339 132.0402,-129.2809 134.7518,-135.7344"/>
</g>
<!-- N4&#45;&gt;N12 -->
<g id="edge4" class="edge">
<title>N4&#45;&gt;N12</title>
<path fill="none" stroke="#000000" d="M146.6453,-127.8C152.3341,-127.8 168.6789,-127.8 180.1549,-127.8"/>
<polygon fill="#000000" stroke="#000000" points="180.2153,-131.3001 190.2153,-127.8 180.2153,-124.3001 180.2153,-131.3001"/>
<text text-anchor="middle" x="168.4" y="-130.8" font-family="Courier,monospace" font-weight="bold" font-size="10.00" fill="#000000">¶</text>
</g>
<!-- N5 -->
<g id="node12" class="node">
<title>N5</title>
<ellipse fill="#000000" stroke="#000000" cx="192.2" cy="-175.8" rx="1.8" ry="1.8"/>
</g>
<!-- N4&#45;&gt;N5 -->
<g id="edge10" class="edge">
<title>N4&#45;&gt;N5</title>
<path fill="none" stroke="#000000" d="M146.1837,-129.397C151.8862,-135.1475 171.65,-155.0773 183.3401,-166.8656"/>
<polygon fill="#000000" stroke="#000000" points="181.0348,-169.5116 190.5615,-174.1477 186.0053,-164.5826 181.0348,-169.5116"/>
<text text-anchor="middle" x="168.4" y="-156.8" font-family="Courier,monospace" font-weight="bold" font-size="10.00" fill="#000000">n</text>
</g>
<!-- N5&#45;&gt;N1 -->
<g id="edge17" class="edge">
<title>N5&#45;&gt;N1</title>
<path fill="none" stroke="#ff0000" stroke-dasharray="5,2" d="M190.376,-175.9742C178.8691,-177.0009 115.336,-181.5953 69.2,-162.8 65.331,-161.2238 61.5548,-158.6925 58.3552,-156.1547"/>
<polygon fill="#ff0000" stroke="#ff0000" points="60.4332,-153.3134 50.6812,-149.1722 55.7222,-158.4909 60.4332,-153.3134"/>
</g>
<!-- N6 -->
<g id="node13" class="node">
<title>N6</title>
<ellipse fill="#000000" stroke="#000000" cx="239.8" cy="-175.8" rx="1.8" ry="1.8"/>
</g>
<!-- N5&#45;&gt;N6 -->
<g id="edge11" class="edge">
<title>N5&#45;&gt;N6</title>
<path fill="none" stroke="#000000" d="M194.2453,-175.8C199.9341,-175.8 216.2789,-175.8 227.7549,-175.8"/>
<polygon fill="#000000" stroke="#000000" points="227.8153,-179.3001 237.8153,-175.8 227.8153,-172.3001 227.8153,-179.3001"/>
<text text-anchor="middle" x="216" y="-178.8" font-family="Courier,monospace" font-weight="bold" font-size="10.00" fill="#000000">¶</text>
</g>
<!-- N8 -->
<g id="node15" class="node">
<title>N8</title>
<ellipse fill="#000000" stroke="#000000" cx="97" cy="-1.8" rx="1.8" ry="1.8"/>
</g>
<!-- N7&#45;&gt;N8 -->
<g id="edge13" class="edge">
<title>N7&#45;&gt;N8</title>
<path fill="none" stroke="#000000" d="M51.4453,-1.8C57.1341,-1.8 73.4789,-1.8 84.9549,-1.8"/>
<polygon fill="#000000" stroke="#000000" points="85.0153,-5.3001 95.0153,-1.8 85.0153,1.6999 85.0153,-5.3001"/>
<text text-anchor="middle" x="73.2" y="-4.8" font-family="Courier,monospace" font-weight="bold" font-size="10.00" fill="#000000">l</text>
</g>
<!-- N9 -->
<g id="node16" class="node">
<title>N9</title>
<ellipse fill="#000000" stroke="#000000" cx="144.6" cy="-1.8" rx="1.8" ry="1.8"/>
</g>
<!-- N8&#45;&gt;N9 -->
<g id="edge14" class="edge">
<title>N8&#45;&gt;N9</title>
<path fill="none" stroke="#000000" d="M99.0453,-1.8C104.7341,-1.8 121.0789,-1.8 132.5549,-1.8"/>
<polygon fill="#000000" stroke="#000000" points="132.6153,-5.3001 142.6153,-1.8 132.6153,1.6999 132.6153,-5.3001"/>
<text text-anchor="middle" x="120.8" y="-4.8" font-family="Courier,monospace" font-weight="bold" font-size="10.00" fill="#000000">¶</text>
</g>
</g>
</svg>
