<svg class="bob" font-family="arial" font-size="14" height="160" width="1032" xmlns="http://www.w3.org/2000/svg">
<defs>
<marker id="triangle" markerHeight="8" markerWidth="8" orient="auto" refX="4" refY="2" viewBox="0 0 8 4">
<polygon class="fg_fill" points="0,0 0,4 8,2 0,0"/>
</marker>
<marker id="clear_triangle" markerHeight="10" markerWidth="10" orient="auto" refX="1" refY="7" viewBox="0 0 20 14">
<polygon class="bg_fill" points="2,2 2,12 18,7 2,2"/>
</marker>
<marker id="circle" markerHeight="5" markerWidth="5" orient="auto" refX="10" refY="10" viewBox="0 0 20 20">
<circle class="fg_fill" cx="10" cy="10" r="8"/>
</marker>
<marker id="square" markerHeight="5" markerWidth="5" orient="auto" refX="10" refY="10" viewBox="0 0 20 20">
<rect class="fg_fill" height="20" width="20" x="0" y="0"/>
</marker>
<marker id="open_circle" markerHeight="10" markerWidth="10" orient="auto" refX="10" refY="10" viewBox="0 0 20 20">
<circle class="bg_fill" cx="10" cy="10" r="4"/>
</marker>
<marker id="big_open_circle" markerHeight="20" markerWidth="20" orient="auto" refX="20" refY="20" viewBox="0 0 40 40">
<circle class="bg_fill" cx="20" cy="20" r="6"/>
</marker>
</defs>
<style type="text/css">

rect.backdrop {
    fill: white;
}
text{
    fill: black;
}

circle {
    fill: none;
    stroke: black;
    stroke-width: 2;
}

line {
    stroke: black;
    stroke-width: 2;
    stroke-opacity: 1;
    fill-opacity: 1;
    stroke-linecap: round;
    stroke-linejoin: miter;
}

path {
    fill: none;
    stroke: black;
    stroke-width: 2;
    stroke-opacity: 1;
    fill-opacity: 1;
    stroke-linecap: round;
    stroke-linejoin: miter;
}

line.dashed {
    stroke-dasharray: 5;
}

.fg_fill {
    fill: black;
}


.bg_fill {
    fill: white;
    stroke: black;
    stroke-width: 2;
}

tspan.head{
    fill: none;
    stroke: none;
}
    
</style>
<rect class="backdrop" height="160" width="1032" x="0" y="0"/>
<g>
<line x1="4" x2="4" y1="72" y2="104"/>
<line x1="4" x2="76" y1="72" y2="72"/>
<line x1="4" x2="76" y1="104" y2="104"/>
<line x1="76" x2="76" y1="72" y2="88"/>
<line x1="76" x2="76" y1="88" y2="104"/>
<line x1="76" x2="92" y1="88" y2="88"/>
<line x1="92" x2="92" y1="60" y2="88"/>
<line x1="92" x2="92" y1="88" y2="116"/>
<path d="M 92 116 A 4 4 0 0 0 96 120"/>
<path d="M 96 56 A 4 4 0 0 0 92 60"/>
</g>
<g>
<line marker-end="url(#triangle)" x1="96" x2="132" y1="56" y2="56"/>
</g>
<g>
<line marker-end="url(#triangle)" x1="96" x2="132" y1="120" y2="120"/>
</g>
<g>
<line x1="140" x2="140" y1="24" y2="72"/>
<line x1="140" x2="212" y1="24" y2="24"/>
<line x1="140" x2="212" y1="72" y2="72"/>
<line x1="212" x2="212" y1="24" y2="40"/>
<line x1="212" x2="212" y1="40" y2="56"/>
<line marker-end="url(#triangle)" x1="212" x2="300" y1="40" y2="40"/>
<line x1="212" x2="212" y1="56" y2="72"/>
<line x1="212" x2="216" y1="56" y2="56"/>
<path d="M 222 60 A 8 8 0 0 0 216 56"/>
</g>
<g>
<line x1="140" x2="140" y1="104" y2="152"/>
<line x1="140" x2="212" y1="104" y2="104"/>
<line x1="140" x2="212" y1="152" y2="152"/>
<line x1="212" x2="212" y1="104" y2="120"/>
<line x1="212" x2="212" y1="120" y2="136"/>
<line x1="212" x2="216" y1="120" y2="120"/>
<line x1="212" x2="212" y1="136" y2="152"/>
<line marker-end="url(#triangle)" x1="212" x2="300" y1="136" y2="136"/>
<path d="M 216 120 A 8 8 0 0 0 222 116"/>
</g>
<g>
<line x1="222" x2="236" y1="60" y2="88"/>
<line x1="236" x2="222" y1="88" y2="116"/>
<line x1="236" x2="250" y1="88" y2="116"/>
<line x1="250" x2="236" y1="60" y2="88"/>
<path d="M 250 116 A 8 8 0 0 0 256 120"/>
<path d="M 256 56 A 8 8 0 0 0 250 60"/>
</g>
<g>
<line marker-end="url(#triangle)" x1="256" x2="300" y1="56" y2="56"/>
</g>
<g>
<line marker-end="url(#triangle)" x1="256" x2="300" y1="120" y2="120"/>
</g>
<g>
<line x1="308" x2="308" y1="24" y2="72"/>
<line x1="308" x2="380" y1="24" y2="24"/>
<line x1="308" x2="380" y1="72" y2="72"/>
<line x1="380" x2="380" y1="24" y2="40"/>
<line x1="380" x2="380" y1="40" y2="56"/>
<line marker-end="url(#triangle)" x1="380" x2="468" y1="40" y2="40"/>
<line x1="380" x2="380" y1="56" y2="72"/>
<line x1="380" x2="384" y1="56" y2="56"/>
<path d="M 390 60 A 8 8 0 0 0 384 56"/>
</g>
<g>
<line x1="308" x2="308" y1="104" y2="152"/>
<line x1="308" x2="380" y1="104" y2="104"/>
<line x1="308" x2="380" y1="152" y2="152"/>
<line x1="380" x2="380" y1="104" y2="120"/>
<line x1="380" x2="380" y1="120" y2="136"/>
<line x1="380" x2="384" y1="120" y2="120"/>
<line x1="380" x2="380" y1="136" y2="152"/>
<line marker-end="url(#triangle)" x1="380" x2="468" y1="136" y2="136"/>
<path d="M 384 120 A 8 8 0 0 0 390 116"/>
</g>
<g>
<line x1="390" x2="404" y1="60" y2="88"/>
<line x1="404" x2="390" y1="88" y2="116"/>
<line x1="404" x2="418" y1="88" y2="116"/>
<line x1="418" x2="404" y1="60" y2="88"/>
<path d="M 418 116 A 8 8 0 0 0 424 120"/>
<path d="M 424 56 A 8 8 0 0 0 418 60"/>
</g>
<g>
<line marker-end="url(#triangle)" x1="424" x2="468" y1="56" y2="56"/>
</g>
<g>
<line marker-end="url(#triangle)" x1="424" x2="468" y1="120" y2="120"/>
</g>
<g>
<line x1="476" x2="476" y1="24" y2="72"/>
<line x1="476" x2="556" y1="24" y2="24"/>
<line x1="476" x2="556" y1="72" y2="72"/>
<line x1="556" x2="556" y1="24" y2="40"/>
<line x1="556" x2="556" y1="40" y2="56"/>
<line marker-end="url(#triangle)" x1="556" x2="652" y1="40" y2="40"/>
<line x1="556" x2="556" y1="56" y2="72"/>
<line x1="556" x2="560" y1="56" y2="56"/>
<path d="M 566 60 A 8 8 0 0 0 560 56"/>
</g>
<g>
<line x1="476" x2="476" y1="104" y2="152"/>
<line x1="476" x2="556" y1="104" y2="104"/>
<line x1="476" x2="556" y1="152" y2="152"/>
<line x1="556" x2="556" y1="104" y2="120"/>
<line x1="556" x2="556" y1="120" y2="136"/>
<line x1="556" x2="560" y1="120" y2="120"/>
<line x1="556" x2="556" y1="136" y2="152"/>
<line marker-end="url(#triangle)" x1="556" x2="652" y1="136" y2="136"/>
<path d="M 560 120 A 8 8 0 0 0 566 116"/>
</g>
<g>
<line x1="566" x2="580" y1="60" y2="88"/>
<line x1="580" x2="566" y1="88" y2="116"/>
<line x1="580" x2="594" y1="88" y2="116"/>
<line x1="594" x2="580" y1="60" y2="88"/>
<path d="M 594 116 A 8 8 0 0 0 600 120"/>
<path d="M 600 56 A 8 8 0 0 0 594 60"/>
</g>
<g>
<line marker-end="url(#triangle)" x1="600" x2="652" y1="56" y2="56"/>
</g>
<g>
<line marker-end="url(#triangle)" x1="600" x2="652" y1="120" y2="120"/>
</g>
<g>
<line x1="660" x2="660" y1="24" y2="72"/>
<line x1="660" x2="732" y1="24" y2="24"/>
<line x1="660" x2="732" y1="72" y2="72"/>
<line x1="732" x2="732" y1="24" y2="40"/>
<line x1="732" x2="732" y1="40" y2="56"/>
<line marker-end="url(#triangle)" x1="732" x2="820" y1="40" y2="40"/>
<line x1="732" x2="732" y1="56" y2="72"/>
<line x1="732" x2="736" y1="56" y2="56"/>
<path d="M 742 60 A 8 8 0 0 0 736 56"/>
</g>
<g>
<line x1="660" x2="660" y1="104" y2="152"/>
<line x1="660" x2="732" y1="104" y2="104"/>
<line x1="660" x2="732" y1="152" y2="152"/>
<line x1="732" x2="732" y1="104" y2="120"/>
<line x1="732" x2="732" y1="120" y2="136"/>
<line x1="732" x2="736" y1="120" y2="120"/>
<line x1="732" x2="732" y1="136" y2="152"/>
<line marker-end="url(#triangle)" x1="732" x2="820" y1="136" y2="136"/>
<path d="M 736 120 A 8 8 0 0 0 742 116"/>
</g>
<g>
<line x1="742" x2="756" y1="60" y2="88"/>
<line x1="756" x2="742" y1="88" y2="116"/>
<line x1="756" x2="770" y1="88" y2="116"/>
<line x1="770" x2="756" y1="60" y2="88"/>
<path d="M 770 116 A 8 8 0 0 0 776 120"/>
<path d="M 776 56 A 8 8 0 0 0 770 60"/>
</g>
<g>
<line marker-end="url(#triangle)" x1="776" x2="820" y1="56" y2="56"/>
</g>
<g>
<line marker-end="url(#triangle)" x1="776" x2="820" y1="120" y2="120"/>
</g>
<g>
<line x1="828" x2="828" y1="24" y2="72"/>
<line x1="828" x2="900" y1="24" y2="24"/>
<line x1="828" x2="900" y1="72" y2="72"/>
<line x1="900" x2="900" y1="24" y2="56"/>
<line x1="900" x2="900" y1="56" y2="72"/>
<line x1="900" x2="944" y1="56" y2="56"/>
<path d="M 948 60 A 4 4 0 0 0 944 56"/>
</g>
<g>
<line x1="828" x2="828" y1="104" y2="152"/>
<line x1="828" x2="900" y1="104" y2="104"/>
<line x1="828" x2="900" y1="152" y2="152"/>
<line x1="900" x2="900" y1="104" y2="120"/>
<line x1="900" x2="900" y1="120" y2="152"/>
<line x1="900" x2="944" y1="120" y2="120"/>
<path d="M 944 120 A 4 4 0 0 0 948 116"/>
</g>
<g>
<line x1="948" x2="948" y1="60" y2="88"/>
<line x1="948" x2="948" y1="88" y2="116"/>
<line marker-end="url(#triangle)" x1="948" x2="964" y1="88" y2="88"/>
</g>
<g>
<line x1="972" x2="972" y1="72" y2="104"/>
<line x1="972" x2="1028" y1="72" y2="72"/>
<line x1="972" x2="1028" y1="104" y2="104"/>
<line x1="1028" x2="1028" y1="72" y2="104"/>
</g>
<g>
<text x="17" y="92">
SOURCE
</text>
</g>
<g>
<text x="89" y="44">
0.075
</text>
</g>
<g>
<text x="89" y="140">
0.2
</text>
</g>
<g>
<text x="153" y="44">
hitter
</text>
</g>
<g>
<text x="153" y="60">
bat
</text>
</g>
<g>
<text x="153" y="124">
fouler
</text>
</g>
<g>
<text x="153" y="140">
bat
</text>
</g>
<g>
<text x="161" y="12">
foul
</text>
</g>
<g>
<text x="257" y="28">
0.675
</text>
</g>
<g>
<text x="257" y="76">
0.075
</text>
</g>
<g>
<text x="257" y="108">
0.05
</text>
</g>
<g>
<text x="257" y="156">
0.45
</text>
</g>
<g>
<text x="321" y="44">
hitter
</text>
</g>
<g>
<text x="321" y="60">
bat
</text>
</g>
<g>
<text x="321" y="124">
fouler
</text>
</g>
<g>
<text x="321" y="140">
bat
</text>
</g>
<g>
<text x="329" y="12">
hit
</text>
</g>
<g>
<text x="425" y="28">
0.09
</text>
</g>
<g>
<text x="425" y="76">
0.01
</text>
</g>
<g>
<text x="425" y="108">
0.01
</text>
</g>
<g>
<text x="425" y="156">
0.09
</text>
</g>
<g>
<text x="489" y="44">
hitter
</text>
</g>
<g>
<text x="489" y="60">
bat
</text>
</g>
<g>
<text x="489" y="124">
fouler
</text>
</g>
<g>
<text x="489" y="140">
bat
</text>
</g>
<g>
<text x="497" y="12">
miss
</text>
</g>
<g>
<text x="609" y="28">
0.675
</text>
</g>
<g>
<text x="609" y="76">
0.075
</text>
</g>
<g>
<text x="609" y="108">
0.05
</text>
</g>
<g>
<text x="609" y="156">
0.45
</text>
</g>
<g>
<text x="673" y="44">
hitter
</text>
</g>
<g>
<text x="673" y="60">
bat
</text>
</g>
<g>
<text x="673" y="124">
fouler
</text>
</g>
<g>
<text x="673" y="140">
bat
</text>
</g>
<g>
<text x="681" y="12">
hit
</text>
</g>
<g>
<text x="777" y="28">
0.675
</text>
</g>
<g>
<text x="777" y="76">
0.075
</text>
</g>
<g>
<text x="777" y="108">
0.05
</text>
</g>
<g>
<text x="777" y="156">
0.45
</text>
</g>
<g>
<text x="841" y="44">
hitter
</text>
</g>
<g>
<text x="841" y="60">
bat
</text>
</g>
<g>
<text x="841" y="124">
fouler
</text>
</g>
<g>
<text x="841" y="140">
bat
</text>
</g>
<g>
<text x="857" y="12">
hit
</text>
</g>
<g>
<text x="913" y="44">
1.0
</text>
</g>
<g>
<text x="913" y="140">
1.0
</text>
</g>
<g>
<text x="985" y="92">
SINK
</text>
</g>
</svg>
