<svg class="bob" font-family="arial" font-size="14" height="224" width="464" xmlns="http://www.w3.org/2000/svg">
<defs>
<marker id="triangle" markerHeight="8" markerWidth="8" orient="auto" refX="4" refY="2" viewBox="0 0 8 4">
<polygon class="fg_fill" points="0,0 0,4 8,2 0,0"/>
</marker>
<marker id="clear_triangle" markerHeight="10" markerWidth="10" orient="auto" refX="1" refY="7" viewBox="0 0 20 14">
<polygon class="bg_fill" points="2,2 2,12 18,7 2,2"/>
</marker>
<marker id="circle" markerHeight="5" markerWidth="5" orient="auto" refX="10" refY="10" viewBox="0 0 20 20">
<circle class="fg_fill" cx="10" cy="10" r="8"/>
</marker>
<marker id="square" markerHeight="5" markerWidth="5" orient="auto" refX="10" refY="10" viewBox="0 0 20 20">
<rect class="fg_fill" height="20" width="20" x="0" y="0"/>
</marker>
<marker id="open_circle" markerHeight="10" markerWidth="10" orient="auto" refX="10" refY="10" viewBox="0 0 20 20">
<circle class="bg_fill" cx="10" cy="10" r="4"/>
</marker>
<marker id="big_open_circle" markerHeight="20" markerWidth="20" orient="auto" refX="20" refY="20" viewBox="0 0 40 40">
<circle class="bg_fill" cx="20" cy="20" r="6"/>
</marker>
</defs>
<style type="text/css">

rect.backdrop {
    fill: white;
}
text{
    fill: black;
}

circle {
    fill: none;
    stroke: black;
    stroke-width: 2;
}

line {
    stroke: black;
    stroke-width: 2;
    stroke-opacity: 1;
    fill-opacity: 1;
    stroke-linecap: round;
    stroke-linejoin: miter;
}

path {
    fill: none;
    stroke: black;
    stroke-width: 2;
    stroke-opacity: 1;
    fill-opacity: 1;
    stroke-linecap: round;
    stroke-linejoin: miter;
}

line.dashed {
    stroke-dasharray: 5;
}

.fg_fill {
    fill: black;
}


.bg_fill {
    fill: white;
    stroke: black;
    stroke-width: 2;
}

tspan.head{
    fill: none;
    stroke: none;
}
    
</style>
<rect class="backdrop" height="224" width="464" x="0" y="0"/>
<g>
<path d="M 8 64 A 16 16 0 0 0 8 80"/>
<path d="M 8 80 A 16 16 0 0 0 8 96"/>
</g>
<g>
<path d="M 8 128 A 16 16 0 0 0 8 144"/>
</g>
<g>
<path d="M 48 80 A 16 16 0 0 0 48 64"/>
<path d="M 48 96 A 16 16 0 0 0 48 80"/>
</g>
<g>
<path d="M 48 144 A 16 16 0 0 0 48 128"/>
</g>
<g>
<path d="M 96 64 A 16 16 0 0 0 96 80"/>
</g>
<g>
<path d="M 96 112 A 16 16 0 0 0 96 128"/>
</g>
<g>
<path d="M 96 144 A 16 16 0 0 0 96 160"/>
<path d="M 96 160 A 16 16 0 0 0 96 176"/>
</g>
<g>
<path d="M 96 208 A 16 16 0 0 0 96 224"/>
</g>
<g>
<path d="M 120 80 A 16 16 0 0 0 120 64"/>
</g>
<g>
<path d="M 120 128 A 16 16 0 0 0 120 112"/>
</g>
<g>
<path d="M 120 160 A 16 16 0 0 0 120 144"/>
<path d="M 120 176 A 16 16 0 0 0 120 160"/>
</g>
<g>
<path d="M 120 224 A 16 16 0 0 0 120 208"/>
</g>
<g>
<path d="M 168 176 A 16 16 0 0 0 168 192"/>
<path d="M 168 192 A 16 16 0 0 0 168 208"/>
<path d="M 168 208 A 16 16 0 0 0 168 224"/>
</g>
<g>
<path d="M 208 192 A 16 16 0 0 0 208 176"/>
<path d="M 208 208 A 16 16 0 0 0 208 192"/>
<path d="M 208 224 A 16 16 0 0 0 208 208"/>
</g>
<g>
<text x="1" y="12">
*
</text>
</g>
<g>
<text x="17" y="12">
ACGTT separated into 3 seeds. It&#39;s impossible for 2
</text>
</g>
<g>
<text x="17" y="28">
mismatches to be spread across 3 seeds. Dots represent
</text>
</g>
<g>
<text x="17" y="44">
mismatches. Exact matching seeds wrapped in brackets.
</text>
</g>
<g>
<text x="17" y="76">
A
</text>
</g>
<g>
<text x="17" y="92">
A
</text>
</g>
<g>
<text x="17" y="108">
A
</text>
</g>
<g>
<text x="17" y="124">
●
</text>
</g>
<g>
<text x="17" y="140">
A
</text>
</g>
<g>
<text x="17" y="156">
A
</text>
</g>
<g>
<text x="17" y="172">
●
</text>
</g>
<g>
<text x="17" y="188">
A
</text>
</g>
<g>
<text x="17" y="204">
●
</text>
</g>
<g>
<text x="17" y="220">
●
</text>
</g>
<g>
<text x="33" y="76">
C
</text>
</g>
<g>
<text x="33" y="92">
C
</text>
</g>
<g>
<text x="33" y="108">
●
</text>
</g>
<g>
<text x="33" y="124">
C
</text>
</g>
<g>
<text x="33" y="140">
C
</text>
</g>
<g>
<text x="33" y="156">
●
</text>
</g>
<g>
<text x="33" y="172">
C
</text>
</g>
<g>
<text x="33" y="188">
●
</text>
</g>
<g>
<text x="33" y="204">
C
</text>
</g>
<g>
<text x="33" y="220">
●
</text>
</g>
<g>
<text x="105" y="76">
G
</text>
</g>
<g>
<text x="105" y="92">
●
</text>
</g>
<g>
<text x="105" y="108">
G
</text>
</g>
<g>
<text x="105" y="124">
G
</text>
</g>
<g>
<text x="105" y="140">
●
</text>
</g>
<g>
<text x="105" y="156">
G
</text>
</g>
<g>
<text x="105" y="172">
G
</text>
</g>
<g>
<text x="105" y="188">
●
</text>
</g>
<g>
<text x="105" y="204">
●
</text>
</g>
<g>
<text x="105" y="220">
G
</text>
</g>
<g>
<text x="177" y="76">
●
</text>
</g>
<g>
<text x="177" y="92">
T
</text>
</g>
<g>
<text x="177" y="108">
T
</text>
</g>
<g>
<text x="177" y="124">
T
</text>
</g>
<g>
<text x="177" y="140">
●
</text>
</g>
<g>
<text x="177" y="156">
●
</text>
</g>
<g>
<text x="177" y="172">
●
</text>
</g>
<g>
<text x="177" y="188">
T
</text>
</g>
<g>
<text x="177" y="204">
T
</text>
</g>
<g>
<text x="177" y="220">
T
</text>
</g>
<g>
<text x="193" y="76">
●
</text>
</g>
<g>
<text x="193" y="92">
●
</text>
</g>
<g>
<text x="193" y="108">
●
</text>
</g>
<g>
<text x="193" y="124">
●
</text>
</g>
<g>
<text x="193" y="140">
T
</text>
</g>
<g>
<text x="193" y="156">
T
</text>
</g>
<g>
<text x="193" y="172">
T
</text>
</g>
<g>
<text x="193" y="188">
T
</text>
</g>
<g>
<text x="193" y="204">
T
</text>
</g>
<g>
<text x="193" y="220">
T
</text>
</g>
</svg>
