<svg class="bob" font-family="arial" font-size="14" height="336" width="616" xmlns="http://www.w3.org/2000/svg">
<defs>
<marker id="triangle" markerHeight="8" markerWidth="8" orient="auto" refX="4" refY="2" viewBox="0 0 8 4">
<polygon class="fg_fill" points="0,0 0,4 8,2 0,0"/>
</marker>
<marker id="clear_triangle" markerHeight="10" markerWidth="10" orient="auto" refX="1" refY="7" viewBox="0 0 20 14">
<polygon class="bg_fill" points="2,2 2,12 18,7 2,2"/>
</marker>
<marker id="circle" markerHeight="5" markerWidth="5" orient="auto" refX="10" refY="10" viewBox="0 0 20 20">
<circle class="fg_fill" cx="10" cy="10" r="8"/>
</marker>
<marker id="square" markerHeight="5" markerWidth="5" orient="auto" refX="10" refY="10" viewBox="0 0 20 20">
<rect class="fg_fill" height="20" width="20" x="0" y="0"/>
</marker>
<marker id="open_circle" markerHeight="10" markerWidth="10" orient="auto" refX="10" refY="10" viewBox="0 0 20 20">
<circle class="bg_fill" cx="10" cy="10" r="4"/>
</marker>
<marker id="big_open_circle" markerHeight="20" markerWidth="20" orient="auto" refX="20" refY="20" viewBox="0 0 40 40">
<circle class="bg_fill" cx="20" cy="20" r="6"/>
</marker>
</defs>
<style type="text/css">

rect.backdrop {
    fill: white;
}
text{
    fill: black;
}

circle {
    fill: none;
    stroke: black;
    stroke-width: 2;
}

line {
    stroke: black;
    stroke-width: 2;
    stroke-opacity: 1;
    fill-opacity: 1;
    stroke-linecap: round;
    stroke-linejoin: miter;
}

path {
    fill: none;
    stroke: black;
    stroke-width: 2;
    stroke-opacity: 1;
    fill-opacity: 1;
    stroke-linecap: round;
    stroke-linejoin: miter;
}

line.dashed {
    stroke-dasharray: 5;
}

.fg_fill {
    fill: black;
}


.bg_fill {
    fill: white;
    stroke: black;
    stroke-width: 2;
}

tspan.head{
    fill: none;
    stroke: none;
}
    
</style>
<rect class="backdrop" height="336" width="616" x="0" y="0"/>
<g>
<line x1="4" x2="4" y1="12" y2="100"/>
<path d="M 4 100 A 4 4 0 0 0 8 104"/>
<path d="M 8 8 A 4 4 0 0 0 4 12"/>
</g>
<g>
<line x1="8" x2="160" y1="8" y2="8"/>
<path d="M 164 12 A 4 4 0 0 0 160 8"/>
</g>
<g>
<line x1="8" x2="160" y1="104" y2="104"/>
<path d="M 160 104 A 4 4 0 0 0 164 100"/>
</g>
<g>
<line x1="164" x2="164" y1="12" y2="100"/>
</g>
<g>
<line x1="228" x2="228" y1="12" y2="324"/>
<path d="M 228 324 A 4 4 0 0 0 232 328"/>
<path d="M 232 8 A 4 4 0 0 0 228 12"/>
</g>
<g>
<line x1="232" x2="384" y1="8" y2="8"/>
<path d="M 388 12 A 4 4 0 0 0 384 8"/>
</g>
<g>
<line x1="232" x2="384" y1="328" y2="328"/>
<path d="M 384 328 A 4 4 0 0 0 388 324"/>
</g>
<g>
<line x1="388" x2="388" y1="12" y2="324"/>
</g>
<g>
<line x1="452" x2="452" y1="12" y2="324"/>
<path d="M 452 324 A 4 4 0 0 0 456 328"/>
<path d="M 456 8 A 4 4 0 0 0 452 12"/>
</g>
<g>
<line x1="456" x2="608" y1="8" y2="8"/>
<path d="M 612 12 A 4 4 0 0 0 608 8"/>
</g>
<g>
<line x1="456" x2="608" y1="328" y2="328"/>
<path d="M 608 328 A 4 4 0 0 0 612 324"/>
</g>
<g>
<line x1="612" x2="612" y1="12" y2="324"/>
</g>
<g>
<text x="41" y="28">
no outlier
</text>
</g>
<g>
<text x="49" y="92">
J
</text>
</g>
<g>
<text x="73" y="60">
K
</text>
</g>
<g>
<text x="73" y="92">
●
</text>
</g>
<g>
<text x="97" y="92">
L
</text>
</g>
<g>
<text x="257" y="28">
k-means w/ Z
</text>
</g>
<g>
<text x="281" y="92">
J
</text>
</g>
<g>
<text x="305" y="60">
K
</text>
</g>
<g>
<text x="305" y="124">
●
</text>
</g>
<g>
<text x="305" y="316">
Z
</text>
</g>
<g>
<text x="329" y="92">
L
</text>
</g>
<g>
<text x="473" y="28">
k-centers w/ Z
</text>
</g>
<g>
<text x="513" y="92">
J
</text>
</g>
<g>
<text x="537" y="60">
K
</text>
</g>
<g>
<text x="537" y="188">
●
</text>
</g>
<g>
<text x="537" y="316">
Z
</text>
</g>
<g>
<text x="561" y="92">
L
</text>
</g>
</svg>
