<svg class="bob" font-family="arial" font-size="14" height="288" width="192" xmlns="http://www.w3.org/2000/svg">
<defs>
<marker id="triangle" markerHeight="8" markerWidth="8" orient="auto" refX="4" refY="2" viewBox="0 0 8 4">
<polygon class="fg_fill" points="0,0 0,4 8,2 0,0"/>
</marker>
<marker id="clear_triangle" markerHeight="10" markerWidth="10" orient="auto" refX="1" refY="7" viewBox="0 0 20 14">
<polygon class="bg_fill" points="2,2 2,12 18,7 2,2"/>
</marker>
<marker id="circle" markerHeight="5" markerWidth="5" orient="auto" refX="10" refY="10" viewBox="0 0 20 20">
<circle class="fg_fill" cx="10" cy="10" r="8"/>
</marker>
<marker id="square" markerHeight="5" markerWidth="5" orient="auto" refX="10" refY="10" viewBox="0 0 20 20">
<rect class="fg_fill" height="20" width="20" x="0" y="0"/>
</marker>
<marker id="open_circle" markerHeight="10" markerWidth="10" orient="auto" refX="10" refY="10" viewBox="0 0 20 20">
<circle class="bg_fill" cx="10" cy="10" r="4"/>
</marker>
<marker id="big_open_circle" markerHeight="20" markerWidth="20" orient="auto" refX="20" refY="20" viewBox="0 0 40 40">
<circle class="bg_fill" cx="20" cy="20" r="6"/>
</marker>
</defs>
<style type="text/css">

rect.backdrop {
    fill: white;
}
text{
    fill: black;
}

circle {
    fill: none;
    stroke: black;
    stroke-width: 2;
}

line {
    stroke: black;
    stroke-width: 2;
    stroke-opacity: 1;
    fill-opacity: 1;
    stroke-linecap: round;
    stroke-linejoin: miter;
}

path {
    fill: none;
    stroke: black;
    stroke-width: 2;
    stroke-opacity: 1;
    fill-opacity: 1;
    stroke-linecap: round;
    stroke-linejoin: miter;
}

line.dashed {
    stroke-dasharray: 5;
}

.fg_fill {
    fill: black;
}


.bg_fill {
    fill: white;
    stroke: black;
    stroke-width: 2;
}

tspan.head{
    fill: none;
    stroke: none;
}
    
</style>
<rect class="backdrop" height="288" width="192" x="0" y="0"/>
<g>
<line marker-end="url(#circle)" marker-start="url(#circle)" x1="20" x2="4" y1="8" y2="40"/>
<line marker-end="url(#circle)" marker-start="url(#circle)" x1="20" x2="20" y1="8" y2="40"/>
<line marker-end="url(#circle)" marker-start="url(#circle)" x1="20" x2="44" y1="8" y2="56"/>
<line marker-end="url(#circle)" marker-start="url(#circle)" x1="44" x2="28" y1="56" y2="88"/>
<line marker-end="url(#circle)" marker-start="url(#circle)" x1="44" x2="68" y1="56" y2="104"/>
<line marker-end="url(#circle)" marker-start="url(#circle)" x1="68" x2="52" y1="104" y2="136"/>
<line marker-end="url(#circle)" marker-start="url(#circle)" x1="68" x2="68" y1="104" y2="136"/>
<line marker-end="url(#circle)" marker-start="url(#circle)" x1="68" x2="92" y1="104" y2="152"/>
<line marker-end="url(#circle)" marker-start="url(#circle)" x1="92" x2="76" y1="152" y2="184"/>
<line marker-end="url(#circle)" marker-start="url(#circle)" x1="92" x2="108" y1="152" y2="184"/>
</g>
<g>
<text x="1" y="60">
A
</text>
</g>
<g>
<text x="1" y="236">
*
</text>
</g>
<g>
<text x="17" y="60">
B
</text>
</g>
<g>
<text x="17" y="236">
D is the root, and
</text>
</g>
<g>
<text x="17" y="252">
as such is placed on
</text>
</g>
<g>
<text x="17" y="268">
top while everything
</text>
</g>
<g>
<text x="17" y="284">
else flows downward
</text>
</g>
<g>
<text x="25" y="108">
I
</text>
</g>
<g>
<text x="33" y="12">
D
</text>
</g>
<g>
<text x="49" y="156">
J
</text>
</g>
<g>
<text x="57" y="60">
G
</text>
</g>
<g>
<text x="65" y="156">
K
</text>
</g>
<g>
<text x="73" y="204">
C
</text>
</g>
<g>
<text x="81" y="108">
H
</text>
</g>
<g>
<text x="105" y="156">
E
</text>
</g>
<g>
<text x="105" y="204">
F
</text>
</g>
</svg>
