<svg class="bob" font-family="arial" font-size="14" height="768" width="280" xmlns="http://www.w3.org/2000/svg">
<defs>
<marker id="triangle" markerHeight="8" markerWidth="8" orient="auto" refX="4" refY="2" viewBox="0 0 8 4">
<polygon class="fg_fill" points="0,0 0,4 8,2 0,0"/>
</marker>
<marker id="clear_triangle" markerHeight="10" markerWidth="10" orient="auto" refX="1" refY="7" viewBox="0 0 20 14">
<polygon class="bg_fill" points="2,2 2,12 18,7 2,2"/>
</marker>
<marker id="circle" markerHeight="5" markerWidth="5" orient="auto" refX="10" refY="10" viewBox="0 0 20 20">
<circle class="fg_fill" cx="10" cy="10" r="8"/>
</marker>
<marker id="square" markerHeight="5" markerWidth="5" orient="auto" refX="10" refY="10" viewBox="0 0 20 20">
<rect class="fg_fill" height="20" width="20" x="0" y="0"/>
</marker>
<marker id="open_circle" markerHeight="10" markerWidth="10" orient="auto" refX="10" refY="10" viewBox="0 0 20 20">
<circle class="bg_fill" cx="10" cy="10" r="4"/>
</marker>
<marker id="big_open_circle" markerHeight="20" markerWidth="20" orient="auto" refX="20" refY="20" viewBox="0 0 40 40">
<circle class="bg_fill" cx="20" cy="20" r="6"/>
</marker>
</defs>
<style type="text/css">

rect.backdrop {
    fill: white;
}
text{
    fill: black;
}

circle {
    fill: none;
    stroke: black;
    stroke-width: 2;
}

line {
    stroke: black;
    stroke-width: 2;
    stroke-opacity: 1;
    fill-opacity: 1;
    stroke-linecap: round;
    stroke-linejoin: miter;
}

path {
    fill: none;
    stroke: black;
    stroke-width: 2;
    stroke-opacity: 1;
    fill-opacity: 1;
    stroke-linecap: round;
    stroke-linejoin: miter;
}

line.dashed {
    stroke-dasharray: 5;
}

.fg_fill {
    fill: black;
}


.bg_fill {
    fill: white;
    stroke: black;
    stroke-width: 2;
}

tspan.head{
    fill: none;
    stroke: none;
}
    
</style>
<rect class="backdrop" height="768" width="280" x="0" y="0"/>
<g>
<line marker-end="url(#triangle)" x1="52" x2="52" y1="576" y2="588"/>
<line class="dashed" x1="52" x2="52" y1="496" y2="576"/>
<line marker-start="url(#open_circle)" x1="52" x2="52" y1="488" y2="496"/>
<line marker-end="url(#triangle)" marker-start="url(#open_circle)" x1="52" x2="76" y1="488" y2="488"/>
</g>
<g>
<line marker-end="url(#triangle)" x1="84" x2="84" y1="576" y2="588"/>
<line class="dashed" x1="84" x2="84" y1="496" y2="576"/>
<line marker-start="url(#open_circle)" x1="84" x2="84" y1="488" y2="496"/>
<line marker-end="url(#triangle)" marker-start="url(#open_circle)" x1="84" x2="108" y1="488" y2="488"/>
</g>
<g>
<line marker-end="url(#triangle)" x1="116" x2="116" y1="576" y2="588"/>
<line class="dashed" x1="116" x2="116" y1="496" y2="576"/>
<line marker-start="url(#open_circle)" x1="116" x2="116" y1="488" y2="496"/>
<line marker-end="url(#triangle)" marker-start="url(#open_circle)" x1="116" x2="140" y1="488" y2="488"/>
</g>
<g>
<line marker-end="url(#triangle)" x1="148" x2="148" y1="576" y2="588"/>
<line class="dashed" x1="148" x2="148" y1="496" y2="576"/>
<line marker-start="url(#open_circle)" x1="148" x2="148" y1="488" y2="496"/>
<line marker-end="url(#triangle)" marker-start="url(#open_circle)" x1="148" x2="172" y1="488" y2="488"/>
</g>
<g>
<line marker-end="url(#triangle)" x1="180" x2="180" y1="576" y2="588"/>
<line class="dashed" x1="180" x2="180" y1="496" y2="576"/>
<line marker-start="url(#open_circle)" x1="180" x2="180" y1="488" y2="496"/>
<line marker-start="url(#open_circle)" x1="180" x2="184" y1="488" y2="488"/>
</g>
<g>
<line marker-end="url(#triangle)" x1="244" x2="244" y1="576" y2="588"/>
<line class="dashed" x1="244" x2="244" y1="496" y2="576"/>
<line marker-start="url(#open_circle)" x1="244" x2="244" y1="488" y2="496"/>
<line marker-end="url(#triangle)" marker-start="url(#open_circle)" x1="244" x2="268" y1="488" y2="488"/>
</g>
<g>
<line marker-end="url(#triangle)" x1="276" x2="276" y1="576" y2="588"/>
<line class="dashed" x1="276" x2="276" y1="496" y2="576"/>
<line marker-start="url(#open_circle)" x1="276" x2="276" y1="488" y2="496"/>
</g>
<g>
<line class="dashed" x1="184" x2="240" y1="88" y2="88"/>
<line marker-start="url(#open_circle)" x1="180" x2="184" y1="88" y2="88"/>
<line marker-start="url(#open_circle)" x1="244" x2="240" y1="88" y2="88"/>
<line marker-end="url(#triangle)" marker-start="url(#open_circle)" x1="244" x2="244" y1="88" y2="156"/>
<line marker-end="url(#triangle)" marker-start="url(#open_circle)" x1="244" x2="268" y1="88" y2="88"/>
</g>
<g>
<line class="dashed" x1="184" x2="240" y1="168" y2="168"/>
<line marker-start="url(#open_circle)" x1="180" x2="184" y1="168" y2="168"/>
<line marker-start="url(#open_circle)" x1="244" x2="240" y1="168" y2="168"/>
<line marker-end="url(#triangle)" marker-start="url(#open_circle)" x1="244" x2="244" y1="168" y2="236"/>
<line marker-end="url(#triangle)" marker-start="url(#open_circle)" x1="244" x2="268" y1="168" y2="168"/>
</g>
<g>
<line class="dashed" x1="184" x2="240" y1="248" y2="248"/>
<line marker-start="url(#open_circle)" x1="180" x2="184" y1="248" y2="248"/>
<line marker-start="url(#open_circle)" x1="244" x2="240" y1="248" y2="248"/>
<line marker-end="url(#triangle)" marker-start="url(#open_circle)" x1="244" x2="244" y1="248" y2="316"/>
<line marker-end="url(#triangle)" marker-start="url(#open_circle)" x1="244" x2="268" y1="248" y2="248"/>
</g>
<g>
<line class="dashed" x1="184" x2="240" y1="328" y2="328"/>
<line marker-start="url(#open_circle)" x1="180" x2="184" y1="328" y2="328"/>
<line marker-start="url(#open_circle)" x1="244" x2="240" y1="328" y2="328"/>
<line marker-end="url(#triangle)" marker-start="url(#open_circle)" x1="244" x2="244" y1="328" y2="396"/>
<line marker-end="url(#triangle)" marker-start="url(#open_circle)" x1="244" x2="268" y1="328" y2="328"/>
</g>
<g>
<line class="dashed" x1="184" x2="240" y1="408" y2="408"/>
<line marker-start="url(#open_circle)" x1="180" x2="184" y1="408" y2="408"/>
<line marker-start="url(#open_circle)" x1="244" x2="240" y1="408" y2="408"/>
<line marker-end="url(#triangle)" marker-start="url(#open_circle)" x1="244" x2="244" y1="408" y2="476"/>
<line marker-end="url(#triangle)" marker-start="url(#open_circle)" x1="244" x2="268" y1="408" y2="408"/>
</g>
<g>
<line class="dashed" x1="184" x2="240" y1="488" y2="488"/>
<line marker-start="url(#open_circle)" x1="244" x2="240" y1="488" y2="488"/>
</g>
<g>
<line class="dashed" x1="184" x2="240" y1="600" y2="600"/>
<line marker-start="url(#open_circle)" x1="180" x2="184" y1="600" y2="600"/>
<line marker-start="url(#open_circle)" x1="244" x2="240" y1="600" y2="600"/>
<line marker-end="url(#triangle)" marker-start="url(#open_circle)" x1="244" x2="244" y1="600" y2="668"/>
<line marker-end="url(#triangle)" marker-start="url(#open_circle)" x1="244" x2="268" y1="600" y2="600"/>
</g>
<g>
<line class="dashed" x1="184" x2="240" y1="680" y2="680"/>
<line marker-start="url(#open_circle)" x1="180" x2="184" y1="680" y2="680"/>
<line marker-start="url(#open_circle)" x1="244" x2="240" y1="680" y2="680"/>
<line marker-end="url(#triangle)" marker-start="url(#open_circle)" x1="244" x2="244" y1="680" y2="748"/>
<line marker-end="url(#triangle)" marker-start="url(#open_circle)" x1="244" x2="268" y1="680" y2="680"/>
</g>
<g>
<line class="dashed" x1="184" x2="240" y1="760" y2="760"/>
<line marker-start="url(#open_circle)" x1="180" x2="184" y1="760" y2="760"/>
<line marker-start="url(#open_circle)" x1="244" x2="240" y1="760" y2="760"/>
<line marker-end="url(#triangle)" marker-start="url(#open_circle)" x1="244" x2="268" y1="760" y2="760"/>
</g>
<g>
<text x="1" y="124">
59
</text>
</g>
<g>
<text x="1" y="204">
57
</text>
</g>
<g>
<text x="1" y="284">
55
</text>
</g>
<g>
<text x="1" y="364">
53
</text>
</g>
<g>
<text x="1" y="444">
51
</text>
</g>
<g>
<text x="1" y="636">
43
</text>
</g>
<g>
<text x="1" y="716">
42
</text>
</g>
<g>
<text x="25" y="124">
St
</text>
</g>
<g>
<text x="25" y="204">
St
</text>
</g>
<g>
<text x="25" y="284">
St
</text>
</g>
<g>
<text x="25" y="364">
St
</text>
</g>
<g>
<text x="25" y="444">
St
</text>
</g>
<g>
<text x="25" y="636">
St
</text>
</g>
<g>
<text x="25" y="716">
St
</text>
</g>
<g>
<text x="65" y="12">
8
</text>
</g>
<g>
<text x="65" y="44">
A
</text>
</g>
<g>
<text x="65" y="60">
v
</text>
</g>
<g>
<text x="65" y="76">
e
</text>
</g>
<g>
<text x="65" y="620">
T
</text>
</g>
<g>
<text x="97" y="12">
7
</text>
</g>
<g>
<text x="97" y="44">
A
</text>
</g>
<g>
<text x="97" y="60">
v
</text>
</g>
<g>
<text x="97" y="76">
e
</text>
</g>
<g>
<text x="97" y="188">
T
</text>
</g>
<g>
<text x="105" y="284">
T
</text>
</g>
<g>
<text x="129" y="12">
6
</text>
</g>
<g>
<text x="129" y="44">
A
</text>
</g>
<g>
<text x="129" y="60">
v
</text>
</g>
<g>
<text x="129" y="76">
e
</text>
</g>
<g>
<text x="129" y="668">
T
</text>
</g>
<g>
<text x="161" y="12">
5
</text>
</g>
<g>
<text x="161" y="44">
A
</text>
</g>
<g>
<text x="161" y="60">
v
</text>
</g>
<g>
<text x="161" y="76">
e
</text>
</g>
<g>
<text x="161" y="188">
T
</text>
</g>
<g>
<text x="161" y="428">
T
</text>
</g>
<g>
<text x="257" y="12">
3
</text>
</g>
<g>
<text x="257" y="44">
A
</text>
</g>
<g>
<text x="257" y="60">
v
</text>
</g>
<g>
<text x="257" y="76">
e
</text>
</g>
<g>
<line marker-end="url(#triangle)" marker-start="url(#open_circle)" x1="52" x2="52" y1="88" y2="156"/>
<line marker-end="url(#triangle)" marker-start="url(#open_circle)" x1="52" x2="76" y1="88" y2="88"/>
</g>
<g>
<line marker-end="url(#triangle)" marker-start="url(#open_circle)" x1="52" x2="52" y1="168" y2="236"/>
<line marker-end="url(#triangle)" marker-start="url(#open_circle)" x1="52" x2="76" y1="168" y2="168"/>
</g>
<g>
<line marker-end="url(#triangle)" marker-start="url(#open_circle)" x1="52" x2="52" y1="248" y2="316"/>
<line marker-end="url(#triangle)" marker-start="url(#open_circle)" x1="52" x2="76" y1="248" y2="248"/>
</g>
<g>
<line marker-end="url(#triangle)" marker-start="url(#open_circle)" x1="52" x2="52" y1="328" y2="396"/>
<line marker-end="url(#triangle)" marker-start="url(#open_circle)" x1="52" x2="76" y1="328" y2="328"/>
</g>
<g>
<line marker-end="url(#triangle)" marker-start="url(#open_circle)" x1="52" x2="52" y1="408" y2="476"/>
<line marker-end="url(#triangle)" marker-start="url(#open_circle)" x1="52" x2="76" y1="408" y2="408"/>
</g>
<g>
<line marker-end="url(#triangle)" marker-start="url(#open_circle)" x1="52" x2="52" y1="600" y2="668"/>
<line marker-end="url(#triangle)" marker-start="url(#open_circle)" x1="52" x2="76" y1="600" y2="600"/>
</g>
<g>
<line marker-end="url(#triangle)" marker-start="url(#open_circle)" x1="52" x2="52" y1="680" y2="748"/>
<line marker-end="url(#triangle)" marker-start="url(#open_circle)" x1="52" x2="76" y1="680" y2="680"/>
</g>
<g>
<line marker-end="url(#triangle)" marker-start="url(#open_circle)" x1="52" x2="76" y1="760" y2="760"/>
</g>
<g>
<line marker-start="url(#open_circle)" x1="84" x2="80" y1="88" y2="88"/>
<line marker-end="url(#triangle)" marker-start="url(#open_circle)" x1="84" x2="84" y1="88" y2="156"/>
<line marker-end="url(#triangle)" marker-start="url(#open_circle)" x1="84" x2="108" y1="88" y2="88"/>
</g>
<g>
<line marker-start="url(#open_circle)" x1="84" x2="80" y1="168" y2="168"/>
<line marker-end="url(#triangle)" marker-start="url(#open_circle)" x1="84" x2="84" y1="168" y2="236"/>
<line marker-end="url(#triangle)" marker-start="url(#open_circle)" x1="84" x2="108" y1="168" y2="168"/>
</g>
<g>
<line marker-start="url(#open_circle)" x1="84" x2="80" y1="248" y2="248"/>
<line marker-end="url(#triangle)" marker-start="url(#open_circle)" x1="84" x2="84" y1="248" y2="316"/>
<line marker-end="url(#triangle)" marker-start="url(#open_circle)" x1="84" x2="108" y1="248" y2="248"/>
</g>
<g>
<line marker-start="url(#open_circle)" x1="84" x2="80" y1="328" y2="328"/>
<line marker-end="url(#triangle)" marker-start="url(#open_circle)" x1="84" x2="84" y1="328" y2="396"/>
<line marker-end="url(#triangle)" marker-start="url(#open_circle)" x1="84" x2="108" y1="328" y2="328"/>
</g>
<g>
<line marker-start="url(#open_circle)" x1="84" x2="80" y1="408" y2="408"/>
<line marker-end="url(#triangle)" marker-start="url(#open_circle)" x1="84" x2="84" y1="408" y2="476"/>
<line marker-end="url(#triangle)" marker-start="url(#open_circle)" x1="84" x2="108" y1="408" y2="408"/>
</g>
<g>
<line marker-start="url(#open_circle)" x1="84" x2="80" y1="488" y2="488"/>
</g>
<g>
<line marker-start="url(#open_circle)" x1="84" x2="80" y1="600" y2="600"/>
<line marker-end="url(#triangle)" marker-start="url(#open_circle)" x1="84" x2="84" y1="600" y2="668"/>
<line marker-end="url(#triangle)" marker-start="url(#open_circle)" x1="84" x2="108" y1="600" y2="600"/>
</g>
<g>
<line marker-start="url(#open_circle)" x1="84" x2="80" y1="680" y2="680"/>
<line marker-end="url(#triangle)" marker-start="url(#open_circle)" x1="84" x2="84" y1="680" y2="748"/>
<line marker-end="url(#triangle)" marker-start="url(#open_circle)" x1="84" x2="108" y1="680" y2="680"/>
</g>
<g>
<line marker-start="url(#open_circle)" x1="84" x2="80" y1="760" y2="760"/>
<line marker-end="url(#triangle)" marker-start="url(#open_circle)" x1="84" x2="108" y1="760" y2="760"/>
</g>
<g>
<line marker-start="url(#open_circle)" x1="116" x2="112" y1="88" y2="88"/>
<line marker-end="url(#triangle)" marker-start="url(#open_circle)" x1="116" x2="116" y1="88" y2="156"/>
<line marker-end="url(#triangle)" marker-start="url(#open_circle)" x1="116" x2="140" y1="88" y2="88"/>
</g>
<g>
<line marker-start="url(#open_circle)" x1="116" x2="112" y1="168" y2="168"/>
<line marker-end="url(#triangle)" marker-start="url(#open_circle)" x1="116" x2="116" y1="168" y2="236"/>
<line marker-end="url(#triangle)" marker-start="url(#open_circle)" x1="116" x2="140" y1="168" y2="168"/>
</g>
<g>
<line marker-start="url(#open_circle)" x1="116" x2="112" y1="248" y2="248"/>
<line marker-end="url(#triangle)" marker-start="url(#open_circle)" x1="116" x2="116" y1="248" y2="316"/>
<line marker-end="url(#triangle)" marker-start="url(#open_circle)" x1="116" x2="140" y1="248" y2="248"/>
</g>
<g>
<line marker-start="url(#open_circle)" x1="116" x2="112" y1="328" y2="328"/>
<line marker-end="url(#triangle)" marker-start="url(#open_circle)" x1="116" x2="116" y1="328" y2="396"/>
<line marker-end="url(#triangle)" marker-start="url(#open_circle)" x1="116" x2="140" y1="328" y2="328"/>
</g>
<g>
<line marker-start="url(#open_circle)" x1="116" x2="112" y1="408" y2="408"/>
<line marker-end="url(#triangle)" marker-start="url(#open_circle)" x1="116" x2="116" y1="408" y2="476"/>
<line marker-end="url(#triangle)" marker-start="url(#open_circle)" x1="116" x2="140" y1="408" y2="408"/>
</g>
<g>
<line marker-start="url(#open_circle)" x1="116" x2="112" y1="488" y2="488"/>
</g>
<g>
<line marker-start="url(#open_circle)" x1="116" x2="112" y1="600" y2="600"/>
<line marker-end="url(#triangle)" marker-start="url(#open_circle)" x1="116" x2="116" y1="600" y2="668"/>
<line marker-end="url(#triangle)" marker-start="url(#open_circle)" x1="116" x2="140" y1="600" y2="600"/>
</g>
<g>
<line marker-start="url(#open_circle)" x1="116" x2="112" y1="680" y2="680"/>
<line marker-end="url(#triangle)" marker-start="url(#open_circle)" x1="116" x2="116" y1="680" y2="748"/>
<line marker-end="url(#triangle)" marker-start="url(#open_circle)" x1="116" x2="140" y1="680" y2="680"/>
</g>
<g>
<line marker-start="url(#open_circle)" x1="116" x2="112" y1="760" y2="760"/>
<line marker-end="url(#triangle)" marker-start="url(#open_circle)" x1="116" x2="140" y1="760" y2="760"/>
</g>
<g>
<line marker-start="url(#open_circle)" x1="148" x2="144" y1="88" y2="88"/>
<line marker-end="url(#triangle)" marker-start="url(#open_circle)" x1="148" x2="148" y1="88" y2="156"/>
<line marker-end="url(#triangle)" marker-start="url(#open_circle)" x1="148" x2="172" y1="88" y2="88"/>
</g>
<g>
<line marker-start="url(#open_circle)" x1="148" x2="144" y1="168" y2="168"/>
<line marker-end="url(#triangle)" marker-start="url(#open_circle)" x1="148" x2="148" y1="168" y2="236"/>
<line marker-end="url(#triangle)" marker-start="url(#open_circle)" x1="148" x2="172" y1="168" y2="168"/>
</g>
<g>
<line marker-start="url(#open_circle)" x1="148" x2="144" y1="248" y2="248"/>
<line marker-end="url(#triangle)" marker-start="url(#open_circle)" x1="148" x2="148" y1="248" y2="316"/>
<line marker-end="url(#triangle)" marker-start="url(#open_circle)" x1="148" x2="172" y1="248" y2="248"/>
</g>
<g>
<line marker-start="url(#open_circle)" x1="148" x2="144" y1="328" y2="328"/>
<line marker-end="url(#triangle)" marker-start="url(#open_circle)" x1="148" x2="148" y1="328" y2="396"/>
<line marker-end="url(#triangle)" marker-start="url(#open_circle)" x1="148" x2="172" y1="328" y2="328"/>
</g>
<g>
<line marker-start="url(#open_circle)" x1="148" x2="144" y1="408" y2="408"/>
<line marker-end="url(#triangle)" marker-start="url(#open_circle)" x1="148" x2="148" y1="408" y2="476"/>
<line marker-end="url(#triangle)" marker-start="url(#open_circle)" x1="148" x2="172" y1="408" y2="408"/>
</g>
<g>
<line marker-start="url(#open_circle)" x1="148" x2="144" y1="488" y2="488"/>
</g>
<g>
<line marker-start="url(#open_circle)" x1="148" x2="144" y1="600" y2="600"/>
<line marker-end="url(#triangle)" marker-start="url(#open_circle)" x1="148" x2="148" y1="600" y2="668"/>
<line marker-end="url(#triangle)" marker-start="url(#open_circle)" x1="148" x2="172" y1="600" y2="600"/>
</g>
<g>
<line marker-start="url(#open_circle)" x1="148" x2="144" y1="680" y2="680"/>
<line marker-end="url(#triangle)" marker-start="url(#open_circle)" x1="148" x2="148" y1="680" y2="748"/>
<line marker-end="url(#triangle)" marker-start="url(#open_circle)" x1="148" x2="172" y1="680" y2="680"/>
</g>
<g>
<line marker-start="url(#open_circle)" x1="148" x2="144" y1="760" y2="760"/>
<line marker-end="url(#triangle)" marker-start="url(#open_circle)" x1="148" x2="172" y1="760" y2="760"/>
</g>
<g>
<line marker-start="url(#open_circle)" x1="180" x2="176" y1="88" y2="88"/>
<line marker-end="url(#triangle)" marker-start="url(#open_circle)" x1="180" x2="180" y1="88" y2="156"/>
</g>
<g>
<line marker-start="url(#open_circle)" x1="180" x2="176" y1="168" y2="168"/>
<line marker-end="url(#triangle)" marker-start="url(#open_circle)" x1="180" x2="180" y1="168" y2="236"/>
</g>
<g>
<line marker-start="url(#open_circle)" x1="180" x2="176" y1="248" y2="248"/>
<line marker-end="url(#triangle)" marker-start="url(#open_circle)" x1="180" x2="180" y1="248" y2="316"/>
</g>
<g>
<line marker-start="url(#open_circle)" x1="180" x2="176" y1="328" y2="328"/>
<line marker-end="url(#triangle)" marker-start="url(#open_circle)" x1="180" x2="180" y1="328" y2="396"/>
</g>
<g>
<line marker-start="url(#open_circle)" x1="180" x2="176" y1="408" y2="408"/>
<line marker-end="url(#triangle)" marker-start="url(#open_circle)" x1="180" x2="180" y1="408" y2="476"/>
</g>
<g>
<line marker-start="url(#open_circle)" x1="180" x2="176" y1="488" y2="488"/>
</g>
<g>
<line marker-start="url(#open_circle)" x1="180" x2="176" y1="600" y2="600"/>
<line marker-end="url(#triangle)" marker-start="url(#open_circle)" x1="180" x2="180" y1="600" y2="668"/>
</g>
<g>
<line marker-start="url(#open_circle)" x1="180" x2="176" y1="680" y2="680"/>
<line marker-end="url(#triangle)" marker-start="url(#open_circle)" x1="180" x2="180" y1="680" y2="748"/>
</g>
<g>
<line marker-start="url(#open_circle)" x1="180" x2="176" y1="760" y2="760"/>
</g>
<g>
<line marker-start="url(#open_circle)" x1="276" x2="272" y1="88" y2="88"/>
<line marker-end="url(#triangle)" marker-start="url(#open_circle)" x1="276" x2="276" y1="88" y2="156"/>
</g>
<g>
<line marker-start="url(#open_circle)" x1="276" x2="272" y1="168" y2="168"/>
<line marker-end="url(#triangle)" marker-start="url(#open_circle)" x1="276" x2="276" y1="168" y2="236"/>
</g>
<g>
<line marker-start="url(#open_circle)" x1="276" x2="272" y1="248" y2="248"/>
<line marker-end="url(#triangle)" marker-start="url(#open_circle)" x1="276" x2="276" y1="248" y2="316"/>
</g>
<g>
<line marker-start="url(#open_circle)" x1="276" x2="272" y1="328" y2="328"/>
<line marker-end="url(#triangle)" marker-start="url(#open_circle)" x1="276" x2="276" y1="328" y2="396"/>
</g>
<g>
<line marker-start="url(#open_circle)" x1="276" x2="272" y1="408" y2="408"/>
<line marker-end="url(#triangle)" marker-start="url(#open_circle)" x1="276" x2="276" y1="408" y2="476"/>
</g>
<g>
<line marker-start="url(#open_circle)" x1="276" x2="272" y1="488" y2="488"/>
</g>
<g>
<line marker-start="url(#open_circle)" x1="276" x2="272" y1="600" y2="600"/>
<line marker-end="url(#triangle)" marker-start="url(#open_circle)" x1="276" x2="276" y1="600" y2="668"/>
</g>
<g>
<line marker-start="url(#open_circle)" x1="276" x2="272" y1="680" y2="680"/>
<line marker-end="url(#triangle)" marker-start="url(#open_circle)" x1="276" x2="276" y1="680" y2="748"/>
</g>
<g>
<line marker-start="url(#open_circle)" x1="276" x2="272" y1="760" y2="760"/>
</g>
</svg>
