<svg class="bob" font-family="arial" font-size="14" height="368" width="1096" xmlns="http://www.w3.org/2000/svg">
<defs>
<marker id="triangle" markerHeight="8" markerWidth="8" orient="auto" refX="4" refY="2" viewBox="0 0 8 4">
<polygon class="fg_fill" points="0,0 0,4 8,2 0,0"/>
</marker>
<marker id="clear_triangle" markerHeight="10" markerWidth="10" orient="auto" refX="1" refY="7" viewBox="0 0 20 14">
<polygon class="bg_fill" points="2,2 2,12 18,7 2,2"/>
</marker>
<marker id="circle" markerHeight="5" markerWidth="5" orient="auto" refX="10" refY="10" viewBox="0 0 20 20">
<circle class="fg_fill" cx="10" cy="10" r="8"/>
</marker>
<marker id="square" markerHeight="5" markerWidth="5" orient="auto" refX="10" refY="10" viewBox="0 0 20 20">
<rect class="fg_fill" height="20" width="20" x="0" y="0"/>
</marker>
<marker id="open_circle" markerHeight="10" markerWidth="10" orient="auto" refX="10" refY="10" viewBox="0 0 20 20">
<circle class="bg_fill" cx="10" cy="10" r="4"/>
</marker>
<marker id="big_open_circle" markerHeight="20" markerWidth="20" orient="auto" refX="20" refY="20" viewBox="0 0 40 40">
<circle class="bg_fill" cx="20" cy="20" r="6"/>
</marker>
</defs>
<style type="text/css">

rect.backdrop {
    fill: white;
}
text{
    fill: black;
}

circle {
    fill: none;
    stroke: black;
    stroke-width: 2;
}

line {
    stroke: black;
    stroke-width: 2;
    stroke-opacity: 1;
    fill-opacity: 1;
    stroke-linecap: round;
    stroke-linejoin: miter;
}

path {
    fill: none;
    stroke: black;
    stroke-width: 2;
    stroke-opacity: 1;
    fill-opacity: 1;
    stroke-linecap: round;
    stroke-linejoin: miter;
}

line.dashed {
    stroke-dasharray: 5;
}

.fg_fill {
    fill: black;
}


.bg_fill {
    fill: white;
    stroke: black;
    stroke-width: 2;
}

tspan.head{
    fill: none;
    stroke: none;
}
    
</style>
<rect class="backdrop" height="368" width="1096" x="0" y="0"/>
<g>
<line x1="4" x2="4" y1="96" y2="360"/>
<line x1="4" x2="312" y1="360" y2="360"/>
</g>
<g>
<line x1="396" x2="396" y1="96" y2="360"/>
<line x1="396" x2="704" y1="360" y2="360"/>
</g>
<g>
<line x1="788" x2="788" y1="96" y2="360"/>
<line x1="788" x2="1096" y1="360" y2="360"/>
</g>
<g>
<text x="1" y="12">
k=3
</text>
</g>
<g>
<text x="1" y="28">
 * Points represented as letters, where the letter denotes cluster assignment.
</text>
</g>
<g>
<text x="1" y="44">
 * Points chosen as centers are in brackets.
</text>
</g>
<g>
<text x="25" y="236">
[D]
</text>
</g>
<g>
<text x="33" y="268">
D
</text>
</g>
<g>
<text x="41" y="204">
D
</text>
</g>
<g>
<text x="57" y="76">
step1: pick random initial
</text>
</g>
<g>
<text x="57" y="268">
D
</text>
</g>
<g>
<text x="65" y="220">
D
</text>
</g>
<g>
<text x="65" y="252">
D
</text>
</g>
<g>
<text x="73" y="236">
D
</text>
</g>
<g>
<text x="129" y="268">
D
</text>
</g>
<g>
<text x="137" y="252">
D
</text>
</g>
<g>
<text x="145" y="188">
D
</text>
</g>
<g>
<text x="153" y="172">
D
</text>
</g>
<g>
<text x="153" y="284">
D
</text>
</g>
<g>
<text x="161" y="204">
D
</text>
</g>
<g>
<text x="161" y="268">
D
</text>
</g>
<g>
<text x="177" y="188">
D
</text>
</g>
<g>
<text x="417" y="236">
[D]
</text>
</g>
<g>
<text x="425" y="268">
D
</text>
</g>
<g>
<text x="433" y="204">
D
</text>
</g>
<g>
<text x="441" y="76">
step2: pick next farthest
</text>
</g>
<g>
<text x="449" y="268">
D
</text>
</g>
<g>
<text x="457" y="220">
D
</text>
</g>
<g>
<text x="457" y="252">
D
</text>
</g>
<g>
<text x="465" y="236">
D
</text>
</g>
<g>
<text x="521" y="268">
C
</text>
</g>
<g>
<text x="529" y="252">
C
</text>
</g>
<g>
<text x="537" y="188">
C
</text>
</g>
<g>
<text x="545" y="172">
C
</text>
</g>
<g>
<text x="545" y="284">
C
</text>
</g>
<g>
<text x="553" y="204">
C
</text>
</g>
<g>
<text x="553" y="268">
C
</text>
</g>
<g>
<text x="561" y="188">
[C]
</text>
</g>
<g>
<text x="809" y="236">
[D]
</text>
</g>
<g>
<text x="817" y="268">
D
</text>
</g>
<g>
<text x="825" y="204">
D
</text>
</g>
<g>
<text x="841" y="76">
step3: pick next farthest
</text>
</g>
<g>
<text x="841" y="268">
D
</text>
</g>
<g>
<text x="849" y="220">
D
</text>
</g>
<g>
<text x="849" y="252">
D
</text>
</g>
<g>
<text x="857" y="236">
D
</text>
</g>
<g>
<text x="913" y="268">
E
</text>
</g>
<g>
<text x="921" y="252">
E
</text>
</g>
<g>
<text x="929" y="188">
C
</text>
</g>
<g>
<text x="929" y="284">
[E]
</text>
</g>
<g>
<text x="937" y="172">
C
</text>
</g>
<g>
<text x="945" y="204">
C
</text>
</g>
<g>
<text x="945" y="268">
E
</text>
</g>
<g>
<text x="953" y="188">
[C]
</text>
</g>
</svg>
