<svg class="bob" font-family="arial" font-size="14" height="240" width="352" xmlns="http://www.w3.org/2000/svg">
<defs>
<marker id="triangle" markerHeight="8" markerWidth="8" orient="auto" refX="4" refY="2" viewBox="0 0 8 4">
<polygon class="fg_fill" points="0,0 0,4 8,2 0,0"/>
</marker>
<marker id="clear_triangle" markerHeight="10" markerWidth="10" orient="auto" refX="1" refY="7" viewBox="0 0 20 14">
<polygon class="bg_fill" points="2,2 2,12 18,7 2,2"/>
</marker>
<marker id="circle" markerHeight="5" markerWidth="5" orient="auto" refX="10" refY="10" viewBox="0 0 20 20">
<circle class="fg_fill" cx="10" cy="10" r="8"/>
</marker>
<marker id="square" markerHeight="5" markerWidth="5" orient="auto" refX="10" refY="10" viewBox="0 0 20 20">
<rect class="fg_fill" height="20" width="20" x="0" y="0"/>
</marker>
<marker id="open_circle" markerHeight="10" markerWidth="10" orient="auto" refX="10" refY="10" viewBox="0 0 20 20">
<circle class="bg_fill" cx="10" cy="10" r="4"/>
</marker>
<marker id="big_open_circle" markerHeight="20" markerWidth="20" orient="auto" refX="20" refY="20" viewBox="0 0 40 40">
<circle class="bg_fill" cx="20" cy="20" r="6"/>
</marker>
</defs>
<style type="text/css">

rect.backdrop {
    fill: white;
}
text{
    fill: black;
}

circle {
    fill: none;
    stroke: black;
    stroke-width: 2;
}

line {
    stroke: black;
    stroke-width: 2;
    stroke-opacity: 1;
    fill-opacity: 1;
    stroke-linecap: round;
    stroke-linejoin: miter;
}

path {
    fill: none;
    stroke: black;
    stroke-width: 2;
    stroke-opacity: 1;
    fill-opacity: 1;
    stroke-linecap: round;
    stroke-linejoin: miter;
}

line.dashed {
    stroke-dasharray: 5;
}

.fg_fill {
    fill: black;
}


.bg_fill {
    fill: white;
    stroke: black;
    stroke-width: 2;
}

tspan.head{
    fill: none;
    stroke: none;
}
    
</style>
<rect class="backdrop" height="240" width="352" x="0" y="0"/>
<g>
<line marker-end="url(#circle)" marker-start="url(#circle)" x1="20" x2="4" y1="40" y2="72"/>
<line marker-end="url(#circle)" marker-start="url(#circle)" x1="20" x2="20" y1="40" y2="72"/>
<line marker-end="url(#circle)" marker-start="url(#circle)" x1="20" x2="44" y1="40" y2="88"/>
<line marker-end="url(#circle)" marker-start="url(#circle)" x1="44" x2="28" y1="88" y2="120"/>
<line marker-end="url(#circle)" marker-start="url(#circle)" x1="44" x2="68" y1="88" y2="136"/>
<line marker-end="url(#circle)" marker-start="url(#circle)" x1="68" x2="52" y1="136" y2="168"/>
<line marker-end="url(#circle)" marker-start="url(#circle)" x1="68" x2="68" y1="136" y2="168"/>
<line marker-end="url(#circle)" marker-start="url(#circle)" x1="68" x2="92" y1="136" y2="184"/>
<line marker-end="url(#circle)" marker-start="url(#circle)" x1="92" x2="76" y1="184" y2="216"/>
<line marker-end="url(#circle)" marker-start="url(#circle)" x1="92" x2="108" y1="184" y2="216"/>
</g>
<g>
<line marker-end="url(#circle)" marker-start="url(#circle)" x1="252" x2="236" y1="72" y2="104"/>
<line marker-end="url(#circle)" marker-start="url(#circle)" x1="252" x2="252" y1="72" y2="104"/>
<line marker-end="url(#circle)" marker-start="url(#circle)" x1="252" x2="276" y1="72" y2="120"/>
<line marker-end="url(#circle)" marker-start="url(#circle)" x1="276" x2="260" y1="120" y2="152"/>
<line marker-end="url(#circle)" marker-start="url(#circle)" x1="276" x2="292" y1="120" y2="152"/>
</g>
<g>
<text x="1" y="92">
A
</text>
</g>
<g>
<text x="17" y="92">
B
</text>
</g>
<g>
<text x="25" y="140">
I
</text>
</g>
<g>
<text x="33" y="44">
D
</text>
</g>
<g>
<text x="41" y="12">
TREE
</text>
</g>
<g>
<text x="49" y="188">
J
</text>
</g>
<g>
<text x="57" y="92">
G
</text>
</g>
<g>
<text x="65" y="188">
K
</text>
</g>
<g>
<text x="73" y="236">
C
</text>
</g>
<g>
<text x="81" y="140">
H
</text>
</g>
<g>
<text x="105" y="188">
E
</text>
</g>
<g>
<text x="105" y="236">
F
</text>
</g>
<g>
<text x="193" y="12">
DESCENDANTS FROM H
</text>
</g>
<g>
<text x="233" y="124">
J
</text>
</g>
<g>
<text x="249" y="124">
K
</text>
</g>
<g>
<text x="257" y="172">
C
</text>
</g>
<g>
<text x="265" y="76">
H
</text>
</g>
<g>
<text x="289" y="124">
E
</text>
</g>
<g>
<text x="289" y="172">
F
</text>
</g>
</svg>
