<svg class="bob" font-family="arial" font-size="14" height="80" width="528" xmlns="http://www.w3.org/2000/svg">
<defs>
<marker id="triangle" markerHeight="8" markerWidth="8" orient="auto" refX="4" refY="2" viewBox="0 0 8 4">
<polygon class="fg_fill" points="0,0 0,4 8,2 0,0"/>
</marker>
<marker id="clear_triangle" markerHeight="10" markerWidth="10" orient="auto" refX="1" refY="7" viewBox="0 0 20 14">
<polygon class="bg_fill" points="2,2 2,12 18,7 2,2"/>
</marker>
<marker id="circle" markerHeight="5" markerWidth="5" orient="auto" refX="10" refY="10" viewBox="0 0 20 20">
<circle class="fg_fill" cx="10" cy="10" r="8"/>
</marker>
<marker id="square" markerHeight="5" markerWidth="5" orient="auto" refX="10" refY="10" viewBox="0 0 20 20">
<rect class="fg_fill" height="20" width="20" x="0" y="0"/>
</marker>
<marker id="open_circle" markerHeight="10" markerWidth="10" orient="auto" refX="10" refY="10" viewBox="0 0 20 20">
<circle class="bg_fill" cx="10" cy="10" r="4"/>
</marker>
<marker id="big_open_circle" markerHeight="20" markerWidth="20" orient="auto" refX="20" refY="20" viewBox="0 0 40 40">
<circle class="bg_fill" cx="20" cy="20" r="6"/>
</marker>
</defs>
<style type="text/css">

rect.backdrop {
    fill: white;
}
text{
    fill: black;
}

circle {
    fill: none;
    stroke: black;
    stroke-width: 2;
}

line {
    stroke: black;
    stroke-width: 2;
    stroke-opacity: 1;
    fill-opacity: 1;
    stroke-linecap: round;
    stroke-linejoin: miter;
}

path {
    fill: none;
    stroke: black;
    stroke-width: 2;
    stroke-opacity: 1;
    fill-opacity: 1;
    stroke-linecap: round;
    stroke-linejoin: miter;
}

line.dashed {
    stroke-dasharray: 5;
}

.fg_fill {
    fill: black;
}


.bg_fill {
    fill: white;
    stroke: black;
    stroke-width: 2;
}

tspan.head{
    fill: none;
    stroke: none;
}
    
</style>
<rect class="backdrop" height="80" width="528" x="0" y="0"/>
<g>
<line marker-end="url(#triangle)" x1="16" x2="52" y1="40" y2="40"/>
</g>
<g>
<line x1="40" x2="72" y1="24" y2="24"/>
<path d="M 72 24 A 4 4 0 0 0 76 20"/>
</g>
<g>
<line x1="40" x2="72" y1="56" y2="56"/>
<path d="M 76 60 A 4 4 0 0 0 72 56"/>
</g>
<g>
<line x1="76" x2="76" y1="12" y2="20"/>
<path d="M 80 8 A 4 4 0 0 0 76 12"/>
</g>
<g>
<line x1="76" x2="76" y1="60" y2="68"/>
<path d="M 76 68 A 4 4 0 0 0 80 72"/>
</g>
<g>
<line x1="80" x2="136" y1="8" y2="8"/>
<path d="M 140 12 A 4 4 0 0 0 136 8"/>
</g>
<g>
<line x1="80" x2="136" y1="72" y2="72"/>
<path d="M 136 72 A 4 4 0 0 0 140 68"/>
</g>
<g>
<line x1="140" x2="140" y1="12" y2="20"/>
<path d="M 140 20 A 4 4 0 0 0 144 24"/>
</g>
<g>
<line x1="140" x2="140" y1="60" y2="68"/>
<path d="M 144 56 A 4 4 0 0 0 140 60"/>
</g>
<g>
<line x1="144" x2="176" y1="24" y2="24"/>
</g>
<g>
<line x1="144" x2="176" y1="56" y2="56"/>
</g>
<g>
<line marker-end="url(#triangle)" x1="160" x2="196" y1="40" y2="40"/>
</g>
<g>
<line marker-end="url(#triangle)" x1="264" x2="300" y1="40" y2="40"/>
</g>
<g>
<line x1="288" x2="320" y1="24" y2="24"/>
<path d="M 320 24 A 4 4 0 0 0 324 20"/>
</g>
<g>
<line x1="288" x2="320" y1="56" y2="56"/>
<path d="M 324 60 A 4 4 0 0 0 320 56"/>
</g>
<g>
<line x1="324" x2="324" y1="12" y2="20"/>
<path d="M 328 8 A 4 4 0 0 0 324 12"/>
</g>
<g>
<line x1="324" x2="324" y1="60" y2="68"/>
<path d="M 324 68 A 4 4 0 0 0 328 72"/>
</g>
<g>
<line x1="328" x2="384" y1="8" y2="8"/>
<path d="M 388 12 A 4 4 0 0 0 384 8"/>
</g>
<g>
<line x1="328" x2="384" y1="72" y2="72"/>
<path d="M 384 72 A 4 4 0 0 0 388 68"/>
</g>
<g>
<line x1="388" x2="388" y1="12" y2="20"/>
<path d="M 388 20 A 4 4 0 0 0 392 24"/>
</g>
<g>
<line x1="388" x2="388" y1="60" y2="68"/>
<path d="M 392 56 A 4 4 0 0 0 388 60"/>
</g>
<g>
<line x1="392" x2="424" y1="24" y2="24"/>
</g>
<g>
<line x1="392" x2="424" y1="56" y2="56"/>
</g>
<g>
<line marker-end="url(#triangle)" x1="408" x2="444" y1="40" y2="40"/>
</g>
<g>
<text x="1" y="44">
x
</text>
</g>
<g>
<text x="105" y="44">
g
</text>
</g>
<g>
<text x="209" y="44">
g(x)
</text>
</g>
<g>
<text x="353" y="44">
f
</text>
</g>
<g>
<text x="457" y="44">
f(g(x))
</text>
</g>
</svg>
