<svg class="bob" font-family="arial" font-size="14" height="320" width="400" xmlns="http://www.w3.org/2000/svg">
<defs>
<marker id="triangle" markerHeight="8" markerWidth="8" orient="auto" refX="4" refY="2" viewBox="0 0 8 4">
<polygon class="fg_fill" points="0,0 0,4 8,2 0,0"/>
</marker>
<marker id="clear_triangle" markerHeight="10" markerWidth="10" orient="auto" refX="1" refY="7" viewBox="0 0 20 14">
<polygon class="bg_fill" points="2,2 2,12 18,7 2,2"/>
</marker>
<marker id="circle" markerHeight="5" markerWidth="5" orient="auto" refX="10" refY="10" viewBox="0 0 20 20">
<circle class="fg_fill" cx="10" cy="10" r="8"/>
</marker>
<marker id="square" markerHeight="5" markerWidth="5" orient="auto" refX="10" refY="10" viewBox="0 0 20 20">
<rect class="fg_fill" height="20" width="20" x="0" y="0"/>
</marker>
<marker id="open_circle" markerHeight="10" markerWidth="10" orient="auto" refX="10" refY="10" viewBox="0 0 20 20">
<circle class="bg_fill" cx="10" cy="10" r="4"/>
</marker>
<marker id="big_open_circle" markerHeight="20" markerWidth="20" orient="auto" refX="20" refY="20" viewBox="0 0 40 40">
<circle class="bg_fill" cx="20" cy="20" r="6"/>
</marker>
</defs>
<style type="text/css">

rect.backdrop {
    fill: white;
}
text{
    fill: black;
}

circle {
    fill: none;
    stroke: black;
    stroke-width: 2;
}

line {
    stroke: black;
    stroke-width: 2;
    stroke-opacity: 1;
    fill-opacity: 1;
    stroke-linecap: round;
    stroke-linejoin: miter;
}

path {
    fill: none;
    stroke: black;
    stroke-width: 2;
    stroke-opacity: 1;
    fill-opacity: 1;
    stroke-linecap: round;
    stroke-linejoin: miter;
}

line.dashed {
    stroke-dasharray: 5;
}

.fg_fill {
    fill: black;
}


.bg_fill {
    fill: white;
    stroke: black;
    stroke-width: 2;
}

tspan.head{
    fill: none;
    stroke: none;
}
    
</style>
<rect class="backdrop" height="320" width="400" x="0" y="0"/>
<g>
<line x1="4" x2="4" y1="12" y2="308"/>
<path d="M 4 308 A 4 4 0 0 0 8 312"/>
<path d="M 8 8 A 4 4 0 0 0 4 12"/>
</g>
<g>
<line x1="8" x2="392" y1="8" y2="8"/>
<path d="M 396 12 A 4 4 0 0 0 392 8"/>
</g>
<g>
<line x1="8" x2="392" y1="312" y2="312"/>
<path d="M 392 312 A 4 4 0 0 0 396 308"/>
</g>
<g>
<line x1="28" x2="28" y1="124" y2="244"/>
<path d="M 28 244 A 4 4 0 0 0 32 248"/>
<path d="M 32 120 A 4 4 0 0 0 28 124"/>
</g>
<g>
<line x1="32" x2="352" y1="120" y2="120"/>
<path d="M 356 124 A 4 4 0 0 0 352 120"/>
</g>
<g>
<line x1="32" x2="352" y1="248" y2="248"/>
<path d="M 352 248 A 4 4 0 0 0 356 244"/>
</g>
<g>
<line x1="356" x2="356" y1="124" y2="244"/>
</g>
<g>
<line x1="396" x2="396" y1="12" y2="308"/>
</g>
<g>
<text x="17" y="60">
1. allocation
</text>
</g>
<g>
<text x="17" y="92">
2. constructor invocation started
</text>
</g>
<g>
<text x="17" y="284">
6. deallocation
</text>
</g>
<g>
<text x="41" y="172">
3. constructor invocation finished
</text>
</g>
<g>
<text x="41" y="204">
4. destructor invocation started
</text>
</g>
<g>
<text x="41" y="236">
5. destructor invocation finished
</text>
</g>
<g>
<text x="97" y="28">
OBJECT STORAGE DURATION
</text>
</g>
<g>
<text x="121" y="140">
OBJECT LIFETIME
</text>
</g>
</svg>
