<?xml version="1.0" encoding="UTF-8" standalone="no"?>
<!DOCTYPE svg PUBLIC "-//W3C//DTD SVG 1.1//EN"
 "http://www.w3.org/Graphics/SVG/1.1/DTD/svg11.dtd">
<!-- Generated by graphviz version 2.40.1 (0)
 -->
<!-- Title: G Pages: 1 -->
<svg width="702pt" height="306pt"
 viewBox="0.00 0.00 702.00 306.20" xmlns="http://www.w3.org/2000/svg" xmlns:xlink="http://www.w3.org/1999/xlink">
<g id="graph0" class="graph" transform="scale(1 1) rotate(0) translate(4 302.2)">
<title>G</title>
<polygon fill="#ffffff" stroke="transparent" points="-4,4 -4,-302.2 698,-302.2 698,4 -4,4"/>
<text text-anchor="middle" x="347" y="-283" font-family="Times,serif" font-size="14.00" fill="#000000">CIRCULAR flattened on undesired genome (red edges)</text>
<!-- _C1_t_ -->
<g id="node1" class="node">
<title>_C1_t_</title>
<text text-anchor="middle" x="383" y="-133.9" font-family="Times,serif" font-size="14.00" fill="#000000">_C1_t_</text>
</g>
<!-- _D1_h_ -->
<g id="node8" class="node">
<title>_D1_h_</title>
<text text-anchor="middle" x="95" y="-133.9" font-family="Times,serif" font-size="14.00" fill="#000000">_D1_h_</text>
</g>
<!-- _C1_t_&#45;&#45;_D1_h_ -->
<g id="edge9" class="edge">
<title>_C1_t_:s&#45;&#45;_D1_h_:s</title>
<path fill="none" stroke="#0000ff" d="M383,-129.6C181.5574,-125.345 181.5574,-125.345 95,-129.6"/>
</g>
<!-- _C1_h_ -->
<g id="node2" class="node">
<title>_C1_h_</title>
<text text-anchor="middle" x="311" y="-133.9" font-family="Times,serif" font-size="14.00" fill="#000000">_C1_h_</text>
</g>
<!-- _C1_h_&#45;&#45;_C1_t_ -->
<g id="edge1" class="edge">
<title>_C1_h_:e&#45;&#45;_C1_t_:w</title>
<path fill="none" stroke="#000000" stroke-dasharray="5,2" d="M334,-137.6C347,-142.8 347,-142.8 360,-137.6"/>
</g>
<!-- _B1_t_ -->
<g id="node3" class="node">
<title>_B1_t_</title>
<text text-anchor="middle" x="167" y="-133.9" font-family="Times,serif" font-size="14.00" fill="#000000">_B1_t_</text>
</g>
<!-- _B1_t_&#45;&#45;_C1_h_ -->
<g id="edge11" class="edge">
<title>_B1_t_:n&#45;&#45;_C1_h_:n</title>
<path fill="none" stroke="#0000ff" d="M167,-145.6C210.3189,-148.2147 210.3189,-148.2147 311,-145.6"/>
</g>
<!-- _B1_h_ -->
<g id="node4" class="node">
<title>_B1_h_</title>
<text text-anchor="middle" x="239" y="-133.9" font-family="Times,serif" font-size="14.00" fill="#000000">_B1_h_</text>
</g>
<!-- _B1_t_&#45;&#45;_B1_h_ -->
<g id="edge2" class="edge">
<title>_B1_t_:e&#45;&#45;_B1_h_:w</title>
<path fill="none" stroke="#000000" stroke-dasharray="5,2" d="M190,-137.6C197.8,-137.6222 197.8,-137.6222 216,-137.6"/>
</g>
<!-- _B1_t_&#45;&#45;_D1_h_ -->
<g id="edge8" class="edge">
<title>_B1_t_:w&#45;&#45;_D1_h_:e</title>
<path fill="none" stroke="#ff0000" d="M144,-137.6C125.8,-137.6148 125.8,-137.6148 118,-137.6"/>
</g>
<!-- _B1_h_&#45;&#45;_C1_h_ -->
<g id="edge5" class="edge">
<title>_B1_h_:e&#45;&#45;_C1_h_:w</title>
<path fill="none" stroke="#ff0000" d="M262,-137.6C269.8002,-137.6444 269.8002,-137.6444 288,-137.6"/>
</g>
<!-- _A1_t_ -->
<g id="node5" class="node">
<title>_A1_t_</title>
<text text-anchor="middle" x="527" y="-133.9" font-family="Times,serif" font-size="14.00" fill="#000000">_A1_t_</text>
</g>
<!-- _A1_t_&#45;&#45;_C1_t_ -->
<g id="edge6" class="edge">
<title>_A1_t_:w&#45;&#45;_C1_t_:e</title>
<path fill="none" stroke="#ff0000" d="M504,-137.6C474.5997,-137.7116 474.5997,-137.7116 406,-137.6"/>
</g>
<!-- _A1_t_&#45;&#45;_B1_h_ -->
<g id="edge12" class="edge">
<title>_A1_t_:n&#45;&#45;_B1_h_:n</title>
<path fill="none" stroke="#0000ff" d="M527,-145.6C439.0183,-159.0057 439.0183,-159.0057 239,-145.6"/>
</g>
<!-- _A1_h_ -->
<g id="node6" class="node">
<title>_A1_h_</title>
<text text-anchor="middle" x="671" y="-133.9" font-family="Times,serif" font-size="14.00" fill="#000000">_A1_h_</text>
</g>
<!-- _A1_t_&#45;&#45;_A1_h_ -->
<g id="edge3" class="edge">
<title>_A1_t_:e&#45;&#45;_A1_h_:w</title>
<path fill="none" stroke="#000000" stroke-dasharray="5,2" d="M550,-137.6C618.5982,-137.3331 618.5982,-137.3331 648,-137.6"/>
</g>
<!-- _D1_t_ -->
<g id="node7" class="node">
<title>_D1_t_</title>
<text text-anchor="middle" x="23" y="-133.9" font-family="Times,serif" font-size="14.00" fill="#000000">_D1_t_</text>
</g>
<!-- _A1_h_&#45;&#45;_D1_t_ -->
<g id="edge7" class="edge">
<title>_A1_h_:s&#45;&#45;_D1_t_:s</title>
<path fill="none" stroke="#ff0000" d="M671,-129.6C347,0 347,0 23,-129.6"/>
</g>
<!-- _A1_h_&#45;&#45;_D1_t_ -->
<g id="edge10" class="edge">
<title>_A1_h_:n&#45;&#45;_D1_t_:n</title>
<path fill="none" stroke="#0000ff" d="M671,-145.6C347,-275.2 347,-275.2 23,-145.6"/>
</g>
<!-- _D1_t_&#45;&#45;_D1_h_ -->
<g id="edge4" class="edge">
<title>_D1_t_:e&#45;&#45;_D1_h_:w</title>
<path fill="none" stroke="#000000" stroke-dasharray="5,2" d="M46,-137.6C53.8,-137.6 53.8,-137.6 72,-137.6"/>
</g>
</g>
</svg>
