<svg class="bob" font-family="arial" font-size="14" height="384" width="936" xmlns="http://www.w3.org/2000/svg">
<defs>
<marker id="triangle" markerHeight="8" markerWidth="8" orient="auto" refX="4" refY="2" viewBox="0 0 8 4">
<polygon class="fg_fill" points="0,0 0,4 8,2 0,0"/>
</marker>
<marker id="clear_triangle" markerHeight="10" markerWidth="10" orient="auto" refX="1" refY="7" viewBox="0 0 20 14">
<polygon class="bg_fill" points="2,2 2,12 18,7 2,2"/>
</marker>
<marker id="circle" markerHeight="5" markerWidth="5" orient="auto" refX="10" refY="10" viewBox="0 0 20 20">
<circle class="fg_fill" cx="10" cy="10" r="8"/>
</marker>
<marker id="square" markerHeight="5" markerWidth="5" orient="auto" refX="10" refY="10" viewBox="0 0 20 20">
<rect class="fg_fill" height="20" width="20" x="0" y="0"/>
</marker>
<marker id="open_circle" markerHeight="10" markerWidth="10" orient="auto" refX="10" refY="10" viewBox="0 0 20 20">
<circle class="bg_fill" cx="10" cy="10" r="4"/>
</marker>
<marker id="big_open_circle" markerHeight="20" markerWidth="20" orient="auto" refX="20" refY="20" viewBox="0 0 40 40">
<circle class="bg_fill" cx="20" cy="20" r="6"/>
</marker>
</defs>
<style type="text/css">

rect.backdrop {
    fill: white;
}
text{
    fill: black;
}

circle {
    fill: none;
    stroke: black;
    stroke-width: 2;
}

line {
    stroke: black;
    stroke-width: 2;
    stroke-opacity: 1;
    fill-opacity: 1;
    stroke-linecap: round;
    stroke-linejoin: miter;
}

path {
    fill: none;
    stroke: black;
    stroke-width: 2;
    stroke-opacity: 1;
    fill-opacity: 1;
    stroke-linecap: round;
    stroke-linejoin: miter;
}

line.dashed {
    stroke-dasharray: 5;
}

.fg_fill {
    fill: black;
}


.bg_fill {
    fill: white;
    stroke: black;
    stroke-width: 2;
}

tspan.head{
    fill: none;
    stroke: none;
}
    
</style>
<rect class="backdrop" height="384" width="936" x="0" y="0"/>
<g>
<line x1="4" x2="4" y1="136" y2="168"/>
<line x1="4" x2="60" y1="136" y2="136"/>
<line x1="4" x2="60" y1="168" y2="168"/>
<line x1="60" x2="60" y1="108" y2="136"/>
<line x1="60" x2="76" y1="136" y2="136"/>
<line x1="60" x2="60" y1="168" y2="196"/>
<line x1="60" x2="76" y1="168" y2="168"/>
<line x1="76" x2="76" y1="136" y2="168"/>
<path d="M 60 196 A 4 4 0 0 0 64 200"/>
<path d="M 64 104 A 4 4 0 0 0 60 108"/>
</g>
<g>
<line marker-end="url(#triangle)" x1="64" x2="92" y1="104" y2="104"/>
</g>
<g>
<line marker-end="url(#triangle)" x1="64" x2="92" y1="200" y2="200"/>
</g>
<g>
<line x1="100" x2="100" y1="72" y2="120"/>
<line x1="100" x2="140" y1="72" y2="72"/>
<line x1="100" x2="140" y1="120" y2="120"/>
<line x1="140" x2="140" y1="72" y2="104"/>
<line x1="140" x2="140" y1="104" y2="120"/>
<line x1="140" x2="144" y1="104" y2="104"/>
<path d="M 150 108 A 8 8 0 0 0 144 104"/>
</g>
<g>
<line x1="100" x2="100" y1="184" y2="232"/>
<line x1="100" x2="140" y1="184" y2="184"/>
<line x1="100" x2="116" y1="232" y2="232"/>
<line marker-end="url(#triangle)" x1="116" x2="116" y1="232" y2="268"/>
<line x1="116" x2="140" y1="232" y2="232"/>
<line x1="140" x2="140" y1="184" y2="232"/>
</g>
<g>
<line x1="100" x2="100" y1="280" y2="312"/>
<line x1="100" x2="140" y1="280" y2="280"/>
<line x1="100" x2="140" y1="312" y2="312"/>
<line x1="140" x2="140" y1="280" y2="296"/>
<line x1="140" x2="140" y1="296" y2="312"/>
<line x1="140" x2="144" y1="296" y2="296"/>
<path d="M 144 296 A 8 8 0 0 0 150 292"/>
</g>
<g>
<line x1="150" x2="194" y1="108" y2="196"/>
<path d="M 194 196 A 8 8 0 0 0 200 200"/>
</g>
<g>
<line x1="186" x2="150" y1="220" y2="292"/>
<path d="M 192 216 A 8 8 0 0 0 186 220"/>
</g>
<g>
<line marker-end="url(#triangle)" x1="192" x2="244" y1="216" y2="216"/>
</g>
<g>
<line marker-end="url(#triangle)" x1="200" x2="244" y1="200" y2="200"/>
</g>
<g>
<line x1="252" x2="252" y1="184" y2="232"/>
<line x1="252" x2="292" y1="184" y2="184"/>
<line x1="252" x2="292" y1="232" y2="232"/>
<line x1="292" x2="292" y1="184" y2="232"/>
</g>
<g>
<line x1="556" x2="556" y1="184" y2="232"/>
<line x1="556" x2="596" y1="184" y2="184"/>
<line x1="556" x2="572" y1="232" y2="232"/>
<line marker-end="url(#triangle)" x1="572" x2="572" y1="232" y2="268"/>
<line x1="572" x2="596" y1="232" y2="232"/>
<line x1="596" x2="596" y1="184" y2="200"/>
<line x1="596" x2="596" y1="200" y2="232"/>
<line x1="596" x2="600" y1="200" y2="200"/>
<path d="M 600 200 A 8 8 0 0 0 606 196"/>
</g>
<g>
<line x1="556" x2="556" y1="280" y2="312"/>
<line x1="556" x2="596" y1="280" y2="280"/>
<line x1="556" x2="596" y1="312" y2="312"/>
<line x1="596" x2="596" y1="280" y2="296"/>
<line x1="596" x2="596" y1="296" y2="312"/>
<line x1="596" x2="600" y1="296" y2="296"/>
<path d="M 600 296 A 8 8 0 0 0 606 292"/>
</g>
<g>
<line x1="642" x2="606" y1="220" y2="292"/>
<path d="M 648 216 A 8 8 0 0 0 642 220"/>
</g>
<g>
<line marker-end="url(#triangle)" x1="648" x2="700" y1="216" y2="216"/>
</g>
<g>
<line x1="650" x2="606" y1="108" y2="196"/>
<path d="M 656 104 A 8 8 0 0 0 650 108"/>
</g>
<g>
<line marker-end="url(#triangle)" x1="656" x2="700" y1="104" y2="104"/>
</g>
<g>
<line x1="708" x2="708" y1="72" y2="120"/>
<line x1="708" x2="748" y1="72" y2="72"/>
<line x1="708" x2="748" y1="120" y2="120"/>
<line x1="748" x2="748" y1="72" y2="88"/>
<line x1="748" x2="748" y1="88" y2="120"/>
<line x1="748" x2="776" y1="88" y2="88"/>
<path d="M 780 92 A 4 4 0 0 0 776 88"/>
</g>
<g>
<line x1="708" x2="708" y1="184" y2="232"/>
<line x1="708" x2="748" y1="184" y2="184"/>
<line x1="708" x2="724" y1="232" y2="232"/>
<line marker-end="url(#triangle)" x1="724" x2="724" y1="232" y2="268"/>
<line x1="724" x2="748" y1="232" y2="232"/>
<line x1="748" x2="748" y1="184" y2="216"/>
<line x1="748" x2="748" y1="216" y2="232"/>
<line x1="748" x2="776" y1="216" y2="216"/>
<path d="M 776 216 A 4 4 0 0 0 780 212"/>
</g>
<g>
<line x1="708" x2="708" y1="280" y2="312"/>
<line x1="708" x2="748" y1="280" y2="280"/>
<line x1="708" x2="748" y1="312" y2="312"/>
<line x1="748" x2="748" y1="280" y2="296"/>
<line x1="748" x2="748" y1="296" y2="312"/>
<line x1="748" x2="792" y1="296" y2="296"/>
<path d="M 792 296 A 4 4 0 0 0 796 292"/>
</g>
<g>
<line x1="772" x2="772" y1="136" y2="168"/>
<line x1="772" x2="828" y1="136" y2="136"/>
<line x1="772" x2="828" y1="168" y2="168"/>
<line x1="828" x2="828" y1="136" y2="168"/>
</g>
<g>
<line marker-end="url(#triangle)" x1="780" x2="780" y1="92" y2="124"/>
</g>
<g>
<line marker-end="url(#triangle)" x1="780" x2="780" y1="192" y2="180"/>
<line x1="780" x2="780" y1="192" y2="212"/>
</g>
<g>
<line marker-end="url(#triangle)" x1="796" x2="796" y1="192" y2="180"/>
<line x1="796" x2="796" y1="192" y2="292"/>
</g>
<g>
<text x="1" y="348">
a + b =
</text>
</g>
<g>
<text x="17" y="156">
SOURCE
</text>
</g>
<g>
<text x="73" y="12">
LEFT-HAND SIDE
</text>
</g>
<g>
<text x="81" y="348">
Pr(SOURCE-&gt;A|z) * Pr(A-&gt;B|z) +
</text>
</g>
<g>
<text x="81" y="364">
Pr(SOURCE-&gt;B|z) * Pr(B-&gt;C) * Pr(C-&gt;B|z)
</text>
</g>
<g>
<text x="113" y="92">
A0
</text>
</g>
<g>
<text x="113" y="204">
B0
</text>
</g>
<g>
<text x="113" y="300">
C0
</text>
</g>
<g>
<text x="121" y="44">
z
</text>
</g>
<g>
<text x="265" y="204">
B1
</text>
</g>
<g>
<text x="273" y="44">
z
</text>
</g>
<g>
<text x="441" y="348">
*
</text>
</g>
<g>
<text x="553" y="348">
c + d + e =
</text>
</g>
<g>
<text x="569" y="204">
B1
</text>
</g>
<g>
<text x="569" y="300">
C1
</text>
</g>
<g>
<text x="577" y="44">
z
</text>
</g>
<g>
<text x="609" y="12">
RIGHT-HAND SIDE
</text>
</g>
<g>
<text x="665" y="348">
Pr(B-&gt;A|y) +
</text>
</g>
<g>
<text x="665" y="364">
Pr(B-&gt;C) * Pr(C-&gt;B|y) +
</text>
</g>
<g>
<text x="665" y="380">
Pr(B-&gt;C) * Pr(C-&gt;B|y) * Pr(B-&gt;C)
</text>
</g>
<g>
<text x="721" y="92">
A2
</text>
</g>
<g>
<text x="721" y="204">
B2
</text>
</g>
<g>
<text x="721" y="300">
C2
</text>
</g>
<g>
<text x="729" y="44">
y
</text>
</g>
<g>
<text x="785" y="156">
SINK
</text>
</g>
</svg>
