<?xml version="1.0" encoding="UTF-8" standalone="no"?>
<!DOCTYPE svg PUBLIC "-//W3C//DTD SVG 1.1//EN"
 "http://www.w3.org/Graphics/SVG/1.1/DTD/svg11.dtd">
<!-- Generated by graphviz version 2.40.1 (0)
 -->
<!-- Title: G Pages: 1 -->
<svg width="369pt" height="684pt"
 viewBox="0.00 0.00 369.00 684.00" xmlns="http://www.w3.org/2000/svg" xmlns:xlink="http://www.w3.org/1999/xlink">
<g id="graph0" class="graph" transform="scale(1 1) rotate(0) translate(4 680)">
<title>G</title>
<polygon fill="#ffffff" stroke="transparent" points="-4,4 -4,-680 365,-680 365,4 -4,4"/>
<g id="clust1" class="cluster">
<title>cluster_4</title>
<polygon fill="none" stroke="#000000" points="8,-8 8,-167 353,-167 353,-8 8,-8"/>
<text text-anchor="middle" x="180.5" y="-155" font-family="Courier,monospace" font-weight="bold" font-size="10.00" fill="#000000">edge counts from v1 + v5 &#45; 4 * path(v1,v5)</text>
</g>
<g id="clust2" class="cluster">
<title>cluster_3</title>
<polygon fill="none" stroke="#000000" points="8,-175 8,-334 353,-334 353,-175 8,-175"/>
<text text-anchor="middle" x="180.5" y="-322" font-family="Courier,monospace" font-weight="bold" font-size="10.00" fill="#000000">edge counts from v1 + v5</text>
</g>
<g id="clust3" class="cluster">
<title>cluster_1</title>
<polygon fill="none" stroke="#000000" points="8,-342 8,-501 353,-501 353,-342 8,-342"/>
<text text-anchor="middle" x="180.5" y="-489" font-family="Courier,monospace" font-weight="bold" font-size="10.00" fill="#000000">edge counts from v5</text>
</g>
<g id="clust4" class="cluster">
<title>cluster_2</title>
<polygon fill="none" stroke="#000000" points="8,-509 8,-668 353,-668 353,-509 8,-509"/>
<text text-anchor="middle" x="180.5" y="-656" font-family="Courier,monospace" font-weight="bold" font-size="10.00" fill="#000000">edge counts from v1</text>
</g>
<!-- v0_w -->
<g id="node1" class="node">
<title>v0_w</title>
<ellipse fill="none" stroke="#000000" cx="30.5" cy="-125" rx="14.5" ry="14.5"/>
<text text-anchor="middle" x="30.5" y="-122.5" font-family="Courier,monospace" font-weight="bold" font-size="10.00" fill="#000000">v0</text>
</g>
<!-- i0_w -->
<g id="node2" class="node">
<title>i0_w</title>
<ellipse fill="none" stroke="#000000" cx="105.5" cy="-81" rx="14.5" ry="14.5"/>
<text text-anchor="middle" x="105.5" y="-78.5" font-family="Courier,monospace" font-weight="bold" font-size="10.00" fill="#000000">i0</text>
</g>
<!-- v0_w&#45;&#45;i0_w -->
<g id="edge1" class="edge">
<title>v0_w&#45;&#45;i0_w</title>
<path fill="none" stroke="#ffa500" stroke-width="2.5" d="M42.2107,-115.811C56.0859,-107.6709 78.1525,-94.7251 91.9531,-86.6287"/>
<path fill="none" stroke="transparent" stroke-width="2.5" d="M43.2227,-117.536C57.0979,-109.3959 79.1645,-96.4502 92.9652,-88.3538"/>
<path fill="none" stroke="#a020f0" stroke-width="2.5" d="M44.2348,-119.261C58.1099,-111.121 80.1765,-98.1752 93.9772,-90.0788"/>
<text text-anchor="middle" x="68" y="-108" font-family="Courier,monospace" font-weight="bold" font-size="10.00" fill="#000000"> </text>
</g>
<!-- i1_w -->
<g id="node5" class="node">
<title>i1_w</title>
<ellipse fill="none" stroke="#000000" cx="180.5" cy="-81" rx="14.5" ry="14.5"/>
<text text-anchor="middle" x="180.5" y="-78.5" font-family="Courier,monospace" font-weight="bold" font-size="10.00" fill="#000000">i1</text>
</g>
<!-- i0_w&#45;&#45;i1_w -->
<g id="edge4" class="edge">
<title>i0_w&#45;&#45;i1_w</title>
<path fill="none" stroke="#a020f0" stroke-width="2.5" d="M120.3176,-79C133.5515,-79 152.8224,-79 165.9684,-79"/>
<path fill="none" stroke="transparent" stroke-width="2.5" d="M120.3176,-81C133.5515,-81 152.8224,-81 165.9684,-81"/>
<path fill="none" stroke="#ffa500" stroke-width="2.5" d="M120.3176,-83C133.5515,-83 152.8224,-83 165.9684,-83"/>
<text text-anchor="middle" x="143" y="-84" font-family="Courier,monospace" font-weight="bold" font-size="10.00" fill="#000000"> </text>
</g>
<!-- v1_w -->
<g id="node3" class="node">
<title>v1_w</title>
<ellipse fill="#a020f0" stroke="#000000" cx="30.5" cy="-78" rx="14.5" ry="14.5"/>
<text text-anchor="middle" x="30.5" y="-75.5" font-family="Courier,monospace" font-weight="bold" font-size="10.00" fill="#000000">v1</text>
</g>
<!-- v1_w&#45;&#45;i0_w -->
<g id="edge2" class="edge">
<title>v1_w&#45;&#45;i0_w</title>
<path fill="none" stroke="#a020f0" stroke-width="2.5" d="M45.3975,-76.5943C58.6314,-77.1237 77.9023,-77.8945 91.0483,-78.4203"/>
<path fill="none" stroke="transparent" stroke-width="2.5" d="M45.3176,-78.5927C58.5515,-79.1221 77.8224,-79.8929 90.9684,-80.4187"/>
<path fill="none" stroke="#ffa500" stroke-width="2.5" d="M45.2377,-80.5911C58.4716,-81.1205 77.7424,-81.8913 90.8885,-82.4171"/>
<text text-anchor="middle" x="68" y="-82" font-family="Courier,monospace" font-weight="bold" font-size="10.00" fill="#000000"> </text>
</g>
<!-- v2_w -->
<g id="node4" class="node">
<title>v2_w</title>
<ellipse fill="#ffa500" stroke="#000000" cx="30.5" cy="-31" rx="14.5" ry="14.5"/>
<text text-anchor="middle" x="30.5" y="-28.5" font-family="Courier,monospace" font-weight="bold" font-size="10.00" fill="#000000">v2</text>
</g>
<!-- v2_w&#45;&#45;i0_w -->
<g id="edge3" class="edge">
<title>v2_w&#45;&#45;i0_w</title>
<path fill="none" stroke="#ffa500" stroke-width="2.5" d="M43.9941,-37.5924C57.9736,-46.9121 80.5712,-61.9771 94.4551,-71.2331"/>
<path fill="none" stroke="transparent" stroke-width="2.5" d="M42.8847,-39.2565C56.8642,-48.5762 79.4618,-63.6412 93.3457,-72.8972"/>
<path fill="none" stroke="#a020f0" stroke-width="2.5" d="M41.7753,-40.9206C55.7548,-50.2403 78.3524,-65.3053 92.2363,-74.5613"/>
<text text-anchor="middle" x="68" y="-61" font-family="Courier,monospace" font-weight="bold" font-size="10.00" fill="#000000"> </text>
</g>
<!-- i2_w -->
<g id="node6" class="node">
<title>i2_w</title>
<ellipse fill="none" stroke="#000000" cx="255.5" cy="-67" rx="14.5" ry="14.5"/>
<text text-anchor="middle" x="255.5" y="-64.5" font-family="Courier,monospace" font-weight="bold" font-size="10.00" fill="#000000">i2</text>
</g>
<!-- i1_w&#45;&#45;i2_w -->
<g id="edge5" class="edge">
<title>i1_w&#45;&#45;i2_w</title>
<path fill="none" stroke="#a020f0" stroke-width="2.5" d="M193.8598,-72.4025C207.1406,-69.9235 226.7159,-66.2694 239.9827,-63.7929"/>
<path fill="none" stroke="transparent" stroke-width="2.5" d="M194.2268,-74.3686C207.5076,-71.8895 227.0829,-68.2354 240.3497,-65.759"/>
<path fill="none" stroke="#a020f0" stroke-width="2.5" d="M194.5938,-76.3346C207.8746,-73.8555 227.4499,-70.2015 240.7166,-67.725"/>
<path fill="none" stroke="transparent" stroke-width="2.5" d="M194.9608,-78.3007C208.2416,-75.8216 227.8169,-72.1675 241.0836,-69.6911"/>
<path fill="none" stroke="#ffa500" stroke-width="2.5" d="M195.3277,-80.2667C208.6085,-77.7876 228.1839,-74.1336 241.4506,-71.6571"/>
<path fill="none" stroke="transparent" stroke-width="2.5" d="M195.6947,-82.2327C208.9755,-79.7537 228.5509,-76.0996 241.8176,-73.6231"/>
<path fill="none" stroke="#ffa500" stroke-width="2.5" d="M196.0617,-84.1988C209.3425,-81.7197 228.9179,-78.0656 242.1846,-75.5892"/>
<text text-anchor="middle" x="218" y="-77" font-family="Courier,monospace" font-weight="bold" font-size="10.00" fill="#000000"> </text>
</g>
<!-- v5_w -->
<g id="node9" class="node">
<title>v5_w</title>
<ellipse fill="none" stroke="#000000" cx="255.5" cy="-114" rx="14.5" ry="14.5"/>
<text text-anchor="middle" x="255.5" y="-111.5" font-family="Courier,monospace" font-weight="bold" font-size="10.00" fill="#000000">v5</text>
</g>
<!-- i1_w&#45;&#45;v5_w -->
<g id="edge8" class="edge">
<title>i1_w&#45;&#45;v5_w</title>
<path fill="none" stroke="#a020f0" stroke-width="2.5" d="M194.714,-85.0691C208.3654,-91.0757 229.4037,-100.3326 243.0131,-106.3207"/>
<path fill="none" stroke="transparent" stroke-width="2.5" d="M193.9085,-86.8997C207.5599,-92.9064 228.5982,-102.1632 242.2076,-108.1513"/>
<path fill="none" stroke="#ffa500" stroke-width="2.5" d="M193.103,-88.7304C206.7545,-94.737 227.7927,-103.9938 241.4021,-109.982"/>
<text text-anchor="middle" x="218" y="-102" font-family="Courier,monospace" font-weight="bold" font-size="10.00" fill="#000000"> </text>
</g>
<!-- v3_w -->
<g id="node7" class="node">
<title>v3_w</title>
<ellipse fill="none" stroke="#000000" cx="330.5" cy="-56" rx="14.5" ry="14.5"/>
<text text-anchor="middle" x="330.5" y="-53.5" font-family="Courier,monospace" font-weight="bold" font-size="10.00" fill="#000000">v3</text>
</g>
<!-- i2_w&#45;&#45;v3_w -->
<g id="edge6" class="edge">
<title>i2_w&#45;&#45;v3_w</title>
<path fill="none" stroke="#a020f0" stroke-width="2.5" d="M269.6705,-62.9003C282.9513,-60.9524 302.5267,-58.0814 315.7934,-56.1356"/>
<path fill="none" stroke="transparent" stroke-width="2.5" d="M269.9608,-64.8791C283.2416,-62.9312 302.8169,-60.0602 316.0836,-58.1144"/>
<path fill="none" stroke="#ffa500" stroke-width="2.5" d="M270.251,-66.8579C283.5318,-64.9101 303.1071,-62.039 316.3739,-60.0932"/>
<text text-anchor="middle" x="293" y="-65" font-family="Courier,monospace" font-weight="bold" font-size="10.00" fill="#000000"> </text>
</g>
<!-- v4_w -->
<g id="node8" class="node">
<title>v4_w</title>
<ellipse fill="none" stroke="#000000" cx="330.5" cy="-103" rx="14.5" ry="14.5"/>
<text text-anchor="middle" x="330.5" y="-100.5" font-family="Courier,monospace" font-weight="bold" font-size="10.00" fill="#000000">v4</text>
</g>
<!-- i2_w&#45;&#45;v4_w -->
<g id="edge7" class="edge">
<title>i2_w&#45;&#45;v4_w</title>
<path fill="none" stroke="#a020f0" stroke-width="2.5" d="M269.774,-71.633C283.4254,-78.1857 304.4637,-88.2841 318.073,-94.8166"/>
<path fill="none" stroke="transparent" stroke-width="2.5" d="M268.9085,-73.4361C282.5599,-79.9888 303.5982,-90.0871 317.2076,-96.6196"/>
<path fill="none" stroke="#ffa500" stroke-width="2.5" d="M268.043,-75.2391C281.6945,-81.7918 302.7327,-91.8902 316.3421,-98.4227"/>
<text text-anchor="middle" x="293" y="-89" font-family="Courier,monospace" font-weight="bold" font-size="10.00" fill="#000000"> </text>
</g>
<!-- v0_x -->
<g id="node10" class="node">
<title>v0_x</title>
<ellipse fill="none" stroke="#000000" cx="30.5" cy="-292" rx="14.5" ry="14.5"/>
<text text-anchor="middle" x="30.5" y="-289.5" font-family="Courier,monospace" font-weight="bold" font-size="10.00" fill="#000000">v0</text>
</g>
<!-- i0_x -->
<g id="node11" class="node">
<title>i0_x</title>
<ellipse fill="none" stroke="#000000" cx="105.5" cy="-248" rx="14.5" ry="14.5"/>
<text text-anchor="middle" x="105.5" y="-245.5" font-family="Courier,monospace" font-weight="bold" font-size="10.00" fill="#000000">i0</text>
</g>
<!-- v0_x&#45;&#45;i0_x -->
<g id="edge9" class="edge">
<title>v0_x&#45;&#45;i0_x:n</title>
<path fill="none" stroke="#ffa500" stroke-width="2.5" d="M45.3072,-290.5026C66.9754,-290.399 105.3005,-286.5574 103.5,-263"/>
<path fill="none" stroke="transparent" stroke-width="2.5" d="M45.3176,-292.5026C67.1749,-292.389 105.5,-288.5474 105.5,-263"/>
<path fill="none" stroke="#a020f0" stroke-width="2.5" d="M45.328,-294.5026C67.3744,-294.3791 105.6995,-290.5374 107.5,-263"/>
<text text-anchor="middle" x="68" y="-294" font-family="Courier,monospace" font-weight="bold" font-size="10.00" fill="#000000"> </text>
</g>
<!-- i1_x -->
<g id="node14" class="node">
<title>i1_x</title>
<ellipse fill="none" stroke="#000000" cx="180.5" cy="-248" rx="14.5" ry="14.5"/>
<text text-anchor="middle" x="180.5" y="-245.5" font-family="Courier,monospace" font-weight="bold" font-size="10.00" fill="#000000">i1</text>
</g>
<!-- i0_x&#45;&#45;i1_x -->
<g id="edge12" class="edge">
<title>i0_x&#45;&#45;i1_x</title>
<path fill="none" stroke="#a020f0" stroke-width="2.5" d="M120.3176,-238C133.5515,-238 152.8224,-238 165.9684,-238"/>
<path fill="none" stroke="transparent" stroke-width="2.5" d="M120.3176,-240C133.5515,-240 152.8224,-240 165.9684,-240"/>
<path fill="none" stroke="#a020f0" stroke-width="2.5" d="M120.3176,-242C133.5515,-242 152.8224,-242 165.9684,-242"/>
<path fill="none" stroke="transparent" stroke-width="2.5" d="M120.3176,-244C133.5515,-244 152.8224,-244 165.9684,-244"/>
<path fill="none" stroke="#a020f0" stroke-width="2.5" d="M120.3176,-246C133.5515,-246 152.8224,-246 165.9684,-246"/>
<path fill="none" stroke="transparent" stroke-width="2.5" d="M120.3176,-248C133.5515,-248 152.8224,-248 165.9684,-248"/>
<path fill="none" stroke="#ffa500" stroke-width="2.5" d="M120.3176,-250C133.5515,-250 152.8224,-250 165.9684,-250"/>
<path fill="none" stroke="transparent" stroke-width="2.5" d="M120.3176,-252C133.5515,-252 152.8224,-252 165.9684,-252"/>
<path fill="none" stroke="#ffa500" stroke-width="2.5" d="M120.3176,-254C133.5515,-254 152.8224,-254 165.9684,-254"/>
<path fill="none" stroke="transparent" stroke-width="2.5" d="M120.3176,-256C133.5515,-256 152.8224,-256 165.9684,-256"/>
<path fill="none" stroke="#ffa500" stroke-width="2.5" d="M120.3176,-258C133.5515,-258 152.8224,-258 165.9684,-258"/>
<text text-anchor="middle" x="143" y="-251" font-family="Courier,monospace" font-weight="bold" font-size="10.00" fill="#000000"> </text>
</g>
<!-- v1_x -->
<g id="node12" class="node">
<title>v1_x</title>
<ellipse fill="#a020f0" stroke="#000000" cx="30.5" cy="-245" rx="14.5" ry="14.5"/>
<text text-anchor="middle" x="30.5" y="-242.5" font-family="Courier,monospace" font-weight="bold" font-size="10.00" fill="#000000">v1</text>
</g>
<!-- v1_x&#45;&#45;i0_x -->
<g id="edge10" class="edge">
<title>v1_x&#45;&#45;i0_x</title>
<path fill="none" stroke="#a020f0" stroke-width="2.5" d="M45.7173,-235.6007C58.9512,-236.1301 78.2221,-236.9009 91.3681,-237.4267"/>
<path fill="none" stroke="transparent" stroke-width="2.5" d="M45.6373,-237.5991C58.8712,-238.1285 78.1421,-238.8993 91.2881,-239.4251"/>
<path fill="none" stroke="#a020f0" stroke-width="2.5" d="M45.5574,-239.5975C58.7913,-240.1269 78.0622,-240.8977 91.2082,-241.4235"/>
<path fill="none" stroke="transparent" stroke-width="2.5" d="M45.4775,-241.5959C58.7114,-242.1253 77.9823,-242.8961 91.1283,-243.4219"/>
<path fill="none" stroke="#a020f0" stroke-width="2.5" d="M45.3975,-243.5943C58.6314,-244.1237 77.9023,-244.8945 91.0483,-245.4203"/>
<path fill="none" stroke="transparent" stroke-width="2.5" d="M45.3176,-245.5927C58.5515,-246.1221 77.8224,-246.8929 90.9684,-247.4187"/>
<path fill="none" stroke="#a020f0" stroke-width="2.5" d="M45.2377,-247.5911C58.4716,-248.1205 77.7424,-248.8913 90.8885,-249.4171"/>
<path fill="none" stroke="transparent" stroke-width="2.5" d="M45.1577,-249.5895C58.3916,-250.1189 77.6625,-250.8897 90.8085,-251.4155"/>
<path fill="none" stroke="#a020f0" stroke-width="2.5" d="M45.0778,-251.5879C58.3117,-252.1173 77.5826,-252.8881 90.7286,-253.4139"/>
<path fill="none" stroke="transparent" stroke-width="2.5" d="M44.9978,-253.5863C58.2318,-254.1157 77.5026,-254.8865 90.6487,-255.4123"/>
<path fill="none" stroke="#ffa500" stroke-width="2.5" d="M44.9179,-255.5847C58.1518,-256.1141 77.4227,-256.8849 90.5687,-257.4107"/>
<text text-anchor="middle" x="68" y="-249" font-family="Courier,monospace" font-weight="bold" font-size="10.00" fill="#000000"> </text>
</g>
<!-- v2_x -->
<g id="node13" class="node">
<title>v2_x</title>
<ellipse fill="none" stroke="#000000" cx="30.5" cy="-198" rx="14.5" ry="14.5"/>
<text text-anchor="middle" x="30.5" y="-195.5" font-family="Courier,monospace" font-weight="bold" font-size="10.00" fill="#000000">v2</text>
</g>
<!-- v2_x&#45;&#45;i0_x -->
<g id="edge11" class="edge">
<title>v2_x&#45;&#45;i0_x:s</title>
<path fill="none" stroke="#ffa500" stroke-width="2.5" d="M46.0559,-188.5277C68.8686,-190.263 107.1937,-196.8494 115.5,-233"/>
<path fill="none" stroke="transparent" stroke-width="2.5" d="M45.9082,-190.5222C68.5299,-192.2341 106.855,-198.8205 113.5,-233"/>
<path fill="none" stroke="#ffa500" stroke-width="2.5" d="M45.7606,-192.5168C68.1911,-194.2052 106.5162,-200.7916 111.5,-233"/>
<path fill="none" stroke="transparent" stroke-width="2.5" d="M45.6129,-194.5113C67.8524,-196.1763 106.1775,-202.7627 109.5,-233"/>
<path fill="none" stroke="#ffa500" stroke-width="2.5" d="M45.4652,-196.5059C67.5136,-198.1474 105.8387,-204.7339 107.5,-233"/>
<path fill="none" stroke="transparent" stroke-width="2.5" d="M45.3176,-198.5004C67.1749,-200.1186 105.5,-206.705 105.5,-233"/>
<path fill="none" stroke="#ffa500" stroke-width="2.5" d="M45.1699,-200.4949C66.8361,-202.0897 105.1613,-208.6761 103.5,-233"/>
<path fill="none" stroke="transparent" stroke-width="2.5" d="M45.0223,-202.4895C66.4974,-204.0608 104.8225,-210.6472 101.5,-233"/>
<path fill="none" stroke="#ffa500" stroke-width="2.5" d="M44.8746,-204.484C66.1586,-206.0319 104.4838,-212.6183 99.5,-233"/>
<path fill="none" stroke="transparent" stroke-width="2.5" d="M44.7269,-206.4786C65.8199,-208.003 104.145,-214.5894 97.5,-233"/>
<path fill="none" stroke="#a020f0" stroke-width="2.5" d="M44.5793,-208.4731C65.4812,-209.9741 103.8063,-216.5605 95.5,-233"/>
<text text-anchor="middle" x="68" y="-205" font-family="Courier,monospace" font-weight="bold" font-size="10.00" fill="#000000"> </text>
</g>
<!-- i2_x -->
<g id="node15" class="node">
<title>i2_x</title>
<ellipse fill="none" stroke="#000000" cx="255.5" cy="-234" rx="14.5" ry="14.5"/>
<text text-anchor="middle" x="255.5" y="-231.5" font-family="Courier,monospace" font-weight="bold" font-size="10.00" fill="#000000">i2</text>
</g>
<!-- i1_x&#45;&#45;i2_x -->
<g id="edge13" class="edge">
<title>i1_x&#45;&#45;i2_x</title>
<path fill="none" stroke="#a020f0" stroke-width="2.5" d="M193.8598,-239.4025C207.1406,-236.9235 226.7159,-233.2694 239.9827,-230.7929"/>
<path fill="none" stroke="transparent" stroke-width="2.5" d="M194.2268,-241.3686C207.5076,-238.8895 227.0829,-235.2354 240.3497,-232.759"/>
<path fill="none" stroke="#a020f0" stroke-width="2.5" d="M194.5938,-243.3346C207.8746,-240.8555 227.4499,-237.2015 240.7166,-234.725"/>
<path fill="none" stroke="transparent" stroke-width="2.5" d="M194.9608,-245.3007C208.2416,-242.8216 227.8169,-239.1675 241.0836,-236.6911"/>
<path fill="none" stroke="#ffa500" stroke-width="2.5" d="M195.3277,-247.2667C208.6085,-244.7876 228.1839,-241.1336 241.4506,-238.6571"/>
<path fill="none" stroke="transparent" stroke-width="2.5" d="M195.6947,-249.2327C208.9755,-246.7537 228.5509,-243.0996 241.8176,-240.6231"/>
<path fill="none" stroke="#ffa500" stroke-width="2.5" d="M196.0617,-251.1988C209.3425,-248.7197 228.9179,-245.0656 242.1846,-242.5892"/>
<text text-anchor="middle" x="218" y="-244" font-family="Courier,monospace" font-weight="bold" font-size="10.00" fill="#000000"> </text>
</g>
<!-- v5_x -->
<g id="node18" class="node">
<title>v5_x</title>
<ellipse fill="#ffa500" stroke="#000000" cx="255.5" cy="-281" rx="14.5" ry="14.5"/>
<text text-anchor="middle" x="255.5" y="-278.5" font-family="Courier,monospace" font-weight="bold" font-size="10.00" fill="#000000">v5</text>
</g>
<!-- i1_x&#45;&#45;v5_x -->
<g id="edge16" class="edge">
<title>i1_x&#45;&#45;v5_x</title>
<path fill="none" stroke="#a020f0" stroke-width="2.5" d="M194.714,-252.0691C208.3654,-258.0757 229.4037,-267.3326 243.0131,-273.3207"/>
<path fill="none" stroke="transparent" stroke-width="2.5" d="M193.9085,-253.8997C207.5599,-259.9064 228.5982,-269.1632 242.2076,-275.1513"/>
<path fill="none" stroke="#ffa500" stroke-width="2.5" d="M193.103,-255.7304C206.7545,-261.737 227.7927,-270.9938 241.4021,-276.982"/>
<text text-anchor="middle" x="218" y="-269" font-family="Courier,monospace" font-weight="bold" font-size="10.00" fill="#000000"> </text>
</g>
<!-- v3_x -->
<g id="node16" class="node">
<title>v3_x</title>
<ellipse fill="none" stroke="#000000" cx="330.5" cy="-223" rx="14.5" ry="14.5"/>
<text text-anchor="middle" x="330.5" y="-220.5" font-family="Courier,monospace" font-weight="bold" font-size="10.00" fill="#000000">v3</text>
</g>
<!-- i2_x&#45;&#45;v3_x -->
<g id="edge14" class="edge">
<title>i2_x&#45;&#45;v3_x</title>
<path fill="none" stroke="#a020f0" stroke-width="2.5" d="M269.6705,-229.9003C282.9513,-227.9524 302.5267,-225.0814 315.7934,-223.1356"/>
<path fill="none" stroke="transparent" stroke-width="2.5" d="M269.9608,-231.8791C283.2416,-229.9312 302.8169,-227.0602 316.0836,-225.1144"/>
<path fill="none" stroke="#ffa500" stroke-width="2.5" d="M270.251,-233.8579C283.5318,-231.9101 303.1071,-229.039 316.3739,-227.0932"/>
<text text-anchor="middle" x="293" y="-232" font-family="Courier,monospace" font-weight="bold" font-size="10.00" fill="#000000"> </text>
</g>
<!-- v4_x -->
<g id="node17" class="node">
<title>v4_x</title>
<ellipse fill="none" stroke="#000000" cx="330.5" cy="-270" rx="14.5" ry="14.5"/>
<text text-anchor="middle" x="330.5" y="-267.5" font-family="Courier,monospace" font-weight="bold" font-size="10.00" fill="#000000">v4</text>
</g>
<!-- i2_x&#45;&#45;v4_x -->
<g id="edge15" class="edge">
<title>i2_x&#45;&#45;v4_x</title>
<path fill="none" stroke="#a020f0" stroke-width="2.5" d="M269.774,-238.633C283.4254,-245.1857 304.4637,-255.2841 318.073,-261.8166"/>
<path fill="none" stroke="transparent" stroke-width="2.5" d="M268.9085,-240.4361C282.5599,-246.9888 303.5982,-257.0871 317.2076,-263.6196"/>
<path fill="none" stroke="#ffa500" stroke-width="2.5" d="M268.043,-242.2391C281.6945,-248.7918 302.7327,-258.8902 316.3421,-265.4227"/>
<text text-anchor="middle" x="293" y="-256" font-family="Courier,monospace" font-weight="bold" font-size="10.00" fill="#000000"> </text>
</g>
<!-- v0_z -->
<g id="node19" class="node">
<title>v0_z</title>
<ellipse fill="none" stroke="#000000" cx="30.5" cy="-459" rx="14.5" ry="14.5"/>
<text text-anchor="middle" x="30.5" y="-456.5" font-family="Courier,monospace" font-weight="bold" font-size="10.00" fill="#000000">v0</text>
</g>
<!-- i0_z -->
<g id="node20" class="node">
<title>i0_z</title>
<ellipse fill="none" stroke="#000000" cx="105.5" cy="-415" rx="14.5" ry="14.5"/>
<text text-anchor="middle" x="105.5" y="-412.5" font-family="Courier,monospace" font-weight="bold" font-size="10.00" fill="#000000">i0</text>
</g>
<!-- v0_z&#45;&#45;i0_z -->
<g id="edge17" class="edge">
<title>v0_z&#45;&#45;i0_z</title>
<path fill="none" stroke="#ffa500" stroke-width="2.5" d="M43.2227,-451.536C57.0979,-443.3959 79.1645,-430.4502 92.9652,-422.3538"/>
<text text-anchor="middle" x="68" y="-442" font-family="Courier,monospace" font-weight="bold" font-size="10.00" fill="#000000"> </text>
</g>
<!-- i1_z -->
<g id="node23" class="node">
<title>i1_z</title>
<ellipse fill="none" stroke="#000000" cx="180.5" cy="-415" rx="14.5" ry="14.5"/>
<text text-anchor="middle" x="180.5" y="-412.5" font-family="Courier,monospace" font-weight="bold" font-size="10.00" fill="#000000">i1</text>
</g>
<!-- i0_z&#45;&#45;i1_z -->
<g id="edge20" class="edge">
<title>i0_z&#45;&#45;i1_z</title>
<path fill="none" stroke="#ffa500" stroke-width="2.5" d="M120.3176,-411C133.5515,-411 152.8224,-411 165.9684,-411"/>
<path fill="none" stroke="transparent" stroke-width="2.5" d="M120.3176,-413C133.5515,-413 152.8224,-413 165.9684,-413"/>
<path fill="none" stroke="#ffa500" stroke-width="2.5" d="M120.3176,-415C133.5515,-415 152.8224,-415 165.9684,-415"/>
<path fill="none" stroke="transparent" stroke-width="2.5" d="M120.3176,-417C133.5515,-417 152.8224,-417 165.9684,-417"/>
<path fill="none" stroke="#ffa500" stroke-width="2.5" d="M120.3176,-419C133.5515,-419 152.8224,-419 165.9684,-419"/>
<text text-anchor="middle" x="143" y="-418" font-family="Courier,monospace" font-weight="bold" font-size="10.00" fill="#000000"> </text>
</g>
<!-- v1_z -->
<g id="node21" class="node">
<title>v1_z</title>
<ellipse fill="none" stroke="#000000" cx="30.5" cy="-412" rx="14.5" ry="14.5"/>
<text text-anchor="middle" x="30.5" y="-409.5" font-family="Courier,monospace" font-weight="bold" font-size="10.00" fill="#000000">v1</text>
</g>
<!-- v1_z&#45;&#45;i0_z -->
<g id="edge18" class="edge">
<title>v1_z&#45;&#45;i0_z</title>
<path fill="none" stroke="#ffa500" stroke-width="2.5" d="M45.3176,-412.5927C58.5515,-413.1221 77.8224,-413.8929 90.9684,-414.4187"/>
<text text-anchor="middle" x="68" y="-416" font-family="Courier,monospace" font-weight="bold" font-size="10.00" fill="#000000"> </text>
</g>
<!-- v2_z -->
<g id="node22" class="node">
<title>v2_z</title>
<ellipse fill="none" stroke="#000000" cx="30.5" cy="-365" rx="14.5" ry="14.5"/>
<text text-anchor="middle" x="30.5" y="-362.5" font-family="Courier,monospace" font-weight="bold" font-size="10.00" fill="#000000">v2</text>
</g>
<!-- v2_z&#45;&#45;i0_z -->
<g id="edge19" class="edge">
<title>v2_z&#45;&#45;i0_z</title>
<path fill="none" stroke="#ffa500" stroke-width="2.5" d="M42.8847,-373.2565C56.8642,-382.5762 79.4618,-397.6412 93.3457,-406.8972"/>
<text text-anchor="middle" x="68" y="-395" font-family="Courier,monospace" font-weight="bold" font-size="10.00" fill="#000000"> </text>
</g>
<!-- i2_z -->
<g id="node24" class="node">
<title>i2_z</title>
<ellipse fill="none" stroke="#000000" cx="255.5" cy="-390" rx="14.5" ry="14.5"/>
<text text-anchor="middle" x="255.5" y="-387.5" font-family="Courier,monospace" font-weight="bold" font-size="10.00" fill="#000000">i2</text>
</g>
<!-- i1_z&#45;&#45;i2_z -->
<g id="edge21" class="edge">
<title>i1_z&#45;&#45;i2_z</title>
<path fill="none" stroke="#ffa500" stroke-width="2.5" d="M193.6237,-408.5172C207.0715,-404.0346 227.4399,-397.2452 240.9446,-392.7436"/>
<path fill="none" stroke="transparent" stroke-width="2.5" d="M194.2562,-410.4146C207.704,-405.932 228.0724,-399.1425 241.5771,-394.641"/>
<path fill="none" stroke="#ffa500" stroke-width="2.5" d="M194.8886,-412.312C208.3364,-407.8294 228.7048,-401.0399 242.2095,-396.5383"/>
<text text-anchor="middle" x="218" y="-406" font-family="Courier,monospace" font-weight="bold" font-size="10.00" fill="#000000"> </text>
</g>
<!-- v5_z -->
<g id="node27" class="node">
<title>v5_z</title>
<ellipse fill="#ffa500" stroke="#000000" cx="255.5" cy="-437" rx="14.5" ry="14.5"/>
<text text-anchor="middle" x="255.5" y="-434.5" font-family="Courier,monospace" font-weight="bold" font-size="10.00" fill="#000000">v5</text>
</g>
<!-- i1_z&#45;&#45;v5_z -->
<g id="edge24" class="edge">
<title>i1_z&#45;&#45;v5_z</title>
<path fill="none" stroke="#ffa500" stroke-width="2.5" d="M196.8587,-411.4615C210.2675,-415.3947 230.3203,-421.2769 243.7081,-425.204"/>
<path fill="none" stroke="transparent" stroke-width="2.5" d="M196.2958,-413.3806C209.7046,-417.3139 229.7573,-423.196 243.1452,-427.1231"/>
<path fill="none" stroke="#ffa500" stroke-width="2.5" d="M195.7328,-415.2998C209.1416,-419.233 229.1944,-425.1151 242.5822,-429.0422"/>
<path fill="none" stroke="transparent" stroke-width="2.5" d="M195.1699,-417.2189C208.5787,-421.1521 228.6314,-427.0343 242.0193,-430.9614"/>
<path fill="none" stroke="#ffa500" stroke-width="2.5" d="M194.6069,-419.138C208.0157,-423.0713 228.0685,-428.9534 241.4563,-432.8805"/>
<path fill="none" stroke="transparent" stroke-width="2.5" d="M194.044,-421.0572C207.4528,-424.9904 227.5055,-430.8726 240.8934,-434.7997"/>
<path fill="none" stroke="#ffa500" stroke-width="2.5" d="M193.481,-422.9763C206.8898,-426.9096 226.9426,-432.7917 240.3304,-436.7188"/>
<path fill="none" stroke="transparent" stroke-width="2.5" d="M192.9181,-424.8954C206.3269,-428.8287 226.3796,-434.7108 239.7675,-438.6379"/>
<path fill="none" stroke="#ffa500" stroke-width="2.5" d="M192.3551,-426.8146C205.7639,-430.7478 225.8167,-436.63 239.2045,-440.5571"/>
<text text-anchor="middle" x="218" y="-430" font-family="Courier,monospace" font-weight="bold" font-size="10.00" fill="#000000"> </text>
</g>
<!-- v3_z -->
<g id="node25" class="node">
<title>v3_z</title>
<ellipse fill="none" stroke="#000000" cx="330.5" cy="-379" rx="14.5" ry="14.5"/>
<text text-anchor="middle" x="330.5" y="-376.5" font-family="Courier,monospace" font-weight="bold" font-size="10.00" fill="#000000">v3</text>
</g>
<!-- i2_z&#45;&#45;v3_z -->
<g id="edge22" class="edge">
<title>i2_z&#45;&#45;v3_z</title>
<path fill="none" stroke="#ffa500" stroke-width="2.5" d="M269.9608,-387.8791C283.2416,-385.9312 302.8169,-383.0602 316.0836,-381.1144"/>
<text text-anchor="middle" x="293" y="-388" font-family="Courier,monospace" font-weight="bold" font-size="10.00" fill="#000000"> </text>
</g>
<!-- v4_z -->
<g id="node26" class="node">
<title>v4_z</title>
<ellipse fill="none" stroke="#000000" cx="330.5" cy="-426" rx="14.5" ry="14.5"/>
<text text-anchor="middle" x="330.5" y="-423.5" font-family="Courier,monospace" font-weight="bold" font-size="10.00" fill="#000000">v4</text>
</g>
<!-- i2_z&#45;&#45;v4_z -->
<g id="edge23" class="edge">
<title>i2_z&#45;&#45;v4_z</title>
<path fill="none" stroke="#ffa500" stroke-width="2.5" d="M268.9085,-396.4361C282.5599,-402.9888 303.5982,-413.0871 317.2076,-419.6196"/>
<text text-anchor="middle" x="293" y="-412" font-family="Courier,monospace" font-weight="bold" font-size="10.00" fill="#000000"> </text>
</g>
<!-- v0_y -->
<g id="node28" class="node">
<title>v0_y</title>
<ellipse fill="none" stroke="#000000" cx="30.5" cy="-626" rx="14.5" ry="14.5"/>
<text text-anchor="middle" x="30.5" y="-623.5" font-family="Courier,monospace" font-weight="bold" font-size="10.00" fill="#000000">v0</text>
</g>
<!-- i0_y -->
<g id="node29" class="node">
<title>i0_y</title>
<ellipse fill="none" stroke="#000000" cx="105.5" cy="-582" rx="14.5" ry="14.5"/>
<text text-anchor="middle" x="105.5" y="-579.5" font-family="Courier,monospace" font-weight="bold" font-size="10.00" fill="#000000">i0</text>
</g>
<!-- v0_y&#45;&#45;i0_y -->
<g id="edge25" class="edge">
<title>v0_y&#45;&#45;i0_y</title>
<path fill="none" stroke="#a020f0" stroke-width="2.5" d="M43.2227,-618.536C57.0979,-610.3959 79.1645,-597.4502 92.9652,-589.3538"/>
<text text-anchor="middle" x="68" y="-609" font-family="Courier,monospace" font-weight="bold" font-size="10.00" fill="#000000"> </text>
</g>
<!-- i1_y -->
<g id="node32" class="node">
<title>i1_y</title>
<ellipse fill="none" stroke="#000000" cx="180.5" cy="-582" rx="14.5" ry="14.5"/>
<text text-anchor="middle" x="180.5" y="-579.5" font-family="Courier,monospace" font-weight="bold" font-size="10.00" fill="#000000">i1</text>
</g>
<!-- i0_y&#45;&#45;i1_y -->
<g id="edge28" class="edge">
<title>i0_y&#45;&#45;i1_y</title>
<path fill="none" stroke="#a020f0" stroke-width="2.5" d="M120.3176,-578C133.5515,-578 152.8224,-578 165.9684,-578"/>
<path fill="none" stroke="transparent" stroke-width="2.5" d="M120.3176,-580C133.5515,-580 152.8224,-580 165.9684,-580"/>
<path fill="none" stroke="#a020f0" stroke-width="2.5" d="M120.3176,-582C133.5515,-582 152.8224,-582 165.9684,-582"/>
<path fill="none" stroke="transparent" stroke-width="2.5" d="M120.3176,-584C133.5515,-584 152.8224,-584 165.9684,-584"/>
<path fill="none" stroke="#a020f0" stroke-width="2.5" d="M120.3176,-586C133.5515,-586 152.8224,-586 165.9684,-586"/>
<text text-anchor="middle" x="143" y="-585" font-family="Courier,monospace" font-weight="bold" font-size="10.00" fill="#000000"> </text>
</g>
<!-- v1_y -->
<g id="node30" class="node">
<title>v1_y</title>
<ellipse fill="#a020f0" stroke="#000000" cx="30.5" cy="-579" rx="14.5" ry="14.5"/>
<text text-anchor="middle" x="30.5" y="-576.5" font-family="Courier,monospace" font-weight="bold" font-size="10.00" fill="#000000">v1</text>
</g>
<!-- v1_y&#45;&#45;i0_y -->
<g id="edge26" class="edge">
<title>v1_y&#45;&#45;i0_y</title>
<path fill="none" stroke="#a020f0" stroke-width="2.5" d="M45.6373,-571.5991C58.8712,-572.1285 78.1421,-572.8993 91.2881,-573.4251"/>
<path fill="none" stroke="transparent" stroke-width="2.5" d="M45.5574,-573.5975C58.7913,-574.1269 78.0622,-574.8977 91.2082,-575.4235"/>
<path fill="none" stroke="#a020f0" stroke-width="2.5" d="M45.4775,-575.5959C58.7114,-576.1253 77.9823,-576.8961 91.1283,-577.4219"/>
<path fill="none" stroke="transparent" stroke-width="2.5" d="M45.3975,-577.5943C58.6314,-578.1237 77.9023,-578.8945 91.0483,-579.4203"/>
<path fill="none" stroke="#a020f0" stroke-width="2.5" d="M45.3176,-579.5927C58.5515,-580.1221 77.8224,-580.8929 90.9684,-581.4187"/>
<path fill="none" stroke="transparent" stroke-width="2.5" d="M45.2377,-581.5911C58.4716,-582.1205 77.7424,-582.8913 90.8885,-583.4171"/>
<path fill="none" stroke="#a020f0" stroke-width="2.5" d="M45.1577,-583.5895C58.3916,-584.1189 77.6625,-584.8897 90.8085,-585.4155"/>
<path fill="none" stroke="transparent" stroke-width="2.5" d="M45.0778,-585.5879C58.3117,-586.1173 77.5826,-586.8881 90.7286,-587.4139"/>
<path fill="none" stroke="#a020f0" stroke-width="2.5" d="M44.9978,-587.5863C58.2318,-588.1157 77.5026,-588.8865 90.6487,-589.4123"/>
<text text-anchor="middle" x="68" y="-583" font-family="Courier,monospace" font-weight="bold" font-size="10.00" fill="#000000"> </text>
</g>
<!-- v2_y -->
<g id="node31" class="node">
<title>v2_y</title>
<ellipse fill="none" stroke="#000000" cx="30.5" cy="-532" rx="14.5" ry="14.5"/>
<text text-anchor="middle" x="30.5" y="-529.5" font-family="Courier,monospace" font-weight="bold" font-size="10.00" fill="#000000">v2</text>
</g>
<!-- v2_y&#45;&#45;i0_y -->
<g id="edge27" class="edge">
<title>v2_y&#45;&#45;i0_y</title>
<path fill="none" stroke="#a020f0" stroke-width="2.5" d="M42.8847,-540.2565C56.8642,-549.5762 79.4618,-564.6412 93.3457,-573.8972"/>
<text text-anchor="middle" x="68" y="-562" font-family="Courier,monospace" font-weight="bold" font-size="10.00" fill="#000000"> </text>
</g>
<!-- i2_y -->
<g id="node33" class="node">
<title>i2_y</title>
<ellipse fill="none" stroke="#000000" cx="255.5" cy="-557" rx="14.5" ry="14.5"/>
<text text-anchor="middle" x="255.5" y="-554.5" font-family="Courier,monospace" font-weight="bold" font-size="10.00" fill="#000000">i2</text>
</g>
<!-- i1_y&#45;&#45;i2_y -->
<g id="edge29" class="edge">
<title>i1_y&#45;&#45;i2_y</title>
<path fill="none" stroke="#a020f0" stroke-width="2.5" d="M193.6237,-575.5172C207.0715,-571.0346 227.4399,-564.2452 240.9446,-559.7436"/>
<path fill="none" stroke="transparent" stroke-width="2.5" d="M194.2562,-577.4146C207.704,-572.932 228.0724,-566.1425 241.5771,-561.641"/>
<path fill="none" stroke="#a020f0" stroke-width="2.5" d="M194.8886,-579.312C208.3364,-574.8294 228.7048,-568.0399 242.2095,-563.5383"/>
<text text-anchor="middle" x="218" y="-573" font-family="Courier,monospace" font-weight="bold" font-size="10.00" fill="#000000"> </text>
</g>
<!-- v5_y -->
<g id="node36" class="node">
<title>v5_y</title>
<ellipse fill="none" stroke="#000000" cx="255.5" cy="-604" rx="14.5" ry="14.5"/>
<text text-anchor="middle" x="255.5" y="-601.5" font-family="Courier,monospace" font-weight="bold" font-size="10.00" fill="#000000">v5</text>
</g>
<!-- i1_y&#45;&#45;v5_y -->
<g id="edge32" class="edge">
<title>i1_y&#45;&#45;v5_y</title>
<path fill="none" stroke="#a020f0" stroke-width="2.5" d="M194.6069,-586.138C208.0157,-590.0713 228.0685,-595.9534 241.4563,-599.8805"/>
<text text-anchor="middle" x="218" y="-597" font-family="Courier,monospace" font-weight="bold" font-size="10.00" fill="#000000"> </text>
</g>
<!-- v3_y -->
<g id="node34" class="node">
<title>v3_y</title>
<ellipse fill="none" stroke="#000000" cx="330.5" cy="-546" rx="14.5" ry="14.5"/>
<text text-anchor="middle" x="330.5" y="-543.5" font-family="Courier,monospace" font-weight="bold" font-size="10.00" fill="#000000">v3</text>
</g>
<!-- i2_y&#45;&#45;v3_y -->
<g id="edge30" class="edge">
<title>i2_y&#45;&#45;v3_y</title>
<path fill="none" stroke="#a020f0" stroke-width="2.5" d="M269.9608,-554.8791C283.2416,-552.9312 302.8169,-550.0602 316.0836,-548.1144"/>
<text text-anchor="middle" x="293" y="-555" font-family="Courier,monospace" font-weight="bold" font-size="10.00" fill="#000000"> </text>
</g>
<!-- v4_y -->
<g id="node35" class="node">
<title>v4_y</title>
<ellipse fill="none" stroke="#000000" cx="330.5" cy="-593" rx="14.5" ry="14.5"/>
<text text-anchor="middle" x="330.5" y="-590.5" font-family="Courier,monospace" font-weight="bold" font-size="10.00" fill="#000000">v4</text>
</g>
<!-- i2_y&#45;&#45;v4_y -->
<g id="edge31" class="edge">
<title>i2_y&#45;&#45;v4_y</title>
<path fill="none" stroke="#a020f0" stroke-width="2.5" d="M268.9085,-563.4361C282.5599,-569.9888 303.5982,-580.0871 317.2076,-586.6196"/>
<text text-anchor="middle" x="293" y="-579" font-family="Courier,monospace" font-weight="bold" font-size="10.00" fill="#000000"> </text>
</g>
</g>
</svg>
