<?xml version="1.0" encoding="UTF-8" standalone="no"?>
<!DOCTYPE svg PUBLIC "-//W3C//DTD SVG 1.1//EN"
 "http://www.w3.org/Graphics/SVG/1.1/DTD/svg11.dtd">
<!-- Generated by graphviz version 2.40.1 (0)
 -->
<!-- Title: G Pages: 1 -->
<svg width="397pt" height="181pt"
 viewBox="0.00 0.00 397.00 181.00" xmlns="http://www.w3.org/2000/svg" xmlns:xlink="http://www.w3.org/1999/xlink">
<g id="graph0" class="graph" transform="scale(1 1) rotate(0) translate(4 177)">
<title>G</title>
<polygon fill="#ffffff" stroke="transparent" points="-4,4 -4,-177 393,-177 393,4 -4,4"/>
<!-- N11 -->
<g id="node1" class="node">
<title>N11</title>
<ellipse fill="none" stroke="#000000" cx="198.5" cy="-108.5" rx="14.5" ry="14.5"/>
<text text-anchor="middle" x="198.5" y="-106" font-family="Courier,monospace" font-weight="bold" font-size="10.00" fill="#000000">N11</text>
</g>
<!-- N6 -->
<g id="node3" class="node">
<title>N6</title>
<ellipse fill="none" stroke="#000000" cx="286.5" cy="-135.5" rx="14.5" ry="14.5"/>
<text text-anchor="middle" x="286.5" y="-133" font-family="Courier,monospace" font-weight="bold" font-size="10.00" fill="#000000">N6</text>
</g>
<!-- N11&#45;&#45;N6 -->
<g id="edge2" class="edge">
<title>N11&#45;&#45;N6</title>
<path fill="none" stroke="#000000" d="M212.6387,-112.838C229.0605,-117.8765 255.9896,-126.1389 272.3964,-131.1727"/>
<text text-anchor="middle" x="242.5" y="-127.5" font-family="Courier,monospace" font-weight="bold" font-size="10.00" fill="#000000">3.0</text>
</g>
<!-- v5 -->
<g id="node9" class="node">
<title>v5</title>
<ellipse fill="none" stroke="#000000" cx="286.5" cy="-88.5" rx="14.5" ry="14.5"/>
<text text-anchor="middle" x="286.5" y="-86" font-family="Courier,monospace" font-weight="bold" font-size="10.00" fill="#000000">v5</text>
</g>
<!-- N11&#45;&#45;v5 -->
<g id="edge3" class="edge">
<title>N11&#45;&#45;v5</title>
<path fill="none" stroke="#000000" d="M211.84,-102.2706C217.6174,-99.8086 224.5281,-97.1731 231,-95.5 244.5398,-91.9996 260.4079,-90.2223 271.7008,-89.3372"/>
<text text-anchor="middle" x="242.5" y="-98.5" font-family="Courier,monospace" font-weight="bold" font-size="10.00" fill="#000000">7.0</text>
</g>
<!-- N2 -->
<g id="node2" class="node">
<title>N2</title>
<ellipse fill="none" stroke="#000000" cx="102.5" cy="-61.5" rx="14.5" ry="14.5"/>
<text text-anchor="middle" x="102.5" y="-59" font-family="Courier,monospace" font-weight="bold" font-size="10.00" fill="#000000">N2</text>
</g>
<!-- N2&#45;&#45;N11 -->
<g id="edge1" class="edge">
<title>N2&#45;&#45;N11</title>
<path fill="none" stroke="#000000" d="M115.8484,-68.0351C134.1895,-77.0146 166.9837,-93.0701 185.265,-102.0204"/>
<text text-anchor="middle" x="150.5" y="-95.5" font-family="Courier,monospace" font-weight="bold" font-size="10.00" fill="#000000">4.0</text>
</g>
<!-- v0 -->
<g id="node4" class="node">
<title>v0</title>
<ellipse fill="none" stroke="#000000" cx="198.5" cy="-61.5" rx="14.5" ry="14.5"/>
<text text-anchor="middle" x="198.5" y="-59" font-family="Courier,monospace" font-weight="bold" font-size="10.00" fill="#000000">v0</text>
</g>
<!-- N2&#45;&#45;v0 -->
<g id="edge4" class="edge">
<title>N2&#45;&#45;v0</title>
<path fill="none" stroke="#000000" d="M117.0803,-61.5C135.124,-61.5 165.6756,-61.5 183.7825,-61.5"/>
<text text-anchor="middle" x="150.5" y="-64.5" font-family="Courier,monospace" font-weight="bold" font-size="10.00" fill="#000000">11.0</text>
</g>
<!-- v2 -->
<g id="node6" class="node">
<title>v2</title>
<ellipse fill="none" stroke="#000000" cx="198.5" cy="-14.5" rx="14.5" ry="14.5"/>
<text text-anchor="middle" x="198.5" y="-12" font-family="Courier,monospace" font-weight="bold" font-size="10.00" fill="#000000">v2</text>
</g>
<!-- N2&#45;&#45;v2 -->
<g id="edge6" class="edge">
<title>N2&#45;&#45;v2</title>
<path fill="none" stroke="#000000" d="M115.8484,-54.9649C134.1895,-45.9854 166.9837,-29.9299 185.265,-20.9796"/>
<text text-anchor="middle" x="150.5" y="-48.5" font-family="Courier,monospace" font-weight="bold" font-size="10.00" fill="#000000">10.0</text>
</g>
<!-- v3 -->
<g id="node7" class="node">
<title>v3</title>
<ellipse fill="none" stroke="#000000" cx="374.5" cy="-158.5" rx="14.5" ry="14.5"/>
<text text-anchor="middle" x="374.5" y="-156" font-family="Courier,monospace" font-weight="bold" font-size="10.00" fill="#000000">v3</text>
</g>
<!-- N6&#45;&#45;v3 -->
<g id="edge7" class="edge">
<title>N6&#45;&#45;v3</title>
<path fill="none" stroke="#000000" d="M300.6387,-139.1953C317.0605,-143.4874 343.9896,-150.5257 360.3964,-154.8138"/>
<text text-anchor="middle" x="330.5" y="-152.5" font-family="Courier,monospace" font-weight="bold" font-size="10.00" fill="#000000">3.0</text>
</g>
<!-- v4 -->
<g id="node8" class="node">
<title>v4</title>
<ellipse fill="none" stroke="#000000" cx="374.5" cy="-111.5" rx="14.5" ry="14.5"/>
<text text-anchor="middle" x="374.5" y="-109" font-family="Courier,monospace" font-weight="bold" font-size="10.00" fill="#000000">v4</text>
</g>
<!-- N6&#45;&#45;v4 -->
<g id="edge8" class="edge">
<title>N6&#45;&#45;v4</title>
<path fill="none" stroke="#000000" d="M300.6387,-131.644C317.0605,-127.1653 343.9896,-119.821 360.3964,-115.3464"/>
<text text-anchor="middle" x="330.5" y="-128.5" font-family="Courier,monospace" font-weight="bold" font-size="10.00" fill="#000000">4.0</text>
</g>
<!-- v1 -->
<g id="node5" class="node">
<title>v1</title>
<ellipse fill="none" stroke="#000000" cx="14.5" cy="-61.5" rx="14.5" ry="14.5"/>
<text text-anchor="middle" x="14.5" y="-59" font-family="Courier,monospace" font-weight="bold" font-size="10.00" fill="#000000">v1</text>
</g>
<!-- v1&#45;&#45;N2 -->
<g id="edge5" class="edge">
<title>v1&#45;&#45;N2</title>
<path fill="none" stroke="#000000" d="M29.0314,-61.5C45.3364,-61.5 71.6332,-61.5 87.947,-61.5"/>
<text text-anchor="middle" x="58.5" y="-64.5" font-family="Courier,monospace" font-weight="bold" font-size="10.00" fill="#000000">2.0</text>
</g>
</g>
</svg>
