<svg class="bob" font-family="arial" font-size="14" height="496" width="696" xmlns="http://www.w3.org/2000/svg">
<defs>
<marker id="triangle" markerHeight="8" markerWidth="8" orient="auto" refX="4" refY="2" viewBox="0 0 8 4">
<polygon class="fg_fill" points="0,0 0,4 8,2 0,0"/>
</marker>
<marker id="clear_triangle" markerHeight="10" markerWidth="10" orient="auto" refX="1" refY="7" viewBox="0 0 20 14">
<polygon class="bg_fill" points="2,2 2,12 18,7 2,2"/>
</marker>
<marker id="circle" markerHeight="5" markerWidth="5" orient="auto" refX="10" refY="10" viewBox="0 0 20 20">
<circle class="fg_fill" cx="10" cy="10" r="8"/>
</marker>
<marker id="square" markerHeight="5" markerWidth="5" orient="auto" refX="10" refY="10" viewBox="0 0 20 20">
<rect class="fg_fill" height="20" width="20" x="0" y="0"/>
</marker>
<marker id="open_circle" markerHeight="10" markerWidth="10" orient="auto" refX="10" refY="10" viewBox="0 0 20 20">
<circle class="bg_fill" cx="10" cy="10" r="4"/>
</marker>
<marker id="big_open_circle" markerHeight="20" markerWidth="20" orient="auto" refX="20" refY="20" viewBox="0 0 40 40">
<circle class="bg_fill" cx="20" cy="20" r="6"/>
</marker>
</defs>
<style type="text/css">

rect.backdrop {
    fill: white;
}
text{
    fill: black;
}

circle {
    fill: none;
    stroke: black;
    stroke-width: 2;
}

line {
    stroke: black;
    stroke-width: 2;
    stroke-opacity: 1;
    fill-opacity: 1;
    stroke-linecap: round;
    stroke-linejoin: miter;
}

path {
    fill: none;
    stroke: black;
    stroke-width: 2;
    stroke-opacity: 1;
    fill-opacity: 1;
    stroke-linecap: round;
    stroke-linejoin: miter;
}

line.dashed {
    stroke-dasharray: 5;
}

.fg_fill {
    fill: black;
}


.bg_fill {
    fill: white;
    stroke: black;
    stroke-width: 2;
}

tspan.head{
    fill: none;
    stroke: none;
}
    
</style>
<rect class="backdrop" height="496" width="696" x="0" y="0"/>
<g>
<line x1="4" x2="4" y1="12" y2="484"/>
<path d="M 4 484 A 4 4 0 0 0 8 488"/>
<path d="M 8 8 A 4 4 0 0 0 4 12"/>
</g>
<g>
<line x1="8" x2="688" y1="8" y2="8"/>
<path d="M 692 12 A 4 4 0 0 0 688 8"/>
</g>
<g>
<line x1="8" x2="688" y1="488" y2="488"/>
<path d="M 688 488 A 4 4 0 0 0 692 484"/>
</g>
<g>
<line x1="20" x2="20" y1="252" y2="468"/>
<path d="M 20 468 A 4 4 0 0 0 24 472"/>
<path d="M 24 248 A 4 4 0 0 0 20 252"/>
</g>
<g>
<line x1="24" x2="672" y1="248" y2="248"/>
<path d="M 676 252 A 4 4 0 0 0 672 248"/>
</g>
<g>
<line x1="24" x2="672" y1="472" y2="472"/>
<path d="M 672 472 A 4 4 0 0 0 676 468"/>
</g>
<g>
<line x1="36" x2="36" y1="300" y2="452"/>
<path d="M 36 452 A 4 4 0 0 0 40 456"/>
<path d="M 40 296 A 4 4 0 0 0 36 300"/>
</g>
<g>
<line x1="40" x2="224" y1="296" y2="296"/>
<path d="M 228 300 A 4 4 0 0 0 224 296"/>
</g>
<g>
<line x1="40" x2="224" y1="456" y2="456"/>
<path d="M 224 456 A 4 4 0 0 0 228 452"/>
</g>
<g>
<line x1="84" x2="84" y1="412" y2="436"/>
<path d="M 84 436 A 4 4 0 0 0 88 440"/>
<path d="M 88 408 A 4 4 0 0 0 84 412"/>
</g>
<g>
<line x1="88" x2="168" y1="408" y2="408"/>
<path d="M 172 412 A 4 4 0 0 0 168 408"/>
</g>
<g>
<line x1="88" x2="168" y1="440" y2="440"/>
<path d="M 168 440 A 4 4 0 0 0 172 436"/>
</g>
<g>
<line x1="108" x2="108" y1="348" y2="372"/>
<path d="M 108 372 A 4 4 0 0 0 112 376"/>
<path d="M 112 344 A 4 4 0 0 0 108 348"/>
</g>
<g>
<line x1="112" x2="152" y1="344" y2="344"/>
<path d="M 156 348 A 4 4 0 0 0 152 344"/>
</g>
<g>
<line x1="112" x2="152" y1="376" y2="376"/>
<path d="M 152 376 A 4 4 0 0 0 156 372"/>
</g>
<g>
<line x1="132" x2="132" y1="384" y2="400"/>
</g>
<g>
<line x1="156" x2="156" y1="348" y2="372"/>
</g>
<g>
<line x1="172" x2="172" y1="412" y2="436"/>
</g>
<g>
<line x1="228" x2="228" y1="300" y2="452"/>
</g>
<g>
<line x1="252" x2="252" y1="300" y2="452"/>
<path d="M 252 452 A 4 4 0 0 0 256 456"/>
<path d="M 256 296 A 4 4 0 0 0 252 300"/>
</g>
<g>
<line x1="256" x2="440" y1="296" y2="296"/>
<path d="M 444 300 A 4 4 0 0 0 440 296"/>
</g>
<g>
<line x1="256" x2="440" y1="456" y2="456"/>
<path d="M 440 456 A 4 4 0 0 0 444 452"/>
</g>
<g>
<line x1="268" x2="268" y1="60" y2="84"/>
<path d="M 268 84 A 4 4 0 0 0 272 88"/>
<path d="M 272 56 A 4 4 0 0 0 268 60"/>
</g>
<g>
<line x1="272" x2="424" y1="56" y2="56"/>
<path d="M 428 60 A 4 4 0 0 0 424 56"/>
</g>
<g>
<line x1="272" x2="424" y1="88" y2="88"/>
<path d="M 424 88 A 4 4 0 0 0 428 84"/>
</g>
<g>
<line x1="300" x2="300" y1="412" y2="436"/>
<path d="M 300 436 A 4 4 0 0 0 304 440"/>
<path d="M 304 408 A 4 4 0 0 0 300 412"/>
</g>
<g>
<line x1="304" x2="384" y1="408" y2="408"/>
<path d="M 388 412 A 4 4 0 0 0 384 408"/>
</g>
<g>
<line x1="304" x2="384" y1="440" y2="440"/>
<path d="M 384 440 A 4 4 0 0 0 388 436"/>
</g>
<g>
<line x1="316" x2="316" y1="156" y2="180"/>
<path d="M 316 180 A 4 4 0 0 0 320 184"/>
<path d="M 320 152 A 4 4 0 0 0 316 156"/>
</g>
<g>
<line x1="320" x2="368" y1="152" y2="152"/>
<path d="M 372 156 A 4 4 0 0 0 368 152"/>
</g>
<g>
<line x1="320" x2="368" y1="184" y2="184"/>
<path d="M 368 184 A 4 4 0 0 0 372 180"/>
</g>
<g>
<line x1="324" x2="324" y1="348" y2="372"/>
<path d="M 324 372 A 4 4 0 0 0 328 376"/>
<path d="M 328 344 A 4 4 0 0 0 324 348"/>
</g>
<g>
<line x1="328" x2="368" y1="344" y2="344"/>
<path d="M 372 348 A 4 4 0 0 0 368 344"/>
</g>
<g>
<line x1="328" x2="368" y1="376" y2="376"/>
<path d="M 368 376 A 4 4 0 0 0 372 372"/>
</g>
<g>
<line marker-end="url(#triangle)" x1="340" x2="340" y1="112" y2="100"/>
<line marker-end="url(#triangle)" x1="340" x2="340" y1="112" y2="140"/>
</g>
<g>
<line marker-end="url(#triangle)" x1="340" x2="340" y1="208" y2="196"/>
<line marker-end="url(#triangle)" x1="340" x2="340" y1="208" y2="236"/>
</g>
<g>
<line x1="348" x2="348" y1="384" y2="400"/>
</g>
<g>
<line x1="372" x2="372" y1="156" y2="180"/>
</g>
<g>
<line x1="372" x2="372" y1="348" y2="372"/>
</g>
<g>
<line x1="388" x2="388" y1="412" y2="436"/>
</g>
<g>
<line x1="428" x2="428" y1="60" y2="84"/>
</g>
<g>
<line x1="444" x2="444" y1="300" y2="452"/>
</g>
<g>
<line x1="468" x2="468" y1="300" y2="452"/>
<path d="M 468 452 A 4 4 0 0 0 472 456"/>
<path d="M 472 296 A 4 4 0 0 0 468 300"/>
</g>
<g>
<line x1="472" x2="656" y1="296" y2="296"/>
<path d="M 660 300 A 4 4 0 0 0 656 296"/>
</g>
<g>
<line x1="472" x2="656" y1="456" y2="456"/>
<path d="M 656 456 A 4 4 0 0 0 660 452"/>
</g>
<g>
<line x1="516" x2="516" y1="412" y2="436"/>
<path d="M 516 436 A 4 4 0 0 0 520 440"/>
<path d="M 520 408 A 4 4 0 0 0 516 412"/>
</g>
<g>
<line x1="520" x2="600" y1="408" y2="408"/>
<path d="M 604 412 A 4 4 0 0 0 600 408"/>
</g>
<g>
<line x1="520" x2="600" y1="440" y2="440"/>
<path d="M 600 440 A 4 4 0 0 0 604 436"/>
</g>
<g>
<line x1="540" x2="540" y1="348" y2="372"/>
<path d="M 540 372 A 4 4 0 0 0 544 376"/>
<path d="M 544 344 A 4 4 0 0 0 540 348"/>
</g>
<g>
<line x1="544" x2="584" y1="344" y2="344"/>
<path d="M 588 348 A 4 4 0 0 0 584 344"/>
</g>
<g>
<line x1="544" x2="584" y1="376" y2="376"/>
<path d="M 584 376 A 4 4 0 0 0 588 372"/>
</g>
<g>
<line x1="564" x2="564" y1="384" y2="400"/>
</g>
<g>
<line x1="588" x2="588" y1="348" y2="372"/>
</g>
<g>
<line x1="604" x2="604" y1="412" y2="436"/>
</g>
<g>
<line x1="660" x2="660" y1="300" y2="452"/>
</g>
<g>
<line x1="676" x2="676" y1="252" y2="468"/>
</g>
<g>
<line x1="692" x2="692" y1="12" y2="484"/>
</g>
<g>
<text x="17" y="28">
VPC
</text>
</g>
<g>
<text x="33" y="268">
Subnet
</text>
</g>
<g>
<text x="49" y="316">
Security group(s)
</text>
</g>
<g>
<text x="97" y="428">
Instance
</text>
</g>
<g>
<text x="121" y="364">
ENI
</text>
</g>
<g>
<text x="265" y="316">
Security group(s)
</text>
</g>
<g>
<text x="281" y="76">
Implicit router
</text>
</g>
<g>
<text x="313" y="428">
Instance
</text>
</g>
<g>
<text x="329" y="172">
NACL
</text>
</g>
<g>
<text x="337" y="364">
ENI
</text>
</g>
<g>
<text x="481" y="316">
Security group(s)
</text>
</g>
<g>
<text x="529" y="428">
Instance
</text>
</g>
<g>
<text x="553" y="364">
ENI
</text>
</g>
</svg>
