<svg class="bob" font-family="arial" font-size="14" height="144" width="360" xmlns="http://www.w3.org/2000/svg">
<defs>
<marker id="triangle" markerHeight="8" markerWidth="8" orient="auto" refX="4" refY="2" viewBox="0 0 8 4">
<polygon class="fg_fill" points="0,0 0,4 8,2 0,0"/>
</marker>
<marker id="clear_triangle" markerHeight="10" markerWidth="10" orient="auto" refX="1" refY="7" viewBox="0 0 20 14">
<polygon class="bg_fill" points="2,2 2,12 18,7 2,2"/>
</marker>
<marker id="circle" markerHeight="5" markerWidth="5" orient="auto" refX="10" refY="10" viewBox="0 0 20 20">
<circle class="fg_fill" cx="10" cy="10" r="8"/>
</marker>
<marker id="square" markerHeight="5" markerWidth="5" orient="auto" refX="10" refY="10" viewBox="0 0 20 20">
<rect class="fg_fill" height="20" width="20" x="0" y="0"/>
</marker>
<marker id="open_circle" markerHeight="10" markerWidth="10" orient="auto" refX="10" refY="10" viewBox="0 0 20 20">
<circle class="bg_fill" cx="10" cy="10" r="4"/>
</marker>
<marker id="big_open_circle" markerHeight="20" markerWidth="20" orient="auto" refX="20" refY="20" viewBox="0 0 40 40">
<circle class="bg_fill" cx="20" cy="20" r="6"/>
</marker>
</defs>
<style type="text/css">

rect.backdrop {
    fill: white;
}
text{
    fill: black;
}

circle {
    fill: none;
    stroke: black;
    stroke-width: 2;
}

line {
    stroke: black;
    stroke-width: 2;
    stroke-opacity: 1;
    fill-opacity: 1;
    stroke-linecap: round;
    stroke-linejoin: miter;
}

path {
    fill: none;
    stroke: black;
    stroke-width: 2;
    stroke-opacity: 1;
    fill-opacity: 1;
    stroke-linecap: round;
    stroke-linejoin: miter;
}

line.dashed {
    stroke-dasharray: 5;
}

.fg_fill {
    fill: black;
}


.bg_fill {
    fill: white;
    stroke: black;
    stroke-width: 2;
}

tspan.head{
    fill: none;
    stroke: none;
}
    
</style>
<rect class="backdrop" height="144" width="360" x="0" y="0"/>
<g>
<line x1="4" x2="4" y1="16" y2="64"/>
</g>
<g>
<line x1="8" x2="32" y1="8" y2="8"/>
</g>
<g>
<line x1="8" x2="20" y1="16" y2="40"/>
<line x1="20" x2="8" y1="40" y2="64"/>
<line x1="20" x2="32" y1="40" y2="16"/>
<line x1="20" x2="32" y1="40" y2="64"/>
</g>
<g>
<line x1="36" x2="36" y1="16" y2="64"/>
</g>
<g>
<line x1="40" x2="64" y1="16" y2="64"/>
</g>
<g>
<line x1="56" x2="64" y1="96" y2="80"/>
</g>
<g>
<line x1="72" x2="80" y1="80" y2="96"/>
</g>
<g>
<text x="1" y="12">
e
</text>
</g>
<g>
<text x="1" y="76">
d
</text>
</g>
<g>
<text x="1" y="140">
*
</text>
</g>
<g>
<text x="17" y="140">
Previous graph but cliques are corrupted.
</text>
</g>
<g>
<text x="33" y="12">
g
</text>
</g>
<g>
<text x="33" y="76">
f
</text>
</g>
<g>
<text x="49" y="108">
a
</text>
</g>
<g>
<text x="65" y="76">
c
</text>
</g>
<g>
<text x="81" y="108">
b
</text>
</g>
</svg>
