<svg class="bob" font-family="arial" font-size="14" height="160" width="528" xmlns="http://www.w3.org/2000/svg">
<defs>
<marker id="triangle" markerHeight="8" markerWidth="8" orient="auto" refX="4" refY="2" viewBox="0 0 8 4">
<polygon class="fg_fill" points="0,0 0,4 8,2 0,0"/>
</marker>
<marker id="clear_triangle" markerHeight="10" markerWidth="10" orient="auto" refX="1" refY="7" viewBox="0 0 20 14">
<polygon class="bg_fill" points="2,2 2,12 18,7 2,2"/>
</marker>
<marker id="circle" markerHeight="5" markerWidth="5" orient="auto" refX="10" refY="10" viewBox="0 0 20 20">
<circle class="fg_fill" cx="10" cy="10" r="8"/>
</marker>
<marker id="square" markerHeight="5" markerWidth="5" orient="auto" refX="10" refY="10" viewBox="0 0 20 20">
<rect class="fg_fill" height="20" width="20" x="0" y="0"/>
</marker>
<marker id="open_circle" markerHeight="10" markerWidth="10" orient="auto" refX="10" refY="10" viewBox="0 0 20 20">
<circle class="bg_fill" cx="10" cy="10" r="4"/>
</marker>
<marker id="big_open_circle" markerHeight="20" markerWidth="20" orient="auto" refX="20" refY="20" viewBox="0 0 40 40">
<circle class="bg_fill" cx="20" cy="20" r="6"/>
</marker>
</defs>
<style type="text/css">

rect.backdrop {
    fill: white;
}
text{
    fill: black;
}

circle {
    fill: none;
    stroke: black;
    stroke-width: 2;
}

line {
    stroke: black;
    stroke-width: 2;
    stroke-opacity: 1;
    fill-opacity: 1;
    stroke-linecap: round;
    stroke-linejoin: miter;
}

path {
    fill: none;
    stroke: black;
    stroke-width: 2;
    stroke-opacity: 1;
    fill-opacity: 1;
    stroke-linecap: round;
    stroke-linejoin: miter;
}

line.dashed {
    stroke-dasharray: 5;
}

.fg_fill {
    fill: black;
}


.bg_fill {
    fill: white;
    stroke: black;
    stroke-width: 2;
}

tspan.head{
    fill: none;
    stroke: none;
}
    
</style>
<rect class="backdrop" height="160" width="528" x="0" y="0"/>
<g>
<text x="1" y="12">
Slices of Pascal&#39;s simplex where m=3 (Pascal&#39;s pyramid)
</text>
</g>
<g>
<text x="25" y="44">
Layer 1
</text>
</g>
<g>
<text x="57" y="108">
1
</text>
</g>
<g>
<text x="137" y="44">
Layer 2
</text>
</g>
<g>
<text x="161" y="124">
1
</text>
</g>
<g>
<text x="169" y="92">
1
</text>
</g>
<g>
<text x="177" y="124">
1
</text>
</g>
<g>
<text x="249" y="44">
Layer 3
</text>
</g>
<g>
<text x="265" y="140">
1
</text>
</g>
<g>
<text x="273" y="108">
2
</text>
</g>
<g>
<text x="281" y="76">
1
</text>
</g>
<g>
<text x="281" y="140">
2
</text>
</g>
<g>
<text x="289" y="108">
2
</text>
</g>
<g>
<text x="297" y="140">
1
</text>
</g>
<g>
<text x="361" y="44">
Layer 4
</text>
</g>
<g>
<text x="369" y="156">
1
</text>
</g>
<g>
<text x="377" y="124">
3
</text>
</g>
<g>
<text x="385" y="92">
3
</text>
</g>
<g>
<text x="385" y="156">
3
</text>
</g>
<g>
<text x="393" y="60">
1
</text>
</g>
<g>
<text x="393" y="124">
6
</text>
</g>
<g>
<text x="401" y="92">
3
</text>
</g>
<g>
<text x="401" y="156">
3
</text>
</g>
<g>
<text x="409" y="124">
3
</text>
</g>
<g>
<text x="417" y="156">
1
</text>
</g>
</svg>
