<?xml version="1.0" encoding="UTF-8" standalone="no"?>
<!DOCTYPE svg PUBLIC "-//W3C//DTD SVG 1.1//EN"
 "http://www.w3.org/Graphics/SVG/1.1/DTD/svg11.dtd">
<!-- Generated by graphviz version 2.40.1 (0)
 -->
<!-- Title: G Pages: 1 -->
<svg width="309pt" height="231pt"
 viewBox="0.00 0.00 309.00 231.00" xmlns="http://www.w3.org/2000/svg" xmlns:xlink="http://www.w3.org/1999/xlink">
<g id="graph0" class="graph" transform="scale(1 1) rotate(0) translate(4 227)">
<title>G</title>
<polygon fill="#ffffff" stroke="transparent" points="-4,4 -4,-227 305,-227 305,4 -4,4"/>
<!-- N1 -->
<g id="node1" class="node">
<title>N1</title>
<ellipse fill="none" stroke="#000000" cx="102.5" cy="-135.5" rx="14.5" ry="14.5"/>
<text text-anchor="middle" x="102.5" y="-133" font-family="Courier,monospace" font-weight="bold" font-size="10.00" fill="#000000">N1</text>
</g>
<!-- N2 -->
<g id="node2" class="node">
<title>N2</title>
<ellipse fill="none" stroke="#000000" cx="198.5" cy="-65.5" rx="14.5" ry="14.5"/>
<text text-anchor="middle" x="198.5" y="-63" font-family="Courier,monospace" font-weight="bold" font-size="10.00" fill="#000000">N2</text>
</g>
<!-- N1&#45;&#45;N2 -->
<g id="edge6" class="edge">
<title>N1&#45;&#45;N2</title>
<path fill="none" stroke="#000000" d="M112.9749,-125.3988C119.1749,-119.6151 127.2999,-112.3651 135,-106.5 151.9115,-93.6188 172.8481,-80.6218 185.9432,-72.8139"/>
<text text-anchor="middle" x="150.5" y="-109.5" font-family="Courier,monospace" font-weight="bold" font-size="10.00" fill="#000000">4.0</text>
</g>
<!-- v0 -->
<g id="node4" class="node">
<title>v0</title>
<ellipse fill="none" stroke="#000000" cx="198.5" cy="-114.5" rx="14.5" ry="14.5"/>
<text text-anchor="middle" x="198.5" y="-112" font-family="Courier,monospace" font-weight="bold" font-size="10.00" fill="#000000">v0</text>
</g>
<!-- N1&#45;&#45;v0 -->
<g id="edge3" class="edge">
<title>N1&#45;&#45;v0</title>
<path fill="none" stroke="#000000" d="M116.6651,-132.4014C134.8155,-128.431 166.0984,-121.5879 184.2768,-117.6113"/>
<text text-anchor="middle" x="150.5" y="-130.5" font-family="Courier,monospace" font-weight="bold" font-size="10.00" fill="#000000">11.0</text>
</g>
<!-- v1 -->
<g id="node5" class="node">
<title>v1</title>
<ellipse fill="none" stroke="#000000" cx="198.5" cy="-208.5" rx="14.5" ry="14.5"/>
<text text-anchor="middle" x="198.5" y="-206" font-family="Courier,monospace" font-weight="bold" font-size="10.00" fill="#000000">v1</text>
</g>
<!-- N1&#45;&#45;v1 -->
<g id="edge4" class="edge">
<title>N1&#45;&#45;v1</title>
<path fill="none" stroke="#000000" d="M112.6089,-146.0443C118.8169,-152.2855 127.0739,-160.1808 135,-166.5 151.7426,-179.8483 172.724,-193.1216 185.8749,-201.0695"/>
<text text-anchor="middle" x="150.5" y="-190.5" font-family="Courier,monospace" font-weight="bold" font-size="10.00" fill="#000000">2.0</text>
</g>
<!-- v2 -->
<g id="node6" class="node">
<title>v2</title>
<ellipse fill="none" stroke="#000000" cx="198.5" cy="-161.5" rx="14.5" ry="14.5"/>
<text text-anchor="middle" x="198.5" y="-159" font-family="Courier,monospace" font-weight="bold" font-size="10.00" fill="#000000">v2</text>
</g>
<!-- N1&#45;&#45;v2 -->
<g id="edge5" class="edge">
<title>N1&#45;&#45;v2</title>
<path fill="none" stroke="#000000" d="M116.6651,-139.3364C134.8155,-144.2521 166.0984,-152.7246 184.2768,-157.6479"/>
<text text-anchor="middle" x="150.5" y="-154.5" font-family="Courier,monospace" font-weight="bold" font-size="10.00" fill="#000000">10.0</text>
</g>
<!-- v5 -->
<g id="node9" class="node">
<title>v5</title>
<ellipse fill="none" stroke="#000000" cx="286.5" cy="-65.5" rx="14.5" ry="14.5"/>
<text text-anchor="middle" x="286.5" y="-63" font-family="Courier,monospace" font-weight="bold" font-size="10.00" fill="#000000">v5</text>
</g>
<!-- N2&#45;&#45;v5 -->
<g id="edge7" class="edge">
<title>N2&#45;&#45;v5</title>
<path fill="none" stroke="#000000" d="M213.0314,-65.5C229.3364,-65.5 255.6332,-65.5 271.947,-65.5"/>
<text text-anchor="middle" x="242.5" y="-68.5" font-family="Courier,monospace" font-weight="bold" font-size="10.00" fill="#000000">7.0</text>
</g>
<!-- N3 -->
<g id="node3" class="node">
<title>N3</title>
<ellipse fill="none" stroke="#000000" cx="102.5" cy="-31.5" rx="14.5" ry="14.5"/>
<text text-anchor="middle" x="102.5" y="-29" font-family="Courier,monospace" font-weight="bold" font-size="10.00" fill="#000000">N3</text>
</g>
<!-- N3&#45;&#45;N2 -->
<g id="edge1" class="edge">
<title>N3&#45;&#45;N2</title>
<path fill="none" stroke="#000000" d="M116.8642,-34.7812C129.8945,-37.9426 149.5278,-43.1707 166,-49.5 172.5751,-52.0264 179.6177,-55.4047 185.4602,-58.4059"/>
<text text-anchor="middle" x="150.5" y="-52.5" font-family="Courier,monospace" font-weight="bold" font-size="10.00" fill="#000000">3.0</text>
</g>
<!-- v3 -->
<g id="node7" class="node">
<title>v3</title>
<ellipse fill="none" stroke="#000000" cx="198.5" cy="-14.5" rx="14.5" ry="14.5"/>
<text text-anchor="middle" x="198.5" y="-12" font-family="Courier,monospace" font-weight="bold" font-size="10.00" fill="#000000">v3</text>
</g>
<!-- N3&#45;&#45;v3 -->
<g id="edge2" class="edge">
<title>N3&#45;&#45;v3</title>
<path fill="none" stroke="#000000" d="M114.972,-23.744C120.8231,-20.5373 128.0302,-17.1806 135,-15.5 151.3993,-11.5457 170.878,-11.9608 183.8976,-12.935"/>
<text text-anchor="middle" x="150.5" y="-18.5" font-family="Courier,monospace" font-weight="bold" font-size="10.00" fill="#000000">3.0</text>
</g>
<!-- v4 -->
<g id="node8" class="node">
<title>v4</title>
<ellipse fill="none" stroke="#000000" cx="14.5" cy="-31.5" rx="14.5" ry="14.5"/>
<text text-anchor="middle" x="14.5" y="-29" font-family="Courier,monospace" font-weight="bold" font-size="10.00" fill="#000000">v4</text>
</g>
<!-- v4&#45;&#45;N3 -->
<g id="edge8" class="edge">
<title>v4&#45;&#45;N3</title>
<path fill="none" stroke="#000000" d="M29.0314,-31.5C45.3364,-31.5 71.6332,-31.5 87.947,-31.5"/>
<text text-anchor="middle" x="58.5" y="-34.5" font-family="Courier,monospace" font-weight="bold" font-size="10.00" fill="#000000">4.0</text>
</g>
</g>
</svg>
