<?xml version="1.0" encoding="UTF-8" standalone="no"?>
<!DOCTYPE svg PUBLIC "-//W3C//DTD SVG 1.1//EN"
 "http://www.w3.org/Graphics/SVG/1.1/DTD/svg11.dtd">
<!-- Generated by graphviz version 2.40.1 (0)
 -->
<!-- Title: G Pages: 1 -->
<svg width="2756pt" height="364pt"
 viewBox="0.00 0.00 2755.52 364.34" xmlns="http://www.w3.org/2000/svg" xmlns:xlink="http://www.w3.org/1999/xlink">
<g id="graph0" class="graph" transform="scale(1 1) rotate(0) translate(4 360.3365)">
<title>G</title>
<polygon fill="#ffffff" stroke="transparent" points="-4,4 -4,-360.3365 2751.5218,-360.3365 2751.5218,4 -4,4"/>
<!-- (&#45;1, &#39;SINK&#39;, None) -->
<g id="node1" class="node">
<title>(&#45;1, &#39;SINK&#39;, None)</title>
<polygon fill="none" stroke="#000000" points="2602.6664,-152.7764 2612.4558,-152.8938 2622.1439,-153.0695 2631.6912,-153.303 2641.0591,-153.5937 2650.2099,-153.9407 2659.1076,-154.3431 2667.7175,-154.7999 2676.007,-155.3098 2683.9451,-155.8713 2691.5034,-156.4829 2698.6555,-157.143 2705.3777,-157.8498 2711.6485,-158.6012 2717.4495,-159.3953 2722.7647,-160.2299 2727.581,-161.1026 2731.888,-162.0112 2735.6781,-162.953 2738.9465,-163.9256 2741.6912,-164.9262 2743.9126,-165.9521 2745.6139,-167.0006 2746.8005,-168.0686 2747.4802,-169.1534 2747.6631,-170.2519 2747.3611,-171.3611 2746.5882,-172.4779 2745.3598,-173.5994 2743.6929,-174.7224 2741.6057,-175.8439 2739.1177,-176.9608 2736.2491,-178.07 2733.0206,-179.1685 2729.4537,-180.2532 2725.5701,-181.3213 2721.3913,-182.3697 2716.9392,-183.3957 2712.2349,-184.3963 2707.2996,-185.3688 2702.1535,-186.3107 2696.8163,-187.2192 2691.3069,-188.092 2685.6432,-188.9266 2679.8422,-189.7207 2673.9198,-190.4721 2667.8909,-191.1789 2661.7689,-191.8389 2655.5666,-192.4506 2649.2953,-193.0121 2642.9655,-193.5219 2636.5863,-193.9787 2630.1661,-194.3812 2623.7124,-194.7282 2617.2317,-195.0189 2610.7299,-195.2524 2604.2124,-195.428 2597.684,-195.5454 2591.1492,-195.6042 2584.6123,-195.6042 2578.0775,-195.5454 2571.5491,-195.428 2565.0315,-195.2524 2558.5298,-195.0189 2552.0491,-194.7282 2545.5953,-194.3812 2539.1752,-193.9787 2532.796,-193.5219 2526.4661,-193.0121 2520.1948,-192.4506 2513.9925,-191.8389 2507.8706,-191.1789 2501.8416,-190.4721 2495.9192,-189.7207 2490.1182,-188.9266 2484.4546,-188.092 2478.9452,-187.2192 2473.608,-186.3107 2468.4619,-185.3688 2463.5265,-184.3963 2458.8223,-183.3957 2454.3701,-182.3697 2450.1914,-181.3213 2446.3077,-180.2532 2442.7408,-179.1685 2439.5124,-178.07 2436.6437,-176.9608 2434.1557,-175.8439 2432.0686,-174.7224 2430.4017,-173.5994 2429.1733,-172.4779 2428.4003,-171.3611 2428.0984,-170.2519 2428.2813,-169.1534 2428.961,-168.0686 2430.1476,-167.0006 2431.8488,-165.9521 2434.0702,-164.9262 2436.8149,-163.9256 2440.0834,-162.953 2443.8735,-162.0112 2448.1805,-161.1026 2452.9967,-160.2299 2458.3119,-159.3953 2464.1129,-158.6012 2470.3838,-157.8498 2477.1059,-157.143 2484.258,-156.4829 2491.8163,-155.8713 2499.7545,-155.3098 2508.0439,-154.7999 2516.6538,-154.3431 2525.5515,-153.9407 2534.7024,-153.5937 2544.0702,-153.303 2553.6175,-153.0695 2563.3057,-152.8938 2573.095,-152.7764 2582.9454,-152.7177 2592.8161,-152.7177 2602.6664,-152.7764"/>
<text text-anchor="middle" x="2587.8807" y="-177.1609" font-family="Courier,monospace" font-weight="bold" font-size="10.00" fill="#000000">(&#45;1, &#39;SINK&#39;, None)</text>
<text text-anchor="middle" x="2587.8807" y="-166.1609" font-family="Courier,monospace" font-weight="bold" font-size="10.00" fill="#000000">(&#39;y&#39;, 0.28752632118548793)</text>
</g>
<!-- (&#45;1, &#39;SOURCE&#39;, None) -->
<g id="node2" class="node">
<title>(&#45;1, &#39;SOURCE&#39;, None)</title>
<polygon fill="none" stroke="#000000" points="137.3693,-151.7764 145.059,-151.8938 152.6691,-152.0695 160.1686,-152.303 167.5271,-152.5937 174.7152,-152.9407 181.7044,-153.3431 188.4676,-153.7999 194.979,-154.3098 201.2145,-154.8713 207.1516,-155.4829 212.7697,-156.143 218.05,-156.8498 222.9758,-157.6012 227.5325,-158.3953 231.7077,-159.2299 235.4909,-160.1026 238.874,-161.0112 241.8512,-161.953 244.4186,-162.9256 246.5746,-163.9262 248.3196,-164.9521 249.6559,-166.0006 250.588,-167.0686 251.1219,-168.1534 251.2655,-169.2519 251.0284,-170.3611 250.4212,-171.4779 249.4563,-172.5994 248.1469,-173.7224 246.5075,-174.8439 244.5531,-175.9608 242.2997,-177.07 239.7638,-178.1685 236.9619,-179.2532 233.9113,-180.3213 230.6288,-181.3697 227.1316,-182.3957 223.4364,-183.3963 219.5596,-184.3688 215.5173,-185.3107 211.3249,-186.2192 206.9972,-187.092 202.5484,-187.9266 197.9917,-188.7207 193.3396,-189.4721 188.6037,-190.1789 183.7949,-190.8389 178.9229,-191.4506 173.9968,-192.0121 169.0246,-192.5219 164.0137,-192.9787 158.9706,-193.3812 153.9011,-193.7282 148.8105,-194.0189 143.7033,-194.2524 138.5837,-194.428 133.4556,-194.5454 128.3224,-194.6042 123.1876,-194.6042 118.0545,-194.5454 112.9263,-194.428 107.8068,-194.2524 102.6996,-194.0189 97.6089,-193.7282 92.5395,-193.3812 87.4964,-192.9787 82.4854,-192.5219 77.5133,-192.0121 72.5871,-191.4506 67.7151,-190.8389 62.9063,-190.1789 58.1705,-189.4721 53.5184,-188.7207 48.9617,-187.9266 44.5128,-187.092 40.1851,-186.2192 35.9927,-185.3107 31.9504,-184.3688 28.0736,-183.3963 24.3784,-182.3957 20.8812,-181.3697 17.5988,-180.3213 14.5481,-179.2532 11.7463,-178.1685 9.2103,-177.07 6.9569,-175.9608 5.0026,-174.8439 3.3631,-173.7224 2.0538,-172.5994 1.0888,-171.4779 .4817,-170.3611 .2445,-169.2519 .3882,-168.1534 .9221,-167.0686 1.8542,-166.0006 3.1905,-164.9521 4.9354,-163.9262 7.0914,-162.9256 9.6588,-161.953 12.636,-161.0112 16.0192,-160.1026 19.8024,-159.2299 23.9775,-158.3953 28.5342,-157.6012 33.4601,-156.8498 38.7404,-156.143 44.3584,-155.4829 50.2955,-154.8713 56.531,-154.3098 63.0425,-153.7999 69.8056,-153.3431 76.7948,-152.9407 83.9829,-152.5937 91.3415,-152.303 98.841,-152.0695 106.4511,-151.8938 114.1407,-151.7764 121.8783,-151.7177 129.6318,-151.7177 137.3693,-151.7764"/>
<text text-anchor="middle" x="125.755" y="-176.1609" font-family="Courier,monospace" font-weight="bold" font-size="10.00" fill="#000000">(&#45;1, &#39;SOURCE&#39;, None)</text>
<text text-anchor="middle" x="125.755" y="-165.1609" font-family="Courier,monospace" font-weight="bold" font-size="10.00" fill="#000000">(None, 1.0)</text>
</g>
<!-- (0, &#39;A&#39;, &#39;y&#39;) -->
<g id="node3" class="node">
<title>(0, &#39;A&#39;, &#39;y&#39;)</title>
<polygon fill="none" stroke="#000000" points="833.4992,-182.7764 843.5974,-182.8938 853.5913,-183.0695 863.4399,-183.303 873.1034,-183.5937 882.543,-183.9407 891.7215,-184.3431 900.6031,-184.7999 909.1541,-185.3098 917.3428,-185.8713 925.1396,-186.4829 932.5174,-187.143 939.4517,-187.8498 945.9204,-188.6012 951.9045,-189.3953 957.3874,-190.2299 962.3556,-191.1026 966.7985,-192.0112 970.7083,-192.953 974.0799,-193.9256 976.9112,-194.9262 979.2027,-195.9521 980.9576,-197.0006 982.1816,-198.0686 982.8828,-199.1534 983.0715,-200.2519 982.76,-201.3611 981.9627,-202.4779 980.6955,-203.5994 978.976,-204.7224 976.823,-205.8439 974.2565,-206.9608 971.2973,-208.07 967.9669,-209.1685 964.2875,-210.2532 960.2813,-211.3213 955.9707,-212.3697 951.378,-213.3957 946.5253,-214.3963 941.4342,-215.3688 936.1257,-216.3107 930.6201,-217.2192 924.9368,-218.092 919.0945,-218.9266 913.1104,-219.7207 907.0011,-220.4721 900.7819,-221.1789 894.4668,-221.8389 888.0687,-222.4506 881.5996,-223.0121 875.0699,-223.5219 868.4894,-223.9787 861.8667,-224.3812 855.2092,-224.7282 848.524,-225.0189 841.8171,-225.2524 835.0939,-225.428 828.3595,-225.5454 821.6185,-225.6042 814.8753,-225.6042 808.1342,-225.5454 801.3998,-225.428 794.6766,-225.2524 787.9697,-225.0189 781.2845,-224.7282 774.6271,-224.3812 768.0043,-223.9787 761.4238,-223.5219 754.8942,-223.0121 748.425,-222.4506 742.027,-221.8389 735.7119,-221.1789 729.4926,-220.4721 723.3833,-219.7207 717.3993,-218.9266 711.5569,-218.092 705.8736,-217.2192 700.368,-216.3107 695.0595,-215.3688 689.9684,-214.3963 685.1157,-213.3957 680.5231,-212.3697 676.2125,-211.3213 672.2062,-210.2532 668.5268,-209.1685 665.1965,-208.07 662.2373,-206.9608 659.6708,-205.8439 657.5178,-204.7224 655.7983,-203.5994 654.5311,-202.4779 653.7338,-201.3611 653.4223,-200.2519 653.6109,-199.1534 654.3121,-198.0686 655.5361,-197.0006 657.291,-195.9521 659.5826,-194.9262 662.4139,-193.9256 665.7855,-192.953 669.6952,-192.0112 674.1381,-191.1026 679.1063,-190.2299 684.5893,-189.3953 690.5733,-188.6012 697.0421,-187.8498 703.9763,-187.143 711.3541,-186.4829 719.151,-185.8713 727.3396,-185.3098 735.8906,-184.7999 744.7723,-184.3431 753.9507,-183.9407 763.3904,-183.5937 773.0538,-183.303 782.9024,-183.0695 792.8963,-182.8938 802.9946,-182.7764 813.1558,-182.7177 823.338,-182.7177 833.4992,-182.7764"/>
<text text-anchor="middle" x="818.2469" y="-207.1609" font-family="Courier,monospace" font-weight="bold" font-size="10.00" fill="#000000">(0, &#39;A&#39;, &#39;y&#39;)</text>
<text text-anchor="middle" x="818.2469" y="-196.1609" font-family="Courier,monospace" font-weight="bold" font-size="10.00" fill="#000000">(None, 0.29799040191961607)</text>
</g>
<!-- (&#45;1, &#39;SOURCE&#39;, None)&#45;&gt;(0, &#39;A&#39;, &#39;y&#39;) -->
<g id="edge1" class="edge">
<title>(&#45;1, &#39;SOURCE&#39;, None)&#45;&gt;(0, &#39;A&#39;, &#39;y&#39;)</title>
<path fill="none" stroke="#000000" d="M239.718,-178.2626C349.9915,-183.1991 518.6047,-190.7472 645.3999,-196.4233"/>
<polygon fill="#000000" stroke="#000000" points="645.4606,-199.9294 655.6072,-196.8802 645.7738,-192.9364 645.4606,-199.9294"/>
</g>
<!-- (0, &#39;A&#39;, &#39;z&#39;) -->
<g id="node4" class="node">
<title>(0, &#39;A&#39;, &#39;z&#39;)</title>
<polygon fill="none" stroke="#000000" points="833.4992,-242.7764 843.5974,-242.8938 853.5913,-243.0695 863.4399,-243.303 873.1034,-243.5937 882.543,-243.9407 891.7215,-244.3431 900.6031,-244.7999 909.1541,-245.3098 917.3428,-245.8713 925.1396,-246.4829 932.5174,-247.143 939.4517,-247.8498 945.9204,-248.6012 951.9045,-249.3953 957.3874,-250.2299 962.3556,-251.1026 966.7985,-252.0112 970.7083,-252.953 974.0799,-253.9256 976.9112,-254.9262 979.2027,-255.9521 980.9576,-257.0006 982.1816,-258.0686 982.8828,-259.1534 983.0715,-260.2519 982.76,-261.3611 981.9627,-262.4779 980.6955,-263.5994 978.976,-264.7224 976.823,-265.8439 974.2565,-266.9608 971.2973,-268.07 967.9669,-269.1685 964.2875,-270.2532 960.2813,-271.3213 955.9707,-272.3697 951.378,-273.3957 946.5253,-274.3963 941.4342,-275.3688 936.1257,-276.3107 930.6201,-277.2192 924.9368,-278.092 919.0945,-278.9266 913.1104,-279.7207 907.0011,-280.4721 900.7819,-281.1789 894.4668,-281.8389 888.0687,-282.4506 881.5996,-283.0121 875.0699,-283.5219 868.4894,-283.9787 861.8667,-284.3812 855.2092,-284.7282 848.524,-285.0189 841.8171,-285.2524 835.0939,-285.428 828.3595,-285.5454 821.6185,-285.6042 814.8753,-285.6042 808.1342,-285.5454 801.3998,-285.428 794.6766,-285.2524 787.9697,-285.0189 781.2845,-284.7282 774.6271,-284.3812 768.0043,-283.9787 761.4238,-283.5219 754.8942,-283.0121 748.425,-282.4506 742.027,-281.8389 735.7119,-281.1789 729.4926,-280.4721 723.3833,-279.7207 717.3993,-278.9266 711.5569,-278.092 705.8736,-277.2192 700.368,-276.3107 695.0595,-275.3688 689.9684,-274.3963 685.1157,-273.3957 680.5231,-272.3697 676.2125,-271.3213 672.2062,-270.2532 668.5268,-269.1685 665.1965,-268.07 662.2373,-266.9608 659.6708,-265.8439 657.5178,-264.7224 655.7983,-263.5994 654.5311,-262.4779 653.7338,-261.3611 653.4223,-260.2519 653.6109,-259.1534 654.3121,-258.0686 655.5361,-257.0006 657.291,-255.9521 659.5826,-254.9262 662.4139,-253.9256 665.7855,-252.953 669.6952,-252.0112 674.1381,-251.1026 679.1063,-250.2299 684.5893,-249.3953 690.5733,-248.6012 697.0421,-247.8498 703.9763,-247.143 711.3541,-246.4829 719.151,-245.8713 727.3396,-245.3098 735.8906,-244.7999 744.7723,-244.3431 753.9507,-243.9407 763.3904,-243.5937 773.0538,-243.303 782.9024,-243.0695 792.8963,-242.8938 802.9946,-242.7764 813.1558,-242.7177 823.338,-242.7177 833.4992,-242.7764"/>
<text text-anchor="middle" x="818.2469" y="-267.1609" font-family="Courier,monospace" font-weight="bold" font-size="10.00" fill="#000000">(0, &#39;A&#39;, &#39;z&#39;)</text>
<text text-anchor="middle" x="818.2469" y="-256.1609" font-family="Courier,monospace" font-weight="bold" font-size="10.00" fill="#000000">(None, 0.20200959808038393)</text>
</g>
<!-- (&#45;1, &#39;SOURCE&#39;, None)&#45;&gt;(0, &#39;A&#39;, &#39;z&#39;) -->
<g id="edge2" class="edge">
<title>(&#45;1, &#39;SOURCE&#39;, None)&#45;&gt;(0, &#39;A&#39;, &#39;z&#39;)</title>
<path fill="none" stroke="#000000" d="M204.6026,-187.6758C230.9209,-192.2893 260.4362,-197.2137 287.51,-201.1609 416.708,-219.9975 564.2229,-237.1604 670.886,-248.7986"/>
<polygon fill="#000000" stroke="#000000" points="670.7588,-252.3053 681.0787,-249.9075 671.5159,-245.3464 670.7588,-252.3053"/>
</g>
<!-- (0, &#39;B&#39;, &#39;y&#39;) -->
<g id="node5" class="node">
<title>(0, &#39;B&#39;, &#39;y&#39;)</title>
<polygon fill="none" stroke="#000000" points="466.6483,-127.7764 476.0671,-127.8938 485.3885,-128.0695 494.5744,-128.303 503.5877,-128.5937 512.3921,-128.9407 520.953,-129.3431 529.237,-129.7999 537.2126,-130.3098 544.8503,-130.8713 552.1225,-131.4829 559.0039,-132.143 565.4715,-132.8498 571.505,-133.6012 577.0864,-134.3953 582.2004,-135.2299 586.8343,-136.1026 590.9783,-137.0112 594.6249,-137.953 597.7697,-138.9256 600.4105,-139.9262 602.5478,-140.9521 604.1846,-142.0006 605.3263,-143.0686 605.9803,-144.1534 606.1562,-145.2519 605.8657,-146.3611 605.122,-147.4779 603.9401,-148.5994 602.3363,-149.7224 600.3282,-150.8439 597.9344,-151.9608 595.1743,-153.07 592.0681,-154.1685 588.6362,-155.2532 584.8995,-156.3213 580.879,-157.3697 576.5954,-158.3957 572.0692,-159.3963 567.3207,-160.3688 562.3694,-161.3107 557.2342,-162.2192 551.9334,-163.092 546.4841,-163.9266 540.9027,-164.7207 535.2045,-165.4721 529.4037,-166.1789 523.5135,-166.8389 517.546,-167.4506 511.5121,-168.0121 505.4219,-168.5219 499.2842,-168.9787 493.107,-169.3812 486.8976,-169.7282 480.6622,-170.0189 474.4066,-170.2524 468.1358,-170.428 461.8545,-170.5454 455.5671,-170.6042 449.2776,-170.6042 442.9901,-170.5454 436.7089,-170.428 430.4381,-170.2524 424.1824,-170.0189 417.9471,-169.7282 411.7376,-169.3812 405.5605,-168.9787 399.4228,-168.5219 393.3325,-168.0121 387.2986,-167.4506 381.3311,-166.8389 375.4409,-166.1789 369.6401,-165.4721 363.9419,-164.7207 358.3605,-163.9266 352.9113,-163.092 347.6104,-162.2192 342.4753,-161.3107 337.524,-160.3688 332.7754,-159.3963 328.2493,-158.3957 323.9657,-157.3697 319.9451,-156.3213 316.2084,-155.2532 312.7766,-154.1685 309.6703,-153.07 306.9103,-151.9608 304.5164,-150.8439 302.5083,-149.7224 300.9045,-148.5994 299.7226,-147.4779 298.9789,-146.3611 298.6884,-145.2519 298.8644,-144.1534 299.5184,-143.0686 300.66,-142.0006 302.2969,-140.9521 304.4342,-139.9262 307.075,-138.9256 310.2197,-137.953 313.8664,-137.0112 318.0103,-136.1026 322.6443,-135.2299 327.7582,-134.3953 333.3396,-133.6012 339.3731,-132.8498 345.8408,-132.143 352.7222,-131.4829 359.9943,-130.8713 367.632,-130.3098 375.6077,-129.7999 383.8917,-129.3431 392.4525,-128.9407 401.257,-128.5937 410.2702,-128.303 419.4561,-128.0695 428.7775,-127.8938 438.1963,-127.7764 447.6738,-127.7177 457.1709,-127.7177 466.6483,-127.7764"/>
<text text-anchor="middle" x="452.4223" y="-152.1609" font-family="Courier,monospace" font-weight="bold" font-size="10.00" fill="#000000">(0, &#39;B&#39;, &#39;y&#39;)</text>
<text text-anchor="middle" x="452.4223" y="-141.1609" font-family="Courier,monospace" font-weight="bold" font-size="10.00" fill="#000000">(None, 0.285992801439712)</text>
</g>
<!-- (&#45;1, &#39;SOURCE&#39;, None)&#45;&gt;(0, &#39;B&#39;, &#39;y&#39;) -->
<g id="edge3" class="edge">
<title>(&#45;1, &#39;SOURCE&#39;, None)&#45;&gt;(0, &#39;B&#39;, &#39;y&#39;)</title>
<path fill="none" stroke="#000000" d="M247.3939,-164.2242C270.2271,-162.5467 294.2253,-160.7835 317.4358,-159.0783"/>
<polygon fill="#000000" stroke="#000000" points="317.9652,-162.5489 327.6819,-158.3255 317.4523,-155.5677 317.9652,-162.5489"/>
</g>
<!-- (0, &#39;B&#39;, &#39;z&#39;) -->
<g id="node6" class="node">
<title>(0, &#39;B&#39;, &#39;z&#39;)</title>
<polygon fill="none" stroke="#000000" points="467.6746,-67.7764 477.7729,-67.8938 487.7667,-68.0695 497.6154,-68.303 507.2788,-68.5937 516.7185,-68.9407 525.8969,-69.3431 534.7785,-69.7999 543.3296,-70.3098 551.5182,-70.8713 559.315,-71.4829 566.6929,-72.143 573.6271,-72.8498 580.0959,-73.6012 586.0799,-74.3953 591.5628,-75.2299 596.5311,-76.1026 600.974,-77.0112 604.8837,-77.953 608.2553,-78.9256 611.0866,-79.9262 613.3781,-80.9521 615.1331,-82.0006 616.3571,-83.0686 617.0583,-84.1534 617.2469,-85.2519 616.9354,-86.3611 616.1381,-87.4779 614.8709,-88.5994 613.1514,-89.7224 610.9984,-90.8439 608.4319,-91.9608 605.4727,-93.07 602.1424,-94.1685 598.4629,-95.2532 594.4567,-96.3213 590.1461,-97.3697 585.5535,-98.3957 580.7008,-99.3963 575.6097,-100.3688 570.3012,-101.3107 564.7956,-102.2192 559.1123,-103.092 553.2699,-103.9266 547.2859,-104.7207 541.1766,-105.4721 534.9573,-106.1789 528.6422,-106.8389 522.2442,-107.4506 515.775,-108.0121 509.2454,-108.5219 502.6649,-108.9787 496.0421,-109.3812 489.3847,-109.7282 482.6995,-110.0189 475.9925,-110.2524 469.2694,-110.428 462.535,-110.5454 455.7939,-110.6042 449.0507,-110.6042 442.3097,-110.5454 435.5753,-110.428 428.8521,-110.2524 422.1452,-110.0189 415.4599,-109.7282 408.8025,-109.3812 402.1798,-108.9787 395.5993,-108.5219 389.0696,-108.0121 382.6005,-107.4506 376.2024,-106.8389 369.8873,-106.1789 363.6681,-105.4721 357.5588,-104.7207 351.5747,-103.9266 345.7323,-103.092 340.0491,-102.2192 334.5435,-101.3107 329.235,-100.3688 324.1439,-99.3963 319.2912,-98.3957 314.6985,-97.3697 310.3879,-96.3213 306.3817,-95.2532 302.7023,-94.1685 299.3719,-93.07 296.4127,-91.9608 293.8462,-90.8439 291.6932,-89.7224 289.9737,-88.5994 288.7065,-87.4779 287.9092,-86.3611 287.5977,-85.2519 287.7864,-84.1534 288.4876,-83.0686 289.7116,-82.0006 291.4665,-80.9521 293.758,-79.9262 296.5893,-78.9256 299.9609,-77.953 303.8706,-77.0112 308.3135,-76.1026 313.2818,-75.2299 318.7647,-74.3953 324.7488,-73.6012 331.2175,-72.8498 338.1518,-72.143 345.5296,-71.4829 353.3264,-70.8713 361.5151,-70.3098 370.0661,-69.7999 378.9477,-69.3431 388.1262,-68.9407 397.5658,-68.5937 407.2293,-68.303 417.0779,-68.0695 427.0718,-67.8938 437.17,-67.7764 447.3312,-67.7177 457.5134,-67.7177 467.6746,-67.7764"/>
<text text-anchor="middle" x="452.4223" y="-92.1609" font-family="Courier,monospace" font-weight="bold" font-size="10.00" fill="#000000">(0, &#39;B&#39;, &#39;z&#39;)</text>
<text text-anchor="middle" x="452.4223" y="-81.1609" font-family="Courier,monospace" font-weight="bold" font-size="10.00" fill="#000000">(None, 0.21400719856028794)</text>
</g>
<!-- (&#45;1, &#39;SOURCE&#39;, None)&#45;&gt;(0, &#39;B&#39;, &#39;z&#39;) -->
<g id="edge4" class="edge">
<title>(&#45;1, &#39;SOURCE&#39;, None)&#45;&gt;(0, &#39;B&#39;, &#39;z&#39;)</title>
<path fill="none" stroke="#000000" d="M179.4687,-153.0915C210.6797,-141.9706 250.9459,-128.5392 287.51,-119.1609 305.993,-114.4203 325.8268,-110.1399 345.1068,-106.3952"/>
<polygon fill="#000000" stroke="#000000" points="345.9601,-109.7956 355.1284,-104.4861 344.6501,-102.9193 345.9601,-109.7956"/>
</g>
<!-- (1, &#39;A&#39;, &#39;y&#39;) -->
<g id="node9" class="node">
<title>(1, &#39;A&#39;, &#39;y&#39;)</title>
<polygon fill="none" stroke="#000000" points="1193.586,-37.7764 1203.3753,-37.8938 1213.0634,-38.0695 1222.6108,-38.303 1231.9786,-38.5937 1241.1295,-38.9407 1250.0271,-39.3431 1258.6371,-39.7999 1266.9265,-40.3098 1274.8647,-40.8713 1282.423,-41.4829 1289.5751,-42.143 1296.2972,-42.8498 1302.5681,-43.6012 1308.3691,-44.3953 1313.6842,-45.2299 1318.5005,-46.1026 1322.8075,-47.0112 1326.5976,-47.953 1329.8661,-48.9256 1332.6108,-49.9262 1334.8322,-50.9521 1336.5334,-52.0006 1337.72,-53.0686 1338.3997,-54.1534 1338.5826,-55.2519 1338.2806,-56.3611 1337.5077,-57.4779 1336.2793,-58.5994 1334.6124,-59.7224 1332.5253,-60.8439 1330.0373,-61.9608 1327.1686,-63.07 1323.9401,-64.1685 1320.3733,-65.2532 1316.4896,-66.3213 1312.3109,-67.3697 1307.8587,-68.3957 1303.1545,-69.3963 1298.2191,-70.3688 1293.073,-71.3107 1287.7358,-72.2192 1282.2264,-73.092 1276.5627,-73.9266 1270.7618,-74.7207 1264.8394,-75.4721 1258.8104,-76.1789 1252.6885,-76.8389 1246.4861,-77.4506 1240.2149,-78.0121 1233.885,-78.5219 1227.5058,-78.9787 1221.0856,-79.3812 1214.6319,-79.7282 1208.1512,-80.0189 1201.6494,-80.2524 1195.1319,-80.428 1188.6035,-80.5454 1182.0687,-80.6042 1175.5318,-80.6042 1168.997,-80.5454 1162.4686,-80.428 1155.9511,-80.2524 1149.4493,-80.0189 1142.9686,-79.7282 1136.5149,-79.3812 1130.0947,-78.9787 1123.7155,-78.5219 1117.3856,-78.0121 1111.1144,-77.4506 1104.9121,-76.8389 1098.7901,-76.1789 1092.7611,-75.4721 1086.8387,-74.7207 1081.0378,-73.9266 1075.3741,-73.092 1069.8647,-72.2192 1064.5275,-71.3107 1059.3814,-70.3688 1054.4461,-69.3963 1049.7418,-68.3957 1045.2897,-67.3697 1041.1109,-66.3213 1037.2273,-65.2532 1033.6604,-64.1685 1030.4319,-63.07 1027.5632,-61.9608 1025.0752,-60.8439 1022.9881,-59.7224 1021.3212,-58.5994 1020.0928,-57.4779 1019.3199,-56.3611 1019.0179,-55.2519 1019.2008,-54.1534 1019.8805,-53.0686 1021.0671,-52.0006 1022.7683,-50.9521 1024.9898,-49.9262 1027.7344,-48.9256 1031.0029,-47.953 1034.793,-47.0112 1039.1,-46.1026 1043.9163,-45.2299 1049.2315,-44.3953 1055.0324,-43.6012 1061.3033,-42.8498 1068.0254,-42.143 1075.1776,-41.4829 1082.7358,-40.8713 1090.674,-40.3098 1098.9634,-39.7999 1107.5734,-39.3431 1116.471,-38.9407 1125.6219,-38.5937 1134.9897,-38.303 1144.5371,-38.0695 1154.2252,-37.8938 1164.0146,-37.7764 1173.8649,-37.7177 1183.7356,-37.7177 1193.586,-37.7764"/>
<text text-anchor="middle" x="1178.8003" y="-62.1609" font-family="Courier,monospace" font-weight="bold" font-size="10.00" fill="#000000">(1, &#39;A&#39;, &#39;y&#39;)</text>
<text text-anchor="middle" x="1178.8003" y="-51.1609" font-family="Courier,monospace" font-weight="bold" font-size="10.00" fill="#000000">(&#39;y&#39;, 0.11826936537850288)</text>
</g>
<!-- (0, &#39;A&#39;, &#39;y&#39;)&#45;&gt;(1, &#39;A&#39;, &#39;y&#39;) -->
<g id="edge5" class="edge">
<title>(0, &#39;A&#39;, &#39;y&#39;)&#45;&gt;(1, &#39;A&#39;, &#39;y&#39;)</title>
<path fill="none" stroke="#000000" d="M953.5524,-189.6335C964.0367,-185.5362 974.0648,-180.4519 983.1591,-174.1609 1008.7348,-156.4692 994.999,-133.7415 1019.1591,-114.1609 1038.4748,-98.5065 1062.5145,-87.1879 1086.0278,-79.0504"/>
<polygon fill="#000000" stroke="#000000" points="1087.299,-82.3168 1095.703,-75.8651 1085.11,-75.6679 1087.299,-82.3168"/>
</g>
<!-- (1, &#39;A&#39;, &#39;z&#39;) -->
<g id="node10" class="node">
<title>(1, &#39;A&#39;, &#39;z&#39;)</title>
<polygon fill="none" stroke="#000000" points="1193.0263,-266.7764 1202.445,-266.8938 1211.7664,-267.0695 1220.9524,-267.303 1229.9656,-267.5937 1238.77,-267.9407 1247.3309,-268.3431 1255.6149,-268.7999 1263.5906,-269.3098 1271.2282,-269.8713 1278.5004,-270.4829 1285.3818,-271.143 1291.8495,-271.8498 1297.883,-272.6012 1303.4643,-273.3953 1308.5783,-274.2299 1313.2123,-275.1026 1317.3562,-276.0112 1321.0029,-276.953 1324.1476,-277.9256 1326.7884,-278.9262 1328.9257,-279.9521 1330.5626,-281.0006 1331.7042,-282.0686 1332.3582,-283.1534 1332.5342,-284.2519 1332.2436,-285.3611 1331.5,-286.4779 1330.3181,-287.5994 1328.7143,-288.7224 1326.7061,-289.8439 1324.3123,-290.9608 1321.5522,-292.07 1318.446,-293.1685 1315.0141,-294.2532 1311.2775,-295.3213 1307.2569,-296.3697 1302.9733,-297.3957 1298.4471,-298.3963 1293.6986,-299.3688 1288.7473,-300.3107 1283.6121,-301.2192 1278.3113,-302.092 1272.862,-302.9266 1267.2806,-303.7207 1261.5824,-304.4721 1255.7817,-305.1789 1249.8915,-305.8389 1243.924,-306.4506 1237.8901,-307.0121 1231.7998,-307.5219 1225.6621,-307.9787 1219.485,-308.3812 1213.2755,-308.7282 1207.0401,-309.0189 1200.7845,-309.2524 1194.5137,-309.428 1188.2324,-309.5454 1181.945,-309.6042 1175.6555,-309.6042 1169.3681,-309.5454 1163.0868,-309.428 1156.816,-309.2524 1150.5604,-309.0189 1144.325,-308.7282 1138.1155,-308.3812 1131.9384,-307.9787 1125.8007,-307.5219 1119.7104,-307.0121 1113.6766,-306.4506 1107.709,-305.8389 1101.8188,-305.1789 1096.0181,-304.4721 1090.3199,-303.7207 1084.7385,-302.9266 1079.2892,-302.092 1073.9884,-301.2192 1068.8532,-300.3107 1063.9019,-299.3688 1059.1534,-298.3963 1054.6272,-297.3957 1050.3436,-296.3697 1046.323,-295.3213 1042.5864,-294.2532 1039.1545,-293.1685 1036.0483,-292.07 1033.2882,-290.9608 1030.8944,-289.8439 1028.8863,-288.7224 1027.2825,-287.5994 1026.1005,-286.4779 1025.3569,-285.3611 1025.0663,-284.2519 1025.2423,-283.1534 1025.8963,-282.0686 1027.0379,-281.0006 1028.6748,-279.9521 1030.8121,-278.9262 1033.4529,-277.9256 1036.5976,-276.953 1040.2443,-276.0112 1044.3882,-275.1026 1049.0222,-274.2299 1054.1362,-273.3953 1059.7176,-272.6012 1065.751,-271.8498 1072.2187,-271.143 1079.1001,-270.4829 1086.3723,-269.8713 1094.01,-269.3098 1101.9856,-268.7999 1110.2696,-268.3431 1118.8305,-267.9407 1127.6349,-267.5937 1136.6482,-267.303 1145.8341,-267.0695 1155.1555,-266.8938 1164.5743,-266.7764 1174.0517,-266.7177 1183.5488,-266.7177 1193.0263,-266.7764"/>
<text text-anchor="middle" x="1178.8003" y="-291.1609" font-family="Courier,monospace" font-weight="bold" font-size="10.00" fill="#000000">(1, &#39;A&#39;, &#39;z&#39;)</text>
<text text-anchor="middle" x="1178.8003" y="-280.1609" font-family="Courier,monospace" font-weight="bold" font-size="10.00" fill="#000000">(&#39;y&#39;, 0.0801755587140631)</text>
</g>
<!-- (0, &#39;A&#39;, &#39;y&#39;)&#45;&gt;(1, &#39;A&#39;, &#39;z&#39;) -->
<g id="edge6" class="edge">
<title>(0, &#39;A&#39;, &#39;y&#39;)&#45;&gt;(1, &#39;A&#39;, &#39;z&#39;)</title>
<path fill="none" stroke="#000000" d="M912.7289,-219.8499C935.8481,-224.1011 960.4636,-228.9754 983.1591,-234.1609 1022.7211,-243.2002 1066.2839,-255.0358 1102.2404,-265.3221"/>
<polygon fill="#000000" stroke="#000000" points="1101.5927,-268.7776 1112.1706,-268.1786 1103.5279,-262.0504 1101.5927,-268.7776"/>
</g>
<!-- (1, &#39;B&#39;, &#39;y&#39;) -->
<g id="node11" class="node">
<title>(1, &#39;B&#39;, &#39;y&#39;)</title>
<polygon fill="none" stroke="#000000" points="1193.586,-122.7764 1203.3753,-122.8938 1213.0634,-123.0695 1222.6108,-123.303 1231.9786,-123.5937 1241.1295,-123.9407 1250.0271,-124.3431 1258.6371,-124.7999 1266.9265,-125.3098 1274.8647,-125.8713 1282.423,-126.4829 1289.5751,-127.143 1296.2972,-127.8498 1302.5681,-128.6012 1308.3691,-129.3953 1313.6842,-130.2299 1318.5005,-131.1026 1322.8075,-132.0112 1326.5976,-132.953 1329.8661,-133.9256 1332.6108,-134.9262 1334.8322,-135.9521 1336.5334,-137.0006 1337.72,-138.0686 1338.3997,-139.1534 1338.5826,-140.2519 1338.2806,-141.3611 1337.5077,-142.4779 1336.2793,-143.5994 1334.6124,-144.7224 1332.5253,-145.8439 1330.0373,-146.9608 1327.1686,-148.07 1323.9401,-149.1685 1320.3733,-150.2532 1316.4896,-151.3213 1312.3109,-152.3697 1307.8587,-153.3957 1303.1545,-154.3963 1298.2191,-155.3688 1293.073,-156.3107 1287.7358,-157.2192 1282.2264,-158.092 1276.5627,-158.9266 1270.7618,-159.7207 1264.8394,-160.4721 1258.8104,-161.1789 1252.6885,-161.8389 1246.4861,-162.4506 1240.2149,-163.0121 1233.885,-163.5219 1227.5058,-163.9787 1221.0856,-164.3812 1214.6319,-164.7282 1208.1512,-165.0189 1201.6494,-165.2524 1195.1319,-165.428 1188.6035,-165.5454 1182.0687,-165.6042 1175.5318,-165.6042 1168.997,-165.5454 1162.4686,-165.428 1155.9511,-165.2524 1149.4493,-165.0189 1142.9686,-164.7282 1136.5149,-164.3812 1130.0947,-163.9787 1123.7155,-163.5219 1117.3856,-163.0121 1111.1144,-162.4506 1104.9121,-161.8389 1098.7901,-161.1789 1092.7611,-160.4721 1086.8387,-159.7207 1081.0378,-158.9266 1075.3741,-158.092 1069.8647,-157.2192 1064.5275,-156.3107 1059.3814,-155.3688 1054.4461,-154.3963 1049.7418,-153.3957 1045.2897,-152.3697 1041.1109,-151.3213 1037.2273,-150.2532 1033.6604,-149.1685 1030.4319,-148.07 1027.5632,-146.9608 1025.0752,-145.8439 1022.9881,-144.7224 1021.3212,-143.5994 1020.0928,-142.4779 1019.3199,-141.3611 1019.0179,-140.2519 1019.2008,-139.1534 1019.8805,-138.0686 1021.0671,-137.0006 1022.7683,-135.9521 1024.9898,-134.9262 1027.7344,-133.9256 1031.0029,-132.953 1034.793,-132.0112 1039.1,-131.1026 1043.9163,-130.2299 1049.2315,-129.3953 1055.0324,-128.6012 1061.3033,-127.8498 1068.0254,-127.143 1075.1776,-126.4829 1082.7358,-125.8713 1090.674,-125.3098 1098.9634,-124.7999 1107.5734,-124.3431 1116.471,-123.9407 1125.6219,-123.5937 1134.9897,-123.303 1144.5371,-123.0695 1154.2252,-122.8938 1164.0146,-122.7764 1173.8649,-122.7177 1183.7356,-122.7177 1193.586,-122.7764"/>
<text text-anchor="middle" x="1178.8003" y="-147.1609" font-family="Courier,monospace" font-weight="bold" font-size="10.00" fill="#000000">(1, &#39;B&#39;, &#39;y&#39;)</text>
<text text-anchor="middle" x="1178.8003" y="-136.1609" font-family="Courier,monospace" font-weight="bold" font-size="10.00" fill="#000000">(&#39;y&#39;, 0.22052234509949464)</text>
</g>
<!-- (0, &#39;A&#39;, &#39;y&#39;)&#45;&gt;(1, &#39;B&#39;, &#39;y&#39;) -->
<g id="edge7" class="edge">
<title>(0, &#39;A&#39;, &#39;y&#39;)&#45;&gt;(1, &#39;B&#39;, &#39;y&#39;)</title>
<path fill="none" stroke="#000000" d="M924.9613,-186.4025C972.6518,-178.4663 1028.6325,-169.1505 1075.8703,-161.2896"/>
<polygon fill="#000000" stroke="#000000" points="1076.5217,-164.7294 1085.8115,-159.6353 1075.3726,-157.8244 1076.5217,-164.7294"/>
</g>
<!-- (1, &#39;B&#39;, &#39;z&#39;) -->
<g id="node12" class="node">
<title>(1, &#39;B&#39;, &#39;z&#39;)</title>
<polygon fill="none" stroke="#000000" points="1193.0263,-182.7764 1202.445,-182.8938 1211.7664,-183.0695 1220.9524,-183.303 1229.9656,-183.5937 1238.77,-183.9407 1247.3309,-184.3431 1255.6149,-184.7999 1263.5906,-185.3098 1271.2282,-185.8713 1278.5004,-186.4829 1285.3818,-187.143 1291.8495,-187.8498 1297.883,-188.6012 1303.4643,-189.3953 1308.5783,-190.2299 1313.2123,-191.1026 1317.3562,-192.0112 1321.0029,-192.953 1324.1476,-193.9256 1326.7884,-194.9262 1328.9257,-195.9521 1330.5626,-197.0006 1331.7042,-198.0686 1332.3582,-199.1534 1332.5342,-200.2519 1332.2436,-201.3611 1331.5,-202.4779 1330.3181,-203.5994 1328.7143,-204.7224 1326.7061,-205.8439 1324.3123,-206.9608 1321.5522,-208.07 1318.446,-209.1685 1315.0141,-210.2532 1311.2775,-211.3213 1307.2569,-212.3697 1302.9733,-213.3957 1298.4471,-214.3963 1293.6986,-215.3688 1288.7473,-216.3107 1283.6121,-217.2192 1278.3113,-218.092 1272.862,-218.9266 1267.2806,-219.7207 1261.5824,-220.4721 1255.7817,-221.1789 1249.8915,-221.8389 1243.924,-222.4506 1237.8901,-223.0121 1231.7998,-223.5219 1225.6621,-223.9787 1219.485,-224.3812 1213.2755,-224.7282 1207.0401,-225.0189 1200.7845,-225.2524 1194.5137,-225.428 1188.2324,-225.5454 1181.945,-225.6042 1175.6555,-225.6042 1169.3681,-225.5454 1163.0868,-225.428 1156.816,-225.2524 1150.5604,-225.0189 1144.325,-224.7282 1138.1155,-224.3812 1131.9384,-223.9787 1125.8007,-223.5219 1119.7104,-223.0121 1113.6766,-222.4506 1107.709,-221.8389 1101.8188,-221.1789 1096.0181,-220.4721 1090.3199,-219.7207 1084.7385,-218.9266 1079.2892,-218.092 1073.9884,-217.2192 1068.8532,-216.3107 1063.9019,-215.3688 1059.1534,-214.3963 1054.6272,-213.3957 1050.3436,-212.3697 1046.323,-211.3213 1042.5864,-210.2532 1039.1545,-209.1685 1036.0483,-208.07 1033.2882,-206.9608 1030.8944,-205.8439 1028.8863,-204.7224 1027.2825,-203.5994 1026.1005,-202.4779 1025.3569,-201.3611 1025.0663,-200.2519 1025.2423,-199.1534 1025.8963,-198.0686 1027.0379,-197.0006 1028.6748,-195.9521 1030.8121,-194.9262 1033.4529,-193.9256 1036.5976,-192.953 1040.2443,-192.0112 1044.3882,-191.1026 1049.0222,-190.2299 1054.1362,-189.3953 1059.7176,-188.6012 1065.751,-187.8498 1072.2187,-187.143 1079.1001,-186.4829 1086.3723,-185.8713 1094.01,-185.3098 1101.9856,-184.7999 1110.2696,-184.3431 1118.8305,-183.9407 1127.6349,-183.5937 1136.6482,-183.303 1145.8341,-183.0695 1155.1555,-182.8938 1164.5743,-182.7764 1174.0517,-182.7177 1183.5488,-182.7177 1193.0263,-182.7764"/>
<text text-anchor="middle" x="1178.8003" y="-207.1609" font-family="Courier,monospace" font-weight="bold" font-size="10.00" fill="#000000">(1, &#39;B&#39;, &#39;z&#39;)</text>
<text text-anchor="middle" x="1178.8003" y="-196.1609" font-family="Courier,monospace" font-weight="bold" font-size="10.00" fill="#000000">(&#39;y&#39;, 0.1650159341672674)</text>
</g>
<!-- (0, &#39;A&#39;, &#39;y&#39;)&#45;&gt;(1, &#39;B&#39;, &#39;z&#39;) -->
<g id="edge8" class="edge">
<title>(0, &#39;A&#39;, &#39;y&#39;)&#45;&gt;(1, &#39;B&#39;, &#39;z&#39;)</title>
<path fill="none" stroke="#000000" d="M980.067,-204.1609C992.623,-204.1609 1005.2997,-204.1609 1017.8501,-204.1609"/>
<polygon fill="#000000" stroke="#000000" points="1017.8834,-207.661 1027.8834,-204.1609 1017.8834,-200.661 1017.8834,-207.661"/>
</g>
<!-- (0, &#39;A&#39;, &#39;z&#39;)&#45;&gt;(1, &#39;A&#39;, &#39;y&#39;) -->
<g id="edge9" class="edge">
<title>(0, &#39;A&#39;, &#39;z&#39;)&#45;&gt;(1, &#39;A&#39;, &#39;y&#39;)</title>
<path fill="none" stroke="#000000" d="M958.9582,-250.2947C967.7035,-245.9709 975.8924,-240.6594 983.1591,-234.1609 1024.6649,-197.0433 980.5882,-154.3197 1019.1591,-114.1609 1034.9019,-97.7701 1055.7507,-86.2627 1077.1691,-78.1842"/>
<polygon fill="#000000" stroke="#000000" points="1078.4365,-81.4485 1086.7004,-74.8183 1076.1056,-74.8479 1078.4365,-81.4485"/>
</g>
<!-- (0, &#39;A&#39;, &#39;z&#39;)&#45;&gt;(1, &#39;A&#39;, &#39;z&#39;) -->
<g id="edge10" class="edge">
<title>(0, &#39;A&#39;, &#39;z&#39;)&#45;&gt;(1, &#39;A&#39;, &#39;z&#39;)</title>
<path fill="none" stroke="#000000" d="M952.76,-273.1147C975.2474,-274.6116 998.7522,-276.1762 1021.7445,-277.7066"/>
<polygon fill="#000000" stroke="#000000" points="1021.7029,-281.2115 1031.9133,-278.3835 1022.1678,-274.227 1021.7029,-281.2115"/>
</g>
<!-- (0, &#39;A&#39;, &#39;z&#39;)&#45;&gt;(1, &#39;B&#39;, &#39;y&#39;) -->
<g id="edge11" class="edge">
<title>(0, &#39;A&#39;, &#39;z&#39;)&#45;&gt;(1, &#39;B&#39;, &#39;y&#39;)</title>
<path fill="none" stroke="#000000" d="M953.5524,-249.6335C964.0367,-245.5362 974.0648,-240.4519 983.1591,-234.1609 1008.7348,-216.4692 993.635,-191.9269 1019.1591,-174.1609 1028.1968,-167.8703 1038.1915,-162.8007 1048.641,-158.726"/>
<polygon fill="#000000" stroke="#000000" points="1050.1113,-161.9175 1058.3509,-155.2572 1047.7563,-155.3255 1050.1113,-161.9175"/>
</g>
<!-- (0, &#39;A&#39;, &#39;z&#39;)&#45;&gt;(1, &#39;B&#39;, &#39;z&#39;) -->
<g id="edge12" class="edge">
<title>(0, &#39;A&#39;, &#39;z&#39;)&#45;&gt;(1, &#39;B&#39;, &#39;z&#39;)</title>
<path fill="none" stroke="#000000" d="M924.9613,-246.4025C973.2334,-238.3695 1029.9991,-228.9231 1077.5946,-221.0027"/>
<polygon fill="#000000" stroke="#000000" points="1078.3156,-224.4309 1087.6054,-219.3368 1077.1665,-217.5258 1078.3156,-224.4309"/>
</g>
<!-- (0, &#39;C&#39;, &#39;y&#39;) -->
<g id="node7" class="node">
<title>(0, &#39;C&#39;, &#39;y&#39;)</title>
<polygon fill="none" stroke="#000000" points="833.0326,-62.7764 842.8219,-62.8938 852.51,-63.0695 862.0574,-63.303 871.4252,-63.5937 880.5761,-63.9407 889.4738,-64.3431 898.0837,-64.7999 906.3731,-65.3098 914.3113,-65.8713 921.8696,-66.4829 929.0217,-67.143 935.7438,-67.8498 942.0147,-68.6012 947.8157,-69.3953 953.1309,-70.2299 957.9471,-71.1026 962.2541,-72.0112 966.0442,-72.953 969.3127,-73.9256 972.0574,-74.9262 974.2788,-75.9521 975.98,-77.0006 977.1666,-78.0686 977.8463,-79.1534 978.0292,-80.2519 977.7273,-81.3611 976.9543,-82.4779 975.7259,-83.5994 974.059,-84.7224 971.9719,-85.8439 969.4839,-86.9608 966.6152,-88.07 963.3867,-89.1685 959.8199,-90.2532 955.9362,-91.3213 951.7575,-92.3697 947.3053,-93.3957 942.6011,-94.3963 937.6657,-95.3688 932.5196,-96.3107 927.1824,-97.2192 921.673,-98.092 916.0094,-98.9266 910.2084,-99.7207 904.286,-100.4721 898.257,-101.1789 892.1351,-101.8389 885.9328,-102.4506 879.6615,-103.0121 873.3316,-103.5219 866.9524,-103.9787 860.5323,-104.3812 854.0785,-104.7282 847.5978,-105.0189 841.096,-105.2524 834.5785,-105.428 828.0501,-105.5454 821.5153,-105.6042 814.9784,-105.6042 808.4436,-105.5454 801.9152,-105.428 795.3977,-105.2524 788.8959,-105.0189 782.4152,-104.7282 775.9615,-104.3812 769.5413,-103.9787 763.1621,-103.5219 756.8322,-103.0121 750.561,-102.4506 744.3587,-101.8389 738.2367,-101.1789 732.2077,-100.4721 726.2854,-99.7207 720.4844,-98.9266 714.8207,-98.092 709.3113,-97.2192 703.9741,-96.3107 698.828,-95.3688 693.8927,-94.3963 689.1884,-93.3957 684.7363,-92.3697 680.5575,-91.3213 676.6739,-90.2532 673.107,-89.1685 669.8785,-88.07 667.0099,-86.9608 664.5219,-85.8439 662.4347,-84.7224 660.7678,-83.5994 659.5394,-82.4779 658.7665,-81.3611 658.4645,-80.2519 658.6474,-79.1534 659.3271,-78.0686 660.5137,-77.0006 662.215,-75.9521 664.4364,-74.9262 667.1811,-73.9256 670.4495,-72.953 674.2396,-72.0112 678.5466,-71.1026 683.3629,-70.2299 688.6781,-69.3953 694.4791,-68.6012 700.7499,-67.8498 707.472,-67.143 714.6242,-66.4829 722.1825,-65.8713 730.1206,-65.3098 738.4101,-64.7999 747.02,-64.3431 755.9177,-63.9407 765.0685,-63.5937 774.4364,-63.303 783.9837,-63.0695 793.6718,-62.8938 803.4612,-62.7764 813.3115,-62.7177 823.1822,-62.7177 833.0326,-62.7764"/>
<text text-anchor="middle" x="818.2469" y="-87.1609" font-family="Courier,monospace" font-weight="bold" font-size="10.00" fill="#000000">(0, &#39;C&#39;, &#39;y&#39;)</text>
<text text-anchor="middle" x="818.2469" y="-76.1609" font-family="Courier,monospace" font-weight="bold" font-size="10.00" fill="#000000">(&#39;y&#39;, 0.19989758796890889)</text>
</g>
<!-- (0, &#39;B&#39;, &#39;y&#39;)&#45;&gt;(0, &#39;C&#39;, &#39;y&#39;) -->
<g id="edge13" class="edge">
<title>(0, &#39;B&#39;, &#39;y&#39;)&#45;&gt;(0, &#39;C&#39;, &#39;y&#39;)</title>
<path fill="none" stroke="#000000" d="M552.3855,-131.3994C604.1577,-122.2005 667.1783,-111.0029 718.8658,-101.819"/>
<polygon fill="#000000" stroke="#000000" points="719.4788,-105.265 728.7122,-100.0695 718.2541,-98.373 719.4788,-105.265"/>
</g>
<!-- (0, &#39;C&#39;, &#39;z&#39;) -->
<g id="node8" class="node">
<title>(0, &#39;C&#39;, &#39;z&#39;)</title>
<polygon fill="none" stroke="#000000" points="833.0326,-122.7764 842.8219,-122.8938 852.51,-123.0695 862.0574,-123.303 871.4252,-123.5937 880.5761,-123.9407 889.4738,-124.3431 898.0837,-124.7999 906.3731,-125.3098 914.3113,-125.8713 921.8696,-126.4829 929.0217,-127.143 935.7438,-127.8498 942.0147,-128.6012 947.8157,-129.3953 953.1309,-130.2299 957.9471,-131.1026 962.2541,-132.0112 966.0442,-132.953 969.3127,-133.9256 972.0574,-134.9262 974.2788,-135.9521 975.98,-137.0006 977.1666,-138.0686 977.8463,-139.1534 978.0292,-140.2519 977.7273,-141.3611 976.9543,-142.4779 975.7259,-143.5994 974.059,-144.7224 971.9719,-145.8439 969.4839,-146.9608 966.6152,-148.07 963.3867,-149.1685 959.8199,-150.2532 955.9362,-151.3213 951.7575,-152.3697 947.3053,-153.3957 942.6011,-154.3963 937.6657,-155.3688 932.5196,-156.3107 927.1824,-157.2192 921.673,-158.092 916.0094,-158.9266 910.2084,-159.7207 904.286,-160.4721 898.257,-161.1789 892.1351,-161.8389 885.9328,-162.4506 879.6615,-163.0121 873.3316,-163.5219 866.9524,-163.9787 860.5323,-164.3812 854.0785,-164.7282 847.5978,-165.0189 841.096,-165.2524 834.5785,-165.428 828.0501,-165.5454 821.5153,-165.6042 814.9784,-165.6042 808.4436,-165.5454 801.9152,-165.428 795.3977,-165.2524 788.8959,-165.0189 782.4152,-164.7282 775.9615,-164.3812 769.5413,-163.9787 763.1621,-163.5219 756.8322,-163.0121 750.561,-162.4506 744.3587,-161.8389 738.2367,-161.1789 732.2077,-160.4721 726.2854,-159.7207 720.4844,-158.9266 714.8207,-158.092 709.3113,-157.2192 703.9741,-156.3107 698.828,-155.3688 693.8927,-154.3963 689.1884,-153.3957 684.7363,-152.3697 680.5575,-151.3213 676.6739,-150.2532 673.107,-149.1685 669.8785,-148.07 667.0099,-146.9608 664.5219,-145.8439 662.4347,-144.7224 660.7678,-143.5994 659.5394,-142.4779 658.7665,-141.3611 658.4645,-140.2519 658.6474,-139.1534 659.3271,-138.0686 660.5137,-137.0006 662.215,-135.9521 664.4364,-134.9262 667.1811,-133.9256 670.4495,-132.953 674.2396,-132.0112 678.5466,-131.1026 683.3629,-130.2299 688.6781,-129.3953 694.4791,-128.6012 700.7499,-127.8498 707.472,-127.143 714.6242,-126.4829 722.1825,-125.8713 730.1206,-125.3098 738.4101,-124.7999 747.02,-124.3431 755.9177,-123.9407 765.0685,-123.5937 774.4364,-123.303 783.9837,-123.0695 793.6718,-122.8938 803.4612,-122.7764 813.3115,-122.7177 823.1822,-122.7177 833.0326,-122.7764"/>
<text text-anchor="middle" x="818.2469" y="-147.1609" font-family="Courier,monospace" font-weight="bold" font-size="10.00" fill="#000000">(0, &#39;C&#39;, &#39;z&#39;)</text>
<text text-anchor="middle" x="818.2469" y="-136.1609" font-family="Courier,monospace" font-weight="bold" font-size="10.00" fill="#000000">(&#39;y&#39;, 0.19989758796890889)</text>
</g>
<!-- (0, &#39;B&#39;, &#39;y&#39;)&#45;&gt;(0, &#39;C&#39;, &#39;z&#39;) -->
<g id="edge14" class="edge">
<title>(0, &#39;B&#39;, &#39;y&#39;)&#45;&gt;(0, &#39;C&#39;, &#39;z&#39;)</title>
<path fill="none" stroke="#000000" d="M605.4452,-147.0695C621.8214,-146.8456 638.5261,-146.6173 655.0149,-146.3919"/>
<polygon fill="#000000" stroke="#000000" points="655.2976,-149.8885 665.2488,-146.2521 655.2019,-142.8892 655.2976,-149.8885"/>
</g>
<!-- (0, &#39;B&#39;, &#39;y&#39;)&#45;&gt;(1, &#39;A&#39;, &#39;y&#39;) -->
<g id="edge15" class="edge">
<title>(0, &#39;B&#39;, &#39;y&#39;)&#45;&gt;(1, &#39;A&#39;, &#39;y&#39;)</title>
<path fill="none" stroke="#000000" d="M585.9027,-135.7841C597.0865,-131.4808 607.7595,-126.0326 617.3346,-119.1609 644.1643,-99.9065 624.8833,-70.9268 653.3346,-54.1609 716.4806,-16.9501 909.8708,-53.2246 983.1591,-54.1609 991.5225,-54.2678 1000.0865,-54.4003 1008.7352,-54.5526"/>
<polygon fill="#000000" stroke="#000000" points="1008.8573,-58.0554 1018.92,-54.7401 1008.9862,-51.0566 1008.8573,-58.0554"/>
</g>
<!-- (0, &#39;B&#39;, &#39;y&#39;)&#45;&gt;(1, &#39;A&#39;, &#39;z&#39;) -->
<g id="edge16" class="edge">
<title>(0, &#39;B&#39;, &#39;y&#39;)&#45;&gt;(1, &#39;A&#39;, &#39;z&#39;)</title>
<path fill="none" stroke="#000000" d="M467.6577,-170.4006C497.7508,-210.2925 569.2399,-295.2671 653.3346,-327.1609 809.7818,-386.4953 1010.9167,-341.1329 1113.0162,-310.3932"/>
<polygon fill="#000000" stroke="#000000" points="1114.3424,-313.6477 1122.881,-307.3754 1112.2946,-306.9539 1114.3424,-313.6477"/>
</g>
<!-- (0, &#39;B&#39;, &#39;z&#39;)&#45;&gt;(0, &#39;C&#39;, &#39;y&#39;) -->
<g id="edge17" class="edge">
<title>(0, &#39;B&#39;, &#39;z&#39;)&#45;&gt;(0, &#39;C&#39;, &#39;y&#39;)</title>
<path fill="none" stroke="#000000" d="M616.6082,-86.9169C629.4227,-86.7417 642.3612,-86.5649 655.1684,-86.3899"/>
<polygon fill="#000000" stroke="#000000" points="655.4553,-89.8864 665.4065,-86.2499 655.3596,-82.887 655.4553,-89.8864"/>
</g>
<!-- (0, &#39;B&#39;, &#39;z&#39;)&#45;&gt;(0, &#39;C&#39;, &#39;z&#39;) -->
<g id="edge18" class="edge">
<title>(0, &#39;B&#39;, &#39;z&#39;)&#45;&gt;(0, &#39;C&#39;, &#39;z&#39;)</title>
<path fill="none" stroke="#000000" d="M551.9023,-104.1173C596.346,-110.7992 649.1535,-118.7385 695.9811,-125.7788"/>
<polygon fill="#000000" stroke="#000000" points="695.4684,-129.241 705.8776,-127.2667 696.5092,-122.3188 695.4684,-129.241"/>
</g>
<!-- (0, &#39;B&#39;, &#39;z&#39;)&#45;&gt;(1, &#39;A&#39;, &#39;y&#39;) -->
<g id="edge19" class="edge">
<title>(0, &#39;B&#39;, &#39;z&#39;)&#45;&gt;(1, &#39;A&#39;, &#39;y&#39;)</title>
<path fill="none" stroke="#000000" d="M499.6024,-68.2903C539.6192,-51.7927 599.0136,-30.1044 653.3346,-21.1609 797.976,2.653 837.2443,-7.1214 983.1591,-21.1609 1017.6488,-24.4794 1055.092,-31.0164 1087.9005,-37.746"/>
<polygon fill="#000000" stroke="#000000" points="1087.4212,-41.2213 1097.9253,-39.8374 1088.8508,-34.3688 1087.4212,-41.2213"/>
</g>
<!-- (0, &#39;B&#39;, &#39;z&#39;)&#45;&gt;(1, &#39;A&#39;, &#39;z&#39;) -->
<g id="edge20" class="edge">
<title>(0, &#39;B&#39;, &#39;z&#39;)&#45;&gt;(1, &#39;A&#39;, &#39;z&#39;)</title>
<path fill="none" stroke="#000000" d="M585.9544,-98.5675C597.5434,-103.606 608.2815,-110.3131 617.3346,-119.1609 674.1237,-174.6621 591.7883,-243.9868 653.3346,-294.1609 715.5514,-344.8817 940.5177,-323.0378 1075.0919,-304.4237"/>
<polygon fill="#000000" stroke="#000000" points="1075.6032,-307.8863 1085.0212,-303.0335 1074.6325,-300.9539 1075.6032,-307.8863"/>
</g>
<!-- (0, &#39;C&#39;, &#39;y&#39;)&#45;&gt;(1, &#39;B&#39;, &#39;y&#39;) -->
<g id="edge21" class="edge">
<title>(0, &#39;C&#39;, &#39;y&#39;)&#45;&gt;(1, &#39;B&#39;, &#39;y&#39;)</title>
<path fill="none" stroke="#000000" d="M911.0983,-99.6124C957.459,-107.3273 1013.9976,-116.736 1063.1493,-124.9154"/>
<polygon fill="#000000" stroke="#000000" points="1062.7581,-128.3983 1073.197,-126.5874 1063.9073,-121.4933 1062.7581,-128.3983"/>
</g>
<!-- (0, &#39;C&#39;, &#39;y&#39;)&#45;&gt;(1, &#39;B&#39;, &#39;z&#39;) -->
<g id="edge22" class="edge">
<title>(0, &#39;C&#39;, &#39;y&#39;)&#45;&gt;(1, &#39;B&#39;, &#39;z&#39;)</title>
<path fill="none" stroke="#000000" d="M942.2271,-94.6853C956.7936,-99.3254 970.8339,-105.635 983.1591,-114.1609 1008.7348,-131.8527 993.635,-156.395 1019.1591,-174.1609 1025.7503,-178.7486 1032.8504,-182.6869 1040.2647,-186.0635"/>
<polygon fill="#000000" stroke="#000000" points="1039.2329,-189.4254 1049.8095,-190.0466 1041.9288,-182.9653 1039.2329,-189.4254"/>
</g>
<!-- (0, &#39;C&#39;, &#39;z&#39;)&#45;&gt;(1, &#39;B&#39;, &#39;y&#39;) -->
<g id="edge23" class="edge">
<title>(0, &#39;C&#39;, &#39;z&#39;)&#45;&gt;(1, &#39;B&#39;, &#39;y&#39;)</title>
<path fill="none" stroke="#000000" d="M975.0799,-144.1609C987.2458,-144.1609 999.5566,-144.1609 1011.7857,-144.1609"/>
<polygon fill="#000000" stroke="#000000" points="1012.0338,-147.661 1022.0338,-144.1609 1012.0338,-140.661 1012.0338,-147.661"/>
</g>
<!-- (0, &#39;C&#39;, &#39;z&#39;)&#45;&gt;(1, &#39;B&#39;, &#39;z&#39;) -->
<g id="edge24" class="edge">
<title>(0, &#39;C&#39;, &#39;z&#39;)&#45;&gt;(1, &#39;B&#39;, &#39;z&#39;)</title>
<path fill="none" stroke="#000000" d="M911.0983,-159.6124C957.947,-167.4086 1015.1891,-176.9343 1064.699,-185.1732"/>
<polygon fill="#000000" stroke="#000000" points="1064.3768,-188.6677 1074.8157,-186.8568 1065.5259,-181.7626 1064.3768,-188.6677"/>
</g>
<!-- (2, &#39;A&#39;, &#39;y&#39;) -->
<g id="node15" class="node">
<title>(2, &#39;A&#39;, &#39;y&#39;)</title>
<polygon fill="none" stroke="#000000" points="1548.8682,-62.7764 1558.6575,-62.8938 1568.3456,-63.0695 1577.893,-63.303 1587.2608,-63.5937 1596.4117,-63.9407 1605.3093,-64.3431 1613.9193,-64.7999 1622.2087,-65.3098 1630.1469,-65.8713 1637.7052,-66.4829 1644.8573,-67.143 1651.5794,-67.8498 1657.8503,-68.6012 1663.6513,-69.3953 1668.9665,-70.2299 1673.7827,-71.1026 1678.0897,-72.0112 1681.8798,-72.953 1685.1483,-73.9256 1687.893,-74.9262 1690.1144,-75.9521 1691.8156,-77.0006 1693.0022,-78.0686 1693.6819,-79.1534 1693.8648,-80.2519 1693.5629,-81.3611 1692.7899,-82.4779 1691.5615,-83.5994 1689.8946,-84.7224 1687.8075,-85.8439 1685.3195,-86.9608 1682.4508,-88.07 1679.2223,-89.1685 1675.6555,-90.2532 1671.7718,-91.3213 1667.5931,-92.3697 1663.1409,-93.3957 1658.4367,-94.3963 1653.5013,-95.3688 1648.3552,-96.3107 1643.018,-97.2192 1637.5086,-98.092 1631.845,-98.9266 1626.044,-99.7207 1620.1216,-100.4721 1614.0926,-101.1789 1607.9707,-101.8389 1601.7684,-102.4506 1595.4971,-103.0121 1589.1672,-103.5219 1582.788,-103.9787 1576.3678,-104.3812 1569.9141,-104.7282 1563.4334,-105.0189 1556.9316,-105.2524 1550.4141,-105.428 1543.8857,-105.5454 1537.3509,-105.6042 1530.814,-105.6042 1524.2792,-105.5454 1517.7508,-105.428 1511.2333,-105.2524 1504.7315,-105.0189 1498.2508,-104.7282 1491.7971,-104.3812 1485.3769,-103.9787 1478.9977,-103.5219 1472.6678,-103.0121 1466.3966,-102.4506 1460.1943,-101.8389 1454.0723,-101.1789 1448.0433,-100.4721 1442.121,-99.7207 1436.32,-98.9266 1430.6563,-98.092 1425.1469,-97.2192 1419.8097,-96.3107 1414.6636,-95.3688 1409.7283,-94.3963 1405.024,-93.3957 1400.5719,-92.3697 1396.3931,-91.3213 1392.5095,-90.2532 1388.9426,-89.1685 1385.7141,-88.07 1382.8455,-86.9608 1380.3575,-85.8439 1378.2703,-84.7224 1376.6034,-83.5994 1375.375,-82.4779 1374.6021,-81.3611 1374.3001,-80.2519 1374.483,-79.1534 1375.1627,-78.0686 1376.3493,-77.0006 1378.0505,-75.9521 1380.272,-74.9262 1383.0166,-73.9256 1386.2851,-72.953 1390.0752,-72.0112 1394.3822,-71.1026 1399.1985,-70.2299 1404.5137,-69.3953 1410.3146,-68.6012 1416.5855,-67.8498 1423.3076,-67.143 1430.4598,-66.4829 1438.0181,-65.8713 1445.9562,-65.3098 1454.2457,-64.7999 1462.8556,-64.3431 1471.7533,-63.9407 1480.9041,-63.5937 1490.272,-63.303 1499.8193,-63.0695 1509.5074,-62.8938 1519.2968,-62.7764 1529.1471,-62.7177 1539.0178,-62.7177 1548.8682,-62.7764"/>
<text text-anchor="middle" x="1534.0825" y="-87.1609" font-family="Courier,monospace" font-weight="bold" font-size="10.00" fill="#000000">(2, &#39;A&#39;, &#39;y&#39;)</text>
<text text-anchor="middle" x="1534.0825" y="-76.1609" font-family="Courier,monospace" font-weight="bold" font-size="10.00" fill="#000000">(&#39;y&#39;, 0.06613984013697097)</text>
</g>
<!-- (1, &#39;A&#39;, &#39;y&#39;)&#45;&gt;(2, &#39;A&#39;, &#39;y&#39;) -->
<g id="edge25" class="edge">
<title>(1, &#39;A&#39;, &#39;y&#39;)&#45;&gt;(2, &#39;A&#39;, &#39;y&#39;)</title>
<path fill="none" stroke="#000000" d="M1308.5734,-68.2926C1329.8028,-69.7865 1352.0179,-71.3497 1373.8774,-72.8878"/>
<polygon fill="#000000" stroke="#000000" points="1373.67,-76.3818 1383.8911,-73.5925 1374.1615,-69.3991 1373.67,-76.3818"/>
</g>
<!-- (2, &#39;A&#39;, &#39;z&#39;) -->
<g id="node16" class="node">
<title>(2, &#39;A&#39;, &#39;z&#39;)</title>
<polygon fill="none" stroke="#000000" points="1548.8682,-242.7764 1558.6575,-242.8938 1568.3456,-243.0695 1577.893,-243.303 1587.2608,-243.5937 1596.4117,-243.9407 1605.3093,-244.3431 1613.9193,-244.7999 1622.2087,-245.3098 1630.1469,-245.8713 1637.7052,-246.4829 1644.8573,-247.143 1651.5794,-247.8498 1657.8503,-248.6012 1663.6513,-249.3953 1668.9665,-250.2299 1673.7827,-251.1026 1678.0897,-252.0112 1681.8798,-252.953 1685.1483,-253.9256 1687.893,-254.9262 1690.1144,-255.9521 1691.8156,-257.0006 1693.0022,-258.0686 1693.6819,-259.1534 1693.8648,-260.2519 1693.5629,-261.3611 1692.7899,-262.4779 1691.5615,-263.5994 1689.8946,-264.7224 1687.8075,-265.8439 1685.3195,-266.9608 1682.4508,-268.07 1679.2223,-269.1685 1675.6555,-270.2532 1671.7718,-271.3213 1667.5931,-272.3697 1663.1409,-273.3957 1658.4367,-274.3963 1653.5013,-275.3688 1648.3552,-276.3107 1643.018,-277.2192 1637.5086,-278.092 1631.845,-278.9266 1626.044,-279.7207 1620.1216,-280.4721 1614.0926,-281.1789 1607.9707,-281.8389 1601.7684,-282.4506 1595.4971,-283.0121 1589.1672,-283.5219 1582.788,-283.9787 1576.3678,-284.3812 1569.9141,-284.7282 1563.4334,-285.0189 1556.9316,-285.2524 1550.4141,-285.428 1543.8857,-285.5454 1537.3509,-285.6042 1530.814,-285.6042 1524.2792,-285.5454 1517.7508,-285.428 1511.2333,-285.2524 1504.7315,-285.0189 1498.2508,-284.7282 1491.7971,-284.3812 1485.3769,-283.9787 1478.9977,-283.5219 1472.6678,-283.0121 1466.3966,-282.4506 1460.1943,-281.8389 1454.0723,-281.1789 1448.0433,-280.4721 1442.121,-279.7207 1436.32,-278.9266 1430.6563,-278.092 1425.1469,-277.2192 1419.8097,-276.3107 1414.6636,-275.3688 1409.7283,-274.3963 1405.024,-273.3957 1400.5719,-272.3697 1396.3931,-271.3213 1392.5095,-270.2532 1388.9426,-269.1685 1385.7141,-268.07 1382.8455,-266.9608 1380.3575,-265.8439 1378.2703,-264.7224 1376.6034,-263.5994 1375.375,-262.4779 1374.6021,-261.3611 1374.3001,-260.2519 1374.483,-259.1534 1375.1627,-258.0686 1376.3493,-257.0006 1378.0505,-255.9521 1380.272,-254.9262 1383.0166,-253.9256 1386.2851,-252.953 1390.0752,-252.0112 1394.3822,-251.1026 1399.1985,-250.2299 1404.5137,-249.3953 1410.3146,-248.6012 1416.5855,-247.8498 1423.3076,-247.143 1430.4598,-246.4829 1438.0181,-245.8713 1445.9562,-245.3098 1454.2457,-244.7999 1462.8556,-244.3431 1471.7533,-243.9407 1480.9041,-243.5937 1490.272,-243.303 1499.8193,-243.0695 1509.5074,-242.8938 1519.2968,-242.7764 1529.1471,-242.7177 1539.0178,-242.7177 1548.8682,-242.7764"/>
<text text-anchor="middle" x="1534.0825" y="-267.1609" font-family="Courier,monospace" font-weight="bold" font-size="10.00" fill="#000000">(2, &#39;A&#39;, &#39;z&#39;)</text>
<text text-anchor="middle" x="1534.0825" y="-256.1609" font-family="Courier,monospace" font-weight="bold" font-size="10.00" fill="#000000">(&#39;y&#39;, 0.04483662036461998)</text>
</g>
<!-- (1, &#39;A&#39;, &#39;y&#39;)&#45;&gt;(2, &#39;A&#39;, &#39;z&#39;) -->
<g id="edge26" class="edge">
<title>(1, &#39;A&#39;, &#39;y&#39;)&#45;&gt;(2, &#39;A&#39;, &#39;z&#39;)</title>
<path fill="none" stroke="#000000" d="M1270.9001,-74.8183C1295.5675,-82.9638 1320.3689,-95.3445 1338.4414,-114.1609 1377.0123,-154.3197 1333.0436,-196.923 1374.4414,-234.1609 1379.1883,-238.4309 1384.3442,-242.1802 1389.7997,-245.4676"/>
<polygon fill="#000000" stroke="#000000" points="1388.1473,-248.553 1398.6034,-250.2617 1391.495,-242.4054 1388.1473,-248.553"/>
</g>
<!-- (2, &#39;B&#39;, &#39;y&#39;) -->
<g id="node17" class="node">
<title>(2, &#39;B&#39;, &#39;y&#39;)</title>
<polygon fill="none" stroke="#000000" points="1903.5907,-122.7764 1913.0095,-122.8938 1922.3309,-123.0695 1931.5168,-123.303 1940.53,-123.5937 1949.3345,-123.9407 1957.8953,-124.3431 1966.1793,-124.7999 1974.155,-125.3098 1981.7927,-125.8713 1989.0648,-126.4829 1995.9462,-127.143 2002.4139,-127.8498 2008.4474,-128.6012 2014.0288,-129.3953 2019.1427,-130.2299 2023.7767,-131.1026 2027.9206,-132.0112 2031.5673,-132.953 2034.712,-133.9256 2037.3528,-134.9262 2039.4901,-135.9521 2041.127,-137.0006 2042.2686,-138.0686 2042.9226,-139.1534 2043.0986,-140.2519 2042.8081,-141.3611 2042.0644,-142.4779 2040.8825,-143.5994 2039.2787,-144.7224 2037.2706,-145.8439 2034.8767,-146.9608 2032.1167,-148.07 2029.0104,-149.1685 2025.5786,-150.2532 2021.8419,-151.3213 2017.8214,-152.3697 2013.5377,-153.3957 2009.0116,-154.3963 2004.263,-155.3688 1999.3117,-156.3107 1994.1766,-157.2192 1988.8757,-158.092 1983.4265,-158.9266 1977.8451,-159.7207 1972.1469,-160.4721 1966.3461,-161.1789 1960.4559,-161.8389 1954.4884,-162.4506 1948.4545,-163.0121 1942.3642,-163.5219 1936.2265,-163.9787 1930.0494,-164.3812 1923.8399,-164.7282 1917.6046,-165.0189 1911.3489,-165.2524 1905.0781,-165.428 1898.7969,-165.5454 1892.5094,-165.6042 1886.2199,-165.6042 1879.9325,-165.5454 1873.6512,-165.428 1867.3804,-165.2524 1861.1248,-165.0189 1854.8894,-164.7282 1848.68,-164.3812 1842.5028,-163.9787 1836.3651,-163.5219 1830.2749,-163.0121 1824.241,-162.4506 1818.2735,-161.8389 1812.3833,-161.1789 1806.5825,-160.4721 1800.8843,-159.7207 1795.3029,-158.9266 1789.8536,-158.092 1784.5528,-157.2192 1779.4176,-156.3107 1774.4663,-155.3688 1769.7178,-154.3963 1765.1916,-153.3957 1760.908,-152.3697 1756.8875,-151.3213 1753.1508,-150.2532 1749.7189,-149.1685 1746.6127,-148.07 1743.8526,-146.9608 1741.4588,-145.8439 1739.4507,-144.7224 1737.8469,-143.5994 1736.665,-142.4779 1735.9213,-141.3611 1735.6308,-140.2519 1735.8067,-139.1534 1736.4607,-138.0686 1737.6024,-137.0006 1739.2392,-135.9521 1741.3765,-134.9262 1744.0173,-133.9256 1747.1621,-132.953 1750.8087,-132.0112 1754.9527,-131.1026 1759.5866,-130.2299 1764.7006,-129.3953 1770.282,-128.6012 1776.3155,-127.8498 1782.7831,-127.143 1789.6645,-126.4829 1796.9367,-125.8713 1804.5744,-125.3098 1812.55,-124.7999 1820.834,-124.3431 1829.3949,-123.9407 1838.1993,-123.5937 1847.2126,-123.303 1856.3985,-123.0695 1865.7199,-122.8938 1875.1387,-122.7764 1884.6161,-122.7177 1894.1132,-122.7177 1903.5907,-122.7764"/>
<text text-anchor="middle" x="1889.3647" y="-147.1609" font-family="Courier,monospace" font-weight="bold" font-size="10.00" fill="#000000">(2, &#39;B&#39;, &#39;y&#39;)</text>
<text text-anchor="middle" x="1889.3647" y="-136.1609" font-family="Courier,monospace" font-weight="bold" font-size="10.00" fill="#000000">(&#39;y&#39;, 0.1303070431028816)</text>
</g>
<!-- (1, &#39;A&#39;, &#39;y&#39;)&#45;&gt;(2, &#39;B&#39;, &#39;y&#39;) -->
<g id="edge27" class="edge">
<title>(1, &#39;A&#39;, &#39;y&#39;)&#45;&gt;(2, &#39;B&#39;, &#39;y&#39;)</title>
<path fill="none" stroke="#000000" d="M1247.4268,-39.1786C1347.6309,-13.3117 1538.8996,23.4648 1693.7236,-21.1609 1757.8779,-39.6525 1821.2969,-86.0793 1857.8268,-116.3084"/>
<polygon fill="#000000" stroke="#000000" points="1855.7331,-119.1206 1865.6424,-122.8701 1860.2341,-113.7595 1855.7331,-119.1206"/>
</g>
<!-- (2, &#39;B&#39;, &#39;z&#39;) -->
<g id="node18" class="node">
<title>(2, &#39;B&#39;, &#39;z&#39;)</title>
<polygon fill="none" stroke="#000000" points="1904.1504,-182.7764 1913.9397,-182.8938 1923.6279,-183.0695 1933.1752,-183.303 1942.543,-183.5937 1951.6939,-183.9407 1960.5916,-184.3431 1969.2015,-184.7999 1977.4909,-185.3098 1985.4291,-185.8713 1992.9874,-186.4829 2000.1395,-187.143 2006.8616,-187.8498 2013.1325,-188.6012 2018.9335,-189.3953 2024.2487,-190.2299 2029.0649,-191.1026 2033.3719,-192.0112 2037.162,-192.953 2040.4305,-193.9256 2043.1752,-194.9262 2045.3966,-195.9521 2047.0978,-197.0006 2048.2844,-198.0686 2048.9641,-199.1534 2049.147,-200.2519 2048.8451,-201.3611 2048.0721,-202.4779 2046.8437,-203.5994 2045.1768,-204.7224 2043.0897,-205.8439 2040.6017,-206.9608 2037.733,-208.07 2034.5046,-209.1685 2030.9377,-210.2532 2027.054,-211.3213 2022.8753,-212.3697 2018.4231,-213.3957 2013.7189,-214.3963 2008.7835,-215.3688 2003.6374,-216.3107 1998.3002,-217.2192 1992.7908,-218.092 1987.1272,-218.9266 1981.3262,-219.7207 1975.4038,-220.4721 1969.3748,-221.1789 1963.2529,-221.8389 1957.0506,-222.4506 1950.7793,-223.0121 1944.4494,-223.5219 1938.0702,-223.9787 1931.6501,-224.3812 1925.1963,-224.7282 1918.7156,-225.0189 1912.2139,-225.2524 1905.6964,-225.428 1899.168,-225.5454 1892.6331,-225.6042 1886.0962,-225.6042 1879.5614,-225.5454 1873.033,-225.428 1866.5155,-225.2524 1860.0138,-225.0189 1853.533,-224.7282 1847.0793,-224.3812 1840.6591,-223.9787 1834.2799,-223.5219 1827.9501,-223.0121 1821.6788,-222.4506 1815.4765,-221.8389 1809.3546,-221.1789 1803.3256,-220.4721 1797.4032,-219.7207 1791.6022,-218.9266 1785.9385,-218.092 1780.4291,-217.2192 1775.0919,-216.3107 1769.9458,-215.3688 1765.0105,-214.3963 1760.3063,-213.3957 1755.8541,-212.3697 1751.6754,-211.3213 1747.7917,-210.2532 1744.2248,-209.1685 1740.9963,-208.07 1738.1277,-206.9608 1735.6397,-205.8439 1733.5525,-204.7224 1731.8856,-203.5994 1730.6572,-202.4779 1729.8843,-201.3611 1729.5823,-200.2519 1729.7652,-199.1534 1730.445,-198.0686 1731.6315,-197.0006 1733.3328,-195.9521 1735.5542,-194.9262 1738.2989,-193.9256 1741.5673,-192.953 1745.3575,-192.0112 1749.6644,-191.1026 1754.4807,-190.2299 1759.7959,-189.3953 1765.5969,-188.6012 1771.8677,-187.8498 1778.5899,-187.143 1785.742,-186.4829 1793.3003,-185.8713 1801.2384,-185.3098 1809.5279,-184.7999 1818.1378,-184.3431 1827.0355,-183.9407 1836.1863,-183.5937 1845.5542,-183.303 1855.1015,-183.0695 1864.7896,-182.8938 1874.579,-182.7764 1884.4293,-182.7177 1894.3,-182.7177 1904.1504,-182.7764"/>
<text text-anchor="middle" x="1889.3647" y="-207.1609" font-family="Courier,monospace" font-weight="bold" font-size="10.00" fill="#000000">(2, &#39;B&#39;, &#39;z&#39;)</text>
<text text-anchor="middle" x="1889.3647" y="-196.1609" font-family="Courier,monospace" font-weight="bold" font-size="10.00" fill="#000000">(&#39;y&#39;, 0.09750820687352495)</text>
</g>
<!-- (1, &#39;A&#39;, &#39;y&#39;)&#45;&gt;(2, &#39;B&#39;, &#39;z&#39;) -->
<g id="edge28" class="edge">
<title>(1, &#39;A&#39;, &#39;y&#39;)&#45;&gt;(2, &#39;B&#39;, &#39;z&#39;)</title>
<path fill="none" stroke="#000000" d="M1293.4493,-42.4897C1425.6912,-25.8889 1632.7569,-8.7999 1693.7236,-54.1609 1738.3966,-87.399 1688.3258,-136.923 1729.7236,-174.1609 1734.4705,-178.4309 1739.6264,-182.1802 1745.0819,-185.4676"/>
<polygon fill="#000000" stroke="#000000" points="1743.4295,-188.553 1753.8856,-190.2617 1746.7772,-182.4054 1743.4295,-188.553"/>
</g>
<!-- (1, &#39;A&#39;, &#39;z&#39;)&#45;&gt;(2, &#39;A&#39;, &#39;y&#39;) -->
<g id="edge29" class="edge">
<title>(1, &#39;A&#39;, &#39;z&#39;)&#45;&gt;(2, &#39;A&#39;, &#39;y&#39;)</title>
<path fill="none" stroke="#000000" d="M1278.7725,-270.4079C1300.7633,-262.4384 1322.2819,-250.8914 1338.4414,-234.1609 1377.1248,-194.1105 1333.0436,-151.3989 1374.4414,-114.1609 1381.5994,-107.7221 1389.6875,-102.4672 1398.3303,-98.1948"/>
<polygon fill="#000000" stroke="#000000" points="1399.8185,-101.3634 1407.5221,-94.0898 1396.964,-94.9718 1399.8185,-101.3634"/>
</g>
<!-- (1, &#39;A&#39;, &#39;z&#39;)&#45;&gt;(2, &#39;A&#39;, &#39;z&#39;) -->
<g id="edge30" class="edge">
<title>(1, &#39;A&#39;, &#39;z&#39;)&#45;&gt;(2, &#39;A&#39;, &#39;z&#39;)</title>
<path fill="none" stroke="#000000" d="M1325.1017,-278.278C1347.4935,-276.7654 1370.5714,-275.2064 1392.8509,-273.7014"/>
<polygon fill="#000000" stroke="#000000" points="1393.2846,-277.1802 1403.0259,-273.0141 1392.8127,-270.1961 1393.2846,-277.1802"/>
</g>
<!-- (1, &#39;A&#39;, &#39;z&#39;)&#45;&gt;(2, &#39;B&#39;, &#39;y&#39;) -->
<g id="edge31" class="edge">
<title>(1, &#39;A&#39;, &#39;z&#39;)&#45;&gt;(2, &#39;B&#39;, &#39;y&#39;)</title>
<path fill="none" stroke="#000000" d="M1274.75,-302.6469C1405.2488,-320.1431 1629.7969,-341.7243 1693.7236,-294.1609 1738.3966,-260.9229 1688.3258,-211.3989 1729.7236,-174.1609 1737.3501,-167.3008 1746.0324,-161.7844 1755.3165,-157.3685"/>
<polygon fill="#000000" stroke="#000000" points="1756.9719,-160.467 1764.7843,-153.3104 1754.2141,-154.0331 1756.9719,-160.467"/>
</g>
<!-- (1, &#39;A&#39;, &#39;z&#39;)&#45;&gt;(2, &#39;B&#39;, &#39;z&#39;) -->
<g id="edge32" class="edge">
<title>(1, &#39;A&#39;, &#39;z&#39;)&#45;&gt;(2, &#39;B&#39;, &#39;z&#39;)</title>
<path fill="none" stroke="#000000" d="M1241.2699,-306.7362C1339.6214,-332.9301 1535.6468,-372.7242 1693.7236,-327.1609 1757.8779,-308.6694 1821.2969,-262.2426 1857.8268,-232.0135"/>
<polygon fill="#000000" stroke="#000000" points="1860.2341,-234.5623 1865.6424,-225.4518 1855.7331,-229.2012 1860.2341,-234.5623"/>
</g>
<!-- (1, &#39;C&#39;, &#39;y&#39;) -->
<g id="node13" class="node">
<title>(1, &#39;C&#39;, &#39;y&#39;)</title>
<polygon fill="none" stroke="#000000" points="1548.8682,-182.7764 1558.6575,-182.8938 1568.3456,-183.0695 1577.893,-183.303 1587.2608,-183.5937 1596.4117,-183.9407 1605.3093,-184.3431 1613.9193,-184.7999 1622.2087,-185.3098 1630.1469,-185.8713 1637.7052,-186.4829 1644.8573,-187.143 1651.5794,-187.8498 1657.8503,-188.6012 1663.6513,-189.3953 1668.9665,-190.2299 1673.7827,-191.1026 1678.0897,-192.0112 1681.8798,-192.953 1685.1483,-193.9256 1687.893,-194.9262 1690.1144,-195.9521 1691.8156,-197.0006 1693.0022,-198.0686 1693.6819,-199.1534 1693.8648,-200.2519 1693.5629,-201.3611 1692.7899,-202.4779 1691.5615,-203.5994 1689.8946,-204.7224 1687.8075,-205.8439 1685.3195,-206.9608 1682.4508,-208.07 1679.2223,-209.1685 1675.6555,-210.2532 1671.7718,-211.3213 1667.5931,-212.3697 1663.1409,-213.3957 1658.4367,-214.3963 1653.5013,-215.3688 1648.3552,-216.3107 1643.018,-217.2192 1637.5086,-218.092 1631.845,-218.9266 1626.044,-219.7207 1620.1216,-220.4721 1614.0926,-221.1789 1607.9707,-221.8389 1601.7684,-222.4506 1595.4971,-223.0121 1589.1672,-223.5219 1582.788,-223.9787 1576.3678,-224.3812 1569.9141,-224.7282 1563.4334,-225.0189 1556.9316,-225.2524 1550.4141,-225.428 1543.8857,-225.5454 1537.3509,-225.6042 1530.814,-225.6042 1524.2792,-225.5454 1517.7508,-225.428 1511.2333,-225.2524 1504.7315,-225.0189 1498.2508,-224.7282 1491.7971,-224.3812 1485.3769,-223.9787 1478.9977,-223.5219 1472.6678,-223.0121 1466.3966,-222.4506 1460.1943,-221.8389 1454.0723,-221.1789 1448.0433,-220.4721 1442.121,-219.7207 1436.32,-218.9266 1430.6563,-218.092 1425.1469,-217.2192 1419.8097,-216.3107 1414.6636,-215.3688 1409.7283,-214.3963 1405.024,-213.3957 1400.5719,-212.3697 1396.3931,-211.3213 1392.5095,-210.2532 1388.9426,-209.1685 1385.7141,-208.07 1382.8455,-206.9608 1380.3575,-205.8439 1378.2703,-204.7224 1376.6034,-203.5994 1375.375,-202.4779 1374.6021,-201.3611 1374.3001,-200.2519 1374.483,-199.1534 1375.1627,-198.0686 1376.3493,-197.0006 1378.0505,-195.9521 1380.272,-194.9262 1383.0166,-193.9256 1386.2851,-192.953 1390.0752,-192.0112 1394.3822,-191.1026 1399.1985,-190.2299 1404.5137,-189.3953 1410.3146,-188.6012 1416.5855,-187.8498 1423.3076,-187.143 1430.4598,-186.4829 1438.0181,-185.8713 1445.9562,-185.3098 1454.2457,-184.7999 1462.8556,-184.3431 1471.7533,-183.9407 1480.9041,-183.5937 1490.272,-183.303 1499.8193,-183.0695 1509.5074,-182.8938 1519.2968,-182.7764 1529.1471,-182.7177 1539.0178,-182.7177 1548.8682,-182.7764"/>
<text text-anchor="middle" x="1534.0825" y="-207.1609" font-family="Courier,monospace" font-weight="bold" font-size="10.00" fill="#000000">(1, &#39;C&#39;, &#39;y&#39;)</text>
<text text-anchor="middle" x="1534.0825" y="-196.1609" font-family="Courier,monospace" font-weight="bold" font-size="10.00" fill="#000000">(&#39;y&#39;, 0.15413634419021865)</text>
</g>
<!-- (1, &#39;B&#39;, &#39;y&#39;)&#45;&gt;(1, &#39;C&#39;, &#39;y&#39;) -->
<g id="edge33" class="edge">
<title>(1, &#39;B&#39;, &#39;y&#39;)&#45;&gt;(1, &#39;C&#39;, &#39;y&#39;)</title>
<path fill="none" stroke="#000000" d="M1271.219,-159.7686C1316.519,-167.4189 1371.509,-176.7056 1419.4604,-184.8036"/>
<polygon fill="#000000" stroke="#000000" points="1419.1366,-188.2984 1429.5799,-186.5126 1420.3024,-181.3961 1419.1366,-188.2984"/>
</g>
<!-- (1, &#39;C&#39;, &#39;z&#39;) -->
<g id="node14" class="node">
<title>(1, &#39;C&#39;, &#39;z&#39;)</title>
<polygon fill="none" stroke="#000000" points="1548.8682,-122.7764 1558.6575,-122.8938 1568.3456,-123.0695 1577.893,-123.303 1587.2608,-123.5937 1596.4117,-123.9407 1605.3093,-124.3431 1613.9193,-124.7999 1622.2087,-125.3098 1630.1469,-125.8713 1637.7052,-126.4829 1644.8573,-127.143 1651.5794,-127.8498 1657.8503,-128.6012 1663.6513,-129.3953 1668.9665,-130.2299 1673.7827,-131.1026 1678.0897,-132.0112 1681.8798,-132.953 1685.1483,-133.9256 1687.893,-134.9262 1690.1144,-135.9521 1691.8156,-137.0006 1693.0022,-138.0686 1693.6819,-139.1534 1693.8648,-140.2519 1693.5629,-141.3611 1692.7899,-142.4779 1691.5615,-143.5994 1689.8946,-144.7224 1687.8075,-145.8439 1685.3195,-146.9608 1682.4508,-148.07 1679.2223,-149.1685 1675.6555,-150.2532 1671.7718,-151.3213 1667.5931,-152.3697 1663.1409,-153.3957 1658.4367,-154.3963 1653.5013,-155.3688 1648.3552,-156.3107 1643.018,-157.2192 1637.5086,-158.092 1631.845,-158.9266 1626.044,-159.7207 1620.1216,-160.4721 1614.0926,-161.1789 1607.9707,-161.8389 1601.7684,-162.4506 1595.4971,-163.0121 1589.1672,-163.5219 1582.788,-163.9787 1576.3678,-164.3812 1569.9141,-164.7282 1563.4334,-165.0189 1556.9316,-165.2524 1550.4141,-165.428 1543.8857,-165.5454 1537.3509,-165.6042 1530.814,-165.6042 1524.2792,-165.5454 1517.7508,-165.428 1511.2333,-165.2524 1504.7315,-165.0189 1498.2508,-164.7282 1491.7971,-164.3812 1485.3769,-163.9787 1478.9977,-163.5219 1472.6678,-163.0121 1466.3966,-162.4506 1460.1943,-161.8389 1454.0723,-161.1789 1448.0433,-160.4721 1442.121,-159.7207 1436.32,-158.9266 1430.6563,-158.092 1425.1469,-157.2192 1419.8097,-156.3107 1414.6636,-155.3688 1409.7283,-154.3963 1405.024,-153.3957 1400.5719,-152.3697 1396.3931,-151.3213 1392.5095,-150.2532 1388.9426,-149.1685 1385.7141,-148.07 1382.8455,-146.9608 1380.3575,-145.8439 1378.2703,-144.7224 1376.6034,-143.5994 1375.375,-142.4779 1374.6021,-141.3611 1374.3001,-140.2519 1374.483,-139.1534 1375.1627,-138.0686 1376.3493,-137.0006 1378.0505,-135.9521 1380.272,-134.9262 1383.0166,-133.9256 1386.2851,-132.953 1390.0752,-132.0112 1394.3822,-131.1026 1399.1985,-130.2299 1404.5137,-129.3953 1410.3146,-128.6012 1416.5855,-127.8498 1423.3076,-127.143 1430.4598,-126.4829 1438.0181,-125.8713 1445.9562,-125.3098 1454.2457,-124.7999 1462.8556,-124.3431 1471.7533,-123.9407 1480.9041,-123.5937 1490.272,-123.303 1499.8193,-123.0695 1509.5074,-122.8938 1519.2968,-122.7764 1529.1471,-122.7177 1539.0178,-122.7177 1548.8682,-122.7764"/>
<text text-anchor="middle" x="1534.0825" y="-147.1609" font-family="Courier,monospace" font-weight="bold" font-size="10.00" fill="#000000">(1, &#39;C&#39;, &#39;z&#39;)</text>
<text text-anchor="middle" x="1534.0825" y="-136.1609" font-family="Courier,monospace" font-weight="bold" font-size="10.00" fill="#000000">(&#39;y&#39;, 0.15413634419021865)</text>
</g>
<!-- (1, &#39;B&#39;, &#39;y&#39;)&#45;&gt;(1, &#39;C&#39;, &#39;z&#39;) -->
<g id="edge34" class="edge">
<title>(1, &#39;B&#39;, &#39;y&#39;)&#45;&gt;(1, &#39;C&#39;, &#39;z&#39;)</title>
<path fill="none" stroke="#000000" d="M1335.6664,-144.1609C1346.1611,-144.1609 1356.754,-144.1609 1367.2956,-144.1609"/>
<polygon fill="#000000" stroke="#000000" points="1367.382,-147.661 1377.382,-144.1609 1367.382,-140.661 1367.382,-147.661"/>
</g>
<!-- (1, &#39;B&#39;, &#39;y&#39;)&#45;&gt;(2, &#39;A&#39;, &#39;y&#39;) -->
<g id="edge35" class="edge">
<title>(1, &#39;B&#39;, &#39;y&#39;)&#45;&gt;(2, &#39;A&#39;, &#39;y&#39;)</title>
<path fill="none" stroke="#000000" d="M1283.475,-126.4835C1330.2905,-118.5773 1385.2893,-109.2891 1431.8181,-101.4313"/>
<polygon fill="#000000" stroke="#000000" points="1432.6393,-104.8423 1441.9168,-99.7258 1431.4736,-97.94 1432.6393,-104.8423"/>
</g>
<!-- (1, &#39;B&#39;, &#39;y&#39;)&#45;&gt;(2, &#39;A&#39;, &#39;z&#39;) -->
<g id="edge36" class="edge">
<title>(1, &#39;B&#39;, &#39;y&#39;)&#45;&gt;(2, &#39;A&#39;, &#39;z&#39;)</title>
<path fill="none" stroke="#000000" d="M1299.2496,-155.2572C1313.2001,-159.8113 1326.637,-165.9446 1338.4414,-174.1609 1363.9655,-191.9269 1348.9172,-216.395 1374.4414,-234.1609 1380.5678,-238.4252 1387.1339,-242.1283 1393.9833,-245.3408"/>
<polygon fill="#000000" stroke="#000000" points="1392.915,-248.6912 1403.4844,-249.424 1395.6789,-242.2599 1392.915,-248.6912"/>
</g>
<!-- (1, &#39;B&#39;, &#39;z&#39;)&#45;&gt;(1, &#39;C&#39;, &#39;y&#39;) -->
<g id="edge37" class="edge">
<title>(1, &#39;B&#39;, &#39;z&#39;)&#45;&gt;(1, &#39;C&#39;, &#39;y&#39;)</title>
<path fill="none" stroke="#000000" d="M1329.7295,-204.1609C1342.1817,-204.1609 1354.8132,-204.1609 1367.3716,-204.1609"/>
<polygon fill="#000000" stroke="#000000" points="1367.4227,-207.661 1377.4227,-204.1609 1367.4226,-200.661 1367.4227,-207.661"/>
</g>
<!-- (1, &#39;B&#39;, &#39;z&#39;)&#45;&gt;(1, &#39;C&#39;, &#39;z&#39;) -->
<g id="edge38" class="edge">
<title>(1, &#39;B&#39;, &#39;z&#39;)&#45;&gt;(1, &#39;C&#39;, &#39;z&#39;)</title>
<path fill="none" stroke="#000000" d="M1282.0398,-186.7259C1329.1888,-178.7633 1384.8727,-169.3594 1431.8938,-161.4185"/>
<polygon fill="#000000" stroke="#000000" points="1432.5123,-164.8637 1441.7898,-159.7473 1431.3466,-157.9615 1432.5123,-164.8637"/>
</g>
<!-- (1, &#39;B&#39;, &#39;z&#39;)&#45;&gt;(2, &#39;A&#39;, &#39;y&#39;) -->
<g id="edge39" class="edge">
<title>(1, &#39;B&#39;, &#39;z&#39;)&#45;&gt;(2, &#39;A&#39;, &#39;y&#39;)</title>
<path fill="none" stroke="#000000" d="M1307.791,-190.0466C1318.6638,-185.8968 1329.0673,-180.6857 1338.4414,-174.1609 1363.9655,-156.395 1348.9172,-131.9269 1374.4414,-114.1609 1383.4791,-107.8703 1393.4737,-102.8007 1403.9232,-98.726"/>
<polygon fill="#000000" stroke="#000000" points="1405.3935,-101.9175 1413.6331,-95.2572 1403.0385,-95.3255 1405.3935,-101.9175"/>
</g>
<!-- (1, &#39;B&#39;, &#39;z&#39;)&#45;&gt;(2, &#39;A&#39;, &#39;z&#39;) -->
<g id="edge40" class="edge">
<title>(1, &#39;B&#39;, &#39;z&#39;)&#45;&gt;(2, &#39;A&#39;, &#39;z&#39;)</title>
<path fill="none" stroke="#000000" d="M1269.3722,-219.4567C1315.0524,-227.1712 1370.9377,-236.6091 1419.5678,-244.8217"/>
<polygon fill="#000000" stroke="#000000" points="1419.0665,-248.2865 1429.5097,-246.5007 1420.2322,-241.3843 1419.0665,-248.2865"/>
</g>
<!-- (1, &#39;C&#39;, &#39;y&#39;)&#45;&gt;(2, &#39;B&#39;, &#39;y&#39;) -->
<g id="edge41" class="edge">
<title>(1, &#39;C&#39;, &#39;y&#39;)&#45;&gt;(2, &#39;B&#39;, &#39;y&#39;)</title>
<path fill="none" stroke="#000000" d="M1638.7573,-186.4835C1686.1486,-178.48 1741.9258,-169.0604 1788.8135,-161.142"/>
<polygon fill="#000000" stroke="#000000" points="1789.4001,-164.5926 1798.6776,-159.4762 1788.2344,-157.6903 1789.4001,-164.5926"/>
</g>
<!-- (1, &#39;C&#39;, &#39;y&#39;)&#45;&gt;(2, &#39;B&#39;, &#39;z&#39;) -->
<g id="edge42" class="edge">
<title>(1, &#39;C&#39;, &#39;y&#39;)&#45;&gt;(2, &#39;B&#39;, &#39;z&#39;)</title>
<path fill="none" stroke="#000000" d="M1690.9486,-204.1609C1701.4434,-204.1609 1712.0362,-204.1609 1722.5778,-204.1609"/>
<polygon fill="#000000" stroke="#000000" points="1722.6642,-207.661 1732.6642,-204.1609 1722.6642,-200.661 1722.6642,-207.661"/>
</g>
<!-- (1, &#39;C&#39;, &#39;z&#39;)&#45;&gt;(2, &#39;B&#39;, &#39;y&#39;) -->
<g id="edge43" class="edge">
<title>(1, &#39;C&#39;, &#39;z&#39;)&#45;&gt;(2, &#39;B&#39;, &#39;y&#39;)</title>
<path fill="none" stroke="#000000" d="M1690.9486,-144.1609C1703.2928,-144.1609 1715.7727,-144.1609 1728.1454,-144.1609"/>
<polygon fill="#000000" stroke="#000000" points="1728.508,-147.661 1738.5079,-144.1609 1728.5079,-140.661 1728.508,-147.661"/>
</g>
<!-- (1, &#39;C&#39;, &#39;z&#39;)&#45;&gt;(2, &#39;B&#39;, &#39;z&#39;) -->
<g id="edge44" class="edge">
<title>(1, &#39;C&#39;, &#39;z&#39;)&#45;&gt;(2, &#39;B&#39;, &#39;z&#39;)</title>
<path fill="none" stroke="#000000" d="M1626.5012,-159.7686C1671.8012,-167.4189 1726.7912,-176.7056 1774.7426,-184.8036"/>
<polygon fill="#000000" stroke="#000000" points="1774.4189,-188.2984 1784.8621,-186.5126 1775.5846,-181.3961 1774.4189,-188.2984"/>
</g>
<!-- (2, &#39;A&#39;, &#39;y&#39;)&#45;&gt;(&#45;1, &#39;SINK&#39;, None) -->
<g id="edge45" class="edge">
<title>(2, &#39;A&#39;, &#39;y&#39;)&#45;&gt;(&#45;1, &#39;SINK&#39;, None)</title>
<path fill="none" stroke="#000000" d="M1677.9899,-71.9837C1849.7323,-60.8529 2144.7652,-52.5341 2392.2396,-100.1609 2442.7007,-109.8722 2497.1535,-131.458 2535.7667,-148.8234"/>
<polygon fill="#000000" stroke="#000000" points="2534.6794,-152.1742 2545.2303,-153.1377 2537.583,-145.8049 2534.6794,-152.1742"/>
</g>
<!-- (2, &#39;A&#39;, &#39;z&#39;)&#45;&gt;(&#45;1, &#39;SINK&#39;, None) -->
<g id="edge46" class="edge">
<title>(2, &#39;A&#39;, &#39;z&#39;)&#45;&gt;(&#45;1, &#39;SINK&#39;, None)</title>
<path fill="none" stroke="#000000" d="M1651.0426,-275.8459C1817.5324,-289.4838 2131.5845,-304.0978 2392.2396,-252.1609 2444.4726,-241.7532 2500.6019,-217.9382 2539.2844,-199.3418"/>
<polygon fill="#000000" stroke="#000000" points="2541.2746,-202.2654 2548.7301,-194.7377 2538.2075,-195.9731 2541.2746,-202.2654"/>
</g>
<!-- (2, &#39;B&#39;, &#39;y&#39;)&#45;&gt;(&#45;1, &#39;SINK&#39;, None) -->
<g id="edge47" class="edge">
<title>(2, &#39;B&#39;, &#39;y&#39;)&#45;&gt;(&#45;1, &#39;SINK&#39;, None)</title>
<path fill="none" stroke="#000000" d="M1987.7166,-126.2826C2089.4816,-110.588 2252.7687,-93.2547 2392.2396,-114.1609 2438.0378,-121.0259 2487.9203,-136.456 2525.8537,-149.9489"/>
<polygon fill="#000000" stroke="#000000" points="2525.131,-153.409 2535.7254,-153.5122 2527.5077,-146.8248 2525.131,-153.409"/>
</g>
<!-- (2, &#39;C&#39;, &#39;y&#39;) -->
<g id="node19" class="node">
<title>(2, &#39;C&#39;, &#39;y&#39;)</title>
<polygon fill="none" stroke="#000000" points="2252.8487,-122.7764 2262.2675,-122.8938 2271.5889,-123.0695 2280.7748,-123.303 2289.788,-123.5937 2298.5925,-123.9407 2307.1534,-124.3431 2315.4374,-124.7999 2323.413,-125.3098 2331.0507,-125.8713 2338.3229,-126.4829 2345.2042,-127.143 2351.6719,-127.8498 2357.7054,-128.6012 2363.2868,-129.3953 2368.4008,-130.2299 2373.0347,-131.1026 2377.1787,-132.0112 2380.8253,-132.953 2383.9701,-133.9256 2386.6108,-134.9262 2388.7482,-135.9521 2390.385,-137.0006 2391.5267,-138.0686 2392.1807,-139.1534 2392.3566,-140.2519 2392.0661,-141.3611 2391.3224,-142.4779 2390.1405,-143.5994 2388.5367,-144.7224 2386.5286,-145.8439 2384.1348,-146.9608 2381.3747,-148.07 2378.2684,-149.1685 2374.8366,-150.2532 2371.0999,-151.3213 2367.0794,-152.3697 2362.7957,-153.3957 2358.2696,-154.3963 2353.521,-155.3688 2348.5697,-156.3107 2343.4346,-157.2192 2338.1337,-158.092 2332.6845,-158.9266 2327.1031,-159.7207 2321.4049,-160.4721 2315.6041,-161.1789 2309.7139,-161.8389 2303.7464,-162.4506 2297.7125,-163.0121 2291.6223,-163.5219 2285.4846,-163.9787 2279.3074,-164.3812 2273.098,-164.7282 2266.8626,-165.0189 2260.6069,-165.2524 2254.3362,-165.428 2248.0549,-165.5454 2241.7674,-165.6042 2235.478,-165.6042 2229.1905,-165.5454 2222.9093,-165.428 2216.6385,-165.2524 2210.3828,-165.0189 2204.1474,-164.7282 2197.938,-164.3812 2191.7609,-163.9787 2185.6231,-163.5219 2179.5329,-163.0121 2173.499,-162.4506 2167.5315,-161.8389 2161.6413,-161.1789 2155.8405,-160.4721 2150.1423,-159.7207 2144.5609,-158.9266 2139.1117,-158.092 2133.8108,-157.2192 2128.6757,-156.3107 2123.7244,-155.3688 2118.9758,-154.3963 2114.4497,-153.3957 2110.166,-152.3697 2106.1455,-151.3213 2102.4088,-150.2532 2098.977,-149.1685 2095.8707,-148.07 2093.1106,-146.9608 2090.7168,-145.8439 2088.7087,-144.7224 2087.1049,-143.5994 2085.923,-142.4779 2085.1793,-141.3611 2084.8888,-140.2519 2085.0647,-139.1534 2085.7187,-138.0686 2086.8604,-137.0006 2088.4972,-135.9521 2090.6346,-134.9262 2093.2753,-133.9256 2096.4201,-132.953 2100.0667,-132.0112 2104.2107,-131.1026 2108.8446,-130.2299 2113.9586,-129.3953 2119.54,-128.6012 2125.5735,-127.8498 2132.0412,-127.143 2138.9226,-126.4829 2146.1947,-125.8713 2153.8324,-125.3098 2161.808,-124.7999 2170.0921,-124.3431 2178.6529,-123.9407 2187.4574,-123.5937 2196.4706,-123.303 2205.6565,-123.0695 2214.9779,-122.8938 2224.3967,-122.7764 2233.8742,-122.7177 2243.3712,-122.7177 2252.8487,-122.7764"/>
<text text-anchor="middle" x="2238.6227" y="-147.1609" font-family="Courier,monospace" font-weight="bold" font-size="10.00" fill="#000000">(2, &#39;C&#39;, &#39;y&#39;)</text>
<text text-anchor="middle" x="2238.6227" y="-136.1609" font-family="Courier,monospace" font-weight="bold" font-size="10.00" fill="#000000">(&#39;y&#39;, 0.0910794379456354)</text>
</g>
<!-- (2, &#39;B&#39;, &#39;y&#39;)&#45;&gt;(2, &#39;C&#39;, &#39;y&#39;) -->
<g id="edge48" class="edge">
<title>(2, &#39;B&#39;, &#39;y&#39;)&#45;&gt;(2, &#39;C&#39;, &#39;y&#39;)</title>
<path fill="none" stroke="#000000" d="M2040.2693,-144.1609C2052.7159,-144.1609 2065.3263,-144.1609 2077.8413,-144.1609"/>
<polygon fill="#000000" stroke="#000000" points="2077.8526,-147.661 2087.8526,-144.1609 2077.8526,-140.661 2077.8526,-147.661"/>
</g>
<!-- (2, &#39;C&#39;, &#39;z&#39;) -->
<g id="node20" class="node">
<title>(2, &#39;C&#39;, &#39;z&#39;)</title>
<polygon fill="none" stroke="#000000" points="2252.8487,-182.7764 2262.2675,-182.8938 2271.5889,-183.0695 2280.7748,-183.303 2289.788,-183.5937 2298.5925,-183.9407 2307.1534,-184.3431 2315.4374,-184.7999 2323.413,-185.3098 2331.0507,-185.8713 2338.3229,-186.4829 2345.2042,-187.143 2351.6719,-187.8498 2357.7054,-188.6012 2363.2868,-189.3953 2368.4008,-190.2299 2373.0347,-191.1026 2377.1787,-192.0112 2380.8253,-192.953 2383.9701,-193.9256 2386.6108,-194.9262 2388.7482,-195.9521 2390.385,-197.0006 2391.5267,-198.0686 2392.1807,-199.1534 2392.3566,-200.2519 2392.0661,-201.3611 2391.3224,-202.4779 2390.1405,-203.5994 2388.5367,-204.7224 2386.5286,-205.8439 2384.1348,-206.9608 2381.3747,-208.07 2378.2684,-209.1685 2374.8366,-210.2532 2371.0999,-211.3213 2367.0794,-212.3697 2362.7957,-213.3957 2358.2696,-214.3963 2353.521,-215.3688 2348.5697,-216.3107 2343.4346,-217.2192 2338.1337,-218.092 2332.6845,-218.9266 2327.1031,-219.7207 2321.4049,-220.4721 2315.6041,-221.1789 2309.7139,-221.8389 2303.7464,-222.4506 2297.7125,-223.0121 2291.6223,-223.5219 2285.4846,-223.9787 2279.3074,-224.3812 2273.098,-224.7282 2266.8626,-225.0189 2260.6069,-225.2524 2254.3362,-225.428 2248.0549,-225.5454 2241.7674,-225.6042 2235.478,-225.6042 2229.1905,-225.5454 2222.9093,-225.428 2216.6385,-225.2524 2210.3828,-225.0189 2204.1474,-224.7282 2197.938,-224.3812 2191.7609,-223.9787 2185.6231,-223.5219 2179.5329,-223.0121 2173.499,-222.4506 2167.5315,-221.8389 2161.6413,-221.1789 2155.8405,-220.4721 2150.1423,-219.7207 2144.5609,-218.9266 2139.1117,-218.092 2133.8108,-217.2192 2128.6757,-216.3107 2123.7244,-215.3688 2118.9758,-214.3963 2114.4497,-213.3957 2110.166,-212.3697 2106.1455,-211.3213 2102.4088,-210.2532 2098.977,-209.1685 2095.8707,-208.07 2093.1106,-206.9608 2090.7168,-205.8439 2088.7087,-204.7224 2087.1049,-203.5994 2085.923,-202.4779 2085.1793,-201.3611 2084.8888,-200.2519 2085.0647,-199.1534 2085.7187,-198.0686 2086.8604,-197.0006 2088.4972,-195.9521 2090.6346,-194.9262 2093.2753,-193.9256 2096.4201,-192.953 2100.0667,-192.0112 2104.2107,-191.1026 2108.8446,-190.2299 2113.9586,-189.3953 2119.54,-188.6012 2125.5735,-187.8498 2132.0412,-187.143 2138.9226,-186.4829 2146.1947,-185.8713 2153.8324,-185.3098 2161.808,-184.7999 2170.0921,-184.3431 2178.6529,-183.9407 2187.4574,-183.5937 2196.4706,-183.303 2205.6565,-183.0695 2214.9779,-182.8938 2224.3967,-182.7764 2233.8742,-182.7177 2243.3712,-182.7177 2252.8487,-182.7764"/>
<text text-anchor="middle" x="2238.6227" y="-207.1609" font-family="Courier,monospace" font-weight="bold" font-size="10.00" fill="#000000">(2, &#39;C&#39;, &#39;z&#39;)</text>
<text text-anchor="middle" x="2238.6227" y="-196.1609" font-family="Courier,monospace" font-weight="bold" font-size="10.00" fill="#000000">(&#39;y&#39;, 0.0910794379456354)</text>
</g>
<!-- (2, &#39;B&#39;, &#39;y&#39;)&#45;&gt;(2, &#39;C&#39;, &#39;z&#39;) -->
<g id="edge49" class="edge">
<title>(2, &#39;B&#39;, &#39;y&#39;)&#45;&gt;(2, &#39;C&#39;, &#39;z&#39;)</title>
<path fill="none" stroke="#000000" d="M1979.3073,-159.6124C2024.2162,-167.3275 2078.9845,-176.7362 2126.5967,-184.9157"/>
<polygon fill="#000000" stroke="#000000" points="2126.1937,-188.3976 2136.6419,-186.6414 2127.3789,-181.4987 2126.1937,-188.3976"/>
</g>
<!-- (2, &#39;B&#39;, &#39;z&#39;)&#45;&gt;(&#45;1, &#39;SINK&#39;, None) -->
<g id="edge50" class="edge">
<title>(2, &#39;B&#39;, &#39;z&#39;)&#45;&gt;(&#45;1, &#39;SINK&#39;, None)</title>
<path fill="none" stroke="#000000" d="M1977.0687,-220.3684C2077.8061,-236.4491 2247.7953,-255.8126 2392.2396,-234.1609 2439.2044,-227.1211 2490.4642,-211.0742 2528.7289,-197.3459"/>
<polygon fill="#000000" stroke="#000000" points="2529.9658,-200.6204 2538.1667,-193.9125 2527.5727,-194.0422 2529.9658,-200.6204"/>
</g>
<!-- (2, &#39;B&#39;, &#39;z&#39;)&#45;&gt;(2, &#39;C&#39;, &#39;y&#39;) -->
<g id="edge51" class="edge">
<title>(2, &#39;B&#39;, &#39;z&#39;)&#45;&gt;(2, &#39;C&#39;, &#39;y&#39;)</title>
<path fill="none" stroke="#000000" d="M1992.736,-186.4025C2038.9295,-178.4668 2093.1525,-169.1517 2138.9086,-161.2911"/>
<polygon fill="#000000" stroke="#000000" points="2139.5744,-164.7281 2148.8374,-159.5854 2138.3891,-157.8291 2139.5744,-164.7281"/>
</g>
<!-- (2, &#39;B&#39;, &#39;z&#39;)&#45;&gt;(2, &#39;C&#39;, &#39;z&#39;) -->
<g id="edge52" class="edge">
<title>(2, &#39;B&#39;, &#39;z&#39;)&#45;&gt;(2, &#39;C&#39;, &#39;z&#39;)</title>
<path fill="none" stroke="#000000" d="M2046.1153,-204.1609C2056.6282,-204.1609 2067.2284,-204.1609 2077.7615,-204.1609"/>
<polygon fill="#000000" stroke="#000000" points="2077.8345,-207.661 2087.8345,-204.1609 2077.8345,-200.661 2077.8345,-207.661"/>
</g>
<!-- (2, &#39;C&#39;, &#39;y&#39;)&#45;&gt;(&#45;1, &#39;SINK&#39;, None) -->
<g id="edge53" class="edge">
<title>(2, &#39;C&#39;, &#39;y&#39;)&#45;&gt;(&#45;1, &#39;SINK&#39;, None)</title>
<path fill="none" stroke="#000000" d="M2358.3289,-154.4433C2382.8217,-156.5471 2408.9195,-158.7888 2434.407,-160.9781"/>
<polygon fill="#000000" stroke="#000000" points="2434.2566,-164.478 2444.5195,-161.8467 2434.8558,-157.5037 2434.2566,-164.478"/>
</g>
<!-- (2, &#39;C&#39;, &#39;z&#39;)&#45;&gt;(&#45;1, &#39;SINK&#39;, None) -->
<g id="edge54" class="edge">
<title>(2, &#39;C&#39;, &#39;z&#39;)&#45;&gt;(&#45;1, &#39;SINK&#39;, None)</title>
<path fill="none" stroke="#000000" d="M2377.9133,-192.1964C2403.3406,-190.0123 2429.8112,-187.7385 2455.0448,-185.5711"/>
<polygon fill="#000000" stroke="#000000" points="2455.3592,-189.057 2465.0229,-184.714 2454.76,-182.0827 2455.3592,-189.057"/>
</g>
</g>
</svg>
