<?xml version="1.0" encoding="UTF-8" standalone="no"?>
<!DOCTYPE svg PUBLIC "-//W3C//DTD SVG 1.1//EN"
 "http://www.w3.org/Graphics/SVG/1.1/DTD/svg11.dtd">
<!-- Generated by graphviz version 2.40.1 (0)
 -->
<!-- Title: G Pages: 1 -->
<svg width="345pt" height="172pt"
 viewBox="0.00 0.00 344.80 172.00" xmlns="http://www.w3.org/2000/svg" xmlns:xlink="http://www.w3.org/1999/xlink">
<g id="graph0" class="graph" transform="scale(1 1) rotate(0) translate(4 168)">
<title>G</title>
<polygon fill="#ffffff" stroke="transparent" points="-4,4 -4,-168 340.8,-168 340.8,4 -4,4"/>
<!-- N0 -->
<g id="node1" class="node">
<title>N0</title>
<ellipse fill="#000000" stroke="#000000" cx="1.8" cy="-85" rx="1.8" ry="1.8"/>
</g>
<!-- N1 -->
<g id="node2" class="node">
<title>N1</title>
<ellipse fill="#000000" stroke="#000000" cx="144.6" cy="-67" rx="1.8" ry="1.8"/>
</g>
<!-- N0&#45;&gt;N1 -->
<g id="edge1" class="edge">
<title>N0&#45;&gt;N1</title>
<path fill="none" stroke="#000000" d="M3.8375,-84.8343C15.5973,-83.864 75.9711,-78.6965 124.8,-71 127.3981,-70.5905 130.1734,-70.0776 132.7989,-69.557"/>
<polygon fill="#000000" stroke="#000000" points="133.7063,-72.9422 142.7534,-67.4284 132.2425,-66.097 133.7063,-72.9422"/>
<text text-anchor="middle" x="73.2" y="-82" font-family="Courier,monospace" font-weight="bold" font-size="10.00" fill="#000000">a</text>
</g>
<!-- N11 -->
<g id="node4" class="node">
<title>N11</title>
<ellipse fill="#000000" stroke="#000000" cx="49.4" cy="-118" rx="1.8" ry="1.8"/>
</g>
<!-- N0&#45;&gt;N11 -->
<g id="edge3" class="edge">
<title>N0&#45;&gt;N11</title>
<path fill="none" stroke="#000000" d="M3.3837,-86.098C8.9168,-89.9339 27.6883,-102.9478 39.4776,-111.121"/>
<polygon fill="#000000" stroke="#000000" points="37.5492,-114.0429 47.7615,-116.8641 41.5374,-108.2902 37.5492,-114.0429"/>
<text text-anchor="middle" x="25.6" y="-107" font-family="Courier,monospace" font-weight="bold" font-size="10.00" fill="#000000">e</text>
</g>
<!-- N13 -->
<g id="node6" class="node">
<title>N13</title>
<ellipse fill="#000000" stroke="#000000" cx="49.4" cy="-152" rx="1.8" ry="1.8"/>
</g>
<!-- N0&#45;&gt;N13 -->
<g id="edge5" class="edge">
<title>N0&#45;&gt;N13</title>
<path fill="none" stroke="#000000" d="M2.6146,-86.6187C5.1545,-91.6136 13.2602,-107.1614 21.6,-119 27.6021,-127.5202 35.2911,-136.5261 41.0607,-142.9733"/>
<polygon fill="#000000" stroke="#000000" points="38.6872,-145.5633 48.0291,-150.5612 43.8429,-140.8284 38.6872,-145.5633"/>
<text text-anchor="middle" x="25.6" y="-133" font-family="Courier,monospace" font-weight="bold" font-size="10.00" fill="#000000">k</text>
</g>
<!-- N5 -->
<g id="node12" class="node">
<title>N5</title>
<ellipse fill="#000000" stroke="#000000" cx="49.4" cy="-53" rx="1.8" ry="1.8"/>
</g>
<!-- N0&#45;&gt;N5 -->
<g id="edge10" class="edge">
<title>N0&#45;&gt;N5</title>
<path fill="none" stroke="#000000" d="M2.6072,-83.3522C4.902,-78.8482 11.9282,-66.2514 21.6,-60 26.2632,-56.9859 32.1417,-55.2694 37.2905,-54.292"/>
<polygon fill="#000000" stroke="#000000" points="37.9697,-57.7357 47.4804,-53.0669 37.1341,-50.7857 37.9697,-57.7357"/>
<text text-anchor="middle" x="25.6" y="-63" font-family="Courier,monospace" font-weight="bold" font-size="10.00" fill="#000000">b</text>
</g>
<!-- N8 -->
<g id="node15" class="node">
<title>N8</title>
<ellipse fill="#000000" stroke="#000000" cx="239.8" cy="-30" rx="1.8" ry="1.8"/>
</g>
<!-- N0&#45;&gt;N8 -->
<g id="edge13" class="edge">
<title>N0&#45;&gt;N8</title>
<path fill="none" stroke="#000000" d="M1.942,-82.8989C2.9494,-69.8096 10.1612,0 49.4,0 49.4,0 49.4,0 192.2,0 207.9818,0 222.8024,-11.9487 231.5893,-20.7645"/>
<polygon fill="#000000" stroke="#000000" points="229.2003,-23.3399 238.5157,-28.3871 234.381,-18.6323 229.2003,-23.3399"/>
<text text-anchor="middle" x="120.8" y="-3" font-family="Courier,monospace" font-weight="bold" font-size="10.00" fill="#000000">n</text>
</g>
<!-- N2 -->
<g id="node9" class="node">
<title>N2</title>
<ellipse fill="#000000" stroke="#000000" cx="192.2" cy="-63" rx="1.8" ry="1.8"/>
</g>
<!-- N1&#45;&gt;N2 -->
<g id="edge2" class="edge">
<title>N1&#45;&gt;N2</title>
<path fill="none" stroke="#000000" d="M146.6453,-66.8281C152.3341,-66.3501 168.6789,-64.9766 180.1549,-64.0122"/>
<polygon fill="#000000" stroke="#000000" points="180.5435,-67.492 190.2153,-63.1668 179.9573,-60.5166 180.5435,-67.492"/>
<text text-anchor="middle" x="168.4" y="-69" font-family="Courier,monospace" font-weight="bold" font-size="10.00" fill="#000000">n</text>
</g>
<!-- N4 -->
<g id="node11" class="node">
<title>N4</title>
<ellipse fill="#000000" stroke="#000000" cx="192.2" cy="-33" rx="1.8" ry="1.8"/>
</g>
<!-- N1&#45;&gt;N4 -->
<g id="edge9" class="edge">
<title>N1&#45;&gt;N4</title>
<path fill="none" stroke="#000000" d="M145.9761,-65.6809C149.1097,-62.7088 157.0736,-55.3322 164.4,-50 169.7945,-46.0738 176.1188,-42.1571 181.3713,-39.0744"/>
<polygon fill="#000000" stroke="#000000" points="183.3991,-41.9486 190.3799,-33.9787 179.9527,-35.8558 183.3991,-41.9486"/>
<text text-anchor="middle" x="168.4" y="-53" font-family="Courier,monospace" font-weight="bold" font-size="10.00" fill="#000000">¶</text>
</g>
<!-- N10 -->
<g id="node3" class="node">
<title>N10</title>
<ellipse fill="#000000" stroke="#000000" cx="335" cy="-62" rx="1.8" ry="1.8"/>
</g>
<!-- N12 -->
<g id="node5" class="node">
<title>N12</title>
<ellipse fill="#000000" stroke="#000000" cx="97" cy="-119" rx="1.8" ry="1.8"/>
</g>
<!-- N11&#45;&gt;N12 -->
<g id="edge4" class="edge">
<title>N11&#45;&gt;N12</title>
<path fill="none" stroke="#000000" d="M51.4453,-118.043C57.1341,-118.1625 73.4789,-118.5059 84.9549,-118.747"/>
<polygon fill="#000000" stroke="#000000" points="84.9439,-122.2474 95.0153,-118.9583 85.091,-115.2489 84.9439,-122.2474"/>
<text text-anchor="middle" x="73.2" y="-122" font-family="Courier,monospace" font-weight="bold" font-size="10.00" fill="#000000">¶</text>
</g>
<!-- N14 -->
<g id="node7" class="node">
<title>N14</title>
<ellipse fill="#000000" stroke="#000000" cx="97" cy="-153" rx="1.8" ry="1.8"/>
</g>
<!-- N13&#45;&gt;N14 -->
<g id="edge6" class="edge">
<title>N13&#45;&gt;N14</title>
<path fill="none" stroke="#000000" d="M51.4453,-152.043C57.1341,-152.1625 73.4789,-152.5059 84.9549,-152.747"/>
<polygon fill="#000000" stroke="#000000" points="84.9439,-156.2474 95.0153,-152.9583 85.091,-149.2489 84.9439,-156.2474"/>
<text text-anchor="middle" x="73.2" y="-156" font-family="Courier,monospace" font-weight="bold" font-size="10.00" fill="#000000">l</text>
</g>
<!-- N15 -->
<g id="node8" class="node">
<title>N15</title>
<ellipse fill="#000000" stroke="#000000" cx="144.6" cy="-153" rx="1.8" ry="1.8"/>
</g>
<!-- N14&#45;&gt;N15 -->
<g id="edge7" class="edge">
<title>N14&#45;&gt;N15</title>
<path fill="none" stroke="#000000" d="M99.0453,-153C104.7341,-153 121.0789,-153 132.5549,-153"/>
<polygon fill="#000000" stroke="#000000" points="132.6153,-156.5001 142.6153,-153 132.6153,-149.5001 132.6153,-156.5001"/>
<text text-anchor="middle" x="120.8" y="-156" font-family="Courier,monospace" font-weight="bold" font-size="10.00" fill="#000000">¶</text>
</g>
<!-- N3 -->
<g id="node10" class="node">
<title>N3</title>
<ellipse fill="#000000" stroke="#000000" cx="239.8" cy="-63" rx="1.8" ry="1.8"/>
</g>
<!-- N2&#45;&gt;N3 -->
<g id="edge8" class="edge">
<title>N2&#45;&gt;N3</title>
<path fill="none" stroke="#000000" d="M194.2453,-63C199.9341,-63 216.2789,-63 227.7549,-63"/>
<polygon fill="#000000" stroke="#000000" points="227.8153,-66.5001 237.8153,-63 227.8153,-59.5001 227.8153,-66.5001"/>
<text text-anchor="middle" x="216" y="-66" font-family="Courier,monospace" font-weight="bold" font-size="10.00" fill="#000000">¶</text>
</g>
<!-- N2&#45;&gt;N8 -->
<g id="edge18" class="edge">
<title>N2&#45;&gt;N8</title>
<path fill="none" stroke="#ff0000" stroke-dasharray="5,2" d="M193.7837,-61.902C199.3168,-58.0661 218.0883,-45.0522 229.8776,-36.879"/>
<polygon fill="#ff0000" stroke="#ff0000" points="231.9374,-39.7098 238.1615,-31.1359 227.9492,-33.9571 231.9374,-39.7098"/>
</g>
<!-- N6 -->
<g id="node13" class="node">
<title>N6</title>
<ellipse fill="#000000" stroke="#000000" cx="97" cy="-51" rx="1.8" ry="1.8"/>
</g>
<!-- N5&#45;&gt;N6 -->
<g id="edge11" class="edge">
<title>N5&#45;&gt;N6</title>
<path fill="none" stroke="#000000" d="M51.2558,-52.8973C54.7614,-52.7052 62.5978,-52.2855 69.2,-52 74.3266,-51.7783 79.9864,-51.5684 84.8538,-51.3987"/>
<polygon fill="#000000" stroke="#000000" points="85.0981,-54.8926 94.9765,-51.0627 84.8659,-47.8964 85.0981,-54.8926"/>
<text text-anchor="middle" x="73.2" y="-55" font-family="Courier,monospace" font-weight="bold" font-size="10.00" fill="#000000">a</text>
</g>
<!-- N6&#45;&gt;N1 -->
<g id="edge17" class="edge">
<title>N6&#45;&gt;N1</title>
<path fill="none" stroke="#ff0000" stroke-dasharray="5,2" d="M99.0453,-51.6875C104.7953,-53.6203 121.4316,-59.2123 132.9234,-63.0751"/>
<polygon fill="#ff0000" stroke="#ff0000" points="132.0213,-66.4642 142.6153,-66.3329 134.2516,-59.829 132.0213,-66.4642"/>
</g>
<!-- N7 -->
<g id="node14" class="node">
<title>N7</title>
<ellipse fill="#000000" stroke="#000000" cx="144.6" cy="-34" rx="1.8" ry="1.8"/>
</g>
<!-- N6&#45;&gt;N7 -->
<g id="edge12" class="edge">
<title>N6&#45;&gt;N7</title>
<path fill="none" stroke="#000000" d="M99.0453,-50.2695C104.7953,-48.216 121.4316,-42.2744 132.9234,-38.1702"/>
<polygon fill="#000000" stroke="#000000" points="134.3751,-41.3684 142.6153,-34.7088 132.0207,-34.7762 134.3751,-41.3684"/>
<text text-anchor="middle" x="120.8" y="-47" font-family="Courier,monospace" font-weight="bold" font-size="10.00" fill="#000000">¶</text>
</g>
<!-- N9 -->
<g id="node16" class="node">
<title>N9</title>
<ellipse fill="#000000" stroke="#000000" cx="287.4" cy="-62" rx="1.8" ry="1.8"/>
</g>
<!-- N8&#45;&gt;N9 -->
<g id="edge14" class="edge">
<title>N8&#45;&gt;N9</title>
<path fill="none" stroke="#000000" d="M241.3837,-31.0647C246.8604,-34.7465 265.3066,-47.1473 277.1146,-55.0854"/>
<polygon fill="#000000" stroke="#000000" points="275.5098,-58.2239 285.7615,-60.8985 279.4152,-52.4146 275.5098,-58.2239"/>
<text text-anchor="middle" x="263.6" y="-51" font-family="Courier,monospace" font-weight="bold" font-size="10.00" fill="#000000">a</text>
</g>
<!-- N9&#45;&gt;N1 -->
<g id="edge16" class="edge">
<title>N9&#45;&gt;N1</title>
<path fill="none" stroke="#ff0000" stroke-dasharray="5,2" d="M285.6641,-62.504C279.6207,-64.2479 258.928,-70.1309 241.6,-74 232.0714,-76.1276 229.7124,-77.0053 220,-78 198.9499,-80.1558 193.5591,-78.7778 172.4,-79 168.8446,-79.0373 167.8244,-79.9567 164.4,-79 161.032,-78.059 157.6664,-76.3717 154.6905,-74.554"/>
<polygon fill="#ff0000" stroke="#ff0000" points="156.4541,-71.51 146.3001,-68.4856 152.3518,-77.182 156.4541,-71.51"/>
</g>
<!-- N9&#45;&gt;N10 -->
<g id="edge15" class="edge">
<title>N9&#45;&gt;N10</title>
<path fill="none" stroke="#000000" d="M289.4453,-62C295.1341,-62 311.4789,-62 322.9549,-62"/>
<polygon fill="#000000" stroke="#000000" points="323.0153,-65.5001 333.0153,-62 323.0153,-58.5001 323.0153,-65.5001"/>
<text text-anchor="middle" x="311.2" y="-65" font-family="Courier,monospace" font-weight="bold" font-size="10.00" fill="#000000">¶</text>
</g>
</g>
</svg>
