<?xml version="1.0" encoding="UTF-8" standalone="no"?>
<!DOCTYPE svg PUBLIC "-//W3C//DTD SVG 1.1//EN"
 "http://www.w3.org/Graphics/SVG/1.1/DTD/svg11.dtd">
<!-- Generated by graphviz version 2.40.1 (0)
 -->
<!-- Title: G Pages: 1 -->
<svg width="345pt" height="80pt"
 viewBox="0.00 0.00 344.80 79.60" xmlns="http://www.w3.org/2000/svg" xmlns:xlink="http://www.w3.org/1999/xlink">
<g id="graph0" class="graph" transform="scale(1 1) rotate(0) translate(4 75.6)">
<title>G</title>
<polygon fill="#ffffff" stroke="transparent" points="-4,4 -4,-75.6 340.8,-75.6 340.8,4 -4,4"/>
<!-- N0 -->
<g id="node1" class="node">
<title>N0</title>
<ellipse fill="#000000" stroke="#000000" cx="1.8" cy="-18.8" rx="1.8" ry="1.8"/>
</g>
<!-- N1 -->
<g id="node2" class="node">
<title>N1</title>
<ellipse fill="#000000" stroke="#000000" cx="49.4" cy="-18.8" rx="1.8" ry="1.8"/>
</g>
<!-- N0&#45;&gt;N1 -->
<g id="edge1" class="edge">
<title>N0&#45;&gt;N1</title>
<path fill="none" stroke="#000000" d="M3.8453,-18.8C9.5341,-18.8 25.8789,-18.8 37.3549,-18.8"/>
<polygon fill="#000000" stroke="#000000" points="37.4153,-22.3001 47.4153,-18.8 37.4153,-15.3001 37.4153,-22.3001"/>
<text text-anchor="middle" x="25.6" y="-21.8" font-family="Courier,monospace" font-weight="bold" font-size="10.00" fill="#000000">a</text>
</g>
<!-- N2 -->
<g id="node6" class="node">
<title>N2</title>
<ellipse fill="#000000" stroke="#000000" cx="97" cy="-18.8" rx="1.8" ry="1.8"/>
</g>
<!-- N1&#45;&gt;N2 -->
<g id="edge2" class="edge">
<title>N1&#45;&gt;N2</title>
<path fill="none" stroke="#000000" d="M51.4453,-18.8C57.1341,-18.8 73.4789,-18.8 84.9549,-18.8"/>
<polygon fill="#000000" stroke="#000000" points="85.0153,-22.3001 95.0153,-18.8 85.0153,-15.3001 85.0153,-22.3001"/>
<text text-anchor="middle" x="73.2" y="-21.8" font-family="Courier,monospace" font-weight="bold" font-size="10.00" fill="#000000">p</text>
</g>
<!-- N10 -->
<g id="node3" class="node">
<title>N10</title>
<ellipse fill="#000000" stroke="#000000" cx="239.8" cy="-1.8" rx="1.8" ry="1.8"/>
</g>
<!-- N11 -->
<g id="node4" class="node">
<title>N11</title>
<ellipse fill="#000000" stroke="#000000" cx="287.4" cy="-1.8" rx="1.8" ry="1.8"/>
</g>
<!-- N10&#45;&gt;N11 -->
<g id="edge3" class="edge">
<title>N10&#45;&gt;N11</title>
<path fill="none" stroke="#000000" d="M241.8453,-1.8C247.5341,-1.8 263.8789,-1.8 275.3549,-1.8"/>
<polygon fill="#000000" stroke="#000000" points="275.4153,-5.3001 285.4153,-1.8 275.4153,1.6999 275.4153,-5.3001"/>
<text text-anchor="middle" x="263.6" y="-4.8" font-family="Courier,monospace" font-weight="bold" font-size="10.00" fill="#000000">l</text>
</g>
<!-- N12 -->
<g id="node5" class="node">
<title>N12</title>
<ellipse fill="#000000" stroke="#000000" cx="335" cy="-1.8" rx="1.8" ry="1.8"/>
</g>
<!-- N11&#45;&gt;N12 -->
<g id="edge4" class="edge">
<title>N11&#45;&gt;N12</title>
<path fill="none" stroke="#000000" d="M289.4453,-1.8C295.1341,-1.8 311.4789,-1.8 322.9549,-1.8"/>
<polygon fill="#000000" stroke="#000000" points="323.0153,-5.3001 333.0153,-1.8 323.0153,1.6999 323.0153,-5.3001"/>
<text text-anchor="middle" x="311.2" y="-4.8" font-family="Courier,monospace" font-weight="bold" font-size="10.00" fill="#000000">¶</text>
</g>
<!-- N3 -->
<g id="node7" class="node">
<title>N3</title>
<ellipse fill="#000000" stroke="#000000" cx="144.6" cy="-18.8" rx="1.8" ry="1.8"/>
</g>
<!-- N2&#45;&gt;N3 -->
<g id="edge5" class="edge">
<title>N2&#45;&gt;N3</title>
<path fill="none" stroke="#000000" d="M99.0453,-18.8C104.7341,-18.8 121.0789,-18.8 132.5549,-18.8"/>
<polygon fill="#000000" stroke="#000000" points="132.6153,-22.3001 142.6153,-18.8 132.6153,-15.3001 132.6153,-22.3001"/>
<text text-anchor="middle" x="120.8" y="-21.8" font-family="Courier,monospace" font-weight="bold" font-size="10.00" fill="#000000">p</text>
</g>
<!-- N4 -->
<g id="node8" class="node">
<title>N4</title>
<ellipse fill="#000000" stroke="#000000" cx="192.2" cy="-35.8" rx="1.8" ry="1.8"/>
</g>
<!-- N3&#45;&gt;N4 -->
<g id="edge6" class="edge">
<title>N3&#45;&gt;N4</title>
<path fill="none" stroke="#000000" d="M146.6453,-19.5305C152.3953,-21.584 169.0316,-27.5256 180.5234,-31.6298"/>
<polygon fill="#000000" stroke="#000000" points="179.6207,-35.0238 190.2153,-35.0912 181.9751,-28.4316 179.6207,-35.0238"/>
<text text-anchor="middle" x="168.4" y="-30.8" font-family="Courier,monospace" font-weight="bold" font-size="10.00" fill="#000000">l</text>
</g>
<!-- N9 -->
<g id="node13" class="node">
<title>N9</title>
<ellipse fill="#000000" stroke="#000000" cx="192.2" cy="-1.8" rx="1.8" ry="1.8"/>
</g>
<!-- N3&#45;&gt;N9 -->
<g id="edge11" class="edge">
<title>N3&#45;&gt;N9</title>
<path fill="none" stroke="#000000" d="M146.4393,-18.0058C149.9173,-16.5155 157.7096,-13.2311 164.4,-10.8 169.7193,-8.8671 175.682,-6.9097 180.7171,-5.3162"/>
<polygon fill="#000000" stroke="#000000" points="181.9017,-8.6136 190.4289,-2.3257 179.8417,-1.9236 181.9017,-8.6136"/>
<text text-anchor="middle" x="168.4" y="-13.8" font-family="Courier,monospace" font-weight="bold" font-size="10.00" fill="#000000">e</text>
</g>
<!-- N5 -->
<g id="node9" class="node">
<title>N5</title>
<ellipse fill="#000000" stroke="#000000" cx="239.8" cy="-35.8" rx="1.8" ry="1.8"/>
</g>
<!-- N4&#45;&gt;N5 -->
<g id="edge7" class="edge">
<title>N4&#45;&gt;N5</title>
<path fill="none" stroke="#000000" d="M194.2453,-35.8C199.9341,-35.8 216.2789,-35.8 227.7549,-35.8"/>
<polygon fill="#000000" stroke="#000000" points="227.8153,-39.3001 237.8153,-35.8 227.8153,-32.3001 227.8153,-39.3001"/>
<text text-anchor="middle" x="216" y="-38.8" font-family="Courier,monospace" font-weight="bold" font-size="10.00" fill="#000000">e</text>
</g>
<!-- N6 -->
<g id="node10" class="node">
<title>N6</title>
<ellipse fill="#000000" stroke="#000000" cx="287.4" cy="-69.8" rx="1.8" ry="1.8"/>
</g>
<!-- N5&#45;&gt;N6 -->
<g id="edge8" class="edge">
<title>N5&#45;&gt;N6</title>
<path fill="none" stroke="#000000" d="M241.3837,-36.9312C246.9168,-40.8835 265.6883,-54.2917 277.4776,-62.7126"/>
<polygon fill="#000000" stroke="#000000" points="275.5898,-65.6653 285.7615,-68.6296 279.6585,-59.9691 275.5898,-65.6653"/>
<text text-anchor="middle" x="263.6" y="-57.8" font-family="Courier,monospace" font-weight="bold" font-size="10.00" fill="#000000">¶</text>
</g>
<!-- N7 -->
<g id="node11" class="node">
<title>N7</title>
<ellipse fill="#000000" stroke="#000000" cx="287.4" cy="-35.8" rx="1.8" ry="1.8"/>
</g>
<!-- N5&#45;&gt;N7 -->
<g id="edge9" class="edge">
<title>N5&#45;&gt;N7</title>
<path fill="none" stroke="#000000" d="M241.8453,-35.8C247.5341,-35.8 263.8789,-35.8 275.3549,-35.8"/>
<polygon fill="#000000" stroke="#000000" points="275.4153,-39.3001 285.4153,-35.8 275.4153,-32.3001 275.4153,-39.3001"/>
<text text-anchor="middle" x="263.6" y="-38.8" font-family="Courier,monospace" font-weight="bold" font-size="10.00" fill="#000000">t</text>
</g>
<!-- N8 -->
<g id="node12" class="node">
<title>N8</title>
<ellipse fill="#000000" stroke="#000000" cx="335" cy="-35.8" rx="1.8" ry="1.8"/>
</g>
<!-- N7&#45;&gt;N8 -->
<g id="edge10" class="edge">
<title>N7&#45;&gt;N8</title>
<path fill="none" stroke="#000000" d="M289.4453,-35.8C295.1341,-35.8 311.4789,-35.8 322.9549,-35.8"/>
<polygon fill="#000000" stroke="#000000" points="323.0153,-39.3001 333.0153,-35.8 323.0153,-32.3001 323.0153,-39.3001"/>
<text text-anchor="middle" x="311.2" y="-38.8" font-family="Courier,monospace" font-weight="bold" font-size="10.00" fill="#000000">¶</text>
</g>
<!-- N9&#45;&gt;N10 -->
<g id="edge12" class="edge">
<title>N9&#45;&gt;N10</title>
<path fill="none" stroke="#000000" d="M194.2453,-1.8C199.9341,-1.8 216.2789,-1.8 227.7549,-1.8"/>
<polygon fill="#000000" stroke="#000000" points="227.8153,-5.3001 237.8153,-1.8 227.8153,1.6999 227.8153,-5.3001"/>
<text text-anchor="middle" x="216" y="-4.8" font-family="Courier,monospace" font-weight="bold" font-size="10.00" fill="#000000">a</text>
</g>
</g>
</svg>
