<?xml version="1.0" encoding="UTF-8" standalone="no"?>
<!DOCTYPE svg PUBLIC "-//W3C//DTD SVG 1.1//EN"
 "http://www.w3.org/Graphics/SVG/1.1/DTD/svg11.dtd">
<!-- Generated by graphviz version 2.40.1 (0)
 -->
<!-- Title: G Pages: 1 -->
<svg width="154pt" height="191pt"
 viewBox="0.00 0.00 154.40 190.80" xmlns="http://www.w3.org/2000/svg" xmlns:xlink="http://www.w3.org/1999/xlink">
<g id="graph0" class="graph" transform="scale(1 1) rotate(0) translate(4 186.8)">
<title>G</title>
<polygon fill="#ffffff" stroke="transparent" points="-4,4 -4,-186.8 150.4,-186.8 150.4,4 -4,4"/>
<!-- N0 -->
<g id="node1" class="node">
<title>N0</title>
<ellipse fill="#000000" stroke="#000000" cx="1.8" cy="-69.8" rx="1.8" ry="1.8"/>
</g>
<!-- N1 -->
<g id="node2" class="node">
<title>N1</title>
<ellipse fill="#000000" stroke="#000000" cx="49.4" cy="-162.8" rx="1.8" ry="1.8"/>
</g>
<!-- N0&#45;&gt;N1 -->
<g id="edge1" class="edge">
<title>N0&#45;&gt;N1</title>
<path fill="none" stroke="#000000" d="M2.6262,-71.4142C7.501,-80.9386 32.6781,-130.1291 43.942,-152.1363"/>
<polygon fill="#000000" stroke="#000000" points="40.8792,-153.8343 48.5511,-161.1414 47.1105,-150.6449 40.8792,-153.8343"/>
<text text-anchor="middle" x="25.6" y="-124.8" font-family="Courier,monospace" font-weight="bold" font-size="10.00" fill="#000000">b</text>
</g>
<!-- N10 -->
<g id="node3" class="node">
<title>N10</title>
<ellipse fill="#000000" stroke="#000000" cx="49.4" cy="-103.8" rx="1.8" ry="1.8"/>
</g>
<!-- N0&#45;&gt;N10 -->
<g id="edge15" class="edge">
<title>N0&#45;&gt;N10</title>
<path fill="none" stroke="#000000" d="M3.3837,-70.9312C8.9168,-74.8835 27.6883,-88.2917 39.4776,-96.7126"/>
<polygon fill="#000000" stroke="#000000" points="37.5898,-99.6653 47.7615,-102.6296 41.6585,-93.9691 37.5898,-99.6653"/>
<text text-anchor="middle" x="25.6" y="-91.8" font-family="Courier,monospace" font-weight="bold" font-size="10.00" fill="#000000">a</text>
</g>
<!-- N14 -->
<g id="node7" class="node">
<title>N14</title>
<ellipse fill="#000000" stroke="#000000" cx="49.4" cy="-69.8" rx="1.8" ry="1.8"/>
</g>
<!-- N0&#45;&gt;N14 -->
<g id="edge6" class="edge">
<title>N0&#45;&gt;N14</title>
<path fill="none" stroke="#000000" d="M3.8453,-69.8C9.5341,-69.8 25.8789,-69.8 37.3549,-69.8"/>
<polygon fill="#000000" stroke="#000000" points="37.4153,-73.3001 47.4153,-69.8 37.4153,-66.3001 37.4153,-73.3001"/>
<text text-anchor="middle" x="25.6" y="-72.8" font-family="Courier,monospace" font-weight="bold" font-size="10.00" fill="#000000">e</text>
</g>
<!-- N4 -->
<g id="node11" class="node">
<title>N4</title>
<ellipse fill="#000000" stroke="#000000" cx="49.4" cy="-35.8" rx="1.8" ry="1.8"/>
</g>
<!-- N0&#45;&gt;N4 -->
<g id="edge9" class="edge">
<title>N0&#45;&gt;N4</title>
<path fill="none" stroke="#000000" d="M3.223,-68.6841C6.4525,-66.1599 14.6,-59.8391 21.6,-54.8 27.4594,-50.582 34.1353,-46.0118 39.4763,-42.4109"/>
<polygon fill="#000000" stroke="#000000" points="41.5014,-45.2673 47.8753,-36.8042 37.6149,-39.4453 41.5014,-45.2673"/>
<text text-anchor="middle" x="25.6" y="-57.8" font-family="Courier,monospace" font-weight="bold" font-size="10.00" fill="#000000">k</text>
</g>
<!-- N7 -->
<g id="node14" class="node">
<title>N7</title>
<ellipse fill="#000000" stroke="#000000" cx="49.4" cy="-1.8" rx="1.8" ry="1.8"/>
</g>
<!-- N0&#45;&gt;N7 -->
<g id="edge12" class="edge">
<title>N0&#45;&gt;N7</title>
<path fill="none" stroke="#000000" d="M2.587,-68.0743C5.0475,-62.7519 12.9488,-46.2027 21.6,-33.8 27.3469,-25.561 34.869,-17.0103 40.6393,-10.8227"/>
<polygon fill="#000000" stroke="#000000" points="43.3435,-13.0603 47.7581,-3.429 38.3009,-8.2052 43.3435,-13.0603"/>
<text text-anchor="middle" x="25.6" y="-36.8" font-family="Courier,monospace" font-weight="bold" font-size="10.00" fill="#000000">n</text>
</g>
<!-- N2 -->
<g id="node9" class="node">
<title>N2</title>
<ellipse fill="#000000" stroke="#000000" cx="97" cy="-171.8" rx="1.8" ry="1.8"/>
</g>
<!-- N1&#45;&gt;N2 -->
<g id="edge2" class="edge">
<title>N1&#45;&gt;N2</title>
<path fill="none" stroke="#000000" d="M51.4453,-163.1867C57.1341,-164.2623 73.4789,-167.3527 84.9549,-169.5226"/>
<polygon fill="#000000" stroke="#000000" points="84.5391,-173.0059 95.0153,-171.4247 85.8397,-166.1278 84.5391,-173.0059"/>
<text text-anchor="middle" x="73.2" y="-170.8" font-family="Courier,monospace" font-weight="bold" font-size="10.00" fill="#000000">a</text>
</g>
<!-- N11 -->
<g id="node4" class="node">
<title>N11</title>
<ellipse fill="#000000" stroke="#000000" cx="97" cy="-137.8" rx="1.8" ry="1.8"/>
</g>
<!-- N10&#45;&gt;N11 -->
<g id="edge3" class="edge">
<title>N10&#45;&gt;N11</title>
<path fill="none" stroke="#000000" d="M50.9837,-104.9312C56.5168,-108.8835 75.2883,-122.2917 87.0776,-130.7126"/>
<polygon fill="#000000" stroke="#000000" points="85.1898,-133.6653 95.3615,-136.6296 89.2585,-127.9691 85.1898,-133.6653"/>
<text text-anchor="middle" x="73.2" y="-125.8" font-family="Courier,monospace" font-weight="bold" font-size="10.00" fill="#000000">n</text>
</g>
<!-- N13 -->
<g id="node6" class="node">
<title>N13</title>
<ellipse fill="#000000" stroke="#000000" cx="97" cy="-103.8" rx="1.8" ry="1.8"/>
</g>
<!-- N10&#45;&gt;N13 -->
<g id="edge5" class="edge">
<title>N10&#45;&gt;N13</title>
<path fill="none" stroke="#000000" d="M51.4453,-103.8C57.1341,-103.8 73.4789,-103.8 84.9549,-103.8"/>
<polygon fill="#000000" stroke="#000000" points="85.0153,-107.3001 95.0153,-103.8 85.0153,-100.3001 85.0153,-107.3001"/>
<text text-anchor="middle" x="73.2" y="-106.8" font-family="Courier,monospace" font-weight="bold" font-size="10.00" fill="#000000">¶</text>
</g>
<!-- N12 -->
<g id="node5" class="node">
<title>N12</title>
<ellipse fill="#000000" stroke="#000000" cx="144.6" cy="-137.8" rx="1.8" ry="1.8"/>
</g>
<!-- N11&#45;&gt;N12 -->
<g id="edge4" class="edge">
<title>N11&#45;&gt;N12</title>
<path fill="none" stroke="#000000" d="M99.0453,-137.8C104.7341,-137.8 121.0789,-137.8 132.5549,-137.8"/>
<polygon fill="#000000" stroke="#000000" points="132.6153,-141.3001 142.6153,-137.8 132.6153,-134.3001 132.6153,-141.3001"/>
<text text-anchor="middle" x="120.8" y="-140.8" font-family="Courier,monospace" font-weight="bold" font-size="10.00" fill="#000000">¶</text>
</g>
<!-- N15 -->
<g id="node8" class="node">
<title>N15</title>
<ellipse fill="#000000" stroke="#000000" cx="97" cy="-69.8" rx="1.8" ry="1.8"/>
</g>
<!-- N14&#45;&gt;N15 -->
<g id="edge7" class="edge">
<title>N14&#45;&gt;N15</title>
<path fill="none" stroke="#000000" d="M51.4453,-69.8C57.1341,-69.8 73.4789,-69.8 84.9549,-69.8"/>
<polygon fill="#000000" stroke="#000000" points="85.0153,-73.3001 95.0153,-69.8 85.0153,-66.3001 85.0153,-73.3001"/>
<text text-anchor="middle" x="73.2" y="-72.8" font-family="Courier,monospace" font-weight="bold" font-size="10.00" fill="#000000">¶</text>
</g>
<!-- N3 -->
<g id="node10" class="node">
<title>N3</title>
<ellipse fill="#000000" stroke="#000000" cx="144.6" cy="-171.8" rx="1.8" ry="1.8"/>
</g>
<!-- N2&#45;&gt;N3 -->
<g id="edge8" class="edge">
<title>N2&#45;&gt;N3</title>
<path fill="none" stroke="#000000" d="M99.0453,-171.8C104.7341,-171.8 121.0789,-171.8 132.5549,-171.8"/>
<polygon fill="#000000" stroke="#000000" points="132.6153,-175.3001 142.6153,-171.8 132.6153,-168.3001 132.6153,-175.3001"/>
<text text-anchor="middle" x="120.8" y="-174.8" font-family="Courier,monospace" font-weight="bold" font-size="10.00" fill="#000000">¶</text>
</g>
<!-- N5 -->
<g id="node12" class="node">
<title>N5</title>
<ellipse fill="#000000" stroke="#000000" cx="97" cy="-35.8" rx="1.8" ry="1.8"/>
</g>
<!-- N4&#45;&gt;N5 -->
<g id="edge10" class="edge">
<title>N4&#45;&gt;N5</title>
<path fill="none" stroke="#000000" d="M51.4453,-35.8C57.1341,-35.8 73.4789,-35.8 84.9549,-35.8"/>
<polygon fill="#000000" stroke="#000000" points="85.0153,-39.3001 95.0153,-35.8 85.0153,-32.3001 85.0153,-39.3001"/>
<text text-anchor="middle" x="73.2" y="-38.8" font-family="Courier,monospace" font-weight="bold" font-size="10.00" fill="#000000">l</text>
</g>
<!-- N6 -->
<g id="node13" class="node">
<title>N6</title>
<ellipse fill="#000000" stroke="#000000" cx="144.6" cy="-35.8" rx="1.8" ry="1.8"/>
</g>
<!-- N5&#45;&gt;N6 -->
<g id="edge11" class="edge">
<title>N5&#45;&gt;N6</title>
<path fill="none" stroke="#000000" d="M99.0453,-35.8C104.7341,-35.8 121.0789,-35.8 132.5549,-35.8"/>
<polygon fill="#000000" stroke="#000000" points="132.6153,-39.3001 142.6153,-35.8 132.6153,-32.3001 132.6153,-39.3001"/>
<text text-anchor="middle" x="120.8" y="-38.8" font-family="Courier,monospace" font-weight="bold" font-size="10.00" fill="#000000">¶</text>
</g>
<!-- N8 -->
<g id="node15" class="node">
<title>N8</title>
<ellipse fill="#000000" stroke="#000000" cx="97" cy="-1.8" rx="1.8" ry="1.8"/>
</g>
<!-- N7&#45;&gt;N8 -->
<g id="edge13" class="edge">
<title>N7&#45;&gt;N8</title>
<path fill="none" stroke="#000000" d="M51.4453,-1.8C57.1341,-1.8 73.4789,-1.8 84.9549,-1.8"/>
<polygon fill="#000000" stroke="#000000" points="85.0153,-5.3001 95.0153,-1.8 85.0153,1.6999 85.0153,-5.3001"/>
<text text-anchor="middle" x="73.2" y="-4.8" font-family="Courier,monospace" font-weight="bold" font-size="10.00" fill="#000000">a</text>
</g>
<!-- N9 -->
<g id="node16" class="node">
<title>N9</title>
<ellipse fill="#000000" stroke="#000000" cx="144.6" cy="-1.8" rx="1.8" ry="1.8"/>
</g>
<!-- N8&#45;&gt;N9 -->
<g id="edge14" class="edge">
<title>N8&#45;&gt;N9</title>
<path fill="none" stroke="#000000" d="M99.0453,-1.8C104.7341,-1.8 121.0789,-1.8 132.5549,-1.8"/>
<polygon fill="#000000" stroke="#000000" points="132.6153,-5.3001 142.6153,-1.8 132.6153,1.6999 132.6153,-5.3001"/>
<text text-anchor="middle" x="120.8" y="-4.8" font-family="Courier,monospace" font-weight="bold" font-size="10.00" fill="#000000">¶</text>
</g>
</g>
</svg>
