<?xml version="1.0" encoding="UTF-8" standalone="no"?>
<!DOCTYPE svg PUBLIC "-//W3C//DTD SVG 1.1//EN"
 "http://www.w3.org/Graphics/SVG/1.1/DTD/svg11.dtd">
<!-- Generated by graphviz version 2.40.1 (0)
 -->
<!-- Title: G Pages: 1 -->
<svg width="4745pt" height="241pt"
 viewBox="0.00 0.00 4744.98 241.00" xmlns="http://www.w3.org/2000/svg" xmlns:xlink="http://www.w3.org/1999/xlink">
<g id="graph0" class="graph" transform="scale(1 1) rotate(0) translate(4 237)">
<title>G</title>
<polygon fill="#ffffff" stroke="transparent" points="-4,4 -4,-237 4740.9831,-237 4740.9831,4 -4,4"/>
<!-- (&#45;1, &#39;SINK&#39;) -->
<g id="node1" class="node">
<title>(&#45;1, &#39;SINK&#39;)</title>
<polygon fill="none" stroke="#000000" points="4676.1202,-127.0493 4680.2345,-127.1479 4684.3063,-127.2953 4688.3189,-127.4913 4692.2561,-127.7353 4696.1021,-128.0266 4699.8417,-128.3645 4703.4603,-128.7479 4706.9442,-129.1759 4710.2805,-129.6472 4713.4572,-130.1606 4716.4631,-130.7147 4719.2883,-131.308 4721.9239,-131.9388 4724.362,-132.6054 4726.5959,-133.3059 4728.6201,-134.0385 4730.4302,-134.8012 4732.0232,-135.5918 4733.3969,-136.4082 4734.5504,-137.2481 4735.484,-138.1093 4736.1991,-138.9894 4736.6978,-139.886 4736.9834,-140.7965 4737.0603,-141.7186 4736.9334,-142.6497 4736.6085,-143.5873 4736.0922,-144.5287 4735.3917,-145.4713 4734.5145,-146.4127 4733.4688,-147.3503 4732.2631,-148.2814 4730.9063,-149.2035 4729.4072,-150.114 4727.7749,-151.0106 4726.0186,-151.8907 4724.1475,-152.7519 4722.1703,-153.5918 4720.0961,-154.4082 4717.9332,-155.1988 4715.6901,-155.9615 4713.3746,-156.6941 4710.9942,-157.3946 4708.5561,-158.0612 4706.067,-158.692 4703.5331,-159.2853 4700.9602,-159.8394 4698.3534,-160.3528 4695.7177,-160.8241 4693.0573,-161.2521 4690.3763,-161.6355 4687.6779,-161.9734 4684.9655,-162.2647 4682.2418,-162.5087 4679.5092,-162.7047 4676.77,-162.8521 4674.0262,-162.9507 4671.2797,-163 4668.5323,-163 4665.7858,-162.9507 4663.042,-162.8521 4660.3028,-162.7047 4657.5702,-162.5087 4654.8464,-162.2647 4652.134,-161.9734 4649.4357,-161.6355 4646.7546,-161.2521 4644.0943,-160.8241 4641.4585,-160.3528 4638.8518,-159.8394 4636.2788,-159.2853 4633.7449,-158.692 4631.2558,-158.0612 4628.8178,-157.3946 4626.4374,-156.6941 4624.1219,-155.9615 4621.8787,-155.1988 4619.7159,-154.4082 4617.6416,-153.5918 4615.6645,-152.7519 4613.7933,-151.8907 4612.0371,-151.0106 4610.4048,-150.114 4608.9057,-149.2035 4607.5488,-148.2814 4606.3432,-147.3503 4605.2975,-146.4127 4604.4203,-145.4713 4603.7197,-144.5287 4603.2034,-143.5873 4602.8786,-142.6497 4602.7517,-141.7186 4602.8285,-140.7965 4603.1142,-139.886 4603.6129,-138.9894 4604.3279,-138.1093 4605.2616,-137.2481 4606.4151,-136.4082 4607.7888,-135.5918 4609.3817,-134.8012 4611.1919,-134.0385 4613.2161,-133.3059 4615.45,-132.6054 4617.8881,-131.9388 4620.5236,-131.308 4623.3489,-130.7147 4626.3548,-130.1606 4629.5314,-129.6472 4632.8677,-129.1759 4636.3517,-128.7479 4639.9703,-128.3645 4643.7099,-128.0266 4647.5559,-127.7353 4651.493,-127.4913 4655.5056,-127.2953 4659.5774,-127.1479 4663.6918,-127.0493 4667.8317,-127 4671.9802,-127 4676.1202,-127.0493"/>
<text text-anchor="middle" x="4669.906" y="-142.5" font-family="Courier,monospace" font-weight="bold" font-size="10.00" fill="#000000">(&#45;1, &#39;SINK&#39;)</text>
</g>
<!-- (&#45;1, &#39;SOURCE&#39;) -->
<g id="node2" class="node">
<title>(&#45;1, &#39;SOURCE&#39;)</title>
<polygon fill="none" stroke="#000000" points="83.5559,-94.0493 88.2404,-94.1479 92.8765,-94.2953 97.4452,-94.4913 101.928,-94.7353 106.3069,-95.0266 110.5648,-95.3645 114.6849,-95.7479 118.6516,-96.1759 122.4503,-96.6472 126.0672,-97.1606 129.4897,-97.7147 132.7064,-98.308 135.7073,-98.9388 138.4832,-99.6054 141.0267,-100.3059 143.3314,-101.0385 145.3924,-101.8012 147.2061,-102.5918 148.7702,-103.4082 150.0836,-104.2481 151.1466,-105.1093 151.9607,-105.9894 152.5285,-106.886 152.8538,-107.7965 152.9413,-108.7186 152.7968,-109.6497 152.427,-110.5873 151.8391,-111.5287 151.0415,-112.4713 150.0427,-113.4127 148.8521,-114.3503 147.4794,-115.2814 145.9345,-116.2035 144.2276,-117.114 142.3691,-118.0106 140.3695,-118.8907 138.239,-119.7519 135.9879,-120.5918 133.6261,-121.4082 131.1636,-122.1988 128.6095,-122.9615 125.9731,-123.6941 123.2629,-124.3946 120.4869,-125.0612 117.6529,-125.692 114.7678,-126.2853 111.8383,-126.8394 108.8703,-127.3528 105.8693,-127.8241 102.8402,-128.2521 99.7876,-128.6355 96.7153,-128.9734 93.627,-129.2647 90.5258,-129.5087 87.4145,-129.7047 84.2957,-129.8521 81.1716,-129.9507 78.0445,-130 74.9164,-130 71.7893,-129.9507 68.6652,-129.8521 65.5464,-129.7047 62.4351,-129.5087 59.3339,-129.2647 56.2456,-128.9734 53.1733,-128.6355 50.1207,-128.2521 47.0916,-127.8241 44.0906,-127.3528 41.1226,-126.8394 38.1931,-126.2853 35.308,-125.692 32.474,-125.0612 29.698,-124.3946 26.9878,-123.6941 24.3513,-122.9615 21.7973,-122.1988 19.3348,-121.4082 16.973,-120.5918 14.7219,-119.7519 12.5914,-118.8907 10.5918,-118.0106 8.7333,-117.114 7.0264,-116.2035 5.4815,-115.2814 4.1088,-114.3503 2.9182,-113.4127 1.9194,-112.4713 1.1218,-111.5287 .5339,-110.5873 .164,-109.6497 .0196,-108.7186 .1071,-107.7965 .4323,-106.886 1.0001,-105.9894 1.8142,-105.1093 2.8773,-104.2481 4.1907,-103.4082 5.7547,-102.5918 7.5684,-101.8012 9.6295,-101.0385 11.9342,-100.3059 14.4777,-99.6054 17.2536,-98.9388 20.2544,-98.308 23.4712,-97.7147 26.8937,-97.1606 30.5106,-96.6472 34.3093,-96.1759 38.276,-95.7479 42.3961,-95.3645 46.6539,-95.0266 51.0329,-94.7353 55.5157,-94.4913 60.0844,-94.2953 64.7205,-94.1479 69.405,-94.0493 74.1187,-94 78.8422,-94 83.5559,-94.0493"/>
<text text-anchor="middle" x="76.4804" y="-109.5" font-family="Courier,monospace" font-weight="bold" font-size="10.00" fill="#000000">(&#45;1, &#39;SOURCE&#39;)</text>
</g>
<!-- (0, &#39;A&#39;) -->
<g id="node3" class="node">
<title>(0, &#39;A&#39;)</title>
<polygon fill="none" stroke="#000000" points="958.9883,-117.0493 961.9317,-117.1479 964.8446,-117.2953 967.7152,-117.4913 970.5319,-117.7353 973.2833,-118.0266 975.9585,-118.3645 978.5473,-118.7479 981.0397,-119.1759 983.4265,-119.6472 985.699,-120.1606 987.8495,-120.7147 989.8706,-121.308 991.7561,-121.9388 993.5003,-122.6054 995.0984,-123.3059 996.5465,-124.0385 997.8415,-124.8012 998.9811,-125.5918 999.9638,-126.4082 1000.7891,-127.2481 1001.457,-128.1093 1001.9685,-128.9894 1002.3253,-129.886 1002.5296,-130.7965 1002.5846,-131.7186 1002.4938,-132.6497 1002.2614,-133.5873 1001.8921,-134.5287 1001.3909,-135.4713 1000.7634,-136.4127 1000.0153,-137.3503 999.1528,-138.2814 998.1821,-139.2035 997.1096,-140.114 995.9419,-141.0106 994.6855,-141.8907 993.3468,-142.7519 991.9324,-143.5918 990.4485,-144.4082 988.9012,-145.1988 987.2965,-145.9615 985.6399,-146.6941 983.937,-147.3946 982.1929,-148.0612 980.4122,-148.692 978.5994,-149.2853 976.7587,-149.8394 974.8939,-150.3528 973.0083,-150.8241 971.1051,-151.2521 969.187,-151.6355 967.2567,-151.9734 965.3162,-152.2647 963.3676,-152.5087 961.4128,-152.7047 959.4531,-152.8521 957.4902,-152.9507 955.5254,-153 953.5599,-153 951.5951,-152.9507 949.6322,-152.8521 947.6726,-152.7047 945.7177,-152.5087 943.7691,-152.2647 941.8287,-151.9734 939.8983,-151.6355 937.9803,-151.2521 936.077,-150.8241 934.1915,-150.3528 932.3266,-149.8394 930.4859,-149.2853 928.6732,-148.692 926.8925,-148.0612 925.1483,-147.3946 923.4454,-146.6941 921.7889,-145.9615 920.1841,-145.1988 918.6368,-144.4082 917.1529,-143.5918 915.7385,-142.7519 914.3998,-141.8907 913.1434,-141.0106 911.9757,-140.114 910.9033,-139.2035 909.9326,-138.2814 909.07,-137.3503 908.322,-136.4127 907.6944,-135.4713 907.1932,-134.5287 906.8239,-133.5873 906.5915,-132.6497 906.5007,-131.7186 906.5557,-130.7965 906.7601,-129.886 907.1168,-128.9894 907.6283,-128.1093 908.2962,-127.2481 909.1215,-126.4082 910.1042,-125.5918 911.2438,-124.8012 912.5388,-124.0385 913.9869,-123.3059 915.585,-122.6054 917.3292,-121.9388 919.2147,-121.308 921.2358,-120.7147 923.3863,-120.1606 925.6588,-119.6472 928.0456,-119.1759 930.538,-118.7479 933.1268,-118.3645 935.8021,-118.0266 938.5535,-117.7353 941.3701,-117.4913 944.2407,-117.2953 947.1536,-117.1479 950.097,-117.0493 953.0587,-117 956.0266,-117 958.9883,-117.0493"/>
<text text-anchor="middle" x="954.5427" y="-132.5" font-family="Courier,monospace" font-weight="bold" font-size="10.00" fill="#000000">(0, &#39;A&#39;)</text>
</g>
<!-- (&#45;1, &#39;SOURCE&#39;)&#45;&gt;(0, &#39;A&#39;) -->
<g id="edge1" class="edge">
<title>(&#45;1, &#39;SOURCE&#39;)&#45;&gt;(0, &#39;A&#39;)</title>
<path fill="none" stroke="#000000" d="M143.807,-117.4315C152.9288,-118.0376 162.1711,-118.5849 170.9609,-119 442.5717,-131.8255 767.6206,-134.3772 897.1683,-134.8795"/>
<polygon fill="#000000" stroke="#000000" points="897.2456,-138.3797 907.2582,-134.916 897.2709,-131.3798 897.2456,-138.3797"/>
<text text-anchor="middle" x="518.0018" y="-134" font-family="Courier,monospace" font-weight="bold" font-size="10.00" fill="#000000">0.11401579526142158</text>
</g>
<!-- (0, &#39;B&#39;) -->
<g id="node4" class="node">
<title>(0, &#39;B&#39;)</title>
<polygon fill="none" stroke="#000000" points="384.677,-71.0493 387.6203,-71.1479 390.5333,-71.2953 393.4039,-71.4913 396.2205,-71.7353 398.9719,-72.0266 401.6472,-72.3645 404.236,-72.7479 406.7284,-73.1759 409.1151,-73.6472 411.3877,-74.1606 413.5381,-74.7147 415.5593,-75.308 417.4448,-75.9388 419.189,-76.6054 420.7871,-77.3059 422.2352,-78.0385 423.5302,-78.8012 424.6698,-79.5918 425.6525,-80.4082 426.4777,-81.2481 427.1457,-82.1093 427.6572,-82.9894 428.0139,-83.886 428.2183,-84.7965 428.2733,-85.7186 428.1825,-86.6497 427.9501,-87.5873 427.5808,-88.5287 427.0796,-89.4713 426.452,-90.4127 425.704,-91.3503 424.8414,-92.2814 423.8707,-93.2035 422.7983,-94.114 421.6306,-95.0106 420.3741,-95.8907 419.0355,-96.7519 417.6211,-97.5918 416.1372,-98.4082 414.5899,-99.1988 412.9851,-99.9615 411.3286,-100.6941 409.6257,-101.3946 407.8815,-102.0612 406.1008,-102.692 404.2881,-103.2853 402.4474,-103.8394 400.5825,-104.3528 398.6969,-104.8241 396.7937,-105.2521 394.8757,-105.6355 392.9453,-105.9734 391.0049,-106.2647 389.0563,-106.5087 387.1014,-106.7047 385.1418,-106.8521 383.1789,-106.9507 381.2141,-107 379.2486,-107 377.2838,-106.9507 375.3209,-106.8521 373.3612,-106.7047 371.4063,-106.5087 369.4578,-106.2647 367.5173,-105.9734 365.587,-105.6355 363.6689,-105.2521 361.7657,-104.8241 359.8801,-104.3528 358.0153,-103.8394 356.1746,-103.2853 354.3618,-102.692 352.5811,-102.0612 350.8369,-101.3946 349.134,-100.6941 347.4775,-99.9615 345.8728,-99.1988 344.3255,-98.4082 342.8416,-97.5918 341.4272,-96.7519 340.0885,-95.8907 338.8321,-95.0106 337.6644,-94.114 336.5919,-93.2035 335.6212,-92.2814 334.7587,-91.3503 334.0106,-90.4127 333.3831,-89.4713 332.8819,-88.5287 332.5125,-87.5873 332.2801,-86.6497 332.1894,-85.7186 332.2443,-84.7965 332.4487,-83.886 332.8055,-82.9894 333.317,-82.1093 333.9849,-81.2481 334.8102,-80.4082 335.7929,-79.5918 336.9325,-78.8012 338.2275,-78.0385 339.6756,-77.3059 341.2737,-76.6054 343.0179,-75.9388 344.9034,-75.308 346.9245,-74.7147 349.075,-74.1606 351.3475,-73.6472 353.7343,-73.1759 356.2267,-72.7479 358.8154,-72.3645 361.4907,-72.0266 364.2421,-71.7353 367.0588,-71.4913 369.9294,-71.2953 372.8423,-71.1479 375.7857,-71.0493 378.7474,-71 381.7153,-71 384.677,-71.0493"/>
<text text-anchor="middle" x="380.2313" y="-86.5" font-family="Courier,monospace" font-weight="bold" font-size="10.00" fill="#000000">(0, &#39;B&#39;)</text>
</g>
<!-- (&#45;1, &#39;SOURCE&#39;)&#45;&gt;(0, &#39;B&#39;) -->
<g id="edge2" class="edge">
<title>(&#45;1, &#39;SOURCE&#39;)&#45;&gt;(0, &#39;B&#39;)</title>
<path fill="none" stroke="#000000" d="M152.3461,-106.2555C206.0424,-102.1896 276.8181,-96.8304 325.1589,-93.1701"/>
<polygon fill="#000000" stroke="#000000" points="325.7149,-96.6381 335.422,-92.393 325.1863,-89.6581 325.7149,-96.6381"/>
<text text-anchor="middle" x="242.4609" y="-107" font-family="Courier,monospace" font-weight="bold" font-size="10.00" fill="#000000">0.10151954413675898</text>
</g>
<!-- (1, &#39;A&#39;) -->
<g id="node7" class="node">
<title>(1, &#39;A&#39;)</title>
<polygon fill="none" stroke="#000000" points="1395.5292,-107.0493 1398.4726,-107.1479 1401.3855,-107.2953 1404.2561,-107.4913 1407.0728,-107.7353 1409.8242,-108.0266 1412.4994,-108.3645 1415.0882,-108.7479 1417.5806,-109.1759 1419.9674,-109.6472 1422.2399,-110.1606 1424.3904,-110.7147 1426.4115,-111.308 1428.297,-111.9388 1430.0412,-112.6054 1431.6393,-113.3059 1433.0874,-114.0385 1434.3824,-114.8012 1435.522,-115.5918 1436.5047,-116.4082 1437.33,-117.2481 1437.9979,-118.1093 1438.5094,-118.9894 1438.8662,-119.886 1439.0705,-120.7965 1439.1255,-121.7186 1439.0347,-122.6497 1438.8023,-123.5873 1438.433,-124.5287 1437.9318,-125.4713 1437.3043,-126.4127 1436.5562,-127.3503 1435.6937,-128.2814 1434.723,-129.2035 1433.6505,-130.114 1432.4828,-131.0106 1431.2264,-131.8907 1429.8877,-132.7519 1428.4733,-133.5918 1426.9894,-134.4082 1425.4421,-135.1988 1423.8374,-135.9615 1422.1808,-136.6941 1420.4779,-137.3946 1418.7337,-138.0612 1416.9531,-138.692 1415.1403,-139.2853 1413.2996,-139.8394 1411.4348,-140.3528 1409.5492,-140.8241 1407.646,-141.2521 1405.7279,-141.6355 1403.7976,-141.9734 1401.8571,-142.2647 1399.9085,-142.5087 1397.9536,-142.7047 1395.994,-142.8521 1394.0311,-142.9507 1392.0663,-143 1390.1008,-143 1388.136,-142.9507 1386.1731,-142.8521 1384.2135,-142.7047 1382.2586,-142.5087 1380.31,-142.2647 1378.3695,-141.9734 1376.4392,-141.6355 1374.5211,-141.2521 1372.6179,-140.8241 1370.7323,-140.3528 1368.8675,-139.8394 1367.0268,-139.2853 1365.214,-138.692 1363.4334,-138.0612 1361.6892,-137.3946 1359.9863,-136.6941 1358.3297,-135.9615 1356.725,-135.1988 1355.1777,-134.4082 1353.6938,-133.5918 1352.2794,-132.7519 1350.9407,-131.8907 1349.6843,-131.0106 1348.5166,-130.114 1347.4441,-129.2035 1346.4734,-128.2814 1345.6109,-127.3503 1344.8628,-126.4127 1344.2353,-125.4713 1343.7341,-124.5287 1343.3648,-123.5873 1343.1324,-122.6497 1343.0416,-121.7186 1343.0966,-120.7965 1343.3009,-119.886 1343.6577,-118.9894 1344.1692,-118.1093 1344.8371,-117.2481 1345.6624,-116.4082 1346.6451,-115.5918 1347.7847,-114.8012 1349.0797,-114.0385 1350.5278,-113.3059 1352.1259,-112.6054 1353.8701,-111.9388 1355.7556,-111.308 1357.7767,-110.7147 1359.9272,-110.1606 1362.1997,-109.6472 1364.5865,-109.1759 1367.0789,-108.7479 1369.6677,-108.3645 1372.3429,-108.0266 1375.0943,-107.7353 1377.911,-107.4913 1380.7816,-107.2953 1383.6945,-107.1479 1386.6379,-107.0493 1389.5996,-107 1392.5675,-107 1395.5292,-107.0493"/>
<text text-anchor="middle" x="1391.0835" y="-122.5" font-family="Courier,monospace" font-weight="bold" font-size="10.00" fill="#000000">(1, &#39;A&#39;)</text>
</g>
<!-- (0, &#39;A&#39;)&#45;&gt;(1, &#39;A&#39;) -->
<g id="edge3" class="edge">
<title>(0, &#39;A&#39;)&#45;&gt;(1, &#39;A&#39;)</title>
<path fill="none" stroke="#000000" d="M1002.5089,-133.9012C1083.5992,-132.0437 1247.408,-128.2912 1334.1721,-126.3037"/>
<polygon fill="#000000" stroke="#000000" points="1334.4432,-129.7985 1344.3604,-126.0703 1334.2828,-122.8003 1334.4432,-129.7985"/>
<text text-anchor="middle" x="1115.5427" y="-135" font-family="Courier,monospace" font-weight="bold" font-size="10.00" fill="#000000">0.08597351808254765</text>
</g>
<!-- (1, &#39;B&#39;) -->
<g id="node8" class="node">
<title>(1, &#39;B&#39;)</title>
<polygon fill="none" stroke="#000000" points="1257.7587,-25.0493 1260.7021,-25.1479 1263.6151,-25.2953 1266.4857,-25.4913 1269.3023,-25.7353 1272.0537,-26.0266 1274.729,-26.3645 1277.3177,-26.7479 1279.8101,-27.1759 1282.1969,-27.6472 1284.4695,-28.1606 1286.6199,-28.7147 1288.6411,-29.308 1290.5265,-29.9388 1292.2707,-30.6054 1293.8689,-31.3059 1295.317,-32.0385 1296.612,-32.8012 1297.7515,-33.5918 1298.7343,-34.4082 1299.5595,-35.2481 1300.2274,-36.1093 1300.739,-36.9894 1301.0957,-37.886 1301.3001,-38.7965 1301.3551,-39.7186 1301.2643,-40.6497 1301.0319,-41.5873 1300.6625,-42.5287 1300.1614,-43.4713 1299.5338,-44.4127 1298.7857,-45.3503 1297.9232,-46.2814 1296.9525,-47.2035 1295.8801,-48.114 1294.7123,-49.0106 1293.4559,-49.8907 1292.1173,-50.7519 1290.7029,-51.5918 1289.2189,-52.4082 1287.6716,-53.1988 1286.0669,-53.9615 1284.4104,-54.6941 1282.7075,-55.3946 1280.9633,-56.0612 1279.1826,-56.692 1277.3699,-57.2853 1275.5292,-57.8394 1273.6643,-58.3528 1271.7787,-58.8241 1269.8755,-59.2521 1267.9575,-59.6355 1266.0271,-59.9734 1264.0867,-60.2647 1262.1381,-60.5087 1260.1832,-60.7047 1258.2236,-60.8521 1256.2607,-60.9507 1254.2958,-61 1252.3304,-61 1250.3655,-60.9507 1248.4026,-60.8521 1246.443,-60.7047 1244.4881,-60.5087 1242.5396,-60.2647 1240.5991,-59.9734 1238.6687,-59.6355 1236.7507,-59.2521 1234.8475,-58.8241 1232.9619,-58.3528 1231.097,-57.8394 1229.2564,-57.2853 1227.4436,-56.692 1225.6629,-56.0612 1223.9187,-55.3946 1222.2158,-54.6941 1220.5593,-53.9615 1218.9546,-53.1988 1217.4073,-52.4082 1215.9234,-51.5918 1214.5089,-50.7519 1213.1703,-49.8907 1211.9139,-49.0106 1210.7462,-48.114 1209.6737,-47.2035 1208.703,-46.2814 1207.8405,-45.3503 1207.0924,-44.4127 1206.4649,-43.4713 1205.9637,-42.5287 1205.5943,-41.5873 1205.3619,-40.6497 1205.2711,-39.7186 1205.3261,-38.7965 1205.5305,-37.886 1205.8873,-36.9894 1206.3988,-36.1093 1207.0667,-35.2481 1207.8919,-34.4082 1208.8747,-33.5918 1210.0143,-32.8012 1211.3092,-32.0385 1212.7574,-31.3059 1214.3555,-30.6054 1216.0997,-29.9388 1217.9851,-29.308 1220.0063,-28.7147 1222.1567,-28.1606 1224.4293,-27.6472 1226.8161,-27.1759 1229.3085,-26.7479 1231.8972,-26.3645 1234.5725,-26.0266 1237.3239,-25.7353 1240.1405,-25.4913 1243.0111,-25.2953 1245.9241,-25.1479 1248.8675,-25.0493 1251.8292,-25 1254.797,-25 1257.7587,-25.0493"/>
<text text-anchor="middle" x="1253.3131" y="-40.5" font-family="Courier,monospace" font-weight="bold" font-size="10.00" fill="#000000">(1, &#39;B&#39;)</text>
</g>
<!-- (0, &#39;A&#39;)&#45;&gt;(1, &#39;B&#39;) -->
<g id="edge4" class="edge">
<title>(0, &#39;A&#39;)&#45;&gt;(1, &#39;B&#39;)</title>
<path fill="none" stroke="#000000" d="M994.2171,-122.7831C1050.0366,-105.5947 1151.4035,-74.3809 1209.4194,-56.5161"/>
<polygon fill="#000000" stroke="#000000" points="1210.5087,-59.843 1219.0358,-53.555 1208.4486,-53.153 1210.5087,-59.843"/>
<text text-anchor="middle" x="1115.5427" y="-108" font-family="Courier,monospace" font-weight="bold" font-size="10.00" fill="#000000">0.12648835823158272</text>
</g>
<!-- (0, &#39;C&#39;) -->
<g id="node5" class="node">
<title>(0, &#39;C&#39;)</title>
<polygon fill="none" stroke="#000000" points="660.2179,-25.0493 663.1612,-25.1479 666.0742,-25.2953 668.9448,-25.4913 671.7614,-25.7353 674.5128,-26.0266 677.1881,-26.3645 679.7769,-26.7479 682.2693,-27.1759 684.656,-27.6472 686.9286,-28.1606 689.079,-28.7147 691.1002,-29.308 692.9857,-29.9388 694.7298,-30.6054 696.328,-31.3059 697.7761,-32.0385 699.0711,-32.8012 700.2107,-33.5918 701.1934,-34.4082 702.0186,-35.2481 702.6865,-36.1093 703.1981,-36.9894 703.5548,-37.886 703.7592,-38.7965 703.8142,-39.7186 703.7234,-40.6497 703.491,-41.5873 703.1217,-42.5287 702.6205,-43.4713 701.9929,-44.4127 701.2449,-45.3503 700.3823,-46.2814 699.4116,-47.2035 698.3392,-48.114 697.1715,-49.0106 695.915,-49.8907 694.5764,-50.7519 693.162,-51.5918 691.678,-52.4082 690.1308,-53.1988 688.526,-53.9615 686.8695,-54.6941 685.1666,-55.3946 683.4224,-56.0612 681.6417,-56.692 679.829,-57.2853 677.9883,-57.8394 676.1234,-58.3528 674.2378,-58.8241 672.3346,-59.2521 670.4166,-59.6355 668.4862,-59.9734 666.5458,-60.2647 664.5972,-60.5087 662.6423,-60.7047 660.6827,-60.8521 658.7198,-60.9507 656.755,-61 654.7895,-61 652.8247,-60.9507 650.8618,-60.8521 648.9021,-60.7047 646.9472,-60.5087 644.9987,-60.2647 643.0582,-59.9734 641.1279,-59.6355 639.2098,-59.2521 637.3066,-58.8241 635.421,-58.3528 633.5562,-57.8394 631.7155,-57.2853 629.9027,-56.692 628.122,-56.0612 626.3778,-55.3946 624.6749,-54.6941 623.0184,-53.9615 621.4137,-53.1988 619.8664,-52.4082 618.3825,-51.5918 616.968,-50.7519 615.6294,-49.8907 614.373,-49.0106 613.2053,-48.114 612.1328,-47.2035 611.1621,-46.2814 610.2996,-45.3503 609.5515,-44.4127 608.924,-43.4713 608.4228,-42.5287 608.0534,-41.5873 607.821,-40.6497 607.7302,-39.7186 607.7852,-38.7965 607.9896,-37.886 608.3464,-36.9894 608.8579,-36.1093 609.5258,-35.2481 610.3511,-34.4082 611.3338,-33.5918 612.4734,-32.8012 613.7684,-32.0385 615.2165,-31.3059 616.8146,-30.6054 618.5588,-29.9388 620.4442,-29.308 622.4654,-28.7147 624.6158,-28.1606 626.8884,-27.6472 629.2752,-27.1759 631.7676,-26.7479 634.3563,-26.3645 637.0316,-26.0266 639.783,-25.7353 642.5997,-25.4913 645.4703,-25.2953 648.3832,-25.1479 651.3266,-25.0493 654.2883,-25 657.2561,-25 660.2179,-25.0493"/>
<text text-anchor="middle" x="655.7722" y="-40.5" font-family="Courier,monospace" font-weight="bold" font-size="10.00" fill="#000000">(0, &#39;C&#39;)</text>
</g>
<!-- (0, &#39;B&#39;)&#45;&gt;(0, &#39;C&#39;) -->
<g id="edge5" class="edge">
<title>(0, &#39;B&#39;)&#45;&gt;(0, &#39;C&#39;)</title>
<path fill="none" stroke="#000000" d="M413.4163,-74.5461C423.8311,-70.5385 435.4877,-66.5832 446.5018,-64 497.2421,-52.0995 556.4554,-46.9411 598.9206,-44.7062"/>
<polygon fill="#000000" stroke="#000000" points="599.2515,-48.1943 609.069,-44.2108 598.9102,-41.2026 599.2515,-48.1943"/>
<text text-anchor="middle" x="518.0018" y="-67" font-family="Courier,monospace" font-weight="bold" font-size="10.00" fill="#000000">0.6989602079584083</text>
</g>
<!-- (0, &#39;B&#39;)&#45;&gt;(1, &#39;A&#39;) -->
<g id="edge6" class="edge">
<title>(0, &#39;B&#39;)&#45;&gt;(1, &#39;A&#39;)</title>
<path fill="none" stroke="#000000" d="M427.5254,-89C482.4117,-89 575.6453,-89 655.7722,-89 655.7722,-89 655.7722,-89 1115.5427,-89 1192.7511,-89 1281.1112,-103.0694 1336.5056,-113.6171"/>
<polygon fill="#000000" stroke="#000000" points="1335.9725,-117.0788 1346.4552,-115.5414 1337.3018,-110.2061 1335.9725,-117.0788"/>
<text text-anchor="middle" x="793.5427" y="-92" font-family="Courier,monospace" font-weight="bold" font-size="10.00" fill="#000000">0.06864658258991009</text>
</g>
<!-- (0, &#39;D&#39;) -->
<g id="node6" class="node">
<title>(0, &#39;D&#39;)</title>
<polygon fill="none" stroke="#000000" points="958.9883,-25.0493 961.9317,-25.1479 964.8446,-25.2953 967.7152,-25.4913 970.5319,-25.7353 973.2833,-26.0266 975.9585,-26.3645 978.5473,-26.7479 981.0397,-27.1759 983.4265,-27.6472 985.699,-28.1606 987.8495,-28.7147 989.8706,-29.308 991.7561,-29.9388 993.5003,-30.6054 995.0984,-31.3059 996.5465,-32.0385 997.8415,-32.8012 998.9811,-33.5918 999.9638,-34.4082 1000.7891,-35.2481 1001.457,-36.1093 1001.9685,-36.9894 1002.3253,-37.886 1002.5296,-38.7965 1002.5846,-39.7186 1002.4938,-40.6497 1002.2614,-41.5873 1001.8921,-42.5287 1001.3909,-43.4713 1000.7634,-44.4127 1000.0153,-45.3503 999.1528,-46.2814 998.1821,-47.2035 997.1096,-48.114 995.9419,-49.0106 994.6855,-49.8907 993.3468,-50.7519 991.9324,-51.5918 990.4485,-52.4082 988.9012,-53.1988 987.2965,-53.9615 985.6399,-54.6941 983.937,-55.3946 982.1929,-56.0612 980.4122,-56.692 978.5994,-57.2853 976.7587,-57.8394 974.8939,-58.3528 973.0083,-58.8241 971.1051,-59.2521 969.187,-59.6355 967.2567,-59.9734 965.3162,-60.2647 963.3676,-60.5087 961.4128,-60.7047 959.4531,-60.8521 957.4902,-60.9507 955.5254,-61 953.5599,-61 951.5951,-60.9507 949.6322,-60.8521 947.6726,-60.7047 945.7177,-60.5087 943.7691,-60.2647 941.8287,-59.9734 939.8983,-59.6355 937.9803,-59.2521 936.077,-58.8241 934.1915,-58.3528 932.3266,-57.8394 930.4859,-57.2853 928.6732,-56.692 926.8925,-56.0612 925.1483,-55.3946 923.4454,-54.6941 921.7889,-53.9615 920.1841,-53.1988 918.6368,-52.4082 917.1529,-51.5918 915.7385,-50.7519 914.3998,-49.8907 913.1434,-49.0106 911.9757,-48.114 910.9033,-47.2035 909.9326,-46.2814 909.07,-45.3503 908.322,-44.4127 907.6944,-43.4713 907.1932,-42.5287 906.8239,-41.5873 906.5915,-40.6497 906.5007,-39.7186 906.5557,-38.7965 906.7601,-37.886 907.1168,-36.9894 907.6283,-36.1093 908.2962,-35.2481 909.1215,-34.4082 910.1042,-33.5918 911.2438,-32.8012 912.5388,-32.0385 913.9869,-31.3059 915.585,-30.6054 917.3292,-29.9388 919.2147,-29.308 921.2358,-28.7147 923.3863,-28.1606 925.6588,-27.6472 928.0456,-27.1759 930.538,-26.7479 933.1268,-26.3645 935.8021,-26.0266 938.5535,-25.7353 941.3701,-25.4913 944.2407,-25.2953 947.1536,-25.1479 950.097,-25.0493 953.0587,-25 956.0266,-25 958.9883,-25.0493"/>
<text text-anchor="middle" x="954.5427" y="-40.5" font-family="Courier,monospace" font-weight="bold" font-size="10.00" fill="#000000">(0, &#39;D&#39;)</text>
</g>
<!-- (0, &#39;C&#39;)&#45;&gt;(0, &#39;D&#39;) -->
<g id="edge7" class="edge">
<title>(0, &#39;C&#39;)&#45;&gt;(0, &#39;D&#39;)</title>
<path fill="none" stroke="#000000" d="M703.1133,-43C755.7794,-43 840.8593,-43 897.2432,-43"/>
<polygon fill="#000000" stroke="#000000" points="897.4231,-46.5001 907.4231,-43 897.4231,-39.5001 897.4231,-46.5001"/>
<text text-anchor="middle" x="793.5427" y="-46" font-family="Courier,monospace" font-weight="bold" font-size="10.00" fill="#000000">0.10007998400319937</text>
</g>
<!-- (0, &#39;C&#39;)&#45;&gt;(1, &#39;B&#39;) -->
<g id="edge8" class="edge">
<title>(0, &#39;C&#39;)&#45;&gt;(1, &#39;B&#39;)</title>
<path fill="none" stroke="#000000" d="M699.9188,-33.3865C745.5137,-23.985 818.8564,-10.329 883.0427,-5 946.3803,.2586 962.705,.2586 1026.0427,-5 1085.7158,-9.9543 1153.3031,-22.1058 1199.1501,-31.3446"/>
<polygon fill="#000000" stroke="#000000" points="1198.6689,-34.8184 1209.1665,-33.3865 1200.0671,-27.9595 1198.6689,-34.8184"/>
<text text-anchor="middle" x="954.5427" y="-8" font-family="Courier,monospace" font-weight="bold" font-size="10.00" fill="#000000">0.18271893956708013</text>
</g>
<!-- (0, &#39;D&#39;)&#45;&gt;(1, &#39;B&#39;) -->
<g id="edge9" class="edge">
<title>(0, &#39;D&#39;)&#45;&gt;(1, &#39;B&#39;)</title>
<path fill="none" stroke="#000000" d="M1001.8837,-43C1054.5498,-43 1139.6298,-43 1196.0137,-43"/>
<polygon fill="#000000" stroke="#000000" points="1196.1936,-46.5001 1206.1935,-43 1196.1935,-39.5001 1196.1936,-46.5001"/>
<text text-anchor="middle" x="1115.5427" y="-46" font-family="Courier,monospace" font-weight="bold" font-size="10.00" fill="#000000">0.20303908827351796</text>
</g>
<!-- (2, &#39;A&#39;) -->
<g id="node11" class="node">
<title>(2, &#39;A&#39;)</title>
<polygon fill="none" stroke="#000000" points="1717.5292,-126.0493 1720.4726,-126.1479 1723.3855,-126.2953 1726.2561,-126.4913 1729.0728,-126.7353 1731.8242,-127.0266 1734.4994,-127.3645 1737.0882,-127.7479 1739.5806,-128.1759 1741.9674,-128.6472 1744.2399,-129.1606 1746.3904,-129.7147 1748.4115,-130.308 1750.297,-130.9388 1752.0412,-131.6054 1753.6393,-132.3059 1755.0874,-133.0385 1756.3824,-133.8012 1757.522,-134.5918 1758.5047,-135.4082 1759.33,-136.2481 1759.9979,-137.1093 1760.5094,-137.9894 1760.8662,-138.886 1761.0705,-139.7965 1761.1255,-140.7186 1761.0347,-141.6497 1760.8023,-142.5873 1760.433,-143.5287 1759.9318,-144.4713 1759.3043,-145.4127 1758.5562,-146.3503 1757.6937,-147.2814 1756.723,-148.2035 1755.6505,-149.114 1754.4828,-150.0106 1753.2264,-150.8907 1751.8877,-151.7519 1750.4733,-152.5918 1748.9894,-153.4082 1747.4421,-154.1988 1745.8374,-154.9615 1744.1808,-155.6941 1742.4779,-156.3946 1740.7337,-157.0612 1738.9531,-157.692 1737.1403,-158.2853 1735.2996,-158.8394 1733.4348,-159.3528 1731.5492,-159.8241 1729.646,-160.2521 1727.7279,-160.6355 1725.7976,-160.9734 1723.8571,-161.2647 1721.9085,-161.5087 1719.9536,-161.7047 1717.994,-161.8521 1716.0311,-161.9507 1714.0663,-162 1712.1008,-162 1710.136,-161.9507 1708.1731,-161.8521 1706.2135,-161.7047 1704.2586,-161.5087 1702.31,-161.2647 1700.3695,-160.9734 1698.4392,-160.6355 1696.5211,-160.2521 1694.6179,-159.8241 1692.7323,-159.3528 1690.8675,-158.8394 1689.0268,-158.2853 1687.214,-157.692 1685.4334,-157.0612 1683.6892,-156.3946 1681.9863,-155.6941 1680.3297,-154.9615 1678.725,-154.1988 1677.1777,-153.4082 1675.6938,-152.5918 1674.2794,-151.7519 1672.9407,-150.8907 1671.6843,-150.0106 1670.5166,-149.114 1669.4441,-148.2035 1668.4734,-147.2814 1667.6109,-146.3503 1666.8628,-145.4127 1666.2353,-144.4713 1665.7341,-143.5287 1665.3648,-142.5873 1665.1324,-141.6497 1665.0416,-140.7186 1665.0966,-139.7965 1665.3009,-138.886 1665.6577,-137.9894 1666.1692,-137.1093 1666.8371,-136.2481 1667.6624,-135.4082 1668.6451,-134.5918 1669.7847,-133.8012 1671.0797,-133.0385 1672.5278,-132.3059 1674.1259,-131.6054 1675.8701,-130.9388 1677.7556,-130.308 1679.7767,-129.7147 1681.9272,-129.1606 1684.1997,-128.6472 1686.5865,-128.1759 1689.0789,-127.7479 1691.6677,-127.3645 1694.3429,-127.0266 1697.0943,-126.7353 1699.911,-126.4913 1702.7816,-126.2953 1705.6945,-126.1479 1708.6379,-126.0493 1711.5996,-126 1714.5675,-126 1717.5292,-126.0493"/>
<text text-anchor="middle" x="1713.0835" y="-141.5" font-family="Courier,monospace" font-weight="bold" font-size="10.00" fill="#000000">(2, &#39;A&#39;)</text>
</g>
<!-- (1, &#39;A&#39;)&#45;&gt;(2, &#39;A&#39;) -->
<g id="edge10" class="edge">
<title>(1, &#39;A&#39;)&#45;&gt;(2, &#39;A&#39;)</title>
<path fill="none" stroke="#000000" d="M1436.5353,-127.6819C1493.7648,-131.0588 1592.1634,-136.865 1654.8501,-140.5639"/>
<polygon fill="#000000" stroke="#000000" points="1654.7853,-144.066 1664.9741,-141.1612 1655.1977,-137.0782 1654.7853,-144.066"/>
<text text-anchor="middle" x="1552.0835" y="-141" font-family="Courier,monospace" font-weight="bold" font-size="10.00" fill="#000000">0.06637411895807382</text>
</g>
<!-- (2, &#39;B&#39;) -->
<g id="node12" class="node">
<title>(2, &#39;B&#39;)</title>
<polygon fill="none" stroke="#000000" points="2200.5292,-38.0493 2203.4726,-38.1479 2206.3855,-38.2953 2209.2561,-38.4913 2212.0728,-38.7353 2214.8242,-39.0266 2217.4994,-39.3645 2220.0882,-39.7479 2222.5806,-40.1759 2224.9674,-40.6472 2227.2399,-41.1606 2229.3904,-41.7147 2231.4115,-42.308 2233.297,-42.9388 2235.0412,-43.6054 2236.6393,-44.3059 2238.0874,-45.0385 2239.3824,-45.8012 2240.522,-46.5918 2241.5047,-47.4082 2242.33,-48.2481 2242.9979,-49.1093 2243.5094,-49.9894 2243.8662,-50.886 2244.0705,-51.7965 2244.1255,-52.7186 2244.0347,-53.6497 2243.8023,-54.5873 2243.433,-55.5287 2242.9318,-56.4713 2242.3043,-57.4127 2241.5562,-58.3503 2240.6937,-59.2814 2239.723,-60.2035 2238.6505,-61.114 2237.4828,-62.0106 2236.2264,-62.8907 2234.8877,-63.7519 2233.4733,-64.5918 2231.9894,-65.4082 2230.4421,-66.1988 2228.8374,-66.9615 2227.1808,-67.6941 2225.4779,-68.3946 2223.7337,-69.0612 2221.9531,-69.692 2220.1403,-70.2853 2218.2996,-70.8394 2216.4348,-71.3528 2214.5492,-71.8241 2212.646,-72.2521 2210.7279,-72.6355 2208.7976,-72.9734 2206.8571,-73.2647 2204.9085,-73.5087 2202.9536,-73.7047 2200.994,-73.8521 2199.0311,-73.9507 2197.0663,-74 2195.1008,-74 2193.136,-73.9507 2191.1731,-73.8521 2189.2135,-73.7047 2187.2586,-73.5087 2185.31,-73.2647 2183.3695,-72.9734 2181.4392,-72.6355 2179.5211,-72.2521 2177.6179,-71.8241 2175.7323,-71.3528 2173.8675,-70.8394 2172.0268,-70.2853 2170.214,-69.692 2168.4334,-69.0612 2166.6892,-68.3946 2164.9863,-67.6941 2163.3297,-66.9615 2161.725,-66.1988 2160.1777,-65.4082 2158.6938,-64.5918 2157.2794,-63.7519 2155.9407,-62.8907 2154.6843,-62.0106 2153.5166,-61.114 2152.4441,-60.2035 2151.4734,-59.2814 2150.6109,-58.3503 2149.8628,-57.4127 2149.2353,-56.4713 2148.7341,-55.5287 2148.3648,-54.5873 2148.1324,-53.6497 2148.0416,-52.7186 2148.0966,-51.7965 2148.3009,-50.886 2148.6577,-49.9894 2149.1692,-49.1093 2149.8371,-48.2481 2150.6624,-47.4082 2151.6451,-46.5918 2152.7847,-45.8012 2154.0797,-45.0385 2155.5278,-44.3059 2157.1259,-43.6054 2158.8701,-42.9388 2160.7556,-42.308 2162.7767,-41.7147 2164.9272,-41.1606 2167.1997,-40.6472 2169.5865,-40.1759 2172.0789,-39.7479 2174.6677,-39.3645 2177.3429,-39.0266 2180.0943,-38.7353 2182.911,-38.4913 2185.7816,-38.2953 2188.6945,-38.1479 2191.6379,-38.0493 2194.5996,-38 2197.5675,-38 2200.5292,-38.0493"/>
<text text-anchor="middle" x="2196.0835" y="-53.5" font-family="Courier,monospace" font-weight="bold" font-size="10.00" fill="#000000">(2, &#39;B&#39;)</text>
</g>
<!-- (1, &#39;A&#39;)&#45;&gt;(2, &#39;B&#39;) -->
<g id="edge11" class="edge">
<title>(1, &#39;A&#39;)&#45;&gt;(2, &#39;B&#39;)</title>
<path fill="none" stroke="#000000" d="M1439.1054,-121.3494C1489.5303,-117.518 1571.1289,-111.3235 1641.5835,-106 1848.2457,-90.3849 1900.8374,-95.9321 2106.5835,-71 2119.5419,-69.4297 2133.4871,-67.3047 2146.423,-65.1485"/>
<polygon fill="#000000" stroke="#000000" points="2147.2736,-68.5541 2156.5428,-63.4226 2146.0967,-61.6537 2147.2736,-68.5541"/>
<text text-anchor="middle" x="1713.0835" y="-109" font-family="Courier,monospace" font-weight="bold" font-size="10.00" fill="#000000">0.14018970673524997</text>
</g>
<!-- (1, &#39;C&#39;) -->
<g id="node9" class="node">
<title>(1, &#39;C&#39;)</title>
<polygon fill="none" stroke="#000000" points="1556.5292,-.0493 1559.4726,-.1479 1562.3855,-.2953 1565.2561,-.4913 1568.0728,-.7353 1570.8242,-1.0266 1573.4994,-1.3645 1576.0882,-1.7479 1578.5806,-2.1759 1580.9674,-2.6472 1583.2399,-3.1606 1585.3904,-3.7147 1587.4115,-4.308 1589.297,-4.9388 1591.0412,-5.6054 1592.6393,-6.3059 1594.0874,-7.0385 1595.3824,-7.8012 1596.522,-8.5918 1597.5047,-9.4082 1598.33,-10.2481 1598.9979,-11.1093 1599.5094,-11.9894 1599.8662,-12.886 1600.0705,-13.7965 1600.1255,-14.7186 1600.0347,-15.6497 1599.8023,-16.5873 1599.433,-17.5287 1598.9318,-18.4713 1598.3043,-19.4127 1597.5562,-20.3503 1596.6937,-21.2814 1595.723,-22.2035 1594.6505,-23.114 1593.4828,-24.0106 1592.2264,-24.8907 1590.8877,-25.7519 1589.4733,-26.5918 1587.9894,-27.4082 1586.4421,-28.1988 1584.8374,-28.9615 1583.1808,-29.6941 1581.4779,-30.3946 1579.7337,-31.0612 1577.9531,-31.692 1576.1403,-32.2853 1574.2996,-32.8394 1572.4348,-33.3528 1570.5492,-33.8241 1568.646,-34.2521 1566.7279,-34.6355 1564.7976,-34.9734 1562.8571,-35.2647 1560.9085,-35.5087 1558.9536,-35.7047 1556.994,-35.8521 1555.0311,-35.9507 1553.0663,-36 1551.1008,-36 1549.136,-35.9507 1547.1731,-35.8521 1545.2135,-35.7047 1543.2586,-35.5087 1541.31,-35.2647 1539.3695,-34.9734 1537.4392,-34.6355 1535.5211,-34.2521 1533.6179,-33.8241 1531.7323,-33.3528 1529.8675,-32.8394 1528.0268,-32.2853 1526.214,-31.692 1524.4334,-31.0612 1522.6892,-30.3946 1520.9863,-29.6941 1519.3297,-28.9615 1517.725,-28.1988 1516.1777,-27.4082 1514.6938,-26.5918 1513.2794,-25.7519 1511.9407,-24.8907 1510.6843,-24.0106 1509.5166,-23.114 1508.4441,-22.2035 1507.4734,-21.2814 1506.6109,-20.3503 1505.8628,-19.4127 1505.2353,-18.4713 1504.7341,-17.5287 1504.3648,-16.5873 1504.1324,-15.6497 1504.0416,-14.7186 1504.0966,-13.7965 1504.3009,-12.886 1504.6577,-11.9894 1505.1692,-11.1093 1505.8371,-10.2481 1506.6624,-9.4082 1507.6451,-8.5918 1508.7847,-7.8012 1510.0797,-7.0385 1511.5278,-6.3059 1513.1259,-5.6054 1514.8701,-4.9388 1516.7556,-4.308 1518.7767,-3.7147 1520.9272,-3.1606 1523.1997,-2.6472 1525.5865,-2.1759 1528.0789,-1.7479 1530.6677,-1.3645 1533.3429,-1.0266 1536.0943,-.7353 1538.911,-.4913 1541.7816,-.2953 1544.6945,-.1479 1547.6379,-.0493 1550.5996,0 1553.5675,0 1556.5292,-.0493"/>
<text text-anchor="middle" x="1552.0835" y="-15.5" font-family="Courier,monospace" font-weight="bold" font-size="10.00" fill="#000000">(1, &#39;C&#39;)</text>
</g>
<!-- (1, &#39;B&#39;)&#45;&gt;(1, &#39;C&#39;) -->
<g id="edge12" class="edge">
<title>(1, &#39;B&#39;)&#45;&gt;(1, &#39;C&#39;)</title>
<path fill="none" stroke="#000000" d="M1298.4751,-34.055C1305.5195,-32.882 1312.7326,-31.8087 1319.5835,-31 1379.2435,-23.9578 1447.9795,-20.7109 1495.1539,-19.226"/>
<polygon fill="#000000" stroke="#000000" points="1495.2867,-22.7237 1505.1778,-18.9268 1495.0778,-15.7268 1495.2867,-22.7237"/>
<text text-anchor="middle" x="1391.0835" y="-34" font-family="Courier,monospace" font-weight="bold" font-size="10.00" fill="#000000">0.6989602079584083</text>
</g>
<!-- (1, &#39;B&#39;)&#45;&gt;(2, &#39;A&#39;) -->
<g id="edge13" class="edge">
<title>(1, &#39;B&#39;)&#45;&gt;(2, &#39;A&#39;)</title>
<path fill="none" stroke="#000000" d="M1291.9242,-50.9193C1333.9487,-59.585 1403.105,-73.9811 1462.5835,-87 1530.5932,-101.8862 1608.7983,-119.8107 1659.4807,-131.5338"/>
<polygon fill="#000000" stroke="#000000" points="1658.7072,-134.9473 1669.239,-133.793 1660.2861,-128.1276 1658.7072,-134.9473"/>
<text text-anchor="middle" x="1391.0835" y="-90" font-family="Courier,monospace" font-weight="bold" font-size="10.00" fill="#000000">0.05299720821605947</text>
</g>
<!-- (1, &#39;D&#39;) -->
<g id="node10" class="node">
<title>(1, &#39;D&#39;)</title>
<polygon fill="none" stroke="#000000" points="1878.5292,-38.0493 1881.4726,-38.1479 1884.3855,-38.2953 1887.2561,-38.4913 1890.0728,-38.7353 1892.8242,-39.0266 1895.4994,-39.3645 1898.0882,-39.7479 1900.5806,-40.1759 1902.9674,-40.6472 1905.2399,-41.1606 1907.3904,-41.7147 1909.4115,-42.308 1911.297,-42.9388 1913.0412,-43.6054 1914.6393,-44.3059 1916.0874,-45.0385 1917.3824,-45.8012 1918.522,-46.5918 1919.5047,-47.4082 1920.33,-48.2481 1920.9979,-49.1093 1921.5094,-49.9894 1921.8662,-50.886 1922.0705,-51.7965 1922.1255,-52.7186 1922.0347,-53.6497 1921.8023,-54.5873 1921.433,-55.5287 1920.9318,-56.4713 1920.3043,-57.4127 1919.5562,-58.3503 1918.6937,-59.2814 1917.723,-60.2035 1916.6505,-61.114 1915.4828,-62.0106 1914.2264,-62.8907 1912.8877,-63.7519 1911.4733,-64.5918 1909.9894,-65.4082 1908.4421,-66.1988 1906.8374,-66.9615 1905.1808,-67.6941 1903.4779,-68.3946 1901.7337,-69.0612 1899.9531,-69.692 1898.1403,-70.2853 1896.2996,-70.8394 1894.4348,-71.3528 1892.5492,-71.8241 1890.646,-72.2521 1888.7279,-72.6355 1886.7976,-72.9734 1884.8571,-73.2647 1882.9085,-73.5087 1880.9536,-73.7047 1878.994,-73.8521 1877.0311,-73.9507 1875.0663,-74 1873.1008,-74 1871.136,-73.9507 1869.1731,-73.8521 1867.2135,-73.7047 1865.2586,-73.5087 1863.31,-73.2647 1861.3695,-72.9734 1859.4392,-72.6355 1857.5211,-72.2521 1855.6179,-71.8241 1853.7323,-71.3528 1851.8675,-70.8394 1850.0268,-70.2853 1848.214,-69.692 1846.4334,-69.0612 1844.6892,-68.3946 1842.9863,-67.6941 1841.3297,-66.9615 1839.725,-66.1988 1838.1777,-65.4082 1836.6938,-64.5918 1835.2794,-63.7519 1833.9407,-62.8907 1832.6843,-62.0106 1831.5166,-61.114 1830.4441,-60.2035 1829.4734,-59.2814 1828.6109,-58.3503 1827.8628,-57.4127 1827.2353,-56.4713 1826.7341,-55.5287 1826.3648,-54.5873 1826.1324,-53.6497 1826.0416,-52.7186 1826.0966,-51.7965 1826.3009,-50.886 1826.6577,-49.9894 1827.1692,-49.1093 1827.8371,-48.2481 1828.6624,-47.4082 1829.6451,-46.5918 1830.7847,-45.8012 1832.0797,-45.0385 1833.5278,-44.3059 1835.1259,-43.6054 1836.8701,-42.9388 1838.7556,-42.308 1840.7767,-41.7147 1842.9272,-41.1606 1845.1997,-40.6472 1847.5865,-40.1759 1850.0789,-39.7479 1852.6677,-39.3645 1855.3429,-39.0266 1858.0943,-38.7353 1860.911,-38.4913 1863.7816,-38.2953 1866.6945,-38.1479 1869.6379,-38.0493 1872.5996,-38 1875.5675,-38 1878.5292,-38.0493"/>
<text text-anchor="middle" x="1874.0835" y="-53.5" font-family="Courier,monospace" font-weight="bold" font-size="10.00" fill="#000000">(1, &#39;D&#39;)</text>
</g>
<!-- (1, &#39;C&#39;)&#45;&gt;(1, &#39;D&#39;) -->
<g id="edge14" class="edge">
<title>(1, &#39;C&#39;)&#45;&gt;(1, &#39;D&#39;)</title>
<path fill="none" stroke="#000000" d="M1594.8427,-23.0461C1651.7234,-29.7587 1752.4877,-41.6502 1816.1527,-49.1634"/>
<polygon fill="#000000" stroke="#000000" points="1816.0852,-52.6797 1826.4265,-50.3759 1816.9057,-45.7279 1816.0852,-52.6797"/>
<text text-anchor="middle" x="1713.0835" y="-47" font-family="Courier,monospace" font-weight="bold" font-size="10.00" fill="#000000">0.10007998400319937</text>
</g>
<!-- (1, &#39;C&#39;)&#45;&gt;(2, &#39;B&#39;) -->
<g id="edge15" class="edge">
<title>(1, &#39;C&#39;)&#45;&gt;(2, &#39;B&#39;)</title>
<path fill="none" stroke="#000000" d="M1600.329,-15.6687C1674.6156,-12.6052 1821.4303,-8.6367 1945.5835,-18 2013.0869,-23.0909 2089.959,-35.7939 2140.5401,-45.117"/>
<polygon fill="#000000" stroke="#000000" points="2140.1364,-48.6019 2150.6083,-46.9922 2141.4182,-41.7203 2140.1364,-48.6019"/>
<text text-anchor="middle" x="1874.0835" y="-21" font-family="Courier,monospace" font-weight="bold" font-size="10.00" fill="#000000">0.20251124222821137</text>
</g>
<!-- (1, &#39;D&#39;)&#45;&gt;(2, &#39;B&#39;) -->
<g id="edge16" class="edge">
<title>(1, &#39;D&#39;)&#45;&gt;(2, &#39;B&#39;)</title>
<path fill="none" stroke="#000000" d="M1921.25,-56C1979,-56 2076.7563,-56 2138.778,-56"/>
<polygon fill="#000000" stroke="#000000" points="2138.791,-59.5001 2148.791,-56 2138.7909,-52.5001 2138.791,-59.5001"/>
<text text-anchor="middle" x="2035.0835" y="-59" font-family="Courier,monospace" font-weight="bold" font-size="10.00" fill="#000000">0.22503249025292413</text>
</g>
<!-- (3, &#39;A&#39;) -->
<g id="node15" class="node">
<title>(3, &#39;A&#39;)</title>
<polygon fill="none" stroke="#000000" points="2637.0701,-164.0493 2640.0135,-164.1479 2642.9264,-164.2953 2645.797,-164.4913 2648.6136,-164.7353 2651.365,-165.0266 2654.0403,-165.3645 2656.6291,-165.7479 2659.1215,-166.1759 2661.5083,-166.6472 2663.7808,-167.1606 2665.9313,-167.7147 2667.9524,-168.308 2669.8379,-168.9388 2671.5821,-169.6054 2673.1802,-170.3059 2674.6283,-171.0385 2675.9233,-171.8012 2677.0629,-172.5918 2678.0456,-173.4082 2678.8709,-174.2481 2679.5388,-175.1093 2680.0503,-175.9894 2680.407,-176.886 2680.6114,-177.7965 2680.6664,-178.7186 2680.5756,-179.6497 2680.3432,-180.5873 2679.9739,-181.5287 2679.4727,-182.4713 2678.8451,-183.4127 2678.0971,-184.3503 2677.2345,-185.2814 2676.2638,-186.2035 2675.1914,-187.114 2674.0237,-188.0106 2672.7673,-188.8907 2671.4286,-189.7519 2670.0142,-190.5918 2668.5303,-191.4082 2666.983,-192.1988 2665.3782,-192.9615 2663.7217,-193.6941 2662.0188,-194.3946 2660.2746,-195.0612 2658.4939,-195.692 2656.6812,-196.2853 2654.8405,-196.8394 2652.9756,-197.3528 2651.0901,-197.8241 2649.1868,-198.2521 2647.2688,-198.6355 2645.3384,-198.9734 2643.398,-199.2647 2641.4494,-199.5087 2639.4945,-199.7047 2637.5349,-199.8521 2635.572,-199.9507 2633.6072,-200 2631.6417,-200 2629.6769,-199.9507 2627.714,-199.8521 2625.7543,-199.7047 2623.7995,-199.5087 2621.8509,-199.2647 2619.9104,-198.9734 2617.9801,-198.6355 2616.062,-198.2521 2614.1588,-197.8241 2612.2732,-197.3528 2610.4084,-196.8394 2608.5677,-196.2853 2606.7549,-195.692 2604.9742,-195.0612 2603.2301,-194.3946 2601.5272,-193.6941 2599.8706,-192.9615 2598.2659,-192.1988 2596.7186,-191.4082 2595.2347,-190.5918 2593.8203,-189.7519 2592.4816,-188.8907 2591.2252,-188.0106 2590.0575,-187.114 2588.985,-186.2035 2588.0143,-185.2814 2587.1518,-184.3503 2586.4037,-183.4127 2585.7762,-182.4713 2585.275,-181.5287 2584.9057,-180.5873 2584.6733,-179.6497 2584.5825,-178.7186 2584.6375,-177.7965 2584.8418,-176.886 2585.1986,-175.9894 2585.7101,-175.1093 2586.378,-174.2481 2587.2033,-173.4082 2588.186,-172.5918 2589.3256,-171.8012 2590.6206,-171.0385 2592.0687,-170.3059 2593.6668,-169.6054 2595.411,-168.9388 2597.2965,-168.308 2599.3176,-167.7147 2601.4681,-167.1606 2603.7406,-166.6472 2606.1274,-166.1759 2608.6198,-165.7479 2611.2086,-165.3645 2613.8838,-165.0266 2616.6352,-164.7353 2619.4519,-164.4913 2622.3225,-164.2953 2625.2354,-164.1479 2628.1788,-164.0493 2631.1405,-164 2634.1084,-164 2637.0701,-164.0493"/>
<text text-anchor="middle" x="2632.6244" y="-179.5" font-family="Courier,monospace" font-weight="bold" font-size="10.00" fill="#000000">(3, &#39;A&#39;)</text>
</g>
<!-- (2, &#39;A&#39;)&#45;&gt;(3, &#39;A&#39;) -->
<g id="edge17" class="edge">
<title>(2, &#39;A&#39;)&#45;&gt;(3, &#39;A&#39;)</title>
<path fill="none" stroke="#000000" d="M1755.3621,-149.4051C1770.2632,-151.1293 1787.1457,-152.8789 1802.5835,-154 2092.3565,-175.0441 2440.2093,-180.3073 2575.1842,-181.5946"/>
<polygon fill="#000000" stroke="#000000" points="2575.2634,-185.0953 2585.2951,-181.6873 2575.3277,-178.0956 2575.2634,-185.0953"/>
<text text-anchor="middle" x="2196.0835" y="-178" font-family="Courier,monospace" font-weight="bold" font-size="10.00" fill="#000000">0.06637411895807382</text>
</g>
<!-- (3, &#39;B&#39;) -->
<g id="node16" class="node">
<title>(3, &#39;B&#39;)</title>
<polygon fill="none" stroke="#000000" points="3096.8405,-76.0493 3099.7839,-76.1479 3102.6968,-76.2953 3105.5674,-76.4913 3108.3841,-76.7353 3111.1355,-77.0266 3113.8108,-77.3645 3116.3995,-77.7479 3118.8919,-78.1759 3121.2787,-78.6472 3123.5513,-79.1606 3125.7017,-79.7147 3127.7229,-80.308 3129.6083,-80.9388 3131.3525,-81.6054 3132.9506,-82.3059 3134.3987,-83.0385 3135.6937,-83.8012 3136.8333,-84.5918 3137.816,-85.4082 3138.6413,-86.2481 3139.3092,-87.1093 3139.8207,-87.9894 3140.1775,-88.886 3140.3819,-89.7965 3140.4369,-90.7186 3140.3461,-91.6497 3140.1137,-92.5873 3139.7443,-93.5287 3139.2431,-94.4713 3138.6156,-95.4127 3137.8675,-96.3503 3137.005,-97.2814 3136.0343,-98.2035 3134.9618,-99.114 3133.7941,-100.0106 3132.5377,-100.8907 3131.1991,-101.7519 3129.7846,-102.5918 3128.3007,-103.4082 3126.7534,-104.1988 3125.1487,-104.9615 3123.4922,-105.6941 3121.7893,-106.3946 3120.0451,-107.0612 3118.2644,-107.692 3116.4516,-108.2853 3114.6109,-108.8394 3112.7461,-109.3528 3110.8605,-109.8241 3108.9573,-110.2521 3107.0392,-110.6355 3105.1089,-110.9734 3103.1684,-111.2647 3101.2199,-111.5087 3099.265,-111.7047 3097.3053,-111.8521 3095.3424,-111.9507 3093.3776,-112 3091.4121,-112 3089.4473,-111.9507 3087.4844,-111.8521 3085.5248,-111.7047 3083.5699,-111.5087 3081.6213,-111.2647 3079.6809,-110.9734 3077.7505,-110.6355 3075.8325,-110.2521 3073.9293,-109.8241 3072.0437,-109.3528 3070.1788,-108.8394 3068.3381,-108.2853 3066.5254,-107.692 3064.7447,-107.0612 3063.0005,-106.3946 3061.2976,-105.6941 3059.6411,-104.9615 3058.0363,-104.1988 3056.4891,-103.4082 3055.0051,-102.5918 3053.5907,-101.7519 3052.2521,-100.8907 3050.9956,-100.0106 3049.8279,-99.114 3048.7555,-98.2035 3047.7848,-97.2814 3046.9222,-96.3503 3046.1742,-95.4127 3045.5466,-94.4713 3045.0454,-93.5287 3044.6761,-92.5873 3044.4437,-91.6497 3044.3529,-90.7186 3044.4079,-89.7965 3044.6123,-88.886 3044.969,-87.9894 3045.4806,-87.1093 3046.1485,-86.2481 3046.9737,-85.4082 3047.9564,-84.5918 3049.096,-83.8012 3050.391,-83.0385 3051.8391,-82.3059 3053.4373,-81.6054 3055.1814,-80.9388 3057.0669,-80.308 3059.0881,-79.7147 3061.2385,-79.1606 3063.5111,-78.6472 3065.8978,-78.1759 3068.3902,-77.7479 3070.979,-77.3645 3073.6543,-77.0266 3076.4057,-76.7353 3079.2223,-76.4913 3082.0929,-76.2953 3085.0059,-76.1479 3087.9492,-76.0493 3090.911,-76 3093.8788,-76 3096.8405,-76.0493"/>
<text text-anchor="middle" x="3092.3949" y="-91.5" font-family="Courier,monospace" font-weight="bold" font-size="10.00" fill="#000000">(3, &#39;B&#39;)</text>
</g>
<!-- (2, &#39;A&#39;)&#45;&gt;(3, &#39;B&#39;) -->
<g id="edge18" class="edge">
<title>(2, &#39;A&#39;)&#45;&gt;(3, &#39;B&#39;)</title>
<path fill="none" stroke="#000000" d="M1760.8176,-143.0368C1823.6816,-141.8532 1937.6654,-140 2035.0835,-140 2035.0835,-140 2035.0835,-140 2793.6244,-140 2883.7299,-140 2987.3596,-119.3093 3045.8438,-105.6812"/>
<polygon fill="#000000" stroke="#000000" points="3046.9509,-109.016 3055.8772,-103.3088 3045.3402,-102.2038 3046.9509,-109.016"/>
<text text-anchor="middle" x="2357.0835" y="-143" font-family="Courier,monospace" font-weight="bold" font-size="10.00" fill="#000000">0.14018970673524997</text>
</g>
<!-- (2, &#39;C&#39;) -->
<g id="node13" class="node">
<title>(2, &#39;C&#39;)</title>
<polygon fill="none" stroke="#000000" points="2499.2996,-38.0493 2502.243,-38.1479 2505.156,-38.2953 2508.0266,-38.4913 2510.8432,-38.7353 2513.5946,-39.0266 2516.2699,-39.3645 2518.8586,-39.7479 2521.351,-40.1759 2523.7378,-40.6472 2526.0104,-41.1606 2528.1608,-41.7147 2530.182,-42.308 2532.0674,-42.9388 2533.8116,-43.6054 2535.4097,-44.3059 2536.8579,-45.0385 2538.1528,-45.8012 2539.2924,-46.5918 2540.2752,-47.4082 2541.1004,-48.2481 2541.7683,-49.1093 2542.2798,-49.9894 2542.6366,-50.886 2542.841,-51.7965 2542.896,-52.7186 2542.8052,-53.6497 2542.5728,-54.5873 2542.2034,-55.5287 2541.7022,-56.4713 2541.0747,-57.4127 2540.3266,-58.3503 2539.4641,-59.2814 2538.4934,-60.2035 2537.4209,-61.114 2536.2532,-62.0106 2534.9968,-62.8907 2533.6582,-63.7519 2532.2437,-64.5918 2530.7598,-65.4082 2529.2125,-66.1988 2527.6078,-66.9615 2525.9513,-67.6941 2524.2484,-68.3946 2522.5042,-69.0612 2520.7235,-69.692 2518.9107,-70.2853 2517.0701,-70.8394 2515.2052,-71.3528 2513.3196,-71.8241 2511.4164,-72.2521 2509.4984,-72.6355 2507.568,-72.9734 2505.6275,-73.2647 2503.679,-73.5087 2501.7241,-73.7047 2499.7645,-73.8521 2497.8016,-73.9507 2495.8367,-74 2493.8713,-74 2491.9064,-73.9507 2489.9435,-73.8521 2487.9839,-73.7047 2486.029,-73.5087 2484.0804,-73.2647 2482.14,-72.9734 2480.2096,-72.6355 2478.2916,-72.2521 2476.3884,-71.8241 2474.5028,-71.3528 2472.6379,-70.8394 2470.7972,-70.2853 2468.9845,-69.692 2467.2038,-69.0612 2465.4596,-68.3946 2463.7567,-67.6941 2462.1002,-66.9615 2460.4955,-66.1988 2458.9482,-65.4082 2457.4642,-64.5918 2456.0498,-63.7519 2454.7112,-62.8907 2453.4548,-62.0106 2452.287,-61.114 2451.2146,-60.2035 2450.2439,-59.2814 2449.3814,-58.3503 2448.6333,-57.4127 2448.0057,-56.4713 2447.5046,-55.5287 2447.1352,-54.5873 2446.9028,-53.6497 2446.812,-52.7186 2446.867,-51.7965 2447.0714,-50.886 2447.4281,-49.9894 2447.9397,-49.1093 2448.6076,-48.2481 2449.4328,-47.4082 2450.4156,-46.5918 2451.5551,-45.8012 2452.8501,-45.0385 2454.2982,-44.3059 2455.8964,-43.6054 2457.6406,-42.9388 2459.526,-42.308 2461.5472,-41.7147 2463.6976,-41.1606 2465.9702,-40.6472 2468.357,-40.1759 2470.8494,-39.7479 2473.4381,-39.3645 2476.1134,-39.0266 2478.8648,-38.7353 2481.6814,-38.4913 2484.552,-38.2953 2487.465,-38.1479 2490.4084,-38.0493 2493.3701,-38 2496.3379,-38 2499.2996,-38.0493"/>
<text text-anchor="middle" x="2494.854" y="-53.5" font-family="Courier,monospace" font-weight="bold" font-size="10.00" fill="#000000">(2, &#39;C&#39;)</text>
</g>
<!-- (2, &#39;B&#39;)&#45;&gt;(2, &#39;C&#39;) -->
<g id="edge19" class="edge">
<title>(2, &#39;B&#39;)&#45;&gt;(2, &#39;C&#39;)</title>
<path fill="none" stroke="#000000" d="M2243.4246,-56C2296.0907,-56 2381.1707,-56 2437.5545,-56"/>
<polygon fill="#000000" stroke="#000000" points="2437.7345,-59.5001 2447.7344,-56 2437.7344,-52.5001 2437.7345,-59.5001"/>
<text text-anchor="middle" x="2357.0835" y="-59" font-family="Courier,monospace" font-weight="bold" font-size="10.00" fill="#000000">0.6989602079584083</text>
</g>
<!-- (2, &#39;B&#39;)&#45;&gt;(3, &#39;A&#39;) -->
<g id="edge20" class="edge">
<title>(2, &#39;B&#39;)&#45;&gt;(3, &#39;A&#39;)</title>
<path fill="none" stroke="#000000" d="M2236.4085,-63.1152C2283.1097,-71.7529 2362.1398,-87.5993 2428.5835,-107 2484.9298,-123.4524 2548.1239,-147.5969 2589.0471,-164.0142"/>
<polygon fill="#000000" stroke="#000000" points="2587.8618,-167.31 2598.445,-167.8057 2590.4808,-160.8184 2587.8618,-167.31"/>
<text text-anchor="middle" x="2357.0835" y="-110" font-family="Courier,monospace" font-weight="bold" font-size="10.00" fill="#000000">0.05299720821605947</text>
</g>
<!-- (2, &#39;D&#39;) -->
<g id="node14" class="node">
<title>(2, &#39;D&#39;)</title>
<polygon fill="none" stroke="#000000" points="2798.0701,-76.0493 2801.0135,-76.1479 2803.9264,-76.2953 2806.797,-76.4913 2809.6136,-76.7353 2812.365,-77.0266 2815.0403,-77.3645 2817.6291,-77.7479 2820.1215,-78.1759 2822.5083,-78.6472 2824.7808,-79.1606 2826.9313,-79.7147 2828.9524,-80.308 2830.8379,-80.9388 2832.5821,-81.6054 2834.1802,-82.3059 2835.6283,-83.0385 2836.9233,-83.8012 2838.0629,-84.5918 2839.0456,-85.4082 2839.8709,-86.2481 2840.5388,-87.1093 2841.0503,-87.9894 2841.407,-88.886 2841.6114,-89.7965 2841.6664,-90.7186 2841.5756,-91.6497 2841.3432,-92.5873 2840.9739,-93.5287 2840.4727,-94.4713 2839.8451,-95.4127 2839.0971,-96.3503 2838.2345,-97.2814 2837.2638,-98.2035 2836.1914,-99.114 2835.0237,-100.0106 2833.7673,-100.8907 2832.4286,-101.7519 2831.0142,-102.5918 2829.5303,-103.4082 2827.983,-104.1988 2826.3782,-104.9615 2824.7217,-105.6941 2823.0188,-106.3946 2821.2746,-107.0612 2819.4939,-107.692 2817.6812,-108.2853 2815.8405,-108.8394 2813.9756,-109.3528 2812.0901,-109.8241 2810.1868,-110.2521 2808.2688,-110.6355 2806.3384,-110.9734 2804.398,-111.2647 2802.4494,-111.5087 2800.4945,-111.7047 2798.5349,-111.8521 2796.572,-111.9507 2794.6072,-112 2792.6417,-112 2790.6769,-111.9507 2788.714,-111.8521 2786.7543,-111.7047 2784.7995,-111.5087 2782.8509,-111.2647 2780.9104,-110.9734 2778.9801,-110.6355 2777.062,-110.2521 2775.1588,-109.8241 2773.2732,-109.3528 2771.4084,-108.8394 2769.5677,-108.2853 2767.7549,-107.692 2765.9742,-107.0612 2764.2301,-106.3946 2762.5272,-105.6941 2760.8706,-104.9615 2759.2659,-104.1988 2757.7186,-103.4082 2756.2347,-102.5918 2754.8203,-101.7519 2753.4816,-100.8907 2752.2252,-100.0106 2751.0575,-99.114 2749.985,-98.2035 2749.0143,-97.2814 2748.1518,-96.3503 2747.4037,-95.4127 2746.7762,-94.4713 2746.275,-93.5287 2745.9057,-92.5873 2745.6733,-91.6497 2745.5825,-90.7186 2745.6375,-89.7965 2745.8418,-88.886 2746.1986,-87.9894 2746.7101,-87.1093 2747.378,-86.2481 2748.2033,-85.4082 2749.186,-84.5918 2750.3256,-83.8012 2751.6206,-83.0385 2753.0687,-82.3059 2754.6668,-81.6054 2756.411,-80.9388 2758.2965,-80.308 2760.3176,-79.7147 2762.4681,-79.1606 2764.7406,-78.6472 2767.1274,-78.1759 2769.6198,-77.7479 2772.2086,-77.3645 2774.8838,-77.0266 2777.6352,-76.7353 2780.4519,-76.4913 2783.3225,-76.2953 2786.2354,-76.1479 2789.1788,-76.0493 2792.1405,-76 2795.1084,-76 2798.0701,-76.0493"/>
<text text-anchor="middle" x="2793.6244" y="-91.5" font-family="Courier,monospace" font-weight="bold" font-size="10.00" fill="#000000">(2, &#39;D&#39;)</text>
</g>
<!-- (2, &#39;C&#39;)&#45;&gt;(2, &#39;D&#39;) -->
<g id="edge21" class="edge">
<title>(2, &#39;C&#39;)&#45;&gt;(2, &#39;D&#39;)</title>
<path fill="none" stroke="#000000" d="M2537.3432,-61.4041C2589.396,-68.0246 2677.8116,-79.27 2735.967,-86.6667"/>
<polygon fill="#000000" stroke="#000000" points="2735.7388,-90.1658 2746.1006,-87.9555 2736.6221,-83.2217 2735.7388,-90.1658"/>
<text text-anchor="middle" x="2632.6244" y="-84" font-family="Courier,monospace" font-weight="bold" font-size="10.00" fill="#000000">0.10007998400319937</text>
</g>
<!-- (2, &#39;C&#39;)&#45;&gt;(3, &#39;B&#39;) -->
<g id="edge22" class="edge">
<title>(2, &#39;C&#39;)&#45;&gt;(3, &#39;B&#39;)</title>
<path fill="none" stroke="#000000" d="M2542.8896,-53.4686C2613.6014,-50.3156 2749.8117,-46.4262 2865.1244,-56 2924.7976,-60.9543 2992.3848,-73.1058 3038.2319,-82.3446"/>
<polygon fill="#000000" stroke="#000000" points="3037.7507,-85.8184 3048.2483,-84.3865 3039.1489,-78.9595 3037.7507,-85.8184"/>
<text text-anchor="middle" x="2793.6244" y="-59" font-family="Courier,monospace" font-weight="bold" font-size="10.00" fill="#000000">0.20251124222821137</text>
</g>
<!-- (2, &#39;D&#39;)&#45;&gt;(3, &#39;B&#39;) -->
<g id="edge23" class="edge">
<title>(2, &#39;D&#39;)&#45;&gt;(3, &#39;B&#39;)</title>
<path fill="none" stroke="#000000" d="M2840.9655,-94C2893.6316,-94 2978.7116,-94 3035.0954,-94"/>
<polygon fill="#000000" stroke="#000000" points="3035.2753,-97.5001 3045.2753,-94 3035.2753,-90.5001 3035.2753,-97.5001"/>
<text text-anchor="middle" x="2954.6244" y="-97" font-family="Courier,monospace" font-weight="bold" font-size="10.00" fill="#000000">0.22503249025292413</text>
</g>
<!-- (4, &#39;A&#39;) -->
<g id="node19" class="node">
<title>(4, &#39;A&#39;)</title>
<polygon fill="none" stroke="#000000" points="3372.3814,-64.0493 3375.3248,-64.1479 3378.2377,-64.2953 3381.1083,-64.4913 3383.925,-64.7353 3386.6764,-65.0266 3389.3517,-65.3645 3391.9404,-65.7479 3394.4328,-66.1759 3396.8196,-66.6472 3399.0921,-67.1606 3401.2426,-67.7147 3403.2637,-68.308 3405.1492,-68.9388 3406.8934,-69.6054 3408.4915,-70.3059 3409.9396,-71.0385 3411.2346,-71.8012 3412.3742,-72.5918 3413.3569,-73.4082 3414.1822,-74.2481 3414.8501,-75.1093 3415.3616,-75.9894 3415.7184,-76.886 3415.9228,-77.7965 3415.9777,-78.7186 3415.887,-79.6497 3415.6546,-80.5873 3415.2852,-81.5287 3414.784,-82.4713 3414.1565,-83.4127 3413.4084,-84.3503 3412.5459,-85.2814 3411.5752,-86.2035 3410.5027,-87.114 3409.335,-88.0106 3408.0786,-88.8907 3406.7399,-89.7519 3405.3255,-90.5918 3403.8416,-91.4082 3402.2943,-92.1988 3400.6896,-92.9615 3399.0331,-93.6941 3397.3301,-94.3946 3395.586,-95.0612 3393.8053,-95.692 3391.9925,-96.2853 3390.1518,-96.8394 3388.287,-97.3528 3386.4014,-97.8241 3384.4982,-98.2521 3382.5801,-98.6355 3380.6498,-98.9734 3378.7093,-99.2647 3376.7608,-99.5087 3374.8059,-99.7047 3372.8462,-99.8521 3370.8833,-99.9507 3368.9185,-100 3366.953,-100 3364.9882,-99.9507 3363.0253,-99.8521 3361.0657,-99.7047 3359.1108,-99.5087 3357.1622,-99.2647 3355.2218,-98.9734 3353.2914,-98.6355 3351.3734,-98.2521 3349.4702,-97.8241 3347.5846,-97.3528 3345.7197,-96.8394 3343.879,-96.2853 3342.0663,-95.692 3340.2856,-95.0612 3338.5414,-94.3946 3336.8385,-93.6941 3335.182,-92.9615 3333.5772,-92.1988 3332.0299,-91.4082 3330.546,-90.5918 3329.1316,-89.7519 3327.793,-88.8907 3326.5365,-88.0106 3325.3688,-87.114 3324.2964,-86.2035 3323.3257,-85.2814 3322.4631,-84.3503 3321.7151,-83.4127 3321.0875,-82.4713 3320.5863,-81.5287 3320.217,-80.5873 3319.9846,-79.6497 3319.8938,-78.7186 3319.9488,-77.7965 3320.1532,-76.886 3320.5099,-75.9894 3321.0214,-75.1093 3321.6894,-74.2481 3322.5146,-73.4082 3323.4973,-72.5918 3324.6369,-71.8012 3325.9319,-71.0385 3327.38,-70.3059 3328.9781,-69.6054 3330.7223,-68.9388 3332.6078,-68.308 3334.629,-67.7147 3336.7794,-67.1606 3339.052,-66.6472 3341.4387,-66.1759 3343.9311,-65.7479 3346.5199,-65.3645 3349.1952,-65.0266 3351.9466,-64.7353 3354.7632,-64.4913 3357.6338,-64.2953 3360.5468,-64.1479 3363.4901,-64.0493 3366.4518,-64 3369.4197,-64 3372.3814,-64.0493"/>
<text text-anchor="middle" x="3367.9358" y="-79.5" font-family="Courier,monospace" font-weight="bold" font-size="10.00" fill="#000000">(4, &#39;A&#39;)</text>
</g>
<!-- (3, &#39;A&#39;)&#45;&gt;(4, &#39;A&#39;) -->
<g id="edge24" class="edge">
<title>(3, &#39;A&#39;)&#45;&gt;(4, &#39;A&#39;)</title>
<path fill="none" stroke="#000000" d="M2678.2048,-184.7133C2811.5047,-191.8067 3197.7574,-206.117 3301.6653,-141 3315.4924,-132.3349 3308.1131,-120.5246 3319.6653,-109 3322.888,-105.7851 3326.5723,-102.835 3330.4369,-100.1618"/>
<polygon fill="#000000" stroke="#000000" points="3332.4546,-103.0281 3339.0758,-94.757 3328.7418,-97.0938 3332.4546,-103.0281"/>
<text text-anchor="middle" x="2954.6244" y="-194" font-family="Courier,monospace" font-weight="bold" font-size="10.00" fill="#000000">0.22467695804036233</text>
</g>
<!-- (4, &#39;B&#39;) -->
<g id="node20" class="node">
<title>(4, &#39;B&#39;)</title>
<polygon fill="none" stroke="#000000" points="3955.9223,-152.0493 3958.8657,-152.1479 3961.7786,-152.2953 3964.6492,-152.4913 3967.4659,-152.7353 3970.2173,-153.0266 3972.8925,-153.3645 3975.4813,-153.7479 3977.9737,-154.1759 3980.3605,-154.6472 3982.633,-155.1606 3984.7835,-155.7147 3986.8046,-156.308 3988.6901,-156.9388 3990.4343,-157.6054 3992.0324,-158.3059 3993.4805,-159.0385 3994.7755,-159.8012 3995.9151,-160.5918 3996.8978,-161.4082 3997.7231,-162.2481 3998.391,-163.1093 3998.9025,-163.9894 3999.2593,-164.886 3999.4636,-165.7965 3999.5186,-166.7186 3999.4278,-167.6497 3999.1954,-168.5873 3998.8261,-169.5287 3998.3249,-170.4713 3997.6974,-171.4127 3996.9493,-172.3503 3996.0868,-173.2814 3995.1161,-174.2035 3994.0436,-175.114 3992.8759,-176.0106 3991.6195,-176.8907 3990.2808,-177.7519 3988.8664,-178.5918 3987.3825,-179.4082 3985.8352,-180.1988 3984.2305,-180.9615 3982.5739,-181.6941 3980.871,-182.3946 3979.1269,-183.0612 3977.3462,-183.692 3975.5334,-184.2853 3973.6927,-184.8394 3971.8279,-185.3528 3969.9423,-185.8241 3968.0391,-186.2521 3966.121,-186.6355 3964.1907,-186.9734 3962.2502,-187.2647 3960.3016,-187.5087 3958.3467,-187.7047 3956.3871,-187.8521 3954.4242,-187.9507 3952.4594,-188 3950.4939,-188 3948.5291,-187.9507 3946.5662,-187.8521 3944.6066,-187.7047 3942.6517,-187.5087 3940.7031,-187.2647 3938.7627,-186.9734 3936.8323,-186.6355 3934.9143,-186.2521 3933.011,-185.8241 3931.1254,-185.3528 3929.2606,-184.8394 3927.4199,-184.2853 3925.6072,-183.692 3923.8265,-183.0612 3922.0823,-182.3946 3920.3794,-181.6941 3918.7229,-180.9615 3917.1181,-180.1988 3915.5708,-179.4082 3914.0869,-178.5918 3912.6725,-177.7519 3911.3338,-176.8907 3910.0774,-176.0106 3908.9097,-175.114 3907.8373,-174.2035 3906.8665,-173.2814 3906.004,-172.3503 3905.2559,-171.4127 3904.6284,-170.4713 3904.1272,-169.5287 3903.7579,-168.5873 3903.5255,-167.6497 3903.4347,-166.7186 3903.4897,-165.7965 3903.694,-164.886 3904.0508,-163.9894 3904.5623,-163.1093 3905.2302,-162.2481 3906.0555,-161.4082 3907.0382,-160.5918 3908.1778,-159.8012 3909.4728,-159.0385 3910.9209,-158.3059 3912.519,-157.6054 3914.2632,-156.9388 3916.1487,-156.308 3918.1698,-155.7147 3920.3203,-155.1606 3922.5928,-154.6472 3924.9796,-154.1759 3927.472,-153.7479 3930.0608,-153.3645 3932.736,-153.0266 3935.4874,-152.7353 3938.3041,-152.4913 3941.1747,-152.2953 3944.0876,-152.1479 3947.031,-152.0493 3949.9927,-152 3952.9606,-152 3955.9223,-152.0493"/>
<text text-anchor="middle" x="3951.4767" y="-167.5" font-family="Courier,monospace" font-weight="bold" font-size="10.00" fill="#000000">(4, &#39;B&#39;)</text>
</g>
<!-- (3, &#39;A&#39;)&#45;&gt;(4, &#39;B&#39;) -->
<g id="edge25" class="edge">
<title>(3, &#39;A&#39;)&#45;&gt;(4, &#39;B&#39;)</title>
<path fill="none" stroke="#000000" d="M2668.976,-191.3957C2685.1472,-195.245 2704.4832,-199.3984 2722.1244,-202 2824.625,-217.1163 2851.0152,-219 2954.6244,-219 2954.6244,-219 2954.6244,-219 3663.2062,-219 3750.1846,-219 3849.864,-197.0511 3906.2825,-182.5332"/>
<polygon fill="#000000" stroke="#000000" points="3907.5103,-185.83 3916.3008,-179.9159 3905.7409,-179.0573 3907.5103,-185.83"/>
<text text-anchor="middle" x="3230.1653" y="-222" font-family="Courier,monospace" font-weight="bold" font-size="10.00" fill="#000000">0.3562973399521835</text>
</g>
<!-- (3, &#39;C&#39;) -->
<g id="node17" class="node">
<title>(3, &#39;C&#39;)</title>
<polygon fill="none" stroke="#000000" points="3372.3814,-118.0493 3375.3248,-118.1479 3378.2377,-118.2953 3381.1083,-118.4913 3383.925,-118.7353 3386.6764,-119.0266 3389.3517,-119.3645 3391.9404,-119.7479 3394.4328,-120.1759 3396.8196,-120.6472 3399.0921,-121.1606 3401.2426,-121.7147 3403.2637,-122.308 3405.1492,-122.9388 3406.8934,-123.6054 3408.4915,-124.3059 3409.9396,-125.0385 3411.2346,-125.8012 3412.3742,-126.5918 3413.3569,-127.4082 3414.1822,-128.2481 3414.8501,-129.1093 3415.3616,-129.9894 3415.7184,-130.886 3415.9228,-131.7965 3415.9777,-132.7186 3415.887,-133.6497 3415.6546,-134.5873 3415.2852,-135.5287 3414.784,-136.4713 3414.1565,-137.4127 3413.4084,-138.3503 3412.5459,-139.2814 3411.5752,-140.2035 3410.5027,-141.114 3409.335,-142.0106 3408.0786,-142.8907 3406.7399,-143.7519 3405.3255,-144.5918 3403.8416,-145.4082 3402.2943,-146.1988 3400.6896,-146.9615 3399.0331,-147.6941 3397.3301,-148.3946 3395.586,-149.0612 3393.8053,-149.692 3391.9925,-150.2853 3390.1518,-150.8394 3388.287,-151.3528 3386.4014,-151.8241 3384.4982,-152.2521 3382.5801,-152.6355 3380.6498,-152.9734 3378.7093,-153.2647 3376.7608,-153.5087 3374.8059,-153.7047 3372.8462,-153.8521 3370.8833,-153.9507 3368.9185,-154 3366.953,-154 3364.9882,-153.9507 3363.0253,-153.8521 3361.0657,-153.7047 3359.1108,-153.5087 3357.1622,-153.2647 3355.2218,-152.9734 3353.2914,-152.6355 3351.3734,-152.2521 3349.4702,-151.8241 3347.5846,-151.3528 3345.7197,-150.8394 3343.879,-150.2853 3342.0663,-149.692 3340.2856,-149.0612 3338.5414,-148.3946 3336.8385,-147.6941 3335.182,-146.9615 3333.5772,-146.1988 3332.0299,-145.4082 3330.546,-144.5918 3329.1316,-143.7519 3327.793,-142.8907 3326.5365,-142.0106 3325.3688,-141.114 3324.2964,-140.2035 3323.3257,-139.2814 3322.4631,-138.3503 3321.7151,-137.4127 3321.0875,-136.4713 3320.5863,-135.5287 3320.217,-134.5873 3319.9846,-133.6497 3319.8938,-132.7186 3319.9488,-131.7965 3320.1532,-130.886 3320.5099,-129.9894 3321.0214,-129.1093 3321.6894,-128.2481 3322.5146,-127.4082 3323.4973,-126.5918 3324.6369,-125.8012 3325.9319,-125.0385 3327.38,-124.3059 3328.9781,-123.6054 3330.7223,-122.9388 3332.6078,-122.308 3334.629,-121.7147 3336.7794,-121.1606 3339.052,-120.6472 3341.4387,-120.1759 3343.9311,-119.7479 3346.5199,-119.3645 3349.1952,-119.0266 3351.9466,-118.7353 3354.7632,-118.4913 3357.6338,-118.2953 3360.5468,-118.1479 3363.4901,-118.0493 3366.4518,-118 3369.4197,-118 3372.3814,-118.0493"/>
<text text-anchor="middle" x="3367.9358" y="-133.5" font-family="Courier,monospace" font-weight="bold" font-size="10.00" fill="#000000">(3, &#39;C&#39;)</text>
</g>
<!-- (3, &#39;B&#39;)&#45;&gt;(3, &#39;C&#39;) -->
<g id="edge26" class="edge">
<title>(3, &#39;B&#39;)&#45;&gt;(3, &#39;C&#39;)</title>
<path fill="none" stroke="#000000" d="M3131.9525,-101.4085C3140.7369,-102.9851 3150.0091,-104.5963 3158.6653,-106 3209.8747,-114.3041 3268.3314,-122.5837 3310.4213,-128.3345"/>
<polygon fill="#000000" stroke="#000000" points="3310.1049,-131.8236 3320.4855,-129.704 3311.0488,-124.8875 3310.1049,-131.8236"/>
<text text-anchor="middle" x="3230.1653" y="-129" font-family="Courier,monospace" font-weight="bold" font-size="10.00" fill="#000000">0.6989602079584083</text>
</g>
<!-- (3, &#39;B&#39;)&#45;&gt;(4, &#39;A&#39;) -->
<g id="edge27" class="edge">
<title>(3, &#39;B&#39;)&#45;&gt;(4, &#39;A&#39;)</title>
<path fill="none" stroke="#000000" d="M3140.3904,-91.9098C3188.1372,-89.8304 3261.3647,-86.6412 3311.7846,-84.4454"/>
<polygon fill="#000000" stroke="#000000" points="3312.0267,-87.9383 3321.8649,-84.0064 3311.7221,-80.9449 3312.0267,-87.9383"/>
<text text-anchor="middle" x="3230.1653" y="-94" font-family="Courier,monospace" font-weight="bold" font-size="10.00" fill="#000000">0.17939600123562208</text>
</g>
<!-- (3, &#39;D&#39;) -->
<g id="node18" class="node">
<title>(3, &#39;D&#39;)</title>
<polygon fill="none" stroke="#000000" points="3667.6518,-155.0493 3670.5952,-155.1479 3673.5082,-155.2953 3676.3788,-155.4913 3679.1954,-155.7353 3681.9468,-156.0266 3684.6221,-156.3645 3687.2109,-156.7479 3689.7033,-157.1759 3692.09,-157.6472 3694.3626,-158.1606 3696.513,-158.7147 3698.5342,-159.308 3700.4197,-159.9388 3702.1638,-160.6054 3703.762,-161.3059 3705.2101,-162.0385 3706.5051,-162.8012 3707.6446,-163.5918 3708.6274,-164.4082 3709.4526,-165.2481 3710.1205,-166.1093 3710.6321,-166.9894 3710.9888,-167.886 3711.1932,-168.7965 3711.2482,-169.7186 3711.1574,-170.6497 3710.925,-171.5873 3710.5556,-172.5287 3710.0545,-173.4713 3709.4269,-174.4127 3708.6789,-175.3503 3707.8163,-176.2814 3706.8456,-177.2035 3705.7732,-178.114 3704.6055,-179.0106 3703.349,-179.8907 3702.0104,-180.7519 3700.596,-181.5918 3699.112,-182.4082 3697.5648,-183.1988 3695.96,-183.9615 3694.3035,-184.6941 3692.6006,-185.3946 3690.8564,-186.0612 3689.0757,-186.692 3687.263,-187.2853 3685.4223,-187.8394 3683.5574,-188.3528 3681.6718,-188.8241 3679.7686,-189.2521 3677.8506,-189.6355 3675.9202,-189.9734 3673.9798,-190.2647 3672.0312,-190.5087 3670.0763,-190.7047 3668.1167,-190.8521 3666.1538,-190.9507 3664.1889,-191 3662.2235,-191 3660.2587,-190.9507 3658.2957,-190.8521 3656.3361,-190.7047 3654.3812,-190.5087 3652.4327,-190.2647 3650.4922,-189.9734 3648.5618,-189.6355 3646.6438,-189.2521 3644.7406,-188.8241 3642.855,-188.3528 3640.9901,-187.8394 3639.1495,-187.2853 3637.3367,-186.692 3635.556,-186.0612 3633.8118,-185.3946 3632.1089,-184.6941 3630.4524,-183.9615 3628.8477,-183.1988 3627.3004,-182.4082 3625.8165,-181.5918 3624.402,-180.7519 3623.0634,-179.8907 3621.807,-179.0106 3620.6393,-178.114 3619.5668,-177.2035 3618.5961,-176.2814 3617.7336,-175.3503 3616.9855,-174.4127 3616.358,-173.4713 3615.8568,-172.5287 3615.4874,-171.5873 3615.255,-170.6497 3615.1642,-169.7186 3615.2192,-168.7965 3615.4236,-167.886 3615.7804,-166.9894 3616.2919,-166.1093 3616.9598,-165.2481 3617.785,-164.4082 3618.7678,-163.5918 3619.9074,-162.8012 3621.2023,-162.0385 3622.6505,-161.3059 3624.2486,-160.6054 3625.9928,-159.9388 3627.8782,-159.308 3629.8994,-158.7147 3632.0498,-158.1606 3634.3224,-157.6472 3636.7092,-157.1759 3639.2016,-156.7479 3641.7903,-156.3645 3644.4656,-156.0266 3647.217,-155.7353 3650.0336,-155.4913 3652.9043,-155.2953 3655.8172,-155.1479 3658.7606,-155.0493 3661.7223,-155 3664.6901,-155 3667.6518,-155.0493"/>
<text text-anchor="middle" x="3663.2062" y="-170.5" font-family="Courier,monospace" font-weight="bold" font-size="10.00" fill="#000000">(3, &#39;D&#39;)</text>
</g>
<!-- (3, &#39;C&#39;)&#45;&gt;(3, &#39;D&#39;) -->
<g id="edge28" class="edge">
<title>(3, &#39;C&#39;)&#45;&gt;(3, &#39;D&#39;)</title>
<path fill="none" stroke="#000000" d="M3410.5553,-141.3406C3461.9304,-147.7784 3548.4825,-158.6241 3605.7285,-165.7975"/>
<polygon fill="#000000" stroke="#000000" points="3605.3513,-169.2776 3615.7089,-167.0482 3606.2217,-162.3319 3605.3513,-169.2776"/>
<text text-anchor="middle" x="3505.7062" y="-165" font-family="Courier,monospace" font-weight="bold" font-size="10.00" fill="#000000">0.10007998400319937</text>
</g>
<!-- (3, &#39;C&#39;)&#45;&gt;(4, &#39;B&#39;) -->
<g id="edge29" class="edge">
<title>(3, &#39;C&#39;)&#45;&gt;(4, &#39;B&#39;)</title>
<path fill="none" stroke="#000000" d="M3415.9238,-133.385C3485.5291,-130.155 3618.5075,-126.1021 3731.2062,-135 3787.9674,-139.4814 3852.1961,-150.3623 3896.5862,-158.8123"/>
<polygon fill="#000000" stroke="#000000" points="3896.1039,-162.2837 3906.5855,-160.7386 3897.4281,-155.4101 3896.1039,-162.2837"/>
<text text-anchor="middle" x="3663.2062" y="-138" font-family="Courier,monospace" font-weight="bold" font-size="10.00" fill="#000000">0.5146898342015093</text>
</g>
<!-- (3, &#39;D&#39;)&#45;&gt;(4, &#39;B&#39;) -->
<g id="edge30" class="edge">
<title>(3, &#39;D&#39;)&#45;&gt;(4, &#39;B&#39;)</title>
<path fill="none" stroke="#000000" d="M3710.8082,-172.5046C3761.1364,-171.9809 3840.5255,-171.1547 3894.2334,-170.5957"/>
<polygon fill="#000000" stroke="#000000" points="3894.3201,-174.0951 3904.2831,-170.4911 3894.2471,-167.0955 3894.3201,-174.0951"/>
<text text-anchor="middle" x="3817.2062" y="-175" font-family="Courier,monospace" font-weight="bold" font-size="10.00" fill="#000000">0.5719284214735579</text>
</g>
<!-- (4, &#39;A&#39;)&#45;&gt;(&#45;1, &#39;SINK&#39;) -->
<g id="edge31" class="edge">
<title>(4, &#39;A&#39;)&#45;&gt;(&#45;1, &#39;SINK&#39;)</title>
<path fill="none" stroke="#000000" d="M3415.4952,-81.4797C3473.8479,-80.8872 3575.8021,-80 3663.2062,-80 3663.2062,-80 3663.2062,-80 4495.5584,-80 4545.9032,-80 4599.5657,-104.0898 4633.8479,-122.9387"/>
<polygon fill="#000000" stroke="#000000" points="4632.5549,-126.2277 4642.9845,-128.0917 4635.9937,-120.1306 4632.5549,-126.2277"/>
<text text-anchor="middle" x="4085.7471" y="-83" font-family="Courier,monospace" font-weight="bold" font-size="10.00" fill="#000000">1.0</text>
</g>
<!-- (4, &#39;B&#39;)&#45;&gt;(&#45;1, &#39;SINK&#39;) -->
<g id="edge32" class="edge">
<title>(4, &#39;B&#39;)&#45;&gt;(&#45;1, &#39;SINK&#39;)</title>
<path fill="none" stroke="#000000" d="M3998.1612,-162.5997C4042.6438,-155.9471 4111.5635,-146.6748 4171.7471,-143 4320.3635,-133.9255 4494.3826,-137.9605 4592.4276,-141.5769"/>
<polygon fill="#000000" stroke="#000000" points="4592.422,-145.0791 4602.5469,-141.9586 4592.686,-138.084 4592.422,-145.0791"/>
<text text-anchor="middle" x="4357.788" y="-141" font-family="Courier,monospace" font-weight="bold" font-size="10.00" fill="#000000">1.0</text>
</g>
<!-- (4, &#39;C&#39;) -->
<g id="node21" class="node">
<title>(4, &#39;C&#39;)</title>
<polygon fill="none" stroke="#000000" points="4224.4632,-152.0493 4227.4066,-152.1479 4230.3195,-152.2953 4233.1901,-152.4913 4236.0068,-152.7353 4238.7582,-153.0266 4241.4334,-153.3645 4244.0222,-153.7479 4246.5146,-154.1759 4248.9014,-154.6472 4251.1739,-155.1606 4253.3244,-155.7147 4255.3455,-156.308 4257.231,-156.9388 4258.9752,-157.6054 4260.5733,-158.3059 4262.0214,-159.0385 4263.3164,-159.8012 4264.456,-160.5918 4265.4387,-161.4082 4266.264,-162.2481 4266.9319,-163.1093 4267.4434,-163.9894 4267.8002,-164.886 4268.0045,-165.7965 4268.0595,-166.7186 4267.9687,-167.6497 4267.7363,-168.5873 4267.367,-169.5287 4266.8658,-170.4713 4266.2383,-171.4127 4265.4902,-172.3503 4264.6277,-173.2814 4263.6569,-174.2035 4262.5845,-175.114 4261.4168,-176.0106 4260.1604,-176.8907 4258.8217,-177.7519 4257.4073,-178.5918 4255.9234,-179.4082 4254.3761,-180.1988 4252.7713,-180.9615 4251.1148,-181.6941 4249.4119,-182.3946 4247.6677,-183.0612 4245.887,-183.692 4244.0743,-184.2853 4242.2336,-184.8394 4240.3688,-185.3528 4238.4832,-185.8241 4236.58,-186.2521 4234.6619,-186.6355 4232.7315,-186.9734 4230.7911,-187.2647 4228.8425,-187.5087 4226.8876,-187.7047 4224.928,-187.8521 4222.9651,-187.9507 4221.0003,-188 4219.0348,-188 4217.07,-187.9507 4215.1071,-187.8521 4213.1475,-187.7047 4211.1926,-187.5087 4209.244,-187.2647 4207.3035,-186.9734 4205.3732,-186.6355 4203.4551,-186.2521 4201.5519,-185.8241 4199.6663,-185.3528 4197.8015,-184.8394 4195.9608,-184.2853 4194.148,-183.692 4192.3674,-183.0612 4190.6232,-182.3946 4188.9203,-181.6941 4187.2637,-180.9615 4185.659,-180.1988 4184.1117,-179.4082 4182.6278,-178.5918 4181.2134,-177.7519 4179.8747,-176.8907 4178.6183,-176.0106 4177.4506,-175.114 4176.3781,-174.2035 4175.4074,-173.2814 4174.5449,-172.3503 4173.7968,-171.4127 4173.1693,-170.4713 4172.6681,-169.5287 4172.2988,-168.5873 4172.0664,-167.6497 4171.9756,-166.7186 4172.0306,-165.7965 4172.2349,-164.886 4172.5917,-163.9894 4173.1032,-163.1093 4173.7711,-162.2481 4174.5964,-161.4082 4175.5791,-160.5918 4176.7187,-159.8012 4178.0137,-159.0385 4179.4618,-158.3059 4181.0599,-157.6054 4182.8041,-156.9388 4184.6896,-156.308 4186.7107,-155.7147 4188.8612,-155.1606 4191.1337,-154.6472 4193.5205,-154.1759 4196.0129,-153.7479 4198.6017,-153.3645 4201.2769,-153.0266 4204.0283,-152.7353 4206.845,-152.4913 4209.7156,-152.2953 4212.6285,-152.1479 4215.5719,-152.0493 4218.5336,-152 4221.5015,-152 4224.4632,-152.0493"/>
<text text-anchor="middle" x="4220.0175" y="-167.5" font-family="Courier,monospace" font-weight="bold" font-size="10.00" fill="#000000">(4, &#39;C&#39;)</text>
</g>
<!-- (4, &#39;B&#39;)&#45;&gt;(4, &#39;C&#39;) -->
<g id="edge33" class="edge">
<title>(4, &#39;B&#39;)&#45;&gt;(4, &#39;C&#39;)</title>
<path fill="none" stroke="#000000" d="M3998.8682,-170C4044.5544,-170 4113.7576,-170 4162.5604,-170"/>
<polygon fill="#000000" stroke="#000000" points="4162.6489,-173.5001 4172.6489,-170 4162.6488,-166.5001 4162.6489,-173.5001"/>
<text text-anchor="middle" x="4085.7471" y="-173" font-family="Courier,monospace" font-weight="bold" font-size="10.00" fill="#000000">0.6989602079584083</text>
</g>
<!-- (4, &#39;C&#39;)&#45;&gt;(&#45;1, &#39;SINK&#39;) -->
<g id="edge34" class="edge">
<title>(4, &#39;C&#39;)&#45;&gt;(&#45;1, &#39;SINK&#39;)</title>
<path fill="none" stroke="#000000" d="M4268.1635,-167.3246C4347.2558,-162.9295 4505.1254,-154.1567 4597.6691,-149.0142"/>
<polygon fill="#000000" stroke="#000000" points="4598.0034,-152.5011 4607.7938,-148.4515 4597.615,-145.5119 4598.0034,-152.5011"/>
<text text-anchor="middle" x="4495.5584" y="-160" font-family="Courier,monospace" font-weight="bold" font-size="10.00" fill="#000000">1.0</text>
</g>
<!-- (4, &#39;D&#39;) -->
<g id="node22" class="node">
<title>(4, &#39;D&#39;)</title>
<polygon fill="none" stroke="#000000" points="4500.0041,-197.0493 4502.9474,-197.1479 4505.8604,-197.2953 4508.731,-197.4913 4511.5476,-197.7353 4514.299,-198.0266 4516.9743,-198.3645 4519.5631,-198.7479 4522.0555,-199.1759 4524.4422,-199.6472 4526.7148,-200.1606 4528.8653,-200.7147 4530.8864,-201.308 4532.7719,-201.9388 4534.5161,-202.6054 4536.1142,-203.3059 4537.5623,-204.0385 4538.8573,-204.8012 4539.9969,-205.5918 4540.9796,-206.4082 4541.8048,-207.2481 4542.4728,-208.1093 4542.9843,-208.9894 4543.341,-209.886 4543.5454,-210.7965 4543.6004,-211.7186 4543.5096,-212.6497 4543.2772,-213.5873 4542.9079,-214.5287 4542.4067,-215.4713 4541.7791,-216.4127 4541.0311,-217.3503 4540.1685,-218.2814 4539.1978,-219.2035 4538.1254,-220.114 4536.9577,-221.0106 4535.7012,-221.8907 4534.3626,-222.7519 4532.9482,-223.5918 4531.4643,-224.4082 4529.917,-225.1988 4528.3122,-225.9615 4526.6557,-226.6941 4524.9528,-227.3946 4523.2086,-228.0612 4521.4279,-228.692 4519.6152,-229.2853 4517.7745,-229.8394 4515.9096,-230.3528 4514.0241,-230.8241 4512.1208,-231.2521 4510.2028,-231.6355 4508.2724,-231.9734 4506.332,-232.2647 4504.3834,-232.5087 4502.4285,-232.7047 4500.4689,-232.8521 4498.506,-232.9507 4496.5412,-233 4494.5757,-233 4492.6109,-232.9507 4490.648,-232.8521 4488.6883,-232.7047 4486.7334,-232.5087 4484.7849,-232.2647 4482.8444,-231.9734 4480.9141,-231.6355 4478.996,-231.2521 4477.0928,-230.8241 4475.2072,-230.3528 4473.3424,-229.8394 4471.5017,-229.2853 4469.6889,-228.692 4467.9082,-228.0612 4466.1641,-227.3946 4464.4611,-226.6941 4462.8046,-225.9615 4461.1999,-225.1988 4459.6526,-224.4082 4458.1687,-223.5918 4456.7543,-222.7519 4455.4156,-221.8907 4454.1592,-221.0106 4452.9915,-220.114 4451.919,-219.2035 4450.9483,-218.2814 4450.0858,-217.3503 4449.3377,-216.4127 4448.7102,-215.4713 4448.209,-214.5287 4447.8396,-213.5873 4447.6072,-212.6497 4447.5165,-211.7186 4447.5714,-210.7965 4447.7758,-209.886 4448.1326,-208.9894 4448.6441,-208.1093 4449.312,-207.2481 4450.1373,-206.4082 4451.12,-205.5918 4452.2596,-204.8012 4453.5546,-204.0385 4455.0027,-203.3059 4456.6008,-202.6054 4458.345,-201.9388 4460.2305,-201.308 4462.2516,-200.7147 4464.4021,-200.1606 4466.6746,-199.6472 4469.0614,-199.1759 4471.5538,-198.7479 4474.1425,-198.3645 4476.8178,-198.0266 4479.5692,-197.7353 4482.3859,-197.4913 4485.2565,-197.2953 4488.1694,-197.1479 4491.1128,-197.0493 4494.0745,-197 4497.0424,-197 4500.0041,-197.0493"/>
<text text-anchor="middle" x="4495.5584" y="-212.5" font-family="Courier,monospace" font-weight="bold" font-size="10.00" fill="#000000">(4, &#39;D&#39;)</text>
</g>
<!-- (4, &#39;C&#39;)&#45;&gt;(4, &#39;D&#39;) -->
<g id="edge35" class="edge">
<title>(4, &#39;C&#39;)&#45;&gt;(4, &#39;D&#39;)</title>
<path fill="none" stroke="#000000" d="M4259.5902,-177.3176C4268.3737,-178.8994 4277.6418,-180.5357 4286.288,-182 4337.7134,-190.7095 4396.3796,-199.8958 4438.4852,-206.3583"/>
<polygon fill="#000000" stroke="#000000" points="4438.1346,-209.8454 4448.5492,-207.8995 4439.1943,-202.926 4438.1346,-209.8454"/>
<text text-anchor="middle" x="4357.788" y="-207" font-family="Courier,monospace" font-weight="bold" font-size="10.00" fill="#000000">0.10007998400319937</text>
</g>
<!-- (4, &#39;D&#39;)&#45;&gt;(&#45;1, &#39;SINK&#39;) -->
<g id="edge36" class="edge">
<title>(4, &#39;D&#39;)&#45;&gt;(&#45;1, &#39;SINK&#39;)</title>
<path fill="none" stroke="#000000" d="M4532.6547,-201.8151C4548.7676,-195.9522 4567.811,-188.8397 4584.8289,-182 4599.0358,-176.2901 4614.423,-169.7188 4628.1549,-163.7132"/>
<polygon fill="#000000" stroke="#000000" points="4629.6178,-166.8934 4637.3623,-159.6633 4626.7995,-160.4858 4629.6178,-166.8934"/>
<text text-anchor="middle" x="4573.3289" y="-193" font-family="Courier,monospace" font-weight="bold" font-size="10.00" fill="#000000">1.0</text>
</g>
</g>
</svg>
