<?xml version="1.0" encoding="UTF-8" standalone="no"?>
<!DOCTYPE svg PUBLIC "-//W3C//DTD SVG 1.1//EN"
 "http://www.w3.org/Graphics/SVG/1.1/DTD/svg11.dtd">
<!-- Generated by graphviz version 2.40.1 (0)
 -->
<!-- Title: G Pages: 1 -->
<svg width="309pt" height="147pt"
 viewBox="0.00 0.00 309.00 147.00" xmlns="http://www.w3.org/2000/svg" xmlns:xlink="http://www.w3.org/1999/xlink">
<g id="graph0" class="graph" transform="scale(1 1) rotate(0) translate(4 143)">
<title>G</title>
<polygon fill="#ffffff" stroke="transparent" points="-4,4 -4,-143 305,-143 305,4 -4,4"/>
<!-- N1 -->
<g id="node1" class="node">
<title>N1</title>
<ellipse fill="none" stroke="#000000" cx="190.5" cy="-20.5" rx="14.5" ry="14.5"/>
<text text-anchor="middle" x="190.5" y="-18" font-family="Courier,monospace" font-weight="bold" font-size="10.00" fill="#000000">N1</text>
</g>
<!-- v4 -->
<g id="node7" class="node">
<title>v4</title>
<ellipse fill="none" stroke="#000000" cx="286.5" cy="-20.5" rx="14.5" ry="14.5"/>
<text text-anchor="middle" x="286.5" y="-18" font-family="Courier,monospace" font-weight="bold" font-size="10.00" fill="#000000">v4</text>
</g>
<!-- N1&#45;&#45;v4 -->
<g id="edge3" class="edge">
<title>N1&#45;&#45;v4</title>
<path fill="none" stroke="#000000" d="M205.0803,-20.5C223.124,-20.5 253.6756,-20.5 271.7825,-20.5"/>
<text text-anchor="middle" x="238.5" y="-23.5" font-family="Courier,monospace" font-weight="bold" font-size="10.00" fill="#000000">4.0</text>
</g>
<!-- N2 -->
<g id="node2" class="node">
<title>N2</title>
<ellipse fill="none" stroke="#000000" cx="102.5" cy="-71.5" rx="14.5" ry="14.5"/>
<text text-anchor="middle" x="102.5" y="-69" font-family="Courier,monospace" font-weight="bold" font-size="10.00" fill="#000000">N2</text>
</g>
<!-- N2&#45;&#45;N1 -->
<g id="edge5" class="edge">
<title>N2&#45;&#45;N1</title>
<path fill="none" stroke="#000000" d="M115.1083,-64.1929C131.837,-54.4978 161.1981,-37.4818 177.9151,-27.7935"/>
<text text-anchor="middle" x="146.5" y="-55.5" font-family="Courier,monospace" font-weight="bold" font-size="10.00" fill="#000000">3.0</text>
</g>
<!-- N3 -->
<g id="node3" class="node">
<title>N3</title>
<ellipse fill="none" stroke="#000000" cx="190.5" cy="-82.5" rx="14.5" ry="14.5"/>
<text text-anchor="middle" x="190.5" y="-80" font-family="Courier,monospace" font-weight="bold" font-size="10.00" fill="#000000">N3</text>
</g>
<!-- N2&#45;&#45;N3 -->
<g id="edge6" class="edge">
<title>N2&#45;&#45;N3</title>
<path fill="none" stroke="#000000" d="M117.0314,-73.3164C133.3364,-75.3545 159.6332,-78.6417 175.947,-80.6809"/>
<text text-anchor="middle" x="146.5" y="-80.5" font-family="Courier,monospace" font-weight="bold" font-size="10.00" fill="#000000">4.0</text>
</g>
<!-- v0 -->
<g id="node4" class="node">
<title>v0</title>
<ellipse fill="none" stroke="#000000" cx="286.5" cy="-77.5" rx="14.5" ry="14.5"/>
<text text-anchor="middle" x="286.5" y="-75" font-family="Courier,monospace" font-weight="bold" font-size="10.00" fill="#000000">v0</text>
</g>
<!-- N3&#45;&#45;v0 -->
<g id="edge7" class="edge">
<title>N3&#45;&#45;v0</title>
<path fill="none" stroke="#000000" d="M205.0803,-81.7406C223.124,-80.8008 253.6756,-79.2096 271.7825,-78.2665"/>
<text text-anchor="middle" x="238.5" y="-83.5" font-family="Courier,monospace" font-weight="bold" font-size="10.00" fill="#000000">11.0</text>
</g>
<!-- v2 -->
<g id="node5" class="node">
<title>v2</title>
<ellipse fill="none" stroke="#000000" cx="286.5" cy="-124.5" rx="14.5" ry="14.5"/>
<text text-anchor="middle" x="286.5" y="-122" font-family="Courier,monospace" font-weight="bold" font-size="10.00" fill="#000000">v2</text>
</g>
<!-- N3&#45;&#45;v2 -->
<g id="edge1" class="edge">
<title>N3&#45;&#45;v2</title>
<path fill="none" stroke="#000000" d="M203.8484,-88.3399C222.0864,-96.3191 254.6157,-110.5506 272.9555,-118.5743"/>
<text text-anchor="middle" x="238.5" y="-112.5" font-family="Courier,monospace" font-weight="bold" font-size="10.00" fill="#000000">10.0</text>
</g>
<!-- v3 -->
<g id="node6" class="node">
<title>v3</title>
<ellipse fill="none" stroke="#000000" cx="102.5" cy="-14.5" rx="14.5" ry="14.5"/>
<text text-anchor="middle" x="102.5" y="-12" font-family="Courier,monospace" font-weight="bold" font-size="10.00" fill="#000000">v3</text>
</g>
<!-- v3&#45;&#45;N1 -->
<g id="edge2" class="edge">
<title>v3&#45;&#45;N1</title>
<path fill="none" stroke="#000000" d="M117.1344,-14.2276C128.341,-14.1487 144.1732,-14.3173 158,-15.5 163.9155,-16.006 170.3884,-16.9261 175.9896,-17.8403"/>
<text text-anchor="middle" x="146.5" y="-18.5" font-family="Courier,monospace" font-weight="bold" font-size="10.00" fill="#000000">3.0</text>
</g>
<!-- v5 -->
<g id="node8" class="node">
<title>v5</title>
<ellipse fill="none" stroke="#000000" cx="14.5" cy="-71.5" rx="14.5" ry="14.5"/>
<text text-anchor="middle" x="14.5" y="-69" font-family="Courier,monospace" font-weight="bold" font-size="10.00" fill="#000000">v5</text>
</g>
<!-- v5&#45;&#45;N2 -->
<g id="edge4" class="edge">
<title>v5&#45;&#45;N2</title>
<path fill="none" stroke="#000000" d="M29.0314,-71.5C45.3364,-71.5 71.6332,-71.5 87.947,-71.5"/>
<text text-anchor="middle" x="58.5" y="-74.5" font-family="Courier,monospace" font-weight="bold" font-size="10.00" fill="#000000">7.0</text>
</g>
</g>
</svg>
