<svg class="bob" font-family="arial" font-size="14" height="112" width="936" xmlns="http://www.w3.org/2000/svg">
<defs>
<marker id="triangle" markerHeight="8" markerWidth="8" orient="auto" refX="4" refY="2" viewBox="0 0 8 4">
<polygon class="fg_fill" points="0,0 0,4 8,2 0,0"/>
</marker>
<marker id="clear_triangle" markerHeight="10" markerWidth="10" orient="auto" refX="1" refY="7" viewBox="0 0 20 14">
<polygon class="bg_fill" points="2,2 2,12 18,7 2,2"/>
</marker>
<marker id="circle" markerHeight="5" markerWidth="5" orient="auto" refX="10" refY="10" viewBox="0 0 20 20">
<circle class="fg_fill" cx="10" cy="10" r="8"/>
</marker>
<marker id="square" markerHeight="5" markerWidth="5" orient="auto" refX="10" refY="10" viewBox="0 0 20 20">
<rect class="fg_fill" height="20" width="20" x="0" y="0"/>
</marker>
<marker id="open_circle" markerHeight="10" markerWidth="10" orient="auto" refX="10" refY="10" viewBox="0 0 20 20">
<circle class="bg_fill" cx="10" cy="10" r="4"/>
</marker>
<marker id="big_open_circle" markerHeight="20" markerWidth="20" orient="auto" refX="20" refY="20" viewBox="0 0 40 40">
<circle class="bg_fill" cx="20" cy="20" r="6"/>
</marker>
</defs>
<style type="text/css">

rect.backdrop {
    fill: white;
}
text{
    fill: black;
}

circle {
    fill: none;
    stroke: black;
    stroke-width: 2;
}

line {
    stroke: black;
    stroke-width: 2;
    stroke-opacity: 1;
    fill-opacity: 1;
    stroke-linecap: round;
    stroke-linejoin: miter;
}

path {
    fill: none;
    stroke: black;
    stroke-width: 2;
    stroke-opacity: 1;
    fill-opacity: 1;
    stroke-linecap: round;
    stroke-linejoin: miter;
}

line.dashed {
    stroke-dasharray: 5;
}

.fg_fill {
    fill: black;
}


.bg_fill {
    fill: white;
    stroke: black;
    stroke-width: 2;
}

tspan.head{
    fill: none;
    stroke: none;
}
    
</style>
<rect class="backdrop" height="112" width="936" x="0" y="0"/>
<g>
<line x1="216" x2="232" y1="80" y2="48"/>
</g>
<g>
<line x1="240" x2="256" y1="48" y2="80"/>
</g>
<g>
<line marker-end="url(#triangle)" x1="400" x2="500" y1="88" y2="88"/>
</g>
<g>
<line x1="672" x2="704" y1="80" y2="16"/>
</g>
<g>
<line x1="712" x2="744" y1="16" y2="80"/>
</g>
<g>
<line x1="824" x2="840" y1="80" y2="48"/>
</g>
<g>
<line x1="848" x2="864" y1="48" y2="80"/>
</g>
<g>
<text x="1" y="92">
(age=0)
</text>
</g>
<g>
<text x="65" y="92">
a
</text>
</g>
<g>
<text x="89" y="108">
(age=0)
</text>
</g>
<g>
<text x="137" y="92">
b
</text>
</g>
<g>
<text x="209" y="60">
1
</text>
</g>
<g>
<text x="209" y="92">
c
</text>
</g>
<g>
<text x="209" y="108">
(age=0)
</text>
</g>
<g>
<text x="233" y="44">
e
</text>
</g>
<g>
<text x="249" y="44">
(age=1)
</text>
</g>
<g>
<text x="257" y="60">
1
</text>
</g>
<g>
<text x="257" y="92">
d
</text>
</g>
<g>
<text x="273" y="92">
(age=0)
</text>
</g>
<g>
<text x="401" y="76">
(connect a, b)
</text>
</g>
<g>
<text x="593" y="92">
(age=0)
</text>
</g>
<g>
<text x="625" y="12">
(age=1.5)
</text>
</g>
<g>
<text x="657" y="44">
1.5
</text>
</g>
<g>
<text x="665" y="92">
a
</text>
</g>
<g>
<text x="705" y="12">
f
</text>
</g>
<g>
<text x="705" y="108">
(age=0)
</text>
</g>
<g>
<text x="737" y="44">
1.5
</text>
</g>
<g>
<text x="745" y="92">
b
</text>
</g>
<g>
<text x="809" y="108">
(age=0)
</text>
</g>
<g>
<text x="817" y="60">
1
</text>
</g>
<g>
<text x="817" y="92">
c
</text>
</g>
<g>
<text x="841" y="44">
e
</text>
</g>
<g>
<text x="857" y="44">
(age=1)
</text>
</g>
<g>
<text x="865" y="60">
1
</text>
</g>
<g>
<text x="865" y="92">
d
</text>
</g>
<g>
<text x="881" y="92">
(age=0)
</text>
</g>
</svg>
