<svg class="bob" font-family="arial" font-size="14" height="352" width="848" xmlns="http://www.w3.org/2000/svg">
<defs>
<marker id="triangle" markerHeight="8" markerWidth="8" orient="auto" refX="4" refY="2" viewBox="0 0 8 4">
<polygon class="fg_fill" points="0,0 0,4 8,2 0,0"/>
</marker>
<marker id="clear_triangle" markerHeight="10" markerWidth="10" orient="auto" refX="1" refY="7" viewBox="0 0 20 14">
<polygon class="bg_fill" points="2,2 2,12 18,7 2,2"/>
</marker>
<marker id="circle" markerHeight="5" markerWidth="5" orient="auto" refX="10" refY="10" viewBox="0 0 20 20">
<circle class="fg_fill" cx="10" cy="10" r="8"/>
</marker>
<marker id="square" markerHeight="5" markerWidth="5" orient="auto" refX="10" refY="10" viewBox="0 0 20 20">
<rect class="fg_fill" height="20" width="20" x="0" y="0"/>
</marker>
<marker id="open_circle" markerHeight="10" markerWidth="10" orient="auto" refX="10" refY="10" viewBox="0 0 20 20">
<circle class="bg_fill" cx="10" cy="10" r="4"/>
</marker>
<marker id="big_open_circle" markerHeight="20" markerWidth="20" orient="auto" refX="20" refY="20" viewBox="0 0 40 40">
<circle class="bg_fill" cx="20" cy="20" r="6"/>
</marker>
</defs>
<style type="text/css">

rect.backdrop {
    fill: white;
}
text{
    fill: black;
}

circle {
    fill: none;
    stroke: black;
    stroke-width: 2;
}

line {
    stroke: black;
    stroke-width: 2;
    stroke-opacity: 1;
    fill-opacity: 1;
    stroke-linecap: round;
    stroke-linejoin: miter;
}

path {
    fill: none;
    stroke: black;
    stroke-width: 2;
    stroke-opacity: 1;
    fill-opacity: 1;
    stroke-linecap: round;
    stroke-linejoin: miter;
}

line.dashed {
    stroke-dasharray: 5;
}

.fg_fill {
    fill: black;
}


.bg_fill {
    fill: white;
    stroke: black;
    stroke-width: 2;
}

tspan.head{
    fill: none;
    stroke: none;
}
    
</style>
<rect class="backdrop" height="352" width="848" x="0" y="0"/>
<g>
<line marker-end="url(#triangle)" x1="0" x2="20" y1="56" y2="56"/>
<line marker-start="url(#triangle)" x1="16" x2="20" y1="56" y2="56"/>
</g>
<g>
<line marker-end="url(#triangle)" x1="0" x2="20" y1="168" y2="168"/>
<line marker-start="url(#triangle)" x1="16" x2="20" y1="168" y2="168"/>
</g>
<g>
<line marker-end="url(#triangle)" x1="0" x2="20" y1="264" y2="264"/>
<line marker-start="url(#triangle)" x1="16" x2="20" y1="264" y2="264"/>
</g>
<g>
<line marker-end="url(#triangle)" x1="0" x2="20" y1="344" y2="344"/>
<line marker-start="url(#triangle)" x1="16" x2="20" y1="344" y2="344"/>
</g>
<g>
<line marker-end="url(#triangle)" x1="24" x2="44" y1="56" y2="56"/>
<line marker-start="url(#triangle)" x1="40" x2="44" y1="56" y2="56"/>
</g>
<g>
<line marker-end="url(#triangle)" x1="24" x2="44" y1="168" y2="168"/>
<line marker-start="url(#triangle)" x1="40" x2="44" y1="168" y2="168"/>
</g>
<g>
<line marker-end="url(#triangle)" x1="24" x2="44" y1="264" y2="264"/>
<line marker-start="url(#triangle)" x1="40" x2="44" y1="264" y2="264"/>
</g>
<g>
<line marker-end="url(#triangle)" x1="24" x2="44" y1="344" y2="344"/>
<line marker-start="url(#triangle)" x1="40" x2="44" y1="344" y2="344"/>
</g>
<g>
<line marker-end="url(#triangle)" x1="48" x2="68" y1="56" y2="56"/>
<line marker-start="url(#triangle)" x1="64" x2="68" y1="56" y2="56"/>
</g>
<g>
<line marker-end="url(#triangle)" x1="48" x2="68" y1="168" y2="168"/>
<line marker-start="url(#triangle)" x1="64" x2="68" y1="168" y2="168"/>
</g>
<g>
<line marker-end="url(#triangle)" x1="48" x2="68" y1="264" y2="264"/>
<line marker-start="url(#triangle)" x1="64" x2="68" y1="264" y2="264"/>
</g>
<g>
<line marker-end="url(#triangle)" x1="48" x2="68" y1="344" y2="344"/>
<line marker-start="url(#triangle)" x1="64" x2="68" y1="344" y2="344"/>
</g>
<g>
<line marker-end="url(#triangle)" x1="72" x2="92" y1="56" y2="56"/>
<line marker-start="url(#triangle)" x1="88" x2="92" y1="56" y2="56"/>
</g>
<g>
<line marker-end="url(#triangle)" x1="72" x2="92" y1="168" y2="168"/>
<line marker-start="url(#triangle)" x1="88" x2="92" y1="168" y2="168"/>
</g>
<g>
<line marker-end="url(#triangle)" x1="72" x2="92" y1="264" y2="264"/>
<line marker-start="url(#triangle)" x1="88" x2="92" y1="264" y2="264"/>
</g>
<g>
<line marker-end="url(#triangle)" x1="72" x2="92" y1="344" y2="344"/>
<line marker-start="url(#triangle)" x1="88" x2="92" y1="344" y2="344"/>
</g>
<g>
<line marker-end="url(#triangle)" x1="96" x2="116" y1="56" y2="56"/>
<line marker-start="url(#triangle)" x1="112" x2="116" y1="56" y2="56"/>
</g>
<g>
<line x1="96" x2="104" y1="168" y2="168"/>
</g>
<g>
<line x1="96" x2="104" y1="264" y2="264"/>
</g>
<g>
<line x1="96" x2="112" y1="344" y2="344"/>
</g>
<g>
<line marker-end="url(#triangle)" x1="104" x2="116" y1="152" y2="152"/>
<line marker-start="url(#triangle)" x1="112" x2="116" y1="152" y2="152"/>
</g>
<g>
<line x1="104" x2="112" y1="248" y2="248"/>
</g>
<g>
<line marker-end="url(#triangle)" x1="120" x2="140" y1="56" y2="56"/>
<line marker-start="url(#triangle)" x1="136" x2="140" y1="56" y2="56"/>
</g>
<g>
<line marker-end="url(#triangle)" x1="120" x2="140" y1="152" y2="152"/>
<line marker-start="url(#triangle)" x1="136" x2="140" y1="152" y2="152"/>
</g>
<g>
<line marker-start="url(#triangle)" x1="120" x2="116" y1="248" y2="248"/>
<line marker-end="url(#triangle)" x1="120" x2="116" y1="248" y2="248"/>
<line x1="120" x2="136" y1="248" y2="248"/>
</g>
<g>
<line marker-start="url(#triangle)" x1="120" x2="116" y1="344" y2="344"/>
<line marker-end="url(#triangle)" x1="120" x2="116" y1="344" y2="344"/>
<line x1="120" x2="136" y1="344" y2="344"/>
</g>
<g>
<line marker-end="url(#triangle)" x1="144" x2="164" y1="56" y2="56"/>
<line marker-start="url(#triangle)" x1="160" x2="164" y1="56" y2="56"/>
</g>
<g>
<line marker-end="url(#triangle)" x1="144" x2="164" y1="152" y2="152"/>
<line marker-start="url(#triangle)" x1="160" x2="164" y1="152" y2="152"/>
</g>
<g>
<line marker-start="url(#triangle)" x1="144" x2="140" y1="248" y2="248"/>
<line marker-end="url(#triangle)" x1="144" x2="140" y1="248" y2="248"/>
<line x1="144" x2="160" y1="248" y2="248"/>
</g>
<g>
<line marker-start="url(#triangle)" x1="144" x2="140" y1="344" y2="344"/>
<line marker-end="url(#triangle)" x1="144" x2="140" y1="344" y2="344"/>
<line x1="144" x2="160" y1="344" y2="344"/>
</g>
<g>
<line marker-end="url(#triangle)" x1="168" x2="188" y1="56" y2="56"/>
<line marker-start="url(#triangle)" x1="184" x2="188" y1="56" y2="56"/>
</g>
<g>
<line marker-end="url(#triangle)" x1="168" x2="188" y1="152" y2="152"/>
<line marker-start="url(#triangle)" x1="184" x2="188" y1="152" y2="152"/>
</g>
<g>
<line marker-start="url(#triangle)" x1="168" x2="164" y1="248" y2="248"/>
<line marker-end="url(#triangle)" x1="168" x2="164" y1="248" y2="248"/>
<line x1="168" x2="184" y1="248" y2="248"/>
</g>
<g>
<line marker-start="url(#triangle)" x1="168" x2="164" y1="344" y2="344"/>
<line marker-end="url(#triangle)" x1="168" x2="164" y1="344" y2="344"/>
<line x1="168" x2="184" y1="344" y2="344"/>
</g>
<g>
<line marker-end="url(#triangle)" x1="192" x2="212" y1="56" y2="56"/>
<line marker-start="url(#triangle)" x1="208" x2="212" y1="56" y2="56"/>
</g>
<g>
<line x1="192" x2="200" y1="152" y2="152"/>
</g>
<g>
<line marker-start="url(#triangle)" x1="192" x2="188" y1="248" y2="248"/>
<line marker-end="url(#triangle)" x1="192" x2="188" y1="248" y2="248"/>
<line x1="192" x2="200" y1="248" y2="248"/>
</g>
<g>
<line marker-start="url(#triangle)" x1="192" x2="188" y1="344" y2="344"/>
<line marker-end="url(#triangle)" x1="192" x2="188" y1="344" y2="344"/>
<line marker-end="url(#triangle)" x1="192" x2="212" y1="344" y2="344"/>
<line marker-start="url(#triangle)" x1="208" x2="212" y1="344" y2="344"/>
</g>
<g>
<line marker-end="url(#triangle)" x1="200" x2="212" y1="168" y2="168"/>
<line marker-start="url(#triangle)" x1="208" x2="212" y1="168" y2="168"/>
</g>
<g>
<line marker-end="url(#triangle)" x1="200" x2="212" y1="264" y2="264"/>
<line marker-start="url(#triangle)" x1="208" x2="212" y1="264" y2="264"/>
</g>
<g>
<line marker-end="url(#triangle)" x1="216" x2="236" y1="56" y2="56"/>
<line marker-start="url(#triangle)" x1="232" x2="236" y1="56" y2="56"/>
</g>
<g>
<line marker-end="url(#triangle)" x1="216" x2="236" y1="168" y2="168"/>
<line marker-start="url(#triangle)" x1="232" x2="236" y1="168" y2="168"/>
</g>
<g>
<line marker-end="url(#triangle)" x1="216" x2="236" y1="264" y2="264"/>
<line marker-start="url(#triangle)" x1="232" x2="236" y1="264" y2="264"/>
</g>
<g>
<line marker-end="url(#triangle)" x1="216" x2="236" y1="344" y2="344"/>
<line marker-start="url(#triangle)" x1="232" x2="236" y1="344" y2="344"/>
</g>
<g>
<line marker-end="url(#triangle)" x1="240" x2="260" y1="56" y2="56"/>
<line marker-start="url(#triangle)" x1="256" x2="260" y1="56" y2="56"/>
</g>
<g>
<line marker-end="url(#triangle)" x1="240" x2="260" y1="168" y2="168"/>
<line marker-start="url(#triangle)" x1="256" x2="260" y1="168" y2="168"/>
</g>
<g>
<line marker-end="url(#triangle)" x1="240" x2="260" y1="264" y2="264"/>
<line marker-start="url(#triangle)" x1="256" x2="260" y1="264" y2="264"/>
</g>
<g>
<line marker-end="url(#triangle)" x1="240" x2="260" y1="344" y2="344"/>
<line marker-start="url(#triangle)" x1="256" x2="260" y1="344" y2="344"/>
</g>
<g>
<line marker-end="url(#triangle)" x1="264" x2="284" y1="56" y2="56"/>
<line marker-start="url(#triangle)" x1="280" x2="284" y1="56" y2="56"/>
</g>
<g>
<line marker-end="url(#triangle)" x1="264" x2="284" y1="168" y2="168"/>
<line marker-start="url(#triangle)" x1="280" x2="284" y1="168" y2="168"/>
</g>
<g>
<line marker-end="url(#triangle)" x1="264" x2="284" y1="264" y2="264"/>
<line marker-start="url(#triangle)" x1="280" x2="284" y1="264" y2="264"/>
</g>
<g>
<line marker-end="url(#triangle)" x1="264" x2="284" y1="344" y2="344"/>
<line marker-start="url(#triangle)" x1="280" x2="284" y1="344" y2="344"/>
</g>
<g>
<line x1="288" x2="304" y1="56" y2="56"/>
</g>
<g>
<line x1="288" x2="304" y1="168" y2="168"/>
</g>
<g>
<line x1="288" x2="304" y1="264" y2="264"/>
</g>
<g>
<line x1="288" x2="304" y1="344" y2="344"/>
</g>
<g>
<line marker-end="url(#triangle)" x1="504" x2="524" y1="56" y2="56"/>
<line marker-start="url(#triangle)" x1="520" x2="524" y1="56" y2="56"/>
</g>
<g>
<line marker-end="url(#triangle)" x1="504" x2="524" y1="152" y2="152"/>
<line marker-start="url(#triangle)" x1="520" x2="524" y1="152" y2="152"/>
</g>
<g>
<line marker-end="url(#triangle)" x1="504" x2="524" y1="248" y2="248"/>
<line marker-start="url(#triangle)" x1="520" x2="524" y1="248" y2="248"/>
</g>
<g>
<line marker-end="url(#triangle)" x1="528" x2="548" y1="56" y2="56"/>
<line marker-start="url(#triangle)" x1="544" x2="548" y1="56" y2="56"/>
</g>
<g>
<line marker-end="url(#triangle)" x1="528" x2="548" y1="152" y2="152"/>
<line marker-start="url(#triangle)" x1="544" x2="548" y1="152" y2="152"/>
</g>
<g>
<line marker-end="url(#triangle)" x1="528" x2="548" y1="248" y2="248"/>
<line marker-start="url(#triangle)" x1="544" x2="548" y1="248" y2="248"/>
</g>
<g>
<line marker-end="url(#triangle)" x1="552" x2="572" y1="56" y2="56"/>
<line marker-start="url(#triangle)" x1="568" x2="572" y1="56" y2="56"/>
</g>
<g>
<line marker-end="url(#triangle)" x1="552" x2="572" y1="152" y2="152"/>
<line marker-start="url(#triangle)" x1="568" x2="572" y1="152" y2="152"/>
</g>
<g>
<line marker-end="url(#triangle)" x1="552" x2="572" y1="248" y2="248"/>
<line marker-start="url(#triangle)" x1="568" x2="572" y1="248" y2="248"/>
</g>
<g>
<line marker-end="url(#triangle)" x1="576" x2="596" y1="56" y2="56"/>
<line marker-start="url(#triangle)" x1="592" x2="596" y1="56" y2="56"/>
</g>
<g>
<line marker-end="url(#triangle)" x1="576" x2="596" y1="152" y2="152"/>
<line marker-start="url(#triangle)" x1="592" x2="596" y1="152" y2="152"/>
</g>
<g>
<line marker-end="url(#triangle)" x1="576" x2="596" y1="248" y2="248"/>
<line marker-start="url(#triangle)" x1="592" x2="596" y1="248" y2="248"/>
</g>
<g>
<line marker-end="url(#triangle)" x1="600" x2="620" y1="56" y2="56"/>
<line marker-start="url(#triangle)" x1="616" x2="620" y1="56" y2="56"/>
</g>
<g>
<line marker-end="url(#triangle)" x1="600" x2="620" y1="152" y2="152"/>
<line marker-start="url(#triangle)" x1="616" x2="620" y1="152" y2="152"/>
</g>
<g>
<line marker-end="url(#triangle)" x1="600" x2="620" y1="248" y2="248"/>
<line marker-start="url(#triangle)" x1="616" x2="620" y1="248" y2="248"/>
</g>
<g>
<line marker-end="url(#triangle)" x1="624" x2="644" y1="56" y2="56"/>
<line marker-start="url(#triangle)" x1="640" x2="644" y1="56" y2="56"/>
</g>
<g>
<line marker-end="url(#triangle)" x1="624" x2="644" y1="152" y2="152"/>
<line marker-start="url(#triangle)" x1="640" x2="644" y1="152" y2="152"/>
</g>
<g>
<line marker-end="url(#triangle)" x1="624" x2="644" y1="248" y2="248"/>
<line marker-start="url(#triangle)" x1="640" x2="644" y1="248" y2="248"/>
</g>
<g>
<line x1="628" x2="628" y1="92" y2="100"/>
<path d="M 628 100 A 4 4 0 0 0 632 104"/>
<path d="M 632 88 A 4 4 0 0 0 628 92"/>
</g>
<g>
<line x1="628" x2="628" y1="188" y2="196"/>
<path d="M 628 196 A 4 4 0 0 0 632 200"/>
<path d="M 632 184 A 4 4 0 0 0 628 188"/>
</g>
<g>
<line x1="628" x2="628" y1="284" y2="292"/>
<path d="M 628 292 A 4 4 0 0 0 632 296"/>
<path d="M 632 280 A 4 4 0 0 0 628 284"/>
</g>
<g>
<line x1="632" x2="640" y1="88" y2="88"/>
</g>
<g>
<line marker-end="url(#triangle)" x1="632" x2="644" y1="104" y2="104"/>
<line marker-start="url(#triangle)" x1="640" x2="644" y1="104" y2="104"/>
</g>
<g>
<line x1="632" x2="640" y1="184" y2="184"/>
</g>
<g>
<line marker-end="url(#triangle)" x1="632" x2="644" y1="200" y2="200"/>
<line marker-start="url(#triangle)" x1="640" x2="644" y1="200" y2="200"/>
</g>
<g>
<line x1="632" x2="640" y1="280" y2="280"/>
</g>
<g>
<line marker-end="url(#triangle)" x1="632" x2="644" y1="296" y2="296"/>
<line marker-start="url(#triangle)" x1="640" x2="644" y1="296" y2="296"/>
</g>
<g>
<line x1="648" x2="656" y1="56" y2="56"/>
<path d="M 660 60 A 4 4 0 0 0 656 56"/>
</g>
<g>
<line marker-start="url(#triangle)" x1="648" x2="644" y1="88" y2="88"/>
<line marker-end="url(#triangle)" x1="648" x2="644" y1="88" y2="88"/>
<line x1="648" x2="656" y1="88" y2="88"/>
<path d="M 656 88 A 4 4 0 0 0 660 84"/>
</g>
<g>
<line marker-end="url(#triangle)" x1="648" x2="668" y1="104" y2="104"/>
<line marker-start="url(#triangle)" x1="664" x2="668" y1="104" y2="104"/>
</g>
<g>
<line x1="648" x2="656" y1="152" y2="152"/>
<path d="M 660 156 A 4 4 0 0 0 656 152"/>
</g>
<g>
<line marker-start="url(#triangle)" x1="648" x2="644" y1="184" y2="184"/>
<line marker-end="url(#triangle)" x1="648" x2="644" y1="184" y2="184"/>
<line x1="648" x2="656" y1="184" y2="184"/>
<path d="M 656 184 A 4 4 0 0 0 660 180"/>
</g>
<g>
<line marker-end="url(#triangle)" x1="648" x2="668" y1="200" y2="200"/>
<line marker-start="url(#triangle)" x1="664" x2="668" y1="200" y2="200"/>
</g>
<g>
<line x1="648" x2="656" y1="248" y2="248"/>
<path d="M 662 252 A 8 8 0 0 0 656 248"/>
</g>
<g>
<line marker-start="url(#triangle)" x1="648" x2="644" y1="280" y2="280"/>
<line marker-end="url(#triangle)" x1="648" x2="644" y1="280" y2="280"/>
<line x1="648" x2="656" y1="280" y2="280"/>
<path d="M 656 280 A 8 8 0 0 0 662 276"/>
</g>
<g>
<line marker-end="url(#triangle)" x1="648" x2="668" y1="296" y2="296"/>
<line marker-start="url(#triangle)" x1="664" x2="668" y1="296" y2="296"/>
</g>
<g>
<line x1="660" x2="660" y1="60" y2="84"/>
</g>
<g>
<line x1="662" x2="668" y1="252" y2="264"/>
<line x1="668" x2="662" y1="264" y2="276"/>
<line x1="668" x2="674" y1="264" y2="276"/>
<line x1="674" x2="668" y1="252" y2="264"/>
<path d="M 674 276 A 8 8 0 0 0 680 280"/>
<path d="M 680 248 A 8 8 0 0 0 674 252"/>
</g>
<g>
<line marker-end="url(#triangle)" x1="672" x2="692" y1="104" y2="104"/>
<line marker-start="url(#triangle)" x1="688" x2="692" y1="104" y2="104"/>
</g>
<g>
<line marker-end="url(#triangle)" x1="672" x2="692" y1="200" y2="200"/>
<line marker-start="url(#triangle)" x1="688" x2="692" y1="200" y2="200"/>
</g>
<g>
<line marker-end="url(#triangle)" x1="672" x2="692" y1="296" y2="296"/>
<line marker-start="url(#triangle)" x1="688" x2="692" y1="296" y2="296"/>
</g>
<g>
<line x1="676" x2="676" y1="60" y2="84"/>
<path d="M 676 84 A 4 4 0 0 0 680 88"/>
<path d="M 680 56 A 4 4 0 0 0 676 60"/>
</g>
<g>
<line marker-end="url(#triangle)" x1="680" x2="692" y1="56" y2="56"/>
<line marker-start="url(#triangle)" x1="688" x2="692" y1="56" y2="56"/>
</g>
<g>
<line x1="680" x2="688" y1="88" y2="88"/>
</g>
<g>
<line marker-end="url(#triangle)" x1="680" x2="692" y1="152" y2="152"/>
<line marker-start="url(#triangle)" x1="688" x2="692" y1="152" y2="152"/>
<path d="M 680 152 A 4 4 0 0 0 676 156"/>
</g>
<g>
<line x1="680" x2="688" y1="184" y2="184"/>
<path d="M 676 180 A 4 4 0 0 0 680 184"/>
</g>
<g>
<line marker-end="url(#triangle)" x1="680" x2="692" y1="248" y2="248"/>
<line marker-start="url(#triangle)" x1="688" x2="692" y1="248" y2="248"/>
</g>
<g>
<line x1="680" x2="688" y1="280" y2="280"/>
</g>
<g>
<line marker-end="url(#triangle)" x1="696" x2="716" y1="56" y2="56"/>
<line marker-start="url(#triangle)" x1="712" x2="716" y1="56" y2="56"/>
</g>
<g>
<line marker-start="url(#triangle)" x1="696" x2="692" y1="88" y2="88"/>
<line marker-end="url(#triangle)" x1="696" x2="692" y1="88" y2="88"/>
<line x1="696" x2="704" y1="88" y2="88"/>
<path d="M 708 92 A 4 4 0 0 0 704 88"/>
</g>
<g>
<line x1="696" x2="704" y1="104" y2="104"/>
<path d="M 704 104 A 4 4 0 0 0 708 100"/>
</g>
<g>
<line marker-end="url(#triangle)" x1="696" x2="716" y1="152" y2="152"/>
<line marker-start="url(#triangle)" x1="712" x2="716" y1="152" y2="152"/>
</g>
<g>
<line marker-start="url(#triangle)" x1="696" x2="692" y1="184" y2="184"/>
<line marker-end="url(#triangle)" x1="696" x2="692" y1="184" y2="184"/>
<line x1="696" x2="704" y1="184" y2="184"/>
<path d="M 708 188 A 4 4 0 0 0 704 184"/>
</g>
<g>
<line x1="696" x2="704" y1="200" y2="200"/>
<path d="M 704 200 A 4 4 0 0 0 708 196"/>
</g>
<g>
<line marker-end="url(#triangle)" x1="696" x2="716" y1="248" y2="248"/>
<line marker-start="url(#triangle)" x1="712" x2="716" y1="248" y2="248"/>
</g>
<g>
<line marker-start="url(#triangle)" x1="696" x2="692" y1="280" y2="280"/>
<line marker-end="url(#triangle)" x1="696" x2="692" y1="280" y2="280"/>
<line x1="696" x2="704" y1="280" y2="280"/>
<path d="M 708 284 A 4 4 0 0 0 704 280"/>
</g>
<g>
<line x1="696" x2="704" y1="296" y2="296"/>
<path d="M 704 296 A 4 4 0 0 0 708 292"/>
</g>
<g>
<line x1="708" x2="708" y1="92" y2="100"/>
</g>
<g>
<line x1="708" x2="708" y1="188" y2="196"/>
</g>
<g>
<line x1="708" x2="708" y1="284" y2="292"/>
</g>
<g>
<line marker-end="url(#triangle)" x1="720" x2="740" y1="56" y2="56"/>
<line marker-start="url(#triangle)" x1="736" x2="740" y1="56" y2="56"/>
</g>
<g>
<line marker-end="url(#triangle)" x1="720" x2="740" y1="152" y2="152"/>
<line marker-start="url(#triangle)" x1="736" x2="740" y1="152" y2="152"/>
</g>
<g>
<line marker-end="url(#triangle)" x1="720" x2="740" y1="248" y2="248"/>
<line marker-start="url(#triangle)" x1="736" x2="740" y1="248" y2="248"/>
</g>
<g>
<line marker-end="url(#triangle)" x1="744" x2="764" y1="56" y2="56"/>
<line marker-start="url(#triangle)" x1="760" x2="764" y1="56" y2="56"/>
</g>
<g>
<line marker-end="url(#triangle)" x1="744" x2="764" y1="152" y2="152"/>
<line marker-start="url(#triangle)" x1="760" x2="764" y1="152" y2="152"/>
</g>
<g>
<line marker-end="url(#triangle)" x1="744" x2="764" y1="248" y2="248"/>
<line marker-start="url(#triangle)" x1="760" x2="764" y1="248" y2="248"/>
</g>
<g>
<line marker-end="url(#triangle)" x1="768" x2="788" y1="56" y2="56"/>
<line marker-start="url(#triangle)" x1="784" x2="788" y1="56" y2="56"/>
</g>
<g>
<line marker-end="url(#triangle)" x1="768" x2="788" y1="152" y2="152"/>
<line marker-start="url(#triangle)" x1="784" x2="788" y1="152" y2="152"/>
</g>
<g>
<line marker-end="url(#triangle)" x1="768" x2="788" y1="248" y2="248"/>
<line marker-start="url(#triangle)" x1="784" x2="788" y1="248" y2="248"/>
</g>
<g>
<line marker-end="url(#triangle)" x1="792" x2="812" y1="56" y2="56"/>
<line marker-start="url(#triangle)" x1="808" x2="812" y1="56" y2="56"/>
</g>
<g>
<line marker-end="url(#triangle)" x1="792" x2="812" y1="152" y2="152"/>
<line marker-start="url(#triangle)" x1="808" x2="812" y1="152" y2="152"/>
</g>
<g>
<line marker-end="url(#triangle)" x1="792" x2="812" y1="248" y2="248"/>
<line marker-start="url(#triangle)" x1="808" x2="812" y1="248" y2="248"/>
</g>
<g>
<line x1="816" x2="832" y1="56" y2="56"/>
</g>
<g>
<line x1="816" x2="832" y1="152" y2="152"/>
</g>
<g>
<line x1="816" x2="832" y1="248" y2="248"/>
</g>
<g>
<text x="1" y="44">
Original:
</text>
</g>
<g>
<text x="1" y="140">
Interval breaks:
</text>
</g>
<g>
<text x="1" y="236">
Interval flips around:
</text>
</g>
<g>
<text x="1" y="332">
Reversed interval re-attaches:
</text>
</g>
<g>
<text x="97" y="12">
Scenario 1
</text>
</g>
<g>
<text x="505" y="44">
Original:
</text>
</g>
<g>
<text x="505" y="140">
Interval breaks:
</text>
</g>
<g>
<text x="505" y="236">
Interval ends re-attach in swapped order:
</text>
</g>
<g>
<text x="617" y="12">
Scenario 2
</text>
</g>
</svg>
