<svg class="bob" font-family="arial" font-size="14" height="320" width="312" xmlns="http://www.w3.org/2000/svg">
<defs>
<marker id="triangle" markerHeight="8" markerWidth="8" orient="auto" refX="4" refY="2" viewBox="0 0 8 4">
<polygon class="fg_fill" points="0,0 0,4 8,2 0,0"/>
</marker>
<marker id="clear_triangle" markerHeight="10" markerWidth="10" orient="auto" refX="1" refY="7" viewBox="0 0 20 14">
<polygon class="bg_fill" points="2,2 2,12 18,7 2,2"/>
</marker>
<marker id="circle" markerHeight="5" markerWidth="5" orient="auto" refX="10" refY="10" viewBox="0 0 20 20">
<circle class="fg_fill" cx="10" cy="10" r="8"/>
</marker>
<marker id="square" markerHeight="5" markerWidth="5" orient="auto" refX="10" refY="10" viewBox="0 0 20 20">
<rect class="fg_fill" height="20" width="20" x="0" y="0"/>
</marker>
<marker id="open_circle" markerHeight="10" markerWidth="10" orient="auto" refX="10" refY="10" viewBox="0 0 20 20">
<circle class="bg_fill" cx="10" cy="10" r="4"/>
</marker>
<marker id="big_open_circle" markerHeight="20" markerWidth="20" orient="auto" refX="20" refY="20" viewBox="0 0 40 40">
<circle class="bg_fill" cx="20" cy="20" r="6"/>
</marker>
</defs>
<style type="text/css">

rect.backdrop {
    fill: white;
}
text{
    fill: black;
}

circle {
    fill: none;
    stroke: black;
    stroke-width: 2;
}

line {
    stroke: black;
    stroke-width: 2;
    stroke-opacity: 1;
    fill-opacity: 1;
    stroke-linecap: round;
    stroke-linejoin: miter;
}

path {
    fill: none;
    stroke: black;
    stroke-width: 2;
    stroke-opacity: 1;
    fill-opacity: 1;
    stroke-linecap: round;
    stroke-linejoin: miter;
}

line.dashed {
    stroke-dasharray: 5;
}

.fg_fill {
    fill: black;
}


.bg_fill {
    fill: white;
    stroke: black;
    stroke-width: 2;
}

tspan.head{
    fill: none;
    stroke: none;
}
    
</style>
<rect class="backdrop" height="320" width="312" x="0" y="0"/>
<g>
<line x1="8" x2="28" y1="184" y2="184"/>
<line x1="28" x2="28" y1="152" y2="184"/>
<line x1="28" x2="96" y1="152" y2="152"/>
<line x1="28" x2="28" y1="184" y2="216"/>
<line x1="28" x2="28" y1="216" y2="280"/>
<line x1="28" x2="56" y1="216" y2="216"/>
<line x1="28" x2="28" y1="280" y2="308"/>
<line x1="28" x2="64" y1="280" y2="280"/>
<path d="M 28 308 A 4 4 0 0 0 32 312"/>
</g>
<g>
<line x1="28" x2="28" y1="60" y2="88"/>
<line x1="28" x2="28" y1="88" y2="120"/>
<line x1="28" x2="64" y1="88" y2="88"/>
<line x1="28" x2="28" y1="120" y2="152"/>
<line x1="28" x2="88" y1="120" y2="120"/>
<path d="M 32 56 A 4 4 0 0 0 28 60"/>
</g>
<g>
<line x1="32" x2="56" y1="56" y2="56"/>
</g>
<g>
<line x1="32" x2="120" y1="312" y2="312"/>
</g>
<g>
<line x1="60" x2="60" y1="188" y2="208"/>
<path d="M 64 184 A 4 4 0 0 0 60 188"/>
</g>
<g>
<line x1="64" x2="96" y1="184" y2="184"/>
</g>
<g>
<line x1="64" x2="128" y1="216" y2="216"/>
</g>
<g>
<line x1="68" x2="68" y1="252" y2="272"/>
<path d="M 72 248 A 4 4 0 0 0 68 252"/>
</g>
<g>
<line x1="72" x2="104" y1="248" y2="248"/>
</g>
<g>
<line x1="72" x2="136" y1="280" y2="280"/>
</g>
<g>
<text x="1" y="12">
*
</text>
</g>
<g>
<text x="1" y="188">
p
</text>
</g>
<g>
<text x="17" y="12">
Colored suffix tree for bad§fade¶
</text>
</g>
<g>
<text x="41" y="44">
¶
</text>
</g>
<g>
<text x="41" y="76">
e¶
</text>
</g>
<g>
<text x="41" y="108">
fade¶
</text>
</g>
<g>
<text x="41" y="140">
§fade¶
</text>
</g>
<g>
<text x="41" y="204">
d
</text>
</g>
<g>
<text x="41" y="268">
ad
</text>
</g>
<g>
<text x="41" y="300">
bad§fade¶
</text>
</g>
<g>
<text x="57" y="60">
r
</text>
</g>
<g>
<text x="57" y="220">
p
</text>
</g>
<g>
<text x="65" y="92">
r
</text>
</g>
<g>
<text x="65" y="284">
p
</text>
</g>
<g>
<text x="73" y="172">
e¶
</text>
</g>
<g>
<text x="73" y="204">
§fade¶
</text>
</g>
<g>
<text x="81" y="236">
e¶
</text>
</g>
<g>
<text x="81" y="268">
§fade¶
</text>
</g>
<g>
<text x="89" y="124">
r
</text>
</g>
<g>
<text x="97" y="156">
b
</text>
</g>
<g>
<text x="97" y="188">
r
</text>
</g>
<g>
<text x="105" y="252">
r
</text>
</g>
<g>
<text x="121" y="316">
b
</text>
</g>
<g>
<text x="129" y="220">
b
</text>
</g>
<g>
<text x="137" y="284">
b
</text>
</g>
</svg>
