<?xml version="1.0" encoding="UTF-8" standalone="no"?>
<!DOCTYPE svg PUBLIC "-//W3C//DTD SVG 1.1//EN"
 "http://www.w3.org/Graphics/SVG/1.1/DTD/svg11.dtd">
<!-- Generated by graphviz version 2.40.1 (0)
 -->
<!-- Title: G Pages: 1 -->
<svg width="229pt" height="84pt"
 viewBox="0.00 0.00 229.00 84.00" xmlns="http://www.w3.org/2000/svg" xmlns:xlink="http://www.w3.org/1999/xlink">
<g id="graph0" class="graph" transform="scale(1 1) rotate(0) translate(4 80)">
<title>G</title>
<polygon fill="#ffffff" stroke="transparent" points="-4,4 -4,-80 225,-80 225,4 -4,4"/>
<!-- N1 -->
<g id="node1" class="node">
<title>N1</title>
<ellipse fill="none" stroke="#000000" cx="110.5" cy="-37.5" rx="14.5" ry="14.5"/>
<text text-anchor="middle" x="110.5" y="-35" font-family="Courier,monospace" font-weight="bold" font-size="10.00" fill="#000000">N1</text>
</g>
<!-- v1 -->
<g id="node2" class="node">
<title>v1</title>
<ellipse fill="none" stroke="#000000" cx="206.5" cy="-61.5" rx="14.5" ry="14.5"/>
<text text-anchor="middle" x="206.5" y="-59" font-family="Courier,monospace" font-weight="bold" font-size="10.00" fill="#000000">v1</text>
</g>
<!-- N1&#45;&#45;v1 -->
<g id="edge2" class="edge">
<title>N1&#45;&#45;v1</title>
<path fill="none" stroke="#000000" d="M124.6651,-41.0413C142.8155,-45.5789 174.0984,-53.3996 192.2768,-57.9442"/>
<text text-anchor="middle" x="158.5" y="-55.5" font-family="Courier,monospace" font-weight="bold" font-size="10.00" fill="#000000">2.0</text>
</g>
<!-- v4 -->
<g id="node4" class="node">
<title>v4</title>
<ellipse fill="none" stroke="#000000" cx="206.5" cy="-14.5" rx="14.5" ry="14.5"/>
<text text-anchor="middle" x="206.5" y="-12" font-family="Courier,monospace" font-weight="bold" font-size="10.00" fill="#000000">v4</text>
</g>
<!-- N1&#45;&#45;v4 -->
<g id="edge3" class="edge">
<title>N1&#45;&#45;v4</title>
<path fill="none" stroke="#000000" d="M124.6949,-33.3929C130.37,-31.797 136.9772,-29.9967 143,-28.5 159.6529,-24.3616 178.9167,-20.202 191.8202,-17.5053"/>
<text text-anchor="middle" x="158.5" y="-31.5" font-family="Courier,monospace" font-weight="bold" font-size="10.00" fill="#000000">11.0</text>
</g>
<!-- v2 -->
<g id="node3" class="node">
<title>v2</title>
<ellipse fill="none" stroke="#000000" cx="14.5" cy="-37.5" rx="14.5" ry="14.5"/>
<text text-anchor="middle" x="14.5" y="-35" font-family="Courier,monospace" font-weight="bold" font-size="10.00" fill="#000000">v2</text>
</g>
<!-- v2&#45;&#45;N1 -->
<g id="edge1" class="edge">
<title>v2&#45;&#45;N1</title>
<path fill="none" stroke="#000000" d="M29.0803,-37.5C47.124,-37.5 77.6756,-37.5 95.7825,-37.5"/>
<text text-anchor="middle" x="62.5" y="-40.5" font-family="Courier,monospace" font-weight="bold" font-size="10.00" fill="#000000">10.0</text>
</g>
</g>
</svg>
