<svg class="bob" font-family="arial" font-size="14" height="176" width="704" xmlns="http://www.w3.org/2000/svg">
<defs>
<marker id="triangle" markerHeight="8" markerWidth="8" orient="auto" refX="4" refY="2" viewBox="0 0 8 4">
<polygon class="fg_fill" points="0,0 0,4 8,2 0,0"/>
</marker>
<marker id="clear_triangle" markerHeight="10" markerWidth="10" orient="auto" refX="1" refY="7" viewBox="0 0 20 14">
<polygon class="bg_fill" points="2,2 2,12 18,7 2,2"/>
</marker>
<marker id="circle" markerHeight="5" markerWidth="5" orient="auto" refX="10" refY="10" viewBox="0 0 20 20">
<circle class="fg_fill" cx="10" cy="10" r="8"/>
</marker>
<marker id="square" markerHeight="5" markerWidth="5" orient="auto" refX="10" refY="10" viewBox="0 0 20 20">
<rect class="fg_fill" height="20" width="20" x="0" y="0"/>
</marker>
<marker id="open_circle" markerHeight="10" markerWidth="10" orient="auto" refX="10" refY="10" viewBox="0 0 20 20">
<circle class="bg_fill" cx="10" cy="10" r="4"/>
</marker>
<marker id="big_open_circle" markerHeight="20" markerWidth="20" orient="auto" refX="20" refY="20" viewBox="0 0 40 40">
<circle class="bg_fill" cx="20" cy="20" r="6"/>
</marker>
</defs>
<style type="text/css">

rect.backdrop {
    fill: white;
}
text{
    fill: black;
}

circle {
    fill: none;
    stroke: black;
    stroke-width: 2;
}

line {
    stroke: black;
    stroke-width: 2;
    stroke-opacity: 1;
    fill-opacity: 1;
    stroke-linecap: round;
    stroke-linejoin: miter;
}

path {
    fill: none;
    stroke: black;
    stroke-width: 2;
    stroke-opacity: 1;
    fill-opacity: 1;
    stroke-linecap: round;
    stroke-linejoin: miter;
}

line.dashed {
    stroke-dasharray: 5;
}

.fg_fill {
    fill: black;
}


.bg_fill {
    fill: white;
    stroke: black;
    stroke-width: 2;
}

tspan.head{
    fill: none;
    stroke: none;
}
    
</style>
<rect class="backdrop" height="176" width="704" x="0" y="0"/>
<g>
<line marker-end="url(#triangle)" marker-start="url(#circle)" x1="4" x2="28" y1="120" y2="120"/>
</g>
<g>
<line marker-start="url(#circle)" x1="36" x2="32" y1="120" y2="120"/>
<line marker-end="url(#triangle)" marker-start="url(#circle)" x1="36" x2="60" y1="120" y2="120"/>
</g>
<g>
<line marker-start="url(#circle)" x1="68" x2="64" y1="120" y2="120"/>
<line marker-end="url(#triangle)" marker-start="url(#circle)" x1="68" x2="92" y1="120" y2="120"/>
</g>
<g>
<line marker-start="url(#circle)" x1="100" x2="96" y1="120" y2="120"/>
<line marker-start="url(#circle)" x1="100" x2="100" y1="120" y2="164"/>
<line marker-end="url(#triangle)" marker-start="url(#circle)" x1="100" x2="124" y1="120" y2="120"/>
<path d="M 100 164 A 4 4 0 0 0 104 168"/>
</g>
<g>
<line marker-end="url(#triangle)" x1="104" x2="124" y1="168" y2="168"/>
</g>
<g>
<line marker-end="url(#circle)" x1="132" x2="132" y1="76" y2="120"/>
<line marker-start="url(#circle)" x1="132" x2="128" y1="120" y2="120"/>
<line marker-end="url(#triangle)" marker-start="url(#circle)" x1="132" x2="156" y1="120" y2="120"/>
<path d="M 136 72 A 4 4 0 0 0 132 76"/>
</g>
<g>
<line marker-start="url(#circle)" x1="132" x2="128" y1="168" y2="168"/>
<line marker-end="url(#triangle)" marker-start="url(#circle)" x1="132" x2="156" y1="168" y2="168"/>
</g>
<g>
<line marker-end="url(#triangle)" x1="136" x2="156" y1="72" y2="72"/>
</g>
<g>
<line marker-start="url(#circle)" x1="164" x2="160" y1="72" y2="72"/>
<line marker-end="url(#triangle)" marker-start="url(#circle)" x1="164" x2="188" y1="72" y2="72"/>
</g>
<g>
<line marker-start="url(#circle)" x1="164" x2="160" y1="120" y2="120"/>
<line marker-end="url(#triangle)" marker-start="url(#circle)" x1="164" x2="188" y1="120" y2="120"/>
</g>
<g>
<line marker-start="url(#circle)" x1="164" x2="160" y1="168" y2="168"/>
<line marker-end="url(#triangle)" marker-start="url(#circle)" x1="164" x2="188" y1="168" y2="168"/>
</g>
<g>
<line marker-start="url(#circle)" x1="196" x2="192" y1="72" y2="72"/>
<line marker-end="url(#triangle)" marker-start="url(#circle)" x1="196" x2="220" y1="72" y2="72"/>
</g>
<g>
<line marker-start="url(#circle)" x1="196" x2="192" y1="120" y2="120"/>
<line marker-end="url(#triangle)" marker-start="url(#circle)" x1="196" x2="220" y1="120" y2="120"/>
</g>
<g>
<line marker-start="url(#circle)" x1="196" x2="192" y1="168" y2="168"/>
<line marker-end="url(#triangle)" marker-start="url(#circle)" x1="196" x2="220" y1="168" y2="168"/>
</g>
<g>
<line marker-start="url(#circle)" x1="228" x2="224" y1="72" y2="72"/>
</g>
<g>
<line marker-start="url(#circle)" x1="228" x2="224" y1="120" y2="120"/>
</g>
<g>
<line marker-start="url(#circle)" x1="228" x2="224" y1="168" y2="168"/>
<line marker-end="url(#triangle)" marker-start="url(#circle)" x1="228" x2="252" y1="168" y2="168"/>
</g>
<g>
<line marker-start="url(#circle)" x1="260" x2="256" y1="168" y2="168"/>
</g>
<g>
<line marker-end="url(#triangle)" marker-start="url(#circle)" x1="444" x2="532" y1="120" y2="120"/>
</g>
<g>
<line marker-start="url(#circle)" x1="540" x2="536" y1="120" y2="120"/>
<line marker-start="url(#circle)" x1="540" x2="540" y1="120" y2="164"/>
<line marker-end="url(#triangle)" marker-start="url(#circle)" x1="540" x2="564" y1="120" y2="120"/>
<path d="M 540 164 A 4 4 0 0 0 544 168"/>
</g>
<g>
<line marker-end="url(#triangle)" x1="544" x2="692" y1="168" y2="168"/>
</g>
<g>
<line marker-end="url(#circle)" x1="572" x2="572" y1="76" y2="120"/>
<line marker-start="url(#circle)" x1="572" x2="568" y1="120" y2="120"/>
<line marker-end="url(#triangle)" marker-start="url(#circle)" x1="572" x2="660" y1="120" y2="120"/>
<path d="M 576 72 A 4 4 0 0 0 572 76"/>
</g>
<g>
<line marker-end="url(#triangle)" x1="576" x2="660" y1="72" y2="72"/>
</g>
<g>
<line marker-start="url(#circle)" x1="668" x2="664" y1="72" y2="72"/>
</g>
<g>
<line marker-start="url(#circle)" x1="668" x2="664" y1="120" y2="120"/>
</g>
<g>
<line marker-start="url(#circle)" x1="700" x2="696" y1="168" y2="168"/>
</g>
<g>
<text x="17" y="108">
r
</text>
</g>
<g>
<text x="49" y="108">
a
</text>
</g>
<g>
<text x="81" y="12">
Normal trie
</text>
</g>
<g>
<text x="81" y="108">
t
</text>
</g>
<g>
<text x="113" y="108">
i
</text>
</g>
<g>
<text x="113" y="156">
t
</text>
</g>
<g>
<text x="145" y="60">
n
</text>
</g>
<g>
<text x="145" y="108">
o
</text>
</g>
<g>
<text x="145" y="156">
t
</text>
</g>
<g>
<text x="177" y="60">
g
</text>
</g>
<g>
<text x="177" y="108">
n
</text>
</g>
<g>
<text x="177" y="156">
l
</text>
</g>
<g>
<text x="209" y="60">
¶
</text>
</g>
<g>
<text x="209" y="108">
¶
</text>
</g>
<g>
<text x="209" y="156">
e
</text>
</g>
<g>
<text x="241" y="156">
¶
</text>
</g>
<g>
<text x="481" y="108">
rat
</text>
</g>
<g>
<text x="521" y="12">
Edge merged trie
</text>
</g>
<g>
<text x="553" y="108">
i
</text>
</g>
<g>
<text x="601" y="156">
ttle¶
</text>
</g>
<g>
<text x="609" y="60">
ng¶
</text>
</g>
<g>
<text x="609" y="108">
on¶
</text>
</g>
</svg>
