<svg class="bob" font-family="arial" font-size="14" height="384" width="616" xmlns="http://www.w3.org/2000/svg">
<defs>
<marker id="triangle" markerHeight="8" markerWidth="8" orient="auto" refX="4" refY="2" viewBox="0 0 8 4">
<polygon class="fg_fill" points="0,0 0,4 8,2 0,0"/>
</marker>
<marker id="clear_triangle" markerHeight="10" markerWidth="10" orient="auto" refX="1" refY="7" viewBox="0 0 20 14">
<polygon class="bg_fill" points="2,2 2,12 18,7 2,2"/>
</marker>
<marker id="circle" markerHeight="5" markerWidth="5" orient="auto" refX="10" refY="10" viewBox="0 0 20 20">
<circle class="fg_fill" cx="10" cy="10" r="8"/>
</marker>
<marker id="square" markerHeight="5" markerWidth="5" orient="auto" refX="10" refY="10" viewBox="0 0 20 20">
<rect class="fg_fill" height="20" width="20" x="0" y="0"/>
</marker>
<marker id="open_circle" markerHeight="10" markerWidth="10" orient="auto" refX="10" refY="10" viewBox="0 0 20 20">
<circle class="bg_fill" cx="10" cy="10" r="4"/>
</marker>
<marker id="big_open_circle" markerHeight="20" markerWidth="20" orient="auto" refX="20" refY="20" viewBox="0 0 40 40">
<circle class="bg_fill" cx="20" cy="20" r="6"/>
</marker>
</defs>
<style type="text/css">

rect.backdrop {
    fill: white;
}
text{
    fill: black;
}

circle {
    fill: none;
    stroke: black;
    stroke-width: 2;
}

line {
    stroke: black;
    stroke-width: 2;
    stroke-opacity: 1;
    fill-opacity: 1;
    stroke-linecap: round;
    stroke-linejoin: miter;
}

path {
    fill: none;
    stroke: black;
    stroke-width: 2;
    stroke-opacity: 1;
    fill-opacity: 1;
    stroke-linecap: round;
    stroke-linejoin: miter;
}

line.dashed {
    stroke-dasharray: 5;
}

.fg_fill {
    fill: black;
}


.bg_fill {
    fill: white;
    stroke: black;
    stroke-width: 2;
}

tspan.head{
    fill: none;
    stroke: none;
}
    
</style>
<rect class="backdrop" height="384" width="616" x="0" y="0"/>
<g>
<line x1="4" x2="4" y1="24" y2="152"/>
<line x1="4" x2="28" y1="24" y2="24"/>
<line x1="4" x2="28" y1="152" y2="152"/>
<line x1="28" x2="28" y1="24" y2="152"/>
<line x1="28" x2="60" y1="24" y2="24"/>
<line x1="28" x2="60" y1="152" y2="152"/>
<line x1="60" x2="60" y1="24" y2="152"/>
<line x1="60" x2="84" y1="24" y2="24"/>
<line x1="60" x2="84" y1="152" y2="152"/>
<line x1="84" x2="84" y1="24" y2="152"/>
</g>
<g>
<line x1="4" x2="4" y1="216" y2="344"/>
<line x1="4" x2="28" y1="216" y2="216"/>
<line x1="4" x2="28" y1="344" y2="344"/>
<line x1="28" x2="28" y1="216" y2="344"/>
<line x1="28" x2="60" y1="216" y2="216"/>
<line x1="28" x2="60" y1="344" y2="344"/>
<line x1="60" x2="60" y1="216" y2="344"/>
<line x1="60" x2="84" y1="216" y2="216"/>
<line x1="60" x2="84" y1="344" y2="344"/>
<line x1="84" x2="84" y1="216" y2="344"/>
</g>
<g>
<line x1="84" x2="144" y1="56" y2="56"/>
<path d="M 148 60 A 4 4 0 0 0 144 56"/>
</g>
<g>
<line x1="84" x2="128" y1="72" y2="72"/>
<path d="M 132 76 A 4 4 0 0 0 128 72"/>
</g>
<g>
<line x1="84" x2="144" y1="328" y2="328"/>
<path d="M 144 328 A 4 4 0 0 0 148 324"/>
</g>
<g>
<line x1="132" x2="132" y1="76" y2="132"/>
<path d="M 132 132 A 4 4 0 0 0 136 136"/>
</g>
<g>
<line marker-end="url(#triangle)" x1="136" x2="164" y1="136" y2="136"/>
</g>
<g>
<line x1="148" x2="148" y1="60" y2="116"/>
<path d="M 148 116 A 4 4 0 0 0 152 120"/>
</g>
<g>
<line x1="148" x2="148" y1="284" y2="324"/>
<path d="M 152 280 A 4 4 0 0 0 148 284"/>
</g>
<g>
<line marker-end="url(#triangle)" x1="152" x2="164" y1="120" y2="120"/>
</g>
<g>
<line marker-end="url(#triangle)" x1="152" x2="164" y1="280" y2="280"/>
</g>
<g>
<line x1="180" x2="180" y1="24" y2="152"/>
<line x1="180" x2="204" y1="24" y2="24"/>
<line x1="180" x2="204" y1="152" y2="152"/>
<line x1="204" x2="204" y1="24" y2="152"/>
<line x1="204" x2="236" y1="24" y2="24"/>
<line x1="204" x2="236" y1="152" y2="152"/>
<line x1="236" x2="236" y1="24" y2="152"/>
<line x1="236" x2="260" y1="24" y2="24"/>
<line x1="236" x2="260" y1="152" y2="152"/>
<line x1="260" x2="260" y1="24" y2="152"/>
</g>
<g>
<line x1="180" x2="180" y1="216" y2="344"/>
<line x1="180" x2="204" y1="216" y2="216"/>
<line x1="180" x2="204" y1="344" y2="344"/>
<line x1="204" x2="204" y1="216" y2="344"/>
<line x1="204" x2="236" y1="216" y2="216"/>
<line x1="204" x2="236" y1="344" y2="344"/>
<line x1="236" x2="236" y1="216" y2="344"/>
<line x1="236" x2="260" y1="216" y2="216"/>
<line x1="236" x2="260" y1="344" y2="344"/>
<line x1="260" x2="260" y1="216" y2="344"/>
</g>
<g>
<line x1="260" x2="304" y1="120" y2="120"/>
<path d="M 304 120 A 4 4 0 0 0 308 116"/>
</g>
<g>
<line x1="260" x2="320" y1="136" y2="136"/>
<path d="M 320 136 A 4 4 0 0 0 324 132"/>
</g>
<g>
<line x1="260" x2="320" y1="280" y2="280"/>
<path d="M 324 284 A 4 4 0 0 0 320 280"/>
</g>
<g>
<line x1="308" x2="308" y1="76" y2="116"/>
<path d="M 312 72 A 4 4 0 0 0 308 76"/>
</g>
<g>
<line marker-end="url(#triangle)" x1="312" x2="340" y1="72" y2="72"/>
</g>
<g>
<line x1="324" x2="324" y1="92" y2="132"/>
<path d="M 328 88 A 4 4 0 0 0 324 92"/>
</g>
<g>
<line x1="324" x2="324" y1="284" y2="292"/>
<path d="M 324 292 A 4 4 0 0 0 328 296"/>
</g>
<g>
<line marker-end="url(#triangle)" x1="328" x2="340" y1="88" y2="88"/>
</g>
<g>
<line marker-end="url(#triangle)" x1="328" x2="340" y1="296" y2="296"/>
</g>
<g>
<line x1="356" x2="356" y1="24" y2="152"/>
<line x1="356" x2="380" y1="24" y2="24"/>
<line x1="356" x2="380" y1="152" y2="152"/>
<line x1="380" x2="380" y1="24" y2="152"/>
<line x1="380" x2="412" y1="24" y2="24"/>
<line x1="380" x2="412" y1="152" y2="152"/>
<line x1="412" x2="412" y1="24" y2="152"/>
<line x1="412" x2="436" y1="24" y2="24"/>
<line x1="412" x2="436" y1="152" y2="152"/>
<line x1="436" x2="436" y1="24" y2="152"/>
</g>
<g>
<line x1="356" x2="356" y1="216" y2="344"/>
<line x1="356" x2="380" y1="216" y2="216"/>
<line x1="356" x2="380" y1="344" y2="344"/>
<line x1="380" x2="380" y1="216" y2="344"/>
<line x1="380" x2="412" y1="216" y2="216"/>
<line x1="380" x2="412" y1="344" y2="344"/>
<line x1="412" x2="412" y1="216" y2="344"/>
<line x1="412" x2="436" y1="216" y2="216"/>
<line x1="412" x2="436" y1="344" y2="344"/>
<line x1="436" x2="436" y1="216" y2="344"/>
</g>
<g>
<line x1="436" x2="496" y1="72" y2="72"/>
<path d="M 500 76 A 4 4 0 0 0 496 72"/>
</g>
<g>
<line marker-end="url(#triangle)" x1="436" x2="508" y1="296" y2="296"/>
</g>
<g>
<line x1="500" x2="500" y1="76" y2="132"/>
<path d="M 500 132 A 4 4 0 0 0 504 136"/>
</g>
<g>
<line marker-end="url(#triangle)" x1="504" x2="516" y1="136" y2="136"/>
</g>
<g>
<line x1="532" x2="532" y1="24" y2="152"/>
<line x1="532" x2="556" y1="24" y2="24"/>
<line x1="532" x2="556" y1="152" y2="152"/>
<line x1="556" x2="556" y1="24" y2="152"/>
<line x1="556" x2="588" y1="24" y2="24"/>
<line x1="556" x2="588" y1="152" y2="152"/>
<line x1="588" x2="588" y1="24" y2="152"/>
<line x1="588" x2="612" y1="24" y2="24"/>
<line x1="588" x2="612" y1="152" y2="152"/>
<line x1="612" x2="612" y1="24" y2="152"/>
</g>
<g>
<text x="1" y="12">
PHASE 1: WALK TO FIND nana IN banana¶
</text>
</g>
<g>
<text x="1" y="204">
PHASE 2: WALK TO COMPUTE MISSING first_idx AT END OF nana SEARCH ABOVE
</text>
</g>
<g>
<text x="1" y="380">
RESULT: nana OCCURS IN banana¶ AT INDEX 2
</text>
</g>
<g>
<text x="9" y="44">
¶1
</text>
</g>
<g>
<text x="9" y="60">
a3
</text>
</g>
<g>
<text x="9" y="76">
a2
</text>
</g>
<g>
<text x="9" y="92">
a1
</text>
</g>
<g>
<text x="9" y="108">
b1
</text>
</g>
<g>
<text x="9" y="124">
n2
</text>
</g>
<g>
<text x="9" y="140">
n1
</text>
</g>
<g>
<text x="9" y="236">
¶1
</text>
</g>
<g>
<text x="9" y="252">
a3
</text>
</g>
<g>
<text x="9" y="268">
a2
</text>
</g>
<g>
<text x="9" y="284">
a1
</text>
</g>
<g>
<text x="9" y="300">
b1
</text>
</g>
<g>
<text x="9" y="316">
n2
</text>
</g>
<g>
<text x="9" y="332">
n1
</text>
</g>
<g>
<text x="41" y="44">
6
</text>
</g>
<g>
<text x="41" y="76">
3
</text>
</g>
<g>
<text x="41" y="108">
0
</text>
</g>
<g>
<text x="41" y="236">
6
</text>
</g>
<g>
<text x="41" y="268">
3
</text>
</g>
<g>
<text x="41" y="300">
0
</text>
</g>
<g>
<text x="65" y="44">
a3
</text>
</g>
<g>
<text x="65" y="60">
n2
</text>
</g>
<g>
<text x="65" y="76">
n1
</text>
</g>
<g>
<text x="65" y="92">
b1
</text>
</g>
<g>
<text x="65" y="108">
¶1
</text>
</g>
<g>
<text x="65" y="124">
a2
</text>
</g>
<g>
<text x="65" y="140">
a1
</text>
</g>
<g>
<text x="65" y="236">
a3
</text>
</g>
<g>
<text x="65" y="252">
n2
</text>
</g>
<g>
<text x="65" y="268">
n1
</text>
</g>
<g>
<text x="65" y="284">
b1
</text>
</g>
<g>
<text x="65" y="300">
¶1
</text>
</g>
<g>
<text x="65" y="316">
a2
</text>
</g>
<g>
<text x="65" y="332">
a1
</text>
</g>
<g>
<text x="113" y="316">
1
</text>
</g>
<g>
<text x="129" y="44">
na
</text>
</g>
<g>
<text x="185" y="44">
¶1
</text>
</g>
<g>
<text x="185" y="60">
a3
</text>
</g>
<g>
<text x="185" y="76">
a2
</text>
</g>
<g>
<text x="185" y="92">
a1
</text>
</g>
<g>
<text x="185" y="108">
b1
</text>
</g>
<g>
<text x="185" y="124">
n2
</text>
</g>
<g>
<text x="185" y="140">
n1
</text>
</g>
<g>
<text x="185" y="236">
¶1
</text>
</g>
<g>
<text x="185" y="252">
a3
</text>
</g>
<g>
<text x="185" y="268">
a2
</text>
</g>
<g>
<text x="185" y="284">
a1
</text>
</g>
<g>
<text x="185" y="300">
b1
</text>
</g>
<g>
<text x="185" y="316">
n2
</text>
</g>
<g>
<text x="185" y="332">
n1
</text>
</g>
<g>
<text x="217" y="44">
6
</text>
</g>
<g>
<text x="217" y="76">
3
</text>
</g>
<g>
<text x="217" y="108">
0
</text>
</g>
<g>
<text x="217" y="236">
6
</text>
</g>
<g>
<text x="217" y="268">
3
</text>
</g>
<g>
<text x="217" y="300">
0
</text>
</g>
<g>
<text x="241" y="44">
a3
</text>
</g>
<g>
<text x="241" y="60">
n2
</text>
</g>
<g>
<text x="241" y="76">
n1
</text>
</g>
<g>
<text x="241" y="92">
b1
</text>
</g>
<g>
<text x="241" y="108">
¶1
</text>
</g>
<g>
<text x="241" y="124">
a2
</text>
</g>
<g>
<text x="241" y="140">
a1
</text>
</g>
<g>
<text x="241" y="236">
a3
</text>
</g>
<g>
<text x="241" y="252">
n2
</text>
</g>
<g>
<text x="241" y="268">
n1
</text>
</g>
<g>
<text x="241" y="284">
b1
</text>
</g>
<g>
<text x="241" y="300">
¶1
</text>
</g>
<g>
<text x="241" y="316">
a2
</text>
</g>
<g>
<text x="241" y="332">
a1
</text>
</g>
<g>
<text x="297" y="156">
ana
</text>
</g>
<g>
<text x="297" y="268">
2
</text>
</g>
<g>
<text x="361" y="44">
¶1
</text>
</g>
<g>
<text x="361" y="60">
a3
</text>
</g>
<g>
<text x="361" y="76">
a2
</text>
</g>
<g>
<text x="361" y="92">
a1
</text>
</g>
<g>
<text x="361" y="108">
b1
</text>
</g>
<g>
<text x="361" y="124">
n2
</text>
</g>
<g>
<text x="361" y="140">
n1
</text>
</g>
<g>
<text x="361" y="236">
¶1
</text>
</g>
<g>
<text x="361" y="252">
a3
</text>
</g>
<g>
<text x="361" y="268">
a2
</text>
</g>
<g>
<text x="361" y="284">
a1
</text>
</g>
<g>
<text x="361" y="300">
b1
</text>
</g>
<g>
<text x="361" y="316">
n2
</text>
</g>
<g>
<text x="361" y="332">
n1
</text>
</g>
<g>
<text x="393" y="44">
6
</text>
</g>
<g>
<text x="393" y="76">
3
</text>
</g>
<g>
<text x="393" y="108">
0
</text>
</g>
<g>
<text x="393" y="236">
6
</text>
</g>
<g>
<text x="393" y="268">
3
</text>
</g>
<g>
<text x="393" y="300">
0
</text>
</g>
<g>
<text x="417" y="44">
a3
</text>
</g>
<g>
<text x="417" y="60">
n2
</text>
</g>
<g>
<text x="417" y="76">
n1
</text>
</g>
<g>
<text x="417" y="92">
b1
</text>
</g>
<g>
<text x="417" y="108">
¶1
</text>
</g>
<g>
<text x="417" y="124">
a2
</text>
</g>
<g>
<text x="417" y="140">
a1
</text>
</g>
<g>
<text x="417" y="236">
a3
</text>
</g>
<g>
<text x="417" y="252">
n2
</text>
</g>
<g>
<text x="417" y="268">
n1
</text>
</g>
<g>
<text x="417" y="284">
b1
</text>
</g>
<g>
<text x="417" y="300">
¶1
</text>
</g>
<g>
<text x="417" y="316">
a2
</text>
</g>
<g>
<text x="417" y="332">
a1
</text>
</g>
<g>
<text x="449" y="284">
0+2=2
</text>
</g>
<g>
<text x="465" y="60">
nana
</text>
</g>
<g>
<text x="537" y="44">
¶1
</text>
</g>
<g>
<text x="537" y="60">
a3
</text>
</g>
<g>
<text x="537" y="76">
a2
</text>
</g>
<g>
<text x="537" y="92">
a1
</text>
</g>
<g>
<text x="537" y="108">
b1
</text>
</g>
<g>
<text x="537" y="124">
n2
</text>
</g>
<g>
<text x="537" y="140">
n1
</text>
</g>
<g>
<text x="569" y="44">
6
</text>
</g>
<g>
<text x="569" y="76">
3
</text>
</g>
<g>
<text x="569" y="108">
0
</text>
</g>
<g>
<text x="593" y="44">
a3
</text>
</g>
<g>
<text x="593" y="60">
n2
</text>
</g>
<g>
<text x="593" y="76">
n1
</text>
</g>
<g>
<text x="593" y="92">
b1
</text>
</g>
<g>
<text x="593" y="108">
¶1
</text>
</g>
<g>
<text x="593" y="124">
a2
</text>
</g>
<g>
<text x="593" y="140">
a1
</text>
</g>
</svg>
