<svg class="bob" font-family="arial" font-size="14" height="144" width="336" xmlns="http://www.w3.org/2000/svg">
<defs>
<marker id="triangle" markerHeight="8" markerWidth="8" orient="auto" refX="4" refY="2" viewBox="0 0 8 4">
<polygon class="fg_fill" points="0,0 0,4 8,2 0,0"/>
</marker>
<marker id="clear_triangle" markerHeight="10" markerWidth="10" orient="auto" refX="1" refY="7" viewBox="0 0 20 14">
<polygon class="bg_fill" points="2,2 2,12 18,7 2,2"/>
</marker>
<marker id="circle" markerHeight="5" markerWidth="5" orient="auto" refX="10" refY="10" viewBox="0 0 20 20">
<circle class="fg_fill" cx="10" cy="10" r="8"/>
</marker>
<marker id="square" markerHeight="5" markerWidth="5" orient="auto" refX="10" refY="10" viewBox="0 0 20 20">
<rect class="fg_fill" height="20" width="20" x="0" y="0"/>
</marker>
<marker id="open_circle" markerHeight="10" markerWidth="10" orient="auto" refX="10" refY="10" viewBox="0 0 20 20">
<circle class="bg_fill" cx="10" cy="10" r="4"/>
</marker>
<marker id="big_open_circle" markerHeight="20" markerWidth="20" orient="auto" refX="20" refY="20" viewBox="0 0 40 40">
<circle class="bg_fill" cx="20" cy="20" r="6"/>
</marker>
</defs>
<style type="text/css">

rect.backdrop {
    fill: white;
}
text{
    fill: black;
}

circle {
    fill: none;
    stroke: black;
    stroke-width: 2;
}

line {
    stroke: black;
    stroke-width: 2;
    stroke-opacity: 1;
    fill-opacity: 1;
    stroke-linecap: round;
    stroke-linejoin: miter;
}

path {
    fill: none;
    stroke: black;
    stroke-width: 2;
    stroke-opacity: 1;
    fill-opacity: 1;
    stroke-linecap: round;
    stroke-linejoin: miter;
}

line.dashed {
    stroke-dasharray: 5;
}

.fg_fill {
    fill: black;
}


.bg_fill {
    fill: white;
    stroke: black;
    stroke-width: 2;
}

tspan.head{
    fill: none;
    stroke: none;
}
    
</style>
<rect class="backdrop" height="144" width="336" x="0" y="0"/>
<g>
<line x1="4" x2="4" y1="0" y2="40"/>
<line x1="4" x2="4" y1="40" y2="88"/>
<line x1="4" x2="12" y1="40" y2="40"/>
<line x1="4" x2="4" y1="88" y2="136"/>
<line x1="4" x2="12" y1="88" y2="88"/>
<line x1="4" x2="12" y1="136" y2="136"/>
<line x1="12" x2="12" y1="12" y2="40"/>
<line x1="12" x2="28" y1="40" y2="40"/>
<line x1="12" x2="12" y1="60" y2="88"/>
<line x1="12" x2="28" y1="88" y2="88"/>
<line x1="12" x2="12" y1="108" y2="136"/>
<line x1="12" x2="28" y1="136" y2="136"/>
<line x1="28" x2="28" y1="12" y2="40"/>
<line x1="28" x2="36" y1="40" y2="40"/>
<line x1="28" x2="28" y1="60" y2="88"/>
<line x1="28" x2="36" y1="88" y2="88"/>
<line x1="28" x2="28" y1="108" y2="136"/>
<line x1="28" x2="36" y1="136" y2="136"/>
<line x1="36" x2="36" y1="12" y2="40"/>
<line x1="36" x2="52" y1="40" y2="40"/>
<line x1="36" x2="36" y1="60" y2="88"/>
<line x1="36" x2="52" y1="88" y2="88"/>
<line x1="36" x2="36" y1="108" y2="136"/>
<line x1="36" x2="52" y1="136" y2="136"/>
<line x1="52" x2="52" y1="12" y2="40"/>
<line x1="52" x2="156" y1="40" y2="40"/>
<line x1="52" x2="52" y1="60" y2="88"/>
<line x1="52" x2="60" y1="88" y2="88"/>
<line x1="52" x2="52" y1="108" y2="136"/>
<line x1="52" x2="60" y1="136" y2="136"/>
<line x1="60" x2="60" y1="60" y2="88"/>
<line x1="60" x2="76" y1="88" y2="88"/>
<line x1="60" x2="60" y1="108" y2="136"/>
<line x1="60" x2="76" y1="136" y2="136"/>
<line x1="76" x2="76" y1="60" y2="88"/>
<line x1="76" x2="156" y1="88" y2="88"/>
<line x1="76" x2="76" y1="108" y2="136"/>
<line x1="76" x2="84" y1="136" y2="136"/>
<line x1="84" x2="84" y1="108" y2="136"/>
<line x1="84" x2="100" y1="136" y2="136"/>
<line x1="100" x2="100" y1="108" y2="136"/>
<line x1="100" x2="108" y1="136" y2="136"/>
<line x1="108" x2="108" y1="108" y2="136"/>
<line x1="108" x2="124" y1="136" y2="136"/>
<line x1="124" x2="124" y1="108" y2="136"/>
<line x1="124" x2="156" y1="136" y2="136"/>
<line x1="156" x2="156" y1="0" y2="40"/>
<line x1="156" x2="156" y1="40" y2="88"/>
<line x1="156" x2="156" y1="88" y2="136"/>
<path d="M 16 8 A 4 4 0 0 0 12 12"/>
<path d="M 16 56 A 4 4 0 0 0 12 60"/>
<path d="M 16 104 A 4 4 0 0 0 12 108"/>
<path d="M 28 12 A 4 4 0 0 0 24 8"/>
<path d="M 28 60 A 4 4 0 0 0 24 56"/>
<path d="M 28 108 A 4 4 0 0 0 24 104"/>
<path d="M 40 8 A 4 4 0 0 0 36 12"/>
<path d="M 40 56 A 4 4 0 0 0 36 60"/>
<path d="M 40 104 A 4 4 0 0 0 36 108"/>
<path d="M 52 12 A 4 4 0 0 0 48 8"/>
<path d="M 52 60 A 4 4 0 0 0 48 56"/>
<path d="M 52 108 A 4 4 0 0 0 48 104"/>
<path d="M 64 56 A 4 4 0 0 0 60 60"/>
<path d="M 64 104 A 4 4 0 0 0 60 108"/>
<path d="M 76 60 A 4 4 0 0 0 72 56"/>
<path d="M 76 108 A 4 4 0 0 0 72 104"/>
<path d="M 88 104 A 4 4 0 0 0 84 108"/>
<path d="M 100 108 A 4 4 0 0 0 96 104"/>
<path d="M 112 104 A 4 4 0 0 0 108 108"/>
<path d="M 124 108 A 4 4 0 0 0 120 104"/>
</g>
<g>
<line x1="16" x2="24" y1="8" y2="8"/>
</g>
<g>
<line x1="16" x2="24" y1="56" y2="56"/>
</g>
<g>
<line x1="16" x2="24" y1="104" y2="104"/>
</g>
<g>
<line x1="40" x2="48" y1="8" y2="8"/>
</g>
<g>
<line x1="40" x2="48" y1="56" y2="56"/>
</g>
<g>
<line x1="40" x2="48" y1="104" y2="104"/>
</g>
<g>
<line x1="64" x2="72" y1="56" y2="56"/>
</g>
<g>
<line x1="64" x2="72" y1="104" y2="104"/>
</g>
<g>
<line x1="88" x2="96" y1="104" y2="104"/>
</g>
<g>
<line x1="112" x2="120" y1="104" y2="104"/>
</g>
<g>
<text x="169" y="28">
shelf 1 has 2 books
</text>
</g>
<g>
<text x="169" y="76">
shelf 2 has 3 books
</text>
</g>
<g>
<text x="169" y="124">
shelf 3 has 5 books
</text>
</g>
</svg>
