<?xml version="1.0" encoding="UTF-8" standalone="no"?>
<!DOCTYPE svg PUBLIC "-//W3C//DTD SVG 1.1//EN"
 "http://www.w3.org/Graphics/SVG/1.1/DTD/svg11.dtd">
<!-- Generated by graphviz version 2.40.1 (0)
 -->
<!-- Title: G Pages: 1 -->
<svg width="221pt" height="276pt"
 viewBox="0.00 0.00 221.00 276.00" xmlns="http://www.w3.org/2000/svg" xmlns:xlink="http://www.w3.org/1999/xlink">
<g id="graph0" class="graph" transform="scale(1 1) rotate(0) translate(4 272)">
<title>G</title>
<polygon fill="#ffffff" stroke="transparent" points="-4,4 -4,-272 217,-272 217,4 -4,4"/>
<!-- N1 -->
<g id="node1" class="node">
<title>N1</title>
<ellipse fill="none" stroke="#000000" cx="102.5" cy="-108.5" rx="14.5" ry="14.5"/>
<text text-anchor="middle" x="102.5" y="-106" font-family="Courier,monospace" font-weight="bold" font-size="10.00" fill="#000000">N1</text>
</g>
<!-- i0 -->
<g id="node2" class="node">
<title>i0</title>
<ellipse fill="none" stroke="#000000" cx="198.5" cy="-186.5" rx="14.5" ry="14.5"/>
<text text-anchor="middle" x="198.5" y="-184" font-family="Courier,monospace" font-weight="bold" font-size="10.00" fill="#000000">i0</text>
</g>
<!-- N1&#45;&#45;i0 -->
<g id="edge2" class="edge">
<title>N1&#45;&#45;i0</title>
<path fill="none" stroke="#000000" d="M115.1527,-116.51C128.3261,-125.0654 149.3257,-139.3188 166,-153.5 174.0855,-160.3766 182.4736,-168.9354 188.7025,-175.6133"/>
<text text-anchor="middle" x="150.5" y="-156.5" font-family="Courier,monospace" font-weight="bold" font-size="10.00" fill="#000000">4.0</text>
</g>
<!-- v5 -->
<g id="node9" class="node">
<title>v5</title>
<ellipse fill="none" stroke="#000000" cx="198.5" cy="-98.5" rx="14.5" ry="14.5"/>
<text text-anchor="middle" x="198.5" y="-96" font-family="Courier,monospace" font-weight="bold" font-size="10.00" fill="#000000">v5</text>
</g>
<!-- N1&#45;&#45;v5 -->
<g id="edge3" class="edge">
<title>N1&#45;&#45;v5</title>
<path fill="none" stroke="#000000" d="M116.2522,-103.8571C121.9792,-102.1434 128.7414,-100.4008 135,-99.5 151.5881,-97.1124 170.864,-97.2076 183.7881,-97.6789"/>
<text text-anchor="middle" x="150.5" y="-102.5" font-family="Courier,monospace" font-weight="bold" font-size="10.00" fill="#000000">7.0</text>
</g>
<!-- i2 -->
<g id="node3" class="node">
<title>i2</title>
<ellipse fill="none" stroke="#000000" cx="14.5" cy="-61.5" rx="14.5" ry="14.5"/>
<text text-anchor="middle" x="14.5" y="-59" font-family="Courier,monospace" font-weight="bold" font-size="10.00" fill="#000000">i2</text>
</g>
<!-- i2&#45;&#45;N1 -->
<g id="edge1" class="edge">
<title>i2&#45;&#45;N1</title>
<path fill="none" stroke="#000000" d="M27.4847,-68.435C44.1226,-77.3211 72.7985,-92.6367 89.462,-101.5365"/>
<text text-anchor="middle" x="58.5" y="-93.5" font-family="Courier,monospace" font-weight="bold" font-size="10.00" fill="#000000">3.0</text>
</g>
<!-- v3 -->
<g id="node7" class="node">
<title>v3</title>
<ellipse fill="none" stroke="#000000" cx="102.5" cy="-61.5" rx="14.5" ry="14.5"/>
<text text-anchor="middle" x="102.5" y="-59" font-family="Courier,monospace" font-weight="bold" font-size="10.00" fill="#000000">v3</text>
</g>
<!-- i2&#45;&#45;v3 -->
<g id="edge4" class="edge">
<title>i2&#45;&#45;v3</title>
<path fill="none" stroke="#000000" d="M29.0314,-61.5C45.3364,-61.5 71.6332,-61.5 87.947,-61.5"/>
<text text-anchor="middle" x="58.5" y="-64.5" font-family="Courier,monospace" font-weight="bold" font-size="10.00" fill="#000000">3.0</text>
</g>
<!-- v4 -->
<g id="node8" class="node">
<title>v4</title>
<ellipse fill="none" stroke="#000000" cx="102.5" cy="-14.5" rx="14.5" ry="14.5"/>
<text text-anchor="middle" x="102.5" y="-12" font-family="Courier,monospace" font-weight="bold" font-size="10.00" fill="#000000">v4</text>
</g>
<!-- i2&#45;&#45;v4 -->
<g id="edge5" class="edge">
<title>i2&#45;&#45;v4</title>
<path fill="none" stroke="#000000" d="M27.4847,-54.565C44.1226,-45.6789 72.7985,-30.3633 89.462,-21.4635"/>
<text text-anchor="middle" x="58.5" y="-47.5" font-family="Courier,monospace" font-weight="bold" font-size="10.00" fill="#000000">4.0</text>
</g>
<!-- v0 -->
<g id="node4" class="node">
<title>v0</title>
<ellipse fill="none" stroke="#000000" cx="102.5" cy="-253.5" rx="14.5" ry="14.5"/>
<text text-anchor="middle" x="102.5" y="-251" font-family="Courier,monospace" font-weight="bold" font-size="10.00" fill="#000000">v0</text>
</g>
<!-- v0&#45;&#45;i0 -->
<g id="edge6" class="edge">
<title>v0&#45;&#45;i0</title>
<path fill="none" stroke="#000000" d="M115.4734,-246.0086C128.5404,-238.3069 149.1268,-225.7426 166,-213.5 173.3622,-208.1583 181.2174,-201.6566 187.3607,-196.372"/>
<text text-anchor="middle" x="150.5" y="-236.5" font-family="Courier,monospace" font-weight="bold" font-size="10.00" fill="#000000">11.0</text>
</g>
<!-- v1 -->
<g id="node5" class="node">
<title>v1</title>
<ellipse fill="none" stroke="#000000" cx="102.5" cy="-206.5" rx="14.5" ry="14.5"/>
<text text-anchor="middle" x="102.5" y="-204" font-family="Courier,monospace" font-weight="bold" font-size="10.00" fill="#000000">v1</text>
</g>
<!-- v1&#45;&#45;i0 -->
<g id="edge7" class="edge">
<title>v1&#45;&#45;i0</title>
<path fill="none" stroke="#000000" d="M117.0803,-203.4624C135.2289,-199.6815 166.0313,-193.2643 184.097,-189.5006"/>
<text text-anchor="middle" x="150.5" y="-201.5" font-family="Courier,monospace" font-weight="bold" font-size="10.00" fill="#000000">2.0</text>
</g>
<!-- v2 -->
<g id="node6" class="node">
<title>v2</title>
<ellipse fill="none" stroke="#000000" cx="102.5" cy="-159.5" rx="14.5" ry="14.5"/>
<text text-anchor="middle" x="102.5" y="-157" font-family="Courier,monospace" font-weight="bold" font-size="10.00" fill="#000000">v2</text>
</g>
<!-- v2&#45;&#45;i0 -->
<g id="edge8" class="edge">
<title>v2&#45;&#45;i0</title>
<path fill="none" stroke="#000000" d="M116.6651,-163.4839C134.8155,-168.5887 166.0984,-177.387 184.2768,-182.4997"/>
<text text-anchor="middle" x="150.5" y="-179.5" font-family="Courier,monospace" font-weight="bold" font-size="10.00" fill="#000000">10.0</text>
</g>
</g>
</svg>
