<svg class="bob" font-family="arial" font-size="14" height="416" width="376" xmlns="http://www.w3.org/2000/svg">
<defs>
<marker id="triangle" markerHeight="8" markerWidth="8" orient="auto" refX="4" refY="2" viewBox="0 0 8 4">
<polygon class="fg_fill" points="0,0 0,4 8,2 0,0"/>
</marker>
<marker id="clear_triangle" markerHeight="10" markerWidth="10" orient="auto" refX="1" refY="7" viewBox="0 0 20 14">
<polygon class="bg_fill" points="2,2 2,12 18,7 2,2"/>
</marker>
<marker id="circle" markerHeight="5" markerWidth="5" orient="auto" refX="10" refY="10" viewBox="0 0 20 20">
<circle class="fg_fill" cx="10" cy="10" r="8"/>
</marker>
<marker id="square" markerHeight="5" markerWidth="5" orient="auto" refX="10" refY="10" viewBox="0 0 20 20">
<rect class="fg_fill" height="20" width="20" x="0" y="0"/>
</marker>
<marker id="open_circle" markerHeight="10" markerWidth="10" orient="auto" refX="10" refY="10" viewBox="0 0 20 20">
<circle class="bg_fill" cx="10" cy="10" r="4"/>
</marker>
<marker id="big_open_circle" markerHeight="20" markerWidth="20" orient="auto" refX="20" refY="20" viewBox="0 0 40 40">
<circle class="bg_fill" cx="20" cy="20" r="6"/>
</marker>
</defs>
<style type="text/css">

rect.backdrop {
    fill: white;
}
text{
    fill: black;
}

circle {
    fill: none;
    stroke: black;
    stroke-width: 2;
}

line {
    stroke: black;
    stroke-width: 2;
    stroke-opacity: 1;
    fill-opacity: 1;
    stroke-linecap: round;
    stroke-linejoin: miter;
}

path {
    fill: none;
    stroke: black;
    stroke-width: 2;
    stroke-opacity: 1;
    fill-opacity: 1;
    stroke-linecap: round;
    stroke-linejoin: miter;
}

line.dashed {
    stroke-dasharray: 5;
}

.fg_fill {
    fill: black;
}


.bg_fill {
    fill: white;
    stroke: black;
    stroke-width: 2;
}

tspan.head{
    fill: none;
    stroke: none;
}
    
</style>
<rect class="backdrop" height="416" width="376" x="0" y="0"/>
<g>
<line x1="4" x2="4" y1="104" y2="136"/>
<line x1="4" x2="84" y1="104" y2="104"/>
<line x1="4" x2="28" y1="136" y2="136"/>
<line x1="28" x2="28" y1="136" y2="144"/>
<line x1="28" x2="44" y1="136" y2="136"/>
<line x1="44" x2="44" y1="136" y2="144"/>
<line x1="44" x2="60" y1="136" y2="136"/>
<line x1="60" x2="60" y1="136" y2="144"/>
<line x1="60" x2="116" y1="136" y2="136"/>
<line x1="84" x2="84" y1="76" y2="104"/>
<line x1="84" x2="100" y1="104" y2="104"/>
<line x1="100" x2="100" y1="92" y2="104"/>
<line x1="100" x2="116" y1="104" y2="104"/>
<line x1="116" x2="116" y1="104" y2="136"/>
<line class="dashed" x1="28" x2="28" y1="144" y2="384"/>
<line class="dashed" x1="44" x2="44" y1="144" y2="320"/>
<line class="dashed" x1="60" x2="60" y1="144" y2="256"/>
<path d="M 88 72 A 4 4 0 0 0 84 76"/>
<path d="M 104 88 A 4 4 0 0 0 100 92"/>
</g>
<g>
<line x1="28" x2="28" y1="388" y2="384"/>
<path d="M 28 388 A 4 4 0 0 0 32 392"/>
</g>
<g>
<line x1="44" x2="44" y1="324" y2="320"/>
<path d="M 44 324 A 4 4 0 0 0 48 328"/>
</g>
<g>
<line marker-end="url(#triangle)" x1="52" x2="52" y1="28" y2="92"/>
<path d="M 56 24 A 4 4 0 0 0 52 28"/>
</g>
<g>
<line x1="56" x2="156" y1="24" y2="24"/>
<line x1="156" x2="156" y1="8" y2="24"/>
<line x1="156" x2="228" y1="8" y2="8"/>
<line x1="156" x2="156" y1="24" y2="40"/>
<line x1="156" x2="228" y1="40" y2="40"/>
<line x1="228" x2="228" y1="8" y2="24"/>
<line x1="228" x2="228" y1="24" y2="40"/>
<line x1="228" x2="320" y1="24" y2="24"/>
<path d="M 324 28 A 4 4 0 0 0 320 24"/>
</g>
<g>
<line x1="60" x2="60" y1="260" y2="256"/>
<path d="M 60 260 A 4 4 0 0 0 64 264"/>
</g>
<g>
<line marker-end="url(#triangle)" x1="84" x2="84" y1="160" y2="148"/>
<line x1="84" x2="84" y1="160" y2="196"/>
<path d="M 84 196 A 4 4 0 0 0 88 200"/>
</g>
<g>
<line x1="88" x2="288" y1="72" y2="72"/>
<path d="M 292 76 A 4 4 0 0 0 288 72"/>
</g>
<g>
<line x1="88" x2="288" y1="200" y2="200"/>
<path d="M 288 200 A 4 4 0 0 0 292 196"/>
</g>
<g>
<line marker-end="url(#triangle)" x1="100" x2="100" y1="160" y2="148"/>
<line x1="100" x2="100" y1="160" y2="180"/>
<path d="M 100 180 A 4 4 0 0 0 104 184"/>
</g>
<g>
<line x1="104" x2="128" y1="88" y2="88"/>
<path d="M 132 92 A 4 4 0 0 0 128 88"/>
</g>
<g>
<line x1="104" x2="128" y1="184" y2="184"/>
<path d="M 128 184 A 4 4 0 0 0 132 180"/>
</g>
<g>
<line x1="132" x2="132" y1="92" y2="180"/>
</g>
<g>
<line marker-end="url(#triangle)" x1="152" x2="156" y1="264" y2="264"/>
<line class="dashed" x1="64" x2="152" y1="264" y2="264"/>
</g>
<g>
<line marker-end="url(#triangle)" x1="152" x2="156" y1="328" y2="328"/>
<line class="dashed" x1="48" x2="152" y1="328" y2="328"/>
</g>
<g>
<line marker-end="url(#triangle)" x1="152" x2="156" y1="392" y2="392"/>
<line class="dashed" x1="32" x2="152" y1="392" y2="392"/>
</g>
<g>
<line x1="164" x2="164" y1="248" y2="256"/>
<line x1="164" x2="168" y1="248" y2="248"/>
<line class="dashed" x1="164" x2="164" y1="256" y2="272"/>
<line class="dashed" x1="168" x2="224" y1="248" y2="248"/>
</g>
<g>
<line x1="164" x2="164" y1="280" y2="272"/>
<line x1="164" x2="168" y1="280" y2="280"/>
<line class="dashed" x1="168" x2="224" y1="280" y2="280"/>
</g>
<g>
<line x1="164" x2="164" y1="312" y2="320"/>
<line x1="164" x2="168" y1="312" y2="312"/>
<line class="dashed" x1="164" x2="164" y1="320" y2="336"/>
<line class="dashed" x1="168" x2="224" y1="312" y2="312"/>
</g>
<g>
<line x1="164" x2="164" y1="344" y2="336"/>
<line x1="164" x2="168" y1="344" y2="344"/>
<line class="dashed" x1="168" x2="224" y1="344" y2="344"/>
</g>
<g>
<line x1="164" x2="164" y1="376" y2="384"/>
<line x1="164" x2="168" y1="376" y2="376"/>
<line class="dashed" x1="164" x2="164" y1="384" y2="400"/>
<line class="dashed" x1="168" x2="224" y1="376" y2="376"/>
</g>
<g>
<line x1="164" x2="164" y1="408" y2="400"/>
<line x1="164" x2="168" y1="408" y2="408"/>
<line class="dashed" x1="168" x2="224" y1="408" y2="408"/>
</g>
<g>
<line x1="228" x2="224" y1="248" y2="248"/>
<line x1="228" x2="228" y1="248" y2="256"/>
<line class="dashed" x1="228" x2="228" y1="256" y2="272"/>
</g>
<g>
<line x1="228" x2="224" y1="280" y2="280"/>
<line x1="228" x2="228" y1="280" y2="272"/>
</g>
<g>
<line x1="228" x2="224" y1="312" y2="312"/>
<line x1="228" x2="228" y1="312" y2="320"/>
<line class="dashed" x1="228" x2="228" y1="320" y2="336"/>
</g>
<g>
<line x1="228" x2="224" y1="344" y2="344"/>
<line x1="228" x2="228" y1="344" y2="336"/>
</g>
<g>
<line x1="228" x2="224" y1="376" y2="376"/>
<line x1="228" x2="228" y1="376" y2="384"/>
<line class="dashed" x1="228" x2="228" y1="384" y2="400"/>
</g>
<g>
<line x1="228" x2="224" y1="408" y2="408"/>
<line x1="228" x2="228" y1="408" y2="400"/>
</g>
<g>
<line marker-end="url(#triangle)" x1="240" x2="236" y1="264" y2="264"/>
<line class="dashed" x1="240" x2="312" y1="264" y2="264"/>
<path d="M 312 264 A 4 4 0 0 0 316 260"/>
</g>
<g>
<line marker-end="url(#triangle)" x1="240" x2="236" y1="328" y2="328"/>
<line class="dashed" x1="240" x2="328" y1="328" y2="328"/>
<path d="M 328 328 A 4 4 0 0 0 332 324"/>
</g>
<g>
<line marker-end="url(#triangle)" x1="240" x2="236" y1="392" y2="392"/>
<line class="dashed" x1="240" x2="344" y1="392" y2="392"/>
<path d="M 344 392 A 4 4 0 0 0 348 388"/>
</g>
<g>
<line x1="244" x2="244" y1="92" y2="180"/>
<path d="M 244 180 A 4 4 0 0 0 248 184"/>
<path d="M 248 88 A 4 4 0 0 0 244 92"/>
</g>
<g>
<line x1="248" x2="272" y1="88" y2="88"/>
<path d="M 276 92 A 4 4 0 0 0 272 88"/>
</g>
<g>
<line x1="248" x2="272" y1="184" y2="184"/>
<path d="M 272 184 A 4 4 0 0 0 276 180"/>
</g>
<g>
<line x1="260" x2="260" y1="104" y2="136"/>
<line x1="260" x2="276" y1="104" y2="104"/>
<line x1="260" x2="292" y1="136" y2="136"/>
<line x1="276" x2="276" y1="92" y2="104"/>
<line x1="276" x2="372" y1="104" y2="104"/>
<line x1="292" x2="292" y1="136" y2="196"/>
<line x1="292" x2="316" y1="136" y2="136"/>
<line x1="316" x2="316" y1="136" y2="144"/>
<line x1="316" x2="332" y1="136" y2="136"/>
<line x1="332" x2="332" y1="136" y2="144"/>
<line x1="332" x2="348" y1="136" y2="136"/>
<line x1="348" x2="348" y1="136" y2="144"/>
<line x1="348" x2="372" y1="136" y2="136"/>
<line x1="372" x2="372" y1="104" y2="136"/>
<line class="dashed" x1="316" x2="316" y1="144" y2="256"/>
<line class="dashed" x1="332" x2="332" y1="144" y2="320"/>
<line class="dashed" x1="348" x2="348" y1="144" y2="384"/>
</g>
<g>
<line marker-end="url(#triangle)" x1="276" x2="276" y1="160" y2="148"/>
<line x1="276" x2="276" y1="160" y2="180"/>
</g>
<g>
<line marker-end="url(#triangle)" x1="292" x2="292" y1="76" y2="92"/>
</g>
<g>
<line x1="316" x2="316" y1="260" y2="256"/>
</g>
<g>
<line marker-end="url(#triangle)" x1="324" x2="324" y1="28" y2="92"/>
</g>
<g>
<line x1="332" x2="332" y1="324" y2="320"/>
</g>
<g>
<line x1="348" x2="348" y1="388" y2="384"/>
</g>
<g>
<text x="17" y="44">
0.5
</text>
</g>
<g>
<text x="49" y="124">
A
</text>
</g>
<g>
<text x="105" y="252">
0.176
</text>
</g>
<g>
<text x="105" y="316">
0.596
</text>
</g>
<g>
<text x="105" y="380">
0.228
</text>
</g>
<g>
<text x="137" y="140">
0.377
</text>
</g>
<g>
<text x="169" y="28">
SOURCE
</text>
</g>
<g>
<text x="169" y="92">
0.623
</text>
</g>
<g>
<text x="169" y="188">
0.26
</text>
</g>
<g>
<text x="193" y="268">
x
</text>
</g>
<g>
<text x="193" y="332">
y
</text>
</g>
<g>
<text x="193" y="396">
z
</text>
</g>
<g>
<text x="201" y="140">
0.74
</text>
</g>
<g>
<text x="249" y="252">
0.225
</text>
</g>
<g>
<text x="249" y="316">
0.572
</text>
</g>
<g>
<text x="249" y="380">
0.203
</text>
</g>
<g>
<text x="305" y="124">
B
</text>
</g>
<g>
<text x="337" y="44">
0.5
</text>
</g>
</svg>
