<svg class="bob" font-family="arial" font-size="14" height="176" width="312" xmlns="http://www.w3.org/2000/svg">
<defs>
<marker id="triangle" markerHeight="8" markerWidth="8" orient="auto" refX="4" refY="2" viewBox="0 0 8 4">
<polygon class="fg_fill" points="0,0 0,4 8,2 0,0"/>
</marker>
<marker id="clear_triangle" markerHeight="10" markerWidth="10" orient="auto" refX="1" refY="7" viewBox="0 0 20 14">
<polygon class="bg_fill" points="2,2 2,12 18,7 2,2"/>
</marker>
<marker id="circle" markerHeight="5" markerWidth="5" orient="auto" refX="10" refY="10" viewBox="0 0 20 20">
<circle class="fg_fill" cx="10" cy="10" r="8"/>
</marker>
<marker id="square" markerHeight="5" markerWidth="5" orient="auto" refX="10" refY="10" viewBox="0 0 20 20">
<rect class="fg_fill" height="20" width="20" x="0" y="0"/>
</marker>
<marker id="open_circle" markerHeight="10" markerWidth="10" orient="auto" refX="10" refY="10" viewBox="0 0 20 20">
<circle class="bg_fill" cx="10" cy="10" r="4"/>
</marker>
<marker id="big_open_circle" markerHeight="20" markerWidth="20" orient="auto" refX="20" refY="20" viewBox="0 0 40 40">
<circle class="bg_fill" cx="20" cy="20" r="6"/>
</marker>
</defs>
<style type="text/css">

rect.backdrop {
    fill: white;
}
text{
    fill: black;
}

circle {
    fill: none;
    stroke: black;
    stroke-width: 2;
}

line {
    stroke: black;
    stroke-width: 2;
    stroke-opacity: 1;
    fill-opacity: 1;
    stroke-linecap: round;
    stroke-linejoin: miter;
}

path {
    fill: none;
    stroke: black;
    stroke-width: 2;
    stroke-opacity: 1;
    fill-opacity: 1;
    stroke-linecap: round;
    stroke-linejoin: miter;
}

line.dashed {
    stroke-dasharray: 5;
}

.fg_fill {
    fill: black;
}


.bg_fill {
    fill: white;
    stroke: black;
    stroke-width: 2;
}

tspan.head{
    fill: none;
    stroke: none;
}
    
</style>
<rect class="backdrop" height="176" width="312" x="0" y="0"/>
<g>
<line x1="0" x2="64" y1="168" y2="168"/>
</g>
<g>
<line x1="12" x2="4" y1="144" y2="152"/>
<line x1="12" x2="20" y1="144" y2="136"/>
<line x1="28" x2="20" y1="128" y2="136"/>
<line x1="28" x2="36" y1="128" y2="120"/>
<line x1="44" x2="36" y1="112" y2="120"/>
<line x1="44" x2="52" y1="112" y2="104"/>
<line x1="60" x2="52" y1="96" y2="104"/>
</g>
<g>
<line x1="120" x2="200" y1="168" y2="168"/>
</g>
<g>
<line x1="132" x2="124" y1="144" y2="152"/>
<line x1="132" x2="140" y1="144" y2="136"/>
<line x1="148" x2="140" y1="128" y2="136"/>
<line x1="148" x2="156" y1="128" y2="120"/>
<line x1="164" x2="156" y1="112" y2="120"/>
<line x1="164" x2="172" y1="112" y2="104"/>
<line x1="180" x2="172" y1="96" y2="104"/>
<line x1="180" x2="188" y1="96" y2="88"/>
<line x1="196" x2="188" y1="80" y2="88"/>
<line x1="196" x2="204" y1="80" y2="72"/>
<line x1="212" x2="204" y1="64" y2="72"/>
<line x1="212" x2="220" y1="64" y2="56"/>
<line x1="228" x2="220" y1="48" y2="56"/>
<line x1="228" x2="236" y1="48" y2="40"/>
<line x1="244" x2="236" y1="32" y2="40"/>
<line x1="244" x2="252" y1="32" y2="24"/>
<line x1="260" x2="252" y1="16" y2="24"/>
</g>
<g>
<text x="25" y="156">
45
</text>
</g>
<g>
<text x="49" y="92">
(5,5)
</text>
</g>
<g>
<text x="153" y="156">
45
</text>
</g>
<g>
<text x="241" y="12">
(10,10)
</text>
</g>
</svg>
