<svg class="bob" font-family="arial" font-size="14" height="240" width="200" xmlns="http://www.w3.org/2000/svg">
<defs>
<marker id="triangle" markerHeight="8" markerWidth="8" orient="auto" refX="4" refY="2" viewBox="0 0 8 4">
<polygon class="fg_fill" points="0,0 0,4 8,2 0,0"/>
</marker>
<marker id="clear_triangle" markerHeight="10" markerWidth="10" orient="auto" refX="1" refY="7" viewBox="0 0 20 14">
<polygon class="bg_fill" points="2,2 2,12 18,7 2,2"/>
</marker>
<marker id="circle" markerHeight="5" markerWidth="5" orient="auto" refX="10" refY="10" viewBox="0 0 20 20">
<circle class="fg_fill" cx="10" cy="10" r="8"/>
</marker>
<marker id="square" markerHeight="5" markerWidth="5" orient="auto" refX="10" refY="10" viewBox="0 0 20 20">
<rect class="fg_fill" height="20" width="20" x="0" y="0"/>
</marker>
<marker id="open_circle" markerHeight="10" markerWidth="10" orient="auto" refX="10" refY="10" viewBox="0 0 20 20">
<circle class="bg_fill" cx="10" cy="10" r="4"/>
</marker>
<marker id="big_open_circle" markerHeight="20" markerWidth="20" orient="auto" refX="20" refY="20" viewBox="0 0 40 40">
<circle class="bg_fill" cx="20" cy="20" r="6"/>
</marker>
</defs>
<style type="text/css">

rect.backdrop {
    fill: white;
}
text{
    fill: black;
}

circle {
    fill: none;
    stroke: black;
    stroke-width: 2;
}

line {
    stroke: black;
    stroke-width: 2;
    stroke-opacity: 1;
    fill-opacity: 1;
    stroke-linecap: round;
    stroke-linejoin: miter;
}

path {
    fill: none;
    stroke: black;
    stroke-width: 2;
    stroke-opacity: 1;
    fill-opacity: 1;
    stroke-linecap: round;
    stroke-linejoin: miter;
}

line.dashed {
    stroke-dasharray: 5;
}

.fg_fill {
    fill: black;
}


.bg_fill {
    fill: white;
    stroke: black;
    stroke-width: 2;
}

tspan.head{
    fill: none;
    stroke: none;
}
    
</style>
<rect class="backdrop" height="240" width="200" x="0" y="0"/>
<g>
<line x1="4" x2="4" y1="76" y2="228"/>
<path d="M 4 228 A 4 4 0 0 0 8 232"/>
<path d="M 8 72 A 4 4 0 0 0 4 76"/>
</g>
<g>
<line x1="8" x2="192" y1="72" y2="72"/>
<path d="M 196 76 A 4 4 0 0 0 192 72"/>
</g>
<g>
<line x1="8" x2="192" y1="232" y2="232"/>
<path d="M 192 232 A 4 4 0 0 0 196 228"/>
</g>
<g>
<line x1="52" x2="52" y1="188" y2="212"/>
<path d="M 52 212 A 4 4 0 0 0 56 216"/>
<path d="M 56 184 A 4 4 0 0 0 52 188"/>
</g>
<g>
<line x1="56" x2="100" y1="184" y2="184"/>
<line x1="100" x2="100" y1="152" y2="184"/>
<line x1="100" x2="120" y1="152" y2="152"/>
<line x1="100" x2="136" y1="184" y2="184"/>
<path d="M 120 152 A 4 4 0 0 0 124 148"/>
<path d="M 140 188 A 4 4 0 0 0 136 184"/>
</g>
<g>
<line x1="56" x2="136" y1="216" y2="216"/>
<path d="M 136 216 A 4 4 0 0 0 140 212"/>
</g>
<g>
<line x1="76" x2="76" y1="124" y2="148"/>
<path d="M 76 148 A 4 4 0 0 0 80 152"/>
<path d="M 80 120 A 4 4 0 0 0 76 124"/>
</g>
<g>
<line x1="80" x2="120" y1="120" y2="120"/>
<path d="M 124 124 A 4 4 0 0 0 120 120"/>
</g>
<g>
<line x1="80" x2="100" y1="152" y2="152"/>
</g>
<g>
<line marker-end="url(#triangle)" x1="100" x2="100" y1="32" y2="20"/>
<line marker-end="url(#triangle)" x1="100" x2="100" y1="32" y2="60"/>
</g>
<g>
<line x1="124" x2="124" y1="124" y2="148"/>
</g>
<g>
<line x1="140" x2="140" y1="188" y2="212"/>
</g>
<g>
<line x1="196" x2="196" y1="76" y2="228"/>
</g>
<g>
<text x="17" y="92">
Security group(s)
</text>
</g>
<g>
<text x="65" y="12">
network
</text>
</g>
<g>
<text x="65" y="204">
Instance
</text>
</g>
<g>
<text x="89" y="140">
ENI
</text>
</g>
</svg>
