<svg class="bob" font-family="arial" font-size="14" height="176" width="456" xmlns="http://www.w3.org/2000/svg">
<defs>
<marker id="triangle" markerHeight="8" markerWidth="8" orient="auto" refX="4" refY="2" viewBox="0 0 8 4">
<polygon class="fg_fill" points="0,0 0,4 8,2 0,0"/>
</marker>
<marker id="clear_triangle" markerHeight="10" markerWidth="10" orient="auto" refX="1" refY="7" viewBox="0 0 20 14">
<polygon class="bg_fill" points="2,2 2,12 18,7 2,2"/>
</marker>
<marker id="circle" markerHeight="5" markerWidth="5" orient="auto" refX="10" refY="10" viewBox="0 0 20 20">
<circle class="fg_fill" cx="10" cy="10" r="8"/>
</marker>
<marker id="square" markerHeight="5" markerWidth="5" orient="auto" refX="10" refY="10" viewBox="0 0 20 20">
<rect class="fg_fill" height="20" width="20" x="0" y="0"/>
</marker>
<marker id="open_circle" markerHeight="10" markerWidth="10" orient="auto" refX="10" refY="10" viewBox="0 0 20 20">
<circle class="bg_fill" cx="10" cy="10" r="4"/>
</marker>
<marker id="big_open_circle" markerHeight="20" markerWidth="20" orient="auto" refX="20" refY="20" viewBox="0 0 40 40">
<circle class="bg_fill" cx="20" cy="20" r="6"/>
</marker>
</defs>
<style type="text/css">

rect.backdrop {
    fill: white;
}
text{
    fill: black;
}

circle {
    fill: none;
    stroke: black;
    stroke-width: 2;
}

line {
    stroke: black;
    stroke-width: 2;
    stroke-opacity: 1;
    fill-opacity: 1;
    stroke-linecap: round;
    stroke-linejoin: miter;
}

path {
    fill: none;
    stroke: black;
    stroke-width: 2;
    stroke-opacity: 1;
    fill-opacity: 1;
    stroke-linecap: round;
    stroke-linejoin: miter;
}

line.dashed {
    stroke-dasharray: 5;
}

.fg_fill {
    fill: black;
}


.bg_fill {
    fill: white;
    stroke: black;
    stroke-width: 2;
}

tspan.head{
    fill: none;
    stroke: none;
}
    
</style>
<rect class="backdrop" height="176" width="456" x="0" y="0"/>
<g>
<line x1="4" x2="4" y1="16" y2="168"/>
<line x1="4" x2="192" y1="168" y2="168"/>
</g>
<g>
<line marker-end="url(#circle)" marker-start="url(#circle)" x1="28" x2="68" y1="40" y2="40"/>
<line marker-end="url(#circle)" marker-start="url(#circle)" x1="68" x2="92" y1="40" y2="88"/>
<line marker-end="url(#circle)" marker-start="url(#circle)" x1="92" x2="124" y1="88" y2="88"/>
<line marker-end="url(#circle)" marker-start="url(#circle)" x1="124" x2="148" y1="88" y2="136"/>
</g>
<g>
<line marker-end="url(#circle)" marker-start="url(#circle)" x1="28" x2="68" y1="56" y2="56"/>
<line marker-end="url(#circle)" marker-start="url(#circle)" x1="68" x2="92" y1="56" y2="104"/>
<line marker-end="url(#circle)" marker-start="url(#circle)" x1="92" x2="124" y1="104" y2="104"/>
<line marker-end="url(#circle)" marker-start="url(#circle)" x1="124" x2="148" y1="104" y2="152"/>
</g>
<g>
<line x1="268" x2="268" y1="16" y2="168"/>
<line x1="268" x2="456" y1="168" y2="168"/>
</g>
<g>
<line marker-end="url(#circle)" marker-start="url(#circle)" x1="292" x2="316" y1="40" y2="88"/>
<line marker-end="url(#circle)" marker-start="url(#circle)" x1="316" x2="340" y1="88" y2="136"/>
<line marker-end="url(#circle)" marker-start="url(#circle)" x1="340" x2="372" y1="136" y2="136"/>
<line marker-end="url(#circle)" marker-start="url(#circle)" x1="372" x2="412" y1="136" y2="136"/>
</g>
<g>
<line marker-end="url(#circle)" marker-start="url(#circle)" x1="292" x2="316" y1="56" y2="104"/>
<line marker-end="url(#circle)" marker-start="url(#circle)" x1="316" x2="340" y1="104" y2="152"/>
<line marker-end="url(#circle)" marker-start="url(#circle)" x1="340" x2="372" y1="152" y2="152"/>
<line marker-end="url(#circle)" marker-start="url(#circle)" x1="372" x2="412" y1="152" y2="152"/>
</g>
<g>
<text x="41" y="12">
GENES W and X
</text>
</g>
<g>
<text x="305" y="12">
GENES U and T
</text>
</g>
</svg>
