<svg class="bob" font-family="arial" font-size="14" height="288" width="240" xmlns="http://www.w3.org/2000/svg">
<defs>
<marker id="triangle" markerHeight="8" markerWidth="8" orient="auto" refX="4" refY="2" viewBox="0 0 8 4">
<polygon class="fg_fill" points="0,0 0,4 8,2 0,0"/>
</marker>
<marker id="clear_triangle" markerHeight="10" markerWidth="10" orient="auto" refX="1" refY="7" viewBox="0 0 20 14">
<polygon class="bg_fill" points="2,2 2,12 18,7 2,2"/>
</marker>
<marker id="circle" markerHeight="5" markerWidth="5" orient="auto" refX="10" refY="10" viewBox="0 0 20 20">
<circle class="fg_fill" cx="10" cy="10" r="8"/>
</marker>
<marker id="square" markerHeight="5" markerWidth="5" orient="auto" refX="10" refY="10" viewBox="0 0 20 20">
<rect class="fg_fill" height="20" width="20" x="0" y="0"/>
</marker>
<marker id="open_circle" markerHeight="10" markerWidth="10" orient="auto" refX="10" refY="10" viewBox="0 0 20 20">
<circle class="bg_fill" cx="10" cy="10" r="4"/>
</marker>
<marker id="big_open_circle" markerHeight="20" markerWidth="20" orient="auto" refX="20" refY="20" viewBox="0 0 40 40">
<circle class="bg_fill" cx="20" cy="20" r="6"/>
</marker>
</defs>
<style type="text/css">

rect.backdrop {
    fill: white;
}
text{
    fill: black;
}

circle {
    fill: none;
    stroke: black;
    stroke-width: 2;
}

line {
    stroke: black;
    stroke-width: 2;
    stroke-opacity: 1;
    fill-opacity: 1;
    stroke-linecap: round;
    stroke-linejoin: miter;
}

path {
    fill: none;
    stroke: black;
    stroke-width: 2;
    stroke-opacity: 1;
    fill-opacity: 1;
    stroke-linecap: round;
    stroke-linejoin: miter;
}

line.dashed {
    stroke-dasharray: 5;
}

.fg_fill {
    fill: black;
}


.bg_fill {
    fill: white;
    stroke: black;
    stroke-width: 2;
}

tspan.head{
    fill: none;
    stroke: none;
}
    
</style>
<rect class="backdrop" height="288" width="240" x="0" y="0"/>
<g>
<line x1="4" x2="4" y1="28" y2="276"/>
<path d="M 4 276 A 4 4 0 0 0 8 280"/>
<path d="M 8 24 A 4 4 0 0 0 4 28"/>
</g>
<g>
<line x1="8" x2="148" y1="24" y2="24"/>
<line x1="148" x2="148" y1="12" y2="24"/>
<line x1="148" x2="148" y1="24" y2="36"/>
<path d="M 148 36 A 4 4 0 0 0 152 40"/>
<path d="M 152 8 A 4 4 0 0 0 148 12"/>
</g>
<g>
<line x1="8" x2="232" y1="280" y2="280"/>
<path d="M 232 280 A 4 4 0 0 0 236 276"/>
</g>
<g>
<line x1="28" x2="28" y1="236" y2="260"/>
<path d="M 28 260 A 4 4 0 0 0 32 264"/>
<path d="M 32 232 A 4 4 0 0 0 28 236"/>
</g>
<g>
<line x1="32" x2="80" y1="232" y2="232"/>
<path d="M 84 236 A 4 4 0 0 0 80 232"/>
</g>
<g>
<line x1="32" x2="80" y1="264" y2="264"/>
<path d="M 80 264 A 4 4 0 0 0 84 260"/>
</g>
<g>
<line x1="44" x2="44" y1="108" y2="132"/>
<path d="M 44 132 A 4 4 0 0 0 48 136"/>
<path d="M 48 104 A 4 4 0 0 0 44 108"/>
</g>
<g>
<line x1="48" x2="200" y1="104" y2="104"/>
<path d="M 204 108 A 4 4 0 0 0 200 104"/>
</g>
<g>
<line x1="48" x2="200" y1="136" y2="136"/>
<path d="M 200 136 A 4 4 0 0 0 204 132"/>
</g>
<g>
<line marker-end="url(#triangle)" x1="60" x2="60" y1="188" y2="220"/>
<path d="M 64 184 A 4 4 0 0 0 60 188"/>
</g>
<g>
<line x1="64" x2="80" y1="184" y2="184"/>
<path d="M 80 184 A 4 4 0 0 0 84 180"/>
</g>
<g>
<line marker-end="url(#triangle)" x1="84" x2="84" y1="160" y2="148"/>
<line x1="84" x2="84" y1="160" y2="180"/>
</g>
<g>
<line x1="84" x2="84" y1="236" y2="260"/>
</g>
<g>
<line x1="92" x2="92" y1="236" y2="260"/>
<path d="M 92 260 A 4 4 0 0 0 96 264"/>
<path d="M 96 232 A 4 4 0 0 0 92 236"/>
</g>
<g>
<line x1="96" x2="144" y1="232" y2="232"/>
<path d="M 148 236 A 4 4 0 0 0 144 232"/>
</g>
<g>
<line x1="96" x2="144" y1="264" y2="264"/>
<path d="M 144 264 A 4 4 0 0 0 148 260"/>
</g>
<g>
<line marker-end="url(#triangle)" x1="124" x2="124" y1="160" y2="148"/>
<line marker-end="url(#triangle)" x1="124" x2="124" y1="160" y2="220"/>
</g>
<g>
<line x1="148" x2="148" y1="236" y2="260"/>
</g>
<g>
<line x1="152" x2="192" y1="8" y2="8"/>
<path d="M 196 12 A 4 4 0 0 0 192 8"/>
</g>
<g>
<line x1="152" x2="192" y1="40" y2="40"/>
<path d="M 192 40 A 4 4 0 0 0 196 36"/>
</g>
<g>
<line x1="156" x2="156" y1="236" y2="260"/>
<path d="M 156 260 A 4 4 0 0 0 160 264"/>
<path d="M 160 232 A 4 4 0 0 0 156 236"/>
</g>
<g>
<line x1="160" x2="208" y1="232" y2="232"/>
<path d="M 212 236 A 4 4 0 0 0 208 232"/>
</g>
<g>
<line x1="160" x2="208" y1="264" y2="264"/>
<path d="M 208 264 A 4 4 0 0 0 212 260"/>
</g>
<g>
<line marker-end="url(#triangle)" x1="164" x2="164" y1="160" y2="148"/>
<line x1="164" x2="164" y1="160" y2="180"/>
<path d="M 164 180 A 4 4 0 0 0 168 184"/>
</g>
<g>
<line x1="168" x2="184" y1="184" y2="184"/>
<path d="M 188 188 A 4 4 0 0 0 184 184"/>
</g>
<g>
<line marker-end="url(#triangle)" x1="172" x2="172" y1="64" y2="52"/>
<line marker-end="url(#triangle)" x1="172" x2="172" y1="64" y2="92"/>
</g>
<g>
<line marker-end="url(#triangle)" x1="188" x2="188" y1="188" y2="220"/>
</g>
<g>
<line x1="196" x2="196" y1="12" y2="24"/>
<line x1="196" x2="196" y1="24" y2="36"/>
<line x1="196" x2="232" y1="24" y2="24"/>
<path d="M 236 28 A 4 4 0 0 0 232 24"/>
</g>
<g>
<line x1="204" x2="204" y1="108" y2="132"/>
</g>
<g>
<line x1="212" x2="212" y1="236" y2="260"/>
</g>
<g>
<line x1="236" x2="236" y1="28" y2="276"/>
</g>
<g>
<text x="17" y="44">
VPC
</text>
</g>
<g>
<text x="33" y="252">
Subnet
</text>
</g>
<g>
<text x="57" y="124">
Implicit router
</text>
</g>
<g>
<text x="97" y="252">
Subnet
</text>
</g>
<g>
<text x="161" y="28">
IGW
</text>
</g>
<g>
<text x="161" y="252">
Subnet
</text>
</g>
</svg>
