<svg class="bob" font-family="arial" font-size="14" height="352" width="1232" xmlns="http://www.w3.org/2000/svg">
<defs>
<marker id="triangle" markerHeight="8" markerWidth="8" orient="auto" refX="4" refY="2" viewBox="0 0 8 4">
<polygon class="fg_fill" points="0,0 0,4 8,2 0,0"/>
</marker>
<marker id="clear_triangle" markerHeight="10" markerWidth="10" orient="auto" refX="1" refY="7" viewBox="0 0 20 14">
<polygon class="bg_fill" points="2,2 2,12 18,7 2,2"/>
</marker>
<marker id="circle" markerHeight="5" markerWidth="5" orient="auto" refX="10" refY="10" viewBox="0 0 20 20">
<circle class="fg_fill" cx="10" cy="10" r="8"/>
</marker>
<marker id="square" markerHeight="5" markerWidth="5" orient="auto" refX="10" refY="10" viewBox="0 0 20 20">
<rect class="fg_fill" height="20" width="20" x="0" y="0"/>
</marker>
<marker id="open_circle" markerHeight="10" markerWidth="10" orient="auto" refX="10" refY="10" viewBox="0 0 20 20">
<circle class="bg_fill" cx="10" cy="10" r="4"/>
</marker>
<marker id="big_open_circle" markerHeight="20" markerWidth="20" orient="auto" refX="20" refY="20" viewBox="0 0 40 40">
<circle class="bg_fill" cx="20" cy="20" r="6"/>
</marker>
</defs>
<style type="text/css">

rect.backdrop {
    fill: white;
}
text{
    fill: black;
}

circle {
    fill: none;
    stroke: black;
    stroke-width: 2;
}

line {
    stroke: black;
    stroke-width: 2;
    stroke-opacity: 1;
    fill-opacity: 1;
    stroke-linecap: round;
    stroke-linejoin: miter;
}

path {
    fill: none;
    stroke: black;
    stroke-width: 2;
    stroke-opacity: 1;
    fill-opacity: 1;
    stroke-linecap: round;
    stroke-linejoin: miter;
}

line.dashed {
    stroke-dasharray: 5;
}

.fg_fill {
    fill: black;
}


.bg_fill {
    fill: white;
    stroke: black;
    stroke-width: 2;
}

tspan.head{
    fill: none;
    stroke: none;
}
    
</style>
<rect class="backdrop" height="352" width="1232" x="0" y="0"/>
<g>
<line marker-end="url(#triangle)" x1="0" x2="20" y1="152" y2="152"/>
</g>
<g>
<line marker-end="url(#triangle)" x1="0" x2="20" y1="216" y2="216"/>
</g>
<g>
<line marker-end="url(#triangle)" x1="0" x2="20" y1="280" y2="280"/>
</g>
<g>
<line marker-end="url(#triangle)" x1="0" x2="20" y1="344" y2="344"/>
</g>
<g>
<line x1="16" x2="176" y1="184" y2="184"/>
<path d="M 16 184 A 4 4 0 0 0 12 188"/>
<path d="M 180 188 A 4 4 0 0 0 176 184"/>
</g>
<g>
<line marker-end="url(#triangle)" x1="24" x2="28" y1="152" y2="152"/>
</g>
<g>
<line marker-end="url(#triangle)" x1="24" x2="28" y1="216" y2="216"/>
</g>
<g>
<line marker-end="url(#triangle)" x1="24" x2="28" y1="280" y2="280"/>
</g>
<g>
<line marker-end="url(#triangle)" x1="24" x2="28" y1="344" y2="344"/>
</g>
<g>
<line marker-end="url(#triangle)" x1="32" x2="36" y1="152" y2="152"/>
</g>
<g>
<line marker-end="url(#triangle)" x1="32" x2="36" y1="216" y2="216"/>
</g>
<g>
<line marker-end="url(#triangle)" x1="32" x2="36" y1="280" y2="280"/>
</g>
<g>
<line marker-end="url(#triangle)" x1="32" x2="36" y1="344" y2="344"/>
</g>
<g>
<line marker-end="url(#triangle)" x1="40" x2="44" y1="152" y2="152"/>
</g>
<g>
<line marker-end="url(#triangle)" x1="40" x2="44" y1="216" y2="216"/>
</g>
<g>
<line marker-end="url(#triangle)" x1="40" x2="44" y1="280" y2="280"/>
</g>
<g>
<line marker-end="url(#triangle)" x1="40" x2="44" y1="344" y2="344"/>
</g>
<g>
<line marker-start="url(#triangle)" x1="48" x2="52" y1="152" y2="152"/>
<line marker-end="url(#triangle)" x1="48" x2="52" y1="152" y2="152"/>
</g>
<g>
<line marker-start="url(#triangle)" x1="48" x2="52" y1="216" y2="216"/>
<line marker-end="url(#triangle)" x1="48" x2="52" y1="216" y2="216"/>
</g>
<g>
<line marker-start="url(#triangle)" x1="48" x2="52" y1="280" y2="280"/>
<line marker-end="url(#triangle)" x1="48" x2="52" y1="280" y2="280"/>
</g>
<g>
<line marker-start="url(#triangle)" x1="48" x2="52" y1="344" y2="344"/>
<line marker-end="url(#triangle)" x1="48" x2="52" y1="344" y2="344"/>
</g>
<g>
<line marker-end="url(#triangle)" x1="56" x2="76" y1="152" y2="152"/>
</g>
<g>
<line marker-end="url(#triangle)" x1="56" x2="76" y1="216" y2="216"/>
</g>
<g>
<line x1="56" x2="72" y1="280" y2="280"/>
</g>
<g>
<line marker-end="url(#triangle)" x1="56" x2="76" y1="344" y2="344"/>
</g>
<g>
<line x1="72" x2="176" y1="248" y2="248"/>
<path d="M 72 248 A 4 4 0 0 0 68 252"/>
<path d="M 180 252 A 4 4 0 0 0 176 248"/>
</g>
<g>
<line marker-end="url(#triangle)" x1="80" x2="84" y1="152" y2="152"/>
</g>
<g>
<line marker-end="url(#triangle)" x1="80" x2="84" y1="216" y2="216"/>
</g>
<g>
<line marker-start="url(#triangle)" x1="80" x2="76" y1="280" y2="280"/>
<line marker-end="url(#triangle)" x1="80" x2="76" y1="280" y2="280"/>
</g>
<g>
<line marker-end="url(#triangle)" x1="80" x2="84" y1="344" y2="344"/>
</g>
<g>
<line marker-end="url(#triangle)" x1="88" x2="92" y1="152" y2="152"/>
</g>
<g>
<line marker-end="url(#triangle)" x1="88" x2="92" y1="216" y2="216"/>
</g>
<g>
<line marker-end="url(#triangle)" x1="88" x2="84" y1="280" y2="280"/>
</g>
<g>
<line marker-end="url(#triangle)" x1="88" x2="92" y1="344" y2="344"/>
</g>
<g>
<line marker-end="url(#triangle)" x1="96" x2="100" y1="152" y2="152"/>
</g>
<g>
<line marker-end="url(#triangle)" x1="96" x2="100" y1="216" y2="216"/>
</g>
<g>
<line marker-end="url(#triangle)" x1="96" x2="92" y1="280" y2="280"/>
</g>
<g>
<line marker-end="url(#triangle)" x1="96" x2="100" y1="344" y2="344"/>
</g>
<g>
<line marker-start="url(#triangle)" x1="104" x2="108" y1="152" y2="152"/>
<line marker-end="url(#triangle)" x1="104" x2="108" y1="152" y2="152"/>
</g>
<g>
<line marker-start="url(#triangle)" x1="104" x2="108" y1="216" y2="216"/>
<line marker-end="url(#triangle)" x1="104" x2="108" y1="216" y2="216"/>
</g>
<g>
<line marker-end="url(#triangle)" x1="104" x2="100" y1="280" y2="280"/>
</g>
<g>
<line marker-start="url(#triangle)" x1="104" x2="108" y1="344" y2="344"/>
<line marker-end="url(#triangle)" x1="104" x2="108" y1="344" y2="344"/>
</g>
<g>
<line x1="112" x2="136" y1="152" y2="152"/>
</g>
<g>
<line x1="112" x2="136" y1="216" y2="216"/>
</g>
<g>
<line marker-end="url(#triangle)" x1="112" x2="108" y1="280" y2="280"/>
<line x1="112" x2="136" y1="280" y2="280"/>
</g>
<g>
<line marker-end="url(#triangle)" x1="112" x2="140" y1="344" y2="344"/>
</g>
<g>
<line marker-start="url(#triangle)" x1="144" x2="140" y1="152" y2="152"/>
<line marker-end="url(#triangle)" x1="144" x2="140" y1="152" y2="152"/>
</g>
<g>
<line marker-start="url(#triangle)" x1="144" x2="140" y1="216" y2="216"/>
<line marker-end="url(#triangle)" x1="144" x2="140" y1="216" y2="216"/>
</g>
<g>
<line marker-start="url(#triangle)" x1="144" x2="140" y1="280" y2="280"/>
<line marker-end="url(#triangle)" x1="144" x2="140" y1="280" y2="280"/>
</g>
<g>
<line marker-end="url(#triangle)" x1="144" x2="148" y1="344" y2="344"/>
</g>
<g>
<line marker-end="url(#triangle)" x1="152" x2="148" y1="152" y2="152"/>
</g>
<g>
<line marker-end="url(#triangle)" x1="152" x2="148" y1="216" y2="216"/>
</g>
<g>
<line marker-end="url(#triangle)" x1="152" x2="148" y1="280" y2="280"/>
</g>
<g>
<line marker-end="url(#triangle)" x1="152" x2="156" y1="344" y2="344"/>
</g>
<g>
<line marker-end="url(#triangle)" x1="160" x2="156" y1="152" y2="152"/>
</g>
<g>
<line marker-end="url(#triangle)" x1="160" x2="156" y1="216" y2="216"/>
</g>
<g>
<line marker-end="url(#triangle)" x1="160" x2="156" y1="280" y2="280"/>
</g>
<g>
<line marker-end="url(#triangle)" x1="160" x2="164" y1="344" y2="344"/>
</g>
<g>
<line marker-end="url(#triangle)" x1="168" x2="164" y1="152" y2="152"/>
</g>
<g>
<line marker-end="url(#triangle)" x1="168" x2="164" y1="216" y2="216"/>
</g>
<g>
<line marker-end="url(#triangle)" x1="168" x2="164" y1="280" y2="280"/>
</g>
<g>
<line marker-start="url(#triangle)" x1="168" x2="172" y1="344" y2="344"/>
<line marker-end="url(#triangle)" x1="168" x2="172" y1="344" y2="344"/>
</g>
<g>
<line marker-end="url(#triangle)" x1="176" x2="172" y1="152" y2="152"/>
<line marker-end="url(#triangle)" x1="176" x2="196" y1="152" y2="152"/>
</g>
<g>
<line marker-end="url(#triangle)" x1="176" x2="172" y1="216" y2="216"/>
<line marker-end="url(#triangle)" x1="176" x2="196" y1="216" y2="216"/>
</g>
<g>
<line marker-end="url(#triangle)" x1="176" x2="172" y1="280" y2="280"/>
<line marker-end="url(#triangle)" x1="176" x2="196" y1="280" y2="280"/>
</g>
<g>
<line marker-end="url(#triangle)" x1="176" x2="196" y1="344" y2="344"/>
</g>
<g>
<line marker-end="url(#triangle)" x1="200" x2="204" y1="152" y2="152"/>
</g>
<g>
<line marker-end="url(#triangle)" x1="200" x2="204" y1="216" y2="216"/>
</g>
<g>
<line marker-end="url(#triangle)" x1="200" x2="204" y1="280" y2="280"/>
</g>
<g>
<line marker-end="url(#triangle)" x1="200" x2="204" y1="344" y2="344"/>
</g>
<g>
<line marker-end="url(#triangle)" x1="208" x2="212" y1="152" y2="152"/>
</g>
<g>
<line marker-end="url(#triangle)" x1="208" x2="212" y1="216" y2="216"/>
</g>
<g>
<line marker-end="url(#triangle)" x1="208" x2="212" y1="280" y2="280"/>
</g>
<g>
<line marker-end="url(#triangle)" x1="208" x2="212" y1="344" y2="344"/>
</g>
<g>
<line marker-end="url(#triangle)" x1="216" x2="236" y1="24" y2="24"/>
</g>
<g>
<line marker-end="url(#triangle)" x1="216" x2="220" y1="152" y2="152"/>
</g>
<g>
<line marker-end="url(#triangle)" x1="216" x2="220" y1="216" y2="216"/>
</g>
<g>
<line marker-end="url(#triangle)" x1="216" x2="220" y1="280" y2="280"/>
</g>
<g>
<line marker-end="url(#triangle)" x1="216" x2="220" y1="344" y2="344"/>
</g>
<g>
<line marker-end="url(#triangle)" x1="224" x2="228" y1="152" y2="152"/>
</g>
<g>
<line marker-end="url(#triangle)" x1="224" x2="228" y1="216" y2="216"/>
</g>
<g>
<line marker-end="url(#triangle)" x1="224" x2="228" y1="280" y2="280"/>
</g>
<g>
<line marker-end="url(#triangle)" x1="224" x2="228" y1="344" y2="344"/>
</g>
<g>
<line marker-end="url(#triangle)" x1="232" x2="236" y1="152" y2="152"/>
</g>
<g>
<line marker-end="url(#triangle)" x1="232" x2="236" y1="216" y2="216"/>
</g>
<g>
<line marker-end="url(#triangle)" x1="232" x2="236" y1="280" y2="280"/>
</g>
<g>
<line marker-end="url(#triangle)" x1="232" x2="236" y1="344" y2="344"/>
</g>
<g>
<line marker-end="url(#triangle)" x1="240" x2="244" y1="24" y2="24"/>
</g>
<g>
<line marker-end="url(#triangle)" x1="240" x2="244" y1="152" y2="152"/>
</g>
<g>
<line marker-end="url(#triangle)" x1="240" x2="244" y1="216" y2="216"/>
</g>
<g>
<line marker-end="url(#triangle)" x1="240" x2="244" y1="280" y2="280"/>
</g>
<g>
<line marker-end="url(#triangle)" x1="240" x2="244" y1="344" y2="344"/>
</g>
<g>
<line marker-end="url(#triangle)" x1="248" x2="252" y1="24" y2="24"/>
</g>
<g>
<line marker-end="url(#triangle)" x1="248" x2="252" y1="152" y2="152"/>
</g>
<g>
<line marker-end="url(#triangle)" x1="248" x2="252" y1="216" y2="216"/>
</g>
<g>
<line marker-end="url(#triangle)" x1="248" x2="252" y1="280" y2="280"/>
</g>
<g>
<line marker-end="url(#triangle)" x1="248" x2="252" y1="344" y2="344"/>
</g>
<g>
<line marker-end="url(#triangle)" x1="256" x2="260" y1="24" y2="24"/>
</g>
<g>
<line marker-start="url(#triangle)" x1="256" x2="260" y1="152" y2="152"/>
<line marker-end="url(#triangle)" x1="256" x2="260" y1="152" y2="152"/>
</g>
<g>
<line marker-start="url(#triangle)" x1="256" x2="260" y1="216" y2="216"/>
<line marker-end="url(#triangle)" x1="256" x2="260" y1="216" y2="216"/>
</g>
<g>
<line marker-start="url(#triangle)" x1="256" x2="260" y1="280" y2="280"/>
<line marker-end="url(#triangle)" x1="256" x2="260" y1="280" y2="280"/>
</g>
<g>
<line marker-start="url(#triangle)" x1="256" x2="260" y1="344" y2="344"/>
<line marker-end="url(#triangle)" x1="256" x2="260" y1="344" y2="344"/>
</g>
<g>
<line marker-start="url(#triangle)" x1="264" x2="268" y1="24" y2="24"/>
<line marker-end="url(#triangle)" x1="264" x2="268" y1="24" y2="24"/>
</g>
<g>
<line x1="264" x2="280" y1="152" y2="152"/>
</g>
<g>
<line marker-end="url(#triangle)" x1="264" x2="284" y1="216" y2="216"/>
</g>
<g>
<line marker-end="url(#triangle)" x1="264" x2="284" y1="280" y2="280"/>
</g>
<g>
<line marker-end="url(#triangle)" x1="264" x2="284" y1="344" y2="344"/>
</g>
<g>
<line marker-end="url(#triangle)" x1="272" x2="292" y1="24" y2="24"/>
</g>
<g>
<line x1="280" x2="320" y1="120" y2="120"/>
<path d="M 280 120 A 4 4 0 0 0 276 124"/>
<path d="M 324 124 A 4 4 0 0 0 320 120"/>
</g>
<g>
<line marker-start="url(#triangle)" x1="288" x2="284" y1="152" y2="152"/>
<line marker-end="url(#triangle)" x1="288" x2="284" y1="152" y2="152"/>
</g>
<g>
<line marker-end="url(#triangle)" x1="288" x2="292" y1="216" y2="216"/>
</g>
<g>
<line marker-end="url(#triangle)" x1="288" x2="292" y1="280" y2="280"/>
</g>
<g>
<line marker-end="url(#triangle)" x1="288" x2="292" y1="344" y2="344"/>
</g>
<g>
<line marker-end="url(#triangle)" x1="296" x2="300" y1="24" y2="24"/>
</g>
<g>
<line marker-end="url(#triangle)" x1="296" x2="292" y1="152" y2="152"/>
</g>
<g>
<line marker-end="url(#triangle)" x1="296" x2="300" y1="216" y2="216"/>
</g>
<g>
<line marker-end="url(#triangle)" x1="296" x2="300" y1="280" y2="280"/>
</g>
<g>
<line marker-end="url(#triangle)" x1="296" x2="300" y1="344" y2="344"/>
</g>
<g>
<line marker-end="url(#triangle)" x1="304" x2="308" y1="24" y2="24"/>
</g>
<g>
<line marker-end="url(#triangle)" x1="304" x2="300" y1="152" y2="152"/>
</g>
<g>
<line marker-end="url(#triangle)" x1="304" x2="308" y1="216" y2="216"/>
</g>
<g>
<line marker-end="url(#triangle)" x1="304" x2="308" y1="280" y2="280"/>
</g>
<g>
<line marker-end="url(#triangle)" x1="304" x2="308" y1="344" y2="344"/>
</g>
<g>
<line marker-end="url(#triangle)" x1="312" x2="316" y1="24" y2="24"/>
</g>
<g>
<line marker-end="url(#triangle)" x1="312" x2="308" y1="152" y2="152"/>
</g>
<g>
<line marker-start="url(#triangle)" x1="312" x2="316" y1="216" y2="216"/>
<line marker-end="url(#triangle)" x1="312" x2="316" y1="216" y2="216"/>
</g>
<g>
<line marker-start="url(#triangle)" x1="312" x2="316" y1="280" y2="280"/>
<line marker-end="url(#triangle)" x1="312" x2="316" y1="280" y2="280"/>
</g>
<g>
<line marker-start="url(#triangle)" x1="312" x2="316" y1="344" y2="344"/>
<line marker-end="url(#triangle)" x1="312" x2="316" y1="344" y2="344"/>
</g>
<g>
<line marker-start="url(#triangle)" x1="320" x2="324" y1="24" y2="24"/>
<line marker-end="url(#triangle)" x1="320" x2="324" y1="24" y2="24"/>
</g>
<g>
<line marker-end="url(#triangle)" x1="320" x2="316" y1="152" y2="152"/>
<line x1="320" x2="336" y1="152" y2="152"/>
</g>
<g>
<line x1="320" x2="336" y1="216" y2="216"/>
</g>
<g>
<line x1="320" x2="336" y1="280" y2="280"/>
</g>
<g>
<line x1="320" x2="336" y1="344" y2="344"/>
</g>
<g>
<line x1="328" x2="352" y1="24" y2="24"/>
</g>
<g>
<line marker-start="url(#triangle)" x1="360" x2="356" y1="24" y2="24"/>
<line marker-end="url(#triangle)" x1="360" x2="356" y1="24" y2="24"/>
</g>
<g>
<line marker-end="url(#triangle)" x1="368" x2="364" y1="24" y2="24"/>
</g>
<g>
<line marker-end="url(#triangle)" x1="376" x2="372" y1="24" y2="24"/>
</g>
<g>
<line marker-end="url(#triangle)" x1="384" x2="380" y1="24" y2="24"/>
</g>
<g>
<line marker-end="url(#triangle)" x1="392" x2="388" y1="24" y2="24"/>
<line marker-end="url(#triangle)" x1="392" x2="412" y1="24" y2="24"/>
</g>
<g>
<line marker-end="url(#triangle)" x1="416" x2="420" y1="24" y2="24"/>
</g>
<g>
<line marker-end="url(#triangle)" x1="424" x2="428" y1="24" y2="24"/>
</g>
<g>
<line marker-end="url(#triangle)" x1="432" x2="436" y1="24" y2="24"/>
</g>
<g>
<line marker-end="url(#triangle)" x1="440" x2="444" y1="24" y2="24"/>
</g>
<g>
<line marker-end="url(#triangle)" x1="448" x2="452" y1="24" y2="24"/>
</g>
<g>
<line marker-end="url(#triangle)" x1="448" x2="468" y1="152" y2="152"/>
</g>
<g>
<line marker-end="url(#triangle)" x1="448" x2="468" y1="216" y2="216"/>
</g>
<g>
<line marker-end="url(#triangle)" x1="448" x2="468" y1="280" y2="280"/>
</g>
<g>
<line marker-end="url(#triangle)" x1="448" x2="468" y1="344" y2="344"/>
</g>
<g>
<line marker-end="url(#triangle)" x1="456" x2="460" y1="24" y2="24"/>
</g>
<g>
<line marker-end="url(#triangle)" x1="464" x2="468" y1="24" y2="24"/>
</g>
<g>
<line x1="464" x2="624" y1="120" y2="120"/>
<path d="M 464 120 A 4 4 0 0 0 460 124"/>
<path d="M 628 124 A 4 4 0 0 0 624 120"/>
</g>
<g>
<line marker-start="url(#triangle)" x1="472" x2="476" y1="24" y2="24"/>
<line marker-end="url(#triangle)" x1="472" x2="476" y1="24" y2="24"/>
</g>
<g>
<line marker-end="url(#triangle)" x1="472" x2="476" y1="152" y2="152"/>
</g>
<g>
<line marker-end="url(#triangle)" x1="472" x2="476" y1="216" y2="216"/>
</g>
<g>
<line marker-end="url(#triangle)" x1="472" x2="476" y1="280" y2="280"/>
</g>
<g>
<line marker-end="url(#triangle)" x1="472" x2="476" y1="344" y2="344"/>
</g>
<g>
<line x1="480" x2="496" y1="24" y2="24"/>
</g>
<g>
<line marker-end="url(#triangle)" x1="480" x2="484" y1="152" y2="152"/>
</g>
<g>
<line marker-end="url(#triangle)" x1="480" x2="484" y1="216" y2="216"/>
</g>
<g>
<line marker-end="url(#triangle)" x1="480" x2="484" y1="280" y2="280"/>
</g>
<g>
<line marker-end="url(#triangle)" x1="480" x2="484" y1="344" y2="344"/>
</g>
<g>
<line marker-end="url(#triangle)" x1="488" x2="492" y1="152" y2="152"/>
</g>
<g>
<line marker-end="url(#triangle)" x1="488" x2="492" y1="216" y2="216"/>
</g>
<g>
<line marker-end="url(#triangle)" x1="488" x2="492" y1="280" y2="280"/>
</g>
<g>
<line marker-end="url(#triangle)" x1="488" x2="492" y1="344" y2="344"/>
</g>
<g>
<line marker-start="url(#triangle)" x1="496" x2="500" y1="152" y2="152"/>
<line marker-end="url(#triangle)" x1="496" x2="500" y1="152" y2="152"/>
</g>
<g>
<line marker-start="url(#triangle)" x1="496" x2="500" y1="216" y2="216"/>
<line marker-end="url(#triangle)" x1="496" x2="500" y1="216" y2="216"/>
</g>
<g>
<line marker-start="url(#triangle)" x1="496" x2="500" y1="280" y2="280"/>
<line marker-end="url(#triangle)" x1="496" x2="500" y1="280" y2="280"/>
</g>
<g>
<line marker-start="url(#triangle)" x1="496" x2="500" y1="344" y2="344"/>
<line marker-end="url(#triangle)" x1="496" x2="500" y1="344" y2="344"/>
</g>
<g>
<line marker-start="url(#triangle)" x1="504" x2="500" y1="24" y2="24"/>
<line marker-end="url(#triangle)" x1="504" x2="500" y1="24" y2="24"/>
</g>
<g>
<line marker-end="url(#triangle)" x1="504" x2="524" y1="152" y2="152"/>
</g>
<g>
<line marker-end="url(#triangle)" x1="504" x2="524" y1="216" y2="216"/>
</g>
<g>
<line x1="504" x2="520" y1="280" y2="280"/>
</g>
<g>
<line marker-end="url(#triangle)" x1="504" x2="524" y1="344" y2="344"/>
</g>
<g>
<line marker-end="url(#triangle)" x1="512" x2="508" y1="24" y2="24"/>
</g>
<g>
<line marker-end="url(#triangle)" x1="520" x2="516" y1="24" y2="24"/>
</g>
<g>
<line x1="520" x2="624" y1="248" y2="248"/>
<path d="M 520 248 A 4 4 0 0 0 516 252"/>
<path d="M 628 252 A 4 4 0 0 0 624 248"/>
</g>
<g>
<line marker-end="url(#triangle)" x1="528" x2="524" y1="24" y2="24"/>
</g>
<g>
<line marker-end="url(#triangle)" x1="528" x2="532" y1="152" y2="152"/>
</g>
<g>
<line marker-end="url(#triangle)" x1="528" x2="532" y1="216" y2="216"/>
</g>
<g>
<line marker-start="url(#triangle)" x1="528" x2="524" y1="280" y2="280"/>
<line marker-end="url(#triangle)" x1="528" x2="524" y1="280" y2="280"/>
</g>
<g>
<line marker-end="url(#triangle)" x1="528" x2="532" y1="344" y2="344"/>
</g>
<g>
<line marker-end="url(#triangle)" x1="536" x2="532" y1="24" y2="24"/>
<line x1="536" x2="552" y1="24" y2="24"/>
</g>
<g>
<line marker-end="url(#triangle)" x1="536" x2="540" y1="152" y2="152"/>
</g>
<g>
<line marker-end="url(#triangle)" x1="536" x2="540" y1="216" y2="216"/>
</g>
<g>
<line marker-end="url(#triangle)" x1="536" x2="532" y1="280" y2="280"/>
</g>
<g>
<line marker-end="url(#triangle)" x1="536" x2="540" y1="344" y2="344"/>
</g>
<g>
<line marker-end="url(#triangle)" x1="544" x2="548" y1="152" y2="152"/>
</g>
<g>
<line marker-end="url(#triangle)" x1="544" x2="548" y1="216" y2="216"/>
</g>
<g>
<line marker-end="url(#triangle)" x1="544" x2="540" y1="280" y2="280"/>
</g>
<g>
<line marker-end="url(#triangle)" x1="544" x2="548" y1="344" y2="344"/>
</g>
<g>
<line marker-start="url(#triangle)" x1="552" x2="556" y1="152" y2="152"/>
<line marker-end="url(#triangle)" x1="552" x2="556" y1="152" y2="152"/>
</g>
<g>
<line marker-start="url(#triangle)" x1="552" x2="556" y1="216" y2="216"/>
<line marker-end="url(#triangle)" x1="552" x2="556" y1="216" y2="216"/>
</g>
<g>
<line marker-end="url(#triangle)" x1="552" x2="548" y1="280" y2="280"/>
</g>
<g>
<line marker-start="url(#triangle)" x1="552" x2="556" y1="344" y2="344"/>
<line marker-end="url(#triangle)" x1="552" x2="556" y1="344" y2="344"/>
</g>
<g>
<line x1="560" x2="584" y1="152" y2="152"/>
</g>
<g>
<line x1="560" x2="584" y1="216" y2="216"/>
</g>
<g>
<line marker-end="url(#triangle)" x1="560" x2="556" y1="280" y2="280"/>
<line x1="560" x2="584" y1="280" y2="280"/>
</g>
<g>
<line marker-end="url(#triangle)" x1="560" x2="588" y1="344" y2="344"/>
</g>
<g>
<line marker-start="url(#triangle)" x1="592" x2="588" y1="152" y2="152"/>
<line marker-end="url(#triangle)" x1="592" x2="588" y1="152" y2="152"/>
</g>
<g>
<line marker-start="url(#triangle)" x1="592" x2="588" y1="216" y2="216"/>
<line marker-end="url(#triangle)" x1="592" x2="588" y1="216" y2="216"/>
</g>
<g>
<line marker-start="url(#triangle)" x1="592" x2="588" y1="280" y2="280"/>
<line marker-end="url(#triangle)" x1="592" x2="588" y1="280" y2="280"/>
</g>
<g>
<line marker-end="url(#triangle)" x1="592" x2="596" y1="344" y2="344"/>
</g>
<g>
<line marker-end="url(#triangle)" x1="600" x2="596" y1="152" y2="152"/>
</g>
<g>
<line marker-end="url(#triangle)" x1="600" x2="596" y1="216" y2="216"/>
</g>
<g>
<line marker-end="url(#triangle)" x1="600" x2="596" y1="280" y2="280"/>
</g>
<g>
<line marker-end="url(#triangle)" x1="600" x2="604" y1="344" y2="344"/>
</g>
<g>
<line marker-end="url(#triangle)" x1="608" x2="604" y1="152" y2="152"/>
</g>
<g>
<line marker-end="url(#triangle)" x1="608" x2="604" y1="216" y2="216"/>
</g>
<g>
<line marker-end="url(#triangle)" x1="608" x2="604" y1="280" y2="280"/>
</g>
<g>
<line marker-end="url(#triangle)" x1="608" x2="612" y1="344" y2="344"/>
</g>
<g>
<line marker-end="url(#triangle)" x1="616" x2="612" y1="152" y2="152"/>
</g>
<g>
<line marker-end="url(#triangle)" x1="616" x2="612" y1="216" y2="216"/>
</g>
<g>
<line marker-end="url(#triangle)" x1="616" x2="612" y1="280" y2="280"/>
</g>
<g>
<line marker-start="url(#triangle)" x1="616" x2="620" y1="344" y2="344"/>
<line marker-end="url(#triangle)" x1="616" x2="620" y1="344" y2="344"/>
</g>
<g>
<line marker-end="url(#triangle)" x1="624" x2="620" y1="152" y2="152"/>
<line marker-end="url(#triangle)" x1="624" x2="644" y1="152" y2="152"/>
</g>
<g>
<line marker-end="url(#triangle)" x1="624" x2="620" y1="216" y2="216"/>
<line marker-end="url(#triangle)" x1="624" x2="644" y1="216" y2="216"/>
</g>
<g>
<line marker-end="url(#triangle)" x1="624" x2="620" y1="280" y2="280"/>
<line marker-end="url(#triangle)" x1="624" x2="644" y1="280" y2="280"/>
</g>
<g>
<line marker-end="url(#triangle)" x1="624" x2="644" y1="344" y2="344"/>
</g>
<g>
<line marker-end="url(#triangle)" x1="648" x2="652" y1="152" y2="152"/>
</g>
<g>
<line marker-end="url(#triangle)" x1="648" x2="652" y1="216" y2="216"/>
</g>
<g>
<line marker-end="url(#triangle)" x1="648" x2="652" y1="280" y2="280"/>
</g>
<g>
<line marker-end="url(#triangle)" x1="648" x2="652" y1="344" y2="344"/>
</g>
<g>
<line marker-end="url(#triangle)" x1="656" x2="660" y1="152" y2="152"/>
</g>
<g>
<line marker-end="url(#triangle)" x1="656" x2="660" y1="216" y2="216"/>
</g>
<g>
<line marker-end="url(#triangle)" x1="656" x2="660" y1="280" y2="280"/>
</g>
<g>
<line marker-end="url(#triangle)" x1="656" x2="660" y1="344" y2="344"/>
</g>
<g>
<line marker-end="url(#triangle)" x1="664" x2="668" y1="152" y2="152"/>
</g>
<g>
<line marker-end="url(#triangle)" x1="664" x2="668" y1="216" y2="216"/>
</g>
<g>
<line marker-end="url(#triangle)" x1="664" x2="668" y1="280" y2="280"/>
</g>
<g>
<line marker-end="url(#triangle)" x1="664" x2="668" y1="344" y2="344"/>
</g>
<g>
<line marker-end="url(#triangle)" x1="672" x2="676" y1="152" y2="152"/>
</g>
<g>
<line marker-end="url(#triangle)" x1="672" x2="676" y1="216" y2="216"/>
</g>
<g>
<line marker-end="url(#triangle)" x1="672" x2="676" y1="280" y2="280"/>
</g>
<g>
<line marker-end="url(#triangle)" x1="672" x2="676" y1="344" y2="344"/>
</g>
<g>
<line marker-end="url(#triangle)" x1="680" x2="684" y1="152" y2="152"/>
</g>
<g>
<line marker-end="url(#triangle)" x1="680" x2="684" y1="216" y2="216"/>
</g>
<g>
<line marker-end="url(#triangle)" x1="680" x2="684" y1="280" y2="280"/>
</g>
<g>
<line marker-end="url(#triangle)" x1="680" x2="684" y1="344" y2="344"/>
</g>
<g>
<line marker-end="url(#triangle)" x1="688" x2="708" y1="24" y2="24"/>
</g>
<g>
<line marker-end="url(#triangle)" x1="688" x2="692" y1="152" y2="152"/>
</g>
<g>
<line marker-end="url(#triangle)" x1="688" x2="692" y1="216" y2="216"/>
</g>
<g>
<line marker-end="url(#triangle)" x1="688" x2="692" y1="280" y2="280"/>
</g>
<g>
<line marker-end="url(#triangle)" x1="688" x2="692" y1="344" y2="344"/>
</g>
<g>
<line marker-end="url(#triangle)" x1="696" x2="700" y1="152" y2="152"/>
</g>
<g>
<line marker-end="url(#triangle)" x1="696" x2="700" y1="216" y2="216"/>
</g>
<g>
<line marker-end="url(#triangle)" x1="696" x2="700" y1="280" y2="280"/>
</g>
<g>
<line marker-end="url(#triangle)" x1="696" x2="700" y1="344" y2="344"/>
</g>
<g>
<line marker-start="url(#triangle)" x1="704" x2="708" y1="152" y2="152"/>
<line marker-end="url(#triangle)" x1="704" x2="708" y1="152" y2="152"/>
</g>
<g>
<line marker-start="url(#triangle)" x1="704" x2="708" y1="216" y2="216"/>
<line marker-end="url(#triangle)" x1="704" x2="708" y1="216" y2="216"/>
</g>
<g>
<line marker-start="url(#triangle)" x1="704" x2="708" y1="280" y2="280"/>
<line marker-end="url(#triangle)" x1="704" x2="708" y1="280" y2="280"/>
</g>
<g>
<line marker-start="url(#triangle)" x1="704" x2="708" y1="344" y2="344"/>
<line marker-end="url(#triangle)" x1="704" x2="708" y1="344" y2="344"/>
</g>
<g>
<line marker-end="url(#triangle)" x1="712" x2="716" y1="24" y2="24"/>
</g>
<g>
<line marker-end="url(#triangle)" x1="712" x2="732" y1="152" y2="152"/>
</g>
<g>
<line x1="712" x2="728" y1="216" y2="216"/>
</g>
<g>
<line marker-end="url(#triangle)" x1="712" x2="732" y1="280" y2="280"/>
</g>
<g>
<line marker-end="url(#triangle)" x1="712" x2="732" y1="344" y2="344"/>
</g>
<g>
<line marker-end="url(#triangle)" x1="720" x2="724" y1="24" y2="24"/>
</g>
<g>
<line marker-end="url(#triangle)" x1="728" x2="732" y1="24" y2="24"/>
</g>
<g>
<line x1="728" x2="768" y1="184" y2="184"/>
<path d="M 728 184 A 4 4 0 0 0 724 188"/>
<path d="M 772 188 A 4 4 0 0 0 768 184"/>
</g>
<g>
<line marker-start="url(#triangle)" x1="736" x2="740" y1="24" y2="24"/>
<line marker-end="url(#triangle)" x1="736" x2="740" y1="24" y2="24"/>
</g>
<g>
<line marker-end="url(#triangle)" x1="736" x2="740" y1="152" y2="152"/>
</g>
<g>
<line marker-start="url(#triangle)" x1="736" x2="732" y1="216" y2="216"/>
<line marker-end="url(#triangle)" x1="736" x2="732" y1="216" y2="216"/>
</g>
<g>
<line marker-end="url(#triangle)" x1="736" x2="740" y1="280" y2="280"/>
</g>
<g>
<line marker-end="url(#triangle)" x1="736" x2="740" y1="344" y2="344"/>
</g>
<g>
<line marker-end="url(#triangle)" x1="744" x2="764" y1="24" y2="24"/>
</g>
<g>
<line marker-end="url(#triangle)" x1="744" x2="748" y1="152" y2="152"/>
</g>
<g>
<line marker-end="url(#triangle)" x1="744" x2="740" y1="216" y2="216"/>
</g>
<g>
<line marker-end="url(#triangle)" x1="744" x2="748" y1="280" y2="280"/>
</g>
<g>
<line marker-end="url(#triangle)" x1="744" x2="748" y1="344" y2="344"/>
</g>
<g>
<line marker-end="url(#triangle)" x1="752" x2="756" y1="152" y2="152"/>
</g>
<g>
<line marker-end="url(#triangle)" x1="752" x2="748" y1="216" y2="216"/>
</g>
<g>
<line marker-end="url(#triangle)" x1="752" x2="756" y1="280" y2="280"/>
</g>
<g>
<line marker-end="url(#triangle)" x1="752" x2="756" y1="344" y2="344"/>
</g>
<g>
<line marker-start="url(#triangle)" x1="760" x2="764" y1="152" y2="152"/>
<line marker-end="url(#triangle)" x1="760" x2="764" y1="152" y2="152"/>
</g>
<g>
<line marker-end="url(#triangle)" x1="760" x2="756" y1="216" y2="216"/>
</g>
<g>
<line marker-start="url(#triangle)" x1="760" x2="764" y1="280" y2="280"/>
<line marker-end="url(#triangle)" x1="760" x2="764" y1="280" y2="280"/>
</g>
<g>
<line marker-start="url(#triangle)" x1="760" x2="764" y1="344" y2="344"/>
<line marker-end="url(#triangle)" x1="760" x2="764" y1="344" y2="344"/>
</g>
<g>
<line marker-end="url(#triangle)" x1="768" x2="772" y1="24" y2="24"/>
</g>
<g>
<line x1="768" x2="784" y1="152" y2="152"/>
</g>
<g>
<line marker-end="url(#triangle)" x1="768" x2="764" y1="216" y2="216"/>
<line x1="768" x2="784" y1="216" y2="216"/>
</g>
<g>
<line x1="768" x2="784" y1="280" y2="280"/>
</g>
<g>
<line x1="768" x2="784" y1="344" y2="344"/>
</g>
<g>
<line marker-end="url(#triangle)" x1="776" x2="780" y1="24" y2="24"/>
</g>
<g>
<line marker-end="url(#triangle)" x1="784" x2="788" y1="24" y2="24"/>
</g>
<g>
<line marker-start="url(#triangle)" x1="792" x2="796" y1="24" y2="24"/>
<line marker-end="url(#triangle)" x1="792" x2="796" y1="24" y2="24"/>
</g>
<g>
<line marker-end="url(#triangle)" x1="800" x2="828" y1="24" y2="24"/>
</g>
<g>
<line marker-end="url(#triangle)" x1="832" x2="836" y1="24" y2="24"/>
</g>
<g>
<line marker-end="url(#triangle)" x1="840" x2="844" y1="24" y2="24"/>
</g>
<g>
<line marker-end="url(#triangle)" x1="848" x2="852" y1="24" y2="24"/>
</g>
<g>
<line marker-start="url(#triangle)" x1="856" x2="860" y1="24" y2="24"/>
<line marker-end="url(#triangle)" x1="856" x2="860" y1="24" y2="24"/>
</g>
<g>
<line marker-end="url(#triangle)" x1="864" x2="884" y1="24" y2="24"/>
</g>
<g>
<line marker-end="url(#triangle)" x1="888" x2="892" y1="24" y2="24"/>
</g>
<g>
<line marker-end="url(#triangle)" x1="896" x2="900" y1="24" y2="24"/>
</g>
<g>
<line marker-end="url(#triangle)" x1="896" x2="916" y1="152" y2="152"/>
</g>
<g>
<line marker-end="url(#triangle)" x1="896" x2="916" y1="216" y2="216"/>
</g>
<g>
<line marker-end="url(#triangle)" x1="896" x2="916" y1="280" y2="280"/>
</g>
<g>
<line marker-end="url(#triangle)" x1="896" x2="916" y1="344" y2="344"/>
</g>
<g>
<line marker-end="url(#triangle)" x1="904" x2="908" y1="24" y2="24"/>
</g>
<g>
<line marker-end="url(#triangle)" x1="912" x2="916" y1="24" y2="24"/>
</g>
<g>
<line x1="912" x2="1008" y1="120" y2="120"/>
<path d="M 912 120 A 4 4 0 0 0 908 124"/>
<path d="M 1012 124 A 4 4 0 0 0 1008 120"/>
</g>
<g>
<line marker-end="url(#triangle)" x1="920" x2="924" y1="24" y2="24"/>
</g>
<g>
<line marker-end="url(#triangle)" x1="920" x2="924" y1="152" y2="152"/>
</g>
<g>
<line marker-end="url(#triangle)" x1="920" x2="924" y1="216" y2="216"/>
</g>
<g>
<line marker-end="url(#triangle)" x1="920" x2="924" y1="280" y2="280"/>
</g>
<g>
<line marker-end="url(#triangle)" x1="920" x2="924" y1="344" y2="344"/>
</g>
<g>
<line marker-end="url(#triangle)" x1="928" x2="932" y1="24" y2="24"/>
</g>
<g>
<line marker-end="url(#triangle)" x1="928" x2="932" y1="152" y2="152"/>
</g>
<g>
<line marker-end="url(#triangle)" x1="928" x2="932" y1="216" y2="216"/>
</g>
<g>
<line marker-end="url(#triangle)" x1="928" x2="932" y1="280" y2="280"/>
</g>
<g>
<line marker-end="url(#triangle)" x1="928" x2="932" y1="344" y2="344"/>
</g>
<g>
<line marker-end="url(#triangle)" x1="936" x2="940" y1="24" y2="24"/>
</g>
<g>
<line marker-end="url(#triangle)" x1="936" x2="940" y1="152" y2="152"/>
</g>
<g>
<line marker-end="url(#triangle)" x1="936" x2="940" y1="216" y2="216"/>
</g>
<g>
<line marker-end="url(#triangle)" x1="936" x2="940" y1="280" y2="280"/>
</g>
<g>
<line marker-end="url(#triangle)" x1="936" x2="940" y1="344" y2="344"/>
</g>
<g>
<line marker-start="url(#triangle)" x1="944" x2="948" y1="24" y2="24"/>
<line marker-end="url(#triangle)" x1="944" x2="948" y1="24" y2="24"/>
</g>
<g>
<line marker-start="url(#triangle)" x1="944" x2="948" y1="152" y2="152"/>
<line marker-end="url(#triangle)" x1="944" x2="948" y1="152" y2="152"/>
</g>
<g>
<line marker-start="url(#triangle)" x1="944" x2="948" y1="216" y2="216"/>
<line marker-end="url(#triangle)" x1="944" x2="948" y1="216" y2="216"/>
</g>
<g>
<line marker-start="url(#triangle)" x1="944" x2="948" y1="280" y2="280"/>
<line marker-end="url(#triangle)" x1="944" x2="948" y1="280" y2="280"/>
</g>
<g>
<line marker-start="url(#triangle)" x1="944" x2="948" y1="344" y2="344"/>
<line marker-end="url(#triangle)" x1="944" x2="948" y1="344" y2="344"/>
</g>
<g>
<line marker-end="url(#triangle)" x1="952" x2="972" y1="24" y2="24"/>
</g>
<g>
<line marker-end="url(#triangle)" x1="952" x2="972" y1="152" y2="152"/>
</g>
<g>
<line marker-end="url(#triangle)" x1="952" x2="972" y1="216" y2="216"/>
</g>
<g>
<line x1="952" x2="968" y1="280" y2="280"/>
</g>
<g>
<line marker-end="url(#triangle)" x1="952" x2="972" y1="344" y2="344"/>
</g>
<g>
<line x1="968" x2="1072" y1="248" y2="248"/>
<path d="M 968 248 A 4 4 0 0 0 964 252"/>
<path d="M 1076 252 A 4 4 0 0 0 1072 248"/>
</g>
<g>
<line marker-end="url(#triangle)" x1="976" x2="980" y1="24" y2="24"/>
</g>
<g>
<line marker-end="url(#triangle)" x1="976" x2="980" y1="152" y2="152"/>
</g>
<g>
<line marker-end="url(#triangle)" x1="976" x2="980" y1="216" y2="216"/>
</g>
<g>
<line marker-start="url(#triangle)" x1="976" x2="972" y1="280" y2="280"/>
<line marker-end="url(#triangle)" x1="976" x2="972" y1="280" y2="280"/>
</g>
<g>
<line marker-end="url(#triangle)" x1="976" x2="980" y1="344" y2="344"/>
</g>
<g>
<line marker-end="url(#triangle)" x1="984" x2="988" y1="24" y2="24"/>
</g>
<g>
<line marker-end="url(#triangle)" x1="984" x2="988" y1="152" y2="152"/>
</g>
<g>
<line marker-end="url(#triangle)" x1="984" x2="988" y1="216" y2="216"/>
</g>
<g>
<line marker-end="url(#triangle)" x1="984" x2="980" y1="280" y2="280"/>
</g>
<g>
<line marker-end="url(#triangle)" x1="984" x2="988" y1="344" y2="344"/>
</g>
<g>
<line marker-end="url(#triangle)" x1="992" x2="996" y1="24" y2="24"/>
</g>
<g>
<line marker-end="url(#triangle)" x1="992" x2="996" y1="152" y2="152"/>
</g>
<g>
<line marker-end="url(#triangle)" x1="992" x2="996" y1="216" y2="216"/>
</g>
<g>
<line marker-end="url(#triangle)" x1="992" x2="988" y1="280" y2="280"/>
</g>
<g>
<line marker-end="url(#triangle)" x1="992" x2="996" y1="344" y2="344"/>
</g>
<g>
<line marker-start="url(#triangle)" x1="1000" x2="1004" y1="24" y2="24"/>
<line marker-end="url(#triangle)" x1="1000" x2="1004" y1="24" y2="24"/>
</g>
<g>
<line marker-start="url(#triangle)" x1="1000" x2="1004" y1="152" y2="152"/>
<line marker-end="url(#triangle)" x1="1000" x2="1004" y1="152" y2="152"/>
</g>
<g>
<line marker-start="url(#triangle)" x1="1000" x2="1004" y1="216" y2="216"/>
<line marker-end="url(#triangle)" x1="1000" x2="1004" y1="216" y2="216"/>
</g>
<g>
<line marker-end="url(#triangle)" x1="1000" x2="996" y1="280" y2="280"/>
</g>
<g>
<line marker-start="url(#triangle)" x1="1000" x2="1004" y1="344" y2="344"/>
<line marker-end="url(#triangle)" x1="1000" x2="1004" y1="344" y2="344"/>
</g>
<g>
<line x1="1008" x2="1024" y1="24" y2="24"/>
</g>
<g>
<line x1="1008" x2="1032" y1="152" y2="152"/>
</g>
<g>
<line x1="1008" x2="1032" y1="216" y2="216"/>
</g>
<g>
<line marker-end="url(#triangle)" x1="1008" x2="1004" y1="280" y2="280"/>
<line x1="1008" x2="1032" y1="280" y2="280"/>
</g>
<g>
<line marker-end="url(#triangle)" x1="1008" x2="1036" y1="344" y2="344"/>
</g>
<g>
<line marker-start="url(#triangle)" x1="1040" x2="1036" y1="152" y2="152"/>
<line marker-end="url(#triangle)" x1="1040" x2="1036" y1="152" y2="152"/>
</g>
<g>
<line marker-start="url(#triangle)" x1="1040" x2="1036" y1="216" y2="216"/>
<line marker-end="url(#triangle)" x1="1040" x2="1036" y1="216" y2="216"/>
</g>
<g>
<line marker-start="url(#triangle)" x1="1040" x2="1036" y1="280" y2="280"/>
<line marker-end="url(#triangle)" x1="1040" x2="1036" y1="280" y2="280"/>
</g>
<g>
<line marker-end="url(#triangle)" x1="1040" x2="1044" y1="344" y2="344"/>
</g>
<g>
<line marker-end="url(#triangle)" x1="1048" x2="1044" y1="152" y2="152"/>
</g>
<g>
<line marker-end="url(#triangle)" x1="1048" x2="1044" y1="216" y2="216"/>
</g>
<g>
<line marker-end="url(#triangle)" x1="1048" x2="1044" y1="280" y2="280"/>
</g>
<g>
<line marker-end="url(#triangle)" x1="1048" x2="1052" y1="344" y2="344"/>
</g>
<g>
<line marker-end="url(#triangle)" x1="1056" x2="1052" y1="152" y2="152"/>
</g>
<g>
<line marker-end="url(#triangle)" x1="1056" x2="1052" y1="216" y2="216"/>
</g>
<g>
<line marker-end="url(#triangle)" x1="1056" x2="1052" y1="280" y2="280"/>
</g>
<g>
<line marker-end="url(#triangle)" x1="1056" x2="1060" y1="344" y2="344"/>
</g>
<g>
<line marker-end="url(#triangle)" x1="1064" x2="1060" y1="152" y2="152"/>
</g>
<g>
<line marker-end="url(#triangle)" x1="1064" x2="1060" y1="216" y2="216"/>
</g>
<g>
<line marker-end="url(#triangle)" x1="1064" x2="1060" y1="280" y2="280"/>
</g>
<g>
<line marker-start="url(#triangle)" x1="1064" x2="1068" y1="344" y2="344"/>
<line marker-end="url(#triangle)" x1="1064" x2="1068" y1="344" y2="344"/>
</g>
<g>
<line marker-end="url(#triangle)" x1="1072" x2="1068" y1="152" y2="152"/>
<line marker-end="url(#triangle)" x1="1072" x2="1092" y1="152" y2="152"/>
</g>
<g>
<line marker-end="url(#triangle)" x1="1072" x2="1068" y1="216" y2="216"/>
<line marker-end="url(#triangle)" x1="1072" x2="1092" y1="216" y2="216"/>
</g>
<g>
<line marker-end="url(#triangle)" x1="1072" x2="1068" y1="280" y2="280"/>
<line marker-end="url(#triangle)" x1="1072" x2="1092" y1="280" y2="280"/>
</g>
<g>
<line marker-end="url(#triangle)" x1="1072" x2="1092" y1="344" y2="344"/>
</g>
<g>
<line marker-end="url(#triangle)" x1="1096" x2="1100" y1="152" y2="152"/>
</g>
<g>
<line marker-end="url(#triangle)" x1="1096" x2="1100" y1="216" y2="216"/>
</g>
<g>
<line marker-end="url(#triangle)" x1="1096" x2="1100" y1="280" y2="280"/>
</g>
<g>
<line marker-end="url(#triangle)" x1="1096" x2="1100" y1="344" y2="344"/>
</g>
<g>
<line marker-end="url(#triangle)" x1="1104" x2="1108" y1="152" y2="152"/>
</g>
<g>
<line marker-end="url(#triangle)" x1="1104" x2="1108" y1="216" y2="216"/>
</g>
<g>
<line marker-end="url(#triangle)" x1="1104" x2="1108" y1="280" y2="280"/>
</g>
<g>
<line marker-end="url(#triangle)" x1="1104" x2="1108" y1="344" y2="344"/>
</g>
<g>
<line marker-end="url(#triangle)" x1="1112" x2="1116" y1="152" y2="152"/>
</g>
<g>
<line marker-end="url(#triangle)" x1="1112" x2="1116" y1="216" y2="216"/>
</g>
<g>
<line marker-end="url(#triangle)" x1="1112" x2="1116" y1="280" y2="280"/>
</g>
<g>
<line marker-end="url(#triangle)" x1="1112" x2="1116" y1="344" y2="344"/>
</g>
<g>
<line marker-end="url(#triangle)" x1="1120" x2="1124" y1="152" y2="152"/>
</g>
<g>
<line marker-end="url(#triangle)" x1="1120" x2="1124" y1="216" y2="216"/>
</g>
<g>
<line marker-end="url(#triangle)" x1="1120" x2="1124" y1="280" y2="280"/>
</g>
<g>
<line marker-end="url(#triangle)" x1="1120" x2="1124" y1="344" y2="344"/>
</g>
<g>
<line marker-end="url(#triangle)" x1="1128" x2="1132" y1="152" y2="152"/>
</g>
<g>
<line marker-end="url(#triangle)" x1="1128" x2="1132" y1="216" y2="216"/>
</g>
<g>
<line marker-end="url(#triangle)" x1="1128" x2="1132" y1="280" y2="280"/>
</g>
<g>
<line marker-end="url(#triangle)" x1="1128" x2="1132" y1="344" y2="344"/>
</g>
<g>
<line marker-end="url(#triangle)" x1="1136" x2="1140" y1="152" y2="152"/>
</g>
<g>
<line marker-end="url(#triangle)" x1="1136" x2="1140" y1="216" y2="216"/>
</g>
<g>
<line marker-end="url(#triangle)" x1="1136" x2="1140" y1="280" y2="280"/>
</g>
<g>
<line marker-end="url(#triangle)" x1="1136" x2="1140" y1="344" y2="344"/>
</g>
<g>
<line marker-end="url(#triangle)" x1="1144" x2="1148" y1="152" y2="152"/>
</g>
<g>
<line marker-end="url(#triangle)" x1="1144" x2="1148" y1="216" y2="216"/>
</g>
<g>
<line marker-end="url(#triangle)" x1="1144" x2="1148" y1="280" y2="280"/>
</g>
<g>
<line marker-end="url(#triangle)" x1="1144" x2="1148" y1="344" y2="344"/>
</g>
<g>
<line marker-start="url(#triangle)" x1="1152" x2="1156" y1="152" y2="152"/>
<line marker-end="url(#triangle)" x1="1152" x2="1156" y1="152" y2="152"/>
</g>
<g>
<line marker-start="url(#triangle)" x1="1152" x2="1156" y1="216" y2="216"/>
<line marker-end="url(#triangle)" x1="1152" x2="1156" y1="216" y2="216"/>
</g>
<g>
<line marker-start="url(#triangle)" x1="1152" x2="1156" y1="280" y2="280"/>
<line marker-end="url(#triangle)" x1="1152" x2="1156" y1="280" y2="280"/>
</g>
<g>
<line marker-start="url(#triangle)" x1="1152" x2="1156" y1="344" y2="344"/>
<line marker-end="url(#triangle)" x1="1152" x2="1156" y1="344" y2="344"/>
</g>
<g>
<line marker-end="url(#triangle)" x1="1160" x2="1180" y1="152" y2="152"/>
</g>
<g>
<line x1="1160" x2="1176" y1="216" y2="216"/>
</g>
<g>
<line marker-end="url(#triangle)" x1="1160" x2="1180" y1="280" y2="280"/>
</g>
<g>
<line marker-end="url(#triangle)" x1="1160" x2="1180" y1="344" y2="344"/>
</g>
<g>
<line x1="1176" x2="1216" y1="184" y2="184"/>
<path d="M 1176 184 A 4 4 0 0 0 1172 188"/>
<path d="M 1220 188 A 4 4 0 0 0 1216 184"/>
</g>
<g>
<line marker-end="url(#triangle)" x1="1184" x2="1188" y1="152" y2="152"/>
</g>
<g>
<line marker-start="url(#triangle)" x1="1184" x2="1180" y1="216" y2="216"/>
<line marker-end="url(#triangle)" x1="1184" x2="1180" y1="216" y2="216"/>
</g>
<g>
<line marker-end="url(#triangle)" x1="1184" x2="1188" y1="280" y2="280"/>
</g>
<g>
<line marker-end="url(#triangle)" x1="1184" x2="1188" y1="344" y2="344"/>
</g>
<g>
<line marker-end="url(#triangle)" x1="1192" x2="1196" y1="152" y2="152"/>
</g>
<g>
<line marker-end="url(#triangle)" x1="1192" x2="1188" y1="216" y2="216"/>
</g>
<g>
<line marker-end="url(#triangle)" x1="1192" x2="1196" y1="280" y2="280"/>
</g>
<g>
<line marker-end="url(#triangle)" x1="1192" x2="1196" y1="344" y2="344"/>
</g>
<g>
<line marker-end="url(#triangle)" x1="1200" x2="1204" y1="152" y2="152"/>
</g>
<g>
<line marker-end="url(#triangle)" x1="1200" x2="1196" y1="216" y2="216"/>
</g>
<g>
<line marker-end="url(#triangle)" x1="1200" x2="1204" y1="280" y2="280"/>
</g>
<g>
<line marker-end="url(#triangle)" x1="1200" x2="1204" y1="344" y2="344"/>
</g>
<g>
<line marker-start="url(#triangle)" x1="1208" x2="1212" y1="152" y2="152"/>
<line marker-end="url(#triangle)" x1="1208" x2="1212" y1="152" y2="152"/>
</g>
<g>
<line marker-end="url(#triangle)" x1="1208" x2="1204" y1="216" y2="216"/>
</g>
<g>
<line marker-start="url(#triangle)" x1="1208" x2="1212" y1="280" y2="280"/>
<line marker-end="url(#triangle)" x1="1208" x2="1212" y1="280" y2="280"/>
</g>
<g>
<line marker-start="url(#triangle)" x1="1208" x2="1212" y1="344" y2="344"/>
<line marker-end="url(#triangle)" x1="1208" x2="1212" y1="344" y2="344"/>
</g>
<g>
<line x1="1216" x2="1232" y1="152" y2="152"/>
</g>
<g>
<line marker-end="url(#triangle)" x1="1216" x2="1212" y1="216" y2="216"/>
<line x1="1216" x2="1224" y1="216" y2="216"/>
</g>
<g>
<line x1="1216" x2="1232" y1="280" y2="280"/>
</g>
<g>
<line x1="1216" x2="1232" y1="344" y2="344"/>
</g>
<g>
<text x="25" y="140">
+B
</text>
</g>
<g>
<text x="25" y="204">
+B
</text>
</g>
<g>
<text x="25" y="268">
+A
</text>
</g>
<g>
<text x="25" y="332">
+A
</text>
</g>
<g>
<text x="73" y="92">
Parsimonious reversal path 1
</text>
</g>
<g>
<text x="81" y="140">
+C
</text>
</g>
<g>
<text x="81" y="204">
+C
</text>
</g>
<g>
<text x="81" y="268">
-C
</text>
</g>
<g>
<text x="81" y="332">
+B
</text>
</g>
<g>
<text x="145" y="140">
-A
</text>
</g>
<g>
<text x="145" y="204">
-A
</text>
</g>
<g>
<text x="145" y="268">
-B
</text>
</g>
<g>
<text x="145" y="332">
+C
</text>
</g>
<g>
<text x="217" y="140">
+D
</text>
</g>
<g>
<text x="217" y="204">
+D
</text>
</g>
<g>
<text x="217" y="268">
+D
</text>
</g>
<g>
<text x="217" y="332">
+D
</text>
</g>
<g>
<text x="241" y="12">
+B
</text>
</g>
<g>
<text x="289" y="140">
-E
</text>
</g>
<g>
<text x="289" y="204">
+E
</text>
</g>
<g>
<text x="289" y="268">
+E
</text>
</g>
<g>
<text x="289" y="332">
+E
</text>
</g>
<g>
<text x="297" y="12">
+C
</text>
</g>
<g>
<text x="369" y="12">
-A
</text>
</g>
<g>
<text x="433" y="12">
+D
</text>
</g>
<g>
<text x="473" y="140">
+B
</text>
</g>
<g>
<text x="473" y="204">
+A
</text>
</g>
<g>
<text x="473" y="268">
+A
</text>
</g>
<g>
<text x="473" y="332">
+A
</text>
</g>
<g>
<text x="505" y="12">
-E
</text>
</g>
<g>
<text x="521" y="92">
Parsimonious reversal path 2
</text>
</g>
<g>
<text x="529" y="140">
+C
</text>
</g>
<g>
<text x="529" y="204">
-C
</text>
</g>
<g>
<text x="529" y="268">
-C
</text>
</g>
<g>
<text x="529" y="332">
+B
</text>
</g>
<g>
<text x="593" y="140">
-A
</text>
</g>
<g>
<text x="593" y="204">
-B
</text>
</g>
<g>
<text x="593" y="268">
-B
</text>
</g>
<g>
<text x="593" y="332">
+C
</text>
</g>
<g>
<text x="609" y="28">
vs
</text>
</g>
<g>
<text x="665" y="140">
+D
</text>
</g>
<g>
<text x="665" y="204">
+D
</text>
</g>
<g>
<text x="665" y="268">
+D
</text>
</g>
<g>
<text x="665" y="332">
+D
</text>
</g>
<g>
<text x="713" y="12">
+A
</text>
</g>
<g>
<text x="737" y="140">
-E
</text>
</g>
<g>
<text x="737" y="204">
-E
</text>
</g>
<g>
<text x="737" y="268">
+E
</text>
</g>
<g>
<text x="737" y="332">
+E
</text>
</g>
<g>
<text x="769" y="12">
+B
</text>
</g>
<g>
<text x="833" y="12">
+C
</text>
</g>
<g>
<text x="905" y="12">
+D
</text>
</g>
<g>
<text x="921" y="140">
+B
</text>
</g>
<g>
<text x="921" y="204">
-C
</text>
</g>
<g>
<text x="921" y="268">
+A
</text>
</g>
<g>
<text x="921" y="332">
+A
</text>
</g>
<g>
<text x="969" y="92">
Parsimonious reversal path 3
</text>
</g>
<g>
<text x="977" y="12">
+E
</text>
</g>
<g>
<text x="977" y="140">
+C
</text>
</g>
<g>
<text x="977" y="204">
-B
</text>
</g>
<g>
<text x="977" y="268">
-C
</text>
</g>
<g>
<text x="977" y="332">
+B
</text>
</g>
<g>
<text x="1041" y="140">
-A
</text>
</g>
<g>
<text x="1041" y="204">
-A
</text>
</g>
<g>
<text x="1041" y="268">
-B
</text>
</g>
<g>
<text x="1041" y="332">
+C
</text>
</g>
<g>
<text x="1113" y="140">
+D
</text>
</g>
<g>
<text x="1113" y="204">
+D
</text>
</g>
<g>
<text x="1113" y="268">
+D
</text>
</g>
<g>
<text x="1113" y="332">
+D
</text>
</g>
<g>
<text x="1185" y="140">
-E
</text>
</g>
<g>
<text x="1185" y="204">
-E
</text>
</g>
<g>
<text x="1185" y="268">
+E
</text>
</g>
<g>
<text x="1185" y="332">
+E
</text>
</g>
</svg>
