<svg class="bob" font-family="arial" font-size="14" height="160" width="272" xmlns="http://www.w3.org/2000/svg">
<defs>
<marker id="triangle" markerHeight="8" markerWidth="8" orient="auto" refX="4" refY="2" viewBox="0 0 8 4">
<polygon class="fg_fill" points="0,0 0,4 8,2 0,0"/>
</marker>
<marker id="clear_triangle" markerHeight="10" markerWidth="10" orient="auto" refX="1" refY="7" viewBox="0 0 20 14">
<polygon class="bg_fill" points="2,2 2,12 18,7 2,2"/>
</marker>
<marker id="circle" markerHeight="5" markerWidth="5" orient="auto" refX="10" refY="10" viewBox="0 0 20 20">
<circle class="fg_fill" cx="10" cy="10" r="8"/>
</marker>
<marker id="square" markerHeight="5" markerWidth="5" orient="auto" refX="10" refY="10" viewBox="0 0 20 20">
<rect class="fg_fill" height="20" width="20" x="0" y="0"/>
</marker>
<marker id="open_circle" markerHeight="10" markerWidth="10" orient="auto" refX="10" refY="10" viewBox="0 0 20 20">
<circle class="bg_fill" cx="10" cy="10" r="4"/>
</marker>
<marker id="big_open_circle" markerHeight="20" markerWidth="20" orient="auto" refX="20" refY="20" viewBox="0 0 40 40">
<circle class="bg_fill" cx="20" cy="20" r="6"/>
</marker>
</defs>
<style type="text/css">

rect.backdrop {
    fill: white;
}
text{
    fill: black;
}

circle {
    fill: none;
    stroke: black;
    stroke-width: 2;
}

line {
    stroke: black;
    stroke-width: 2;
    stroke-opacity: 1;
    fill-opacity: 1;
    stroke-linecap: round;
    stroke-linejoin: miter;
}

path {
    fill: none;
    stroke: black;
    stroke-width: 2;
    stroke-opacity: 1;
    fill-opacity: 1;
    stroke-linecap: round;
    stroke-linejoin: miter;
}

line.dashed {
    stroke-dasharray: 5;
}

.fg_fill {
    fill: black;
}


.bg_fill {
    fill: white;
    stroke: black;
    stroke-width: 2;
}

tspan.head{
    fill: none;
    stroke: none;
}
    
</style>
<rect class="backdrop" height="160" width="272" x="0" y="0"/>
<g>
<line x1="4" x2="4" y1="12" y2="148"/>
<path d="M 4 148 A 4 4 0 0 0 8 152"/>
<path d="M 8 8 A 4 4 0 0 0 4 12"/>
</g>
<g>
<line x1="8" x2="264" y1="8" y2="8"/>
<path d="M 268 12 A 4 4 0 0 0 264 8"/>
</g>
<g>
<line x1="8" x2="264" y1="152" y2="152"/>
<path d="M 264 152 A 4 4 0 0 0 268 148"/>
</g>
<g>
<line x1="20" x2="20" y1="108" y2="132"/>
<path d="M 20 132 A 4 4 0 0 0 24 136"/>
<path d="M 24 104 A 4 4 0 0 0 20 108"/>
</g>
<g>
<line x1="24" x2="120" y1="104" y2="104"/>
<path d="M 124 108 A 4 4 0 0 0 120 104"/>
</g>
<g>
<line x1="24" x2="120" y1="136" y2="136"/>
<path d="M 120 136 A 4 4 0 0 0 124 132"/>
</g>
<g>
<line x1="28" x2="28" y1="60" y2="84"/>
<path d="M 28 84 A 4 4 0 0 0 32 88"/>
<path d="M 32 56 A 4 4 0 0 0 28 60"/>
</g>
<g>
<line x1="32" x2="128" y1="56" y2="56"/>
<path d="M 132 60 A 4 4 0 0 0 128 56"/>
</g>
<g>
<line x1="32" x2="128" y1="88" y2="88"/>
<path d="M 128 88 A 4 4 0 0 0 132 84"/>
</g>
<g>
<line x1="124" x2="124" y1="108" y2="132"/>
</g>
<g>
<line x1="132" x2="132" y1="60" y2="84"/>
</g>
<g>
<line x1="148" x2="148" y1="76" y2="100"/>
<path d="M 148 100 A 4 4 0 0 0 152 104"/>
<path d="M 152 72 A 4 4 0 0 0 148 76"/>
</g>
<g>
<line x1="152" x2="248" y1="72" y2="72"/>
<path d="M 252 76 A 4 4 0 0 0 248 72"/>
</g>
<g>
<line x1="152" x2="248" y1="104" y2="104"/>
<path d="M 248 104 A 4 4 0 0 0 252 100"/>
</g>
<g>
<line x1="252" x2="252" y1="76" y2="100"/>
</g>
<g>
<line x1="268" x2="268" y1="12" y2="148"/>
</g>
<g>
<text x="33" y="124">
containerC
</text>
</g>
<g>
<text x="41" y="76">
containerA
</text>
</g>
<g>
<text x="129" y="28">
podA
</text>
</g>
<g>
<text x="161" y="92">
containerB
</text>
</g>
</svg>
