<svg class="bob" font-family="arial" font-size="14" height="192" width="432" xmlns="http://www.w3.org/2000/svg">
<defs>
<marker id="triangle" markerHeight="8" markerWidth="8" orient="auto" refX="4" refY="2" viewBox="0 0 8 4">
<polygon class="fg_fill" points="0,0 0,4 8,2 0,0"/>
</marker>
<marker id="clear_triangle" markerHeight="10" markerWidth="10" orient="auto" refX="1" refY="7" viewBox="0 0 20 14">
<polygon class="bg_fill" points="2,2 2,12 18,7 2,2"/>
</marker>
<marker id="circle" markerHeight="5" markerWidth="5" orient="auto" refX="10" refY="10" viewBox="0 0 20 20">
<circle class="fg_fill" cx="10" cy="10" r="8"/>
</marker>
<marker id="square" markerHeight="5" markerWidth="5" orient="auto" refX="10" refY="10" viewBox="0 0 20 20">
<rect class="fg_fill" height="20" width="20" x="0" y="0"/>
</marker>
<marker id="open_circle" markerHeight="10" markerWidth="10" orient="auto" refX="10" refY="10" viewBox="0 0 20 20">
<circle class="bg_fill" cx="10" cy="10" r="4"/>
</marker>
<marker id="big_open_circle" markerHeight="20" markerWidth="20" orient="auto" refX="20" refY="20" viewBox="0 0 40 40">
<circle class="bg_fill" cx="20" cy="20" r="6"/>
</marker>
</defs>
<style type="text/css">

rect.backdrop {
    fill: white;
}
text{
    fill: black;
}

circle {
    fill: none;
    stroke: black;
    stroke-width: 2;
}

line {
    stroke: black;
    stroke-width: 2;
    stroke-opacity: 1;
    fill-opacity: 1;
    stroke-linecap: round;
    stroke-linejoin: miter;
}

path {
    fill: none;
    stroke: black;
    stroke-width: 2;
    stroke-opacity: 1;
    fill-opacity: 1;
    stroke-linecap: round;
    stroke-linejoin: miter;
}

line.dashed {
    stroke-dasharray: 5;
}

.fg_fill {
    fill: black;
}


.bg_fill {
    fill: white;
    stroke: black;
    stroke-width: 2;
}

tspan.head{
    fill: none;
    stroke: none;
}
    
</style>
<rect class="backdrop" height="192" width="432" x="0" y="0"/>
<g>
<line x1="36" x2="36" y1="48" y2="152"/>
<line x1="36" x2="152" y1="152" y2="152"/>
</g>
<g>
<line marker-end="url(#circle)" marker-start="url(#circle)" x1="84" x2="52" y1="56" y2="120"/>
<line marker-end="url(#circle)" marker-start="url(#circle)" x1="84" x2="116" y1="56" y2="120"/>
<line marker-end="url(#circle)" marker-start="url(#circle)" x1="148" x2="116" y1="56" y2="120"/>
</g>
<g>
<line x1="308" x2="308" y1="64" y2="152"/>
<line x1="308" x2="384" y1="152" y2="152"/>
</g>
<g>
<line marker-end="url(#circle)" marker-start="url(#circle)" x1="324" x2="340" y1="72" y2="104"/>
<line marker-end="url(#circle)" marker-start="url(#circle)" x1="356" x2="340" y1="72" y2="104"/>
<line marker-end="url(#circle)" marker-start="url(#circle)" x1="356" x2="372" y1="72" y2="104"/>
</g>
<g>
<text x="1" y="12">
plot of (2,10,2,10)&#39;s
</text>
</g>
<g>
<text x="1" y="28">
components by index
</text>
</g>
<g>
<text x="1" y="76">
v
</text>
</g>
<g>
<text x="1" y="92">
a
</text>
</g>
<g>
<text x="1" y="108">
l
</text>
</g>
<g>
<text x="1" y="124">
u
</text>
</g>
<g>
<text x="1" y="140">
e
</text>
</g>
<g>
<text x="17" y="60">
10
</text>
</g>
<g>
<text x="25" y="76">
8
</text>
</g>
<g>
<text x="25" y="92">
6
</text>
</g>
<g>
<text x="25" y="108">
4
</text>
</g>
<g>
<text x="25" y="124">
2
</text>
</g>
<g>
<text x="25" y="140">
0
</text>
</g>
<g>
<text x="49" y="172">
0
</text>
</g>
<g>
<text x="73" y="188">
index
</text>
</g>
<g>
<text x="81" y="172">
1
</text>
</g>
<g>
<text x="113" y="172">
2
</text>
</g>
<g>
<text x="145" y="172">
3
</text>
</g>
<g>
<text x="265" y="12">
plot of (9,5,9,5)&#39;s
</text>
</g>
<g>
<text x="265" y="28">
components by index
</text>
</g>
<g>
<text x="273" y="76">
v
</text>
</g>
<g>
<text x="273" y="92">
a
</text>
</g>
<g>
<text x="273" y="108">
l
</text>
</g>
<g>
<text x="273" y="124">
u
</text>
</g>
<g>
<text x="273" y="140">
e
</text>
</g>
<g>
<text x="297" y="76">
9
</text>
</g>
<g>
<text x="297" y="92">
7
</text>
</g>
<g>
<text x="297" y="108">
5
</text>
</g>
<g>
<text x="297" y="124">
3
</text>
</g>
<g>
<text x="297" y="140">
1
</text>
</g>
<g>
<text x="321" y="172">
0
</text>
</g>
<g>
<text x="329" y="188">
index
</text>
</g>
<g>
<text x="337" y="172">
1
</text>
</g>
<g>
<text x="353" y="172">
2
</text>
</g>
<g>
<text x="369" y="172">
3
</text>
</g>
</svg>
