<svg class="bob" font-family="arial" font-size="14" height="144" width="240" xmlns="http://www.w3.org/2000/svg">
<defs>
<marker id="triangle" markerHeight="8" markerWidth="8" orient="auto" refX="4" refY="2" viewBox="0 0 8 4">
<polygon class="fg_fill" points="0,0 0,4 8,2 0,0"/>
</marker>
<marker id="clear_triangle" markerHeight="10" markerWidth="10" orient="auto" refX="1" refY="7" viewBox="0 0 20 14">
<polygon class="bg_fill" points="2,2 2,12 18,7 2,2"/>
</marker>
<marker id="circle" markerHeight="5" markerWidth="5" orient="auto" refX="10" refY="10" viewBox="0 0 20 20">
<circle class="fg_fill" cx="10" cy="10" r="8"/>
</marker>
<marker id="square" markerHeight="5" markerWidth="5" orient="auto" refX="10" refY="10" viewBox="0 0 20 20">
<rect class="fg_fill" height="20" width="20" x="0" y="0"/>
</marker>
<marker id="open_circle" markerHeight="10" markerWidth="10" orient="auto" refX="10" refY="10" viewBox="0 0 20 20">
<circle class="bg_fill" cx="10" cy="10" r="4"/>
</marker>
<marker id="big_open_circle" markerHeight="20" markerWidth="20" orient="auto" refX="20" refY="20" viewBox="0 0 40 40">
<circle class="bg_fill" cx="20" cy="20" r="6"/>
</marker>
</defs>
<style type="text/css">

rect.backdrop {
    fill: white;
}
text{
    fill: black;
}

circle {
    fill: none;
    stroke: black;
    stroke-width: 2;
}

line {
    stroke: black;
    stroke-width: 2;
    stroke-opacity: 1;
    fill-opacity: 1;
    stroke-linecap: round;
    stroke-linejoin: miter;
}

path {
    fill: none;
    stroke: black;
    stroke-width: 2;
    stroke-opacity: 1;
    fill-opacity: 1;
    stroke-linecap: round;
    stroke-linejoin: miter;
}

line.dashed {
    stroke-dasharray: 5;
}

.fg_fill {
    fill: black;
}


.bg_fill {
    fill: white;
    stroke: black;
    stroke-width: 2;
}

tspan.head{
    fill: none;
    stroke: none;
}
    
</style>
<rect class="backdrop" height="144" width="240" x="0" y="0"/>
<g>
<line x1="0" x2="36" y1="104" y2="104"/>
<line x1="36" x2="36" y1="32" y2="104"/>
<line x1="36" x2="36" y1="104" y2="144"/>
<line x1="36" x2="160" y1="104" y2="104"/>
</g>
<g>
<line x1="36" x2="56" y1="88" y2="88"/>
<path d="M 56 88 A 8 8 0 0 0 62 84"/>
</g>
<g>
<line x1="82" x2="62" y1="44" y2="84"/>
<path d="M 88 40 A 8 8 0 0 0 82 44"/>
</g>
<g>
<line x1="88" x2="104" y1="40" y2="40"/>
<path d="M 110 44 A 8 8 0 0 0 104 40"/>
</g>
<g>
<line x1="110" x2="130" y1="44" y2="84"/>
<path d="M 130 84 A 8 8 0 0 0 136 88"/>
</g>
<g>
<line x1="136" x2="160" y1="88" y2="88"/>
</g>
<g>
<text x="1" y="12">
f(x) increases between [A,B]
</text>
</g>
<g>
<text x="57" y="124">
A
</text>
</g>
<g>
<text x="81" y="124">
B
</text>
</g>
<g>
<text x="105" y="124">
C
</text>
</g>
<g>
<text x="129" y="124">
D
</text>
</g>
</svg>
