<svg class="bob" font-family="arial" font-size="14" height="176" width="208" xmlns="http://www.w3.org/2000/svg">
<defs>
<marker id="triangle" markerHeight="8" markerWidth="8" orient="auto" refX="4" refY="2" viewBox="0 0 8 4">
<polygon class="fg_fill" points="0,0 0,4 8,2 0,0"/>
</marker>
<marker id="clear_triangle" markerHeight="10" markerWidth="10" orient="auto" refX="1" refY="7" viewBox="0 0 20 14">
<polygon class="bg_fill" points="2,2 2,12 18,7 2,2"/>
</marker>
<marker id="circle" markerHeight="5" markerWidth="5" orient="auto" refX="10" refY="10" viewBox="0 0 20 20">
<circle class="fg_fill" cx="10" cy="10" r="8"/>
</marker>
<marker id="square" markerHeight="5" markerWidth="5" orient="auto" refX="10" refY="10" viewBox="0 0 20 20">
<rect class="fg_fill" height="20" width="20" x="0" y="0"/>
</marker>
<marker id="open_circle" markerHeight="10" markerWidth="10" orient="auto" refX="10" refY="10" viewBox="0 0 20 20">
<circle class="bg_fill" cx="10" cy="10" r="4"/>
</marker>
<marker id="big_open_circle" markerHeight="20" markerWidth="20" orient="auto" refX="20" refY="20" viewBox="0 0 40 40">
<circle class="bg_fill" cx="20" cy="20" r="6"/>
</marker>
</defs>
<style type="text/css">

rect.backdrop {
    fill: white;
}
text{
    fill: black;
}

circle {
    fill: none;
    stroke: black;
    stroke-width: 2;
}

line {
    stroke: black;
    stroke-width: 2;
    stroke-opacity: 1;
    fill-opacity: 1;
    stroke-linecap: round;
    stroke-linejoin: miter;
}

path {
    fill: none;
    stroke: black;
    stroke-width: 2;
    stroke-opacity: 1;
    fill-opacity: 1;
    stroke-linecap: round;
    stroke-linejoin: miter;
}

line.dashed {
    stroke-dasharray: 5;
}

.fg_fill {
    fill: black;
}


.bg_fill {
    fill: white;
    stroke: black;
    stroke-width: 2;
}

tspan.head{
    fill: none;
    stroke: none;
}
    
</style>
<rect class="backdrop" height="176" width="208" x="0" y="0"/>
<g>
<line x1="12" x2="12" y1="40" y2="168"/>
<line x1="12" x2="36" y1="40" y2="40"/>
<line x1="12" x2="36" y1="168" y2="168"/>
<line x1="36" x2="36" y1="40" y2="168"/>
<line x1="36" x2="60" y1="40" y2="40"/>
<line x1="36" x2="60" y1="168" y2="168"/>
<line x1="60" x2="60" y1="40" y2="168"/>
</g>
<g>
<line x1="124" x2="124" y1="40" y2="168"/>
<line x1="124" x2="148" y1="40" y2="40"/>
<line x1="124" x2="148" y1="168" y2="168"/>
<line x1="148" x2="148" y1="40" y2="168"/>
<line x1="148" x2="172" y1="40" y2="40"/>
<line x1="148" x2="172" y1="168" y2="168"/>
<line x1="172" x2="172" y1="40" y2="168"/>
</g>
<g>
<text x="1" y="12">
UNSQUASHED
</text>
</g>
<g>
<text x="17" y="60">
¶1
</text>
</g>
<g>
<text x="17" y="76">
a1
</text>
</g>
<g>
<text x="17" y="92">
a2
</text>
</g>
<g>
<text x="17" y="108">
a3
</text>
</g>
<g>
<text x="17" y="124">
b1
</text>
</g>
<g>
<text x="17" y="140">
n1
</text>
</g>
<g>
<text x="17" y="156">
n2
</text>
</g>
<g>
<text x="41" y="60">
a1
</text>
</g>
<g>
<text x="41" y="76">
n1
</text>
</g>
<g>
<text x="41" y="92">
n2
</text>
</g>
<g>
<text x="41" y="108">
b1
</text>
</g>
<g>
<text x="41" y="124">
¶1
</text>
</g>
<g>
<text x="41" y="140">
a2
</text>
</g>
<g>
<text x="41" y="156">
a3
</text>
</g>
<g>
<text x="121" y="12">
SQUASHED
</text>
</g>
<g>
<text x="129" y="60">
¶
</text>
</g>
<g>
<text x="129" y="76">
a
</text>
</g>
<g>
<text x="129" y="124">
b
</text>
</g>
<g>
<text x="129" y="140">
n
</text>
</g>
<g>
<text x="153" y="60">
a1
</text>
</g>
<g>
<text x="153" y="76">
n1
</text>
</g>
<g>
<text x="153" y="92">
n2
</text>
</g>
<g>
<text x="153" y="108">
b1
</text>
</g>
<g>
<text x="153" y="124">
¶1
</text>
</g>
<g>
<text x="153" y="140">
a2
</text>
</g>
<g>
<text x="153" y="156">
a3
</text>
</g>
</svg>
