<?xml version="1.0" encoding="UTF-8" standalone="no"?>
<!DOCTYPE svg PUBLIC "-//W3C//DTD SVG 1.1//EN"
 "http://www.w3.org/Graphics/SVG/1.1/DTD/svg11.dtd">
<!-- Generated by graphviz version 2.40.1 (0)
 -->
<!-- Title: G Pages: 1 -->
<svg width="275pt" height="239pt"
 viewBox="0.00 0.00 275.40 238.80" xmlns="http://www.w3.org/2000/svg" xmlns:xlink="http://www.w3.org/1999/xlink">
<g id="graph0" class="graph" transform="scale(1 1) rotate(0) translate(4 234.8)">
<title>G</title>
<polygon fill="#ffffff" stroke="transparent" points="-4,4 -4,-234.8 271.4,-234.8 271.4,4 -4,4"/>
<!-- N0 -->
<g id="node1" class="node">
<title>N0</title>
<ellipse fill="#000000" stroke="#000000" cx="1.8" cy="-138.8" rx="1.8" ry="1.8"/>
</g>
<!-- N1 -->
<g id="node2" class="node">
<title>N1</title>
<ellipse fill="#000000" stroke="#000000" cx="94.4" cy="-211.8" rx="1.8" ry="1.8"/>
</g>
<!-- N0&#45;&gt;N1 -->
<g id="edge1" class="edge">
<title>N0&#45;&gt;N1</title>
<path fill="none" stroke="#000000" d="M2.0814,-140.9213C3.162,-148.2332 7.7052,-172.6582 21.6,-185.8 38.6633,-201.9385 66.4173,-208.1625 82.2722,-210.4854"/>
<polygon fill="#000000" stroke="#000000" points="81.9583,-213.9724 92.2957,-211.6511 82.767,-207.0193 81.9583,-213.9724"/>
<text text-anchor="middle" x="48.1" y="-222.8" font-family="Courier,monospace" font-weight="bold" font-size="10.00" fill="#000000">banana¶</text>
<text text-anchor="middle" x="48.1" y="-211.8" font-family="Courier,monospace" font-weight="bold" font-size="10.00" fill="#000000">[0, 7)</text>
</g>
<!-- N10 -->
<g id="node3" class="node">
<title>N10</title>
<ellipse fill="#000000" stroke="#000000" cx="94.4" cy="-166.8" rx="1.8" ry="1.8"/>
</g>
<!-- N0&#45;&gt;N10 -->
<g id="edge4" class="edge">
<title>N0&#45;&gt;N10</title>
<path fill="none" stroke="#000000" d="M3.6561,-139.363C7.1621,-140.4263 14.9992,-142.8025 21.6,-144.8 43.2732,-151.3586 68.58,-159.0032 82.9251,-163.3353"/>
<polygon fill="#000000" stroke="#000000" points="82.014,-166.7162 92.5988,-166.2562 84.0374,-160.015 82.014,-166.7162"/>
<text text-anchor="middle" x="48.1" y="-173.8" font-family="Courier,monospace" font-weight="bold" font-size="10.00" fill="#000000">¶</text>
<text text-anchor="middle" x="48.1" y="-162.8" font-family="Courier,monospace" font-weight="bold" font-size="10.00" fill="#000000">[6, 7)</text>
</g>
<!-- N6 -->
<g id="node8" class="node">
<title>N6</title>
<ellipse fill="#000000" stroke="#000000" cx="94.4" cy="-110.8" rx="1.8" ry="1.8"/>
</g>
<!-- N0&#45;&gt;N6 -->
<g id="edge7" class="edge">
<title>N0&#45;&gt;N6</title>
<path fill="none" stroke="#000000" d="M2.3014,-136.944C3.9399,-131.2956 9.7267,-114.3049 21.6,-107.8 40.82,-97.2701 67.3679,-102.3666 82.5225,-106.7616"/>
<polygon fill="#000000" stroke="#000000" points="81.8436,-110.2231 92.4367,-110.0329 84.0371,-103.5757 81.8436,-110.2231"/>
<text text-anchor="middle" x="48.1" y="-132.8" font-family="Courier,monospace" font-weight="bold" font-size="10.00" fill="#000000">na</text>
<text text-anchor="middle" x="48.1" y="-121.8" font-family="Courier,monospace" font-weight="bold" font-size="10.00" fill="#000000">[2, 4)</text>
<text text-anchor="middle" x="48.1" y="-110.8" font-family="Courier,monospace" font-weight="bold" font-size="10.00" fill="#000000">[4, 6)</text>
</g>
<!-- N8 -->
<g id="node10" class="node">
<title>N8</title>
<ellipse fill="#000000" stroke="#000000" cx="94.4" cy="-43.8" rx="1.8" ry="1.8"/>
</g>
<!-- N0&#45;&gt;N8 -->
<g id="edge10" class="edge">
<title>N0&#45;&gt;N8</title>
<path fill="none" stroke="#000000" d="M1.9414,-136.988C2.8637,-125.6624 8.4009,-64.7016 21.6,-52.8 38.1514,-37.8756 66.0934,-39.15 82.1184,-41.4505"/>
<polygon fill="#000000" stroke="#000000" points="81.8008,-44.9499 92.265,-43.2913 83.0504,-38.0624 81.8008,-44.9499"/>
<text text-anchor="middle" x="48.1" y="-88.8" font-family="Courier,monospace" font-weight="bold" font-size="10.00" fill="#000000">a</text>
<text text-anchor="middle" x="48.1" y="-77.8" font-family="Courier,monospace" font-weight="bold" font-size="10.00" fill="#000000">[1, 2)</text>
<text text-anchor="middle" x="48.1" y="-66.8" font-family="Courier,monospace" font-weight="bold" font-size="10.00" fill="#000000">[3, 4)</text>
<text text-anchor="middle" x="48.1" y="-55.8" font-family="Courier,monospace" font-weight="bold" font-size="10.00" fill="#000000">[5, 6)</text>
</g>
<!-- N2 -->
<g id="node4" class="node">
<title>N2</title>
<ellipse fill="#000000" stroke="#000000" cx="265.6" cy="-69.8" rx="1.8" ry="1.8"/>
</g>
<!-- N3 -->
<g id="node5" class="node">
<title>N3</title>
<ellipse fill="#000000" stroke="#000000" cx="180" cy="-152.8" rx="1.8" ry="1.8"/>
</g>
<!-- N4 -->
<g id="node6" class="node">
<title>N4</title>
<ellipse fill="#000000" stroke="#000000" cx="180" cy="-46.8" rx="1.8" ry="1.8"/>
</g>
<!-- N4&#45;&gt;N2 -->
<g id="edge5" class="edge">
<title>N4&#45;&gt;N2</title>
<path fill="none" stroke="#000000" d="M181.7879,-47.2804C190.9697,-49.7475 233.1963,-61.0934 253.9793,-66.6776"/>
<polygon fill="#000000" stroke="#000000" points="253.2563,-70.1074 263.822,-69.3223 255.0727,-63.3472 253.2563,-70.1074"/>
<text text-anchor="middle" x="222.8" y="-77.8" font-family="Courier,monospace" font-weight="bold" font-size="10.00" fill="#000000">na¶</text>
<text text-anchor="middle" x="222.8" y="-66.8" font-family="Courier,monospace" font-weight="bold" font-size="10.00" fill="#000000">[4, 7)</text>
</g>
<!-- N5 -->
<g id="node7" class="node">
<title>N5</title>
<ellipse fill="#000000" stroke="#000000" cx="265.6" cy="-24.8" rx="1.8" ry="1.8"/>
</g>
<!-- N4&#45;&gt;N5 -->
<g id="edge6" class="edge">
<title>N4&#45;&gt;N5</title>
<path fill="none" stroke="#000000" d="M180.9611,-45.0628C183.4266,-40.8095 190.4456,-29.9214 199.8,-25.8 217.2307,-18.1203 239.8652,-20.0192 253.5329,-22.2778"/>
<polygon fill="#000000" stroke="#000000" points="252.9352,-25.7275 263.4269,-24.2525 254.3054,-18.8629 252.9352,-25.7275"/>
<text text-anchor="middle" x="222.8" y="-39.8" font-family="Courier,monospace" font-weight="bold" font-size="10.00" fill="#000000">¶</text>
<text text-anchor="middle" x="222.8" y="-28.8" font-family="Courier,monospace" font-weight="bold" font-size="10.00" fill="#000000">[6, 7)</text>
</g>
<!-- N6&#45;&gt;N3 -->
<g id="edge8" class="edge">
<title>N6&#45;&gt;N3</title>
<path fill="none" stroke="#000000" d="M95.6368,-112.5114C98.485,-116.3346 105.9028,-125.6379 114.2,-130.8 131.251,-141.4082 154.0004,-147.53 167.7943,-150.5097"/>
<polygon fill="#000000" stroke="#000000" points="167.314,-153.9816 177.7972,-152.4477 168.6455,-147.1094 167.314,-153.9816"/>
<text text-anchor="middle" x="137.2" y="-161.8" font-family="Courier,monospace" font-weight="bold" font-size="10.00" fill="#000000">na¶</text>
<text text-anchor="middle" x="137.2" y="-150.8" font-family="Courier,monospace" font-weight="bold" font-size="10.00" fill="#000000">[4, 7)</text>
</g>
<!-- N7 -->
<g id="node9" class="node">
<title>N7</title>
<ellipse fill="#000000" stroke="#000000" cx="180" cy="-107.8" rx="1.8" ry="1.8"/>
</g>
<!-- N6&#45;&gt;N7 -->
<g id="edge9" class="edge">
<title>N6&#45;&gt;N7</title>
<path fill="none" stroke="#000000" d="M96.252,-110.5595C99.7513,-110.117 107.5775,-109.1841 114.2,-108.8 132.8235,-107.7199 154.4584,-107.6108 167.687,-107.6735"/>
<polygon fill="#000000" stroke="#000000" points="167.9193,-111.1756 177.951,-107.7674 167.9835,-104.1759 167.9193,-111.1756"/>
<text text-anchor="middle" x="137.2" y="-122.8" font-family="Courier,monospace" font-weight="bold" font-size="10.00" fill="#000000">¶</text>
<text text-anchor="middle" x="137.2" y="-111.8" font-family="Courier,monospace" font-weight="bold" font-size="10.00" fill="#000000">[6, 7)</text>
</g>
<!-- N8&#45;&gt;N4 -->
<g id="edge2" class="edge">
<title>N8&#45;&gt;N4</title>
<path fill="none" stroke="#000000" d="M96.516,-43.8742C106.2309,-44.2146 146.9719,-45.6425 167.7297,-46.37"/>
<polygon fill="#000000" stroke="#000000" points="167.8415,-49.8759 177.958,-46.7284 168.0868,-42.8802 167.8415,-49.8759"/>
<text text-anchor="middle" x="137.2" y="-70.8" font-family="Courier,monospace" font-weight="bold" font-size="10.00" fill="#000000">na</text>
<text text-anchor="middle" x="137.2" y="-59.8" font-family="Courier,monospace" font-weight="bold" font-size="10.00" fill="#000000">[2, 4)</text>
<text text-anchor="middle" x="137.2" y="-48.8" font-family="Courier,monospace" font-weight="bold" font-size="10.00" fill="#000000">[4, 6)</text>
</g>
<!-- N9 -->
<g id="node11" class="node">
<title>N9</title>
<ellipse fill="#000000" stroke="#000000" cx="180" cy="-1.8" rx="1.8" ry="1.8"/>
</g>
<!-- N8&#45;&gt;N9 -->
<g id="edge3" class="edge">
<title>N8&#45;&gt;N9</title>
<path fill="none" stroke="#000000" d="M95.1856,-42.0819C97.4253,-37.3866 104.3236,-24.26 114.2,-17.8 130.7521,-6.9735 153.9661,-3.4667 167.9377,-2.3348"/>
<polygon fill="#000000" stroke="#000000" points="168.1761,-5.8272 177.9822,-1.8157 167.8148,1.1635 168.1761,-5.8272"/>
<text text-anchor="middle" x="137.2" y="-31.8" font-family="Courier,monospace" font-weight="bold" font-size="10.00" fill="#000000">¶</text>
<text text-anchor="middle" x="137.2" y="-20.8" font-family="Courier,monospace" font-weight="bold" font-size="10.00" fill="#000000">[6, 7)</text>
</g>
</g>
</svg>
