<svg class="bob" font-family="arial" font-size="14" height="128" width="480" xmlns="http://www.w3.org/2000/svg">
<defs>
<marker id="triangle" markerHeight="8" markerWidth="8" orient="auto" refX="4" refY="2" viewBox="0 0 8 4">
<polygon class="fg_fill" points="0,0 0,4 8,2 0,0"/>
</marker>
<marker id="clear_triangle" markerHeight="10" markerWidth="10" orient="auto" refX="1" refY="7" viewBox="0 0 20 14">
<polygon class="bg_fill" points="2,2 2,12 18,7 2,2"/>
</marker>
<marker id="circle" markerHeight="5" markerWidth="5" orient="auto" refX="10" refY="10" viewBox="0 0 20 20">
<circle class="fg_fill" cx="10" cy="10" r="8"/>
</marker>
<marker id="square" markerHeight="5" markerWidth="5" orient="auto" refX="10" refY="10" viewBox="0 0 20 20">
<rect class="fg_fill" height="20" width="20" x="0" y="0"/>
</marker>
<marker id="open_circle" markerHeight="10" markerWidth="10" orient="auto" refX="10" refY="10" viewBox="0 0 20 20">
<circle class="bg_fill" cx="10" cy="10" r="4"/>
</marker>
<marker id="big_open_circle" markerHeight="20" markerWidth="20" orient="auto" refX="20" refY="20" viewBox="0 0 40 40">
<circle class="bg_fill" cx="20" cy="20" r="6"/>
</marker>
</defs>
<style type="text/css">

rect.backdrop {
    fill: white;
}
text{
    fill: black;
}

circle {
    fill: none;
    stroke: black;
    stroke-width: 2;
}

line {
    stroke: black;
    stroke-width: 2;
    stroke-opacity: 1;
    fill-opacity: 1;
    stroke-linecap: round;
    stroke-linejoin: miter;
}

path {
    fill: none;
    stroke: black;
    stroke-width: 2;
    stroke-opacity: 1;
    fill-opacity: 1;
    stroke-linecap: round;
    stroke-linejoin: miter;
}

line.dashed {
    stroke-dasharray: 5;
}

.fg_fill {
    fill: black;
}


.bg_fill {
    fill: white;
    stroke: black;
    stroke-width: 2;
}

tspan.head{
    fill: none;
    stroke: none;
}
    
</style>
<rect class="backdrop" height="128" width="480" x="0" y="0"/>
<g>
<line marker-end="url(#triangle)" x1="40" x2="76" y1="40" y2="40"/>
</g>
<g>
<line marker-end="url(#triangle)" x1="40" x2="76" y1="56" y2="56"/>
</g>
<g>
<line marker-end="url(#triangle)" x1="40" x2="76" y1="72" y2="72"/>
</g>
<g>
<line marker-end="url(#triangle)" x1="40" x2="76" y1="88" y2="88"/>
</g>
<g>
<line x1="56" x2="88" y1="24" y2="24"/>
<path d="M 88 24 A 4 4 0 0 0 92 20"/>
</g>
<g>
<line x1="56" x2="88" y1="104" y2="104"/>
<path d="M 92 108 A 4 4 0 0 0 88 104"/>
</g>
<g>
<line x1="92" x2="92" y1="12" y2="20"/>
<path d="M 96 8 A 4 4 0 0 0 92 12"/>
</g>
<g>
<line x1="92" x2="92" y1="108" y2="116"/>
<path d="M 92 116 A 4 4 0 0 0 96 120"/>
</g>
<g>
<line x1="96" x2="152" y1="8" y2="8"/>
<path d="M 156 12 A 4 4 0 0 0 152 8"/>
</g>
<g>
<line x1="96" x2="152" y1="120" y2="120"/>
<path d="M 152 120 A 4 4 0 0 0 156 116"/>
</g>
<g>
<line x1="156" x2="156" y1="12" y2="20"/>
<path d="M 156 20 A 4 4 0 0 0 160 24"/>
</g>
<g>
<line x1="156" x2="156" y1="108" y2="116"/>
<path d="M 160 104 A 4 4 0 0 0 156 108"/>
</g>
<g>
<line x1="160" x2="192" y1="24" y2="24"/>
</g>
<g>
<line x1="160" x2="192" y1="104" y2="104"/>
</g>
<g>
<line x1="176" x2="216" y1="56" y2="56"/>
<path d="M 220 60 A 4 4 0 0 0 216 56"/>
</g>
<g>
<line x1="176" x2="220" y1="72" y2="72"/>
<line x1="220" x2="220" y1="60" y2="72"/>
<line marker-end="url(#triangle)" x1="220" x2="324" y1="72" y2="72"/>
</g>
<g>
<line x1="304" x2="336" y1="40" y2="40"/>
<path d="M 336 40 A 4 4 0 0 0 340 36"/>
</g>
<g>
<line x1="304" x2="336" y1="88" y2="88"/>
<path d="M 340 92 A 4 4 0 0 0 336 88"/>
</g>
<g>
<line x1="340" x2="340" y1="28" y2="36"/>
<path d="M 344 24 A 4 4 0 0 0 340 28"/>
</g>
<g>
<line x1="340" x2="340" y1="92" y2="100"/>
<path d="M 340 100 A 4 4 0 0 0 344 104"/>
</g>
<g>
<line x1="344" x2="400" y1="24" y2="24"/>
<path d="M 404 28 A 4 4 0 0 0 400 24"/>
</g>
<g>
<line x1="344" x2="400" y1="104" y2="104"/>
<path d="M 400 104 A 4 4 0 0 0 404 100"/>
</g>
<g>
<line x1="404" x2="404" y1="28" y2="36"/>
<path d="M 404 36 A 4 4 0 0 0 408 40"/>
</g>
<g>
<line x1="404" x2="404" y1="92" y2="100"/>
<path d="M 408 88 A 4 4 0 0 0 404 92"/>
</g>
<g>
<line x1="408" x2="440" y1="40" y2="40"/>
</g>
<g>
<line x1="408" x2="440" y1="88" y2="88"/>
</g>
<g>
<line marker-end="url(#triangle)" x1="424" x2="460" y1="72" y2="72"/>
</g>
<g>
<text x="97" y="44">
1=
</text>
</g>
<g>
<text x="97" y="60">
5=
</text>
</g>
<g>
<text x="97" y="76">
10=
</text>
</g>
<g>
<text x="97" y="92">
15=
</text>
</g>
<g>
<text x="121" y="28">
g
</text>
</g>
<g>
<text x="129" y="44">
3000
</text>
</g>
<g>
<text x="129" y="60">
100
</text>
</g>
<g>
<text x="129" y="76">
100
</text>
</g>
<g>
<text x="129" y="92">
3000
</text>
</g>
<g>
<text x="345" y="60">
10=
</text>
</g>
<g>
<text x="345" y="76">
100=
</text>
</g>
<g>
<text x="369" y="44">
f
</text>
</g>
<g>
<text x="385" y="60">
1
</text>
</g>
<g>
<text x="385" y="76">
2
</text>
</g>
<g>
<text x="473" y="76">
2
</text>
</g>
</svg>
