<svg class="bob" font-family="arial" font-size="14" height="192" width="416" xmlns="http://www.w3.org/2000/svg">
<defs>
<marker id="triangle" markerHeight="8" markerWidth="8" orient="auto" refX="4" refY="2" viewBox="0 0 8 4">
<polygon class="fg_fill" points="0,0 0,4 8,2 0,0"/>
</marker>
<marker id="clear_triangle" markerHeight="10" markerWidth="10" orient="auto" refX="1" refY="7" viewBox="0 0 20 14">
<polygon class="bg_fill" points="2,2 2,12 18,7 2,2"/>
</marker>
<marker id="circle" markerHeight="5" markerWidth="5" orient="auto" refX="10" refY="10" viewBox="0 0 20 20">
<circle class="fg_fill" cx="10" cy="10" r="8"/>
</marker>
<marker id="square" markerHeight="5" markerWidth="5" orient="auto" refX="10" refY="10" viewBox="0 0 20 20">
<rect class="fg_fill" height="20" width="20" x="0" y="0"/>
</marker>
<marker id="open_circle" markerHeight="10" markerWidth="10" orient="auto" refX="10" refY="10" viewBox="0 0 20 20">
<circle class="bg_fill" cx="10" cy="10" r="4"/>
</marker>
<marker id="big_open_circle" markerHeight="20" markerWidth="20" orient="auto" refX="20" refY="20" viewBox="0 0 40 40">
<circle class="bg_fill" cx="20" cy="20" r="6"/>
</marker>
</defs>
<style type="text/css">

rect.backdrop {
    fill: white;
}
text{
    fill: black;
}

circle {
    fill: none;
    stroke: black;
    stroke-width: 2;
}

line {
    stroke: black;
    stroke-width: 2;
    stroke-opacity: 1;
    fill-opacity: 1;
    stroke-linecap: round;
    stroke-linejoin: miter;
}

path {
    fill: none;
    stroke: black;
    stroke-width: 2;
    stroke-opacity: 1;
    fill-opacity: 1;
    stroke-linecap: round;
    stroke-linejoin: miter;
}

line.dashed {
    stroke-dasharray: 5;
}

.fg_fill {
    fill: black;
}


.bg_fill {
    fill: white;
    stroke: black;
    stroke-width: 2;
}

tspan.head{
    fill: none;
    stroke: none;
}
    
</style>
<rect class="backdrop" height="192" width="416" x="0" y="0"/>
<g>
<line x1="4" x2="4" y1="92" y2="176"/>
<path d="M 8 88 A 4 4 0 0 0 4 92"/>
</g>
<g>
<line marker-end="url(#circle)" x1="8" x2="52" y1="88" y2="88"/>
<line marker-end="url(#circle)" x1="52" x2="52" y1="60" y2="88"/>
<line marker-start="url(#circle)" x1="52" x2="96" y1="88" y2="88"/>
<path d="M 56 56 A 4 4 0 0 0 52 60"/>
<path d="M 100 92 A 4 4 0 0 0 96 88"/>
</g>
<g>
<line x1="44" x2="44" y1="156" y2="176"/>
<path d="M 48 152 A 4 4 0 0 0 44 156"/>
</g>
<g>
<line marker-end="url(#circle)" x1="48" x2="68" y1="152" y2="152"/>
<line marker-end="url(#circle)" x1="68" x2="68" y1="124" y2="152"/>
<line marker-start="url(#circle)" x1="68" x2="88" y1="152" y2="152"/>
<path d="M 72 120 A 4 4 0 0 0 68 124"/>
<path d="M 92 156 A 4 4 0 0 0 88 152"/>
</g>
<g>
<line marker-end="url(#circle)" x1="56" x2="148" y1="56" y2="56"/>
<line marker-end="url(#circle)" x1="148" x2="148" y1="28" y2="56"/>
<line marker-start="url(#circle)" x1="148" x2="232" y1="56" y2="56"/>
<path d="M 152 24 A 4 4 0 0 0 148 28"/>
<path d="M 236 60 A 4 4 0 0 0 232 56"/>
</g>
<g>
<line marker-end="url(#circle)" x1="72" x2="100" y1="120" y2="120"/>
<line marker-end="url(#circle)" x1="100" x2="100" y1="92" y2="120"/>
<line marker-start="url(#circle)" x1="100" x2="128" y1="120" y2="120"/>
<path d="M 132 124 A 4 4 0 0 0 128 120"/>
</g>
<g>
<line x1="92" x2="92" y1="156" y2="176"/>
</g>
<g>
<line x1="132" x2="132" y1="124" y2="176"/>
</g>
<g>
<line marker-end="url(#circle)" x1="152" x2="244" y1="24" y2="24"/>
<line marker-end="url(#circle)" x1="244" x2="244" y1="0" y2="24"/>
<line marker-start="url(#circle)" x1="244" x2="336" y1="24" y2="24"/>
<path d="M 340 28 A 4 4 0 0 0 336 24"/>
</g>
<g>
<line x1="172" x2="172" y1="156" y2="176"/>
<path d="M 176 152 A 4 4 0 0 0 172 156"/>
</g>
<g>
<line marker-end="url(#circle)" x1="176" x2="196" y1="152" y2="152"/>
<line marker-end="url(#circle)" x1="196" x2="196" y1="124" y2="152"/>
<line marker-start="url(#circle)" x1="196" x2="216" y1="152" y2="152"/>
<path d="M 200 120 A 4 4 0 0 0 196 124"/>
<path d="M 220 156 A 4 4 0 0 0 216 152"/>
</g>
<g>
<line marker-end="url(#circle)" x1="200" x2="236" y1="120" y2="120"/>
<line marker-end="url(#circle)" x1="236" x2="236" y1="60" y2="120"/>
<line marker-start="url(#circle)" x1="236" x2="264" y1="120" y2="120"/>
<path d="M 268 124 A 4 4 0 0 0 264 120"/>
</g>
<g>
<line x1="220" x2="220" y1="156" y2="176"/>
</g>
<g>
<line x1="268" x2="268" y1="124" y2="176"/>
</g>
<g>
<line x1="308" x2="308" y1="124" y2="176"/>
<path d="M 312 120 A 4 4 0 0 0 308 124"/>
</g>
<g>
<line marker-end="url(#circle)" x1="312" x2="340" y1="120" y2="120"/>
<line marker-end="url(#circle)" x1="340" x2="340" y1="28" y2="120"/>
<line marker-start="url(#circle)" x1="340" x2="368" y1="120" y2="120"/>
<path d="M 372 124 A 4 4 0 0 0 368 120"/>
</g>
<g>
<line x1="348" x2="348" y1="156" y2="176"/>
<path d="M 352 152 A 4 4 0 0 0 348 156"/>
</g>
<g>
<line marker-end="url(#circle)" x1="352" x2="372" y1="152" y2="152"/>
<line marker-end="url(#circle)" x1="372" x2="372" y1="124" y2="152"/>
<line marker-start="url(#circle)" x1="372" x2="392" y1="152" y2="152"/>
<path d="M 396 156 A 4 4 0 0 0 392 152"/>
</g>
<g>
<line x1="396" x2="396" y1="156" y2="176"/>
</g>
<g>
<text x="1" y="188">
g9
</text>
</g>
<g>
<text x="41" y="188">
g4
</text>
</g>
<g>
<text x="89" y="188">
g2
</text>
</g>
<g>
<text x="129" y="188">
g1
</text>
</g>
<g>
<text x="169" y="188">
g6
</text>
</g>
<g>
<text x="217" y="188">
g10
</text>
</g>
<g>
<text x="265" y="188">
g7
</text>
</g>
<g>
<text x="305" y="188">
g8
</text>
</g>
<g>
<text x="345" y="188">
g5
</text>
</g>
<g>
<text x="393" y="188">
g3
</text>
</g>
</svg>
