<?xml version="1.0" encoding="UTF-8" standalone="no"?>
<!DOCTYPE svg PUBLIC "-//W3C//DTD SVG 1.1//EN"
 "http://www.w3.org/Graphics/SVG/1.1/DTD/svg11.dtd">
<!-- Generated by graphviz version 2.40.1 (0)
 -->
<!-- Title: G Pages: 1 -->
<svg width="1938pt" height="609pt"
 viewBox="0.00 0.00 1937.71 608.63" xmlns="http://www.w3.org/2000/svg" xmlns:xlink="http://www.w3.org/1999/xlink">
<g id="graph0" class="graph" transform="scale(1 1) rotate(0) translate(4 604.6294)">
<title>G</title>
<polygon fill="#ffffff" stroke="transparent" points="-4,4 -4,-604.6294 1933.708,-604.6294 1933.708,4 -4,4"/>
<!-- STATE_A -->
<g id="node1" class="node">
<title>STATE_A</title>
<polygon fill="none" stroke="#000000" points="331.4168,-304.6787 333.1928,-304.7773 334.9505,-304.9247 336.6827,-305.1207 338.3823,-305.3647 340.0425,-305.656 341.6568,-305.9939 343.2188,-306.3773 344.7228,-306.8053 346.163,-307.2766 347.5343,-307.79 348.8319,-308.3441 350.0514,-308.9374 351.1891,-309.5682 352.2416,-310.2348 353.2059,-310.9353 354.0797,-311.6679 354.8611,-312.4306 355.5488,-313.2212 356.1418,-314.0376 356.6397,-314.8775 357.0428,-315.7387 357.3514,-316.6188 357.5667,-317.5154 357.69,-318.4259 357.7232,-319.348 357.6684,-320.2791 357.5282,-321.2166 357.3053,-322.158 357.0029,-323.1007 356.6242,-324.0421 356.1728,-324.9797 355.6524,-325.9108 355.0666,-326.8329 354.4195,-327.7434 353.7149,-328.64 352.9568,-329.5201 352.149,-330.3813 351.2955,-331.2212 350.4001,-332.0376 349.4665,-332.8282 348.4982,-333.5909 347.4986,-334.3235 346.4711,-335.024 345.4186,-335.6906 344.3441,-336.3214 343.2503,-336.9147 342.1396,-337.4688 341.0143,-337.9822 339.8765,-338.4535 338.7281,-338.8815 337.5708,-339.2649 336.406,-339.6028 335.2351,-339.8941 334.0593,-340.1381 332.8797,-340.3341 331.6972,-340.4815 330.5128,-340.5801 329.3272,-340.6294 328.1412,-340.6294 326.9556,-340.5801 325.7712,-340.4815 324.5887,-340.3341 323.4091,-340.1381 322.2334,-339.8941 321.0625,-339.6028 319.8977,-339.2649 318.7403,-338.8815 317.5919,-338.4535 316.4541,-337.9822 315.3288,-337.4688 314.2182,-336.9147 313.1243,-336.3214 312.0498,-335.6906 310.9974,-335.024 309.9698,-334.3235 308.9703,-333.5909 308.002,-332.8282 307.0683,-332.0376 306.1729,-331.2212 305.3194,-330.3813 304.5117,-329.5201 303.7535,-328.64 303.0489,-327.7434 302.4018,-326.8329 301.8161,-325.9108 301.2956,-324.9797 300.8442,-324.0421 300.4656,-323.1007 300.1631,-322.158 299.9403,-321.2166 299.8,-320.2791 299.7453,-319.348 299.7784,-318.4259 299.9018,-317.5154 300.117,-316.6188 300.4257,-315.7387 300.8287,-314.8775 301.3267,-314.0376 301.9197,-313.2212 302.6073,-312.4306 303.3887,-311.6679 304.2625,-310.9353 305.2268,-310.2348 306.2793,-309.5682 307.417,-308.9374 308.6366,-308.3441 309.9342,-307.79 311.3055,-307.2766 312.7457,-306.8053 314.2496,-306.3773 315.8117,-305.9939 317.426,-305.656 319.0862,-305.3647 320.7858,-305.1207 322.5179,-304.9247 324.2756,-304.7773 326.0517,-304.6787 327.8388,-304.6294 329.6296,-304.6294 331.4168,-304.6787"/>
<text text-anchor="middle" x="328.7342" y="-320.1294" font-family="Courier,monospace" font-weight="bold" font-size="10.00" fill="#000000">A</text>
</g>
<!-- STATE_B -->
<g id="node2" class="node">
<title>STATE_B</title>
<polygon fill="none" stroke="#000000" points="633.1602,-129.6787 634.9363,-129.7773 636.694,-129.9247 638.4261,-130.1207 640.1257,-130.3647 641.7859,-130.656 643.4002,-130.9939 644.9623,-131.3773 646.4662,-131.8053 647.9064,-132.2766 649.2777,-132.79 650.5753,-133.3441 651.7949,-133.9374 652.9326,-134.5682 653.9851,-135.2348 654.9494,-135.9353 655.8232,-136.6679 656.6046,-137.4306 657.2922,-138.2212 657.8852,-139.0376 658.3832,-139.8775 658.7862,-140.7387 659.0949,-141.6188 659.3101,-142.5154 659.4334,-143.4259 659.4666,-144.348 659.4118,-145.2791 659.2716,-146.2166 659.0487,-147.158 658.7463,-148.1007 658.3677,-149.0421 657.9163,-149.9797 657.3958,-150.9108 656.8101,-151.8329 656.1629,-152.7434 655.4583,-153.64 654.7002,-154.5201 653.8925,-155.3813 653.039,-156.2212 652.1436,-157.0376 651.2099,-157.8282 650.2416,-158.5909 649.242,-159.3235 648.2145,-160.024 647.162,-160.6906 646.0876,-161.3214 644.9937,-161.9147 643.883,-162.4688 642.7578,-162.9822 641.62,-163.4535 640.4716,-163.8815 639.3142,-164.2649 638.1494,-164.6028 636.9785,-164.8941 635.8027,-165.1381 634.6231,-165.3341 633.4407,-165.4815 632.2562,-165.5801 631.0707,-165.6294 629.8847,-165.6294 628.6991,-165.5801 627.5146,-165.4815 626.3322,-165.3341 625.1526,-165.1381 623.9768,-164.8941 622.8059,-164.6028 621.6411,-164.2649 620.4838,-163.8815 619.3353,-163.4535 618.1976,-162.9822 617.0723,-162.4688 615.9616,-161.9147 614.8678,-161.3214 613.7933,-160.6906 612.7408,-160.024 611.7133,-159.3235 610.7137,-158.5909 609.7454,-157.8282 608.8118,-157.0376 607.9164,-156.2212 607.0629,-155.3813 606.2551,-154.5201 605.497,-153.64 604.7924,-152.7434 604.1452,-151.8329 603.5595,-150.9108 603.0391,-149.9797 602.5877,-149.0421 602.209,-148.1007 601.9066,-147.158 601.6837,-146.2166 601.5435,-145.2791 601.4887,-144.348 601.5219,-143.4259 601.6452,-142.5154 601.8605,-141.6188 602.1691,-140.7387 602.5722,-139.8775 603.0701,-139.0376 603.6631,-138.2212 604.3507,-137.4306 605.1321,-136.6679 606.006,-135.9353 606.9703,-135.2348 608.0227,-134.5682 609.1604,-133.9374 610.38,-133.3441 611.6776,-132.79 613.0489,-132.2766 614.4891,-131.8053 615.993,-131.3773 617.5551,-130.9939 619.1694,-130.656 620.8296,-130.3647 622.5292,-130.1207 624.2614,-129.9247 626.0191,-129.7773 627.7951,-129.6787 629.5823,-129.6294 631.3731,-129.6294 633.1602,-129.6787"/>
<text text-anchor="middle" x="630.4777" y="-145.1294" font-family="Courier,monospace" font-weight="bold" font-size="10.00" fill="#000000">B</text>
</g>
<!-- STATE_A&#45;&gt;STATE_B -->
<g id="edge1" class="edge">
<title>STATE_A&#45;&gt;STATE_B</title>
<path fill="none" stroke="#000000" d="M337.4252,-305.2167C351.8926,-278.0853 383.5454,-226.0024 425.7342,-198.6294 477.1193,-165.2897 548.7288,-153.7448 592.2197,-149.747"/>
<polygon fill="#000000" stroke="#000000" points="592.7006,-153.2192 602.3769,-148.9041 592.1216,-146.2432 592.7006,-153.2192"/>
<text text-anchor="middle" x="504.7342" y="-201.6294" font-family="Courier,monospace" font-weight="bold" font-size="10.00" fill="#000000">0.5999200239928022</text>
</g>
<!-- STATE_E -->
<g id="node5" class="node">
<title>STATE_E</title>
<polygon fill="none" stroke="#000000" points="1612.9036,-315.6787 1614.6797,-315.7773 1616.4374,-315.9247 1618.1696,-316.1207 1619.8691,-316.3647 1621.5294,-316.656 1623.1436,-316.9939 1624.7057,-317.3773 1626.2097,-317.8053 1627.6499,-318.2766 1629.0211,-318.79 1630.3187,-319.3441 1631.5383,-319.9374 1632.676,-320.5682 1633.7285,-321.2348 1634.6928,-321.9353 1635.5666,-322.6679 1636.348,-323.4306 1637.0357,-324.2212 1637.6287,-325.0376 1638.1266,-325.8775 1638.5296,-326.7387 1638.8383,-327.6188 1639.0536,-328.5154 1639.1769,-329.4259 1639.2101,-330.348 1639.1553,-331.2791 1639.0151,-332.2166 1638.7922,-333.158 1638.4898,-334.1007 1638.1111,-335.0421 1637.6597,-335.9797 1637.1393,-336.9108 1636.5535,-337.8329 1635.9064,-338.7434 1635.2018,-339.64 1634.4436,-340.5201 1633.6359,-341.3813 1632.7824,-342.2212 1631.887,-343.0376 1630.9534,-343.8282 1629.985,-344.5909 1628.9855,-345.3235 1627.9579,-346.024 1626.9055,-346.6906 1625.831,-347.3214 1624.7372,-347.9147 1623.6265,-348.4688 1622.5012,-348.9822 1621.3634,-349.4535 1620.215,-349.8815 1619.0577,-350.2649 1617.8929,-350.6028 1616.722,-350.8941 1615.5462,-351.1381 1614.3666,-351.3341 1613.1841,-351.4815 1611.9997,-351.5801 1610.8141,-351.6294 1609.6281,-351.6294 1608.4425,-351.5801 1607.2581,-351.4815 1606.0756,-351.3341 1604.896,-351.1381 1603.7203,-350.8941 1602.5494,-350.6028 1601.3846,-350.2649 1600.2272,-349.8815 1599.0788,-349.4535 1597.941,-348.9822 1596.8157,-348.4688 1595.705,-347.9147 1594.6112,-347.3214 1593.5367,-346.6906 1592.4843,-346.024 1591.4567,-345.3235 1590.4572,-344.5909 1589.4889,-343.8282 1588.5552,-343.0376 1587.6598,-342.2212 1586.8063,-341.3813 1585.9986,-340.5201 1585.2404,-339.64 1584.5358,-338.7434 1583.8887,-337.8329 1583.303,-336.9108 1582.7825,-335.9797 1582.3311,-335.0421 1581.9524,-334.1007 1581.65,-333.158 1581.4272,-332.2166 1581.2869,-331.2791 1581.2321,-330.348 1581.2653,-329.4259 1581.3886,-328.5154 1581.6039,-327.6188 1581.9126,-326.7387 1582.3156,-325.8775 1582.8136,-325.0376 1583.4066,-324.2212 1584.0942,-323.4306 1584.8756,-322.6679 1585.7494,-321.9353 1586.7137,-321.2348 1587.7662,-320.5682 1588.9039,-319.9374 1590.1235,-319.3441 1591.4211,-318.79 1592.7923,-318.2766 1594.2326,-317.8053 1595.7365,-317.3773 1597.2986,-316.9939 1598.9129,-316.656 1600.5731,-316.3647 1602.2727,-316.1207 1604.0048,-315.9247 1605.7625,-315.7773 1607.5386,-315.6787 1609.3257,-315.6294 1611.1165,-315.6294 1612.9036,-315.6787"/>
<text text-anchor="middle" x="1610.2211" y="-331.1294" font-family="Courier,monospace" font-weight="bold" font-size="10.00" fill="#000000">E</text>
</g>
<!-- STATE_A&#45;&gt;STATE_E -->
<g id="edge2" class="edge">
<title>STATE_A&#45;&gt;STATE_E</title>
<path fill="none" stroke="#000000" d="M355.7299,-326.0727C408.4454,-332.489 528.8167,-345.6294 630.4777,-345.6294 630.4777,-345.6294 630.4777,-345.6294 1269.2211,-345.6294 1379.2581,-345.6294 1509.1446,-339.3114 1572.1409,-335.8441"/>
<polygon fill="#000000" stroke="#000000" points="1572.5962,-339.3243 1582.3857,-335.2728 1572.2063,-332.3351 1572.5962,-339.3243"/>
<text text-anchor="middle" x="924.7211" y="-348.6294" font-family="Courier,monospace" font-weight="bold" font-size="10.00" fill="#000000">0.39998000599820055</text>
</g>
<!-- STATE_F -->
<g id="node6" class="node">
<title>STATE_F</title>
<polygon fill="none" stroke="#000000" points="1271.9036,-188.6787 1273.6797,-188.7773 1275.4374,-188.9247 1277.1696,-189.1207 1278.8691,-189.3647 1280.5294,-189.656 1282.1436,-189.9939 1283.7057,-190.3773 1285.2097,-190.8053 1286.6499,-191.2766 1288.0211,-191.79 1289.3187,-192.3441 1290.5383,-192.9374 1291.676,-193.5682 1292.7285,-194.2348 1293.6928,-194.9353 1294.5666,-195.6679 1295.348,-196.4306 1296.0357,-197.2212 1296.6287,-198.0376 1297.1266,-198.8775 1297.5296,-199.7387 1297.8383,-200.6188 1298.0536,-201.5154 1298.1769,-202.4259 1298.2101,-203.348 1298.1553,-204.2791 1298.0151,-205.2166 1297.7922,-206.158 1297.4898,-207.1007 1297.1111,-208.0421 1296.6597,-208.9797 1296.1393,-209.9108 1295.5535,-210.8329 1294.9064,-211.7434 1294.2018,-212.64 1293.4436,-213.5201 1292.6359,-214.3813 1291.7824,-215.2212 1290.887,-216.0376 1289.9534,-216.8282 1288.985,-217.5909 1287.9855,-218.3235 1286.9579,-219.024 1285.9055,-219.6906 1284.831,-220.3214 1283.7372,-220.9147 1282.6265,-221.4688 1281.5012,-221.9822 1280.3634,-222.4535 1279.215,-222.8815 1278.0577,-223.2649 1276.8929,-223.6028 1275.722,-223.8941 1274.5462,-224.1381 1273.3666,-224.3341 1272.1841,-224.4815 1270.9997,-224.5801 1269.8141,-224.6294 1268.6281,-224.6294 1267.4425,-224.5801 1266.2581,-224.4815 1265.0756,-224.3341 1263.896,-224.1381 1262.7203,-223.8941 1261.5494,-223.6028 1260.3846,-223.2649 1259.2272,-222.8815 1258.0788,-222.4535 1256.941,-221.9822 1255.8157,-221.4688 1254.705,-220.9147 1253.6112,-220.3214 1252.5367,-219.6906 1251.4843,-219.024 1250.4567,-218.3235 1249.4572,-217.5909 1248.4889,-216.8282 1247.5552,-216.0376 1246.6598,-215.2212 1245.8063,-214.3813 1244.9986,-213.5201 1244.2404,-212.64 1243.5358,-211.7434 1242.8887,-210.8329 1242.303,-209.9108 1241.7825,-208.9797 1241.3311,-208.0421 1240.9524,-207.1007 1240.65,-206.158 1240.4272,-205.2166 1240.2869,-204.2791 1240.2321,-203.348 1240.2653,-202.4259 1240.3886,-201.5154 1240.6039,-200.6188 1240.9126,-199.7387 1241.3156,-198.8775 1241.8136,-198.0376 1242.4066,-197.2212 1243.0942,-196.4306 1243.8756,-195.6679 1244.7494,-194.9353 1245.7137,-194.2348 1246.7662,-193.5682 1247.9039,-192.9374 1249.1235,-192.3441 1250.4211,-191.79 1251.7923,-191.2766 1253.2326,-190.8053 1254.7365,-190.3773 1256.2986,-189.9939 1257.9129,-189.656 1259.5731,-189.3647 1261.2727,-189.1207 1263.0048,-188.9247 1264.7625,-188.7773 1266.5386,-188.6787 1268.3257,-188.6294 1270.1165,-188.6294 1271.9036,-188.6787"/>
<text text-anchor="middle" x="1269.2211" y="-204.1294" font-family="Courier,monospace" font-weight="bold" font-size="10.00" fill="#000000">F</text>
</g>
<!-- STATE_A&#45;&gt;STATE_F -->
<g id="edge3" class="edge">
<title>STATE_A&#45;&gt;STATE_F</title>
<path fill="none" stroke="#000000" d="M354.369,-311.8626C373.7509,-303.9651 401.1348,-293.3215 425.7342,-285.6294 535.6065,-251.2731 563.1499,-239.1226 677.2211,-223.6294 895.3067,-194.0089 952.2295,-216.1423 1172.2211,-209.6294 1191.5079,-209.0584 1212.951,-208.3979 1230.7613,-207.8422"/>
<polygon fill="#000000" stroke="#000000" points="1230.8985,-211.3398 1240.7842,-207.5287 1230.6796,-204.3432 1230.8985,-211.3398"/>
<text text-anchor="middle" x="756.2211" y="-226.6294" font-family="Courier,monospace" font-weight="bold" font-size="10.00" fill="#000000">9.997000899730082e&#45;05</text>
</g>
<!-- SYMBOL_y -->
<g id="node8" class="node">
<title>SYMBOL_y</title>
<polygon fill="none" stroke="#000000" stroke-dasharray="5,2" points="1903.6471,-486.6787 1905.4231,-486.7773 1907.1808,-486.9247 1908.913,-487.1207 1910.6126,-487.3647 1912.2728,-487.656 1913.8871,-487.9939 1915.4492,-488.3773 1916.9531,-488.8053 1918.3933,-489.2766 1919.7646,-489.79 1921.0622,-490.3441 1922.2818,-490.9374 1923.4195,-491.5682 1924.4719,-492.2348 1925.4363,-492.9353 1926.3101,-493.6679 1927.0915,-494.4306 1927.7791,-495.2212 1928.3721,-496.0376 1928.8701,-496.8775 1929.2731,-497.7387 1929.5817,-498.6188 1929.797,-499.5154 1929.9203,-500.4259 1929.9535,-501.348 1929.8987,-502.2791 1929.7585,-503.2166 1929.5356,-504.158 1929.2332,-505.1007 1928.8545,-506.0421 1928.4032,-506.9797 1927.8827,-507.9108 1927.297,-508.8329 1926.6498,-509.7434 1925.9452,-510.64 1925.1871,-511.5201 1924.3793,-512.3813 1923.5259,-513.2212 1922.6305,-514.0376 1921.6968,-514.8282 1920.7285,-515.5909 1919.7289,-516.3235 1918.7014,-517.024 1917.6489,-517.6906 1916.5744,-518.3214 1915.4806,-518.9147 1914.3699,-519.4688 1913.2447,-519.9822 1912.1069,-520.4535 1910.9585,-520.8815 1909.8011,-521.2649 1908.6363,-521.6028 1907.4654,-521.8941 1906.2896,-522.1381 1905.11,-522.3341 1903.9276,-522.4815 1902.7431,-522.5801 1901.5575,-522.6294 1900.3716,-522.6294 1899.186,-522.5801 1898.0015,-522.4815 1896.8191,-522.3341 1895.6395,-522.1381 1894.4637,-521.8941 1893.2928,-521.6028 1892.128,-521.2649 1890.9706,-520.8815 1889.8222,-520.4535 1888.6844,-519.9822 1887.5592,-519.4688 1886.4485,-518.9147 1885.3547,-518.3214 1884.2802,-517.6906 1883.2277,-517.024 1882.2002,-516.3235 1881.2006,-515.5909 1880.2323,-514.8282 1879.2986,-514.0376 1878.4032,-513.2212 1877.5498,-512.3813 1876.742,-511.5201 1875.9839,-510.64 1875.2793,-509.7434 1874.6321,-508.8329 1874.0464,-507.9108 1873.5259,-506.9797 1873.0746,-506.0421 1872.6959,-505.1007 1872.3935,-504.158 1872.1706,-503.2166 1872.0304,-502.2791 1871.9756,-501.348 1872.0088,-500.4259 1872.1321,-499.5154 1872.3474,-498.6188 1872.656,-497.7387 1873.059,-496.8775 1873.557,-496.0376 1874.15,-495.2212 1874.8376,-494.4306 1875.619,-493.6679 1876.4928,-492.9353 1877.4572,-492.2348 1878.5096,-491.5682 1879.6473,-490.9374 1880.8669,-490.3441 1882.1645,-489.79 1883.5358,-489.2766 1884.976,-488.8053 1886.4799,-488.3773 1888.042,-487.9939 1889.6563,-487.656 1891.3165,-487.3647 1893.0161,-487.1207 1894.7483,-486.9247 1896.506,-486.7773 1898.282,-486.6787 1900.0691,-486.6294 1901.86,-486.6294 1903.6471,-486.6787"/>
<text text-anchor="middle" x="1900.9645" y="-502.1294" font-family="Courier,monospace" font-weight="bold" font-size="10.00" fill="#000000">y</text>
</g>
<!-- STATE_A&#45;&gt;SYMBOL_y -->
<g id="edge14" class="edge">
<title>STATE_A&#45;&gt;SYMBOL_y</title>
<path fill="none" stroke="#000000" stroke-dasharray="5,2" d="M334.6758,-340.1506C346.508,-372.1644 376.226,-439.8279 425.7342,-472.6294 488.5033,-514.2169 1017.9252,-589.6294 1093.2211,-589.6294 1093.2211,-589.6294 1093.2211,-589.6294 1610.2211,-589.6294 1721.5853,-589.6294 1750.992,-574.4112 1854.2211,-532.6294 1860.9374,-529.911 1867.8191,-526.3128 1874.166,-522.6045"/>
<polygon fill="#000000" stroke="#000000" points="1876.3085,-525.3963 1883.0007,-517.1825 1872.647,-519.4302 1876.3085,-525.3963"/>
<text text-anchor="middle" x="1093.2211" y="-592.6294" font-family="Courier,monospace" font-weight="bold" font-size="10.00" fill="#000000">9.997000899730082e&#45;05</text>
</g>
<!-- SYMBOL_z -->
<g id="node9" class="node">
<title>SYMBOL_z</title>
<polygon fill="none" stroke="#000000" stroke-dasharray="5,2" points="1903.6471,-272.6787 1905.4231,-272.7773 1907.1808,-272.9247 1908.913,-273.1207 1910.6126,-273.3647 1912.2728,-273.656 1913.8871,-273.9939 1915.4492,-274.3773 1916.9531,-274.8053 1918.3933,-275.2766 1919.7646,-275.79 1921.0622,-276.3441 1922.2818,-276.9374 1923.4195,-277.5682 1924.4719,-278.2348 1925.4363,-278.9353 1926.3101,-279.6679 1927.0915,-280.4306 1927.7791,-281.2212 1928.3721,-282.0376 1928.8701,-282.8775 1929.2731,-283.7387 1929.5817,-284.6188 1929.797,-285.5154 1929.9203,-286.4259 1929.9535,-287.348 1929.8987,-288.2791 1929.7585,-289.2166 1929.5356,-290.158 1929.2332,-291.1007 1928.8545,-292.0421 1928.4032,-292.9797 1927.8827,-293.9108 1927.297,-294.8329 1926.6498,-295.7434 1925.9452,-296.64 1925.1871,-297.5201 1924.3793,-298.3813 1923.5259,-299.2212 1922.6305,-300.0376 1921.6968,-300.8282 1920.7285,-301.5909 1919.7289,-302.3235 1918.7014,-303.024 1917.6489,-303.6906 1916.5744,-304.3214 1915.4806,-304.9147 1914.3699,-305.4688 1913.2447,-305.9822 1912.1069,-306.4535 1910.9585,-306.8815 1909.8011,-307.2649 1908.6363,-307.6028 1907.4654,-307.8941 1906.2896,-308.1381 1905.11,-308.3341 1903.9276,-308.4815 1902.7431,-308.5801 1901.5575,-308.6294 1900.3716,-308.6294 1899.186,-308.5801 1898.0015,-308.4815 1896.8191,-308.3341 1895.6395,-308.1381 1894.4637,-307.8941 1893.2928,-307.6028 1892.128,-307.2649 1890.9706,-306.8815 1889.8222,-306.4535 1888.6844,-305.9822 1887.5592,-305.4688 1886.4485,-304.9147 1885.3547,-304.3214 1884.2802,-303.6906 1883.2277,-303.024 1882.2002,-302.3235 1881.2006,-301.5909 1880.2323,-300.8282 1879.2986,-300.0376 1878.4032,-299.2212 1877.5498,-298.3813 1876.742,-297.5201 1875.9839,-296.64 1875.2793,-295.7434 1874.6321,-294.8329 1874.0464,-293.9108 1873.5259,-292.9797 1873.0746,-292.0421 1872.6959,-291.1007 1872.3935,-290.158 1872.1706,-289.2166 1872.0304,-288.2791 1871.9756,-287.348 1872.0088,-286.4259 1872.1321,-285.5154 1872.3474,-284.6188 1872.656,-283.7387 1873.059,-282.8775 1873.557,-282.0376 1874.15,-281.2212 1874.8376,-280.4306 1875.619,-279.6679 1876.4928,-278.9353 1877.4572,-278.2348 1878.5096,-277.5682 1879.6473,-276.9374 1880.8669,-276.3441 1882.1645,-275.79 1883.5358,-275.2766 1884.976,-274.8053 1886.4799,-274.3773 1888.042,-273.9939 1889.6563,-273.656 1891.3165,-273.3647 1893.0161,-273.1207 1894.7483,-272.9247 1896.506,-272.7773 1898.282,-272.6787 1900.0691,-272.6294 1901.86,-272.6294 1903.6471,-272.6787"/>
<text text-anchor="middle" x="1900.9645" y="-288.1294" font-family="Courier,monospace" font-weight="bold" font-size="10.00" fill="#000000">z</text>
</g>
<!-- STATE_A&#45;&gt;SYMBOL_z -->
<g id="edge15" class="edge">
<title>STATE_A&#45;&gt;SYMBOL_z</title>
<path fill="none" stroke="#000000" stroke-dasharray="5,2" d="M357.614,-321.9905C479.7995,-319.293 966.3461,-308.608 1366.2211,-300.6294 1552.2214,-296.9182 1774.6224,-292.8908 1862.5174,-291.3154"/>
<polygon fill="#000000" stroke="#000000" points="1862.6224,-294.8141 1872.5581,-291.1356 1862.497,-287.8153 1862.6224,-294.8141"/>
<text text-anchor="middle" x="1093.2211" y="-310.6294" font-family="Courier,monospace" font-weight="bold" font-size="10.00" fill="#000000">0.9998000599820054</text>
</g>
<!-- SYMBOL_x -->
<g id="node10" class="node">
<title>SYMBOL_x</title>
<polygon fill="none" stroke="#000000" stroke-dasharray="5,2" points="1903.6471,-100.6787 1905.4231,-100.7773 1907.1808,-100.9247 1908.913,-101.1207 1910.6126,-101.3647 1912.2728,-101.656 1913.8871,-101.9939 1915.4492,-102.3773 1916.9531,-102.8053 1918.3933,-103.2766 1919.7646,-103.79 1921.0622,-104.3441 1922.2818,-104.9374 1923.4195,-105.5682 1924.4719,-106.2348 1925.4363,-106.9353 1926.3101,-107.6679 1927.0915,-108.4306 1927.7791,-109.2212 1928.3721,-110.0376 1928.8701,-110.8775 1929.2731,-111.7387 1929.5817,-112.6188 1929.797,-113.5154 1929.9203,-114.4259 1929.9535,-115.348 1929.8987,-116.2791 1929.7585,-117.2166 1929.5356,-118.158 1929.2332,-119.1007 1928.8545,-120.0421 1928.4032,-120.9797 1927.8827,-121.9108 1927.297,-122.8329 1926.6498,-123.7434 1925.9452,-124.64 1925.1871,-125.5201 1924.3793,-126.3813 1923.5259,-127.2212 1922.6305,-128.0376 1921.6968,-128.8282 1920.7285,-129.5909 1919.7289,-130.3235 1918.7014,-131.024 1917.6489,-131.6906 1916.5744,-132.3214 1915.4806,-132.9147 1914.3699,-133.4688 1913.2447,-133.9822 1912.1069,-134.4535 1910.9585,-134.8815 1909.8011,-135.2649 1908.6363,-135.6028 1907.4654,-135.8941 1906.2896,-136.1381 1905.11,-136.3341 1903.9276,-136.4815 1902.7431,-136.5801 1901.5575,-136.6294 1900.3716,-136.6294 1899.186,-136.5801 1898.0015,-136.4815 1896.8191,-136.3341 1895.6395,-136.1381 1894.4637,-135.8941 1893.2928,-135.6028 1892.128,-135.2649 1890.9706,-134.8815 1889.8222,-134.4535 1888.6844,-133.9822 1887.5592,-133.4688 1886.4485,-132.9147 1885.3547,-132.3214 1884.2802,-131.6906 1883.2277,-131.024 1882.2002,-130.3235 1881.2006,-129.5909 1880.2323,-128.8282 1879.2986,-128.0376 1878.4032,-127.2212 1877.5498,-126.3813 1876.742,-125.5201 1875.9839,-124.64 1875.2793,-123.7434 1874.6321,-122.8329 1874.0464,-121.9108 1873.5259,-120.9797 1873.0746,-120.0421 1872.6959,-119.1007 1872.3935,-118.158 1872.1706,-117.2166 1872.0304,-116.2791 1871.9756,-115.348 1872.0088,-114.4259 1872.1321,-113.5154 1872.3474,-112.6188 1872.656,-111.7387 1873.059,-110.8775 1873.557,-110.0376 1874.15,-109.2212 1874.8376,-108.4306 1875.619,-107.6679 1876.4928,-106.9353 1877.4572,-106.2348 1878.5096,-105.5682 1879.6473,-104.9374 1880.8669,-104.3441 1882.1645,-103.79 1883.5358,-103.2766 1884.976,-102.8053 1886.4799,-102.3773 1888.042,-101.9939 1889.6563,-101.656 1891.3165,-101.3647 1893.0161,-101.1207 1894.7483,-100.9247 1896.506,-100.7773 1898.282,-100.6787 1900.0691,-100.6294 1901.86,-100.6294 1903.6471,-100.6787"/>
<text text-anchor="middle" x="1900.9645" y="-116.1294" font-family="Courier,monospace" font-weight="bold" font-size="10.00" fill="#000000">x</text>
</g>
<!-- STATE_A&#45;&gt;SYMBOL_x -->
<g id="edge16" class="edge">
<title>STATE_A&#45;&gt;SYMBOL_x</title>
<path fill="none" stroke="#000000" stroke-dasharray="5,2" d="M344.5075,-306.5809C362.4364,-287.448 391.3337,-253.7534 407.7342,-219.6294 422.2095,-189.5112 406.9614,-174.274 425.7342,-146.6294 488.5216,-54.1698 518.7144,-.6294 630.4777,-.6294 630.4777,-.6294 630.4777,-.6294 1610.2211,-.6294 1721.0091,-.6294 1761.7852,9.4409 1854.2211,-51.6294 1869.1703,-61.506 1880.7481,-77.9503 1888.6416,-92.0753"/>
<polygon fill="#000000" stroke="#000000" points="1885.5449,-93.7064 1893.2952,-100.9302 1891.7413,-90.4499 1885.5449,-93.7064"/>
<text text-anchor="middle" x="1093.2211" y="-3.6294" font-family="Courier,monospace" font-weight="bold" font-size="10.00" fill="#000000">9.997000899730082e&#45;05</text>
</g>
<!-- STATE_C -->
<g id="node3" class="node">
<title>STATE_C</title>
<polygon fill="none" stroke="#000000" points="927.4036,-159.6787 929.1797,-159.7773 930.9374,-159.9247 932.6696,-160.1207 934.3691,-160.3647 936.0294,-160.656 937.6436,-160.9939 939.2057,-161.3773 940.7097,-161.8053 942.1499,-162.2766 943.5211,-162.79 944.8187,-163.3441 946.0383,-163.9374 947.176,-164.5682 948.2285,-165.2348 949.1928,-165.9353 950.0666,-166.6679 950.848,-167.4306 951.5357,-168.2212 952.1287,-169.0376 952.6266,-169.8775 953.0296,-170.7387 953.3383,-171.6188 953.5536,-172.5154 953.6769,-173.4259 953.7101,-174.348 953.6553,-175.2791 953.5151,-176.2166 953.2922,-177.158 952.9898,-178.1007 952.6111,-179.0421 952.1597,-179.9797 951.6393,-180.9108 951.0535,-181.8329 950.4064,-182.7434 949.7018,-183.64 948.9436,-184.5201 948.1359,-185.3813 947.2824,-186.2212 946.387,-187.0376 945.4534,-187.8282 944.485,-188.5909 943.4855,-189.3235 942.4579,-190.024 941.4055,-190.6906 940.331,-191.3214 939.2372,-191.9147 938.1265,-192.4688 937.0012,-192.9822 935.8634,-193.4535 934.715,-193.8815 933.5577,-194.2649 932.3929,-194.6028 931.222,-194.8941 930.0462,-195.1381 928.8666,-195.3341 927.6841,-195.4815 926.4997,-195.5801 925.3141,-195.6294 924.1281,-195.6294 922.9425,-195.5801 921.7581,-195.4815 920.5756,-195.3341 919.396,-195.1381 918.2203,-194.8941 917.0494,-194.6028 915.8846,-194.2649 914.7272,-193.8815 913.5788,-193.4535 912.441,-192.9822 911.3157,-192.4688 910.205,-191.9147 909.1112,-191.3214 908.0367,-190.6906 906.9843,-190.024 905.9567,-189.3235 904.9572,-188.5909 903.9889,-187.8282 903.0552,-187.0376 902.1598,-186.2212 901.3063,-185.3813 900.4986,-184.5201 899.7404,-183.64 899.0358,-182.7434 898.3887,-181.8329 897.803,-180.9108 897.2825,-179.9797 896.8311,-179.0421 896.4524,-178.1007 896.15,-177.158 895.9272,-176.2166 895.7869,-175.2791 895.7321,-174.348 895.7653,-173.4259 895.8886,-172.5154 896.1039,-171.6188 896.4126,-170.7387 896.8156,-169.8775 897.3136,-169.0376 897.9066,-168.2212 898.5942,-167.4306 899.3756,-166.6679 900.2494,-165.9353 901.2137,-165.2348 902.2662,-164.5682 903.4039,-163.9374 904.6235,-163.3441 905.9211,-162.79 907.2923,-162.2766 908.7326,-161.8053 910.2365,-161.3773 911.7986,-160.9939 913.4129,-160.656 915.0731,-160.3647 916.7727,-160.1207 918.5048,-159.9247 920.2625,-159.7773 922.0386,-159.6787 923.8257,-159.6294 925.6165,-159.6294 927.4036,-159.6787"/>
<text text-anchor="middle" x="924.7211" y="-175.1294" font-family="Courier,monospace" font-weight="bold" font-size="10.00" fill="#000000">C</text>
</g>
<!-- STATE_B&#45;&gt;STATE_C -->
<g id="edge4" class="edge">
<title>STATE_B&#45;&gt;STATE_C</title>
<path fill="none" stroke="#000000" d="M657.8951,-150.4248C710.3841,-155.7764 825.214,-167.484 885.689,-173.6498"/>
<polygon fill="#000000" stroke="#000000" points="885.6654,-177.1655 895.9689,-174.6979 886.3755,-170.2016 885.6654,-177.1655"/>
<text text-anchor="middle" x="756.2211" y="-170.6294" font-family="Courier,monospace" font-weight="bold" font-size="10.00" fill="#000000">9.998000399920017e&#45;05</text>
</g>
<!-- STATE_D -->
<g id="node4" class="node">
<title>STATE_D</title>
<polygon fill="none" stroke="#000000" points="1095.9036,-452.6787 1097.6797,-452.7773 1099.4374,-452.9247 1101.1696,-453.1207 1102.8691,-453.3647 1104.5294,-453.656 1106.1436,-453.9939 1107.7057,-454.3773 1109.2097,-454.8053 1110.6499,-455.2766 1112.0211,-455.79 1113.3187,-456.3441 1114.5383,-456.9374 1115.676,-457.5682 1116.7285,-458.2348 1117.6928,-458.9353 1118.5666,-459.6679 1119.348,-460.4306 1120.0357,-461.2212 1120.6287,-462.0376 1121.1266,-462.8775 1121.5296,-463.7387 1121.8383,-464.6188 1122.0536,-465.5154 1122.1769,-466.4259 1122.2101,-467.348 1122.1553,-468.2791 1122.0151,-469.2166 1121.7922,-470.158 1121.4898,-471.1007 1121.1111,-472.0421 1120.6597,-472.9797 1120.1393,-473.9108 1119.5535,-474.8329 1118.9064,-475.7434 1118.2018,-476.64 1117.4436,-477.5201 1116.6359,-478.3813 1115.7824,-479.2212 1114.887,-480.0376 1113.9534,-480.8282 1112.985,-481.5909 1111.9855,-482.3235 1110.9579,-483.024 1109.9055,-483.6906 1108.831,-484.3214 1107.7372,-484.9147 1106.6265,-485.4688 1105.5012,-485.9822 1104.3634,-486.4535 1103.215,-486.8815 1102.0577,-487.2649 1100.8929,-487.6028 1099.722,-487.8941 1098.5462,-488.1381 1097.3666,-488.3341 1096.1841,-488.4815 1094.9997,-488.5801 1093.8141,-488.6294 1092.6281,-488.6294 1091.4425,-488.5801 1090.2581,-488.4815 1089.0756,-488.3341 1087.896,-488.1381 1086.7203,-487.8941 1085.5494,-487.6028 1084.3846,-487.2649 1083.2272,-486.8815 1082.0788,-486.4535 1080.941,-485.9822 1079.8157,-485.4688 1078.705,-484.9147 1077.6112,-484.3214 1076.5367,-483.6906 1075.4843,-483.024 1074.4567,-482.3235 1073.4572,-481.5909 1072.4889,-480.8282 1071.5552,-480.0376 1070.6598,-479.2212 1069.8063,-478.3813 1068.9986,-477.5201 1068.2404,-476.64 1067.5358,-475.7434 1066.8887,-474.8329 1066.303,-473.9108 1065.7825,-472.9797 1065.3311,-472.0421 1064.9524,-471.1007 1064.65,-470.158 1064.4272,-469.2166 1064.2869,-468.2791 1064.2321,-467.348 1064.2653,-466.4259 1064.3886,-465.5154 1064.6039,-464.6188 1064.9126,-463.7387 1065.3156,-462.8775 1065.8136,-462.0376 1066.4066,-461.2212 1067.0942,-460.4306 1067.8756,-459.6679 1068.7494,-458.9353 1069.7137,-458.2348 1070.7662,-457.5682 1071.9039,-456.9374 1073.1235,-456.3441 1074.4211,-455.79 1075.7923,-455.2766 1077.2326,-454.8053 1078.7365,-454.3773 1080.2986,-453.9939 1081.9129,-453.656 1083.5731,-453.3647 1085.2727,-453.1207 1087.0048,-452.9247 1088.7625,-452.7773 1090.5386,-452.6787 1092.3257,-452.6294 1094.1165,-452.6294 1095.9036,-452.6787"/>
<text text-anchor="middle" x="1093.2211" y="-468.1294" font-family="Courier,monospace" font-weight="bold" font-size="10.00" fill="#000000">D</text>
</g>
<!-- STATE_B&#45;&gt;STATE_D -->
<g id="edge5" class="edge">
<title>STATE_B&#45;&gt;STATE_D</title>
<path fill="none" stroke="#000000" d="M634.9065,-165.4897C640.9651,-186.169 653.8502,-219.7942 677.2211,-238.6294 791.4629,-330.6995 877.1439,-237.9047 996.2211,-323.6294 1038.7241,-354.2277 1067.7746,-409.6861 1082.3472,-443.041"/>
<polygon fill="#000000" stroke="#000000" points="1079.2845,-444.7846 1086.4038,-452.6309 1085.7314,-442.0575 1079.2845,-444.7846"/>
<text text-anchor="middle" x="756.2211" y="-286.6294" font-family="Courier,monospace" font-weight="bold" font-size="10.00" fill="#000000">0.9999000199960009</text>
</g>
<!-- STATE_B&#45;&gt;SYMBOL_y -->
<g id="edge17" class="edge">
<title>STATE_B&#45;&gt;SYMBOL_y</title>
<path fill="none" stroke="#000000" stroke-dasharray="5,2" d="M633.9042,-165.4317C641.0801,-201.032 658.5739,-279.2502 677.2211,-298.6294 734.7247,-358.3903 773.9721,-336.183 853.2211,-360.6294 916.0605,-380.0138 951.6146,-350.3096 996.2211,-398.6294 1026.556,-431.4896 980.4209,-468.3455 1014.2211,-497.6294 1128.8105,-596.9077 1544.613,-515.2513 1696.2211,-516.6294 1766.4404,-517.2677 1784.5525,-525.4294 1854.2211,-516.6294 1858.4292,-516.0979 1862.8009,-515.3073 1867.107,-514.3809"/>
<polygon fill="#000000" stroke="#000000" points="1868.0167,-517.7621 1876.9276,-512.0308 1866.3876,-510.9543 1868.0167,-517.7621"/>
<text text-anchor="middle" x="1269.2211" y="-549.6294" font-family="Courier,monospace" font-weight="bold" font-size="10.00" fill="#000000">0.6665666966576693</text>
</g>
<!-- STATE_B&#45;&gt;SYMBOL_z -->
<g id="edge18" class="edge">
<title>STATE_B&#45;&gt;SYMBOL_z</title>
<path fill="none" stroke="#000000" stroke-dasharray="5,2" d="M658.449,-139.3418C664.5824,-137.8361 671.0792,-136.4762 677.2211,-135.6294 817.6813,-116.2638 854.4528,-129.2136 996.2211,-131.6294 1091.7362,-133.257 1775.9242,-131.8993 1854.2211,-186.6294 1879.0955,-204.0168 1890.9412,-237.8783 1896.4421,-262.246"/>
<polygon fill="#000000" stroke="#000000" points="1893.0741,-263.2495 1898.489,-272.3561 1899.9349,-261.8604 1893.0741,-263.2495"/>
<text text-anchor="middle" x="1269.2211" y="-138.6294" font-family="Courier,monospace" font-weight="bold" font-size="10.00" fill="#000000">0.3333333333333333</text>
</g>
<!-- STATE_B&#45;&gt;SYMBOL_x -->
<g id="edge19" class="edge">
<title>STATE_B&#45;&gt;SYMBOL_x</title>
<path fill="none" stroke="#000000" stroke-dasharray="5,2" d="M636.0793,-129.5598C642.7488,-111.3616 655.7691,-84.1067 677.2211,-70.6294 770.8014,-11.8373 814.2051,-46.6294 924.7211,-46.6294 924.7211,-46.6294 924.7211,-46.6294 1610.2211,-46.6294 1704.9473,-46.6294 1812.0777,-83.0854 1865.9964,-104.1153"/>
<polygon fill="#000000" stroke="#000000" points="1864.8437,-107.4232 1875.4299,-107.8503 1867.4206,-100.9148 1864.8437,-107.4232"/>
<text text-anchor="middle" x="1269.2211" y="-49.6294" font-family="Courier,monospace" font-weight="bold" font-size="10.00" fill="#000000">9.997000899730082e&#45;05</text>
</g>
<!-- STATE_C&#45;&gt;STATE_F -->
<g id="edge6" class="edge">
<title>STATE_C&#45;&gt;STATE_F</title>
<path fill="none" stroke="#000000" d="M952.3306,-179.9536C1013.2301,-185.0801 1159.2578,-197.3727 1229.7821,-203.3094"/>
<polygon fill="#000000" stroke="#000000" points="1229.7661,-206.8204 1240.0245,-204.1716 1230.3534,-199.845 1229.7661,-206.8204"/>
<text text-anchor="middle" x="1093.2211" y="-200.6294" font-family="Courier,monospace" font-weight="bold" font-size="10.00" fill="#000000">1.0</text>
</g>
<!-- STATE_D&#45;&gt;STATE_A -->
<g id="edge7" class="edge">
<title>STATE_D&#45;&gt;STATE_A</title>
<path fill="none" stroke="#000000" d="M1065.2434,-472.4577C953.5457,-479.3045 540.076,-500.2027 425.7342,-442.6294 385.7507,-422.4969 356.6347,-377.515 341.2355,-348.7043"/>
<polygon fill="#000000" stroke="#000000" points="344.2399,-346.8939 336.5432,-339.613 338.0195,-350.1044 344.2399,-346.8939"/>
<text text-anchor="middle" x="630.4777" y="-481.6294" font-family="Courier,monospace" font-weight="bold" font-size="10.00" fill="#000000">1.0</text>
</g>
<!-- STATE_D&#45;&gt;SYMBOL_y -->
<g id="edge20" class="edge">
<title>STATE_D&#45;&gt;SYMBOL_y</title>
<path fill="none" stroke="#000000" stroke-dasharray="5,2" d="M1120.3555,-473.9328C1139.7817,-476.174 1166.5749,-479.0132 1190.2211,-480.6294 1446.2168,-498.1263 1754.9929,-503.0318 1862.1317,-504.2584"/>
<polygon fill="#000000" stroke="#000000" points="1862.1165,-507.7584 1872.1546,-504.3691 1862.1939,-500.7588 1862.1165,-507.7584"/>
<text text-anchor="middle" x="1445.2211" y="-498.6294" font-family="Courier,monospace" font-weight="bold" font-size="10.00" fill="#000000">9.997000899730082e&#45;05</text>
</g>
<!-- STATE_D&#45;&gt;SYMBOL_z -->
<g id="edge21" class="edge">
<title>STATE_D&#45;&gt;SYMBOL_z</title>
<path fill="none" stroke="#000000" stroke-dasharray="5,2" d="M1120.9246,-472.9561C1190.4555,-477.9212 1377.2866,-485.835 1524.2211,-442.6294 1533.0011,-440.0477 1533.7559,-436.1069 1542.2211,-432.6294 1600.2732,-408.7817 1617.9489,-412.123 1678.2211,-394.6294 1756.6754,-371.8586 1785.0379,-385.0721 1854.2211,-341.6294 1865.3922,-334.6146 1875.5815,-324.232 1883.5753,-314.6623"/>
<polygon fill="#000000" stroke="#000000" points="1886.5262,-316.5745 1890.0045,-306.5669 1881.0445,-312.2211 1886.5262,-316.5745"/>
<text text-anchor="middle" x="1445.2211" y="-473.6294" font-family="Courier,monospace" font-weight="bold" font-size="10.00" fill="#000000">0.3333333333333333</text>
</g>
<!-- STATE_D&#45;&gt;SYMBOL_x -->
<g id="edge22" class="edge">
<title>STATE_D&#45;&gt;SYMBOL_x</title>
<path fill="none" stroke="#000000" stroke-dasharray="5,2" d="M1122.2766,-465.8173C1172.1279,-457.6139 1277.1918,-440.5555 1366.2211,-427.6294 1436.3258,-417.451 1457.9241,-431.589 1524.2211,-406.6294 1533.2193,-403.2417 1533.4282,-398.5191 1542.2211,-394.6294 1599.1997,-369.4238 1633.1532,-403.6499 1678.2211,-360.6294 1698.3597,-341.4057 1676.6261,-320.4068 1696.2211,-300.6294 1747.9674,-248.4015 1801.2743,-302.6398 1854.2211,-251.6294 1883.1051,-223.8018 1894.164,-177.101 1898.3828,-147.093"/>
<polygon fill="#000000" stroke="#000000" points="1901.8946,-147.2124 1899.648,-136.8585 1894.9475,-146.3536 1901.8946,-147.2124"/>
<text text-anchor="middle" x="1445.2211" y="-430.6294" font-family="Courier,monospace" font-weight="bold" font-size="10.00" fill="#000000">0.6665666966576693</text>
</g>
<!-- STATE_E&#45;&gt;STATE_A -->
<g id="edge8" class="edge">
<title>STATE_E&#45;&gt;STATE_A</title>
<path fill="none" stroke="#000000" d="M1586.0174,-340.9914C1568.9276,-345.8304 1545.393,-351.7763 1524.2211,-354.6294 1446.6683,-365.0802 1426.4653,-358.407 1348.2211,-359.6294 1016.4893,-364.8119 933.4136,-366.4791 601.7342,-358.6294 523.4885,-356.7776 502.9129,-365.6404 425.7342,-352.6294 403.6332,-348.9036 379.5578,-341.4782 360.9212,-334.9474"/>
<polygon fill="#000000" stroke="#000000" points="362.0374,-331.6294 351.4429,-331.5395 359.669,-338.2166 362.0374,-331.6294"/>
<text text-anchor="middle" x="924.7211" y="-366.6294" font-family="Courier,monospace" font-weight="bold" font-size="10.00" fill="#000000">1.0</text>
</g>
<!-- STATE_E&#45;&gt;SYMBOL_y -->
<g id="edge23" class="edge">
<title>STATE_E&#45;&gt;SYMBOL_y</title>
<path fill="none" stroke="#000000" stroke-dasharray="5,2" d="M1634.4235,-340.5472C1680.7111,-354.6308 1783.4623,-390.0801 1854.2211,-445.6294 1866.0163,-454.8892 1876.629,-467.7021 1884.7494,-479.0223"/>
<polygon fill="#000000" stroke="#000000" points="1881.8979,-481.0526 1890.4517,-487.3044 1887.6635,-477.083 1881.8979,-481.0526"/>
<text text-anchor="middle" x="1775.2211" y="-448.6294" font-family="Courier,monospace" font-weight="bold" font-size="10.00" fill="#000000">9.997000899730082e&#45;05</text>
</g>
<!-- STATE_E&#45;&gt;SYMBOL_z -->
<g id="edge24" class="edge">
<title>STATE_E&#45;&gt;SYMBOL_z</title>
<path fill="none" stroke="#000000" stroke-dasharray="5,2" d="M1639.0287,-331.8233C1684.9394,-328.5837 1777.3661,-320.5812 1854.2211,-304.6294 1858.6328,-303.7137 1863.229,-302.5742 1867.7426,-301.3434"/>
<polygon fill="#000000" stroke="#000000" points="1868.7538,-304.6945 1877.3882,-298.5546 1866.8095,-297.9699 1868.7538,-304.6945"/>
<text text-anchor="middle" x="1775.2211" y="-329.6294" font-family="Courier,monospace" font-weight="bold" font-size="10.00" fill="#000000">0.9998000599820054</text>
</g>
<!-- STATE_E&#45;&gt;SYMBOL_x -->
<g id="edge25" class="edge">
<title>STATE_E&#45;&gt;SYMBOL_x</title>
<path fill="none" stroke="#000000" stroke-dasharray="5,2" d="M1623.2623,-316.8134C1639.1146,-297.0613 1667.3444,-264.0253 1696.2211,-240.6294 1753.19,-194.4732 1829.3882,-153.7622 1870.9012,-133.0722"/>
<polygon fill="#000000" stroke="#000000" points="1872.527,-136.1729 1879.9453,-128.6086 1869.4289,-129.8958 1872.527,-136.1729"/>
<text text-anchor="middle" x="1775.2211" y="-243.6294" font-family="Courier,monospace" font-weight="bold" font-size="10.00" fill="#000000">9.997000899730082e&#45;05</text>
</g>
<!-- STATE_F&#45;&gt;STATE_B -->
<g id="edge9" class="edge">
<title>STATE_F&#45;&gt;STATE_B</title>
<path fill="none" stroke="#000000" d="M1241.2693,-198.8751C1221.924,-193.5728 1195.5603,-186.4741 1172.2211,-180.6294 1094.3103,-161.1186 1076.0124,-148.8005 996.2211,-139.6294 933.0812,-132.3722 916.7664,-138.4886 853.2211,-139.6294 788.7488,-140.7868 713.8302,-143.8272 669.3835,-145.8087"/>
<polygon fill="#000000" stroke="#000000" points="669.1346,-142.3163 659.3024,-146.2634 669.45,-149.3092 669.1346,-142.3163"/>
<text text-anchor="middle" x="924.7211" y="-142.6294" font-family="Courier,monospace" font-weight="bold" font-size="10.00" fill="#000000">0.5</text>
</g>
<!-- STATE_F&#45;&gt;STATE_E -->
<g id="edge10" class="edge">
<title>STATE_F&#45;&gt;STATE_E</title>
<path fill="none" stroke="#000000" d="M1292.1246,-215.1594C1350.1949,-236.7868 1503.5552,-293.9034 1573.9567,-320.1233"/>
<polygon fill="#000000" stroke="#000000" points="1573.1279,-323.5494 1583.7206,-323.7597 1575.571,-316.9896 1573.1279,-323.5494"/>
<text text-anchor="middle" x="1445.2211" y="-301.6294" font-family="Courier,monospace" font-weight="bold" font-size="10.00" fill="#000000">0.5</text>
</g>
<!-- STATE_F&#45;&gt;SYMBOL_y -->
<g id="edge26" class="edge">
<title>STATE_F&#45;&gt;SYMBOL_y</title>
<path fill="none" stroke="#000000" stroke-dasharray="5,2" d="M1280.3663,-222.7528C1296.849,-245.5929 1329.736,-287.4917 1366.2211,-313.6294 1496.1627,-406.7186 1544.0165,-407.8014 1696.2211,-456.6294 1764.6175,-478.5713 1784.6508,-472.7554 1854.2211,-490.6294 1857.2415,-491.4054 1860.3599,-492.2477 1863.4855,-493.1212"/>
<polygon fill="#000000" stroke="#000000" points="1862.8045,-496.5674 1873.3827,-495.9746 1864.7436,-489.8413 1862.8045,-496.5674"/>
<text text-anchor="middle" x="1610.2211" y="-452.6294" font-family="Courier,monospace" font-weight="bold" font-size="10.00" fill="#000000">0.3333333333333333</text>
</g>
<!-- STATE_F&#45;&gt;SYMBOL_z -->
<g id="edge27" class="edge">
<title>STATE_F&#45;&gt;SYMBOL_z</title>
<path fill="none" stroke="#000000" stroke-dasharray="5,2" d="M1298.0077,-203.9028C1402.0166,-194.5677 1757.3121,-167.3121 1854.2211,-220.6294 1871.0795,-229.9046 1882.9619,-248.1569 1890.527,-263.698"/>
<polygon fill="#000000" stroke="#000000" points="1887.384,-265.2424 1894.6854,-272.9197 1893.7652,-262.3649 1887.384,-265.2424"/>
<text text-anchor="middle" x="1610.2211" y="-192.6294" font-family="Courier,monospace" font-weight="bold" font-size="10.00" fill="#000000">0.3333333333333333</text>
</g>
<!-- STATE_F&#45;&gt;SYMBOL_x -->
<g id="edge28" class="edge">
<title>STATE_F&#45;&gt;SYMBOL_x</title>
<path fill="none" stroke="#000000" stroke-dasharray="5,2" d="M1297.9532,-199.7094C1317.1891,-195.2496 1343.1213,-189.5691 1366.2211,-185.6294 1551.8983,-153.9622 1776.2374,-130.667 1863.6065,-122.1599"/>
<polygon fill="#000000" stroke="#000000" points="1863.9539,-125.6427 1873.5704,-121.1962 1863.2799,-118.6752 1863.9539,-125.6427"/>
<text text-anchor="middle" x="1610.2211" y="-161.6294" font-family="Courier,monospace" font-weight="bold" font-size="10.00" fill="#000000">0.3333333333333333</text>
</g>
<!-- STATE_SOURCE -->
<g id="node7" class="node">
<title>STATE_SOURCE</title>
<polygon fill="none" stroke="#000000" points="42.4515,-304.6787 44.8246,-304.7773 47.1732,-304.9247 49.4877,-305.1207 51.7587,-305.3647 53.9771,-305.656 56.134,-305.9939 58.2213,-306.3773 60.2308,-306.8053 62.1552,-307.2766 63.9875,-307.79 65.7213,-308.3441 67.3509,-308.9374 68.8711,-309.5682 70.2774,-310.2348 71.5659,-310.9353 72.7335,-311.6679 73.7776,-312.4306 74.6964,-313.2212 75.4887,-314.0376 76.1541,-314.8775 76.6926,-315.7387 77.105,-316.6188 77.3927,-317.5154 77.5574,-318.4259 77.6018,-319.348 77.5286,-320.2791 77.3412,-321.2166 77.0434,-322.158 76.6393,-323.1007 76.1334,-324.0421 75.5302,-324.9797 74.8348,-325.9108 74.0521,-326.8329 73.1874,-327.7434 72.246,-328.64 71.2329,-329.5201 70.1536,-330.3813 69.0132,-331.2212 67.8168,-332.0376 66.5693,-332.8282 65.2754,-333.5909 63.9398,-334.3235 62.5668,-335.024 61.1606,-335.6906 59.7248,-336.3214 58.2633,-336.9147 56.7792,-337.4688 55.2756,-337.9822 53.7553,-338.4535 52.2208,-338.8815 50.6744,-339.2649 49.118,-339.6028 47.5535,-339.8941 45.9824,-340.1381 44.4062,-340.3341 42.8263,-340.4815 41.2436,-340.5801 39.6595,-340.6294 38.0748,-340.6294 36.4906,-340.5801 34.908,-340.4815 33.328,-340.3341 31.7518,-340.1381 30.1808,-339.8941 28.6162,-339.6028 27.0598,-339.2649 25.5134,-338.8815 23.9789,-338.4535 22.4586,-337.9822 20.955,-337.4688 19.4709,-336.9147 18.0094,-336.3214 16.5737,-335.6906 15.1674,-335.024 13.7944,-334.3235 12.4588,-333.5909 11.1649,-332.8282 9.9174,-332.0376 8.721,-331.2212 7.5806,-330.3813 6.5013,-329.5201 5.4883,-328.64 4.5468,-327.7434 3.6821,-326.8329 2.8994,-325.9108 2.204,-324.9797 1.6009,-324.0421 1.0949,-323.1007 .6908,-322.158 .393,-321.2166 .2056,-320.2791 .1324,-319.348 .1768,-318.4259 .3416,-317.5154 .6292,-316.6188 1.0416,-315.7387 1.5801,-314.8775 2.2455,-314.0376 3.0379,-313.2212 3.9567,-312.4306 5.0008,-311.6679 6.1683,-310.9353 7.4568,-310.2348 8.8631,-309.5682 10.3833,-308.9374 12.0129,-308.3441 13.7467,-307.79 15.579,-307.2766 17.5034,-306.8053 19.513,-306.3773 21.6002,-305.9939 23.7572,-305.656 25.9755,-305.3647 28.2465,-305.1207 30.561,-304.9247 32.9096,-304.7773 35.2827,-304.6787 37.6707,-304.6294 40.0635,-304.6294 42.4515,-304.6787"/>
<text text-anchor="middle" x="38.8671" y="-320.1294" font-family="Courier,monospace" font-weight="bold" font-size="10.00" fill="#000000">SOURCE</text>
</g>
<!-- STATE_SOURCE&#45;&gt;STATE_A -->
<g id="edge11" class="edge">
<title>STATE_SOURCE&#45;&gt;STATE_A</title>
<path fill="none" stroke="#000000" d="M77.0602,-322.6294C132.3751,-322.6294 234.2372,-322.6294 289.9059,-322.6294"/>
<polygon fill="#000000" stroke="#000000" points="290.0689,-326.1295 300.0689,-322.6294 290.0688,-319.1295 290.0689,-326.1295"/>
<text text-anchor="middle" x="163.7342" y="-325.6294" font-family="Courier,monospace" font-weight="bold" font-size="10.00" fill="#000000">0.9998000599820054</text>
</g>
<!-- STATE_SOURCE&#45;&gt;STATE_B -->
<g id="edge12" class="edge">
<title>STATE_SOURCE&#45;&gt;STATE_B</title>
<path fill="none" stroke="#000000" d="M62.9231,-307.2024C121.8578,-270.4381 279.3443,-178.3636 425.7342,-146.6294 482.419,-134.3413 550.0234,-138.1241 591.5983,-142.4832"/>
<polygon fill="#000000" stroke="#000000" points="591.2591,-145.967 601.5849,-143.5944 592.0333,-139.0099 591.2591,-145.967"/>
<text text-anchor="middle" x="328.7342" y="-207.6294" font-family="Courier,monospace" font-weight="bold" font-size="10.00" fill="#000000">9.997000899730082e&#45;05</text>
</g>
<!-- STATE_SOURCE&#45;&gt;STATE_D -->
<g id="edge13" class="edge">
<title>STATE_SOURCE&#45;&gt;STATE_D</title>
<path fill="none" stroke="#000000" d="M49.092,-339.8416C82.1755,-393.0982 192.1294,-551.6294 328.7342,-551.6294 328.7342,-551.6294 328.7342,-551.6294 756.2211,-551.6294 871.4082,-551.6294 1002.7617,-506.339 1061.6988,-483.4907"/>
<polygon fill="#000000" stroke="#000000" points="1063.1562,-486.6786 1071.1833,-479.7637 1060.596,-480.1635 1063.1562,-486.6786"/>
<text text-anchor="middle" x="504.7342" y="-554.6294" font-family="Courier,monospace" font-weight="bold" font-size="10.00" fill="#000000">9.997000899730082e&#45;05</text>
</g>
</g>
</svg>
