<?xml version="1.0" encoding="UTF-8" standalone="no"?>
<!DOCTYPE svg PUBLIC "-//W3C//DTD SVG 1.1//EN"
 "http://www.w3.org/Graphics/SVG/1.1/DTD/svg11.dtd">
<!-- Generated by graphviz version 2.40.1 (0)
 -->
<!-- Title: G Pages: 1 -->
<svg width="309pt" height="105pt"
 viewBox="0.00 0.00 309.00 105.00" xmlns="http://www.w3.org/2000/svg" xmlns:xlink="http://www.w3.org/1999/xlink">
<g id="graph0" class="graph" transform="scale(1 1) rotate(0) translate(4 101)">
<title>G</title>
<polygon fill="#ffffff" stroke="transparent" points="-4,4 -4,-101 305,-101 305,4 -4,4"/>
<!-- N1 -->
<g id="node1" class="node">
<title>N1</title>
<ellipse fill="none" stroke="#000000" cx="198.5" cy="-25.5" rx="14.5" ry="14.5"/>
<text text-anchor="middle" x="198.5" y="-23" font-family="Courier,monospace" font-weight="bold" font-size="10.00" fill="#000000">N1</text>
</g>
<!-- v2 -->
<g id="node5" class="node">
<title>v2</title>
<ellipse fill="none" stroke="#000000" cx="286.5" cy="-25.5" rx="14.5" ry="14.5"/>
<text text-anchor="middle" x="286.5" y="-23" font-family="Courier,monospace" font-weight="bold" font-size="10.00" fill="#000000">v2</text>
</g>
<!-- N1&#45;&#45;v2 -->
<g id="edge2" class="edge">
<title>N1&#45;&#45;v2</title>
<path fill="none" stroke="#000000" d="M213.0314,-25.5C229.3364,-25.5 255.6332,-25.5 271.947,-25.5"/>
<text text-anchor="middle" x="242.5" y="-28.5" font-family="Courier,monospace" font-weight="bold" font-size="10.00" fill="#000000">6.0</text>
</g>
<!-- N2 -->
<g id="node2" class="node">
<title>N2</title>
<ellipse fill="none" stroke="#000000" cx="110.5" cy="-71.5" rx="14.5" ry="14.5"/>
<text text-anchor="middle" x="110.5" y="-69" font-family="Courier,monospace" font-weight="bold" font-size="10.00" fill="#000000">N2</text>
</g>
<!-- N2&#45;&#45;N1 -->
<g id="edge4" class="edge">
<title>N2&#45;&#45;N1</title>
<path fill="none" stroke="#000000" d="M123.4847,-64.7125C140.1226,-56.0155 168.7985,-41.0258 185.462,-32.3153"/>
<text text-anchor="middle" x="154.5" y="-57.5" font-family="Courier,monospace" font-weight="bold" font-size="10.00" fill="#000000">4.0</text>
</g>
<!-- v1 -->
<g id="node4" class="node">
<title>v1</title>
<ellipse fill="none" stroke="#000000" cx="198.5" cy="-82.5" rx="14.5" ry="14.5"/>
<text text-anchor="middle" x="198.5" y="-80" font-family="Courier,monospace" font-weight="bold" font-size="10.00" fill="#000000">v1</text>
</g>
<!-- N2&#45;&#45;v1 -->
<g id="edge5" class="edge">
<title>N2&#45;&#45;v1</title>
<path fill="none" stroke="#000000" d="M125.0314,-73.3164C141.3364,-75.3545 167.6332,-78.6417 183.947,-80.6809"/>
<text text-anchor="middle" x="154.5" y="-80.5" font-family="Courier,monospace" font-weight="bold" font-size="10.00" fill="#000000">2.0</text>
</g>
<!-- v0 -->
<g id="node3" class="node">
<title>v0</title>
<ellipse fill="none" stroke="#000000" cx="14.5" cy="-71.5" rx="14.5" ry="14.5"/>
<text text-anchor="middle" x="14.5" y="-69" font-family="Courier,monospace" font-weight="bold" font-size="10.00" fill="#000000">v0</text>
</g>
<!-- v0&#45;&#45;N2 -->
<g id="edge3" class="edge">
<title>v0&#45;&#45;N2</title>
<path fill="none" stroke="#000000" d="M29.0803,-71.5C47.124,-71.5 77.6756,-71.5 95.7825,-71.5"/>
<text text-anchor="middle" x="62.5" y="-74.5" font-family="Courier,monospace" font-weight="bold" font-size="10.00" fill="#000000">11.0</text>
</g>
<!-- v3 -->
<g id="node6" class="node">
<title>v3</title>
<ellipse fill="none" stroke="#000000" cx="110.5" cy="-14.5" rx="14.5" ry="14.5"/>
<text text-anchor="middle" x="110.5" y="-12" font-family="Courier,monospace" font-weight="bold" font-size="10.00" fill="#000000">v3</text>
</g>
<!-- v3&#45;&#45;N1 -->
<g id="edge1" class="edge">
<title>v3&#45;&#45;N1</title>
<path fill="none" stroke="#000000" d="M125.205,-13.6509C136.4486,-13.2699 152.2962,-13.313 166,-15.5 172.296,-16.5048 179.0641,-18.4416 184.7853,-20.3452"/>
<text text-anchor="middle" x="154.5" y="-18.5" font-family="Courier,monospace" font-weight="bold" font-size="10.00" fill="#000000">7.0</text>
</g>
</g>
</svg>
