<svg class="bob" font-family="arial" font-size="14" height="144" width="520" xmlns="http://www.w3.org/2000/svg">
<defs>
<marker id="triangle" markerHeight="8" markerWidth="8" orient="auto" refX="4" refY="2" viewBox="0 0 8 4">
<polygon class="fg_fill" points="0,0 0,4 8,2 0,0"/>
</marker>
<marker id="clear_triangle" markerHeight="10" markerWidth="10" orient="auto" refX="1" refY="7" viewBox="0 0 20 14">
<polygon class="bg_fill" points="2,2 2,12 18,7 2,2"/>
</marker>
<marker id="circle" markerHeight="5" markerWidth="5" orient="auto" refX="10" refY="10" viewBox="0 0 20 20">
<circle class="fg_fill" cx="10" cy="10" r="8"/>
</marker>
<marker id="square" markerHeight="5" markerWidth="5" orient="auto" refX="10" refY="10" viewBox="0 0 20 20">
<rect class="fg_fill" height="20" width="20" x="0" y="0"/>
</marker>
<marker id="open_circle" markerHeight="10" markerWidth="10" orient="auto" refX="10" refY="10" viewBox="0 0 20 20">
<circle class="bg_fill" cx="10" cy="10" r="4"/>
</marker>
<marker id="big_open_circle" markerHeight="20" markerWidth="20" orient="auto" refX="20" refY="20" viewBox="0 0 40 40">
<circle class="bg_fill" cx="20" cy="20" r="6"/>
</marker>
</defs>
<style type="text/css">

rect.backdrop {
    fill: white;
}
text{
    fill: black;
}

circle {
    fill: none;
    stroke: black;
    stroke-width: 2;
}

line {
    stroke: black;
    stroke-width: 2;
    stroke-opacity: 1;
    fill-opacity: 1;
    stroke-linecap: round;
    stroke-linejoin: miter;
}

path {
    fill: none;
    stroke: black;
    stroke-width: 2;
    stroke-opacity: 1;
    fill-opacity: 1;
    stroke-linecap: round;
    stroke-linejoin: miter;
}

line.dashed {
    stroke-dasharray: 5;
}

.fg_fill {
    fill: black;
}


.bg_fill {
    fill: white;
    stroke: black;
    stroke-width: 2;
}

tspan.head{
    fill: none;
    stroke: none;
}
    
</style>
<rect class="backdrop" height="144" width="520" x="0" y="0"/>
<g>
<line x1="4" x2="4" y1="12" y2="52"/>
<path d="M 4 52 A 4 4 0 0 0 8 56"/>
<path d="M 8 8 A 4 4 0 0 0 4 12"/>
</g>
<g>
<line x1="4" x2="4" y1="92" y2="132"/>
<path d="M 4 132 A 4 4 0 0 0 8 136"/>
<path d="M 8 88 A 4 4 0 0 0 4 92"/>
</g>
<g>
<line x1="8" x2="168" y1="8" y2="8"/>
<path d="M 172 12 A 4 4 0 0 0 168 8"/>
</g>
<g>
<line x1="8" x2="168" y1="56" y2="56"/>
<path d="M 168 56 A 4 4 0 0 0 172 52"/>
</g>
<g>
<line x1="8" x2="168" y1="88" y2="88"/>
<path d="M 172 92 A 4 4 0 0 0 168 88"/>
</g>
<g>
<line x1="8" x2="168" y1="136" y2="136"/>
<path d="M 168 136 A 4 4 0 0 0 172 132"/>
</g>
<g>
<line x1="172" x2="172" y1="12" y2="40"/>
<line x1="172" x2="172" y1="40" y2="52"/>
<line x1="172" x2="200" y1="40" y2="40"/>
<path d="M 204 44 A 4 4 0 0 0 200 40"/>
</g>
<g>
<line x1="172" x2="172" y1="92" y2="104"/>
<line x1="172" x2="172" y1="104" y2="132"/>
<line x1="172" x2="200" y1="104" y2="104"/>
<path d="M 200 104 A 4 4 0 0 0 204 100"/>
</g>
<g>
<line x1="204" x2="204" y1="44" y2="72"/>
<line x1="204" x2="204" y1="72" y2="100"/>
<line marker-end="url(#triangle)" x1="204" x2="380" y1="72" y2="72"/>
</g>
<g>
<line x1="388" x2="388" y1="60" y2="84"/>
<path d="M 388 84 A 4 4 0 0 0 392 88"/>
<path d="M 392 56 A 4 4 0 0 0 388 60"/>
</g>
<g>
<line x1="392" x2="512" y1="56" y2="56"/>
<path d="M 516 60 A 4 4 0 0 0 512 56"/>
</g>
<g>
<line x1="392" x2="512" y1="88" y2="88"/>
<path d="M 512 88 A 4 4 0 0 0 516 84"/>
</g>
<g>
<line x1="516" x2="516" y1="60" y2="84"/>
</g>
<g>
<text x="17" y="108">
Emitted sequence
</text>
</g>
<g>
<text x="65" y="28">
HMM
</text>
</g>
<g>
<text x="225" y="60">
Viterbi algorithm
</text>
</g>
<g>
<text x="401" y="76">
Hidden path
</text>
</g>
</svg>
