<?xml version="1.0" encoding="utf-8" standalone="no"?>
<!DOCTYPE svg PUBLIC "-//W3C//DTD SVG 1.1//EN"
  "http://www.w3.org/Graphics/SVG/1.1/DTD/svg11.dtd">
<svg xmlns:xlink="http://www.w3.org/1999/xlink" width="460.8pt" height="345.6pt" viewBox="0 0 460.8 345.6" xmlns="http://www.w3.org/2000/svg" version="1.1">
 <metadata>
  <rdf:RDF xmlns:dc="http://purl.org/dc/elements/1.1/" xmlns:cc="http://creativecommons.org/ns#" xmlns:rdf="http://www.w3.org/1999/02/22-rdf-syntax-ns#">
   <cc:Work>
    <dc:type rdf:resource="http://purl.org/dc/dcmitype/StillImage"/>
    <dc:date>2022-02-20T22:22:54.478822</dc:date>
    <dc:format>image/svg+xml</dc:format>
    <dc:creator>
     <cc:Agent>
      <dc:title>Matplotlib v3.5.1, https://matplotlib.org/</dc:title>
     </cc:Agent>
    </dc:creator>
   </cc:Work>
  </rdf:RDF>
 </metadata>
 <defs>
  <style type="text/css">*{stroke-linejoin: round; stroke-linecap: butt}</style>
 </defs>
 <g id="figure_1">
  <g id="patch_1">
   <path d="M 0 345.6 
L 460.8 345.6 
L 460.8 0 
L 0 0 
z
" style="fill: #ffffff"/>
  </g>
  <g id="axes_1">
   <g id="patch_2">
    <path d="M 57.6 307.584 
L 414.72 307.584 
L 414.72 41.472 
L 57.6 41.472 
z
" style="fill: #ffffff"/>
   </g>
   <g id="PathCollection_1">
    <defs>
     <path id="m00c82fe046" d="M -6.324555 6.324555 
L 6.324555 -6.324555 
M -6.324555 -6.324555 
L 6.324555 6.324555 
" style="stroke: #1f77b4; stroke-width: 1.5"/>
    </defs>
    <g clip-path="url(#p3bc3b71180)">
     <use xlink:href="#m00c82fe046" x="73.832727" y="295.488" style="fill: #1f77b4; stroke: #1f77b4; stroke-width: 1.5"/>
    </g>
   </g>
   <g id="PathCollection_2">
    <path d="M 127.941818 218.010278 
C 128.780464 218.010278 129.584874 217.67708 130.177886 217.084068 
C 130.770898 216.491056 131.104096 215.686646 131.104096 214.848 
C 131.104096 214.009354 130.770898 213.204944 130.177886 212.611932 
C 129.584874 212.01892 128.780464 211.685722 127.941818 211.685722 
C 127.103172 211.685722 126.298762 212.01892 125.70575 212.611932 
C 125.112738 213.204944 124.779541 214.009354 124.779541 214.848 
C 124.779541 215.686646 125.112738 216.491056 125.70575 217.084068 
C 126.298762 217.67708 127.103172 218.010278 127.941818 218.010278 
z
" clip-path="url(#p3bc3b71180)" style="fill: #ff7f0e; stroke: #ff7f0e"/>
    <path d="M 154.996364 137.370278 
C 155.835009 137.370278 156.639419 137.03708 157.232432 136.444068 
C 157.825444 135.851056 158.158641 135.046646 158.158641 134.208 
C 158.158641 133.369354 157.825444 132.564944 157.232432 131.971932 
C 156.639419 131.37892 155.835009 131.045722 154.996364 131.045722 
C 154.157718 131.045722 153.353308 131.37892 152.760296 131.971932 
C 152.167283 132.564944 151.834086 133.369354 151.834086 134.208 
C 151.834086 135.046646 152.167283 135.851056 152.760296 136.444068 
C 153.353308 137.03708 154.157718 137.370278 154.996364 137.370278 
z
" clip-path="url(#p3bc3b71180)" style="fill: #ff7f0e; stroke: #ff7f0e"/>
    <path d="M 182.050909 56.730278 
C 182.889555 56.730278 183.693965 56.39708 184.286977 55.804068 
C 184.879989 55.211056 185.213187 54.406646 185.213187 53.568 
C 185.213187 52.729354 184.879989 51.924944 184.286977 51.331932 
C 183.693965 50.73892 182.889555 50.405722 182.050909 50.405722 
C 181.212263 50.405722 180.407853 50.73892 179.814841 51.331932 
C 179.221829 51.924944 178.888631 52.729354 178.888631 53.568 
C 178.888631 54.406646 179.221829 55.211056 179.814841 55.804068 
C 180.407853 56.39708 181.212263 56.730278 182.050909 56.730278 
z
" clip-path="url(#p3bc3b71180)" style="fill: #ff7f0e; stroke: #ff7f0e"/>
    <path d="M 344.378182 218.010278 
C 345.216828 218.010278 346.021238 217.67708 346.61425 217.084068 
C 347.207262 216.491056 347.540459 215.686646 347.540459 214.848 
C 347.540459 214.009354 347.207262 213.204944 346.61425 212.611932 
C 346.021238 212.01892 345.216828 211.685722 344.378182 211.685722 
C 343.539536 211.685722 342.735126 212.01892 342.142114 212.611932 
C 341.549102 213.204944 341.215904 214.009354 341.215904 214.848 
C 341.215904 215.686646 341.549102 216.491056 342.142114 217.084068 
C 342.735126 217.67708 343.539536 218.010278 344.378182 218.010278 
z
" clip-path="url(#p3bc3b71180)" style="fill: #ff7f0e; stroke: #ff7f0e"/>
    <path d="M 317.323636 137.370278 
C 318.162282 137.370278 318.966692 137.03708 319.559704 136.444068 
C 320.152717 135.851056 320.485914 135.046646 320.485914 134.208 
C 320.485914 133.369354 320.152717 132.564944 319.559704 131.971932 
C 318.966692 131.37892 318.162282 131.045722 317.323636 131.045722 
C 316.484991 131.045722 315.680581 131.37892 315.087568 131.971932 
C 314.494556 132.564944 314.161359 133.369354 314.161359 134.208 
C 314.161359 135.046646 314.494556 135.851056 315.087568 136.444068 
C 315.680581 137.03708 316.484991 137.370278 317.323636 137.370278 
z
" clip-path="url(#p3bc3b71180)" style="fill: #ff7f0e; stroke: #ff7f0e"/>
    <path d="M 290.269091 56.730278 
C 291.107737 56.730278 291.912147 56.39708 292.505159 55.804068 
C 293.098171 55.211056 293.431369 54.406646 293.431369 53.568 
C 293.431369 52.729354 293.098171 51.924944 292.505159 51.331932 
C 291.912147 50.73892 291.107737 50.405722 290.269091 50.405722 
C 289.430445 50.405722 288.626035 50.73892 288.033023 51.331932 
C 287.440011 51.924944 287.106813 52.729354 287.106813 53.568 
C 287.106813 54.406646 287.440011 55.211056 288.033023 55.804068 
C 288.626035 56.39708 289.430445 56.730278 290.269091 56.730278 
z
" clip-path="url(#p3bc3b71180)" style="fill: #ff7f0e; stroke: #ff7f0e"/>
   </g>
   <g id="PathCollection_3">
    <defs>
     <path id="m0172a90343" d="M -6.324555 6.324555 
L 6.324555 -6.324555 
M -6.324555 -6.324555 
L 6.324555 6.324555 
" style="stroke: #2ca02c; stroke-width: 1.5"/>
    </defs>
    <g clip-path="url(#p3bc3b71180)">
     <use xlink:href="#m0172a90343" x="398.487273" y="295.488" style="fill: #2ca02c; stroke: #2ca02c; stroke-width: 1.5"/>
    </g>
   </g>
   <g id="PathCollection_4">
    <path d="M 127.941818 218.010278 
C 128.780464 218.010278 129.584874 217.67708 130.177886 217.084068 
C 130.770898 216.491056 131.104096 215.686646 131.104096 214.848 
C 131.104096 214.009354 130.770898 213.204944 130.177886 212.611932 
C 129.584874 212.01892 128.780464 211.685722 127.941818 211.685722 
C 127.103172 211.685722 126.298762 212.01892 125.70575 212.611932 
C 125.112738 213.204944 124.779541 214.009354 124.779541 214.848 
C 124.779541 215.686646 125.112738 216.491056 125.70575 217.084068 
C 126.298762 217.67708 127.103172 218.010278 127.941818 218.010278 
z
" clip-path="url(#p3bc3b71180)" style="fill: #d62728; stroke: #d62728"/>
    <path d="M 154.996364 137.370278 
C 155.835009 137.370278 156.639419 137.03708 157.232432 136.444068 
C 157.825444 135.851056 158.158641 135.046646 158.158641 134.208 
C 158.158641 133.369354 157.825444 132.564944 157.232432 131.971932 
C 156.639419 131.37892 155.835009 131.045722 154.996364 131.045722 
C 154.157718 131.045722 153.353308 131.37892 152.760296 131.971932 
C 152.167283 132.564944 151.834086 133.369354 151.834086 134.208 
C 151.834086 135.046646 152.167283 135.851056 152.760296 136.444068 
C 153.353308 137.03708 154.157718 137.370278 154.996364 137.370278 
z
" clip-path="url(#p3bc3b71180)" style="fill: #d62728; stroke: #d62728"/>
    <path d="M 182.050909 56.730278 
C 182.889555 56.730278 183.693965 56.39708 184.286977 55.804068 
C 184.879989 55.211056 185.213187 54.406646 185.213187 53.568 
C 185.213187 52.729354 184.879989 51.924944 184.286977 51.331932 
C 183.693965 50.73892 182.889555 50.405722 182.050909 50.405722 
C 181.212263 50.405722 180.407853 50.73892 179.814841 51.331932 
C 179.221829 51.924944 178.888631 52.729354 178.888631 53.568 
C 178.888631 54.406646 179.221829 55.211056 179.814841 55.804068 
C 180.407853 56.39708 181.212263 56.730278 182.050909 56.730278 
z
" clip-path="url(#p3bc3b71180)" style="fill: #d62728; stroke: #d62728"/>
    <path d="M 344.378182 218.010278 
C 345.216828 218.010278 346.021238 217.67708 346.61425 217.084068 
C 347.207262 216.491056 347.540459 215.686646 347.540459 214.848 
C 347.540459 214.009354 347.207262 213.204944 346.61425 212.611932 
C 346.021238 212.01892 345.216828 211.685722 344.378182 211.685722 
C 343.539536 211.685722 342.735126 212.01892 342.142114 212.611932 
C 341.549102 213.204944 341.215904 214.009354 341.215904 214.848 
C 341.215904 215.686646 341.549102 216.491056 342.142114 217.084068 
C 342.735126 217.67708 343.539536 218.010278 344.378182 218.010278 
z
" clip-path="url(#p3bc3b71180)" style="fill: #d62728; stroke: #d62728"/>
    <path d="M 317.323636 137.370278 
C 318.162282 137.370278 318.966692 137.03708 319.559704 136.444068 
C 320.152717 135.851056 320.485914 135.046646 320.485914 134.208 
C 320.485914 133.369354 320.152717 132.564944 319.559704 131.971932 
C 318.966692 131.37892 318.162282 131.045722 317.323636 131.045722 
C 316.484991 131.045722 315.680581 131.37892 315.087568 131.971932 
C 314.494556 132.564944 314.161359 133.369354 314.161359 134.208 
C 314.161359 135.046646 314.494556 135.851056 315.087568 136.444068 
C 315.680581 137.03708 316.484991 137.370278 317.323636 137.370278 
z
" clip-path="url(#p3bc3b71180)" style="fill: #d62728; stroke: #d62728"/>
    <path d="M 290.269091 56.730278 
C 291.107737 56.730278 291.912147 56.39708 292.505159 55.804068 
C 293.098171 55.211056 293.431369 54.406646 293.431369 53.568 
C 293.431369 52.729354 293.098171 51.924944 292.505159 51.331932 
C 291.912147 50.73892 291.107737 50.405722 290.269091 50.405722 
C 289.430445 50.405722 288.626035 50.73892 288.033023 51.331932 
C 287.440011 51.924944 287.106813 52.729354 287.106813 53.568 
C 287.106813 54.406646 287.440011 55.211056 288.033023 55.804068 
C 288.626035 56.39708 289.430445 56.730278 290.269091 56.730278 
z
" clip-path="url(#p3bc3b71180)" style="fill: #d62728; stroke: #d62728"/>
   </g>
   <g id="matplotlib.axis_1">
    <g id="xtick_1">
     <g id="line2d_1">
      <defs>
       <path id="mb0b89ad9e5" d="M 0 0 
L 0 3.5 
" style="stroke: #000000; stroke-width: 0.8"/>
      </defs>
      <g>
       <use xlink:href="#mb0b89ad9e5" x="100.887273" y="307.584" style="stroke: #000000; stroke-width: 0.8"/>
      </g>
     </g>
     <g id="text_1">
      <!-- 0 -->
      <g transform="translate(97.706023 322.182437)scale(0.1 -0.1)">
       <defs>
        <path id="DejaVuSans-30" d="M 2034 4250 
Q 1547 4250 1301 3770 
Q 1056 3291 1056 2328 
Q 1056 1369 1301 889 
Q 1547 409 2034 409 
Q 2525 409 2770 889 
Q 3016 1369 3016 2328 
Q 3016 3291 2770 3770 
Q 2525 4250 2034 4250 
z
M 2034 4750 
Q 2819 4750 3233 4129 
Q 3647 3509 3647 2328 
Q 3647 1150 3233 529 
Q 2819 -91 2034 -91 
Q 1250 -91 836 529 
Q 422 1150 422 2328 
Q 422 3509 836 4129 
Q 1250 4750 2034 4750 
z
" transform="scale(0.015625)"/>
       </defs>
       <use xlink:href="#DejaVuSans-30"/>
      </g>
     </g>
    </g>
    <g id="xtick_2">
     <g id="line2d_2">
      <g>
       <use xlink:href="#mb0b89ad9e5" x="154.996364" y="307.584" style="stroke: #000000; stroke-width: 0.8"/>
      </g>
     </g>
     <g id="text_2">
      <!-- 2 -->
      <g transform="translate(151.815114 322.182437)scale(0.1 -0.1)">
       <defs>
        <path id="DejaVuSans-32" d="M 1228 531 
L 3431 531 
L 3431 0 
L 469 0 
L 469 531 
Q 828 903 1448 1529 
Q 2069 2156 2228 2338 
Q 2531 2678 2651 2914 
Q 2772 3150 2772 3378 
Q 2772 3750 2511 3984 
Q 2250 4219 1831 4219 
Q 1534 4219 1204 4116 
Q 875 4013 500 3803 
L 500 4441 
Q 881 4594 1212 4672 
Q 1544 4750 1819 4750 
Q 2544 4750 2975 4387 
Q 3406 4025 3406 3419 
Q 3406 3131 3298 2873 
Q 3191 2616 2906 2266 
Q 2828 2175 2409 1742 
Q 1991 1309 1228 531 
z
" transform="scale(0.015625)"/>
       </defs>
       <use xlink:href="#DejaVuSans-32"/>
      </g>
     </g>
    </g>
    <g id="xtick_3">
     <g id="line2d_3">
      <g>
       <use xlink:href="#mb0b89ad9e5" x="209.105455" y="307.584" style="stroke: #000000; stroke-width: 0.8"/>
      </g>
     </g>
     <g id="text_3">
      <!-- 4 -->
      <g transform="translate(205.924205 322.182437)scale(0.1 -0.1)">
       <defs>
        <path id="DejaVuSans-34" d="M 2419 4116 
L 825 1625 
L 2419 1625 
L 2419 4116 
z
M 2253 4666 
L 3047 4666 
L 3047 1625 
L 3713 1625 
L 3713 1100 
L 3047 1100 
L 3047 0 
L 2419 0 
L 2419 1100 
L 313 1100 
L 313 1709 
L 2253 4666 
z
" transform="scale(0.015625)"/>
       </defs>
       <use xlink:href="#DejaVuSans-34"/>
      </g>
     </g>
    </g>
    <g id="xtick_4">
     <g id="line2d_4">
      <g>
       <use xlink:href="#mb0b89ad9e5" x="263.214545" y="307.584" style="stroke: #000000; stroke-width: 0.8"/>
      </g>
     </g>
     <g id="text_4">
      <!-- 6 -->
      <g transform="translate(260.033295 322.182437)scale(0.1 -0.1)">
       <defs>
        <path id="DejaVuSans-36" d="M 2113 2584 
Q 1688 2584 1439 2293 
Q 1191 2003 1191 1497 
Q 1191 994 1439 701 
Q 1688 409 2113 409 
Q 2538 409 2786 701 
Q 3034 994 3034 1497 
Q 3034 2003 2786 2293 
Q 2538 2584 2113 2584 
z
M 3366 4563 
L 3366 3988 
Q 3128 4100 2886 4159 
Q 2644 4219 2406 4219 
Q 1781 4219 1451 3797 
Q 1122 3375 1075 2522 
Q 1259 2794 1537 2939 
Q 1816 3084 2150 3084 
Q 2853 3084 3261 2657 
Q 3669 2231 3669 1497 
Q 3669 778 3244 343 
Q 2819 -91 2113 -91 
Q 1303 -91 875 529 
Q 447 1150 447 2328 
Q 447 3434 972 4092 
Q 1497 4750 2381 4750 
Q 2619 4750 2861 4703 
Q 3103 4656 3366 4563 
z
" transform="scale(0.015625)"/>
       </defs>
       <use xlink:href="#DejaVuSans-36"/>
      </g>
     </g>
    </g>
    <g id="xtick_5">
     <g id="line2d_5">
      <g>
       <use xlink:href="#mb0b89ad9e5" x="317.323636" y="307.584" style="stroke: #000000; stroke-width: 0.8"/>
      </g>
     </g>
     <g id="text_5">
      <!-- 8 -->
      <g transform="translate(314.142386 322.182437)scale(0.1 -0.1)">
       <defs>
        <path id="DejaVuSans-38" d="M 2034 2216 
Q 1584 2216 1326 1975 
Q 1069 1734 1069 1313 
Q 1069 891 1326 650 
Q 1584 409 2034 409 
Q 2484 409 2743 651 
Q 3003 894 3003 1313 
Q 3003 1734 2745 1975 
Q 2488 2216 2034 2216 
z
M 1403 2484 
Q 997 2584 770 2862 
Q 544 3141 544 3541 
Q 544 4100 942 4425 
Q 1341 4750 2034 4750 
Q 2731 4750 3128 4425 
Q 3525 4100 3525 3541 
Q 3525 3141 3298 2862 
Q 3072 2584 2669 2484 
Q 3125 2378 3379 2068 
Q 3634 1759 3634 1313 
Q 3634 634 3220 271 
Q 2806 -91 2034 -91 
Q 1263 -91 848 271 
Q 434 634 434 1313 
Q 434 1759 690 2068 
Q 947 2378 1403 2484 
z
M 1172 3481 
Q 1172 3119 1398 2916 
Q 1625 2713 2034 2713 
Q 2441 2713 2670 2916 
Q 2900 3119 2900 3481 
Q 2900 3844 2670 4047 
Q 2441 4250 2034 4250 
Q 1625 4250 1398 4047 
Q 1172 3844 1172 3481 
z
" transform="scale(0.015625)"/>
       </defs>
       <use xlink:href="#DejaVuSans-38"/>
      </g>
     </g>
    </g>
    <g id="xtick_6">
     <g id="line2d_6">
      <g>
       <use xlink:href="#mb0b89ad9e5" x="371.432727" y="307.584" style="stroke: #000000; stroke-width: 0.8"/>
      </g>
     </g>
     <g id="text_6">
      <!-- 10 -->
      <g transform="translate(365.070227 322.182437)scale(0.1 -0.1)">
       <defs>
        <path id="DejaVuSans-31" d="M 794 531 
L 1825 531 
L 1825 4091 
L 703 3866 
L 703 4441 
L 1819 4666 
L 2450 4666 
L 2450 531 
L 3481 531 
L 3481 0 
L 794 0 
L 794 531 
z
" transform="scale(0.015625)"/>
       </defs>
       <use xlink:href="#DejaVuSans-31"/>
       <use xlink:href="#DejaVuSans-30" x="63.623047"/>
      </g>
     </g>
    </g>
   </g>
   <g id="matplotlib.axis_2">
    <g id="ytick_1">
     <g id="line2d_7">
      <defs>
       <path id="mb8dced46ae" d="M 0 0 
L -3.5 0 
" style="stroke: #000000; stroke-width: 0.8"/>
      </defs>
      <g>
       <use xlink:href="#mb8dced46ae" x="57.6" y="295.488" style="stroke: #000000; stroke-width: 0.8"/>
      </g>
     </g>
     <g id="text_7">
      <!-- 0.0 -->
      <g transform="translate(34.696875 299.287219)scale(0.1 -0.1)">
       <defs>
        <path id="DejaVuSans-2e" d="M 684 794 
L 1344 794 
L 1344 0 
L 684 0 
L 684 794 
z
" transform="scale(0.015625)"/>
       </defs>
       <use xlink:href="#DejaVuSans-30"/>
       <use xlink:href="#DejaVuSans-2e" x="63.623047"/>
       <use xlink:href="#DejaVuSans-30" x="95.410156"/>
      </g>
     </g>
    </g>
    <g id="ytick_2">
     <g id="line2d_8">
      <g>
       <use xlink:href="#mb8dced46ae" x="57.6" y="255.168" style="stroke: #000000; stroke-width: 0.8"/>
      </g>
     </g>
     <g id="text_8">
      <!-- 0.5 -->
      <g transform="translate(34.696875 258.967219)scale(0.1 -0.1)">
       <defs>
        <path id="DejaVuSans-35" d="M 691 4666 
L 3169 4666 
L 3169 4134 
L 1269 4134 
L 1269 2991 
Q 1406 3038 1543 3061 
Q 1681 3084 1819 3084 
Q 2600 3084 3056 2656 
Q 3513 2228 3513 1497 
Q 3513 744 3044 326 
Q 2575 -91 1722 -91 
Q 1428 -91 1123 -41 
Q 819 9 494 109 
L 494 744 
Q 775 591 1075 516 
Q 1375 441 1709 441 
Q 2250 441 2565 725 
Q 2881 1009 2881 1497 
Q 2881 1984 2565 2268 
Q 2250 2553 1709 2553 
Q 1456 2553 1204 2497 
Q 953 2441 691 2322 
L 691 4666 
z
" transform="scale(0.015625)"/>
       </defs>
       <use xlink:href="#DejaVuSans-30"/>
       <use xlink:href="#DejaVuSans-2e" x="63.623047"/>
       <use xlink:href="#DejaVuSans-35" x="95.410156"/>
      </g>
     </g>
    </g>
    <g id="ytick_3">
     <g id="line2d_9">
      <g>
       <use xlink:href="#mb8dced46ae" x="57.6" y="214.848" style="stroke: #000000; stroke-width: 0.8"/>
      </g>
     </g>
     <g id="text_9">
      <!-- 1.0 -->
      <g transform="translate(34.696875 218.647219)scale(0.1 -0.1)">
       <use xlink:href="#DejaVuSans-31"/>
       <use xlink:href="#DejaVuSans-2e" x="63.623047"/>
       <use xlink:href="#DejaVuSans-30" x="95.410156"/>
      </g>
     </g>
    </g>
    <g id="ytick_4">
     <g id="line2d_10">
      <g>
       <use xlink:href="#mb8dced46ae" x="57.6" y="174.528" style="stroke: #000000; stroke-width: 0.8"/>
      </g>
     </g>
     <g id="text_10">
      <!-- 1.5 -->
      <g transform="translate(34.696875 178.327219)scale(0.1 -0.1)">
       <use xlink:href="#DejaVuSans-31"/>
       <use xlink:href="#DejaVuSans-2e" x="63.623047"/>
       <use xlink:href="#DejaVuSans-35" x="95.410156"/>
      </g>
     </g>
    </g>
    <g id="ytick_5">
     <g id="line2d_11">
      <g>
       <use xlink:href="#mb8dced46ae" x="57.6" y="134.208" style="stroke: #000000; stroke-width: 0.8"/>
      </g>
     </g>
     <g id="text_11">
      <!-- 2.0 -->
      <g transform="translate(34.696875 138.007219)scale(0.1 -0.1)">
       <use xlink:href="#DejaVuSans-32"/>
       <use xlink:href="#DejaVuSans-2e" x="63.623047"/>
       <use xlink:href="#DejaVuSans-30" x="95.410156"/>
      </g>
     </g>
    </g>
    <g id="ytick_6">
     <g id="line2d_12">
      <g>
       <use xlink:href="#mb8dced46ae" x="57.6" y="93.888" style="stroke: #000000; stroke-width: 0.8"/>
      </g>
     </g>
     <g id="text_12">
      <!-- 2.5 -->
      <g transform="translate(34.696875 97.687219)scale(0.1 -0.1)">
       <use xlink:href="#DejaVuSans-32"/>
       <use xlink:href="#DejaVuSans-2e" x="63.623047"/>
       <use xlink:href="#DejaVuSans-35" x="95.410156"/>
      </g>
     </g>
    </g>
    <g id="ytick_7">
     <g id="line2d_13">
      <g>
       <use xlink:href="#mb8dced46ae" x="57.6" y="53.568" style="stroke: #000000; stroke-width: 0.8"/>
      </g>
     </g>
     <g id="text_13">
      <!-- 3.0 -->
      <g transform="translate(34.696875 57.367219)scale(0.1 -0.1)">
       <defs>
        <path id="DejaVuSans-33" d="M 2597 2516 
Q 3050 2419 3304 2112 
Q 3559 1806 3559 1356 
Q 3559 666 3084 287 
Q 2609 -91 1734 -91 
Q 1441 -91 1130 -33 
Q 819 25 488 141 
L 488 750 
Q 750 597 1062 519 
Q 1375 441 1716 441 
Q 2309 441 2620 675 
Q 2931 909 2931 1356 
Q 2931 1769 2642 2001 
Q 2353 2234 1838 2234 
L 1294 2234 
L 1294 2753 
L 1863 2753 
Q 2328 2753 2575 2939 
Q 2822 3125 2822 3475 
Q 2822 3834 2567 4026 
Q 2313 4219 1838 4219 
Q 1578 4219 1281 4162 
Q 984 4106 628 3988 
L 628 4550 
Q 988 4650 1302 4700 
Q 1616 4750 1894 4750 
Q 2613 4750 3031 4423 
Q 3450 4097 3450 3541 
Q 3450 3153 3228 2886 
Q 3006 2619 2597 2516 
z
" transform="scale(0.015625)"/>
       </defs>
       <use xlink:href="#DejaVuSans-33"/>
       <use xlink:href="#DejaVuSans-2e" x="63.623047"/>
       <use xlink:href="#DejaVuSans-30" x="95.410156"/>
      </g>
     </g>
    </g>
   </g>
   <g id="patch_3">
    <path d="M 57.6 307.584 
L 57.6 41.472 
" style="fill: none; stroke: #000000; stroke-width: 0.8; stroke-linejoin: miter; stroke-linecap: square"/>
   </g>
   <g id="patch_4">
    <path d="M 414.72 307.584 
L 414.72 41.472 
" style="fill: none; stroke: #000000; stroke-width: 0.8; stroke-linejoin: miter; stroke-linecap: square"/>
   </g>
   <g id="patch_5">
    <path d="M 57.6 307.584 
L 414.72 307.584 
" style="fill: none; stroke: #000000; stroke-width: 0.8; stroke-linejoin: miter; stroke-linecap: square"/>
   </g>
   <g id="patch_6">
    <path d="M 57.6 41.472 
L 414.72 41.472 
" style="fill: none; stroke: #000000; stroke-width: 0.8; stroke-linejoin: miter; stroke-linecap: square"/>
   </g>
   <g id="text_14">
    <!--  -->
    <g transform="translate(127.941818 182.452375)scale(0.1 -0.1)"/>
    <!-- 0=0.90 -->
    <g transform="translate(109.437912 193.650187)scale(0.1 -0.1)">
     <defs>
      <path id="DejaVuSans-3d" d="M 678 2906 
L 4684 2906 
L 4684 2381 
L 678 2381 
L 678 2906 
z
M 678 1631 
L 4684 1631 
L 4684 1100 
L 678 1100 
L 678 1631 
z
" transform="scale(0.015625)"/>
      <path id="DejaVuSans-39" d="M 703 97 
L 703 672 
Q 941 559 1184 500 
Q 1428 441 1663 441 
Q 2288 441 2617 861 
Q 2947 1281 2994 2138 
Q 2813 1869 2534 1725 
Q 2256 1581 1919 1581 
Q 1219 1581 811 2004 
Q 403 2428 403 3163 
Q 403 3881 828 4315 
Q 1253 4750 1959 4750 
Q 2769 4750 3195 4129 
Q 3622 3509 3622 2328 
Q 3622 1225 3098 567 
Q 2575 -91 1691 -91 
Q 1453 -91 1209 -44 
Q 966 3 703 97 
z
M 1959 2075 
Q 2384 2075 2632 2365 
Q 2881 2656 2881 3163 
Q 2881 3666 2632 3958 
Q 2384 4250 1959 4250 
Q 1534 4250 1286 3958 
Q 1038 3666 1038 3163 
Q 1038 2656 1286 2365 
Q 1534 2075 1959 2075 
z
" transform="scale(0.015625)"/>
     </defs>
     <use xlink:href="#DejaVuSans-30"/>
     <use xlink:href="#DejaVuSans-3d" x="63.623047"/>
     <use xlink:href="#DejaVuSans-30" x="147.412109"/>
     <use xlink:href="#DejaVuSans-2e" x="211.035156"/>
     <use xlink:href="#DejaVuSans-39" x="242.822266"/>
     <use xlink:href="#DejaVuSans-30" x="306.445312"/>
    </g>
    <!-- 1=0.03 -->
    <g transform="translate(109.437912 204.848)scale(0.1 -0.1)">
     <use xlink:href="#DejaVuSans-31"/>
     <use xlink:href="#DejaVuSans-3d" x="63.623047"/>
     <use xlink:href="#DejaVuSans-30" x="147.412109"/>
     <use xlink:href="#DejaVuSans-2e" x="211.035156"/>
     <use xlink:href="#DejaVuSans-30" x="242.822266"/>
     <use xlink:href="#DejaVuSans-33" x="306.445312"/>
    </g>
   </g>
   <g id="text_15">
    <!--  -->
    <g transform="translate(154.996364 101.812375)scale(0.1 -0.1)"/>
    <!-- 0=0.80 -->
    <g transform="translate(136.492457 113.010188)scale(0.1 -0.1)">
     <use xlink:href="#DejaVuSans-30"/>
     <use xlink:href="#DejaVuSans-3d" x="63.623047"/>
     <use xlink:href="#DejaVuSans-30" x="147.412109"/>
     <use xlink:href="#DejaVuSans-2e" x="211.035156"/>
     <use xlink:href="#DejaVuSans-38" x="242.822266"/>
     <use xlink:href="#DejaVuSans-30" x="306.445312"/>
    </g>
    <!-- 1=0.02 -->
    <g transform="translate(136.492457 124.208)scale(0.1 -0.1)">
     <use xlink:href="#DejaVuSans-31"/>
     <use xlink:href="#DejaVuSans-3d" x="63.623047"/>
     <use xlink:href="#DejaVuSans-30" x="147.412109"/>
     <use xlink:href="#DejaVuSans-2e" x="211.035156"/>
     <use xlink:href="#DejaVuSans-30" x="242.822266"/>
     <use xlink:href="#DejaVuSans-32" x="306.445312"/>
    </g>
   </g>
   <g id="text_16">
    <!--  -->
    <g transform="translate(182.050909 21.172375)scale(0.1 -0.1)"/>
    <!-- 0=0.70 -->
    <g transform="translate(163.547003 32.370188)scale(0.1 -0.1)">
     <defs>
      <path id="DejaVuSans-37" d="M 525 4666 
L 3525 4666 
L 3525 4397 
L 1831 0 
L 1172 0 
L 2766 4134 
L 525 4134 
L 525 4666 
z
" transform="scale(0.015625)"/>
     </defs>
     <use xlink:href="#DejaVuSans-30"/>
     <use xlink:href="#DejaVuSans-3d" x="63.623047"/>
     <use xlink:href="#DejaVuSans-30" x="147.412109"/>
     <use xlink:href="#DejaVuSans-2e" x="211.035156"/>
     <use xlink:href="#DejaVuSans-37" x="242.822266"/>
     <use xlink:href="#DejaVuSans-30" x="306.445312"/>
    </g>
    <!-- 1=0.01 -->
    <g transform="translate(163.547003 43.568)scale(0.1 -0.1)">
     <use xlink:href="#DejaVuSans-31"/>
     <use xlink:href="#DejaVuSans-3d" x="63.623047"/>
     <use xlink:href="#DejaVuSans-30" x="147.412109"/>
     <use xlink:href="#DejaVuSans-2e" x="211.035156"/>
     <use xlink:href="#DejaVuSans-30" x="242.822266"/>
     <use xlink:href="#DejaVuSans-31" x="306.445312"/>
    </g>
   </g>
   <g id="text_17">
    <!--  -->
    <g transform="translate(344.378182 182.452375)scale(0.1 -0.1)"/>
    <!-- 0=0.03 -->
    <g transform="translate(325.874276 193.650187)scale(0.1 -0.1)">
     <use xlink:href="#DejaVuSans-30"/>
     <use xlink:href="#DejaVuSans-3d" x="63.623047"/>
     <use xlink:href="#DejaVuSans-30" x="147.412109"/>
     <use xlink:href="#DejaVuSans-2e" x="211.035156"/>
     <use xlink:href="#DejaVuSans-30" x="242.822266"/>
     <use xlink:href="#DejaVuSans-33" x="306.445312"/>
    </g>
    <!-- 1=0.90 -->
    <g transform="translate(325.874276 204.848)scale(0.1 -0.1)">
     <use xlink:href="#DejaVuSans-31"/>
     <use xlink:href="#DejaVuSans-3d" x="63.623047"/>
     <use xlink:href="#DejaVuSans-30" x="147.412109"/>
     <use xlink:href="#DejaVuSans-2e" x="211.035156"/>
     <use xlink:href="#DejaVuSans-39" x="242.822266"/>
     <use xlink:href="#DejaVuSans-30" x="306.445312"/>
    </g>
   </g>
   <g id="text_18">
    <!--  -->
    <g transform="translate(317.323636 101.812375)scale(0.1 -0.1)"/>
    <!-- 0=0.02 -->
    <g transform="translate(298.81973 113.010188)scale(0.1 -0.1)">
     <use xlink:href="#DejaVuSans-30"/>
     <use xlink:href="#DejaVuSans-3d" x="63.623047"/>
     <use xlink:href="#DejaVuSans-30" x="147.412109"/>
     <use xlink:href="#DejaVuSans-2e" x="211.035156"/>
     <use xlink:href="#DejaVuSans-30" x="242.822266"/>
     <use xlink:href="#DejaVuSans-32" x="306.445312"/>
    </g>
    <!-- 1=0.80 -->
    <g transform="translate(298.81973 124.208)scale(0.1 -0.1)">
     <use xlink:href="#DejaVuSans-31"/>
     <use xlink:href="#DejaVuSans-3d" x="63.623047"/>
     <use xlink:href="#DejaVuSans-30" x="147.412109"/>
     <use xlink:href="#DejaVuSans-2e" x="211.035156"/>
     <use xlink:href="#DejaVuSans-38" x="242.822266"/>
     <use xlink:href="#DejaVuSans-30" x="306.445312"/>
    </g>
   </g>
   <g id="text_19">
    <!--  -->
    <g transform="translate(290.269091 21.172375)scale(0.1 -0.1)"/>
    <!-- 0=0.01 -->
    <g transform="translate(271.765185 32.370188)scale(0.1 -0.1)">
     <use xlink:href="#DejaVuSans-30"/>
     <use xlink:href="#DejaVuSans-3d" x="63.623047"/>
     <use xlink:href="#DejaVuSans-30" x="147.412109"/>
     <use xlink:href="#DejaVuSans-2e" x="211.035156"/>
     <use xlink:href="#DejaVuSans-30" x="242.822266"/>
     <use xlink:href="#DejaVuSans-31" x="306.445312"/>
    </g>
    <!-- 1=0.70 -->
    <g transform="translate(271.765185 43.568)scale(0.1 -0.1)">
     <use xlink:href="#DejaVuSans-31"/>
     <use xlink:href="#DejaVuSans-3d" x="63.623047"/>
     <use xlink:href="#DejaVuSans-30" x="147.412109"/>
     <use xlink:href="#DejaVuSans-2e" x="211.035156"/>
     <use xlink:href="#DejaVuSans-37" x="242.822266"/>
     <use xlink:href="#DejaVuSans-30" x="306.445312"/>
    </g>
   </g>
   <g id="text_20">
    <!-- 0 -->
    <g transform="translate(70.651477 285.488)scale(0.1 -0.1)">
     <use xlink:href="#DejaVuSans-30"/>
    </g>
   </g>
   <g id="text_21">
    <!-- 1 -->
    <g transform="translate(395.306023 285.488)scale(0.1 -0.1)">
     <use xlink:href="#DejaVuSans-31"/>
    </g>
   </g>
  </g>
 </g>
 <defs>
  <clipPath id="p3bc3b71180">
   <rect x="57.6" y="41.472" width="357.12" height="266.112"/>
  </clipPath>
 </defs>
</svg>
