<svg class="bob" font-family="arial" font-size="14" height="144" width="456" xmlns="http://www.w3.org/2000/svg">
<defs>
<marker id="triangle" markerHeight="8" markerWidth="8" orient="auto" refX="4" refY="2" viewBox="0 0 8 4">
<polygon class="fg_fill" points="0,0 0,4 8,2 0,0"/>
</marker>
<marker id="clear_triangle" markerHeight="10" markerWidth="10" orient="auto" refX="1" refY="7" viewBox="0 0 20 14">
<polygon class="bg_fill" points="2,2 2,12 18,7 2,2"/>
</marker>
<marker id="circle" markerHeight="5" markerWidth="5" orient="auto" refX="10" refY="10" viewBox="0 0 20 20">
<circle class="fg_fill" cx="10" cy="10" r="8"/>
</marker>
<marker id="square" markerHeight="5" markerWidth="5" orient="auto" refX="10" refY="10" viewBox="0 0 20 20">
<rect class="fg_fill" height="20" width="20" x="0" y="0"/>
</marker>
<marker id="open_circle" markerHeight="10" markerWidth="10" orient="auto" refX="10" refY="10" viewBox="0 0 20 20">
<circle class="bg_fill" cx="10" cy="10" r="4"/>
</marker>
<marker id="big_open_circle" markerHeight="20" markerWidth="20" orient="auto" refX="20" refY="20" viewBox="0 0 40 40">
<circle class="bg_fill" cx="20" cy="20" r="6"/>
</marker>
</defs>
<style type="text/css">

rect.backdrop {
    fill: white;
}
text{
    fill: black;
}

circle {
    fill: none;
    stroke: black;
    stroke-width: 2;
}

line {
    stroke: black;
    stroke-width: 2;
    stroke-opacity: 1;
    fill-opacity: 1;
    stroke-linecap: round;
    stroke-linejoin: miter;
}

path {
    fill: none;
    stroke: black;
    stroke-width: 2;
    stroke-opacity: 1;
    fill-opacity: 1;
    stroke-linecap: round;
    stroke-linejoin: miter;
}

line.dashed {
    stroke-dasharray: 5;
}

.fg_fill {
    fill: black;
}


.bg_fill {
    fill: white;
    stroke: black;
    stroke-width: 2;
}

tspan.head{
    fill: none;
    stroke: none;
}
    
</style>
<rect class="backdrop" height="144" width="456" x="0" y="0"/>
<g>
<line x1="4" x2="4" y1="108" y2="132"/>
<path d="M 4 132 A 4 4 0 0 0 8 136"/>
<path d="M 8 104 A 4 4 0 0 0 4 108"/>
</g>
<g>
<line x1="8" x2="52" y1="104" y2="104"/>
<line x1="52" x2="52" y1="76" y2="104"/>
<line x1="52" x2="88" y1="104" y2="104"/>
<path d="M 56 72 A 4 4 0 0 0 52 76"/>
<path d="M 92 108 A 4 4 0 0 0 88 104"/>
</g>
<g>
<line x1="8" x2="88" y1="136" y2="136"/>
<path d="M 88 136 A 4 4 0 0 0 92 132"/>
</g>
<g>
<line x1="56" x2="176" y1="72" y2="72"/>
<path d="M 176 72 A 4 4 0 0 0 180 68"/>
</g>
<g>
<line x1="92" x2="92" y1="108" y2="120"/>
<line x1="92" x2="92" y1="120" y2="132"/>
<line x1="92" x2="172" y1="120" y2="120"/>
<line x1="172" x2="172" y1="108" y2="120"/>
<line x1="172" x2="172" y1="120" y2="132"/>
<path d="M 172 132 A 4 4 0 0 0 176 136"/>
<path d="M 176 104 A 4 4 0 0 0 172 108"/>
</g>
<g>
<line x1="164" x2="164" y1="12" y2="36"/>
<path d="M 164 36 A 4 4 0 0 0 168 40"/>
<path d="M 168 8 A 4 4 0 0 0 164 12"/>
</g>
<g>
<line x1="168" x2="264" y1="8" y2="8"/>
<path d="M 268 12 A 4 4 0 0 0 264 8"/>
</g>
<g>
<line x1="168" x2="180" y1="40" y2="40"/>
<line x1="180" x2="180" y1="40" y2="68"/>
<line x1="180" x2="220" y1="40" y2="40"/>
<line x1="220" x2="220" y1="40" y2="32"/>
<line x1="220" x2="220" y1="40" y2="104"/>
<line x1="220" x2="252" y1="40" y2="40"/>
<line x1="220" x2="264" y1="104" y2="104"/>
<line x1="252" x2="252" y1="40" y2="68"/>
<line x1="252" x2="264" y1="40" y2="40"/>
<path d="M 252 68 A 4 4 0 0 0 256 72"/>
<path d="M 264 40 A 4 4 0 0 0 268 36"/>
<path d="M 268 108 A 4 4 0 0 0 264 104"/>
</g>
<g>
<line x1="176" x2="220" y1="104" y2="104"/>
</g>
<g>
<line x1="176" x2="264" y1="136" y2="136"/>
<path d="M 264 136 A 4 4 0 0 0 268 132"/>
</g>
<g>
<line x1="256" x2="408" y1="72" y2="72"/>
<path d="M 412 76 A 4 4 0 0 0 408 72"/>
</g>
<g>
<line x1="268" x2="268" y1="12" y2="36"/>
</g>
<g>
<line x1="268" x2="268" y1="108" y2="132"/>
</g>
<g>
<line x1="364" x2="364" y1="108" y2="132"/>
<path d="M 364 132 A 4 4 0 0 0 368 136"/>
<path d="M 368 104 A 4 4 0 0 0 364 108"/>
</g>
<g>
<line x1="368" x2="412" y1="104" y2="104"/>
<line x1="412" x2="412" y1="76" y2="104"/>
<line x1="412" x2="448" y1="104" y2="104"/>
<path d="M 452 108 A 4 4 0 0 0 448 104"/>
</g>
<g>
<line x1="368" x2="448" y1="136" y2="136"/>
<path d="M 448 136 A 4 4 0 0 0 452 132"/>
</g>
<g>
<line x1="452" x2="452" y1="108" y2="132"/>
</g>
<g>
<text x="17" y="124">
IAM
</text>
</g>
<g>
<text x="41" y="92">
*
</text>
</g>
<g>
<text x="49" y="124">
User
</text>
</g>
<g>
<text x="105" y="140">
*
</text>
</g>
<g>
<text x="153" y="140">
*
</text>
</g>
<g>
<text x="169" y="60">
*
</text>
</g>
<g>
<text x="177" y="28">
IAM
</text>
</g>
<g>
<text x="185" y="124">
IAM
</text>
</g>
<g>
<text x="209" y="28">
Policy
</text>
</g>
<g>
<text x="209" y="60">
*
</text>
</g>
<g>
<text x="209" y="92">
*
</text>
</g>
<g>
<text x="217" y="124">
Group
</text>
</g>
<g>
<text x="241" y="60">
*
</text>
</g>
<g>
<text x="377" y="124">
IAM
</text>
</g>
<g>
<text x="401" y="92">
*
</text>
</g>
<g>
<text x="409" y="124">
Role
</text>
</g>
</svg>
