<?xml version="1.0" encoding="UTF-8" standalone="no"?>
<!DOCTYPE svg PUBLIC "-//W3C//DTD SVG 1.1//EN"
 "http://www.w3.org/Graphics/SVG/1.1/DTD/svg11.dtd">
<!-- Generated by graphviz version 2.40.1 (0)
 -->
<!-- Title: G Pages: 1 -->
<svg width="317pt" height="117pt"
 viewBox="0.00 0.00 317.00 117.00" xmlns="http://www.w3.org/2000/svg" xmlns:xlink="http://www.w3.org/1999/xlink">
<g id="graph0" class="graph" transform="scale(1 1) rotate(0) translate(4 113)">
<title>G</title>
<polygon fill="#ffffff" stroke="transparent" points="-4,4 -4,-113 313,-113 313,4 -4,4"/>
<!-- N1 -->
<g id="node1" class="node">
<title>N1</title>
<ellipse fill="none" stroke="#000000" cx="198.5" cy="-37.5" rx="14.5" ry="14.5"/>
<text text-anchor="middle" x="198.5" y="-35" font-family="Courier,monospace" font-weight="bold" font-size="10.00" fill="#000000">N1</text>
</g>
<!-- v0 -->
<g id="node3" class="node">
<title>v0</title>
<ellipse fill="none" stroke="#000000" cx="294.5" cy="-61.5" rx="14.5" ry="14.5"/>
<text text-anchor="middle" x="294.5" y="-59" font-family="Courier,monospace" font-weight="bold" font-size="10.00" fill="#000000">v0</text>
</g>
<!-- N1&#45;&#45;v0 -->
<g id="edge2" class="edge">
<title>N1&#45;&#45;v0</title>
<path fill="none" stroke="#000000" d="M212.6651,-41.0413C230.8155,-45.5789 262.0984,-53.3996 280.2768,-57.9442"/>
<text text-anchor="middle" x="246.5" y="-56.5" font-family="Courier,monospace" font-weight="bold" font-size="10.00" fill="#000000">11.0</text>
</g>
<!-- v1 -->
<g id="node4" class="node">
<title>v1</title>
<ellipse fill="none" stroke="#000000" cx="294.5" cy="-14.5" rx="14.5" ry="14.5"/>
<text text-anchor="middle" x="294.5" y="-12" font-family="Courier,monospace" font-weight="bold" font-size="10.00" fill="#000000">v1</text>
</g>
<!-- N1&#45;&#45;v1 -->
<g id="edge6" class="edge">
<title>N1&#45;&#45;v1</title>
<path fill="none" stroke="#000000" d="M212.6949,-33.3929C218.37,-31.797 224.9772,-29.9967 231,-28.5 247.6529,-24.3616 266.9167,-20.202 279.8202,-17.5053"/>
<text text-anchor="middle" x="246.5" y="-31.5" font-family="Courier,monospace" font-weight="bold" font-size="10.00" fill="#000000">2.0</text>
</g>
<!-- N2 -->
<g id="node2" class="node">
<title>N2</title>
<ellipse fill="none" stroke="#000000" cx="102.5" cy="-83.5" rx="14.5" ry="14.5"/>
<text text-anchor="middle" x="102.5" y="-81" font-family="Courier,monospace" font-weight="bold" font-size="10.00" fill="#000000">N2</text>
</g>
<!-- N2&#45;&#45;N1 -->
<g id="edge4" class="edge">
<title>N2&#45;&#45;N1</title>
<path fill="none" stroke="#000000" d="M115.8484,-77.1039C134.1895,-68.3155 166.9837,-52.6016 185.265,-43.8418"/>
<text text-anchor="middle" x="150.5" y="-70.5" font-family="Courier,monospace" font-weight="bold" font-size="10.00" fill="#000000">4.0</text>
</g>
<!-- v3 -->
<g id="node6" class="node">
<title>v3</title>
<ellipse fill="none" stroke="#000000" cx="198.5" cy="-94.5" rx="14.5" ry="14.5"/>
<text text-anchor="middle" x="198.5" y="-92" font-family="Courier,monospace" font-weight="bold" font-size="10.00" fill="#000000">v3</text>
</g>
<!-- N2&#45;&#45;v3 -->
<g id="edge5" class="edge">
<title>N2&#45;&#45;v3</title>
<path fill="none" stroke="#000000" d="M117.0803,-85.1707C135.124,-87.2382 165.6756,-90.7389 183.7825,-92.8136"/>
<text text-anchor="middle" x="150.5" y="-93.5" font-family="Courier,monospace" font-weight="bold" font-size="10.00" fill="#000000">6.0</text>
</g>
<!-- v2 -->
<g id="node5" class="node">
<title>v2</title>
<ellipse fill="none" stroke="#000000" cx="102.5" cy="-26.5" rx="14.5" ry="14.5"/>
<text text-anchor="middle" x="102.5" y="-24" font-family="Courier,monospace" font-weight="bold" font-size="10.00" fill="#000000">v2</text>
</g>
<!-- v2&#45;&#45;N1 -->
<g id="edge1" class="edge">
<title>v2&#45;&#45;N1</title>
<path fill="none" stroke="#000000" d="M116.975,-25.5735C129.911,-25.0187 149.3385,-24.8603 166,-27.5 172.2972,-28.4976 179.0654,-30.4333 184.7865,-32.338"/>
<text text-anchor="middle" x="150.5" y="-30.5" font-family="Courier,monospace" font-weight="bold" font-size="10.00" fill="#000000">10.0</text>
</g>
<!-- v5 -->
<g id="node7" class="node">
<title>v5</title>
<ellipse fill="none" stroke="#000000" cx="14.5" cy="-83.5" rx="14.5" ry="14.5"/>
<text text-anchor="middle" x="14.5" y="-81" font-family="Courier,monospace" font-weight="bold" font-size="10.00" fill="#000000">v5</text>
</g>
<!-- v5&#45;&#45;N2 -->
<g id="edge3" class="edge">
<title>v5&#45;&#45;N2</title>
<path fill="none" stroke="#000000" d="M29.0314,-83.5C45.3364,-83.5 71.6332,-83.5 87.947,-83.5"/>
<text text-anchor="middle" x="58.5" y="-86.5" font-family="Courier,monospace" font-weight="bold" font-size="10.00" fill="#000000">7.0</text>
</g>
</g>
</svg>
