<svg class="bob" font-family="arial" font-size="14" height="640" width="256" xmlns="http://www.w3.org/2000/svg">
<defs>
<marker id="triangle" markerHeight="8" markerWidth="8" orient="auto" refX="4" refY="2" viewBox="0 0 8 4">
<polygon class="fg_fill" points="0,0 0,4 8,2 0,0"/>
</marker>
<marker id="clear_triangle" markerHeight="10" markerWidth="10" orient="auto" refX="1" refY="7" viewBox="0 0 20 14">
<polygon class="bg_fill" points="2,2 2,12 18,7 2,2"/>
</marker>
<marker id="circle" markerHeight="5" markerWidth="5" orient="auto" refX="10" refY="10" viewBox="0 0 20 20">
<circle class="fg_fill" cx="10" cy="10" r="8"/>
</marker>
<marker id="square" markerHeight="5" markerWidth="5" orient="auto" refX="10" refY="10" viewBox="0 0 20 20">
<rect class="fg_fill" height="20" width="20" x="0" y="0"/>
</marker>
<marker id="open_circle" markerHeight="10" markerWidth="10" orient="auto" refX="10" refY="10" viewBox="0 0 20 20">
<circle class="bg_fill" cx="10" cy="10" r="4"/>
</marker>
<marker id="big_open_circle" markerHeight="20" markerWidth="20" orient="auto" refX="20" refY="20" viewBox="0 0 40 40">
<circle class="bg_fill" cx="20" cy="20" r="6"/>
</marker>
</defs>
<style type="text/css">

rect.backdrop {
    fill: white;
}
text{
    fill: black;
}

circle {
    fill: none;
    stroke: black;
    stroke-width: 2;
}

line {
    stroke: black;
    stroke-width: 2;
    stroke-opacity: 1;
    fill-opacity: 1;
    stroke-linecap: round;
    stroke-linejoin: miter;
}

path {
    fill: none;
    stroke: black;
    stroke-width: 2;
    stroke-opacity: 1;
    fill-opacity: 1;
    stroke-linecap: round;
    stroke-linejoin: miter;
}

line.dashed {
    stroke-dasharray: 5;
}

.fg_fill {
    fill: black;
}


.bg_fill {
    fill: white;
    stroke: black;
    stroke-width: 2;
}

tspan.head{
    fill: none;
    stroke: none;
}
    
</style>
<rect class="backdrop" height="640" width="256" x="0" y="0"/>
<g>
<line marker-end="url(#triangle)" x1="52" x2="52" y1="528" y2="540"/>
<line class="dashed" x1="52" x2="52" y1="448" y2="528"/>
<line marker-start="url(#open_circle)" x1="52" x2="52" y1="440" y2="448"/>
<line marker-end="url(#triangle)" marker-start="url(#open_circle)" x1="52" x2="76" y1="440" y2="440"/>
</g>
<g>
<line marker-end="url(#triangle)" x1="84" x2="84" y1="528" y2="540"/>
<line class="dashed" x1="84" x2="84" y1="448" y2="528"/>
<line marker-start="url(#open_circle)" x1="84" x2="84" y1="440" y2="448"/>
<line marker-end="url(#triangle)" marker-start="url(#open_circle)" x1="84" x2="108" y1="440" y2="440"/>
</g>
<g>
<line marker-end="url(#triangle)" x1="116" x2="116" y1="528" y2="540"/>
<line class="dashed" x1="116" x2="116" y1="448" y2="528"/>
<line marker-start="url(#open_circle)" x1="116" x2="116" y1="440" y2="448"/>
<line marker-end="url(#triangle)" marker-start="url(#open_circle)" x1="116" x2="140" y1="440" y2="440"/>
</g>
<g>
<line marker-end="url(#triangle)" x1="148" x2="148" y1="528" y2="540"/>
<line class="dashed" x1="148" x2="148" y1="448" y2="528"/>
<line marker-start="url(#open_circle)" x1="148" x2="148" y1="440" y2="448"/>
<line marker-start="url(#open_circle)" x1="148" x2="152" y1="440" y2="440"/>
</g>
<g>
<line marker-end="url(#triangle)" x1="212" x2="212" y1="528" y2="540"/>
<line class="dashed" x1="212" x2="212" y1="448" y2="528"/>
<line marker-start="url(#open_circle)" x1="212" x2="212" y1="440" y2="448"/>
<line marker-end="url(#triangle)" marker-start="url(#open_circle)" x1="212" x2="236" y1="440" y2="440"/>
</g>
<g>
<line marker-end="url(#triangle)" x1="244" x2="244" y1="528" y2="540"/>
<line class="dashed" x1="244" x2="244" y1="448" y2="528"/>
<line marker-start="url(#open_circle)" x1="244" x2="244" y1="440" y2="448"/>
</g>
<g>
<line class="dashed" x1="152" x2="208" y1="120" y2="120"/>
<line marker-start="url(#open_circle)" x1="148" x2="152" y1="120" y2="120"/>
<line marker-start="url(#open_circle)" x1="212" x2="208" y1="120" y2="120"/>
<line marker-end="url(#triangle)" marker-start="url(#open_circle)" x1="212" x2="212" y1="120" y2="188"/>
<line marker-end="url(#triangle)" marker-start="url(#open_circle)" x1="212" x2="236" y1="120" y2="120"/>
</g>
<g>
<line class="dashed" x1="152" x2="208" y1="200" y2="200"/>
<line marker-start="url(#open_circle)" x1="148" x2="152" y1="200" y2="200"/>
<line marker-start="url(#open_circle)" x1="212" x2="208" y1="200" y2="200"/>
<line marker-end="url(#triangle)" marker-start="url(#open_circle)" x1="212" x2="212" y1="200" y2="268"/>
<line marker-end="url(#triangle)" marker-start="url(#open_circle)" x1="212" x2="236" y1="200" y2="200"/>
</g>
<g>
<line class="dashed" x1="152" x2="208" y1="280" y2="280"/>
<line marker-start="url(#open_circle)" x1="148" x2="152" y1="280" y2="280"/>
<line marker-start="url(#open_circle)" x1="212" x2="208" y1="280" y2="280"/>
<line marker-end="url(#triangle)" marker-start="url(#open_circle)" x1="212" x2="212" y1="280" y2="348"/>
<line marker-end="url(#triangle)" marker-start="url(#open_circle)" x1="212" x2="236" y1="280" y2="280"/>
</g>
<g>
<line class="dashed" x1="152" x2="208" y1="360" y2="360"/>
<line marker-start="url(#open_circle)" x1="148" x2="152" y1="360" y2="360"/>
<line marker-start="url(#open_circle)" x1="212" x2="208" y1="360" y2="360"/>
<line marker-end="url(#triangle)" marker-start="url(#open_circle)" x1="212" x2="212" y1="360" y2="428"/>
<line marker-end="url(#triangle)" marker-start="url(#open_circle)" x1="212" x2="236" y1="360" y2="360"/>
</g>
<g>
<line class="dashed" x1="152" x2="208" y1="440" y2="440"/>
<line marker-start="url(#open_circle)" x1="212" x2="208" y1="440" y2="440"/>
</g>
<g>
<line class="dashed" x1="152" x2="208" y1="552" y2="552"/>
<line marker-start="url(#open_circle)" x1="148" x2="152" y1="552" y2="552"/>
<line marker-start="url(#open_circle)" x1="212" x2="208" y1="552" y2="552"/>
<line marker-end="url(#triangle)" marker-start="url(#open_circle)" x1="212" x2="212" y1="552" y2="620"/>
<line marker-end="url(#triangle)" marker-start="url(#open_circle)" x1="212" x2="236" y1="552" y2="552"/>
</g>
<g>
<line class="dashed" x1="152" x2="208" y1="632" y2="632"/>
<line marker-start="url(#open_circle)" x1="148" x2="152" y1="632" y2="632"/>
<line marker-start="url(#open_circle)" x1="212" x2="208" y1="632" y2="632"/>
<line marker-end="url(#triangle)" marker-start="url(#open_circle)" x1="212" x2="236" y1="632" y2="632"/>
</g>
<g>
<text x="1" y="124">
59
</text>
</g>
<g>
<text x="1" y="204">
57
</text>
</g>
<g>
<text x="1" y="284">
55
</text>
</g>
<g>
<text x="1" y="364">
53
</text>
</g>
<g>
<text x="1" y="444">
51
</text>
</g>
<g>
<text x="1" y="556">
43
</text>
</g>
<g>
<text x="1" y="636">
42
</text>
</g>
<g>
<text x="25" y="124">
St
</text>
</g>
<g>
<text x="25" y="204">
St
</text>
</g>
<g>
<text x="25" y="284">
St
</text>
</g>
<g>
<text x="25" y="364">
St
</text>
</g>
<g>
<text x="25" y="444">
St
</text>
</g>
<g>
<text x="25" y="556">
St
</text>
</g>
<g>
<text x="25" y="636">
St
</text>
</g>
<g>
<text x="49" y="44">
8
</text>
</g>
<g>
<text x="49" y="76">
A
</text>
</g>
<g>
<text x="49" y="92">
v
</text>
</g>
<g>
<text x="49" y="108">
e
</text>
</g>
<g>
<text x="65" y="572">
T
</text>
</g>
<g>
<text x="81" y="44">
7
</text>
</g>
<g>
<text x="81" y="76">
A
</text>
</g>
<g>
<text x="81" y="92">
v
</text>
</g>
<g>
<text x="81" y="108">
e
</text>
</g>
<g>
<text x="97" y="220">
T
</text>
</g>
<g>
<text x="105" y="316">
T
</text>
</g>
<g>
<text x="113" y="44">
6
</text>
</g>
<g>
<text x="113" y="76">
A
</text>
</g>
<g>
<text x="113" y="92">
v
</text>
</g>
<g>
<text x="113" y="108">
e
</text>
</g>
<g>
<text x="129" y="620">
T
</text>
</g>
<g>
<text x="145" y="44">
5
</text>
</g>
<g>
<text x="145" y="76">
A
</text>
</g>
<g>
<text x="145" y="92">
v
</text>
</g>
<g>
<text x="145" y="108">
e
</text>
</g>
<g>
<text x="209" y="12">
L
</text>
</g>
<g>
<text x="209" y="28">
e
</text>
</g>
<g>
<text x="209" y="44">
x
</text>
</g>
<g>
<text x="209" y="76">
A
</text>
</g>
<g>
<text x="209" y="92">
v
</text>
</g>
<g>
<text x="209" y="108">
e
</text>
</g>
<g>
<text x="241" y="44">
3
</text>
</g>
<g>
<text x="241" y="76">
A
</text>
</g>
<g>
<text x="241" y="92">
v
</text>
</g>
<g>
<text x="241" y="108">
e
</text>
</g>
<g>
<line marker-end="url(#triangle)" marker-start="url(#open_circle)" x1="52" x2="52" y1="120" y2="188"/>
<line marker-end="url(#triangle)" marker-start="url(#open_circle)" x1="52" x2="76" y1="120" y2="120"/>
</g>
<g>
<line marker-end="url(#triangle)" marker-start="url(#open_circle)" x1="52" x2="52" y1="200" y2="268"/>
<line marker-end="url(#triangle)" marker-start="url(#open_circle)" x1="52" x2="76" y1="200" y2="200"/>
</g>
<g>
<line marker-end="url(#triangle)" marker-start="url(#open_circle)" x1="52" x2="52" y1="280" y2="348"/>
<line marker-end="url(#triangle)" marker-start="url(#open_circle)" x1="52" x2="76" y1="280" y2="280"/>
</g>
<g>
<line marker-end="url(#triangle)" marker-start="url(#open_circle)" x1="52" x2="52" y1="360" y2="428"/>
<line marker-end="url(#triangle)" marker-start="url(#open_circle)" x1="52" x2="76" y1="360" y2="360"/>
</g>
<g>
<line marker-end="url(#triangle)" marker-start="url(#open_circle)" x1="52" x2="52" y1="552" y2="620"/>
<line marker-end="url(#triangle)" marker-start="url(#open_circle)" x1="52" x2="76" y1="552" y2="552"/>
</g>
<g>
<line marker-end="url(#triangle)" marker-start="url(#open_circle)" x1="52" x2="76" y1="632" y2="632"/>
</g>
<g>
<line marker-start="url(#open_circle)" x1="84" x2="80" y1="120" y2="120"/>
<line marker-end="url(#triangle)" marker-start="url(#open_circle)" x1="84" x2="84" y1="120" y2="188"/>
<line marker-end="url(#triangle)" marker-start="url(#open_circle)" x1="84" x2="108" y1="120" y2="120"/>
</g>
<g>
<line marker-start="url(#open_circle)" x1="84" x2="80" y1="200" y2="200"/>
<line marker-end="url(#triangle)" marker-start="url(#open_circle)" x1="84" x2="84" y1="200" y2="268"/>
<line marker-end="url(#triangle)" marker-start="url(#open_circle)" x1="84" x2="108" y1="200" y2="200"/>
</g>
<g>
<line marker-start="url(#open_circle)" x1="84" x2="80" y1="280" y2="280"/>
<line marker-end="url(#triangle)" marker-start="url(#open_circle)" x1="84" x2="84" y1="280" y2="348"/>
<line marker-end="url(#triangle)" marker-start="url(#open_circle)" x1="84" x2="108" y1="280" y2="280"/>
</g>
<g>
<line marker-start="url(#open_circle)" x1="84" x2="80" y1="360" y2="360"/>
<line marker-end="url(#triangle)" marker-start="url(#open_circle)" x1="84" x2="84" y1="360" y2="428"/>
<line marker-end="url(#triangle)" marker-start="url(#open_circle)" x1="84" x2="108" y1="360" y2="360"/>
</g>
<g>
<line marker-start="url(#open_circle)" x1="84" x2="80" y1="440" y2="440"/>
</g>
<g>
<line marker-start="url(#open_circle)" x1="84" x2="80" y1="552" y2="552"/>
<line marker-end="url(#triangle)" marker-start="url(#open_circle)" x1="84" x2="84" y1="552" y2="620"/>
<line marker-end="url(#triangle)" marker-start="url(#open_circle)" x1="84" x2="108" y1="552" y2="552"/>
</g>
<g>
<line marker-start="url(#open_circle)" x1="84" x2="80" y1="632" y2="632"/>
<line marker-end="url(#triangle)" marker-start="url(#open_circle)" x1="84" x2="108" y1="632" y2="632"/>
</g>
<g>
<line marker-start="url(#open_circle)" x1="116" x2="112" y1="120" y2="120"/>
<line marker-end="url(#triangle)" marker-start="url(#open_circle)" x1="116" x2="116" y1="120" y2="188"/>
<line marker-end="url(#triangle)" marker-start="url(#open_circle)" x1="116" x2="140" y1="120" y2="120"/>
</g>
<g>
<line marker-start="url(#open_circle)" x1="116" x2="112" y1="200" y2="200"/>
<line marker-end="url(#triangle)" marker-start="url(#open_circle)" x1="116" x2="116" y1="200" y2="268"/>
<line marker-end="url(#triangle)" marker-start="url(#open_circle)" x1="116" x2="140" y1="200" y2="200"/>
</g>
<g>
<line marker-start="url(#open_circle)" x1="116" x2="112" y1="280" y2="280"/>
<line marker-end="url(#triangle)" marker-start="url(#open_circle)" x1="116" x2="116" y1="280" y2="348"/>
<line marker-end="url(#triangle)" marker-start="url(#open_circle)" x1="116" x2="140" y1="280" y2="280"/>
</g>
<g>
<line marker-start="url(#open_circle)" x1="116" x2="112" y1="360" y2="360"/>
<line marker-end="url(#triangle)" marker-start="url(#open_circle)" x1="116" x2="116" y1="360" y2="428"/>
<line marker-end="url(#triangle)" marker-start="url(#open_circle)" x1="116" x2="140" y1="360" y2="360"/>
</g>
<g>
<line marker-start="url(#open_circle)" x1="116" x2="112" y1="440" y2="440"/>
</g>
<g>
<line marker-start="url(#open_circle)" x1="116" x2="112" y1="552" y2="552"/>
<line marker-end="url(#triangle)" marker-start="url(#open_circle)" x1="116" x2="116" y1="552" y2="620"/>
<line marker-end="url(#triangle)" marker-start="url(#open_circle)" x1="116" x2="140" y1="552" y2="552"/>
</g>
<g>
<line marker-start="url(#open_circle)" x1="116" x2="112" y1="632" y2="632"/>
<line marker-end="url(#triangle)" marker-start="url(#open_circle)" x1="116" x2="140" y1="632" y2="632"/>
</g>
<g>
<line marker-start="url(#open_circle)" x1="148" x2="144" y1="120" y2="120"/>
<line marker-end="url(#triangle)" marker-start="url(#open_circle)" x1="148" x2="148" y1="120" y2="188"/>
</g>
<g>
<line marker-start="url(#open_circle)" x1="148" x2="144" y1="200" y2="200"/>
<line marker-end="url(#triangle)" marker-start="url(#open_circle)" x1="148" x2="148" y1="200" y2="268"/>
</g>
<g>
<line marker-start="url(#open_circle)" x1="148" x2="144" y1="280" y2="280"/>
<line marker-end="url(#triangle)" marker-start="url(#open_circle)" x1="148" x2="148" y1="280" y2="348"/>
</g>
<g>
<line marker-start="url(#open_circle)" x1="148" x2="144" y1="360" y2="360"/>
<line marker-end="url(#triangle)" marker-start="url(#open_circle)" x1="148" x2="148" y1="360" y2="428"/>
</g>
<g>
<line marker-start="url(#open_circle)" x1="148" x2="144" y1="440" y2="440"/>
</g>
<g>
<line marker-start="url(#open_circle)" x1="148" x2="144" y1="552" y2="552"/>
<line marker-end="url(#triangle)" marker-start="url(#open_circle)" x1="148" x2="148" y1="552" y2="620"/>
</g>
<g>
<line marker-start="url(#open_circle)" x1="148" x2="144" y1="632" y2="632"/>
</g>
<g>
<line marker-start="url(#open_circle)" x1="244" x2="240" y1="120" y2="120"/>
<line marker-end="url(#triangle)" marker-start="url(#open_circle)" x1="244" x2="244" y1="120" y2="188"/>
</g>
<g>
<line marker-start="url(#open_circle)" x1="244" x2="240" y1="200" y2="200"/>
<line marker-end="url(#triangle)" marker-start="url(#open_circle)" x1="244" x2="244" y1="200" y2="268"/>
</g>
<g>
<line marker-start="url(#open_circle)" x1="244" x2="240" y1="280" y2="280"/>
<line marker-end="url(#triangle)" marker-start="url(#open_circle)" x1="244" x2="244" y1="280" y2="348"/>
</g>
<g>
<line marker-start="url(#open_circle)" x1="244" x2="240" y1="360" y2="360"/>
<line marker-end="url(#triangle)" marker-start="url(#open_circle)" x1="244" x2="244" y1="360" y2="428"/>
</g>
<g>
<line marker-start="url(#open_circle)" x1="244" x2="240" y1="440" y2="440"/>
</g>
<g>
<line marker-start="url(#open_circle)" x1="244" x2="240" y1="552" y2="552"/>
<line marker-end="url(#triangle)" marker-start="url(#open_circle)" x1="244" x2="244" y1="552" y2="620"/>
</g>
<g>
<line marker-start="url(#open_circle)" x1="244" x2="240" y1="632" y2="632"/>
</g>
</svg>
