<?xml version="1.0" encoding="UTF-8" standalone="no"?>
<!DOCTYPE svg PUBLIC "-//W3C//DTD SVG 1.1//EN"
 "http://www.w3.org/Graphics/SVG/1.1/DTD/svg11.dtd">
<!-- Generated by graphviz version 2.40.1 (0)
 -->
<!-- Title: G Pages: 1 -->
<svg width="406pt" height="365pt"
 viewBox="0.00 0.00 406.00 365.38" xmlns="http://www.w3.org/2000/svg" xmlns:xlink="http://www.w3.org/1999/xlink">
<g id="graph0" class="graph" transform="scale(1 1) rotate(0) translate(4 361.3803)">
<title>G</title>
<polygon fill="#ffffff" stroke="transparent" points="-4,4 -4,-361.3803 402,-361.3803 402,4 -4,4"/>
<!-- _A_h_ -->
<g id="node1" class="node">
<title>_A_h_</title>
<text text-anchor="middle" x="379" y="-174.9902" font-family="Times,serif" font-size="14.00" fill="#000000">_A_h_</text>
</g>
<!-- _A_t_ -->
<g id="node2" class="node">
<title>_A_t_</title>
<text text-anchor="middle" x="344.6231" y="-69.1888" font-family="Times,serif" font-size="14.00" fill="#000000">_A_t_</text>
</g>
<!-- _A_h_&#45;&#45;_A_t_ -->
<g id="edge1" class="edge">
<title>_A_h_&#45;&#45;_A_t_</title>
<path fill="none" stroke="#000000" stroke-dasharray="5,2" d="M376.5277,-171.0812C371.0521,-154.229 357.7878,-113.4057 350.1983,-90.0478"/>
<polygon fill="#000000" stroke="#000000" points="353.4919,-88.8578 347.073,-80.4288 346.8345,-91.021 353.4919,-88.8578"/>
</g>
<!-- _D_h_ -->
<g id="node6" class="node">
<title>_D_h_</title>
<text text-anchor="middle" x="19" y="-174.9902" font-family="Times,serif" font-size="14.00" fill="#000000">_D_h_</text>
</g>
<!-- _A_h_&#45;&#45;_D_h_ -->
<g id="edge6" class="edge">
<title>_A_h_&#45;&#45;_D_h_</title>
<path fill="none" stroke="#0000ff" d="M359.899,-175.4462C297.5388,-170.7703 100.3489,-170.7715 38.055,-175.4497"/>
</g>
<!-- _A_h_&#45;&#45;_D_h_ -->
<g id="edge11" class="edge">
<title>_A_h_&#45;&#45;_D_h_</title>
<path fill="none" stroke="#ff0000" d="M359.899,-181.9341C297.5388,-186.61 100.3489,-186.6088 38.055,-181.9307"/>
</g>
<!-- _B_h_ -->
<g id="node3" class="node">
<title>_B_h_</title>
<text text-anchor="middle" x="254.6231" y="-3.8" font-family="Times,serif" font-size="14.00" fill="#000000">_B_h_</text>
</g>
<!-- _A_t_&#45;&#45;_B_h_ -->
<g id="edge8" class="edge">
<title>_A_t_&#45;&#45;_B_h_</title>
<path fill="none" stroke="#0000ff" d="M340.327,-65.1905C328.3203,-52.2203 295.0851,-27.4181 273.6371,-14.771"/>
</g>
<!-- _A_t_&#45;&#45;_B_h_ -->
<g id="edge13" class="edge">
<title>_A_t_&#45;&#45;_B_h_</title>
<path fill="none" stroke="#ff0000" d="M325.4083,-65.4992C304.0085,-52.8485 271.0558,-28.253 259.0104,-15.2968"/>
</g>
<!-- _B_t_ -->
<g id="node4" class="node">
<title>_B_t_</title>
<text text-anchor="middle" x="143.3769" y="-3.8" font-family="Times,serif" font-size="14.00" fill="#000000">_B_t_</text>
</g>
<!-- _B_h_&#45;&#45;_B_t_ -->
<g id="edge2" class="edge">
<title>_B_h_&#45;&#45;_B_t_</title>
<path fill="none" stroke="#000000" stroke-dasharray="5,2" d="M235.4992,-7.5C218.2271,-7.5 192.5484,-7.5 172.6864,-7.5"/>
<polygon fill="#000000" stroke="#000000" points="172.6236,-4.0001 162.6236,-7.5 172.6235,-11.0001 172.6236,-4.0001"/>
</g>
<!-- _D_t_ -->
<g id="node5" class="node">
<title>_D_t_</title>
<text text-anchor="middle" x="53.3769" y="-69.1888" font-family="Times,serif" font-size="14.00" fill="#000000">_D_t_</text>
</g>
<!-- _B_t_&#45;&#45;_D_t_ -->
<g id="edge9" class="edge">
<title>_B_t_&#45;&#45;_D_t_</title>
<path fill="none" stroke="#0000ff" d="M124.1622,-14.8896C102.7624,-27.5404 69.8097,-52.1358 57.7643,-65.092"/>
</g>
<!-- _B_t_&#45;&#45;_D_t_ -->
<g id="edge14" class="edge">
<title>_B_t_&#45;&#45;_D_t_</title>
<path fill="none" stroke="#ff0000" d="M139.0809,-15.1983C127.0742,-28.1685 93.8389,-52.9708 72.3909,-65.6178"/>
</g>
<!-- _D_t_&#45;&#45;_D_h_ -->
<g id="edge3" class="edge">
<title>_D_t_&#45;&#45;_D_h_</title>
<path fill="none" stroke="#000000" stroke-dasharray="5,2" d="M47.7705,-90.1436C40.1656,-113.5492 26.9042,-154.3635 21.4499,-171.1501"/>
<polygon fill="#000000" stroke="#000000" points="51.1431,-91.0899 50.9046,-80.4978 44.4857,-88.9268 51.1431,-91.0899"/>
</g>
<!-- _C_h_ -->
<g id="node7" class="node">
<title>_C_h_</title>
<text text-anchor="middle" x="53.3769" y="-280.7915" font-family="Times,serif" font-size="14.00" fill="#000000">_C_h_</text>
</g>
<!-- _C_t_ -->
<g id="node8" class="node">
<title>_C_t_</title>
<text text-anchor="middle" x="143.3769" y="-346.1803" font-family="Times,serif" font-size="14.00" fill="#000000">_C_t_</text>
</g>
<!-- _C_h_&#45;&#45;_C_t_ -->
<g id="edge4" class="edge">
<title>_C_h_&#45;&#45;_C_t_</title>
<path fill="none" stroke="#000000" stroke-dasharray="5,2" d="M63.7011,-291.9924C78.5411,-302.7743 106.1471,-322.8313 124.6435,-336.2697"/>
<polygon fill="#000000" stroke="#000000" points="122.7485,-339.2191 132.896,-342.2655 126.8631,-333.556 122.7485,-339.2191"/>
</g>
<!-- _E_t_ -->
<g id="node10" class="node">
<title>_E_t_</title>
<text text-anchor="middle" x="344.6231" y="-280.7915" font-family="Times,serif" font-size="14.00" fill="#000000">_E_t_</text>
</g>
<!-- _C_h_&#45;&#45;_E_t_ -->
<g id="edge7" class="edge">
<title>_C_h_&#45;&#45;_E_t_</title>
<path fill="none" stroke="#0000ff" d="M72.4864,-288.0511C125.2584,-292.3031 272.5872,-292.305 325.4432,-288.0567"/>
</g>
<!-- _C_h_&#45;&#45;_E_t_ -->
<g id="edge12" class="edge">
<title>_C_h_&#45;&#45;_E_t_</title>
<path fill="none" stroke="#ff0000" d="M72.4864,-280.9319C125.2584,-276.6799 272.5872,-276.678 325.4432,-280.9263"/>
</g>
<!-- _E_h_ -->
<g id="node9" class="node">
<title>_E_h_</title>
<text text-anchor="middle" x="254.6231" y="-346.1803" font-family="Times,serif" font-size="14.00" fill="#000000">_E_h_</text>
</g>
<!-- _C_t_&#45;&#45;_E_h_ -->
<g id="edge10" class="edge">
<title>_C_t_&#45;&#45;_E_h_</title>
<path fill="none" stroke="#0000ff" d="M162.5008,-355.1224C182.8771,-357.129 214.9533,-357.133 235.3764,-355.1344"/>
</g>
<!-- _C_t_&#45;&#45;_E_h_ -->
<g id="edge15" class="edge">
<title>_C_t_&#45;&#45;_E_h_</title>
<path fill="none" stroke="#ff0000" d="M162.5008,-344.6383C182.8771,-342.6317 214.9533,-342.6277 235.3764,-344.6263"/>
</g>
<!-- _E_h_&#45;&#45;_E_t_ -->
<g id="edge5" class="edge">
<title>_E_h_&#45;&#45;_E_t_</title>
<path fill="none" stroke="#000000" stroke-dasharray="5,2" d="M264.9472,-342.3794C279.7872,-331.5975 307.3932,-311.5406 325.8897,-298.1021"/>
<polygon fill="#000000" stroke="#000000" points="328.1092,-300.8158 334.1421,-292.1064 323.9946,-295.1527 328.1092,-300.8158"/>
</g>
</g>
</svg>
