<svg class="bob" font-family="arial" font-size="14" height="320" width="344" xmlns="http://www.w3.org/2000/svg">
<defs>
<marker id="triangle" markerHeight="8" markerWidth="8" orient="auto" refX="4" refY="2" viewBox="0 0 8 4">
<polygon class="fg_fill" points="0,0 0,4 8,2 0,0"/>
</marker>
<marker id="clear_triangle" markerHeight="10" markerWidth="10" orient="auto" refX="1" refY="7" viewBox="0 0 20 14">
<polygon class="bg_fill" points="2,2 2,12 18,7 2,2"/>
</marker>
<marker id="circle" markerHeight="5" markerWidth="5" orient="auto" refX="10" refY="10" viewBox="0 0 20 20">
<circle class="fg_fill" cx="10" cy="10" r="8"/>
</marker>
<marker id="square" markerHeight="5" markerWidth="5" orient="auto" refX="10" refY="10" viewBox="0 0 20 20">
<rect class="fg_fill" height="20" width="20" x="0" y="0"/>
</marker>
<marker id="open_circle" markerHeight="10" markerWidth="10" orient="auto" refX="10" refY="10" viewBox="0 0 20 20">
<circle class="bg_fill" cx="10" cy="10" r="4"/>
</marker>
<marker id="big_open_circle" markerHeight="20" markerWidth="20" orient="auto" refX="20" refY="20" viewBox="0 0 40 40">
<circle class="bg_fill" cx="20" cy="20" r="6"/>
</marker>
</defs>
<style type="text/css">

rect.backdrop {
    fill: white;
}
text{
    fill: black;
}

circle {
    fill: none;
    stroke: black;
    stroke-width: 2;
}

line {
    stroke: black;
    stroke-width: 2;
    stroke-opacity: 1;
    fill-opacity: 1;
    stroke-linecap: round;
    stroke-linejoin: miter;
}

path {
    fill: none;
    stroke: black;
    stroke-width: 2;
    stroke-opacity: 1;
    fill-opacity: 1;
    stroke-linecap: round;
    stroke-linejoin: miter;
}

line.dashed {
    stroke-dasharray: 5;
}

.fg_fill {
    fill: black;
}


.bg_fill {
    fill: white;
    stroke: black;
    stroke-width: 2;
}

tspan.head{
    fill: none;
    stroke: none;
}
    
</style>
<rect class="backdrop" height="320" width="344" x="0" y="0"/>
<g>
<line marker-end="url(#triangle)" x1="12" x2="12" y1="16" y2="44"/>
</g>
<g>
<line marker-end="url(#triangle)" x1="12" x2="12" y1="128" y2="156"/>
</g>
<g>
<line marker-end="url(#triangle)" x1="12" x2="12" y1="240" y2="268"/>
</g>
<g>
<line x1="16" x2="36" y1="72" y2="72"/>
<line x1="36" x2="36" y1="72" y2="84"/>
<line x1="36" x2="56" y1="72" y2="72"/>
<path d="M 12 68 A 4 4 0 0 0 16 72"/>
<path d="M 36 84 A 4 4 0 0 0 40 88"/>
<path d="M 56 72 A 4 4 0 0 0 60 68"/>
</g>
<g>
<line x1="16" x2="28" y1="184" y2="184"/>
<line x1="28" x2="28" y1="184" y2="196"/>
<line x1="28" x2="32" y1="184" y2="184"/>
<path d="M 12 180 A 4 4 0 0 0 16 184"/>
<path d="M 28 196 A 4 4 0 0 0 32 200"/>
<path d="M 32 184 A 4 4 0 0 0 36 180"/>
</g>
<g>
<line x1="32" x2="288" y1="200" y2="200"/>
<path d="M 288 200 A 4 4 0 0 0 292 196"/>
</g>
<g>
<line marker-end="url(#triangle)" x1="36" x2="36" y1="16" y2="44"/>
</g>
<g>
<line marker-end="url(#triangle)" x1="36" x2="36" y1="128" y2="156"/>
</g>
<g>
<line marker-end="url(#triangle)" x1="36" x2="36" y1="240" y2="268"/>
</g>
<g>
<line x1="40" x2="296" y1="88" y2="88"/>
<path d="M 296 88 A 4 4 0 0 0 300 84"/>
</g>
<g>
<line x1="40" x2="52" y1="296" y2="296"/>
<line x1="52" x2="52" y1="296" y2="308"/>
<line x1="52" x2="56" y1="296" y2="296"/>
<path d="M 36 292 A 4 4 0 0 0 40 296"/>
<path d="M 52 308 A 4 4 0 0 0 56 312"/>
<path d="M 56 296 A 4 4 0 0 0 60 292"/>
</g>
<g>
<line x1="56" x2="312" y1="312" y2="312"/>
<path d="M 312 312 A 4 4 0 0 0 316 308"/>
</g>
<g>
<line marker-end="url(#triangle)" x1="60" x2="60" y1="16" y2="44"/>
</g>
<g>
<line marker-end="url(#triangle)" x1="60" x2="60" y1="128" y2="156"/>
</g>
<g>
<line marker-end="url(#triangle)" x1="60" x2="60" y1="240" y2="268"/>
</g>
<g>
<line marker-end="url(#triangle)" x1="276" x2="276" y1="16" y2="44"/>
</g>
<g>
<line marker-end="url(#triangle)" x1="276" x2="276" y1="128" y2="156"/>
</g>
<g>
<line marker-end="url(#triangle)" x1="276" x2="276" y1="240" y2="268"/>
</g>
<g>
<line x1="280" x2="300" y1="72" y2="72"/>
<line x1="300" x2="300" y1="72" y2="84"/>
<line x1="300" x2="320" y1="72" y2="72"/>
<path d="M 276 68 A 4 4 0 0 0 280 72"/>
<path d="M 320 72 A 4 4 0 0 0 324 68"/>
</g>
<g>
<line x1="280" x2="292" y1="184" y2="184"/>
<line x1="292" x2="292" y1="184" y2="196"/>
<line x1="292" x2="296" y1="184" y2="184"/>
<path d="M 276 180 A 4 4 0 0 0 280 184"/>
<path d="M 296 184 A 4 4 0 0 0 300 180"/>
</g>
<g>
<line marker-end="url(#triangle)" x1="300" x2="300" y1="16" y2="44"/>
</g>
<g>
<line marker-end="url(#triangle)" x1="300" x2="300" y1="128" y2="156"/>
</g>
<g>
<line marker-end="url(#triangle)" x1="300" x2="300" y1="240" y2="268"/>
</g>
<g>
<line x1="304" x2="316" y1="296" y2="296"/>
<line x1="316" x2="316" y1="296" y2="308"/>
<line x1="316" x2="320" y1="296" y2="296"/>
<path d="M 300 292 A 4 4 0 0 0 304 296"/>
<path d="M 320 296 A 4 4 0 0 0 324 292"/>
</g>
<g>
<line marker-end="url(#triangle)" x1="324" x2="324" y1="16" y2="44"/>
</g>
<g>
<line marker-end="url(#triangle)" x1="324" x2="324" y1="128" y2="156"/>
</g>
<g>
<line marker-end="url(#triangle)" x1="324" x2="324" y1="240" y2="268"/>
</g>
<g>
<text x="1" y="60">
0
</text>
</g>
<g>
<text x="1" y="172">
0
</text>
</g>
<g>
<text x="1" y="284">
0
</text>
</g>
<g>
<text x="9" y="12">
bp
</text>
</g>
<g>
<text x="9" y="124">
bp
</text>
</g>
<g>
<text x="9" y="236">
bp
</text>
</g>
<g>
<text x="17" y="60">
+2
</text>
</g>
<g>
<text x="17" y="172">
+2
</text>
</g>
<g>
<text x="17" y="284">
+2
</text>
</g>
<g>
<text x="33" y="12">
bp
</text>
</g>
<g>
<text x="33" y="124">
bp
</text>
</g>
<g>
<text x="33" y="236">
bp
</text>
</g>
<g>
<text x="41" y="60">
+1
</text>
</g>
<g>
<text x="41" y="172">
+1
</text>
</g>
<g>
<text x="41" y="284">
+1
</text>
</g>
<g>
<text x="57" y="12">
bp
</text>
</g>
<g>
<text x="57" y="124">
bp
</text>
</g>
<g>
<text x="57" y="236">
bp
</text>
</g>
<g>
<text x="65" y="60">
+3
</text>
</g>
<g>
<text x="65" y="172">
+3
</text>
</g>
<g>
<text x="65" y="284">
+3
</text>
</g>
<g>
<text x="153" y="76">
reverse
</text>
</g>
<g>
<text x="153" y="188">
reverse
</text>
</g>
<g>
<text x="153" y="300">
reverse
</text>
</g>
<g>
<text x="265" y="60">
0
</text>
</g>
<g>
<text x="265" y="172">
0
</text>
</g>
<g>
<text x="265" y="284">
0
</text>
</g>
<g>
<text x="273" y="12">
bp
</text>
</g>
<g>
<text x="273" y="124">
bp
</text>
</g>
<g>
<text x="273" y="236">
bp
</text>
</g>
<g>
<text x="281" y="60">
-1
</text>
</g>
<g>
<text x="281" y="172">
-2
</text>
</g>
<g>
<text x="281" y="284">
+2
</text>
</g>
<g>
<text x="297" y="12">
bp
</text>
</g>
<g>
<text x="297" y="124">
bp
</text>
</g>
<g>
<text x="297" y="236">
bp
</text>
</g>
<g>
<text x="305" y="60">
-2
</text>
</g>
<g>
<text x="305" y="172">
+1
</text>
</g>
<g>
<text x="305" y="284">
-1
</text>
</g>
<g>
<text x="321" y="12">
bp
</text>
</g>
<g>
<text x="321" y="124">
bp
</text>
</g>
<g>
<text x="321" y="236">
bp
</text>
</g>
<g>
<text x="329" y="60">
+3
</text>
</g>
<g>
<text x="329" y="172">
+3
</text>
</g>
<g>
<text x="329" y="284">
+3
</text>
</g>
</svg>
