<?xml version="1.0" encoding="UTF-8" standalone="no"?>
<!DOCTYPE svg PUBLIC "-//W3C//DTD SVG 1.1//EN"
 "http://www.w3.org/Graphics/SVG/1.1/DTD/svg11.dtd">
<!-- Generated by graphviz version 2.40.1 (0)
 -->
<!-- Title: G Pages: 1 -->
<svg width="786pt" height="375pt"
 viewBox="0.00 0.00 785.96 375.18" xmlns="http://www.w3.org/2000/svg" xmlns:xlink="http://www.w3.org/1999/xlink">
<g id="graph0" class="graph" transform="scale(1 1) rotate(0) translate(4 371.1827)">
<title>G</title>
<polygon fill="#ffffff" stroke="transparent" points="-4,4 -4,-371.1827 781.9645,-371.1827 781.9645,4 -4,4"/>
<!-- STATE_A -->
<g id="node1" class="node">
<title>STATE_A</title>
<polygon fill="none" stroke="#000000" points="70.6825,-203.9344 72.4586,-204.033 74.2163,-204.1805 75.9484,-204.3765 77.648,-204.6204 79.3083,-204.9117 80.9225,-205.2496 82.4846,-205.633 83.9886,-206.061 85.4288,-206.5323 86.8,-207.0458 88.0976,-207.5999 89.3172,-208.1931 90.4549,-208.8239 91.5074,-209.4905 92.4717,-210.191 93.3455,-210.9236 94.1269,-211.6863 94.8146,-212.4769 95.4075,-213.2933 95.9055,-214.1333 96.3085,-214.9944 96.6172,-215.8745 96.8325,-216.7711 96.9558,-217.6817 96.989,-218.6037 96.9342,-219.5348 96.7939,-220.4724 96.5711,-221.4138 96.2687,-222.3565 95.89,-223.2979 95.4386,-224.2354 94.9181,-225.1665 94.3324,-226.0886 93.6853,-226.9991 92.9807,-227.8957 92.2225,-228.7758 91.4148,-229.637 90.5613,-230.4769 89.6659,-231.2933 88.7323,-232.0839 87.7639,-232.8466 86.7644,-233.5792 85.7368,-234.2797 84.6844,-234.9463 83.6099,-235.5771 82.5161,-236.1704 81.4054,-236.7245 80.2801,-237.2379 79.1423,-237.7092 77.9939,-238.1372 76.8365,-238.5206 75.6717,-238.8585 74.5009,-239.1498 73.3251,-239.3938 72.1455,-239.5898 70.963,-239.7372 69.7786,-239.8358 68.593,-239.8851 67.407,-239.8851 66.2214,-239.8358 65.037,-239.7372 63.8545,-239.5898 62.6749,-239.3938 61.4991,-239.1498 60.3283,-238.8585 59.1635,-238.5206 58.0061,-238.1372 56.8577,-237.7092 55.7199,-237.2379 54.5946,-236.7245 53.4839,-236.1704 52.3901,-235.5771 51.3156,-234.9463 50.2632,-234.2797 49.2356,-233.5792 48.2361,-232.8466 47.2677,-232.0839 46.3341,-231.2933 45.4387,-230.4769 44.5852,-229.637 43.7775,-228.7758 43.0193,-227.8957 42.3147,-226.9991 41.6676,-226.0886 41.0819,-225.1665 40.5614,-224.2354 40.11,-223.2979 39.7313,-222.3565 39.4289,-221.4138 39.2061,-220.4724 39.0658,-219.5348 39.011,-218.6037 39.0442,-217.6817 39.1675,-216.7711 39.3828,-215.8745 39.6915,-214.9944 40.0945,-214.1333 40.5925,-213.2933 41.1854,-212.4769 41.8731,-211.6863 42.6545,-210.9236 43.5283,-210.191 44.4926,-209.4905 45.5451,-208.8239 46.6828,-208.1931 47.9024,-207.5999 49.2,-207.0458 50.5712,-206.5323 52.0114,-206.061 53.5154,-205.633 55.0775,-205.2496 56.6917,-204.9117 58.352,-204.6204 60.0516,-204.3765 61.7837,-204.1805 63.5414,-204.033 65.3175,-203.9344 67.1046,-203.8851 68.8954,-203.8851 70.6825,-203.9344"/>
<text text-anchor="middle" x="68" y="-219.3851" font-family="Courier,monospace" font-weight="bold" font-size="10.00" fill="#000000">A</text>
</g>
<!-- STATE_A&#45;&gt;STATE_A -->
<g id="edge1" class="edge">
<title>STATE_A&#45;&gt;STATE_A</title>
<path fill="none" stroke="#000000" d="M50.4293,-234.4299C41.8814,-245.7547 47.7383,-257.8851 68,-257.8851 82.5631,-257.8851 89.6847,-251.6185 89.3647,-243.8886"/>
<polygon fill="#000000" stroke="#000000" points="92.542,-242.4081 85.5707,-234.4299 86.0451,-245.0141 92.542,-242.4081"/>
<text text-anchor="middle" x="68" y="-260.8851" font-family="Courier,monospace" font-weight="bold" font-size="10.00" fill="#000000">0.6666666666666666</text>
</g>
<!-- STATE_B -->
<g id="node2" class="node">
<title>STATE_B</title>
<polygon fill="none" stroke="#000000" points="342.926,-133.9344 344.702,-134.033 346.4597,-134.1805 348.1919,-134.3765 349.8915,-134.6204 351.5517,-134.9117 353.166,-135.2496 354.7281,-135.633 356.232,-136.061 357.6722,-136.5323 359.0435,-137.0458 360.3411,-137.5999 361.5607,-138.1931 362.6984,-138.8239 363.7508,-139.4905 364.7152,-140.191 365.589,-140.9236 366.3704,-141.6863 367.058,-142.4769 367.651,-143.2933 368.1489,-144.1333 368.552,-144.9944 368.8606,-145.8745 369.0759,-146.7711 369.1992,-147.6817 369.2324,-148.6037 369.1776,-149.5348 369.0374,-150.4724 368.8145,-151.4138 368.5121,-152.3565 368.1334,-153.2979 367.682,-154.2354 367.1616,-155.1665 366.5759,-156.0886 365.9287,-156.9991 365.2241,-157.8957 364.466,-158.7758 363.6582,-159.637 362.8048,-160.4769 361.9093,-161.2933 360.9757,-162.0839 360.0074,-162.8466 359.0078,-163.5792 357.9803,-164.2797 356.9278,-164.9463 355.8533,-165.5771 354.7595,-166.1704 353.6488,-166.7245 352.5235,-167.2379 351.3858,-167.7092 350.2373,-168.1372 349.08,-168.5206 347.9152,-168.8585 346.7443,-169.1498 345.5685,-169.3938 344.3889,-169.5898 343.2065,-169.7372 342.022,-169.8358 340.8364,-169.8851 339.6505,-169.8851 338.4649,-169.8358 337.2804,-169.7372 336.098,-169.5898 334.9184,-169.3938 333.7426,-169.1498 332.5717,-168.8585 331.4069,-168.5206 330.2495,-168.1372 329.1011,-167.7092 327.9633,-167.2379 326.8381,-166.7245 325.7274,-166.1704 324.6335,-165.5771 323.5591,-164.9463 322.5066,-164.2797 321.4791,-163.5792 320.4795,-162.8466 319.5112,-162.0839 318.5775,-161.2933 317.6821,-160.4769 316.8286,-159.637 316.0209,-158.7758 315.2628,-157.8957 314.5582,-156.9991 313.911,-156.0886 313.3253,-155.1665 312.8048,-154.2354 312.3534,-153.2979 311.9748,-152.3565 311.6724,-151.4138 311.4495,-150.4724 311.3093,-149.5348 311.2545,-148.6037 311.2877,-147.6817 311.411,-146.7711 311.6263,-145.8745 311.9349,-144.9944 312.3379,-144.1333 312.8359,-143.2933 313.4289,-142.4769 314.1165,-141.6863 314.8979,-140.9236 315.7717,-140.191 316.7361,-139.4905 317.7885,-138.8239 318.9262,-138.1931 320.1458,-137.5999 321.4434,-137.0458 322.8147,-136.5323 324.2549,-136.061 325.7588,-135.633 327.3209,-135.2496 328.9352,-134.9117 330.5954,-134.6204 332.295,-134.3765 334.0271,-134.1805 335.7848,-134.033 337.5609,-133.9344 339.348,-133.8851 341.1389,-133.8851 342.926,-133.9344"/>
<text text-anchor="middle" x="340.2434" y="-149.3851" font-family="Courier,monospace" font-weight="bold" font-size="10.00" fill="#000000">B</text>
</g>
<!-- STATE_A&#45;&gt;STATE_B -->
<g id="edge2" class="edge">
<title>STATE_A&#45;&gt;STATE_B</title>
<path fill="none" stroke="#000000" d="M96.1553,-214.559C102.2773,-212.9935 108.7229,-211.366 114.7434,-209.8851 175.0411,-195.053 190.6862,-193.6628 250.7434,-177.8851 269.1463,-173.0505 289.5272,-167.1713 306.1859,-162.2274"/>
<polygon fill="#000000" stroke="#000000" points="307.4465,-165.5037 316.0262,-159.2877 305.4428,-158.7966 307.4465,-165.5037"/>
<text text-anchor="middle" x="182.7434" y="-212.8851" font-family="Courier,monospace" font-weight="bold" font-size="10.00" fill="#000000">0.3333333333333333</text>
</g>
<!-- STATE_C -->
<g id="node3" class="node">
<title>STATE_C</title>
<polygon fill="none" stroke="#000000" points="615.1694,-233.9344 616.9455,-234.033 618.7032,-234.1805 620.4353,-234.3765 622.1349,-234.6204 623.7951,-234.9117 625.4094,-235.2496 626.9715,-235.633 628.4754,-236.061 629.9156,-236.5323 631.2869,-237.0458 632.5845,-237.5999 633.8041,-238.1931 634.9418,-238.8239 635.9943,-239.4905 636.9586,-240.191 637.8324,-240.9236 638.6138,-241.6863 639.3014,-242.4769 639.8944,-243.2933 640.3924,-244.1333 640.7954,-244.9944 641.1041,-245.8745 641.3193,-246.7711 641.4427,-247.6817 641.4759,-248.6037 641.4211,-249.5348 641.2808,-250.4724 641.058,-251.4138 640.7555,-252.3565 640.3769,-253.2979 639.9255,-254.2354 639.405,-255.1665 638.8193,-256.0886 638.1722,-256.9991 637.4676,-257.8957 636.7094,-258.7758 635.9017,-259.637 635.0482,-260.4769 634.1528,-261.2933 633.2191,-262.0839 632.2508,-262.8466 631.2513,-263.5792 630.2237,-264.2797 629.1713,-264.9463 628.0968,-265.5771 627.003,-266.1704 625.8923,-266.7245 624.767,-267.2379 623.6292,-267.7092 622.4808,-268.1372 621.3234,-268.5206 620.1586,-268.8585 618.9877,-269.1498 617.812,-269.3938 616.6324,-269.5898 615.4499,-269.7372 614.2655,-269.8358 613.0799,-269.8851 611.8939,-269.8851 610.7083,-269.8358 609.5239,-269.7372 608.3414,-269.5898 607.1618,-269.3938 605.986,-269.1498 604.8151,-268.8585 603.6503,-268.5206 602.493,-268.1372 601.3446,-267.7092 600.2068,-267.2379 599.0815,-266.7245 597.9708,-266.1704 596.877,-265.5771 595.8025,-264.9463 594.75,-264.2797 593.7225,-263.5792 592.7229,-262.8466 591.7546,-262.0839 590.821,-261.2933 589.9256,-260.4769 589.0721,-259.637 588.2643,-258.7758 587.5062,-257.8957 586.8016,-256.9991 586.1545,-256.0886 585.5687,-255.1665 585.0483,-254.2354 584.5969,-253.2979 584.2182,-252.3565 583.9158,-251.4138 583.6929,-250.4724 583.5527,-249.5348 583.4979,-248.6037 583.5311,-247.6817 583.6544,-246.7711 583.8697,-245.8745 584.1784,-244.9944 584.5814,-244.1333 585.0793,-243.2933 585.6723,-242.4769 586.36,-241.6863 587.1414,-240.9236 588.0152,-240.191 588.9795,-239.4905 590.032,-238.8239 591.1697,-238.1931 592.3892,-237.5999 593.6868,-237.0458 595.0581,-236.5323 596.4983,-236.061 598.0023,-235.633 599.5643,-235.2496 601.1786,-234.9117 602.8388,-234.6204 604.5384,-234.3765 606.2706,-234.1805 608.0283,-234.033 609.8043,-233.9344 611.5915,-233.8851 613.3823,-233.8851 615.1694,-233.9344"/>
<text text-anchor="middle" x="612.4869" y="-249.3851" font-family="Courier,monospace" font-weight="bold" font-size="10.00" fill="#000000">C</text>
</g>
<!-- STATE_A&#45;&gt;STATE_C -->
<g id="edge3" class="edge">
<title>STATE_A&#45;&gt;STATE_C</title>
<path fill="none" stroke="#000000" d="M73.5738,-239.6553C80.2206,-257.4745 93.2227,-283.9332 114.7434,-295.8851 202.3604,-344.5447 472.7016,-333.1372 565.7434,-295.8851 576.5635,-291.553 586.3439,-283.4176 594.1284,-275.3092"/>
<polygon fill="#000000" stroke="#000000" points="596.9007,-277.4594 600.9492,-267.6685 591.6787,-272.7977 596.9007,-277.4594"/>
<text text-anchor="middle" x="340.2434" y="-330.8851" font-family="Courier,monospace" font-weight="bold" font-size="10.00" fill="#000000">0.0</text>
</g>
<!-- STATE_SOURCE -->
<g id="node4" class="node">
<title>STATE_SOURCE</title>
<polygon fill="none" stroke="#000000" points="742.6818,-165.9344 745.055,-166.033 747.4036,-166.1805 749.718,-166.3765 751.989,-166.6204 754.2074,-166.9117 756.3644,-167.2496 758.4516,-167.633 760.4611,-168.061 762.3855,-168.5323 764.2178,-169.0458 765.9516,-169.5999 767.5812,-170.1931 769.1014,-170.8239 770.5077,-171.4905 771.7962,-172.191 772.9638,-172.9236 774.0079,-173.6863 774.9267,-174.4769 775.719,-175.2933 776.3844,-176.1333 776.9229,-176.9944 777.3353,-177.8745 777.623,-178.7711 777.7878,-179.6817 777.8321,-180.6037 777.7589,-181.5348 777.5715,-182.4724 777.2737,-183.4138 776.8696,-184.3565 776.3637,-185.2979 775.7605,-186.2354 775.0651,-187.1665 774.2825,-188.0886 773.4178,-188.9991 772.4763,-189.8957 771.4633,-190.7758 770.384,-191.637 769.2436,-192.4769 768.0471,-193.2933 766.7996,-194.0839 765.5058,-194.8466 764.1702,-195.5792 762.7972,-196.2797 761.3909,-196.9463 759.9552,-197.5771 758.4936,-198.1704 757.0095,-198.7245 755.506,-199.2379 753.9857,-199.7092 752.4512,-200.1372 750.9047,-200.5206 749.3483,-200.8585 747.7838,-201.1498 746.2127,-201.3938 744.6366,-201.5898 743.0566,-201.7372 741.474,-201.8358 739.8898,-201.8851 738.3051,-201.8851 736.7209,-201.8358 735.1383,-201.7372 733.5583,-201.5898 731.9821,-201.3938 730.4111,-201.1498 728.8466,-200.8585 727.2902,-200.5206 725.7437,-200.1372 724.2092,-199.7092 722.6889,-199.2379 721.1854,-198.7245 719.7013,-198.1704 718.2397,-197.5771 716.804,-196.9463 715.3977,-196.2797 714.0247,-195.5792 712.6891,-194.8466 711.3953,-194.0839 710.1477,-193.2933 708.9513,-192.4769 707.8109,-191.637 706.7316,-190.7758 705.7186,-189.8957 704.7771,-188.9991 703.9124,-188.0886 703.1298,-187.1665 702.4343,-186.2354 701.8312,-185.2979 701.3252,-184.3565 700.9211,-183.4138 700.6233,-182.4724 700.436,-181.5348 700.3628,-180.6037 700.4071,-179.6817 700.5719,-178.7711 700.8595,-177.8745 701.2719,-176.9944 701.8105,-176.1333 702.4758,-175.2933 703.2682,-174.4769 704.187,-173.6863 705.2311,-172.9236 706.3987,-172.191 707.6872,-171.4905 709.0935,-170.8239 710.6137,-170.1931 712.2432,-169.5999 713.9771,-169.0458 715.8094,-168.5323 717.7337,-168.061 719.7433,-167.633 721.8305,-167.2496 723.9875,-166.9117 726.2059,-166.6204 728.4768,-166.3765 730.7913,-166.1805 733.1399,-166.033 735.5131,-165.9344 737.901,-165.8851 740.2939,-165.8851 742.6818,-165.9344"/>
<text text-anchor="middle" x="739.0974" y="-181.3851" font-family="Courier,monospace" font-weight="bold" font-size="10.00" fill="#000000">SOURCE</text>
</g>
<!-- STATE_A&#45;&gt;STATE_SOURCE -->
<g id="edge4" class="edge">
<title>STATE_A&#45;&gt;STATE_SOURCE</title>
<path fill="none" stroke="#000000" d="M70.8164,-240.01C75.4941,-263.4781 87.2375,-303.749 114.7434,-323.8851 221.4712,-402.0164 279.7493,-351.4203 411.7434,-342.8851 514.702,-336.2274 553.24,-361.7598 641.2303,-307.8851 679.8955,-284.2112 709.4346,-239.4048 725.5108,-210.6305"/>
<polygon fill="#000000" stroke="#000000" points="728.7498,-211.9997 730.4403,-201.5406 722.5964,-208.6626 728.7498,-211.9997"/>
<text text-anchor="middle" x="497.7434" y="-345.8851" font-family="Courier,monospace" font-weight="bold" font-size="10.00" fill="#000000">0.0</text>
</g>
<!-- SYMBOL_z -->
<g id="node5" class="node">
<title>SYMBOL_z</title>
<polygon fill="none" stroke="#000000" stroke-dasharray="5,2" points="615.1694,-29.9344 616.9455,-30.033 618.7032,-30.1805 620.4353,-30.3765 622.1349,-30.6204 623.7951,-30.9117 625.4094,-31.2496 626.9715,-31.633 628.4754,-32.061 629.9156,-32.5323 631.2869,-33.0458 632.5845,-33.5999 633.8041,-34.1931 634.9418,-34.8239 635.9943,-35.4905 636.9586,-36.191 637.8324,-36.9236 638.6138,-37.6863 639.3014,-38.4769 639.8944,-39.2933 640.3924,-40.1333 640.7954,-40.9944 641.1041,-41.8745 641.3193,-42.7711 641.4427,-43.6817 641.4759,-44.6037 641.4211,-45.5348 641.2808,-46.4724 641.058,-47.4138 640.7555,-48.3565 640.3769,-49.2979 639.9255,-50.2354 639.405,-51.1665 638.8193,-52.0886 638.1722,-52.9991 637.4676,-53.8957 636.7094,-54.7758 635.9017,-55.637 635.0482,-56.4769 634.1528,-57.2933 633.2191,-58.0839 632.2508,-58.8466 631.2513,-59.5792 630.2237,-60.2797 629.1713,-60.9463 628.0968,-61.5771 627.003,-62.1704 625.8923,-62.7245 624.767,-63.2379 623.6292,-63.7092 622.4808,-64.1372 621.3234,-64.5206 620.1586,-64.8585 618.9877,-65.1498 617.812,-65.3938 616.6324,-65.5898 615.4499,-65.7372 614.2655,-65.8358 613.0799,-65.8851 611.8939,-65.8851 610.7083,-65.8358 609.5239,-65.7372 608.3414,-65.5898 607.1618,-65.3938 605.986,-65.1498 604.8151,-64.8585 603.6503,-64.5206 602.493,-64.1372 601.3446,-63.7092 600.2068,-63.2379 599.0815,-62.7245 597.9708,-62.1704 596.877,-61.5771 595.8025,-60.9463 594.75,-60.2797 593.7225,-59.5792 592.7229,-58.8466 591.7546,-58.0839 590.821,-57.2933 589.9256,-56.4769 589.0721,-55.637 588.2643,-54.7758 587.5062,-53.8957 586.8016,-52.9991 586.1545,-52.0886 585.5687,-51.1665 585.0483,-50.2354 584.5969,-49.2979 584.2182,-48.3565 583.9158,-47.4138 583.6929,-46.4724 583.5527,-45.5348 583.4979,-44.6037 583.5311,-43.6817 583.6544,-42.7711 583.8697,-41.8745 584.1784,-40.9944 584.5814,-40.1333 585.0793,-39.2933 585.6723,-38.4769 586.36,-37.6863 587.1414,-36.9236 588.0152,-36.191 588.9795,-35.4905 590.032,-34.8239 591.1697,-34.1931 592.3892,-33.5999 593.6868,-33.0458 595.0581,-32.5323 596.4983,-32.061 598.0023,-31.633 599.5643,-31.2496 601.1786,-30.9117 602.8388,-30.6204 604.5384,-30.3765 606.2706,-30.1805 608.0283,-30.033 609.8043,-29.9344 611.5915,-29.8851 613.3823,-29.8851 615.1694,-29.9344"/>
<text text-anchor="middle" x="612.4869" y="-45.3851" font-family="Courier,monospace" font-weight="bold" font-size="10.00" fill="#000000">z</text>
</g>
<!-- STATE_A&#45;&gt;SYMBOL_z -->
<g id="edge17" class="edge">
<title>STATE_A&#45;&gt;SYMBOL_z</title>
<path fill="none" stroke="#000000" stroke-dasharray="5,2" d="M72.7916,-203.9816C79.0715,-184.0483 92.0484,-152.345 114.7434,-134.8851 254.8585,-27.0906 482.8157,-35.0946 573.4927,-43.383"/>
<polygon fill="#000000" stroke="#000000" points="573.3131,-46.8819 583.6038,-44.3617 573.9876,-39.9144 573.3131,-46.8819"/>
<text text-anchor="middle" x="340.2434" y="-65.8851" font-family="Courier,monospace" font-weight="bold" font-size="10.00" fill="#000000">0.5714285714285714</text>
</g>
<!-- SYMBOL_y -->
<g id="node6" class="node">
<title>SYMBOL_y</title>
<polygon fill="none" stroke="#000000" stroke-dasharray="5,2" points="615.1694,-179.9344 616.9455,-180.033 618.7032,-180.1805 620.4353,-180.3765 622.1349,-180.6204 623.7951,-180.9117 625.4094,-181.2496 626.9715,-181.633 628.4754,-182.061 629.9156,-182.5323 631.2869,-183.0458 632.5845,-183.5999 633.8041,-184.1931 634.9418,-184.8239 635.9943,-185.4905 636.9586,-186.191 637.8324,-186.9236 638.6138,-187.6863 639.3014,-188.4769 639.8944,-189.2933 640.3924,-190.1333 640.7954,-190.9944 641.1041,-191.8745 641.3193,-192.7711 641.4427,-193.6817 641.4759,-194.6037 641.4211,-195.5348 641.2808,-196.4724 641.058,-197.4138 640.7555,-198.3565 640.3769,-199.2979 639.9255,-200.2354 639.405,-201.1665 638.8193,-202.0886 638.1722,-202.9991 637.4676,-203.8957 636.7094,-204.7758 635.9017,-205.637 635.0482,-206.4769 634.1528,-207.2933 633.2191,-208.0839 632.2508,-208.8466 631.2513,-209.5792 630.2237,-210.2797 629.1713,-210.9463 628.0968,-211.5771 627.003,-212.1704 625.8923,-212.7245 624.767,-213.2379 623.6292,-213.7092 622.4808,-214.1372 621.3234,-214.5206 620.1586,-214.8585 618.9877,-215.1498 617.812,-215.3938 616.6324,-215.5898 615.4499,-215.7372 614.2655,-215.8358 613.0799,-215.8851 611.8939,-215.8851 610.7083,-215.8358 609.5239,-215.7372 608.3414,-215.5898 607.1618,-215.3938 605.986,-215.1498 604.8151,-214.8585 603.6503,-214.5206 602.493,-214.1372 601.3446,-213.7092 600.2068,-213.2379 599.0815,-212.7245 597.9708,-212.1704 596.877,-211.5771 595.8025,-210.9463 594.75,-210.2797 593.7225,-209.5792 592.7229,-208.8466 591.7546,-208.0839 590.821,-207.2933 589.9256,-206.4769 589.0721,-205.637 588.2643,-204.7758 587.5062,-203.8957 586.8016,-202.9991 586.1545,-202.0886 585.5687,-201.1665 585.0483,-200.2354 584.5969,-199.2979 584.2182,-198.3565 583.9158,-197.4138 583.6929,-196.4724 583.5527,-195.5348 583.4979,-194.6037 583.5311,-193.6817 583.6544,-192.7711 583.8697,-191.8745 584.1784,-190.9944 584.5814,-190.1333 585.0793,-189.2933 585.6723,-188.4769 586.36,-187.6863 587.1414,-186.9236 588.0152,-186.191 588.9795,-185.4905 590.032,-184.8239 591.1697,-184.1931 592.3892,-183.5999 593.6868,-183.0458 595.0581,-182.5323 596.4983,-182.061 598.0023,-181.633 599.5643,-181.2496 601.1786,-180.9117 602.8388,-180.6204 604.5384,-180.3765 606.2706,-180.1805 608.0283,-180.033 609.8043,-179.9344 611.5915,-179.8851 613.3823,-179.8851 615.1694,-179.9344"/>
<text text-anchor="middle" x="612.4869" y="-195.3851" font-family="Courier,monospace" font-weight="bold" font-size="10.00" fill="#000000">y</text>
</g>
<!-- STATE_A&#45;&gt;SYMBOL_y -->
<g id="edge18" class="edge">
<title>STATE_A&#45;&gt;SYMBOL_y</title>
<path fill="none" stroke="#000000" stroke-dasharray="5,2" d="M95.4387,-224.3883C193.3855,-233.1398 522.294,-260.8824 565.7434,-242.8851 576.1959,-238.5555 575.6194,-232.7591 583.7434,-224.8851 585.6362,-223.0506 587.6098,-221.1572 589.597,-219.2642"/>
<polygon fill="#000000" stroke="#000000" points="592.3242,-221.5025 597.1873,-212.0897 587.5157,-216.4154 592.3242,-221.5025"/>
<text text-anchor="middle" x="340.2434" y="-248.8851" font-family="Courier,monospace" font-weight="bold" font-size="10.00" fill="#000000">0.42857142857142855</text>
</g>
<!-- STATE_B&#45;&gt;STATE_A -->
<g id="edge5" class="edge">
<title>STATE_B&#45;&gt;STATE_A</title>
<path fill="none" stroke="#000000" d="M311.2542,-146.0597C266.3575,-138.564 178.5387,-130.0958 114.7434,-162.8851 100.8079,-170.0477 89.6725,-183.4429 81.7711,-195.6616"/>
<polygon fill="#000000" stroke="#000000" points="78.7621,-193.8738 76.5955,-204.2447 84.7566,-197.4885 78.7621,-193.8738"/>
<text text-anchor="middle" x="182.7434" y="-165.8851" font-family="Courier,monospace" font-weight="bold" font-size="10.00" fill="#000000">0.6666666666666666</text>
</g>
<!-- STATE_B&#45;&gt;STATE_B -->
<g id="edge6" class="edge">
<title>STATE_B&#45;&gt;STATE_B</title>
<path fill="none" stroke="#000000" d="M318.7701,-162.204C303.531,-174.1024 310.6888,-187.8851 340.2434,-187.8851 363.5639,-187.8851 372.9397,-179.3037 368.3707,-169.838"/>
<polygon fill="#000000" stroke="#000000" points="370.9259,-167.4427 361.7168,-162.204 365.649,-172.0422 370.9259,-167.4427"/>
<text text-anchor="middle" x="340.2434" y="-190.8851" font-family="Courier,monospace" font-weight="bold" font-size="10.00" fill="#000000">0.0</text>
</g>
<!-- STATE_B&#45;&gt;STATE_C -->
<g id="edge7" class="edge">
<title>STATE_B&#45;&gt;STATE_C</title>
<path fill="none" stroke="#000000" d="M357.1043,-165.0883C374.4136,-178.0294 402.5849,-197.4316 429.7434,-208.8851 477.2329,-228.9127 535.7811,-240.6051 573.6058,-246.6179"/>
<polygon fill="#000000" stroke="#000000" points="573.2833,-250.1093 583.6983,-248.1654 574.3443,-243.1902 573.2833,-250.1093"/>
<text text-anchor="middle" x="497.7434" y="-246.8851" font-family="Courier,monospace" font-weight="bold" font-size="10.00" fill="#000000">0.3333333333333333</text>
</g>
<!-- STATE_B&#45;&gt;STATE_SOURCE -->
<g id="edge8" class="edge">
<title>STATE_B&#45;&gt;STATE_SOURCE</title>
<path fill="none" stroke="#000000" d="M365.0471,-140.0875C382.6557,-132.3783 407.0954,-123.0034 429.7434,-118.8851 522.2222,-102.0691 549.439,-97.65 641.2303,-117.8851 669.5189,-124.1212 696.4054,-143.5925 714.8136,-159.7819"/>
<polygon fill="#000000" stroke="#000000" points="712.9027,-162.7763 722.6494,-166.9301 717.6204,-157.6049 712.9027,-162.7763"/>
<text text-anchor="middle" x="612.4869" y="-120.8851" font-family="Courier,monospace" font-weight="bold" font-size="10.00" fill="#000000">0.0</text>
</g>
<!-- STATE_B&#45;&gt;SYMBOL_z -->
<g id="edge19" class="edge">
<title>STATE_B&#45;&gt;SYMBOL_z</title>
<path fill="none" stroke="#000000" stroke-dasharray="5,2" d="M355.3585,-135.5598C371.9186,-118.7587 400.0962,-93.2136 429.7434,-79.8851 485.6557,-54.7486 505.4188,-67.7921 565.7434,-56.8851 569.1819,-56.2634 572.7597,-55.6016 576.3369,-54.9298"/>
<polygon fill="#000000" stroke="#000000" points="577.1306,-58.3417 586.3008,-53.0354 575.8231,-51.4649 577.1306,-58.3417"/>
<text text-anchor="middle" x="497.7434" y="-82.8851" font-family="Courier,monospace" font-weight="bold" font-size="10.00" fill="#000000">0.6666666666666666</text>
</g>
<!-- STATE_B&#45;&gt;SYMBOL_y -->
<g id="edge20" class="edge">
<title>STATE_B&#45;&gt;SYMBOL_y</title>
<path fill="none" stroke="#000000" stroke-dasharray="5,2" d="M369.0206,-148.3316C412.8932,-144.0239 498.4997,-140.0218 565.7434,-163.8851 573.4568,-166.6224 581,-171.0668 587.6985,-175.8526"/>
<polygon fill="#000000" stroke="#000000" points="585.6209,-178.6701 595.6808,-181.9944 589.8897,-173.1223 585.6209,-178.6701"/>
<text text-anchor="middle" x="497.7434" y="-166.8851" font-family="Courier,monospace" font-weight="bold" font-size="10.00" fill="#000000">0.3333333333333333</text>
</g>
<!-- STATE_C&#45;&gt;STATE_A -->
<g id="edge9" class="edge">
<title>STATE_C&#45;&gt;STATE_A</title>
<path fill="none" stroke="#000000" d="M586.3561,-256.4679C579.6586,-257.4581 572.4519,-258.3637 565.7434,-258.8851 434.1396,-269.1143 400.5887,-266.291 268.7434,-259.8851 200.0561,-256.5478 180.887,-263.7032 114.7434,-244.8851 108.7247,-243.1728 102.545,-240.706 96.731,-238.0177"/>
<polygon fill="#000000" stroke="#000000" points="97.898,-234.6895 87.3846,-233.3784 94.7856,-240.9596 97.898,-234.6895"/>
<text text-anchor="middle" x="340.2434" y="-267.8851" font-family="Courier,monospace" font-weight="bold" font-size="10.00" fill="#000000">0.0</text>
</g>
<!-- STATE_C&#45;&gt;STATE_B -->
<g id="edge10" class="edge">
<title>STATE_C&#45;&gt;STATE_B</title>
<path fill="none" stroke="#000000" d="M594.7282,-236.5823C590.9122,-232.9263 587.0398,-228.9111 583.7434,-224.8851 574.1332,-213.1477 578.397,-204.2524 565.7434,-195.8851 514.7277,-162.1503 489.6561,-187.178 429.7434,-174.8851 411.3929,-171.12 391.1626,-166.0045 374.585,-161.5539"/>
<polygon fill="#000000" stroke="#000000" points="375.3527,-158.1356 364.7845,-158.8867 373.5145,-164.89 375.3527,-158.1356"/>
<text text-anchor="middle" x="497.7434" y="-198.8851" font-family="Courier,monospace" font-weight="bold" font-size="10.00" fill="#000000">1.0</text>
</g>
<!-- STATE_C&#45;&gt;STATE_C -->
<g id="edge11" class="edge">
<title>STATE_C&#45;&gt;STATE_C</title>
<path fill="none" stroke="#000000" d="M602.3792,-268.1754C599.9419,-278.2743 603.3111,-287.8851 612.4869,-287.8851 618.3651,-287.8851 621.8603,-283.9408 622.9726,-278.4507"/>
<polygon fill="#000000" stroke="#000000" points="626.4599,-278.0399 622.5946,-268.1754 619.4646,-278.2973 626.4599,-278.0399"/>
<text text-anchor="middle" x="612.4869" y="-290.8851" font-family="Courier,monospace" font-weight="bold" font-size="10.00" fill="#000000">0.0</text>
</g>
<!-- STATE_C&#45;&gt;STATE_SOURCE -->
<g id="edge12" class="edge">
<title>STATE_C&#45;&gt;STATE_SOURCE</title>
<path fill="none" stroke="#000000" d="M636.0046,-239.2542C655.9032,-228.5671 684.6218,-213.1429 706.6968,-201.2869"/>
<polygon fill="#000000" stroke="#000000" points="708.5519,-204.2634 715.7056,-196.4484 705.2398,-198.0966 708.5519,-204.2634"/>
<text text-anchor="middle" x="670.7303" y="-228.8851" font-family="Courier,monospace" font-weight="bold" font-size="10.00" fill="#000000">0.0</text>
</g>
<!-- STATE_SOURCE&#45;&gt;STATE_A -->
<g id="edge13" class="edge">
<title>STATE_SOURCE&#45;&gt;STATE_A</title>
<path fill="none" stroke="#000000" d="M734.6167,-165.9314C724.709,-130.5691 697.2453,-52.5891 641.2303,-20.8851 559.415,25.4216 523.6211,-19.8796 429.7434,-24.8851 288.8194,-32.3992 220.1413,28.9624 114.7434,-64.8851 95.5385,-81.9855 80.1411,-153.2706 72.7554,-193.6545"/>
<polygon fill="#000000" stroke="#000000" points="69.2776,-193.2211 70.9703,-203.6798 76.1692,-194.4482 69.2776,-193.2211"/>
<text text-anchor="middle" x="497.7434" y="-27.8851" font-family="Courier,monospace" font-weight="bold" font-size="10.00" fill="#000000">1.0</text>
</g>
<!-- STATE_SOURCE&#45;&gt;STATE_B -->
<g id="edge14" class="edge">
<title>STATE_SOURCE&#45;&gt;STATE_B</title>
<path fill="none" stroke="#000000" d="M702.91,-174.7215C684.4789,-170.1279 661.6958,-164.5622 641.2303,-159.8851 607.7972,-152.2445 599.8517,-147.4601 565.7434,-143.8851 505.6283,-137.5842 490.1278,-141.1917 429.7434,-143.8851 413.2822,-144.6193 395.1685,-146.1096 379.5682,-147.607"/>
<polygon fill="#000000" stroke="#000000" points="378.8255,-144.1635 369.2208,-148.6356 379.518,-151.1291 378.8255,-144.1635"/>
<text text-anchor="middle" x="612.4869" y="-162.8851" font-family="Courier,monospace" font-weight="bold" font-size="10.00" fill="#000000">0.0</text>
</g>
<!-- STATE_SOURCE&#45;&gt;STATE_C -->
<g id="edge15" class="edge">
<title>STATE_SOURCE&#45;&gt;STATE_C</title>
<path fill="none" stroke="#000000" d="M701.9493,-185.5668C687.691,-187.6295 671.8321,-191.7678 659.2303,-199.8851 647.7201,-207.2993 650.2618,-214.5949 641.2303,-224.8851 639.9432,-226.3516 638.5864,-227.8263 637.1914,-229.289"/>
<polygon fill="#000000" stroke="#000000" points="634.657,-226.8735 630.0439,-236.4113 639.598,-231.832 634.657,-226.8735"/>
<text text-anchor="middle" x="670.7303" y="-202.8851" font-family="Courier,monospace" font-weight="bold" font-size="10.00" fill="#000000">0.0</text>
</g>
<!-- STATE_SOURCE&#45;&gt;STATE_SOURCE -->
<g id="edge16" class="edge">
<title>STATE_SOURCE&#45;&gt;STATE_SOURCE</title>
<path fill="none" stroke="#000000" d="M727.1443,-200.5492C724.4881,-210.5101 728.4724,-219.8851 739.0974,-219.8851 745.9041,-219.8851 749.9854,-216.0376 751.3414,-210.6534"/>
<polygon fill="#000000" stroke="#000000" points="754.8369,-210.4443 751.0506,-200.5492 747.8398,-210.6458 754.8369,-210.4443"/>
<text text-anchor="middle" x="739.0974" y="-222.8851" font-family="Courier,monospace" font-weight="bold" font-size="10.00" fill="#000000">0.0</text>
</g>
</g>
</svg>
