<?xml version="1.0" encoding="UTF-8" standalone="no"?>
<!DOCTYPE svg PUBLIC "-//W3C//DTD SVG 1.1//EN"
 "http://www.w3.org/Graphics/SVG/1.1/DTD/svg11.dtd">
<!-- Generated by graphviz version 2.40.1 (0)
 -->
<!-- Title: G Pages: 1 -->
<svg width="1518pt" height="321pt"
 viewBox="0.00 0.00 1517.54 320.63" xmlns="http://www.w3.org/2000/svg" xmlns:xlink="http://www.w3.org/1999/xlink">
<g id="graph0" class="graph" transform="scale(1 1) rotate(0) translate(4 316.6341)">
<title>G</title>
<polygon fill="#ffffff" stroke="transparent" points="-4,4 -4,-316.6341 1513.5391,-316.6341 1513.5391,4 -4,4"/>
<!-- (&#45;1, &#39;SINK&#39;, None) -->
<g id="node1" class="node">
<title>(&#45;1, &#39;SINK&#39;, None)</title>
<polygon fill="none" stroke="#000000" points="1423.0499,-136.5678 1428.8748,-136.6663 1434.6395,-136.8138 1440.3204,-137.0098 1445.8945,-137.2538 1451.3395,-137.5451 1456.6339,-137.8829 1461.757,-138.2663 1466.6894,-138.6943 1471.4128,-139.1657 1475.9102,-139.6791 1480.1659,-140.2332 1484.1658,-140.8264 1487.8971,-141.4572 1491.3488,-142.1238 1494.5115,-142.8244 1497.3773,-143.557 1499.9401,-144.3196 1502.1953,-145.1102 1504.1401,-145.9266 1505.7733,-146.7666 1507.0951,-147.6278 1508.1074,-148.5079 1508.8134,-149.4044 1509.2179,-150.315 1509.3267,-151.2371 1509.147,-152.1682 1508.6871,-153.1057 1507.9562,-154.0471 1506.9643,-154.9898 1505.7224,-155.9312 1504.242,-156.8687 1502.535,-157.7998 1500.614,-158.7219 1498.4916,-159.6325 1496.1808,-160.529 1493.6943,-161.4091 1491.0451,-162.2703 1488.246,-163.1102 1485.3093,-163.9266 1482.2473,-164.7173 1479.0715,-165.4799 1475.7933,-166.2125 1472.4232,-166.9131 1468.9715,-167.5797 1465.4475,-168.2104 1461.8601,-168.8037 1458.2174,-169.3578 1454.5269,-169.8712 1450.7953,-170.3426 1447.0289,-170.7706 1443.2331,-171.154 1439.4129,-171.4918 1435.5728,-171.7831 1431.7166,-172.0271 1427.8478,-172.2231 1423.9698,-172.3706 1420.0852,-172.4691 1416.1968,-172.5184 1412.3072,-172.5184 1408.4188,-172.4691 1404.5342,-172.3706 1400.6561,-172.2231 1396.7874,-172.0271 1392.9312,-171.7831 1389.0911,-171.4918 1385.2709,-171.154 1381.4751,-170.7706 1377.7087,-170.3426 1373.9771,-169.8712 1370.2866,-169.3578 1366.6439,-168.8037 1363.0564,-168.2104 1359.5325,-167.5797 1356.0807,-166.9131 1352.7107,-166.2125 1349.4325,-165.4799 1346.2567,-164.7173 1343.1946,-163.9266 1340.258,-163.1102 1337.4588,-162.2703 1334.8097,-161.4091 1332.3232,-160.529 1330.0123,-159.6325 1327.8899,-158.7219 1325.9689,-157.7998 1324.262,-156.8687 1322.7816,-155.9312 1321.5397,-154.9898 1320.5478,-154.0471 1319.8169,-153.1057 1319.357,-152.1682 1319.1773,-151.2371 1319.2861,-150.315 1319.6906,-149.4044 1320.3966,-148.5079 1321.4089,-147.6278 1322.7307,-146.7666 1324.3638,-145.9266 1326.3087,-145.1102 1328.5639,-144.3196 1331.1267,-143.557 1333.9925,-142.8244 1337.1551,-142.1238 1340.6069,-141.4572 1344.3382,-140.8264 1348.338,-140.2332 1352.5938,-139.6791 1357.0911,-139.1657 1361.8146,-138.6943 1366.747,-138.2663 1371.8701,-137.8829 1377.1645,-137.5451 1382.6095,-137.2538 1388.1836,-137.0098 1393.8645,-136.8138 1399.6292,-136.6663 1405.4541,-136.5678 1411.3153,-136.5184 1417.1887,-136.5184 1423.0499,-136.5678"/>
<text text-anchor="middle" x="1414.252" y="-152.0184" font-family="Courier,monospace" font-weight="bold" font-size="10.00" fill="#000000">(&#45;1, &#39;SINK&#39;, None)</text>
</g>
<!-- (&#45;1, &#39;SOURCE&#39;, None) -->
<g id="node2" class="node">
<title>(&#45;1, &#39;SOURCE&#39;, None)</title>
<polygon fill="none" stroke="#000000" points="114.3958,-136.5678 120.8215,-136.6663 127.1808,-136.8138 133.4477,-137.0098 139.5968,-137.2538 145.6034,-137.5451 151.4438,-137.8829 157.0954,-138.2663 162.5366,-138.6943 167.7472,-139.1657 172.7085,-139.6791 177.4031,-140.2332 181.8155,-140.8264 185.9317,-141.4572 189.7395,-142.1238 193.2284,-142.8244 196.3898,-143.557 199.2169,-144.3196 201.7047,-145.1102 203.8501,-145.9266 205.6518,-146.7666 207.1099,-147.6278 208.2266,-148.5079 209.0055,-149.4044 209.4516,-150.315 209.5717,-151.2371 209.3735,-152.1682 208.8661,-153.1057 208.0598,-154.0471 206.9656,-154.9898 205.5956,-155.9312 203.9625,-156.8687 202.0795,-157.7998 199.9604,-158.7219 197.6191,-159.6325 195.0698,-160.529 192.3269,-161.4091 189.4045,-162.2703 186.3166,-163.1102 183.077,-163.9266 179.6991,-164.7173 176.1958,-165.4799 172.5794,-166.2125 168.8618,-166.9131 165.054,-167.5797 161.1666,-168.2104 157.2091,-168.8037 153.1907,-169.3578 149.1195,-169.8712 145.003,-170.3426 140.8481,-170.7706 136.6608,-171.154 132.4466,-171.4918 128.2104,-171.7831 123.9564,-172.0271 119.6887,-172.2231 115.4106,-172.3706 111.1253,-172.4691 106.8359,-172.5184 102.545,-172.5184 98.2556,-172.4691 93.9703,-172.3706 89.6922,-172.2231 85.4245,-172.0271 81.1705,-171.7831 76.9343,-171.4918 72.7201,-171.154 68.5328,-170.7706 64.3778,-170.3426 60.2614,-169.8712 56.1902,-169.3578 52.1717,-168.8037 48.2143,-168.2104 44.3268,-167.5797 40.5191,-166.9131 36.8014,-166.2125 33.1851,-165.4799 29.6817,-164.7173 26.3038,-163.9266 23.0643,-163.1102 19.9764,-162.2703 17.054,-161.4091 14.3111,-160.529 11.7618,-159.6325 9.4205,-158.7219 7.3014,-157.7998 5.4184,-156.8687 3.7852,-155.9312 2.4153,-154.9898 1.3211,-154.0471 .5148,-153.1057 .0074,-152.1682 -.1908,-151.2371 -.0707,-150.315 .3754,-149.4044 1.1543,-148.5079 2.271,-147.6278 3.7291,-146.7666 5.5307,-145.9266 7.6762,-145.1102 10.164,-144.3196 12.9911,-143.557 16.1525,-142.8244 19.6414,-142.1238 23.4492,-141.4572 27.5654,-140.8264 31.9778,-140.2332 36.6724,-139.6791 41.6337,-139.1657 46.8443,-138.6943 52.2855,-138.2663 57.9371,-137.8829 63.7775,-137.5451 69.7841,-137.2538 75.9332,-137.0098 82.2001,-136.8138 88.5594,-136.6663 94.9851,-136.5678 101.4509,-136.5184 107.93,-136.5184 114.3958,-136.5678"/>
<text text-anchor="middle" x="104.6904" y="-152.0184" font-family="Courier,monospace" font-weight="bold" font-size="10.00" fill="#000000">(&#45;1, &#39;SOURCE&#39;, None)</text>
</g>
<!-- (0, &#39;A&#39;, &#39;y&#39;) -->
<g id="node3" class="node">
<title>(0, &#39;A&#39;, &#39;y&#39;)</title>
<polygon fill="none" stroke="#000000" points="502.3868,-163.5678 506.7632,-163.6663 511.0942,-163.8138 515.3624,-164.0098 519.5503,-164.2538 523.6412,-164.5451 527.6189,-164.8829 531.4679,-165.2663 535.1737,-165.6943 538.7225,-166.1657 542.1014,-166.6791 545.2988,-167.2332 548.3039,-167.8264 551.1073,-168.4572 553.7006,-169.1238 556.0768,-169.8244 558.2299,-170.557 560.1553,-171.3196 561.8497,-172.1102 563.3108,-172.9266 564.5379,-173.7666 565.5309,-174.6278 566.2915,-175.5079 566.8219,-176.4044 567.1258,-177.315 567.2076,-178.2371 567.0726,-179.1682 566.727,-180.1057 566.1779,-181.0471 565.4327,-181.9898 564.4996,-182.9312 563.3874,-183.8687 562.1049,-184.7998 560.6617,-185.7219 559.0671,-186.6325 557.3309,-187.529 555.4628,-188.4091 553.4724,-189.2703 551.3694,-190.1102 549.1631,-190.9266 546.8625,-191.7173 544.4765,-192.4799 542.0135,-193.2125 539.4816,-193.9131 536.8883,-194.5797 534.2407,-195.2104 531.5454,-195.8037 528.8086,-196.3578 526.0359,-196.8712 523.2323,-197.3426 520.4025,-197.7706 517.5507,-198.154 514.6806,-198.4918 511.7954,-198.7831 508.8982,-199.0271 505.9916,-199.2231 503.078,-199.3706 500.1594,-199.4691 497.238,-199.5184 494.3157,-199.5184 491.3943,-199.4691 488.4758,-199.3706 485.5622,-199.2231 482.6556,-199.0271 479.7584,-198.7831 476.8732,-198.4918 474.0031,-198.154 471.1513,-197.7706 468.3215,-197.3426 465.5179,-196.8712 462.7452,-196.3578 460.0084,-195.8037 457.3131,-195.2104 454.6655,-194.5797 452.0722,-193.9131 449.5402,-193.2125 447.0773,-192.4799 444.6913,-191.7173 442.3907,-190.9266 440.1843,-190.1102 438.0813,-189.2703 436.091,-188.4091 434.2229,-187.529 432.4867,-186.6325 430.8921,-185.7219 429.4488,-184.7998 428.1664,-183.8687 427.0541,-182.9312 426.1211,-181.9898 425.3759,-181.0471 424.8267,-180.1057 424.4812,-179.1682 424.3462,-178.2371 424.428,-177.315 424.7318,-176.4044 425.2623,-175.5079 426.0228,-174.6278 427.0159,-173.7666 428.2429,-172.9266 429.7041,-172.1102 431.3985,-171.3196 433.3239,-170.557 435.477,-169.8244 437.8532,-169.1238 440.4465,-168.4572 443.2499,-167.8264 446.255,-167.2332 449.4524,-166.6791 452.8313,-166.1657 456.3801,-165.6943 460.0858,-165.2663 463.9349,-164.8829 467.9126,-164.5451 472.0035,-164.2538 476.1914,-164.0098 480.4595,-163.8138 484.7906,-163.6663 489.1669,-163.5678 493.5705,-163.5184 497.9832,-163.5184 502.3868,-163.5678"/>
<text text-anchor="middle" x="495.7769" y="-179.0184" font-family="Courier,monospace" font-weight="bold" font-size="10.00" fill="#000000">(0, &#39;A&#39;, &#39;y&#39;)</text>
</g>
<!-- (&#45;1, &#39;SOURCE&#39;, None)&#45;&gt;(0, &#39;A&#39;, &#39;y&#39;) -->
<g id="edge1" class="edge">
<title>(&#45;1, &#39;SOURCE&#39;, None)&#45;&gt;(0, &#39;A&#39;, &#39;y&#39;)</title>
<path fill="none" stroke="#000000" d="M194.9046,-160.7467C261.1764,-165.322 350.4548,-171.4856 414.5183,-175.9085"/>
<polygon fill="#000000" stroke="#000000" points="414.3588,-179.4057 424.5762,-176.6029 414.841,-172.4223 414.3588,-179.4057"/>
</g>
<!-- (0, &#39;A&#39;, &#39;z&#39;) -->
<g id="node4" class="node">
<title>(0, &#39;A&#39;, &#39;z&#39;)</title>
<polygon fill="none" stroke="#000000" points="502.3868,-217.5678 506.7632,-217.6663 511.0942,-217.8138 515.3624,-218.0098 519.5503,-218.2538 523.6412,-218.5451 527.6189,-218.8829 531.4679,-219.2663 535.1737,-219.6943 538.7225,-220.1657 542.1014,-220.6791 545.2988,-221.2332 548.3039,-221.8264 551.1073,-222.4572 553.7006,-223.1238 556.0768,-223.8244 558.2299,-224.557 560.1553,-225.3196 561.8497,-226.1102 563.3108,-226.9266 564.5379,-227.7666 565.5309,-228.6278 566.2915,-229.5079 566.8219,-230.4044 567.1258,-231.315 567.2076,-232.2371 567.0726,-233.1682 566.727,-234.1057 566.1779,-235.0471 565.4327,-235.9898 564.4996,-236.9312 563.3874,-237.8687 562.1049,-238.7998 560.6617,-239.7219 559.0671,-240.6325 557.3309,-241.529 555.4628,-242.4091 553.4724,-243.2703 551.3694,-244.1102 549.1631,-244.9266 546.8625,-245.7173 544.4765,-246.4799 542.0135,-247.2125 539.4816,-247.9131 536.8883,-248.5797 534.2407,-249.2104 531.5454,-249.8037 528.8086,-250.3578 526.0359,-250.8712 523.2323,-251.3426 520.4025,-251.7706 517.5507,-252.154 514.6806,-252.4918 511.7954,-252.7831 508.8982,-253.0271 505.9916,-253.2231 503.078,-253.3706 500.1594,-253.4691 497.238,-253.5184 494.3157,-253.5184 491.3943,-253.4691 488.4758,-253.3706 485.5622,-253.2231 482.6556,-253.0271 479.7584,-252.7831 476.8732,-252.4918 474.0031,-252.154 471.1513,-251.7706 468.3215,-251.3426 465.5179,-250.8712 462.7452,-250.3578 460.0084,-249.8037 457.3131,-249.2104 454.6655,-248.5797 452.0722,-247.9131 449.5402,-247.2125 447.0773,-246.4799 444.6913,-245.7173 442.3907,-244.9266 440.1843,-244.1102 438.0813,-243.2703 436.091,-242.4091 434.2229,-241.529 432.4867,-240.6325 430.8921,-239.7219 429.4488,-238.7998 428.1664,-237.8687 427.0541,-236.9312 426.1211,-235.9898 425.3759,-235.0471 424.8267,-234.1057 424.4812,-233.1682 424.3462,-232.2371 424.428,-231.315 424.7318,-230.4044 425.2623,-229.5079 426.0228,-228.6278 427.0159,-227.7666 428.2429,-226.9266 429.7041,-226.1102 431.3985,-225.3196 433.3239,-224.557 435.477,-223.8244 437.8532,-223.1238 440.4465,-222.4572 443.2499,-221.8264 446.255,-221.2332 449.4524,-220.6791 452.8313,-220.1657 456.3801,-219.6943 460.0858,-219.2663 463.9349,-218.8829 467.9126,-218.5451 472.0035,-218.2538 476.1914,-218.0098 480.4595,-217.8138 484.7906,-217.6663 489.1669,-217.5678 493.5705,-217.5184 497.9832,-217.5184 502.3868,-217.5678"/>
<text text-anchor="middle" x="495.7769" y="-233.0184" font-family="Courier,monospace" font-weight="bold" font-size="10.00" fill="#000000">(0, &#39;A&#39;, &#39;z&#39;)</text>
</g>
<!-- (&#45;1, &#39;SOURCE&#39;, None)&#45;&gt;(0, &#39;A&#39;, &#39;z&#39;) -->
<g id="edge2" class="edge">
<title>(&#45;1, &#39;SOURCE&#39;, None)&#45;&gt;(0, &#39;A&#39;, &#39;z&#39;)</title>
<path fill="none" stroke="#000000" d="M166.6593,-167.3531C237.5253,-182.0306 353.2257,-205.9939 426.8716,-221.2471"/>
<polygon fill="#000000" stroke="#000000" points="426.4731,-224.7388 436.9752,-223.3397 427.8929,-217.8843 426.4731,-224.7388"/>
</g>
<!-- (0, &#39;B&#39;, &#39;y&#39;) -->
<g id="node5" class="node">
<title>(0, &#39;B&#39;, &#39;y&#39;)</title>
<polygon fill="none" stroke="#000000" points="323.4562,-113.5678 327.8325,-113.6663 332.1636,-113.8138 336.4317,-114.0098 340.6196,-114.2538 344.7105,-114.5451 348.6882,-114.8829 352.5373,-115.2663 356.243,-115.6943 359.7918,-116.1657 363.1707,-116.6791 366.3681,-117.2332 369.3732,-117.8264 372.1766,-118.4572 374.7699,-119.1238 377.1461,-119.8244 379.2992,-120.557 381.2246,-121.3196 382.919,-122.1102 384.3802,-122.9266 385.6072,-123.7666 386.6003,-124.6278 387.3608,-125.5079 387.8913,-126.4044 388.1951,-127.315 388.2769,-128.2371 388.1419,-129.1682 387.7964,-130.1057 387.2472,-131.0471 386.502,-131.9898 385.569,-132.9312 384.4567,-133.8687 383.1743,-134.7998 381.731,-135.7219 380.1364,-136.6325 378.4002,-137.529 376.5321,-138.4091 374.5418,-139.2703 372.4388,-140.1102 370.2324,-140.9266 367.9318,-141.7173 365.5458,-142.4799 363.0829,-143.2125 360.5509,-143.9131 357.9576,-144.5797 355.31,-145.2104 352.6147,-145.8037 349.8779,-146.3578 347.1052,-146.8712 344.3016,-147.3426 341.4718,-147.7706 338.62,-148.154 335.7499,-148.4918 332.8647,-148.7831 329.9676,-149.0271 327.0609,-149.2231 324.1473,-149.3706 321.2288,-149.4691 318.3074,-149.5184 315.3851,-149.5184 312.4637,-149.4691 309.5451,-149.3706 306.6315,-149.2231 303.7249,-149.0271 300.8277,-148.7831 297.9425,-148.4918 295.0724,-148.154 292.2206,-147.7706 289.3908,-147.3426 286.5872,-146.8712 283.8145,-146.3578 281.0777,-145.8037 278.3824,-145.2104 275.7348,-144.5797 273.1415,-143.9131 270.6096,-143.2125 268.1466,-142.4799 265.7606,-141.7173 263.46,-140.9266 261.2537,-140.1102 259.1507,-139.2703 257.1603,-138.4091 255.2922,-137.529 253.556,-136.6325 251.9614,-135.7219 250.5182,-134.7998 249.2357,-133.8687 248.1235,-132.9312 247.1904,-131.9898 246.4452,-131.0471 245.8961,-130.1057 245.5505,-129.1682 245.4155,-128.2371 245.4973,-127.315 245.8012,-126.4044 246.3316,-125.5079 247.0922,-124.6278 248.0852,-123.7666 249.3123,-122.9266 250.7734,-122.1102 252.4678,-121.3196 254.3932,-120.557 256.5463,-119.8244 258.9225,-119.1238 261.5158,-118.4572 264.3192,-117.8264 267.3243,-117.2332 270.5217,-116.6791 273.9006,-116.1657 277.4494,-115.6943 281.1552,-115.2663 285.0042,-114.8829 288.982,-114.5451 293.0728,-114.2538 297.2607,-114.0098 301.5289,-113.8138 305.8599,-113.6663 310.2363,-113.5678 314.6399,-113.5184 319.0526,-113.5184 323.4562,-113.5678"/>
<text text-anchor="middle" x="316.8462" y="-129.0184" font-family="Courier,monospace" font-weight="bold" font-size="10.00" fill="#000000">(0, &#39;B&#39;, &#39;y&#39;)</text>
</g>
<!-- (&#45;1, &#39;SOURCE&#39;, None)&#45;&gt;(0, &#39;B&#39;, &#39;y&#39;) -->
<g id="edge3" class="edge">
<title>(&#45;1, &#39;SOURCE&#39;, None)&#45;&gt;(0, &#39;B&#39;, &#39;y&#39;)</title>
<path fill="none" stroke="#000000" d="M199.2897,-144.2629C215.0011,-142.5596 231.0523,-140.8194 246.043,-139.1943"/>
<polygon fill="#000000" stroke="#000000" points="246.67,-142.6469 256.2345,-138.0894 245.9155,-135.6877 246.67,-142.6469"/>
</g>
<!-- (0, &#39;B&#39;, &#39;z&#39;) -->
<g id="node6" class="node">
<title>(0, &#39;B&#39;, &#39;z&#39;)</title>
<polygon fill="none" stroke="#000000" points="323.4562,-59.5678 327.8325,-59.6663 332.1636,-59.8138 336.4317,-60.0098 340.6196,-60.2538 344.7105,-60.5451 348.6882,-60.8829 352.5373,-61.2663 356.243,-61.6943 359.7918,-62.1657 363.1707,-62.6791 366.3681,-63.2332 369.3732,-63.8264 372.1766,-64.4572 374.7699,-65.1238 377.1461,-65.8244 379.2992,-66.557 381.2246,-67.3196 382.919,-68.1102 384.3802,-68.9266 385.6072,-69.7666 386.6003,-70.6278 387.3608,-71.5079 387.8913,-72.4044 388.1951,-73.315 388.2769,-74.2371 388.1419,-75.1682 387.7964,-76.1057 387.2472,-77.0471 386.502,-77.9898 385.569,-78.9312 384.4567,-79.8687 383.1743,-80.7998 381.731,-81.7219 380.1364,-82.6325 378.4002,-83.529 376.5321,-84.4091 374.5418,-85.2703 372.4388,-86.1102 370.2324,-86.9266 367.9318,-87.7173 365.5458,-88.4799 363.0829,-89.2125 360.5509,-89.9131 357.9576,-90.5797 355.31,-91.2104 352.6147,-91.8037 349.8779,-92.3578 347.1052,-92.8712 344.3016,-93.3426 341.4718,-93.7706 338.62,-94.154 335.7499,-94.4918 332.8647,-94.7831 329.9676,-95.0271 327.0609,-95.2231 324.1473,-95.3706 321.2288,-95.4691 318.3074,-95.5184 315.3851,-95.5184 312.4637,-95.4691 309.5451,-95.3706 306.6315,-95.2231 303.7249,-95.0271 300.8277,-94.7831 297.9425,-94.4918 295.0724,-94.154 292.2206,-93.7706 289.3908,-93.3426 286.5872,-92.8712 283.8145,-92.3578 281.0777,-91.8037 278.3824,-91.2104 275.7348,-90.5797 273.1415,-89.9131 270.6096,-89.2125 268.1466,-88.4799 265.7606,-87.7173 263.46,-86.9266 261.2537,-86.1102 259.1507,-85.2703 257.1603,-84.4091 255.2922,-83.529 253.556,-82.6325 251.9614,-81.7219 250.5182,-80.7998 249.2357,-79.8687 248.1235,-78.9312 247.1904,-77.9898 246.4452,-77.0471 245.8961,-76.1057 245.5505,-75.1682 245.4155,-74.2371 245.4973,-73.315 245.8012,-72.4044 246.3316,-71.5079 247.0922,-70.6278 248.0852,-69.7666 249.3123,-68.9266 250.7734,-68.1102 252.4678,-67.3196 254.3932,-66.557 256.5463,-65.8244 258.9225,-65.1238 261.5158,-64.4572 264.3192,-63.8264 267.3243,-63.2332 270.5217,-62.6791 273.9006,-62.1657 277.4494,-61.6943 281.1552,-61.2663 285.0042,-60.8829 288.982,-60.5451 293.0728,-60.2538 297.2607,-60.0098 301.5289,-59.8138 305.8599,-59.6663 310.2363,-59.5678 314.6399,-59.5184 319.0526,-59.5184 323.4562,-59.5678"/>
<text text-anchor="middle" x="316.8462" y="-75.0184" font-family="Courier,monospace" font-weight="bold" font-size="10.00" fill="#000000">(0, &#39;B&#39;, &#39;z&#39;)</text>
</g>
<!-- (&#45;1, &#39;SOURCE&#39;, None)&#45;&gt;(0, &#39;B&#39;, &#39;z&#39;) -->
<g id="edge4" class="edge">
<title>(&#45;1, &#39;SOURCE&#39;, None)&#45;&gt;(0, &#39;B&#39;, &#39;z&#39;)</title>
<path fill="none" stroke="#000000" d="M150.7251,-137.8106C185.7033,-125.1156 233.6686,-107.707 269.0686,-94.8589"/>
<polygon fill="#000000" stroke="#000000" points="270.4929,-98.0654 278.6988,-91.3637 268.1047,-91.4854 270.4929,-98.0654"/>
</g>
<!-- (1, &#39;A&#39;, &#39;y&#39;) -->
<g id="node9" class="node">
<title>(1, &#39;A&#39;, &#39;y&#39;)</title>
<polygon fill="none" stroke="#000000" points="681.3175,-32.5678 685.6938,-32.6663 690.0249,-32.8138 694.293,-33.0098 698.4809,-33.2538 702.5718,-33.5451 706.5495,-33.8829 710.3986,-34.2663 714.1044,-34.6943 717.6531,-35.1657 721.0321,-35.6791 724.2294,-36.2332 727.2346,-36.8264 730.0379,-37.4572 732.6313,-38.1238 735.0074,-38.8244 737.1605,-39.557 739.086,-40.3196 740.7803,-41.1102 742.2415,-41.9266 743.4685,-42.7666 744.4616,-43.6278 745.2221,-44.5079 745.7526,-45.4044 746.0565,-46.315 746.1382,-47.2371 746.0032,-48.1682 745.6577,-49.1057 745.1085,-50.0471 744.3634,-50.9898 743.4303,-51.9312 742.318,-52.8687 741.0356,-53.7998 739.5923,-54.7219 737.9977,-55.6325 736.2616,-56.529 734.3935,-57.4091 732.4031,-58.2703 730.3001,-59.1102 728.0937,-59.9266 725.7932,-60.7173 723.4072,-61.4799 720.9442,-62.2125 718.4123,-62.9131 715.8189,-63.5797 713.1713,-64.2104 710.4761,-64.8037 707.7393,-65.3578 704.9665,-65.8712 702.163,-66.3426 699.3332,-66.7706 696.4814,-67.154 693.6112,-67.4918 690.7261,-67.7831 687.8289,-68.0271 684.9223,-68.2231 682.0086,-68.3706 679.0901,-68.4691 676.1687,-68.5184 673.2464,-68.5184 670.325,-68.4691 667.4065,-68.3706 664.4928,-68.2231 661.5862,-68.0271 658.689,-67.7831 655.8039,-67.4918 652.9337,-67.154 650.0819,-66.7706 647.2521,-66.3426 644.4486,-65.8712 641.6758,-65.3578 638.939,-64.8037 636.2438,-64.2104 633.5962,-63.5797 631.0028,-62.9131 628.4709,-62.2125 626.0079,-61.4799 623.6219,-60.7173 621.3214,-59.9266 619.115,-59.1102 617.012,-58.2703 615.0216,-57.4091 613.1535,-56.529 611.4174,-55.6325 609.8228,-54.7219 608.3795,-53.7998 607.0971,-52.8687 605.9848,-51.9312 605.0517,-50.9898 604.3066,-50.0471 603.7574,-49.1057 603.4119,-48.1682 603.2769,-47.2371 603.3586,-46.315 603.6625,-45.4044 604.193,-44.5079 604.9535,-43.6278 605.9466,-42.7666 607.1736,-41.9266 608.6348,-41.1102 610.3291,-40.3196 612.2546,-39.557 614.4077,-38.8244 616.7838,-38.1238 619.3772,-37.4572 622.1805,-36.8264 625.1857,-36.2332 628.383,-35.6791 631.762,-35.1657 635.3107,-34.6943 639.0165,-34.2663 642.8656,-33.8829 646.8433,-33.5451 650.9342,-33.2538 655.1221,-33.0098 659.3902,-32.8138 663.7213,-32.6663 668.0976,-32.5678 672.5012,-32.5184 676.9139,-32.5184 681.3175,-32.5678"/>
<text text-anchor="middle" x="674.7075" y="-48.0184" font-family="Courier,monospace" font-weight="bold" font-size="10.00" fill="#000000">(1, &#39;A&#39;, &#39;y&#39;)</text>
</g>
<!-- (0, &#39;A&#39;, &#39;y&#39;)&#45;&gt;(1, &#39;A&#39;, &#39;y&#39;) -->
<g id="edge5" class="edge">
<title>(0, &#39;A&#39;, &#39;y&#39;)&#45;&gt;(1, &#39;A&#39;, &#39;y&#39;)</title>
<path fill="none" stroke="#000000" d="M545.9822,-167.1542C553.5391,-163.7248 560.9108,-159.5553 567.2422,-154.5184 589.815,-136.561 583.0767,-121.1425 603.2422,-100.5184 613.6349,-89.8895 626.5664,-80.0596 638.5612,-71.979"/>
<polygon fill="#000000" stroke="#000000" points="640.6196,-74.8151 647.08,-66.4178 636.7931,-68.9535 640.6196,-74.8151"/>
</g>
<!-- (1, &#39;A&#39;, &#39;z&#39;) -->
<g id="node10" class="node">
<title>(1, &#39;A&#39;, &#39;z&#39;)</title>
<polygon fill="none" stroke="#000000" points="681.3175,-240.5678 685.6938,-240.6663 690.0249,-240.8138 694.293,-241.0098 698.4809,-241.2538 702.5718,-241.5451 706.5495,-241.8829 710.3986,-242.2663 714.1044,-242.6943 717.6531,-243.1657 721.0321,-243.6791 724.2294,-244.2332 727.2346,-244.8264 730.0379,-245.4572 732.6313,-246.1238 735.0074,-246.8244 737.1605,-247.557 739.086,-248.3196 740.7803,-249.1102 742.2415,-249.9266 743.4685,-250.7666 744.4616,-251.6278 745.2221,-252.5079 745.7526,-253.4044 746.0565,-254.315 746.1382,-255.2371 746.0032,-256.1682 745.6577,-257.1057 745.1085,-258.0471 744.3634,-258.9898 743.4303,-259.9312 742.318,-260.8687 741.0356,-261.7998 739.5923,-262.7219 737.9977,-263.6325 736.2616,-264.529 734.3935,-265.4091 732.4031,-266.2703 730.3001,-267.1102 728.0937,-267.9266 725.7932,-268.7173 723.4072,-269.4799 720.9442,-270.2125 718.4123,-270.9131 715.8189,-271.5797 713.1713,-272.2104 710.4761,-272.8037 707.7393,-273.3578 704.9665,-273.8712 702.163,-274.3426 699.3332,-274.7706 696.4814,-275.154 693.6112,-275.4918 690.7261,-275.7831 687.8289,-276.0271 684.9223,-276.2231 682.0086,-276.3706 679.0901,-276.4691 676.1687,-276.5184 673.2464,-276.5184 670.325,-276.4691 667.4065,-276.3706 664.4928,-276.2231 661.5862,-276.0271 658.689,-275.7831 655.8039,-275.4918 652.9337,-275.154 650.0819,-274.7706 647.2521,-274.3426 644.4486,-273.8712 641.6758,-273.3578 638.939,-272.8037 636.2438,-272.2104 633.5962,-271.5797 631.0028,-270.9131 628.4709,-270.2125 626.0079,-269.4799 623.6219,-268.7173 621.3214,-267.9266 619.115,-267.1102 617.012,-266.2703 615.0216,-265.4091 613.1535,-264.529 611.4174,-263.6325 609.8228,-262.7219 608.3795,-261.7998 607.0971,-260.8687 605.9848,-259.9312 605.0517,-258.9898 604.3066,-258.0471 603.7574,-257.1057 603.4119,-256.1682 603.2769,-255.2371 603.3586,-254.315 603.6625,-253.4044 604.193,-252.5079 604.9535,-251.6278 605.9466,-250.7666 607.1736,-249.9266 608.6348,-249.1102 610.3291,-248.3196 612.2546,-247.557 614.4077,-246.8244 616.7838,-246.1238 619.3772,-245.4572 622.1805,-244.8264 625.1857,-244.2332 628.383,-243.6791 631.762,-243.1657 635.3107,-242.6943 639.0165,-242.2663 642.8656,-241.8829 646.8433,-241.5451 650.9342,-241.2538 655.1221,-241.0098 659.3902,-240.8138 663.7213,-240.6663 668.0976,-240.5678 672.5012,-240.5184 676.9139,-240.5184 681.3175,-240.5678"/>
<text text-anchor="middle" x="674.7075" y="-256.0184" font-family="Courier,monospace" font-weight="bold" font-size="10.00" fill="#000000">(1, &#39;A&#39;, &#39;z&#39;)</text>
</g>
<!-- (0, &#39;A&#39;, &#39;y&#39;)&#45;&gt;(1, &#39;A&#39;, &#39;z&#39;) -->
<g id="edge6" class="edge">
<title>(0, &#39;A&#39;, &#39;y&#39;)&#45;&gt;(1, &#39;A&#39;, &#39;z&#39;)</title>
<path fill="none" stroke="#000000" d="M534.1858,-195.431C544.9463,-199.4905 556.6068,-204.0425 567.2422,-208.5184 588.5944,-217.5045 611.9494,-228.2566 631.4165,-237.4836"/>
<polygon fill="#000000" stroke="#000000" points="630.1018,-240.7342 640.6349,-241.8763 633.113,-234.4149 630.1018,-240.7342"/>
</g>
<!-- (1, &#39;B&#39;, &#39;y&#39;) -->
<g id="node11" class="node">
<title>(1, &#39;B&#39;, &#39;y&#39;)</title>
<polygon fill="none" stroke="#000000" points="681.3175,-109.5678 685.6938,-109.6663 690.0249,-109.8138 694.293,-110.0098 698.4809,-110.2538 702.5718,-110.5451 706.5495,-110.8829 710.3986,-111.2663 714.1044,-111.6943 717.6531,-112.1657 721.0321,-112.6791 724.2294,-113.2332 727.2346,-113.8264 730.0379,-114.4572 732.6313,-115.1238 735.0074,-115.8244 737.1605,-116.557 739.086,-117.3196 740.7803,-118.1102 742.2415,-118.9266 743.4685,-119.7666 744.4616,-120.6278 745.2221,-121.5079 745.7526,-122.4044 746.0565,-123.315 746.1382,-124.2371 746.0032,-125.1682 745.6577,-126.1057 745.1085,-127.0471 744.3634,-127.9898 743.4303,-128.9312 742.318,-129.8687 741.0356,-130.7998 739.5923,-131.7219 737.9977,-132.6325 736.2616,-133.529 734.3935,-134.4091 732.4031,-135.2703 730.3001,-136.1102 728.0937,-136.9266 725.7932,-137.7173 723.4072,-138.4799 720.9442,-139.2125 718.4123,-139.9131 715.8189,-140.5797 713.1713,-141.2104 710.4761,-141.8037 707.7393,-142.3578 704.9665,-142.8712 702.163,-143.3426 699.3332,-143.7706 696.4814,-144.154 693.6112,-144.4918 690.7261,-144.7831 687.8289,-145.0271 684.9223,-145.2231 682.0086,-145.3706 679.0901,-145.4691 676.1687,-145.5184 673.2464,-145.5184 670.325,-145.4691 667.4065,-145.3706 664.4928,-145.2231 661.5862,-145.0271 658.689,-144.7831 655.8039,-144.4918 652.9337,-144.154 650.0819,-143.7706 647.2521,-143.3426 644.4486,-142.8712 641.6758,-142.3578 638.939,-141.8037 636.2438,-141.2104 633.5962,-140.5797 631.0028,-139.9131 628.4709,-139.2125 626.0079,-138.4799 623.6219,-137.7173 621.3214,-136.9266 619.115,-136.1102 617.012,-135.2703 615.0216,-134.4091 613.1535,-133.529 611.4174,-132.6325 609.8228,-131.7219 608.3795,-130.7998 607.0971,-129.8687 605.9848,-128.9312 605.0517,-127.9898 604.3066,-127.0471 603.7574,-126.1057 603.4119,-125.1682 603.2769,-124.2371 603.3586,-123.315 603.6625,-122.4044 604.193,-121.5079 604.9535,-120.6278 605.9466,-119.7666 607.1736,-118.9266 608.6348,-118.1102 610.3291,-117.3196 612.2546,-116.557 614.4077,-115.8244 616.7838,-115.1238 619.3772,-114.4572 622.1805,-113.8264 625.1857,-113.2332 628.383,-112.6791 631.762,-112.1657 635.3107,-111.6943 639.0165,-111.2663 642.8656,-110.8829 646.8433,-110.5451 650.9342,-110.2538 655.1221,-110.0098 659.3902,-109.8138 663.7213,-109.6663 668.0976,-109.5678 672.5012,-109.5184 676.9139,-109.5184 681.3175,-109.5678"/>
<text text-anchor="middle" x="674.7075" y="-125.0184" font-family="Courier,monospace" font-weight="bold" font-size="10.00" fill="#000000">(1, &#39;B&#39;, &#39;y&#39;)</text>
</g>
<!-- (0, &#39;A&#39;, &#39;y&#39;)&#45;&gt;(1, &#39;B&#39;, &#39;y&#39;) -->
<g id="edge7" class="edge">
<title>(0, &#39;A&#39;, &#39;y&#39;)&#45;&gt;(1, &#39;B&#39;, &#39;y&#39;)</title>
<path fill="none" stroke="#000000" d="M544.1981,-166.9053C568.5024,-159.5704 597.9662,-150.6784 622.7441,-143.2006"/>
<polygon fill="#000000" stroke="#000000" points="623.7784,-146.5445 632.3407,-140.3045 621.7559,-139.843 623.7784,-146.5445"/>
</g>
<!-- (1, &#39;B&#39;, &#39;z&#39;) -->
<g id="node12" class="node">
<title>(1, &#39;B&#39;, &#39;z&#39;)</title>
<polygon fill="none" stroke="#000000" points="681.3175,-163.5678 685.6938,-163.6663 690.0249,-163.8138 694.293,-164.0098 698.4809,-164.2538 702.5718,-164.5451 706.5495,-164.8829 710.3986,-165.2663 714.1044,-165.6943 717.6531,-166.1657 721.0321,-166.6791 724.2294,-167.2332 727.2346,-167.8264 730.0379,-168.4572 732.6313,-169.1238 735.0074,-169.8244 737.1605,-170.557 739.086,-171.3196 740.7803,-172.1102 742.2415,-172.9266 743.4685,-173.7666 744.4616,-174.6278 745.2221,-175.5079 745.7526,-176.4044 746.0565,-177.315 746.1382,-178.2371 746.0032,-179.1682 745.6577,-180.1057 745.1085,-181.0471 744.3634,-181.9898 743.4303,-182.9312 742.318,-183.8687 741.0356,-184.7998 739.5923,-185.7219 737.9977,-186.6325 736.2616,-187.529 734.3935,-188.4091 732.4031,-189.2703 730.3001,-190.1102 728.0937,-190.9266 725.7932,-191.7173 723.4072,-192.4799 720.9442,-193.2125 718.4123,-193.9131 715.8189,-194.5797 713.1713,-195.2104 710.4761,-195.8037 707.7393,-196.3578 704.9665,-196.8712 702.163,-197.3426 699.3332,-197.7706 696.4814,-198.154 693.6112,-198.4918 690.7261,-198.7831 687.8289,-199.0271 684.9223,-199.2231 682.0086,-199.3706 679.0901,-199.4691 676.1687,-199.5184 673.2464,-199.5184 670.325,-199.4691 667.4065,-199.3706 664.4928,-199.2231 661.5862,-199.0271 658.689,-198.7831 655.8039,-198.4918 652.9337,-198.154 650.0819,-197.7706 647.2521,-197.3426 644.4486,-196.8712 641.6758,-196.3578 638.939,-195.8037 636.2438,-195.2104 633.5962,-194.5797 631.0028,-193.9131 628.4709,-193.2125 626.0079,-192.4799 623.6219,-191.7173 621.3214,-190.9266 619.115,-190.1102 617.012,-189.2703 615.0216,-188.4091 613.1535,-187.529 611.4174,-186.6325 609.8228,-185.7219 608.3795,-184.7998 607.0971,-183.8687 605.9848,-182.9312 605.0517,-181.9898 604.3066,-181.0471 603.7574,-180.1057 603.4119,-179.1682 603.2769,-178.2371 603.3586,-177.315 603.6625,-176.4044 604.193,-175.5079 604.9535,-174.6278 605.9466,-173.7666 607.1736,-172.9266 608.6348,-172.1102 610.3291,-171.3196 612.2546,-170.557 614.4077,-169.8244 616.7838,-169.1238 619.3772,-168.4572 622.1805,-167.8264 625.1857,-167.2332 628.383,-166.6791 631.762,-166.1657 635.3107,-165.6943 639.0165,-165.2663 642.8656,-164.8829 646.8433,-164.5451 650.9342,-164.2538 655.1221,-164.0098 659.3902,-163.8138 663.7213,-163.6663 668.0976,-163.5678 672.5012,-163.5184 676.9139,-163.5184 681.3175,-163.5678"/>
<text text-anchor="middle" x="674.7075" y="-179.0184" font-family="Courier,monospace" font-weight="bold" font-size="10.00" fill="#000000">(1, &#39;B&#39;, &#39;z&#39;)</text>
</g>
<!-- (0, &#39;A&#39;, &#39;y&#39;)&#45;&gt;(1, &#39;B&#39;, &#39;z&#39;) -->
<g id="edge8" class="edge">
<title>(0, &#39;A&#39;, &#39;y&#39;)&#45;&gt;(1, &#39;B&#39;, &#39;z&#39;)</title>
<path fill="none" stroke="#000000" d="M565.9815,-181.5184C575.2566,-181.5184 584.8218,-181.5184 594.252,-181.5184"/>
<polygon fill="#000000" stroke="#000000" points="594.4118,-185.0185 604.4117,-181.5184 594.4117,-178.0185 594.4118,-185.0185"/>
</g>
<!-- (0, &#39;A&#39;, &#39;z&#39;)&#45;&gt;(1, &#39;A&#39;, &#39;y&#39;) -->
<g id="edge9" class="edge">
<title>(0, &#39;A&#39;, &#39;z&#39;)&#45;&gt;(1, &#39;A&#39;, &#39;y&#39;)</title>
<path fill="none" stroke="#000000" d="M548.6936,-221.8181C555.554,-218.3303 562.0031,-213.9686 567.2422,-208.5184 602.3062,-172.0422 572.9844,-141.0705 603.2422,-100.5184 611.8406,-88.9947 623.8924,-79.1408 635.6528,-71.3033"/>
<polygon fill="#000000" stroke="#000000" points="637.5276,-74.2589 644.1112,-65.9578 633.788,-68.3415 637.5276,-74.2589"/>
</g>
<!-- (0, &#39;A&#39;, &#39;z&#39;)&#45;&gt;(1, &#39;A&#39;, &#39;z&#39;) -->
<g id="edge10" class="edge">
<title>(0, &#39;A&#39;, &#39;z&#39;)&#45;&gt;(1, &#39;A&#39;, &#39;z&#39;)</title>
<path fill="none" stroke="#000000" d="M554.3655,-243.0495C567.9799,-244.7995 582.6817,-246.6893 596.9768,-248.5268"/>
<polygon fill="#000000" stroke="#000000" points="596.928,-252.0493 607.2926,-249.8528 597.8205,-245.1064 596.928,-252.0493"/>
</g>
<!-- (0, &#39;A&#39;, &#39;z&#39;)&#45;&gt;(1, &#39;B&#39;, &#39;y&#39;) -->
<g id="edge11" class="edge">
<title>(0, &#39;A&#39;, &#39;z&#39;)&#45;&gt;(1, &#39;B&#39;, &#39;y&#39;)</title>
<path fill="none" stroke="#000000" d="M545.9822,-221.1542C553.5391,-217.7248 560.9108,-213.5553 567.2422,-208.5184 589.815,-190.561 580.6694,-172.4758 603.2422,-154.5184 608.4724,-150.3576 614.4126,-146.7887 620.5805,-143.7399"/>
<polygon fill="#000000" stroke="#000000" points="622.0336,-146.9242 629.7241,-139.6368 619.1677,-140.5377 622.0336,-146.9242"/>
</g>
<!-- (0, &#39;A&#39;, &#39;z&#39;)&#45;&gt;(1, &#39;B&#39;, &#39;z&#39;) -->
<g id="edge12" class="edge">
<title>(0, &#39;A&#39;, &#39;z&#39;)&#45;&gt;(1, &#39;B&#39;, &#39;z&#39;)</title>
<path fill="none" stroke="#000000" d="M544.1981,-220.9053C568.5024,-213.5704 597.9662,-204.6784 622.7441,-197.2006"/>
<polygon fill="#000000" stroke="#000000" points="623.7784,-200.5445 632.3407,-194.3045 621.7559,-193.843 623.7784,-200.5445"/>
</g>
<!-- (0, &#39;C&#39;, &#39;y&#39;) -->
<g id="node7" class="node">
<title>(0, &#39;C&#39;, &#39;y&#39;)</title>
<polygon fill="none" stroke="#000000" points="502.3868,-55.5678 506.7632,-55.6663 511.0942,-55.8138 515.3624,-56.0098 519.5503,-56.2538 523.6412,-56.5451 527.6189,-56.8829 531.4679,-57.2663 535.1737,-57.6943 538.7225,-58.1657 542.1014,-58.6791 545.2988,-59.2332 548.3039,-59.8264 551.1073,-60.4572 553.7006,-61.1238 556.0768,-61.8244 558.2299,-62.557 560.1553,-63.3196 561.8497,-64.1102 563.3108,-64.9266 564.5379,-65.7666 565.5309,-66.6278 566.2915,-67.5079 566.8219,-68.4044 567.1258,-69.315 567.2076,-70.2371 567.0726,-71.1682 566.727,-72.1057 566.1779,-73.0471 565.4327,-73.9898 564.4996,-74.9312 563.3874,-75.8687 562.1049,-76.7998 560.6617,-77.7219 559.0671,-78.6325 557.3309,-79.529 555.4628,-80.4091 553.4724,-81.2703 551.3694,-82.1102 549.1631,-82.9266 546.8625,-83.7173 544.4765,-84.4799 542.0135,-85.2125 539.4816,-85.9131 536.8883,-86.5797 534.2407,-87.2104 531.5454,-87.8037 528.8086,-88.3578 526.0359,-88.8712 523.2323,-89.3426 520.4025,-89.7706 517.5507,-90.154 514.6806,-90.4918 511.7954,-90.7831 508.8982,-91.0271 505.9916,-91.2231 503.078,-91.3706 500.1594,-91.4691 497.238,-91.5184 494.3157,-91.5184 491.3943,-91.4691 488.4758,-91.3706 485.5622,-91.2231 482.6556,-91.0271 479.7584,-90.7831 476.8732,-90.4918 474.0031,-90.154 471.1513,-89.7706 468.3215,-89.3426 465.5179,-88.8712 462.7452,-88.3578 460.0084,-87.8037 457.3131,-87.2104 454.6655,-86.5797 452.0722,-85.9131 449.5402,-85.2125 447.0773,-84.4799 444.6913,-83.7173 442.3907,-82.9266 440.1843,-82.1102 438.0813,-81.2703 436.091,-80.4091 434.2229,-79.529 432.4867,-78.6325 430.8921,-77.7219 429.4488,-76.7998 428.1664,-75.8687 427.0541,-74.9312 426.1211,-73.9898 425.3759,-73.0471 424.8267,-72.1057 424.4812,-71.1682 424.3462,-70.2371 424.428,-69.315 424.7318,-68.4044 425.2623,-67.5079 426.0228,-66.6278 427.0159,-65.7666 428.2429,-64.9266 429.7041,-64.1102 431.3985,-63.3196 433.3239,-62.557 435.477,-61.8244 437.8532,-61.1238 440.4465,-60.4572 443.2499,-59.8264 446.255,-59.2332 449.4524,-58.6791 452.8313,-58.1657 456.3801,-57.6943 460.0858,-57.2663 463.9349,-56.8829 467.9126,-56.5451 472.0035,-56.2538 476.1914,-56.0098 480.4595,-55.8138 484.7906,-55.6663 489.1669,-55.5678 493.5705,-55.5184 497.9832,-55.5184 502.3868,-55.5678"/>
<text text-anchor="middle" x="495.7769" y="-71.0184" font-family="Courier,monospace" font-weight="bold" font-size="10.00" fill="#000000">(0, &#39;C&#39;, &#39;y&#39;)</text>
</g>
<!-- (0, &#39;B&#39;, &#39;y&#39;)&#45;&gt;(0, &#39;C&#39;, &#39;y&#39;) -->
<g id="edge13" class="edge">
<title>(0, &#39;B&#39;, &#39;y&#39;)&#45;&gt;(0, &#39;C&#39;, &#39;y&#39;)</title>
<path fill="none" stroke="#000000" d="M362.9253,-116.582C388.1749,-108.3974 419.508,-98.2408 445.4026,-89.8472"/>
<polygon fill="#000000" stroke="#000000" points="446.6031,-93.1374 455.0366,-86.7243 444.4446,-86.4785 446.6031,-93.1374"/>
</g>
<!-- (0, &#39;C&#39;, &#39;z&#39;) -->
<g id="node8" class="node">
<title>(0, &#39;C&#39;, &#39;z&#39;)</title>
<polygon fill="none" stroke="#000000" points="502.3868,-109.5678 506.7632,-109.6663 511.0942,-109.8138 515.3624,-110.0098 519.5503,-110.2538 523.6412,-110.5451 527.6189,-110.8829 531.4679,-111.2663 535.1737,-111.6943 538.7225,-112.1657 542.1014,-112.6791 545.2988,-113.2332 548.3039,-113.8264 551.1073,-114.4572 553.7006,-115.1238 556.0768,-115.8244 558.2299,-116.557 560.1553,-117.3196 561.8497,-118.1102 563.3108,-118.9266 564.5379,-119.7666 565.5309,-120.6278 566.2915,-121.5079 566.8219,-122.4044 567.1258,-123.315 567.2076,-124.2371 567.0726,-125.1682 566.727,-126.1057 566.1779,-127.0471 565.4327,-127.9898 564.4996,-128.9312 563.3874,-129.8687 562.1049,-130.7998 560.6617,-131.7219 559.0671,-132.6325 557.3309,-133.529 555.4628,-134.4091 553.4724,-135.2703 551.3694,-136.1102 549.1631,-136.9266 546.8625,-137.7173 544.4765,-138.4799 542.0135,-139.2125 539.4816,-139.9131 536.8883,-140.5797 534.2407,-141.2104 531.5454,-141.8037 528.8086,-142.3578 526.0359,-142.8712 523.2323,-143.3426 520.4025,-143.7706 517.5507,-144.154 514.6806,-144.4918 511.7954,-144.7831 508.8982,-145.0271 505.9916,-145.2231 503.078,-145.3706 500.1594,-145.4691 497.238,-145.5184 494.3157,-145.5184 491.3943,-145.4691 488.4758,-145.3706 485.5622,-145.2231 482.6556,-145.0271 479.7584,-144.7831 476.8732,-144.4918 474.0031,-144.154 471.1513,-143.7706 468.3215,-143.3426 465.5179,-142.8712 462.7452,-142.3578 460.0084,-141.8037 457.3131,-141.2104 454.6655,-140.5797 452.0722,-139.9131 449.5402,-139.2125 447.0773,-138.4799 444.6913,-137.7173 442.3907,-136.9266 440.1843,-136.1102 438.0813,-135.2703 436.091,-134.4091 434.2229,-133.529 432.4867,-132.6325 430.8921,-131.7219 429.4488,-130.7998 428.1664,-129.8687 427.0541,-128.9312 426.1211,-127.9898 425.3759,-127.0471 424.8267,-126.1057 424.4812,-125.1682 424.3462,-124.2371 424.428,-123.315 424.7318,-122.4044 425.2623,-121.5079 426.0228,-120.6278 427.0159,-119.7666 428.2429,-118.9266 429.7041,-118.1102 431.3985,-117.3196 433.3239,-116.557 435.477,-115.8244 437.8532,-115.1238 440.4465,-114.4572 443.2499,-113.8264 446.255,-113.2332 449.4524,-112.6791 452.8313,-112.1657 456.3801,-111.6943 460.0858,-111.2663 463.9349,-110.8829 467.9126,-110.5451 472.0035,-110.2538 476.1914,-110.0098 480.4595,-109.8138 484.7906,-109.6663 489.1669,-109.5678 493.5705,-109.5184 497.9832,-109.5184 502.3868,-109.5678"/>
<text text-anchor="middle" x="495.7769" y="-125.0184" font-family="Courier,monospace" font-weight="bold" font-size="10.00" fill="#000000">(0, &#39;C&#39;, &#39;z&#39;)</text>
</g>
<!-- (0, &#39;B&#39;, &#39;y&#39;)&#45;&gt;(0, &#39;C&#39;, &#39;z&#39;) -->
<g id="edge14" class="edge">
<title>(0, &#39;B&#39;, &#39;y&#39;)&#45;&gt;(0, &#39;C&#39;, &#39;z&#39;)</title>
<path fill="none" stroke="#000000" d="M388.0785,-129.926C397.5257,-129.7149 407.2562,-129.4973 416.8241,-129.2834"/>
<polygon fill="#000000" stroke="#000000" points="417.2021,-132.776 427.1213,-129.0532 417.0456,-125.7777 417.2021,-132.776"/>
</g>
<!-- (0, &#39;B&#39;, &#39;y&#39;)&#45;&gt;(1, &#39;A&#39;, &#39;y&#39;) -->
<g id="edge15" class="edge">
<title>(0, &#39;B&#39;, &#39;y&#39;)&#45;&gt;(1, &#39;A&#39;, &#39;y&#39;)</title>
<path fill="none" stroke="#000000" d="M367.1955,-117.3322C374.7344,-113.8805 382.0629,-109.6575 388.3116,-104.5184 411.7443,-85.2468 397.7981,-61.2673 424.3116,-46.5184 483.0277,-13.8559 562.1025,-22.086 615.5588,-33.7401"/>
<polygon fill="#000000" stroke="#000000" points="615.0344,-37.2104 625.5629,-36.026 616.5938,-30.3863 615.0344,-37.2104"/>
</g>
<!-- (0, &#39;B&#39;, &#39;y&#39;)&#45;&gt;(1, &#39;A&#39;, &#39;z&#39;) -->
<g id="edge16" class="edge">
<title>(0, &#39;B&#39;, &#39;y&#39;)&#45;&gt;(1, &#39;A&#39;, &#39;z&#39;)</title>
<path fill="none" stroke="#000000" d="M322.2959,-149.6411C334.1272,-185.326 365.9114,-263.9653 424.3116,-295.5184 492.0083,-332.0946 584.2432,-301.3251 635.7771,-278.2256"/>
<polygon fill="#000000" stroke="#000000" points="637.2916,-281.3815 644.9108,-274.0196 634.3636,-275.0232 637.2916,-281.3815"/>
</g>
<!-- (0, &#39;B&#39;, &#39;z&#39;)&#45;&gt;(0, &#39;C&#39;, &#39;y&#39;) -->
<g id="edge17" class="edge">
<title>(0, &#39;B&#39;, &#39;z&#39;)&#45;&gt;(0, &#39;C&#39;, &#39;y&#39;)</title>
<path fill="none" stroke="#000000" d="M388.0785,-75.926C397.5257,-75.7149 407.2562,-75.4973 416.8241,-75.2834"/>
<polygon fill="#000000" stroke="#000000" points="417.2021,-78.776 427.1213,-75.0532 417.0456,-71.7777 417.2021,-78.776"/>
</g>
<!-- (0, &#39;B&#39;, &#39;z&#39;)&#45;&gt;(0, &#39;C&#39;, &#39;z&#39;) -->
<g id="edge18" class="edge">
<title>(0, &#39;B&#39;, &#39;z&#39;)&#45;&gt;(0, &#39;C&#39;, &#39;z&#39;)</title>
<path fill="none" stroke="#000000" d="M361.0763,-89.878C383.4518,-96.1306 410.9502,-103.8147 435.2547,-110.6062"/>
<polygon fill="#000000" stroke="#000000" points="434.5239,-114.0361 445.0969,-113.3565 436.4078,-107.2943 434.5239,-114.0361"/>
</g>
<!-- (0, &#39;B&#39;, &#39;z&#39;)&#45;&gt;(1, &#39;A&#39;, &#39;y&#39;) -->
<g id="edge19" class="edge">
<title>(0, &#39;B&#39;, &#39;z&#39;)&#45;&gt;(1, &#39;A&#39;, &#39;y&#39;)</title>
<path fill="none" stroke="#000000" d="M338.2779,-59.9658C358.889,-44.3067 391.6503,-22.5073 424.3116,-13.5184 485.5591,3.3379 504.5885,-3.0347 567.2422,-13.5184 587.7923,-16.9571 609.6733,-23.854 628.291,-30.7713"/>
<polygon fill="#000000" stroke="#000000" points="627.1145,-34.0686 637.705,-34.3723 629.6154,-27.5306 627.1145,-34.0686"/>
</g>
<!-- (0, &#39;B&#39;, &#39;z&#39;)&#45;&gt;(1, &#39;A&#39;, &#39;z&#39;) -->
<g id="edge20" class="edge">
<title>(0, &#39;B&#39;, &#39;z&#39;)&#45;&gt;(1, &#39;A&#39;, &#39;z&#39;)</title>
<path fill="none" stroke="#000000" d="M365.5441,-88.4813C374.105,-92.3286 382.2121,-97.519 388.3116,-104.5184 435.628,-158.8168 368.011,-217.6029 424.3116,-262.5184 481.583,-308.2085 571.9512,-292.0146 627.0291,-275.6096"/>
<polygon fill="#000000" stroke="#000000" points="628.3686,-278.8589 636.8868,-272.5589 626.299,-272.1719 628.3686,-278.8589"/>
</g>
<!-- (0, &#39;C&#39;, &#39;y&#39;)&#45;&gt;(1, &#39;B&#39;, &#39;y&#39;) -->
<g id="edge21" class="edge">
<title>(0, &#39;C&#39;, &#39;y&#39;)&#45;&gt;(1, &#39;B&#39;, &#39;y&#39;)</title>
<path fill="none" stroke="#000000" d="M538.181,-86.3157C561.6401,-93.3955 591.1343,-102.2966 616.7008,-110.0124"/>
<polygon fill="#000000" stroke="#000000" points="615.7016,-113.3667 626.2863,-112.9053 617.7241,-106.6652 615.7016,-113.3667"/>
</g>
<!-- (0, &#39;C&#39;, &#39;y&#39;)&#45;&gt;(1, &#39;B&#39;, &#39;z&#39;) -->
<g id="edge22" class="edge">
<title>(0, &#39;C&#39;, &#39;y&#39;)&#45;&gt;(1, &#39;B&#39;, &#39;z&#39;)</title>
<path fill="none" stroke="#000000" d="M540.7603,-85.6368C550.1005,-89.444 559.4577,-94.3256 567.2422,-100.5184 589.815,-118.4758 580.6694,-136.561 603.2422,-154.5184 607.0015,-157.5091 611.1275,-160.1939 615.4413,-162.5996"/>
<polygon fill="#000000" stroke="#000000" points="613.9955,-165.7902 624.5022,-167.1542 617.1394,-159.5358 613.9955,-165.7902"/>
</g>
<!-- (0, &#39;C&#39;, &#39;z&#39;)&#45;&gt;(1, &#39;B&#39;, &#39;y&#39;) -->
<g id="edge23" class="edge">
<title>(0, &#39;C&#39;, &#39;z&#39;)&#45;&gt;(1, &#39;B&#39;, &#39;y&#39;)</title>
<path fill="none" stroke="#000000" d="M565.9815,-127.5184C575.2566,-127.5184 584.8218,-127.5184 594.252,-127.5184"/>
<polygon fill="#000000" stroke="#000000" points="594.4118,-131.0185 604.4117,-127.5184 594.4117,-124.0185 594.4118,-131.0185"/>
</g>
<!-- (0, &#39;C&#39;, &#39;z&#39;)&#45;&gt;(1, &#39;B&#39;, &#39;z&#39;) -->
<g id="edge24" class="edge">
<title>(0, &#39;C&#39;, &#39;z&#39;)&#45;&gt;(1, &#39;B&#39;, &#39;z&#39;)</title>
<path fill="none" stroke="#000000" d="M538.181,-140.3157C561.6401,-147.3955 591.1343,-156.2966 616.7008,-164.0124"/>
<polygon fill="#000000" stroke="#000000" points="615.7016,-167.3667 626.2863,-166.9053 617.7241,-160.6652 615.7016,-167.3667"/>
</g>
<!-- (2, &#39;A&#39;, &#39;y&#39;) -->
<g id="node15" class="node">
<title>(2, &#39;A&#39;, &#39;y&#39;)</title>
<polygon fill="none" stroke="#000000" points="860.2482,-55.5678 864.6245,-55.6663 868.9556,-55.8138 873.2237,-56.0098 877.4116,-56.2538 881.5025,-56.5451 885.4802,-56.8829 889.3293,-57.2663 893.035,-57.6943 896.5838,-58.1657 899.9627,-58.6791 903.1601,-59.2332 906.1652,-59.8264 908.9686,-60.4572 911.5619,-61.1238 913.9381,-61.8244 916.0912,-62.557 918.0166,-63.3196 919.711,-64.1102 921.1722,-64.9266 922.3992,-65.7666 923.3923,-66.6278 924.1528,-67.5079 924.6833,-68.4044 924.9871,-69.315 925.0689,-70.2371 924.9339,-71.1682 924.5884,-72.1057 924.0392,-73.0471 923.294,-73.9898 922.361,-74.9312 921.2487,-75.8687 919.9663,-76.7998 918.523,-77.7219 916.9284,-78.6325 915.1922,-79.529 913.3241,-80.4091 911.3338,-81.2703 909.2307,-82.1102 907.0244,-82.9266 904.7238,-83.7173 902.3378,-84.4799 899.8749,-85.2125 897.3429,-85.9131 894.7496,-86.5797 892.102,-87.2104 889.4067,-87.8037 886.6699,-88.3578 883.8972,-88.8712 881.0936,-89.3426 878.2638,-89.7706 875.412,-90.154 872.5419,-90.4918 869.6567,-90.7831 866.7595,-91.0271 863.8529,-91.2231 860.9393,-91.3706 858.0208,-91.4691 855.0994,-91.5184 852.177,-91.5184 849.2557,-91.4691 846.3371,-91.3706 843.4235,-91.2231 840.5169,-91.0271 837.6197,-90.7831 834.7345,-90.4918 831.8644,-90.154 829.0126,-89.7706 826.1828,-89.3426 823.3792,-88.8712 820.6065,-88.3578 817.8697,-87.8037 815.1744,-87.2104 812.5268,-86.5797 809.9335,-85.9131 807.4016,-85.2125 804.9386,-84.4799 802.5526,-83.7173 800.252,-82.9266 798.0457,-82.1102 795.9427,-81.2703 793.9523,-80.4091 792.0842,-79.529 790.348,-78.6325 788.7534,-77.7219 787.3102,-76.7998 786.0277,-75.8687 784.9155,-74.9312 783.9824,-73.9898 783.2372,-73.0471 782.6881,-72.1057 782.3425,-71.1682 782.2075,-70.2371 782.2893,-69.315 782.5932,-68.4044 783.1236,-67.5079 783.8842,-66.6278 784.8772,-65.7666 786.1043,-64.9266 787.5654,-64.1102 789.2598,-63.3196 791.1852,-62.557 793.3383,-61.8244 795.7145,-61.1238 798.3078,-60.4572 801.1112,-59.8264 804.1163,-59.2332 807.3137,-58.6791 810.6926,-58.1657 814.2414,-57.6943 817.9472,-57.2663 821.7962,-56.8829 825.7739,-56.5451 829.8648,-56.2538 834.0527,-56.0098 838.3209,-55.8138 842.6519,-55.6663 847.0283,-55.5678 851.4319,-55.5184 855.8446,-55.5184 860.2482,-55.5678"/>
<text text-anchor="middle" x="853.6382" y="-71.0184" font-family="Courier,monospace" font-weight="bold" font-size="10.00" fill="#000000">(2, &#39;A&#39;, &#39;y&#39;)</text>
</g>
<!-- (1, &#39;A&#39;, &#39;y&#39;)&#45;&gt;(2, &#39;A&#39;, &#39;y&#39;) -->
<g id="edge25" class="edge">
<title>(1, &#39;A&#39;, &#39;y&#39;)&#45;&gt;(2, &#39;A&#39;, &#39;y&#39;)</title>
<path fill="none" stroke="#000000" d="M733.2961,-58.0495C746.9106,-59.7995 761.6124,-61.6893 775.9075,-63.5268"/>
<polygon fill="#000000" stroke="#000000" points="775.8586,-67.0493 786.2233,-64.8528 776.7511,-60.1064 775.8586,-67.0493"/>
</g>
<!-- (2, &#39;A&#39;, &#39;z&#39;) -->
<g id="node16" class="node">
<title>(2, &#39;A&#39;, &#39;z&#39;)</title>
<polygon fill="none" stroke="#000000" points="860.2482,-217.5678 864.6245,-217.6663 868.9556,-217.8138 873.2237,-218.0098 877.4116,-218.2538 881.5025,-218.5451 885.4802,-218.8829 889.3293,-219.2663 893.035,-219.6943 896.5838,-220.1657 899.9627,-220.6791 903.1601,-221.2332 906.1652,-221.8264 908.9686,-222.4572 911.5619,-223.1238 913.9381,-223.8244 916.0912,-224.557 918.0166,-225.3196 919.711,-226.1102 921.1722,-226.9266 922.3992,-227.7666 923.3923,-228.6278 924.1528,-229.5079 924.6833,-230.4044 924.9871,-231.315 925.0689,-232.2371 924.9339,-233.1682 924.5884,-234.1057 924.0392,-235.0471 923.294,-235.9898 922.361,-236.9312 921.2487,-237.8687 919.9663,-238.7998 918.523,-239.7219 916.9284,-240.6325 915.1922,-241.529 913.3241,-242.4091 911.3338,-243.2703 909.2307,-244.1102 907.0244,-244.9266 904.7238,-245.7173 902.3378,-246.4799 899.8749,-247.2125 897.3429,-247.9131 894.7496,-248.5797 892.102,-249.2104 889.4067,-249.8037 886.6699,-250.3578 883.8972,-250.8712 881.0936,-251.3426 878.2638,-251.7706 875.412,-252.154 872.5419,-252.4918 869.6567,-252.7831 866.7595,-253.0271 863.8529,-253.2231 860.9393,-253.3706 858.0208,-253.4691 855.0994,-253.5184 852.177,-253.5184 849.2557,-253.4691 846.3371,-253.3706 843.4235,-253.2231 840.5169,-253.0271 837.6197,-252.7831 834.7345,-252.4918 831.8644,-252.154 829.0126,-251.7706 826.1828,-251.3426 823.3792,-250.8712 820.6065,-250.3578 817.8697,-249.8037 815.1744,-249.2104 812.5268,-248.5797 809.9335,-247.9131 807.4016,-247.2125 804.9386,-246.4799 802.5526,-245.7173 800.252,-244.9266 798.0457,-244.1102 795.9427,-243.2703 793.9523,-242.4091 792.0842,-241.529 790.348,-240.6325 788.7534,-239.7219 787.3102,-238.7998 786.0277,-237.8687 784.9155,-236.9312 783.9824,-235.9898 783.2372,-235.0471 782.6881,-234.1057 782.3425,-233.1682 782.2075,-232.2371 782.2893,-231.315 782.5932,-230.4044 783.1236,-229.5079 783.8842,-228.6278 784.8772,-227.7666 786.1043,-226.9266 787.5654,-226.1102 789.2598,-225.3196 791.1852,-224.557 793.3383,-223.8244 795.7145,-223.1238 798.3078,-222.4572 801.1112,-221.8264 804.1163,-221.2332 807.3137,-220.6791 810.6926,-220.1657 814.2414,-219.6943 817.9472,-219.2663 821.7962,-218.8829 825.7739,-218.5451 829.8648,-218.2538 834.0527,-218.0098 838.3209,-217.8138 842.6519,-217.6663 847.0283,-217.5678 851.4319,-217.5184 855.8446,-217.5184 860.2482,-217.5678"/>
<text text-anchor="middle" x="853.6382" y="-233.0184" font-family="Courier,monospace" font-weight="bold" font-size="10.00" fill="#000000">(2, &#39;A&#39;, &#39;z&#39;)</text>
</g>
<!-- (1, &#39;A&#39;, &#39;y&#39;)&#45;&gt;(2, &#39;A&#39;, &#39;z&#39;) -->
<g id="edge26" class="edge">
<title>(1, &#39;A&#39;, &#39;y&#39;)&#45;&gt;(2, &#39;A&#39;, &#39;z&#39;)</title>
<path fill="none" stroke="#000000" d="M705.3039,-65.9578C719.4689,-74.4557 735.4875,-86.1977 746.1729,-100.5184 776.4307,-141.0705 747.1089,-172.0422 782.1729,-208.5184 785.1199,-211.5842 788.4498,-214.3055 792.0203,-216.7206"/>
<polygon fill="#000000" stroke="#000000" points="790.3239,-219.7832 800.7215,-221.8181 793.8623,-213.7433 790.3239,-219.7832"/>
</g>
<!-- (2, &#39;B&#39;, &#39;y&#39;) -->
<g id="node17" class="node">
<title>(2, &#39;B&#39;, &#39;y&#39;)</title>
<polygon fill="none" stroke="#000000" points="1039.1788,-109.5678 1043.5552,-109.6663 1047.8862,-109.8138 1052.1544,-110.0098 1056.3423,-110.2538 1060.4331,-110.5451 1064.4108,-110.8829 1068.2599,-111.2663 1071.9657,-111.6943 1075.5145,-112.1657 1078.8934,-112.6791 1082.0908,-113.2332 1085.0959,-113.8264 1087.8993,-114.4572 1090.4926,-115.1238 1092.8688,-115.8244 1095.0219,-116.557 1096.9473,-117.3196 1098.6417,-118.1102 1100.1028,-118.9266 1101.3298,-119.7666 1102.3229,-120.6278 1103.0835,-121.5079 1103.6139,-122.4044 1103.9178,-123.315 1103.9996,-124.2371 1103.8646,-125.1682 1103.519,-126.1057 1102.9699,-127.0471 1102.2247,-127.9898 1101.2916,-128.9312 1100.1794,-129.8687 1098.8969,-130.7998 1097.4536,-131.7219 1095.8591,-132.6325 1094.1229,-133.529 1092.2548,-134.4091 1090.2644,-135.2703 1088.1614,-136.1102 1085.9551,-136.9266 1083.6545,-137.7173 1081.2685,-138.4799 1078.8055,-139.2125 1076.2736,-139.9131 1073.6803,-140.5797 1071.0327,-141.2104 1068.3374,-141.8037 1065.6006,-142.3578 1062.8278,-142.8712 1060.0243,-143.3426 1057.1945,-143.7706 1054.3427,-144.154 1051.4726,-144.4918 1048.5874,-144.7831 1045.6902,-145.0271 1042.7836,-145.2231 1039.87,-145.3706 1036.9514,-145.4691 1034.03,-145.5184 1031.1077,-145.5184 1028.1863,-145.4691 1025.2678,-145.3706 1022.3542,-145.2231 1019.4475,-145.0271 1016.5503,-144.7831 1013.6652,-144.4918 1010.7951,-144.154 1007.9432,-143.7706 1005.1135,-143.3426 1002.3099,-142.8712 999.5372,-142.3578 996.8004,-141.8037 994.1051,-141.2104 991.4575,-140.5797 988.8642,-139.9131 986.3322,-139.2125 983.8692,-138.4799 981.4833,-137.7173 979.1827,-136.9266 976.9763,-136.1102 974.8733,-135.2703 972.883,-134.4091 971.0149,-133.529 969.2787,-132.6325 967.6841,-131.7219 966.2408,-130.7998 964.9584,-129.8687 963.8461,-128.9312 962.9131,-127.9898 962.1679,-127.0471 961.6187,-126.1057 961.2732,-125.1682 961.1382,-124.2371 961.22,-123.315 961.5238,-122.4044 962.0543,-121.5079 962.8148,-120.6278 963.8079,-119.7666 965.0349,-118.9266 966.4961,-118.1102 968.1905,-117.3196 970.1159,-116.557 972.269,-115.8244 974.6452,-115.1238 977.2385,-114.4572 980.0419,-113.8264 983.047,-113.2332 986.2444,-112.6791 989.6233,-112.1657 993.172,-111.6943 996.8778,-111.2663 1000.7269,-110.8829 1004.7046,-110.5451 1008.7955,-110.2538 1012.9834,-110.0098 1017.2515,-109.8138 1021.5826,-109.6663 1025.9589,-109.5678 1030.3625,-109.5184 1034.7752,-109.5184 1039.1788,-109.5678"/>
<text text-anchor="middle" x="1032.5689" y="-125.0184" font-family="Courier,monospace" font-weight="bold" font-size="10.00" fill="#000000">(2, &#39;B&#39;, &#39;y&#39;)</text>
</g>
<!-- (1, &#39;A&#39;, &#39;y&#39;)&#45;&gt;(2, &#39;B&#39;, &#39;y&#39;) -->
<g id="edge27" class="edge">
<title>(1, &#39;A&#39;, &#39;y&#39;)&#45;&gt;(2, &#39;B&#39;, &#39;y&#39;)</title>
<path fill="none" stroke="#000000" d="M709.4388,-34.0302C759.2386,-12.8573 852.884,17.6516 925.1035,-13.5184 966.1152,-31.2191 998.7338,-73.1245 1016.8501,-100.895"/>
<polygon fill="#000000" stroke="#000000" points="1013.9075,-102.7903 1022.2147,-109.3661 1019.8214,-99.0451 1013.9075,-102.7903"/>
</g>
<!-- (2, &#39;B&#39;, &#39;z&#39;) -->
<g id="node18" class="node">
<title>(2, &#39;B&#39;, &#39;z&#39;)</title>
<polygon fill="none" stroke="#000000" points="1039.1788,-163.5678 1043.5552,-163.6663 1047.8862,-163.8138 1052.1544,-164.0098 1056.3423,-164.2538 1060.4331,-164.5451 1064.4108,-164.8829 1068.2599,-165.2663 1071.9657,-165.6943 1075.5145,-166.1657 1078.8934,-166.6791 1082.0908,-167.2332 1085.0959,-167.8264 1087.8993,-168.4572 1090.4926,-169.1238 1092.8688,-169.8244 1095.0219,-170.557 1096.9473,-171.3196 1098.6417,-172.1102 1100.1028,-172.9266 1101.3298,-173.7666 1102.3229,-174.6278 1103.0835,-175.5079 1103.6139,-176.4044 1103.9178,-177.315 1103.9996,-178.2371 1103.8646,-179.1682 1103.519,-180.1057 1102.9699,-181.0471 1102.2247,-181.9898 1101.2916,-182.9312 1100.1794,-183.8687 1098.8969,-184.7998 1097.4536,-185.7219 1095.8591,-186.6325 1094.1229,-187.529 1092.2548,-188.4091 1090.2644,-189.2703 1088.1614,-190.1102 1085.9551,-190.9266 1083.6545,-191.7173 1081.2685,-192.4799 1078.8055,-193.2125 1076.2736,-193.9131 1073.6803,-194.5797 1071.0327,-195.2104 1068.3374,-195.8037 1065.6006,-196.3578 1062.8278,-196.8712 1060.0243,-197.3426 1057.1945,-197.7706 1054.3427,-198.154 1051.4726,-198.4918 1048.5874,-198.7831 1045.6902,-199.0271 1042.7836,-199.2231 1039.87,-199.3706 1036.9514,-199.4691 1034.03,-199.5184 1031.1077,-199.5184 1028.1863,-199.4691 1025.2678,-199.3706 1022.3542,-199.2231 1019.4475,-199.0271 1016.5503,-198.7831 1013.6652,-198.4918 1010.7951,-198.154 1007.9432,-197.7706 1005.1135,-197.3426 1002.3099,-196.8712 999.5372,-196.3578 996.8004,-195.8037 994.1051,-195.2104 991.4575,-194.5797 988.8642,-193.9131 986.3322,-193.2125 983.8692,-192.4799 981.4833,-191.7173 979.1827,-190.9266 976.9763,-190.1102 974.8733,-189.2703 972.883,-188.4091 971.0149,-187.529 969.2787,-186.6325 967.6841,-185.7219 966.2408,-184.7998 964.9584,-183.8687 963.8461,-182.9312 962.9131,-181.9898 962.1679,-181.0471 961.6187,-180.1057 961.2732,-179.1682 961.1382,-178.2371 961.22,-177.315 961.5238,-176.4044 962.0543,-175.5079 962.8148,-174.6278 963.8079,-173.7666 965.0349,-172.9266 966.4961,-172.1102 968.1905,-171.3196 970.1159,-170.557 972.269,-169.8244 974.6452,-169.1238 977.2385,-168.4572 980.0419,-167.8264 983.047,-167.2332 986.2444,-166.6791 989.6233,-166.1657 993.172,-165.6943 996.8778,-165.2663 1000.7269,-164.8829 1004.7046,-164.5451 1008.7955,-164.2538 1012.9834,-164.0098 1017.2515,-163.8138 1021.5826,-163.6663 1025.9589,-163.5678 1030.3625,-163.5184 1034.7752,-163.5184 1039.1788,-163.5678"/>
<text text-anchor="middle" x="1032.5689" y="-179.0184" font-family="Courier,monospace" font-weight="bold" font-size="10.00" fill="#000000">(2, &#39;B&#39;, &#39;z&#39;)</text>
</g>
<!-- (1, &#39;A&#39;, &#39;y&#39;)&#45;&gt;(2, &#39;B&#39;, &#39;z&#39;) -->
<g id="edge28" class="edge">
<title>(1, &#39;A&#39;, &#39;y&#39;)&#45;&gt;(2, &#39;B&#39;, &#39;z&#39;)</title>
<path fill="none" stroke="#000000" d="M718.7699,-35.2486C772.7949,-19.5322 864.6147,-2.9206 925.1035,-46.5184 966.1495,-76.1027 926.0396,-118.0422 961.1035,-154.5184 964.0506,-157.5842 967.3804,-160.3055 970.951,-162.7206"/>
<polygon fill="#000000" stroke="#000000" points="969.2546,-165.7832 979.6522,-167.8181 972.793,-159.7433 969.2546,-165.7832"/>
</g>
<!-- (1, &#39;A&#39;, &#39;z&#39;)&#45;&gt;(2, &#39;A&#39;, &#39;y&#39;) -->
<g id="edge29" class="edge">
<title>(1, &#39;A&#39;, &#39;z&#39;)&#45;&gt;(2, &#39;A&#39;, &#39;y&#39;)</title>
<path fill="none" stroke="#000000" d="M707.4781,-241.7577C721.0841,-233.3805 736.0308,-222.1111 746.1729,-208.5184 776.4307,-167.9664 747.1089,-136.9947 782.1729,-100.5184 786.3536,-96.1694 791.3047,-92.5134 796.6205,-89.4415"/>
<polygon fill="#000000" stroke="#000000" points="798.4788,-92.4246 805.8392,-84.8039 795.3329,-86.1713 798.4788,-92.4246"/>
</g>
<!-- (1, &#39;A&#39;, &#39;z&#39;)&#45;&gt;(2, &#39;A&#39;, &#39;z&#39;) -->
<g id="edge30" class="edge">
<title>(1, &#39;A&#39;, &#39;z&#39;)&#45;&gt;(2, &#39;A&#39;, &#39;z&#39;)</title>
<path fill="none" stroke="#000000" d="M742.3536,-249.8231C756.3695,-248.0215 771.1463,-246.1221 785.1906,-244.3168"/>
<polygon fill="#000000" stroke="#000000" points="785.7941,-247.7681 795.2663,-243.0217 784.9016,-240.8252 785.7941,-247.7681"/>
</g>
<!-- (1, &#39;A&#39;, &#39;z&#39;)&#45;&gt;(2, &#39;B&#39;, &#39;y&#39;) -->
<g id="edge31" class="edge">
<title>(1, &#39;A&#39;, &#39;z&#39;)&#45;&gt;(2, &#39;B&#39;, &#39;y&#39;)</title>
<path fill="none" stroke="#000000" d="M713.691,-272.281C766.8734,-288.3773 862.6749,-307.5145 925.1035,-262.5184 966.1495,-232.9342 926.0396,-190.9947 961.1035,-154.5184 965.2842,-150.1694 970.2354,-146.5134 975.5511,-143.4415"/>
<polygon fill="#000000" stroke="#000000" points="977.4094,-146.4246 984.7699,-138.8039 974.2636,-140.1713 977.4094,-146.4246"/>
</g>
<!-- (1, &#39;A&#39;, &#39;z&#39;)&#45;&gt;(2, &#39;B&#39;, &#39;z&#39;) -->
<g id="edge32" class="edge">
<title>(1, &#39;A&#39;, &#39;z&#39;)&#45;&gt;(2, &#39;B&#39;, &#39;z&#39;)</title>
<path fill="none" stroke="#000000" d="M706.5683,-273.7759C755.5683,-294.9629 851.4719,-327.2979 925.1035,-295.5184 966.1152,-277.8178 998.7338,-235.9124 1016.8501,-208.1419"/>
<polygon fill="#000000" stroke="#000000" points="1019.8214,-209.9918 1022.2147,-199.6708 1013.9075,-206.2466 1019.8214,-209.9918"/>
</g>
<!-- (1, &#39;C&#39;, &#39;y&#39;) -->
<g id="node13" class="node">
<title>(1, &#39;C&#39;, &#39;y&#39;)</title>
<polygon fill="none" stroke="#000000" points="860.2482,-163.5678 864.6245,-163.6663 868.9556,-163.8138 873.2237,-164.0098 877.4116,-164.2538 881.5025,-164.5451 885.4802,-164.8829 889.3293,-165.2663 893.035,-165.6943 896.5838,-166.1657 899.9627,-166.6791 903.1601,-167.2332 906.1652,-167.8264 908.9686,-168.4572 911.5619,-169.1238 913.9381,-169.8244 916.0912,-170.557 918.0166,-171.3196 919.711,-172.1102 921.1722,-172.9266 922.3992,-173.7666 923.3923,-174.6278 924.1528,-175.5079 924.6833,-176.4044 924.9871,-177.315 925.0689,-178.2371 924.9339,-179.1682 924.5884,-180.1057 924.0392,-181.0471 923.294,-181.9898 922.361,-182.9312 921.2487,-183.8687 919.9663,-184.7998 918.523,-185.7219 916.9284,-186.6325 915.1922,-187.529 913.3241,-188.4091 911.3338,-189.2703 909.2307,-190.1102 907.0244,-190.9266 904.7238,-191.7173 902.3378,-192.4799 899.8749,-193.2125 897.3429,-193.9131 894.7496,-194.5797 892.102,-195.2104 889.4067,-195.8037 886.6699,-196.3578 883.8972,-196.8712 881.0936,-197.3426 878.2638,-197.7706 875.412,-198.154 872.5419,-198.4918 869.6567,-198.7831 866.7595,-199.0271 863.8529,-199.2231 860.9393,-199.3706 858.0208,-199.4691 855.0994,-199.5184 852.177,-199.5184 849.2557,-199.4691 846.3371,-199.3706 843.4235,-199.2231 840.5169,-199.0271 837.6197,-198.7831 834.7345,-198.4918 831.8644,-198.154 829.0126,-197.7706 826.1828,-197.3426 823.3792,-196.8712 820.6065,-196.3578 817.8697,-195.8037 815.1744,-195.2104 812.5268,-194.5797 809.9335,-193.9131 807.4016,-193.2125 804.9386,-192.4799 802.5526,-191.7173 800.252,-190.9266 798.0457,-190.1102 795.9427,-189.2703 793.9523,-188.4091 792.0842,-187.529 790.348,-186.6325 788.7534,-185.7219 787.3102,-184.7998 786.0277,-183.8687 784.9155,-182.9312 783.9824,-181.9898 783.2372,-181.0471 782.6881,-180.1057 782.3425,-179.1682 782.2075,-178.2371 782.2893,-177.315 782.5932,-176.4044 783.1236,-175.5079 783.8842,-174.6278 784.8772,-173.7666 786.1043,-172.9266 787.5654,-172.1102 789.2598,-171.3196 791.1852,-170.557 793.3383,-169.8244 795.7145,-169.1238 798.3078,-168.4572 801.1112,-167.8264 804.1163,-167.2332 807.3137,-166.6791 810.6926,-166.1657 814.2414,-165.6943 817.9472,-165.2663 821.7962,-164.8829 825.7739,-164.5451 829.8648,-164.2538 834.0527,-164.0098 838.3209,-163.8138 842.6519,-163.6663 847.0283,-163.5678 851.4319,-163.5184 855.8446,-163.5184 860.2482,-163.5678"/>
<text text-anchor="middle" x="853.6382" y="-179.0184" font-family="Courier,monospace" font-weight="bold" font-size="10.00" fill="#000000">(1, &#39;C&#39;, &#39;y&#39;)</text>
</g>
<!-- (1, &#39;B&#39;, &#39;y&#39;)&#45;&gt;(1, &#39;C&#39;, &#39;y&#39;) -->
<g id="edge33" class="edge">
<title>(1, &#39;B&#39;, &#39;y&#39;)&#45;&gt;(1, &#39;C&#39;, &#39;y&#39;)</title>
<path fill="none" stroke="#000000" d="M717.1116,-140.3157C740.5707,-147.3955 770.0649,-156.2966 795.6315,-164.0124"/>
<polygon fill="#000000" stroke="#000000" points="794.6322,-167.3667 805.217,-166.9053 796.6547,-160.6652 794.6322,-167.3667"/>
</g>
<!-- (1, &#39;C&#39;, &#39;z&#39;) -->
<g id="node14" class="node">
<title>(1, &#39;C&#39;, &#39;z&#39;)</title>
<polygon fill="none" stroke="#000000" points="860.2482,-109.5678 864.6245,-109.6663 868.9556,-109.8138 873.2237,-110.0098 877.4116,-110.2538 881.5025,-110.5451 885.4802,-110.8829 889.3293,-111.2663 893.035,-111.6943 896.5838,-112.1657 899.9627,-112.6791 903.1601,-113.2332 906.1652,-113.8264 908.9686,-114.4572 911.5619,-115.1238 913.9381,-115.8244 916.0912,-116.557 918.0166,-117.3196 919.711,-118.1102 921.1722,-118.9266 922.3992,-119.7666 923.3923,-120.6278 924.1528,-121.5079 924.6833,-122.4044 924.9871,-123.315 925.0689,-124.2371 924.9339,-125.1682 924.5884,-126.1057 924.0392,-127.0471 923.294,-127.9898 922.361,-128.9312 921.2487,-129.8687 919.9663,-130.7998 918.523,-131.7219 916.9284,-132.6325 915.1922,-133.529 913.3241,-134.4091 911.3338,-135.2703 909.2307,-136.1102 907.0244,-136.9266 904.7238,-137.7173 902.3378,-138.4799 899.8749,-139.2125 897.3429,-139.9131 894.7496,-140.5797 892.102,-141.2104 889.4067,-141.8037 886.6699,-142.3578 883.8972,-142.8712 881.0936,-143.3426 878.2638,-143.7706 875.412,-144.154 872.5419,-144.4918 869.6567,-144.7831 866.7595,-145.0271 863.8529,-145.2231 860.9393,-145.3706 858.0208,-145.4691 855.0994,-145.5184 852.177,-145.5184 849.2557,-145.4691 846.3371,-145.3706 843.4235,-145.2231 840.5169,-145.0271 837.6197,-144.7831 834.7345,-144.4918 831.8644,-144.154 829.0126,-143.7706 826.1828,-143.3426 823.3792,-142.8712 820.6065,-142.3578 817.8697,-141.8037 815.1744,-141.2104 812.5268,-140.5797 809.9335,-139.9131 807.4016,-139.2125 804.9386,-138.4799 802.5526,-137.7173 800.252,-136.9266 798.0457,-136.1102 795.9427,-135.2703 793.9523,-134.4091 792.0842,-133.529 790.348,-132.6325 788.7534,-131.7219 787.3102,-130.7998 786.0277,-129.8687 784.9155,-128.9312 783.9824,-127.9898 783.2372,-127.0471 782.6881,-126.1057 782.3425,-125.1682 782.2075,-124.2371 782.2893,-123.315 782.5932,-122.4044 783.1236,-121.5079 783.8842,-120.6278 784.8772,-119.7666 786.1043,-118.9266 787.5654,-118.1102 789.2598,-117.3196 791.1852,-116.557 793.3383,-115.8244 795.7145,-115.1238 798.3078,-114.4572 801.1112,-113.8264 804.1163,-113.2332 807.3137,-112.6791 810.6926,-112.1657 814.2414,-111.6943 817.9472,-111.2663 821.7962,-110.8829 825.7739,-110.5451 829.8648,-110.2538 834.0527,-110.0098 838.3209,-109.8138 842.6519,-109.6663 847.0283,-109.5678 851.4319,-109.5184 855.8446,-109.5184 860.2482,-109.5678"/>
<text text-anchor="middle" x="853.6382" y="-125.0184" font-family="Courier,monospace" font-weight="bold" font-size="10.00" fill="#000000">(1, &#39;C&#39;, &#39;z&#39;)</text>
</g>
<!-- (1, &#39;B&#39;, &#39;y&#39;)&#45;&gt;(1, &#39;C&#39;, &#39;z&#39;) -->
<g id="edge34" class="edge">
<title>(1, &#39;B&#39;, &#39;y&#39;)&#45;&gt;(1, &#39;C&#39;, &#39;z&#39;)</title>
<path fill="none" stroke="#000000" d="M744.9121,-127.5184C754.1873,-127.5184 763.7524,-127.5184 773.1826,-127.5184"/>
<polygon fill="#000000" stroke="#000000" points="773.3424,-131.0185 783.3424,-127.5184 773.3424,-124.0185 773.3424,-131.0185"/>
</g>
<!-- (1, &#39;B&#39;, &#39;y&#39;)&#45;&gt;(2, &#39;A&#39;, &#39;y&#39;) -->
<g id="edge35" class="edge">
<title>(1, &#39;B&#39;, &#39;y&#39;)&#45;&gt;(2, &#39;A&#39;, &#39;y&#39;)</title>
<path fill="none" stroke="#000000" d="M723.1288,-112.9053C747.4331,-105.5704 776.8969,-96.6784 801.6748,-89.2006"/>
<polygon fill="#000000" stroke="#000000" points="802.7091,-92.5445 811.2713,-86.3045 800.6866,-85.843 802.7091,-92.5445"/>
</g>
<!-- (1, &#39;B&#39;, &#39;y&#39;)&#45;&gt;(2, &#39;A&#39;, &#39;z&#39;) -->
<g id="edge36" class="edge">
<title>(1, &#39;B&#39;, &#39;y&#39;)&#45;&gt;(2, &#39;A&#39;, &#39;z&#39;)</title>
<path fill="none" stroke="#000000" d="M719.6909,-139.6368C729.0312,-143.444 738.3884,-148.3256 746.1729,-154.5184 768.7457,-172.4758 759.6001,-190.561 782.1729,-208.5184 785.9322,-211.5091 790.0582,-214.1939 794.372,-216.5996"/>
<polygon fill="#000000" stroke="#000000" points="792.9262,-219.7902 803.4329,-221.1542 796.07,-213.5358 792.9262,-219.7902"/>
</g>
<!-- (1, &#39;B&#39;, &#39;z&#39;)&#45;&gt;(1, &#39;C&#39;, &#39;y&#39;) -->
<g id="edge37" class="edge">
<title>(1, &#39;B&#39;, &#39;z&#39;)&#45;&gt;(1, &#39;C&#39;, &#39;y&#39;)</title>
<path fill="none" stroke="#000000" d="M744.9121,-181.5184C754.1873,-181.5184 763.7524,-181.5184 773.1826,-181.5184"/>
<polygon fill="#000000" stroke="#000000" points="773.3424,-185.0185 783.3424,-181.5184 773.3424,-178.0185 773.3424,-185.0185"/>
</g>
<!-- (1, &#39;B&#39;, &#39;z&#39;)&#45;&gt;(1, &#39;C&#39;, &#39;z&#39;) -->
<g id="edge38" class="edge">
<title>(1, &#39;B&#39;, &#39;z&#39;)&#45;&gt;(1, &#39;C&#39;, &#39;z&#39;)</title>
<path fill="none" stroke="#000000" d="M723.1288,-166.9053C747.4331,-159.5704 776.8969,-150.6784 801.6748,-143.2006"/>
<polygon fill="#000000" stroke="#000000" points="802.7091,-146.5445 811.2713,-140.3045 800.6866,-139.843 802.7091,-146.5445"/>
</g>
<!-- (1, &#39;B&#39;, &#39;z&#39;)&#45;&gt;(2, &#39;A&#39;, &#39;y&#39;) -->
<g id="edge39" class="edge">
<title>(1, &#39;B&#39;, &#39;z&#39;)&#45;&gt;(2, &#39;A&#39;, &#39;y&#39;)</title>
<path fill="none" stroke="#000000" d="M724.9129,-167.1542C732.4697,-163.7248 739.8415,-159.5553 746.1729,-154.5184 768.7457,-136.561 759.6001,-118.4758 782.1729,-100.5184 787.4031,-96.3576 793.3433,-92.7887 799.5112,-89.7399"/>
<polygon fill="#000000" stroke="#000000" points="800.9643,-92.9242 808.6548,-85.6368 798.0983,-86.5377 800.9643,-92.9242"/>
</g>
<!-- (1, &#39;B&#39;, &#39;z&#39;)&#45;&gt;(2, &#39;A&#39;, &#39;z&#39;) -->
<g id="edge40" class="edge">
<title>(1, &#39;B&#39;, &#39;z&#39;)&#45;&gt;(2, &#39;A&#39;, &#39;z&#39;)</title>
<path fill="none" stroke="#000000" d="M717.1116,-194.3157C740.5707,-201.3955 770.0649,-210.2966 795.6315,-218.0124"/>
<polygon fill="#000000" stroke="#000000" points="794.6322,-221.3667 805.217,-220.9053 796.6547,-214.6652 794.6322,-221.3667"/>
</g>
<!-- (1, &#39;C&#39;, &#39;y&#39;)&#45;&gt;(2, &#39;B&#39;, &#39;y&#39;) -->
<g id="edge41" class="edge">
<title>(1, &#39;C&#39;, &#39;y&#39;)&#45;&gt;(2, &#39;B&#39;, &#39;y&#39;)</title>
<path fill="none" stroke="#000000" d="M902.0594,-166.9053C926.3637,-159.5704 955.8275,-150.6784 980.6054,-143.2006"/>
<polygon fill="#000000" stroke="#000000" points="981.6397,-146.5445 990.202,-140.3045 979.6172,-139.843 981.6397,-146.5445"/>
</g>
<!-- (1, &#39;C&#39;, &#39;y&#39;)&#45;&gt;(2, &#39;B&#39;, &#39;z&#39;) -->
<g id="edge42" class="edge">
<title>(1, &#39;C&#39;, &#39;y&#39;)&#45;&gt;(2, &#39;B&#39;, &#39;z&#39;)</title>
<path fill="none" stroke="#000000" d="M923.8428,-181.5184C933.118,-181.5184 942.6831,-181.5184 952.1133,-181.5184"/>
<polygon fill="#000000" stroke="#000000" points="952.2731,-185.0185 962.2731,-181.5184 952.273,-178.0185 952.2731,-185.0185"/>
</g>
<!-- (1, &#39;C&#39;, &#39;z&#39;)&#45;&gt;(2, &#39;B&#39;, &#39;y&#39;) -->
<g id="edge43" class="edge">
<title>(1, &#39;C&#39;, &#39;z&#39;)&#45;&gt;(2, &#39;B&#39;, &#39;y&#39;)</title>
<path fill="none" stroke="#000000" d="M923.8428,-127.5184C933.118,-127.5184 942.6831,-127.5184 952.1133,-127.5184"/>
<polygon fill="#000000" stroke="#000000" points="952.2731,-131.0185 962.2731,-127.5184 952.273,-124.0185 952.2731,-131.0185"/>
</g>
<!-- (1, &#39;C&#39;, &#39;z&#39;)&#45;&gt;(2, &#39;B&#39;, &#39;z&#39;) -->
<g id="edge44" class="edge">
<title>(1, &#39;C&#39;, &#39;z&#39;)&#45;&gt;(2, &#39;B&#39;, &#39;z&#39;)</title>
<path fill="none" stroke="#000000" d="M896.0423,-140.3157C919.5014,-147.3955 948.9956,-156.2966 974.5621,-164.0124"/>
<polygon fill="#000000" stroke="#000000" points="973.5629,-167.3667 984.1477,-166.9053 975.5854,-160.6652 973.5629,-167.3667"/>
</g>
<!-- (2, &#39;A&#39;, &#39;y&#39;)&#45;&gt;(&#45;1, &#39;SINK&#39;, None) -->
<g id="edge45" class="edge">
<title>(2, &#39;A&#39;, &#39;y&#39;)&#45;&gt;(&#45;1, &#39;SINK&#39;, None)</title>
<path fill="none" stroke="#000000" d="M923.7134,-66.904C1009.7956,-60.8311 1159.5878,-56.9664 1282.9649,-88.5184 1317.6758,-97.3953 1353.8142,-116.3959 1379.3673,-131.7409"/>
<polygon fill="#000000" stroke="#000000" points="1377.5888,-134.7559 1387.9446,-136.9936 1381.2445,-128.7863 1377.5888,-134.7559"/>
</g>
<!-- (2, &#39;A&#39;, &#39;z&#39;)&#45;&gt;(&#45;1, &#39;SINK&#39;, None) -->
<g id="edge46" class="edge">
<title>(2, &#39;A&#39;, &#39;z&#39;)&#45;&gt;(&#45;1, &#39;SINK&#39;, None)</title>
<path fill="none" stroke="#000000" d="M912.8436,-242.7487C996.7985,-251.0818 1154.5189,-259.6218 1282.9649,-225.5184 1319.2582,-215.8823 1356.5315,-194.4047 1382.0456,-177.5796"/>
<polygon fill="#000000" stroke="#000000" points="1384.2174,-180.3368 1390.5589,-171.8494 1380.3087,-174.5297 1384.2174,-180.3368"/>
</g>
<!-- (2, &#39;B&#39;, &#39;y&#39;)&#45;&gt;(&#45;1, &#39;SINK&#39;, None) -->
<g id="edge47" class="edge">
<title>(2, &#39;B&#39;, &#39;y&#39;)&#45;&gt;(&#45;1, &#39;SINK&#39;, None)</title>
<path fill="none" stroke="#000000" d="M1080.2376,-112.8637C1098.7202,-107.8911 1120.179,-102.9745 1140.0342,-100.5184 1203.0784,-92.7199 1220.6454,-88.2026 1282.9649,-100.5184 1314.3731,-106.7255 1347.7115,-120.5378 1372.9337,-132.6387"/>
<polygon fill="#000000" stroke="#000000" points="1371.6624,-135.9134 1382.1821,-137.1733 1374.7441,-129.6282 1371.6624,-135.9134"/>
</g>
<!-- (2, &#39;C&#39;, &#39;y&#39;) -->
<g id="node19" class="node">
<title>(2, &#39;C&#39;, &#39;y&#39;)</title>
<polygon fill="none" stroke="#000000" points="1218.1095,-109.5678 1222.4858,-109.6663 1226.8169,-109.8138 1231.085,-110.0098 1235.2729,-110.2538 1239.3638,-110.5451 1243.3415,-110.8829 1247.1906,-111.2663 1250.8964,-111.6943 1254.4451,-112.1657 1257.8241,-112.6791 1261.0214,-113.2332 1264.0265,-113.8264 1266.8299,-114.4572 1269.4233,-115.1238 1271.7994,-115.8244 1273.9525,-116.557 1275.878,-117.3196 1277.5723,-118.1102 1279.0335,-118.9266 1280.2605,-119.7666 1281.2536,-120.6278 1282.0141,-121.5079 1282.5446,-122.4044 1282.8485,-123.315 1282.9302,-124.2371 1282.7952,-125.1682 1282.4497,-126.1057 1281.9005,-127.0471 1281.1553,-127.9898 1280.2223,-128.9312 1279.11,-129.8687 1277.8276,-130.7998 1276.3843,-131.7219 1274.7897,-132.6325 1273.0535,-133.529 1271.1854,-134.4091 1269.1951,-135.2703 1267.0921,-136.1102 1264.8857,-136.9266 1262.5852,-137.7173 1260.1992,-138.4799 1257.7362,-139.2125 1255.2043,-139.9131 1252.6109,-140.5797 1249.9633,-141.2104 1247.2681,-141.8037 1244.5313,-142.3578 1241.7585,-142.8712 1238.9549,-143.3426 1236.1252,-143.7706 1233.2734,-144.154 1230.4032,-144.4918 1227.5181,-144.7831 1224.6209,-145.0271 1221.7143,-145.2231 1218.8006,-145.3706 1215.8821,-145.4691 1212.9607,-145.5184 1210.0384,-145.5184 1207.117,-145.4691 1204.1985,-145.3706 1201.2848,-145.2231 1198.3782,-145.0271 1195.481,-144.7831 1192.5959,-144.4918 1189.7257,-144.154 1186.8739,-143.7706 1184.0441,-143.3426 1181.2406,-142.8712 1178.4678,-142.3578 1175.731,-141.8037 1173.0358,-141.2104 1170.3882,-140.5797 1167.7948,-139.9131 1165.2629,-139.2125 1162.7999,-138.4799 1160.4139,-137.7173 1158.1134,-136.9266 1155.907,-136.1102 1153.804,-135.2703 1151.8136,-134.4091 1149.9455,-133.529 1148.2093,-132.6325 1146.6148,-131.7219 1145.1715,-130.7998 1143.8891,-129.8687 1142.7768,-128.9312 1141.8437,-127.9898 1141.0986,-127.0471 1140.5494,-126.1057 1140.2038,-125.1682 1140.0689,-124.2371 1140.1506,-123.315 1140.4545,-122.4044 1140.9849,-121.5079 1141.7455,-120.6278 1142.7386,-119.7666 1143.9656,-118.9266 1145.4267,-118.1102 1147.1211,-117.3196 1149.0466,-116.557 1151.1997,-115.8244 1153.5758,-115.1238 1156.1691,-114.4572 1158.9725,-113.8264 1161.9777,-113.2332 1165.175,-112.6791 1168.554,-112.1657 1172.1027,-111.6943 1175.8085,-111.2663 1179.6576,-110.8829 1183.6353,-110.5451 1187.7262,-110.2538 1191.9141,-110.0098 1196.1822,-109.8138 1200.5133,-109.6663 1204.8896,-109.5678 1209.2932,-109.5184 1213.7059,-109.5184 1218.1095,-109.5678"/>
<text text-anchor="middle" x="1211.4995" y="-125.0184" font-family="Courier,monospace" font-weight="bold" font-size="10.00" fill="#000000">(2, &#39;C&#39;, &#39;y&#39;)</text>
</g>
<!-- (2, &#39;B&#39;, &#39;y&#39;)&#45;&gt;(2, &#39;C&#39;, &#39;y&#39;) -->
<g id="edge48" class="edge">
<title>(2, &#39;B&#39;, &#39;y&#39;)&#45;&gt;(2, &#39;C&#39;, &#39;y&#39;)</title>
<path fill="none" stroke="#000000" d="M1102.7735,-127.5184C1112.0486,-127.5184 1121.6137,-127.5184 1131.044,-127.5184"/>
<polygon fill="#000000" stroke="#000000" points="1131.2038,-131.0185 1141.2037,-127.5184 1131.2037,-124.0185 1131.2038,-131.0185"/>
</g>
<!-- (2, &#39;C&#39;, &#39;z&#39;) -->
<g id="node20" class="node">
<title>(2, &#39;C&#39;, &#39;z&#39;)</title>
<polygon fill="none" stroke="#000000" points="1218.1095,-163.5678 1222.4858,-163.6663 1226.8169,-163.8138 1231.085,-164.0098 1235.2729,-164.2538 1239.3638,-164.5451 1243.3415,-164.8829 1247.1906,-165.2663 1250.8964,-165.6943 1254.4451,-166.1657 1257.8241,-166.6791 1261.0214,-167.2332 1264.0265,-167.8264 1266.8299,-168.4572 1269.4233,-169.1238 1271.7994,-169.8244 1273.9525,-170.557 1275.878,-171.3196 1277.5723,-172.1102 1279.0335,-172.9266 1280.2605,-173.7666 1281.2536,-174.6278 1282.0141,-175.5079 1282.5446,-176.4044 1282.8485,-177.315 1282.9302,-178.2371 1282.7952,-179.1682 1282.4497,-180.1057 1281.9005,-181.0471 1281.1553,-181.9898 1280.2223,-182.9312 1279.11,-183.8687 1277.8276,-184.7998 1276.3843,-185.7219 1274.7897,-186.6325 1273.0535,-187.529 1271.1854,-188.4091 1269.1951,-189.2703 1267.0921,-190.1102 1264.8857,-190.9266 1262.5852,-191.7173 1260.1992,-192.4799 1257.7362,-193.2125 1255.2043,-193.9131 1252.6109,-194.5797 1249.9633,-195.2104 1247.2681,-195.8037 1244.5313,-196.3578 1241.7585,-196.8712 1238.9549,-197.3426 1236.1252,-197.7706 1233.2734,-198.154 1230.4032,-198.4918 1227.5181,-198.7831 1224.6209,-199.0271 1221.7143,-199.2231 1218.8006,-199.3706 1215.8821,-199.4691 1212.9607,-199.5184 1210.0384,-199.5184 1207.117,-199.4691 1204.1985,-199.3706 1201.2848,-199.2231 1198.3782,-199.0271 1195.481,-198.7831 1192.5959,-198.4918 1189.7257,-198.154 1186.8739,-197.7706 1184.0441,-197.3426 1181.2406,-196.8712 1178.4678,-196.3578 1175.731,-195.8037 1173.0358,-195.2104 1170.3882,-194.5797 1167.7948,-193.9131 1165.2629,-193.2125 1162.7999,-192.4799 1160.4139,-191.7173 1158.1134,-190.9266 1155.907,-190.1102 1153.804,-189.2703 1151.8136,-188.4091 1149.9455,-187.529 1148.2093,-186.6325 1146.6148,-185.7219 1145.1715,-184.7998 1143.8891,-183.8687 1142.7768,-182.9312 1141.8437,-181.9898 1141.0986,-181.0471 1140.5494,-180.1057 1140.2038,-179.1682 1140.0689,-178.2371 1140.1506,-177.315 1140.4545,-176.4044 1140.9849,-175.5079 1141.7455,-174.6278 1142.7386,-173.7666 1143.9656,-172.9266 1145.4267,-172.1102 1147.1211,-171.3196 1149.0466,-170.557 1151.1997,-169.8244 1153.5758,-169.1238 1156.1691,-168.4572 1158.9725,-167.8264 1161.9777,-167.2332 1165.175,-166.6791 1168.554,-166.1657 1172.1027,-165.6943 1175.8085,-165.2663 1179.6576,-164.8829 1183.6353,-164.5451 1187.7262,-164.2538 1191.9141,-164.0098 1196.1822,-163.8138 1200.5133,-163.6663 1204.8896,-163.5678 1209.2932,-163.5184 1213.7059,-163.5184 1218.1095,-163.5678"/>
<text text-anchor="middle" x="1211.4995" y="-179.0184" font-family="Courier,monospace" font-weight="bold" font-size="10.00" fill="#000000">(2, &#39;C&#39;, &#39;z&#39;)</text>
</g>
<!-- (2, &#39;B&#39;, &#39;y&#39;)&#45;&gt;(2, &#39;C&#39;, &#39;z&#39;) -->
<g id="edge49" class="edge">
<title>(2, &#39;B&#39;, &#39;y&#39;)&#45;&gt;(2, &#39;C&#39;, &#39;z&#39;)</title>
<path fill="none" stroke="#000000" d="M1074.9729,-140.3157C1098.4321,-147.3955 1127.9263,-156.2966 1153.4928,-164.0124"/>
<polygon fill="#000000" stroke="#000000" points="1152.4935,-167.3667 1163.0783,-166.9053 1154.5161,-160.6652 1152.4935,-167.3667"/>
</g>
<!-- (2, &#39;B&#39;, &#39;z&#39;)&#45;&gt;(&#45;1, &#39;SINK&#39;, None) -->
<g id="edge50" class="edge">
<title>(2, &#39;B&#39;, &#39;z&#39;)&#45;&gt;(&#45;1, &#39;SINK&#39;, None)</title>
<path fill="none" stroke="#000000" d="M1074.2217,-194.5249C1093.9549,-200.0284 1117.9835,-205.7908 1140.0342,-208.5184 1203.0784,-216.317 1220.6454,-220.8343 1282.9649,-208.5184 1315.0163,-202.1843 1349.0777,-187.9302 1374.4729,-175.657"/>
<polygon fill="#000000" stroke="#000000" points="1376.343,-178.6371 1383.7593,-171.0708 1373.2433,-172.3608 1376.343,-178.6371"/>
</g>
<!-- (2, &#39;B&#39;, &#39;z&#39;)&#45;&gt;(2, &#39;C&#39;, &#39;y&#39;) -->
<g id="edge51" class="edge">
<title>(2, &#39;B&#39;, &#39;z&#39;)&#45;&gt;(2, &#39;C&#39;, &#39;y&#39;)</title>
<path fill="none" stroke="#000000" d="M1080.9901,-166.9053C1105.2944,-159.5704 1134.7582,-150.6784 1159.5361,-143.2006"/>
<polygon fill="#000000" stroke="#000000" points="1160.5704,-146.5445 1169.1327,-140.3045 1158.5479,-139.843 1160.5704,-146.5445"/>
</g>
<!-- (2, &#39;B&#39;, &#39;z&#39;)&#45;&gt;(2, &#39;C&#39;, &#39;z&#39;) -->
<g id="edge52" class="edge">
<title>(2, &#39;B&#39;, &#39;z&#39;)&#45;&gt;(2, &#39;C&#39;, &#39;z&#39;)</title>
<path fill="none" stroke="#000000" d="M1102.7735,-181.5184C1112.0486,-181.5184 1121.6137,-181.5184 1131.044,-181.5184"/>
<polygon fill="#000000" stroke="#000000" points="1131.2038,-185.0185 1141.2037,-181.5184 1131.2037,-178.0185 1131.2038,-185.0185"/>
</g>
<!-- (2, &#39;C&#39;, &#39;y&#39;)&#45;&gt;(&#45;1, &#39;SINK&#39;, None) -->
<g id="edge53" class="edge">
<title>(2, &#39;C&#39;, &#39;y&#39;)&#45;&gt;(&#45;1, &#39;SINK&#39;, None)</title>
<path fill="none" stroke="#000000" d="M1269.3289,-135.2194C1285.4732,-137.3693 1303.4366,-139.7615 1321.0675,-142.1093"/>
<polygon fill="#000000" stroke="#000000" points="1321.019,-145.6337 1331.3935,-143.4844 1321.9431,-138.6949 1321.019,-145.6337"/>
</g>
<!-- (2, &#39;C&#39;, &#39;z&#39;)&#45;&gt;(&#45;1, &#39;SINK&#39;, None) -->
<g id="edge54" class="edge">
<title>(2, &#39;C&#39;, &#39;z&#39;)&#45;&gt;(&#45;1, &#39;SINK&#39;, None)</title>
<path fill="none" stroke="#000000" d="M1278.7315,-172.5653C1296.1413,-170.2469 1315.0721,-167.726 1333.1118,-165.3237"/>
<polygon fill="#000000" stroke="#000000" points="1333.5764,-168.7928 1343.0269,-164.0033 1332.6523,-161.854 1333.5764,-168.7928"/>
</g>
</g>
</svg>
