<svg class="bob" font-family="arial" font-size="14" height="208" width="880" xmlns="http://www.w3.org/2000/svg">
<defs>
<marker id="triangle" markerHeight="8" markerWidth="8" orient="auto" refX="4" refY="2" viewBox="0 0 8 4">
<polygon class="fg_fill" points="0,0 0,4 8,2 0,0"/>
</marker>
<marker id="clear_triangle" markerHeight="10" markerWidth="10" orient="auto" refX="1" refY="7" viewBox="0 0 20 14">
<polygon class="bg_fill" points="2,2 2,12 18,7 2,2"/>
</marker>
<marker id="circle" markerHeight="5" markerWidth="5" orient="auto" refX="10" refY="10" viewBox="0 0 20 20">
<circle class="fg_fill" cx="10" cy="10" r="8"/>
</marker>
<marker id="square" markerHeight="5" markerWidth="5" orient="auto" refX="10" refY="10" viewBox="0 0 20 20">
<rect class="fg_fill" height="20" width="20" x="0" y="0"/>
</marker>
<marker id="open_circle" markerHeight="10" markerWidth="10" orient="auto" refX="10" refY="10" viewBox="0 0 20 20">
<circle class="bg_fill" cx="10" cy="10" r="4"/>
</marker>
<marker id="big_open_circle" markerHeight="20" markerWidth="20" orient="auto" refX="20" refY="20" viewBox="0 0 40 40">
<circle class="bg_fill" cx="20" cy="20" r="6"/>
</marker>
</defs>
<style type="text/css">

rect.backdrop {
    fill: white;
}
text{
    fill: black;
}

circle {
    fill: none;
    stroke: black;
    stroke-width: 2;
}

line {
    stroke: black;
    stroke-width: 2;
    stroke-opacity: 1;
    fill-opacity: 1;
    stroke-linecap: round;
    stroke-linejoin: miter;
}

path {
    fill: none;
    stroke: black;
    stroke-width: 2;
    stroke-opacity: 1;
    fill-opacity: 1;
    stroke-linecap: round;
    stroke-linejoin: miter;
}

line.dashed {
    stroke-dasharray: 5;
}

.fg_fill {
    fill: black;
}


.bg_fill {
    fill: white;
    stroke: black;
    stroke-width: 2;
}

tspan.head{
    fill: none;
    stroke: none;
}
    
</style>
<rect class="backdrop" height="208" width="880" x="0" y="0"/>
<g>
<line x1="4" x2="4" y1="104" y2="136"/>
<line x1="4" x2="76" y1="104" y2="104"/>
<line x1="4" x2="76" y1="136" y2="136"/>
<line x1="76" x2="76" y1="104" y2="120"/>
<line x1="76" x2="76" y1="120" y2="136"/>
<line x1="76" x2="92" y1="120" y2="120"/>
<line x1="92" x2="92" y1="76" y2="120"/>
<line x1="92" x2="92" y1="120" y2="164"/>
<path d="M 92 164 A 4 4 0 0 0 96 168"/>
<path d="M 96 72 A 4 4 0 0 0 92 76"/>
</g>
<g>
<line marker-end="url(#triangle)" x1="96" x2="132" y1="72" y2="72"/>
</g>
<g>
<line marker-end="url(#triangle)" x1="96" x2="132" y1="168" y2="168"/>
</g>
<g>
<line x1="140" x2="140" y1="40" y2="88"/>
<line x1="140" x2="172" y1="40" y2="40"/>
<line x1="140" x2="172" y1="88" y2="88"/>
<line x1="172" x2="172" y1="40" y2="56"/>
<line x1="172" x2="172" y1="56" y2="72"/>
<line marker-end="url(#triangle)" x1="172" x2="276" y1="56" y2="56"/>
<line x1="172" x2="172" y1="72" y2="88"/>
<line x1="172" x2="176" y1="72" y2="72"/>
<path d="M 182 76 A 8 8 0 0 0 176 72"/>
</g>
<g>
<line x1="140" x2="140" y1="152" y2="200"/>
<line x1="140" x2="172" y1="152" y2="152"/>
<line x1="140" x2="172" y1="200" y2="200"/>
<line x1="172" x2="172" y1="152" y2="168"/>
<line x1="172" x2="172" y1="168" y2="184"/>
<line x1="172" x2="176" y1="168" y2="168"/>
<line x1="172" x2="172" y1="184" y2="200"/>
<line marker-end="url(#triangle)" x1="172" x2="276" y1="184" y2="184"/>
<path d="M 176 168 A 8 8 0 0 0 182 164"/>
</g>
<g>
<line x1="182" x2="204" y1="76" y2="120"/>
<line x1="204" x2="182" y1="120" y2="164"/>
<line x1="204" x2="226" y1="120" y2="164"/>
<line x1="226" x2="204" y1="76" y2="120"/>
<path d="M 226 164 A 8 8 0 0 0 232 168"/>
<path d="M 232 72 A 8 8 0 0 0 226 76"/>
</g>
<g>
<line marker-end="url(#triangle)" x1="232" x2="276" y1="72" y2="72"/>
</g>
<g>
<line marker-end="url(#triangle)" x1="232" x2="276" y1="168" y2="168"/>
</g>
<g>
<line x1="284" x2="284" y1="40" y2="88"/>
<line x1="284" x2="316" y1="40" y2="40"/>
<line x1="284" x2="316" y1="88" y2="88"/>
<line x1="316" x2="316" y1="40" y2="56"/>
<line x1="316" x2="316" y1="56" y2="72"/>
<line marker-end="url(#triangle)" x1="316" x2="420" y1="56" y2="56"/>
<line x1="316" x2="316" y1="72" y2="88"/>
<line x1="316" x2="320" y1="72" y2="72"/>
<path d="M 326 76 A 8 8 0 0 0 320 72"/>
</g>
<g>
<line x1="284" x2="284" y1="152" y2="200"/>
<line x1="284" x2="316" y1="152" y2="152"/>
<line x1="284" x2="316" y1="200" y2="200"/>
<line x1="316" x2="316" y1="152" y2="168"/>
<line x1="316" x2="316" y1="168" y2="184"/>
<line x1="316" x2="320" y1="168" y2="168"/>
<line x1="316" x2="316" y1="184" y2="200"/>
<line marker-end="url(#triangle)" x1="316" x2="420" y1="184" y2="184"/>
<path d="M 320 168 A 8 8 0 0 0 326 164"/>
</g>
<g>
<line x1="326" x2="348" y1="76" y2="120"/>
<line x1="348" x2="326" y1="120" y2="164"/>
<line x1="348" x2="370" y1="120" y2="164"/>
<line x1="370" x2="348" y1="76" y2="120"/>
<path d="M 370 164 A 8 8 0 0 0 376 168"/>
<path d="M 376 72 A 8 8 0 0 0 370 76"/>
</g>
<g>
<line marker-end="url(#triangle)" x1="376" x2="420" y1="72" y2="72"/>
</g>
<g>
<line marker-end="url(#triangle)" x1="376" x2="420" y1="168" y2="168"/>
</g>
<g>
<line x1="428" x2="428" y1="40" y2="88"/>
<line x1="428" x2="460" y1="40" y2="40"/>
<line x1="428" x2="460" y1="88" y2="88"/>
<line x1="460" x2="460" y1="40" y2="56"/>
<line x1="460" x2="460" y1="56" y2="72"/>
<line marker-end="url(#triangle)" x1="460" x2="564" y1="56" y2="56"/>
<line x1="460" x2="460" y1="72" y2="88"/>
<line x1="460" x2="464" y1="72" y2="72"/>
<path d="M 470 76 A 8 8 0 0 0 464 72"/>
</g>
<g>
<line x1="428" x2="428" y1="152" y2="200"/>
<line x1="428" x2="460" y1="152" y2="152"/>
<line x1="428" x2="460" y1="200" y2="200"/>
<line x1="460" x2="460" y1="152" y2="168"/>
<line x1="460" x2="460" y1="168" y2="184"/>
<line x1="460" x2="464" y1="168" y2="168"/>
<line x1="460" x2="460" y1="184" y2="200"/>
<line marker-end="url(#triangle)" x1="460" x2="564" y1="184" y2="184"/>
<path d="M 464 168 A 8 8 0 0 0 470 164"/>
</g>
<g>
<line x1="470" x2="492" y1="76" y2="120"/>
<line x1="492" x2="470" y1="120" y2="164"/>
<line x1="492" x2="514" y1="120" y2="164"/>
<line x1="514" x2="492" y1="76" y2="120"/>
<path d="M 514 164 A 8 8 0 0 0 520 168"/>
<path d="M 520 72 A 8 8 0 0 0 514 76"/>
</g>
<g>
<line marker-end="url(#triangle)" x1="520" x2="564" y1="72" y2="72"/>
</g>
<g>
<line marker-end="url(#triangle)" x1="520" x2="564" y1="168" y2="168"/>
</g>
<g>
<line x1="572" x2="572" y1="40" y2="88"/>
<line x1="572" x2="604" y1="40" y2="40"/>
<line x1="572" x2="604" y1="88" y2="88"/>
<line x1="604" x2="604" y1="40" y2="56"/>
<line x1="604" x2="604" y1="56" y2="72"/>
<line marker-end="url(#triangle)" x1="604" x2="708" y1="56" y2="56"/>
<line x1="604" x2="604" y1="72" y2="88"/>
<line x1="604" x2="608" y1="72" y2="72"/>
<path d="M 614 76 A 8 8 0 0 0 608 72"/>
</g>
<g>
<line x1="572" x2="572" y1="152" y2="200"/>
<line x1="572" x2="604" y1="152" y2="152"/>
<line x1="572" x2="604" y1="200" y2="200"/>
<line x1="604" x2="604" y1="152" y2="168"/>
<line x1="604" x2="604" y1="168" y2="184"/>
<line x1="604" x2="608" y1="168" y2="168"/>
<line x1="604" x2="604" y1="184" y2="200"/>
<line marker-end="url(#triangle)" x1="604" x2="708" y1="184" y2="184"/>
<path d="M 608 168 A 8 8 0 0 0 614 164"/>
</g>
<g>
<line x1="614" x2="636" y1="76" y2="120"/>
<line x1="636" x2="614" y1="120" y2="164"/>
<line x1="636" x2="658" y1="120" y2="164"/>
<line x1="658" x2="636" y1="76" y2="120"/>
<path d="M 658 164 A 8 8 0 0 0 664 168"/>
<path d="M 664 72 A 8 8 0 0 0 658 76"/>
</g>
<g>
<line marker-end="url(#triangle)" x1="664" x2="708" y1="72" y2="72"/>
</g>
<g>
<line marker-end="url(#triangle)" x1="664" x2="708" y1="168" y2="168"/>
</g>
<g>
<line x1="716" x2="716" y1="40" y2="88"/>
<line x1="716" x2="748" y1="40" y2="40"/>
<line x1="716" x2="748" y1="88" y2="88"/>
<line x1="748" x2="748" y1="40" y2="72"/>
<line x1="748" x2="748" y1="72" y2="88"/>
<line x1="748" x2="792" y1="72" y2="72"/>
<path d="M 796 76 A 4 4 0 0 0 792 72"/>
</g>
<g>
<line x1="716" x2="716" y1="152" y2="200"/>
<line x1="716" x2="748" y1="152" y2="152"/>
<line x1="716" x2="748" y1="200" y2="200"/>
<line x1="748" x2="748" y1="152" y2="168"/>
<line x1="748" x2="748" y1="168" y2="200"/>
<line x1="748" x2="792" y1="168" y2="168"/>
<path d="M 792 168 A 4 4 0 0 0 796 164"/>
</g>
<g>
<line x1="796" x2="796" y1="76" y2="120"/>
<line x1="796" x2="796" y1="120" y2="164"/>
<line marker-end="url(#triangle)" x1="796" x2="812" y1="120" y2="120"/>
</g>
<g>
<line x1="820" x2="820" y1="104" y2="136"/>
<line x1="820" x2="876" y1="104" y2="104"/>
<line x1="820" x2="876" y1="136" y2="136"/>
<line x1="876" x2="876" y1="104" y2="136"/>
</g>
<g>
<text x="17" y="124">
SOURCE
</text>
</g>
<g>
<text x="153" y="12">
z
</text>
</g>
<g>
<text x="153" y="60">
A
</text>
</g>
<g>
<text x="153" y="172">
B
</text>
</g>
<g>
<text x="297" y="12">
z
</text>
</g>
<g>
<text x="297" y="60">
A
</text>
</g>
<g>
<text x="297" y="172">
B
</text>
</g>
<g>
<text x="441" y="12">
x
</text>
</g>
<g>
<text x="441" y="60">
A
</text>
</g>
<g>
<text x="441" y="172">
B
</text>
</g>
<g>
<text x="585" y="12">
x
</text>
</g>
<g>
<text x="585" y="60">
A
</text>
</g>
<g>
<text x="585" y="172">
B
</text>
</g>
<g>
<text x="729" y="12">
y
</text>
</g>
<g>
<text x="729" y="60">
A
</text>
</g>
<g>
<text x="729" y="172">
B
</text>
</g>
<g>
<text x="833" y="124">
SINK
</text>
</g>
</svg>
