<?xml version="1.0" encoding="UTF-8" standalone="no"?>
<!DOCTYPE svg PUBLIC "-//W3C//DTD SVG 1.1//EN"
 "http://www.w3.org/Graphics/SVG/1.1/DTD/svg11.dtd">
<!-- Generated by graphviz version 2.40.1 (0)
 -->
<!-- Title: G Pages: 1 -->
<svg width="394pt" height="164pt"
 viewBox="0.00 0.00 394.00 164.00" xmlns="http://www.w3.org/2000/svg" xmlns:xlink="http://www.w3.org/1999/xlink">
<g id="graph0" class="graph" transform="scale(1 1) rotate(0) translate(4 160)">
<title>G</title>
<polygon fill="#ffffff" stroke="transparent" points="-4,4 -4,-160 390,-160 390,4 -4,4"/>
<g id="clust1" class="cluster">
<title>cluster_one</title>
<polygon fill="none" stroke="#000000" points="8,-8 8,-148 378,-148 378,-8 8,-8"/>
</g>
<!-- v0 -->
<g id="node1" class="node">
<title>v0</title>
<ellipse fill="none" stroke="#000000" cx="30.5" cy="-125" rx="14.5" ry="14.5"/>
<text text-anchor="middle" x="30.5" y="-122.5" font-family="Courier,monospace" font-weight="bold" font-size="10.00" fill="#000000">v0</text>
</g>
<!-- i0 -->
<g id="node2" class="node">
<title>i0</title>
<ellipse fill="none" stroke="#000000" cx="95.5" cy="-125" rx="14.5" ry="14.5"/>
<text text-anchor="middle" x="95.5" y="-122.5" font-family="Courier,monospace" font-weight="bold" font-size="10.00" fill="#000000">i0</text>
</g>
<!-- v0&#45;&#45;i0 -->
<g id="edge1" class="edge">
<title>v0&#45;&#45;i0</title>
<path fill="none" stroke="#000000" d="M45.2495,-125C55.8872,-125 70.1846,-125 80.8089,-125"/>
</g>
<!-- i1 -->
<g id="node4" class="node">
<title>i1</title>
<ellipse fill="none" stroke="#000000" cx="160.5" cy="-78" rx="14.5" ry="14.5"/>
<text text-anchor="middle" x="160.5" y="-75.5" font-family="Courier,monospace" font-weight="bold" font-size="10.00" fill="#000000">i1</text>
</g>
<!-- i0&#45;&#45;i1 -->
<g id="edge3" class="edge">
<title>i0&#45;&#45;i1</title>
<path fill="none" stroke="#000000" d="M107.422,-116.3795C119.1501,-107.8992 136.9517,-95.0273 148.6536,-86.5659"/>
</g>
<!-- v1 -->
<g id="node3" class="node">
<title>v1</title>
<ellipse fill="none" stroke="#000000" cx="30.5" cy="-78" rx="14.5" ry="14.5"/>
<text text-anchor="middle" x="30.5" y="-75.5" font-family="Courier,monospace" font-weight="bold" font-size="10.00" fill="#000000">v1</text>
</g>
<!-- v1&#45;&#45;i0 -->
<g id="edge2" class="edge">
<title>v1&#45;&#45;i0</title>
<path fill="none" stroke="#000000" d="M42.422,-86.6205C54.1501,-95.1008 71.9517,-107.9727 83.6536,-116.4341"/>
</g>
<!-- i2 -->
<g id="node7" class="node">
<title>i2</title>
<ellipse fill="none" stroke="#000000" cx="225.5" cy="-66" rx="14.5" ry="14.5"/>
<text text-anchor="middle" x="225.5" y="-63.5" font-family="Courier,monospace" font-weight="bold" font-size="10.00" fill="#000000">i2</text>
</g>
<!-- i1&#45;&#45;i2 -->
<g id="edge6" class="edge">
<title>i1&#45;&#45;i2</title>
<path fill="none" stroke="#000000" d="M174.9256,-75.3368C185.6972,-73.3482 200.3528,-70.6426 211.1147,-68.6557"/>
</g>
<!-- v2 -->
<g id="node5" class="node">
<title>v2</title>
<ellipse fill="none" stroke="#000000" cx="95.5" cy="-78" rx="14.5" ry="14.5"/>
<text text-anchor="middle" x="95.5" y="-75.5" font-family="Courier,monospace" font-weight="bold" font-size="10.00" fill="#000000">v2</text>
</g>
<!-- v2&#45;&#45;i1 -->
<g id="edge4" class="edge">
<title>v2&#45;&#45;i1</title>
<path fill="none" stroke="#000000" d="M110.2495,-78C120.8872,-78 135.1846,-78 145.8089,-78"/>
</g>
<!-- v3 -->
<g id="node6" class="node">
<title>v3</title>
<ellipse fill="none" stroke="#000000" cx="95.5" cy="-31" rx="14.5" ry="14.5"/>
<text text-anchor="middle" x="95.5" y="-28.5" font-family="Courier,monospace" font-weight="bold" font-size="10.00" fill="#000000">v3</text>
</g>
<!-- v3&#45;&#45;i1 -->
<g id="edge5" class="edge">
<title>v3&#45;&#45;i1</title>
<path fill="none" stroke="#000000" d="M107.422,-39.6205C119.1501,-48.1008 136.9517,-60.9727 148.6536,-69.4341"/>
</g>
<!-- i3 -->
<g id="node9" class="node">
<title>i3</title>
<ellipse fill="none" stroke="#000000" cx="290.5" cy="-66" rx="14.5" ry="14.5"/>
<text text-anchor="middle" x="290.5" y="-63.5" font-family="Courier,monospace" font-weight="bold" font-size="10.00" fill="#000000">i3</text>
</g>
<!-- i2&#45;&#45;i3 -->
<g id="edge8" class="edge">
<title>i2&#45;&#45;i3</title>
<path fill="none" stroke="#000000" d="M240.2495,-66C250.8872,-66 265.1846,-66 275.8089,-66"/>
</g>
<!-- v4 -->
<g id="node8" class="node">
<title>v4</title>
<ellipse fill="none" stroke="#000000" cx="160.5" cy="-31" rx="14.5" ry="14.5"/>
<text text-anchor="middle" x="160.5" y="-28.5" font-family="Courier,monospace" font-weight="bold" font-size="10.00" fill="#000000">v4</text>
</g>
<!-- v4&#45;&#45;i2 -->
<g id="edge7" class="edge">
<title>v4&#45;&#45;i2</title>
<path fill="none" stroke="#000000" d="M173.3419,-37.9149C184.7373,-44.0509 201.2974,-52.9679 212.6848,-59.0995"/>
</g>
<!-- v5 -->
<g id="node10" class="node">
<title>v5</title>
<ellipse fill="none" stroke="#000000" cx="355.5" cy="-54" rx="14.5" ry="14.5"/>
<text text-anchor="middle" x="355.5" y="-51.5" font-family="Courier,monospace" font-weight="bold" font-size="10.00" fill="#000000">v5</text>
</g>
<!-- i3&#45;&#45;v5 -->
<g id="edge9" class="edge">
<title>i3&#45;&#45;v5</title>
<path fill="none" stroke="#000000" d="M304.9256,-63.3368C315.6972,-61.3482 330.3528,-58.6426 341.1147,-56.6557"/>
</g>
<!-- v6 -->
<g id="node11" class="node">
<title>v6</title>
<ellipse fill="none" stroke="#000000" cx="355.5" cy="-101" rx="14.5" ry="14.5"/>
<text text-anchor="middle" x="355.5" y="-98.5" font-family="Courier,monospace" font-weight="bold" font-size="10.00" fill="#000000">v6</text>
</g>
<!-- i3&#45;&#45;v6 -->
<g id="edge10" class="edge">
<title>i3&#45;&#45;v6</title>
<path fill="none" stroke="#000000" d="M303.3419,-72.9149C314.7373,-79.0509 331.2974,-87.9679 342.6848,-94.0995"/>
</g>
</g>
</svg>
