<svg class="bob" font-family="arial" font-size="14" height="320" width="680" xmlns="http://www.w3.org/2000/svg">
<defs>
<marker id="triangle" markerHeight="8" markerWidth="8" orient="auto" refX="4" refY="2" viewBox="0 0 8 4">
<polygon class="fg_fill" points="0,0 0,4 8,2 0,0"/>
</marker>
<marker id="clear_triangle" markerHeight="10" markerWidth="10" orient="auto" refX="1" refY="7" viewBox="0 0 20 14">
<polygon class="bg_fill" points="2,2 2,12 18,7 2,2"/>
</marker>
<marker id="circle" markerHeight="5" markerWidth="5" orient="auto" refX="10" refY="10" viewBox="0 0 20 20">
<circle class="fg_fill" cx="10" cy="10" r="8"/>
</marker>
<marker id="square" markerHeight="5" markerWidth="5" orient="auto" refX="10" refY="10" viewBox="0 0 20 20">
<rect class="fg_fill" height="20" width="20" x="0" y="0"/>
</marker>
<marker id="open_circle" markerHeight="10" markerWidth="10" orient="auto" refX="10" refY="10" viewBox="0 0 20 20">
<circle class="bg_fill" cx="10" cy="10" r="4"/>
</marker>
<marker id="big_open_circle" markerHeight="20" markerWidth="20" orient="auto" refX="20" refY="20" viewBox="0 0 40 40">
<circle class="bg_fill" cx="20" cy="20" r="6"/>
</marker>
</defs>
<style type="text/css">

rect.backdrop {
    fill: white;
}
text{
    fill: black;
}

circle {
    fill: none;
    stroke: black;
    stroke-width: 2;
}

line {
    stroke: black;
    stroke-width: 2;
    stroke-opacity: 1;
    fill-opacity: 1;
    stroke-linecap: round;
    stroke-linejoin: miter;
}

path {
    fill: none;
    stroke: black;
    stroke-width: 2;
    stroke-opacity: 1;
    fill-opacity: 1;
    stroke-linecap: round;
    stroke-linejoin: miter;
}

line.dashed {
    stroke-dasharray: 5;
}

.fg_fill {
    fill: black;
}


.bg_fill {
    fill: white;
    stroke: black;
    stroke-width: 2;
}

tspan.head{
    fill: none;
    stroke: none;
}
    
</style>
<rect class="backdrop" height="320" width="680" x="0" y="0"/>
<g>
<line x1="4" x2="4" y1="136" y2="168"/>
<line x1="4" x2="60" y1="136" y2="136"/>
<line x1="4" x2="60" y1="168" y2="168"/>
<line x1="60" x2="60" y1="108" y2="136"/>
<line x1="60" x2="76" y1="136" y2="136"/>
<line x1="60" x2="60" y1="168" y2="196"/>
<line x1="60" x2="76" y1="168" y2="168"/>
<line x1="76" x2="76" y1="136" y2="168"/>
<path d="M 60 196 A 4 4 0 0 0 64 200"/>
<path d="M 64 104 A 4 4 0 0 0 60 108"/>
</g>
<g>
<line marker-end="url(#triangle)" x1="64" x2="92" y1="104" y2="104"/>
</g>
<g>
<line marker-end="url(#triangle)" x1="64" x2="92" y1="200" y2="200"/>
</g>
<g>
<line x1="100" x2="100" y1="72" y2="120"/>
<line x1="100" x2="140" y1="72" y2="72"/>
<line x1="100" x2="140" y1="120" y2="120"/>
<line x1="140" x2="140" y1="72" y2="88"/>
<line x1="140" x2="140" y1="88" y2="104"/>
<line marker-end="url(#triangle)" x1="140" x2="244" y1="88" y2="88"/>
<line x1="140" x2="140" y1="104" y2="120"/>
<line x1="140" x2="144" y1="104" y2="104"/>
<path d="M 150 108 A 8 8 0 0 0 144 104"/>
</g>
<g>
<line x1="100" x2="100" y1="184" y2="232"/>
<line x1="100" x2="140" y1="184" y2="184"/>
<line x1="100" x2="116" y1="232" y2="232"/>
<line marker-end="url(#triangle)" x1="116" x2="116" y1="232" y2="268"/>
<line x1="116" x2="140" y1="232" y2="232"/>
<line x1="140" x2="140" y1="184" y2="200"/>
<line x1="140" x2="140" y1="200" y2="232"/>
<line x1="140" x2="144" y1="200" y2="200"/>
<path d="M 144 200 A 8 8 0 0 0 150 196"/>
</g>
<g>
<line x1="100" x2="100" y1="280" y2="312"/>
<line x1="100" x2="140" y1="280" y2="280"/>
<line x1="100" x2="140" y1="312" y2="312"/>
<line x1="140" x2="140" y1="280" y2="296"/>
<line x1="140" x2="140" y1="296" y2="312"/>
<line x1="140" x2="144" y1="296" y2="296"/>
<path d="M 144 296 A 8 8 0 0 0 150 292"/>
</g>
<g>
<line x1="150" x2="172" y1="108" y2="152"/>
<line x1="172" x2="150" y1="152" y2="196"/>
<line x1="172" x2="194" y1="152" y2="196"/>
<line x1="194" x2="172" y1="108" y2="152"/>
<path d="M 194 196 A 8 8 0 0 0 200 200"/>
<path d="M 200 104 A 8 8 0 0 0 194 108"/>
</g>
<g>
<line x1="186" x2="150" y1="220" y2="292"/>
<path d="M 192 216 A 8 8 0 0 0 186 220"/>
</g>
<g>
<line marker-end="url(#triangle)" x1="192" x2="244" y1="216" y2="216"/>
</g>
<g>
<line marker-end="url(#triangle)" x1="200" x2="244" y1="104" y2="104"/>
</g>
<g>
<line marker-end="url(#triangle)" x1="200" x2="244" y1="200" y2="200"/>
</g>
<g>
<line x1="252" x2="252" y1="72" y2="120"/>
<line x1="252" x2="292" y1="72" y2="72"/>
<line x1="252" x2="292" y1="120" y2="120"/>
<line x1="292" x2="292" y1="72" y2="88"/>
<line x1="292" x2="292" y1="88" y2="104"/>
<line marker-end="url(#triangle)" x1="292" x2="396" y1="88" y2="88"/>
<line x1="292" x2="292" y1="104" y2="120"/>
<line x1="292" x2="296" y1="104" y2="104"/>
<path d="M 302 108 A 8 8 0 0 0 296 104"/>
</g>
<g>
<line x1="252" x2="252" y1="184" y2="232"/>
<line x1="252" x2="292" y1="184" y2="184"/>
<line x1="252" x2="268" y1="232" y2="232"/>
<line marker-end="url(#triangle)" x1="268" x2="268" y1="232" y2="268"/>
<line x1="268" x2="292" y1="232" y2="232"/>
<line x1="292" x2="292" y1="184" y2="200"/>
<line x1="292" x2="292" y1="200" y2="232"/>
<line x1="292" x2="296" y1="200" y2="200"/>
<path d="M 296 200 A 8 8 0 0 0 302 196"/>
</g>
<g>
<line x1="252" x2="252" y1="280" y2="312"/>
<line x1="252" x2="292" y1="280" y2="280"/>
<line x1="252" x2="292" y1="312" y2="312"/>
<line x1="292" x2="292" y1="280" y2="296"/>
<line x1="292" x2="292" y1="296" y2="312"/>
<line x1="292" x2="296" y1="296" y2="296"/>
<path d="M 296 296 A 8 8 0 0 0 302 292"/>
</g>
<g>
<line x1="302" x2="324" y1="108" y2="152"/>
<line x1="324" x2="302" y1="152" y2="196"/>
<line x1="324" x2="346" y1="152" y2="196"/>
<line x1="346" x2="324" y1="108" y2="152"/>
<path d="M 346 196 A 8 8 0 0 0 352 200"/>
<path d="M 352 104 A 8 8 0 0 0 346 108"/>
</g>
<g>
<line x1="338" x2="302" y1="220" y2="292"/>
<path d="M 344 216 A 8 8 0 0 0 338 220"/>
</g>
<g>
<line marker-end="url(#triangle)" x1="344" x2="396" y1="216" y2="216"/>
</g>
<g>
<line marker-end="url(#triangle)" x1="352" x2="396" y1="104" y2="104"/>
</g>
<g>
<line marker-end="url(#triangle)" x1="352" x2="396" y1="200" y2="200"/>
</g>
<g>
<line x1="404" x2="404" y1="72" y2="120"/>
<line x1="404" x2="444" y1="72" y2="72"/>
<line x1="404" x2="444" y1="120" y2="120"/>
<line x1="444" x2="444" y1="72" y2="88"/>
<line x1="444" x2="444" y1="88" y2="104"/>
<line marker-end="url(#triangle)" x1="444" x2="548" y1="88" y2="88"/>
<line x1="444" x2="444" y1="104" y2="120"/>
<line x1="444" x2="448" y1="104" y2="104"/>
<path d="M 454 108 A 8 8 0 0 0 448 104"/>
</g>
<g>
<line x1="404" x2="404" y1="184" y2="232"/>
<line x1="404" x2="444" y1="184" y2="184"/>
<line x1="404" x2="420" y1="232" y2="232"/>
<line marker-end="url(#triangle)" x1="420" x2="420" y1="232" y2="268"/>
<line x1="420" x2="444" y1="232" y2="232"/>
<line x1="444" x2="444" y1="184" y2="200"/>
<line x1="444" x2="444" y1="200" y2="232"/>
<line x1="444" x2="448" y1="200" y2="200"/>
<path d="M 448 200 A 8 8 0 0 0 454 196"/>
</g>
<g>
<line x1="404" x2="404" y1="280" y2="312"/>
<line x1="404" x2="444" y1="280" y2="280"/>
<line x1="404" x2="444" y1="312" y2="312"/>
<line x1="444" x2="444" y1="280" y2="296"/>
<line x1="444" x2="444" y1="296" y2="312"/>
<line x1="444" x2="448" y1="296" y2="296"/>
<path d="M 448 296 A 8 8 0 0 0 454 292"/>
</g>
<g>
<line x1="454" x2="476" y1="108" y2="152"/>
<line x1="476" x2="454" y1="152" y2="196"/>
<line x1="476" x2="498" y1="152" y2="196"/>
<line x1="498" x2="476" y1="108" y2="152"/>
<path d="M 498 196 A 8 8 0 0 0 504 200"/>
<path d="M 504 104 A 8 8 0 0 0 498 108"/>
</g>
<g>
<line x1="490" x2="454" y1="220" y2="292"/>
<path d="M 496 216 A 8 8 0 0 0 490 220"/>
</g>
<g>
<line marker-end="url(#triangle)" x1="496" x2="548" y1="216" y2="216"/>
</g>
<g>
<line marker-end="url(#triangle)" x1="504" x2="548" y1="104" y2="104"/>
</g>
<g>
<line marker-end="url(#triangle)" x1="504" x2="548" y1="200" y2="200"/>
</g>
<g>
<line x1="556" x2="556" y1="72" y2="120"/>
<line x1="556" x2="596" y1="72" y2="72"/>
<line x1="556" x2="596" y1="120" y2="120"/>
<line x1="596" x2="596" y1="72" y2="88"/>
<line x1="596" x2="596" y1="88" y2="120"/>
<line x1="596" x2="624" y1="88" y2="88"/>
<path d="M 628 92 A 4 4 0 0 0 624 88"/>
</g>
<g>
<line x1="556" x2="556" y1="184" y2="232"/>
<line x1="556" x2="596" y1="184" y2="184"/>
<line x1="556" x2="572" y1="232" y2="232"/>
<line marker-end="url(#triangle)" x1="572" x2="572" y1="232" y2="268"/>
<line x1="572" x2="596" y1="232" y2="232"/>
<line x1="596" x2="596" y1="184" y2="216"/>
<line x1="596" x2="596" y1="216" y2="232"/>
<line x1="596" x2="624" y1="216" y2="216"/>
<path d="M 624 216 A 4 4 0 0 0 628 212"/>
</g>
<g>
<line x1="556" x2="556" y1="280" y2="312"/>
<line x1="556" x2="596" y1="280" y2="280"/>
<line x1="556" x2="596" y1="312" y2="312"/>
<line x1="596" x2="596" y1="280" y2="296"/>
<line x1="596" x2="596" y1="296" y2="312"/>
<line x1="596" x2="640" y1="296" y2="296"/>
<path d="M 640 296 A 4 4 0 0 0 644 292"/>
</g>
<g>
<line x1="620" x2="620" y1="136" y2="168"/>
<line x1="620" x2="676" y1="136" y2="136"/>
<line x1="620" x2="676" y1="168" y2="168"/>
<line x1="676" x2="676" y1="136" y2="168"/>
</g>
<g>
<line marker-end="url(#triangle)" x1="628" x2="628" y1="92" y2="124"/>
</g>
<g>
<line marker-end="url(#triangle)" x1="628" x2="628" y1="192" y2="180"/>
<line x1="628" x2="628" y1="192" y2="212"/>
</g>
<g>
<line marker-end="url(#triangle)" x1="644" x2="644" y1="192" y2="180"/>
<line x1="644" x2="644" y1="192" y2="292"/>
</g>
<g>
<text x="17" y="156">
SOURCE
</text>
</g>
<g>
<text x="113" y="92">
A0
</text>
</g>
<g>
<text x="113" y="204">
B0
</text>
</g>
<g>
<text x="113" y="300">
C0
</text>
</g>
<g>
<text x="121" y="44">
y
</text>
</g>
<g>
<text x="265" y="92">
A1
</text>
</g>
<g>
<text x="265" y="204">
B1
</text>
</g>
<g>
<text x="265" y="300">
C1
</text>
</g>
<g>
<text x="273" y="44">
y
</text>
</g>
<g>
<text x="289" y="12">
EXPLODED OUT HMM
</text>
</g>
<g>
<text x="417" y="92">
A2
</text>
</g>
<g>
<text x="417" y="204">
B2
</text>
</g>
<g>
<text x="417" y="300">
C2
</text>
</g>
<g>
<text x="425" y="44">
z
</text>
</g>
<g>
<text x="569" y="92">
A3
</text>
</g>
<g>
<text x="569" y="204">
B3
</text>
</g>
<g>
<text x="569" y="300">
C3
</text>
</g>
<g>
<text x="577" y="44">
z
</text>
</g>
<g>
<text x="633" y="156">
SINK
</text>
</g>
</svg>
