<svg class="bob" font-family="arial" font-size="14" height="1088" width="480" xmlns="http://www.w3.org/2000/svg">
<defs>
<marker id="triangle" markerHeight="8" markerWidth="8" orient="auto" refX="4" refY="2" viewBox="0 0 8 4">
<polygon class="fg_fill" points="0,0 0,4 8,2 0,0"/>
</marker>
<marker id="clear_triangle" markerHeight="10" markerWidth="10" orient="auto" refX="1" refY="7" viewBox="0 0 20 14">
<polygon class="bg_fill" points="2,2 2,12 18,7 2,2"/>
</marker>
<marker id="circle" markerHeight="5" markerWidth="5" orient="auto" refX="10" refY="10" viewBox="0 0 20 20">
<circle class="fg_fill" cx="10" cy="10" r="8"/>
</marker>
<marker id="square" markerHeight="5" markerWidth="5" orient="auto" refX="10" refY="10" viewBox="0 0 20 20">
<rect class="fg_fill" height="20" width="20" x="0" y="0"/>
</marker>
<marker id="open_circle" markerHeight="10" markerWidth="10" orient="auto" refX="10" refY="10" viewBox="0 0 20 20">
<circle class="bg_fill" cx="10" cy="10" r="4"/>
</marker>
<marker id="big_open_circle" markerHeight="20" markerWidth="20" orient="auto" refX="20" refY="20" viewBox="0 0 40 40">
<circle class="bg_fill" cx="20" cy="20" r="6"/>
</marker>
</defs>
<style type="text/css">

rect.backdrop {
    fill: white;
}
text{
    fill: black;
}

circle {
    fill: none;
    stroke: black;
    stroke-width: 2;
}

line {
    stroke: black;
    stroke-width: 2;
    stroke-opacity: 1;
    fill-opacity: 1;
    stroke-linecap: round;
    stroke-linejoin: miter;
}

path {
    fill: none;
    stroke: black;
    stroke-width: 2;
    stroke-opacity: 1;
    fill-opacity: 1;
    stroke-linecap: round;
    stroke-linejoin: miter;
}

line.dashed {
    stroke-dasharray: 5;
}

.fg_fill {
    fill: black;
}


.bg_fill {
    fill: white;
    stroke: black;
    stroke-width: 2;
}

tspan.head{
    fill: none;
    stroke: none;
}
    
</style>
<rect class="backdrop" height="1088" width="480" x="0" y="0"/>
<g>
<line x1="0" x2="20" y1="664" y2="664"/>
<line x1="20" x2="20" y1="584" y2="664"/>
<line x1="20" x2="56" y1="584" y2="584"/>
<line x1="20" x2="20" y1="664" y2="792"/>
<line x1="20" x2="20" y1="792" y2="996"/>
<line x1="20" x2="56" y1="792" y2="792"/>
<path d="M 20 996 A 4 4 0 0 0 24 1000"/>
</g>
<g>
<line x1="20" x2="20" y1="172" y2="376"/>
<line x1="20" x2="20" y1="376" y2="584"/>
<line x1="20" x2="56" y1="376" y2="376"/>
<path d="M 24 168 A 4 4 0 0 0 20 172"/>
</g>
<g>
<line x1="24" x2="56" y1="168" y2="168"/>
</g>
<g>
<line x1="24" x2="56" y1="1000" y2="1000"/>
</g>
<g>
<line x1="60" x2="60" y1="160" y2="176"/>
<line x1="60" x2="64" y1="176" y2="176"/>
<line x1="64" x2="60" y1="160" y2="160"/>
</g>
<g>
<line x1="60" x2="60" y1="368" y2="384"/>
<line x1="60" x2="64" y1="384" y2="384"/>
<line x1="64" x2="60" y1="368" y2="368"/>
</g>
<g>
<line x1="60" x2="60" y1="576" y2="592"/>
<line x1="60" x2="64" y1="592" y2="592"/>
<line x1="64" x2="60" y1="576" y2="576"/>
</g>
<g>
<line x1="88" x2="92" y1="160" y2="160"/>
<line x1="92" x2="92" y1="160" y2="176"/>
<line x1="92" x2="88" y1="176" y2="176"/>
</g>
<g>
<line x1="88" x2="92" y1="368" y2="368"/>
<line x1="92" x2="92" y1="368" y2="384"/>
<line x1="92" x2="88" y1="384" y2="384"/>
</g>
<g>
<line x1="88" x2="92" y1="576" y2="576"/>
<line x1="92" x2="92" y1="576" y2="592"/>
<line x1="92" x2="88" y1="592" y2="592"/>
</g>
<g>
<line x1="96" x2="156" y1="168" y2="168"/>
<line x1="156" x2="156" y1="136" y2="168"/>
<line x1="156" x2="208" y1="136" y2="136"/>
<line x1="156" x2="156" y1="168" y2="184"/>
<line x1="156" x2="156" y1="184" y2="228"/>
<line x1="156" x2="208" y1="184" y2="184"/>
<path d="M 156 228 A 4 4 0 0 0 160 232"/>
</g>
<g>
<line x1="96" x2="156" y1="376" y2="376"/>
<line x1="156" x2="156" y1="344" y2="376"/>
<line x1="156" x2="208" y1="344" y2="344"/>
<line x1="156" x2="156" y1="376" y2="392"/>
<line x1="156" x2="156" y1="392" y2="436"/>
<line x1="156" x2="208" y1="392" y2="392"/>
<path d="M 156 436 A 4 4 0 0 0 160 440"/>
</g>
<g>
<line x1="96" x2="156" y1="584" y2="584"/>
<line x1="156" x2="156" y1="552" y2="584"/>
<line x1="156" x2="208" y1="552" y2="552"/>
<line x1="156" x2="156" y1="584" y2="600"/>
<line x1="156" x2="156" y1="600" y2="644"/>
<line x1="156" x2="208" y1="600" y2="600"/>
<path d="M 156 644 A 4 4 0 0 0 160 648"/>
</g>
<g>
<line x1="96" x2="156" y1="792" y2="792"/>
<line x1="156" x2="156" y1="760" y2="792"/>
<line x1="156" x2="208" y1="760" y2="760"/>
<line x1="156" x2="156" y1="792" y2="808"/>
<line x1="156" x2="156" y1="808" y2="852"/>
<line x1="156" x2="208" y1="808" y2="808"/>
<path d="M 156 852 A 4 4 0 0 0 160 856"/>
</g>
<g>
<line x1="96" x2="156" y1="1000" y2="1000"/>
<line x1="156" x2="156" y1="968" y2="1000"/>
<line x1="156" x2="208" y1="968" y2="968"/>
<line x1="156" x2="156" y1="1000" y2="1016"/>
<line x1="156" x2="156" y1="1016" y2="1060"/>
<line x1="156" x2="208" y1="1016" y2="1016"/>
<path d="M 156 1060 A 4 4 0 0 0 160 1064"/>
</g>
<g>
<line x1="156" x2="156" y1="92" y2="136"/>
<path d="M 160 88 A 4 4 0 0 0 156 92"/>
</g>
<g>
<line x1="156" x2="156" y1="300" y2="344"/>
<path d="M 160 296 A 4 4 0 0 0 156 300"/>
</g>
<g>
<line x1="156" x2="156" y1="508" y2="552"/>
<path d="M 160 504 A 4 4 0 0 0 156 508"/>
</g>
<g>
<line x1="156" x2="156" y1="716" y2="760"/>
<path d="M 160 712 A 4 4 0 0 0 156 716"/>
</g>
<g>
<line x1="156" x2="156" y1="924" y2="968"/>
<path d="M 160 920 A 4 4 0 0 0 156 924"/>
</g>
<g>
<line x1="160" x2="208" y1="88" y2="88"/>
</g>
<g>
<line x1="160" x2="208" y1="232" y2="232"/>
</g>
<g>
<line x1="160" x2="208" y1="296" y2="296"/>
</g>
<g>
<line x1="160" x2="208" y1="440" y2="440"/>
</g>
<g>
<line x1="160" x2="208" y1="504" y2="504"/>
</g>
<g>
<line x1="160" x2="208" y1="648" y2="648"/>
</g>
<g>
<line x1="160" x2="208" y1="712" y2="712"/>
</g>
<g>
<line x1="160" x2="208" y1="856" y2="856"/>
</g>
<g>
<line x1="160" x2="208" y1="920" y2="920"/>
</g>
<g>
<line x1="160" x2="208" y1="1064" y2="1064"/>
</g>
<g>
<line x1="212" x2="212" y1="80" y2="96"/>
<line x1="212" x2="216" y1="96" y2="96"/>
<line x1="216" x2="212" y1="80" y2="80"/>
</g>
<g>
<line x1="212" x2="212" y1="128" y2="144"/>
<line x1="212" x2="216" y1="144" y2="144"/>
<line x1="216" x2="212" y1="128" y2="128"/>
</g>
<g>
<line x1="212" x2="212" y1="288" y2="304"/>
<line x1="212" x2="216" y1="304" y2="304"/>
<line x1="216" x2="212" y1="288" y2="288"/>
</g>
<g>
<line x1="212" x2="212" y1="336" y2="352"/>
<line x1="212" x2="216" y1="352" y2="352"/>
<line x1="216" x2="212" y1="336" y2="336"/>
</g>
<g>
<line x1="212" x2="212" y1="496" y2="512"/>
<line x1="212" x2="216" y1="512" y2="512"/>
<line x1="216" x2="212" y1="496" y2="496"/>
</g>
<g>
<line x1="212" x2="212" y1="544" y2="560"/>
<line x1="212" x2="216" y1="560" y2="560"/>
<line x1="216" x2="212" y1="544" y2="544"/>
</g>
<g>
<line x1="256" x2="260" y1="80" y2="80"/>
<line x1="260" x2="260" y1="80" y2="96"/>
<line x1="260" x2="256" y1="96" y2="96"/>
</g>
<g>
<line x1="256" x2="260" y1="128" y2="128"/>
<line x1="260" x2="260" y1="128" y2="144"/>
<line x1="260" x2="256" y1="144" y2="144"/>
</g>
<g>
<line x1="256" x2="260" y1="288" y2="288"/>
<line x1="260" x2="260" y1="288" y2="304"/>
<line x1="260" x2="256" y1="304" y2="304"/>
</g>
<g>
<line x1="256" x2="260" y1="336" y2="336"/>
<line x1="260" x2="260" y1="336" y2="352"/>
<line x1="260" x2="256" y1="352" y2="352"/>
</g>
<g>
<line x1="256" x2="260" y1="496" y2="496"/>
<line x1="260" x2="260" y1="496" y2="512"/>
<line x1="260" x2="256" y1="512" y2="512"/>
</g>
<g>
<line x1="256" x2="260" y1="544" y2="544"/>
<line x1="260" x2="260" y1="544" y2="560"/>
<line x1="260" x2="256" y1="560" y2="560"/>
</g>
<g>
<line x1="264" x2="316" y1="88" y2="88"/>
<line x1="316" x2="316" y1="76" y2="88"/>
<line x1="316" x2="316" y1="88" y2="100"/>
<line x1="316" x2="376" y1="88" y2="88"/>
<path d="M 316 100 A 4 4 0 0 0 320 104"/>
<path d="M 320 72 A 4 4 0 0 0 316 76"/>
</g>
<g>
<line x1="264" x2="316" y1="136" y2="136"/>
<line x1="316" x2="316" y1="124" y2="136"/>
<line x1="316" x2="316" y1="136" y2="148"/>
<line x1="316" x2="376" y1="136" y2="136"/>
<path d="M 316 148 A 4 4 0 0 0 320 152"/>
<path d="M 320 120 A 4 4 0 0 0 316 124"/>
</g>
<g>
<line x1="264" x2="316" y1="184" y2="184"/>
<line x1="316" x2="316" y1="172" y2="184"/>
<line x1="316" x2="316" y1="184" y2="196"/>
<line x1="316" x2="376" y1="184" y2="184"/>
<path d="M 316 196 A 4 4 0 0 0 320 200"/>
<path d="M 320 168 A 4 4 0 0 0 316 172"/>
</g>
<g>
<line x1="264" x2="316" y1="232" y2="232"/>
<line x1="316" x2="316" y1="220" y2="232"/>
<line x1="316" x2="316" y1="232" y2="244"/>
<line x1="316" x2="376" y1="232" y2="232"/>
<path d="M 316 244 A 4 4 0 0 0 320 248"/>
<path d="M 320 216 A 4 4 0 0 0 316 220"/>
</g>
<g>
<line x1="264" x2="316" y1="296" y2="296"/>
<line x1="316" x2="316" y1="284" y2="296"/>
<line x1="316" x2="316" y1="296" y2="308"/>
<line x1="316" x2="376" y1="296" y2="296"/>
<path d="M 316 308 A 4 4 0 0 0 320 312"/>
<path d="M 320 280 A 4 4 0 0 0 316 284"/>
</g>
<g>
<line x1="264" x2="316" y1="344" y2="344"/>
<line x1="316" x2="316" y1="332" y2="344"/>
<line x1="316" x2="316" y1="344" y2="356"/>
<line x1="316" x2="376" y1="344" y2="344"/>
<path d="M 316 356 A 4 4 0 0 0 320 360"/>
<path d="M 320 328 A 4 4 0 0 0 316 332"/>
</g>
<g>
<line x1="264" x2="316" y1="392" y2="392"/>
<line x1="316" x2="316" y1="380" y2="392"/>
<line x1="316" x2="316" y1="392" y2="404"/>
<line x1="316" x2="376" y1="392" y2="392"/>
<path d="M 316 404 A 4 4 0 0 0 320 408"/>
<path d="M 320 376 A 4 4 0 0 0 316 380"/>
</g>
<g>
<line x1="264" x2="316" y1="440" y2="440"/>
<line x1="316" x2="316" y1="428" y2="440"/>
<line x1="316" x2="316" y1="440" y2="452"/>
<line x1="316" x2="376" y1="440" y2="440"/>
<path d="M 316 452 A 4 4 0 0 0 320 456"/>
<path d="M 320 424 A 4 4 0 0 0 316 428"/>
</g>
<g>
<line x1="264" x2="316" y1="504" y2="504"/>
<line x1="316" x2="316" y1="492" y2="504"/>
<line x1="316" x2="316" y1="504" y2="516"/>
<line x1="316" x2="376" y1="504" y2="504"/>
<path d="M 316 516 A 4 4 0 0 0 320 520"/>
<path d="M 320 488 A 4 4 0 0 0 316 492"/>
</g>
<g>
<line x1="264" x2="316" y1="552" y2="552"/>
<line x1="316" x2="316" y1="540" y2="552"/>
<line x1="316" x2="316" y1="552" y2="564"/>
<line x1="316" x2="376" y1="552" y2="552"/>
<path d="M 316 564 A 4 4 0 0 0 320 568"/>
<path d="M 320 536 A 4 4 0 0 0 316 540"/>
</g>
<g>
<line x1="264" x2="316" y1="600" y2="600"/>
<line x1="316" x2="316" y1="588" y2="600"/>
<line x1="316" x2="316" y1="600" y2="612"/>
<line x1="316" x2="376" y1="600" y2="600"/>
<path d="M 316 612 A 4 4 0 0 0 320 616"/>
<path d="M 320 584 A 4 4 0 0 0 316 588"/>
</g>
<g>
<line x1="264" x2="316" y1="648" y2="648"/>
<line x1="316" x2="316" y1="636" y2="648"/>
<line x1="316" x2="316" y1="648" y2="660"/>
<line x1="316" x2="376" y1="648" y2="648"/>
<path d="M 316 660 A 4 4 0 0 0 320 664"/>
<path d="M 320 632 A 4 4 0 0 0 316 636"/>
</g>
<g>
<line x1="264" x2="316" y1="712" y2="712"/>
<line x1="316" x2="316" y1="700" y2="712"/>
<line x1="316" x2="316" y1="712" y2="724"/>
<line x1="316" x2="376" y1="712" y2="712"/>
<path d="M 316 724 A 4 4 0 0 0 320 728"/>
<path d="M 320 696 A 4 4 0 0 0 316 700"/>
</g>
<g>
<line x1="264" x2="316" y1="760" y2="760"/>
<line x1="316" x2="316" y1="748" y2="760"/>
<line x1="316" x2="316" y1="760" y2="772"/>
<line x1="316" x2="376" y1="760" y2="760"/>
<path d="M 316 772 A 4 4 0 0 0 320 776"/>
<path d="M 320 744 A 4 4 0 0 0 316 748"/>
</g>
<g>
<line x1="264" x2="316" y1="808" y2="808"/>
<line x1="316" x2="316" y1="796" y2="808"/>
<line x1="316" x2="316" y1="808" y2="820"/>
<line x1="316" x2="376" y1="808" y2="808"/>
<path d="M 316 820 A 4 4 0 0 0 320 824"/>
<path d="M 320 792 A 4 4 0 0 0 316 796"/>
</g>
<g>
<line x1="264" x2="316" y1="856" y2="856"/>
<line x1="316" x2="316" y1="844" y2="856"/>
<line x1="316" x2="316" y1="856" y2="868"/>
<line x1="316" x2="376" y1="856" y2="856"/>
<path d="M 316 868 A 4 4 0 0 0 320 872"/>
<path d="M 320 840 A 4 4 0 0 0 316 844"/>
</g>
<g>
<line x1="264" x2="316" y1="920" y2="920"/>
<line x1="316" x2="316" y1="908" y2="920"/>
<line x1="316" x2="316" y1="920" y2="932"/>
<line x1="316" x2="376" y1="920" y2="920"/>
<path d="M 316 932 A 4 4 0 0 0 320 936"/>
<path d="M 320 904 A 4 4 0 0 0 316 908"/>
</g>
<g>
<line x1="264" x2="316" y1="968" y2="968"/>
<line x1="316" x2="316" y1="956" y2="968"/>
<line x1="316" x2="316" y1="968" y2="980"/>
<line x1="316" x2="376" y1="968" y2="968"/>
<path d="M 316 980 A 4 4 0 0 0 320 984"/>
<path d="M 320 952 A 4 4 0 0 0 316 956"/>
</g>
<g>
<line x1="264" x2="316" y1="1016" y2="1016"/>
<line x1="316" x2="316" y1="1004" y2="1016"/>
<line x1="316" x2="316" y1="1016" y2="1028"/>
<line x1="316" x2="376" y1="1016" y2="1016"/>
<path d="M 316 1028 A 4 4 0 0 0 320 1032"/>
<path d="M 320 1000 A 4 4 0 0 0 316 1004"/>
</g>
<g>
<line x1="264" x2="316" y1="1064" y2="1064"/>
<line x1="316" x2="316" y1="1052" y2="1064"/>
<line x1="316" x2="316" y1="1064" y2="1076"/>
<line x1="316" x2="376" y1="1064" y2="1064"/>
<path d="M 316 1076 A 4 4 0 0 0 320 1080"/>
<path d="M 320 1048 A 4 4 0 0 0 316 1052"/>
</g>
<g>
<line x1="320" x2="376" y1="72" y2="72"/>
</g>
<g>
<line x1="320" x2="376" y1="104" y2="104"/>
</g>
<g>
<line x1="320" x2="376" y1="120" y2="120"/>
</g>
<g>
<line x1="320" x2="376" y1="152" y2="152"/>
</g>
<g>
<line x1="320" x2="376" y1="168" y2="168"/>
</g>
<g>
<line x1="320" x2="376" y1="200" y2="200"/>
</g>
<g>
<line x1="320" x2="376" y1="216" y2="216"/>
</g>
<g>
<line x1="320" x2="376" y1="248" y2="248"/>
</g>
<g>
<line x1="320" x2="376" y1="280" y2="280"/>
</g>
<g>
<line x1="320" x2="376" y1="312" y2="312"/>
</g>
<g>
<line x1="320" x2="376" y1="328" y2="328"/>
</g>
<g>
<line x1="320" x2="376" y1="360" y2="360"/>
</g>
<g>
<line x1="320" x2="376" y1="376" y2="376"/>
</g>
<g>
<line x1="320" x2="376" y1="408" y2="408"/>
</g>
<g>
<line x1="320" x2="376" y1="424" y2="424"/>
</g>
<g>
<line x1="320" x2="376" y1="456" y2="456"/>
</g>
<g>
<line x1="320" x2="376" y1="488" y2="488"/>
</g>
<g>
<line x1="320" x2="376" y1="520" y2="520"/>
</g>
<g>
<line x1="320" x2="376" y1="536" y2="536"/>
</g>
<g>
<line x1="320" x2="376" y1="568" y2="568"/>
</g>
<g>
<line x1="320" x2="376" y1="584" y2="584"/>
</g>
<g>
<line x1="320" x2="376" y1="616" y2="616"/>
</g>
<g>
<line x1="320" x2="376" y1="632" y2="632"/>
</g>
<g>
<line x1="320" x2="376" y1="664" y2="664"/>
</g>
<g>
<line x1="320" x2="376" y1="696" y2="696"/>
</g>
<g>
<line x1="320" x2="376" y1="728" y2="728"/>
</g>
<g>
<line x1="320" x2="376" y1="744" y2="744"/>
</g>
<g>
<line x1="320" x2="376" y1="776" y2="776"/>
</g>
<g>
<line x1="320" x2="376" y1="792" y2="792"/>
</g>
<g>
<line x1="320" x2="376" y1="824" y2="824"/>
</g>
<g>
<line x1="320" x2="376" y1="840" y2="840"/>
</g>
<g>
<line x1="320" x2="376" y1="872" y2="872"/>
</g>
<g>
<line x1="320" x2="376" y1="904" y2="904"/>
</g>
<g>
<line x1="320" x2="376" y1="936" y2="936"/>
</g>
<g>
<line x1="320" x2="376" y1="952" y2="952"/>
</g>
<g>
<line x1="320" x2="376" y1="984" y2="984"/>
</g>
<g>
<line x1="320" x2="376" y1="1000" y2="1000"/>
</g>
<g>
<line x1="320" x2="376" y1="1032" y2="1032"/>
</g>
<g>
<line x1="320" x2="376" y1="1048" y2="1048"/>
</g>
<g>
<line x1="320" x2="376" y1="1080" y2="1080"/>
</g>
<g>
<line x1="380" x2="380" y1="64" y2="80"/>
<line x1="380" x2="384" y1="80" y2="80"/>
<line x1="384" x2="380" y1="64" y2="64"/>
</g>
<g>
<line x1="380" x2="380" y1="112" y2="128"/>
<line x1="380" x2="384" y1="128" y2="128"/>
<line x1="384" x2="380" y1="112" y2="112"/>
</g>
<g>
<line x1="380" x2="380" y1="272" y2="288"/>
<line x1="380" x2="384" y1="288" y2="288"/>
<line x1="384" x2="380" y1="272" y2="272"/>
</g>
<g>
<line x1="380" x2="380" y1="320" y2="336"/>
<line x1="380" x2="384" y1="336" y2="336"/>
<line x1="384" x2="380" y1="320" y2="320"/>
</g>
<g>
<line x1="380" x2="380" y1="480" y2="496"/>
<line x1="380" x2="384" y1="496" y2="496"/>
<line x1="384" x2="380" y1="480" y2="480"/>
</g>
<g>
<line x1="380" x2="380" y1="528" y2="544"/>
<line x1="380" x2="384" y1="544" y2="544"/>
<line x1="384" x2="380" y1="528" y2="528"/>
</g>
<g>
<line x1="440" x2="444" y1="64" y2="64"/>
<line x1="444" x2="444" y1="64" y2="80"/>
<line x1="444" x2="440" y1="80" y2="80"/>
</g>
<g>
<line x1="440" x2="444" y1="112" y2="112"/>
<line x1="444" x2="444" y1="112" y2="128"/>
<line x1="444" x2="440" y1="128" y2="128"/>
</g>
<g>
<line x1="440" x2="444" y1="272" y2="272"/>
<line x1="444" x2="444" y1="272" y2="288"/>
<line x1="444" x2="440" y1="288" y2="288"/>
</g>
<g>
<line x1="440" x2="444" y1="320" y2="320"/>
<line x1="444" x2="444" y1="320" y2="336"/>
<line x1="444" x2="440" y1="336" y2="336"/>
</g>
<g>
<line x1="440" x2="444" y1="480" y2="480"/>
<line x1="444" x2="444" y1="480" y2="496"/>
<line x1="444" x2="440" y1="496" y2="496"/>
</g>
<g>
<line x1="440" x2="444" y1="528" y2="528"/>
<line x1="444" x2="444" y1="528" y2="544"/>
<line x1="444" x2="440" y1="544" y2="544"/>
</g>
<g>
<text x="1" y="12">
*
</text>
</g>
<g>
<text x="17" y="12">
Highlighting paths that select subset {a,b,c}
</text>
</g>
<g>
<text x="41" y="140">
Selection 1
</text>
</g>
<g>
<text x="65" y="172">
{a}
</text>
</g>
<g>
<text x="65" y="380">
{b}
</text>
</g>
<g>
<text x="65" y="588">
{c}
</text>
</g>
<g>
<text x="65" y="796">
{d}
</text>
</g>
<g>
<text x="65" y="1004">
{e}
</text>
</g>
<g>
<text x="201" y="60">
Selection 2
</text>
</g>
<g>
<text x="217" y="92">
{a,b}
</text>
</g>
<g>
<text x="217" y="140">
{a,c}
</text>
</g>
<g>
<text x="217" y="188">
{a,d}
</text>
</g>
<g>
<text x="217" y="236">
{a,e}
</text>
</g>
<g>
<text x="217" y="300">
{b,a}
</text>
</g>
<g>
<text x="217" y="348">
{b,c}
</text>
</g>
<g>
<text x="217" y="396">
{b,d}
</text>
</g>
<g>
<text x="217" y="444">
{b,e}
</text>
</g>
<g>
<text x="217" y="508">
{c,a}
</text>
</g>
<g>
<text x="217" y="556">
{c,b}
</text>
</g>
<g>
<text x="217" y="604">
{c,d}
</text>
</g>
<g>
<text x="217" y="652">
{c,e}
</text>
</g>
<g>
<text x="217" y="716">
{d,a}
</text>
</g>
<g>
<text x="217" y="764">
{d,b}
</text>
</g>
<g>
<text x="217" y="812">
{d,c}
</text>
</g>
<g>
<text x="217" y="860">
{d,e}
</text>
</g>
<g>
<text x="217" y="924">
{e,a}
</text>
</g>
<g>
<text x="217" y="972">
{e,b}
</text>
</g>
<g>
<text x="217" y="1020">
{e,c}
</text>
</g>
<g>
<text x="217" y="1068">
{e,d}
</text>
</g>
<g>
<text x="377" y="44">
Selection 3
</text>
</g>
<g>
<text x="385" y="76">
{a,b,c}
</text>
</g>
<g>
<text x="385" y="92">
{a,b,d}
</text>
</g>
<g>
<text x="385" y="108">
{a,b,e}
</text>
</g>
<g>
<text x="385" y="124">
{a,c,b}
</text>
</g>
<g>
<text x="385" y="140">
{a,c,d}
</text>
</g>
<g>
<text x="385" y="156">
{a,c,e}
</text>
</g>
<g>
<text x="385" y="172">
{a,d,b}
</text>
</g>
<g>
<text x="385" y="188">
{a,d,c}
</text>
</g>
<g>
<text x="385" y="204">
{a,d,e}
</text>
</g>
<g>
<text x="385" y="220">
{a,e,b}
</text>
</g>
<g>
<text x="385" y="236">
{a,e,c}
</text>
</g>
<g>
<text x="385" y="252">
{a,e,d}
</text>
</g>
<g>
<text x="385" y="284">
{b,a,c}
</text>
</g>
<g>
<text x="385" y="300">
{b,a,d}
</text>
</g>
<g>
<text x="385" y="316">
{b,a,e}
</text>
</g>
<g>
<text x="385" y="332">
{b,c,a}
</text>
</g>
<g>
<text x="385" y="348">
{b,c,d}
</text>
</g>
<g>
<text x="385" y="364">
{b,c,e}
</text>
</g>
<g>
<text x="385" y="380">
{b,d,a}
</text>
</g>
<g>
<text x="385" y="396">
{b,d,c}
</text>
</g>
<g>
<text x="385" y="412">
{b,d,e}
</text>
</g>
<g>
<text x="385" y="428">
{b,e,a}
</text>
</g>
<g>
<text x="385" y="444">
{b,e,c}
</text>
</g>
<g>
<text x="385" y="460">
{b,e,d}
</text>
</g>
<g>
<text x="385" y="492">
{c,a,b}
</text>
</g>
<g>
<text x="385" y="508">
{c,a,d}
</text>
</g>
<g>
<text x="385" y="524">
{c,a,e}
</text>
</g>
<g>
<text x="385" y="540">
{c,b,a}
</text>
</g>
<g>
<text x="385" y="556">
{c,b,d}
</text>
</g>
<g>
<text x="385" y="572">
{c,b,e}
</text>
</g>
<g>
<text x="385" y="588">
{c,d,a}
</text>
</g>
<g>
<text x="385" y="604">
{c,d,b}
</text>
</g>
<g>
<text x="385" y="620">
{c,d,e}
</text>
</g>
<g>
<text x="385" y="636">
{c,e,a}
</text>
</g>
<g>
<text x="385" y="652">
{c,e,b}
</text>
</g>
<g>
<text x="385" y="668">
{c,e,d}
</text>
</g>
<g>
<text x="385" y="700">
{d,a,b}
</text>
</g>
<g>
<text x="385" y="716">
{d,a,c}
</text>
</g>
<g>
<text x="385" y="732">
{d,a,e}
</text>
</g>
<g>
<text x="385" y="748">
{d,b,a}
</text>
</g>
<g>
<text x="385" y="764">
{d,b,c}
</text>
</g>
<g>
<text x="385" y="780">
{d,b,e}
</text>
</g>
<g>
<text x="385" y="796">
{d,c,a}
</text>
</g>
<g>
<text x="385" y="812">
{d,c,b}
</text>
</g>
<g>
<text x="385" y="828">
{d,c,e}
</text>
</g>
<g>
<text x="385" y="844">
{d,e,a}
</text>
</g>
<g>
<text x="385" y="860">
{d,e,b}
</text>
</g>
<g>
<text x="385" y="876">
{d,e,c}
</text>
</g>
<g>
<text x="385" y="908">
{e,a,b}
</text>
</g>
<g>
<text x="385" y="924">
{e,a,c}
</text>
</g>
<g>
<text x="385" y="940">
{e,a,d}
</text>
</g>
<g>
<text x="385" y="956">
{e,b,a}
</text>
</g>
<g>
<text x="385" y="972">
{e,b,c}
</text>
</g>
<g>
<text x="385" y="988">
{e,b,d}
</text>
</g>
<g>
<text x="385" y="1004">
{e,c,a}
</text>
</g>
<g>
<text x="385" y="1020">
{e,c,b}
</text>
</g>
<g>
<text x="385" y="1036">
{e,c,d}
</text>
</g>
<g>
<text x="385" y="1052">
{e,d,a}
</text>
</g>
<g>
<text x="385" y="1068">
{e,d,b}
</text>
</g>
<g>
<text x="385" y="1084">
{e,d,c}
</text>
</g>
</svg>
