<?xml version="1.0" encoding="UTF-8" standalone="no"?>
<!DOCTYPE svg PUBLIC "-//W3C//DTD SVG 1.1//EN"
 "http://www.w3.org/Graphics/SVG/1.1/DTD/svg11.dtd">
<!-- Generated by graphviz version 2.40.1 (0)
 -->
<!-- Title: G Pages: 1 -->
<svg width="1389pt" height="112pt"
 viewBox="0.00 0.00 1388.82 112.00" xmlns="http://www.w3.org/2000/svg" xmlns:xlink="http://www.w3.org/1999/xlink">
<g id="graph0" class="graph" transform="scale(1 1) rotate(0) translate(4 108)">
<title>G</title>
<polygon fill="#ffffff" stroke="transparent" points="-4,4 -4,-108 1384.8195,-108 1384.8195,4 -4,4"/>
<!-- (&#45;1, &#39;SINK&#39;) -->
<g id="node1" class="node">
<title>(&#45;1, &#39;SINK&#39;)</title>
<polygon fill="none" stroke="#000000" points="1319.9567,-27.0493 1324.071,-27.1479 1328.1428,-27.2953 1332.1554,-27.4913 1336.0926,-27.7353 1339.9385,-28.0266 1343.6781,-28.3645 1347.2967,-28.7479 1350.7807,-29.1759 1354.117,-29.6472 1357.2936,-30.1606 1360.2996,-30.7147 1363.1248,-31.308 1365.7603,-31.9388 1368.1984,-32.6054 1370.4323,-33.3059 1372.4565,-34.0385 1374.2667,-34.8012 1375.8596,-35.5918 1377.2333,-36.4082 1378.3869,-37.2481 1379.3205,-38.1093 1380.0355,-38.9894 1380.5342,-39.886 1380.8199,-40.7965 1380.8967,-41.7186 1380.7698,-42.6497 1380.445,-43.5873 1379.9287,-44.5287 1379.2281,-45.4713 1378.3509,-46.4127 1377.3053,-47.3503 1376.0996,-48.2814 1374.7427,-49.2035 1373.2436,-50.114 1371.6114,-51.0106 1369.8551,-51.8907 1367.9839,-52.7519 1366.0068,-53.5918 1363.9325,-54.4082 1361.7697,-55.1988 1359.5265,-55.9615 1357.211,-56.6941 1354.8307,-57.3946 1352.3926,-58.0612 1349.9035,-58.692 1347.3696,-59.2853 1344.7966,-59.8394 1342.1899,-60.3528 1339.5542,-60.8241 1336.8938,-61.2521 1334.2127,-61.6355 1331.5144,-61.9734 1328.802,-62.2647 1326.0782,-62.5087 1323.3456,-62.7047 1320.6064,-62.8521 1317.8626,-62.9507 1315.1161,-63 1312.3687,-63 1309.6223,-62.9507 1306.8785,-62.8521 1304.1392,-62.7047 1301.4066,-62.5087 1298.6829,-62.2647 1295.9705,-61.9734 1293.2722,-61.6355 1290.5911,-61.2521 1287.9307,-60.8241 1285.295,-60.3528 1282.6882,-59.8394 1280.1153,-59.2853 1277.5814,-58.692 1275.0923,-58.0612 1272.6542,-57.3946 1270.2739,-56.6941 1267.9583,-55.9615 1265.7152,-55.1988 1263.5523,-54.4082 1261.4781,-53.5918 1259.501,-52.7519 1257.6298,-51.8907 1255.8735,-51.0106 1254.2413,-50.114 1252.7422,-49.2035 1251.3853,-48.2814 1250.1796,-47.3503 1249.1339,-46.4127 1248.2567,-45.4713 1247.5562,-44.5287 1247.0399,-43.5873 1246.715,-42.6497 1246.5881,-41.7186 1246.665,-40.7965 1246.9507,-39.886 1247.4494,-38.9894 1248.1644,-38.1093 1249.098,-37.2481 1250.2516,-36.4082 1251.6252,-35.5918 1253.2182,-34.8012 1255.0284,-34.0385 1257.0526,-33.3059 1259.2865,-32.6054 1261.7245,-31.9388 1264.3601,-31.308 1267.1853,-30.7147 1270.1912,-30.1606 1273.3679,-29.6472 1276.7042,-29.1759 1280.1881,-28.7479 1283.8068,-28.3645 1287.5463,-28.0266 1291.3923,-27.7353 1295.3295,-27.4913 1299.3421,-27.2953 1303.4139,-27.1479 1307.5282,-27.0493 1311.6682,-27 1315.8167,-27 1319.9567,-27.0493"/>
<text text-anchor="middle" x="1313.7424" y="-42.5" font-family="Courier,monospace" font-weight="bold" font-size="10.00" fill="#000000">(&#45;1, &#39;SINK&#39;)</text>
</g>
<!-- (&#45;1, &#39;SOURCE&#39;) -->
<g id="node2" class="node">
<title>(&#45;1, &#39;SOURCE&#39;)</title>
<polygon fill="none" stroke="#000000" points="83.5559,-27.0493 88.2404,-27.1479 92.8765,-27.2953 97.4452,-27.4913 101.928,-27.7353 106.3069,-28.0266 110.5648,-28.3645 114.6849,-28.7479 118.6516,-29.1759 122.4503,-29.6472 126.0672,-30.1606 129.4897,-30.7147 132.7064,-31.308 135.7073,-31.9388 138.4832,-32.6054 141.0267,-33.3059 143.3314,-34.0385 145.3924,-34.8012 147.2061,-35.5918 148.7702,-36.4082 150.0836,-37.2481 151.1466,-38.1093 151.9607,-38.9894 152.5285,-39.886 152.8538,-40.7965 152.9413,-41.7186 152.7968,-42.6497 152.427,-43.5873 151.8391,-44.5287 151.0415,-45.4713 150.0427,-46.4127 148.8521,-47.3503 147.4794,-48.2814 145.9345,-49.2035 144.2276,-50.114 142.3691,-51.0106 140.3695,-51.8907 138.239,-52.7519 135.9879,-53.5918 133.6261,-54.4082 131.1636,-55.1988 128.6095,-55.9615 125.9731,-56.6941 123.2629,-57.3946 120.4869,-58.0612 117.6529,-58.692 114.7678,-59.2853 111.8383,-59.8394 108.8703,-60.3528 105.8693,-60.8241 102.8402,-61.2521 99.7876,-61.6355 96.7153,-61.9734 93.627,-62.2647 90.5258,-62.5087 87.4145,-62.7047 84.2957,-62.8521 81.1716,-62.9507 78.0445,-63 74.9164,-63 71.7893,-62.9507 68.6652,-62.8521 65.5464,-62.7047 62.4351,-62.5087 59.3339,-62.2647 56.2456,-61.9734 53.1733,-61.6355 50.1207,-61.2521 47.0916,-60.8241 44.0906,-60.3528 41.1226,-59.8394 38.1931,-59.2853 35.308,-58.692 32.474,-58.0612 29.698,-57.3946 26.9878,-56.6941 24.3513,-55.9615 21.7973,-55.1988 19.3348,-54.4082 16.973,-53.5918 14.7219,-52.7519 12.5914,-51.8907 10.5918,-51.0106 8.7333,-50.114 7.0264,-49.2035 5.4815,-48.2814 4.1088,-47.3503 2.9182,-46.4127 1.9194,-45.4713 1.1218,-44.5287 .5339,-43.5873 .164,-42.6497 .0196,-41.7186 .1071,-40.7965 .4323,-39.886 1.0001,-38.9894 1.8142,-38.1093 2.8773,-37.2481 4.1907,-36.4082 5.7547,-35.5918 7.5684,-34.8012 9.6295,-34.0385 11.9342,-33.3059 14.4777,-32.6054 17.2536,-31.9388 20.2544,-31.308 23.4712,-30.7147 26.8937,-30.1606 30.5106,-29.6472 34.3093,-29.1759 38.276,-28.7479 42.3961,-28.3645 46.6539,-28.0266 51.0329,-27.7353 55.5157,-27.4913 60.0844,-27.2953 64.7205,-27.1479 69.405,-27.0493 74.1187,-27 78.8422,-27 83.5559,-27.0493"/>
<text text-anchor="middle" x="76.4804" y="-42.5" font-family="Courier,monospace" font-weight="bold" font-size="10.00" fill="#000000">(&#45;1, &#39;SOURCE&#39;)</text>
</g>
<!-- (0, &#39;A&#39;) -->
<g id="node3" class="node">
<title>(0, &#39;A&#39;)</title>
<polygon fill="none" stroke="#000000" points="287.677,-54.0493 290.6203,-54.1479 293.5333,-54.2953 296.4039,-54.4913 299.2205,-54.7353 301.9719,-55.0266 304.6472,-55.3645 307.236,-55.7479 309.7284,-56.1759 312.1151,-56.6472 314.3877,-57.1606 316.5381,-57.7147 318.5593,-58.308 320.4448,-58.9388 322.189,-59.6054 323.7871,-60.3059 325.2352,-61.0385 326.5302,-61.8012 327.6698,-62.5918 328.6525,-63.4082 329.4777,-64.2481 330.1457,-65.1093 330.6572,-65.9894 331.0139,-66.886 331.2183,-67.7965 331.2733,-68.7186 331.1825,-69.6497 330.9501,-70.5873 330.5808,-71.5287 330.0796,-72.4713 329.452,-73.4127 328.704,-74.3503 327.8414,-75.2814 326.8707,-76.2035 325.7983,-77.114 324.6306,-78.0106 323.3741,-78.8907 322.0355,-79.7519 320.6211,-80.5918 319.1372,-81.4082 317.5899,-82.1988 315.9851,-82.9615 314.3286,-83.6941 312.6257,-84.3946 310.8815,-85.0612 309.1008,-85.692 307.2881,-86.2853 305.4474,-86.8394 303.5825,-87.3528 301.6969,-87.8241 299.7937,-88.2521 297.8757,-88.6355 295.9453,-88.9734 294.0049,-89.2647 292.0563,-89.5087 290.1014,-89.7047 288.1418,-89.8521 286.1789,-89.9507 284.2141,-90 282.2486,-90 280.2838,-89.9507 278.3209,-89.8521 276.3612,-89.7047 274.4063,-89.5087 272.4578,-89.2647 270.5173,-88.9734 268.587,-88.6355 266.6689,-88.2521 264.7657,-87.8241 262.8801,-87.3528 261.0153,-86.8394 259.1746,-86.2853 257.3618,-85.692 255.5811,-85.0612 253.8369,-84.3946 252.134,-83.6941 250.4775,-82.9615 248.8728,-82.1988 247.3255,-81.4082 245.8416,-80.5918 244.4272,-79.7519 243.0885,-78.8907 241.8321,-78.0106 240.6644,-77.114 239.5919,-76.2035 238.6212,-75.2814 237.7587,-74.3503 237.0106,-73.4127 236.3831,-72.4713 235.8819,-71.5287 235.5125,-70.5873 235.2801,-69.6497 235.1894,-68.7186 235.2443,-67.7965 235.4487,-66.886 235.8055,-65.9894 236.317,-65.1093 236.9849,-64.2481 237.8102,-63.4082 238.7929,-62.5918 239.9325,-61.8012 241.2275,-61.0385 242.6756,-60.3059 244.2737,-59.6054 246.0179,-58.9388 247.9034,-58.308 249.9245,-57.7147 252.075,-57.1606 254.3475,-56.6472 256.7343,-56.1759 259.2267,-55.7479 261.8154,-55.3645 264.4907,-55.0266 267.2421,-54.7353 270.0588,-54.4913 272.9294,-54.2953 275.8423,-54.1479 278.7857,-54.0493 281.7474,-54 284.7153,-54 287.677,-54.0493"/>
<text text-anchor="middle" x="283.2313" y="-69.5" font-family="Courier,monospace" font-weight="bold" font-size="10.00" fill="#000000">(0, &#39;A&#39;)</text>
</g>
<!-- (&#45;1, &#39;SOURCE&#39;)&#45;&gt;(0, &#39;A&#39;) -->
<g id="edge1" class="edge">
<title>(&#45;1, &#39;SOURCE&#39;)&#45;&gt;(0, &#39;A&#39;)</title>
<path fill="none" stroke="#000000" d="M137.6734,-52.9913C165.4422,-56.6177 198.1127,-60.8842 225.4586,-64.4553"/>
<polygon fill="#000000" stroke="#000000" points="225.288,-67.9627 235.6571,-65.7872 226.1945,-61.0216 225.288,-67.9627"/>
<text text-anchor="middle" x="193.9609" y="-66" font-family="Courier,monospace" font-weight="bold" font-size="10.00" fill="#000000">0.114</text>
</g>
<!-- (0, &#39;B&#39;) -->
<g id="node4" class="node">
<title>(0, &#39;B&#39;)</title>
<polygon fill="none" stroke="#000000" points="287.677,-.0493 290.6203,-.1479 293.5333,-.2953 296.4039,-.4913 299.2205,-.7353 301.9719,-1.0266 304.6472,-1.3645 307.236,-1.7479 309.7284,-2.1759 312.1151,-2.6472 314.3877,-3.1606 316.5381,-3.7147 318.5593,-4.308 320.4448,-4.9388 322.189,-5.6054 323.7871,-6.3059 325.2352,-7.0385 326.5302,-7.8012 327.6698,-8.5918 328.6525,-9.4082 329.4777,-10.2481 330.1457,-11.1093 330.6572,-11.9894 331.0139,-12.886 331.2183,-13.7965 331.2733,-14.7186 331.1825,-15.6497 330.9501,-16.5873 330.5808,-17.5287 330.0796,-18.4713 329.452,-19.4127 328.704,-20.3503 327.8414,-21.2814 326.8707,-22.2035 325.7983,-23.114 324.6306,-24.0106 323.3741,-24.8907 322.0355,-25.7519 320.6211,-26.5918 319.1372,-27.4082 317.5899,-28.1988 315.9851,-28.9615 314.3286,-29.6941 312.6257,-30.3946 310.8815,-31.0612 309.1008,-31.692 307.2881,-32.2853 305.4474,-32.8394 303.5825,-33.3528 301.6969,-33.8241 299.7937,-34.2521 297.8757,-34.6355 295.9453,-34.9734 294.0049,-35.2647 292.0563,-35.5087 290.1014,-35.7047 288.1418,-35.8521 286.1789,-35.9507 284.2141,-36 282.2486,-36 280.2838,-35.9507 278.3209,-35.8521 276.3612,-35.7047 274.4063,-35.5087 272.4578,-35.2647 270.5173,-34.9734 268.587,-34.6355 266.6689,-34.2521 264.7657,-33.8241 262.8801,-33.3528 261.0153,-32.8394 259.1746,-32.2853 257.3618,-31.692 255.5811,-31.0612 253.8369,-30.3946 252.134,-29.6941 250.4775,-28.9615 248.8728,-28.1988 247.3255,-27.4082 245.8416,-26.5918 244.4272,-25.7519 243.0885,-24.8907 241.8321,-24.0106 240.6644,-23.114 239.5919,-22.2035 238.6212,-21.2814 237.7587,-20.3503 237.0106,-19.4127 236.3831,-18.4713 235.8819,-17.5287 235.5125,-16.5873 235.2801,-15.6497 235.1894,-14.7186 235.2443,-13.7965 235.4487,-12.886 235.8055,-11.9894 236.317,-11.1093 236.9849,-10.2481 237.8102,-9.4082 238.7929,-8.5918 239.9325,-7.8012 241.2275,-7.0385 242.6756,-6.3059 244.2737,-5.6054 246.0179,-4.9388 247.9034,-4.308 249.9245,-3.7147 252.075,-3.1606 254.3475,-2.6472 256.7343,-2.1759 259.2267,-1.7479 261.8154,-1.3645 264.4907,-1.0266 267.2421,-.7353 270.0588,-.4913 272.9294,-.2953 275.8423,-.1479 278.7857,-.0493 281.7474,0 284.7153,0 287.677,-.0493"/>
<text text-anchor="middle" x="283.2313" y="-15.5" font-family="Courier,monospace" font-weight="bold" font-size="10.00" fill="#000000">(0, &#39;B&#39;)</text>
</g>
<!-- (&#45;1, &#39;SOURCE&#39;)&#45;&gt;(0, &#39;B&#39;) -->
<g id="edge2" class="edge">
<title>(&#45;1, &#39;SOURCE&#39;)&#45;&gt;(0, &#39;B&#39;)</title>
<path fill="none" stroke="#000000" d="M147.6324,-35.7081C174.9408,-32.1419 205.5826,-28.1403 230.8199,-24.8445"/>
<polygon fill="#000000" stroke="#000000" points="231.4581,-28.291 240.9206,-23.5254 230.5516,-21.3499 231.4581,-28.291"/>
<text text-anchor="middle" x="193.9609" y="-35" font-family="Courier,monospace" font-weight="bold" font-size="10.00" fill="#000000">0.1015</text>
</g>
<!-- (1, &#39;A&#39;) -->
<g id="node5" class="node">
<title>(1, &#39;A&#39;)</title>
<polygon fill="none" stroke="#000000" points="481.2179,-7.0493 484.1612,-7.1479 487.0742,-7.2953 489.9448,-7.4913 492.7614,-7.7353 495.5128,-8.0266 498.1881,-8.3645 500.7769,-8.7479 503.2693,-9.1759 505.656,-9.6472 507.9286,-10.1606 510.079,-10.7147 512.1002,-11.308 513.9857,-11.9388 515.7298,-12.6054 517.328,-13.3059 518.7761,-14.0385 520.0711,-14.8012 521.2107,-15.5918 522.1934,-16.4082 523.0186,-17.2481 523.6865,-18.1093 524.1981,-18.9894 524.5548,-19.886 524.7592,-20.7965 524.8142,-21.7186 524.7234,-22.6497 524.491,-23.5873 524.1217,-24.5287 523.6205,-25.4713 522.9929,-26.4127 522.2449,-27.3503 521.3823,-28.2814 520.4116,-29.2035 519.3392,-30.114 518.1715,-31.0106 516.915,-31.8907 515.5764,-32.7519 514.162,-33.5918 512.678,-34.4082 511.1308,-35.1988 509.526,-35.9615 507.8695,-36.6941 506.1666,-37.3946 504.4224,-38.0612 502.6417,-38.692 500.829,-39.2853 498.9883,-39.8394 497.1234,-40.3528 495.2378,-40.8241 493.3346,-41.2521 491.4166,-41.6355 489.4862,-41.9734 487.5458,-42.2647 485.5972,-42.5087 483.6423,-42.7047 481.6827,-42.8521 479.7198,-42.9507 477.755,-43 475.7895,-43 473.8247,-42.9507 471.8618,-42.8521 469.9021,-42.7047 467.9472,-42.5087 465.9987,-42.2647 464.0582,-41.9734 462.1279,-41.6355 460.2098,-41.2521 458.3066,-40.8241 456.421,-40.3528 454.5562,-39.8394 452.7155,-39.2853 450.9027,-38.692 449.122,-38.0612 447.3778,-37.3946 445.6749,-36.6941 444.0184,-35.9615 442.4137,-35.1988 440.8664,-34.4082 439.3825,-33.5918 437.968,-32.7519 436.6294,-31.8907 435.373,-31.0106 434.2053,-30.114 433.1328,-29.2035 432.1621,-28.2814 431.2996,-27.3503 430.5515,-26.4127 429.924,-25.4713 429.4228,-24.5287 429.0534,-23.5873 428.821,-22.6497 428.7302,-21.7186 428.7852,-20.7965 428.9896,-19.886 429.3464,-18.9894 429.8579,-18.1093 430.5258,-17.2481 431.3511,-16.4082 432.3338,-15.5918 433.4734,-14.8012 434.7684,-14.0385 436.2165,-13.3059 437.8146,-12.6054 439.5588,-11.9388 441.4442,-11.308 443.4654,-10.7147 445.6158,-10.1606 447.8884,-9.6472 450.2752,-9.1759 452.7676,-8.7479 455.3563,-8.3645 458.0316,-8.0266 460.783,-7.7353 463.5997,-7.4913 466.4703,-7.2953 469.3832,-7.1479 472.3266,-7.0493 475.2883,-7 478.2561,-7 481.2179,-7.0493"/>
<text text-anchor="middle" x="476.7722" y="-22.5" font-family="Courier,monospace" font-weight="bold" font-size="10.00" fill="#000000">(1, &#39;A&#39;)</text>
</g>
<!-- (0, &#39;A&#39;)&#45;&gt;(1, &#39;A&#39;) -->
<g id="edge3" class="edge">
<title>(0, &#39;A&#39;)&#45;&gt;(1, &#39;A&#39;)</title>
<path fill="none" stroke="#000000" d="M326.1843,-61.5692C356.934,-54.1018 398.3139,-44.053 429.9153,-36.3789"/>
<polygon fill="#000000" stroke="#000000" points="430.9144,-39.738 439.806,-33.977 429.2625,-32.9357 430.9144,-39.738"/>
<text text-anchor="middle" x="380.0018" y="-58" font-family="Courier,monospace" font-weight="bold" font-size="10.00" fill="#000000">0.085956</text>
</g>
<!-- (1, &#39;B&#39;) -->
<g id="node6" class="node">
<title>(1, &#39;B&#39;)</title>
<polygon fill="none" stroke="#000000" points="481.2179,-68.0493 484.1612,-68.1479 487.0742,-68.2953 489.9448,-68.4913 492.7614,-68.7353 495.5128,-69.0266 498.1881,-69.3645 500.7769,-69.7479 503.2693,-70.1759 505.656,-70.6472 507.9286,-71.1606 510.079,-71.7147 512.1002,-72.308 513.9857,-72.9388 515.7298,-73.6054 517.328,-74.3059 518.7761,-75.0385 520.0711,-75.8012 521.2107,-76.5918 522.1934,-77.4082 523.0186,-78.2481 523.6865,-79.1093 524.1981,-79.9894 524.5548,-80.886 524.7592,-81.7965 524.8142,-82.7186 524.7234,-83.6497 524.491,-84.5873 524.1217,-85.5287 523.6205,-86.4713 522.9929,-87.4127 522.2449,-88.3503 521.3823,-89.2814 520.4116,-90.2035 519.3392,-91.114 518.1715,-92.0106 516.915,-92.8907 515.5764,-93.7519 514.162,-94.5918 512.678,-95.4082 511.1308,-96.1988 509.526,-96.9615 507.8695,-97.6941 506.1666,-98.3946 504.4224,-99.0612 502.6417,-99.692 500.829,-100.2853 498.9883,-100.8394 497.1234,-101.3528 495.2378,-101.8241 493.3346,-102.2521 491.4166,-102.6355 489.4862,-102.9734 487.5458,-103.2647 485.5972,-103.5087 483.6423,-103.7047 481.6827,-103.8521 479.7198,-103.9507 477.755,-104 475.7895,-104 473.8247,-103.9507 471.8618,-103.8521 469.9021,-103.7047 467.9472,-103.5087 465.9987,-103.2647 464.0582,-102.9734 462.1279,-102.6355 460.2098,-102.2521 458.3066,-101.8241 456.421,-101.3528 454.5562,-100.8394 452.7155,-100.2853 450.9027,-99.692 449.122,-99.0612 447.3778,-98.3946 445.6749,-97.6941 444.0184,-96.9615 442.4137,-96.1988 440.8664,-95.4082 439.3825,-94.5918 437.968,-93.7519 436.6294,-92.8907 435.373,-92.0106 434.2053,-91.114 433.1328,-90.2035 432.1621,-89.2814 431.2996,-88.3503 430.5515,-87.4127 429.924,-86.4713 429.4228,-85.5287 429.0534,-84.5873 428.821,-83.6497 428.7302,-82.7186 428.7852,-81.7965 428.9896,-80.886 429.3464,-79.9894 429.8579,-79.1093 430.5258,-78.2481 431.3511,-77.4082 432.3338,-76.5918 433.4734,-75.8012 434.7684,-75.0385 436.2165,-74.3059 437.8146,-73.6054 439.5588,-72.9388 441.4442,-72.308 443.4654,-71.7147 445.6158,-71.1606 447.8884,-70.6472 450.2752,-70.1759 452.7676,-69.7479 455.3563,-69.3645 458.0316,-69.0266 460.783,-68.7353 463.5997,-68.4913 466.4703,-68.2953 469.3832,-68.1479 472.3266,-68.0493 475.2883,-68 478.2561,-68 481.2179,-68.0493"/>
<text text-anchor="middle" x="476.7722" y="-83.5" font-family="Courier,monospace" font-weight="bold" font-size="10.00" fill="#000000">(1, &#39;B&#39;)</text>
</g>
<!-- (0, &#39;A&#39;)&#45;&gt;(1, &#39;B&#39;) -->
<g id="edge4" class="edge">
<title>(0, &#39;A&#39;)&#45;&gt;(1, &#39;B&#39;)</title>
<path fill="none" stroke="#000000" d="M328.12,-75.2471C354.9905,-77.1908 389.4381,-79.6826 418.4056,-81.778"/>
<polygon fill="#000000" stroke="#000000" points="418.1753,-85.2704 428.4018,-82.5011 418.6804,-78.2886 418.1753,-85.2704"/>
<text text-anchor="middle" x="380.0018" y="-84" font-family="Courier,monospace" font-weight="bold" font-size="10.00" fill="#000000">0.126469</text>
</g>
<!-- (0, &#39;B&#39;)&#45;&gt;(1, &#39;A&#39;) -->
<g id="edge5" class="edge">
<title>(0, &#39;B&#39;)&#45;&gt;(1, &#39;A&#39;)</title>
<path fill="none" stroke="#000000" d="M330.7017,-17.445C354.6451,-17.4008 384.1286,-17.7047 410.5018,-19 413.1682,-19.131 415.8933,-19.2872 418.6447,-19.463"/>
<polygon fill="#000000" stroke="#000000" points="418.4417,-22.9573 428.6648,-20.1755 418.9383,-15.9749 418.4417,-22.9573"/>
<text text-anchor="middle" x="380.0018" y="-22" font-family="Courier,monospace" font-weight="bold" font-size="10.00" fill="#000000">0.228</text>
</g>
<!-- (2, &#39;A&#39;) -->
<g id="node7" class="node">
<title>(2, &#39;A&#39;)</title>
<polygon fill="none" stroke="#000000" points="674.7587,-61.0493 677.7021,-61.1479 680.6151,-61.2953 683.4857,-61.4913 686.3023,-61.7353 689.0537,-62.0266 691.729,-62.3645 694.3177,-62.7479 696.8101,-63.1759 699.1969,-63.6472 701.4695,-64.1606 703.6199,-64.7147 705.6411,-65.308 707.5265,-65.9388 709.2707,-66.6054 710.8689,-67.3059 712.317,-68.0385 713.612,-68.8012 714.7515,-69.5918 715.7343,-70.4082 716.5595,-71.2481 717.2274,-72.1093 717.739,-72.9894 718.0957,-73.886 718.3001,-74.7965 718.3551,-75.7186 718.2643,-76.6497 718.0319,-77.5873 717.6625,-78.5287 717.1614,-79.4713 716.5338,-80.4127 715.7857,-81.3503 714.9232,-82.2814 713.9525,-83.2035 712.8801,-84.114 711.7123,-85.0106 710.4559,-85.8907 709.1173,-86.7519 707.7029,-87.5918 706.2189,-88.4082 704.6716,-89.1988 703.0669,-89.9615 701.4104,-90.6941 699.7075,-91.3946 697.9633,-92.0612 696.1826,-92.692 694.3699,-93.2853 692.5292,-93.8394 690.6643,-94.3528 688.7787,-94.8241 686.8755,-95.2521 684.9575,-95.6355 683.0271,-95.9734 681.0867,-96.2647 679.1381,-96.5087 677.1832,-96.7047 675.2236,-96.8521 673.2607,-96.9507 671.2958,-97 669.3304,-97 667.3655,-96.9507 665.4026,-96.8521 663.443,-96.7047 661.4881,-96.5087 659.5396,-96.2647 657.5991,-95.9734 655.6687,-95.6355 653.7507,-95.2521 651.8475,-94.8241 649.9619,-94.3528 648.097,-93.8394 646.2564,-93.2853 644.4436,-92.692 642.6629,-92.0612 640.9187,-91.3946 639.2158,-90.6941 637.5593,-89.9615 635.9546,-89.1988 634.4073,-88.4082 632.9234,-87.5918 631.5089,-86.7519 630.1703,-85.8907 628.9139,-85.0106 627.7462,-84.114 626.6737,-83.2035 625.703,-82.2814 624.8405,-81.3503 624.0924,-80.4127 623.4649,-79.4713 622.9637,-78.5287 622.5943,-77.5873 622.3619,-76.6497 622.2711,-75.7186 622.3261,-74.7965 622.5305,-73.886 622.8873,-72.9894 623.3988,-72.1093 624.0667,-71.2481 624.8919,-70.4082 625.8747,-69.5918 627.0143,-68.8012 628.3092,-68.0385 629.7574,-67.3059 631.3555,-66.6054 633.0997,-65.9388 634.9851,-65.308 637.0063,-64.7147 639.1567,-64.1606 641.4293,-63.6472 643.8161,-63.1759 646.3085,-62.7479 648.8972,-62.3645 651.5725,-62.0266 654.3239,-61.7353 657.1405,-61.4913 660.0111,-61.2953 662.9241,-61.1479 665.8675,-61.0493 668.8292,-61 671.797,-61 674.7587,-61.0493"/>
<text text-anchor="middle" x="670.3131" y="-76.5" font-family="Courier,monospace" font-weight="bold" font-size="10.00" fill="#000000">(2, &#39;A&#39;)</text>
</g>
<!-- (1, &#39;A&#39;)&#45;&gt;(2, &#39;A&#39;) -->
<g id="edge6" class="edge">
<title>(1, &#39;A&#39;)&#45;&gt;(2, &#39;A&#39;)</title>
<path fill="none" stroke="#000000" d="M512.2706,-34.9044C542.2663,-43.2736 585.6048,-55.3655 619.3148,-64.7709"/>
<polygon fill="#000000" stroke="#000000" points="618.4213,-68.1552 628.9941,-67.4715 620.3026,-61.4128 618.4213,-68.1552"/>
<text text-anchor="middle" x="573.5427" y="-62" font-family="Courier,monospace" font-weight="bold" font-size="10.00" fill="#000000">0.066352</text>
</g>
<!-- (2, &#39;B&#39;) -->
<g id="node8" class="node">
<title>(2, &#39;B&#39;)</title>
<polygon fill="none" stroke="#000000" points="674.7587,-.0493 677.7021,-.1479 680.6151,-.2953 683.4857,-.4913 686.3023,-.7353 689.0537,-1.0266 691.729,-1.3645 694.3177,-1.7479 696.8101,-2.1759 699.1969,-2.6472 701.4695,-3.1606 703.6199,-3.7147 705.6411,-4.308 707.5265,-4.9388 709.2707,-5.6054 710.8689,-6.3059 712.317,-7.0385 713.612,-7.8012 714.7515,-8.5918 715.7343,-9.4082 716.5595,-10.2481 717.2274,-11.1093 717.739,-11.9894 718.0957,-12.886 718.3001,-13.7965 718.3551,-14.7186 718.2643,-15.6497 718.0319,-16.5873 717.6625,-17.5287 717.1614,-18.4713 716.5338,-19.4127 715.7857,-20.3503 714.9232,-21.2814 713.9525,-22.2035 712.8801,-23.114 711.7123,-24.0106 710.4559,-24.8907 709.1173,-25.7519 707.7029,-26.5918 706.2189,-27.4082 704.6716,-28.1988 703.0669,-28.9615 701.4104,-29.6941 699.7075,-30.3946 697.9633,-31.0612 696.1826,-31.692 694.3699,-32.2853 692.5292,-32.8394 690.6643,-33.3528 688.7787,-33.8241 686.8755,-34.2521 684.9575,-34.6355 683.0271,-34.9734 681.0867,-35.2647 679.1381,-35.5087 677.1832,-35.7047 675.2236,-35.8521 673.2607,-35.9507 671.2958,-36 669.3304,-36 667.3655,-35.9507 665.4026,-35.8521 663.443,-35.7047 661.4881,-35.5087 659.5396,-35.2647 657.5991,-34.9734 655.6687,-34.6355 653.7507,-34.2521 651.8475,-33.8241 649.9619,-33.3528 648.097,-32.8394 646.2564,-32.2853 644.4436,-31.692 642.6629,-31.0612 640.9187,-30.3946 639.2158,-29.6941 637.5593,-28.9615 635.9546,-28.1988 634.4073,-27.4082 632.9234,-26.5918 631.5089,-25.7519 630.1703,-24.8907 628.9139,-24.0106 627.7462,-23.114 626.6737,-22.2035 625.703,-21.2814 624.8405,-20.3503 624.0924,-19.4127 623.4649,-18.4713 622.9637,-17.5287 622.5943,-16.5873 622.3619,-15.6497 622.2711,-14.7186 622.3261,-13.7965 622.5305,-12.886 622.8873,-11.9894 623.3988,-11.1093 624.0667,-10.2481 624.8919,-9.4082 625.8747,-8.5918 627.0143,-7.8012 628.3092,-7.0385 629.7574,-6.3059 631.3555,-5.6054 633.0997,-4.9388 634.9851,-4.308 637.0063,-3.7147 639.1567,-3.1606 641.4293,-2.6472 643.8161,-2.1759 646.3085,-1.7479 648.8972,-1.3645 651.5725,-1.0266 654.3239,-.7353 657.1405,-.4913 660.0111,-.2953 662.9241,-.1479 665.8675,-.0493 668.8292,0 671.797,0 674.7587,-.0493"/>
<text text-anchor="middle" x="670.3131" y="-15.5" font-family="Courier,monospace" font-weight="bold" font-size="10.00" fill="#000000">(2, &#39;B&#39;)</text>
</g>
<!-- (1, &#39;A&#39;)&#45;&gt;(2, &#39;B&#39;) -->
<g id="edge7" class="edge">
<title>(1, &#39;A&#39;)&#45;&gt;(2, &#39;B&#39;)</title>
<path fill="none" stroke="#000000" d="M524.8797,-20.1755C530.988,-19.701 537.1581,-19.289 543.0427,-19 565.8102,-17.8818 590.8956,-17.5024 612.7336,-17.448"/>
<polygon fill="#000000" stroke="#000000" points="612.8438,-20.9481 622.8427,-17.445 612.8416,-13.9481 612.8438,-20.9481"/>
<text text-anchor="middle" x="573.5427" y="-22" font-family="Courier,monospace" font-weight="bold" font-size="10.00" fill="#000000">0.140175</text>
</g>
<!-- (1, &#39;B&#39;)&#45;&gt;(2, &#39;A&#39;) -->
<g id="edge8" class="edge">
<title>(1, &#39;B&#39;)&#45;&gt;(2, &#39;A&#39;)</title>
<path fill="none" stroke="#000000" d="M524.6138,-84.2697C551.6314,-83.2925 585.5543,-82.0656 613.8681,-81.0415"/>
<polygon fill="#000000" stroke="#000000" points="614.1556,-84.5335 624.0225,-80.6742 613.9025,-77.5381 614.1556,-84.5335"/>
<text text-anchor="middle" x="573.5427" y="-86" font-family="Courier,monospace" font-weight="bold" font-size="10.00" fill="#000000">0.176</text>
</g>
<!-- (3, &#39;A&#39;) -->
<g id="node9" class="node">
<title>(3, &#39;A&#39;)</title>
<polygon fill="none" stroke="#000000" points="868.2996,-7.0493 871.243,-7.1479 874.156,-7.2953 877.0266,-7.4913 879.8432,-7.7353 882.5946,-8.0266 885.2699,-8.3645 887.8586,-8.7479 890.351,-9.1759 892.7378,-9.6472 895.0104,-10.1606 897.1608,-10.7147 899.182,-11.308 901.0674,-11.9388 902.8116,-12.6054 904.4097,-13.3059 905.8579,-14.0385 907.1528,-14.8012 908.2924,-15.5918 909.2752,-16.4082 910.1004,-17.2481 910.7683,-18.1093 911.2798,-18.9894 911.6366,-19.886 911.841,-20.7965 911.896,-21.7186 911.8052,-22.6497 911.5728,-23.5873 911.2034,-24.5287 910.7022,-25.4713 910.0747,-26.4127 909.3266,-27.3503 908.4641,-28.2814 907.4934,-29.2035 906.4209,-30.114 905.2532,-31.0106 903.9968,-31.8907 902.6582,-32.7519 901.2437,-33.5918 899.7598,-34.4082 898.2125,-35.1988 896.6078,-35.9615 894.9513,-36.6941 893.2484,-37.3946 891.5042,-38.0612 889.7235,-38.692 887.9107,-39.2853 886.0701,-39.8394 884.2052,-40.3528 882.3196,-40.8241 880.4164,-41.2521 878.4984,-41.6355 876.568,-41.9734 874.6275,-42.2647 872.679,-42.5087 870.7241,-42.7047 868.7645,-42.8521 866.8016,-42.9507 864.8367,-43 862.8713,-43 860.9064,-42.9507 858.9435,-42.8521 856.9839,-42.7047 855.029,-42.5087 853.0804,-42.2647 851.14,-41.9734 849.2096,-41.6355 847.2916,-41.2521 845.3884,-40.8241 843.5028,-40.3528 841.6379,-39.8394 839.7972,-39.2853 837.9845,-38.692 836.2038,-38.0612 834.4596,-37.3946 832.7567,-36.6941 831.1002,-35.9615 829.4955,-35.1988 827.9482,-34.4082 826.4642,-33.5918 825.0498,-32.7519 823.7112,-31.8907 822.4548,-31.0106 821.287,-30.114 820.2146,-29.2035 819.2439,-28.2814 818.3814,-27.3503 817.6333,-26.4127 817.0057,-25.4713 816.5046,-24.5287 816.1352,-23.5873 815.9028,-22.6497 815.812,-21.7186 815.867,-20.7965 816.0714,-19.886 816.4281,-18.9894 816.9397,-18.1093 817.6076,-17.2481 818.4328,-16.4082 819.4156,-15.5918 820.5551,-14.8012 821.8501,-14.0385 823.2982,-13.3059 824.8964,-12.6054 826.6406,-11.9388 828.526,-11.308 830.5472,-10.7147 832.6976,-10.1606 834.9702,-9.6472 837.357,-9.1759 839.8494,-8.7479 842.4381,-8.3645 845.1134,-8.0266 847.8648,-7.7353 850.6814,-7.4913 853.552,-7.2953 856.465,-7.1479 859.4084,-7.0493 862.3701,-7 865.3379,-7 868.2996,-7.0493"/>
<text text-anchor="middle" x="863.854" y="-22.5" font-family="Courier,monospace" font-weight="bold" font-size="10.00" fill="#000000">(3, &#39;A&#39;)</text>
</g>
<!-- (2, &#39;A&#39;)&#45;&gt;(3, &#39;A&#39;) -->
<g id="edge9" class="edge">
<title>(2, &#39;A&#39;)&#45;&gt;(3, &#39;A&#39;)</title>
<path fill="none" stroke="#000000" d="M711.3582,-67.548C742.9336,-58.7381 786.5163,-46.578 819.0058,-37.5131"/>
<polygon fill="#000000" stroke="#000000" points="820.0155,-40.8652 828.707,-34.8064 818.1343,-34.1227 820.0155,-40.8652"/>
<text text-anchor="middle" x="767.0835" y="-62" font-family="Courier,monospace" font-weight="bold" font-size="10.00" fill="#000000">0.066352</text>
</g>
<!-- (3, &#39;B&#39;) -->
<g id="node10" class="node">
<title>(3, &#39;B&#39;)</title>
<polygon fill="none" stroke="#000000" points="868.2996,-68.0493 871.243,-68.1479 874.156,-68.2953 877.0266,-68.4913 879.8432,-68.7353 882.5946,-69.0266 885.2699,-69.3645 887.8586,-69.7479 890.351,-70.1759 892.7378,-70.6472 895.0104,-71.1606 897.1608,-71.7147 899.182,-72.308 901.0674,-72.9388 902.8116,-73.6054 904.4097,-74.3059 905.8579,-75.0385 907.1528,-75.8012 908.2924,-76.5918 909.2752,-77.4082 910.1004,-78.2481 910.7683,-79.1093 911.2798,-79.9894 911.6366,-80.886 911.841,-81.7965 911.896,-82.7186 911.8052,-83.6497 911.5728,-84.5873 911.2034,-85.5287 910.7022,-86.4713 910.0747,-87.4127 909.3266,-88.3503 908.4641,-89.2814 907.4934,-90.2035 906.4209,-91.114 905.2532,-92.0106 903.9968,-92.8907 902.6582,-93.7519 901.2437,-94.5918 899.7598,-95.4082 898.2125,-96.1988 896.6078,-96.9615 894.9513,-97.6941 893.2484,-98.3946 891.5042,-99.0612 889.7235,-99.692 887.9107,-100.2853 886.0701,-100.8394 884.2052,-101.3528 882.3196,-101.8241 880.4164,-102.2521 878.4984,-102.6355 876.568,-102.9734 874.6275,-103.2647 872.679,-103.5087 870.7241,-103.7047 868.7645,-103.8521 866.8016,-103.9507 864.8367,-104 862.8713,-104 860.9064,-103.9507 858.9435,-103.8521 856.9839,-103.7047 855.029,-103.5087 853.0804,-103.2647 851.14,-102.9734 849.2096,-102.6355 847.2916,-102.2521 845.3884,-101.8241 843.5028,-101.3528 841.6379,-100.8394 839.7972,-100.2853 837.9845,-99.692 836.2038,-99.0612 834.4596,-98.3946 832.7567,-97.6941 831.1002,-96.9615 829.4955,-96.1988 827.9482,-95.4082 826.4642,-94.5918 825.0498,-93.7519 823.7112,-92.8907 822.4548,-92.0106 821.287,-91.114 820.2146,-90.2035 819.2439,-89.2814 818.3814,-88.3503 817.6333,-87.4127 817.0057,-86.4713 816.5046,-85.5287 816.1352,-84.5873 815.9028,-83.6497 815.812,-82.7186 815.867,-81.7965 816.0714,-80.886 816.4281,-79.9894 816.9397,-79.1093 817.6076,-78.2481 818.4328,-77.4082 819.4156,-76.5918 820.5551,-75.8012 821.8501,-75.0385 823.2982,-74.3059 824.8964,-73.6054 826.6406,-72.9388 828.526,-72.308 830.5472,-71.7147 832.6976,-71.1606 834.9702,-70.6472 837.357,-70.1759 839.8494,-69.7479 842.4381,-69.3645 845.1134,-69.0266 847.8648,-68.7353 850.6814,-68.4913 853.552,-68.2953 856.465,-68.1479 859.4084,-68.0493 862.3701,-68 865.3379,-68 868.2996,-68.0493"/>
<text text-anchor="middle" x="863.854" y="-83.5" font-family="Courier,monospace" font-weight="bold" font-size="10.00" fill="#000000">(3, &#39;B&#39;)</text>
</g>
<!-- (2, &#39;A&#39;)&#45;&gt;(3, &#39;B&#39;) -->
<g id="edge10" class="edge">
<title>(2, &#39;A&#39;)&#45;&gt;(3, &#39;B&#39;)</title>
<path fill="none" stroke="#000000" d="M716.671,-80.6767C743.3636,-81.6421 777.156,-82.8643 805.6274,-83.8941"/>
<polygon fill="#000000" stroke="#000000" points="805.7332,-87.4001 815.8532,-84.2639 805.9862,-80.4047 805.7332,-87.4001"/>
<text text-anchor="middle" x="767.0835" y="-86" font-family="Courier,monospace" font-weight="bold" font-size="10.00" fill="#000000">0.140175</text>
</g>
<!-- (2, &#39;B&#39;)&#45;&gt;(3, &#39;A&#39;) -->
<g id="edge11" class="edge">
<title>(2, &#39;B&#39;)&#45;&gt;(3, &#39;A&#39;)</title>
<path fill="none" stroke="#000000" d="M717.7835,-17.445C741.7268,-17.4008 771.2103,-17.7047 797.5835,-19 800.25,-19.131 802.9751,-19.2872 805.7265,-19.463"/>
<polygon fill="#000000" stroke="#000000" points="805.5235,-22.9573 815.7466,-20.1755 806.02,-15.9749 805.5235,-22.9573"/>
<text text-anchor="middle" x="767.0835" y="-22" font-family="Courier,monospace" font-weight="bold" font-size="10.00" fill="#000000">0.176</text>
</g>
<!-- (4, &#39;A&#39;) -->
<g id="node11" class="node">
<title>(4, &#39;A&#39;)</title>
<polygon fill="none" stroke="#000000" points="1143.8405,-54.0493 1146.7839,-54.1479 1149.6968,-54.2953 1152.5674,-54.4913 1155.3841,-54.7353 1158.1355,-55.0266 1160.8108,-55.3645 1163.3995,-55.7479 1165.8919,-56.1759 1168.2787,-56.6472 1170.5513,-57.1606 1172.7017,-57.7147 1174.7229,-58.308 1176.6083,-58.9388 1178.3525,-59.6054 1179.9506,-60.3059 1181.3987,-61.0385 1182.6937,-61.8012 1183.8333,-62.5918 1184.816,-63.4082 1185.6413,-64.2481 1186.3092,-65.1093 1186.8207,-65.9894 1187.1775,-66.886 1187.3819,-67.7965 1187.4369,-68.7186 1187.3461,-69.6497 1187.1137,-70.5873 1186.7443,-71.5287 1186.2431,-72.4713 1185.6156,-73.4127 1184.8675,-74.3503 1184.005,-75.2814 1183.0343,-76.2035 1181.9618,-77.114 1180.7941,-78.0106 1179.5377,-78.8907 1178.1991,-79.7519 1176.7846,-80.5918 1175.3007,-81.4082 1173.7534,-82.1988 1172.1487,-82.9615 1170.4922,-83.6941 1168.7893,-84.3946 1167.0451,-85.0612 1165.2644,-85.692 1163.4516,-86.2853 1161.6109,-86.8394 1159.7461,-87.3528 1157.8605,-87.8241 1155.9573,-88.2521 1154.0392,-88.6355 1152.1089,-88.9734 1150.1684,-89.2647 1148.2199,-89.5087 1146.265,-89.7047 1144.3053,-89.8521 1142.3424,-89.9507 1140.3776,-90 1138.4121,-90 1136.4473,-89.9507 1134.4844,-89.8521 1132.5248,-89.7047 1130.5699,-89.5087 1128.6213,-89.2647 1126.6809,-88.9734 1124.7505,-88.6355 1122.8325,-88.2521 1120.9293,-87.8241 1119.0437,-87.3528 1117.1788,-86.8394 1115.3381,-86.2853 1113.5254,-85.692 1111.7447,-85.0612 1110.0005,-84.3946 1108.2976,-83.6941 1106.6411,-82.9615 1105.0363,-82.1988 1103.4891,-81.4082 1102.0051,-80.5918 1100.5907,-79.7519 1099.2521,-78.8907 1097.9956,-78.0106 1096.8279,-77.114 1095.7555,-76.2035 1094.7848,-75.2814 1093.9222,-74.3503 1093.1742,-73.4127 1092.5466,-72.4713 1092.0454,-71.5287 1091.6761,-70.5873 1091.4437,-69.6497 1091.3529,-68.7186 1091.4079,-67.7965 1091.6123,-66.886 1091.969,-65.9894 1092.4806,-65.1093 1093.1485,-64.2481 1093.9737,-63.4082 1094.9564,-62.5918 1096.096,-61.8012 1097.391,-61.0385 1098.8391,-60.3059 1100.4373,-59.6054 1102.1814,-58.9388 1104.0669,-58.308 1106.0881,-57.7147 1108.2385,-57.1606 1110.5111,-56.6472 1112.8978,-56.1759 1115.3902,-55.7479 1117.979,-55.3645 1120.6543,-55.0266 1123.4057,-54.7353 1126.2223,-54.4913 1129.0929,-54.2953 1132.0059,-54.1479 1134.9492,-54.0493 1137.911,-54 1140.8788,-54 1143.8405,-54.0493"/>
<text text-anchor="middle" x="1139.3949" y="-69.5" font-family="Courier,monospace" font-weight="bold" font-size="10.00" fill="#000000">(4, &#39;A&#39;)</text>
</g>
<!-- (3, &#39;A&#39;)&#45;&gt;(4, &#39;A&#39;) -->
<g id="edge12" class="edge">
<title>(3, &#39;A&#39;)&#45;&gt;(4, &#39;A&#39;)</title>
<path fill="none" stroke="#000000" d="M904.7833,-31.6786C946.9893,-38.6047 1014.6974,-49.8247 1073.1244,-60 1076.5099,-60.5896 1079.9916,-61.202 1083.5027,-61.8242"/>
<polygon fill="#000000" stroke="#000000" points="1082.9609,-65.2827 1093.4201,-63.5927 1084.1899,-58.3914 1082.9609,-65.2827"/>
<text text-anchor="middle" x="1001.6244" y="-63" font-family="Courier,monospace" font-weight="bold" font-size="10.00" fill="#000000">0.224692</text>
</g>
<!-- (4, &#39;B&#39;) -->
<g id="node12" class="node">
<title>(4, &#39;B&#39;)</title>
<polygon fill="none" stroke="#000000" points="1143.8405,-.0493 1146.7839,-.1479 1149.6968,-.2953 1152.5674,-.4913 1155.3841,-.7353 1158.1355,-1.0266 1160.8108,-1.3645 1163.3995,-1.7479 1165.8919,-2.1759 1168.2787,-2.6472 1170.5513,-3.1606 1172.7017,-3.7147 1174.7229,-4.308 1176.6083,-4.9388 1178.3525,-5.6054 1179.9506,-6.3059 1181.3987,-7.0385 1182.6937,-7.8012 1183.8333,-8.5918 1184.816,-9.4082 1185.6413,-10.2481 1186.3092,-11.1093 1186.8207,-11.9894 1187.1775,-12.886 1187.3819,-13.7965 1187.4369,-14.7186 1187.3461,-15.6497 1187.1137,-16.5873 1186.7443,-17.5287 1186.2431,-18.4713 1185.6156,-19.4127 1184.8675,-20.3503 1184.005,-21.2814 1183.0343,-22.2035 1181.9618,-23.114 1180.7941,-24.0106 1179.5377,-24.8907 1178.1991,-25.7519 1176.7846,-26.5918 1175.3007,-27.4082 1173.7534,-28.1988 1172.1487,-28.9615 1170.4922,-29.6941 1168.7893,-30.3946 1167.0451,-31.0612 1165.2644,-31.692 1163.4516,-32.2853 1161.6109,-32.8394 1159.7461,-33.3528 1157.8605,-33.8241 1155.9573,-34.2521 1154.0392,-34.6355 1152.1089,-34.9734 1150.1684,-35.2647 1148.2199,-35.5087 1146.265,-35.7047 1144.3053,-35.8521 1142.3424,-35.9507 1140.3776,-36 1138.4121,-36 1136.4473,-35.9507 1134.4844,-35.8521 1132.5248,-35.7047 1130.5699,-35.5087 1128.6213,-35.2647 1126.6809,-34.9734 1124.7505,-34.6355 1122.8325,-34.2521 1120.9293,-33.8241 1119.0437,-33.3528 1117.1788,-32.8394 1115.3381,-32.2853 1113.5254,-31.692 1111.7447,-31.0612 1110.0005,-30.3946 1108.2976,-29.6941 1106.6411,-28.9615 1105.0363,-28.1988 1103.4891,-27.4082 1102.0051,-26.5918 1100.5907,-25.7519 1099.2521,-24.8907 1097.9956,-24.0106 1096.8279,-23.114 1095.7555,-22.2035 1094.7848,-21.2814 1093.9222,-20.3503 1093.1742,-19.4127 1092.5466,-18.4713 1092.0454,-17.5287 1091.6761,-16.5873 1091.4437,-15.6497 1091.3529,-14.7186 1091.4079,-13.7965 1091.6123,-12.886 1091.969,-11.9894 1092.4806,-11.1093 1093.1485,-10.2481 1093.9737,-9.4082 1094.9564,-8.5918 1096.096,-7.8012 1097.391,-7.0385 1098.8391,-6.3059 1100.4373,-5.6054 1102.1814,-4.9388 1104.0669,-4.308 1106.0881,-3.7147 1108.2385,-3.1606 1110.5111,-2.6472 1112.8978,-2.1759 1115.3902,-1.7479 1117.979,-1.3645 1120.6543,-1.0266 1123.4057,-.7353 1126.2223,-.4913 1129.0929,-.2953 1132.0059,-.1479 1134.9492,-.0493 1137.911,0 1140.8788,0 1143.8405,-.0493"/>
<text text-anchor="middle" x="1139.3949" y="-15.5" font-family="Courier,monospace" font-weight="bold" font-size="10.00" fill="#000000">(4, &#39;B&#39;)</text>
</g>
<!-- (3, &#39;A&#39;)&#45;&gt;(4, &#39;B&#39;) -->
<g id="edge13" class="edge">
<title>(3, &#39;A&#39;)&#45;&gt;(4, &#39;B&#39;)</title>
<path fill="none" stroke="#000000" d="M911.9606,-20.1581C918.069,-19.6865 924.2394,-19.28 930.1244,-19 981.2526,-16.5678 1039.486,-16.5097 1081.5196,-16.9493"/>
<polygon fill="#000000" stroke="#000000" points="1081.533,-20.4496 1091.5734,-17.0672 1081.6151,-13.4501 1081.533,-20.4496"/>
<text text-anchor="middle" x="1001.6244" y="-22" font-family="Courier,monospace" font-weight="bold" font-size="10.00" fill="#000000">0.35635599999999995</text>
</g>
<!-- (3, &#39;B&#39;)&#45;&gt;(4, &#39;A&#39;) -->
<g id="edge14" class="edge">
<title>(3, &#39;B&#39;)&#45;&gt;(4, &#39;A&#39;)</title>
<path fill="none" stroke="#000000" d="M911.8496,-83.5614C959.7406,-81.1281 1033.2665,-77.3923 1083.7001,-74.8298"/>
<polygon fill="#000000" stroke="#000000" points="1083.9695,-78.3207 1093.779,-74.3177 1083.6143,-71.3297 1083.9695,-78.3207"/>
<text text-anchor="middle" x="1001.6244" y="-85" font-family="Courier,monospace" font-weight="bold" font-size="10.00" fill="#000000">0.596</text>
</g>
<!-- (4, &#39;A&#39;)&#45;&gt;(&#45;1, &#39;SINK&#39;) -->
<g id="edge15" class="edge">
<title>(4, &#39;A&#39;)&#45;&gt;(&#45;1, &#39;SINK&#39;)</title>
<path fill="none" stroke="#000000" d="M1186.1168,-64.7645C1205.8832,-61.7034 1229.2149,-58.0902 1250.4871,-54.7959"/>
<polygon fill="#000000" stroke="#000000" points="1251.0699,-58.2475 1260.4164,-53.2582 1249.9986,-51.3299 1251.0699,-58.2475"/>
<text text-anchor="middle" x="1217.1653" y="-64" font-family="Courier,monospace" font-weight="bold" font-size="10.00" fill="#000000">1.0</text>
</g>
<!-- (4, &#39;B&#39;)&#45;&gt;(&#45;1, &#39;SINK&#39;) -->
<g id="edge16" class="edge">
<title>(4, &#39;B&#39;)&#45;&gt;(&#45;1, &#39;SINK&#39;)</title>
<path fill="none" stroke="#000000" d="M1180.7128,-24.3986C1198.972,-27.2263 1220.9835,-30.6351 1241.7992,-33.8587"/>
<polygon fill="#000000" stroke="#000000" points="1241.4823,-37.3512 1251.9001,-35.4229 1242.5536,-30.4337 1241.4823,-37.3512"/>
<text text-anchor="middle" x="1217.1653" y="-34" font-family="Courier,monospace" font-weight="bold" font-size="10.00" fill="#000000">1.0</text>
</g>
</g>
</svg>
