<svg class="bob" font-family="arial" font-size="14" height="96" width="480" xmlns="http://www.w3.org/2000/svg">
<defs>
<marker id="triangle" markerHeight="8" markerWidth="8" orient="auto" refX="4" refY="2" viewBox="0 0 8 4">
<polygon class="fg_fill" points="0,0 0,4 8,2 0,0"/>
</marker>
<marker id="clear_triangle" markerHeight="10" markerWidth="10" orient="auto" refX="1" refY="7" viewBox="0 0 20 14">
<polygon class="bg_fill" points="2,2 2,12 18,7 2,2"/>
</marker>
<marker id="circle" markerHeight="5" markerWidth="5" orient="auto" refX="10" refY="10" viewBox="0 0 20 20">
<circle class="fg_fill" cx="10" cy="10" r="8"/>
</marker>
<marker id="square" markerHeight="5" markerWidth="5" orient="auto" refX="10" refY="10" viewBox="0 0 20 20">
<rect class="fg_fill" height="20" width="20" x="0" y="0"/>
</marker>
<marker id="open_circle" markerHeight="10" markerWidth="10" orient="auto" refX="10" refY="10" viewBox="0 0 20 20">
<circle class="bg_fill" cx="10" cy="10" r="4"/>
</marker>
<marker id="big_open_circle" markerHeight="20" markerWidth="20" orient="auto" refX="20" refY="20" viewBox="0 0 40 40">
<circle class="bg_fill" cx="20" cy="20" r="6"/>
</marker>
</defs>
<style type="text/css">

rect.backdrop {
    fill: white;
}
text{
    fill: black;
}

circle {
    fill: none;
    stroke: black;
    stroke-width: 2;
}

line {
    stroke: black;
    stroke-width: 2;
    stroke-opacity: 1;
    fill-opacity: 1;
    stroke-linecap: round;
    stroke-linejoin: miter;
}

path {
    fill: none;
    stroke: black;
    stroke-width: 2;
    stroke-opacity: 1;
    fill-opacity: 1;
    stroke-linecap: round;
    stroke-linejoin: miter;
}

line.dashed {
    stroke-dasharray: 5;
}

.fg_fill {
    fill: black;
}


.bg_fill {
    fill: white;
    stroke: black;
    stroke-width: 2;
}

tspan.head{
    fill: none;
    stroke: none;
}
    
</style>
<rect class="backdrop" height="96" width="480" x="0" y="0"/>
<g>
<line x1="16" x2="72" y1="88" y2="88"/>
<path d="M 12 84 A 4 4 0 0 0 16 88"/>
<path d="M 72 88 A 4 4 0 0 0 76 84"/>
</g>
<g>
<line x1="20" x2="20" y1="48" y2="64"/>
</g>
<g>
<line x1="36" x2="36" y1="48" y2="64"/>
</g>
<g>
<line x1="52" x2="52" y1="48" y2="64"/>
</g>
<g>
<line x1="68" x2="68" y1="48" y2="64"/>
</g>
<g>
<line x1="320" x2="376" y1="88" y2="88"/>
<path d="M 316 84 A 4 4 0 0 0 320 88"/>
<path d="M 376 88 A 4 4 0 0 0 380 84"/>
</g>
<g>
<line x1="324" x2="324" y1="48" y2="64"/>
</g>
<g>
<line x1="340" x2="340" y1="48" y2="64"/>
</g>
<g>
<line x1="356" x2="356" y1="48" y2="64"/>
</g>
<g>
<line x1="372" x2="372" y1="48" y2="64"/>
</g>
<g>
<text x="1" y="12">
*
</text>
</g>
<g>
<text x="1" y="76">
A
</text>
</g>
<g>
<text x="17" y="12">
GCCGTTTT with 1 mismatch into seeds: [GCCG, TTTT]
</text>
</g>
<g>
<text x="17" y="44">
G
</text>
</g>
<g>
<text x="17" y="76">
G
</text>
</g>
<g>
<text x="33" y="44">
C
</text>
</g>
<g>
<text x="33" y="76">
C
</text>
</g>
<g>
<text x="49" y="44">
C
</text>
</g>
<g>
<text x="49" y="76">
C
</text>
</g>
<g>
<text x="65" y="44">
G
</text>
</g>
<g>
<text x="65" y="76">
G
</text>
</g>
<g>
<text x="81" y="76">
G
</text>
</g>
<g>
<text x="97" y="76">
T
</text>
</g>
<g>
<text x="113" y="76">
A
</text>
</g>
<g>
<text x="129" y="76">
A
</text>
</g>
<g>
<text x="145" y="76">
A
</text>
</g>
<g>
<text x="161" y="76">
T
</text>
</g>
<g>
<text x="177" y="76">
T
</text>
</g>
<g>
<text x="193" y="76">
C
</text>
</g>
<g>
<text x="209" y="76">
A
</text>
</g>
<g>
<text x="225" y="76">
T
</text>
</g>
<g>
<text x="241" y="76">
A
</text>
</g>
<g>
<text x="257" y="76">
G
</text>
</g>
<g>
<text x="273" y="76">
C
</text>
</g>
<g>
<text x="289" y="76">
A
</text>
</g>
<g>
<text x="305" y="76">
G
</text>
</g>
<g>
<text x="321" y="44">
T
</text>
</g>
<g>
<text x="321" y="76">
T
</text>
</g>
<g>
<text x="337" y="44">
T
</text>
</g>
<g>
<text x="337" y="76">
T
</text>
</g>
<g>
<text x="353" y="44">
T
</text>
</g>
<g>
<text x="353" y="76">
T
</text>
</g>
<g>
<text x="369" y="44">
T
</text>
</g>
<g>
<text x="369" y="76">
T
</text>
</g>
<g>
<text x="385" y="76">
A
</text>
</g>
<g>
<text x="401" y="76">
A
</text>
</g>
<g>
<text x="417" y="76">
C
</text>
</g>
<g>
<text x="433" y="76">
A
</text>
</g>
<g>
<text x="449" y="76">
A
</text>
</g>
<g>
<text x="465" y="76">
A
</text>
</g>
</svg>
