<svg class="bob" font-family="arial" font-size="14" height="304" width="224" xmlns="http://www.w3.org/2000/svg">
<defs>
<marker id="triangle" markerHeight="8" markerWidth="8" orient="auto" refX="4" refY="2" viewBox="0 0 8 4">
<polygon class="fg_fill" points="0,0 0,4 8,2 0,0"/>
</marker>
<marker id="clear_triangle" markerHeight="10" markerWidth="10" orient="auto" refX="1" refY="7" viewBox="0 0 20 14">
<polygon class="bg_fill" points="2,2 2,12 18,7 2,2"/>
</marker>
<marker id="circle" markerHeight="5" markerWidth="5" orient="auto" refX="10" refY="10" viewBox="0 0 20 20">
<circle class="fg_fill" cx="10" cy="10" r="8"/>
</marker>
<marker id="square" markerHeight="5" markerWidth="5" orient="auto" refX="10" refY="10" viewBox="0 0 20 20">
<rect class="fg_fill" height="20" width="20" x="0" y="0"/>
</marker>
<marker id="open_circle" markerHeight="10" markerWidth="10" orient="auto" refX="10" refY="10" viewBox="0 0 20 20">
<circle class="bg_fill" cx="10" cy="10" r="4"/>
</marker>
<marker id="big_open_circle" markerHeight="20" markerWidth="20" orient="auto" refX="20" refY="20" viewBox="0 0 40 40">
<circle class="bg_fill" cx="20" cy="20" r="6"/>
</marker>
</defs>
<style type="text/css">

rect.backdrop {
    fill: white;
}
text{
    fill: black;
}

circle {
    fill: none;
    stroke: black;
    stroke-width: 2;
}

line {
    stroke: black;
    stroke-width: 2;
    stroke-opacity: 1;
    fill-opacity: 1;
    stroke-linecap: round;
    stroke-linejoin: miter;
}

path {
    fill: none;
    stroke: black;
    stroke-width: 2;
    stroke-opacity: 1;
    fill-opacity: 1;
    stroke-linecap: round;
    stroke-linejoin: miter;
}

line.dashed {
    stroke-dasharray: 5;
}

.fg_fill {
    fill: black;
}


.bg_fill {
    fill: white;
    stroke: black;
    stroke-width: 2;
}

tspan.head{
    fill: none;
    stroke: none;
}
    
</style>
<rect class="backdrop" height="304" width="224" x="0" y="0"/>
<g>
<line x1="4" x2="4" y1="12" y2="36"/>
<path d="M 4 36 A 4 4 0 0 0 8 40"/>
<path d="M 8 8 A 4 4 0 0 0 4 12"/>
</g>
<g>
<line x1="8" x2="80" y1="8" y2="8"/>
<path d="M 84 12 A 4 4 0 0 0 80 8"/>
</g>
<g>
<line x1="8" x2="44" y1="40" y2="40"/>
<line x1="44" x2="44" y1="40" y2="88"/>
<line x1="44" x2="80" y1="40" y2="40"/>
<line x1="44" x2="44" y1="88" y2="136"/>
<line x1="44" x2="60" y1="88" y2="88"/>
<line x1="44" x2="44" y1="136" y2="184"/>
<line x1="44" x2="60" y1="136" y2="136"/>
<line x1="44" x2="44" y1="184" y2="232"/>
<line x1="44" x2="60" y1="184" y2="184"/>
<line x1="44" x2="44" y1="232" y2="280"/>
<line x1="44" x2="60" y1="232" y2="232"/>
<line x1="44" x2="60" y1="280" y2="280"/>
<path d="M 80 40 A 4 4 0 0 0 84 36"/>
</g>
<g>
<line x1="60" x2="60" y1="76" y2="100"/>
<path d="M 60 100 A 4 4 0 0 0 64 104"/>
<path d="M 64 72 A 4 4 0 0 0 60 76"/>
</g>
<g>
<line x1="60" x2="60" y1="124" y2="148"/>
<path d="M 60 148 A 4 4 0 0 0 64 152"/>
<path d="M 64 120 A 4 4 0 0 0 60 124"/>
</g>
<g>
<line x1="60" x2="60" y1="172" y2="196"/>
<path d="M 60 196 A 4 4 0 0 0 64 200"/>
<path d="M 64 168 A 4 4 0 0 0 60 172"/>
</g>
<g>
<line x1="60" x2="60" y1="220" y2="244"/>
<path d="M 60 244 A 4 4 0 0 0 64 248"/>
<path d="M 64 216 A 4 4 0 0 0 60 220"/>
</g>
<g>
<line x1="60" x2="60" y1="268" y2="292"/>
<path d="M 60 292 A 4 4 0 0 0 64 296"/>
<path d="M 64 264 A 4 4 0 0 0 60 268"/>
</g>
<g>
<line x1="64" x2="160" y1="72" y2="72"/>
<path d="M 164 76 A 4 4 0 0 0 160 72"/>
</g>
<g>
<line x1="64" x2="160" y1="104" y2="104"/>
<path d="M 160 104 A 4 4 0 0 0 164 100"/>
</g>
<g>
<line x1="64" x2="160" y1="120" y2="120"/>
<path d="M 164 124 A 4 4 0 0 0 160 120"/>
</g>
<g>
<line x1="64" x2="160" y1="152" y2="152"/>
<path d="M 160 152 A 4 4 0 0 0 164 148"/>
</g>
<g>
<line x1="64" x2="160" y1="168" y2="168"/>
<path d="M 164 172 A 4 4 0 0 0 160 168"/>
</g>
<g>
<line x1="64" x2="160" y1="200" y2="200"/>
<path d="M 160 200 A 4 4 0 0 0 164 196"/>
</g>
<g>
<line x1="64" x2="160" y1="216" y2="216"/>
<path d="M 164 220 A 4 4 0 0 0 160 216"/>
</g>
<g>
<line x1="64" x2="160" y1="248" y2="248"/>
<path d="M 160 248 A 4 4 0 0 0 164 244"/>
</g>
<g>
<line x1="64" x2="160" y1="264" y2="264"/>
<path d="M 164 268 A 4 4 0 0 0 160 264"/>
</g>
<g>
<line x1="64" x2="160" y1="296" y2="296"/>
<path d="M 160 296 A 4 4 0 0 0 164 292"/>
</g>
<g>
<line x1="84" x2="84" y1="12" y2="36"/>
</g>
<g>
<line x1="140" x2="140" y1="12" y2="36"/>
<path d="M 140 36 A 4 4 0 0 0 144 40"/>
<path d="M 144 8 A 4 4 0 0 0 140 12"/>
</g>
<g>
<line x1="144" x2="216" y1="8" y2="8"/>
<path d="M 220 12 A 4 4 0 0 0 216 8"/>
</g>
<g>
<line x1="144" x2="180" y1="40" y2="40"/>
<line x1="180" x2="180" y1="40" y2="88"/>
<line x1="180" x2="216" y1="40" y2="40"/>
<line x1="180" x2="180" y1="88" y2="136"/>
<line x1="180" x2="180" y1="136" y2="184"/>
<line x1="180" x2="180" y1="184" y2="232"/>
<line x1="180" x2="180" y1="232" y2="280"/>
<path d="M 216 40 A 4 4 0 0 0 220 36"/>
</g>
<g>
<line x1="164" x2="164" y1="76" y2="100"/>
</g>
<g>
<line x1="164" x2="180" y1="88" y2="88"/>
</g>
<g>
<line x1="164" x2="164" y1="124" y2="148"/>
</g>
<g>
<line x1="164" x2="180" y1="136" y2="136"/>
</g>
<g>
<line x1="164" x2="164" y1="172" y2="196"/>
</g>
<g>
<line x1="164" x2="180" y1="184" y2="184"/>
</g>
<g>
<line x1="164" x2="164" y1="220" y2="244"/>
</g>
<g>
<line x1="164" x2="180" y1="232" y2="232"/>
</g>
<g>
<line x1="164" x2="164" y1="268" y2="292"/>
</g>
<g>
<line x1="164" x2="180" y1="280" y2="280"/>
</g>
<g>
<line x1="220" x2="220" y1="12" y2="36"/>
</g>
<g>
<text x="17" y="28">
master1
</text>
</g>
<g>
<text x="89" y="92">
worker1
</text>
</g>
<g>
<text x="89" y="140">
worker2
</text>
</g>
<g>
<text x="89" y="188">
worker3
</text>
</g>
<g>
<text x="89" y="236">
worker4
</text>
</g>
<g>
<text x="89" y="284">
worker5
</text>
</g>
<g>
<text x="153" y="28">
master2
</text>
</g>
</svg>
