<svg class="bob" font-family="arial" font-size="14" height="208" width="680" xmlns="http://www.w3.org/2000/svg">
<defs>
<marker id="triangle" markerHeight="8" markerWidth="8" orient="auto" refX="4" refY="2" viewBox="0 0 8 4">
<polygon class="fg_fill" points="0,0 0,4 8,2 0,0"/>
</marker>
<marker id="clear_triangle" markerHeight="10" markerWidth="10" orient="auto" refX="1" refY="7" viewBox="0 0 20 14">
<polygon class="bg_fill" points="2,2 2,12 18,7 2,2"/>
</marker>
<marker id="circle" markerHeight="5" markerWidth="5" orient="auto" refX="10" refY="10" viewBox="0 0 20 20">
<circle class="fg_fill" cx="10" cy="10" r="8"/>
</marker>
<marker id="square" markerHeight="5" markerWidth="5" orient="auto" refX="10" refY="10" viewBox="0 0 20 20">
<rect class="fg_fill" height="20" width="20" x="0" y="0"/>
</marker>
<marker id="open_circle" markerHeight="10" markerWidth="10" orient="auto" refX="10" refY="10" viewBox="0 0 20 20">
<circle class="bg_fill" cx="10" cy="10" r="4"/>
</marker>
<marker id="big_open_circle" markerHeight="20" markerWidth="20" orient="auto" refX="20" refY="20" viewBox="0 0 40 40">
<circle class="bg_fill" cx="20" cy="20" r="6"/>
</marker>
</defs>
<style type="text/css">

rect.backdrop {
    fill: white;
}
text{
    fill: black;
}

circle {
    fill: none;
    stroke: black;
    stroke-width: 2;
}

line {
    stroke: black;
    stroke-width: 2;
    stroke-opacity: 1;
    fill-opacity: 1;
    stroke-linecap: round;
    stroke-linejoin: miter;
}

path {
    fill: none;
    stroke: black;
    stroke-width: 2;
    stroke-opacity: 1;
    fill-opacity: 1;
    stroke-linecap: round;
    stroke-linejoin: miter;
}

line.dashed {
    stroke-dasharray: 5;
}

.fg_fill {
    fill: black;
}


.bg_fill {
    fill: white;
    stroke: black;
    stroke-width: 2;
}

tspan.head{
    fill: none;
    stroke: none;
}
    
</style>
<rect class="backdrop" height="208" width="680" x="0" y="0"/>
<g>
<line x1="4" x2="4" y1="12" y2="196"/>
<path d="M 4 196 A 4 4 0 0 0 8 200"/>
<path d="M 8 8 A 4 4 0 0 0 4 12"/>
</g>
<g>
<line x1="8" x2="472" y1="8" y2="8"/>
<path d="M 476 12 A 4 4 0 0 0 472 8"/>
</g>
<g>
<line x1="8" x2="472" y1="200" y2="200"/>
<path d="M 472 200 A 4 4 0 0 0 476 196"/>
</g>
<g>
<line x1="20" x2="20" y1="60" y2="180"/>
<path d="M 20 180 A 4 4 0 0 0 24 184"/>
<path d="M 24 56 A 4 4 0 0 0 20 60"/>
</g>
<g>
<line x1="24" x2="280" y1="56" y2="56"/>
<path d="M 284 60 A 4 4 0 0 0 280 56"/>
</g>
<g>
<line x1="24" x2="280" y1="184" y2="184"/>
<path d="M 280 184 A 4 4 0 0 0 284 180"/>
</g>
<g>
<line x1="36" x2="36" y1="140" y2="164"/>
<path d="M 36 164 A 4 4 0 0 0 40 168"/>
<path d="M 40 136 A 4 4 0 0 0 36 140"/>
</g>
<g>
<line x1="40" x2="136" y1="136" y2="136"/>
<path d="M 140 140 A 4 4 0 0 0 136 136"/>
</g>
<g>
<line x1="40" x2="136" y1="168" y2="168"/>
<path d="M 136 168 A 4 4 0 0 0 140 164"/>
</g>
<g>
<line x1="44" x2="44" y1="92" y2="116"/>
<path d="M 44 116 A 4 4 0 0 0 48 120"/>
<path d="M 48 88 A 4 4 0 0 0 44 92"/>
</g>
<g>
<line x1="48" x2="144" y1="88" y2="88"/>
<path d="M 148 92 A 4 4 0 0 0 144 88"/>
</g>
<g>
<line x1="48" x2="144" y1="120" y2="120"/>
<path d="M 144 120 A 4 4 0 0 0 148 116"/>
</g>
<g>
<line x1="140" x2="140" y1="140" y2="164"/>
</g>
<g>
<line x1="148" x2="148" y1="92" y2="116"/>
</g>
<g>
<line x1="164" x2="164" y1="108" y2="132"/>
<path d="M 164 132 A 4 4 0 0 0 168 136"/>
<path d="M 168 104 A 4 4 0 0 0 164 108"/>
</g>
<g>
<line x1="168" x2="264" y1="104" y2="104"/>
<path d="M 268 108 A 4 4 0 0 0 264 104"/>
</g>
<g>
<line x1="168" x2="264" y1="136" y2="136"/>
<path d="M 264 136 A 4 4 0 0 0 268 132"/>
</g>
<g>
<line x1="268" x2="268" y1="108" y2="132"/>
</g>
<g>
<line x1="284" x2="284" y1="60" y2="180"/>
</g>
<g>
<line x1="316" x2="316" y1="60" y2="180"/>
<path d="M 316 180 A 4 4 0 0 0 320 184"/>
<path d="M 320 56 A 4 4 0 0 0 316 60"/>
</g>
<g>
<line x1="320" x2="448" y1="56" y2="56"/>
<path d="M 452 60 A 4 4 0 0 0 448 56"/>
</g>
<g>
<line x1="320" x2="448" y1="184" y2="184"/>
<path d="M 448 184 A 4 4 0 0 0 452 180"/>
</g>
<g>
<line x1="332" x2="332" y1="92" y2="116"/>
<path d="M 332 116 A 4 4 0 0 0 336 120"/>
<path d="M 336 88 A 4 4 0 0 0 332 92"/>
</g>
<g>
<line x1="332" x2="332" y1="140" y2="164"/>
<path d="M 332 164 A 4 4 0 0 0 336 168"/>
<path d="M 336 136 A 4 4 0 0 0 332 140"/>
</g>
<g>
<line x1="336" x2="432" y1="88" y2="88"/>
<path d="M 436 92 A 4 4 0 0 0 432 88"/>
</g>
<g>
<line x1="336" x2="432" y1="120" y2="120"/>
<path d="M 432 120 A 4 4 0 0 0 436 116"/>
</g>
<g>
<line x1="336" x2="432" y1="136" y2="136"/>
<path d="M 436 140 A 4 4 0 0 0 432 136"/>
</g>
<g>
<line x1="336" x2="432" y1="168" y2="168"/>
<path d="M 432 168 A 4 4 0 0 0 436 164"/>
</g>
<g>
<line x1="436" x2="436" y1="92" y2="116"/>
</g>
<g>
<line x1="436" x2="436" y1="140" y2="164"/>
</g>
<g>
<line x1="452" x2="452" y1="60" y2="180"/>
</g>
<g>
<line x1="476" x2="476" y1="12" y2="196"/>
</g>
<g>
<line x1="500" x2="500" y1="12" y2="148"/>
<path d="M 500 148 A 4 4 0 0 0 504 152"/>
<path d="M 504 8 A 4 4 0 0 0 500 12"/>
</g>
<g>
<line x1="504" x2="672" y1="8" y2="8"/>
<path d="M 676 12 A 4 4 0 0 0 672 8"/>
</g>
<g>
<line x1="504" x2="672" y1="152" y2="152"/>
<path d="M 672 152 A 4 4 0 0 0 676 148"/>
</g>
<g>
<line x1="516" x2="516" y1="60" y2="132"/>
<path d="M 516 132 A 4 4 0 0 0 520 136"/>
<path d="M 520 56 A 4 4 0 0 0 516 60"/>
</g>
<g>
<line x1="520" x2="648" y1="56" y2="56"/>
<path d="M 652 60 A 4 4 0 0 0 648 56"/>
</g>
<g>
<line x1="520" x2="648" y1="136" y2="136"/>
<path d="M 648 136 A 4 4 0 0 0 652 132"/>
</g>
<g>
<line x1="532" x2="532" y1="92" y2="116"/>
<path d="M 532 116 A 4 4 0 0 0 536 120"/>
<path d="M 536 88 A 4 4 0 0 0 532 92"/>
</g>
<g>
<line x1="536" x2="632" y1="88" y2="88"/>
<path d="M 636 92 A 4 4 0 0 0 632 88"/>
</g>
<g>
<line x1="536" x2="632" y1="120" y2="120"/>
<path d="M 632 120 A 4 4 0 0 0 636 116"/>
</g>
<g>
<line x1="636" x2="636" y1="92" y2="116"/>
</g>
<g>
<line x1="652" x2="652" y1="60" y2="132"/>
</g>
<g>
<line x1="676" x2="676" y1="12" y2="148"/>
</g>
<g>
<text x="49" y="156">
containerC
</text>
</g>
<g>
<text x="57" y="108">
containerA
</text>
</g>
<g>
<text x="145" y="76">
podA
</text>
</g>
<g>
<text x="177" y="124">
containerB
</text>
</g>
<g>
<text x="209" y="28">
node1
</text>
</g>
<g>
<text x="345" y="108">
containerD
</text>
</g>
<g>
<text x="345" y="156">
containerE
</text>
</g>
<g>
<text x="369" y="76">
podB
</text>
</g>
<g>
<text x="545" y="108">
containerF
</text>
</g>
<g>
<text x="569" y="28">
node2
</text>
</g>
<g>
<text x="569" y="76">
podC
</text>
</g>
</svg>
