<svg class="bob" font-family="arial" font-size="14" height="48" width="552" xmlns="http://www.w3.org/2000/svg">
<defs>
<marker id="triangle" markerHeight="8" markerWidth="8" orient="auto" refX="4" refY="2" viewBox="0 0 8 4">
<polygon class="fg_fill" points="0,0 0,4 8,2 0,0"/>
</marker>
<marker id="clear_triangle" markerHeight="10" markerWidth="10" orient="auto" refX="1" refY="7" viewBox="0 0 20 14">
<polygon class="bg_fill" points="2,2 2,12 18,7 2,2"/>
</marker>
<marker id="circle" markerHeight="5" markerWidth="5" orient="auto" refX="10" refY="10" viewBox="0 0 20 20">
<circle class="fg_fill" cx="10" cy="10" r="8"/>
</marker>
<marker id="square" markerHeight="5" markerWidth="5" orient="auto" refX="10" refY="10" viewBox="0 0 20 20">
<rect class="fg_fill" height="20" width="20" x="0" y="0"/>
</marker>
<marker id="open_circle" markerHeight="10" markerWidth="10" orient="auto" refX="10" refY="10" viewBox="0 0 20 20">
<circle class="bg_fill" cx="10" cy="10" r="4"/>
</marker>
<marker id="big_open_circle" markerHeight="20" markerWidth="20" orient="auto" refX="20" refY="20" viewBox="0 0 40 40">
<circle class="bg_fill" cx="20" cy="20" r="6"/>
</marker>
</defs>
<style type="text/css">

rect.backdrop {
    fill: white;
}
text{
    fill: black;
}

circle {
    fill: none;
    stroke: black;
    stroke-width: 2;
}

line {
    stroke: black;
    stroke-width: 2;
    stroke-opacity: 1;
    fill-opacity: 1;
    stroke-linecap: round;
    stroke-linejoin: miter;
}

path {
    fill: none;
    stroke: black;
    stroke-width: 2;
    stroke-opacity: 1;
    fill-opacity: 1;
    stroke-linecap: round;
    stroke-linejoin: miter;
}

line.dashed {
    stroke-dasharray: 5;
}

.fg_fill {
    fill: black;
}


.bg_fill {
    fill: white;
    stroke: black;
    stroke-width: 2;
}

tspan.head{
    fill: none;
    stroke: none;
}
    
</style>
<rect class="backdrop" height="48" width="552" x="0" y="0"/>
<g>
<line x1="4" x2="4" y1="12" y2="36"/>
<path d="M 4 36 A 4 4 0 0 0 8 40"/>
<path d="M 8 8 A 4 4 0 0 0 4 12"/>
</g>
<g>
<line x1="8" x2="64" y1="8" y2="8"/>
<path d="M 68 12 A 4 4 0 0 0 64 8"/>
</g>
<g>
<line x1="8" x2="64" y1="40" y2="40"/>
<path d="M 64 40 A 4 4 0 0 0 68 36"/>
</g>
<g>
<line x1="68" x2="68" y1="12" y2="36"/>
</g>
<g>
<line x1="68" x2="204" y1="24" y2="24"/>
</g>
<g>
<line x1="204" x2="204" y1="12" y2="36"/>
<path d="M 204 36 A 4 4 0 0 0 208 40"/>
<path d="M 208 8 A 4 4 0 0 0 204 12"/>
</g>
<g>
<line x1="208" x2="320" y1="8" y2="8"/>
<path d="M 324 12 A 4 4 0 0 0 320 8"/>
</g>
<g>
<line x1="208" x2="320" y1="40" y2="40"/>
<path d="M 320 40 A 4 4 0 0 0 324 36"/>
</g>
<g>
<line x1="324" x2="324" y1="12" y2="36"/>
</g>
<g>
<line x1="324" x2="452" y1="24" y2="24"/>
</g>
<g>
<line x1="452" x2="452" y1="12" y2="36"/>
<path d="M 452 36 A 4 4 0 0 0 456 40"/>
<path d="M 456 8 A 4 4 0 0 0 452 12"/>
</g>
<g>
<line x1="456" x2="544" y1="8" y2="8"/>
<path d="M 548 12 A 4 4 0 0 0 544 8"/>
</g>
<g>
<line x1="456" x2="544" y1="40" y2="40"/>
<path d="M 544 40 A 4 4 0 0 0 548 36"/>
</g>
<g>
<line x1="548" x2="548" y1="12" y2="36"/>
</g>
<g>
<text x="17" y="28">
Chart
</text>
</g>
<g>
<text x="81" y="44">
1
</text>
</g>
<g>
<text x="177" y="44">
1+
</text>
</g>
<g>
<text x="217" y="28">
Installation
</text>
</g>
<g>
<text x="337" y="44">
1
</text>
</g>
<g>
<text x="425" y="44">
1+
</text>
</g>
<g>
<text x="465" y="28">
Revisions
</text>
</g>
</svg>
