<svg class="bob" font-family="arial" font-size="14" height="336" width="464" xmlns="http://www.w3.org/2000/svg">
<defs>
<marker id="triangle" markerHeight="8" markerWidth="8" orient="auto" refX="4" refY="2" viewBox="0 0 8 4">
<polygon class="fg_fill" points="0,0 0,4 8,2 0,0"/>
</marker>
<marker id="clear_triangle" markerHeight="10" markerWidth="10" orient="auto" refX="1" refY="7" viewBox="0 0 20 14">
<polygon class="bg_fill" points="2,2 2,12 18,7 2,2"/>
</marker>
<marker id="circle" markerHeight="5" markerWidth="5" orient="auto" refX="10" refY="10" viewBox="0 0 20 20">
<circle class="fg_fill" cx="10" cy="10" r="8"/>
</marker>
<marker id="square" markerHeight="5" markerWidth="5" orient="auto" refX="10" refY="10" viewBox="0 0 20 20">
<rect class="fg_fill" height="20" width="20" x="0" y="0"/>
</marker>
<marker id="open_circle" markerHeight="10" markerWidth="10" orient="auto" refX="10" refY="10" viewBox="0 0 20 20">
<circle class="bg_fill" cx="10" cy="10" r="4"/>
</marker>
<marker id="big_open_circle" markerHeight="20" markerWidth="20" orient="auto" refX="20" refY="20" viewBox="0 0 40 40">
<circle class="bg_fill" cx="20" cy="20" r="6"/>
</marker>
</defs>
<style type="text/css">

rect.backdrop {
    fill: white;
}
text{
    fill: black;
}

circle {
    fill: none;
    stroke: black;
    stroke-width: 2;
}

line {
    stroke: black;
    stroke-width: 2;
    stroke-opacity: 1;
    fill-opacity: 1;
    stroke-linecap: round;
    stroke-linejoin: miter;
}

path {
    fill: none;
    stroke: black;
    stroke-width: 2;
    stroke-opacity: 1;
    fill-opacity: 1;
    stroke-linecap: round;
    stroke-linejoin: miter;
}

line.dashed {
    stroke-dasharray: 5;
}

.fg_fill {
    fill: black;
}


.bg_fill {
    fill: white;
    stroke: black;
    stroke-width: 2;
}

tspan.head{
    fill: none;
    stroke: none;
}
    
</style>
<rect class="backdrop" height="336" width="464" x="0" y="0"/>
<g>
<line x1="4" x2="4" y1="284" y2="324"/>
<path d="M 4 324 A 4 4 0 0 0 8 328"/>
<path d="M 8 280 A 4 4 0 0 0 4 284"/>
</g>
<g>
<line x1="8" x2="68" y1="280" y2="280"/>
<line x1="68" x2="68" y1="236" y2="280"/>
<line x1="68" x2="128" y1="280" y2="280"/>
<path d="M 72 232 A 4 4 0 0 0 68 236"/>
<path d="M 132 284 A 4 4 0 0 0 128 280"/>
</g>
<g>
<line x1="8" x2="128" y1="328" y2="328"/>
<path d="M 128 328 A 4 4 0 0 0 132 324"/>
</g>
<g>
<line x1="72" x2="228" y1="232" y2="232"/>
<line x1="228" x2="228" y1="200" y2="232"/>
<line x1="228" x2="328" y1="200" y2="200"/>
<line x1="228" x2="228" y1="232" y2="272"/>
<line x1="228" x2="392" y1="232" y2="232"/>
<path d="M 328 200 A 4 4 0 0 0 332 196"/>
<path d="M 396 236 A 4 4 0 0 0 392 232"/>
</g>
<g>
<line x1="132" x2="132" y1="172" y2="196"/>
<path d="M 132 196 A 4 4 0 0 0 136 200"/>
<path d="M 136 168 A 4 4 0 0 0 132 172"/>
</g>
<g>
<line x1="132" x2="132" y1="284" y2="324"/>
</g>
<g>
<line x1="136" x2="228" y1="168" y2="168"/>
<line x1="228" x2="228" y1="120" y2="168"/>
<line x1="228" x2="288" y1="120" y2="120"/>
<line x1="228" x2="328" y1="168" y2="168"/>
<path d="M 288 120 A 4 4 0 0 0 292 116"/>
<path d="M 332 172 A 4 4 0 0 0 328 168"/>
</g>
<g>
<line x1="136" x2="228" y1="200" y2="200"/>
</g>
<g>
<line x1="164" x2="164" y1="76" y2="116"/>
<path d="M 164 116 A 4 4 0 0 0 168 120"/>
<path d="M 168 72 A 4 4 0 0 0 164 76"/>
</g>
<g>
<line x1="164" x2="164" y1="284" y2="324"/>
<path d="M 164 324 A 4 4 0 0 0 168 328"/>
<path d="M 168 280 A 4 4 0 0 0 164 284"/>
</g>
<g>
<line x1="168" x2="288" y1="72" y2="72"/>
<path d="M 292 76 A 4 4 0 0 0 288 72"/>
</g>
<g>
<line x1="168" x2="228" y1="120" y2="120"/>
</g>
<g>
<line x1="168" x2="288" y1="280" y2="280"/>
<path d="M 292 284 A 4 4 0 0 0 288 280"/>
</g>
<g>
<line x1="168" x2="288" y1="328" y2="328"/>
<path d="M 288 328 A 4 4 0 0 0 292 324"/>
</g>
<g>
<line x1="292" x2="292" y1="76" y2="116"/>
</g>
<g>
<line x1="292" x2="292" y1="284" y2="324"/>
</g>
<g>
<line x1="332" x2="332" y1="172" y2="196"/>
</g>
<g>
<line x1="332" x2="332" y1="284" y2="324"/>
<path d="M 332 324 A 4 4 0 0 0 336 328"/>
<path d="M 336 280 A 4 4 0 0 0 332 284"/>
</g>
<g>
<line x1="336" x2="396" y1="280" y2="280"/>
<line x1="396" x2="396" y1="236" y2="280"/>
<line x1="396" x2="456" y1="280" y2="280"/>
<path d="M 460 284 A 4 4 0 0 0 456 280"/>
</g>
<g>
<line x1="336" x2="456" y1="328" y2="328"/>
<path d="M 456 328 A 4 4 0 0 0 460 324"/>
</g>
<g>
<line x1="460" x2="460" y1="284" y2="324"/>
</g>
<g>
<text x="1" y="12">
*
</text>
</g>
<g>
<text x="17" y="12">
Secrets engine using root MySQL credentials
</text>
</g>
<g>
<text x="17" y="28">
to generate an manage credentials with lesser
</text>
</g>
<g>
<text x="17" y="44">
access.
</text>
</g>
<g>
<text x="17" y="300">
temp MySQL
</text>
</g>
<g>
<text x="17" y="316">
credentials
</text>
</g>
<g>
<text x="145" y="188">
MySQL secrets engine
</text>
</g>
<g>
<text x="177" y="92">
root MySQL
</text>
</g>
<g>
<text x="177" y="108">
credentials
</text>
</g>
<g>
<text x="177" y="300">
temp MySQL
</text>
</g>
<g>
<text x="177" y="316">
credentials
</text>
</g>
<g>
<text x="345" y="300">
temp MySQL
</text>
</g>
<g>
<text x="345" y="316">
credentials
</text>
</g>
</svg>
