<svg class="bob" font-family="arial" font-size="14" height="224" width="464" xmlns="http://www.w3.org/2000/svg">
<defs>
<marker id="triangle" markerHeight="8" markerWidth="8" orient="auto" refX="4" refY="2" viewBox="0 0 8 4">
<polygon class="fg_fill" points="0,0 0,4 8,2 0,0"/>
</marker>
<marker id="clear_triangle" markerHeight="10" markerWidth="10" orient="auto" refX="1" refY="7" viewBox="0 0 20 14">
<polygon class="bg_fill" points="2,2 2,12 18,7 2,2"/>
</marker>
<marker id="circle" markerHeight="5" markerWidth="5" orient="auto" refX="10" refY="10" viewBox="0 0 20 20">
<circle class="fg_fill" cx="10" cy="10" r="8"/>
</marker>
<marker id="square" markerHeight="5" markerWidth="5" orient="auto" refX="10" refY="10" viewBox="0 0 20 20">
<rect class="fg_fill" height="20" width="20" x="0" y="0"/>
</marker>
<marker id="open_circle" markerHeight="10" markerWidth="10" orient="auto" refX="10" refY="10" viewBox="0 0 20 20">
<circle class="bg_fill" cx="10" cy="10" r="4"/>
</marker>
<marker id="big_open_circle" markerHeight="20" markerWidth="20" orient="auto" refX="20" refY="20" viewBox="0 0 40 40">
<circle class="bg_fill" cx="20" cy="20" r="6"/>
</marker>
</defs>
<style type="text/css">

rect.backdrop {
    fill: white;
}
text{
    fill: black;
}

circle {
    fill: none;
    stroke: black;
    stroke-width: 2;
}

line {
    stroke: black;
    stroke-width: 2;
    stroke-opacity: 1;
    fill-opacity: 1;
    stroke-linecap: round;
    stroke-linejoin: miter;
}

path {
    fill: none;
    stroke: black;
    stroke-width: 2;
    stroke-opacity: 1;
    fill-opacity: 1;
    stroke-linecap: round;
    stroke-linejoin: miter;
}

line.dashed {
    stroke-dasharray: 5;
}

.fg_fill {
    fill: black;
}


.bg_fill {
    fill: white;
    stroke: black;
    stroke-width: 2;
}

tspan.head{
    fill: none;
    stroke: none;
}
    
</style>
<rect class="backdrop" height="224" width="464" x="0" y="0"/>
<g>
<line x1="4" x2="4" y1="12" y2="212"/>
<path d="M 4 212 A 4 4 0 0 0 8 216"/>
<path d="M 8 8 A 4 4 0 0 0 4 12"/>
</g>
<g>
<line x1="8" x2="288" y1="8" y2="8"/>
<path d="M 292 12 A 4 4 0 0 0 288 8"/>
</g>
<g>
<line x1="8" x2="288" y1="216" y2="216"/>
<path d="M 288 216 A 4 4 0 0 0 292 212"/>
</g>
<g>
<line x1="20" x2="20" y1="60" y2="100"/>
<path d="M 20 100 A 4 4 0 0 0 24 104"/>
<path d="M 24 56 A 4 4 0 0 0 20 60"/>
</g>
<g>
<line x1="24" x2="128" y1="56" y2="56"/>
<path d="M 132 60 A 4 4 0 0 0 128 56"/>
</g>
<g>
<line x1="24" x2="76" y1="104" y2="104"/>
<line marker-end="url(#triangle)" x1="76" x2="102" y1="104" y2="156"/>
<line x1="76" x2="128" y1="104" y2="104"/>
<path d="M 128 104 A 4 4 0 0 0 132 100"/>
</g>
<g>
<line x1="76" x2="76" y1="172" y2="196"/>
<path d="M 76 196 A 4 4 0 0 0 80 200"/>
<path d="M 80 168 A 4 4 0 0 0 76 172"/>
</g>
<g>
<line x1="80" x2="188" y1="168" y2="168"/>
<line marker-end="url(#triangle)" x1="188" x2="214" y1="168" y2="116"/>
<line x1="188" x2="216" y1="168" y2="168"/>
<path d="M 220 172 A 4 4 0 0 0 216 168"/>
</g>
<g>
<line x1="80" x2="216" y1="200" y2="200"/>
<path d="M 216 200 A 4 4 0 0 0 220 196"/>
</g>
<g>
<line x1="132" x2="132" y1="60" y2="100"/>
</g>
<g>
<line x1="180" x2="180" y1="60" y2="100"/>
<path d="M 180 100 A 4 4 0 0 0 184 104"/>
<path d="M 184 56 A 4 4 0 0 0 180 60"/>
</g>
<g>
<line x1="184" x2="272" y1="56" y2="56"/>
<path d="M 276 60 A 4 4 0 0 0 272 56"/>
</g>
<g>
<line x1="184" x2="272" y1="104" y2="104"/>
<path d="M 272 104 A 4 4 0 0 0 276 100"/>
</g>
<g>
<line x1="220" x2="220" y1="172" y2="196"/>
</g>
<g>
<line x1="276" x2="276" y1="60" y2="72"/>
<line x1="276" x2="276" y1="72" y2="100"/>
<line x1="276" x2="292" y1="72" y2="72"/>
<line x1="292" x2="292" y1="12" y2="72"/>
<line x1="292" x2="292" y1="72" y2="212"/>
<line marker-end="url(#triangle)" x1="292" x2="364" y1="72" y2="72"/>
</g>
<g>
<line x1="372" x2="372" y1="60" y2="84"/>
<path d="M 372 84 A 4 4 0 0 0 376 88"/>
<path d="M 376 56 A 4 4 0 0 0 372 60"/>
</g>
<g>
<line x1="376" x2="456" y1="56" y2="56"/>
<path d="M 460 60 A 4 4 0 0 0 456 56"/>
</g>
<g>
<line x1="376" x2="456" y1="88" y2="88"/>
<path d="M 456 88 A 4 4 0 0 0 460 84"/>
</g>
<g>
<line x1="460" x2="460" y1="60" y2="84"/>
</g>
<g>
<text x="33" y="76">
Application
</text>
</g>
<g>
<text x="33" y="92">
Container
</text>
</g>
<g>
<text x="41" y="140">
write
</text>
</g>
<g>
<text x="89" y="188">
Log directory
</text>
</g>
<g>
<text x="129" y="28">
Pod
</text>
</g>
<g>
<text x="193" y="76">
Sidecar
</text>
</g>
<g>
<text x="193" y="92">
Container
</text>
</g>
<g>
<text x="217" y="140">
read
</text>
</g>
<g>
<text x="305" y="92">
send
</text>
</g>
<g>
<text x="385" y="76">
Database
</text>
</g>
</svg>
