<svg class="bob" font-family="arial" font-size="14" height="240" width="416" xmlns="http://www.w3.org/2000/svg">
<defs>
<marker id="triangle" markerHeight="8" markerWidth="8" orient="auto" refX="4" refY="2" viewBox="0 0 8 4">
<polygon class="fg_fill" points="0,0 0,4 8,2 0,0"/>
</marker>
<marker id="clear_triangle" markerHeight="10" markerWidth="10" orient="auto" refX="1" refY="7" viewBox="0 0 20 14">
<polygon class="bg_fill" points="2,2 2,12 18,7 2,2"/>
</marker>
<marker id="circle" markerHeight="5" markerWidth="5" orient="auto" refX="10" refY="10" viewBox="0 0 20 20">
<circle class="fg_fill" cx="10" cy="10" r="8"/>
</marker>
<marker id="square" markerHeight="5" markerWidth="5" orient="auto" refX="10" refY="10" viewBox="0 0 20 20">
<rect class="fg_fill" height="20" width="20" x="0" y="0"/>
</marker>
<marker id="open_circle" markerHeight="10" markerWidth="10" orient="auto" refX="10" refY="10" viewBox="0 0 20 20">
<circle class="bg_fill" cx="10" cy="10" r="4"/>
</marker>
<marker id="big_open_circle" markerHeight="20" markerWidth="20" orient="auto" refX="20" refY="20" viewBox="0 0 40 40">
<circle class="bg_fill" cx="20" cy="20" r="6"/>
</marker>
</defs>
<style type="text/css">

rect.backdrop {
    fill: white;
}
text{
    fill: black;
}

circle {
    fill: none;
    stroke: black;
    stroke-width: 2;
}

line {
    stroke: black;
    stroke-width: 2;
    stroke-opacity: 1;
    fill-opacity: 1;
    stroke-linecap: round;
    stroke-linejoin: miter;
}

path {
    fill: none;
    stroke: black;
    stroke-width: 2;
    stroke-opacity: 1;
    fill-opacity: 1;
    stroke-linecap: round;
    stroke-linejoin: miter;
}

line.dashed {
    stroke-dasharray: 5;
}

.fg_fill {
    fill: black;
}


.bg_fill {
    fill: white;
    stroke: black;
    stroke-width: 2;
}

tspan.head{
    fill: none;
    stroke: none;
}
    
</style>
<rect class="backdrop" height="240" width="416" x="0" y="0"/>
<g>
<line x1="12" x2="12" y1="12" y2="228"/>
<path d="M 12 228 A 4 4 0 0 0 16 232"/>
<path d="M 16 8 A 4 4 0 0 0 12 12"/>
</g>
<g>
<line x1="16" x2="72" y1="8" y2="8"/>
<path d="M 76 12 A 4 4 0 0 0 72 8"/>
</g>
<g>
<line x1="16" x2="72" y1="232" y2="232"/>
<path d="M 72 232 A 4 4 0 0 0 76 228"/>
</g>
<g>
<line x1="76" x2="76" y1="12" y2="228"/>
</g>
<g>
<line marker-end="url(#circle)" marker-start="url(#circle)" x1="92" x2="284" y1="40" y2="40"/>
</g>
<g>
<line marker-end="url(#circle)" marker-start="url(#circle)" x1="92" x2="284" y1="120" y2="120"/>
</g>
<g>
<line marker-end="url(#circle)" marker-start="url(#circle)" x1="92" x2="284" y1="200" y2="200"/>
</g>
<g>
<line x1="300" x2="300" y1="28" y2="68"/>
<path d="M 300 68 A 4 4 0 0 0 304 72"/>
<path d="M 304 24 A 4 4 0 0 0 300 28"/>
</g>
<g>
<line x1="300" x2="300" y1="108" y2="148"/>
<path d="M 300 148 A 4 4 0 0 0 304 152"/>
<path d="M 304 104 A 4 4 0 0 0 300 108"/>
</g>
<g>
<line x1="300" x2="300" y1="188" y2="228"/>
<path d="M 300 228 A 4 4 0 0 0 304 232"/>
<path d="M 304 184 A 4 4 0 0 0 300 188"/>
</g>
<g>
<line x1="304" x2="408" y1="24" y2="24"/>
<path d="M 412 28 A 4 4 0 0 0 408 24"/>
</g>
<g>
<line x1="304" x2="408" y1="72" y2="72"/>
<path d="M 408 72 A 4 4 0 0 0 412 68"/>
</g>
<g>
<line x1="304" x2="408" y1="104" y2="104"/>
<path d="M 412 108 A 4 4 0 0 0 408 104"/>
</g>
<g>
<line x1="304" x2="408" y1="152" y2="152"/>
<path d="M 408 152 A 4 4 0 0 0 412 148"/>
</g>
<g>
<line x1="304" x2="408" y1="184" y2="184"/>
<path d="M 412 188 A 4 4 0 0 0 408 184"/>
</g>
<g>
<line x1="304" x2="408" y1="232" y2="232"/>
<path d="M 408 232 A 4 4 0 0 0 412 228"/>
</g>
<g>
<line x1="412" x2="412" y1="28" y2="68"/>
</g>
<g>
<line x1="412" x2="412" y1="108" y2="148"/>
</g>
<g>
<line x1="412" x2="412" y1="188" y2="228"/>
</g>
<g>
<text x="25" y="28">
L
</text>
</g>
<g>
<text x="25" y="44">
o
</text>
</g>
<g>
<text x="25" y="60">
a
</text>
</g>
<g>
<text x="25" y="76">
d
</text>
</g>
<g>
<text x="25" y="108">
B
</text>
</g>
<g>
<text x="25" y="124">
a
</text>
</g>
<g>
<text x="25" y="140">
l
</text>
</g>
<g>
<text x="25" y="156">
a
</text>
</g>
<g>
<text x="25" y="172">
n
</text>
</g>
<g>
<text x="25" y="188">
c
</text>
</g>
<g>
<text x="25" y="204">
e
</text>
</g>
<g>
<text x="25" y="220">
r
</text>
</g>
<g>
<text x="57" y="76">
S
</text>
</g>
<g>
<text x="57" y="92">
E
</text>
</g>
<g>
<text x="57" y="108">
R
</text>
</g>
<g>
<text x="57" y="124">
V
</text>
</g>
<g>
<text x="57" y="140">
I
</text>
</g>
<g>
<text x="57" y="156">
C
</text>
</g>
<g>
<text x="57" y="172">
E
</text>
</g>
<g>
<text x="313" y="44">
application
</text>
</g>
<g>
<text x="313" y="124">
application
</text>
</g>
<g>
<text x="313" y="204">
application
</text>
</g>
<g>
<text x="345" y="60">
POD
</text>
</g>
<g>
<text x="345" y="140">
POD
</text>
</g>
<g>
<text x="345" y="220">
POD
</text>
</g>
</svg>
