<svg class="bob" font-family="arial" font-size="14" height="368" width="504" xmlns="http://www.w3.org/2000/svg">
<defs>
<marker id="triangle" markerHeight="8" markerWidth="8" orient="auto" refX="4" refY="2" viewBox="0 0 8 4">
<polygon class="fg_fill" points="0,0 0,4 8,2 0,0"/>
</marker>
<marker id="clear_triangle" markerHeight="10" markerWidth="10" orient="auto" refX="1" refY="7" viewBox="0 0 20 14">
<polygon class="bg_fill" points="2,2 2,12 18,7 2,2"/>
</marker>
<marker id="circle" markerHeight="5" markerWidth="5" orient="auto" refX="10" refY="10" viewBox="0 0 20 20">
<circle class="fg_fill" cx="10" cy="10" r="8"/>
</marker>
<marker id="square" markerHeight="5" markerWidth="5" orient="auto" refX="10" refY="10" viewBox="0 0 20 20">
<rect class="fg_fill" height="20" width="20" x="0" y="0"/>
</marker>
<marker id="open_circle" markerHeight="10" markerWidth="10" orient="auto" refX="10" refY="10" viewBox="0 0 20 20">
<circle class="bg_fill" cx="10" cy="10" r="4"/>
</marker>
<marker id="big_open_circle" markerHeight="20" markerWidth="20" orient="auto" refX="20" refY="20" viewBox="0 0 40 40">
<circle class="bg_fill" cx="20" cy="20" r="6"/>
</marker>
</defs>
<style type="text/css">

rect.backdrop {
    fill: white;
}
text{
    fill: black;
}

circle {
    fill: none;
    stroke: black;
    stroke-width: 2;
}

line {
    stroke: black;
    stroke-width: 2;
    stroke-opacity: 1;
    fill-opacity: 1;
    stroke-linecap: round;
    stroke-linejoin: miter;
}

path {
    fill: none;
    stroke: black;
    stroke-width: 2;
    stroke-opacity: 1;
    fill-opacity: 1;
    stroke-linecap: round;
    stroke-linejoin: miter;
}

line.dashed {
    stroke-dasharray: 5;
}

.fg_fill {
    fill: black;
}


.bg_fill {
    fill: white;
    stroke: black;
    stroke-width: 2;
}

tspan.head{
    fill: none;
    stroke: none;
}
    
</style>
<rect class="backdrop" height="368" width="504" x="0" y="0"/>
<g>
<line x1="4" x2="4" y1="92" y2="116"/>
<path d="M 4 116 A 4 4 0 0 0 8 120"/>
<path d="M 8 88 A 4 4 0 0 0 4 92"/>
</g>
<g>
<line x1="8" x2="144" y1="88" y2="88"/>
<path d="M 148 92 A 4 4 0 0 0 144 88"/>
</g>
<g>
<line x1="8" x2="100" y1="120" y2="120"/>
<line x1="100" x2="100" y1="120" y2="260"/>
<line x1="100" x2="124" y1="120" y2="120"/>
<line x1="124" x2="124" y1="120" y2="180"/>
<line x1="124" x2="144" y1="120" y2="120"/>
<path d="M 100 260 A 4 4 0 0 0 104 264"/>
<path d="M 124 180 A 4 4 0 0 0 128 184"/>
<path d="M 144 120 A 4 4 0 0 0 148 116"/>
</g>
<g>
<line marker-end="url(#triangle)" x1="104" x2="148" y1="264" y2="264"/>
</g>
<g>
<line marker-end="url(#triangle)" x1="108" x2="108" y1="44" y2="76"/>
<path d="M 112 40 A 4 4 0 0 0 108 44"/>
</g>
<g>
<line x1="112" x2="244" y1="40" y2="40"/>
<line marker-start="url(#circle)" x1="244" x2="244" y1="8" y2="40"/>
<line marker-end="url(#triangle)" x1="244" x2="244" y1="40" y2="76"/>
<line x1="244" x2="376" y1="40" y2="40"/>
<path d="M 380 44 A 4 4 0 0 0 376 40"/>
</g>
<g>
<line x1="128" x2="192" y1="184" y2="184"/>
</g>
<g>
<line x1="148" x2="148" y1="92" y2="116"/>
</g>
<g>
<line x1="148" x2="148" y1="332" y2="356"/>
<path d="M 148 356 A 4 4 0 0 0 152 360"/>
<path d="M 152 328 A 4 4 0 0 0 148 332"/>
</g>
<g>
<line x1="152" x2="248" y1="328" y2="328"/>
<path d="M 252 332 A 4 4 0 0 0 248 328"/>
</g>
<g>
<line x1="152" x2="248" y1="360" y2="360"/>
<path d="M 248 360 A 4 4 0 0 0 252 356"/>
</g>
<g>
<line x1="156" x2="156" y1="252" y2="276"/>
<path d="M 156 276 A 4 4 0 0 0 160 280"/>
<path d="M 160 248 A 4 4 0 0 0 156 252"/>
</g>
<g>
<line x1="160" x2="240" y1="248" y2="248"/>
<path d="M 244 252 A 4 4 0 0 0 240 248"/>
</g>
<g>
<line x1="160" x2="188" y1="280" y2="280"/>
<line marker-end="url(#triangle)" x1="188" x2="188" y1="280" y2="316"/>
<line x1="188" x2="240" y1="280" y2="280"/>
<path d="M 240 280 A 4 4 0 0 0 244 276"/>
</g>
<g>
<line x1="172" x2="172" y1="92" y2="116"/>
<path d="M 172 116 A 4 4 0 0 0 176 120"/>
<path d="M 176 88 A 4 4 0 0 0 172 92"/>
</g>
<g>
<line x1="176" x2="312" y1="88" y2="88"/>
<path d="M 316 92 A 4 4 0 0 0 312 88"/>
</g>
<g>
<line x1="176" x2="188" y1="120" y2="120"/>
<line x1="188" x2="188" y1="120" y2="168"/>
<line x1="188" x2="244" y1="120" y2="120"/>
<line x1="192" x2="188" y1="176" y2="168"/>
<line x1="192" x2="196" y1="176" y2="176"/>
<line x1="196" x2="196" y1="176" y2="192"/>
<line x1="196" x2="192" y1="192" y2="192"/>
<line marker-end="url(#triangle)" x1="244" x2="244" y1="120" y2="156"/>
<line x1="244" x2="312" y1="120" y2="120"/>
<path d="M 312 120 A 4 4 0 0 0 316 116"/>
</g>
<g>
<line marker-end="url(#triangle)" x1="188" x2="188" y1="200" y2="236"/>
<line x1="188" x2="192" y1="200" y2="192"/>
</g>
<g>
<line marker-end="url(#triangle)" x1="200" x2="212" y1="184" y2="184"/>
</g>
<g>
<line x1="220" x2="220" y1="172" y2="196"/>
<path d="M 220 196 A 4 4 0 0 0 224 200"/>
<path d="M 224 168 A 4 4 0 0 0 220 172"/>
</g>
<g>
<line x1="224" x2="288" y1="168" y2="168"/>
<path d="M 292 172 A 4 4 0 0 0 288 168"/>
</g>
<g>
<line x1="224" x2="288" y1="200" y2="200"/>
<path d="M 288 200 A 4 4 0 0 0 292 196"/>
</g>
<g>
<line x1="244" x2="244" y1="252" y2="276"/>
</g>
<g>
<line x1="252" x2="252" y1="332" y2="356"/>
</g>
<g>
<line marker-end="url(#triangle)" x1="256" x2="252" y1="264" y2="264"/>
<line x1="256" x2="392" y1="264" y2="264"/>
<path d="M 392 264 A 4 4 0 0 0 396 260"/>
</g>
<g>
<line x1="292" x2="292" y1="172" y2="196"/>
</g>
<g>
<line marker-end="url(#triangle)" x1="304" x2="300" y1="184" y2="184"/>
<line x1="304" x2="368" y1="184" y2="184"/>
<path d="M 368 184 A 4 4 0 0 0 372 180"/>
</g>
<g>
<line x1="316" x2="316" y1="92" y2="116"/>
</g>
<g>
<line x1="348" x2="348" y1="92" y2="116"/>
<path d="M 348 116 A 4 4 0 0 0 352 120"/>
<path d="M 352 88 A 4 4 0 0 0 348 92"/>
</g>
<g>
<line x1="352" x2="496" y1="88" y2="88"/>
<path d="M 500 92 A 4 4 0 0 0 496 88"/>
</g>
<g>
<line x1="352" x2="372" y1="120" y2="120"/>
<line x1="372" x2="372" y1="120" y2="180"/>
<line x1="372" x2="396" y1="120" y2="120"/>
<line x1="396" x2="396" y1="120" y2="260"/>
<line x1="396" x2="496" y1="120" y2="120"/>
<path d="M 496 120 A 4 4 0 0 0 500 116"/>
</g>
<g>
<line marker-end="url(#triangle)" x1="380" x2="380" y1="44" y2="76"/>
</g>
<g>
<line x1="500" x2="500" y1="92" y2="116"/>
</g>
<g>
<text x="17" y="108">
pending-install
</text>
</g>
<g>
<text x="161" y="348">
superseded
</text>
</g>
<g>
<text x="169" y="268">
deployed
</text>
</g>
<g>
<text x="185" y="108">
pending-upgrade
</text>
</g>
<g>
<text x="233" y="188">
failed
</text>
</g>
<g>
<text x="361" y="108">
pending-rollback
</text>
</g>
</svg>
