<svg class="bob" font-family="arial" font-size="14" height="288" width="624" xmlns="http://www.w3.org/2000/svg">
<defs>
<marker id="triangle" markerHeight="8" markerWidth="8" orient="auto" refX="4" refY="2" viewBox="0 0 8 4">
<polygon class="fg_fill" points="0,0 0,4 8,2 0,0"/>
</marker>
<marker id="clear_triangle" markerHeight="10" markerWidth="10" orient="auto" refX="1" refY="7" viewBox="0 0 20 14">
<polygon class="bg_fill" points="2,2 2,12 18,7 2,2"/>
</marker>
<marker id="circle" markerHeight="5" markerWidth="5" orient="auto" refX="10" refY="10" viewBox="0 0 20 20">
<circle class="fg_fill" cx="10" cy="10" r="8"/>
</marker>
<marker id="square" markerHeight="5" markerWidth="5" orient="auto" refX="10" refY="10" viewBox="0 0 20 20">
<rect class="fg_fill" height="20" width="20" x="0" y="0"/>
</marker>
<marker id="open_circle" markerHeight="10" markerWidth="10" orient="auto" refX="10" refY="10" viewBox="0 0 20 20">
<circle class="bg_fill" cx="10" cy="10" r="4"/>
</marker>
<marker id="big_open_circle" markerHeight="20" markerWidth="20" orient="auto" refX="20" refY="20" viewBox="0 0 40 40">
<circle class="bg_fill" cx="20" cy="20" r="6"/>
</marker>
</defs>
<style type="text/css">

rect.backdrop {
    fill: white;
}
text{
    fill: black;
}

circle {
    fill: none;
    stroke: black;
    stroke-width: 2;
}

line {
    stroke: black;
    stroke-width: 2;
    stroke-opacity: 1;
    fill-opacity: 1;
    stroke-linecap: round;
    stroke-linejoin: miter;
}

path {
    fill: none;
    stroke: black;
    stroke-width: 2;
    stroke-opacity: 1;
    fill-opacity: 1;
    stroke-linecap: round;
    stroke-linejoin: miter;
}

line.dashed {
    stroke-dasharray: 5;
}

.fg_fill {
    fill: black;
}


.bg_fill {
    fill: white;
    stroke: black;
    stroke-width: 2;
}

tspan.head{
    fill: none;
    stroke: none;
}
    
</style>
<rect class="backdrop" height="288" width="624" x="0" y="0"/>
<g>
<line x1="4" x2="4" y1="188" y2="216"/>
<line x1="4" x2="4" y1="216" y2="276"/>
<line x1="4" x2="108" y1="216" y2="216"/>
<line x1="108" x2="108" y1="188" y2="216"/>
<line x1="108" x2="108" y1="216" y2="276"/>
<path d="M 4 276 A 4 4 0 0 0 8 280"/>
<path d="M 8 184 A 4 4 0 0 0 4 188"/>
<path d="M 104 280 A 4 4 0 0 0 108 276"/>
<path d="M 108 188 A 4 4 0 0 0 104 184"/>
</g>
<g>
<line x1="8" x2="104" y1="184" y2="184"/>
</g>
<g>
<line x1="8" x2="104" y1="280" y2="280"/>
</g>
<g>
<line marker-end="url(#triangle)" x1="52" x2="52" y1="140" y2="172"/>
<path d="M 56 136 A 4 4 0 0 0 52 140"/>
</g>
<g>
<line x1="56" x2="220" y1="136" y2="136"/>
<line x1="220" x2="220" y1="104" y2="136"/>
<line x1="220" x2="256" y1="104" y2="104"/>
<line marker-end="url(#triangle)" x1="220" x2="220" y1="136" y2="172"/>
<line x1="220" x2="376" y1="136" y2="136"/>
<path d="M 256 104 A 4 4 0 0 0 260 100"/>
<path d="M 380 140 A 4 4 0 0 0 376 136"/>
</g>
<g>
<line x1="164" x2="164" y1="188" y2="216"/>
<line x1="164" x2="164" y1="216" y2="276"/>
<line x1="164" x2="268" y1="216" y2="216"/>
<line x1="268" x2="268" y1="188" y2="216"/>
<line x1="268" x2="268" y1="216" y2="276"/>
<path d="M 164 276 A 4 4 0 0 0 168 280"/>
<path d="M 168 184 A 4 4 0 0 0 164 188"/>
<path d="M 264 280 A 4 4 0 0 0 268 276"/>
<path d="M 268 188 A 4 4 0 0 0 264 184"/>
</g>
<g>
<line x1="168" x2="264" y1="184" y2="184"/>
</g>
<g>
<line x1="168" x2="264" y1="280" y2="280"/>
</g>
<g>
<line x1="180" x2="180" y1="12" y2="40"/>
<line x1="180" x2="180" y1="40" y2="100"/>
<line x1="180" x2="260" y1="40" y2="40"/>
<line x1="260" x2="260" y1="12" y2="40"/>
<line x1="260" x2="260" y1="40" y2="100"/>
<path d="M 180 100 A 4 4 0 0 0 184 104"/>
<path d="M 184 8 A 4 4 0 0 0 180 12"/>
<path d="M 260 12 A 4 4 0 0 0 256 8"/>
</g>
<g>
<line x1="184" x2="256" y1="8" y2="8"/>
</g>
<g>
<line x1="184" x2="220" y1="104" y2="104"/>
</g>
<g>
<line x1="324" x2="324" y1="188" y2="216"/>
<line x1="324" x2="324" y1="216" y2="276"/>
<line x1="324" x2="428" y1="216" y2="216"/>
<line x1="428" x2="428" y1="188" y2="216"/>
<line x1="428" x2="428" y1="216" y2="276"/>
<path d="M 324 276 A 4 4 0 0 0 328 280"/>
<path d="M 328 184 A 4 4 0 0 0 324 188"/>
<path d="M 424 280 A 4 4 0 0 0 428 276"/>
<path d="M 428 188 A 4 4 0 0 0 424 184"/>
</g>
<g>
<line x1="328" x2="424" y1="184" y2="184"/>
</g>
<g>
<line x1="328" x2="424" y1="280" y2="280"/>
</g>
<g>
<line marker-end="url(#triangle)" x1="380" x2="380" y1="140" y2="172"/>
</g>
<g>
<text x="17" y="236">
containerA
</text>
</g>
<g>
<text x="17" y="252">
containerB
</text>
</g>
<g>
<text x="17" y="268">
containerC
</text>
</g>
<g>
<text x="41" y="204">
podA
</text>
</g>
<g>
<text x="177" y="236">
containerA
</text>
</g>
<g>
<text x="177" y="252">
containerB
</text>
</g>
<g>
<text x="177" y="268">
containerC
</text>
</g>
<g>
<text x="193" y="60">
imageA
</text>
</g>
<g>
<text x="193" y="76">
imageB
</text>
</g>
<g>
<text x="193" y="92">
imageC
</text>
</g>
<g>
<text x="201" y="28">
podA
</text>
</g>
<g>
<text x="201" y="204">
podA
</text>
</g>
<g>
<text x="297" y="60">
pod
</text>
</g>
<g>
<text x="329" y="60">
template
</text>
</g>
<g>
<text x="337" y="236">
containerA
</text>
</g>
<g>
<text x="337" y="252">
containerB
</text>
</g>
<g>
<text x="337" y="268">
containerC
</text>
</g>
<g>
<text x="361" y="204">
podA
</text>
</g>
<g>
<text x="473" y="236">
running instances
</text>
</g>
</svg>
