<svg class="bob" font-family="arial" font-size="14" height="272" width="336" xmlns="http://www.w3.org/2000/svg">
<defs>
<marker id="triangle" markerHeight="8" markerWidth="8" orient="auto" refX="4" refY="2" viewBox="0 0 8 4">
<polygon class="fg_fill" points="0,0 0,4 8,2 0,0"/>
</marker>
<marker id="clear_triangle" markerHeight="10" markerWidth="10" orient="auto" refX="1" refY="7" viewBox="0 0 20 14">
<polygon class="bg_fill" points="2,2 2,12 18,7 2,2"/>
</marker>
<marker id="circle" markerHeight="5" markerWidth="5" orient="auto" refX="10" refY="10" viewBox="0 0 20 20">
<circle class="fg_fill" cx="10" cy="10" r="8"/>
</marker>
<marker id="square" markerHeight="5" markerWidth="5" orient="auto" refX="10" refY="10" viewBox="0 0 20 20">
<rect class="fg_fill" height="20" width="20" x="0" y="0"/>
</marker>
<marker id="open_circle" markerHeight="10" markerWidth="10" orient="auto" refX="10" refY="10" viewBox="0 0 20 20">
<circle class="bg_fill" cx="10" cy="10" r="4"/>
</marker>
<marker id="big_open_circle" markerHeight="20" markerWidth="20" orient="auto" refX="20" refY="20" viewBox="0 0 40 40">
<circle class="bg_fill" cx="20" cy="20" r="6"/>
</marker>
</defs>
<style type="text/css">

rect.backdrop {
    fill: white;
}
text{
    fill: black;
}

circle {
    fill: none;
    stroke: black;
    stroke-width: 2;
}

line {
    stroke: black;
    stroke-width: 2;
    stroke-opacity: 1;
    fill-opacity: 1;
    stroke-linecap: round;
    stroke-linejoin: miter;
}

path {
    fill: none;
    stroke: black;
    stroke-width: 2;
    stroke-opacity: 1;
    fill-opacity: 1;
    stroke-linecap: round;
    stroke-linejoin: miter;
}

line.dashed {
    stroke-dasharray: 5;
}

.fg_fill {
    fill: black;
}


.bg_fill {
    fill: white;
    stroke: black;
    stroke-width: 2;
}

tspan.head{
    fill: none;
    stroke: none;
}
    
</style>
<rect class="backdrop" height="272" width="336" x="0" y="0"/>
<g>
<line x1="4" x2="4" y1="12" y2="260"/>
<path d="M 4 260 A 4 4 0 0 0 8 264"/>
<path d="M 8 8 A 4 4 0 0 0 4 12"/>
</g>
<g>
<line x1="8" x2="328" y1="8" y2="8"/>
<path d="M 332 12 A 4 4 0 0 0 328 8"/>
</g>
<g>
<line x1="8" x2="328" y1="264" y2="264"/>
<path d="M 328 264 A 4 4 0 0 0 332 260"/>
</g>
<g>
<line x1="332" x2="332" y1="12" y2="260"/>
</g>
<g>
<text x="17" y="60">
Manifest Templates
</text>
</g>
<g>
<text x="17" y="156">
Default Configs
</text>
</g>
<g>
<text x="17" y="220">
Chart Dependencies
</text>
</g>
<g>
<text x="33" y="76">
deployment template
</text>
</g>
<g>
<text x="33" y="92">
service template
</text>
</g>
<g>
<text x="33" y="108">
ingress template
</text>
</g>
<g>
<text x="33" y="124">
horizontal pod autoscaler template
</text>
</g>
<g>
<text x="33" y="172">
app.port=8080
</text>
</g>
<g>
<text x="33" y="188">
app.log-retention-size=100mb
</text>
</g>
<g>
<text x="33" y="236">
postgres
</text>
</g>
<g>
<text x="33" y="252">
redis
</text>
</g>
<g>
<text x="113" y="28">
MyApp&#39;s Chart
</text>
</g>
</svg>
