<svg class="bob" font-family="arial" font-size="14" height="128" width="320" xmlns="http://www.w3.org/2000/svg">
<defs>
<marker id="triangle" markerHeight="8" markerWidth="8" orient="auto" refX="4" refY="2" viewBox="0 0 8 4">
<polygon class="fg_fill" points="0,0 0,4 8,2 0,0"/>
</marker>
<marker id="clear_triangle" markerHeight="10" markerWidth="10" orient="auto" refX="1" refY="7" viewBox="0 0 20 14">
<polygon class="bg_fill" points="2,2 2,12 18,7 2,2"/>
</marker>
<marker id="circle" markerHeight="5" markerWidth="5" orient="auto" refX="10" refY="10" viewBox="0 0 20 20">
<circle class="fg_fill" cx="10" cy="10" r="8"/>
</marker>
<marker id="square" markerHeight="5" markerWidth="5" orient="auto" refX="10" refY="10" viewBox="0 0 20 20">
<rect class="fg_fill" height="20" width="20" x="0" y="0"/>
</marker>
<marker id="open_circle" markerHeight="10" markerWidth="10" orient="auto" refX="10" refY="10" viewBox="0 0 20 20">
<circle class="bg_fill" cx="10" cy="10" r="4"/>
</marker>
<marker id="big_open_circle" markerHeight="20" markerWidth="20" orient="auto" refX="20" refY="20" viewBox="0 0 40 40">
<circle class="bg_fill" cx="20" cy="20" r="6"/>
</marker>
</defs>
<style type="text/css">

rect.backdrop {
    fill: white;
}
text{
    fill: black;
}

circle {
    fill: none;
    stroke: black;
    stroke-width: 2;
}

line {
    stroke: black;
    stroke-width: 2;
    stroke-opacity: 1;
    fill-opacity: 1;
    stroke-linecap: round;
    stroke-linejoin: miter;
}

path {
    fill: none;
    stroke: black;
    stroke-width: 2;
    stroke-opacity: 1;
    fill-opacity: 1;
    stroke-linecap: round;
    stroke-linejoin: miter;
}

line.dashed {
    stroke-dasharray: 5;
}

.fg_fill {
    fill: black;
}


.bg_fill {
    fill: white;
    stroke: black;
    stroke-width: 2;
}

tspan.head{
    fill: none;
    stroke: none;
}
    
</style>
<rect class="backdrop" height="128" width="320" x="0" y="0"/>
<g>
<line x1="4" x2="4" y1="12" y2="36"/>
<path d="M 4 36 A 4 4 0 0 0 8 40"/>
<path d="M 8 8 A 4 4 0 0 0 4 12"/>
</g>
<g>
<line x1="4" x2="4" y1="92" y2="116"/>
<path d="M 4 116 A 4 4 0 0 0 8 120"/>
<path d="M 8 88 A 4 4 0 0 0 4 92"/>
</g>
<g>
<line x1="8" x2="312" y1="8" y2="8"/>
<path d="M 316 12 A 4 4 0 0 0 312 8"/>
</g>
<g>
<line x1="8" x2="28" y1="40" y2="40"/>
<line marker-end="url(#triangle)" x1="28" x2="28" y1="40" y2="76"/>
<line x1="28" x2="156" y1="40" y2="40"/>
<line marker-end="url(#triangle)" x1="156" x2="156" y1="40" y2="76"/>
<line x1="156" x2="284" y1="40" y2="40"/>
<line marker-end="url(#triangle)" x1="284" x2="284" y1="40" y2="76"/>
<line x1="284" x2="312" y1="40" y2="40"/>
<path d="M 312 40 A 4 4 0 0 0 316 36"/>
</g>
<g>
<line x1="8" x2="56" y1="88" y2="88"/>
<path d="M 60 92 A 4 4 0 0 0 56 88"/>
</g>
<g>
<line x1="8" x2="56" y1="120" y2="120"/>
<path d="M 56 120 A 4 4 0 0 0 60 116"/>
</g>
<g>
<line x1="60" x2="60" y1="92" y2="116"/>
</g>
<g>
<line x1="132" x2="132" y1="92" y2="116"/>
<path d="M 132 116 A 4 4 0 0 0 136 120"/>
<path d="M 136 88 A 4 4 0 0 0 132 92"/>
</g>
<g>
<line x1="136" x2="184" y1="88" y2="88"/>
<path d="M 188 92 A 4 4 0 0 0 184 88"/>
</g>
<g>
<line x1="136" x2="184" y1="120" y2="120"/>
<path d="M 184 120 A 4 4 0 0 0 188 116"/>
</g>
<g>
<line x1="188" x2="188" y1="92" y2="116"/>
</g>
<g>
<line x1="260" x2="260" y1="92" y2="116"/>
<path d="M 260 116 A 4 4 0 0 0 264 120"/>
<path d="M 264 88 A 4 4 0 0 0 260 92"/>
</g>
<g>
<line x1="264" x2="312" y1="88" y2="88"/>
<path d="M 316 92 A 4 4 0 0 0 312 88"/>
</g>
<g>
<line x1="264" x2="312" y1="120" y2="120"/>
<path d="M 312 120 A 4 4 0 0 0 316 116"/>
</g>
<g>
<line x1="316" x2="316" y1="12" y2="36"/>
</g>
<g>
<line x1="316" x2="316" y1="92" y2="116"/>
</g>
<g>
<text x="17" y="108">
podA
</text>
</g>
<g>
<text x="129" y="28">
serviceA
</text>
</g>
<g>
<text x="145" y="108">
podA
</text>
</g>
<g>
<text x="273" y="108">
podA
</text>
</g>
</svg>
