<svg class="bob" font-family="arial" font-size="14" height="128" width="440" xmlns="http://www.w3.org/2000/svg">
<defs>
<marker id="triangle" markerHeight="8" markerWidth="8" orient="auto" refX="4" refY="2" viewBox="0 0 8 4">
<polygon class="fg_fill" points="0,0 0,4 8,2 0,0"/>
</marker>
<marker id="clear_triangle" markerHeight="10" markerWidth="10" orient="auto" refX="1" refY="7" viewBox="0 0 20 14">
<polygon class="bg_fill" points="2,2 2,12 18,7 2,2"/>
</marker>
<marker id="circle" markerHeight="5" markerWidth="5" orient="auto" refX="10" refY="10" viewBox="0 0 20 20">
<circle class="fg_fill" cx="10" cy="10" r="8"/>
</marker>
<marker id="square" markerHeight="5" markerWidth="5" orient="auto" refX="10" refY="10" viewBox="0 0 20 20">
<rect class="fg_fill" height="20" width="20" x="0" y="0"/>
</marker>
<marker id="open_circle" markerHeight="10" markerWidth="10" orient="auto" refX="10" refY="10" viewBox="0 0 20 20">
<circle class="bg_fill" cx="10" cy="10" r="4"/>
</marker>
<marker id="big_open_circle" markerHeight="20" markerWidth="20" orient="auto" refX="20" refY="20" viewBox="0 0 40 40">
<circle class="bg_fill" cx="20" cy="20" r="6"/>
</marker>
</defs>
<style type="text/css">

rect.backdrop {
    fill: white;
}
text{
    fill: black;
}

circle {
    fill: none;
    stroke: black;
    stroke-width: 2;
}

line {
    stroke: black;
    stroke-width: 2;
    stroke-opacity: 1;
    fill-opacity: 1;
    stroke-linecap: round;
    stroke-linejoin: miter;
}

path {
    fill: none;
    stroke: black;
    stroke-width: 2;
    stroke-opacity: 1;
    fill-opacity: 1;
    stroke-linecap: round;
    stroke-linejoin: miter;
}

line.dashed {
    stroke-dasharray: 5;
}

.fg_fill {
    fill: black;
}


.bg_fill {
    fill: white;
    stroke: black;
    stroke-width: 2;
}

tspan.head{
    fill: none;
    stroke: none;
}
    
</style>
<rect class="backdrop" height="128" width="440" x="0" y="0"/>
<g>
<line x1="88" x2="108" y1="24" y2="24"/>
<line x1="108" x2="108" y1="12" y2="24"/>
<line x1="108" x2="108" y1="24" y2="36"/>
<line x1="108" x2="152" y1="24" y2="24"/>
<path d="M 108 36 A 4 4 0 0 0 112 40"/>
<path d="M 112 8 A 4 4 0 0 0 108 12"/>
</g>
<g>
<line x1="88" x2="108" y1="88" y2="88"/>
<line x1="108" x2="108" y1="76" y2="88"/>
<line x1="108" x2="152" y1="88" y2="88"/>
<path d="M 112 72 A 4 4 0 0 0 108 76"/>
</g>
<g>
<line x1="112" x2="152" y1="8" y2="8"/>
</g>
<g>
<line x1="112" x2="152" y1="40" y2="40"/>
</g>
<g>
<line x1="112" x2="152" y1="72" y2="72"/>
</g>
<g>
<text x="1" y="28">
namespaceA
</text>
</g>
<g>
<text x="1" y="92">
namespaceB
</text>
</g>
<g>
<text x="1" y="124">
*
</text>
</g>
<g>
<text x="17" y="124">
two namespaces, both have a default service account
</text>
</g>
<g>
<text x="161" y="12">
my-service-account
</text>
</g>
<g>
<text x="161" y="28">
my-other-service-account
</text>
</g>
<g>
<text x="161" y="44">
default
</text>
</g>
<g>
<text x="161" y="76">
yet-another-service-account
</text>
</g>
<g>
<text x="161" y="92">
default
</text>
</g>
</svg>
