<svg class="bob" font-family="arial" font-size="14" height="144" width="632" xmlns="http://www.w3.org/2000/svg">
<defs>
<marker id="triangle" markerHeight="8" markerWidth="8" orient="auto" refX="4" refY="2" viewBox="0 0 8 4">
<polygon class="fg_fill" points="0,0 0,4 8,2 0,0"/>
</marker>
<marker id="clear_triangle" markerHeight="10" markerWidth="10" orient="auto" refX="1" refY="7" viewBox="0 0 20 14">
<polygon class="bg_fill" points="2,2 2,12 18,7 2,2"/>
</marker>
<marker id="circle" markerHeight="5" markerWidth="5" orient="auto" refX="10" refY="10" viewBox="0 0 20 20">
<circle class="fg_fill" cx="10" cy="10" r="8"/>
</marker>
<marker id="square" markerHeight="5" markerWidth="5" orient="auto" refX="10" refY="10" viewBox="0 0 20 20">
<rect class="fg_fill" height="20" width="20" x="0" y="0"/>
</marker>
<marker id="open_circle" markerHeight="10" markerWidth="10" orient="auto" refX="10" refY="10" viewBox="0 0 20 20">
<circle class="bg_fill" cx="10" cy="10" r="4"/>
</marker>
<marker id="big_open_circle" markerHeight="20" markerWidth="20" orient="auto" refX="20" refY="20" viewBox="0 0 40 40">
<circle class="bg_fill" cx="20" cy="20" r="6"/>
</marker>
</defs>
<style type="text/css">

rect.backdrop {
    fill: white;
}
text{
    fill: black;
}

circle {
    fill: none;
    stroke: black;
    stroke-width: 2;
}

line {
    stroke: black;
    stroke-width: 2;
    stroke-opacity: 1;
    fill-opacity: 1;
    stroke-linecap: round;
    stroke-linejoin: miter;
}

path {
    fill: none;
    stroke: black;
    stroke-width: 2;
    stroke-opacity: 1;
    fill-opacity: 1;
    stroke-linecap: round;
    stroke-linejoin: miter;
}

line.dashed {
    stroke-dasharray: 5;
}

.fg_fill {
    fill: black;
}


.bg_fill {
    fill: white;
    stroke: black;
    stroke-width: 2;
}

tspan.head{
    fill: none;
    stroke: none;
}
    
</style>
<rect class="backdrop" height="144" width="632" x="0" y="0"/>
<g>
<line x1="232" x2="504" y1="8" y2="8"/>
<path d="M 508 12 A 4 4 0 0 0 504 8"/>
</g>
<g>
<line x1="232" x2="504" y1="136" y2="136"/>
<path d="M 504 136 A 4 4 0 0 0 508 132"/>
</g>
<g>
<line x1="240" x2="384" y1="56" y2="56"/>
<path d="M 388 60 A 4 4 0 0 0 384 56"/>
</g>
<g>
<line x1="240" x2="384" y1="120" y2="120"/>
<path d="M 384 120 A 4 4 0 0 0 388 116"/>
</g>
<g>
<line x1="272" x2="296" y1="24" y2="24"/>
<path d="M 300 28 A 4 4 0 0 0 296 24"/>
</g>
<g>
<line x1="272" x2="300" y1="40" y2="40"/>
<line x1="300" x2="300" y1="28" y2="40"/>
<line marker-end="url(#triangle)" x1="300" x2="316" y1="40" y2="40"/>
</g>
<g>
<line x1="272" x2="296" y1="72" y2="72"/>
<path d="M 300 76 A 4 4 0 0 0 296 72"/>
</g>
<g>
<line x1="272" x2="300" y1="88" y2="88"/>
<line x1="300" x2="300" y1="76" y2="88"/>
<line marker-end="url(#triangle)" x1="300" x2="316" y1="88" y2="88"/>
</g>
<g>
<line x1="388" x2="388" y1="60" y2="88"/>
<line x1="388" x2="388" y1="88" y2="116"/>
<line marker-end="url(#triangle)" x1="388" x2="420" y1="88" y2="88"/>
</g>
<g>
<line x1="508" x2="508" y1="12" y2="72"/>
<line x1="508" x2="508" y1="72" y2="132"/>
<line marker-end="url(#triangle)" x1="508" x2="540" y1="72" y2="72"/>
</g>
<g>
<text x="1" y="28">
int cnt = 0;            
</text>
</g>
<g>
<text x="1" y="44">
int i = 0;              
</text>
</g>
<g>
<text x="1" y="60">
while (i &lt; str.size()) {
</text>
</g>
<g>
<text x="1" y="124">
}                       
</text>
</g>
<g>
<text x="17" y="76">
if (str[i] == &#39;x&#39;) {  
</text>
</g>
<g>
<text x="17" y="108">
}                     
</text>
</g>
<g>
<text x="33" y="92">
cnt += 1;           
</text>
</g>
<g>
<text x="225" y="28">
O(1)
</text>
</g>
<g>
<text x="225" y="44">
O(1)
</text>
</g>
<g>
<text x="225" y="76">
O(1)
</text>
</g>
<g>
<text x="225" y="92">
O(1)
</text>
</g>
<g>
<text x="329" y="44">
O(2)
</text>
</g>
<g>
<text x="329" y="92">
O(2)
</text>
</g>
<g>
<text x="433" y="92">
O(2*n)
</text>
</g>
<g>
<text x="553" y="76">
O(2+2*n)
</text>
</g>
</svg>
