<?xml version="1.0" encoding="UTF-8" standalone="no"?>
<!DOCTYPE svg PUBLIC "-//W3C//DTD SVG 1.1//EN"
 "http://www.w3.org/Graphics/SVG/1.1/DTD/svg11.dtd">
<!-- Generated by graphviz version 2.40.1 (0)
 -->
<!-- Title: G Pages: 1 -->
<svg width="801pt" height="148pt"
 viewBox="0.00 0.00 801.41 148.00" xmlns="http://www.w3.org/2000/svg" xmlns:xlink="http://www.w3.org/1999/xlink">
<g id="graph0" class="graph" transform="scale(1 1) rotate(0) translate(4 144)">
<title>G</title>
<polygon fill="#ffffff" stroke="transparent" points="-4,4 -4,-144 797.4055,-144 797.4055,4 -4,4"/>
<!-- STATE_D,0,1 -->
<g id="node1" class="node">
<title>STATE_D,0,1</title>
<polygon fill="none" stroke="#000000" points="347.6296,-42.0493 349.6946,-42.1479 351.7382,-42.2953 353.7521,-42.4913 355.7282,-42.7353 357.6584,-43.0266 359.5353,-43.3645 361.3515,-43.7479 363.1001,-44.1759 364.7746,-44.6472 366.3689,-45.1606 367.8776,-45.7147 369.2956,-46.308 370.6184,-46.9388 371.842,-47.6054 372.9632,-48.3059 373.9792,-49.0385 374.8877,-49.8012 375.6872,-50.5918 376.3766,-51.4082 376.9556,-52.2481 377.4242,-53.1093 377.7831,-53.9894 378.0333,-54.886 378.1767,-55.7965 378.2153,-56.7186 378.1516,-57.6497 377.9886,-58.5873 377.7294,-59.5287 377.3778,-60.4713 376.9376,-61.4127 376.4127,-62.3503 375.8076,-63.2814 375.1266,-64.2035 374.3742,-65.114 373.555,-66.0106 372.6735,-66.8907 371.7344,-67.7519 370.7421,-68.5918 369.701,-69.4082 368.6155,-70.1988 367.4896,-70.9615 366.3275,-71.6941 365.1328,-72.3946 363.9091,-73.0612 362.6598,-73.692 361.3881,-74.2853 360.0967,-74.8394 358.7884,-75.3528 357.4655,-75.8241 356.1303,-76.2521 354.7847,-76.6355 353.4304,-76.9734 352.069,-77.2647 350.702,-77.5087 349.3305,-77.7047 347.9557,-77.8521 346.5786,-77.9507 345.2001,-78 343.8212,-78 342.4428,-77.9507 341.0656,-77.8521 339.6908,-77.7047 338.3194,-77.5087 336.9523,-77.2647 335.5909,-76.9734 334.2367,-76.6355 332.891,-76.2521 331.5558,-75.8241 330.2329,-75.3528 328.9246,-74.8394 327.6333,-74.2853 326.3615,-73.692 325.1122,-73.0612 323.8886,-72.3946 322.6939,-71.6941 321.5317,-70.9615 320.4059,-70.1988 319.3203,-69.4082 318.2793,-68.5918 317.287,-67.7519 316.3478,-66.8907 315.4663,-66.0106 314.6471,-65.114 313.8947,-64.2035 313.2137,-63.2814 312.6086,-62.3503 312.0838,-61.4127 311.6435,-60.4713 311.2919,-59.5287 311.0328,-58.5873 310.8697,-57.6497 310.806,-56.7186 310.8446,-55.7965 310.988,-54.886 311.2383,-53.9894 311.5971,-53.1093 312.0657,-52.2481 312.6447,-51.4082 313.3341,-50.5918 314.1336,-49.8012 315.0422,-49.0385 316.0581,-48.3059 317.1793,-47.6054 318.403,-46.9388 319.7257,-46.308 321.1437,-45.7147 322.6524,-45.1606 324.2467,-44.6472 325.9212,-44.1759 327.6698,-43.7479 329.486,-43.3645 331.3629,-43.0266 333.2932,-42.7353 335.2692,-42.4913 337.2832,-42.2953 339.3268,-42.1479 341.3918,-42.0493 343.4696,-42 345.5517,-42 347.6296,-42.0493"/>
<text text-anchor="middle" x="344.5107" y="-57.5" font-family="Courier,monospace" font-weight="bold" font-size="10.00" fill="#000000">D,0,1</text>
</g>
<!-- STATE_E,1,1 -->
<g id="node4" class="node">
<title>STATE_E,1,1</title>
<polygon fill="none" stroke="#000000" points="519.4816,-.0493 521.5465,-.1479 523.5902,-.2953 525.6041,-.4913 527.5802,-.7353 529.5104,-1.0266 531.3873,-1.3645 533.2035,-1.7479 534.9521,-2.1759 536.6266,-2.6472 538.2209,-3.1606 539.7296,-3.7147 541.1476,-4.308 542.4704,-4.9388 543.694,-5.6054 544.8152,-6.3059 545.8312,-7.0385 546.7397,-7.8012 547.5392,-8.5918 548.2286,-9.4082 548.8076,-10.2481 549.2762,-11.1093 549.6351,-11.9894 549.8853,-12.886 550.0287,-13.7965 550.0673,-14.7186 550.0036,-15.6497 549.8406,-16.5873 549.5814,-17.5287 549.2298,-18.4713 548.7896,-19.4127 548.2647,-20.3503 547.6596,-21.2814 546.9786,-22.2035 546.2262,-23.114 545.407,-24.0106 544.5255,-24.8907 543.5864,-25.7519 542.5941,-26.5918 541.553,-27.4082 540.4675,-28.1988 539.3416,-28.9615 538.1795,-29.6941 536.9848,-30.3946 535.7611,-31.0612 534.5118,-31.692 533.2401,-32.2853 531.9487,-32.8394 530.6404,-33.3528 529.3175,-33.8241 527.9823,-34.2521 526.6367,-34.6355 525.2824,-34.9734 523.921,-35.2647 522.554,-35.5087 521.1825,-35.7047 519.8077,-35.8521 518.4306,-35.9507 517.0521,-36 515.6732,-36 514.2948,-35.9507 512.9176,-35.8521 511.5428,-35.7047 510.1714,-35.5087 508.8043,-35.2647 507.4429,-34.9734 506.0887,-34.6355 504.743,-34.2521 503.4078,-33.8241 502.0849,-33.3528 500.7766,-32.8394 499.4852,-32.2853 498.2135,-31.692 496.9642,-31.0612 495.7405,-30.3946 494.5459,-29.6941 493.3837,-28.9615 492.2579,-28.1988 491.1723,-27.4082 490.1313,-26.5918 489.139,-25.7519 488.1998,-24.8907 487.3183,-24.0106 486.4991,-23.114 485.7467,-22.2035 485.0657,-21.2814 484.4606,-20.3503 483.9358,-19.4127 483.4955,-18.4713 483.1439,-17.5287 482.8848,-16.5873 482.7217,-15.6497 482.658,-14.7186 482.6966,-13.7965 482.84,-12.886 483.0903,-11.9894 483.4491,-11.1093 483.9177,-10.2481 484.4967,-9.4082 485.1861,-8.5918 485.9856,-7.8012 486.8942,-7.0385 487.9101,-6.3059 489.0313,-5.6054 490.255,-4.9388 491.5777,-4.308 492.9957,-3.7147 494.5044,-3.1606 496.0987,-2.6472 497.7732,-2.1759 499.5218,-1.7479 501.338,-1.3645 503.2149,-1.0266 505.1452,-.7353 507.1212,-.4913 509.1352,-.2953 511.1788,-.1479 513.2438,-.0493 515.3216,0 517.4037,0 519.4816,-.0493"/>
<text text-anchor="middle" x="516.3627" y="-15.5" font-family="Courier,monospace" font-weight="bold" font-size="10.00" fill="#000000">E,1,1</text>
</g>
<!-- STATE_D,0,1&#45;&gt;STATE_E,1,1 -->
<g id="edge1" class="edge">
<title>STATE_D,0,1&#45;&gt;STATE_E,1,1</title>
<path fill="none" stroke="#000000" d="M377.2392,-52.0013C406.0249,-44.9661 447.9428,-34.7216 478.2358,-27.3181"/>
<polygon fill="#000000" stroke="#000000" points="479.1445,-30.6991 488.0277,-24.925 477.4826,-23.8992 479.1445,-30.6991"/>
<text text-anchor="middle" x="453.0107" y="-39" font-family="Courier,monospace" font-weight="bold" font-size="10.00" fill="#000000">1.0</text>
</g>
<!-- STATE_D,1,1 -->
<g id="node2" class="node">
<title>STATE_D,1,1</title>
<polygon fill="none" stroke="#000000" points="519.4816,-104.0493 521.5465,-104.1479 523.5902,-104.2953 525.6041,-104.4913 527.5802,-104.7353 529.5104,-105.0266 531.3873,-105.3645 533.2035,-105.7479 534.9521,-106.1759 536.6266,-106.6472 538.2209,-107.1606 539.7296,-107.7147 541.1476,-108.308 542.4704,-108.9388 543.694,-109.6054 544.8152,-110.3059 545.8312,-111.0385 546.7397,-111.8012 547.5392,-112.5918 548.2286,-113.4082 548.8076,-114.2481 549.2762,-115.1093 549.6351,-115.9894 549.8853,-116.886 550.0287,-117.7965 550.0673,-118.7186 550.0036,-119.6497 549.8406,-120.5873 549.5814,-121.5287 549.2298,-122.4713 548.7896,-123.4127 548.2647,-124.3503 547.6596,-125.2814 546.9786,-126.2035 546.2262,-127.114 545.407,-128.0106 544.5255,-128.8907 543.5864,-129.7519 542.5941,-130.5918 541.553,-131.4082 540.4675,-132.1988 539.3416,-132.9615 538.1795,-133.6941 536.9848,-134.3946 535.7611,-135.0612 534.5118,-135.692 533.2401,-136.2853 531.9487,-136.8394 530.6404,-137.3528 529.3175,-137.8241 527.9823,-138.2521 526.6367,-138.6355 525.2824,-138.9734 523.921,-139.2647 522.554,-139.5087 521.1825,-139.7047 519.8077,-139.8521 518.4306,-139.9507 517.0521,-140 515.6732,-140 514.2948,-139.9507 512.9176,-139.8521 511.5428,-139.7047 510.1714,-139.5087 508.8043,-139.2647 507.4429,-138.9734 506.0887,-138.6355 504.743,-138.2521 503.4078,-137.8241 502.0849,-137.3528 500.7766,-136.8394 499.4852,-136.2853 498.2135,-135.692 496.9642,-135.0612 495.7405,-134.3946 494.5459,-133.6941 493.3837,-132.9615 492.2579,-132.1988 491.1723,-131.4082 490.1313,-130.5918 489.139,-129.7519 488.1998,-128.8907 487.3183,-128.0106 486.4991,-127.114 485.7467,-126.2035 485.0657,-125.2814 484.4606,-124.3503 483.9358,-123.4127 483.4955,-122.4713 483.1439,-121.5287 482.8848,-120.5873 482.7217,-119.6497 482.658,-118.7186 482.6966,-117.7965 482.84,-116.886 483.0903,-115.9894 483.4491,-115.1093 483.9177,-114.2481 484.4967,-113.4082 485.1861,-112.5918 485.9856,-111.8012 486.8942,-111.0385 487.9101,-110.3059 489.0313,-109.6054 490.255,-108.9388 491.5777,-108.308 492.9957,-107.7147 494.5044,-107.1606 496.0987,-106.6472 497.7732,-106.1759 499.5218,-105.7479 501.338,-105.3645 503.2149,-105.0266 505.1452,-104.7353 507.1212,-104.4913 509.1352,-104.2953 511.1788,-104.1479 513.2438,-104.0493 515.3216,-104 517.4037,-104 519.4816,-104.0493"/>
<text text-anchor="middle" x="516.3627" y="-119.5" font-family="Courier,monospace" font-weight="bold" font-size="10.00" fill="#000000">D,1,1</text>
</g>
<!-- STATE_T,1,1 -->
<g id="node6" class="node">
<title>STATE_T,1,1</title>
<polygon fill="none" stroke="#000000" points="646.1856,-80.0493 648.2505,-80.1479 650.2942,-80.2953 652.3081,-80.4913 654.2842,-80.7353 656.2144,-81.0266 658.0913,-81.3645 659.9075,-81.7479 661.6561,-82.1759 663.3306,-82.6472 664.9249,-83.1606 666.4336,-83.7147 667.8516,-84.308 669.1744,-84.9388 670.398,-85.6054 671.5192,-86.3059 672.5352,-87.0385 673.4437,-87.8012 674.2432,-88.5918 674.9326,-89.4082 675.5116,-90.2481 675.9802,-91.1093 676.3391,-91.9894 676.5893,-92.886 676.7327,-93.7965 676.7713,-94.7186 676.7076,-95.6497 676.5446,-96.5873 676.2854,-97.5287 675.9338,-98.4713 675.4936,-99.4127 674.9687,-100.3503 674.3636,-101.2814 673.6826,-102.2035 672.9302,-103.114 672.111,-104.0106 671.2295,-104.8907 670.2904,-105.7519 669.2981,-106.5918 668.257,-107.4082 667.1715,-108.1988 666.0456,-108.9615 664.8835,-109.6941 663.6888,-110.3946 662.4651,-111.0612 661.2158,-111.692 659.9441,-112.2853 658.6527,-112.8394 657.3444,-113.3528 656.0215,-113.8241 654.6863,-114.2521 653.3407,-114.6355 651.9864,-114.9734 650.625,-115.2647 649.258,-115.5087 647.8865,-115.7047 646.5117,-115.8521 645.1346,-115.9507 643.7561,-116 642.3772,-116 640.9988,-115.9507 639.6216,-115.8521 638.2468,-115.7047 636.8753,-115.5087 635.5083,-115.2647 634.1469,-114.9734 632.7927,-114.6355 631.447,-114.2521 630.1118,-113.8241 628.7889,-113.3528 627.4806,-112.8394 626.1892,-112.2853 624.9175,-111.692 623.6682,-111.0612 622.4445,-110.3946 621.2499,-109.6941 620.0877,-108.9615 618.9619,-108.1988 617.8763,-107.4082 616.8353,-106.5918 615.843,-105.7519 614.9038,-104.8907 614.0223,-104.0106 613.2031,-103.114 612.4507,-102.2035 611.7697,-101.2814 611.1646,-100.3503 610.6398,-99.4127 610.1995,-98.4713 609.8479,-97.5287 609.5888,-96.5873 609.4257,-95.6497 609.362,-94.7186 609.4006,-93.7965 609.544,-92.886 609.7943,-91.9894 610.1531,-91.1093 610.6217,-90.2481 611.2007,-89.4082 611.8901,-88.5918 612.6896,-87.8012 613.5982,-87.0385 614.6141,-86.3059 615.7353,-85.6054 616.959,-84.9388 618.2817,-84.308 619.6997,-83.7147 621.2084,-83.1606 622.8027,-82.6472 624.4772,-82.1759 626.2258,-81.7479 628.042,-81.3645 629.9189,-81.0266 631.8492,-80.7353 633.8252,-80.4913 635.8392,-80.2953 637.8828,-80.1479 639.9478,-80.0493 642.0256,-80 644.1077,-80 646.1856,-80.0493"/>
<text text-anchor="middle" x="643.0667" y="-95.5" font-family="Courier,monospace" font-weight="bold" font-size="10.00" fill="#000000">T,1,1</text>
</g>
<!-- STATE_D,1,1&#45;&gt;STATE_T,1,1 -->
<g id="edge2" class="edge">
<title>STATE_D,1,1&#45;&gt;STATE_T,1,1</title>
<path fill="none" stroke="#000000" d="M549.6526,-115.6943C566.0467,-112.589 585.9372,-108.8213 603.1438,-105.5621"/>
<polygon fill="#000000" stroke="#000000" points="604.2813,-108.909 613.4552,-103.6089 602.9785,-102.0313 604.2813,-108.909"/>
<text text-anchor="middle" x="579.7147" y="-115" font-family="Courier,monospace" font-weight="bold" font-size="10.00" fill="#000000">1.0</text>
</g>
<!-- STATE_E,1,0 -->
<g id="node3" class="node">
<title>STATE_E,1,0</title>
<polygon fill="none" stroke="#000000" points="347.6296,-96.0493 349.6946,-96.1479 351.7382,-96.2953 353.7521,-96.4913 355.7282,-96.7353 357.6584,-97.0266 359.5353,-97.3645 361.3515,-97.7479 363.1001,-98.1759 364.7746,-98.6472 366.3689,-99.1606 367.8776,-99.7147 369.2956,-100.308 370.6184,-100.9388 371.842,-101.6054 372.9632,-102.3059 373.9792,-103.0385 374.8877,-103.8012 375.6872,-104.5918 376.3766,-105.4082 376.9556,-106.2481 377.4242,-107.1093 377.7831,-107.9894 378.0333,-108.886 378.1767,-109.7965 378.2153,-110.7186 378.1516,-111.6497 377.9886,-112.5873 377.7294,-113.5287 377.3778,-114.4713 376.9376,-115.4127 376.4127,-116.3503 375.8076,-117.2814 375.1266,-118.2035 374.3742,-119.114 373.555,-120.0106 372.6735,-120.8907 371.7344,-121.7519 370.7421,-122.5918 369.701,-123.4082 368.6155,-124.1988 367.4896,-124.9615 366.3275,-125.6941 365.1328,-126.3946 363.9091,-127.0612 362.6598,-127.692 361.3881,-128.2853 360.0967,-128.8394 358.7884,-129.3528 357.4655,-129.8241 356.1303,-130.2521 354.7847,-130.6355 353.4304,-130.9734 352.069,-131.2647 350.702,-131.5087 349.3305,-131.7047 347.9557,-131.8521 346.5786,-131.9507 345.2001,-132 343.8212,-132 342.4428,-131.9507 341.0656,-131.8521 339.6908,-131.7047 338.3194,-131.5087 336.9523,-131.2647 335.5909,-130.9734 334.2367,-130.6355 332.891,-130.2521 331.5558,-129.8241 330.2329,-129.3528 328.9246,-128.8394 327.6333,-128.2853 326.3615,-127.692 325.1122,-127.0612 323.8886,-126.3946 322.6939,-125.6941 321.5317,-124.9615 320.4059,-124.1988 319.3203,-123.4082 318.2793,-122.5918 317.287,-121.7519 316.3478,-120.8907 315.4663,-120.0106 314.6471,-119.114 313.8947,-118.2035 313.2137,-117.2814 312.6086,-116.3503 312.0838,-115.4127 311.6435,-114.4713 311.2919,-113.5287 311.0328,-112.5873 310.8697,-111.6497 310.806,-110.7186 310.8446,-109.7965 310.988,-108.886 311.2383,-107.9894 311.5971,-107.1093 312.0657,-106.2481 312.6447,-105.4082 313.3341,-104.5918 314.1336,-103.8012 315.0422,-103.0385 316.0581,-102.3059 317.1793,-101.6054 318.403,-100.9388 319.7257,-100.308 321.1437,-99.7147 322.6524,-99.1606 324.2467,-98.6472 325.9212,-98.1759 327.6698,-97.7479 329.486,-97.3645 331.3629,-97.0266 333.2932,-96.7353 335.2692,-96.4913 337.2832,-96.2953 339.3268,-96.1479 341.3918,-96.0493 343.4696,-96 345.5517,-96 347.6296,-96.0493"/>
<text text-anchor="middle" x="344.5107" y="-111.5" font-family="Courier,monospace" font-weight="bold" font-size="10.00" fill="#000000">E,1,0</text>
</g>
<!-- STATE_E,1,0&#45;&gt;STATE_D,1,1 -->
<g id="edge3" class="edge">
<title>STATE_E,1,0&#45;&gt;STATE_D,1,1</title>
<path fill="none" stroke="#000000" d="M377.2392,-115.5236C404.2446,-116.7807 442.808,-118.5759 472.4876,-119.9575"/>
<polygon fill="#000000" stroke="#000000" points="472.4297,-123.4585 482.5817,-120.4274 472.7553,-116.4661 472.4297,-123.4585"/>
<text text-anchor="middle" x="453.0107" y="-122" font-family="Courier,monospace" font-weight="bold" font-size="10.00" fill="#000000">1.0</text>
</g>
<!-- SYMBOL_n -->
<g id="node7" class="node">
<title>SYMBOL_n</title>
<polygon fill="none" stroke="#000000" stroke-dasharray="5,2" points="645.7492,-16.0493 647.5253,-16.1479 649.283,-16.2953 651.0151,-16.4913 652.7147,-16.7353 654.3749,-17.0266 655.9892,-17.3645 657.5513,-17.7479 659.0552,-18.1759 660.4954,-18.6472 661.8667,-19.1606 663.1643,-19.7147 664.3839,-20.308 665.5216,-20.9388 666.5741,-21.6054 667.5384,-22.3059 668.4122,-23.0385 669.1936,-23.8012 669.8812,-24.5918 670.4742,-25.4082 670.9722,-26.2481 671.3752,-27.1093 671.6839,-27.9894 671.8991,-28.886 672.0224,-29.7965 672.0556,-30.7186 672.0008,-31.6497 671.8606,-32.5873 671.6377,-33.5287 671.3353,-34.4713 670.9567,-35.4127 670.5053,-36.3503 669.9848,-37.2814 669.3991,-38.2035 668.7519,-39.114 668.0473,-40.0106 667.2892,-40.8907 666.4815,-41.7519 665.628,-42.5918 664.7326,-43.4082 663.7989,-44.1988 662.8306,-44.9615 661.831,-45.6941 660.8035,-46.3946 659.751,-47.0612 658.6766,-47.692 657.5827,-48.2853 656.472,-48.8394 655.3468,-49.3528 654.209,-49.8241 653.0606,-50.2521 651.9032,-50.6355 650.7384,-50.9734 649.5675,-51.2647 648.3917,-51.5087 647.2121,-51.7047 646.0297,-51.8521 644.8453,-51.9507 643.6597,-52 642.4737,-52 641.2881,-51.9507 640.1036,-51.8521 638.9212,-51.7047 637.7416,-51.5087 636.5658,-51.2647 635.3949,-50.9734 634.2301,-50.6355 633.0728,-50.2521 631.9243,-49.8241 630.7866,-49.3528 629.6613,-48.8394 628.5506,-48.2853 627.4568,-47.692 626.3823,-47.0612 625.3298,-46.3946 624.3023,-45.6941 623.3027,-44.9615 622.3344,-44.1988 621.4008,-43.4082 620.5054,-42.5918 619.6519,-41.7519 618.8441,-40.8907 618.086,-40.0106 617.3814,-39.114 616.7342,-38.2035 616.1485,-37.2814 615.6281,-36.3503 615.1767,-35.4127 614.798,-34.4713 614.4956,-33.5287 614.2727,-32.5873 614.1325,-31.6497 614.0777,-30.7186 614.1109,-29.7965 614.2342,-28.886 614.4495,-27.9894 614.7581,-27.1093 615.1612,-26.2481 615.6591,-25.4082 616.2521,-24.5918 616.9397,-23.8012 617.7212,-23.0385 618.595,-22.3059 619.5593,-21.6054 620.6117,-20.9388 621.7494,-20.308 622.969,-19.7147 624.2666,-19.1606 625.6379,-18.6472 627.0781,-18.1759 628.582,-17.7479 630.1441,-17.3645 631.7584,-17.0266 633.4186,-16.7353 635.1182,-16.4913 636.8504,-16.2953 638.6081,-16.1479 640.3841,-16.0493 642.1713,-16 643.9621,-16 645.7492,-16.0493"/>
<text text-anchor="middle" x="643.0667" y="-31.5" font-family="Courier,monospace" font-weight="bold" font-size="10.00" fill="#000000">n</text>
</g>
<!-- STATE_E,1,0&#45;&gt;SYMBOL_n -->
<g id="edge8" class="edge">
<title>STATE_E,1,0&#45;&gt;SYMBOL_n</title>
<path fill="none" stroke="#000000" stroke-dasharray="5,2" d="M377.4015,-106.7961C405.3535,-100.6868 446.5516,-91.7127 482.5107,-84 530.795,-73.6437 544.7303,-77.6682 591.2147,-61 599.1413,-58.1577 607.3764,-54.3217 614.8874,-50.4347"/>
<polygon fill="#000000" stroke="#000000" points="616.796,-53.382 623.9364,-45.5548 613.4734,-47.2208 616.796,-53.382"/>
<text text-anchor="middle" x="516.3627" y="-87" font-family="Courier,monospace" font-weight="bold" font-size="10.00" fill="#000000">1.0</text>
</g>
<!-- STATE_E,1,1&#45;&gt;STATE_T,1,1 -->
<g id="edge4" class="edge">
<title>STATE_E,1,1&#45;&gt;STATE_T,1,1</title>
<path fill="none" stroke="#000000" d="M536.7199,-30.8534C556.8173,-43.5428 587.845,-63.1335 611.2085,-77.885"/>
<polygon fill="#000000" stroke="#000000" points="609.4246,-80.8979 619.7488,-83.2773 613.1618,-74.9789 609.4246,-80.8979"/>
<text text-anchor="middle" x="579.7147" y="-69" font-family="Courier,monospace" font-weight="bold" font-size="10.00" fill="#000000">1.0</text>
</g>
<!-- STATE_E,1,1&#45;&gt;SYMBOL_n -->
<g id="edge9" class="edge">
<title>STATE_E,1,1&#45;&gt;SYMBOL_n</title>
<path fill="none" stroke="#000000" stroke-dasharray="5,2" d="M550.0917,-14.3443C563.03,-13.6604 577.8831,-13.7518 591.2147,-16 596.6763,-16.921 602.3309,-18.3518 607.8093,-20.0132"/>
<polygon fill="#000000" stroke="#000000" points="606.8068,-23.3682 617.4002,-23.1929 609.0096,-16.7238 606.8068,-23.3682"/>
<text text-anchor="middle" x="579.7147" y="-19" font-family="Courier,monospace" font-weight="bold" font-size="10.00" fill="#000000">1.0</text>
</g>
<!-- STATE_S,&#45;1,&#45;1 -->
<g id="node5" class="node">
<title>STATE_S,&#45;1,&#45;1</title>
<polygon fill="none" stroke="#000000" points="47.2355,-42.0493 49.8707,-42.1479 52.4787,-42.2953 55.0487,-42.4913 57.5705,-42.7353 60.0338,-43.0266 62.429,-43.3645 64.7467,-43.7479 66.9782,-44.1759 69.1151,-44.6472 71.1497,-45.1606 73.075,-45.7147 74.8845,-46.308 76.5726,-46.9388 78.1341,-47.6054 79.5649,-48.3059 80.8614,-49.0385 82.0208,-49.8012 83.0411,-50.5918 83.921,-51.4082 84.6598,-52.2481 85.2578,-53.1093 85.7158,-53.9894 86.0352,-54.886 86.2181,-55.7965 86.2674,-56.7186 86.1861,-57.6497 85.978,-58.5873 85.6473,-59.5287 85.1986,-60.4713 84.6368,-61.4127 83.967,-62.3503 83.1948,-63.2814 82.3257,-64.2035 81.3656,-65.114 80.3201,-66.0106 79.1952,-66.8907 77.9968,-67.7519 76.7304,-68.5918 75.4019,-69.4082 74.0166,-70.1988 72.5799,-70.9615 71.0968,-71.6941 69.5722,-72.3946 68.0106,-73.0612 66.4163,-73.692 64.7934,-74.2853 63.1454,-74.8394 61.4758,-75.3528 59.7876,-75.8241 58.0837,-76.2521 56.3665,-76.6355 54.6382,-76.9734 52.9009,-77.2647 51.1564,-77.5087 49.4061,-77.7047 47.6517,-77.8521 45.8943,-77.9507 44.1352,-78 42.3755,-78 40.6164,-77.9507 38.859,-77.8521 37.1045,-77.7047 35.3543,-77.5087 33.6098,-77.2647 31.8725,-76.9734 30.1442,-76.6355 28.427,-76.2521 26.723,-75.8241 25.0349,-75.3528 23.3653,-74.8394 21.7173,-74.2853 20.0943,-73.692 18.5001,-73.0612 16.9385,-72.3946 15.4139,-71.6941 13.9308,-70.9615 12.4941,-70.1988 11.1088,-69.4082 9.7802,-68.5918 8.5139,-67.7519 7.3154,-66.8907 6.1905,-66.0106 5.1451,-65.114 4.1849,-64.2035 3.3158,-63.2814 2.5436,-62.3503 1.8739,-61.4127 1.312,-60.4713 .8633,-59.5287 .5326,-58.5873 .3246,-57.6497 .2433,-56.7186 .2925,-55.7965 .4755,-54.886 .7949,-53.9894 1.2529,-53.1093 1.8509,-52.2481 2.5897,-51.4082 3.4695,-50.5918 4.4898,-49.8012 5.6492,-49.0385 6.9457,-48.3059 8.3765,-47.6054 9.9381,-46.9388 11.6262,-46.308 13.4357,-45.7147 15.361,-45.1606 17.3956,-44.6472 19.5325,-44.1759 21.7639,-43.7479 24.0817,-43.3645 26.4768,-43.0266 28.9402,-42.7353 31.4619,-42.4913 34.032,-42.2953 36.6399,-42.1479 39.2751,-42.0493 41.9268,-42 44.5839,-42 47.2355,-42.0493"/>
<text text-anchor="middle" x="43.2553" y="-57.5" font-family="Courier,monospace" font-weight="bold" font-size="10.00" fill="#000000">S,&#45;1,&#45;1</text>
</g>
<!-- STATE_S,&#45;1,&#45;1&#45;&gt;STATE_D,0,1 -->
<g id="edge5" class="edge">
<title>STATE_S,&#45;1,&#45;1&#45;&gt;STATE_D,0,1</title>
<path fill="none" stroke="#000000" d="M85.4608,-60C142.4751,-60 243.577,-60 301.1698,-60"/>
<polygon fill="#000000" stroke="#000000" points="301.3969,-63.5001 311.3969,-60 301.3969,-56.5001 301.3969,-63.5001"/>
<text text-anchor="middle" x="176.0107" y="-63" font-family="Courier,monospace" font-weight="bold" font-size="10.00" fill="#000000">0.39998000599820055</text>
</g>
<!-- STATE_S,&#45;1,&#45;1&#45;&gt;STATE_E,1,0 -->
<g id="edge6" class="edge">
<title>STATE_S,&#45;1,&#45;1&#45;&gt;STATE_E,1,0</title>
<path fill="none" stroke="#000000" d="M76.8481,-68.7329C85.8049,-70.9222 95.4981,-73.1672 104.5107,-75 172.5316,-88.8325 252.1885,-100.9857 300.4694,-107.9099"/>
<polygon fill="#000000" stroke="#000000" points="300.18,-111.4039 310.5735,-109.3483 301.1666,-104.4738 300.18,-111.4039"/>
<text text-anchor="middle" x="176.0107" y="-102" font-family="Courier,monospace" font-weight="bold" font-size="10.00" fill="#000000">0.5999200239928022</text>
</g>
<!-- STATE_S,&#45;1,&#45;1&#45;&gt;STATE_E,1,1 -->
<g id="edge7" class="edge">
<title>STATE_S,&#45;1,&#45;1&#45;&gt;STATE_E,1,1</title>
<path fill="none" stroke="#000000" d="M83.9697,-51.1053C128.3516,-41.8638 201.5867,-27.939 265.5107,-22 337.7843,-15.2853 422.2623,-15.6176 472.4292,-16.6676"/>
<polygon fill="#000000" stroke="#000000" points="472.5193,-20.1705 482.5968,-16.9003 472.6795,-13.1724 472.5193,-20.1705"/>
<text text-anchor="middle" x="344.5107" y="-25" font-family="Courier,monospace" font-weight="bold" font-size="10.00" fill="#000000">9.997000899730082e&#45;05</text>
</g>
<!-- SYMBOL_? -->
<g id="node8" class="node">
<title>SYMBOL_?</title>
<polygon fill="none" stroke="#000000" stroke-dasharray="5,2" points="767.3446,-80.0493 769.1207,-80.1479 770.8784,-80.2953 772.6106,-80.4913 774.3101,-80.7353 775.9704,-81.0266 777.5846,-81.3645 779.1467,-81.7479 780.6507,-82.1759 782.0909,-82.6472 783.4621,-83.1606 784.7597,-83.7147 785.9793,-84.308 787.117,-84.9388 788.1695,-85.6054 789.1338,-86.3059 790.0076,-87.0385 790.789,-87.8012 791.4767,-88.5918 792.0697,-89.4082 792.5676,-90.2481 792.9706,-91.1093 793.2793,-91.9894 793.4946,-92.886 793.6179,-93.7965 793.6511,-94.7186 793.5963,-95.6497 793.4561,-96.5873 793.2332,-97.5287 792.9308,-98.4713 792.5521,-99.4127 792.1007,-100.3503 791.5803,-101.2814 790.9945,-102.2035 790.3474,-103.114 789.6428,-104.0106 788.8846,-104.8907 788.0769,-105.7519 787.2234,-106.5918 786.328,-107.4082 785.3944,-108.1988 784.426,-108.9615 783.4265,-109.6941 782.3989,-110.3946 781.3465,-111.0612 780.272,-111.692 779.1782,-112.2853 778.0675,-112.8394 776.9422,-113.3528 775.8044,-113.8241 774.656,-114.2521 773.4987,-114.6355 772.3339,-114.9734 771.163,-115.2647 769.9872,-115.5087 768.8076,-115.7047 767.6251,-115.8521 766.4407,-115.9507 765.2551,-116 764.0691,-116 762.8835,-115.9507 761.6991,-115.8521 760.5166,-115.7047 759.337,-115.5087 758.1613,-115.2647 756.9904,-114.9734 755.8256,-114.6355 754.6682,-114.2521 753.5198,-113.8241 752.382,-113.3528 751.2567,-112.8394 750.146,-112.2853 749.0522,-111.692 747.9777,-111.0612 746.9253,-110.3946 745.8977,-109.6941 744.8982,-108.9615 743.9299,-108.1988 742.9962,-107.4082 742.1008,-106.5918 741.2473,-105.7519 740.4396,-104.8907 739.6814,-104.0106 738.9768,-103.114 738.3297,-102.2035 737.744,-101.2814 737.2235,-100.3503 736.7721,-99.4127 736.3934,-98.4713 736.091,-97.5287 735.8682,-96.5873 735.7279,-95.6497 735.6731,-94.7186 735.7063,-93.7965 735.8296,-92.886 736.0449,-91.9894 736.3536,-91.1093 736.7566,-90.2481 737.2546,-89.4082 737.8476,-88.5918 738.5352,-87.8012 739.3166,-87.0385 740.1904,-86.3059 741.1547,-85.6054 742.2072,-84.9388 743.3449,-84.308 744.5645,-83.7147 745.8621,-83.1606 747.2333,-82.6472 748.6736,-82.1759 750.1775,-81.7479 751.7396,-81.3645 753.3539,-81.0266 755.0141,-80.7353 756.7137,-80.4913 758.4458,-80.2953 760.2035,-80.1479 761.9796,-80.0493 763.7667,-80 765.5575,-80 767.3446,-80.0493"/>
<text text-anchor="middle" x="764.6621" y="-95.5" font-family="Courier,monospace" font-weight="bold" font-size="10.00" fill="#000000">?</text>
</g>
<!-- STATE_T,1,1&#45;&gt;SYMBOL_? -->
<g id="edge10" class="edge">
<title>STATE_T,1,1&#45;&gt;SYMBOL_?</title>
<path fill="none" stroke="#000000" stroke-dasharray="5,2" d="M676.2932,-98C691.6365,-98 709.9521,-98 725.9197,-98"/>
<polygon fill="#000000" stroke="#000000" points="726.0189,-101.5001 736.0189,-98 726.0189,-94.5001 726.0189,-101.5001"/>
<text text-anchor="middle" x="706.4187" y="-101" font-family="Courier,monospace" font-weight="bold" font-size="10.00" fill="#000000">1.0</text>
</g>
</g>
</svg>
