<?xml version="1.0" encoding="UTF-8" standalone="no"?>
<!DOCTYPE svg PUBLIC "-//W3C//DTD SVG 1.1//EN"
 "http://www.w3.org/Graphics/SVG/1.1/DTD/svg11.dtd">
<!-- Generated by graphviz version 2.40.1 (0)
 -->
<!-- Title: G Pages: 1 -->
<svg width="264pt" height="256pt"
 viewBox="0.00 0.00 264.00 256.00" xmlns="http://www.w3.org/2000/svg" xmlns:xlink="http://www.w3.org/1999/xlink">
<g id="graph0" class="graph" transform="scale(1 1) rotate(0) translate(4 252)">
<title>G</title>
<polygon fill="#ffffff" stroke="transparent" points="-4,4 -4,-252 260,-252 260,4 -4,4"/>
<g id="clust1" class="cluster">
<title>cluster_two</title>
<polygon fill="none" stroke="#000000" points="8,-8 8,-120 248,-120 248,-8 8,-8"/>
<text text-anchor="middle" x="128" y="-108" font-family="Courier,monospace" font-weight="bold" font-size="10.00" fill="#000000">path(v0, v2)</text>
</g>
<g id="clust2" class="cluster">
<title>cluster_one</title>
<polygon fill="none" stroke="#000000" points="8,-128 8,-240 248,-240 248,-128 8,-128"/>
<text text-anchor="middle" x="128" y="-228" font-family="Courier,monospace" font-weight="bold" font-size="10.00" fill="#000000">path(v0, v1)</text>
</g>
<!-- y_v0 -->
<g id="node1" class="node">
<title>y_v0</title>
<ellipse fill="none" stroke="#000000" cx="30.5" cy="-78" rx="14.5" ry="14.5"/>
<text text-anchor="middle" x="30.5" y="-75.5" font-family="Courier,monospace" font-weight="bold" font-size="10.00" fill="#000000">v0</text>
</g>
<!-- y_i0 -->
<g id="node5" class="node">
<title>y_i0</title>
<ellipse fill="#c0c0c0" stroke="#000000" cx="95.5" cy="-54" rx="14.5" ry="14.5"/>
<text text-anchor="middle" x="95.5" y="-51.5" font-family="Courier,monospace" font-weight="bold" font-size="10.00" fill="#000000">i0</text>
</g>
<!-- y_v0&#45;&#45;y_i0 -->
<g id="edge1" class="edge">
<title>y_v0&#45;&#45;y_i0</title>
<path fill="none" stroke="#0000ff" stroke-width="2.5" d="M44.2848,-72.9102C55.3155,-68.8373 70.7096,-63.1534 81.735,-59.0824"/>
</g>
<!-- y_v1 -->
<g id="node2" class="node">
<title>y_v1</title>
<ellipse fill="none" stroke="#000000" cx="30.5" cy="-31" rx="14.5" ry="14.5"/>
<text text-anchor="middle" x="30.5" y="-28.5" font-family="Courier,monospace" font-weight="bold" font-size="10.00" fill="#000000">v1</text>
</g>
<!-- y_v1&#45;&#45;y_i0 -->
<g id="edge2" class="edge">
<title>y_v1&#45;&#45;y_i0</title>
<path fill="none" stroke="#000000" d="M44.2848,-35.8777C55.3155,-39.7809 70.7096,-45.228 81.735,-49.1293"/>
</g>
<!-- y_v2 -->
<g id="node3" class="node">
<title>y_v2</title>
<ellipse fill="none" stroke="#000000" cx="225.5" cy="-31" rx="14.5" ry="14.5"/>
<text text-anchor="middle" x="225.5" y="-28.5" font-family="Courier,monospace" font-weight="bold" font-size="10.00" fill="#000000">v2</text>
</g>
<!-- y_v3 -->
<g id="node4" class="node">
<title>y_v3</title>
<ellipse fill="none" stroke="#000000" cx="225.5" cy="-78" rx="14.5" ry="14.5"/>
<text text-anchor="middle" x="225.5" y="-75.5" font-family="Courier,monospace" font-weight="bold" font-size="10.00" fill="#000000">v3</text>
</g>
<!-- y_i1 -->
<g id="node6" class="node">
<title>y_i1</title>
<ellipse fill="none" stroke="#000000" cx="160.5" cy="-54" rx="14.5" ry="14.5"/>
<text text-anchor="middle" x="160.5" y="-51.5" font-family="Courier,monospace" font-weight="bold" font-size="10.00" fill="#000000">i1</text>
</g>
<!-- y_i0&#45;&#45;y_i1 -->
<g id="edge3" class="edge">
<title>y_i0&#45;&#45;y_i1</title>
<path fill="none" stroke="#0000ff" stroke-width="2.5" d="M110.2495,-54C120.8872,-54 135.1846,-54 145.8089,-54"/>
</g>
<!-- y_i1&#45;&#45;y_v2 -->
<g id="edge4" class="edge">
<title>y_i1&#45;&#45;y_v2</title>
<path fill="none" stroke="#0000ff" stroke-width="2.5" d="M174.2848,-49.1223C185.3155,-45.2191 200.7096,-39.772 211.735,-35.8707"/>
</g>
<!-- y_i1&#45;&#45;y_v3 -->
<g id="edge5" class="edge">
<title>y_i1&#45;&#45;y_v3</title>
<path fill="none" stroke="#000000" d="M174.2848,-59.0898C185.3155,-63.1627 200.7096,-68.8466 211.735,-72.9176"/>
</g>
<!-- x_v0 -->
<g id="node7" class="node">
<title>x_v0</title>
<ellipse fill="none" stroke="#000000" cx="30.5" cy="-198" rx="14.5" ry="14.5"/>
<text text-anchor="middle" x="30.5" y="-195.5" font-family="Courier,monospace" font-weight="bold" font-size="10.00" fill="#000000">v0</text>
</g>
<!-- x_i0 -->
<g id="node11" class="node">
<title>x_i0</title>
<ellipse fill="#c0c0c0" stroke="#000000" cx="95.5" cy="-174" rx="14.5" ry="14.5"/>
<text text-anchor="middle" x="95.5" y="-171.5" font-family="Courier,monospace" font-weight="bold" font-size="10.00" fill="#000000">i0</text>
</g>
<!-- x_v0&#45;&#45;x_i0 -->
<g id="edge6" class="edge">
<title>x_v0&#45;&#45;x_i0</title>
<path fill="none" stroke="#ffa500" stroke-width="2.5" d="M44.2848,-192.9102C55.3155,-188.8373 70.7096,-183.1534 81.735,-179.0824"/>
</g>
<!-- x_v1 -->
<g id="node8" class="node">
<title>x_v1</title>
<ellipse fill="none" stroke="#000000" cx="30.5" cy="-151" rx="14.5" ry="14.5"/>
<text text-anchor="middle" x="30.5" y="-148.5" font-family="Courier,monospace" font-weight="bold" font-size="10.00" fill="#000000">v1</text>
</g>
<!-- x_v1&#45;&#45;x_i0 -->
<g id="edge7" class="edge">
<title>x_v1&#45;&#45;x_i0</title>
<path fill="none" stroke="#ffa500" stroke-width="2.5" d="M44.2848,-155.8777C55.3155,-159.7809 70.7096,-165.228 81.735,-169.1293"/>
</g>
<!-- x_v2 -->
<g id="node9" class="node">
<title>x_v2</title>
<ellipse fill="none" stroke="#000000" cx="225.5" cy="-151" rx="14.5" ry="14.5"/>
<text text-anchor="middle" x="225.5" y="-148.5" font-family="Courier,monospace" font-weight="bold" font-size="10.00" fill="#000000">v2</text>
</g>
<!-- x_v3 -->
<g id="node10" class="node">
<title>x_v3</title>
<ellipse fill="none" stroke="#000000" cx="225.5" cy="-198" rx="14.5" ry="14.5"/>
<text text-anchor="middle" x="225.5" y="-195.5" font-family="Courier,monospace" font-weight="bold" font-size="10.00" fill="#000000">v3</text>
</g>
<!-- x_i1 -->
<g id="node12" class="node">
<title>x_i1</title>
<ellipse fill="none" stroke="#000000" cx="160.5" cy="-174" rx="14.5" ry="14.5"/>
<text text-anchor="middle" x="160.5" y="-171.5" font-family="Courier,monospace" font-weight="bold" font-size="10.00" fill="#000000">i1</text>
</g>
<!-- x_i0&#45;&#45;x_i1 -->
<g id="edge8" class="edge">
<title>x_i0&#45;&#45;x_i1</title>
<path fill="none" stroke="#000000" d="M110.2495,-174C120.8872,-174 135.1846,-174 145.8089,-174"/>
</g>
<!-- x_i1&#45;&#45;x_v2 -->
<g id="edge9" class="edge">
<title>x_i1&#45;&#45;x_v2</title>
<path fill="none" stroke="#000000" d="M174.2848,-169.1223C185.3155,-165.2191 200.7096,-159.772 211.735,-155.8707"/>
</g>
<!-- x_i1&#45;&#45;x_v3 -->
<g id="edge10" class="edge">
<title>x_i1&#45;&#45;x_v3</title>
<path fill="none" stroke="#000000" d="M174.2848,-179.0898C185.3155,-183.1627 200.7096,-188.8466 211.735,-192.9176"/>
</g>
</g>
</svg>
