<?xml version="1.0" encoding="UTF-8" standalone="no"?>
<!DOCTYPE svg PUBLIC "-//W3C//DTD SVG 1.1//EN"
 "http://www.w3.org/Graphics/SVG/1.1/DTD/svg11.dtd">
<!-- Generated by graphviz version 2.40.1 (0)
 -->
<!-- Title: G Pages: 1 -->
<svg width="513pt" height="350pt"
 viewBox="0.00 0.00 513.00 350.00" xmlns="http://www.w3.org/2000/svg" xmlns:xlink="http://www.w3.org/1999/xlink">
<g id="graph0" class="graph" transform="scale(1 1) rotate(0) translate(4 346)">
<title>G</title>
<polygon fill="#ffffff" stroke="transparent" points="-4,4 -4,-346 509,-346 509,4 -4,4"/>
<g id="clust1" class="cluster">
<title>cluster_rhs</title>
<polygon fill="none" stroke="#000000" points="0,-8 0,-167 505,-167 505,-8 0,-8"/>
<text text-anchor="middle" x="252.5" y="-155" font-family="Courier,monospace" font-weight="bold" font-size="10.00" fill="#000000">path(v0,v4) broken 15 units in from v0, then v5&#39;s limb added</text>
</g>
<g id="clust2" class="cluster">
<title>cluster_lhs</title>
<polygon fill="none" stroke="#000000" points="15,-175 15,-334 369,-334 369,-175 15,-175"/>
<text text-anchor="middle" x="192" y="-322" font-family="Courier,monospace" font-weight="bold" font-size="10.00" fill="#000000">before&#45;addition path(v0,v4), starting from v0</text>
</g>
<!-- v0_y -->
<g id="node1" class="node">
<title>v0_y</title>
<ellipse fill="none" stroke="#000000" cx="75.5" cy="-125" rx="14.5" ry="14.5"/>
<text text-anchor="middle" x="75.5" y="-122.5" font-family="Courier,monospace" font-weight="bold" font-size="10.00" fill="#000000">v0</text>
</g>
<!-- i0_y -->
<g id="node2" class="node">
<title>i0_y</title>
<ellipse fill="none" stroke="#000000" cx="158.5" cy="-81" rx="14.5" ry="14.5"/>
<text text-anchor="middle" x="158.5" y="-78.5" font-family="Courier,monospace" font-weight="bold" font-size="10.00" fill="#000000">i0</text>
</g>
<!-- v0_y&#45;&#45;i0_y -->
<g id="edge1" class="edge">
<title>v0_y&#45;&#45;i0_y</title>
<path fill="none" stroke="#a020f0" stroke-width="2.5" d="M88.4688,-118.125C102.3562,-110.763 124.5054,-99.0213 140.1713,-90.7164"/>
<polygon fill="#a020f0" stroke="#a020f0" stroke-width="2.5" points="145.6223,-87.8267 141.6385,-93.122 143.323,-89.8945 140.6724,-91.2997 140.3211,-90.637 139.9698,-89.9744 142.6204,-88.5692 139.0038,-88.1521 145.6223,-87.8267 145.6223,-87.8267"/>
<text text-anchor="middle" x="117" y="-109" font-family="Courier,monospace" font-weight="bold" font-size="10.00" fill="#000000">11</text>
</g>
<!-- i1_y -->
<g id="node5" class="node">
<title>i1_y</title>
<ellipse fill="#c0c0c0" stroke="#000000" cx="233.5" cy="-81" rx="14.5" ry="14.5"/>
<text text-anchor="middle" x="233.5" y="-78.5" font-family="Courier,monospace" font-weight="bold" font-size="10.00" fill="#000000">i1</text>
</g>
<!-- i0_y&#45;&#45;i1_y -->
<g id="edge4" class="edge">
<title>i0_y&#45;&#45;i1_y</title>
<path fill="none" stroke="#a020f0" stroke-width="2.5" d="M173.3176,-81C184.5871,-81 200.2344,-81 212.7492,-81"/>
<polygon fill="#a020f0" stroke="#a020f0" stroke-width="2.5" points="218.9684,-81 212.9684,-83.8126 215.9684,-81.75 212.9684,-81.7501 212.9684,-81.0001 212.9684,-80.2501 215.9684,-80.25 212.9684,-78.1876 218.9684,-81 218.9684,-81"/>
<text text-anchor="middle" x="196" y="-84" font-family="Courier,monospace" font-weight="bold" font-size="10.00" fill="#000000">4</text>
</g>
<!-- v1_y -->
<g id="node3" class="node">
<title>v1_y</title>
<ellipse fill="none" stroke="#000000" cx="75.5" cy="-78" rx="14.5" ry="14.5"/>
<text text-anchor="middle" x="75.5" y="-75.5" font-family="Courier,monospace" font-weight="bold" font-size="10.00" fill="#000000">v1</text>
</g>
<!-- v1_y&#45;&#45;i0_y -->
<g id="edge2" class="edge">
<title>v1_y&#45;&#45;i0_y</title>
<path fill="none" stroke="#000000" d="M90.3387,-78.5363C105.4463,-79.0824 128.7287,-79.9239 143.7897,-80.4683"/>
<text text-anchor="middle" x="117" y="-82" font-family="Courier,monospace" font-weight="bold" font-size="10.00" fill="#000000">2</text>
</g>
<!-- v2_y -->
<g id="node4" class="node">
<title>v2_y</title>
<ellipse fill="none" stroke="#000000" cx="75.5" cy="-31" rx="14.5" ry="14.5"/>
<text text-anchor="middle" x="75.5" y="-28.5" font-family="Courier,monospace" font-weight="bold" font-size="10.00" fill="#000000">v2</text>
</g>
<!-- v2_y&#45;&#45;i0_y -->
<g id="edge3" class="edge">
<title>v2_y&#45;&#45;i0_y</title>
<path fill="none" stroke="#000000" d="M88.1059,-38.5939C103.7969,-48.0463 130.4281,-64.0892 146.0474,-73.4984"/>
<text text-anchor="middle" x="117" y="-63" font-family="Courier,monospace" font-weight="bold" font-size="10.00" fill="#000000">10</text>
</g>
<!-- i2_y -->
<g id="node6" class="node">
<title>i2_y</title>
<ellipse fill="none" stroke="#000000" cx="308.5" cy="-56" rx="14.5" ry="14.5"/>
<text text-anchor="middle" x="308.5" y="-53.5" font-family="Courier,monospace" font-weight="bold" font-size="10.00" fill="#000000">i2</text>
</g>
<!-- i1_y&#45;&#45;i2_y -->
<g id="edge5" class="edge">
<title>i1_y&#45;&#45;i2_y</title>
<path fill="none" stroke="#a020f0" stroke-width="2.5" d="M247.2562,-76.4146C258.918,-72.5273 275.7841,-66.9053 288.8654,-62.5449"/>
<polygon fill="#a020f0" stroke="#a020f0" stroke-width="2.5" points="294.5771,-60.641 289.7744,-65.2066 291.9682,-62.3012 289.1221,-63.2499 288.885,-62.5384 288.6478,-61.8269 291.4938,-60.8782 287.9955,-59.8702 294.5771,-60.641 294.5771,-60.641"/>
<text text-anchor="middle" x="271" y="-72" font-family="Courier,monospace" font-weight="bold" font-size="10.00" fill="#000000">3</text>
</g>
<!-- v5_y -->
<g id="node9" class="node">
<title>v5_y</title>
<ellipse fill="none" stroke="#000000" cx="308.5" cy="-103" rx="14.5" ry="14.5"/>
<text text-anchor="middle" x="308.5" y="-100.5" font-family="Courier,monospace" font-weight="bold" font-size="10.00" fill="#000000">v5</text>
</g>
<!-- i1_y&#45;&#45;v5_y -->
<g id="edge8" class="edge">
<title>i1_y&#45;&#45;v5_y</title>
<path fill="none" stroke="#a020f0" stroke-width="2.5" stroke-dasharray="5,2" d="M247.6069,-85.138C261.0157,-89.0713 281.0685,-94.9534 294.4563,-98.8805"/>
<text text-anchor="middle" x="271" y="-96" font-family="Courier,monospace" font-weight="bold" font-size="10.00" fill="#000000">7</text>
</g>
<!-- v3_y -->
<g id="node7" class="node">
<title>v3_y</title>
<ellipse fill="none" stroke="#000000" cx="428.5" cy="-45" rx="14.5" ry="14.5"/>
<text text-anchor="middle" x="428.5" y="-42.5" font-family="Courier,monospace" font-weight="bold" font-size="10.00" fill="#000000">v3</text>
</g>
<!-- i2_y&#45;&#45;v3_y -->
<g id="edge6" class="edge">
<title>i2_y&#45;&#45;v3_y</title>
<path fill="none" stroke="#000000" d="M323.2144,-54.6512C346.3708,-52.5285 391.0425,-48.4336 414.0401,-46.3255"/>
<text text-anchor="middle" x="391" y="-51" font-family="Courier,monospace" font-weight="bold" font-size="10.00" fill="#000000">3</text>
</g>
<!-- v4_y -->
<g id="node8" class="node">
<title>v4_y</title>
<ellipse fill="none" stroke="#000000" cx="428.5" cy="-92" rx="14.5" ry="14.5"/>
<text text-anchor="middle" x="428.5" y="-89.5" font-family="Courier,monospace" font-weight="bold" font-size="10.00" fill="#000000">v4</text>
</g>
<!-- i2_y&#45;&#45;v4_y -->
<g id="edge7" class="edge">
<title>i2_y&#45;&#45;v4_y</title>
<path fill="none" stroke="#a020f0" stroke-width="2.5" d="M322.7368,-60.271C344.0276,-66.6583 384.246,-78.7238 408.4848,-85.9954"/>
<polygon fill="#a020f0" stroke="#a020f0" stroke-width="2.5" points="414.2817,-87.7345 407.7266,-88.7042 411.1927,-87.5908 408.3192,-86.7287 408.5348,-86.0104 408.7503,-85.292 411.6238,-86.1541 409.343,-83.3165 414.2817,-87.7345 414.2817,-87.7345"/>
<text text-anchor="middle" x="391" y="-84" font-family="Courier,monospace" font-weight="bold" font-size="10.00" fill="#000000">4</text>
</g>
<!-- v0_x -->
<g id="node10" class="node">
<title>v0_x</title>
<ellipse fill="none" stroke="#000000" cx="75.5" cy="-292" rx="14.5" ry="14.5"/>
<text text-anchor="middle" x="75.5" y="-289.5" font-family="Courier,monospace" font-weight="bold" font-size="10.00" fill="#000000">v0</text>
</g>
<!-- i0_x -->
<g id="node11" class="node">
<title>i0_x</title>
<ellipse fill="none" stroke="#000000" cx="158.5" cy="-248" rx="14.5" ry="14.5"/>
<text text-anchor="middle" x="158.5" y="-245.5" font-family="Courier,monospace" font-weight="bold" font-size="10.00" fill="#000000">i0</text>
</g>
<!-- v0_x&#45;&#45;i0_x -->
<g id="edge9" class="edge">
<title>v0_x&#45;&#45;i0_x</title>
<path fill="none" stroke="#a020f0" stroke-width="2.5" d="M88.4688,-285.125C102.3562,-277.763 124.5054,-266.0213 140.1713,-257.7164"/>
<polygon fill="#a020f0" stroke="#a020f0" stroke-width="2.5" points="145.6223,-254.8267 141.6385,-260.122 143.323,-256.8945 140.6724,-258.2997 140.3211,-257.637 139.9698,-256.9744 142.6204,-255.5692 139.0038,-255.1521 145.6223,-254.8267 145.6223,-254.8267"/>
<text text-anchor="middle" x="117" y="-276" font-family="Courier,monospace" font-weight="bold" font-size="10.00" fill="#000000">11</text>
</g>
<!-- i2_x -->
<g id="node14" class="node">
<title>i2_x</title>
<ellipse fill="none" stroke="#000000" cx="233.5" cy="-248" rx="14.5" ry="14.5"/>
<text text-anchor="middle" x="233.5" y="-245.5" font-family="Courier,monospace" font-weight="bold" font-size="10.00" fill="#000000">i2</text>
</g>
<!-- i0_x&#45;&#45;i2_x -->
<g id="edge12" class="edge">
<title>i0_x&#45;&#45;i2_x</title>
<path fill="none" stroke="#a020f0" stroke-width="2.5" d="M173.3176,-248C184.5871,-248 200.2344,-248 212.7492,-248"/>
<polygon fill="#a020f0" stroke="#a020f0" stroke-width="2.5" points="218.9684,-248 212.9684,-250.8126 215.9684,-248.75 212.9684,-248.7501 212.9684,-248.0001 212.9684,-247.2501 215.9684,-247.25 212.9684,-245.1876 218.9684,-248 218.9684,-248"/>
<text text-anchor="middle" x="196" y="-251" font-family="Courier,monospace" font-weight="bold" font-size="10.00" fill="#000000">7</text>
</g>
<!-- v1_x -->
<g id="node12" class="node">
<title>v1_x</title>
<ellipse fill="none" stroke="#000000" cx="75.5" cy="-245" rx="14.5" ry="14.5"/>
<text text-anchor="middle" x="75.5" y="-242.5" font-family="Courier,monospace" font-weight="bold" font-size="10.00" fill="#000000">v1</text>
</g>
<!-- v1_x&#45;&#45;i0_x -->
<g id="edge10" class="edge">
<title>v1_x&#45;&#45;i0_x</title>
<path fill="none" stroke="#000000" d="M90.3387,-245.5363C105.4463,-246.0824 128.7287,-246.9239 143.7897,-247.4683"/>
<text text-anchor="middle" x="117" y="-249" font-family="Courier,monospace" font-weight="bold" font-size="10.00" fill="#000000">2</text>
</g>
<!-- v2_x -->
<g id="node13" class="node">
<title>v2_x</title>
<ellipse fill="none" stroke="#000000" cx="75.5" cy="-198" rx="14.5" ry="14.5"/>
<text text-anchor="middle" x="75.5" y="-195.5" font-family="Courier,monospace" font-weight="bold" font-size="10.00" fill="#000000">v2</text>
</g>
<!-- v2_x&#45;&#45;i0_x -->
<g id="edge11" class="edge">
<title>v2_x&#45;&#45;i0_x</title>
<path fill="none" stroke="#000000" d="M88.1059,-205.5939C103.7969,-215.0463 130.4281,-231.0892 146.0474,-240.4984"/>
<text text-anchor="middle" x="117" y="-230" font-family="Courier,monospace" font-weight="bold" font-size="10.00" fill="#000000">10</text>
</g>
<!-- v3_x -->
<g id="node15" class="node">
<title>v3_x</title>
<ellipse fill="none" stroke="#000000" cx="308.5" cy="-223" rx="14.5" ry="14.5"/>
<text text-anchor="middle" x="308.5" y="-220.5" font-family="Courier,monospace" font-weight="bold" font-size="10.00" fill="#000000">v3</text>
</g>
<!-- i2_x&#45;&#45;v3_x -->
<g id="edge13" class="edge">
<title>i2_x&#45;&#45;v3_x</title>
<path fill="none" stroke="#000000" d="M247.2562,-243.4146C260.704,-238.932 281.0724,-232.1425 294.5771,-227.641"/>
<text text-anchor="middle" x="271" y="-239" font-family="Courier,monospace" font-weight="bold" font-size="10.00" fill="#000000">2</text>
</g>
<!-- v4_x -->
<g id="node16" class="node">
<title>v4_x</title>
<ellipse fill="none" stroke="#000000" cx="308.5" cy="-270" rx="14.5" ry="14.5"/>
<text text-anchor="middle" x="308.5" y="-267.5" font-family="Courier,monospace" font-weight="bold" font-size="10.00" fill="#000000">v4</text>
</g>
<!-- i2_x&#45;&#45;v4_x -->
<g id="edge14" class="edge">
<title>i2_x&#45;&#45;v4_x</title>
<path fill="none" stroke="#a020f0" stroke-width="2.5" d="M247.6069,-252.138C259.1301,-255.5182 275.56,-260.3376 288.4499,-264.1186"/>
<polygon fill="#a020f0" stroke="#a020f0" stroke-width="2.5" points="294.4563,-265.8805 287.9072,-266.8904 291.3665,-265.7557 288.4878,-264.9113 288.6989,-264.1916 288.91,-263.4719 291.7887,-264.3164 289.4906,-261.4928 294.4563,-265.8805 294.4563,-265.8805"/>
<text text-anchor="middle" x="271" y="-263" font-family="Courier,monospace" font-weight="bold" font-size="10.00" fill="#000000">4</text>
</g>
</g>
</svg>
