<?xml version="1.0" encoding="UTF-8" standalone="no"?>
<!DOCTYPE svg PUBLIC "-//W3C//DTD SVG 1.1//EN"
 "http://www.w3.org/Graphics/SVG/1.1/DTD/svg11.dtd">
<!-- Generated by graphviz version 2.40.1 (0)
 -->
<!-- Title: G Pages: 1 -->
<svg width="334pt" height="311pt"
 viewBox="0.00 0.00 334.00 311.00" xmlns="http://www.w3.org/2000/svg" xmlns:xlink="http://www.w3.org/1999/xlink">
<g id="graph0" class="graph" transform="scale(1 1) rotate(0) translate(4 307)">
<title>G</title>
<polygon fill="#ffffff" stroke="transparent" points="-4,4 -4,-307 330,-307 330,4 -4,4"/>
<!-- _C_t_ -->
<g id="node1" class="node">
<title>_C_t_</title>
<text text-anchor="middle" x="307" y="-147.8" font-family="Times,serif" font-size="14.00" fill="#000000">_C_t_</text>
</g>
<!-- _C_h_ -->
<g id="node2" class="node">
<title>_C_h_</title>
<text text-anchor="middle" x="264.8234" y="-45.9766" font-family="Times,serif" font-size="14.00" fill="#000000">_C_h_</text>
</g>
<!-- _C_t_&#45;&#45;_C_h_ -->
<g id="edge1" class="edge">
<title>_C_t_&#45;&#45;_C_h_</title>
<path fill="none" stroke="#000000" stroke-dasharray="5,2" d="M299.9964,-134.5918C290.7391,-112.2428 274.8111,-73.7892 268.0303,-57.4187"/>
<polygon fill="#000000" stroke="#000000" points="296.7694,-135.9473 303.8299,-143.8467 303.2366,-133.2685 296.7694,-135.9473"/>
</g>
<!-- _D_h_ -->
<g id="node8" class="node">
<title>_D_h_</title>
<text text-anchor="middle" x="264.8234" y="-249.6234" font-family="Times,serif" font-size="14.00" fill="#000000">_D_h_</text>
</g>
<!-- _C_t_&#45;&#45;_D_h_ -->
<g id="edge5" class="edge">
<title>_C_t_&#45;&#45;_D_h_</title>
<path fill="none" stroke="#0000ff" d="M303.8299,-159.1533C296.0136,-178.0235 275.885,-226.6182 268.0303,-245.5813"/>
</g>
<!-- _B_t_ -->
<g id="node3" class="node">
<title>_B_t_</title>
<text text-anchor="middle" x="163" y="-3.8" font-family="Times,serif" font-size="14.00" fill="#000000">_B_t_</text>
</g>
<!-- _B_t_&#45;&#45;_C_h_ -->
<g id="edge6" class="edge">
<title>_B_t_&#45;&#45;_C_h_</title>
<path fill="none" stroke="#0000ff" d="M181.204,-15.0403C199.6234,-22.6699 227.948,-34.4024 246.4337,-42.0594"/>
</g>
<!-- _B_h_ -->
<g id="node4" class="node">
<title>_B_h_</title>
<text text-anchor="middle" x="61.1766" y="-45.9766" font-family="Times,serif" font-size="14.00" fill="#000000">_B_h_</text>
</g>
<!-- _B_t_&#45;&#45;_B_h_ -->
<g id="edge2" class="edge">
<title>_B_t_&#45;&#45;_B_h_</title>
<path fill="none" stroke="#000000" stroke-dasharray="5,2" d="M135.5118,-18.886C117.7654,-26.2368 95.1636,-35.5988 79.5663,-42.0594"/>
<polygon fill="#000000" stroke="#000000" points="136.8966,-22.1008 144.796,-15.0403 134.2178,-15.6337 136.8966,-22.1008"/>
</g>
<!-- _B_t_&#45;&#45;_D_h_ -->
<g id="edge12" class="edge">
<title>_B_t_&#45;&#45;_D_h_</title>
<path fill="none" stroke="#ff0000" d="M166.159,-15.1266C181.3317,-51.7565 246.61,-209.3523 261.7012,-245.7857"/>
</g>
<!-- _B_h_&#45;&#45;_C_h_ -->
<g id="edge10" class="edge">
<title>_B_h_&#45;&#45;_C_h_</title>
<path fill="none" stroke="#ff0000" d="M80.3352,-49.6766C119.1486,-49.6766 206.6726,-49.6766 245.5673,-49.6766"/>
</g>
<!-- _A_t_ -->
<g id="node5" class="node">
<title>_A_t_</title>
<text text-anchor="middle" x="19" y="-147.8" font-family="Times,serif" font-size="14.00" fill="#000000">_A_t_</text>
</g>
<!-- _A_t_&#45;&#45;_C_t_ -->
<g id="edge11" class="edge">
<title>_A_t_&#45;&#45;_C_t_</title>
<path fill="none" stroke="#ff0000" d="M38.3437,-151.5C90.8094,-151.5 235.3735,-151.5 287.7405,-151.5"/>
</g>
<!-- _A_t_&#45;&#45;_B_h_ -->
<g id="edge7" class="edge">
<title>_A_t_&#45;&#45;_B_h_</title>
<path fill="none" stroke="#0000ff" d="M22.1701,-143.8467C29.9864,-124.9765 50.115,-76.3818 57.9697,-57.4187"/>
</g>
<!-- _A_h_ -->
<g id="node6" class="node">
<title>_A_h_</title>
<text text-anchor="middle" x="61.1766" y="-249.6234" font-family="Times,serif" font-size="14.00" fill="#000000">_A_h_</text>
</g>
<!-- _A_t_&#45;&#45;_A_h_ -->
<g id="edge3" class="edge">
<title>_A_t_&#45;&#45;_A_h_</title>
<path fill="none" stroke="#000000" stroke-dasharray="5,2" d="M26.0036,-168.4082C35.2609,-190.7572 51.1889,-229.2108 57.9697,-245.5813"/>
<polygon fill="#000000" stroke="#000000" points="29.2306,-167.0527 22.1701,-159.1533 22.7634,-169.7315 29.2306,-167.0527"/>
</g>
<!-- TERM -->
<g id="node9" class="node">
<title>TERM</title>
<text text-anchor="middle" x="155.8" y="-183.8" font-family="Times,serif" font-size="14.00" fill="#000000">TERM</text>
</g>
<!-- _A_h_&#45;&#45;TERM -->
<g id="edge8" class="edge">
<title>_A_h_&#45;&#45;TERM</title>
<path fill="none" stroke="#0000ff" d="M80.2074,-246.44C102.7111,-233.7992 138.5067,-208.2647 151.2812,-195.0973"/>
</g>
<!-- _A_h_&#45;&#45;TERM -->
<g id="edge13" class="edge">
<title>_A_h_&#45;&#45;TERM</title>
<path fill="none" stroke="#ff0000" d="M65.6066,-245.8178C78.9355,-232.0232 117.8477,-204.4702 140.0355,-192.5898"/>
</g>
<!-- _D_t_ -->
<g id="node7" class="node">
<title>_D_t_</title>
<text text-anchor="middle" x="163" y="-291.8" font-family="Times,serif" font-size="14.00" fill="#000000">_D_t_</text>
</g>
<!-- _D_t_&#45;&#45;_D_h_ -->
<g id="edge4" class="edge">
<title>_D_t_&#45;&#45;_D_h_</title>
<path fill="none" stroke="#000000" stroke-dasharray="5,2" d="M190.4882,-284.114C208.2346,-276.7632 230.8364,-267.4012 246.4337,-260.9406"/>
<polygon fill="#000000" stroke="#000000" points="189.1034,-280.8992 181.204,-287.9597 191.7822,-287.3663 189.1034,-280.8992"/>
</g>
<!-- _D_t_&#45;&#45;TERM -->
<g id="edge9" class="edge">
<title>_D_t_&#45;&#45;TERM</title>
<path fill="none" stroke="#0000ff" d="M166.1287,-287.8351C168.9447,-267.9256 165.4241,-214.7632 160.0118,-195.0181"/>
</g>
<!-- _D_t_&#45;&#45;TERM -->
<g id="edge14" class="edge">
<title>_D_t_&#45;&#45;TERM</title>
<path fill="none" stroke="#ff0000" d="M158.7875,-287.9792C153.3743,-268.2276 149.8539,-215.0495 152.6732,-195.1514"/>
</g>
</g>
</svg>
