<?xml version="1.0" encoding="UTF-8" standalone="no"?>
<!DOCTYPE svg PUBLIC "-//W3C//DTD SVG 1.1//EN"
 "http://www.w3.org/Graphics/SVG/1.1/DTD/svg11.dtd">
<!-- Generated by graphviz version 2.40.1 (0)
 -->
<!-- Title: G Pages: 1 -->
<svg width="1841pt" height="660pt"
 viewBox="0.00 0.00 1840.71 659.54" xmlns="http://www.w3.org/2000/svg" xmlns:xlink="http://www.w3.org/1999/xlink">
<g id="graph0" class="graph" transform="scale(1 1) rotate(0) translate(4 655.5411)">
<title>G</title>
<polygon fill="#ffffff" stroke="transparent" points="-4,4 -4,-655.5411 1836.708,-655.5411 1836.708,4 -4,4"/>
<!-- STATE_A -->
<g id="node1" class="node">
<title>STATE_A</title>
<polygon fill="none" stroke="#000000" points="323.9168,-377.5904 325.6928,-377.6889 327.4505,-377.8364 329.1827,-378.0324 330.8823,-378.2764 332.5425,-378.5677 334.1568,-378.9055 335.7188,-379.2889 337.2228,-379.7169 338.663,-380.1883 340.0343,-380.7017 341.3319,-381.2558 342.5514,-381.8491 343.6891,-382.4798 344.7416,-383.1464 345.7059,-383.847 346.5797,-384.5796 347.3611,-385.3422 348.0488,-386.1329 348.6418,-386.9493 349.1397,-387.7892 349.5428,-388.6504 349.8514,-389.5305 350.0667,-390.427 350.19,-391.3376 350.2232,-392.2597 350.1684,-393.1908 350.0282,-394.1283 349.8053,-395.0697 349.5029,-396.0124 349.1242,-396.9538 348.6728,-397.8913 348.1524,-398.8224 347.5666,-399.7445 346.9195,-400.6551 346.2149,-401.5516 345.4568,-402.4317 344.649,-403.2929 343.7955,-404.1329 342.9001,-404.9493 341.9665,-405.7399 340.9982,-406.5025 339.9986,-407.2351 338.9711,-407.9357 337.9186,-408.6023 336.8441,-409.2331 335.7503,-409.8263 334.6396,-410.3804 333.5143,-410.8938 332.3765,-411.3652 331.2281,-411.7932 330.0708,-412.1766 328.906,-412.5144 327.7351,-412.8057 326.5593,-413.0497 325.3797,-413.2457 324.1972,-413.3932 323.0128,-413.4917 321.8272,-413.5411 320.6412,-413.5411 319.4556,-413.4917 318.2712,-413.3932 317.0887,-413.2457 315.9091,-413.0497 314.7334,-412.8057 313.5625,-412.5144 312.3977,-412.1766 311.2403,-411.7932 310.0919,-411.3652 308.9541,-410.8938 307.8288,-410.3804 306.7182,-409.8263 305.6243,-409.2331 304.5498,-408.6023 303.4974,-407.9357 302.4698,-407.2351 301.4703,-406.5025 300.502,-405.7399 299.5683,-404.9493 298.6729,-404.1329 297.8194,-403.2929 297.0117,-402.4317 296.2535,-401.5516 295.5489,-400.6551 294.9018,-399.7445 294.3161,-398.8224 293.7956,-397.8913 293.3442,-396.9538 292.9656,-396.0124 292.6631,-395.0697 292.4403,-394.1283 292.3,-393.1908 292.2453,-392.2597 292.2784,-391.3376 292.4018,-390.427 292.617,-389.5305 292.9257,-388.6504 293.3287,-387.7892 293.8267,-386.9493 294.4197,-386.1329 295.1073,-385.3422 295.8887,-384.5796 296.7625,-383.847 297.7268,-383.1464 298.7793,-382.4798 299.917,-381.8491 301.1366,-381.2558 302.4342,-380.7017 303.8055,-380.1883 305.2457,-379.7169 306.7496,-379.2889 308.3117,-378.9055 309.926,-378.5677 311.5862,-378.2764 313.2858,-378.0324 315.0179,-377.8364 316.7756,-377.6889 318.5517,-377.5904 320.3388,-377.5411 322.1296,-377.5411 323.9168,-377.5904"/>
<text text-anchor="middle" x="321.2342" y="-393.0411" font-family="Courier,monospace" font-weight="bold" font-size="10.00" fill="#000000">A</text>
</g>
<!-- STATE_B -->
<g id="node2" class="node">
<title>STATE_B</title>
<polygon fill="none" stroke="#000000" points="603.1602,-192.5904 604.9363,-192.6889 606.694,-192.8364 608.4261,-193.0324 610.1257,-193.2764 611.7859,-193.5677 613.4002,-193.9055 614.9623,-194.2889 616.4662,-194.7169 617.9064,-195.1883 619.2777,-195.7017 620.5753,-196.2558 621.7949,-196.8491 622.9326,-197.4798 623.9851,-198.1464 624.9494,-198.847 625.8232,-199.5796 626.6046,-200.3422 627.2922,-201.1329 627.8852,-201.9493 628.3832,-202.7892 628.7862,-203.6504 629.0949,-204.5305 629.3101,-205.427 629.4334,-206.3376 629.4666,-207.2597 629.4118,-208.1908 629.2716,-209.1283 629.0487,-210.0697 628.7463,-211.0124 628.3677,-211.9538 627.9163,-212.8913 627.3958,-213.8224 626.8101,-214.7445 626.1629,-215.6551 625.4583,-216.5516 624.7002,-217.4317 623.8925,-218.2929 623.039,-219.1329 622.1436,-219.9493 621.2099,-220.7399 620.2416,-221.5025 619.242,-222.2351 618.2145,-222.9357 617.162,-223.6023 616.0876,-224.2331 614.9937,-224.8263 613.883,-225.3804 612.7578,-225.8938 611.62,-226.3652 610.4716,-226.7932 609.3142,-227.1766 608.1494,-227.5144 606.9785,-227.8057 605.8027,-228.0497 604.6231,-228.2457 603.4407,-228.3932 602.2562,-228.4917 601.0707,-228.5411 599.8847,-228.5411 598.6991,-228.4917 597.5146,-228.3932 596.3322,-228.2457 595.1526,-228.0497 593.9768,-227.8057 592.8059,-227.5144 591.6411,-227.1766 590.4838,-226.7932 589.3353,-226.3652 588.1976,-225.8938 587.0723,-225.3804 585.9616,-224.8263 584.8678,-224.2331 583.7933,-223.6023 582.7408,-222.9357 581.7133,-222.2351 580.7137,-221.5025 579.7454,-220.7399 578.8118,-219.9493 577.9164,-219.1329 577.0629,-218.2929 576.2551,-217.4317 575.497,-216.5516 574.7924,-215.6551 574.1452,-214.7445 573.5595,-213.8224 573.0391,-212.8913 572.5877,-211.9538 572.209,-211.0124 571.9066,-210.0697 571.6837,-209.1283 571.5435,-208.1908 571.4887,-207.2597 571.5219,-206.3376 571.6452,-205.427 571.8605,-204.5305 572.1691,-203.6504 572.5722,-202.7892 573.0701,-201.9493 573.6631,-201.1329 574.3507,-200.3422 575.1321,-199.5796 576.006,-198.847 576.9703,-198.1464 578.0227,-197.4798 579.1604,-196.8491 580.38,-196.2558 581.6776,-195.7017 583.0489,-195.1883 584.4891,-194.7169 585.993,-194.2889 587.5551,-193.9055 589.1694,-193.5677 590.8296,-193.2764 592.5292,-193.0324 594.2614,-192.8364 596.0191,-192.6889 597.7951,-192.5904 599.5823,-192.5411 601.3731,-192.5411 603.1602,-192.5904"/>
<text text-anchor="middle" x="600.4777" y="-208.0411" font-family="Courier,monospace" font-weight="bold" font-size="10.00" fill="#000000">B</text>
</g>
<!-- STATE_A&#45;&gt;STATE_B -->
<g id="edge1" class="edge">
<title>STATE_A&#45;&gt;STATE_B</title>
<path fill="none" stroke="#000000" d="M340.9284,-381.0009C358.9227,-367.8257 386.3596,-348.011 410.7342,-331.5411 467.4364,-293.2274 535.3724,-250.6981 572.6256,-227.6579"/>
<polygon fill="#000000" stroke="#000000" points="574.7397,-230.466 581.4101,-222.2345 571.0624,-224.5096 574.7397,-230.466"/>
<text text-anchor="middle" x="482.2342" y="-334.5411" font-family="Courier,monospace" font-weight="bold" font-size="10.00" fill="#000000">0.36278885247961074</text>
</g>
<!-- STATE_E -->
<g id="node5" class="node">
<title>STATE_E</title>
<polygon fill="none" stroke="#000000" points="1527.4036,-499.5904 1529.1797,-499.6889 1530.9374,-499.8364 1532.6696,-500.0324 1534.3691,-500.2764 1536.0294,-500.5677 1537.6436,-500.9055 1539.2057,-501.2889 1540.7097,-501.7169 1542.1499,-502.1883 1543.5211,-502.7017 1544.8187,-503.2558 1546.0383,-503.8491 1547.176,-504.4798 1548.2285,-505.1464 1549.1928,-505.847 1550.0666,-506.5796 1550.848,-507.3422 1551.5357,-508.1329 1552.1287,-508.9493 1552.6266,-509.7892 1553.0296,-510.6504 1553.3383,-511.5305 1553.5536,-512.427 1553.6769,-513.3376 1553.7101,-514.2597 1553.6553,-515.1908 1553.5151,-516.1283 1553.2922,-517.0697 1552.9898,-518.0124 1552.6111,-518.9538 1552.1597,-519.8913 1551.6393,-520.8224 1551.0535,-521.7445 1550.4064,-522.6551 1549.7018,-523.5516 1548.9436,-524.4317 1548.1359,-525.2929 1547.2824,-526.1329 1546.387,-526.9493 1545.4534,-527.7399 1544.485,-528.5025 1543.4855,-529.2351 1542.4579,-529.9357 1541.4055,-530.6023 1540.331,-531.2331 1539.2372,-531.8263 1538.1265,-532.3804 1537.0012,-532.8938 1535.8634,-533.3652 1534.715,-533.7932 1533.5577,-534.1766 1532.3929,-534.5144 1531.222,-534.8057 1530.0462,-535.0497 1528.8666,-535.2457 1527.6841,-535.3932 1526.4997,-535.4917 1525.3141,-535.5411 1524.1281,-535.5411 1522.9425,-535.4917 1521.7581,-535.3932 1520.5756,-535.2457 1519.396,-535.0497 1518.2203,-534.8057 1517.0494,-534.5144 1515.8846,-534.1766 1514.7272,-533.7932 1513.5788,-533.3652 1512.441,-532.8938 1511.3157,-532.3804 1510.205,-531.8263 1509.1112,-531.2331 1508.0367,-530.6023 1506.9843,-529.9357 1505.9567,-529.2351 1504.9572,-528.5025 1503.9889,-527.7399 1503.0552,-526.9493 1502.1598,-526.1329 1501.3063,-525.2929 1500.4986,-524.4317 1499.7404,-523.5516 1499.0358,-522.6551 1498.3887,-521.7445 1497.803,-520.8224 1497.2825,-519.8913 1496.8311,-518.9538 1496.4524,-518.0124 1496.15,-517.0697 1495.9272,-516.1283 1495.7869,-515.1908 1495.7321,-514.2597 1495.7653,-513.3376 1495.8886,-512.427 1496.1039,-511.5305 1496.4126,-510.6504 1496.8156,-509.7892 1497.3136,-508.9493 1497.9066,-508.1329 1498.5942,-507.3422 1499.3756,-506.5796 1500.2494,-505.847 1501.2137,-505.1464 1502.2662,-504.4798 1503.4039,-503.8491 1504.6235,-503.2558 1505.9211,-502.7017 1507.2923,-502.1883 1508.7326,-501.7169 1510.2365,-501.2889 1511.7986,-500.9055 1513.4129,-500.5677 1515.0731,-500.2764 1516.7727,-500.0324 1518.5048,-499.8364 1520.2625,-499.6889 1522.0386,-499.5904 1523.8257,-499.5411 1525.6165,-499.5411 1527.4036,-499.5904"/>
<text text-anchor="middle" x="1524.7211" y="-515.0411" font-family="Courier,monospace" font-weight="bold" font-size="10.00" fill="#000000">E</text>
</g>
<!-- STATE_A&#45;&gt;STATE_E -->
<g id="edge2" class="edge">
<title>STATE_A&#45;&gt;STATE_E</title>
<path fill="none" stroke="#000000" d="M338.7999,-408.3261C356.1968,-420.3464 384.0304,-437.893 410.7342,-447.5411 491.1667,-476.6014 514.9564,-479.5411 600.4777,-479.5411 600.4777,-479.5411 600.4777,-479.5411 1037.7211,-479.5411 1214.7095,-479.5411 1259.2589,-484.51 1435.2211,-503.5411 1451.8954,-505.3445 1470.2084,-508.0748 1485.9015,-510.6468"/>
<polygon fill="#000000" stroke="#000000" points="1485.3515,-514.1033 1495.7922,-512.3028 1486.5075,-507.1994 1485.3515,-514.1033"/>
<text text-anchor="middle" x="876.2211" y="-482.5411" font-family="Courier,monospace" font-weight="bold" font-size="10.00" fill="#000000">0.2234137785340938</text>
</g>
<!-- STATE_F -->
<g id="node6" class="node">
<title>STATE_F</title>
<polygon fill="none" stroke="#000000" points="1205.4036,-361.5904 1207.1797,-361.6889 1208.9374,-361.8364 1210.6696,-362.0324 1212.3691,-362.2764 1214.0294,-362.5677 1215.6436,-362.9055 1217.2057,-363.2889 1218.7097,-363.7169 1220.1499,-364.1883 1221.5211,-364.7017 1222.8187,-365.2558 1224.0383,-365.8491 1225.176,-366.4798 1226.2285,-367.1464 1227.1928,-367.847 1228.0666,-368.5796 1228.848,-369.3422 1229.5357,-370.1329 1230.1287,-370.9493 1230.6266,-371.7892 1231.0296,-372.6504 1231.3383,-373.5305 1231.5536,-374.427 1231.6769,-375.3376 1231.7101,-376.2597 1231.6553,-377.1908 1231.5151,-378.1283 1231.2922,-379.0697 1230.9898,-380.0124 1230.6111,-380.9538 1230.1597,-381.8913 1229.6393,-382.8224 1229.0535,-383.7445 1228.4064,-384.6551 1227.7018,-385.5516 1226.9436,-386.4317 1226.1359,-387.2929 1225.2824,-388.1329 1224.387,-388.9493 1223.4534,-389.7399 1222.485,-390.5025 1221.4855,-391.2351 1220.4579,-391.9357 1219.4055,-392.6023 1218.331,-393.2331 1217.2372,-393.8263 1216.1265,-394.3804 1215.0012,-394.8938 1213.8634,-395.3652 1212.715,-395.7932 1211.5577,-396.1766 1210.3929,-396.5144 1209.222,-396.8057 1208.0462,-397.0497 1206.8666,-397.2457 1205.6841,-397.3932 1204.4997,-397.4917 1203.3141,-397.5411 1202.1281,-397.5411 1200.9425,-397.4917 1199.7581,-397.3932 1198.5756,-397.2457 1197.396,-397.0497 1196.2203,-396.8057 1195.0494,-396.5144 1193.8846,-396.1766 1192.7272,-395.7932 1191.5788,-395.3652 1190.441,-394.8938 1189.3157,-394.3804 1188.205,-393.8263 1187.1112,-393.2331 1186.0367,-392.6023 1184.9843,-391.9357 1183.9567,-391.2351 1182.9572,-390.5025 1181.9889,-389.7399 1181.0552,-388.9493 1180.1598,-388.1329 1179.3063,-387.2929 1178.4986,-386.4317 1177.7404,-385.5516 1177.0358,-384.6551 1176.3887,-383.7445 1175.803,-382.8224 1175.2825,-381.8913 1174.8311,-380.9538 1174.4524,-380.0124 1174.15,-379.0697 1173.9272,-378.1283 1173.7869,-377.1908 1173.7321,-376.2597 1173.7653,-375.3376 1173.8886,-374.427 1174.1039,-373.5305 1174.4126,-372.6504 1174.8156,-371.7892 1175.3136,-370.9493 1175.9066,-370.1329 1176.5942,-369.3422 1177.3756,-368.5796 1178.2494,-367.847 1179.2137,-367.1464 1180.2662,-366.4798 1181.4039,-365.8491 1182.6235,-365.2558 1183.9211,-364.7017 1185.2923,-364.1883 1186.7326,-363.7169 1188.2365,-363.2889 1189.7986,-362.9055 1191.4129,-362.5677 1193.0731,-362.2764 1194.7727,-362.0324 1196.5048,-361.8364 1198.2625,-361.6889 1200.0386,-361.5904 1201.8257,-361.5411 1203.6165,-361.5411 1205.4036,-361.5904"/>
<text text-anchor="middle" x="1202.7211" y="-377.0411" font-family="Courier,monospace" font-weight="bold" font-size="10.00" fill="#000000">F</text>
</g>
<!-- STATE_A&#45;&gt;STATE_F -->
<g id="edge3" class="edge">
<title>STATE_A&#45;&gt;STATE_F</title>
<path fill="none" stroke="#000000" d="M350.0617,-395.0178C480.4544,-392.651 1015.1594,-382.9455 1164.0696,-380.2426"/>
<polygon fill="#000000" stroke="#000000" points="1164.1788,-383.7413 1174.1136,-380.0603 1164.0517,-376.7425 1164.1788,-383.7413"/>
<text text-anchor="middle" x="718.7211" y="-392.5411" font-family="Courier,monospace" font-weight="bold" font-size="10.00" fill="#000000">0.41379736898629543</text>
</g>
<!-- SYMBOL_x -->
<g id="node8" class="node">
<title>SYMBOL_x</title>
<polygon fill="none" stroke="#000000" stroke-dasharray="5,2" points="1806.6471,-283.5904 1808.4231,-283.6889 1810.1808,-283.8364 1811.913,-284.0324 1813.6126,-284.2764 1815.2728,-284.5677 1816.8871,-284.9055 1818.4492,-285.2889 1819.9531,-285.7169 1821.3933,-286.1883 1822.7646,-286.7017 1824.0622,-287.2558 1825.2818,-287.8491 1826.4195,-288.4798 1827.4719,-289.1464 1828.4363,-289.847 1829.3101,-290.5796 1830.0915,-291.3422 1830.7791,-292.1329 1831.3721,-292.9493 1831.8701,-293.7892 1832.2731,-294.6504 1832.5817,-295.5305 1832.797,-296.427 1832.9203,-297.3376 1832.9535,-298.2597 1832.8987,-299.1908 1832.7585,-300.1283 1832.5356,-301.0697 1832.2332,-302.0124 1831.8545,-302.9538 1831.4032,-303.8913 1830.8827,-304.8224 1830.297,-305.7445 1829.6498,-306.6551 1828.9452,-307.5516 1828.1871,-308.4317 1827.3793,-309.2929 1826.5259,-310.1329 1825.6305,-310.9493 1824.6968,-311.7399 1823.7285,-312.5025 1822.7289,-313.2351 1821.7014,-313.9357 1820.6489,-314.6023 1819.5744,-315.2331 1818.4806,-315.8263 1817.3699,-316.3804 1816.2447,-316.8938 1815.1069,-317.3652 1813.9585,-317.7932 1812.8011,-318.1766 1811.6363,-318.5144 1810.4654,-318.8057 1809.2896,-319.0497 1808.11,-319.2457 1806.9276,-319.3932 1805.7431,-319.4917 1804.5575,-319.5411 1803.3716,-319.5411 1802.186,-319.4917 1801.0015,-319.3932 1799.8191,-319.2457 1798.6395,-319.0497 1797.4637,-318.8057 1796.2928,-318.5144 1795.128,-318.1766 1793.9706,-317.7932 1792.8222,-317.3652 1791.6844,-316.8938 1790.5592,-316.3804 1789.4485,-315.8263 1788.3547,-315.2331 1787.2802,-314.6023 1786.2277,-313.9357 1785.2002,-313.2351 1784.2006,-312.5025 1783.2323,-311.7399 1782.2986,-310.9493 1781.4032,-310.1329 1780.5498,-309.2929 1779.742,-308.4317 1778.9839,-307.5516 1778.2793,-306.6551 1777.6321,-305.7445 1777.0464,-304.8224 1776.5259,-303.8913 1776.0746,-302.9538 1775.6959,-302.0124 1775.3935,-301.0697 1775.1706,-300.1283 1775.0304,-299.1908 1774.9756,-298.2597 1775.0088,-297.3376 1775.1321,-296.427 1775.3474,-295.5305 1775.656,-294.6504 1776.059,-293.7892 1776.557,-292.9493 1777.15,-292.1329 1777.8376,-291.3422 1778.619,-290.5796 1779.4928,-289.847 1780.4572,-289.1464 1781.5096,-288.4798 1782.6473,-287.8491 1783.8669,-287.2558 1785.1645,-286.7017 1786.5358,-286.1883 1787.976,-285.7169 1789.4799,-285.2889 1791.042,-284.9055 1792.6563,-284.5677 1794.3165,-284.2764 1796.0161,-284.0324 1797.7483,-283.8364 1799.506,-283.6889 1801.282,-283.5904 1803.0691,-283.5411 1804.86,-283.5411 1806.6471,-283.5904"/>
<text text-anchor="middle" x="1803.9645" y="-299.0411" font-family="Courier,monospace" font-weight="bold" font-size="10.00" fill="#000000">x</text>
</g>
<!-- STATE_A&#45;&gt;SYMBOL_x -->
<g id="edge14" class="edge">
<title>STATE_A&#45;&gt;SYMBOL_x</title>
<path fill="none" stroke="#000000" stroke-dasharray="5,2" d="M347.786,-399.6685C365.552,-402.2168 389.4831,-405.24 410.7342,-406.5411 937.0114,-438.7609 1076.0795,-447.9035 1596.2211,-361.5411 1668.1069,-349.6054 1689.3553,-357.079 1757.2211,-330.5411 1764.3143,-327.7674 1771.5244,-323.9075 1778.0902,-319.9073"/>
<polygon fill="#000000" stroke="#000000" points="1780.0535,-322.806 1786.5727,-314.4544 1776.2682,-316.9177 1780.0535,-322.806"/>
<text text-anchor="middle" x="1037.7211" y="-431.5411" font-family="Courier,monospace" font-weight="bold" font-size="10.00" fill="#000000">0.060975888971246346</text>
</g>
<!-- SYMBOL_z -->
<g id="node9" class="node">
<title>SYMBOL_z</title>
<polygon fill="none" stroke="#000000" stroke-dasharray="5,2" points="1806.6471,-103.5904 1808.4231,-103.6889 1810.1808,-103.8364 1811.913,-104.0324 1813.6126,-104.2764 1815.2728,-104.5677 1816.8871,-104.9055 1818.4492,-105.2889 1819.9531,-105.7169 1821.3933,-106.1883 1822.7646,-106.7017 1824.0622,-107.2558 1825.2818,-107.8491 1826.4195,-108.4798 1827.4719,-109.1464 1828.4363,-109.847 1829.3101,-110.5796 1830.0915,-111.3422 1830.7791,-112.1329 1831.3721,-112.9493 1831.8701,-113.7892 1832.2731,-114.6504 1832.5817,-115.5305 1832.797,-116.427 1832.9203,-117.3376 1832.9535,-118.2597 1832.8987,-119.1908 1832.7585,-120.1283 1832.5356,-121.0697 1832.2332,-122.0124 1831.8545,-122.9538 1831.4032,-123.8913 1830.8827,-124.8224 1830.297,-125.7445 1829.6498,-126.6551 1828.9452,-127.5516 1828.1871,-128.4317 1827.3793,-129.2929 1826.5259,-130.1329 1825.6305,-130.9493 1824.6968,-131.7399 1823.7285,-132.5025 1822.7289,-133.2351 1821.7014,-133.9357 1820.6489,-134.6023 1819.5744,-135.2331 1818.4806,-135.8263 1817.3699,-136.3804 1816.2447,-136.8938 1815.1069,-137.3652 1813.9585,-137.7932 1812.8011,-138.1766 1811.6363,-138.5144 1810.4654,-138.8057 1809.2896,-139.0497 1808.11,-139.2457 1806.9276,-139.3932 1805.7431,-139.4917 1804.5575,-139.5411 1803.3716,-139.5411 1802.186,-139.4917 1801.0015,-139.3932 1799.8191,-139.2457 1798.6395,-139.0497 1797.4637,-138.8057 1796.2928,-138.5144 1795.128,-138.1766 1793.9706,-137.7932 1792.8222,-137.3652 1791.6844,-136.8938 1790.5592,-136.3804 1789.4485,-135.8263 1788.3547,-135.2331 1787.2802,-134.6023 1786.2277,-133.9357 1785.2002,-133.2351 1784.2006,-132.5025 1783.2323,-131.7399 1782.2986,-130.9493 1781.4032,-130.1329 1780.5498,-129.2929 1779.742,-128.4317 1778.9839,-127.5516 1778.2793,-126.6551 1777.6321,-125.7445 1777.0464,-124.8224 1776.5259,-123.8913 1776.0746,-122.9538 1775.6959,-122.0124 1775.3935,-121.0697 1775.1706,-120.1283 1775.0304,-119.1908 1774.9756,-118.2597 1775.0088,-117.3376 1775.1321,-116.427 1775.3474,-115.5305 1775.656,-114.6504 1776.059,-113.7892 1776.557,-112.9493 1777.15,-112.1329 1777.8376,-111.3422 1778.619,-110.5796 1779.4928,-109.847 1780.4572,-109.1464 1781.5096,-108.4798 1782.6473,-107.8491 1783.8669,-107.2558 1785.1645,-106.7017 1786.5358,-106.1883 1787.976,-105.7169 1789.4799,-105.2889 1791.042,-104.9055 1792.6563,-104.5677 1794.3165,-104.2764 1796.0161,-104.0324 1797.7483,-103.8364 1799.506,-103.6889 1801.282,-103.5904 1803.0691,-103.5411 1804.86,-103.5411 1806.6471,-103.5904"/>
<text text-anchor="middle" x="1803.9645" y="-119.0411" font-family="Courier,monospace" font-weight="bold" font-size="10.00" fill="#000000">z</text>
</g>
<!-- STATE_A&#45;&gt;SYMBOL_z -->
<g id="edge15" class="edge">
<title>STATE_A&#45;&gt;SYMBOL_z</title>
<path fill="none" stroke="#000000" stroke-dasharray="5,2" d="M327.7504,-377.8165C340.0671,-346.1407 369.2957,-278.9803 410.7342,-234.5411 496.2728,-142.8082 528.8971,-122.1486 647.2211,-80.5411 1045.3144,59.4447 1175.3004,-20.5401 1596.2211,-50.5411 1668.0909,-55.6635 1693.2457,-36.3951 1757.2211,-69.5411 1769.0941,-75.6925 1779.4041,-86.1782 1787.2978,-96.1291"/>
<polygon fill="#000000" stroke="#000000" points="1784.5653,-98.3198 1793.3415,-104.2551 1790.1821,-94.1423 1784.5653,-98.3198"/>
<text text-anchor="middle" x="1037.7211" y="-8.5411" font-family="Courier,monospace" font-weight="bold" font-size="10.00" fill="#000000">0.8163256324737809</text>
</g>
<!-- SYMBOL_y -->
<g id="node10" class="node">
<title>SYMBOL_y</title>
<polygon fill="none" stroke="#000000" stroke-dasharray="5,2" points="1806.6471,-532.5904 1808.4231,-532.6889 1810.1808,-532.8364 1811.913,-533.0324 1813.6126,-533.2764 1815.2728,-533.5677 1816.8871,-533.9055 1818.4492,-534.2889 1819.9531,-534.7169 1821.3933,-535.1883 1822.7646,-535.7017 1824.0622,-536.2558 1825.2818,-536.8491 1826.4195,-537.4798 1827.4719,-538.1464 1828.4363,-538.847 1829.3101,-539.5796 1830.0915,-540.3422 1830.7791,-541.1329 1831.3721,-541.9493 1831.8701,-542.7892 1832.2731,-543.6504 1832.5817,-544.5305 1832.797,-545.427 1832.9203,-546.3376 1832.9535,-547.2597 1832.8987,-548.1908 1832.7585,-549.1283 1832.5356,-550.0697 1832.2332,-551.0124 1831.8545,-551.9538 1831.4032,-552.8913 1830.8827,-553.8224 1830.297,-554.7445 1829.6498,-555.6551 1828.9452,-556.5516 1828.1871,-557.4317 1827.3793,-558.2929 1826.5259,-559.1329 1825.6305,-559.9493 1824.6968,-560.7399 1823.7285,-561.5025 1822.7289,-562.2351 1821.7014,-562.9357 1820.6489,-563.6023 1819.5744,-564.2331 1818.4806,-564.8263 1817.3699,-565.3804 1816.2447,-565.8938 1815.1069,-566.3652 1813.9585,-566.7932 1812.8011,-567.1766 1811.6363,-567.5144 1810.4654,-567.8057 1809.2896,-568.0497 1808.11,-568.2457 1806.9276,-568.3932 1805.7431,-568.4917 1804.5575,-568.5411 1803.3716,-568.5411 1802.186,-568.4917 1801.0015,-568.3932 1799.8191,-568.2457 1798.6395,-568.0497 1797.4637,-567.8057 1796.2928,-567.5144 1795.128,-567.1766 1793.9706,-566.7932 1792.8222,-566.3652 1791.6844,-565.8938 1790.5592,-565.3804 1789.4485,-564.8263 1788.3547,-564.2331 1787.2802,-563.6023 1786.2277,-562.9357 1785.2002,-562.2351 1784.2006,-561.5025 1783.2323,-560.7399 1782.2986,-559.9493 1781.4032,-559.1329 1780.5498,-558.2929 1779.742,-557.4317 1778.9839,-556.5516 1778.2793,-555.6551 1777.6321,-554.7445 1777.0464,-553.8224 1776.5259,-552.8913 1776.0746,-551.9538 1775.6959,-551.0124 1775.3935,-550.0697 1775.1706,-549.1283 1775.0304,-548.1908 1774.9756,-547.2597 1775.0088,-546.3376 1775.1321,-545.427 1775.3474,-544.5305 1775.656,-543.6504 1776.059,-542.7892 1776.557,-541.9493 1777.15,-541.1329 1777.8376,-540.3422 1778.619,-539.5796 1779.4928,-538.847 1780.4572,-538.1464 1781.5096,-537.4798 1782.6473,-536.8491 1783.8669,-536.2558 1785.1645,-535.7017 1786.5358,-535.1883 1787.976,-534.7169 1789.4799,-534.2889 1791.042,-533.9055 1792.6563,-533.5677 1794.3165,-533.2764 1796.0161,-533.0324 1797.7483,-532.8364 1799.506,-532.6889 1801.282,-532.5904 1803.0691,-532.5411 1804.86,-532.5411 1806.6471,-532.5904"/>
<text text-anchor="middle" x="1803.9645" y="-548.0411" font-family="Courier,monospace" font-weight="bold" font-size="10.00" fill="#000000">y</text>
</g>
<!-- STATE_A&#45;&gt;SYMBOL_y -->
<g id="edge16" class="edge">
<title>STATE_A&#45;&gt;SYMBOL_y</title>
<path fill="none" stroke="#000000" stroke-dasharray="5,2" d="M329.7577,-412.3809C359.1015,-467.7334 461.8153,-640.5411 600.4777,-640.5411 600.4777,-640.5411 600.4777,-640.5411 1524.7211,-640.5411 1630.6074,-640.5411 1661.9366,-634.7229 1757.2211,-588.5411 1766.0678,-584.2533 1774.7199,-577.991 1782.1276,-571.7822"/>
<polygon fill="#000000" stroke="#000000" points="1784.4467,-574.4037 1789.6277,-565.1621 1779.8143,-569.1557 1784.4467,-574.4037"/>
<text text-anchor="middle" x="1037.7211" y="-643.5411" font-family="Courier,monospace" font-weight="bold" font-size="10.00" fill="#000000">0.12269847855497289</text>
</g>
<!-- STATE_C -->
<g id="node3" class="node">
<title>STATE_C</title>
<polygon fill="none" stroke="#000000" points="878.9036,-246.5904 880.6797,-246.6889 882.4374,-246.8364 884.1696,-247.0324 885.8691,-247.2764 887.5294,-247.5677 889.1436,-247.9055 890.7057,-248.2889 892.2097,-248.7169 893.6499,-249.1883 895.0211,-249.7017 896.3187,-250.2558 897.5383,-250.8491 898.676,-251.4798 899.7285,-252.1464 900.6928,-252.847 901.5666,-253.5796 902.348,-254.3422 903.0357,-255.1329 903.6287,-255.9493 904.1266,-256.7892 904.5296,-257.6504 904.8383,-258.5305 905.0536,-259.427 905.1769,-260.3376 905.2101,-261.2597 905.1553,-262.1908 905.0151,-263.1283 904.7922,-264.0697 904.4898,-265.0124 904.1111,-265.9538 903.6597,-266.8913 903.1393,-267.8224 902.5535,-268.7445 901.9064,-269.6551 901.2018,-270.5516 900.4436,-271.4317 899.6359,-272.2929 898.7824,-273.1329 897.887,-273.9493 896.9534,-274.7399 895.985,-275.5025 894.9855,-276.2351 893.9579,-276.9357 892.9055,-277.6023 891.831,-278.2331 890.7372,-278.8263 889.6265,-279.3804 888.5012,-279.8938 887.3634,-280.3652 886.215,-280.7932 885.0577,-281.1766 883.8929,-281.5144 882.722,-281.8057 881.5462,-282.0497 880.3666,-282.2457 879.1841,-282.3932 877.9997,-282.4917 876.8141,-282.5411 875.6281,-282.5411 874.4425,-282.4917 873.2581,-282.3932 872.0756,-282.2457 870.896,-282.0497 869.7203,-281.8057 868.5494,-281.5144 867.3846,-281.1766 866.2272,-280.7932 865.0788,-280.3652 863.941,-279.8938 862.8157,-279.3804 861.705,-278.8263 860.6112,-278.2331 859.5367,-277.6023 858.4843,-276.9357 857.4567,-276.2351 856.4572,-275.5025 855.4889,-274.7399 854.5552,-273.9493 853.6598,-273.1329 852.8063,-272.2929 851.9986,-271.4317 851.2404,-270.5516 850.5358,-269.6551 849.8887,-268.7445 849.303,-267.8224 848.7825,-266.8913 848.3311,-265.9538 847.9524,-265.0124 847.65,-264.0697 847.4272,-263.1283 847.2869,-262.1908 847.2321,-261.2597 847.2653,-260.3376 847.3886,-259.427 847.6039,-258.5305 847.9126,-257.6504 848.3156,-256.7892 848.8136,-255.9493 849.4066,-255.1329 850.0942,-254.3422 850.8756,-253.5796 851.7494,-252.847 852.7137,-252.1464 853.7662,-251.4798 854.9039,-250.8491 856.1235,-250.2558 857.4211,-249.7017 858.7923,-249.1883 860.2326,-248.7169 861.7365,-248.2889 863.2986,-247.9055 864.9129,-247.5677 866.5731,-247.2764 868.2727,-247.0324 870.0048,-246.8364 871.7625,-246.6889 873.5386,-246.5904 875.3257,-246.5411 877.1165,-246.5411 878.9036,-246.5904"/>
<text text-anchor="middle" x="876.2211" y="-262.0411" font-family="Courier,monospace" font-weight="bold" font-size="10.00" fill="#000000">C</text>
</g>
<!-- STATE_B&#45;&gt;STATE_C -->
<g id="edge4" class="edge">
<title>STATE_B&#45;&gt;STATE_C</title>
<path fill="none" stroke="#000000" d="M626.4189,-215.6212C675.0105,-225.1371 779.9859,-245.6949 837.1678,-256.8931"/>
<polygon fill="#000000" stroke="#000000" points="836.7781,-260.3832 847.2643,-258.8703 838.1234,-253.5137 836.7781,-260.3832"/>
<text text-anchor="middle" x="718.7211" y="-249.5411" font-family="Courier,monospace" font-weight="bold" font-size="10.00" fill="#000000">0.4241968672405756</text>
</g>
<!-- STATE_D -->
<g id="node4" class="node">
<title>STATE_D</title>
<polygon fill="none" stroke="#000000" points="1040.4036,-166.5904 1042.1797,-166.6889 1043.9374,-166.8364 1045.6696,-167.0324 1047.3691,-167.2764 1049.0294,-167.5677 1050.6436,-167.9055 1052.2057,-168.2889 1053.7097,-168.7169 1055.1499,-169.1883 1056.5211,-169.7017 1057.8187,-170.2558 1059.0383,-170.8491 1060.176,-171.4798 1061.2285,-172.1464 1062.1928,-172.847 1063.0666,-173.5796 1063.848,-174.3422 1064.5357,-175.1329 1065.1287,-175.9493 1065.6266,-176.7892 1066.0296,-177.6504 1066.3383,-178.5305 1066.5536,-179.427 1066.6769,-180.3376 1066.7101,-181.2597 1066.6553,-182.1908 1066.5151,-183.1283 1066.2922,-184.0697 1065.9898,-185.0124 1065.6111,-185.9538 1065.1597,-186.8913 1064.6393,-187.8224 1064.0535,-188.7445 1063.4064,-189.6551 1062.7018,-190.5516 1061.9436,-191.4317 1061.1359,-192.2929 1060.2824,-193.1329 1059.387,-193.9493 1058.4534,-194.7399 1057.485,-195.5025 1056.4855,-196.2351 1055.4579,-196.9357 1054.4055,-197.6023 1053.331,-198.2331 1052.2372,-198.8263 1051.1265,-199.3804 1050.0012,-199.8938 1048.8634,-200.3652 1047.715,-200.7932 1046.5577,-201.1766 1045.3929,-201.5144 1044.222,-201.8057 1043.0462,-202.0497 1041.8666,-202.2457 1040.6841,-202.3932 1039.4997,-202.4917 1038.3141,-202.5411 1037.1281,-202.5411 1035.9425,-202.4917 1034.7581,-202.3932 1033.5756,-202.2457 1032.396,-202.0497 1031.2203,-201.8057 1030.0494,-201.5144 1028.8846,-201.1766 1027.7272,-200.7932 1026.5788,-200.3652 1025.441,-199.8938 1024.3157,-199.3804 1023.205,-198.8263 1022.1112,-198.2331 1021.0367,-197.6023 1019.9843,-196.9357 1018.9567,-196.2351 1017.9572,-195.5025 1016.9889,-194.7399 1016.0552,-193.9493 1015.1598,-193.1329 1014.3063,-192.2929 1013.4986,-191.4317 1012.7404,-190.5516 1012.0358,-189.6551 1011.3887,-188.7445 1010.803,-187.8224 1010.2825,-186.8913 1009.8311,-185.9538 1009.4524,-185.0124 1009.15,-184.0697 1008.9272,-183.1283 1008.7869,-182.1908 1008.7321,-181.2597 1008.7653,-180.3376 1008.8886,-179.427 1009.1039,-178.5305 1009.4126,-177.6504 1009.8156,-176.7892 1010.3136,-175.9493 1010.9066,-175.1329 1011.5942,-174.3422 1012.3756,-173.5796 1013.2494,-172.847 1014.2137,-172.1464 1015.2662,-171.4798 1016.4039,-170.8491 1017.6235,-170.2558 1018.9211,-169.7017 1020.2923,-169.1883 1021.7326,-168.7169 1023.2365,-168.2889 1024.7986,-167.9055 1026.4129,-167.5677 1028.0731,-167.2764 1029.7727,-167.0324 1031.5048,-166.8364 1033.2625,-166.6889 1035.0386,-166.5904 1036.8257,-166.5411 1038.6165,-166.5411 1040.4036,-166.5904"/>
<text text-anchor="middle" x="1037.7211" y="-182.0411" font-family="Courier,monospace" font-weight="bold" font-size="10.00" fill="#000000">D</text>
</g>
<!-- STATE_B&#45;&gt;STATE_D -->
<g id="edge5" class="edge">
<title>STATE_B&#45;&gt;STATE_D</title>
<path fill="none" stroke="#000000" d="M629.6291,-207.1825C635.4511,-206.5795 641.5264,-205.9984 647.2211,-205.5411 775.9626,-195.2011 929.0026,-188.6322 999.1372,-185.9395"/>
<polygon fill="#000000" stroke="#000000" points="999.4081,-189.4319 1009.2683,-185.5555 999.1429,-182.4369 999.4081,-189.4319"/>
<text text-anchor="middle" x="718.7211" y="-208.5411" font-family="Courier,monospace" font-weight="bold" font-size="10.00" fill="#000000">0.5758031327594243</text>
</g>
<!-- STATE_B&#45;&gt;SYMBOL_x -->
<g id="edge17" class="edge">
<title>STATE_B&#45;&gt;SYMBOL_x</title>
<path fill="none" stroke="#000000" stroke-dasharray="5,2" d="M625.2754,-198.9679C632.2436,-196.1296 639.9158,-193.3815 647.2211,-191.5411 783.7676,-157.1404 821.6114,-165.1075 962.2211,-157.5411 1138.9406,-148.0314 1611.0671,-104.7452 1757.2211,-204.5411 1780.3818,-220.3555 1792.4499,-250.9472 1798.4725,-273.5652"/>
<polygon fill="#000000" stroke="#000000" points="1795.0779,-274.4186 1800.8324,-283.3144 1801.8814,-272.7717 1795.0779,-274.4186"/>
<text text-anchor="middle" x="1202.7211" y="-150.5411" font-family="Courier,monospace" font-weight="bold" font-size="10.00" fill="#000000">0.10124322138741162</text>
</g>
<!-- STATE_B&#45;&gt;SYMBOL_z -->
<g id="edge18" class="edge">
<title>STATE_B&#45;&gt;SYMBOL_z</title>
<path fill="none" stroke="#000000" stroke-dasharray="5,2" d="M605.329,-192.5813C611.6031,-173.0234 624.5171,-142.417 647.2211,-126.5411 719.2278,-76.1898 949.8564,-64.5411 1037.7211,-64.5411 1037.7211,-64.5411 1037.7211,-64.5411 1524.7211,-64.5411 1613.2724,-64.5411 1714.4858,-92.3981 1767.3807,-109.1633"/>
<polygon fill="#000000" stroke="#000000" points="1766.3979,-112.5237 1776.9894,-112.2562 1768.5428,-105.8604 1766.3979,-112.5237"/>
<text text-anchor="middle" x="1202.7211" y="-67.5411" font-family="Courier,monospace" font-weight="bold" font-size="10.00" fill="#000000">0.5559723419309354</text>
</g>
<!-- STATE_B&#45;&gt;SYMBOL_y -->
<g id="edge19" class="edge">
<title>STATE_B&#45;&gt;SYMBOL_y</title>
<path fill="none" stroke="#000000" stroke-dasharray="5,2" d="M606.7486,-228.1099C614.042,-246.4333 627.6373,-275.0174 647.2211,-293.5411 703.8991,-347.151 889.8884,-419.311 962.2211,-448.5411 1105.0474,-506.2579 1140.9318,-525.5221 1292.2211,-554.5411 1432.9658,-581.5375 1470.9355,-568.8721 1614.2211,-571.5411 1677.7656,-572.7247 1695.0767,-584.8594 1757.2211,-571.5411 1763.1283,-570.2751 1769.1906,-568.2031 1774.91,-565.8418"/>
<polygon fill="#000000" stroke="#000000" points="1776.4473,-568.9881 1784.1239,-561.686 1773.5692,-562.6071 1776.4473,-568.9881"/>
<text text-anchor="middle" x="1202.7211" y="-553.5411" font-family="Courier,monospace" font-weight="bold" font-size="10.00" fill="#000000">0.3427844366816531</text>
</g>
<!-- STATE_C&#45;&gt;STATE_F -->
<g id="edge6" class="edge">
<title>STATE_C&#45;&gt;STATE_F</title>
<path fill="none" stroke="#000000" d="M903.3187,-268.0599C964.6576,-276.0741 1109.1527,-295.2469 1113.2211,-298.5411 1131.2523,-313.1407 1115.3895,-330.5814 1131.2211,-347.5411 1140.2279,-357.1896 1152.6822,-364.1217 1164.6755,-369.0102"/>
<polygon fill="#000000" stroke="#000000" points="1163.5271,-372.3171 1174.1203,-372.5054 1165.9566,-365.7522 1163.5271,-372.3171"/>
<text text-anchor="middle" x="1037.7211" y="-301.5411" font-family="Courier,monospace" font-weight="bold" font-size="10.00" fill="#000000">1.0</text>
</g>
<!-- STATE_C&#45;&gt;SYMBOL_x -->
<g id="edge21" class="edge">
<title>STATE_C&#45;&gt;SYMBOL_x</title>
<path fill="none" stroke="#000000" stroke-dasharray="5,2" d="M905.0977,-263.1315C1002.5788,-258.7077 1328.36,-246.6499 1596.2211,-268.5411 1655.6115,-273.3948 1723.6913,-285.4679 1765.2551,-293.5853"/>
<polygon fill="#000000" stroke="#000000" points="1764.7406,-297.0512 1775.2295,-295.557 1766.0981,-290.1841 1764.7406,-297.0512"/>
<text text-anchor="middle" x="1363.7211" y="-261.5411" font-family="Courier,monospace" font-weight="bold" font-size="10.00" fill="#000000">0.219502401618428</text>
</g>
<!-- STATE_C&#45;&gt;SYMBOL_z -->
<g id="edge20" class="edge">
<title>STATE_C&#45;&gt;SYMBOL_z</title>
<path fill="none" stroke="#000000" stroke-dasharray="5,2" d="M905.2471,-260.2302C921.9016,-257.8221 943.2154,-254.8507 962.2211,-252.5411 1172.0248,-227.0445 1227.4885,-242.4616 1435.2211,-203.5411 1516.2929,-188.3515 1533.7212,-172.5168 1614.2211,-154.5411 1666.8676,-142.785 1728.5159,-132.7402 1766.9112,-126.9188"/>
<polygon fill="#000000" stroke="#000000" points="1767.727,-130.3356 1777.0972,-125.3909 1766.6886,-123.4131 1767.727,-130.3356"/>
<text text-anchor="middle" x="1363.7211" y="-227.5411" font-family="Courier,monospace" font-weight="bold" font-size="10.00" fill="#000000">0.5896462328034959</text>
</g>
<!-- STATE_C&#45;&gt;SYMBOL_y -->
<g id="edge22" class="edge">
<title>STATE_C&#45;&gt;SYMBOL_y</title>
<path fill="none" stroke="#000000" stroke-dasharray="5,2" d="M896.7231,-275.0816C910.3599,-282.242 928.5733,-292.094 944.2211,-301.5411 952.4521,-306.5104 954.0019,-308.5522 962.2211,-313.5411 1168.3822,-438.6769 1217.6244,-493.0088 1453.2211,-544.5411 1565.0914,-569.0105 1701.8472,-560.7712 1766.5785,-554.6714"/>
<polygon fill="#000000" stroke="#000000" points="1767.0923,-558.1379 1776.7029,-553.6785 1766.4091,-551.1713 1767.0923,-558.1379"/>
<text text-anchor="middle" x="1363.7211" y="-542.5411" font-family="Courier,monospace" font-weight="bold" font-size="10.00" fill="#000000">0.19085136557807608</text>
</g>
<!-- STATE_D&#45;&gt;STATE_A -->
<g id="edge7" class="edge">
<title>STATE_D&#45;&gt;STATE_A</title>
<path fill="none" stroke="#000000" d="M1012.119,-189.9605C954.081,-202.3126 816.8527,-231.9213 808.2211,-237.5411 797.0473,-244.816 801.0055,-253.7004 790.2211,-261.5411 700.3608,-326.8729 660.5969,-312.1522 553.7342,-342.5411 486.3554,-361.7017 406.476,-378.6872 360.0552,-388.0024"/>
<polygon fill="#000000" stroke="#000000" points="359.2404,-384.5959 350.1167,-389.982 360.6078,-391.4611 359.2404,-384.5959"/>
<text text-anchor="middle" x="600.4777" y="-339.5411" font-family="Courier,monospace" font-weight="bold" font-size="10.00" fill="#000000">1.0</text>
</g>
<!-- STATE_D&#45;&gt;SYMBOL_x -->
<g id="edge23" class="edge">
<title>STATE_D&#45;&gt;SYMBOL_x</title>
<path fill="none" stroke="#000000" stroke-dasharray="5,2" d="M1066.7148,-183.8583C1132.4232,-182.5879 1297.6597,-180.9516 1435.2211,-192.5411 1507.3119,-198.6147 1694.8907,-203.8138 1757.2211,-240.5411 1771.0959,-248.7165 1782.2783,-262.7434 1790.2228,-275.2864"/>
<polygon fill="#000000" stroke="#000000" points="1787.3127,-277.2408 1795.4275,-284.0525 1793.3317,-273.6671 1787.3127,-277.2408"/>
<text text-anchor="middle" x="1363.7211" y="-195.5411" font-family="Courier,monospace" font-weight="bold" font-size="10.00" fill="#000000">0.5187326221534593</text>
</g>
<!-- STATE_D&#45;&gt;SYMBOL_z -->
<g id="edge24" class="edge">
<title>STATE_D&#45;&gt;SYMBOL_z</title>
<path fill="none" stroke="#000000" stroke-dasharray="5,2" d="M1066.5515,-179.2538C1133.926,-167.1754 1307.0694,-137.7398 1453.2211,-126.5411 1566.2461,-117.8806 1700.3393,-119.1708 1765.1099,-120.52"/>
<polygon fill="#000000" stroke="#000000" points="1765.1923,-124.0226 1775.2671,-120.7442 1765.3468,-117.0243 1765.1923,-124.0226"/>
<text text-anchor="middle" x="1363.7211" y="-146.5411" font-family="Courier,monospace" font-weight="bold" font-size="10.00" fill="#000000">0.447864846785701</text>
</g>
<!-- STATE_D&#45;&gt;SYMBOL_y -->
<g id="edge25" class="edge">
<title>STATE_D&#45;&gt;SYMBOL_y</title>
<path fill="none" stroke="#000000" stroke-dasharray="5,2" d="M1058.3096,-195.1061C1131.761,-232.3603 1388.5935,-358.8851 1614.2211,-424.5411 1676.4043,-442.6359 1706.0414,-412.8572 1757.2211,-452.5411 1779.469,-469.7916 1791.6673,-500.2682 1797.9698,-522.6679"/>
<polygon fill="#000000" stroke="#000000" points="1794.6496,-523.8095 1800.5371,-532.6179 1801.4277,-522.0606 1794.6496,-523.8095"/>
<text text-anchor="middle" x="1363.7211" y="-363.5411" font-family="Courier,monospace" font-weight="bold" font-size="10.00" fill="#000000">0.03340253106083973</text>
</g>
<!-- STATE_E&#45;&gt;STATE_A -->
<g id="edge8" class="edge">
<title>STATE_E&#45;&gt;STATE_A</title>
<path fill="none" stroke="#000000" d="M1496.2318,-517.5505C1380.764,-517.4288 936.3722,-515.4121 571.7342,-492.5411 499.9672,-488.0396 476.471,-505.6862 410.7342,-476.5411 381.901,-463.7575 356.0367,-438.0098 339.6158,-418.9591"/>
<polygon fill="#000000" stroke="#000000" points="342.2769,-416.6852 333.1753,-411.2618 336.9083,-421.1773 342.2769,-416.6852"/>
<text text-anchor="middle" x="876.2211" y="-511.5411" font-family="Courier,monospace" font-weight="bold" font-size="10.00" fill="#000000">1.0</text>
</g>
<!-- STATE_E&#45;&gt;SYMBOL_x -->
<g id="edge26" class="edge">
<title>STATE_E&#45;&gt;SYMBOL_x</title>
<path fill="none" stroke="#000000" stroke-dasharray="5,2" d="M1553.5132,-514.0708C1602.005,-506.7469 1700.2408,-485.33 1757.2211,-427.5411 1783.5126,-400.8764 1795.2104,-358.1215 1800.2793,-329.932"/>
<polygon fill="#000000" stroke="#000000" points="1803.7592,-330.3382 1801.914,-319.9053 1796.8504,-329.2117 1803.7592,-330.3382"/>
<text text-anchor="middle" x="1685.7211" y="-503.5411" font-family="Courier,monospace" font-weight="bold" font-size="10.00" fill="#000000">0.20113094968231102</text>
</g>
<!-- STATE_E&#45;&gt;SYMBOL_z -->
<g id="edge27" class="edge">
<title>STATE_E&#45;&gt;SYMBOL_z</title>
<path fill="none" stroke="#000000" stroke-dasharray="5,2" d="M1553.5239,-511.1146C1568.2976,-506.3961 1585.4107,-498.4839 1596.2211,-485.5411 1617.6426,-459.8942 1600.9078,-443.1907 1614.2211,-412.5411 1661.1431,-304.5178 1746.8847,-191.9737 1784.9213,-144.6596"/>
<polygon fill="#000000" stroke="#000000" points="1787.6656,-146.8322 1791.238,-136.8578 1782.2252,-142.4274 1787.6656,-146.8322"/>
<text text-anchor="middle" x="1685.7211" y="-415.5411" font-family="Courier,monospace" font-weight="bold" font-size="10.00" fill="#000000">0.74096826172803</text>
</g>
<!-- STATE_E&#45;&gt;SYMBOL_y -->
<g id="edge28" class="edge">
<title>STATE_E&#45;&gt;SYMBOL_y</title>
<path fill="none" stroke="#000000" stroke-dasharray="5,2" d="M1552.8259,-518.6168C1596.729,-520.6252 1684.131,-525.943 1757.2211,-538.5411 1760.0851,-539.0347 1763.0312,-539.6149 1765.9845,-540.2491"/>
<polygon fill="#000000" stroke="#000000" points="1765.4117,-543.7093 1775.9447,-542.5663 1766.9979,-536.8913 1765.4117,-543.7093"/>
<text text-anchor="middle" x="1685.7211" y="-541.5411" font-family="Courier,monospace" font-weight="bold" font-size="10.00" fill="#000000">0.05790078858965901</text>
</g>
<!-- STATE_F&#45;&gt;STATE_B -->
<g id="edge9" class="edge">
<title>STATE_F&#45;&gt;STATE_B</title>
<path fill="none" stroke="#000000" d="M1173.8334,-374.4721C1066.4471,-355.484 694.0358,-288.2904 647.2211,-261.5411 635.6523,-254.9308 625.3321,-244.4722 617.3509,-234.7421"/>
<polygon fill="#000000" stroke="#000000" points="620.1159,-232.5962 611.2208,-226.8405 614.5852,-236.887 620.1159,-232.5962"/>
<text text-anchor="middle" x="876.2211" y="-333.5411" font-family="Courier,monospace" font-weight="bold" font-size="10.00" fill="#000000">0.5190090874060609</text>
</g>
<!-- STATE_F&#45;&gt;STATE_E -->
<g id="edge10" class="edge">
<title>STATE_F&#45;&gt;STATE_E</title>
<path fill="none" stroke="#000000" d="M1224.5801,-389.2039C1242.5734,-397.0058 1268.8323,-408.0447 1292.2211,-416.5411 1354.8453,-439.2902 1380.8427,-423.0404 1435.2211,-461.5411 1446.1031,-469.2456 1442.8038,-477.2189 1453.2211,-485.5411 1463.3484,-493.6315 1475.8458,-500.1334 1487.5447,-505.1081"/>
<polygon fill="#000000" stroke="#000000" points="1486.5294,-508.4713 1497.1143,-508.929 1489.1251,-501.9703 1486.5294,-508.4713"/>
<text text-anchor="middle" x="1363.7211" y="-464.5411" font-family="Courier,monospace" font-weight="bold" font-size="10.00" fill="#000000">0.48099091259393917</text>
</g>
<!-- STATE_F&#45;&gt;SYMBOL_x -->
<g id="edge29" class="edge">
<title>STATE_F&#45;&gt;SYMBOL_x</title>
<path fill="none" stroke="#000000" stroke-dasharray="5,2" d="M1231.7203,-375.779C1330.9111,-362.9108 1656.5904,-320.6601 1766.9872,-306.3382"/>
<polygon fill="#000000" stroke="#000000" points="1767.5172,-309.7988 1776.9838,-305.0413 1766.6166,-302.857 1767.5172,-309.7988"/>
<text text-anchor="middle" x="1524.7211" y="-349.5411" font-family="Courier,monospace" font-weight="bold" font-size="10.00" fill="#000000">0.05842419995300172</text>
</g>
<!-- STATE_F&#45;&gt;SYMBOL_z -->
<g id="edge30" class="edge">
<title>STATE_F&#45;&gt;SYMBOL_z</title>
<path fill="none" stroke="#000000" stroke-dasharray="5,2" d="M1219.9617,-363.9473C1237.1175,-349.2095 1264.7779,-327.4829 1292.2211,-314.5411 1351.5982,-286.5396 1372.764,-297.7607 1435.2211,-277.5411 1581.4279,-230.2086 1620.3318,-221.3845 1757.2211,-151.5411 1764.0711,-148.0461 1771.1896,-143.8172 1777.7444,-139.6509"/>
<polygon fill="#000000" stroke="#000000" points="1779.8031,-142.4866 1786.2554,-134.0831 1775.9709,-136.6287 1779.8031,-142.4866"/>
<text text-anchor="middle" x="1524.7211" y="-273.5411" font-family="Courier,monospace" font-weight="bold" font-size="10.00" fill="#000000">0.8088242725061667</text>
</g>
<!-- STATE_F&#45;&gt;SYMBOL_y -->
<g id="edge31" class="edge">
<title>STATE_F&#45;&gt;SYMBOL_y</title>
<path fill="none" stroke="#000000" stroke-dasharray="5,2" d="M1231.6977,-377.7968C1277.9323,-376.3398 1369.8331,-378.9771 1435.2211,-416.5411 1446.1756,-422.8342 1442.2426,-432.2898 1453.2211,-438.5411 1571.969,-506.1571 1640.894,-412.8403 1757.2211,-484.5411 1772.1771,-493.7595 1783.6799,-509.7337 1791.5321,-523.6573"/>
<polygon fill="#000000" stroke="#000000" points="1788.6239,-525.6462 1796.3826,-532.861 1794.8165,-522.3825 1788.6239,-525.6462"/>
<text text-anchor="middle" x="1524.7211" y="-467.5411" font-family="Courier,monospace" font-weight="bold" font-size="10.00" fill="#000000">0.13275152754083153</text>
</g>
<!-- STATE_SOURCE -->
<g id="node7" class="node">
<title>STATE_SOURCE</title>
<polygon fill="none" stroke="#000000" points="42.4515,-68.5904 44.8246,-68.6889 47.1732,-68.8364 49.4877,-69.0324 51.7587,-69.2764 53.9771,-69.5677 56.134,-69.9055 58.2213,-70.2889 60.2308,-70.7169 62.1552,-71.1883 63.9875,-71.7017 65.7213,-72.2558 67.3509,-72.8491 68.8711,-73.4798 70.2774,-74.1464 71.5659,-74.847 72.7335,-75.5796 73.7776,-76.3422 74.6964,-77.1329 75.4887,-77.9493 76.1541,-78.7892 76.6926,-79.6504 77.105,-80.5305 77.3927,-81.427 77.5574,-82.3376 77.6018,-83.2597 77.5286,-84.1908 77.3412,-85.1283 77.0434,-86.0697 76.6393,-87.0124 76.1334,-87.9538 75.5302,-88.8913 74.8348,-89.8224 74.0521,-90.7445 73.1874,-91.6551 72.246,-92.5516 71.2329,-93.4317 70.1536,-94.2929 69.0132,-95.1329 67.8168,-95.9493 66.5693,-96.7399 65.2754,-97.5025 63.9398,-98.2351 62.5668,-98.9357 61.1606,-99.6023 59.7248,-100.2331 58.2633,-100.8263 56.7792,-101.3804 55.2756,-101.8938 53.7553,-102.3652 52.2208,-102.7932 50.6744,-103.1766 49.118,-103.5144 47.5535,-103.8057 45.9824,-104.0497 44.4062,-104.2457 42.8263,-104.3932 41.2436,-104.4917 39.6595,-104.5411 38.0748,-104.5411 36.4906,-104.4917 34.908,-104.3932 33.328,-104.2457 31.7518,-104.0497 30.1808,-103.8057 28.6162,-103.5144 27.0598,-103.1766 25.5134,-102.7932 23.9789,-102.3652 22.4586,-101.8938 20.955,-101.3804 19.4709,-100.8263 18.0094,-100.2331 16.5737,-99.6023 15.1674,-98.9357 13.7944,-98.2351 12.4588,-97.5025 11.1649,-96.7399 9.9174,-95.9493 8.721,-95.1329 7.5806,-94.2929 6.5013,-93.4317 5.4883,-92.5516 4.5468,-91.6551 3.6821,-90.7445 2.8994,-89.8224 2.204,-88.8913 1.6009,-87.9538 1.0949,-87.0124 .6908,-86.0697 .393,-85.1283 .2056,-84.1908 .1324,-83.2597 .1768,-82.3376 .3416,-81.427 .6292,-80.5305 1.0416,-79.6504 1.5801,-78.7892 2.2455,-77.9493 3.0379,-77.1329 3.9567,-76.3422 5.0008,-75.5796 6.1683,-74.847 7.4568,-74.1464 8.8631,-73.4798 10.3833,-72.8491 12.0129,-72.2558 13.7467,-71.7017 15.579,-71.1883 17.5034,-70.7169 19.513,-70.2889 21.6002,-69.9055 23.7572,-69.5677 25.9755,-69.2764 28.2465,-69.0324 30.561,-68.8364 32.9096,-68.6889 35.2827,-68.5904 37.6707,-68.5411 40.0635,-68.5411 42.4515,-68.5904"/>
<text text-anchor="middle" x="38.8671" y="-84.0411" font-family="Courier,monospace" font-weight="bold" font-size="10.00" fill="#000000">SOURCE</text>
</g>
<!-- STATE_SOURCE&#45;&gt;STATE_A -->
<g id="edge11" class="edge">
<title>STATE_SOURCE&#45;&gt;STATE_A</title>
<path fill="none" stroke="#000000" d="M53.6508,-102.7192C100.2398,-153.7024 244.173,-311.2114 299.3743,-371.6194"/>
<polygon fill="#000000" stroke="#000000" points="296.9267,-374.1293 306.2562,-379.1503 302.0941,-369.4072 296.9267,-374.1293"/>
<text text-anchor="middle" x="163.7342" y="-298.5411" font-family="Courier,monospace" font-weight="bold" font-size="10.00" fill="#000000">0.8520209593371564</text>
</g>
<!-- STATE_SOURCE&#45;&gt;STATE_B -->
<g id="edge12" class="edge">
<title>STATE_SOURCE&#45;&gt;STATE_B</title>
<path fill="none" stroke="#000000" d="M71.0789,-93.6532C168.0718,-115.0686 457.1227,-178.8892 561.956,-202.0357"/>
<polygon fill="#000000" stroke="#000000" points="561.2826,-205.4713 571.8021,-204.2097 562.7919,-198.6359 561.2826,-205.4713"/>
<text text-anchor="middle" x="321.2342" y="-165.5411" font-family="Courier,monospace" font-weight="bold" font-size="10.00" fill="#000000">0.08427545013678003</text>
</g>
<!-- STATE_SOURCE&#45;&gt;STATE_D -->
<g id="edge13" class="edge">
<title>STATE_SOURCE&#45;&gt;STATE_D</title>
<path fill="none" stroke="#000000" d="M76.6068,-87.5953C115.5194,-88.8481 177.9319,-91.3195 231.7342,-95.5411 527.4085,-118.741 882.2784,-164.0303 998.6744,-179.3407"/>
<polygon fill="#000000" stroke="#000000" points="998.4974,-182.8476 1008.8692,-180.6853 999.4128,-175.9077 998.4974,-182.8476"/>
<text text-anchor="middle" x="482.2342" y="-129.5411" font-family="Courier,monospace" font-weight="bold" font-size="10.00" fill="#000000">0.06370359052606367</text>
</g>
</g>
</svg>
