<?xml version="1.0" encoding="UTF-8" standalone="no"?>
<!DOCTYPE svg PUBLIC "-//W3C//DTD SVG 1.1//EN"
 "http://www.w3.org/Graphics/SVG/1.1/DTD/svg11.dtd">
<!-- Generated by graphviz version 2.40.1 (0)
 -->
<!-- Title: G Pages: 1 -->
<svg width="309pt" height="256pt"
 viewBox="0.00 0.00 309.00 256.00" xmlns="http://www.w3.org/2000/svg" xmlns:xlink="http://www.w3.org/1999/xlink">
<g id="graph0" class="graph" transform="scale(1 1) rotate(0) translate(4 252)">
<title>G</title>
<polygon fill="#ffffff" stroke="transparent" points="-4,4 -4,-252 305,-252 305,4 -4,4"/>
<g id="clust1" class="cluster">
<title>cluster_2</title>
<polygon fill="none" stroke="#000000" points="8,-8 8,-120 293,-120 293,-8 8,-8"/>
<text text-anchor="middle" x="150.5" y="-108" font-family="Courier,monospace" font-weight="bold" font-size="10.00" fill="#000000">v3 added along edge(i0,v2)</text>
</g>
<g id="clust2" class="cluster">
<title>cluster_0</title>
<polygon fill="none" stroke="#000000" points="8,-128 8,-240 211,-240 211,-128 8,-128"/>
<text text-anchor="middle" x="109.5" y="-228" font-family="Courier,monospace" font-weight="bold" font-size="10.00" fill="#000000">Original</text>
</g>
<!-- v0_y -->
<g id="node1" class="node">
<title>v0_y</title>
<ellipse fill="none" stroke="#000000" cx="30.5" cy="-56" rx="14.5" ry="14.5"/>
<text text-anchor="middle" x="30.5" y="-53.5" font-family="Courier,monospace" font-weight="bold" font-size="10.00" fill="#000000">v0</text>
</g>
<!-- i0_y -->
<g id="node2" class="node">
<title>i0_y</title>
<ellipse fill="none" stroke="#000000" cx="113.5" cy="-56" rx="14.5" ry="14.5"/>
<text text-anchor="middle" x="113.5" y="-53.5" font-family="Courier,monospace" font-weight="bold" font-size="10.00" fill="#000000">i0</text>
</g>
<!-- v0_y&#45;&#45;i0_y -->
<g id="edge1" class="edge">
<title>v0_y&#45;&#45;i0_y</title>
<path fill="none" stroke="#000000" d="M45.3387,-56C60.4463,-56 83.7287,-56 98.7897,-56"/>
<text text-anchor="middle" x="72" y="-59" font-family="Courier,monospace" font-weight="bold" font-size="10.00" fill="#000000">11</text>
</g>
<!-- v1_y -->
<g id="node3" class="node">
<title>v1_y</title>
<ellipse fill="none" stroke="#000000" cx="188.5" cy="-31" rx="14.5" ry="14.5"/>
<text text-anchor="middle" x="188.5" y="-28.5" font-family="Courier,monospace" font-weight="bold" font-size="10.00" fill="#000000">v1</text>
</g>
<!-- i0_y&#45;&#45;v1_y -->
<g id="edge2" class="edge">
<title>i0_y&#45;&#45;v1_y</title>
<path fill="none" stroke="#000000" d="M127.2562,-51.4146C140.704,-46.932 161.0724,-40.1425 174.5771,-35.641"/>
<text text-anchor="middle" x="151" y="-47" font-family="Courier,monospace" font-weight="bold" font-size="10.00" fill="#000000">3</text>
</g>
<!-- i1_y -->
<g id="node4" class="node">
<title>i1_y</title>
<ellipse fill="none" stroke="#000000" cx="188.5" cy="-78" rx="14.5" ry="14.5"/>
<text text-anchor="middle" x="188.5" y="-75.5" font-family="Courier,monospace" font-weight="bold" font-size="10.00" fill="#000000">i1</text>
</g>
<!-- i0_y&#45;&#45;i1_y -->
<g id="edge3" class="edge">
<title>i0_y&#45;&#45;i1_y</title>
<path fill="none" stroke="#d2b48c" stroke-width="2.5" d="M127.6069,-60.138C141.0157,-64.0713 161.0685,-69.9534 174.4563,-73.8805"/>
<text text-anchor="middle" x="151" y="-71" font-family="Courier,monospace" font-weight="bold" font-size="10.00" fill="#000000">1</text>
</g>
<!-- v2_y -->
<g id="node5" class="node">
<title>v2_y</title>
<ellipse fill="none" stroke="#000000" cx="270.5" cy="-31" rx="14.5" ry="14.5"/>
<text text-anchor="middle" x="270.5" y="-28.5" font-family="Courier,monospace" font-weight="bold" font-size="10.00" fill="#000000">v2</text>
</g>
<!-- i1_y&#45;&#45;v2_y -->
<g id="edge4" class="edge">
<title>i1_y&#45;&#45;v2_y</title>
<path fill="none" stroke="#d2b48c" stroke-width="2.5" d="M201.3125,-70.6563C216.7175,-61.8265 242.4126,-47.0989 257.7775,-38.2922"/>
<text text-anchor="middle" x="233" y="-57" font-family="Courier,monospace" font-weight="bold" font-size="10.00" fill="#000000">3</text>
</g>
<!-- v3_y -->
<g id="node6" class="node">
<title>v3_y</title>
<ellipse fill="none" stroke="#000000" cx="270.5" cy="-78" rx="14.5" ry="14.5"/>
<text text-anchor="middle" x="270.5" y="-75.5" font-family="Courier,monospace" font-weight="bold" font-size="10.00" fill="#000000">v3</text>
</g>
<!-- i1_y&#45;&#45;v3_y -->
<g id="edge5" class="edge">
<title>i1_y&#45;&#45;v3_y</title>
<path fill="none" stroke="#000000" d="M203.16,-78C218.0855,-78 241.0874,-78 255.967,-78"/>
<text text-anchor="middle" x="233" y="-81" font-family="Courier,monospace" font-weight="bold" font-size="10.00" fill="#000000">1</text>
</g>
<!-- v0_x -->
<g id="node7" class="node">
<title>v0_x</title>
<ellipse fill="none" stroke="#000000" cx="30.5" cy="-176" rx="14.5" ry="14.5"/>
<text text-anchor="middle" x="30.5" y="-173.5" font-family="Courier,monospace" font-weight="bold" font-size="10.00" fill="#000000">v0</text>
</g>
<!-- i0_x -->
<g id="node8" class="node">
<title>i0_x</title>
<ellipse fill="none" stroke="#000000" cx="113.5" cy="-176" rx="14.5" ry="14.5"/>
<text text-anchor="middle" x="113.5" y="-173.5" font-family="Courier,monospace" font-weight="bold" font-size="10.00" fill="#000000">i0</text>
</g>
<!-- v0_x&#45;&#45;i0_x -->
<g id="edge6" class="edge">
<title>v0_x&#45;&#45;i0_x</title>
<path fill="none" stroke="#000000" d="M45.3387,-176C60.4463,-176 83.7287,-176 98.7897,-176"/>
<text text-anchor="middle" x="72" y="-179" font-family="Courier,monospace" font-weight="bold" font-size="10.00" fill="#000000">11</text>
</g>
<!-- v1_x -->
<g id="node9" class="node">
<title>v1_x</title>
<ellipse fill="none" stroke="#000000" cx="188.5" cy="-151" rx="14.5" ry="14.5"/>
<text text-anchor="middle" x="188.5" y="-148.5" font-family="Courier,monospace" font-weight="bold" font-size="10.00" fill="#000000">v1</text>
</g>
<!-- i0_x&#45;&#45;v1_x -->
<g id="edge7" class="edge">
<title>i0_x&#45;&#45;v1_x</title>
<path fill="none" stroke="#000000" d="M127.2562,-171.4146C140.704,-166.932 161.0724,-160.1425 174.5771,-155.641"/>
<text text-anchor="middle" x="151" y="-167" font-family="Courier,monospace" font-weight="bold" font-size="10.00" fill="#000000">3</text>
</g>
<!-- v2_x -->
<g id="node10" class="node">
<title>v2_x</title>
<ellipse fill="none" stroke="#000000" cx="188.5" cy="-198" rx="14.5" ry="14.5"/>
<text text-anchor="middle" x="188.5" y="-195.5" font-family="Courier,monospace" font-weight="bold" font-size="10.00" fill="#000000">v2</text>
</g>
<!-- i0_x&#45;&#45;v2_x -->
<g id="edge8" class="edge">
<title>i0_x&#45;&#45;v2_x</title>
<path fill="none" stroke="#d2b48c" stroke-width="2.5" d="M127.6069,-180.138C141.0157,-184.0713 161.0685,-189.9534 174.4563,-193.8805"/>
<text text-anchor="middle" x="151" y="-191" font-family="Courier,monospace" font-weight="bold" font-size="10.00" fill="#000000">4</text>
</g>
</g>
</svg>
