<?xml version="1.0" encoding="UTF-8" standalone="no"?>
<!DOCTYPE svg PUBLIC "-//W3C//DTD SVG 1.1//EN"
 "http://www.w3.org/Graphics/SVG/1.1/DTD/svg11.dtd">
<!-- Generated by graphviz version 2.40.1 (0)
 -->
<!-- Title: G Pages: 1 -->
<svg width="2651pt" height="215pt"
 viewBox="0.00 0.00 2651.31 214.90" xmlns="http://www.w3.org/2000/svg" xmlns:xlink="http://www.w3.org/1999/xlink">
<g id="graph0" class="graph" transform="scale(1 1) rotate(0) translate(4 210.8955)">
<title>G</title>
<polygon fill="#ffffff" stroke="transparent" points="-4,4 -4,-210.8955 2647.3142,-210.8955 2647.3142,4 -4,4"/>
<text text-anchor="middle" x="1321.6571" y="-191.6955" font-family="Times,serif" font-size="14.00" fill="#000000">ALL possible right&#45;hand sides (backward)</text>
<!-- ((&#45;1, &#39;SINK&#39;), 0) -->
<g id="node1" class="node">
<title>((&#45;1, &#39;SINK&#39;), 0)</title>
<polygon fill="none" stroke="#000000" points="2544.907,-61.2905 2551.5465,-61.4079 2558.1174,-61.5836 2564.5928,-61.8171 2570.9465,-62.1077 2577.153,-62.4548 2583.1877,-62.8572 2589.0273,-63.314 2594.6496,-63.8238 2600.0336,-64.3854 2605.1599,-64.997 2610.0108,-65.6571 2614.57,-66.3638 2618.8232,-67.1153 2622.7576,-67.9094 2626.3626,-68.744 2629.6292,-69.6167 2632.5504,-70.5252 2635.121,-71.4671 2637.3378,-72.4397 2639.1994,-73.4403 2640.706,-74.4662 2641.8599,-75.5146 2642.6646,-76.5827 2643.1257,-77.6675 2643.2497,-78.7659 2643.0449,-79.8751 2642.5207,-80.992 2641.6875,-82.1135 2640.5569,-83.2365 2639.1414,-84.358 2637.4539,-85.4749 2635.5083,-86.5841 2633.3186,-87.6826 2630.8994,-88.7673 2628.2653,-89.8354 2625.4311,-90.8838 2622.4115,-91.9097 2619.2209,-92.9104 2615.8735,-93.8829 2612.3832,-94.8248 2608.7633,-95.7333 2605.0266,-96.6061 2601.1853,-97.4406 2597.2508,-98.2347 2593.234,-98.9862 2589.1449,-99.6929 2584.9928,-100.353 2580.7861,-100.9647 2576.5327,-101.5262 2572.2395,-102.036 2567.9128,-102.4928 2563.5584,-102.8953 2559.1812,-103.2423 2554.7857,-103.5329 2550.376,-103.7664 2545.9555,-103.9421 2541.5277,-104.0595 2537.0955,-104.1183 2532.6619,-104.1183 2528.2297,-104.0595 2523.8019,-103.9421 2519.3815,-103.7664 2514.9717,-103.5329 2510.5762,-103.2423 2506.199,-102.8953 2501.8446,-102.4928 2497.518,-102.036 2493.2248,-101.5262 2488.9714,-100.9647 2484.7647,-100.353 2480.6126,-99.6929 2476.5234,-98.9862 2472.5066,-98.2347 2468.5722,-97.4406 2464.7308,-96.6061 2460.9941,-95.7333 2457.3742,-94.8248 2453.8839,-93.8829 2450.5366,-92.9104 2447.346,-91.9097 2444.3263,-90.8838 2441.4921,-89.8354 2438.8581,-88.7673 2436.4389,-87.6826 2434.2492,-86.5841 2432.3035,-85.4749 2430.6161,-84.358 2429.2005,-83.2365 2428.0699,-82.1135 2427.2368,-80.992 2426.7125,-79.8751 2426.5077,-78.7659 2426.6318,-77.6675 2427.0928,-76.5827 2427.8976,-75.5146 2429.0514,-74.4662 2430.5581,-73.4403 2432.4197,-72.4397 2434.6365,-71.4671 2437.2071,-70.5252 2440.1283,-69.6167 2443.3948,-68.744 2446.9998,-67.9094 2450.9343,-67.1153 2455.1874,-66.3638 2459.7467,-65.6571 2464.5975,-64.997 2469.7239,-64.3854 2475.1079,-63.8238 2480.7301,-63.314 2486.5697,-62.8572 2492.6045,-62.4548 2498.811,-62.1077 2505.1646,-61.8171 2511.64,-61.5836 2518.2109,-61.4079 2524.8505,-61.2905 2531.5314,-61.2317 2538.2261,-61.2317 2544.907,-61.2905"/>
<text text-anchor="middle" x="2534.8787" y="-85.675" font-family="Courier,monospace" font-weight="bold" font-size="10.00" fill="#000000">((&#45;1, &#39;SINK&#39;), 0)</text>
<text text-anchor="middle" x="2534.8787" y="-74.675" font-family="Courier,monospace" font-weight="bold" font-size="10.00" fill="#000000">1.0</text>
</g>
<!-- ((&#45;1, &#39;SOURCE&#39;), 0) -->
<g id="node2" class="node">
<title>((&#45;1, &#39;SOURCE&#39;), 0)</title>
<polygon fill="none" stroke="#000000" points="137.3693,-81.2905 145.059,-81.4079 152.6691,-81.5836 160.1686,-81.8171 167.5271,-82.1077 174.7152,-82.4548 181.7044,-82.8572 188.4676,-83.314 194.979,-83.8238 201.2145,-84.3854 207.1516,-84.997 212.7697,-85.6571 218.05,-86.3638 222.9758,-87.1153 227.5325,-87.9094 231.7077,-88.744 235.4909,-89.6167 238.874,-90.5252 241.8512,-91.4671 244.4186,-92.4397 246.5746,-93.4403 248.3196,-94.4662 249.6559,-95.5146 250.588,-96.5827 251.1219,-97.6675 251.2655,-98.7659 251.0284,-99.8751 250.4212,-100.992 249.4563,-102.1135 248.1469,-103.2365 246.5075,-104.358 244.5531,-105.4749 242.2997,-106.5841 239.7638,-107.6826 236.9619,-108.7673 233.9113,-109.8354 230.6288,-110.8838 227.1316,-111.9097 223.4364,-112.9104 219.5596,-113.8829 215.5173,-114.8248 211.3249,-115.7333 206.9972,-116.6061 202.5484,-117.4406 197.9917,-118.2347 193.3396,-118.9862 188.6037,-119.6929 183.7949,-120.353 178.9229,-120.9647 173.9968,-121.5262 169.0246,-122.036 164.0137,-122.4928 158.9706,-122.8953 153.9011,-123.2423 148.8105,-123.5329 143.7033,-123.7664 138.5837,-123.9421 133.4556,-124.0595 128.3224,-124.1183 123.1876,-124.1183 118.0545,-124.0595 112.9263,-123.9421 107.8068,-123.7664 102.6996,-123.5329 97.6089,-123.2423 92.5395,-122.8953 87.4964,-122.4928 82.4854,-122.036 77.5133,-121.5262 72.5871,-120.9647 67.7151,-120.353 62.9063,-119.6929 58.1705,-118.9862 53.5184,-118.2347 48.9617,-117.4406 44.5128,-116.6061 40.1851,-115.7333 35.9927,-114.8248 31.9504,-113.8829 28.0736,-112.9104 24.3784,-111.9097 20.8812,-110.8838 17.5988,-109.8354 14.5481,-108.7673 11.7463,-107.6826 9.2103,-106.5841 6.9569,-105.4749 5.0026,-104.358 3.3631,-103.2365 2.0538,-102.1135 1.0888,-100.992 .4817,-99.8751 .2445,-98.7659 .3882,-97.6675 .9221,-96.5827 1.8542,-95.5146 3.1905,-94.4662 4.9354,-93.4403 7.0914,-92.4397 9.6588,-91.4671 12.636,-90.5252 16.0192,-89.6167 19.8024,-88.744 23.9775,-87.9094 28.5342,-87.1153 33.4601,-86.3638 38.7404,-85.6571 44.3584,-84.997 50.2955,-84.3854 56.531,-83.8238 63.0425,-83.314 69.8056,-82.8572 76.7948,-82.4548 83.9829,-82.1077 91.3415,-81.8171 98.841,-81.5836 106.4511,-81.4079 114.1407,-81.2905 121.8783,-81.2317 129.6318,-81.2317 137.3693,-81.2905"/>
<text text-anchor="middle" x="125.755" y="-105.675" font-family="Courier,monospace" font-weight="bold" font-size="10.00" fill="#000000">((&#45;1, &#39;SOURCE&#39;), 0)</text>
<text text-anchor="middle" x="125.755" y="-94.675" font-family="Courier,monospace" font-weight="bold" font-size="10.00" fill="#000000">0.021937444122028853</text>
</g>
<!-- ((0, &#39;A&#39;), 0) -->
<g id="node3" class="node">
<title>((0, &#39;A&#39;), 0)</title>
<polygon fill="none" stroke="#000000" points="705.8518,-32.2905 713.2015,-32.4079 720.4752,-32.5836 727.6432,-32.8171 734.6764,-33.1077 741.5467,-33.4548 748.227,-33.8572 754.6912,-34.314 760.9147,-34.8238 766.8746,-35.3854 772.5492,-35.997 777.9189,-36.6571 782.9658,-37.3638 787.6739,-38.1153 792.0292,-38.9094 796.0197,-39.744 799.6357,-40.6167 802.8693,-41.5252 805.7149,-42.4671 808.1688,-43.4397 810.2295,-44.4403 811.8973,-45.4662 813.1745,-46.5146 814.0654,-47.5827 814.5757,-48.6675 814.713,-49.7659 814.4863,-50.8751 813.906,-51.992 812.9837,-53.1135 811.7323,-54.2365 810.1653,-55.358 808.2973,-56.4749 806.1436,-57.5841 803.7197,-58.6826 801.0417,-59.7673 798.1259,-60.8354 794.9886,-61.8838 791.646,-62.9097 788.1141,-63.9104 784.4087,-64.8829 780.5451,-65.8248 776.538,-66.7333 772.4017,-67.6061 768.1495,-68.4406 763.7942,-69.2347 759.3478,-69.9862 754.8213,-70.6929 750.225,-71.353 745.5684,-71.9647 740.8601,-72.5262 736.1077,-73.036 731.3183,-73.4928 726.4981,-73.8953 721.6528,-74.2423 716.7871,-74.5329 711.9057,-74.7664 707.0125,-74.9421 702.1111,-75.0595 697.2048,-75.1183 692.297,-75.1183 687.3908,-75.0595 682.4894,-74.9421 677.5961,-74.7664 672.7147,-74.5329 667.8491,-74.2423 663.0037,-73.8953 658.1835,-73.4928 653.3941,-73.036 648.6418,-72.5262 643.9334,-71.9647 639.2768,-71.353 634.6806,-70.6929 630.1541,-69.9862 625.7076,-69.2347 621.3524,-68.4406 617.1002,-67.6061 612.9638,-66.7333 608.9567,-65.8248 605.0931,-64.8829 601.3877,-63.9104 597.8558,-62.9097 594.5132,-61.8838 591.3759,-60.8354 588.4601,-59.7673 585.7821,-58.6826 583.3583,-57.5841 581.2045,-56.4749 579.3366,-55.358 577.7696,-54.2365 576.5181,-53.1135 575.5958,-51.992 575.0155,-50.8751 574.7888,-49.7659 574.9261,-48.6675 575.4365,-47.5827 576.3273,-46.5146 577.6046,-45.4662 579.2724,-44.4403 581.333,-43.4397 583.787,-42.4671 586.6325,-41.5252 589.8661,-40.6167 593.4821,-39.744 597.4727,-38.9094 601.828,-38.1153 606.536,-37.3638 611.5829,-36.6571 616.9526,-35.997 622.6273,-35.3854 628.5871,-34.8238 634.8107,-34.314 641.2749,-33.8572 647.9551,-33.4548 654.8254,-33.1077 661.8587,-32.8171 669.0267,-32.5836 676.3004,-32.4079 683.65,-32.2905 691.0455,-32.2317 698.4563,-32.2317 705.8518,-32.2905"/>
<text text-anchor="middle" x="694.7509" y="-56.675" font-family="Courier,monospace" font-weight="bold" font-size="10.00" fill="#000000">((0, &#39;A&#39;), 0)</text>
<text text-anchor="middle" x="694.7509" y="-45.675" font-family="Courier,monospace" font-weight="bold" font-size="10.00" fill="#000000">0.03763627156778639</text>
</g>
<!-- ((&#45;1, &#39;SOURCE&#39;), 0)&#45;&gt;((0, &#39;A&#39;), 0) -->
<g id="edge1" class="edge">
<title>((&#45;1, &#39;SOURCE&#39;), 0)&#45;&gt;((0, &#39;A&#39;), 0)</title>
<path fill="none" stroke="#000000" d="M208.5464,-85.0691C233.7885,-80.3103 261.6909,-75.6574 287.51,-72.675 381.2337,-61.8489 487.7678,-57.1456 568.3606,-55.1242"/>
<polygon fill="#000000" stroke="#000000" points="568.643,-58.6185 578.556,-54.8792 568.4748,-51.6205 568.643,-58.6185"/>
</g>
<!-- ((0, &#39;B&#39;), 0) -->
<g id="node4" class="node">
<title>((0, &#39;B&#39;), 0)</title>
<polygon fill="none" stroke="#000000" points="424.8794,-141.2905 432.569,-141.4079 440.1791,-141.5836 447.6786,-141.8171 455.0372,-142.1077 462.2252,-142.4548 469.2144,-142.8572 475.9776,-143.314 482.4891,-143.8238 488.7246,-144.3854 494.6617,-144.997 500.2797,-145.6571 505.56,-146.3638 510.4858,-147.1153 515.0426,-147.9094 519.2177,-148.744 523.0009,-149.6167 526.3841,-150.5252 529.3613,-151.4671 531.9287,-152.4397 534.0847,-153.4403 535.8296,-154.4662 537.1659,-155.5146 538.098,-156.5827 538.6319,-157.6675 538.7756,-158.7659 538.5384,-159.8751 537.9313,-160.992 536.9663,-162.1135 535.657,-163.2365 534.0175,-164.358 532.0632,-165.4749 529.8098,-166.5841 527.2738,-167.6826 524.472,-168.7673 521.4213,-169.8354 518.1389,-170.8838 514.6417,-171.9097 510.9465,-172.9104 507.0697,-173.8829 503.0274,-174.8248 498.835,-175.7333 494.5073,-176.6061 490.0584,-177.4406 485.5017,-178.2347 480.8496,-178.9862 476.1138,-179.6929 471.3049,-180.353 466.433,-180.9647 461.5068,-181.5262 456.5347,-182.036 451.5237,-182.4928 446.4806,-182.8953 441.4112,-183.2423 436.3205,-183.5329 431.2133,-183.7664 426.0938,-183.9421 420.9656,-184.0595 415.8325,-184.1183 410.6977,-184.1183 405.5645,-184.0595 400.4364,-183.9421 395.3168,-183.7664 390.2096,-183.5329 385.119,-183.2423 380.0495,-182.8953 375.0064,-182.4928 369.9955,-182.036 365.0233,-181.5262 360.0972,-180.9647 355.2252,-180.353 350.4164,-179.6929 345.6805,-178.9862 341.0284,-178.2347 336.4717,-177.4406 332.0229,-176.6061 327.6952,-175.7333 323.5028,-174.8248 319.4605,-173.8829 315.5837,-172.9104 311.8885,-171.9097 308.3912,-170.8838 305.1088,-169.8354 302.0582,-168.7673 299.2563,-167.6826 296.7204,-166.5841 294.467,-165.4749 292.5126,-164.358 290.8732,-163.2365 289.5638,-162.1135 288.5989,-160.992 287.9917,-159.8751 287.7545,-158.7659 287.8982,-157.6675 288.4321,-156.5827 289.3642,-155.5146 290.7005,-154.4662 292.4455,-153.4403 294.6015,-152.4397 297.1689,-151.4671 300.146,-150.5252 303.5292,-149.6167 307.3124,-148.744 311.4876,-147.9094 316.0443,-147.1153 320.9701,-146.3638 326.2504,-145.6571 331.8685,-144.997 337.8056,-144.3854 344.0411,-143.8238 350.5525,-143.314 357.3157,-142.8572 364.3049,-142.4548 371.493,-142.1077 378.8515,-141.8171 386.351,-141.5836 393.9611,-141.4079 401.6508,-141.2905 409.3883,-141.2317 417.1418,-141.2317 424.8794,-141.2905"/>
<text text-anchor="middle" x="413.2651" y="-165.675" font-family="Courier,monospace" font-weight="bold" font-size="10.00" fill="#000000">((0, &#39;B&#39;), 0)</text>
<text text-anchor="middle" x="413.2651" y="-154.675" font-family="Courier,monospace" font-weight="bold" font-size="10.00" fill="#000000">0.011669288290689563</text>
</g>
<!-- ((&#45;1, &#39;SOURCE&#39;), 0)&#45;&gt;((0, &#39;B&#39;), 0) -->
<g id="edge2" class="edge">
<title>((&#45;1, &#39;SOURCE&#39;), 0)&#45;&gt;((0, &#39;B&#39;), 0)</title>
<path fill="none" stroke="#000000" d="M199.4227,-118.0486C236.0802,-125.6986 280.7881,-135.0286 319.8294,-143.1761"/>
<polygon fill="#000000" stroke="#000000" points="319.1205,-146.6035 329.6247,-145.2202 320.5506,-139.7511 319.1205,-146.6035"/>
</g>
<!-- ((0, &#39;B&#39;), 1) -->
<g id="node5" class="node">
<title>((0, &#39;B&#39;), 1)</title>
<polygon fill="none" stroke="#000000" points="424.3659,-81.2905 431.7156,-81.4079 438.9893,-81.5836 446.1573,-81.8171 453.1906,-82.1077 460.0609,-82.4548 466.7411,-82.8572 473.2053,-83.314 479.4289,-83.8238 485.3887,-84.3854 491.0634,-84.997 496.4331,-85.6571 501.48,-86.3638 506.188,-87.1153 510.5433,-87.9094 514.5339,-88.744 518.1499,-89.6167 521.3835,-90.5252 524.229,-91.4671 526.6829,-92.4397 528.7436,-93.4403 530.4114,-94.4662 531.6887,-95.5146 532.5795,-96.5827 533.0899,-97.6675 533.2272,-98.7659 533.0005,-99.8751 532.4202,-100.992 531.4979,-102.1135 530.2464,-103.2365 528.6794,-104.358 526.8115,-105.4749 524.6577,-106.5841 522.2338,-107.6826 519.5559,-108.7673 516.6401,-109.8354 513.5028,-110.8838 510.1601,-111.9097 506.6283,-112.9104 502.9229,-113.8829 499.0593,-114.8248 495.0522,-115.7333 490.9158,-116.6061 486.6636,-117.4406 482.3083,-118.2347 477.8619,-118.9862 473.3354,-119.6929 468.7392,-120.353 464.0826,-120.9647 459.3742,-121.5262 454.6218,-122.036 449.8324,-122.4928 445.0123,-122.8953 440.1669,-123.2423 435.3013,-123.5329 430.4199,-123.7664 425.5266,-123.9421 420.6252,-124.0595 415.719,-124.1183 410.8112,-124.1183 405.9049,-124.0595 401.0035,-123.9421 396.1103,-123.7664 391.2288,-123.5329 386.3632,-123.2423 381.5179,-122.8953 376.6977,-122.4928 371.9083,-122.036 367.1559,-121.5262 362.4476,-120.9647 357.791,-120.353 353.1947,-119.6929 348.6682,-118.9862 344.2218,-118.2347 339.8665,-117.4406 335.6143,-116.6061 331.4779,-115.7333 327.4709,-114.8248 323.6073,-113.8829 319.9019,-112.9104 316.37,-111.9097 313.0274,-110.8838 309.8901,-109.8354 306.9743,-108.7673 304.2963,-107.6826 301.8724,-106.5841 299.7187,-105.4749 297.8507,-104.358 296.2837,-103.2365 295.0322,-102.1135 294.11,-100.992 293.5297,-99.8751 293.303,-98.7659 293.4403,-97.6675 293.9506,-96.5827 294.8415,-95.5146 296.1187,-94.4662 297.7865,-93.4403 299.8472,-92.4397 302.3011,-91.4671 305.1467,-90.5252 308.3803,-89.6167 311.9963,-88.744 315.9868,-87.9094 320.3421,-87.1153 325.0502,-86.3638 330.097,-85.6571 335.4668,-84.997 341.1414,-84.3854 347.1012,-83.8238 353.3248,-83.314 359.789,-82.8572 366.4693,-82.4548 373.3396,-82.1077 380.3728,-81.8171 387.5408,-81.5836 394.8145,-81.4079 402.1642,-81.2905 409.5597,-81.2317 416.9705,-81.2317 424.3659,-81.2905"/>
<text text-anchor="middle" x="413.2651" y="-105.675" font-family="Courier,monospace" font-weight="bold" font-size="10.00" fill="#000000">((0, &#39;B&#39;), 1)</text>
<text text-anchor="middle" x="413.2651" y="-94.675" font-family="Courier,monospace" font-weight="bold" font-size="10.00" fill="#000000">0.02582952175820652</text>
</g>
<!-- ((&#45;1, &#39;SOURCE&#39;), 0)&#45;&gt;((0, &#39;B&#39;), 1) -->
<g id="edge3" class="edge">
<title>((&#45;1, &#39;SOURCE&#39;), 0)&#45;&gt;((0, &#39;B&#39;), 1)</title>
<path fill="none" stroke="#000000" d="M248.9363,-102.675C260.9626,-102.675 273.1851,-102.675 285.2575,-102.675"/>
<polygon fill="#000000" stroke="#000000" points="285.3556,-106.1751 295.3556,-102.675 285.3555,-99.1751 285.3556,-106.1751"/>
</g>
<!-- ((1, &#39;A&#39;), 0) -->
<g id="node7" class="node">
<title>((1, &#39;A&#39;), 0)</title>
<polygon fill="none" stroke="#000000" points="1268.8235,-66.2905 1276.1732,-66.4079 1283.4469,-66.5836 1290.6149,-66.8171 1297.6481,-67.1077 1304.5184,-67.4548 1311.1987,-67.8572 1317.6629,-68.314 1323.8864,-68.8238 1329.8463,-69.3854 1335.5209,-69.997 1340.8907,-70.6571 1345.9375,-71.3638 1350.6456,-72.1153 1355.0009,-72.9094 1358.9914,-73.744 1362.6074,-74.6167 1365.841,-75.5252 1368.6866,-76.4671 1371.1405,-77.4397 1373.2012,-78.4403 1374.869,-79.4662 1376.1462,-80.5146 1377.0371,-81.5827 1377.5474,-82.6675 1377.6847,-83.7659 1377.458,-84.8751 1376.8777,-85.992 1375.9554,-87.1135 1374.704,-88.2365 1373.137,-89.358 1371.269,-90.4749 1369.1153,-91.5841 1366.6914,-92.6826 1364.0134,-93.7673 1361.0976,-94.8354 1357.9603,-95.8838 1354.6177,-96.9097 1351.0858,-97.9104 1347.3804,-98.8829 1343.5168,-99.8248 1339.5098,-100.7333 1335.3734,-101.6061 1331.1212,-102.4406 1326.7659,-103.2347 1322.3195,-103.9862 1317.793,-104.6929 1313.1967,-105.353 1308.5401,-105.9647 1303.8318,-106.5262 1299.0794,-107.036 1294.29,-107.4928 1289.4698,-107.8953 1284.6245,-108.2423 1279.7589,-108.5329 1274.8774,-108.7664 1269.9842,-108.9421 1265.0828,-109.0595 1260.1765,-109.1183 1255.2687,-109.1183 1250.3625,-109.0595 1245.4611,-108.9421 1240.5678,-108.7664 1235.6864,-108.5329 1230.8208,-108.2423 1225.9754,-107.8953 1221.1552,-107.4928 1216.3659,-107.036 1211.6135,-106.5262 1206.9051,-105.9647 1202.2485,-105.353 1197.6523,-104.6929 1193.1258,-103.9862 1188.6793,-103.2347 1184.3241,-102.4406 1180.0719,-101.6061 1175.9355,-100.7333 1171.9284,-99.8248 1168.0648,-98.8829 1164.3594,-97.9104 1160.8276,-96.9097 1157.4849,-95.8838 1154.3476,-94.8354 1151.4318,-93.7673 1148.7539,-92.6826 1146.33,-91.5841 1144.1762,-90.4749 1142.3083,-89.358 1140.7413,-88.2365 1139.4898,-87.1135 1138.5675,-85.992 1137.9872,-84.8751 1137.7605,-83.7659 1137.8978,-82.6675 1138.4082,-81.5827 1139.299,-80.5146 1140.5763,-79.4662 1142.2441,-78.4403 1144.3047,-77.4397 1146.7587,-76.4671 1149.6042,-75.5252 1152.8378,-74.6167 1156.4538,-73.744 1160.4444,-72.9094 1164.7997,-72.1153 1169.5077,-71.3638 1174.5546,-70.6571 1179.9243,-69.997 1185.599,-69.3854 1191.5588,-68.8238 1197.7824,-68.314 1204.2466,-67.8572 1210.9268,-67.4548 1217.7971,-67.1077 1224.8304,-66.8171 1231.9984,-66.5836 1239.2721,-66.4079 1246.6218,-66.2905 1254.0172,-66.2317 1261.428,-66.2317 1268.8235,-66.2905"/>
<text text-anchor="middle" x="1257.7226" y="-90.675" font-family="Courier,monospace" font-weight="bold" font-size="10.00" fill="#000000">((1, &#39;A&#39;), 0)</text>
<text text-anchor="middle" x="1257.7226" y="-79.675" font-family="Courier,monospace" font-weight="bold" font-size="10.00" fill="#000000">0.06504764994935923</text>
</g>
<!-- ((0, &#39;A&#39;), 0)&#45;&gt;((1, &#39;A&#39;), 0) -->
<g id="edge4" class="edge">
<title>((0, &#39;A&#39;), 0)&#45;&gt;((1, &#39;A&#39;), 0)</title>
<path fill="none" stroke="#000000" d="M752.473,-34.033C833.6509,-9.7692 984.7299,22.9458 1101.9918,-23.675 1122.4426,-31.8058 1118.6905,-47.1013 1137.9918,-57.675 1145.0064,-61.5178 1152.5208,-64.8778 1160.24,-67.814"/>
<polygon fill="#000000" stroke="#000000" points="1159.1427,-71.1385 1169.7375,-71.1894 1161.4869,-64.5426 1159.1427,-71.1385"/>
</g>
<!-- ((1, &#39;B&#39;), 0) -->
<g id="node8" class="node">
<title>((1, &#39;B&#39;), 0)</title>
<polygon fill="none" stroke="#000000" points="987.8511,-92.2905 995.5407,-92.4079 1003.1508,-92.5836 1010.6503,-92.8171 1018.0089,-93.1077 1025.197,-93.4548 1032.1862,-93.8572 1038.9493,-94.314 1045.4608,-94.8238 1051.6963,-95.3854 1057.6334,-95.997 1063.2514,-96.6571 1068.5317,-97.3638 1073.4576,-98.1153 1078.0143,-98.9094 1082.1894,-99.744 1085.9726,-100.6167 1089.3558,-101.5252 1092.333,-102.4671 1094.9004,-103.4397 1097.0564,-104.4403 1098.8013,-105.4662 1100.1376,-106.5146 1101.0697,-107.5827 1101.6036,-108.6675 1101.7473,-109.7659 1101.5101,-110.8751 1100.903,-111.992 1099.938,-113.1135 1098.6287,-114.2365 1096.9892,-115.358 1095.0349,-116.4749 1092.7815,-117.5841 1090.2455,-118.6826 1087.4437,-119.7673 1084.393,-120.8354 1081.1106,-121.8838 1077.6134,-122.9097 1073.9182,-123.9104 1070.0414,-124.8829 1065.9991,-125.8248 1061.8067,-126.7333 1057.479,-127.6061 1053.0301,-128.4406 1048.4734,-129.2347 1043.8213,-129.9862 1039.0855,-130.6929 1034.2766,-131.353 1029.4047,-131.9647 1024.4785,-132.5262 1019.5064,-133.036 1014.4954,-133.4928 1009.4523,-133.8953 1004.3829,-134.2423 999.2922,-134.5329 994.185,-134.7664 989.0655,-134.9421 983.9373,-135.0595 978.8042,-135.1183 973.6694,-135.1183 968.5362,-135.0595 963.4081,-134.9421 958.2885,-134.7664 953.1813,-134.5329 948.0907,-134.2423 943.0212,-133.8953 937.9781,-133.4928 932.9672,-133.036 927.995,-132.5262 923.0689,-131.9647 918.1969,-131.353 913.3881,-130.6929 908.6522,-129.9862 904.0001,-129.2347 899.4434,-128.4406 894.9946,-127.6061 890.6669,-126.7333 886.4745,-125.8248 882.4322,-124.8829 878.5554,-123.9104 874.8602,-122.9097 871.363,-121.8838 868.0805,-120.8354 865.0299,-119.7673 862.228,-118.6826 859.6921,-117.5841 857.4387,-116.4749 855.4843,-115.358 853.8449,-114.2365 852.5355,-113.1135 851.5706,-111.992 850.9634,-110.8751 850.7263,-109.7659 850.8699,-108.6675 851.4038,-107.5827 852.3359,-106.5146 853.6722,-105.4662 855.4172,-104.4403 857.5732,-103.4397 860.1406,-102.4671 863.1177,-101.5252 866.5009,-100.6167 870.2841,-99.744 874.4593,-98.9094 879.016,-98.1153 883.9418,-97.3638 889.2221,-96.6571 894.8402,-95.997 900.7773,-95.3854 907.0128,-94.8238 913.5242,-94.314 920.2874,-93.8572 927.2766,-93.4548 934.4647,-93.1077 941.8232,-92.8171 949.3227,-92.5836 956.9328,-92.4079 964.6225,-92.2905 972.36,-92.2317 980.1135,-92.2317 987.8511,-92.2905"/>
<text text-anchor="middle" x="976.2368" y="-116.675" font-family="Courier,monospace" font-weight="bold" font-size="10.00" fill="#000000">((1, &#39;B&#39;), 0)</text>
<text text-anchor="middle" x="976.2368" y="-105.675" font-family="Courier,monospace" font-weight="bold" font-size="10.00" fill="#000000">0.020653848703040052</text>
</g>
<!-- ((0, &#39;A&#39;), 0)&#45;&gt;((1, &#39;B&#39;), 0) -->
<g id="edge5" class="edge">
<title>((0, &#39;A&#39;), 0)&#45;&gt;((1, &#39;B&#39;), 0)</title>
<path fill="none" stroke="#000000" d="M766.1456,-68.8931C801.8052,-76.4941 845.383,-85.7829 883.587,-93.9263"/>
<polygon fill="#000000" stroke="#000000" points="883.1808,-97.4183 893.6907,-96.0799 884.6401,-90.5721 883.1808,-97.4183"/>
</g>
<!-- ((1, &#39;B&#39;), 1) -->
<g id="node9" class="node">
<title>((1, &#39;B&#39;), 1)</title>
<polygon fill="none" stroke="#000000" points="987.3376,-32.2905 994.6873,-32.4079 1001.961,-32.5836 1009.129,-32.8171 1016.1623,-33.1077 1023.0326,-33.4548 1029.7128,-33.8572 1036.177,-34.314 1042.4006,-34.8238 1048.3604,-35.3854 1054.0351,-35.997 1059.4048,-36.6571 1064.4517,-37.3638 1069.1597,-38.1153 1073.515,-38.9094 1077.5056,-39.744 1081.1216,-40.6167 1084.3552,-41.5252 1087.2007,-42.4671 1089.6547,-43.4397 1091.7153,-44.4403 1093.3831,-45.4662 1094.6604,-46.5146 1095.5512,-47.5827 1096.0616,-48.6675 1096.1989,-49.7659 1095.9722,-50.8751 1095.3919,-51.992 1094.4696,-53.1135 1093.2181,-54.2365 1091.6511,-55.358 1089.7832,-56.4749 1087.6294,-57.5841 1085.2055,-58.6826 1082.5276,-59.7673 1079.6118,-60.8354 1076.4745,-61.8838 1073.1318,-62.9097 1069.6,-63.9104 1065.8946,-64.8829 1062.031,-65.8248 1058.0239,-66.7333 1053.8875,-67.6061 1049.6353,-68.4406 1045.2801,-69.2347 1040.8336,-69.9862 1036.3071,-70.6929 1031.7109,-71.353 1027.0543,-71.9647 1022.3459,-72.5262 1017.5935,-73.036 1012.8042,-73.4928 1007.984,-73.8953 1003.1386,-74.2423 998.273,-74.5329 993.3916,-74.7664 988.4983,-74.9421 983.5969,-75.0595 978.6907,-75.1183 973.7829,-75.1183 968.8766,-75.0595 963.9752,-74.9421 959.082,-74.7664 954.2005,-74.5329 949.3349,-74.2423 944.4896,-73.8953 939.6694,-73.4928 934.88,-73.036 930.1276,-72.5262 925.4193,-71.9647 920.7627,-71.353 916.1664,-70.6929 911.6399,-69.9862 907.1935,-69.2347 902.8382,-68.4406 898.586,-67.6061 894.4497,-66.7333 890.4426,-65.8248 886.579,-64.8829 882.8736,-63.9104 879.3417,-62.9097 875.9991,-61.8838 872.8618,-60.8354 869.946,-59.7673 867.268,-58.6826 864.8441,-57.5841 862.6904,-56.4749 860.8224,-55.358 859.2554,-54.2365 858.004,-53.1135 857.0817,-51.992 856.5014,-50.8751 856.2747,-49.7659 856.412,-48.6675 856.9223,-47.5827 857.8132,-46.5146 859.0904,-45.4662 860.7582,-44.4403 862.8189,-43.4397 865.2728,-42.4671 868.1184,-41.5252 871.352,-40.6167 874.968,-39.744 878.9585,-38.9094 883.3138,-38.1153 888.0219,-37.3638 893.0687,-36.6571 898.4385,-35.997 904.1131,-35.3854 910.073,-34.8238 916.2965,-34.314 922.7607,-33.8572 929.441,-33.4548 936.3113,-33.1077 943.3445,-32.8171 950.5125,-32.5836 957.7862,-32.4079 965.1359,-32.2905 972.5314,-32.2317 979.9422,-32.2317 987.3376,-32.2905"/>
<text text-anchor="middle" x="976.2368" y="-56.675" font-family="Courier,monospace" font-weight="bold" font-size="10.00" fill="#000000">((1, &#39;B&#39;), 1)</text>
<text text-anchor="middle" x="976.2368" y="-45.675" font-family="Courier,monospace" font-weight="bold" font-size="10.00" fill="#000000">0.04395949770190257</text>
</g>
<!-- ((0, &#39;A&#39;), 0)&#45;&gt;((1, &#39;B&#39;), 1) -->
<g id="edge6" class="edge">
<title>((0, &#39;A&#39;), 0)&#45;&gt;((1, &#39;B&#39;), 1)</title>
<path fill="none" stroke="#000000" d="M812.4953,-53.675C824.3828,-53.675 836.4952,-53.675 848.481,-53.675"/>
<polygon fill="#000000" stroke="#000000" points="848.5115,-57.1751 858.5115,-53.675 848.5115,-50.1751 848.5115,-57.1751"/>
</g>
<!-- ((0, &#39;B&#39;), 0)&#45;&gt;((1, &#39;A&#39;), 0) -->
<g id="edge7" class="edge">
<title>((0, &#39;B&#39;), 0)&#45;&gt;((1, &#39;A&#39;), 0)</title>
<path fill="none" stroke="#000000" d="M520.5683,-170.1333C657.0075,-177.2453 899.2278,-181.9117 1101.9918,-143.675 1137.7865,-136.9249 1176.3215,-123.1263 1206.1039,-110.916"/>
<polygon fill="#000000" stroke="#000000" points="1207.5686,-114.0974 1215.4514,-107.0183 1204.8746,-107.6365 1207.5686,-114.0974"/>
</g>
<!-- ((0, &#39;C&#39;), 0) -->
<g id="node6" class="node">
<title>((0, &#39;C&#39;), 0)</title>
<polygon fill="none" stroke="#000000" points="705.8518,-92.2905 713.2015,-92.4079 720.4752,-92.5836 727.6432,-92.8171 734.6764,-93.1077 741.5467,-93.4548 748.227,-93.8572 754.6912,-94.314 760.9147,-94.8238 766.8746,-95.3854 772.5492,-95.997 777.9189,-96.6571 782.9658,-97.3638 787.6739,-98.1153 792.0292,-98.9094 796.0197,-99.744 799.6357,-100.6167 802.8693,-101.5252 805.7149,-102.4671 808.1688,-103.4397 810.2295,-104.4403 811.8973,-105.4662 813.1745,-106.5146 814.0654,-107.5827 814.5757,-108.6675 814.713,-109.7659 814.4863,-110.8751 813.906,-111.992 812.9837,-113.1135 811.7323,-114.2365 810.1653,-115.358 808.2973,-116.4749 806.1436,-117.5841 803.7197,-118.6826 801.0417,-119.7673 798.1259,-120.8354 794.9886,-121.8838 791.646,-122.9097 788.1141,-123.9104 784.4087,-124.8829 780.5451,-125.8248 776.538,-126.7333 772.4017,-127.6061 768.1495,-128.4406 763.7942,-129.2347 759.3478,-129.9862 754.8213,-130.6929 750.225,-131.353 745.5684,-131.9647 740.8601,-132.5262 736.1077,-133.036 731.3183,-133.4928 726.4981,-133.8953 721.6528,-134.2423 716.7871,-134.5329 711.9057,-134.7664 707.0125,-134.9421 702.1111,-135.0595 697.2048,-135.1183 692.297,-135.1183 687.3908,-135.0595 682.4894,-134.9421 677.5961,-134.7664 672.7147,-134.5329 667.8491,-134.2423 663.0037,-133.8953 658.1835,-133.4928 653.3941,-133.036 648.6418,-132.5262 643.9334,-131.9647 639.2768,-131.353 634.6806,-130.6929 630.1541,-129.9862 625.7076,-129.2347 621.3524,-128.4406 617.1002,-127.6061 612.9638,-126.7333 608.9567,-125.8248 605.0931,-124.8829 601.3877,-123.9104 597.8558,-122.9097 594.5132,-121.8838 591.3759,-120.8354 588.4601,-119.7673 585.7821,-118.6826 583.3583,-117.5841 581.2045,-116.4749 579.3366,-115.358 577.7696,-114.2365 576.5181,-113.1135 575.5958,-111.992 575.0155,-110.8751 574.7888,-109.7659 574.9261,-108.6675 575.4365,-107.5827 576.3273,-106.5146 577.6046,-105.4662 579.2724,-104.4403 581.333,-103.4397 583.787,-102.4671 586.6325,-101.5252 589.8661,-100.6167 593.4821,-99.744 597.4727,-98.9094 601.828,-98.1153 606.536,-97.3638 611.5829,-96.6571 616.9526,-95.997 622.6273,-95.3854 628.5871,-94.8238 634.8107,-94.314 641.2749,-93.8572 647.9551,-93.4548 654.8254,-93.1077 661.8587,-92.8171 669.0267,-92.5836 676.3004,-92.4079 683.65,-92.2905 691.0455,-92.2317 698.4563,-92.2317 705.8518,-92.2905"/>
<text text-anchor="middle" x="694.7509" y="-116.675" font-family="Courier,monospace" font-weight="bold" font-size="10.00" fill="#000000">((0, &#39;C&#39;), 0)</text>
<text text-anchor="middle" x="694.7509" y="-105.675" font-family="Courier,monospace" font-weight="bold" font-size="10.00" fill="#000000">0.03695420921550302</text>
</g>
<!-- ((0, &#39;B&#39;), 1)&#45;&gt;((0, &#39;C&#39;), 0) -->
<g id="edge8" class="edge">
<title>((0, &#39;B&#39;), 1)&#45;&gt;((0, &#39;C&#39;), 0)</title>
<path fill="none" stroke="#000000" d="M524.1117,-107.0067C537.3522,-107.5241 550.9629,-108.056 564.4452,-108.5829"/>
<polygon fill="#000000" stroke="#000000" points="564.5927,-112.0912 574.7218,-108.9845 564.8661,-105.0966 564.5927,-112.0912"/>
</g>
<!-- ((0, &#39;C&#39;), 0)&#45;&gt;((1, &#39;B&#39;), 0) -->
<g id="edge9" class="edge">
<title>((0, &#39;C&#39;), 0)&#45;&gt;((1, &#39;B&#39;), 0)</title>
<path fill="none" stroke="#000000" d="M812.4953,-113.675C822.5514,-113.675 832.7685,-113.675 842.9337,-113.675"/>
<polygon fill="#000000" stroke="#000000" points="843.0737,-117.1751 853.0737,-113.675 843.0737,-110.1751 843.0737,-117.1751"/>
</g>
<!-- ((0, &#39;C&#39;), 0)&#45;&gt;((1, &#39;B&#39;), 1) -->
<g id="edge10" class="edge">
<title>((0, &#39;C&#39;), 0)&#45;&gt;((1, &#39;B&#39;), 1)</title>
<path fill="none" stroke="#000000" d="M776.1683,-96.3205C813.58,-88.346 857.8371,-78.9124 895.202,-70.9479"/>
<polygon fill="#000000" stroke="#000000" points="895.9934,-74.358 905.044,-68.8501 894.5341,-67.5118 895.9934,-74.358"/>
</g>
<!-- ((2, &#39;A&#39;), 0) -->
<g id="node11" class="node">
<title>((2, &#39;A&#39;), 0)</title>
<polygon fill="none" stroke="#000000" points="1543.7723,-121.2905 1550.7824,-121.4079 1557.72,-121.5836 1564.5568,-121.8171 1571.2651,-122.1077 1577.8179,-122.4548 1584.1895,-122.8572 1590.355,-123.314 1596.2911,-123.8238 1601.9755,-124.3854 1607.388,-124.997 1612.5096,-125.6571 1617.3233,-126.3638 1621.8138,-127.1153 1625.9679,-127.9094 1629.774,-128.744 1633.2229,-129.6167 1636.3071,-130.5252 1639.0212,-131.4671 1641.3618,-132.4397 1643.3272,-133.4403 1644.918,-134.4662 1646.1362,-135.5146 1646.9859,-136.5827 1647.4727,-137.6675 1647.6036,-138.7659 1647.3874,-139.8751 1646.8339,-140.992 1645.9542,-142.1135 1644.7606,-143.2365 1643.266,-144.358 1641.4844,-145.4749 1639.4301,-146.5841 1637.1182,-147.6826 1634.564,-148.7673 1631.7829,-149.8354 1628.7906,-150.8838 1625.6024,-151.9097 1622.2337,-152.9104 1618.6995,-153.8829 1615.0144,-154.8248 1611.1925,-155.7333 1607.2472,-156.6061 1603.1915,-157.4406 1599.0375,-158.2347 1594.7965,-158.9862 1590.4791,-159.6929 1586.0953,-160.353 1581.6538,-160.9647 1577.163,-161.5262 1572.6302,-162.036 1568.0621,-162.4928 1563.4646,-162.8953 1558.8431,-163.2423 1554.2023,-163.5329 1549.5465,-163.7664 1544.8793,-163.9421 1540.2044,-164.0595 1535.5248,-164.1183 1530.8438,-164.1183 1526.1642,-164.0595 1521.4893,-163.9421 1516.8221,-163.7664 1512.1662,-163.5329 1507.5254,-163.2423 1502.9039,-162.8953 1498.3065,-162.4928 1493.7384,-162.036 1489.2056,-161.5262 1484.7148,-160.9647 1480.2733,-160.353 1475.8894,-159.6929 1471.5721,-158.9862 1467.3311,-158.2347 1463.1771,-157.4406 1459.1213,-156.6061 1455.1761,-155.7333 1451.3542,-154.8248 1447.6691,-153.8829 1444.1349,-152.9104 1440.7662,-151.9097 1437.578,-150.8838 1434.5856,-149.8354 1431.8046,-148.7673 1429.2503,-147.6826 1426.9385,-146.5841 1424.8842,-145.4749 1423.1026,-144.358 1421.608,-143.2365 1420.4143,-142.1135 1419.5347,-140.992 1418.9812,-139.8751 1418.765,-138.7659 1418.8959,-137.6675 1419.3827,-136.5827 1420.2324,-135.5146 1421.4506,-134.4662 1423.0414,-133.4403 1425.0068,-132.4397 1427.3473,-131.4671 1430.0614,-130.5252 1433.1456,-129.6167 1436.5945,-128.744 1440.4007,-127.9094 1444.5548,-127.1153 1449.0453,-126.3638 1453.859,-125.6571 1458.9806,-124.997 1464.393,-124.3854 1470.0775,-123.8238 1476.0135,-123.314 1482.1791,-122.8572 1488.5507,-122.4548 1495.1035,-122.1077 1501.8118,-121.8171 1508.6486,-121.5836 1515.5862,-121.4079 1522.5963,-121.2905 1529.6501,-121.2317 1536.7185,-121.2317 1543.7723,-121.2905"/>
<text text-anchor="middle" x="1533.1843" y="-145.675" font-family="Courier,monospace" font-weight="bold" font-size="10.00" fill="#000000">((2, &#39;A&#39;), 0)</text>
<text text-anchor="middle" x="1533.1843" y="-134.675" font-family="Courier,monospace" font-weight="bold" font-size="10.00" fill="#000000">0.3008722054879951</text>
</g>
<!-- ((1, &#39;A&#39;), 0)&#45;&gt;((2, &#39;A&#39;), 0) -->
<g id="edge11" class="edge">
<title>((1, &#39;A&#39;), 0)&#45;&gt;((2, &#39;A&#39;), 0)</title>
<path fill="none" stroke="#000000" d="M1331.5413,-102.414C1365.0454,-109.1036 1405.0328,-117.0877 1440.5302,-124.1753"/>
<polygon fill="#000000" stroke="#000000" points="1439.9224,-127.6229 1450.4142,-126.1487 1441.2931,-120.7584 1439.9224,-127.6229"/>
</g>
<!-- ((2, &#39;B&#39;), 0) -->
<g id="node12" class="node">
<title>((2, &#39;B&#39;), 0)</title>
<polygon fill="none" stroke="#000000" points="1544.2852,-1.2905 1551.6349,-1.4079 1558.9086,-1.5836 1566.0765,-1.8171 1573.1098,-2.1077 1579.9801,-2.4548 1586.6603,-2.8572 1593.1245,-3.314 1599.3481,-3.8238 1605.308,-4.3854 1610.9826,-4.997 1616.3523,-5.6571 1621.3992,-6.3638 1626.1073,-7.1153 1630.4625,-7.9094 1634.4531,-8.744 1638.0691,-9.6167 1641.3027,-10.5252 1644.1483,-11.4671 1646.6022,-12.4397 1648.6628,-13.4403 1650.3306,-14.4662 1651.6079,-15.5146 1652.4988,-16.5827 1653.0091,-17.6675 1653.1464,-18.7659 1652.9197,-19.8751 1652.3394,-20.992 1651.4171,-22.1135 1650.1656,-23.2365 1648.5986,-24.358 1646.7307,-25.4749 1644.5769,-26.5841 1642.1531,-27.6826 1639.4751,-28.7673 1636.5593,-29.8354 1633.422,-30.8838 1630.0794,-31.9097 1626.5475,-32.9104 1622.8421,-33.8829 1618.9785,-34.8248 1614.9714,-35.7333 1610.835,-36.6061 1606.5829,-37.4406 1602.2276,-38.2347 1597.7811,-38.9862 1593.2547,-39.6929 1588.6584,-40.353 1584.0018,-40.9647 1579.2934,-41.5262 1574.5411,-42.036 1569.7517,-42.4928 1564.9315,-42.8953 1560.0861,-43.2423 1555.2205,-43.5329 1550.3391,-43.7664 1545.4459,-43.9421 1540.5444,-44.0595 1535.6382,-44.1183 1530.7304,-44.1183 1525.8241,-44.0595 1520.9227,-43.9421 1516.0295,-43.7664 1511.1481,-43.5329 1506.2825,-43.2423 1501.4371,-42.8953 1496.6169,-42.4928 1491.8275,-42.036 1487.0751,-41.5262 1482.3668,-40.9647 1477.7102,-40.353 1473.1139,-39.6929 1468.5874,-38.9862 1464.141,-38.2347 1459.7857,-37.4406 1455.5335,-36.6061 1451.3972,-35.7333 1447.3901,-34.8248 1443.5265,-33.8829 1439.8211,-32.9104 1436.2892,-31.9097 1432.9466,-30.8838 1429.8093,-29.8354 1426.8935,-28.7673 1424.2155,-27.6826 1421.7916,-26.5841 1419.6379,-25.4749 1417.7699,-24.358 1416.2029,-23.2365 1414.9515,-22.1135 1414.0292,-20.992 1413.4489,-19.8751 1413.2222,-18.7659 1413.3595,-17.6675 1413.8698,-16.5827 1414.7607,-15.5146 1416.0379,-14.4662 1417.7057,-13.4403 1419.7664,-12.4397 1422.2203,-11.4671 1425.0659,-10.5252 1428.2995,-9.6167 1431.9155,-8.744 1435.906,-7.9094 1440.2613,-7.1153 1444.9694,-6.3638 1450.0163,-5.6571 1455.386,-4.997 1461.0606,-4.3854 1467.0205,-3.8238 1473.244,-3.314 1479.7082,-2.8572 1486.3885,-2.4548 1493.2588,-2.1077 1500.292,-1.8171 1507.46,-1.5836 1514.7337,-1.4079 1522.0834,-1.2905 1529.4789,-1.2317 1536.8897,-1.2317 1544.2852,-1.2905"/>
<text text-anchor="middle" x="1533.1843" y="-25.675" font-family="Courier,monospace" font-weight="bold" font-size="10.00" fill="#000000">((2, &#39;B&#39;), 0)</text>
<text text-anchor="middle" x="1533.1843" y="-14.675" font-family="Courier,monospace" font-weight="bold" font-size="10.00" fill="#000000">0.06864658258991009</text>
</g>
<!-- ((1, &#39;A&#39;), 0)&#45;&gt;((2, &#39;B&#39;), 0) -->
<g id="edge12" class="edge">
<title>((1, &#39;A&#39;), 0)&#45;&gt;((2, &#39;B&#39;), 0)</title>
<path fill="none" stroke="#000000" d="M1333.7229,-69.7414C1371.731,-60.7727 1417.6469,-49.9381 1455.8389,-40.926"/>
<polygon fill="#000000" stroke="#000000" points="1456.9525,-44.2594 1465.8814,-38.5563 1455.3448,-37.4465 1456.9525,-44.2594"/>
</g>
<!-- ((2, &#39;B&#39;), 1) -->
<g id="node13" class="node">
<title>((2, &#39;B&#39;), 1)</title>
<polygon fill="none" stroke="#000000" points="1544.2852,-61.2905 1551.6349,-61.4079 1558.9086,-61.5836 1566.0765,-61.8171 1573.1098,-62.1077 1579.9801,-62.4548 1586.6603,-62.8572 1593.1245,-63.314 1599.3481,-63.8238 1605.308,-64.3854 1610.9826,-64.997 1616.3523,-65.6571 1621.3992,-66.3638 1626.1073,-67.1153 1630.4625,-67.9094 1634.4531,-68.744 1638.0691,-69.6167 1641.3027,-70.5252 1644.1483,-71.4671 1646.6022,-72.4397 1648.6628,-73.4403 1650.3306,-74.4662 1651.6079,-75.5146 1652.4988,-76.5827 1653.0091,-77.6675 1653.1464,-78.7659 1652.9197,-79.8751 1652.3394,-80.992 1651.4171,-82.1135 1650.1656,-83.2365 1648.5986,-84.358 1646.7307,-85.4749 1644.5769,-86.5841 1642.1531,-87.6826 1639.4751,-88.7673 1636.5593,-89.8354 1633.422,-90.8838 1630.0794,-91.9097 1626.5475,-92.9104 1622.8421,-93.8829 1618.9785,-94.8248 1614.9714,-95.7333 1610.835,-96.6061 1606.5829,-97.4406 1602.2276,-98.2347 1597.7811,-98.9862 1593.2547,-99.6929 1588.6584,-100.353 1584.0018,-100.9647 1579.2934,-101.5262 1574.5411,-102.036 1569.7517,-102.4928 1564.9315,-102.8953 1560.0861,-103.2423 1555.2205,-103.5329 1550.3391,-103.7664 1545.4459,-103.9421 1540.5444,-104.0595 1535.6382,-104.1183 1530.7304,-104.1183 1525.8241,-104.0595 1520.9227,-103.9421 1516.0295,-103.7664 1511.1481,-103.5329 1506.2825,-103.2423 1501.4371,-102.8953 1496.6169,-102.4928 1491.8275,-102.036 1487.0751,-101.5262 1482.3668,-100.9647 1477.7102,-100.353 1473.1139,-99.6929 1468.5874,-98.9862 1464.141,-98.2347 1459.7857,-97.4406 1455.5335,-96.6061 1451.3972,-95.7333 1447.3901,-94.8248 1443.5265,-93.8829 1439.8211,-92.9104 1436.2892,-91.9097 1432.9466,-90.8838 1429.8093,-89.8354 1426.8935,-88.7673 1424.2155,-87.6826 1421.7916,-86.5841 1419.6379,-85.4749 1417.7699,-84.358 1416.2029,-83.2365 1414.9515,-82.1135 1414.0292,-80.992 1413.4489,-79.8751 1413.2222,-78.7659 1413.3595,-77.6675 1413.8698,-76.5827 1414.7607,-75.5146 1416.0379,-74.4662 1417.7057,-73.4403 1419.7664,-72.4397 1422.2203,-71.4671 1425.0659,-70.5252 1428.2995,-69.6167 1431.9155,-68.744 1435.906,-67.9094 1440.2613,-67.1153 1444.9694,-66.3638 1450.0163,-65.6571 1455.386,-64.997 1461.0606,-64.3854 1467.0205,-63.8238 1473.244,-63.314 1479.7082,-62.8572 1486.3885,-62.4548 1493.2588,-62.1077 1500.292,-61.8171 1507.46,-61.5836 1514.7337,-61.4079 1522.0834,-61.2905 1529.4789,-61.2317 1536.8897,-61.2317 1544.2852,-61.2905"/>
<text text-anchor="middle" x="1533.1843" y="-85.675" font-family="Courier,monospace" font-weight="bold" font-size="10.00" fill="#000000">((2, &#39;B&#39;), 1)</text>
<text text-anchor="middle" x="1533.1843" y="-74.675" font-family="Courier,monospace" font-weight="bold" font-size="10.00" fill="#000000">0.24111005033726257</text>
</g>
<!-- ((1, &#39;A&#39;), 0)&#45;&gt;((2, &#39;B&#39;), 1) -->
<g id="edge13" class="edge">
<title>((1, &#39;A&#39;), 0)&#45;&gt;((2, &#39;B&#39;), 1)</title>
<path fill="none" stroke="#000000" d="M1377.3423,-85.5038C1387.4696,-85.3199 1397.7298,-85.1337 1407.8988,-84.9491"/>
<polygon fill="#000000" stroke="#000000" points="1408.0943,-88.4462 1418.0291,-84.7652 1407.9672,-81.4474 1408.0943,-88.4462"/>
</g>
<!-- ((1, &#39;B&#39;), 0)&#45;&gt;((2, &#39;A&#39;), 0) -->
<g id="edge14" class="edge">
<title>((1, &#39;B&#39;), 0)&#45;&gt;((2, &#39;A&#39;), 0)</title>
<path fill="none" stroke="#000000" d="M1088.2734,-119.5087C1181.0788,-124.341 1312.8392,-131.2017 1408.8783,-136.2025"/>
<polygon fill="#000000" stroke="#000000" points="1408.7685,-139.7014 1418.937,-136.7262 1409.1326,-132.7109 1408.7685,-139.7014"/>
</g>
<!-- ((1, &#39;C&#39;), 0) -->
<g id="node10" class="node">
<title>((1, &#39;C&#39;), 0)</title>
<polygon fill="none" stroke="#000000" points="1268.8235,-6.2905 1276.1732,-6.4079 1283.4469,-6.5836 1290.6149,-6.8171 1297.6481,-7.1077 1304.5184,-7.4548 1311.1987,-7.8572 1317.6629,-8.314 1323.8864,-8.8238 1329.8463,-9.3854 1335.5209,-9.997 1340.8907,-10.6571 1345.9375,-11.3638 1350.6456,-12.1153 1355.0009,-12.9094 1358.9914,-13.744 1362.6074,-14.6167 1365.841,-15.5252 1368.6866,-16.4671 1371.1405,-17.4397 1373.2012,-18.4403 1374.869,-19.4662 1376.1462,-20.5146 1377.0371,-21.5827 1377.5474,-22.6675 1377.6847,-23.7659 1377.458,-24.8751 1376.8777,-25.992 1375.9554,-27.1135 1374.704,-28.2365 1373.137,-29.358 1371.269,-30.4749 1369.1153,-31.5841 1366.6914,-32.6826 1364.0134,-33.7673 1361.0976,-34.8354 1357.9603,-35.8838 1354.6177,-36.9097 1351.0858,-37.9104 1347.3804,-38.8829 1343.5168,-39.8248 1339.5098,-40.7333 1335.3734,-41.6061 1331.1212,-42.4406 1326.7659,-43.2347 1322.3195,-43.9862 1317.793,-44.6929 1313.1967,-45.353 1308.5401,-45.9647 1303.8318,-46.5262 1299.0794,-47.036 1294.29,-47.4928 1289.4698,-47.8953 1284.6245,-48.2423 1279.7589,-48.5329 1274.8774,-48.7664 1269.9842,-48.9421 1265.0828,-49.0595 1260.1765,-49.1183 1255.2687,-49.1183 1250.3625,-49.0595 1245.4611,-48.9421 1240.5678,-48.7664 1235.6864,-48.5329 1230.8208,-48.2423 1225.9754,-47.8953 1221.1552,-47.4928 1216.3659,-47.036 1211.6135,-46.5262 1206.9051,-45.9647 1202.2485,-45.353 1197.6523,-44.6929 1193.1258,-43.9862 1188.6793,-43.2347 1184.3241,-42.4406 1180.0719,-41.6061 1175.9355,-40.7333 1171.9284,-39.8248 1168.0648,-38.8829 1164.3594,-37.9104 1160.8276,-36.9097 1157.4849,-35.8838 1154.3476,-34.8354 1151.4318,-33.7673 1148.7539,-32.6826 1146.33,-31.5841 1144.1762,-30.4749 1142.3083,-29.358 1140.7413,-28.2365 1139.4898,-27.1135 1138.5675,-25.992 1137.9872,-24.8751 1137.7605,-23.7659 1137.8978,-22.6675 1138.4082,-21.5827 1139.299,-20.5146 1140.5763,-19.4662 1142.2441,-18.4403 1144.3047,-17.4397 1146.7587,-16.4671 1149.6042,-15.5252 1152.8378,-14.6167 1156.4538,-13.744 1160.4444,-12.9094 1164.7997,-12.1153 1169.5077,-11.3638 1174.5546,-10.6571 1179.9243,-9.997 1185.599,-9.3854 1191.5588,-8.8238 1197.7824,-8.314 1204.2466,-7.8572 1210.9268,-7.4548 1217.7971,-7.1077 1224.8304,-6.8171 1231.9984,-6.5836 1239.2721,-6.4079 1246.6218,-6.2905 1254.0172,-6.2317 1261.428,-6.2317 1268.8235,-6.2905"/>
<text text-anchor="middle" x="1257.7226" y="-30.675" font-family="Courier,monospace" font-weight="bold" font-size="10.00" fill="#000000">((1, &#39;C&#39;), 0)</text>
<text text-anchor="middle" x="1257.7226" y="-19.675" font-family="Courier,monospace" font-weight="bold" font-size="10.00" fill="#000000">0.06289270433620792</text>
</g>
<!-- ((1, &#39;B&#39;), 1)&#45;&gt;((1, &#39;C&#39;), 0) -->
<g id="edge15" class="edge">
<title>((1, &#39;B&#39;), 1)&#45;&gt;((1, &#39;C&#39;), 0)</title>
<path fill="none" stroke="#000000" d="M1089.5111,-43.2122C1109.5065,-41.3653 1130.2714,-39.4473 1150.1058,-37.6152"/>
<polygon fill="#000000" stroke="#000000" points="1150.4353,-41.0998 1160.071,-36.6948 1149.7914,-34.1295 1150.4353,-41.0998"/>
</g>
<!-- ((1, &#39;C&#39;), 0)&#45;&gt;((2, &#39;B&#39;), 0) -->
<g id="edge16" class="edge">
<title>((1, &#39;C&#39;), 0)&#45;&gt;((2, &#39;B&#39;), 0)</title>
<path fill="none" stroke="#000000" d="M1377.3423,-25.5038C1387.4696,-25.3199 1397.7298,-25.1337 1407.8988,-24.9491"/>
<polygon fill="#000000" stroke="#000000" points="1408.0943,-28.4462 1418.0291,-24.7652 1407.9672,-21.4474 1408.0943,-28.4462"/>
</g>
<!-- ((1, &#39;C&#39;), 0)&#45;&gt;((2, &#39;B&#39;), 1) -->
<g id="edge17" class="edge">
<title>((1, &#39;C&#39;), 0)&#45;&gt;((2, &#39;B&#39;), 1)</title>
<path fill="none" stroke="#000000" d="M1331.5413,-42.414C1364.322,-48.9592 1403.3091,-56.7435 1438.2249,-63.715"/>
<polygon fill="#000000" stroke="#000000" points="1437.9441,-67.2279 1448.4358,-65.7537 1439.3147,-60.3634 1437.9441,-67.2279"/>
</g>
<!-- ((3, &#39;A&#39;), 0) -->
<g id="node15" class="node">
<title>((3, &#39;A&#39;), 0)</title>
<polygon fill="none" stroke="#000000" points="1811.3042,-1.2905 1816.5541,-1.4079 1821.7498,-1.5836 1826.8699,-1.8171 1831.8938,-2.1077 1836.8014,-2.4548 1841.5731,-2.8572 1846.1905,-3.314 1850.6361,-3.8238 1854.8932,-4.3854 1858.9467,-4.997 1862.7823,-5.6571 1866.3873,-6.3638 1869.7503,-7.1153 1872.8613,-7.9094 1875.7118,-8.744 1878.2947,-9.6167 1880.6045,-10.5252 1882.6371,-11.4671 1884.39,-12.4397 1885.8619,-13.4403 1887.0532,-14.4662 1887.9656,-15.5146 1888.6019,-16.5827 1888.9665,-17.6675 1889.0646,-18.7659 1888.9026,-19.8751 1888.4881,-20.992 1887.8293,-22.1135 1886.9354,-23.2365 1885.8161,-24.358 1884.4818,-25.4749 1882.9433,-26.5841 1881.2119,-27.6826 1879.2991,-28.7673 1877.2163,-29.8354 1874.9753,-30.8838 1872.5876,-31.9097 1870.0648,-32.9104 1867.418,-33.8829 1864.6582,-34.8248 1861.7959,-35.7333 1858.8413,-36.6061 1855.8039,-37.4406 1852.6929,-38.2347 1849.5168,-38.9862 1846.2835,-39.6929 1843.0003,-40.353 1839.6741,-40.9647 1836.3109,-41.5262 1832.9162,-42.036 1829.4951,-42.4928 1826.052,-42.8953 1822.5909,-43.2423 1819.1154,-43.5329 1815.6286,-43.7664 1812.1333,-43.9421 1808.6322,-44.0595 1805.1276,-44.1183 1801.6219,-44.1183 1798.1174,-44.0595 1794.6163,-43.9421 1791.121,-43.7664 1787.6341,-43.5329 1784.1586,-43.2423 1780.6975,-42.8953 1777.2544,-42.4928 1773.8333,-42.036 1770.4387,-41.5262 1767.0755,-40.9647 1763.7492,-40.353 1760.4661,-39.6929 1757.2328,-38.9862 1754.0567,-38.2347 1750.9457,-37.4406 1747.9083,-36.6061 1744.9537,-35.7333 1742.0914,-34.8248 1739.3316,-33.8829 1736.6848,-32.9104 1734.162,-31.9097 1731.7743,-30.8838 1729.5333,-29.8354 1727.4505,-28.7673 1725.5376,-27.6826 1723.8062,-26.5841 1722.2678,-25.4749 1720.9335,-24.358 1719.8142,-23.2365 1718.9202,-22.1135 1718.2615,-20.992 1717.8469,-19.8751 1717.685,-18.7659 1717.7831,-17.6675 1718.1476,-16.5827 1718.784,-15.5146 1719.6963,-14.4662 1720.8876,-13.4403 1722.3596,-12.4397 1724.1124,-11.4671 1726.1451,-10.5252 1728.4548,-9.6167 1731.0378,-8.744 1733.8882,-7.9094 1736.9993,-7.1153 1740.3623,-6.3638 1743.9673,-5.6571 1747.8029,-4.997 1751.8563,-4.3854 1756.1135,-3.8238 1760.559,-3.314 1765.1765,-2.8572 1769.9482,-2.4548 1774.8557,-2.1077 1779.8796,-1.8171 1784.9998,-1.5836 1790.1954,-1.4079 1795.4453,-1.2905 1800.728,-1.2317 1806.0216,-1.2317 1811.3042,-1.2905"/>
<text text-anchor="middle" x="1803.3748" y="-25.675" font-family="Courier,monospace" font-weight="bold" font-size="10.00" fill="#000000">((3, &#39;A&#39;), 0)</text>
<text text-anchor="middle" x="1803.3748" y="-14.675" font-family="Courier,monospace" font-weight="bold" font-size="10.00" fill="#000000">1.0</text>
</g>
<!-- ((2, &#39;A&#39;), 0)&#45;&gt;((3, &#39;A&#39;), 0) -->
<g id="edge18" class="edge">
<title>((2, &#39;A&#39;), 0)&#45;&gt;((3, &#39;A&#39;), 0)</title>
<path fill="none" stroke="#000000" d="M1625.1955,-127.6967C1635.0831,-123.7857 1644.5661,-118.8646 1652.9151,-112.675 1677.8972,-94.1546 1664.0337,-71.3304 1688.9151,-52.675 1699.3275,-44.8681 1711.596,-39.0878 1724.1642,-34.8093"/>
<polygon fill="#000000" stroke="#000000" points="1725.2916,-38.1243 1733.8079,-31.8216 1723.22,-31.4378 1725.2916,-38.1243"/>
</g>
<!-- ((3, &#39;B&#39;), 0) -->
<g id="node16" class="node">
<title>((3, &#39;B&#39;), 0)</title>
<polygon fill="none" stroke="#000000" points="2076.2235,-61.2905 2081.4735,-61.4079 2086.6691,-61.5836 2091.7893,-61.8171 2096.8132,-62.1077 2101.7207,-62.4548 2106.4924,-62.8572 2111.1098,-63.314 2115.5554,-63.8238 2119.8125,-64.3854 2123.866,-64.997 2127.7016,-65.6571 2131.3066,-66.3638 2134.6696,-67.1153 2137.7806,-67.9094 2140.6311,-68.744 2143.214,-69.6167 2145.5238,-70.5252 2147.5564,-71.4671 2149.3093,-72.4397 2150.7812,-73.4403 2151.9726,-74.4662 2152.8849,-75.5146 2153.5213,-76.5827 2153.8858,-77.6675 2153.9839,-78.7659 2153.8219,-79.8751 2153.4074,-80.992 2152.7486,-82.1135 2151.8547,-83.2365 2150.7354,-84.358 2149.4011,-85.4749 2147.8627,-86.5841 2146.1313,-87.6826 2144.2184,-88.7673 2142.1356,-89.8354 2139.8946,-90.8838 2137.5069,-91.9097 2134.9841,-92.9104 2132.3373,-93.8829 2129.5775,-94.8248 2126.7152,-95.7333 2123.7606,-96.6061 2120.7232,-97.4406 2117.6122,-98.2347 2114.4361,-98.9862 2111.2028,-99.6929 2107.9197,-100.353 2104.5934,-100.9647 2101.2302,-101.5262 2097.8355,-102.036 2094.4144,-102.4928 2090.9714,-102.8953 2087.5103,-103.2423 2084.0347,-103.5329 2080.5479,-103.7664 2077.0526,-103.9421 2073.5515,-104.0595 2070.0469,-104.1183 2066.5413,-104.1183 2063.0367,-104.0595 2059.5356,-103.9421 2056.0403,-103.7664 2052.5535,-103.5329 2049.0779,-103.2423 2045.6168,-102.8953 2042.1738,-102.4928 2038.7527,-102.036 2035.358,-101.5262 2031.9948,-100.9647 2028.6686,-100.353 2025.3854,-99.6929 2022.1521,-98.9862 2018.976,-98.2347 2015.865,-97.4406 2012.8276,-96.6061 2009.873,-95.7333 2007.0107,-94.8248 2004.2509,-93.8829 2001.6041,-92.9104 1999.0813,-91.9097 1996.6936,-90.8838 1994.4526,-89.8354 1992.3698,-88.7673 1990.4569,-87.6826 1988.7256,-86.5841 1987.1871,-85.4749 1985.8528,-84.358 1984.7335,-83.2365 1983.8396,-82.1135 1983.1808,-80.992 1982.7663,-79.8751 1982.6043,-78.7659 1982.7024,-77.6675 1983.0669,-76.5827 1983.7033,-75.5146 1984.6156,-74.4662 1985.807,-73.4403 1987.2789,-72.4397 1989.0318,-71.4671 1991.0644,-70.5252 1993.3742,-69.6167 1995.9571,-68.744 1998.8076,-67.9094 2001.9186,-67.1153 2005.2816,-66.3638 2008.8866,-65.6571 2012.7222,-64.997 2016.7757,-64.3854 2021.0328,-63.8238 2025.4784,-63.314 2030.0958,-62.8572 2034.8675,-62.4548 2039.775,-62.1077 2044.7989,-61.8171 2049.9191,-61.5836 2055.1147,-61.4079 2060.3647,-61.2905 2065.6473,-61.2317 2070.9409,-61.2317 2076.2235,-61.2905"/>
<text text-anchor="middle" x="2068.2941" y="-85.675" font-family="Courier,monospace" font-weight="bold" font-size="10.00" fill="#000000">((3, &#39;B&#39;), 0)</text>
<text text-anchor="middle" x="2068.2941" y="-74.675" font-family="Courier,monospace" font-weight="bold" font-size="10.00" fill="#000000">1.0</text>
</g>
<!-- ((2, &#39;A&#39;), 0)&#45;&gt;((3, &#39;B&#39;), 0) -->
<g id="edge19" class="edge">
<title>((2, &#39;A&#39;), 0)&#45;&gt;((3, &#39;B&#39;), 0)</title>
<path fill="none" stroke="#000000" d="M1647.5965,-137.3241C1724.299,-132.8608 1827.4301,-125.1681 1917.8344,-112.675 1944.9707,-108.925 1974.5875,-103.3461 2000.312,-98.013"/>
<polygon fill="#000000" stroke="#000000" points="2001.2689,-101.3884 2010.3355,-95.907 1999.8295,-94.538 2001.2689,-101.3884"/>
</g>
<!-- ((3, &#39;B&#39;), 1) -->
<g id="node17" class="node">
<title>((3, &#39;B&#39;), 1)</title>
<polygon fill="none" stroke="#000000" points="2078.8821,-121.2905 2085.8922,-121.4079 2092.8298,-121.5836 2099.6666,-121.8171 2106.3749,-122.1077 2112.9277,-122.4548 2119.2993,-122.8572 2125.4648,-123.314 2131.4009,-123.8238 2137.0853,-124.3854 2142.4978,-124.997 2147.6194,-125.6571 2152.4331,-126.3638 2156.9236,-127.1153 2161.0777,-127.9094 2164.8839,-128.744 2168.3328,-129.6167 2171.417,-130.5252 2174.1311,-131.4671 2176.4716,-132.4397 2178.437,-133.4403 2180.0278,-134.4662 2181.246,-135.5146 2182.0957,-136.5827 2182.5825,-137.6675 2182.7134,-138.7659 2182.4972,-139.8751 2181.9437,-140.992 2181.0641,-142.1135 2179.8704,-143.2365 2178.3758,-144.358 2176.5942,-145.4749 2174.5399,-146.5841 2172.228,-147.6826 2169.6738,-148.7673 2166.8927,-149.8354 2163.9004,-150.8838 2160.7122,-151.9097 2157.3435,-152.9104 2153.8093,-153.8829 2150.1242,-154.8248 2146.3023,-155.7333 2142.3571,-156.6061 2138.3013,-157.4406 2134.1473,-158.2347 2129.9063,-158.9862 2125.589,-159.6929 2121.2051,-160.353 2116.7636,-160.9647 2112.2728,-161.5262 2107.74,-162.036 2103.1719,-162.4928 2098.5745,-162.8953 2093.953,-163.2423 2089.3122,-163.5329 2084.6563,-163.7664 2079.9891,-163.9421 2075.3142,-164.0595 2070.6346,-164.1183 2065.9536,-164.1183 2061.274,-164.0595 2056.5991,-163.9421 2051.9319,-163.7664 2047.276,-163.5329 2042.6352,-163.2423 2038.0138,-162.8953 2033.4163,-162.4928 2028.8482,-162.036 2024.3154,-161.5262 2019.8246,-160.9647 2015.3831,-160.353 2010.9992,-159.6929 2006.6819,-158.9862 2002.4409,-158.2347 1998.2869,-157.4406 1994.2311,-156.6061 1990.2859,-155.7333 1986.464,-154.8248 1982.7789,-153.8829 1979.2447,-152.9104 1975.876,-151.9097 1972.6878,-150.8838 1969.6955,-149.8354 1966.9144,-148.7673 1964.3602,-147.6826 1962.0483,-146.5841 1959.994,-145.4749 1958.2124,-144.358 1956.7178,-143.2365 1955.5242,-142.1135 1954.6445,-140.992 1954.091,-139.8751 1953.8748,-138.7659 1954.0057,-137.6675 1954.4925,-136.5827 1955.3422,-135.5146 1956.5604,-134.4662 1958.1512,-133.4403 1960.1166,-132.4397 1962.4571,-131.4671 1965.1712,-130.5252 1968.2555,-129.6167 1971.7044,-128.744 1975.5105,-127.9094 1979.6646,-127.1153 1984.1551,-126.3638 1988.9688,-125.6571 1994.0904,-124.997 1999.5029,-124.3854 2005.1873,-123.8238 2011.1234,-123.314 2017.2889,-122.8572 2023.6605,-122.4548 2030.2133,-122.1077 2036.9216,-121.8171 2043.7584,-121.5836 2050.696,-121.4079 2057.7061,-121.2905 2064.7599,-121.2317 2071.8283,-121.2317 2078.8821,-121.2905"/>
<text text-anchor="middle" x="2068.2941" y="-145.675" font-family="Courier,monospace" font-weight="bold" font-size="10.00" fill="#000000">((3, &#39;B&#39;), 1)</text>
<text text-anchor="middle" x="2068.2941" y="-134.675" font-family="Courier,monospace" font-weight="bold" font-size="10.00" fill="#000000">0.6989602079584083</text>
</g>
<!-- ((2, &#39;A&#39;), 0)&#45;&gt;((3, &#39;B&#39;), 1) -->
<g id="edge20" class="edge">
<title>((2, &#39;A&#39;), 0)&#45;&gt;((3, &#39;B&#39;), 1)</title>
<path fill="none" stroke="#000000" d="M1642.5134,-145.0472C1658.0879,-145.3076 1673.9077,-145.5305 1688.9151,-145.675 1790.6523,-146.6549 1816.0976,-146.6892 1917.8344,-145.675 1927.9315,-145.5744 1938.4091,-145.4357 1948.9223,-145.2729"/>
<polygon fill="#000000" stroke="#000000" points="1949.0595,-148.7712 1959.0015,-145.1097 1948.9462,-141.7721 1949.0595,-148.7712"/>
</g>
<!-- ((2, &#39;B&#39;), 0)&#45;&gt;((3, &#39;A&#39;), 0) -->
<g id="edge21" class="edge">
<title>((2, &#39;B&#39;), 0)&#45;&gt;((3, &#39;A&#39;), 0)</title>
<path fill="none" stroke="#000000" d="M1650.9078,-22.675C1670.4359,-22.675 1690.4564,-22.675 1709.3005,-22.675"/>
<polygon fill="#000000" stroke="#000000" points="1709.3371,-26.1751 1719.337,-22.675 1709.337,-19.1751 1709.3371,-26.1751"/>
</g>
<!-- ((2, &#39;C&#39;), 0) -->
<g id="node14" class="node">
<title>((2, &#39;C&#39;), 0)</title>
<polygon fill="none" stroke="#000000" points="1813.9627,-61.2905 1820.9728,-61.4079 1827.9105,-61.5836 1834.7473,-61.8171 1841.4555,-62.1077 1848.0084,-62.4548 1854.38,-62.8572 1860.5455,-63.314 1866.4815,-63.8238 1872.166,-64.3854 1877.5785,-64.997 1882.7001,-65.6571 1887.5138,-66.3638 1892.0043,-67.1153 1896.1583,-67.9094 1899.9645,-68.744 1903.4134,-69.6167 1906.4976,-70.5252 1909.2117,-71.4671 1911.5523,-72.4397 1913.5177,-73.4403 1915.1085,-74.4662 1916.3267,-75.5146 1917.1764,-76.5827 1917.6632,-77.6675 1917.7941,-78.7659 1917.5779,-79.8751 1917.0244,-80.992 1916.1447,-82.1135 1914.9511,-83.2365 1913.4565,-84.358 1911.6748,-85.4749 1909.6206,-86.5841 1907.3087,-87.6826 1904.7545,-88.7673 1901.9734,-89.8354 1898.9811,-90.8838 1895.7929,-91.9097 1892.4242,-92.9104 1888.89,-93.8829 1885.2049,-94.8248 1881.383,-95.7333 1877.4377,-96.6061 1873.382,-97.4406 1869.228,-98.2347 1864.987,-98.9862 1860.6696,-99.6929 1856.2858,-100.353 1851.8443,-100.9647 1847.3535,-101.5262 1842.8207,-102.036 1838.2526,-102.4928 1833.6551,-102.8953 1829.0336,-103.2423 1824.3928,-103.5329 1819.737,-103.7664 1815.0698,-103.9421 1810.3949,-104.0595 1805.7153,-104.1183 1801.0343,-104.1183 1796.3547,-104.0595 1791.6797,-103.9421 1787.0126,-103.7664 1782.3567,-103.5329 1777.7159,-103.2423 1773.0944,-102.8953 1768.497,-102.4928 1763.9289,-102.036 1759.3961,-101.5262 1754.9053,-100.9647 1750.4638,-100.353 1746.0799,-99.6929 1741.7626,-98.9862 1737.5216,-98.2347 1733.3675,-97.4406 1729.3118,-96.6061 1725.3666,-95.7333 1721.5446,-94.8248 1717.8595,-93.8829 1714.3254,-92.9104 1710.9567,-91.9097 1707.7685,-90.8838 1704.7761,-89.8354 1701.9951,-88.7673 1699.4408,-87.6826 1697.129,-86.5841 1695.0747,-85.4749 1693.2931,-84.358 1691.7985,-83.2365 1690.6048,-82.1135 1689.7252,-80.992 1689.1717,-79.8751 1688.9554,-78.7659 1689.0864,-77.6675 1689.5732,-76.5827 1690.4229,-75.5146 1691.6411,-74.4662 1693.2318,-73.4403 1695.1973,-72.4397 1697.5378,-71.4671 1700.2519,-70.5252 1703.3361,-69.6167 1706.785,-68.744 1710.5912,-67.9094 1714.7453,-67.1153 1719.2358,-66.3638 1724.0495,-65.6571 1729.1711,-64.997 1734.5835,-64.3854 1740.268,-63.8238 1746.204,-63.314 1752.3696,-62.8572 1758.7411,-62.4548 1765.294,-62.1077 1772.0023,-61.8171 1778.8391,-61.5836 1785.7767,-61.4079 1792.7868,-61.2905 1799.8406,-61.2317 1806.909,-61.2317 1813.9627,-61.2905"/>
<text text-anchor="middle" x="1803.3748" y="-85.675" font-family="Courier,monospace" font-weight="bold" font-size="10.00" fill="#000000">((2, &#39;C&#39;), 0)</text>
<text text-anchor="middle" x="1803.3748" y="-74.675" font-family="Courier,monospace" font-weight="bold" font-size="10.00" fill="#000000">0.3449553316368617</text>
</g>
<!-- ((2, &#39;B&#39;), 1)&#45;&gt;((2, &#39;C&#39;), 0) -->
<g id="edge22" class="edge">
<title>((2, &#39;B&#39;), 1)&#45;&gt;((2, &#39;C&#39;), 0)</title>
<path fill="none" stroke="#000000" d="M1650.9078,-82.675C1660.9335,-82.675 1671.089,-82.675 1681.1484,-82.675"/>
<polygon fill="#000000" stroke="#000000" points="1681.1675,-86.1751 1691.1675,-82.675 1681.1675,-79.1751 1681.1675,-86.1751"/>
</g>
<!-- ((2, &#39;C&#39;), 0)&#45;&gt;((3, &#39;B&#39;), 0) -->
<g id="edge23" class="edge">
<title>((2, &#39;C&#39;), 0)&#45;&gt;((3, &#39;B&#39;), 0)</title>
<path fill="none" stroke="#000000" d="M1915.7244,-82.675C1935.0897,-82.675 1955.0422,-82.675 1973.8738,-82.675"/>
<polygon fill="#000000" stroke="#000000" points="1973.9088,-86.1751 1983.9088,-82.675 1973.9087,-79.1751 1973.9088,-86.1751"/>
</g>
<!-- ((2, &#39;C&#39;), 0)&#45;&gt;((3, &#39;B&#39;), 1) -->
<g id="edge24" class="edge">
<title>((2, &#39;C&#39;), 0)&#45;&gt;((3, &#39;B&#39;), 1)</title>
<path fill="none" stroke="#000000" d="M1870.9106,-97.9708C1904.5405,-105.5874 1945.5882,-114.8841 1981.5233,-123.0228"/>
<polygon fill="#000000" stroke="#000000" points="1980.9867,-126.4899 1991.5128,-125.2853 1982.533,-119.6628 1980.9867,-126.4899"/>
</g>
<!-- ((3, &#39;A&#39;), 0)&#45;&gt;((&#45;1, &#39;SINK&#39;), 0) -->
<g id="edge25" class="edge">
<title>((3, &#39;A&#39;), 0)&#45;&gt;((&#45;1, &#39;SINK&#39;), 0)</title>
<path fill="none" stroke="#000000" d="M1879.6843,-28.5723C1956.3024,-34.5258 2077.7258,-44.0484 2182.7538,-52.675 2262.0173,-59.1854 2351.2916,-66.7944 2420.1167,-72.7202"/>
<polygon fill="#000000" stroke="#000000" points="2419.8556,-76.2106 2430.1192,-73.582 2420.4565,-69.2365 2419.8556,-76.2106"/>
</g>
<!-- ((3, &#39;B&#39;), 0)&#45;&gt;((&#45;1, &#39;SINK&#39;), 0) -->
<g id="edge26" class="edge">
<title>((3, &#39;B&#39;), 0)&#45;&gt;((&#45;1, &#39;SINK&#39;), 0)</title>
<path fill="none" stroke="#000000" d="M2152.5189,-82.675C2226.7271,-82.675 2335.5612,-82.675 2418.1577,-82.675"/>
<polygon fill="#000000" stroke="#000000" points="2418.3515,-86.1751 2428.3514,-82.675 2418.3514,-79.1751 2418.3515,-86.1751"/>
</g>
<!-- ((3, &#39;C&#39;), 0) -->
<g id="node18" class="node">
<title>((3, &#39;C&#39;), 0)</title>
<polygon fill="none" stroke="#000000" points="2312.5279,-115.2905 2317.7779,-115.4079 2322.9735,-115.5836 2328.0937,-115.8171 2333.1176,-116.1077 2338.0251,-116.4548 2342.7968,-116.8572 2347.4142,-117.314 2351.8598,-117.8238 2356.117,-118.3854 2360.1704,-118.997 2364.006,-119.6571 2367.611,-120.3638 2370.974,-121.1153 2374.085,-121.9094 2376.9355,-122.744 2379.5184,-123.6167 2381.8282,-124.5252 2383.8609,-125.4671 2385.6137,-126.4397 2387.0856,-127.4403 2388.277,-128.4662 2389.1893,-129.5146 2389.8257,-130.5827 2390.1902,-131.6675 2390.2883,-132.7659 2390.1263,-133.8751 2389.7118,-134.992 2389.053,-136.1135 2388.1591,-137.2365 2387.0398,-138.358 2385.7055,-139.4749 2384.1671,-140.5841 2382.4357,-141.6826 2380.5228,-142.7673 2378.44,-143.8354 2376.199,-144.8838 2373.8113,-145.9097 2371.2885,-146.9104 2368.6417,-147.8829 2365.8819,-148.8248 2363.0196,-149.7333 2360.065,-150.6061 2357.0276,-151.4406 2353.9166,-152.2347 2350.7405,-152.9862 2347.5072,-153.6929 2344.2241,-154.353 2340.8978,-154.9647 2337.5346,-155.5262 2334.1399,-156.036 2330.7188,-156.4928 2327.2758,-156.8953 2323.8147,-157.2423 2320.3391,-157.5329 2316.8523,-157.7664 2313.357,-157.9421 2309.8559,-158.0595 2306.3514,-158.1183 2302.8457,-158.1183 2299.3411,-158.0595 2295.84,-157.9421 2292.3447,-157.7664 2288.8579,-157.5329 2285.3823,-157.2423 2281.9213,-156.8953 2278.4782,-156.4928 2275.0571,-156.036 2271.6624,-155.5262 2268.2992,-154.9647 2264.973,-154.353 2261.6898,-153.6929 2258.4565,-152.9862 2255.2804,-152.2347 2252.1694,-151.4406 2249.132,-150.6061 2246.1774,-149.7333 2243.3151,-148.8248 2240.5553,-147.8829 2237.9085,-146.9104 2235.3857,-145.9097 2232.998,-144.8838 2230.757,-143.8354 2228.6742,-142.7673 2226.7614,-141.6826 2225.03,-140.5841 2223.4915,-139.4749 2222.1572,-138.358 2221.0379,-137.2365 2220.144,-136.1135 2219.4852,-134.992 2219.0707,-133.8751 2218.9087,-132.7659 2219.0068,-131.6675 2219.3713,-130.5827 2220.0077,-129.5146 2220.9201,-128.4662 2222.1114,-127.4403 2223.5833,-126.4397 2225.3362,-125.4671 2227.3688,-124.5252 2229.6786,-123.6167 2232.2615,-122.744 2235.112,-121.9094 2238.223,-121.1153 2241.586,-120.3638 2245.191,-119.6571 2249.0266,-118.997 2253.0801,-118.3854 2257.3372,-117.8238 2261.7828,-117.314 2266.4002,-116.8572 2271.1719,-116.4548 2276.0795,-116.1077 2281.1033,-115.8171 2286.2235,-115.5836 2291.4191,-115.4079 2296.6691,-115.2905 2301.9517,-115.2317 2307.2453,-115.2317 2312.5279,-115.2905"/>
<text text-anchor="middle" x="2304.5985" y="-139.675" font-family="Courier,monospace" font-weight="bold" font-size="10.00" fill="#000000">((3, &#39;C&#39;), 0)</text>
<text text-anchor="middle" x="2304.5985" y="-128.675" font-family="Courier,monospace" font-weight="bold" font-size="10.00" fill="#000000">1.0</text>
</g>
<!-- ((3, &#39;B&#39;), 1)&#45;&gt;((3, &#39;C&#39;), 0) -->
<g id="edge27" class="edge">
<title>((3, &#39;B&#39;), 1)&#45;&gt;((3, &#39;C&#39;), 0)</title>
<path fill="none" stroke="#000000" d="M2182.6393,-139.7717C2192.6069,-139.5186 2202.6107,-139.2646 2212.3665,-139.0169"/>
<polygon fill="#000000" stroke="#000000" points="2212.5234,-142.5141 2222.4314,-138.7613 2212.3457,-135.5164 2212.5234,-142.5141"/>
</g>
<!-- ((3, &#39;C&#39;), 0)&#45;&gt;((&#45;1, &#39;SINK&#39;), 0) -->
<g id="edge28" class="edge">
<title>((3, &#39;C&#39;), 0)&#45;&gt;((&#45;1, &#39;SINK&#39;), 0)</title>
<path fill="none" stroke="#000000" d="M2371.2051,-121.056C2399.0097,-114.5359 2431.4363,-106.9319 2460.0583,-100.2202"/>
<polygon fill="#000000" stroke="#000000" points="2461.0729,-103.5773 2470.0097,-97.8866 2459.4748,-96.7621 2461.0729,-103.5773"/>
</g>
</g>
</svg>
