<?xml version="1.0" encoding="UTF-8" standalone="no"?>
<!DOCTYPE svg PUBLIC "-//W3C//DTD SVG 1.1//EN"
 "http://www.w3.org/Graphics/SVG/1.1/DTD/svg11.dtd">
<!-- Generated by graphviz version 2.40.1 (0)
 -->
<!-- Title: G Pages: 1 -->
<svg width="264pt" height="84pt"
 viewBox="0.00 0.00 264.00 84.00" xmlns="http://www.w3.org/2000/svg" xmlns:xlink="http://www.w3.org/1999/xlink">
<g id="graph0" class="graph" transform="scale(1 1) rotate(0) translate(4 80)">
<title>G</title>
<polygon fill="#ffffff" stroke="transparent" points="-4,4 -4,-80 260,-80 260,4 -4,4"/>
<!-- v0 -->
<g id="node1" class="node">
<title>v0</title>
<ellipse fill="none" stroke="#000000" cx="14.5" cy="-61.5" rx="14.5" ry="14.5"/>
<text text-anchor="middle" x="14.5" y="-59" font-family="Courier,monospace" font-weight="bold" font-size="10.00" fill="#000000">v0</text>
</g>
<!-- i0 -->
<g id="node2" class="node">
<title>i0</title>
<ellipse fill="none" stroke="#000000" cx="95.5" cy="-37.5" rx="14.5" ry="14.5"/>
<text text-anchor="middle" x="95.5" y="-35" font-family="Courier,monospace" font-weight="bold" font-size="10.00" fill="#000000">i0</text>
</g>
<!-- v0&#45;&#45;i0 -->
<g id="edge1" class="edge">
<title>v0&#45;&#45;i0</title>
<path fill="none" stroke="#000000" d="M28.6091,-57.3195C43.4761,-52.9145 66.7468,-46.0195 81.5526,-41.6326"/>
<text text-anchor="middle" x="55" y="-54.5" font-family="Courier,monospace" font-weight="bold" font-size="10.00" fill="#000000">11</text>
</g>
<!-- i1 -->
<g id="node4" class="node">
<title>i1</title>
<ellipse fill="none" stroke="#000000" cx="168.5" cy="-37.5" rx="14.5" ry="14.5"/>
<text text-anchor="middle" x="168.5" y="-35" font-family="Courier,monospace" font-weight="bold" font-size="10.00" fill="#000000">i1</text>
</g>
<!-- i0&#45;&#45;i1 -->
<g id="edge3" class="edge">
<title>i0&#45;&#45;i1</title>
<path fill="none" stroke="#000000" d="M110.2726,-37.5C122.9378,-37.5 141.0905,-37.5 153.7493,-37.5"/>
<text text-anchor="middle" x="132" y="-40.5" font-family="Courier,monospace" font-weight="bold" font-size="10.00" fill="#000000">4</text>
</g>
<!-- v1 -->
<g id="node3" class="node">
<title>v1</title>
<ellipse fill="none" stroke="#000000" cx="14.5" cy="-14.5" rx="14.5" ry="14.5"/>
<text text-anchor="middle" x="14.5" y="-12" font-family="Courier,monospace" font-weight="bold" font-size="10.00" fill="#000000">v1</text>
</g>
<!-- v1&#45;&#45;i0 -->
<g id="edge2" class="edge">
<title>v1&#45;&#45;i0</title>
<path fill="none" stroke="#000000" d="M28.6091,-18.5063C43.3855,-22.702 66.4634,-29.255 81.2808,-33.4624"/>
<text text-anchor="middle" x="55" y="-30.5" font-family="Courier,monospace" font-weight="bold" font-size="10.00" fill="#000000">2</text>
</g>
<!-- v2 -->
<g id="node5" class="node">
<title>v2</title>
<ellipse fill="none" stroke="#000000" cx="241.5" cy="-61.5" rx="14.5" ry="14.5"/>
<text text-anchor="middle" x="241.5" y="-59" font-family="Courier,monospace" font-weight="bold" font-size="10.00" fill="#000000">v2</text>
</g>
<!-- i1&#45;&#45;v2 -->
<g id="edge4" class="edge">
<title>i1&#45;&#45;v2</title>
<path fill="none" stroke="#000000" d="M182.5751,-42.1274C195.5018,-46.3773 214.5551,-52.6414 227.4681,-56.8868"/>
<text text-anchor="middle" x="205" y="-52.5" font-family="Courier,monospace" font-weight="bold" font-size="10.00" fill="#000000">6</text>
</g>
<!-- v3 -->
<g id="node6" class="node">
<title>v3</title>
<ellipse fill="none" stroke="#000000" cx="241.5" cy="-14.5" rx="14.5" ry="14.5"/>
<text text-anchor="middle" x="241.5" y="-12" font-family="Courier,monospace" font-weight="bold" font-size="10.00" fill="#000000">v3</text>
</g>
<!-- i1&#45;&#45;v3 -->
<g id="edge5" class="edge">
<title>i1&#45;&#45;v3</title>
<path fill="none" stroke="#000000" stroke-dasharray="5,2" d="M182.5751,-33.0654C195.5018,-28.9926 214.5551,-22.9895 227.4681,-18.921"/>
<text text-anchor="middle" x="205" y="-29.5" font-family="Courier,monospace" font-weight="bold" font-size="10.00" fill="#000000">0</text>
</g>
</g>
</svg>
