<?xml version="1.0" encoding="UTF-8" standalone="no"?>
<!DOCTYPE svg PUBLIC "-//W3C//DTD SVG 1.1//EN"
 "http://www.w3.org/Graphics/SVG/1.1/DTD/svg11.dtd">
<!-- Generated by graphviz version 2.40.1 (0)
 -->
<!-- Title: G Pages: 1 -->
<svg width="1841pt" height="608pt"
 viewBox="0.00 0.00 1840.71 608.35" xmlns="http://www.w3.org/2000/svg" xmlns:xlink="http://www.w3.org/1999/xlink">
<g id="graph0" class="graph" transform="scale(1 1) rotate(0) translate(4 604.3493)">
<title>G</title>
<polygon fill="#ffffff" stroke="transparent" points="-4,4 -4,-604.3493 1836.708,-604.3493 1836.708,4 -4,4"/>
<!-- STATE_A -->
<g id="node1" class="node">
<title>STATE_A</title>
<polygon fill="none" stroke="#000000" points="330.9168,-304.3987 332.6928,-304.4972 334.4505,-304.6447 336.1827,-304.8407 337.8823,-305.0847 339.5425,-305.376 341.1568,-305.7138 342.7188,-306.0972 344.2228,-306.5252 345.663,-306.9966 347.0343,-307.51 348.3319,-308.0641 349.5514,-308.6573 350.6891,-309.2881 351.7416,-309.9547 352.7059,-310.6553 353.5797,-311.3879 354.3611,-312.1505 355.0488,-312.9411 355.6418,-313.7575 356.1397,-314.5975 356.5428,-315.4587 356.8514,-316.3388 357.0667,-317.2353 357.19,-318.1459 357.2232,-319.068 357.1684,-319.9991 357.0282,-320.9366 356.8053,-321.878 356.5029,-322.8207 356.1242,-323.7621 355.6728,-324.6996 355.1524,-325.6307 354.5666,-326.5528 353.9195,-327.4634 353.2149,-328.3599 352.4568,-329.24 351.649,-330.1012 350.7955,-330.9411 349.9001,-331.7575 348.9665,-332.5481 347.9982,-333.3108 346.9986,-334.0434 345.9711,-334.744 344.9186,-335.4106 343.8441,-336.0413 342.7503,-336.6346 341.6396,-337.1887 340.5143,-337.7021 339.3765,-338.1735 338.2281,-338.6014 337.0708,-338.9849 335.906,-339.3227 334.7351,-339.614 333.5593,-339.858 332.3797,-340.054 331.1972,-340.2015 330.0128,-340.3 328.8272,-340.3493 327.6412,-340.3493 326.4556,-340.3 325.2712,-340.2015 324.0887,-340.054 322.9091,-339.858 321.7334,-339.614 320.5625,-339.3227 319.3977,-338.9849 318.2403,-338.6014 317.0919,-338.1735 315.9541,-337.7021 314.8288,-337.1887 313.7182,-336.6346 312.6243,-336.0413 311.5498,-335.4106 310.4974,-334.744 309.4698,-334.0434 308.4703,-333.3108 307.502,-332.5481 306.5683,-331.7575 305.6729,-330.9411 304.8194,-330.1012 304.0117,-329.24 303.2535,-328.3599 302.5489,-327.4634 301.9018,-326.5528 301.3161,-325.6307 300.7956,-324.6996 300.3442,-323.7621 299.9656,-322.8207 299.6631,-321.878 299.4403,-320.9366 299.3,-319.9991 299.2453,-319.068 299.2784,-318.1459 299.4018,-317.2353 299.617,-316.3388 299.9257,-315.4587 300.3287,-314.5975 300.8267,-313.7575 301.4197,-312.9411 302.1073,-312.1505 302.8887,-311.3879 303.7625,-310.6553 304.7268,-309.9547 305.7793,-309.2881 306.917,-308.6573 308.1366,-308.0641 309.4342,-307.51 310.8055,-306.9966 312.2457,-306.5252 313.7496,-306.0972 315.3117,-305.7138 316.926,-305.376 318.5862,-305.0847 320.2858,-304.8407 322.0179,-304.6447 323.7756,-304.4972 325.5517,-304.3987 327.3388,-304.3493 329.1296,-304.3493 330.9168,-304.3987"/>
<text text-anchor="middle" x="328.2342" y="-319.8493" font-family="Courier,monospace" font-weight="bold" font-size="10.00" fill="#000000">A</text>
</g>
<!-- STATE_B -->
<g id="node2" class="node">
<title>STATE_B</title>
<polygon fill="none" stroke="#000000" points="603.1602,-129.3987 604.9363,-129.4972 606.694,-129.6447 608.4261,-129.8407 610.1257,-130.0847 611.7859,-130.376 613.4002,-130.7138 614.9623,-131.0972 616.4662,-131.5252 617.9064,-131.9966 619.2777,-132.51 620.5753,-133.0641 621.7949,-133.6573 622.9326,-134.2881 623.9851,-134.9547 624.9494,-135.6553 625.8232,-136.3879 626.6046,-137.1505 627.2922,-137.9411 627.8852,-138.7575 628.3832,-139.5975 628.7862,-140.4587 629.0949,-141.3388 629.3101,-142.2353 629.4334,-143.1459 629.4666,-144.068 629.4118,-144.9991 629.2716,-145.9366 629.0487,-146.878 628.7463,-147.8207 628.3677,-148.7621 627.9163,-149.6996 627.3958,-150.6307 626.8101,-151.5528 626.1629,-152.4634 625.4583,-153.3599 624.7002,-154.24 623.8925,-155.1012 623.039,-155.9411 622.1436,-156.7575 621.2099,-157.5481 620.2416,-158.3108 619.242,-159.0434 618.2145,-159.744 617.162,-160.4106 616.0876,-161.0413 614.9937,-161.6346 613.883,-162.1887 612.7578,-162.7021 611.62,-163.1735 610.4716,-163.6014 609.3142,-163.9849 608.1494,-164.3227 606.9785,-164.614 605.8027,-164.858 604.6231,-165.054 603.4407,-165.2015 602.2562,-165.3 601.0707,-165.3493 599.8847,-165.3493 598.6991,-165.3 597.5146,-165.2015 596.3322,-165.054 595.1526,-164.858 593.9768,-164.614 592.8059,-164.3227 591.6411,-163.9849 590.4838,-163.6014 589.3353,-163.1735 588.1976,-162.7021 587.0723,-162.1887 585.9616,-161.6346 584.8678,-161.0413 583.7933,-160.4106 582.7408,-159.744 581.7133,-159.0434 580.7137,-158.3108 579.7454,-157.5481 578.8118,-156.7575 577.9164,-155.9411 577.0629,-155.1012 576.2551,-154.24 575.497,-153.3599 574.7924,-152.4634 574.1452,-151.5528 573.5595,-150.6307 573.0391,-149.6996 572.5877,-148.7621 572.209,-147.8207 571.9066,-146.878 571.6837,-145.9366 571.5435,-144.9991 571.4887,-144.068 571.5219,-143.1459 571.6452,-142.2353 571.8605,-141.3388 572.1691,-140.4587 572.5722,-139.5975 573.0701,-138.7575 573.6631,-137.9411 574.3507,-137.1505 575.1321,-136.3879 576.006,-135.6553 576.9703,-134.9547 578.0227,-134.2881 579.1604,-133.6573 580.38,-133.0641 581.6776,-132.51 583.0489,-131.9966 584.4891,-131.5252 585.993,-131.0972 587.5551,-130.7138 589.1694,-130.376 590.8296,-130.0847 592.5292,-129.8407 594.2614,-129.6447 596.0191,-129.4972 597.7951,-129.3987 599.5823,-129.3493 601.3731,-129.3493 603.1602,-129.3987"/>
<text text-anchor="middle" x="600.4777" y="-144.8493" font-family="Courier,monospace" font-weight="bold" font-size="10.00" fill="#000000">B</text>
</g>
<!-- STATE_A&#45;&gt;STATE_B -->
<g id="edge1" class="edge">
<title>STATE_A&#45;&gt;STATE_B</title>
<path fill="none" stroke="#000000" d="M336.1944,-304.6297C349.2701,-277.5617 377.8799,-226.1379 417.7342,-198.3493 461.6351,-167.7393 523.4238,-155.4406 562.7093,-150.5399"/>
<polygon fill="#000000" stroke="#000000" points="563.1379,-154.0138 572.6732,-149.3956 562.3391,-147.0595 563.1379,-154.0138"/>
<text text-anchor="middle" x="485.7342" y="-201.3493" font-family="Courier,monospace" font-weight="bold" font-size="10.00" fill="#000000">0.2377744624150729</text>
</g>
<!-- STATE_E -->
<g id="node5" class="node">
<title>STATE_E</title>
<polygon fill="none" stroke="#000000" points="1527.4036,-315.3987 1529.1797,-315.4972 1530.9374,-315.6447 1532.6696,-315.8407 1534.3691,-316.0847 1536.0294,-316.376 1537.6436,-316.7138 1539.2057,-317.0972 1540.7097,-317.5252 1542.1499,-317.9966 1543.5211,-318.51 1544.8187,-319.0641 1546.0383,-319.6573 1547.176,-320.2881 1548.2285,-320.9547 1549.1928,-321.6553 1550.0666,-322.3879 1550.848,-323.1505 1551.5357,-323.9411 1552.1287,-324.7575 1552.6266,-325.5975 1553.0296,-326.4587 1553.3383,-327.3388 1553.5536,-328.2353 1553.6769,-329.1459 1553.7101,-330.068 1553.6553,-330.9991 1553.5151,-331.9366 1553.2922,-332.878 1552.9898,-333.8207 1552.6111,-334.7621 1552.1597,-335.6996 1551.6393,-336.6307 1551.0535,-337.5528 1550.4064,-338.4634 1549.7018,-339.3599 1548.9436,-340.24 1548.1359,-341.1012 1547.2824,-341.9411 1546.387,-342.7575 1545.4534,-343.5481 1544.485,-344.3108 1543.4855,-345.0434 1542.4579,-345.744 1541.4055,-346.4106 1540.331,-347.0413 1539.2372,-347.6346 1538.1265,-348.1887 1537.0012,-348.7021 1535.8634,-349.1735 1534.715,-349.6014 1533.5577,-349.9849 1532.3929,-350.3227 1531.222,-350.614 1530.0462,-350.858 1528.8666,-351.054 1527.6841,-351.2015 1526.4997,-351.3 1525.3141,-351.3493 1524.1281,-351.3493 1522.9425,-351.3 1521.7581,-351.2015 1520.5756,-351.054 1519.396,-350.858 1518.2203,-350.614 1517.0494,-350.3227 1515.8846,-349.9849 1514.7272,-349.6014 1513.5788,-349.1735 1512.441,-348.7021 1511.3157,-348.1887 1510.205,-347.6346 1509.1112,-347.0413 1508.0367,-346.4106 1506.9843,-345.744 1505.9567,-345.0434 1504.9572,-344.3108 1503.9889,-343.5481 1503.0552,-342.7575 1502.1598,-341.9411 1501.3063,-341.1012 1500.4986,-340.24 1499.7404,-339.3599 1499.0358,-338.4634 1498.3887,-337.5528 1497.803,-336.6307 1497.2825,-335.6996 1496.8311,-334.7621 1496.4524,-333.8207 1496.15,-332.878 1495.9272,-331.9366 1495.7869,-330.9991 1495.7321,-330.068 1495.7653,-329.1459 1495.8886,-328.2353 1496.1039,-327.3388 1496.4126,-326.4587 1496.8156,-325.5975 1497.3136,-324.7575 1497.9066,-323.9411 1498.5942,-323.1505 1499.3756,-322.3879 1500.2494,-321.6553 1501.2137,-320.9547 1502.2662,-320.2881 1503.4039,-319.6573 1504.6235,-319.0641 1505.9211,-318.51 1507.2923,-317.9966 1508.7326,-317.5252 1510.2365,-317.0972 1511.7986,-316.7138 1513.4129,-316.376 1515.0731,-316.0847 1516.7727,-315.8407 1518.5048,-315.6447 1520.2625,-315.4972 1522.0386,-315.3987 1523.8257,-315.3493 1525.6165,-315.3493 1527.4036,-315.3987"/>
<text text-anchor="middle" x="1524.7211" y="-330.8493" font-family="Courier,monospace" font-weight="bold" font-size="10.00" fill="#000000">E</text>
</g>
<!-- STATE_A&#45;&gt;STATE_E -->
<g id="edge2" class="edge">
<title>STATE_A&#45;&gt;STATE_E</title>
<path fill="none" stroke="#000000" d="M355.2191,-326.1473C404.0451,-332.68 510.3552,-345.3493 600.4777,-345.3493 600.4777,-345.3493 600.4777,-345.3493 1194.7211,-345.3493 1300.671,-345.3493 1425.6288,-339.0955 1486.9345,-335.6172"/>
<polygon fill="#000000" stroke="#000000" points="1487.1367,-339.1115 1496.9193,-335.0432 1486.7348,-332.123 1487.1367,-339.1115"/>
<text text-anchor="middle" x="876.2211" y="-348.3493" font-family="Courier,monospace" font-weight="bold" font-size="10.00" fill="#000000">0.3631885876642511</text>
</g>
<!-- STATE_F -->
<g id="node6" class="node">
<title>STATE_F</title>
<polygon fill="none" stroke="#000000" points="1197.4036,-188.3987 1199.1797,-188.4972 1200.9374,-188.6447 1202.6696,-188.8407 1204.3691,-189.0847 1206.0294,-189.376 1207.6436,-189.7138 1209.2057,-190.0972 1210.7097,-190.5252 1212.1499,-190.9966 1213.5211,-191.51 1214.8187,-192.0641 1216.0383,-192.6573 1217.176,-193.2881 1218.2285,-193.9547 1219.1928,-194.6553 1220.0666,-195.3879 1220.848,-196.1505 1221.5357,-196.9411 1222.1287,-197.7575 1222.6266,-198.5975 1223.0296,-199.4587 1223.3383,-200.3388 1223.5536,-201.2353 1223.6769,-202.1459 1223.7101,-203.068 1223.6553,-203.9991 1223.5151,-204.9366 1223.2922,-205.878 1222.9898,-206.8207 1222.6111,-207.7621 1222.1597,-208.6996 1221.6393,-209.6307 1221.0535,-210.5528 1220.4064,-211.4634 1219.7018,-212.3599 1218.9436,-213.24 1218.1359,-214.1012 1217.2824,-214.9411 1216.387,-215.7575 1215.4534,-216.5481 1214.485,-217.3108 1213.4855,-218.0434 1212.4579,-218.744 1211.4055,-219.4106 1210.331,-220.0413 1209.2372,-220.6346 1208.1265,-221.1887 1207.0012,-221.7021 1205.8634,-222.1735 1204.715,-222.6014 1203.5577,-222.9849 1202.3929,-223.3227 1201.222,-223.614 1200.0462,-223.858 1198.8666,-224.054 1197.6841,-224.2015 1196.4997,-224.3 1195.3141,-224.3493 1194.1281,-224.3493 1192.9425,-224.3 1191.7581,-224.2015 1190.5756,-224.054 1189.396,-223.858 1188.2203,-223.614 1187.0494,-223.3227 1185.8846,-222.9849 1184.7272,-222.6014 1183.5788,-222.1735 1182.441,-221.7021 1181.3157,-221.1887 1180.205,-220.6346 1179.1112,-220.0413 1178.0367,-219.4106 1176.9843,-218.744 1175.9567,-218.0434 1174.9572,-217.3108 1173.9889,-216.5481 1173.0552,-215.7575 1172.1598,-214.9411 1171.3063,-214.1012 1170.4986,-213.24 1169.7404,-212.3599 1169.0358,-211.4634 1168.3887,-210.5528 1167.803,-209.6307 1167.2825,-208.6996 1166.8311,-207.7621 1166.4524,-206.8207 1166.15,-205.878 1165.9272,-204.9366 1165.7869,-203.9991 1165.7321,-203.068 1165.7653,-202.1459 1165.8886,-201.2353 1166.1039,-200.3388 1166.4126,-199.4587 1166.8156,-198.5975 1167.3136,-197.7575 1167.9066,-196.9411 1168.5942,-196.1505 1169.3756,-195.3879 1170.2494,-194.6553 1171.2137,-193.9547 1172.2662,-193.2881 1173.4039,-192.6573 1174.6235,-192.0641 1175.9211,-191.51 1177.2923,-190.9966 1178.7326,-190.5252 1180.2365,-190.0972 1181.7986,-189.7138 1183.4129,-189.376 1185.0731,-189.0847 1186.7727,-188.8407 1188.5048,-188.6447 1190.2625,-188.4972 1192.0386,-188.3987 1193.8257,-188.3493 1195.6165,-188.3493 1197.4036,-188.3987"/>
<text text-anchor="middle" x="1194.7211" y="-203.8493" font-family="Courier,monospace" font-weight="bold" font-size="10.00" fill="#000000">F</text>
</g>
<!-- STATE_A&#45;&gt;STATE_F -->
<g id="edge3" class="edge">
<title>STATE_A&#45;&gt;STATE_F</title>
<path fill="none" stroke="#000000" d="M353.3653,-310.9453C371.1242,-303.1382 395.6088,-292.877 417.7342,-285.3493 517.7548,-251.3199 542.7129,-238.8464 647.2211,-223.3493 848.669,-193.4774 901.6749,-215.8717 1105.2211,-209.3493 1121.8866,-208.8153 1140.2969,-208.2022 1156.0649,-207.67"/>
<polygon fill="#000000" stroke="#000000" points="1156.6294,-211.153 1166.5052,-207.3164 1156.3924,-204.157 1156.6294,-211.153"/>
<text text-anchor="middle" x="718.7211" y="-226.3493" font-family="Courier,monospace" font-weight="bold" font-size="10.00" fill="#000000">0.39903694992067607</text>
</g>
<!-- SYMBOL_x -->
<g id="node8" class="node">
<title>SYMBOL_x</title>
<polygon fill="none" stroke="#000000" stroke-dasharray="5,2" points="1806.6471,-486.3987 1808.4231,-486.4972 1810.1808,-486.6447 1811.913,-486.8407 1813.6126,-487.0847 1815.2728,-487.376 1816.8871,-487.7138 1818.4492,-488.0972 1819.9531,-488.5252 1821.3933,-488.9966 1822.7646,-489.51 1824.0622,-490.0641 1825.2818,-490.6573 1826.4195,-491.2881 1827.4719,-491.9547 1828.4363,-492.6553 1829.3101,-493.3879 1830.0915,-494.1505 1830.7791,-494.9411 1831.3721,-495.7575 1831.8701,-496.5975 1832.2731,-497.4587 1832.5817,-498.3388 1832.797,-499.2353 1832.9203,-500.1459 1832.9535,-501.068 1832.8987,-501.9991 1832.7585,-502.9366 1832.5356,-503.878 1832.2332,-504.8207 1831.8545,-505.7621 1831.4032,-506.6996 1830.8827,-507.6307 1830.297,-508.5528 1829.6498,-509.4634 1828.9452,-510.3599 1828.1871,-511.24 1827.3793,-512.1012 1826.5259,-512.9411 1825.6305,-513.7575 1824.6968,-514.5481 1823.7285,-515.3108 1822.7289,-516.0434 1821.7014,-516.744 1820.6489,-517.4106 1819.5744,-518.0413 1818.4806,-518.6346 1817.3699,-519.1887 1816.2447,-519.7021 1815.1069,-520.1735 1813.9585,-520.6014 1812.8011,-520.9849 1811.6363,-521.3227 1810.4654,-521.614 1809.2896,-521.858 1808.11,-522.054 1806.9276,-522.2015 1805.7431,-522.3 1804.5575,-522.3493 1803.3716,-522.3493 1802.186,-522.3 1801.0015,-522.2015 1799.8191,-522.054 1798.6395,-521.858 1797.4637,-521.614 1796.2928,-521.3227 1795.128,-520.9849 1793.9706,-520.6014 1792.8222,-520.1735 1791.6844,-519.7021 1790.5592,-519.1887 1789.4485,-518.6346 1788.3547,-518.0413 1787.2802,-517.4106 1786.2277,-516.744 1785.2002,-516.0434 1784.2006,-515.3108 1783.2323,-514.5481 1782.2986,-513.7575 1781.4032,-512.9411 1780.5498,-512.1012 1779.742,-511.24 1778.9839,-510.3599 1778.2793,-509.4634 1777.6321,-508.5528 1777.0464,-507.6307 1776.5259,-506.6996 1776.0746,-505.7621 1775.6959,-504.8207 1775.3935,-503.878 1775.1706,-502.9366 1775.0304,-501.9991 1774.9756,-501.068 1775.0088,-500.1459 1775.1321,-499.2353 1775.3474,-498.3388 1775.656,-497.4587 1776.059,-496.5975 1776.557,-495.7575 1777.15,-494.9411 1777.8376,-494.1505 1778.619,-493.3879 1779.4928,-492.6553 1780.4572,-491.9547 1781.5096,-491.2881 1782.6473,-490.6573 1783.8669,-490.0641 1785.1645,-489.51 1786.5358,-488.9966 1787.976,-488.5252 1789.4799,-488.0972 1791.042,-487.7138 1792.6563,-487.376 1794.3165,-487.0847 1796.0161,-486.8407 1797.7483,-486.6447 1799.506,-486.4972 1801.282,-486.3987 1803.0691,-486.3493 1804.86,-486.3493 1806.6471,-486.3987"/>
<text text-anchor="middle" x="1803.9645" y="-501.8493" font-family="Courier,monospace" font-weight="bold" font-size="10.00" fill="#000000">x</text>
</g>
<!-- STATE_A&#45;&gt;SYMBOL_x -->
<g id="edge14" class="edge">
<title>STATE_A&#45;&gt;SYMBOL_x</title>
<path fill="none" stroke="#000000" stroke-dasharray="5,2" d="M333.6814,-340.282C344.3029,-371.9997 370.9349,-437.719 417.7342,-470.3493 532.0971,-550.0877 894.3042,-589.3493 1033.7211,-589.3493 1033.7211,-589.3493 1033.7211,-589.3493 1524.7211,-589.3493 1631.2212,-589.3493 1658.4825,-571.2613 1757.2211,-531.3493 1763.7594,-528.7065 1770.4927,-525.2844 1776.7414,-521.7696"/>
<polygon fill="#000000" stroke="#000000" points="1778.6267,-524.7213 1785.4706,-516.6336 1775.0769,-518.6881 1778.6267,-524.7213"/>
<text text-anchor="middle" x="1033.7211" y="-592.3493" font-family="Courier,monospace" font-weight="bold" font-size="10.00" fill="#000000">0.31476649122275685</text>
</g>
<!-- SYMBOL_z -->
<g id="node9" class="node">
<title>SYMBOL_z</title>
<polygon fill="none" stroke="#000000" stroke-dasharray="5,2" points="1806.6471,-272.3987 1808.4231,-272.4972 1810.1808,-272.6447 1811.913,-272.8407 1813.6126,-273.0847 1815.2728,-273.376 1816.8871,-273.7138 1818.4492,-274.0972 1819.9531,-274.5252 1821.3933,-274.9966 1822.7646,-275.51 1824.0622,-276.0641 1825.2818,-276.6573 1826.4195,-277.2881 1827.4719,-277.9547 1828.4363,-278.6553 1829.3101,-279.3879 1830.0915,-280.1505 1830.7791,-280.9411 1831.3721,-281.7575 1831.8701,-282.5975 1832.2731,-283.4587 1832.5817,-284.3388 1832.797,-285.2353 1832.9203,-286.1459 1832.9535,-287.068 1832.8987,-287.9991 1832.7585,-288.9366 1832.5356,-289.878 1832.2332,-290.8207 1831.8545,-291.7621 1831.4032,-292.6996 1830.8827,-293.6307 1830.297,-294.5528 1829.6498,-295.4634 1828.9452,-296.3599 1828.1871,-297.24 1827.3793,-298.1012 1826.5259,-298.9411 1825.6305,-299.7575 1824.6968,-300.5481 1823.7285,-301.3108 1822.7289,-302.0434 1821.7014,-302.744 1820.6489,-303.4106 1819.5744,-304.0413 1818.4806,-304.6346 1817.3699,-305.1887 1816.2447,-305.7021 1815.1069,-306.1735 1813.9585,-306.6014 1812.8011,-306.9849 1811.6363,-307.3227 1810.4654,-307.614 1809.2896,-307.858 1808.11,-308.054 1806.9276,-308.2015 1805.7431,-308.3 1804.5575,-308.3493 1803.3716,-308.3493 1802.186,-308.3 1801.0015,-308.2015 1799.8191,-308.054 1798.6395,-307.858 1797.4637,-307.614 1796.2928,-307.3227 1795.128,-306.9849 1793.9706,-306.6014 1792.8222,-306.1735 1791.6844,-305.7021 1790.5592,-305.1887 1789.4485,-304.6346 1788.3547,-304.0413 1787.2802,-303.4106 1786.2277,-302.744 1785.2002,-302.0434 1784.2006,-301.3108 1783.2323,-300.5481 1782.2986,-299.7575 1781.4032,-298.9411 1780.5498,-298.1012 1779.742,-297.24 1778.9839,-296.3599 1778.2793,-295.4634 1777.6321,-294.5528 1777.0464,-293.6307 1776.5259,-292.6996 1776.0746,-291.7621 1775.6959,-290.8207 1775.3935,-289.878 1775.1706,-288.9366 1775.0304,-287.9991 1774.9756,-287.068 1775.0088,-286.1459 1775.1321,-285.2353 1775.3474,-284.3388 1775.656,-283.4587 1776.059,-282.5975 1776.557,-281.7575 1777.15,-280.9411 1777.8376,-280.1505 1778.619,-279.3879 1779.4928,-278.6553 1780.4572,-277.9547 1781.5096,-277.2881 1782.6473,-276.6573 1783.8669,-276.0641 1785.1645,-275.51 1786.5358,-274.9966 1787.976,-274.5252 1789.4799,-274.0972 1791.042,-273.7138 1792.6563,-273.376 1794.3165,-273.0847 1796.0161,-272.8407 1797.7483,-272.6447 1799.506,-272.4972 1801.282,-272.3987 1803.0691,-272.3493 1804.86,-272.3493 1806.6471,-272.3987"/>
<text text-anchor="middle" x="1803.9645" y="-287.8493" font-family="Courier,monospace" font-weight="bold" font-size="10.00" fill="#000000">z</text>
</g>
<!-- STATE_A&#45;&gt;SYMBOL_z -->
<g id="edge15" class="edge">
<title>STATE_A&#45;&gt;SYMBOL_z</title>
<path fill="none" stroke="#000000" stroke-dasharray="5,2" d="M357.173,-321.6436C473.4857,-318.8152 918.2421,-308.0812 1284.2211,-300.3493 1464.1681,-296.5477 1679.1732,-292.6004 1765.4058,-291.0415"/>
<polygon fill="#000000" stroke="#000000" points="1765.5767,-294.5391 1775.5119,-290.8591 1765.4504,-287.5402 1765.5767,-294.5391"/>
<text text-anchor="middle" x="1033.7211" y="-310.3493" font-family="Courier,monospace" font-weight="bold" font-size="10.00" fill="#000000">0.39300595372807495</text>
</g>
<!-- SYMBOL_y -->
<g id="node10" class="node">
<title>SYMBOL_y</title>
<polygon fill="none" stroke="#000000" stroke-dasharray="5,2" points="1806.6471,-100.3987 1808.4231,-100.4972 1810.1808,-100.6447 1811.913,-100.8407 1813.6126,-101.0847 1815.2728,-101.376 1816.8871,-101.7138 1818.4492,-102.0972 1819.9531,-102.5252 1821.3933,-102.9966 1822.7646,-103.51 1824.0622,-104.0641 1825.2818,-104.6573 1826.4195,-105.2881 1827.4719,-105.9547 1828.4363,-106.6553 1829.3101,-107.3879 1830.0915,-108.1505 1830.7791,-108.9411 1831.3721,-109.7575 1831.8701,-110.5975 1832.2731,-111.4587 1832.5817,-112.3388 1832.797,-113.2353 1832.9203,-114.1459 1832.9535,-115.068 1832.8987,-115.9991 1832.7585,-116.9366 1832.5356,-117.878 1832.2332,-118.8207 1831.8545,-119.7621 1831.4032,-120.6996 1830.8827,-121.6307 1830.297,-122.5528 1829.6498,-123.4634 1828.9452,-124.3599 1828.1871,-125.24 1827.3793,-126.1012 1826.5259,-126.9411 1825.6305,-127.7575 1824.6968,-128.5481 1823.7285,-129.3108 1822.7289,-130.0434 1821.7014,-130.744 1820.6489,-131.4106 1819.5744,-132.0413 1818.4806,-132.6346 1817.3699,-133.1887 1816.2447,-133.7021 1815.1069,-134.1735 1813.9585,-134.6014 1812.8011,-134.9849 1811.6363,-135.3227 1810.4654,-135.614 1809.2896,-135.858 1808.11,-136.054 1806.9276,-136.2015 1805.7431,-136.3 1804.5575,-136.3493 1803.3716,-136.3493 1802.186,-136.3 1801.0015,-136.2015 1799.8191,-136.054 1798.6395,-135.858 1797.4637,-135.614 1796.2928,-135.3227 1795.128,-134.9849 1793.9706,-134.6014 1792.8222,-134.1735 1791.6844,-133.7021 1790.5592,-133.1887 1789.4485,-132.6346 1788.3547,-132.0413 1787.2802,-131.4106 1786.2277,-130.744 1785.2002,-130.0434 1784.2006,-129.3108 1783.2323,-128.5481 1782.2986,-127.7575 1781.4032,-126.9411 1780.5498,-126.1012 1779.742,-125.24 1778.9839,-124.3599 1778.2793,-123.4634 1777.6321,-122.5528 1777.0464,-121.6307 1776.5259,-120.6996 1776.0746,-119.7621 1775.6959,-118.8207 1775.3935,-117.878 1775.1706,-116.9366 1775.0304,-115.9991 1774.9756,-115.068 1775.0088,-114.1459 1775.1321,-113.2353 1775.3474,-112.3388 1775.656,-111.4587 1776.059,-110.5975 1776.557,-109.7575 1777.15,-108.9411 1777.8376,-108.1505 1778.619,-107.3879 1779.4928,-106.6553 1780.4572,-105.9547 1781.5096,-105.2881 1782.6473,-104.6573 1783.8669,-104.0641 1785.1645,-103.51 1786.5358,-102.9966 1787.976,-102.5252 1789.4799,-102.0972 1791.042,-101.7138 1792.6563,-101.376 1794.3165,-101.0847 1796.0161,-100.8407 1797.7483,-100.6447 1799.506,-100.4972 1801.282,-100.3987 1803.0691,-100.3493 1804.86,-100.3493 1806.6471,-100.3987"/>
<text text-anchor="middle" x="1803.9645" y="-115.8493" font-family="Courier,monospace" font-weight="bold" font-size="10.00" fill="#000000">y</text>
</g>
<!-- STATE_A&#45;&gt;SYMBOL_y -->
<g id="edge16" class="edge">
<title>STATE_A&#45;&gt;SYMBOL_y</title>
<path fill="none" stroke="#000000" stroke-dasharray="5,2" d="M341.6998,-305.7719C357.6464,-285.3887 384.0202,-249.1976 399.7342,-214.3493 412.409,-186.2412 400.8904,-173.1757 417.7342,-147.3493 474.676,-60.0415 496.2423,-.3493 600.4777,-.3493 600.4777,-.3493 600.4777,-.3493 1524.7211,-.3493 1630.7053,-.3493 1668.904,5.2401 1757.2211,-53.3493 1771.5257,-62.839 1782.9072,-78.3001 1790.8569,-91.7627"/>
<polygon fill="#000000" stroke="#000000" points="1787.8881,-93.6258 1795.806,-100.6656 1794.0064,-90.2247 1787.8881,-93.6258"/>
<text text-anchor="middle" x="1033.7211" y="-3.3493" font-family="Courier,monospace" font-weight="bold" font-size="10.00" fill="#000000">0.29222755504916825</text>
</g>
<!-- STATE_C -->
<g id="node3" class="node">
<title>STATE_C</title>
<polygon fill="none" stroke="#000000" points="878.9036,-159.3987 880.6797,-159.4972 882.4374,-159.6447 884.1696,-159.8407 885.8691,-160.0847 887.5294,-160.376 889.1436,-160.7138 890.7057,-161.0972 892.2097,-161.5252 893.6499,-161.9966 895.0211,-162.51 896.3187,-163.0641 897.5383,-163.6573 898.676,-164.2881 899.7285,-164.9547 900.6928,-165.6553 901.5666,-166.3879 902.348,-167.1505 903.0357,-167.9411 903.6287,-168.7575 904.1266,-169.5975 904.5296,-170.4587 904.8383,-171.3388 905.0536,-172.2353 905.1769,-173.1459 905.2101,-174.068 905.1553,-174.9991 905.0151,-175.9366 904.7922,-176.878 904.4898,-177.8207 904.1111,-178.7621 903.6597,-179.6996 903.1393,-180.6307 902.5535,-181.5528 901.9064,-182.4634 901.2018,-183.3599 900.4436,-184.24 899.6359,-185.1012 898.7824,-185.9411 897.887,-186.7575 896.9534,-187.5481 895.985,-188.3108 894.9855,-189.0434 893.9579,-189.744 892.9055,-190.4106 891.831,-191.0413 890.7372,-191.6346 889.6265,-192.1887 888.5012,-192.7021 887.3634,-193.1735 886.215,-193.6014 885.0577,-193.9849 883.8929,-194.3227 882.722,-194.614 881.5462,-194.858 880.3666,-195.054 879.1841,-195.2015 877.9997,-195.3 876.8141,-195.3493 875.6281,-195.3493 874.4425,-195.3 873.2581,-195.2015 872.0756,-195.054 870.896,-194.858 869.7203,-194.614 868.5494,-194.3227 867.3846,-193.9849 866.2272,-193.6014 865.0788,-193.1735 863.941,-192.7021 862.8157,-192.1887 861.705,-191.6346 860.6112,-191.0413 859.5367,-190.4106 858.4843,-189.744 857.4567,-189.0434 856.4572,-188.3108 855.4889,-187.5481 854.5552,-186.7575 853.6598,-185.9411 852.8063,-185.1012 851.9986,-184.24 851.2404,-183.3599 850.5358,-182.4634 849.8887,-181.5528 849.303,-180.6307 848.7825,-179.6996 848.3311,-178.7621 847.9524,-177.8207 847.65,-176.878 847.4272,-175.9366 847.2869,-174.9991 847.2321,-174.068 847.2653,-173.1459 847.3886,-172.2353 847.6039,-171.3388 847.9126,-170.4587 848.3156,-169.5975 848.8136,-168.7575 849.4066,-167.9411 850.0942,-167.1505 850.8756,-166.3879 851.7494,-165.6553 852.7137,-164.9547 853.7662,-164.2881 854.9039,-163.6573 856.1235,-163.0641 857.4211,-162.51 858.7923,-161.9966 860.2326,-161.5252 861.7365,-161.0972 863.2986,-160.7138 864.9129,-160.376 866.5731,-160.0847 868.2727,-159.8407 870.0048,-159.6447 871.7625,-159.4972 873.5386,-159.3987 875.3257,-159.3493 877.1165,-159.3493 878.9036,-159.3987"/>
<text text-anchor="middle" x="876.2211" y="-174.8493" font-family="Courier,monospace" font-weight="bold" font-size="10.00" fill="#000000">C</text>
</g>
<!-- STATE_B&#45;&gt;STATE_C -->
<g id="edge4" class="edge">
<title>STATE_B&#45;&gt;STATE_C</title>
<path fill="none" stroke="#000000" d="M627.6717,-150.308C676.789,-155.6518 780.4525,-166.93 837.1513,-173.0987"/>
<polygon fill="#000000" stroke="#000000" points="836.848,-176.5862 847.168,-174.1885 837.6052,-169.6273 836.848,-176.5862"/>
<text text-anchor="middle" x="718.7211" y="-170.3493" font-family="Courier,monospace" font-weight="bold" font-size="10.00" fill="#000000">0.10230470877055443</text>
</g>
<!-- STATE_D -->
<g id="node4" class="node">
<title>STATE_D</title>
<polygon fill="none" stroke="#000000" points="1036.4036,-452.3987 1038.1797,-452.4972 1039.9374,-452.6447 1041.6696,-452.8407 1043.3691,-453.0847 1045.0294,-453.376 1046.6436,-453.7138 1048.2057,-454.0972 1049.7097,-454.5252 1051.1499,-454.9966 1052.5211,-455.51 1053.8187,-456.0641 1055.0383,-456.6573 1056.176,-457.2881 1057.2285,-457.9547 1058.1928,-458.6553 1059.0666,-459.3879 1059.848,-460.1505 1060.5357,-460.9411 1061.1287,-461.7575 1061.6266,-462.5975 1062.0296,-463.4587 1062.3383,-464.3388 1062.5536,-465.2353 1062.6769,-466.1459 1062.7101,-467.068 1062.6553,-467.9991 1062.5151,-468.9366 1062.2922,-469.878 1061.9898,-470.8207 1061.6111,-471.7621 1061.1597,-472.6996 1060.6393,-473.6307 1060.0535,-474.5528 1059.4064,-475.4634 1058.7018,-476.3599 1057.9436,-477.24 1057.1359,-478.1012 1056.2824,-478.9411 1055.387,-479.7575 1054.4534,-480.5481 1053.485,-481.3108 1052.4855,-482.0434 1051.4579,-482.744 1050.4055,-483.4106 1049.331,-484.0413 1048.2372,-484.6346 1047.1265,-485.1887 1046.0012,-485.7021 1044.8634,-486.1735 1043.715,-486.6014 1042.5577,-486.9849 1041.3929,-487.3227 1040.222,-487.614 1039.0462,-487.858 1037.8666,-488.054 1036.6841,-488.2015 1035.4997,-488.3 1034.3141,-488.3493 1033.1281,-488.3493 1031.9425,-488.3 1030.7581,-488.2015 1029.5756,-488.054 1028.396,-487.858 1027.2203,-487.614 1026.0494,-487.3227 1024.8846,-486.9849 1023.7272,-486.6014 1022.5788,-486.1735 1021.441,-485.7021 1020.3157,-485.1887 1019.205,-484.6346 1018.1112,-484.0413 1017.0367,-483.4106 1015.9843,-482.744 1014.9567,-482.0434 1013.9572,-481.3108 1012.9889,-480.5481 1012.0552,-479.7575 1011.1598,-478.9411 1010.3063,-478.1012 1009.4986,-477.24 1008.7404,-476.3599 1008.0358,-475.4634 1007.3887,-474.5528 1006.803,-473.6307 1006.2825,-472.6996 1005.8311,-471.7621 1005.4524,-470.8207 1005.15,-469.878 1004.9272,-468.9366 1004.7869,-467.9991 1004.7321,-467.068 1004.7653,-466.1459 1004.8886,-465.2353 1005.1039,-464.3388 1005.4126,-463.4587 1005.8156,-462.5975 1006.3136,-461.7575 1006.9066,-460.9411 1007.5942,-460.1505 1008.3756,-459.3879 1009.2494,-458.6553 1010.2137,-457.9547 1011.2662,-457.2881 1012.4039,-456.6573 1013.6235,-456.0641 1014.9211,-455.51 1016.2923,-454.9966 1017.7326,-454.5252 1019.2365,-454.0972 1020.7986,-453.7138 1022.4129,-453.376 1024.0731,-453.0847 1025.7727,-452.8407 1027.5048,-452.6447 1029.2625,-452.4972 1031.0386,-452.3987 1032.8257,-452.3493 1034.6165,-452.3493 1036.4036,-452.3987"/>
<text text-anchor="middle" x="1033.7211" y="-467.8493" font-family="Courier,monospace" font-weight="bold" font-size="10.00" fill="#000000">D</text>
</g>
<!-- STATE_B&#45;&gt;STATE_D -->
<g id="edge5" class="edge">
<title>STATE_B&#45;&gt;STATE_D</title>
<path fill="none" stroke="#000000" d="M604.9666,-165.1357C611.0831,-185.7438 624.0239,-219.3007 647.2211,-238.3493 753.33,-325.4817 835.0291,-240.1131 944.2211,-323.3493 984.9213,-354.3748 1011.2239,-409.6887 1024.1754,-442.9013"/>
<polygon fill="#000000" stroke="#000000" points="1020.9699,-444.3209 1027.7673,-452.4477 1027.5215,-441.8558 1020.9699,-444.3209"/>
<text text-anchor="middle" x="718.7211" y="-284.3493" font-family="Courier,monospace" font-weight="bold" font-size="10.00" fill="#000000">0.8976952912294456</text>
</g>
<!-- STATE_B&#45;&gt;SYMBOL_x -->
<g id="edge17" class="edge">
<title>STATE_B&#45;&gt;SYMBOL_x</title>
<path fill="none" stroke="#000000" stroke-dasharray="5,2" d="M604.0548,-165.127C611.4388,-200.273 629.1916,-276.9265 647.2211,-296.3493 699.6077,-352.7845 735.2604,-335.7318 808.2211,-360.3493 867.687,-380.4136 901.9451,-351.965 944.2211,-398.3493 974.3462,-431.402 928.4713,-468.0074 962.2211,-497.3493 1071.6107,-592.4521 1469.2767,-515.0318 1614.2211,-516.3493 1677.774,-516.927 1694.1666,-524.3139 1757.2211,-516.3493 1761.4292,-515.8178 1765.8009,-515.0272 1770.107,-514.1008"/>
<polygon fill="#000000" stroke="#000000" points="1771.0167,-517.482 1779.9276,-511.7508 1769.3876,-510.6742 1771.0167,-517.482"/>
<text text-anchor="middle" x="1194.7211" y="-547.3493" font-family="Courier,monospace" font-weight="bold" font-size="10.00" fill="#000000">0.5060875535752375</text>
</g>
<!-- STATE_B&#45;&gt;SYMBOL_z -->
<g id="edge18" class="edge">
<title>STATE_B&#45;&gt;SYMBOL_z</title>
<path fill="none" stroke="#000000" stroke-dasharray="5,2" d="M628.4503,-139.0716C634.5837,-137.5653 641.0801,-136.2026 647.2211,-135.3493 777.9768,-117.1807 812.232,-128.8908 944.2211,-131.3493 1034.7605,-133.0358 1682.9758,-136.5049 1757.2211,-188.3493 1781.5673,-205.35 1793.4932,-238.2719 1799.1578,-262.1254"/>
<polygon fill="#000000" stroke="#000000" points="1795.7642,-262.9932 1801.2812,-272.0383 1802.6089,-261.527 1795.7642,-262.9932"/>
<text text-anchor="middle" x="1194.7211" y="-140.3493" font-family="Courier,monospace" font-weight="bold" font-size="10.00" fill="#000000">0.15523671118842658</text>
</g>
<!-- STATE_B&#45;&gt;SYMBOL_y -->
<g id="edge19" class="edge">
<title>STATE_B&#45;&gt;SYMBOL_y</title>
<path fill="none" stroke="#000000" stroke-dasharray="5,2" d="M606.1005,-129.3133C612.7873,-111.1425 625.8215,-83.9097 647.2211,-70.3493 733.6625,-15.5736 773.8859,-46.3493 876.2211,-46.3493 876.2211,-46.3493 876.2211,-46.3493 1524.7211,-46.3493 1615.2616,-46.3493 1717.2345,-82.2799 1769.3046,-103.3766"/>
<polygon fill="#000000" stroke="#000000" points="1768.1544,-106.688 1778.7339,-107.2571 1770.8184,-100.2147 1768.1544,-106.688"/>
<text text-anchor="middle" x="1194.7211" y="-49.3493" font-family="Courier,monospace" font-weight="bold" font-size="10.00" fill="#000000">0.3386757352363359</text>
</g>
<!-- STATE_C&#45;&gt;STATE_F -->
<g id="edge6" class="edge">
<title>STATE_C&#45;&gt;STATE_F</title>
<path fill="none" stroke="#000000" d="M903.6519,-179.847C960.254,-185.0007 1090.1562,-196.8285 1155.5691,-202.7845"/>
<polygon fill="#000000" stroke="#000000" points="1155.5942,-206.3012 1165.8704,-203.7224 1156.229,-199.33 1155.5942,-206.3012"/>
<text text-anchor="middle" x="1033.7211" y="-200.3493" font-family="Courier,monospace" font-weight="bold" font-size="10.00" fill="#000000">1.0</text>
</g>
<!-- STATE_D&#45;&gt;STATE_A -->
<g id="edge7" class="edge">
<title>STATE_D&#45;&gt;STATE_A</title>
<path fill="none" stroke="#000000" d="M1005.6926,-472.1838C899.3256,-478.6761 521.4086,-497.3416 417.7342,-442.3493 379.5727,-422.1073 353.2369,-377.5651 339.4575,-348.81"/>
<polygon fill="#000000" stroke="#000000" points="342.6326,-347.337 335.2669,-339.7214 336.2757,-350.2681 342.6326,-347.337"/>
<text text-anchor="middle" x="600.4777" y="-480.3493" font-family="Courier,monospace" font-weight="bold" font-size="10.00" fill="#000000">1.0</text>
</g>
<!-- STATE_D&#45;&gt;SYMBOL_x -->
<g id="edge20" class="edge">
<title>STATE_D&#45;&gt;SYMBOL_x</title>
<path fill="none" stroke="#000000" stroke-dasharray="5,2" d="M1060.6956,-473.9042C1078.4326,-476.1081 1102.1706,-478.8045 1123.2211,-480.3493 1367.2343,-498.2567 1661.4663,-502.8951 1765.3662,-504.0156"/>
<polygon fill="#000000" stroke="#000000" points="1765.3522,-507.5155 1775.3878,-504.119 1765.4245,-500.5159 1765.3522,-507.5155"/>
<text text-anchor="middle" x="1359.7211" y="-498.3493" font-family="Courier,monospace" font-weight="bold" font-size="10.00" fill="#000000">0.4340877934597644</text>
</g>
<!-- STATE_D&#45;&gt;SYMBOL_z -->
<g id="edge21" class="edge">
<title>STATE_D&#45;&gt;SYMBOL_z</title>
<path fill="none" stroke="#000000" stroke-dasharray="5,2" d="M1061.7155,-472.4953C1128.152,-476.7165 1299.9031,-482.4887 1435.2211,-442.3493 1443.9949,-439.7468 1444.7339,-435.7729 1453.2211,-432.3493 1514.2076,-407.7487 1533.2902,-413.4347 1596.2211,-394.3493 1668.5822,-372.404 1693.5224,-380.095 1757.2211,-339.3493 1767.6853,-332.6558 1777.4741,-323.1408 1785.3626,-314.2735"/>
<polygon fill="#000000" stroke="#000000" points="1788.2334,-316.2999 1792.0377,-306.4116 1782.8973,-311.7693 1788.2334,-316.2999"/>
<text text-anchor="middle" x="1359.7211" y="-472.3493" font-family="Courier,monospace" font-weight="bold" font-size="10.00" fill="#000000">0.026791232362406832</text>
</g>
<!-- STATE_D&#45;&gt;SYMBOL_y -->
<g id="edge22" class="edge">
<title>STATE_D&#45;&gt;SYMBOL_y</title>
<path fill="none" stroke="#000000" stroke-dasharray="5,2" d="M1062.6016,-465.0843C1109.1708,-456.664 1203.7739,-439.8448 1284.2211,-427.3493 1351.1753,-416.9497 1371.8817,-430.4145 1435.2211,-406.3493 1444.209,-402.9345 1444.4059,-398.1882 1453.2211,-394.3493 1513.1155,-368.2664 1548.7071,-405.1832 1596.2211,-360.3493 1616.4704,-341.2423 1594.9189,-320.4126 1614.2211,-300.3493 1660.7996,-251.9343 1709.5293,-298.6682 1757.2211,-251.3493 1785.6929,-223.1002 1796.8673,-176.5176 1801.2227,-146.6492"/>
<polygon fill="#000000" stroke="#000000" points="1804.7281,-146.8322 1802.5382,-136.4662 1797.7858,-145.9353 1804.7281,-146.8322"/>
<text text-anchor="middle" x="1359.7211" y="-430.3493" font-family="Courier,monospace" font-weight="bold" font-size="10.00" fill="#000000">0.5391209741778288</text>
</g>
<!-- STATE_E&#45;&gt;STATE_A -->
<g id="edge8" class="edge">
<title>STATE_E&#45;&gt;STATE_A</title>
<path fill="none" stroke="#000000" d="M1500.6824,-340.7681C1482.8173,-345.9101 1457.7435,-352.351 1435.2211,-355.3493 1360.746,-365.2639 1341.3465,-358.3437 1266.2211,-359.3493 957.5876,-363.4806 880.2903,-366.4026 571.7342,-358.3493 503.2612,-356.5622 485.1094,-364.692 417.7342,-352.3493 397.926,-348.7206 376.5123,-341.6632 359.5986,-335.3049"/>
<polygon fill="#000000" stroke="#000000" points="360.7954,-332.0152 350.2061,-331.6731 358.2709,-338.5441 360.7954,-332.0152"/>
<text text-anchor="middle" x="876.2211" y="-366.3493" font-family="Courier,monospace" font-weight="bold" font-size="10.00" fill="#000000">1.0</text>
</g>
<!-- STATE_E&#45;&gt;SYMBOL_x -->
<g id="edge23" class="edge">
<title>STATE_E&#45;&gt;SYMBOL_x</title>
<path fill="none" stroke="#000000" stroke-dasharray="5,2" d="M1548.4554,-340.772C1592.8564,-355.4763 1690.0542,-391.6033 1757.2211,-445.3493 1768.9297,-454.7184 1779.5335,-467.5426 1787.6704,-478.842"/>
<polygon fill="#000000" stroke="#000000" points="1784.8196,-480.8732 1793.3893,-487.103 1790.575,-476.8888 1784.8196,-480.8732"/>
<text text-anchor="middle" x="1685.7211" y="-448.3493" font-family="Courier,monospace" font-weight="bold" font-size="10.00" fill="#000000">0.19900529757613783</text>
</g>
<!-- STATE_E&#45;&gt;SYMBOL_z -->
<g id="edge24" class="edge">
<title>STATE_E&#45;&gt;SYMBOL_z</title>
<path fill="none" stroke="#000000" stroke-dasharray="5,2" d="M1553.6113,-331.3048C1597.8264,-327.8263 1684.7771,-319.6046 1757.2211,-304.3493 1761.6301,-303.4209 1766.2248,-302.2739 1770.7376,-301.0393"/>
<polygon fill="#000000" stroke="#000000" points="1771.7501,-304.39 1780.3825,-298.2473 1769.8036,-297.666 1771.7501,-304.39"/>
<text text-anchor="middle" x="1685.7211" y="-327.3493" font-family="Courier,monospace" font-weight="bold" font-size="10.00" fill="#000000">0.6228284341131863</text>
</g>
<!-- STATE_E&#45;&gt;SYMBOL_y -->
<g id="edge25" class="edge">
<title>STATE_E&#45;&gt;SYMBOL_y</title>
<path fill="none" stroke="#000000" stroke-dasharray="5,2" d="M1538.5691,-316.7589C1555.3321,-297.2237 1584.966,-264.3963 1614.2211,-240.3493 1667.0741,-196.9055 1736.1517,-155.9418 1774.6981,-134.3041"/>
<polygon fill="#000000" stroke="#000000" points="1776.7775,-137.1523 1783.8118,-129.2296 1773.3721,-131.0364 1776.7775,-137.1523"/>
<text text-anchor="middle" x="1685.7211" y="-243.3493" font-family="Courier,monospace" font-weight="bold" font-size="10.00" fill="#000000">0.17816626831067595</text>
</g>
<!-- STATE_F&#45;&gt;STATE_B -->
<g id="edge9" class="edge">
<title>STATE_F&#45;&gt;STATE_B</title>
<path fill="none" stroke="#000000" d="M1166.5386,-198.3433C1148.9329,-193.3751 1125.78,-186.9019 1105.2211,-181.3493 1033.8288,-162.0678 1017.5703,-148.7592 944.2211,-139.3493 884.268,-131.6581 868.6544,-138.1862 808.2211,-139.3493 749.3379,-140.4827 681.1187,-143.4214 639.3871,-145.4036"/>
<polygon fill="#000000" stroke="#000000" points="639.1902,-141.9089 629.3699,-145.8852 639.5265,-148.9008 639.1902,-141.9089"/>
<text text-anchor="middle" x="876.2211" y="-142.3493" font-family="Courier,monospace" font-weight="bold" font-size="10.00" fill="#000000">0.4812058244723345</text>
</g>
<!-- STATE_F&#45;&gt;STATE_E -->
<g id="edge10" class="edge">
<title>STATE_F&#45;&gt;STATE_E</title>
<path fill="none" stroke="#000000" d="M1217.4033,-215.0786C1273.7529,-236.7646 1420.4741,-293.2301 1488.7729,-319.5147"/>
<polygon fill="#000000" stroke="#000000" points="1487.6708,-322.8408 1498.2606,-323.1661 1490.185,-316.3079 1487.6708,-322.8408"/>
<text text-anchor="middle" x="1359.7211" y="-298.3493" font-family="Courier,monospace" font-weight="bold" font-size="10.00" fill="#000000">0.5187941755276655</text>
</g>
<!-- STATE_F&#45;&gt;SYMBOL_x -->
<g id="edge26" class="edge">
<title>STATE_F&#45;&gt;SYMBOL_x</title>
<path fill="none" stroke="#000000" stroke-dasharray="5,2" d="M1205.3566,-222.7708C1220.5383,-245.1265 1250.3611,-285.2251 1284.2211,-310.3493 1413.0175,-405.917 1462.2362,-405.1414 1614.2211,-456.3493 1676.1289,-477.2078 1694.1268,-473.4151 1757.2211,-490.3493 1760.233,-491.1577 1763.3453,-492.0231 1766.4668,-492.9124"/>
<polygon fill="#000000" stroke="#000000" points="1765.7768,-496.3568 1776.3567,-495.7937 1767.7348,-489.6362 1765.7768,-496.3568"/>
<text text-anchor="middle" x="1524.7211" y="-452.3493" font-family="Courier,monospace" font-weight="bold" font-size="10.00" fill="#000000">0.3902263473403556</text>
</g>
<!-- STATE_F&#45;&gt;SYMBOL_z -->
<g id="edge27" class="edge">
<title>STATE_F&#45;&gt;SYMBOL_z</title>
<path fill="none" stroke="#000000" stroke-dasharray="5,2" d="M1223.7952,-203.6337C1325.5484,-194.651 1664.4896,-169.2726 1757.2211,-220.3493 1774.0751,-229.6326 1785.9575,-247.8847 1793.5239,-263.4237"/>
<polygon fill="#000000" stroke="#000000" points="1790.3807,-264.9676 1797.6831,-272.6438 1796.7615,-262.0891 1790.3807,-264.9676"/>
<text text-anchor="middle" x="1524.7211" y="-193.3493" font-family="Courier,monospace" font-weight="bold" font-size="10.00" fill="#000000">0.389623854579958</text>
</g>
<!-- STATE_F&#45;&gt;SYMBOL_y -->
<g id="edge28" class="edge">
<title>STATE_F&#45;&gt;SYMBOL_y</title>
<path fill="none" stroke="#000000" stroke-dasharray="5,2" d="M1223.2078,-199.2978C1240.7278,-195.1322 1263.6825,-189.9802 1284.2211,-186.3493 1463.7977,-154.6036 1680.7066,-130.8911 1766.4671,-122.0873"/>
<polygon fill="#000000" stroke="#000000" points="1766.908,-125.5606 1776.5013,-121.064 1766.1978,-118.5967 1766.908,-125.5606"/>
<text text-anchor="middle" x="1524.7211" y="-161.3493" font-family="Courier,monospace" font-weight="bold" font-size="10.00" fill="#000000">0.22014979807968627</text>
</g>
<!-- STATE_SOURCE -->
<g id="node7" class="node">
<title>STATE_SOURCE</title>
<polygon fill="none" stroke="#000000" points="42.4515,-304.3987 44.8246,-304.4972 47.1732,-304.6447 49.4877,-304.8407 51.7587,-305.0847 53.9771,-305.376 56.134,-305.7138 58.2213,-306.0972 60.2308,-306.5252 62.1552,-306.9966 63.9875,-307.51 65.7213,-308.0641 67.3509,-308.6573 68.8711,-309.2881 70.2774,-309.9547 71.5659,-310.6553 72.7335,-311.3879 73.7776,-312.1505 74.6964,-312.9411 75.4887,-313.7575 76.1541,-314.5975 76.6926,-315.4587 77.105,-316.3388 77.3927,-317.2353 77.5574,-318.1459 77.6018,-319.068 77.5286,-319.9991 77.3412,-320.9366 77.0434,-321.878 76.6393,-322.8207 76.1334,-323.7621 75.5302,-324.6996 74.8348,-325.6307 74.0521,-326.5528 73.1874,-327.4634 72.246,-328.3599 71.2329,-329.24 70.1536,-330.1012 69.0132,-330.9411 67.8168,-331.7575 66.5693,-332.5481 65.2754,-333.3108 63.9398,-334.0434 62.5668,-334.744 61.1606,-335.4106 59.7248,-336.0413 58.2633,-336.6346 56.7792,-337.1887 55.2756,-337.7021 53.7553,-338.1735 52.2208,-338.6014 50.6744,-338.9849 49.118,-339.3227 47.5535,-339.614 45.9824,-339.858 44.4062,-340.054 42.8263,-340.2015 41.2436,-340.3 39.6595,-340.3493 38.0748,-340.3493 36.4906,-340.3 34.908,-340.2015 33.328,-340.054 31.7518,-339.858 30.1808,-339.614 28.6162,-339.3227 27.0598,-338.9849 25.5134,-338.6014 23.9789,-338.1735 22.4586,-337.7021 20.955,-337.1887 19.4709,-336.6346 18.0094,-336.0413 16.5737,-335.4106 15.1674,-334.744 13.7944,-334.0434 12.4588,-333.3108 11.1649,-332.5481 9.9174,-331.7575 8.721,-330.9411 7.5806,-330.1012 6.5013,-329.24 5.4883,-328.3599 4.5468,-327.4634 3.6821,-326.5528 2.8994,-325.6307 2.204,-324.6996 1.6009,-323.7621 1.0949,-322.8207 .6908,-321.878 .393,-320.9366 .2056,-319.9991 .1324,-319.068 .1768,-318.1459 .3416,-317.2353 .6292,-316.3388 1.0416,-315.4587 1.5801,-314.5975 2.2455,-313.7575 3.0379,-312.9411 3.9567,-312.1505 5.0008,-311.3879 6.1683,-310.6553 7.4568,-309.9547 8.8631,-309.2881 10.3833,-308.6573 12.0129,-308.0641 13.7467,-307.51 15.579,-306.9966 17.5034,-306.5252 19.513,-306.0972 21.6002,-305.7138 23.7572,-305.376 25.9755,-305.0847 28.2465,-304.8407 30.561,-304.6447 32.9096,-304.4972 35.2827,-304.3987 37.6707,-304.3493 40.0635,-304.3493 42.4515,-304.3987"/>
<text text-anchor="middle" x="38.8671" y="-319.8493" font-family="Courier,monospace" font-weight="bold" font-size="10.00" fill="#000000">SOURCE</text>
</g>
<!-- STATE_SOURCE&#45;&gt;STATE_A -->
<g id="edge11" class="edge">
<title>STATE_SOURCE&#45;&gt;STATE_A</title>
<path fill="none" stroke="#000000" d="M76.9944,-322.3493C132.2138,-322.3493 233.9002,-322.3493 289.4729,-322.3493"/>
<polygon fill="#000000" stroke="#000000" points="289.6184,-325.8494 299.6183,-322.3493 289.6183,-318.8494 289.6184,-325.8494"/>
<text text-anchor="middle" x="167.2342" y="-325.3493" font-family="Courier,monospace" font-weight="bold" font-size="10.00" fill="#000000">0.38101818420528394</text>
</g>
<!-- STATE_SOURCE&#45;&gt;STATE_B -->
<g id="edge12" class="edge">
<title>STATE_SOURCE&#45;&gt;STATE_B</title>
<path fill="none" stroke="#000000" d="M62.3886,-307.0126C120.0222,-270.4628 274.0829,-178.9231 417.7342,-147.3493 466.451,-136.6417 524.2544,-139.0859 561.6094,-142.5665"/>
<polygon fill="#000000" stroke="#000000" points="561.2794,-146.0509 571.5786,-143.5656 561.9775,-139.0858 561.2794,-146.0509"/>
<text text-anchor="middle" x="328.2342" y="-202.3493" font-family="Courier,monospace" font-weight="bold" font-size="10.00" fill="#000000">0.15343296462879435</text>
</g>
<!-- STATE_SOURCE&#45;&gt;STATE_D -->
<g id="edge13" class="edge">
<title>STATE_SOURCE&#45;&gt;STATE_D</title>
<path fill="none" stroke="#000000" d="M49.0666,-339.5616C82.0704,-392.8181 191.7744,-551.3493 328.2342,-551.3493 328.2342,-551.3493 328.2342,-551.3493 718.7211,-551.3493 825.7904,-551.3493 947.0638,-506.9116 1002.7602,-483.8649"/>
<polygon fill="#000000" stroke="#000000" points="1004.1997,-487.0565 1012.0659,-479.9592 1001.4906,-480.602 1004.1997,-487.0565"/>
<text text-anchor="middle" x="485.7342" y="-554.3493" font-family="Courier,monospace" font-weight="bold" font-size="10.00" fill="#000000">0.4655488511659217</text>
</g>
</g>
</svg>
