<?xml version="1.0" encoding="UTF-8" standalone="no"?>
<!DOCTYPE svg PUBLIC "-//W3C//DTD SVG 1.1//EN"
 "http://www.w3.org/Graphics/SVG/1.1/DTD/svg11.dtd">
<!-- Generated by graphviz version 2.40.1 (0)
 -->
<!-- Title: G Pages: 1 -->
<svg width="317pt" height="186pt"
 viewBox="0.00 0.00 317.00 186.00" xmlns="http://www.w3.org/2000/svg" xmlns:xlink="http://www.w3.org/1999/xlink">
<g id="graph0" class="graph" transform="scale(1 1) rotate(0) translate(4 182)">
<title>G</title>
<polygon fill="#ffffff" stroke="transparent" points="-4,4 -4,-182 313,-182 313,4 -4,4"/>
<!-- N10 -->
<g id="node1" class="node">
<title>N10</title>
<ellipse fill="none" stroke="#000000" cx="110.5" cy="-31.5" rx="14.5" ry="14.5"/>
<text text-anchor="middle" x="110.5" y="-29" font-family="Courier,monospace" font-weight="bold" font-size="10.00" fill="#000000">N10</text>
</g>
<!-- N6 -->
<g id="node3" class="node">
<title>N6</title>
<ellipse fill="none" stroke="#000000" cx="206.5" cy="-65.5" rx="14.5" ry="14.5"/>
<text text-anchor="middle" x="206.5" y="-63" font-family="Courier,monospace" font-weight="bold" font-size="10.00" fill="#000000">N6</text>
</g>
<!-- N10&#45;&#45;N6 -->
<g id="edge3" class="edge">
<title>N10&#45;&#45;N6</title>
<path fill="none" stroke="#000000" d="M124.8642,-34.7812C137.8945,-37.9426 157.5278,-43.1707 174,-49.5 180.5751,-52.0264 187.6177,-55.4047 193.4602,-58.4059"/>
<text text-anchor="middle" x="158.5" y="-52.5" font-family="Courier,monospace" font-weight="bold" font-size="10.00" fill="#000000">3.0</text>
</g>
<!-- v3 -->
<g id="node7" class="node">
<title>v3</title>
<ellipse fill="none" stroke="#000000" cx="206.5" cy="-14.5" rx="14.5" ry="14.5"/>
<text text-anchor="middle" x="206.5" y="-12" font-family="Courier,monospace" font-weight="bold" font-size="10.00" fill="#000000">v3</text>
</g>
<!-- N10&#45;&#45;v3 -->
<g id="edge4" class="edge">
<title>N10&#45;&#45;v3</title>
<path fill="none" stroke="#000000" d="M122.972,-23.744C128.8231,-20.5373 136.0302,-17.1806 143,-15.5 159.3993,-11.5457 178.878,-11.9608 191.8976,-12.935"/>
<text text-anchor="middle" x="158.5" y="-18.5" font-family="Courier,monospace" font-weight="bold" font-size="10.00" fill="#000000">3.0</text>
</g>
<!-- N2 -->
<g id="node2" class="node">
<title>N2</title>
<ellipse fill="none" stroke="#000000" cx="110.5" cy="-116.5" rx="14.5" ry="14.5"/>
<text text-anchor="middle" x="110.5" y="-114" font-family="Courier,monospace" font-weight="bold" font-size="10.00" fill="#000000">N2</text>
</g>
<!-- N2&#45;&#45;N6 -->
<g id="edge7" class="edge">
<title>N2&#45;&#45;N6</title>
<path fill="none" stroke="#000000" d="M123.447,-109.6219C141.7692,-99.8882 175.0742,-82.195 193.4515,-72.432"/>
<text text-anchor="middle" x="158.5" y="-101.5" font-family="Courier,monospace" font-weight="bold" font-size="10.00" fill="#000000">4.0</text>
</g>
<!-- v0 -->
<g id="node4" class="node">
<title>v0</title>
<ellipse fill="none" stroke="#000000" cx="206.5" cy="-163.5" rx="14.5" ry="14.5"/>
<text text-anchor="middle" x="206.5" y="-161" font-family="Courier,monospace" font-weight="bold" font-size="10.00" fill="#000000">v0</text>
</g>
<!-- N2&#45;&#45;v0 -->
<g id="edge6" class="edge">
<title>N2&#45;&#45;v0</title>
<path fill="none" stroke="#000000" d="M123.8484,-123.0351C142.1895,-132.0146 174.9837,-148.0701 193.265,-157.0204"/>
<text text-anchor="middle" x="158.5" y="-149.5" font-family="Courier,monospace" font-weight="bold" font-size="10.00" fill="#000000">11.0</text>
</g>
<!-- v1 -->
<g id="node5" class="node">
<title>v1</title>
<ellipse fill="none" stroke="#000000" cx="206.5" cy="-116.5" rx="14.5" ry="14.5"/>
<text text-anchor="middle" x="206.5" y="-114" font-family="Courier,monospace" font-weight="bold" font-size="10.00" fill="#000000">v1</text>
</g>
<!-- N2&#45;&#45;v1 -->
<g id="edge1" class="edge">
<title>N2&#45;&#45;v1</title>
<path fill="none" stroke="#000000" d="M125.0803,-116.5C143.124,-116.5 173.6756,-116.5 191.7825,-116.5"/>
<text text-anchor="middle" x="158.5" y="-119.5" font-family="Courier,monospace" font-weight="bold" font-size="10.00" fill="#000000">2.0</text>
</g>
<!-- v5 -->
<g id="node9" class="node">
<title>v5</title>
<ellipse fill="none" stroke="#000000" cx="294.5" cy="-65.5" rx="14.5" ry="14.5"/>
<text text-anchor="middle" x="294.5" y="-63" font-family="Courier,monospace" font-weight="bold" font-size="10.00" fill="#000000">v5</text>
</g>
<!-- N6&#45;&#45;v5 -->
<g id="edge8" class="edge">
<title>N6&#45;&#45;v5</title>
<path fill="none" stroke="#000000" d="M221.0314,-65.5C237.3364,-65.5 263.6332,-65.5 279.947,-65.5"/>
<text text-anchor="middle" x="250.5" y="-68.5" font-family="Courier,monospace" font-weight="bold" font-size="10.00" fill="#000000">7.0</text>
</g>
<!-- v2 -->
<g id="node6" class="node">
<title>v2</title>
<ellipse fill="none" stroke="#000000" cx="14.5" cy="-116.5" rx="14.5" ry="14.5"/>
<text text-anchor="middle" x="14.5" y="-114" font-family="Courier,monospace" font-weight="bold" font-size="10.00" fill="#000000">v2</text>
</g>
<!-- v2&#45;&#45;N2 -->
<g id="edge5" class="edge">
<title>v2&#45;&#45;N2</title>
<path fill="none" stroke="#000000" d="M29.0803,-116.5C47.124,-116.5 77.6756,-116.5 95.7825,-116.5"/>
<text text-anchor="middle" x="62.5" y="-119.5" font-family="Courier,monospace" font-weight="bold" font-size="10.00" fill="#000000">10.0</text>
</g>
<!-- v4 -->
<g id="node8" class="node">
<title>v4</title>
<ellipse fill="none" stroke="#000000" cx="14.5" cy="-31.5" rx="14.5" ry="14.5"/>
<text text-anchor="middle" x="14.5" y="-29" font-family="Courier,monospace" font-weight="bold" font-size="10.00" fill="#000000">v4</text>
</g>
<!-- v4&#45;&#45;N10 -->
<g id="edge2" class="edge">
<title>v4&#45;&#45;N10</title>
<path fill="none" stroke="#000000" d="M29.0803,-31.5C47.124,-31.5 77.6756,-31.5 95.7825,-31.5"/>
<text text-anchor="middle" x="62.5" y="-34.5" font-family="Courier,monospace" font-weight="bold" font-size="10.00" fill="#000000">4.0</text>
</g>
</g>
</svg>
