<?xml version="1.0" encoding="UTF-8" standalone="no"?>
<!DOCTYPE svg PUBLIC "-//W3C//DTD SVG 1.1//EN"
 "http://www.w3.org/Graphics/SVG/1.1/DTD/svg11.dtd">
<!-- Generated by graphviz version 2.40.1 (0)
 -->
<!-- Title: G Pages: 1 -->
<svg width="801pt" height="199pt"
 viewBox="0.00 0.00 801.41 199.00" xmlns="http://www.w3.org/2000/svg" xmlns:xlink="http://www.w3.org/1999/xlink">
<g id="graph0" class="graph" transform="scale(1 1) rotate(0) translate(4 195)">
<title>G</title>
<polygon fill="#ffffff" stroke="transparent" points="-4,4 -4,-195 797.4055,-195 797.4055,4 -4,4"/>
<!-- STATE_D,0,1 -->
<g id="node1" class="node">
<title>STATE_D,0,1</title>
<polygon fill="none" stroke="#000000" points="347.6296,-118.0493 349.6946,-118.1479 351.7382,-118.2953 353.7521,-118.4913 355.7282,-118.7353 357.6584,-119.0266 359.5353,-119.3645 361.3515,-119.7479 363.1001,-120.1759 364.7746,-120.6472 366.3689,-121.1606 367.8776,-121.7147 369.2956,-122.308 370.6184,-122.9388 371.842,-123.6054 372.9632,-124.3059 373.9792,-125.0385 374.8877,-125.8012 375.6872,-126.5918 376.3766,-127.4082 376.9556,-128.2481 377.4242,-129.1093 377.7831,-129.9894 378.0333,-130.886 378.1767,-131.7965 378.2153,-132.7186 378.1516,-133.6497 377.9886,-134.5873 377.7294,-135.5287 377.3778,-136.4713 376.9376,-137.4127 376.4127,-138.3503 375.8076,-139.2814 375.1266,-140.2035 374.3742,-141.114 373.555,-142.0106 372.6735,-142.8907 371.7344,-143.7519 370.7421,-144.5918 369.701,-145.4082 368.6155,-146.1988 367.4896,-146.9615 366.3275,-147.6941 365.1328,-148.3946 363.9091,-149.0612 362.6598,-149.692 361.3881,-150.2853 360.0967,-150.8394 358.7884,-151.3528 357.4655,-151.8241 356.1303,-152.2521 354.7847,-152.6355 353.4304,-152.9734 352.069,-153.2647 350.702,-153.5087 349.3305,-153.7047 347.9557,-153.8521 346.5786,-153.9507 345.2001,-154 343.8212,-154 342.4428,-153.9507 341.0656,-153.8521 339.6908,-153.7047 338.3194,-153.5087 336.9523,-153.2647 335.5909,-152.9734 334.2367,-152.6355 332.891,-152.2521 331.5558,-151.8241 330.2329,-151.3528 328.9246,-150.8394 327.6333,-150.2853 326.3615,-149.692 325.1122,-149.0612 323.8886,-148.3946 322.6939,-147.6941 321.5317,-146.9615 320.4059,-146.1988 319.3203,-145.4082 318.2793,-144.5918 317.287,-143.7519 316.3478,-142.8907 315.4663,-142.0106 314.6471,-141.114 313.8947,-140.2035 313.2137,-139.2814 312.6086,-138.3503 312.0838,-137.4127 311.6435,-136.4713 311.2919,-135.5287 311.0328,-134.5873 310.8697,-133.6497 310.806,-132.7186 310.8446,-131.7965 310.988,-130.886 311.2383,-129.9894 311.5971,-129.1093 312.0657,-128.2481 312.6447,-127.4082 313.3341,-126.5918 314.1336,-125.8012 315.0422,-125.0385 316.0581,-124.3059 317.1793,-123.6054 318.403,-122.9388 319.7257,-122.308 321.1437,-121.7147 322.6524,-121.1606 324.2467,-120.6472 325.9212,-120.1759 327.6698,-119.7479 329.486,-119.3645 331.3629,-119.0266 333.2932,-118.7353 335.2692,-118.4913 337.2832,-118.2953 339.3268,-118.1479 341.3918,-118.0493 343.4696,-118 345.5517,-118 347.6296,-118.0493"/>
<text text-anchor="middle" x="344.5107" y="-133.5" font-family="Courier,monospace" font-weight="bold" font-size="10.00" fill="#000000">D,0,1</text>
</g>
<!-- STATE_I,1,1 -->
<g id="node4" class="node">
<title>STATE_I,1,1</title>
<polygon fill="none" stroke="#000000" points="519.4816,-155.0493 521.5465,-155.1479 523.5902,-155.2953 525.6041,-155.4913 527.5802,-155.7353 529.5104,-156.0266 531.3873,-156.3645 533.2035,-156.7479 534.9521,-157.1759 536.6266,-157.6472 538.2209,-158.1606 539.7296,-158.7147 541.1476,-159.308 542.4704,-159.9388 543.694,-160.6054 544.8152,-161.3059 545.8312,-162.0385 546.7397,-162.8012 547.5392,-163.5918 548.2286,-164.4082 548.8076,-165.2481 549.2762,-166.1093 549.6351,-166.9894 549.8853,-167.886 550.0287,-168.7965 550.0673,-169.7186 550.0036,-170.6497 549.8406,-171.5873 549.5814,-172.5287 549.2298,-173.4713 548.7896,-174.4127 548.2647,-175.3503 547.6596,-176.2814 546.9786,-177.2035 546.2262,-178.114 545.407,-179.0106 544.5255,-179.8907 543.5864,-180.7519 542.5941,-181.5918 541.553,-182.4082 540.4675,-183.1988 539.3416,-183.9615 538.1795,-184.6941 536.9848,-185.3946 535.7611,-186.0612 534.5118,-186.692 533.2401,-187.2853 531.9487,-187.8394 530.6404,-188.3528 529.3175,-188.8241 527.9823,-189.2521 526.6367,-189.6355 525.2824,-189.9734 523.921,-190.2647 522.554,-190.5087 521.1825,-190.7047 519.8077,-190.8521 518.4306,-190.9507 517.0521,-191 515.6732,-191 514.2948,-190.9507 512.9176,-190.8521 511.5428,-190.7047 510.1714,-190.5087 508.8043,-190.2647 507.4429,-189.9734 506.0887,-189.6355 504.743,-189.2521 503.4078,-188.8241 502.0849,-188.3528 500.7766,-187.8394 499.4852,-187.2853 498.2135,-186.692 496.9642,-186.0612 495.7405,-185.3946 494.5459,-184.6941 493.3837,-183.9615 492.2579,-183.1988 491.1723,-182.4082 490.1313,-181.5918 489.139,-180.7519 488.1998,-179.8907 487.3183,-179.0106 486.4991,-178.114 485.7467,-177.2035 485.0657,-176.2814 484.4606,-175.3503 483.9358,-174.4127 483.4955,-173.4713 483.1439,-172.5287 482.8848,-171.5873 482.7217,-170.6497 482.658,-169.7186 482.6966,-168.7965 482.84,-167.886 483.0903,-166.9894 483.4491,-166.1093 483.9177,-165.2481 484.4967,-164.4082 485.1861,-163.5918 485.9856,-162.8012 486.8942,-162.0385 487.9101,-161.3059 489.0313,-160.6054 490.255,-159.9388 491.5777,-159.308 492.9957,-158.7147 494.5044,-158.1606 496.0987,-157.6472 497.7732,-157.1759 499.5218,-156.7479 501.338,-156.3645 503.2149,-156.0266 505.1452,-155.7353 507.1212,-155.4913 509.1352,-155.2953 511.1788,-155.1479 513.2438,-155.0493 515.3216,-155 517.4037,-155 519.4816,-155.0493"/>
<text text-anchor="middle" x="516.3627" y="-170.5" font-family="Courier,monospace" font-weight="bold" font-size="10.00" fill="#000000">I,1,1</text>
</g>
<!-- STATE_D,0,1&#45;&gt;STATE_I,1,1 -->
<g id="edge1" class="edge">
<title>STATE_D,0,1&#45;&gt;STATE_I,1,1</title>
<path fill="none" stroke="#000000" d="M373.663,-142.2765C401.0225,-148.1671 442.2818,-157.0503 473.4091,-163.752"/>
<polygon fill="#000000" stroke="#000000" points="473.0295,-167.2504 483.5422,-165.9337 474.5029,-160.4073 473.0295,-167.2504"/>
<text text-anchor="middle" x="453.0107" y="-164" font-family="Courier,monospace" font-weight="bold" font-size="10.00" fill="#000000">1.0</text>
</g>
<!-- STATE_D,1,1 -->
<g id="node2" class="node">
<title>STATE_D,1,1</title>
<polygon fill="none" stroke="#000000" points="519.4816,-101.0493 521.5465,-101.1479 523.5902,-101.2953 525.6041,-101.4913 527.5802,-101.7353 529.5104,-102.0266 531.3873,-102.3645 533.2035,-102.7479 534.9521,-103.1759 536.6266,-103.6472 538.2209,-104.1606 539.7296,-104.7147 541.1476,-105.308 542.4704,-105.9388 543.694,-106.6054 544.8152,-107.3059 545.8312,-108.0385 546.7397,-108.8012 547.5392,-109.5918 548.2286,-110.4082 548.8076,-111.2481 549.2762,-112.1093 549.6351,-112.9894 549.8853,-113.886 550.0287,-114.7965 550.0673,-115.7186 550.0036,-116.6497 549.8406,-117.5873 549.5814,-118.5287 549.2298,-119.4713 548.7896,-120.4127 548.2647,-121.3503 547.6596,-122.2814 546.9786,-123.2035 546.2262,-124.114 545.407,-125.0106 544.5255,-125.8907 543.5864,-126.7519 542.5941,-127.5918 541.553,-128.4082 540.4675,-129.1988 539.3416,-129.9615 538.1795,-130.6941 536.9848,-131.3946 535.7611,-132.0612 534.5118,-132.692 533.2401,-133.2853 531.9487,-133.8394 530.6404,-134.3528 529.3175,-134.8241 527.9823,-135.2521 526.6367,-135.6355 525.2824,-135.9734 523.921,-136.2647 522.554,-136.5087 521.1825,-136.7047 519.8077,-136.8521 518.4306,-136.9507 517.0521,-137 515.6732,-137 514.2948,-136.9507 512.9176,-136.8521 511.5428,-136.7047 510.1714,-136.5087 508.8043,-136.2647 507.4429,-135.9734 506.0887,-135.6355 504.743,-135.2521 503.4078,-134.8241 502.0849,-134.3528 500.7766,-133.8394 499.4852,-133.2853 498.2135,-132.692 496.9642,-132.0612 495.7405,-131.3946 494.5459,-130.6941 493.3837,-129.9615 492.2579,-129.1988 491.1723,-128.4082 490.1313,-127.5918 489.139,-126.7519 488.1998,-125.8907 487.3183,-125.0106 486.4991,-124.114 485.7467,-123.2035 485.0657,-122.2814 484.4606,-121.3503 483.9358,-120.4127 483.4955,-119.4713 483.1439,-118.5287 482.8848,-117.5873 482.7217,-116.6497 482.658,-115.7186 482.6966,-114.7965 482.84,-113.886 483.0903,-112.9894 483.4491,-112.1093 483.9177,-111.2481 484.4967,-110.4082 485.1861,-109.5918 485.9856,-108.8012 486.8942,-108.0385 487.9101,-107.3059 489.0313,-106.6054 490.255,-105.9388 491.5777,-105.308 492.9957,-104.7147 494.5044,-104.1606 496.0987,-103.6472 497.7732,-103.1759 499.5218,-102.7479 501.338,-102.3645 503.2149,-102.0266 505.1452,-101.7353 507.1212,-101.4913 509.1352,-101.2953 511.1788,-101.1479 513.2438,-101.0493 515.3216,-101 517.4037,-101 519.4816,-101.0493"/>
<text text-anchor="middle" x="516.3627" y="-116.5" font-family="Courier,monospace" font-weight="bold" font-size="10.00" fill="#000000">D,1,1</text>
</g>
<!-- STATE_T,1,1 -->
<g id="node7" class="node">
<title>STATE_T,1,1</title>
<polygon fill="none" stroke="#000000" points="646.1856,-121.0493 648.2505,-121.1479 650.2942,-121.2953 652.3081,-121.4913 654.2842,-121.7353 656.2144,-122.0266 658.0913,-122.3645 659.9075,-122.7479 661.6561,-123.1759 663.3306,-123.6472 664.9249,-124.1606 666.4336,-124.7147 667.8516,-125.308 669.1744,-125.9388 670.398,-126.6054 671.5192,-127.3059 672.5352,-128.0385 673.4437,-128.8012 674.2432,-129.5918 674.9326,-130.4082 675.5116,-131.2481 675.9802,-132.1093 676.3391,-132.9894 676.5893,-133.886 676.7327,-134.7965 676.7713,-135.7186 676.7076,-136.6497 676.5446,-137.5873 676.2854,-138.5287 675.9338,-139.4713 675.4936,-140.4127 674.9687,-141.3503 674.3636,-142.2814 673.6826,-143.2035 672.9302,-144.114 672.111,-145.0106 671.2295,-145.8907 670.2904,-146.7519 669.2981,-147.5918 668.257,-148.4082 667.1715,-149.1988 666.0456,-149.9615 664.8835,-150.6941 663.6888,-151.3946 662.4651,-152.0612 661.2158,-152.692 659.9441,-153.2853 658.6527,-153.8394 657.3444,-154.3528 656.0215,-154.8241 654.6863,-155.2521 653.3407,-155.6355 651.9864,-155.9734 650.625,-156.2647 649.258,-156.5087 647.8865,-156.7047 646.5117,-156.8521 645.1346,-156.9507 643.7561,-157 642.3772,-157 640.9988,-156.9507 639.6216,-156.8521 638.2468,-156.7047 636.8753,-156.5087 635.5083,-156.2647 634.1469,-155.9734 632.7927,-155.6355 631.447,-155.2521 630.1118,-154.8241 628.7889,-154.3528 627.4806,-153.8394 626.1892,-153.2853 624.9175,-152.692 623.6682,-152.0612 622.4445,-151.3946 621.2499,-150.6941 620.0877,-149.9615 618.9619,-149.1988 617.8763,-148.4082 616.8353,-147.5918 615.843,-146.7519 614.9038,-145.8907 614.0223,-145.0106 613.2031,-144.114 612.4507,-143.2035 611.7697,-142.2814 611.1646,-141.3503 610.6398,-140.4127 610.1995,-139.4713 609.8479,-138.5287 609.5888,-137.5873 609.4257,-136.6497 609.362,-135.7186 609.4006,-134.7965 609.544,-133.886 609.7943,-132.9894 610.1531,-132.1093 610.6217,-131.2481 611.2007,-130.4082 611.8901,-129.5918 612.6896,-128.8012 613.5982,-128.0385 614.6141,-127.3059 615.7353,-126.6054 616.959,-125.9388 618.2817,-125.308 619.6997,-124.7147 621.2084,-124.1606 622.8027,-123.6472 624.4772,-123.1759 626.2258,-122.7479 628.042,-122.3645 629.9189,-122.0266 631.8492,-121.7353 633.8252,-121.4913 635.8392,-121.2953 637.8828,-121.1479 639.9478,-121.0493 642.0256,-121 644.1077,-121 646.1856,-121.0493"/>
<text text-anchor="middle" x="643.0667" y="-136.5" font-family="Courier,monospace" font-weight="bold" font-size="10.00" fill="#000000">T,1,1</text>
</g>
<!-- STATE_D,1,1&#45;&gt;STATE_T,1,1 -->
<g id="edge2" class="edge">
<title>STATE_D,1,1&#45;&gt;STATE_T,1,1</title>
<path fill="none" stroke="#000000" d="M546.7114,-123.7905C562.5011,-126.2829 582.0855,-129.3742 599.4661,-132.1177"/>
<polygon fill="#000000" stroke="#000000" points="598.9761,-135.5836 609.3995,-133.6857 600.0676,-128.6692 598.9761,-135.5836"/>
<text text-anchor="middle" x="579.7147" y="-133" font-family="Courier,monospace" font-weight="bold" font-size="10.00" fill="#000000">1.0</text>
</g>
<!-- STATE_I,1,0 -->
<g id="node3" class="node">
<title>STATE_I,1,0</title>
<polygon fill="none" stroke="#000000" points="347.6296,-60.0493 349.6946,-60.1479 351.7382,-60.2953 353.7521,-60.4913 355.7282,-60.7353 357.6584,-61.0266 359.5353,-61.3645 361.3515,-61.7479 363.1001,-62.1759 364.7746,-62.6472 366.3689,-63.1606 367.8776,-63.7147 369.2956,-64.308 370.6184,-64.9388 371.842,-65.6054 372.9632,-66.3059 373.9792,-67.0385 374.8877,-67.8012 375.6872,-68.5918 376.3766,-69.4082 376.9556,-70.2481 377.4242,-71.1093 377.7831,-71.9894 378.0333,-72.886 378.1767,-73.7965 378.2153,-74.7186 378.1516,-75.6497 377.9886,-76.5873 377.7294,-77.5287 377.3778,-78.4713 376.9376,-79.4127 376.4127,-80.3503 375.8076,-81.2814 375.1266,-82.2035 374.3742,-83.114 373.555,-84.0106 372.6735,-84.8907 371.7344,-85.7519 370.7421,-86.5918 369.701,-87.4082 368.6155,-88.1988 367.4896,-88.9615 366.3275,-89.6941 365.1328,-90.3946 363.9091,-91.0612 362.6598,-91.692 361.3881,-92.2853 360.0967,-92.8394 358.7884,-93.3528 357.4655,-93.8241 356.1303,-94.2521 354.7847,-94.6355 353.4304,-94.9734 352.069,-95.2647 350.702,-95.5087 349.3305,-95.7047 347.9557,-95.8521 346.5786,-95.9507 345.2001,-96 343.8212,-96 342.4428,-95.9507 341.0656,-95.8521 339.6908,-95.7047 338.3194,-95.5087 336.9523,-95.2647 335.5909,-94.9734 334.2367,-94.6355 332.891,-94.2521 331.5558,-93.8241 330.2329,-93.3528 328.9246,-92.8394 327.6333,-92.2853 326.3615,-91.692 325.1122,-91.0612 323.8886,-90.3946 322.6939,-89.6941 321.5317,-88.9615 320.4059,-88.1988 319.3203,-87.4082 318.2793,-86.5918 317.287,-85.7519 316.3478,-84.8907 315.4663,-84.0106 314.6471,-83.114 313.8947,-82.2035 313.2137,-81.2814 312.6086,-80.3503 312.0838,-79.4127 311.6435,-78.4713 311.2919,-77.5287 311.0328,-76.5873 310.8697,-75.6497 310.806,-74.7186 310.8446,-73.7965 310.988,-72.886 311.2383,-71.9894 311.5971,-71.1093 312.0657,-70.2481 312.6447,-69.4082 313.3341,-68.5918 314.1336,-67.8012 315.0422,-67.0385 316.0581,-66.3059 317.1793,-65.6054 318.403,-64.9388 319.7257,-64.308 321.1437,-63.7147 322.6524,-63.1606 324.2467,-62.6472 325.9212,-62.1759 327.6698,-61.7479 329.486,-61.3645 331.3629,-61.0266 333.2932,-60.7353 335.2692,-60.4913 337.2832,-60.2953 339.3268,-60.1479 341.3918,-60.0493 343.4696,-60 345.5517,-60 347.6296,-60.0493"/>
<text text-anchor="middle" x="344.5107" y="-75.5" font-family="Courier,monospace" font-weight="bold" font-size="10.00" fill="#000000">I,1,0</text>
</g>
<!-- STATE_I,1,0&#45;&gt;STATE_D,1,1 -->
<g id="edge3" class="edge">
<title>STATE_I,1,0&#45;&gt;STATE_D,1,1</title>
<path fill="none" stroke="#000000" d="M372.8885,-84.7703C400.4161,-91.3378 442.5274,-101.3846 474.0176,-108.8974"/>
<polygon fill="#000000" stroke="#000000" points="473.2973,-112.3237 483.8366,-111.24 474.9218,-105.5148 473.2973,-112.3237"/>
<text text-anchor="middle" x="453.0107" y="-108" font-family="Courier,monospace" font-weight="bold" font-size="10.00" fill="#000000">1.0</text>
</g>
<!-- SYMBOL_n -->
<g id="node8" class="node">
<title>SYMBOL_n</title>
<polygon fill="none" stroke="#000000" stroke-dasharray="5,2" points="645.7492,-54.0493 647.5253,-54.1479 649.283,-54.2953 651.0151,-54.4913 652.7147,-54.7353 654.3749,-55.0266 655.9892,-55.3645 657.5513,-55.7479 659.0552,-56.1759 660.4954,-56.6472 661.8667,-57.1606 663.1643,-57.7147 664.3839,-58.308 665.5216,-58.9388 666.5741,-59.6054 667.5384,-60.3059 668.4122,-61.0385 669.1936,-61.8012 669.8812,-62.5918 670.4742,-63.4082 670.9722,-64.2481 671.3752,-65.1093 671.6839,-65.9894 671.8991,-66.886 672.0224,-67.7965 672.0556,-68.7186 672.0008,-69.6497 671.8606,-70.5873 671.6377,-71.5287 671.3353,-72.4713 670.9567,-73.4127 670.5053,-74.3503 669.9848,-75.2814 669.3991,-76.2035 668.7519,-77.114 668.0473,-78.0106 667.2892,-78.8907 666.4815,-79.7519 665.628,-80.5918 664.7326,-81.4082 663.7989,-82.1988 662.8306,-82.9615 661.831,-83.6941 660.8035,-84.3946 659.751,-85.0612 658.6766,-85.692 657.5827,-86.2853 656.472,-86.8394 655.3468,-87.3528 654.209,-87.8241 653.0606,-88.2521 651.9032,-88.6355 650.7384,-88.9734 649.5675,-89.2647 648.3917,-89.5087 647.2121,-89.7047 646.0297,-89.8521 644.8453,-89.9507 643.6597,-90 642.4737,-90 641.2881,-89.9507 640.1036,-89.8521 638.9212,-89.7047 637.7416,-89.5087 636.5658,-89.2647 635.3949,-88.9734 634.2301,-88.6355 633.0728,-88.2521 631.9243,-87.8241 630.7866,-87.3528 629.6613,-86.8394 628.5506,-86.2853 627.4568,-85.692 626.3823,-85.0612 625.3298,-84.3946 624.3023,-83.6941 623.3027,-82.9615 622.3344,-82.1988 621.4008,-81.4082 620.5054,-80.5918 619.6519,-79.7519 618.8441,-78.8907 618.086,-78.0106 617.3814,-77.114 616.7342,-76.2035 616.1485,-75.2814 615.6281,-74.3503 615.1767,-73.4127 614.798,-72.4713 614.4956,-71.5287 614.2727,-70.5873 614.1325,-69.6497 614.0777,-68.7186 614.1109,-67.7965 614.2342,-66.886 614.4495,-65.9894 614.7581,-65.1093 615.1612,-64.2481 615.6591,-63.4082 616.2521,-62.5918 616.9397,-61.8012 617.7212,-61.0385 618.595,-60.3059 619.5593,-59.6054 620.6117,-58.9388 621.7494,-58.308 622.969,-57.7147 624.2666,-57.1606 625.6379,-56.6472 627.0781,-56.1759 628.582,-55.7479 630.1441,-55.3645 631.7584,-55.0266 633.4186,-54.7353 635.1182,-54.4913 636.8504,-54.2953 638.6081,-54.1479 640.3841,-54.0493 642.1713,-54 643.9621,-54 645.7492,-54.0493"/>
<text text-anchor="middle" x="643.0667" y="-69.5" font-family="Courier,monospace" font-weight="bold" font-size="10.00" fill="#000000">n</text>
</g>
<!-- STATE_I,1,0&#45;&gt;SYMBOL_n -->
<g id="edge9" class="edge">
<title>STATE_I,1,0&#45;&gt;SYMBOL_n</title>
<path fill="none" stroke="#000000" stroke-dasharray="5,2" d="M377.8898,-77.3292C433.7283,-76.207 545.747,-73.9558 604.729,-72.7705"/>
<polygon fill="#000000" stroke="#000000" points="604.8283,-76.2693 614.7559,-72.569 604.6876,-69.2707 604.8283,-76.2693"/>
<text text-anchor="middle" x="516.3627" y="-79" font-family="Courier,monospace" font-weight="bold" font-size="10.00" fill="#000000">1.0</text>
</g>
<!-- STATE_I,1,1&#45;&gt;STATE_T,1,1 -->
<g id="edge4" class="edge">
<title>STATE_I,1,1&#45;&gt;STATE_T,1,1</title>
<path fill="none" stroke="#000000" d="M548.3354,-164.4204C565.7788,-159.7396 587.4683,-153.9194 605.6902,-149.0297"/>
<polygon fill="#000000" stroke="#000000" points="606.6565,-152.3943 615.4077,-146.4221 604.8423,-145.6334 606.6565,-152.3943"/>
<text text-anchor="middle" x="579.7147" y="-162" font-family="Courier,monospace" font-weight="bold" font-size="10.00" fill="#000000">1.0</text>
</g>
<!-- STATE_I,1,1&#45;&gt;SYMBOL_n -->
<g id="edge10" class="edge">
<title>STATE_I,1,1&#45;&gt;SYMBOL_n</title>
<path fill="none" stroke="#000000" stroke-dasharray="5,2" d="M537.9806,-157.9575C542.3377,-154.3453 546.6642,-150.2826 550.2147,-146 561.1274,-132.8373 556.1479,-124.1136 568.2147,-112 580.0429,-100.1258 596.1381,-90.9064 610.373,-84.3271"/>
<polygon fill="#000000" stroke="#000000" points="612.087,-87.3981 619.8554,-80.1937 609.2899,-80.9812 612.087,-87.3981"/>
<text text-anchor="middle" x="579.7147" y="-115" font-family="Courier,monospace" font-weight="bold" font-size="10.00" fill="#000000">1.0</text>
</g>
<!-- STATE_M,1,1 -->
<g id="node5" class="node">
<title>STATE_M,1,1</title>
<polygon fill="none" stroke="#000000" points="519.4816,-.0493 521.5465,-.1479 523.5902,-.2953 525.6041,-.4913 527.5802,-.7353 529.5104,-1.0266 531.3873,-1.3645 533.2035,-1.7479 534.9521,-2.1759 536.6266,-2.6472 538.2209,-3.1606 539.7296,-3.7147 541.1476,-4.308 542.4704,-4.9388 543.694,-5.6054 544.8152,-6.3059 545.8312,-7.0385 546.7397,-7.8012 547.5392,-8.5918 548.2286,-9.4082 548.8076,-10.2481 549.2762,-11.1093 549.6351,-11.9894 549.8853,-12.886 550.0287,-13.7965 550.0673,-14.7186 550.0036,-15.6497 549.8406,-16.5873 549.5814,-17.5287 549.2298,-18.4713 548.7896,-19.4127 548.2647,-20.3503 547.6596,-21.2814 546.9786,-22.2035 546.2262,-23.114 545.407,-24.0106 544.5255,-24.8907 543.5864,-25.7519 542.5941,-26.5918 541.553,-27.4082 540.4675,-28.1988 539.3416,-28.9615 538.1795,-29.6941 536.9848,-30.3946 535.7611,-31.0612 534.5118,-31.692 533.2401,-32.2853 531.9487,-32.8394 530.6404,-33.3528 529.3175,-33.8241 527.9823,-34.2521 526.6367,-34.6355 525.2824,-34.9734 523.921,-35.2647 522.554,-35.5087 521.1825,-35.7047 519.8077,-35.8521 518.4306,-35.9507 517.0521,-36 515.6732,-36 514.2948,-35.9507 512.9176,-35.8521 511.5428,-35.7047 510.1714,-35.5087 508.8043,-35.2647 507.4429,-34.9734 506.0887,-34.6355 504.743,-34.2521 503.4078,-33.8241 502.0849,-33.3528 500.7766,-32.8394 499.4852,-32.2853 498.2135,-31.692 496.9642,-31.0612 495.7405,-30.3946 494.5459,-29.6941 493.3837,-28.9615 492.2579,-28.1988 491.1723,-27.4082 490.1313,-26.5918 489.139,-25.7519 488.1998,-24.8907 487.3183,-24.0106 486.4991,-23.114 485.7467,-22.2035 485.0657,-21.2814 484.4606,-20.3503 483.9358,-19.4127 483.4955,-18.4713 483.1439,-17.5287 482.8848,-16.5873 482.7217,-15.6497 482.658,-14.7186 482.6966,-13.7965 482.84,-12.886 483.0903,-11.9894 483.4491,-11.1093 483.9177,-10.2481 484.4967,-9.4082 485.1861,-8.5918 485.9856,-7.8012 486.8942,-7.0385 487.9101,-6.3059 489.0313,-5.6054 490.255,-4.9388 491.5777,-4.308 492.9957,-3.7147 494.5044,-3.1606 496.0987,-2.6472 497.7732,-2.1759 499.5218,-1.7479 501.338,-1.3645 503.2149,-1.0266 505.1452,-.7353 507.1212,-.4913 509.1352,-.2953 511.1788,-.1479 513.2438,-.0493 515.3216,0 517.4037,0 519.4816,-.0493"/>
<text text-anchor="middle" x="516.3627" y="-15.5" font-family="Courier,monospace" font-weight="bold" font-size="10.00" fill="#000000">M,1,1</text>
</g>
<!-- STATE_M,1,1&#45;&gt;STATE_T,1,1 -->
<g id="edge5" class="edge">
<title>STATE_M,1,1&#45;&gt;STATE_T,1,1</title>
<path fill="none" stroke="#000000" d="M534.2132,-31.8416C549.7737,-44.1802 572.6883,-63.0187 591.2147,-81 601.9503,-91.4198 613.103,-103.6809 622.3021,-114.2393"/>
<polygon fill="#000000" stroke="#000000" points="619.7398,-116.6277 628.9166,-121.9228 625.0448,-112.0607 619.7398,-116.6277"/>
<text text-anchor="middle" x="579.7147" y="-84" font-family="Courier,monospace" font-weight="bold" font-size="10.00" fill="#000000">1.0</text>
</g>
<!-- STATE_M,1,1&#45;&gt;SYMBOL_n -->
<g id="edge11" class="edge">
<title>STATE_M,1,1&#45;&gt;SYMBOL_n</title>
<path fill="none" stroke="#000000" stroke-dasharray="5,2" d="M548.5241,-9.2692C562.2216,-7.1891 578.0434,-7.0406 591.2147,-13 606.4575,-19.8967 618.9994,-33.734 627.9283,-46.2753"/>
<polygon fill="#000000" stroke="#000000" points="625.0567,-48.2777 633.5214,-54.6495 630.8778,-44.3898 625.0567,-48.2777"/>
<text text-anchor="middle" x="579.7147" y="-16" font-family="Courier,monospace" font-weight="bold" font-size="10.00" fill="#000000">1.0</text>
</g>
<!-- STATE_S,&#45;1,&#45;1 -->
<g id="node6" class="node">
<title>STATE_S,&#45;1,&#45;1</title>
<polygon fill="none" stroke="#000000" points="47.2355,-60.0493 49.8707,-60.1479 52.4787,-60.2953 55.0487,-60.4913 57.5705,-60.7353 60.0338,-61.0266 62.429,-61.3645 64.7467,-61.7479 66.9782,-62.1759 69.1151,-62.6472 71.1497,-63.1606 73.075,-63.7147 74.8845,-64.308 76.5726,-64.9388 78.1341,-65.6054 79.5649,-66.3059 80.8614,-67.0385 82.0208,-67.8012 83.0411,-68.5918 83.921,-69.4082 84.6598,-70.2481 85.2578,-71.1093 85.7158,-71.9894 86.0352,-72.886 86.2181,-73.7965 86.2674,-74.7186 86.1861,-75.6497 85.978,-76.5873 85.6473,-77.5287 85.1986,-78.4713 84.6368,-79.4127 83.967,-80.3503 83.1948,-81.2814 82.3257,-82.2035 81.3656,-83.114 80.3201,-84.0106 79.1952,-84.8907 77.9968,-85.7519 76.7304,-86.5918 75.4019,-87.4082 74.0166,-88.1988 72.5799,-88.9615 71.0968,-89.6941 69.5722,-90.3946 68.0106,-91.0612 66.4163,-91.692 64.7934,-92.2853 63.1454,-92.8394 61.4758,-93.3528 59.7876,-93.8241 58.0837,-94.2521 56.3665,-94.6355 54.6382,-94.9734 52.9009,-95.2647 51.1564,-95.5087 49.4061,-95.7047 47.6517,-95.8521 45.8943,-95.9507 44.1352,-96 42.3755,-96 40.6164,-95.9507 38.859,-95.8521 37.1045,-95.7047 35.3543,-95.5087 33.6098,-95.2647 31.8725,-94.9734 30.1442,-94.6355 28.427,-94.2521 26.723,-93.8241 25.0349,-93.3528 23.3653,-92.8394 21.7173,-92.2853 20.0943,-91.692 18.5001,-91.0612 16.9385,-90.3946 15.4139,-89.6941 13.9308,-88.9615 12.4941,-88.1988 11.1088,-87.4082 9.7802,-86.5918 8.5139,-85.7519 7.3154,-84.8907 6.1905,-84.0106 5.1451,-83.114 4.1849,-82.2035 3.3158,-81.2814 2.5436,-80.3503 1.8739,-79.4127 1.312,-78.4713 .8633,-77.5287 .5326,-76.5873 .3246,-75.6497 .2433,-74.7186 .2925,-73.7965 .4755,-72.886 .7949,-71.9894 1.2529,-71.1093 1.8509,-70.2481 2.5897,-69.4082 3.4695,-68.5918 4.4898,-67.8012 5.6492,-67.0385 6.9457,-66.3059 8.3765,-65.6054 9.9381,-64.9388 11.6262,-64.308 13.4357,-63.7147 15.361,-63.1606 17.3956,-62.6472 19.5325,-62.1759 21.7639,-61.7479 24.0817,-61.3645 26.4768,-61.0266 28.9402,-60.7353 31.4619,-60.4913 34.032,-60.2953 36.6399,-60.1479 39.2751,-60.0493 41.9268,-60 44.5839,-60 47.2355,-60.0493"/>
<text text-anchor="middle" x="43.2553" y="-75.5" font-family="Courier,monospace" font-weight="bold" font-size="10.00" fill="#000000">S,&#45;1,&#45;1</text>
</g>
<!-- STATE_S,&#45;1,&#45;1&#45;&gt;STATE_D,0,1 -->
<g id="edge6" class="edge">
<title>STATE_S,&#45;1,&#45;1&#45;&gt;STATE_D,0,1</title>
<path fill="none" stroke="#000000" d="M76.8686,-86.6341C85.8253,-88.8243 95.5133,-91.0943 104.5107,-93 172.7983,-107.4635 252.6927,-121.1354 300.9071,-129.0344"/>
<polygon fill="#000000" stroke="#000000" points="300.5588,-132.5237 310.9916,-130.6779 301.6848,-125.6149 300.5588,-132.5237"/>
<text text-anchor="middle" x="176.0107" y="-122" font-family="Courier,monospace" font-weight="bold" font-size="10.00" fill="#000000">0.39998000599820055</text>
</g>
<!-- STATE_S,&#45;1,&#45;1&#45;&gt;STATE_I,1,0 -->
<g id="edge7" class="edge">
<title>STATE_S,&#45;1,&#45;1&#45;&gt;STATE_I,1,0</title>
<path fill="none" stroke="#000000" d="M85.4608,-78C142.4751,-78 243.577,-78 301.1698,-78"/>
<polygon fill="#000000" stroke="#000000" points="301.3969,-81.5001 311.3969,-78 301.3969,-74.5001 301.3969,-81.5001"/>
<text text-anchor="middle" x="176.0107" y="-81" font-family="Courier,monospace" font-weight="bold" font-size="10.00" fill="#000000">0.5999200239928022</text>
</g>
<!-- STATE_S,&#45;1,&#45;1&#45;&gt;STATE_M,1,1 -->
<g id="edge8" class="edge">
<title>STATE_S,&#45;1,&#45;1&#45;&gt;STATE_M,1,1</title>
<path fill="none" stroke="#000000" d="M84.4754,-69.9118C128.9805,-61.4231 202.034,-48.196 265.5107,-40 338.5747,-30.5661 424.1436,-24.0194 474.0957,-20.6466"/>
<polygon fill="#000000" stroke="#000000" points="474.4512,-24.1308 484.1971,-19.9752 473.9869,-17.1462 474.4512,-24.1308"/>
<text text-anchor="middle" x="344.5107" y="-43" font-family="Courier,monospace" font-weight="bold" font-size="10.00" fill="#000000">9.997000899730082e&#45;05</text>
</g>
<!-- SYMBOL_? -->
<g id="node9" class="node">
<title>SYMBOL_?</title>
<polygon fill="none" stroke="#000000" stroke-dasharray="5,2" points="767.3446,-121.0493 769.1207,-121.1479 770.8784,-121.2953 772.6106,-121.4913 774.3101,-121.7353 775.9704,-122.0266 777.5846,-122.3645 779.1467,-122.7479 780.6507,-123.1759 782.0909,-123.6472 783.4621,-124.1606 784.7597,-124.7147 785.9793,-125.308 787.117,-125.9388 788.1695,-126.6054 789.1338,-127.3059 790.0076,-128.0385 790.789,-128.8012 791.4767,-129.5918 792.0697,-130.4082 792.5676,-131.2481 792.9706,-132.1093 793.2793,-132.9894 793.4946,-133.886 793.6179,-134.7965 793.6511,-135.7186 793.5963,-136.6497 793.4561,-137.5873 793.2332,-138.5287 792.9308,-139.4713 792.5521,-140.4127 792.1007,-141.3503 791.5803,-142.2814 790.9945,-143.2035 790.3474,-144.114 789.6428,-145.0106 788.8846,-145.8907 788.0769,-146.7519 787.2234,-147.5918 786.328,-148.4082 785.3944,-149.1988 784.426,-149.9615 783.4265,-150.6941 782.3989,-151.3946 781.3465,-152.0612 780.272,-152.692 779.1782,-153.2853 778.0675,-153.8394 776.9422,-154.3528 775.8044,-154.8241 774.656,-155.2521 773.4987,-155.6355 772.3339,-155.9734 771.163,-156.2647 769.9872,-156.5087 768.8076,-156.7047 767.6251,-156.8521 766.4407,-156.9507 765.2551,-157 764.0691,-157 762.8835,-156.9507 761.6991,-156.8521 760.5166,-156.7047 759.337,-156.5087 758.1613,-156.2647 756.9904,-155.9734 755.8256,-155.6355 754.6682,-155.2521 753.5198,-154.8241 752.382,-154.3528 751.2567,-153.8394 750.146,-153.2853 749.0522,-152.692 747.9777,-152.0612 746.9253,-151.3946 745.8977,-150.6941 744.8982,-149.9615 743.9299,-149.1988 742.9962,-148.4082 742.1008,-147.5918 741.2473,-146.7519 740.4396,-145.8907 739.6814,-145.0106 738.9768,-144.114 738.3297,-143.2035 737.744,-142.2814 737.2235,-141.3503 736.7721,-140.4127 736.3934,-139.4713 736.091,-138.5287 735.8682,-137.5873 735.7279,-136.6497 735.6731,-135.7186 735.7063,-134.7965 735.8296,-133.886 736.0449,-132.9894 736.3536,-132.1093 736.7566,-131.2481 737.2546,-130.4082 737.8476,-129.5918 738.5352,-128.8012 739.3166,-128.0385 740.1904,-127.3059 741.1547,-126.6054 742.2072,-125.9388 743.3449,-125.308 744.5645,-124.7147 745.8621,-124.1606 747.2333,-123.6472 748.6736,-123.1759 750.1775,-122.7479 751.7396,-122.3645 753.3539,-122.0266 755.0141,-121.7353 756.7137,-121.4913 758.4458,-121.2953 760.2035,-121.1479 761.9796,-121.0493 763.7667,-121 765.5575,-121 767.3446,-121.0493"/>
<text text-anchor="middle" x="764.6621" y="-136.5" font-family="Courier,monospace" font-weight="bold" font-size="10.00" fill="#000000">?</text>
</g>
<!-- STATE_T,1,1&#45;&gt;SYMBOL_? -->
<g id="edge12" class="edge">
<title>STATE_T,1,1&#45;&gt;SYMBOL_?</title>
<path fill="none" stroke="#000000" stroke-dasharray="5,2" d="M676.2932,-139C691.6365,-139 709.9521,-139 725.9197,-139"/>
<polygon fill="#000000" stroke="#000000" points="726.0189,-142.5001 736.0189,-139 726.0189,-135.5001 726.0189,-142.5001"/>
<text text-anchor="middle" x="706.4187" y="-142" font-family="Courier,monospace" font-weight="bold" font-size="10.00" fill="#000000">1.0</text>
</g>
</g>
</svg>
