<?xml version="1.0" encoding="UTF-8" standalone="no"?>
<!DOCTYPE svg PUBLIC "-//W3C//DTD SVG 1.1//EN"
 "http://www.w3.org/Graphics/SVG/1.1/DTD/svg11.dtd">
<!-- Generated by graphviz version 2.40.1 (0)
 -->
<!-- Title: G Pages: 1 -->
<svg width="694pt" height="334pt"
 viewBox="0.00 0.00 694.00 334.00" xmlns="http://www.w3.org/2000/svg" xmlns:xlink="http://www.w3.org/1999/xlink">
<g id="graph0" class="graph" transform="scale(1 1) rotate(0) translate(4 330)">
<title>G</title>
<polygon fill="#ffffff" stroke="transparent" points="-4,4 -4,-330 690,-330 690,4 -4,4"/>
<text text-anchor="middle" x="343" y="-310.8" font-family="Times,serif" font-size="14.00" fill="#000000">BEFORE to AFTER...</text>
<!-- _C1_t_ -->
<g id="node1" class="node">
<title>_C1_t_</title>
<text text-anchor="middle" x="307" y="-147.8" font-family="Times,serif" font-size="14.00" fill="#000000">_C_t_</text>
</g>
<!-- _C1_h_ -->
<g id="node2" class="node">
<title>_C1_h_</title>
<text text-anchor="middle" x="264.8234" y="-45.9766" font-family="Times,serif" font-size="14.00" fill="#000000">_C_h_</text>
</g>
<!-- _C1_t_&#45;&#45;_C1_h_ -->
<g id="edge1" class="edge">
<title>_C1_t_&#45;&#45;_C1_h_</title>
<path fill="none" stroke="#000000" stroke-dasharray="5,2" d="M299.9964,-134.5918C290.7391,-112.2428 274.8111,-73.7892 268.0303,-57.4187"/>
<polygon fill="#000000" stroke="#000000" points="296.7694,-135.9473 303.8299,-143.8467 303.2366,-133.2685 296.7694,-135.9473"/>
</g>
<!-- _D1_h_ -->
<g id="node8" class="node">
<title>_D1_h_</title>
<text text-anchor="middle" x="264.8234" y="-249.6234" font-family="Times,serif" font-size="14.00" fill="#000000">_D_h_</text>
</g>
<!-- _C1_t_&#45;&#45;_D1_h_ -->
<g id="edge5" class="edge">
<title>_C1_t_&#45;&#45;_D1_h_</title>
<path fill="none" stroke="#0000ff" d="M303.8299,-159.1533C296.0136,-178.0235 275.885,-226.6182 268.0303,-245.5813"/>
</g>
<!-- _B1_t_ -->
<g id="node3" class="node">
<title>_B1_t_</title>
<text text-anchor="middle" x="163" y="-3.8" font-family="Times,serif" font-size="14.00" fill="#000000">_B_t_</text>
</g>
<!-- _B1_t_&#45;&#45;_C1_h_ -->
<g id="edge7" class="edge">
<title>_B1_t_&#45;&#45;_C1_h_</title>
<path fill="none" stroke="#0000ff" d="M181.204,-15.0403C199.6234,-22.6699 227.948,-34.4024 246.4337,-42.0594"/>
</g>
<!-- _B1_h_ -->
<g id="node4" class="node">
<title>_B1_h_</title>
<text text-anchor="middle" x="61.1766" y="-45.9766" font-family="Times,serif" font-size="14.00" fill="#000000">_B_h_</text>
</g>
<!-- _B1_t_&#45;&#45;_B1_h_ -->
<g id="edge2" class="edge">
<title>_B1_t_&#45;&#45;_B1_h_</title>
<path fill="none" stroke="#000000" stroke-dasharray="5,2" d="M135.5118,-18.886C117.7654,-26.2368 95.1636,-35.5988 79.5663,-42.0594"/>
<polygon fill="#000000" stroke="#000000" points="136.8966,-22.1008 144.796,-15.0403 134.2178,-15.6337 136.8966,-22.1008"/>
</g>
<!-- _B1_t_&#45;&#45;_D1_h_ -->
<g id="edge12" class="edge">
<title>_B1_t_&#45;&#45;_D1_h_</title>
<path fill="none" stroke="#ff0000" stroke-width="4" d="M166.159,-15.1266C181.3317,-51.7565 246.61,-209.3523 261.7012,-245.7857"/>
</g>
<!-- _B1_h_&#45;&#45;_C1_h_ -->
<g id="edge9" class="edge">
<title>_B1_h_&#45;&#45;_C1_h_</title>
<path fill="none" stroke="#ff0000" d="M80.3352,-49.6766C119.1486,-49.6766 206.6726,-49.6766 245.5673,-49.6766"/>
</g>
<!-- _A1_t_ -->
<g id="node5" class="node">
<title>_A1_t_</title>
<text text-anchor="middle" x="19" y="-147.8" font-family="Times,serif" font-size="14.00" fill="#000000">_A_t_</text>
</g>
<!-- _A1_t_&#45;&#45;_C1_t_ -->
<g id="edge10" class="edge">
<title>_A1_t_&#45;&#45;_C1_t_</title>
<path fill="none" stroke="#ff0000" stroke-width="4" d="M38.3437,-151.5C90.8094,-151.5 235.3735,-151.5 287.7405,-151.5"/>
</g>
<!-- _A1_t_&#45;&#45;_B1_h_ -->
<g id="edge8" class="edge">
<title>_A1_t_&#45;&#45;_B1_h_</title>
<path fill="none" stroke="#0000ff" d="M22.1701,-143.8467C29.9864,-124.9765 50.115,-76.3818 57.9697,-57.4187"/>
</g>
<!-- _A1_h_ -->
<g id="node6" class="node">
<title>_A1_h_</title>
<text text-anchor="middle" x="61.1766" y="-249.6234" font-family="Times,serif" font-size="14.00" fill="#000000">_A_h_</text>
</g>
<!-- _A1_t_&#45;&#45;_A1_h_ -->
<g id="edge3" class="edge">
<title>_A1_t_&#45;&#45;_A1_h_</title>
<path fill="none" stroke="#000000" stroke-dasharray="5,2" d="M26.0036,-168.4082C35.2609,-190.7572 51.1889,-229.2108 57.9697,-245.5813"/>
<polygon fill="#000000" stroke="#000000" points="29.2306,-167.0527 22.1701,-159.1533 22.7634,-169.7315 29.2306,-167.0527"/>
</g>
<!-- _D1_t_ -->
<g id="node7" class="node">
<title>_D1_t_</title>
<text text-anchor="middle" x="163" y="-291.8" font-family="Times,serif" font-size="14.00" fill="#000000">_D_t_</text>
</g>
<!-- _A1_h_&#45;&#45;_D1_t_ -->
<g id="edge6" class="edge">
<title>_A1_h_&#45;&#45;_D1_t_</title>
<path fill="none" stroke="#0000ff" d="M68.9993,-261.0158C84.9436,-270.9825 121.3468,-286.4526 143.9104,-293.2192"/>
</g>
<!-- _A1_h_&#45;&#45;_D1_t_ -->
<g id="edge11" class="edge">
<title>_A1_h_&#45;&#45;_D1_t_</title>
<path fill="none" stroke="#ff0000" d="M80.446,-255.6582C103.1429,-262.489 139.6613,-278.0315 155.4293,-287.9657"/>
</g>
<!-- _D1_t_&#45;&#45;_D1_h_ -->
<g id="edge4" class="edge">
<title>_D1_t_&#45;&#45;_D1_h_</title>
<path fill="none" stroke="#000000" stroke-dasharray="5,2" d="M190.4882,-284.114C208.2346,-276.7632 230.8364,-267.4012 246.4337,-260.9406"/>
<polygon fill="#000000" stroke="#000000" points="189.1034,-280.8992 181.204,-287.9597 191.7822,-287.3663 189.1034,-280.8992"/>
</g>
<!-- _C2_t_ -->
<g id="node9" class="node">
<title>_C2_t_</title>
<text text-anchor="middle" x="667" y="-147.8" font-family="Times,serif" font-size="14.00" fill="#000000">_C_t_</text>
</g>
<!-- _C2_h_ -->
<g id="node10" class="node">
<title>_C2_h_</title>
<text text-anchor="middle" x="624.8234" y="-45.9766" font-family="Times,serif" font-size="14.00" fill="#000000">_C_h_</text>
</g>
<!-- _C2_t_&#45;&#45;_C2_h_ -->
<g id="edge13" class="edge">
<title>_C2_t_&#45;&#45;_C2_h_</title>
<path fill="none" stroke="#000000" stroke-dasharray="5,2" d="M659.9964,-134.5918C650.7391,-112.2428 634.8111,-73.7892 628.0303,-57.4187"/>
<polygon fill="#000000" stroke="#000000" points="656.7694,-135.9473 663.8299,-143.8467 663.2366,-133.2685 656.7694,-135.9473"/>
</g>
<!-- _D2_h_ -->
<g id="node16" class="node">
<title>_D2_h_</title>
<text text-anchor="middle" x="624.8234" y="-249.6234" font-family="Times,serif" font-size="14.00" fill="#000000">_D_h_</text>
</g>
<!-- _C2_t_&#45;&#45;_D2_h_ -->
<g id="edge17" class="edge">
<title>_C2_t_&#45;&#45;_D2_h_</title>
<path fill="none" stroke="#0000ff" d="M659.3075,-159.3227C647.3934,-178.3825 627.6149,-226.6779 624.2405,-245.6196"/>
</g>
<!-- _C2_t_&#45;&#45;_D2_h_ -->
<g id="edge24" class="edge">
<title>_C2_t_&#45;&#45;_D2_h_</title>
<path fill="none" stroke="#ff0000" stroke-width="4" d="M667.5829,-159.2038C664.1979,-178.205 644.3055,-226.7448 632.4037,-245.6795"/>
</g>
<!-- _B2_t_ -->
<g id="node11" class="node">
<title>_B2_t_</title>
<text text-anchor="middle" x="523" y="-3.8" font-family="Times,serif" font-size="14.00" fill="#000000">_B_t_</text>
</g>
<!-- _B2_t_&#45;&#45;_C2_h_ -->
<g id="edge19" class="edge">
<title>_B2_t_&#45;&#45;_C2_h_</title>
<path fill="none" stroke="#0000ff" d="M541.204,-15.0403C559.6234,-22.6699 587.948,-34.4024 606.4337,-42.0594"/>
</g>
<!-- _B2_h_ -->
<g id="node12" class="node">
<title>_B2_h_</title>
<text text-anchor="middle" x="421.1766" y="-45.9766" font-family="Times,serif" font-size="14.00" fill="#000000">_B_h_</text>
</g>
<!-- _B2_t_&#45;&#45;_B2_h_ -->
<g id="edge14" class="edge">
<title>_B2_t_&#45;&#45;_B2_h_</title>
<path fill="none" stroke="#000000" stroke-dasharray="5,2" d="M495.5118,-18.886C477.7654,-26.2368 455.1636,-35.5988 439.5663,-42.0594"/>
<polygon fill="#000000" stroke="#000000" points="496.8966,-22.1008 504.796,-15.0403 494.2178,-15.6337 496.8966,-22.1008"/>
</g>
<!-- _B2_h_&#45;&#45;_C2_h_ -->
<g id="edge21" class="edge">
<title>_B2_h_&#45;&#45;_C2_h_</title>
<path fill="none" stroke="#ff0000" d="M440.3352,-49.6766C479.1486,-49.6766 566.6726,-49.6766 605.5673,-49.6766"/>
</g>
<!-- _A2_t_ -->
<g id="node13" class="node">
<title>_A2_t_</title>
<text text-anchor="middle" x="379" y="-147.8" font-family="Times,serif" font-size="14.00" fill="#000000">_A_t_</text>
</g>
<!-- _A2_t_&#45;&#45;_B2_t_ -->
<g id="edge22" class="edge">
<title>_A2_t_&#45;&#45;_B2_t_</title>
<path fill="none" stroke="#ff0000" stroke-width="4" d="M386.7421,-143.7579C411.7452,-118.7548 490.1621,-40.3379 515.2197,-15.2803"/>
</g>
<!-- _A2_t_&#45;&#45;_B2_h_ -->
<g id="edge20" class="edge">
<title>_A2_t_&#45;&#45;_B2_h_</title>
<path fill="none" stroke="#0000ff" d="M382.1701,-143.8467C389.9864,-124.9765 410.115,-76.3818 417.9697,-57.4187"/>
</g>
<!-- _A2_h_ -->
<g id="node14" class="node">
<title>_A2_h_</title>
<text text-anchor="middle" x="421.1766" y="-249.6234" font-family="Times,serif" font-size="14.00" fill="#000000">_A_h_</text>
</g>
<!-- _A2_t_&#45;&#45;_A2_h_ -->
<g id="edge15" class="edge">
<title>_A2_t_&#45;&#45;_A2_h_</title>
<path fill="none" stroke="#000000" stroke-dasharray="5,2" d="M386.0036,-168.4082C395.2609,-190.7572 411.1889,-229.2108 417.9697,-245.5813"/>
<polygon fill="#000000" stroke="#000000" points="389.2306,-167.0527 382.1701,-159.1533 382.7634,-169.7315 389.2306,-167.0527"/>
</g>
<!-- _D2_t_ -->
<g id="node15" class="node">
<title>_D2_t_</title>
<text text-anchor="middle" x="523" y="-291.8" font-family="Times,serif" font-size="14.00" fill="#000000">_D_t_</text>
</g>
<!-- _A2_h_&#45;&#45;_D2_t_ -->
<g id="edge18" class="edge">
<title>_A2_h_&#45;&#45;_D2_t_</title>
<path fill="none" stroke="#0000ff" d="M428.9993,-261.0158C444.9436,-270.9825 481.3468,-286.4526 503.9104,-293.2192"/>
</g>
<!-- _A2_h_&#45;&#45;_D2_t_ -->
<g id="edge23" class="edge">
<title>_A2_h_&#45;&#45;_D2_t_</title>
<path fill="none" stroke="#ff0000" d="M440.446,-255.6582C463.1429,-262.489 499.6614,-278.0315 515.4293,-287.9657"/>
</g>
<!-- _D2_t_&#45;&#45;_D2_h_ -->
<g id="edge16" class="edge">
<title>_D2_t_&#45;&#45;_D2_h_</title>
<path fill="none" stroke="#000000" stroke-dasharray="5,2" d="M550.4882,-284.114C568.2346,-276.7632 590.8364,-267.4012 606.4337,-260.9406"/>
<polygon fill="#000000" stroke="#000000" points="549.1034,-280.8992 541.204,-287.9597 551.7822,-287.3663 549.1034,-280.8992"/>
</g>
</g>
</svg>
