<?xml version="1.0" encoding="UTF-8" standalone="no"?>
<!DOCTYPE svg PUBLIC "-//W3C//DTD SVG 1.1//EN"
 "http://www.w3.org/Graphics/SVG/1.1/DTD/svg11.dtd">
<!-- Generated by graphviz version 2.40.1 (0)
 -->
<!-- Title: G Pages: 1 -->
<svg width="997pt" height="294pt"
 viewBox="0.00 0.00 997.19 294.00" xmlns="http://www.w3.org/2000/svg" xmlns:xlink="http://www.w3.org/1999/xlink">
<g id="graph0" class="graph" transform="scale(1 1) rotate(0) translate(4 290)">
<title>G</title>
<polygon fill="#ffffff" stroke="transparent" points="-4,4 -4,-290 993.1949,-290 993.1949,4 -4,4"/>
<!-- STATE_A -->
<g id="node1" class="node">
<title>STATE_A</title>
<polygon fill="none" stroke="#000000" points="168.1602,-89.0493 169.9363,-89.1479 171.694,-89.2953 173.4261,-89.4913 175.1257,-89.7353 176.7859,-90.0266 178.4002,-90.3645 179.9623,-90.7479 181.4662,-91.1759 182.9064,-91.6472 184.2777,-92.1606 185.5753,-92.7147 186.7949,-93.308 187.9326,-93.9388 188.9851,-94.6054 189.9494,-95.3059 190.8232,-96.0385 191.6046,-96.8012 192.2922,-97.5918 192.8852,-98.4082 193.3832,-99.2481 193.7862,-100.1093 194.0949,-100.9894 194.3101,-101.886 194.4334,-102.7965 194.4666,-103.7186 194.4118,-104.6497 194.2716,-105.5873 194.0487,-106.5287 193.7463,-107.4713 193.3677,-108.4127 192.9163,-109.3503 192.3958,-110.2814 191.8101,-111.2035 191.1629,-112.114 190.4583,-113.0106 189.7002,-113.8907 188.8925,-114.7519 188.039,-115.5918 187.1436,-116.4082 186.2099,-117.1988 185.2416,-117.9615 184.242,-118.6941 183.2145,-119.3946 182.162,-120.0612 181.0876,-120.692 179.9937,-121.2853 178.883,-121.8394 177.7578,-122.3528 176.62,-122.8241 175.4716,-123.2521 174.3142,-123.6355 173.1494,-123.9734 171.9785,-124.2647 170.8027,-124.5087 169.6231,-124.7047 168.4407,-124.8521 167.2562,-124.9507 166.0707,-125 164.8847,-125 163.6991,-124.9507 162.5146,-124.8521 161.3322,-124.7047 160.1526,-124.5087 158.9768,-124.2647 157.8059,-123.9734 156.6411,-123.6355 155.4838,-123.2521 154.3353,-122.8241 153.1976,-122.3528 152.0723,-121.8394 150.9616,-121.2853 149.8678,-120.692 148.7933,-120.0612 147.7408,-119.3946 146.7133,-118.6941 145.7137,-117.9615 144.7454,-117.1988 143.8118,-116.4082 142.9164,-115.5918 142.0629,-114.7519 141.2551,-113.8907 140.497,-113.0106 139.7924,-112.114 139.1452,-111.2035 138.5595,-110.2814 138.0391,-109.3503 137.5877,-108.4127 137.209,-107.4713 136.9066,-106.5287 136.6837,-105.5873 136.5435,-104.6497 136.4887,-103.7186 136.5219,-102.7965 136.6452,-101.886 136.8605,-100.9894 137.1691,-100.1093 137.5722,-99.2481 138.0701,-98.4082 138.6631,-97.5918 139.3507,-96.8012 140.1321,-96.0385 141.006,-95.3059 141.9703,-94.6054 143.0227,-93.9388 144.1604,-93.308 145.38,-92.7147 146.6776,-92.1606 148.0489,-91.6472 149.4891,-91.1759 150.993,-90.7479 152.5551,-90.3645 154.1694,-90.0266 155.8296,-89.7353 157.5292,-89.4913 159.2614,-89.2953 161.0191,-89.1479 162.7951,-89.0493 164.5823,-89 166.3731,-89 168.1602,-89.0493"/>
<text text-anchor="middle" x="165.4777" y="-104.5" font-family="Courier,monospace" font-weight="bold" font-size="10.00" fill="#000000">A</text>
</g>
<!-- STATE_A&#45;&gt;STATE_A -->
<g id="edge1" class="edge">
<title>STATE_A&#45;&gt;STATE_A</title>
<path fill="none" stroke="#000000" d="M155.37,-123.2903C152.9327,-133.3892 156.3019,-143 165.4777,-143 171.3559,-143 174.8511,-139.0557 175.9633,-133.5656"/>
<polygon fill="#000000" stroke="#000000" points="179.4507,-133.1548 175.5854,-123.2903 172.4554,-133.4122 179.4507,-133.1548"/>
<text text-anchor="middle" x="165.4777" y="-146" font-family="Courier,monospace" font-weight="bold" font-size="10.00" fill="#000000">0.3770245950809838</text>
</g>
<!-- STATE_B -->
<g id="node2" class="node">
<title>STATE_B</title>
<polygon fill="none" stroke="#000000" points="447.4036,-89.0493 449.1797,-89.1479 450.9374,-89.2953 452.6696,-89.4913 454.3691,-89.7353 456.0294,-90.0266 457.6436,-90.3645 459.2057,-90.7479 460.7097,-91.1759 462.1499,-91.6472 463.5211,-92.1606 464.8187,-92.7147 466.0383,-93.308 467.176,-93.9388 468.2285,-94.6054 469.1928,-95.3059 470.0666,-96.0385 470.848,-96.8012 471.5357,-97.5918 472.1287,-98.4082 472.6266,-99.2481 473.0296,-100.1093 473.3383,-100.9894 473.5536,-101.886 473.6769,-102.7965 473.7101,-103.7186 473.6553,-104.6497 473.5151,-105.5873 473.2922,-106.5287 472.9898,-107.4713 472.6111,-108.4127 472.1597,-109.3503 471.6393,-110.2814 471.0535,-111.2035 470.4064,-112.114 469.7018,-113.0106 468.9436,-113.8907 468.1359,-114.7519 467.2824,-115.5918 466.387,-116.4082 465.4534,-117.1988 464.485,-117.9615 463.4855,-118.6941 462.4579,-119.3946 461.4055,-120.0612 460.331,-120.692 459.2372,-121.2853 458.1265,-121.8394 457.0012,-122.3528 455.8634,-122.8241 454.715,-123.2521 453.5577,-123.6355 452.3929,-123.9734 451.222,-124.2647 450.0462,-124.5087 448.8666,-124.7047 447.6841,-124.8521 446.4997,-124.9507 445.3141,-125 444.1281,-125 442.9425,-124.9507 441.7581,-124.8521 440.5756,-124.7047 439.396,-124.5087 438.2203,-124.2647 437.0494,-123.9734 435.8846,-123.6355 434.7272,-123.2521 433.5788,-122.8241 432.441,-122.3528 431.3157,-121.8394 430.205,-121.2853 429.1112,-120.692 428.0367,-120.0612 426.9843,-119.3946 425.9567,-118.6941 424.9572,-117.9615 423.9889,-117.1988 423.0552,-116.4082 422.1598,-115.5918 421.3063,-114.7519 420.4986,-113.8907 419.7404,-113.0106 419.0358,-112.114 418.3887,-111.2035 417.803,-110.2814 417.2825,-109.3503 416.8311,-108.4127 416.4524,-107.4713 416.15,-106.5287 415.9272,-105.5873 415.7869,-104.6497 415.7321,-103.7186 415.7653,-102.7965 415.8886,-101.886 416.1039,-100.9894 416.4126,-100.1093 416.8156,-99.2481 417.3136,-98.4082 417.9066,-97.5918 418.5942,-96.8012 419.3756,-96.0385 420.2494,-95.3059 421.2137,-94.6054 422.2662,-93.9388 423.4039,-93.308 424.6235,-92.7147 425.9211,-92.1606 427.2923,-91.6472 428.7326,-91.1759 430.2365,-90.7479 431.7986,-90.3645 433.4129,-90.0266 435.0731,-89.7353 436.7727,-89.4913 438.5048,-89.2953 440.2625,-89.1479 442.0386,-89.0493 443.8257,-89 445.6165,-89 447.4036,-89.0493"/>
<text text-anchor="middle" x="444.7211" y="-104.5" font-family="Courier,monospace" font-weight="bold" font-size="10.00" fill="#000000">B</text>
</g>
<!-- STATE_A&#45;&gt;STATE_B -->
<g id="edge2" class="edge">
<title>STATE_A&#45;&gt;STATE_B</title>
<path fill="none" stroke="#000000" d="M191.2902,-96.4733C197.9938,-94.2111 205.283,-92.1545 212.2211,-91 274.9146,-80.5673 291.914,-85.3858 355.2211,-91 371.988,-92.4869 390.3165,-95.5115 405.9961,-98.5346"/>
<polygon fill="#000000" stroke="#000000" points="405.3828,-101.9811 415.8743,-100.5048 406.7521,-95.1163 405.3828,-101.9811"/>
<text text-anchor="middle" x="283.7211" y="-94" font-family="Courier,monospace" font-weight="bold" font-size="10.00" fill="#000000">0.6229754049190162</text>
</g>
<!-- SYMBOL_x -->
<g id="node6" class="node">
<title>SYMBOL_x</title>
<polygon fill="none" stroke="#000000" stroke-dasharray="5,2" points="726.6471,-.0493 728.4231,-.1479 730.1808,-.2953 731.913,-.4913 733.6126,-.7353 735.2728,-1.0266 736.8871,-1.3645 738.4492,-1.7479 739.9531,-2.1759 741.3933,-2.6472 742.7646,-3.1606 744.0622,-3.7147 745.2818,-4.308 746.4195,-4.9388 747.4719,-5.6054 748.4363,-6.3059 749.3101,-7.0385 750.0915,-7.8012 750.7791,-8.5918 751.3721,-9.4082 751.8701,-10.2481 752.2731,-11.1093 752.5817,-11.9894 752.797,-12.886 752.9203,-13.7965 752.9535,-14.7186 752.8987,-15.6497 752.7585,-16.5873 752.5356,-17.5287 752.2332,-18.4713 751.8545,-19.4127 751.4032,-20.3503 750.8827,-21.2814 750.297,-22.2035 749.6498,-23.114 748.9452,-24.0106 748.1871,-24.8907 747.3793,-25.7519 746.5259,-26.5918 745.6305,-27.4082 744.6968,-28.1988 743.7285,-28.9615 742.7289,-29.6941 741.7014,-30.3946 740.6489,-31.0612 739.5744,-31.692 738.4806,-32.2853 737.3699,-32.8394 736.2447,-33.3528 735.1069,-33.8241 733.9585,-34.2521 732.8011,-34.6355 731.6363,-34.9734 730.4654,-35.2647 729.2896,-35.5087 728.11,-35.7047 726.9276,-35.8521 725.7431,-35.9507 724.5575,-36 723.3716,-36 722.186,-35.9507 721.0015,-35.8521 719.8191,-35.7047 718.6395,-35.5087 717.4637,-35.2647 716.2928,-34.9734 715.128,-34.6355 713.9706,-34.2521 712.8222,-33.8241 711.6844,-33.3528 710.5592,-32.8394 709.4485,-32.2853 708.3547,-31.692 707.2802,-31.0612 706.2277,-30.3946 705.2002,-29.6941 704.2006,-28.9615 703.2323,-28.1988 702.2986,-27.4082 701.4032,-26.5918 700.5498,-25.7519 699.742,-24.8907 698.9839,-24.0106 698.2793,-23.114 697.6321,-22.2035 697.0464,-21.2814 696.5259,-20.3503 696.0746,-19.4127 695.6959,-18.4713 695.3935,-17.5287 695.1706,-16.5873 695.0304,-15.6497 694.9756,-14.7186 695.0088,-13.7965 695.1321,-12.886 695.3474,-11.9894 695.656,-11.1093 696.059,-10.2481 696.557,-9.4082 697.15,-8.5918 697.8376,-7.8012 698.619,-7.0385 699.4928,-6.3059 700.4572,-5.6054 701.5096,-4.9388 702.6473,-4.308 703.8669,-3.7147 705.1645,-3.1606 706.5358,-2.6472 707.976,-2.1759 709.4799,-1.7479 711.042,-1.3645 712.6563,-1.0266 714.3165,-.7353 716.0161,-.4913 717.7483,-.2953 719.506,-.1479 721.282,-.0493 723.0691,0 724.86,0 726.6471,-.0493"/>
<text text-anchor="middle" x="723.9645" y="-15.5" font-family="Courier,monospace" font-weight="bold" font-size="10.00" fill="#000000">x</text>
</g>
<!-- STATE_A&#45;&gt;SYMBOL_x -->
<g id="edge10" class="edge">
<title>STATE_A&#45;&gt;SYMBOL_x</title>
<path fill="none" stroke="#000000" stroke-dasharray="5,2" d="M186.0904,-92.9084C193.9597,-88.1265 203.2106,-83.1918 212.2211,-80 348.8002,-31.6191 390.1624,-44.5454 534.2211,-29 586.3987,-23.3695 646.9809,-20.4894 685.3848,-19.1154"/>
<polygon fill="#000000" stroke="#000000" points="685.7284,-22.6058 695.6032,-18.7668 685.4896,-15.6099 685.7284,-22.6058"/>
<text text-anchor="middle" x="444.7211" y="-44" font-family="Courier,monospace" font-weight="bold" font-size="10.00" fill="#000000">0.17604718584424672</text>
</g>
<!-- SYMBOL_y -->
<g id="node7" class="node">
<title>SYMBOL_y</title>
<polygon fill="none" stroke="#000000" stroke-dasharray="5,2" points="726.6471,-183.0493 728.4231,-183.1479 730.1808,-183.2953 731.913,-183.4913 733.6126,-183.7353 735.2728,-184.0266 736.8871,-184.3645 738.4492,-184.7479 739.9531,-185.1759 741.3933,-185.6472 742.7646,-186.1606 744.0622,-186.7147 745.2818,-187.308 746.4195,-187.9388 747.4719,-188.6054 748.4363,-189.3059 749.3101,-190.0385 750.0915,-190.8012 750.7791,-191.5918 751.3721,-192.4082 751.8701,-193.2481 752.2731,-194.1093 752.5817,-194.9894 752.797,-195.886 752.9203,-196.7965 752.9535,-197.7186 752.8987,-198.6497 752.7585,-199.5873 752.5356,-200.5287 752.2332,-201.4713 751.8545,-202.4127 751.4032,-203.3503 750.8827,-204.2814 750.297,-205.2035 749.6498,-206.114 748.9452,-207.0106 748.1871,-207.8907 747.3793,-208.7519 746.5259,-209.5918 745.6305,-210.4082 744.6968,-211.1988 743.7285,-211.9615 742.7289,-212.6941 741.7014,-213.3946 740.6489,-214.0612 739.5744,-214.692 738.4806,-215.2853 737.3699,-215.8394 736.2447,-216.3528 735.1069,-216.8241 733.9585,-217.2521 732.8011,-217.6355 731.6363,-217.9734 730.4654,-218.2647 729.2896,-218.5087 728.11,-218.7047 726.9276,-218.8521 725.7431,-218.9507 724.5575,-219 723.3716,-219 722.186,-218.9507 721.0015,-218.8521 719.8191,-218.7047 718.6395,-218.5087 717.4637,-218.2647 716.2928,-217.9734 715.128,-217.6355 713.9706,-217.2521 712.8222,-216.8241 711.6844,-216.3528 710.5592,-215.8394 709.4485,-215.2853 708.3547,-214.692 707.2802,-214.0612 706.2277,-213.3946 705.2002,-212.6941 704.2006,-211.9615 703.2323,-211.1988 702.2986,-210.4082 701.4032,-209.5918 700.5498,-208.7519 699.742,-207.8907 698.9839,-207.0106 698.2793,-206.114 697.6321,-205.2035 697.0464,-204.2814 696.5259,-203.3503 696.0746,-202.4127 695.6959,-201.4713 695.3935,-200.5287 695.1706,-199.5873 695.0304,-198.6497 694.9756,-197.7186 695.0088,-196.7965 695.1321,-195.886 695.3474,-194.9894 695.656,-194.1093 696.059,-193.2481 696.557,-192.4082 697.15,-191.5918 697.8376,-190.8012 698.619,-190.0385 699.4928,-189.3059 700.4572,-188.6054 701.5096,-187.9388 702.6473,-187.308 703.8669,-186.7147 705.1645,-186.1606 706.5358,-185.6472 707.976,-185.1759 709.4799,-184.7479 711.042,-184.3645 712.6563,-184.0266 714.3165,-183.7353 716.0161,-183.4913 717.7483,-183.2953 719.506,-183.1479 721.282,-183.0493 723.0691,-183 724.86,-183 726.6471,-183.0493"/>
<text text-anchor="middle" x="723.9645" y="-198.5" font-family="Courier,monospace" font-weight="bold" font-size="10.00" fill="#000000">y</text>
</g>
<!-- STATE_A&#45;&gt;SYMBOL_y -->
<g id="edge11" class="edge">
<title>STATE_A&#45;&gt;SYMBOL_y</title>
<path fill="none" stroke="#000000" stroke-dasharray="5,2" d="M187.3771,-116.3404C243.6402,-139.765 398.3805,-200.5891 534.2211,-221 597.0711,-230.4436 614.9597,-233.7603 677.2211,-221 682.8417,-219.8481 688.6216,-217.9917 694.1175,-215.863"/>
<polygon fill="#000000" stroke="#000000" points="695.773,-218.9625 703.6077,-211.8303 693.0353,-212.52 695.773,-218.9625"/>
<text text-anchor="middle" x="444.7211" y="-220" font-family="Courier,monospace" font-weight="bold" font-size="10.00" fill="#000000">0.5959212236329101</text>
</g>
<!-- SYMBOL_z -->
<g id="node8" class="node">
<title>SYMBOL_z</title>
<polygon fill="none" stroke="#000000" stroke-dasharray="5,2" points="726.6471,-250.0493 728.4231,-250.1479 730.1808,-250.2953 731.913,-250.4913 733.6126,-250.7353 735.2728,-251.0266 736.8871,-251.3645 738.4492,-251.7479 739.9531,-252.1759 741.3933,-252.6472 742.7646,-253.1606 744.0622,-253.7147 745.2818,-254.308 746.4195,-254.9388 747.4719,-255.6054 748.4363,-256.3059 749.3101,-257.0385 750.0915,-257.8012 750.7791,-258.5918 751.3721,-259.4082 751.8701,-260.2481 752.2731,-261.1093 752.5817,-261.9894 752.797,-262.886 752.9203,-263.7965 752.9535,-264.7186 752.8987,-265.6497 752.7585,-266.5873 752.5356,-267.5287 752.2332,-268.4713 751.8545,-269.4127 751.4032,-270.3503 750.8827,-271.2814 750.297,-272.2035 749.6498,-273.114 748.9452,-274.0106 748.1871,-274.8907 747.3793,-275.7519 746.5259,-276.5918 745.6305,-277.4082 744.6968,-278.1988 743.7285,-278.9615 742.7289,-279.6941 741.7014,-280.3946 740.6489,-281.0612 739.5744,-281.692 738.4806,-282.2853 737.3699,-282.8394 736.2447,-283.3528 735.1069,-283.8241 733.9585,-284.2521 732.8011,-284.6355 731.6363,-284.9734 730.4654,-285.2647 729.2896,-285.5087 728.11,-285.7047 726.9276,-285.8521 725.7431,-285.9507 724.5575,-286 723.3716,-286 722.186,-285.9507 721.0015,-285.8521 719.8191,-285.7047 718.6395,-285.5087 717.4637,-285.2647 716.2928,-284.9734 715.128,-284.6355 713.9706,-284.2521 712.8222,-283.8241 711.6844,-283.3528 710.5592,-282.8394 709.4485,-282.2853 708.3547,-281.692 707.2802,-281.0612 706.2277,-280.3946 705.2002,-279.6941 704.2006,-278.9615 703.2323,-278.1988 702.2986,-277.4082 701.4032,-276.5918 700.5498,-275.7519 699.742,-274.8907 698.9839,-274.0106 698.2793,-273.114 697.6321,-272.2035 697.0464,-271.2814 696.5259,-270.3503 696.0746,-269.4127 695.6959,-268.4713 695.3935,-267.5287 695.1706,-266.5873 695.0304,-265.6497 694.9756,-264.7186 695.0088,-263.7965 695.1321,-262.886 695.3474,-261.9894 695.656,-261.1093 696.059,-260.2481 696.557,-259.4082 697.15,-258.5918 697.8376,-257.8012 698.619,-257.0385 699.4928,-256.3059 700.4572,-255.6054 701.5096,-254.9388 702.6473,-254.308 703.8669,-253.7147 705.1645,-253.1606 706.5358,-252.6472 707.976,-252.1759 709.4799,-251.7479 711.042,-251.3645 712.6563,-251.0266 714.3165,-250.7353 716.0161,-250.4913 717.7483,-250.2953 719.506,-250.1479 721.282,-250.0493 723.0691,-250 724.86,-250 726.6471,-250.0493"/>
<text text-anchor="middle" x="723.9645" y="-265.5" font-family="Courier,monospace" font-weight="bold" font-size="10.00" fill="#000000">z</text>
</g>
<!-- STATE_A&#45;&gt;SYMBOL_z -->
<g id="edge12" class="edge">
<title>STATE_A&#45;&gt;SYMBOL_z</title>
<path fill="none" stroke="#000000" stroke-dasharray="5,2" d="M175.4116,-123.3876C183.8565,-136.1638 197.0113,-153.595 212.2211,-165 274.2291,-211.4965 298.0941,-212.9517 373.2211,-232 483.9476,-260.0745 619.6199,-266.3484 685.033,-267.687"/>
<polygon fill="#000000" stroke="#000000" points="685.2279,-271.1908 695.288,-267.8675 685.3512,-264.1919 685.2279,-271.1908"/>
<text text-anchor="middle" x="444.7211" y="-259" font-family="Courier,monospace" font-weight="bold" font-size="10.00" fill="#000000">0.22803159052284316</text>
</g>
<!-- STATE_B&#45;&gt;STATE_A -->
<g id="edge3" class="edge">
<title>STATE_B&#45;&gt;STATE_A</title>
<path fill="none" stroke="#000000" d="M415.9811,-107C365.4799,-107 260.8055,-107 204.0628,-107"/>
<polygon fill="#000000" stroke="#000000" points="204.0493,-103.5001 194.0493,-107 204.0493,-110.5001 204.0493,-103.5001"/>
<text text-anchor="middle" x="283.7211" y="-110" font-family="Courier,monospace" font-weight="bold" font-size="10.00" fill="#000000">0.30103979204159165</text>
</g>
<!-- STATE_C -->
<g id="node3" class="node">
<title>STATE_C</title>
<polygon fill="none" stroke="#000000" points="726.6471,-103.0493 728.4231,-103.1479 730.1808,-103.2953 731.913,-103.4913 733.6126,-103.7353 735.2728,-104.0266 736.8871,-104.3645 738.4492,-104.7479 739.9531,-105.1759 741.3933,-105.6472 742.7646,-106.1606 744.0622,-106.7147 745.2818,-107.308 746.4195,-107.9388 747.4719,-108.6054 748.4363,-109.3059 749.3101,-110.0385 750.0915,-110.8012 750.7791,-111.5918 751.3721,-112.4082 751.8701,-113.2481 752.2731,-114.1093 752.5817,-114.9894 752.797,-115.886 752.9203,-116.7965 752.9535,-117.7186 752.8987,-118.6497 752.7585,-119.5873 752.5356,-120.5287 752.2332,-121.4713 751.8545,-122.4127 751.4032,-123.3503 750.8827,-124.2814 750.297,-125.2035 749.6498,-126.114 748.9452,-127.0106 748.1871,-127.8907 747.3793,-128.7519 746.5259,-129.5918 745.6305,-130.4082 744.6968,-131.1988 743.7285,-131.9615 742.7289,-132.6941 741.7014,-133.3946 740.6489,-134.0612 739.5744,-134.692 738.4806,-135.2853 737.3699,-135.8394 736.2447,-136.3528 735.1069,-136.8241 733.9585,-137.2521 732.8011,-137.6355 731.6363,-137.9734 730.4654,-138.2647 729.2896,-138.5087 728.11,-138.7047 726.9276,-138.8521 725.7431,-138.9507 724.5575,-139 723.3716,-139 722.186,-138.9507 721.0015,-138.8521 719.8191,-138.7047 718.6395,-138.5087 717.4637,-138.2647 716.2928,-137.9734 715.128,-137.6355 713.9706,-137.2521 712.8222,-136.8241 711.6844,-136.3528 710.5592,-135.8394 709.4485,-135.2853 708.3547,-134.692 707.2802,-134.0612 706.2277,-133.3946 705.2002,-132.6941 704.2006,-131.9615 703.2323,-131.1988 702.2986,-130.4082 701.4032,-129.5918 700.5498,-128.7519 699.742,-127.8907 698.9839,-127.0106 698.2793,-126.114 697.6321,-125.2035 697.0464,-124.2814 696.5259,-123.3503 696.0746,-122.4127 695.6959,-121.4713 695.3935,-120.5287 695.1706,-119.5873 695.0304,-118.6497 694.9756,-117.7186 695.0088,-116.7965 695.1321,-115.886 695.3474,-114.9894 695.656,-114.1093 696.059,-113.2481 696.557,-112.4082 697.15,-111.5918 697.8376,-110.8012 698.619,-110.0385 699.4928,-109.3059 700.4572,-108.6054 701.5096,-107.9388 702.6473,-107.308 703.8669,-106.7147 705.1645,-106.1606 706.5358,-105.6472 707.976,-105.1759 709.4799,-104.7479 711.042,-104.3645 712.6563,-104.0266 714.3165,-103.7353 716.0161,-103.4913 717.7483,-103.2953 719.506,-103.1479 721.282,-103.0493 723.0691,-103 724.86,-103 726.6471,-103.0493"/>
<text text-anchor="middle" x="723.9645" y="-118.5" font-family="Courier,monospace" font-weight="bold" font-size="10.00" fill="#000000">C</text>
</g>
<!-- STATE_B&#45;&gt;STATE_C -->
<g id="edge4" class="edge">
<title>STATE_B&#45;&gt;STATE_C</title>
<path fill="none" stroke="#000000" d="M473.5301,-104.6731C517.6391,-101.6613 604.4531,-97.9101 677.2211,-108 680.2925,-108.4259 683.4471,-108.9981 686.5976,-109.6657"/>
<polygon fill="#000000" stroke="#000000" points="685.9971,-113.1212 696.5388,-112.061 687.6369,-106.3159 685.9971,-113.1212"/>
<text text-anchor="middle" x="605.7211" y="-111" font-family="Courier,monospace" font-weight="bold" font-size="10.00" fill="#000000">0.6989602079584083</text>
</g>
<!-- STATE_B&#45;&gt;SYMBOL_x -->
<g id="edge13" class="edge">
<title>STATE_B&#45;&gt;SYMBOL_x</title>
<path fill="none" stroke="#000000" stroke-dasharray="5,2" d="M463.014,-91.8513C480.2755,-78.3929 507.4354,-59.3041 534.2211,-49 594.3013,-25.8879 613.7176,-36.5409 677.2211,-26 680.6552,-25.43 684.23,-24.83 687.8054,-24.2256"/>
<polygon fill="#000000" stroke="#000000" points="688.4952,-27.6586 697.7668,-22.5313 687.3214,-20.7577 688.4952,-27.6586"/>
<text text-anchor="middle" x="605.7211" y="-52" font-family="Courier,monospace" font-weight="bold" font-size="10.00" fill="#000000">0.22503249025292413</text>
</g>
<!-- STATE_B&#45;&gt;SYMBOL_y -->
<g id="edge14" class="edge">
<title>STATE_B&#45;&gt;SYMBOL_y</title>
<path fill="none" stroke="#000000" stroke-dasharray="5,2" d="M467.7846,-115.1348C485.7908,-121.3876 511.4841,-130.095 534.2211,-137 597.2553,-156.1429 616.0117,-151.6452 677.2211,-176 682.3517,-178.0414 687.645,-180.4992 692.7429,-183.0661"/>
<polygon fill="#000000" stroke="#000000" points="691.1506,-186.1831 701.6308,-187.7378 694.4076,-179.987 691.1506,-186.1831"/>
<text text-anchor="middle" x="605.7211" y="-179" font-family="Courier,monospace" font-weight="bold" font-size="10.00" fill="#000000">0.5719284214735579</text>
</g>
<!-- STATE_B&#45;&gt;SYMBOL_z -->
<g id="edge15" class="edge">
<title>STATE_B&#45;&gt;SYMBOL_z</title>
<path fill="none" stroke="#000000" stroke-dasharray="5,2" d="M458.4081,-121.8898C475.0162,-139.289 504.5012,-168.0994 534.2211,-187 583.6766,-218.4517 647.4316,-242.7899 687.0001,-256.2583"/>
<polygon fill="#000000" stroke="#000000" points="685.9215,-259.588 696.5154,-259.4459 688.1451,-252.9506 685.9215,-259.588"/>
<text text-anchor="middle" x="605.7211" y="-255" font-family="Courier,monospace" font-weight="bold" font-size="10.00" fill="#000000">0.20303908827351796</text>
</g>
<!-- STATE_C&#45;&gt;STATE_B -->
<g id="edge5" class="edge">
<title>STATE_C&#45;&gt;STATE_B</title>
<path fill="none" stroke="#000000" d="M695.6309,-121.7835C658.5045,-122.5624 591.3945,-123.1185 534.2211,-119 516.7764,-117.7434 497.5389,-115.303 481.3842,-112.9493"/>
<polygon fill="#000000" stroke="#000000" points="481.6723,-109.4534 471.2632,-111.4284 480.632,-116.3757 481.6723,-109.4534"/>
<text text-anchor="middle" x="605.7211" y="-125" font-family="Courier,monospace" font-weight="bold" font-size="10.00" fill="#000000">0.8999200159968007</text>
</g>
<!-- STATE_D -->
<g id="node4" class="node">
<title>STATE_D</title>
<polygon fill="none" stroke="#000000" points="963.134,-72.0493 964.91,-72.1479 966.6677,-72.2953 968.3999,-72.4913 970.0995,-72.7353 971.7597,-73.0266 973.374,-73.3645 974.9361,-73.7479 976.44,-74.1759 977.8802,-74.6472 979.2515,-75.1606 980.5491,-75.7147 981.7687,-76.308 982.9064,-76.9388 983.9588,-77.6054 984.9231,-78.3059 985.7969,-79.0385 986.5784,-79.8012 987.266,-80.5918 987.859,-81.4082 988.3569,-82.2481 988.76,-83.1093 989.0686,-83.9894 989.2839,-84.886 989.4072,-85.7965 989.4404,-86.7186 989.3856,-87.6497 989.2454,-88.5873 989.0225,-89.5287 988.7201,-90.4713 988.3414,-91.4127 987.89,-92.3503 987.3696,-93.2814 986.7838,-94.2035 986.1367,-95.114 985.4321,-96.0106 984.674,-96.8907 983.8662,-97.7519 983.0127,-98.5918 982.1173,-99.4082 981.1837,-100.1988 980.2154,-100.9615 979.2158,-101.6941 978.1883,-102.3946 977.1358,-103.0612 976.0613,-103.692 974.9675,-104.2853 973.8568,-104.8394 972.7315,-105.3528 971.5938,-105.8241 970.4453,-106.2521 969.288,-106.6355 968.1232,-106.9734 966.9523,-107.2647 965.7765,-107.5087 964.5969,-107.7047 963.4145,-107.8521 962.23,-107.9507 961.0444,-108 959.8584,-108 958.6728,-107.9507 957.4884,-107.8521 956.306,-107.7047 955.1264,-107.5087 953.9506,-107.2647 952.7797,-106.9734 951.6149,-106.6355 950.4575,-106.2521 949.3091,-105.8241 948.1713,-105.3528 947.0461,-104.8394 945.9354,-104.2853 944.8415,-103.692 943.7671,-103.0612 942.7146,-102.3946 941.6871,-101.6941 940.6875,-100.9615 939.7192,-100.1988 938.7855,-99.4082 937.8901,-98.5918 937.0366,-97.7519 936.2289,-96.8907 935.4708,-96.0106 934.7662,-95.114 934.119,-94.2035 933.5333,-93.2814 933.0128,-92.3503 932.5614,-91.4127 932.1828,-90.4713 931.8804,-89.5287 931.6575,-88.5873 931.5173,-87.6497 931.4625,-86.7186 931.4956,-85.7965 931.619,-84.886 931.8342,-83.9894 932.1429,-83.1093 932.5459,-82.2481 933.0439,-81.4082 933.6369,-80.5918 934.3245,-79.8012 935.1059,-79.0385 935.9797,-78.3059 936.944,-77.6054 937.9965,-76.9388 939.1342,-76.308 940.3538,-75.7147 941.6514,-75.1606 943.0227,-74.6472 944.4629,-74.1759 945.9668,-73.7479 947.5289,-73.3645 949.1432,-73.0266 950.8034,-72.7353 952.503,-72.4913 954.2351,-72.2953 955.9928,-72.1479 957.7689,-72.0493 959.556,-72 961.3468,-72 963.134,-72.0493"/>
<text text-anchor="middle" x="960.4514" y="-87.5" font-family="Courier,monospace" font-weight="bold" font-size="10.00" fill="#000000">D</text>
</g>
<!-- STATE_C&#45;&gt;STATE_D -->
<g id="edge6" class="edge">
<title>STATE_C&#45;&gt;STATE_D</title>
<path fill="none" stroke="#000000" d="M752.9625,-117.1988C795.8473,-111.5772 876.1766,-101.0472 923.3147,-94.8681"/>
<polygon fill="#000000" stroke="#000000" points="923.9496,-98.3149 933.4098,-93.5448 923.0397,-91.3743 923.9496,-98.3149"/>
<text text-anchor="middle" x="842.208" y="-117" font-family="Courier,monospace" font-weight="bold" font-size="10.00" fill="#000000">0.10007998400319937</text>
</g>
<!-- STATE_D&#45;&gt;STATE_B -->
<g id="edge7" class="edge">
<title>STATE_D&#45;&gt;STATE_B</title>
<path fill="none" stroke="#000000" d="M931.5568,-88.7189C891.4349,-87.0102 816.573,-84.0757 752.708,-83 727.1619,-82.5697 720.7468,-81.8923 695.2211,-83 623.4631,-86.114 605.695,-89.9006 534.2211,-97 517.7876,-98.6323 499.6788,-100.62 484.0747,-102.392"/>
<polygon fill="#000000" stroke="#000000" points="483.2602,-98.9623 473.7233,-103.5772 484.0566,-105.9168 483.2602,-98.9623"/>
<text text-anchor="middle" x="723.9645" y="-86" font-family="Courier,monospace" font-weight="bold" font-size="10.00" fill="#000000">1.0</text>
</g>
<!-- STATE_SOURCE -->
<g id="node5" class="node">
<title>STATE_SOURCE</title>
<polygon fill="none" stroke="#000000" points="42.4515,-9.0493 44.8246,-9.1479 47.1732,-9.2953 49.4877,-9.4913 51.7587,-9.7353 53.9771,-10.0266 56.134,-10.3645 58.2213,-10.7479 60.2308,-11.1759 62.1552,-11.6472 63.9875,-12.1606 65.7213,-12.7147 67.3509,-13.308 68.8711,-13.9388 70.2774,-14.6054 71.5659,-15.3059 72.7335,-16.0385 73.7776,-16.8012 74.6964,-17.5918 75.4887,-18.4082 76.1541,-19.2481 76.6926,-20.1093 77.105,-20.9894 77.3927,-21.886 77.5574,-22.7965 77.6018,-23.7186 77.5286,-24.6497 77.3412,-25.5873 77.0434,-26.5287 76.6393,-27.4713 76.1334,-28.4127 75.5302,-29.3503 74.8348,-30.2814 74.0521,-31.2035 73.1874,-32.114 72.246,-33.0106 71.2329,-33.8907 70.1536,-34.7519 69.0132,-35.5918 67.8168,-36.4082 66.5693,-37.1988 65.2754,-37.9615 63.9398,-38.6941 62.5668,-39.3946 61.1606,-40.0612 59.7248,-40.692 58.2633,-41.2853 56.7792,-41.8394 55.2756,-42.3528 53.7553,-42.8241 52.2208,-43.2521 50.6744,-43.6355 49.118,-43.9734 47.5535,-44.2647 45.9824,-44.5087 44.4062,-44.7047 42.8263,-44.8521 41.2436,-44.9507 39.6595,-45 38.0748,-45 36.4906,-44.9507 34.908,-44.8521 33.328,-44.7047 31.7518,-44.5087 30.1808,-44.2647 28.6162,-43.9734 27.0598,-43.6355 25.5134,-43.2521 23.9789,-42.8241 22.4586,-42.3528 20.955,-41.8394 19.4709,-41.2853 18.0094,-40.692 16.5737,-40.0612 15.1674,-39.3946 13.7944,-38.6941 12.4588,-37.9615 11.1649,-37.1988 9.9174,-36.4082 8.721,-35.5918 7.5806,-34.7519 6.5013,-33.8907 5.4883,-33.0106 4.5468,-32.114 3.6821,-31.2035 2.8994,-30.2814 2.204,-29.3503 1.6009,-28.4127 1.0949,-27.4713 .6908,-26.5287 .393,-25.5873 .2056,-24.6497 .1324,-23.7186 .1768,-22.7965 .3416,-21.886 .6292,-20.9894 1.0416,-20.1093 1.5801,-19.2481 2.2455,-18.4082 3.0379,-17.5918 3.9567,-16.8012 5.0008,-16.0385 6.1683,-15.3059 7.4568,-14.6054 8.8631,-13.9388 10.3833,-13.308 12.0129,-12.7147 13.7467,-12.1606 15.579,-11.6472 17.5034,-11.1759 19.513,-10.7479 21.6002,-10.3645 23.7572,-10.0266 25.9755,-9.7353 28.2465,-9.4913 30.561,-9.2953 32.9096,-9.1479 35.2827,-9.0493 37.6707,-9 40.0635,-9 42.4515,-9.0493"/>
<text text-anchor="middle" x="38.8671" y="-24.5" font-family="Courier,monospace" font-weight="bold" font-size="10.00" fill="#000000">SOURCE</text>
</g>
<!-- STATE_SOURCE&#45;&gt;STATE_A -->
<g id="edge8" class="edge">
<title>STATE_SOURCE&#45;&gt;STATE_A</title>
<path fill="none" stroke="#000000" d="M60.3449,-40.5709C80.8986,-53.558 112.1001,-73.2729 135.1777,-87.8547"/>
<polygon fill="#000000" stroke="#000000" points="133.5711,-90.9797 143.8945,-93.3625 137.3103,-85.062 133.5711,-90.9797"/>
<text text-anchor="middle" x="107.2342" y="-79" font-family="Courier,monospace" font-weight="bold" font-size="10.00" fill="#000000">0.5</text>
</g>
<!-- STATE_SOURCE&#45;&gt;STATE_B -->
<g id="edge9" class="edge">
<title>STATE_SOURCE&#45;&gt;STATE_B</title>
<path fill="none" stroke="#000000" d="M74.2671,-31.4358C133.06,-39.1358 254.3571,-56.4373 355.2211,-80 372.759,-84.097 391.9094,-89.7154 407.979,-94.7664"/>
<polygon fill="#000000" stroke="#000000" points="406.9537,-98.113 417.5445,-97.8193 409.0821,-91.4444 406.9537,-98.113"/>
<text text-anchor="middle" x="165.4777" y="-51" font-family="Courier,monospace" font-weight="bold" font-size="10.00" fill="#000000">0.5</text>
</g>
</g>
</svg>
