<?xml version="1.0" encoding="UTF-8" standalone="no"?>
<!DOCTYPE svg PUBLIC "-//W3C//DTD SVG 1.1//EN"
 "http://www.w3.org/Graphics/SVG/1.1/DTD/svg11.dtd">
<!-- Generated by graphviz version 2.40.1 (0)
 -->
<!-- Title: G Pages: 1 -->
<svg width="953pt" height="192pt"
 viewBox="0.00 0.00 953.22 192.22" xmlns="http://www.w3.org/2000/svg" xmlns:xlink="http://www.w3.org/1999/xlink">
<g id="graph0" class="graph" transform="scale(1 1) rotate(0) translate(4 188.2159)">
<title>G</title>
<polygon fill="#ffffff" stroke="transparent" points="-4,4 -4,-188.2159 949.2211,-188.2159 949.2211,4 -4,4"/>
<!-- STATE_A -->
<g id="node1" class="node">
<title>STATE_A</title>
<polygon fill="none" stroke="#000000" points="331.4168,-95.2652 333.1928,-95.3638 334.9505,-95.5113 336.6827,-95.7072 338.3823,-95.9512 340.0425,-96.2425 341.6568,-96.5804 343.2188,-96.9638 344.7228,-97.3918 346.163,-97.8631 347.5343,-98.3766 348.8319,-98.9307 350.0514,-99.5239 351.1891,-100.1547 352.2416,-100.8213 353.2059,-101.5218 354.0797,-102.2544 354.8611,-103.0171 355.5488,-103.8077 356.1418,-104.6241 356.6397,-105.4641 357.0428,-106.3252 357.3514,-107.2053 357.5667,-108.1019 357.69,-109.0125 357.7232,-109.9345 357.6684,-110.8656 357.5282,-111.8032 357.3053,-112.7446 357.0029,-113.6873 356.6242,-114.6287 356.1728,-115.5662 355.6524,-116.4973 355.0666,-117.4194 354.4195,-118.3299 353.7149,-119.2265 352.9568,-120.1066 352.149,-120.9678 351.2955,-121.8077 350.4001,-122.6241 349.4665,-123.4147 348.4982,-124.1774 347.4986,-124.91 346.4711,-125.6105 345.4186,-126.2771 344.3441,-126.9079 343.2503,-127.5012 342.1396,-128.0553 341.0143,-128.5687 339.8765,-129.04 338.7281,-129.468 337.5708,-129.8514 336.406,-130.1893 335.2351,-130.4806 334.0593,-130.7246 332.8797,-130.9206 331.6972,-131.068 330.5128,-131.1666 329.3272,-131.2159 328.1412,-131.2159 326.9556,-131.1666 325.7712,-131.068 324.5887,-130.9206 323.4091,-130.7246 322.2334,-130.4806 321.0625,-130.1893 319.8977,-129.8514 318.7403,-129.468 317.5919,-129.04 316.4541,-128.5687 315.3288,-128.0553 314.2182,-127.5012 313.1243,-126.9079 312.0498,-126.2771 310.9974,-125.6105 309.9698,-124.91 308.9703,-124.1774 308.002,-123.4147 307.0683,-122.6241 306.1729,-121.8077 305.3194,-120.9678 304.5117,-120.1066 303.7535,-119.2265 303.0489,-118.3299 302.4018,-117.4194 301.8161,-116.4973 301.2956,-115.5662 300.8442,-114.6287 300.4656,-113.6873 300.1631,-112.7446 299.9403,-111.8032 299.8,-110.8656 299.7453,-109.9345 299.7784,-109.0125 299.9018,-108.1019 300.117,-107.2053 300.4257,-106.3252 300.8287,-105.4641 301.3267,-104.6241 301.9197,-103.8077 302.6073,-103.0171 303.3887,-102.2544 304.2625,-101.5218 305.2268,-100.8213 306.2793,-100.1547 307.417,-99.5239 308.6366,-98.9307 309.9342,-98.3766 311.3055,-97.8631 312.7457,-97.3918 314.2496,-96.9638 315.8117,-96.5804 317.426,-96.2425 319.0862,-95.9512 320.7858,-95.7072 322.5179,-95.5113 324.2756,-95.3638 326.0517,-95.2652 327.8388,-95.2159 329.6296,-95.2159 331.4168,-95.2652"/>
<text text-anchor="middle" x="328.7342" y="-110.7159" font-family="Courier,monospace" font-weight="bold" font-size="10.00" fill="#000000">A</text>
</g>
<!-- STATE_A&#45;&gt;STATE_A -->
<g id="edge1" class="edge">
<title>STATE_A&#45;&gt;STATE_A</title>
<path fill="none" stroke="#000000" d="M307.1807,-122.8014C289.8388,-134.859 297.0233,-149.2159 328.7342,-149.2159 354.2516,-149.2159 363.8876,-139.9195 357.6422,-130.0054"/>
<polygon fill="#000000" stroke="#000000" points="359.8807,-127.2987 350.2877,-122.8014 354.9823,-132.2994 359.8807,-127.2987"/>
<text text-anchor="middle" x="328.7342" y="-152.2159" font-family="Courier,monospace" font-weight="bold" font-size="10.00" fill="#000000">0.6666333399986669</text>
</g>
<!-- STATE_B -->
<g id="node2" class="node">
<title>STATE_B</title>
<polygon fill="none" stroke="#000000" points="650.4168,-61.2652 652.1928,-61.3638 653.9505,-61.5113 655.6827,-61.7072 657.3823,-61.9512 659.0425,-62.2425 660.6568,-62.5804 662.2188,-62.9638 663.7228,-63.3918 665.163,-63.8631 666.5343,-64.3766 667.8319,-64.9307 669.0514,-65.5239 670.1891,-66.1547 671.2416,-66.8213 672.2059,-67.5218 673.0797,-68.2544 673.8611,-69.0171 674.5488,-69.8077 675.1418,-70.6241 675.6397,-71.4641 676.0428,-72.3252 676.3514,-73.2053 676.5667,-74.1019 676.69,-75.0125 676.7232,-75.9345 676.6684,-76.8656 676.5282,-77.8032 676.3053,-78.7446 676.0029,-79.6873 675.6242,-80.6287 675.1728,-81.5662 674.6524,-82.4973 674.0666,-83.4194 673.4195,-84.3299 672.7149,-85.2265 671.9568,-86.1066 671.149,-86.9678 670.2955,-87.8077 669.4001,-88.6241 668.4665,-89.4147 667.4982,-90.1774 666.4986,-90.91 665.4711,-91.6105 664.4186,-92.2771 663.3441,-92.9079 662.2503,-93.5012 661.1396,-94.0553 660.0143,-94.5687 658.8765,-95.04 657.7281,-95.468 656.5708,-95.8514 655.406,-96.1893 654.2351,-96.4806 653.0593,-96.7246 651.8797,-96.9206 650.6972,-97.068 649.5128,-97.1666 648.3272,-97.2159 647.1412,-97.2159 645.9556,-97.1666 644.7712,-97.068 643.5887,-96.9206 642.4091,-96.7246 641.2334,-96.4806 640.0625,-96.1893 638.8977,-95.8514 637.7403,-95.468 636.5919,-95.04 635.4541,-94.5687 634.3288,-94.0553 633.2182,-93.5012 632.1243,-92.9079 631.0498,-92.2771 629.9974,-91.6105 628.9698,-90.91 627.9703,-90.1774 627.002,-89.4147 626.0683,-88.6241 625.1729,-87.8077 624.3194,-86.9678 623.5117,-86.1066 622.7535,-85.2265 622.0489,-84.3299 621.4018,-83.4194 620.8161,-82.4973 620.2956,-81.5662 619.8442,-80.6287 619.4656,-79.6873 619.1631,-78.7446 618.9403,-77.8032 618.8,-76.8656 618.7453,-75.9345 618.7784,-75.0125 618.9018,-74.1019 619.117,-73.2053 619.4257,-72.3252 619.8287,-71.4641 620.3267,-70.6241 620.9197,-69.8077 621.6073,-69.0171 622.3887,-68.2544 623.2625,-67.5218 624.2268,-66.8213 625.2793,-66.1547 626.417,-65.5239 627.6366,-64.9307 628.9342,-64.3766 630.3055,-63.8631 631.7457,-63.3918 633.2496,-62.9638 634.8117,-62.5804 636.426,-62.2425 638.0862,-61.9512 639.7858,-61.7072 641.5179,-61.5113 643.2756,-61.3638 645.0517,-61.2652 646.8388,-61.2159 648.6296,-61.2159 650.4168,-61.2652"/>
<text text-anchor="middle" x="647.7342" y="-76.7159" font-family="Courier,monospace" font-weight="bold" font-size="10.00" fill="#000000">B</text>
</g>
<!-- STATE_A&#45;&gt;STATE_B -->
<g id="edge2" class="edge">
<title>STATE_A&#45;&gt;STATE_B</title>
<path fill="none" stroke="#000000" d="M357.8376,-110.8866C401.9827,-107.2589 488.4873,-99.7799 561.7342,-91.2159 577.9146,-89.3241 595.7588,-86.8912 610.979,-84.7111"/>
<polygon fill="#000000" stroke="#000000" points="611.6498,-88.1506 621.0442,-83.252 610.6455,-81.223 611.6498,-88.1506"/>
<text text-anchor="middle" x="493.7342" y="-107.2159" font-family="Courier,monospace" font-weight="bold" font-size="10.00" fill="#000000">0.333366660001333</text>
</g>
<!-- SYMBOL_z -->
<g id="node5" class="node">
<title>SYMBOL_z</title>
<polygon fill="none" stroke="#000000" stroke-dasharray="5,2" points="919.1602,-74.2652 920.9363,-74.3638 922.694,-74.5113 924.4261,-74.7072 926.1257,-74.9512 927.7859,-75.2425 929.4002,-75.5804 930.9623,-75.9638 932.4662,-76.3918 933.9064,-76.8631 935.2777,-77.3766 936.5753,-77.9307 937.7949,-78.5239 938.9326,-79.1547 939.9851,-79.8213 940.9494,-80.5218 941.8232,-81.2544 942.6046,-82.0171 943.2922,-82.8077 943.8852,-83.6241 944.3832,-84.4641 944.7862,-85.3252 945.0949,-86.2053 945.3101,-87.1019 945.4334,-88.0125 945.4666,-88.9345 945.4118,-89.8656 945.2716,-90.8032 945.0487,-91.7446 944.7463,-92.6873 944.3677,-93.6287 943.9163,-94.5662 943.3958,-95.4973 942.8101,-96.4194 942.1629,-97.3299 941.4583,-98.2265 940.7002,-99.1066 939.8925,-99.9678 939.039,-100.8077 938.1436,-101.6241 937.2099,-102.4147 936.2416,-103.1774 935.242,-103.91 934.2145,-104.6105 933.162,-105.2771 932.0876,-105.9079 930.9937,-106.5012 929.883,-107.0553 928.7578,-107.5687 927.62,-108.04 926.4716,-108.468 925.3142,-108.8514 924.1494,-109.1893 922.9785,-109.4806 921.8027,-109.7246 920.6231,-109.9206 919.4407,-110.068 918.2562,-110.1666 917.0707,-110.2159 915.8847,-110.2159 914.6991,-110.1666 913.5146,-110.068 912.3322,-109.9206 911.1526,-109.7246 909.9768,-109.4806 908.8059,-109.1893 907.6411,-108.8514 906.4838,-108.468 905.3353,-108.04 904.1976,-107.5687 903.0723,-107.0553 901.9616,-106.5012 900.8678,-105.9079 899.7933,-105.2771 898.7408,-104.6105 897.7133,-103.91 896.7137,-103.1774 895.7454,-102.4147 894.8118,-101.6241 893.9164,-100.8077 893.0629,-99.9678 892.2551,-99.1066 891.497,-98.2265 890.7924,-97.3299 890.1452,-96.4194 889.5595,-95.4973 889.0391,-94.5662 888.5877,-93.6287 888.209,-92.6873 887.9066,-91.7446 887.6837,-90.8032 887.5435,-89.8656 887.4887,-88.9345 887.5219,-88.0125 887.6452,-87.1019 887.8605,-86.2053 888.1691,-85.3252 888.5722,-84.4641 889.0701,-83.6241 889.6631,-82.8077 890.3507,-82.0171 891.1321,-81.2544 892.006,-80.5218 892.9703,-79.8213 894.0227,-79.1547 895.1604,-78.5239 896.38,-77.9307 897.6776,-77.3766 899.0489,-76.8631 900.4891,-76.3918 901.993,-75.9638 903.5551,-75.5804 905.1694,-75.2425 906.8296,-74.9512 908.5292,-74.7072 910.2614,-74.5113 912.0191,-74.3638 913.7951,-74.2652 915.5823,-74.2159 917.3731,-74.2159 919.1602,-74.2652"/>
<text text-anchor="middle" x="916.4777" y="-89.7159" font-family="Courier,monospace" font-weight="bold" font-size="10.00" fill="#000000">z</text>
</g>
<!-- STATE_A&#45;&gt;SYMBOL_z -->
<g id="edge8" class="edge">
<title>STATE_A&#45;&gt;SYMBOL_z</title>
<path fill="none" stroke="#000000" stroke-dasharray="5,2" d="M356.7334,-115.2623C376.0999,-116.6005 402.4694,-118.2702 425.7342,-119.2159 622.9227,-127.2316 681.6319,-184.9241 869.7342,-125.2159 877.9893,-122.5955 886.0433,-117.9323 893.0756,-112.9216"/>
<polygon fill="#000000" stroke="#000000" points="895.5968,-115.3971 901.3751,-106.5166 891.3201,-109.8554 895.5968,-115.3971"/>
<text text-anchor="middle" x="647.7342" y="-154.2159" font-family="Courier,monospace" font-weight="bold" font-size="10.00" fill="#000000">0.5714142885708572</text>
</g>
<!-- SYMBOL_y -->
<g id="node6" class="node">
<title>SYMBOL_y</title>
<polygon fill="none" stroke="#000000" stroke-dasharray="5,2" points="919.1602,-148.2652 920.9363,-148.3638 922.694,-148.5113 924.4261,-148.7072 926.1257,-148.9512 927.7859,-149.2425 929.4002,-149.5804 930.9623,-149.9638 932.4662,-150.3918 933.9064,-150.8631 935.2777,-151.3766 936.5753,-151.9307 937.7949,-152.5239 938.9326,-153.1547 939.9851,-153.8213 940.9494,-154.5218 941.8232,-155.2544 942.6046,-156.0171 943.2922,-156.8077 943.8852,-157.6241 944.3832,-158.4641 944.7862,-159.3252 945.0949,-160.2053 945.3101,-161.1019 945.4334,-162.0125 945.4666,-162.9345 945.4118,-163.8656 945.2716,-164.8032 945.0487,-165.7446 944.7463,-166.6873 944.3677,-167.6287 943.9163,-168.5662 943.3958,-169.4973 942.8101,-170.4194 942.1629,-171.3299 941.4583,-172.2265 940.7002,-173.1066 939.8925,-173.9678 939.039,-174.8077 938.1436,-175.6241 937.2099,-176.4147 936.2416,-177.1774 935.242,-177.91 934.2145,-178.6105 933.162,-179.2771 932.0876,-179.9079 930.9937,-180.5012 929.883,-181.0553 928.7578,-181.5687 927.62,-182.04 926.4716,-182.468 925.3142,-182.8514 924.1494,-183.1893 922.9785,-183.4806 921.8027,-183.7246 920.6231,-183.9206 919.4407,-184.068 918.2562,-184.1666 917.0707,-184.2159 915.8847,-184.2159 914.6991,-184.1666 913.5146,-184.068 912.3322,-183.9206 911.1526,-183.7246 909.9768,-183.4806 908.8059,-183.1893 907.6411,-182.8514 906.4838,-182.468 905.3353,-182.04 904.1976,-181.5687 903.0723,-181.0553 901.9616,-180.5012 900.8678,-179.9079 899.7933,-179.2771 898.7408,-178.6105 897.7133,-177.91 896.7137,-177.1774 895.7454,-176.4147 894.8118,-175.6241 893.9164,-174.8077 893.0629,-173.9678 892.2551,-173.1066 891.497,-172.2265 890.7924,-171.3299 890.1452,-170.4194 889.5595,-169.4973 889.0391,-168.5662 888.5877,-167.6287 888.209,-166.6873 887.9066,-165.7446 887.6837,-164.8032 887.5435,-163.8656 887.4887,-162.9345 887.5219,-162.0125 887.6452,-161.1019 887.8605,-160.2053 888.1691,-159.3252 888.5722,-158.4641 889.0701,-157.6241 889.6631,-156.8077 890.3507,-156.0171 891.1321,-155.2544 892.006,-154.5218 892.9703,-153.8213 894.0227,-153.1547 895.1604,-152.5239 896.38,-151.9307 897.6776,-151.3766 899.0489,-150.8631 900.4891,-150.3918 901.993,-149.9638 903.5551,-149.5804 905.1694,-149.2425 906.8296,-148.9512 908.5292,-148.7072 910.2614,-148.5113 912.0191,-148.3638 913.7951,-148.2652 915.5823,-148.2159 917.3731,-148.2159 919.1602,-148.2652"/>
<text text-anchor="middle" x="916.4777" y="-163.7159" font-family="Courier,monospace" font-weight="bold" font-size="10.00" fill="#000000">y</text>
</g>
<!-- STATE_A&#45;&gt;SYMBOL_y -->
<g id="edge9" class="edge">
<title>STATE_A&#45;&gt;SYMBOL_y</title>
<path fill="none" stroke="#000000" stroke-dasharray="5,2" d="M352.8862,-120.4177C372.4118,-126.0633 400.6758,-133.8379 425.7342,-139.2159 493.5309,-153.7662 510.635,-158.4371 579.7342,-164.2159 687.6792,-173.2434 815.7661,-170.2512 878.2954,-167.9091"/>
<polygon fill="#000000" stroke="#000000" points="878.6171,-171.3993 888.4728,-167.5116 878.3438,-164.4046 878.6171,-171.3993"/>
<text text-anchor="middle" x="647.7342" y="-172.2159" font-family="Courier,monospace" font-weight="bold" font-size="10.00" fill="#000000">0.4285857114291427</text>
</g>
<!-- STATE_B&#45;&gt;STATE_A -->
<g id="edge3" class="edge">
<title>STATE_B&#45;&gt;STATE_A</title>
<path fill="none" stroke="#000000" d="M618.7227,-75.8437C576.0636,-71.6138 494.0726,-66.2639 425.7342,-78.2159 404.2081,-81.9807 381.1572,-90.1124 362.9293,-97.5907"/>
<polygon fill="#000000" stroke="#000000" points="361.4548,-94.4141 353.6056,-101.5304 364.1794,-100.8621 361.4548,-94.4141"/>
<text text-anchor="middle" x="493.7342" y="-81.2159" font-family="Courier,monospace" font-weight="bold" font-size="10.00" fill="#000000">0.6666333399986669</text>
</g>
<!-- STATE_C -->
<g id="node3" class="node">
<title>STATE_C</title>
<polygon fill="none" stroke="#000000" points="919.1602,-13.2652 920.9363,-13.3638 922.694,-13.5113 924.4261,-13.7072 926.1257,-13.9512 927.7859,-14.2425 929.4002,-14.5804 930.9623,-14.9638 932.4662,-15.3918 933.9064,-15.8631 935.2777,-16.3766 936.5753,-16.9307 937.7949,-17.5239 938.9326,-18.1547 939.9851,-18.8213 940.9494,-19.5218 941.8232,-20.2544 942.6046,-21.0171 943.2922,-21.8077 943.8852,-22.6241 944.3832,-23.4641 944.7862,-24.3252 945.0949,-25.2053 945.3101,-26.1019 945.4334,-27.0125 945.4666,-27.9345 945.4118,-28.8656 945.2716,-29.8032 945.0487,-30.7446 944.7463,-31.6873 944.3677,-32.6287 943.9163,-33.5662 943.3958,-34.4973 942.8101,-35.4194 942.1629,-36.3299 941.4583,-37.2265 940.7002,-38.1066 939.8925,-38.9678 939.039,-39.8077 938.1436,-40.6241 937.2099,-41.4147 936.2416,-42.1774 935.242,-42.91 934.2145,-43.6105 933.162,-44.2771 932.0876,-44.9079 930.9937,-45.5012 929.883,-46.0553 928.7578,-46.5687 927.62,-47.04 926.4716,-47.468 925.3142,-47.8514 924.1494,-48.1893 922.9785,-48.4806 921.8027,-48.7246 920.6231,-48.9206 919.4407,-49.068 918.2562,-49.1666 917.0707,-49.2159 915.8847,-49.2159 914.6991,-49.1666 913.5146,-49.068 912.3322,-48.9206 911.1526,-48.7246 909.9768,-48.4806 908.8059,-48.1893 907.6411,-47.8514 906.4838,-47.468 905.3353,-47.04 904.1976,-46.5687 903.0723,-46.0553 901.9616,-45.5012 900.8678,-44.9079 899.7933,-44.2771 898.7408,-43.6105 897.7133,-42.91 896.7137,-42.1774 895.7454,-41.4147 894.8118,-40.6241 893.9164,-39.8077 893.0629,-38.9678 892.2551,-38.1066 891.497,-37.2265 890.7924,-36.3299 890.1452,-35.4194 889.5595,-34.4973 889.0391,-33.5662 888.5877,-32.6287 888.209,-31.6873 887.9066,-30.7446 887.6837,-29.8032 887.5435,-28.8656 887.4887,-27.9345 887.5219,-27.0125 887.6452,-26.1019 887.8605,-25.2053 888.1691,-24.3252 888.5722,-23.4641 889.0701,-22.6241 889.6631,-21.8077 890.3507,-21.0171 891.1321,-20.2544 892.006,-19.5218 892.9703,-18.8213 894.0227,-18.1547 895.1604,-17.5239 896.38,-16.9307 897.6776,-16.3766 899.0489,-15.8631 900.4891,-15.3918 901.993,-14.9638 903.5551,-14.5804 905.1694,-14.2425 906.8296,-13.9512 908.5292,-13.7072 910.2614,-13.5113 912.0191,-13.3638 913.7951,-13.2652 915.5823,-13.2159 917.3731,-13.2159 919.1602,-13.2652"/>
<text text-anchor="middle" x="916.4777" y="-28.7159" font-family="Courier,monospace" font-weight="bold" font-size="10.00" fill="#000000">C</text>
</g>
<!-- STATE_B&#45;&gt;STATE_C -->
<g id="edge4" class="edge">
<title>STATE_B&#45;&gt;STATE_C</title>
<path fill="none" stroke="#000000" d="M662.2753,-62.7792C678.0001,-46.3623 704.7364,-22.1783 733.7342,-12.2159 790.8991,7.4235 810.4125,-.6202 869.7342,-12.2159 873.9899,-13.0478 878.3474,-14.2683 882.6083,-15.6961"/>
<polygon fill="#000000" stroke="#000000" points="881.6894,-19.0893 892.2818,-19.3184 884.1442,-12.5338 881.6894,-19.0893"/>
<text text-anchor="middle" x="801.7342" y="-15.2159" font-family="Courier,monospace" font-weight="bold" font-size="10.00" fill="#000000">0.333366660001333</text>
</g>
<!-- STATE_B&#45;&gt;SYMBOL_z -->
<g id="edge10" class="edge">
<title>STATE_B&#45;&gt;SYMBOL_z</title>
<path fill="none" stroke="#000000" stroke-dasharray="5,2" d="M676.6213,-77.0883C719.1254,-74.4675 800.9252,-71.367 869.7342,-80.2159 872.6167,-80.5866 875.5763,-81.0772 878.5391,-81.6483"/>
<polygon fill="#000000" stroke="#000000" points="877.9992,-85.1131 888.5177,-83.8434 879.5032,-78.2766 877.9992,-85.1131"/>
<text text-anchor="middle" x="801.7342" y="-83.2159" font-family="Courier,monospace" font-weight="bold" font-size="10.00" fill="#000000">0.6666333399986669</text>
</g>
<!-- STATE_B&#45;&gt;SYMBOL_y -->
<g id="edge11" class="edge">
<title>STATE_B&#45;&gt;SYMBOL_y</title>
<path fill="none" stroke="#000000" stroke-dasharray="5,2" d="M671.5834,-86.9366C718.6028,-102.1581 823.5523,-136.1333 879.5745,-154.2693"/>
<polygon fill="#000000" stroke="#000000" points="878.5213,-157.6071 889.1132,-157.3572 880.6773,-150.9474 878.5213,-157.6071"/>
<text text-anchor="middle" x="801.7342" y="-152.2159" font-family="Courier,monospace" font-weight="bold" font-size="10.00" fill="#000000">0.333366660001333</text>
</g>
<!-- STATE_C&#45;&gt;STATE_B -->
<g id="edge5" class="edge">
<title>STATE_C&#45;&gt;STATE_B</title>
<path fill="none" stroke="#000000" d="M889.4286,-34.7019C853.6611,-39.4618 788.7319,-48.6235 733.7342,-59.2159 718.0798,-62.2309 700.9512,-66.097 686.1298,-69.6251"/>
<polygon fill="#000000" stroke="#000000" points="685.185,-66.2525 676.284,-71.999 686.8258,-73.0575 685.185,-66.2525"/>
<text text-anchor="middle" x="801.7342" y="-62.2159" font-family="Courier,monospace" font-weight="bold" font-size="10.00" fill="#000000">1.0</text>
</g>
<!-- STATE_SOURCE -->
<g id="node4" class="node">
<title>STATE_SOURCE</title>
<polygon fill="none" stroke="#000000" points="42.4515,-53.2652 44.8246,-53.3638 47.1732,-53.5113 49.4877,-53.7072 51.7587,-53.9512 53.9771,-54.2425 56.134,-54.5804 58.2213,-54.9638 60.2308,-55.3918 62.1552,-55.8631 63.9875,-56.3766 65.7213,-56.9307 67.3509,-57.5239 68.8711,-58.1547 70.2774,-58.8213 71.5659,-59.5218 72.7335,-60.2544 73.7776,-61.0171 74.6964,-61.8077 75.4887,-62.6241 76.1541,-63.4641 76.6926,-64.3252 77.105,-65.2053 77.3927,-66.1019 77.5574,-67.0125 77.6018,-67.9345 77.5286,-68.8656 77.3412,-69.8032 77.0434,-70.7446 76.6393,-71.6873 76.1334,-72.6287 75.5302,-73.5662 74.8348,-74.4973 74.0521,-75.4194 73.1874,-76.3299 72.246,-77.2265 71.2329,-78.1066 70.1536,-78.9678 69.0132,-79.8077 67.8168,-80.6241 66.5693,-81.4147 65.2754,-82.1774 63.9398,-82.91 62.5668,-83.6105 61.1606,-84.2771 59.7248,-84.9079 58.2633,-85.5012 56.7792,-86.0553 55.2756,-86.5687 53.7553,-87.04 52.2208,-87.468 50.6744,-87.8514 49.118,-88.1893 47.5535,-88.4806 45.9824,-88.7246 44.4062,-88.9206 42.8263,-89.068 41.2436,-89.1666 39.6595,-89.2159 38.0748,-89.2159 36.4906,-89.1666 34.908,-89.068 33.328,-88.9206 31.7518,-88.7246 30.1808,-88.4806 28.6162,-88.1893 27.0598,-87.8514 25.5134,-87.468 23.9789,-87.04 22.4586,-86.5687 20.955,-86.0553 19.4709,-85.5012 18.0094,-84.9079 16.5737,-84.2771 15.1674,-83.6105 13.7944,-82.91 12.4588,-82.1774 11.1649,-81.4147 9.9174,-80.6241 8.721,-79.8077 7.5806,-78.9678 6.5013,-78.1066 5.4883,-77.2265 4.5468,-76.3299 3.6821,-75.4194 2.8994,-74.4973 2.204,-73.5662 1.6009,-72.6287 1.0949,-71.6873 .6908,-70.7446 .393,-69.8032 .2056,-68.8656 .1324,-67.9345 .1768,-67.0125 .3416,-66.1019 .6292,-65.2053 1.0416,-64.3252 1.5801,-63.4641 2.2455,-62.6241 3.0379,-61.8077 3.9567,-61.0171 5.0008,-60.2544 6.1683,-59.5218 7.4568,-58.8213 8.8631,-58.1547 10.3833,-57.5239 12.0129,-56.9307 13.7467,-56.3766 15.579,-55.8631 17.5034,-55.3918 19.513,-54.9638 21.6002,-54.5804 23.7572,-54.2425 25.9755,-53.9512 28.2465,-53.7072 30.561,-53.5113 32.9096,-53.3638 35.2827,-53.2652 37.6707,-53.2159 40.0635,-53.2159 42.4515,-53.2652"/>
<text text-anchor="middle" x="38.8671" y="-68.7159" font-family="Courier,monospace" font-weight="bold" font-size="10.00" fill="#000000">SOURCE</text>
</g>
<!-- STATE_SOURCE&#45;&gt;STATE_A -->
<g id="edge6" class="edge">
<title>STATE_SOURCE&#45;&gt;STATE_A</title>
<path fill="none" stroke="#000000" d="M73.5439,-76.2404C127.8678,-84.1116 232.6962,-99.3006 289.63,-107.5499"/>
<polygon fill="#000000" stroke="#000000" points="289.2819,-111.036 299.6804,-109.0062 290.2857,-104.1083 289.2819,-111.036"/>
<text text-anchor="middle" x="163.7342" y="-101.2159" font-family="Courier,monospace" font-weight="bold" font-size="10.00" fill="#000000">0.9999000199960009</text>
</g>
<!-- STATE_SOURCE&#45;&gt;STATE_B -->
<g id="edge7" class="edge">
<title>STATE_SOURCE&#45;&gt;STATE_B</title>
<path fill="none" stroke="#000000" d="M77.6409,-68.6094C164.4789,-63.2614 381.138,-52.6433 561.7342,-66.2159 577.1225,-67.3724 593.9298,-69.6772 608.5709,-72.0293"/>
<polygon fill="#000000" stroke="#000000" points="608.3583,-75.5421 618.7978,-73.7345 609.5096,-68.6374 608.3583,-75.5421"/>
<text text-anchor="middle" x="328.7342" y="-64.2159" font-family="Courier,monospace" font-weight="bold" font-size="10.00" fill="#000000">9.998000399920017e&#45;05</text>
</g>
</g>
</svg>
