<?xml version="1.0" encoding="UTF-8" standalone="no"?>
<!DOCTYPE svg PUBLIC "-//W3C//DTD SVG 1.1//EN"
 "http://www.w3.org/Graphics/SVG/1.1/DTD/svg11.dtd">
<!-- Generated by graphviz version 2.40.1 (0)
 -->
<!-- Title: G Pages: 1 -->
<svg width="309pt" height="131pt"
 viewBox="0.00 0.00 309.00 131.00" xmlns="http://www.w3.org/2000/svg" xmlns:xlink="http://www.w3.org/1999/xlink">
<g id="graph0" class="graph" transform="scale(1 1) rotate(0) translate(4 127)">
<title>G</title>
<polygon fill="#ffffff" stroke="transparent" points="-4,4 -4,-127 305,-127 305,4 -4,4"/>
<!-- N1 -->
<g id="node1" class="node">
<title>N1</title>
<ellipse fill="none" stroke="#000000" cx="190.5" cy="-61.5" rx="14.5" ry="14.5"/>
<text text-anchor="middle" x="190.5" y="-59" font-family="Courier,monospace" font-weight="bold" font-size="10.00" fill="#000000">N1</text>
</g>
<!-- v0 -->
<g id="node3" class="node">
<title>v0</title>
<ellipse fill="none" stroke="#000000" cx="286.5" cy="-108.5" rx="14.5" ry="14.5"/>
<text text-anchor="middle" x="286.5" y="-106" font-family="Courier,monospace" font-weight="bold" font-size="10.00" fill="#000000">v0</text>
</g>
<!-- N1&#45;&#45;v0 -->
<g id="edge6" class="edge">
<title>N1&#45;&#45;v0</title>
<path fill="none" stroke="#000000" d="M203.8484,-68.0351C222.1895,-77.0146 254.9837,-93.0701 273.265,-102.0204"/>
<text text-anchor="middle" x="238.5" y="-94.5" font-family="Courier,monospace" font-weight="bold" font-size="10.00" fill="#000000">11.0</text>
</g>
<!-- v1 -->
<g id="node4" class="node">
<title>v1</title>
<ellipse fill="none" stroke="#000000" cx="286.5" cy="-61.5" rx="14.5" ry="14.5"/>
<text text-anchor="middle" x="286.5" y="-59" font-family="Courier,monospace" font-weight="bold" font-size="10.00" fill="#000000">v1</text>
</g>
<!-- N1&#45;&#45;v1 -->
<g id="edge1" class="edge">
<title>N1&#45;&#45;v1</title>
<path fill="none" stroke="#000000" d="M205.0803,-61.5C223.124,-61.5 253.6756,-61.5 271.7825,-61.5"/>
<text text-anchor="middle" x="238.5" y="-64.5" font-family="Courier,monospace" font-weight="bold" font-size="10.00" fill="#000000">2.0</text>
</g>
<!-- v2 -->
<g id="node5" class="node">
<title>v2</title>
<ellipse fill="none" stroke="#000000" cx="286.5" cy="-14.5" rx="14.5" ry="14.5"/>
<text text-anchor="middle" x="286.5" y="-12" font-family="Courier,monospace" font-weight="bold" font-size="10.00" fill="#000000">v2</text>
</g>
<!-- N1&#45;&#45;v2 -->
<g id="edge2" class="edge">
<title>N1&#45;&#45;v2</title>
<path fill="none" stroke="#000000" d="M203.8484,-54.9649C222.1895,-45.9854 254.9837,-29.9299 273.265,-20.9796"/>
<text text-anchor="middle" x="238.5" y="-47.5" font-family="Courier,monospace" font-weight="bold" font-size="10.00" fill="#000000">10.0</text>
</g>
<!-- N2 -->
<g id="node2" class="node">
<title>N2</title>
<ellipse fill="none" stroke="#000000" cx="102.5" cy="-31.5" rx="14.5" ry="14.5"/>
<text text-anchor="middle" x="102.5" y="-29" font-family="Courier,monospace" font-weight="bold" font-size="10.00" fill="#000000">N2</text>
</g>
<!-- N2&#45;&#45;N1 -->
<g id="edge4" class="edge">
<title>N2&#45;&#45;N1</title>
<path fill="none" stroke="#000000" d="M116.25,-36.1875C132.6855,-41.7905 160.0353,-51.1143 176.5561,-56.7464"/>
<text text-anchor="middle" x="146.5" y="-52.5" font-family="Courier,monospace" font-weight="bold" font-size="10.00" fill="#000000">4.0</text>
</g>
<!-- v4 -->
<g id="node6" class="node">
<title>v4</title>
<ellipse fill="none" stroke="#000000" cx="190.5" cy="-14.5" rx="14.5" ry="14.5"/>
<text text-anchor="middle" x="190.5" y="-12" font-family="Courier,monospace" font-weight="bold" font-size="10.00" fill="#000000">v4</text>
</g>
<!-- N2&#45;&#45;v4 -->
<g id="edge5" class="edge">
<title>N2&#45;&#45;v4</title>
<path fill="none" stroke="#000000" d="M116.2779,-26.6827C122.0088,-24.8308 128.767,-22.8414 135,-21.5 148.6719,-18.5576 164.5234,-16.7106 175.7767,-15.6576"/>
<text text-anchor="middle" x="146.5" y="-24.5" font-family="Courier,monospace" font-weight="bold" font-size="10.00" fill="#000000">7.0</text>
</g>
<!-- v5 -->
<g id="node7" class="node">
<title>v5</title>
<ellipse fill="none" stroke="#000000" cx="14.5" cy="-31.5" rx="14.5" ry="14.5"/>
<text text-anchor="middle" x="14.5" y="-29" font-family="Courier,monospace" font-weight="bold" font-size="10.00" fill="#000000">v5</text>
</g>
<!-- v5&#45;&#45;N2 -->
<g id="edge3" class="edge">
<title>v5&#45;&#45;N2</title>
<path fill="none" stroke="#000000" d="M29.0314,-31.5C45.3364,-31.5 71.6332,-31.5 87.947,-31.5"/>
<text text-anchor="middle" x="58.5" y="-34.5" font-family="Courier,monospace" font-weight="bold" font-size="10.00" fill="#000000">7.0</text>
</g>
</g>
</svg>
