<?xml version="1.0" encoding="UTF-8" standalone="no"?>
<!DOCTYPE svg PUBLIC "-//W3C//DTD SVG 1.1//EN"
 "http://www.w3.org/Graphics/SVG/1.1/DTD/svg11.dtd">
<!-- Generated by graphviz version 2.40.1 (0)
 -->
<!-- Title: G Pages: 1 -->
<svg width="317pt" height="105pt"
 viewBox="0.00 0.00 317.00 105.00" xmlns="http://www.w3.org/2000/svg" xmlns:xlink="http://www.w3.org/1999/xlink">
<g id="graph0" class="graph" transform="scale(1 1) rotate(0) translate(4 101)">
<title>G</title>
<polygon fill="#ffffff" stroke="transparent" points="-4,4 -4,-101 313,-101 313,4 -4,4"/>
<!-- N1 -->
<g id="node1" class="node">
<title>N1</title>
<ellipse fill="none" stroke="#000000" cx="198.5" cy="-25.5" rx="14.5" ry="14.5"/>
<text text-anchor="middle" x="198.5" y="-23" font-family="Courier,monospace" font-weight="bold" font-size="10.00" fill="#000000">N1</text>
</g>
<!-- v0 -->
<g id="node3" class="node">
<title>v0</title>
<ellipse fill="none" stroke="#000000" cx="294.5" cy="-25.5" rx="14.5" ry="14.5"/>
<text text-anchor="middle" x="294.5" y="-23" font-family="Courier,monospace" font-weight="bold" font-size="10.00" fill="#000000">v0</text>
</g>
<!-- N1&#45;&#45;v0 -->
<g id="edge2" class="edge">
<title>N1&#45;&#45;v0</title>
<path fill="none" stroke="#000000" d="M213.0803,-25.5C231.124,-25.5 261.6756,-25.5 279.7825,-25.5"/>
<text text-anchor="middle" x="246.5" y="-28.5" font-family="Courier,monospace" font-weight="bold" font-size="10.00" fill="#000000">11.0</text>
</g>
<!-- N2 -->
<g id="node2" class="node">
<title>N2</title>
<ellipse fill="none" stroke="#000000" cx="102.5" cy="-71.5" rx="14.5" ry="14.5"/>
<text text-anchor="middle" x="102.5" y="-69" font-family="Courier,monospace" font-weight="bold" font-size="10.00" fill="#000000">N2</text>
</g>
<!-- N2&#45;&#45;N1 -->
<g id="edge4" class="edge">
<title>N2&#45;&#45;N1</title>
<path fill="none" stroke="#000000" d="M115.8484,-65.1039C134.1895,-56.3155 166.9837,-40.6016 185.265,-31.8418"/>
<text text-anchor="middle" x="150.5" y="-58.5" font-family="Courier,monospace" font-weight="bold" font-size="10.00" fill="#000000">4.0</text>
</g>
<!-- v3 -->
<g id="node5" class="node">
<title>v3</title>
<ellipse fill="none" stroke="#000000" cx="198.5" cy="-82.5" rx="14.5" ry="14.5"/>
<text text-anchor="middle" x="198.5" y="-80" font-family="Courier,monospace" font-weight="bold" font-size="10.00" fill="#000000">v3</text>
</g>
<!-- N2&#45;&#45;v3 -->
<g id="edge5" class="edge">
<title>N2&#45;&#45;v3</title>
<path fill="none" stroke="#000000" d="M117.0803,-73.1707C135.124,-75.2382 165.6756,-78.7389 183.7825,-80.8136"/>
<text text-anchor="middle" x="150.5" y="-81.5" font-family="Courier,monospace" font-weight="bold" font-size="10.00" fill="#000000">6.0</text>
</g>
<!-- v2 -->
<g id="node4" class="node">
<title>v2</title>
<ellipse fill="none" stroke="#000000" cx="102.5" cy="-14.5" rx="14.5" ry="14.5"/>
<text text-anchor="middle" x="102.5" y="-12" font-family="Courier,monospace" font-weight="bold" font-size="10.00" fill="#000000">v2</text>
</g>
<!-- v2&#45;&#45;N1 -->
<g id="edge1" class="edge">
<title>v2&#45;&#45;N1</title>
<path fill="none" stroke="#000000" d="M116.975,-13.5735C129.911,-13.0187 149.3385,-12.8603 166,-15.5 172.2972,-16.4976 179.0654,-18.4333 184.7865,-20.338"/>
<text text-anchor="middle" x="150.5" y="-18.5" font-family="Courier,monospace" font-weight="bold" font-size="10.00" fill="#000000">10.0</text>
</g>
<!-- v5 -->
<g id="node6" class="node">
<title>v5</title>
<ellipse fill="none" stroke="#000000" cx="14.5" cy="-71.5" rx="14.5" ry="14.5"/>
<text text-anchor="middle" x="14.5" y="-69" font-family="Courier,monospace" font-weight="bold" font-size="10.00" fill="#000000">v5</text>
</g>
<!-- v5&#45;&#45;N2 -->
<g id="edge3" class="edge">
<title>v5&#45;&#45;N2</title>
<path fill="none" stroke="#000000" d="M29.0314,-71.5C45.3364,-71.5 71.6332,-71.5 87.947,-71.5"/>
<text text-anchor="middle" x="58.5" y="-74.5" font-family="Courier,monospace" font-weight="bold" font-size="10.00" fill="#000000">7.0</text>
</g>
</g>
</svg>
