<?xml version="1.0" encoding="UTF-8" standalone="no"?>
<!DOCTYPE svg PUBLIC "-//W3C//DTD SVG 1.1//EN"
 "http://www.w3.org/Graphics/SVG/1.1/DTD/svg11.dtd">
<!-- Generated by graphviz version 2.40.1 (0)
 -->
<!-- Title: G Pages: 1 -->
<svg width="2639pt" height="215pt"
 viewBox="0.00 0.00 2639.27 214.90" xmlns="http://www.w3.org/2000/svg" xmlns:xlink="http://www.w3.org/1999/xlink">
<g id="graph0" class="graph" transform="scale(1 1) rotate(0) translate(4 210.8955)">
<title>G</title>
<polygon fill="#ffffff" stroke="transparent" points="-4,4 -4,-210.8955 2635.2658,-210.8955 2635.2658,4 -4,4"/>
<text text-anchor="middle" x="1315.6329" y="-191.6955" font-family="Times,serif" font-size="14.00" fill="#000000">Right&#45;hand side (backward)</text>
<!-- ((&#45;1, &#39;SINK&#39;), 0) -->
<g id="node1" class="node">
<title>((&#45;1, &#39;SINK&#39;), 0)</title>
<polygon fill="none" stroke="#000000" points="2532.8586,-61.2905 2539.4982,-61.4079 2546.069,-61.5836 2552.5444,-61.8171 2558.8981,-62.1077 2565.1046,-62.4548 2571.1393,-62.8572 2576.979,-63.314 2582.6012,-63.8238 2587.9852,-64.3854 2593.1115,-64.997 2597.9624,-65.6571 2602.5216,-66.3638 2606.7748,-67.1153 2610.7092,-67.9094 2614.3142,-68.744 2617.5808,-69.6167 2620.502,-70.5252 2623.0726,-71.4671 2625.2894,-72.4397 2627.151,-73.4403 2628.6576,-74.4662 2629.8115,-75.5146 2630.6163,-76.5827 2631.0773,-77.6675 2631.2013,-78.7659 2630.9965,-79.8751 2630.4723,-80.992 2629.6391,-82.1135 2628.5086,-83.2365 2627.093,-84.358 2625.4055,-85.4749 2623.4599,-86.5841 2621.2702,-87.6826 2618.851,-88.7673 2616.2169,-89.8354 2613.3827,-90.8838 2610.3631,-91.9097 2607.1725,-92.9104 2603.8251,-93.8829 2600.3348,-94.8248 2596.7149,-95.7333 2592.9782,-96.6061 2589.1369,-97.4406 2585.2024,-98.2347 2581.1856,-98.9862 2577.0965,-99.6929 2572.9444,-100.353 2568.7377,-100.9647 2564.4843,-101.5262 2560.1911,-102.036 2555.8645,-102.4928 2551.51,-102.8953 2547.1328,-103.2423 2542.7374,-103.5329 2538.3276,-103.7664 2533.9072,-103.9421 2529.4793,-104.0595 2525.0471,-104.1183 2520.6135,-104.1183 2516.1814,-104.0595 2511.7535,-103.9421 2507.3331,-103.7664 2502.9233,-103.5329 2498.5278,-103.2423 2494.1506,-102.8953 2489.7962,-102.4928 2485.4696,-102.036 2481.1764,-101.5262 2476.923,-100.9647 2472.7163,-100.353 2468.5642,-99.6929 2464.4751,-98.9862 2460.4582,-98.2347 2456.5238,-97.4406 2452.6825,-96.6061 2448.9458,-95.7333 2445.3259,-94.8248 2441.8356,-93.8829 2438.4882,-92.9104 2435.2976,-91.9097 2432.2779,-90.8838 2429.4438,-89.8354 2426.8097,-88.7673 2424.3905,-87.6826 2422.2008,-86.5841 2420.2552,-85.4749 2418.5677,-84.358 2417.1521,-83.2365 2416.0216,-82.1135 2415.1884,-80.992 2414.6642,-79.8751 2414.4594,-78.7659 2414.5834,-77.6675 2415.0444,-76.5827 2415.8492,-75.5146 2417.0031,-74.4662 2418.5097,-73.4403 2420.3713,-72.4397 2422.5881,-71.4671 2425.1587,-70.5252 2428.0799,-69.6167 2431.3465,-68.744 2434.9514,-67.9094 2438.8859,-67.1153 2443.1391,-66.3638 2447.6983,-65.6571 2452.5491,-64.997 2457.6755,-64.3854 2463.0595,-63.8238 2468.6817,-63.314 2474.5213,-62.8572 2480.5561,-62.4548 2486.7626,-62.1077 2493.1162,-61.8171 2499.5916,-61.5836 2506.1625,-61.4079 2512.8021,-61.2905 2519.483,-61.2317 2526.1777,-61.2317 2532.8586,-61.2905"/>
<text text-anchor="middle" x="2522.8303" y="-85.675" font-family="Courier,monospace" font-weight="bold" font-size="10.00" fill="#000000">((&#45;1, &#39;SINK&#39;), 0)</text>
<text text-anchor="middle" x="2522.8303" y="-74.675" font-family="Courier,monospace" font-weight="bold" font-size="10.00" fill="#000000">1.0</text>
</g>
<!-- ((&#45;1, &#39;SOURCE&#39;), 0) -->
<g id="node2" class="node">
<title>((&#45;1, &#39;SOURCE&#39;), 0)</title>
<polygon fill="none" stroke="#000000" points="130.8317,-81.2905 138.1814,-81.4079 145.4551,-81.5836 152.6231,-81.8171 159.6563,-82.1077 166.5266,-82.4548 173.2069,-82.8572 179.6711,-83.314 185.8947,-83.8238 191.8545,-84.3854 197.5291,-84.997 202.8989,-85.6571 207.9457,-86.3638 212.6538,-87.1153 217.0091,-87.9094 220.9996,-88.744 224.6156,-89.6167 227.8492,-90.5252 230.6948,-91.4671 233.1487,-92.4397 235.2094,-93.4403 236.8772,-94.4662 238.1544,-95.5146 239.0453,-96.5827 239.5556,-97.6675 239.6929,-98.7659 239.4662,-99.8751 238.8859,-100.992 237.9636,-102.1135 236.7122,-103.2365 235.1452,-104.358 233.2772,-105.4749 231.1235,-106.5841 228.6996,-107.6826 226.0216,-108.7673 223.1058,-109.8354 219.9685,-110.8838 216.6259,-111.9097 213.094,-112.9104 209.3886,-113.8829 205.525,-114.8248 201.518,-115.7333 197.3816,-116.6061 193.1294,-117.4406 188.7741,-118.2347 184.3277,-118.9862 179.8012,-119.6929 175.2049,-120.353 170.5483,-120.9647 165.84,-121.5262 161.0876,-122.036 156.2982,-122.4928 151.478,-122.8953 146.6327,-123.2423 141.7671,-123.5329 136.8856,-123.7664 131.9924,-123.9421 127.091,-124.0595 122.1847,-124.1183 117.2769,-124.1183 112.3707,-124.0595 107.4693,-123.9421 102.576,-123.7664 97.6946,-123.5329 92.829,-123.2423 87.9836,-122.8953 83.1635,-122.4928 78.3741,-122.036 73.6217,-121.5262 68.9133,-120.9647 64.2567,-120.353 59.6605,-119.6929 55.134,-118.9862 50.6876,-118.2347 46.3323,-117.4406 42.0801,-116.6061 37.9437,-115.7333 33.9366,-114.8248 30.073,-113.8829 26.3676,-112.9104 22.8358,-111.9097 19.4931,-110.8838 16.3558,-109.8354 13.44,-108.7673 10.7621,-107.6826 8.3382,-106.5841 6.1844,-105.4749 4.3165,-104.358 2.7495,-103.2365 1.498,-102.1135 .5757,-100.992 -.0046,-99.8751 -.2313,-98.7659 -.094,-97.6675 .4164,-96.5827 1.3072,-95.5146 2.5845,-94.4662 4.2523,-93.4403 6.313,-92.4397 8.7669,-91.4671 11.6124,-90.5252 14.846,-89.6167 18.462,-88.744 22.4526,-87.9094 26.8079,-87.1153 31.5159,-86.3638 36.5628,-85.6571 41.9325,-84.997 47.6072,-84.3854 53.567,-83.8238 59.7906,-83.314 66.2548,-82.8572 72.935,-82.4548 79.8053,-82.1077 86.8386,-81.8171 94.0066,-81.5836 101.2803,-81.4079 108.63,-81.2905 116.0254,-81.2317 123.4362,-81.2317 130.8317,-81.2905"/>
<text text-anchor="middle" x="119.7308" y="-105.675" font-family="Courier,monospace" font-weight="bold" font-size="10.00" fill="#000000">((&#45;1, &#39;SOURCE&#39;), 0)</text>
<text text-anchor="middle" x="119.7308" y="-94.675" font-family="Courier,monospace" font-weight="bold" font-size="10.00" fill="#000000">0.02193744412202885</text>
</g>
<!-- ((0, &#39;A&#39;), 0) -->
<g id="node3" class="node">
<title>((0, &#39;A&#39;), 0)</title>
<polygon fill="none" stroke="#000000" points="693.8034,-32.2905 701.1531,-32.4079 708.4268,-32.5836 715.5948,-32.8171 722.628,-33.1077 729.4983,-33.4548 736.1786,-33.8572 742.6428,-34.314 748.8664,-34.8238 754.8262,-35.3854 760.5009,-35.997 765.8706,-36.6571 770.9174,-37.3638 775.6255,-38.1153 779.9808,-38.9094 783.9713,-39.744 787.5873,-40.6167 790.8209,-41.5252 793.6665,-42.4671 796.1204,-43.4397 798.1811,-44.4403 799.8489,-45.4662 801.1261,-46.5146 802.017,-47.5827 802.5273,-48.6675 802.6646,-49.7659 802.4379,-50.8751 801.8576,-51.992 800.9354,-53.1135 799.6839,-54.2365 798.1169,-55.358 796.2489,-56.4749 794.0952,-57.5841 791.6713,-58.6826 788.9934,-59.7673 786.0776,-60.8354 782.9402,-61.8838 779.5976,-62.9097 776.0657,-63.9104 772.3604,-64.8829 768.4967,-65.8248 764.4897,-66.7333 760.3533,-67.6061 756.1011,-68.4406 751.7458,-69.2347 747.2994,-69.9862 742.7729,-70.6929 738.1767,-71.353 733.5201,-71.9647 728.8117,-72.5262 724.0593,-73.036 719.2699,-73.4928 714.4497,-73.8953 709.6044,-74.2423 704.7388,-74.5329 699.8573,-74.7664 694.9641,-74.9421 690.0627,-75.0595 685.1564,-75.1183 680.2486,-75.1183 675.3424,-75.0595 670.441,-74.9421 665.5477,-74.7664 660.6663,-74.5329 655.8007,-74.2423 650.9553,-73.8953 646.1352,-73.4928 641.3458,-73.036 636.5934,-72.5262 631.885,-71.9647 627.2284,-71.353 622.6322,-70.6929 618.1057,-69.9862 613.6593,-69.2347 609.304,-68.4406 605.0518,-67.6061 600.9154,-66.7333 596.9083,-65.8248 593.0447,-64.8829 589.3393,-63.9104 585.8075,-62.9097 582.4648,-61.8838 579.3275,-60.8354 576.4117,-59.7673 573.7338,-58.6826 571.3099,-57.5841 569.1561,-56.4749 567.2882,-55.358 565.7212,-54.2365 564.4697,-53.1135 563.5474,-51.992 562.9671,-50.8751 562.7404,-49.7659 562.8777,-48.6675 563.3881,-47.5827 564.2789,-46.5146 565.5562,-45.4662 567.224,-44.4403 569.2847,-43.4397 571.7386,-42.4671 574.5841,-41.5252 577.8178,-40.6167 581.4337,-39.744 585.4243,-38.9094 589.7796,-38.1153 594.4876,-37.3638 599.5345,-36.6571 604.9042,-35.997 610.5789,-35.3854 616.5387,-34.8238 622.7623,-34.314 629.2265,-33.8572 635.9067,-33.4548 642.777,-33.1077 649.8103,-32.8171 656.9783,-32.5836 664.252,-32.4079 671.6017,-32.2905 678.9971,-32.2317 686.4079,-32.2317 693.8034,-32.2905"/>
<text text-anchor="middle" x="682.7025" y="-56.675" font-family="Courier,monospace" font-weight="bold" font-size="10.00" fill="#000000">((0, &#39;A&#39;), 0)</text>
<text text-anchor="middle" x="682.7025" y="-45.675" font-family="Courier,monospace" font-weight="bold" font-size="10.00" fill="#000000">0.03763627156778639</text>
</g>
<!-- ((&#45;1, &#39;SOURCE&#39;), 0)&#45;&gt;((0, &#39;A&#39;), 0) -->
<g id="edge1" class="edge">
<title>((&#45;1, &#39;SOURCE&#39;), 0)&#45;&gt;((0, &#39;A&#39;), 0)</title>
<path fill="none" stroke="#000000" d="M199.0105,-85.1213C223.4165,-80.3342 250.4449,-75.6526 275.4617,-72.675 368.9787,-61.5444 475.2997,-56.8514 555.8508,-54.911"/>
<polygon fill="#000000" stroke="#000000" points="556.1249,-58.4057 566.0418,-54.6768 555.964,-51.4075 556.1249,-58.4057"/>
</g>
<!-- ((0, &#39;B&#39;), 0) -->
<g id="node4" class="node">
<title>((0, &#39;B&#39;), 0)</title>
<polygon fill="none" stroke="#000000" points="412.831,-141.2905 420.5206,-141.4079 428.1307,-141.5836 435.6302,-141.8171 442.9888,-142.1077 450.1769,-142.4548 457.1661,-142.8572 463.9292,-143.314 470.4407,-143.8238 476.6762,-144.3854 482.6133,-144.997 488.2313,-145.6571 493.5116,-146.3638 498.4375,-147.1153 502.9942,-147.9094 507.1693,-148.744 510.9525,-149.6167 514.3357,-150.5252 517.3129,-151.4671 519.8803,-152.4397 522.0363,-153.4403 523.7812,-154.4662 525.1176,-155.5146 526.0496,-156.5827 526.5835,-157.6675 526.7272,-158.7659 526.49,-159.8751 525.8829,-160.992 524.9179,-162.1135 523.6086,-163.2365 521.9691,-164.358 520.0148,-165.4749 517.7614,-166.5841 515.2254,-167.6826 512.4236,-168.7673 509.3729,-169.8354 506.0905,-170.8838 502.5933,-171.9097 498.8981,-172.9104 495.0213,-173.8829 490.979,-174.8248 486.7866,-175.7333 482.4589,-176.6061 478.01,-177.4406 473.4533,-178.2347 468.8012,-178.9862 464.0654,-179.6929 459.2566,-180.353 454.3846,-180.9647 449.4584,-181.5262 444.4863,-182.036 439.4754,-182.4928 434.4322,-182.8953 429.3628,-183.2423 424.2721,-183.5329 419.1649,-183.7664 414.0454,-183.9421 408.9172,-184.0595 403.7841,-184.1183 398.6493,-184.1183 393.5161,-184.0595 388.388,-183.9421 383.2684,-183.7664 378.1613,-183.5329 373.0706,-183.2423 368.0011,-182.8953 362.958,-182.4928 357.9471,-182.036 352.9749,-181.5262 348.0488,-180.9647 343.1768,-180.353 338.368,-179.6929 333.6321,-178.9862 328.9801,-178.2347 324.4233,-177.4406 319.9745,-176.6061 315.6468,-175.7333 311.4544,-174.8248 307.4121,-173.8829 303.5353,-172.9104 299.8401,-171.9097 296.3429,-170.8838 293.0604,-169.8354 290.0098,-168.7673 287.208,-167.6826 284.672,-166.5841 282.4186,-165.4749 280.4642,-164.358 278.8248,-163.2365 277.5154,-162.1135 276.5505,-160.992 275.9433,-159.8751 275.7062,-158.7659 275.8498,-157.6675 276.3838,-156.5827 277.3158,-155.5146 278.6522,-154.4662 280.3971,-153.4403 282.5531,-152.4397 285.1205,-151.4671 288.0977,-150.5252 291.4808,-149.6167 295.2641,-148.744 299.4392,-147.9094 303.9959,-147.1153 308.9217,-146.3638 314.202,-145.6571 319.8201,-144.997 325.7572,-144.3854 331.9927,-143.8238 338.5041,-143.314 345.2673,-142.8572 352.2565,-142.4548 359.4446,-142.1077 366.8031,-141.8171 374.3026,-141.5836 381.9128,-141.4079 389.6024,-141.2905 397.3399,-141.2317 405.0935,-141.2317 412.831,-141.2905"/>
<text text-anchor="middle" x="401.2167" y="-165.675" font-family="Courier,monospace" font-weight="bold" font-size="10.00" fill="#000000">((0, &#39;B&#39;), 0)</text>
<text text-anchor="middle" x="401.2167" y="-154.675" font-family="Courier,monospace" font-weight="bold" font-size="10.00" fill="#000000">0.011669288290689557</text>
</g>
<!-- ((&#45;1, &#39;SOURCE&#39;), 0)&#45;&gt;((0, &#39;B&#39;), 0) -->
<g id="edge2" class="edge">
<title>((&#45;1, &#39;SOURCE&#39;), 0)&#45;&gt;((0, &#39;B&#39;), 0)</title>
<path fill="none" stroke="#000000" d="M191.1255,-117.8931C226.7851,-125.4941 270.363,-134.7829 308.5669,-142.9263"/>
<polygon fill="#000000" stroke="#000000" points="308.1607,-146.4183 318.6706,-145.0799 309.62,-139.5721 308.1607,-146.4183"/>
</g>
<!-- ((0, &#39;B&#39;), 1) -->
<g id="node5" class="node">
<title>((0, &#39;B&#39;), 1)</title>
<polygon fill="none" stroke="#000000" points="412.3176,-81.2905 419.6672,-81.4079 426.9409,-81.5836 434.1089,-81.8171 441.1422,-82.1077 448.0125,-82.4548 454.6927,-82.8572 461.1569,-83.314 467.3805,-83.8238 473.3404,-84.3854 479.015,-84.997 484.3847,-85.6571 489.4316,-86.3638 494.1396,-87.1153 498.4949,-87.9094 502.4855,-88.744 506.1015,-89.6167 509.3351,-90.5252 512.1807,-91.4671 514.6346,-92.4397 516.6952,-93.4403 518.363,-94.4662 519.6403,-95.5146 520.5312,-96.5827 521.0415,-97.6675 521.1788,-98.7659 520.9521,-99.8751 520.3718,-100.992 519.4495,-102.1135 518.198,-103.2365 516.631,-104.358 514.7631,-105.4749 512.6093,-106.5841 510.1855,-107.6826 507.5075,-108.7673 504.5917,-109.8354 501.4544,-110.8838 498.1118,-111.9097 494.5799,-112.9104 490.8745,-113.8829 487.0109,-114.8248 483.0038,-115.7333 478.8674,-116.6061 474.6152,-117.4406 470.26,-118.2347 465.8135,-118.9862 461.287,-119.6929 456.6908,-120.353 452.0342,-120.9647 447.3258,-121.5262 442.5735,-122.036 437.7841,-122.4928 432.9639,-122.8953 428.1185,-123.2423 423.2529,-123.5329 418.3715,-123.7664 413.4783,-123.9421 408.5768,-124.0595 403.6706,-124.1183 398.7628,-124.1183 393.8565,-124.0595 388.9551,-123.9421 384.0619,-123.7664 379.1805,-123.5329 374.3148,-123.2423 369.4695,-122.8953 364.6493,-122.4928 359.8599,-122.036 355.1075,-121.5262 350.3992,-120.9647 345.7426,-120.353 341.1463,-119.6929 336.6198,-118.9862 332.1734,-118.2347 327.8181,-117.4406 323.5659,-116.6061 319.4296,-115.7333 315.4225,-114.8248 311.5589,-113.8829 307.8535,-112.9104 304.3216,-111.9097 300.979,-110.8838 297.8417,-109.8354 294.9259,-108.7673 292.2479,-107.6826 289.824,-106.5841 287.6703,-105.4749 285.8023,-104.358 284.2353,-103.2365 282.9839,-102.1135 282.0616,-100.992 281.4813,-99.8751 281.2546,-98.7659 281.3919,-97.6675 281.9022,-96.5827 282.7931,-95.5146 284.0703,-94.4662 285.7381,-93.4403 287.7988,-92.4397 290.2527,-91.4671 293.0983,-90.5252 296.3319,-89.6167 299.9479,-88.744 303.9384,-87.9094 308.2937,-87.1153 313.0018,-86.3638 318.0487,-85.6571 323.4184,-84.997 329.093,-84.3854 335.0529,-83.8238 341.2764,-83.314 347.7406,-82.8572 354.4209,-82.4548 361.2912,-82.1077 368.3244,-81.8171 375.4924,-81.5836 382.7661,-81.4079 390.1158,-81.2905 397.5113,-81.2317 404.9221,-81.2317 412.3176,-81.2905"/>
<text text-anchor="middle" x="401.2167" y="-105.675" font-family="Courier,monospace" font-weight="bold" font-size="10.00" fill="#000000">((0, &#39;B&#39;), 1)</text>
<text text-anchor="middle" x="401.2167" y="-94.675" font-family="Courier,monospace" font-weight="bold" font-size="10.00" fill="#000000">0.02582952175820652</text>
</g>
<!-- ((&#45;1, &#39;SOURCE&#39;), 0)&#45;&gt;((0, &#39;B&#39;), 1) -->
<g id="edge3" class="edge">
<title>((&#45;1, &#39;SOURCE&#39;), 0)&#45;&gt;((0, &#39;B&#39;), 1)</title>
<path fill="none" stroke="#000000" d="M237.4752,-102.675C249.3627,-102.675 261.4751,-102.675 273.4609,-102.675"/>
<polygon fill="#000000" stroke="#000000" points="273.4914,-106.1751 283.4914,-102.675 273.4914,-99.1751 273.4914,-106.1751"/>
</g>
<!-- ((1, &#39;A&#39;), 0) -->
<g id="node7" class="node">
<title>((1, &#39;A&#39;), 0)</title>
<polygon fill="none" stroke="#000000" points="1256.7751,-66.2905 1264.1248,-66.4079 1271.3985,-66.5836 1278.5665,-66.8171 1285.5997,-67.1077 1292.47,-67.4548 1299.1503,-67.8572 1305.6145,-68.314 1311.8381,-68.8238 1317.7979,-69.3854 1323.4726,-69.997 1328.8423,-70.6571 1333.8891,-71.3638 1338.5972,-72.1153 1342.9525,-72.9094 1346.943,-73.744 1350.559,-74.6167 1353.7926,-75.5252 1356.6382,-76.4671 1359.0921,-77.4397 1361.1528,-78.4403 1362.8206,-79.4662 1364.0979,-80.5146 1364.9887,-81.5827 1365.499,-82.6675 1365.6363,-83.7659 1365.4096,-84.8751 1364.8293,-85.992 1363.9071,-87.1135 1362.6556,-88.2365 1361.0886,-89.358 1359.2206,-90.4749 1357.0669,-91.5841 1354.643,-92.6826 1351.9651,-93.7673 1349.0493,-94.8354 1345.9119,-95.8838 1342.5693,-96.9097 1339.0374,-97.9104 1335.3321,-98.8829 1331.4684,-99.8248 1327.4614,-100.7333 1323.325,-101.6061 1319.0728,-102.4406 1314.7175,-103.2347 1310.2711,-103.9862 1305.7446,-104.6929 1301.1484,-105.353 1296.4918,-105.9647 1291.7834,-106.5262 1287.031,-107.036 1282.2416,-107.4928 1277.4215,-107.8953 1272.5761,-108.2423 1267.7105,-108.5329 1262.829,-108.7664 1257.9358,-108.9421 1253.0344,-109.0595 1248.1282,-109.1183 1243.2203,-109.1183 1238.3141,-109.0595 1233.4127,-108.9421 1228.5194,-108.7664 1223.638,-108.5329 1218.7724,-108.2423 1213.927,-107.8953 1209.1069,-107.4928 1204.3175,-107.036 1199.5651,-106.5262 1194.8567,-105.9647 1190.2001,-105.353 1185.6039,-104.6929 1181.0774,-103.9862 1176.631,-103.2347 1172.2757,-102.4406 1168.0235,-101.6061 1163.8871,-100.7333 1159.88,-99.8248 1156.0164,-98.8829 1152.311,-97.9104 1148.7792,-96.9097 1145.4366,-95.8838 1142.2992,-94.8354 1139.3834,-93.7673 1136.7055,-92.6826 1134.2816,-91.5841 1132.1278,-90.4749 1130.2599,-89.358 1128.6929,-88.2365 1127.4414,-87.1135 1126.5191,-85.992 1125.9388,-84.8751 1125.7121,-83.7659 1125.8494,-82.6675 1126.3598,-81.5827 1127.2506,-80.5146 1128.5279,-79.4662 1130.1957,-78.4403 1132.2564,-77.4397 1134.7103,-76.4671 1137.5558,-75.5252 1140.7895,-74.6167 1144.4054,-73.744 1148.396,-72.9094 1152.7513,-72.1153 1157.4593,-71.3638 1162.5062,-70.6571 1167.8759,-69.997 1173.5506,-69.3854 1179.5104,-68.8238 1185.734,-68.314 1192.1982,-67.8572 1198.8784,-67.4548 1205.7487,-67.1077 1212.782,-66.8171 1219.95,-66.5836 1227.2237,-66.4079 1234.5734,-66.2905 1241.9689,-66.2317 1249.3796,-66.2317 1256.7751,-66.2905"/>
<text text-anchor="middle" x="1245.6742" y="-90.675" font-family="Courier,monospace" font-weight="bold" font-size="10.00" fill="#000000">((1, &#39;A&#39;), 0)</text>
<text text-anchor="middle" x="1245.6742" y="-79.675" font-family="Courier,monospace" font-weight="bold" font-size="10.00" fill="#000000">0.06504764994935922</text>
</g>
<!-- ((0, &#39;A&#39;), 0)&#45;&gt;((1, &#39;A&#39;), 0) -->
<g id="edge4" class="edge">
<title>((0, &#39;A&#39;), 0)&#45;&gt;((1, &#39;A&#39;), 0)</title>
<path fill="none" stroke="#000000" d="M740.4246,-34.033C821.6025,-9.7692 972.6815,22.9458 1089.9434,-23.675 1110.3942,-31.8058 1106.6421,-47.1013 1125.9434,-57.675 1132.9581,-61.5178 1140.4724,-64.8778 1148.1916,-67.814"/>
<polygon fill="#000000" stroke="#000000" points="1147.0944,-71.1385 1157.6891,-71.1894 1149.4385,-64.5426 1147.0944,-71.1385"/>
</g>
<!-- ((1, &#39;B&#39;), 0) -->
<g id="node8" class="node">
<title>((1, &#39;B&#39;), 0)</title>
<polygon fill="none" stroke="#000000" points="975.8027,-92.2905 983.4923,-92.4079 991.1024,-92.5836 998.602,-92.8171 1005.9605,-93.1077 1013.1486,-93.4548 1020.1378,-93.8572 1026.901,-94.314 1033.4124,-94.8238 1039.6479,-95.3854 1045.585,-95.997 1051.2031,-96.6571 1056.4833,-97.3638 1061.4092,-98.1153 1065.9659,-98.9094 1070.141,-99.744 1073.9242,-100.6167 1077.3074,-101.5252 1080.2846,-102.4671 1082.852,-103.4397 1085.008,-104.4403 1086.7529,-105.4662 1088.0893,-106.5146 1089.0213,-107.5827 1089.5553,-108.6675 1089.6989,-109.7659 1089.4617,-110.8751 1088.8546,-111.992 1087.8896,-113.1135 1086.5803,-114.2365 1084.9408,-115.358 1082.9865,-116.4749 1080.7331,-117.5841 1078.1971,-118.6826 1075.3953,-119.7673 1072.3446,-120.8354 1069.0622,-121.8838 1065.565,-122.9097 1061.8698,-123.9104 1057.993,-124.8829 1053.9507,-125.8248 1049.7583,-126.7333 1045.4306,-127.6061 1040.9817,-128.4406 1036.425,-129.2347 1031.7729,-129.9862 1027.0371,-130.6929 1022.2283,-131.353 1017.3563,-131.9647 1012.4302,-132.5262 1007.458,-133.036 1002.4471,-133.4928 997.404,-133.8953 992.3345,-134.2423 987.2438,-134.5329 982.1366,-134.7664 977.0171,-134.9421 971.8889,-135.0595 966.7558,-135.1183 961.621,-135.1183 956.4878,-135.0595 951.3597,-134.9421 946.2401,-134.7664 941.133,-134.5329 936.0423,-134.2423 930.9728,-133.8953 925.9297,-133.4928 920.9188,-133.036 915.9466,-132.5262 911.0205,-131.9647 906.1485,-131.353 901.3397,-130.6929 896.6039,-129.9862 891.9518,-129.2347 887.395,-128.4406 882.9462,-127.6061 878.6185,-126.7333 874.4261,-125.8248 870.3838,-124.8829 866.507,-123.9104 862.8118,-122.9097 859.3146,-121.8838 856.0321,-120.8354 852.9815,-119.7673 850.1797,-118.6826 847.6437,-117.5841 845.3903,-116.4749 843.436,-115.358 841.7965,-114.2365 840.4871,-113.1135 839.5222,-111.992 838.9151,-110.8751 838.6779,-109.7659 838.8215,-108.6675 839.3555,-107.5827 840.2875,-106.5146 841.6239,-105.4662 843.3688,-104.4403 845.5248,-103.4397 848.0922,-102.4671 851.0694,-101.5252 854.4525,-100.6167 858.2358,-99.744 862.4109,-98.9094 866.9676,-98.1153 871.8934,-97.3638 877.1737,-96.6571 882.7918,-95.997 888.7289,-95.3854 894.9644,-94.8238 901.4758,-94.314 908.239,-93.8572 915.2282,-93.4548 922.4163,-93.1077 929.7748,-92.8171 937.2743,-92.5836 944.8845,-92.4079 952.5741,-92.2905 960.3116,-92.2317 968.0652,-92.2317 975.8027,-92.2905"/>
<text text-anchor="middle" x="964.1884" y="-116.675" font-family="Courier,monospace" font-weight="bold" font-size="10.00" fill="#000000">((1, &#39;B&#39;), 0)</text>
<text text-anchor="middle" x="964.1884" y="-105.675" font-family="Courier,monospace" font-weight="bold" font-size="10.00" fill="#000000">0.020653848703040052</text>
</g>
<!-- ((0, &#39;A&#39;), 0)&#45;&gt;((1, &#39;B&#39;), 0) -->
<g id="edge5" class="edge">
<title>((0, &#39;A&#39;), 0)&#45;&gt;((1, &#39;B&#39;), 0)</title>
<path fill="none" stroke="#000000" d="M754.0972,-68.8931C789.7568,-76.4941 833.3347,-85.7829 871.5386,-93.9263"/>
<polygon fill="#000000" stroke="#000000" points="871.1324,-97.4183 881.6423,-96.0799 872.5917,-90.5721 871.1324,-97.4183"/>
</g>
<!-- ((1, &#39;B&#39;), 1) -->
<g id="node9" class="node">
<title>((1, &#39;B&#39;), 1)</title>
<polygon fill="none" stroke="#000000" points="975.2893,-32.2905 982.639,-32.4079 989.9127,-32.5836 997.0806,-32.8171 1004.1139,-33.1077 1010.9842,-33.4548 1017.6644,-33.8572 1024.1286,-34.314 1030.3522,-34.8238 1036.3121,-35.3854 1041.9867,-35.997 1047.3564,-36.6571 1052.4033,-37.3638 1057.1114,-38.1153 1061.4666,-38.9094 1065.4572,-39.744 1069.0732,-40.6167 1072.3068,-41.5252 1075.1524,-42.4671 1077.6063,-43.4397 1079.6669,-44.4403 1081.3347,-45.4662 1082.612,-46.5146 1083.5029,-47.5827 1084.0132,-48.6675 1084.1505,-49.7659 1083.9238,-50.8751 1083.3435,-51.992 1082.4212,-53.1135 1081.1697,-54.2365 1079.6027,-55.358 1077.7348,-56.4749 1075.581,-57.5841 1073.1572,-58.6826 1070.4792,-59.7673 1067.5634,-60.8354 1064.4261,-61.8838 1061.0835,-62.9097 1057.5516,-63.9104 1053.8462,-64.8829 1049.9826,-65.8248 1045.9755,-66.7333 1041.8391,-67.6061 1037.587,-68.4406 1033.2317,-69.2347 1028.7852,-69.9862 1024.2588,-70.6929 1019.6625,-71.353 1015.0059,-71.9647 1010.2975,-72.5262 1005.5452,-73.036 1000.7558,-73.4928 995.9356,-73.8953 991.0902,-74.2423 986.2246,-74.5329 981.3432,-74.7664 976.45,-74.9421 971.5485,-75.0595 966.6423,-75.1183 961.7345,-75.1183 956.8282,-75.0595 951.9268,-74.9421 947.0336,-74.7664 942.1522,-74.5329 937.2866,-74.2423 932.4412,-73.8953 927.621,-73.4928 922.8316,-73.036 918.0792,-72.5262 913.3709,-71.9647 908.7143,-71.353 904.118,-70.6929 899.5915,-69.9862 895.1451,-69.2347 890.7898,-68.4406 886.5376,-67.6061 882.4013,-66.7333 878.3942,-65.8248 874.5306,-64.8829 870.8252,-63.9104 867.2933,-62.9097 863.9507,-61.8838 860.8134,-60.8354 857.8976,-59.7673 855.2196,-58.6826 852.7957,-57.5841 850.642,-56.4749 848.774,-55.358 847.2071,-54.2365 845.9556,-53.1135 845.0333,-51.992 844.453,-50.8751 844.2263,-49.7659 844.3636,-48.6675 844.8739,-47.5827 845.7648,-46.5146 847.042,-45.4662 848.7098,-44.4403 850.7705,-43.4397 853.2244,-42.4671 856.07,-41.5252 859.3036,-40.6167 862.9196,-39.744 866.9101,-38.9094 871.2654,-38.1153 875.9735,-37.3638 881.0204,-36.6571 886.3901,-35.997 892.0647,-35.3854 898.0246,-34.8238 904.2481,-34.314 910.7124,-33.8572 917.3926,-33.4548 924.2629,-33.1077 931.2961,-32.8171 938.4641,-32.5836 945.7378,-32.4079 953.0875,-32.2905 960.483,-32.2317 967.8938,-32.2317 975.2893,-32.2905"/>
<text text-anchor="middle" x="964.1884" y="-56.675" font-family="Courier,monospace" font-weight="bold" font-size="10.00" fill="#000000">((1, &#39;B&#39;), 1)</text>
<text text-anchor="middle" x="964.1884" y="-45.675" font-family="Courier,monospace" font-weight="bold" font-size="10.00" fill="#000000">0.04395949770190257</text>
</g>
<!-- ((0, &#39;A&#39;), 0)&#45;&gt;((1, &#39;B&#39;), 1) -->
<g id="edge6" class="edge">
<title>((0, &#39;A&#39;), 0)&#45;&gt;((1, &#39;B&#39;), 1)</title>
<path fill="none" stroke="#000000" d="M800.4469,-53.675C812.3344,-53.675 824.4468,-53.675 836.4326,-53.675"/>
<polygon fill="#000000" stroke="#000000" points="836.4632,-57.1751 846.4631,-53.675 836.4631,-50.1751 836.4632,-57.1751"/>
</g>
<!-- ((0, &#39;B&#39;), 0)&#45;&gt;((1, &#39;A&#39;), 0) -->
<g id="edge7" class="edge">
<title>((0, &#39;B&#39;), 0)&#45;&gt;((1, &#39;A&#39;), 0)</title>
<path fill="none" stroke="#000000" d="M508.5199,-170.1333C644.9591,-177.2453 887.1794,-181.9117 1089.9434,-143.675 1125.7381,-136.9249 1164.2731,-123.1263 1194.0555,-110.916"/>
<polygon fill="#000000" stroke="#000000" points="1195.5202,-114.0974 1203.403,-107.0183 1192.8262,-107.6365 1195.5202,-114.0974"/>
</g>
<!-- ((0, &#39;C&#39;), 0) -->
<g id="node6" class="node">
<title>((0, &#39;C&#39;), 0)</title>
<polygon fill="none" stroke="#000000" points="693.8034,-92.2905 701.1531,-92.4079 708.4268,-92.5836 715.5948,-92.8171 722.628,-93.1077 729.4983,-93.4548 736.1786,-93.8572 742.6428,-94.314 748.8664,-94.8238 754.8262,-95.3854 760.5009,-95.997 765.8706,-96.6571 770.9174,-97.3638 775.6255,-98.1153 779.9808,-98.9094 783.9713,-99.744 787.5873,-100.6167 790.8209,-101.5252 793.6665,-102.4671 796.1204,-103.4397 798.1811,-104.4403 799.8489,-105.4662 801.1261,-106.5146 802.017,-107.5827 802.5273,-108.6675 802.6646,-109.7659 802.4379,-110.8751 801.8576,-111.992 800.9354,-113.1135 799.6839,-114.2365 798.1169,-115.358 796.2489,-116.4749 794.0952,-117.5841 791.6713,-118.6826 788.9934,-119.7673 786.0776,-120.8354 782.9402,-121.8838 779.5976,-122.9097 776.0657,-123.9104 772.3604,-124.8829 768.4967,-125.8248 764.4897,-126.7333 760.3533,-127.6061 756.1011,-128.4406 751.7458,-129.2347 747.2994,-129.9862 742.7729,-130.6929 738.1767,-131.353 733.5201,-131.9647 728.8117,-132.5262 724.0593,-133.036 719.2699,-133.4928 714.4497,-133.8953 709.6044,-134.2423 704.7388,-134.5329 699.8573,-134.7664 694.9641,-134.9421 690.0627,-135.0595 685.1564,-135.1183 680.2486,-135.1183 675.3424,-135.0595 670.441,-134.9421 665.5477,-134.7664 660.6663,-134.5329 655.8007,-134.2423 650.9553,-133.8953 646.1352,-133.4928 641.3458,-133.036 636.5934,-132.5262 631.885,-131.9647 627.2284,-131.353 622.6322,-130.6929 618.1057,-129.9862 613.6593,-129.2347 609.304,-128.4406 605.0518,-127.6061 600.9154,-126.7333 596.9083,-125.8248 593.0447,-124.8829 589.3393,-123.9104 585.8075,-122.9097 582.4648,-121.8838 579.3275,-120.8354 576.4117,-119.7673 573.7338,-118.6826 571.3099,-117.5841 569.1561,-116.4749 567.2882,-115.358 565.7212,-114.2365 564.4697,-113.1135 563.5474,-111.992 562.9671,-110.8751 562.7404,-109.7659 562.8777,-108.6675 563.3881,-107.5827 564.2789,-106.5146 565.5562,-105.4662 567.224,-104.4403 569.2847,-103.4397 571.7386,-102.4671 574.5841,-101.5252 577.8178,-100.6167 581.4337,-99.744 585.4243,-98.9094 589.7796,-98.1153 594.4876,-97.3638 599.5345,-96.6571 604.9042,-95.997 610.5789,-95.3854 616.5387,-94.8238 622.7623,-94.314 629.2265,-93.8572 635.9067,-93.4548 642.777,-93.1077 649.8103,-92.8171 656.9783,-92.5836 664.252,-92.4079 671.6017,-92.2905 678.9971,-92.2317 686.4079,-92.2317 693.8034,-92.2905"/>
<text text-anchor="middle" x="682.7025" y="-116.675" font-family="Courier,monospace" font-weight="bold" font-size="10.00" fill="#000000">((0, &#39;C&#39;), 0)</text>
<text text-anchor="middle" x="682.7025" y="-105.675" font-family="Courier,monospace" font-weight="bold" font-size="10.00" fill="#000000">0.03695420921550302</text>
</g>
<!-- ((0, &#39;B&#39;), 1)&#45;&gt;((0, &#39;C&#39;), 0) -->
<g id="edge8" class="edge">
<title>((0, &#39;B&#39;), 1)&#45;&gt;((0, &#39;C&#39;), 0)</title>
<path fill="none" stroke="#000000" d="M512.0633,-107.0067C525.3039,-107.5241 538.9145,-108.056 552.3968,-108.5829"/>
<polygon fill="#000000" stroke="#000000" points="552.5443,-112.0912 562.6734,-108.9845 552.8177,-105.0966 552.5443,-112.0912"/>
</g>
<!-- ((0, &#39;C&#39;), 0)&#45;&gt;((1, &#39;B&#39;), 0) -->
<g id="edge9" class="edge">
<title>((0, &#39;C&#39;), 0)&#45;&gt;((1, &#39;B&#39;), 0)</title>
<path fill="none" stroke="#000000" d="M800.4469,-113.675C810.503,-113.675 820.7201,-113.675 830.8853,-113.675"/>
<polygon fill="#000000" stroke="#000000" points="831.0254,-117.1751 841.0253,-113.675 831.0253,-110.1751 831.0254,-117.1751"/>
</g>
<!-- ((0, &#39;C&#39;), 0)&#45;&gt;((1, &#39;B&#39;), 1) -->
<g id="edge10" class="edge">
<title>((0, &#39;C&#39;), 0)&#45;&gt;((1, &#39;B&#39;), 1)</title>
<path fill="none" stroke="#000000" d="M764.1199,-96.3205C801.5316,-88.346 845.7887,-78.9124 883.1536,-70.9479"/>
<polygon fill="#000000" stroke="#000000" points="883.945,-74.358 892.9956,-68.8501 882.4857,-67.5118 883.945,-74.358"/>
</g>
<!-- ((2, &#39;A&#39;), 0) -->
<g id="node11" class="node">
<title>((2, &#39;A&#39;), 0)</title>
<polygon fill="none" stroke="#000000" points="1531.7239,-121.2905 1538.734,-121.4079 1545.6716,-121.5836 1552.5084,-121.8171 1559.2167,-122.1077 1565.7695,-122.4548 1572.1411,-122.8572 1578.3066,-123.314 1584.2427,-123.8238 1589.9271,-124.3854 1595.3396,-124.997 1600.4612,-125.6571 1605.2749,-126.3638 1609.7654,-127.1153 1613.9195,-127.9094 1617.7257,-128.744 1621.1746,-129.6167 1624.2588,-130.5252 1626.9729,-131.4671 1629.3134,-132.4397 1631.2788,-133.4403 1632.8696,-134.4662 1634.0878,-135.5146 1634.9375,-136.5827 1635.4243,-137.6675 1635.5552,-138.7659 1635.339,-139.8751 1634.7855,-140.992 1633.9059,-142.1135 1632.7122,-143.2365 1631.2176,-144.358 1629.436,-145.4749 1627.3817,-146.5841 1625.0698,-147.6826 1622.5156,-148.7673 1619.7345,-149.8354 1616.7422,-150.8838 1613.554,-151.9097 1610.1853,-152.9104 1606.6511,-153.8829 1602.966,-154.8248 1599.1441,-155.7333 1595.1989,-156.6061 1591.1431,-157.4406 1586.9891,-158.2347 1582.7481,-158.9862 1578.4308,-159.6929 1574.0469,-160.353 1569.6054,-160.9647 1565.1146,-161.5262 1560.5818,-162.036 1556.0137,-162.4928 1551.4163,-162.8953 1546.7948,-163.2423 1542.154,-163.5329 1537.4981,-163.7664 1532.8309,-163.9421 1528.156,-164.0595 1523.4764,-164.1183 1518.7954,-164.1183 1514.1158,-164.0595 1509.4409,-163.9421 1504.7737,-163.7664 1500.1178,-163.5329 1495.477,-163.2423 1490.8556,-162.8953 1486.2581,-162.4928 1481.69,-162.036 1477.1572,-161.5262 1472.6664,-160.9647 1468.2249,-160.353 1463.841,-159.6929 1459.5237,-158.9862 1455.2827,-158.2347 1451.1287,-157.4406 1447.0729,-156.6061 1443.1277,-155.7333 1439.3058,-154.8248 1435.6207,-153.8829 1432.0865,-152.9104 1428.7178,-151.9097 1425.5296,-150.8838 1422.5373,-149.8354 1419.7562,-148.7673 1417.202,-147.6826 1414.8901,-146.5841 1412.8358,-145.4749 1411.0542,-144.358 1409.5596,-143.2365 1408.366,-142.1135 1407.4863,-140.992 1406.9328,-139.8751 1406.7166,-138.7659 1406.8475,-137.6675 1407.3343,-136.5827 1408.184,-135.5146 1409.4022,-134.4662 1410.993,-133.4403 1412.9584,-132.4397 1415.2989,-131.4671 1418.013,-130.5252 1421.0973,-129.6167 1424.5462,-128.744 1428.3523,-127.9094 1432.5064,-127.1153 1436.9969,-126.3638 1441.8106,-125.6571 1446.9322,-124.997 1452.3447,-124.3854 1458.0291,-123.8238 1463.9652,-123.314 1470.1307,-122.8572 1476.5023,-122.4548 1483.0551,-122.1077 1489.7634,-121.8171 1496.6002,-121.5836 1503.5378,-121.4079 1510.5479,-121.2905 1517.6017,-121.2317 1524.6701,-121.2317 1531.7239,-121.2905"/>
<text text-anchor="middle" x="1521.1359" y="-145.675" font-family="Courier,monospace" font-weight="bold" font-size="10.00" fill="#000000">((2, &#39;A&#39;), 0)</text>
<text text-anchor="middle" x="1521.1359" y="-134.675" font-family="Courier,monospace" font-weight="bold" font-size="10.00" fill="#000000">0.3008722054879951</text>
</g>
<!-- ((1, &#39;A&#39;), 0)&#45;&gt;((2, &#39;A&#39;), 0) -->
<g id="edge11" class="edge">
<title>((1, &#39;A&#39;), 0)&#45;&gt;((2, &#39;A&#39;), 0)</title>
<path fill="none" stroke="#000000" d="M1319.4929,-102.414C1352.997,-109.1036 1392.9844,-117.0877 1428.4819,-124.1753"/>
<polygon fill="#000000" stroke="#000000" points="1427.874,-127.6229 1438.3658,-126.1487 1429.2447,-120.7584 1427.874,-127.6229"/>
</g>
<!-- ((2, &#39;B&#39;), 0) -->
<g id="node12" class="node">
<title>((2, &#39;B&#39;), 0)</title>
<polygon fill="none" stroke="#000000" points="1532.2368,-1.2905 1539.5865,-1.4079 1546.8602,-1.5836 1554.0282,-1.8171 1561.0614,-2.1077 1567.9317,-2.4548 1574.6119,-2.8572 1581.0761,-3.314 1587.2997,-3.8238 1593.2596,-4.3854 1598.9342,-4.997 1604.3039,-5.6571 1609.3508,-6.3638 1614.0589,-7.1153 1618.4141,-7.9094 1622.4047,-8.744 1626.0207,-9.6167 1629.2543,-10.5252 1632.0999,-11.4671 1634.5538,-12.4397 1636.6144,-13.4403 1638.2823,-14.4662 1639.5595,-15.5146 1640.4504,-16.5827 1640.9607,-17.6675 1641.098,-18.7659 1640.8713,-19.8751 1640.291,-20.992 1639.3687,-22.1135 1638.1172,-23.2365 1636.5503,-24.358 1634.6823,-25.4749 1632.5286,-26.5841 1630.1047,-27.6826 1627.4267,-28.7673 1624.5109,-29.8354 1621.3736,-30.8838 1618.031,-31.9097 1614.4991,-32.9104 1610.7937,-33.8829 1606.9301,-34.8248 1602.923,-35.7333 1598.7867,-36.6061 1594.5345,-37.4406 1590.1792,-38.2347 1585.7327,-38.9862 1581.2063,-39.6929 1576.61,-40.353 1571.9534,-40.9647 1567.2451,-41.5262 1562.4927,-42.036 1557.7033,-42.4928 1552.8831,-42.8953 1548.0377,-43.2423 1543.1721,-43.5329 1538.2907,-43.7664 1533.3975,-43.9421 1528.496,-44.0595 1523.5898,-44.1183 1518.682,-44.1183 1513.7758,-44.0595 1508.8743,-43.9421 1503.9811,-43.7664 1499.0997,-43.5329 1494.2341,-43.2423 1489.3887,-42.8953 1484.5685,-42.4928 1479.7791,-42.036 1475.0268,-41.5262 1470.3184,-40.9647 1465.6618,-40.353 1461.0655,-39.6929 1456.5391,-38.9862 1452.0926,-38.2347 1447.7373,-37.4406 1443.4851,-36.6061 1439.3488,-35.7333 1435.3417,-34.8248 1431.4781,-33.8829 1427.7727,-32.9104 1424.2408,-31.9097 1420.8982,-30.8838 1417.7609,-29.8354 1414.8451,-28.7673 1412.1671,-27.6826 1409.7433,-26.5841 1407.5895,-25.4749 1405.7215,-24.358 1404.1546,-23.2365 1402.9031,-22.1135 1401.9808,-20.992 1401.4005,-19.8751 1401.1738,-18.7659 1401.3111,-17.6675 1401.8214,-16.5827 1402.7123,-15.5146 1403.9896,-14.4662 1405.6574,-13.4403 1407.718,-12.4397 1410.1719,-11.4671 1413.0175,-10.5252 1416.2511,-9.6167 1419.8671,-8.744 1423.8577,-7.9094 1428.2129,-7.1153 1432.921,-6.3638 1437.9679,-5.6571 1443.3376,-4.997 1449.0122,-4.3854 1454.9721,-3.8238 1461.1957,-3.314 1467.6599,-2.8572 1474.3401,-2.4548 1481.2104,-2.1077 1488.2436,-1.8171 1495.4116,-1.5836 1502.6853,-1.4079 1510.035,-1.2905 1517.4305,-1.2317 1524.8413,-1.2317 1532.2368,-1.2905"/>
<text text-anchor="middle" x="1521.1359" y="-25.675" font-family="Courier,monospace" font-weight="bold" font-size="10.00" fill="#000000">((2, &#39;B&#39;), 0)</text>
<text text-anchor="middle" x="1521.1359" y="-14.675" font-family="Courier,monospace" font-weight="bold" font-size="10.00" fill="#000000">0.06864658258991009</text>
</g>
<!-- ((1, &#39;A&#39;), 0)&#45;&gt;((2, &#39;B&#39;), 0) -->
<g id="edge12" class="edge">
<title>((1, &#39;A&#39;), 0)&#45;&gt;((2, &#39;B&#39;), 0)</title>
<path fill="none" stroke="#000000" d="M1321.6745,-69.7414C1359.6826,-60.7727 1405.5985,-49.9381 1443.7905,-40.926"/>
<polygon fill="#000000" stroke="#000000" points="1444.9041,-44.2594 1453.833,-38.5563 1443.2965,-37.4465 1444.9041,-44.2594"/>
</g>
<!-- ((2, &#39;B&#39;), 1) -->
<g id="node13" class="node">
<title>((2, &#39;B&#39;), 1)</title>
<polygon fill="none" stroke="#000000" points="1532.2368,-61.2905 1539.5865,-61.4079 1546.8602,-61.5836 1554.0282,-61.8171 1561.0614,-62.1077 1567.9317,-62.4548 1574.6119,-62.8572 1581.0761,-63.314 1587.2997,-63.8238 1593.2596,-64.3854 1598.9342,-64.997 1604.3039,-65.6571 1609.3508,-66.3638 1614.0589,-67.1153 1618.4141,-67.9094 1622.4047,-68.744 1626.0207,-69.6167 1629.2543,-70.5252 1632.0999,-71.4671 1634.5538,-72.4397 1636.6144,-73.4403 1638.2823,-74.4662 1639.5595,-75.5146 1640.4504,-76.5827 1640.9607,-77.6675 1641.098,-78.7659 1640.8713,-79.8751 1640.291,-80.992 1639.3687,-82.1135 1638.1172,-83.2365 1636.5503,-84.358 1634.6823,-85.4749 1632.5286,-86.5841 1630.1047,-87.6826 1627.4267,-88.7673 1624.5109,-89.8354 1621.3736,-90.8838 1618.031,-91.9097 1614.4991,-92.9104 1610.7937,-93.8829 1606.9301,-94.8248 1602.923,-95.7333 1598.7867,-96.6061 1594.5345,-97.4406 1590.1792,-98.2347 1585.7327,-98.9862 1581.2063,-99.6929 1576.61,-100.353 1571.9534,-100.9647 1567.2451,-101.5262 1562.4927,-102.036 1557.7033,-102.4928 1552.8831,-102.8953 1548.0377,-103.2423 1543.1721,-103.5329 1538.2907,-103.7664 1533.3975,-103.9421 1528.496,-104.0595 1523.5898,-104.1183 1518.682,-104.1183 1513.7758,-104.0595 1508.8743,-103.9421 1503.9811,-103.7664 1499.0997,-103.5329 1494.2341,-103.2423 1489.3887,-102.8953 1484.5685,-102.4928 1479.7791,-102.036 1475.0268,-101.5262 1470.3184,-100.9647 1465.6618,-100.353 1461.0655,-99.6929 1456.5391,-98.9862 1452.0926,-98.2347 1447.7373,-97.4406 1443.4851,-96.6061 1439.3488,-95.7333 1435.3417,-94.8248 1431.4781,-93.8829 1427.7727,-92.9104 1424.2408,-91.9097 1420.8982,-90.8838 1417.7609,-89.8354 1414.8451,-88.7673 1412.1671,-87.6826 1409.7433,-86.5841 1407.5895,-85.4749 1405.7215,-84.358 1404.1546,-83.2365 1402.9031,-82.1135 1401.9808,-80.992 1401.4005,-79.8751 1401.1738,-78.7659 1401.3111,-77.6675 1401.8214,-76.5827 1402.7123,-75.5146 1403.9896,-74.4662 1405.6574,-73.4403 1407.718,-72.4397 1410.1719,-71.4671 1413.0175,-70.5252 1416.2511,-69.6167 1419.8671,-68.744 1423.8577,-67.9094 1428.2129,-67.1153 1432.921,-66.3638 1437.9679,-65.6571 1443.3376,-64.997 1449.0122,-64.3854 1454.9721,-63.8238 1461.1957,-63.314 1467.6599,-62.8572 1474.3401,-62.4548 1481.2104,-62.1077 1488.2436,-61.8171 1495.4116,-61.5836 1502.6853,-61.4079 1510.035,-61.2905 1517.4305,-61.2317 1524.8413,-61.2317 1532.2368,-61.2905"/>
<text text-anchor="middle" x="1521.1359" y="-85.675" font-family="Courier,monospace" font-weight="bold" font-size="10.00" fill="#000000">((2, &#39;B&#39;), 1)</text>
<text text-anchor="middle" x="1521.1359" y="-74.675" font-family="Courier,monospace" font-weight="bold" font-size="10.00" fill="#000000">0.24111005033726257</text>
</g>
<!-- ((1, &#39;A&#39;), 0)&#45;&gt;((2, &#39;B&#39;), 1) -->
<g id="edge13" class="edge">
<title>((1, &#39;A&#39;), 0)&#45;&gt;((2, &#39;B&#39;), 1)</title>
<path fill="none" stroke="#000000" d="M1365.294,-85.5038C1375.4212,-85.3199 1385.6815,-85.1337 1395.8504,-84.9491"/>
<polygon fill="#000000" stroke="#000000" points="1396.0459,-88.4462 1405.9807,-84.7652 1395.9188,-81.4474 1396.0459,-88.4462"/>
</g>
<!-- ((1, &#39;B&#39;), 0)&#45;&gt;((2, &#39;A&#39;), 0) -->
<g id="edge14" class="edge">
<title>((1, &#39;B&#39;), 0)&#45;&gt;((2, &#39;A&#39;), 0)</title>
<path fill="none" stroke="#000000" d="M1076.2251,-119.5087C1169.0305,-124.341 1300.7908,-131.2017 1396.8299,-136.2025"/>
<polygon fill="#000000" stroke="#000000" points="1396.7201,-139.7014 1406.8886,-136.7262 1397.0842,-132.7109 1396.7201,-139.7014"/>
</g>
<!-- ((1, &#39;C&#39;), 0) -->
<g id="node10" class="node">
<title>((1, &#39;C&#39;), 0)</title>
<polygon fill="none" stroke="#000000" points="1256.7751,-6.2905 1264.1248,-6.4079 1271.3985,-6.5836 1278.5665,-6.8171 1285.5997,-7.1077 1292.47,-7.4548 1299.1503,-7.8572 1305.6145,-8.314 1311.8381,-8.8238 1317.7979,-9.3854 1323.4726,-9.997 1328.8423,-10.6571 1333.8891,-11.3638 1338.5972,-12.1153 1342.9525,-12.9094 1346.943,-13.744 1350.559,-14.6167 1353.7926,-15.5252 1356.6382,-16.4671 1359.0921,-17.4397 1361.1528,-18.4403 1362.8206,-19.4662 1364.0979,-20.5146 1364.9887,-21.5827 1365.499,-22.6675 1365.6363,-23.7659 1365.4096,-24.8751 1364.8293,-25.992 1363.9071,-27.1135 1362.6556,-28.2365 1361.0886,-29.358 1359.2206,-30.4749 1357.0669,-31.5841 1354.643,-32.6826 1351.9651,-33.7673 1349.0493,-34.8354 1345.9119,-35.8838 1342.5693,-36.9097 1339.0374,-37.9104 1335.3321,-38.8829 1331.4684,-39.8248 1327.4614,-40.7333 1323.325,-41.6061 1319.0728,-42.4406 1314.7175,-43.2347 1310.2711,-43.9862 1305.7446,-44.6929 1301.1484,-45.353 1296.4918,-45.9647 1291.7834,-46.5262 1287.031,-47.036 1282.2416,-47.4928 1277.4215,-47.8953 1272.5761,-48.2423 1267.7105,-48.5329 1262.829,-48.7664 1257.9358,-48.9421 1253.0344,-49.0595 1248.1282,-49.1183 1243.2203,-49.1183 1238.3141,-49.0595 1233.4127,-48.9421 1228.5194,-48.7664 1223.638,-48.5329 1218.7724,-48.2423 1213.927,-47.8953 1209.1069,-47.4928 1204.3175,-47.036 1199.5651,-46.5262 1194.8567,-45.9647 1190.2001,-45.353 1185.6039,-44.6929 1181.0774,-43.9862 1176.631,-43.2347 1172.2757,-42.4406 1168.0235,-41.6061 1163.8871,-40.7333 1159.88,-39.8248 1156.0164,-38.8829 1152.311,-37.9104 1148.7792,-36.9097 1145.4366,-35.8838 1142.2992,-34.8354 1139.3834,-33.7673 1136.7055,-32.6826 1134.2816,-31.5841 1132.1278,-30.4749 1130.2599,-29.358 1128.6929,-28.2365 1127.4414,-27.1135 1126.5191,-25.992 1125.9388,-24.8751 1125.7121,-23.7659 1125.8494,-22.6675 1126.3598,-21.5827 1127.2506,-20.5146 1128.5279,-19.4662 1130.1957,-18.4403 1132.2564,-17.4397 1134.7103,-16.4671 1137.5558,-15.5252 1140.7895,-14.6167 1144.4054,-13.744 1148.396,-12.9094 1152.7513,-12.1153 1157.4593,-11.3638 1162.5062,-10.6571 1167.8759,-9.997 1173.5506,-9.3854 1179.5104,-8.8238 1185.734,-8.314 1192.1982,-7.8572 1198.8784,-7.4548 1205.7487,-7.1077 1212.782,-6.8171 1219.95,-6.5836 1227.2237,-6.4079 1234.5734,-6.2905 1241.9689,-6.2317 1249.3796,-6.2317 1256.7751,-6.2905"/>
<text text-anchor="middle" x="1245.6742" y="-30.675" font-family="Courier,monospace" font-weight="bold" font-size="10.00" fill="#000000">((1, &#39;C&#39;), 0)</text>
<text text-anchor="middle" x="1245.6742" y="-19.675" font-family="Courier,monospace" font-weight="bold" font-size="10.00" fill="#000000">0.06289270433620792</text>
</g>
<!-- ((1, &#39;B&#39;), 1)&#45;&gt;((1, &#39;C&#39;), 0) -->
<g id="edge15" class="edge">
<title>((1, &#39;B&#39;), 1)&#45;&gt;((1, &#39;C&#39;), 0)</title>
<path fill="none" stroke="#000000" d="M1077.4627,-43.2122C1097.4581,-41.3653 1118.2231,-39.4473 1138.0575,-37.6152"/>
<polygon fill="#000000" stroke="#000000" points="1138.3869,-41.0998 1148.0226,-36.6948 1137.7431,-34.1295 1138.3869,-41.0998"/>
</g>
<!-- ((1, &#39;C&#39;), 0)&#45;&gt;((2, &#39;B&#39;), 0) -->
<g id="edge16" class="edge">
<title>((1, &#39;C&#39;), 0)&#45;&gt;((2, &#39;B&#39;), 0)</title>
<path fill="none" stroke="#000000" d="M1365.294,-25.5038C1375.4212,-25.3199 1385.6815,-25.1337 1395.8504,-24.9491"/>
<polygon fill="#000000" stroke="#000000" points="1396.0459,-28.4462 1405.9807,-24.7652 1395.9188,-21.4474 1396.0459,-28.4462"/>
</g>
<!-- ((1, &#39;C&#39;), 0)&#45;&gt;((2, &#39;B&#39;), 1) -->
<g id="edge17" class="edge">
<title>((1, &#39;C&#39;), 0)&#45;&gt;((2, &#39;B&#39;), 1)</title>
<path fill="none" stroke="#000000" d="M1319.4929,-42.414C1352.2736,-48.9592 1391.2607,-56.7435 1426.1765,-63.715"/>
<polygon fill="#000000" stroke="#000000" points="1425.8957,-67.2279 1436.3874,-65.7537 1427.2663,-60.3634 1425.8957,-67.2279"/>
</g>
<!-- ((3, &#39;A&#39;), 0) -->
<g id="node15" class="node">
<title>((3, &#39;A&#39;), 0)</title>
<polygon fill="none" stroke="#000000" points="1799.2558,-1.2905 1804.5058,-1.4079 1809.7014,-1.5836 1814.8216,-1.8171 1819.8455,-2.1077 1824.753,-2.4548 1829.5247,-2.8572 1834.1421,-3.314 1838.5877,-3.8238 1842.8448,-4.3854 1846.8983,-4.997 1850.7339,-5.6571 1854.3389,-6.3638 1857.7019,-7.1153 1860.8129,-7.9094 1863.6634,-8.744 1866.2463,-9.6167 1868.5561,-10.5252 1870.5887,-11.4671 1872.3416,-12.4397 1873.8135,-13.4403 1875.0049,-14.4662 1875.9172,-15.5146 1876.5536,-16.5827 1876.9181,-17.6675 1877.0162,-18.7659 1876.8542,-19.8751 1876.4397,-20.992 1875.7809,-22.1135 1874.887,-23.2365 1873.7677,-24.358 1872.4334,-25.4749 1870.8949,-26.5841 1869.1636,-27.6826 1867.2507,-28.7673 1865.1679,-29.8354 1862.9269,-30.8838 1860.5392,-31.9097 1858.0164,-32.9104 1855.3696,-33.8829 1852.6098,-34.8248 1849.7475,-35.7333 1846.7929,-36.6061 1843.7555,-37.4406 1840.6445,-38.2347 1837.4684,-38.9862 1834.2351,-39.6929 1830.9519,-40.353 1827.6257,-40.9647 1824.2625,-41.5262 1820.8678,-42.036 1817.4467,-42.4928 1814.0036,-42.8953 1810.5426,-43.2423 1807.067,-43.5329 1803.5802,-43.7664 1800.0849,-43.9421 1796.5838,-44.0595 1793.0792,-44.1183 1789.5735,-44.1183 1786.069,-44.0595 1782.5679,-43.9421 1779.0726,-43.7664 1775.5858,-43.5329 1772.1102,-43.2423 1768.6491,-42.8953 1765.2061,-42.4928 1761.785,-42.036 1758.3903,-41.5262 1755.0271,-40.9647 1751.7008,-40.353 1748.4177,-39.6929 1745.1844,-38.9862 1742.0083,-38.2347 1738.8973,-37.4406 1735.8599,-36.6061 1732.9053,-35.7333 1730.043,-34.8248 1727.2832,-33.8829 1724.6364,-32.9104 1722.1136,-31.9097 1719.7259,-30.8838 1717.4849,-29.8354 1715.4021,-28.7673 1713.4892,-27.6826 1711.7578,-26.5841 1710.2194,-25.4749 1708.8851,-24.358 1707.7658,-23.2365 1706.8719,-22.1135 1706.2131,-20.992 1705.7986,-19.8751 1705.6366,-18.7659 1705.7347,-17.6675 1706.0992,-16.5827 1706.7356,-15.5146 1707.6479,-14.4662 1708.8393,-13.4403 1710.3112,-12.4397 1712.0641,-11.4671 1714.0967,-10.5252 1716.4065,-9.6167 1718.9894,-8.744 1721.8399,-7.9094 1724.9509,-7.1153 1728.3139,-6.3638 1731.9189,-5.6571 1735.7545,-4.997 1739.808,-4.3854 1744.0651,-3.8238 1748.5107,-3.314 1753.1281,-2.8572 1757.8998,-2.4548 1762.8073,-2.1077 1767.8312,-1.8171 1772.9514,-1.5836 1778.147,-1.4079 1783.397,-1.2905 1788.6796,-1.2317 1793.9732,-1.2317 1799.2558,-1.2905"/>
<text text-anchor="middle" x="1791.3264" y="-25.675" font-family="Courier,monospace" font-weight="bold" font-size="10.00" fill="#000000">((3, &#39;A&#39;), 0)</text>
<text text-anchor="middle" x="1791.3264" y="-14.675" font-family="Courier,monospace" font-weight="bold" font-size="10.00" fill="#000000">1.0</text>
</g>
<!-- ((2, &#39;A&#39;), 0)&#45;&gt;((3, &#39;A&#39;), 0) -->
<g id="edge18" class="edge">
<title>((2, &#39;A&#39;), 0)&#45;&gt;((3, &#39;A&#39;), 0)</title>
<path fill="none" stroke="#000000" d="M1613.1471,-127.6967C1623.0347,-123.7857 1632.5177,-118.8646 1640.8667,-112.675 1665.8488,-94.1546 1651.9853,-71.3304 1676.8667,-52.675 1687.2792,-44.8681 1699.5476,-39.0878 1712.1158,-34.8093"/>
<polygon fill="#000000" stroke="#000000" points="1713.2432,-38.1243 1721.7595,-31.8216 1711.1716,-31.4378 1713.2432,-38.1243"/>
</g>
<!-- ((3, &#39;B&#39;), 0) -->
<g id="node16" class="node">
<title>((3, &#39;B&#39;), 0)</title>
<polygon fill="none" stroke="#000000" points="2064.1751,-61.2905 2069.4251,-61.4079 2074.6207,-61.5836 2079.7409,-61.8171 2084.7648,-62.1077 2089.6723,-62.4548 2094.444,-62.8572 2099.0615,-63.314 2103.507,-63.8238 2107.7642,-64.3854 2111.8176,-64.997 2115.6532,-65.6571 2119.2582,-66.3638 2122.6212,-67.1153 2125.7322,-67.9094 2128.5827,-68.744 2131.1657,-69.6167 2133.4754,-70.5252 2135.5081,-71.4671 2137.2609,-72.4397 2138.7328,-73.4403 2139.9242,-74.4662 2140.8365,-75.5146 2141.4729,-76.5827 2141.8374,-77.6675 2141.9355,-78.7659 2141.7736,-79.8751 2141.359,-80.992 2140.7002,-82.1135 2139.8063,-83.2365 2138.687,-84.358 2137.3527,-85.4749 2135.8143,-86.5841 2134.0829,-87.6826 2132.17,-88.7673 2130.0872,-89.8354 2127.8462,-90.8838 2125.4585,-91.9097 2122.9357,-92.9104 2120.2889,-93.8829 2117.5291,-94.8248 2114.6668,-95.7333 2111.7122,-96.6061 2108.6748,-97.4406 2105.5638,-98.2347 2102.3877,-98.9862 2099.1544,-99.6929 2095.8713,-100.353 2092.545,-100.9647 2089.1818,-101.5262 2085.7872,-102.036 2082.3661,-102.4928 2078.923,-102.8953 2075.4619,-103.2423 2071.9863,-103.5329 2068.4995,-103.7664 2065.0042,-103.9421 2061.5031,-104.0595 2057.9986,-104.1183 2054.4929,-104.1183 2050.9883,-104.0595 2047.4872,-103.9421 2043.9919,-103.7664 2040.5051,-103.5329 2037.0295,-103.2423 2033.5685,-102.8953 2030.1254,-102.4928 2026.7043,-102.036 2023.3096,-101.5262 2019.9464,-100.9647 2016.6202,-100.353 2013.337,-99.6929 2010.1037,-98.9862 2006.9276,-98.2347 2003.8166,-97.4406 2000.7792,-96.6061 1997.8246,-95.7333 1994.9623,-94.8248 1992.2025,-93.8829 1989.5557,-92.9104 1987.0329,-91.9097 1984.6452,-90.8838 1982.4042,-89.8354 1980.3214,-88.7673 1978.4086,-87.6826 1976.6772,-86.5841 1975.1387,-85.4749 1973.8044,-84.358 1972.6851,-83.2365 1971.7912,-82.1135 1971.1324,-80.992 1970.7179,-79.8751 1970.5559,-78.7659 1970.654,-77.6675 1971.0186,-76.5827 1971.6549,-75.5146 1972.5673,-74.4662 1973.7586,-73.4403 1975.2305,-72.4397 1976.9834,-71.4671 1979.016,-70.5252 1981.3258,-69.6167 1983.9087,-68.744 1986.7592,-67.9094 1989.8702,-67.1153 1993.2332,-66.3638 1996.8382,-65.6571 2000.6738,-64.997 2004.7273,-64.3854 2008.9844,-63.8238 2013.43,-63.314 2018.0474,-62.8572 2022.8191,-62.4548 2027.7267,-62.1077 2032.7506,-61.8171 2037.8707,-61.5836 2043.0663,-61.4079 2048.3163,-61.2905 2053.5989,-61.2317 2058.8925,-61.2317 2064.1751,-61.2905"/>
<text text-anchor="middle" x="2056.2457" y="-85.675" font-family="Courier,monospace" font-weight="bold" font-size="10.00" fill="#000000">((3, &#39;B&#39;), 0)</text>
<text text-anchor="middle" x="2056.2457" y="-74.675" font-family="Courier,monospace" font-weight="bold" font-size="10.00" fill="#000000">1.0</text>
</g>
<!-- ((2, &#39;A&#39;), 0)&#45;&gt;((3, &#39;B&#39;), 0) -->
<g id="edge19" class="edge">
<title>((2, &#39;A&#39;), 0)&#45;&gt;((3, &#39;B&#39;), 0)</title>
<path fill="none" stroke="#000000" d="M1635.5482,-137.3241C1712.2506,-132.8608 1815.3818,-125.1681 1905.7861,-112.675 1932.9223,-108.925 1962.5391,-103.3461 1988.2636,-98.013"/>
<polygon fill="#000000" stroke="#000000" points="1989.2205,-101.3884 1998.2872,-95.907 1987.7811,-94.538 1989.2205,-101.3884"/>
</g>
<!-- ((3, &#39;B&#39;), 1) -->
<g id="node17" class="node">
<title>((3, &#39;B&#39;), 1)</title>
<polygon fill="none" stroke="#000000" points="2066.8337,-121.2905 2073.8438,-121.4079 2080.7814,-121.5836 2087.6182,-121.8171 2094.3265,-122.1077 2100.8794,-122.4548 2107.2509,-122.8572 2113.4165,-123.314 2119.3525,-123.8238 2125.037,-124.3854 2130.4494,-124.997 2135.571,-125.6571 2140.3847,-126.3638 2144.8752,-127.1153 2149.0293,-127.9094 2152.8355,-128.744 2156.2844,-129.6167 2159.3686,-130.5252 2162.0827,-131.4671 2164.4232,-132.4397 2166.3886,-133.4403 2167.9794,-134.4662 2169.1976,-135.5146 2170.0473,-136.5827 2170.5341,-137.6675 2170.6651,-138.7659 2170.4488,-139.8751 2169.8953,-140.992 2169.0157,-142.1135 2167.822,-143.2365 2166.3274,-144.358 2164.5458,-145.4749 2162.4915,-146.5841 2160.1797,-147.6826 2157.6254,-148.7673 2154.8444,-149.8354 2151.852,-150.8838 2148.6638,-151.9097 2145.2951,-152.9104 2141.761,-153.8829 2138.0759,-154.8248 2134.2539,-155.7333 2130.3087,-156.6061 2126.2529,-157.4406 2122.0989,-158.2347 2117.8579,-158.9862 2113.5406,-159.6929 2109.1567,-160.353 2104.7152,-160.9647 2100.2244,-161.5262 2095.6916,-162.036 2091.1235,-162.4928 2086.5261,-162.8953 2081.9046,-163.2423 2077.2638,-163.5329 2072.6079,-163.7664 2067.9407,-163.9421 2063.2658,-164.0595 2058.5862,-164.1183 2053.9052,-164.1183 2049.2256,-164.0595 2044.5507,-163.9421 2039.8835,-163.7664 2035.2277,-163.5329 2030.5869,-163.2423 2025.9654,-162.8953 2021.3679,-162.4928 2016.7998,-162.036 2012.267,-161.5262 2007.7762,-160.9647 2003.3347,-160.353 1998.9509,-159.6929 1994.6335,-158.9862 1990.3925,-158.2347 1986.2385,-157.4406 1982.1828,-156.6061 1978.2375,-155.7333 1974.4156,-154.8248 1970.7305,-153.8829 1967.1963,-152.9104 1963.8276,-151.9097 1960.6394,-150.8838 1957.6471,-149.8354 1954.866,-148.7673 1952.3118,-147.6826 1949.9999,-146.5841 1947.9456,-145.4749 1946.164,-144.358 1944.6694,-143.2365 1943.4758,-142.1135 1942.5961,-140.992 1942.0426,-139.8751 1941.8264,-138.7659 1941.9573,-137.6675 1942.4441,-136.5827 1943.2938,-135.5146 1944.512,-134.4662 1946.1028,-133.4403 1948.0682,-132.4397 1950.4088,-131.4671 1953.1229,-130.5252 1956.2071,-129.6167 1959.656,-128.744 1963.4621,-127.9094 1967.6162,-127.1153 1972.1067,-126.3638 1976.9204,-125.6571 1982.042,-124.997 1987.4545,-124.3854 1993.139,-123.8238 1999.075,-123.314 2005.2405,-122.8572 2011.6121,-122.4548 2018.165,-122.1077 2024.8732,-121.8171 2031.71,-121.5836 2038.6476,-121.4079 2045.6578,-121.2905 2052.7115,-121.2317 2059.7799,-121.2317 2066.8337,-121.2905"/>
<text text-anchor="middle" x="2056.2457" y="-145.675" font-family="Courier,monospace" font-weight="bold" font-size="10.00" fill="#000000">((3, &#39;B&#39;), 1)</text>
<text text-anchor="middle" x="2056.2457" y="-134.675" font-family="Courier,monospace" font-weight="bold" font-size="10.00" fill="#000000">0.6989602079584083</text>
</g>
<!-- ((2, &#39;A&#39;), 0)&#45;&gt;((3, &#39;B&#39;), 1) -->
<g id="edge20" class="edge">
<title>((2, &#39;A&#39;), 0)&#45;&gt;((3, &#39;B&#39;), 1)</title>
<path fill="none" stroke="#000000" d="M1630.465,-145.0472C1646.0396,-145.3076 1661.8593,-145.5305 1676.8667,-145.675 1778.6039,-146.6549 1804.0492,-146.6892 1905.7861,-145.675 1915.8831,-145.5744 1926.3607,-145.4357 1936.8739,-145.2729"/>
<polygon fill="#000000" stroke="#000000" points="1937.0111,-148.7712 1946.9531,-145.1097 1936.8978,-141.7721 1937.0111,-148.7712"/>
</g>
<!-- ((2, &#39;B&#39;), 0)&#45;&gt;((3, &#39;A&#39;), 0) -->
<g id="edge21" class="edge">
<title>((2, &#39;B&#39;), 0)&#45;&gt;((3, &#39;A&#39;), 0)</title>
<path fill="none" stroke="#000000" d="M1638.8594,-22.675C1658.3875,-22.675 1678.4081,-22.675 1697.2521,-22.675"/>
<polygon fill="#000000" stroke="#000000" points="1697.2887,-26.1751 1707.2886,-22.675 1697.2886,-19.1751 1697.2887,-26.1751"/>
</g>
<!-- ((2, &#39;C&#39;), 0) -->
<g id="node14" class="node">
<title>((2, &#39;C&#39;), 0)</title>
<polygon fill="none" stroke="#000000" points="1801.9144,-61.2905 1808.9245,-61.4079 1815.8621,-61.5836 1822.6989,-61.8171 1829.4072,-62.1077 1835.96,-62.4548 1842.3316,-62.8572 1848.4971,-63.314 1854.4332,-63.8238 1860.1176,-64.3854 1865.5301,-64.997 1870.6517,-65.6571 1875.4654,-66.3638 1879.9559,-67.1153 1884.11,-67.9094 1887.9161,-68.744 1891.365,-69.6167 1894.4493,-70.5252 1897.1633,-71.4671 1899.5039,-72.4397 1901.4693,-73.4403 1903.0601,-74.4662 1904.2783,-75.5146 1905.128,-76.5827 1905.6148,-77.6675 1905.7457,-78.7659 1905.5295,-79.8751 1904.976,-80.992 1904.0963,-82.1135 1902.9027,-83.2365 1901.4081,-84.358 1899.6265,-85.4749 1897.5722,-86.5841 1895.2603,-87.6826 1892.7061,-88.7673 1889.925,-89.8354 1886.9327,-90.8838 1883.7445,-91.9097 1880.3758,-92.9104 1876.8416,-93.8829 1873.1565,-94.8248 1869.3346,-95.7333 1865.3893,-96.6061 1861.3336,-97.4406 1857.1796,-98.2347 1852.9386,-98.9862 1848.6212,-99.6929 1844.2374,-100.353 1839.7959,-100.9647 1835.3051,-101.5262 1830.7723,-102.036 1826.2042,-102.4928 1821.6067,-102.8953 1816.9852,-103.2423 1812.3444,-103.5329 1807.6886,-103.7664 1803.0214,-103.9421 1798.3465,-104.0595 1793.6669,-104.1183 1788.9859,-104.1183 1784.3063,-104.0595 1779.6314,-103.9421 1774.9642,-103.7664 1770.3083,-103.5329 1765.6675,-103.2423 1761.046,-102.8953 1756.4486,-102.4928 1751.8805,-102.036 1747.3477,-101.5262 1742.8569,-100.9647 1738.4154,-100.353 1734.0315,-99.6929 1729.7142,-98.9862 1725.4732,-98.2347 1721.3192,-97.4406 1717.2634,-96.6061 1713.3182,-95.7333 1709.4963,-94.8248 1705.8112,-93.8829 1702.277,-92.9104 1698.9083,-91.9097 1695.7201,-90.8838 1692.7278,-89.8354 1689.9467,-88.7673 1687.3924,-87.6826 1685.0806,-86.5841 1683.0263,-85.4749 1681.2447,-84.358 1679.7501,-83.2365 1678.5564,-82.1135 1677.6768,-80.992 1677.1233,-79.8751 1676.9071,-78.7659 1677.038,-77.6675 1677.5248,-76.5827 1678.3745,-75.5146 1679.5927,-74.4662 1681.1835,-73.4403 1683.1489,-72.4397 1685.4894,-71.4671 1688.2035,-70.5252 1691.2877,-69.6167 1694.7366,-68.744 1698.5428,-67.9094 1702.6969,-67.1153 1707.1874,-66.3638 1712.0011,-65.6571 1717.1227,-64.997 1722.5351,-64.3854 1728.2196,-63.8238 1734.1557,-63.314 1740.3212,-62.8572 1746.6928,-62.4548 1753.2456,-62.1077 1759.9539,-61.8171 1766.7907,-61.5836 1773.7283,-61.4079 1780.7384,-61.2905 1787.7922,-61.2317 1794.8606,-61.2317 1801.9144,-61.2905"/>
<text text-anchor="middle" x="1791.3264" y="-85.675" font-family="Courier,monospace" font-weight="bold" font-size="10.00" fill="#000000">((2, &#39;C&#39;), 0)</text>
<text text-anchor="middle" x="1791.3264" y="-74.675" font-family="Courier,monospace" font-weight="bold" font-size="10.00" fill="#000000">0.3449553316368617</text>
</g>
<!-- ((2, &#39;B&#39;), 1)&#45;&gt;((2, &#39;C&#39;), 0) -->
<g id="edge22" class="edge">
<title>((2, &#39;B&#39;), 1)&#45;&gt;((2, &#39;C&#39;), 0)</title>
<path fill="none" stroke="#000000" d="M1638.8594,-82.675C1648.8851,-82.675 1659.0406,-82.675 1669.1,-82.675"/>
<polygon fill="#000000" stroke="#000000" points="1669.1192,-86.1751 1679.1191,-82.675 1669.1191,-79.1751 1669.1192,-86.1751"/>
</g>
<!-- ((2, &#39;C&#39;), 0)&#45;&gt;((3, &#39;B&#39;), 0) -->
<g id="edge23" class="edge">
<title>((2, &#39;C&#39;), 0)&#45;&gt;((3, &#39;B&#39;), 0)</title>
<path fill="none" stroke="#000000" d="M1903.676,-82.675C1923.0414,-82.675 1942.9938,-82.675 1961.8254,-82.675"/>
<polygon fill="#000000" stroke="#000000" points="1961.8604,-86.1751 1971.8604,-82.675 1961.8603,-79.1751 1961.8604,-86.1751"/>
</g>
<!-- ((2, &#39;C&#39;), 0)&#45;&gt;((3, &#39;B&#39;), 1) -->
<g id="edge24" class="edge">
<title>((2, &#39;C&#39;), 0)&#45;&gt;((3, &#39;B&#39;), 1)</title>
<path fill="none" stroke="#000000" d="M1858.8622,-97.9708C1892.4921,-105.5874 1933.5398,-114.8841 1969.4749,-123.0228"/>
<polygon fill="#000000" stroke="#000000" points="1968.9383,-126.4899 1979.4644,-125.2853 1970.4846,-119.6628 1968.9383,-126.4899"/>
</g>
<!-- ((3, &#39;A&#39;), 0)&#45;&gt;((&#45;1, &#39;SINK&#39;), 0) -->
<g id="edge25" class="edge">
<title>((3, &#39;A&#39;), 0)&#45;&gt;((&#45;1, &#39;SINK&#39;), 0)</title>
<path fill="none" stroke="#000000" d="M1867.6359,-28.5723C1944.254,-34.5258 2065.6774,-44.0484 2170.7054,-52.675 2249.9689,-59.1854 2339.2433,-66.7944 2408.0683,-72.7202"/>
<polygon fill="#000000" stroke="#000000" points="2407.8072,-76.2106 2418.0708,-73.582 2408.4081,-69.2365 2407.8072,-76.2106"/>
</g>
<!-- ((3, &#39;B&#39;), 0)&#45;&gt;((&#45;1, &#39;SINK&#39;), 0) -->
<g id="edge26" class="edge">
<title>((3, &#39;B&#39;), 0)&#45;&gt;((&#45;1, &#39;SINK&#39;), 0)</title>
<path fill="none" stroke="#000000" d="M2140.4705,-82.675C2214.6787,-82.675 2323.5128,-82.675 2406.1093,-82.675"/>
<polygon fill="#000000" stroke="#000000" points="2406.3031,-86.1751 2416.303,-82.675 2406.303,-79.1751 2406.3031,-86.1751"/>
</g>
<!-- ((3, &#39;C&#39;), 0) -->
<g id="node18" class="node">
<title>((3, &#39;C&#39;), 0)</title>
<polygon fill="none" stroke="#000000" points="2300.4796,-115.2905 2305.7295,-115.4079 2310.9251,-115.5836 2316.0453,-115.8171 2321.0692,-116.1077 2325.9767,-116.4548 2330.7484,-116.8572 2335.3659,-117.314 2339.8114,-117.8238 2344.0686,-118.3854 2348.122,-118.997 2351.9576,-119.6571 2355.5626,-120.3638 2358.9256,-121.1153 2362.0367,-121.9094 2364.8871,-122.744 2367.4701,-123.6167 2369.7799,-124.5252 2371.8125,-125.4671 2373.5653,-126.4397 2375.0373,-127.4403 2376.2286,-128.4662 2377.1409,-129.5146 2377.7773,-130.5827 2378.1418,-131.6675 2378.2399,-132.7659 2378.078,-133.8751 2377.6634,-134.992 2377.0047,-136.1135 2376.1107,-137.2365 2374.9914,-138.358 2373.6571,-139.4749 2372.1187,-140.5841 2370.3873,-141.6826 2368.4744,-142.7673 2366.3916,-143.8354 2364.1506,-144.8838 2361.763,-145.9097 2359.2401,-146.9104 2356.5933,-147.8829 2353.8335,-148.8248 2350.9712,-149.7333 2348.0166,-150.6061 2344.9792,-151.4406 2341.8682,-152.2347 2338.6921,-152.9862 2335.4588,-153.6929 2332.1757,-154.353 2328.8494,-154.9647 2325.4862,-155.5262 2322.0916,-156.036 2318.6705,-156.4928 2315.2274,-156.8953 2311.7663,-157.2423 2308.2908,-157.5329 2304.8039,-157.7664 2301.3086,-157.9421 2297.8075,-158.0595 2294.303,-158.1183 2290.7973,-158.1183 2287.2927,-158.0595 2283.7916,-157.9421 2280.2963,-157.7664 2276.8095,-157.5329 2273.334,-157.2423 2269.8729,-156.8953 2266.4298,-156.4928 2263.0087,-156.036 2259.614,-155.5262 2256.2508,-154.9647 2252.9246,-154.353 2249.6414,-153.6929 2246.4081,-152.9862 2243.232,-152.2347 2240.121,-151.4406 2237.0836,-150.6061 2234.129,-149.7333 2231.2667,-148.8248 2228.5069,-147.8829 2225.8601,-146.9104 2223.3373,-145.9097 2220.9496,-144.8838 2218.7086,-143.8354 2216.6259,-142.7673 2214.713,-141.6826 2212.9816,-140.5841 2211.4431,-139.4749 2210.1088,-138.358 2208.9895,-137.2365 2208.0956,-136.1135 2207.4368,-134.992 2207.0223,-133.8751 2206.8604,-132.7659 2206.9584,-131.6675 2207.323,-130.5827 2207.9593,-129.5146 2208.8717,-128.4662 2210.063,-127.4403 2211.5349,-126.4397 2213.2878,-125.4671 2215.3204,-124.5252 2217.6302,-123.6167 2220.2131,-122.744 2223.0636,-121.9094 2226.1746,-121.1153 2229.5376,-120.3638 2233.1426,-119.6571 2236.9782,-118.997 2241.0317,-118.3854 2245.2888,-117.8238 2249.7344,-117.314 2254.3518,-116.8572 2259.1236,-116.4548 2264.0311,-116.1077 2269.055,-115.8171 2274.1751,-115.5836 2279.3708,-115.4079 2284.6207,-115.2905 2289.9033,-115.2317 2295.1969,-115.2317 2300.4796,-115.2905"/>
<text text-anchor="middle" x="2292.5501" y="-139.675" font-family="Courier,monospace" font-weight="bold" font-size="10.00" fill="#000000">((3, &#39;C&#39;), 0)</text>
<text text-anchor="middle" x="2292.5501" y="-128.675" font-family="Courier,monospace" font-weight="bold" font-size="10.00" fill="#000000">1.0</text>
</g>
<!-- ((3, &#39;B&#39;), 1)&#45;&gt;((3, &#39;C&#39;), 0) -->
<g id="edge27" class="edge">
<title>((3, &#39;B&#39;), 1)&#45;&gt;((3, &#39;C&#39;), 0)</title>
<path fill="none" stroke="#000000" d="M2170.5909,-139.7717C2180.5585,-139.5186 2190.5623,-139.2646 2200.3181,-139.0169"/>
<polygon fill="#000000" stroke="#000000" points="2200.4751,-142.5141 2210.383,-138.7613 2200.2973,-135.5164 2200.4751,-142.5141"/>
</g>
<!-- ((3, &#39;C&#39;), 0)&#45;&gt;((&#45;1, &#39;SINK&#39;), 0) -->
<g id="edge28" class="edge">
<title>((3, &#39;C&#39;), 0)&#45;&gt;((&#45;1, &#39;SINK&#39;), 0)</title>
<path fill="none" stroke="#000000" d="M2359.1567,-121.056C2386.9614,-114.5359 2419.3879,-106.9319 2448.0099,-100.2202"/>
<polygon fill="#000000" stroke="#000000" points="2449.0245,-103.5773 2457.9614,-97.8866 2447.4264,-96.7621 2449.0245,-103.5773"/>
</g>
</g>
</svg>
