<?xml version="1.0" encoding="UTF-8" standalone="no"?>
<!DOCTYPE svg PUBLIC "-//W3C//DTD SVG 1.1//EN"
 "http://www.w3.org/Graphics/SVG/1.1/DTD/svg11.dtd">
<!-- Generated by graphviz version 2.40.1 (0)
 -->
<!-- Title: G Pages: 1 -->
<svg width="349pt" height="178pt"
 viewBox="0.00 0.00 349.00 178.00" xmlns="http://www.w3.org/2000/svg" xmlns:xlink="http://www.w3.org/1999/xlink">
<g id="graph0" class="graph" transform="scale(1 1) rotate(0) translate(4 174)">
<title>G</title>
<polygon fill="#ffffff" stroke="transparent" points="-4,4 -4,-174 345,-174 345,4 -4,4"/>
<!-- N1 -->
<g id="node1" class="node">
<title>N1</title>
<ellipse fill="none" stroke="#000000" cx="326.5" cy="-155.5" rx="14.5" ry="14.5"/>
<text text-anchor="middle" x="326.5" y="-153" font-family="Courier,monospace" font-weight="bold" font-size="10.00" fill="#000000">N1</text>
</g>
<!-- N2 -->
<g id="node2" class="node">
<title>N2</title>
<ellipse fill="none" stroke="#000000" cx="125.5" cy="-108.5" rx="14.5" ry="14.5"/>
<text text-anchor="middle" x="125.5" y="-106" font-family="Courier,monospace" font-weight="bold" font-size="10.00" fill="#000000">N2</text>
</g>
<!-- N2&#45;&#45;N1 -->
<g id="edge7" class="edge">
<title>N2&#45;&#45;N1</title>
<path fill="none" stroke="#000000" d="M138.4894,-115.3833C144.3226,-118.24 151.3718,-121.3765 158,-123.5 213.2954,-141.2152 282.118,-150.5093 311.7767,-153.9327"/>
<text text-anchor="middle" x="226" y="-153.5" font-family="Courier,monospace" font-weight="bold" font-size="10.00" fill="#000000">2.3333333333333335</text>
</g>
<!-- v5 -->
<g id="node8" class="node">
<title>v5</title>
<ellipse fill="none" stroke="#000000" cx="326.5" cy="-108.5" rx="14.5" ry="14.5"/>
<text text-anchor="middle" x="326.5" y="-106" font-family="Courier,monospace" font-weight="bold" font-size="10.00" fill="#000000">v5</text>
</g>
<!-- N2&#45;&#45;v5 -->
<g id="edge6" class="edge">
<title>N2&#45;&#45;v5</title>
<path fill="none" stroke="#000000" d="M140.28,-108.5C177.5417,-108.5 274.9778,-108.5 311.9694,-108.5"/>
<text text-anchor="middle" x="226" y="-111.5" font-family="Courier,monospace" font-weight="bold" font-size="10.00" fill="#000000">7.166666666666666</text>
</g>
<!-- N3 -->
<g id="node3" class="node">
<title>N3</title>
<ellipse fill="none" stroke="#000000" cx="125.5" cy="-61.5" rx="14.5" ry="14.5"/>
<text text-anchor="middle" x="125.5" y="-59" font-family="Courier,monospace" font-weight="bold" font-size="10.00" fill="#000000">N3</text>
</g>
<!-- v1 -->
<g id="node6" class="node">
<title>v1</title>
<ellipse fill="none" stroke="#000000" cx="326.5" cy="-61.5" rx="14.5" ry="14.5"/>
<text text-anchor="middle" x="326.5" y="-59" font-family="Courier,monospace" font-weight="bold" font-size="10.00" fill="#000000">v1</text>
</g>
<!-- N3&#45;&#45;v1 -->
<g id="edge4" class="edge">
<title>N3&#45;&#45;v1</title>
<path fill="none" stroke="#000000" d="M140.28,-61.5C177.5417,-61.5 274.9778,-61.5 311.9694,-61.5"/>
<text text-anchor="middle" x="226" y="-64.5" font-family="Courier,monospace" font-weight="bold" font-size="10.00" fill="#000000">2.0</text>
</g>
<!-- v2 -->
<g id="node7" class="node">
<title>v2</title>
<ellipse fill="none" stroke="#000000" cx="326.5" cy="-14.5" rx="14.5" ry="14.5"/>
<text text-anchor="middle" x="326.5" y="-12" font-family="Courier,monospace" font-weight="bold" font-size="10.00" fill="#000000">v2</text>
</g>
<!-- N3&#45;&#45;v2 -->
<g id="edge5" class="edge">
<title>N3&#45;&#45;v2</title>
<path fill="none" stroke="#000000" d="M138.4894,-54.6167C144.3226,-51.76 151.3718,-48.6235 158,-46.5 213.2954,-28.7848 282.118,-19.4907 311.7767,-16.0673"/>
<text text-anchor="middle" x="226" y="-49.5" font-family="Courier,monospace" font-weight="bold" font-size="10.00" fill="#000000">10.0</text>
</g>
<!-- N4 -->
<g id="node4" class="node">
<title>N4</title>
<ellipse fill="none" stroke="#000000" cx="14.5" cy="-61.5" rx="14.5" ry="14.5"/>
<text text-anchor="middle" x="14.5" y="-59" font-family="Courier,monospace" font-weight="bold" font-size="10.00" fill="#000000">N4</text>
</g>
<!-- N4&#45;&#45;N2 -->
<g id="edge1" class="edge">
<title>N4&#45;&#45;N2</title>
<path fill="none" stroke="#000000" d="M27.7213,-67.767C33.5974,-70.5096 40.6161,-73.7273 47,-76.5 69.5434,-86.2912 96.0806,-96.9256 111.8075,-103.1364"/>
<text text-anchor="middle" x="70" y="-97.5" font-family="Courier,monospace" font-weight="bold" font-size="10.00" fill="#000000">3.375</text>
</g>
<!-- N4&#45;&#45;N3 -->
<g id="edge3" class="edge">
<title>N4&#45;&#45;N3</title>
<path fill="none" stroke="#000000" d="M29.0113,-61.5C50.2844,-61.5 89.71,-61.5 110.9851,-61.5"/>
<text text-anchor="middle" x="70" y="-64.5" font-family="Courier,monospace" font-weight="bold" font-size="10.00" fill="#000000">0.375</text>
</g>
<!-- v0 -->
<g id="node5" class="node">
<title>v0</title>
<ellipse fill="none" stroke="#000000" cx="125.5" cy="-14.5" rx="14.5" ry="14.5"/>
<text text-anchor="middle" x="125.5" y="-12" font-family="Courier,monospace" font-weight="bold" font-size="10.00" fill="#000000">v0</text>
</g>
<!-- N4&#45;&#45;v0 -->
<g id="edge2" class="edge">
<title>N4&#45;&#45;v0</title>
<path fill="none" stroke="#000000" d="M27.7213,-55.233C33.5974,-52.4904 40.6161,-49.2727 47,-46.5 69.5434,-36.7088 96.0806,-26.0744 111.8075,-19.8636"/>
<text text-anchor="middle" x="70" y="-49.5" font-family="Courier,monospace" font-weight="bold" font-size="10.00" fill="#000000">11.625</text>
</g>
</g>
</svg>
