<?xml version="1.0" encoding="UTF-8" standalone="no"?>
<!DOCTYPE svg PUBLIC "-//W3C//DTD SVG 1.1//EN"
 "http://www.w3.org/Graphics/SVG/1.1/DTD/svg11.dtd">
<!-- Generated by graphviz version 2.40.1 (0)
 -->
<!-- Title: G Pages: 1 -->
<svg width="1600pt" height="236pt"
 viewBox="0.00 0.00 1599.55 236.00" xmlns="http://www.w3.org/2000/svg" xmlns:xlink="http://www.w3.org/1999/xlink">
<g id="graph0" class="graph" transform="scale(1 1) rotate(0) translate(4 232)">
<title>G</title>
<polygon fill="#ffffff" stroke="transparent" points="-4,4 -4,-232 1595.5507,-232 1595.5507,4 -4,4"/>
<!-- (&#45;1, &#39;D,0,1&#39;) -->
<g id="node1" class="node">
<title>(&#45;1, &#39;D,0,1&#39;)</title>
<polygon fill="none" stroke="#000000" points="415.0059,-46.0493 419.3823,-46.1479 423.7133,-46.2953 427.9815,-46.4913 432.1694,-46.7353 436.2603,-47.0266 440.238,-47.3645 444.087,-47.7479 447.7928,-48.1759 451.3416,-48.6472 454.7205,-49.1606 457.9179,-49.7147 460.923,-50.308 463.7264,-50.9388 466.3197,-51.6054 468.6959,-52.3059 470.849,-53.0385 472.7744,-53.8012 474.4688,-54.5918 475.93,-55.4082 477.157,-56.2481 478.1501,-57.1093 478.9106,-57.9894 479.441,-58.886 479.7449,-59.7965 479.8267,-60.7186 479.6917,-61.6497 479.3461,-62.5873 478.797,-63.5287 478.0518,-64.4713 477.1188,-65.4127 476.0065,-66.3503 474.724,-67.2814 473.2808,-68.2035 471.6862,-69.114 469.95,-70.0106 468.0819,-70.8907 466.0916,-71.7519 463.9885,-72.5918 461.7822,-73.4082 459.4816,-74.1988 457.0956,-74.9615 454.6327,-75.6941 452.1007,-76.3946 449.5074,-77.0612 446.8598,-77.692 444.1645,-78.2853 441.4277,-78.8394 438.655,-79.3528 435.8514,-79.8241 433.0216,-80.2521 430.1698,-80.6355 427.2997,-80.9734 424.4145,-81.2647 421.5173,-81.5087 418.6107,-81.7047 415.6971,-81.8521 412.7785,-81.9507 409.8572,-82 406.9348,-82 404.0134,-81.9507 401.0949,-81.8521 398.1813,-81.7047 395.2747,-81.5087 392.3775,-81.2647 389.4923,-80.9734 386.6222,-80.6355 383.7704,-80.2521 380.9406,-79.8241 378.137,-79.3528 375.3643,-78.8394 372.6275,-78.2853 369.9322,-77.692 367.2846,-77.0612 364.6913,-76.3946 362.1593,-75.6941 359.6964,-74.9615 357.3104,-74.1988 355.0098,-73.4082 352.8035,-72.5918 350.7004,-71.7519 348.7101,-70.8907 346.842,-70.0106 345.1058,-69.114 343.5112,-68.2035 342.0679,-67.2814 340.7855,-66.3503 339.6732,-65.4127 338.7402,-64.4713 337.995,-63.5287 337.4458,-62.5873 337.1003,-61.6497 336.9653,-60.7186 337.0471,-59.7965 337.3509,-58.886 337.8814,-57.9894 338.6419,-57.1093 339.635,-56.2481 340.862,-55.4082 342.3232,-54.5918 344.0176,-53.8012 345.943,-53.0385 348.0961,-52.3059 350.4723,-51.6054 353.0656,-50.9388 355.869,-50.308 358.8741,-49.7147 362.0715,-49.1606 365.4504,-48.6472 368.9992,-48.1759 372.705,-47.7479 376.554,-47.3645 380.5317,-47.0266 384.6226,-46.7353 388.8105,-46.4913 393.0786,-46.2953 397.4097,-46.1479 401.7861,-46.0493 406.1896,-46 410.6023,-46 415.0059,-46.0493"/>
<text text-anchor="middle" x="408.396" y="-61.5" font-family="Courier,monospace" font-weight="bold" font-size="10.00" fill="#000000">(&#45;1, &#39;D,0,1&#39;)</text>
</g>
<!-- (0, &#39;I,1,1&#39;) -->
<g id="node6" class="node">
<title>(0, &#39;I,1,1&#39;)</title>
<polygon fill="none" stroke="#000000" points="751.5756,-46.0493 755.6899,-46.1479 759.7617,-46.2953 763.7743,-46.4913 767.7115,-46.7353 771.5574,-47.0266 775.297,-47.3645 778.9156,-47.7479 782.3996,-48.1759 785.7359,-48.6472 788.9125,-49.1606 791.9185,-49.7147 794.7437,-50.308 797.3792,-50.9388 799.8173,-51.6054 802.0512,-52.3059 804.0754,-53.0385 805.8856,-53.8012 807.4785,-54.5918 808.8522,-55.4082 810.0058,-56.2481 810.9394,-57.1093 811.6544,-57.9894 812.1531,-58.886 812.4388,-59.7965 812.5156,-60.7186 812.3887,-61.6497 812.0639,-62.5873 811.5476,-63.5287 810.847,-64.4713 809.9698,-65.4127 808.9242,-66.3503 807.7185,-67.2814 806.3616,-68.2035 804.8625,-69.114 803.2303,-70.0106 801.474,-70.8907 799.6028,-71.7519 797.6257,-72.5918 795.5514,-73.4082 793.3886,-74.1988 791.1454,-74.9615 788.8299,-75.6941 786.4496,-76.3946 784.0115,-77.0612 781.5224,-77.692 778.9885,-78.2853 776.4155,-78.8394 773.8088,-79.3528 771.173,-79.8241 768.5127,-80.2521 765.8316,-80.6355 763.1333,-80.9734 760.4209,-81.2647 757.6971,-81.5087 754.9645,-81.7047 752.2253,-81.8521 749.4815,-81.9507 746.735,-82 743.9876,-82 741.2412,-81.9507 738.4974,-81.8521 735.7581,-81.7047 733.0255,-81.5087 730.3018,-81.2647 727.5894,-80.9734 724.8911,-80.6355 722.21,-80.2521 719.5496,-79.8241 716.9139,-79.3528 714.3071,-78.8394 711.7342,-78.2853 709.2003,-77.692 706.7112,-77.0612 704.2731,-76.3946 701.8927,-75.6941 699.5772,-74.9615 697.3341,-74.1988 695.1712,-73.4082 693.097,-72.5918 691.1199,-71.7519 689.2487,-70.8907 687.4924,-70.0106 685.8602,-69.114 684.361,-68.2035 683.0042,-67.2814 681.7985,-66.3503 680.7528,-65.4127 679.8756,-64.4713 679.1751,-63.5287 678.6588,-62.5873 678.3339,-61.6497 678.207,-60.7186 678.2839,-59.7965 678.5696,-58.886 679.0683,-57.9894 679.7833,-57.1093 680.7169,-56.2481 681.8705,-55.4082 683.2441,-54.5918 684.8371,-53.8012 686.6472,-53.0385 688.6715,-52.3059 690.9054,-51.6054 693.3434,-50.9388 695.979,-50.308 698.8042,-49.7147 701.8101,-49.1606 704.9868,-48.6472 708.3231,-48.1759 711.807,-47.7479 715.4257,-47.3645 719.1652,-47.0266 723.0112,-46.7353 726.9484,-46.4913 730.961,-46.2953 735.0328,-46.1479 739.1471,-46.0493 743.2871,-46 747.4356,-46 751.5756,-46.0493"/>
<text text-anchor="middle" x="745.3613" y="-61.5" font-family="Courier,monospace" font-weight="bold" font-size="10.00" fill="#000000">(0, &#39;I,1,1&#39;)</text>
</g>
<!-- (&#45;1, &#39;D,0,1&#39;)&#45;&gt;(0, &#39;I,1,1&#39;) -->
<g id="edge1" class="edge">
<title>(&#45;1, &#39;D,0,1&#39;)&#45;&gt;(0, &#39;I,1,1&#39;)</title>
<path fill="none" stroke="#000000" d="M478.6248,-64C534.3942,-64 612.2411,-64 669.4444,-64"/>
<polygon fill="#000000" stroke="#000000" points="669.5156,-67.5001 679.5155,-64 669.5155,-60.5001 669.5156,-67.5001"/>
<text text-anchor="middle" x="576.8613" y="-67" font-family="Courier,monospace" font-weight="bold" font-size="10.00" fill="#000000">9.995002498750626e&#45;05</text>
</g>
<!-- (&#45;1, &#39;S,0,0&#39;) -->
<g id="node2" class="node">
<title>(&#45;1, &#39;S,0,0&#39;)</title>
<polygon fill="none" stroke="#000000" points="78.0753,-46.0493 82.4516,-46.1479 86.7827,-46.2953 91.0508,-46.4913 95.2387,-46.7353 99.3296,-47.0266 103.3073,-47.3645 107.1564,-47.7479 110.8622,-48.1759 114.4109,-48.6472 117.7899,-49.1606 120.9872,-49.7147 123.9923,-50.308 126.7957,-50.9388 129.3891,-51.6054 131.7652,-52.3059 133.9183,-53.0385 135.8438,-53.8012 137.5381,-54.5918 138.9993,-55.4082 140.2263,-56.2481 141.2194,-57.1093 141.9799,-57.9894 142.5104,-58.886 142.8143,-59.7965 142.896,-60.7186 142.761,-61.6497 142.4155,-62.5873 141.8663,-63.5287 141.1211,-64.4713 140.1881,-65.4127 139.0758,-66.3503 137.7934,-67.2814 136.3501,-68.2035 134.7555,-69.114 133.0193,-70.0106 131.1512,-70.8907 129.1609,-71.7519 127.0579,-72.5918 124.8515,-73.4082 122.5509,-74.1988 120.165,-74.9615 117.702,-75.6941 115.17,-76.3946 112.5767,-77.0612 109.9291,-77.692 107.2339,-78.2853 104.497,-78.8394 101.7243,-79.3528 98.9207,-79.8241 96.091,-80.2521 93.2391,-80.6355 90.369,-80.9734 87.4839,-81.2647 84.5867,-81.5087 81.6801,-81.7047 78.7664,-81.8521 75.8479,-81.9507 72.9265,-82 70.0042,-82 67.0828,-81.9507 64.1643,-81.8521 61.2506,-81.7047 58.344,-81.5087 55.4468,-81.2647 52.5617,-80.9734 49.6915,-80.6355 46.8397,-80.2521 44.0099,-79.8241 41.2064,-79.3528 38.4336,-78.8394 35.6968,-78.2853 33.0015,-77.692 30.3539,-77.0612 27.7606,-76.3946 25.2287,-75.6941 22.7657,-74.9615 20.3797,-74.1988 18.0791,-73.4082 15.8728,-72.5918 13.7698,-71.7519 11.7794,-70.8907 9.9113,-70.0106 8.1751,-69.114 6.5806,-68.2035 5.1373,-67.2814 3.8548,-66.3503 2.7426,-65.4127 1.8095,-64.4713 1.0643,-63.5287 .5152,-62.5873 .1696,-61.6497 .0347,-60.7186 .1164,-59.7965 .4203,-58.886 .9507,-57.9894 1.7113,-57.1093 2.7044,-56.2481 3.9314,-55.4082 5.3925,-54.5918 7.0869,-53.8012 9.0123,-53.0385 11.1655,-52.3059 13.5416,-51.6054 16.1349,-50.9388 18.9383,-50.308 21.9435,-49.7147 25.1408,-49.1606 28.5197,-48.6472 32.0685,-48.1759 35.7743,-47.7479 39.6234,-47.3645 43.6011,-47.0266 47.6919,-46.7353 51.8798,-46.4913 56.148,-46.2953 60.4791,-46.1479 64.8554,-46.0493 69.259,-46 73.6717,-46 78.0753,-46.0493"/>
<text text-anchor="middle" x="71.4653" y="-61.5" font-family="Courier,monospace" font-weight="bold" font-size="10.00" fill="#000000">(&#45;1, &#39;S,0,0&#39;)</text>
</g>
<!-- (&#45;1, &#39;S,0,0&#39;)&#45;&gt;(&#45;1, &#39;D,0,1&#39;) -->
<g id="edge2" class="edge">
<title>(&#45;1, &#39;S,0,0&#39;)&#45;&gt;(&#45;1, &#39;D,0,1&#39;)</title>
<path fill="none" stroke="#000000" d="M141.6869,-64C196.0861,-64 271.4933,-64 328.2516,-64"/>
<polygon fill="#000000" stroke="#000000" points="328.2649,-67.5001 338.2648,-64 328.2648,-60.5001 328.2649,-67.5001"/>
<text text-anchor="middle" x="239.9307" y="-67" font-family="Courier,monospace" font-weight="bold" font-size="10.00" fill="#000000">0.11117775778377598</text>
</g>
<!-- (0, &#39;I,1,0&#39;) -->
<g id="node5" class="node">
<title>(0, &#39;I,1,0&#39;)</title>
<polygon fill="none" stroke="#000000" points="414.6102,-123.0493 418.7246,-123.1479 422.7963,-123.2953 426.8089,-123.4913 430.7461,-123.7353 434.5921,-124.0266 438.3317,-124.3645 441.9503,-124.7479 445.4342,-125.1759 448.7705,-125.6472 451.9472,-126.1606 454.9531,-126.7147 457.7783,-127.308 460.4139,-127.9388 462.852,-128.6054 465.0859,-129.3059 467.1101,-130.0385 468.9202,-130.8012 470.5132,-131.5918 471.8869,-132.4082 473.0404,-133.2481 473.9741,-134.1093 474.6891,-134.9894 475.1878,-135.886 475.4734,-136.7965 475.5503,-137.7186 475.4234,-138.6497 475.0985,-139.5873 474.5823,-140.5287 473.8817,-141.4713 473.0045,-142.4127 471.9588,-143.3503 470.7532,-144.2814 469.3963,-145.2035 467.8972,-146.114 466.2649,-147.0106 464.5087,-147.8907 462.6375,-148.7519 460.6603,-149.5918 458.5861,-150.4082 456.4232,-151.1988 454.1801,-151.9615 451.8646,-152.6941 449.4842,-153.3946 447.0462,-154.0612 444.5571,-154.692 442.0231,-155.2853 439.4502,-155.8394 436.8434,-156.3528 434.2077,-156.8241 431.5474,-157.2521 428.8663,-157.6355 426.168,-157.9734 423.4555,-158.2647 420.7318,-158.5087 417.9992,-158.7047 415.26,-158.8521 412.5162,-158.9507 409.7697,-159 407.0223,-159 404.2758,-158.9507 401.532,-158.8521 398.7928,-158.7047 396.0602,-158.5087 393.3365,-158.2647 390.624,-157.9734 387.9257,-157.6355 385.2446,-157.2521 382.5843,-156.8241 379.9486,-156.3528 377.3418,-155.8394 374.7688,-155.2853 372.2349,-154.692 369.7458,-154.0612 367.3078,-153.3946 364.9274,-152.6941 362.6119,-151.9615 360.3687,-151.1988 358.2059,-150.4082 356.1316,-149.5918 354.1545,-148.7519 352.2833,-147.8907 350.5271,-147.0106 348.8948,-146.114 347.3957,-145.2035 346.0388,-144.2814 344.8332,-143.3503 343.7875,-142.4127 342.9103,-141.4713 342.2097,-140.5287 341.6935,-139.5873 341.3686,-138.6497 341.2417,-137.7186 341.3186,-136.7965 341.6042,-135.886 342.1029,-134.9894 342.8179,-134.1093 343.7516,-133.2481 344.9051,-132.4082 346.2788,-131.5918 347.8717,-130.8012 349.6819,-130.0385 351.7061,-129.3059 353.94,-128.6054 356.3781,-127.9388 359.0136,-127.308 361.8389,-126.7147 364.8448,-126.1606 368.0215,-125.6472 371.3578,-125.1759 374.8417,-124.7479 378.4603,-124.3645 382.1999,-124.0266 386.0459,-123.7353 389.983,-123.4913 393.9957,-123.2953 398.0674,-123.1479 402.1818,-123.0493 406.3217,-123 410.4703,-123 414.6102,-123.0493"/>
<text text-anchor="middle" x="408.396" y="-138.5" font-family="Courier,monospace" font-weight="bold" font-size="10.00" fill="#000000">(0, &#39;I,1,0&#39;)</text>
</g>
<!-- (&#45;1, &#39;S,0,0&#39;)&#45;&gt;(0, &#39;I,1,0&#39;) -->
<g id="edge3" class="edge">
<title>(&#45;1, &#39;S,0,0&#39;)&#45;&gt;(0, &#39;I,1,0&#39;)</title>
<path fill="none" stroke="#000000" d="M120.0981,-75.1142C179.1206,-88.6029 278.8314,-111.3901 344.1371,-126.3147"/>
<polygon fill="#000000" stroke="#000000" points="343.3839,-129.7327 353.9123,-128.5486 344.9434,-122.9086 343.3839,-129.7327"/>
<text text-anchor="middle" x="239.9307" y="-123" font-family="Courier,monospace" font-weight="bold" font-size="10.00" fill="#000000">0.22213893220006678</text>
</g>
<!-- (0, &#39;M,1,1&#39;) -->
<g id="node7" class="node">
<title>(0, &#39;M,1,1&#39;)</title>
<polygon fill="none" stroke="#000000" points="583.0756,-.0493 587.1899,-.1479 591.2617,-.2953 595.2743,-.4913 599.2115,-.7353 603.0574,-1.0266 606.797,-1.3645 610.4156,-1.7479 613.8996,-2.1759 617.2359,-2.6472 620.4125,-3.1606 623.4185,-3.7147 626.2437,-4.308 628.8792,-4.9388 631.3173,-5.6054 633.5512,-6.3059 635.5754,-7.0385 637.3856,-7.8012 638.9785,-8.5918 640.3522,-9.4082 641.5058,-10.2481 642.4394,-11.1093 643.1544,-11.9894 643.6531,-12.886 643.9388,-13.7965 644.0156,-14.7186 643.8887,-15.6497 643.5639,-16.5873 643.0476,-17.5287 642.347,-18.4713 641.4698,-19.4127 640.4242,-20.3503 639.2185,-21.2814 637.8616,-22.2035 636.3625,-23.114 634.7303,-24.0106 632.974,-24.8907 631.1028,-25.7519 629.1257,-26.5918 627.0514,-27.4082 624.8886,-28.1988 622.6454,-28.9615 620.3299,-29.6941 617.9496,-30.3946 615.5115,-31.0612 613.0224,-31.692 610.4885,-32.2853 607.9155,-32.8394 605.3088,-33.3528 602.673,-33.8241 600.0127,-34.2521 597.3316,-34.6355 594.6333,-34.9734 591.9209,-35.2647 589.1971,-35.5087 586.4645,-35.7047 583.7253,-35.8521 580.9815,-35.9507 578.235,-36 575.4876,-36 572.7412,-35.9507 569.9974,-35.8521 567.2581,-35.7047 564.5255,-35.5087 561.8018,-35.2647 559.0894,-34.9734 556.3911,-34.6355 553.71,-34.2521 551.0496,-33.8241 548.4139,-33.3528 545.8071,-32.8394 543.2342,-32.2853 540.7003,-31.692 538.2112,-31.0612 535.7731,-30.3946 533.3927,-29.6941 531.0772,-28.9615 528.8341,-28.1988 526.6712,-27.4082 524.597,-26.5918 522.6199,-25.7519 520.7487,-24.8907 518.9924,-24.0106 517.3602,-23.114 515.861,-22.2035 514.5042,-21.2814 513.2985,-20.3503 512.2528,-19.4127 511.3756,-18.4713 510.6751,-17.5287 510.1588,-16.5873 509.8339,-15.6497 509.707,-14.7186 509.7839,-13.7965 510.0696,-12.886 510.5683,-11.9894 511.2833,-11.1093 512.2169,-10.2481 513.3705,-9.4082 514.7441,-8.5918 516.3371,-7.8012 518.1472,-7.0385 520.1715,-6.3059 522.4054,-5.6054 524.8434,-4.9388 527.479,-4.308 530.3042,-3.7147 533.3101,-3.1606 536.4868,-2.6472 539.8231,-2.1759 543.307,-1.7479 546.9257,-1.3645 550.6652,-1.0266 554.5112,-.7353 558.4484,-.4913 562.461,-.2953 566.5328,-.1479 570.6471,-.0493 574.7871,0 578.9356,0 583.0756,-.0493"/>
<text text-anchor="middle" x="576.8613" y="-15.5" font-family="Courier,monospace" font-weight="bold" font-size="10.00" fill="#000000">(0, &#39;M,1,1&#39;)</text>
</g>
<!-- (&#45;1, &#39;S,0,0&#39;)&#45;&gt;(0, &#39;M,1,1&#39;) -->
<g id="edge4" class="edge">
<title>(&#45;1, &#39;S,0,0&#39;)&#45;&gt;(0, &#39;M,1,1&#39;)</title>
<path fill="none" stroke="#000000" d="M133.4441,-52.852C142.6398,-51.4179 152.0186,-50.0769 160.9307,-49 280.6616,-34.5318 420.6535,-25.768 503.8633,-21.4101"/>
<polygon fill="#000000" stroke="#000000" points="504.1672,-24.8991 513.9732,-20.8877 503.8059,-17.9084 504.1672,-24.8991"/>
<text text-anchor="middle" x="239.9307" y="-52" font-family="Courier,monospace" font-weight="bold" font-size="10.00" fill="#000000">4.441890265948146e&#45;05</text>
</g>
<!-- (&#45;1, &#39;VITERBI_SINK&#39;) -->
<g id="node3" class="node">
<title>(&#45;1, &#39;VITERBI_SINK&#39;)</title>
<polygon fill="none" stroke="#000000" points="1496.5656,-145.0493 1502.9913,-145.1479 1509.3506,-145.2953 1515.6175,-145.4913 1521.7665,-145.7353 1527.7731,-146.0266 1533.6136,-146.3645 1539.2652,-146.7479 1544.7063,-147.1759 1549.917,-147.6472 1554.8782,-148.1606 1559.5729,-148.7147 1563.9853,-149.308 1568.1015,-149.9388 1571.9093,-150.6054 1575.3982,-151.3059 1578.5595,-152.0385 1581.3867,-152.8012 1583.8745,-153.5918 1586.0199,-154.4082 1587.8215,-155.2481 1589.2797,-156.1093 1590.3964,-156.9894 1591.1752,-157.886 1591.6214,-158.7965 1591.7414,-159.7186 1591.5432,-160.6497 1591.0359,-161.5873 1590.2296,-162.5287 1589.1354,-163.4713 1587.7654,-164.4127 1586.1323,-165.3503 1584.2493,-166.2814 1582.1301,-167.2035 1579.7888,-168.114 1577.2396,-169.0106 1574.4967,-169.8907 1571.5743,-170.7519 1568.4864,-171.5918 1565.2468,-172.4082 1561.8689,-173.1988 1558.3656,-173.9615 1554.7492,-174.6941 1551.0316,-175.3946 1547.2238,-176.0612 1543.3364,-176.692 1539.3789,-177.2853 1535.3605,-177.8394 1531.2893,-178.3528 1527.1728,-178.8241 1523.0179,-179.2521 1518.8306,-179.6355 1514.6164,-179.9734 1510.3801,-180.2647 1506.1262,-180.5087 1501.8584,-180.7047 1497.5803,-180.8521 1493.2951,-180.9507 1489.0056,-181 1484.7148,-181 1480.4253,-180.9507 1476.1401,-180.8521 1471.862,-180.7047 1467.5942,-180.5087 1463.3403,-180.2647 1459.1041,-179.9734 1454.8899,-179.6355 1450.7025,-179.2521 1446.5476,-178.8241 1442.4312,-178.3528 1438.3599,-177.8394 1434.3415,-177.2853 1430.3841,-176.692 1426.4966,-176.0612 1422.6889,-175.3946 1418.9712,-174.6941 1415.3548,-173.9615 1411.8515,-173.1988 1408.4736,-172.4082 1405.234,-171.5918 1402.1462,-170.7519 1399.2238,-169.8907 1396.4808,-169.0106 1393.9316,-168.114 1391.5903,-167.2035 1389.4711,-166.2814 1387.5881,-165.3503 1385.955,-164.4127 1384.585,-163.4713 1383.4909,-162.5287 1382.6845,-161.5873 1382.1772,-160.6497 1381.979,-159.7186 1382.099,-158.7965 1382.5452,-157.886 1383.3241,-156.9894 1384.4408,-156.1093 1385.8989,-155.2481 1387.7005,-154.4082 1389.8459,-153.5918 1392.3338,-152.8012 1395.1609,-152.0385 1398.3223,-151.3059 1401.8112,-150.6054 1405.6189,-149.9388 1409.7351,-149.308 1414.1475,-148.7147 1418.8422,-148.1606 1423.8035,-147.6472 1429.0141,-147.1759 1434.4553,-146.7479 1440.1068,-146.3645 1445.9473,-146.0266 1451.9539,-145.7353 1458.103,-145.4913 1464.3698,-145.2953 1470.7291,-145.1479 1477.1549,-145.0493 1483.6206,-145 1490.0998,-145 1496.5656,-145.0493"/>
<text text-anchor="middle" x="1486.8602" y="-160.5" font-family="Courier,monospace" font-weight="bold" font-size="10.00" fill="#000000">(&#45;1, &#39;VITERBI_SINK&#39;)</text>
</g>
<!-- (0, &#39;D,1,1&#39;) -->
<g id="node4" class="node">
<title>(0, &#39;D,1,1&#39;)</title>
<polygon fill="none" stroke="#000000" points="751.5756,-100.0493 755.6899,-100.1479 759.7617,-100.2953 763.7743,-100.4913 767.7115,-100.7353 771.5574,-101.0266 775.297,-101.3645 778.9156,-101.7479 782.3996,-102.1759 785.7359,-102.6472 788.9125,-103.1606 791.9185,-103.7147 794.7437,-104.308 797.3792,-104.9388 799.8173,-105.6054 802.0512,-106.3059 804.0754,-107.0385 805.8856,-107.8012 807.4785,-108.5918 808.8522,-109.4082 810.0058,-110.2481 810.9394,-111.1093 811.6544,-111.9894 812.1531,-112.886 812.4388,-113.7965 812.5156,-114.7186 812.3887,-115.6497 812.0639,-116.5873 811.5476,-117.5287 810.847,-118.4713 809.9698,-119.4127 808.9242,-120.3503 807.7185,-121.2814 806.3616,-122.2035 804.8625,-123.114 803.2303,-124.0106 801.474,-124.8907 799.6028,-125.7519 797.6257,-126.5918 795.5514,-127.4082 793.3886,-128.1988 791.1454,-128.9615 788.8299,-129.6941 786.4496,-130.3946 784.0115,-131.0612 781.5224,-131.692 778.9885,-132.2853 776.4155,-132.8394 773.8088,-133.3528 771.173,-133.8241 768.5127,-134.2521 765.8316,-134.6355 763.1333,-134.9734 760.4209,-135.2647 757.6971,-135.5087 754.9645,-135.7047 752.2253,-135.8521 749.4815,-135.9507 746.735,-136 743.9876,-136 741.2412,-135.9507 738.4974,-135.8521 735.7581,-135.7047 733.0255,-135.5087 730.3018,-135.2647 727.5894,-134.9734 724.8911,-134.6355 722.21,-134.2521 719.5496,-133.8241 716.9139,-133.3528 714.3071,-132.8394 711.7342,-132.2853 709.2003,-131.692 706.7112,-131.0612 704.2731,-130.3946 701.8927,-129.6941 699.5772,-128.9615 697.3341,-128.1988 695.1712,-127.4082 693.097,-126.5918 691.1199,-125.7519 689.2487,-124.8907 687.4924,-124.0106 685.8602,-123.114 684.361,-122.2035 683.0042,-121.2814 681.7985,-120.3503 680.7528,-119.4127 679.8756,-118.4713 679.1751,-117.5287 678.6588,-116.5873 678.3339,-115.6497 678.207,-114.7186 678.2839,-113.7965 678.5696,-112.886 679.0683,-111.9894 679.7833,-111.1093 680.7169,-110.2481 681.8705,-109.4082 683.2441,-108.5918 684.8371,-107.8012 686.6472,-107.0385 688.6715,-106.3059 690.9054,-105.6054 693.3434,-104.9388 695.979,-104.308 698.8042,-103.7147 701.8101,-103.1606 704.9868,-102.6472 708.3231,-102.1759 711.807,-101.7479 715.4257,-101.3645 719.1652,-101.0266 723.0112,-100.7353 726.9484,-100.4913 730.961,-100.2953 735.0328,-100.1479 739.1471,-100.0493 743.2871,-100 747.4356,-100 751.5756,-100.0493"/>
<text text-anchor="middle" x="745.3613" y="-115.5" font-family="Courier,monospace" font-weight="bold" font-size="10.00" fill="#000000">(0, &#39;D,1,1&#39;)</text>
</g>
<!-- (1, &#39;I,2,1&#39;) -->
<g id="node10" class="node">
<title>(1, &#39;I,2,1&#39;)</title>
<polygon fill="none" stroke="#000000" points="1069.1527,-73.0493 1073.267,-73.1479 1077.3388,-73.2953 1081.3514,-73.4913 1085.2886,-73.7353 1089.1345,-74.0266 1092.8741,-74.3645 1096.4927,-74.7479 1099.9767,-75.1759 1103.313,-75.6472 1106.4896,-76.1606 1109.4956,-76.7147 1112.3208,-77.308 1114.9563,-77.9388 1117.3944,-78.6054 1119.6283,-79.3059 1121.6525,-80.0385 1123.4627,-80.8012 1125.0556,-81.5918 1126.4293,-82.4082 1127.5829,-83.2481 1128.5165,-84.1093 1129.2315,-84.9894 1129.7302,-85.886 1130.0159,-86.7965 1130.0927,-87.7186 1129.9658,-88.6497 1129.641,-89.5873 1129.1247,-90.5287 1128.4241,-91.4713 1127.5469,-92.4127 1126.5013,-93.3503 1125.2956,-94.2814 1123.9387,-95.2035 1122.4396,-96.114 1120.8074,-97.0106 1119.0511,-97.8907 1117.1799,-98.7519 1115.2028,-99.5918 1113.1285,-100.4082 1110.9657,-101.1988 1108.7225,-101.9615 1106.407,-102.6941 1104.0267,-103.3946 1101.5886,-104.0612 1099.0995,-104.692 1096.5656,-105.2853 1093.9926,-105.8394 1091.3859,-106.3528 1088.7502,-106.8241 1086.0898,-107.2521 1083.4087,-107.6355 1080.7104,-107.9734 1077.998,-108.2647 1075.2742,-108.5087 1072.5416,-108.7047 1069.8024,-108.8521 1067.0586,-108.9507 1064.3121,-109 1061.5648,-109 1058.8183,-108.9507 1056.0745,-108.8521 1053.3352,-108.7047 1050.6026,-108.5087 1047.8789,-108.2647 1045.1665,-107.9734 1042.4682,-107.6355 1039.7871,-107.2521 1037.1267,-106.8241 1034.491,-106.3528 1031.8842,-105.8394 1029.3113,-105.2853 1026.7774,-104.692 1024.2883,-104.0612 1021.8502,-103.3946 1019.4699,-102.6941 1017.1543,-101.9615 1014.9112,-101.1988 1012.7484,-100.4082 1010.6741,-99.5918 1008.697,-98.7519 1006.8258,-97.8907 1005.0695,-97.0106 1003.4373,-96.114 1001.9382,-95.2035 1000.5813,-94.2814 999.3756,-93.3503 998.3299,-92.4127 997.4528,-91.4713 996.7522,-90.5287 996.2359,-89.5873 995.911,-88.6497 995.7841,-87.7186 995.861,-86.7965 996.1467,-85.886 996.6454,-84.9894 997.3604,-84.1093 998.294,-83.2481 999.4476,-82.4082 1000.8213,-81.5918 1002.4142,-80.8012 1004.2244,-80.0385 1006.2486,-79.3059 1008.4825,-78.6054 1010.9205,-77.9388 1013.5561,-77.308 1016.3813,-76.7147 1019.3873,-76.1606 1022.5639,-75.6472 1025.9002,-75.1759 1029.3841,-74.7479 1033.0028,-74.3645 1036.7423,-74.0266 1040.5883,-73.7353 1044.5255,-73.4913 1048.5381,-73.2953 1052.6099,-73.1479 1056.7242,-73.0493 1060.8642,-73 1065.0127,-73 1069.1527,-73.0493"/>
<text text-anchor="middle" x="1062.9384" y="-88.5" font-family="Courier,monospace" font-weight="bold" font-size="10.00" fill="#000000">(1, &#39;I,2,1&#39;)</text>
</g>
<!-- (0, &#39;D,1,1&#39;)&#45;&gt;(1, &#39;I,2,1&#39;) -->
<g id="edge5" class="edge">
<title>(0, &#39;D,1,1&#39;)&#45;&gt;(1, &#39;I,2,1&#39;)</title>
<path fill="none" stroke="#000000" d="M811.9359,-112.3399C864.991,-107.8292 939.0649,-101.5316 992.9865,-96.9472"/>
<polygon fill="#000000" stroke="#000000" points="993.4824,-100.4178 1003.15,-96.0831 992.8894,-93.4429 993.4824,-100.4178"/>
<text text-anchor="middle" x="906.3613" y="-113" font-family="Courier,monospace" font-weight="bold" font-size="10.00" fill="#000000">0.49985007496251876</text>
</g>
<!-- (0, &#39;I,1,0&#39;)&#45;&gt;(0, &#39;D,1,1&#39;) -->
<g id="edge6" class="edge">
<title>(0, &#39;I,1,0&#39;)&#45;&gt;(0, &#39;D,1,1&#39;)</title>
<path fill="none" stroke="#000000" d="M473.3416,-133.2869C481.5878,-132.4412 489.9173,-131.652 497.8613,-131 556.1137,-126.2187 622.2314,-122.8513 671.4662,-120.7435"/>
<polygon fill="#000000" stroke="#000000" points="671.8632,-124.23 681.7072,-120.3128 671.569,-117.2362 671.8632,-124.23"/>
<text text-anchor="middle" x="576.8613" y="-134" font-family="Courier,monospace" font-weight="bold" font-size="10.00" fill="#000000">0.11117775778377598</text>
</g>
<!-- (1, &#39;I,2,0&#39;) -->
<g id="node9" class="node">
<title>(1, &#39;I,2,0&#39;)</title>
<polygon fill="none" stroke="#000000" points="751.5756,-192.0493 755.6899,-192.1479 759.7617,-192.2953 763.7743,-192.4913 767.7115,-192.7353 771.5574,-193.0266 775.297,-193.3645 778.9156,-193.7479 782.3996,-194.1759 785.7359,-194.6472 788.9125,-195.1606 791.9185,-195.7147 794.7437,-196.308 797.3792,-196.9388 799.8173,-197.6054 802.0512,-198.3059 804.0754,-199.0385 805.8856,-199.8012 807.4785,-200.5918 808.8522,-201.4082 810.0058,-202.2481 810.9394,-203.1093 811.6544,-203.9894 812.1531,-204.886 812.4388,-205.7965 812.5156,-206.7186 812.3887,-207.6497 812.0639,-208.5873 811.5476,-209.5287 810.847,-210.4713 809.9698,-211.4127 808.9242,-212.3503 807.7185,-213.2814 806.3616,-214.2035 804.8625,-215.114 803.2303,-216.0106 801.474,-216.8907 799.6028,-217.7519 797.6257,-218.5918 795.5514,-219.4082 793.3886,-220.1988 791.1454,-220.9615 788.8299,-221.6941 786.4496,-222.3946 784.0115,-223.0612 781.5224,-223.692 778.9885,-224.2853 776.4155,-224.8394 773.8088,-225.3528 771.173,-225.8241 768.5127,-226.2521 765.8316,-226.6355 763.1333,-226.9734 760.4209,-227.2647 757.6971,-227.5087 754.9645,-227.7047 752.2253,-227.8521 749.4815,-227.9507 746.735,-228 743.9876,-228 741.2412,-227.9507 738.4974,-227.8521 735.7581,-227.7047 733.0255,-227.5087 730.3018,-227.2647 727.5894,-226.9734 724.8911,-226.6355 722.21,-226.2521 719.5496,-225.8241 716.9139,-225.3528 714.3071,-224.8394 711.7342,-224.2853 709.2003,-223.692 706.7112,-223.0612 704.2731,-222.3946 701.8927,-221.6941 699.5772,-220.9615 697.3341,-220.1988 695.1712,-219.4082 693.097,-218.5918 691.1199,-217.7519 689.2487,-216.8907 687.4924,-216.0106 685.8602,-215.114 684.361,-214.2035 683.0042,-213.2814 681.7985,-212.3503 680.7528,-211.4127 679.8756,-210.4713 679.1751,-209.5287 678.6588,-208.5873 678.3339,-207.6497 678.207,-206.7186 678.2839,-205.7965 678.5696,-204.886 679.0683,-203.9894 679.7833,-203.1093 680.7169,-202.2481 681.8705,-201.4082 683.2441,-200.5918 684.8371,-199.8012 686.6472,-199.0385 688.6715,-198.3059 690.9054,-197.6054 693.3434,-196.9388 695.979,-196.308 698.8042,-195.7147 701.8101,-195.1606 704.9868,-194.6472 708.3231,-194.1759 711.807,-193.7479 715.4257,-193.3645 719.1652,-193.0266 723.0112,-192.7353 726.9484,-192.4913 730.961,-192.2953 735.0328,-192.1479 739.1471,-192.0493 743.2871,-192 747.4356,-192 751.5756,-192.0493"/>
<text text-anchor="middle" x="745.3613" y="-207.5" font-family="Courier,monospace" font-weight="bold" font-size="10.00" fill="#000000">(1, &#39;I,2,0&#39;)</text>
</g>
<!-- (0, &#39;I,1,0&#39;)&#45;&gt;(1, &#39;I,2,0&#39;) -->
<g id="edge7" class="edge">
<title>(0, &#39;I,1,0&#39;)&#45;&gt;(1, &#39;I,2,0&#39;)</title>
<path fill="none" stroke="#000000" d="M438.2939,-156.1668C455.3368,-164.1776 477.3304,-173.4695 497.8613,-179 553.8014,-194.0689 618.8665,-201.8542 668.2419,-205.8532"/>
<polygon fill="#000000" stroke="#000000" points="667.9746,-209.3429 678.2154,-206.627 668.5161,-202.3639 667.9746,-209.3429"/>
<text text-anchor="middle" x="576.8613" y="-207" font-family="Courier,monospace" font-weight="bold" font-size="10.00" fill="#000000">4.441890265948146e&#45;05</text>
</g>
<!-- (1, &#39;M,2,1&#39;) -->
<g id="node11" class="node">
<title>(1, &#39;M,2,1&#39;)</title>
<polygon fill="none" stroke="#000000" points="912.5756,-146.0493 916.6899,-146.1479 920.7617,-146.2953 924.7743,-146.4913 928.7115,-146.7353 932.5574,-147.0266 936.297,-147.3645 939.9156,-147.7479 943.3996,-148.1759 946.7359,-148.6472 949.9125,-149.1606 952.9185,-149.7147 955.7437,-150.308 958.3792,-150.9388 960.8173,-151.6054 963.0512,-152.3059 965.0754,-153.0385 966.8856,-153.8012 968.4785,-154.5918 969.8522,-155.4082 971.0058,-156.2481 971.9394,-157.1093 972.6544,-157.9894 973.1531,-158.886 973.4388,-159.7965 973.5156,-160.7186 973.3887,-161.6497 973.0639,-162.5873 972.5476,-163.5287 971.847,-164.4713 970.9698,-165.4127 969.9242,-166.3503 968.7185,-167.2814 967.3616,-168.2035 965.8625,-169.114 964.2303,-170.0106 962.474,-170.8907 960.6028,-171.7519 958.6257,-172.5918 956.5514,-173.4082 954.3886,-174.1988 952.1454,-174.9615 949.8299,-175.6941 947.4496,-176.3946 945.0115,-177.0612 942.5224,-177.692 939.9885,-178.2853 937.4155,-178.8394 934.8088,-179.3528 932.173,-179.8241 929.5127,-180.2521 926.8316,-180.6355 924.1333,-180.9734 921.4209,-181.2647 918.6971,-181.5087 915.9645,-181.7047 913.2253,-181.8521 910.4815,-181.9507 907.735,-182 904.9876,-182 902.2412,-181.9507 899.4974,-181.8521 896.7581,-181.7047 894.0255,-181.5087 891.3018,-181.2647 888.5894,-180.9734 885.8911,-180.6355 883.21,-180.2521 880.5496,-179.8241 877.9139,-179.3528 875.3071,-178.8394 872.7342,-178.2853 870.2003,-177.692 867.7112,-177.0612 865.2731,-176.3946 862.8927,-175.6941 860.5772,-174.9615 858.3341,-174.1988 856.1712,-173.4082 854.097,-172.5918 852.1199,-171.7519 850.2487,-170.8907 848.4924,-170.0106 846.8602,-169.114 845.361,-168.2035 844.0042,-167.2814 842.7985,-166.3503 841.7528,-165.4127 840.8756,-164.4713 840.1751,-163.5287 839.6588,-162.5873 839.3339,-161.6497 839.207,-160.7186 839.2839,-159.7965 839.5696,-158.886 840.0683,-157.9894 840.7833,-157.1093 841.7169,-156.2481 842.8705,-155.4082 844.2441,-154.5918 845.8371,-153.8012 847.6472,-153.0385 849.6715,-152.3059 851.9054,-151.6054 854.3434,-150.9388 856.979,-150.308 859.8042,-149.7147 862.8101,-149.1606 865.9868,-148.6472 869.3231,-148.1759 872.807,-147.7479 876.4257,-147.3645 880.1652,-147.0266 884.0112,-146.7353 887.9484,-146.4913 891.961,-146.2953 896.0328,-146.1479 900.1471,-146.0493 904.2871,-146 908.4356,-146 912.5756,-146.0493"/>
<text text-anchor="middle" x="906.3613" y="-161.5" font-family="Courier,monospace" font-weight="bold" font-size="10.00" fill="#000000">(1, &#39;M,2,1&#39;)</text>
</g>
<!-- (0, &#39;I,1,0&#39;)&#45;&gt;(1, &#39;M,2,1&#39;) -->
<g id="edge8" class="edge">
<title>(0, &#39;I,1,0&#39;)&#45;&gt;(1, &#39;M,2,1&#39;)</title>
<path fill="none" stroke="#000000" d="M471.4637,-143.913C562.459,-148.1159 730.4261,-155.8739 828.8591,-160.4203"/>
<polygon fill="#000000" stroke="#000000" points="828.8909,-163.9254 839.0417,-160.8906 829.2139,-156.9329 828.8909,-163.9254"/>
<text text-anchor="middle" x="576.8613" y="-155" font-family="Courier,monospace" font-weight="bold" font-size="10.00" fill="#000000">4.441890265948146e&#45;05</text>
</g>
<!-- (0, &#39;I,1,1&#39;)&#45;&gt;(1, &#39;I,2,1&#39;) -->
<g id="edge9" class="edge">
<title>(0, &#39;I,1,1&#39;)&#45;&gt;(1, &#39;I,2,1&#39;)</title>
<path fill="none" stroke="#000000" d="M805.5946,-68.7193C852.5426,-72.4468 919.363,-77.8596 977.8613,-83 980.7016,-83.2496 983.5949,-83.5068 986.5172,-83.769"/>
<polygon fill="#000000" stroke="#000000" points="986.2552,-87.2596 996.5304,-84.6765 986.8871,-80.2881 986.2552,-87.2596"/>
<text text-anchor="middle" x="906.3613" y="-86" font-family="Courier,monospace" font-weight="bold" font-size="10.00" fill="#000000">0.49985007496251876</text>
</g>
<!-- (0, &#39;M,1,1&#39;)&#45;&gt;(1, &#39;I,2,1&#39;) -->
<g id="edge10" class="edge">
<title>(0, &#39;M,1,1&#39;)&#45;&gt;(1, &#39;I,2,1&#39;)</title>
<path fill="none" stroke="#000000" d="M643.6686,-16.3784C692.0062,-16.1391 758.7681,-17.734 816.8613,-26 889.9643,-36.4017 906.5448,-47.8636 977.8613,-67 986.5695,-69.3367 995.7615,-71.8648 1004.7566,-74.3736"/>
<polygon fill="#000000" stroke="#000000" points="1003.8343,-77.7499 1014.4078,-77.0782 1005.7232,-71.0095 1003.8343,-77.7499"/>
<text text-anchor="middle" x="745.3613" y="-29" font-family="Courier,monospace" font-weight="bold" font-size="10.00" fill="#000000">0.49985007496251876</text>
</g>
<!-- (1, &#39;D,2,1&#39;) -->
<g id="node8" class="node">
<title>(1, &#39;D,2,1&#39;)</title>
<polygon fill="none" stroke="#000000" points="1069.1527,-192.0493 1073.267,-192.1479 1077.3388,-192.2953 1081.3514,-192.4913 1085.2886,-192.7353 1089.1345,-193.0266 1092.8741,-193.3645 1096.4927,-193.7479 1099.9767,-194.1759 1103.313,-194.6472 1106.4896,-195.1606 1109.4956,-195.7147 1112.3208,-196.308 1114.9563,-196.9388 1117.3944,-197.6054 1119.6283,-198.3059 1121.6525,-199.0385 1123.4627,-199.8012 1125.0556,-200.5918 1126.4293,-201.4082 1127.5829,-202.2481 1128.5165,-203.1093 1129.2315,-203.9894 1129.7302,-204.886 1130.0159,-205.7965 1130.0927,-206.7186 1129.9658,-207.6497 1129.641,-208.5873 1129.1247,-209.5287 1128.4241,-210.4713 1127.5469,-211.4127 1126.5013,-212.3503 1125.2956,-213.2814 1123.9387,-214.2035 1122.4396,-215.114 1120.8074,-216.0106 1119.0511,-216.8907 1117.1799,-217.7519 1115.2028,-218.5918 1113.1285,-219.4082 1110.9657,-220.1988 1108.7225,-220.9615 1106.407,-221.6941 1104.0267,-222.3946 1101.5886,-223.0612 1099.0995,-223.692 1096.5656,-224.2853 1093.9926,-224.8394 1091.3859,-225.3528 1088.7502,-225.8241 1086.0898,-226.2521 1083.4087,-226.6355 1080.7104,-226.9734 1077.998,-227.2647 1075.2742,-227.5087 1072.5416,-227.7047 1069.8024,-227.8521 1067.0586,-227.9507 1064.3121,-228 1061.5648,-228 1058.8183,-227.9507 1056.0745,-227.8521 1053.3352,-227.7047 1050.6026,-227.5087 1047.8789,-227.2647 1045.1665,-226.9734 1042.4682,-226.6355 1039.7871,-226.2521 1037.1267,-225.8241 1034.491,-225.3528 1031.8842,-224.8394 1029.3113,-224.2853 1026.7774,-223.692 1024.2883,-223.0612 1021.8502,-222.3946 1019.4699,-221.6941 1017.1543,-220.9615 1014.9112,-220.1988 1012.7484,-219.4082 1010.6741,-218.5918 1008.697,-217.7519 1006.8258,-216.8907 1005.0695,-216.0106 1003.4373,-215.114 1001.9382,-214.2035 1000.5813,-213.2814 999.3756,-212.3503 998.3299,-211.4127 997.4528,-210.4713 996.7522,-209.5287 996.2359,-208.5873 995.911,-207.6497 995.7841,-206.7186 995.861,-205.7965 996.1467,-204.886 996.6454,-203.9894 997.3604,-203.1093 998.294,-202.2481 999.4476,-201.4082 1000.8213,-200.5918 1002.4142,-199.8012 1004.2244,-199.0385 1006.2486,-198.3059 1008.4825,-197.6054 1010.9205,-196.9388 1013.5561,-196.308 1016.3813,-195.7147 1019.3873,-195.1606 1022.5639,-194.6472 1025.9002,-194.1759 1029.3841,-193.7479 1033.0028,-193.3645 1036.7423,-193.0266 1040.5883,-192.7353 1044.5255,-192.4913 1048.5381,-192.2953 1052.6099,-192.1479 1056.7242,-192.0493 1060.8642,-192 1065.0127,-192 1069.1527,-192.0493"/>
<text text-anchor="middle" x="1062.9384" y="-207.5" font-family="Courier,monospace" font-weight="bold" font-size="10.00" fill="#000000">(1, &#39;D,2,1&#39;)</text>
</g>
<!-- (2, &#39;T,2,1&#39;) -->
<g id="node12" class="node">
<title>(2, &#39;T,2,1&#39;)</title>
<polygon fill="none" stroke="#000000" points="1262.3069,-145.0493 1266.4212,-145.1479 1270.493,-145.2953 1274.5056,-145.4913 1278.4428,-145.7353 1282.2888,-146.0266 1286.0283,-146.3645 1289.647,-146.7479 1293.1309,-147.1759 1296.4672,-147.6472 1299.6438,-148.1606 1302.6498,-148.7147 1305.475,-149.308 1308.1106,-149.9388 1310.5486,-150.6054 1312.7825,-151.3059 1314.8067,-152.0385 1316.6169,-152.8012 1318.2098,-153.5918 1319.5835,-154.4082 1320.7371,-155.2481 1321.6707,-156.1093 1322.3857,-156.9894 1322.8844,-157.886 1323.1701,-158.7965 1323.247,-159.7186 1323.1201,-160.6497 1322.7952,-161.5873 1322.2789,-162.5287 1321.5783,-163.4713 1320.7012,-164.4127 1319.6555,-165.3503 1318.4498,-166.2814 1317.0929,-167.2035 1315.5938,-168.114 1313.9616,-169.0106 1312.2053,-169.8907 1310.3341,-170.7519 1308.357,-171.5918 1306.2827,-172.4082 1304.1199,-173.1988 1301.8768,-173.9615 1299.5612,-174.6941 1297.1809,-175.3946 1294.7428,-176.0612 1292.2537,-176.692 1289.7198,-177.2853 1287.1469,-177.8394 1284.5401,-178.3528 1281.9044,-178.8241 1279.244,-179.2521 1276.5629,-179.6355 1273.8646,-179.9734 1271.1522,-180.2647 1268.4285,-180.5087 1265.6959,-180.7047 1262.9566,-180.8521 1260.2128,-180.9507 1257.4663,-181 1254.719,-181 1251.9725,-180.9507 1249.2287,-180.8521 1246.4895,-180.7047 1243.7569,-180.5087 1241.0331,-180.2647 1238.3207,-179.9734 1235.6224,-179.6355 1232.9413,-179.2521 1230.2809,-178.8241 1227.6452,-178.3528 1225.0385,-177.8394 1222.4655,-177.2853 1219.9316,-176.692 1217.4425,-176.0612 1215.0044,-175.3946 1212.6241,-174.6941 1210.3086,-173.9615 1208.0654,-173.1988 1205.9026,-172.4082 1203.8283,-171.5918 1201.8512,-170.7519 1199.98,-169.8907 1198.2237,-169.0106 1196.5915,-168.114 1195.0924,-167.2035 1193.7355,-166.2814 1192.5298,-165.3503 1191.4842,-164.4127 1190.607,-163.4713 1189.9064,-162.5287 1189.3901,-161.5873 1189.0653,-160.6497 1188.9384,-159.7186 1189.0152,-158.7965 1189.3009,-157.886 1189.7996,-156.9894 1190.5146,-156.1093 1191.4482,-155.2481 1192.6018,-154.4082 1193.9755,-153.5918 1195.5684,-152.8012 1197.3786,-152.0385 1199.4028,-151.3059 1201.6367,-150.6054 1204.0748,-149.9388 1206.7103,-149.308 1209.5355,-148.7147 1212.5415,-148.1606 1215.7181,-147.6472 1219.0544,-147.1759 1222.5384,-146.7479 1226.157,-146.3645 1229.8966,-146.0266 1233.7425,-145.7353 1237.6797,-145.4913 1241.6923,-145.2953 1245.7641,-145.1479 1249.8784,-145.0493 1254.0184,-145 1258.1669,-145 1262.3069,-145.0493"/>
<text text-anchor="middle" x="1256.0927" y="-160.5" font-family="Courier,monospace" font-weight="bold" font-size="10.00" fill="#000000">(2, &#39;T,2,1&#39;)</text>
</g>
<!-- (1, &#39;D,2,1&#39;)&#45;&gt;(2, &#39;T,2,1&#39;) -->
<g id="edge11" class="edge">
<title>(1, &#39;D,2,1&#39;)&#45;&gt;(2, &#39;T,2,1&#39;)</title>
<path fill="none" stroke="#000000" d="M1115.9742,-197.0949C1142.2173,-190.7092 1173.8855,-183.0034 1200.4714,-176.5343"/>
<polygon fill="#000000" stroke="#000000" points="1201.501,-179.8859 1210.39,-174.1208 1199.846,-173.0844 1201.501,-179.8859"/>
<text text-anchor="middle" x="1159.5156" y="-190" font-family="Courier,monospace" font-weight="bold" font-size="10.00" fill="#000000">1.0</text>
</g>
<!-- (1, &#39;I,2,0&#39;)&#45;&gt;(1, &#39;D,2,1&#39;) -->
<g id="edge12" class="edge">
<title>(1, &#39;I,2,0&#39;)&#45;&gt;(1, &#39;D,2,1&#39;)</title>
<path fill="none" stroke="#000000" d="M811.5493,-210C862.6114,-210 933.3113,-210 986.7321,-210"/>
<polygon fill="#000000" stroke="#000000" points="986.8357,-213.5001 996.8357,-210 986.8356,-206.5001 986.8357,-213.5001"/>
<text text-anchor="middle" x="906.3613" y="-213" font-family="Courier,monospace" font-weight="bold" font-size="10.00" fill="#000000">1.0</text>
</g>
<!-- (1, &#39;I,2,1&#39;)&#45;&gt;(2, &#39;T,2,1&#39;) -->
<g id="edge13" class="edge">
<title>(1, &#39;I,2,1&#39;)&#45;&gt;(2, &#39;T,2,1&#39;)</title>
<path fill="none" stroke="#000000" d="M1099.7239,-104.7121C1129.7104,-115.8899 1172.3758,-131.7938 1205.5666,-144.1659"/>
<polygon fill="#000000" stroke="#000000" points="1204.5046,-147.5053 1215.0973,-147.7186 1206.9496,-140.9462 1204.5046,-147.5053"/>
<text text-anchor="middle" x="1159.5156" y="-132" font-family="Courier,monospace" font-weight="bold" font-size="10.00" fill="#000000">1.0</text>
</g>
<!-- (1, &#39;M,2,1&#39;)&#45;&gt;(2, &#39;T,2,1&#39;) -->
<g id="edge14" class="edge">
<title>(1, &#39;M,2,1&#39;)&#45;&gt;(2, &#39;T,2,1&#39;)</title>
<path fill="none" stroke="#000000" d="M972.5543,-163.8107C1031.6438,-163.6418 1118.162,-163.3944 1180.0691,-163.2174"/>
<polygon fill="#000000" stroke="#000000" points="1180.1805,-166.7172 1190.1704,-163.1885 1180.1604,-159.7172 1180.1805,-166.7172"/>
<text text-anchor="middle" x="1062.9384" y="-166" font-family="Courier,monospace" font-weight="bold" font-size="10.00" fill="#000000">1.0</text>
</g>
<!-- (2, &#39;T,2,1&#39;)&#45;&gt;(&#45;1, &#39;VITERBI_SINK&#39;) -->
<g id="edge15" class="edge">
<title>(2, &#39;T,2,1&#39;)&#45;&gt;(&#45;1, &#39;VITERBI_SINK&#39;)</title>
<path fill="none" stroke="#000000" d="M1322.2214,-163C1338.2537,-163 1355.8478,-163 1373.3833,-163"/>
<polygon fill="#000000" stroke="#000000" points="1373.6889,-166.5001 1383.6888,-163 1373.6888,-159.5001 1373.6889,-166.5001"/>
<text text-anchor="middle" x="1352.6698" y="-166" font-family="Courier,monospace" font-weight="bold" font-size="10.00" fill="#000000">1.0</text>
</g>
</g>
</svg>
