<?xml version="1.0" encoding="UTF-8" standalone="no"?>
<!DOCTYPE svg PUBLIC "-//W3C//DTD SVG 1.1//EN"
 "http://www.w3.org/Graphics/SVG/1.1/DTD/svg11.dtd">
<!-- Generated by graphviz version 2.40.1 (0)
 -->
<!-- Title: G Pages: 1 -->
<svg width="249pt" height="84pt"
 viewBox="0.00 0.00 249.00 84.00" xmlns="http://www.w3.org/2000/svg" xmlns:xlink="http://www.w3.org/1999/xlink">
<g id="graph0" class="graph" transform="scale(1 1) rotate(0) translate(4 80)">
<title>G</title>
<polygon fill="#ffffff" stroke="transparent" points="-4,4 -4,-80 245,-80 245,4 -4,4"/>
<!-- v0 -->
<g id="node1" class="node">
<title>v0</title>
<ellipse fill="none" stroke="#000000" cx="14.5" cy="-61.5" rx="14.5" ry="14.5"/>
<text text-anchor="middle" x="14.5" y="-59" font-family="Courier,monospace" font-weight="bold" font-size="10.00" fill="#000000">v0</text>
</g>
<!-- i0 -->
<g id="node2" class="node">
<title>i0</title>
<ellipse fill="none" stroke="#000000" cx="87.5" cy="-37.5" rx="14.5" ry="14.5"/>
<text text-anchor="middle" x="87.5" y="-35" font-family="Courier,monospace" font-weight="bold" font-size="10.00" fill="#000000">i0</text>
</g>
<!-- v0&#45;&#45;i0 -->
<g id="edge1" class="edge">
<title>v0&#45;&#45;i0</title>
<path fill="none" stroke="#ff0000" stroke-width="2.5" d="M28.5751,-56.8726C41.5018,-52.6227 60.5551,-46.3586 73.4681,-42.1132"/>
<text text-anchor="middle" x="51" y="-52.5" font-family="Courier,monospace" font-weight="bold" font-size="10.00" fill="#000000">1</text>
</g>
<!-- i1 -->
<g id="node4" class="node">
<title>i1</title>
<ellipse fill="none" stroke="#000000" cx="153.5" cy="-37.5" rx="14.5" ry="14.5"/>
<text text-anchor="middle" x="153.5" y="-35" font-family="Courier,monospace" font-weight="bold" font-size="10.00" fill="#000000">i1</text>
</g>
<!-- i0&#45;&#45;i1 -->
<g id="edge3" class="edge">
<title>i0&#45;&#45;i1</title>
<path fill="none" stroke="#000000" d="M102.1475,-37.5C113.0849,-37.5 127.9659,-37.5 138.8934,-37.5"/>
</g>
<!-- v1 -->
<g id="node3" class="node">
<title>v1</title>
<ellipse fill="none" stroke="#000000" cx="14.5" cy="-14.5" rx="14.5" ry="14.5"/>
<text text-anchor="middle" x="14.5" y="-12" font-family="Courier,monospace" font-weight="bold" font-size="10.00" fill="#000000">v1</text>
</g>
<!-- v1&#45;&#45;i0 -->
<g id="edge2" class="edge">
<title>v1&#45;&#45;i0</title>
<path fill="none" stroke="#ff0000" stroke-width="2.5" d="M28.5751,-18.9346C41.5018,-23.0074 60.5551,-29.0105 73.4681,-33.079"/>
<text text-anchor="middle" x="51" y="-29.5" font-family="Courier,monospace" font-weight="bold" font-size="10.00" fill="#000000">2</text>
</g>
<!-- v2 -->
<g id="node5" class="node">
<title>v2</title>
<ellipse fill="none" stroke="#000000" cx="226.5" cy="-61.5" rx="14.5" ry="14.5"/>
<text text-anchor="middle" x="226.5" y="-59" font-family="Courier,monospace" font-weight="bold" font-size="10.00" fill="#000000">v2</text>
</g>
<!-- i1&#45;&#45;v2 -->
<g id="edge4" class="edge">
<title>i1&#45;&#45;v2</title>
<path fill="none" stroke="#ff0000" stroke-width="2.5" d="M167.5751,-42.1274C180.5018,-46.3773 199.5551,-52.6414 212.4681,-56.8868"/>
<text text-anchor="middle" x="190" y="-52.5" font-family="Courier,monospace" font-weight="bold" font-size="10.00" fill="#000000">1</text>
</g>
<!-- v3 -->
<g id="node6" class="node">
<title>v3</title>
<ellipse fill="none" stroke="#000000" cx="226.5" cy="-14.5" rx="14.5" ry="14.5"/>
<text text-anchor="middle" x="226.5" y="-12" font-family="Courier,monospace" font-weight="bold" font-size="10.00" fill="#000000">v3</text>
</g>
<!-- i1&#45;&#45;v3 -->
<g id="edge5" class="edge">
<title>i1&#45;&#45;v3</title>
<path fill="none" stroke="#ff0000" stroke-width="2.5" d="M167.5751,-33.0654C180.5018,-28.9926 199.5551,-22.9895 212.4681,-18.921"/>
<text text-anchor="middle" x="190" y="-29.5" font-family="Courier,monospace" font-weight="bold" font-size="10.00" fill="#000000">3</text>
</g>
</g>
</svg>
