<?xml version="1.0" encoding="UTF-8" standalone="no"?>
<!DOCTYPE svg PUBLIC "-//W3C//DTD SVG 1.1//EN"
 "http://www.w3.org/Graphics/SVG/1.1/DTD/svg11.dtd">
<!-- Generated by graphviz version 2.40.1 (0)
 -->
<!-- Title: G Pages: 1 -->
<svg width="2168pt" height="199pt"
 viewBox="0.00 0.00 2168.16 198.53" xmlns="http://www.w3.org/2000/svg" xmlns:xlink="http://www.w3.org/1999/xlink">
<g id="graph0" class="graph" transform="scale(1 1) rotate(0) translate(4 194.529)">
<title>G</title>
<polygon fill="#ffffff" stroke="transparent" points="-4,4 -4,-194.529 2164.163,-194.529 2164.163,4 -4,4"/>
<text text-anchor="middle" x="1080.0815" y="-175.329" font-family="Times,serif" font-size="14.00" fill="#000000">ALL possible left&#45;hand sides (forward)</text>
<!-- (&#45;1, &#39;SINK&#39;) -->
<g id="node1" class="node">
<title>(&#45;1, &#39;SINK&#39;)</title>
<polygon fill="none" stroke="#000000" points="2046.0223,-15.9241 2053.7119,-16.0415 2061.3221,-16.2172 2068.8216,-16.4506 2076.1801,-16.7413 2083.3682,-17.0883 2090.3574,-17.4908 2097.1206,-17.9476 2103.632,-18.4574 2109.8675,-19.0189 2115.8046,-19.6306 2121.4227,-20.2907 2126.703,-20.9974 2131.6288,-21.7488 2136.1855,-22.5429 2140.3606,-23.3775 2144.1439,-24.2503 2147.527,-25.1588 2150.5042,-26.1007 2153.0716,-27.0732 2155.2276,-28.0738 2156.9726,-29.0998 2158.3089,-30.1482 2159.241,-31.2163 2159.7749,-32.301 2159.9185,-33.3995 2159.6814,-34.5087 2159.0742,-35.6256 2158.1093,-36.7471 2156.7999,-37.8701 2155.1605,-38.9916 2153.2061,-40.1084 2150.9527,-41.2176 2148.4168,-42.3161 2145.6149,-43.4009 2142.5643,-44.4689 2139.2818,-45.5174 2135.7846,-46.5433 2132.0894,-47.5439 2128.2126,-48.5165 2124.1703,-49.4583 2119.9779,-50.3669 2115.6502,-51.2396 2111.2014,-52.0742 2106.6446,-52.8683 2101.9926,-53.6198 2097.2567,-54.3265 2092.4479,-54.9866 2087.5759,-55.5982 2082.6498,-56.1597 2077.6776,-56.6696 2072.6667,-57.1264 2067.6236,-57.5288 2062.5541,-57.8758 2057.4634,-58.1665 2052.3563,-58.4 2047.2367,-58.5757 2042.1086,-58.6931 2036.9754,-58.7518 2031.8406,-58.7518 2026.7075,-58.6931 2021.5793,-58.5757 2016.4598,-58.4 2011.3526,-58.1665 2006.2619,-57.8758 2001.1925,-57.5288 1996.1493,-57.1264 1991.1384,-56.6696 1986.1663,-56.1597 1981.2401,-55.5982 1976.3681,-54.9866 1971.5593,-54.3265 1966.8235,-53.6198 1962.1714,-52.8683 1957.6147,-52.0742 1953.1658,-51.2396 1948.8381,-50.3669 1944.6457,-49.4583 1940.6034,-48.5165 1936.7266,-47.5439 1933.0314,-46.5433 1929.5342,-45.5174 1926.2518,-44.4689 1923.2011,-43.4009 1920.3993,-42.3161 1917.8633,-41.2176 1915.6099,-40.1084 1913.6556,-38.9916 1912.0161,-37.8701 1910.7068,-36.7471 1909.7418,-35.6256 1909.1347,-34.5087 1908.8975,-33.3995 1909.0412,-32.301 1909.5751,-31.2163 1910.5071,-30.1482 1911.8435,-29.0998 1913.5884,-28.0738 1915.7444,-27.0732 1918.3118,-26.1007 1921.289,-25.1588 1924.6722,-24.2503 1928.4554,-23.3775 1932.6305,-22.5429 1937.1872,-21.7488 1942.1131,-20.9974 1947.3934,-20.2907 1953.0114,-19.6306 1958.9485,-19.0189 1965.184,-18.4574 1971.6955,-17.9476 1978.4586,-17.4908 1985.4478,-17.0883 1992.6359,-16.7413 1999.9945,-16.4506 2007.494,-16.2172 2015.1041,-16.0415 2022.7937,-15.9241 2030.5312,-15.8653 2038.2848,-15.8653 2046.0223,-15.9241"/>
<text text-anchor="middle" x="2034.408" y="-40.3086" font-family="Courier,monospace" font-weight="bold" font-size="10.00" fill="#000000">(&#45;1, &#39;SINK&#39;)</text>
<text text-anchor="middle" x="2034.408" y="-29.3086" font-family="Courier,monospace" font-weight="bold" font-size="10.00" fill="#000000">0.038671885171816495</text>
</g>
<!-- (&#45;1, &#39;SOURCE&#39;) -->
<g id="node2" class="node">
<title>(&#45;1, &#39;SOURCE&#39;)</title>
<polygon fill="none" stroke="#000000" points="100.3581,-44.9241 105.9786,-45.0415 111.5409,-45.2172 117.0225,-45.4506 122.401,-45.7413 127.6549,-46.0883 132.7634,-46.4908 137.7068,-46.9476 142.4661,-47.4574 147.0237,-48.0189 151.3633,-48.6306 155.4696,-49.2907 159.3291,-49.9974 162.9295,-50.7488 166.2601,-51.5429 169.3118,-52.3775 172.077,-53.2503 174.5498,-54.1588 176.7259,-55.1007 178.6025,-56.0732 180.1783,-57.0738 181.4537,-58.0998 182.4305,-59.1482 183.1117,-60.2163 183.502,-61.301 183.607,-62.3995 183.4336,-63.5087 182.9899,-64.6256 182.2846,-65.7471 181.3275,-66.8701 180.1292,-67.9916 178.7008,-69.1084 177.0537,-70.2176 175.2001,-71.3161 173.1522,-72.4009 170.9224,-73.4689 168.5232,-74.5174 165.9671,-75.5433 163.2662,-76.5439 160.4325,-77.5165 157.4779,-78.4583 154.4136,-79.3669 151.2504,-80.2396 147.9987,-81.0742 144.6681,-81.8683 141.2678,-82.6198 137.8063,-83.3265 134.2914,-83.9866 130.7304,-84.5982 127.1298,-85.1597 123.4955,-85.6696 119.8329,-86.1264 116.1468,-86.5288 112.4415,-86.8758 108.7206,-87.1665 104.9877,-87.4 101.2457,-87.5757 97.4974,-87.6931 93.7455,-87.7518 89.9924,-87.7518 86.2405,-87.6931 82.4922,-87.5757 78.7502,-87.4 75.0173,-87.1665 71.2964,-86.8758 67.591,-86.5288 63.9049,-86.1264 60.2424,-85.6696 56.6081,-85.1597 53.0075,-84.5982 49.4465,-83.9866 45.9316,-83.3265 42.4701,-82.6198 39.0698,-81.8683 35.7392,-81.0742 32.4874,-80.2396 29.3243,-79.3669 26.2599,-78.4583 23.3053,-77.5165 20.4717,-76.5439 17.7708,-75.5433 15.2146,-74.5174 12.8154,-73.4689 10.5857,-72.4009 8.5378,-71.3161 6.6842,-70.2176 5.0371,-69.1084 3.6087,-67.9916 2.4103,-66.8701 1.4533,-65.7471 .748,-64.6256 .3042,-63.5087 .1309,-62.3995 .2359,-61.301 .6261,-60.2163 1.3074,-59.1482 2.2842,-58.0998 3.5596,-57.0738 5.1354,-56.0732 7.012,-55.1007 9.1881,-54.1588 11.6609,-53.2503 14.4261,-52.3775 17.4778,-51.5429 20.8084,-50.7488 24.4088,-49.9974 28.2682,-49.2907 32.3746,-48.6306 36.7141,-48.0189 41.2718,-47.4574 46.0311,-46.9476 50.9745,-46.4908 56.083,-46.0883 61.3369,-45.7413 66.7154,-45.4506 72.1969,-45.2172 77.7593,-45.0415 83.3798,-44.9241 89.0353,-44.8653 94.7025,-44.8653 100.3581,-44.9241"/>
<text text-anchor="middle" x="91.8689" y="-69.3086" font-family="Courier,monospace" font-weight="bold" font-size="10.00" fill="#000000">(&#45;1, &#39;SOURCE&#39;)</text>
<text text-anchor="middle" x="91.8689" y="-58.3086" font-family="Courier,monospace" font-weight="bold" font-size="10.00" fill="#000000">1.0</text>
</g>
<!-- (0, &#39;A&#39;) -->
<g id="node3" class="node">
<title>(0, &#39;A&#39;)</title>
<polygon fill="none" stroke="#000000" points="626.0312,-20.9241 633.3809,-21.0415 640.6546,-21.2172 647.8226,-21.4506 654.8559,-21.7413 661.7262,-22.0883 668.4064,-22.4908 674.8706,-22.9476 681.0942,-23.4574 687.054,-24.0189 692.7287,-24.6306 698.0984,-25.2907 703.1453,-25.9974 707.8533,-26.7488 712.2086,-27.5429 716.1992,-28.3775 719.8151,-29.2503 723.0488,-30.1588 725.8943,-31.1007 728.3482,-32.0732 730.4089,-33.0738 732.0767,-34.0998 733.354,-35.1482 734.2448,-36.2163 734.7552,-37.301 734.8925,-38.3995 734.6658,-39.5087 734.0855,-40.6256 733.1632,-41.7471 731.9117,-42.8701 730.3447,-43.9916 728.4768,-45.1084 726.323,-46.2176 723.8991,-47.3161 721.2212,-48.4009 718.3054,-49.4689 715.1681,-50.5174 711.8254,-51.5433 708.2936,-52.5439 704.5882,-53.5165 700.7246,-54.4583 696.7175,-55.3669 692.5811,-56.2396 688.3289,-57.0742 683.9736,-57.8683 679.5272,-58.6198 675.0007,-59.3265 670.4045,-59.9866 665.7479,-60.5982 661.0395,-61.1597 656.2871,-61.6696 651.4977,-62.1264 646.6776,-62.5288 641.8322,-62.8758 636.9666,-63.1665 632.0852,-63.4 627.1919,-63.5757 622.2905,-63.6931 617.3843,-63.7518 612.4765,-63.7518 607.5702,-63.6931 602.6688,-63.5757 597.7756,-63.4 592.8941,-63.1665 588.0285,-62.8758 583.1832,-62.5288 578.363,-62.1264 573.5736,-61.6696 568.8212,-61.1597 564.1129,-60.5982 559.4563,-59.9866 554.86,-59.3265 550.3335,-58.6198 545.8871,-57.8683 541.5318,-57.0742 537.2796,-56.2396 533.1432,-55.3669 529.1362,-54.4583 525.2726,-53.5165 521.5672,-52.5439 518.0353,-51.5433 514.6927,-50.5174 511.5554,-49.4689 508.6396,-48.4009 505.9616,-47.3161 503.5377,-46.2176 501.384,-45.1084 499.516,-43.9916 497.949,-42.8701 496.6975,-41.7471 495.7753,-40.6256 495.195,-39.5087 494.9683,-38.3995 495.1056,-37.301 495.6159,-36.2163 496.5068,-35.1482 497.784,-34.0998 499.4518,-33.0738 501.5125,-32.0732 503.9664,-31.1007 506.812,-30.1588 510.0456,-29.2503 513.6616,-28.3775 517.6521,-27.5429 522.0074,-26.7488 526.7155,-25.9974 531.7623,-25.2907 537.1321,-24.6306 542.8067,-24.0189 548.7665,-23.4574 554.9901,-22.9476 561.4543,-22.4908 568.1346,-22.0883 575.0049,-21.7413 582.0381,-21.4506 589.2061,-21.2172 596.4798,-21.0415 603.8295,-20.9241 611.225,-20.8653 618.6358,-20.8653 626.0312,-20.9241"/>
<text text-anchor="middle" x="614.9304" y="-45.3086" font-family="Courier,monospace" font-weight="bold" font-size="10.00" fill="#000000">(0, &#39;A&#39;)</text>
<text text-anchor="middle" x="614.9304" y="-34.3086" font-family="Courier,monospace" font-weight="bold" font-size="10.00" fill="#000000">0.11401579526142158</text>
</g>
<!-- (&#45;1, &#39;SOURCE&#39;)&#45;&gt;(0, &#39;A&#39;) -->
<g id="edge1" class="edge">
<title>(&#45;1, &#39;SOURCE&#39;)&#45;&gt;(0, &#39;A&#39;)</title>
<path fill="none" stroke="#000000" d="M183.8776,-62.0869C270.5656,-58.1093 400.9161,-52.1283 495.5715,-47.7852"/>
<polygon fill="#000000" stroke="#000000" points="495.9434,-51.2719 505.7724,-47.3171 495.6225,-44.2793 495.9434,-51.2719"/>
</g>
<!-- (0, &#39;B&#39;) -->
<g id="node4" class="node">
<title>(0, &#39;B&#39;)</title>
<polygon fill="none" stroke="#000000" points="350.5696,-69.9241 357.9193,-70.0415 365.193,-70.2172 372.361,-70.4506 379.3942,-70.7413 386.2645,-71.0883 392.9447,-71.4908 399.409,-71.9476 405.6325,-72.4574 411.5924,-73.0189 417.267,-73.6306 422.6367,-74.2907 427.6836,-74.9974 432.3917,-75.7488 436.747,-76.5429 440.7375,-77.3775 444.3535,-78.2503 447.5871,-79.1588 450.4327,-80.1007 452.8866,-81.0732 454.9472,-82.0738 456.6151,-83.0998 457.8923,-84.1482 458.7832,-85.2163 459.2935,-86.301 459.4308,-87.3995 459.2041,-88.5087 458.6238,-89.6256 457.7015,-90.7471 456.45,-91.8701 454.8831,-92.9916 453.0151,-94.1084 450.8614,-95.2176 448.4375,-96.3161 445.7595,-97.4009 442.8437,-98.4689 439.7064,-99.5174 436.3638,-100.5433 432.8319,-101.5439 429.1265,-102.5165 425.2629,-103.4583 421.2558,-104.3669 417.1195,-105.2396 412.8673,-106.0742 408.512,-106.8683 404.0656,-107.6198 399.5391,-108.3265 394.9428,-108.9866 390.2862,-109.5982 385.5779,-110.1597 380.8255,-110.6696 376.0361,-111.1264 371.2159,-111.5288 366.3705,-111.8758 361.5049,-112.1665 356.6235,-112.4 351.7303,-112.5757 346.8288,-112.6931 341.9226,-112.7518 337.0148,-112.7518 332.1086,-112.6931 327.2071,-112.5757 322.3139,-112.4 317.4325,-112.1665 312.5669,-111.8758 307.7215,-111.5288 302.9013,-111.1264 298.1119,-110.6696 293.3596,-110.1597 288.6512,-109.5982 283.9946,-108.9866 279.3983,-108.3265 274.8719,-107.6198 270.4254,-106.8683 266.0701,-106.0742 261.818,-105.2396 257.6816,-104.3669 253.6745,-103.4583 249.8109,-102.5165 246.1055,-101.5439 242.5736,-100.5433 239.231,-99.5174 236.0937,-98.4689 233.1779,-97.4009 230.4999,-96.3161 228.0761,-95.2176 225.9223,-94.1084 224.0543,-92.9916 222.4874,-91.8701 221.2359,-90.7471 220.3136,-89.6256 219.7333,-88.5087 219.5066,-87.3995 219.6439,-86.301 220.1542,-85.2163 221.0451,-84.1482 222.3224,-83.0998 223.9902,-82.0738 226.0508,-81.0732 228.5047,-80.1007 231.3503,-79.1588 234.5839,-78.2503 238.1999,-77.3775 242.1905,-76.5429 246.5457,-75.7488 251.2538,-74.9974 256.3007,-74.2907 261.6704,-73.6306 267.345,-73.0189 273.3049,-72.4574 279.5285,-71.9476 285.9927,-71.4908 292.6729,-71.0883 299.5432,-70.7413 306.5765,-70.4506 313.7444,-70.2172 321.0181,-70.0415 328.3678,-69.9241 335.7633,-69.8653 343.1741,-69.8653 350.5696,-69.9241"/>
<text text-anchor="middle" x="339.4687" y="-94.3086" font-family="Courier,monospace" font-weight="bold" font-size="10.00" fill="#000000">(0, &#39;B&#39;)</text>
<text text-anchor="middle" x="339.4687" y="-83.3086" font-family="Courier,monospace" font-weight="bold" font-size="10.00" fill="#000000">0.10151954413675898</text>
</g>
<!-- (&#45;1, &#39;SOURCE&#39;)&#45;&gt;(0, &#39;B&#39;) -->
<g id="edge2" class="edge">
<title>(&#45;1, &#39;SOURCE&#39;)&#45;&gt;(0, &#39;B&#39;)</title>
<path fill="none" stroke="#000000" d="M169.5317,-74.1501C184.9172,-75.7036 201.4121,-77.3691 217.8555,-79.0294"/>
<polygon fill="#000000" stroke="#000000" points="217.7758,-82.539 228.0768,-80.0614 218.4791,-75.5744 217.7758,-82.539"/>
</g>
<!-- (1, &#39;A&#39;) -->
<g id="node6" class="node">
<title>(1, &#39;A&#39;)</title>
<polygon fill="none" stroke="#000000" points="908.0305,-39.9241 915.7202,-40.0415 923.3303,-40.2172 930.8298,-40.4506 938.1883,-40.7413 945.3764,-41.0883 952.3656,-41.4908 959.1288,-41.9476 965.6402,-42.4574 971.8757,-43.0189 977.8128,-43.6306 983.4309,-44.2907 988.7112,-44.9974 993.637,-45.7488 998.1937,-46.5429 1002.3689,-47.3775 1006.1521,-48.2503 1009.5352,-49.1588 1012.5124,-50.1007 1015.0798,-51.0732 1017.2358,-52.0738 1018.9808,-53.0998 1020.3171,-54.1482 1021.2492,-55.2163 1021.7831,-56.301 1021.9267,-57.3995 1021.6896,-58.5087 1021.0824,-59.6256 1020.1175,-60.7471 1018.8081,-61.8701 1017.1687,-62.9916 1015.2143,-64.1084 1012.9609,-65.2176 1010.425,-66.3161 1007.6231,-67.4009 1004.5725,-68.4689 1001.29,-69.5174 997.7928,-70.5433 994.0976,-71.5439 990.2208,-72.5165 986.1785,-73.4583 981.9861,-74.3669 977.6584,-75.2396 973.2096,-76.0742 968.6528,-76.8683 964.0008,-77.6198 959.2649,-78.3265 954.4561,-78.9866 949.5841,-79.5982 944.658,-80.1597 939.6858,-80.6696 934.6749,-81.1264 929.6318,-81.5288 924.5623,-81.8758 919.4717,-82.1665 914.3645,-82.4 909.2449,-82.5757 904.1168,-82.6931 898.9836,-82.7518 893.8488,-82.7518 888.7157,-82.6931 883.5875,-82.5757 878.468,-82.4 873.3608,-82.1665 868.2701,-81.8758 863.2007,-81.5288 858.1575,-81.1264 853.1466,-80.6696 848.1745,-80.1597 843.2483,-79.5982 838.3763,-78.9866 833.5675,-78.3265 828.8317,-77.6198 824.1796,-76.8683 819.6229,-76.0742 815.174,-75.2396 810.8463,-74.3669 806.6539,-73.4583 802.6116,-72.5165 798.7348,-71.5439 795.0396,-70.5433 791.5424,-69.5174 788.26,-68.4689 785.2093,-67.4009 782.4075,-66.3161 779.8715,-65.2176 777.6181,-64.1084 775.6638,-62.9916 774.0243,-61.8701 772.715,-60.7471 771.75,-59.6256 771.1429,-58.5087 770.9057,-57.3995 771.0494,-56.301 771.5833,-55.2163 772.5154,-54.1482 773.8517,-53.0998 775.5966,-52.0738 777.7526,-51.0732 780.32,-50.1007 783.2972,-49.1588 786.6804,-48.2503 790.4636,-47.3775 794.6387,-46.5429 799.1954,-45.7488 804.1213,-44.9974 809.4016,-44.2907 815.0196,-43.6306 820.9567,-43.0189 827.1922,-42.4574 833.7037,-41.9476 840.4668,-41.4908 847.456,-41.0883 854.6441,-40.7413 862.0027,-40.4506 869.5022,-40.2172 877.1123,-40.0415 884.8019,-39.9241 892.5395,-39.8653 900.293,-39.8653 908.0305,-39.9241"/>
<text text-anchor="middle" x="896.4162" y="-64.3086" font-family="Courier,monospace" font-weight="bold" font-size="10.00" fill="#000000">(1, &#39;A&#39;)</text>
<text text-anchor="middle" x="896.4162" y="-53.3086" font-family="Courier,monospace" font-weight="bold" font-size="10.00" fill="#000000">0.016771308806677928</text>
</g>
<!-- (0, &#39;A&#39;)&#45;&gt;(1, &#39;A&#39;) -->
<g id="edge3" class="edge">
<title>(0, &#39;A&#39;)&#45;&gt;(1, &#39;A&#39;)</title>
<path fill="none" stroke="#000000" d="M718.9456,-49.3295C733.4517,-50.3086 748.5174,-51.3256 763.4656,-52.3345"/>
<polygon fill="#000000" stroke="#000000" points="763.5742,-55.8498 773.7873,-53.0312 764.0457,-48.8656 763.5742,-55.8498"/>
</g>
<!-- (1, &#39;B&#39;) -->
<g id="node7" class="node">
<title>(1, &#39;B&#39;)</title>
<polygon fill="none" stroke="#000000" points="907.5171,-108.9241 914.8668,-109.0415 922.1405,-109.2172 929.3085,-109.4506 936.3417,-109.7413 943.212,-110.0883 949.8923,-110.4908 956.3565,-110.9476 962.58,-111.4574 968.5399,-112.0189 974.2145,-112.6306 979.5842,-113.2907 984.6311,-113.9974 989.3392,-114.7488 993.6945,-115.5429 997.685,-116.3775 1001.301,-117.2503 1004.5346,-118.1588 1007.3802,-119.1007 1009.8341,-120.0732 1011.8948,-121.0738 1013.5626,-122.0998 1014.8398,-123.1482 1015.7307,-124.2163 1016.241,-125.301 1016.3783,-126.3995 1016.1516,-127.5087 1015.5713,-128.6256 1014.649,-129.7471 1013.3976,-130.8701 1011.8306,-131.9916 1009.9626,-133.1084 1007.8089,-134.2176 1005.385,-135.3161 1002.707,-136.4009 999.7912,-137.4689 996.6539,-138.5174 993.3113,-139.5433 989.7794,-140.5439 986.074,-141.5165 982.2104,-142.4583 978.2033,-143.3669 974.067,-144.2396 969.8148,-145.0742 965.4595,-145.8683 961.0131,-146.6198 956.4866,-147.3265 951.8903,-147.9866 947.2337,-148.5982 942.5254,-149.1597 937.773,-149.6696 932.9836,-150.1264 928.1634,-150.5288 923.3181,-150.8758 918.4524,-151.1665 913.571,-151.4 908.6778,-151.5757 903.7764,-151.6931 898.8701,-151.7518 893.9623,-151.7518 889.0561,-151.6931 884.1547,-151.5757 879.2614,-151.4 874.38,-151.1665 869.5144,-150.8758 864.669,-150.5288 859.8488,-150.1264 855.0594,-149.6696 850.3071,-149.1597 845.5987,-148.5982 840.9421,-147.9866 836.3459,-147.3265 831.8194,-146.6198 827.3729,-145.8683 823.0177,-145.0742 818.7655,-144.2396 814.6291,-143.3669 810.622,-142.4583 806.7584,-141.5165 803.053,-140.5439 799.5211,-139.5433 796.1785,-138.5174 793.0412,-137.4689 790.1254,-136.4009 787.4474,-135.3161 785.0236,-134.2176 782.8698,-133.1084 781.0019,-131.9916 779.4349,-130.8701 778.1834,-129.7471 777.2611,-128.6256 776.6808,-127.5087 776.4541,-126.3995 776.5914,-125.301 777.1017,-124.2163 777.9926,-123.1482 779.2699,-122.0998 780.9377,-121.0738 782.9983,-120.0732 785.4523,-119.1007 788.2978,-118.1588 791.5314,-117.2503 795.1474,-116.3775 799.138,-115.5429 803.4933,-114.7488 808.2013,-113.9974 813.2482,-113.2907 818.6179,-112.6306 824.2925,-112.0189 830.2524,-111.4574 836.476,-110.9476 842.9402,-110.4908 849.6204,-110.0883 856.4907,-109.7413 863.524,-109.4506 870.692,-109.2172 877.9657,-109.0415 885.3153,-108.9241 892.7108,-108.8653 900.1216,-108.8653 907.5171,-108.9241"/>
<text text-anchor="middle" x="896.4162" y="-133.3086" font-family="Courier,monospace" font-weight="bold" font-size="10.00" fill="#000000">(1, &#39;B&#39;)</text>
<text text-anchor="middle" x="896.4162" y="-122.3086" font-family="Courier,monospace" font-weight="bold" font-size="10.00" fill="#000000">0.02882894308693349</text>
</g>
<!-- (0, &#39;A&#39;)&#45;&gt;(1, &#39;B&#39;) -->
<g id="edge4" class="edge">
<title>(0, &#39;A&#39;)&#45;&gt;(1, &#39;B&#39;)</title>
<path fill="none" stroke="#000000" d="M670.7735,-59.9405C700.4371,-69.291 737.52,-80.9558 770.6612,-91.3086 788.1501,-96.7718 807.0158,-102.6374 824.6817,-108.1177"/>
<polygon fill="#000000" stroke="#000000" points="823.7682,-111.4988 834.3562,-111.1176 825.8415,-104.8128 823.7682,-111.4988"/>
</g>
<!-- (0, &#39;C&#39;) -->
<g id="node5" class="node">
<title>(0, &#39;C&#39;)</title>
<polygon fill="none" stroke="#000000" points="626.0312,-118.9241 633.3809,-119.0415 640.6546,-119.2172 647.8226,-119.4506 654.8559,-119.7413 661.7262,-120.0883 668.4064,-120.4908 674.8706,-120.9476 681.0942,-121.4574 687.054,-122.0189 692.7287,-122.6306 698.0984,-123.2907 703.1453,-123.9974 707.8533,-124.7488 712.2086,-125.5429 716.1992,-126.3775 719.8151,-127.2503 723.0488,-128.1588 725.8943,-129.1007 728.3482,-130.0732 730.4089,-131.0738 732.0767,-132.0998 733.354,-133.1482 734.2448,-134.2163 734.7552,-135.301 734.8925,-136.3995 734.6658,-137.5087 734.0855,-138.6256 733.1632,-139.7471 731.9117,-140.8701 730.3447,-141.9916 728.4768,-143.1084 726.323,-144.2176 723.8991,-145.3161 721.2212,-146.4009 718.3054,-147.4689 715.1681,-148.5174 711.8254,-149.5433 708.2936,-150.5439 704.5882,-151.5165 700.7246,-152.4583 696.7175,-153.3669 692.5811,-154.2396 688.3289,-155.0742 683.9736,-155.8683 679.5272,-156.6198 675.0007,-157.3265 670.4045,-157.9866 665.7479,-158.5982 661.0395,-159.1597 656.2871,-159.6696 651.4977,-160.1264 646.6776,-160.5288 641.8322,-160.8758 636.9666,-161.1665 632.0852,-161.4 627.1919,-161.5757 622.2905,-161.6931 617.3843,-161.7518 612.4765,-161.7518 607.5702,-161.6931 602.6688,-161.5757 597.7756,-161.4 592.8941,-161.1665 588.0285,-160.8758 583.1832,-160.5288 578.363,-160.1264 573.5736,-159.6696 568.8212,-159.1597 564.1129,-158.5982 559.4563,-157.9866 554.86,-157.3265 550.3335,-156.6198 545.8871,-155.8683 541.5318,-155.0742 537.2796,-154.2396 533.1432,-153.3669 529.1362,-152.4583 525.2726,-151.5165 521.5672,-150.5439 518.0353,-149.5433 514.6927,-148.5174 511.5554,-147.4689 508.6396,-146.4009 505.9616,-145.3161 503.5377,-144.2176 501.384,-143.1084 499.516,-141.9916 497.949,-140.8701 496.6975,-139.7471 495.7753,-138.6256 495.195,-137.5087 494.9683,-136.3995 495.1056,-135.301 495.6159,-134.2163 496.5068,-133.1482 497.784,-132.0998 499.4518,-131.0738 501.5125,-130.0732 503.9664,-129.1007 506.812,-128.1588 510.0456,-127.2503 513.6616,-126.3775 517.6521,-125.5429 522.0074,-124.7488 526.7155,-123.9974 531.7623,-123.2907 537.1321,-122.6306 542.8067,-122.0189 548.7665,-121.4574 554.9901,-120.9476 561.4543,-120.4908 568.1346,-120.0883 575.0049,-119.7413 582.0381,-119.4506 589.2061,-119.2172 596.4798,-119.0415 603.8295,-118.9241 611.225,-118.8653 618.6358,-118.8653 626.0312,-118.9241"/>
<text text-anchor="middle" x="614.9304" y="-143.3086" font-family="Courier,monospace" font-weight="bold" font-size="10.00" fill="#000000">(0, &#39;C&#39;)</text>
<text text-anchor="middle" x="614.9304" y="-132.3086" font-family="Courier,monospace" font-weight="bold" font-size="10.00" fill="#000000">0.07095812168167187</text>
</g>
<!-- (0, &#39;B&#39;)&#45;&gt;(0, &#39;C&#39;) -->
<g id="edge5" class="edge">
<title>(0, &#39;B&#39;)&#45;&gt;(0, &#39;C&#39;)</title>
<path fill="none" stroke="#000000" d="M417.6681,-105.2189C447.9392,-110.6036 482.961,-116.8334 515.0195,-122.5361"/>
<polygon fill="#000000" stroke="#000000" points="514.4065,-125.9819 524.865,-124.2875 515.6325,-119.0901 514.4065,-125.9819"/>
</g>
<!-- (0, &#39;B&#39;)&#45;&gt;(1, &#39;A&#39;) -->
<g id="edge6" class="edge">
<title>(0, &#39;B&#39;)&#45;&gt;(1, &#39;A&#39;)</title>
<path fill="none" stroke="#000000" d="M459.2635,-86.1683C537.638,-82.6526 642.2582,-77.6712 734.6612,-72.3086 749.0449,-71.4738 764.1436,-70.5331 779.0962,-69.5622"/>
<polygon fill="#000000" stroke="#000000" points="779.6644,-73.0325 789.4142,-68.8861 779.2067,-66.0475 779.6644,-73.0325"/>
</g>
<!-- (0, &#39;C&#39;)&#45;&gt;(1, &#39;B&#39;) -->
<g id="edge7" class="edge">
<title>(0, &#39;C&#39;)&#45;&gt;(1, &#39;B&#39;)</title>
<path fill="none" stroke="#000000" d="M734.7139,-136.0532C747.9496,-135.583 761.4383,-135.1038 774.6975,-134.6327"/>
<polygon fill="#000000" stroke="#000000" points="774.9148,-138.1273 784.7842,-134.2744 774.6662,-131.1317 774.9148,-138.1273"/>
</g>
<!-- (2, &#39;A&#39;) -->
<g id="node9" class="node">
<title>(2, &#39;A&#39;)</title>
<polygon fill="none" stroke="#000000" points="1195.5406,-64.9241 1203.2302,-65.0415 1210.8403,-65.2172 1218.3398,-65.4506 1225.6984,-65.7413 1232.8864,-66.0883 1239.8756,-66.4908 1246.6388,-66.9476 1253.1503,-67.4574 1259.3858,-68.0189 1265.3229,-68.6306 1270.9409,-69.2907 1276.2212,-69.9974 1281.147,-70.7488 1285.7038,-71.5429 1289.8789,-72.3775 1293.6621,-73.2503 1297.0453,-74.1588 1300.0225,-75.1007 1302.5899,-76.0732 1304.7459,-77.0738 1306.4908,-78.0998 1307.8271,-79.1482 1308.7592,-80.2163 1309.2931,-81.301 1309.4368,-82.3995 1309.1996,-83.5087 1308.5924,-84.6256 1307.6275,-85.7471 1306.3182,-86.8701 1304.6787,-87.9916 1302.7244,-89.1084 1300.471,-90.2176 1297.935,-91.3161 1295.1332,-92.4009 1292.0825,-93.4689 1288.8001,-94.5174 1285.3029,-95.5433 1281.6077,-96.5439 1277.7309,-97.5165 1273.6886,-98.4583 1269.4962,-99.3669 1265.1685,-100.2396 1260.7196,-101.0742 1256.1629,-101.8683 1251.5108,-102.6198 1246.775,-103.3265 1241.9661,-103.9866 1237.0942,-104.5982 1232.168,-105.1597 1227.1959,-105.6696 1222.1849,-106.1264 1217.1418,-106.5288 1212.0724,-106.8758 1206.9817,-107.1665 1201.8745,-107.4 1196.7549,-107.5757 1191.6268,-107.6931 1186.4937,-107.7518 1181.3589,-107.7518 1176.2257,-107.6931 1171.0976,-107.5757 1165.978,-107.4 1160.8708,-107.1665 1155.7802,-106.8758 1150.7107,-106.5288 1145.6676,-106.1264 1140.6567,-105.6696 1135.6845,-105.1597 1130.7584,-104.5982 1125.8864,-103.9866 1121.0776,-103.3265 1116.3417,-102.6198 1111.6896,-101.8683 1107.1329,-101.0742 1102.6841,-100.2396 1098.3564,-99.3669 1094.164,-98.4583 1090.1217,-97.5165 1086.2449,-96.5439 1082.5497,-95.5433 1079.0524,-94.5174 1075.77,-93.4689 1072.7194,-92.4009 1069.9175,-91.3161 1067.3816,-90.2176 1065.1282,-89.1084 1063.1738,-87.9916 1061.5344,-86.8701 1060.225,-85.7471 1059.2601,-84.6256 1058.6529,-83.5087 1058.4157,-82.3995 1058.5594,-81.301 1059.0933,-80.2163 1060.0254,-79.1482 1061.3617,-78.0998 1063.1067,-77.0738 1065.2627,-76.0732 1067.8301,-75.1007 1070.8072,-74.1588 1074.1904,-73.2503 1077.9736,-72.3775 1082.1488,-71.5429 1086.7055,-70.7488 1091.6313,-69.9974 1096.9116,-69.2907 1102.5297,-68.6306 1108.4668,-68.0189 1114.7023,-67.4574 1121.2137,-66.9476 1127.9769,-66.4908 1134.9661,-66.0883 1142.1542,-65.7413 1149.5127,-65.4506 1157.0122,-65.2172 1164.6223,-65.0415 1172.312,-64.9241 1180.0495,-64.8653 1187.803,-64.8653 1195.5406,-64.9241"/>
<text text-anchor="middle" x="1183.9263" y="-89.3086" font-family="Courier,monospace" font-weight="bold" font-size="10.00" fill="#000000">(2, &#39;A&#39;)</text>
<text text-anchor="middle" x="1183.9263" y="-78.3086" font-family="Courier,monospace" font-weight="bold" font-size="10.00" fill="#000000">0.008939923754685136</text>
</g>
<!-- (1, &#39;A&#39;)&#45;&gt;(2, &#39;A&#39;) -->
<g id="edge8" class="edge">
<title>(1, &#39;A&#39;)&#45;&gt;(2, &#39;A&#39;)</title>
<path fill="none" stroke="#000000" d="M998.9963,-70.2283C1017.1773,-71.8092 1036.3179,-73.4735 1055.114,-75.1079"/>
<polygon fill="#000000" stroke="#000000" points="1054.9417,-78.606 1065.2074,-75.9856 1055.5482,-71.6324 1054.9417,-78.606"/>
</g>
<!-- (2, &#39;B&#39;) -->
<g id="node10" class="node">
<title>(2, &#39;B&#39;)</title>
<polygon fill="none" stroke="#000000" points="1483.0506,-15.9241 1490.7402,-16.0415 1498.3504,-16.2172 1505.8499,-16.4506 1513.2084,-16.7413 1520.3965,-17.0883 1527.3857,-17.4908 1534.1489,-17.9476 1540.6603,-18.4574 1546.8958,-19.0189 1552.8329,-19.6306 1558.451,-20.2907 1563.7313,-20.9974 1568.6571,-21.7488 1573.2138,-22.5429 1577.3889,-23.3775 1581.1722,-24.2503 1584.5553,-25.1588 1587.5325,-26.1007 1590.0999,-27.0732 1592.2559,-28.0738 1594.0008,-29.0998 1595.3372,-30.1482 1596.2692,-31.2163 1596.8032,-32.301 1596.9468,-33.3995 1596.7096,-34.5087 1596.1025,-35.6256 1595.1376,-36.7471 1593.8282,-37.8701 1592.1887,-38.9916 1590.2344,-40.1084 1587.981,-41.2176 1585.445,-42.3161 1582.6432,-43.4009 1579.5926,-44.4689 1576.3101,-45.5174 1572.8129,-46.5433 1569.1177,-47.5439 1565.2409,-48.5165 1561.1986,-49.4583 1557.0062,-50.3669 1552.6785,-51.2396 1548.2297,-52.0742 1543.6729,-52.8683 1539.0209,-53.6198 1534.285,-54.3265 1529.4762,-54.9866 1524.6042,-55.5982 1519.6781,-56.1597 1514.7059,-56.6696 1509.695,-57.1264 1504.6519,-57.5288 1499.5824,-57.8758 1494.4917,-58.1665 1489.3846,-58.4 1484.265,-58.5757 1479.1369,-58.6931 1474.0037,-58.7518 1468.8689,-58.7518 1463.7358,-58.6931 1458.6076,-58.5757 1453.4881,-58.4 1448.3809,-58.1665 1443.2902,-57.8758 1438.2208,-57.5288 1433.1776,-57.1264 1428.1667,-56.6696 1423.1946,-56.1597 1418.2684,-55.5982 1413.3964,-54.9866 1408.5876,-54.3265 1403.8518,-53.6198 1399.1997,-52.8683 1394.643,-52.0742 1390.1941,-51.2396 1385.8664,-50.3669 1381.674,-49.4583 1377.6317,-48.5165 1373.7549,-47.5439 1370.0597,-46.5433 1366.5625,-45.5174 1363.2801,-44.4689 1360.2294,-43.4009 1357.4276,-42.3161 1354.8916,-41.2176 1352.6382,-40.1084 1350.6839,-38.9916 1349.0444,-37.8701 1347.7351,-36.7471 1346.7701,-35.6256 1346.163,-34.5087 1345.9258,-33.3995 1346.0694,-32.301 1346.6034,-31.2163 1347.5354,-30.1482 1348.8718,-29.0998 1350.6167,-28.0738 1352.7727,-27.0732 1355.3401,-26.1007 1358.3173,-25.1588 1361.7005,-24.2503 1365.4837,-23.3775 1369.6588,-22.5429 1374.2155,-21.7488 1379.1414,-20.9974 1384.4216,-20.2907 1390.0397,-19.6306 1395.9768,-19.0189 1402.2123,-18.4574 1408.7237,-17.9476 1415.4869,-17.4908 1422.4761,-17.0883 1429.6642,-16.7413 1437.0227,-16.4506 1444.5223,-16.2172 1452.1324,-16.0415 1459.822,-15.9241 1467.5595,-15.8653 1475.3131,-15.8653 1483.0506,-15.9241"/>
<text text-anchor="middle" x="1471.4363" y="-40.3086" font-family="Courier,monospace" font-weight="bold" font-size="10.00" fill="#000000">(2, &#39;B&#39;)</text>
<text text-anchor="middle" x="1471.4363" y="-29.3086" font-family="Courier,monospace" font-weight="bold" font-size="10.00" fill="#000000">0.017500092867307002</text>
</g>
<!-- (1, &#39;A&#39;)&#45;&gt;(2, &#39;B&#39;) -->
<g id="edge9" class="edge">
<title>(1, &#39;A&#39;)&#45;&gt;(2, &#39;B&#39;)</title>
<path fill="none" stroke="#000000" d="M1021.8963,-56.0713C1118.1234,-52.055 1250.3046,-46.5381 1346.4167,-42.5266"/>
<polygon fill="#000000" stroke="#000000" points="1346.6367,-46.0206 1356.482,-42.1065 1346.3448,-39.0267 1346.6367,-46.0206"/>
</g>
<!-- (1, &#39;C&#39;) -->
<g id="node8" class="node">
<title>(1, &#39;C&#39;)</title>
<polygon fill="none" stroke="#000000" points="1195.0271,-124.9241 1202.3768,-125.0415 1209.6505,-125.2172 1216.8185,-125.4506 1223.8518,-125.7413 1230.7221,-126.0883 1237.4023,-126.4908 1243.8665,-126.9476 1250.0901,-127.4574 1256.0499,-128.0189 1261.7246,-128.6306 1267.0943,-129.2907 1272.1412,-129.9974 1276.8492,-130.7488 1281.2045,-131.5429 1285.1951,-132.3775 1288.811,-133.2503 1292.0447,-134.1588 1294.8902,-135.1007 1297.3441,-136.0732 1299.4048,-137.0738 1301.0726,-138.0998 1302.3499,-139.1482 1303.2407,-140.2163 1303.7511,-141.301 1303.8884,-142.3995 1303.6617,-143.5087 1303.0814,-144.6256 1302.1591,-145.7471 1300.9076,-146.8701 1299.3406,-147.9916 1297.4727,-149.1084 1295.3189,-150.2176 1292.895,-151.3161 1290.2171,-152.4009 1287.3013,-153.4689 1284.164,-154.5174 1280.8213,-155.5433 1277.2895,-156.5439 1273.5841,-157.5165 1269.7205,-158.4583 1265.7134,-159.3669 1261.577,-160.2396 1257.3248,-161.0742 1252.9695,-161.8683 1248.5231,-162.6198 1243.9966,-163.3265 1239.4004,-163.9866 1234.7438,-164.5982 1230.0354,-165.1597 1225.283,-165.6696 1220.4936,-166.1264 1215.6735,-166.5288 1210.8281,-166.8758 1205.9625,-167.1665 1201.0811,-167.4 1196.1878,-167.5757 1191.2864,-167.6931 1186.3802,-167.7518 1181.4724,-167.7518 1176.5661,-167.6931 1171.6647,-167.5757 1166.7715,-167.4 1161.89,-167.1665 1157.0244,-166.8758 1152.1791,-166.5288 1147.3589,-166.1264 1142.5695,-165.6696 1137.8171,-165.1597 1133.1087,-164.5982 1128.4521,-163.9866 1123.8559,-163.3265 1119.3294,-162.6198 1114.883,-161.8683 1110.5277,-161.0742 1106.2755,-160.2396 1102.1391,-159.3669 1098.1321,-158.4583 1094.2685,-157.5165 1090.5631,-156.5439 1087.0312,-155.5433 1083.6886,-154.5174 1080.5512,-153.4689 1077.6355,-152.4009 1074.9575,-151.3161 1072.5336,-150.2176 1070.3799,-149.1084 1068.5119,-147.9916 1066.9449,-146.8701 1065.6934,-145.7471 1064.7712,-144.6256 1064.1909,-143.5087 1063.9642,-142.3995 1064.1015,-141.301 1064.6118,-140.2163 1065.5027,-139.1482 1066.7799,-138.0998 1068.4477,-137.0738 1070.5084,-136.0732 1072.9623,-135.1007 1075.8079,-134.1588 1079.0415,-133.2503 1082.6575,-132.3775 1086.648,-131.5429 1091.0033,-130.7488 1095.7114,-129.9974 1100.7582,-129.2907 1106.1279,-128.6306 1111.8026,-128.0189 1117.7624,-127.4574 1123.986,-126.9476 1130.4502,-126.4908 1137.1305,-126.0883 1144.0008,-125.7413 1151.034,-125.4506 1158.202,-125.2172 1165.4757,-125.0415 1172.8254,-124.9241 1180.2209,-124.8653 1187.6317,-124.8653 1195.0271,-124.9241"/>
<text text-anchor="middle" x="1183.9263" y="-149.3086" font-family="Courier,monospace" font-weight="bold" font-size="10.00" fill="#000000">(1, &#39;C&#39;)</text>
<text text-anchor="middle" x="1183.9263" y="-138.3086" font-family="Courier,monospace" font-weight="bold" font-size="10.00" fill="#000000">0.02015028405526415</text>
</g>
<!-- (1, &#39;B&#39;)&#45;&gt;(1, &#39;C&#39;) -->
<g id="edge10" class="edge">
<title>(1, &#39;B&#39;)&#45;&gt;(1, &#39;C&#39;)</title>
<path fill="none" stroke="#000000" d="M1003.4744,-136.2664C1020.157,-137.1948 1037.5463,-138.1625 1054.659,-139.1148"/>
<polygon fill="#000000" stroke="#000000" points="1054.5162,-142.6122 1064.6952,-139.6733 1054.9052,-135.623 1054.5162,-142.6122"/>
</g>
<!-- (1, &#39;B&#39;)&#45;&gt;(2, &#39;A&#39;) -->
<g id="edge11" class="edge">
<title>(1, &#39;B&#39;)&#45;&gt;(2, &#39;A&#39;)</title>
<path fill="none" stroke="#000000" d="M993.3532,-115.4735C1023.8179,-110.8113 1057.4317,-105.6671 1087.8374,-101.0138"/>
<polygon fill="#000000" stroke="#000000" points="1088.6613,-104.4286 1098.0167,-99.456 1087.6023,-97.5091 1088.6613,-104.4286"/>
</g>
<!-- (1, &#39;C&#39;)&#45;&gt;(2, &#39;B&#39;) -->
<g id="edge12" class="edge">
<title>(1, &#39;C&#39;)&#45;&gt;(2, &#39;B&#39;)</title>
<path fill="none" stroke="#000000" d="M1267.2136,-129.1771C1281.5385,-125.4556 1296.1592,-121.1566 1309.6813,-116.3086 1350.7824,-101.5727 1395.1982,-79.3921 1427.0695,-62.2813"/>
<polygon fill="#000000" stroke="#000000" points="1429.0009,-65.2157 1436.1259,-57.3744 1425.6662,-59.061 1429.0009,-65.2157"/>
</g>
<!-- (2, &#39;A&#39;)&#45;&gt;(&#45;1, &#39;SINK&#39;) -->
<g id="edge13" class="edge">
<title>(2, &#39;A&#39;)&#45;&gt;(&#45;1, &#39;SINK&#39;)</title>
<path fill="none" stroke="#000000" d="M1303.7461,-88.642C1441.4408,-90.0177 1674.0044,-88.3403 1872.653,-67.3086 1898.8555,-64.5344 1927.1792,-59.8637 1952.6925,-55.0237"/>
<polygon fill="#000000" stroke="#000000" points="1953.5382,-58.4251 1962.6925,-53.0914 1952.2101,-51.5523 1953.5382,-58.4251"/>
</g>
<!-- (2, &#39;B&#39;)&#45;&gt;(&#45;1, &#39;SINK&#39;) -->
<g id="edge14" class="edge">
<title>(2, &#39;B&#39;)&#45;&gt;(&#45;1, &#39;SINK&#39;)</title>
<path fill="none" stroke="#000000" d="M1551.6625,-19.4258C1577.5461,-14.4646 1606.4564,-9.7668 1633.1913,-7.3086 1739.1717,2.4362 1766.6727,2.4362 1872.653,-7.3086 1896.046,-9.4595 1921.1047,-13.3251 1944.3438,-17.5816"/>
<polygon fill="#000000" stroke="#000000" points="1943.7082,-21.0233 1954.1819,-19.4258 1944.998,-14.1431 1943.7082,-21.0233"/>
</g>
<!-- (2, &#39;C&#39;) -->
<g id="node11" class="node">
<title>(2, &#39;C&#39;)</title>
<polygon fill="none" stroke="#000000" points="1764.023,-15.9241 1771.3727,-16.0415 1778.6464,-16.2172 1785.8144,-16.4506 1792.8477,-16.7413 1799.718,-17.0883 1806.3982,-17.4908 1812.8624,-17.9476 1819.086,-18.4574 1825.0458,-19.0189 1830.7205,-19.6306 1836.0902,-20.2907 1841.1371,-20.9974 1845.8451,-21.7488 1850.2004,-22.5429 1854.191,-23.3775 1857.8069,-24.2503 1861.0406,-25.1588 1863.8861,-26.1007 1866.34,-27.0732 1868.4007,-28.0738 1870.0685,-29.0998 1871.3458,-30.1482 1872.2366,-31.2163 1872.747,-32.301 1872.8843,-33.3995 1872.6576,-34.5087 1872.0773,-35.6256 1871.155,-36.7471 1869.9035,-37.8701 1868.3365,-38.9916 1866.4686,-40.1084 1864.3148,-41.2176 1861.8909,-42.3161 1859.213,-43.4009 1856.2972,-44.4689 1853.1599,-45.5174 1849.8172,-46.5433 1846.2854,-47.5439 1842.58,-48.5165 1838.7164,-49.4583 1834.7093,-50.3669 1830.5729,-51.2396 1826.3207,-52.0742 1821.9654,-52.8683 1817.519,-53.6198 1812.9925,-54.3265 1808.3963,-54.9866 1803.7397,-55.5982 1799.0313,-56.1597 1794.2789,-56.6696 1789.4895,-57.1264 1784.6694,-57.5288 1779.824,-57.8758 1774.9584,-58.1665 1770.077,-58.4 1765.1837,-58.5757 1760.2823,-58.6931 1755.3761,-58.7518 1750.4683,-58.7518 1745.562,-58.6931 1740.6606,-58.5757 1735.7674,-58.4 1730.8859,-58.1665 1726.0203,-57.8758 1721.175,-57.5288 1716.3548,-57.1264 1711.5654,-56.6696 1706.813,-56.1597 1702.1046,-55.5982 1697.448,-54.9866 1692.8518,-54.3265 1688.3253,-53.6198 1683.8789,-52.8683 1679.5236,-52.0742 1675.2714,-51.2396 1671.135,-50.3669 1667.128,-49.4583 1663.2643,-48.5165 1659.559,-47.5439 1656.0271,-46.5433 1652.6845,-45.5174 1649.5471,-44.4689 1646.6314,-43.4009 1643.9534,-42.3161 1641.5295,-41.2176 1639.3758,-40.1084 1637.5078,-38.9916 1635.9408,-37.8701 1634.6893,-36.7471 1633.7671,-35.6256 1633.1868,-34.5087 1632.9601,-33.3995 1633.0974,-32.301 1633.6077,-31.2163 1634.4986,-30.1482 1635.7758,-29.0998 1637.4436,-28.0738 1639.5043,-27.0732 1641.9582,-26.1007 1644.8038,-25.1588 1648.0374,-24.2503 1651.6534,-23.3775 1655.6439,-22.5429 1659.9992,-21.7488 1664.7073,-20.9974 1669.7541,-20.2907 1675.1238,-19.6306 1680.7985,-19.0189 1686.7583,-18.4574 1692.9819,-17.9476 1699.4461,-17.4908 1706.1264,-17.0883 1712.9967,-16.7413 1720.0299,-16.4506 1727.1979,-16.2172 1734.4716,-16.0415 1741.8213,-15.9241 1749.2168,-15.8653 1756.6276,-15.8653 1764.023,-15.9241"/>
<text text-anchor="middle" x="1752.9222" y="-40.3086" font-family="Courier,monospace" font-weight="bold" font-size="10.00" fill="#000000">(2, &#39;C&#39;)</text>
<text text-anchor="middle" x="1752.9222" y="-29.3086" font-family="Courier,monospace" font-weight="bold" font-size="10.00" fill="#000000">0.01223186854982436</text>
</g>
<!-- (2, &#39;B&#39;)&#45;&gt;(2, &#39;C&#39;) -->
<g id="edge15" class="edge">
<title>(2, &#39;B&#39;)&#45;&gt;(2, &#39;C&#39;)</title>
<path fill="none" stroke="#000000" d="M1594.4906,-37.3086C1604.5873,-37.3086 1614.8074,-37.3086 1624.9385,-37.3086"/>
<polygon fill="#000000" stroke="#000000" points="1625.0322,-40.8087 1635.0322,-37.3086 1625.0321,-33.8087 1625.0322,-40.8087"/>
</g>
<!-- (2, &#39;C&#39;)&#45;&gt;(&#45;1, &#39;SINK&#39;) -->
<g id="edge16" class="edge">
<title>(2, &#39;C&#39;)&#45;&gt;(&#45;1, &#39;SINK&#39;)</title>
<path fill="none" stroke="#000000" d="M1870.6665,-37.3086C1880.7226,-37.3086 1890.9397,-37.3086 1901.1049,-37.3086"/>
<polygon fill="#000000" stroke="#000000" points="1901.245,-40.8087 1911.245,-37.3086 1901.2449,-33.8087 1901.245,-40.8087"/>
</g>
</g>
</svg>
