<?xml version="1.0" encoding="UTF-8" standalone="no"?>
<!DOCTYPE svg PUBLIC "-//W3C//DTD SVG 1.1//EN"
 "http://www.w3.org/Graphics/SVG/1.1/DTD/svg11.dtd">
<!-- Generated by graphviz version 2.40.1 (0)
 -->
<!-- Title: G Pages: 1 -->
<svg width="641pt" height="149pt"
 viewBox="0.00 0.00 640.71 149.00" xmlns="http://www.w3.org/2000/svg" xmlns:xlink="http://www.w3.org/1999/xlink">
<g id="graph0" class="graph" transform="scale(1 1) rotate(0) translate(4 145)">
<title>G</title>
<polygon fill="#ffffff" stroke="transparent" points="-4,4 -4,-145 636.708,-145 636.708,4 -4,4"/>
<!-- STATE_A -->
<g id="node1" class="node">
<title>STATE_A</title>
<polygon fill="none" stroke="#000000" points="168.1602,-36.0493 169.9363,-36.1479 171.694,-36.2953 173.4261,-36.4913 175.1257,-36.7353 176.7859,-37.0266 178.4002,-37.3645 179.9623,-37.7479 181.4662,-38.1759 182.9064,-38.6472 184.2777,-39.1606 185.5753,-39.7147 186.7949,-40.308 187.9326,-40.9388 188.9851,-41.6054 189.9494,-42.3059 190.8232,-43.0385 191.6046,-43.8012 192.2922,-44.5918 192.8852,-45.4082 193.3832,-46.2481 193.7862,-47.1093 194.0949,-47.9894 194.3101,-48.886 194.4334,-49.7965 194.4666,-50.7186 194.4118,-51.6497 194.2716,-52.5873 194.0487,-53.5287 193.7463,-54.4713 193.3677,-55.4127 192.9163,-56.3503 192.3958,-57.2814 191.8101,-58.2035 191.1629,-59.114 190.4583,-60.0106 189.7002,-60.8907 188.8925,-61.7519 188.039,-62.5918 187.1436,-63.4082 186.2099,-64.1988 185.2416,-64.9615 184.242,-65.6941 183.2145,-66.3946 182.162,-67.0612 181.0876,-67.692 179.9937,-68.2853 178.883,-68.8394 177.7578,-69.3528 176.62,-69.8241 175.4716,-70.2521 174.3142,-70.6355 173.1494,-70.9734 171.9785,-71.2647 170.8027,-71.5087 169.6231,-71.7047 168.4407,-71.8521 167.2562,-71.9507 166.0707,-72 164.8847,-72 163.6991,-71.9507 162.5146,-71.8521 161.3322,-71.7047 160.1526,-71.5087 158.9768,-71.2647 157.8059,-70.9734 156.6411,-70.6355 155.4838,-70.2521 154.3353,-69.8241 153.1976,-69.3528 152.0723,-68.8394 150.9616,-68.2853 149.8678,-67.692 148.7933,-67.0612 147.7408,-66.3946 146.7133,-65.6941 145.7137,-64.9615 144.7454,-64.1988 143.8118,-63.4082 142.9164,-62.5918 142.0629,-61.7519 141.2551,-60.8907 140.497,-60.0106 139.7924,-59.114 139.1452,-58.2035 138.5595,-57.2814 138.0391,-56.3503 137.5877,-55.4127 137.209,-54.4713 136.9066,-53.5287 136.6837,-52.5873 136.5435,-51.6497 136.4887,-50.7186 136.5219,-49.7965 136.6452,-48.886 136.8605,-47.9894 137.1691,-47.1093 137.5722,-46.2481 138.0701,-45.4082 138.6631,-44.5918 139.3507,-43.8012 140.1321,-43.0385 141.006,-42.3059 141.9703,-41.6054 143.0227,-40.9388 144.1604,-40.308 145.38,-39.7147 146.6776,-39.1606 148.0489,-38.6472 149.4891,-38.1759 150.993,-37.7479 152.5551,-37.3645 154.1694,-37.0266 155.8296,-36.7353 157.5292,-36.4913 159.2614,-36.2953 161.0191,-36.1479 162.7951,-36.0493 164.5823,-36 166.3731,-36 168.1602,-36.0493"/>
<text text-anchor="middle" x="165.4777" y="-51.5" font-family="Courier,monospace" font-weight="bold" font-size="10.00" fill="#000000">A</text>
</g>
<!-- STATE_A&#45;&gt;STATE_A -->
<g id="edge1" class="edge">
<title>STATE_A&#45;&gt;STATE_A</title>
<path fill="none" stroke="#000000" d="M155.37,-70.2903C152.9327,-80.3892 156.3019,-90 165.4777,-90 171.3559,-90 174.8511,-86.0557 175.9633,-80.5656"/>
<polygon fill="#000000" stroke="#000000" points="179.4507,-80.1548 175.5854,-70.2903 172.4554,-80.4122 179.4507,-80.1548"/>
<text text-anchor="middle" x="165.4777" y="-93" font-family="Courier,monospace" font-weight="bold" font-size="10.00" fill="#000000">0.5714285714285714</text>
</g>
<!-- STATE_B -->
<g id="node2" class="node">
<title>STATE_B</title>
<polygon fill="none" stroke="#000000" points="447.4036,-50.0493 449.1797,-50.1479 450.9374,-50.2953 452.6696,-50.4913 454.3691,-50.7353 456.0294,-51.0266 457.6436,-51.3645 459.2057,-51.7479 460.7097,-52.1759 462.1499,-52.6472 463.5211,-53.1606 464.8187,-53.7147 466.0383,-54.308 467.176,-54.9388 468.2285,-55.6054 469.1928,-56.3059 470.0666,-57.0385 470.848,-57.8012 471.5357,-58.5918 472.1287,-59.4082 472.6266,-60.2481 473.0296,-61.1093 473.3383,-61.9894 473.5536,-62.886 473.6769,-63.7965 473.7101,-64.7186 473.6553,-65.6497 473.5151,-66.5873 473.2922,-67.5287 472.9898,-68.4713 472.6111,-69.4127 472.1597,-70.3503 471.6393,-71.2814 471.0535,-72.2035 470.4064,-73.114 469.7018,-74.0106 468.9436,-74.8907 468.1359,-75.7519 467.2824,-76.5918 466.387,-77.4082 465.4534,-78.1988 464.485,-78.9615 463.4855,-79.6941 462.4579,-80.3946 461.4055,-81.0612 460.331,-81.692 459.2372,-82.2853 458.1265,-82.8394 457.0012,-83.3528 455.8634,-83.8241 454.715,-84.2521 453.5577,-84.6355 452.3929,-84.9734 451.222,-85.2647 450.0462,-85.5087 448.8666,-85.7047 447.6841,-85.8521 446.4997,-85.9507 445.3141,-86 444.1281,-86 442.9425,-85.9507 441.7581,-85.8521 440.5756,-85.7047 439.396,-85.5087 438.2203,-85.2647 437.0494,-84.9734 435.8846,-84.6355 434.7272,-84.2521 433.5788,-83.8241 432.441,-83.3528 431.3157,-82.8394 430.205,-82.2853 429.1112,-81.692 428.0367,-81.0612 426.9843,-80.3946 425.9567,-79.6941 424.9572,-78.9615 423.9889,-78.1988 423.0552,-77.4082 422.1598,-76.5918 421.3063,-75.7519 420.4986,-74.8907 419.7404,-74.0106 419.0358,-73.114 418.3887,-72.2035 417.803,-71.2814 417.2825,-70.3503 416.8311,-69.4127 416.4524,-68.4713 416.15,-67.5287 415.9272,-66.5873 415.7869,-65.6497 415.7321,-64.7186 415.7653,-63.7965 415.8886,-62.886 416.1039,-61.9894 416.4126,-61.1093 416.8156,-60.2481 417.3136,-59.4082 417.9066,-58.5918 418.5942,-57.8012 419.3756,-57.0385 420.2494,-56.3059 421.2137,-55.6054 422.2662,-54.9388 423.4039,-54.308 424.6235,-53.7147 425.9211,-53.1606 427.2923,-52.6472 428.7326,-52.1759 430.2365,-51.7479 431.7986,-51.3645 433.4129,-51.0266 435.0731,-50.7353 436.7727,-50.4913 438.5048,-50.2953 440.2625,-50.1479 442.0386,-50.0493 443.8257,-50 445.6165,-50 447.4036,-50.0493"/>
<text text-anchor="middle" x="444.7211" y="-65.5" font-family="Courier,monospace" font-weight="bold" font-size="10.00" fill="#000000">B</text>
</g>
<!-- STATE_A&#45;&gt;STATE_B -->
<g id="edge2" class="edge">
<title>STATE_A&#45;&gt;STATE_B</title>
<path fill="none" stroke="#000000" d="M194.4588,-52.9049C231.718,-51.7833 298.3906,-50.7436 355.2211,-55 371.9183,-56.2505 390.2351,-58.7151 405.9249,-61.1652"/>
<polygon fill="#000000" stroke="#000000" points="405.3827,-64.6229 415.8125,-62.7602 406.4976,-57.7122 405.3827,-64.6229"/>
<text text-anchor="middle" x="283.7211" y="-58" font-family="Courier,monospace" font-weight="bold" font-size="10.00" fill="#000000">0.42857142857142855</text>
</g>
<!-- SYMBOL_y -->
<g id="node4" class="node">
<title>SYMBOL_y</title>
<polygon fill="none" stroke="#000000" stroke-dasharray="5,2" points="606.6471,-36.0493 608.4231,-36.1479 610.1808,-36.2953 611.913,-36.4913 613.6126,-36.7353 615.2728,-37.0266 616.8871,-37.3645 618.4492,-37.7479 619.9531,-38.1759 621.3933,-38.6472 622.7646,-39.1606 624.0622,-39.7147 625.2818,-40.308 626.4195,-40.9388 627.4719,-41.6054 628.4363,-42.3059 629.3101,-43.0385 630.0915,-43.8012 630.7791,-44.5918 631.3721,-45.4082 631.8701,-46.2481 632.2731,-47.1093 632.5817,-47.9894 632.797,-48.886 632.9203,-49.7965 632.9535,-50.7186 632.8987,-51.6497 632.7585,-52.5873 632.5356,-53.5287 632.2332,-54.4713 631.8545,-55.4127 631.4032,-56.3503 630.8827,-57.2814 630.297,-58.2035 629.6498,-59.114 628.9452,-60.0106 628.1871,-60.8907 627.3793,-61.7519 626.5259,-62.5918 625.6305,-63.4082 624.6968,-64.1988 623.7285,-64.9615 622.7289,-65.6941 621.7014,-66.3946 620.6489,-67.0612 619.5744,-67.692 618.4806,-68.2853 617.3699,-68.8394 616.2447,-69.3528 615.1069,-69.8241 613.9585,-70.2521 612.8011,-70.6355 611.6363,-70.9734 610.4654,-71.2647 609.2896,-71.5087 608.11,-71.7047 606.9276,-71.8521 605.7431,-71.9507 604.5575,-72 603.3716,-72 602.186,-71.9507 601.0015,-71.8521 599.8191,-71.7047 598.6395,-71.5087 597.4637,-71.2647 596.2928,-70.9734 595.128,-70.6355 593.9706,-70.2521 592.8222,-69.8241 591.6844,-69.3528 590.5592,-68.8394 589.4485,-68.2853 588.3547,-67.692 587.2802,-67.0612 586.2277,-66.3946 585.2002,-65.6941 584.2006,-64.9615 583.2323,-64.1988 582.2986,-63.4082 581.4032,-62.5918 580.5498,-61.7519 579.742,-60.8907 578.9839,-60.0106 578.2793,-59.114 577.6321,-58.2035 577.0464,-57.2814 576.5259,-56.3503 576.0746,-55.4127 575.6959,-54.4713 575.3935,-53.5287 575.1706,-52.5873 575.0304,-51.6497 574.9756,-50.7186 575.0088,-49.7965 575.1321,-48.886 575.3474,-47.9894 575.656,-47.1093 576.059,-46.2481 576.557,-45.4082 577.15,-44.5918 577.8376,-43.8012 578.619,-43.0385 579.4928,-42.3059 580.4572,-41.6054 581.5096,-40.9388 582.6473,-40.308 583.8669,-39.7147 585.1645,-39.1606 586.5358,-38.6472 587.976,-38.1759 589.4799,-37.7479 591.042,-37.3645 592.6563,-37.0266 594.3165,-36.7353 596.0161,-36.4913 597.7483,-36.2953 599.506,-36.1479 601.282,-36.0493 603.0691,-36 604.86,-36 606.6471,-36.0493"/>
<text text-anchor="middle" x="603.9645" y="-51.5" font-family="Courier,monospace" font-weight="bold" font-size="10.00" fill="#000000">y</text>
</g>
<!-- STATE_A&#45;&gt;SYMBOL_y -->
<g id="edge7" class="edge">
<title>STATE_A&#45;&gt;SYMBOL_y</title>
<path fill="none" stroke="#000000" stroke-dasharray="5,2" d="M194.248,-48.1262C254.3167,-36.7197 397.3538,-14.0366 516.2211,-30 533.298,-32.2934 551.7559,-36.991 567.3161,-41.6271"/>
<polygon fill="#000000" stroke="#000000" points="566.4919,-45.0356 577.0793,-44.6389 568.5554,-38.3466 566.4919,-45.0356"/>
<text text-anchor="middle" x="444.7211" y="-33" font-family="Courier,monospace" font-weight="bold" font-size="10.00" fill="#000000">0.42857142857142855</text>
</g>
<!-- SYMBOL_z -->
<g id="node5" class="node">
<title>SYMBOL_z</title>
<polygon fill="none" stroke="#000000" stroke-dasharray="5,2" points="606.6471,-96.0493 608.4231,-96.1479 610.1808,-96.2953 611.913,-96.4913 613.6126,-96.7353 615.2728,-97.0266 616.8871,-97.3645 618.4492,-97.7479 619.9531,-98.1759 621.3933,-98.6472 622.7646,-99.1606 624.0622,-99.7147 625.2818,-100.308 626.4195,-100.9388 627.4719,-101.6054 628.4363,-102.3059 629.3101,-103.0385 630.0915,-103.8012 630.7791,-104.5918 631.3721,-105.4082 631.8701,-106.2481 632.2731,-107.1093 632.5817,-107.9894 632.797,-108.886 632.9203,-109.7965 632.9535,-110.7186 632.8987,-111.6497 632.7585,-112.5873 632.5356,-113.5287 632.2332,-114.4713 631.8545,-115.4127 631.4032,-116.3503 630.8827,-117.2814 630.297,-118.2035 629.6498,-119.114 628.9452,-120.0106 628.1871,-120.8907 627.3793,-121.7519 626.5259,-122.5918 625.6305,-123.4082 624.6968,-124.1988 623.7285,-124.9615 622.7289,-125.6941 621.7014,-126.3946 620.6489,-127.0612 619.5744,-127.692 618.4806,-128.2853 617.3699,-128.8394 616.2447,-129.3528 615.1069,-129.8241 613.9585,-130.2521 612.8011,-130.6355 611.6363,-130.9734 610.4654,-131.2647 609.2896,-131.5087 608.11,-131.7047 606.9276,-131.8521 605.7431,-131.9507 604.5575,-132 603.3716,-132 602.186,-131.9507 601.0015,-131.8521 599.8191,-131.7047 598.6395,-131.5087 597.4637,-131.2647 596.2928,-130.9734 595.128,-130.6355 593.9706,-130.2521 592.8222,-129.8241 591.6844,-129.3528 590.5592,-128.8394 589.4485,-128.2853 588.3547,-127.692 587.2802,-127.0612 586.2277,-126.3946 585.2002,-125.6941 584.2006,-124.9615 583.2323,-124.1988 582.2986,-123.4082 581.4032,-122.5918 580.5498,-121.7519 579.742,-120.8907 578.9839,-120.0106 578.2793,-119.114 577.6321,-118.2035 577.0464,-117.2814 576.5259,-116.3503 576.0746,-115.4127 575.6959,-114.4713 575.3935,-113.5287 575.1706,-112.5873 575.0304,-111.6497 574.9756,-110.7186 575.0088,-109.7965 575.1321,-108.886 575.3474,-107.9894 575.656,-107.1093 576.059,-106.2481 576.557,-105.4082 577.15,-104.5918 577.8376,-103.8012 578.619,-103.0385 579.4928,-102.3059 580.4572,-101.6054 581.5096,-100.9388 582.6473,-100.308 583.8669,-99.7147 585.1645,-99.1606 586.5358,-98.6472 587.976,-98.1759 589.4799,-97.7479 591.042,-97.3645 592.6563,-97.0266 594.3165,-96.7353 596.0161,-96.4913 597.7483,-96.2953 599.506,-96.1479 601.282,-96.0493 603.0691,-96 604.86,-96 606.6471,-96.0493"/>
<text text-anchor="middle" x="603.9645" y="-111.5" font-family="Courier,monospace" font-weight="bold" font-size="10.00" fill="#000000">z</text>
</g>
<!-- STATE_A&#45;&gt;SYMBOL_z -->
<g id="edge8" class="edge">
<title>STATE_A&#45;&gt;SYMBOL_z</title>
<path fill="none" stroke="#000000" stroke-dasharray="5,2" d="M181.397,-67.5946C190.0221,-74.3283 201.1567,-82.0548 212.2211,-87 336.4827,-142.5381 380.332,-131.7186 516.2211,-124 532.8868,-123.0534 551.2474,-121.1032 566.8469,-119.1743"/>
<polygon fill="#000000" stroke="#000000" points="567.6762,-122.5968 577.1506,-117.8549 566.787,-115.6535 567.6762,-122.5968"/>
<text text-anchor="middle" x="444.7211" y="-133" font-family="Courier,monospace" font-weight="bold" font-size="10.00" fill="#000000">0.5714285714285714</text>
</g>
<!-- STATE_B&#45;&gt;STATE_A -->
<g id="edge3" class="edge">
<title>STATE_B&#45;&gt;STATE_A</title>
<path fill="none" stroke="#000000" d="M417.0131,-69.9191C373.2801,-72.4642 285.6683,-75.5984 212.2211,-66 208.0153,-65.4504 203.645,-64.6488 199.3397,-63.7165"/>
<polygon fill="#000000" stroke="#000000" points="200.0605,-60.2902 189.5199,-61.3608 198.4275,-67.0971 200.0605,-60.2902"/>
<text text-anchor="middle" x="283.7211" y="-75" font-family="Courier,monospace" font-weight="bold" font-size="10.00" fill="#000000">0.5</text>
</g>
<!-- STATE_B&#45;&gt;STATE_B -->
<g id="edge4" class="edge">
<title>STATE_B&#45;&gt;STATE_B</title>
<path fill="none" stroke="#000000" d="M428.6078,-81.667C422.1625,-92.6563 427.5336,-104 444.7211,-104 456.5375,-104 462.7688,-98.6383 463.415,-91.7163"/>
<polygon fill="#000000" stroke="#000000" points="466.7118,-90.4822 460.8344,-81.667 459.9317,-92.2233 466.7118,-90.4822"/>
<text text-anchor="middle" x="444.7211" y="-107" font-family="Courier,monospace" font-weight="bold" font-size="10.00" fill="#000000">0.5</text>
</g>
<!-- STATE_B&#45;&gt;SYMBOL_y -->
<g id="edge9" class="edge">
<title>STATE_B&#45;&gt;SYMBOL_y</title>
<path fill="none" stroke="#000000" stroke-dasharray="5,2" d="M473.5589,-65.4647C499.5819,-63.1769 538.0262,-59.797 566.4358,-57.2994"/>
<polygon fill="#000000" stroke="#000000" points="566.7518,-60.7852 576.4068,-56.4228 566.1387,-53.8121 566.7518,-60.7852"/>
<text text-anchor="middle" x="545.7211" y="-62" font-family="Courier,monospace" font-weight="bold" font-size="10.00" fill="#000000">0.0</text>
</g>
<!-- STATE_B&#45;&gt;SYMBOL_z -->
<g id="edge10" class="edge">
<title>STATE_B&#45;&gt;SYMBOL_z</title>
<path fill="none" stroke="#000000" stroke-dasharray="5,2" d="M468.9068,-74.9864C494.7813,-82.4607 536.1616,-94.414 566.3063,-103.1218"/>
<polygon fill="#000000" stroke="#000000" points="565.4814,-106.5266 576.0599,-105.9393 567.424,-99.8015 565.4814,-106.5266"/>
<text text-anchor="middle" x="545.7211" y="-103" font-family="Courier,monospace" font-weight="bold" font-size="10.00" fill="#000000">1.0</text>
</g>
<!-- STATE_SOURCE -->
<g id="node3" class="node">
<title>STATE_SOURCE</title>
<polygon fill="none" stroke="#000000" points="42.4515,-.0493 44.8246,-.1479 47.1732,-.2953 49.4877,-.4913 51.7587,-.7353 53.9771,-1.0266 56.134,-1.3645 58.2213,-1.7479 60.2308,-2.1759 62.1552,-2.6472 63.9875,-3.1606 65.7213,-3.7147 67.3509,-4.308 68.8711,-4.9388 70.2774,-5.6054 71.5659,-6.3059 72.7335,-7.0385 73.7776,-7.8012 74.6964,-8.5918 75.4887,-9.4082 76.1541,-10.2481 76.6926,-11.1093 77.105,-11.9894 77.3927,-12.886 77.5574,-13.7965 77.6018,-14.7186 77.5286,-15.6497 77.3412,-16.5873 77.0434,-17.5287 76.6393,-18.4713 76.1334,-19.4127 75.5302,-20.3503 74.8348,-21.2814 74.0521,-22.2035 73.1874,-23.114 72.246,-24.0106 71.2329,-24.8907 70.1536,-25.7519 69.0132,-26.5918 67.8168,-27.4082 66.5693,-28.1988 65.2754,-28.9615 63.9398,-29.6941 62.5668,-30.3946 61.1606,-31.0612 59.7248,-31.692 58.2633,-32.2853 56.7792,-32.8394 55.2756,-33.3528 53.7553,-33.8241 52.2208,-34.2521 50.6744,-34.6355 49.118,-34.9734 47.5535,-35.2647 45.9824,-35.5087 44.4062,-35.7047 42.8263,-35.8521 41.2436,-35.9507 39.6595,-36 38.0748,-36 36.4906,-35.9507 34.908,-35.8521 33.328,-35.7047 31.7518,-35.5087 30.1808,-35.2647 28.6162,-34.9734 27.0598,-34.6355 25.5134,-34.2521 23.9789,-33.8241 22.4586,-33.3528 20.955,-32.8394 19.4709,-32.2853 18.0094,-31.692 16.5737,-31.0612 15.1674,-30.3946 13.7944,-29.6941 12.4588,-28.9615 11.1649,-28.1988 9.9174,-27.4082 8.721,-26.5918 7.5806,-25.7519 6.5013,-24.8907 5.4883,-24.0106 4.5468,-23.114 3.6821,-22.2035 2.8994,-21.2814 2.204,-20.3503 1.6009,-19.4127 1.0949,-18.4713 .6908,-17.5287 .393,-16.5873 .2056,-15.6497 .1324,-14.7186 .1768,-13.7965 .3416,-12.886 .6292,-11.9894 1.0416,-11.1093 1.5801,-10.2481 2.2455,-9.4082 3.0379,-8.5918 3.9567,-7.8012 5.0008,-7.0385 6.1683,-6.3059 7.4568,-5.6054 8.8631,-4.9388 10.3833,-4.308 12.0129,-3.7147 13.7467,-3.1606 15.579,-2.6472 17.5034,-2.1759 19.513,-1.7479 21.6002,-1.3645 23.7572,-1.0266 25.9755,-.7353 28.2465,-.4913 30.561,-.2953 32.9096,-.1479 35.2827,-.0493 37.6707,0 40.0635,0 42.4515,-.0493"/>
<text text-anchor="middle" x="38.8671" y="-15.5" font-family="Courier,monospace" font-weight="bold" font-size="10.00" fill="#000000">SOURCE</text>
</g>
<!-- STATE_SOURCE&#45;&gt;STATE_A -->
<g id="edge5" class="edge">
<title>STATE_SOURCE&#45;&gt;STATE_A</title>
<path fill="none" stroke="#000000" d="M69.1935,-26.6229C86.805,-31.6305 109.1411,-37.9814 127.8654,-43.3055"/>
<polygon fill="#000000" stroke="#000000" points="126.9867,-46.6943 137.5627,-46.0627 128.9012,-39.9612 126.9867,-46.6943"/>
<text text-anchor="middle" x="107.2342" y="-43" font-family="Courier,monospace" font-weight="bold" font-size="10.00" fill="#000000">1.0</text>
</g>
<!-- STATE_SOURCE&#45;&gt;STATE_B -->
<g id="edge6" class="edge">
<title>STATE_SOURCE&#45;&gt;STATE_B</title>
<path fill="none" stroke="#000000" d="M77.4445,-17.0299C95.4576,-16.6235 117.1917,-16.1997 136.7342,-16 162.2826,-15.739 168.7869,-13.5736 194.2211,-16 266.7617,-22.9202 283.9573,-31.7851 355.2211,-47 371.9941,-50.581 390.4559,-54.856 406.2333,-58.6113"/>
<polygon fill="#000000" stroke="#000000" points="405.6286,-62.0654 416.1689,-60.9915 407.2595,-55.258 405.6286,-62.0654"/>
<text text-anchor="middle" x="165.4777" y="-19" font-family="Courier,monospace" font-weight="bold" font-size="10.00" fill="#000000">0.0</text>
</g>
</g>
</svg>
