<?xml version="1.0" encoding="UTF-8" standalone="no"?>
<!DOCTYPE svg PUBLIC "-//W3C//DTD SVG 1.1//EN"
 "http://www.w3.org/Graphics/SVG/1.1/DTD/svg11.dtd">
<!-- Generated by graphviz version 2.40.1 (0)
 -->
<!-- Title: G Pages: 1 -->
<svg width="345pt" height="161pt"
 viewBox="0.00 0.00 344.80 160.80" xmlns="http://www.w3.org/2000/svg" xmlns:xlink="http://www.w3.org/1999/xlink">
<g id="graph0" class="graph" transform="scale(1 1) rotate(0) translate(4 156.8)">
<title>G</title>
<polygon fill="#ffffff" stroke="transparent" points="-4,4 -4,-156.8 340.8,-156.8 340.8,4 -4,4"/>
<!-- N0 -->
<g id="node1" class="node">
<title>N0</title>
<ellipse fill="#000000" stroke="#000000" cx="1.8" cy="-69.8" rx="1.8" ry="1.8"/>
</g>
<!-- N1 -->
<g id="node2" class="node">
<title>N1</title>
<ellipse fill="#000000" stroke="#000000" cx="144.6" cy="-78.8" rx="1.8" ry="1.8"/>
</g>
<!-- N0&#45;&gt;N1 -->
<g id="edge1" class="edge">
<title>N0&#45;&gt;N1</title>
<path fill="none" stroke="#000000" d="M3.0605,-71.2265C5.9575,-74.3866 13.4684,-81.9243 21.6,-84.8 61.51,-98.9139 74.4731,-87.1333 116.8,-87.8 120.3551,-87.856 121.325,-88.5527 124.8,-87.8 127.8999,-87.1285 131.0973,-85.9287 133.9944,-84.6196"/>
<polygon fill="#000000" stroke="#000000" points="135.6489,-87.7039 142.8348,-79.9185 132.3622,-81.5235 135.6489,-87.7039"/>
<text text-anchor="middle" x="73.2" y="-93.8" font-family="Courier,monospace" font-weight="bold" font-size="10.00" fill="#000000">a</text>
</g>
<!-- N11 -->
<g id="node4" class="node">
<title>N11</title>
<ellipse fill="#000000" stroke="#000000" cx="49.4" cy="-35.8" rx="1.8" ry="1.8"/>
</g>
<!-- N0&#45;&gt;N11 -->
<g id="edge3" class="edge">
<title>N0&#45;&gt;N11</title>
<path fill="none" stroke="#000000" d="M3.223,-68.6841C6.4525,-66.1599 14.6,-59.8391 21.6,-54.8 27.4594,-50.582 34.1353,-46.0118 39.4763,-42.4109"/>
<polygon fill="#000000" stroke="#000000" points="41.5014,-45.2673 47.8753,-36.8042 37.6149,-39.4453 41.5014,-45.2673"/>
<text text-anchor="middle" x="25.6" y="-57.8" font-family="Courier,monospace" font-weight="bold" font-size="10.00" fill="#000000">e</text>
</g>
<!-- N13 -->
<g id="node6" class="node">
<title>N13</title>
<ellipse fill="#000000" stroke="#000000" cx="239.8" cy="-104.8" rx="1.8" ry="1.8"/>
</g>
<!-- N0&#45;&gt;N13 -->
<g id="edge5" class="edge">
<title>N0&#45;&gt;N13</title>
<path fill="none" stroke="#000000" d="M2.1067,-71.8772C3.9771,-83.6823 14.9351,-141.8 49.4,-141.8 49.4,-141.8 49.4,-141.8 192.2,-141.8 209.7843,-141.8 224.7888,-125.8654 233.0266,-114.9104"/>
<polygon fill="#000000" stroke="#000000" points="236.0976,-116.6199 238.8537,-106.3898 230.3196,-112.6684 236.0976,-116.6199"/>
<text text-anchor="middle" x="120.8" y="-144.8" font-family="Courier,monospace" font-weight="bold" font-size="10.00" fill="#000000">n</text>
</g>
<!-- N5 -->
<g id="node12" class="node">
<title>N5</title>
<ellipse fill="#000000" stroke="#000000" cx="49.4" cy="-69.8" rx="1.8" ry="1.8"/>
</g>
<!-- N0&#45;&gt;N5 -->
<g id="edge10" class="edge">
<title>N0&#45;&gt;N5</title>
<path fill="none" stroke="#000000" d="M3.8453,-69.8C9.5341,-69.8 25.8789,-69.8 37.3549,-69.8"/>
<polygon fill="#000000" stroke="#000000" points="37.4153,-73.3001 47.4153,-69.8 37.4153,-66.3001 37.4153,-73.3001"/>
<text text-anchor="middle" x="25.6" y="-72.8" font-family="Courier,monospace" font-weight="bold" font-size="10.00" fill="#000000">b</text>
</g>
<!-- N8 -->
<g id="node15" class="node">
<title>N8</title>
<ellipse fill="#000000" stroke="#000000" cx="49.4" cy="-1.8" rx="1.8" ry="1.8"/>
</g>
<!-- N0&#45;&gt;N8 -->
<g id="edge13" class="edge">
<title>N0&#45;&gt;N8</title>
<path fill="none" stroke="#000000" d="M2.587,-68.0743C5.0475,-62.7519 12.9488,-46.2027 21.6,-33.8 27.3469,-25.561 34.869,-17.0103 40.6393,-10.8227"/>
<polygon fill="#000000" stroke="#000000" points="43.3435,-13.0603 47.7581,-3.429 38.3009,-8.2052 43.3435,-13.0603"/>
<text text-anchor="middle" x="25.6" y="-36.8" font-family="Courier,monospace" font-weight="bold" font-size="10.00" fill="#000000">k</text>
</g>
<!-- N2 -->
<g id="node9" class="node">
<title>N2</title>
<ellipse fill="#000000" stroke="#000000" cx="192.2" cy="-78.8" rx="1.8" ry="1.8"/>
</g>
<!-- N1&#45;&gt;N2 -->
<g id="edge2" class="edge">
<title>N1&#45;&gt;N2</title>
<path fill="none" stroke="#000000" d="M146.6453,-78.8C152.3341,-78.8 168.6789,-78.8 180.1549,-78.8"/>
<polygon fill="#000000" stroke="#000000" points="180.2153,-82.3001 190.2153,-78.8 180.2153,-75.3001 180.2153,-82.3001"/>
<text text-anchor="middle" x="168.4" y="-81.8" font-family="Courier,monospace" font-weight="bold" font-size="10.00" fill="#000000">n</text>
</g>
<!-- N4 -->
<g id="node11" class="node">
<title>N4</title>
<ellipse fill="#000000" stroke="#000000" cx="192.2" cy="-111.8" rx="1.8" ry="1.8"/>
</g>
<!-- N1&#45;&gt;N4 -->
<g id="edge9" class="edge">
<title>N1&#45;&gt;N4</title>
<path fill="none" stroke="#000000" d="M146.1837,-79.898C151.7168,-83.7339 170.4883,-96.7478 182.2776,-104.921"/>
<polygon fill="#000000" stroke="#000000" points="180.3492,-107.8429 190.5615,-110.6641 184.3374,-102.0902 180.3492,-107.8429"/>
<text text-anchor="middle" x="168.4" y="-99.8" font-family="Courier,monospace" font-weight="bold" font-size="10.00" fill="#000000">¶</text>
</g>
<!-- N10 -->
<g id="node3" class="node">
<title>N10</title>
<ellipse fill="#000000" stroke="#000000" cx="144.6" cy="-1.8" rx="1.8" ry="1.8"/>
</g>
<!-- N12 -->
<g id="node5" class="node">
<title>N12</title>
<ellipse fill="#000000" stroke="#000000" cx="97" cy="-35.8" rx="1.8" ry="1.8"/>
</g>
<!-- N11&#45;&gt;N12 -->
<g id="edge4" class="edge">
<title>N11&#45;&gt;N12</title>
<path fill="none" stroke="#000000" d="M51.4453,-35.8C57.1341,-35.8 73.4789,-35.8 84.9549,-35.8"/>
<polygon fill="#000000" stroke="#000000" points="85.0153,-39.3001 95.0153,-35.8 85.0153,-32.3001 85.0153,-39.3001"/>
<text text-anchor="middle" x="73.2" y="-38.8" font-family="Courier,monospace" font-weight="bold" font-size="10.00" fill="#000000">¶</text>
</g>
<!-- N14 -->
<g id="node7" class="node">
<title>N14</title>
<ellipse fill="#000000" stroke="#000000" cx="287.4" cy="-61.8" rx="1.8" ry="1.8"/>
</g>
<!-- N13&#45;&gt;N14 -->
<g id="edge6" class="edge">
<title>N13&#45;&gt;N14</title>
<path fill="none" stroke="#000000" d="M241.3837,-103.3693C247.0298,-98.2689 266.46,-80.7164 278.1905,-70.1195"/>
<polygon fill="#000000" stroke="#000000" points="280.6872,-72.5808 285.7615,-63.2802 275.9947,-67.3864 280.6872,-72.5808"/>
<text text-anchor="middle" x="263.6" y="-88.8" font-family="Courier,monospace" font-weight="bold" font-size="10.00" fill="#000000">a</text>
</g>
<!-- N14&#45;&gt;N1 -->
<g id="edge17" class="edge">
<title>N14&#45;&gt;N1</title>
<path fill="none" stroke="#ff0000" stroke-dasharray="5,2" d="M285.538,-61.795C275.6639,-61.7936 228.4444,-62.099 190.4,-67.8 178.527,-69.5792 165.209,-72.9354 156.0082,-75.4748"/>
<polygon fill="#ff0000" stroke="#ff0000" points="154.9625,-72.1336 146.3256,-78.27 156.9041,-78.859 154.9625,-72.1336"/>
</g>
<!-- N15 -->
<g id="node8" class="node">
<title>N15</title>
<ellipse fill="#000000" stroke="#000000" cx="335" cy="-61.8" rx="1.8" ry="1.8"/>
</g>
<!-- N14&#45;&gt;N15 -->
<g id="edge7" class="edge">
<title>N14&#45;&gt;N15</title>
<path fill="none" stroke="#000000" d="M289.4453,-61.8C295.1341,-61.8 311.4789,-61.8 322.9549,-61.8"/>
<polygon fill="#000000" stroke="#000000" points="323.0153,-65.3001 333.0153,-61.8 323.0153,-58.3001 323.0153,-65.3001"/>
<text text-anchor="middle" x="311.2" y="-64.8" font-family="Courier,monospace" font-weight="bold" font-size="10.00" fill="#000000">¶</text>
</g>
<!-- N2&#45;&gt;N13 -->
<g id="edge18" class="edge">
<title>N2&#45;&gt;N13</title>
<path fill="none" stroke="#ff0000" stroke-dasharray="5,2" d="M194.0278,-79.974C197.4867,-82.1808 205.2484,-87.0615 212,-90.8 217.4248,-93.8038 223.572,-96.9276 228.7039,-99.4604"/>
<polygon fill="#ff0000" stroke="#ff0000" points="227.4921,-102.762 238.0187,-103.9627 230.5384,-96.4596 227.4921,-102.762"/>
</g>
<!-- N3 -->
<g id="node10" class="node">
<title>N3</title>
<ellipse fill="#000000" stroke="#000000" cx="239.8" cy="-78.8" rx="1.8" ry="1.8"/>
</g>
<!-- N2&#45;&gt;N3 -->
<g id="edge8" class="edge">
<title>N2&#45;&gt;N3</title>
<path fill="none" stroke="#000000" d="M194.2453,-78.8C199.9341,-78.8 216.2789,-78.8 227.7549,-78.8"/>
<polygon fill="#000000" stroke="#000000" points="227.8153,-82.3001 237.8153,-78.8 227.8153,-75.3001 227.8153,-82.3001"/>
<text text-anchor="middle" x="216" y="-81.8" font-family="Courier,monospace" font-weight="bold" font-size="10.00" fill="#000000">¶</text>
</g>
<!-- N6 -->
<g id="node13" class="node">
<title>N6</title>
<ellipse fill="#000000" stroke="#000000" cx="97" cy="-69.8" rx="1.8" ry="1.8"/>
</g>
<!-- N5&#45;&gt;N6 -->
<g id="edge11" class="edge">
<title>N5&#45;&gt;N6</title>
<path fill="none" stroke="#000000" d="M51.4453,-69.8C57.1341,-69.8 73.4789,-69.8 84.9549,-69.8"/>
<polygon fill="#000000" stroke="#000000" points="85.0153,-73.3001 95.0153,-69.8 85.0153,-66.3001 85.0153,-73.3001"/>
<text text-anchor="middle" x="73.2" y="-72.8" font-family="Courier,monospace" font-weight="bold" font-size="10.00" fill="#000000">a</text>
</g>
<!-- N6&#45;&gt;N1 -->
<g id="edge16" class="edge">
<title>N6&#45;&gt;N1</title>
<path fill="none" stroke="#ff0000" stroke-dasharray="5,2" d="M99.0453,-70.1867C104.7341,-71.2623 121.0789,-74.3527 132.5549,-76.5226"/>
<polygon fill="#ff0000" stroke="#ff0000" points="132.1391,-80.0059 142.6153,-78.4247 133.4397,-73.1278 132.1391,-80.0059"/>
</g>
<!-- N7 -->
<g id="node14" class="node">
<title>N7</title>
<ellipse fill="#000000" stroke="#000000" cx="144.6" cy="-52.8" rx="1.8" ry="1.8"/>
</g>
<!-- N6&#45;&gt;N7 -->
<g id="edge12" class="edge">
<title>N6&#45;&gt;N7</title>
<path fill="none" stroke="#000000" d="M98.7402,-68.4367C102.053,-65.9144 109.581,-60.5289 116.8,-57.8 121.7712,-55.9208 127.5156,-54.7366 132.4876,-53.9958"/>
<polygon fill="#000000" stroke="#000000" points="133.211,-57.4385 142.7832,-52.8972 132.4683,-50.478 133.211,-57.4385"/>
<text text-anchor="middle" x="120.8" y="-60.8" font-family="Courier,monospace" font-weight="bold" font-size="10.00" fill="#000000">¶</text>
</g>
<!-- N9 -->
<g id="node16" class="node">
<title>N9</title>
<ellipse fill="#000000" stroke="#000000" cx="97" cy="-1.8" rx="1.8" ry="1.8"/>
</g>
<!-- N8&#45;&gt;N9 -->
<g id="edge14" class="edge">
<title>N8&#45;&gt;N9</title>
<path fill="none" stroke="#000000" d="M51.4453,-1.8C57.1341,-1.8 73.4789,-1.8 84.9549,-1.8"/>
<polygon fill="#000000" stroke="#000000" points="85.0153,-5.3001 95.0153,-1.8 85.0153,1.6999 85.0153,-5.3001"/>
<text text-anchor="middle" x="73.2" y="-4.8" font-family="Courier,monospace" font-weight="bold" font-size="10.00" fill="#000000">l</text>
</g>
<!-- N9&#45;&gt;N10 -->
<g id="edge15" class="edge">
<title>N9&#45;&gt;N10</title>
<path fill="none" stroke="#000000" d="M99.0453,-1.8C104.7341,-1.8 121.0789,-1.8 132.5549,-1.8"/>
<polygon fill="#000000" stroke="#000000" points="132.6153,-5.3001 142.6153,-1.8 132.6153,1.6999 132.6153,-5.3001"/>
<text text-anchor="middle" x="120.8" y="-4.8" font-family="Courier,monospace" font-weight="bold" font-size="10.00" fill="#000000">¶</text>
</g>
</g>
</svg>
