<?xml version="1.0" encoding="UTF-8" standalone="no"?>
<!DOCTYPE svg PUBLIC "-//W3C//DTD SVG 1.1//EN"
 "http://www.w3.org/Graphics/SVG/1.1/DTD/svg11.dtd">
<!-- Generated by graphviz version 2.40.1 (0)
 -->
<!-- Title: G Pages: 1 -->
<svg width="1880pt" height="659pt"
 viewBox="0.00 0.00 1879.71 659.01" xmlns="http://www.w3.org/2000/svg" xmlns:xlink="http://www.w3.org/1999/xlink">
<g id="graph0" class="graph" transform="scale(1 1) rotate(0) translate(4 655.0099)">
<title>G</title>
<polygon fill="#ffffff" stroke="transparent" points="-4,4 -4,-655.0099 1875.708,-655.0099 1875.708,4 -4,4"/>
<!-- STATE_A -->
<g id="node1" class="node">
<title>STATE_A</title>
<polygon fill="none" stroke="#000000" points="342.4168,-377.0593 344.1928,-377.1578 345.9505,-377.3053 347.6827,-377.5013 349.3823,-377.7453 351.0425,-378.0366 352.6568,-378.3744 354.2188,-378.7578 355.7228,-379.1858 357.163,-379.6571 358.5343,-380.1706 359.8319,-380.7247 361.0514,-381.3179 362.1891,-381.9487 363.2416,-382.6153 364.2059,-383.3159 365.0797,-384.0485 365.8611,-384.8111 366.5488,-385.6017 367.1418,-386.4181 367.6397,-387.2581 368.0428,-388.1193 368.3514,-388.9993 368.5667,-389.8959 368.69,-390.8065 368.7232,-391.7286 368.6684,-392.6597 368.5282,-393.5972 368.3053,-394.5386 368.0029,-395.4813 367.6242,-396.4227 367.1728,-397.3602 366.6524,-398.2913 366.0666,-399.2134 365.4195,-400.124 364.7149,-401.0205 363.9568,-401.9006 363.149,-402.7618 362.2955,-403.6017 361.4001,-404.4181 360.4665,-405.2087 359.4982,-405.9714 358.4986,-406.704 357.4711,-407.4046 356.4186,-408.0711 355.3441,-408.7019 354.2503,-409.2952 353.1396,-409.8493 352.0143,-410.3627 350.8765,-410.8341 349.7281,-411.262 348.5708,-411.6455 347.406,-411.9833 346.2351,-412.2746 345.0593,-412.5186 343.8797,-412.7146 342.6972,-412.8621 341.5128,-412.9606 340.3272,-413.0099 339.1412,-413.0099 337.9556,-412.9606 336.7712,-412.8621 335.5887,-412.7146 334.4091,-412.5186 333.2334,-412.2746 332.0625,-411.9833 330.8977,-411.6455 329.7403,-411.262 328.5919,-410.8341 327.4541,-410.3627 326.3288,-409.8493 325.2182,-409.2952 324.1243,-408.7019 323.0498,-408.0711 321.9974,-407.4046 320.9698,-406.704 319.9703,-405.9714 319.002,-405.2087 318.0683,-404.4181 317.1729,-403.6017 316.3194,-402.7618 315.5117,-401.9006 314.7535,-401.0205 314.0489,-400.124 313.4018,-399.2134 312.8161,-398.2913 312.2956,-397.3602 311.8442,-396.4227 311.4656,-395.4813 311.1631,-394.5386 310.9403,-393.5972 310.8,-392.6597 310.7453,-391.7286 310.7784,-390.8065 310.9018,-389.8959 311.117,-388.9993 311.4257,-388.1193 311.8287,-387.2581 312.3267,-386.4181 312.9197,-385.6017 313.6073,-384.8111 314.3887,-384.0485 315.2625,-383.3159 316.2268,-382.6153 317.2793,-381.9487 318.417,-381.3179 319.6366,-380.7247 320.9342,-380.1706 322.3055,-379.6571 323.7457,-379.1858 325.2496,-378.7578 326.8117,-378.3744 328.426,-378.0366 330.0862,-377.7453 331.7858,-377.5013 333.5179,-377.3053 335.2756,-377.1578 337.0517,-377.0593 338.8388,-377.0099 340.6296,-377.0099 342.4168,-377.0593"/>
<text text-anchor="middle" x="339.7342" y="-392.5099" font-family="Courier,monospace" font-weight="bold" font-size="10.00" fill="#000000">A</text>
</g>
<!-- STATE_B -->
<g id="node2" class="node">
<title>STATE_B</title>
<polygon fill="none" stroke="#000000" points="626.1602,-192.0593 627.9363,-192.1578 629.694,-192.3053 631.4261,-192.5013 633.1257,-192.7453 634.7859,-193.0366 636.4002,-193.3744 637.9623,-193.7578 639.4662,-194.1858 640.9064,-194.6571 642.2777,-195.1706 643.5753,-195.7247 644.7949,-196.3179 645.9326,-196.9487 646.9851,-197.6153 647.9494,-198.3159 648.8232,-199.0485 649.6046,-199.8111 650.2922,-200.6017 650.8852,-201.4181 651.3832,-202.2581 651.7862,-203.1193 652.0949,-203.9993 652.3101,-204.8959 652.4334,-205.8065 652.4666,-206.7286 652.4118,-207.6597 652.2716,-208.5972 652.0487,-209.5386 651.7463,-210.4813 651.3677,-211.4227 650.9163,-212.3602 650.3958,-213.2913 649.8101,-214.2134 649.1629,-215.124 648.4583,-216.0205 647.7002,-216.9006 646.8925,-217.7618 646.039,-218.6017 645.1436,-219.4181 644.2099,-220.2087 643.2416,-220.9714 642.242,-221.704 641.2145,-222.4046 640.162,-223.0711 639.0876,-223.7019 637.9937,-224.2952 636.883,-224.8493 635.7578,-225.3627 634.62,-225.8341 633.4716,-226.262 632.3142,-226.6455 631.1494,-226.9833 629.9785,-227.2746 628.8027,-227.5186 627.6231,-227.7146 626.4407,-227.8621 625.2562,-227.9606 624.0707,-228.0099 622.8847,-228.0099 621.6991,-227.9606 620.5146,-227.8621 619.3322,-227.7146 618.1526,-227.5186 616.9768,-227.2746 615.8059,-226.9833 614.6411,-226.6455 613.4838,-226.262 612.3353,-225.8341 611.1976,-225.3627 610.0723,-224.8493 608.9616,-224.2952 607.8678,-223.7019 606.7933,-223.0711 605.7408,-222.4046 604.7133,-221.704 603.7137,-220.9714 602.7454,-220.2087 601.8118,-219.4181 600.9164,-218.6017 600.0629,-217.7618 599.2551,-216.9006 598.497,-216.0205 597.7924,-215.124 597.1452,-214.2134 596.5595,-213.2913 596.0391,-212.3602 595.5877,-211.4227 595.209,-210.4813 594.9066,-209.5386 594.6837,-208.5972 594.5435,-207.6597 594.4887,-206.7286 594.5219,-205.8065 594.6452,-204.8959 594.8605,-203.9993 595.1691,-203.1193 595.5722,-202.2581 596.0701,-201.4181 596.6631,-200.6017 597.3507,-199.8111 598.1321,-199.0485 599.006,-198.3159 599.9703,-197.6153 601.0227,-196.9487 602.1604,-196.3179 603.38,-195.7247 604.6776,-195.1706 606.0489,-194.6571 607.4891,-194.1858 608.993,-193.7578 610.5551,-193.3744 612.1694,-193.0366 613.8296,-192.7453 615.5292,-192.5013 617.2614,-192.3053 619.0191,-192.1578 620.7951,-192.0593 622.5823,-192.0099 624.3731,-192.0099 626.1602,-192.0593"/>
<text text-anchor="middle" x="623.4777" y="-207.5099" font-family="Courier,monospace" font-weight="bold" font-size="10.00" fill="#000000">B</text>
</g>
<!-- STATE_A&#45;&gt;STATE_B -->
<g id="edge1" class="edge">
<title>STATE_A&#45;&gt;STATE_B</title>
<path fill="none" stroke="#000000" d="M358.8402,-380.0105C376.0326,-366.7031 402.1437,-346.9575 425.7342,-331.0099 484.5392,-291.2568 556.1702,-248.8499 595.0464,-226.3125"/>
<polygon fill="#000000" stroke="#000000" points="596.835,-229.3214 603.7413,-221.2869 593.332,-223.2609 596.835,-229.3214"/>
<text text-anchor="middle" x="501.2342" y="-334.0099" font-family="Courier,monospace" font-weight="bold" font-size="10.00" fill="#000000">0.4614148148593656</text>
</g>
<!-- STATE_E -->
<g id="node5" class="node">
<title>STATE_E</title>
<polygon fill="none" stroke="#000000" points="1558.4036,-499.0593 1560.1797,-499.1578 1561.9374,-499.3053 1563.6696,-499.5013 1565.3691,-499.7453 1567.0294,-500.0366 1568.6436,-500.3744 1570.2057,-500.7578 1571.7097,-501.1858 1573.1499,-501.6571 1574.5211,-502.1706 1575.8187,-502.7247 1577.0383,-503.3179 1578.176,-503.9487 1579.2285,-504.6153 1580.1928,-505.3159 1581.0666,-506.0485 1581.848,-506.8111 1582.5357,-507.6017 1583.1287,-508.4181 1583.6266,-509.2581 1584.0296,-510.1193 1584.3383,-510.9993 1584.5536,-511.8959 1584.6769,-512.8065 1584.7101,-513.7286 1584.6553,-514.6597 1584.5151,-515.5972 1584.2922,-516.5386 1583.9898,-517.4813 1583.6111,-518.4227 1583.1597,-519.3602 1582.6393,-520.2913 1582.0535,-521.2134 1581.4064,-522.124 1580.7018,-523.0205 1579.9436,-523.9006 1579.1359,-524.7618 1578.2824,-525.6017 1577.387,-526.4181 1576.4534,-527.2087 1575.485,-527.9714 1574.4855,-528.704 1573.4579,-529.4046 1572.4055,-530.0711 1571.331,-530.7019 1570.2372,-531.2952 1569.1265,-531.8493 1568.0012,-532.3627 1566.8634,-532.8341 1565.715,-533.262 1564.5577,-533.6455 1563.3929,-533.9833 1562.222,-534.2746 1561.0462,-534.5186 1559.8666,-534.7146 1558.6841,-534.8621 1557.4997,-534.9606 1556.3141,-535.0099 1555.1281,-535.0099 1553.9425,-534.9606 1552.7581,-534.8621 1551.5756,-534.7146 1550.396,-534.5186 1549.2203,-534.2746 1548.0494,-533.9833 1546.8846,-533.6455 1545.7272,-533.262 1544.5788,-532.8341 1543.441,-532.3627 1542.3157,-531.8493 1541.205,-531.2952 1540.1112,-530.7019 1539.0367,-530.0711 1537.9843,-529.4046 1536.9567,-528.704 1535.9572,-527.9714 1534.9889,-527.2087 1534.0552,-526.4181 1533.1598,-525.6017 1532.3063,-524.7618 1531.4986,-523.9006 1530.7404,-523.0205 1530.0358,-522.124 1529.3887,-521.2134 1528.803,-520.2913 1528.2825,-519.3602 1527.8311,-518.4227 1527.4524,-517.4813 1527.15,-516.5386 1526.9272,-515.5972 1526.7869,-514.6597 1526.7321,-513.7286 1526.7653,-512.8065 1526.8886,-511.8959 1527.1039,-510.9993 1527.4126,-510.1193 1527.8156,-509.2581 1528.3136,-508.4181 1528.9066,-507.6017 1529.5942,-506.8111 1530.3756,-506.0485 1531.2494,-505.3159 1532.2137,-504.6153 1533.2662,-503.9487 1534.4039,-503.3179 1535.6235,-502.7247 1536.9211,-502.1706 1538.2923,-501.6571 1539.7326,-501.1858 1541.2365,-500.7578 1542.7986,-500.3744 1544.4129,-500.0366 1546.0731,-499.7453 1547.7727,-499.5013 1549.5048,-499.3053 1551.2625,-499.1578 1553.0386,-499.0593 1554.8257,-499.0099 1556.6165,-499.0099 1558.4036,-499.0593"/>
<text text-anchor="middle" x="1555.7211" y="-514.5099" font-family="Courier,monospace" font-weight="bold" font-size="10.00" fill="#000000">E</text>
</g>
<!-- STATE_A&#45;&gt;STATE_E -->
<g id="edge2" class="edge">
<title>STATE_A&#45;&gt;STATE_E</title>
<path fill="none" stroke="#000000" d="M356.8352,-408.0864C373.5018,-420.1447 400.0222,-437.5621 425.7342,-447.0099 509.3006,-477.7163 534.4484,-479.0099 623.4777,-479.0099 623.4777,-479.0099 623.4777,-479.0099 1064.7211,-479.0099 1243.4841,-479.0099 1288.4888,-483.8413 1466.2211,-503.0099 1482.8959,-504.8083 1501.2091,-507.5378 1516.9021,-510.1106"/>
<polygon fill="#000000" stroke="#000000" points="1516.3519,-513.5671 1526.7927,-511.7673 1517.5083,-506.6633 1516.3519,-513.5671"/>
<text text-anchor="middle" x="899.7211" y="-482.0099" font-family="Courier,monospace" font-weight="bold" font-size="10.00" fill="#000000">0.003907601046701501</text>
</g>
<!-- STATE_F -->
<g id="node6" class="node">
<title>STATE_F</title>
<polygon fill="none" stroke="#000000" points="1224.9036,-361.0593 1226.6797,-361.1578 1228.4374,-361.3053 1230.1696,-361.5013 1231.8691,-361.7453 1233.5294,-362.0366 1235.1436,-362.3744 1236.7057,-362.7578 1238.2097,-363.1858 1239.6499,-363.6571 1241.0211,-364.1706 1242.3187,-364.7247 1243.5383,-365.3179 1244.676,-365.9487 1245.7285,-366.6153 1246.6928,-367.3159 1247.5666,-368.0485 1248.348,-368.8111 1249.0357,-369.6017 1249.6287,-370.4181 1250.1266,-371.2581 1250.5296,-372.1193 1250.8383,-372.9993 1251.0536,-373.8959 1251.1769,-374.8065 1251.2101,-375.7286 1251.1553,-376.6597 1251.0151,-377.5972 1250.7922,-378.5386 1250.4898,-379.4813 1250.1111,-380.4227 1249.6597,-381.3602 1249.1393,-382.2913 1248.5535,-383.2134 1247.9064,-384.124 1247.2018,-385.0205 1246.4436,-385.9006 1245.6359,-386.7618 1244.7824,-387.6017 1243.887,-388.4181 1242.9534,-389.2087 1241.985,-389.9714 1240.9855,-390.704 1239.9579,-391.4046 1238.9055,-392.0711 1237.831,-392.7019 1236.7372,-393.2952 1235.6265,-393.8493 1234.5012,-394.3627 1233.3634,-394.8341 1232.215,-395.262 1231.0577,-395.6455 1229.8929,-395.9833 1228.722,-396.2746 1227.5462,-396.5186 1226.3666,-396.7146 1225.1841,-396.8621 1223.9997,-396.9606 1222.8141,-397.0099 1221.6281,-397.0099 1220.4425,-396.9606 1219.2581,-396.8621 1218.0756,-396.7146 1216.896,-396.5186 1215.7203,-396.2746 1214.5494,-395.9833 1213.3846,-395.6455 1212.2272,-395.262 1211.0788,-394.8341 1209.941,-394.3627 1208.8157,-393.8493 1207.705,-393.2952 1206.6112,-392.7019 1205.5367,-392.0711 1204.4843,-391.4046 1203.4567,-390.704 1202.4572,-389.9714 1201.4889,-389.2087 1200.5552,-388.4181 1199.6598,-387.6017 1198.8063,-386.7618 1197.9986,-385.9006 1197.2404,-385.0205 1196.5358,-384.124 1195.8887,-383.2134 1195.303,-382.2913 1194.7825,-381.3602 1194.3311,-380.4227 1193.9524,-379.4813 1193.65,-378.5386 1193.4272,-377.5972 1193.2869,-376.6597 1193.2321,-375.7286 1193.2653,-374.8065 1193.3886,-373.8959 1193.6039,-372.9993 1193.9126,-372.1193 1194.3156,-371.2581 1194.8136,-370.4181 1195.4066,-369.6017 1196.0942,-368.8111 1196.8756,-368.0485 1197.7494,-367.3159 1198.7137,-366.6153 1199.7662,-365.9487 1200.9039,-365.3179 1202.1235,-364.7247 1203.4211,-364.1706 1204.7923,-363.6571 1206.2326,-363.1858 1207.7365,-362.7578 1209.2986,-362.3744 1210.9129,-362.0366 1212.5731,-361.7453 1214.2727,-361.5013 1216.0048,-361.3053 1217.7625,-361.1578 1219.5386,-361.0593 1221.3257,-361.0099 1223.1165,-361.0099 1224.9036,-361.0593"/>
<text text-anchor="middle" x="1222.2211" y="-376.5099" font-family="Courier,monospace" font-weight="bold" font-size="10.00" fill="#000000">F</text>
</g>
<!-- STATE_A&#45;&gt;STATE_F -->
<g id="edge3" class="edge">
<title>STATE_A&#45;&gt;STATE_F</title>
<path fill="none" stroke="#000000" d="M368.5944,-394.4867C499.135,-392.1199 1034.4467,-382.4144 1183.5258,-379.7115"/>
<polygon fill="#000000" stroke="#000000" points="1183.6462,-383.21 1193.5811,-379.5292 1183.5193,-376.2111 1183.6462,-383.21"/>
<text text-anchor="middle" x="738.2211" y="-391.0099" font-family="Courier,monospace" font-weight="bold" font-size="10.00" fill="#000000">0.534677584093933</text>
</g>
<!-- SYMBOL_z -->
<g id="node8" class="node">
<title>SYMBOL_z</title>
<polygon fill="none" stroke="#000000" stroke-dasharray="5,2" points="1845.6471,-283.0593 1847.4231,-283.1578 1849.1808,-283.3053 1850.913,-283.5013 1852.6126,-283.7453 1854.2728,-284.0366 1855.8871,-284.3744 1857.4492,-284.7578 1858.9531,-285.1858 1860.3933,-285.6571 1861.7646,-286.1706 1863.0622,-286.7247 1864.2818,-287.3179 1865.4195,-287.9487 1866.4719,-288.6153 1867.4363,-289.3159 1868.3101,-290.0485 1869.0915,-290.8111 1869.7791,-291.6017 1870.3721,-292.4181 1870.8701,-293.2581 1871.2731,-294.1193 1871.5817,-294.9993 1871.797,-295.8959 1871.9203,-296.8065 1871.9535,-297.7286 1871.8987,-298.6597 1871.7585,-299.5972 1871.5356,-300.5386 1871.2332,-301.4813 1870.8545,-302.4227 1870.4032,-303.3602 1869.8827,-304.2913 1869.297,-305.2134 1868.6498,-306.124 1867.9452,-307.0205 1867.1871,-307.9006 1866.3793,-308.7618 1865.5259,-309.6017 1864.6305,-310.4181 1863.6968,-311.2087 1862.7285,-311.9714 1861.7289,-312.704 1860.7014,-313.4046 1859.6489,-314.0711 1858.5744,-314.7019 1857.4806,-315.2952 1856.3699,-315.8493 1855.2447,-316.3627 1854.1069,-316.8341 1852.9585,-317.262 1851.8011,-317.6455 1850.6363,-317.9833 1849.4654,-318.2746 1848.2896,-318.5186 1847.11,-318.7146 1845.9276,-318.8621 1844.7431,-318.9606 1843.5575,-319.0099 1842.3716,-319.0099 1841.186,-318.9606 1840.0015,-318.8621 1838.8191,-318.7146 1837.6395,-318.5186 1836.4637,-318.2746 1835.2928,-317.9833 1834.128,-317.6455 1832.9706,-317.262 1831.8222,-316.8341 1830.6844,-316.3627 1829.5592,-315.8493 1828.4485,-315.2952 1827.3547,-314.7019 1826.2802,-314.0711 1825.2277,-313.4046 1824.2002,-312.704 1823.2006,-311.9714 1822.2323,-311.2087 1821.2986,-310.4181 1820.4032,-309.6017 1819.5498,-308.7618 1818.742,-307.9006 1817.9839,-307.0205 1817.2793,-306.124 1816.6321,-305.2134 1816.0464,-304.2913 1815.5259,-303.3602 1815.0746,-302.4227 1814.6959,-301.4813 1814.3935,-300.5386 1814.1706,-299.5972 1814.0304,-298.6597 1813.9756,-297.7286 1814.0088,-296.8065 1814.1321,-295.8959 1814.3474,-294.9993 1814.656,-294.1193 1815.059,-293.2581 1815.557,-292.4181 1816.15,-291.6017 1816.8376,-290.8111 1817.619,-290.0485 1818.4928,-289.3159 1819.4572,-288.6153 1820.5096,-287.9487 1821.6473,-287.3179 1822.8669,-286.7247 1824.1645,-286.1706 1825.5358,-285.6571 1826.976,-285.1858 1828.4799,-284.7578 1830.042,-284.3744 1831.6563,-284.0366 1833.3165,-283.7453 1835.0161,-283.5013 1836.7483,-283.3053 1838.506,-283.1578 1840.282,-283.0593 1842.0691,-283.0099 1843.86,-283.0099 1845.6471,-283.0593"/>
<text text-anchor="middle" x="1842.9645" y="-298.5099" font-family="Courier,monospace" font-weight="bold" font-size="10.00" fill="#000000">z</text>
</g>
<!-- STATE_A&#45;&gt;SYMBOL_z -->
<g id="edge14" class="edge">
<title>STATE_A&#45;&gt;SYMBOL_z</title>
<path fill="none" stroke="#000000" stroke-dasharray="5,2" d="M366.3795,-399.3065C383.3232,-401.8181 405.7553,-404.7374 425.7342,-406.0099 959.0389,-439.9783 1099.2978,-442.8634 1627.2211,-360.0099 1702.584,-348.1823 1724.9744,-357.2747 1796.2211,-330.0099 1803.3343,-327.2879 1810.5519,-323.4474 1817.1186,-319.4495"/>
<polygon fill="#000000" stroke="#000000" points="1819.0848,-322.3464 1825.5988,-313.9906 1815.2958,-316.4605 1819.0848,-322.3464"/>
<text text-anchor="middle" x="1064.7211" y="-430.0099" font-family="Courier,monospace" font-weight="bold" font-size="10.00" fill="#000000">0.12230164561868632</text>
</g>
<!-- SYMBOL_x -->
<g id="node9" class="node">
<title>SYMBOL_x</title>
<polygon fill="none" stroke="#000000" stroke-dasharray="5,2" points="1845.6471,-103.0593 1847.4231,-103.1578 1849.1808,-103.3053 1850.913,-103.5013 1852.6126,-103.7453 1854.2728,-104.0366 1855.8871,-104.3744 1857.4492,-104.7578 1858.9531,-105.1858 1860.3933,-105.6571 1861.7646,-106.1706 1863.0622,-106.7247 1864.2818,-107.3179 1865.4195,-107.9487 1866.4719,-108.6153 1867.4363,-109.3159 1868.3101,-110.0485 1869.0915,-110.8111 1869.7791,-111.6017 1870.3721,-112.4181 1870.8701,-113.2581 1871.2731,-114.1193 1871.5817,-114.9993 1871.797,-115.8959 1871.9203,-116.8065 1871.9535,-117.7286 1871.8987,-118.6597 1871.7585,-119.5972 1871.5356,-120.5386 1871.2332,-121.4813 1870.8545,-122.4227 1870.4032,-123.3602 1869.8827,-124.2913 1869.297,-125.2134 1868.6498,-126.124 1867.9452,-127.0205 1867.1871,-127.9006 1866.3793,-128.7618 1865.5259,-129.6017 1864.6305,-130.4181 1863.6968,-131.2087 1862.7285,-131.9714 1861.7289,-132.704 1860.7014,-133.4046 1859.6489,-134.0711 1858.5744,-134.7019 1857.4806,-135.2952 1856.3699,-135.8493 1855.2447,-136.3627 1854.1069,-136.8341 1852.9585,-137.262 1851.8011,-137.6455 1850.6363,-137.9833 1849.4654,-138.2746 1848.2896,-138.5186 1847.11,-138.7146 1845.9276,-138.8621 1844.7431,-138.9606 1843.5575,-139.0099 1842.3716,-139.0099 1841.186,-138.9606 1840.0015,-138.8621 1838.8191,-138.7146 1837.6395,-138.5186 1836.4637,-138.2746 1835.2928,-137.9833 1834.128,-137.6455 1832.9706,-137.262 1831.8222,-136.8341 1830.6844,-136.3627 1829.5592,-135.8493 1828.4485,-135.2952 1827.3547,-134.7019 1826.2802,-134.0711 1825.2277,-133.4046 1824.2002,-132.704 1823.2006,-131.9714 1822.2323,-131.2087 1821.2986,-130.4181 1820.4032,-129.6017 1819.5498,-128.7618 1818.742,-127.9006 1817.9839,-127.0205 1817.2793,-126.124 1816.6321,-125.2134 1816.0464,-124.2913 1815.5259,-123.3602 1815.0746,-122.4227 1814.6959,-121.4813 1814.3935,-120.5386 1814.1706,-119.5972 1814.0304,-118.6597 1813.9756,-117.7286 1814.0088,-116.8065 1814.1321,-115.8959 1814.3474,-114.9993 1814.656,-114.1193 1815.059,-113.2581 1815.557,-112.4181 1816.15,-111.6017 1816.8376,-110.8111 1817.619,-110.0485 1818.4928,-109.3159 1819.4572,-108.6153 1820.5096,-107.9487 1821.6473,-107.3179 1822.8669,-106.7247 1824.1645,-106.1706 1825.5358,-105.6571 1826.976,-105.1858 1828.4799,-104.7578 1830.042,-104.3744 1831.6563,-104.0366 1833.3165,-103.7453 1835.0161,-103.5013 1836.7483,-103.3053 1838.506,-103.1578 1840.282,-103.0593 1842.0691,-103.0099 1843.86,-103.0099 1845.6471,-103.0593"/>
<text text-anchor="middle" x="1842.9645" y="-118.5099" font-family="Courier,monospace" font-weight="bold" font-size="10.00" fill="#000000">x</text>
</g>
<!-- STATE_A&#45;&gt;SYMBOL_x -->
<g id="edge15" class="edge">
<title>STATE_A&#45;&gt;SYMBOL_x</title>
<path fill="none" stroke="#000000" stroke-dasharray="5,2" d="M345.742,-377.1995C357.1748,-345.3876 384.6442,-278.0188 425.7342,-234.0099 513.2137,-140.3162 549.2797,-123.4875 670.2211,-81.0099 1071.7326,60.0106 1202.6437,-21.1601 1627.2211,-50.0099 1702.6315,-55.134 1729.0138,-34.4242 1796.2211,-69.0099 1808.111,-75.1286 1818.4234,-85.6097 1826.3143,-95.5661"/>
<polygon fill="#000000" stroke="#000000" points="1823.5822,-97.7576 1832.3547,-103.6986 1829.2018,-93.5838 1823.5822,-97.7576"/>
<text text-anchor="middle" x="1064.7211" y="-8.0099" font-family="Courier,monospace" font-weight="bold" font-size="10.00" fill="#000000">0.4518422232877438</text>
</g>
<!-- SYMBOL_y -->
<g id="node10" class="node">
<title>SYMBOL_y</title>
<polygon fill="none" stroke="#000000" stroke-dasharray="5,2" points="1845.6471,-532.0593 1847.4231,-532.1578 1849.1808,-532.3053 1850.913,-532.5013 1852.6126,-532.7453 1854.2728,-533.0366 1855.8871,-533.3744 1857.4492,-533.7578 1858.9531,-534.1858 1860.3933,-534.6571 1861.7646,-535.1706 1863.0622,-535.7247 1864.2818,-536.3179 1865.4195,-536.9487 1866.4719,-537.6153 1867.4363,-538.3159 1868.3101,-539.0485 1869.0915,-539.8111 1869.7791,-540.6017 1870.3721,-541.4181 1870.8701,-542.2581 1871.2731,-543.1193 1871.5817,-543.9993 1871.797,-544.8959 1871.9203,-545.8065 1871.9535,-546.7286 1871.8987,-547.6597 1871.7585,-548.5972 1871.5356,-549.5386 1871.2332,-550.4813 1870.8545,-551.4227 1870.4032,-552.3602 1869.8827,-553.2913 1869.297,-554.2134 1868.6498,-555.124 1867.9452,-556.0205 1867.1871,-556.9006 1866.3793,-557.7618 1865.5259,-558.6017 1864.6305,-559.4181 1863.6968,-560.2087 1862.7285,-560.9714 1861.7289,-561.704 1860.7014,-562.4046 1859.6489,-563.0711 1858.5744,-563.7019 1857.4806,-564.2952 1856.3699,-564.8493 1855.2447,-565.3627 1854.1069,-565.8341 1852.9585,-566.262 1851.8011,-566.6455 1850.6363,-566.9833 1849.4654,-567.2746 1848.2896,-567.5186 1847.11,-567.7146 1845.9276,-567.8621 1844.7431,-567.9606 1843.5575,-568.0099 1842.3716,-568.0099 1841.186,-567.9606 1840.0015,-567.8621 1838.8191,-567.7146 1837.6395,-567.5186 1836.4637,-567.2746 1835.2928,-566.9833 1834.128,-566.6455 1832.9706,-566.262 1831.8222,-565.8341 1830.6844,-565.3627 1829.5592,-564.8493 1828.4485,-564.2952 1827.3547,-563.7019 1826.2802,-563.0711 1825.2277,-562.4046 1824.2002,-561.704 1823.2006,-560.9714 1822.2323,-560.2087 1821.2986,-559.4181 1820.4032,-558.6017 1819.5498,-557.7618 1818.742,-556.9006 1817.9839,-556.0205 1817.2793,-555.124 1816.6321,-554.2134 1816.0464,-553.2913 1815.5259,-552.3602 1815.0746,-551.4227 1814.6959,-550.4813 1814.3935,-549.5386 1814.1706,-548.5972 1814.0304,-547.6597 1813.9756,-546.7286 1814.0088,-545.8065 1814.1321,-544.8959 1814.3474,-543.9993 1814.656,-543.1193 1815.059,-542.2581 1815.557,-541.4181 1816.15,-540.6017 1816.8376,-539.8111 1817.619,-539.0485 1818.4928,-538.3159 1819.4572,-537.6153 1820.5096,-536.9487 1821.6473,-536.3179 1822.8669,-535.7247 1824.1645,-535.1706 1825.5358,-534.6571 1826.976,-534.1858 1828.4799,-533.7578 1830.042,-533.3744 1831.6563,-533.0366 1833.3165,-532.7453 1835.0161,-532.5013 1836.7483,-532.3053 1838.506,-532.1578 1840.282,-532.0593 1842.0691,-532.0099 1843.86,-532.0099 1845.6471,-532.0593"/>
<text text-anchor="middle" x="1842.9645" y="-547.5099" font-family="Courier,monospace" font-weight="bold" font-size="10.00" fill="#000000">y</text>
</g>
<!-- STATE_A&#45;&gt;SYMBOL_y -->
<g id="edge16" class="edge">
<title>STATE_A&#45;&gt;SYMBOL_y</title>
<path fill="none" stroke="#000000" stroke-dasharray="5,2" d="M348.4695,-411.8498C378.5217,-467.2022 483.5483,-640.0099 623.4777,-640.0099 623.4777,-640.0099 623.4777,-640.0099 1555.7211,-640.0099 1665.08,-640.0099 1697.6431,-635.3568 1796.2211,-588.0099 1805.0829,-583.7536 1813.7391,-577.4996 1821.1458,-571.2889"/>
<polygon fill="#000000" stroke="#000000" points="1823.4677,-573.9078 1828.6432,-564.6631 1818.8322,-568.6626 1823.4677,-573.9078"/>
<text text-anchor="middle" x="1064.7211" y="-643.0099" font-family="Courier,monospace" font-weight="bold" font-size="10.00" fill="#000000">0.42585613109357</text>
</g>
<!-- STATE_C -->
<g id="node3" class="node">
<title>STATE_C</title>
<polygon fill="none" stroke="#000000" points="902.4036,-246.0593 904.1797,-246.1578 905.9374,-246.3053 907.6696,-246.5013 909.3691,-246.7453 911.0294,-247.0366 912.6436,-247.3744 914.2057,-247.7578 915.7097,-248.1858 917.1499,-248.6571 918.5211,-249.1706 919.8187,-249.7247 921.0383,-250.3179 922.176,-250.9487 923.2285,-251.6153 924.1928,-252.3159 925.0666,-253.0485 925.848,-253.8111 926.5357,-254.6017 927.1287,-255.4181 927.6266,-256.2581 928.0296,-257.1193 928.3383,-257.9993 928.5536,-258.8959 928.6769,-259.8065 928.7101,-260.7286 928.6553,-261.6597 928.5151,-262.5972 928.2922,-263.5386 927.9898,-264.4813 927.6111,-265.4227 927.1597,-266.3602 926.6393,-267.2913 926.0535,-268.2134 925.4064,-269.124 924.7018,-270.0205 923.9436,-270.9006 923.1359,-271.7618 922.2824,-272.6017 921.387,-273.4181 920.4534,-274.2087 919.485,-274.9714 918.4855,-275.704 917.4579,-276.4046 916.4055,-277.0711 915.331,-277.7019 914.2372,-278.2952 913.1265,-278.8493 912.0012,-279.3627 910.8634,-279.8341 909.715,-280.262 908.5577,-280.6455 907.3929,-280.9833 906.222,-281.2746 905.0462,-281.5186 903.8666,-281.7146 902.6841,-281.8621 901.4997,-281.9606 900.3141,-282.0099 899.1281,-282.0099 897.9425,-281.9606 896.7581,-281.8621 895.5756,-281.7146 894.396,-281.5186 893.2203,-281.2746 892.0494,-280.9833 890.8846,-280.6455 889.7272,-280.262 888.5788,-279.8341 887.441,-279.3627 886.3157,-278.8493 885.205,-278.2952 884.1112,-277.7019 883.0367,-277.0711 881.9843,-276.4046 880.9567,-275.704 879.9572,-274.9714 878.9889,-274.2087 878.0552,-273.4181 877.1598,-272.6017 876.3063,-271.7618 875.4986,-270.9006 874.7404,-270.0205 874.0358,-269.124 873.3887,-268.2134 872.803,-267.2913 872.2825,-266.3602 871.8311,-265.4227 871.4524,-264.4813 871.15,-263.5386 870.9272,-262.5972 870.7869,-261.6597 870.7321,-260.7286 870.7653,-259.8065 870.8886,-258.8959 871.1039,-257.9993 871.4126,-257.1193 871.8156,-256.2581 872.3136,-255.4181 872.9066,-254.6017 873.5942,-253.8111 874.3756,-253.0485 875.2494,-252.3159 876.2137,-251.6153 877.2662,-250.9487 878.4039,-250.3179 879.6235,-249.7247 880.9211,-249.1706 882.2923,-248.6571 883.7326,-248.1858 885.2365,-247.7578 886.7986,-247.3744 888.4129,-247.0366 890.0731,-246.7453 891.7727,-246.5013 893.5048,-246.3053 895.2625,-246.1578 897.0386,-246.0593 898.8257,-246.0099 900.6165,-246.0099 902.4036,-246.0593"/>
<text text-anchor="middle" x="899.7211" y="-261.5099" font-family="Courier,monospace" font-weight="bold" font-size="10.00" fill="#000000">C</text>
</g>
<!-- STATE_B&#45;&gt;STATE_C -->
<g id="edge4" class="edge">
<title>STATE_B&#45;&gt;STATE_C</title>
<path fill="none" stroke="#000000" d="M649.466,-215.0901C698.1457,-224.606 803.3114,-245.1638 860.597,-256.362"/>
<polygon fill="#000000" stroke="#000000" points="860.2261,-259.8556 870.7118,-258.3392 861.5691,-252.9857 860.2261,-259.8556"/>
<text text-anchor="middle" x="738.2211" y="-247.0099" font-family="Courier,monospace" font-weight="bold" font-size="10.00" fill="#000000">0.4447405012875017</text>
</g>
<!-- STATE_D -->
<g id="node4" class="node">
<title>STATE_D</title>
<polygon fill="none" stroke="#000000" points="1067.4036,-166.0593 1069.1797,-166.1578 1070.9374,-166.3053 1072.6696,-166.5013 1074.3691,-166.7453 1076.0294,-167.0366 1077.6436,-167.3744 1079.2057,-167.7578 1080.7097,-168.1858 1082.1499,-168.6571 1083.5211,-169.1706 1084.8187,-169.7247 1086.0383,-170.3179 1087.176,-170.9487 1088.2285,-171.6153 1089.1928,-172.3159 1090.0666,-173.0485 1090.848,-173.8111 1091.5357,-174.6017 1092.1287,-175.4181 1092.6266,-176.2581 1093.0296,-177.1193 1093.3383,-177.9993 1093.5536,-178.8959 1093.6769,-179.8065 1093.7101,-180.7286 1093.6553,-181.6597 1093.5151,-182.5972 1093.2922,-183.5386 1092.9898,-184.4813 1092.6111,-185.4227 1092.1597,-186.3602 1091.6393,-187.2913 1091.0535,-188.2134 1090.4064,-189.124 1089.7018,-190.0205 1088.9436,-190.9006 1088.1359,-191.7618 1087.2824,-192.6017 1086.387,-193.4181 1085.4534,-194.2087 1084.485,-194.9714 1083.4855,-195.704 1082.4579,-196.4046 1081.4055,-197.0711 1080.331,-197.7019 1079.2372,-198.2952 1078.1265,-198.8493 1077.0012,-199.3627 1075.8634,-199.8341 1074.715,-200.262 1073.5577,-200.6455 1072.3929,-200.9833 1071.222,-201.2746 1070.0462,-201.5186 1068.8666,-201.7146 1067.6841,-201.8621 1066.4997,-201.9606 1065.3141,-202.0099 1064.1281,-202.0099 1062.9425,-201.9606 1061.7581,-201.8621 1060.5756,-201.7146 1059.396,-201.5186 1058.2203,-201.2746 1057.0494,-200.9833 1055.8846,-200.6455 1054.7272,-200.262 1053.5788,-199.8341 1052.441,-199.3627 1051.3157,-198.8493 1050.205,-198.2952 1049.1112,-197.7019 1048.0367,-197.0711 1046.9843,-196.4046 1045.9567,-195.704 1044.9572,-194.9714 1043.9889,-194.2087 1043.0552,-193.4181 1042.1598,-192.6017 1041.3063,-191.7618 1040.4986,-190.9006 1039.7404,-190.0205 1039.0358,-189.124 1038.3887,-188.2134 1037.803,-187.2913 1037.2825,-186.3602 1036.8311,-185.4227 1036.4524,-184.4813 1036.15,-183.5386 1035.9272,-182.5972 1035.7869,-181.6597 1035.7321,-180.7286 1035.7653,-179.8065 1035.8886,-178.8959 1036.1039,-177.9993 1036.4126,-177.1193 1036.8156,-176.2581 1037.3136,-175.4181 1037.9066,-174.6017 1038.5942,-173.8111 1039.3756,-173.0485 1040.2494,-172.3159 1041.2137,-171.6153 1042.2662,-170.9487 1043.4039,-170.3179 1044.6235,-169.7247 1045.9211,-169.1706 1047.2923,-168.6571 1048.7326,-168.1858 1050.2365,-167.7578 1051.7986,-167.3744 1053.4129,-167.0366 1055.0731,-166.7453 1056.7727,-166.5013 1058.5048,-166.3053 1060.2625,-166.1578 1062.0386,-166.0593 1063.8257,-166.0099 1065.6165,-166.0099 1067.4036,-166.0593"/>
<text text-anchor="middle" x="1064.7211" y="-181.5099" font-family="Courier,monospace" font-weight="bold" font-size="10.00" fill="#000000">D</text>
</g>
<!-- STATE_B&#45;&gt;STATE_D -->
<g id="edge5" class="edge">
<title>STATE_B&#45;&gt;STATE_D</title>
<path fill="none" stroke="#000000" d="M652.6289,-206.6489C658.4509,-206.0461 664.5263,-205.4658 670.2211,-205.0099 800.6055,-194.5737 955.6617,-188.0323 1026.2716,-185.3746"/>
<polygon fill="#000000" stroke="#000000" points="1026.6004,-188.8649 1036.4635,-184.9959 1026.3404,-181.8697 1026.6004,-188.8649"/>
<text text-anchor="middle" x="738.2211" y="-208.0099" font-family="Courier,monospace" font-weight="bold" font-size="10.00" fill="#000000">0.5552594987124984</text>
</g>
<!-- STATE_B&#45;&gt;SYMBOL_z -->
<g id="edge17" class="edge">
<title>STATE_B&#45;&gt;SYMBOL_z</title>
<path fill="none" stroke="#000000" stroke-dasharray="5,2" d="M648.8117,-198.882C655.6489,-196.2598 663.1219,-193.7304 670.2211,-192.0099 810.5549,-158.0011 849.0355,-164.799 993.2211,-157.0099 1171.7107,-147.3677 1648.4272,-103.469 1796.2211,-204.0099 1819.4091,-219.7842 1831.4725,-250.3828 1837.4866,-273.0134"/>
<polygon fill="#000000" stroke="#000000" points="1834.0927,-273.8697 1839.8423,-282.7687 1840.8971,-272.2265 1834.0927,-273.8697"/>
<text text-anchor="middle" x="1222.2211" y="-151.0099" font-family="Courier,monospace" font-weight="bold" font-size="10.00" fill="#000000">0.8172998438067757</text>
</g>
<!-- STATE_B&#45;&gt;SYMBOL_x -->
<g id="edge18" class="edge">
<title>STATE_B&#45;&gt;SYMBOL_x</title>
<path fill="none" stroke="#000000" stroke-dasharray="5,2" d="M628.3244,-192.0436C634.5943,-172.4797 647.5047,-141.868 670.2211,-126.0099 742.9872,-75.2126 975.9784,-64.0099 1064.7211,-64.0099 1064.7211,-64.0099 1064.7211,-64.0099 1555.7211,-64.0099 1646.948,-64.0099 1751.4089,-92.0134 1805.7331,-108.764"/>
<polygon fill="#000000" stroke="#000000" points="1805.0058,-112.2037 1815.5948,-111.8519 1807.0976,-105.5236 1805.0058,-112.2037"/>
<text text-anchor="middle" x="1222.2211" y="-67.0099" font-family="Courier,monospace" font-weight="bold" font-size="10.00" fill="#000000">0.1047424821472081</text>
</g>
<!-- STATE_B&#45;&gt;SYMBOL_y -->
<g id="edge19" class="edge">
<title>STATE_B&#45;&gt;SYMBOL_y</title>
<path fill="none" stroke="#000000" stroke-dasharray="5,2" d="M630.2337,-227.3712C637.7605,-244.8257 651.395,-271.5777 670.2211,-289.0099 782.8673,-393.3156 1157.5651,-524.4868 1308.2211,-554.0099 1455.3902,-582.8498 1495.2789,-568.2169 1645.2211,-571.0099 1712.3206,-572.2598 1730.6001,-585.0734 1796.2211,-571.0099 1802.1283,-569.7439 1808.1906,-567.672 1813.91,-565.3107"/>
<polygon fill="#000000" stroke="#000000" points="1815.4473,-568.457 1823.1239,-561.1549 1812.5692,-562.076 1815.4473,-568.457"/>
<text text-anchor="middle" x="1222.2211" y="-552.0099" font-family="Courier,monospace" font-weight="bold" font-size="10.00" fill="#000000">0.0779576740460163</text>
</g>
<!-- STATE_C&#45;&gt;STATE_F -->
<g id="edge6" class="edge">
<title>STATE_C&#45;&gt;STATE_F</title>
<path fill="none" stroke="#000000" d="M927.1094,-267.1885C987.6474,-274.317 1128.1423,-291.4667 1136.2211,-298.0099 1154.2501,-312.6122 1138.5515,-329.9004 1154.2211,-347.0099 1162.3999,-355.9403 1173.5863,-362.6014 1184.5245,-367.4648"/>
<polygon fill="#000000" stroke="#000000" points="1183.408,-370.7885 1193.991,-371.2879 1186.0293,-364.2979 1183.408,-370.7885"/>
<text text-anchor="middle" x="1064.7211" y="-301.0099" font-family="Courier,monospace" font-weight="bold" font-size="10.00" fill="#000000">1.0</text>
</g>
<!-- STATE_C&#45;&gt;SYMBOL_z -->
<g id="edge20" class="edge">
<title>STATE_C&#45;&gt;SYMBOL_z</title>
<path fill="none" stroke="#000000" stroke-dasharray="5,2" d="M928.551,-262.6582C1026.6094,-258.3825 1356.192,-246.652 1627.2211,-268.0099 1689.5117,-272.9186 1761.0721,-285.1962 1804.1135,-293.3125"/>
<polygon fill="#000000" stroke="#000000" points="1803.6785,-296.7926 1814.1573,-295.2288 1804.9904,-289.9166 1803.6785,-296.7926"/>
<text text-anchor="middle" x="1387.2211" y="-261.0099" font-family="Courier,monospace" font-weight="bold" font-size="10.00" fill="#000000">0.9740188384230991</text>
</g>
<!-- STATE_C&#45;&gt;SYMBOL_x -->
<g id="edge22" class="edge">
<title>STATE_C&#45;&gt;SYMBOL_x</title>
<path fill="none" stroke="#000000" stroke-dasharray="5,2" d="M928.7592,-260.0976C947.2072,-257.658 971.5995,-254.517 993.2211,-252.0099 1203.1618,-227.6672 1258.4885,-241.9305 1466.2211,-203.0099 1547.2929,-187.8204 1564.6602,-171.7103 1645.2211,-154.0099 1700.7674,-141.8056 1765.9658,-131.7367 1805.8656,-126.0492"/>
<polygon fill="#000000" stroke="#000000" points="1806.5172,-129.492 1815.9311,-124.631 1805.5406,-122.5605 1806.5172,-129.492"/>
<text text-anchor="middle" x="1387.2211" y="-229.0099" font-family="Courier,monospace" font-weight="bold" font-size="10.00" fill="#000000">0.005904746862017632</text>
</g>
<!-- STATE_C&#45;&gt;SYMBOL_y -->
<g id="edge21" class="edge">
<title>STATE_C&#45;&gt;SYMBOL_y</title>
<path fill="none" stroke="#000000" stroke-dasharray="5,2" d="M925.046,-269.9274C940.4814,-274.3442 960.0814,-281.4588 975.2211,-292.0099 985.3063,-299.0385 983.7639,-305.1568 993.2211,-313.0099 1085.9904,-390.0437 1366.0383,-520.069 1484.2211,-544.0099 1599.3049,-567.3231 1739.4198,-559.5562 1805.3026,-553.8402"/>
<polygon fill="#000000" stroke="#000000" points="1805.9538,-557.2957 1815.5984,-552.9104 1805.3241,-550.3241 1805.9538,-557.2957"/>
<text text-anchor="middle" x="1387.2211" y="-542.0099" font-family="Courier,monospace" font-weight="bold" font-size="10.00" fill="#000000">0.020076414714883233</text>
</g>
<!-- STATE_D&#45;&gt;STATE_A -->
<g id="edge7" class="edge">
<title>STATE_D&#45;&gt;STATE_A</title>
<path fill="none" stroke="#000000" d="M1039.2666,-189.7314C1021.3594,-193.7483 996.8305,-199.2342 975.2211,-204.0099 908.1446,-218.834 882.7813,-201.0972 824.2211,-237.0099 813.4515,-243.6145 816.5321,-251.7101 806.2211,-259.0099 717.6997,-321.6802 680.8642,-311.6692 576.7342,-342.0099 507.8664,-362.0762 425.8598,-378.8795 378.5946,-387.8943"/>
<polygon fill="#000000" stroke="#000000" points="377.6637,-384.5082 368.4875,-389.8041 378.9635,-391.3865 377.6637,-384.5082"/>
<text text-anchor="middle" x="623.4777" y="-339.0099" font-family="Courier,monospace" font-weight="bold" font-size="10.00" fill="#000000">1.0</text>
</g>
<!-- STATE_D&#45;&gt;SYMBOL_z -->
<g id="edge23" class="edge">
<title>STATE_D&#45;&gt;SYMBOL_z</title>
<path fill="none" stroke="#000000" stroke-dasharray="5,2" d="M1093.5077,-183.3569C1159.5324,-182.1272 1326.9069,-180.535 1466.2211,-192.0099 1540.076,-198.0932 1732.3089,-202.5028 1796.2211,-240.0099 1810.1103,-248.1609 1821.2936,-262.1864 1829.2349,-274.7347"/>
<polygon fill="#000000" stroke="#000000" points="1826.3252,-276.69 1834.4368,-283.5057 1832.346,-273.1192 1826.3252,-276.69"/>
<text text-anchor="middle" x="1387.2211" y="-195.0099" font-family="Courier,monospace" font-weight="bold" font-size="10.00" fill="#000000">0.9986332659882019</text>
</g>
<!-- STATE_D&#45;&gt;SYMBOL_x -->
<g id="edge24" class="edge">
<title>STATE_D&#45;&gt;SYMBOL_x</title>
<path fill="none" stroke="#000000" stroke-dasharray="5,2" d="M1093.5784,-178.7657C1161.4253,-166.7115 1336.4968,-137.2085 1484.2211,-126.0099 1600.1248,-117.2236 1737.6775,-118.59 1803.7294,-119.9763"/>
<polygon fill="#000000" stroke="#000000" points="1804.0046,-123.4832 1814.08,-120.2062 1804.1602,-116.4849 1804.0046,-123.4832"/>
<text text-anchor="middle" x="1387.2211" y="-148.0099" font-family="Courier,monospace" font-weight="bold" font-size="10.00" fill="#000000">0.0001132969760267028</text>
</g>
<!-- STATE_D&#45;&gt;SYMBOL_y -->
<g id="edge25" class="edge">
<title>STATE_D&#45;&gt;SYMBOL_y</title>
<path fill="none" stroke="#000000" stroke-dasharray="5,2" d="M1086.2579,-193.6727C1176.9914,-234.263 1528.7821,-390.4195 1645.2211,-424.0099 1710.8019,-442.9287 1742.0725,-410.4564 1796.2211,-452.0099 1818.555,-469.149 1830.739,-499.6441 1837.0146,-522.0787"/>
<polygon fill="#000000" stroke="#000000" points="1833.6959,-523.2277 1839.5685,-532.046 1840.4768,-521.4902 1833.6959,-523.2277"/>
<text text-anchor="middle" x="1387.2211" y="-358.0099" font-family="Courier,monospace" font-weight="bold" font-size="10.00" fill="#000000">0.0012534370357714657</text>
</g>
<!-- STATE_E&#45;&gt;STATE_A -->
<g id="edge8" class="edge">
<title>STATE_E&#45;&gt;STATE_A</title>
<path fill="none" stroke="#000000" d="M1526.9956,-516.9793C1410.5701,-516.7034 962.4863,-514.1758 594.7342,-492.0099 519.4239,-487.4707 494.4715,-507.1135 425.7342,-476.0099 397.8996,-463.4148 373.3403,-438.0532 357.6685,-419.0461"/>
<polygon fill="#000000" stroke="#000000" points="360.2882,-416.7176 351.3132,-411.0874 354.8182,-421.0856 360.2882,-416.7176"/>
<text text-anchor="middle" x="899.7211" y="-511.0099" font-family="Courier,monospace" font-weight="bold" font-size="10.00" fill="#000000">1.0</text>
</g>
<!-- STATE_E&#45;&gt;SYMBOL_z -->
<g id="edge26" class="edge">
<title>STATE_E&#45;&gt;SYMBOL_z</title>
<path fill="none" stroke="#000000" stroke-dasharray="5,2" d="M1584.6886,-513.9496C1634.5357,-507.1866 1736.8835,-486.5167 1796.2211,-427.0099 1822.8082,-400.347 1834.4504,-357.2276 1839.4243,-328.9961"/>
<polygon fill="#000000" stroke="#000000" points="1842.9046,-329.3966 1841.0214,-318.9704 1835.9917,-328.2953 1842.9046,-329.3966"/>
<text text-anchor="middle" x="1720.7211" y="-505.0099" font-family="Courier,monospace" font-weight="bold" font-size="10.00" fill="#000000">0.43350267276869103</text>
</g>
<!-- STATE_E&#45;&gt;SYMBOL_x -->
<g id="edge27" class="edge">
<title>STATE_E&#45;&gt;SYMBOL_x</title>
<path fill="none" stroke="#000000" stroke-dasharray="5,2" d="M1584.5239,-510.5835C1599.2976,-505.865 1616.4107,-497.9527 1627.2211,-485.0099 1648.6426,-459.363 1631.6165,-442.5314 1645.2211,-412.0099 1670.5895,-355.0967 1781.1233,-204.0651 1824.9592,-145.0854"/>
<polygon fill="#000000" stroke="#000000" points="1827.9969,-146.8662 1831.1623,-136.7552 1822.3825,-142.6854 1827.9969,-146.8662"/>
<text text-anchor="middle" x="1720.7211" y="-415.0099" font-family="Courier,monospace" font-weight="bold" font-size="10.00" fill="#000000">0.005840547688891549</text>
</g>
<!-- STATE_E&#45;&gt;SYMBOL_y -->
<g id="edge28" class="edge">
<title>STATE_E&#45;&gt;SYMBOL_y</title>
<path fill="none" stroke="#000000" stroke-dasharray="5,2" d="M1584.0526,-517.9773C1629.2186,-519.8567 1720.2036,-525.024 1796.2211,-538.0099 1799.0858,-538.4993 1802.0324,-539.0764 1804.9861,-539.7084"/>
<polygon fill="#000000" stroke="#000000" points="1804.4146,-543.1687 1814.9471,-542.0213 1805.9979,-536.3501 1804.4146,-543.1687"/>
<text text-anchor="middle" x="1720.7211" y="-541.0099" font-family="Courier,monospace" font-weight="bold" font-size="10.00" fill="#000000">0.5606567795424174</text>
</g>
<!-- STATE_F&#45;&gt;STATE_B -->
<g id="edge9" class="edge">
<title>STATE_F&#45;&gt;STATE_B</title>
<path fill="none" stroke="#000000" d="M1193.1879,-373.1906C1082.7272,-350.9866 693.6854,-272.1815 670.2211,-259.0099 659.12,-252.7784 649.0472,-243.052 641.1188,-233.902"/>
<polygon fill="#000000" stroke="#000000" points="643.7785,-231.6257 634.7315,-226.1119 638.3654,-236.0641 643.7785,-231.6257"/>
<text text-anchor="middle" x="899.7211" y="-331.0099" font-family="Courier,monospace" font-weight="bold" font-size="10.00" fill="#000000">0.6591225337125629</text>
</g>
<!-- STATE_F&#45;&gt;STATE_E -->
<g id="edge10" class="edge">
<title>STATE_F&#45;&gt;STATE_E</title>
<path fill="none" stroke="#000000" d="M1243.4746,-389.0645C1260.6957,-396.9887 1285.7109,-407.9996 1308.2211,-416.0099 1377.0103,-440.4887 1406.0577,-419.6394 1466.2211,-461.0099 1477.2076,-468.5647 1473.8038,-476.6878 1484.2211,-485.0099 1494.3484,-493.1004 1506.8458,-499.6023 1518.5447,-504.577"/>
<polygon fill="#000000" stroke="#000000" points="1517.5294,-507.9402 1528.1143,-508.3978 1520.1251,-501.4392 1517.5294,-507.9402"/>
<text text-anchor="middle" x="1387.2211" y="-464.0099" font-family="Courier,monospace" font-weight="bold" font-size="10.00" fill="#000000">0.34087746628743715</text>
</g>
<!-- STATE_F&#45;&gt;SYMBOL_z -->
<g id="edge29" class="edge">
<title>STATE_F&#45;&gt;SYMBOL_z</title>
<path fill="none" stroke="#000000" stroke-dasharray="5,2" d="M1251.3283,-375.3524C1353.0334,-362.5726 1692.5024,-319.9164 1805.7973,-305.6802"/>
<polygon fill="#000000" stroke="#000000" points="1806.5541,-309.1127 1816.0397,-304.3932 1805.6813,-302.1673 1806.5541,-309.1127"/>
<text text-anchor="middle" x="1555.7211" y="-348.0099" font-family="Courier,monospace" font-weight="bold" font-size="10.00" fill="#000000">0.8031770376790793</text>
</g>
<!-- STATE_F&#45;&gt;SYMBOL_x -->
<g id="edge30" class="edge">
<title>STATE_F&#45;&gt;SYMBOL_x</title>
<path fill="none" stroke="#000000" stroke-dasharray="5,2" d="M1238.6112,-363.2476C1254.9653,-348.3847 1281.45,-326.5682 1308.2211,-314.0099 1373.5159,-283.3803 1397.2648,-298.1431 1466.2211,-277.0099 1616.3241,-231.0076 1656.0844,-221.783 1796.2211,-151.0099 1803.0855,-147.5432 1810.2093,-143.325 1816.7648,-139.16"/>
<polygon fill="#000000" stroke="#000000" points="1818.8248,-141.9947 1825.2741,-133.5889 1814.9905,-136.1383 1818.8248,-141.9947"/>
<text text-anchor="middle" x="1555.7211" y="-274.0099" font-family="Courier,monospace" font-weight="bold" font-size="10.00" fill="#000000">0.1572903602486656</text>
</g>
<!-- STATE_F&#45;&gt;SYMBOL_y -->
<g id="edge31" class="edge">
<title>STATE_F&#45;&gt;SYMBOL_y</title>
<path fill="none" stroke="#000000" stroke-dasharray="5,2" d="M1251.0554,-376.9654C1299.0221,-374.8983 1396.7886,-376.46 1466.2211,-416.0099 1477.1986,-422.2629 1473.2308,-431.7795 1484.2211,-438.0099 1606.1563,-507.1347 1676.7611,-410.6906 1796.2211,-484.0099 1811.1946,-493.2 1822.6977,-509.1735 1830.5458,-523.104"/>
<polygon fill="#000000" stroke="#000000" points="1827.6381,-525.0942 1835.3929,-532.3132 1833.8325,-521.8339 1827.6381,-525.0942"/>
<text text-anchor="middle" x="1555.7211" y="-467.0099" font-family="Courier,monospace" font-weight="bold" font-size="10.00" fill="#000000">0.03953260207225509</text>
</g>
<!-- STATE_SOURCE -->
<g id="node7" class="node">
<title>STATE_SOURCE</title>
<polygon fill="none" stroke="#000000" points="42.4515,-68.0593 44.8246,-68.1578 47.1732,-68.3053 49.4877,-68.5013 51.7587,-68.7453 53.9771,-69.0366 56.134,-69.3744 58.2213,-69.7578 60.2308,-70.1858 62.1552,-70.6571 63.9875,-71.1706 65.7213,-71.7247 67.3509,-72.3179 68.8711,-72.9487 70.2774,-73.6153 71.5659,-74.3159 72.7335,-75.0485 73.7776,-75.8111 74.6964,-76.6017 75.4887,-77.4181 76.1541,-78.2581 76.6926,-79.1193 77.105,-79.9993 77.3927,-80.8959 77.5574,-81.8065 77.6018,-82.7286 77.5286,-83.6597 77.3412,-84.5972 77.0434,-85.5386 76.6393,-86.4813 76.1334,-87.4227 75.5302,-88.3602 74.8348,-89.2913 74.0521,-90.2134 73.1874,-91.124 72.246,-92.0205 71.2329,-92.9006 70.1536,-93.7618 69.0132,-94.6017 67.8168,-95.4181 66.5693,-96.2087 65.2754,-96.9714 63.9398,-97.704 62.5668,-98.4046 61.1606,-99.0711 59.7248,-99.7019 58.2633,-100.2952 56.7792,-100.8493 55.2756,-101.3627 53.7553,-101.8341 52.2208,-102.262 50.6744,-102.6455 49.118,-102.9833 47.5535,-103.2746 45.9824,-103.5186 44.4062,-103.7146 42.8263,-103.8621 41.2436,-103.9606 39.6595,-104.0099 38.0748,-104.0099 36.4906,-103.9606 34.908,-103.8621 33.328,-103.7146 31.7518,-103.5186 30.1808,-103.2746 28.6162,-102.9833 27.0598,-102.6455 25.5134,-102.262 23.9789,-101.8341 22.4586,-101.3627 20.955,-100.8493 19.4709,-100.2952 18.0094,-99.7019 16.5737,-99.0711 15.1674,-98.4046 13.7944,-97.704 12.4588,-96.9714 11.1649,-96.2087 9.9174,-95.4181 8.721,-94.6017 7.5806,-93.7618 6.5013,-92.9006 5.4883,-92.0205 4.5468,-91.124 3.6821,-90.2134 2.8994,-89.2913 2.204,-88.3602 1.6009,-87.4227 1.0949,-86.4813 .6908,-85.5386 .393,-84.5972 .2056,-83.6597 .1324,-82.7286 .1768,-81.8065 .3416,-80.8959 .6292,-79.9993 1.0416,-79.1193 1.5801,-78.2581 2.2455,-77.4181 3.0379,-76.6017 3.9567,-75.8111 5.0008,-75.0485 6.1683,-74.3159 7.4568,-73.6153 8.8631,-72.9487 10.3833,-72.3179 12.0129,-71.7247 13.7467,-71.1706 15.579,-70.6571 17.5034,-70.1858 19.513,-69.7578 21.6002,-69.3744 23.7572,-69.0366 25.9755,-68.7453 28.2465,-68.5013 30.561,-68.3053 32.9096,-68.1578 35.2827,-68.0593 37.6707,-68.0099 40.0635,-68.0099 42.4515,-68.0593"/>
<text text-anchor="middle" x="38.8671" y="-83.5099" font-family="Courier,monospace" font-weight="bold" font-size="10.00" fill="#000000">SOURCE</text>
</g>
<!-- STATE_SOURCE&#45;&gt;STATE_A -->
<g id="edge11" class="edge">
<title>STATE_SOURCE&#45;&gt;STATE_A</title>
<path fill="none" stroke="#000000" d="M54.2008,-101.7581C103.4798,-152.3692 258.0038,-311.0702 316.7546,-371.4092"/>
<polygon fill="#000000" stroke="#000000" points="314.5868,-374.1998 324.0706,-378.9229 319.6021,-369.3165 314.5868,-374.1998"/>
<text text-anchor="middle" x="174.7342" y="-306.0099" font-family="Courier,monospace" font-weight="bold" font-size="10.00" fill="#000000">0.0015253254504899272</text>
</g>
<!-- STATE_SOURCE&#45;&gt;STATE_B -->
<g id="edge12" class="edge">
<title>STATE_SOURCE&#45;&gt;STATE_B</title>
<path fill="none" stroke="#000000" d="M71.551,-92.9424C172.1836,-114.2873 477.0558,-178.9528 585.0496,-201.8591"/>
<polygon fill="#000000" stroke="#000000" points="584.3639,-205.2914 594.8725,-203.9426 585.8164,-198.4438 584.3639,-205.2914"/>
<text text-anchor="middle" x="339.7342" y="-165.0099" font-family="Courier,monospace" font-weight="bold" font-size="10.00" fill="#000000">0.9940894890941037</text>
</g>
<!-- STATE_SOURCE&#45;&gt;STATE_D -->
<g id="edge13" class="edge">
<title>STATE_SOURCE&#45;&gt;STATE_D</title>
<path fill="none" stroke="#000000" d="M76.562,-86.8196C119.5012,-87.9206 191.7472,-90.3158 253.7342,-95.0099 551.2831,-117.5427 908.3284,-163.2629 1025.436,-178.7468"/>
<polygon fill="#000000" stroke="#000000" points="1025.3198,-182.2619 1035.6931,-180.1069 1026.24,-175.3227 1025.3198,-182.2619"/>
<text text-anchor="middle" x="501.2342" y="-128.0099" font-family="Courier,monospace" font-weight="bold" font-size="10.00" fill="#000000">0.004385185455406412</text>
</g>
</g>
</svg>
