<?xml version="1.0" encoding="UTF-8" standalone="no"?>
<!DOCTYPE svg PUBLIC "-//W3C//DTD SVG 1.1//EN"
 "http://www.w3.org/Graphics/SVG/1.1/DTD/svg11.dtd">
<!-- Generated by graphviz version 2.40.1 (0)
 -->
<!-- Title: %3 Pages: 1 -->
<svg width="134pt" height="305pt"
 viewBox="0.00 0.00 134.00 305.00" xmlns="http://www.w3.org/2000/svg" xmlns:xlink="http://www.w3.org/1999/xlink">
<g id="graph0" class="graph" transform="scale(1 1) rotate(0) translate(4 301)">
<title>%3</title>
<polygon fill="#ffffff" stroke="transparent" points="-4,4 -4,-301 130,-301 130,4 -4,4"/>
<!-- A -->
<g id="node1" class="node">
<title>A</title>
<text text-anchor="middle" x="74" y="-275.3" font-family="Times,serif" font-size="14.00" fill="#000000">A</text>
</g>
<!-- B -->
<g id="node3" class="node">
<title>B</title>
<text text-anchor="middle" x="31" y="-188.3" font-family="Times,serif" font-size="14.00" fill="#000000">B</text>
</g>
<!-- A&#45;&gt;B -->
<g id="edge1" class="edge">
<title>A&#45;&gt;B</title>
<path fill="none" stroke="#000000" d="M65.0904,-260.9735C59.0942,-248.8418 51.0808,-232.6287 44.3299,-218.9698"/>
<polygon fill="#000000" stroke="#000000" points="47.4668,-217.4173 39.8982,-210.0034 41.1915,-220.519 47.4668,-217.4173"/>
<text text-anchor="middle" x="67.5" y="-231.8" font-family="Times,serif" font-size="14.00" fill="#000000">1.0</text>
</g>
<!-- C -->
<g id="node5" class="node">
<title>C</title>
<text text-anchor="middle" x="63" y="-101.3" font-family="Times,serif" font-size="14.00" fill="#000000">C</text>
</g>
<!-- A&#45;&gt;C -->
<g id="edge2" class="edge">
<title>A&#45;&gt;C</title>
<path fill="none" stroke="#000000" d="M77.6403,-260.7591C78.6091,-255.0928 79.5192,-248.8095 80,-243 82.4816,-213.0154 84.769,-185.1094 76,-141 75.4599,-138.283 74.7509,-135.4963 73.9425,-132.7346"/>
<polygon fill="#000000" stroke="#000000" points="77.1843,-131.3917 70.7023,-123.0111 70.5433,-133.6048 77.1843,-131.3917"/>
<text text-anchor="middle" x="93.5" y="-188.3" font-family="Times,serif" font-size="14.00" fill="#000000">3.0</text>
</g>
<!-- E -->
<g id="node2" class="node">
<title>E</title>
<text text-anchor="middle" x="27" y="-14.3" font-family="Times,serif" font-size="14.00" fill="#000000">E</text>
</g>
<!-- B&#45;&gt;C -->
<g id="edge3" class="edge">
<title>B&#45;&gt;C</title>
<path fill="none" stroke="#000000" d="M37.6304,-173.9735C42.0069,-162.0751 47.8273,-146.2508 52.7892,-132.7606"/>
<polygon fill="#000000" stroke="#000000" points="56.2108,-133.5969 56.3781,-123.0034 49.6411,-131.1804 56.2108,-133.5969"/>
<text text-anchor="middle" x="60.5" y="-144.8" font-family="Times,serif" font-size="14.00" fill="#000000">1.0</text>
</g>
<!-- D -->
<g id="node4" class="node">
<title>D</title>
<text text-anchor="middle" x="99" y="-14.3" font-family="Times,serif" font-size="14.00" fill="#000000">D</text>
</g>
<!-- C&#45;&gt;E -->
<g id="edge5" class="edge">
<title>C&#45;&gt;E</title>
<path fill="none" stroke="#000000" d="M55.5408,-86.9735C50.569,-74.9585 43.9407,-58.9401 38.3233,-45.3646"/>
<polygon fill="#000000" stroke="#000000" points="41.5073,-43.9053 34.4497,-36.0034 35.0392,-46.5818 41.5073,-43.9053"/>
<text text-anchor="middle" x="59.5" y="-57.8" font-family="Times,serif" font-size="14.00" fill="#000000">1.0</text>
</g>
<!-- C&#45;&gt;D -->
<g id="edge4" class="edge">
<title>C&#45;&gt;D</title>
<path fill="none" stroke="#000000" d="M70.4592,-86.9735C75.431,-74.9585 82.0593,-58.9401 87.6767,-45.3646"/>
<polygon fill="#000000" stroke="#000000" points="90.9608,-46.5818 91.5503,-36.0034 84.4927,-43.9053 90.9608,-46.5818"/>
<text text-anchor="middle" x="94.5" y="-57.8" font-family="Times,serif" font-size="14.00" fill="#000000">2.0</text>
</g>
</g>
</svg>
