<?xml version="1.0" encoding="UTF-8" standalone="no"?>
<!DOCTYPE svg PUBLIC "-//W3C//DTD SVG 1.1//EN"
 "http://www.w3.org/Graphics/SVG/1.1/DTD/svg11.dtd">
<!-- Generated by graphviz version 2.40.1 (0)
 -->
<!-- Title: G Pages: 1 -->
<svg width="406pt" height="365pt"
 viewBox="0.00 0.00 406.00 365.38" xmlns="http://www.w3.org/2000/svg" xmlns:xlink="http://www.w3.org/1999/xlink">
<g id="graph0" class="graph" transform="scale(1 1) rotate(0) translate(4 361.3803)">
<title>G</title>
<polygon fill="#ffffff" stroke="transparent" points="-4,4 -4,-361.3803 402,-361.3803 402,4 -4,4"/>
<!-- _A_t_ -->
<g id="node1" class="node">
<title>_A_t_</title>
<text text-anchor="middle" x="379" y="-174.9902" font-family="Times,serif" font-size="14.00" fill="#000000">_A_t_</text>
</g>
<!-- _A_h_ -->
<g id="node2" class="node">
<title>_A_h_</title>
<text text-anchor="middle" x="344.6231" y="-69.1888" font-family="Times,serif" font-size="14.00" fill="#000000">_A_h_</text>
</g>
<!-- _A_t_&#45;&#45;_A_h_ -->
<g id="edge1" class="edge">
<title>_A_t_&#45;&#45;_A_h_</title>
<path fill="none" stroke="#000000" stroke-dasharray="5,2" d="M373.3936,-161.4354C365.7886,-138.0298 352.5273,-97.2155 347.073,-80.4288"/>
<polygon fill="#000000" stroke="#000000" points="370.1088,-162.6522 376.5277,-171.0812 376.7662,-160.489 370.1088,-162.6522"/>
</g>
<!-- _B_t_ -->
<g id="node5" class="node">
<title>_B_t_</title>
<text text-anchor="middle" x="53.3769" y="-69.1888" font-family="Times,serif" font-size="14.00" fill="#000000">_B_t_</text>
</g>
<!-- _A_t_&#45;&#45;_B_t_ -->
<g id="edge14" class="edge">
<title>_A_t_&#45;&#45;_B_t_</title>
<path fill="none" stroke="#ff0000" d="M359.6059,-172.3887C301.6908,-153.5709 130.4517,-97.9319 72.6694,-79.1573"/>
</g>
<!-- _B_h_ -->
<g id="node6" class="node">
<title>_B_h_</title>
<text text-anchor="middle" x="19" y="-174.9902" font-family="Times,serif" font-size="14.00" fill="#000000">_B_h_</text>
</g>
<!-- _A_t_&#45;&#45;_B_h_ -->
<g id="edge6" class="edge">
<title>_A_t_&#45;&#45;_B_h_</title>
<path fill="none" stroke="#0000ff" d="M359.899,-178.6902C297.5388,-178.6902 100.3489,-178.6902 38.055,-178.6902"/>
</g>
<!-- _D_h_ -->
<g id="node3" class="node">
<title>_D_h_</title>
<text text-anchor="middle" x="254.6231" y="-3.8" font-family="Times,serif" font-size="14.00" fill="#000000">_D_h_</text>
</g>
<!-- _A_h_&#45;&#45;_D_h_ -->
<g id="edge7" class="edge">
<title>_A_h_&#45;&#45;_D_h_</title>
<path fill="none" stroke="#0000ff" d="M334.2989,-65.3879C317.0306,-52.8417 282.4764,-27.7366 265.104,-15.1149"/>
</g>
<!-- _D_t_ -->
<g id="node4" class="node">
<title>_D_t_</title>
<text text-anchor="middle" x="143.3769" y="-3.8" font-family="Times,serif" font-size="14.00" fill="#000000">_D_t_</text>
</g>
<!-- _A_h_&#45;&#45;_D_t_ -->
<g id="edge11" class="edge">
<title>_A_h_&#45;&#45;_D_t_</title>
<path fill="none" stroke="#ff0000" d="M325.3267,-66.6191C286.8604,-54.1206 201.0332,-26.2337 162.6148,-13.7508"/>
</g>
<!-- _D_h_&#45;&#45;_D_t_ -->
<g id="edge2" class="edge">
<title>_D_h_&#45;&#45;_D_t_</title>
<path fill="none" stroke="#000000" stroke-dasharray="5,2" d="M235.4992,-7.5C218.2271,-7.5 192.5484,-7.5 172.6864,-7.5"/>
<polygon fill="#000000" stroke="#000000" points="172.6236,-4.0001 162.6236,-7.5 172.6235,-11.0001 172.6236,-4.0001"/>
</g>
<!-- _B_t_&#45;&#45;_D_t_ -->
<g id="edge9" class="edge">
<title>_B_t_&#45;&#45;_D_t_</title>
<path fill="none" stroke="#0000ff" d="M63.7011,-65.3879C80.9694,-52.8417 115.5236,-27.7366 132.896,-15.1149"/>
</g>
<!-- _B_t_&#45;&#45;_B_h_ -->
<g id="edge3" class="edge">
<title>_B_t_&#45;&#45;_B_h_</title>
<path fill="none" stroke="#000000" stroke-dasharray="5,2" d="M47.7705,-90.1436C40.1656,-113.5492 26.9042,-154.3635 21.4499,-171.1501"/>
<polygon fill="#000000" stroke="#000000" points="51.1431,-91.0899 50.9046,-80.4978 44.4857,-88.9268 51.1431,-91.0899"/>
</g>
<!-- _C_t_ -->
<g id="node7" class="node">
<title>_C_t_</title>
<text text-anchor="middle" x="53.3769" y="-280.7915" font-family="Times,serif" font-size="14.00" fill="#000000">_C_t_</text>
</g>
<!-- _B_h_&#45;&#45;_C_t_ -->
<g id="edge12" class="edge">
<title>_B_h_&#45;&#45;_C_t_</title>
<path fill="none" stroke="#ff0000" d="M21.4723,-186.2991C27.8151,-205.8203 44.6089,-257.5063 50.927,-276.9515"/>
</g>
<!-- _C_h_ -->
<g id="node8" class="node">
<title>_C_h_</title>
<text text-anchor="middle" x="143.3769" y="-346.1803" font-family="Times,serif" font-size="14.00" fill="#000000">_C_h_</text>
</g>
<!-- _C_t_&#45;&#45;_C_h_ -->
<g id="edge4" class="edge">
<title>_C_t_&#45;&#45;_C_h_</title>
<path fill="none" stroke="#000000" stroke-dasharray="5,2" d="M71.9158,-297.9608C90.348,-311.3526 117.9666,-331.4186 132.896,-342.2655"/>
<polygon fill="#000000" stroke="#000000" points="73.8485,-295.0388 63.7011,-291.9924 69.734,-300.7019 73.8485,-295.0388"/>
</g>
<!-- _E_h_ -->
<g id="node10" class="node">
<title>_E_h_</title>
<text text-anchor="middle" x="344.6231" y="-280.7915" font-family="Times,serif" font-size="14.00" fill="#000000">_E_h_</text>
</g>
<!-- _C_t_&#45;&#45;_E_h_ -->
<g id="edge8" class="edge">
<title>_C_t_&#45;&#45;_E_h_</title>
<path fill="none" stroke="#0000ff" d="M72.4864,-284.4915C125.2584,-284.4915 272.5872,-284.4915 325.4432,-284.4915"/>
</g>
<!-- _C_h_&#45;&#45;_D_h_ -->
<g id="edge15" class="edge">
<title>_C_h_&#45;&#45;_D_h_</title>
<path fill="none" stroke="#ff0000" d="M145.9095,-342.0859C160.8514,-296.0994 237.3451,-60.6762 252.1427,-15.1337"/>
</g>
<!-- _E_t_ -->
<g id="node9" class="node">
<title>_E_t_</title>
<text text-anchor="middle" x="254.6231" y="-346.1803" font-family="Times,serif" font-size="14.00" fill="#000000">_E_t_</text>
</g>
<!-- _C_h_&#45;&#45;_E_t_ -->
<g id="edge10" class="edge">
<title>_C_h_&#45;&#45;_E_t_</title>
<path fill="none" stroke="#0000ff" d="M162.5008,-349.8803C182.8771,-349.8803 214.9533,-349.8803 235.3764,-349.8803"/>
</g>
<!-- _E_t_&#45;&#45;_E_h_ -->
<g id="edge5" class="edge">
<title>_E_t_&#45;&#45;_E_h_</title>
<path fill="none" stroke="#000000" stroke-dasharray="5,2" d="M282.6199,-337.0535C303.3858,-323.6924 329.743,-303.5744 340.2357,-292.2883"/>
<polygon fill="#000000" stroke="#000000" points="280.4978,-334.2508 273.8378,-342.4908 284.1826,-340.2025 280.4978,-334.2508"/>
</g>
<!-- _E_h_&#45;&#45;_E_t_ -->
<g id="edge13" class="edge">
<title>_E_h_&#45;&#45;_E_t_</title>
<path fill="none" stroke="#ff0000" d="M325.4083,-291.8811C304.0085,-304.5319 271.0558,-329.1273 259.0104,-342.0835"/>
</g>
</g>
</svg>
