<?xml version="1.0" encoding="UTF-8" standalone="no"?>
<!DOCTYPE svg PUBLIC "-//W3C//DTD SVG 1.1//EN"
 "http://www.w3.org/Graphics/SVG/1.1/DTD/svg11.dtd">
<!-- Generated by graphviz version 2.40.1 (0)
 -->
<!-- Title: G Pages: 1 -->
<svg width="235pt" height="136pt"
 viewBox="0.00 0.00 235.00 136.00" xmlns="http://www.w3.org/2000/svg" xmlns:xlink="http://www.w3.org/1999/xlink">
<g id="graph0" class="graph" transform="scale(1 1) rotate(0) translate(4 132)">
<title>G</title>
<polygon fill="#ffffff" stroke="transparent" points="-4,4 -4,-132 231,-132 231,4 -4,4"/>
<g id="clust1" class="cluster">
<title>cluster_rhs</title>
<polygon fill="none" stroke="#000000" points="8,-8 8,-120 219,-120 219,-8 8,-8"/>
<text text-anchor="middle" x="113.5" y="-108" font-family="Courier,monospace" font-weight="bold" font-size="10.00" fill="#000000">v2 trimmed</text>
</g>
<!-- v0 -->
<g id="node1" class="node">
<title>v0</title>
<ellipse fill="none" stroke="#000000" cx="30.5" cy="-78" rx="14.5" ry="14.5"/>
<text text-anchor="middle" x="30.5" y="-75.5" font-family="Courier,monospace" font-weight="bold" font-size="10.00" fill="#000000">v0</text>
</g>
<!-- i0 -->
<g id="node2" class="node">
<title>i0</title>
<ellipse fill="none" stroke="#000000" cx="113.5" cy="-56" rx="14.5" ry="14.5"/>
<text text-anchor="middle" x="113.5" y="-53.5" font-family="Courier,monospace" font-weight="bold" font-size="10.00" fill="#000000">i0</text>
</g>
<!-- v0&#45;&#45;i0 -->
<g id="edge1" class="edge">
<title>v0&#45;&#45;i0</title>
<path fill="none" stroke="#000000" d="M44.5798,-74.268C59.8425,-70.2225 84.0615,-63.803 99.3511,-59.7503"/>
<text text-anchor="middle" x="72" y="-71" font-family="Courier,monospace" font-weight="bold" font-size="10.00" fill="#000000">11</text>
</g>
<!-- v3 -->
<g id="node4" class="node">
<title>v3</title>
<ellipse fill="none" stroke="#000000" cx="196.5" cy="-56" rx="14.5" ry="14.5"/>
<text text-anchor="middle" x="196.5" y="-53.5" font-family="Courier,monospace" font-weight="bold" font-size="10.00" fill="#000000">v3</text>
</g>
<!-- i0&#45;&#45;v3 -->
<g id="edge3" class="edge">
<title>i0&#45;&#45;v3</title>
<path fill="none" stroke="#000000" d="M128.3387,-56C143.4463,-56 166.7287,-56 181.7897,-56"/>
<text text-anchor="middle" x="155" y="-59" font-family="Courier,monospace" font-weight="bold" font-size="10.00" fill="#000000">11</text>
</g>
<!-- v1 -->
<g id="node3" class="node">
<title>v1</title>
<ellipse fill="none" stroke="#000000" cx="30.5" cy="-31" rx="14.5" ry="14.5"/>
<text text-anchor="middle" x="30.5" y="-28.5" font-family="Courier,monospace" font-weight="bold" font-size="10.00" fill="#000000">v1</text>
</g>
<!-- v1&#45;&#45;i0 -->
<g id="edge2" class="edge">
<title>v1&#45;&#45;i0</title>
<path fill="none" stroke="#000000" d="M44.5798,-35.2409C59.8425,-39.8381 84.0615,-47.133 99.3511,-51.7383"/>
<text text-anchor="middle" x="72" y="-48" font-family="Courier,monospace" font-weight="bold" font-size="10.00" fill="#000000">2</text>
</g>
</g>
</svg>
