<?xml version="1.0" encoding="UTF-8" standalone="no"?>
<!DOCTYPE svg PUBLIC "-//W3C//DTD SVG 1.1//EN"
 "http://www.w3.org/Graphics/SVG/1.1/DTD/svg11.dtd">
<!-- Generated by graphviz version 2.40.1 (0)
 -->
<!-- Title: G Pages: 1 -->
<svg width="435pt" height="184pt"
 viewBox="0.00 0.00 435.19 184.11" xmlns="http://www.w3.org/2000/svg" xmlns:xlink="http://www.w3.org/1999/xlink">
<g id="graph0" class="graph" transform="scale(1 1) rotate(0) translate(4 180.1076)">
<title>G</title>
<polygon fill="#ffffff" stroke="transparent" points="-4,4 -4,-180.1076 431.1949,-180.1076 431.1949,4 -4,4"/>
<!-- STATE_A -->
<g id="node1" class="node">
<title>STATE_A</title>
<polygon fill="none" stroke="#000000" points="168.1602,-87.1569 169.9363,-87.2555 171.694,-87.4029 173.4261,-87.5989 175.1257,-87.8429 176.7859,-88.1342 178.4002,-88.472 179.9623,-88.8555 181.4662,-89.2835 182.9064,-89.7548 184.2777,-90.2682 185.5753,-90.8223 186.7949,-91.4156 187.9326,-92.0464 188.9851,-92.713 189.9494,-93.4135 190.8232,-94.1461 191.6046,-94.9088 192.2922,-95.6994 192.8852,-96.5158 193.3832,-97.3557 193.7862,-98.2169 194.0949,-99.097 194.3101,-99.9936 194.4334,-100.9041 194.4666,-101.8262 194.4118,-102.7573 194.2716,-103.6948 194.0487,-104.6362 193.7463,-105.5789 193.3677,-106.5203 192.9163,-107.4579 192.3958,-108.3889 191.8101,-109.311 191.1629,-110.2216 190.4583,-111.1182 189.7002,-111.9982 188.8925,-112.8594 188.039,-113.6994 187.1436,-114.5158 186.2099,-115.3064 185.2416,-116.069 184.242,-116.8017 183.2145,-117.5022 182.162,-118.1688 181.0876,-118.7996 179.9937,-119.3928 178.883,-119.9469 177.7578,-120.4604 176.62,-120.9317 175.4716,-121.3597 174.3142,-121.7431 173.1494,-122.0809 171.9785,-122.3723 170.8027,-122.6162 169.6231,-122.8122 168.4407,-122.9597 167.2562,-123.0582 166.0707,-123.1076 164.8847,-123.1076 163.6991,-123.0582 162.5146,-122.9597 161.3322,-122.8122 160.1526,-122.6162 158.9768,-122.3723 157.8059,-122.0809 156.6411,-121.7431 155.4838,-121.3597 154.3353,-120.9317 153.1976,-120.4604 152.0723,-119.9469 150.9616,-119.3928 149.8678,-118.7996 148.7933,-118.1688 147.7408,-117.5022 146.7133,-116.8017 145.7137,-116.069 144.7454,-115.3064 143.8118,-114.5158 142.9164,-113.6994 142.0629,-112.8594 141.2551,-111.9982 140.497,-111.1182 139.7924,-110.2216 139.1452,-109.311 138.5595,-108.3889 138.0391,-107.4579 137.5877,-106.5203 137.209,-105.5789 136.9066,-104.6362 136.6837,-103.6948 136.5435,-102.7573 136.4887,-101.8262 136.5219,-100.9041 136.6452,-99.9936 136.8605,-99.097 137.1691,-98.2169 137.5722,-97.3557 138.0701,-96.5158 138.6631,-95.6994 139.3507,-94.9088 140.1321,-94.1461 141.006,-93.4135 141.9703,-92.713 143.0227,-92.0464 144.1604,-91.4156 145.38,-90.8223 146.6776,-90.2682 148.0489,-89.7548 149.4891,-89.2835 150.993,-88.8555 152.5551,-88.472 154.1694,-88.1342 155.8296,-87.8429 157.5292,-87.5989 159.2614,-87.4029 161.0191,-87.2555 162.7951,-87.1569 164.5823,-87.1076 166.3731,-87.1076 168.1602,-87.1569"/>
<text text-anchor="middle" x="165.4777" y="-102.6076" font-family="Courier,monospace" font-weight="bold" font-size="10.00" fill="#000000">A</text>
</g>
<!-- STATE_A&#45;&gt;STATE_A -->
<g id="edge1" class="edge">
<title>STATE_A&#45;&gt;STATE_A</title>
<path fill="none" stroke="#000000" d="M155.37,-121.3979C152.9327,-131.4967 156.3019,-141.1076 165.4777,-141.1076 171.3559,-141.1076 174.8511,-137.1633 175.9633,-131.6732"/>
<polygon fill="#000000" stroke="#000000" points="179.4507,-131.2624 175.5854,-121.3979 172.4554,-131.5198 179.4507,-131.2624"/>
<text text-anchor="middle" x="165.4777" y="-144.1076" font-family="Courier,monospace" font-weight="bold" font-size="10.00" fill="#000000">nan</text>
</g>
<!-- STATE_B -->
<g id="node2" class="node">
<title>STATE_B</title>
<polygon fill="none" stroke="#000000" points="284.6471,-53.1569 286.4231,-53.2555 288.1808,-53.4029 289.913,-53.5989 291.6126,-53.8429 293.2728,-54.1342 294.8871,-54.472 296.4492,-54.8555 297.9531,-55.2835 299.3933,-55.7548 300.7646,-56.2682 302.0622,-56.8223 303.2818,-57.4156 304.4195,-58.0464 305.4719,-58.713 306.4363,-59.4135 307.3101,-60.1461 308.0915,-60.9088 308.7791,-61.6994 309.3721,-62.5158 309.8701,-63.3557 310.2731,-64.2169 310.5817,-65.097 310.797,-65.9936 310.9203,-66.9041 310.9535,-67.8262 310.8987,-68.7573 310.7585,-69.6948 310.5356,-70.6362 310.2332,-71.5789 309.8545,-72.5203 309.4032,-73.4579 308.8827,-74.3889 308.297,-75.311 307.6498,-76.2216 306.9452,-77.1182 306.1871,-77.9982 305.3793,-78.8594 304.5259,-79.6994 303.6305,-80.5158 302.6968,-81.3064 301.7285,-82.069 300.7289,-82.8017 299.7014,-83.5022 298.6489,-84.1688 297.5744,-84.7996 296.4806,-85.3928 295.3699,-85.9469 294.2447,-86.4604 293.1069,-86.9317 291.9585,-87.3597 290.8011,-87.7431 289.6363,-88.0809 288.4654,-88.3723 287.2896,-88.6162 286.11,-88.8122 284.9276,-88.9597 283.7431,-89.0582 282.5575,-89.1076 281.3716,-89.1076 280.186,-89.0582 279.0015,-88.9597 277.8191,-88.8122 276.6395,-88.6162 275.4637,-88.3723 274.2928,-88.0809 273.128,-87.7431 271.9706,-87.3597 270.8222,-86.9317 269.6844,-86.4604 268.5592,-85.9469 267.4485,-85.3928 266.3547,-84.7996 265.2802,-84.1688 264.2277,-83.5022 263.2002,-82.8017 262.2006,-82.069 261.2323,-81.3064 260.2986,-80.5158 259.4032,-79.6994 258.5498,-78.8594 257.742,-77.9982 256.9839,-77.1182 256.2793,-76.2216 255.6321,-75.311 255.0464,-74.3889 254.5259,-73.4579 254.0746,-72.5203 253.6959,-71.5789 253.3935,-70.6362 253.1706,-69.6948 253.0304,-68.7573 252.9756,-67.8262 253.0088,-66.9041 253.1321,-65.9936 253.3474,-65.097 253.656,-64.2169 254.059,-63.3557 254.557,-62.5158 255.15,-61.6994 255.8376,-60.9088 256.619,-60.1461 257.4928,-59.4135 258.4572,-58.713 259.5096,-58.0464 260.6473,-57.4156 261.8669,-56.8223 263.1645,-56.2682 264.5358,-55.7548 265.976,-55.2835 267.4799,-54.8555 269.042,-54.472 270.6563,-54.1342 272.3165,-53.8429 274.0161,-53.5989 275.7483,-53.4029 277.506,-53.2555 279.282,-53.1569 281.0691,-53.1076 282.86,-53.1076 284.6471,-53.1569"/>
<text text-anchor="middle" x="281.9645" y="-68.6076" font-family="Courier,monospace" font-weight="bold" font-size="10.00" fill="#000000">B</text>
</g>
<!-- STATE_A&#45;&gt;STATE_B -->
<g id="edge2" class="edge">
<title>STATE_A&#45;&gt;STATE_B</title>
<path fill="none" stroke="#000000" d="M193.3792,-96.9637C209.8086,-92.1683 230.707,-86.0686 248.079,-80.998"/>
<polygon fill="#000000" stroke="#000000" points="249.2207,-84.3109 257.8394,-78.1492 247.2593,-77.5913 249.2207,-84.3109"/>
<text text-anchor="middle" x="223.7211" y="-94.1076" font-family="Courier,monospace" font-weight="bold" font-size="10.00" fill="#000000">nan</text>
</g>
<!-- SYMBOL_z -->
<g id="node5" class="node">
<title>SYMBOL_z</title>
<polygon fill="none" stroke="#000000" stroke-dasharray="5,2" points="401.134,-66.1569 402.91,-66.2555 404.6677,-66.4029 406.3999,-66.5989 408.0995,-66.8429 409.7597,-67.1342 411.374,-67.472 412.9361,-67.8555 414.44,-68.2835 415.8802,-68.7548 417.2515,-69.2682 418.5491,-69.8223 419.7687,-70.4156 420.9064,-71.0464 421.9588,-71.713 422.9231,-72.4135 423.7969,-73.1461 424.5784,-73.9088 425.266,-74.6994 425.859,-75.5158 426.3569,-76.3557 426.76,-77.2169 427.0686,-78.097 427.2839,-78.9936 427.4072,-79.9041 427.4404,-80.8262 427.3856,-81.7573 427.2454,-82.6948 427.0225,-83.6362 426.7201,-84.5789 426.3414,-85.5203 425.89,-86.4579 425.3696,-87.3889 424.7838,-88.311 424.1367,-89.2216 423.4321,-90.1182 422.674,-90.9982 421.8662,-91.8594 421.0127,-92.6994 420.1173,-93.5158 419.1837,-94.3064 418.2154,-95.069 417.2158,-95.8017 416.1883,-96.5022 415.1358,-97.1688 414.0613,-97.7996 412.9675,-98.3928 411.8568,-98.9469 410.7315,-99.4604 409.5938,-99.9317 408.4453,-100.3597 407.288,-100.7431 406.1232,-101.0809 404.9523,-101.3723 403.7765,-101.6162 402.5969,-101.8122 401.4145,-101.9597 400.23,-102.0582 399.0444,-102.1076 397.8584,-102.1076 396.6728,-102.0582 395.4884,-101.9597 394.306,-101.8122 393.1264,-101.6162 391.9506,-101.3723 390.7797,-101.0809 389.6149,-100.7431 388.4575,-100.3597 387.3091,-99.9317 386.1713,-99.4604 385.0461,-98.9469 383.9354,-98.3928 382.8415,-97.7996 381.7671,-97.1688 380.7146,-96.5022 379.6871,-95.8017 378.6875,-95.069 377.7192,-94.3064 376.7855,-93.5158 375.8901,-92.6994 375.0366,-91.8594 374.2289,-90.9982 373.4708,-90.1182 372.7662,-89.2216 372.119,-88.311 371.5333,-87.3889 371.0128,-86.4579 370.5614,-85.5203 370.1828,-84.5789 369.8804,-83.6362 369.6575,-82.6948 369.5173,-81.7573 369.4625,-80.8262 369.4956,-79.9041 369.619,-78.9936 369.8342,-78.097 370.1429,-77.2169 370.5459,-76.3557 371.0439,-75.5158 371.6369,-74.6994 372.3245,-73.9088 373.1059,-73.1461 373.9797,-72.4135 374.944,-71.713 375.9965,-71.0464 377.1342,-70.4156 378.3538,-69.8223 379.6514,-69.2682 381.0227,-68.7548 382.4629,-68.2835 383.9668,-67.8555 385.5289,-67.472 387.1432,-67.1342 388.8034,-66.8429 390.503,-66.5989 392.2351,-66.4029 393.9928,-66.2555 395.7689,-66.1569 397.556,-66.1076 399.3468,-66.1076 401.134,-66.1569"/>
<text text-anchor="middle" x="398.4514" y="-81.6076" font-family="Courier,monospace" font-weight="bold" font-size="10.00" fill="#000000">z</text>
</g>
<!-- STATE_A&#45;&gt;SYMBOL_z -->
<g id="edge8" class="edge">
<title>STATE_A&#45;&gt;SYMBOL_z</title>
<path fill="none" stroke="#000000" stroke-dasharray="5,2" d="M189.6726,-112.1624C225.8627,-121.5045 295.8146,-134.8495 351.708,-117.1076 359.9631,-114.4872 368.0171,-109.824 375.0494,-104.8133"/>
<polygon fill="#000000" stroke="#000000" points="377.5706,-107.2887 383.3489,-98.4083 373.2939,-101.7471 377.5706,-107.2887"/>
<text text-anchor="middle" x="281.9645" y="-128.1076" font-family="Courier,monospace" font-weight="bold" font-size="10.00" fill="#000000">nan</text>
</g>
<!-- SYMBOL_y -->
<g id="node6" class="node">
<title>SYMBOL_y</title>
<polygon fill="none" stroke="#000000" stroke-dasharray="5,2" points="401.134,-140.1569 402.91,-140.2555 404.6677,-140.4029 406.3999,-140.5989 408.0995,-140.8429 409.7597,-141.1342 411.374,-141.472 412.9361,-141.8555 414.44,-142.2835 415.8802,-142.7548 417.2515,-143.2682 418.5491,-143.8223 419.7687,-144.4156 420.9064,-145.0464 421.9588,-145.713 422.9231,-146.4135 423.7969,-147.1461 424.5784,-147.9088 425.266,-148.6994 425.859,-149.5158 426.3569,-150.3557 426.76,-151.2169 427.0686,-152.097 427.2839,-152.9936 427.4072,-153.9041 427.4404,-154.8262 427.3856,-155.7573 427.2454,-156.6948 427.0225,-157.6362 426.7201,-158.5789 426.3414,-159.5203 425.89,-160.4579 425.3696,-161.3889 424.7838,-162.311 424.1367,-163.2216 423.4321,-164.1182 422.674,-164.9982 421.8662,-165.8594 421.0127,-166.6994 420.1173,-167.5158 419.1837,-168.3064 418.2154,-169.069 417.2158,-169.8017 416.1883,-170.5022 415.1358,-171.1688 414.0613,-171.7996 412.9675,-172.3928 411.8568,-172.9469 410.7315,-173.4604 409.5938,-173.9317 408.4453,-174.3597 407.288,-174.7431 406.1232,-175.0809 404.9523,-175.3723 403.7765,-175.6162 402.5969,-175.8122 401.4145,-175.9597 400.23,-176.0582 399.0444,-176.1076 397.8584,-176.1076 396.6728,-176.0582 395.4884,-175.9597 394.306,-175.8122 393.1264,-175.6162 391.9506,-175.3723 390.7797,-175.0809 389.6149,-174.7431 388.4575,-174.3597 387.3091,-173.9317 386.1713,-173.4604 385.0461,-172.9469 383.9354,-172.3928 382.8415,-171.7996 381.7671,-171.1688 380.7146,-170.5022 379.6871,-169.8017 378.6875,-169.069 377.7192,-168.3064 376.7855,-167.5158 375.8901,-166.6994 375.0366,-165.8594 374.2289,-164.9982 373.4708,-164.1182 372.7662,-163.2216 372.119,-162.311 371.5333,-161.3889 371.0128,-160.4579 370.5614,-159.5203 370.1828,-158.5789 369.8804,-157.6362 369.6575,-156.6948 369.5173,-155.7573 369.4625,-154.8262 369.4956,-153.9041 369.619,-152.9936 369.8342,-152.097 370.1429,-151.2169 370.5459,-150.3557 371.0439,-149.5158 371.6369,-148.6994 372.3245,-147.9088 373.1059,-147.1461 373.9797,-146.4135 374.944,-145.713 375.9965,-145.0464 377.1342,-144.4156 378.3538,-143.8223 379.6514,-143.2682 381.0227,-142.7548 382.4629,-142.2835 383.9668,-141.8555 385.5289,-141.472 387.1432,-141.1342 388.8034,-140.8429 390.503,-140.5989 392.2351,-140.4029 393.9928,-140.2555 395.7689,-140.1569 397.556,-140.1076 399.3468,-140.1076 401.134,-140.1569"/>
<text text-anchor="middle" x="398.4514" y="-155.6076" font-family="Courier,monospace" font-weight="bold" font-size="10.00" fill="#000000">y</text>
</g>
<!-- STATE_A&#45;&gt;SYMBOL_y -->
<g id="edge9" class="edge">
<title>STATE_A&#45;&gt;SYMBOL_y</title>
<path fill="none" stroke="#000000" stroke-dasharray="5,2" d="M183.333,-117.941C191.7316,-123.4034 202.1072,-129.3652 212.2211,-133.1076 260.8806,-151.1126 320.9601,-156.395 359.4879,-157.8137"/>
<polygon fill="#000000" stroke="#000000" points="359.6562,-161.3202 369.7558,-158.1188 359.8642,-154.3233 359.6562,-161.3202"/>
<text text-anchor="middle" x="281.9645" y="-157.1076" font-family="Courier,monospace" font-weight="bold" font-size="10.00" fill="#000000">nan</text>
</g>
<!-- STATE_B&#45;&gt;STATE_A -->
<g id="edge3" class="edge">
<title>STATE_B&#45;&gt;STATE_A</title>
<path fill="none" stroke="#000000" d="M253.1444,-66.4743C240.3146,-65.4739 225.2043,-65.7855 212.2211,-70.1076 204.1051,-72.8094 196.2613,-77.5322 189.3918,-82.6504"/>
<polygon fill="#000000" stroke="#000000" points="186.8396,-80.2131 181.2646,-89.2225 191.2411,-85.6561 186.8396,-80.2131"/>
<text text-anchor="middle" x="223.7211" y="-73.1076" font-family="Courier,monospace" font-weight="bold" font-size="10.00" fill="#000000">nan</text>
</g>
<!-- STATE_C -->
<g id="node3" class="node">
<title>STATE_C</title>
<polygon fill="none" stroke="#000000" points="401.134,-5.1569 402.91,-5.2555 404.6677,-5.4029 406.3999,-5.5989 408.0995,-5.8429 409.7597,-6.1342 411.374,-6.472 412.9361,-6.8555 414.44,-7.2835 415.8802,-7.7548 417.2515,-8.2682 418.5491,-8.8223 419.7687,-9.4156 420.9064,-10.0464 421.9588,-10.713 422.9231,-11.4135 423.7969,-12.1461 424.5784,-12.9088 425.266,-13.6994 425.859,-14.5158 426.3569,-15.3557 426.76,-16.2169 427.0686,-17.097 427.2839,-17.9936 427.4072,-18.9041 427.4404,-19.8262 427.3856,-20.7573 427.2454,-21.6948 427.0225,-22.6362 426.7201,-23.5789 426.3414,-24.5203 425.89,-25.4579 425.3696,-26.3889 424.7838,-27.311 424.1367,-28.2216 423.4321,-29.1182 422.674,-29.9982 421.8662,-30.8594 421.0127,-31.6994 420.1173,-32.5158 419.1837,-33.3064 418.2154,-34.069 417.2158,-34.8017 416.1883,-35.5022 415.1358,-36.1688 414.0613,-36.7996 412.9675,-37.3928 411.8568,-37.9469 410.7315,-38.4604 409.5938,-38.9317 408.4453,-39.3597 407.288,-39.7431 406.1232,-40.0809 404.9523,-40.3723 403.7765,-40.6162 402.5969,-40.8122 401.4145,-40.9597 400.23,-41.0582 399.0444,-41.1076 397.8584,-41.1076 396.6728,-41.0582 395.4884,-40.9597 394.306,-40.8122 393.1264,-40.6162 391.9506,-40.3723 390.7797,-40.0809 389.6149,-39.7431 388.4575,-39.3597 387.3091,-38.9317 386.1713,-38.4604 385.0461,-37.9469 383.9354,-37.3928 382.8415,-36.7996 381.7671,-36.1688 380.7146,-35.5022 379.6871,-34.8017 378.6875,-34.069 377.7192,-33.3064 376.7855,-32.5158 375.8901,-31.6994 375.0366,-30.8594 374.2289,-29.9982 373.4708,-29.1182 372.7662,-28.2216 372.119,-27.311 371.5333,-26.3889 371.0128,-25.4579 370.5614,-24.5203 370.1828,-23.5789 369.8804,-22.6362 369.6575,-21.6948 369.5173,-20.7573 369.4625,-19.8262 369.4956,-18.9041 369.619,-17.9936 369.8342,-17.097 370.1429,-16.2169 370.5459,-15.3557 371.0439,-14.5158 371.6369,-13.6994 372.3245,-12.9088 373.1059,-12.1461 373.9797,-11.4135 374.944,-10.713 375.9965,-10.0464 377.1342,-9.4156 378.3538,-8.8223 379.6514,-8.2682 381.0227,-7.7548 382.4629,-7.2835 383.9668,-6.8555 385.5289,-6.472 387.1432,-6.1342 388.8034,-5.8429 390.503,-5.5989 392.2351,-5.4029 393.9928,-5.2555 395.7689,-5.1569 397.556,-5.1076 399.3468,-5.1076 401.134,-5.1569"/>
<text text-anchor="middle" x="398.4514" y="-20.6076" font-family="Courier,monospace" font-weight="bold" font-size="10.00" fill="#000000">C</text>
</g>
<!-- STATE_B&#45;&gt;STATE_C -->
<g id="edge4" class="edge">
<title>STATE_B&#45;&gt;STATE_C</title>
<path fill="none" stroke="#000000" d="M288.6718,-53.4181C295.8575,-37.2727 308.9654,-14.4064 328.708,-4.1076 340.7664,2.1828 355.1144,-.2579 367.6524,-5.1646"/>
<polygon fill="#000000" stroke="#000000" points="366.2643,-8.378 376.8195,-9.2936 369.1391,-1.9955 366.2643,-8.378"/>
<text text-anchor="middle" x="340.208" y="-7.1076" font-family="Courier,monospace" font-weight="bold" font-size="10.00" fill="#000000">nan</text>
</g>
<!-- STATE_B&#45;&gt;SYMBOL_z -->
<g id="edge10" class="edge">
<title>STATE_B&#45;&gt;SYMBOL_z</title>
<path fill="none" stroke="#000000" stroke-dasharray="5,2" d="M310.9197,-69.9934C323.5034,-69.9032 338.3848,-70.3276 351.708,-72.1076 354.5886,-72.4924 357.5468,-72.9933 360.5087,-73.5717"/>
<polygon fill="#000000" stroke="#000000" points="359.9652,-77.0361 370.4854,-75.7809 361.4786,-70.2016 359.9652,-77.0361"/>
<text text-anchor="middle" x="340.208" y="-75.1076" font-family="Courier,monospace" font-weight="bold" font-size="10.00" fill="#000000">nan</text>
</g>
<!-- STATE_B&#45;&gt;SYMBOL_y -->
<g id="edge11" class="edge">
<title>STATE_B&#45;&gt;SYMBOL_y</title>
<path fill="none" stroke="#000000" stroke-dasharray="5,2" d="M299.1526,-83.9447C318.0081,-98.0272 348.5436,-120.8332 370.7809,-137.4414"/>
<polygon fill="#000000" stroke="#000000" points="368.7492,-140.2924 378.8556,-143.4722 372.938,-134.684 368.7492,-140.2924"/>
<text text-anchor="middle" x="340.208" y="-125.1076" font-family="Courier,monospace" font-weight="bold" font-size="10.00" fill="#000000">nan</text>
</g>
<!-- STATE_C&#45;&gt;STATE_B -->
<g id="edge5" class="edge">
<title>STATE_C&#45;&gt;STATE_B</title>
<path fill="none" stroke="#000000" d="M376.2025,-32.2755C359.5147,-39.152 336.3422,-48.7005 317.1519,-56.6082"/>
<polygon fill="#000000" stroke="#000000" points="315.7291,-53.4089 307.8168,-60.4548 318.3961,-59.8809 315.7291,-53.4089"/>
<text text-anchor="middle" x="340.208" y="-55.1076" font-family="Courier,monospace" font-weight="bold" font-size="10.00" fill="#000000">nan</text>
</g>
<!-- STATE_SOURCE -->
<g id="node4" class="node">
<title>STATE_SOURCE</title>
<polygon fill="none" stroke="#000000" points="42.4515,-45.1569 44.8246,-45.2555 47.1732,-45.4029 49.4877,-45.5989 51.7587,-45.8429 53.9771,-46.1342 56.134,-46.472 58.2213,-46.8555 60.2308,-47.2835 62.1552,-47.7548 63.9875,-48.2682 65.7213,-48.8223 67.3509,-49.4156 68.8711,-50.0464 70.2774,-50.713 71.5659,-51.4135 72.7335,-52.1461 73.7776,-52.9088 74.6964,-53.6994 75.4887,-54.5158 76.1541,-55.3557 76.6926,-56.2169 77.105,-57.097 77.3927,-57.9936 77.5574,-58.9041 77.6018,-59.8262 77.5286,-60.7573 77.3412,-61.6948 77.0434,-62.6362 76.6393,-63.5789 76.1334,-64.5203 75.5302,-65.4579 74.8348,-66.3889 74.0521,-67.311 73.1874,-68.2216 72.246,-69.1182 71.2329,-69.9982 70.1536,-70.8594 69.0132,-71.6994 67.8168,-72.5158 66.5693,-73.3064 65.2754,-74.069 63.9398,-74.8017 62.5668,-75.5022 61.1606,-76.1688 59.7248,-76.7996 58.2633,-77.3928 56.7792,-77.9469 55.2756,-78.4604 53.7553,-78.9317 52.2208,-79.3597 50.6744,-79.7431 49.118,-80.0809 47.5535,-80.3723 45.9824,-80.6162 44.4062,-80.8122 42.8263,-80.9597 41.2436,-81.0582 39.6595,-81.1076 38.0748,-81.1076 36.4906,-81.0582 34.908,-80.9597 33.328,-80.8122 31.7518,-80.6162 30.1808,-80.3723 28.6162,-80.0809 27.0598,-79.7431 25.5134,-79.3597 23.9789,-78.9317 22.4586,-78.4604 20.955,-77.9469 19.4709,-77.3928 18.0094,-76.7996 16.5737,-76.1688 15.1674,-75.5022 13.7944,-74.8017 12.4588,-74.069 11.1649,-73.3064 9.9174,-72.5158 8.721,-71.6994 7.5806,-70.8594 6.5013,-69.9982 5.4883,-69.1182 4.5468,-68.2216 3.6821,-67.311 2.8994,-66.3889 2.204,-65.4579 1.6009,-64.5203 1.0949,-63.5789 .6908,-62.6362 .393,-61.6948 .2056,-60.7573 .1324,-59.8262 .1768,-58.9041 .3416,-57.9936 .6292,-57.097 1.0416,-56.2169 1.5801,-55.3557 2.2455,-54.5158 3.0379,-53.6994 3.9567,-52.9088 5.0008,-52.1461 6.1683,-51.4135 7.4568,-50.713 8.8631,-50.0464 10.3833,-49.4156 12.0129,-48.8223 13.7467,-48.2682 15.579,-47.7548 17.5034,-47.2835 19.513,-46.8555 21.6002,-46.472 23.7572,-46.1342 25.9755,-45.8429 28.2465,-45.5989 30.561,-45.4029 32.9096,-45.2555 35.2827,-45.1569 37.6707,-45.1076 40.0635,-45.1076 42.4515,-45.1569"/>
<text text-anchor="middle" x="38.8671" y="-60.6076" font-family="Courier,monospace" font-weight="bold" font-size="10.00" fill="#000000">SOURCE</text>
</g>
<!-- STATE_SOURCE&#45;&gt;STATE_A -->
<g id="edge6" class="edge">
<title>STATE_SOURCE&#45;&gt;STATE_A</title>
<path fill="none" stroke="#000000" d="M67.9141,-72.7432C85.9435,-78.724 109.2781,-86.4647 128.6058,-92.8762"/>
<polygon fill="#000000" stroke="#000000" points="127.7049,-96.2649 138.2983,-96.0915 129.9089,-89.6209 127.7049,-96.2649"/>
<text text-anchor="middle" x="107.2342" y="-91.1076" font-family="Courier,monospace" font-weight="bold" font-size="10.00" fill="#000000">nan</text>
</g>
<!-- STATE_SOURCE&#45;&gt;STATE_B -->
<g id="edge7" class="edge">
<title>STATE_SOURCE&#45;&gt;STATE_B</title>
<path fill="none" stroke="#000000" d="M77.7166,-60.6247C117.403,-58.6241 180.7544,-56.9118 235.2211,-62.1076 237.9051,-62.3636 240.6642,-62.7006 243.4356,-63.0937"/>
<polygon fill="#000000" stroke="#000000" points="242.9812,-66.5657 253.4138,-64.7186 244.1064,-59.6567 242.9812,-66.5657"/>
<text text-anchor="middle" x="165.4777" y="-62.1076" font-family="Courier,monospace" font-weight="bold" font-size="10.00" fill="#000000">nan</text>
</g>
</g>
</svg>
