<?xml version="1.0" encoding="UTF-8" standalone="no"?>
<!DOCTYPE svg PUBLIC "-//W3C//DTD SVG 1.1//EN"
 "http://www.w3.org/Graphics/SVG/1.1/DTD/svg11.dtd">
<!-- Generated by graphviz version 2.40.1 (0)
 -->
<!-- Title: G Pages: 1 -->
<svg width="309pt" height="225pt"
 viewBox="0.00 0.00 309.00 225.00" xmlns="http://www.w3.org/2000/svg" xmlns:xlink="http://www.w3.org/1999/xlink">
<g id="graph0" class="graph" transform="scale(1 1) rotate(0) translate(4 221)">
<title>G</title>
<polygon fill="#ffffff" stroke="transparent" points="-4,4 -4,-221 305,-221 305,4 -4,4"/>
<!-- N1 -->
<g id="node1" class="node">
<title>N1</title>
<ellipse fill="none" stroke="#000000" cx="190.5" cy="-131.5" rx="14.5" ry="14.5"/>
<text text-anchor="middle" x="190.5" y="-129" font-family="Courier,monospace" font-weight="bold" font-size="10.00" fill="#000000">N1</text>
</g>
<!-- v0 -->
<g id="node4" class="node">
<title>v0</title>
<ellipse fill="none" stroke="#000000" cx="286.5" cy="-202.5" rx="14.5" ry="14.5"/>
<text text-anchor="middle" x="286.5" y="-200" font-family="Courier,monospace" font-weight="bold" font-size="10.00" fill="#000000">v0</text>
</g>
<!-- N1&#45;&#45;v0 -->
<g id="edge7" class="edge">
<title>N1&#45;&#45;v0</title>
<path fill="none" stroke="#000000" d="M200.9237,-141.984C207.1066,-147.9787 215.2316,-155.4787 223,-161.5 239.8023,-174.5234 260.7679,-187.4826 273.8991,-195.2436"/>
<text text-anchor="middle" x="238.5" y="-185.5" font-family="Courier,monospace" font-weight="bold" font-size="10.00" fill="#000000">11.0</text>
</g>
<!-- v1 -->
<g id="node5" class="node">
<title>v1</title>
<ellipse fill="none" stroke="#000000" cx="286.5" cy="-155.5" rx="14.5" ry="14.5"/>
<text text-anchor="middle" x="286.5" y="-153" font-family="Courier,monospace" font-weight="bold" font-size="10.00" fill="#000000">v1</text>
</g>
<!-- N1&#45;&#45;v1 -->
<g id="edge3" class="edge">
<title>N1&#45;&#45;v1</title>
<path fill="none" stroke="#000000" d="M204.6651,-135.0413C222.8155,-139.5789 254.0984,-147.3996 272.2768,-151.9442"/>
<text text-anchor="middle" x="238.5" y="-149.5" font-family="Courier,monospace" font-weight="bold" font-size="10.00" fill="#000000">2.0</text>
</g>
<!-- v2 -->
<g id="node6" class="node">
<title>v2</title>
<ellipse fill="none" stroke="#000000" cx="286.5" cy="-108.5" rx="14.5" ry="14.5"/>
<text text-anchor="middle" x="286.5" y="-106" font-family="Courier,monospace" font-weight="bold" font-size="10.00" fill="#000000">v2</text>
</g>
<!-- N1&#45;&#45;v2 -->
<g id="edge4" class="edge">
<title>N1&#45;&#45;v2</title>
<path fill="none" stroke="#000000" d="M204.6949,-127.3929C210.37,-125.797 216.9772,-123.9967 223,-122.5 239.6529,-118.3616 258.9167,-114.202 271.8202,-111.5053"/>
<text text-anchor="middle" x="238.5" y="-125.5" font-family="Courier,monospace" font-weight="bold" font-size="10.00" fill="#000000">10.0</text>
</g>
<!-- N2 -->
<g id="node2" class="node">
<title>N2</title>
<ellipse fill="none" stroke="#000000" cx="102.5" cy="-84.5" rx="14.5" ry="14.5"/>
<text text-anchor="middle" x="102.5" y="-82" font-family="Courier,monospace" font-weight="bold" font-size="10.00" fill="#000000">N2</text>
</g>
<!-- N2&#45;&#45;N1 -->
<g id="edge6" class="edge">
<title>N2&#45;&#45;N1</title>
<path fill="none" stroke="#000000" d="M115.4847,-91.435C132.1226,-100.3211 160.7985,-115.6367 177.462,-124.5365"/>
<text text-anchor="middle" x="146.5" y="-116.5" font-family="Courier,monospace" font-weight="bold" font-size="10.00" fill="#000000">4.0</text>
</g>
<!-- N3 -->
<g id="node3" class="node">
<title>N3</title>
<ellipse fill="none" stroke="#000000" cx="190.5" cy="-61.5" rx="14.5" ry="14.5"/>
<text text-anchor="middle" x="190.5" y="-59" font-family="Courier,monospace" font-weight="bold" font-size="10.00" fill="#000000">N3</text>
</g>
<!-- N2&#45;&#45;N3 -->
<g id="edge8" class="edge">
<title>N2&#45;&#45;N3</title>
<path fill="none" stroke="#000000" d="M116.6387,-80.8047C133.0605,-76.5126 159.9896,-69.4743 176.3964,-65.1862"/>
<text text-anchor="middle" x="146.5" y="-79.5" font-family="Courier,monospace" font-weight="bold" font-size="10.00" fill="#000000">3.0</text>
</g>
<!-- v3 -->
<g id="node7" class="node">
<title>v3</title>
<ellipse fill="none" stroke="#000000" cx="286.5" cy="-61.5" rx="14.5" ry="14.5"/>
<text text-anchor="middle" x="286.5" y="-59" font-family="Courier,monospace" font-weight="bold" font-size="10.00" fill="#000000">v3</text>
</g>
<!-- N3&#45;&#45;v3 -->
<g id="edge2" class="edge">
<title>N3&#45;&#45;v3</title>
<path fill="none" stroke="#000000" d="M205.0803,-61.5C223.124,-61.5 253.6756,-61.5 271.7825,-61.5"/>
<text text-anchor="middle" x="238.5" y="-64.5" font-family="Courier,monospace" font-weight="bold" font-size="10.00" fill="#000000">3.0</text>
</g>
<!-- v4 -->
<g id="node8" class="node">
<title>v4</title>
<ellipse fill="none" stroke="#000000" cx="286.5" cy="-14.5" rx="14.5" ry="14.5"/>
<text text-anchor="middle" x="286.5" y="-12" font-family="Courier,monospace" font-weight="bold" font-size="10.00" fill="#000000">v4</text>
</g>
<!-- N3&#45;&#45;v4 -->
<g id="edge1" class="edge">
<title>N3&#45;&#45;v4</title>
<path fill="none" stroke="#000000" d="M203.8484,-54.9649C222.1895,-45.9854 254.9837,-29.9299 273.265,-20.9796"/>
<text text-anchor="middle" x="238.5" y="-48.5" font-family="Courier,monospace" font-weight="bold" font-size="10.00" fill="#000000">4.0</text>
</g>
<!-- v5 -->
<g id="node9" class="node">
<title>v5</title>
<ellipse fill="none" stroke="#000000" cx="14.5" cy="-84.5" rx="14.5" ry="14.5"/>
<text text-anchor="middle" x="14.5" y="-82" font-family="Courier,monospace" font-weight="bold" font-size="10.00" fill="#000000">v5</text>
</g>
<!-- v5&#45;&#45;N2 -->
<g id="edge5" class="edge">
<title>v5&#45;&#45;N2</title>
<path fill="none" stroke="#000000" d="M29.0314,-84.5C45.3364,-84.5 71.6332,-84.5 87.947,-84.5"/>
<text text-anchor="middle" x="58.5" y="-87.5" font-family="Courier,monospace" font-weight="bold" font-size="10.00" fill="#000000">7.0</text>
</g>
</g>
</svg>
