<?xml version="1.0" encoding="UTF-8" standalone="no"?>
<!DOCTYPE svg PUBLIC "-//W3C//DTD SVG 1.1//EN"
 "http://www.w3.org/Graphics/SVG/1.1/DTD/svg11.dtd">
<!-- Generated by graphviz version 2.40.1 (0)
 -->
<!-- Title: G Pages: 1 -->
<svg width="407pt" height="236pt"
 viewBox="0.00 0.00 407.00 236.00" xmlns="http://www.w3.org/2000/svg" xmlns:xlink="http://www.w3.org/1999/xlink">
<g id="graph0" class="graph" transform="scale(1 1) rotate(0) translate(12.5 232)">
<title>G</title>
<polygon fill="#ffffff" stroke="transparent" points="-12.5,4 -12.5,-232 394.5,-232 394.5,4 -12.5,4"/>
<text text-anchor="middle" x="191" y="-212.8" font-family="Times,serif" font-size="14.00" fill="#000000">HMM diagram for [n] vs [a] (from [a]&#39;s perspective)</text>
<!-- S -->
<g id="node1" class="node">
<title>S</title>
<text text-anchor="middle" x="80" y="-194.3" font-family="Times,serif" font-size="14.00" fill="#000000">S</text>
</g>
<!-- I01 -->
<g id="node2" class="node">
<title>I01</title>
<text text-anchor="middle" x="80" y="-50.3" font-family="Times,serif" font-size="14.00" fill="#000000">I01</text>
</g>
<!-- S&#45;&gt;I01 -->
<g id="edge1" class="edge">
<title>S&#45;&gt;I01</title>
<path fill="none" stroke="#000000" d="M80,-190.2579C80,-168.0872 80,-103.9188 80,-72.195"/>
<polygon fill="#000000" stroke="#000000" points="83.5001,-71.7803 80,-61.7803 76.5001,-71.7804 83.5001,-71.7803"/>
</g>
<!-- D10 -->
<g id="node3" class="node">
<title>D10</title>
<text text-anchor="middle" x="224" y="-194.3" font-family="Times,serif" font-size="14.00" fill="#000000">D10</text>
</g>
<!-- S&#45;&gt;D10 -->
<g id="edge2" class="edge">
<title>S&#45;&gt;D10</title>
<path fill="none" stroke="#000000" d="M84.1543,-198C101.2979,-198 167.276,-198 202.1321,-198"/>
<polygon fill="#000000" stroke="#000000" points="202.2541,-201.5001 212.2541,-198 202.254,-194.5001 202.2541,-201.5001"/>
</g>
<!-- M11 -->
<g id="node5" class="node">
<title>M11</title>
<text text-anchor="middle" x="224" y="-71.9" font-family="Times,serif" font-size="14.00" fill="#000000">M11</text>
</g>
<!-- S&#45;&gt;M11 -->
<g id="edge3" class="edge">
<title>S&#45;&gt;M11</title>
<path fill="none" stroke="#000000" d="M84.3659,-194.0277C99.7674,-180.0576 153.2529,-131.9051 205.599,-89.5928"/>
<polygon fill="#000000" stroke="#000000" points="208.0423,-92.1196 213.6463,-83.1281 203.6583,-86.6624 208.0423,-92.1196"/>
</g>
<!-- D11 -->
<g id="node6" class="node">
<title>D11</title>
<text text-anchor="middle" x="224" y="-50.3" font-family="Times,serif" font-size="14.00" fill="#000000">D11</text>
</g>
<!-- I01&#45;&gt;D11 -->
<g id="edge5" class="edge">
<title>I01&#45;&gt;D11</title>
<path fill="none" stroke="#000000" d="M91.7841,-54C115.953,-54 171.4495,-54 202.3059,-54"/>
<polygon fill="#000000" stroke="#000000" points="202.4555,-57.5001 212.4555,-54 202.4555,-50.5001 202.4555,-57.5001"/>
</g>
<!-- a -->
<g id="node8" class="node">
<title>a</title>
<ellipse fill="none" stroke="#7f7f7f" stroke-dasharray="5,2" cx="152" cy="-18" rx="18" ry="18"/>
<text text-anchor="middle" x="152" y="-14.3" font-family="Times,serif" font-size="14.00" fill="#7f7f7f">a</text>
</g>
<!-- I01&#45;&gt;a -->
<g id="edge9" class="edge">
<title>I01&#45;&gt;a</title>
<path fill="none" stroke="#7f7f7f" stroke-dasharray="5,2" d="M91.568,-48.216C101.0407,-43.4797 114.7865,-36.6068 126.7758,-30.6121"/>
<polygon fill="#7f7f7f" stroke="#7f7f7f" points="128.5202,-33.6531 135.8992,-26.0504 125.3897,-27.3921 128.5202,-33.6531"/>
</g>
<!-- I11 -->
<g id="node4" class="node">
<title>I11</title>
<text text-anchor="middle" x="224" y="-93.5" font-family="Times,serif" font-size="14.00" fill="#000000">I11</text>
</g>
<!-- D10&#45;&gt;I11 -->
<g id="edge4" class="edge">
<title>D10&#45;&gt;I11</title>
<path fill="none" stroke="#000000" d="M224,-190.4236C224,-174.516 224,-137.27 224,-114.9707"/>
<polygon fill="#000000" stroke="#000000" points="227.5001,-114.8643 224,-104.8643 220.5001,-114.8643 227.5001,-114.8643"/>
</g>
<!-- T -->
<g id="node7" class="node">
<title>T</title>
<text text-anchor="middle" x="260" y="-64.7" font-family="Times,serif" font-size="14.00" fill="#000000">T</text>
</g>
<!-- I11&#45;&gt;T -->
<g id="edge8" class="edge">
<title>I11&#45;&gt;T</title>
<path fill="none" stroke="#000000" d="M234.3408,-89.6557C235.8149,-88.5446 237.3037,-87.4027 238.7,-86.3 241.7326,-83.905 244.9499,-81.2589 247.9403,-78.7524"/>
<polygon fill="#000000" stroke="#000000" points="250.475,-81.1911 255.8193,-72.0429 245.9366,-75.8616 250.475,-81.1911"/>
</g>
<!-- I11&#45;&gt;a -->
<g id="edge11" class="edge">
<title>I11&#45;&gt;a</title>
<path fill="none" stroke="#7f7f7f" stroke-dasharray="5,2" d="M213.1644,-89.6242C211.8234,-88.5549 210.5027,-87.4326 209.3,-86.3 194.4633,-72.3279 179.7303,-54.6601 168.9193,-40.7945"/>
<polygon fill="#7f7f7f" stroke="#7f7f7f" points="171.5907,-38.5264 162.7289,-32.7196 166.0354,-42.7853 171.5907,-38.5264"/>
</g>
<!-- M11&#45;&gt;T -->
<g id="edge7" class="edge">
<title>M11&#45;&gt;T</title>
<path fill="none" stroke="#000000" d="M235.7877,-73.2425C239.0175,-72.5965 242.5513,-71.8897 245.8965,-71.2207"/>
<polygon fill="#000000" stroke="#000000" points="246.707,-74.628 255.8264,-69.2347 245.3341,-67.7639 246.707,-74.628"/>
</g>
<!-- M11&#45;&gt;a -->
<g id="edge10" class="edge">
<title>M11&#45;&gt;a</title>
<path fill="none" stroke="#7f7f7f" stroke-dasharray="5,2" d="M213.6743,-68.0364C212.198,-66.9281 210.7045,-65.7922 209.3,-64.7 197.469,-55.5002 184.5081,-44.9758 173.9101,-36.2496"/>
<polygon fill="#7f7f7f" stroke="#7f7f7f" points="175.9214,-33.3712 165.9841,-29.6967 171.461,-38.7661 175.9214,-33.3712"/>
</g>
<!-- D11&#45;&gt;T -->
<g id="edge6" class="edge">
<title>D11&#45;&gt;T</title>
<path fill="none" stroke="#000000" d="M235.7877,-58.7151C239.1251,-60.05 242.7872,-61.5149 246.2304,-62.8922"/>
<polygon fill="#000000" stroke="#000000" points="245.2417,-66.2662 255.8264,-66.7305 247.8415,-59.7669 245.2417,-66.2662"/>
</g>
<!-- fake -->
<g id="node9" class="node">
<title>fake</title>
<ellipse fill="none" stroke="#7f7f7f" stroke-dasharray="5,2" cx="296" cy="-18" rx="18" ry="18"/>
<text text-anchor="middle" x="296" y="-14.3" font-family="Times,serif" font-size="14.00" fill="#7f7f7f">?</text>
</g>
<!-- T&#45;&gt;fake -->
<g id="edge12" class="edge">
<title>T&#45;&gt;fake</title>
<path fill="none" stroke="#7f7f7f" stroke-dasharray="5,2" d="M264.1297,-62.6185C267.9273,-57.3018 273.815,-49.059 279.5015,-41.0979"/>
<polygon fill="#7f7f7f" stroke="#7f7f7f" points="282.5201,-42.8934 285.4845,-32.7217 276.824,-38.8247 282.5201,-42.8934"/>
</g>
</g>
</svg>
