<?xml version="1.0" encoding="UTF-8" standalone="no"?>
<!DOCTYPE svg PUBLIC "-//W3C//DTD SVG 1.1//EN"
 "http://www.w3.org/Graphics/SVG/1.1/DTD/svg11.dtd">
<!-- Generated by graphviz version 2.40.1 (0)
 -->
<!-- Title: G Pages: 1 -->
<svg width="309pt" height="228pt"
 viewBox="0.00 0.00 309.00 228.00" xmlns="http://www.w3.org/2000/svg" xmlns:xlink="http://www.w3.org/1999/xlink">
<g id="graph0" class="graph" transform="scale(1 1) rotate(0) translate(4 224)">
<title>G</title>
<polygon fill="#ffffff" stroke="transparent" points="-4,4 -4,-224 305,-224 305,4 -4,4"/>
<!-- N11 -->
<g id="node1" class="node">
<title>N11</title>
<ellipse fill="none" stroke="#000000" cx="198.5" cy="-182.5" rx="14.5" ry="14.5"/>
<text text-anchor="middle" x="198.5" y="-180" font-family="Courier,monospace" font-weight="bold" font-size="10.00" fill="#000000">N11</text>
</g>
<!-- v3 -->
<g id="node7" class="node">
<title>v3</title>
<ellipse fill="none" stroke="#000000" cx="286.5" cy="-205.5" rx="14.5" ry="14.5"/>
<text text-anchor="middle" x="286.5" y="-203" font-family="Courier,monospace" font-weight="bold" font-size="10.00" fill="#000000">v3</text>
</g>
<!-- N11&#45;&#45;v3 -->
<g id="edge2" class="edge">
<title>N11&#45;&#45;v3</title>
<path fill="none" stroke="#000000" d="M212.6387,-186.1953C229.0605,-190.4874 255.9896,-197.5257 272.3964,-201.8138"/>
<text text-anchor="middle" x="242.5" y="-199.5" font-family="Courier,monospace" font-weight="bold" font-size="10.00" fill="#000000">3.0</text>
</g>
<!-- v4 -->
<g id="node8" class="node">
<title>v4</title>
<ellipse fill="none" stroke="#000000" cx="286.5" cy="-158.5" rx="14.5" ry="14.5"/>
<text text-anchor="middle" x="286.5" y="-156" font-family="Courier,monospace" font-weight="bold" font-size="10.00" fill="#000000">v4</text>
</g>
<!-- N11&#45;&#45;v4 -->
<g id="edge3" class="edge">
<title>N11&#45;&#45;v4</title>
<path fill="none" stroke="#000000" d="M212.6387,-178.644C229.0605,-174.1653 255.9896,-166.821 272.3964,-162.3464"/>
<text text-anchor="middle" x="242.5" y="-175.5" font-family="Courier,monospace" font-weight="bold" font-size="10.00" fill="#000000">4.0</text>
</g>
<!-- N2 -->
<g id="node2" class="node">
<title>N2</title>
<ellipse fill="none" stroke="#000000" cx="14.5" cy="-84.5" rx="14.5" ry="14.5"/>
<text text-anchor="middle" x="14.5" y="-82" font-family="Courier,monospace" font-weight="bold" font-size="10.00" fill="#000000">N2</text>
</g>
<!-- N7 -->
<g id="node3" class="node">
<title>N7</title>
<ellipse fill="none" stroke="#000000" cx="110.5" cy="-155.5" rx="14.5" ry="14.5"/>
<text text-anchor="middle" x="110.5" y="-153" font-family="Courier,monospace" font-weight="bold" font-size="10.00" fill="#000000">N7</text>
</g>
<!-- N2&#45;&#45;N7 -->
<g id="edge8" class="edge">
<title>N2&#45;&#45;N7</title>
<path fill="none" stroke="#000000" d="M24.5582,-95.1086C30.7482,-101.3726 39.0042,-109.2693 47,-115.5 63.4437,-128.3137 84.1375,-140.7353 97.3454,-148.2495"/>
<text text-anchor="middle" x="62.5" y="-138.5" font-family="Courier,monospace" font-weight="bold" font-size="10.00" fill="#000000">4.0</text>
</g>
<!-- v0 -->
<g id="node4" class="node">
<title>v0</title>
<ellipse fill="none" stroke="#000000" cx="110.5" cy="-108.5" rx="14.5" ry="14.5"/>
<text text-anchor="middle" x="110.5" y="-106" font-family="Courier,monospace" font-weight="bold" font-size="10.00" fill="#000000">v0</text>
</g>
<!-- N2&#45;&#45;v0 -->
<g id="edge5" class="edge">
<title>N2&#45;&#45;v0</title>
<path fill="none" stroke="#000000" d="M28.6651,-88.0413C46.8155,-92.5789 78.0984,-100.3996 96.2768,-104.9442"/>
<text text-anchor="middle" x="62.5" y="-103.5" font-family="Courier,monospace" font-weight="bold" font-size="10.00" fill="#000000">11.0</text>
</g>
<!-- v1 -->
<g id="node5" class="node">
<title>v1</title>
<ellipse fill="none" stroke="#000000" cx="110.5" cy="-61.5" rx="14.5" ry="14.5"/>
<text text-anchor="middle" x="110.5" y="-59" font-family="Courier,monospace" font-weight="bold" font-size="10.00" fill="#000000">v1</text>
</g>
<!-- N2&#45;&#45;v1 -->
<g id="edge7" class="edge">
<title>N2&#45;&#45;v1</title>
<path fill="none" stroke="#000000" d="M28.6949,-80.3929C34.37,-78.797 40.9772,-76.9967 47,-75.5 63.6529,-71.3616 82.9167,-67.202 95.8202,-64.5053"/>
<text text-anchor="middle" x="62.5" y="-78.5" font-family="Courier,monospace" font-weight="bold" font-size="10.00" fill="#000000">2.0</text>
</g>
<!-- v2 -->
<g id="node6" class="node">
<title>v2</title>
<ellipse fill="none" stroke="#000000" cx="110.5" cy="-14.5" rx="14.5" ry="14.5"/>
<text text-anchor="middle" x="110.5" y="-12" font-family="Courier,monospace" font-weight="bold" font-size="10.00" fill="#000000">v2</text>
</g>
<!-- N2&#45;&#45;v2 -->
<g id="edge6" class="edge">
<title>N2&#45;&#45;v2</title>
<path fill="none" stroke="#000000" d="M24.8985,-73.9833C31.073,-67.9777 39.198,-60.4777 47,-54.5 63.548,-41.8213 84.2157,-29.366 97.3894,-21.8074"/>
<text text-anchor="middle" x="62.5" y="-57.5" font-family="Courier,monospace" font-weight="bold" font-size="10.00" fill="#000000">10.0</text>
</g>
<!-- N7&#45;&#45;N11 -->
<g id="edge1" class="edge">
<title>N7&#45;&#45;N11</title>
<path fill="none" stroke="#000000" d="M124.6387,-159.838C141.0605,-164.8765 167.9896,-173.1389 184.3964,-178.1727"/>
<text text-anchor="middle" x="154.5" y="-174.5" font-family="Courier,monospace" font-weight="bold" font-size="10.00" fill="#000000">3.0</text>
</g>
<!-- v5 -->
<g id="node9" class="node">
<title>v5</title>
<ellipse fill="none" stroke="#000000" cx="198.5" cy="-135.5" rx="14.5" ry="14.5"/>
<text text-anchor="middle" x="198.5" y="-133" font-family="Courier,monospace" font-weight="bold" font-size="10.00" fill="#000000">v5</text>
</g>
<!-- N7&#45;&#45;v5 -->
<g id="edge4" class="edge">
<title>N7&#45;&#45;v5</title>
<path fill="none" stroke="#000000" d="M123.84,-149.2706C129.6174,-146.8086 136.5281,-144.1731 143,-142.5 156.5398,-138.9996 172.4079,-137.2223 183.7008,-136.3372"/>
<text text-anchor="middle" x="154.5" y="-145.5" font-family="Courier,monospace" font-weight="bold" font-size="10.00" fill="#000000">7.0</text>
</g>
</g>
</svg>
