<?xml version="1.0" encoding="UTF-8" standalone="no"?>
<!DOCTYPE svg PUBLIC "-//W3C//DTD SVG 1.1//EN"
 "http://www.w3.org/Graphics/SVG/1.1/DTD/svg11.dtd">
<!-- Generated by graphviz version 2.40.1 (0)
 -->
<!-- Title: G Pages: 1 -->
<svg width="302pt" height="136pt"
 viewBox="0.00 0.00 302.00 136.00" xmlns="http://www.w3.org/2000/svg" xmlns:xlink="http://www.w3.org/1999/xlink">
<g id="graph0" class="graph" transform="scale(1 1) rotate(0) translate(4 132)">
<title>G</title>
<polygon fill="#ffffff" stroke="transparent" points="-4,4 -4,-132 298,-132 298,4 -4,4"/>
<g id="clust1" class="cluster">
<title>cluster_0</title>
<polygon fill="none" stroke="#000000" points="8,-8 8,-120 286,-120 286,-8 8,-8"/>
<text text-anchor="middle" x="147" y="-108" font-family="Courier,monospace" font-weight="bold" font-size="10.00" fill="#000000">v2 added along edge(i0,v3)</text>
</g>
<!-- v0 -->
<g id="node1" class="node">
<title>v0</title>
<ellipse fill="none" stroke="#000000" cx="30.5" cy="-78" rx="14.5" ry="14.5"/>
<text text-anchor="middle" x="30.5" y="-75.5" font-family="Courier,monospace" font-weight="bold" font-size="10.00" fill="#000000">v0</text>
</g>
<!-- i0 -->
<g id="node2" class="node">
<title>i0</title>
<ellipse fill="none" stroke="#000000" cx="113.5" cy="-56" rx="14.5" ry="14.5"/>
<text text-anchor="middle" x="113.5" y="-53.5" font-family="Courier,monospace" font-weight="bold" font-size="10.00" fill="#000000">i0</text>
</g>
<!-- v0&#45;&#45;i0 -->
<g id="edge1" class="edge">
<title>v0&#45;&#45;i0</title>
<path fill="none" stroke="#000000" d="M44.5798,-74.268C59.8425,-70.2225 84.0615,-63.803 99.3511,-59.7503"/>
<text text-anchor="middle" x="72" y="-71" font-family="Courier,monospace" font-weight="bold" font-size="10.00" fill="#000000">11</text>
</g>
<!-- i1 -->
<g id="node4" class="node">
<title>i1</title>
<ellipse fill="#d2b48c" stroke="#000000" cx="188.5" cy="-56" rx="14.5" ry="14.5"/>
<text text-anchor="middle" x="188.5" y="-53.5" font-family="Courier,monospace" font-weight="bold" font-size="10.00" fill="#000000">i1</text>
</g>
<!-- i0&#45;&#45;i1 -->
<g id="edge3" class="edge">
<title>i0&#45;&#45;i1</title>
<path fill="none" stroke="#000000" d="M128.3176,-56C141.5515,-56 160.8224,-56 173.9684,-56"/>
<text text-anchor="middle" x="151" y="-59" font-family="Courier,monospace" font-weight="bold" font-size="10.00" fill="#000000">?</text>
</g>
<!-- v1 -->
<g id="node3" class="node">
<title>v1</title>
<ellipse fill="none" stroke="#000000" cx="30.5" cy="-31" rx="14.5" ry="14.5"/>
<text text-anchor="middle" x="30.5" y="-28.5" font-family="Courier,monospace" font-weight="bold" font-size="10.00" fill="#000000">v1</text>
</g>
<!-- v1&#45;&#45;i0 -->
<g id="edge2" class="edge">
<title>v1&#45;&#45;i0</title>
<path fill="none" stroke="#000000" d="M44.5798,-35.2409C59.8425,-39.8381 84.0615,-47.133 99.3511,-51.7383"/>
<text text-anchor="middle" x="72" y="-48" font-family="Courier,monospace" font-weight="bold" font-size="10.00" fill="#000000">2</text>
</g>
<!-- v2 -->
<g id="node5" class="node">
<title>v2</title>
<ellipse fill="#d2b48c" stroke="#000000" cx="263.5" cy="-31" rx="14.5" ry="14.5"/>
<text text-anchor="middle" x="263.5" y="-28.5" font-family="Courier,monospace" font-weight="bold" font-size="10.00" fill="#000000">v2</text>
</g>
<!-- i1&#45;&#45;v2 -->
<g id="edge4" class="edge">
<title>i1&#45;&#45;v2</title>
<path fill="none" stroke="#d2b48c" stroke-width="2.5" d="M202.2562,-51.4146C215.704,-46.932 236.0724,-40.1425 249.5771,-35.641"/>
<text text-anchor="middle" x="226" y="-47" font-family="Courier,monospace" font-weight="bold" font-size="10.00" fill="#000000">?</text>
</g>
<!-- v3 -->
<g id="node6" class="node">
<title>v3</title>
<ellipse fill="none" stroke="#000000" cx="263.5" cy="-78" rx="14.5" ry="14.5"/>
<text text-anchor="middle" x="263.5" y="-75.5" font-family="Courier,monospace" font-weight="bold" font-size="10.00" fill="#000000">v3</text>
</g>
<!-- i1&#45;&#45;v3 -->
<g id="edge5" class="edge">
<title>i1&#45;&#45;v3</title>
<path fill="none" stroke="#000000" d="M202.6069,-60.138C216.0157,-64.0713 236.0685,-69.9534 249.4563,-73.8805"/>
<text text-anchor="middle" x="226" y="-71" font-family="Courier,monospace" font-weight="bold" font-size="10.00" fill="#000000">?</text>
</g>
</g>
</svg>
