<?xml version="1.0" encoding="UTF-8" standalone="no"?>
<!DOCTYPE svg PUBLIC "-//W3C//DTD SVG 1.1//EN"
 "http://www.w3.org/Graphics/SVG/1.1/DTD/svg11.dtd">
<!-- Generated by graphviz version 2.40.1 (0)
 -->
<!-- Title: G Pages: 1 -->
<svg width="345pt" height="154pt"
 viewBox="0.00 0.00 344.80 154.00" xmlns="http://www.w3.org/2000/svg" xmlns:xlink="http://www.w3.org/1999/xlink">
<g id="graph0" class="graph" transform="scale(1 1) rotate(0) translate(4 150)">
<title>G</title>
<polygon fill="#ffffff" stroke="transparent" points="-4,4 -4,-150 340.8,-150 340.8,4 -4,4"/>
<!-- N0 -->
<g id="node1" class="node">
<title>N0</title>
<ellipse fill="#000000" stroke="#000000" cx="1.8" cy="-67" rx="1.8" ry="1.8"/>
</g>
<!-- N1 -->
<g id="node2" class="node">
<title>N1</title>
<ellipse fill="#000000" stroke="#000000" cx="49.4" cy="-134" rx="1.8" ry="1.8"/>
</g>
<!-- N0&#45;&gt;N1 -->
<g id="edge1" class="edge">
<title>N0&#45;&gt;N1</title>
<path fill="none" stroke="#000000" d="M2.2734,-68.8841C3.9812,-75.4051 10.3267,-97.4121 21.6,-112 26.3703,-118.1729 33.2318,-123.6262 38.9443,-127.5594"/>
<polygon fill="#000000" stroke="#000000" points="37.3311,-130.6794 47.6601,-133.0381 41.0565,-124.753 37.3311,-130.6794"/>
<text text-anchor="middle" x="25.6" y="-122" font-family="Courier,monospace" font-weight="bold" font-size="10.00" fill="#000000">k</text>
</g>
<!-- N10 -->
<g id="node3" class="node">
<title>N10</title>
<ellipse fill="#000000" stroke="#000000" cx="144.6" cy="-67" rx="1.8" ry="1.8"/>
</g>
<!-- N0&#45;&gt;N10 -->
<g id="edge15" class="edge">
<title>N0&#45;&gt;N10</title>
<path fill="none" stroke="#000000" d="M3.0542,-68.4449C5.9381,-71.6428 13.4241,-79.2527 21.6,-82 24.9704,-83.1325 26.0459,-82.1026 29.6,-82 60.3941,-81.1107 68.3241,-82.5039 98.8,-78 110.6766,-76.2448 123.9941,-72.885 133.1937,-70.3383"/>
<polygon fill="#000000" stroke="#000000" points="134.2443,-73.678 142.8747,-67.5326 132.2957,-66.9546 134.2443,-73.678"/>
<text text-anchor="middle" x="73.2" y="-84" font-family="Courier,monospace" font-weight="bold" font-size="10.00" fill="#000000">a</text>
</g>
<!-- N12 -->
<g id="node5" class="node">
<title>N12</title>
<ellipse fill="#000000" stroke="#000000" cx="49.4" cy="-67" rx="1.8" ry="1.8"/>
</g>
<!-- N0&#45;&gt;N12 -->
<g id="edge4" class="edge">
<title>N0&#45;&gt;N12</title>
<path fill="none" stroke="#000000" d="M3.8453,-67C9.5341,-67 25.8789,-67 37.3549,-67"/>
<polygon fill="#000000" stroke="#000000" points="37.4153,-70.5001 47.4153,-67 37.4153,-63.5001 37.4153,-70.5001"/>
<text text-anchor="middle" x="25.6" y="-70" font-family="Courier,monospace" font-weight="bold" font-size="10.00" fill="#000000">e</text>
</g>
<!-- N4 -->
<g id="node11" class="node">
<title>N4</title>
<ellipse fill="#000000" stroke="#000000" cx="49.4" cy="-33" rx="1.8" ry="1.8"/>
</g>
<!-- N0&#45;&gt;N4 -->
<g id="edge9" class="edge">
<title>N0&#45;&gt;N4</title>
<path fill="none" stroke="#000000" d="M3.223,-65.8841C6.4525,-63.3599 14.6,-57.0391 21.6,-52 27.4594,-47.782 34.1353,-43.2118 39.4763,-39.6109"/>
<polygon fill="#000000" stroke="#000000" points="41.5014,-42.4673 47.8753,-34.0042 37.6149,-36.6453 41.5014,-42.4673"/>
<text text-anchor="middle" x="25.6" y="-55" font-family="Courier,monospace" font-weight="bold" font-size="10.00" fill="#000000">b</text>
</g>
<!-- N7 -->
<g id="node14" class="node">
<title>N7</title>
<ellipse fill="#000000" stroke="#000000" cx="239.8" cy="-30" rx="1.8" ry="1.8"/>
</g>
<!-- N0&#45;&gt;N7 -->
<g id="edge12" class="edge">
<title>N0&#45;&gt;N7</title>
<path fill="none" stroke="#000000" d="M2.1577,-65.0671C4.3116,-54.0817 16.5821,0 49.4,0 49.4,0 49.4,0 192.2,0 207.9818,0 222.8024,-11.9487 231.5893,-20.7645"/>
<polygon fill="#000000" stroke="#000000" points="229.2003,-23.3399 238.5157,-28.3871 234.381,-18.6323 229.2003,-23.3399"/>
<text text-anchor="middle" x="120.8" y="-3" font-family="Courier,monospace" font-weight="bold" font-size="10.00" fill="#000000">n</text>
</g>
<!-- N2 -->
<g id="node9" class="node">
<title>N2</title>
<ellipse fill="#000000" stroke="#000000" cx="97" cy="-135" rx="1.8" ry="1.8"/>
</g>
<!-- N1&#45;&gt;N2 -->
<g id="edge2" class="edge">
<title>N1&#45;&gt;N2</title>
<path fill="none" stroke="#000000" d="M51.4453,-134.043C57.1341,-134.1625 73.4789,-134.5059 84.9549,-134.747"/>
<polygon fill="#000000" stroke="#000000" points="84.9439,-138.2474 95.0153,-134.9583 85.091,-131.2489 84.9439,-138.2474"/>
<text text-anchor="middle" x="73.2" y="-137" font-family="Courier,monospace" font-weight="bold" font-size="10.00" fill="#000000">l</text>
</g>
<!-- N11 -->
<g id="node4" class="node">
<title>N11</title>
<ellipse fill="#000000" stroke="#000000" cx="192.2" cy="-65" rx="1.8" ry="1.8"/>
</g>
<!-- N10&#45;&gt;N11 -->
<g id="edge3" class="edge">
<title>N10&#45;&gt;N11</title>
<path fill="none" stroke="#000000" d="M146.6453,-66.9141C152.3341,-66.675 168.6789,-65.9883 180.1549,-65.5061"/>
<polygon fill="#000000" stroke="#000000" points="180.3711,-69.0002 190.2153,-65.0834 180.0771,-62.0064 180.3711,-69.0002"/>
<text text-anchor="middle" x="168.4" y="-69" font-family="Courier,monospace" font-weight="bold" font-size="10.00" fill="#000000">¶</text>
</g>
<!-- N14 -->
<g id="node7" class="node">
<title>N14</title>
<ellipse fill="#000000" stroke="#000000" cx="192.2" cy="-33" rx="1.8" ry="1.8"/>
</g>
<!-- N10&#45;&gt;N14 -->
<g id="edge6" class="edge">
<title>N10&#45;&gt;N14</title>
<path fill="none" stroke="#000000" d="M146.0004,-65.7827C149.1838,-63.0349 157.2428,-56.187 164.4,-51 170.0392,-46.9132 176.5655,-42.6641 181.8771,-39.3212"/>
<polygon fill="#000000" stroke="#000000" points="183.7194,-42.2971 190.4005,-34.0743 180.0499,-36.336 183.7194,-42.2971"/>
<text text-anchor="middle" x="168.4" y="-54" font-family="Courier,monospace" font-weight="bold" font-size="10.00" fill="#000000">n</text>
</g>
<!-- N13 -->
<g id="node6" class="node">
<title>N13</title>
<ellipse fill="#000000" stroke="#000000" cx="97" cy="-67" rx="1.8" ry="1.8"/>
</g>
<!-- N12&#45;&gt;N13 -->
<g id="edge5" class="edge">
<title>N12&#45;&gt;N13</title>
<path fill="none" stroke="#000000" d="M51.4453,-67C57.1341,-67 73.4789,-67 84.9549,-67"/>
<polygon fill="#000000" stroke="#000000" points="85.0153,-70.5001 95.0153,-67 85.0153,-63.5001 85.0153,-70.5001"/>
<text text-anchor="middle" x="73.2" y="-70" font-family="Courier,monospace" font-weight="bold" font-size="10.00" fill="#000000">¶</text>
</g>
<!-- N15 -->
<g id="node8" class="node">
<title>N15</title>
<ellipse fill="#000000" stroke="#000000" cx="239.8" cy="-63" rx="1.8" ry="1.8"/>
</g>
<!-- N14&#45;&gt;N15 -->
<g id="edge7" class="edge">
<title>N14&#45;&gt;N15</title>
<path fill="none" stroke="#000000" d="M193.7837,-33.9982C199.2604,-37.4498 217.7066,-49.0756 229.5146,-56.5176"/>
<polygon fill="#000000" stroke="#000000" points="227.8353,-59.5964 238.1615,-61.9673 231.5677,-53.6744 227.8353,-59.5964"/>
<text text-anchor="middle" x="216" y="-53" font-family="Courier,monospace" font-weight="bold" font-size="10.00" fill="#000000">¶</text>
</g>
<!-- N14&#45;&gt;N7 -->
<g id="edge18" class="edge">
<title>N14&#45;&gt;N7</title>
<path fill="none" stroke="#ff0000" stroke-dasharray="5,2" d="M194.2453,-32.8711C199.9341,-32.5126 216.2789,-31.4824 227.7549,-30.7591"/>
<polygon fill="#ff0000" stroke="#ff0000" points="228.0553,-34.2473 237.8153,-30.1251 227.6149,-27.2611 228.0553,-34.2473"/>
</g>
<!-- N3 -->
<g id="node10" class="node">
<title>N3</title>
<ellipse fill="#000000" stroke="#000000" cx="144.6" cy="-135" rx="1.8" ry="1.8"/>
</g>
<!-- N2&#45;&gt;N3 -->
<g id="edge8" class="edge">
<title>N2&#45;&gt;N3</title>
<path fill="none" stroke="#000000" d="M99.0453,-135C104.7341,-135 121.0789,-135 132.5549,-135"/>
<polygon fill="#000000" stroke="#000000" points="132.6153,-138.5001 142.6153,-135 132.6153,-131.5001 132.6153,-138.5001"/>
<text text-anchor="middle" x="120.8" y="-138" font-family="Courier,monospace" font-weight="bold" font-size="10.00" fill="#000000">¶</text>
</g>
<!-- N5 -->
<g id="node12" class="node">
<title>N5</title>
<ellipse fill="#000000" stroke="#000000" cx="97" cy="-36" rx="1.8" ry="1.8"/>
</g>
<!-- N4&#45;&gt;N5 -->
<g id="edge10" class="edge">
<title>N4&#45;&gt;N5</title>
<path fill="none" stroke="#000000" d="M51.4453,-33.1289C57.1341,-33.4874 73.4789,-34.5176 84.9549,-35.2409"/>
<polygon fill="#000000" stroke="#000000" points="84.8149,-38.7389 95.0153,-35.8749 85.2553,-31.7527 84.8149,-38.7389"/>
<text text-anchor="middle" x="73.2" y="-38" font-family="Courier,monospace" font-weight="bold" font-size="10.00" fill="#000000">a</text>
</g>
<!-- N5&#45;&gt;N10 -->
<g id="edge17" class="edge">
<title>N5&#45;&gt;N10</title>
<path fill="none" stroke="#ff0000" stroke-dasharray="5,2" d="M98.3958,-37.1553C101.5696,-39.7601 109.6105,-46.2352 116.8,-51 122.2744,-54.6282 128.605,-58.3092 133.841,-61.2244"/>
<polygon fill="#ff0000" stroke="#ff0000" points="132.3355,-64.3891 142.797,-66.0645 135.6636,-58.2309 132.3355,-64.3891"/>
</g>
<!-- N6 -->
<g id="node13" class="node">
<title>N6</title>
<ellipse fill="#000000" stroke="#000000" cx="144.6" cy="-36" rx="1.8" ry="1.8"/>
</g>
<!-- N5&#45;&gt;N6 -->
<g id="edge11" class="edge">
<title>N5&#45;&gt;N6</title>
<path fill="none" stroke="#000000" d="M99.0453,-36C104.7341,-36 121.0789,-36 132.5549,-36"/>
<polygon fill="#000000" stroke="#000000" points="132.6153,-39.5001 142.6153,-36 132.6153,-32.5001 132.6153,-39.5001"/>
<text text-anchor="middle" x="120.8" y="-39" font-family="Courier,monospace" font-weight="bold" font-size="10.00" fill="#000000">¶</text>
</g>
<!-- N8 -->
<g id="node15" class="node">
<title>N8</title>
<ellipse fill="#000000" stroke="#000000" cx="287.4" cy="-64" rx="1.8" ry="1.8"/>
</g>
<!-- N7&#45;&gt;N8 -->
<g id="edge13" class="edge">
<title>N7&#45;&gt;N8</title>
<path fill="none" stroke="#000000" d="M241.3837,-31.1312C246.9168,-35.0835 265.6883,-48.4917 277.4776,-56.9126"/>
<polygon fill="#000000" stroke="#000000" points="275.5898,-59.8653 285.7615,-62.8296 279.6585,-54.1691 275.5898,-59.8653"/>
<text text-anchor="middle" x="263.6" y="-53" font-family="Courier,monospace" font-weight="bold" font-size="10.00" fill="#000000">a</text>
</g>
<!-- N8&#45;&gt;N10 -->
<g id="edge16" class="edge">
<title>N8&#45;&gt;N10</title>
<path fill="none" stroke="#ff0000" stroke-dasharray="5,2" d="M285.3162,-64.5443C278.8665,-66.2095 258.6395,-71.2871 241.6,-74 211.072,-78.8605 203.2732,-79.4425 172.4,-81 168.849,-81.1791 167.7885,-82.077 164.4,-81 160.5132,-79.7647 156.7327,-77.4595 153.5346,-75.071"/>
<polygon fill="#ff0000" stroke="#ff0000" points="155.7009,-72.3155 145.8759,-68.3506 151.0839,-77.577 155.7009,-72.3155"/>
</g>
<!-- N9 -->
<g id="node16" class="node">
<title>N9</title>
<ellipse fill="#000000" stroke="#000000" cx="335" cy="-64" rx="1.8" ry="1.8"/>
</g>
<!-- N8&#45;&gt;N9 -->
<g id="edge14" class="edge">
<title>N8&#45;&gt;N9</title>
<path fill="none" stroke="#000000" d="M289.4453,-64C295.1341,-64 311.4789,-64 322.9549,-64"/>
<polygon fill="#000000" stroke="#000000" points="323.0153,-67.5001 333.0153,-64 323.0153,-60.5001 323.0153,-67.5001"/>
<text text-anchor="middle" x="311.2" y="-67" font-family="Courier,monospace" font-weight="bold" font-size="10.00" fill="#000000">¶</text>
</g>
</g>
</svg>
