<?xml version="1.0" encoding="UTF-8" standalone="no"?>
<!DOCTYPE svg PUBLIC "-//W3C//DTD SVG 1.1//EN"
 "http://www.w3.org/Graphics/SVG/1.1/DTD/svg11.dtd">
<!-- Generated by graphviz version 2.40.1 (0)
 -->
<!-- Title: G Pages: 1 -->
<svg width="369pt" height="183pt"
 viewBox="0.00 0.00 369.00 183.00" xmlns="http://www.w3.org/2000/svg" xmlns:xlink="http://www.w3.org/1999/xlink">
<g id="graph0" class="graph" transform="scale(1 1) rotate(0) translate(4 179)">
<title>G</title>
<polygon fill="#ffffff" stroke="transparent" points="-4,4 -4,-179 365,-179 365,4 -4,4"/>
<g id="clust1" class="cluster">
<title>cluster_one</title>
<polygon fill="none" stroke="#000000" points="8,-8 8,-167 353,-167 353,-8 8,-8"/>
<text text-anchor="middle" x="180.5" y="-155" font-family="Courier,monospace" font-weight="bold" font-size="10.00" fill="#000000">edge counts from v1</text>
</g>
<!-- v0_x -->
<g id="node1" class="node">
<title>v0_x</title>
<ellipse fill="#ff0300" stroke="#000000" cx="30.5" cy="-125" rx="14.5" ry="14.5"/>
<text text-anchor="middle" x="30.5" y="-122.5" font-family="Courier,monospace" font-weight="bold" font-size="10.00" fill="#000000">v0</text>
</g>
<!-- i0_x -->
<g id="node2" class="node">
<title>i0_x</title>
<ellipse fill="none" stroke="#000000" cx="105.5" cy="-81" rx="14.5" ry="14.5"/>
<text text-anchor="middle" x="105.5" y="-78.5" font-family="Courier,monospace" font-weight="bold" font-size="10.00" fill="#000000">i0</text>
</g>
<!-- v0_x&#45;&#45;i0_x -->
<g id="edge1" class="edge">
<title>v0_x&#45;&#45;i0_x</title>
<path fill="none" stroke="#ff0300" stroke-width="2.5" d="M43.2227,-117.536C57.0979,-109.3959 79.1645,-96.4502 92.9652,-88.3538"/>
<text text-anchor="middle" x="68" y="-108" font-family="Courier,monospace" font-weight="bold" font-size="10.00" fill="#000000"> </text>
</g>
<!-- i1_x -->
<g id="node5" class="node">
<title>i1_x</title>
<ellipse fill="none" stroke="#000000" cx="180.5" cy="-81" rx="14.5" ry="14.5"/>
<text text-anchor="middle" x="180.5" y="-78.5" font-family="Courier,monospace" font-weight="bold" font-size="10.00" fill="#000000">i1</text>
</g>
<!-- i0_x&#45;&#45;i1_x -->
<g id="edge4" class="edge">
<title>i0_x&#45;&#45;i1_x</title>
<path fill="none" stroke="#42c000" stroke-width="2.5" d="M120.3176,-77C133.5515,-77 152.8224,-77 165.9684,-77"/>
<path fill="none" stroke="transparent" stroke-width="2.5" d="M120.3176,-79C133.5515,-79 152.8224,-79 165.9684,-79"/>
<path fill="none" stroke="#818100" stroke-width="2.5" d="M120.3176,-81C133.5515,-81 152.8224,-81 165.9684,-81"/>
<path fill="none" stroke="transparent" stroke-width="2.5" d="M120.3176,-83C133.5515,-83 152.8224,-83 165.9684,-83"/>
<path fill="none" stroke="#c04200" stroke-width="2.5" d="M120.3176,-85C133.5515,-85 152.8224,-85 165.9684,-85"/>
<text text-anchor="middle" x="143" y="-84" font-family="Courier,monospace" font-weight="bold" font-size="10.00" fill="#000000"> </text>
</g>
<!-- v1_x -->
<g id="node3" class="node">
<title>v1_x</title>
<ellipse fill="none" stroke="#000000" stroke-width="5" cx="30.5" cy="-78" rx="14.5" ry="14.5"/>
<text text-anchor="middle" x="30.5" y="-75.5" font-family="Courier,monospace" font-weight="bold" font-size="10.00" fill="#000000">v1</text>
</g>
<!-- v1_x&#45;&#45;i0_x -->
<g id="edge2" class="edge">
<title>v1_x&#45;&#45;i0_x</title>
<path fill="none" stroke="#03ff00" stroke-width="2.5" d="M45.6373,-70.5991C58.8712,-71.1285 78.1421,-71.8993 91.2881,-72.4251"/>
<path fill="none" stroke="transparent" stroke-width="2.5" d="M45.5574,-72.5975C58.7913,-73.1269 78.0622,-73.8977 91.2082,-74.4235"/>
<path fill="none" stroke="#42c000" stroke-width="2.5" d="M45.4775,-74.5959C58.7114,-75.1253 77.9823,-75.8961 91.1283,-76.4219"/>
<path fill="none" stroke="transparent" stroke-width="2.5" d="M45.3975,-76.5943C58.6314,-77.1237 77.9023,-77.8945 91.0483,-78.4203"/>
<path fill="none" stroke="#818100" stroke-width="2.5" d="M45.3176,-78.5927C58.5515,-79.1221 77.8224,-79.8929 90.9684,-80.4187"/>
<path fill="none" stroke="transparent" stroke-width="2.5" d="M45.2377,-80.5911C58.4716,-81.1205 77.7424,-81.8913 90.8885,-82.4171"/>
<path fill="none" stroke="#c04200" stroke-width="2.5" d="M45.1577,-82.5895C58.3916,-83.1189 77.6625,-83.8897 90.8085,-84.4155"/>
<path fill="none" stroke="transparent" stroke-width="2.5" d="M45.0778,-84.5879C58.3117,-85.1173 77.5826,-85.8881 90.7286,-86.4139"/>
<path fill="none" stroke="#ff0300" stroke-width="2.5" d="M44.9978,-86.5863C58.2318,-87.1157 77.5026,-87.8865 90.6487,-88.4123"/>
<text text-anchor="middle" x="68" y="-82" font-family="Courier,monospace" font-weight="bold" font-size="10.00" fill="#000000"> </text>
</g>
<!-- v2_x -->
<g id="node4" class="node">
<title>v2_x</title>
<ellipse fill="#03ff00" stroke="#000000" cx="30.5" cy="-31" rx="14.5" ry="14.5"/>
<text text-anchor="middle" x="30.5" y="-28.5" font-family="Courier,monospace" font-weight="bold" font-size="10.00" fill="#000000">v2</text>
</g>
<!-- v2_x&#45;&#45;i0_x -->
<g id="edge3" class="edge">
<title>v2_x&#45;&#45;i0_x</title>
<path fill="none" stroke="#03ff00" stroke-width="2.5" d="M42.8847,-39.2565C56.8642,-48.5762 79.4618,-63.6412 93.3457,-72.8972"/>
<text text-anchor="middle" x="68" y="-61" font-family="Courier,monospace" font-weight="bold" font-size="10.00" fill="#000000"> </text>
</g>
<!-- i2_x -->
<g id="node6" class="node">
<title>i2_x</title>
<ellipse fill="none" stroke="#000000" cx="255.5" cy="-56" rx="14.5" ry="14.5"/>
<text text-anchor="middle" x="255.5" y="-53.5" font-family="Courier,monospace" font-weight="bold" font-size="10.00" fill="#000000">i2</text>
</g>
<!-- i1_x&#45;&#45;i2_x -->
<g id="edge5" class="edge">
<title>i1_x&#45;&#45;i2_x</title>
<path fill="none" stroke="#42c000" stroke-width="2.5" d="M193.6237,-74.5172C207.0715,-70.0346 227.4399,-63.2452 240.9446,-58.7436"/>
<path fill="none" stroke="transparent" stroke-width="2.5" d="M194.2562,-76.4146C207.704,-71.932 228.0724,-65.1425 241.5771,-60.641"/>
<path fill="none" stroke="#818100" stroke-width="2.5" d="M194.8886,-78.312C208.3364,-73.8294 228.7048,-67.0399 242.2095,-62.5383"/>
<text text-anchor="middle" x="218" y="-72" font-family="Courier,monospace" font-weight="bold" font-size="10.00" fill="#000000"> </text>
</g>
<!-- v5_x -->
<g id="node9" class="node">
<title>v5_x</title>
<ellipse fill="#c04200" stroke="#000000" cx="255.5" cy="-103" rx="14.5" ry="14.5"/>
<text text-anchor="middle" x="255.5" y="-100.5" font-family="Courier,monospace" font-weight="bold" font-size="10.00" fill="#000000">v5</text>
</g>
<!-- i1_x&#45;&#45;v5_x -->
<g id="edge8" class="edge">
<title>i1_x&#45;&#45;v5_x</title>
<path fill="none" stroke="#c04200" stroke-width="2.5" d="M194.6069,-85.138C208.0157,-89.0713 228.0685,-94.9534 241.4563,-98.8805"/>
<text text-anchor="middle" x="218" y="-96" font-family="Courier,monospace" font-weight="bold" font-size="10.00" fill="#000000"> </text>
</g>
<!-- v3_x -->
<g id="node7" class="node">
<title>v3_x</title>
<ellipse fill="#42c000" stroke="#000000" cx="330.5" cy="-45" rx="14.5" ry="14.5"/>
<text text-anchor="middle" x="330.5" y="-42.5" font-family="Courier,monospace" font-weight="bold" font-size="10.00" fill="#000000">v3</text>
</g>
<!-- i2_x&#45;&#45;v3_x -->
<g id="edge6" class="edge">
<title>i2_x&#45;&#45;v3_x</title>
<path fill="none" stroke="#42c000" stroke-width="2.5" d="M269.9608,-53.8791C283.2416,-51.9312 302.8169,-49.0602 316.0836,-47.1144"/>
<text text-anchor="middle" x="293" y="-54" font-family="Courier,monospace" font-weight="bold" font-size="10.00" fill="#000000"> </text>
</g>
<!-- v4_x -->
<g id="node8" class="node">
<title>v4_x</title>
<ellipse fill="#818100" stroke="#000000" cx="330.5" cy="-92" rx="14.5" ry="14.5"/>
<text text-anchor="middle" x="330.5" y="-89.5" font-family="Courier,monospace" font-weight="bold" font-size="10.00" fill="#000000">v4</text>
</g>
<!-- i2_x&#45;&#45;v4_x -->
<g id="edge7" class="edge">
<title>i2_x&#45;&#45;v4_x</title>
<path fill="none" stroke="#818100" stroke-width="2.5" d="M268.9085,-62.4361C282.5599,-68.9888 303.5982,-79.0871 317.2076,-85.6196"/>
<text text-anchor="middle" x="293" y="-78" font-family="Courier,monospace" font-weight="bold" font-size="10.00" fill="#000000"> </text>
</g>
</g>
</svg>
