<?xml version="1.0" encoding="UTF-8" standalone="no"?>
<!DOCTYPE svg PUBLIC "-//W3C//DTD SVG 1.1//EN"
 "http://www.w3.org/Graphics/SVG/1.1/DTD/svg11.dtd">
<!-- Generated by graphviz version 2.40.1 (0)
 -->
<!-- Title: G Pages: 1 -->
<svg width="362pt" height="154pt"
 viewBox="0.00 0.00 362.00 154.00" xmlns="http://www.w3.org/2000/svg" xmlns:xlink="http://www.w3.org/1999/xlink">
<g id="graph0" class="graph" transform="scale(1 1) rotate(0) translate(4 150)">
<title>G</title>
<polygon fill="#ffffff" stroke="transparent" points="-4,4 -4,-150 358,-150 358,4 -4,4"/>
<!-- v0 -->
<g id="node1" class="node">
<title>v0</title>
<ellipse fill="#00ff00" stroke="#000000" cx="14.5" cy="-131.5" rx="14.5" ry="14.5"/>
<text text-anchor="middle" x="14.5" y="-129" font-family="Courier,monospace" font-weight="bold" font-size="10.00" fill="#000000">v0</text>
</g>
<!-- i0 -->
<g id="node2" class="node">
<title>i0</title>
<ellipse fill="#00ff00" stroke="#000000" cx="79.5" cy="-108.5" rx="14.5" ry="14.5"/>
<text text-anchor="middle" x="79.5" y="-106" font-family="Courier,monospace" font-weight="bold" font-size="10.00" fill="#000000">i0</text>
</g>
<!-- v0&#45;&#45;i0 -->
<g id="edge1" class="edge">
<title>v0&#45;&#45;i0</title>
<path fill="none" stroke="#000000" d="M28.2848,-126.6223C39.3155,-122.7191 54.7096,-117.272 65.735,-113.3707"/>
</g>
<!-- i1 -->
<g id="node4" class="node">
<title>i1</title>
<ellipse fill="#c0c0c0" stroke="#000000" cx="144.5" cy="-61.5" rx="14.5" ry="14.5"/>
<text text-anchor="middle" x="144.5" y="-59" font-family="Courier,monospace" font-weight="bold" font-size="10.00" fill="#000000">i1</text>
</g>
<!-- i0&#45;&#45;i1 -->
<g id="edge3" class="edge">
<title>i0&#45;&#45;i1</title>
<path fill="none" stroke="#000000" stroke-dasharray="5,2" d="M91.422,-99.8795C103.1501,-91.3992 120.9517,-78.5273 132.6536,-70.0659"/>
</g>
<!-- v1 -->
<g id="node3" class="node">
<title>v1</title>
<ellipse fill="#00ff00" stroke="#000000" cx="14.5" cy="-84.5" rx="14.5" ry="14.5"/>
<text text-anchor="middle" x="14.5" y="-82" font-family="Courier,monospace" font-weight="bold" font-size="10.00" fill="#000000">v1</text>
</g>
<!-- v1&#45;&#45;i0 -->
<g id="edge2" class="edge">
<title>v1&#45;&#45;i0</title>
<path fill="none" stroke="#000000" d="M28.2848,-89.5898C39.3155,-93.6627 54.7096,-99.3466 65.735,-103.4176"/>
</g>
<!-- i2 -->
<g id="node7" class="node">
<title>i2</title>
<ellipse fill="#00ffff" stroke="#000000" cx="209.5" cy="-37.5" rx="14.5" ry="14.5"/>
<text text-anchor="middle" x="209.5" y="-35" font-family="Courier,monospace" font-weight="bold" font-size="10.00" fill="#000000">i2</text>
</g>
<!-- i1&#45;&#45;i2 -->
<g id="edge6" class="edge">
<title>i1&#45;&#45;i2</title>
<path fill="none" stroke="#000000" stroke-dasharray="5,2" d="M158.2848,-56.4102C169.3155,-52.3373 184.7096,-46.6534 195.735,-42.5824"/>
</g>
<!-- v2 -->
<g id="node5" class="node">
<title>v2</title>
<ellipse fill="#ffff00" stroke="#000000" cx="79.5" cy="-61.5" rx="14.5" ry="14.5"/>
<text text-anchor="middle" x="79.5" y="-59" font-family="Courier,monospace" font-weight="bold" font-size="10.00" fill="#000000">v2</text>
</g>
<!-- v2&#45;&#45;i1 -->
<g id="edge4" class="edge">
<title>v2&#45;&#45;i1</title>
<path fill="none" stroke="#000000" stroke-dasharray="5,2" d="M94.2495,-61.5C104.8872,-61.5 119.1846,-61.5 129.8089,-61.5"/>
</g>
<!-- v3 -->
<g id="node6" class="node">
<title>v3</title>
<ellipse fill="#ffc0cb" stroke="#000000" cx="79.5" cy="-14.5" rx="14.5" ry="14.5"/>
<text text-anchor="middle" x="79.5" y="-12" font-family="Courier,monospace" font-weight="bold" font-size="10.00" fill="#000000">v3</text>
</g>
<!-- v3&#45;&#45;i1 -->
<g id="edge5" class="edge">
<title>v3&#45;&#45;i1</title>
<path fill="none" stroke="#000000" stroke-dasharray="5,2" d="M91.422,-23.1205C103.1501,-31.6008 120.9517,-44.4727 132.6536,-52.9341"/>
</g>
<!-- i3 -->
<g id="node9" class="node">
<title>i3</title>
<ellipse fill="#00ffff" stroke="#000000" cx="274.5" cy="-37.5" rx="14.5" ry="14.5"/>
<text text-anchor="middle" x="274.5" y="-35" font-family="Courier,monospace" font-weight="bold" font-size="10.00" fill="#000000">i3</text>
</g>
<!-- i2&#45;&#45;i3 -->
<g id="edge8" class="edge">
<title>i2&#45;&#45;i3</title>
<path fill="none" stroke="#000000" d="M224.2495,-37.5C234.8872,-37.5 249.1846,-37.5 259.8089,-37.5"/>
</g>
<!-- v4 -->
<g id="node8" class="node">
<title>v4</title>
<ellipse fill="#00ffff" stroke="#000000" cx="144.5" cy="-14.5" rx="14.5" ry="14.5"/>
<text text-anchor="middle" x="144.5" y="-12" font-family="Courier,monospace" font-weight="bold" font-size="10.00" fill="#000000">v4</text>
</g>
<!-- v4&#45;&#45;i2 -->
<g id="edge7" class="edge">
<title>v4&#45;&#45;i2</title>
<path fill="none" stroke="#000000" d="M158.2848,-19.3777C169.3155,-23.2809 184.7096,-28.728 195.735,-32.6293"/>
</g>
<!-- v5 -->
<g id="node10" class="node">
<title>v5</title>
<ellipse fill="#00ffff" stroke="#000000" cx="339.5" cy="-61.5" rx="14.5" ry="14.5"/>
<text text-anchor="middle" x="339.5" y="-59" font-family="Courier,monospace" font-weight="bold" font-size="10.00" fill="#000000">v5</text>
</g>
<!-- i3&#45;&#45;v5 -->
<g id="edge9" class="edge">
<title>i3&#45;&#45;v5</title>
<path fill="none" stroke="#000000" d="M288.2848,-42.5898C299.3155,-46.6627 314.7096,-52.3466 325.735,-56.4176"/>
</g>
<!-- v6 -->
<g id="node11" class="node">
<title>v6</title>
<ellipse fill="#00ffff" stroke="#000000" cx="339.5" cy="-14.5" rx="14.5" ry="14.5"/>
<text text-anchor="middle" x="339.5" y="-12" font-family="Courier,monospace" font-weight="bold" font-size="10.00" fill="#000000">v6</text>
</g>
<!-- i3&#45;&#45;v6 -->
<g id="edge10" class="edge">
<title>i3&#45;&#45;v6</title>
<path fill="none" stroke="#000000" d="M288.2848,-32.6223C299.3155,-28.7191 314.7096,-23.272 325.735,-19.3707"/>
</g>
</g>
</svg>
