<?xml version="1.0" encoding="UTF-8" standalone="no"?>
<!DOCTYPE svg PUBLIC "-//W3C//DTD SVG 1.1//EN"
 "http://www.w3.org/Graphics/SVG/1.1/DTD/svg11.dtd">
<!-- Generated by graphviz version 2.40.1 (0)
 -->
<!-- Title: G Pages: 1 -->
<svg width="1352pt" height="613pt"
 viewBox="0.00 0.00 1352.30 613.00" xmlns="http://www.w3.org/2000/svg" xmlns:xlink="http://www.w3.org/1999/xlink">
<g id="graph0" class="graph" transform="scale(1 1) rotate(0) translate(4 609)">
<title>G</title>
<polygon fill="#ffffff" stroke="transparent" points="-4,4 -4,-609 1348.3029,-609 1348.3029,4 -4,4"/>
<!-- STATE_D,0,1 -->
<g id="node1" class="node">
<title>STATE_D,0,1</title>
<polygon fill="none" stroke="#000000" points="310.8229,-463.0493 312.8879,-463.1479 314.9315,-463.2953 316.9454,-463.4913 318.9215,-463.7353 320.8518,-464.0266 322.7287,-464.3645 324.5449,-464.7479 326.2934,-465.1759 327.9679,-465.6472 329.5623,-466.1606 331.0709,-466.7147 332.4889,-467.308 333.8117,-467.9388 335.0354,-468.6054 336.1566,-469.3059 337.1725,-470.0385 338.081,-470.8012 338.8805,-471.5918 339.57,-472.4082 340.1489,-473.2481 340.6175,-474.1093 340.9764,-474.9894 341.2267,-475.886 341.3701,-476.7965 341.4086,-477.7186 341.3449,-478.6497 341.1819,-479.5873 340.9228,-480.5287 340.5712,-481.4713 340.1309,-482.4127 339.6061,-483.3503 339.001,-484.2814 338.3199,-485.2035 337.5675,-486.114 336.7483,-487.0106 335.8669,-487.8907 334.9277,-488.7519 333.9354,-489.5918 332.8943,-490.4082 331.8088,-491.1988 330.683,-491.9615 329.5208,-492.6941 328.3261,-493.3946 327.1025,-494.0612 325.8532,-494.692 324.5814,-495.2853 323.29,-495.8394 321.9817,-496.3528 320.6589,-496.8241 319.3236,-497.2521 317.978,-497.6355 316.6237,-497.9734 315.2624,-498.2647 313.8953,-498.5087 312.5238,-498.7047 311.149,-498.8521 309.7719,-498.9507 308.3935,-499 307.0145,-499 305.6361,-498.9507 304.259,-498.8521 302.8842,-498.7047 301.5127,-498.5087 300.1456,-498.2647 298.7843,-497.9734 297.43,-497.6355 296.0844,-497.2521 294.7491,-496.8241 293.4263,-496.3528 292.1179,-495.8394 290.8266,-495.2853 289.5548,-494.692 288.3055,-494.0612 287.0819,-493.3946 285.8872,-492.6941 284.725,-491.9615 283.5992,-491.1988 282.5137,-490.4082 281.4726,-489.5918 280.4803,-488.7519 279.5411,-487.8907 278.6597,-487.0106 277.8405,-486.114 277.0881,-485.2035 276.407,-484.2814 275.8019,-483.3503 275.2771,-482.4127 274.8368,-481.4713 274.4852,-480.5287 274.2261,-479.5873 274.0631,-478.6497 273.9994,-477.7186 274.0379,-476.7965 274.1813,-475.886 274.4316,-474.9894 274.7905,-474.1093 275.2591,-473.2481 275.838,-472.4082 276.5275,-471.5918 277.327,-470.8012 278.2355,-470.0385 279.2514,-469.3059 280.3726,-468.6054 281.5963,-467.9388 282.9191,-467.308 284.337,-466.7147 285.8457,-466.1606 287.4401,-465.6472 289.1146,-465.1759 290.8631,-464.7479 292.6793,-464.3645 294.5562,-464.0266 296.4865,-463.7353 298.4626,-463.4913 300.4765,-463.2953 302.5201,-463.1479 304.5851,-463.0493 306.6629,-463 308.7451,-463 310.8229,-463.0493"/>
<text text-anchor="middle" x="307.704" y="-478.5" font-family="Courier,monospace" font-weight="bold" font-size="10.00" fill="#000000">D,0,1</text>
</g>
<!-- STATE_D,0,2 -->
<g id="node2" class="node">
<title>STATE_D,0,2</title>
<polygon fill="none" stroke="#000000" points="636.8229,-515.0493 638.8879,-515.1479 640.9315,-515.2953 642.9454,-515.4913 644.9215,-515.7353 646.8518,-516.0266 648.7287,-516.3645 650.5449,-516.7479 652.2934,-517.1759 653.9679,-517.6472 655.5623,-518.1606 657.0709,-518.7147 658.4889,-519.308 659.8117,-519.9388 661.0354,-520.6054 662.1566,-521.3059 663.1725,-522.0385 664.081,-522.8012 664.8805,-523.5918 665.57,-524.4082 666.1489,-525.2481 666.6175,-526.1093 666.9764,-526.9894 667.2267,-527.886 667.3701,-528.7965 667.4086,-529.7186 667.3449,-530.6497 667.1819,-531.5873 666.9228,-532.5287 666.5712,-533.4713 666.1309,-534.4127 665.6061,-535.3503 665.001,-536.2814 664.3199,-537.2035 663.5675,-538.114 662.7483,-539.0106 661.8669,-539.8907 660.9277,-540.7519 659.9354,-541.5918 658.8943,-542.4082 657.8088,-543.1988 656.683,-543.9615 655.5208,-544.6941 654.3261,-545.3946 653.1025,-546.0612 651.8532,-546.692 650.5814,-547.2853 649.29,-547.8394 647.9817,-548.3528 646.6589,-548.8241 645.3236,-549.2521 643.978,-549.6355 642.6237,-549.9734 641.2624,-550.2647 639.8953,-550.5087 638.5238,-550.7047 637.149,-550.8521 635.7719,-550.9507 634.3935,-551 633.0145,-551 631.6361,-550.9507 630.259,-550.8521 628.8842,-550.7047 627.5127,-550.5087 626.1456,-550.2647 624.7843,-549.9734 623.43,-549.6355 622.0844,-549.2521 620.7491,-548.8241 619.4263,-548.3528 618.1179,-547.8394 616.8266,-547.2853 615.5548,-546.692 614.3055,-546.0612 613.0819,-545.3946 611.8872,-544.6941 610.725,-543.9615 609.5992,-543.1988 608.5137,-542.4082 607.4726,-541.5918 606.4803,-540.7519 605.5411,-539.8907 604.6597,-539.0106 603.8405,-538.114 603.0881,-537.2035 602.407,-536.2814 601.8019,-535.3503 601.2771,-534.4127 600.8368,-533.4713 600.4852,-532.5287 600.2261,-531.5873 600.0631,-530.6497 599.9994,-529.7186 600.0379,-528.7965 600.1813,-527.886 600.4316,-526.9894 600.7905,-526.1093 601.2591,-525.2481 601.838,-524.4082 602.5275,-523.5918 603.327,-522.8012 604.2355,-522.0385 605.2514,-521.3059 606.3726,-520.6054 607.5963,-519.9388 608.9191,-519.308 610.337,-518.7147 611.8457,-518.1606 613.4401,-517.6472 615.1146,-517.1759 616.8631,-516.7479 618.6793,-516.3645 620.5562,-516.0266 622.4865,-515.7353 624.4626,-515.4913 626.4765,-515.2953 628.5201,-515.1479 630.5851,-515.0493 632.6629,-515 634.7451,-515 636.8229,-515.0493"/>
<text text-anchor="middle" x="633.704" y="-530.5" font-family="Courier,monospace" font-weight="bold" font-size="10.00" fill="#000000">D,0,2</text>
</g>
<!-- STATE_D,0,1&#45;&gt;STATE_D,0,2 -->
<g id="edge1" class="edge">
<title>STATE_D,0,1&#45;&gt;STATE_D,0,2</title>
<path fill="none" stroke="#000000" d="M335.8374,-488.2615C352.5657,-492.3989 374.2509,-497.4496 393.704,-501 461.7015,-513.4103 541.3651,-523.0803 589.6538,-528.41"/>
<polygon fill="#000000" stroke="#000000" points="589.4389,-531.9073 599.7596,-529.5125 590.1982,-524.9486 589.4389,-531.9073"/>
<text text-anchor="middle" x="465.204" y="-525" font-family="Courier,monospace" font-weight="bold" font-size="10.00" fill="#000000">0.49995001499550135</text>
</g>
<!-- STATE_I,1,1 -->
<g id="node8" class="node">
<title>STATE_I,1,1</title>
<polygon fill="none" stroke="#000000" points="636.8229,-410.0493 638.8879,-410.1479 640.9315,-410.2953 642.9454,-410.4913 644.9215,-410.7353 646.8518,-411.0266 648.7287,-411.3645 650.5449,-411.7479 652.2934,-412.1759 653.9679,-412.6472 655.5623,-413.1606 657.0709,-413.7147 658.4889,-414.308 659.8117,-414.9388 661.0354,-415.6054 662.1566,-416.3059 663.1725,-417.0385 664.081,-417.8012 664.8805,-418.5918 665.57,-419.4082 666.1489,-420.2481 666.6175,-421.1093 666.9764,-421.9894 667.2267,-422.886 667.3701,-423.7965 667.4086,-424.7186 667.3449,-425.6497 667.1819,-426.5873 666.9228,-427.5287 666.5712,-428.4713 666.1309,-429.4127 665.6061,-430.3503 665.001,-431.2814 664.3199,-432.2035 663.5675,-433.114 662.7483,-434.0106 661.8669,-434.8907 660.9277,-435.7519 659.9354,-436.5918 658.8943,-437.4082 657.8088,-438.1988 656.683,-438.9615 655.5208,-439.6941 654.3261,-440.3946 653.1025,-441.0612 651.8532,-441.692 650.5814,-442.2853 649.29,-442.8394 647.9817,-443.3528 646.6589,-443.8241 645.3236,-444.2521 643.978,-444.6355 642.6237,-444.9734 641.2624,-445.2647 639.8953,-445.5087 638.5238,-445.7047 637.149,-445.8521 635.7719,-445.9507 634.3935,-446 633.0145,-446 631.6361,-445.9507 630.259,-445.8521 628.8842,-445.7047 627.5127,-445.5087 626.1456,-445.2647 624.7843,-444.9734 623.43,-444.6355 622.0844,-444.2521 620.7491,-443.8241 619.4263,-443.3528 618.1179,-442.8394 616.8266,-442.2853 615.5548,-441.692 614.3055,-441.0612 613.0819,-440.3946 611.8872,-439.6941 610.725,-438.9615 609.5992,-438.1988 608.5137,-437.4082 607.4726,-436.5918 606.4803,-435.7519 605.5411,-434.8907 604.6597,-434.0106 603.8405,-433.114 603.0881,-432.2035 602.407,-431.2814 601.8019,-430.3503 601.2771,-429.4127 600.8368,-428.4713 600.4852,-427.5287 600.2261,-426.5873 600.0631,-425.6497 599.9994,-424.7186 600.0379,-423.7965 600.1813,-422.886 600.4316,-421.9894 600.7905,-421.1093 601.2591,-420.2481 601.838,-419.4082 602.5275,-418.5918 603.327,-417.8012 604.2355,-417.0385 605.2514,-416.3059 606.3726,-415.6054 607.5963,-414.9388 608.9191,-414.308 610.337,-413.7147 611.8457,-413.1606 613.4401,-412.6472 615.1146,-412.1759 616.8631,-411.7479 618.6793,-411.3645 620.5562,-411.0266 622.4865,-410.7353 624.4626,-410.4913 626.4765,-410.2953 628.5201,-410.1479 630.5851,-410.0493 632.6629,-410 634.7451,-410 636.8229,-410.0493"/>
<text text-anchor="middle" x="633.704" y="-425.5" font-family="Courier,monospace" font-weight="bold" font-size="10.00" fill="#000000">I,1,1</text>
</g>
<!-- STATE_D,0,1&#45;&gt;STATE_I,1,1 -->
<g id="edge2" class="edge">
<title>STATE_D,0,1&#45;&gt;STATE_I,1,1</title>
<path fill="none" stroke="#000000" d="M341.3639,-475.5277C401.7717,-465.7068 528.3253,-445.1321 593.3064,-434.5677"/>
<polygon fill="#000000" stroke="#000000" points="594.2557,-437.9594 603.5645,-432.9 593.1324,-431.0501 594.2557,-437.9594"/>
<text text-anchor="middle" x="465.204" y="-469" font-family="Courier,monospace" font-weight="bold" font-size="10.00" fill="#000000">0.49995001499550135</text>
</g>
<!-- STATE_M,1,2 -->
<g id="node14" class="node">
<title>STATE_M,1,2</title>
<polygon fill="none" stroke="#000000" points="943.6749,-569.0493 945.7399,-569.1479 947.7835,-569.2953 949.7974,-569.4913 951.7735,-569.7353 953.7038,-570.0266 955.5807,-570.3645 957.3969,-570.7479 959.1454,-571.1759 960.8199,-571.6472 962.4143,-572.1606 963.9229,-572.7147 965.3409,-573.308 966.6637,-573.9388 967.8874,-574.6054 969.0086,-575.3059 970.0245,-576.0385 970.933,-576.8012 971.7325,-577.5918 972.422,-578.4082 973.0009,-579.2481 973.4695,-580.1093 973.8284,-580.9894 974.0787,-581.886 974.2221,-582.7965 974.2606,-583.7186 974.1969,-584.6497 974.0339,-585.5873 973.7748,-586.5287 973.4232,-587.4713 972.9829,-588.4127 972.4581,-589.3503 971.853,-590.2814 971.1719,-591.2035 970.4195,-592.114 969.6003,-593.0106 968.7189,-593.8907 967.7797,-594.7519 966.7874,-595.5918 965.7463,-596.4082 964.6608,-597.1988 963.535,-597.9615 962.3728,-598.6941 961.1781,-599.3946 959.9545,-600.0612 958.7052,-600.692 957.4334,-601.2853 956.142,-601.8394 954.8337,-602.3528 953.5109,-602.8241 952.1756,-603.2521 950.83,-603.6355 949.4757,-603.9734 948.1144,-604.2647 946.7473,-604.5087 945.3758,-604.7047 944.001,-604.8521 942.6239,-604.9507 941.2455,-605 939.8665,-605 938.4881,-604.9507 937.111,-604.8521 935.7362,-604.7047 934.3647,-604.5087 932.9976,-604.2647 931.6363,-603.9734 930.282,-603.6355 928.9364,-603.2521 927.6011,-602.8241 926.2783,-602.3528 924.9699,-601.8394 923.6786,-601.2853 922.4068,-600.692 921.1575,-600.0612 919.9339,-599.3946 918.7392,-598.6941 917.577,-597.9615 916.4512,-597.1988 915.3657,-596.4082 914.3246,-595.5918 913.3323,-594.7519 912.3931,-593.8907 911.5117,-593.0106 910.6925,-592.114 909.9401,-591.2035 909.259,-590.2814 908.6539,-589.3503 908.1291,-588.4127 907.6888,-587.4713 907.3372,-586.5287 907.0781,-585.5873 906.915,-584.6497 906.8514,-583.7186 906.8899,-582.7965 907.0333,-581.886 907.2836,-580.9894 907.6425,-580.1093 908.1111,-579.2481 908.69,-578.4082 909.3795,-577.5918 910.179,-576.8012 911.0875,-576.0385 912.1034,-575.3059 913.2246,-574.6054 914.4483,-573.9388 915.7711,-573.308 917.189,-572.7147 918.6977,-572.1606 920.2921,-571.6472 921.9666,-571.1759 923.7151,-570.7479 925.5313,-570.3645 927.4082,-570.0266 929.3385,-569.7353 931.3146,-569.4913 933.3285,-569.2953 935.3721,-569.1479 937.4371,-569.0493 939.5149,-569 941.5971,-569 943.6749,-569.0493"/>
<text text-anchor="middle" x="940.556" y="-584.5" font-family="Courier,monospace" font-weight="bold" font-size="10.00" fill="#000000">M,1,2</text>
</g>
<!-- STATE_D,0,1&#45;&gt;STATE_M,1,2 -->
<g id="edge3" class="edge">
<title>STATE_D,0,1&#45;&gt;STATE_M,1,2</title>
<path fill="none" stroke="#000000" d="M324.91,-495.4824C341.443,-508.5649 367.6868,-527.2206 393.704,-537 571.7897,-603.9394 804.5319,-596.8997 898.5019,-590.5418"/>
<polygon fill="#000000" stroke="#000000" points="899.0106,-594.0146 908.7372,-589.8141 898.5141,-587.0322 899.0106,-594.0146"/>
<text text-anchor="middle" x="633.704" y="-595" font-family="Courier,monospace" font-weight="bold" font-size="10.00" fill="#000000">9.997000899730082e&#45;05</text>
</g>
<!-- STATE_I,1,2 -->
<g id="node9" class="node">
<title>STATE_I,1,2</title>
<polygon fill="none" stroke="#000000" points="943.6749,-515.0493 945.7399,-515.1479 947.7835,-515.2953 949.7974,-515.4913 951.7735,-515.7353 953.7038,-516.0266 955.5807,-516.3645 957.3969,-516.7479 959.1454,-517.1759 960.8199,-517.6472 962.4143,-518.1606 963.9229,-518.7147 965.3409,-519.308 966.6637,-519.9388 967.8874,-520.6054 969.0086,-521.3059 970.0245,-522.0385 970.933,-522.8012 971.7325,-523.5918 972.422,-524.4082 973.0009,-525.2481 973.4695,-526.1093 973.8284,-526.9894 974.0787,-527.886 974.2221,-528.7965 974.2606,-529.7186 974.1969,-530.6497 974.0339,-531.5873 973.7748,-532.5287 973.4232,-533.4713 972.9829,-534.4127 972.4581,-535.3503 971.853,-536.2814 971.1719,-537.2035 970.4195,-538.114 969.6003,-539.0106 968.7189,-539.8907 967.7797,-540.7519 966.7874,-541.5918 965.7463,-542.4082 964.6608,-543.1988 963.535,-543.9615 962.3728,-544.6941 961.1781,-545.3946 959.9545,-546.0612 958.7052,-546.692 957.4334,-547.2853 956.142,-547.8394 954.8337,-548.3528 953.5109,-548.8241 952.1756,-549.2521 950.83,-549.6355 949.4757,-549.9734 948.1144,-550.2647 946.7473,-550.5087 945.3758,-550.7047 944.001,-550.8521 942.6239,-550.9507 941.2455,-551 939.8665,-551 938.4881,-550.9507 937.111,-550.8521 935.7362,-550.7047 934.3647,-550.5087 932.9976,-550.2647 931.6363,-549.9734 930.282,-549.6355 928.9364,-549.2521 927.6011,-548.8241 926.2783,-548.3528 924.9699,-547.8394 923.6786,-547.2853 922.4068,-546.692 921.1575,-546.0612 919.9339,-545.3946 918.7392,-544.6941 917.577,-543.9615 916.4512,-543.1988 915.3657,-542.4082 914.3246,-541.5918 913.3323,-540.7519 912.3931,-539.8907 911.5117,-539.0106 910.6925,-538.114 909.9401,-537.2035 909.259,-536.2814 908.6539,-535.3503 908.1291,-534.4127 907.6888,-533.4713 907.3372,-532.5287 907.0781,-531.5873 906.915,-530.6497 906.8514,-529.7186 906.8899,-528.7965 907.0333,-527.886 907.2836,-526.9894 907.6425,-526.1093 908.1111,-525.2481 908.69,-524.4082 909.3795,-523.5918 910.179,-522.8012 911.0875,-522.0385 912.1034,-521.3059 913.2246,-520.6054 914.4483,-519.9388 915.7711,-519.308 917.189,-518.7147 918.6977,-518.1606 920.2921,-517.6472 921.9666,-517.1759 923.7151,-516.7479 925.5313,-516.3645 927.4082,-516.0266 929.3385,-515.7353 931.3146,-515.4913 933.3285,-515.2953 935.3721,-515.1479 937.4371,-515.0493 939.5149,-515 941.5971,-515 943.6749,-515.0493"/>
<text text-anchor="middle" x="940.556" y="-530.5" font-family="Courier,monospace" font-weight="bold" font-size="10.00" fill="#000000">I,1,2</text>
</g>
<!-- STATE_D,0,2&#45;&gt;STATE_I,1,2 -->
<g id="edge4" class="edge">
<title>STATE_D,0,2&#45;&gt;STATE_I,1,2</title>
<path fill="none" stroke="#000000" d="M666.8341,-533C722.5026,-533 834.7944,-533 896.8534,-533"/>
<polygon fill="#000000" stroke="#000000" points="897.099,-536.5001 907.099,-533 897.0989,-529.5001 897.099,-536.5001"/>
<text text-anchor="middle" x="809.704" y="-536" font-family="Courier,monospace" font-weight="bold" font-size="10.00" fill="#000000">1.0</text>
</g>
<!-- STATE_D,1,1 -->
<g id="node3" class="node">
<title>STATE_D,1,1</title>
<polygon fill="none" stroke="#000000" points="636.8229,-215.0493 638.8879,-215.1479 640.9315,-215.2953 642.9454,-215.4913 644.9215,-215.7353 646.8518,-216.0266 648.7287,-216.3645 650.5449,-216.7479 652.2934,-217.1759 653.9679,-217.6472 655.5623,-218.1606 657.0709,-218.7147 658.4889,-219.308 659.8117,-219.9388 661.0354,-220.6054 662.1566,-221.3059 663.1725,-222.0385 664.081,-222.8012 664.8805,-223.5918 665.57,-224.4082 666.1489,-225.2481 666.6175,-226.1093 666.9764,-226.9894 667.2267,-227.886 667.3701,-228.7965 667.4086,-229.7186 667.3449,-230.6497 667.1819,-231.5873 666.9228,-232.5287 666.5712,-233.4713 666.1309,-234.4127 665.6061,-235.3503 665.001,-236.2814 664.3199,-237.2035 663.5675,-238.114 662.7483,-239.0106 661.8669,-239.8907 660.9277,-240.7519 659.9354,-241.5918 658.8943,-242.4082 657.8088,-243.1988 656.683,-243.9615 655.5208,-244.6941 654.3261,-245.3946 653.1025,-246.0612 651.8532,-246.692 650.5814,-247.2853 649.29,-247.8394 647.9817,-248.3528 646.6589,-248.8241 645.3236,-249.2521 643.978,-249.6355 642.6237,-249.9734 641.2624,-250.2647 639.8953,-250.5087 638.5238,-250.7047 637.149,-250.8521 635.7719,-250.9507 634.3935,-251 633.0145,-251 631.6361,-250.9507 630.259,-250.8521 628.8842,-250.7047 627.5127,-250.5087 626.1456,-250.2647 624.7843,-249.9734 623.43,-249.6355 622.0844,-249.2521 620.7491,-248.8241 619.4263,-248.3528 618.1179,-247.8394 616.8266,-247.2853 615.5548,-246.692 614.3055,-246.0612 613.0819,-245.3946 611.8872,-244.6941 610.725,-243.9615 609.5992,-243.1988 608.5137,-242.4082 607.4726,-241.5918 606.4803,-240.7519 605.5411,-239.8907 604.6597,-239.0106 603.8405,-238.114 603.0881,-237.2035 602.407,-236.2814 601.8019,-235.3503 601.2771,-234.4127 600.8368,-233.4713 600.4852,-232.5287 600.2261,-231.5873 600.0631,-230.6497 599.9994,-229.7186 600.0379,-228.7965 600.1813,-227.886 600.4316,-226.9894 600.7905,-226.1093 601.2591,-225.2481 601.838,-224.4082 602.5275,-223.5918 603.327,-222.8012 604.2355,-222.0385 605.2514,-221.3059 606.3726,-220.6054 607.5963,-219.9388 608.9191,-219.308 610.337,-218.7147 611.8457,-218.1606 613.4401,-217.6472 615.1146,-217.1759 616.8631,-216.7479 618.6793,-216.3645 620.5562,-216.0266 622.4865,-215.7353 624.4626,-215.4913 626.4765,-215.2953 628.5201,-215.1479 630.5851,-215.0493 632.6629,-215 634.7451,-215 636.8229,-215.0493"/>
<text text-anchor="middle" x="633.704" y="-230.5" font-family="Courier,monospace" font-weight="bold" font-size="10.00" fill="#000000">D,1,1</text>
</g>
<!-- STATE_D,1,2 -->
<g id="node4" class="node">
<title>STATE_D,1,2</title>
<polygon fill="none" stroke="#000000" points="943.6749,-259.0493 945.7399,-259.1479 947.7835,-259.2953 949.7974,-259.4913 951.7735,-259.7353 953.7038,-260.0266 955.5807,-260.3645 957.3969,-260.7479 959.1454,-261.1759 960.8199,-261.6472 962.4143,-262.1606 963.9229,-262.7147 965.3409,-263.308 966.6637,-263.9388 967.8874,-264.6054 969.0086,-265.3059 970.0245,-266.0385 970.933,-266.8012 971.7325,-267.5918 972.422,-268.4082 973.0009,-269.2481 973.4695,-270.1093 973.8284,-270.9894 974.0787,-271.886 974.2221,-272.7965 974.2606,-273.7186 974.1969,-274.6497 974.0339,-275.5873 973.7748,-276.5287 973.4232,-277.4713 972.9829,-278.4127 972.4581,-279.3503 971.853,-280.2814 971.1719,-281.2035 970.4195,-282.114 969.6003,-283.0106 968.7189,-283.8907 967.7797,-284.7519 966.7874,-285.5918 965.7463,-286.4082 964.6608,-287.1988 963.535,-287.9615 962.3728,-288.6941 961.1781,-289.3946 959.9545,-290.0612 958.7052,-290.692 957.4334,-291.2853 956.142,-291.8394 954.8337,-292.3528 953.5109,-292.8241 952.1756,-293.2521 950.83,-293.6355 949.4757,-293.9734 948.1144,-294.2647 946.7473,-294.5087 945.3758,-294.7047 944.001,-294.8521 942.6239,-294.9507 941.2455,-295 939.8665,-295 938.4881,-294.9507 937.111,-294.8521 935.7362,-294.7047 934.3647,-294.5087 932.9976,-294.2647 931.6363,-293.9734 930.282,-293.6355 928.9364,-293.2521 927.6011,-292.8241 926.2783,-292.3528 924.9699,-291.8394 923.6786,-291.2853 922.4068,-290.692 921.1575,-290.0612 919.9339,-289.3946 918.7392,-288.6941 917.577,-287.9615 916.4512,-287.1988 915.3657,-286.4082 914.3246,-285.5918 913.3323,-284.7519 912.3931,-283.8907 911.5117,-283.0106 910.6925,-282.114 909.9401,-281.2035 909.259,-280.2814 908.6539,-279.3503 908.1291,-278.4127 907.6888,-277.4713 907.3372,-276.5287 907.0781,-275.5873 906.915,-274.6497 906.8514,-273.7186 906.8899,-272.7965 907.0333,-271.886 907.2836,-270.9894 907.6425,-270.1093 908.1111,-269.2481 908.69,-268.4082 909.3795,-267.5918 910.179,-266.8012 911.0875,-266.0385 912.1034,-265.3059 913.2246,-264.6054 914.4483,-263.9388 915.7711,-263.308 917.189,-262.7147 918.6977,-262.1606 920.2921,-261.6472 921.9666,-261.1759 923.7151,-260.7479 925.5313,-260.3645 927.4082,-260.0266 929.3385,-259.7353 931.3146,-259.4913 933.3285,-259.2953 935.3721,-259.1479 937.4371,-259.0493 939.5149,-259 941.5971,-259 943.6749,-259.0493"/>
<text text-anchor="middle" x="940.556" y="-274.5" font-family="Courier,monospace" font-weight="bold" font-size="10.00" fill="#000000">D,1,2</text>
</g>
<!-- STATE_D,1,1&#45;&gt;STATE_D,1,2 -->
<g id="edge5" class="edge">
<title>STATE_D,1,1&#45;&gt;STATE_D,1,2</title>
<path fill="none" stroke="#000000" d="M666.732,-226.2403C716.564,-217.5429 813.172,-206.5884 888.704,-234 899.814,-238.032 910.2331,-245.582 918.7754,-253.2439"/>
<polygon fill="#000000" stroke="#000000" points="916.414,-255.8286 926.0586,-260.2142 921.2539,-250.7714 916.414,-255.8286"/>
<text text-anchor="middle" x="809.704" y="-237" font-family="Courier,monospace" font-weight="bold" font-size="10.00" fill="#000000">9.997000899730082e&#45;05</text>
</g>
<!-- STATE_I,2,1 -->
<g id="node11" class="node">
<title>STATE_I,2,1</title>
<polygon fill="none" stroke="#000000" points="943.6749,-148.0493 945.7399,-148.1479 947.7835,-148.2953 949.7974,-148.4913 951.7735,-148.7353 953.7038,-149.0266 955.5807,-149.3645 957.3969,-149.7479 959.1454,-150.1759 960.8199,-150.6472 962.4143,-151.1606 963.9229,-151.7147 965.3409,-152.308 966.6637,-152.9388 967.8874,-153.6054 969.0086,-154.3059 970.0245,-155.0385 970.933,-155.8012 971.7325,-156.5918 972.422,-157.4082 973.0009,-158.2481 973.4695,-159.1093 973.8284,-159.9894 974.0787,-160.886 974.2221,-161.7965 974.2606,-162.7186 974.1969,-163.6497 974.0339,-164.5873 973.7748,-165.5287 973.4232,-166.4713 972.9829,-167.4127 972.4581,-168.3503 971.853,-169.2814 971.1719,-170.2035 970.4195,-171.114 969.6003,-172.0106 968.7189,-172.8907 967.7797,-173.7519 966.7874,-174.5918 965.7463,-175.4082 964.6608,-176.1988 963.535,-176.9615 962.3728,-177.6941 961.1781,-178.3946 959.9545,-179.0612 958.7052,-179.692 957.4334,-180.2853 956.142,-180.8394 954.8337,-181.3528 953.5109,-181.8241 952.1756,-182.2521 950.83,-182.6355 949.4757,-182.9734 948.1144,-183.2647 946.7473,-183.5087 945.3758,-183.7047 944.001,-183.8521 942.6239,-183.9507 941.2455,-184 939.8665,-184 938.4881,-183.9507 937.111,-183.8521 935.7362,-183.7047 934.3647,-183.5087 932.9976,-183.2647 931.6363,-182.9734 930.282,-182.6355 928.9364,-182.2521 927.6011,-181.8241 926.2783,-181.3528 924.9699,-180.8394 923.6786,-180.2853 922.4068,-179.692 921.1575,-179.0612 919.9339,-178.3946 918.7392,-177.6941 917.577,-176.9615 916.4512,-176.1988 915.3657,-175.4082 914.3246,-174.5918 913.3323,-173.7519 912.3931,-172.8907 911.5117,-172.0106 910.6925,-171.114 909.9401,-170.2035 909.259,-169.2814 908.6539,-168.3503 908.1291,-167.4127 907.6888,-166.4713 907.3372,-165.5287 907.0781,-164.5873 906.915,-163.6497 906.8514,-162.7186 906.8899,-161.7965 907.0333,-160.886 907.2836,-159.9894 907.6425,-159.1093 908.1111,-158.2481 908.69,-157.4082 909.3795,-156.5918 910.179,-155.8012 911.0875,-155.0385 912.1034,-154.3059 913.2246,-153.6054 914.4483,-152.9388 915.7711,-152.308 917.189,-151.7147 918.6977,-151.1606 920.2921,-150.6472 921.9666,-150.1759 923.7151,-149.7479 925.5313,-149.3645 927.4082,-149.0266 929.3385,-148.7353 931.3146,-148.4913 933.3285,-148.2953 935.3721,-148.1479 937.4371,-148.0493 939.5149,-148 941.5971,-148 943.6749,-148.0493"/>
<text text-anchor="middle" x="940.556" y="-163.5" font-family="Courier,monospace" font-weight="bold" font-size="10.00" fill="#000000">I,2,1</text>
</g>
<!-- STATE_D,1,1&#45;&gt;STATE_I,2,1 -->
<g id="edge6" class="edge">
<title>STATE_D,1,1&#45;&gt;STATE_I,2,1</title>
<path fill="none" stroke="#000000" d="M644.1438,-215.3092C659.5483,-191.1666 690.8925,-148.9635 730.704,-132 795.3062,-104.4733 821.4178,-111.907 888.704,-132 897.3039,-134.5681 905.802,-139.0698 913.3525,-143.9732"/>
<polygon fill="#000000" stroke="#000000" points="911.5271,-146.9674 921.7301,-149.8221 915.5343,-141.2278 911.5271,-146.9674"/>
<text text-anchor="middle" x="809.704" y="-135" font-family="Courier,monospace" font-weight="bold" font-size="10.00" fill="#000000">9.997000899730082e&#45;05</text>
</g>
<!-- STATE_M,2,2 -->
<g id="node16" class="node">
<title>STATE_M,2,2</title>
<polygon fill="none" stroke="#000000" points="943.6749,-323.0493 945.7399,-323.1479 947.7835,-323.2953 949.7974,-323.4913 951.7735,-323.7353 953.7038,-324.0266 955.5807,-324.3645 957.3969,-324.7479 959.1454,-325.1759 960.8199,-325.6472 962.4143,-326.1606 963.9229,-326.7147 965.3409,-327.308 966.6637,-327.9388 967.8874,-328.6054 969.0086,-329.3059 970.0245,-330.0385 970.933,-330.8012 971.7325,-331.5918 972.422,-332.4082 973.0009,-333.2481 973.4695,-334.1093 973.8284,-334.9894 974.0787,-335.886 974.2221,-336.7965 974.2606,-337.7186 974.1969,-338.6497 974.0339,-339.5873 973.7748,-340.5287 973.4232,-341.4713 972.9829,-342.4127 972.4581,-343.3503 971.853,-344.2814 971.1719,-345.2035 970.4195,-346.114 969.6003,-347.0106 968.7189,-347.8907 967.7797,-348.7519 966.7874,-349.5918 965.7463,-350.4082 964.6608,-351.1988 963.535,-351.9615 962.3728,-352.6941 961.1781,-353.3946 959.9545,-354.0612 958.7052,-354.692 957.4334,-355.2853 956.142,-355.8394 954.8337,-356.3528 953.5109,-356.8241 952.1756,-357.2521 950.83,-357.6355 949.4757,-357.9734 948.1144,-358.2647 946.7473,-358.5087 945.3758,-358.7047 944.001,-358.8521 942.6239,-358.9507 941.2455,-359 939.8665,-359 938.4881,-358.9507 937.111,-358.8521 935.7362,-358.7047 934.3647,-358.5087 932.9976,-358.2647 931.6363,-357.9734 930.282,-357.6355 928.9364,-357.2521 927.6011,-356.8241 926.2783,-356.3528 924.9699,-355.8394 923.6786,-355.2853 922.4068,-354.692 921.1575,-354.0612 919.9339,-353.3946 918.7392,-352.6941 917.577,-351.9615 916.4512,-351.1988 915.3657,-350.4082 914.3246,-349.5918 913.3323,-348.7519 912.3931,-347.8907 911.5117,-347.0106 910.6925,-346.114 909.9401,-345.2035 909.259,-344.2814 908.6539,-343.3503 908.1291,-342.4127 907.6888,-341.4713 907.3372,-340.5287 907.0781,-339.5873 906.915,-338.6497 906.8514,-337.7186 906.8899,-336.7965 907.0333,-335.886 907.2836,-334.9894 907.6425,-334.1093 908.1111,-333.2481 908.69,-332.4082 909.3795,-331.5918 910.179,-330.8012 911.0875,-330.0385 912.1034,-329.3059 913.2246,-328.6054 914.4483,-327.9388 915.7711,-327.308 917.189,-326.7147 918.6977,-326.1606 920.2921,-325.6472 921.9666,-325.1759 923.7151,-324.7479 925.5313,-324.3645 927.4082,-324.0266 929.3385,-323.7353 931.3146,-323.4913 933.3285,-323.2953 935.3721,-323.1479 937.4371,-323.0493 939.5149,-323 941.5971,-323 943.6749,-323.0493"/>
<text text-anchor="middle" x="940.556" y="-338.5" font-family="Courier,monospace" font-weight="bold" font-size="10.00" fill="#000000">M,2,2</text>
</g>
<!-- STATE_D,1,1&#45;&gt;STATE_M,2,2 -->
<g id="edge7" class="edge">
<title>STATE_D,1,1&#45;&gt;STATE_M,2,2</title>
<path fill="none" stroke="#000000" d="M654.9201,-245.3385C674.0923,-255.9265 703.4089,-270.7451 730.704,-279 798.628,-299.5423 823.1981,-274.712 888.704,-302 898.1191,-305.9221 907.3608,-311.9487 915.3739,-318.1005"/>
<polygon fill="#000000" stroke="#000000" points="913.2633,-320.895 923.2355,-324.4736 917.6714,-315.4573 913.2633,-320.895"/>
<text text-anchor="middle" x="809.704" y="-305" font-family="Courier,monospace" font-weight="bold" font-size="10.00" fill="#000000">0.9998000599820054</text>
</g>
<!-- STATE_I,2,2 -->
<g id="node12" class="node">
<title>STATE_I,2,2</title>
<polygon fill="none" stroke="#000000" points="1070.3789,-280.0493 1072.4439,-280.1479 1074.4875,-280.2953 1076.5014,-280.4913 1078.4775,-280.7353 1080.4078,-281.0266 1082.2847,-281.3645 1084.1009,-281.7479 1085.8494,-282.1759 1087.5239,-282.6472 1089.1183,-283.1606 1090.6269,-283.7147 1092.0449,-284.308 1093.3677,-284.9388 1094.5914,-285.6054 1095.7126,-286.3059 1096.7285,-287.0385 1097.637,-287.8012 1098.4365,-288.5918 1099.126,-289.4082 1099.7049,-290.2481 1100.1735,-291.1093 1100.5324,-291.9894 1100.7827,-292.886 1100.9261,-293.7965 1100.9646,-294.7186 1100.9009,-295.6497 1100.7379,-296.5873 1100.4788,-297.5287 1100.1272,-298.4713 1099.6869,-299.4127 1099.1621,-300.3503 1098.557,-301.2814 1097.8759,-302.2035 1097.1235,-303.114 1096.3043,-304.0106 1095.4229,-304.8907 1094.4837,-305.7519 1093.4914,-306.5918 1092.4503,-307.4082 1091.3648,-308.1988 1090.239,-308.9615 1089.0768,-309.6941 1087.8821,-310.3946 1086.6584,-311.0612 1085.4092,-311.692 1084.1374,-312.2853 1082.846,-312.8394 1081.5377,-313.3528 1080.2149,-313.8241 1078.8796,-314.2521 1077.534,-314.6355 1076.1797,-314.9734 1074.8184,-315.2647 1073.4513,-315.5087 1072.0798,-315.7047 1070.705,-315.8521 1069.3279,-315.9507 1067.9494,-316 1066.5705,-316 1065.1921,-315.9507 1063.815,-315.8521 1062.4402,-315.7047 1061.0687,-315.5087 1059.7016,-315.2647 1058.3403,-314.9734 1056.986,-314.6355 1055.6404,-314.2521 1054.3051,-313.8241 1052.9823,-313.3528 1051.6739,-312.8394 1050.3826,-312.2853 1049.1108,-311.692 1047.8615,-311.0612 1046.6379,-310.3946 1045.4432,-309.6941 1044.281,-308.9615 1043.1552,-308.1988 1042.0697,-307.4082 1041.0286,-306.5918 1040.0363,-305.7519 1039.0971,-304.8907 1038.2157,-304.0106 1037.3965,-303.114 1036.644,-302.2035 1035.963,-301.2814 1035.3579,-300.3503 1034.8331,-299.4127 1034.3928,-298.4713 1034.0412,-297.5287 1033.7821,-296.5873 1033.619,-295.6497 1033.5554,-294.7186 1033.5939,-293.7965 1033.7373,-292.886 1033.9876,-291.9894 1034.3465,-291.1093 1034.8151,-290.2481 1035.394,-289.4082 1036.0835,-288.5918 1036.883,-287.8012 1037.7915,-287.0385 1038.8074,-286.3059 1039.9286,-285.6054 1041.1523,-284.9388 1042.4751,-284.308 1043.893,-283.7147 1045.4017,-283.1606 1046.9961,-282.6472 1048.6706,-282.1759 1050.4191,-281.7479 1052.2353,-281.3645 1054.1122,-281.0266 1056.0425,-280.7353 1058.0186,-280.4913 1060.0325,-280.2953 1062.0761,-280.1479 1064.1411,-280.0493 1066.2189,-280 1068.3011,-280 1070.3789,-280.0493"/>
<text text-anchor="middle" x="1067.26" y="-295.5" font-family="Courier,monospace" font-weight="bold" font-size="10.00" fill="#000000">I,2,2</text>
</g>
<!-- STATE_D,1,2&#45;&gt;STATE_I,2,2 -->
<g id="edge8" class="edge">
<title>STATE_D,1,2&#45;&gt;STATE_I,2,2</title>
<path fill="none" stroke="#000000" d="M970.5831,-281.9767C986.3659,-284.5926 1006.0064,-287.8478 1023.4541,-290.7396"/>
<polygon fill="#000000" stroke="#000000" points="1022.9902,-294.2104 1033.4279,-292.3926 1024.1348,-287.3046 1022.9902,-294.2104"/>
<text text-anchor="middle" x="1003.908" y="-292" font-family="Courier,monospace" font-weight="bold" font-size="10.00" fill="#000000">1.0</text>
</g>
<!-- STATE_D,2,1 -->
<g id="node5" class="node">
<title>STATE_D,2,1</title>
<polygon fill="none" stroke="#000000" points="943.6749,-93.0493 945.7399,-93.1479 947.7835,-93.2953 949.7974,-93.4913 951.7735,-93.7353 953.7038,-94.0266 955.5807,-94.3645 957.3969,-94.7479 959.1454,-95.1759 960.8199,-95.6472 962.4143,-96.1606 963.9229,-96.7147 965.3409,-97.308 966.6637,-97.9388 967.8874,-98.6054 969.0086,-99.3059 970.0245,-100.0385 970.933,-100.8012 971.7325,-101.5918 972.422,-102.4082 973.0009,-103.2481 973.4695,-104.1093 973.8284,-104.9894 974.0787,-105.886 974.2221,-106.7965 974.2606,-107.7186 974.1969,-108.6497 974.0339,-109.5873 973.7748,-110.5287 973.4232,-111.4713 972.9829,-112.4127 972.4581,-113.3503 971.853,-114.2814 971.1719,-115.2035 970.4195,-116.114 969.6003,-117.0106 968.7189,-117.8907 967.7797,-118.7519 966.7874,-119.5918 965.7463,-120.4082 964.6608,-121.1988 963.535,-121.9615 962.3728,-122.6941 961.1781,-123.3946 959.9545,-124.0612 958.7052,-124.692 957.4334,-125.2853 956.142,-125.8394 954.8337,-126.3528 953.5109,-126.8241 952.1756,-127.2521 950.83,-127.6355 949.4757,-127.9734 948.1144,-128.2647 946.7473,-128.5087 945.3758,-128.7047 944.001,-128.8521 942.6239,-128.9507 941.2455,-129 939.8665,-129 938.4881,-128.9507 937.111,-128.8521 935.7362,-128.7047 934.3647,-128.5087 932.9976,-128.2647 931.6363,-127.9734 930.282,-127.6355 928.9364,-127.2521 927.6011,-126.8241 926.2783,-126.3528 924.9699,-125.8394 923.6786,-125.2853 922.4068,-124.692 921.1575,-124.0612 919.9339,-123.3946 918.7392,-122.6941 917.577,-121.9615 916.4512,-121.1988 915.3657,-120.4082 914.3246,-119.5918 913.3323,-118.7519 912.3931,-117.8907 911.5117,-117.0106 910.6925,-116.114 909.9401,-115.2035 909.259,-114.2814 908.6539,-113.3503 908.1291,-112.4127 907.6888,-111.4713 907.3372,-110.5287 907.0781,-109.5873 906.915,-108.6497 906.8514,-107.7186 906.8899,-106.7965 907.0333,-105.886 907.2836,-104.9894 907.6425,-104.1093 908.1111,-103.2481 908.69,-102.4082 909.3795,-101.5918 910.179,-100.8012 911.0875,-100.0385 912.1034,-99.3059 913.2246,-98.6054 914.4483,-97.9388 915.7711,-97.308 917.189,-96.7147 918.6977,-96.1606 920.2921,-95.6472 921.9666,-95.1759 923.7151,-94.7479 925.5313,-94.3645 927.4082,-94.0266 929.3385,-93.7353 931.3146,-93.4913 933.3285,-93.2953 935.3721,-93.1479 937.4371,-93.0493 939.5149,-93 941.5971,-93 943.6749,-93.0493"/>
<text text-anchor="middle" x="940.556" y="-108.5" font-family="Courier,monospace" font-weight="bold" font-size="10.00" fill="#000000">D,2,1</text>
</g>
<!-- STATE_D,2,2 -->
<g id="node6" class="node">
<title>STATE_D,2,2</title>
<polygon fill="none" stroke="#000000" points="1070.3789,-117.0493 1072.4439,-117.1479 1074.4875,-117.2953 1076.5014,-117.4913 1078.4775,-117.7353 1080.4078,-118.0266 1082.2847,-118.3645 1084.1009,-118.7479 1085.8494,-119.1759 1087.5239,-119.6472 1089.1183,-120.1606 1090.6269,-120.7147 1092.0449,-121.308 1093.3677,-121.9388 1094.5914,-122.6054 1095.7126,-123.3059 1096.7285,-124.0385 1097.637,-124.8012 1098.4365,-125.5918 1099.126,-126.4082 1099.7049,-127.2481 1100.1735,-128.1093 1100.5324,-128.9894 1100.7827,-129.886 1100.9261,-130.7965 1100.9646,-131.7186 1100.9009,-132.6497 1100.7379,-133.5873 1100.4788,-134.5287 1100.1272,-135.4713 1099.6869,-136.4127 1099.1621,-137.3503 1098.557,-138.2814 1097.8759,-139.2035 1097.1235,-140.114 1096.3043,-141.0106 1095.4229,-141.8907 1094.4837,-142.7519 1093.4914,-143.5918 1092.4503,-144.4082 1091.3648,-145.1988 1090.239,-145.9615 1089.0768,-146.6941 1087.8821,-147.3946 1086.6584,-148.0612 1085.4092,-148.692 1084.1374,-149.2853 1082.846,-149.8394 1081.5377,-150.3528 1080.2149,-150.8241 1078.8796,-151.2521 1077.534,-151.6355 1076.1797,-151.9734 1074.8184,-152.2647 1073.4513,-152.5087 1072.0798,-152.7047 1070.705,-152.8521 1069.3279,-152.9507 1067.9494,-153 1066.5705,-153 1065.1921,-152.9507 1063.815,-152.8521 1062.4402,-152.7047 1061.0687,-152.5087 1059.7016,-152.2647 1058.3403,-151.9734 1056.986,-151.6355 1055.6404,-151.2521 1054.3051,-150.8241 1052.9823,-150.3528 1051.6739,-149.8394 1050.3826,-149.2853 1049.1108,-148.692 1047.8615,-148.0612 1046.6379,-147.3946 1045.4432,-146.6941 1044.281,-145.9615 1043.1552,-145.1988 1042.0697,-144.4082 1041.0286,-143.5918 1040.0363,-142.7519 1039.0971,-141.8907 1038.2157,-141.0106 1037.3965,-140.114 1036.644,-139.2035 1035.963,-138.2814 1035.3579,-137.3503 1034.8331,-136.4127 1034.3928,-135.4713 1034.0412,-134.5287 1033.7821,-133.5873 1033.619,-132.6497 1033.5554,-131.7186 1033.5939,-130.7965 1033.7373,-129.886 1033.9876,-128.9894 1034.3465,-128.1093 1034.8151,-127.2481 1035.394,-126.4082 1036.0835,-125.5918 1036.883,-124.8012 1037.7915,-124.0385 1038.8074,-123.3059 1039.9286,-122.6054 1041.1523,-121.9388 1042.4751,-121.308 1043.893,-120.7147 1045.4017,-120.1606 1046.9961,-119.6472 1048.6706,-119.1759 1050.4191,-118.7479 1052.2353,-118.3645 1054.1122,-118.0266 1056.0425,-117.7353 1058.0186,-117.4913 1060.0325,-117.2953 1062.0761,-117.1479 1064.1411,-117.0493 1066.2189,-117 1068.3011,-117 1070.3789,-117.0493"/>
<text text-anchor="middle" x="1067.26" y="-132.5" font-family="Courier,monospace" font-weight="bold" font-size="10.00" fill="#000000">D,2,2</text>
</g>
<!-- STATE_D,2,1&#45;&gt;STATE_D,2,2 -->
<g id="edge9" class="edge">
<title>STATE_D,2,1&#45;&gt;STATE_D,2,2</title>
<path fill="none" stroke="#000000" d="M970.2625,-116.6269C986.1599,-119.6382 1006.0394,-123.4037 1023.6554,-126.7405"/>
<polygon fill="#000000" stroke="#000000" points="1023.242,-130.2244 1033.7187,-128.6467 1024.5448,-123.3467 1023.242,-130.2244"/>
<text text-anchor="middle" x="1003.908" y="-129" font-family="Courier,monospace" font-weight="bold" font-size="10.00" fill="#000000">1.0</text>
</g>
<!-- STATE_T,2,2 -->
<g id="node18" class="node">
<title>STATE_T,2,2</title>
<polygon fill="none" stroke="#000000" points="1197.0829,-300.0493 1199.1479,-300.1479 1201.1915,-300.2953 1203.2054,-300.4913 1205.1815,-300.7353 1207.1118,-301.0266 1208.9887,-301.3645 1210.8049,-301.7479 1212.5534,-302.1759 1214.2279,-302.6472 1215.8223,-303.1606 1217.3309,-303.7147 1218.7489,-304.308 1220.0717,-304.9388 1221.2954,-305.6054 1222.4166,-306.3059 1223.4325,-307.0385 1224.341,-307.8012 1225.1405,-308.5918 1225.83,-309.4082 1226.4089,-310.2481 1226.8775,-311.1093 1227.2364,-311.9894 1227.4867,-312.886 1227.6301,-313.7965 1227.6686,-314.7186 1227.6049,-315.6497 1227.4419,-316.5873 1227.1828,-317.5287 1226.8312,-318.4713 1226.3909,-319.4127 1225.8661,-320.3503 1225.261,-321.2814 1224.5799,-322.2035 1223.8275,-323.114 1223.0083,-324.0106 1222.1269,-324.8907 1221.1877,-325.7519 1220.1954,-326.5918 1219.1543,-327.4082 1218.0688,-328.1988 1216.943,-328.9615 1215.7808,-329.6941 1214.5861,-330.3946 1213.3624,-331.0612 1212.1132,-331.692 1210.8414,-332.2853 1209.55,-332.8394 1208.2417,-333.3528 1206.9189,-333.8241 1205.5836,-334.2521 1204.238,-334.6355 1202.8837,-334.9734 1201.5224,-335.2647 1200.1553,-335.5087 1198.7838,-335.7047 1197.409,-335.8521 1196.0319,-335.9507 1194.6534,-336 1193.2745,-336 1191.8961,-335.9507 1190.519,-335.8521 1189.1442,-335.7047 1187.7727,-335.5087 1186.4056,-335.2647 1185.0443,-334.9734 1183.69,-334.6355 1182.3444,-334.2521 1181.0091,-333.8241 1179.6863,-333.3528 1178.3779,-332.8394 1177.0866,-332.2853 1175.8148,-331.692 1174.5655,-331.0612 1173.3419,-330.3946 1172.1472,-329.6941 1170.985,-328.9615 1169.8592,-328.1988 1168.7737,-327.4082 1167.7326,-326.5918 1166.7403,-325.7519 1165.8011,-324.8907 1164.9197,-324.0106 1164.1004,-323.114 1163.348,-322.2035 1162.667,-321.2814 1162.0619,-320.3503 1161.5371,-319.4127 1161.0968,-318.4713 1160.7452,-317.5287 1160.4861,-316.5873 1160.323,-315.6497 1160.2594,-314.7186 1160.2979,-313.7965 1160.4413,-312.886 1160.6916,-311.9894 1161.0505,-311.1093 1161.5191,-310.2481 1162.098,-309.4082 1162.7875,-308.5918 1163.587,-307.8012 1164.4955,-307.0385 1165.5114,-306.3059 1166.6326,-305.6054 1167.8563,-304.9388 1169.1791,-304.308 1170.597,-303.7147 1172.1057,-303.1606 1173.7001,-302.6472 1175.3746,-302.1759 1177.1231,-301.7479 1178.9393,-301.3645 1180.8162,-301.0266 1182.7465,-300.7353 1184.7226,-300.4913 1186.7365,-300.2953 1188.7801,-300.1479 1190.8451,-300.0493 1192.9229,-300 1195.0051,-300 1197.0829,-300.0493"/>
<text text-anchor="middle" x="1193.964" y="-315.5" font-family="Courier,monospace" font-weight="bold" font-size="10.00" fill="#000000">T,2,2</text>
</g>
<!-- STATE_D,2,2&#45;&gt;STATE_T,2,2 -->
<g id="edge10" class="edge">
<title>STATE_D,2,2&#45;&gt;STATE_T,2,2</title>
<path fill="none" stroke="#000000" d="M1083.1566,-150.0445C1089.0869,-156.005 1095.6903,-163.079 1101.112,-170 1132.4728,-210.0333 1162.5813,-261.1081 1179.6271,-291.5917"/>
<polygon fill="#000000" stroke="#000000" points="1176.5757,-293.3063 1184.4847,-300.356 1182.6982,-289.9129 1176.5757,-293.3063"/>
<text text-anchor="middle" x="1130.612" y="-228" font-family="Courier,monospace" font-weight="bold" font-size="10.00" fill="#000000">1.0</text>
</g>
<!-- STATE_I,1,0 -->
<g id="node7" class="node">
<title>STATE_I,1,0</title>
<polygon fill="none" stroke="#000000" points="310.8229,-215.0493 312.8879,-215.1479 314.9315,-215.2953 316.9454,-215.4913 318.9215,-215.7353 320.8518,-216.0266 322.7287,-216.3645 324.5449,-216.7479 326.2934,-217.1759 327.9679,-217.6472 329.5623,-218.1606 331.0709,-218.7147 332.4889,-219.308 333.8117,-219.9388 335.0354,-220.6054 336.1566,-221.3059 337.1725,-222.0385 338.081,-222.8012 338.8805,-223.5918 339.57,-224.4082 340.1489,-225.2481 340.6175,-226.1093 340.9764,-226.9894 341.2267,-227.886 341.3701,-228.7965 341.4086,-229.7186 341.3449,-230.6497 341.1819,-231.5873 340.9228,-232.5287 340.5712,-233.4713 340.1309,-234.4127 339.6061,-235.3503 339.001,-236.2814 338.3199,-237.2035 337.5675,-238.114 336.7483,-239.0106 335.8669,-239.8907 334.9277,-240.7519 333.9354,-241.5918 332.8943,-242.4082 331.8088,-243.1988 330.683,-243.9615 329.5208,-244.6941 328.3261,-245.3946 327.1025,-246.0612 325.8532,-246.692 324.5814,-247.2853 323.29,-247.8394 321.9817,-248.3528 320.6589,-248.8241 319.3236,-249.2521 317.978,-249.6355 316.6237,-249.9734 315.2624,-250.2647 313.8953,-250.5087 312.5238,-250.7047 311.149,-250.8521 309.7719,-250.9507 308.3935,-251 307.0145,-251 305.6361,-250.9507 304.259,-250.8521 302.8842,-250.7047 301.5127,-250.5087 300.1456,-250.2647 298.7843,-249.9734 297.43,-249.6355 296.0844,-249.2521 294.7491,-248.8241 293.4263,-248.3528 292.1179,-247.8394 290.8266,-247.2853 289.5548,-246.692 288.3055,-246.0612 287.0819,-245.3946 285.8872,-244.6941 284.725,-243.9615 283.5992,-243.1988 282.5137,-242.4082 281.4726,-241.5918 280.4803,-240.7519 279.5411,-239.8907 278.6597,-239.0106 277.8405,-238.114 277.0881,-237.2035 276.407,-236.2814 275.8019,-235.3503 275.2771,-234.4127 274.8368,-233.4713 274.4852,-232.5287 274.2261,-231.5873 274.0631,-230.6497 273.9994,-229.7186 274.0379,-228.7965 274.1813,-227.886 274.4316,-226.9894 274.7905,-226.1093 275.2591,-225.2481 275.838,-224.4082 276.5275,-223.5918 277.327,-222.8012 278.2355,-222.0385 279.2514,-221.3059 280.3726,-220.6054 281.5963,-219.9388 282.9191,-219.308 284.337,-218.7147 285.8457,-218.1606 287.4401,-217.6472 289.1146,-217.1759 290.8631,-216.7479 292.6793,-216.3645 294.5562,-216.0266 296.4865,-215.7353 298.4626,-215.4913 300.4765,-215.2953 302.5201,-215.1479 304.5851,-215.0493 306.6629,-215 308.7451,-215 310.8229,-215.0493"/>
<text text-anchor="middle" x="307.704" y="-230.5" font-family="Courier,monospace" font-weight="bold" font-size="10.00" fill="#000000">I,1,0</text>
</g>
<!-- STATE_I,1,0&#45;&gt;STATE_D,1,1 -->
<g id="edge11" class="edge">
<title>STATE_I,1,0&#45;&gt;STATE_D,1,1</title>
<path fill="none" stroke="#000000" d="M340.7566,-233C400.0664,-233 524.5121,-233 590.4949,-233"/>
<polygon fill="#000000" stroke="#000000" points="590.5639,-236.5001 600.5639,-233 590.5638,-229.5001 590.5639,-236.5001"/>
<text text-anchor="middle" x="465.204" y="-236" font-family="Courier,monospace" font-weight="bold" font-size="10.00" fill="#000000">0.5999200239928022</text>
</g>
<!-- STATE_I,2,0 -->
<g id="node10" class="node">
<title>STATE_I,2,0</title>
<polygon fill="none" stroke="#000000" points="636.8229,-79.0493 638.8879,-79.1479 640.9315,-79.2953 642.9454,-79.4913 644.9215,-79.7353 646.8518,-80.0266 648.7287,-80.3645 650.5449,-80.7479 652.2934,-81.1759 653.9679,-81.6472 655.5623,-82.1606 657.0709,-82.7147 658.4889,-83.308 659.8117,-83.9388 661.0354,-84.6054 662.1566,-85.3059 663.1725,-86.0385 664.081,-86.8012 664.8805,-87.5918 665.57,-88.4082 666.1489,-89.2481 666.6175,-90.1093 666.9764,-90.9894 667.2267,-91.886 667.3701,-92.7965 667.4086,-93.7186 667.3449,-94.6497 667.1819,-95.5873 666.9228,-96.5287 666.5712,-97.4713 666.1309,-98.4127 665.6061,-99.3503 665.001,-100.2814 664.3199,-101.2035 663.5675,-102.114 662.7483,-103.0106 661.8669,-103.8907 660.9277,-104.7519 659.9354,-105.5918 658.8943,-106.4082 657.8088,-107.1988 656.683,-107.9615 655.5208,-108.6941 654.3261,-109.3946 653.1025,-110.0612 651.8532,-110.692 650.5814,-111.2853 649.29,-111.8394 647.9817,-112.3528 646.6589,-112.8241 645.3236,-113.2521 643.978,-113.6355 642.6237,-113.9734 641.2624,-114.2647 639.8953,-114.5087 638.5238,-114.7047 637.149,-114.8521 635.7719,-114.9507 634.3935,-115 633.0145,-115 631.6361,-114.9507 630.259,-114.8521 628.8842,-114.7047 627.5127,-114.5087 626.1456,-114.2647 624.7843,-113.9734 623.43,-113.6355 622.0844,-113.2521 620.7491,-112.8241 619.4263,-112.3528 618.1179,-111.8394 616.8266,-111.2853 615.5548,-110.692 614.3055,-110.0612 613.0819,-109.3946 611.8872,-108.6941 610.725,-107.9615 609.5992,-107.1988 608.5137,-106.4082 607.4726,-105.5918 606.4803,-104.7519 605.5411,-103.8907 604.6597,-103.0106 603.8405,-102.114 603.0881,-101.2035 602.407,-100.2814 601.8019,-99.3503 601.2771,-98.4127 600.8368,-97.4713 600.4852,-96.5287 600.2261,-95.5873 600.0631,-94.6497 599.9994,-93.7186 600.0379,-92.7965 600.1813,-91.886 600.4316,-90.9894 600.7905,-90.1093 601.2591,-89.2481 601.838,-88.4082 602.5275,-87.5918 603.327,-86.8012 604.2355,-86.0385 605.2514,-85.3059 606.3726,-84.6054 607.5963,-83.9388 608.9191,-83.308 610.337,-82.7147 611.8457,-82.1606 613.4401,-81.6472 615.1146,-81.1759 616.8631,-80.7479 618.6793,-80.3645 620.5562,-80.0266 622.4865,-79.7353 624.4626,-79.4913 626.4765,-79.2953 628.5201,-79.1479 630.5851,-79.0493 632.6629,-79 634.7451,-79 636.8229,-79.0493"/>
<text text-anchor="middle" x="633.704" y="-94.5" font-family="Courier,monospace" font-weight="bold" font-size="10.00" fill="#000000">I,2,0</text>
</g>
<!-- STATE_I,1,0&#45;&gt;STATE_I,2,0 -->
<g id="edge12" class="edge">
<title>STATE_I,1,0&#45;&gt;STATE_I,2,0</title>
<path fill="none" stroke="#000000" d="M336.0641,-221.1688C396.0338,-196.1508 535.4767,-137.9783 599.9276,-111.0908"/>
<polygon fill="#000000" stroke="#000000" points="601.3581,-114.2864 609.2396,-107.206 598.6629,-107.8261 601.3581,-114.2864"/>
<text text-anchor="middle" x="465.204" y="-200" font-family="Courier,monospace" font-weight="bold" font-size="10.00" fill="#000000">0.39998000599820055</text>
</g>
<!-- STATE_M,2,1 -->
<g id="node15" class="node">
<title>STATE_M,2,1</title>
<polygon fill="none" stroke="#000000" points="943.6749,-.0493 945.7399,-.1479 947.7835,-.2953 949.7974,-.4913 951.7735,-.7353 953.7038,-1.0266 955.5807,-1.3645 957.3969,-1.7479 959.1454,-2.1759 960.8199,-2.6472 962.4143,-3.1606 963.9229,-3.7147 965.3409,-4.308 966.6637,-4.9388 967.8874,-5.6054 969.0086,-6.3059 970.0245,-7.0385 970.933,-7.8012 971.7325,-8.5918 972.422,-9.4082 973.0009,-10.2481 973.4695,-11.1093 973.8284,-11.9894 974.0787,-12.886 974.2221,-13.7965 974.2606,-14.7186 974.1969,-15.6497 974.0339,-16.5873 973.7748,-17.5287 973.4232,-18.4713 972.9829,-19.4127 972.4581,-20.3503 971.853,-21.2814 971.1719,-22.2035 970.4195,-23.114 969.6003,-24.0106 968.7189,-24.8907 967.7797,-25.7519 966.7874,-26.5918 965.7463,-27.4082 964.6608,-28.1988 963.535,-28.9615 962.3728,-29.6941 961.1781,-30.3946 959.9545,-31.0612 958.7052,-31.692 957.4334,-32.2853 956.142,-32.8394 954.8337,-33.3528 953.5109,-33.8241 952.1756,-34.2521 950.83,-34.6355 949.4757,-34.9734 948.1144,-35.2647 946.7473,-35.5087 945.3758,-35.7047 944.001,-35.8521 942.6239,-35.9507 941.2455,-36 939.8665,-36 938.4881,-35.9507 937.111,-35.8521 935.7362,-35.7047 934.3647,-35.5087 932.9976,-35.2647 931.6363,-34.9734 930.282,-34.6355 928.9364,-34.2521 927.6011,-33.8241 926.2783,-33.3528 924.9699,-32.8394 923.6786,-32.2853 922.4068,-31.692 921.1575,-31.0612 919.9339,-30.3946 918.7392,-29.6941 917.577,-28.9615 916.4512,-28.1988 915.3657,-27.4082 914.3246,-26.5918 913.3323,-25.7519 912.3931,-24.8907 911.5117,-24.0106 910.6925,-23.114 909.9401,-22.2035 909.259,-21.2814 908.6539,-20.3503 908.1291,-19.4127 907.6888,-18.4713 907.3372,-17.5287 907.0781,-16.5873 906.915,-15.6497 906.8514,-14.7186 906.8899,-13.7965 907.0333,-12.886 907.2836,-11.9894 907.6425,-11.1093 908.1111,-10.2481 908.69,-9.4082 909.3795,-8.5918 910.179,-7.8012 911.0875,-7.0385 912.1034,-6.3059 913.2246,-5.6054 914.4483,-4.9388 915.7711,-4.308 917.189,-3.7147 918.6977,-3.1606 920.2921,-2.6472 921.9666,-2.1759 923.7151,-1.7479 925.5313,-1.3645 927.4082,-1.0266 929.3385,-.7353 931.3146,-.4913 933.3285,-.2953 935.3721,-.1479 937.4371,-.0493 939.5149,0 941.5971,0 943.6749,-.0493"/>
<text text-anchor="middle" x="940.556" y="-15.5" font-family="Courier,monospace" font-weight="bold" font-size="10.00" fill="#000000">M,2,1</text>
</g>
<!-- STATE_I,1,0&#45;&gt;STATE_M,2,1 -->
<g id="edge13" class="edge">
<title>STATE_I,1,0&#45;&gt;STATE_M,2,1</title>
<path fill="none" stroke="#000000" d="M320.0136,-215.5272C335.3675,-194.714 363.3229,-159.8912 393.704,-137 457.2068,-89.1526 478.2569,-80.859 554.704,-59 675.393,-24.4907 824.8141,-18.4964 897.1993,-17.7895"/>
<polygon fill="#000000" stroke="#000000" points="897.3316,-21.2888 907.3075,-17.7208 897.2839,-14.289 897.3316,-21.2888"/>
<text text-anchor="middle" x="633.704" y="-62" font-family="Courier,monospace" font-weight="bold" font-size="10.00" fill="#000000">9.997000899730082e&#45;05</text>
</g>
<!-- SYMBOL_h -->
<g id="node19" class="node">
<title>SYMBOL_h</title>
<polygon fill="none" stroke="#000000" stroke-dasharray="5,2" points="1069.9425,-469.0493 1071.7186,-469.1479 1073.4763,-469.2953 1075.2084,-469.4913 1076.908,-469.7353 1078.5683,-470.0266 1080.1825,-470.3645 1081.7446,-470.7479 1083.2486,-471.1759 1084.6888,-471.6472 1086.06,-472.1606 1087.3576,-472.7147 1088.5772,-473.308 1089.7149,-473.9388 1090.7674,-474.6054 1091.7317,-475.3059 1092.6055,-476.0385 1093.3869,-476.8012 1094.0746,-477.5918 1094.6675,-478.4082 1095.1655,-479.2481 1095.5685,-480.1093 1095.8772,-480.9894 1096.0925,-481.886 1096.2158,-482.7965 1096.249,-483.7186 1096.1942,-484.6497 1096.0539,-485.5873 1095.8311,-486.5287 1095.5287,-487.4713 1095.15,-488.4127 1094.6986,-489.3503 1094.1781,-490.2814 1093.5924,-491.2035 1092.9453,-492.114 1092.2407,-493.0106 1091.4825,-493.8907 1090.6748,-494.7519 1089.8213,-495.5918 1088.9259,-496.4082 1087.9923,-497.1988 1087.0239,-497.9615 1086.0244,-498.6941 1084.9968,-499.3946 1083.9444,-500.0612 1082.8699,-500.692 1081.7761,-501.2853 1080.6654,-501.8394 1079.5401,-502.3528 1078.4023,-502.8241 1077.2539,-503.2521 1076.0965,-503.6355 1074.9317,-503.9734 1073.7609,-504.2647 1072.5851,-504.5087 1071.4055,-504.7047 1070.223,-504.8521 1069.0386,-504.9507 1067.853,-505 1066.667,-505 1065.4814,-504.9507 1064.297,-504.8521 1063.1145,-504.7047 1061.9349,-504.5087 1060.7591,-504.2647 1059.5883,-503.9734 1058.4235,-503.6355 1057.2661,-503.2521 1056.1177,-502.8241 1054.9799,-502.3528 1053.8546,-501.8394 1052.7439,-501.2853 1051.6501,-500.692 1050.5756,-500.0612 1049.5232,-499.3946 1048.4956,-498.6941 1047.4961,-497.9615 1046.5277,-497.1988 1045.5941,-496.4082 1044.6987,-495.5918 1043.8452,-494.7519 1043.0375,-493.8907 1042.2793,-493.0106 1041.5747,-492.114 1040.9276,-491.2035 1040.3419,-490.2814 1039.8214,-489.3503 1039.37,-488.4127 1038.9913,-487.4713 1038.6889,-486.5287 1038.466,-485.5873 1038.3258,-484.6497 1038.271,-483.7186 1038.3042,-482.7965 1038.4275,-481.886 1038.6428,-480.9894 1038.9515,-480.1093 1039.3545,-479.2481 1039.8525,-478.4082 1040.4454,-477.5918 1041.1331,-476.8012 1041.9145,-476.0385 1042.7883,-475.3059 1043.7526,-474.6054 1044.8051,-473.9388 1045.9428,-473.308 1047.1624,-472.7147 1048.46,-472.1606 1049.8312,-471.6472 1051.2714,-471.1759 1052.7754,-470.7479 1054.3375,-470.3645 1055.9517,-470.0266 1057.612,-469.7353 1059.3116,-469.4913 1061.0437,-469.2953 1062.8014,-469.1479 1064.5775,-469.0493 1066.3646,-469 1068.1554,-469 1069.9425,-469.0493"/>
<text text-anchor="middle" x="1067.26" y="-484.5" font-family="Courier,monospace" font-weight="bold" font-size="10.00" fill="#000000">h</text>
</g>
<!-- STATE_I,1,0&#45;&gt;SYMBOL_h -->
<g id="edge30" class="edge">
<title>STATE_I,1,0&#45;&gt;SYMBOL_h</title>
<path fill="none" stroke="#000000" stroke-dasharray="5,2" d="M324.0078,-247.8274C340.1151,-263.5392 363.9909,-289.919 375.704,-318 389.0532,-350.0034 368.0498,-449.6701 393.704,-473 440.7261,-515.7618 893.4846,-496.0006 1029.0775,-489.0617"/>
<polygon fill="#000000" stroke="#000000" points="1029.576,-492.5406 1039.3814,-488.5276 1029.2136,-485.55 1029.576,-492.5406"/>
<text text-anchor="middle" x="809.704" y="-502" font-family="Courier,monospace" font-weight="bold" font-size="10.00" fill="#000000">1.0</text>
</g>
<!-- STATE_I,1,1&#45;&gt;STATE_D,1,2 -->
<g id="edge14" class="edge">
<title>STATE_I,1,1&#45;&gt;STATE_D,1,2</title>
<path fill="none" stroke="#000000" d="M650.3946,-411.2919C676.8147,-384.9213 725.7967,-336.376 730.704,-334 794.4632,-303.1288 822.6456,-338.5843 888.704,-313 898.2607,-309.2987 907.7545,-303.4977 915.9561,-297.6249"/>
<polygon fill="#000000" stroke="#000000" points="918.1121,-300.3827 923.9838,-291.5638 913.8941,-294.7962 918.1121,-300.3827"/>
<text text-anchor="middle" x="809.704" y="-337" font-family="Courier,monospace" font-weight="bold" font-size="10.00" fill="#000000">9.997000899730082e&#45;05</text>
</g>
<!-- STATE_I,1,1&#45;&gt;STATE_I,2,1 -->
<g id="edge15" class="edge">
<title>STATE_I,1,1&#45;&gt;STATE_I,2,1</title>
<path fill="none" stroke="#000000" d="M655.4632,-412.8797C674.0209,-398.6834 699.6991,-375.6751 712.704,-349 727.1262,-319.4177 707.8444,-225.676 730.704,-202 755.3954,-176.4268 853.7496,-183.4685 888.704,-177 892.9287,-176.2182 897.337,-175.3557 901.7215,-174.4679"/>
<polygon fill="#000000" stroke="#000000" points="902.7295,-177.8335 911.811,-172.3767 901.3088,-170.9792 902.7295,-177.8335"/>
<text text-anchor="middle" x="809.704" y="-205" font-family="Courier,monospace" font-weight="bold" font-size="10.00" fill="#000000">9.997000899730082e&#45;05</text>
</g>
<!-- STATE_I,1,1&#45;&gt;STATE_M,2,2 -->
<g id="edge16" class="edge">
<title>STATE_I,1,1&#45;&gt;STATE_M,2,2</title>
<path fill="none" stroke="#000000" d="M667.3689,-422.1619C716.7939,-413.0685 811.4964,-393.6491 888.704,-366 895.5312,-363.5551 902.654,-360.4876 909.3563,-357.347"/>
<polygon fill="#000000" stroke="#000000" points="911.3302,-360.279 918.7917,-352.7572 908.2681,-353.9842 911.3302,-360.279"/>
<text text-anchor="middle" x="809.704" y="-412" font-family="Courier,monospace" font-weight="bold" font-size="10.00" fill="#000000">0.9998000599820054</text>
</g>
<!-- STATE_I,1,1&#45;&gt;SYMBOL_h -->
<g id="edge31" class="edge">
<title>STATE_I,1,1&#45;&gt;SYMBOL_h</title>
<path fill="none" stroke="#000000" stroke-dasharray="5,2" d="M666.364,-429.4894C727.3317,-432.6603 862.4284,-441.5315 974.408,-462 992.7674,-465.3559 1012.7995,-470.5485 1029.542,-475.3336"/>
<polygon fill="#000000" stroke="#000000" points="1028.9169,-478.7972 1039.4971,-478.2403 1030.8789,-472.0778 1028.9169,-478.7972"/>
<text text-anchor="middle" x="940.556" y="-465" font-family="Courier,monospace" font-weight="bold" font-size="10.00" fill="#000000">1.0</text>
</g>
<!-- STATE_I,1,2&#45;&gt;STATE_I,2,2 -->
<g id="edge17" class="edge">
<title>STATE_I,1,2&#45;&gt;STATE_I,2,2</title>
<path fill="none" stroke="#000000" d="M949.3449,-515.2388C956.2754,-501.1352 966.1206,-480.8819 974.408,-463 1001.5995,-404.3284 996.0707,-382.7983 1033.408,-330 1036.0535,-326.259 1039.1862,-322.6064 1042.4607,-319.1865"/>
<polygon fill="#000000" stroke="#000000" points="1044.9915,-321.6075 1049.7218,-312.1272 1040.112,-316.5885 1044.9915,-321.6075"/>
<text text-anchor="middle" x="1003.908" y="-418" font-family="Courier,monospace" font-weight="bold" font-size="10.00" fill="#000000">1.0</text>
</g>
<!-- STATE_I,1,2&#45;&gt;SYMBOL_h -->
<g id="edge32" class="edge">
<title>STATE_I,1,2&#45;&gt;SYMBOL_h</title>
<path fill="none" stroke="#000000" stroke-dasharray="5,2" d="M970.2625,-522.215C989.5348,-515.2182 1014.6594,-506.0967 1034.509,-498.8903"/>
<polygon fill="#000000" stroke="#000000" points="1035.859,-502.1237 1044.0643,-495.4212 1033.4702,-495.544 1035.859,-502.1237"/>
<text text-anchor="middle" x="1003.908" y="-517" font-family="Courier,monospace" font-weight="bold" font-size="10.00" fill="#000000">1.0</text>
</g>
<!-- STATE_I,2,0&#45;&gt;STATE_D,2,1 -->
<g id="edge18" class="edge">
<title>STATE_I,2,0&#45;&gt;STATE_D,2,1</title>
<path fill="none" stroke="#000000" d="M667.6946,-94.5401C716.7324,-91.5778 810.0748,-88.1369 888.704,-98 892.1227,-98.4288 895.6403,-99.0067 899.1562,-99.6813"/>
<polygon fill="#000000" stroke="#000000" points="898.4644,-103.1125 908.977,-101.7955 899.9376,-96.2693 898.4644,-103.1125"/>
<text text-anchor="middle" x="809.704" y="-101" font-family="Courier,monospace" font-weight="bold" font-size="10.00" fill="#000000">1.0</text>
</g>
<!-- SYMBOL_i -->
<g id="node20" class="node">
<title>SYMBOL_i</title>
<polygon fill="none" stroke="#000000" stroke-dasharray="5,2" points="1196.6465,-174.0493 1198.4226,-174.1479 1200.1803,-174.2953 1201.9124,-174.4913 1203.612,-174.7353 1205.2723,-175.0266 1206.8865,-175.3645 1208.4486,-175.7479 1209.9526,-176.1759 1211.3928,-176.6472 1212.764,-177.1606 1214.0616,-177.7147 1215.2812,-178.308 1216.4189,-178.9388 1217.4714,-179.6054 1218.4357,-180.3059 1219.3095,-181.0385 1220.0909,-181.8012 1220.7786,-182.5918 1221.3715,-183.4082 1221.8695,-184.2481 1222.2725,-185.1093 1222.5812,-185.9894 1222.7965,-186.886 1222.9198,-187.7965 1222.953,-188.7186 1222.8982,-189.6497 1222.7579,-190.5873 1222.5351,-191.5287 1222.2327,-192.4713 1221.854,-193.4127 1221.4026,-194.3503 1220.8821,-195.2814 1220.2964,-196.2035 1219.6493,-197.114 1218.9447,-198.0106 1218.1865,-198.8907 1217.3788,-199.7519 1216.5253,-200.5918 1215.6299,-201.4082 1214.6963,-202.1988 1213.7279,-202.9615 1212.7284,-203.6941 1211.7008,-204.3946 1210.6484,-205.0612 1209.5739,-205.692 1208.4801,-206.2853 1207.3694,-206.8394 1206.2441,-207.3528 1205.1063,-207.8241 1203.9579,-208.2521 1202.8005,-208.6355 1201.6357,-208.9734 1200.4649,-209.2647 1199.2891,-209.5087 1198.1095,-209.7047 1196.927,-209.8521 1195.7426,-209.9507 1194.557,-210 1193.371,-210 1192.1854,-209.9507 1191.001,-209.8521 1189.8185,-209.7047 1188.6389,-209.5087 1187.4631,-209.2647 1186.2923,-208.9734 1185.1275,-208.6355 1183.9701,-208.2521 1182.8217,-207.8241 1181.6839,-207.3528 1180.5586,-206.8394 1179.4479,-206.2853 1178.3541,-205.692 1177.2796,-205.0612 1176.2272,-204.3946 1175.1996,-203.6941 1174.2001,-202.9615 1173.2317,-202.1988 1172.2981,-201.4082 1171.4027,-200.5918 1170.5492,-199.7519 1169.7415,-198.8907 1168.9833,-198.0106 1168.2787,-197.114 1167.6316,-196.2035 1167.0459,-195.2814 1166.5254,-194.3503 1166.074,-193.4127 1165.6953,-192.4713 1165.3929,-191.5287 1165.17,-190.5873 1165.0298,-189.6497 1164.975,-188.7186 1165.0082,-187.7965 1165.1315,-186.886 1165.3468,-185.9894 1165.6555,-185.1093 1166.0585,-184.2481 1166.5565,-183.4082 1167.1494,-182.5918 1167.8371,-181.8012 1168.6185,-181.0385 1169.4923,-180.3059 1170.4566,-179.6054 1171.5091,-178.9388 1172.6468,-178.308 1173.8664,-177.7147 1175.164,-177.1606 1176.5352,-176.6472 1177.9754,-176.1759 1179.4794,-175.7479 1181.0415,-175.3645 1182.6557,-175.0266 1184.316,-174.7353 1186.0156,-174.4913 1187.7477,-174.2953 1189.5054,-174.1479 1191.2815,-174.0493 1193.0686,-174 1194.8594,-174 1196.6465,-174.0493"/>
<text text-anchor="middle" x="1193.964" y="-189.5" font-family="Courier,monospace" font-weight="bold" font-size="10.00" fill="#000000">i</text>
</g>
<!-- STATE_I,2,0&#45;&gt;SYMBOL_i -->
<g id="edge33" class="edge">
<title>STATE_I,2,0&#45;&gt;SYMBOL_i</title>
<path fill="none" stroke="#000000" stroke-dasharray="5,2" d="M664.9047,-87.4148C730.7152,-68.6712 888.1543,-31.623 1015.408,-63 1081.4721,-79.2895 1141.955,-135.2479 1172.7033,-167.8664"/>
<polygon fill="#000000" stroke="#000000" points="1170.5084,-170.6483 1179.8653,-175.6181 1175.6498,-165.898 1170.5084,-170.6483"/>
<text text-anchor="middle" x="1003.908" y="-66" font-family="Courier,monospace" font-weight="bold" font-size="10.00" fill="#000000">1.0</text>
</g>
<!-- STATE_I,2,1&#45;&gt;STATE_D,2,2 -->
<g id="edge19" class="edge">
<title>STATE_I,2,1&#45;&gt;STATE_D,2,2</title>
<path fill="none" stroke="#000000" d="M973.1854,-158.0167C990.2251,-153.8477 1011.1772,-148.7215 1028.9798,-144.3658"/>
<polygon fill="#000000" stroke="#000000" points="1030.1627,-147.6797 1039.0444,-141.9034 1028.4991,-140.8803 1030.1627,-147.6797"/>
<text text-anchor="middle" x="1003.908" y="-157" font-family="Courier,monospace" font-weight="bold" font-size="10.00" fill="#000000">1.0</text>
</g>
<!-- STATE_I,2,1&#45;&gt;SYMBOL_i -->
<g id="edge34" class="edge">
<title>STATE_I,2,1&#45;&gt;SYMBOL_i</title>
<path fill="none" stroke="#000000" stroke-dasharray="5,2" d="M972.1379,-169.2403C1018.4639,-173.9935 1104.7697,-182.8485 1154.9811,-188.0003"/>
<polygon fill="#000000" stroke="#000000" points="1154.8154,-191.5016 1165.1204,-189.0406 1155.5299,-184.5381 1154.8154,-191.5016"/>
<text text-anchor="middle" x="1067.26" y="-186" font-family="Courier,monospace" font-weight="bold" font-size="10.00" fill="#000000">1.0</text>
</g>
<!-- STATE_I,2,2&#45;&gt;STATE_T,2,2 -->
<g id="edge20" class="edge">
<title>STATE_I,2,2&#45;&gt;STATE_T,2,2</title>
<path fill="none" stroke="#000000" d="M1097.6088,-302.7905C1113.3984,-305.2829 1132.9829,-308.3742 1150.3635,-311.1177"/>
<polygon fill="#000000" stroke="#000000" points="1149.8734,-314.5836 1160.2969,-312.6857 1150.9649,-307.6692 1149.8734,-314.5836"/>
<text text-anchor="middle" x="1130.612" y="-312" font-family="Courier,monospace" font-weight="bold" font-size="10.00" fill="#000000">1.0</text>
</g>
<!-- STATE_I,2,2&#45;&gt;SYMBOL_i -->
<g id="edge35" class="edge">
<title>STATE_I,2,2&#45;&gt;SYMBOL_i</title>
<path fill="none" stroke="#000000" stroke-dasharray="5,2" d="M1097.6298,-287.3458C1112.0692,-281.3368 1128.9971,-272.8411 1142.112,-262 1157.171,-249.5518 1170.236,-231.841 1179.4845,-217.3492"/>
<polygon fill="#000000" stroke="#000000" points="1182.4742,-219.1689 1184.7335,-208.8178 1176.5123,-215.5008 1182.4742,-219.1689"/>
<text text-anchor="middle" x="1130.612" y="-280" font-family="Courier,monospace" font-weight="bold" font-size="10.00" fill="#000000">1.0</text>
</g>
<!-- STATE_M,1,1 -->
<g id="node13" class="node">
<title>STATE_M,1,1</title>
<polygon fill="none" stroke="#000000" points="636.8229,-304.0493 638.8879,-304.1479 640.9315,-304.2953 642.9454,-304.4913 644.9215,-304.7353 646.8518,-305.0266 648.7287,-305.3645 650.5449,-305.7479 652.2934,-306.1759 653.9679,-306.6472 655.5623,-307.1606 657.0709,-307.7147 658.4889,-308.308 659.8117,-308.9388 661.0354,-309.6054 662.1566,-310.3059 663.1725,-311.0385 664.081,-311.8012 664.8805,-312.5918 665.57,-313.4082 666.1489,-314.2481 666.6175,-315.1093 666.9764,-315.9894 667.2267,-316.886 667.3701,-317.7965 667.4086,-318.7186 667.3449,-319.6497 667.1819,-320.5873 666.9228,-321.5287 666.5712,-322.4713 666.1309,-323.4127 665.6061,-324.3503 665.001,-325.2814 664.3199,-326.2035 663.5675,-327.114 662.7483,-328.0106 661.8669,-328.8907 660.9277,-329.7519 659.9354,-330.5918 658.8943,-331.4082 657.8088,-332.1988 656.683,-332.9615 655.5208,-333.6941 654.3261,-334.3946 653.1025,-335.0612 651.8532,-335.692 650.5814,-336.2853 649.29,-336.8394 647.9817,-337.3528 646.6589,-337.8241 645.3236,-338.2521 643.978,-338.6355 642.6237,-338.9734 641.2624,-339.2647 639.8953,-339.5087 638.5238,-339.7047 637.149,-339.8521 635.7719,-339.9507 634.3935,-340 633.0145,-340 631.6361,-339.9507 630.259,-339.8521 628.8842,-339.7047 627.5127,-339.5087 626.1456,-339.2647 624.7843,-338.9734 623.43,-338.6355 622.0844,-338.2521 620.7491,-337.8241 619.4263,-337.3528 618.1179,-336.8394 616.8266,-336.2853 615.5548,-335.692 614.3055,-335.0612 613.0819,-334.3946 611.8872,-333.6941 610.725,-332.9615 609.5992,-332.1988 608.5137,-331.4082 607.4726,-330.5918 606.4803,-329.7519 605.5411,-328.8907 604.6597,-328.0106 603.8405,-327.114 603.0881,-326.2035 602.407,-325.2814 601.8019,-324.3503 601.2771,-323.4127 600.8368,-322.4713 600.4852,-321.5287 600.2261,-320.5873 600.0631,-319.6497 599.9994,-318.7186 600.0379,-317.7965 600.1813,-316.886 600.4316,-315.9894 600.7905,-315.1093 601.2591,-314.2481 601.838,-313.4082 602.5275,-312.5918 603.327,-311.8012 604.2355,-311.0385 605.2514,-310.3059 606.3726,-309.6054 607.5963,-308.9388 608.9191,-308.308 610.337,-307.7147 611.8457,-307.1606 613.4401,-306.6472 615.1146,-306.1759 616.8631,-305.7479 618.6793,-305.3645 620.5562,-305.0266 622.4865,-304.7353 624.4626,-304.4913 626.4765,-304.2953 628.5201,-304.1479 630.5851,-304.0493 632.6629,-304 634.7451,-304 636.8229,-304.0493"/>
<text text-anchor="middle" x="633.704" y="-319.5" font-family="Courier,monospace" font-weight="bold" font-size="10.00" fill="#000000">M,1,1</text>
</g>
<!-- STATE_M,1,1&#45;&gt;STATE_D,1,2 -->
<g id="edge21" class="edge">
<title>STATE_M,1,1&#45;&gt;STATE_D,1,2</title>
<path fill="none" stroke="#000000" d="M654.314,-306.408C673.088,-293.2508 702.1609,-275.4096 730.704,-268 786.9522,-253.3984 854.4906,-260.4634 897.4662,-267.8783"/>
<polygon fill="#000000" stroke="#000000" points="897.112,-271.3709 907.5754,-269.7076 898.3585,-264.4828 897.112,-271.3709"/>
<text text-anchor="middle" x="809.704" y="-271" font-family="Courier,monospace" font-weight="bold" font-size="10.00" fill="#000000">9.997000899730082e&#45;05</text>
</g>
<!-- STATE_M,1,1&#45;&gt;STATE_I,2,1 -->
<g id="edge22" class="edge">
<title>STATE_M,1,1&#45;&gt;STATE_I,2,1</title>
<path fill="none" stroke="#000000" d="M659.4627,-308.415C677.2454,-297.6686 699.9116,-280.9923 712.704,-260 734.8392,-223.6762 697.9193,-193.1025 730.704,-166 755.0394,-145.8824 842.6217,-153.0067 896.6503,-159.7061"/>
<polygon fill="#000000" stroke="#000000" points="896.2885,-163.1883 906.6525,-160.9887 897.1789,-156.2451 896.2885,-163.1883"/>
<text text-anchor="middle" x="809.704" y="-169" font-family="Courier,monospace" font-weight="bold" font-size="10.00" fill="#000000">9.997000899730082e&#45;05</text>
</g>
<!-- STATE_M,1,1&#45;&gt;STATE_M,2,2 -->
<g id="edge23" class="edge">
<title>STATE_M,1,1&#45;&gt;STATE_M,2,2</title>
<path fill="none" stroke="#000000" d="M660.114,-330.735C679.4227,-336.6449 706.378,-343.9156 730.704,-347 800.3685,-355.8331 818.5982,-351.0426 888.704,-347 892.2027,-346.7982 895.8276,-346.5205 899.4607,-346.1944"/>
<polygon fill="#000000" stroke="#000000" points="900.0251,-349.6554 909.6236,-345.17 899.323,-342.6906 900.0251,-349.6554"/>
<text text-anchor="middle" x="809.704" y="-354" font-family="Courier,monospace" font-weight="bold" font-size="10.00" fill="#000000">0.9998000599820054</text>
</g>
<!-- STATE_M,1,1&#45;&gt;SYMBOL_h -->
<g id="edge36" class="edge">
<title>STATE_M,1,1&#45;&gt;SYMBOL_h</title>
<path fill="none" stroke="#000000" stroke-dasharray="5,2" d="M656.4009,-333.5485C675.791,-343.1084 704.6081,-356.5987 730.704,-366 836.7262,-404.1953 870.7761,-391.7281 974.408,-436 995.8677,-445.1677 1018.8646,-457.7761 1036.6032,-468.1625"/>
<polygon fill="#000000" stroke="#000000" points="1034.978,-471.2679 1045.364,-473.3613 1038.5504,-465.248 1034.978,-471.2679"/>
<text text-anchor="middle" x="940.556" y="-439" font-family="Courier,monospace" font-weight="bold" font-size="10.00" fill="#000000">1.0</text>
</g>
<!-- STATE_M,1,2&#45;&gt;STATE_I,2,2 -->
<g id="edge24" class="edge">
<title>STATE_M,1,2&#45;&gt;STATE_I,2,2</title>
<path fill="none" stroke="#000000" d="M963.4588,-572.2584C983.1402,-559.0807 1009.2898,-540.1757 1015.408,-529 1058.0529,-451.1037 994.6319,-409.8927 1033.408,-330 1035.4087,-325.8779 1038.1818,-322.013 1041.2876,-318.4934"/>
<polygon fill="#000000" stroke="#000000" points="1043.8241,-320.907 1048.4471,-311.374 1038.8882,-315.9434 1043.8241,-320.907"/>
<text text-anchor="middle" x="1003.908" y="-554" font-family="Courier,monospace" font-weight="bold" font-size="10.00" fill="#000000">1.0</text>
</g>
<!-- STATE_M,1,2&#45;&gt;SYMBOL_h -->
<g id="edge37" class="edge">
<title>STATE_M,1,2&#45;&gt;SYMBOL_h</title>
<path fill="none" stroke="#000000" stroke-dasharray="5,2" d="M974.5101,-582.7733C988.2036,-579.7847 1003.5358,-574.688 1015.408,-566 1033.6163,-552.6754 1047.2258,-530.8668 1055.9226,-513.5356"/>
<polygon fill="#000000" stroke="#000000" points="1059.1095,-514.9838 1060.2467,-504.4502 1052.7888,-511.9755 1059.1095,-514.9838"/>
<text text-anchor="middle" x="1003.908" y="-580" font-family="Courier,monospace" font-weight="bold" font-size="10.00" fill="#000000">1.0</text>
</g>
<!-- STATE_M,2,1&#45;&gt;STATE_D,2,2 -->
<g id="edge25" class="edge">
<title>STATE_M,2,1&#45;&gt;STATE_D,2,2</title>
<path fill="none" stroke="#000000" d="M953.5081,-33.9421C963.6008,-45.9932 978.2355,-62.6797 992.408,-76 1006.7202,-89.4517 1023.8532,-103.1139 1038.1138,-113.8992"/>
<polygon fill="#000000" stroke="#000000" points="1036.0297,-116.7111 1046.1353,-119.8937 1040.2201,-111.1038 1036.0297,-116.7111"/>
<text text-anchor="middle" x="1003.908" y="-98" font-family="Courier,monospace" font-weight="bold" font-size="10.00" fill="#000000">1.0</text>
</g>
<!-- STATE_M,2,1&#45;&gt;SYMBOL_i -->
<g id="edge38" class="edge">
<title>STATE_M,2,1&#45;&gt;SYMBOL_i</title>
<path fill="none" stroke="#000000" stroke-dasharray="5,2" d="M974.208,-13.046C1018.5444,-8.5517 1096.2523,-8.0079 1142.112,-50 1174.632,-79.7774 1186.8004,-131.6301 1191.3234,-163.7577"/>
<polygon fill="#000000" stroke="#000000" points="1187.8698,-164.3476 1192.5825,-173.8366 1194.8158,-163.4798 1187.8698,-164.3476"/>
<text text-anchor="middle" x="1067.26" y="-28" font-family="Courier,monospace" font-weight="bold" font-size="10.00" fill="#000000">1.0</text>
</g>
<!-- STATE_M,2,2&#45;&gt;STATE_T,2,2 -->
<g id="edge26" class="edge">
<title>STATE_M,2,2&#45;&gt;STATE_T,2,2</title>
<path fill="none" stroke="#000000" d="M974.1199,-340.1557C987.0378,-339.6995 1001.9203,-339.0142 1015.408,-338 1071.9041,-333.7518 1085.8153,-330.3673 1142.112,-324 1145.5479,-323.6114 1149.1114,-323.2053 1152.6883,-322.7957"/>
<polygon fill="#000000" stroke="#000000" points="1153.1744,-326.2629 1162.7089,-321.643 1152.3744,-319.3088 1153.1744,-326.2629"/>
<text text-anchor="middle" x="1067.26" y="-339" font-family="Courier,monospace" font-weight="bold" font-size="10.00" fill="#000000">1.0</text>
</g>
<!-- STATE_M,2,2&#45;&gt;SYMBOL_i -->
<g id="edge39" class="edge">
<title>STATE_M,2,2&#45;&gt;SYMBOL_i</title>
<path fill="none" stroke="#000000" stroke-dasharray="5,2" d="M956.3387,-324.299C962.1302,-318.0284 968.6698,-310.7778 974.408,-304 982.7953,-294.0931 982.3973,-289.2631 992.408,-281 1045.8911,-236.8537 1080.0218,-267.8893 1142.112,-237 1153.5024,-231.3334 1164.4083,-222.5695 1173.2537,-214.2761"/>
<polygon fill="#000000" stroke="#000000" points="1175.7767,-216.7039 1180.4569,-207.1988 1170.8708,-211.7107 1175.7767,-216.7039"/>
<text text-anchor="middle" x="1067.26" y="-261" font-family="Courier,monospace" font-weight="bold" font-size="10.00" fill="#000000">1.0</text>
</g>
<!-- STATE_S,0,0 -->
<g id="node17" class="node">
<title>STATE_S,0,0</title>
<polygon fill="none" stroke="#000000" points="36.9709,-304.0493 39.0359,-304.1479 41.0795,-304.2953 43.0934,-304.4913 45.0695,-304.7353 46.9998,-305.0266 48.8767,-305.3645 50.6929,-305.7479 52.4414,-306.1759 54.1159,-306.6472 55.7103,-307.1606 57.219,-307.7147 58.6369,-308.308 59.9597,-308.9388 61.1834,-309.6054 62.3046,-310.3059 63.3205,-311.0385 64.229,-311.8012 65.0285,-312.5918 65.718,-313.4082 66.2969,-314.2481 66.7655,-315.1093 67.1244,-315.9894 67.3747,-316.886 67.5181,-317.7965 67.5566,-318.7186 67.4929,-319.6497 67.3299,-320.5873 67.0708,-321.5287 66.7192,-322.4713 66.2789,-323.4127 65.7541,-324.3503 65.149,-325.2814 64.4679,-326.2035 63.7155,-327.114 62.8963,-328.0106 62.0149,-328.8907 61.0757,-329.7519 60.0834,-330.5918 59.0423,-331.4082 57.9568,-332.1988 56.831,-332.9615 55.6688,-333.6941 54.4741,-334.3946 53.2505,-335.0612 52.0012,-335.692 50.7294,-336.2853 49.438,-336.8394 48.1297,-337.3528 46.8069,-337.8241 45.4716,-338.2521 44.126,-338.6355 42.7717,-338.9734 41.4104,-339.2647 40.0433,-339.5087 38.6718,-339.7047 37.297,-339.8521 35.9199,-339.9507 34.5415,-340 33.1625,-340 31.7841,-339.9507 30.407,-339.8521 29.0322,-339.7047 27.6607,-339.5087 26.2936,-339.2647 24.9323,-338.9734 23.578,-338.6355 22.2324,-338.2521 20.8971,-337.8241 19.5743,-337.3528 18.2659,-336.8394 16.9746,-336.2853 15.7028,-335.692 14.4535,-335.0612 13.2299,-334.3946 12.0352,-333.6941 10.873,-332.9615 9.7472,-332.1988 8.6617,-331.4082 7.6206,-330.5918 6.6283,-329.7519 5.6891,-328.8907 4.8077,-328.0106 3.9885,-327.114 3.2361,-326.2035 2.555,-325.2814 1.9499,-324.3503 1.4251,-323.4127 .9848,-322.4713 .6332,-321.5287 .3741,-320.5873 .2111,-319.6497 .1474,-318.7186 .1859,-317.7965 .3293,-316.886 .5796,-315.9894 .9385,-315.1093 1.4071,-314.2481 1.986,-313.4082 2.6755,-312.5918 3.475,-311.8012 4.3835,-311.0385 5.3994,-310.3059 6.5206,-309.6054 7.7443,-308.9388 9.0671,-308.308 10.485,-307.7147 11.9937,-307.1606 13.5881,-306.6472 15.2626,-306.1759 17.0111,-305.7479 18.8273,-305.3645 20.7042,-305.0266 22.6345,-304.7353 24.6106,-304.4913 26.6245,-304.2953 28.6681,-304.1479 30.7331,-304.0493 32.8109,-304 34.8931,-304 36.9709,-304.0493"/>
<text text-anchor="middle" x="33.852" y="-319.5" font-family="Courier,monospace" font-weight="bold" font-size="10.00" fill="#000000">S,0,0</text>
</g>
<!-- STATE_S,0,0&#45;&gt;STATE_D,0,1 -->
<g id="edge27" class="edge">
<title>STATE_S,0,0&#45;&gt;STATE_D,0,1</title>
<path fill="none" stroke="#000000" d="M54.886,-334.2125C102.2238,-361.697 217.4428,-428.5939 274.5268,-461.7371"/>
<polygon fill="#000000" stroke="#000000" points="273.0927,-464.9516 283.4981,-466.9459 276.6075,-458.898 273.0927,-464.9516"/>
<text text-anchor="middle" x="153.704" y="-432" font-family="Courier,monospace" font-weight="bold" font-size="10.00" fill="#000000">0.3333333333333333</text>
</g>
<!-- STATE_S,0,0&#45;&gt;STATE_I,1,0 -->
<g id="edge28" class="edge">
<title>STATE_S,0,0&#45;&gt;STATE_I,1,0</title>
<path fill="none" stroke="#000000" d="M59.5873,-308.5354C67.8049,-304.5237 77.022,-300.3173 85.704,-297 148.6225,-272.9597 224.5162,-252.921 269.2923,-241.9778"/>
<polygon fill="#000000" stroke="#000000" points="270.2719,-245.3418 279.1685,-239.5885 268.6258,-238.5381 270.2719,-245.3418"/>
<text text-anchor="middle" x="153.704" y="-300" font-family="Courier,monospace" font-weight="bold" font-size="10.00" fill="#000000">0.3333333333333333</text>
</g>
<!-- STATE_S,0,0&#45;&gt;STATE_M,1,1 -->
<g id="edge29" class="edge">
<title>STATE_S,0,0&#45;&gt;STATE_M,1,1</title>
<path fill="none" stroke="#000000" d="M66.9571,-322C168.5386,-322 475.8232,-322 590.1968,-322"/>
<polygon fill="#000000" stroke="#000000" points="590.3324,-325.5001 600.3324,-322 590.3324,-318.5001 590.3324,-325.5001"/>
<text text-anchor="middle" x="307.704" y="-325" font-family="Courier,monospace" font-weight="bold" font-size="10.00" fill="#000000">0.3333333333333333</text>
</g>
<!-- SYMBOL_? -->
<g id="node21" class="node">
<title>SYMBOL_?</title>
<polygon fill="none" stroke="#000000" stroke-dasharray="5,2" points="1318.242,-300.0493 1320.018,-300.1479 1321.7757,-300.2953 1323.5079,-300.4913 1325.2075,-300.7353 1326.8677,-301.0266 1328.482,-301.3645 1330.0441,-301.7479 1331.548,-302.1759 1332.9882,-302.6472 1334.3595,-303.1606 1335.6571,-303.7147 1336.8767,-304.308 1338.0144,-304.9388 1339.0668,-305.6054 1340.0311,-306.3059 1340.905,-307.0385 1341.6864,-307.8012 1342.374,-308.5918 1342.967,-309.4082 1343.4649,-310.2481 1343.868,-311.1093 1344.1766,-311.9894 1344.3919,-312.886 1344.5152,-313.7965 1344.5484,-314.7186 1344.4936,-315.6497 1344.3534,-316.5873 1344.1305,-317.5287 1343.8281,-318.4713 1343.4494,-319.4127 1342.998,-320.3503 1342.4776,-321.2814 1341.8919,-322.2035 1341.2447,-323.114 1340.5401,-324.0106 1339.782,-324.8907 1338.9742,-325.7519 1338.1208,-326.5918 1337.2253,-327.4082 1336.2917,-328.1988 1335.3234,-328.9615 1334.3238,-329.6941 1333.2963,-330.3946 1332.2438,-331.0612 1331.1693,-331.692 1330.0755,-332.2853 1328.9648,-332.8394 1327.8395,-333.3528 1326.7018,-333.8241 1325.5533,-334.2521 1324.396,-334.6355 1323.2312,-334.9734 1322.0603,-335.2647 1320.8845,-335.5087 1319.7049,-335.7047 1318.5225,-335.8521 1317.338,-335.9507 1316.1524,-336 1314.9664,-336 1313.7809,-335.9507 1312.5964,-335.8521 1311.414,-335.7047 1310.2344,-335.5087 1309.0586,-335.2647 1307.8877,-334.9734 1306.7229,-334.6355 1305.5655,-334.2521 1304.4171,-333.8241 1303.2793,-333.3528 1302.1541,-332.8394 1301.0434,-332.2853 1299.9495,-331.692 1298.8751,-331.0612 1297.8226,-330.3946 1296.7951,-329.6941 1295.7955,-328.9615 1294.8272,-328.1988 1293.8935,-327.4082 1292.9981,-326.5918 1292.1446,-325.7519 1291.3369,-324.8907 1290.5788,-324.0106 1289.8742,-323.114 1289.227,-322.2035 1288.6413,-321.2814 1288.1208,-320.3503 1287.6694,-319.4127 1287.2908,-318.4713 1286.9884,-317.5287 1286.7655,-316.5873 1286.6253,-315.6497 1286.5705,-314.7186 1286.6037,-313.7965 1286.727,-312.886 1286.9423,-311.9894 1287.2509,-311.1093 1287.6539,-310.2481 1288.1519,-309.4082 1288.7449,-308.5918 1289.4325,-307.8012 1290.2139,-307.0385 1291.0877,-306.3059 1292.0521,-305.6054 1293.1045,-304.9388 1294.2422,-304.308 1295.4618,-303.7147 1296.7594,-303.1606 1298.1307,-302.6472 1299.5709,-302.1759 1301.0748,-301.7479 1302.6369,-301.3645 1304.2512,-301.0266 1305.9114,-300.7353 1307.611,-300.4913 1309.3431,-300.2953 1311.1008,-300.1479 1312.8769,-300.0493 1314.664,-300 1316.4549,-300 1318.242,-300.0493"/>
<text text-anchor="middle" x="1315.5594" y="-315.5" font-family="Courier,monospace" font-weight="bold" font-size="10.00" fill="#000000">?</text>
</g>
<!-- STATE_T,2,2&#45;&gt;SYMBOL_? -->
<g id="edge40" class="edge">
<title>STATE_T,2,2&#45;&gt;SYMBOL_?</title>
<path fill="none" stroke="#000000" stroke-dasharray="5,2" d="M1227.1905,-318C1242.5338,-318 1260.8494,-318 1276.8171,-318"/>
<polygon fill="#000000" stroke="#000000" points="1276.9163,-321.5001 1286.9162,-318 1276.9162,-314.5001 1276.9163,-321.5001"/>
<text text-anchor="middle" x="1257.316" y="-321" font-family="Courier,monospace" font-weight="bold" font-size="10.00" fill="#000000">1.0</text>
</g>
</g>
</svg>
