<?xml version="1.0" encoding="UTF-8" standalone="no"?>
<!DOCTYPE svg PUBLIC "-//W3C//DTD SVG 1.1//EN"
 "http://www.w3.org/Graphics/SVG/1.1/DTD/svg11.dtd">
<!-- Generated by graphviz version 2.40.1 (0)
 -->
<!-- Title: G Pages: 1 -->
<svg width="250pt" height="214pt"
 viewBox="0.00 0.00 249.60 213.60" xmlns="http://www.w3.org/2000/svg" xmlns:xlink="http://www.w3.org/1999/xlink">
<g id="graph0" class="graph" transform="scale(1 1) rotate(0) translate(4 209.6)">
<title>G</title>
<polygon fill="#ffffff" stroke="transparent" points="-4,4 -4,-209.6 245.6,-209.6 245.6,4 -4,4"/>
<!-- N0 -->
<g id="node1" class="node">
<title>N0</title>
<ellipse fill="#000000" stroke="#000000" cx="1.8" cy="-86.8" rx="1.8" ry="1.8"/>
</g>
<!-- N1 -->
<g id="node2" class="node">
<title>N1</title>
<ellipse fill="#000000" stroke="#000000" cx="49.4" cy="-164.8" rx="1.8" ry="1.8"/>
</g>
<!-- N0&#45;&gt;N1 -->
<g id="edge1" class="edge">
<title>N0&#45;&gt;N1</title>
<path fill="none" stroke="#000000" d="M2.5811,-88.7489C5.0245,-94.763 12.8819,-113.4885 21.6,-127.8 27.6231,-137.6875 35.6733,-148.1666 41.5605,-155.4388"/>
<polygon fill="#000000" stroke="#000000" points="38.9184,-157.7356 48.0039,-163.1859 44.3003,-153.2594 38.9184,-157.7356"/>
<text text-anchor="middle" x="25.6" y="-141.8" font-family="Courier,monospace" font-weight="bold" font-size="10.00" fill="#000000">e</text>
</g>
<!-- N10 -->
<g id="node3" class="node">
<title>N10</title>
<ellipse fill="#000000" stroke="#000000" cx="49.4" cy="-134.8" rx="1.8" ry="1.8"/>
</g>
<!-- N0&#45;&gt;N10 -->
<g id="edge15" class="edge">
<title>N0&#45;&gt;N10</title>
<path fill="none" stroke="#000000" d="M3.3837,-88.397C9.0862,-94.1475 28.85,-114.0773 40.5401,-125.8656"/>
<polygon fill="#000000" stroke="#000000" points="38.2348,-128.5116 47.7615,-133.1477 43.2053,-123.5826 38.2348,-128.5116"/>
<text text-anchor="middle" x="25.6" y="-115.8" font-family="Courier,monospace" font-weight="bold" font-size="10.00" fill="#000000">n</text>
</g>
<!-- N13 -->
<g id="node6" class="node">
<title>N13</title>
<ellipse fill="#000000" stroke="#000000" cx="49.4" cy="-19.8" rx="1.8" ry="1.8"/>
</g>
<!-- N0&#45;&gt;N13 -->
<g id="edge5" class="edge">
<title>N0&#45;&gt;N13</title>
<path fill="none" stroke="#000000" d="M2.2958,-84.967C4.0767,-78.6213 10.6322,-57.1906 21.6,-42.8 26.4128,-36.4852 33.2747,-30.7853 38.9768,-26.6394"/>
<polygon fill="#000000" stroke="#000000" points="41.2992,-29.297 47.6675,-20.8296 37.4088,-23.4776 41.2992,-29.297"/>
<text text-anchor="middle" x="25.6" y="-45.8" font-family="Courier,monospace" font-weight="bold" font-size="10.00" fill="#000000">k</text>
</g>
<!-- N3 -->
<g id="node10" class="node">
<title>N3</title>
<ellipse fill="#000000" stroke="#000000" cx="49.4" cy="-54.8" rx="1.8" ry="1.8"/>
</g>
<!-- N0&#45;&gt;N3 -->
<g id="edge8" class="edge">
<title>N0&#45;&gt;N3</title>
<path fill="none" stroke="#000000" d="M2.6072,-85.1522C4.902,-80.6482 11.9282,-68.0514 21.6,-61.8 26.2632,-58.7859 32.1417,-57.0694 37.2905,-56.092"/>
<polygon fill="#000000" stroke="#000000" points="37.9697,-59.5357 47.4804,-54.8669 37.1341,-52.5857 37.9697,-59.5357"/>
<text text-anchor="middle" x="25.6" y="-64.8" font-family="Courier,monospace" font-weight="bold" font-size="10.00" fill="#000000">b</text>
</g>
<!-- N6 -->
<g id="node13" class="node">
<title>N6</title>
<ellipse fill="#000000" stroke="#000000" cx="144.6" cy="-92.8" rx="1.8" ry="1.8"/>
</g>
<!-- N0&#45;&gt;N6 -->
<g id="edge11" class="edge">
<title>N0&#45;&gt;N6</title>
<path fill="none" stroke="#000000" d="M3.8187,-86.8848C17.8192,-87.4731 100.835,-90.9611 132.4153,-92.288"/>
<polygon fill="#000000" stroke="#000000" points="132.3113,-95.7867 142.4495,-92.7096 132.6052,-88.7928 132.3113,-95.7867"/>
<text text-anchor="middle" x="73.2" y="-92.8" font-family="Courier,monospace" font-weight="bold" font-size="10.00" fill="#000000">a</text>
</g>
<!-- N2 -->
<g id="node9" class="node">
<title>N2</title>
<ellipse fill="#000000" stroke="#000000" cx="97" cy="-203.8" rx="1.8" ry="1.8"/>
</g>
<!-- N1&#45;&gt;N2 -->
<g id="edge2" class="edge">
<title>N1&#45;&gt;N2</title>
<path fill="none" stroke="#000000" d="M50.8242,-166.0571C54.0562,-168.9022 62.2083,-176.0359 69.2,-181.8 75.2194,-186.7625 82.0931,-192.2041 87.4995,-196.4338"/>
<polygon fill="#000000" stroke="#000000" points="85.4315,-199.2592 95.4763,-202.6286 89.7251,-193.7306 85.4315,-199.2592"/>
<text text-anchor="middle" x="73.2" y="-190.8" font-family="Courier,monospace" font-weight="bold" font-size="10.00" fill="#000000">¶</text>
</g>
<!-- N11 -->
<g id="node4" class="node">
<title>N11</title>
<ellipse fill="#000000" stroke="#000000" cx="97" cy="-134.8" rx="1.8" ry="1.8"/>
</g>
<!-- N10&#45;&gt;N11 -->
<g id="edge3" class="edge">
<title>N10&#45;&gt;N11</title>
<path fill="none" stroke="#000000" d="M51.4453,-134.8C57.1341,-134.8 73.4789,-134.8 84.9549,-134.8"/>
<polygon fill="#000000" stroke="#000000" points="85.0153,-138.3001 95.0153,-134.8 85.0153,-131.3001 85.0153,-138.3001"/>
<text text-anchor="middle" x="73.2" y="-137.8" font-family="Courier,monospace" font-weight="bold" font-size="10.00" fill="#000000">a</text>
</g>
<!-- N12 -->
<g id="node5" class="node">
<title>N12</title>
<ellipse fill="#000000" stroke="#000000" cx="144.6" cy="-140.8" rx="1.8" ry="1.8"/>
</g>
<!-- N11&#45;&gt;N12 -->
<g id="edge4" class="edge">
<title>N11&#45;&gt;N12</title>
<path fill="none" stroke="#000000" d="M99.0453,-135.0578C104.7341,-135.7749 121.0789,-137.8352 132.5549,-139.2817"/>
<polygon fill="#000000" stroke="#000000" points="132.2561,-142.7717 142.6153,-140.5498 133.1315,-135.8266 132.2561,-142.7717"/>
<text text-anchor="middle" x="120.8" y="-140.8" font-family="Courier,monospace" font-weight="bold" font-size="10.00" fill="#000000">¶</text>
</g>
<!-- N11&#45;&gt;N6 -->
<g id="edge16" class="edge">
<title>N11&#45;&gt;N6</title>
<path fill="none" stroke="#ff0000" stroke-dasharray="5,2" d="M98.5837,-133.4026C104.2298,-128.4208 123.66,-111.2764 135.3905,-100.926"/>
<polygon fill="#ff0000" stroke="#ff0000" points="137.7788,-103.4864 142.9615,-94.2457 133.1474,-98.2375 137.7788,-103.4864"/>
</g>
<!-- N14 -->
<g id="node7" class="node">
<title>N14</title>
<ellipse fill="#000000" stroke="#000000" cx="97" cy="-6.8" rx="1.8" ry="1.8"/>
</g>
<!-- N13&#45;&gt;N14 -->
<g id="edge6" class="edge">
<title>N13&#45;&gt;N14</title>
<path fill="none" stroke="#000000" d="M51.4453,-19.2414C57.1953,-17.671 73.8316,-13.1275 85.3234,-9.989"/>
<polygon fill="#000000" stroke="#000000" points="86.2907,-13.3531 95.0153,-7.342 84.4464,-6.6004 86.2907,-13.3531"/>
<text text-anchor="middle" x="73.2" y="-17.8" font-family="Courier,monospace" font-weight="bold" font-size="10.00" fill="#000000">l</text>
</g>
<!-- N15 -->
<g id="node8" class="node">
<title>N15</title>
<ellipse fill="#000000" stroke="#000000" cx="144.6" cy="-1.8" rx="1.8" ry="1.8"/>
</g>
<!-- N14&#45;&gt;N15 -->
<g id="edge7" class="edge">
<title>N14&#45;&gt;N15</title>
<path fill="none" stroke="#000000" d="M98.84,-6.3232C102.3191,-5.4452 110.1132,-3.5903 116.8,-2.8 121.8959,-2.1977 127.5505,-1.9231 132.4223,-1.8079"/>
<polygon fill="#000000" stroke="#000000" points="132.5849,-5.3073 142.5682,-1.7599 132.5517,1.6926 132.5849,-5.3073"/>
<text text-anchor="middle" x="120.8" y="-5.8" font-family="Courier,monospace" font-weight="bold" font-size="10.00" fill="#000000">¶</text>
</g>
<!-- N4 -->
<g id="node11" class="node">
<title>N4</title>
<ellipse fill="#000000" stroke="#000000" cx="97" cy="-52.8" rx="1.8" ry="1.8"/>
</g>
<!-- N3&#45;&gt;N4 -->
<g id="edge9" class="edge">
<title>N3&#45;&gt;N4</title>
<path fill="none" stroke="#000000" d="M51.2558,-54.6973C54.7614,-54.5052 62.5978,-54.0855 69.2,-53.8 74.3266,-53.5783 79.9864,-53.3684 84.8538,-53.1987"/>
<polygon fill="#000000" stroke="#000000" points="85.0981,-56.6926 94.9765,-52.8627 84.8659,-49.6964 85.0981,-56.6926"/>
<text text-anchor="middle" x="73.2" y="-56.8" font-family="Courier,monospace" font-weight="bold" font-size="10.00" fill="#000000">a</text>
</g>
<!-- N5 -->
<g id="node12" class="node">
<title>N5</title>
<ellipse fill="#000000" stroke="#000000" cx="144.6" cy="-35.8" rx="1.8" ry="1.8"/>
</g>
<!-- N4&#45;&gt;N5 -->
<g id="edge10" class="edge">
<title>N4&#45;&gt;N5</title>
<path fill="none" stroke="#000000" d="M98.2393,-51.2825C101.0928,-47.92 108.5207,-39.8956 116.8,-36.8 121.7025,-34.967 127.4364,-34.5067 132.4191,-34.5854"/>
<polygon fill="#000000" stroke="#000000" points="132.5029,-38.1056 142.7672,-35.4799 133.1058,-31.1317 132.5029,-38.1056"/>
<text text-anchor="middle" x="120.8" y="-39.8" font-family="Courier,monospace" font-weight="bold" font-size="10.00" fill="#000000">¶</text>
</g>
<!-- N4&#45;&gt;N6 -->
<g id="edge17" class="edge">
<title>N4&#45;&gt;N6</title>
<path fill="none" stroke="#ff0000" stroke-dasharray="5,2" d="M98.5148,-54.0369C102.7117,-57.4676 114.8374,-67.4031 124.8,-75.8 128.2643,-78.7199 132.0434,-81.9526 135.3627,-84.8082"/>
<polygon fill="#ff0000" stroke="#ff0000" points="133.3125,-87.6623 143.1668,-91.5538 137.89,-82.3665 133.3125,-87.6623"/>
</g>
<!-- N7 -->
<g id="node14" class="node">
<title>N7</title>
<ellipse fill="#000000" stroke="#000000" cx="192.2" cy="-92.8" rx="1.8" ry="1.8"/>
</g>
<!-- N6&#45;&gt;N7 -->
<g id="edge12" class="edge">
<title>N6&#45;&gt;N7</title>
<path fill="none" stroke="#000000" d="M146.6453,-92.8C152.3341,-92.8 168.6789,-92.8 180.1549,-92.8"/>
<polygon fill="#000000" stroke="#000000" points="180.2153,-96.3001 190.2153,-92.8 180.2153,-89.3001 180.2153,-96.3001"/>
<text text-anchor="middle" x="168.4" y="-95.8" font-family="Courier,monospace" font-weight="bold" font-size="10.00" fill="#000000">¶</text>
</g>
<!-- N8 -->
<g id="node15" class="node">
<title>N8</title>
<ellipse fill="#000000" stroke="#000000" cx="192.2" cy="-154.8" rx="1.8" ry="1.8"/>
</g>
<!-- N6&#45;&gt;N8 -->
<g id="edge13" class="edge">
<title>N6&#45;&gt;N8</title>
<path fill="none" stroke="#000000" d="M145.7766,-94.3326C151.0809,-101.2415 173.0178,-129.8148 184.738,-145.0806"/>
<polygon fill="#000000" stroke="#000000" points="182.0238,-147.2928 190.8897,-153.0933 187.5762,-143.0299 182.0238,-147.2928"/>
<text text-anchor="middle" x="168.4" y="-129.8" font-family="Courier,monospace" font-weight="bold" font-size="10.00" fill="#000000">n</text>
</g>
<!-- N8&#45;&gt;N10 -->
<g id="edge18" class="edge">
<title>N8&#45;&gt;N10</title>
<path fill="none" stroke="#ff0000" stroke-dasharray="5,2" d="M190.3851,-155.1316C178.9335,-157.1435 115.6799,-167.064 69.2,-149.8 65.1573,-148.2984 61.2517,-145.6811 57.993,-143.0489"/>
<polygon fill="#ff0000" stroke="#ff0000" points="60.3649,-140.475 50.6672,-136.2082 55.5874,-145.5913 60.3649,-140.475"/>
</g>
<!-- N9 -->
<g id="node16" class="node">
<title>N9</title>
<ellipse fill="#000000" stroke="#000000" cx="239.8" cy="-154.8" rx="1.8" ry="1.8"/>
</g>
<!-- N8&#45;&gt;N9 -->
<g id="edge14" class="edge">
<title>N8&#45;&gt;N9</title>
<path fill="none" stroke="#000000" d="M194.2453,-154.8C199.9341,-154.8 216.2789,-154.8 227.7549,-154.8"/>
<polygon fill="#000000" stroke="#000000" points="227.8153,-158.3001 237.8153,-154.8 227.8153,-151.3001 227.8153,-158.3001"/>
<text text-anchor="middle" x="216" y="-157.8" font-family="Courier,monospace" font-weight="bold" font-size="10.00" fill="#000000">¶</text>
</g>
</g>
</svg>
