<?xml version="1.0" encoding="UTF-8" standalone="no"?>
<!DOCTYPE svg PUBLIC "-//W3C//DTD SVG 1.1//EN"
 "http://www.w3.org/Graphics/SVG/1.1/DTD/svg11.dtd">
<!-- Generated by graphviz version 2.40.1 (0)
 -->
<!-- Title: G Pages: 1 -->
<svg width="1510pt" height="986pt"
 viewBox="0.00 0.00 1510.19 986.00" xmlns="http://www.w3.org/2000/svg" xmlns:xlink="http://www.w3.org/1999/xlink">
<g id="graph0" class="graph" transform="scale(1 1) rotate(0) translate(4 982)">
<title>G</title>
<polygon fill="#ffffff" stroke="transparent" points="-4,4 -4,-982 1506.1909,-982 1506.1909,4 -4,4"/>
<!-- STATE_D,0,1 -->
<g id="node1" class="node">
<title>STATE_D,0,1</title>
<polygon fill="none" stroke="#000000" points="313.8229,-706.0493 315.8879,-706.1479 317.9315,-706.2953 319.9454,-706.4913 321.9215,-706.7353 323.8518,-707.0266 325.7287,-707.3645 327.5449,-707.7479 329.2934,-708.1759 330.9679,-708.6472 332.5623,-709.1606 334.0709,-709.7147 335.4889,-710.308 336.8117,-710.9388 338.0354,-711.6054 339.1566,-712.3059 340.1725,-713.0385 341.081,-713.8012 341.8805,-714.5918 342.57,-715.4082 343.1489,-716.2481 343.6175,-717.1093 343.9764,-717.9894 344.2267,-718.886 344.3701,-719.7965 344.4086,-720.7186 344.3449,-721.6497 344.1819,-722.5873 343.9228,-723.5287 343.5712,-724.4713 343.1309,-725.4127 342.6061,-726.3503 342.001,-727.2814 341.3199,-728.2035 340.5675,-729.114 339.7483,-730.0106 338.8669,-730.8907 337.9277,-731.7519 336.9354,-732.5918 335.8943,-733.4082 334.8088,-734.1988 333.683,-734.9615 332.5208,-735.6941 331.3261,-736.3946 330.1025,-737.0612 328.8532,-737.692 327.5814,-738.2853 326.29,-738.8394 324.9817,-739.3528 323.6589,-739.8241 322.3236,-740.2521 320.978,-740.6355 319.6237,-740.9734 318.2624,-741.2647 316.8953,-741.5087 315.5238,-741.7047 314.149,-741.8521 312.7719,-741.9507 311.3935,-742 310.0145,-742 308.6361,-741.9507 307.259,-741.8521 305.8842,-741.7047 304.5127,-741.5087 303.1456,-741.2647 301.7843,-740.9734 300.43,-740.6355 299.0844,-740.2521 297.7491,-739.8241 296.4263,-739.3528 295.1179,-738.8394 293.8266,-738.2853 292.5548,-737.692 291.3055,-737.0612 290.0819,-736.3946 288.8872,-735.6941 287.725,-734.9615 286.5992,-734.1988 285.5137,-733.4082 284.4726,-732.5918 283.4803,-731.7519 282.5411,-730.8907 281.6597,-730.0106 280.8405,-729.114 280.0881,-728.2035 279.407,-727.2814 278.8019,-726.3503 278.2771,-725.4127 277.8368,-724.4713 277.4852,-723.5287 277.2261,-722.5873 277.0631,-721.6497 276.9994,-720.7186 277.0379,-719.7965 277.1813,-718.886 277.4316,-717.9894 277.7905,-717.1093 278.2591,-716.2481 278.838,-715.4082 279.5275,-714.5918 280.327,-713.8012 281.2355,-713.0385 282.2514,-712.3059 283.3726,-711.6054 284.5963,-710.9388 285.9191,-710.308 287.337,-709.7147 288.8457,-709.1606 290.4401,-708.6472 292.1146,-708.1759 293.8631,-707.7479 295.6793,-707.3645 297.5562,-707.0266 299.4865,-706.7353 301.4626,-706.4913 303.4765,-706.2953 305.5201,-706.1479 307.5851,-706.0493 309.6629,-706 311.7451,-706 313.8229,-706.0493"/>
<text text-anchor="middle" x="310.704" y="-721.5" font-family="Courier,monospace" font-weight="bold" font-size="10.00" fill="#000000">D,0,1</text>
</g>
<!-- STATE_I,1,1 -->
<g id="node5" class="node">
<title>STATE_I,1,1</title>
<polygon fill="none" stroke="#000000" points="620.8229,-706.0493 622.8879,-706.1479 624.9315,-706.2953 626.9454,-706.4913 628.9215,-706.7353 630.8518,-707.0266 632.7287,-707.3645 634.5449,-707.7479 636.2934,-708.1759 637.9679,-708.6472 639.5623,-709.1606 641.0709,-709.7147 642.4889,-710.308 643.8117,-710.9388 645.0354,-711.6054 646.1566,-712.3059 647.1725,-713.0385 648.081,-713.8012 648.8805,-714.5918 649.57,-715.4082 650.1489,-716.2481 650.6175,-717.1093 650.9764,-717.9894 651.2267,-718.886 651.3701,-719.7965 651.4086,-720.7186 651.3449,-721.6497 651.1819,-722.5873 650.9228,-723.5287 650.5712,-724.4713 650.1309,-725.4127 649.6061,-726.3503 649.001,-727.2814 648.3199,-728.2035 647.5675,-729.114 646.7483,-730.0106 645.8669,-730.8907 644.9277,-731.7519 643.9354,-732.5918 642.8943,-733.4082 641.8088,-734.1988 640.683,-734.9615 639.5208,-735.6941 638.3261,-736.3946 637.1025,-737.0612 635.8532,-737.692 634.5814,-738.2853 633.29,-738.8394 631.9817,-739.3528 630.6589,-739.8241 629.3236,-740.2521 627.978,-740.6355 626.6237,-740.9734 625.2624,-741.2647 623.8953,-741.5087 622.5238,-741.7047 621.149,-741.8521 619.7719,-741.9507 618.3935,-742 617.0145,-742 615.6361,-741.9507 614.259,-741.8521 612.8842,-741.7047 611.5127,-741.5087 610.1456,-741.2647 608.7843,-740.9734 607.43,-740.6355 606.0844,-740.2521 604.7491,-739.8241 603.4263,-739.3528 602.1179,-738.8394 600.8266,-738.2853 599.5548,-737.692 598.3055,-737.0612 597.0819,-736.3946 595.8872,-735.6941 594.725,-734.9615 593.5992,-734.1988 592.5137,-733.4082 591.4726,-732.5918 590.4803,-731.7519 589.5411,-730.8907 588.6597,-730.0106 587.8405,-729.114 587.0881,-728.2035 586.407,-727.2814 585.8019,-726.3503 585.2771,-725.4127 584.8368,-724.4713 584.4852,-723.5287 584.2261,-722.5873 584.0631,-721.6497 583.9994,-720.7186 584.0379,-719.7965 584.1813,-718.886 584.4316,-717.9894 584.7905,-717.1093 585.2591,-716.2481 585.838,-715.4082 586.5275,-714.5918 587.327,-713.8012 588.2355,-713.0385 589.2514,-712.3059 590.3726,-711.6054 591.5963,-710.9388 592.9191,-710.308 594.337,-709.7147 595.8457,-709.1606 597.4401,-708.6472 599.1146,-708.1759 600.8631,-707.7479 602.6793,-707.3645 604.5562,-707.0266 606.4865,-706.7353 608.4626,-706.4913 610.4765,-706.2953 612.5201,-706.1479 614.5851,-706.0493 616.6629,-706 618.7451,-706 620.8229,-706.0493"/>
<text text-anchor="middle" x="617.704" y="-721.5" font-family="Courier,monospace" font-weight="bold" font-size="10.00" fill="#000000">I,1,1</text>
</g>
<!-- STATE_D,0,1&#45;&gt;STATE_I,1,1 -->
<g id="edge1" class="edge">
<title>STATE_D,0,1&#45;&gt;STATE_I,1,1</title>
<path fill="none" stroke="#000000" d="M343.8501,-724C399.5454,-724 511.8914,-724 573.9804,-724"/>
<polygon fill="#000000" stroke="#000000" points="574.2309,-727.5001 584.2308,-724 574.2308,-720.5001 574.2309,-727.5001"/>
<text text-anchor="middle" x="464.204" y="-727" font-family="Courier,monospace" font-weight="bold" font-size="10.00" fill="#000000">1.0</text>
</g>
<!-- STATE_D,1,1 -->
<g id="node2" class="node">
<title>STATE_D,1,1</title>
<polygon fill="none" stroke="#000000" points="620.8229,-529.0493 622.8879,-529.1479 624.9315,-529.2953 626.9454,-529.4913 628.9215,-529.7353 630.8518,-530.0266 632.7287,-530.3645 634.5449,-530.7479 636.2934,-531.1759 637.9679,-531.6472 639.5623,-532.1606 641.0709,-532.7147 642.4889,-533.308 643.8117,-533.9388 645.0354,-534.6054 646.1566,-535.3059 647.1725,-536.0385 648.081,-536.8012 648.8805,-537.5918 649.57,-538.4082 650.1489,-539.2481 650.6175,-540.1093 650.9764,-540.9894 651.2267,-541.886 651.3701,-542.7965 651.4086,-543.7186 651.3449,-544.6497 651.1819,-545.5873 650.9228,-546.5287 650.5712,-547.4713 650.1309,-548.4127 649.6061,-549.3503 649.001,-550.2814 648.3199,-551.2035 647.5675,-552.114 646.7483,-553.0106 645.8669,-553.8907 644.9277,-554.7519 643.9354,-555.5918 642.8943,-556.4082 641.8088,-557.1988 640.683,-557.9615 639.5208,-558.6941 638.3261,-559.3946 637.1025,-560.0612 635.8532,-560.692 634.5814,-561.2853 633.29,-561.8394 631.9817,-562.3528 630.6589,-562.8241 629.3236,-563.2521 627.978,-563.6355 626.6237,-563.9734 625.2624,-564.2647 623.8953,-564.5087 622.5238,-564.7047 621.149,-564.8521 619.7719,-564.9507 618.3935,-565 617.0145,-565 615.6361,-564.9507 614.259,-564.8521 612.8842,-564.7047 611.5127,-564.5087 610.1456,-564.2647 608.7843,-563.9734 607.43,-563.6355 606.0844,-563.2521 604.7491,-562.8241 603.4263,-562.3528 602.1179,-561.8394 600.8266,-561.2853 599.5548,-560.692 598.3055,-560.0612 597.0819,-559.3946 595.8872,-558.6941 594.725,-557.9615 593.5992,-557.1988 592.5137,-556.4082 591.4726,-555.5918 590.4803,-554.7519 589.5411,-553.8907 588.6597,-553.0106 587.8405,-552.114 587.0881,-551.2035 586.407,-550.2814 585.8019,-549.3503 585.2771,-548.4127 584.8368,-547.4713 584.4852,-546.5287 584.2261,-545.5873 584.0631,-544.6497 583.9994,-543.7186 584.0379,-542.7965 584.1813,-541.886 584.4316,-540.9894 584.7905,-540.1093 585.2591,-539.2481 585.838,-538.4082 586.5275,-537.5918 587.327,-536.8012 588.2355,-536.0385 589.2514,-535.3059 590.3726,-534.6054 591.5963,-533.9388 592.9191,-533.308 594.337,-532.7147 595.8457,-532.1606 597.4401,-531.6472 599.1146,-531.1759 600.8631,-530.7479 602.6793,-530.3645 604.5562,-530.0266 606.4865,-529.7353 608.4626,-529.4913 610.4765,-529.2953 612.5201,-529.1479 614.5851,-529.0493 616.6629,-529 618.7451,-529 620.8229,-529.0493"/>
<text text-anchor="middle" x="617.704" y="-544.5" font-family="Courier,monospace" font-weight="bold" font-size="10.00" fill="#000000">D,1,1</text>
</g>
<!-- STATE_I,2,1 -->
<g id="node7" class="node">
<title>STATE_I,2,1</title>
<polygon fill="none" stroke="#000000" points="957.8229,-547.0493 959.8879,-547.1479 961.9315,-547.2953 963.9454,-547.4913 965.9215,-547.7353 967.8518,-548.0266 969.7287,-548.3645 971.5449,-548.7479 973.2934,-549.1759 974.9679,-549.6472 976.5623,-550.1606 978.0709,-550.7147 979.4889,-551.308 980.8117,-551.9388 982.0354,-552.6054 983.1566,-553.3059 984.1725,-554.0385 985.081,-554.8012 985.8805,-555.5918 986.57,-556.4082 987.1489,-557.2481 987.6175,-558.1093 987.9764,-558.9894 988.2267,-559.886 988.3701,-560.7965 988.4086,-561.7186 988.3449,-562.6497 988.1819,-563.5873 987.9228,-564.5287 987.5712,-565.4713 987.1309,-566.4127 986.6061,-567.3503 986.001,-568.2814 985.3199,-569.2035 984.5675,-570.114 983.7483,-571.0106 982.8669,-571.8907 981.9277,-572.7519 980.9354,-573.5918 979.8943,-574.4082 978.8088,-575.1988 977.683,-575.9615 976.5208,-576.6941 975.3261,-577.3946 974.1025,-578.0612 972.8532,-578.692 971.5814,-579.2853 970.29,-579.8394 968.9817,-580.3528 967.6589,-580.8241 966.3236,-581.2521 964.978,-581.6355 963.6237,-581.9734 962.2624,-582.2647 960.8953,-582.5087 959.5238,-582.7047 958.149,-582.8521 956.7719,-582.9507 955.3935,-583 954.0145,-583 952.6361,-582.9507 951.259,-582.8521 949.8842,-582.7047 948.5127,-582.5087 947.1456,-582.2647 945.7843,-581.9734 944.43,-581.6355 943.0844,-581.2521 941.7491,-580.8241 940.4263,-580.3528 939.1179,-579.8394 937.8266,-579.2853 936.5548,-578.692 935.3055,-578.0612 934.0819,-577.3946 932.8872,-576.6941 931.725,-575.9615 930.5992,-575.1988 929.5137,-574.4082 928.4726,-573.5918 927.4803,-572.7519 926.5411,-571.8907 925.6597,-571.0106 924.8405,-570.114 924.0881,-569.2035 923.407,-568.2814 922.8019,-567.3503 922.2771,-566.4127 921.8368,-565.4713 921.4852,-564.5287 921.2261,-563.5873 921.0631,-562.6497 920.9994,-561.7186 921.0379,-560.7965 921.1813,-559.886 921.4316,-558.9894 921.7905,-558.1093 922.2591,-557.2481 922.838,-556.4082 923.5275,-555.5918 924.327,-554.8012 925.2355,-554.0385 926.2514,-553.3059 927.3726,-552.6054 928.5963,-551.9388 929.9191,-551.308 931.337,-550.7147 932.8457,-550.1606 934.4401,-549.6472 936.1146,-549.1759 937.8631,-548.7479 939.6793,-548.3645 941.5562,-548.0266 943.4865,-547.7353 945.4626,-547.4913 947.4765,-547.2953 949.5201,-547.1479 951.5851,-547.0493 953.6629,-547 955.7451,-547 957.8229,-547.0493"/>
<text text-anchor="middle" x="954.704" y="-562.5" font-family="Courier,monospace" font-weight="bold" font-size="10.00" fill="#000000">I,2,1</text>
</g>
<!-- STATE_D,1,1&#45;&gt;STATE_I,2,1 -->
<g id="edge2" class="edge">
<title>STATE_D,1,1&#45;&gt;STATE_I,2,1</title>
<path fill="none" stroke="#000000" d="M650.017,-548.7259C710.8161,-551.9733 842.2713,-558.9947 910.9342,-562.6621"/>
<polygon fill="#000000" stroke="#000000" points="910.8216,-566.161 920.9941,-563.1995 911.195,-559.171 910.8216,-566.161"/>
<text text-anchor="middle" x="778.704" y="-562" font-family="Courier,monospace" font-weight="bold" font-size="10.00" fill="#000000">1.0</text>
</g>
<!-- STATE_D,2,1 -->
<g id="node3" class="node">
<title>STATE_D,2,1</title>
<polygon fill="none" stroke="#000000" points="957.8229,-207.0493 959.8879,-207.1479 961.9315,-207.2953 963.9454,-207.4913 965.9215,-207.7353 967.8518,-208.0266 969.7287,-208.3645 971.5449,-208.7479 973.2934,-209.1759 974.9679,-209.6472 976.5623,-210.1606 978.0709,-210.7147 979.4889,-211.308 980.8117,-211.9388 982.0354,-212.6054 983.1566,-213.3059 984.1725,-214.0385 985.081,-214.8012 985.8805,-215.5918 986.57,-216.4082 987.1489,-217.2481 987.6175,-218.1093 987.9764,-218.9894 988.2267,-219.886 988.3701,-220.7965 988.4086,-221.7186 988.3449,-222.6497 988.1819,-223.5873 987.9228,-224.5287 987.5712,-225.4713 987.1309,-226.4127 986.6061,-227.3503 986.001,-228.2814 985.3199,-229.2035 984.5675,-230.114 983.7483,-231.0106 982.8669,-231.8907 981.9277,-232.7519 980.9354,-233.5918 979.8943,-234.4082 978.8088,-235.1988 977.683,-235.9615 976.5208,-236.6941 975.3261,-237.3946 974.1025,-238.0612 972.8532,-238.692 971.5814,-239.2853 970.29,-239.8394 968.9817,-240.3528 967.6589,-240.8241 966.3236,-241.2521 964.978,-241.6355 963.6237,-241.9734 962.2624,-242.2647 960.8953,-242.5087 959.5238,-242.7047 958.149,-242.8521 956.7719,-242.9507 955.3935,-243 954.0145,-243 952.6361,-242.9507 951.259,-242.8521 949.8842,-242.7047 948.5127,-242.5087 947.1456,-242.2647 945.7843,-241.9734 944.43,-241.6355 943.0844,-241.2521 941.7491,-240.8241 940.4263,-240.3528 939.1179,-239.8394 937.8266,-239.2853 936.5548,-238.692 935.3055,-238.0612 934.0819,-237.3946 932.8872,-236.6941 931.725,-235.9615 930.5992,-235.1988 929.5137,-234.4082 928.4726,-233.5918 927.4803,-232.7519 926.5411,-231.8907 925.6597,-231.0106 924.8405,-230.114 924.0881,-229.2035 923.407,-228.2814 922.8019,-227.3503 922.2771,-226.4127 921.8368,-225.4713 921.4852,-224.5287 921.2261,-223.5873 921.0631,-222.6497 920.9994,-221.7186 921.0379,-220.7965 921.1813,-219.886 921.4316,-218.9894 921.7905,-218.1093 922.2591,-217.2481 922.838,-216.4082 923.5275,-215.5918 924.327,-214.8012 925.2355,-214.0385 926.2514,-213.3059 927.3726,-212.6054 928.5963,-211.9388 929.9191,-211.308 931.337,-210.7147 932.8457,-210.1606 934.4401,-209.6472 936.1146,-209.1759 937.8631,-208.7479 939.6793,-208.3645 941.5562,-208.0266 943.4865,-207.7353 945.4626,-207.4913 947.4765,-207.2953 949.5201,-207.1479 951.5851,-207.0493 953.6629,-207 955.7451,-207 957.8229,-207.0493"/>
<text text-anchor="middle" x="954.704" y="-222.5" font-family="Courier,monospace" font-weight="bold" font-size="10.00" fill="#000000">D,2,1</text>
</g>
<!-- STATE_T,2,1 -->
<g id="node11" class="node">
<title>STATE_T,2,1</title>
<polygon fill="none" stroke="#000000" points="1309.8229,-313.0493 1311.8879,-313.1479 1313.9315,-313.2953 1315.9454,-313.4913 1317.9215,-313.7353 1319.8518,-314.0266 1321.7287,-314.3645 1323.5449,-314.7479 1325.2934,-315.1759 1326.9679,-315.6472 1328.5623,-316.1606 1330.0709,-316.7147 1331.4889,-317.308 1332.8117,-317.9388 1334.0354,-318.6054 1335.1566,-319.3059 1336.1725,-320.0385 1337.081,-320.8012 1337.8805,-321.5918 1338.57,-322.4082 1339.1489,-323.2481 1339.6175,-324.1093 1339.9764,-324.9894 1340.2267,-325.886 1340.3701,-326.7965 1340.4086,-327.7186 1340.3449,-328.6497 1340.1819,-329.5873 1339.9228,-330.5287 1339.5712,-331.4713 1339.1309,-332.4127 1338.6061,-333.3503 1338.001,-334.2814 1337.3199,-335.2035 1336.5675,-336.114 1335.7483,-337.0106 1334.8669,-337.8907 1333.9277,-338.7519 1332.9354,-339.5918 1331.8943,-340.4082 1330.8088,-341.1988 1329.683,-341.9615 1328.5208,-342.6941 1327.3261,-343.3946 1326.1025,-344.0612 1324.8532,-344.692 1323.5814,-345.2853 1322.29,-345.8394 1320.9817,-346.3528 1319.6589,-346.8241 1318.3236,-347.2521 1316.978,-347.6355 1315.6237,-347.9734 1314.2624,-348.2647 1312.8953,-348.5087 1311.5238,-348.7047 1310.149,-348.8521 1308.7719,-348.9507 1307.3935,-349 1306.0145,-349 1304.6361,-348.9507 1303.259,-348.8521 1301.8842,-348.7047 1300.5127,-348.5087 1299.1456,-348.2647 1297.7843,-347.9734 1296.43,-347.6355 1295.0844,-347.2521 1293.7491,-346.8241 1292.4263,-346.3528 1291.1179,-345.8394 1289.8266,-345.2853 1288.5548,-344.692 1287.3055,-344.0612 1286.0819,-343.3946 1284.8872,-342.6941 1283.725,-341.9615 1282.5992,-341.1988 1281.5137,-340.4082 1280.4726,-339.5918 1279.4803,-338.7519 1278.5411,-337.8907 1277.6597,-337.0106 1276.8405,-336.114 1276.0881,-335.2035 1275.407,-334.2814 1274.8019,-333.3503 1274.2771,-332.4127 1273.8368,-331.4713 1273.4852,-330.5287 1273.2261,-329.5873 1273.0631,-328.6497 1272.9994,-327.7186 1273.0379,-326.7965 1273.1813,-325.886 1273.4316,-324.9894 1273.7905,-324.1093 1274.2591,-323.2481 1274.838,-322.4082 1275.5275,-321.5918 1276.327,-320.8012 1277.2355,-320.0385 1278.2514,-319.3059 1279.3726,-318.6054 1280.5963,-317.9388 1281.9191,-317.308 1283.337,-316.7147 1284.8457,-316.1606 1286.4401,-315.6472 1288.1146,-315.1759 1289.8631,-314.7479 1291.6793,-314.3645 1293.5562,-314.0266 1295.4865,-313.7353 1297.4626,-313.4913 1299.4765,-313.2953 1301.5201,-313.1479 1303.5851,-313.0493 1305.6629,-313 1307.7451,-313 1309.8229,-313.0493"/>
<text text-anchor="middle" x="1306.704" y="-328.5" font-family="Courier,monospace" font-weight="bold" font-size="10.00" fill="#000000">T,2,1</text>
</g>
<!-- STATE_D,2,1&#45;&gt;STATE_T,2,1 -->
<g id="edge3" class="edge">
<title>STATE_D,2,1&#45;&gt;STATE_T,2,1</title>
<path fill="none" stroke="#000000" d="M981.5831,-212.1689C1032.1758,-190.1042 1142.4937,-152.1784 1209.704,-205 1236.3166,-225.9153 1208.213,-251.3273 1227.704,-279 1238.118,-293.7855 1254.1943,-305.4738 1269.1328,-313.9932"/>
<polygon fill="#000000" stroke="#000000" points="1267.762,-317.2301 1278.2264,-318.8876 1271.0796,-311.0662 1267.762,-317.2301"/>
<text text-anchor="middle" x="1130.704" y="-208" font-family="Courier,monospace" font-weight="bold" font-size="10.00" fill="#000000">1.0</text>
</g>
<!-- STATE_I,1,0 -->
<g id="node4" class="node">
<title>STATE_I,1,0</title>
<polygon fill="none" stroke="#000000" points="313.8229,-454.0493 315.8879,-454.1479 317.9315,-454.2953 319.9454,-454.4913 321.9215,-454.7353 323.8518,-455.0266 325.7287,-455.3645 327.5449,-455.7479 329.2934,-456.1759 330.9679,-456.6472 332.5623,-457.1606 334.0709,-457.7147 335.4889,-458.308 336.8117,-458.9388 338.0354,-459.6054 339.1566,-460.3059 340.1725,-461.0385 341.081,-461.8012 341.8805,-462.5918 342.57,-463.4082 343.1489,-464.2481 343.6175,-465.1093 343.9764,-465.9894 344.2267,-466.886 344.3701,-467.7965 344.4086,-468.7186 344.3449,-469.6497 344.1819,-470.5873 343.9228,-471.5287 343.5712,-472.4713 343.1309,-473.4127 342.6061,-474.3503 342.001,-475.2814 341.3199,-476.2035 340.5675,-477.114 339.7483,-478.0106 338.8669,-478.8907 337.9277,-479.7519 336.9354,-480.5918 335.8943,-481.4082 334.8088,-482.1988 333.683,-482.9615 332.5208,-483.6941 331.3261,-484.3946 330.1025,-485.0612 328.8532,-485.692 327.5814,-486.2853 326.29,-486.8394 324.9817,-487.3528 323.6589,-487.8241 322.3236,-488.2521 320.978,-488.6355 319.6237,-488.9734 318.2624,-489.2647 316.8953,-489.5087 315.5238,-489.7047 314.149,-489.8521 312.7719,-489.9507 311.3935,-490 310.0145,-490 308.6361,-489.9507 307.259,-489.8521 305.8842,-489.7047 304.5127,-489.5087 303.1456,-489.2647 301.7843,-488.9734 300.43,-488.6355 299.0844,-488.2521 297.7491,-487.8241 296.4263,-487.3528 295.1179,-486.8394 293.8266,-486.2853 292.5548,-485.692 291.3055,-485.0612 290.0819,-484.3946 288.8872,-483.6941 287.725,-482.9615 286.5992,-482.1988 285.5137,-481.4082 284.4726,-480.5918 283.4803,-479.7519 282.5411,-478.8907 281.6597,-478.0106 280.8405,-477.114 280.0881,-476.2035 279.407,-475.2814 278.8019,-474.3503 278.2771,-473.4127 277.8368,-472.4713 277.4852,-471.5287 277.2261,-470.5873 277.0631,-469.6497 276.9994,-468.7186 277.0379,-467.7965 277.1813,-466.886 277.4316,-465.9894 277.7905,-465.1093 278.2591,-464.2481 278.838,-463.4082 279.5275,-462.5918 280.327,-461.8012 281.2355,-461.0385 282.2514,-460.3059 283.3726,-459.6054 284.5963,-458.9388 285.9191,-458.308 287.337,-457.7147 288.8457,-457.1606 290.4401,-456.6472 292.1146,-456.1759 293.8631,-455.7479 295.6793,-455.3645 297.5562,-455.0266 299.4865,-454.7353 301.4626,-454.4913 303.4765,-454.2953 305.5201,-454.1479 307.5851,-454.0493 309.6629,-454 311.7451,-454 313.8229,-454.0493"/>
<text text-anchor="middle" x="310.704" y="-469.5" font-family="Courier,monospace" font-weight="bold" font-size="10.00" fill="#000000">I,1,0</text>
</g>
<!-- STATE_I,1,0&#45;&gt;STATE_D,1,1 -->
<g id="edge4" class="edge">
<title>STATE_I,1,0&#45;&gt;STATE_D,1,1</title>
<path fill="none" stroke="#000000" d="M339.0355,-478.9214C393.1706,-492.1466 511.5731,-521.0722 575.2211,-536.6214"/>
<polygon fill="#000000" stroke="#000000" points="574.7764,-540.1157 585.3214,-539.0889 576.4377,-533.3157 574.7764,-540.1157"/>
<text text-anchor="middle" x="464.204" y="-529" font-family="Courier,monospace" font-weight="bold" font-size="10.00" fill="#000000">0.11117775778377598</text>
</g>
<!-- STATE_I,2,0 -->
<g id="node6" class="node">
<title>STATE_I,2,0</title>
<polygon fill="none" stroke="#000000" points="620.8229,-289.0493 622.8879,-289.1479 624.9315,-289.2953 626.9454,-289.4913 628.9215,-289.7353 630.8518,-290.0266 632.7287,-290.3645 634.5449,-290.7479 636.2934,-291.1759 637.9679,-291.6472 639.5623,-292.1606 641.0709,-292.7147 642.4889,-293.308 643.8117,-293.9388 645.0354,-294.6054 646.1566,-295.3059 647.1725,-296.0385 648.081,-296.8012 648.8805,-297.5918 649.57,-298.4082 650.1489,-299.2481 650.6175,-300.1093 650.9764,-300.9894 651.2267,-301.886 651.3701,-302.7965 651.4086,-303.7186 651.3449,-304.6497 651.1819,-305.5873 650.9228,-306.5287 650.5712,-307.4713 650.1309,-308.4127 649.6061,-309.3503 649.001,-310.2814 648.3199,-311.2035 647.5675,-312.114 646.7483,-313.0106 645.8669,-313.8907 644.9277,-314.7519 643.9354,-315.5918 642.8943,-316.4082 641.8088,-317.1988 640.683,-317.9615 639.5208,-318.6941 638.3261,-319.3946 637.1025,-320.0612 635.8532,-320.692 634.5814,-321.2853 633.29,-321.8394 631.9817,-322.3528 630.6589,-322.8241 629.3236,-323.2521 627.978,-323.6355 626.6237,-323.9734 625.2624,-324.2647 623.8953,-324.5087 622.5238,-324.7047 621.149,-324.8521 619.7719,-324.9507 618.3935,-325 617.0145,-325 615.6361,-324.9507 614.259,-324.8521 612.8842,-324.7047 611.5127,-324.5087 610.1456,-324.2647 608.7843,-323.9734 607.43,-323.6355 606.0844,-323.2521 604.7491,-322.8241 603.4263,-322.3528 602.1179,-321.8394 600.8266,-321.2853 599.5548,-320.692 598.3055,-320.0612 597.0819,-319.3946 595.8872,-318.6941 594.725,-317.9615 593.5992,-317.1988 592.5137,-316.4082 591.4726,-315.5918 590.4803,-314.7519 589.5411,-313.8907 588.6597,-313.0106 587.8405,-312.114 587.0881,-311.2035 586.407,-310.2814 585.8019,-309.3503 585.2771,-308.4127 584.8368,-307.4713 584.4852,-306.5287 584.2261,-305.5873 584.0631,-304.6497 583.9994,-303.7186 584.0379,-302.7965 584.1813,-301.886 584.4316,-300.9894 584.7905,-300.1093 585.2591,-299.2481 585.838,-298.4082 586.5275,-297.5918 587.327,-296.8012 588.2355,-296.0385 589.2514,-295.3059 590.3726,-294.6054 591.5963,-293.9388 592.9191,-293.308 594.337,-292.7147 595.8457,-292.1606 597.4401,-291.6472 599.1146,-291.1759 600.8631,-290.7479 602.6793,-290.3645 604.5562,-290.0266 606.4865,-289.7353 608.4626,-289.4913 610.4765,-289.2953 612.5201,-289.1479 614.5851,-289.0493 616.6629,-289 618.7451,-289 620.8229,-289.0493"/>
<text text-anchor="middle" x="617.704" y="-304.5" font-family="Courier,monospace" font-weight="bold" font-size="10.00" fill="#000000">I,2,0</text>
</g>
<!-- STATE_I,1,0&#45;&gt;STATE_I,2,0 -->
<g id="edge5" class="edge">
<title>STATE_I,1,0&#45;&gt;STATE_I,2,0</title>
<path fill="none" stroke="#000000" d="M315.954,-453.8269C325.6751,-423.7567 349.5273,-364.177 392.704,-336 447.2474,-300.4051 525.2099,-298.6953 573.5767,-301.9463"/>
<polygon fill="#000000" stroke="#000000" points="573.4844,-305.4495 583.7245,-302.7306 574.0239,-298.4703 573.4844,-305.4495"/>
<text text-anchor="middle" x="464.204" y="-339" font-family="Courier,monospace" font-weight="bold" font-size="10.00" fill="#000000">0.444411121108112</text>
</g>
<!-- STATE_M,2,1 -->
<g id="node9" class="node">
<title>STATE_M,2,1</title>
<polygon fill="none" stroke="#000000" points="957.8229,-314.0493 959.8879,-314.1479 961.9315,-314.2953 963.9454,-314.4913 965.9215,-314.7353 967.8518,-315.0266 969.7287,-315.3645 971.5449,-315.7479 973.2934,-316.1759 974.9679,-316.6472 976.5623,-317.1606 978.0709,-317.7147 979.4889,-318.308 980.8117,-318.9388 982.0354,-319.6054 983.1566,-320.3059 984.1725,-321.0385 985.081,-321.8012 985.8805,-322.5918 986.57,-323.4082 987.1489,-324.2481 987.6175,-325.1093 987.9764,-325.9894 988.2267,-326.886 988.3701,-327.7965 988.4086,-328.7186 988.3449,-329.6497 988.1819,-330.5873 987.9228,-331.5287 987.5712,-332.4713 987.1309,-333.4127 986.6061,-334.3503 986.001,-335.2814 985.3199,-336.2035 984.5675,-337.114 983.7483,-338.0106 982.8669,-338.8907 981.9277,-339.7519 980.9354,-340.5918 979.8943,-341.4082 978.8088,-342.1988 977.683,-342.9615 976.5208,-343.6941 975.3261,-344.3946 974.1025,-345.0612 972.8532,-345.692 971.5814,-346.2853 970.29,-346.8394 968.9817,-347.3528 967.6589,-347.8241 966.3236,-348.2521 964.978,-348.6355 963.6237,-348.9734 962.2624,-349.2647 960.8953,-349.5087 959.5238,-349.7047 958.149,-349.8521 956.7719,-349.9507 955.3935,-350 954.0145,-350 952.6361,-349.9507 951.259,-349.8521 949.8842,-349.7047 948.5127,-349.5087 947.1456,-349.2647 945.7843,-348.9734 944.43,-348.6355 943.0844,-348.2521 941.7491,-347.8241 940.4263,-347.3528 939.1179,-346.8394 937.8266,-346.2853 936.5548,-345.692 935.3055,-345.0612 934.0819,-344.3946 932.8872,-343.6941 931.725,-342.9615 930.5992,-342.1988 929.5137,-341.4082 928.4726,-340.5918 927.4803,-339.7519 926.5411,-338.8907 925.6597,-338.0106 924.8405,-337.114 924.0881,-336.2035 923.407,-335.2814 922.8019,-334.3503 922.2771,-333.4127 921.8368,-332.4713 921.4852,-331.5287 921.2261,-330.5873 921.0631,-329.6497 920.9994,-328.7186 921.0379,-327.7965 921.1813,-326.886 921.4316,-325.9894 921.7905,-325.1093 922.2591,-324.2481 922.838,-323.4082 923.5275,-322.5918 924.327,-321.8012 925.2355,-321.0385 926.2514,-320.3059 927.3726,-319.6054 928.5963,-318.9388 929.9191,-318.308 931.337,-317.7147 932.8457,-317.1606 934.4401,-316.6472 936.1146,-316.1759 937.8631,-315.7479 939.6793,-315.3645 941.5562,-315.0266 943.4865,-314.7353 945.4626,-314.4913 947.4765,-314.2953 949.5201,-314.1479 951.5851,-314.0493 953.6629,-314 955.7451,-314 957.8229,-314.0493"/>
<text text-anchor="middle" x="954.704" y="-329.5" font-family="Courier,monospace" font-weight="bold" font-size="10.00" fill="#000000">M,2,1</text>
</g>
<!-- STATE_I,1,0&#45;&gt;STATE_M,2,1 -->
<g id="edge6" class="edge">
<title>STATE_I,1,0&#45;&gt;STATE_M,2,1</title>
<path fill="none" stroke="#000000" d="M343.5254,-464.8649C452.0059,-441.2822 798.7564,-365.9017 915.7382,-340.4708"/>
<polygon fill="#000000" stroke="#000000" points="916.6612,-343.852 925.6894,-338.3075 915.1741,-337.0118 916.6612,-343.852"/>
<text text-anchor="middle" x="617.704" y="-421" font-family="Courier,monospace" font-weight="bold" font-size="10.00" fill="#000000">0.444411121108112</text>
</g>
<!-- SYMBOL_? -->
<g id="node12" class="node">
<title>SYMBOL_?</title>
<polygon fill="none" stroke="#000000" stroke-dasharray="5,2" points="1476.13,-313.0493 1477.906,-313.1479 1479.6637,-313.2953 1481.3959,-313.4913 1483.0955,-313.7353 1484.7557,-314.0266 1486.37,-314.3645 1487.9321,-314.7479 1489.436,-315.1759 1490.8762,-315.6472 1492.2475,-316.1606 1493.5451,-316.7147 1494.7647,-317.308 1495.9024,-317.9388 1496.9548,-318.6054 1497.9192,-319.3059 1498.793,-320.0385 1499.5744,-320.8012 1500.262,-321.5918 1500.855,-322.4082 1501.3529,-323.2481 1501.756,-324.1093 1502.0646,-324.9894 1502.2799,-325.886 1502.4032,-326.7965 1502.4364,-327.7186 1502.3816,-328.6497 1502.2414,-329.5873 1502.0185,-330.5287 1501.7161,-331.4713 1501.3374,-332.4127 1500.886,-333.3503 1500.3656,-334.2814 1499.7799,-335.2035 1499.1327,-336.114 1498.4281,-337.0106 1497.67,-337.8907 1496.8622,-338.7519 1496.0088,-339.5918 1495.1133,-340.4082 1494.1797,-341.1988 1493.2114,-341.9615 1492.2118,-342.6941 1491.1843,-343.3946 1490.1318,-344.0612 1489.0573,-344.692 1487.9635,-345.2853 1486.8528,-345.8394 1485.7275,-346.3528 1484.5898,-346.8241 1483.4413,-347.2521 1482.284,-347.6355 1481.1192,-347.9734 1479.9483,-348.2647 1478.7725,-348.5087 1477.5929,-348.7047 1476.4105,-348.8521 1475.226,-348.9507 1474.0404,-349 1472.8545,-349 1471.6689,-348.9507 1470.4844,-348.8521 1469.302,-348.7047 1468.1224,-348.5087 1466.9466,-348.2647 1465.7757,-347.9734 1464.6109,-347.6355 1463.4535,-347.2521 1462.3051,-346.8241 1461.1673,-346.3528 1460.0421,-345.8394 1458.9314,-345.2853 1457.8375,-344.692 1456.7631,-344.0612 1455.7106,-343.3946 1454.6831,-342.6941 1453.6835,-341.9615 1452.7152,-341.1988 1451.7815,-340.4082 1450.8861,-339.5918 1450.0326,-338.7519 1449.2249,-337.8907 1448.4668,-337.0106 1447.7622,-336.114 1447.115,-335.2035 1446.5293,-334.2814 1446.0088,-333.3503 1445.5574,-332.4127 1445.1788,-331.4713 1444.8764,-330.5287 1444.6535,-329.5873 1444.5133,-328.6497 1444.4585,-327.7186 1444.4917,-326.7965 1444.615,-325.886 1444.8303,-324.9894 1445.1389,-324.1093 1445.5419,-323.2481 1446.0399,-322.4082 1446.6329,-321.5918 1447.3205,-320.8012 1448.1019,-320.0385 1448.9757,-319.3059 1449.9401,-318.6054 1450.9925,-317.9388 1452.1302,-317.308 1453.3498,-316.7147 1454.6474,-316.1606 1456.0187,-315.6472 1457.4589,-315.1759 1458.9628,-314.7479 1460.5249,-314.3645 1462.1392,-314.0266 1463.7994,-313.7353 1465.499,-313.4913 1467.2311,-313.2953 1468.9888,-313.1479 1470.7649,-313.0493 1472.552,-313 1474.3429,-313 1476.13,-313.0493"/>
<text text-anchor="middle" x="1473.4474" y="-328.5" font-family="Courier,monospace" font-weight="bold" font-size="10.00" fill="#000000">?</text>
</g>
<!-- STATE_I,1,0&#45;&gt;SYMBOL_? -->
<g id="edge15" class="edge">
<title>STATE_I,1,0&#45;&gt;SYMBOL_?</title>
<path fill="none" stroke="#000000" stroke-dasharray="5,2" d="M313.4017,-453.6471C322.7561,-391.8994 355.2809,-192.66 392.704,-141 461.937,-45.4286 499.6908,0 617.704,0 617.704,0 617.704,0 1306.704,0 1441.5966,0 1467.3798,-221.9703 1472.2944,-302.3658"/>
<polygon fill="#000000" stroke="#000000" points="1468.8202,-302.9375 1472.8585,-312.7325 1475.8099,-302.5571 1468.8202,-302.9375"/>
<text text-anchor="middle" x="954.704" y="-3" font-family="Courier,monospace" font-weight="bold" font-size="10.00" fill="#000000">9.995002498750626e&#45;05</text>
</g>
<!-- SYMBOL_C -->
<g id="node13" class="node">
<title>SYMBOL_C</title>
<polygon fill="none" stroke="#000000" stroke-dasharray="5,2" points="1309.3865,-639.0493 1311.1626,-639.1479 1312.9203,-639.2953 1314.6524,-639.4913 1316.352,-639.7353 1318.0123,-640.0266 1319.6265,-640.3645 1321.1886,-640.7479 1322.6926,-641.1759 1324.1328,-641.6472 1325.504,-642.1606 1326.8016,-642.7147 1328.0212,-643.308 1329.1589,-643.9388 1330.2114,-644.6054 1331.1757,-645.3059 1332.0495,-646.0385 1332.8309,-646.8012 1333.5186,-647.5918 1334.1115,-648.4082 1334.6095,-649.2481 1335.0125,-650.1093 1335.3212,-650.9894 1335.5365,-651.886 1335.6598,-652.7965 1335.693,-653.7186 1335.6382,-654.6497 1335.4979,-655.5873 1335.2751,-656.5287 1334.9727,-657.4713 1334.594,-658.4127 1334.1426,-659.3503 1333.6221,-660.2814 1333.0364,-661.2035 1332.3893,-662.114 1331.6847,-663.0106 1330.9265,-663.8907 1330.1188,-664.7519 1329.2653,-665.5918 1328.3699,-666.4082 1327.4363,-667.1988 1326.4679,-667.9615 1325.4684,-668.6941 1324.4408,-669.3946 1323.3884,-670.0612 1322.3139,-670.692 1321.2201,-671.2853 1320.1094,-671.8394 1318.9841,-672.3528 1317.8463,-672.8241 1316.6979,-673.2521 1315.5405,-673.6355 1314.3757,-673.9734 1313.2049,-674.2647 1312.0291,-674.5087 1310.8495,-674.7047 1309.667,-674.8521 1308.4826,-674.9507 1307.297,-675 1306.111,-675 1304.9254,-674.9507 1303.741,-674.8521 1302.5585,-674.7047 1301.3789,-674.5087 1300.2031,-674.2647 1299.0323,-673.9734 1297.8675,-673.6355 1296.7101,-673.2521 1295.5617,-672.8241 1294.4239,-672.3528 1293.2986,-671.8394 1292.1879,-671.2853 1291.0941,-670.692 1290.0196,-670.0612 1288.9672,-669.3946 1287.9396,-668.6941 1286.9401,-667.9615 1285.9717,-667.1988 1285.0381,-666.4082 1284.1427,-665.5918 1283.2892,-664.7519 1282.4815,-663.8907 1281.7233,-663.0106 1281.0187,-662.114 1280.3716,-661.2035 1279.7859,-660.2814 1279.2654,-659.3503 1278.814,-658.4127 1278.4353,-657.4713 1278.1329,-656.5287 1277.91,-655.5873 1277.7698,-654.6497 1277.715,-653.7186 1277.7482,-652.7965 1277.8715,-651.886 1278.0868,-650.9894 1278.3955,-650.1093 1278.7985,-649.2481 1279.2965,-648.4082 1279.8894,-647.5918 1280.5771,-646.8012 1281.3585,-646.0385 1282.2323,-645.3059 1283.1966,-644.6054 1284.2491,-643.9388 1285.3868,-643.308 1286.6064,-642.7147 1287.904,-642.1606 1289.2752,-641.6472 1290.7154,-641.1759 1292.2194,-640.7479 1293.7815,-640.3645 1295.3957,-640.0266 1297.056,-639.7353 1298.7556,-639.4913 1300.4877,-639.2953 1302.2454,-639.1479 1304.0215,-639.0493 1305.8086,-639 1307.5994,-639 1309.3865,-639.0493"/>
<text text-anchor="middle" x="1306.704" y="-654.5" font-family="Courier,monospace" font-weight="bold" font-size="10.00" fill="#000000">C</text>
</g>
<!-- STATE_I,1,0&#45;&gt;SYMBOL_C -->
<g id="edge16" class="edge">
<title>STATE_I,1,0&#45;&gt;SYMBOL_C</title>
<path fill="none" stroke="#000000" stroke-dasharray="5,2" d="M324.8002,-487.7216C339.9823,-503.6452 365.627,-527.7593 392.704,-541 526.8357,-606.5906 902.8585,-660.234 1051.704,-672 1121.7078,-677.5337 1139.6883,-677.3816 1209.704,-672 1230.109,-670.4316 1252.7169,-667.0335 1270.97,-663.8676"/>
<polygon fill="#000000" stroke="#000000" points="1271.6628,-667.2994 1280.8919,-662.0961 1270.4324,-660.4084 1271.6628,-667.2994"/>
<text text-anchor="middle" x="778.704" y="-651" font-family="Courier,monospace" font-weight="bold" font-size="10.00" fill="#000000">0.24997501249375312</text>
</g>
<!-- SYMBOL_G -->
<g id="node14" class="node">
<title>SYMBOL_G</title>
<polygon fill="none" stroke="#000000" stroke-dasharray="5,2" points="1309.3865,-158.0493 1311.1626,-158.1479 1312.9203,-158.2953 1314.6524,-158.4913 1316.352,-158.7353 1318.0123,-159.0266 1319.6265,-159.3645 1321.1886,-159.7479 1322.6926,-160.1759 1324.1328,-160.6472 1325.504,-161.1606 1326.8016,-161.7147 1328.0212,-162.308 1329.1589,-162.9388 1330.2114,-163.6054 1331.1757,-164.3059 1332.0495,-165.0385 1332.8309,-165.8012 1333.5186,-166.5918 1334.1115,-167.4082 1334.6095,-168.2481 1335.0125,-169.1093 1335.3212,-169.9894 1335.5365,-170.886 1335.6598,-171.7965 1335.693,-172.7186 1335.6382,-173.6497 1335.4979,-174.5873 1335.2751,-175.5287 1334.9727,-176.4713 1334.594,-177.4127 1334.1426,-178.3503 1333.6221,-179.2814 1333.0364,-180.2035 1332.3893,-181.114 1331.6847,-182.0106 1330.9265,-182.8907 1330.1188,-183.7519 1329.2653,-184.5918 1328.3699,-185.4082 1327.4363,-186.1988 1326.4679,-186.9615 1325.4684,-187.6941 1324.4408,-188.3946 1323.3884,-189.0612 1322.3139,-189.692 1321.2201,-190.2853 1320.1094,-190.8394 1318.9841,-191.3528 1317.8463,-191.8241 1316.6979,-192.2521 1315.5405,-192.6355 1314.3757,-192.9734 1313.2049,-193.2647 1312.0291,-193.5087 1310.8495,-193.7047 1309.667,-193.8521 1308.4826,-193.9507 1307.297,-194 1306.111,-194 1304.9254,-193.9507 1303.741,-193.8521 1302.5585,-193.7047 1301.3789,-193.5087 1300.2031,-193.2647 1299.0323,-192.9734 1297.8675,-192.6355 1296.7101,-192.2521 1295.5617,-191.8241 1294.4239,-191.3528 1293.2986,-190.8394 1292.1879,-190.2853 1291.0941,-189.692 1290.0196,-189.0612 1288.9672,-188.3946 1287.9396,-187.6941 1286.9401,-186.9615 1285.9717,-186.1988 1285.0381,-185.4082 1284.1427,-184.5918 1283.2892,-183.7519 1282.4815,-182.8907 1281.7233,-182.0106 1281.0187,-181.114 1280.3716,-180.2035 1279.7859,-179.2814 1279.2654,-178.3503 1278.814,-177.4127 1278.4353,-176.4713 1278.1329,-175.5287 1277.91,-174.5873 1277.7698,-173.6497 1277.715,-172.7186 1277.7482,-171.7965 1277.8715,-170.886 1278.0868,-169.9894 1278.3955,-169.1093 1278.7985,-168.2481 1279.2965,-167.4082 1279.8894,-166.5918 1280.5771,-165.8012 1281.3585,-165.0385 1282.2323,-164.3059 1283.1966,-163.6054 1284.2491,-162.9388 1285.3868,-162.308 1286.6064,-161.7147 1287.904,-161.1606 1289.2752,-160.6472 1290.7154,-160.1759 1292.2194,-159.7479 1293.7815,-159.3645 1295.3957,-159.0266 1297.056,-158.7353 1298.7556,-158.4913 1300.4877,-158.2953 1302.2454,-158.1479 1304.0215,-158.0493 1305.8086,-158 1307.5994,-158 1309.3865,-158.0493"/>
<text text-anchor="middle" x="1306.704" y="-173.5" font-family="Courier,monospace" font-weight="bold" font-size="10.00" fill="#000000">G</text>
</g>
<!-- STATE_I,1,0&#45;&gt;SYMBOL_G -->
<g id="edge17" class="edge">
<title>STATE_I,1,0&#45;&gt;SYMBOL_G</title>
<path fill="none" stroke="#000000" stroke-dasharray="5,2" d="M315.9226,-454.0491C326.3285,-420.4852 352.203,-347.0955 392.704,-297 500.3962,-163.7963 537.3577,-118.6308 699.704,-64 785.6431,-35.0809 1121.6323,-42.5516 1209.704,-81 1243.4177,-95.718 1272.075,-127.7966 1289.3116,-150.5994"/>
<polygon fill="#000000" stroke="#000000" points="1286.6099,-152.8338 1295.3453,-158.8291 1292.2552,-148.6949 1286.6099,-152.8338"/>
<text text-anchor="middle" x="778.704" y="-67" font-family="Courier,monospace" font-weight="bold" font-size="10.00" fill="#000000">0.49985007496251876</text>
</g>
<!-- SYMBOL_T -->
<g id="node15" class="node">
<title>SYMBOL_T</title>
<polygon fill="none" stroke="#000000" stroke-dasharray="5,2" points="1309.3865,-799.0493 1311.1626,-799.1479 1312.9203,-799.2953 1314.6524,-799.4913 1316.352,-799.7353 1318.0123,-800.0266 1319.6265,-800.3645 1321.1886,-800.7479 1322.6926,-801.1759 1324.1328,-801.6472 1325.504,-802.1606 1326.8016,-802.7147 1328.0212,-803.308 1329.1589,-803.9388 1330.2114,-804.6054 1331.1757,-805.3059 1332.0495,-806.0385 1332.8309,-806.8012 1333.5186,-807.5918 1334.1115,-808.4082 1334.6095,-809.2481 1335.0125,-810.1093 1335.3212,-810.9894 1335.5365,-811.886 1335.6598,-812.7965 1335.693,-813.7186 1335.6382,-814.6497 1335.4979,-815.5873 1335.2751,-816.5287 1334.9727,-817.4713 1334.594,-818.4127 1334.1426,-819.3503 1333.6221,-820.2814 1333.0364,-821.2035 1332.3893,-822.114 1331.6847,-823.0106 1330.9265,-823.8907 1330.1188,-824.7519 1329.2653,-825.5918 1328.3699,-826.4082 1327.4363,-827.1988 1326.4679,-827.9615 1325.4684,-828.6941 1324.4408,-829.3946 1323.3884,-830.0612 1322.3139,-830.692 1321.2201,-831.2853 1320.1094,-831.8394 1318.9841,-832.3528 1317.8463,-832.8241 1316.6979,-833.2521 1315.5405,-833.6355 1314.3757,-833.9734 1313.2049,-834.2647 1312.0291,-834.5087 1310.8495,-834.7047 1309.667,-834.8521 1308.4826,-834.9507 1307.297,-835 1306.111,-835 1304.9254,-834.9507 1303.741,-834.8521 1302.5585,-834.7047 1301.3789,-834.5087 1300.2031,-834.2647 1299.0323,-833.9734 1297.8675,-833.6355 1296.7101,-833.2521 1295.5617,-832.8241 1294.4239,-832.3528 1293.2986,-831.8394 1292.1879,-831.2853 1291.0941,-830.692 1290.0196,-830.0612 1288.9672,-829.3946 1287.9396,-828.6941 1286.9401,-827.9615 1285.9717,-827.1988 1285.0381,-826.4082 1284.1427,-825.5918 1283.2892,-824.7519 1282.4815,-823.8907 1281.7233,-823.0106 1281.0187,-822.114 1280.3716,-821.2035 1279.7859,-820.2814 1279.2654,-819.3503 1278.814,-818.4127 1278.4353,-817.4713 1278.1329,-816.5287 1277.91,-815.5873 1277.7698,-814.6497 1277.715,-813.7186 1277.7482,-812.7965 1277.8715,-811.886 1278.0868,-810.9894 1278.3955,-810.1093 1278.7985,-809.2481 1279.2965,-808.4082 1279.8894,-807.5918 1280.5771,-806.8012 1281.3585,-806.0385 1282.2323,-805.3059 1283.1966,-804.6054 1284.2491,-803.9388 1285.3868,-803.308 1286.6064,-802.7147 1287.904,-802.1606 1289.2752,-801.6472 1290.7154,-801.1759 1292.2194,-800.7479 1293.7815,-800.3645 1295.3957,-800.0266 1297.056,-799.7353 1298.7556,-799.4913 1300.4877,-799.2953 1302.2454,-799.1479 1304.0215,-799.0493 1305.8086,-799 1307.5994,-799 1309.3865,-799.0493"/>
<text text-anchor="middle" x="1306.704" y="-814.5" font-family="Courier,monospace" font-weight="bold" font-size="10.00" fill="#000000">T</text>
</g>
<!-- STATE_I,1,0&#45;&gt;SYMBOL_T -->
<g id="edge18" class="edge">
<title>STATE_I,1,0&#45;&gt;SYMBOL_T</title>
<path fill="none" stroke="#000000" stroke-dasharray="5,2" d="M315.5671,-489.839C330.9861,-546.0889 378.5956,-717.3013 392.704,-739 444.3935,-818.4984 470.5364,-833.4483 553.704,-879 681.8607,-949.1927 1078.753,-988.8306 1209.704,-924 1246.1272,-905.9678 1275.3144,-867.8729 1291.8263,-842.3512"/>
<polygon fill="#000000" stroke="#000000" points="1294.9802,-843.9096 1297.3261,-833.5778 1289.0492,-840.1916 1294.9802,-843.9096"/>
<text text-anchor="middle" x="778.704" y="-952" font-family="Courier,monospace" font-weight="bold" font-size="10.00" fill="#000000">0.24997501249375312</text>
</g>
<!-- SYMBOL_A -->
<g id="node16" class="node">
<title>SYMBOL_A</title>
<polygon fill="none" stroke="#000000" stroke-dasharray="5,2" points="1309.3865,-428.0493 1311.1626,-428.1479 1312.9203,-428.2953 1314.6524,-428.4913 1316.352,-428.7353 1318.0123,-429.0266 1319.6265,-429.3645 1321.1886,-429.7479 1322.6926,-430.1759 1324.1328,-430.6472 1325.504,-431.1606 1326.8016,-431.7147 1328.0212,-432.308 1329.1589,-432.9388 1330.2114,-433.6054 1331.1757,-434.3059 1332.0495,-435.0385 1332.8309,-435.8012 1333.5186,-436.5918 1334.1115,-437.4082 1334.6095,-438.2481 1335.0125,-439.1093 1335.3212,-439.9894 1335.5365,-440.886 1335.6598,-441.7965 1335.693,-442.7186 1335.6382,-443.6497 1335.4979,-444.5873 1335.2751,-445.5287 1334.9727,-446.4713 1334.594,-447.4127 1334.1426,-448.3503 1333.6221,-449.2814 1333.0364,-450.2035 1332.3893,-451.114 1331.6847,-452.0106 1330.9265,-452.8907 1330.1188,-453.7519 1329.2653,-454.5918 1328.3699,-455.4082 1327.4363,-456.1988 1326.4679,-456.9615 1325.4684,-457.6941 1324.4408,-458.3946 1323.3884,-459.0612 1322.3139,-459.692 1321.2201,-460.2853 1320.1094,-460.8394 1318.9841,-461.3528 1317.8463,-461.8241 1316.6979,-462.2521 1315.5405,-462.6355 1314.3757,-462.9734 1313.2049,-463.2647 1312.0291,-463.5087 1310.8495,-463.7047 1309.667,-463.8521 1308.4826,-463.9507 1307.297,-464 1306.111,-464 1304.9254,-463.9507 1303.741,-463.8521 1302.5585,-463.7047 1301.3789,-463.5087 1300.2031,-463.2647 1299.0323,-462.9734 1297.8675,-462.6355 1296.7101,-462.2521 1295.5617,-461.8241 1294.4239,-461.3528 1293.2986,-460.8394 1292.1879,-460.2853 1291.0941,-459.692 1290.0196,-459.0612 1288.9672,-458.3946 1287.9396,-457.6941 1286.9401,-456.9615 1285.9717,-456.1988 1285.0381,-455.4082 1284.1427,-454.5918 1283.2892,-453.7519 1282.4815,-452.8907 1281.7233,-452.0106 1281.0187,-451.114 1280.3716,-450.2035 1279.7859,-449.2814 1279.2654,-448.3503 1278.814,-447.4127 1278.4353,-446.4713 1278.1329,-445.5287 1277.91,-444.5873 1277.7698,-443.6497 1277.715,-442.7186 1277.7482,-441.7965 1277.8715,-440.886 1278.0868,-439.9894 1278.3955,-439.1093 1278.7985,-438.2481 1279.2965,-437.4082 1279.8894,-436.5918 1280.5771,-435.8012 1281.3585,-435.0385 1282.2323,-434.3059 1283.1966,-433.6054 1284.2491,-432.9388 1285.3868,-432.308 1286.6064,-431.7147 1287.904,-431.1606 1289.2752,-430.6472 1290.7154,-430.1759 1292.2194,-429.7479 1293.7815,-429.3645 1295.3957,-429.0266 1297.056,-428.7353 1298.7556,-428.4913 1300.4877,-428.2953 1302.2454,-428.1479 1304.0215,-428.0493 1305.8086,-428 1307.5994,-428 1309.3865,-428.0493"/>
<text text-anchor="middle" x="1306.704" y="-443.5" font-family="Courier,monospace" font-weight="bold" font-size="10.00" fill="#000000">A</text>
</g>
<!-- STATE_I,1,0&#45;&gt;SYMBOL_A -->
<g id="edge19" class="edge">
<title>STATE_I,1,0&#45;&gt;SYMBOL_A</title>
<path fill="none" stroke="#000000" stroke-dasharray="5,2" d="M343.702,-473.1681C477.2065,-477.6508 973.0791,-491.8641 1033.704,-458 1046.6197,-450.7855 1038.7191,-437.0891 1051.704,-430 1121.6017,-391.8392 1218.8741,-415.0713 1270.7492,-432.3553"/>
<polygon fill="#000000" stroke="#000000" points="1269.9026,-435.7655 1280.4973,-435.7129 1272.1822,-429.1471 1269.9026,-435.7655"/>
<text text-anchor="middle" x="778.704" y="-482" font-family="Courier,monospace" font-weight="bold" font-size="10.00" fill="#000000">9.995002498750626e&#45;05</text>
</g>
<!-- STATE_I,1,1&#45;&gt;STATE_I,2,1 -->
<g id="edge7" class="edge">
<title>STATE_I,1,1&#45;&gt;STATE_I,2,1</title>
<path fill="none" stroke="#000000" d="M651.5562,-720.745C710.5585,-714.3865 828.7229,-698.3947 857.704,-670 881.573,-646.6139 853.825,-622.2577 875.704,-597 885.7803,-585.3677 900.7077,-577.9054 914.8816,-573.1448"/>
<polygon fill="#000000" stroke="#000000" points="915.9298,-576.4845 924.5052,-570.2625 913.9214,-569.7788 915.9298,-576.4845"/>
<text text-anchor="middle" x="778.704" y="-717" font-family="Courier,monospace" font-weight="bold" font-size="10.00" fill="#000000">1.0</text>
</g>
<!-- STATE_I,1,1&#45;&gt;SYMBOL_? -->
<g id="edge20" class="edge">
<title>STATE_I,1,1&#45;&gt;SYMBOL_?</title>
<path fill="none" stroke="#000000" stroke-dasharray="5,2" d="M626.4253,-741.3841C639.1479,-764.825 665.1008,-806.0395 699.704,-827 830.1327,-906.0059 1270.1272,-943.4766 1385.704,-844 1459.8809,-780.1561 1471.3499,-457.0201 1473.1231,-359.1384"/>
<polygon fill="#000000" stroke="#000000" points="1476.6231,-359.1606 1473.2845,-349.1056 1469.6241,-359.048 1476.6231,-359.1606"/>
<text text-anchor="middle" x="1130.704" y="-906" font-family="Courier,monospace" font-weight="bold" font-size="10.00" fill="#000000">9.995002498750626e&#45;05</text>
</g>
<!-- STATE_I,1,1&#45;&gt;SYMBOL_C -->
<g id="edge21" class="edge">
<title>STATE_I,1,1&#45;&gt;SYMBOL_C</title>
<path fill="none" stroke="#000000" stroke-dasharray="5,2" d="M649.4171,-726.8502C769.0459,-737.4563 1187.3189,-773.165 1209.704,-756 1234.1722,-737.2377 1207.2757,-712.0954 1227.704,-689 1238.8024,-676.4526 1255.5331,-668.7448 1270.7447,-664.05"/>
<polygon fill="#000000" stroke="#000000" points="1271.7345,-667.4078 1280.4471,-661.3794 1269.8768,-660.6588 1271.7345,-667.4078"/>
<text text-anchor="middle" x="954.704" y="-758" font-family="Courier,monospace" font-weight="bold" font-size="10.00" fill="#000000">0.49985007496251876</text>
</g>
<!-- STATE_I,1,1&#45;&gt;SYMBOL_G -->
<g id="edge22" class="edge">
<title>STATE_I,1,1&#45;&gt;SYMBOL_G</title>
<path fill="none" stroke="#000000" stroke-dasharray="5,2" d="M627.7225,-706.2249C642.5923,-678.8273 670.004,-624.1838 681.704,-574 689.9913,-538.454 677.5837,-275.0326 699.704,-246 768.3419,-155.9139 1144.7716,-167.4081 1267.7904,-173.7019"/>
<polygon fill="#000000" stroke="#000000" points="1267.716,-177.2028 1277.8871,-174.2363 1268.0861,-170.2126 1267.716,-177.2028"/>
<text text-anchor="middle" x="954.704" y="-186" font-family="Courier,monospace" font-weight="bold" font-size="10.00" fill="#000000">9.995002498750626e&#45;05</text>
</g>
<!-- STATE_I,1,1&#45;&gt;SYMBOL_T -->
<g id="edge23" class="edge">
<title>STATE_I,1,1&#45;&gt;SYMBOL_T</title>
<path fill="none" stroke="#000000" stroke-dasharray="5,2" d="M631.3395,-739.6935C646.3342,-755.791 672.0035,-780.1069 699.704,-792 900.7484,-878.3175 1174.5385,-841.1611 1271.1711,-823.9597"/>
<polygon fill="#000000" stroke="#000000" points="1271.8059,-827.4018 1281.0165,-822.1658 1270.5511,-820.5151 1271.8059,-827.4018"/>
<text text-anchor="middle" x="954.704" y="-849" font-family="Courier,monospace" font-weight="bold" font-size="10.00" fill="#000000">9.995002498750626e&#45;05</text>
</g>
<!-- STATE_I,1,1&#45;&gt;SYMBOL_A -->
<g id="edge24" class="edge">
<title>STATE_I,1,1&#45;&gt;SYMBOL_A</title>
<path fill="none" stroke="#000000" stroke-dasharray="5,2" d="M624.9061,-706.0382C642.2663,-663.1284 685.9973,-557.4397 699.704,-547 705.4833,-542.5982 1140.0229,-472.7025 1270.2313,-451.8366"/>
<polygon fill="#000000" stroke="#000000" points="1270.8053,-455.2894 1280.1258,-450.2516 1269.698,-448.3775 1270.8053,-455.2894"/>
<text text-anchor="middle" x="954.704" y="-518" font-family="Courier,monospace" font-weight="bold" font-size="10.00" fill="#000000">0.49985007496251876</text>
</g>
<!-- STATE_I,2,0&#45;&gt;STATE_D,2,1 -->
<g id="edge8" class="edge">
<title>STATE_I,2,0&#45;&gt;STATE_D,2,1</title>
<path fill="none" stroke="#000000" d="M650.3232,-299.063C712.8846,-283.8403 849.444,-250.6122 916.2924,-234.3465"/>
<polygon fill="#000000" stroke="#000000" points="917.5116,-237.652 926.4005,-231.8869 915.8565,-230.8504 917.5116,-237.652"/>
<text text-anchor="middle" x="778.704" y="-289" font-family="Courier,monospace" font-weight="bold" font-size="10.00" fill="#000000">1.0</text>
</g>
<!-- STATE_I,2,0&#45;&gt;SYMBOL_? -->
<g id="edge25" class="edge">
<title>STATE_I,2,0&#45;&gt;SYMBOL_?</title>
<path fill="none" stroke="#000000" stroke-dasharray="5,2" d="M619.132,-288.8504C623.3488,-249.0267 639.541,-154.254 699.704,-113 793.1955,-48.8926 1097.3079,-87.251 1209.704,-102 1289.9791,-112.534 1323.3264,-97.3851 1385.704,-149 1434.3284,-189.2346 1457.9458,-262.8138 1467.6887,-302.993"/>
<polygon fill="#000000" stroke="#000000" points="1464.3194,-303.9584 1469.9762,-312.9166 1471.1405,-302.386 1464.3194,-303.9584"/>
<text text-anchor="middle" x="1130.704" y="-105" font-family="Courier,monospace" font-weight="bold" font-size="10.00" fill="#000000">9.995002498750626e&#45;05</text>
</g>
<!-- STATE_I,2,0&#45;&gt;SYMBOL_C -->
<g id="edge26" class="edge">
<title>STATE_I,2,0&#45;&gt;SYMBOL_C</title>
<path fill="none" stroke="#000000" stroke-dasharray="5,2" d="M637.7021,-320.0951C653.9713,-330.4043 677.7502,-344.7027 699.704,-355 842.6465,-422.0466 932.6031,-354.73 1033.704,-476 1064.5838,-513.0401 1019.6346,-546.985 1051.704,-583 1080.3797,-615.2038 1203.3307,-639.8596 1267.4493,-650.8005"/>
<polygon fill="#000000" stroke="#000000" points="1267.1433,-654.298 1277.5843,-652.4992 1268.3005,-647.3943 1267.1433,-654.298"/>
<text text-anchor="middle" x="954.704" y="-479" font-family="Courier,monospace" font-weight="bold" font-size="10.00" fill="#000000">0.24997501249375312</text>
</g>
<!-- STATE_I,2,0&#45;&gt;SYMBOL_G -->
<g id="edge27" class="edge">
<title>STATE_I,2,0&#45;&gt;SYMBOL_G</title>
<path fill="none" stroke="#000000" stroke-dasharray="5,2" d="M621.7245,-288.8741C630.0225,-256.163 652.3722,-187.7203 699.704,-156 793.9304,-92.8525 1098.5346,-112.4704 1209.704,-135 1232.287,-139.5767 1256.1441,-149.5842 1274.5474,-158.566"/>
<polygon fill="#000000" stroke="#000000" points="1273.1316,-161.7716 1283.6384,-163.1352 1276.2752,-155.5171 1273.1316,-161.7716"/>
<text text-anchor="middle" x="954.704" y="-119" font-family="Courier,monospace" font-weight="bold" font-size="10.00" fill="#000000">0.49985007496251876</text>
</g>
<!-- STATE_I,2,0&#45;&gt;SYMBOL_T -->
<g id="edge28" class="edge">
<title>STATE_I,2,0&#45;&gt;SYMBOL_T</title>
<path fill="none" stroke="#000000" stroke-dasharray="5,2" d="M633.7243,-321.6884C648.9537,-336.7198 671.0658,-361.5636 681.704,-388 697.2065,-426.5242 674.9549,-540.6544 699.704,-574 744.9585,-634.9734 803.8468,-585.4731 857.704,-639 872.3988,-653.6047 860.3701,-668.0678 875.704,-682 930.1193,-731.4409 980.5641,-680.1907 1033.704,-731 1050.7749,-747.3222 1033.3798,-766.0986 1051.704,-781 1114.4673,-832.0399 1215.8948,-828.9148 1269.9784,-822.6941"/>
<polygon fill="#000000" stroke="#000000" points="1270.6499,-826.1375 1280.1384,-821.4238 1269.7815,-819.1916 1270.6499,-826.1375"/>
<text text-anchor="middle" x="954.704" y="-734" font-family="Courier,monospace" font-weight="bold" font-size="10.00" fill="#000000">0.24997501249375312</text>
</g>
<!-- STATE_I,2,0&#45;&gt;SYMBOL_A -->
<g id="edge29" class="edge">
<title>STATE_I,2,0&#45;&gt;SYMBOL_A</title>
<path fill="none" stroke="#000000" stroke-dasharray="5,2" d="M646.6138,-313.4367C694.2112,-323.8967 792.1362,-344.8378 875.704,-359 1023.4432,-384.0373 1065.2227,-365.2649 1209.704,-405 1231.6209,-411.0276 1255.1283,-420.8709 1273.5119,-429.4019"/>
<polygon fill="#000000" stroke="#000000" points="1272.087,-432.5997 1282.6228,-433.7163 1275.0829,-426.2732 1272.087,-432.5997"/>
<text text-anchor="middle" x="954.704" y="-378" font-family="Courier,monospace" font-weight="bold" font-size="10.00" fill="#000000">9.995002498750626e&#45;05</text>
</g>
<!-- STATE_I,2,1&#45;&gt;STATE_T,2,1 -->
<g id="edge9" class="edge">
<title>STATE_I,2,1&#45;&gt;STATE_T,2,1</title>
<path fill="none" stroke="#000000" d="M988.1233,-558.4529C1003.8775,-553.7892 1021.7858,-545.9632 1033.704,-533 1051.9716,-513.1307 1034.7571,-496.0071 1051.704,-475 1067.4496,-455.482 1210.3862,-380.5178 1275.1115,-347.1642"/>
<polygon fill="#000000" stroke="#000000" points="1276.7776,-350.2431 1284.0692,-342.5566 1273.5757,-344.0183 1276.7776,-350.2431"/>
<text text-anchor="middle" x="1130.704" y="-478" font-family="Courier,monospace" font-weight="bold" font-size="10.00" fill="#000000">1.0</text>
</g>
<!-- STATE_I,2,1&#45;&gt;SYMBOL_? -->
<g id="edge30" class="edge">
<title>STATE_I,2,1&#45;&gt;SYMBOL_?</title>
<path fill="none" stroke="#000000" stroke-dasharray="5,2" d="M984.5779,-570.1039C1001.3303,-574.4839 1021.2931,-582.4961 1033.704,-597 1056.5536,-623.7031 1024.8001,-651.3872 1051.704,-674 1108.5477,-721.7773 1327.2063,-729.7373 1385.704,-684 1437.3881,-643.59 1462.9765,-436.232 1470.7822,-359.5519"/>
<polygon fill="#000000" stroke="#000000" points="1474.3026,-359.5185 1471.8059,-349.2221 1467.3367,-358.8282 1474.3026,-359.5185"/>
<text text-anchor="middle" x="1306.704" y="-717" font-family="Courier,monospace" font-weight="bold" font-size="10.00" fill="#000000">9.995002498750626e&#45;05</text>
</g>
<!-- STATE_I,2,1&#45;&gt;SYMBOL_C -->
<g id="edge31" class="edge">
<title>STATE_I,2,1&#45;&gt;SYMBOL_C</title>
<path fill="none" stroke="#000000" stroke-dasharray="5,2" d="M984.0152,-571.1008C1000.369,-575.801 1020.119,-583.801 1033.704,-597 1047.9775,-610.8679 1035.4579,-626.5059 1051.704,-638 1085.5344,-661.9349 1205.6469,-661.0642 1268.1982,-658.8388"/>
<polygon fill="#000000" stroke="#000000" points="1268.5907,-662.3263 1278.4484,-658.4435 1268.3209,-655.3315 1268.5907,-662.3263"/>
<text text-anchor="middle" x="1130.704" y="-662" font-family="Courier,monospace" font-weight="bold" font-size="10.00" fill="#000000">0.49985007496251876</text>
</g>
<!-- STATE_I,2,1&#45;&gt;SYMBOL_G -->
<g id="edge32" class="edge">
<title>STATE_I,2,1&#45;&gt;SYMBOL_G</title>
<path fill="none" stroke="#000000" stroke-dasharray="5,2" d="M988.5857,-559.719C1004.8603,-555.3575 1023.0897,-547.4199 1033.704,-533 1062.2573,-494.2094 1023.0452,-355.7127 1051.704,-317 1096.685,-256.2392 1144.4133,-292.1088 1209.704,-254 1224.8127,-245.1814 1259.6108,-216.317 1283.1491,-196.2908"/>
<polygon fill="#000000" stroke="#000000" points="1285.6243,-198.7796 1290.9546,-189.6232 1281.0777,-193.4571 1285.6243,-198.7796"/>
<text text-anchor="middle" x="1130.704" y="-320" font-family="Courier,monospace" font-weight="bold" font-size="10.00" fill="#000000">9.995002498750626e&#45;05</text>
</g>
<!-- STATE_I,2,1&#45;&gt;SYMBOL_T -->
<g id="edge33" class="edge">
<title>STATE_I,2,1&#45;&gt;SYMBOL_T</title>
<path fill="none" stroke="#000000" stroke-dasharray="5,2" d="M985.0501,-569.7171C1001.965,-573.9642 1021.9328,-581.9723 1033.704,-597 1068.3155,-641.1867 1015.1414,-679.4137 1051.704,-722 1099.5116,-777.684 1141.3611,-743.2508 1209.704,-770 1231.7667,-778.6353 1255.7323,-790.2252 1274.3222,-799.735"/>
<polygon fill="#000000" stroke="#000000" points="1272.7588,-802.8668 1283.249,-804.3526 1275.975,-796.6494 1272.7588,-802.8668"/>
<text text-anchor="middle" x="1130.704" y="-773" font-family="Courier,monospace" font-weight="bold" font-size="10.00" fill="#000000">9.995002498750626e&#45;05</text>
</g>
<!-- STATE_I,2,1&#45;&gt;SYMBOL_A -->
<g id="edge34" class="edge">
<title>STATE_I,2,1&#45;&gt;SYMBOL_A</title>
<path fill="none" stroke="#000000" stroke-dasharray="5,2" d="M987.3349,-566.6862C1047.0322,-569.2675 1171.2355,-572.16 1209.704,-554 1246.808,-536.4842 1275.9496,-497.5674 1292.25,-471.554"/>
<polygon fill="#000000" stroke="#000000" points="1295.2772,-473.312 1297.4721,-462.947 1289.2925,-469.6809 1295.2772,-473.312"/>
<text text-anchor="middle" x="1130.704" y="-571" font-family="Courier,monospace" font-weight="bold" font-size="10.00" fill="#000000">0.49985007496251876</text>
</g>
<!-- STATE_M,1,1 -->
<g id="node8" class="node">
<title>STATE_M,1,1</title>
<polygon fill="none" stroke="#000000" points="620.8229,-834.0493 622.8879,-834.1479 624.9315,-834.2953 626.9454,-834.4913 628.9215,-834.7353 630.8518,-835.0266 632.7287,-835.3645 634.5449,-835.7479 636.2934,-836.1759 637.9679,-836.6472 639.5623,-837.1606 641.0709,-837.7147 642.4889,-838.308 643.8117,-838.9388 645.0354,-839.6054 646.1566,-840.3059 647.1725,-841.0385 648.081,-841.8012 648.8805,-842.5918 649.57,-843.4082 650.1489,-844.2481 650.6175,-845.1093 650.9764,-845.9894 651.2267,-846.886 651.3701,-847.7965 651.4086,-848.7186 651.3449,-849.6497 651.1819,-850.5873 650.9228,-851.5287 650.5712,-852.4713 650.1309,-853.4127 649.6061,-854.3503 649.001,-855.2814 648.3199,-856.2035 647.5675,-857.114 646.7483,-858.0106 645.8669,-858.8907 644.9277,-859.7519 643.9354,-860.5918 642.8943,-861.4082 641.8088,-862.1988 640.683,-862.9615 639.5208,-863.6941 638.3261,-864.3946 637.1025,-865.0612 635.8532,-865.692 634.5814,-866.2853 633.29,-866.8394 631.9817,-867.3528 630.6589,-867.8241 629.3236,-868.2521 627.978,-868.6355 626.6237,-868.9734 625.2624,-869.2647 623.8953,-869.5087 622.5238,-869.7047 621.149,-869.8521 619.7719,-869.9507 618.3935,-870 617.0145,-870 615.6361,-869.9507 614.259,-869.8521 612.8842,-869.7047 611.5127,-869.5087 610.1456,-869.2647 608.7843,-868.9734 607.43,-868.6355 606.0844,-868.2521 604.7491,-867.8241 603.4263,-867.3528 602.1179,-866.8394 600.8266,-866.2853 599.5548,-865.692 598.3055,-865.0612 597.0819,-864.3946 595.8872,-863.6941 594.725,-862.9615 593.5992,-862.1988 592.5137,-861.4082 591.4726,-860.5918 590.4803,-859.7519 589.5411,-858.8907 588.6597,-858.0106 587.8405,-857.114 587.0881,-856.2035 586.407,-855.2814 585.8019,-854.3503 585.2771,-853.4127 584.8368,-852.4713 584.4852,-851.5287 584.2261,-850.5873 584.0631,-849.6497 583.9994,-848.7186 584.0379,-847.7965 584.1813,-846.886 584.4316,-845.9894 584.7905,-845.1093 585.2591,-844.2481 585.838,-843.4082 586.5275,-842.5918 587.327,-841.8012 588.2355,-841.0385 589.2514,-840.3059 590.3726,-839.6054 591.5963,-838.9388 592.9191,-838.308 594.337,-837.7147 595.8457,-837.1606 597.4401,-836.6472 599.1146,-836.1759 600.8631,-835.7479 602.6793,-835.3645 604.5562,-835.0266 606.4865,-834.7353 608.4626,-834.4913 610.4765,-834.2953 612.5201,-834.1479 614.5851,-834.0493 616.6629,-834 618.7451,-834 620.8229,-834.0493"/>
<text text-anchor="middle" x="617.704" y="-849.5" font-family="Courier,monospace" font-weight="bold" font-size="10.00" fill="#000000">M,1,1</text>
</g>
<!-- STATE_M,1,1&#45;&gt;STATE_I,2,1 -->
<g id="edge10" class="edge">
<title>STATE_M,1,1&#45;&gt;STATE_I,2,1</title>
<path fill="none" stroke="#000000" d="M631.9951,-834.9356C647.1419,-817.9013 672.5826,-792.1404 699.704,-777 763.4574,-741.4098 809.9478,-787.2314 857.704,-732 897.295,-686.2119 838.6277,-644.8471 875.704,-597 885.2041,-584.7401 900.1676,-577.1551 914.5285,-572.4721"/>
<polygon fill="#000000" stroke="#000000" points="915.6509,-575.7914 924.2997,-569.6718 913.7224,-569.0622 915.6509,-575.7914"/>
<text text-anchor="middle" x="778.704" y="-780" font-family="Courier,monospace" font-weight="bold" font-size="10.00" fill="#000000">1.0</text>
</g>
<!-- STATE_M,1,1&#45;&gt;SYMBOL_? -->
<g id="edge35" class="edge">
<title>STATE_M,1,1&#45;&gt;SYMBOL_?</title>
<path fill="none" stroke="#000000" stroke-dasharray="5,2" d="M647.6822,-857.134C659.5428,-860.4884 672.51,-865.9948 681.704,-875 697.6841,-890.6519 681.906,-908.451 699.704,-922 762.2334,-969.6013 797.2088,-935.2178 875.704,-939 1103.4208,-949.9722 1203.7985,-1021.4252 1385.704,-884 1416.0153,-861.1005 1415.5181,-845.3048 1426.704,-809 1452.8948,-723.9951 1467.8968,-448.6766 1472.1684,-359.3017"/>
<polygon fill="#000000" stroke="#000000" points="1475.6737,-359.2694 1472.647,-349.1162 1468.6814,-358.9409 1475.6737,-359.2694"/>
<text text-anchor="middle" x="1130.704" y="-970" font-family="Courier,monospace" font-weight="bold" font-size="10.00" fill="#000000">9.995002498750626e&#45;05</text>
</g>
<!-- STATE_M,1,1&#45;&gt;SYMBOL_C -->
<g id="edge36" class="edge">
<title>STATE_M,1,1&#45;&gt;SYMBOL_C</title>
<path fill="none" stroke="#000000" stroke-dasharray="5,2" d="M651.4215,-847.9717C775.3906,-833.0946 1199.3003,-781.6103 1209.704,-772 1237.431,-746.3874 1203.3944,-717.8762 1227.704,-689 1238.4924,-676.185 1255.1872,-668.4463 1270.4553,-663.8002"/>
<polygon fill="#000000" stroke="#000000" points="1271.462,-667.1539 1280.2061,-661.1715 1269.6398,-660.3952 1271.462,-667.1539"/>
<text text-anchor="middle" x="954.704" y="-822" font-family="Courier,monospace" font-weight="bold" font-size="10.00" fill="#000000">9.995002498750626e&#45;05</text>
</g>
<!-- STATE_M,1,1&#45;&gt;SYMBOL_G -->
<g id="edge37" class="edge">
<title>STATE_M,1,1&#45;&gt;SYMBOL_G</title>
<path fill="none" stroke="#000000" stroke-dasharray="5,2" d="M628.6087,-834.4819C648.4916,-802.7851 689.5292,-738.5702 699.704,-732 759.6153,-693.3133 810.6985,-757.6331 857.704,-704 887.7592,-669.7072 847.1227,-329.5305 875.704,-294 921.2472,-237.3836 976.5543,-296.8722 1033.704,-252 1046.8442,-241.6827 1038.0996,-228.697 1051.704,-219 1056.1377,-215.8397 1200.3505,-192.7662 1269.8999,-181.7822"/>
<polygon fill="#000000" stroke="#000000" points="1270.6589,-185.2058 1279.9915,-180.1905 1269.5683,-178.2913 1270.6589,-185.2058"/>
<text text-anchor="middle" x="954.704" y="-297" font-family="Courier,monospace" font-weight="bold" font-size="10.00" fill="#000000">9.995002498750626e&#45;05</text>
</g>
<!-- STATE_M,1,1&#45;&gt;SYMBOL_T -->
<g id="edge38" class="edge">
<title>STATE_M,1,1&#45;&gt;SYMBOL_T</title>
<path fill="none" stroke="#000000" stroke-dasharray="5,2" d="M636.058,-865.9272C651.9413,-877.0526 676.0237,-891.7756 699.704,-898 809.3143,-926.8111 1103.2765,-937.9573 1209.704,-899 1241.5541,-887.3414 1270.1471,-860.0919 1287.8996,-840.1945"/>
<polygon fill="#000000" stroke="#000000" points="1290.7047,-842.3016 1294.6001,-832.4489 1285.4107,-837.7219 1290.7047,-842.3016"/>
<text text-anchor="middle" x="954.704" y="-927" font-family="Courier,monospace" font-weight="bold" font-size="10.00" fill="#000000">0.99960019990005</text>
</g>
<!-- STATE_M,1,1&#45;&gt;SYMBOL_A -->
<g id="edge39" class="edge">
<title>STATE_M,1,1&#45;&gt;SYMBOL_A</title>
<path fill="none" stroke="#000000" stroke-dasharray="5,2" d="M644.9506,-839.5259C660.6917,-832.7037 681.0186,-824.5388 699.704,-819 768.3142,-798.6622 808.1529,-839.6302 857.704,-788 894.134,-750.0414 840.5047,-710.1026 875.704,-671 978.4083,-556.9068 1083.5428,-670.4573 1209.704,-583 1250.3344,-554.8343 1279.7109,-503.8381 1294.907,-472.6371"/>
<polygon fill="#000000" stroke="#000000" points="1298.2317,-473.7934 1299.3389,-463.2565 1291.9025,-470.8031 1298.2317,-473.7934"/>
<text text-anchor="middle" x="954.704" y="-674" font-family="Courier,monospace" font-weight="bold" font-size="10.00" fill="#000000">9.995002498750626e&#45;05</text>
</g>
<!-- STATE_M,2,1&#45;&gt;STATE_T,2,1 -->
<g id="edge11" class="edge">
<title>STATE_M,2,1&#45;&gt;STATE_T,2,1</title>
<path fill="none" stroke="#000000" d="M987.8193,-331.9059C1051.7132,-331.7244 1191.9755,-331.3259 1263.2634,-331.1234"/>
<polygon fill="#000000" stroke="#000000" points="1263.6871,-334.6223 1273.6771,-331.0938 1263.6672,-327.6223 1263.6871,-334.6223"/>
<text text-anchor="middle" x="1130.704" y="-335" font-family="Courier,monospace" font-weight="bold" font-size="10.00" fill="#000000">1.0</text>
</g>
<!-- STATE_M,2,1&#45;&gt;SYMBOL_? -->
<g id="edge40" class="edge">
<title>STATE_M,2,1&#45;&gt;SYMBOL_?</title>
<path fill="none" stroke="#000000" stroke-dasharray="5,2" d="M985.5746,-322.2502C1000.8756,-316.5664 1019.144,-308.443 1033.704,-298 1043.4217,-291.0301 1040.7797,-282.8653 1051.704,-278 1119.5743,-247.7731 1313.6593,-274.8449 1385.704,-293 1404.6773,-297.7812 1424.7796,-306.2152 1440.9492,-313.9247"/>
<polygon fill="#000000" stroke="#000000" points="1439.4568,-317.091 1449.9769,-318.3472 1442.5364,-310.8048 1439.4568,-317.091"/>
<text text-anchor="middle" x="1306.704" y="-296" font-family="Courier,monospace" font-weight="bold" font-size="10.00" fill="#000000">9.995002498750626e&#45;05</text>
</g>
<!-- STATE_M,2,1&#45;&gt;SYMBOL_C -->
<g id="edge41" class="edge">
<title>STATE_M,2,1&#45;&gt;SYMBOL_C</title>
<path fill="none" stroke="#000000" stroke-dasharray="5,2" d="M985.0309,-336.7322C1001.9391,-340.9845 1021.9068,-348.9927 1033.704,-364 1067.5766,-407.0894 1012.9107,-447.2815 1051.704,-486 1101.9304,-536.1295 1149.8687,-470.8504 1209.704,-509 1254.6178,-537.636 1283.1881,-595.3723 1296.9506,-629.6547"/>
<polygon fill="#000000" stroke="#000000" points="1293.7214,-631.0082 1300.5948,-639.0709 1300.2495,-628.4817 1293.7214,-631.0082"/>
<text text-anchor="middle" x="1130.704" y="-512" font-family="Courier,monospace" font-weight="bold" font-size="10.00" fill="#000000">9.995002498750626e&#45;05</text>
</g>
<!-- STATE_M,2,1&#45;&gt;SYMBOL_G -->
<g id="edge42" class="edge">
<title>STATE_M,2,1&#45;&gt;SYMBOL_G</title>
<path fill="none" stroke="#000000" stroke-dasharray="5,2" d="M987.7826,-324.7107C1003.6464,-319.654 1021.7518,-311.349 1033.704,-298 1051.9915,-277.5752 1030.9064,-256.8623 1051.704,-239 1105.5368,-192.7649 1141.2718,-234.7801 1209.704,-216 1232.8903,-209.6369 1257.9534,-199.2018 1276.7942,-190.5853"/>
<polygon fill="#000000" stroke="#000000" points="1278.4521,-193.6741 1286.0366,-186.2764 1275.4943,-187.3297 1278.4521,-193.6741"/>
<text text-anchor="middle" x="1130.704" y="-242" font-family="Courier,monospace" font-weight="bold" font-size="10.00" fill="#000000">9.995002498750626e&#45;05</text>
</g>
<!-- STATE_M,2,1&#45;&gt;SYMBOL_T -->
<g id="edge43" class="edge">
<title>STATE_M,2,1&#45;&gt;SYMBOL_T</title>
<path fill="none" stroke="#000000" stroke-dasharray="5,2" d="M985.2071,-336.596C1002.1759,-340.8014 1022.1454,-348.8082 1033.704,-364 1075.9645,-419.5443 1002.7804,-470.2246 1051.704,-520 1101.3611,-570.5217 1160.5006,-490.0363 1209.704,-541 1238.3935,-570.7159 1211.3925,-688.0519 1227.704,-726 1239.4152,-753.2458 1262.3782,-778.2192 1280.542,-795.0833"/>
<polygon fill="#000000" stroke="#000000" points="1278.2158,-797.6986 1287.9858,-801.7972 1282.9042,-792.5005 1278.2158,-797.6986"/>
<text text-anchor="middle" x="1130.704" y="-544" font-family="Courier,monospace" font-weight="bold" font-size="10.00" fill="#000000">0.99960019990005</text>
</g>
<!-- STATE_M,2,1&#45;&gt;SYMBOL_A -->
<g id="edge44" class="edge">
<title>STATE_M,2,1&#45;&gt;SYMBOL_A</title>
<path fill="none" stroke="#000000" stroke-dasharray="5,2" d="M985.9813,-335.7051C1051.8268,-343.5688 1199.5454,-361.5715 1209.704,-366 1239.2939,-378.8994 1267.0648,-403.5896 1285.245,-422.1449"/>
<polygon fill="#000000" stroke="#000000" points="1282.9904,-424.852 1292.4267,-429.6693 1288.0542,-420.0189 1282.9904,-424.852"/>
<text text-anchor="middle" x="1130.704" y="-369" font-family="Courier,monospace" font-weight="bold" font-size="10.00" fill="#000000">9.995002498750626e&#45;05</text>
</g>
<!-- STATE_S,0,0 -->
<g id="node10" class="node">
<title>STATE_S,0,0</title>
<polygon fill="none" stroke="#000000" points="36.9709,-706.0493 39.0359,-706.1479 41.0795,-706.2953 43.0934,-706.4913 45.0695,-706.7353 46.9998,-707.0266 48.8767,-707.3645 50.6929,-707.7479 52.4414,-708.1759 54.1159,-708.6472 55.7103,-709.1606 57.219,-709.7147 58.6369,-710.308 59.9597,-710.9388 61.1834,-711.6054 62.3046,-712.3059 63.3205,-713.0385 64.229,-713.8012 65.0285,-714.5918 65.718,-715.4082 66.2969,-716.2481 66.7655,-717.1093 67.1244,-717.9894 67.3747,-718.886 67.5181,-719.7965 67.5566,-720.7186 67.4929,-721.6497 67.3299,-722.5873 67.0708,-723.5287 66.7192,-724.4713 66.2789,-725.4127 65.7541,-726.3503 65.149,-727.2814 64.4679,-728.2035 63.7155,-729.114 62.8963,-730.0106 62.0149,-730.8907 61.0757,-731.7519 60.0834,-732.5918 59.0423,-733.4082 57.9568,-734.1988 56.831,-734.9615 55.6688,-735.6941 54.4741,-736.3946 53.2505,-737.0612 52.0012,-737.692 50.7294,-738.2853 49.438,-738.8394 48.1297,-739.3528 46.8069,-739.8241 45.4716,-740.2521 44.126,-740.6355 42.7717,-740.9734 41.4104,-741.2647 40.0433,-741.5087 38.6718,-741.7047 37.297,-741.8521 35.9199,-741.9507 34.5415,-742 33.1625,-742 31.7841,-741.9507 30.407,-741.8521 29.0322,-741.7047 27.6607,-741.5087 26.2936,-741.2647 24.9323,-740.9734 23.578,-740.6355 22.2324,-740.2521 20.8971,-739.8241 19.5743,-739.3528 18.2659,-738.8394 16.9746,-738.2853 15.7028,-737.692 14.4535,-737.0612 13.2299,-736.3946 12.0352,-735.6941 10.873,-734.9615 9.7472,-734.1988 8.6617,-733.4082 7.6206,-732.5918 6.6283,-731.7519 5.6891,-730.8907 4.8077,-730.0106 3.9885,-729.114 3.2361,-728.2035 2.555,-727.2814 1.9499,-726.3503 1.4251,-725.4127 .9848,-724.4713 .6332,-723.5287 .3741,-722.5873 .2111,-721.6497 .1474,-720.7186 .1859,-719.7965 .3293,-718.886 .5796,-717.9894 .9385,-717.1093 1.4071,-716.2481 1.986,-715.4082 2.6755,-714.5918 3.475,-713.8012 4.3835,-713.0385 5.3994,-712.3059 6.5206,-711.6054 7.7443,-710.9388 9.0671,-710.308 10.485,-709.7147 11.9937,-709.1606 13.5881,-708.6472 15.2626,-708.1759 17.0111,-707.7479 18.8273,-707.3645 20.7042,-707.0266 22.6345,-706.7353 24.6106,-706.4913 26.6245,-706.2953 28.6681,-706.1479 30.7331,-706.0493 32.8109,-706 34.8931,-706 36.9709,-706.0493"/>
<text text-anchor="middle" x="33.852" y="-721.5" font-family="Courier,monospace" font-weight="bold" font-size="10.00" fill="#000000">S,0,0</text>
</g>
<!-- STATE_S,0,0&#45;&gt;STATE_D,0,1 -->
<g id="edge12" class="edge">
<title>STATE_S,0,0&#45;&gt;STATE_D,0,1</title>
<path fill="none" stroke="#000000" d="M66.9718,-724C116.996,-724 211.8597,-724 267.3337,-724"/>
<polygon fill="#000000" stroke="#000000" points="267.5461,-727.5001 277.5461,-724 267.5461,-720.5001 267.5461,-727.5001"/>
<text text-anchor="middle" x="157.204" y="-727" font-family="Courier,monospace" font-weight="bold" font-size="10.00" fill="#000000">0.11117775778377598</text>
</g>
<!-- STATE_S,0,0&#45;&gt;STATE_I,1,0 -->
<g id="edge13" class="edge">
<title>STATE_S,0,0&#45;&gt;STATE_I,1,0</title>
<path fill="none" stroke="#000000" d="M51.5915,-707.8529C99.7076,-664.056 232.714,-542.9891 287.0824,-493.5012"/>
<polygon fill="#000000" stroke="#000000" points="289.4747,-496.0565 294.5139,-486.7368 284.7627,-490.8798 289.4747,-496.0565"/>
<text text-anchor="middle" x="157.204" y="-678" font-family="Courier,monospace" font-weight="bold" font-size="10.00" fill="#000000">0.444411121108112</text>
</g>
<!-- STATE_S,0,0&#45;&gt;STATE_M,1,1 -->
<g id="edge14" class="edge">
<title>STATE_S,0,0&#45;&gt;STATE_M,1,1</title>
<path fill="none" stroke="#000000" d="M60.664,-732.1566C68.6852,-734.4883 77.5227,-736.9506 85.704,-739 265.8378,-784.123 483.1839,-826.6075 574.2513,-843.876"/>
<polygon fill="#000000" stroke="#000000" points="573.7321,-847.3398 584.2084,-845.7589 575.0329,-840.4617 573.7321,-847.3398"/>
<text text-anchor="middle" x="310.704" y="-807" font-family="Courier,monospace" font-weight="bold" font-size="10.00" fill="#000000">0.444411121108112</text>
</g>
<!-- STATE_T,2,1&#45;&gt;SYMBOL_? -->
<g id="edge45" class="edge">
<title>STATE_T,2,1&#45;&gt;SYMBOL_?</title>
<path fill="none" stroke="#000000" stroke-dasharray="5,2" d="M1340.0463,-331C1367.3863,-331 1406.1167,-331 1434.807,-331"/>
<polygon fill="#000000" stroke="#000000" points="1434.8832,-334.5001 1444.8832,-331 1434.8832,-327.5001 1434.8832,-334.5001"/>
<text text-anchor="middle" x="1415.204" y="-334" font-family="Courier,monospace" font-weight="bold" font-size="10.00" fill="#000000">1.0</text>
</g>
</g>
</svg>
