<?xml version="1.0" encoding="UTF-8" standalone="no"?>
<!DOCTYPE svg PUBLIC "-//W3C//DTD SVG 1.1//EN"
 "http://www.w3.org/Graphics/SVG/1.1/DTD/svg11.dtd">
<!-- Generated by graphviz version 2.40.1 (0)
 -->
<!-- Title: G Pages: 1 -->
<svg width="1194pt" height="138pt"
 viewBox="0.00 0.00 1194.19 137.52" xmlns="http://www.w3.org/2000/svg" xmlns:xlink="http://www.w3.org/1999/xlink">
<g id="graph0" class="graph" transform="scale(1 1) rotate(0) translate(4 133.5224)">
<title>G</title>
<polygon fill="#ffffff" stroke="transparent" points="-4,4 -4,-133.5224 1190.1853,-133.5224 1190.1853,4 -4,4"/>
<text text-anchor="middle" x="593.0927" y="-114.3224" font-family="Times,serif" font-size="14.00" fill="#000000">Right&#45;hand side</text>
<!-- (&#45;1, &#39;SINK&#39;) -->
<g id="node1" class="node">
<title>(&#45;1, &#39;SINK&#39;)</title>
<polygon fill="none" stroke="#000000" points="1082.3136,-48.836 1089.3237,-48.9534 1096.2614,-49.1291 1103.0982,-49.3625 1109.8064,-49.6532 1116.3593,-50.0002 1122.7309,-50.4027 1128.8964,-50.8595 1134.8324,-51.3693 1140.5169,-51.9308 1145.9294,-52.5425 1151.051,-53.2026 1155.8647,-53.9093 1160.3552,-54.6607 1164.5092,-55.4548 1168.3154,-56.2894 1171.7643,-57.1622 1174.8485,-58.0707 1177.5626,-59.0126 1179.9032,-59.9851 1181.8686,-60.9857 1183.4594,-62.0117 1184.6776,-63.0601 1185.5273,-64.1282 1186.0141,-65.2129 1186.145,-66.3114 1185.9288,-67.4206 1185.3753,-68.5375 1184.4956,-69.659 1183.302,-70.782 1181.8074,-71.9035 1180.0257,-73.0203 1177.9715,-74.1295 1175.6596,-75.228 1173.1054,-76.3128 1170.3243,-77.3808 1167.332,-78.4293 1164.1438,-79.4552 1160.7751,-80.4558 1157.2409,-81.4284 1153.5558,-82.3702 1149.7339,-83.2788 1145.7886,-84.1515 1141.7329,-84.9861 1137.5789,-85.7802 1133.3379,-86.5317 1129.0205,-87.2384 1124.6367,-87.8985 1120.1952,-88.5101 1115.7044,-89.0716 1111.1716,-89.5815 1106.6035,-90.0383 1102.006,-90.4407 1097.3845,-90.7877 1092.7437,-91.0784 1088.0879,-91.3119 1083.4207,-91.4876 1078.7457,-91.605 1074.0662,-91.6637 1069.3851,-91.6637 1064.7056,-91.605 1060.0306,-91.4876 1055.3635,-91.3119 1050.7076,-91.0784 1046.0668,-90.7877 1041.4453,-90.4407 1036.8479,-90.0383 1032.2798,-89.5815 1027.747,-89.0716 1023.2561,-88.5101 1018.8147,-87.8985 1014.4308,-87.2384 1010.1135,-86.5317 1005.8725,-85.7802 1001.7184,-84.9861 997.6627,-84.1515 993.7175,-83.2788 989.8955,-82.3702 986.2104,-81.4284 982.6763,-80.4558 979.3076,-79.4552 976.1194,-78.4293 973.127,-77.3808 970.346,-76.3128 967.7917,-75.228 965.4799,-74.1295 963.4256,-73.0203 961.644,-71.9035 960.1494,-70.782 958.9557,-69.659 958.0761,-68.5375 957.5226,-67.4206 957.3063,-66.3114 957.4373,-65.2129 957.9241,-64.1282 958.7737,-63.0601 959.992,-62.0117 961.5827,-60.9857 963.5482,-59.9851 965.8887,-59.0126 968.6028,-58.0707 971.687,-57.1622 975.1359,-56.2894 978.9421,-55.4548 983.0962,-54.6607 987.5867,-53.9093 992.4004,-53.2026 997.522,-52.5425 1002.9344,-51.9308 1008.6189,-51.3693 1014.5549,-50.8595 1020.7205,-50.4027 1027.092,-50.0002 1033.6449,-49.6532 1040.3532,-49.3625 1047.19,-49.1291 1054.1276,-48.9534 1061.1377,-48.836 1068.1915,-48.7772 1075.2599,-48.7772 1082.3136,-48.836"/>
<text text-anchor="middle" x="1071.7257" y="-73.2205" font-family="Courier,monospace" font-weight="bold" font-size="10.00" fill="#000000">(&#45;1, &#39;SINK&#39;)</text>
<text text-anchor="middle" x="1071.7257" y="-62.2205" font-family="Courier,monospace" font-weight="bold" font-size="10.00" fill="#000000">0.8585641932491518</text>
</g>
<!-- (1, &#39;B&#39;) -->
<g id="node2" class="node">
<title>(1, &#39;B&#39;)</title>
<polygon fill="none" stroke="#000000" points="63.3468,-28.836 66.8982,-28.9534 70.4128,-29.1291 73.8764,-29.3625 77.2749,-29.6532 80.5946,-30.0002 83.8225,-30.4027 86.946,-30.8595 89.9532,-31.3693 92.833,-31.9308 95.575,-32.5425 98.1697,-33.2026 100.6083,-33.9093 102.8833,-34.6607 104.9877,-35.4548 106.916,-36.2894 108.6632,-37.1622 110.2257,-38.0707 111.6007,-39.0126 112.7864,-39.9851 113.7821,-40.9857 114.588,-42.0117 115.2052,-43.0601 115.6356,-44.1282 115.8822,-45.2129 115.9486,-46.3114 115.839,-47.4206 115.5586,-48.5375 115.113,-49.659 114.5083,-50.782 113.7511,-51.9035 112.8485,-53.0203 111.8078,-54.1295 110.6366,-55.228 109.3426,-56.3128 107.9337,-57.3808 106.4177,-58.4293 104.8026,-59.4552 103.096,-60.4558 101.3055,-61.4284 99.4386,-62.3702 97.5024,-63.2788 95.5037,-64.1515 93.4491,-64.9861 91.3446,-65.7802 89.1961,-66.5317 87.0089,-67.2384 84.788,-67.8985 82.5379,-68.5101 80.2628,-69.0716 77.9665,-69.5815 75.6522,-70.0383 73.3231,-70.4407 70.9818,-70.7877 68.6308,-71.0784 66.2721,-71.3119 63.9076,-71.4876 61.5393,-71.605 59.1686,-71.6637 56.7971,-71.6637 54.4264,-71.605 52.0581,-71.4876 49.6936,-71.3119 47.3349,-71.0784 44.9839,-70.7877 42.6426,-70.4407 40.3135,-70.0383 37.9993,-69.5815 35.7029,-69.0716 33.4278,-68.5101 31.1777,-67.8985 28.9568,-67.2384 26.7696,-66.5317 24.6211,-65.7802 22.5167,-64.9861 20.462,-64.1515 18.4633,-63.2788 16.5271,-62.3702 14.6602,-61.4284 12.8697,-60.4558 11.1631,-59.4552 9.548,-58.4293 8.032,-57.3808 6.6231,-56.3128 5.3291,-55.228 4.1579,-54.1295 3.1172,-53.0203 2.2146,-51.9035 1.4574,-50.782 .8527,-49.659 .4071,-48.5375 .1267,-47.4206 .0171,-46.3114 .0835,-45.2129 .3301,-44.1282 .7605,-43.0601 1.3777,-42.0117 2.1836,-40.9857 3.1793,-39.9851 4.365,-39.0126 5.74,-38.0707 7.3025,-37.1622 9.0497,-36.2894 10.978,-35.4548 13.0825,-34.6607 15.3574,-33.9093 17.796,-33.2026 20.3907,-32.5425 23.1327,-31.9308 26.0125,-31.3693 29.0197,-30.8595 32.1432,-30.4027 35.3711,-30.0002 38.6908,-29.6532 42.0893,-29.3625 45.5529,-29.1291 49.0675,-28.9534 52.6189,-28.836 56.1924,-28.7772 59.7733,-28.7772 63.3468,-28.836"/>
<text text-anchor="middle" x="57.9829" y="-53.2205" font-family="Courier,monospace" font-weight="bold" font-size="10.00" fill="#000000">(1, &#39;B&#39;)</text>
<text text-anchor="middle" x="57.9829" y="-42.2205" font-family="Courier,monospace" font-weight="bold" font-size="10.00" fill="#000000">1.0</text>
</g>
<!-- (1, &#39;C&#39;) -->
<g id="node3" class="node">
<title>(1, &#39;C&#39;)</title>
<polygon fill="none" stroke="#000000" points="277.0133,-56.836 284.0234,-56.9534 290.9611,-57.1291 297.7979,-57.3625 304.5061,-57.6532 311.059,-58.0002 317.4306,-58.4027 323.5961,-58.8595 329.5321,-59.3693 335.2166,-59.9308 340.6291,-60.5425 345.7507,-61.2026 350.5644,-61.9093 355.0549,-62.6607 359.2089,-63.4548 363.0151,-64.2894 366.464,-65.1622 369.5482,-66.0707 372.2623,-67.0126 374.6029,-67.9851 376.5683,-68.9857 378.1591,-70.0117 379.3773,-71.0601 380.227,-72.1282 380.7137,-73.2129 380.8447,-74.3114 380.6285,-75.4206 380.075,-76.5375 379.1953,-77.659 378.0017,-78.782 376.5071,-79.9035 374.7254,-81.0203 372.6712,-82.1295 370.3593,-83.228 367.8051,-84.3128 365.024,-85.3808 362.0316,-86.4293 358.8435,-87.4552 355.4748,-88.4558 351.9406,-89.4284 348.2555,-90.3702 344.4336,-91.2788 340.4883,-92.1515 336.4326,-92.9861 332.2786,-93.7802 328.0376,-94.5317 323.7202,-95.2384 319.3363,-95.8985 314.8949,-96.5101 310.4041,-97.0716 305.8713,-97.5815 301.3032,-98.0383 296.7057,-98.4407 292.0842,-98.7877 287.4434,-99.0784 282.7876,-99.3119 278.1204,-99.4876 273.4454,-99.605 268.7659,-99.6637 264.0848,-99.6637 259.4053,-99.605 254.7303,-99.4876 250.0632,-99.3119 245.4073,-99.0784 240.7665,-98.7877 236.145,-98.4407 231.5476,-98.0383 226.9795,-97.5815 222.4467,-97.0716 217.9558,-96.5101 213.5144,-95.8985 209.1305,-95.2384 204.8132,-94.5317 200.5722,-93.7802 196.4181,-92.9861 192.3624,-92.1515 188.4172,-91.2788 184.5952,-90.3702 180.9101,-89.4284 177.3759,-88.4558 174.0073,-87.4552 170.8191,-86.4293 167.8267,-85.3808 165.0457,-84.3128 162.4914,-83.228 160.1795,-82.1295 158.1253,-81.0203 156.3437,-79.9035 154.8491,-78.782 153.6554,-77.659 152.7758,-76.5375 152.2223,-75.4206 152.006,-74.3114 152.137,-73.2129 152.6237,-72.1282 153.4734,-71.0601 154.6917,-70.0117 156.2824,-68.9857 158.2479,-67.9851 160.5884,-67.0126 163.3025,-66.0707 166.3867,-65.1622 169.8356,-64.2894 173.6418,-63.4548 177.7959,-62.6607 182.2864,-61.9093 187.1001,-61.2026 192.2217,-60.5425 197.6341,-59.9308 203.3186,-59.3693 209.2546,-58.8595 215.4202,-58.4027 221.7917,-58.0002 228.3446,-57.6532 235.0529,-57.3625 241.8897,-57.1291 248.8273,-56.9534 255.8374,-56.836 262.8912,-56.7772 269.9596,-56.7772 277.0133,-56.836"/>
<text text-anchor="middle" x="266.4254" y="-81.2205" font-family="Courier,monospace" font-weight="bold" font-size="10.00" fill="#000000">(1, &#39;C&#39;)</text>
<text text-anchor="middle" x="266.4254" y="-70.2205" font-family="Courier,monospace" font-weight="bold" font-size="10.00" fill="#000000">0.6989602079584083</text>
</g>
<!-- (1, &#39;B&#39;)&#45;&gt;(1, &#39;C&#39;) -->
<g id="edge1" class="edge">
<title>(1, &#39;B&#39;)&#45;&gt;(1, &#39;C&#39;)</title>
<path fill="none" stroke="#000000" d="M108.441,-56.9985C123.2467,-58.9873 140.0458,-61.244 157.0287,-63.5253"/>
<polygon fill="#000000" stroke="#000000" points="156.6585,-67.0069 167.0355,-64.8695 157.5905,-60.0692 156.6585,-67.0069"/>
</g>
<!-- (2, &#39;A&#39;) -->
<g id="node4" class="node">
<title>(2, &#39;A&#39;)</title>
<polygon fill="none" stroke="#000000" points="547.7167,.164 555.0664,.0466 562.3401,-.1291 569.5081,-.3625 576.5414,-.6532 583.4117,-1.0002 590.0919,-1.4027 596.5561,-1.8595 602.7797,-2.3693 608.7395,-2.9308 614.4142,-3.5425 619.7839,-4.2026 624.8308,-4.9093 629.5388,-5.6607 633.8941,-6.4548 637.8847,-7.2894 641.5006,-8.1622 644.7343,-9.0707 647.5798,-10.0126 650.0337,-10.9851 652.0944,-11.9857 653.7622,-13.0117 655.0395,-14.0601 655.9303,-15.1282 656.4407,-16.2129 656.578,-17.3114 656.3513,-18.4206 655.771,-19.5375 654.8487,-20.659 653.5972,-21.782 652.0302,-22.9035 650.1623,-24.0203 648.0085,-25.1295 645.5846,-26.228 642.9067,-27.3128 639.9909,-28.3808 636.8536,-29.4293 633.5109,-30.4552 629.9791,-31.4558 626.2737,-32.4284 622.4101,-33.3702 618.403,-34.2788 614.2666,-35.1515 610.0144,-35.9861 605.6591,-36.7802 601.2127,-37.5317 596.6862,-38.2384 592.09,-38.8985 587.4334,-39.5101 582.725,-40.0716 577.9726,-40.5815 573.1832,-41.0383 568.3631,-41.4407 563.5177,-41.7877 558.6521,-42.0784 553.7707,-42.3119 548.8774,-42.4876 543.976,-42.605 539.0698,-42.6637 534.162,-42.6637 529.2557,-42.605 524.3543,-42.4876 519.4611,-42.3119 514.5796,-42.0784 509.714,-41.7877 504.8687,-41.4407 500.0485,-41.0383 495.2591,-40.5815 490.5067,-40.0716 485.7983,-39.5101 481.1417,-38.8985 476.5455,-38.2384 472.019,-37.5317 467.5726,-36.7802 463.2173,-35.9861 458.9651,-35.1515 454.8287,-34.2788 450.8217,-33.3702 446.958,-32.4284 443.2527,-31.4558 439.7208,-30.4552 436.3782,-29.4293 433.2408,-28.3808 430.325,-27.3128 427.6471,-26.228 425.2232,-25.1295 423.0695,-24.0203 421.2015,-22.9035 419.6345,-21.782 418.383,-20.659 417.4608,-19.5375 416.8805,-18.4206 416.6538,-17.3114 416.7911,-16.2129 417.3014,-15.1282 418.1923,-14.0601 419.4695,-13.0117 421.1373,-11.9857 423.198,-10.9851 425.6519,-10.0126 428.4975,-9.0707 431.7311,-8.1622 435.3471,-7.2894 439.3376,-6.4548 443.6929,-5.6607 448.401,-4.9093 453.4478,-4.2026 458.8175,-3.5425 464.4922,-2.9308 470.452,-2.3693 476.6756,-1.8595 483.1398,-1.4027 489.8201,-1.0002 496.6904,-.6532 503.7236,-.3625 510.8916,-.1291 518.1653,.0466 525.515,.164 532.9105,.2228 540.3213,.2228 547.7167,.164"/>
<text text-anchor="middle" x="536.6159" y="-24.2205" font-family="Courier,monospace" font-weight="bold" font-size="10.00" fill="#000000">(2, &#39;A&#39;)</text>
<text text-anchor="middle" x="536.6159" y="-13.2205" font-family="Courier,monospace" font-weight="bold" font-size="10.00" fill="#000000">0.17939600123562208</text>
</g>
<!-- (1, &#39;B&#39;)&#45;&gt;(2, &#39;A&#39;) -->
<g id="edge2" class="edge">
<title>(1, &#39;B&#39;)&#45;&gt;(2, &#39;A&#39;)</title>
<path fill="none" stroke="#000000" d="M116.1941,-46.6935C191.5077,-42.1303 324.4498,-34.0755 420.7137,-28.2429"/>
<polygon fill="#000000" stroke="#000000" points="421.0218,-31.7307 430.7918,-27.6323 420.5984,-24.7436 421.0218,-31.7307"/>
</g>
<!-- (2, &#39;B&#39;) -->
<g id="node5" class="node">
<title>(2, &#39;B&#39;)</title>
<polygon fill="none" stroke="#000000" points="547.7167,-59.836 555.0664,-59.9534 562.3401,-60.1291 569.5081,-60.3625 576.5414,-60.6532 583.4117,-61.0002 590.0919,-61.4027 596.5561,-61.8595 602.7797,-62.3693 608.7395,-62.9308 614.4142,-63.5425 619.7839,-64.2026 624.8308,-64.9093 629.5388,-65.6607 633.8941,-66.4548 637.8847,-67.2894 641.5006,-68.1622 644.7343,-69.0707 647.5798,-70.0126 650.0337,-70.9851 652.0944,-71.9857 653.7622,-73.0117 655.0395,-74.0601 655.9303,-75.1282 656.4407,-76.2129 656.578,-77.3114 656.3513,-78.4206 655.771,-79.5375 654.8487,-80.659 653.5972,-81.782 652.0302,-82.9035 650.1623,-84.0203 648.0085,-85.1295 645.5846,-86.228 642.9067,-87.3128 639.9909,-88.3808 636.8536,-89.4293 633.5109,-90.4552 629.9791,-91.4558 626.2737,-92.4284 622.4101,-93.3702 618.403,-94.2788 614.2666,-95.1515 610.0144,-95.9861 605.6591,-96.7802 601.2127,-97.5317 596.6862,-98.2384 592.09,-98.8985 587.4334,-99.5101 582.725,-100.0716 577.9726,-100.5815 573.1832,-101.0383 568.3631,-101.4407 563.5177,-101.7877 558.6521,-102.0784 553.7707,-102.3119 548.8774,-102.4876 543.976,-102.605 539.0698,-102.6637 534.162,-102.6637 529.2557,-102.605 524.3543,-102.4876 519.4611,-102.3119 514.5796,-102.0784 509.714,-101.7877 504.8687,-101.4407 500.0485,-101.0383 495.2591,-100.5815 490.5067,-100.0716 485.7983,-99.5101 481.1417,-98.8985 476.5455,-98.2384 472.019,-97.5317 467.5726,-96.7802 463.2173,-95.9861 458.9651,-95.1515 454.8287,-94.2788 450.8217,-93.3702 446.958,-92.4284 443.2527,-91.4558 439.7208,-90.4552 436.3782,-89.4293 433.2408,-88.3808 430.325,-87.3128 427.6471,-86.228 425.2232,-85.1295 423.0695,-84.0203 421.2015,-82.9035 419.6345,-81.782 418.383,-80.659 417.4608,-79.5375 416.8805,-78.4206 416.6538,-77.3114 416.7911,-76.2129 417.3014,-75.1282 418.1923,-74.0601 419.4695,-73.0117 421.1373,-71.9857 423.198,-70.9851 425.6519,-70.0126 428.4975,-69.0707 431.7311,-68.1622 435.3471,-67.2894 439.3376,-66.4548 443.6929,-65.6607 448.401,-64.9093 453.4478,-64.2026 458.8175,-63.5425 464.4922,-62.9308 470.452,-62.3693 476.6756,-61.8595 483.1398,-61.4027 489.8201,-61.0002 496.6904,-60.6532 503.7236,-60.3625 510.8916,-60.1291 518.1653,-59.9534 525.515,-59.836 532.9105,-59.7772 540.3213,-59.7772 547.7167,-59.836"/>
<text text-anchor="middle" x="536.6159" y="-84.2205" font-family="Courier,monospace" font-weight="bold" font-size="10.00" fill="#000000">(2, &#39;B&#39;)</text>
<text text-anchor="middle" x="536.6159" y="-73.2205" font-family="Courier,monospace" font-weight="bold" font-size="10.00" fill="#000000">0.39975520841048223</text>
</g>
<!-- (1, &#39;C&#39;)&#45;&gt;(2, &#39;B&#39;) -->
<g id="edge3" class="edge">
<title>(1, &#39;C&#39;)&#45;&gt;(2, &#39;B&#39;)</title>
<path fill="none" stroke="#000000" d="M377.4919,-79.4537C387.4257,-79.564 397.5387,-79.6763 407.6065,-79.788"/>
<polygon fill="#000000" stroke="#000000" points="407.6127,-83.2882 417.651,-79.8996 407.6905,-76.2887 407.6127,-83.2882"/>
</g>
<!-- (2, &#39;A&#39;)&#45;&gt;(&#45;1, &#39;SINK&#39;) -->
<g id="edge4" class="edge">
<title>(2, &#39;A&#39;)&#45;&gt;(&#45;1, &#39;SINK&#39;)</title>
<path fill="none" stroke="#000000" d="M652.7182,-22.5041C729.2394,-24.4439 831.5207,-29.1183 921.266,-40.2205 942.2605,-42.8176 964.71,-46.6908 985.691,-50.7983"/>
<polygon fill="#000000" stroke="#000000" points="985.0456,-54.2384 995.5372,-52.7633 986.4156,-47.3738 985.0456,-54.2384"/>
</g>
<!-- (2, &#39;B&#39;)&#45;&gt;(&#45;1, &#39;SINK&#39;) -->
<g id="edge5" class="edge">
<title>(2, &#39;B&#39;)&#45;&gt;(&#45;1, &#39;SINK&#39;)</title>
<path fill="none" stroke="#000000" d="M622.1223,-93.5463C644.8925,-96.3097 669.5097,-98.8325 692.3467,-100.2205 793.9012,-106.3927 820.0163,-110.2161 921.266,-100.2205 946.083,-97.7705 972.8722,-93.0999 996.8716,-88.1607"/>
<polygon fill="#000000" stroke="#000000" points="997.9085,-91.5192 1006.9724,-86.0332 996.4657,-84.6695 997.9085,-91.5192"/>
</g>
<!-- (2, &#39;C&#39;) -->
<g id="node6" class="node">
<title>(2, &#39;C&#39;)</title>
<polygon fill="none" stroke="#000000" points="817.3943,-48.836 824.4044,-48.9534 831.342,-49.1291 838.1788,-49.3625 844.8871,-49.6532 851.44,-50.0002 857.8116,-50.4027 863.9771,-50.8595 869.9131,-51.3693 875.5976,-51.9308 881.0101,-52.5425 886.1317,-53.2026 890.9453,-53.9093 895.4359,-54.6607 899.5899,-55.4548 903.3961,-56.2894 906.845,-57.1622 909.9292,-58.0707 912.6433,-59.0126 914.9838,-59.9851 916.9493,-60.9857 918.54,-62.0117 919.7583,-63.0601 920.608,-64.1282 921.0947,-65.2129 921.2257,-66.3114 921.0095,-67.4206 920.456,-68.5375 919.5763,-69.659 918.3826,-70.782 916.8881,-71.9035 915.1064,-73.0203 913.0522,-74.1295 910.7403,-75.228 908.1861,-76.3128 905.405,-77.3808 902.4126,-78.4293 899.2245,-79.4552 895.8558,-80.4558 892.3216,-81.4284 888.6365,-82.3702 884.8146,-83.2788 880.8693,-84.1515 876.8136,-84.9861 872.6595,-85.7802 868.4185,-86.5317 864.1012,-87.2384 859.7173,-87.8985 855.2759,-88.5101 850.7851,-89.0716 846.2523,-89.5815 841.6842,-90.0383 837.0867,-90.4407 832.4652,-90.7877 827.8244,-91.0784 823.1685,-91.3119 818.5014,-91.4876 813.8264,-91.605 809.1469,-91.6637 804.4658,-91.6637 799.7863,-91.605 795.1113,-91.4876 790.4442,-91.3119 785.7883,-91.0784 781.1475,-90.7877 776.526,-90.4407 771.9285,-90.0383 767.3604,-89.5815 762.8276,-89.0716 758.3368,-88.5101 753.8954,-87.8985 749.5115,-87.2384 745.1942,-86.5317 740.9532,-85.7802 736.7991,-84.9861 732.7434,-84.1515 728.7981,-83.2788 724.9762,-82.3702 721.2911,-81.4284 717.7569,-80.4558 714.3883,-79.4552 711.2001,-78.4293 708.2077,-77.3808 705.4266,-76.3128 702.8724,-75.228 700.5605,-74.1295 698.5063,-73.0203 696.7246,-71.9035 695.2301,-70.782 694.0364,-69.659 693.1567,-68.5375 692.6032,-67.4206 692.387,-66.3114 692.518,-65.2129 693.0047,-64.1282 693.8544,-63.0601 695.0727,-62.0117 696.6634,-60.9857 698.6289,-59.9851 700.9694,-59.0126 703.6835,-58.0707 706.7677,-57.1622 710.2166,-56.2894 714.0228,-55.4548 718.1768,-54.6607 722.6674,-53.9093 727.4811,-53.2026 732.6027,-52.5425 738.0151,-51.9308 743.6996,-51.3693 749.6356,-50.8595 755.8011,-50.4027 762.1727,-50.0002 768.7256,-49.6532 775.4339,-49.3625 782.2707,-49.1291 789.2083,-48.9534 796.2184,-48.836 803.2722,-48.7772 810.3405,-48.7772 817.3943,-48.836"/>
<text text-anchor="middle" x="806.8064" y="-73.2205" font-family="Courier,monospace" font-weight="bold" font-size="10.00" fill="#000000">(2, &#39;C&#39;)</text>
<text text-anchor="middle" x="806.8064" y="-62.2205" font-family="Courier,monospace" font-weight="bold" font-size="10.00" fill="#000000">0.2794129836030475</text>
</g>
<!-- (2, &#39;B&#39;)&#45;&gt;(2, &#39;C&#39;) -->
<g id="edge6" class="edge">
<title>(2, &#39;B&#39;)&#45;&gt;(2, &#39;C&#39;)</title>
<path fill="none" stroke="#000000" d="M656.6988,-76.3317C668.0291,-75.8704 679.5019,-75.4033 690.7933,-74.9436"/>
<polygon fill="#000000" stroke="#000000" points="691.2533,-78.4279 701.1026,-74.5239 690.9685,-71.4337 691.2533,-78.4279"/>
</g>
<!-- (2, &#39;C&#39;)&#45;&gt;(&#45;1, &#39;SINK&#39;) -->
<g id="edge7" class="edge">
<title>(2, &#39;C&#39;)&#45;&gt;(&#45;1, &#39;SINK&#39;)</title>
<path fill="none" stroke="#000000" d="M919.156,-70.2205C928.9946,-70.2205 938.9847,-70.2205 948.9023,-70.2205"/>
<polygon fill="#000000" stroke="#000000" points="949.202,-73.7206 959.202,-70.2205 949.202,-66.7206 949.202,-73.7206"/>
</g>
</g>
</svg>
