<?xml version="1.0" encoding="UTF-8" standalone="no"?>
<!DOCTYPE svg PUBLIC "-//W3C//DTD SVG 1.1//EN"
 "http://www.w3.org/Graphics/SVG/1.1/DTD/svg11.dtd">
<!-- Generated by graphviz version 2.40.1 (0)
 -->
<!-- Title: G Pages: 1 -->
<svg width="2719pt" height="192pt"
 viewBox="0.00 0.00 2719.09 191.56" xmlns="http://www.w3.org/2000/svg" xmlns:xlink="http://www.w3.org/1999/xlink">
<g id="graph0" class="graph" transform="scale(1 1) rotate(0) translate(4 187.5641)">
<title>G</title>
<polygon fill="#ffffff" stroke="transparent" points="-4,4 -4,-187.5641 2715.0864,-187.5641 2715.0864,4 -4,4"/>
<text text-anchor="middle" x="1355.5432" y="-168.3641" font-family="Times,serif" font-size="14.00" fill="#000000">ALL possible left&#45;hand sides (forward)</text>
<!-- (&#45;1, &#39;SINK&#39;) -->
<g id="node1" class="node">
<title>(&#45;1, &#39;SINK&#39;)</title>
<polygon fill="none" stroke="#000000" points="2596.9456,-15.9592 2604.6353,-16.0766 2612.2454,-16.2522 2619.7449,-16.4857 2627.1034,-16.7764 2634.2915,-17.1234 2641.2807,-17.5259 2648.0439,-17.9826 2654.5553,-18.4925 2660.7908,-19.054 2666.7279,-19.6656 2672.346,-20.3257 2677.6263,-21.0325 2682.5521,-21.7839 2687.1088,-22.578 2691.284,-23.4126 2695.0672,-24.2853 2698.4504,-25.1939 2701.4275,-26.1357 2703.995,-27.1083 2706.1509,-28.1089 2707.8959,-29.1349 2709.2322,-30.1833 2710.1643,-31.2513 2710.6982,-32.3361 2710.8419,-33.4346 2710.6047,-34.5438 2709.9975,-35.6607 2709.0326,-36.7821 2707.7232,-37.9052 2706.0838,-39.0266 2704.1294,-40.1435 2701.8761,-41.2527 2699.3401,-42.3512 2696.5383,-43.436 2693.4876,-44.504 2690.2052,-45.5524 2686.7079,-46.5784 2683.0127,-47.579 2679.136,-48.5516 2675.0936,-49.4934 2670.9012,-50.402 2666.5735,-51.2747 2662.1247,-52.1093 2657.568,-52.9034 2652.9159,-53.6548 2648.18,-54.3616 2643.3712,-55.0217 2638.4992,-55.6333 2633.5731,-56.1948 2628.6009,-56.7047 2623.59,-57.1614 2618.5469,-57.5639 2613.4774,-57.9109 2608.3868,-58.2016 2603.2796,-58.4351 2598.16,-58.6108 2593.0319,-58.7281 2587.8987,-58.7869 2582.7639,-58.7869 2577.6308,-58.7281 2572.5027,-58.6108 2567.3831,-58.4351 2562.2759,-58.2016 2557.1853,-57.9109 2552.1158,-57.5639 2547.0727,-57.1614 2542.0618,-56.7047 2537.0896,-56.1948 2532.1634,-55.6333 2527.2915,-55.0217 2522.4826,-54.3616 2517.7468,-53.6548 2513.0947,-52.9034 2508.538,-52.1093 2504.0891,-51.2747 2499.7614,-50.402 2495.569,-49.4934 2491.5267,-48.5516 2487.65,-47.579 2483.9547,-46.5784 2480.4575,-45.5524 2477.1751,-44.504 2474.1244,-43.436 2471.3226,-42.3512 2468.7866,-41.2527 2466.5333,-40.1435 2464.5789,-39.0266 2462.9394,-37.9052 2461.6301,-36.7821 2460.6652,-35.6607 2460.058,-34.5438 2459.8208,-33.4346 2459.9645,-32.3361 2460.4984,-31.2513 2461.4305,-30.1833 2462.7668,-29.1349 2464.5118,-28.1089 2466.6677,-27.1083 2469.2351,-26.1357 2472.2123,-25.1939 2475.5955,-24.2853 2479.3787,-23.4126 2483.5538,-22.578 2488.1106,-21.7839 2493.0364,-21.0325 2498.3167,-20.3257 2503.9347,-19.6656 2509.8718,-19.054 2516.1073,-18.4925 2522.6188,-17.9826 2529.382,-17.5259 2536.3712,-17.1234 2543.5592,-16.7764 2550.9178,-16.4857 2558.4173,-16.2522 2566.0274,-16.0766 2573.717,-15.9592 2581.4546,-15.9004 2589.2081,-15.9004 2596.9456,-15.9592"/>
<text text-anchor="middle" x="2585.3313" y="-40.3437" font-family="Courier,monospace" font-weight="bold" font-size="10.00" fill="#000000">(&#45;1, &#39;SINK&#39;)</text>
<text text-anchor="middle" x="2585.3313" y="-29.3437" font-family="Courier,monospace" font-weight="bold" font-size="10.00" fill="#000000">0.021937444122028846</text>
</g>
<!-- (&#45;1, &#39;SOURCE&#39;) -->
<g id="node2" class="node">
<title>(&#45;1, &#39;SOURCE&#39;)</title>
<polygon fill="none" stroke="#000000" points="100.3581,-84.9592 105.9786,-85.0766 111.5409,-85.2522 117.0225,-85.4857 122.401,-85.7764 127.6549,-86.1234 132.7634,-86.5259 137.7068,-86.9826 142.4661,-87.4925 147.0237,-88.054 151.3633,-88.6656 155.4696,-89.3257 159.3291,-90.0325 162.9295,-90.7839 166.2601,-91.578 169.3118,-92.4126 172.077,-93.2853 174.5498,-94.1939 176.7259,-95.1357 178.6025,-96.1083 180.1783,-97.1089 181.4537,-98.1349 182.4305,-99.1833 183.1117,-100.2513 183.502,-101.3361 183.607,-102.4346 183.4336,-103.5438 182.9899,-104.6607 182.2846,-105.7821 181.3275,-106.9052 180.1292,-108.0266 178.7008,-109.1435 177.0537,-110.2527 175.2001,-111.3512 173.1522,-112.436 170.9224,-113.504 168.5232,-114.5524 165.9671,-115.5784 163.2662,-116.579 160.4325,-117.5516 157.4779,-118.4934 154.4136,-119.402 151.2504,-120.2747 147.9987,-121.1093 144.6681,-121.9034 141.2678,-122.6548 137.8063,-123.3616 134.2914,-124.0217 130.7304,-124.6333 127.1298,-125.1948 123.4955,-125.7047 119.8329,-126.1614 116.1468,-126.5639 112.4415,-126.9109 108.7206,-127.2016 104.9877,-127.4351 101.2457,-127.6108 97.4974,-127.7281 93.7455,-127.7869 89.9924,-127.7869 86.2405,-127.7281 82.4922,-127.6108 78.7502,-127.4351 75.0173,-127.2016 71.2964,-126.9109 67.591,-126.5639 63.9049,-126.1614 60.2424,-125.7047 56.6081,-125.1948 53.0075,-124.6333 49.4465,-124.0217 45.9316,-123.3616 42.4701,-122.6548 39.0698,-121.9034 35.7392,-121.1093 32.4874,-120.2747 29.3243,-119.402 26.2599,-118.4934 23.3053,-117.5516 20.4717,-116.579 17.7708,-115.5784 15.2146,-114.5524 12.8154,-113.504 10.5857,-112.436 8.5378,-111.3512 6.6842,-110.2527 5.0371,-109.1435 3.6087,-108.0266 2.4103,-106.9052 1.4533,-105.7821 .748,-104.6607 .3042,-103.5438 .1309,-102.4346 .2359,-101.3361 .6261,-100.2513 1.3074,-99.1833 2.2842,-98.1349 3.5596,-97.1089 5.1354,-96.1083 7.012,-95.1357 9.1881,-94.1939 11.6609,-93.2853 14.4261,-92.4126 17.4778,-91.578 20.8084,-90.7839 24.4088,-90.0325 28.2682,-89.3257 32.3746,-88.6656 36.7141,-88.054 41.2718,-87.4925 46.0311,-86.9826 50.9745,-86.5259 56.083,-86.1234 61.3369,-85.7764 66.7154,-85.4857 72.1969,-85.2522 77.7593,-85.0766 83.3798,-84.9592 89.0353,-84.9004 94.7025,-84.9004 100.3581,-84.9592"/>
<text text-anchor="middle" x="91.8689" y="-109.3437" font-family="Courier,monospace" font-weight="bold" font-size="10.00" fill="#000000">(&#45;1, &#39;SOURCE&#39;)</text>
<text text-anchor="middle" x="91.8689" y="-98.3437" font-family="Courier,monospace" font-weight="bold" font-size="10.00" fill="#000000">1.0</text>
</g>
<!-- (0, &#39;A&#39;) -->
<g id="node3" class="node">
<title>(0, &#39;A&#39;)</title>
<polygon fill="none" stroke="#000000" points="626.0312,-117.9592 633.3809,-118.0766 640.6546,-118.2522 647.8226,-118.4857 654.8559,-118.7764 661.7262,-119.1234 668.4064,-119.5259 674.8706,-119.9826 681.0942,-120.4925 687.054,-121.054 692.7287,-121.6656 698.0984,-122.3257 703.1453,-123.0325 707.8533,-123.7839 712.2086,-124.578 716.1992,-125.4126 719.8151,-126.2853 723.0488,-127.1939 725.8943,-128.1357 728.3482,-129.1083 730.4089,-130.1089 732.0767,-131.1349 733.354,-132.1833 734.2448,-133.2513 734.7552,-134.3361 734.8925,-135.4346 734.6658,-136.5438 734.0855,-137.6607 733.1632,-138.7821 731.9117,-139.9052 730.3447,-141.0266 728.4768,-142.1435 726.323,-143.2527 723.8991,-144.3512 721.2212,-145.436 718.3054,-146.504 715.1681,-147.5524 711.8254,-148.5784 708.2936,-149.579 704.5882,-150.5516 700.7246,-151.4934 696.7175,-152.402 692.5811,-153.2747 688.3289,-154.1093 683.9736,-154.9034 679.5272,-155.6548 675.0007,-156.3616 670.4045,-157.0217 665.7479,-157.6333 661.0395,-158.1948 656.2871,-158.7047 651.4977,-159.1614 646.6776,-159.5639 641.8322,-159.9109 636.9666,-160.2016 632.0852,-160.4351 627.1919,-160.6108 622.2905,-160.7281 617.3843,-160.7869 612.4765,-160.7869 607.5702,-160.7281 602.6688,-160.6108 597.7756,-160.4351 592.8941,-160.2016 588.0285,-159.9109 583.1832,-159.5639 578.363,-159.1614 573.5736,-158.7047 568.8212,-158.1948 564.1129,-157.6333 559.4563,-157.0217 554.86,-156.3616 550.3335,-155.6548 545.8871,-154.9034 541.5318,-154.1093 537.2796,-153.2747 533.1432,-152.402 529.1362,-151.4934 525.2726,-150.5516 521.5672,-149.579 518.0353,-148.5784 514.6927,-147.5524 511.5554,-146.504 508.6396,-145.436 505.9616,-144.3512 503.5377,-143.2527 501.384,-142.1435 499.516,-141.0266 497.949,-139.9052 496.6975,-138.7821 495.7753,-137.6607 495.195,-136.5438 494.9683,-135.4346 495.1056,-134.3361 495.6159,-133.2513 496.5068,-132.1833 497.784,-131.1349 499.4518,-130.1089 501.5125,-129.1083 503.9664,-128.1357 506.812,-127.1939 510.0456,-126.2853 513.6616,-125.4126 517.6521,-124.578 522.0074,-123.7839 526.7155,-123.0325 531.7623,-122.3257 537.1321,-121.6656 542.8067,-121.054 548.7665,-120.4925 554.9901,-119.9826 561.4543,-119.5259 568.1346,-119.1234 575.0049,-118.7764 582.0381,-118.4857 589.2061,-118.2522 596.4798,-118.0766 603.8295,-117.9592 611.225,-117.9004 618.6358,-117.9004 626.0312,-117.9592"/>
<text text-anchor="middle" x="614.9304" y="-142.3437" font-family="Courier,monospace" font-weight="bold" font-size="10.00" fill="#000000">(0, &#39;A&#39;)</text>
<text text-anchor="middle" x="614.9304" y="-131.3437" font-family="Courier,monospace" font-weight="bold" font-size="10.00" fill="#000000">0.29796061181645506</text>
</g>
<!-- (&#45;1, &#39;SOURCE&#39;)&#45;&gt;(0, &#39;A&#39;) -->
<g id="edge1" class="edge">
<title>(&#45;1, &#39;SOURCE&#39;)&#45;&gt;(0, &#39;A&#39;)</title>
<path fill="none" stroke="#000000" d="M175.0386,-111.5908C258.8352,-116.8776 389.291,-125.108 486.4047,-131.235"/>
<polygon fill="#000000" stroke="#000000" points="486.3857,-134.7406 496.5862,-131.8773 486.8265,-127.7545 486.3857,-134.7406"/>
</g>
<!-- (0, &#39;B&#39;) -->
<g id="node4" class="node">
<title>(0, &#39;B&#39;)</title>
<polygon fill="none" stroke="#000000" points="350.5696,-57.9592 357.9193,-58.0766 365.193,-58.2522 372.361,-58.4857 379.3942,-58.7764 386.2645,-59.1234 392.9447,-59.5259 399.409,-59.9826 405.6325,-60.4925 411.5924,-61.054 417.267,-61.6656 422.6367,-62.3257 427.6836,-63.0325 432.3917,-63.7839 436.747,-64.578 440.7375,-65.4126 444.3535,-66.2853 447.5871,-67.1939 450.4327,-68.1357 452.8866,-69.1083 454.9472,-70.1089 456.6151,-71.1349 457.8923,-72.1833 458.7832,-73.2513 459.2935,-74.3361 459.4308,-75.4346 459.2041,-76.5438 458.6238,-77.6607 457.7015,-78.7821 456.45,-79.9052 454.8831,-81.0266 453.0151,-82.1435 450.8614,-83.2527 448.4375,-84.3512 445.7595,-85.436 442.8437,-86.504 439.7064,-87.5524 436.3638,-88.5784 432.8319,-89.579 429.1265,-90.5516 425.2629,-91.4934 421.2558,-92.402 417.1195,-93.2747 412.8673,-94.1093 408.512,-94.9034 404.0656,-95.6548 399.5391,-96.3616 394.9428,-97.0217 390.2862,-97.6333 385.5779,-98.1948 380.8255,-98.7047 376.0361,-99.1614 371.2159,-99.5639 366.3705,-99.9109 361.5049,-100.2016 356.6235,-100.4351 351.7303,-100.6108 346.8288,-100.7281 341.9226,-100.7869 337.0148,-100.7869 332.1086,-100.7281 327.2071,-100.6108 322.3139,-100.4351 317.4325,-100.2016 312.5669,-99.9109 307.7215,-99.5639 302.9013,-99.1614 298.1119,-98.7047 293.3596,-98.1948 288.6512,-97.6333 283.9946,-97.0217 279.3983,-96.3616 274.8719,-95.6548 270.4254,-94.9034 266.0701,-94.1093 261.818,-93.2747 257.6816,-92.402 253.6745,-91.4934 249.8109,-90.5516 246.1055,-89.579 242.5736,-88.5784 239.231,-87.5524 236.0937,-86.504 233.1779,-85.436 230.4999,-84.3512 228.0761,-83.2527 225.9223,-82.1435 224.0543,-81.0266 222.4874,-79.9052 221.2359,-78.7821 220.3136,-77.6607 219.7333,-76.5438 219.5066,-75.4346 219.6439,-74.3361 220.1542,-73.2513 221.0451,-72.1833 222.3224,-71.1349 223.9902,-70.1089 226.0508,-69.1083 228.5047,-68.1357 231.3503,-67.1939 234.5839,-66.2853 238.1999,-65.4126 242.1905,-64.578 246.5457,-63.7839 251.2538,-63.0325 256.3007,-62.3257 261.6704,-61.6656 267.345,-61.054 273.3049,-60.4925 279.5285,-59.9826 285.9927,-59.5259 292.6729,-59.1234 299.5432,-58.7764 306.5765,-58.4857 313.7444,-58.2522 321.0181,-58.0766 328.3678,-57.9592 335.7633,-57.9004 343.1741,-57.9004 350.5696,-57.9592"/>
<text text-anchor="middle" x="339.4687" y="-82.3437" font-family="Courier,monospace" font-weight="bold" font-size="10.00" fill="#000000">(0, &#39;B&#39;)</text>
<text text-anchor="middle" x="339.4687" y="-71.3437" font-family="Courier,monospace" font-weight="bold" font-size="10.00" fill="#000000">0.28596421073677897</text>
</g>
<!-- (&#45;1, &#39;SOURCE&#39;)&#45;&gt;(0, &#39;B&#39;) -->
<g id="edge2" class="edge">
<title>(&#45;1, &#39;SOURCE&#39;)&#45;&gt;(0, &#39;B&#39;)</title>
<path fill="none" stroke="#000000" d="M179.8605,-96.7484C198.0053,-94.7698 217.2729,-92.6687 235.9113,-90.6363"/>
<polygon fill="#000000" stroke="#000000" points="236.3278,-94.1117 245.8894,-89.5482 235.5689,-87.1529 236.3278,-94.1117"/>
</g>
<!-- (1, &#39;A&#39;) -->
<g id="node6" class="node">
<title>(1, &#39;A&#39;)</title>
<polygon fill="none" stroke="#000000" points="1166.4122,-64.9592 1173.7619,-65.0766 1181.0356,-65.2522 1188.2036,-65.4857 1195.2368,-65.7764 1202.1072,-66.1234 1208.7874,-66.5259 1215.2516,-66.9826 1221.4752,-67.4925 1227.435,-68.054 1233.1097,-68.6656 1238.4794,-69.3257 1243.5262,-70.0325 1248.2343,-70.7839 1252.5896,-71.578 1256.5802,-72.4126 1260.1961,-73.2853 1263.4297,-74.1939 1266.2753,-75.1357 1268.7292,-76.1083 1270.7899,-77.1089 1272.4577,-78.1349 1273.735,-79.1833 1274.6258,-80.2513 1275.1362,-81.3361 1275.2735,-82.4346 1275.0468,-83.5438 1274.4664,-84.6607 1273.5442,-85.7821 1272.2927,-86.9052 1270.7257,-88.0266 1268.8578,-89.1435 1266.704,-90.2527 1264.2801,-91.3512 1261.6022,-92.436 1258.6864,-93.504 1255.549,-94.5524 1252.2064,-95.5784 1248.6746,-96.579 1244.9692,-97.5516 1241.1055,-98.4934 1237.0985,-99.402 1232.9621,-100.2747 1228.7099,-101.1093 1224.3546,-101.9034 1219.9082,-102.6548 1215.3817,-103.3616 1210.7855,-104.0217 1206.1289,-104.6333 1201.4205,-105.1948 1196.6681,-105.7047 1191.8787,-106.1614 1187.0586,-106.5639 1182.2132,-106.9109 1177.3476,-107.2016 1172.4662,-107.4351 1167.5729,-107.6108 1162.6715,-107.7281 1157.7653,-107.7869 1152.8574,-107.7869 1147.9512,-107.7281 1143.0498,-107.6108 1138.1565,-107.4351 1133.2751,-107.2016 1128.4095,-106.9109 1123.5641,-106.5639 1118.744,-106.1614 1113.9546,-105.7047 1109.2022,-105.1948 1104.4938,-104.6333 1099.8372,-104.0217 1095.241,-103.3616 1090.7145,-102.6548 1086.2681,-101.9034 1081.9128,-101.1093 1077.6606,-100.2747 1073.5242,-99.402 1069.5172,-98.4934 1065.6535,-97.5516 1061.9481,-96.579 1058.4163,-95.5784 1055.0737,-94.5524 1051.9363,-93.504 1049.0205,-92.436 1046.3426,-91.3512 1043.9187,-90.2527 1041.7649,-89.1435 1039.897,-88.0266 1038.33,-86.9052 1037.0785,-85.7821 1036.1563,-84.6607 1035.5759,-83.5438 1035.3492,-82.4346 1035.4866,-81.3361 1035.9969,-80.2513 1036.8877,-79.1833 1038.165,-78.1349 1039.8328,-77.1089 1041.8935,-76.1083 1044.3474,-75.1357 1047.193,-74.1939 1050.4266,-73.2853 1054.0425,-72.4126 1058.0331,-71.578 1062.3884,-70.7839 1067.0965,-70.0325 1072.1433,-69.3257 1077.513,-68.6656 1083.1877,-68.054 1089.1475,-67.4925 1095.3711,-66.9826 1101.8353,-66.5259 1108.5155,-66.1234 1115.3859,-65.7764 1122.4191,-65.4857 1129.5871,-65.2522 1136.8608,-65.0766 1144.2105,-64.9592 1151.606,-64.9004 1159.0167,-64.9004 1166.4122,-64.9592"/>
<text text-anchor="middle" x="1155.3114" y="-89.3437" font-family="Courier,monospace" font-weight="bold" font-size="10.00" fill="#000000">(1, &#39;A&#39;)</text>
<text text-anchor="middle" x="1155.3114" y="-78.3437" font-family="Courier,monospace" font-weight="bold" font-size="10.00" fill="#000000">0.11824571978144525</text>
</g>
<!-- (0, &#39;A&#39;)&#45;&gt;(1, &#39;A&#39;) -->
<g id="edge3" class="edge">
<title>(0, &#39;A&#39;)&#45;&gt;(1, &#39;A&#39;)</title>
<path fill="none" stroke="#000000" d="M734.8059,-135.0404C810.8606,-131.449 911.2314,-125.1222 999.5805,-114.3437 1023.3207,-111.4474 1048.9252,-107.2826 1072.3801,-103.0471"/>
<polygon fill="#000000" stroke="#000000" points="1073.0837,-106.4765 1082.2889,-101.2311 1071.8218,-99.5912 1073.0837,-106.4765"/>
</g>
<!-- (1, &#39;B&#39;) -->
<g id="node7" class="node">
<title>(1, &#39;B&#39;)</title>
<polygon fill="none" stroke="#000000" points="895.7088,-62.9592 902.7189,-63.0766 909.6566,-63.2522 916.4933,-63.4857 923.2016,-63.7764 929.7545,-64.1234 936.1261,-64.5259 942.2916,-64.9826 948.2276,-65.4925 953.9121,-66.054 959.3246,-66.6656 964.4462,-67.3257 969.2598,-68.0325 973.7504,-68.7839 977.9044,-69.578 981.7106,-70.4126 985.1595,-71.2853 988.2437,-72.1939 990.9578,-73.1357 993.2983,-74.1083 995.2638,-75.1089 996.8545,-76.1349 998.0728,-77.1833 998.9225,-78.2513 999.4092,-79.3361 999.5402,-80.4346 999.324,-81.5438 998.7705,-82.6607 997.8908,-83.7821 996.6972,-84.9052 995.2026,-86.0266 993.4209,-87.1435 991.3667,-88.2527 989.0548,-89.3512 986.5006,-90.436 983.7195,-91.504 980.7271,-92.5524 977.539,-93.5784 974.1703,-94.579 970.6361,-95.5516 966.951,-96.4934 963.1291,-97.402 959.1838,-98.2747 955.1281,-99.1093 950.974,-99.9034 946.733,-100.6548 942.4157,-101.3616 938.0318,-102.0217 933.5904,-102.6333 929.0996,-103.1948 924.5668,-103.7047 919.9987,-104.1614 915.4012,-104.5639 910.7797,-104.9109 906.1389,-105.2016 901.483,-105.4351 896.8159,-105.6108 892.1409,-105.7281 887.4614,-105.7869 882.7803,-105.7869 878.1008,-105.7281 873.4258,-105.6108 868.7587,-105.4351 864.1028,-105.2016 859.462,-104.9109 854.8405,-104.5639 850.2431,-104.1614 845.6749,-103.7047 841.1422,-103.1948 836.6513,-102.6333 832.2099,-102.0217 827.826,-101.3616 823.5087,-100.6548 819.2677,-99.9034 815.1136,-99.1093 811.0579,-98.2747 807.1127,-97.402 803.2907,-96.4934 799.6056,-95.5516 796.0714,-94.579 792.7028,-93.5784 789.5146,-92.5524 786.5222,-91.504 783.7411,-90.436 781.1869,-89.3512 778.875,-88.2527 776.8208,-87.1435 775.0391,-86.0266 773.5446,-84.9052 772.3509,-83.7821 771.4712,-82.6607 770.9178,-81.5438 770.7015,-80.4346 770.8325,-79.3361 771.3192,-78.2513 772.1689,-77.1833 773.3872,-76.1349 774.9779,-75.1089 776.9434,-74.1083 779.2839,-73.1357 781.998,-72.1939 785.0822,-71.2853 788.5311,-70.4126 792.3373,-69.578 796.4913,-68.7839 800.9819,-68.0325 805.7956,-67.3257 810.9172,-66.6656 816.3296,-66.054 822.0141,-65.4925 827.9501,-64.9826 834.1156,-64.5259 840.4872,-64.1234 847.0401,-63.7764 853.7484,-63.4857 860.5852,-63.2522 867.5228,-63.0766 874.5329,-62.9592 881.5867,-62.9004 888.655,-62.9004 895.7088,-62.9592"/>
<text text-anchor="middle" x="885.1209" y="-87.3437" font-family="Courier,monospace" font-weight="bold" font-size="10.00" fill="#000000">(1, &#39;B&#39;)</text>
<text text-anchor="middle" x="885.1209" y="-76.3437" font-family="Courier,monospace" font-weight="bold" font-size="10.00" fill="#000000">0.2204782560617482</text>
</g>
<!-- (0, &#39;A&#39;)&#45;&gt;(1, &#39;B&#39;) -->
<g id="edge4" class="edge">
<title>(0, &#39;A&#39;)&#45;&gt;(1, &#39;B&#39;)</title>
<path fill="none" stroke="#000000" d="M698.57,-122.318C731.9982,-115.5133 770.3683,-107.7027 803.5842,-100.9413"/>
<polygon fill="#000000" stroke="#000000" points="804.615,-104.3033 813.7159,-98.8789 803.2187,-97.444 804.615,-104.3033"/>
</g>
<!-- (0, &#39;C&#39;) -->
<g id="node5" class="node">
<title>(0, &#39;C&#39;)</title>
<polygon fill="none" stroke="#000000" points="626.0312,-57.9592 633.3809,-58.0766 640.6546,-58.2522 647.8226,-58.4857 654.8559,-58.7764 661.7262,-59.1234 668.4064,-59.5259 674.8706,-59.9826 681.0942,-60.4925 687.054,-61.054 692.7287,-61.6656 698.0984,-62.3257 703.1453,-63.0325 707.8533,-63.7839 712.2086,-64.578 716.1992,-65.4126 719.8151,-66.2853 723.0488,-67.1939 725.8943,-68.1357 728.3482,-69.1083 730.4089,-70.1089 732.0767,-71.1349 733.354,-72.1833 734.2448,-73.2513 734.7552,-74.3361 734.8925,-75.4346 734.6658,-76.5438 734.0855,-77.6607 733.1632,-78.7821 731.9117,-79.9052 730.3447,-81.0266 728.4768,-82.1435 726.323,-83.2527 723.8991,-84.3512 721.2212,-85.436 718.3054,-86.504 715.1681,-87.5524 711.8254,-88.5784 708.2936,-89.579 704.5882,-90.5516 700.7246,-91.4934 696.7175,-92.402 692.5811,-93.2747 688.3289,-94.1093 683.9736,-94.9034 679.5272,-95.6548 675.0007,-96.3616 670.4045,-97.0217 665.7479,-97.6333 661.0395,-98.1948 656.2871,-98.7047 651.4977,-99.1614 646.6776,-99.5639 641.8322,-99.9109 636.9666,-100.2016 632.0852,-100.4351 627.1919,-100.6108 622.2905,-100.7281 617.3843,-100.7869 612.4765,-100.7869 607.5702,-100.7281 602.6688,-100.6108 597.7756,-100.4351 592.8941,-100.2016 588.0285,-99.9109 583.1832,-99.5639 578.363,-99.1614 573.5736,-98.7047 568.8212,-98.1948 564.1129,-97.6333 559.4563,-97.0217 554.86,-96.3616 550.3335,-95.6548 545.8871,-94.9034 541.5318,-94.1093 537.2796,-93.2747 533.1432,-92.402 529.1362,-91.4934 525.2726,-90.5516 521.5672,-89.579 518.0353,-88.5784 514.6927,-87.5524 511.5554,-86.504 508.6396,-85.436 505.9616,-84.3512 503.5377,-83.2527 501.384,-82.1435 499.516,-81.0266 497.949,-79.9052 496.6975,-78.7821 495.7753,-77.6607 495.195,-76.5438 494.9683,-75.4346 495.1056,-74.3361 495.6159,-73.2513 496.5068,-72.1833 497.784,-71.1349 499.4518,-70.1089 501.5125,-69.1083 503.9664,-68.1357 506.812,-67.1939 510.0456,-66.2853 513.6616,-65.4126 517.6521,-64.578 522.0074,-63.7839 526.7155,-63.0325 531.7623,-62.3257 537.1321,-61.6656 542.8067,-61.054 548.7665,-60.4925 554.9901,-59.9826 561.4543,-59.5259 568.1346,-59.1234 575.0049,-58.7764 582.0381,-58.4857 589.2061,-58.2522 596.4798,-58.0766 603.8295,-57.9592 611.225,-57.9004 618.6358,-57.9004 626.0312,-57.9592"/>
<text text-anchor="middle" x="614.9304" y="-82.3437" font-family="Courier,monospace" font-weight="bold" font-size="10.00" fill="#000000">(0, &#39;C&#39;)</text>
<text text-anchor="middle" x="614.9304" y="-71.3437" font-family="Courier,monospace" font-weight="bold" font-size="10.00" fill="#000000">0.19987760420524112</text>
</g>
<!-- (0, &#39;B&#39;)&#45;&gt;(0, &#39;C&#39;) -->
<g id="edge5" class="edge">
<title>(0, &#39;B&#39;)&#45;&gt;(0, &#39;C&#39;)</title>
<path fill="none" stroke="#000000" d="M457.0883,-79.3437C467.0684,-79.3437 477.1926,-79.3437 487.245,-79.3437"/>
<polygon fill="#000000" stroke="#000000" points="487.2656,-82.8438 497.2655,-79.3437 487.2655,-75.8438 487.2656,-82.8438"/>
</g>
<!-- (0, &#39;B&#39;)&#45;&gt;(1, &#39;A&#39;) -->
<g id="edge6" class="edge">
<title>(0, &#39;B&#39;)&#45;&gt;(1, &#39;A&#39;)</title>
<path fill="none" stroke="#000000" d="M416.2792,-61.541C441.2983,-56.5507 469.2979,-51.8158 495.1995,-49.3437 718.3657,-28.0441 776.774,-29.5627 999.5805,-54.3437 1023.1037,-56.96 1048.3411,-61.4139 1071.5049,-66.1809"/>
<polygon fill="#000000" stroke="#000000" points="1070.7881,-69.6066 1081.2943,-68.2386 1072.2281,-62.7563 1070.7881,-69.6066"/>
</g>
<!-- (0, &#39;C&#39;)&#45;&gt;(1, &#39;B&#39;) -->
<g id="edge7" class="edge">
<title>(0, &#39;C&#39;)&#45;&gt;(1, &#39;B&#39;)</title>
<path fill="none" stroke="#000000" d="M729.9072,-81.4714C740.1409,-81.6607 750.5322,-81.853 760.839,-82.0438"/>
<polygon fill="#000000" stroke="#000000" points="761.0455,-85.5481 771.1086,-82.2338 761.1751,-78.5493 761.0455,-85.5481"/>
</g>
<!-- (2, &#39;A&#39;) -->
<g id="node9" class="node">
<title>(2, &#39;A&#39;)</title>
<polygon fill="none" stroke="#000000" points="1448.4115,-100.9592 1456.1011,-101.0766 1463.7113,-101.2522 1471.2108,-101.4857 1478.5693,-101.7764 1485.7574,-102.1234 1492.7466,-102.5259 1499.5098,-102.9826 1506.0212,-103.4925 1512.2567,-104.054 1518.1938,-104.6656 1523.8119,-105.3257 1529.0922,-106.0325 1534.018,-106.7839 1538.5747,-107.578 1542.7498,-108.4126 1546.5331,-109.2853 1549.9162,-110.1939 1552.8934,-111.1357 1555.4608,-112.1083 1557.6168,-113.1089 1559.3617,-114.1349 1560.6981,-115.1833 1561.6301,-116.2513 1562.1641,-117.3361 1562.3077,-118.4346 1562.0705,-119.5438 1561.4634,-120.6607 1560.4985,-121.7821 1559.1891,-122.9052 1557.5496,-124.0266 1555.5953,-125.1435 1553.3419,-126.2527 1550.8059,-127.3512 1548.0041,-128.436 1544.9535,-129.504 1541.671,-130.5524 1538.1738,-131.5784 1534.4786,-132.579 1530.6018,-133.5516 1526.5595,-134.4934 1522.3671,-135.402 1518.0394,-136.2747 1513.5906,-137.1093 1509.0338,-137.9034 1504.3817,-138.6548 1499.6459,-139.3616 1494.8371,-140.0217 1489.9651,-140.6333 1485.039,-141.1948 1480.0668,-141.7047 1475.0559,-142.1614 1470.0128,-142.5639 1464.9433,-142.9109 1459.8526,-143.2016 1454.7454,-143.4351 1449.6259,-143.6108 1444.4978,-143.7281 1439.3646,-143.7869 1434.2298,-143.7869 1429.0966,-143.7281 1423.9685,-143.6108 1418.849,-143.4351 1413.7418,-143.2016 1408.6511,-142.9109 1403.5816,-142.5639 1398.5385,-142.1614 1393.5276,-141.7047 1388.5554,-141.1948 1383.6293,-140.6333 1378.7573,-140.0217 1373.9485,-139.3616 1369.2127,-138.6548 1364.5606,-137.9034 1360.0039,-137.1093 1355.555,-136.2747 1351.2273,-135.402 1347.0349,-134.4934 1342.9926,-133.5516 1339.1158,-132.579 1335.4206,-131.5784 1331.9234,-130.5524 1328.6409,-129.504 1325.5903,-128.436 1322.7885,-127.3512 1320.2525,-126.2527 1317.9991,-125.1435 1316.0448,-124.0266 1314.4053,-122.9052 1313.096,-121.7821 1312.131,-120.6607 1311.5239,-119.5438 1311.2867,-118.4346 1311.4303,-117.3361 1311.9643,-116.2513 1312.8963,-115.1833 1314.2327,-114.1349 1315.9776,-113.1089 1318.1336,-112.1083 1320.701,-111.1357 1323.6782,-110.1939 1327.0614,-109.2853 1330.8446,-108.4126 1335.0197,-107.578 1339.5764,-106.7839 1344.5022,-106.0325 1349.7825,-105.3257 1355.4006,-104.6656 1361.3377,-104.054 1367.5732,-103.4925 1374.0846,-102.9826 1380.8478,-102.5259 1387.837,-102.1234 1395.0251,-101.7764 1402.3836,-101.4857 1409.8832,-101.2522 1417.4933,-101.0766 1425.1829,-100.9592 1432.9204,-100.9004 1440.674,-100.9004 1448.4115,-100.9592"/>
<text text-anchor="middle" x="1436.7972" y="-125.3437" font-family="Courier,monospace" font-weight="bold" font-size="10.00" fill="#000000">(2, &#39;A&#39;)</text>
<text text-anchor="middle" x="1436.7972" y="-114.3437" font-family="Courier,monospace" font-weight="bold" font-size="10.00" fill="#000000">0.025301079341836088</text>
</g>
<!-- (1, &#39;A&#39;)&#45;&gt;(2, &#39;A&#39;) -->
<g id="edge8" class="edge">
<title>(1, &#39;A&#39;)&#45;&gt;(2, &#39;A&#39;)</title>
<path fill="none" stroke="#000000" d="M1244.3752,-97.7343C1268.2636,-100.7894 1294.4585,-104.1396 1319.6192,-107.3574"/>
<polygon fill="#000000" stroke="#000000" points="1319.2132,-110.8339 1329.5765,-108.6309 1320.1013,-103.8905 1319.2132,-110.8339"/>
</g>
<!-- (2, &#39;B&#39;) -->
<g id="node10" class="node">
<title>(2, &#39;B&#39;)</title>
<polygon fill="none" stroke="#000000" points="1447.8981,-16.9592 1455.2478,-17.0766 1462.5215,-17.2522 1469.6895,-17.4857 1476.7227,-17.7764 1483.593,-18.1234 1490.2732,-18.5259 1496.7374,-18.9826 1502.961,-19.4925 1508.9209,-20.054 1514.5955,-20.6656 1519.9652,-21.3257 1525.0121,-22.0325 1529.7202,-22.7839 1534.0755,-23.578 1538.066,-24.4126 1541.682,-25.2853 1544.9156,-26.1939 1547.7612,-27.1357 1550.2151,-28.1083 1552.2757,-29.1089 1553.9436,-30.1349 1555.2208,-31.1833 1556.1117,-32.2513 1556.622,-33.3361 1556.7593,-34.4346 1556.5326,-35.5438 1555.9523,-36.6607 1555.03,-37.7821 1553.7785,-38.9052 1552.2116,-40.0266 1550.3436,-41.1435 1548.1899,-42.2527 1545.766,-43.3512 1543.088,-44.436 1540.1722,-45.504 1537.0349,-46.5524 1533.6923,-47.5784 1530.1604,-48.579 1526.455,-49.5516 1522.5914,-50.4934 1518.5843,-51.402 1514.448,-52.2747 1510.1958,-53.1093 1505.8405,-53.9034 1501.394,-54.6548 1496.8676,-55.3616 1492.2713,-56.0217 1487.6147,-56.6333 1482.9064,-57.1948 1478.154,-57.7047 1473.3646,-58.1614 1468.5444,-58.5639 1463.699,-58.9109 1458.8334,-59.2016 1453.952,-59.4351 1449.0588,-59.6108 1444.1573,-59.7281 1439.2511,-59.7869 1434.3433,-59.7869 1429.4371,-59.7281 1424.5356,-59.6108 1419.6424,-59.4351 1414.761,-59.2016 1409.8954,-58.9109 1405.05,-58.5639 1400.2298,-58.1614 1395.4404,-57.7047 1390.6881,-57.1948 1385.9797,-56.6333 1381.3231,-56.0217 1376.7268,-55.3616 1372.2004,-54.6548 1367.7539,-53.9034 1363.3986,-53.1093 1359.1465,-52.2747 1355.0101,-51.402 1351.003,-50.4934 1347.1394,-49.5516 1343.434,-48.579 1339.9021,-47.5784 1336.5595,-46.5524 1333.4222,-45.504 1330.5064,-44.436 1327.8284,-43.3512 1325.4046,-42.2527 1323.2508,-41.1435 1321.3828,-40.0266 1319.8159,-38.9052 1318.5644,-37.7821 1317.6421,-36.6607 1317.0618,-35.5438 1316.8351,-34.4346 1316.9724,-33.3361 1317.4827,-32.2513 1318.3736,-31.1833 1319.6509,-30.1349 1321.3187,-29.1089 1323.3793,-28.1083 1325.8332,-27.1357 1328.6788,-26.1939 1331.9124,-25.2853 1335.5284,-24.4126 1339.519,-23.578 1343.8742,-22.7839 1348.5823,-22.0325 1353.6292,-21.3257 1358.9989,-20.6656 1364.6735,-20.054 1370.6334,-19.4925 1376.857,-18.9826 1383.3212,-18.5259 1390.0014,-18.1234 1396.8717,-17.7764 1403.905,-17.4857 1411.0729,-17.2522 1418.3466,-17.0766 1425.6963,-16.9592 1433.0918,-16.9004 1440.5026,-16.9004 1447.8981,-16.9592"/>
<text text-anchor="middle" x="1436.7972" y="-41.3437" font-family="Courier,monospace" font-weight="bold" font-size="10.00" fill="#000000">(2, &#39;B&#39;)</text>
<text text-anchor="middle" x="1436.7972" y="-30.3437" font-family="Courier,monospace" font-weight="bold" font-size="10.00" fill="#000000">0.04624615280665147</text>
</g>
<!-- (1, &#39;A&#39;)&#45;&gt;(2, &#39;B&#39;) -->
<g id="edge9" class="edge">
<title>(1, &#39;A&#39;)&#45;&gt;(2, &#39;B&#39;)</title>
<path fill="none" stroke="#000000" d="M1247.4803,-70.6267C1279.4547,-65.1743 1315.2413,-59.0718 1347.02,-53.6528"/>
<polygon fill="#000000" stroke="#000000" points="1347.9177,-57.0503 1357.1871,-51.9191 1346.741,-50.1499 1347.9177,-57.0503"/>
</g>
<!-- (1, &#39;C&#39;) -->
<g id="node8" class="node">
<title>(1, &#39;C&#39;)</title>
<polygon fill="none" stroke="#000000" points="1165.8993,-4.9592 1172.9094,-5.0766 1179.847,-5.2522 1186.6838,-5.4857 1193.3921,-5.7764 1199.945,-6.1234 1206.3166,-6.5259 1212.4821,-6.9826 1218.4181,-7.4925 1224.1026,-8.054 1229.515,-8.6656 1234.6367,-9.3257 1239.4503,-10.0325 1243.9409,-10.7839 1248.0949,-11.578 1251.9011,-12.4126 1255.35,-13.2853 1258.4342,-14.1939 1261.1483,-15.1357 1263.4888,-16.1083 1265.4543,-17.1089 1267.045,-18.1349 1268.2633,-19.1833 1269.113,-20.2513 1269.5997,-21.3361 1269.7307,-22.4346 1269.5145,-23.5438 1268.961,-24.6607 1268.0813,-25.7821 1266.8876,-26.9052 1265.3931,-28.0266 1263.6114,-29.1435 1261.5572,-30.2527 1259.2453,-31.3512 1256.6911,-32.436 1253.91,-33.504 1250.9176,-34.5524 1247.7295,-35.5784 1244.3608,-36.579 1240.8266,-37.5516 1237.1415,-38.4934 1233.3196,-39.402 1229.3743,-40.2747 1225.3186,-41.1093 1221.1645,-41.9034 1216.9235,-42.6548 1212.6062,-43.3616 1208.2223,-44.0217 1203.7809,-44.6333 1199.2901,-45.1948 1194.7573,-45.7047 1190.1892,-46.1614 1185.5917,-46.5639 1180.9702,-46.9109 1176.3294,-47.2016 1171.6735,-47.4351 1167.0064,-47.6108 1162.3314,-47.7281 1157.6519,-47.7869 1152.9708,-47.7869 1148.2913,-47.7281 1143.6163,-47.6108 1138.9492,-47.4351 1134.2933,-47.2016 1129.6525,-46.9109 1125.031,-46.5639 1120.4335,-46.1614 1115.8654,-45.7047 1111.3326,-45.1948 1106.8418,-44.6333 1102.4004,-44.0217 1098.0165,-43.3616 1093.6992,-42.6548 1089.4582,-41.9034 1085.3041,-41.1093 1081.2484,-40.2747 1077.3031,-39.402 1073.4812,-38.4934 1069.7961,-37.5516 1066.2619,-36.579 1062.8933,-35.5784 1059.7051,-34.5524 1056.7127,-33.504 1053.9316,-32.436 1051.3774,-31.3512 1049.0655,-30.2527 1047.0113,-29.1435 1045.2296,-28.0266 1043.7351,-26.9052 1042.5414,-25.7821 1041.6617,-24.6607 1041.1082,-23.5438 1040.892,-22.4346 1041.023,-21.3361 1041.5097,-20.2513 1042.3594,-19.1833 1043.5777,-18.1349 1045.1684,-17.1089 1047.1339,-16.1083 1049.4744,-15.1357 1052.1885,-14.1939 1055.2727,-13.2853 1058.7216,-12.4126 1062.5278,-11.578 1066.6818,-10.7839 1071.1724,-10.0325 1075.986,-9.3257 1081.1077,-8.6656 1086.5201,-8.054 1092.2046,-7.4925 1098.1406,-6.9826 1104.3061,-6.5259 1110.6777,-6.1234 1117.2306,-5.7764 1123.9389,-5.4857 1130.7757,-5.2522 1137.7133,-5.0766 1144.7234,-4.9592 1151.7772,-4.9004 1158.8455,-4.9004 1165.8993,-4.9592"/>
<text text-anchor="middle" x="1155.3114" y="-29.3437" font-family="Courier,monospace" font-weight="bold" font-size="10.00" fill="#000000">(1, &#39;C&#39;)</text>
<text text-anchor="middle" x="1155.3114" y="-18.3437" font-family="Courier,monospace" font-weight="bold" font-size="10.00" fill="#000000">0.1541055277072267</text>
</g>
<!-- (1, &#39;B&#39;)&#45;&gt;(1, &#39;C&#39;) -->
<g id="edge10" class="edge">
<title>(1, &#39;B&#39;)&#45;&gt;(1, &#39;C&#39;)</title>
<path fill="none" stroke="#000000" d="M964.7256,-67.2554C999.72,-59.7434 1040.7269,-50.9407 1075.7198,-43.429"/>
<polygon fill="#000000" stroke="#000000" points="1076.8525,-46.7657 1085.8951,-41.2448 1075.3832,-39.9216 1076.8525,-46.7657"/>
</g>
<!-- (1, &#39;B&#39;)&#45;&gt;(2, &#39;A&#39;) -->
<g id="edge11" class="edge">
<title>(1, &#39;B&#39;)&#45;&gt;(2, &#39;A&#39;)</title>
<path fill="none" stroke="#000000" d="M947.9976,-100.5699C974.7943,-106.7398 1006.5218,-113.0679 1035.5805,-116.3437 1127.1928,-126.6711 1231.3078,-127.9244 1310.5164,-126.7254"/>
<polygon fill="#000000" stroke="#000000" points="1310.5997,-130.2246 1320.54,-126.5587 1310.4831,-123.2256 1310.5997,-130.2246"/>
</g>
<!-- (1, &#39;C&#39;)&#45;&gt;(2, &#39;B&#39;) -->
<g id="edge12" class="edge">
<title>(1, &#39;C&#39;)&#45;&gt;(2, &#39;B&#39;)</title>
<path fill="none" stroke="#000000" d="M1260.5266,-30.8291C1275.642,-31.4735 1291.3424,-32.1428 1306.8664,-32.8046"/>
<polygon fill="#000000" stroke="#000000" points="1306.8944,-36.3089 1317.0344,-33.2381 1307.1926,-29.3152 1306.8944,-36.3089"/>
</g>
<!-- (3, &#39;A&#39;) -->
<g id="node12" class="node">
<title>(3, &#39;A&#39;)</title>
<polygon fill="none" stroke="#000000" points="1729.3839,-64.9592 1736.7336,-65.0766 1744.0073,-65.2522 1751.1753,-65.4857 1758.2086,-65.7764 1765.0789,-66.1234 1771.7591,-66.5259 1778.2233,-66.9826 1784.4469,-67.4925 1790.4067,-68.054 1796.0814,-68.6656 1801.4511,-69.3257 1806.498,-70.0325 1811.206,-70.7839 1815.5613,-71.578 1819.5519,-72.4126 1823.1678,-73.2853 1826.4015,-74.1939 1829.247,-75.1357 1831.7009,-76.1083 1833.7616,-77.1089 1835.4294,-78.1349 1836.7067,-79.1833 1837.5975,-80.2513 1838.1079,-81.3361 1838.2452,-82.4346 1838.0185,-83.5438 1837.4381,-84.6607 1836.5159,-85.7821 1835.2644,-86.9052 1833.6974,-88.0266 1831.8295,-89.1435 1829.6757,-90.2527 1827.2518,-91.3512 1824.5739,-92.436 1821.6581,-93.504 1818.5207,-94.5524 1815.1781,-95.5784 1811.6463,-96.579 1807.9409,-97.5516 1804.0773,-98.4934 1800.0702,-99.402 1795.9338,-100.2747 1791.6816,-101.1093 1787.3263,-101.9034 1782.8799,-102.6548 1778.3534,-103.3616 1773.7572,-104.0217 1769.1006,-104.6333 1764.3922,-105.1948 1759.6398,-105.7047 1754.8504,-106.1614 1750.0303,-106.5639 1745.1849,-106.9109 1740.3193,-107.2016 1735.4379,-107.4351 1730.5446,-107.6108 1725.6432,-107.7281 1720.737,-107.7869 1715.8291,-107.7869 1710.9229,-107.7281 1706.0215,-107.6108 1701.1283,-107.4351 1696.2468,-107.2016 1691.3812,-106.9109 1686.5358,-106.5639 1681.7157,-106.1614 1676.9263,-105.7047 1672.1739,-105.1948 1667.4655,-104.6333 1662.8089,-104.0217 1658.2127,-103.3616 1653.6862,-102.6548 1649.2398,-101.9034 1644.8845,-101.1093 1640.6323,-100.2747 1636.4959,-99.402 1632.4889,-98.4934 1628.6252,-97.5516 1624.9199,-96.579 1621.388,-95.5784 1618.0454,-94.5524 1614.908,-93.504 1611.9922,-92.436 1609.3143,-91.3512 1606.8904,-90.2527 1604.7367,-89.1435 1602.8687,-88.0266 1601.3017,-86.9052 1600.0502,-85.7821 1599.128,-84.6607 1598.5477,-83.5438 1598.321,-82.4346 1598.4583,-81.3361 1598.9686,-80.2513 1599.8594,-79.1833 1601.1367,-78.1349 1602.8045,-77.1089 1604.8652,-76.1083 1607.3191,-75.1357 1610.1647,-74.1939 1613.3983,-73.2853 1617.0143,-72.4126 1621.0048,-71.578 1625.3601,-70.7839 1630.0682,-70.0325 1635.115,-69.3257 1640.4847,-68.6656 1646.1594,-68.054 1652.1192,-67.4925 1658.3428,-66.9826 1664.807,-66.5259 1671.4873,-66.1234 1678.3576,-65.7764 1685.3908,-65.4857 1692.5588,-65.2522 1699.8325,-65.0766 1707.1822,-64.9592 1714.5777,-64.9004 1721.9884,-64.9004 1729.3839,-64.9592"/>
<text text-anchor="middle" x="1718.2831" y="-89.3437" font-family="Courier,monospace" font-weight="bold" font-size="10.00" fill="#000000">(3, &#39;A&#39;)</text>
<text text-anchor="middle" x="1718.2831" y="-78.3437" font-family="Courier,monospace" font-weight="bold" font-size="10.00" fill="#000000">0.00534986315041072</text>
</g>
<!-- (2, &#39;A&#39;)&#45;&gt;(3, &#39;A&#39;) -->
<g id="edge13" class="edge">
<title>(2, &#39;A&#39;)&#45;&gt;(3, &#39;A&#39;)</title>
<path fill="none" stroke="#000000" d="M1544.0179,-108.6309C1568.734,-105.4699 1594.9145,-102.1216 1619.2634,-99.0076"/>
<polygon fill="#000000" stroke="#000000" points="1619.7395,-102.4753 1629.2146,-97.7349 1618.8514,-95.5318 1619.7395,-102.4753"/>
</g>
<!-- (3, &#39;B&#39;) -->
<g id="node13" class="node">
<title>(3, &#39;B&#39;)</title>
<polygon fill="none" stroke="#000000" points="2011.3832,-9.9592 2019.0728,-10.0766 2026.683,-10.2522 2034.1825,-10.4857 2041.541,-10.7764 2048.7291,-11.1234 2055.7183,-11.5259 2062.4815,-11.9826 2068.9929,-12.4925 2075.2284,-13.054 2081.1655,-13.6656 2086.7836,-14.3257 2092.0639,-15.0325 2096.9897,-15.7839 2101.5464,-16.578 2105.7215,-17.4126 2109.5048,-18.2853 2112.8879,-19.1939 2115.8651,-20.1357 2118.4325,-21.1083 2120.5885,-22.1089 2122.3334,-23.1349 2123.6698,-24.1833 2124.6018,-25.2513 2125.1358,-26.3361 2125.2794,-27.4346 2125.0422,-28.5438 2124.4351,-29.6607 2123.4702,-30.7821 2122.1608,-31.9052 2120.5213,-33.0266 2118.567,-34.1435 2116.3136,-35.2527 2113.7776,-36.3512 2110.9758,-37.436 2107.9252,-38.504 2104.6427,-39.5524 2101.1455,-40.5784 2097.4503,-41.579 2093.5735,-42.5516 2089.5312,-43.4934 2085.3388,-44.402 2081.0111,-45.2747 2076.5623,-46.1093 2072.0055,-46.9034 2067.3534,-47.6548 2062.6176,-48.3616 2057.8088,-49.0217 2052.9368,-49.6333 2048.0107,-50.1948 2043.0385,-50.7047 2038.0276,-51.1614 2032.9845,-51.5639 2027.915,-51.9109 2022.8243,-52.2016 2017.7172,-52.4351 2012.5976,-52.6108 2007.4695,-52.7281 2002.3363,-52.7869 1997.2015,-52.7869 1992.0684,-52.7281 1986.9402,-52.6108 1981.8207,-52.4351 1976.7135,-52.2016 1971.6228,-51.9109 1966.5533,-51.5639 1961.5102,-51.1614 1956.4993,-50.7047 1951.5271,-50.1948 1946.601,-49.6333 1941.729,-49.0217 1936.9202,-48.3616 1932.1844,-47.6548 1927.5323,-46.9034 1922.9756,-46.1093 1918.5267,-45.2747 1914.199,-44.402 1910.0066,-43.4934 1905.9643,-42.5516 1902.0875,-41.579 1898.3923,-40.5784 1894.8951,-39.5524 1891.6127,-38.504 1888.562,-37.436 1885.7602,-36.3512 1883.2242,-35.2527 1880.9708,-34.1435 1879.0165,-33.0266 1877.377,-31.9052 1876.0677,-30.7821 1875.1027,-29.6607 1874.4956,-28.5438 1874.2584,-27.4346 1874.402,-26.3361 1874.936,-25.2513 1875.868,-24.1833 1877.2044,-23.1349 1878.9493,-22.1089 1881.1053,-21.1083 1883.6727,-20.1357 1886.6499,-19.1939 1890.0331,-18.2853 1893.8163,-17.4126 1897.9914,-16.578 1902.5481,-15.7839 1907.474,-15.0325 1912.7542,-14.3257 1918.3723,-13.6656 1924.3094,-13.054 1930.5449,-12.4925 1937.0563,-11.9826 1943.8195,-11.5259 1950.8087,-11.1234 1957.9968,-10.7764 1965.3553,-10.4857 1972.8549,-10.2522 1980.465,-10.0766 1988.1546,-9.9592 1995.8921,-9.9004 2003.6457,-9.9004 2011.3832,-9.9592"/>
<text text-anchor="middle" x="1999.7689" y="-34.3437" font-family="Courier,monospace" font-weight="bold" font-size="10.00" fill="#000000">(3, &#39;B&#39;)</text>
<text text-anchor="middle" x="1999.7689" y="-23.3437" font-family="Courier,monospace" font-weight="bold" font-size="10.00" fill="#000000">0.009763372263762992</text>
</g>
<!-- (2, &#39;A&#39;)&#45;&gt;(3, &#39;B&#39;) -->
<g id="edge14" class="edge">
<title>(2, &#39;A&#39;)&#45;&gt;(3, &#39;B&#39;)</title>
<path fill="none" stroke="#000000" d="M1532.0624,-133.2143C1614.4021,-139.7201 1735.9076,-142.3494 1838.0139,-116.3437 1883.6769,-104.7136 1930.806,-77.9642 1962.3274,-57.5556"/>
<polygon fill="#000000" stroke="#000000" points="1964.3614,-60.407 1970.79,-51.9853 1960.5127,-54.5599 1964.3614,-60.407"/>
</g>
<!-- (2, &#39;C&#39;) -->
<g id="node11" class="node">
<title>(2, &#39;C&#39;)</title>
<polygon fill="none" stroke="#000000" points="1729.3839,-4.9592 1736.7336,-5.0766 1744.0073,-5.2522 1751.1753,-5.4857 1758.2086,-5.7764 1765.0789,-6.1234 1771.7591,-6.5259 1778.2233,-6.9826 1784.4469,-7.4925 1790.4067,-8.054 1796.0814,-8.6656 1801.4511,-9.3257 1806.498,-10.0325 1811.206,-10.7839 1815.5613,-11.578 1819.5519,-12.4126 1823.1678,-13.2853 1826.4015,-14.1939 1829.247,-15.1357 1831.7009,-16.1083 1833.7616,-17.1089 1835.4294,-18.1349 1836.7067,-19.1833 1837.5975,-20.2513 1838.1079,-21.3361 1838.2452,-22.4346 1838.0185,-23.5438 1837.4381,-24.6607 1836.5159,-25.7821 1835.2644,-26.9052 1833.6974,-28.0266 1831.8295,-29.1435 1829.6757,-30.2527 1827.2518,-31.3512 1824.5739,-32.436 1821.6581,-33.504 1818.5207,-34.5524 1815.1781,-35.5784 1811.6463,-36.579 1807.9409,-37.5516 1804.0773,-38.4934 1800.0702,-39.402 1795.9338,-40.2747 1791.6816,-41.1093 1787.3263,-41.9034 1782.8799,-42.6548 1778.3534,-43.3616 1773.7572,-44.0217 1769.1006,-44.6333 1764.3922,-45.1948 1759.6398,-45.7047 1754.8504,-46.1614 1750.0303,-46.5639 1745.1849,-46.9109 1740.3193,-47.2016 1735.4379,-47.4351 1730.5446,-47.6108 1725.6432,-47.7281 1720.737,-47.7869 1715.8291,-47.7869 1710.9229,-47.7281 1706.0215,-47.6108 1701.1283,-47.4351 1696.2468,-47.2016 1691.3812,-46.9109 1686.5358,-46.5639 1681.7157,-46.1614 1676.9263,-45.7047 1672.1739,-45.1948 1667.4655,-44.6333 1662.8089,-44.0217 1658.2127,-43.3616 1653.6862,-42.6548 1649.2398,-41.9034 1644.8845,-41.1093 1640.6323,-40.2747 1636.4959,-39.402 1632.4889,-38.4934 1628.6252,-37.5516 1624.9199,-36.579 1621.388,-35.5784 1618.0454,-34.5524 1614.908,-33.504 1611.9922,-32.436 1609.3143,-31.3512 1606.8904,-30.2527 1604.7367,-29.1435 1602.8687,-28.0266 1601.3017,-26.9052 1600.0502,-25.7821 1599.128,-24.6607 1598.5477,-23.5438 1598.321,-22.4346 1598.4583,-21.3361 1598.9686,-20.2513 1599.8594,-19.1833 1601.1367,-18.1349 1602.8045,-17.1089 1604.8652,-16.1083 1607.3191,-15.1357 1610.1647,-14.1939 1613.3983,-13.2853 1617.0143,-12.4126 1621.0048,-11.578 1625.3601,-10.7839 1630.0682,-10.0325 1635.115,-9.3257 1640.4847,-8.6656 1646.1594,-8.054 1652.1192,-7.4925 1658.3428,-6.9826 1664.807,-6.5259 1671.4873,-6.1234 1678.3576,-5.7764 1685.3908,-5.4857 1692.5588,-5.2522 1699.8325,-5.0766 1707.1822,-4.9592 1714.5777,-4.9004 1721.9884,-4.9004 1729.3839,-4.9592"/>
<text text-anchor="middle" x="1718.2831" y="-29.3437" font-family="Courier,monospace" font-weight="bold" font-size="10.00" fill="#000000">(2, &#39;C&#39;)</text>
<text text-anchor="middle" x="1718.2831" y="-18.3437" font-family="Courier,monospace" font-weight="bold" font-size="10.00" fill="#000000">0.03232422058301344</text>
</g>
<!-- (2, &#39;B&#39;)&#45;&gt;(2, &#39;C&#39;) -->
<g id="edge15" class="edge">
<title>(2, &#39;B&#39;)&#45;&gt;(2, &#39;C&#39;)</title>
<path fill="none" stroke="#000000" d="M1556.5807,-33.2372C1570.4278,-32.6469 1584.5518,-32.0447 1598.4003,-31.4544"/>
<polygon fill="#000000" stroke="#000000" points="1598.5857,-34.9497 1608.4275,-31.0269 1598.2875,-27.9561 1598.5857,-34.9497"/>
</g>
<!-- (2, &#39;B&#39;)&#45;&gt;(3, &#39;A&#39;) -->
<g id="edge16" class="edge">
<title>(2, &#39;B&#39;)&#45;&gt;(3, &#39;A&#39;)</title>
<path fill="none" stroke="#000000" d="M1516.3311,-51.9061C1547.2712,-57.1821 1583.1126,-63.2939 1615.9369,-68.8912"/>
<polygon fill="#000000" stroke="#000000" points="1615.5721,-72.3794 1626.0182,-70.6103 1616.7488,-65.4791 1615.5721,-72.3794"/>
</g>
<!-- (2, &#39;C&#39;)&#45;&gt;(3, &#39;B&#39;) -->
<g id="edge17" class="edge">
<title>(2, &#39;C&#39;)&#45;&gt;(3, &#39;B&#39;)</title>
<path fill="none" stroke="#000000" d="M1833.1801,-28.3846C1843.5483,-28.5687 1854.1103,-28.7563 1864.6305,-28.9432"/>
<polygon fill="#000000" stroke="#000000" points="1864.6357,-32.4438 1874.6963,-29.122 1864.7601,-25.4449 1864.6357,-32.4438"/>
</g>
<!-- (3, &#39;A&#39;)&#45;&gt;(&#45;1, &#39;SINK&#39;) -->
<g id="edge18" class="edge">
<title>(3, &#39;A&#39;)&#45;&gt;(&#45;1, &#39;SINK&#39;)</title>
<path fill="none" stroke="#000000" d="M1832.555,-88.7406C1972.3492,-90.4127 2216.0348,-89.249 2423.5763,-67.3437 2449.9051,-64.5647 2478.3748,-59.865 2503.9829,-54.9997"/>
<polygon fill="#000000" stroke="#000000" points="2504.8651,-58.394 2514.0179,-53.0576 2503.535,-51.5215 2504.8651,-58.394"/>
</g>
<!-- (3, &#39;B&#39;)&#45;&gt;(&#45;1, &#39;SINK&#39;) -->
<g id="edge19" class="edge">
<title>(3, &#39;B&#39;)&#45;&gt;(&#45;1, &#39;SINK&#39;)</title>
<path fill="none" stroke="#000000" d="M2093.1682,-15.0948C2115.4936,-11.8744 2139.2983,-8.9835 2161.5239,-7.3437 2277.6759,1.2263 2307.5978,3.3204 2423.5763,-7.3437 2446.9694,-9.4946 2472.028,-13.3602 2495.2671,-17.6166"/>
<polygon fill="#000000" stroke="#000000" points="2494.6315,-21.0584 2505.1052,-19.4609 2495.9213,-14.1782 2494.6315,-21.0584"/>
</g>
<!-- (3, &#39;C&#39;) -->
<g id="node14" class="node">
<title>(3, &#39;C&#39;)</title>
<polygon fill="none" stroke="#000000" points="2304.6773,-15.9592 2312.7064,-16.0766 2320.6526,-16.2522 2328.4832,-16.4857 2336.1667,-16.7764 2343.6721,-17.1234 2350.9699,-17.5259 2358.0317,-17.9826 2364.8307,-18.4925 2371.3415,-19.054 2377.5408,-19.6656 2383.4069,-20.3257 2388.9203,-21.0325 2394.0637,-21.7839 2398.8216,-22.578 2403.1811,-23.4126 2407.1313,-24.2853 2410.6639,-25.1939 2413.7725,-26.1357 2416.4533,-27.1083 2418.7044,-28.1089 2420.5264,-29.1349 2421.9218,-30.1833 2422.895,-31.2513 2423.4525,-32.3361 2423.6025,-33.4346 2423.3549,-34.5438 2422.7209,-35.6607 2421.7134,-36.7821 2420.3462,-37.9052 2418.6343,-39.0266 2416.5937,-40.1435 2414.2408,-41.2527 2411.5929,-42.3512 2408.6673,-43.436 2405.482,-44.504 2402.0546,-45.5524 2398.403,-46.5784 2394.5446,-47.579 2390.4966,-48.5516 2386.2758,-49.4934 2381.8983,-50.402 2377.3796,-51.2747 2372.7343,-52.1093 2367.9763,-52.9034 2363.1188,-53.6548 2358.1739,-54.3616 2353.1527,-55.0217 2348.0656,-55.6333 2342.922,-56.1948 2337.7303,-56.7047 2332.4981,-57.1614 2327.2323,-57.5639 2321.939,-57.9109 2316.6236,-58.2016 2311.2909,-58.4351 2305.9453,-58.6108 2300.5907,-58.7281 2295.2309,-58.7869 2289.8694,-58.7869 2284.5096,-58.7281 2279.155,-58.6108 2273.8094,-58.4351 2268.4767,-58.2016 2263.1613,-57.9109 2257.8679,-57.5639 2252.6022,-57.1614 2247.37,-56.7047 2242.1783,-56.1948 2237.0346,-55.6333 2231.9475,-55.0217 2226.9264,-54.3616 2221.9814,-53.6548 2217.1239,-52.9034 2212.366,-52.1093 2207.7207,-51.2747 2203.2019,-50.402 2198.8244,-49.4934 2194.6036,-48.5516 2190.5557,-47.579 2186.6973,-46.5784 2183.0456,-45.5524 2179.6183,-44.504 2176.4329,-43.436 2173.5074,-42.3512 2170.8594,-41.2527 2168.5066,-40.1435 2166.4659,-39.0266 2164.7541,-37.9052 2163.3869,-36.7821 2162.3794,-35.6607 2161.7454,-34.5438 2161.4977,-33.4346 2161.6477,-32.3361 2162.2052,-31.2513 2163.1785,-30.1833 2164.5738,-29.1349 2166.3958,-28.1089 2168.647,-27.1083 2171.3277,-26.1357 2174.4364,-25.1939 2177.9689,-24.2853 2181.9192,-23.4126 2186.2787,-22.578 2191.0366,-21.7839 2196.1799,-21.0325 2201.6934,-20.3257 2207.5595,-19.6656 2213.7587,-19.054 2220.2696,-18.4925 2227.0685,-17.9826 2234.1303,-17.5259 2241.4281,-17.1234 2248.9336,-16.7764 2256.617,-16.4857 2264.4477,-16.2522 2272.3938,-16.0766 2280.423,-15.9592 2288.5022,-15.9004 2296.5981,-15.9004 2304.6773,-15.9592"/>
<text text-anchor="middle" x="2292.5501" y="-40.3437" font-family="Courier,monospace" font-weight="bold" font-size="10.00" fill="#000000">(3, &#39;C&#39;)</text>
<text text-anchor="middle" x="2292.5501" y="-29.3437" font-family="Courier,monospace" font-weight="bold" font-size="10.00" fill="#000000">0.0068242087078551365</text>
</g>
<!-- (3, &#39;B&#39;)&#45;&gt;(3, &#39;C&#39;) -->
<g id="edge20" class="edge">
<title>(3, &#39;B&#39;)&#45;&gt;(3, &#39;C&#39;)</title>
<path fill="none" stroke="#000000" d="M2119.2765,-33.7927C2129.8211,-34.0088 2140.5584,-34.2289 2151.2593,-34.4482"/>
<polygon fill="#000000" stroke="#000000" points="2151.4307,-37.9523 2161.5004,-34.658 2151.5742,-30.9538 2151.4307,-37.9523"/>
</g>
<!-- (3, &#39;C&#39;)&#45;&gt;(&#45;1, &#39;SINK&#39;) -->
<g id="edge21" class="edge">
<title>(3, &#39;C&#39;)&#45;&gt;(&#45;1, &#39;SINK&#39;)</title>
<path fill="none" stroke="#000000" d="M2421.3943,-37.3437C2431.5198,-37.3437 2441.759,-37.3437 2451.9142,-37.3437"/>
<polygon fill="#000000" stroke="#000000" points="2452.0342,-40.8438 2462.0342,-37.3437 2452.0342,-33.8438 2452.0342,-40.8438"/>
</g>
</g>
</svg>
