<?xml version="1.0" encoding="UTF-8" standalone="no"?>
<!DOCTYPE svg PUBLIC "-//W3C//DTD SVG 1.1//EN"
 "http://www.w3.org/Graphics/SVG/1.1/DTD/svg11.dtd">
<!-- Generated by graphviz version 2.40.1 (0)
 -->
<!-- Title: G Pages: 1 -->
<svg width="1227pt" height="182pt"
 viewBox="0.00 0.00 1227.32 182.44" xmlns="http://www.w3.org/2000/svg" xmlns:xlink="http://www.w3.org/1999/xlink">
<g id="graph0" class="graph" transform="scale(1 1) rotate(0) translate(4 178.441)">
<title>G</title>
<polygon fill="#ffffff" stroke="transparent" points="-4,4 -4,-178.441 1223.3184,-178.441 1223.3184,4 -4,4"/>
<text text-anchor="middle" x="609.6592" y="-159.241" font-family="Times,serif" font-size="14.00" fill="#000000">Right&#45;hand side (backward)</text>
<!-- ((&#45;1, &#39;SINK&#39;), 0) -->
<g id="node1" class="node">
<title>((&#45;1, &#39;SINK&#39;), 0)</title>
<polygon fill="none" stroke="#000000" points="1120.9112,-59.836 1127.5507,-59.9534 1134.1216,-60.1291 1140.597,-60.3625 1146.9507,-60.6532 1153.1572,-61.0002 1159.1919,-61.4027 1165.0316,-61.8595 1170.6538,-62.3693 1176.0378,-62.9308 1181.1641,-63.5425 1186.015,-64.2026 1190.5742,-64.9093 1194.8274,-65.6607 1198.7618,-66.4548 1202.3668,-67.2894 1205.6334,-68.1622 1208.5546,-69.0707 1211.1252,-70.0126 1213.342,-70.9851 1215.2036,-71.9857 1216.7102,-73.0117 1217.8641,-74.0601 1218.6688,-75.1282 1219.1299,-76.2129 1219.2539,-77.3114 1219.0491,-78.4206 1218.5249,-79.5375 1217.6917,-80.659 1216.5611,-81.782 1215.1456,-82.9035 1213.4581,-84.0203 1211.5125,-85.1295 1209.3228,-86.228 1206.9036,-87.3128 1204.2695,-88.3808 1201.4353,-89.4293 1198.4157,-90.4552 1195.2251,-91.4558 1191.8777,-92.4284 1188.3874,-93.3702 1184.7675,-94.2788 1181.0308,-95.1515 1177.1895,-95.9861 1173.255,-96.7802 1169.2382,-97.5317 1165.1491,-98.2384 1160.997,-98.8985 1156.7903,-99.5101 1152.5369,-100.0716 1148.2437,-100.5815 1143.917,-101.0383 1139.5626,-101.4407 1135.1854,-101.7877 1130.7899,-102.0784 1126.3802,-102.3119 1121.9597,-102.4876 1117.5319,-102.605 1113.0997,-102.6637 1108.6661,-102.6637 1104.2339,-102.605 1099.8061,-102.4876 1095.3857,-102.3119 1090.9759,-102.0784 1086.5804,-101.7877 1082.2032,-101.4407 1077.8488,-101.0383 1073.5222,-100.5815 1069.229,-100.0716 1064.9756,-99.5101 1060.7689,-98.8985 1056.6168,-98.2384 1052.5276,-97.5317 1048.5108,-96.7802 1044.5764,-95.9861 1040.735,-95.1515 1036.9983,-94.2788 1033.3784,-93.3702 1029.8881,-92.4284 1026.5408,-91.4558 1023.3502,-90.4552 1020.3305,-89.4293 1017.4963,-88.3808 1014.8623,-87.3128 1012.4431,-86.228 1010.2534,-85.1295 1008.3077,-84.0203 1006.6203,-82.9035 1005.2047,-81.782 1004.0742,-80.659 1003.241,-79.5375 1002.7168,-78.4206 1002.512,-77.3114 1002.636,-76.2129 1003.097,-75.1282 1003.9018,-74.0601 1005.0556,-73.0117 1006.5623,-71.9857 1008.4239,-70.9851 1010.6407,-70.0126 1013.2113,-69.0707 1016.1325,-68.1622 1019.399,-67.2894 1023.004,-66.4548 1026.9385,-65.6607 1031.1916,-64.9093 1035.7509,-64.2026 1040.6017,-63.5425 1045.7281,-62.9308 1051.1121,-62.3693 1056.7343,-61.8595 1062.5739,-61.4027 1068.6087,-61.0002 1074.8152,-60.6532 1081.1688,-60.3625 1087.6442,-60.1291 1094.2151,-59.9534 1100.8547,-59.836 1107.5356,-59.7772 1114.2303,-59.7772 1120.9112,-59.836"/>
<text text-anchor="middle" x="1110.8829" y="-84.2205" font-family="Courier,monospace" font-weight="bold" font-size="10.00" fill="#000000">((&#45;1, &#39;SINK&#39;), 0)</text>
<text text-anchor="middle" x="1110.8829" y="-73.2205" font-family="Courier,monospace" font-weight="bold" font-size="10.00" fill="#000000">1.0</text>
</g>
<!-- ((1, &#39;B&#39;), 0) -->
<g id="node2" class="node">
<title>((1, &#39;B&#39;), 0)</title>
<polygon fill="none" stroke="#000000" points="125.0476,-23.836 132.0577,-23.9534 138.9954,-24.1291 145.8321,-24.3625 152.5404,-24.6532 159.0933,-25.0002 165.4649,-25.4027 171.6304,-25.8595 177.5664,-26.3693 183.2509,-26.9308 188.6634,-27.5425 193.785,-28.2026 198.5986,-28.9093 203.0892,-29.6607 207.2432,-30.4548 211.0494,-31.2894 214.4983,-32.1622 217.5825,-33.0707 220.2966,-34.0126 222.6371,-34.9851 224.6026,-35.9857 226.1933,-37.0117 227.4116,-38.0601 228.2613,-39.1282 228.748,-40.2129 228.879,-41.3114 228.6628,-42.4206 228.1093,-43.5375 227.2296,-44.659 226.036,-45.782 224.5414,-46.9035 222.7597,-48.0203 220.7055,-49.1295 218.3936,-50.228 215.8394,-51.3128 213.0583,-52.3808 210.0659,-53.4293 206.8778,-54.4552 203.5091,-55.4558 199.9749,-56.4284 196.2898,-57.3702 192.4679,-58.2788 188.5226,-59.1515 184.4669,-59.9861 180.3128,-60.7802 176.0719,-61.5317 171.7545,-62.2384 167.3706,-62.8985 162.9292,-63.5101 158.4384,-64.0716 153.9056,-64.5815 149.3375,-65.0383 144.74,-65.4407 140.1185,-65.7877 135.4777,-66.0784 130.8218,-66.3119 126.1547,-66.4876 121.4797,-66.605 116.8002,-66.6637 112.1191,-66.6637 107.4396,-66.605 102.7646,-66.4876 98.0975,-66.3119 93.4416,-66.0784 88.8008,-65.7877 84.1793,-65.4407 79.5819,-65.0383 75.0137,-64.5815 70.481,-64.0716 65.9901,-63.5101 61.5487,-62.8985 57.1648,-62.2384 52.8475,-61.5317 48.6065,-60.7802 44.4524,-59.9861 40.3967,-59.1515 36.4515,-58.2788 32.6295,-57.3702 28.9444,-56.4284 25.4102,-55.4558 22.0416,-54.4552 18.8534,-53.4293 15.861,-52.3808 13.0799,-51.3128 10.5257,-50.228 8.2138,-49.1295 6.1596,-48.0203 4.3779,-46.9035 2.8834,-45.782 1.6897,-44.659 .8101,-43.5375 .2566,-42.4206 .0403,-41.3114 .1713,-40.2129 .658,-39.1282 1.5077,-38.0601 2.726,-37.0117 4.3167,-35.9857 6.2822,-34.9851 8.6227,-34.0126 11.3368,-33.0707 14.421,-32.1622 17.8699,-31.2894 21.6761,-30.4548 25.8301,-29.6607 30.3207,-28.9093 35.1344,-28.2026 40.256,-27.5425 45.6684,-26.9308 51.3529,-26.3693 57.2889,-25.8595 63.4544,-25.4027 69.826,-25.0002 76.3789,-24.6532 83.0872,-24.3625 89.924,-24.1291 96.8616,-23.9534 103.8717,-23.836 110.9255,-23.7772 117.9938,-23.7772 125.0476,-23.836"/>
<text text-anchor="middle" x="114.4597" y="-48.2205" font-family="Courier,monospace" font-weight="bold" font-size="10.00" fill="#000000">((1, &#39;B&#39;), 0)</text>
<text text-anchor="middle" x="114.4597" y="-37.2205" font-family="Courier,monospace" font-weight="bold" font-size="10.00" fill="#000000">0.8585641932491518</text>
</g>
<!-- ((1, &#39;C&#39;), 0) -->
<g id="node3" class="node">
<title>((1, &#39;C&#39;), 0)</title>
<polygon fill="none" stroke="#000000" points="389.967,-48.836 396.9771,-48.9534 403.9147,-49.1291 410.7515,-49.3625 417.4597,-49.6532 424.0126,-50.0002 430.3842,-50.4027 436.5497,-50.8595 442.4858,-51.3693 448.1702,-51.9308 453.5827,-52.5425 458.7043,-53.2026 463.518,-53.9093 468.0085,-54.6607 472.1626,-55.4548 475.9687,-56.2894 479.4176,-57.1622 482.5018,-58.0707 485.2159,-59.0126 487.5565,-59.9851 489.5219,-60.9857 491.1127,-62.0117 492.3309,-63.0601 493.1806,-64.1282 493.6674,-65.2129 493.7983,-66.3114 493.5821,-67.4206 493.0286,-68.5375 492.1489,-69.659 490.9553,-70.782 489.4607,-71.9035 487.6791,-73.0203 485.6248,-74.1295 483.3129,-75.228 480.7587,-76.3128 477.9776,-77.3808 474.9853,-78.4293 471.7971,-79.4552 468.4284,-80.4558 464.8942,-81.4284 461.2091,-82.3702 457.3872,-83.2788 453.4419,-84.1515 449.3862,-84.9861 445.2322,-85.7802 440.9912,-86.5317 436.6738,-87.2384 432.29,-87.8985 427.8485,-88.5101 423.3577,-89.0716 418.8249,-89.5815 414.2568,-90.0383 409.6593,-90.4407 405.0378,-90.7877 400.397,-91.0784 395.7412,-91.3119 391.074,-91.4876 386.3991,-91.605 381.7195,-91.6637 377.0385,-91.6637 372.3589,-91.605 367.684,-91.4876 363.0168,-91.3119 358.3609,-91.0784 353.7201,-90.7877 349.0986,-90.4407 344.5012,-90.0383 339.9331,-89.5815 335.4003,-89.0716 330.9095,-88.5101 326.468,-87.8985 322.0841,-87.2384 317.7668,-86.5317 313.5258,-85.7802 309.3718,-84.9861 305.316,-84.1515 301.3708,-83.2788 297.5488,-82.3702 293.8637,-81.4284 290.3296,-80.4558 286.9609,-79.4552 283.7727,-78.4293 280.7803,-77.3808 277.9993,-76.3128 275.445,-75.228 273.1332,-74.1295 271.0789,-73.0203 269.2973,-71.9035 267.8027,-70.782 266.609,-69.659 265.7294,-68.5375 265.1759,-67.4206 264.9596,-66.3114 265.0906,-65.2129 265.5774,-64.1282 266.4271,-63.0601 267.6453,-62.0117 269.2361,-60.9857 271.2015,-59.9851 273.542,-59.0126 276.2561,-58.0707 279.3403,-57.1622 282.7892,-56.2894 286.5954,-55.4548 290.7495,-54.6607 295.24,-53.9093 300.0537,-53.2026 305.1753,-52.5425 310.5877,-51.9308 316.2722,-51.3693 322.2082,-50.8595 328.3738,-50.4027 334.7453,-50.0002 341.2982,-49.6532 348.0065,-49.3625 354.8433,-49.1291 361.7809,-48.9534 368.791,-48.836 375.8448,-48.7772 382.9132,-48.7772 389.967,-48.836"/>
<text text-anchor="middle" x="379.379" y="-73.2205" font-family="Courier,monospace" font-weight="bold" font-size="10.00" fill="#000000">((1, &#39;C&#39;), 0)</text>
<text text-anchor="middle" x="379.379" y="-62.2205" font-family="Courier,monospace" font-weight="bold" font-size="10.00" fill="#000000">0.9716836298840401</text>
</g>
<!-- ((1, &#39;B&#39;), 0)&#45;&gt;((1, &#39;C&#39;), 0) -->
<g id="edge1" class="edge">
<title>((1, &#39;B&#39;), 0)&#45;&gt;((1, &#39;C&#39;), 0)</title>
<path fill="none" stroke="#000000" d="M208.2331,-54.0697C225.155,-55.6666 243.0003,-57.3506 260.5245,-59.0044"/>
<polygon fill="#000000" stroke="#000000" points="260.5114,-62.5186 270.7961,-59.9737 261.1691,-55.5496 260.5114,-62.5186"/>
</g>
<!-- ((2, &#39;A&#39;), 0) -->
<g id="node4" class="node">
<title>((2, &#39;A&#39;), 0)</title>
<polygon fill="none" stroke="#000000" points="888.5321,.164 893.7821,.0466 898.9777,-.1291 904.0979,-.3625 909.1218,-.6532 914.0293,-1.0002 918.801,-1.4027 923.4185,-1.8595 927.864,-2.3693 932.1212,-2.9308 936.1746,-3.5425 940.0102,-4.2026 943.6152,-4.9093 946.9782,-5.6607 950.0892,-6.4548 952.9397,-7.2894 955.5226,-8.1622 957.8324,-9.0707 959.8651,-10.0126 961.6179,-10.9851 963.0898,-11.9857 964.2812,-13.0117 965.1935,-14.0601 965.8299,-15.1282 966.1944,-16.2129 966.2925,-17.3114 966.1306,-18.4206 965.716,-19.5375 965.0572,-20.659 964.1633,-21.782 963.044,-22.9035 961.7097,-24.0203 960.1713,-25.1295 958.4399,-26.228 956.527,-27.3128 954.4442,-28.3808 952.2032,-29.4293 949.8155,-30.4552 947.2927,-31.4558 944.6459,-32.4284 941.8861,-33.3702 939.0238,-34.2788 936.0692,-35.1515 933.0318,-35.9861 929.9208,-36.7802 926.7447,-37.5317 923.5114,-38.2384 920.2283,-38.8985 916.902,-39.5101 913.5388,-40.0716 910.1441,-40.5815 906.7231,-41.0383 903.28,-41.4407 899.8189,-41.7877 896.3433,-42.0784 892.8565,-42.3119 889.3612,-42.4876 885.8601,-42.605 882.3556,-42.6637 878.8499,-42.6637 875.3453,-42.605 871.8442,-42.4876 868.3489,-42.3119 864.8621,-42.0784 861.3865,-41.7877 857.9255,-41.4407 854.4824,-41.0383 851.0613,-40.5815 847.6666,-40.0716 844.3034,-39.5101 840.9772,-38.8985 837.694,-38.2384 834.4607,-37.5317 831.2846,-36.7802 828.1736,-35.9861 825.1362,-35.1515 822.1816,-34.2788 819.3193,-33.3702 816.5595,-32.4284 813.9127,-31.4558 811.3899,-30.4552 809.0022,-29.4293 806.7612,-28.3808 804.6784,-27.3128 802.7656,-26.228 801.0342,-25.1295 799.4957,-24.0203 798.1614,-22.9035 797.0421,-21.782 796.1482,-20.659 795.4894,-19.5375 795.0749,-18.4206 794.9129,-17.3114 795.011,-16.2129 795.3756,-15.1282 796.0119,-14.0601 796.9243,-13.0117 798.1156,-11.9857 799.5875,-10.9851 801.3404,-10.0126 803.373,-9.0707 805.6828,-8.1622 808.2657,-7.2894 811.1162,-6.4548 814.2272,-5.6607 817.5902,-4.9093 821.1952,-4.2026 825.0308,-3.5425 829.0843,-2.9308 833.3414,-2.3693 837.787,-1.8595 842.4044,-1.4027 847.1761,-1.0002 852.0837,-.6532 857.1075,-.3625 862.2277,-.1291 867.4233,.0466 872.6733,.164 877.9559,.2228 883.2495,.2228 888.5321,.164"/>
<text text-anchor="middle" x="880.6027" y="-24.2205" font-family="Courier,monospace" font-weight="bold" font-size="10.00" fill="#000000">((2, &#39;A&#39;), 0)</text>
<text text-anchor="middle" x="880.6027" y="-13.2205" font-family="Courier,monospace" font-weight="bold" font-size="10.00" fill="#000000">1.0</text>
</g>
<!-- ((1, &#39;B&#39;), 0)&#45;&gt;((2, &#39;A&#39;), 0) -->
<g id="edge2" class="edge">
<title>((1, &#39;B&#39;), 0)&#45;&gt;((2, &#39;A&#39;), 0)</title>
<path fill="none" stroke="#000000" d="M229.0577,-41.384C241.1653,-40.9871 253.2948,-40.593 264.9193,-40.2205 450.826,-34.263 668.3202,-27.6302 788.664,-23.9897"/>
<polygon fill="#000000" stroke="#000000" points="789.0461,-27.4799 798.9357,-23.6791 788.8345,-20.4831 789.0461,-27.4799"/>
</g>
<!-- ((2, &#39;B&#39;), 0) -->
<g id="node5" class="node">
<title>((2, &#39;B&#39;), 0)</title>
<polygon fill="none" stroke="#000000" points="652.2277,-108.836 657.4777,-108.9534 662.6733,-109.1291 667.7935,-109.3625 672.8174,-109.6532 677.7249,-110.0002 682.4966,-110.4027 687.114,-110.8595 691.5596,-111.3693 695.8168,-111.9308 699.8702,-112.5425 703.7058,-113.2026 707.3108,-113.9093 710.6738,-114.6607 713.7848,-115.4548 716.6353,-116.2894 719.2182,-117.1622 721.528,-118.0707 723.5606,-119.0126 725.3135,-119.9851 726.7854,-120.9857 727.9768,-122.0117 728.8891,-123.0601 729.5255,-124.1282 729.89,-125.2129 729.9881,-126.3114 729.8261,-127.4206 729.4116,-128.5375 728.7528,-129.659 727.8589,-130.782 726.7396,-131.9035 725.4053,-133.0203 723.8669,-134.1295 722.1355,-135.228 720.2226,-136.3128 718.1398,-137.3808 715.8988,-138.4293 713.5111,-139.4552 710.9883,-140.4558 708.3415,-141.4284 705.5817,-142.3702 702.7194,-143.2788 699.7648,-144.1515 696.7274,-144.9861 693.6164,-145.7802 690.4403,-146.5317 687.207,-147.2384 683.9239,-147.8985 680.5976,-148.5101 677.2344,-149.0716 673.8397,-149.5815 670.4186,-150.0383 666.9756,-150.4407 663.5145,-150.7877 660.0389,-151.0784 656.5521,-151.3119 653.0568,-151.4876 649.5557,-151.605 646.0512,-151.6637 642.5455,-151.6637 639.0409,-151.605 635.5398,-151.4876 632.0445,-151.3119 628.5577,-151.0784 625.0821,-150.7877 621.6211,-150.4407 618.178,-150.0383 614.7569,-149.5815 611.3622,-149.0716 607.999,-148.5101 604.6728,-147.8985 601.3896,-147.2384 598.1563,-146.5317 594.9802,-145.7802 591.8692,-144.9861 588.8318,-144.1515 585.8772,-143.2788 583.0149,-142.3702 580.2551,-141.4284 577.6083,-140.4558 575.0855,-139.4552 572.6978,-138.4293 570.4568,-137.3808 568.374,-136.3128 566.4611,-135.228 564.7298,-134.1295 563.1913,-133.0203 561.857,-131.9035 560.7377,-130.782 559.8438,-129.659 559.185,-128.5375 558.7705,-127.4206 558.6085,-126.3114 558.7066,-125.2129 559.0711,-124.1282 559.7075,-123.0601 560.6199,-122.0117 561.8112,-120.9857 563.2831,-119.9851 565.036,-119.0126 567.0686,-118.0707 569.3784,-117.1622 571.9613,-116.2894 574.8118,-115.4548 577.9228,-114.6607 581.2858,-113.9093 584.8908,-113.2026 588.7264,-112.5425 592.7799,-111.9308 597.037,-111.3693 601.4826,-110.8595 606.1,-110.4027 610.8717,-110.0002 615.7792,-109.6532 620.8031,-109.3625 625.9233,-109.1291 631.1189,-108.9534 636.3689,-108.836 641.6515,-108.7772 646.9451,-108.7772 652.2277,-108.836"/>
<text text-anchor="middle" x="644.2983" y="-133.2205" font-family="Courier,monospace" font-weight="bold" font-size="10.00" fill="#000000">((2, &#39;B&#39;), 0)</text>
<text text-anchor="middle" x="644.2983" y="-122.2205" font-family="Courier,monospace" font-weight="bold" font-size="10.00" fill="#000000">1.0</text>
</g>
<!-- ((1, &#39;C&#39;), 0)&#45;&gt;((2, &#39;B&#39;), 0) -->
<g id="edge3" class="edge">
<title>((1, &#39;C&#39;), 0)&#45;&gt;((2, &#39;B&#39;), 0)</title>
<path fill="none" stroke="#000000" d="M446.9148,-85.5163C483.3622,-93.771 528.5223,-103.9991 566.4442,-112.5878"/>
<polygon fill="#000000" stroke="#000000" points="565.8996,-116.053 576.4257,-114.8484 567.4459,-109.2259 565.8996,-116.053"/>
</g>
<!-- ((2, &#39;B&#39;), 1) -->
<g id="node6" class="node">
<title>((2, &#39;B&#39;), 1)</title>
<polygon fill="none" stroke="#000000" points="654.8863,-48.836 661.8964,-48.9534 668.834,-49.1291 675.6708,-49.3625 682.3791,-49.6532 688.9319,-50.0002 695.3035,-50.4027 701.4691,-50.8595 707.4051,-51.3693 713.0896,-51.9308 718.502,-52.5425 723.6236,-53.2026 728.4373,-53.9093 732.9278,-54.6607 737.0819,-55.4548 740.8881,-56.2894 744.337,-57.1622 747.4212,-58.0707 750.1353,-59.0126 752.4758,-59.9851 754.4412,-60.9857 756.032,-62.0117 757.2502,-63.0601 758.0999,-64.1282 758.5867,-65.2129 758.7176,-66.3114 758.5014,-67.4206 757.9479,-68.5375 757.0683,-69.659 755.8746,-70.782 754.38,-71.9035 752.5984,-73.0203 750.5441,-74.1295 748.2323,-75.228 745.678,-76.3128 742.897,-77.3808 739.9046,-78.4293 736.7164,-79.4552 733.3477,-80.4558 729.8135,-81.4284 726.1284,-82.3702 722.3065,-83.2788 718.3613,-84.1515 714.3055,-84.9861 710.1515,-85.7802 705.9105,-86.5317 701.5932,-87.2384 697.2093,-87.8985 692.7678,-88.5101 688.277,-89.0716 683.7442,-89.5815 679.1761,-90.0383 674.5787,-90.4407 669.9572,-90.7877 665.3164,-91.0784 660.6605,-91.3119 655.9933,-91.4876 651.3184,-91.605 646.6388,-91.6637 641.9578,-91.6637 637.2782,-91.605 632.6033,-91.4876 627.9361,-91.3119 623.2803,-91.0784 618.6395,-90.7877 614.018,-90.4407 609.4205,-90.0383 604.8524,-89.5815 600.3196,-89.0716 595.8288,-88.5101 591.3873,-87.8985 587.0035,-87.2384 582.6861,-86.5317 578.4451,-85.7802 574.2911,-84.9861 570.2354,-84.1515 566.2901,-83.2788 562.4682,-82.3702 558.7831,-81.4284 555.2489,-80.4558 551.8802,-79.4552 548.692,-78.4293 545.6997,-77.3808 542.9186,-76.3128 540.3644,-75.228 538.0525,-74.1295 535.9982,-73.0203 534.2166,-71.9035 532.722,-70.782 531.5284,-69.659 530.6487,-68.5375 530.0952,-67.4206 529.879,-66.3114 530.0099,-65.2129 530.4967,-64.1282 531.3464,-63.0601 532.5646,-62.0117 534.1554,-60.9857 536.1208,-59.9851 538.4614,-59.0126 541.1754,-58.0707 544.2597,-57.1622 547.7086,-56.2894 551.5147,-55.4548 555.6688,-54.6607 560.1593,-53.9093 564.973,-53.2026 570.0946,-52.5425 575.5071,-51.9308 581.1915,-51.3693 587.1276,-50.8595 593.2931,-50.4027 599.6647,-50.0002 606.2175,-49.6532 612.9258,-49.3625 619.7626,-49.1291 626.7002,-48.9534 633.7103,-48.836 640.7641,-48.7772 647.8325,-48.7772 654.8863,-48.836"/>
<text text-anchor="middle" x="644.2983" y="-73.2205" font-family="Courier,monospace" font-weight="bold" font-size="10.00" fill="#000000">((2, &#39;B&#39;), 1)</text>
<text text-anchor="middle" x="644.2983" y="-62.2205" font-family="Courier,monospace" font-weight="bold" font-size="10.00" fill="#000000">0.6989602079584083</text>
</g>
<!-- ((1, &#39;C&#39;), 0)&#45;&gt;((2, &#39;B&#39;), 1) -->
<g id="edge4" class="edge">
<title>((1, &#39;C&#39;), 0)&#45;&gt;((2, &#39;B&#39;), 1)</title>
<path fill="none" stroke="#000000" d="M491.7286,-70.2205C501.5672,-70.2205 511.5573,-70.2205 521.475,-70.2205"/>
<polygon fill="#000000" stroke="#000000" points="521.7747,-73.7206 531.7746,-70.2205 521.7746,-66.7206 521.7747,-73.7206"/>
</g>
<!-- ((2, &#39;A&#39;), 0)&#45;&gt;((&#45;1, &#39;SINK&#39;), 0) -->
<g id="edge5" class="edge">
<title>((2, &#39;A&#39;), 0)&#45;&gt;((&#45;1, &#39;SINK&#39;), 0)</title>
<path fill="none" stroke="#000000" d="M935.1759,-35.4396C964.2244,-43.0083 1000.4628,-52.4503 1032.4714,-60.7902"/>
<polygon fill="#000000" stroke="#000000" points="1031.6972,-64.2052 1042.2566,-63.3397 1033.4622,-57.4314 1031.6972,-64.2052"/>
</g>
<!-- ((2, &#39;B&#39;), 0)&#45;&gt;((&#45;1, &#39;SINK&#39;), 0) -->
<g id="edge6" class="edge">
<title>((2, &#39;B&#39;), 0)&#45;&gt;((&#45;1, &#39;SINK&#39;), 0)</title>
<path fill="none" stroke="#000000" d="M729.4044,-128.583C794.5376,-126.513 886.4705,-121.8271 966.4475,-111.2205 989.669,-108.1408 1014.7347,-103.4322 1037.3624,-98.6518"/>
<polygon fill="#000000" stroke="#000000" points="1038.1928,-102.0533 1047.2339,-96.5299 1036.7216,-95.2096 1038.1928,-102.0533"/>
</g>
<!-- ((2, &#39;C&#39;), 0) -->
<g id="node7" class="node">
<title>((2, &#39;C&#39;), 0)</title>
<polygon fill="none" stroke="#000000" points="888.5321,-59.836 893.7821,-59.9534 898.9777,-60.1291 904.0979,-60.3625 909.1218,-60.6532 914.0293,-61.0002 918.801,-61.4027 923.4185,-61.8595 927.864,-62.3693 932.1212,-62.9308 936.1746,-63.5425 940.0102,-64.2026 943.6152,-64.9093 946.9782,-65.6607 950.0892,-66.4548 952.9397,-67.2894 955.5226,-68.1622 957.8324,-69.0707 959.8651,-70.0126 961.6179,-70.9851 963.0898,-71.9857 964.2812,-73.0117 965.1935,-74.0601 965.8299,-75.1282 966.1944,-76.2129 966.2925,-77.3114 966.1306,-78.4206 965.716,-79.5375 965.0572,-80.659 964.1633,-81.782 963.044,-82.9035 961.7097,-84.0203 960.1713,-85.1295 958.4399,-86.228 956.527,-87.3128 954.4442,-88.3808 952.2032,-89.4293 949.8155,-90.4552 947.2927,-91.4558 944.6459,-92.4284 941.8861,-93.3702 939.0238,-94.2788 936.0692,-95.1515 933.0318,-95.9861 929.9208,-96.7802 926.7447,-97.5317 923.5114,-98.2384 920.2283,-98.8985 916.902,-99.5101 913.5388,-100.0716 910.1441,-100.5815 906.7231,-101.0383 903.28,-101.4407 899.8189,-101.7877 896.3433,-102.0784 892.8565,-102.3119 889.3612,-102.4876 885.8601,-102.605 882.3556,-102.6637 878.8499,-102.6637 875.3453,-102.605 871.8442,-102.4876 868.3489,-102.3119 864.8621,-102.0784 861.3865,-101.7877 857.9255,-101.4407 854.4824,-101.0383 851.0613,-100.5815 847.6666,-100.0716 844.3034,-99.5101 840.9772,-98.8985 837.694,-98.2384 834.4607,-97.5317 831.2846,-96.7802 828.1736,-95.9861 825.1362,-95.1515 822.1816,-94.2788 819.3193,-93.3702 816.5595,-92.4284 813.9127,-91.4558 811.3899,-90.4552 809.0022,-89.4293 806.7612,-88.3808 804.6784,-87.3128 802.7656,-86.228 801.0342,-85.1295 799.4957,-84.0203 798.1614,-82.9035 797.0421,-81.782 796.1482,-80.659 795.4894,-79.5375 795.0749,-78.4206 794.9129,-77.3114 795.011,-76.2129 795.3756,-75.1282 796.0119,-74.0601 796.9243,-73.0117 798.1156,-71.9857 799.5875,-70.9851 801.3404,-70.0126 803.373,-69.0707 805.6828,-68.1622 808.2657,-67.2894 811.1162,-66.4548 814.2272,-65.6607 817.5902,-64.9093 821.1952,-64.2026 825.0308,-63.5425 829.0843,-62.9308 833.3414,-62.3693 837.787,-61.8595 842.4044,-61.4027 847.1761,-61.0002 852.0837,-60.6532 857.1075,-60.3625 862.2277,-60.1291 867.4233,-59.9534 872.6733,-59.836 877.9559,-59.7772 883.2495,-59.7772 888.5321,-59.836"/>
<text text-anchor="middle" x="880.6027" y="-84.2205" font-family="Courier,monospace" font-weight="bold" font-size="10.00" fill="#000000">((2, &#39;C&#39;), 0)</text>
<text text-anchor="middle" x="880.6027" y="-73.2205" font-family="Courier,monospace" font-weight="bold" font-size="10.00" fill="#000000">1.0</text>
</g>
<!-- ((2, &#39;B&#39;), 1)&#45;&gt;((2, &#39;C&#39;), 0) -->
<g id="edge7" class="edge">
<title>((2, &#39;B&#39;), 1)&#45;&gt;((2, &#39;C&#39;), 0)</title>
<path fill="none" stroke="#000000" d="M748.6327,-75.0773C760.586,-75.6337 772.7306,-76.199 784.568,-76.75"/>
<polygon fill="#000000" stroke="#000000" points="784.727,-80.2611 794.879,-77.23 785.0526,-73.2687 784.727,-80.2611"/>
</g>
<!-- ((2, &#39;C&#39;), 0)&#45;&gt;((&#45;1, &#39;SINK&#39;), 0) -->
<g id="edge8" class="edge">
<title>((2, &#39;C&#39;), 0)&#45;&gt;((&#45;1, &#39;SINK&#39;), 0)</title>
<path fill="none" stroke="#000000" d="M964.7167,-81.2205C974.4491,-81.2205 984.5012,-81.2205 994.5653,-81.2205"/>
<polygon fill="#000000" stroke="#000000" points="994.6221,-84.7206 1004.622,-81.2205 994.622,-77.7206 994.6221,-84.7206"/>
</g>
</g>
</svg>
