<?xml version="1.0" encoding="UTF-8" standalone="no"?>
<!DOCTYPE svg PUBLIC "-//W3C//DTD SVG 1.1//EN"
 "http://www.w3.org/Graphics/SVG/1.1/DTD/svg11.dtd">
<!-- Generated by graphviz version 2.40.1 (0)
 -->
<!-- Title: G Pages: 1 -->
<svg width="435pt" height="334pt"
 viewBox="0.00 0.00 435.19 334.00" xmlns="http://www.w3.org/2000/svg" xmlns:xlink="http://www.w3.org/1999/xlink">
<g id="graph0" class="graph" transform="scale(1 1) rotate(0) translate(4 329.9985)">
<title>G</title>
<polygon fill="#ffffff" stroke="transparent" points="-4,4 -4,-329.9985 431.1949,-329.9985 431.1949,4 -4,4"/>
<!-- STATE_A -->
<g id="node1" class="node">
<title>STATE_A</title>
<polygon fill="none" stroke="#000000" points="31.426,-190.0479 33.202,-190.1464 34.9597,-190.2939 36.6919,-190.4899 38.3915,-190.7338 40.0517,-191.0252 41.666,-191.363 43.2281,-191.7464 44.732,-192.1744 46.1722,-192.6457 47.5435,-193.1592 48.8411,-193.7133 50.0607,-194.3065 51.1984,-194.9373 52.2508,-195.6039 53.2152,-196.3044 54.089,-197.0371 54.8704,-197.7997 55.558,-198.5903 56.151,-199.4067 56.6489,-200.2467 57.052,-201.1079 57.3606,-201.9879 57.5759,-202.8845 57.6992,-203.7951 57.7324,-204.7172 57.6776,-205.6482 57.5374,-206.5858 57.3145,-207.5272 57.0121,-208.4699 56.6334,-209.4113 56.182,-210.3488 55.6616,-211.2799 55.0759,-212.202 54.4287,-213.1125 53.7241,-214.0091 52.966,-214.8892 52.1582,-215.7504 51.3048,-216.5903 50.4093,-217.4067 49.4757,-218.1973 48.5074,-218.96 47.5078,-219.6926 46.4803,-220.3931 45.4278,-221.0597 44.3533,-221.6905 43.2595,-222.2838 42.1488,-222.8379 41.0235,-223.3513 39.8858,-223.8226 38.7373,-224.2506 37.58,-224.6341 36.4152,-224.9719 35.2443,-225.2632 34.0685,-225.5072 32.8889,-225.7032 31.7065,-225.8506 30.522,-225.9492 29.3364,-225.9985 28.1505,-225.9985 26.9649,-225.9492 25.7804,-225.8506 24.598,-225.7032 23.4184,-225.5072 22.2426,-225.2632 21.0717,-224.9719 19.9069,-224.6341 18.7495,-224.2506 17.6011,-223.8226 16.4633,-223.3513 15.3381,-222.8379 14.2274,-222.2838 13.1335,-221.6905 12.0591,-221.0597 11.0066,-220.3931 9.9791,-219.6926 8.9795,-218.96 8.0112,-218.1973 7.0775,-217.4067 6.1821,-216.5903 5.3286,-215.7504 4.5209,-214.8892 3.7628,-214.0091 3.0582,-213.1125 2.411,-212.202 1.8253,-211.2799 1.3048,-210.3488 .8534,-209.4113 .4748,-208.4699 .1724,-207.5272 -.0505,-206.5858 -.1907,-205.6482 -.2455,-204.7172 -.2123,-203.7951 -.089,-202.8845 .1263,-201.9879 .4349,-201.1079 .8379,-200.2467 1.3359,-199.4067 1.9289,-198.5903 2.6165,-197.7997 3.3979,-197.0371 4.2717,-196.3044 5.2361,-195.6039 6.2885,-194.9373 7.4262,-194.3065 8.6458,-193.7133 9.9434,-193.1592 11.3147,-192.6457 12.7549,-192.1744 14.2588,-191.7464 15.8209,-191.363 17.4352,-191.0252 19.0954,-190.7338 20.795,-190.4899 22.5271,-190.2939 24.2848,-190.1464 26.0609,-190.0479 27.848,-189.9985 29.6389,-189.9985 31.426,-190.0479"/>
<text text-anchor="middle" x="28.7434" y="-205.4985" font-family="Courier,monospace" font-weight="bold" font-size="10.00" fill="#000000">A</text>
</g>
<!-- STATE_A&#45;&gt;STATE_A -->
<g id="edge1" class="edge">
<title>STATE_A&#45;&gt;STATE_A</title>
<path fill="none" stroke="#000000" d="M18.6357,-224.2888C16.1984,-234.3877 19.5677,-243.9985 28.7434,-243.9985 34.6217,-243.9985 38.1169,-240.0542 39.2291,-234.5641"/>
<polygon fill="#000000" stroke="#000000" points="42.7165,-234.1533 38.8511,-224.2888 35.7212,-234.4107 42.7165,-234.1533"/>
<text text-anchor="middle" x="28.7434" y="-246.9985" font-family="Courier,monospace" font-weight="bold" font-size="10.00" fill="#000000">nan</text>
</g>
<!-- STATE_B -->
<g id="node2" class="node">
<title>STATE_B</title>
<polygon fill="none" stroke="#000000" points="147.9129,-120.0479 149.6889,-120.1464 151.4466,-120.2939 153.1788,-120.4899 154.8784,-120.7338 156.5386,-121.0252 158.1529,-121.363 159.7149,-121.7464 161.2189,-122.1744 162.6591,-122.6457 164.0304,-123.1592 165.328,-123.7133 166.5475,-124.3065 167.6853,-124.9373 168.7377,-125.6039 169.702,-126.3044 170.5758,-127.0371 171.3572,-127.7997 172.0449,-128.5903 172.6379,-129.4067 173.1358,-130.2467 173.5389,-131.1079 173.8475,-131.9879 174.0628,-132.8845 174.1861,-133.7951 174.2193,-134.7172 174.1645,-135.6482 174.0243,-136.5858 173.8014,-137.5272 173.499,-138.4699 173.1203,-139.4113 172.6689,-140.3488 172.1485,-141.2799 171.5627,-142.202 170.9156,-143.1125 170.211,-144.0091 169.4529,-144.8892 168.6451,-145.7504 167.7916,-146.5903 166.8962,-147.4067 165.9626,-148.1973 164.9943,-148.96 163.9947,-149.6926 162.9672,-150.3931 161.9147,-151.0597 160.8402,-151.6905 159.7464,-152.2838 158.6357,-152.8379 157.5104,-153.3513 156.3727,-153.8226 155.2242,-154.2506 154.0669,-154.6341 152.9021,-154.9719 151.7312,-155.2632 150.5554,-155.5072 149.3758,-155.7032 148.1933,-155.8506 147.0089,-155.9492 145.8233,-155.9985 144.6373,-155.9985 143.4517,-155.9492 142.2673,-155.8506 141.0849,-155.7032 139.9053,-155.5072 138.7295,-155.2632 137.5586,-154.9719 136.3938,-154.6341 135.2364,-154.2506 134.088,-153.8226 132.9502,-153.3513 131.825,-152.8379 130.7143,-152.2838 129.6204,-151.6905 128.5459,-151.0597 127.4935,-150.3931 126.4659,-149.6926 125.4664,-148.96 124.4981,-148.1973 123.5644,-147.4067 122.669,-146.5903 121.8155,-145.7504 121.0078,-144.8892 120.2497,-144.0091 119.545,-143.1125 118.8979,-142.202 118.3122,-141.2799 117.7917,-140.3488 117.3403,-139.4113 116.9617,-138.4699 116.6592,-137.5272 116.4364,-136.5858 116.2961,-135.6482 116.2414,-134.7172 116.2745,-133.7951 116.3979,-132.8845 116.6131,-131.9879 116.9218,-131.1079 117.3248,-130.2467 117.8228,-129.4067 118.4158,-128.5903 119.1034,-127.7997 119.8848,-127.0371 120.7586,-126.3044 121.7229,-125.6039 122.7754,-124.9373 123.9131,-124.3065 125.1327,-123.7133 126.4303,-123.1592 127.8016,-122.6457 129.2418,-122.1744 130.7457,-121.7464 132.3078,-121.363 133.9221,-121.0252 135.5823,-120.7338 137.2819,-120.4899 139.014,-120.2939 140.7717,-120.1464 142.5478,-120.0479 144.3349,-119.9985 146.1257,-119.9985 147.9129,-120.0479"/>
<text text-anchor="middle" x="145.2303" y="-135.4985" font-family="Courier,monospace" font-weight="bold" font-size="10.00" fill="#000000">B</text>
</g>
<!-- STATE_A&#45;&gt;STATE_B -->
<g id="edge2" class="edge">
<title>STATE_A&#45;&gt;STATE_B</title>
<path fill="none" stroke="#000000" d="M50.9279,-194.6673C69.7039,-183.3843 96.7225,-167.1482 117.0306,-154.9445"/>
<polygon fill="#000000" stroke="#000000" points="119.0668,-157.8042 125.8355,-149.6534 115.4612,-151.8042 119.0668,-157.8042"/>
<text text-anchor="middle" x="86.9869" y="-181.9985" font-family="Courier,monospace" font-weight="bold" font-size="10.00" fill="#000000">nan</text>
</g>
<!-- STATE_C -->
<g id="node3" class="node">
<title>STATE_C</title>
<polygon fill="none" stroke="#000000" points="264.3998,-220.0479 266.1758,-220.1464 267.9335,-220.2939 269.6657,-220.4899 271.3652,-220.7338 273.0255,-221.0252 274.6398,-221.363 276.2018,-221.7464 277.7058,-222.1744 279.146,-222.6457 280.5173,-223.1592 281.8149,-223.7133 283.0344,-224.3065 284.1721,-224.9373 285.2246,-225.6039 286.1889,-226.3044 287.0627,-227.0371 287.8441,-227.7997 288.5318,-228.5903 289.1248,-229.4067 289.6227,-230.2467 290.0257,-231.1079 290.3344,-231.9879 290.5497,-232.8845 290.673,-233.7951 290.7062,-234.7172 290.6514,-235.6482 290.5112,-236.5858 290.2883,-237.5272 289.9859,-238.4699 289.6072,-239.4113 289.1558,-240.3488 288.6354,-241.2799 288.0496,-242.202 287.4025,-243.1125 286.6979,-244.0091 285.9398,-244.8892 285.132,-245.7504 284.2785,-246.5903 283.3831,-247.4067 282.4495,-248.1973 281.4812,-248.96 280.4816,-249.6926 279.4541,-250.3931 278.4016,-251.0597 277.3271,-251.6905 276.2333,-252.2838 275.1226,-252.8379 273.9973,-253.3513 272.8595,-253.8226 271.7111,-254.2506 270.5538,-254.6341 269.389,-254.9719 268.2181,-255.2632 267.0423,-255.5072 265.8627,-255.7032 264.6802,-255.8506 263.4958,-255.9492 262.3102,-255.9985 261.1242,-255.9985 259.9386,-255.9492 258.7542,-255.8506 257.5717,-255.7032 256.3921,-255.5072 255.2164,-255.2632 254.0455,-254.9719 252.8807,-254.6341 251.7233,-254.2506 250.5749,-253.8226 249.4371,-253.3513 248.3118,-252.8379 247.2011,-252.2838 246.1073,-251.6905 245.0328,-251.0597 243.9804,-250.3931 242.9528,-249.6926 241.9533,-248.96 240.985,-248.1973 240.0513,-247.4067 239.1559,-246.5903 238.3024,-245.7504 237.4947,-244.8892 236.7365,-244.0091 236.0319,-243.1125 235.3848,-242.202 234.7991,-241.2799 234.2786,-240.3488 233.8272,-239.4113 233.4486,-238.4699 233.1461,-237.5272 232.9233,-236.5858 232.783,-235.6482 232.7282,-234.7172 232.7614,-233.7951 232.8848,-232.8845 233.1,-231.9879 233.4087,-231.1079 233.8117,-230.2467 234.3097,-229.4067 234.9027,-228.5903 235.5903,-227.7997 236.3717,-227.0371 237.2455,-226.3044 238.2098,-225.6039 239.2623,-224.9373 240.4,-224.3065 241.6196,-223.7133 242.9172,-223.1592 244.2885,-222.6457 245.7287,-222.1744 247.2326,-221.7464 248.7947,-221.363 250.409,-221.0252 252.0692,-220.7338 253.7688,-220.4899 255.5009,-220.2939 257.2586,-220.1464 259.0347,-220.0479 260.8218,-219.9985 262.6126,-219.9985 264.3998,-220.0479"/>
<text text-anchor="middle" x="261.7172" y="-235.4985" font-family="Courier,monospace" font-weight="bold" font-size="10.00" fill="#000000">C</text>
</g>
<!-- STATE_A&#45;&gt;STATE_C -->
<g id="edge3" class="edge">
<title>STATE_A&#45;&gt;STATE_C</title>
<path fill="none" stroke="#000000" d="M34.3609,-225.6911C41.0432,-243.4469 54.0739,-269.8545 75.4869,-281.9985 129.4124,-312.5814 157.6296,-305.5554 214.9738,-281.9985 225.7547,-277.5697 235.5279,-269.4167 243.3176,-261.3212"/>
<polygon fill="#000000" stroke="#000000" points="246.0794,-263.4838 250.1465,-253.7006 240.8663,-258.8122 246.0794,-263.4838"/>
<text text-anchor="middle" x="145.2303" y="-304.9985" font-family="Courier,monospace" font-weight="bold" font-size="10.00" fill="#000000">nan</text>
</g>
<!-- STATE_SOURCE -->
<g id="node4" class="node">
<title>STATE_SOURCE</title>
<polygon fill="none" stroke="#000000" points="391.9121,-152.0479 394.2853,-152.1464 396.6339,-152.2939 398.9484,-152.4899 401.2193,-152.7338 403.4377,-153.0252 405.5947,-153.363 407.6819,-153.7464 409.6915,-154.1744 411.6158,-154.6457 413.4481,-155.1592 415.182,-155.7133 416.8116,-156.3065 418.3317,-156.9373 419.738,-157.6039 421.0265,-158.3044 422.1941,-159.0371 423.2382,-159.7997 424.157,-160.5903 424.9494,-161.4067 425.6147,-162.2467 426.1533,-163.1079 426.5657,-163.9879 426.8533,-164.8845 427.0181,-165.7951 427.0624,-166.7172 426.9892,-167.6482 426.8019,-168.5858 426.5041,-169.5272 426.1,-170.4699 425.594,-171.4113 424.9909,-172.3488 424.2954,-173.2799 423.5128,-174.202 422.6481,-175.1125 421.7066,-176.0091 420.6936,-176.8892 419.6143,-177.7504 418.4739,-178.5903 417.2775,-179.4067 416.0299,-180.1973 414.7361,-180.96 413.4005,-181.6926 412.0275,-182.3931 410.6212,-183.0597 409.1855,-183.6905 407.7239,-184.2838 406.2399,-184.8379 404.7363,-185.3513 403.216,-185.8226 401.6815,-186.2506 400.135,-186.6341 398.5787,-186.9719 397.0141,-187.2632 395.4431,-187.5072 393.8669,-187.7032 392.2869,-187.8506 390.7043,-187.9492 389.1201,-187.9985 387.5354,-187.9985 385.9512,-187.9492 384.3686,-187.8506 382.7886,-187.7032 381.2125,-187.5072 379.6414,-187.2632 378.0769,-186.9719 376.5205,-186.6341 374.974,-186.2506 373.4395,-185.8226 371.9193,-185.3513 370.4157,-184.8379 368.9316,-184.2838 367.47,-183.6905 366.0343,-183.0597 364.628,-182.3931 363.255,-181.6926 361.9194,-180.96 360.6256,-180.1973 359.3781,-179.4067 358.1816,-178.5903 357.0412,-177.7504 355.9619,-176.8892 354.9489,-176.0091 354.0074,-175.1125 353.1427,-174.202 352.3601,-173.2799 351.6647,-172.3488 351.0615,-171.4113 350.5556,-170.4699 350.1515,-169.5272 349.8537,-168.5858 349.6663,-167.6482 349.5931,-166.7172 349.6374,-165.7951 349.8022,-164.8845 350.0899,-163.9879 350.5023,-163.1079 351.0408,-162.2467 351.7062,-161.4067 352.4985,-160.5903 353.4173,-159.7997 354.4614,-159.0371 355.629,-158.3044 356.9175,-157.6039 358.3238,-156.9373 359.844,-156.3065 361.4736,-155.7133 363.2074,-155.1592 365.0397,-154.6457 366.9641,-154.1744 368.9736,-153.7464 371.0608,-153.363 373.2178,-153.0252 375.4362,-152.7338 377.7072,-152.4899 380.0216,-152.2939 382.3702,-152.1464 384.7434,-152.0479 387.1313,-151.9985 389.5242,-151.9985 391.9121,-152.0479"/>
<text text-anchor="middle" x="388.3278" y="-167.4985" font-family="Courier,monospace" font-weight="bold" font-size="10.00" fill="#000000">SOURCE</text>
</g>
<!-- STATE_A&#45;&gt;STATE_SOURCE -->
<g id="edge4" class="edge">
<title>STATE_A&#45;&gt;STATE_SOURCE</title>
<path fill="none" stroke="#000000" d="M33.4456,-225.7972C39.7672,-246.4943 52.9051,-280.4388 75.4869,-300.9985 108.2778,-330.8533 129.8384,-321.3141 173.9738,-316.9985 226.4948,-311.863 245.4384,-321.5271 290.4607,-293.9985 329.1402,-270.3481 358.6751,-225.5349 374.7465,-196.7528"/>
<polygon fill="#000000" stroke="#000000" points="377.9866,-198.1197 379.6744,-187.6602 371.8324,-194.7843 377.9866,-198.1197"/>
<text text-anchor="middle" x="203.4738" y="-317.9985" font-family="Courier,monospace" font-weight="bold" font-size="10.00" fill="#000000">nan</text>
</g>
<!-- SYMBOL_z -->
<g id="node5" class="node">
<title>SYMBOL_z</title>
<polygon fill="none" stroke="#000000" stroke-dasharray="5,2" points="264.3998,-16.0479 266.1758,-16.1464 267.9335,-16.2939 269.6657,-16.4899 271.3652,-16.7338 273.0255,-17.0252 274.6398,-17.363 276.2018,-17.7464 277.7058,-18.1744 279.146,-18.6457 280.5173,-19.1592 281.8149,-19.7133 283.0344,-20.3065 284.1721,-20.9373 285.2246,-21.6039 286.1889,-22.3044 287.0627,-23.0371 287.8441,-23.7997 288.5318,-24.5903 289.1248,-25.4067 289.6227,-26.2467 290.0257,-27.1079 290.3344,-27.9879 290.5497,-28.8845 290.673,-29.7951 290.7062,-30.7172 290.6514,-31.6482 290.5112,-32.5858 290.2883,-33.5272 289.9859,-34.4699 289.6072,-35.4113 289.1558,-36.3488 288.6354,-37.2799 288.0496,-38.202 287.4025,-39.1125 286.6979,-40.0091 285.9398,-40.8892 285.132,-41.7504 284.2785,-42.5903 283.3831,-43.4067 282.4495,-44.1973 281.4812,-44.96 280.4816,-45.6926 279.4541,-46.3931 278.4016,-47.0597 277.3271,-47.6905 276.2333,-48.2838 275.1226,-48.8379 273.9973,-49.3513 272.8595,-49.8226 271.7111,-50.2506 270.5538,-50.6341 269.389,-50.9719 268.2181,-51.2632 267.0423,-51.5072 265.8627,-51.7032 264.6802,-51.8506 263.4958,-51.9492 262.3102,-51.9985 261.1242,-51.9985 259.9386,-51.9492 258.7542,-51.8506 257.5717,-51.7032 256.3921,-51.5072 255.2164,-51.2632 254.0455,-50.9719 252.8807,-50.6341 251.7233,-50.2506 250.5749,-49.8226 249.4371,-49.3513 248.3118,-48.8379 247.2011,-48.2838 246.1073,-47.6905 245.0328,-47.0597 243.9804,-46.3931 242.9528,-45.6926 241.9533,-44.96 240.985,-44.1973 240.0513,-43.4067 239.1559,-42.5903 238.3024,-41.7504 237.4947,-40.8892 236.7365,-40.0091 236.0319,-39.1125 235.3848,-38.202 234.7991,-37.2799 234.2786,-36.3488 233.8272,-35.4113 233.4486,-34.4699 233.1461,-33.5272 232.9233,-32.5858 232.783,-31.6482 232.7282,-30.7172 232.7614,-29.7951 232.8848,-28.8845 233.1,-27.9879 233.4087,-27.1079 233.8117,-26.2467 234.3097,-25.4067 234.9027,-24.5903 235.5903,-23.7997 236.3717,-23.0371 237.2455,-22.3044 238.2098,-21.6039 239.2623,-20.9373 240.4,-20.3065 241.6196,-19.7133 242.9172,-19.1592 244.2885,-18.6457 245.7287,-18.1744 247.2326,-17.7464 248.7947,-17.363 250.409,-17.0252 252.0692,-16.7338 253.7688,-16.4899 255.5009,-16.2939 257.2586,-16.1464 259.0347,-16.0479 260.8218,-15.9985 262.6126,-15.9985 264.3998,-16.0479"/>
<text text-anchor="middle" x="261.7172" y="-31.4985" font-family="Courier,monospace" font-weight="bold" font-size="10.00" fill="#000000">z</text>
</g>
<!-- STATE_A&#45;&gt;SYMBOL_z -->
<g id="edge17" class="edge">
<title>STATE_A&#45;&gt;SYMBOL_z</title>
<path fill="none" stroke="#000000" stroke-dasharray="5,2" d="M38.8338,-190.512C47.6608,-175.8437 61.2644,-154.6779 75.4869,-137.9985 117.9367,-88.2155 131.7308,-73.5155 191.9738,-47.9985 202.1426,-43.6913 213.717,-40.685 224.4744,-38.5963"/>
<polygon fill="#000000" stroke="#000000" points="225.211,-42.0208 234.4652,-36.8623 224.0139,-35.1239 225.211,-42.0208"/>
<text text-anchor="middle" x="145.2303" y="-94.9985" font-family="Courier,monospace" font-weight="bold" font-size="10.00" fill="#000000">nan</text>
</g>
<!-- SYMBOL_y -->
<g id="node6" class="node">
<title>SYMBOL_y</title>
<polygon fill="none" stroke="#000000" stroke-dasharray="5,2" points="264.3998,-166.0479 266.1758,-166.1464 267.9335,-166.2939 269.6657,-166.4899 271.3652,-166.7338 273.0255,-167.0252 274.6398,-167.363 276.2018,-167.7464 277.7058,-168.1744 279.146,-168.6457 280.5173,-169.1592 281.8149,-169.7133 283.0344,-170.3065 284.1721,-170.9373 285.2246,-171.6039 286.1889,-172.3044 287.0627,-173.0371 287.8441,-173.7997 288.5318,-174.5903 289.1248,-175.4067 289.6227,-176.2467 290.0257,-177.1079 290.3344,-177.9879 290.5497,-178.8845 290.673,-179.7951 290.7062,-180.7172 290.6514,-181.6482 290.5112,-182.5858 290.2883,-183.5272 289.9859,-184.4699 289.6072,-185.4113 289.1558,-186.3488 288.6354,-187.2799 288.0496,-188.202 287.4025,-189.1125 286.6979,-190.0091 285.9398,-190.8892 285.132,-191.7504 284.2785,-192.5903 283.3831,-193.4067 282.4495,-194.1973 281.4812,-194.96 280.4816,-195.6926 279.4541,-196.3931 278.4016,-197.0597 277.3271,-197.6905 276.2333,-198.2838 275.1226,-198.8379 273.9973,-199.3513 272.8595,-199.8226 271.7111,-200.2506 270.5538,-200.6341 269.389,-200.9719 268.2181,-201.2632 267.0423,-201.5072 265.8627,-201.7032 264.6802,-201.8506 263.4958,-201.9492 262.3102,-201.9985 261.1242,-201.9985 259.9386,-201.9492 258.7542,-201.8506 257.5717,-201.7032 256.3921,-201.5072 255.2164,-201.2632 254.0455,-200.9719 252.8807,-200.6341 251.7233,-200.2506 250.5749,-199.8226 249.4371,-199.3513 248.3118,-198.8379 247.2011,-198.2838 246.1073,-197.6905 245.0328,-197.0597 243.9804,-196.3931 242.9528,-195.6926 241.9533,-194.96 240.985,-194.1973 240.0513,-193.4067 239.1559,-192.5903 238.3024,-191.7504 237.4947,-190.8892 236.7365,-190.0091 236.0319,-189.1125 235.3848,-188.202 234.7991,-187.2799 234.2786,-186.3488 233.8272,-185.4113 233.4486,-184.4699 233.1461,-183.5272 232.9233,-182.5858 232.783,-181.6482 232.7282,-180.7172 232.7614,-179.7951 232.8848,-178.8845 233.1,-177.9879 233.4087,-177.1079 233.8117,-176.2467 234.3097,-175.4067 234.9027,-174.5903 235.5903,-173.7997 236.3717,-173.0371 237.2455,-172.3044 238.2098,-171.6039 239.2623,-170.9373 240.4,-170.3065 241.6196,-169.7133 242.9172,-169.1592 244.2885,-168.6457 245.7287,-168.1744 247.2326,-167.7464 248.7947,-167.363 250.409,-167.0252 252.0692,-166.7338 253.7688,-166.4899 255.5009,-166.2939 257.2586,-166.1464 259.0347,-166.0479 260.8218,-165.9985 262.6126,-165.9985 264.3998,-166.0479"/>
<text text-anchor="middle" x="261.7172" y="-181.4985" font-family="Courier,monospace" font-weight="bold" font-size="10.00" fill="#000000">y</text>
</g>
<!-- STATE_A&#45;&gt;SYMBOL_y -->
<g id="edge18" class="edge">
<title>STATE_A&#45;&gt;SYMBOL_y</title>
<path fill="none" stroke="#000000" stroke-dasharray="5,2" d="M54.445,-213.3094C98.4641,-221.9377 186.3111,-236.984 214.9738,-225.9985 216.5671,-225.3878 227.7697,-215.3405 238.8075,-205.2271"/>
<polygon fill="#000000" stroke="#000000" points="241.314,-207.677 246.3026,-198.3301 236.574,-202.526 241.314,-207.677"/>
<text text-anchor="middle" x="145.2303" y="-231.9985" font-family="Courier,monospace" font-weight="bold" font-size="10.00" fill="#000000">nan</text>
</g>
<!-- STATE_B&#45;&gt;STATE_A -->
<g id="edge5" class="edge">
<title>STATE_B&#45;&gt;STATE_A</title>
<path fill="none" stroke="#000000" d="M116.8447,-138.8459C103.5242,-140.3165 87.8904,-143.6624 75.4869,-150.9985 62.8838,-158.4527 52.2093,-170.6294 44.2569,-181.8184"/>
<polygon fill="#000000" stroke="#000000" points="41.1215,-180.2112 38.4779,-190.471 46.9426,-184.0991 41.1215,-180.2112"/>
<text text-anchor="middle" x="86.9869" y="-153.9985" font-family="Courier,monospace" font-weight="bold" font-size="10.00" fill="#000000">nan</text>
</g>
<!-- STATE_B&#45;&gt;STATE_B -->
<g id="edge6" class="edge">
<title>STATE_B&#45;&gt;STATE_B</title>
<path fill="none" stroke="#000000" d="M135.1226,-154.2888C132.6853,-164.3877 136.0545,-173.9985 145.2303,-173.9985 151.1086,-173.9985 154.6038,-170.0542 155.716,-164.5641"/>
<polygon fill="#000000" stroke="#000000" points="159.2034,-164.1533 155.338,-154.2888 152.2081,-164.4107 159.2034,-164.1533"/>
<text text-anchor="middle" x="145.2303" y="-176.9985" font-family="Courier,monospace" font-weight="bold" font-size="10.00" fill="#000000">nan</text>
</g>
<!-- STATE_B&#45;&gt;STATE_C -->
<g id="edge7" class="edge">
<title>STATE_B&#45;&gt;STATE_C</title>
<path fill="none" stroke="#000000" d="M156.2745,-154.219C165.0419,-166.3522 178.0973,-182.8715 191.9738,-194.9985 203.0695,-204.6953 216.6058,-213.5856 228.7905,-220.7342"/>
<polygon fill="#000000" stroke="#000000" points="227.3588,-223.9463 237.782,-225.8458 230.8184,-217.8609 227.3588,-223.9463"/>
<text text-anchor="middle" x="203.4738" y="-213.9985" font-family="Courier,monospace" font-weight="bold" font-size="10.00" fill="#000000">nan</text>
</g>
<!-- STATE_B&#45;&gt;STATE_SOURCE -->
<g id="edge8" class="edge">
<title>STATE_B&#45;&gt;STATE_SOURCE</title>
<path fill="none" stroke="#000000" d="M162.0637,-122.4329C170.4109,-115.7335 181.034,-108.6185 191.9738,-104.9985 200.5287,-102.1677 284.9001,-102.7727 290.4607,-103.9985 318.7492,-110.2347 345.6357,-129.7059 364.0439,-145.8954"/>
<polygon fill="#000000" stroke="#000000" points="362.1331,-148.8898 371.8797,-153.0435 366.8507,-143.7183 362.1331,-148.8898"/>
<text text-anchor="middle" x="261.7172" y="-106.9985" font-family="Courier,monospace" font-weight="bold" font-size="10.00" fill="#000000">nan</text>
</g>
<!-- STATE_B&#45;&gt;SYMBOL_z -->
<g id="edge19" class="edge">
<title>STATE_B&#45;&gt;SYMBOL_z</title>
<path fill="none" stroke="#000000" stroke-dasharray="5,2" d="M153.1545,-120.2725C161.0456,-104.3099 174.4944,-81.1009 191.9738,-65.9985 202.3937,-56.9956 215.7697,-50.0459 228.0157,-44.9591"/>
<polygon fill="#000000" stroke="#000000" points="229.4581,-48.1538 237.5165,-41.2753 226.9275,-41.6272 229.4581,-48.1538"/>
<text text-anchor="middle" x="203.4738" y="-68.9985" font-family="Courier,monospace" font-weight="bold" font-size="10.00" fill="#000000">nan</text>
</g>
<!-- STATE_B&#45;&gt;SYMBOL_y -->
<g id="edge20" class="edge">
<title>STATE_B&#45;&gt;SYMBOL_y</title>
<path fill="none" stroke="#000000" stroke-dasharray="5,2" d="M173.212,-139.8647C186.2941,-141.4697 201.8448,-144.4534 214.9738,-149.9985 222.2189,-153.0585 229.409,-157.4317 235.8988,-162.0271"/>
<polygon fill="#000000" stroke="#000000" points="234.1624,-165.1014 244.2537,-168.3289 238.3777,-159.5128 234.1624,-165.1014"/>
<text text-anchor="middle" x="203.4738" y="-152.9985" font-family="Courier,monospace" font-weight="bold" font-size="10.00" fill="#000000">nan</text>
</g>
<!-- STATE_C&#45;&gt;STATE_A -->
<g id="edge9" class="edge">
<title>STATE_C&#45;&gt;STATE_A</title>
<path fill="none" stroke="#000000" d="M235.609,-242.7392C198.5337,-248.2854 129.1733,-254.2316 75.4869,-232.9985 69.3091,-230.5552 62.8987,-227.502 56.8779,-224.3771"/>
<polygon fill="#000000" stroke="#000000" points="58.2885,-221.161 47.827,-219.4849 54.9599,-227.319 58.2885,-221.161"/>
<text text-anchor="middle" x="145.2303" y="-249.9985" font-family="Courier,monospace" font-weight="bold" font-size="10.00" fill="#000000">nan</text>
</g>
<!-- STATE_C&#45;&gt;STATE_B -->
<g id="edge10" class="edge">
<title>STATE_C&#45;&gt;STATE_B</title>
<path fill="none" stroke="#000000" d="M243.9585,-222.6957C240.1426,-219.0397 236.2701,-215.0245 232.9738,-210.9985 223.3636,-199.2611 225.6611,-192.7644 214.9738,-181.9985 203.6111,-170.5523 188.7428,-160.6594 175.6547,-153.1692"/>
<polygon fill="#000000" stroke="#000000" points="176.9651,-149.8959 166.5148,-148.1521 173.5967,-156.0322 176.9651,-149.8959"/>
<text text-anchor="middle" x="203.4738" y="-184.9985" font-family="Courier,monospace" font-weight="bold" font-size="10.00" fill="#000000">nan</text>
</g>
<!-- STATE_C&#45;&gt;STATE_C -->
<g id="edge11" class="edge">
<title>STATE_C&#45;&gt;STATE_C</title>
<path fill="none" stroke="#000000" d="M251.6095,-254.2888C249.1722,-264.3877 252.5414,-273.9985 261.7172,-273.9985 267.5954,-273.9985 271.0907,-270.0542 272.2029,-264.5641"/>
<polygon fill="#000000" stroke="#000000" points="275.6902,-264.1533 271.8249,-254.2888 268.695,-264.4107 275.6902,-264.1533"/>
<text text-anchor="middle" x="261.7172" y="-276.9985" font-family="Courier,monospace" font-weight="bold" font-size="10.00" fill="#000000">nan</text>
</g>
<!-- STATE_C&#45;&gt;STATE_SOURCE -->
<g id="edge12" class="edge">
<title>STATE_C&#45;&gt;STATE_SOURCE</title>
<path fill="none" stroke="#000000" d="M285.235,-225.3676C305.1335,-214.6805 333.8521,-199.2563 355.9271,-187.4003"/>
<polygon fill="#000000" stroke="#000000" points="357.7822,-190.3768 364.936,-182.5618 354.4701,-184.21 357.7822,-190.3768"/>
<text text-anchor="middle" x="319.9607" y="-214.9985" font-family="Courier,monospace" font-weight="bold" font-size="10.00" fill="#000000">nan</text>
</g>
<!-- STATE_SOURCE&#45;&gt;STATE_A -->
<g id="edge13" class="edge">
<title>STATE_SOURCE&#45;&gt;STATE_A</title>
<path fill="none" stroke="#000000" d="M383.847,-152.0449C373.9393,-116.6826 346.4757,-38.7025 290.4607,-6.9985 268.2254,5.5864 258.0731,-2.2222 232.9738,-6.9985 178.2926,-17.4042 160.8411,-19.3679 116.4869,-52.9985 92.475,-71.205 91.0166,-81.1746 75.4869,-106.9985 61.1107,-130.9042 48.0828,-159.9697 39.4548,-180.7717"/>
<polygon fill="#000000" stroke="#000000" points="36.1204,-179.6796 35.5861,-190.2609 42.6024,-182.3223 36.1204,-179.6796"/>
<text text-anchor="middle" x="203.4738" y="-18.9985" font-family="Courier,monospace" font-weight="bold" font-size="10.00" fill="#000000">nan</text>
</g>
<!-- STATE_SOURCE&#45;&gt;STATE_B -->
<g id="edge14" class="edge">
<title>STATE_SOURCE&#45;&gt;STATE_B</title>
<path fill="none" stroke="#000000" d="M352.7999,-159.9415C334.3416,-155.0598 311.3361,-149.5062 290.4607,-145.9985 257.2328,-140.4152 248.6194,-140.797 214.9738,-138.9985 204.9221,-138.4612 194.0448,-138.1674 183.9377,-138.0156"/>
<polygon fill="#000000" stroke="#000000" points="183.7885,-134.5139 173.7509,-137.9046 183.7121,-141.5135 183.7885,-134.5139"/>
<text text-anchor="middle" x="261.7172" y="-148.9985" font-family="Courier,monospace" font-weight="bold" font-size="10.00" fill="#000000">nan</text>
</g>
<!-- STATE_SOURCE&#45;&gt;STATE_C -->
<g id="edge15" class="edge">
<title>STATE_SOURCE&#45;&gt;STATE_C</title>
<path fill="none" stroke="#000000" d="M351.1796,-171.6802C336.9214,-173.7429 321.0624,-177.8812 308.4607,-185.9985 296.9504,-193.4127 299.4921,-200.7083 290.4607,-210.9985 289.1735,-212.465 287.8167,-213.9397 286.4218,-215.4024"/>
<polygon fill="#000000" stroke="#000000" points="283.8873,-212.9869 279.2742,-222.5247 288.8283,-217.9454 283.8873,-212.9869"/>
<text text-anchor="middle" x="319.9607" y="-188.9985" font-family="Courier,monospace" font-weight="bold" font-size="10.00" fill="#000000">nan</text>
</g>
<!-- STATE_SOURCE&#45;&gt;STATE_SOURCE -->
<g id="edge16" class="edge">
<title>STATE_SOURCE&#45;&gt;STATE_SOURCE</title>
<path fill="none" stroke="#000000" d="M376.3746,-186.6626C373.7184,-196.6235 377.7028,-205.9985 388.3278,-205.9985 395.1344,-205.9985 399.2157,-202.151 400.5717,-196.7668"/>
<polygon fill="#000000" stroke="#000000" points="404.0673,-196.5577 400.2809,-186.6626 397.0702,-196.7592 404.0673,-196.5577"/>
<text text-anchor="middle" x="388.3278" y="-208.9985" font-family="Courier,monospace" font-weight="bold" font-size="10.00" fill="#000000">nan</text>
</g>
</g>
</svg>
