<?xml version="1.0" encoding="UTF-8" standalone="no"?>
<!DOCTYPE svg PUBLIC "-//W3C//DTD SVG 1.1//EN"
 "http://www.w3.org/Graphics/SVG/1.1/DTD/svg11.dtd">
<!-- Generated by graphviz version 2.40.1 (0)
 -->
<!-- Title: G Pages: 1 -->
<svg width="430pt" height="350pt"
 viewBox="0.00 0.00 430.00 350.00" xmlns="http://www.w3.org/2000/svg" xmlns:xlink="http://www.w3.org/1999/xlink">
<g id="graph0" class="graph" transform="scale(1 1) rotate(0) translate(4 346)">
<title>G</title>
<polygon fill="#ffffff" stroke="transparent" points="-4,4 -4,-346 426,-346 426,4 -4,4"/>
<g id="clust1" class="cluster">
<title>cluster_2</title>
<polygon fill="none" stroke="#000000" points="0,-8 0,-167 422,-167 422,-8 0,-8"/>
<text text-anchor="middle" x="211" y="-155" font-family="Courier,monospace" font-weight="bold" font-size="10.00" fill="#000000">count(v1) + count(v2) &#45; (leaf_count &#45; 2) * path(v1,v2)</text>
</g>
<g id="clust2" class="cluster">
<title>cluster_1</title>
<polygon fill="none" stroke="#000000" points="38,-175 38,-334 383,-334 383,-175 38,-175"/>
<text text-anchor="middle" x="210.5" y="-322" font-family="Courier,monospace" font-weight="bold" font-size="10.00" fill="#000000">count(v1) + count(v2)</text>
</g>
<!-- v0_x -->
<g id="node1" class="node">
<title>v0_x</title>
<ellipse fill="none" stroke="#000000" cx="60.5" cy="-125" rx="14.5" ry="14.5"/>
<text text-anchor="middle" x="60.5" y="-122.5" font-family="Courier,monospace" font-weight="bold" font-size="10.00" fill="#000000">v0</text>
</g>
<!-- i0_x -->
<g id="node2" class="node">
<title>i0_x</title>
<ellipse fill="none" stroke="#000000" cx="135.5" cy="-81" rx="14.5" ry="14.5"/>
<text text-anchor="middle" x="135.5" y="-78.5" font-family="Courier,monospace" font-weight="bold" font-size="10.00" fill="#000000">i0</text>
</g>
<!-- v0_x&#45;&#45;i0_x -->
<g id="edge1" class="edge">
<title>v0_x&#45;&#45;i0_x</title>
<path fill="none" stroke="#ffa500" stroke-width="2.5" d="M72.2107,-115.811C86.0859,-107.6709 108.1525,-94.7251 121.9531,-86.6287"/>
<path fill="none" stroke="transparent" stroke-width="2.5" d="M73.2227,-117.536C87.0979,-109.3959 109.1645,-96.4502 122.9652,-88.3538"/>
<path fill="none" stroke="#a020f0" stroke-width="2.5" d="M74.2348,-119.261C88.1099,-111.121 110.1765,-98.1752 123.9772,-90.0788"/>
<text text-anchor="middle" x="98" y="-108" font-family="Courier,monospace" font-weight="bold" font-size="10.00" fill="#000000"> </text>
</g>
<!-- i1_x -->
<g id="node5" class="node">
<title>i1_x</title>
<ellipse fill="none" stroke="#000000" cx="210.5" cy="-81" rx="14.5" ry="14.5"/>
<text text-anchor="middle" x="210.5" y="-78.5" font-family="Courier,monospace" font-weight="bold" font-size="10.00" fill="#000000">i1</text>
</g>
<!-- i0_x&#45;&#45;i1_x -->
<g id="edge4" class="edge">
<title>i0_x&#45;&#45;i1_x</title>
<path fill="none" stroke="#a020f0" stroke-width="2.5" d="M150.3176,-71C163.5515,-71 182.8224,-71 195.9684,-71"/>
<path fill="none" stroke="transparent" stroke-width="2.5" d="M150.3176,-73C163.5515,-73 182.8224,-73 195.9684,-73"/>
<path fill="none" stroke="#a020f0" stroke-width="2.5" d="M150.3176,-75C163.5515,-75 182.8224,-75 195.9684,-75"/>
<path fill="none" stroke="transparent" stroke-width="2.5" d="M150.3176,-77C163.5515,-77 182.8224,-77 195.9684,-77"/>
<path fill="none" stroke="#a020f0" stroke-width="2.5" d="M150.3176,-79C163.5515,-79 182.8224,-79 195.9684,-79"/>
<path fill="none" stroke="transparent" stroke-width="2.5" d="M150.3176,-81C163.5515,-81 182.8224,-81 195.9684,-81"/>
<path fill="none" stroke="#ffa500" stroke-width="2.5" d="M150.3176,-83C163.5515,-83 182.8224,-83 195.9684,-83"/>
<path fill="none" stroke="transparent" stroke-width="2.5" d="M150.3176,-85C163.5515,-85 182.8224,-85 195.9684,-85"/>
<path fill="none" stroke="#ffa500" stroke-width="2.5" d="M150.3176,-87C163.5515,-87 182.8224,-87 195.9684,-87"/>
<path fill="none" stroke="transparent" stroke-width="2.5" d="M150.3176,-89C163.5515,-89 182.8224,-89 195.9684,-89"/>
<path fill="none" stroke="#ffa500" stroke-width="2.5" d="M150.3176,-91C163.5515,-91 182.8224,-91 195.9684,-91"/>
<text text-anchor="middle" x="173" y="-84" font-family="Courier,monospace" font-weight="bold" font-size="10.00" fill="#000000"> </text>
</g>
<!-- v1_x -->
<g id="node3" class="node">
<title>v1_x</title>
<ellipse fill="#a020f0" stroke="#000000" cx="60.5" cy="-78" rx="14.5" ry="14.5"/>
<text text-anchor="middle" x="60.5" y="-75.5" font-family="Courier,monospace" font-weight="bold" font-size="10.00" fill="#000000">v1</text>
</g>
<!-- v1_x&#45;&#45;i0_x -->
<g id="edge2" class="edge">
<title>v1_x&#45;&#45;i0_x</title>
<path fill="none" stroke="#a020f0" stroke-width="2.5" d="M75.3975,-76.5943C88.6314,-77.1237 107.9023,-77.8945 121.0483,-78.4203"/>
<path fill="none" stroke="transparent" stroke-width="2.5" d="M75.3176,-78.5927C88.5515,-79.1221 107.8224,-79.8929 120.9684,-80.4187"/>
<path fill="none" stroke="#ffa500" stroke-width="2.5" d="M75.2377,-80.5911C88.4716,-81.1205 107.7424,-81.8913 120.8885,-82.4171"/>
<text text-anchor="middle" x="98" y="-82" font-family="Courier,monospace" font-weight="bold" font-size="10.00" fill="#000000"> </text>
</g>
<!-- v2_x -->
<g id="node4" class="node">
<title>v2_x</title>
<ellipse fill="#ffa500" stroke="#000000" cx="60.5" cy="-31" rx="14.5" ry="14.5"/>
<text text-anchor="middle" x="60.5" y="-28.5" font-family="Courier,monospace" font-weight="bold" font-size="10.00" fill="#000000">v2</text>
</g>
<!-- v2_x&#45;&#45;i0_x -->
<g id="edge3" class="edge">
<title>v2_x&#45;&#45;i0_x</title>
<path fill="none" stroke="#ffa500" stroke-width="2.5" d="M73.9941,-37.5924C87.9736,-46.9121 110.5712,-61.9771 124.4551,-71.2331"/>
<path fill="none" stroke="transparent" stroke-width="2.5" d="M72.8847,-39.2565C86.8642,-48.5762 109.4618,-63.6412 123.3457,-72.8972"/>
<path fill="none" stroke="#a020f0" stroke-width="2.5" d="M71.7753,-40.9206C85.7548,-50.2403 108.3524,-65.3053 122.2363,-74.5613"/>
<text text-anchor="middle" x="98" y="-61" font-family="Courier,monospace" font-weight="bold" font-size="10.00" fill="#000000"> </text>
</g>
<!-- i2_x -->
<g id="node6" class="node">
<title>i2_x</title>
<ellipse fill="none" stroke="#000000" cx="285.5" cy="-67" rx="14.5" ry="14.5"/>
<text text-anchor="middle" x="285.5" y="-64.5" font-family="Courier,monospace" font-weight="bold" font-size="10.00" fill="#000000">i2</text>
</g>
<!-- i1_x&#45;&#45;i2_x -->
<g id="edge5" class="edge">
<title>i1_x&#45;&#45;i2_x</title>
<path fill="none" stroke="#a020f0" stroke-width="2.5" d="M223.8598,-72.4025C237.1406,-69.9235 256.7159,-66.2694 269.9827,-63.7929"/>
<path fill="none" stroke="transparent" stroke-width="2.5" d="M224.2268,-74.3686C237.5076,-71.8895 257.0829,-68.2354 270.3497,-65.759"/>
<path fill="none" stroke="#a020f0" stroke-width="2.5" d="M224.5938,-76.3346C237.8746,-73.8555 257.4499,-70.2015 270.7166,-67.725"/>
<path fill="none" stroke="transparent" stroke-width="2.5" d="M224.9608,-78.3007C238.2416,-75.8216 257.8169,-72.1675 271.0836,-69.6911"/>
<path fill="none" stroke="#ffa500" stroke-width="2.5" d="M225.3277,-80.2667C238.6085,-77.7876 258.1839,-74.1336 271.4506,-71.6571"/>
<path fill="none" stroke="transparent" stroke-width="2.5" d="M225.6947,-82.2327C238.9755,-79.7537 258.5509,-76.0996 271.8176,-73.6231"/>
<path fill="none" stroke="#ffa500" stroke-width="2.5" d="M226.0617,-84.1988C239.3425,-81.7197 258.9179,-78.0656 272.1846,-75.5892"/>
<text text-anchor="middle" x="248" y="-77" font-family="Courier,monospace" font-weight="bold" font-size="10.00" fill="#000000"> </text>
</g>
<!-- v5_x -->
<g id="node9" class="node">
<title>v5_x</title>
<ellipse fill="none" stroke="#000000" cx="285.5" cy="-114" rx="14.5" ry="14.5"/>
<text text-anchor="middle" x="285.5" y="-111.5" font-family="Courier,monospace" font-weight="bold" font-size="10.00" fill="#000000">v5</text>
</g>
<!-- i1_x&#45;&#45;v5_x -->
<g id="edge8" class="edge">
<title>i1_x&#45;&#45;v5_x</title>
<path fill="none" stroke="#a020f0" stroke-width="2.5" d="M224.714,-85.0691C238.3654,-91.0757 259.4037,-100.3326 273.0131,-106.3207"/>
<path fill="none" stroke="transparent" stroke-width="2.5" d="M223.9085,-86.8997C237.5599,-92.9064 258.5982,-102.1632 272.2076,-108.1513"/>
<path fill="none" stroke="#ffa500" stroke-width="2.5" d="M223.103,-88.7304C236.7545,-94.737 257.7927,-103.9938 271.4021,-109.982"/>
<text text-anchor="middle" x="248" y="-102" font-family="Courier,monospace" font-weight="bold" font-size="10.00" fill="#000000"> </text>
</g>
<!-- v3_x -->
<g id="node7" class="node">
<title>v3_x</title>
<ellipse fill="none" stroke="#000000" cx="360.5" cy="-56" rx="14.5" ry="14.5"/>
<text text-anchor="middle" x="360.5" y="-53.5" font-family="Courier,monospace" font-weight="bold" font-size="10.00" fill="#000000">v3</text>
</g>
<!-- i2_x&#45;&#45;v3_x -->
<g id="edge6" class="edge">
<title>i2_x&#45;&#45;v3_x</title>
<path fill="none" stroke="#a020f0" stroke-width="2.5" d="M299.6705,-62.9003C312.9513,-60.9524 332.5267,-58.0814 345.7934,-56.1356"/>
<path fill="none" stroke="transparent" stroke-width="2.5" d="M299.9608,-64.8791C313.2416,-62.9312 332.8169,-60.0602 346.0836,-58.1144"/>
<path fill="none" stroke="#ffa500" stroke-width="2.5" d="M300.251,-66.8579C313.5318,-64.9101 333.1071,-62.039 346.3739,-60.0932"/>
<text text-anchor="middle" x="323" y="-65" font-family="Courier,monospace" font-weight="bold" font-size="10.00" fill="#000000"> </text>
</g>
<!-- v4_x -->
<g id="node8" class="node">
<title>v4_x</title>
<ellipse fill="none" stroke="#000000" cx="360.5" cy="-103" rx="14.5" ry="14.5"/>
<text text-anchor="middle" x="360.5" y="-100.5" font-family="Courier,monospace" font-weight="bold" font-size="10.00" fill="#000000">v4</text>
</g>
<!-- i2_x&#45;&#45;v4_x -->
<g id="edge7" class="edge">
<title>i2_x&#45;&#45;v4_x</title>
<path fill="none" stroke="#a020f0" stroke-width="2.5" d="M299.774,-71.633C313.4254,-78.1857 334.4637,-88.2841 348.073,-94.8166"/>
<path fill="none" stroke="transparent" stroke-width="2.5" d="M298.9085,-73.4361C312.5599,-79.9888 333.5982,-90.0871 347.2076,-96.6196"/>
<path fill="none" stroke="#ffa500" stroke-width="2.5" d="M298.043,-75.2391C311.6945,-81.7918 332.7327,-91.8902 346.3421,-98.4227"/>
<text text-anchor="middle" x="323" y="-89" font-family="Courier,monospace" font-weight="bold" font-size="10.00" fill="#000000"> </text>
</g>
<!-- v0_y -->
<g id="node10" class="node">
<title>v0_y</title>
<ellipse fill="none" stroke="#000000" cx="60.5" cy="-292" rx="14.5" ry="14.5"/>
<text text-anchor="middle" x="60.5" y="-289.5" font-family="Courier,monospace" font-weight="bold" font-size="10.00" fill="#000000">v0</text>
</g>
<!-- i0_y -->
<g id="node11" class="node">
<title>i0_y</title>
<ellipse fill="none" stroke="#000000" cx="135.5" cy="-248" rx="14.5" ry="14.5"/>
<text text-anchor="middle" x="135.5" y="-245.5" font-family="Courier,monospace" font-weight="bold" font-size="10.00" fill="#000000">i0</text>
</g>
<!-- v0_y&#45;&#45;i0_y -->
<g id="edge9" class="edge">
<title>v0_y&#45;&#45;i0_y:n</title>
<path fill="none" stroke="#ffa500" stroke-width="2.5" d="M75.3072,-290.5026C96.9754,-290.399 135.3005,-286.5574 133.5,-263"/>
<path fill="none" stroke="transparent" stroke-width="2.5" d="M75.3176,-292.5026C97.1749,-292.389 135.5,-288.5474 135.5,-263"/>
<path fill="none" stroke="#a020f0" stroke-width="2.5" d="M75.328,-294.5026C97.3744,-294.3791 135.6995,-290.5374 137.5,-263"/>
<text text-anchor="middle" x="98" y="-294" font-family="Courier,monospace" font-weight="bold" font-size="10.00" fill="#000000"> </text>
</g>
<!-- i1_y -->
<g id="node14" class="node">
<title>i1_y</title>
<ellipse fill="none" stroke="#000000" cx="210.5" cy="-248" rx="14.5" ry="14.5"/>
<text text-anchor="middle" x="210.5" y="-245.5" font-family="Courier,monospace" font-weight="bold" font-size="10.00" fill="#000000">i1</text>
</g>
<!-- i0_y&#45;&#45;i1_y -->
<g id="edge12" class="edge">
<title>i0_y&#45;&#45;i1_y</title>
<path fill="none" stroke="#a020f0" stroke-width="2.5" d="M150.3176,-238C163.5515,-238 182.8224,-238 195.9684,-238"/>
<path fill="none" stroke="transparent" stroke-width="2.5" d="M150.3176,-240C163.5515,-240 182.8224,-240 195.9684,-240"/>
<path fill="none" stroke="#a020f0" stroke-width="2.5" d="M150.3176,-242C163.5515,-242 182.8224,-242 195.9684,-242"/>
<path fill="none" stroke="transparent" stroke-width="2.5" d="M150.3176,-244C163.5515,-244 182.8224,-244 195.9684,-244"/>
<path fill="none" stroke="#a020f0" stroke-width="2.5" d="M150.3176,-246C163.5515,-246 182.8224,-246 195.9684,-246"/>
<path fill="none" stroke="transparent" stroke-width="2.5" d="M150.3176,-248C163.5515,-248 182.8224,-248 195.9684,-248"/>
<path fill="none" stroke="#ffa500" stroke-width="2.5" d="M150.3176,-250C163.5515,-250 182.8224,-250 195.9684,-250"/>
<path fill="none" stroke="transparent" stroke-width="2.5" d="M150.3176,-252C163.5515,-252 182.8224,-252 195.9684,-252"/>
<path fill="none" stroke="#ffa500" stroke-width="2.5" d="M150.3176,-254C163.5515,-254 182.8224,-254 195.9684,-254"/>
<path fill="none" stroke="transparent" stroke-width="2.5" d="M150.3176,-256C163.5515,-256 182.8224,-256 195.9684,-256"/>
<path fill="none" stroke="#ffa500" stroke-width="2.5" d="M150.3176,-258C163.5515,-258 182.8224,-258 195.9684,-258"/>
<text text-anchor="middle" x="173" y="-251" font-family="Courier,monospace" font-weight="bold" font-size="10.00" fill="#000000"> </text>
</g>
<!-- v1_y -->
<g id="node12" class="node">
<title>v1_y</title>
<ellipse fill="#a020f0" stroke="#000000" cx="60.5" cy="-245" rx="14.5" ry="14.5"/>
<text text-anchor="middle" x="60.5" y="-242.5" font-family="Courier,monospace" font-weight="bold" font-size="10.00" fill="#000000">v1</text>
</g>
<!-- v1_y&#45;&#45;i0_y -->
<g id="edge10" class="edge">
<title>v1_y&#45;&#45;i0_y</title>
<path fill="none" stroke="#a020f0" stroke-width="2.5" d="M75.7173,-235.6007C88.9512,-236.1301 108.2221,-236.9009 121.3681,-237.4267"/>
<path fill="none" stroke="transparent" stroke-width="2.5" d="M75.6373,-237.5991C88.8712,-238.1285 108.1421,-238.8993 121.2881,-239.4251"/>
<path fill="none" stroke="#a020f0" stroke-width="2.5" d="M75.5574,-239.5975C88.7913,-240.1269 108.0622,-240.8977 121.2082,-241.4235"/>
<path fill="none" stroke="transparent" stroke-width="2.5" d="M75.4775,-241.5959C88.7114,-242.1253 107.9823,-242.8961 121.1283,-243.4219"/>
<path fill="none" stroke="#a020f0" stroke-width="2.5" d="M75.3975,-243.5943C88.6314,-244.1237 107.9023,-244.8945 121.0483,-245.4203"/>
<path fill="none" stroke="transparent" stroke-width="2.5" d="M75.3176,-245.5927C88.5515,-246.1221 107.8224,-246.8929 120.9684,-247.4187"/>
<path fill="none" stroke="#a020f0" stroke-width="2.5" d="M75.2377,-247.5911C88.4716,-248.1205 107.7424,-248.8913 120.8885,-249.4171"/>
<path fill="none" stroke="transparent" stroke-width="2.5" d="M75.1577,-249.5895C88.3916,-250.1189 107.6625,-250.8897 120.8085,-251.4155"/>
<path fill="none" stroke="#a020f0" stroke-width="2.5" d="M75.0778,-251.5879C88.3117,-252.1173 107.5826,-252.8881 120.7286,-253.4139"/>
<path fill="none" stroke="transparent" stroke-width="2.5" d="M74.9978,-253.5863C88.2318,-254.1157 107.5026,-254.8865 120.6487,-255.4123"/>
<path fill="none" stroke="#ffa500" stroke-width="2.5" d="M74.9179,-255.5847C88.1518,-256.1141 107.4227,-256.8849 120.5687,-257.4107"/>
<text text-anchor="middle" x="98" y="-249" font-family="Courier,monospace" font-weight="bold" font-size="10.00" fill="#000000"> </text>
</g>
<!-- v2_y -->
<g id="node13" class="node">
<title>v2_y</title>
<ellipse fill="#ffa500" stroke="#000000" cx="60.5" cy="-198" rx="14.5" ry="14.5"/>
<text text-anchor="middle" x="60.5" y="-195.5" font-family="Courier,monospace" font-weight="bold" font-size="10.00" fill="#000000">v2</text>
</g>
<!-- v2_y&#45;&#45;i0_y -->
<g id="edge11" class="edge">
<title>v2_y&#45;&#45;i0_y:s</title>
<path fill="none" stroke="#ffa500" stroke-width="2.5" d="M76.0559,-188.5277C98.8686,-190.263 137.1937,-196.8494 145.5,-233"/>
<path fill="none" stroke="transparent" stroke-width="2.5" d="M75.9082,-190.5222C98.5299,-192.2341 136.855,-198.8205 143.5,-233"/>
<path fill="none" stroke="#ffa500" stroke-width="2.5" d="M75.7606,-192.5168C98.1911,-194.2052 136.5162,-200.7916 141.5,-233"/>
<path fill="none" stroke="transparent" stroke-width="2.5" d="M75.6129,-194.5113C97.8524,-196.1763 136.1775,-202.7627 139.5,-233"/>
<path fill="none" stroke="#ffa500" stroke-width="2.5" d="M75.4652,-196.5059C97.5136,-198.1474 135.8387,-204.7339 137.5,-233"/>
<path fill="none" stroke="transparent" stroke-width="2.5" d="M75.3176,-198.5004C97.1749,-200.1186 135.5,-206.705 135.5,-233"/>
<path fill="none" stroke="#ffa500" stroke-width="2.5" d="M75.1699,-200.4949C96.8361,-202.0897 135.1613,-208.6761 133.5,-233"/>
<path fill="none" stroke="transparent" stroke-width="2.5" d="M75.0223,-202.4895C96.4974,-204.0608 134.8225,-210.6472 131.5,-233"/>
<path fill="none" stroke="#ffa500" stroke-width="2.5" d="M74.8746,-204.484C96.1586,-206.0319 134.4838,-212.6183 129.5,-233"/>
<path fill="none" stroke="transparent" stroke-width="2.5" d="M74.7269,-206.4786C95.8199,-208.003 134.145,-214.5894 127.5,-233"/>
<path fill="none" stroke="#a020f0" stroke-width="2.5" d="M74.5793,-208.4731C95.4812,-209.9741 133.8063,-216.5605 125.5,-233"/>
<text text-anchor="middle" x="98" y="-205" font-family="Courier,monospace" font-weight="bold" font-size="10.00" fill="#000000"> </text>
</g>
<!-- i2_y -->
<g id="node15" class="node">
<title>i2_y</title>
<ellipse fill="none" stroke="#000000" cx="285.5" cy="-234" rx="14.5" ry="14.5"/>
<text text-anchor="middle" x="285.5" y="-231.5" font-family="Courier,monospace" font-weight="bold" font-size="10.00" fill="#000000">i2</text>
</g>
<!-- i1_y&#45;&#45;i2_y -->
<g id="edge13" class="edge">
<title>i1_y&#45;&#45;i2_y</title>
<path fill="none" stroke="#a020f0" stroke-width="2.5" d="M223.8598,-239.4025C237.1406,-236.9235 256.7159,-233.2694 269.9827,-230.7929"/>
<path fill="none" stroke="transparent" stroke-width="2.5" d="M224.2268,-241.3686C237.5076,-238.8895 257.0829,-235.2354 270.3497,-232.759"/>
<path fill="none" stroke="#a020f0" stroke-width="2.5" d="M224.5938,-243.3346C237.8746,-240.8555 257.4499,-237.2015 270.7166,-234.725"/>
<path fill="none" stroke="transparent" stroke-width="2.5" d="M224.9608,-245.3007C238.2416,-242.8216 257.8169,-239.1675 271.0836,-236.6911"/>
<path fill="none" stroke="#ffa500" stroke-width="2.5" d="M225.3277,-247.2667C238.6085,-244.7876 258.1839,-241.1336 271.4506,-238.6571"/>
<path fill="none" stroke="transparent" stroke-width="2.5" d="M225.6947,-249.2327C238.9755,-246.7537 258.5509,-243.0996 271.8176,-240.6231"/>
<path fill="none" stroke="#ffa500" stroke-width="2.5" d="M226.0617,-251.1988C239.3425,-248.7197 258.9179,-245.0656 272.1846,-242.5892"/>
<text text-anchor="middle" x="248" y="-244" font-family="Courier,monospace" font-weight="bold" font-size="10.00" fill="#000000"> </text>
</g>
<!-- v5_y -->
<g id="node18" class="node">
<title>v5_y</title>
<ellipse fill="none" stroke="#000000" cx="285.5" cy="-281" rx="14.5" ry="14.5"/>
<text text-anchor="middle" x="285.5" y="-278.5" font-family="Courier,monospace" font-weight="bold" font-size="10.00" fill="#000000">v5</text>
</g>
<!-- i1_y&#45;&#45;v5_y -->
<g id="edge16" class="edge">
<title>i1_y&#45;&#45;v5_y</title>
<path fill="none" stroke="#a020f0" stroke-width="2.5" d="M224.714,-252.0691C238.3654,-258.0757 259.4037,-267.3326 273.0131,-273.3207"/>
<path fill="none" stroke="transparent" stroke-width="2.5" d="M223.9085,-253.8997C237.5599,-259.9064 258.5982,-269.1632 272.2076,-275.1513"/>
<path fill="none" stroke="#ffa500" stroke-width="2.5" d="M223.103,-255.7304C236.7545,-261.737 257.7927,-270.9938 271.4021,-276.982"/>
<text text-anchor="middle" x="248" y="-269" font-family="Courier,monospace" font-weight="bold" font-size="10.00" fill="#000000"> </text>
</g>
<!-- v3_y -->
<g id="node16" class="node">
<title>v3_y</title>
<ellipse fill="none" stroke="#000000" cx="360.5" cy="-212" rx="14.5" ry="14.5"/>
<text text-anchor="middle" x="360.5" y="-209.5" font-family="Courier,monospace" font-weight="bold" font-size="10.00" fill="#000000">v3</text>
</g>
<!-- i2_y&#45;&#45;v3_y -->
<g id="edge14" class="edge">
<title>i2_y&#45;&#45;v3_y</title>
<path fill="none" stroke="#a020f0" stroke-width="2.5" d="M299.044,-227.9428C312.4528,-224.0096 332.5055,-218.1274 345.8934,-214.2003"/>
<path fill="none" stroke="transparent" stroke-width="2.5" d="M299.6069,-229.862C313.0157,-225.9287 333.0685,-220.0466 346.4563,-216.1195"/>
<path fill="none" stroke="#ffa500" stroke-width="2.5" d="M300.1699,-231.7811C313.5787,-227.8479 333.6314,-221.9657 347.0193,-218.0386"/>
<text text-anchor="middle" x="323" y="-227" font-family="Courier,monospace" font-weight="bold" font-size="10.00" fill="#000000"> </text>
</g>
<!-- v4_y -->
<g id="node17" class="node">
<title>v4_y</title>
<ellipse fill="none" stroke="#000000" cx="360.5" cy="-259" rx="14.5" ry="14.5"/>
<text text-anchor="middle" x="360.5" y="-256.5" font-family="Courier,monospace" font-weight="bold" font-size="10.00" fill="#000000">v4</text>
</g>
<!-- i2_y&#45;&#45;v4_y -->
<g id="edge15" class="edge">
<title>i2_y&#45;&#45;v4_y</title>
<path fill="none" stroke="#a020f0" stroke-width="2.5" d="M299.8886,-236.688C313.3364,-241.1706 333.7048,-247.9601 347.2095,-252.4617"/>
<path fill="none" stroke="transparent" stroke-width="2.5" d="M299.2562,-238.5854C312.704,-243.068 333.0724,-249.8575 346.5771,-254.359"/>
<path fill="none" stroke="#ffa500" stroke-width="2.5" d="M298.6237,-240.4828C312.0715,-244.9654 332.4399,-251.7548 345.9446,-256.2564"/>
<text text-anchor="middle" x="323" y="-250" font-family="Courier,monospace" font-weight="bold" font-size="10.00" fill="#000000"> </text>
</g>
</g>
</svg>
