<?xml version="1.0" encoding="UTF-8" standalone="no"?>
<!DOCTYPE svg PUBLIC "-//W3C//DTD SVG 1.1//EN"
 "http://www.w3.org/Graphics/SVG/1.1/DTD/svg11.dtd">
<!-- Generated by graphviz version 2.40.1 (0)
 -->
<!-- Title: G Pages: 1 -->
<svg width="430pt" height="684pt"
 viewBox="0.00 0.00 430.00 684.00" xmlns="http://www.w3.org/2000/svg" xmlns:xlink="http://www.w3.org/1999/xlink">
<g id="graph0" class="graph" transform="scale(1 1) rotate(0) translate(4 680)">
<title>G</title>
<polygon fill="#ffffff" stroke="transparent" points="-4,4 -4,-680 426,-680 426,4 -4,4"/>
<g id="clust1" class="cluster">
<title>cluster_4</title>
<polygon fill="none" stroke="#000000" points="0,-8 0,-167 422,-167 422,-8 0,-8"/>
<text text-anchor="middle" x="211" y="-155" font-family="Courier,monospace" font-weight="bold" font-size="10.00" fill="#000000">count(v1) + count(v5) &#45; (leaf_count &#45; 2) * path(v1,v5)</text>
</g>
<g id="clust2" class="cluster">
<title>cluster_3</title>
<polygon fill="none" stroke="#000000" points="38,-175 38,-334 383,-334 383,-175 38,-175"/>
<text text-anchor="middle" x="210.5" y="-322" font-family="Courier,monospace" font-weight="bold" font-size="10.00" fill="#000000">count(v1) + count(v5)</text>
</g>
<g id="clust3" class="cluster">
<title>cluster_1</title>
<polygon fill="none" stroke="#000000" points="38,-342 38,-501 383,-501 383,-342 38,-342"/>
<text text-anchor="middle" x="210.5" y="-489" font-family="Courier,monospace" font-weight="bold" font-size="10.00" fill="#000000">count(v5)</text>
</g>
<g id="clust4" class="cluster">
<title>cluster_2</title>
<polygon fill="none" stroke="#000000" points="38,-509 38,-668 383,-668 383,-509 38,-509"/>
<text text-anchor="middle" x="210.5" y="-656" font-family="Courier,monospace" font-weight="bold" font-size="10.00" fill="#000000">count(v1)</text>
</g>
<!-- v0_w -->
<g id="node1" class="node">
<title>v0_w</title>
<ellipse fill="none" stroke="#000000" cx="60.5" cy="-125" rx="14.5" ry="14.5"/>
<text text-anchor="middle" x="60.5" y="-122.5" font-family="Courier,monospace" font-weight="bold" font-size="10.00" fill="#000000">v0</text>
</g>
<!-- i0_w -->
<g id="node2" class="node">
<title>i0_w</title>
<ellipse fill="none" stroke="#000000" cx="135.5" cy="-81" rx="14.5" ry="14.5"/>
<text text-anchor="middle" x="135.5" y="-78.5" font-family="Courier,monospace" font-weight="bold" font-size="10.00" fill="#000000">i0</text>
</g>
<!-- v0_w&#45;&#45;i0_w -->
<g id="edge1" class="edge">
<title>v0_w&#45;&#45;i0_w</title>
<path fill="none" stroke="#ffc0cb" stroke-width="2.5" d="M72.2107,-115.811C86.0859,-107.6709 108.1525,-94.7251 121.9531,-86.6287"/>
<path fill="none" stroke="transparent" stroke-width="2.5" d="M73.2227,-117.536C87.0979,-109.3959 109.1645,-96.4502 122.9652,-88.3538"/>
<path fill="none" stroke="#d2b48c" stroke-width="2.5" d="M74.2348,-119.261C88.1099,-111.121 110.1765,-98.1752 123.9772,-90.0788"/>
<text text-anchor="middle" x="98" y="-108" font-family="Courier,monospace" font-weight="bold" font-size="10.00" fill="#000000"> </text>
</g>
<!-- i1_w -->
<g id="node5" class="node">
<title>i1_w</title>
<ellipse fill="none" stroke="#000000" cx="210.5" cy="-81" rx="14.5" ry="14.5"/>
<text text-anchor="middle" x="210.5" y="-78.5" font-family="Courier,monospace" font-weight="bold" font-size="10.00" fill="#000000">i1</text>
</g>
<!-- i0_w&#45;&#45;i1_w -->
<g id="edge4" class="edge">
<title>i0_w&#45;&#45;i1_w</title>
<path fill="none" stroke="#ffc0cb" stroke-width="2.5" d="M150.3176,-79C163.5515,-79 182.8224,-79 195.9684,-79"/>
<path fill="none" stroke="transparent" stroke-width="2.5" d="M150.3176,-81C163.5515,-81 182.8224,-81 195.9684,-81"/>
<path fill="none" stroke="#d2b48c" stroke-width="2.5" d="M150.3176,-83C163.5515,-83 182.8224,-83 195.9684,-83"/>
<text text-anchor="middle" x="173" y="-84" font-family="Courier,monospace" font-weight="bold" font-size="10.00" fill="#000000"> </text>
</g>
<!-- v1_w -->
<g id="node3" class="node">
<title>v1_w</title>
<ellipse fill="#ffc0cb" stroke="#000000" cx="60.5" cy="-78" rx="14.5" ry="14.5"/>
<text text-anchor="middle" x="60.5" y="-75.5" font-family="Courier,monospace" font-weight="bold" font-size="10.00" fill="#000000">v1</text>
</g>
<!-- v1_w&#45;&#45;i0_w -->
<g id="edge2" class="edge">
<title>v1_w&#45;&#45;i0_w</title>
<path fill="none" stroke="#ffc0cb" stroke-width="2.5" d="M75.3975,-76.5943C88.6314,-77.1237 107.9023,-77.8945 121.0483,-78.4203"/>
<path fill="none" stroke="transparent" stroke-width="2.5" d="M75.3176,-78.5927C88.5515,-79.1221 107.8224,-79.8929 120.9684,-80.4187"/>
<path fill="none" stroke="#d2b48c" stroke-width="2.5" d="M75.2377,-80.5911C88.4716,-81.1205 107.7424,-81.8913 120.8885,-82.4171"/>
<text text-anchor="middle" x="98" y="-82" font-family="Courier,monospace" font-weight="bold" font-size="10.00" fill="#000000"> </text>
</g>
<!-- v2_w -->
<g id="node4" class="node">
<title>v2_w</title>
<ellipse fill="none" stroke="#000000" cx="60.5" cy="-31" rx="14.5" ry="14.5"/>
<text text-anchor="middle" x="60.5" y="-28.5" font-family="Courier,monospace" font-weight="bold" font-size="10.00" fill="#000000">v2</text>
</g>
<!-- v2_w&#45;&#45;i0_w -->
<g id="edge3" class="edge">
<title>v2_w&#45;&#45;i0_w</title>
<path fill="none" stroke="#d2b48c" stroke-width="2.5" d="M73.9941,-37.5924C87.9736,-46.9121 110.5712,-61.9771 124.4551,-71.2331"/>
<path fill="none" stroke="transparent" stroke-width="2.5" d="M72.8847,-39.2565C86.8642,-48.5762 109.4618,-63.6412 123.3457,-72.8972"/>
<path fill="none" stroke="#ffc0cb" stroke-width="2.5" d="M71.7753,-40.9206C85.7548,-50.2403 108.3524,-65.3053 122.2363,-74.5613"/>
<text text-anchor="middle" x="98" y="-61" font-family="Courier,monospace" font-weight="bold" font-size="10.00" fill="#000000"> </text>
</g>
<!-- i2_w -->
<g id="node6" class="node">
<title>i2_w</title>
<ellipse fill="none" stroke="#000000" cx="285.5" cy="-56" rx="14.5" ry="14.5"/>
<text text-anchor="middle" x="285.5" y="-53.5" font-family="Courier,monospace" font-weight="bold" font-size="10.00" fill="#000000">i2</text>
</g>
<!-- i1_w&#45;&#45;i2_w -->
<g id="edge5" class="edge">
<title>i1_w&#45;&#45;i2_w</title>
<path fill="none" stroke="#ffc0cb" stroke-width="2.5" d="M222.3588,-70.7225C235.8066,-66.2399 256.175,-59.4504 269.6797,-54.9489"/>
<path fill="none" stroke="transparent" stroke-width="2.5" d="M222.9912,-72.6199C236.4391,-68.1373 256.8075,-61.3478 270.3122,-56.8462"/>
<path fill="none" stroke="#ffc0cb" stroke-width="2.5" d="M223.6237,-74.5172C237.0715,-70.0346 257.4399,-63.2452 270.9446,-58.7436"/>
<path fill="none" stroke="transparent" stroke-width="2.5" d="M224.2562,-76.4146C237.704,-71.932 258.0724,-65.1425 271.5771,-60.641"/>
<path fill="none" stroke="#d2b48c" stroke-width="2.5" d="M224.8886,-78.312C238.3364,-73.8294 258.7048,-67.0399 272.2095,-62.5383"/>
<path fill="none" stroke="transparent" stroke-width="2.5" d="M225.5211,-80.2093C238.9689,-75.7267 259.3373,-68.9373 272.842,-64.4357"/>
<path fill="none" stroke="#d2b48c" stroke-width="2.5" d="M226.1535,-82.1067C239.6014,-77.6241 259.9697,-70.8346 273.4744,-66.3331"/>
<text text-anchor="middle" x="248" y="-72" font-family="Courier,monospace" font-weight="bold" font-size="10.00" fill="#000000"> </text>
</g>
<!-- v5_w -->
<g id="node9" class="node">
<title>v5_w</title>
<ellipse fill="#d2b48c" stroke="#000000" cx="285.5" cy="-103" rx="14.5" ry="14.5"/>
<text text-anchor="middle" x="285.5" y="-100.5" font-family="Courier,monospace" font-weight="bold" font-size="10.00" fill="#000000">v5</text>
</g>
<!-- i1_w&#45;&#45;v5_w -->
<g id="edge8" class="edge">
<title>i1_w&#45;&#45;v5_w</title>
<path fill="none" stroke="#ffc0cb" stroke-width="2.5" d="M225.1699,-83.2189C238.5787,-87.1521 258.6314,-93.0343 272.0193,-96.9614"/>
<path fill="none" stroke="transparent" stroke-width="2.5" d="M224.6069,-85.138C238.0157,-89.0713 258.0685,-94.9534 271.4563,-98.8805"/>
<path fill="none" stroke="#d2b48c" stroke-width="2.5" d="M224.044,-87.0572C237.4528,-90.9904 257.5055,-96.8726 270.8934,-100.7997"/>
<text text-anchor="middle" x="248" y="-96" font-family="Courier,monospace" font-weight="bold" font-size="10.00" fill="#000000"> </text>
</g>
<!-- v3_w -->
<g id="node7" class="node">
<title>v3_w</title>
<ellipse fill="none" stroke="#000000" cx="360.5" cy="-34" rx="14.5" ry="14.5"/>
<text text-anchor="middle" x="360.5" y="-31.5" font-family="Courier,monospace" font-weight="bold" font-size="10.00" fill="#000000">v3</text>
</g>
<!-- i2_w&#45;&#45;v3_w -->
<g id="edge6" class="edge">
<title>i2_w&#45;&#45;v3_w</title>
<path fill="none" stroke="#ffc0cb" stroke-width="2.5" d="M299.044,-49.9428C312.4528,-46.0096 332.5055,-40.1274 345.8934,-36.2003"/>
<path fill="none" stroke="transparent" stroke-width="2.5" d="M299.6069,-51.862C313.0157,-47.9287 333.0685,-42.0466 346.4563,-38.1195"/>
<path fill="none" stroke="#d2b48c" stroke-width="2.5" d="M300.1699,-53.7811C313.5787,-49.8479 333.6314,-43.9657 347.0193,-40.0386"/>
<text text-anchor="middle" x="323" y="-49" font-family="Courier,monospace" font-weight="bold" font-size="10.00" fill="#000000"> </text>
</g>
<!-- v4_w -->
<g id="node8" class="node">
<title>v4_w</title>
<ellipse fill="none" stroke="#000000" cx="360.5" cy="-81" rx="14.5" ry="14.5"/>
<text text-anchor="middle" x="360.5" y="-78.5" font-family="Courier,monospace" font-weight="bold" font-size="10.00" fill="#000000">v4</text>
</g>
<!-- i2_w&#45;&#45;v4_w -->
<g id="edge7" class="edge">
<title>i2_w&#45;&#45;v4_w</title>
<path fill="none" stroke="#ffc0cb" stroke-width="2.5" d="M299.8886,-58.688C313.3364,-63.1706 333.7048,-69.9601 347.2095,-74.4617"/>
<path fill="none" stroke="transparent" stroke-width="2.5" d="M299.2562,-60.5854C312.704,-65.068 333.0724,-71.8575 346.5771,-76.359"/>
<path fill="none" stroke="#d2b48c" stroke-width="2.5" d="M298.6237,-62.4828C312.0715,-66.9654 332.4399,-73.7548 345.9446,-78.2564"/>
<text text-anchor="middle" x="323" y="-72" font-family="Courier,monospace" font-weight="bold" font-size="10.00" fill="#000000"> </text>
</g>
<!-- v0_x -->
<g id="node10" class="node">
<title>v0_x</title>
<ellipse fill="none" stroke="#000000" cx="60.5" cy="-292" rx="14.5" ry="14.5"/>
<text text-anchor="middle" x="60.5" y="-289.5" font-family="Courier,monospace" font-weight="bold" font-size="10.00" fill="#000000">v0</text>
</g>
<!-- i0_x -->
<g id="node11" class="node">
<title>i0_x</title>
<ellipse fill="none" stroke="#000000" cx="135.5" cy="-248" rx="14.5" ry="14.5"/>
<text text-anchor="middle" x="135.5" y="-245.5" font-family="Courier,monospace" font-weight="bold" font-size="10.00" fill="#000000">i0</text>
</g>
<!-- v0_x&#45;&#45;i0_x -->
<g id="edge9" class="edge">
<title>v0_x&#45;&#45;i0_x:n</title>
<path fill="none" stroke="#ffc0cb" stroke-width="2.5" d="M75.3072,-290.5026C96.9754,-290.399 135.3005,-286.5574 133.5,-263"/>
<path fill="none" stroke="transparent" stroke-width="2.5" d="M75.3176,-292.5026C97.1749,-292.389 135.5,-288.5474 135.5,-263"/>
<path fill="none" stroke="#d2b48c" stroke-width="2.5" d="M75.328,-294.5026C97.3744,-294.3791 135.6995,-290.5374 137.5,-263"/>
<text text-anchor="middle" x="98" y="-294" font-family="Courier,monospace" font-weight="bold" font-size="10.00" fill="#000000"> </text>
</g>
<!-- i1_x -->
<g id="node14" class="node">
<title>i1_x</title>
<ellipse fill="none" stroke="#000000" cx="210.5" cy="-248" rx="14.5" ry="14.5"/>
<text text-anchor="middle" x="210.5" y="-245.5" font-family="Courier,monospace" font-weight="bold" font-size="10.00" fill="#000000">i1</text>
</g>
<!-- i0_x&#45;&#45;i1_x -->
<g id="edge12" class="edge">
<title>i0_x&#45;&#45;i1_x</title>
<path fill="none" stroke="#ffc0cb" stroke-width="2.5" d="M150.3176,-238C163.5515,-238 182.8224,-238 195.9684,-238"/>
<path fill="none" stroke="transparent" stroke-width="2.5" d="M150.3176,-240C163.5515,-240 182.8224,-240 195.9684,-240"/>
<path fill="none" stroke="#ffc0cb" stroke-width="2.5" d="M150.3176,-242C163.5515,-242 182.8224,-242 195.9684,-242"/>
<path fill="none" stroke="transparent" stroke-width="2.5" d="M150.3176,-244C163.5515,-244 182.8224,-244 195.9684,-244"/>
<path fill="none" stroke="#ffc0cb" stroke-width="2.5" d="M150.3176,-246C163.5515,-246 182.8224,-246 195.9684,-246"/>
<path fill="none" stroke="transparent" stroke-width="2.5" d="M150.3176,-248C163.5515,-248 182.8224,-248 195.9684,-248"/>
<path fill="none" stroke="#d2b48c" stroke-width="2.5" d="M150.3176,-250C163.5515,-250 182.8224,-250 195.9684,-250"/>
<path fill="none" stroke="transparent" stroke-width="2.5" d="M150.3176,-252C163.5515,-252 182.8224,-252 195.9684,-252"/>
<path fill="none" stroke="#d2b48c" stroke-width="2.5" d="M150.3176,-254C163.5515,-254 182.8224,-254 195.9684,-254"/>
<path fill="none" stroke="transparent" stroke-width="2.5" d="M150.3176,-256C163.5515,-256 182.8224,-256 195.9684,-256"/>
<path fill="none" stroke="#d2b48c" stroke-width="2.5" d="M150.3176,-258C163.5515,-258 182.8224,-258 195.9684,-258"/>
<text text-anchor="middle" x="173" y="-251" font-family="Courier,monospace" font-weight="bold" font-size="10.00" fill="#000000"> </text>
</g>
<!-- v1_x -->
<g id="node12" class="node">
<title>v1_x</title>
<ellipse fill="#ffc0cb" stroke="#000000" cx="60.5" cy="-245" rx="14.5" ry="14.5"/>
<text text-anchor="middle" x="60.5" y="-242.5" font-family="Courier,monospace" font-weight="bold" font-size="10.00" fill="#000000">v1</text>
</g>
<!-- v1_x&#45;&#45;i0_x -->
<g id="edge10" class="edge">
<title>v1_x&#45;&#45;i0_x</title>
<path fill="none" stroke="#ffc0cb" stroke-width="2.5" d="M75.7173,-235.6007C88.9512,-236.1301 108.2221,-236.9009 121.3681,-237.4267"/>
<path fill="none" stroke="transparent" stroke-width="2.5" d="M75.6373,-237.5991C88.8712,-238.1285 108.1421,-238.8993 121.2881,-239.4251"/>
<path fill="none" stroke="#ffc0cb" stroke-width="2.5" d="M75.5574,-239.5975C88.7913,-240.1269 108.0622,-240.8977 121.2082,-241.4235"/>
<path fill="none" stroke="transparent" stroke-width="2.5" d="M75.4775,-241.5959C88.7114,-242.1253 107.9823,-242.8961 121.1283,-243.4219"/>
<path fill="none" stroke="#ffc0cb" stroke-width="2.5" d="M75.3975,-243.5943C88.6314,-244.1237 107.9023,-244.8945 121.0483,-245.4203"/>
<path fill="none" stroke="transparent" stroke-width="2.5" d="M75.3176,-245.5927C88.5515,-246.1221 107.8224,-246.8929 120.9684,-247.4187"/>
<path fill="none" stroke="#ffc0cb" stroke-width="2.5" d="M75.2377,-247.5911C88.4716,-248.1205 107.7424,-248.8913 120.8885,-249.4171"/>
<path fill="none" stroke="transparent" stroke-width="2.5" d="M75.1577,-249.5895C88.3916,-250.1189 107.6625,-250.8897 120.8085,-251.4155"/>
<path fill="none" stroke="#ffc0cb" stroke-width="2.5" d="M75.0778,-251.5879C88.3117,-252.1173 107.5826,-252.8881 120.7286,-253.4139"/>
<path fill="none" stroke="transparent" stroke-width="2.5" d="M74.9978,-253.5863C88.2318,-254.1157 107.5026,-254.8865 120.6487,-255.4123"/>
<path fill="none" stroke="#d2b48c" stroke-width="2.5" d="M74.9179,-255.5847C88.1518,-256.1141 107.4227,-256.8849 120.5687,-257.4107"/>
<text text-anchor="middle" x="98" y="-249" font-family="Courier,monospace" font-weight="bold" font-size="10.00" fill="#000000"> </text>
</g>
<!-- v2_x -->
<g id="node13" class="node">
<title>v2_x</title>
<ellipse fill="none" stroke="#000000" cx="60.5" cy="-198" rx="14.5" ry="14.5"/>
<text text-anchor="middle" x="60.5" y="-195.5" font-family="Courier,monospace" font-weight="bold" font-size="10.00" fill="#000000">v2</text>
</g>
<!-- v2_x&#45;&#45;i0_x -->
<g id="edge11" class="edge">
<title>v2_x&#45;&#45;i0_x:s</title>
<path fill="none" stroke="#d2b48c" stroke-width="2.5" d="M75.4652,-196.5059C97.5136,-198.1474 135.8387,-204.7339 137.5,-233"/>
<path fill="none" stroke="transparent" stroke-width="2.5" d="M75.3176,-198.5004C97.1749,-200.1186 135.5,-206.705 135.5,-233"/>
<path fill="none" stroke="#ffc0cb" stroke-width="2.5" d="M75.1699,-200.4949C96.8361,-202.0897 135.1613,-208.6761 133.5,-233"/>
<text text-anchor="middle" x="98" y="-205" font-family="Courier,monospace" font-weight="bold" font-size="10.00" fill="#000000"> </text>
</g>
<!-- i2_x -->
<g id="node15" class="node">
<title>i2_x</title>
<ellipse fill="none" stroke="#000000" cx="285.5" cy="-230" rx="14.5" ry="14.5"/>
<text text-anchor="middle" x="285.5" y="-227.5" font-family="Courier,monospace" font-weight="bold" font-size="10.00" fill="#000000">i2</text>
</g>
<!-- i1_x&#45;&#45;i2_x -->
<g id="edge13" class="edge">
<title>i1_x&#45;&#45;i2_x</title>
<path fill="none" stroke="#ffc0cb" stroke-width="2.5" d="M223.2067,-238.78C236.5306,-235.5823 256.4147,-230.8101 269.8011,-227.5974"/>
<path fill="none" stroke="transparent" stroke-width="2.5" d="M223.6734,-240.7248C236.9974,-237.527 256.8814,-232.7549 270.2678,-229.5421"/>
<path fill="none" stroke="#ffc0cb" stroke-width="2.5" d="M224.1402,-242.6696C237.4641,-239.4718 257.3482,-234.6997 270.7346,-231.4869"/>
<path fill="none" stroke="transparent" stroke-width="2.5" d="M224.6069,-244.6143C237.9309,-241.4166 257.8149,-236.6444 271.2013,-233.4317"/>
<path fill="none" stroke="#d2b48c" stroke-width="2.5" d="M225.0737,-246.5591C238.3976,-243.3614 258.2816,-238.5892 271.6681,-235.3765"/>
<path fill="none" stroke="transparent" stroke-width="2.5" d="M225.5404,-248.5039C238.8644,-245.3061 258.7484,-240.534 272.1348,-237.3212"/>
<path fill="none" stroke="#d2b48c" stroke-width="2.5" d="M226.0072,-250.4487C239.3311,-247.2509 259.2151,-242.4787 272.6016,-239.266"/>
<text text-anchor="middle" x="248" y="-242" font-family="Courier,monospace" font-weight="bold" font-size="10.00" fill="#000000"> </text>
</g>
<!-- v5_x -->
<g id="node18" class="node">
<title>v5_x</title>
<ellipse fill="#d2b48c" stroke="#000000" cx="285.5" cy="-277" rx="14.5" ry="14.5"/>
<text text-anchor="middle" x="285.5" y="-274.5" font-family="Courier,monospace" font-weight="bold" font-size="10.00" fill="#000000">v5</text>
</g>
<!-- i1_x&#45;&#45;v5_x -->
<g id="edge16" class="edge">
<title>i1_x:n&#45;&#45;v5_x</title>
<path fill="none" stroke="#ffc0cb" stroke-width="2.5" d="M220.5,-263C209.6181,-277.4111 248.3632,-273.9807 269.2964,-270.2373"/>
<path fill="none" stroke="transparent" stroke-width="2.5" d="M218.5,-263C209.7945,-279.4033 248.5396,-275.9729 269.6449,-272.2067"/>
<path fill="none" stroke="#d2b48c" stroke-width="2.5" d="M216.5,-263C209.9708,-281.3955 248.716,-277.9651 269.9935,-274.1761"/>
<path fill="none" stroke="transparent" stroke-width="2.5" d="M214.5,-263C210.1472,-283.3878 248.8923,-279.9574 270.3421,-276.1455"/>
<path fill="none" stroke="#d2b48c" stroke-width="2.5" d="M212.5,-263C210.3236,-285.38 249.0687,-281.9496 270.6907,-278.1149"/>
<path fill="none" stroke="transparent" stroke-width="2.5" d="M210.5,-263C210.5,-287.3722 249.2451,-283.9418 271.0392,-280.0843"/>
<path fill="none" stroke="#d2b48c" stroke-width="2.5" d="M208.5,-263C210.6764,-289.3644 249.4215,-285.934 271.3878,-282.0537"/>
<path fill="none" stroke="transparent" stroke-width="2.5" d="M206.5,-263C210.8528,-291.3566 249.5979,-287.9262 271.7364,-284.0231"/>
<path fill="none" stroke="#d2b48c" stroke-width="2.5" d="M204.5,-263C211.0292,-293.3488 249.7743,-289.9184 272.085,-285.9925"/>
<path fill="none" stroke="transparent" stroke-width="2.5" d="M202.5,-263C211.2055,-295.341 249.9507,-291.9106 272.4335,-287.9618"/>
<path fill="none" stroke="#d2b48c" stroke-width="2.5" d="M200.5,-263C211.3819,-297.3332 250.127,-293.9028 272.7821,-289.9312"/>
<text text-anchor="middle" x="248" y="-285" font-family="Courier,monospace" font-weight="bold" font-size="10.00" fill="#000000"> </text>
</g>
<!-- v3_x -->
<g id="node16" class="node">
<title>v3_x</title>
<ellipse fill="none" stroke="#000000" cx="360.5" cy="-208" rx="14.5" ry="14.5"/>
<text text-anchor="middle" x="360.5" y="-205.5" font-family="Courier,monospace" font-weight="bold" font-size="10.00" fill="#000000">v3</text>
</g>
<!-- i2_x&#45;&#45;v3_x -->
<g id="edge14" class="edge">
<title>i2_x&#45;&#45;v3_x</title>
<path fill="none" stroke="#ffc0cb" stroke-width="2.5" d="M299.044,-223.9428C312.4528,-220.0096 332.5055,-214.1274 345.8934,-210.2003"/>
<path fill="none" stroke="transparent" stroke-width="2.5" d="M299.6069,-225.862C313.0157,-221.9287 333.0685,-216.0466 346.4563,-212.1195"/>
<path fill="none" stroke="#d2b48c" stroke-width="2.5" d="M300.1699,-227.7811C313.5787,-223.8479 333.6314,-217.9657 347.0193,-214.0386"/>
<text text-anchor="middle" x="323" y="-223" font-family="Courier,monospace" font-weight="bold" font-size="10.00" fill="#000000"> </text>
</g>
<!-- v4_x -->
<g id="node17" class="node">
<title>v4_x</title>
<ellipse fill="none" stroke="#000000" cx="360.5" cy="-255" rx="14.5" ry="14.5"/>
<text text-anchor="middle" x="360.5" y="-252.5" font-family="Courier,monospace" font-weight="bold" font-size="10.00" fill="#000000">v4</text>
</g>
<!-- i2_x&#45;&#45;v4_x -->
<g id="edge15" class="edge">
<title>i2_x&#45;&#45;v4_x</title>
<path fill="none" stroke="#ffc0cb" stroke-width="2.5" d="M299.8886,-232.688C313.3364,-237.1706 333.7048,-243.9601 347.2095,-248.4617"/>
<path fill="none" stroke="transparent" stroke-width="2.5" d="M299.2562,-234.5854C312.704,-239.068 333.0724,-245.8575 346.5771,-250.359"/>
<path fill="none" stroke="#d2b48c" stroke-width="2.5" d="M298.6237,-236.4828C312.0715,-240.9654 332.4399,-247.7548 345.9446,-252.2564"/>
<text text-anchor="middle" x="323" y="-246" font-family="Courier,monospace" font-weight="bold" font-size="10.00" fill="#000000"> </text>
</g>
<!-- v0_z -->
<g id="node19" class="node">
<title>v0_z</title>
<ellipse fill="none" stroke="#000000" cx="60.5" cy="-459" rx="14.5" ry="14.5"/>
<text text-anchor="middle" x="60.5" y="-456.5" font-family="Courier,monospace" font-weight="bold" font-size="10.00" fill="#000000">v0</text>
</g>
<!-- i0_z -->
<g id="node20" class="node">
<title>i0_z</title>
<ellipse fill="none" stroke="#000000" cx="135.5" cy="-415" rx="14.5" ry="14.5"/>
<text text-anchor="middle" x="135.5" y="-412.5" font-family="Courier,monospace" font-weight="bold" font-size="10.00" fill="#000000">i0</text>
</g>
<!-- v0_z&#45;&#45;i0_z -->
<g id="edge17" class="edge">
<title>v0_z&#45;&#45;i0_z</title>
<path fill="none" stroke="#d2b48c" stroke-width="2.5" d="M73.2227,-451.536C87.0979,-443.3959 109.1645,-430.4502 122.9652,-422.3538"/>
<text text-anchor="middle" x="98" y="-442" font-family="Courier,monospace" font-weight="bold" font-size="10.00" fill="#000000"> </text>
</g>
<!-- i1_z -->
<g id="node23" class="node">
<title>i1_z</title>
<ellipse fill="none" stroke="#000000" cx="210.5" cy="-415" rx="14.5" ry="14.5"/>
<text text-anchor="middle" x="210.5" y="-412.5" font-family="Courier,monospace" font-weight="bold" font-size="10.00" fill="#000000">i1</text>
</g>
<!-- i0_z&#45;&#45;i1_z -->
<g id="edge20" class="edge">
<title>i0_z&#45;&#45;i1_z</title>
<path fill="none" stroke="#d2b48c" stroke-width="2.5" d="M150.3176,-411C163.5515,-411 182.8224,-411 195.9684,-411"/>
<path fill="none" stroke="transparent" stroke-width="2.5" d="M150.3176,-413C163.5515,-413 182.8224,-413 195.9684,-413"/>
<path fill="none" stroke="#d2b48c" stroke-width="2.5" d="M150.3176,-415C163.5515,-415 182.8224,-415 195.9684,-415"/>
<path fill="none" stroke="transparent" stroke-width="2.5" d="M150.3176,-417C163.5515,-417 182.8224,-417 195.9684,-417"/>
<path fill="none" stroke="#d2b48c" stroke-width="2.5" d="M150.3176,-419C163.5515,-419 182.8224,-419 195.9684,-419"/>
<text text-anchor="middle" x="173" y="-418" font-family="Courier,monospace" font-weight="bold" font-size="10.00" fill="#000000"> </text>
</g>
<!-- v1_z -->
<g id="node21" class="node">
<title>v1_z</title>
<ellipse fill="none" stroke="#000000" cx="60.5" cy="-412" rx="14.5" ry="14.5"/>
<text text-anchor="middle" x="60.5" y="-409.5" font-family="Courier,monospace" font-weight="bold" font-size="10.00" fill="#000000">v1</text>
</g>
<!-- v1_z&#45;&#45;i0_z -->
<g id="edge18" class="edge">
<title>v1_z&#45;&#45;i0_z</title>
<path fill="none" stroke="#d2b48c" stroke-width="2.5" d="M75.3176,-412.5927C88.5515,-413.1221 107.8224,-413.8929 120.9684,-414.4187"/>
<text text-anchor="middle" x="98" y="-416" font-family="Courier,monospace" font-weight="bold" font-size="10.00" fill="#000000"> </text>
</g>
<!-- v2_z -->
<g id="node22" class="node">
<title>v2_z</title>
<ellipse fill="none" stroke="#000000" cx="60.5" cy="-365" rx="14.5" ry="14.5"/>
<text text-anchor="middle" x="60.5" y="-362.5" font-family="Courier,monospace" font-weight="bold" font-size="10.00" fill="#000000">v2</text>
</g>
<!-- v2_z&#45;&#45;i0_z -->
<g id="edge19" class="edge">
<title>v2_z&#45;&#45;i0_z</title>
<path fill="none" stroke="#d2b48c" stroke-width="2.5" d="M72.8847,-373.2565C86.8642,-382.5762 109.4618,-397.6412 123.3457,-406.8972"/>
<text text-anchor="middle" x="98" y="-395" font-family="Courier,monospace" font-weight="bold" font-size="10.00" fill="#000000"> </text>
</g>
<!-- i2_z -->
<g id="node24" class="node">
<title>i2_z</title>
<ellipse fill="none" stroke="#000000" cx="285.5" cy="-390" rx="14.5" ry="14.5"/>
<text text-anchor="middle" x="285.5" y="-387.5" font-family="Courier,monospace" font-weight="bold" font-size="10.00" fill="#000000">i2</text>
</g>
<!-- i1_z&#45;&#45;i2_z -->
<g id="edge21" class="edge">
<title>i1_z&#45;&#45;i2_z</title>
<path fill="none" stroke="#d2b48c" stroke-width="2.5" d="M223.6237,-408.5172C237.0715,-404.0346 257.4399,-397.2452 270.9446,-392.7436"/>
<path fill="none" stroke="transparent" stroke-width="2.5" d="M224.2562,-410.4146C237.704,-405.932 258.0724,-399.1425 271.5771,-394.641"/>
<path fill="none" stroke="#d2b48c" stroke-width="2.5" d="M224.8886,-412.312C238.3364,-407.8294 258.7048,-401.0399 272.2095,-396.5383"/>
<text text-anchor="middle" x="248" y="-406" font-family="Courier,monospace" font-weight="bold" font-size="10.00" fill="#000000"> </text>
</g>
<!-- v5_z -->
<g id="node27" class="node">
<title>v5_z</title>
<ellipse fill="#d2b48c" stroke="#000000" cx="285.5" cy="-437" rx="14.5" ry="14.5"/>
<text text-anchor="middle" x="285.5" y="-434.5" font-family="Courier,monospace" font-weight="bold" font-size="10.00" fill="#000000">v5</text>
</g>
<!-- i1_z&#45;&#45;v5_z -->
<g id="edge24" class="edge">
<title>i1_z&#45;&#45;v5_z</title>
<path fill="none" stroke="#d2b48c" stroke-width="2.5" d="M226.8587,-411.4615C240.2675,-415.3947 260.3203,-421.2769 273.7081,-425.204"/>
<path fill="none" stroke="transparent" stroke-width="2.5" d="M226.2958,-413.3806C239.7046,-417.3139 259.7573,-423.196 273.1452,-427.1231"/>
<path fill="none" stroke="#d2b48c" stroke-width="2.5" d="M225.7328,-415.2998C239.1416,-419.233 259.1944,-425.1151 272.5822,-429.0422"/>
<path fill="none" stroke="transparent" stroke-width="2.5" d="M225.1699,-417.2189C238.5787,-421.1521 258.6314,-427.0343 272.0193,-430.9614"/>
<path fill="none" stroke="#d2b48c" stroke-width="2.5" d="M224.6069,-419.138C238.0157,-423.0713 258.0685,-428.9534 271.4563,-432.8805"/>
<path fill="none" stroke="transparent" stroke-width="2.5" d="M224.044,-421.0572C237.4528,-424.9904 257.5055,-430.8726 270.8934,-434.7997"/>
<path fill="none" stroke="#d2b48c" stroke-width="2.5" d="M223.481,-422.9763C236.8898,-426.9096 256.9426,-432.7917 270.3304,-436.7188"/>
<path fill="none" stroke="transparent" stroke-width="2.5" d="M222.9181,-424.8954C236.3269,-428.8287 256.3796,-434.7108 269.7675,-438.6379"/>
<path fill="none" stroke="#d2b48c" stroke-width="2.5" d="M222.3551,-426.8146C235.7639,-430.7478 255.8167,-436.63 269.2045,-440.5571"/>
<text text-anchor="middle" x="248" y="-430" font-family="Courier,monospace" font-weight="bold" font-size="10.00" fill="#000000"> </text>
</g>
<!-- v3_z -->
<g id="node25" class="node">
<title>v3_z</title>
<ellipse fill="none" stroke="#000000" cx="360.5" cy="-379" rx="14.5" ry="14.5"/>
<text text-anchor="middle" x="360.5" y="-376.5" font-family="Courier,monospace" font-weight="bold" font-size="10.00" fill="#000000">v3</text>
</g>
<!-- i2_z&#45;&#45;v3_z -->
<g id="edge22" class="edge">
<title>i2_z&#45;&#45;v3_z</title>
<path fill="none" stroke="#d2b48c" stroke-width="2.5" d="M299.9608,-387.8791C313.2416,-385.9312 332.8169,-383.0602 346.0836,-381.1144"/>
<text text-anchor="middle" x="323" y="-388" font-family="Courier,monospace" font-weight="bold" font-size="10.00" fill="#000000"> </text>
</g>
<!-- v4_z -->
<g id="node26" class="node">
<title>v4_z</title>
<ellipse fill="none" stroke="#000000" cx="360.5" cy="-426" rx="14.5" ry="14.5"/>
<text text-anchor="middle" x="360.5" y="-423.5" font-family="Courier,monospace" font-weight="bold" font-size="10.00" fill="#000000">v4</text>
</g>
<!-- i2_z&#45;&#45;v4_z -->
<g id="edge23" class="edge">
<title>i2_z&#45;&#45;v4_z</title>
<path fill="none" stroke="#d2b48c" stroke-width="2.5" d="M298.9085,-396.4361C312.5599,-402.9888 333.5982,-413.0871 347.2076,-419.6196"/>
<text text-anchor="middle" x="323" y="-412" font-family="Courier,monospace" font-weight="bold" font-size="10.00" fill="#000000"> </text>
</g>
<!-- v0_y -->
<g id="node28" class="node">
<title>v0_y</title>
<ellipse fill="none" stroke="#000000" cx="60.5" cy="-626" rx="14.5" ry="14.5"/>
<text text-anchor="middle" x="60.5" y="-623.5" font-family="Courier,monospace" font-weight="bold" font-size="10.00" fill="#000000">v0</text>
</g>
<!-- i0_y -->
<g id="node29" class="node">
<title>i0_y</title>
<ellipse fill="none" stroke="#000000" cx="135.5" cy="-582" rx="14.5" ry="14.5"/>
<text text-anchor="middle" x="135.5" y="-579.5" font-family="Courier,monospace" font-weight="bold" font-size="10.00" fill="#000000">i0</text>
</g>
<!-- v0_y&#45;&#45;i0_y -->
<g id="edge25" class="edge">
<title>v0_y&#45;&#45;i0_y</title>
<path fill="none" stroke="#ffc0cb" stroke-width="2.5" d="M73.2227,-618.536C87.0979,-610.3959 109.1645,-597.4502 122.9652,-589.3538"/>
<text text-anchor="middle" x="98" y="-609" font-family="Courier,monospace" font-weight="bold" font-size="10.00" fill="#000000"> </text>
</g>
<!-- i1_y -->
<g id="node32" class="node">
<title>i1_y</title>
<ellipse fill="none" stroke="#000000" cx="210.5" cy="-582" rx="14.5" ry="14.5"/>
<text text-anchor="middle" x="210.5" y="-579.5" font-family="Courier,monospace" font-weight="bold" font-size="10.00" fill="#000000">i1</text>
</g>
<!-- i0_y&#45;&#45;i1_y -->
<g id="edge28" class="edge">
<title>i0_y&#45;&#45;i1_y</title>
<path fill="none" stroke="#ffc0cb" stroke-width="2.5" d="M150.3176,-578C163.5515,-578 182.8224,-578 195.9684,-578"/>
<path fill="none" stroke="transparent" stroke-width="2.5" d="M150.3176,-580C163.5515,-580 182.8224,-580 195.9684,-580"/>
<path fill="none" stroke="#ffc0cb" stroke-width="2.5" d="M150.3176,-582C163.5515,-582 182.8224,-582 195.9684,-582"/>
<path fill="none" stroke="transparent" stroke-width="2.5" d="M150.3176,-584C163.5515,-584 182.8224,-584 195.9684,-584"/>
<path fill="none" stroke="#ffc0cb" stroke-width="2.5" d="M150.3176,-586C163.5515,-586 182.8224,-586 195.9684,-586"/>
<text text-anchor="middle" x="173" y="-585" font-family="Courier,monospace" font-weight="bold" font-size="10.00" fill="#000000"> </text>
</g>
<!-- v1_y -->
<g id="node30" class="node">
<title>v1_y</title>
<ellipse fill="#ffc0cb" stroke="#000000" cx="60.5" cy="-579" rx="14.5" ry="14.5"/>
<text text-anchor="middle" x="60.5" y="-576.5" font-family="Courier,monospace" font-weight="bold" font-size="10.00" fill="#000000">v1</text>
</g>
<!-- v1_y&#45;&#45;i0_y -->
<g id="edge26" class="edge">
<title>v1_y&#45;&#45;i0_y</title>
<path fill="none" stroke="#ffc0cb" stroke-width="2.5" d="M75.6373,-571.5991C88.8712,-572.1285 108.1421,-572.8993 121.2881,-573.4251"/>
<path fill="none" stroke="transparent" stroke-width="2.5" d="M75.5574,-573.5975C88.7913,-574.1269 108.0622,-574.8977 121.2082,-575.4235"/>
<path fill="none" stroke="#ffc0cb" stroke-width="2.5" d="M75.4775,-575.5959C88.7114,-576.1253 107.9823,-576.8961 121.1283,-577.4219"/>
<path fill="none" stroke="transparent" stroke-width="2.5" d="M75.3975,-577.5943C88.6314,-578.1237 107.9023,-578.8945 121.0483,-579.4203"/>
<path fill="none" stroke="#ffc0cb" stroke-width="2.5" d="M75.3176,-579.5927C88.5515,-580.1221 107.8224,-580.8929 120.9684,-581.4187"/>
<path fill="none" stroke="transparent" stroke-width="2.5" d="M75.2377,-581.5911C88.4716,-582.1205 107.7424,-582.8913 120.8885,-583.4171"/>
<path fill="none" stroke="#ffc0cb" stroke-width="2.5" d="M75.1577,-583.5895C88.3916,-584.1189 107.6625,-584.8897 120.8085,-585.4155"/>
<path fill="none" stroke="transparent" stroke-width="2.5" d="M75.0778,-585.5879C88.3117,-586.1173 107.5826,-586.8881 120.7286,-587.4139"/>
<path fill="none" stroke="#ffc0cb" stroke-width="2.5" d="M74.9978,-587.5863C88.2318,-588.1157 107.5026,-588.8865 120.6487,-589.4123"/>
<text text-anchor="middle" x="98" y="-583" font-family="Courier,monospace" font-weight="bold" font-size="10.00" fill="#000000"> </text>
</g>
<!-- v2_y -->
<g id="node31" class="node">
<title>v2_y</title>
<ellipse fill="none" stroke="#000000" cx="60.5" cy="-532" rx="14.5" ry="14.5"/>
<text text-anchor="middle" x="60.5" y="-529.5" font-family="Courier,monospace" font-weight="bold" font-size="10.00" fill="#000000">v2</text>
</g>
<!-- v2_y&#45;&#45;i0_y -->
<g id="edge27" class="edge">
<title>v2_y&#45;&#45;i0_y</title>
<path fill="none" stroke="#ffc0cb" stroke-width="2.5" d="M72.8847,-540.2565C86.8642,-549.5762 109.4618,-564.6412 123.3457,-573.8972"/>
<text text-anchor="middle" x="98" y="-562" font-family="Courier,monospace" font-weight="bold" font-size="10.00" fill="#000000"> </text>
</g>
<!-- i2_y -->
<g id="node33" class="node">
<title>i2_y</title>
<ellipse fill="none" stroke="#000000" cx="285.5" cy="-557" rx="14.5" ry="14.5"/>
<text text-anchor="middle" x="285.5" y="-554.5" font-family="Courier,monospace" font-weight="bold" font-size="10.00" fill="#000000">i2</text>
</g>
<!-- i1_y&#45;&#45;i2_y -->
<g id="edge29" class="edge">
<title>i1_y&#45;&#45;i2_y</title>
<path fill="none" stroke="#ffc0cb" stroke-width="2.5" d="M223.6237,-575.5172C237.0715,-571.0346 257.4399,-564.2452 270.9446,-559.7436"/>
<path fill="none" stroke="transparent" stroke-width="2.5" d="M224.2562,-577.4146C237.704,-572.932 258.0724,-566.1425 271.5771,-561.641"/>
<path fill="none" stroke="#ffc0cb" stroke-width="2.5" d="M224.8886,-579.312C238.3364,-574.8294 258.7048,-568.0399 272.2095,-563.5383"/>
<text text-anchor="middle" x="248" y="-573" font-family="Courier,monospace" font-weight="bold" font-size="10.00" fill="#000000"> </text>
</g>
<!-- v5_y -->
<g id="node36" class="node">
<title>v5_y</title>
<ellipse fill="none" stroke="#000000" cx="285.5" cy="-604" rx="14.5" ry="14.5"/>
<text text-anchor="middle" x="285.5" y="-601.5" font-family="Courier,monospace" font-weight="bold" font-size="10.00" fill="#000000">v5</text>
</g>
<!-- i1_y&#45;&#45;v5_y -->
<g id="edge32" class="edge">
<title>i1_y&#45;&#45;v5_y</title>
<path fill="none" stroke="#ffc0cb" stroke-width="2.5" d="M224.6069,-586.138C238.0157,-590.0713 258.0685,-595.9534 271.4563,-599.8805"/>
<text text-anchor="middle" x="248" y="-597" font-family="Courier,monospace" font-weight="bold" font-size="10.00" fill="#000000"> </text>
</g>
<!-- v3_y -->
<g id="node34" class="node">
<title>v3_y</title>
<ellipse fill="none" stroke="#000000" cx="360.5" cy="-546" rx="14.5" ry="14.5"/>
<text text-anchor="middle" x="360.5" y="-543.5" font-family="Courier,monospace" font-weight="bold" font-size="10.00" fill="#000000">v3</text>
</g>
<!-- i2_y&#45;&#45;v3_y -->
<g id="edge30" class="edge">
<title>i2_y&#45;&#45;v3_y</title>
<path fill="none" stroke="#ffc0cb" stroke-width="2.5" d="M299.9608,-554.8791C313.2416,-552.9312 332.8169,-550.0602 346.0836,-548.1144"/>
<text text-anchor="middle" x="323" y="-555" font-family="Courier,monospace" font-weight="bold" font-size="10.00" fill="#000000"> </text>
</g>
<!-- v4_y -->
<g id="node35" class="node">
<title>v4_y</title>
<ellipse fill="none" stroke="#000000" cx="360.5" cy="-593" rx="14.5" ry="14.5"/>
<text text-anchor="middle" x="360.5" y="-590.5" font-family="Courier,monospace" font-weight="bold" font-size="10.00" fill="#000000">v4</text>
</g>
<!-- i2_y&#45;&#45;v4_y -->
<g id="edge31" class="edge">
<title>i2_y&#45;&#45;v4_y</title>
<path fill="none" stroke="#ffc0cb" stroke-width="2.5" d="M298.9085,-563.4361C312.5599,-569.9888 333.5982,-580.0871 347.2076,-586.6196"/>
<text text-anchor="middle" x="323" y="-579" font-family="Courier,monospace" font-weight="bold" font-size="10.00" fill="#000000"> </text>
</g>
</g>
</svg>
