<?xml version="1.0" encoding="UTF-8" standalone="no"?>
<!DOCTYPE svg PUBLIC "-//W3C//DTD SVG 1.1//EN"
 "http://www.w3.org/Graphics/SVG/1.1/DTD/svg11.dtd">
<!-- Generated by graphviz version 2.40.1 (0)
 -->
<!-- Title: G Pages: 1 -->
<svg width="1909pt" height="609pt"
 viewBox="0.00 0.00 1908.71 608.63" xmlns="http://www.w3.org/2000/svg" xmlns:xlink="http://www.w3.org/1999/xlink">
<g id="graph0" class="graph" transform="scale(1 1) rotate(0) translate(4 604.6294)">
<title>G</title>
<polygon fill="#ffffff" stroke="transparent" points="-4,4 -4,-604.6294 1904.708,-604.6294 1904.708,4 -4,4"/>
<!-- STATE_A -->
<g id="node1" class="node">
<title>STATE_A</title>
<polygon fill="none" stroke="#000000" points="331.4168,-304.6787 333.1928,-304.7773 334.9505,-304.9247 336.6827,-305.1207 338.3823,-305.3647 340.0425,-305.656 341.6568,-305.9939 343.2188,-306.3773 344.7228,-306.8053 346.163,-307.2766 347.5343,-307.79 348.8319,-308.3441 350.0514,-308.9374 351.1891,-309.5682 352.2416,-310.2348 353.2059,-310.9353 354.0797,-311.6679 354.8611,-312.4306 355.5488,-313.2212 356.1418,-314.0376 356.6397,-314.8775 357.0428,-315.7387 357.3514,-316.6188 357.5667,-317.5154 357.69,-318.4259 357.7232,-319.348 357.6684,-320.2791 357.5282,-321.2166 357.3053,-322.158 357.0029,-323.1007 356.6242,-324.0421 356.1728,-324.9797 355.6524,-325.9108 355.0666,-326.8329 354.4195,-327.7434 353.7149,-328.64 352.9568,-329.5201 352.149,-330.3813 351.2955,-331.2212 350.4001,-332.0376 349.4665,-332.8282 348.4982,-333.5909 347.4986,-334.3235 346.4711,-335.024 345.4186,-335.6906 344.3441,-336.3214 343.2503,-336.9147 342.1396,-337.4688 341.0143,-337.9822 339.8765,-338.4535 338.7281,-338.8815 337.5708,-339.2649 336.406,-339.6028 335.2351,-339.8941 334.0593,-340.1381 332.8797,-340.3341 331.6972,-340.4815 330.5128,-340.5801 329.3272,-340.6294 328.1412,-340.6294 326.9556,-340.5801 325.7712,-340.4815 324.5887,-340.3341 323.4091,-340.1381 322.2334,-339.8941 321.0625,-339.6028 319.8977,-339.2649 318.7403,-338.8815 317.5919,-338.4535 316.4541,-337.9822 315.3288,-337.4688 314.2182,-336.9147 313.1243,-336.3214 312.0498,-335.6906 310.9974,-335.024 309.9698,-334.3235 308.9703,-333.5909 308.002,-332.8282 307.0683,-332.0376 306.1729,-331.2212 305.3194,-330.3813 304.5117,-329.5201 303.7535,-328.64 303.0489,-327.7434 302.4018,-326.8329 301.8161,-325.9108 301.2956,-324.9797 300.8442,-324.0421 300.4656,-323.1007 300.1631,-322.158 299.9403,-321.2166 299.8,-320.2791 299.7453,-319.348 299.7784,-318.4259 299.9018,-317.5154 300.117,-316.6188 300.4257,-315.7387 300.8287,-314.8775 301.3267,-314.0376 301.9197,-313.2212 302.6073,-312.4306 303.3887,-311.6679 304.2625,-310.9353 305.2268,-310.2348 306.2793,-309.5682 307.417,-308.9374 308.6366,-308.3441 309.9342,-307.79 311.3055,-307.2766 312.7457,-306.8053 314.2496,-306.3773 315.8117,-305.9939 317.426,-305.656 319.0862,-305.3647 320.7858,-305.1207 322.5179,-304.9247 324.2756,-304.7773 326.0517,-304.6787 327.8388,-304.6294 329.6296,-304.6294 331.4168,-304.6787"/>
<text text-anchor="middle" x="328.7342" y="-320.1294" font-family="Courier,monospace" font-weight="bold" font-size="10.00" fill="#000000">A</text>
</g>
<!-- STATE_B -->
<g id="node2" class="node">
<title>STATE_B</title>
<polygon fill="none" stroke="#000000" points="633.1602,-129.6787 634.9363,-129.7773 636.694,-129.9247 638.4261,-130.1207 640.1257,-130.3647 641.7859,-130.656 643.4002,-130.9939 644.9623,-131.3773 646.4662,-131.8053 647.9064,-132.2766 649.2777,-132.79 650.5753,-133.3441 651.7949,-133.9374 652.9326,-134.5682 653.9851,-135.2348 654.9494,-135.9353 655.8232,-136.6679 656.6046,-137.4306 657.2922,-138.2212 657.8852,-139.0376 658.3832,-139.8775 658.7862,-140.7387 659.0949,-141.6188 659.3101,-142.5154 659.4334,-143.4259 659.4666,-144.348 659.4118,-145.2791 659.2716,-146.2166 659.0487,-147.158 658.7463,-148.1007 658.3677,-149.0421 657.9163,-149.9797 657.3958,-150.9108 656.8101,-151.8329 656.1629,-152.7434 655.4583,-153.64 654.7002,-154.5201 653.8925,-155.3813 653.039,-156.2212 652.1436,-157.0376 651.2099,-157.8282 650.2416,-158.5909 649.242,-159.3235 648.2145,-160.024 647.162,-160.6906 646.0876,-161.3214 644.9937,-161.9147 643.883,-162.4688 642.7578,-162.9822 641.62,-163.4535 640.4716,-163.8815 639.3142,-164.2649 638.1494,-164.6028 636.9785,-164.8941 635.8027,-165.1381 634.6231,-165.3341 633.4407,-165.4815 632.2562,-165.5801 631.0707,-165.6294 629.8847,-165.6294 628.6991,-165.5801 627.5146,-165.4815 626.3322,-165.3341 625.1526,-165.1381 623.9768,-164.8941 622.8059,-164.6028 621.6411,-164.2649 620.4838,-163.8815 619.3353,-163.4535 618.1976,-162.9822 617.0723,-162.4688 615.9616,-161.9147 614.8678,-161.3214 613.7933,-160.6906 612.7408,-160.024 611.7133,-159.3235 610.7137,-158.5909 609.7454,-157.8282 608.8118,-157.0376 607.9164,-156.2212 607.0629,-155.3813 606.2551,-154.5201 605.497,-153.64 604.7924,-152.7434 604.1452,-151.8329 603.5595,-150.9108 603.0391,-149.9797 602.5877,-149.0421 602.209,-148.1007 601.9066,-147.158 601.6837,-146.2166 601.5435,-145.2791 601.4887,-144.348 601.5219,-143.4259 601.6452,-142.5154 601.8605,-141.6188 602.1691,-140.7387 602.5722,-139.8775 603.0701,-139.0376 603.6631,-138.2212 604.3507,-137.4306 605.1321,-136.6679 606.006,-135.9353 606.9703,-135.2348 608.0227,-134.5682 609.1604,-133.9374 610.38,-133.3441 611.6776,-132.79 613.0489,-132.2766 614.4891,-131.8053 615.993,-131.3773 617.5551,-130.9939 619.1694,-130.656 620.8296,-130.3647 622.5292,-130.1207 624.2614,-129.9247 626.0191,-129.7773 627.7951,-129.6787 629.5823,-129.6294 631.3731,-129.6294 633.1602,-129.6787"/>
<text text-anchor="middle" x="630.4777" y="-145.1294" font-family="Courier,monospace" font-weight="bold" font-size="10.00" fill="#000000">B</text>
</g>
<!-- STATE_A&#45;&gt;STATE_B -->
<g id="edge1" class="edge">
<title>STATE_A&#45;&gt;STATE_B</title>
<path fill="none" stroke="#000000" d="M337.4252,-305.2167C351.8926,-278.0853 383.5454,-226.0024 425.7342,-198.6294 477.1193,-165.2897 548.7288,-153.7448 592.2197,-149.747"/>
<polygon fill="#000000" stroke="#000000" points="592.7006,-153.2192 602.3769,-148.9041 592.1216,-146.2432 592.7006,-153.2192"/>
<text text-anchor="middle" x="504.7342" y="-201.6294" font-family="Courier,monospace" font-weight="bold" font-size="10.00" fill="#000000">0.1667166516711653</text>
</g>
<!-- STATE_E -->
<g id="node5" class="node">
<title>STATE_E</title>
<polygon fill="none" stroke="#000000" points="1583.9036,-315.6787 1585.6797,-315.7773 1587.4374,-315.9247 1589.1696,-316.1207 1590.8691,-316.3647 1592.5294,-316.656 1594.1436,-316.9939 1595.7057,-317.3773 1597.2097,-317.8053 1598.6499,-318.2766 1600.0211,-318.79 1601.3187,-319.3441 1602.5383,-319.9374 1603.676,-320.5682 1604.7285,-321.2348 1605.6928,-321.9353 1606.5666,-322.6679 1607.348,-323.4306 1608.0357,-324.2212 1608.6287,-325.0376 1609.1266,-325.8775 1609.5296,-326.7387 1609.8383,-327.6188 1610.0536,-328.5154 1610.1769,-329.4259 1610.2101,-330.348 1610.1553,-331.2791 1610.0151,-332.2166 1609.7922,-333.158 1609.4898,-334.1007 1609.1111,-335.0421 1608.6597,-335.9797 1608.1393,-336.9108 1607.5535,-337.8329 1606.9064,-338.7434 1606.2018,-339.64 1605.4436,-340.5201 1604.6359,-341.3813 1603.7824,-342.2212 1602.887,-343.0376 1601.9534,-343.8282 1600.985,-344.5909 1599.9855,-345.3235 1598.9579,-346.024 1597.9055,-346.6906 1596.831,-347.3214 1595.7372,-347.9147 1594.6265,-348.4688 1593.5012,-348.9822 1592.3634,-349.4535 1591.215,-349.8815 1590.0577,-350.2649 1588.8929,-350.6028 1587.722,-350.8941 1586.5462,-351.1381 1585.3666,-351.3341 1584.1841,-351.4815 1582.9997,-351.5801 1581.8141,-351.6294 1580.6281,-351.6294 1579.4425,-351.5801 1578.2581,-351.4815 1577.0756,-351.3341 1575.896,-351.1381 1574.7203,-350.8941 1573.5494,-350.6028 1572.3846,-350.2649 1571.2272,-349.8815 1570.0788,-349.4535 1568.941,-348.9822 1567.8157,-348.4688 1566.705,-347.9147 1565.6112,-347.3214 1564.5367,-346.6906 1563.4843,-346.024 1562.4567,-345.3235 1561.4572,-344.5909 1560.4889,-343.8282 1559.5552,-343.0376 1558.6598,-342.2212 1557.8063,-341.3813 1556.9986,-340.5201 1556.2404,-339.64 1555.5358,-338.7434 1554.8887,-337.8329 1554.303,-336.9108 1553.7825,-335.9797 1553.3311,-335.0421 1552.9524,-334.1007 1552.65,-333.158 1552.4272,-332.2166 1552.2869,-331.2791 1552.2321,-330.348 1552.2653,-329.4259 1552.3886,-328.5154 1552.6039,-327.6188 1552.9126,-326.7387 1553.3156,-325.8775 1553.8136,-325.0376 1554.4066,-324.2212 1555.0942,-323.4306 1555.8756,-322.6679 1556.7494,-321.9353 1557.7137,-321.2348 1558.7662,-320.5682 1559.9039,-319.9374 1561.1235,-319.3441 1562.4211,-318.79 1563.7923,-318.2766 1565.2326,-317.8053 1566.7365,-317.3773 1568.2986,-316.9939 1569.9129,-316.656 1571.5731,-316.3647 1573.2727,-316.1207 1575.0048,-315.9247 1576.7625,-315.7773 1578.5386,-315.6787 1580.3257,-315.6294 1582.1165,-315.6294 1583.9036,-315.6787"/>
<text text-anchor="middle" x="1581.2211" y="-331.1294" font-family="Courier,monospace" font-weight="bold" font-size="10.00" fill="#000000">E</text>
</g>
<!-- STATE_A&#45;&gt;STATE_E -->
<g id="edge2" class="edge">
<title>STATE_A&#45;&gt;STATE_E</title>
<path fill="none" stroke="#000000" d="M355.7299,-326.0727C408.4454,-332.489 528.8167,-345.6294 630.4777,-345.6294 630.4777,-345.6294 630.4777,-345.6294 1240.2211,-345.6294 1350.2581,-345.6294 1480.1446,-339.3114 1543.1409,-335.8441"/>
<polygon fill="#000000" stroke="#000000" points="1543.5962,-339.3243 1553.3857,-335.2728 1543.2063,-332.3351 1543.5962,-339.3243"/>
<text text-anchor="middle" x="921.2211" y="-348.6294" font-family="Courier,monospace" font-weight="bold" font-size="10.00" fill="#000000">0.8331833783198375</text>
</g>
<!-- STATE_F -->
<g id="node6" class="node">
<title>STATE_F</title>
<polygon fill="none" stroke="#000000" points="1242.9036,-188.6787 1244.6797,-188.7773 1246.4374,-188.9247 1248.1696,-189.1207 1249.8691,-189.3647 1251.5294,-189.656 1253.1436,-189.9939 1254.7057,-190.3773 1256.2097,-190.8053 1257.6499,-191.2766 1259.0211,-191.79 1260.3187,-192.3441 1261.5383,-192.9374 1262.676,-193.5682 1263.7285,-194.2348 1264.6928,-194.9353 1265.5666,-195.6679 1266.348,-196.4306 1267.0357,-197.2212 1267.6287,-198.0376 1268.1266,-198.8775 1268.5296,-199.7387 1268.8383,-200.6188 1269.0536,-201.5154 1269.1769,-202.4259 1269.2101,-203.348 1269.1553,-204.2791 1269.0151,-205.2166 1268.7922,-206.158 1268.4898,-207.1007 1268.1111,-208.0421 1267.6597,-208.9797 1267.1393,-209.9108 1266.5535,-210.8329 1265.9064,-211.7434 1265.2018,-212.64 1264.4436,-213.5201 1263.6359,-214.3813 1262.7824,-215.2212 1261.887,-216.0376 1260.9534,-216.8282 1259.985,-217.5909 1258.9855,-218.3235 1257.9579,-219.024 1256.9055,-219.6906 1255.831,-220.3214 1254.7372,-220.9147 1253.6265,-221.4688 1252.5012,-221.9822 1251.3634,-222.4535 1250.215,-222.8815 1249.0577,-223.2649 1247.8929,-223.6028 1246.722,-223.8941 1245.5462,-224.1381 1244.3666,-224.3341 1243.1841,-224.4815 1241.9997,-224.5801 1240.8141,-224.6294 1239.6281,-224.6294 1238.4425,-224.5801 1237.2581,-224.4815 1236.0756,-224.3341 1234.896,-224.1381 1233.7203,-223.8941 1232.5494,-223.6028 1231.3846,-223.2649 1230.2272,-222.8815 1229.0788,-222.4535 1227.941,-221.9822 1226.8157,-221.4688 1225.705,-220.9147 1224.6112,-220.3214 1223.5367,-219.6906 1222.4843,-219.024 1221.4567,-218.3235 1220.4572,-217.5909 1219.4889,-216.8282 1218.5552,-216.0376 1217.6598,-215.2212 1216.8063,-214.3813 1215.9986,-213.5201 1215.2404,-212.64 1214.5358,-211.7434 1213.8887,-210.8329 1213.303,-209.9108 1212.7825,-208.9797 1212.3311,-208.0421 1211.9524,-207.1007 1211.65,-206.158 1211.4272,-205.2166 1211.2869,-204.2791 1211.2321,-203.348 1211.2653,-202.4259 1211.3886,-201.5154 1211.6039,-200.6188 1211.9126,-199.7387 1212.3156,-198.8775 1212.8136,-198.0376 1213.4066,-197.2212 1214.0942,-196.4306 1214.8756,-195.6679 1215.7494,-194.9353 1216.7137,-194.2348 1217.7662,-193.5682 1218.9039,-192.9374 1220.1235,-192.3441 1221.4211,-191.79 1222.7923,-191.2766 1224.2326,-190.8053 1225.7365,-190.3773 1227.2986,-189.9939 1228.9129,-189.656 1230.5731,-189.3647 1232.2727,-189.1207 1234.0048,-188.9247 1235.7625,-188.7773 1237.5386,-188.6787 1239.3257,-188.6294 1241.1165,-188.6294 1242.9036,-188.6787"/>
<text text-anchor="middle" x="1240.2211" y="-204.1294" font-family="Courier,monospace" font-weight="bold" font-size="10.00" fill="#000000">F</text>
</g>
<!-- STATE_A&#45;&gt;STATE_F -->
<g id="edge3" class="edge">
<title>STATE_A&#45;&gt;STATE_F</title>
<path fill="none" stroke="#000000" d="M354.369,-311.8626C373.7509,-303.9651 401.1348,-293.3215 425.7342,-285.6294 535.6065,-251.2731 563.1636,-239.2229 677.2211,-223.6294 882.5159,-195.5623 936.1128,-215.9432 1143.2211,-209.6294 1162.5074,-209.0414 1183.9505,-208.3792 1201.7608,-207.8267"/>
<polygon fill="#000000" stroke="#000000" points="1201.8972,-211.3243 1211.7838,-207.5155 1201.6799,-204.3276 1201.8972,-211.3243"/>
<text text-anchor="middle" x="756.2211" y="-226.6294" font-family="Courier,monospace" font-weight="bold" font-size="10.00" fill="#000000">9.997000899730082e&#45;05</text>
</g>
<!-- SYMBOL_x -->
<g id="node8" class="node">
<title>SYMBOL_x</title>
<polygon fill="none" stroke="#000000" stroke-dasharray="5,2" points="1874.6471,-486.6787 1876.4231,-486.7773 1878.1808,-486.9247 1879.913,-487.1207 1881.6126,-487.3647 1883.2728,-487.656 1884.8871,-487.9939 1886.4492,-488.3773 1887.9531,-488.8053 1889.3933,-489.2766 1890.7646,-489.79 1892.0622,-490.3441 1893.2818,-490.9374 1894.4195,-491.5682 1895.4719,-492.2348 1896.4363,-492.9353 1897.3101,-493.6679 1898.0915,-494.4306 1898.7791,-495.2212 1899.3721,-496.0376 1899.8701,-496.8775 1900.2731,-497.7387 1900.5817,-498.6188 1900.797,-499.5154 1900.9203,-500.4259 1900.9535,-501.348 1900.8987,-502.2791 1900.7585,-503.2166 1900.5356,-504.158 1900.2332,-505.1007 1899.8545,-506.0421 1899.4032,-506.9797 1898.8827,-507.9108 1898.297,-508.8329 1897.6498,-509.7434 1896.9452,-510.64 1896.1871,-511.5201 1895.3793,-512.3813 1894.5259,-513.2212 1893.6305,-514.0376 1892.6968,-514.8282 1891.7285,-515.5909 1890.7289,-516.3235 1889.7014,-517.024 1888.6489,-517.6906 1887.5744,-518.3214 1886.4806,-518.9147 1885.3699,-519.4688 1884.2447,-519.9822 1883.1069,-520.4535 1881.9585,-520.8815 1880.8011,-521.2649 1879.6363,-521.6028 1878.4654,-521.8941 1877.2896,-522.1381 1876.11,-522.3341 1874.9276,-522.4815 1873.7431,-522.5801 1872.5575,-522.6294 1871.3716,-522.6294 1870.186,-522.5801 1869.0015,-522.4815 1867.8191,-522.3341 1866.6395,-522.1381 1865.4637,-521.8941 1864.2928,-521.6028 1863.128,-521.2649 1861.9706,-520.8815 1860.8222,-520.4535 1859.6844,-519.9822 1858.5592,-519.4688 1857.4485,-518.9147 1856.3547,-518.3214 1855.2802,-517.6906 1854.2277,-517.024 1853.2002,-516.3235 1852.2006,-515.5909 1851.2323,-514.8282 1850.2986,-514.0376 1849.4032,-513.2212 1848.5498,-512.3813 1847.742,-511.5201 1846.9839,-510.64 1846.2793,-509.7434 1845.6321,-508.8329 1845.0464,-507.9108 1844.5259,-506.9797 1844.0746,-506.0421 1843.6959,-505.1007 1843.3935,-504.158 1843.1706,-503.2166 1843.0304,-502.2791 1842.9756,-501.348 1843.0088,-500.4259 1843.1321,-499.5154 1843.3474,-498.6188 1843.656,-497.7387 1844.059,-496.8775 1844.557,-496.0376 1845.15,-495.2212 1845.8376,-494.4306 1846.619,-493.6679 1847.4928,-492.9353 1848.4572,-492.2348 1849.5096,-491.5682 1850.6473,-490.9374 1851.8669,-490.3441 1853.1645,-489.79 1854.5358,-489.2766 1855.976,-488.8053 1857.4799,-488.3773 1859.042,-487.9939 1860.6563,-487.656 1862.3165,-487.3647 1864.0161,-487.1207 1865.7483,-486.9247 1867.506,-486.7773 1869.282,-486.6787 1871.0691,-486.6294 1872.86,-486.6294 1874.6471,-486.6787"/>
<text text-anchor="middle" x="1871.9645" y="-502.1294" font-family="Courier,monospace" font-weight="bold" font-size="10.00" fill="#000000">x</text>
</g>
<!-- STATE_A&#45;&gt;SYMBOL_x -->
<g id="edge14" class="edge">
<title>STATE_A&#45;&gt;SYMBOL_x</title>
<path fill="none" stroke="#000000" stroke-dasharray="5,2" d="M334.7298,-340.0067C346.6511,-371.7626 376.5099,-438.9045 425.7342,-471.6294 486.8145,-512.2363 1001.8745,-589.6294 1075.2211,-589.6294 1075.2211,-589.6294 1075.2211,-589.6294 1581.2211,-589.6294 1692.5853,-589.6294 1721.992,-574.4112 1825.2211,-532.6294 1831.9374,-529.911 1838.8191,-526.3128 1845.166,-522.6045"/>
<polygon fill="#000000" stroke="#000000" points="1847.3085,-525.3963 1854.0007,-517.1825 1843.647,-519.4302 1847.3085,-525.3963"/>
<text text-anchor="middle" x="1075.2211" y="-592.6294" font-family="Courier,monospace" font-weight="bold" font-size="10.00" fill="#000000">0.1667166516711653</text>
</g>
<!-- SYMBOL_z -->
<g id="node9" class="node">
<title>SYMBOL_z</title>
<polygon fill="none" stroke="#000000" stroke-dasharray="5,2" points="1874.6471,-272.6787 1876.4231,-272.7773 1878.1808,-272.9247 1879.913,-273.1207 1881.6126,-273.3647 1883.2728,-273.656 1884.8871,-273.9939 1886.4492,-274.3773 1887.9531,-274.8053 1889.3933,-275.2766 1890.7646,-275.79 1892.0622,-276.3441 1893.2818,-276.9374 1894.4195,-277.5682 1895.4719,-278.2348 1896.4363,-278.9353 1897.3101,-279.6679 1898.0915,-280.4306 1898.7791,-281.2212 1899.3721,-282.0376 1899.8701,-282.8775 1900.2731,-283.7387 1900.5817,-284.6188 1900.797,-285.5154 1900.9203,-286.4259 1900.9535,-287.348 1900.8987,-288.2791 1900.7585,-289.2166 1900.5356,-290.158 1900.2332,-291.1007 1899.8545,-292.0421 1899.4032,-292.9797 1898.8827,-293.9108 1898.297,-294.8329 1897.6498,-295.7434 1896.9452,-296.64 1896.1871,-297.5201 1895.3793,-298.3813 1894.5259,-299.2212 1893.6305,-300.0376 1892.6968,-300.8282 1891.7285,-301.5909 1890.7289,-302.3235 1889.7014,-303.024 1888.6489,-303.6906 1887.5744,-304.3214 1886.4806,-304.9147 1885.3699,-305.4688 1884.2447,-305.9822 1883.1069,-306.4535 1881.9585,-306.8815 1880.8011,-307.2649 1879.6363,-307.6028 1878.4654,-307.8941 1877.2896,-308.1381 1876.11,-308.3341 1874.9276,-308.4815 1873.7431,-308.5801 1872.5575,-308.6294 1871.3716,-308.6294 1870.186,-308.5801 1869.0015,-308.4815 1867.8191,-308.3341 1866.6395,-308.1381 1865.4637,-307.8941 1864.2928,-307.6028 1863.128,-307.2649 1861.9706,-306.8815 1860.8222,-306.4535 1859.6844,-305.9822 1858.5592,-305.4688 1857.4485,-304.9147 1856.3547,-304.3214 1855.2802,-303.6906 1854.2277,-303.024 1853.2002,-302.3235 1852.2006,-301.5909 1851.2323,-300.8282 1850.2986,-300.0376 1849.4032,-299.2212 1848.5498,-298.3813 1847.742,-297.5201 1846.9839,-296.64 1846.2793,-295.7434 1845.6321,-294.8329 1845.0464,-293.9108 1844.5259,-292.9797 1844.0746,-292.0421 1843.6959,-291.1007 1843.3935,-290.158 1843.1706,-289.2166 1843.0304,-288.2791 1842.9756,-287.348 1843.0088,-286.4259 1843.1321,-285.5154 1843.3474,-284.6188 1843.656,-283.7387 1844.059,-282.8775 1844.557,-282.0376 1845.15,-281.2212 1845.8376,-280.4306 1846.619,-279.6679 1847.4928,-278.9353 1848.4572,-278.2348 1849.5096,-277.5682 1850.6473,-276.9374 1851.8669,-276.3441 1853.1645,-275.79 1854.5358,-275.2766 1855.976,-274.8053 1857.4799,-274.3773 1859.042,-273.9939 1860.6563,-273.656 1862.3165,-273.3647 1864.0161,-273.1207 1865.7483,-272.9247 1867.506,-272.7773 1869.282,-272.6787 1871.0691,-272.6294 1872.86,-272.6294 1874.6471,-272.6787"/>
<text text-anchor="middle" x="1871.9645" y="-288.1294" font-family="Courier,monospace" font-weight="bold" font-size="10.00" fill="#000000">z</text>
</g>
<!-- STATE_A&#45;&gt;SYMBOL_z -->
<g id="edge15" class="edge">
<title>STATE_A&#45;&gt;SYMBOL_z</title>
<path fill="none" stroke="#000000" stroke-dasharray="5,2" d="M357.6145,-321.9665C477.7061,-319.2168 949.3962,-308.4858 1337.2211,-300.6294 1523.2203,-296.8615 1745.6219,-292.8662 1833.5173,-291.3073"/>
<polygon fill="#000000" stroke="#000000" points="1833.6215,-294.8061 1843.558,-291.1295 1833.4975,-287.8072 1833.6215,-294.8061"/>
<text text-anchor="middle" x="1075.2211" y="-309.6294" font-family="Courier,monospace" font-weight="bold" font-size="10.00" fill="#000000">0.6665666966576693</text>
</g>
<!-- SYMBOL_y -->
<g id="node10" class="node">
<title>SYMBOL_y</title>
<polygon fill="none" stroke="#000000" stroke-dasharray="5,2" points="1874.6471,-100.6787 1876.4231,-100.7773 1878.1808,-100.9247 1879.913,-101.1207 1881.6126,-101.3647 1883.2728,-101.656 1884.8871,-101.9939 1886.4492,-102.3773 1887.9531,-102.8053 1889.3933,-103.2766 1890.7646,-103.79 1892.0622,-104.3441 1893.2818,-104.9374 1894.4195,-105.5682 1895.4719,-106.2348 1896.4363,-106.9353 1897.3101,-107.6679 1898.0915,-108.4306 1898.7791,-109.2212 1899.3721,-110.0376 1899.8701,-110.8775 1900.2731,-111.7387 1900.5817,-112.6188 1900.797,-113.5154 1900.9203,-114.4259 1900.9535,-115.348 1900.8987,-116.2791 1900.7585,-117.2166 1900.5356,-118.158 1900.2332,-119.1007 1899.8545,-120.0421 1899.4032,-120.9797 1898.8827,-121.9108 1898.297,-122.8329 1897.6498,-123.7434 1896.9452,-124.64 1896.1871,-125.5201 1895.3793,-126.3813 1894.5259,-127.2212 1893.6305,-128.0376 1892.6968,-128.8282 1891.7285,-129.5909 1890.7289,-130.3235 1889.7014,-131.024 1888.6489,-131.6906 1887.5744,-132.3214 1886.4806,-132.9147 1885.3699,-133.4688 1884.2447,-133.9822 1883.1069,-134.4535 1881.9585,-134.8815 1880.8011,-135.2649 1879.6363,-135.6028 1878.4654,-135.8941 1877.2896,-136.1381 1876.11,-136.3341 1874.9276,-136.4815 1873.7431,-136.5801 1872.5575,-136.6294 1871.3716,-136.6294 1870.186,-136.5801 1869.0015,-136.4815 1867.8191,-136.3341 1866.6395,-136.1381 1865.4637,-135.8941 1864.2928,-135.6028 1863.128,-135.2649 1861.9706,-134.8815 1860.8222,-134.4535 1859.6844,-133.9822 1858.5592,-133.4688 1857.4485,-132.9147 1856.3547,-132.3214 1855.2802,-131.6906 1854.2277,-131.024 1853.2002,-130.3235 1852.2006,-129.5909 1851.2323,-128.8282 1850.2986,-128.0376 1849.4032,-127.2212 1848.5498,-126.3813 1847.742,-125.5201 1846.9839,-124.64 1846.2793,-123.7434 1845.6321,-122.8329 1845.0464,-121.9108 1844.5259,-120.9797 1844.0746,-120.0421 1843.6959,-119.1007 1843.3935,-118.158 1843.1706,-117.2166 1843.0304,-116.2791 1842.9756,-115.348 1843.0088,-114.4259 1843.1321,-113.5154 1843.3474,-112.6188 1843.656,-111.7387 1844.059,-110.8775 1844.557,-110.0376 1845.15,-109.2212 1845.8376,-108.4306 1846.619,-107.6679 1847.4928,-106.9353 1848.4572,-106.2348 1849.5096,-105.5682 1850.6473,-104.9374 1851.8669,-104.3441 1853.1645,-103.79 1854.5358,-103.2766 1855.976,-102.8053 1857.4799,-102.3773 1859.042,-101.9939 1860.6563,-101.656 1862.3165,-101.3647 1864.0161,-101.1207 1865.7483,-100.9247 1867.506,-100.7773 1869.282,-100.6787 1871.0691,-100.6294 1872.86,-100.6294 1874.6471,-100.6787"/>
<text text-anchor="middle" x="1871.9645" y="-116.1294" font-family="Courier,monospace" font-weight="bold" font-size="10.00" fill="#000000">y</text>
</g>
<!-- STATE_A&#45;&gt;SYMBOL_y -->
<g id="edge16" class="edge">
<title>STATE_A&#45;&gt;SYMBOL_y</title>
<path fill="none" stroke="#000000" stroke-dasharray="5,2" d="M344.5075,-306.5809C362.4364,-287.448 391.3337,-253.7534 407.7342,-219.6294 422.2095,-189.5112 406.9614,-174.274 425.7342,-146.6294 488.5216,-54.1698 518.7144,-.6294 630.4777,-.6294 630.4777,-.6294 630.4777,-.6294 1581.2211,-.6294 1692.0091,-.6294 1732.7852,9.4409 1825.2211,-51.6294 1840.1703,-61.506 1851.7481,-77.9503 1859.6416,-92.0753"/>
<polygon fill="#000000" stroke="#000000" points="1856.5449,-93.7064 1864.2952,-100.9302 1862.7413,-90.4499 1856.5449,-93.7064"/>
<text text-anchor="middle" x="1075.2211" y="-3.6294" font-family="Courier,monospace" font-weight="bold" font-size="10.00" fill="#000000">0.1667166516711653</text>
</g>
<!-- STATE_C -->
<g id="node3" class="node">
<title>STATE_C</title>
<polygon fill="none" stroke="#000000" points="923.9036,-159.6787 925.6797,-159.7773 927.4374,-159.9247 929.1696,-160.1207 930.8691,-160.3647 932.5294,-160.656 934.1436,-160.9939 935.7057,-161.3773 937.2097,-161.8053 938.6499,-162.2766 940.0211,-162.79 941.3187,-163.3441 942.5383,-163.9374 943.676,-164.5682 944.7285,-165.2348 945.6928,-165.9353 946.5666,-166.6679 947.348,-167.4306 948.0357,-168.2212 948.6287,-169.0376 949.1266,-169.8775 949.5296,-170.7387 949.8383,-171.6188 950.0536,-172.5154 950.1769,-173.4259 950.2101,-174.348 950.1553,-175.2791 950.0151,-176.2166 949.7922,-177.158 949.4898,-178.1007 949.1111,-179.0421 948.6597,-179.9797 948.1393,-180.9108 947.5535,-181.8329 946.9064,-182.7434 946.2018,-183.64 945.4436,-184.5201 944.6359,-185.3813 943.7824,-186.2212 942.887,-187.0376 941.9534,-187.8282 940.985,-188.5909 939.9855,-189.3235 938.9579,-190.024 937.9055,-190.6906 936.831,-191.3214 935.7372,-191.9147 934.6265,-192.4688 933.5012,-192.9822 932.3634,-193.4535 931.215,-193.8815 930.0577,-194.2649 928.8929,-194.6028 927.722,-194.8941 926.5462,-195.1381 925.3666,-195.3341 924.1841,-195.4815 922.9997,-195.5801 921.8141,-195.6294 920.6281,-195.6294 919.4425,-195.5801 918.2581,-195.4815 917.0756,-195.3341 915.896,-195.1381 914.7203,-194.8941 913.5494,-194.6028 912.3846,-194.2649 911.2272,-193.8815 910.0788,-193.4535 908.941,-192.9822 907.8157,-192.4688 906.705,-191.9147 905.6112,-191.3214 904.5367,-190.6906 903.4843,-190.024 902.4567,-189.3235 901.4572,-188.5909 900.4889,-187.8282 899.5552,-187.0376 898.6598,-186.2212 897.8063,-185.3813 896.9986,-184.5201 896.2404,-183.64 895.5358,-182.7434 894.8887,-181.8329 894.303,-180.9108 893.7825,-179.9797 893.3311,-179.0421 892.9524,-178.1007 892.65,-177.158 892.4272,-176.2166 892.2869,-175.2791 892.2321,-174.348 892.2653,-173.4259 892.3886,-172.5154 892.6039,-171.6188 892.9126,-170.7387 893.3156,-169.8775 893.8136,-169.0376 894.4066,-168.2212 895.0942,-167.4306 895.8756,-166.6679 896.7494,-165.9353 897.7137,-165.2348 898.7662,-164.5682 899.9039,-163.9374 901.1235,-163.3441 902.4211,-162.79 903.7923,-162.2766 905.2326,-161.8053 906.7365,-161.3773 908.2986,-160.9939 909.9129,-160.656 911.5731,-160.3647 913.2727,-160.1207 915.0048,-159.9247 916.7625,-159.7773 918.5386,-159.6787 920.3257,-159.6294 922.1165,-159.6294 923.9036,-159.6787"/>
<text text-anchor="middle" x="921.2211" y="-175.1294" font-family="Courier,monospace" font-weight="bold" font-size="10.00" fill="#000000">C</text>
</g>
<!-- STATE_B&#45;&gt;STATE_C -->
<g id="edge4" class="edge">
<title>STATE_B&#45;&gt;STATE_C</title>
<path fill="none" stroke="#000000" d="M657.8301,-150.4517C709.7047,-155.8043 822.5242,-167.4455 882.278,-173.6111"/>
<polygon fill="#000000" stroke="#000000" points="882.136,-177.115 892.4425,-174.6599 882.8546,-170.1519 882.136,-177.115"/>
<text text-anchor="middle" x="756.2211" y="-170.6294" font-family="Courier,monospace" font-weight="bold" font-size="10.00" fill="#000000">9.998000399920017e&#45;05</text>
</g>
<!-- STATE_D -->
<g id="node4" class="node">
<title>STATE_D</title>
<polygon fill="none" stroke="#000000" points="1077.9036,-452.6787 1079.6797,-452.7773 1081.4374,-452.9247 1083.1696,-453.1207 1084.8691,-453.3647 1086.5294,-453.656 1088.1436,-453.9939 1089.7057,-454.3773 1091.2097,-454.8053 1092.6499,-455.2766 1094.0211,-455.79 1095.3187,-456.3441 1096.5383,-456.9374 1097.676,-457.5682 1098.7285,-458.2348 1099.6928,-458.9353 1100.5666,-459.6679 1101.348,-460.4306 1102.0357,-461.2212 1102.6287,-462.0376 1103.1266,-462.8775 1103.5296,-463.7387 1103.8383,-464.6188 1104.0536,-465.5154 1104.1769,-466.4259 1104.2101,-467.348 1104.1553,-468.2791 1104.0151,-469.2166 1103.7922,-470.158 1103.4898,-471.1007 1103.1111,-472.0421 1102.6597,-472.9797 1102.1393,-473.9108 1101.5535,-474.8329 1100.9064,-475.7434 1100.2018,-476.64 1099.4436,-477.5201 1098.6359,-478.3813 1097.7824,-479.2212 1096.887,-480.0376 1095.9534,-480.8282 1094.985,-481.5909 1093.9855,-482.3235 1092.9579,-483.024 1091.9055,-483.6906 1090.831,-484.3214 1089.7372,-484.9147 1088.6265,-485.4688 1087.5012,-485.9822 1086.3634,-486.4535 1085.215,-486.8815 1084.0577,-487.2649 1082.8929,-487.6028 1081.722,-487.8941 1080.5462,-488.1381 1079.3666,-488.3341 1078.1841,-488.4815 1076.9997,-488.5801 1075.8141,-488.6294 1074.6281,-488.6294 1073.4425,-488.5801 1072.2581,-488.4815 1071.0756,-488.3341 1069.896,-488.1381 1068.7203,-487.8941 1067.5494,-487.6028 1066.3846,-487.2649 1065.2272,-486.8815 1064.0788,-486.4535 1062.941,-485.9822 1061.8157,-485.4688 1060.705,-484.9147 1059.6112,-484.3214 1058.5367,-483.6906 1057.4843,-483.024 1056.4567,-482.3235 1055.4572,-481.5909 1054.4889,-480.8282 1053.5552,-480.0376 1052.6598,-479.2212 1051.8063,-478.3813 1050.9986,-477.5201 1050.2404,-476.64 1049.5358,-475.7434 1048.8887,-474.8329 1048.303,-473.9108 1047.7825,-472.9797 1047.3311,-472.0421 1046.9524,-471.1007 1046.65,-470.158 1046.4272,-469.2166 1046.2869,-468.2791 1046.2321,-467.348 1046.2653,-466.4259 1046.3886,-465.5154 1046.6039,-464.6188 1046.9126,-463.7387 1047.3156,-462.8775 1047.8136,-462.0376 1048.4066,-461.2212 1049.0942,-460.4306 1049.8756,-459.6679 1050.7494,-458.9353 1051.7137,-458.2348 1052.7662,-457.5682 1053.9039,-456.9374 1055.1235,-456.3441 1056.4211,-455.79 1057.7923,-455.2766 1059.2326,-454.8053 1060.7365,-454.3773 1062.2986,-453.9939 1063.9129,-453.656 1065.5731,-453.3647 1067.2727,-453.1207 1069.0048,-452.9247 1070.7625,-452.7773 1072.5386,-452.6787 1074.3257,-452.6294 1076.1165,-452.6294 1077.9036,-452.6787"/>
<text text-anchor="middle" x="1075.2211" y="-468.1294" font-family="Courier,monospace" font-weight="bold" font-size="10.00" fill="#000000">D</text>
</g>
<!-- STATE_B&#45;&gt;STATE_D -->
<g id="edge5" class="edge">
<title>STATE_B&#45;&gt;STATE_D</title>
<path fill="none" stroke="#000000" d="M634.9247,-165.4672C641.0008,-186.1248 653.9028,-219.7292 677.2211,-238.6294 788.8722,-329.126 875.1316,-236.2269 989.2211,-323.6294 1029.4234,-354.4278 1054.3276,-409.8185 1066.408,-443.1068"/>
<polygon fill="#000000" stroke="#000000" points="1063.1482,-444.3883 1069.7482,-452.6763 1069.7572,-442.0815 1063.1482,-444.3883"/>
<text text-anchor="middle" x="756.2211" y="-284.6294" font-family="Courier,monospace" font-weight="bold" font-size="10.00" fill="#000000">0.9999000199960009</text>
</g>
<!-- STATE_B&#45;&gt;SYMBOL_x -->
<g id="edge17" class="edge">
<title>STATE_B&#45;&gt;SYMBOL_x</title>
<path fill="none" stroke="#000000" stroke-dasharray="5,2" d="M634.007,-165.4521C641.3039,-200.6801 658.9062,-277.4754 677.2211,-296.6294 734.7436,-356.7872 773.9708,-335.1894 853.2211,-360.6294 912.9773,-379.8116 946.9451,-352.2451 989.2211,-398.6294 1019.3462,-431.682 973.5013,-468.2529 1007.2211,-497.6294 1117.8531,-594.0114 1520.4979,-515.5179 1667.2211,-516.6294 1737.4413,-517.1613 1755.5525,-525.4294 1825.2211,-516.6294 1829.4292,-516.0979 1833.8009,-515.3073 1838.107,-514.3809"/>
<polygon fill="#000000" stroke="#000000" points="1839.0167,-517.7621 1847.9276,-512.0308 1837.3876,-510.9543 1839.0167,-517.7621"/>
<text text-anchor="middle" x="1240.2211" y="-548.6294" font-family="Courier,monospace" font-weight="bold" font-size="10.00" fill="#000000">9.997000899730082e&#45;05</text>
</g>
<!-- STATE_B&#45;&gt;SYMBOL_z -->
<g id="edge18" class="edge">
<title>STATE_B&#45;&gt;SYMBOL_z</title>
<path fill="none" stroke="#000000" stroke-dasharray="5,2" d="M658.449,-139.3418C664.5824,-137.8361 671.0792,-136.4762 677.2211,-135.6294 814.5996,-116.6887 850.5693,-128.9294 989.2211,-131.6294 1082.2932,-133.4418 1748.9235,-133.2968 1825.2211,-186.6294 1850.0955,-204.0168 1861.9412,-237.8783 1867.4421,-262.246"/>
<polygon fill="#000000" stroke="#000000" points="1864.0741,-263.2495 1869.489,-272.3561 1870.9349,-261.8604 1864.0741,-263.2495"/>
<text text-anchor="middle" x="1240.2211" y="-139.6294" font-family="Courier,monospace" font-weight="bold" font-size="10.00" fill="#000000">9.997000899730082e&#45;05</text>
</g>
<!-- STATE_B&#45;&gt;SYMBOL_y -->
<g id="edge19" class="edge">
<title>STATE_B&#45;&gt;SYMBOL_y</title>
<path fill="none" stroke="#000000" stroke-dasharray="5,2" d="M636.0831,-129.5657C642.7556,-111.3724 655.7784,-84.1215 677.2211,-70.6294 769.4505,-12.5973 812.2533,-46.6294 921.2211,-46.6294 921.2211,-46.6294 921.2211,-46.6294 1581.2211,-46.6294 1675.9473,-46.6294 1783.0777,-83.0854 1836.9964,-104.1153"/>
<polygon fill="#000000" stroke="#000000" points="1835.8437,-107.4232 1846.4299,-107.8503 1838.4206,-100.9148 1835.8437,-107.4232"/>
<text text-anchor="middle" x="1240.2211" y="-49.6294" font-family="Courier,monospace" font-weight="bold" font-size="10.00" fill="#000000">0.9998000599820054</text>
</g>
<!-- STATE_C&#45;&gt;STATE_F -->
<g id="edge6" class="edge">
<title>STATE_C&#45;&gt;STATE_F</title>
<path fill="none" stroke="#000000" d="M948.695,-180.127C1005.3859,-185.2807 1135.4921,-197.1086 1201.0076,-203.0645"/>
<polygon fill="#000000" stroke="#000000" points="1201.0492,-206.5827 1211.3251,-204.0025 1201.6831,-199.6114 1201.0492,-206.5827"/>
<text text-anchor="middle" x="1075.2211" y="-199.6294" font-family="Courier,monospace" font-weight="bold" font-size="10.00" fill="#000000">1.0</text>
</g>
<!-- STATE_D&#45;&gt;STATE_A -->
<g id="edge7" class="edge">
<title>STATE_D&#45;&gt;STATE_A</title>
<path fill="none" stroke="#000000" d="M1047.2533,-472.4178C937.4837,-478.9849 536.7136,-498.5904 425.7342,-442.6294 385.7624,-422.4737 356.6428,-377.4989 341.2398,-348.6959"/>
<polygon fill="#000000" stroke="#000000" points="344.2445,-346.8863 336.5461,-339.6072 338.0249,-350.0983 344.2445,-346.8863"/>
<text text-anchor="middle" x="630.4777" y="-481.6294" font-family="Courier,monospace" font-weight="bold" font-size="10.00" fill="#000000">1.0</text>
</g>
<!-- STATE_D&#45;&gt;SYMBOL_x -->
<g id="edge20" class="edge">
<title>STATE_D&#45;&gt;SYMBOL_x</title>
<path fill="none" stroke="#000000" stroke-dasharray="5,2" d="M1101.8964,-474.3025C1118.8517,-476.4955 1141.2855,-479.1363 1161.2211,-480.6294 1417.1368,-499.7966 1726.043,-503.6605 1833.1685,-504.4359"/>
<polygon fill="#000000" stroke="#000000" points="1833.4579,-507.9378 1843.4813,-504.5053 1833.5052,-500.938 1833.4579,-507.9378"/>
<text text-anchor="middle" x="1416.2211" y="-499.6294" font-family="Courier,monospace" font-weight="bold" font-size="10.00" fill="#000000">0.9998000599820054</text>
</g>
<!-- STATE_D&#45;&gt;SYMBOL_z -->
<g id="edge21" class="edge">
<title>STATE_D&#45;&gt;SYMBOL_z</title>
<path fill="none" stroke="#000000" stroke-dasharray="5,2" d="M1102.7197,-472.8708C1170.8731,-477.5619 1352.4069,-484.7549 1495.2211,-442.6294 1503.9989,-440.0402 1504.7559,-436.1069 1513.2211,-432.6294 1571.2732,-408.7817 1588.9489,-412.123 1649.2211,-394.6294 1727.6754,-371.8586 1756.0379,-385.0721 1825.2211,-341.6294 1836.3922,-334.6146 1846.5815,-324.232 1854.5753,-314.6623"/>
<polygon fill="#000000" stroke="#000000" points="1857.5262,-316.5745 1861.0045,-306.5669 1852.0445,-312.2211 1857.5262,-316.5745"/>
<text text-anchor="middle" x="1416.2211" y="-473.6294" font-family="Courier,monospace" font-weight="bold" font-size="10.00" fill="#000000">9.997000899730082e&#45;05</text>
</g>
<!-- STATE_D&#45;&gt;SYMBOL_y -->
<g id="edge22" class="edge">
<title>STATE_D&#45;&gt;SYMBOL_y</title>
<path fill="none" stroke="#000000" stroke-dasharray="5,2" d="M1104.2535,-465.567C1152.5347,-457.2151 1252.4148,-440.2216 1337.2211,-427.6294 1407.2927,-417.2251 1428.9241,-431.589 1495.2211,-406.6294 1504.2193,-403.2417 1504.4282,-398.5191 1513.2211,-394.6294 1570.1997,-369.4238 1604.1532,-403.6499 1649.2211,-360.6294 1669.3597,-341.4057 1647.6261,-320.4068 1667.2211,-300.6294 1718.9674,-248.4015 1772.2743,-302.6398 1825.2211,-251.6294 1854.1051,-223.8018 1865.164,-177.101 1869.3828,-147.093"/>
<polygon fill="#000000" stroke="#000000" points="1872.8946,-147.2124 1870.648,-136.8585 1865.9475,-146.3536 1872.8946,-147.2124"/>
<text text-anchor="middle" x="1416.2211" y="-430.6294" font-family="Courier,monospace" font-weight="bold" font-size="10.00" fill="#000000">9.997000899730082e&#45;05</text>
</g>
<!-- STATE_E&#45;&gt;STATE_A -->
<g id="edge8" class="edge">
<title>STATE_E&#45;&gt;STATE_A</title>
<path fill="none" stroke="#000000" d="M1557.0174,-340.9914C1539.9276,-345.8304 1516.393,-351.7763 1495.2211,-354.6294 1417.6683,-365.0802 1397.4652,-358.3996 1319.2211,-359.6294 1000.3771,-364.6407 920.5283,-366.1742 601.7342,-358.6294 523.4885,-356.7776 502.9129,-365.6404 425.7342,-352.6294 403.6332,-348.9036 379.5578,-341.4782 360.9212,-334.9474"/>
<polygon fill="#000000" stroke="#000000" points="362.0374,-331.6294 351.4429,-331.5395 359.669,-338.2166 362.0374,-331.6294"/>
<text text-anchor="middle" x="921.2211" y="-366.6294" font-family="Courier,monospace" font-weight="bold" font-size="10.00" fill="#000000">1.0</text>
</g>
<!-- STATE_E&#45;&gt;SYMBOL_x -->
<g id="edge23" class="edge">
<title>STATE_E&#45;&gt;SYMBOL_x</title>
<path fill="none" stroke="#000000" stroke-dasharray="5,2" d="M1605.4235,-340.5472C1651.7111,-354.6308 1754.4623,-390.0801 1825.2211,-445.6294 1837.0163,-454.8892 1847.629,-467.7021 1855.7494,-479.0223"/>
<polygon fill="#000000" stroke="#000000" points="1852.8979,-481.0526 1861.4517,-487.3044 1858.6635,-477.083 1852.8979,-481.0526"/>
<text text-anchor="middle" x="1746.2211" y="-448.6294" font-family="Courier,monospace" font-weight="bold" font-size="10.00" fill="#000000">9.997000899730082e&#45;05</text>
</g>
<!-- STATE_E&#45;&gt;SYMBOL_z -->
<g id="edge24" class="edge">
<title>STATE_E&#45;&gt;SYMBOL_z</title>
<path fill="none" stroke="#000000" stroke-dasharray="5,2" d="M1610.0287,-331.8233C1655.9394,-328.5837 1748.3661,-320.5812 1825.2211,-304.6294 1829.6328,-303.7137 1834.229,-302.5742 1838.7426,-301.3434"/>
<polygon fill="#000000" stroke="#000000" points="1839.7538,-304.6945 1848.3882,-298.5546 1837.8095,-297.9699 1839.7538,-304.6945"/>
<text text-anchor="middle" x="1746.2211" y="-329.6294" font-family="Courier,monospace" font-weight="bold" font-size="10.00" fill="#000000">0.9998000599820054</text>
</g>
<!-- STATE_E&#45;&gt;SYMBOL_y -->
<g id="edge25" class="edge">
<title>STATE_E&#45;&gt;SYMBOL_y</title>
<path fill="none" stroke="#000000" stroke-dasharray="5,2" d="M1594.2623,-316.8134C1610.1146,-297.0613 1638.3444,-264.0253 1667.2211,-240.6294 1724.19,-194.4732 1800.3882,-153.7622 1841.9012,-133.0722"/>
<polygon fill="#000000" stroke="#000000" points="1843.527,-136.1729 1850.9453,-128.6086 1840.4289,-129.8958 1843.527,-136.1729"/>
<text text-anchor="middle" x="1746.2211" y="-243.6294" font-family="Courier,monospace" font-weight="bold" font-size="10.00" fill="#000000">9.997000899730082e&#45;05</text>
</g>
<!-- STATE_F&#45;&gt;STATE_B -->
<g id="edge9" class="edge">
<title>STATE_F&#45;&gt;STATE_B</title>
<path fill="none" stroke="#000000" d="M1213.2078,-196.9151C1167.7198,-181.1286 1072.6222,-150.5691 989.2211,-139.6294 929.29,-131.7683 913.6558,-138.5445 853.2211,-139.6294 788.7488,-140.7868 713.8302,-143.8272 669.3835,-145.8087"/>
<polygon fill="#000000" stroke="#000000" points="669.1346,-142.3163 659.3024,-146.2634 669.45,-149.3092 669.1346,-142.3163"/>
<text text-anchor="middle" x="921.2211" y="-142.6294" font-family="Courier,monospace" font-weight="bold" font-size="10.00" fill="#000000">0.5</text>
</g>
<!-- STATE_F&#45;&gt;STATE_E -->
<g id="edge10" class="edge">
<title>STATE_F&#45;&gt;STATE_E</title>
<path fill="none" stroke="#000000" d="M1263.1246,-215.1594C1321.1949,-236.7868 1474.5552,-293.9034 1544.9567,-320.1233"/>
<polygon fill="#000000" stroke="#000000" points="1544.1279,-323.5494 1554.7206,-323.7597 1546.571,-316.9896 1544.1279,-323.5494"/>
<text text-anchor="middle" x="1416.2211" y="-301.6294" font-family="Courier,monospace" font-weight="bold" font-size="10.00" fill="#000000">0.5</text>
</g>
<!-- STATE_F&#45;&gt;SYMBOL_x -->
<g id="edge26" class="edge">
<title>STATE_F&#45;&gt;SYMBOL_x</title>
<path fill="none" stroke="#000000" stroke-dasharray="5,2" d="M1251.3663,-222.7528C1267.849,-245.5929 1300.736,-287.4917 1337.2211,-313.6294 1467.1627,-406.7186 1515.0165,-407.8014 1667.2211,-456.6294 1735.6175,-478.5713 1755.6508,-472.7554 1825.2211,-490.6294 1828.2415,-491.4054 1831.3599,-492.2477 1834.4855,-493.1212"/>
<polygon fill="#000000" stroke="#000000" points="1833.8045,-496.5674 1844.3827,-495.9746 1835.7436,-489.8413 1833.8045,-496.5674"/>
<text text-anchor="middle" x="1581.2211" y="-452.6294" font-family="Courier,monospace" font-weight="bold" font-size="10.00" fill="#000000">0.3333333333333333</text>
</g>
<!-- STATE_F&#45;&gt;SYMBOL_z -->
<g id="edge27" class="edge">
<title>STATE_F&#45;&gt;SYMBOL_z</title>
<path fill="none" stroke="#000000" stroke-dasharray="5,2" d="M1269.0077,-203.9028C1373.0166,-194.5677 1728.3121,-167.3121 1825.2211,-220.6294 1842.0795,-229.9046 1853.9619,-248.1569 1861.527,-263.698"/>
<polygon fill="#000000" stroke="#000000" points="1858.384,-265.2424 1865.6854,-272.9197 1864.7652,-262.3649 1858.384,-265.2424"/>
<text text-anchor="middle" x="1581.2211" y="-192.6294" font-family="Courier,monospace" font-weight="bold" font-size="10.00" fill="#000000">0.3333333333333333</text>
</g>
<!-- STATE_F&#45;&gt;SYMBOL_y -->
<g id="edge28" class="edge">
<title>STATE_F&#45;&gt;SYMBOL_y</title>
<path fill="none" stroke="#000000" stroke-dasharray="5,2" d="M1268.9532,-199.7094C1288.1891,-195.2496 1314.1213,-189.5691 1337.2211,-185.6294 1522.8983,-153.9622 1747.2374,-130.667 1834.6065,-122.1599"/>
<polygon fill="#000000" stroke="#000000" points="1834.9539,-125.6427 1844.5704,-121.1962 1834.2799,-118.6752 1834.9539,-125.6427"/>
<text text-anchor="middle" x="1581.2211" y="-161.6294" font-family="Courier,monospace" font-weight="bold" font-size="10.00" fill="#000000">0.3333333333333333</text>
</g>
<!-- STATE_SOURCE -->
<g id="node7" class="node">
<title>STATE_SOURCE</title>
<polygon fill="none" stroke="#000000" points="42.4515,-304.6787 44.8246,-304.7773 47.1732,-304.9247 49.4877,-305.1207 51.7587,-305.3647 53.9771,-305.656 56.134,-305.9939 58.2213,-306.3773 60.2308,-306.8053 62.1552,-307.2766 63.9875,-307.79 65.7213,-308.3441 67.3509,-308.9374 68.8711,-309.5682 70.2774,-310.2348 71.5659,-310.9353 72.7335,-311.6679 73.7776,-312.4306 74.6964,-313.2212 75.4887,-314.0376 76.1541,-314.8775 76.6926,-315.7387 77.105,-316.6188 77.3927,-317.5154 77.5574,-318.4259 77.6018,-319.348 77.5286,-320.2791 77.3412,-321.2166 77.0434,-322.158 76.6393,-323.1007 76.1334,-324.0421 75.5302,-324.9797 74.8348,-325.9108 74.0521,-326.8329 73.1874,-327.7434 72.246,-328.64 71.2329,-329.5201 70.1536,-330.3813 69.0132,-331.2212 67.8168,-332.0376 66.5693,-332.8282 65.2754,-333.5909 63.9398,-334.3235 62.5668,-335.024 61.1606,-335.6906 59.7248,-336.3214 58.2633,-336.9147 56.7792,-337.4688 55.2756,-337.9822 53.7553,-338.4535 52.2208,-338.8815 50.6744,-339.2649 49.118,-339.6028 47.5535,-339.8941 45.9824,-340.1381 44.4062,-340.3341 42.8263,-340.4815 41.2436,-340.5801 39.6595,-340.6294 38.0748,-340.6294 36.4906,-340.5801 34.908,-340.4815 33.328,-340.3341 31.7518,-340.1381 30.1808,-339.8941 28.6162,-339.6028 27.0598,-339.2649 25.5134,-338.8815 23.9789,-338.4535 22.4586,-337.9822 20.955,-337.4688 19.4709,-336.9147 18.0094,-336.3214 16.5737,-335.6906 15.1674,-335.024 13.7944,-334.3235 12.4588,-333.5909 11.1649,-332.8282 9.9174,-332.0376 8.721,-331.2212 7.5806,-330.3813 6.5013,-329.5201 5.4883,-328.64 4.5468,-327.7434 3.6821,-326.8329 2.8994,-325.9108 2.204,-324.9797 1.6009,-324.0421 1.0949,-323.1007 .6908,-322.158 .393,-321.2166 .2056,-320.2791 .1324,-319.348 .1768,-318.4259 .3416,-317.5154 .6292,-316.6188 1.0416,-315.7387 1.5801,-314.8775 2.2455,-314.0376 3.0379,-313.2212 3.9567,-312.4306 5.0008,-311.6679 6.1683,-310.9353 7.4568,-310.2348 8.8631,-309.5682 10.3833,-308.9374 12.0129,-308.3441 13.7467,-307.79 15.579,-307.2766 17.5034,-306.8053 19.513,-306.3773 21.6002,-305.9939 23.7572,-305.656 25.9755,-305.3647 28.2465,-305.1207 30.561,-304.9247 32.9096,-304.7773 35.2827,-304.6787 37.6707,-304.6294 40.0635,-304.6294 42.4515,-304.6787"/>
<text text-anchor="middle" x="38.8671" y="-320.1294" font-family="Courier,monospace" font-weight="bold" font-size="10.00" fill="#000000">SOURCE</text>
</g>
<!-- STATE_SOURCE&#45;&gt;STATE_A -->
<g id="edge11" class="edge">
<title>STATE_SOURCE&#45;&gt;STATE_A</title>
<path fill="none" stroke="#000000" d="M77.0602,-322.6294C132.3751,-322.6294 234.2372,-322.6294 289.9059,-322.6294"/>
<polygon fill="#000000" stroke="#000000" points="290.0689,-326.1295 300.0689,-322.6294 290.0688,-319.1295 290.0689,-326.1295"/>
<text text-anchor="middle" x="163.7342" y="-325.6294" font-family="Courier,monospace" font-weight="bold" font-size="10.00" fill="#000000">0.9998000599820054</text>
</g>
<!-- STATE_SOURCE&#45;&gt;STATE_B -->
<g id="edge12" class="edge">
<title>STATE_SOURCE&#45;&gt;STATE_B</title>
<path fill="none" stroke="#000000" d="M62.9231,-307.2024C121.8578,-270.4381 279.3443,-178.3636 425.7342,-146.6294 482.419,-134.3413 550.0234,-138.1241 591.5983,-142.4832"/>
<polygon fill="#000000" stroke="#000000" points="591.2591,-145.967 601.5849,-143.5944 592.0333,-139.0099 591.2591,-145.967"/>
<text text-anchor="middle" x="328.7342" y="-207.6294" font-family="Courier,monospace" font-weight="bold" font-size="10.00" fill="#000000">9.997000899730082e&#45;05</text>
</g>
<!-- STATE_SOURCE&#45;&gt;STATE_D -->
<g id="edge13" class="edge">
<title>STATE_SOURCE&#45;&gt;STATE_D</title>
<path fill="none" stroke="#000000" d="M49.092,-339.8416C82.1755,-393.0982 192.1294,-551.6294 328.7342,-551.6294 328.7342,-551.6294 328.7342,-551.6294 756.2211,-551.6294 864.5662,-551.6294 987.4199,-507.1917 1043.8501,-484.1449"/>
<polygon fill="#000000" stroke="#000000" points="1045.3794,-487.2999 1053.2786,-480.2392 1042.7004,-480.8328 1045.3794,-487.2999"/>
<text text-anchor="middle" x="504.7342" y="-554.6294" font-family="Courier,monospace" font-weight="bold" font-size="10.00" fill="#000000">9.997000899730082e&#45;05</text>
</g>
</g>
</svg>
