<?xml version="1.0" encoding="UTF-8" standalone="no"?>
<!DOCTYPE svg PUBLIC "-//W3C//DTD SVG 1.1//EN"
 "http://www.w3.org/Graphics/SVG/1.1/DTD/svg11.dtd">
<!-- Generated by graphviz version 2.40.1 (0)
 -->
<!-- Title: G Pages: 1 -->
<svg width="528pt" height="98pt"
 viewBox="0.00 0.00 528.20 97.80" xmlns="http://www.w3.org/2000/svg" xmlns:xlink="http://www.w3.org/1999/xlink">
<g id="graph0" class="graph" transform="scale(1 1) rotate(0) translate(4 93.8)">
<title>G</title>
<polygon fill="#ffffff" stroke="transparent" points="-4,4 -4,-93.8 524.2,-93.8 524.2,4 -4,4"/>
<!-- N0 -->
<g id="node1" class="node">
<title>N0</title>
<ellipse fill="#000000" stroke="#000000" cx="1.8" cy="-44.8" rx="1.8" ry="1.8"/>
</g>
<!-- N1 -->
<g id="node2" class="node">
<title>N1</title>
<ellipse fill="#000000" stroke="#000000" cx="49.4" cy="-61.8" rx="1.8" ry="1.8"/>
</g>
<!-- N0&#45;&gt;N1 -->
<g id="edge1" class="edge">
<title>N0&#45;&gt;N1</title>
<path fill="none" stroke="#000000" d="M3.8453,-45.5305C9.5953,-47.584 26.2316,-53.5256 37.7234,-57.6298"/>
<polygon fill="#000000" stroke="#000000" points="36.8207,-61.0238 47.4153,-61.0912 39.1751,-54.4316 36.8207,-61.0238"/>
<text text-anchor="middle" x="25.6" y="-56.8" font-family="Courier,monospace" font-weight="bold" font-size="10.00" fill="#000000">r</text>
</g>
<!-- N8 -->
<g id="node19" class="node">
<title>N8</title>
<ellipse fill="#000000" stroke="#000000" cx="137.6" cy="-36.8" rx="1.8" ry="1.8"/>
</g>
<!-- N0&#45;&gt;N8 -->
<g id="edge17" class="edge">
<title>N0&#45;&gt;N8</title>
<path fill="none" stroke="#000000" d="M3.7197,-44.6869C16.9151,-43.9096 94.5758,-39.3346 125.1966,-37.5307"/>
<polygon fill="#000000" stroke="#000000" points="125.778,-41.0026 135.5549,-36.9205 125.3663,-34.0147 125.778,-41.0026"/>
<text text-anchor="middle" x="73.2" y="-43.8" font-family="Courier,monospace" font-weight="bold" font-size="10.00" fill="#000000">a</text>
</g>
<!-- N2 -->
<g id="node13" class="node">
<title>N2</title>
<ellipse fill="#000000" stroke="#000000" cx="97" cy="-62.8" rx="1.8" ry="1.8"/>
</g>
<!-- N1&#45;&gt;N2 -->
<g id="edge2" class="edge">
<title>N1&#45;&gt;N2</title>
<path fill="none" stroke="#000000" d="M51.4453,-61.843C57.1341,-61.9625 73.4789,-62.3059 84.9549,-62.547"/>
<polygon fill="#000000" stroke="#000000" points="84.9439,-66.0474 95.0153,-62.7583 85.091,-59.0489 84.9439,-66.0474"/>
<text text-anchor="middle" x="73.2" y="-64.8" font-family="Courier,monospace" font-weight="bold" font-size="10.00" fill="#000000">a</text>
</g>
<!-- N10 -->
<g id="node3" class="node">
<title>N10</title>
<ellipse fill="#000000" stroke="#000000" cx="232.8" cy="-36.8" rx="1.8" ry="1.8"/>
</g>
<!-- N11 -->
<g id="node4" class="node">
<title>N11</title>
<ellipse fill="#000000" stroke="#000000" cx="280.4" cy="-36.8" rx="1.8" ry="1.8"/>
</g>
<!-- N10&#45;&gt;N11 -->
<g id="edge3" class="edge">
<title>N10&#45;&gt;N11</title>
<path fill="none" stroke="#000000" d="M234.8453,-36.8C240.5341,-36.8 256.8789,-36.8 268.3549,-36.8"/>
<polygon fill="#000000" stroke="#000000" points="268.4153,-40.3001 278.4153,-36.8 268.4153,-33.3001 268.4153,-40.3001"/>
<text text-anchor="middle" x="256.6" y="-39.8" font-family="Courier,monospace" font-weight="bold" font-size="10.00" fill="#000000">t</text>
</g>
<!-- N12 -->
<g id="node5" class="node">
<title>N12</title>
<ellipse fill="#000000" stroke="#000000" cx="328" cy="-27.8" rx="1.8" ry="1.8"/>
</g>
<!-- N11&#45;&gt;N12 -->
<g id="edge4" class="edge">
<title>N11&#45;&gt;N12</title>
<path fill="none" stroke="#000000" d="M282.1884,-35.8282C285.5815,-34.0418 293.238,-30.2837 300.2,-28.8 305.2187,-27.7305 310.8602,-27.3765 315.7431,-27.3283"/>
<polygon fill="#000000" stroke="#000000" points="315.8471,-30.8329 325.9473,-27.6336 316.0565,-23.836 315.8471,-30.8329"/>
<text text-anchor="middle" x="304.2" y="-31.8" font-family="Courier,monospace" font-weight="bold" font-size="10.00" fill="#000000">r</text>
</g>
<!-- N3 -->
<g id="node14" class="node">
<title>N3</title>
<ellipse fill="#000000" stroke="#000000" cx="328" cy="-73.8" rx="1.8" ry="1.8"/>
</g>
<!-- N11&#45;&gt;N3 -->
<g id="edge21" class="edge">
<title>N11&#45;&gt;N3</title>
<path fill="none" stroke="#ff0000" stroke-dasharray="5,2" d="M281.9837,-38.0311C287.5733,-42.3759 306.6728,-57.2221 318.4363,-66.366"/>
<polygon fill="#ff0000" stroke="#ff0000" points="316.3182,-69.1526 326.3615,-72.5264 320.6142,-63.6259 316.3182,-69.1526"/>
</g>
<!-- N13 -->
<g id="node6" class="node">
<title>N13</title>
<ellipse fill="#000000" stroke="#000000" cx="375.6" cy="-35.8" rx="1.8" ry="1.8"/>
</g>
<!-- N12&#45;&gt;N13 -->
<g id="edge5" class="edge">
<title>N12&#45;&gt;N13</title>
<path fill="none" stroke="#000000" d="M330.0453,-28.1438C335.7341,-29.0998 352.0789,-31.8469 363.5549,-33.7756"/>
<polygon fill="#000000" stroke="#000000" points="363.1735,-37.2605 373.6153,-35.4664 364.3337,-30.3573 363.1735,-37.2605"/>
<text text-anchor="middle" x="351.8" y="-35.8" font-family="Courier,monospace" font-weight="bold" font-size="10.00" fill="#000000">i</text>
</g>
<!-- N17 -->
<g id="node10" class="node">
<title>N17</title>
<ellipse fill="#000000" stroke="#000000" cx="375.6" cy="-1.8" rx="1.8" ry="1.8"/>
</g>
<!-- N12&#45;&gt;N17 -->
<g id="edge9" class="edge">
<title>N12&#45;&gt;N17</title>
<path fill="none" stroke="#000000" d="M329.852,-26.7611C333.3513,-24.8005 341.1776,-20.426 347.8,-16.8 353.4731,-13.6938 359.8193,-10.266 365.0144,-7.4722"/>
<polygon fill="#000000" stroke="#000000" points="366.6805,-10.5503 373.8396,-2.7402 363.3726,-4.3812 366.6805,-10.5503"/>
<text text-anchor="middle" x="351.8" y="-19.8" font-family="Courier,monospace" font-weight="bold" font-size="10.00" fill="#000000">o</text>
</g>
<!-- N14 -->
<g id="node7" class="node">
<title>N14</title>
<ellipse fill="#000000" stroke="#000000" cx="423.2" cy="-35.8" rx="1.8" ry="1.8"/>
</g>
<!-- N13&#45;&gt;N14 -->
<g id="edge6" class="edge">
<title>N13&#45;&gt;N14</title>
<path fill="none" stroke="#000000" d="M377.6453,-35.8C383.3341,-35.8 399.6789,-35.8 411.1549,-35.8"/>
<polygon fill="#000000" stroke="#000000" points="411.2153,-39.3001 421.2153,-35.8 411.2153,-32.3001 411.2153,-39.3001"/>
<text text-anchor="middle" x="399.4" y="-38.8" font-family="Courier,monospace" font-weight="bold" font-size="10.00" fill="#000000">u</text>
</g>
<!-- N15 -->
<g id="node8" class="node">
<title>N15</title>
<ellipse fill="#000000" stroke="#000000" cx="470.8" cy="-35.8" rx="1.8" ry="1.8"/>
</g>
<!-- N14&#45;&gt;N15 -->
<g id="edge7" class="edge">
<title>N14&#45;&gt;N15</title>
<path fill="none" stroke="#000000" d="M425.2453,-35.8C430.9341,-35.8 447.2789,-35.8 458.7549,-35.8"/>
<polygon fill="#000000" stroke="#000000" points="458.8153,-39.3001 468.8153,-35.8 458.8153,-32.3001 458.8153,-39.3001"/>
<text text-anchor="middle" x="447" y="-38.8" font-family="Courier,monospace" font-weight="bold" font-size="10.00" fill="#000000">m</text>
</g>
<!-- N16 -->
<g id="node9" class="node">
<title>N16</title>
<ellipse fill="#000000" stroke="#000000" cx="518.4" cy="-35.8" rx="1.8" ry="1.8"/>
</g>
<!-- N15&#45;&gt;N16 -->
<g id="edge8" class="edge">
<title>N15&#45;&gt;N16</title>
<path fill="none" stroke="#000000" d="M472.8453,-35.8C478.5341,-35.8 494.8789,-35.8 506.3549,-35.8"/>
<polygon fill="#000000" stroke="#000000" points="506.4153,-39.3001 516.4153,-35.8 506.4153,-32.3001 506.4153,-39.3001"/>
<text text-anchor="middle" x="494.6" y="-38.8" font-family="Courier,monospace" font-weight="bold" font-size="10.00" fill="#000000">¶</text>
</g>
<!-- N18 -->
<g id="node11" class="node">
<title>N18</title>
<ellipse fill="#000000" stroke="#000000" cx="423.2" cy="-1.8" rx="1.8" ry="1.8"/>
</g>
<!-- N17&#45;&gt;N18 -->
<g id="edge10" class="edge">
<title>N17&#45;&gt;N18</title>
<path fill="none" stroke="#000000" d="M377.6453,-1.8C383.3341,-1.8 399.6789,-1.8 411.1549,-1.8"/>
<polygon fill="#000000" stroke="#000000" points="411.2153,-5.3001 421.2153,-1.8 411.2153,1.6999 411.2153,-5.3001"/>
<text text-anchor="middle" x="399.4" y="-4.8" font-family="Courier,monospace" font-weight="bold" font-size="10.00" fill="#000000">n</text>
</g>
<!-- N19 -->
<g id="node12" class="node">
<title>N19</title>
<ellipse fill="#000000" stroke="#000000" cx="470.8" cy="-1.8" rx="1.8" ry="1.8"/>
</g>
<!-- N18&#45;&gt;N19 -->
<g id="edge11" class="edge">
<title>N18&#45;&gt;N19</title>
<path fill="none" stroke="#000000" d="M425.2453,-1.8C430.9341,-1.8 447.2789,-1.8 458.7549,-1.8"/>
<polygon fill="#000000" stroke="#000000" points="458.8153,-5.3001 468.8153,-1.8 458.8153,1.6999 458.8153,-5.3001"/>
<text text-anchor="middle" x="447" y="-4.8" font-family="Courier,monospace" font-weight="bold" font-size="10.00" fill="#000000">¶</text>
</g>
<!-- N2&#45;&gt;N3 -->
<g id="edge12" class="edge">
<title>N2&#45;&gt;N3</title>
<path fill="none" stroke="#000000" d="M98.4653,-63.8498C103.5823,-67.4094 121.2354,-78.8 137.6,-78.8 137.6,-78.8 137.6,-78.8 280.4,-78.8 292.5992,-78.8 306.4612,-77.1556 316.0667,-75.7528"/>
<polygon fill="#000000" stroke="#000000" points="316.8723,-79.1684 326.1914,-74.1281 315.7631,-72.2568 316.8723,-79.1684"/>
<text text-anchor="middle" x="209" y="-81.8" font-family="Courier,monospace" font-weight="bold" font-size="10.00" fill="#000000">t</text>
</g>
<!-- N2&#45;&gt;N8 -->
<g id="edge20" class="edge">
<title>N2&#45;&gt;N8</title>
<path fill="none" stroke="#ff0000" stroke-dasharray="5,2" d="M98.7445,-61.6828C103.5967,-58.5755 117.5379,-49.6477 127.3262,-43.3793"/>
<polygon fill="#ff0000" stroke="#ff0000" points="129.3735,-46.2245 135.9072,-37.8841 125.5984,-40.3296 129.3735,-46.2245"/>
</g>
<!-- N4 -->
<g id="node15" class="node">
<title>N4</title>
<ellipse fill="#000000" stroke="#000000" cx="375.6" cy="-73.8" rx="1.8" ry="1.8"/>
</g>
<!-- N3&#45;&gt;N4 -->
<g id="edge13" class="edge">
<title>N3&#45;&gt;N4</title>
<path fill="none" stroke="#000000" d="M330.0453,-73.8C335.7341,-73.8 352.0789,-73.8 363.5549,-73.8"/>
<polygon fill="#000000" stroke="#000000" points="363.6153,-77.3001 373.6153,-73.8 363.6153,-70.3001 363.6153,-77.3001"/>
<text text-anchor="middle" x="351.8" y="-76.8" font-family="Courier,monospace" font-weight="bold" font-size="10.00" fill="#000000">i</text>
</g>
<!-- N5 -->
<g id="node16" class="node">
<title>N5</title>
<ellipse fill="#000000" stroke="#000000" cx="423.2" cy="-73.8" rx="1.8" ry="1.8"/>
</g>
<!-- N4&#45;&gt;N5 -->
<g id="edge14" class="edge">
<title>N4&#45;&gt;N5</title>
<path fill="none" stroke="#000000" d="M377.6453,-73.8C383.3341,-73.8 399.6789,-73.8 411.1549,-73.8"/>
<polygon fill="#000000" stroke="#000000" points="411.2153,-77.3001 421.2153,-73.8 411.2153,-70.3001 411.2153,-77.3001"/>
<text text-anchor="middle" x="399.4" y="-76.8" font-family="Courier,monospace" font-weight="bold" font-size="10.00" fill="#000000">o</text>
</g>
<!-- N6 -->
<g id="node17" class="node">
<title>N6</title>
<ellipse fill="#000000" stroke="#000000" cx="470.8" cy="-73.8" rx="1.8" ry="1.8"/>
</g>
<!-- N5&#45;&gt;N6 -->
<g id="edge15" class="edge">
<title>N5&#45;&gt;N6</title>
<path fill="none" stroke="#000000" d="M425.2453,-73.8C430.9341,-73.8 447.2789,-73.8 458.7549,-73.8"/>
<polygon fill="#000000" stroke="#000000" points="458.8153,-77.3001 468.8153,-73.8 458.8153,-70.3001 458.8153,-77.3001"/>
<text text-anchor="middle" x="447" y="-76.8" font-family="Courier,monospace" font-weight="bold" font-size="10.00" fill="#000000">n</text>
</g>
<!-- N7 -->
<g id="node18" class="node">
<title>N7</title>
<ellipse fill="#000000" stroke="#000000" cx="518.4" cy="-73.8" rx="1.8" ry="1.8"/>
</g>
<!-- N6&#45;&gt;N7 -->
<g id="edge16" class="edge">
<title>N6&#45;&gt;N7</title>
<path fill="none" stroke="#000000" d="M472.8453,-73.8C478.5341,-73.8 494.8789,-73.8 506.3549,-73.8"/>
<polygon fill="#000000" stroke="#000000" points="506.4153,-77.3001 516.4153,-73.8 506.4153,-70.3001 506.4153,-77.3001"/>
<text text-anchor="middle" x="494.6" y="-76.8" font-family="Courier,monospace" font-weight="bold" font-size="10.00" fill="#000000">¶</text>
</g>
<!-- N9 -->
<g id="node20" class="node">
<title>N9</title>
<ellipse fill="#000000" stroke="#000000" cx="185.2" cy="-36.8" rx="1.8" ry="1.8"/>
</g>
<!-- N8&#45;&gt;N9 -->
<g id="edge18" class="edge">
<title>N8&#45;&gt;N9</title>
<path fill="none" stroke="#000000" d="M139.6453,-36.8C145.3341,-36.8 161.6789,-36.8 173.1549,-36.8"/>
<polygon fill="#000000" stroke="#000000" points="173.2153,-40.3001 183.2153,-36.8 173.2153,-33.3001 173.2153,-40.3001"/>
<text text-anchor="middle" x="161.4" y="-39.8" font-family="Courier,monospace" font-weight="bold" font-size="10.00" fill="#000000">r</text>
</g>
<!-- N9&#45;&gt;N10 -->
<g id="edge19" class="edge">
<title>N9&#45;&gt;N10</title>
<path fill="none" stroke="#000000" d="M187.2453,-36.8C192.9341,-36.8 209.2789,-36.8 220.7549,-36.8"/>
<polygon fill="#000000" stroke="#000000" points="220.8153,-40.3001 230.8153,-36.8 220.8153,-33.3001 220.8153,-40.3001"/>
<text text-anchor="middle" x="209" y="-39.8" font-family="Courier,monospace" font-weight="bold" font-size="10.00" fill="#000000">a</text>
</g>
</g>
</svg>
