<?xml version="1.0" encoding="UTF-8" standalone="no"?>
<!DOCTYPE svg PUBLIC "-//W3C//DTD SVG 1.1//EN"
 "http://www.w3.org/Graphics/SVG/1.1/DTD/svg11.dtd">
<!-- Generated by graphviz version 2.40.1 (0)
 -->
<!-- Title: G Pages: 1 -->
<svg width="309pt" height="107pt"
 viewBox="0.00 0.00 309.00 107.00" xmlns="http://www.w3.org/2000/svg" xmlns:xlink="http://www.w3.org/1999/xlink">
<g id="graph0" class="graph" transform="scale(1 1) rotate(0) translate(4 103)">
<title>G</title>
<polygon fill="#ffffff" stroke="transparent" points="-4,4 -4,-103 305,-103 305,4 -4,4"/>
<!-- N1 -->
<g id="node1" class="node">
<title>N1</title>
<ellipse fill="none" stroke="#000000" cx="102.5" cy="-31.5" rx="14.5" ry="14.5"/>
<text text-anchor="middle" x="102.5" y="-29" font-family="Courier,monospace" font-weight="bold" font-size="10.00" fill="#000000">N1</text>
</g>
<!-- N2 -->
<g id="node2" class="node">
<title>N2</title>
<ellipse fill="none" stroke="#000000" cx="198.5" cy="-61.5" rx="14.5" ry="14.5"/>
<text text-anchor="middle" x="198.5" y="-59" font-family="Courier,monospace" font-weight="bold" font-size="10.00" fill="#000000">N2</text>
</g>
<!-- N1&#45;&#45;N2 -->
<g id="edge3" class="edge">
<title>N1&#45;&#45;N2</title>
<path fill="none" stroke="#000000" d="M116.6651,-35.9266C134.9198,-41.6312 166.4584,-51.487 184.5889,-57.1528"/>
<text text-anchor="middle" x="150.5" y="-53.5" font-family="Courier,monospace" font-weight="bold" font-size="10.00" fill="#000000">4.0</text>
</g>
<!-- v2 -->
<g id="node4" class="node">
<title>v2</title>
<ellipse fill="none" stroke="#000000" cx="198.5" cy="-14.5" rx="14.5" ry="14.5"/>
<text text-anchor="middle" x="198.5" y="-12" font-family="Courier,monospace" font-weight="bold" font-size="10.00" fill="#000000">v2</text>
</g>
<!-- N1&#45;&#45;v2 -->
<g id="edge2" class="edge">
<title>N1&#45;&#45;v2</title>
<path fill="none" stroke="#000000" d="M116.2675,-26.6337C121.9969,-24.7743 128.7567,-22.7925 135,-21.5 151.617,-18.0598 171.0532,-16.2314 184.0034,-15.3169"/>
<text text-anchor="middle" x="150.5" y="-24.5" font-family="Courier,monospace" font-weight="bold" font-size="10.00" fill="#000000">10.0</text>
</g>
<!-- v3 -->
<g id="node5" class="node">
<title>v3</title>
<ellipse fill="none" stroke="#000000" cx="286.5" cy="-84.5" rx="14.5" ry="14.5"/>
<text text-anchor="middle" x="286.5" y="-82" font-family="Courier,monospace" font-weight="bold" font-size="10.00" fill="#000000">v3</text>
</g>
<!-- N2&#45;&#45;v3 -->
<g id="edge4" class="edge">
<title>N2&#45;&#45;v3</title>
<path fill="none" stroke="#000000" d="M212.6387,-65.1953C229.0605,-69.4874 255.9896,-76.5257 272.3964,-80.8138"/>
<text text-anchor="middle" x="242.5" y="-78.5" font-family="Courier,monospace" font-weight="bold" font-size="10.00" fill="#000000">6.0</text>
</g>
<!-- v5 -->
<g id="node6" class="node">
<title>v5</title>
<ellipse fill="none" stroke="#000000" cx="286.5" cy="-37.5" rx="14.5" ry="14.5"/>
<text text-anchor="middle" x="286.5" y="-35" font-family="Courier,monospace" font-weight="bold" font-size="10.00" fill="#000000">v5</text>
</g>
<!-- N2&#45;&#45;v5 -->
<g id="edge5" class="edge">
<title>N2&#45;&#45;v5</title>
<path fill="none" stroke="#000000" d="M212.6387,-57.644C229.0605,-53.1653 255.9896,-45.821 272.3964,-41.3464"/>
<text text-anchor="middle" x="242.5" y="-54.5" font-family="Courier,monospace" font-weight="bold" font-size="10.00" fill="#000000">7.0</text>
</g>
<!-- v1 -->
<g id="node3" class="node">
<title>v1</title>
<ellipse fill="none" stroke="#000000" cx="14.5" cy="-31.5" rx="14.5" ry="14.5"/>
<text text-anchor="middle" x="14.5" y="-29" font-family="Courier,monospace" font-weight="bold" font-size="10.00" fill="#000000">v1</text>
</g>
<!-- v1&#45;&#45;N1 -->
<g id="edge1" class="edge">
<title>v1&#45;&#45;N1</title>
<path fill="none" stroke="#000000" d="M29.0314,-31.5C45.3364,-31.5 71.6332,-31.5 87.947,-31.5"/>
<text text-anchor="middle" x="58.5" y="-34.5" font-family="Courier,monospace" font-weight="bold" font-size="10.00" fill="#000000">2.0</text>
</g>
</g>
</svg>
