<?xml version="1.0" encoding="UTF-8" standalone="no"?>
<!DOCTYPE svg PUBLIC "-//W3C//DTD SVG 1.1//EN"
 "http://www.w3.org/Graphics/SVG/1.1/DTD/svg11.dtd">
<!-- Generated by graphviz version 2.40.1 (0)
 -->
<!-- Title: %3 Pages: 1 -->
<svg width="165pt" height="305pt"
 viewBox="0.00 0.00 165.00 305.00" xmlns="http://www.w3.org/2000/svg" xmlns:xlink="http://www.w3.org/1999/xlink">
<g id="graph0" class="graph" transform="scale(1 1) rotate(0) translate(4 301)">
<title>%3</title>
<polygon fill="#ffffff" stroke="transparent" points="-4,4 -4,-301 161,-301 161,4 -4,4"/>
<!-- E -->
<g id="node1" class="node">
<title>E</title>
<text text-anchor="middle" x="35.5" y="-14.3" font-family="Times,serif" font-size="14.00" fill="#000000">E (4.0)</text>
</g>
<!-- A -->
<g id="node2" class="node">
<title>A</title>
<text text-anchor="middle" x="70.5" y="-275.3" font-family="Times,serif" font-size="14.00" fill="#000000">A (0.0)</text>
</g>
<!-- B -->
<g id="node4" class="node">
<title>B</title>
<text text-anchor="middle" x="34.5" y="-188.3" font-family="Times,serif" font-size="14.00" fill="#000000">B (1.0)</text>
</g>
<!-- A&#45;&gt;B -->
<g id="edge1" class="edge">
<title>A&#45;&gt;B</title>
<path fill="none" stroke="#0000ff" d="M63.0408,-260.9735C58.069,-248.9585 51.4407,-232.9401 45.8233,-219.3646"/>
<polygon fill="#0000ff" stroke="#0000ff" points="49.0073,-217.9053 41.9497,-210.0034 42.5392,-220.5818 49.0073,-217.9053"/>
<text text-anchor="middle" x="67" y="-231.8" font-family="Times,serif" font-size="14.00" fill="#000000">1.0</text>
</g>
<!-- C -->
<g id="node5" class="node">
<title>C</title>
<text text-anchor="middle" x="78.5" y="-101.3" font-family="Times,serif" font-size="14.00" fill="#000000">C (3.0)</text>
</g>
<!-- A&#45;&gt;C -->
<g id="edge2" class="edge">
<title>A&#45;&gt;C</title>
<path fill="none" stroke="#0000ff" d="M77.6003,-260.9431C79.5305,-255.2842 81.392,-248.9589 82.5,-243 90.7939,-198.3964 91.4504,-186.0973 86.5,-141 86.2188,-138.4384 85.8283,-135.7924 85.3697,-133.1518"/>
<polygon fill="#0000ff" stroke="#0000ff" points="88.7666,-132.2913 83.3517,-123.1847 81.9058,-133.6804 88.7666,-132.2913"/>
<text text-anchor="middle" x="101" y="-188.3" font-family="Times,serif" font-size="14.00" fill="#000000">3.0</text>
</g>
<!-- D -->
<g id="node3" class="node">
<title>D</title>
<text text-anchor="middle" x="122.5" y="-14.3" font-family="Times,serif" font-size="14.00" fill="#000000">D (5.0)</text>
</g>
<!-- B&#45;&gt;C -->
<g id="edge3" class="edge">
<title>B&#45;&gt;C</title>
<path fill="none" stroke="#000000" d="M43.6168,-173.9735C49.7524,-161.8418 57.9522,-145.6287 64.8601,-131.9698"/>
<polygon fill="#000000" stroke="#000000" points="68.005,-133.5066 69.3949,-123.0034 61.7584,-130.3474 68.005,-133.5066"/>
<text text-anchor="middle" x="71" y="-144.8" font-family="Times,serif" font-size="14.00" fill="#000000">1.0</text>
</g>
<!-- C&#45;&gt;E -->
<g id="edge5" class="edge">
<title>C&#45;&gt;E</title>
<path fill="none" stroke="#0000ff" d="M69.5904,-86.9735C63.5942,-74.8418 55.5808,-58.6287 48.8299,-44.9698"/>
<polygon fill="#0000ff" stroke="#0000ff" points="51.9668,-43.4173 44.3982,-36.0034 45.6915,-46.519 51.9668,-43.4173"/>
<text text-anchor="middle" x="72" y="-57.8" font-family="Times,serif" font-size="14.00" fill="#000000">1.0</text>
</g>
<!-- C&#45;&gt;D -->
<g id="edge4" class="edge">
<title>C&#45;&gt;D</title>
<path fill="none" stroke="#0000ff" d="M87.6168,-86.9735C93.7524,-74.8418 101.9522,-58.6287 108.8601,-44.9698"/>
<polygon fill="#0000ff" stroke="#0000ff" points="112.005,-46.5066 113.3949,-36.0034 105.7584,-43.3474 112.005,-46.5066"/>
<text text-anchor="middle" x="114" y="-57.8" font-family="Times,serif" font-size="14.00" fill="#000000">2.0</text>
</g>
</g>
</svg>
