<?xml version="1.0" encoding="UTF-8" standalone="no"?>
<!DOCTYPE svg PUBLIC "-//W3C//DTD SVG 1.1//EN"
 "http://www.w3.org/Graphics/SVG/1.1/DTD/svg11.dtd">
<!-- Generated by graphviz version 2.40.1 (0)
 -->
<!-- Title: G Pages: 1 -->
<svg width="1827pt" height="608pt"
 viewBox="0.00 0.00 1826.71 608.35" xmlns="http://www.w3.org/2000/svg" xmlns:xlink="http://www.w3.org/1999/xlink">
<g id="graph0" class="graph" transform="scale(1 1) rotate(0) translate(4 604.3493)">
<title>G</title>
<polygon fill="#ffffff" stroke="transparent" points="-4,4 -4,-604.3493 1822.708,-604.3493 1822.708,4 -4,4"/>
<!-- STATE_A -->
<g id="node1" class="node">
<title>STATE_A</title>
<polygon fill="none" stroke="#000000" points="330.9168,-304.3987 332.6928,-304.4972 334.4505,-304.6447 336.1827,-304.8407 337.8823,-305.0847 339.5425,-305.376 341.1568,-305.7138 342.7188,-306.0972 344.2228,-306.5252 345.663,-306.9966 347.0343,-307.51 348.3319,-308.0641 349.5514,-308.6573 350.6891,-309.2881 351.7416,-309.9547 352.7059,-310.6553 353.5797,-311.3879 354.3611,-312.1505 355.0488,-312.9411 355.6418,-313.7575 356.1397,-314.5975 356.5428,-315.4587 356.8514,-316.3388 357.0667,-317.2353 357.19,-318.1459 357.2232,-319.068 357.1684,-319.9991 357.0282,-320.9366 356.8053,-321.878 356.5029,-322.8207 356.1242,-323.7621 355.6728,-324.6996 355.1524,-325.6307 354.5666,-326.5528 353.9195,-327.4634 353.2149,-328.3599 352.4568,-329.24 351.649,-330.1012 350.7955,-330.9411 349.9001,-331.7575 348.9665,-332.5481 347.9982,-333.3108 346.9986,-334.0434 345.9711,-334.744 344.9186,-335.4106 343.8441,-336.0413 342.7503,-336.6346 341.6396,-337.1887 340.5143,-337.7021 339.3765,-338.1735 338.2281,-338.6014 337.0708,-338.9849 335.906,-339.3227 334.7351,-339.614 333.5593,-339.858 332.3797,-340.054 331.1972,-340.2015 330.0128,-340.3 328.8272,-340.3493 327.6412,-340.3493 326.4556,-340.3 325.2712,-340.2015 324.0887,-340.054 322.9091,-339.858 321.7334,-339.614 320.5625,-339.3227 319.3977,-338.9849 318.2403,-338.6014 317.0919,-338.1735 315.9541,-337.7021 314.8288,-337.1887 313.7182,-336.6346 312.6243,-336.0413 311.5498,-335.4106 310.4974,-334.744 309.4698,-334.0434 308.4703,-333.3108 307.502,-332.5481 306.5683,-331.7575 305.6729,-330.9411 304.8194,-330.1012 304.0117,-329.24 303.2535,-328.3599 302.5489,-327.4634 301.9018,-326.5528 301.3161,-325.6307 300.7956,-324.6996 300.3442,-323.7621 299.9656,-322.8207 299.6631,-321.878 299.4403,-320.9366 299.3,-319.9991 299.2453,-319.068 299.2784,-318.1459 299.4018,-317.2353 299.617,-316.3388 299.9257,-315.4587 300.3287,-314.5975 300.8267,-313.7575 301.4197,-312.9411 302.1073,-312.1505 302.8887,-311.3879 303.7625,-310.6553 304.7268,-309.9547 305.7793,-309.2881 306.917,-308.6573 308.1366,-308.0641 309.4342,-307.51 310.8055,-306.9966 312.2457,-306.5252 313.7496,-306.0972 315.3117,-305.7138 316.926,-305.376 318.5862,-305.0847 320.2858,-304.8407 322.0179,-304.6447 323.7756,-304.4972 325.5517,-304.3987 327.3388,-304.3493 329.1296,-304.3493 330.9168,-304.3987"/>
<text text-anchor="middle" x="328.2342" y="-319.8493" font-family="Courier,monospace" font-weight="bold" font-size="10.00" fill="#000000">A</text>
</g>
<!-- STATE_B -->
<g id="node2" class="node">
<title>STATE_B</title>
<polygon fill="none" stroke="#000000" points="603.1602,-129.3987 604.9363,-129.4972 606.694,-129.6447 608.4261,-129.8407 610.1257,-130.0847 611.7859,-130.376 613.4002,-130.7138 614.9623,-131.0972 616.4662,-131.5252 617.9064,-131.9966 619.2777,-132.51 620.5753,-133.0641 621.7949,-133.6573 622.9326,-134.2881 623.9851,-134.9547 624.9494,-135.6553 625.8232,-136.3879 626.6046,-137.1505 627.2922,-137.9411 627.8852,-138.7575 628.3832,-139.5975 628.7862,-140.4587 629.0949,-141.3388 629.3101,-142.2353 629.4334,-143.1459 629.4666,-144.068 629.4118,-144.9991 629.2716,-145.9366 629.0487,-146.878 628.7463,-147.8207 628.3677,-148.7621 627.9163,-149.6996 627.3958,-150.6307 626.8101,-151.5528 626.1629,-152.4634 625.4583,-153.3599 624.7002,-154.24 623.8925,-155.1012 623.039,-155.9411 622.1436,-156.7575 621.2099,-157.5481 620.2416,-158.3108 619.242,-159.0434 618.2145,-159.744 617.162,-160.4106 616.0876,-161.0413 614.9937,-161.6346 613.883,-162.1887 612.7578,-162.7021 611.62,-163.1735 610.4716,-163.6014 609.3142,-163.9849 608.1494,-164.3227 606.9785,-164.614 605.8027,-164.858 604.6231,-165.054 603.4407,-165.2015 602.2562,-165.3 601.0707,-165.3493 599.8847,-165.3493 598.6991,-165.3 597.5146,-165.2015 596.3322,-165.054 595.1526,-164.858 593.9768,-164.614 592.8059,-164.3227 591.6411,-163.9849 590.4838,-163.6014 589.3353,-163.1735 588.1976,-162.7021 587.0723,-162.1887 585.9616,-161.6346 584.8678,-161.0413 583.7933,-160.4106 582.7408,-159.744 581.7133,-159.0434 580.7137,-158.3108 579.7454,-157.5481 578.8118,-156.7575 577.9164,-155.9411 577.0629,-155.1012 576.2551,-154.24 575.497,-153.3599 574.7924,-152.4634 574.1452,-151.5528 573.5595,-150.6307 573.0391,-149.6996 572.5877,-148.7621 572.209,-147.8207 571.9066,-146.878 571.6837,-145.9366 571.5435,-144.9991 571.4887,-144.068 571.5219,-143.1459 571.6452,-142.2353 571.8605,-141.3388 572.1691,-140.4587 572.5722,-139.5975 573.0701,-138.7575 573.6631,-137.9411 574.3507,-137.1505 575.1321,-136.3879 576.006,-135.6553 576.9703,-134.9547 578.0227,-134.2881 579.1604,-133.6573 580.38,-133.0641 581.6776,-132.51 583.0489,-131.9966 584.4891,-131.5252 585.993,-131.0972 587.5551,-130.7138 589.1694,-130.376 590.8296,-130.0847 592.5292,-129.8407 594.2614,-129.6447 596.0191,-129.4972 597.7951,-129.3987 599.5823,-129.3493 601.3731,-129.3493 603.1602,-129.3987"/>
<text text-anchor="middle" x="600.4777" y="-144.8493" font-family="Courier,monospace" font-weight="bold" font-size="10.00" fill="#000000">B</text>
</g>
<!-- STATE_A&#45;&gt;STATE_B -->
<g id="edge1" class="edge">
<title>STATE_A&#45;&gt;STATE_B</title>
<path fill="none" stroke="#000000" d="M336.1944,-304.6297C349.2701,-277.5617 377.8799,-226.1379 417.7342,-198.3493 461.6351,-167.7393 523.4238,-155.4406 562.7093,-150.5399"/>
<polygon fill="#000000" stroke="#000000" points="563.1379,-154.0138 572.6732,-149.3956 562.3391,-147.0595 563.1379,-154.0138"/>
<text text-anchor="middle" x="485.7342" y="-201.3493" font-family="Courier,monospace" font-weight="bold" font-size="10.00" fill="#000000">0.2503595418585913</text>
</g>
<!-- STATE_E -->
<g id="node5" class="node">
<title>STATE_E</title>
<polygon fill="none" stroke="#000000" points="1513.4036,-315.3987 1515.1797,-315.4972 1516.9374,-315.6447 1518.6696,-315.8407 1520.3691,-316.0847 1522.0294,-316.376 1523.6436,-316.7138 1525.2057,-317.0972 1526.7097,-317.5252 1528.1499,-317.9966 1529.5211,-318.51 1530.8187,-319.0641 1532.0383,-319.6573 1533.176,-320.2881 1534.2285,-320.9547 1535.1928,-321.6553 1536.0666,-322.3879 1536.848,-323.1505 1537.5357,-323.9411 1538.1287,-324.7575 1538.6266,-325.5975 1539.0296,-326.4587 1539.3383,-327.3388 1539.5536,-328.2353 1539.6769,-329.1459 1539.7101,-330.068 1539.6553,-330.9991 1539.5151,-331.9366 1539.2922,-332.878 1538.9898,-333.8207 1538.6111,-334.7621 1538.1597,-335.6996 1537.6393,-336.6307 1537.0535,-337.5528 1536.4064,-338.4634 1535.7018,-339.3599 1534.9436,-340.24 1534.1359,-341.1012 1533.2824,-341.9411 1532.387,-342.7575 1531.4534,-343.5481 1530.485,-344.3108 1529.4855,-345.0434 1528.4579,-345.744 1527.4055,-346.4106 1526.331,-347.0413 1525.2372,-347.6346 1524.1265,-348.1887 1523.0012,-348.7021 1521.8634,-349.1735 1520.715,-349.6014 1519.5577,-349.9849 1518.3929,-350.3227 1517.222,-350.614 1516.0462,-350.858 1514.8666,-351.054 1513.6841,-351.2015 1512.4997,-351.3 1511.3141,-351.3493 1510.1281,-351.3493 1508.9425,-351.3 1507.7581,-351.2015 1506.5756,-351.054 1505.396,-350.858 1504.2203,-350.614 1503.0494,-350.3227 1501.8846,-349.9849 1500.7272,-349.6014 1499.5788,-349.1735 1498.441,-348.7021 1497.3157,-348.1887 1496.205,-347.6346 1495.1112,-347.0413 1494.0367,-346.4106 1492.9843,-345.744 1491.9567,-345.0434 1490.9572,-344.3108 1489.9889,-343.5481 1489.0552,-342.7575 1488.1598,-341.9411 1487.3063,-341.1012 1486.4986,-340.24 1485.7404,-339.3599 1485.0358,-338.4634 1484.3887,-337.5528 1483.803,-336.6307 1483.2825,-335.6996 1482.8311,-334.7621 1482.4524,-333.8207 1482.15,-332.878 1481.9272,-331.9366 1481.7869,-330.9991 1481.7321,-330.068 1481.7653,-329.1459 1481.8886,-328.2353 1482.1039,-327.3388 1482.4126,-326.4587 1482.8156,-325.5975 1483.3136,-324.7575 1483.9066,-323.9411 1484.5942,-323.1505 1485.3756,-322.3879 1486.2494,-321.6553 1487.2137,-320.9547 1488.2662,-320.2881 1489.4039,-319.6573 1490.6235,-319.0641 1491.9211,-318.51 1493.2923,-317.9966 1494.7326,-317.5252 1496.2365,-317.0972 1497.7986,-316.7138 1499.4129,-316.376 1501.0731,-316.0847 1502.7727,-315.8407 1504.5048,-315.6447 1506.2625,-315.4972 1508.0386,-315.3987 1509.8257,-315.3493 1511.6165,-315.3493 1513.4036,-315.3987"/>
<text text-anchor="middle" x="1510.7211" y="-330.8493" font-family="Courier,monospace" font-weight="bold" font-size="10.00" fill="#000000">E</text>
</g>
<!-- STATE_A&#45;&gt;STATE_E -->
<g id="edge2" class="edge">
<title>STATE_A&#45;&gt;STATE_E</title>
<path fill="none" stroke="#000000" d="M355.2191,-326.1473C404.0451,-332.68 510.3552,-345.3493 600.4777,-345.3493 600.4777,-345.3493 600.4777,-345.3493 1184.2211,-345.3493 1288.5647,-345.3493 1411.539,-339.1532 1472.4912,-335.6656"/>
<polygon fill="#000000" stroke="#000000" points="1473.0015,-339.142 1482.782,-335.0686 1472.596,-332.1537 1473.0015,-339.142"/>
<text text-anchor="middle" x="869.2211" y="-348.3493" font-family="Courier,monospace" font-weight="bold" font-size="10.00" fill="#000000">0.4197950266675402</text>
</g>
<!-- STATE_F -->
<g id="node6" class="node">
<title>STATE_F</title>
<polygon fill="none" stroke="#000000" points="1186.9036,-188.3987 1188.6797,-188.4972 1190.4374,-188.6447 1192.1696,-188.8407 1193.8691,-189.0847 1195.5294,-189.376 1197.1436,-189.7138 1198.7057,-190.0972 1200.2097,-190.5252 1201.6499,-190.9966 1203.0211,-191.51 1204.3187,-192.0641 1205.5383,-192.6573 1206.676,-193.2881 1207.7285,-193.9547 1208.6928,-194.6553 1209.5666,-195.3879 1210.348,-196.1505 1211.0357,-196.9411 1211.6287,-197.7575 1212.1266,-198.5975 1212.5296,-199.4587 1212.8383,-200.3388 1213.0536,-201.2353 1213.1769,-202.1459 1213.2101,-203.068 1213.1553,-203.9991 1213.0151,-204.9366 1212.7922,-205.878 1212.4898,-206.8207 1212.1111,-207.7621 1211.6597,-208.6996 1211.1393,-209.6307 1210.5535,-210.5528 1209.9064,-211.4634 1209.2018,-212.3599 1208.4436,-213.24 1207.6359,-214.1012 1206.7824,-214.9411 1205.887,-215.7575 1204.9534,-216.5481 1203.985,-217.3108 1202.9855,-218.0434 1201.9579,-218.744 1200.9055,-219.4106 1199.831,-220.0413 1198.7372,-220.6346 1197.6265,-221.1887 1196.5012,-221.7021 1195.3634,-222.1735 1194.215,-222.6014 1193.0577,-222.9849 1191.8929,-223.3227 1190.722,-223.614 1189.5462,-223.858 1188.3666,-224.054 1187.1841,-224.2015 1185.9997,-224.3 1184.8141,-224.3493 1183.6281,-224.3493 1182.4425,-224.3 1181.2581,-224.2015 1180.0756,-224.054 1178.896,-223.858 1177.7203,-223.614 1176.5494,-223.3227 1175.3846,-222.9849 1174.2272,-222.6014 1173.0788,-222.1735 1171.941,-221.7021 1170.8157,-221.1887 1169.705,-220.6346 1168.6112,-220.0413 1167.5367,-219.4106 1166.4843,-218.744 1165.4567,-218.0434 1164.4572,-217.3108 1163.4889,-216.5481 1162.5552,-215.7575 1161.6598,-214.9411 1160.8063,-214.1012 1159.9986,-213.24 1159.2404,-212.3599 1158.5358,-211.4634 1157.8887,-210.5528 1157.303,-209.6307 1156.7825,-208.6996 1156.3311,-207.7621 1155.9524,-206.8207 1155.65,-205.878 1155.4272,-204.9366 1155.2869,-203.9991 1155.2321,-203.068 1155.2653,-202.1459 1155.3886,-201.2353 1155.6039,-200.3388 1155.9126,-199.4587 1156.3156,-198.5975 1156.8136,-197.7575 1157.4066,-196.9411 1158.0942,-196.1505 1158.8756,-195.3879 1159.7494,-194.6553 1160.7137,-193.9547 1161.7662,-193.2881 1162.9039,-192.6573 1164.1235,-192.0641 1165.4211,-191.51 1166.7923,-190.9966 1168.2326,-190.5252 1169.7365,-190.0972 1171.2986,-189.7138 1172.9129,-189.376 1174.5731,-189.0847 1176.2727,-188.8407 1178.0048,-188.6447 1179.7625,-188.4972 1181.5386,-188.3987 1183.3257,-188.3493 1185.1165,-188.3493 1186.9036,-188.3987"/>
<text text-anchor="middle" x="1184.2211" y="-203.8493" font-family="Courier,monospace" font-weight="bold" font-size="10.00" fill="#000000">F</text>
</g>
<!-- STATE_A&#45;&gt;STATE_F -->
<g id="edge3" class="edge">
<title>STATE_A&#45;&gt;STATE_F</title>
<path fill="none" stroke="#000000" d="M353.3653,-310.9453C371.1242,-303.1382 395.6088,-292.877 417.7342,-285.3493 517.7548,-251.3199 542.7166,-238.8712 647.2211,-223.3493 845.586,-193.8866 897.789,-215.9561 1098.2211,-209.3493 1113.7207,-208.8384 1130.7907,-208.2486 1145.609,-207.7278"/>
<polygon fill="#000000" stroke="#000000" points="1146.0761,-211.2136 1155.9464,-207.363 1145.8291,-204.218 1146.0761,-211.2136"/>
<text text-anchor="middle" x="715.2211" y="-226.3493" font-family="Courier,monospace" font-weight="bold" font-size="10.00" fill="#000000">0.3298454314738686</text>
</g>
<!-- SYMBOL_x -->
<g id="node8" class="node">
<title>SYMBOL_x</title>
<polygon fill="none" stroke="#000000" stroke-dasharray="5,2" points="1792.6471,-486.3987 1794.4231,-486.4972 1796.1808,-486.6447 1797.913,-486.8407 1799.6126,-487.0847 1801.2728,-487.376 1802.8871,-487.7138 1804.4492,-488.0972 1805.9531,-488.5252 1807.3933,-488.9966 1808.7646,-489.51 1810.0622,-490.0641 1811.2818,-490.6573 1812.4195,-491.2881 1813.4719,-491.9547 1814.4363,-492.6553 1815.3101,-493.3879 1816.0915,-494.1505 1816.7791,-494.9411 1817.3721,-495.7575 1817.8701,-496.5975 1818.2731,-497.4587 1818.5817,-498.3388 1818.797,-499.2353 1818.9203,-500.1459 1818.9535,-501.068 1818.8987,-501.9991 1818.7585,-502.9366 1818.5356,-503.878 1818.2332,-504.8207 1817.8545,-505.7621 1817.4032,-506.6996 1816.8827,-507.6307 1816.297,-508.5528 1815.6498,-509.4634 1814.9452,-510.3599 1814.1871,-511.24 1813.3793,-512.1012 1812.5259,-512.9411 1811.6305,-513.7575 1810.6968,-514.5481 1809.7285,-515.3108 1808.7289,-516.0434 1807.7014,-516.744 1806.6489,-517.4106 1805.5744,-518.0413 1804.4806,-518.6346 1803.3699,-519.1887 1802.2447,-519.7021 1801.1069,-520.1735 1799.9585,-520.6014 1798.8011,-520.9849 1797.6363,-521.3227 1796.4654,-521.614 1795.2896,-521.858 1794.11,-522.054 1792.9276,-522.2015 1791.7431,-522.3 1790.5575,-522.3493 1789.3716,-522.3493 1788.186,-522.3 1787.0015,-522.2015 1785.8191,-522.054 1784.6395,-521.858 1783.4637,-521.614 1782.2928,-521.3227 1781.128,-520.9849 1779.9706,-520.6014 1778.8222,-520.1735 1777.6844,-519.7021 1776.5592,-519.1887 1775.4485,-518.6346 1774.3547,-518.0413 1773.2802,-517.4106 1772.2277,-516.744 1771.2002,-516.0434 1770.2006,-515.3108 1769.2323,-514.5481 1768.2986,-513.7575 1767.4032,-512.9411 1766.5498,-512.1012 1765.742,-511.24 1764.9839,-510.3599 1764.2793,-509.4634 1763.6321,-508.5528 1763.0464,-507.6307 1762.5259,-506.6996 1762.0746,-505.7621 1761.6959,-504.8207 1761.3935,-503.878 1761.1706,-502.9366 1761.0304,-501.9991 1760.9756,-501.068 1761.0088,-500.1459 1761.1321,-499.2353 1761.3474,-498.3388 1761.656,-497.4587 1762.059,-496.5975 1762.557,-495.7575 1763.15,-494.9411 1763.8376,-494.1505 1764.619,-493.3879 1765.4928,-492.6553 1766.4572,-491.9547 1767.5096,-491.2881 1768.6473,-490.6573 1769.8669,-490.0641 1771.1645,-489.51 1772.5358,-488.9966 1773.976,-488.5252 1775.4799,-488.0972 1777.042,-487.7138 1778.6563,-487.376 1780.3165,-487.0847 1782.0161,-486.8407 1783.7483,-486.6447 1785.506,-486.4972 1787.282,-486.3987 1789.0691,-486.3493 1790.86,-486.3493 1792.6471,-486.3987"/>
<text text-anchor="middle" x="1789.9645" y="-501.8493" font-family="Courier,monospace" font-weight="bold" font-size="10.00" fill="#000000">x</text>
</g>
<!-- STATE_A&#45;&gt;SYMBOL_x -->
<g id="edge14" class="edge">
<title>STATE_A&#45;&gt;SYMBOL_x</title>
<path fill="none" stroke="#000000" stroke-dasharray="5,2" d="M333.4813,-339.8971C343.9345,-371.6254 370.5139,-438.3013 417.7342,-471.3493 530.6702,-550.3898 888.8736,-589.3493 1026.7211,-589.3493 1026.7211,-589.3493 1026.7211,-589.3493 1510.7211,-589.3493 1617.2212,-589.3493 1644.4825,-571.2613 1743.2211,-531.3493 1749.7594,-528.7065 1756.4927,-525.2844 1762.7414,-521.7696"/>
<polygon fill="#000000" stroke="#000000" points="1764.6267,-524.7213 1771.4706,-516.6336 1761.0769,-518.6881 1764.6267,-524.7213"/>
<text text-anchor="middle" x="1026.7211" y="-592.3493" font-family="Courier,monospace" font-weight="bold" font-size="10.00" fill="#000000">0.17218217761728194</text>
</g>
<!-- SYMBOL_y -->
<g id="node9" class="node">
<title>SYMBOL_y</title>
<polygon fill="none" stroke="#000000" stroke-dasharray="5,2" points="1792.6471,-272.3987 1794.4231,-272.4972 1796.1808,-272.6447 1797.913,-272.8407 1799.6126,-273.0847 1801.2728,-273.376 1802.8871,-273.7138 1804.4492,-274.0972 1805.9531,-274.5252 1807.3933,-274.9966 1808.7646,-275.51 1810.0622,-276.0641 1811.2818,-276.6573 1812.4195,-277.2881 1813.4719,-277.9547 1814.4363,-278.6553 1815.3101,-279.3879 1816.0915,-280.1505 1816.7791,-280.9411 1817.3721,-281.7575 1817.8701,-282.5975 1818.2731,-283.4587 1818.5817,-284.3388 1818.797,-285.2353 1818.9203,-286.1459 1818.9535,-287.068 1818.8987,-287.9991 1818.7585,-288.9366 1818.5356,-289.878 1818.2332,-290.8207 1817.8545,-291.7621 1817.4032,-292.6996 1816.8827,-293.6307 1816.297,-294.5528 1815.6498,-295.4634 1814.9452,-296.3599 1814.1871,-297.24 1813.3793,-298.1012 1812.5259,-298.9411 1811.6305,-299.7575 1810.6968,-300.5481 1809.7285,-301.3108 1808.7289,-302.0434 1807.7014,-302.744 1806.6489,-303.4106 1805.5744,-304.0413 1804.4806,-304.6346 1803.3699,-305.1887 1802.2447,-305.7021 1801.1069,-306.1735 1799.9585,-306.6014 1798.8011,-306.9849 1797.6363,-307.3227 1796.4654,-307.614 1795.2896,-307.858 1794.11,-308.054 1792.9276,-308.2015 1791.7431,-308.3 1790.5575,-308.3493 1789.3716,-308.3493 1788.186,-308.3 1787.0015,-308.2015 1785.8191,-308.054 1784.6395,-307.858 1783.4637,-307.614 1782.2928,-307.3227 1781.128,-306.9849 1779.9706,-306.6014 1778.8222,-306.1735 1777.6844,-305.7021 1776.5592,-305.1887 1775.4485,-304.6346 1774.3547,-304.0413 1773.2802,-303.4106 1772.2277,-302.744 1771.2002,-302.0434 1770.2006,-301.3108 1769.2323,-300.5481 1768.2986,-299.7575 1767.4032,-298.9411 1766.5498,-298.1012 1765.742,-297.24 1764.9839,-296.3599 1764.2793,-295.4634 1763.6321,-294.5528 1763.0464,-293.6307 1762.5259,-292.6996 1762.0746,-291.7621 1761.6959,-290.8207 1761.3935,-289.878 1761.1706,-288.9366 1761.0304,-287.9991 1760.9756,-287.068 1761.0088,-286.1459 1761.1321,-285.2353 1761.3474,-284.3388 1761.656,-283.4587 1762.059,-282.5975 1762.557,-281.7575 1763.15,-280.9411 1763.8376,-280.1505 1764.619,-279.3879 1765.4928,-278.6553 1766.4572,-277.9547 1767.5096,-277.2881 1768.6473,-276.6573 1769.8669,-276.0641 1771.1645,-275.51 1772.5358,-274.9966 1773.976,-274.5252 1775.4799,-274.0972 1777.042,-273.7138 1778.6563,-273.376 1780.3165,-273.0847 1782.0161,-272.8407 1783.7483,-272.6447 1785.506,-272.4972 1787.282,-272.3987 1789.0691,-272.3493 1790.86,-272.3493 1792.6471,-272.3987"/>
<text text-anchor="middle" x="1789.9645" y="-287.8493" font-family="Courier,monospace" font-weight="bold" font-size="10.00" fill="#000000">y</text>
</g>
<!-- STATE_A&#45;&gt;SYMBOL_y -->
<g id="edge15" class="edge">
<title>STATE_A&#45;&gt;SYMBOL_y</title>
<path fill="none" stroke="#000000" stroke-dasharray="5,2" d="M357.1402,-321.6309C472.3518,-318.7765 910.0091,-308.021 1270.2211,-300.3493 1450.1675,-296.5169 1665.1729,-292.5868 1751.4057,-291.037"/>
<polygon fill="#000000" stroke="#000000" points="1751.5763,-294.5346 1761.5118,-290.8557 1751.4506,-287.5357 1751.5763,-294.5346"/>
<text text-anchor="middle" x="1026.7211" y="-309.3493" font-family="Courier,monospace" font-weight="bold" font-size="10.00" fill="#000000">0.3823421040841842</text>
</g>
<!-- SYMBOL_z -->
<g id="node10" class="node">
<title>SYMBOL_z</title>
<polygon fill="none" stroke="#000000" stroke-dasharray="5,2" points="1792.6471,-100.3987 1794.4231,-100.4972 1796.1808,-100.6447 1797.913,-100.8407 1799.6126,-101.0847 1801.2728,-101.376 1802.8871,-101.7138 1804.4492,-102.0972 1805.9531,-102.5252 1807.3933,-102.9966 1808.7646,-103.51 1810.0622,-104.0641 1811.2818,-104.6573 1812.4195,-105.2881 1813.4719,-105.9547 1814.4363,-106.6553 1815.3101,-107.3879 1816.0915,-108.1505 1816.7791,-108.9411 1817.3721,-109.7575 1817.8701,-110.5975 1818.2731,-111.4587 1818.5817,-112.3388 1818.797,-113.2353 1818.9203,-114.1459 1818.9535,-115.068 1818.8987,-115.9991 1818.7585,-116.9366 1818.5356,-117.878 1818.2332,-118.8207 1817.8545,-119.7621 1817.4032,-120.6996 1816.8827,-121.6307 1816.297,-122.5528 1815.6498,-123.4634 1814.9452,-124.3599 1814.1871,-125.24 1813.3793,-126.1012 1812.5259,-126.9411 1811.6305,-127.7575 1810.6968,-128.5481 1809.7285,-129.3108 1808.7289,-130.0434 1807.7014,-130.744 1806.6489,-131.4106 1805.5744,-132.0413 1804.4806,-132.6346 1803.3699,-133.1887 1802.2447,-133.7021 1801.1069,-134.1735 1799.9585,-134.6014 1798.8011,-134.9849 1797.6363,-135.3227 1796.4654,-135.614 1795.2896,-135.858 1794.11,-136.054 1792.9276,-136.2015 1791.7431,-136.3 1790.5575,-136.3493 1789.3716,-136.3493 1788.186,-136.3 1787.0015,-136.2015 1785.8191,-136.054 1784.6395,-135.858 1783.4637,-135.614 1782.2928,-135.3227 1781.128,-134.9849 1779.9706,-134.6014 1778.8222,-134.1735 1777.6844,-133.7021 1776.5592,-133.1887 1775.4485,-132.6346 1774.3547,-132.0413 1773.2802,-131.4106 1772.2277,-130.744 1771.2002,-130.0434 1770.2006,-129.3108 1769.2323,-128.5481 1768.2986,-127.7575 1767.4032,-126.9411 1766.5498,-126.1012 1765.742,-125.24 1764.9839,-124.3599 1764.2793,-123.4634 1763.6321,-122.5528 1763.0464,-121.6307 1762.5259,-120.6996 1762.0746,-119.7621 1761.6959,-118.8207 1761.3935,-117.878 1761.1706,-116.9366 1761.0304,-115.9991 1760.9756,-115.068 1761.0088,-114.1459 1761.1321,-113.2353 1761.3474,-112.3388 1761.656,-111.4587 1762.059,-110.5975 1762.557,-109.7575 1763.15,-108.9411 1763.8376,-108.1505 1764.619,-107.3879 1765.4928,-106.6553 1766.4572,-105.9547 1767.5096,-105.2881 1768.6473,-104.6573 1769.8669,-104.0641 1771.1645,-103.51 1772.5358,-102.9966 1773.976,-102.5252 1775.4799,-102.0972 1777.042,-101.7138 1778.6563,-101.376 1780.3165,-101.0847 1782.0161,-100.8407 1783.7483,-100.6447 1785.506,-100.4972 1787.282,-100.3987 1789.0691,-100.3493 1790.86,-100.3493 1792.6471,-100.3987"/>
<text text-anchor="middle" x="1789.9645" y="-115.8493" font-family="Courier,monospace" font-weight="bold" font-size="10.00" fill="#000000">z</text>
</g>
<!-- STATE_A&#45;&gt;SYMBOL_z -->
<g id="edge16" class="edge">
<title>STATE_A&#45;&gt;SYMBOL_z</title>
<path fill="none" stroke="#000000" stroke-dasharray="5,2" d="M341.6998,-305.7719C357.6464,-285.3887 384.0202,-249.1976 399.7342,-214.3493 412.409,-186.2412 400.8904,-173.1757 417.7342,-147.3493 474.676,-60.0415 496.2423,-.3493 600.4777,-.3493 600.4777,-.3493 600.4777,-.3493 1510.7211,-.3493 1616.7053,-.3493 1654.904,5.2401 1743.2211,-53.3493 1757.5257,-62.839 1768.9072,-78.3001 1776.8569,-91.7627"/>
<polygon fill="#000000" stroke="#000000" points="1773.8881,-93.6258 1781.806,-100.6656 1780.0064,-90.2247 1773.8881,-93.6258"/>
<text text-anchor="middle" x="1026.7211" y="-3.3493" font-family="Courier,monospace" font-weight="bold" font-size="10.00" fill="#000000">0.445475718298534</text>
</g>
<!-- STATE_C -->
<g id="node3" class="node">
<title>STATE_C</title>
<polygon fill="none" stroke="#000000" points="871.9036,-159.3987 873.6797,-159.4972 875.4374,-159.6447 877.1696,-159.8407 878.8691,-160.0847 880.5294,-160.376 882.1436,-160.7138 883.7057,-161.0972 885.2097,-161.5252 886.6499,-161.9966 888.0211,-162.51 889.3187,-163.0641 890.5383,-163.6573 891.676,-164.2881 892.7285,-164.9547 893.6928,-165.6553 894.5666,-166.3879 895.348,-167.1505 896.0357,-167.9411 896.6287,-168.7575 897.1266,-169.5975 897.5296,-170.4587 897.8383,-171.3388 898.0536,-172.2353 898.1769,-173.1459 898.2101,-174.068 898.1553,-174.9991 898.0151,-175.9366 897.7922,-176.878 897.4898,-177.8207 897.1111,-178.7621 896.6597,-179.6996 896.1393,-180.6307 895.5535,-181.5528 894.9064,-182.4634 894.2018,-183.3599 893.4436,-184.24 892.6359,-185.1012 891.7824,-185.9411 890.887,-186.7575 889.9534,-187.5481 888.985,-188.3108 887.9855,-189.0434 886.9579,-189.744 885.9055,-190.4106 884.831,-191.0413 883.7372,-191.6346 882.6265,-192.1887 881.5012,-192.7021 880.3634,-193.1735 879.215,-193.6014 878.0577,-193.9849 876.8929,-194.3227 875.722,-194.614 874.5462,-194.858 873.3666,-195.054 872.1841,-195.2015 870.9997,-195.3 869.8141,-195.3493 868.6281,-195.3493 867.4425,-195.3 866.2581,-195.2015 865.0756,-195.054 863.896,-194.858 862.7203,-194.614 861.5494,-194.3227 860.3846,-193.9849 859.2272,-193.6014 858.0788,-193.1735 856.941,-192.7021 855.8157,-192.1887 854.705,-191.6346 853.6112,-191.0413 852.5367,-190.4106 851.4843,-189.744 850.4567,-189.0434 849.4572,-188.3108 848.4889,-187.5481 847.5552,-186.7575 846.6598,-185.9411 845.8063,-185.1012 844.9986,-184.24 844.2404,-183.3599 843.5358,-182.4634 842.8887,-181.5528 842.303,-180.6307 841.7825,-179.6996 841.3311,-178.7621 840.9524,-177.8207 840.65,-176.878 840.4272,-175.9366 840.2869,-174.9991 840.2321,-174.068 840.2653,-173.1459 840.3886,-172.2353 840.6039,-171.3388 840.9126,-170.4587 841.3156,-169.5975 841.8136,-168.7575 842.4066,-167.9411 843.0942,-167.1505 843.8756,-166.3879 844.7494,-165.6553 845.7137,-164.9547 846.7662,-164.2881 847.9039,-163.6573 849.1235,-163.0641 850.4211,-162.51 851.7923,-161.9966 853.2326,-161.5252 854.7365,-161.0972 856.2986,-160.7138 857.9129,-160.376 859.5731,-160.0847 861.2727,-159.8407 863.0048,-159.6447 864.7625,-159.4972 866.5386,-159.3987 868.3257,-159.3493 870.1165,-159.3493 871.9036,-159.3987"/>
<text text-anchor="middle" x="869.2211" y="-174.8493" font-family="Courier,monospace" font-weight="bold" font-size="10.00" fill="#000000">C</text>
</g>
<!-- STATE_B&#45;&gt;STATE_C -->
<g id="edge4" class="edge">
<title>STATE_B&#45;&gt;STATE_C</title>
<path fill="none" stroke="#000000" d="M627.7252,-150.391C675.6137,-155.7368 775.0145,-166.833 830.1884,-172.9921"/>
<polygon fill="#000000" stroke="#000000" points="829.9528,-176.4875 840.2794,-174.1186 830.7295,-169.5307 829.9528,-176.4875"/>
<text text-anchor="middle" x="715.2211" y="-170.3493" font-family="Courier,monospace" font-weight="bold" font-size="10.00" fill="#000000">0.1492293607659141</text>
</g>
<!-- STATE_D -->
<g id="node4" class="node">
<title>STATE_D</title>
<polygon fill="none" stroke="#000000" points="1029.4036,-452.3987 1031.1797,-452.4972 1032.9374,-452.6447 1034.6696,-452.8407 1036.3691,-453.0847 1038.0294,-453.376 1039.6436,-453.7138 1041.2057,-454.0972 1042.7097,-454.5252 1044.1499,-454.9966 1045.5211,-455.51 1046.8187,-456.0641 1048.0383,-456.6573 1049.176,-457.2881 1050.2285,-457.9547 1051.1928,-458.6553 1052.0666,-459.3879 1052.848,-460.1505 1053.5357,-460.9411 1054.1287,-461.7575 1054.6266,-462.5975 1055.0296,-463.4587 1055.3383,-464.3388 1055.5536,-465.2353 1055.6769,-466.1459 1055.7101,-467.068 1055.6553,-467.9991 1055.5151,-468.9366 1055.2922,-469.878 1054.9898,-470.8207 1054.6111,-471.7621 1054.1597,-472.6996 1053.6393,-473.6307 1053.0535,-474.5528 1052.4064,-475.4634 1051.7018,-476.3599 1050.9436,-477.24 1050.1359,-478.1012 1049.2824,-478.9411 1048.387,-479.7575 1047.4534,-480.5481 1046.485,-481.3108 1045.4855,-482.0434 1044.4579,-482.744 1043.4055,-483.4106 1042.331,-484.0413 1041.2372,-484.6346 1040.1265,-485.1887 1039.0012,-485.7021 1037.8634,-486.1735 1036.715,-486.6014 1035.5577,-486.9849 1034.3929,-487.3227 1033.222,-487.614 1032.0462,-487.858 1030.8666,-488.054 1029.6841,-488.2015 1028.4997,-488.3 1027.3141,-488.3493 1026.1281,-488.3493 1024.9425,-488.3 1023.7581,-488.2015 1022.5756,-488.054 1021.396,-487.858 1020.2203,-487.614 1019.0494,-487.3227 1017.8846,-486.9849 1016.7272,-486.6014 1015.5788,-486.1735 1014.441,-485.7021 1013.3157,-485.1887 1012.205,-484.6346 1011.1112,-484.0413 1010.0367,-483.4106 1008.9843,-482.744 1007.9567,-482.0434 1006.9572,-481.3108 1005.9889,-480.5481 1005.0552,-479.7575 1004.1598,-478.9411 1003.3063,-478.1012 1002.4986,-477.24 1001.7404,-476.3599 1001.0358,-475.4634 1000.3887,-474.5528 999.803,-473.6307 999.2825,-472.6996 998.8311,-471.7621 998.4524,-470.8207 998.15,-469.878 997.9272,-468.9366 997.7869,-467.9991 997.7321,-467.068 997.7653,-466.1459 997.8886,-465.2353 998.1039,-464.3388 998.4126,-463.4587 998.8156,-462.5975 999.3136,-461.7575 999.9066,-460.9411 1000.5942,-460.1505 1001.3756,-459.3879 1002.2494,-458.6553 1003.2137,-457.9547 1004.2662,-457.2881 1005.4039,-456.6573 1006.6235,-456.0641 1007.9211,-455.51 1009.2923,-454.9966 1010.7326,-454.5252 1012.2365,-454.0972 1013.7986,-453.7138 1015.4129,-453.376 1017.0731,-453.0847 1018.7727,-452.8407 1020.5048,-452.6447 1022.2625,-452.4972 1024.0386,-452.3987 1025.8257,-452.3493 1027.6165,-452.3493 1029.4036,-452.3987"/>
<text text-anchor="middle" x="1026.7211" y="-467.8493" font-family="Courier,monospace" font-weight="bold" font-size="10.00" fill="#000000">D</text>
</g>
<!-- STATE_B&#45;&gt;STATE_D -->
<g id="edge5" class="edge">
<title>STATE_B&#45;&gt;STATE_D</title>
<path fill="none" stroke="#000000" d="M604.9877,-165.1101C611.1245,-185.6937 624.0847,-219.2269 647.2211,-238.3493 750.7485,-323.9157 830.6657,-241.5848 937.2211,-323.3493 977.8222,-354.5043 1004.1583,-409.7745 1017.1428,-442.9439"/>
<polygon fill="#000000" stroke="#000000" points="1013.9362,-444.3597 1020.7449,-452.4771 1020.4844,-441.8855 1013.9362,-444.3597"/>
<text text-anchor="middle" x="715.2211" y="-284.3493" font-family="Courier,monospace" font-weight="bold" font-size="10.00" fill="#000000">0.8507706392340859</text>
</g>
<!-- STATE_B&#45;&gt;SYMBOL_x -->
<g id="edge17" class="edge">
<title>STATE_B&#45;&gt;SYMBOL_x</title>
<path fill="none" stroke="#000000" stroke-dasharray="5,2" d="M604.1374,-165.3739C611.6015,-200.5986 629.3885,-276.8373 647.2211,-296.3493 697.2243,-351.0614 731.1771,-336.1095 801.2211,-360.3493 860.5296,-380.874 894.9451,-351.965 937.2211,-398.3493 967.3462,-431.402 921.4844,-467.9923 955.2211,-497.3493 1063.3951,-591.4804 1456.8315,-515.0459 1600.2211,-516.3493 1663.774,-516.927 1680.1666,-524.3139 1743.2211,-516.3493 1747.4292,-515.8178 1751.8009,-515.0272 1756.107,-514.1008"/>
<polygon fill="#000000" stroke="#000000" points="1757.0167,-517.482 1765.9276,-511.7508 1755.3876,-510.6742 1757.0167,-517.482"/>
<text text-anchor="middle" x="1184.2211" y="-547.3493" font-family="Courier,monospace" font-weight="bold" font-size="10.00" fill="#000000">0.2344416601626744</text>
</g>
<!-- STATE_B&#45;&gt;SYMBOL_y -->
<g id="edge18" class="edge">
<title>STATE_B&#45;&gt;SYMBOL_y</title>
<path fill="none" stroke="#000000" stroke-dasharray="5,2" d="M628.4511,-139.0768C634.5844,-137.5702 641.0806,-136.2061 647.2211,-135.3493 774.8856,-117.5368 808.3423,-128.9487 937.2211,-131.3493 1026.9848,-133.0214 1669.6336,-136.918 1743.2211,-188.3493 1767.5602,-205.3602 1779.4874,-238.2802 1785.1543,-262.1304"/>
<polygon fill="#000000" stroke="#000000" points="1781.7605,-262.9975 1787.2787,-272.0418 1788.6051,-261.5304 1781.7605,-262.9975"/>
<text text-anchor="middle" x="1184.2211" y="-140.3493" font-family="Courier,monospace" font-weight="bold" font-size="10.00" fill="#000000">0.5326211384602371</text>
</g>
<!-- STATE_B&#45;&gt;SYMBOL_z -->
<g id="edge19" class="edge">
<title>STATE_B&#45;&gt;SYMBOL_z</title>
<path fill="none" stroke="#000000" stroke-dasharray="5,2" d="M606.1095,-129.3274C612.8036,-111.1682 625.8437,-83.9447 647.2211,-70.3493 730.9624,-17.0926 769.9795,-46.3493 869.2211,-46.3493 869.2211,-46.3493 869.2211,-46.3493 1510.7211,-46.3493 1601.2616,-46.3493 1703.2345,-82.2799 1755.3046,-103.3766"/>
<polygon fill="#000000" stroke="#000000" points="1754.1544,-106.688 1764.7339,-107.2571 1756.8184,-100.2147 1754.1544,-106.688"/>
<text text-anchor="middle" x="1184.2211" y="-49.3493" font-family="Courier,monospace" font-weight="bold" font-size="10.00" fill="#000000">0.2329372013770885</text>
</g>
<!-- STATE_C&#45;&gt;STATE_F -->
<g id="edge6" class="edge">
<title>STATE_C&#45;&gt;STATE_F</title>
<path fill="none" stroke="#000000" d="M896.7171,-179.8591C939.711,-183.7861 1025.4703,-191.6298 1098.2211,-198.3493 1113.4804,-199.7587 1130.2617,-201.3178 1144.9181,-202.6823"/>
<polygon fill="#000000" stroke="#000000" points="1144.881,-206.1939 1155.1625,-203.6367 1145.5303,-199.2241 1144.881,-206.1939"/>
<text text-anchor="middle" x="1026.7211" y="-201.3493" font-family="Courier,monospace" font-weight="bold" font-size="10.00" fill="#000000">1.0</text>
</g>
<!-- STATE_D&#45;&gt;STATE_A -->
<g id="edge7" class="edge">
<title>STATE_D&#45;&gt;STATE_A</title>
<path fill="none" stroke="#000000" d="M999.0104,-472.1469C893.8495,-478.5047 520.2187,-496.7446 417.7342,-442.3493 379.578,-422.0973 353.2406,-377.5582 339.4595,-348.8063"/>
<polygon fill="#000000" stroke="#000000" points="342.6347,-347.3337 335.2683,-339.7188 336.2781,-350.2654 342.6347,-347.3337"/>
<text text-anchor="middle" x="600.4777" y="-480.3493" font-family="Courier,monospace" font-weight="bold" font-size="10.00" fill="#000000">1.0</text>
</g>
<!-- STATE_D&#45;&gt;SYMBOL_x -->
<g id="edge20" class="edge">
<title>STATE_D&#45;&gt;SYMBOL_x</title>
<path fill="none" stroke="#000000" stroke-dasharray="5,2" d="M1053.6958,-473.9017C1071.4329,-476.1044 1095.1709,-478.8007 1116.2211,-480.3493 1357.1993,-498.0783 1647.6638,-502.8208 1751.0888,-503.9926"/>
<polygon fill="#000000" stroke="#000000" points="1751.3185,-507.4952 1761.3559,-504.104 1751.3945,-500.4956 1751.3185,-507.4952"/>
<text text-anchor="middle" x="1345.7211" y="-498.3493" font-family="Courier,monospace" font-weight="bold" font-size="10.00" fill="#000000">0.041071523142712944</text>
</g>
<!-- STATE_D&#45;&gt;SYMBOL_y -->
<g id="edge21" class="edge">
<title>STATE_D&#45;&gt;SYMBOL_y</title>
<path fill="none" stroke="#000000" stroke-dasharray="5,2" d="M1054.7158,-472.4434C1120.3463,-476.4838 1288.6042,-481.7763 1421.2211,-442.3493 1429.9933,-439.7414 1430.7339,-435.7729 1439.2211,-432.3493 1500.2076,-407.7487 1519.2902,-413.4347 1582.2211,-394.3493 1654.5822,-372.404 1679.5224,-380.095 1743.2211,-339.3493 1753.6853,-332.6558 1763.4741,-323.1408 1771.3626,-314.2735"/>
<polygon fill="#000000" stroke="#000000" points="1774.2334,-316.2999 1778.0377,-306.4116 1768.8973,-311.7693 1774.2334,-316.2999"/>
<text text-anchor="middle" x="1345.7211" y="-472.3493" font-family="Courier,monospace" font-weight="bold" font-size="10.00" fill="#000000">0.3849281771957611</text>
</g>
<!-- STATE_D&#45;&gt;SYMBOL_z -->
<g id="edge22" class="edge">
<title>STATE_D&#45;&gt;SYMBOL_z</title>
<path fill="none" stroke="#000000" stroke-dasharray="5,2" d="M1055.5261,-464.9104C1101.0387,-456.3963 1192.4101,-439.6262 1270.2211,-427.3493 1337.1502,-416.7894 1357.8817,-430.4145 1421.2211,-406.3493 1430.209,-402.9345 1430.4059,-398.1882 1439.2211,-394.3493 1499.1155,-368.2664 1534.7071,-405.1832 1582.2211,-360.3493 1602.4704,-341.2423 1580.9189,-320.4126 1600.2211,-300.3493 1646.7996,-251.9343 1695.5293,-298.6682 1743.2211,-251.3493 1771.6929,-223.1002 1782.8673,-176.5176 1787.2227,-146.6492"/>
<polygon fill="#000000" stroke="#000000" points="1790.7281,-146.8322 1788.5382,-136.4662 1783.7858,-145.9353 1790.7281,-146.8322"/>
<text text-anchor="middle" x="1345.7211" y="-430.3493" font-family="Courier,monospace" font-weight="bold" font-size="10.00" fill="#000000">0.5740002996615259</text>
</g>
<!-- STATE_E&#45;&gt;STATE_A -->
<g id="edge8" class="edge">
<title>STATE_E&#45;&gt;STATE_A</title>
<path fill="none" stroke="#000000" d="M1486.6824,-340.7681C1468.8173,-345.9101 1443.7435,-352.351 1421.2211,-355.3493 1346.746,-365.2639 1327.3465,-358.3411 1252.2211,-359.3493 949.8094,-363.4078 874.0702,-366.2403 571.7342,-358.3493 503.2612,-356.5622 485.1094,-364.692 417.7342,-352.3493 397.926,-348.7206 376.5123,-341.6632 359.5986,-335.3049"/>
<polygon fill="#000000" stroke="#000000" points="360.7954,-332.0152 350.2061,-331.6731 358.2709,-338.5441 360.7954,-332.0152"/>
<text text-anchor="middle" x="869.2211" y="-366.3493" font-family="Courier,monospace" font-weight="bold" font-size="10.00" fill="#000000">1.0</text>
</g>
<!-- STATE_E&#45;&gt;SYMBOL_x -->
<g id="edge23" class="edge">
<title>STATE_E&#45;&gt;SYMBOL_x</title>
<path fill="none" stroke="#000000" stroke-dasharray="5,2" d="M1534.4554,-340.772C1578.8564,-355.4763 1676.0542,-391.6033 1743.2211,-445.3493 1754.9297,-454.7184 1765.5335,-467.5426 1773.6704,-478.842"/>
<polygon fill="#000000" stroke="#000000" points="1770.8196,-480.8732 1779.3893,-487.103 1776.575,-476.8888 1770.8196,-480.8732"/>
<text text-anchor="middle" x="1671.7211" y="-448.3493" font-family="Courier,monospace" font-weight="bold" font-size="10.00" fill="#000000">0.2616988019473071</text>
</g>
<!-- STATE_E&#45;&gt;SYMBOL_y -->
<g id="edge24" class="edge">
<title>STATE_E&#45;&gt;SYMBOL_y</title>
<path fill="none" stroke="#000000" stroke-dasharray="5,2" d="M1539.6113,-331.3048C1583.8264,-327.8263 1670.7771,-319.6046 1743.2211,-304.3493 1747.6301,-303.4209 1752.2248,-302.2739 1756.7376,-301.0393"/>
<polygon fill="#000000" stroke="#000000" points="1757.7501,-304.39 1766.3825,-298.2473 1755.8036,-297.666 1757.7501,-304.39"/>
<text text-anchor="middle" x="1671.7211" y="-327.3493" font-family="Courier,monospace" font-weight="bold" font-size="10.00" fill="#000000">0.26036540887451937</text>
</g>
<!-- STATE_E&#45;&gt;SYMBOL_z -->
<g id="edge25" class="edge">
<title>STATE_E&#45;&gt;SYMBOL_z</title>
<path fill="none" stroke="#000000" stroke-dasharray="5,2" d="M1524.5691,-316.7589C1541.3321,-297.2237 1570.966,-264.3963 1600.2211,-240.3493 1653.0741,-196.9055 1722.1517,-155.9418 1760.6981,-134.3041"/>
<polygon fill="#000000" stroke="#000000" points="1762.7775,-137.1523 1769.8118,-129.2296 1759.3721,-131.0364 1762.7775,-137.1523"/>
<text text-anchor="middle" x="1671.7211" y="-243.3493" font-family="Courier,monospace" font-weight="bold" font-size="10.00" fill="#000000">0.4779357891781734</text>
</g>
<!-- STATE_F&#45;&gt;STATE_B -->
<g id="edge9" class="edge">
<title>STATE_F&#45;&gt;STATE_B</title>
<path fill="none" stroke="#000000" d="M1156.8124,-197.7253C1139.9644,-192.5084 1117.9061,-185.8286 1098.2211,-180.3493 1027.086,-160.5492 1010.4873,-148.5317 937.2211,-139.3493 877.2459,-131.8327 861.6536,-138.1456 801.2211,-139.3493 745.041,-140.4683 680.0696,-143.3472 639.6209,-145.3278"/>
<polygon fill="#000000" stroke="#000000" points="639.2027,-141.8441 629.3884,-145.8353 639.5496,-148.8355 639.2027,-141.8441"/>
<text text-anchor="middle" x="869.2211" y="-142.3493" font-family="Courier,monospace" font-weight="bold" font-size="10.00" fill="#000000">0.8263590738663849</text>
</g>
<!-- STATE_F&#45;&gt;STATE_E -->
<g id="edge10" class="edge">
<title>STATE_F&#45;&gt;STATE_E</title>
<path fill="none" stroke="#000000" d="M1206.6628,-215.0786C1262.4147,-236.7646 1407.5798,-293.2301 1475.1542,-319.5147"/>
<polygon fill="#000000" stroke="#000000" points="1473.9527,-322.8028 1484.5413,-323.1661 1476.4903,-316.2789 1473.9527,-322.8028"/>
<text text-anchor="middle" x="1345.7211" y="-298.3493" font-family="Courier,monospace" font-weight="bold" font-size="10.00" fill="#000000">0.17364092613361515</text>
</g>
<!-- STATE_F&#45;&gt;SYMBOL_x -->
<g id="edge26" class="edge">
<title>STATE_F&#45;&gt;SYMBOL_x</title>
<path fill="none" stroke="#000000" stroke-dasharray="5,2" d="M1194.2913,-222.7957C1208.7061,-245.1803 1237.1626,-285.3122 1270.2211,-310.3493 1398.0719,-407.1784 1448.2362,-405.1414 1600.2211,-456.3493 1662.1289,-477.2078 1680.1268,-473.4151 1743.2211,-490.3493 1746.233,-491.1577 1749.3453,-492.0231 1752.4668,-492.9124"/>
<polygon fill="#000000" stroke="#000000" points="1751.7768,-496.3568 1762.3567,-495.7937 1753.7348,-489.6362 1751.7768,-496.3568"/>
<text text-anchor="middle" x="1510.7211" y="-452.3493" font-family="Courier,monospace" font-weight="bold" font-size="10.00" fill="#000000">0.3976531499737627</text>
</g>
<!-- STATE_F&#45;&gt;SYMBOL_y -->
<g id="edge27" class="edge">
<title>STATE_F&#45;&gt;SYMBOL_y</title>
<path fill="none" stroke="#000000" stroke-dasharray="5,2" d="M1213.1145,-203.6556C1314.2355,-194.7462 1651.0702,-169.583 1743.2211,-220.3493 1760.0744,-229.6339 1771.9568,-247.886 1779.5234,-263.4246"/>
<polygon fill="#000000" stroke="#000000" points="1776.3801,-264.9684 1783.6828,-272.6445 1782.7609,-262.0898 1776.3801,-264.9684"/>
<text text-anchor="middle" x="1510.7211" y="-193.3493" font-family="Courier,monospace" font-weight="bold" font-size="10.00" fill="#000000">0.27166718851347976</text>
</g>
<!-- STATE_F&#45;&gt;SYMBOL_z -->
<g id="edge28" class="edge">
<title>STATE_F&#45;&gt;SYMBOL_z</title>
<path fill="none" stroke="#000000" stroke-dasharray="5,2" d="M1212.3513,-199.0702C1229.0785,-194.9267 1250.7637,-189.8758 1270.2211,-186.3493 1449.6588,-153.8277 1666.6463,-130.554 1752.4474,-121.9775"/>
<polygon fill="#000000" stroke="#000000" points="1752.881,-125.4517 1762.4865,-120.9814 1752.1898,-118.4859 1752.881,-125.4517"/>
<text text-anchor="middle" x="1510.7211" y="-161.3493" font-family="Courier,monospace" font-weight="bold" font-size="10.00" fill="#000000">0.3306796615127576</text>
</g>
<!-- STATE_SOURCE -->
<g id="node7" class="node">
<title>STATE_SOURCE</title>
<polygon fill="none" stroke="#000000" points="42.4515,-304.3987 44.8246,-304.4972 47.1732,-304.6447 49.4877,-304.8407 51.7587,-305.0847 53.9771,-305.376 56.134,-305.7138 58.2213,-306.0972 60.2308,-306.5252 62.1552,-306.9966 63.9875,-307.51 65.7213,-308.0641 67.3509,-308.6573 68.8711,-309.2881 70.2774,-309.9547 71.5659,-310.6553 72.7335,-311.3879 73.7776,-312.1505 74.6964,-312.9411 75.4887,-313.7575 76.1541,-314.5975 76.6926,-315.4587 77.105,-316.3388 77.3927,-317.2353 77.5574,-318.1459 77.6018,-319.068 77.5286,-319.9991 77.3412,-320.9366 77.0434,-321.878 76.6393,-322.8207 76.1334,-323.7621 75.5302,-324.6996 74.8348,-325.6307 74.0521,-326.5528 73.1874,-327.4634 72.246,-328.3599 71.2329,-329.24 70.1536,-330.1012 69.0132,-330.9411 67.8168,-331.7575 66.5693,-332.5481 65.2754,-333.3108 63.9398,-334.0434 62.5668,-334.744 61.1606,-335.4106 59.7248,-336.0413 58.2633,-336.6346 56.7792,-337.1887 55.2756,-337.7021 53.7553,-338.1735 52.2208,-338.6014 50.6744,-338.9849 49.118,-339.3227 47.5535,-339.614 45.9824,-339.858 44.4062,-340.054 42.8263,-340.2015 41.2436,-340.3 39.6595,-340.3493 38.0748,-340.3493 36.4906,-340.3 34.908,-340.2015 33.328,-340.054 31.7518,-339.858 30.1808,-339.614 28.6162,-339.3227 27.0598,-338.9849 25.5134,-338.6014 23.9789,-338.1735 22.4586,-337.7021 20.955,-337.1887 19.4709,-336.6346 18.0094,-336.0413 16.5737,-335.4106 15.1674,-334.744 13.7944,-334.0434 12.4588,-333.3108 11.1649,-332.5481 9.9174,-331.7575 8.721,-330.9411 7.5806,-330.1012 6.5013,-329.24 5.4883,-328.3599 4.5468,-327.4634 3.6821,-326.5528 2.8994,-325.6307 2.204,-324.6996 1.6009,-323.7621 1.0949,-322.8207 .6908,-321.878 .393,-320.9366 .2056,-319.9991 .1324,-319.068 .1768,-318.1459 .3416,-317.2353 .6292,-316.3388 1.0416,-315.4587 1.5801,-314.5975 2.2455,-313.7575 3.0379,-312.9411 3.9567,-312.1505 5.0008,-311.3879 6.1683,-310.6553 7.4568,-309.9547 8.8631,-309.2881 10.3833,-308.6573 12.0129,-308.0641 13.7467,-307.51 15.579,-306.9966 17.5034,-306.5252 19.513,-306.0972 21.6002,-305.7138 23.7572,-305.376 25.9755,-305.0847 28.2465,-304.8407 30.561,-304.6447 32.9096,-304.4972 35.2827,-304.3987 37.6707,-304.3493 40.0635,-304.3493 42.4515,-304.3987"/>
<text text-anchor="middle" x="38.8671" y="-319.8493" font-family="Courier,monospace" font-weight="bold" font-size="10.00" fill="#000000">SOURCE</text>
</g>
<!-- STATE_SOURCE&#45;&gt;STATE_A -->
<g id="edge11" class="edge">
<title>STATE_SOURCE&#45;&gt;STATE_A</title>
<path fill="none" stroke="#000000" d="M76.9944,-322.3493C132.2138,-322.3493 233.9002,-322.3493 289.4729,-322.3493"/>
<polygon fill="#000000" stroke="#000000" points="289.6184,-325.8494 299.6183,-322.3493 289.6183,-318.8494 289.6184,-325.8494"/>
<text text-anchor="middle" x="167.2342" y="-325.3493" font-family="Courier,monospace" font-weight="bold" font-size="10.00" fill="#000000">0.48352454001374795</text>
</g>
<!-- STATE_SOURCE&#45;&gt;STATE_B -->
<g id="edge12" class="edge">
<title>STATE_SOURCE&#45;&gt;STATE_B</title>
<path fill="none" stroke="#000000" d="M62.3886,-307.0126C120.0222,-270.4628 274.0829,-178.9231 417.7342,-147.3493 466.451,-136.6417 524.2544,-139.0859 561.6094,-142.5665"/>
<polygon fill="#000000" stroke="#000000" points="561.2794,-146.0509 571.5786,-143.5656 561.9775,-139.0858 561.2794,-146.0509"/>
<text text-anchor="middle" x="328.2342" y="-202.3493" font-family="Courier,monospace" font-weight="bold" font-size="10.00" fill="#000000">0.10198505897095514</text>
</g>
<!-- STATE_SOURCE&#45;&gt;STATE_D -->
<g id="edge13" class="edge">
<title>STATE_SOURCE&#45;&gt;STATE_D</title>
<path fill="none" stroke="#000000" d="M49.0666,-339.5616C82.0704,-392.8181 191.7744,-551.3493 328.2342,-551.3493 328.2342,-551.3493 328.2342,-551.3493 715.2211,-551.3493 820.9113,-551.3493 940.4688,-507.1325 995.7071,-484.0373"/>
<polygon fill="#000000" stroke="#000000" points="997.1045,-487.2464 1004.9443,-480.1198 994.3714,-480.802 997.1045,-487.2464"/>
<text text-anchor="middle" x="485.7342" y="-554.3493" font-family="Courier,monospace" font-weight="bold" font-size="10.00" fill="#000000">0.4144904010152968</text>
</g>
</g>
</svg>
