<?xml version="1.0" encoding="UTF-8" standalone="no"?>
<!DOCTYPE svg PUBLIC "-//W3C//DTD SVG 1.1//EN"
 "http://www.w3.org/Graphics/SVG/1.1/DTD/svg11.dtd">
<!-- Generated by graphviz version 2.40.1 (0)
 -->
<!-- Title: G Pages: 1 -->
<svg width="377pt" height="183pt"
 viewBox="0.00 0.00 377.00 183.00" xmlns="http://www.w3.org/2000/svg" xmlns:xlink="http://www.w3.org/1999/xlink">
<g id="graph0" class="graph" transform="scale(1 1) rotate(0) translate(4 179)">
<title>G</title>
<polygon fill="#ffffff" stroke="transparent" points="-4,4 -4,-179 373,-179 373,4 -4,4"/>
<g id="clust1" class="cluster">
<title>cluster_rhs</title>
<polygon fill="none" stroke="#000000" points="8,-8 8,-167 361,-167 361,-8 8,-8"/>
<text text-anchor="middle" x="184.5" y="-155" font-family="Courier,monospace" font-weight="bold" font-size="10.00" fill="#000000">dist(v0, v5) + dist(v5, v4)</text>
</g>
<!-- v0_y -->
<g id="node1" class="node">
<title>v0_y</title>
<ellipse fill="none" stroke="#000000" cx="30.5" cy="-125" rx="14.5" ry="14.5"/>
<text text-anchor="middle" x="30.5" y="-122.5" font-family="Courier,monospace" font-weight="bold" font-size="10.00" fill="#000000">v0</text>
</g>
<!-- i0_y -->
<g id="node2" class="node">
<title>i0_y</title>
<ellipse fill="none" stroke="#000000" cx="113.5" cy="-81" rx="14.5" ry="14.5"/>
<text text-anchor="middle" x="113.5" y="-78.5" font-family="Courier,monospace" font-weight="bold" font-size="10.00" fill="#000000">i0</text>
</g>
<!-- v0_y&#45;&#45;i0_y -->
<g id="edge1" class="edge">
<title>v0_y&#45;&#45;i0_y</title>
<path fill="none" stroke="#ffa500" stroke-width="2.5" d="M43.4688,-118.125C59.0616,-109.8589 85.0701,-96.0713 100.6223,-87.8267"/>
<text text-anchor="middle" x="72" y="-109" font-family="Courier,monospace" font-weight="bold" font-size="10.00" fill="#000000">11</text>
</g>
<!-- i1_y -->
<g id="node5" class="node">
<title>i1_y</title>
<ellipse fill="#c0c0c0" stroke="#000000" cx="188.5" cy="-81" rx="14.5" ry="14.5"/>
<text text-anchor="middle" x="188.5" y="-78.5" font-family="Courier,monospace" font-weight="bold" font-size="10.00" fill="#000000">i1</text>
</g>
<!-- i0_y&#45;&#45;i1_y -->
<g id="edge4" class="edge">
<title>i0_y&#45;&#45;i1_y</title>
<path fill="none" stroke="#ffa500" stroke-width="2.5" d="M128.3176,-81C141.5515,-81 160.8224,-81 173.9684,-81"/>
<text text-anchor="middle" x="151" y="-84" font-family="Courier,monospace" font-weight="bold" font-size="10.00" fill="#000000">4</text>
</g>
<!-- v1_y -->
<g id="node3" class="node">
<title>v1_y</title>
<ellipse fill="none" stroke="#000000" cx="30.5" cy="-78" rx="14.5" ry="14.5"/>
<text text-anchor="middle" x="30.5" y="-75.5" font-family="Courier,monospace" font-weight="bold" font-size="10.00" fill="#000000">v1</text>
</g>
<!-- v1_y&#45;&#45;i0_y -->
<g id="edge2" class="edge">
<title>v1_y&#45;&#45;i0_y</title>
<path fill="none" stroke="#000000" d="M45.3387,-78.5363C60.4463,-79.0824 83.7287,-79.9239 98.7897,-80.4683"/>
<text text-anchor="middle" x="72" y="-82" font-family="Courier,monospace" font-weight="bold" font-size="10.00" fill="#000000">2</text>
</g>
<!-- v2_y -->
<g id="node4" class="node">
<title>v2_y</title>
<ellipse fill="none" stroke="#000000" cx="30.5" cy="-31" rx="14.5" ry="14.5"/>
<text text-anchor="middle" x="30.5" y="-28.5" font-family="Courier,monospace" font-weight="bold" font-size="10.00" fill="#000000">v2</text>
</g>
<!-- v2_y&#45;&#45;i0_y -->
<g id="edge3" class="edge">
<title>v2_y&#45;&#45;i0_y</title>
<path fill="none" stroke="#000000" d="M43.1059,-38.5939C58.7969,-48.0463 85.4281,-64.0892 101.0474,-73.4984"/>
<text text-anchor="middle" x="72" y="-63" font-family="Courier,monospace" font-weight="bold" font-size="10.00" fill="#000000">10</text>
</g>
<!-- i2_y -->
<g id="node6" class="node">
<title>i2_y</title>
<ellipse fill="none" stroke="#000000" cx="263.5" cy="-56" rx="14.5" ry="14.5"/>
<text text-anchor="middle" x="263.5" y="-53.5" font-family="Courier,monospace" font-weight="bold" font-size="10.00" fill="#000000">i2</text>
</g>
<!-- i1_y&#45;&#45;i2_y -->
<g id="edge5" class="edge">
<title>i1_y&#45;&#45;i2_y</title>
<path fill="none" stroke="#0000ff" stroke-width="2.5" d="M202.2562,-76.4146C215.704,-71.932 236.0724,-65.1425 249.5771,-60.641"/>
<text text-anchor="middle" x="226" y="-72" font-family="Courier,monospace" font-weight="bold" font-size="10.00" fill="#000000">3</text>
</g>
<!-- v5_y -->
<g id="node9" class="node">
<title>v5_y</title>
<ellipse fill="none" stroke="#000000" cx="263.5" cy="-103" rx="14.5" ry="14.5"/>
<text text-anchor="middle" x="263.5" y="-100.5" font-family="Courier,monospace" font-weight="bold" font-size="10.00" fill="#000000">v5</text>
</g>
<!-- i1_y&#45;&#45;v5_y -->
<g id="edge8" class="edge">
<title>i1_y&#45;&#45;v5_y</title>
<path fill="none" stroke="#ffa500" stroke-width="2.5" stroke-dasharray="5,2" d="M203.1699,-83.2189C216.5787,-87.1521 236.6314,-93.0343 250.0193,-96.9614"/>
<path fill="none" stroke="transparent" stroke-width="2.5" stroke-dasharray="5,2" d="M202.6069,-85.138C216.0157,-89.0713 236.0685,-94.9534 249.4563,-98.8805"/>
<path fill="none" stroke="#0000ff" stroke-width="2.5" stroke-dasharray="5,2" d="M202.044,-87.0572C215.4528,-90.9904 235.5055,-96.8726 248.8934,-100.7997"/>
<text text-anchor="middle" x="226" y="-96" font-family="Courier,monospace" font-weight="bold" font-size="10.00" fill="#000000">0</text>
</g>
<!-- v3_y -->
<g id="node7" class="node">
<title>v3_y</title>
<ellipse fill="none" stroke="#000000" cx="338.5" cy="-45" rx="14.5" ry="14.5"/>
<text text-anchor="middle" x="338.5" y="-42.5" font-family="Courier,monospace" font-weight="bold" font-size="10.00" fill="#000000">v3</text>
</g>
<!-- i2_y&#45;&#45;v3_y -->
<g id="edge6" class="edge">
<title>i2_y&#45;&#45;v3_y</title>
<path fill="none" stroke="#000000" d="M277.9608,-53.8791C291.2416,-51.9312 310.8169,-49.0602 324.0836,-47.1144"/>
<text text-anchor="middle" x="301" y="-54" font-family="Courier,monospace" font-weight="bold" font-size="10.00" fill="#000000">3</text>
</g>
<!-- v4_y -->
<g id="node8" class="node">
<title>v4_y</title>
<ellipse fill="none" stroke="#000000" cx="338.5" cy="-92" rx="14.5" ry="14.5"/>
<text text-anchor="middle" x="338.5" y="-89.5" font-family="Courier,monospace" font-weight="bold" font-size="10.00" fill="#000000">v4</text>
</g>
<!-- i2_y&#45;&#45;v4_y -->
<g id="edge7" class="edge">
<title>i2_y&#45;&#45;v4_y</title>
<path fill="none" stroke="#0000ff" stroke-width="2.5" d="M276.9085,-62.4361C290.5599,-68.9888 311.5982,-79.0871 325.2076,-85.6196"/>
<text text-anchor="middle" x="301" y="-78" font-family="Courier,monospace" font-weight="bold" font-size="10.00" fill="#000000">4</text>
</g>
</g>
</svg>
