<?xml version="1.0" encoding="UTF-8" standalone="no"?>
<!DOCTYPE svg PUBLIC "-//W3C//DTD SVG 1.1//EN"
 "http://www.w3.org/Graphics/SVG/1.1/DTD/svg11.dtd">
<!-- Generated by graphviz version 2.40.1 (0)
 -->
<!-- Title: G Pages: 1 -->
<svg width="2156pt" height="137pt"
 viewBox="0.00 0.00 2156.11 136.60" xmlns="http://www.w3.org/2000/svg" xmlns:xlink="http://www.w3.org/1999/xlink">
<g id="graph0" class="graph" transform="scale(1 1) rotate(0) translate(4 132.6045)">
<title>G</title>
<polygon fill="#ffffff" stroke="transparent" points="-4,4 -4,-132.6045 2152.1147,-132.6045 2152.1147,4 -4,4"/>
<!-- (&#45;1, &#39;SINK&#39;) -->
<g id="node1" class="node">
<title>(&#45;1, &#39;SINK&#39;)</title>
<polygon fill="none" stroke="#000000" points="2033.9739,-34.836 2041.6636,-34.9534 2049.2737,-35.1291 2056.7732,-35.3625 2064.1317,-35.6532 2071.3198,-36.0002 2078.309,-36.4027 2085.0722,-36.8595 2091.5836,-37.3693 2097.8191,-37.9308 2103.7562,-38.5425 2109.3743,-39.2026 2114.6546,-39.9093 2119.5804,-40.6607 2124.1371,-41.4548 2128.3123,-42.2894 2132.0955,-43.1622 2135.4787,-44.0707 2138.4558,-45.0126 2141.0232,-45.9851 2143.1792,-46.9857 2144.9242,-48.0117 2146.2605,-49.0601 2147.1926,-50.1282 2147.7265,-51.2129 2147.8702,-52.3114 2147.633,-53.4206 2147.0258,-54.5375 2146.0609,-55.659 2144.7515,-56.782 2143.1121,-57.9035 2141.1577,-59.0203 2138.9043,-60.1295 2136.3684,-61.228 2133.5665,-62.3128 2130.5159,-63.3808 2127.2335,-64.4293 2123.7362,-65.4552 2120.041,-66.4558 2116.1642,-67.4284 2112.1219,-68.3702 2107.9295,-69.2788 2103.6018,-70.1515 2099.153,-70.9861 2094.5963,-71.7802 2089.9442,-72.5317 2085.2083,-73.2384 2080.3995,-73.8985 2075.5275,-74.5101 2070.6014,-75.0716 2065.6292,-75.5815 2060.6183,-76.0383 2055.5752,-76.4407 2050.5057,-76.7877 2045.4151,-77.0784 2040.3079,-77.3119 2035.1883,-77.4876 2030.0602,-77.605 2024.927,-77.6637 2019.7922,-77.6637 2014.6591,-77.605 2009.531,-77.4876 2004.4114,-77.3119 1999.3042,-77.0784 1994.2135,-76.7877 1989.1441,-76.4407 1984.101,-76.0383 1979.09,-75.5815 1974.1179,-75.0716 1969.1917,-74.5101 1964.3198,-73.8985 1959.5109,-73.2384 1954.7751,-72.5317 1950.123,-71.7802 1945.5663,-70.9861 1941.1174,-70.1515 1936.7897,-69.2788 1932.5973,-68.3702 1928.555,-67.4284 1924.6782,-66.4558 1920.983,-65.4552 1917.4858,-64.4293 1914.2034,-63.3808 1911.1527,-62.3128 1908.3509,-61.228 1905.8149,-60.1295 1903.5615,-59.0203 1901.6072,-57.9035 1899.9677,-56.782 1898.6584,-55.659 1897.6935,-54.5375 1897.0863,-53.4206 1896.8491,-52.3114 1896.9928,-51.2129 1897.5267,-50.1282 1898.4588,-49.0601 1899.7951,-48.0117 1901.54,-46.9857 1903.696,-45.9851 1906.2634,-45.0126 1909.2406,-44.0707 1912.6238,-43.1622 1916.407,-42.2894 1920.5821,-41.4548 1925.1389,-40.6607 1930.0647,-39.9093 1935.345,-39.2026 1940.963,-38.5425 1946.9001,-37.9308 1953.1356,-37.3693 1959.6471,-36.8595 1966.4103,-36.4027 1973.3995,-36.0002 1980.5875,-35.6532 1987.9461,-35.3625 1995.4456,-35.1291 2003.0557,-34.9534 2010.7453,-34.836 2018.4829,-34.7772 2026.2364,-34.7772 2033.9739,-34.836"/>
<text text-anchor="middle" x="2022.3596" y="-59.2205" font-family="Courier,monospace" font-weight="bold" font-size="10.00" fill="#000000">(&#45;1, &#39;SINK&#39;)</text>
<text text-anchor="middle" x="2022.3596" y="-48.2205" font-family="Courier,monospace" font-weight="bold" font-size="10.00" fill="#000000">0.029731961417131362</text>
</g>
<!-- (&#45;1, &#39;SOURCE&#39;) -->
<g id="node2" class="node">
<title>(&#45;1, &#39;SOURCE&#39;)</title>
<polygon fill="none" stroke="#000000" points="100.3581,-53.836 105.9786,-53.9534 111.5409,-54.1291 117.0225,-54.3625 122.401,-54.6532 127.6549,-55.0002 132.7634,-55.4027 137.7068,-55.8595 142.4661,-56.3693 147.0237,-56.9308 151.3633,-57.5425 155.4696,-58.2026 159.3291,-58.9093 162.9295,-59.6607 166.2601,-60.4548 169.3118,-61.2894 172.077,-62.1622 174.5498,-63.0707 176.7259,-64.0126 178.6025,-64.9851 180.1783,-65.9857 181.4537,-67.0117 182.4305,-68.0601 183.1117,-69.1282 183.502,-70.2129 183.607,-71.3114 183.4336,-72.4206 182.9899,-73.5375 182.2846,-74.659 181.3275,-75.782 180.1292,-76.9035 178.7008,-78.0203 177.0537,-79.1295 175.2001,-80.228 173.1522,-81.3128 170.9224,-82.3808 168.5232,-83.4293 165.9671,-84.4552 163.2662,-85.4558 160.4325,-86.4284 157.4779,-87.3702 154.4136,-88.2788 151.2504,-89.1515 147.9987,-89.9861 144.6681,-90.7802 141.2678,-91.5317 137.8063,-92.2384 134.2914,-92.8985 130.7304,-93.5101 127.1298,-94.0716 123.4955,-94.5815 119.8329,-95.0383 116.1468,-95.4407 112.4415,-95.7877 108.7206,-96.0784 104.9877,-96.3119 101.2457,-96.4876 97.4974,-96.605 93.7455,-96.6637 89.9924,-96.6637 86.2405,-96.605 82.4922,-96.4876 78.7502,-96.3119 75.0173,-96.0784 71.2964,-95.7877 67.591,-95.4407 63.9049,-95.0383 60.2424,-94.5815 56.6081,-94.0716 53.0075,-93.5101 49.4465,-92.8985 45.9316,-92.2384 42.4701,-91.5317 39.0698,-90.7802 35.7392,-89.9861 32.4874,-89.1515 29.3243,-88.2788 26.2599,-87.3702 23.3053,-86.4284 20.4717,-85.4558 17.7708,-84.4552 15.2146,-83.4293 12.8154,-82.3808 10.5857,-81.3128 8.5378,-80.228 6.6842,-79.1295 5.0371,-78.0203 3.6087,-76.9035 2.4103,-75.782 1.4533,-74.659 .748,-73.5375 .3042,-72.4206 .1309,-71.3114 .2359,-70.2129 .6261,-69.1282 1.3074,-68.0601 2.2842,-67.0117 3.5596,-65.9857 5.1354,-64.9851 7.012,-64.0126 9.1881,-63.0707 11.6609,-62.1622 14.4261,-61.2894 17.4778,-60.4548 20.8084,-59.6607 24.4088,-58.9093 28.2682,-58.2026 32.3746,-57.5425 36.7141,-56.9308 41.2718,-56.3693 46.0311,-55.8595 50.9745,-55.4027 56.083,-55.0002 61.3369,-54.6532 66.7154,-54.3625 72.1969,-54.1291 77.7593,-53.9534 83.3798,-53.836 89.0353,-53.7772 94.7025,-53.7772 100.3581,-53.836"/>
<text text-anchor="middle" x="91.8689" y="-78.2205" font-family="Courier,monospace" font-weight="bold" font-size="10.00" fill="#000000">(&#45;1, &#39;SOURCE&#39;)</text>
<text text-anchor="middle" x="91.8689" y="-67.2205" font-family="Courier,monospace" font-weight="bold" font-size="10.00" fill="#000000">1.0</text>
</g>
<!-- (0, &#39;A&#39;) -->
<g id="node3" class="node">
<title>(0, &#39;A&#39;)</title>
<polygon fill="none" stroke="#000000" points="350.5696,-83.836 357.9193,-83.9534 365.193,-84.1291 372.361,-84.3625 379.3942,-84.6532 386.2645,-85.0002 392.9447,-85.4027 399.409,-85.8595 405.6325,-86.3693 411.5924,-86.9308 417.267,-87.5425 422.6367,-88.2026 427.6836,-88.9093 432.3917,-89.6607 436.747,-90.4548 440.7375,-91.2894 444.3535,-92.1622 447.5871,-93.0707 450.4327,-94.0126 452.8866,-94.9851 454.9472,-95.9857 456.6151,-97.0117 457.8923,-98.0601 458.7832,-99.1282 459.2935,-100.2129 459.4308,-101.3114 459.2041,-102.4206 458.6238,-103.5375 457.7015,-104.659 456.45,-105.782 454.8831,-106.9035 453.0151,-108.0203 450.8614,-109.1295 448.4375,-110.228 445.7595,-111.3128 442.8437,-112.3808 439.7064,-113.4293 436.3638,-114.4552 432.8319,-115.4558 429.1265,-116.4284 425.2629,-117.3702 421.2558,-118.2788 417.1195,-119.1515 412.8673,-119.9861 408.512,-120.7802 404.0656,-121.5317 399.5391,-122.2384 394.9428,-122.8985 390.2862,-123.5101 385.5779,-124.0716 380.8255,-124.5815 376.0361,-125.0383 371.2159,-125.4407 366.3705,-125.7877 361.5049,-126.0784 356.6235,-126.3119 351.7303,-126.4876 346.8288,-126.605 341.9226,-126.6637 337.0148,-126.6637 332.1086,-126.605 327.2071,-126.4876 322.3139,-126.3119 317.4325,-126.0784 312.5669,-125.7877 307.7215,-125.4407 302.9013,-125.0383 298.1119,-124.5815 293.3596,-124.0716 288.6512,-123.5101 283.9946,-122.8985 279.3983,-122.2384 274.8719,-121.5317 270.4254,-120.7802 266.0701,-119.9861 261.818,-119.1515 257.6816,-118.2788 253.6745,-117.3702 249.8109,-116.4284 246.1055,-115.4558 242.5736,-114.4552 239.231,-113.4293 236.0937,-112.3808 233.1779,-111.3128 230.4999,-110.228 228.0761,-109.1295 225.9223,-108.0203 224.0543,-106.9035 222.4874,-105.782 221.2359,-104.659 220.3136,-103.5375 219.7333,-102.4206 219.5066,-101.3114 219.6439,-100.2129 220.1542,-99.1282 221.0451,-98.0601 222.3224,-97.0117 223.9902,-95.9857 226.0508,-94.9851 228.5047,-94.0126 231.3503,-93.0707 234.5839,-92.1622 238.1999,-91.2894 242.1905,-90.4548 246.5457,-89.6607 251.2538,-88.9093 256.3007,-88.2026 261.6704,-87.5425 267.345,-86.9308 273.3049,-86.3693 279.5285,-85.8595 285.9927,-85.4027 292.6729,-85.0002 299.5432,-84.6532 306.5765,-84.3625 313.7444,-84.1291 321.0181,-83.9534 328.3678,-83.836 335.7633,-83.7772 343.1741,-83.7772 350.5696,-83.836"/>
<text text-anchor="middle" x="339.4687" y="-108.2205" font-family="Courier,monospace" font-weight="bold" font-size="10.00" fill="#000000">(0, &#39;A&#39;)</text>
<text text-anchor="middle" x="339.4687" y="-97.2205" font-family="Courier,monospace" font-weight="bold" font-size="10.00" fill="#000000">0.11401579526142158</text>
</g>
<!-- (&#45;1, &#39;SOURCE&#39;)&#45;&gt;(0, &#39;A&#39;) -->
<g id="edge1" class="edge">
<title>(&#45;1, &#39;SOURCE&#39;)&#45;&gt;(0, &#39;A&#39;)</title>
<path fill="none" stroke="#000000" d="M166.4928,-84.2621C184.4385,-86.4365 204.0303,-88.8103 223.3705,-91.1536"/>
<polygon fill="#000000" stroke="#000000" points="223.1028,-94.6467 233.4512,-92.375 223.9448,-87.6975 223.1028,-94.6467"/>
</g>
<!-- (0, &#39;B&#39;) -->
<g id="node4" class="node">
<title>(0, &#39;B&#39;)</title>
<polygon fill="none" stroke="#000000" points="350.5696,-23.836 357.9193,-23.9534 365.193,-24.1291 372.361,-24.3625 379.3942,-24.6532 386.2645,-25.0002 392.9447,-25.4027 399.409,-25.8595 405.6325,-26.3693 411.5924,-26.9308 417.267,-27.5425 422.6367,-28.2026 427.6836,-28.9093 432.3917,-29.6607 436.747,-30.4548 440.7375,-31.2894 444.3535,-32.1622 447.5871,-33.0707 450.4327,-34.0126 452.8866,-34.9851 454.9472,-35.9857 456.6151,-37.0117 457.8923,-38.0601 458.7832,-39.1282 459.2935,-40.2129 459.4308,-41.3114 459.2041,-42.4206 458.6238,-43.5375 457.7015,-44.659 456.45,-45.782 454.8831,-46.9035 453.0151,-48.0203 450.8614,-49.1295 448.4375,-50.228 445.7595,-51.3128 442.8437,-52.3808 439.7064,-53.4293 436.3638,-54.4552 432.8319,-55.4558 429.1265,-56.4284 425.2629,-57.3702 421.2558,-58.2788 417.1195,-59.1515 412.8673,-59.9861 408.512,-60.7802 404.0656,-61.5317 399.5391,-62.2384 394.9428,-62.8985 390.2862,-63.5101 385.5779,-64.0716 380.8255,-64.5815 376.0361,-65.0383 371.2159,-65.4407 366.3705,-65.7877 361.5049,-66.0784 356.6235,-66.3119 351.7303,-66.4876 346.8288,-66.605 341.9226,-66.6637 337.0148,-66.6637 332.1086,-66.605 327.2071,-66.4876 322.3139,-66.3119 317.4325,-66.0784 312.5669,-65.7877 307.7215,-65.4407 302.9013,-65.0383 298.1119,-64.5815 293.3596,-64.0716 288.6512,-63.5101 283.9946,-62.8985 279.3983,-62.2384 274.8719,-61.5317 270.4254,-60.7802 266.0701,-59.9861 261.818,-59.1515 257.6816,-58.2788 253.6745,-57.3702 249.8109,-56.4284 246.1055,-55.4558 242.5736,-54.4552 239.231,-53.4293 236.0937,-52.3808 233.1779,-51.3128 230.4999,-50.228 228.0761,-49.1295 225.9223,-48.0203 224.0543,-46.9035 222.4874,-45.782 221.2359,-44.659 220.3136,-43.5375 219.7333,-42.4206 219.5066,-41.3114 219.6439,-40.2129 220.1542,-39.1282 221.0451,-38.0601 222.3224,-37.0117 223.9902,-35.9857 226.0508,-34.9851 228.5047,-34.0126 231.3503,-33.0707 234.5839,-32.1622 238.1999,-31.2894 242.1905,-30.4548 246.5457,-29.6607 251.2538,-28.9093 256.3007,-28.2026 261.6704,-27.5425 267.345,-26.9308 273.3049,-26.3693 279.5285,-25.8595 285.9927,-25.4027 292.6729,-25.0002 299.5432,-24.6532 306.5765,-24.3625 313.7444,-24.1291 321.0181,-23.9534 328.3678,-23.836 335.7633,-23.7772 343.1741,-23.7772 350.5696,-23.836"/>
<text text-anchor="middle" x="339.4687" y="-48.2205" font-family="Courier,monospace" font-weight="bold" font-size="10.00" fill="#000000">(0, &#39;B&#39;)</text>
<text text-anchor="middle" x="339.4687" y="-37.2205" font-family="Courier,monospace" font-weight="bold" font-size="10.00" fill="#000000">0.10151954413675898</text>
</g>
<!-- (&#45;1, &#39;SOURCE&#39;)&#45;&gt;(0, &#39;B&#39;) -->
<g id="edge2" class="edge">
<title>(&#45;1, &#39;SOURCE&#39;)&#45;&gt;(0, &#39;B&#39;)</title>
<path fill="none" stroke="#000000" d="M178.4673,-64.7279C197.913,-62.3718 218.7087,-59.8522 238.6767,-57.4328"/>
<polygon fill="#000000" stroke="#000000" points="239.2097,-60.8939 248.716,-56.2164 238.3676,-53.9447 239.2097,-60.8939"/>
</g>
<!-- (1, &#39;A&#39;) -->
<g id="node6" class="node">
<title>(1, &#39;A&#39;)</title>
<polygon fill="none" stroke="#000000" points="632.5689,-59.836 640.2585,-59.9534 647.8686,-60.1291 655.3681,-60.3625 662.7267,-60.6532 669.9147,-61.0002 676.9039,-61.4027 683.6671,-61.8595 690.1786,-62.3693 696.4141,-62.9308 702.3512,-63.5425 707.9692,-64.2026 713.2495,-64.9093 718.1753,-65.6607 722.7321,-66.4548 726.9072,-67.2894 730.6904,-68.1622 734.0736,-69.0707 737.0508,-70.0126 739.6182,-70.9851 741.7741,-71.9857 743.5191,-73.0117 744.8554,-74.0601 745.7875,-75.1282 746.3214,-76.2129 746.4651,-77.3114 746.2279,-78.4206 745.6207,-79.5375 744.6558,-80.659 743.3465,-81.782 741.707,-82.9035 739.7526,-84.0203 737.4993,-85.1295 734.9633,-86.228 732.1615,-87.3128 729.1108,-88.3808 725.8284,-89.4293 722.3312,-90.4552 718.6359,-91.4558 714.7592,-92.4284 710.7169,-93.3702 706.5245,-94.2788 702.1968,-95.1515 697.7479,-95.9861 693.1912,-96.7802 688.5391,-97.5317 683.8033,-98.2384 678.9944,-98.8985 674.1225,-99.5101 669.1963,-100.0716 664.2241,-100.5815 659.2132,-101.0383 654.1701,-101.4407 649.1006,-101.7877 644.01,-102.0784 638.9028,-102.3119 633.7832,-102.4876 628.6551,-102.605 623.522,-102.6637 618.3872,-102.6637 613.254,-102.605 608.1259,-102.4876 603.0063,-102.3119 597.8991,-102.0784 592.8085,-101.7877 587.739,-101.4407 582.6959,-101.0383 577.685,-100.5815 572.7128,-100.0716 567.7867,-99.5101 562.9147,-98.8985 558.1059,-98.2384 553.37,-97.5317 548.7179,-96.7802 544.1612,-95.9861 539.7124,-95.1515 535.3847,-94.2788 531.1923,-93.3702 527.1499,-92.4284 523.2732,-91.4558 519.578,-90.4552 516.0807,-89.4293 512.7983,-88.3808 509.7476,-87.3128 506.9458,-86.228 504.4098,-85.1295 502.1565,-84.0203 500.2021,-82.9035 498.5627,-81.782 497.2533,-80.659 496.2884,-79.5375 495.6812,-78.4206 495.444,-77.3114 495.5877,-76.2129 496.1216,-75.1282 497.0537,-74.0601 498.39,-73.0117 500.135,-71.9857 502.2909,-70.9851 504.8584,-70.0126 507.8355,-69.0707 511.2187,-68.1622 515.0019,-67.2894 519.1771,-66.4548 523.7338,-65.6607 528.6596,-64.9093 533.9399,-64.2026 539.558,-63.5425 545.4951,-62.9308 551.7306,-62.3693 558.242,-61.8595 565.0052,-61.4027 571.9944,-61.0002 579.1825,-60.6532 586.541,-60.3625 594.0405,-60.1291 601.6506,-59.9534 609.3403,-59.836 617.0778,-59.7772 624.8313,-59.7772 632.5689,-59.836"/>
<text text-anchor="middle" x="620.9546" y="-84.2205" font-family="Courier,monospace" font-weight="bold" font-size="10.00" fill="#000000">(1, &#39;A&#39;)</text>
<text text-anchor="middle" x="620.9546" y="-73.2205" font-family="Courier,monospace" font-weight="bold" font-size="10.00" fill="#000000">0.016771308806677928</text>
</g>
<!-- (0, &#39;A&#39;)&#45;&gt;(1, &#39;A&#39;) -->
<g id="edge3" class="edge">
<title>(0, &#39;A&#39;)&#45;&gt;(1, &#39;A&#39;)</title>
<path fill="none" stroke="#000000" d="M453.9598,-95.4588C471.6457,-93.9508 489.9051,-92.394 507.5666,-90.8881"/>
<polygon fill="#000000" stroke="#000000" points="508.2211,-94.3451 517.8876,-90.0082 507.6264,-87.3704 508.2211,-94.3451"/>
</g>
<!-- (1, &#39;B&#39;) -->
<g id="node7" class="node">
<title>(1, &#39;B&#39;)</title>
<polygon fill="none" stroke="#000000" points="913.5413,-10.836 920.891,-10.9534 928.1647,-11.1291 935.3327,-11.3625 942.3659,-11.6532 949.2362,-12.0002 955.9165,-12.4027 962.3807,-12.8595 968.6042,-13.3693 974.5641,-13.9308 980.2387,-14.5425 985.6084,-15.2026 990.6553,-15.9093 995.3634,-16.6607 999.7187,-17.4548 1003.7092,-18.2894 1007.3252,-19.1622 1010.5588,-20.0707 1013.4044,-21.0126 1015.8583,-21.9851 1017.919,-22.9857 1019.5868,-24.0117 1020.864,-25.0601 1021.7549,-26.1282 1022.2652,-27.2129 1022.4025,-28.3114 1022.1758,-29.4206 1021.5955,-30.5375 1020.6732,-31.659 1019.4218,-32.782 1017.8548,-33.9035 1015.9868,-35.0203 1013.8331,-36.1295 1011.4092,-37.228 1008.7312,-38.3128 1005.8154,-39.3808 1002.6781,-40.4293 999.3355,-41.4552 995.8036,-42.4558 992.0982,-43.4284 988.2346,-44.3702 984.2275,-45.2788 980.0912,-46.1515 975.839,-46.9861 971.4837,-47.7802 967.0373,-48.5317 962.5108,-49.2384 957.9145,-49.8985 953.2579,-50.5101 948.5496,-51.0716 943.7972,-51.5815 939.0078,-52.0383 934.1876,-52.4407 929.3423,-52.7877 924.4766,-53.0784 919.5952,-53.3119 914.702,-53.4876 909.8006,-53.605 904.8943,-53.6637 899.9865,-53.6637 895.0803,-53.605 890.1788,-53.4876 885.2856,-53.3119 880.4042,-53.0784 875.5386,-52.7877 870.6932,-52.4407 865.873,-52.0383 861.0836,-51.5815 856.3313,-51.0716 851.6229,-50.5101 846.9663,-49.8985 842.37,-49.2384 837.8436,-48.5317 833.3971,-47.7802 829.0419,-46.9861 824.7897,-46.1515 820.6533,-45.2788 816.6462,-44.3702 812.7826,-43.4284 809.0772,-42.4558 805.5453,-41.4552 802.2027,-40.4293 799.0654,-39.3808 796.1496,-38.3128 793.4716,-37.228 791.0478,-36.1295 788.894,-35.0203 787.0261,-33.9035 785.4591,-32.782 784.2076,-31.659 783.2853,-30.5375 782.705,-29.4206 782.4783,-28.3114 782.6156,-27.2129 783.1259,-26.1282 784.0168,-25.0601 785.2941,-24.0117 786.9619,-22.9857 789.0225,-21.9851 791.4764,-21.0126 794.322,-20.0707 797.5556,-19.1622 801.1716,-18.2894 805.1622,-17.4548 809.5174,-16.6607 814.2255,-15.9093 819.2724,-15.2026 824.6421,-14.5425 830.3167,-13.9308 836.2766,-13.3693 842.5002,-12.8595 848.9644,-12.4027 855.6446,-12.0002 862.5149,-11.6532 869.5482,-11.3625 876.7162,-11.1291 883.9898,-10.9534 891.3395,-10.836 898.735,-10.7772 906.1458,-10.7772 913.5413,-10.836"/>
<text text-anchor="middle" x="902.4404" y="-35.2205" font-family="Courier,monospace" font-weight="bold" font-size="10.00" fill="#000000">(1, &#39;B&#39;)</text>
<text text-anchor="middle" x="902.4404" y="-24.2205" font-family="Courier,monospace" font-weight="bold" font-size="10.00" fill="#000000">0.02882894308693349</text>
</g>
<!-- (0, &#39;A&#39;)&#45;&gt;(1, &#39;B&#39;) -->
<g id="edge4" class="edge">
<title>(0, &#39;A&#39;)&#45;&gt;(1, &#39;B&#39;)</title>
<path fill="none" stroke="#000000" d="M421.9024,-118.2197C505.1069,-128.6114 636.6773,-137.5333 746.7096,-111.2205 789.5131,-100.9845 833.8495,-76.9537 864.2161,-58.0648"/>
<polygon fill="#000000" stroke="#000000" points="866.2085,-60.946 872.7855,-52.6397 862.4642,-55.0315 866.2085,-60.946"/>
</g>
<!-- (0, &#39;C&#39;) -->
<g id="node5" class="node">
<title>(0, &#39;C&#39;)</title>
<polygon fill="none" stroke="#000000" points="632.0554,.164 639.4051,.0466 646.6788,-.1291 653.8468,-.3625 660.8801,-.6532 667.7504,-1.0002 674.4306,-1.4027 680.8948,-1.8595 687.1184,-2.3693 693.0782,-2.9308 698.7529,-3.5425 704.1226,-4.2026 709.1695,-4.9093 713.8775,-5.6607 718.2328,-6.4548 722.2234,-7.2894 725.8393,-8.1622 729.073,-9.0707 731.9185,-10.0126 734.3724,-10.9851 736.4331,-11.9857 738.1009,-13.0117 739.3782,-14.0601 740.269,-15.1282 740.7794,-16.2129 740.9167,-17.3114 740.69,-18.4206 740.1097,-19.5375 739.1874,-20.659 737.9359,-21.782 736.3689,-22.9035 734.501,-24.0203 732.3472,-25.1295 729.9233,-26.228 727.2454,-27.3128 724.3296,-28.3808 721.1923,-29.4293 717.8496,-30.4552 714.3178,-31.4558 710.6124,-32.4284 706.7488,-33.3702 702.7417,-34.2788 698.6053,-35.1515 694.3531,-35.9861 689.9978,-36.7802 685.5514,-37.5317 681.0249,-38.2384 676.4287,-38.8985 671.7721,-39.5101 667.0637,-40.0716 662.3113,-40.5815 657.5219,-41.0383 652.7018,-41.4407 647.8564,-41.7877 642.9908,-42.0784 638.1094,-42.3119 633.2161,-42.4876 628.3147,-42.605 623.4085,-42.6637 618.5007,-42.6637 613.5944,-42.605 608.693,-42.4876 603.7998,-42.3119 598.9183,-42.0784 594.0527,-41.7877 589.2074,-41.4407 584.3872,-41.0383 579.5978,-40.5815 574.8454,-40.0716 570.137,-39.5101 565.4804,-38.8985 560.8842,-38.2384 556.3577,-37.5317 551.9113,-36.7802 547.556,-35.9861 543.3038,-35.1515 539.1674,-34.2788 535.1604,-33.3702 531.2967,-32.4284 527.5914,-31.4558 524.0595,-30.4552 520.7169,-29.4293 517.5795,-28.3808 514.6637,-27.3128 511.9858,-26.228 509.5619,-25.1295 507.4082,-24.0203 505.5402,-22.9035 503.9732,-21.782 502.7217,-20.659 501.7995,-19.5375 501.2192,-18.4206 500.9925,-17.3114 501.1298,-16.2129 501.6401,-15.1282 502.5309,-14.0601 503.8082,-13.0117 505.476,-11.9857 507.5367,-10.9851 509.9906,-10.0126 512.8362,-9.0707 516.0698,-8.1622 519.6858,-7.2894 523.6763,-6.4548 528.0316,-5.6607 532.7397,-4.9093 537.7865,-4.2026 543.1562,-3.5425 548.8309,-2.9308 554.7907,-2.3693 561.0143,-1.8595 567.4785,-1.4027 574.1588,-1.0002 581.0291,-.6532 588.0623,-.3625 595.2303,-.1291 602.504,.0466 609.8537,.164 617.2492,.2228 624.66,.2228 632.0554,.164"/>
<text text-anchor="middle" x="620.9546" y="-24.2205" font-family="Courier,monospace" font-weight="bold" font-size="10.00" fill="#000000">(0, &#39;C&#39;)</text>
<text text-anchor="middle" x="620.9546" y="-13.2205" font-family="Courier,monospace" font-weight="bold" font-size="10.00" fill="#000000">0.07095812168167187</text>
</g>
<!-- (0, &#39;B&#39;)&#45;&gt;(0, &#39;C&#39;) -->
<g id="edge5" class="edge">
<title>(0, &#39;B&#39;)&#45;&gt;(0, &#39;C&#39;)</title>
<path fill="none" stroke="#000000" d="M453.9598,-35.4588C472.9258,-33.8417 492.5513,-32.1684 511.3918,-30.562"/>
<polygon fill="#000000" stroke="#000000" points="511.7992,-34.0401 521.4656,-29.7031 511.2044,-27.0654 511.7992,-34.0401"/>
</g>
<!-- (0, &#39;B&#39;)&#45;&gt;(1, &#39;A&#39;) -->
<g id="edge6" class="edge">
<title>(0, &#39;B&#39;)&#45;&gt;(1, &#39;A&#39;)</title>
<path fill="none" stroke="#000000" d="M428.5326,-56.6111C452.4209,-59.6662 478.6158,-63.0164 503.7766,-66.2343"/>
<polygon fill="#000000" stroke="#000000" points="503.3706,-69.7108 513.7338,-67.5077 504.2587,-62.7673 503.3706,-69.7108"/>
</g>
<!-- (0, &#39;C&#39;)&#45;&gt;(1, &#39;B&#39;) -->
<g id="edge7" class="edge">
<title>(0, &#39;C&#39;)&#45;&gt;(1, &#39;B&#39;)</title>
<path fill="none" stroke="#000000" d="M731.8012,-25.5522C745.0417,-26.0696 758.6524,-26.6015 772.1346,-27.1283"/>
<polygon fill="#000000" stroke="#000000" points="772.2822,-30.6367 782.4113,-27.5299 772.5556,-23.642 772.2822,-30.6367"/>
</g>
<!-- (2, &#39;B&#39;) -->
<g id="node9" class="node">
<title>(2, &#39;B&#39;)</title>
<polygon fill="none" stroke="#000000" points="1471.0022,-34.836 1478.6919,-34.9534 1486.302,-35.1291 1493.8015,-35.3625 1501.16,-35.6532 1508.3481,-36.0002 1515.3373,-36.4027 1522.1005,-36.8595 1528.6119,-37.3693 1534.8474,-37.9308 1540.7845,-38.5425 1546.4026,-39.2026 1551.6829,-39.9093 1556.6087,-40.6607 1561.1654,-41.4548 1565.3406,-42.2894 1569.1238,-43.1622 1572.507,-44.0707 1575.4841,-45.0126 1578.0515,-45.9851 1580.2075,-46.9857 1581.9525,-48.0117 1583.2888,-49.0601 1584.2209,-50.1282 1584.7548,-51.2129 1584.8984,-52.3114 1584.6613,-53.4206 1584.0541,-54.5375 1583.0892,-55.659 1581.7798,-56.782 1580.1404,-57.9035 1578.186,-59.0203 1575.9326,-60.1295 1573.3967,-61.228 1570.5948,-62.3128 1567.5442,-63.3808 1564.2618,-64.4293 1560.7645,-65.4552 1557.0693,-66.4558 1553.1925,-67.4284 1549.1502,-68.3702 1544.9578,-69.2788 1540.6301,-70.1515 1536.1813,-70.9861 1531.6246,-71.7802 1526.9725,-72.5317 1522.2366,-73.2384 1517.4278,-73.8985 1512.5558,-74.5101 1507.6297,-75.0716 1502.6575,-75.5815 1497.6466,-76.0383 1492.6035,-76.4407 1487.534,-76.7877 1482.4434,-77.0784 1477.3362,-77.3119 1472.2166,-77.4876 1467.0885,-77.605 1461.9553,-77.6637 1456.8205,-77.6637 1451.6874,-77.605 1446.5592,-77.4876 1441.4397,-77.3119 1436.3325,-77.0784 1431.2418,-76.7877 1426.1724,-76.4407 1421.1293,-76.0383 1416.1183,-75.5815 1411.1462,-75.0716 1406.22,-74.5101 1401.3481,-73.8985 1396.5392,-73.2384 1391.8034,-72.5317 1387.1513,-71.7802 1382.5946,-70.9861 1378.1457,-70.1515 1373.818,-69.2788 1369.6256,-68.3702 1365.5833,-67.4284 1361.7065,-66.4558 1358.0113,-65.4552 1354.5141,-64.4293 1351.2317,-63.3808 1348.181,-62.3128 1345.3792,-61.228 1342.8432,-60.1295 1340.5898,-59.0203 1338.6355,-57.9035 1336.996,-56.782 1335.6867,-55.659 1334.7217,-54.5375 1334.1146,-53.4206 1333.8774,-52.3114 1334.0211,-51.2129 1334.555,-50.1282 1335.4871,-49.0601 1336.8234,-48.0117 1338.5683,-46.9857 1340.7243,-45.9851 1343.2917,-45.0126 1346.2689,-44.0707 1349.6521,-43.1622 1353.4353,-42.2894 1357.6104,-41.4548 1362.1671,-40.6607 1367.093,-39.9093 1372.3733,-39.2026 1377.9913,-38.5425 1383.9284,-37.9308 1390.1639,-37.3693 1396.6754,-36.8595 1403.4385,-36.4027 1410.4278,-36.0002 1417.6158,-35.6532 1424.9744,-35.3625 1432.4739,-35.1291 1440.084,-34.9534 1447.7736,-34.836 1455.5112,-34.7772 1463.2647,-34.7772 1471.0022,-34.836"/>
<text text-anchor="middle" x="1459.3879" y="-59.2205" font-family="Courier,monospace" font-weight="bold" font-size="10.00" fill="#000000">(2, &#39;B&#39;)</text>
<text text-anchor="middle" x="1459.3879" y="-48.2205" font-family="Courier,monospace" font-weight="bold" font-size="10.00" fill="#000000">0.017500092867307002</text>
</g>
<!-- (1, &#39;A&#39;)&#45;&gt;(2, &#39;B&#39;) -->
<g id="edge8" class="edge">
<title>(1, &#39;A&#39;)&#45;&gt;(2, &#39;B&#39;)</title>
<path fill="none" stroke="#000000" d="M746.615,-78.0305C882.4866,-74.5022 1105.4343,-68.4833 1297.6329,-62.2205 1309.2626,-61.8415 1321.3619,-61.4282 1333.4747,-61.0015"/>
<polygon fill="#000000" stroke="#000000" points="1333.7731,-64.4932 1343.6426,-60.6404 1333.5246,-57.4976 1333.7731,-64.4932"/>
</g>
<!-- (1, &#39;C&#39;) -->
<g id="node8" class="node">
<title>(1, &#39;C&#39;)</title>
<polygon fill="none" stroke="#000000" points="1189.0029,-10.836 1196.3526,-10.9534 1203.6263,-11.1291 1210.7943,-11.3625 1217.8276,-11.6532 1224.6979,-12.0002 1231.3781,-12.4027 1237.8423,-12.8595 1244.0659,-13.3693 1250.0257,-13.9308 1255.7004,-14.5425 1261.0701,-15.2026 1266.117,-15.9093 1270.825,-16.6607 1275.1803,-17.4548 1279.1709,-18.2894 1282.7869,-19.1622 1286.0205,-20.0707 1288.866,-21.0126 1291.32,-21.9851 1293.3806,-22.9857 1295.0484,-24.0117 1296.3257,-25.0601 1297.2165,-26.1282 1297.7269,-27.2129 1297.8642,-28.3114 1297.6375,-29.4206 1297.0572,-30.5375 1296.1349,-31.659 1294.8834,-32.782 1293.3164,-33.9035 1291.4485,-35.0203 1289.2947,-36.1295 1286.8708,-37.228 1284.1929,-38.3128 1281.2771,-39.3808 1278.1398,-40.4293 1274.7971,-41.4552 1271.2653,-42.4558 1267.5599,-43.4284 1263.6963,-44.3702 1259.6892,-45.2788 1255.5528,-46.1515 1251.3006,-46.9861 1246.9454,-47.7802 1242.4989,-48.5317 1237.9724,-49.2384 1233.3762,-49.8985 1228.7196,-50.5101 1224.0112,-51.0716 1219.2588,-51.5815 1214.4695,-52.0383 1209.6493,-52.4407 1204.8039,-52.7877 1199.9383,-53.0784 1195.0569,-53.3119 1190.1636,-53.4876 1185.2622,-53.605 1180.356,-53.6637 1175.4482,-53.6637 1170.5419,-53.605 1165.6405,-53.4876 1160.7473,-53.3119 1155.8658,-53.0784 1151.0002,-52.7877 1146.1549,-52.4407 1141.3347,-52.0383 1136.5453,-51.5815 1131.7929,-51.0716 1127.0846,-50.5101 1122.428,-49.8985 1117.8317,-49.2384 1113.3052,-48.5317 1108.8588,-47.7802 1104.5035,-46.9861 1100.2513,-46.1515 1096.115,-45.2788 1092.1079,-44.3702 1088.2443,-43.4284 1084.5389,-42.4558 1081.007,-41.4552 1077.6644,-40.4293 1074.5271,-39.3808 1071.6113,-38.3128 1068.9333,-37.228 1066.5094,-36.1295 1064.3557,-35.0203 1062.4877,-33.9035 1060.9207,-32.782 1059.6693,-31.659 1058.747,-30.5375 1058.1667,-29.4206 1057.94,-28.3114 1058.0773,-27.2129 1058.5876,-26.1282 1059.4785,-25.0601 1060.7557,-24.0117 1062.4235,-22.9857 1064.4842,-21.9851 1066.9381,-21.0126 1069.7837,-20.0707 1073.0173,-19.1622 1076.6333,-18.2894 1080.6238,-17.4548 1084.9791,-16.6607 1089.6872,-15.9093 1094.734,-15.2026 1100.1038,-14.5425 1105.7784,-13.9308 1111.7383,-13.3693 1117.9618,-12.8595 1124.426,-12.4027 1131.1063,-12.0002 1137.9766,-11.6532 1145.0098,-11.3625 1152.1778,-11.1291 1159.4515,-10.9534 1166.8012,-10.836 1174.1967,-10.7772 1181.6075,-10.7772 1189.0029,-10.836"/>
<text text-anchor="middle" x="1177.9021" y="-35.2205" font-family="Courier,monospace" font-weight="bold" font-size="10.00" fill="#000000">(1, &#39;C&#39;)</text>
<text text-anchor="middle" x="1177.9021" y="-24.2205" font-family="Courier,monospace" font-weight="bold" font-size="10.00" fill="#000000">0.02015028405526415</text>
</g>
<!-- (1, &#39;B&#39;)&#45;&gt;(1, &#39;C&#39;) -->
<g id="edge9" class="edge">
<title>(1, &#39;B&#39;)&#45;&gt;(1, &#39;C&#39;)</title>
<path fill="none" stroke="#000000" d="M1020.06,-32.2205C1030.0402,-32.2205 1040.1643,-32.2205 1050.2167,-32.2205"/>
<polygon fill="#000000" stroke="#000000" points="1050.2373,-35.7206 1060.2372,-32.2205 1050.2372,-28.7206 1050.2373,-35.7206"/>
</g>
<!-- (1, &#39;C&#39;)&#45;&gt;(2, &#39;B&#39;) -->
<g id="edge10" class="edge">
<title>(1, &#39;C&#39;)&#45;&gt;(2, &#39;B&#39;)</title>
<path fill="none" stroke="#000000" d="M1277.5396,-40.7158C1294.462,-42.1586 1312.2536,-43.6755 1329.8118,-45.1726"/>
<polygon fill="#000000" stroke="#000000" points="1329.8534,-48.6887 1340.1146,-46.051 1330.4481,-41.714 1329.8534,-48.6887"/>
</g>
<!-- (2, &#39;B&#39;)&#45;&gt;(&#45;1, &#39;SINK&#39;) -->
<g id="edge11" class="edge">
<title>(2, &#39;B&#39;)&#45;&gt;(&#45;1, &#39;SINK&#39;)</title>
<path fill="none" stroke="#000000" d="M1574.2478,-61.0068C1590.0018,-61.5096 1605.9706,-61.9392 1621.1429,-62.2205 1727.5521,-64.1933 1754.1955,-64.1933 1860.6046,-62.2205 1872.458,-62.0007 1884.7975,-61.6904 1897.1409,-61.3254"/>
<polygon fill="#000000" stroke="#000000" points="1897.6122,-64.8127 1907.4998,-61.0068 1897.3969,-57.816 1897.6122,-64.8127"/>
</g>
<!-- (2, &#39;C&#39;) -->
<g id="node10" class="node">
<title>(2, &#39;C&#39;)</title>
<polygon fill="none" stroke="#000000" points="1751.9747,-10.836 1759.3243,-10.9534 1766.598,-11.1291 1773.766,-11.3625 1780.7993,-11.6532 1787.6696,-12.0002 1794.3498,-12.4027 1800.814,-12.8595 1807.0376,-13.3693 1812.9975,-13.9308 1818.6721,-14.5425 1824.0418,-15.2026 1829.0887,-15.9093 1833.7967,-16.6607 1838.152,-17.4548 1842.1426,-18.2894 1845.7586,-19.1622 1848.9922,-20.0707 1851.8377,-21.0126 1854.2917,-21.9851 1856.3523,-22.9857 1858.0201,-24.0117 1859.2974,-25.0601 1860.1883,-26.1282 1860.6986,-27.2129 1860.8359,-28.3114 1860.6092,-29.4206 1860.0289,-30.5375 1859.1066,-31.659 1857.8551,-32.782 1856.2881,-33.9035 1854.4202,-35.0203 1852.2664,-36.1295 1849.8426,-37.228 1847.1646,-38.3128 1844.2488,-39.3808 1841.1115,-40.4293 1837.7689,-41.4552 1834.237,-42.4558 1830.5316,-43.4284 1826.668,-44.3702 1822.6609,-45.2788 1818.5245,-46.1515 1814.2723,-46.9861 1809.9171,-47.7802 1805.4706,-48.5317 1800.9441,-49.2384 1796.3479,-49.8985 1791.6913,-50.5101 1786.9829,-51.0716 1782.2306,-51.5815 1777.4412,-52.0383 1772.621,-52.4407 1767.7756,-52.7877 1762.91,-53.0784 1758.0286,-53.3119 1753.1353,-53.4876 1748.2339,-53.605 1743.3277,-53.6637 1738.4199,-53.6637 1733.5136,-53.605 1728.6122,-53.4876 1723.719,-53.3119 1718.8376,-53.0784 1713.9719,-52.7877 1709.1266,-52.4407 1704.3064,-52.0383 1699.517,-51.5815 1694.7646,-51.0716 1690.0563,-50.5101 1685.3997,-49.8985 1680.8034,-49.2384 1676.2769,-48.5317 1671.8305,-47.7802 1667.4752,-46.9861 1663.223,-46.1515 1659.0867,-45.2788 1655.0796,-44.3702 1651.216,-43.4284 1647.5106,-42.4558 1643.9787,-41.4552 1640.6361,-40.4293 1637.4988,-39.3808 1634.583,-38.3128 1631.905,-37.228 1629.4811,-36.1295 1627.3274,-35.0203 1625.4594,-33.9035 1623.8924,-32.782 1622.641,-31.659 1621.7187,-30.5375 1621.1384,-29.4206 1620.9117,-28.3114 1621.049,-27.2129 1621.5593,-26.1282 1622.4502,-25.0601 1623.7274,-24.0117 1625.3952,-22.9857 1627.4559,-21.9851 1629.9098,-21.0126 1632.7554,-20.0707 1635.989,-19.1622 1639.605,-18.2894 1643.5955,-17.4548 1647.9508,-16.6607 1652.6589,-15.9093 1657.7058,-15.2026 1663.0755,-14.5425 1668.7501,-13.9308 1674.71,-13.3693 1680.9335,-12.8595 1687.3977,-12.4027 1694.078,-12.0002 1700.9483,-11.6532 1707.9815,-11.3625 1715.1495,-11.1291 1722.4232,-10.9534 1729.7729,-10.836 1737.1684,-10.7772 1744.5792,-10.7772 1751.9747,-10.836"/>
<text text-anchor="middle" x="1740.8738" y="-35.2205" font-family="Courier,monospace" font-weight="bold" font-size="10.00" fill="#000000">(2, &#39;C&#39;)</text>
<text text-anchor="middle" x="1740.8738" y="-24.2205" font-family="Courier,monospace" font-weight="bold" font-size="10.00" fill="#000000">0.01223186854982436</text>
</g>
<!-- (2, &#39;B&#39;)&#45;&gt;(2, &#39;C&#39;) -->
<g id="edge12" class="edge">
<title>(2, &#39;B&#39;)&#45;&gt;(2, &#39;C&#39;)</title>
<path fill="none" stroke="#000000" d="M1578.3553,-46.0771C1595.9154,-44.5799 1613.939,-43.0432 1631.2968,-41.5632"/>
<polygon fill="#000000" stroke="#000000" points="1631.7648,-45.0361 1641.4313,-40.6991 1631.1701,-38.0614 1631.7648,-45.0361"/>
</g>
<!-- (2, &#39;C&#39;)&#45;&gt;(&#45;1, &#39;SINK&#39;) -->
<g id="edge13" class="edge">
<title>(2, &#39;C&#39;)&#45;&gt;(&#45;1, &#39;SINK&#39;)</title>
<path fill="none" stroke="#000000" d="M1840.5113,-40.7158C1857.4337,-42.1586 1875.2253,-43.6755 1892.7835,-45.1726"/>
<polygon fill="#000000" stroke="#000000" points="1892.8251,-48.6887 1903.0863,-46.051 1893.4198,-41.714 1892.8251,-48.6887"/>
</g>
</g>
</svg>
