<?xml version="1.0" encoding="UTF-8" standalone="no"?>
<!DOCTYPE svg PUBLIC "-//W3C//DTD SVG 1.1//EN"
 "http://www.w3.org/Graphics/SVG/1.1/DTD/svg11.dtd">
<!-- Generated by graphviz version 2.40.1 (0)
 -->
<!-- Title: G Pages: 1 -->
<svg width="345pt" height="154pt"
 viewBox="0.00 0.00 344.80 154.00" xmlns="http://www.w3.org/2000/svg" xmlns:xlink="http://www.w3.org/1999/xlink">
<g id="graph0" class="graph" transform="scale(1 1) rotate(0) translate(4 150)">
<title>G</title>
<polygon fill="#ffffff" stroke="transparent" points="-4,4 -4,-150 340.8,-150 340.8,4 -4,4"/>
<!-- N0 -->
<g id="node1" class="node">
<title>N0</title>
<ellipse fill="#000000" stroke="#000000" cx="1.8" cy="-67" rx="1.8" ry="1.8"/>
</g>
<!-- N1 -->
<g id="node2" class="node">
<title>N1</title>
<ellipse fill="#000000" stroke="#000000" cx="144.6" cy="-72" rx="1.8" ry="1.8"/>
</g>
<!-- N0&#45;&gt;N1 -->
<g id="edge1" class="edge">
<title>N0&#45;&gt;N1</title>
<path fill="none" stroke="#000000" d="M3.0563,-68.4388C5.9445,-71.624 13.4387,-79.2098 21.6,-82 61.6383,-95.6881 74.4871,-82.7778 116.8,-83 120.3555,-83.0187 121.3581,-83.8919 124.8,-83 128.1118,-82.1418 131.4594,-80.5965 134.4359,-78.9302"/>
<polygon fill="#000000" stroke="#000000" points="136.4555,-81.791 142.8766,-73.3636 132.6016,-75.9473 136.4555,-81.791"/>
<text text-anchor="middle" x="73.2" y="-90" font-family="Courier,monospace" font-weight="bold" font-size="10.00" fill="#000000">a</text>
</g>
<!-- N11 -->
<g id="node4" class="node">
<title>N11</title>
<ellipse fill="#000000" stroke="#000000" cx="49.4" cy="-134" rx="1.8" ry="1.8"/>
</g>
<!-- N0&#45;&gt;N11 -->
<g id="edge3" class="edge">
<title>N0&#45;&gt;N11</title>
<path fill="none" stroke="#000000" d="M2.2734,-68.8841C3.9812,-75.4051 10.3267,-97.4121 21.6,-112 26.3703,-118.1729 33.2318,-123.6262 38.9443,-127.5594"/>
<polygon fill="#000000" stroke="#000000" points="37.3311,-130.6794 47.6601,-133.0381 41.0565,-124.753 37.3311,-130.6794"/>
<text text-anchor="middle" x="25.6" y="-122" font-family="Courier,monospace" font-weight="bold" font-size="10.00" fill="#000000">k</text>
</g>
<!-- N3 -->
<g id="node10" class="node">
<title>N3</title>
<ellipse fill="#000000" stroke="#000000" cx="49.4" cy="-67" rx="1.8" ry="1.8"/>
</g>
<!-- N0&#45;&gt;N3 -->
<g id="edge8" class="edge">
<title>N0&#45;&gt;N3</title>
<path fill="none" stroke="#000000" d="M3.8453,-67C9.5341,-67 25.8789,-67 37.3549,-67"/>
<polygon fill="#000000" stroke="#000000" points="37.4153,-70.5001 47.4153,-67 37.4153,-63.5001 37.4153,-70.5001"/>
<text text-anchor="middle" x="25.6" y="-70" font-family="Courier,monospace" font-weight="bold" font-size="10.00" fill="#000000">b</text>
</g>
<!-- N6 -->
<g id="node13" class="node">
<title>N6</title>
<ellipse fill="#000000" stroke="#000000" cx="49.4" cy="-33" rx="1.8" ry="1.8"/>
</g>
<!-- N0&#45;&gt;N6 -->
<g id="edge11" class="edge">
<title>N0&#45;&gt;N6</title>
<path fill="none" stroke="#000000" d="M3.223,-65.8841C6.4525,-63.3599 14.6,-57.0391 21.6,-52 27.4594,-47.782 34.1353,-43.2118 39.4763,-39.6109"/>
<polygon fill="#000000" stroke="#000000" points="41.5014,-42.4673 47.8753,-34.0042 37.6149,-36.6453 41.5014,-42.4673"/>
<text text-anchor="middle" x="25.6" y="-55" font-family="Courier,monospace" font-weight="bold" font-size="10.00" fill="#000000">e</text>
</g>
<!-- N8 -->
<g id="node15" class="node">
<title>N8</title>
<ellipse fill="#000000" stroke="#000000" cx="239.8" cy="-33" rx="1.8" ry="1.8"/>
</g>
<!-- N0&#45;&gt;N8 -->
<g id="edge13" class="edge">
<title>N0&#45;&gt;N8</title>
<path fill="none" stroke="#000000" d="M2.1577,-65.0671C4.3116,-54.0817 16.5821,0 49.4,0 49.4,0 49.4,0 192.2,0 208.6189,0 223.4575,-13.4248 232.0523,-23.1492"/>
<polygon fill="#000000" stroke="#000000" points="229.5564,-25.6304 238.5533,-31.2258 235.0094,-21.2412 229.5564,-25.6304"/>
<text text-anchor="middle" x="120.8" y="-3" font-family="Courier,monospace" font-weight="bold" font-size="10.00" fill="#000000">n</text>
</g>
<!-- N14 -->
<g id="node7" class="node">
<title>N14</title>
<ellipse fill="#000000" stroke="#000000" cx="192.2" cy="-66" rx="1.8" ry="1.8"/>
</g>
<!-- N1&#45;&gt;N14 -->
<g id="edge6" class="edge">
<title>N1&#45;&gt;N14</title>
<path fill="none" stroke="#000000" d="M146.6453,-71.7422C152.3341,-71.0251 168.6789,-68.9648 180.1549,-67.5183"/>
<polygon fill="#000000" stroke="#000000" points="180.7315,-70.9734 190.2153,-66.2502 179.8561,-64.0283 180.7315,-70.9734"/>
<text text-anchor="middle" x="168.4" y="-72" font-family="Courier,monospace" font-weight="bold" font-size="10.00" fill="#000000">n</text>
</g>
<!-- N2 -->
<g id="node9" class="node">
<title>N2</title>
<ellipse fill="#000000" stroke="#000000" cx="192.2" cy="-36" rx="1.8" ry="1.8"/>
</g>
<!-- N1&#45;&gt;N2 -->
<g id="edge2" class="edge">
<title>N1&#45;&gt;N2</title>
<path fill="none" stroke="#000000" d="M145.9446,-70.5054C149.0137,-67.142 156.8541,-58.8179 164.4,-53 169.6839,-48.9261 175.9995,-44.9978 181.2748,-41.9455"/>
<polygon fill="#000000" stroke="#000000" points="183.2832,-44.8353 190.3562,-36.9471 179.9079,-38.7028 183.2832,-44.8353"/>
<text text-anchor="middle" x="168.4" y="-56" font-family="Courier,monospace" font-weight="bold" font-size="10.00" fill="#000000">¶</text>
</g>
<!-- N10 -->
<g id="node3" class="node">
<title>N10</title>
<ellipse fill="#000000" stroke="#000000" cx="335" cy="-65" rx="1.8" ry="1.8"/>
</g>
<!-- N12 -->
<g id="node5" class="node">
<title>N12</title>
<ellipse fill="#000000" stroke="#000000" cx="97" cy="-135" rx="1.8" ry="1.8"/>
</g>
<!-- N11&#45;&gt;N12 -->
<g id="edge4" class="edge">
<title>N11&#45;&gt;N12</title>
<path fill="none" stroke="#000000" d="M51.4453,-134.043C57.1341,-134.1625 73.4789,-134.5059 84.9549,-134.747"/>
<polygon fill="#000000" stroke="#000000" points="84.9439,-138.2474 95.0153,-134.9583 85.091,-131.2489 84.9439,-138.2474"/>
<text text-anchor="middle" x="73.2" y="-137" font-family="Courier,monospace" font-weight="bold" font-size="10.00" fill="#000000">l</text>
</g>
<!-- N13 -->
<g id="node6" class="node">
<title>N13</title>
<ellipse fill="#000000" stroke="#000000" cx="144.6" cy="-135" rx="1.8" ry="1.8"/>
</g>
<!-- N12&#45;&gt;N13 -->
<g id="edge5" class="edge">
<title>N12&#45;&gt;N13</title>
<path fill="none" stroke="#000000" d="M99.0453,-135C104.7341,-135 121.0789,-135 132.5549,-135"/>
<polygon fill="#000000" stroke="#000000" points="132.6153,-138.5001 142.6153,-135 132.6153,-131.5001 132.6153,-138.5001"/>
<text text-anchor="middle" x="120.8" y="-138" font-family="Courier,monospace" font-weight="bold" font-size="10.00" fill="#000000">¶</text>
</g>
<!-- N15 -->
<g id="node8" class="node">
<title>N15</title>
<ellipse fill="#000000" stroke="#000000" cx="239.8" cy="-66" rx="1.8" ry="1.8"/>
</g>
<!-- N14&#45;&gt;N15 -->
<g id="edge7" class="edge">
<title>N14&#45;&gt;N15</title>
<path fill="none" stroke="#000000" d="M194.2453,-66C199.9341,-66 216.2789,-66 227.7549,-66"/>
<polygon fill="#000000" stroke="#000000" points="227.8153,-69.5001 237.8153,-66 227.8153,-62.5001 227.8153,-69.5001"/>
<text text-anchor="middle" x="216" y="-69" font-family="Courier,monospace" font-weight="bold" font-size="10.00" fill="#000000">¶</text>
</g>
<!-- N14&#45;&gt;N8 -->
<g id="edge17" class="edge">
<title>N14&#45;&gt;N8</title>
<path fill="none" stroke="#ff0000" stroke-dasharray="5,2" d="M193.7837,-64.902C199.3168,-61.0661 218.0883,-48.0522 229.8776,-39.879"/>
<polygon fill="#ff0000" stroke="#ff0000" points="231.9374,-42.7098 238.1615,-34.1359 227.9492,-36.9571 231.9374,-42.7098"/>
</g>
<!-- N4 -->
<g id="node11" class="node">
<title>N4</title>
<ellipse fill="#000000" stroke="#000000" cx="97" cy="-67" rx="1.8" ry="1.8"/>
</g>
<!-- N3&#45;&gt;N4 -->
<g id="edge9" class="edge">
<title>N3&#45;&gt;N4</title>
<path fill="none" stroke="#000000" d="M51.4453,-67C57.1341,-67 73.4789,-67 84.9549,-67"/>
<polygon fill="#000000" stroke="#000000" points="85.0153,-70.5001 95.0153,-67 85.0153,-63.5001 85.0153,-70.5001"/>
<text text-anchor="middle" x="73.2" y="-70" font-family="Courier,monospace" font-weight="bold" font-size="10.00" fill="#000000">a</text>
</g>
<!-- N4&#45;&gt;N1 -->
<g id="edge18" class="edge">
<title>N4&#45;&gt;N1</title>
<path fill="none" stroke="#ff0000" stroke-dasharray="5,2" d="M99.0453,-67.2148C104.7341,-67.8124 121.0789,-69.5293 132.5549,-70.7348"/>
<polygon fill="#ff0000" stroke="#ff0000" points="132.3043,-74.2276 142.6153,-71.7915 133.0357,-67.2659 132.3043,-74.2276"/>
</g>
<!-- N5 -->
<g id="node12" class="node">
<title>N5</title>
<ellipse fill="#000000" stroke="#000000" cx="144.6" cy="-46" rx="1.8" ry="1.8"/>
</g>
<!-- N4&#45;&gt;N5 -->
<g id="edge10" class="edge">
<title>N4&#45;&gt;N5</title>
<path fill="none" stroke="#000000" d="M98.7485,-65.5867C102.0751,-62.9603 109.6253,-57.2956 116.8,-54 121.8915,-51.6613 127.825,-49.8417 132.8996,-48.5328"/>
<polygon fill="#000000" stroke="#000000" points="133.7806,-51.9224 142.7773,-46.3268 132.2549,-45.0907 133.7806,-51.9224"/>
<text text-anchor="middle" x="120.8" y="-57" font-family="Courier,monospace" font-weight="bold" font-size="10.00" fill="#000000">¶</text>
</g>
<!-- N7 -->
<g id="node14" class="node">
<title>N7</title>
<ellipse fill="#000000" stroke="#000000" cx="97" cy="-33" rx="1.8" ry="1.8"/>
</g>
<!-- N6&#45;&gt;N7 -->
<g id="edge12" class="edge">
<title>N6&#45;&gt;N7</title>
<path fill="none" stroke="#000000" d="M51.4453,-33C57.1341,-33 73.4789,-33 84.9549,-33"/>
<polygon fill="#000000" stroke="#000000" points="85.0153,-36.5001 95.0153,-33 85.0153,-29.5001 85.0153,-36.5001"/>
<text text-anchor="middle" x="73.2" y="-36" font-family="Courier,monospace" font-weight="bold" font-size="10.00" fill="#000000">¶</text>
</g>
<!-- N9 -->
<g id="node16" class="node">
<title>N9</title>
<ellipse fill="#000000" stroke="#000000" cx="287.4" cy="-65" rx="1.8" ry="1.8"/>
</g>
<!-- N8&#45;&gt;N9 -->
<g id="edge14" class="edge">
<title>N8&#45;&gt;N9</title>
<path fill="none" stroke="#000000" d="M241.3837,-34.0647C246.8604,-37.7465 265.3066,-50.1473 277.1146,-58.0854"/>
<polygon fill="#000000" stroke="#000000" points="275.5098,-61.2239 285.7615,-63.8985 279.4152,-55.4146 275.5098,-61.2239"/>
<text text-anchor="middle" x="263.6" y="-53" font-family="Courier,monospace" font-weight="bold" font-size="10.00" fill="#000000">a</text>
</g>
<!-- N9&#45;&gt;N1 -->
<g id="edge16" class="edge">
<title>N9&#45;&gt;N1</title>
<path fill="none" stroke="#ff0000" stroke-dasharray="5,2" d="M285.6641,-65.504C279.6207,-67.2479 258.928,-73.1309 241.6,-77 232.0714,-79.1276 229.7124,-80.0053 220,-81 198.9499,-83.1558 193.5591,-81.7778 172.4,-82 168.8446,-82.0373 167.8588,-82.8239 164.4,-82 161.2532,-81.2504 158.0397,-79.9161 155.142,-78.4615"/>
<polygon fill="#ff0000" stroke="#ff0000" points="156.7311,-75.3346 146.3451,-73.2413 153.1588,-81.3545 156.7311,-75.3346"/>
</g>
<!-- N9&#45;&gt;N10 -->
<g id="edge15" class="edge">
<title>N9&#45;&gt;N10</title>
<path fill="none" stroke="#000000" d="M289.4453,-65C295.1341,-65 311.4789,-65 322.9549,-65"/>
<polygon fill="#000000" stroke="#000000" points="323.0153,-68.5001 333.0153,-65 323.0153,-61.5001 323.0153,-68.5001"/>
<text text-anchor="middle" x="311.2" y="-68" font-family="Courier,monospace" font-weight="bold" font-size="10.00" fill="#000000">¶</text>
</g>
</g>
</svg>
