<?xml version="1.0" encoding="UTF-8" standalone="no"?>
<!DOCTYPE svg PUBLIC "-//W3C//DTD SVG 1.1//EN"
 "http://www.w3.org/Graphics/SVG/1.1/DTD/svg11.dtd">
<!-- Generated by graphviz version 2.40.1 (0)
 -->
<!-- Title: G Pages: 1 -->
<svg width="217pt" height="187pt"
 viewBox="0.00 0.00 217.00 187.00" xmlns="http://www.w3.org/2000/svg" xmlns:xlink="http://www.w3.org/1999/xlink">
<g id="graph0" class="graph" transform="scale(1 1) rotate(0) translate(4 183)">
<title>G</title>
<polygon fill="#ffffff" stroke="transparent" points="-4,4 -4,-183 213,-183 213,4 -4,4"/>
<!-- Bear -->
<g id="node1" class="node">
<title>Bear</title>
<polygon fill="none" stroke="#000000" points="102.8552,-179.1616 3.8552,-179.1616 3.8552,-143.1616 102.8552,-143.1616 102.8552,-179.1616"/>
<text text-anchor="middle" x="53.3552" y="-164.1616" font-family="Courier,monospace" font-weight="bold" font-size="10.00" fill="#000000">Bear</text>
<text text-anchor="middle" x="53.3552" y="-153.1616" font-family="Courier,monospace" font-weight="bold" font-size="10.00" fill="#000000">seq: ATTCCC</text>
</g>
<!-- Cat -->
<g id="node2" class="node">
<title>Cat</title>
<polygon fill="none" stroke="#000000" points="208.842,-133.7163 109.842,-133.7163 109.842,-97.7163 208.842,-97.7163 208.842,-133.7163"/>
<text text-anchor="middle" x="159.342" y="-118.7163" font-family="Courier,monospace" font-weight="bold" font-size="10.00" fill="#000000">Cat</text>
<text text-anchor="middle" x="159.342" y="-107.7163" font-family="Courier,monospace" font-weight="bold" font-size="10.00" fill="#000000">seq: ACTGGT</text>
</g>
<!-- Lion -->
<g id="node3" class="node">
<title>Lion</title>
<polygon fill="none" stroke="#000000" points="171.8924,-35.6373 72.8924,-35.6373 72.8924,.3627 171.8924,.3627 171.8924,-35.6373"/>
<text text-anchor="middle" x="122.3924" y="-20.6373" font-family="Courier,monospace" font-weight="bold" font-size="10.00" fill="#000000">Lion</text>
<text text-anchor="middle" x="122.3924" y="-9.6373" font-family="Courier,monospace" font-weight="bold" font-size="10.00" fill="#000000">seq: ACTGCT</text>
</g>
<!-- i0 -->
<g id="node4" class="node">
<title>i0</title>
<polygon fill="none" stroke="#000000" points="86.7067,-132.9067 32.7067,-132.9067 32.7067,-96.9067 86.7067,-96.9067 86.7067,-132.9067"/>
<text text-anchor="middle" x="59.7067" y="-112.4067" font-family="Courier,monospace" font-weight="bold" font-size="10.00" fill="#000000">i0</text>
</g>
<!-- i0&#45;&#45;Bear -->
<g id="edge3" class="edge">
<title>i0&#45;&#45;Bear</title>
<path fill="none" stroke="#000000" d="M57.2329,-132.9225C56.7731,-136.2709 56.2926,-139.7697 55.8327,-143.1189"/>
</g>
<!-- i0&#45;&#45;Cat -->
<g id="edge2" class="edge">
<title>i0&#45;&#45;Cat</title>
<path fill="none" stroke="#000000" d="M86.9325,-115.1279C93.9618,-115.185 101.7525,-115.2483 109.5426,-115.3116"/>
</g>
<!-- i1 -->
<g id="node5" class="node">
<title>i1</title>
<polygon fill="none" stroke="#000000" points="53.7123,-82.7211 -.2877,-82.7211 -.2877,-46.7211 53.7123,-46.7211 53.7123,-82.7211"/>
<text text-anchor="middle" x="26.7123" y="-62.2211" font-family="Courier,monospace" font-weight="bold" font-size="10.00" fill="#000000">i1</text>
</g>
<!-- i0&#45;&#45;i1 -->
<g id="edge1" class="edge">
<title>i0&#45;&#45;i1</title>
<path fill="none" stroke="#000000" d="M47.795,-96.7886C44.8416,-92.2963 41.6752,-87.4802 38.7174,-82.9812"/>
</g>
<!-- i1&#45;&#45;Lion -->
<g id="edge4" class="edge">
<title>i1&#45;&#45;Lion</title>
<path fill="none" stroke="#000000" d="M53.8744,-51.3547C63.7087,-46.5153 74.9864,-40.9656 85.5154,-35.7843"/>
</g>
</g>
</svg>
