<?xml version="1.0" encoding="UTF-8" standalone="no"?>
<!DOCTYPE svg PUBLIC "-//W3C//DTD SVG 1.1//EN"
 "http://www.w3.org/Graphics/SVG/1.1/DTD/svg11.dtd">
<!-- Generated by graphviz version 2.40.1 (0)
 -->
<!-- Title: G Pages: 1 -->
<svg width="2064pt" height="193pt"
 viewBox="0.00 0.00 2064.25 193.44" xmlns="http://www.w3.org/2000/svg" xmlns:xlink="http://www.w3.org/1999/xlink">
<g id="graph0" class="graph" transform="scale(1 1) rotate(0) translate(4 189.441)">
<title>G</title>
<polygon fill="#ffffff" stroke="transparent" points="-4,4 -4,-189.441 2060.2457,-189.441 2060.2457,4 -4,4"/>
<text text-anchor="middle" x="1028.1229" y="-170.241" font-family="Times,serif" font-size="14.00" fill="#000000">ALL possible right&#45;hand sides (backward)</text>
<!-- ((&#45;1, &#39;SINK&#39;), 0) -->
<g id="node1" class="node">
<title>((&#45;1, &#39;SINK&#39;), 0)</title>
<polygon fill="none" stroke="#000000" points="1957.8385,-48.836 1964.4781,-48.9534 1971.0489,-49.1291 1977.5243,-49.3625 1983.878,-49.6532 1990.0845,-50.0002 1996.1193,-50.4027 2001.9589,-50.8595 2007.5811,-51.3693 2012.9651,-51.9308 2018.0914,-52.5425 2022.9423,-53.2026 2027.5015,-53.9093 2031.7547,-54.6607 2035.6892,-55.4548 2039.2941,-56.2894 2042.5607,-57.1622 2045.4819,-58.0707 2048.0525,-59.0126 2050.2693,-59.9851 2052.1309,-60.9857 2053.6375,-62.0117 2054.7914,-63.0601 2055.5962,-64.1282 2056.0572,-65.2129 2056.1812,-66.3114 2055.9764,-67.4206 2055.4522,-68.5375 2054.619,-69.659 2053.4885,-70.782 2052.0729,-71.9035 2050.3854,-73.0203 2048.4398,-74.1295 2046.2501,-75.228 2043.8309,-76.3128 2041.1968,-77.3808 2038.3626,-78.4293 2035.343,-79.4552 2032.1524,-80.4558 2028.805,-81.4284 2025.3147,-82.3702 2021.6948,-83.2788 2017.9581,-84.1515 2014.1168,-84.9861 2010.1823,-85.7802 2006.1655,-86.5317 2002.0764,-87.2384 1997.9243,-87.8985 1993.7176,-88.5101 1989.4642,-89.0716 1985.171,-89.5815 1980.8444,-90.0383 1976.4899,-90.4407 1972.1127,-90.7877 1967.7173,-91.0784 1963.3075,-91.3119 1958.8871,-91.4876 1954.4592,-91.605 1950.0271,-91.6637 1945.5934,-91.6637 1941.1613,-91.605 1936.7334,-91.4876 1932.313,-91.3119 1927.9032,-91.0784 1923.5078,-90.7877 1919.1306,-90.4407 1914.7761,-90.0383 1910.4495,-89.5815 1906.1563,-89.0716 1901.9029,-88.5101 1897.6962,-87.8985 1893.5441,-87.2384 1889.455,-86.5317 1885.4382,-85.7802 1881.5037,-84.9861 1877.6624,-84.1515 1873.9257,-83.2788 1870.3058,-82.3702 1866.8155,-81.4284 1863.4681,-80.4558 1860.2775,-79.4552 1857.2579,-78.4293 1854.4237,-77.3808 1851.7896,-76.3128 1849.3704,-75.228 1847.1807,-74.1295 1845.2351,-73.0203 1843.5476,-71.9035 1842.132,-70.782 1841.0015,-69.659 1840.1683,-68.5375 1839.6441,-67.4206 1839.4393,-66.3114 1839.5633,-65.2129 1840.0243,-64.1282 1840.8291,-63.0601 1841.983,-62.0117 1843.4896,-60.9857 1845.3512,-59.9851 1847.568,-59.0126 1850.1386,-58.0707 1853.0598,-57.1622 1856.3264,-56.2894 1859.9313,-55.4548 1863.8658,-54.6607 1868.119,-53.9093 1872.6782,-53.2026 1877.5291,-52.5425 1882.6554,-51.9308 1888.0394,-51.3693 1893.6616,-50.8595 1899.5012,-50.4027 1905.536,-50.0002 1911.7425,-49.6532 1918.0962,-49.3625 1924.5715,-49.1291 1931.1424,-48.9534 1937.782,-48.836 1944.4629,-48.7772 1951.1576,-48.7772 1957.8385,-48.836"/>
<text text-anchor="middle" x="1947.8102" y="-73.2205" font-family="Courier,monospace" font-weight="bold" font-size="10.00" fill="#000000">((&#45;1, &#39;SINK&#39;), 0)</text>
<text text-anchor="middle" x="1947.8102" y="-62.2205" font-family="Courier,monospace" font-weight="bold" font-size="10.00" fill="#000000">1.0</text>
</g>
<!-- ((&#45;1, &#39;SOURCE&#39;), 0) -->
<g id="node2" class="node">
<title>((&#45;1, &#39;SOURCE&#39;), 0)</title>
<polygon fill="none" stroke="#000000" points="130.8317,-64.836 138.1814,-64.9534 145.4551,-65.1291 152.6231,-65.3625 159.6563,-65.6532 166.5266,-66.0002 173.2069,-66.4027 179.6711,-66.8595 185.8947,-67.3693 191.8545,-67.9308 197.5291,-68.5425 202.8989,-69.2026 207.9457,-69.9093 212.6538,-70.6607 217.0091,-71.4548 220.9996,-72.2894 224.6156,-73.1622 227.8492,-74.0707 230.6948,-75.0126 233.1487,-75.9851 235.2094,-76.9857 236.8772,-78.0117 238.1544,-79.0601 239.0453,-80.1282 239.5556,-81.2129 239.6929,-82.3114 239.4662,-83.4206 238.8859,-84.5375 237.9636,-85.659 236.7122,-86.782 235.1452,-87.9035 233.2772,-89.0203 231.1235,-90.1295 228.6996,-91.228 226.0216,-92.3128 223.1058,-93.3808 219.9685,-94.4293 216.6259,-95.4552 213.094,-96.4558 209.3886,-97.4284 205.525,-98.3702 201.518,-99.2788 197.3816,-100.1515 193.1294,-100.9861 188.7741,-101.7802 184.3277,-102.5317 179.8012,-103.2384 175.2049,-103.8985 170.5483,-104.5101 165.84,-105.0716 161.0876,-105.5815 156.2982,-106.0383 151.478,-106.4407 146.6327,-106.7877 141.7671,-107.0784 136.8856,-107.3119 131.9924,-107.4876 127.091,-107.605 122.1847,-107.6637 117.2769,-107.6637 112.3707,-107.605 107.4693,-107.4876 102.576,-107.3119 97.6946,-107.0784 92.829,-106.7877 87.9836,-106.4407 83.1635,-106.0383 78.3741,-105.5815 73.6217,-105.0716 68.9133,-104.5101 64.2567,-103.8985 59.6605,-103.2384 55.134,-102.5317 50.6876,-101.7802 46.3323,-100.9861 42.0801,-100.1515 37.9437,-99.2788 33.9366,-98.3702 30.073,-97.4284 26.3676,-96.4558 22.8358,-95.4552 19.4931,-94.4293 16.3558,-93.3808 13.44,-92.3128 10.7621,-91.228 8.3382,-90.1295 6.1844,-89.0203 4.3165,-87.9035 2.7495,-86.782 1.498,-85.659 .5757,-84.5375 -.0046,-83.4206 -.2313,-82.3114 -.094,-81.2129 .4164,-80.1282 1.3072,-79.0601 2.5845,-78.0117 4.2523,-76.9857 6.313,-75.9851 8.7669,-75.0126 11.6124,-74.0707 14.846,-73.1622 18.462,-72.2894 22.4526,-71.4548 26.8079,-70.6607 31.5159,-69.9093 36.5628,-69.2026 41.9325,-68.5425 47.6072,-67.9308 53.567,-67.3693 59.7906,-66.8595 66.2548,-66.4027 72.935,-66.0002 79.8053,-65.6532 86.8386,-65.3625 94.0066,-65.1291 101.2803,-64.9534 108.63,-64.836 116.0254,-64.7772 123.4362,-64.7772 130.8317,-64.836"/>
<text text-anchor="middle" x="119.7308" y="-89.2205" font-family="Courier,monospace" font-weight="bold" font-size="10.00" fill="#000000">((&#45;1, &#39;SOURCE&#39;), 0)</text>
<text text-anchor="middle" x="119.7308" y="-78.2205" font-family="Courier,monospace" font-weight="bold" font-size="10.00" fill="#000000">0.0386718851718165</text>
</g>
<!-- ((0, &#39;A&#39;), 0) -->
<g id="node3" class="node">
<title>((0, &#39;A&#39;), 0)</title>
<polygon fill="none" stroke="#000000" points="681.755,-64.836 689.1047,-64.9534 696.3784,-65.1291 703.5464,-65.3625 710.5796,-65.6532 717.45,-66.0002 724.1302,-66.4027 730.5944,-66.8595 736.818,-67.3693 742.7778,-67.9308 748.4525,-68.5425 753.8222,-69.2026 758.869,-69.9093 763.5771,-70.6607 767.9324,-71.4548 771.923,-72.2894 775.5389,-73.1622 778.7725,-74.0707 781.6181,-75.0126 784.072,-75.9851 786.1327,-76.9857 787.8005,-78.0117 789.0778,-79.0601 789.9686,-80.1282 790.479,-81.2129 790.6163,-82.3114 790.3896,-83.4206 789.8092,-84.5375 788.887,-85.659 787.6355,-86.782 786.0685,-87.9035 784.2006,-89.0203 782.0468,-90.1295 779.6229,-91.228 776.945,-92.3128 774.0292,-93.3808 770.8918,-94.4293 767.5492,-95.4552 764.0174,-96.4558 760.312,-97.4284 756.4483,-98.3702 752.4413,-99.2788 748.3049,-100.1515 744.0527,-100.9861 739.6974,-101.7802 735.251,-102.5317 730.7245,-103.2384 726.1283,-103.8985 721.4717,-104.5101 716.7633,-105.0716 712.0109,-105.5815 707.2215,-106.0383 702.4014,-106.4407 697.556,-106.7877 692.6904,-107.0784 687.809,-107.3119 682.9157,-107.4876 678.0143,-107.605 673.1081,-107.6637 668.2002,-107.6637 663.294,-107.605 658.3926,-107.4876 653.4993,-107.3119 648.6179,-107.0784 643.7523,-106.7877 638.9069,-106.4407 634.0868,-106.0383 629.2974,-105.5815 624.545,-105.0716 619.8366,-104.5101 615.18,-103.8985 610.5838,-103.2384 606.0573,-102.5317 601.6109,-101.7802 597.2556,-100.9861 593.0034,-100.1515 588.867,-99.2788 584.86,-98.3702 580.9963,-97.4284 577.2909,-96.4558 573.7591,-95.4552 570.4165,-94.4293 567.2791,-93.3808 564.3633,-92.3128 561.6854,-91.228 559.2615,-90.1295 557.1077,-89.0203 555.2398,-87.9035 553.6728,-86.782 552.4213,-85.659 551.4991,-84.5375 550.9187,-83.4206 550.692,-82.3114 550.8293,-81.2129 551.3397,-80.1282 552.2305,-79.0601 553.5078,-78.0117 555.1756,-76.9857 557.2363,-75.9851 559.6902,-75.0126 562.5358,-74.0707 565.7694,-73.1622 569.3853,-72.2894 573.3759,-71.4548 577.7312,-70.6607 582.4393,-69.9093 587.4861,-69.2026 592.8558,-68.5425 598.5305,-67.9308 604.4903,-67.3693 610.7139,-66.8595 617.1781,-66.4027 623.8583,-66.0002 630.7287,-65.6532 637.7619,-65.3625 644.9299,-65.1291 652.2036,-64.9534 659.5533,-64.836 666.9488,-64.7772 674.3595,-64.7772 681.755,-64.836"/>
<text text-anchor="middle" x="670.6542" y="-89.2205" font-family="Courier,monospace" font-weight="bold" font-size="10.00" fill="#000000">((0, &#39;A&#39;), 0)</text>
<text text-anchor="middle" x="670.6542" y="-78.2205" font-family="Courier,monospace" font-weight="bold" font-size="10.00" fill="#000000">0.17995742356284505</text>
</g>
<!-- ((&#45;1, &#39;SOURCE&#39;), 0)&#45;&gt;((0, &#39;A&#39;), 0) -->
<g id="edge1" class="edge">
<title>((&#45;1, &#39;SOURCE&#39;), 0)&#45;&gt;((0, &#39;A&#39;), 0)</title>
<path fill="none" stroke="#000000" d="M237.5797,-86.2205C327.3057,-86.2205 450.6566,-86.2205 542.769,-86.2205"/>
<polygon fill="#000000" stroke="#000000" points="542.993,-89.7206 552.993,-86.2205 542.993,-82.7206 542.993,-89.7206"/>
</g>
<!-- ((0, &#39;B&#39;), 0) -->
<g id="node4" class="node">
<title>((0, &#39;B&#39;), 0)</title>
<polygon fill="none" stroke="#000000" points="406.2934,-114.836 413.6431,-114.9534 420.9168,-115.1291 428.0847,-115.3625 435.118,-115.6532 441.9883,-116.0002 448.6685,-116.4027 455.1327,-116.8595 461.3563,-117.3693 467.3162,-117.9308 472.9908,-118.5425 478.3605,-119.2026 483.4074,-119.9093 488.1155,-120.6607 492.4707,-121.4548 496.4613,-122.2894 500.0773,-123.1622 503.3109,-124.0707 506.1565,-125.0126 508.6104,-125.9851 510.671,-126.9857 512.3388,-128.0117 513.6161,-129.0601 514.507,-130.1282 515.0173,-131.2129 515.1546,-132.3114 514.9279,-133.4206 514.3476,-134.5375 513.4253,-135.659 512.1738,-136.782 510.6069,-137.9035 508.7389,-139.0203 506.5851,-140.1295 504.1613,-141.228 501.4833,-142.3128 498.5675,-143.3808 495.4302,-144.4293 492.0876,-145.4552 488.5557,-146.4558 484.8503,-147.4284 480.9867,-148.3702 476.9796,-149.2788 472.8432,-150.1515 468.5911,-150.9861 464.2358,-151.7802 459.7893,-152.5317 455.2629,-153.2384 450.6666,-153.8985 446.01,-154.5101 441.3016,-155.0716 436.5493,-155.5815 431.7599,-156.0383 426.9397,-156.4407 422.0943,-156.7877 417.2287,-157.0784 412.3473,-157.3119 407.4541,-157.4876 402.5526,-157.605 397.6464,-157.6637 392.7386,-157.6637 387.8323,-157.605 382.9309,-157.4876 378.0377,-157.3119 373.1563,-157.0784 368.2907,-156.7877 363.4453,-156.4407 358.6251,-156.0383 353.8357,-155.5815 349.0833,-155.0716 344.375,-154.5101 339.7184,-153.8985 335.1221,-153.2384 330.5956,-152.5317 326.1492,-151.7802 321.7939,-150.9861 317.5417,-150.1515 313.4054,-149.2788 309.3983,-148.3702 305.5347,-147.4284 301.8293,-146.4558 298.2974,-145.4552 294.9548,-144.4293 291.8175,-143.3808 288.9017,-142.3128 286.2237,-141.228 283.7998,-140.1295 281.6461,-139.0203 279.7781,-137.9035 278.2112,-136.782 276.9597,-135.659 276.0374,-134.5375 275.4571,-133.4206 275.2304,-132.3114 275.3677,-131.2129 275.878,-130.1282 276.7689,-129.0601 278.0461,-128.0117 279.7139,-126.9857 281.7746,-125.9851 284.2285,-125.0126 287.0741,-124.0707 290.3077,-123.1622 293.9237,-122.2894 297.9142,-121.4548 302.2695,-120.6607 306.9776,-119.9093 312.0245,-119.2026 317.3942,-118.5425 323.0688,-117.9308 329.0287,-117.3693 335.2522,-116.8595 341.7165,-116.4027 348.3967,-116.0002 355.267,-115.6532 362.3002,-115.3625 369.4682,-115.1291 376.7419,-114.9534 384.0916,-114.836 391.4871,-114.7772 398.8979,-114.7772 406.2934,-114.836"/>
<text text-anchor="middle" x="395.1925" y="-139.2205" font-family="Courier,monospace" font-weight="bold" font-size="10.00" fill="#000000">((0, &#39;B&#39;), 0)</text>
<text text-anchor="middle" x="395.1925" y="-128.2205" font-family="Courier,monospace" font-weight="bold" font-size="10.00" fill="#000000">0.05697748461908122</text>
</g>
<!-- ((&#45;1, &#39;SOURCE&#39;), 0)&#45;&gt;((0, &#39;B&#39;), 0) -->
<g id="edge2" class="edge">
<title>((&#45;1, &#39;SOURCE&#39;), 0)&#45;&gt;((0, &#39;B&#39;), 0)</title>
<path fill="none" stroke="#000000" d="M197.1953,-100.2813C227.7682,-105.8307 263.2761,-112.2759 295.7105,-118.1632"/>
<polygon fill="#000000" stroke="#000000" points="295.2044,-121.6284 305.6688,-119.9707 296.4547,-114.741 295.2044,-121.6284"/>
</g>
<!-- ((0, &#39;B&#39;), 1) -->
<g id="node5" class="node">
<title>((0, &#39;B&#39;), 1)</title>
<polygon fill="none" stroke="#000000" points="406.2934,-10.836 413.6431,-10.9534 420.9168,-11.1291 428.0847,-11.3625 435.118,-11.6532 441.9883,-12.0002 448.6685,-12.4027 455.1327,-12.8595 461.3563,-13.3693 467.3162,-13.9308 472.9908,-14.5425 478.3605,-15.2026 483.4074,-15.9093 488.1155,-16.6607 492.4707,-17.4548 496.4613,-18.2894 500.0773,-19.1622 503.3109,-20.0707 506.1565,-21.0126 508.6104,-21.9851 510.671,-22.9857 512.3388,-24.0117 513.6161,-25.0601 514.507,-26.1282 515.0173,-27.2129 515.1546,-28.3114 514.9279,-29.4206 514.3476,-30.5375 513.4253,-31.659 512.1738,-32.782 510.6069,-33.9035 508.7389,-35.0203 506.5851,-36.1295 504.1613,-37.228 501.4833,-38.3128 498.5675,-39.3808 495.4302,-40.4293 492.0876,-41.4552 488.5557,-42.4558 484.8503,-43.4284 480.9867,-44.3702 476.9796,-45.2788 472.8432,-46.1515 468.5911,-46.9861 464.2358,-47.7802 459.7893,-48.5317 455.2629,-49.2384 450.6666,-49.8985 446.01,-50.5101 441.3016,-51.0716 436.5493,-51.5815 431.7599,-52.0383 426.9397,-52.4407 422.0943,-52.7877 417.2287,-53.0784 412.3473,-53.3119 407.4541,-53.4876 402.5526,-53.605 397.6464,-53.6637 392.7386,-53.6637 387.8323,-53.605 382.9309,-53.4876 378.0377,-53.3119 373.1563,-53.0784 368.2907,-52.7877 363.4453,-52.4407 358.6251,-52.0383 353.8357,-51.5815 349.0833,-51.0716 344.375,-50.5101 339.7184,-49.8985 335.1221,-49.2384 330.5956,-48.5317 326.1492,-47.7802 321.7939,-46.9861 317.5417,-46.1515 313.4054,-45.2788 309.3983,-44.3702 305.5347,-43.4284 301.8293,-42.4558 298.2974,-41.4552 294.9548,-40.4293 291.8175,-39.3808 288.9017,-38.3128 286.2237,-37.228 283.7998,-36.1295 281.6461,-35.0203 279.7781,-33.9035 278.2112,-32.782 276.9597,-31.659 276.0374,-30.5375 275.4571,-29.4206 275.2304,-28.3114 275.3677,-27.2129 275.878,-26.1282 276.7689,-25.0601 278.0461,-24.0117 279.7139,-22.9857 281.7746,-21.9851 284.2285,-21.0126 287.0741,-20.0707 290.3077,-19.1622 293.9237,-18.2894 297.9142,-17.4548 302.2695,-16.6607 306.9776,-15.9093 312.0245,-15.2026 317.3942,-14.5425 323.0688,-13.9308 329.0287,-13.3693 335.2522,-12.8595 341.7165,-12.4027 348.3967,-12.0002 355.267,-11.6532 362.3002,-11.3625 369.4682,-11.1291 376.7419,-10.9534 384.0916,-10.836 391.4871,-10.7772 398.8979,-10.7772 406.2934,-10.836"/>
<text text-anchor="middle" x="395.1925" y="-35.2205" font-family="Courier,monospace" font-weight="bold" font-size="10.00" fill="#000000">((0, &#39;B&#39;), 1)</text>
<text text-anchor="middle" x="395.1925" y="-24.2205" font-family="Courier,monospace" font-weight="bold" font-size="10.00" fill="#000000">0.12184420499219953</text>
</g>
<!-- ((&#45;1, &#39;SOURCE&#39;), 0)&#45;&gt;((0, &#39;B&#39;), 1) -->
<g id="edge3" class="edge">
<title>((&#45;1, &#39;SOURCE&#39;), 0)&#45;&gt;((0, &#39;B&#39;), 1)</title>
<path fill="none" stroke="#000000" d="M205.3787,-69.4305C238.8706,-62.865 277.1812,-55.3548 310.5733,-48.8088"/>
<polygon fill="#000000" stroke="#000000" points="311.6278,-52.1687 320.7677,-46.8103 310.2812,-45.2995 311.6278,-52.1687"/>
</g>
<!-- ((1, &#39;A&#39;), 0) -->
<g id="node7" class="node">
<title>((1, &#39;A&#39;), 0)</title>
<polygon fill="none" stroke="#000000" points="956.7038,-119.836 963.7139,-119.9534 970.6515,-120.1291 977.4883,-120.3625 984.1966,-120.6532 990.7494,-121.0002 997.121,-121.4027 1003.2866,-121.8595 1009.2226,-122.3693 1014.9071,-122.9308 1020.3195,-123.5425 1025.4411,-124.2026 1030.2548,-124.9093 1034.7453,-125.6607 1038.8994,-126.4548 1042.7056,-127.2894 1046.1545,-128.1622 1049.2387,-129.0707 1051.9528,-130.0126 1054.2933,-130.9851 1056.2587,-131.9857 1057.8495,-133.0117 1059.0677,-134.0601 1059.9174,-135.1282 1060.4042,-136.2129 1060.5351,-137.3114 1060.3189,-138.4206 1059.7654,-139.5375 1058.8858,-140.659 1057.6921,-141.782 1056.1975,-142.9035 1054.4159,-144.0203 1052.3616,-145.1295 1050.0498,-146.228 1047.4955,-147.3128 1044.7145,-148.3808 1041.7221,-149.4293 1038.5339,-150.4552 1035.1652,-151.4558 1031.631,-152.4284 1027.9459,-153.3702 1024.124,-154.2788 1020.1788,-155.1515 1016.123,-155.9861 1011.969,-156.7802 1007.728,-157.5317 1003.4107,-158.2384 999.0268,-158.8985 994.5853,-159.5101 990.0945,-160.0716 985.5617,-160.5815 980.9936,-161.0383 976.3962,-161.4407 971.7747,-161.7877 967.1339,-162.0784 962.478,-162.3119 957.8108,-162.4876 953.1359,-162.605 948.4563,-162.6637 943.7753,-162.6637 939.0957,-162.605 934.4208,-162.4876 929.7536,-162.3119 925.0978,-162.0784 920.457,-161.7877 915.8355,-161.4407 911.238,-161.0383 906.6699,-160.5815 902.1371,-160.0716 897.6463,-159.5101 893.2048,-158.8985 888.821,-158.2384 884.5036,-157.5317 880.2626,-156.7802 876.1086,-155.9861 872.0529,-155.1515 868.1076,-154.2788 864.2857,-153.3702 860.6006,-152.4284 857.0664,-151.4558 853.6977,-150.4552 850.5095,-149.4293 847.5172,-148.3808 844.7361,-147.3128 842.1819,-146.228 839.87,-145.1295 837.8157,-144.0203 836.0341,-142.9035 834.5395,-141.782 833.3459,-140.659 832.4662,-139.5375 831.9127,-138.4206 831.6965,-137.3114 831.8274,-136.2129 832.3142,-135.1282 833.1639,-134.0601 834.3821,-133.0117 835.9729,-131.9857 837.9383,-130.9851 840.2789,-130.0126 842.993,-129.0707 846.0772,-128.1622 849.5261,-127.2894 853.3322,-126.4548 857.4863,-125.6607 861.9768,-124.9093 866.7905,-124.2026 871.9121,-123.5425 877.3246,-122.9308 883.009,-122.3693 888.9451,-121.8595 895.1106,-121.4027 901.4822,-121.0002 908.035,-120.6532 914.7433,-120.3625 921.5801,-120.1291 928.5177,-119.9534 935.5278,-119.836 942.5816,-119.7772 949.65,-119.7772 956.7038,-119.836"/>
<text text-anchor="middle" x="946.1158" y="-144.2205" font-family="Courier,monospace" font-weight="bold" font-size="10.00" fill="#000000">((1, &#39;A&#39;), 0)</text>
<text text-anchor="middle" x="946.1158" y="-133.2205" font-family="Courier,monospace" font-weight="bold" font-size="10.00" fill="#000000">0.8300119608205517</text>
</g>
<!-- ((0, &#39;A&#39;), 0)&#45;&gt;((1, &#39;A&#39;), 0) -->
<g id="edge4" class="edge">
<title>((0, &#39;A&#39;), 0)&#45;&gt;((1, &#39;A&#39;), 0)</title>
<path fill="none" stroke="#000000" d="M744.4728,-100.9595C777.9769,-107.6491 817.9643,-115.6331 853.4618,-122.7207"/>
<polygon fill="#000000" stroke="#000000" points="852.8539,-126.1684 863.3457,-124.6942 854.2246,-119.3039 852.8539,-126.1684"/>
</g>
<!-- ((1, &#39;B&#39;), 0) -->
<g id="node8" class="node">
<title>((1, &#39;B&#39;), 0)</title>
<polygon fill="none" stroke="#000000" points="957.2167,.164 964.5664,.0466 971.8401,-.1291 979.0081,-.3625 986.0413,-.6532 992.9116,-1.0002 999.5918,-1.4027 1006.0561,-1.8595 1012.2796,-2.3693 1018.2395,-2.9308 1023.9141,-3.5425 1029.2838,-4.2026 1034.3307,-4.9093 1039.0388,-5.6607 1043.3941,-6.4548 1047.3846,-7.2894 1051.0006,-8.1622 1054.2342,-9.0707 1057.0798,-10.0126 1059.5337,-10.9851 1061.5944,-11.9857 1063.2622,-13.0117 1064.5394,-14.0601 1065.4303,-15.1282 1065.9406,-16.2129 1066.0779,-17.3114 1065.8512,-18.4206 1065.2709,-19.5375 1064.3486,-20.659 1063.0971,-21.782 1061.5302,-22.9035 1059.6622,-24.0203 1057.5085,-25.1295 1055.0846,-26.228 1052.4066,-27.3128 1049.4908,-28.3808 1046.3535,-29.4293 1043.0109,-30.4552 1039.479,-31.4558 1035.7736,-32.4284 1031.91,-33.3702 1027.9029,-34.2788 1023.7666,-35.1515 1019.5144,-35.9861 1015.1591,-36.7802 1010.7127,-37.5317 1006.1862,-38.2384 1001.5899,-38.8985 996.9333,-39.5101 992.225,-40.0716 987.4726,-40.5815 982.6832,-41.0383 977.863,-41.4407 973.0176,-41.7877 968.152,-42.0784 963.2706,-42.3119 958.3774,-42.4876 953.476,-42.605 948.5697,-42.6637 943.6619,-42.6637 938.7557,-42.605 933.8542,-42.4876 928.961,-42.3119 924.0796,-42.0784 919.214,-41.7877 914.3686,-41.4407 909.5484,-41.0383 904.759,-40.5815 900.0067,-40.0716 895.2983,-39.5101 890.6417,-38.8985 886.0454,-38.2384 881.519,-37.5317 877.0725,-36.7802 872.7172,-35.9861 868.4651,-35.1515 864.3287,-34.2788 860.3216,-33.3702 856.458,-32.4284 852.7526,-31.4558 849.2207,-30.4552 845.8781,-29.4293 842.7408,-28.3808 839.825,-27.3128 837.147,-26.228 834.7232,-25.1295 832.5694,-24.0203 830.7015,-22.9035 829.1345,-21.782 827.883,-20.659 826.9607,-19.5375 826.3804,-18.4206 826.1537,-17.3114 826.291,-16.2129 826.8013,-15.1282 827.6922,-14.0601 828.9695,-13.0117 830.6373,-11.9857 832.6979,-10.9851 835.1518,-10.0126 837.9974,-9.0707 841.231,-8.1622 844.847,-7.2894 848.8376,-6.4548 853.1928,-5.6607 857.9009,-4.9093 862.9478,-4.2026 868.3175,-3.5425 873.9921,-2.9308 879.952,-2.3693 886.1756,-1.8595 892.6398,-1.4027 899.32,-1.0002 906.1903,-.6532 913.2236,-.3625 920.3915,-.1291 927.6652,.0466 935.0149,.164 942.4104,.2228 949.8212,.2228 957.2167,.164"/>
<text text-anchor="middle" x="946.1158" y="-24.2205" font-family="Courier,monospace" font-weight="bold" font-size="10.00" fill="#000000">((1, &#39;B&#39;), 0)</text>
<text text-anchor="middle" x="946.1158" y="-13.2205" font-family="Courier,monospace" font-weight="bold" font-size="10.00" fill="#000000">0.17939600123562208</text>
</g>
<!-- ((0, &#39;A&#39;), 0)&#45;&gt;((1, &#39;B&#39;), 0) -->
<g id="edge5" class="edge">
<title>((0, &#39;A&#39;), 0)&#45;&gt;((1, &#39;B&#39;), 0)</title>
<path fill="none" stroke="#000000" d="M746.6544,-68.2869C784.6625,-59.3182 830.5784,-48.4835 868.7704,-39.4715"/>
<polygon fill="#000000" stroke="#000000" points="869.884,-42.8049 878.8129,-37.1018 868.2764,-35.992 869.884,-42.8049"/>
</g>
<!-- ((1, &#39;B&#39;), 1) -->
<g id="node9" class="node">
<title>((1, &#39;B&#39;), 1)</title>
<polygon fill="none" stroke="#000000" points="956.7038,-59.836 963.7139,-59.9534 970.6515,-60.1291 977.4883,-60.3625 984.1966,-60.6532 990.7494,-61.0002 997.121,-61.4027 1003.2866,-61.8595 1009.2226,-62.3693 1014.9071,-62.9308 1020.3195,-63.5425 1025.4411,-64.2026 1030.2548,-64.9093 1034.7453,-65.6607 1038.8994,-66.4548 1042.7056,-67.2894 1046.1545,-68.1622 1049.2387,-69.0707 1051.9528,-70.0126 1054.2933,-70.9851 1056.2587,-71.9857 1057.8495,-73.0117 1059.0677,-74.0601 1059.9174,-75.1282 1060.4042,-76.2129 1060.5351,-77.3114 1060.3189,-78.4206 1059.7654,-79.5375 1058.8858,-80.659 1057.6921,-81.782 1056.1975,-82.9035 1054.4159,-84.0203 1052.3616,-85.1295 1050.0498,-86.228 1047.4955,-87.3128 1044.7145,-88.3808 1041.7221,-89.4293 1038.5339,-90.4552 1035.1652,-91.4558 1031.631,-92.4284 1027.9459,-93.3702 1024.124,-94.2788 1020.1788,-95.1515 1016.123,-95.9861 1011.969,-96.7802 1007.728,-97.5317 1003.4107,-98.2384 999.0268,-98.8985 994.5853,-99.5101 990.0945,-100.0716 985.5617,-100.5815 980.9936,-101.0383 976.3962,-101.4407 971.7747,-101.7877 967.1339,-102.0784 962.478,-102.3119 957.8108,-102.4876 953.1359,-102.605 948.4563,-102.6637 943.7753,-102.6637 939.0957,-102.605 934.4208,-102.4876 929.7536,-102.3119 925.0978,-102.0784 920.457,-101.7877 915.8355,-101.4407 911.238,-101.0383 906.6699,-100.5815 902.1371,-100.0716 897.6463,-99.5101 893.2048,-98.8985 888.821,-98.2384 884.5036,-97.5317 880.2626,-96.7802 876.1086,-95.9861 872.0529,-95.1515 868.1076,-94.2788 864.2857,-93.3702 860.6006,-92.4284 857.0664,-91.4558 853.6977,-90.4552 850.5095,-89.4293 847.5172,-88.3808 844.7361,-87.3128 842.1819,-86.228 839.87,-85.1295 837.8157,-84.0203 836.0341,-82.9035 834.5395,-81.782 833.3459,-80.659 832.4662,-79.5375 831.9127,-78.4206 831.6965,-77.3114 831.8274,-76.2129 832.3142,-75.1282 833.1639,-74.0601 834.3821,-73.0117 835.9729,-71.9857 837.9383,-70.9851 840.2789,-70.0126 842.993,-69.0707 846.0772,-68.1622 849.5261,-67.2894 853.3322,-66.4548 857.4863,-65.6607 861.9768,-64.9093 866.7905,-64.2026 871.9121,-63.5425 877.3246,-62.9308 883.009,-62.3693 888.9451,-61.8595 895.1106,-61.4027 901.4822,-61.0002 908.035,-60.6532 914.7433,-60.3625 921.5801,-60.1291 928.5177,-59.9534 935.5278,-59.836 942.5816,-59.7772 949.65,-59.7772 956.7038,-59.836"/>
<text text-anchor="middle" x="946.1158" y="-84.2205" font-family="Courier,monospace" font-weight="bold" font-size="10.00" fill="#000000">((1, &#39;B&#39;), 1)</text>
<text text-anchor="middle" x="946.1158" y="-73.2205" font-family="Courier,monospace" font-weight="bold" font-size="10.00" fill="#000000">0.6791681920135297</text>
</g>
<!-- ((0, &#39;A&#39;), 0)&#45;&gt;((1, &#39;B&#39;), 1) -->
<g id="edge6" class="edge">
<title>((0, &#39;A&#39;), 0)&#45;&gt;((1, &#39;B&#39;), 1)</title>
<path fill="none" stroke="#000000" d="M790.2739,-84.0492C802.0652,-83.8352 814.0368,-83.6179 825.8347,-83.4037"/>
<polygon fill="#000000" stroke="#000000" points="826.2142,-86.8975 836.149,-83.2165 826.0871,-79.8987 826.2142,-86.8975"/>
</g>
<!-- ((0, &#39;B&#39;), 0)&#45;&gt;((1, &#39;A&#39;), 0) -->
<g id="edge7" class="edge">
<title>((0, &#39;B&#39;), 0)&#45;&gt;((1, &#39;A&#39;), 0)</title>
<path fill="none" stroke="#000000" d="M511.6924,-137.2778C602.9422,-138.1059 729.5724,-139.2552 822.5789,-140.0993"/>
<polygon fill="#000000" stroke="#000000" points="822.577,-143.5993 832.6084,-140.1903 822.6406,-136.5996 822.577,-143.5993"/>
</g>
<!-- ((0, &#39;C&#39;), 0) -->
<g id="node6" class="node">
<title>((0, &#39;C&#39;), 0)</title>
<polygon fill="none" stroke="#000000" points="681.2421,-4.836 688.2522,-4.9534 695.1898,-5.1291 702.0266,-5.3625 708.7349,-5.6532 715.2878,-6.0002 721.6594,-6.4027 727.8249,-6.8595 733.7609,-7.3693 739.4454,-7.9308 744.8578,-8.5425 749.9795,-9.2026 754.7931,-9.9093 759.2837,-10.6607 763.4377,-11.4548 767.2439,-12.2894 770.6928,-13.1622 773.777,-14.0707 776.4911,-15.0126 778.8316,-15.9851 780.7971,-16.9857 782.3878,-18.0117 783.6061,-19.0601 784.4558,-20.1282 784.9425,-21.2129 785.0735,-22.3114 784.8573,-23.4206 784.3038,-24.5375 783.4241,-25.659 782.2304,-26.782 780.7359,-27.9035 778.9542,-29.0203 776.9,-30.1295 774.5881,-31.228 772.0339,-32.3128 769.2528,-33.3808 766.2604,-34.4293 763.0723,-35.4552 759.7036,-36.4558 756.1694,-37.4284 752.4843,-38.3702 748.6624,-39.2788 744.7171,-40.1515 740.6614,-40.9861 736.5073,-41.7802 732.2663,-42.5317 727.949,-43.2384 723.5651,-43.8985 719.1237,-44.5101 714.6329,-45.0716 710.1001,-45.5815 705.532,-46.0383 700.9345,-46.4407 696.313,-46.7877 691.6722,-47.0784 687.0163,-47.3119 682.3492,-47.4876 677.6742,-47.605 672.9947,-47.6637 668.3136,-47.6637 663.6341,-47.605 658.9591,-47.4876 654.292,-47.3119 649.6361,-47.0784 644.9953,-46.7877 640.3738,-46.4407 635.7763,-46.0383 631.2082,-45.5815 626.6754,-45.0716 622.1846,-44.5101 617.7432,-43.8985 613.3593,-43.2384 609.042,-42.5317 604.801,-41.7802 600.6469,-40.9861 596.5912,-40.1515 592.6459,-39.2788 588.824,-38.3702 585.1389,-37.4284 581.6047,-36.4558 578.2361,-35.4552 575.0479,-34.4293 572.0555,-33.3808 569.2744,-32.3128 566.7202,-31.228 564.4083,-30.1295 562.3541,-29.0203 560.5724,-27.9035 559.0779,-26.782 557.8842,-25.659 557.0045,-24.5375 556.451,-23.4206 556.2348,-22.3114 556.3658,-21.2129 556.8525,-20.1282 557.7022,-19.0601 558.9205,-18.0117 560.5112,-16.9857 562.4767,-15.9851 564.8172,-15.0126 567.5313,-14.0707 570.6155,-13.1622 574.0644,-12.2894 577.8706,-11.4548 582.0246,-10.6607 586.5152,-9.9093 591.3288,-9.2026 596.4505,-8.5425 601.8629,-7.9308 607.5474,-7.3693 613.4834,-6.8595 619.6489,-6.4027 626.0205,-6.0002 632.5734,-5.6532 639.2817,-5.3625 646.1185,-5.1291 653.0561,-4.9534 660.0662,-4.836 667.12,-4.7772 674.1883,-4.7772 681.2421,-4.836"/>
<text text-anchor="middle" x="670.6542" y="-29.2205" font-family="Courier,monospace" font-weight="bold" font-size="10.00" fill="#000000">((0, &#39;C&#39;), 0)</text>
<text text-anchor="middle" x="670.6542" y="-18.2205" font-family="Courier,monospace" font-weight="bold" font-size="10.00" fill="#000000">0.1743220910215963</text>
</g>
<!-- ((0, &#39;B&#39;), 1)&#45;&gt;((0, &#39;C&#39;), 0) -->
<g id="edge8" class="edge">
<title>((0, &#39;B&#39;), 1)&#45;&gt;((0, &#39;C&#39;), 0)</title>
<path fill="none" stroke="#000000" d="M515.2127,-29.6062C527.2191,-29.3447 539.408,-29.0792 551.4064,-28.8179"/>
<polygon fill="#000000" stroke="#000000" points="551.5107,-32.3165 561.4321,-28.5995 551.3582,-25.3182 551.5107,-32.3165"/>
</g>
<!-- ((0, &#39;C&#39;), 0)&#45;&gt;((1, &#39;B&#39;), 0) -->
<g id="edge9" class="edge">
<title>((0, &#39;C&#39;), 0)&#45;&gt;((1, &#39;B&#39;), 0)</title>
<path fill="none" stroke="#000000" d="M784.6834,-24.1507C796.7092,-23.9324 808.9836,-23.7096 821.1248,-23.4892"/>
<polygon fill="#000000" stroke="#000000" points="821.3489,-26.9858 831.2837,-23.3048 821.2218,-19.987 821.3489,-26.9858"/>
</g>
<!-- ((0, &#39;C&#39;), 0)&#45;&gt;((1, &#39;B&#39;), 1) -->
<g id="edge10" class="edge">
<title>((0, &#39;C&#39;), 0)&#45;&gt;((1, &#39;B&#39;), 1)</title>
<path fill="none" stroke="#000000" d="M742.6687,-40.5992C776.4731,-47.3488 817.1761,-55.4757 853.264,-62.6812"/>
<polygon fill="#000000" stroke="#000000" points="852.8189,-66.1614 863.3107,-64.6872 854.1896,-59.2969 852.8189,-66.1614"/>
</g>
<!-- ((2, &#39;A&#39;), 0) -->
<g id="node11" class="node">
<title>((2, &#39;A&#39;), 0)</title>
<polygon fill="none" stroke="#000000" points="1224.2357,.164 1229.4857,.0466 1234.6813,-.1291 1239.8015,-.3625 1244.8254,-.6532 1249.7329,-1.0002 1254.5046,-1.4027 1259.122,-1.8595 1263.5676,-2.3693 1267.8247,-2.9308 1271.8782,-3.5425 1275.7138,-4.2026 1279.3188,-4.9093 1282.6818,-5.6607 1285.7928,-6.4548 1288.6433,-7.2894 1291.2262,-8.1622 1293.536,-9.0707 1295.5686,-10.0126 1297.3215,-10.9851 1298.7934,-11.9857 1299.9848,-13.0117 1300.8971,-14.0601 1301.5335,-15.1282 1301.898,-16.2129 1301.9961,-17.3114 1301.8341,-18.4206 1301.4196,-19.5375 1300.7608,-20.659 1299.8669,-21.782 1298.7476,-22.9035 1297.4133,-24.0203 1295.8749,-25.1295 1294.1435,-26.228 1292.2306,-27.3128 1290.1478,-28.3808 1287.9068,-29.4293 1285.5191,-30.4552 1282.9963,-31.4558 1280.3495,-32.4284 1277.5897,-33.3702 1274.7274,-34.2788 1271.7728,-35.1515 1268.7354,-35.9861 1265.6244,-36.7802 1262.4483,-37.5317 1259.215,-38.2384 1255.9319,-38.8985 1252.6056,-39.5101 1249.2424,-40.0716 1245.8477,-40.5815 1242.4266,-41.0383 1238.9836,-41.4407 1235.5225,-41.7877 1232.0469,-42.0784 1228.5601,-42.3119 1225.0648,-42.4876 1221.5637,-42.605 1218.0591,-42.6637 1214.5535,-42.6637 1211.0489,-42.605 1207.5478,-42.4876 1204.0525,-42.3119 1200.5657,-42.0784 1197.0901,-41.7877 1193.629,-41.4407 1190.186,-41.0383 1186.7649,-40.5815 1183.3702,-40.0716 1180.007,-39.5101 1176.6808,-38.8985 1173.3976,-38.2384 1170.1643,-37.5317 1166.9882,-36.7802 1163.8772,-35.9861 1160.8398,-35.1515 1157.8852,-34.2788 1155.0229,-33.3702 1152.2631,-32.4284 1149.6163,-31.4558 1147.0935,-30.4552 1144.7058,-29.4293 1142.4648,-28.3808 1140.382,-27.3128 1138.4691,-26.228 1136.7378,-25.1295 1135.1993,-24.0203 1133.865,-22.9035 1132.7457,-21.782 1131.8518,-20.659 1131.193,-19.5375 1130.7785,-18.4206 1130.6165,-17.3114 1130.7146,-16.2129 1131.0791,-15.1282 1131.7155,-14.0601 1132.6278,-13.0117 1133.8192,-11.9857 1135.2911,-10.9851 1137.044,-10.0126 1139.0766,-9.0707 1141.3864,-8.1622 1143.9693,-7.2894 1146.8198,-6.4548 1149.9308,-5.6607 1153.2938,-4.9093 1156.8988,-4.2026 1160.7344,-3.5425 1164.7879,-2.9308 1169.045,-2.3693 1173.4906,-1.8595 1178.108,-1.4027 1182.8797,-1.0002 1187.7872,-.6532 1192.8111,-.3625 1197.9313,-.1291 1203.1269,.0466 1208.3769,.164 1213.6595,.2228 1218.9531,.2228 1224.2357,.164"/>
<text text-anchor="middle" x="1216.3063" y="-24.2205" font-family="Courier,monospace" font-weight="bold" font-size="10.00" fill="#000000">((2, &#39;A&#39;), 0)</text>
<text text-anchor="middle" x="1216.3063" y="-13.2205" font-family="Courier,monospace" font-weight="bold" font-size="10.00" fill="#000000">1.0</text>
</g>
<!-- ((1, &#39;A&#39;), 0)&#45;&gt;((2, &#39;A&#39;), 0) -->
<g id="edge11" class="edge">
<title>((1, &#39;A&#39;), 0)&#45;&gt;((2, &#39;A&#39;), 0)</title>
<path fill="none" stroke="#000000" d="M1037.5842,-126.0367C1047.6236,-122.1636 1057.2907,-117.3076 1065.8466,-111.2205 1089.6519,-94.2842 1078.4831,-73.7611 1101.8466,-56.2205 1113.7283,-47.3001 1127.9015,-40.6324 1142.1594,-35.6548"/>
<polygon fill="#000000" stroke="#000000" points="1143.576,-38.8754 1152.0167,-32.4719 1141.425,-32.2141 1143.576,-38.8754"/>
</g>
<!-- ((2, &#39;B&#39;), 0) -->
<g id="node12" class="node">
<title>((2, &#39;B&#39;), 0)</title>
<polygon fill="none" stroke="#000000" points="1489.1551,-108.836 1494.405,-108.9534 1499.6006,-109.1291 1504.7208,-109.3625 1509.7447,-109.6532 1514.6522,-110.0002 1519.4239,-110.4027 1524.0414,-110.8595 1528.4869,-111.3693 1532.7441,-111.9308 1536.7975,-112.5425 1540.6331,-113.2026 1544.2381,-113.9093 1547.6011,-114.6607 1550.7122,-115.4548 1553.5626,-116.2894 1556.1456,-117.1622 1558.4554,-118.0707 1560.488,-119.0126 1562.2408,-119.9851 1563.7128,-120.9857 1564.9041,-122.0117 1565.8164,-123.0601 1566.4528,-124.1282 1566.8173,-125.2129 1566.9154,-126.3114 1566.7535,-127.4206 1566.3389,-128.5375 1565.6802,-129.659 1564.7862,-130.782 1563.6669,-131.9035 1562.3326,-133.0203 1560.7942,-134.1295 1559.0628,-135.228 1557.1499,-136.3128 1555.0671,-137.3808 1552.8261,-138.4293 1550.4385,-139.4552 1547.9156,-140.4558 1545.2688,-141.4284 1542.509,-142.3702 1539.6467,-143.2788 1536.6921,-144.1515 1533.6547,-144.9861 1530.5437,-145.7802 1527.3676,-146.5317 1524.1343,-147.2384 1520.8512,-147.8985 1517.5249,-148.5101 1514.1617,-149.0716 1510.7671,-149.5815 1507.346,-150.0383 1503.9029,-150.4407 1500.4418,-150.7877 1496.9663,-151.0784 1493.4794,-151.3119 1489.9841,-151.4876 1486.483,-151.605 1482.9785,-151.6637 1479.4728,-151.6637 1475.9682,-151.605 1472.4671,-151.4876 1468.9718,-151.3119 1465.485,-151.0784 1462.0095,-150.7877 1458.5484,-150.4407 1455.1053,-150.0383 1451.6842,-149.5815 1448.2895,-149.0716 1444.9263,-148.5101 1441.6001,-147.8985 1438.3169,-147.2384 1435.0836,-146.5317 1431.9075,-145.7802 1428.7965,-144.9861 1425.7591,-144.1515 1422.8045,-143.2788 1419.9422,-142.3702 1417.1824,-141.4284 1414.5356,-140.4558 1412.0128,-139.4552 1409.6251,-138.4293 1407.3841,-137.3808 1405.3014,-136.3128 1403.3885,-135.228 1401.6571,-134.1295 1400.1186,-133.0203 1398.7843,-131.9035 1397.665,-130.782 1396.7711,-129.659 1396.1123,-128.5375 1395.6978,-127.4206 1395.5359,-126.3114 1395.6339,-125.2129 1395.9985,-124.1282 1396.6348,-123.0601 1397.5472,-122.0117 1398.7385,-120.9857 1400.2104,-119.9851 1401.9633,-119.0126 1403.9959,-118.0707 1406.3057,-117.1622 1408.8886,-116.2894 1411.7391,-115.4548 1414.8501,-114.6607 1418.2131,-113.9093 1421.8181,-113.2026 1425.6537,-112.5425 1429.7072,-111.9308 1433.9643,-111.3693 1438.4099,-110.8595 1443.0273,-110.4027 1447.7991,-110.0002 1452.7066,-109.6532 1457.7305,-109.3625 1462.8506,-109.1291 1468.0463,-108.9534 1473.2962,-108.836 1478.5788,-108.7772 1483.8724,-108.7772 1489.1551,-108.836"/>
<text text-anchor="middle" x="1481.2256" y="-133.2205" font-family="Courier,monospace" font-weight="bold" font-size="10.00" fill="#000000">((2, &#39;B&#39;), 0)</text>
<text text-anchor="middle" x="1481.2256" y="-122.2205" font-family="Courier,monospace" font-weight="bold" font-size="10.00" fill="#000000">1.0</text>
</g>
<!-- ((1, &#39;A&#39;), 0)&#45;&gt;((2, &#39;B&#39;), 0) -->
<g id="edge12" class="edge">
<title>((1, &#39;A&#39;), 0)&#45;&gt;((2, &#39;B&#39;), 0)</title>
<path fill="none" stroke="#000000" d="M1046.2362,-147.8779C1123.9226,-151.9372 1234.2723,-155.289 1330.766,-149.2205 1354.793,-147.7094 1380.8512,-144.8538 1404.4244,-141.807"/>
<polygon fill="#000000" stroke="#000000" points="1404.907,-145.2737 1414.3618,-140.4929 1403.9893,-138.3341 1404.907,-145.2737"/>
</g>
<!-- ((2, &#39;B&#39;), 1) -->
<g id="node13" class="node">
<title>((2, &#39;B&#39;), 1)</title>
<polygon fill="none" stroke="#000000" points="1491.8136,-48.836 1498.8237,-48.9534 1505.7613,-49.1291 1512.5981,-49.3625 1519.3064,-49.6532 1525.8593,-50.0002 1532.2308,-50.4027 1538.3964,-50.8595 1544.3324,-51.3693 1550.0169,-51.9308 1555.4293,-52.5425 1560.5509,-53.2026 1565.3646,-53.9093 1569.8551,-54.6607 1574.0092,-55.4548 1577.8154,-56.2894 1581.2643,-57.1622 1584.3485,-58.0707 1587.0626,-59.0126 1589.4031,-59.9851 1591.3686,-60.9857 1592.9593,-62.0117 1594.1776,-63.0601 1595.0273,-64.1282 1595.514,-65.2129 1595.645,-66.3114 1595.4287,-67.4206 1594.8752,-68.5375 1593.9956,-69.659 1592.8019,-70.782 1591.3073,-71.9035 1589.5257,-73.0203 1587.4715,-74.1295 1585.1596,-75.228 1582.6053,-76.3128 1579.8243,-77.3808 1576.8319,-78.4293 1573.6437,-79.4552 1570.275,-80.4558 1566.7409,-81.4284 1563.0558,-82.3702 1559.2338,-83.2788 1555.2886,-84.1515 1551.2329,-84.9861 1547.0788,-85.7802 1542.8378,-86.5317 1538.5205,-87.2384 1534.1366,-87.8985 1529.6952,-88.5101 1525.2043,-89.0716 1520.6715,-89.5815 1516.1034,-90.0383 1511.506,-90.4407 1506.8845,-90.7877 1502.2437,-91.0784 1497.5878,-91.3119 1492.9207,-91.4876 1488.2457,-91.605 1483.5662,-91.6637 1478.8851,-91.6637 1474.2056,-91.605 1469.5306,-91.4876 1464.8634,-91.3119 1460.2076,-91.0784 1455.5668,-90.7877 1450.9453,-90.4407 1446.3478,-90.0383 1441.7797,-89.5815 1437.2469,-89.0716 1432.7561,-88.5101 1428.3147,-87.8985 1423.9308,-87.2384 1419.6134,-86.5317 1415.3724,-85.7802 1411.2184,-84.9861 1407.1627,-84.1515 1403.2174,-83.2788 1399.3955,-82.3702 1395.7104,-81.4284 1392.1762,-80.4558 1388.8075,-79.4552 1385.6194,-78.4293 1382.627,-77.3808 1379.8459,-76.3128 1377.2917,-75.228 1374.9798,-74.1295 1372.9256,-73.0203 1371.1439,-71.9035 1369.6493,-70.782 1368.4557,-69.659 1367.576,-68.5375 1367.0225,-67.4206 1366.8063,-66.3114 1366.9372,-65.2129 1367.424,-64.1282 1368.2737,-63.0601 1369.4919,-62.0117 1371.0827,-60.9857 1373.0481,-59.9851 1375.3887,-59.0126 1378.1028,-58.0707 1381.187,-57.1622 1384.6359,-56.2894 1388.4421,-55.4548 1392.5961,-54.6607 1397.0866,-53.9093 1401.9003,-53.2026 1407.0219,-52.5425 1412.4344,-51.9308 1418.1189,-51.3693 1424.0549,-50.8595 1430.2204,-50.4027 1436.592,-50.0002 1443.1449,-49.6532 1449.8531,-49.3625 1456.6899,-49.1291 1463.6276,-48.9534 1470.6377,-48.836 1477.6914,-48.7772 1484.7598,-48.7772 1491.8136,-48.836"/>
<text text-anchor="middle" x="1481.2256" y="-73.2205" font-family="Courier,monospace" font-weight="bold" font-size="10.00" fill="#000000">((2, &#39;B&#39;), 1)</text>
<text text-anchor="middle" x="1481.2256" y="-62.2205" font-family="Courier,monospace" font-weight="bold" font-size="10.00" fill="#000000">0.6989602079584083</text>
</g>
<!-- ((1, &#39;A&#39;), 0)&#45;&gt;((2, &#39;B&#39;), 1) -->
<g id="edge13" class="edge">
<title>((1, &#39;A&#39;), 0)&#45;&gt;((2, &#39;B&#39;), 1)</title>
<path fill="none" stroke="#000000" d="M1027.3896,-124.4077C1040.4686,-120.6954 1053.6928,-116.3165 1065.8466,-111.2205 1083.1392,-103.9698 1083.9291,-94.7492 1101.8466,-89.2205 1185.3726,-63.4474 1284.11,-59.2697 1359.9147,-61.2339"/>
<polygon fill="#000000" stroke="#000000" points="1359.8831,-64.7344 1369.983,-61.5342 1360.0918,-57.7376 1359.8831,-64.7344"/>
</g>
<!-- ((1, &#39;B&#39;), 0)&#45;&gt;((2, &#39;A&#39;), 0) -->
<g id="edge14" class="edge">
<title>((1, &#39;B&#39;), 0)&#45;&gt;((2, &#39;A&#39;), 0)</title>
<path fill="none" stroke="#000000" d="M1063.8393,-21.2205C1083.3674,-21.2205 1103.388,-21.2205 1122.2321,-21.2205"/>
<polygon fill="#000000" stroke="#000000" points="1122.2686,-24.7206 1132.2686,-21.2205 1122.2685,-17.7206 1122.2686,-24.7206"/>
</g>
<!-- ((1, &#39;C&#39;), 0) -->
<g id="node10" class="node">
<title>((1, &#39;C&#39;), 0)</title>
<polygon fill="none" stroke="#000000" points="1226.8943,-97.836 1233.9044,-97.9534 1240.842,-98.1291 1247.6788,-98.3625 1254.3871,-98.6532 1260.9399,-99.0002 1267.3115,-99.4027 1273.477,-99.8595 1279.4131,-100.3693 1285.0975,-100.9308 1290.51,-101.5425 1295.6316,-102.2026 1300.4453,-102.9093 1304.9358,-103.6607 1309.0899,-104.4548 1312.8961,-105.2894 1316.345,-106.1622 1319.4292,-107.0707 1322.1433,-108.0126 1324.4838,-108.9851 1326.4492,-109.9857 1328.04,-111.0117 1329.2582,-112.0601 1330.1079,-113.1282 1330.5947,-114.2129 1330.7256,-115.3114 1330.5094,-116.4206 1329.9559,-117.5375 1329.0763,-118.659 1327.8826,-119.782 1326.388,-120.9035 1324.6064,-122.0203 1322.5521,-123.1295 1320.2402,-124.228 1317.686,-125.3128 1314.9049,-126.3808 1311.9126,-127.4293 1308.7244,-128.4552 1305.3557,-129.4558 1301.8215,-130.4284 1298.1364,-131.3702 1294.3145,-132.2788 1290.3693,-133.1515 1286.3135,-133.9861 1282.1595,-134.7802 1277.9185,-135.5317 1273.6012,-136.2384 1269.2173,-136.8985 1264.7758,-137.5101 1260.285,-138.0716 1255.7522,-138.5815 1251.1841,-139.0383 1246.5867,-139.4407 1241.9652,-139.7877 1237.3244,-140.0784 1232.6685,-140.3119 1228.0013,-140.4876 1223.3264,-140.605 1218.6468,-140.6637 1213.9658,-140.6637 1209.2862,-140.605 1204.6113,-140.4876 1199.9441,-140.3119 1195.2882,-140.0784 1190.6474,-139.7877 1186.026,-139.4407 1181.4285,-139.0383 1176.8604,-138.5815 1172.3276,-138.0716 1167.8368,-137.5101 1163.3953,-136.8985 1159.0114,-136.2384 1154.6941,-135.5317 1150.4531,-134.7802 1146.2991,-133.9861 1142.2434,-133.1515 1138.2981,-132.2788 1134.4762,-131.3702 1130.7911,-130.4284 1127.2569,-129.4558 1123.8882,-128.4552 1120.7,-127.4293 1117.7077,-126.3808 1114.9266,-125.3128 1112.3724,-124.228 1110.0605,-123.1295 1108.0062,-122.0203 1106.2246,-120.9035 1104.73,-119.782 1103.5364,-118.659 1102.6567,-117.5375 1102.1032,-116.4206 1101.887,-115.3114 1102.0179,-114.2129 1102.5047,-113.1282 1103.3544,-112.0601 1104.5726,-111.0117 1106.1634,-109.9857 1108.1288,-108.9851 1110.4693,-108.0126 1113.1834,-107.0707 1116.2677,-106.1622 1119.7166,-105.2894 1123.5227,-104.4548 1127.6768,-103.6607 1132.1673,-102.9093 1136.981,-102.2026 1142.1026,-101.5425 1147.5151,-100.9308 1153.1995,-100.3693 1159.1356,-99.8595 1165.3011,-99.4027 1171.6727,-99.0002 1178.2255,-98.6532 1184.9338,-98.3625 1191.7706,-98.1291 1198.7082,-97.9534 1205.7183,-97.836 1212.7721,-97.7772 1219.8405,-97.7772 1226.8943,-97.836"/>
<text text-anchor="middle" x="1216.3063" y="-122.2205" font-family="Courier,monospace" font-weight="bold" font-size="10.00" fill="#000000">((1, &#39;C&#39;), 0)</text>
<text text-anchor="middle" x="1216.3063" y="-111.2205" font-family="Courier,monospace" font-weight="bold" font-size="10.00" fill="#000000">0.9716836298840401</text>
</g>
<!-- ((1, &#39;B&#39;), 1)&#45;&gt;((1, &#39;C&#39;), 0) -->
<g id="edge15" class="edge">
<title>((1, &#39;B&#39;), 1)&#45;&gt;((1, &#39;C&#39;), 0)</title>
<path fill="none" stroke="#000000" d="M1029.7554,-92.9837C1054.6299,-96.4821 1082.2406,-100.3653 1108.4279,-104.0483"/>
<polygon fill="#000000" stroke="#000000" points="1107.996,-107.5219 1118.386,-105.4488 1108.971,-100.5901 1107.996,-107.5219"/>
</g>
<!-- ((1, &#39;C&#39;), 0)&#45;&gt;((2, &#39;B&#39;), 0) -->
<g id="edge16" class="edge">
<title>((1, &#39;C&#39;), 0)&#45;&gt;((2, &#39;B&#39;), 0)</title>
<path fill="none" stroke="#000000" d="M1321.7706,-123.5996C1342.7268,-124.4697 1364.6244,-125.3789 1385.2431,-126.2351"/>
<polygon fill="#000000" stroke="#000000" points="1385.1159,-129.7327 1395.2525,-126.6507 1385.4064,-122.7387 1385.1159,-129.7327"/>
</g>
<!-- ((1, &#39;C&#39;), 0)&#45;&gt;((2, &#39;B&#39;), 1) -->
<g id="edge17" class="edge">
<title>((1, &#39;C&#39;), 0)&#45;&gt;((2, &#39;B&#39;), 1)</title>
<path fill="none" stroke="#000000" d="M1302.6842,-103.2438C1332.8003,-97.6735 1366.547,-91.4317 1396.5254,-85.8868"/>
<polygon fill="#000000" stroke="#000000" points="1397.3403,-89.2955 1406.5369,-84.0351 1396.0671,-82.4123 1397.3403,-89.2955"/>
</g>
<!-- ((2, &#39;A&#39;), 0)&#45;&gt;((&#45;1, &#39;SINK&#39;), 0) -->
<g id="edge18" class="edge">
<title>((2, &#39;A&#39;), 0)&#45;&gt;((&#45;1, &#39;SINK&#39;), 0)</title>
<path fill="none" stroke="#000000" d="M1301.7214,-19.3889C1416.3031,-17.9796 1625.9185,-19.0798 1803.3748,-40.2205 1823.809,-42.6548 1845.6449,-46.5165 1865.9896,-50.6697"/>
<polygon fill="#000000" stroke="#000000" points="1865.3403,-54.1096 1875.8445,-52.727 1866.7708,-47.2573 1865.3403,-54.1096"/>
</g>
<!-- ((2, &#39;B&#39;), 0)&#45;&gt;((&#45;1, &#39;SINK&#39;), 0) -->
<g id="edge19" class="edge">
<title>((2, &#39;B&#39;), 0)&#45;&gt;((&#45;1, &#39;SINK&#39;), 0)</title>
<path fill="none" stroke="#000000" d="M1567.0027,-124.8561C1632.0904,-120.1514 1723.6609,-112.1723 1803.3748,-100.2205 1825.9975,-96.8286 1850.4169,-92.1515 1872.6251,-87.499"/>
<polygon fill="#000000" stroke="#000000" points="1873.6043,-90.8691 1882.6588,-85.3678 1872.1498,-84.0219 1873.6043,-90.8691"/>
</g>
<!-- ((2, &#39;C&#39;), 0) -->
<g id="node14" class="node">
<title>((2, &#39;C&#39;), 0)</title>
<polygon fill="none" stroke="#000000" points="1725.4595,-48.836 1730.7094,-48.9534 1735.9051,-49.1291 1741.0252,-49.3625 1746.0491,-49.6532 1750.9566,-50.0002 1755.7283,-50.4027 1760.3458,-50.8595 1764.7913,-51.3693 1769.0485,-51.9308 1773.1019,-52.5425 1776.9375,-53.2026 1780.5426,-53.9093 1783.9056,-54.6607 1787.0166,-55.4548 1789.8671,-56.2894 1792.45,-57.1622 1794.7598,-58.0707 1796.7924,-59.0126 1798.5452,-59.9851 1800.0172,-60.9857 1801.2085,-62.0117 1802.1208,-63.0601 1802.7572,-64.1282 1803.1217,-65.2129 1803.2198,-66.3114 1803.0579,-67.4206 1802.6434,-68.5375 1801.9846,-69.659 1801.0906,-70.782 1799.9713,-71.9035 1798.637,-73.0203 1797.0986,-74.1295 1795.3672,-75.228 1793.4543,-76.3128 1791.3715,-77.3808 1789.1305,-78.4293 1786.7429,-79.4552 1784.22,-80.4558 1781.5732,-81.4284 1778.8134,-82.3702 1775.9511,-83.2788 1772.9965,-84.1515 1769.9591,-84.9861 1766.8481,-85.7802 1763.672,-86.5317 1760.4387,-87.2384 1757.1556,-87.8985 1753.8293,-88.5101 1750.4661,-89.0716 1747.0715,-89.5815 1743.6504,-90.0383 1740.2073,-90.4407 1736.7462,-90.7877 1733.2707,-91.0784 1729.7838,-91.3119 1726.2886,-91.4876 1722.7874,-91.605 1719.2829,-91.6637 1715.7772,-91.6637 1712.2726,-91.605 1708.7715,-91.4876 1705.2762,-91.3119 1701.7894,-91.0784 1698.3139,-90.7877 1694.8528,-90.4407 1691.4097,-90.0383 1687.9886,-89.5815 1684.5939,-89.0716 1681.2307,-88.5101 1677.9045,-87.8985 1674.6213,-87.2384 1671.3881,-86.5317 1668.2119,-85.7802 1665.1009,-84.9861 1662.0636,-84.1515 1659.1089,-83.2788 1656.2466,-82.3702 1653.4868,-81.4284 1650.84,-80.4558 1648.3172,-79.4552 1645.9295,-78.4293 1643.6885,-77.3808 1641.6058,-76.3128 1639.6929,-75.228 1637.9615,-74.1295 1636.423,-73.0203 1635.0887,-71.9035 1633.9694,-70.782 1633.0755,-69.659 1632.4167,-68.5375 1632.0022,-67.4206 1631.8403,-66.3114 1631.9383,-65.2129 1632.3029,-64.1282 1632.9392,-63.0601 1633.8516,-62.0117 1635.0429,-60.9857 1636.5148,-59.9851 1638.2677,-59.0126 1640.3003,-58.0707 1642.6101,-57.1622 1645.193,-56.2894 1648.0435,-55.4548 1651.1545,-54.6607 1654.5175,-53.9093 1658.1225,-53.2026 1661.9582,-52.5425 1666.0116,-51.9308 1670.2688,-51.3693 1674.7143,-50.8595 1679.3317,-50.4027 1684.1035,-50.0002 1689.011,-49.6532 1694.0349,-49.3625 1699.155,-49.1291 1704.3507,-48.9534 1709.6006,-48.836 1714.8832,-48.7772 1720.1768,-48.7772 1725.4595,-48.836"/>
<text text-anchor="middle" x="1717.53" y="-73.2205" font-family="Courier,monospace" font-weight="bold" font-size="10.00" fill="#000000">((2, &#39;C&#39;), 0)</text>
<text text-anchor="middle" x="1717.53" y="-62.2205" font-family="Courier,monospace" font-weight="bold" font-size="10.00" fill="#000000">1.0</text>
</g>
<!-- ((2, &#39;B&#39;), 1)&#45;&gt;((2, &#39;C&#39;), 0) -->
<g id="edge20" class="edge">
<title>((2, &#39;B&#39;), 1)&#45;&gt;((2, &#39;C&#39;), 0)</title>
<path fill="none" stroke="#000000" d="M1593.4955,-70.2205C1603.4826,-70.2205 1613.5259,-70.2205 1623.339,-70.2205"/>
<polygon fill="#000000" stroke="#000000" points="1623.47,-73.7206 1633.47,-70.2205 1623.47,-66.7206 1623.47,-73.7206"/>
</g>
<!-- ((2, &#39;C&#39;), 0)&#45;&gt;((&#45;1, &#39;SINK&#39;), 0) -->
<g id="edge21" class="edge">
<title>((2, &#39;C&#39;), 0)&#45;&gt;((&#45;1, &#39;SINK&#39;), 0)</title>
<path fill="none" stroke="#000000" d="M1801.644,-70.2205C1811.3765,-70.2205 1821.4286,-70.2205 1831.4927,-70.2205"/>
<polygon fill="#000000" stroke="#000000" points="1831.5494,-73.7206 1841.5493,-70.2205 1831.5493,-66.7206 1831.5494,-73.7206"/>
</g>
</g>
</svg>
