<?xml version="1.0" encoding="UTF-8" standalone="no"?>
<!DOCTYPE svg PUBLIC "-//W3C//DTD SVG 1.1//EN"
 "http://www.w3.org/Graphics/SVG/1.1/DTD/svg11.dtd">
<!-- Generated by graphviz version 2.40.1 (0)
 -->
<!-- Title: %3 Pages: 1 -->
<svg width="150pt" height="305pt"
 viewBox="0.00 0.00 150.00 305.00" xmlns="http://www.w3.org/2000/svg" xmlns:xlink="http://www.w3.org/1999/xlink">
<g id="graph0" class="graph" transform="scale(1 1) rotate(0) translate(4 301)">
<title>%3</title>
<polygon fill="#ffffff" stroke="transparent" points="-4,4 -4,-301 146,-301 146,4 -4,4"/>
<!-- C -->
<g id="node1" class="node">
<title>C</title>
<text text-anchor="middle" x="63" y="-101.3" font-family="Times,serif" font-size="14.00" fill="#000000">C</text>
</g>
<!-- E -->
<g id="node2" class="node">
<title>E</title>
<text text-anchor="middle" x="27" y="-14.3" font-family="Times,serif" font-size="14.00" fill="#000000">E</text>
</g>
<!-- C&#45;&gt;E -->
<g id="edge5" class="edge">
<title>C&#45;&gt;E</title>
<path fill="none" stroke="#000000" d="M55.5408,-86.9735C50.569,-74.9585 43.9407,-58.9401 38.3233,-45.3646"/>
<polygon fill="#000000" stroke="#000000" points="41.5073,-43.9053 34.4497,-36.0034 35.0392,-46.5818 41.5073,-43.9053"/>
<text text-anchor="middle" x="59.5" y="-57.8" font-family="Times,serif" font-size="14.00" fill="#000000">1.0</text>
</g>
<!-- D -->
<g id="node5" class="node">
<title>D</title>
<text text-anchor="middle" x="99" y="-14.3" font-family="Times,serif" font-size="14.00" fill="#000000">D</text>
</g>
<!-- C&#45;&gt;D -->
<g id="edge4" class="edge">
<title>C&#45;&gt;D</title>
<path fill="none" stroke="#000000" d="M70.4592,-86.9735C75.431,-74.9585 82.0593,-58.9401 87.6767,-45.3646"/>
<polygon fill="#000000" stroke="#000000" points="90.9608,-46.5818 91.5503,-36.0034 84.4927,-43.9053 90.9608,-46.5818"/>
<text text-anchor="middle" x="94.5" y="-57.8" font-family="Times,serif" font-size="14.00" fill="#000000">1.0</text>
</g>
<!-- A -->
<g id="node3" class="node">
<title>A</title>
<text text-anchor="middle" x="63" y="-275.3" font-family="Times,serif" font-size="14.00" fill="#000000">A</text>
</g>
<!-- A&#45;&gt;C -->
<g id="edge2" class="edge">
<title>A&#45;&gt;C</title>
<path fill="none" stroke="#000000" d="M60.6559,-260.8785C58.9814,-246.9839 56.8761,-227.3164 56,-210 55.1915,-194.0204 55.1915,-189.9796 56,-174 56.6776,-160.6069 58.0906,-145.8073 59.4708,-133.36"/>
<polygon fill="#000000" stroke="#000000" points="62.9827,-133.4577 60.6559,-123.1215 56.0292,-132.6527 62.9827,-133.4577"/>
<text text-anchor="middle" x="67.5" y="-188.3" font-family="Times,serif" font-size="14.00" fill="#000000">1.0</text>
</g>
<!-- B -->
<g id="node4" class="node">
<title>B</title>
<text text-anchor="middle" x="115" y="-188.3" font-family="Times,serif" font-size="14.00" fill="#000000">B</text>
</g>
<!-- A&#45;&gt;B -->
<g id="edge1" class="edge">
<title>A&#45;&gt;B</title>
<path fill="none" stroke="#000000" d="M73.7744,-260.9735C81.0256,-248.8418 90.7162,-232.6287 98.8801,-218.9698"/>
<polygon fill="#000000" stroke="#000000" points="102.1132,-220.3827 104.2394,-210.0034 96.1046,-216.7913 102.1132,-220.3827"/>
<text text-anchor="middle" x="103.5" y="-231.8" font-family="Times,serif" font-size="14.00" fill="#000000">1.0</text>
</g>
<!-- B&#45;&gt;C -->
<g id="edge3" class="edge">
<title>B&#45;&gt;C</title>
<path fill="none" stroke="#000000" d="M104.2256,-173.9735C96.9744,-161.8418 87.2838,-145.6287 79.1199,-131.9698"/>
<polygon fill="#000000" stroke="#000000" points="81.8954,-129.7913 73.7606,-123.0034 75.8868,-133.3827 81.8954,-129.7913"/>
<text text-anchor="middle" x="103.5" y="-144.8" font-family="Times,serif" font-size="14.00" fill="#000000">1.0</text>
</g>
</g>
</svg>
