<?xml version="1.0" encoding="UTF-8" standalone="no"?>
<!DOCTYPE svg PUBLIC "-//W3C//DTD SVG 1.1//EN"
 "http://www.w3.org/Graphics/SVG/1.1/DTD/svg11.dtd">
<!-- Generated by graphviz version 2.40.1 (0)
 -->
<!-- Title: G Pages: 1 -->
<svg width="309pt" height="215pt"
 viewBox="0.00 0.00 309.00 215.00" xmlns="http://www.w3.org/2000/svg" xmlns:xlink="http://www.w3.org/1999/xlink">
<g id="graph0" class="graph" transform="scale(1 1) rotate(0) translate(4 211)">
<title>G</title>
<polygon fill="#ffffff" stroke="transparent" points="-4,4 -4,-211 305,-211 305,4 -4,4"/>
<!-- Bear -->
<g id="node1" class="node">
<title>Bear</title>
<polygon fill="none" stroke="#000000" points="98.5508,-159.2073 -.4492,-159.2073 -.4492,-123.2073 98.5508,-123.2073 98.5508,-159.2073"/>
<text text-anchor="middle" x="49.0508" y="-144.2073" font-family="Courier,monospace" font-weight="bold" font-size="10.00" fill="#000000">Bear</text>
<text text-anchor="middle" x="49.0508" y="-133.2073" font-family="Courier,monospace" font-weight="bold" font-size="10.00" fill="#000000">seq: ATTCCC</text>
</g>
<!-- Cat -->
<g id="node2" class="node">
<title>Cat</title>
<polygon fill="none" stroke="#000000" points="301.0122,-179.5977 202.0122,-179.5977 202.0122,-143.5977 301.0122,-143.5977 301.0122,-179.5977"/>
<text text-anchor="middle" x="251.5122" y="-164.5977" font-family="Courier,monospace" font-weight="bold" font-size="10.00" fill="#000000">Cat</text>
<text text-anchor="middle" x="251.5122" y="-153.5977" font-family="Courier,monospace" font-weight="bold" font-size="10.00" fill="#000000">seq: ACTGGT</text>
</g>
<!-- Elephant -->
<g id="node3" class="node">
<title>Elephant</title>
<polygon fill="none" stroke="#000000" points="214.5119,-36.3424 115.5119,-36.3424 115.5119,-.3424 214.5119,-.3424 214.5119,-36.3424"/>
<text text-anchor="middle" x="165.0119" y="-21.3424" font-family="Courier,monospace" font-weight="bold" font-size="10.00" fill="#000000">Elephant</text>
<text text-anchor="middle" x="165.0119" y="-10.3424" font-family="Courier,monospace" font-weight="bold" font-size="10.00" fill="#000000">seq: TTTCCC</text>
</g>
<!-- i2 -->
<g id="node8" class="node">
<title>i2</title>
<polygon fill="none" stroke="#000000" points="172.96,-84.7678 118.96,-84.7678 118.96,-48.7678 172.96,-48.7678 172.96,-84.7678"/>
<text text-anchor="middle" x="145.96" y="-64.2678" font-family="Courier,monospace" font-weight="bold" font-size="10.00" fill="#000000">i2</text>
</g>
<!-- Elephant&#45;&#45;i2 -->
<g id="edge3" class="edge">
<title>Elephant&#45;&#45;i2</title>
<path fill="none" stroke="#000000" d="M157.9177,-36.3742C156.3519,-40.3541 154.6922,-44.5726 153.1237,-48.5594"/>
</g>
<!-- Kangaroo -->
<g id="node4" class="node">
<title>Kangaroo</title>
<polygon fill="none" stroke="#000000" points="186.2501,-206.6183 87.2501,-206.6183 87.2501,-170.6183 186.2501,-170.6183 186.2501,-206.6183"/>
<text text-anchor="middle" x="136.7501" y="-191.6183" font-family="Courier,monospace" font-weight="bold" font-size="10.00" fill="#000000">Kangaroo</text>
<text text-anchor="middle" x="136.7501" y="-180.6183" font-family="Courier,monospace" font-weight="bold" font-size="10.00" fill="#000000">seq: ATTCCT</text>
</g>
<!-- Kangaroo&#45;&#45;i2 -->
<g id="edge2" class="edge">
<title>Kangaroo&#45;&#45;i2</title>
<path fill="none" stroke="#000000" d="M138.1289,-170.3761C139.8651,-147.4048 142.831,-108.1648 144.5717,-85.1348"/>
</g>
<!-- Lion -->
<g id="node5" class="node">
<title>Lion</title>
<polygon fill="none" stroke="#000000" points="300.8221,-90.1246 201.8221,-90.1246 201.8221,-54.1246 300.8221,-54.1246 300.8221,-90.1246"/>
<text text-anchor="middle" x="251.3221" y="-75.1246" font-family="Courier,monospace" font-weight="bold" font-size="10.00" fill="#000000">Lion</text>
<text text-anchor="middle" x="251.3221" y="-64.1246" font-family="Courier,monospace" font-weight="bold" font-size="10.00" fill="#000000">seq: ACTGCT</text>
</g>
<!-- i0 -->
<g id="node6" class="node">
<title>i0</title>
<polygon fill="none" stroke="#000000" points="170.7434,-134.9299 116.7434,-134.9299 116.7434,-98.9299 170.7434,-98.9299 170.7434,-134.9299"/>
<text text-anchor="middle" x="143.7434" y="-114.4299" font-family="Courier,monospace" font-weight="bold" font-size="10.00" fill="#000000">i0</text>
</g>
<!-- i0&#45;&#45;Bear -->
<g id="edge4" class="edge">
<title>i0&#45;&#45;Bear</title>
<path fill="none" stroke="#000000" d="M116.6083,-123.8868C111.0339,-125.316 104.9993,-126.8632 98.9091,-128.4246"/>
</g>
<!-- i0&#45;&#45;Cat -->
<g id="edge5" class="edge">
<title>i0&#45;&#45;Cat</title>
<path fill="none" stroke="#000000" d="M170.938,-128.2015C182.1619,-132.8535 195.4526,-138.3622 207.9697,-143.5503"/>
</g>
<!-- i0&#45;&#45;Lion -->
<g id="edge6" class="edge">
<title>i0&#45;&#45;Lion</title>
<path fill="none" stroke="#000000" d="M170.8901,-105.6236C182.0941,-100.9573 195.3614,-95.4316 207.8565,-90.2275"/>
</g>
<!-- i1 -->
<g id="node7" class="node">
<title>i1</title>
<polygon fill="none" stroke="#000000" points="90.6301,-74.8675 36.6301,-74.8675 36.6301,-38.8675 90.6301,-38.8675 90.6301,-74.8675"/>
<text text-anchor="middle" x="63.6301" y="-54.3675" font-family="Courier,monospace" font-weight="bold" font-size="10.00" fill="#000000">i1</text>
</g>
<!-- i0&#45;&#45;i1 -->
<g id="edge1" class="edge">
<title>i0&#45;&#45;i1</title>
<path fill="none" stroke="#000000" d="M119.7068,-98.9092C109.5671,-91.3073 97.7876,-82.4761 87.6498,-74.8755"/>
</g>
<!-- i1&#45;&#45;i2 -->
<g id="edge7" class="edge">
<title>i1&#45;&#45;i2</title>
<path fill="none" stroke="#000000" d="M91.0448,-60.1642C100.0259,-61.2442 109.9937,-62.4428 118.9451,-63.5192"/>
</g>
</g>
</svg>
