<?xml version="1.0" encoding="UTF-8" standalone="no"?>
<!DOCTYPE svg PUBLIC "-//W3C//DTD SVG 1.1//EN"
 "http://www.w3.org/Graphics/SVG/1.1/DTD/svg11.dtd">
<!-- Generated by graphviz version 2.40.1 (0)
 -->
<!-- Title: G Pages: 1 -->
<svg width="1932pt" height="661pt"
 viewBox="0.00 0.00 1931.71 660.99" xmlns="http://www.w3.org/2000/svg" xmlns:xlink="http://www.w3.org/1999/xlink">
<g id="graph0" class="graph" transform="scale(1 1) rotate(0) translate(4 656.9891)">
<title>G</title>
<polygon fill="#ffffff" stroke="transparent" points="-4,4 -4,-656.9891 1927.708,-656.9891 1927.708,4 -4,4"/>
<!-- STATE_A -->
<g id="node1" class="node">
<title>STATE_A</title>
<polygon fill="none" stroke="#000000" points="335.4168,-379.0384 337.1928,-379.1369 338.9505,-379.2844 340.6827,-379.4804 342.3823,-379.7244 344.0425,-380.0157 345.6568,-380.3535 347.2188,-380.7369 348.7228,-381.1649 350.163,-381.6363 351.5343,-382.1497 352.8319,-382.7038 354.0514,-383.2971 355.1891,-383.9278 356.2416,-384.5944 357.2059,-385.295 358.0797,-386.0276 358.8611,-386.7902 359.5488,-387.5809 360.1418,-388.3972 360.6397,-389.2372 361.0428,-390.0984 361.3514,-390.9785 361.5667,-391.875 361.69,-392.7856 361.7232,-393.7077 361.6684,-394.6388 361.5282,-395.5763 361.3053,-396.5177 361.0029,-397.4604 360.6242,-398.4018 360.1728,-399.3393 359.6524,-400.2704 359.0666,-401.1925 358.4195,-402.1031 357.7149,-402.9996 356.9568,-403.8797 356.149,-404.7409 355.2955,-405.5809 354.4001,-406.3972 353.4665,-407.1879 352.4982,-407.9505 351.4986,-408.6831 350.4711,-409.3837 349.4186,-410.0503 348.3441,-410.681 347.2503,-411.2743 346.1396,-411.8284 345.0143,-412.3418 343.8765,-412.8132 342.7281,-413.2412 341.5708,-413.6246 340.406,-413.9624 339.2351,-414.2537 338.0593,-414.4977 336.8797,-414.6937 335.6972,-414.8412 334.5128,-414.9397 333.3272,-414.9891 332.1412,-414.9891 330.9556,-414.9397 329.7712,-414.8412 328.5887,-414.6937 327.4091,-414.4977 326.2334,-414.2537 325.0625,-413.9624 323.8977,-413.6246 322.7403,-413.2412 321.5919,-412.8132 320.4541,-412.3418 319.3288,-411.8284 318.2182,-411.2743 317.1243,-410.681 316.0498,-410.0503 314.9974,-409.3837 313.9698,-408.6831 312.9703,-407.9505 312.002,-407.1879 311.0683,-406.3972 310.1729,-405.5809 309.3194,-404.7409 308.5117,-403.8797 307.7535,-402.9996 307.0489,-402.1031 306.4018,-401.1925 305.8161,-400.2704 305.2956,-399.3393 304.8442,-398.4018 304.4656,-397.4604 304.1631,-396.5177 303.9403,-395.5763 303.8,-394.6388 303.7453,-393.7077 303.7784,-392.7856 303.9018,-391.875 304.117,-390.9785 304.4257,-390.0984 304.8287,-389.2372 305.3267,-388.3972 305.9197,-387.5809 306.6073,-386.7902 307.3887,-386.0276 308.2625,-385.295 309.2268,-384.5944 310.2793,-383.9278 311.417,-383.2971 312.6366,-382.7038 313.9342,-382.1497 315.3055,-381.6363 316.7457,-381.1649 318.2496,-380.7369 319.8117,-380.3535 321.426,-380.0157 323.0862,-379.7244 324.7858,-379.4804 326.5179,-379.2844 328.2756,-379.1369 330.0517,-379.0384 331.8388,-378.9891 333.6296,-378.9891 335.4168,-379.0384"/>
<text text-anchor="middle" x="332.7342" y="-394.4891" font-family="Courier,monospace" font-weight="bold" font-size="10.00" fill="#000000">A</text>
</g>
<!-- STATE_B -->
<g id="node2" class="node">
<title>STATE_B</title>
<polygon fill="none" stroke="#000000" points="641.1602,-194.0384 642.9363,-194.1369 644.694,-194.2844 646.4261,-194.4804 648.1257,-194.7244 649.7859,-195.0157 651.4002,-195.3535 652.9623,-195.7369 654.4662,-196.1649 655.9064,-196.6363 657.2777,-197.1497 658.5753,-197.7038 659.7949,-198.2971 660.9326,-198.9278 661.9851,-199.5944 662.9494,-200.295 663.8232,-201.0276 664.6046,-201.7902 665.2922,-202.5809 665.8852,-203.3972 666.3832,-204.2372 666.7862,-205.0984 667.0949,-205.9785 667.3101,-206.875 667.4334,-207.7856 667.4666,-208.7077 667.4118,-209.6388 667.2716,-210.5763 667.0487,-211.5177 666.7463,-212.4604 666.3677,-213.4018 665.9163,-214.3393 665.3958,-215.2704 664.8101,-216.1925 664.1629,-217.1031 663.4583,-217.9996 662.7002,-218.8797 661.8925,-219.7409 661.039,-220.5809 660.1436,-221.3972 659.2099,-222.1879 658.2416,-222.9505 657.242,-223.6831 656.2145,-224.3837 655.162,-225.0503 654.0876,-225.681 652.9937,-226.2743 651.883,-226.8284 650.7578,-227.3418 649.62,-227.8132 648.4716,-228.2412 647.3142,-228.6246 646.1494,-228.9624 644.9785,-229.2537 643.8027,-229.4977 642.6231,-229.6937 641.4407,-229.8412 640.2562,-229.9397 639.0707,-229.9891 637.8847,-229.9891 636.6991,-229.9397 635.5146,-229.8412 634.3322,-229.6937 633.1526,-229.4977 631.9768,-229.2537 630.8059,-228.9624 629.6411,-228.6246 628.4838,-228.2412 627.3353,-227.8132 626.1976,-227.3418 625.0723,-226.8284 623.9616,-226.2743 622.8678,-225.681 621.7933,-225.0503 620.7408,-224.3837 619.7133,-223.6831 618.7137,-222.9505 617.7454,-222.1879 616.8118,-221.3972 615.9164,-220.5809 615.0629,-219.7409 614.2551,-218.8797 613.497,-217.9996 612.7924,-217.1031 612.1452,-216.1925 611.5595,-215.2704 611.0391,-214.3393 610.5877,-213.4018 610.209,-212.4604 609.9066,-211.5177 609.6837,-210.5763 609.5435,-209.6388 609.4887,-208.7077 609.5219,-207.7856 609.6452,-206.875 609.8605,-205.9785 610.1691,-205.0984 610.5722,-204.2372 611.0701,-203.3972 611.6631,-202.5809 612.3507,-201.7902 613.1321,-201.0276 614.006,-200.295 614.9703,-199.5944 616.0227,-198.9278 617.1604,-198.2971 618.38,-197.7038 619.6776,-197.1497 621.0489,-196.6363 622.4891,-196.1649 623.993,-195.7369 625.5551,-195.3535 627.1694,-195.0157 628.8296,-194.7244 630.5292,-194.4804 632.2614,-194.2844 634.0191,-194.1369 635.7951,-194.0384 637.5823,-193.9891 639.3731,-193.9891 641.1602,-194.0384"/>
<text text-anchor="middle" x="638.4777" y="-209.4891" font-family="Courier,monospace" font-weight="bold" font-size="10.00" fill="#000000">B</text>
</g>
<!-- STATE_A&#45;&gt;STATE_B -->
<g id="edge1" class="edge">
<title>STATE_A&#45;&gt;STATE_B</title>
<path fill="none" stroke="#000000" d="M354.2848,-383.0608C374.6511,-369.963 406.1143,-349.8958 433.7342,-332.9891 496.1666,-294.7729 570.3206,-251.4573 610.0188,-228.4335"/>
<polygon fill="#000000" stroke="#000000" points="611.9803,-231.3421 618.8783,-223.3005 608.4711,-225.2852 611.9803,-231.3421"/>
<text text-anchor="middle" x="512.7342" y="-335.9891" font-family="Courier,monospace" font-weight="bold" font-size="10.00" fill="#000000">0.42434945088606085</text>
</g>
<!-- STATE_E -->
<g id="node5" class="node">
<title>STATE_E</title>
<polygon fill="none" stroke="#000000" points="1598.9036,-501.0384 1600.6797,-501.1369 1602.4374,-501.2844 1604.1696,-501.4804 1605.8691,-501.7244 1607.5294,-502.0157 1609.1436,-502.3535 1610.7057,-502.7369 1612.2097,-503.1649 1613.6499,-503.6363 1615.0211,-504.1497 1616.3187,-504.7038 1617.5383,-505.2971 1618.676,-505.9278 1619.7285,-506.5944 1620.6928,-507.295 1621.5666,-508.0276 1622.348,-508.7902 1623.0357,-509.5809 1623.6287,-510.3972 1624.1266,-511.2372 1624.5296,-512.0984 1624.8383,-512.9785 1625.0536,-513.875 1625.1769,-514.7856 1625.2101,-515.7077 1625.1553,-516.6388 1625.0151,-517.5763 1624.7922,-518.5177 1624.4898,-519.4604 1624.1111,-520.4018 1623.6597,-521.3393 1623.1393,-522.2704 1622.5535,-523.1925 1621.9064,-524.1031 1621.2018,-524.9996 1620.4436,-525.8797 1619.6359,-526.7409 1618.7824,-527.5809 1617.887,-528.3972 1616.9534,-529.1879 1615.985,-529.9505 1614.9855,-530.6831 1613.9579,-531.3837 1612.9055,-532.0503 1611.831,-532.681 1610.7372,-533.2743 1609.6265,-533.8284 1608.5012,-534.3418 1607.3634,-534.8132 1606.215,-535.2412 1605.0577,-535.6246 1603.8929,-535.9624 1602.722,-536.2537 1601.5462,-536.4977 1600.3666,-536.6937 1599.1841,-536.8412 1597.9997,-536.9397 1596.8141,-536.9891 1595.6281,-536.9891 1594.4425,-536.9397 1593.2581,-536.8412 1592.0756,-536.6937 1590.896,-536.4977 1589.7203,-536.2537 1588.5494,-535.9624 1587.3846,-535.6246 1586.2272,-535.2412 1585.0788,-534.8132 1583.941,-534.3418 1582.8157,-533.8284 1581.705,-533.2743 1580.6112,-532.681 1579.5367,-532.0503 1578.4843,-531.3837 1577.4567,-530.6831 1576.4572,-529.9505 1575.4889,-529.1879 1574.5552,-528.3972 1573.6598,-527.5809 1572.8063,-526.7409 1571.9986,-525.8797 1571.2404,-524.9996 1570.5358,-524.1031 1569.8887,-523.1925 1569.303,-522.2704 1568.7825,-521.3393 1568.3311,-520.4018 1567.9524,-519.4604 1567.65,-518.5177 1567.4272,-517.5763 1567.2869,-516.6388 1567.2321,-515.7077 1567.2653,-514.7856 1567.3886,-513.875 1567.6039,-512.9785 1567.9126,-512.0984 1568.3156,-511.2372 1568.8136,-510.3972 1569.4066,-509.5809 1570.0942,-508.7902 1570.8756,-508.0276 1571.7494,-507.295 1572.7137,-506.5944 1573.7662,-505.9278 1574.9039,-505.2971 1576.1235,-504.7038 1577.4211,-504.1497 1578.7923,-503.6363 1580.2326,-503.1649 1581.7365,-502.7369 1583.2986,-502.3535 1584.9129,-502.0157 1586.5731,-501.7244 1588.2727,-501.4804 1590.0048,-501.2844 1591.7625,-501.1369 1593.5386,-501.0384 1595.3257,-500.9891 1597.1165,-500.9891 1598.9036,-501.0384"/>
<text text-anchor="middle" x="1596.2211" y="-516.4891" font-family="Courier,monospace" font-weight="bold" font-size="10.00" fill="#000000">E</text>
</g>
<!-- STATE_A&#45;&gt;STATE_E -->
<g id="edge2" class="edge">
<title>STATE_A&#45;&gt;STATE_E</title>
<path fill="none" stroke="#000000" d="M351.3001,-408.8665C370.9816,-420.8907 403.3587,-439.0829 433.7342,-448.9891 521.2972,-477.5455 546.3759,-480.9891 638.4777,-480.9891 638.4777,-480.9891 638.4777,-480.9891 1082.7211,-480.9891 1266.3645,-480.9891 1312.4576,-487.0343 1495.2211,-504.9891 1515.7346,-507.0043 1538.4818,-510.0826 1557.1872,-512.84"/>
<polygon fill="#000000" stroke="#000000" points="1556.7149,-516.3082 1567.1234,-514.3301 1557.7531,-509.3856 1556.7149,-516.3082"/>
<text text-anchor="middle" x="917.7211" y="-483.9891" font-family="Courier,monospace" font-weight="bold" font-size="10.00" fill="#000000">0.36842179950491344</text>
</g>
<!-- STATE_F -->
<g id="node6" class="node">
<title>STATE_F</title>
<polygon fill="none" stroke="#000000" points="1250.4036,-363.0384 1252.1797,-363.1369 1253.9374,-363.2844 1255.6696,-363.4804 1257.3691,-363.7244 1259.0294,-364.0157 1260.6436,-364.3535 1262.2057,-364.7369 1263.7097,-365.1649 1265.1499,-365.6363 1266.5211,-366.1497 1267.8187,-366.7038 1269.0383,-367.2971 1270.176,-367.9278 1271.2285,-368.5944 1272.1928,-369.295 1273.0666,-370.0276 1273.848,-370.7902 1274.5357,-371.5809 1275.1287,-372.3972 1275.6266,-373.2372 1276.0296,-374.0984 1276.3383,-374.9785 1276.5536,-375.875 1276.6769,-376.7856 1276.7101,-377.7077 1276.6553,-378.6388 1276.5151,-379.5763 1276.2922,-380.5177 1275.9898,-381.4604 1275.6111,-382.4018 1275.1597,-383.3393 1274.6393,-384.2704 1274.0535,-385.1925 1273.4064,-386.1031 1272.7018,-386.9996 1271.9436,-387.8797 1271.1359,-388.7409 1270.2824,-389.5809 1269.387,-390.3972 1268.4534,-391.1879 1267.485,-391.9505 1266.4855,-392.6831 1265.4579,-393.3837 1264.4055,-394.0503 1263.331,-394.681 1262.2372,-395.2743 1261.1265,-395.8284 1260.0012,-396.3418 1258.8634,-396.8132 1257.715,-397.2412 1256.5577,-397.6246 1255.3929,-397.9624 1254.222,-398.2537 1253.0462,-398.4977 1251.8666,-398.6937 1250.6841,-398.8412 1249.4997,-398.9397 1248.3141,-398.9891 1247.1281,-398.9891 1245.9425,-398.9397 1244.7581,-398.8412 1243.5756,-398.6937 1242.396,-398.4977 1241.2203,-398.2537 1240.0494,-397.9624 1238.8846,-397.6246 1237.7272,-397.2412 1236.5788,-396.8132 1235.441,-396.3418 1234.3157,-395.8284 1233.205,-395.2743 1232.1112,-394.681 1231.0367,-394.0503 1229.9843,-393.3837 1228.9567,-392.6831 1227.9572,-391.9505 1226.9889,-391.1879 1226.0552,-390.3972 1225.1598,-389.5809 1224.3063,-388.7409 1223.4986,-387.8797 1222.7404,-386.9996 1222.0358,-386.1031 1221.3887,-385.1925 1220.803,-384.2704 1220.2825,-383.3393 1219.8311,-382.4018 1219.4524,-381.4604 1219.15,-380.5177 1218.9272,-379.5763 1218.7869,-378.6388 1218.7321,-377.7077 1218.7653,-376.7856 1218.8886,-375.875 1219.1039,-374.9785 1219.4126,-374.0984 1219.8156,-373.2372 1220.3136,-372.3972 1220.9066,-371.5809 1221.5942,-370.7902 1222.3756,-370.0276 1223.2494,-369.295 1224.2137,-368.5944 1225.2662,-367.9278 1226.4039,-367.2971 1227.6235,-366.7038 1228.9211,-366.1497 1230.2923,-365.6363 1231.7326,-365.1649 1233.2365,-364.7369 1234.7986,-364.3535 1236.4129,-364.0157 1238.0731,-363.7244 1239.7727,-363.4804 1241.5048,-363.2844 1243.2625,-363.1369 1245.0386,-363.0384 1246.8257,-362.9891 1248.6165,-362.9891 1250.4036,-363.0384"/>
<text text-anchor="middle" x="1247.7211" y="-378.4891" font-family="Courier,monospace" font-weight="bold" font-size="10.00" fill="#000000">F</text>
</g>
<!-- STATE_A&#45;&gt;STATE_F -->
<g id="edge3" class="edge">
<title>STATE_A&#45;&gt;STATE_F</title>
<path fill="none" stroke="#000000" d="M361.3747,-396.4882C494.8434,-394.1543 1055.7577,-384.3458 1208.931,-381.6674"/>
<polygon fill="#000000" stroke="#000000" points="1209.3061,-385.1614 1219.2433,-381.487 1209.1836,-378.1625 1209.3061,-385.1614"/>
<text text-anchor="middle" x="756.7211" y="-392.9891" font-family="Courier,monospace" font-weight="bold" font-size="10.00" fill="#000000">0.20722874960902565</text>
</g>
<!-- SYMBOL_y -->
<g id="node8" class="node">
<title>SYMBOL_y</title>
<polygon fill="none" stroke="#000000" stroke-dasharray="5,2" points="1897.6471,-285.0384 1899.4231,-285.1369 1901.1808,-285.2844 1902.913,-285.4804 1904.6126,-285.7244 1906.2728,-286.0157 1907.8871,-286.3535 1909.4492,-286.7369 1910.9531,-287.1649 1912.3933,-287.6363 1913.7646,-288.1497 1915.0622,-288.7038 1916.2818,-289.2971 1917.4195,-289.9278 1918.4719,-290.5944 1919.4363,-291.295 1920.3101,-292.0276 1921.0915,-292.7902 1921.7791,-293.5809 1922.3721,-294.3972 1922.8701,-295.2372 1923.2731,-296.0984 1923.5817,-296.9785 1923.797,-297.875 1923.9203,-298.7856 1923.9535,-299.7077 1923.8987,-300.6388 1923.7585,-301.5763 1923.5356,-302.5177 1923.2332,-303.4604 1922.8545,-304.4018 1922.4032,-305.3393 1921.8827,-306.2704 1921.297,-307.1925 1920.6498,-308.1031 1919.9452,-308.9996 1919.1871,-309.8797 1918.3793,-310.7409 1917.5259,-311.5809 1916.6305,-312.3972 1915.6968,-313.1879 1914.7285,-313.9505 1913.7289,-314.6831 1912.7014,-315.3837 1911.6489,-316.0503 1910.5744,-316.681 1909.4806,-317.2743 1908.3699,-317.8284 1907.2447,-318.3418 1906.1069,-318.8132 1904.9585,-319.2412 1903.8011,-319.6246 1902.6363,-319.9624 1901.4654,-320.2537 1900.2896,-320.4977 1899.11,-320.6937 1897.9276,-320.8412 1896.7431,-320.9397 1895.5575,-320.9891 1894.3716,-320.9891 1893.186,-320.9397 1892.0015,-320.8412 1890.8191,-320.6937 1889.6395,-320.4977 1888.4637,-320.2537 1887.2928,-319.9624 1886.128,-319.6246 1884.9706,-319.2412 1883.8222,-318.8132 1882.6844,-318.3418 1881.5592,-317.8284 1880.4485,-317.2743 1879.3547,-316.681 1878.2802,-316.0503 1877.2277,-315.3837 1876.2002,-314.6831 1875.2006,-313.9505 1874.2323,-313.1879 1873.2986,-312.3972 1872.4032,-311.5809 1871.5498,-310.7409 1870.742,-309.8797 1869.9839,-308.9996 1869.2793,-308.1031 1868.6321,-307.1925 1868.0464,-306.2704 1867.5259,-305.3393 1867.0746,-304.4018 1866.6959,-303.4604 1866.3935,-302.5177 1866.1706,-301.5763 1866.0304,-300.6388 1865.9756,-299.7077 1866.0088,-298.7856 1866.1321,-297.875 1866.3474,-296.9785 1866.656,-296.0984 1867.059,-295.2372 1867.557,-294.3972 1868.15,-293.5809 1868.8376,-292.7902 1869.619,-292.0276 1870.4928,-291.295 1871.4572,-290.5944 1872.5096,-289.9278 1873.6473,-289.2971 1874.8669,-288.7038 1876.1645,-288.1497 1877.5358,-287.6363 1878.976,-287.1649 1880.4799,-286.7369 1882.042,-286.3535 1883.6563,-286.0157 1885.3165,-285.7244 1887.0161,-285.4804 1888.7483,-285.2844 1890.506,-285.1369 1892.282,-285.0384 1894.0691,-284.9891 1895.86,-284.9891 1897.6471,-285.0384"/>
<text text-anchor="middle" x="1894.9645" y="-300.4891" font-family="Courier,monospace" font-weight="bold" font-size="10.00" fill="#000000">y</text>
</g>
<!-- STATE_A&#45;&gt;SYMBOL_y -->
<g id="edge14" class="edge">
<title>STATE_A&#45;&gt;SYMBOL_y</title>
<path fill="none" stroke="#000000" stroke-dasharray="5,2" d="M359.6881,-400.3778C380.0029,-402.7566 408.5685,-405.7293 433.7342,-406.9891 986.9366,-434.682 1132.0302,-448.9067 1679.2211,-362.9891 1754.7416,-351.1311 1776.7681,-358.163 1848.2211,-330.9891 1854.9935,-328.4135 1861.8976,-324.8726 1868.2486,-321.1747"/>
<polygon fill="#000000" stroke="#000000" points="1870.3974,-323.9619 1877.0777,-315.7384 1866.7273,-318.0011 1870.3974,-323.9619"/>
<text text-anchor="middle" x="1082.7211" y="-430.9891" font-family="Courier,monospace" font-weight="bold" font-size="10.00" fill="#000000">0.00396462174775412</text>
</g>
<!-- SYMBOL_z -->
<g id="node9" class="node">
<title>SYMBOL_z</title>
<polygon fill="none" stroke="#000000" stroke-dasharray="5,2" points="1897.6471,-105.0384 1899.4231,-105.1369 1901.1808,-105.2844 1902.913,-105.4804 1904.6126,-105.7244 1906.2728,-106.0157 1907.8871,-106.3535 1909.4492,-106.7369 1910.9531,-107.1649 1912.3933,-107.6363 1913.7646,-108.1497 1915.0622,-108.7038 1916.2818,-109.2971 1917.4195,-109.9278 1918.4719,-110.5944 1919.4363,-111.295 1920.3101,-112.0276 1921.0915,-112.7902 1921.7791,-113.5809 1922.3721,-114.3972 1922.8701,-115.2372 1923.2731,-116.0984 1923.5817,-116.9785 1923.797,-117.875 1923.9203,-118.7856 1923.9535,-119.7077 1923.8987,-120.6388 1923.7585,-121.5763 1923.5356,-122.5177 1923.2332,-123.4604 1922.8545,-124.4018 1922.4032,-125.3393 1921.8827,-126.2704 1921.297,-127.1925 1920.6498,-128.1031 1919.9452,-128.9996 1919.1871,-129.8797 1918.3793,-130.7409 1917.5259,-131.5809 1916.6305,-132.3972 1915.6968,-133.1879 1914.7285,-133.9505 1913.7289,-134.6831 1912.7014,-135.3837 1911.6489,-136.0503 1910.5744,-136.681 1909.4806,-137.2743 1908.3699,-137.8284 1907.2447,-138.3418 1906.1069,-138.8132 1904.9585,-139.2412 1903.8011,-139.6246 1902.6363,-139.9624 1901.4654,-140.2537 1900.2896,-140.4977 1899.11,-140.6937 1897.9276,-140.8412 1896.7431,-140.9397 1895.5575,-140.9891 1894.3716,-140.9891 1893.186,-140.9397 1892.0015,-140.8412 1890.8191,-140.6937 1889.6395,-140.4977 1888.4637,-140.2537 1887.2928,-139.9624 1886.128,-139.6246 1884.9706,-139.2412 1883.8222,-138.8132 1882.6844,-138.3418 1881.5592,-137.8284 1880.4485,-137.2743 1879.3547,-136.681 1878.2802,-136.0503 1877.2277,-135.3837 1876.2002,-134.6831 1875.2006,-133.9505 1874.2323,-133.1879 1873.2986,-132.3972 1872.4032,-131.5809 1871.5498,-130.7409 1870.742,-129.8797 1869.9839,-128.9996 1869.2793,-128.1031 1868.6321,-127.1925 1868.0464,-126.2704 1867.5259,-125.3393 1867.0746,-124.4018 1866.6959,-123.4604 1866.3935,-122.5177 1866.1706,-121.5763 1866.0304,-120.6388 1865.9756,-119.7077 1866.0088,-118.7856 1866.1321,-117.875 1866.3474,-116.9785 1866.656,-116.0984 1867.059,-115.2372 1867.557,-114.3972 1868.15,-113.5809 1868.8376,-112.7902 1869.619,-112.0276 1870.4928,-111.295 1871.4572,-110.5944 1872.5096,-109.9278 1873.6473,-109.2971 1874.8669,-108.7038 1876.1645,-108.1497 1877.5358,-107.6363 1878.976,-107.1649 1880.4799,-106.7369 1882.042,-106.3535 1883.6563,-106.0157 1885.3165,-105.7244 1887.0161,-105.4804 1888.7483,-105.2844 1890.506,-105.1369 1892.282,-105.0384 1894.0691,-104.9891 1895.86,-104.9891 1897.6471,-105.0384"/>
<text text-anchor="middle" x="1894.9645" y="-120.4891" font-family="Courier,monospace" font-weight="bold" font-size="10.00" fill="#000000">z</text>
</g>
<!-- STATE_A&#45;&gt;SYMBOL_z -->
<g id="edge15" class="edge">
<title>STATE_A&#45;&gt;SYMBOL_z</title>
<path fill="none" stroke="#000000" stroke-dasharray="5,2" d="M340.565,-379.3211C355.2212,-347.7574 389.3649,-280.8845 433.7342,-236.9891 527.0716,-144.6485 560.9573,-124.382 685.2211,-81.9891 1103.5275,60.7175 1238.3248,-21.0727 1679.2211,-51.9891 1754.6711,-57.2797 1780.9025,-37.5087 1848.2211,-71.9891 1859.7962,-77.9178 1869.9421,-87.9554 1877.797,-97.5652"/>
<polygon fill="#000000" stroke="#000000" points="1875.2314,-99.9719 1884.0883,-105.7861 1880.7903,-95.7177 1875.2314,-99.9719"/>
<text text-anchor="middle" x="1082.7211" y="-8.9891" font-family="Courier,monospace" font-weight="bold" font-size="10.00" fill="#000000">0.9908989108987591</text>
</g>
<!-- SYMBOL_x -->
<g id="node10" class="node">
<title>SYMBOL_x</title>
<polygon fill="none" stroke="#000000" stroke-dasharray="5,2" points="1897.6471,-534.0384 1899.4231,-534.1369 1901.1808,-534.2844 1902.913,-534.4804 1904.6126,-534.7244 1906.2728,-535.0157 1907.8871,-535.3535 1909.4492,-535.7369 1910.9531,-536.1649 1912.3933,-536.6363 1913.7646,-537.1497 1915.0622,-537.7038 1916.2818,-538.2971 1917.4195,-538.9278 1918.4719,-539.5944 1919.4363,-540.295 1920.3101,-541.0276 1921.0915,-541.7902 1921.7791,-542.5809 1922.3721,-543.3972 1922.8701,-544.2372 1923.2731,-545.0984 1923.5817,-545.9785 1923.797,-546.875 1923.9203,-547.7856 1923.9535,-548.7077 1923.8987,-549.6388 1923.7585,-550.5763 1923.5356,-551.5177 1923.2332,-552.4604 1922.8545,-553.4018 1922.4032,-554.3393 1921.8827,-555.2704 1921.297,-556.1925 1920.6498,-557.1031 1919.9452,-557.9996 1919.1871,-558.8797 1918.3793,-559.7409 1917.5259,-560.5809 1916.6305,-561.3972 1915.6968,-562.1879 1914.7285,-562.9505 1913.7289,-563.6831 1912.7014,-564.3837 1911.6489,-565.0503 1910.5744,-565.681 1909.4806,-566.2743 1908.3699,-566.8284 1907.2447,-567.3418 1906.1069,-567.8132 1904.9585,-568.2412 1903.8011,-568.6246 1902.6363,-568.9624 1901.4654,-569.2537 1900.2896,-569.4977 1899.11,-569.6937 1897.9276,-569.8412 1896.7431,-569.9397 1895.5575,-569.9891 1894.3716,-569.9891 1893.186,-569.9397 1892.0015,-569.8412 1890.8191,-569.6937 1889.6395,-569.4977 1888.4637,-569.2537 1887.2928,-568.9624 1886.128,-568.6246 1884.9706,-568.2412 1883.8222,-567.8132 1882.6844,-567.3418 1881.5592,-566.8284 1880.4485,-566.2743 1879.3547,-565.681 1878.2802,-565.0503 1877.2277,-564.3837 1876.2002,-563.6831 1875.2006,-562.9505 1874.2323,-562.1879 1873.2986,-561.3972 1872.4032,-560.5809 1871.5498,-559.7409 1870.742,-558.8797 1869.9839,-557.9996 1869.2793,-557.1031 1868.6321,-556.1925 1868.0464,-555.2704 1867.5259,-554.3393 1867.0746,-553.4018 1866.6959,-552.4604 1866.3935,-551.5177 1866.1706,-550.5763 1866.0304,-549.6388 1865.9756,-548.7077 1866.0088,-547.7856 1866.1321,-546.875 1866.3474,-545.9785 1866.656,-545.0984 1867.059,-544.2372 1867.557,-543.3972 1868.15,-542.5809 1868.8376,-541.7902 1869.619,-541.0276 1870.4928,-540.295 1871.4572,-539.5944 1872.5096,-538.9278 1873.6473,-538.2971 1874.8669,-537.7038 1876.1645,-537.1497 1877.5358,-536.6363 1878.976,-536.1649 1880.4799,-535.7369 1882.042,-535.3535 1883.6563,-535.0157 1885.3165,-534.7244 1887.0161,-534.4804 1888.7483,-534.2844 1890.506,-534.1369 1892.282,-534.0384 1894.0691,-533.9891 1895.86,-533.9891 1897.6471,-534.0384"/>
<text text-anchor="middle" x="1894.9645" y="-549.4891" font-family="Courier,monospace" font-weight="bold" font-size="10.00" fill="#000000">x</text>
</g>
<!-- STATE_A&#45;&gt;SYMBOL_x -->
<g id="edge16" class="edge">
<title>STATE_A&#45;&gt;SYMBOL_x</title>
<path fill="none" stroke="#000000" stroke-dasharray="5,2" d="M342.2635,-413.4446C375.4412,-468.3767 491.8943,-641.9891 638.4777,-641.9891 638.4777,-641.9891 638.4777,-641.9891 1596.2211,-641.9891 1710.5807,-641.9891 1744.9026,-639.0136 1848.2211,-589.9891 1857.1029,-585.7746 1865.7644,-579.5318 1873.1699,-573.3183"/>
<polygon fill="#000000" stroke="#000000" points="1875.4956,-575.9339 1880.6636,-566.685 1870.8559,-570.6924 1875.4956,-575.9339"/>
<text text-anchor="middle" x="1082.7211" y="-644.9891" font-family="Courier,monospace" font-weight="bold" font-size="10.00" fill="#000000">0.005136467353486777</text>
</g>
<!-- STATE_C -->
<g id="node3" class="node">
<title>STATE_C</title>
<polygon fill="none" stroke="#000000" points="920.4036,-248.0384 922.1797,-248.1369 923.9374,-248.2844 925.6696,-248.4804 927.3691,-248.7244 929.0294,-249.0157 930.6436,-249.3535 932.2057,-249.7369 933.7097,-250.1649 935.1499,-250.6363 936.5211,-251.1497 937.8187,-251.7038 939.0383,-252.2971 940.176,-252.9278 941.2285,-253.5944 942.1928,-254.295 943.0666,-255.0276 943.848,-255.7902 944.5357,-256.5809 945.1287,-257.3972 945.6266,-258.2372 946.0296,-259.0984 946.3383,-259.9785 946.5536,-260.875 946.6769,-261.7856 946.7101,-262.7077 946.6553,-263.6388 946.5151,-264.5763 946.2922,-265.5177 945.9898,-266.4604 945.6111,-267.4018 945.1597,-268.3393 944.6393,-269.2704 944.0535,-270.1925 943.4064,-271.1031 942.7018,-271.9996 941.9436,-272.8797 941.1359,-273.7409 940.2824,-274.5809 939.387,-275.3972 938.4534,-276.1879 937.485,-276.9505 936.4855,-277.6831 935.4579,-278.3837 934.4055,-279.0503 933.331,-279.681 932.2372,-280.2743 931.1265,-280.8284 930.0012,-281.3418 928.8634,-281.8132 927.715,-282.2412 926.5577,-282.6246 925.3929,-282.9624 924.222,-283.2537 923.0462,-283.4977 921.8666,-283.6937 920.6841,-283.8412 919.4997,-283.9397 918.3141,-283.9891 917.1281,-283.9891 915.9425,-283.9397 914.7581,-283.8412 913.5756,-283.6937 912.396,-283.4977 911.2203,-283.2537 910.0494,-282.9624 908.8846,-282.6246 907.7272,-282.2412 906.5788,-281.8132 905.441,-281.3418 904.3157,-280.8284 903.205,-280.2743 902.1112,-279.681 901.0367,-279.0503 899.9843,-278.3837 898.9567,-277.6831 897.9572,-276.9505 896.9889,-276.1879 896.0552,-275.3972 895.1598,-274.5809 894.3063,-273.7409 893.4986,-272.8797 892.7404,-271.9996 892.0358,-271.1031 891.3887,-270.1925 890.803,-269.2704 890.2825,-268.3393 889.8311,-267.4018 889.4524,-266.4604 889.15,-265.5177 888.9272,-264.5763 888.7869,-263.6388 888.7321,-262.7077 888.7653,-261.7856 888.8886,-260.875 889.1039,-259.9785 889.4126,-259.0984 889.8156,-258.2372 890.3136,-257.3972 890.9066,-256.5809 891.5942,-255.7902 892.3756,-255.0276 893.2494,-254.295 894.2137,-253.5944 895.2662,-252.9278 896.4039,-252.2971 897.6235,-251.7038 898.9211,-251.1497 900.2923,-250.6363 901.7326,-250.1649 903.2365,-249.7369 904.7986,-249.3535 906.4129,-249.0157 908.0731,-248.7244 909.7727,-248.4804 911.5048,-248.2844 913.2625,-248.1369 915.0386,-248.0384 916.8257,-247.9891 918.6165,-247.9891 920.4036,-248.0384"/>
<text text-anchor="middle" x="917.7211" y="-263.4891" font-family="Courier,monospace" font-weight="bold" font-size="10.00" fill="#000000">C</text>
</g>
<!-- STATE_B&#45;&gt;STATE_C -->
<g id="edge4" class="edge">
<title>STATE_B&#45;&gt;STATE_C</title>
<path fill="none" stroke="#000000" d="M664.4975,-217.0207C713.7997,-226.5548 821.0575,-247.2963 878.8967,-258.4812"/>
<polygon fill="#000000" stroke="#000000" points="878.2746,-261.9257 888.7573,-260.388 879.6037,-255.053 878.2746,-261.9257"/>
<text text-anchor="middle" x="756.7211" y="-250.9891" font-family="Courier,monospace" font-weight="bold" font-size="10.00" fill="#000000">0.17053999472155937</text>
</g>
<!-- STATE_D -->
<g id="node4" class="node">
<title>STATE_D</title>
<polygon fill="none" stroke="#000000" points="1085.4036,-168.0384 1087.1797,-168.1369 1088.9374,-168.2844 1090.6696,-168.4804 1092.3691,-168.7244 1094.0294,-169.0157 1095.6436,-169.3535 1097.2057,-169.7369 1098.7097,-170.1649 1100.1499,-170.6363 1101.5211,-171.1497 1102.8187,-171.7038 1104.0383,-172.2971 1105.176,-172.9278 1106.2285,-173.5944 1107.1928,-174.295 1108.0666,-175.0276 1108.848,-175.7902 1109.5357,-176.5809 1110.1287,-177.3972 1110.6266,-178.2372 1111.0296,-179.0984 1111.3383,-179.9785 1111.5536,-180.875 1111.6769,-181.7856 1111.7101,-182.7077 1111.6553,-183.6388 1111.5151,-184.5763 1111.2922,-185.5177 1110.9898,-186.4604 1110.6111,-187.4018 1110.1597,-188.3393 1109.6393,-189.2704 1109.0535,-190.1925 1108.4064,-191.1031 1107.7018,-191.9996 1106.9436,-192.8797 1106.1359,-193.7409 1105.2824,-194.5809 1104.387,-195.3972 1103.4534,-196.1879 1102.485,-196.9505 1101.4855,-197.6831 1100.4579,-198.3837 1099.4055,-199.0503 1098.331,-199.681 1097.2372,-200.2743 1096.1265,-200.8284 1095.0012,-201.3418 1093.8634,-201.8132 1092.715,-202.2412 1091.5577,-202.6246 1090.3929,-202.9624 1089.222,-203.2537 1088.0462,-203.4977 1086.8666,-203.6937 1085.6841,-203.8412 1084.4997,-203.9397 1083.3141,-203.9891 1082.1281,-203.9891 1080.9425,-203.9397 1079.7581,-203.8412 1078.5756,-203.6937 1077.396,-203.4977 1076.2203,-203.2537 1075.0494,-202.9624 1073.8846,-202.6246 1072.7272,-202.2412 1071.5788,-201.8132 1070.441,-201.3418 1069.3157,-200.8284 1068.205,-200.2743 1067.1112,-199.681 1066.0367,-199.0503 1064.9843,-198.3837 1063.9567,-197.6831 1062.9572,-196.9505 1061.9889,-196.1879 1061.0552,-195.3972 1060.1598,-194.5809 1059.3063,-193.7409 1058.4986,-192.8797 1057.7404,-191.9996 1057.0358,-191.1031 1056.3887,-190.1925 1055.803,-189.2704 1055.2825,-188.3393 1054.8311,-187.4018 1054.4524,-186.4604 1054.15,-185.5177 1053.9272,-184.5763 1053.7869,-183.6388 1053.7321,-182.7077 1053.7653,-181.7856 1053.8886,-180.875 1054.1039,-179.9785 1054.4126,-179.0984 1054.8156,-178.2372 1055.3136,-177.3972 1055.9066,-176.5809 1056.5942,-175.7902 1057.3756,-175.0276 1058.2494,-174.295 1059.2137,-173.5944 1060.2662,-172.9278 1061.4039,-172.2971 1062.6235,-171.7038 1063.9211,-171.1497 1065.2923,-170.6363 1066.7326,-170.1649 1068.2365,-169.7369 1069.7986,-169.3535 1071.4129,-169.0157 1073.0731,-168.7244 1074.7727,-168.4804 1076.5048,-168.2844 1078.2625,-168.1369 1080.0386,-168.0384 1081.8257,-167.9891 1083.6165,-167.9891 1085.4036,-168.0384"/>
<text text-anchor="middle" x="1082.7211" y="-183.4891" font-family="Courier,monospace" font-weight="bold" font-size="10.00" fill="#000000">D</text>
</g>
<!-- STATE_B&#45;&gt;STATE_D -->
<g id="edge5" class="edge">
<title>STATE_B&#45;&gt;STATE_D</title>
<path fill="none" stroke="#000000" d="M667.6134,-207.8954C673.4367,-207.1771 679.5165,-206.4979 685.2211,-205.9891 816.4762,-194.2808 972.7707,-188.9176 1043.9557,-186.9435"/>
<polygon fill="#000000" stroke="#000000" points="1044.3289,-190.4348 1054.2307,-186.6659 1044.1398,-183.4373 1044.3289,-190.4348"/>
<text text-anchor="middle" x="756.7211" y="-208.9891" font-family="Courier,monospace" font-weight="bold" font-size="10.00" fill="#000000">0.8294600052784407</text>
</g>
<!-- STATE_B&#45;&gt;SYMBOL_y -->
<g id="edge17" class="edge">
<title>STATE_B&#45;&gt;SYMBOL_y</title>
<path fill="none" stroke="#000000" stroke-dasharray="5,2" d="M662.7326,-199.9682C669.8278,-196.9063 677.7012,-193.9349 685.2211,-191.9891 824.4945,-155.9498 863.5479,-166.332 1007.2211,-158.9891 1305.9028,-143.7239 1380.8844,-173.0383 1679.2211,-193.9891 1754.3363,-199.264 1785.9168,-163.7007 1848.2211,-205.9891 1871.4257,-221.7389 1883.4863,-252.3417 1889.4951,-274.98"/>
<polygon fill="#000000" stroke="#000000" points="1886.1016,-275.8381 1891.8484,-284.739 1892.9066,-274.1971 1886.1016,-275.8381"/>
<text text-anchor="middle" x="1247.7211" y="-162.9891" font-family="Courier,monospace" font-weight="bold" font-size="10.00" fill="#000000">0.30921724340122786</text>
</g>
<!-- STATE_B&#45;&gt;SYMBOL_z -->
<g id="edge18" class="edge">
<title>STATE_B&#45;&gt;SYMBOL_z</title>
<path fill="none" stroke="#000000" stroke-dasharray="5,2" d="M643.321,-194.0178C649.5879,-174.4496 662.4955,-143.834 685.2211,-127.9891 758.5569,-76.8572 993.3197,-65.9891 1082.7211,-65.9891 1082.7211,-65.9891 1082.7211,-65.9891 1596.2211,-65.9891 1691.6586,-65.9891 1801.2554,-94.4043 1857.4403,-111.1094"/>
<polygon fill="#000000" stroke="#000000" points="1856.7094,-114.5446 1867.2942,-114.0828 1858.7317,-107.8431 1856.7094,-114.5446"/>
<text text-anchor="middle" x="1247.7211" y="-68.9891" font-family="Courier,monospace" font-weight="bold" font-size="10.00" fill="#000000">0.5663238480975317</text>
</g>
<!-- STATE_B&#45;&gt;SYMBOL_x -->
<g id="edge19" class="edge">
<title>STATE_B&#45;&gt;SYMBOL_x</title>
<path fill="none" stroke="#000000" stroke-dasharray="5,2" d="M644.7784,-229.3685C652.0966,-247.4897 665.7125,-275.7448 685.2211,-293.9891 799.269,-400.6459 1183.8653,-526.5848 1337.2211,-555.9891 1494.5338,-586.1519 1537.0576,-570.8133 1697.2211,-572.9891 1764.326,-573.9006 1782.6001,-587.0525 1848.2211,-572.9891 1854.1283,-571.7231 1860.1906,-569.6511 1865.91,-567.2898"/>
<polygon fill="#000000" stroke="#000000" points="1867.4473,-570.4361 1875.1239,-563.134 1864.5692,-564.0551 1867.4473,-570.4361"/>
<text text-anchor="middle" x="1247.7211" y="-553.9891" font-family="Courier,monospace" font-weight="bold" font-size="10.00" fill="#000000">0.12445890850124049</text>
</g>
<!-- STATE_C&#45;&gt;STATE_F -->
<g id="edge6" class="edge">
<title>STATE_C&#45;&gt;STATE_F</title>
<path fill="none" stroke="#000000" d="M944.7568,-269.4427C1006.7341,-277.4084 1154.0801,-296.6432 1158.2211,-299.9891 1176.2672,-314.5702 1160.3895,-332.0294 1176.2211,-348.9891 1185.2279,-358.6376 1197.6822,-365.5697 1209.6755,-370.4582"/>
<polygon fill="#000000" stroke="#000000" points="1208.5271,-373.7651 1219.1203,-373.9534 1210.9566,-367.2002 1208.5271,-373.7651"/>
<text text-anchor="middle" x="1082.7211" y="-302.9891" font-family="Courier,monospace" font-weight="bold" font-size="10.00" fill="#000000">1.0</text>
</g>
<!-- STATE_C&#45;&gt;SYMBOL_y -->
<g id="edge21" class="edge">
<title>STATE_C&#45;&gt;SYMBOL_y</title>
<path fill="none" stroke="#000000" stroke-dasharray="5,2" d="M946.4834,-264.6264C1047.332,-260.1708 1394.205,-247.5641 1679.2211,-269.9891 1741.5123,-274.8901 1813.0725,-287.1699 1856.1137,-295.2888"/>
<polygon fill="#000000" stroke="#000000" points="1855.6786,-298.7688 1866.1575,-297.2057 1856.991,-291.8929 1855.6786,-298.7688"/>
<text text-anchor="middle" x="1416.2211" y="-262.9891" font-family="Courier,monospace" font-weight="bold" font-size="10.00" fill="#000000">0.0001345813141869859</text>
</g>
<!-- STATE_C&#45;&gt;SYMBOL_z -->
<g id="edge20" class="edge">
<title>STATE_C&#45;&gt;SYMBOL_z</title>
<path fill="none" stroke="#000000" stroke-dasharray="5,2" d="M946.7117,-261.8539C964.2159,-259.419 986.9793,-256.3616 1007.2211,-253.9891 1223.7185,-228.6131 1280.348,-241.6581 1495.2211,-204.9891 1586.286,-189.4484 1606.7119,-174.4934 1697.2211,-155.9891 1753.0963,-144.5655 1818.4565,-134.246 1858.2684,-128.2973"/>
<polygon fill="#000000" stroke="#000000" points="1858.9256,-131.7382 1868.3043,-126.8095 1857.8991,-124.8138 1858.9256,-131.7382"/>
<text text-anchor="middle" x="1416.2211" y="-228.9891" font-family="Courier,monospace" font-weight="bold" font-size="10.00" fill="#000000">0.8892484188396925</text>
</g>
<!-- STATE_C&#45;&gt;SYMBOL_x -->
<g id="edge22" class="edge">
<title>STATE_C&#45;&gt;SYMBOL_x</title>
<path fill="none" stroke="#000000" stroke-dasharray="5,2" d="M940.9604,-274.095C955.4684,-279.6987 974.1796,-287.9435 989.2211,-297.9891 998.3719,-304.1005 998.3293,-308.5066 1007.2211,-314.9891 1107.103,-387.8071 1392.0268,-521.6826 1513.2211,-545.9891 1637.2154,-570.857 1788.4268,-561.9902 1857.4137,-555.8598"/>
<polygon fill="#000000" stroke="#000000" points="1858.1268,-559.309 1867.763,-554.905 1857.4837,-552.3386 1858.1268,-559.309"/>
<text text-anchor="middle" x="1416.2211" y="-543.9891" font-family="Courier,monospace" font-weight="bold" font-size="10.00" fill="#000000">0.11061699984612051</text>
</g>
<!-- STATE_D&#45;&gt;STATE_A -->
<g id="edge7" class="edge">
<title>STATE_D&#45;&gt;STATE_A</title>
<path fill="none" stroke="#000000" d="M1056.7826,-191.2989C997.2348,-203.5568 855.1436,-233.2211 846.2211,-238.9891 835.0237,-246.2276 839.0055,-255.1484 828.2211,-262.9891 738.3608,-328.3209 698.9288,-314.7926 591.7342,-343.9891 514.6751,-364.9775 422.7076,-381.9209 371.7034,-390.6208"/>
<polygon fill="#000000" stroke="#000000" points="371.0405,-387.1831 361.7633,-392.3002 372.2067,-394.0853 371.0405,-387.1831"/>
<text text-anchor="middle" x="638.4777" y="-340.9891" font-family="Courier,monospace" font-weight="bold" font-size="10.00" fill="#000000">1.0</text>
</g>
<!-- STATE_D&#45;&gt;SYMBOL_y -->
<g id="edge23" class="edge">
<title>STATE_D&#45;&gt;SYMBOL_y</title>
<path fill="none" stroke="#000000" stroke-dasharray="5,2" d="M1111.532,-185.4034C1178.8196,-184.2854 1351.4998,-182.8616 1495.2211,-193.9891 1574.1512,-200.1001 1779.7583,-202.2379 1848.2211,-241.9891 1862.148,-250.0754 1873.3334,-264.0972 1881.2665,-276.6597"/>
<polygon fill="#000000" stroke="#000000" points="1878.358,-278.6175 1886.4609,-285.4435 1884.3833,-275.0544 1878.358,-278.6175"/>
<text text-anchor="middle" x="1416.2211" y="-196.9891" font-family="Courier,monospace" font-weight="bold" font-size="10.00" fill="#000000">0.0010864098067521586</text>
</g>
<!-- STATE_D&#45;&gt;SYMBOL_z -->
<g id="edge24" class="edge">
<title>STATE_D&#45;&gt;SYMBOL_z</title>
<path fill="none" stroke="#000000" stroke-dasharray="5,2" d="M1111.5685,-180.8736C1180.6432,-168.8944 1361.1065,-139.191 1513.2211,-127.9891 1638.0834,-118.794 1786.5222,-120.4462 1855.7634,-121.9442"/>
<polygon fill="#000000" stroke="#000000" points="1856.1032,-125.4527 1866.1804,-122.1816 1856.2628,-118.4546 1856.1032,-125.4527"/>
<text text-anchor="middle" x="1416.2211" y="-149.9891" font-family="Courier,monospace" font-weight="bold" font-size="10.00" fill="#000000">0.019710215585876427</text>
</g>
<!-- STATE_D&#45;&gt;SYMBOL_x -->
<g id="edge25" class="edge">
<title>STATE_D&#45;&gt;SYMBOL_x</title>
<path fill="none" stroke="#000000" stroke-dasharray="5,2" d="M1103.6211,-196.2224C1180.5471,-233.4347 1455.994,-362.6912 1697.2211,-425.9891 1763.2412,-443.3127 1794.0725,-412.4355 1848.2211,-453.9891 1870.555,-471.1281 1882.739,-501.6233 1889.0146,-524.0578"/>
<polygon fill="#000000" stroke="#000000" points="1885.6959,-525.2068 1891.5685,-534.0251 1892.4768,-523.4693 1885.6959,-525.2068"/>
<text text-anchor="middle" x="1416.2211" y="-363.9891" font-family="Courier,monospace" font-weight="bold" font-size="10.00" fill="#000000">0.9792033746073714</text>
</g>
<!-- STATE_E&#45;&gt;STATE_A -->
<g id="edge8" class="edge">
<title>STATE_E&#45;&gt;STATE_A</title>
<path fill="none" stroke="#000000" d="M1567.5426,-518.9467C1449.3142,-518.6276 988.1425,-515.9608 609.7342,-493.9891 531.3215,-489.4361 506.5793,-507.3637 433.7342,-477.9891 401.8544,-465.1336 372.0201,-438.7313 353.1642,-419.5551"/>
<polygon fill="#000000" stroke="#000000" points="355.4636,-416.8958 346.0189,-412.0948 350.4082,-421.7377 355.4636,-416.8958"/>
<text text-anchor="middle" x="917.7211" y="-511.9891" font-family="Courier,monospace" font-weight="bold" font-size="10.00" fill="#000000">1.0</text>
</g>
<!-- STATE_E&#45;&gt;SYMBOL_y -->
<g id="edge26" class="edge">
<title>STATE_E&#45;&gt;SYMBOL_y</title>
<path fill="none" stroke="#000000" stroke-dasharray="5,2" d="M1625.3124,-516.4967C1677.0304,-510.5501 1785.4266,-491.021 1848.2211,-428.9891 1875.0083,-402.5272 1886.5982,-359.3553 1891.5063,-331.0576"/>
<polygon fill="#000000" stroke="#000000" points="1894.991,-331.4271 1893.0779,-321.0064 1888.075,-330.3456 1894.991,-331.4271"/>
<text text-anchor="middle" x="1772.7211" y="-504.9891" font-family="Courier,monospace" font-weight="bold" font-size="10.00" fill="#000000">0.003313769332329855</text>
</g>
<!-- STATE_E&#45;&gt;SYMBOL_z -->
<g id="edge27" class="edge">
<title>STATE_E&#45;&gt;SYMBOL_z</title>
<path fill="none" stroke="#000000" stroke-dasharray="5,2" d="M1625.0826,-514.7843C1643.1101,-510.6753 1665.4379,-502.6319 1679.2211,-486.9891 1701.3126,-461.917 1683.6165,-444.5105 1697.2211,-413.9891 1722.5895,-357.0758 1833.1233,-206.0442 1876.9592,-147.0645"/>
<polygon fill="#000000" stroke="#000000" points="1879.9969,-148.8453 1883.1623,-138.7343 1874.3825,-144.6645 1879.9969,-148.8453"/>
<text text-anchor="middle" x="1772.7211" y="-416.9891" font-family="Courier,monospace" font-weight="bold" font-size="10.00" fill="#000000">0.9849138170757534</text>
</g>
<!-- STATE_E&#45;&gt;SYMBOL_x -->
<g id="edge28" class="edge">
<title>STATE_E&#45;&gt;SYMBOL_x</title>
<path fill="none" stroke="#000000" stroke-dasharray="5,2" d="M1624.3812,-519.7923C1671.1587,-521.4707 1767.703,-526.3981 1848.2211,-539.9891 1851.0868,-540.4728 1854.0341,-541.0457 1856.9883,-541.6748"/>
<polygon fill="#000000" stroke="#000000" points="1856.4183,-545.1354 1866.9502,-543.9821 1857.9978,-538.3159 1856.4183,-545.1354"/>
<text text-anchor="middle" x="1772.7211" y="-542.9891" font-family="Courier,monospace" font-weight="bold" font-size="10.00" fill="#000000">0.011772413591916697</text>
</g>
<!-- STATE_F&#45;&gt;STATE_B -->
<g id="edge9" class="edge">
<title>STATE_F&#45;&gt;STATE_B</title>
<path fill="none" stroke="#000000" d="M1218.8931,-375.4507C1107.3473,-353.9553 709.0634,-276.5722 685.2211,-262.9891 673.6439,-256.3934 663.3226,-245.9368 655.3429,-236.2042"/>
<polygon fill="#000000" stroke="#000000" points="658.1077,-234.0581 649.2144,-228.2997 652.5757,-238.3472 658.1077,-234.0581"/>
<text text-anchor="middle" x="917.7211" y="-331.9891" font-family="Courier,monospace" font-weight="bold" font-size="10.00" fill="#000000">0.2223785458913156</text>
</g>
<!-- STATE_F&#45;&gt;STATE_E -->
<g id="edge10" class="edge">
<title>STATE_F&#45;&gt;STATE_E</title>
<path fill="none" stroke="#000000" d="M1269.1562,-390.6638C1287.1222,-398.575 1313.5593,-409.7588 1337.2211,-417.9891 1406.1833,-441.976 1435.0577,-421.6185 1495.2211,-462.9891 1506.2076,-470.5438 1502.5876,-478.945 1513.2211,-486.9891 1526.3304,-496.906 1542.8866,-504.1083 1557.7574,-509.139"/>
<polygon fill="#000000" stroke="#000000" points="1557.1304,-512.6112 1567.7201,-512.2815 1559.2362,-505.9354 1557.1304,-512.6112"/>
<text text-anchor="middle" x="1416.2211" y="-465.9891" font-family="Courier,monospace" font-weight="bold" font-size="10.00" fill="#000000">0.7776214541086844</text>
</g>
<!-- STATE_F&#45;&gt;SYMBOL_y -->
<g id="edge29" class="edge">
<title>STATE_F&#45;&gt;SYMBOL_y</title>
<path fill="none" stroke="#000000" stroke-dasharray="5,2" d="M1276.7892,-377.486C1381.6252,-364.8521 1740.2672,-321.6318 1857.5312,-307.5002"/>
<polygon fill="#000000" stroke="#000000" points="1858.2834,-310.9349 1867.7928,-306.2635 1857.4459,-303.9852 1858.2834,-310.9349"/>
<text text-anchor="middle" x="1596.2211" y="-350.9891" font-family="Courier,monospace" font-weight="bold" font-size="10.00" fill="#000000">0.9881581490251907</text>
</g>
<!-- STATE_F&#45;&gt;SYMBOL_z -->
<g id="edge30" class="edge">
<title>STATE_F&#45;&gt;SYMBOL_z</title>
<path fill="none" stroke="#000000" stroke-dasharray="5,2" d="M1264.8966,-365.2553C1282.0042,-350.4136 1309.6299,-328.6123 1337.2211,-315.9891 1402.8051,-285.9837 1426.0376,-299.3662 1495.2211,-278.9891 1655.0176,-231.9229 1698.7114,-226.4532 1848.2211,-152.9891 1855.123,-149.5977 1862.261,-145.4079 1868.8182,-141.2463"/>
<polygon fill="#000000" stroke="#000000" points="1870.8819,-144.0784 1877.3231,-135.6664 1867.042,-138.2256 1870.8819,-144.0784"/>
<text text-anchor="middle" x="1596.2211" y="-274.9891" font-family="Courier,monospace" font-weight="bold" font-size="10.00" fill="#000000">0.011655131550217003</text>
</g>
<!-- STATE_F&#45;&gt;SYMBOL_x -->
<g id="edge31" class="edge">
<title>STATE_F&#45;&gt;SYMBOL_x</title>
<path fill="none" stroke="#000000" stroke-dasharray="5,2" d="M1276.5744,-378.8562C1325.0811,-376.6095 1424.584,-377.851 1495.2211,-417.9891 1506.2051,-424.2305 1502.2,-433.8133 1513.2211,-439.9891 1644.3263,-513.4554 1719.7474,-408.0122 1848.2211,-485.9891 1863.24,-495.1047 1874.7441,-511.0766 1882.5814,-525.0248"/>
<polygon fill="#000000" stroke="#000000" points="1879.675,-527.0187 1887.4195,-534.2487 1885.874,-523.7672 1879.675,-527.0187"/>
<text text-anchor="middle" x="1596.2211" y="-469.9891" font-family="Courier,monospace" font-weight="bold" font-size="10.00" fill="#000000">0.00018671942459237183</text>
</g>
<!-- STATE_SOURCE -->
<g id="node7" class="node">
<title>STATE_SOURCE</title>
<polygon fill="none" stroke="#000000" points="42.4515,-70.0384 44.8246,-70.1369 47.1732,-70.2844 49.4877,-70.4804 51.7587,-70.7244 53.9771,-71.0157 56.134,-71.3535 58.2213,-71.7369 60.2308,-72.1649 62.1552,-72.6363 63.9875,-73.1497 65.7213,-73.7038 67.3509,-74.2971 68.8711,-74.9278 70.2774,-75.5944 71.5659,-76.295 72.7335,-77.0276 73.7776,-77.7902 74.6964,-78.5809 75.4887,-79.3972 76.1541,-80.2372 76.6926,-81.0984 77.105,-81.9785 77.3927,-82.875 77.5574,-83.7856 77.6018,-84.7077 77.5286,-85.6388 77.3412,-86.5763 77.0434,-87.5177 76.6393,-88.4604 76.1334,-89.4018 75.5302,-90.3393 74.8348,-91.2704 74.0521,-92.1925 73.1874,-93.1031 72.246,-93.9996 71.2329,-94.8797 70.1536,-95.7409 69.0132,-96.5809 67.8168,-97.3972 66.5693,-98.1879 65.2754,-98.9505 63.9398,-99.6831 62.5668,-100.3837 61.1606,-101.0503 59.7248,-101.681 58.2633,-102.2743 56.7792,-102.8284 55.2756,-103.3418 53.7553,-103.8132 52.2208,-104.2412 50.6744,-104.6246 49.118,-104.9624 47.5535,-105.2537 45.9824,-105.4977 44.4062,-105.6937 42.8263,-105.8412 41.2436,-105.9397 39.6595,-105.9891 38.0748,-105.9891 36.4906,-105.9397 34.908,-105.8412 33.328,-105.6937 31.7518,-105.4977 30.1808,-105.2537 28.6162,-104.9624 27.0598,-104.6246 25.5134,-104.2412 23.9789,-103.8132 22.4586,-103.3418 20.955,-102.8284 19.4709,-102.2743 18.0094,-101.681 16.5737,-101.0503 15.1674,-100.3837 13.7944,-99.6831 12.4588,-98.9505 11.1649,-98.1879 9.9174,-97.3972 8.721,-96.5809 7.5806,-95.7409 6.5013,-94.8797 5.4883,-93.9996 4.5468,-93.1031 3.6821,-92.1925 2.8994,-91.2704 2.204,-90.3393 1.6009,-89.4018 1.0949,-88.4604 .6908,-87.5177 .393,-86.5763 .2056,-85.6388 .1324,-84.7077 .1768,-83.7856 .3416,-82.875 .6292,-81.9785 1.0416,-81.0984 1.5801,-80.2372 2.2455,-79.3972 3.0379,-78.5809 3.9567,-77.7902 5.0008,-77.0276 6.1683,-76.295 7.4568,-75.5944 8.8631,-74.9278 10.3833,-74.2971 12.0129,-73.7038 13.7467,-73.1497 15.579,-72.6363 17.5034,-72.1649 19.513,-71.7369 21.6002,-71.3535 23.7572,-71.0157 25.9755,-70.7244 28.2465,-70.4804 30.561,-70.2844 32.9096,-70.1369 35.2827,-70.0384 37.6707,-69.9891 40.0635,-69.9891 42.4515,-70.0384"/>
<text text-anchor="middle" x="38.8671" y="-85.4891" font-family="Courier,monospace" font-weight="bold" font-size="10.00" fill="#000000">SOURCE</text>
</g>
<!-- STATE_SOURCE&#45;&gt;STATE_A -->
<g id="edge11" class="edge">
<title>STATE_SOURCE&#45;&gt;STATE_A</title>
<path fill="none" stroke="#000000" d="M54.2529,-104.1672C102.7393,-155.1504 252.5345,-312.6594 309.9841,-373.0673"/>
<polygon fill="#000000" stroke="#000000" points="307.7185,-375.764 317.1462,-380.5983 312.7909,-370.94 307.7185,-375.764"/>
<text text-anchor="middle" x="163.7342" y="-290.9891" font-family="Courier,monospace" font-weight="bold" font-size="10.00" fill="#000000">0.9997909585793581</text>
</g>
<!-- STATE_SOURCE&#45;&gt;STATE_B -->
<g id="edge12" class="edge">
<title>STATE_SOURCE&#45;&gt;STATE_B</title>
<path fill="none" stroke="#000000" d="M71.5306,-94.7439C174.0426,-115.9435 489.1249,-181.1028 599.6633,-203.9622"/>
<polygon fill="#000000" stroke="#000000" points="599.2064,-207.4417 609.708,-206.0395 600.624,-200.5867 599.2064,-207.4417"/>
<text text-anchor="middle" x="332.7342" y="-166.9891" font-family="Courier,monospace" font-weight="bold" font-size="10.00" fill="#000000">0.00010044359749630424</text>
</g>
<!-- STATE_SOURCE&#45;&gt;STATE_D -->
<g id="edge13" class="edge">
<title>STATE_SOURCE&#45;&gt;STATE_D</title>
<path fill="none" stroke="#000000" d="M76.6019,-89.1075C115.5105,-90.4114 177.9199,-92.9228 231.7342,-96.9891 545.5444,-120.701 922.766,-166.1192 1043.5293,-181.0778"/>
<polygon fill="#000000" stroke="#000000" points="1043.3989,-184.5884 1053.754,-182.3475 1044.2616,-177.6417 1043.3989,-184.5884"/>
<text text-anchor="middle" x="512.7342" y="-132.9891" font-family="Courier,monospace" font-weight="bold" font-size="10.00" fill="#000000">0.0001085978231455291</text>
</g>
</g>
</svg>
