<?xml version="1.0" encoding="UTF-8" standalone="no"?>
<!DOCTYPE svg PUBLIC "-//W3C//DTD SVG 1.1//EN"
 "http://www.w3.org/Graphics/SVG/1.1/DTD/svg11.dtd">
<!-- Generated by graphviz version 2.40.1 (0)
 -->
<!-- Title: G Pages: 1 -->
<svg width="130pt" height="148pt"
 viewBox="0.00 0.00 129.80 147.60" xmlns="http://www.w3.org/2000/svg" xmlns:xlink="http://www.w3.org/1999/xlink">
<g id="graph0" class="graph" transform="scale(1 1) rotate(0) translate(4 143.6)">
<title>G</title>
<polygon fill="#ffffff" stroke="transparent" points="-4,4 -4,-143.6 125.8,-143.6 125.8,4 -4,4"/>
<!-- N0 -->
<g id="node1" class="node">
<title>N0</title>
<ellipse fill="#000000" stroke="#000000" cx="1.8" cy="-69.8" rx="1.8" ry="1.8"/>
</g>
<!-- N2 -->
<g id="node3" class="node">
<title>N2</title>
<ellipse fill="#000000" stroke="#000000" cx="64.4" cy="-137.8" rx="1.8" ry="1.8"/>
</g>
<!-- N0&#45;&gt;N2 -->
<g id="edge1" class="edge">
<title>N0&#45;&gt;N2</title>
<path fill="none" stroke="#000000" d="M2.4322,-71.7309C4.4471,-77.6639 11.2022,-95.9423 21.6,-107.8 30.6861,-118.1618 44.0552,-126.7879 53.4275,-132.0908"/>
<polygon fill="#000000" stroke="#000000" points="52.0623,-135.3281 62.5382,-136.911 55.3359,-129.1407 52.0623,-135.3281"/>
<text text-anchor="middle" x="33.1" y="-128.8" font-family="Courier,monospace" font-weight="bold" font-size="10.00" fill="#000000">na¶</text>
</g>
<!-- N3 -->
<g id="node4" class="node">
<title>N3</title>
<ellipse fill="#000000" stroke="#000000" cx="64.4" cy="-103.8" rx="1.8" ry="1.8"/>
</g>
<!-- N0&#45;&gt;N3 -->
<g id="edge2" class="edge">
<title>N0&#45;&gt;N3</title>
<path fill="none" stroke="#000000" d="M3.6307,-70.9688C7.0945,-73.1668 14.8639,-78.0336 21.6,-81.8 32.3059,-87.7861 44.8088,-94.1418 53.5265,-98.4744"/>
<polygon fill="#000000" stroke="#000000" points="52.2265,-101.7353 62.7454,-103.0016 55.3121,-95.452 52.2265,-101.7353"/>
<text text-anchor="middle" x="33.1" y="-95.8" font-family="Courier,monospace" font-weight="bold" font-size="10.00" fill="#000000">a</text>
</g>
<!-- N5 -->
<g id="node6" class="node">
<title>N5</title>
<ellipse fill="#000000" stroke="#000000" cx="64.4" cy="-69.8" rx="1.8" ry="1.8"/>
</g>
<!-- N0&#45;&gt;N5 -->
<g id="edge5" class="edge">
<title>N0&#45;&gt;N5</title>
<path fill="none" stroke="#000000" d="M3.606,-69.8C10.6223,-69.8 36.4551,-69.8 52.1,-69.8"/>
<polygon fill="#000000" stroke="#000000" points="52.2088,-73.3001 62.2087,-69.8 52.2087,-66.3001 52.2088,-73.3001"/>
<text text-anchor="middle" x="33.1" y="-72.8" font-family="Courier,monospace" font-weight="bold" font-size="10.00" fill="#000000">ba¶</text>
</g>
<!-- N6 -->
<g id="node7" class="node">
<title>N6</title>
<ellipse fill="#000000" stroke="#000000" cx="64.4" cy="-35.8" rx="1.8" ry="1.8"/>
</g>
<!-- N0&#45;&gt;N6 -->
<g id="edge6" class="edge">
<title>N0&#45;&gt;N6</title>
<path fill="none" stroke="#000000" d="M3.1615,-68.5899C6.2651,-65.8729 14.1716,-59.183 21.6,-54.8 31.8796,-48.7347 44.4451,-43.3773 53.2939,-39.9106"/>
<polygon fill="#000000" stroke="#000000" points="54.5591,-43.1743 62.6995,-36.3931 52.107,-36.6178 54.5591,-43.1743"/>
<text text-anchor="middle" x="33.1" y="-57.8" font-family="Courier,monospace" font-weight="bold" font-size="10.00" fill="#000000">kl¶</text>
</g>
<!-- N7 -->
<g id="node8" class="node">
<title>N7</title>
<ellipse fill="#000000" stroke="#000000" cx="64.4" cy="-1.8" rx="1.8" ry="1.8"/>
</g>
<!-- N0&#45;&gt;N7 -->
<g id="edge7" class="edge">
<title>N0&#45;&gt;N7</title>
<path fill="none" stroke="#000000" d="M2.2662,-68.0426C3.9501,-61.9682 10.2272,-41.535 21.6,-28.8 30.4876,-18.8478 43.8938,-11.2012 53.329,-6.6273"/>
<polygon fill="#000000" stroke="#000000" points="54.8067,-9.8007 62.5176,-2.5349 51.9586,-3.4063 54.8067,-9.8007"/>
<text text-anchor="middle" x="33.1" y="-31.8" font-family="Courier,monospace" font-weight="bold" font-size="10.00" fill="#000000">e¶</text>
</g>
<!-- N1 -->
<g id="node2" class="node">
<title>N1</title>
<ellipse fill="#000000" stroke="#000000" cx="120" cy="-120.8" rx="1.8" ry="1.8"/>
</g>
<!-- N3&#45;&gt;N1 -->
<g id="edge3" class="edge">
<title>N3&#45;&gt;N1</title>
<path fill="none" stroke="#000000" d="M66.2499,-104.3656C72.713,-106.3417 94.6393,-113.0458 108.41,-117.2563"/>
<polygon fill="#000000" stroke="#000000" points="107.4997,-120.6379 118.0861,-120.2148 109.5465,-113.9438 107.4997,-120.6379"/>
<text text-anchor="middle" x="92.2" y="-116.8" font-family="Courier,monospace" font-weight="bold" font-size="10.00" fill="#000000">¶</text>
</g>
<!-- N4 -->
<g id="node5" class="node">
<title>N4</title>
<ellipse fill="#000000" stroke="#000000" cx="120" cy="-86.8" rx="1.8" ry="1.8"/>
</g>
<!-- N3&#45;&gt;N4 -->
<g id="edge4" class="edge">
<title>N3&#45;&gt;N4</title>
<path fill="none" stroke="#000000" d="M66.2048,-102.8255C69.6253,-101.0139 77.3256,-97.1028 84.2,-94.8 91.9522,-92.2031 100.9321,-90.199 107.9588,-88.8461"/>
<polygon fill="#000000" stroke="#000000" points="108.7694,-92.2578 118.0209,-87.0945 107.5688,-85.3615 108.7694,-92.2578"/>
<text text-anchor="middle" x="92.2" y="-97.8" font-family="Courier,monospace" font-weight="bold" font-size="10.00" fill="#000000">n¶</text>
</g>
</g>
</svg>
