<?xml version="1.0" encoding="UTF-8" standalone="no"?>
<!DOCTYPE svg PUBLIC "-//W3C//DTD SVG 1.1//EN"
 "http://www.w3.org/Graphics/SVG/1.1/DTD/svg11.dtd">
<!-- Generated by graphviz version 2.40.1 (0)
 -->
<!-- Title: G Pages: 1 -->
<svg width="251pt" height="154pt"
 viewBox="0.00 0.00 251.00 154.00" xmlns="http://www.w3.org/2000/svg" xmlns:xlink="http://www.w3.org/1999/xlink">
<g id="graph0" class="graph" transform="scale(1 1) rotate(0) translate(4 150)">
<title>G</title>
<polygon fill="#ffffff" stroke="transparent" points="-4,4 -4,-150 247,-150 247,4 -4,4"/>
<!-- N2 -->
<g id="node1" class="node">
<title>N2</title>
<ellipse fill="none" stroke="#000000" cx="228.5" cy="-131.5" rx="14.5" ry="14.5"/>
<text text-anchor="middle" x="228.5" y="-129" font-family="Courier,monospace" font-weight="bold" font-size="10.00" fill="#000000">N2</text>
</g>
<!-- N3 -->
<g id="node2" class="node">
<title>N3</title>
<ellipse fill="none" stroke="#000000" cx="117.5" cy="-108.5" rx="14.5" ry="14.5"/>
<text text-anchor="middle" x="117.5" y="-106" font-family="Courier,monospace" font-weight="bold" font-size="10.00" fill="#000000">N3</text>
</g>
<!-- N3&#45;&#45;N2 -->
<g id="edge5" class="edge">
<title>N3&#45;&#45;N2</title>
<path fill="none" stroke="#000000" d="M132.0113,-111.5068C153.2844,-115.9148 192.71,-124.0841 213.9851,-128.4924"/>
<text text-anchor="middle" x="173" y="-127.5" font-family="Courier,monospace" font-weight="bold" font-size="10.00" fill="#000000">3.375</text>
</g>
<!-- v0 -->
<g id="node4" class="node">
<title>v0</title>
<ellipse fill="none" stroke="#000000" cx="228.5" cy="-84.5" rx="14.5" ry="14.5"/>
<text text-anchor="middle" x="228.5" y="-82" font-family="Courier,monospace" font-weight="bold" font-size="10.00" fill="#000000">v0</text>
</g>
<!-- N3&#45;&#45;v0 -->
<g id="edge4" class="edge">
<title>N3&#45;&#45;v0</title>
<path fill="none" stroke="#000000" d="M131.6738,-104.3053C137.346,-102.6973 143.9567,-100.9117 150,-99.5 172.1585,-94.3239 198.1429,-89.6237 213.9573,-86.9139"/>
<text text-anchor="middle" x="173" y="-102.5" font-family="Courier,monospace" font-weight="bold" font-size="10.00" fill="#000000">11.625</text>
</g>
<!-- N4 -->
<g id="node3" class="node">
<title>N4</title>
<ellipse fill="none" stroke="#000000" cx="14.5" cy="-61.5" rx="14.5" ry="14.5"/>
<text text-anchor="middle" x="14.5" y="-59" font-family="Courier,monospace" font-weight="bold" font-size="10.00" fill="#000000">N4</text>
</g>
<!-- N4&#45;&#45;N3 -->
<g id="edge1" class="edge">
<title>N4&#45;&#45;N3</title>
<path fill="none" stroke="#000000" d="M27.7738,-67.6493C33.6596,-70.3701 40.6714,-73.6033 47,-76.5 66.9218,-85.6185 90.0559,-96.0983 104.2351,-102.5091"/>
<text text-anchor="middle" x="66" y="-95.5" font-family="Courier,monospace" font-weight="bold" font-size="10.00" fill="#000000">0.375</text>
</g>
<!-- v1 -->
<g id="node5" class="node">
<title>v1</title>
<ellipse fill="none" stroke="#000000" cx="117.5" cy="-61.5" rx="14.5" ry="14.5"/>
<text text-anchor="middle" x="117.5" y="-59" font-family="Courier,monospace" font-weight="bold" font-size="10.00" fill="#000000">v1</text>
</g>
<!-- N4&#45;&#45;v1 -->
<g id="edge2" class="edge">
<title>N4&#45;&#45;v1</title>
<path fill="none" stroke="#000000" d="M29.2574,-61.5C48.8377,-61.5 83.2035,-61.5 102.77,-61.5"/>
<text text-anchor="middle" x="66" y="-64.5" font-family="Courier,monospace" font-weight="bold" font-size="10.00" fill="#000000">2.0</text>
</g>
<!-- v2 -->
<g id="node6" class="node">
<title>v2</title>
<ellipse fill="none" stroke="#000000" cx="117.5" cy="-14.5" rx="14.5" ry="14.5"/>
<text text-anchor="middle" x="117.5" y="-12" font-family="Courier,monospace" font-weight="bold" font-size="10.00" fill="#000000">v2</text>
</g>
<!-- N4&#45;&#45;v2 -->
<g id="edge3" class="edge">
<title>N4&#45;&#45;v2</title>
<path fill="none" stroke="#000000" d="M27.7738,-55.3507C33.6596,-52.6299 40.6714,-49.3967 47,-46.5 66.9218,-37.3815 90.0559,-26.9017 104.2351,-20.4909"/>
<text text-anchor="middle" x="66" y="-49.5" font-family="Courier,monospace" font-weight="bold" font-size="10.00" fill="#000000">10.0</text>
</g>
</g>
</svg>
