<svg class="bob" font-family="arial" font-size="14" height="304" width="344" xmlns="http://www.w3.org/2000/svg">
<defs>
<marker id="triangle" markerHeight="8" markerWidth="8" orient="auto" refX="4" refY="2" viewBox="0 0 8 4">
<polygon class="fg_fill" points="0,0 0,4 8,2 0,0"/>
</marker>
<marker id="clear_triangle" markerHeight="10" markerWidth="10" orient="auto" refX="1" refY="7" viewBox="0 0 20 14">
<polygon class="bg_fill" points="2,2 2,12 18,7 2,2"/>
</marker>
<marker id="circle" markerHeight="5" markerWidth="5" orient="auto" refX="10" refY="10" viewBox="0 0 20 20">
<circle class="fg_fill" cx="10" cy="10" r="8"/>
</marker>
<marker id="square" markerHeight="5" markerWidth="5" orient="auto" refX="10" refY="10" viewBox="0 0 20 20">
<rect class="fg_fill" height="20" width="20" x="0" y="0"/>
</marker>
<marker id="open_circle" markerHeight="10" markerWidth="10" orient="auto" refX="10" refY="10" viewBox="0 0 20 20">
<circle class="bg_fill" cx="10" cy="10" r="4"/>
</marker>
<marker id="big_open_circle" markerHeight="20" markerWidth="20" orient="auto" refX="20" refY="20" viewBox="0 0 40 40">
<circle class="bg_fill" cx="20" cy="20" r="6"/>
</marker>
</defs>
<style type="text/css">

rect.backdrop {
    fill: white;
}
text{
    fill: black;
}

circle {
    fill: none;
    stroke: black;
    stroke-width: 2;
}

line {
    stroke: black;
    stroke-width: 2;
    stroke-opacity: 1;
    fill-opacity: 1;
    stroke-linecap: round;
    stroke-linejoin: miter;
}

path {
    fill: none;
    stroke: black;
    stroke-width: 2;
    stroke-opacity: 1;
    fill-opacity: 1;
    stroke-linecap: round;
    stroke-linejoin: miter;
}

line.dashed {
    stroke-dasharray: 5;
}

.fg_fill {
    fill: black;
}


.bg_fill {
    fill: white;
    stroke: black;
    stroke-width: 2;
}

tspan.head{
    fill: none;
    stroke: none;
}
    
</style>
<rect class="backdrop" height="304" width="344" x="0" y="0"/>
<g>
<line x1="8" x2="24" y1="40" y2="40"/>
</g>
<g>
<line x1="8" x2="24" y1="72" y2="72"/>
</g>
<g>
<line x1="8" x2="24" y1="152" y2="152"/>
</g>
<g>
<line x1="8" x2="24" y1="184" y2="184"/>
</g>
<g>
<line x1="8" x2="24" y1="264" y2="264"/>
</g>
<g>
<line x1="8" x2="24" y1="296" y2="296"/>
</g>
<g>
<line x1="32" x2="48" y1="40" y2="40"/>
</g>
<g>
<line x1="32" x2="48" y1="72" y2="72"/>
</g>
<g>
<line x1="32" x2="48" y1="184" y2="184"/>
</g>
<g>
<line x1="32" x2="48" y1="264" y2="264"/>
</g>
<g>
<line x1="32" x2="48" y1="296" y2="296"/>
</g>
<g>
<line x1="56" x2="72" y1="40" y2="40"/>
</g>
<g>
<line x1="56" x2="72" y1="72" y2="72"/>
</g>
<g>
<line x1="56" x2="72" y1="264" y2="264"/>
</g>
<g>
<line x1="56" x2="72" y1="296" y2="296"/>
</g>
<g>
<line x1="80" x2="96" y1="40" y2="40"/>
</g>
<g>
<line x1="80" x2="96" y1="72" y2="72"/>
</g>
<g>
<line x1="80" x2="96" y1="296" y2="296"/>
</g>
<g>
<line x1="104" x2="120" y1="40" y2="40"/>
</g>
<g>
<line x1="104" x2="120" y1="296" y2="296"/>
</g>
<g>
<line x1="112" x2="128" y1="152" y2="152"/>
</g>
<g>
<line x1="128" x2="144" y1="40" y2="40"/>
</g>
<g>
<line x1="128" x2="144" y1="296" y2="296"/>
</g>
<g>
<line x1="136" x2="152" y1="152" y2="152"/>
</g>
<g>
<line x1="136" x2="152" y1="184" y2="184"/>
</g>
<g>
<line x1="152" x2="168" y1="40" y2="40"/>
</g>
<g>
<line x1="152" x2="168" y1="296" y2="296"/>
</g>
<g>
<line x1="160" x2="176" y1="152" y2="152"/>
</g>
<g>
<line x1="176" x2="192" y1="40" y2="40"/>
</g>
<g>
<line x1="176" x2="192" y1="296" y2="296"/>
</g>
<g>
<line x1="184" x2="200" y1="152" y2="152"/>
</g>
<g>
<line x1="200" x2="216" y1="296" y2="296"/>
</g>
<g>
<line x1="208" x2="224" y1="152" y2="152"/>
</g>
<g>
<line x1="232" x2="248" y1="152" y2="152"/>
</g>
<g>
<text x="1" y="12">
Original:
</text>
</g>
<g>
<text x="1" y="44">
A
</text>
</g>
<g>
<text x="1" y="76">
B
</text>
</g>
<g>
<text x="1" y="124">
Chromosomes break:
</text>
</g>
<g>
<text x="1" y="156">
A
</text>
</g>
<g>
<text x="1" y="188">
B
</text>
</g>
<g>
<text x="1" y="236">
Chromosomes re-attach in different order:
</text>
</g>
<g>
<text x="1" y="268">
A
</text>
</g>
<g>
<text x="1" y="300">
B
</text>
</g>
<g>
<text x="25" y="44">
A
</text>
</g>
<g>
<text x="25" y="76">
B
</text>
</g>
<g>
<text x="25" y="156">
A-
</text>
</g>
<g>
<text x="25" y="188">
B
</text>
</g>
<g>
<text x="25" y="268">
A
</text>
</g>
<g>
<text x="25" y="300">
B
</text>
</g>
<g>
<text x="49" y="44">
A
</text>
</g>
<g>
<text x="49" y="76">
B
</text>
</g>
<g>
<text x="49" y="188">
B-
</text>
</g>
<g>
<text x="49" y="268">
B
</text>
</g>
<g>
<text x="49" y="300">
B
</text>
</g>
<g>
<text x="73" y="44">
A
</text>
</g>
<g>
<text x="73" y="76">
B
</text>
</g>
<g>
<text x="73" y="268">
B
</text>
</g>
<g>
<text x="73" y="300">
A
</text>
</g>
<g>
<text x="97" y="44">
A
</text>
</g>
<g>
<text x="97" y="76">
B
</text>
</g>
<g>
<text x="97" y="156">
-A
</text>
</g>
<g>
<text x="97" y="300">
A
</text>
</g>
<g>
<text x="121" y="44">
A
</text>
</g>
<g>
<text x="121" y="188">
-B
</text>
</g>
<g>
<text x="121" y="300">
A
</text>
</g>
<g>
<text x="129" y="156">
A
</text>
</g>
<g>
<text x="145" y="44">
A
</text>
</g>
<g>
<text x="145" y="300">
A
</text>
</g>
<g>
<text x="153" y="156">
A
</text>
</g>
<g>
<text x="153" y="188">
B
</text>
</g>
<g>
<text x="169" y="44">
A
</text>
</g>
<g>
<text x="169" y="300">
A
</text>
</g>
<g>
<text x="177" y="156">
A
</text>
</g>
<g>
<text x="193" y="44">
A
</text>
</g>
<g>
<text x="193" y="300">
A
</text>
</g>
<g>
<text x="201" y="156">
A
</text>
</g>
<g>
<text x="217" y="300">
A
</text>
</g>
<g>
<text x="225" y="156">
A
</text>
</g>
<g>
<text x="249" y="156">
A
</text>
</g>
</svg>
