<svg class="bob" font-family="arial" font-size="14" height="256" width="232" xmlns="http://www.w3.org/2000/svg">
<defs>
<marker id="triangle" markerHeight="8" markerWidth="8" orient="auto" refX="4" refY="2" viewBox="0 0 8 4">
<polygon class="fg_fill" points="0,0 0,4 8,2 0,0"/>
</marker>
<marker id="clear_triangle" markerHeight="10" markerWidth="10" orient="auto" refX="1" refY="7" viewBox="0 0 20 14">
<polygon class="bg_fill" points="2,2 2,12 18,7 2,2"/>
</marker>
<marker id="circle" markerHeight="5" markerWidth="5" orient="auto" refX="10" refY="10" viewBox="0 0 20 20">
<circle class="fg_fill" cx="10" cy="10" r="8"/>
</marker>
<marker id="square" markerHeight="5" markerWidth="5" orient="auto" refX="10" refY="10" viewBox="0 0 20 20">
<rect class="fg_fill" height="20" width="20" x="0" y="0"/>
</marker>
<marker id="open_circle" markerHeight="10" markerWidth="10" orient="auto" refX="10" refY="10" viewBox="0 0 20 20">
<circle class="bg_fill" cx="10" cy="10" r="4"/>
</marker>
<marker id="big_open_circle" markerHeight="20" markerWidth="20" orient="auto" refX="20" refY="20" viewBox="0 0 40 40">
<circle class="bg_fill" cx="20" cy="20" r="6"/>
</marker>
</defs>
<style type="text/css">

rect.backdrop {
    fill: white;
}
text{
    fill: black;
}

circle {
    fill: none;
    stroke: black;
    stroke-width: 2;
}

line {
    stroke: black;
    stroke-width: 2;
    stroke-opacity: 1;
    fill-opacity: 1;
    stroke-linecap: round;
    stroke-linejoin: miter;
}

path {
    fill: none;
    stroke: black;
    stroke-width: 2;
    stroke-opacity: 1;
    fill-opacity: 1;
    stroke-linecap: round;
    stroke-linejoin: miter;
}

line.dashed {
    stroke-dasharray: 5;
}

.fg_fill {
    fill: black;
}


.bg_fill {
    fill: white;
    stroke: black;
    stroke-width: 2;
}

tspan.head{
    fill: none;
    stroke: none;
}
    
</style>
<rect class="backdrop" height="256" width="232" x="0" y="0"/>
<g>
<line x1="4" x2="4" y1="60" y2="152"/>
<line marker-end="url(#circle)" x1="4" x2="4" y1="152" y2="184"/>
<line marker-end="url(#triangle)" x1="4" x2="28" y1="152" y2="152"/>
<line marker-start="url(#circle)" x1="4" x2="4" y1="184" y2="212"/>
<line marker-end="url(#triangle)" marker-start="url(#circle)" x1="4" x2="28" y1="184" y2="184"/>
<path d="M 4 212 A 4 4 0 0 0 8 216"/>
<path d="M 8 56 A 4 4 0 0 0 4 60"/>
</g>
<g>
<line marker-end="url(#triangle)" x1="8" x2="28" y1="56" y2="56"/>
</g>
<g>
<line marker-end="url(#triangle)" x1="8" x2="28" y1="216" y2="216"/>
</g>
<g>
<line marker-start="url(#circle)" x1="36" x2="32" y1="56" y2="56"/>
<line marker-end="url(#triangle)" marker-start="url(#circle)" x1="36" x2="60" y1="56" y2="56"/>
</g>
<g>
<line marker-end="url(#circle)" x1="36" x2="36" y1="124" y2="152"/>
<line marker-start="url(#circle)" x1="36" x2="32" y1="152" y2="152"/>
<line marker-end="url(#triangle)" marker-start="url(#circle)" x1="36" x2="60" y1="152" y2="152"/>
<path d="M 40 120 A 4 4 0 0 0 36 124"/>
</g>
<g>
<line marker-start="url(#circle)" x1="36" x2="32" y1="184" y2="184"/>
</g>
<g>
<line marker-start="url(#circle)" x1="36" x2="32" y1="216" y2="216"/>
<line marker-end="url(#triangle)" marker-start="url(#circle)" x1="36" x2="60" y1="216" y2="216"/>
</g>
<g>
<line marker-end="url(#triangle)" x1="40" x2="60" y1="120" y2="120"/>
</g>
<g>
<line marker-start="url(#circle)" x1="68" x2="64" y1="56" y2="56"/>
<line marker-end="url(#triangle)" marker-start="url(#circle)" x1="68" x2="92" y1="56" y2="56"/>
</g>
<g>
<line marker-start="url(#circle)" x1="68" x2="64" y1="120" y2="120"/>
<line marker-end="url(#triangle)" marker-start="url(#circle)" x1="68" x2="92" y1="120" y2="120"/>
</g>
<g>
<line marker-start="url(#circle)" x1="68" x2="64" y1="152" y2="152"/>
</g>
<g>
<line marker-start="url(#circle)" x1="68" x2="64" y1="216" y2="216"/>
<line marker-start="url(#circle)" x1="68" x2="68" y1="216" y2="244"/>
<line marker-end="url(#triangle)" marker-start="url(#circle)" x1="68" x2="92" y1="216" y2="216"/>
<path d="M 68 244 A 4 4 0 0 0 72 248"/>
</g>
<g>
<line marker-end="url(#triangle)" x1="72" x2="92" y1="248" y2="248"/>
</g>
<g>
<line marker-start="url(#circle)" x1="100" x2="96" y1="56" y2="56"/>
<line marker-end="url(#triangle)" marker-start="url(#circle)" x1="100" x2="124" y1="56" y2="56"/>
</g>
<g>
<line marker-end="url(#circle)" x1="100" x2="100" y1="92" y2="120"/>
<line marker-start="url(#circle)" x1="100" x2="96" y1="120" y2="120"/>
<line marker-end="url(#triangle)" marker-start="url(#circle)" x1="100" x2="124" y1="120" y2="120"/>
<path d="M 104 88 A 4 4 0 0 0 100 92"/>
</g>
<g>
<line marker-start="url(#circle)" x1="100" x2="96" y1="216" y2="216"/>
</g>
<g>
<line marker-start="url(#circle)" x1="100" x2="96" y1="248" y2="248"/>
<line marker-end="url(#triangle)" marker-start="url(#circle)" x1="100" x2="124" y1="248" y2="248"/>
</g>
<g>
<line marker-end="url(#triangle)" x1="104" x2="124" y1="88" y2="88"/>
</g>
<g>
<line marker-start="url(#circle)" x1="132" x2="128" y1="56" y2="56"/>
<line marker-end="url(#triangle)" marker-start="url(#circle)" x1="132" x2="156" y1="56" y2="56"/>
</g>
<g>
<line marker-start="url(#circle)" x1="132" x2="128" y1="88" y2="88"/>
<line marker-end="url(#triangle)" marker-start="url(#circle)" x1="132" x2="156" y1="88" y2="88"/>
</g>
<g>
<line marker-start="url(#circle)" x1="132" x2="128" y1="120" y2="120"/>
</g>
<g>
<line marker-start="url(#circle)" x1="132" x2="128" y1="248" y2="248"/>
<line marker-end="url(#triangle)" marker-start="url(#circle)" x1="132" x2="156" y1="248" y2="248"/>
</g>
<g>
<line marker-start="url(#circle)" x1="164" x2="160" y1="56" y2="56"/>
<line marker-end="url(#triangle)" marker-start="url(#circle)" x1="164" x2="188" y1="56" y2="56"/>
</g>
<g>
<line marker-start="url(#circle)" x1="164" x2="160" y1="88" y2="88"/>
<line marker-end="url(#triangle)" marker-start="url(#circle)" x1="164" x2="188" y1="88" y2="88"/>
</g>
<g>
<line marker-start="url(#circle)" x1="164" x2="160" y1="248" y2="248"/>
</g>
<g>
<line marker-start="url(#circle)" x1="196" x2="192" y1="56" y2="56"/>
<line marker-end="url(#triangle)" marker-start="url(#circle)" x1="196" x2="220" y1="56" y2="56"/>
</g>
<g>
<line marker-start="url(#circle)" x1="196" x2="192" y1="88" y2="88"/>
</g>
<g>
<line marker-start="url(#circle)" x1="228" x2="224" y1="56" y2="56"/>
</g>
<g>
<text x="1" y="12">
*
</text>
</g>
<g>
<text x="17" y="12">
Suffix trie for banana
</text>
</g>
<g>
<text x="17" y="44">
b
</text>
</g>
<g>
<text x="17" y="140">
a
</text>
</g>
<g>
<text x="17" y="172">
¶
</text>
</g>
<g>
<text x="17" y="204">
n
</text>
</g>
<g>
<text x="49" y="44">
a
</text>
</g>
<g>
<text x="49" y="108">
n
</text>
</g>
<g>
<text x="49" y="140">
¶
</text>
</g>
<g>
<text x="49" y="204">
a
</text>
</g>
<g>
<text x="81" y="44">
n
</text>
</g>
<g>
<text x="81" y="108">
a
</text>
</g>
<g>
<text x="81" y="204">
¶
</text>
</g>
<g>
<text x="81" y="236">
n
</text>
</g>
<g>
<text x="113" y="44">
a
</text>
</g>
<g>
<text x="113" y="76">
n
</text>
</g>
<g>
<text x="113" y="108">
¶
</text>
</g>
<g>
<text x="113" y="236">
a
</text>
</g>
<g>
<text x="145" y="44">
n
</text>
</g>
<g>
<text x="145" y="76">
a
</text>
</g>
<g>
<text x="145" y="236">
¶
</text>
</g>
<g>
<text x="177" y="44">
a
</text>
</g>
<g>
<text x="177" y="76">
¶
</text>
</g>
<g>
<text x="209" y="44">
¶
</text>
</g>
</svg>
