<svg class="bob" font-family="arial" font-size="14" height="400" width="1272" xmlns="http://www.w3.org/2000/svg">
<defs>
<marker id="triangle" markerHeight="8" markerWidth="8" orient="auto" refX="4" refY="2" viewBox="0 0 8 4">
<polygon class="fg_fill" points="0,0 0,4 8,2 0,0"/>
</marker>
<marker id="clear_triangle" markerHeight="10" markerWidth="10" orient="auto" refX="1" refY="7" viewBox="0 0 20 14">
<polygon class="bg_fill" points="2,2 2,12 18,7 2,2"/>
</marker>
<marker id="circle" markerHeight="5" markerWidth="5" orient="auto" refX="10" refY="10" viewBox="0 0 20 20">
<circle class="fg_fill" cx="10" cy="10" r="8"/>
</marker>
<marker id="square" markerHeight="5" markerWidth="5" orient="auto" refX="10" refY="10" viewBox="0 0 20 20">
<rect class="fg_fill" height="20" width="20" x="0" y="0"/>
</marker>
<marker id="open_circle" markerHeight="10" markerWidth="10" orient="auto" refX="10" refY="10" viewBox="0 0 20 20">
<circle class="bg_fill" cx="10" cy="10" r="4"/>
</marker>
<marker id="big_open_circle" markerHeight="20" markerWidth="20" orient="auto" refX="20" refY="20" viewBox="0 0 40 40">
<circle class="bg_fill" cx="20" cy="20" r="6"/>
</marker>
</defs>
<style type="text/css">

rect.backdrop {
    fill: white;
}
text{
    fill: black;
}

circle {
    fill: none;
    stroke: black;
    stroke-width: 2;
}

line {
    stroke: black;
    stroke-width: 2;
    stroke-opacity: 1;
    fill-opacity: 1;
    stroke-linecap: round;
    stroke-linejoin: miter;
}

path {
    fill: none;
    stroke: black;
    stroke-width: 2;
    stroke-opacity: 1;
    fill-opacity: 1;
    stroke-linecap: round;
    stroke-linejoin: miter;
}

line.dashed {
    stroke-dasharray: 5;
}

.fg_fill {
    fill: black;
}


.bg_fill {
    fill: white;
    stroke: black;
    stroke-width: 2;
}

tspan.head{
    fill: none;
    stroke: none;
}
    
</style>
<rect class="backdrop" height="400" width="1272" x="0" y="0"/>
<g>
<line x1="4" x2="4" y1="168" y2="200"/>
<line x1="4" x2="60" y1="168" y2="168"/>
<line x1="4" x2="60" y1="200" y2="200"/>
<line x1="60" x2="60" y1="140" y2="168"/>
<line x1="60" x2="76" y1="168" y2="168"/>
<line x1="60" x2="60" y1="200" y2="228"/>
<line x1="60" x2="76" y1="200" y2="200"/>
<line x1="76" x2="76" y1="168" y2="200"/>
<path d="M 60 228 A 4 4 0 0 0 64 232"/>
<path d="M 64 136 A 4 4 0 0 0 60 140"/>
</g>
<g>
<line marker-end="url(#triangle)" x1="64" x2="92" y1="136" y2="136"/>
</g>
<g>
<line marker-end="url(#triangle)" x1="64" x2="92" y1="232" y2="232"/>
</g>
<g>
<line x1="100" x2="100" y1="88" y2="152"/>
<line x1="100" x2="140" y1="88" y2="88"/>
<line x1="100" x2="140" y1="152" y2="152"/>
<line x1="140" x2="140" y1="88" y2="104"/>
<line x1="140" x2="140" y1="104" y2="136"/>
<line marker-end="url(#triangle)" x1="140" x2="244" y1="104" y2="104"/>
<line x1="140" x2="140" y1="136" y2="152"/>
<line x1="140" x2="144" y1="136" y2="136"/>
<path d="M 150 140 A 8 8 0 0 0 144 136"/>
</g>
<g>
<line x1="100" x2="100" y1="216" y2="280"/>
<line x1="100" x2="140" y1="216" y2="216"/>
<line x1="100" x2="116" y1="280" y2="280"/>
<line marker-end="url(#triangle)" x1="116" x2="116" y1="280" y2="316"/>
<line x1="116" x2="140" y1="280" y2="280"/>
<line x1="140" x2="140" y1="216" y2="232"/>
<line x1="140" x2="140" y1="232" y2="280"/>
<line x1="140" x2="144" y1="232" y2="232"/>
<path d="M 144 232 A 8 8 0 0 0 150 228"/>
</g>
<g>
<line x1="100" x2="100" y1="328" y2="392"/>
<line x1="100" x2="140" y1="328" y2="328"/>
<line x1="100" x2="140" y1="392" y2="392"/>
<line x1="140" x2="140" y1="328" y2="344"/>
<line x1="140" x2="140" y1="344" y2="392"/>
<line x1="140" x2="144" y1="344" y2="344"/>
<path d="M 144 344 A 8 8 0 0 0 150 340"/>
</g>
<g>
<line x1="150" x2="172" y1="140" y2="184"/>
<line x1="172" x2="150" y1="184" y2="228"/>
<line x1="172" x2="194" y1="184" y2="228"/>
<line x1="194" x2="172" y1="140" y2="184"/>
<path d="M 194 228 A 8 8 0 0 0 200 232"/>
<path d="M 200 136 A 8 8 0 0 0 194 140"/>
</g>
<g>
<line x1="194" x2="150" y1="252" y2="340"/>
<path d="M 200 248 A 8 8 0 0 0 194 252"/>
</g>
<g>
<line marker-end="url(#triangle)" x1="200" x2="244" y1="136" y2="136"/>
</g>
<g>
<line marker-end="url(#triangle)" x1="200" x2="244" y1="232" y2="232"/>
</g>
<g>
<line marker-end="url(#triangle)" x1="200" x2="244" y1="248" y2="248"/>
</g>
<g>
<line x1="208" x2="240" y1="24" y2="24"/>
</g>
<g>
<line x1="252" x2="252" y1="88" y2="152"/>
<line x1="252" x2="292" y1="88" y2="88"/>
<line x1="252" x2="292" y1="152" y2="152"/>
<line x1="292" x2="292" y1="88" y2="104"/>
<line x1="292" x2="292" y1="104" y2="136"/>
<line marker-end="url(#triangle)" x1="292" x2="396" y1="104" y2="104"/>
<line x1="292" x2="292" y1="136" y2="152"/>
<line x1="292" x2="296" y1="136" y2="136"/>
<path d="M 302 140 A 8 8 0 0 0 296 136"/>
</g>
<g>
<line x1="252" x2="252" y1="216" y2="280"/>
<line x1="252" x2="292" y1="216" y2="216"/>
<line x1="252" x2="268" y1="280" y2="280"/>
<line marker-end="url(#triangle)" x1="268" x2="268" y1="280" y2="316"/>
<line x1="268" x2="292" y1="280" y2="280"/>
<line x1="292" x2="292" y1="216" y2="232"/>
<line x1="292" x2="292" y1="232" y2="280"/>
<line x1="292" x2="296" y1="232" y2="232"/>
<path d="M 296 232 A 8 8 0 0 0 302 228"/>
</g>
<g>
<line x1="252" x2="252" y1="328" y2="392"/>
<line x1="252" x2="292" y1="328" y2="328"/>
<line x1="252" x2="292" y1="392" y2="392"/>
<line x1="292" x2="292" y1="328" y2="344"/>
<line x1="292" x2="292" y1="344" y2="392"/>
<line x1="292" x2="296" y1="344" y2="344"/>
<path d="M 296 344 A 8 8 0 0 0 302 340"/>
</g>
<g>
<line x1="302" x2="324" y1="140" y2="184"/>
<line x1="324" x2="302" y1="184" y2="228"/>
<line x1="324" x2="346" y1="184" y2="228"/>
<line x1="346" x2="324" y1="140" y2="184"/>
<path d="M 346 228 A 8 8 0 0 0 352 232"/>
<path d="M 352 136 A 8 8 0 0 0 346 140"/>
</g>
<g>
<line marker-end="url(#triangle)" x1="312" x2="332" y1="24" y2="24"/>
</g>
<g>
<line x1="346" x2="302" y1="252" y2="340"/>
<path d="M 352 248 A 8 8 0 0 0 346 252"/>
</g>
<g>
<line marker-end="url(#triangle)" x1="352" x2="396" y1="136" y2="136"/>
</g>
<g>
<line marker-end="url(#triangle)" x1="352" x2="396" y1="232" y2="232"/>
</g>
<g>
<line marker-end="url(#triangle)" x1="352" x2="396" y1="248" y2="248"/>
</g>
<g>
<line x1="404" x2="404" y1="88" y2="152"/>
<line x1="404" x2="444" y1="88" y2="88"/>
<line x1="404" x2="444" y1="152" y2="152"/>
<line x1="444" x2="444" y1="88" y2="104"/>
<line x1="444" x2="444" y1="104" y2="152"/>
<line x1="444" x2="472" y1="104" y2="104"/>
<path d="M 476 108 A 4 4 0 0 0 472 104"/>
</g>
<g>
<line x1="404" x2="404" y1="216" y2="280"/>
<line x1="404" x2="444" y1="216" y2="216"/>
<line x1="404" x2="420" y1="280" y2="280"/>
<line marker-end="url(#triangle)" x1="420" x2="420" y1="280" y2="316"/>
<line x1="420" x2="444" y1="280" y2="280"/>
<line x1="444" x2="444" y1="216" y2="248"/>
<line x1="444" x2="444" y1="248" y2="280"/>
<line x1="444" x2="472" y1="248" y2="248"/>
<path d="M 472 248 A 4 4 0 0 0 476 244"/>
</g>
<g>
<line x1="404" x2="404" y1="328" y2="392"/>
<line x1="404" x2="444" y1="328" y2="328"/>
<line x1="404" x2="444" y1="392" y2="392"/>
<line x1="444" x2="444" y1="328" y2="344"/>
<line x1="444" x2="444" y1="344" y2="392"/>
<line x1="444" x2="488" y1="344" y2="344"/>
<path d="M 488 344 A 4 4 0 0 0 492 340"/>
</g>
<g>
<line x1="468" x2="468" y1="168" y2="200"/>
<line x1="468" x2="524" y1="168" y2="168"/>
<line x1="468" x2="524" y1="200" y2="200"/>
<line x1="524" x2="524" y1="168" y2="200"/>
</g>
<g>
<line marker-end="url(#triangle)" x1="476" x2="476" y1="108" y2="156"/>
</g>
<g>
<line marker-end="url(#triangle)" x1="476" x2="476" y1="224" y2="212"/>
<line x1="476" x2="476" y1="224" y2="244"/>
</g>
<g>
<line marker-end="url(#triangle)" x1="492" x2="492" y1="224" y2="212"/>
<line x1="492" x2="492" y1="224" y2="340"/>
</g>
<g>
<line x1="684" x2="684" y1="152" y2="184"/>
<line x1="684" x2="740" y1="152" y2="152"/>
<line x1="684" x2="724" y1="184" y2="184"/>
<line x1="724" x2="724" y1="184" y2="244"/>
<line x1="724" x2="740" y1="184" y2="184"/>
<line x1="740" x2="740" y1="124" y2="152"/>
<line x1="740" x2="756" y1="152" y2="152"/>
<line x1="740" x2="740" y1="184" y2="212"/>
<line x1="740" x2="756" y1="184" y2="184"/>
<line x1="756" x2="756" y1="152" y2="184"/>
<path d="M 724 244 A 4 4 0 0 0 728 248"/>
<path d="M 740 212 A 4 4 0 0 0 744 216"/>
<path d="M 744 120 A 4 4 0 0 0 740 124"/>
</g>
<g>
<line marker-end="url(#triangle)" x1="728" x2="788" y1="248" y2="248"/>
</g>
<g>
<line marker-end="url(#triangle)" x1="744" x2="788" y1="120" y2="120"/>
</g>
<g>
<line marker-end="url(#triangle)" x1="744" x2="772" y1="216" y2="216"/>
</g>
<g>
<line x1="780" x2="780" y1="168" y2="232"/>
<line x1="780" x2="820" y1="168" y2="168"/>
<line x1="780" x2="796" y1="232" y2="232"/>
<line x1="820" x2="820" y1="168" y2="200"/>
<line x1="820" x2="820" y1="200" y2="216"/>
<line x1="820" x2="856" y1="200" y2="200"/>
<line x1="820" x2="836" y1="216" y2="216"/>
<line x1="836" x2="836" y1="216" y2="280"/>
<path d="M 856 200 A 8 8 0 0 0 862 196"/>
</g>
<g>
<line x1="796" x2="796" y1="88" y2="152"/>
<line x1="796" x2="836" y1="88" y2="88"/>
<line x1="796" x2="836" y1="152" y2="152"/>
<line x1="836" x2="836" y1="88" y2="104"/>
<line x1="836" x2="836" y1="104" y2="120"/>
<line marker-end="url(#triangle)" x1="836" x2="956" y1="104" y2="104"/>
<line x1="836" x2="836" y1="120" y2="136"/>
<line x1="836" x2="864" y1="120" y2="120"/>
<line x1="836" x2="836" y1="136" y2="152"/>
<line x1="836" x2="856" y1="136" y2="136"/>
<path d="M 862 140 A 8 8 0 0 0 856 136"/>
<path d="M 870 124 A 8 8 0 0 0 864 120"/>
</g>
<g>
<line x1="796" x2="796" y1="216" y2="280"/>
<line x1="796" x2="820" y1="216" y2="216"/>
<line x1="796" x2="812" y1="280" y2="280"/>
<line marker-end="url(#triangle)" x1="812" x2="812" y1="280" y2="316"/>
<line x1="812" x2="836" y1="280" y2="280"/>
</g>
<g>
<line x1="796" x2="796" y1="328" y2="392"/>
<line x1="796" x2="836" y1="328" y2="328"/>
<line x1="796" x2="836" y1="392" y2="392"/>
<line x1="836" x2="836" y1="328" y2="344"/>
<line x1="836" x2="836" y1="344" y2="376"/>
<line x1="836" x2="848" y1="344" y2="344"/>
<line x1="836" x2="836" y1="376" y2="392"/>
<line x1="836" x2="848" y1="376" y2="376"/>
<path d="M 848 344 A 8 8 0 0 0 854 340"/>
<path d="M 848 376 A 8 8 0 0 0 854 372"/>
</g>
<g>
<line x1="862" x2="876" y1="140" y2="168"/>
<line x1="876" x2="862" y1="168" y2="196"/>
<line x1="876" x2="908" y1="168" y2="232"/>
<line x1="884" x2="876" y1="152" y2="168"/>
<line x1="884" x2="898" y1="152" y2="180"/>
<line x1="898" x2="884" y1="124" y2="152"/>
<line x1="908" x2="854" y1="232" y2="340"/>
<line x1="908" x2="914" y1="232" y2="244"/>
<line x1="922" x2="908" y1="204" y2="232"/>
<path d="M 898 180 A 8 8 0 0 0 904 184"/>
<path d="M 904 120 A 8 8 0 0 0 898 124"/>
<path d="M 914 244 A 8 8 0 0 0 920 248"/>
<path d="M 928 200 A 8 8 0 0 0 922 204"/>
</g>
<g>
<line x1="870" x2="884" y1="124" y2="152"/>
</g>
<g>
<line marker-end="url(#triangle)" x1="904" x2="956" y1="120" y2="120"/>
</g>
<g>
<line marker-end="url(#triangle)" x1="904" x2="940" y1="184" y2="184"/>
</g>
<g>
<line x1="906" x2="854" y1="268" y2="372"/>
<path d="M 912 264 A 8 8 0 0 0 906 268"/>
</g>
<g>
<line marker-end="url(#triangle)" x1="912" x2="956" y1="264" y2="264"/>
</g>
<g>
<line marker-end="url(#triangle)" x1="920" x2="916" y1="24" y2="24"/>
<line x1="920" x2="944" y1="24" y2="24"/>
</g>
<g>
<line marker-end="url(#triangle)" x1="920" x2="956" y1="248" y2="248"/>
</g>
<g>
<line marker-end="url(#triangle)" x1="928" x2="940" y1="200" y2="200"/>
</g>
<g>
<line x1="948" x2="948" y1="168" y2="232"/>
<line x1="948" x2="988" y1="168" y2="168"/>
<line x1="948" x2="964" y1="232" y2="232"/>
<line x1="988" x2="988" y1="168" y2="200"/>
<line x1="988" x2="988" y1="200" y2="216"/>
<line x1="988" x2="1024" y1="200" y2="200"/>
<line x1="988" x2="1004" y1="216" y2="216"/>
<line x1="1004" x2="1004" y1="216" y2="280"/>
<path d="M 1024 200 A 8 8 0 0 0 1030 196"/>
</g>
<g>
<line x1="964" x2="964" y1="88" y2="152"/>
<line x1="964" x2="1004" y1="88" y2="88"/>
<line x1="964" x2="1004" y1="152" y2="152"/>
<line x1="1004" x2="1004" y1="88" y2="104"/>
<line x1="1004" x2="1004" y1="104" y2="120"/>
<line marker-end="url(#triangle)" x1="1004" x2="1124" y1="104" y2="104"/>
<line x1="1004" x2="1004" y1="120" y2="136"/>
<line x1="1004" x2="1032" y1="120" y2="120"/>
<line x1="1004" x2="1004" y1="136" y2="152"/>
<line x1="1004" x2="1024" y1="136" y2="136"/>
<path d="M 1030 140 A 8 8 0 0 0 1024 136"/>
<path d="M 1038 124 A 8 8 0 0 0 1032 120"/>
</g>
<g>
<line x1="964" x2="964" y1="216" y2="280"/>
<line x1="964" x2="988" y1="216" y2="216"/>
<line x1="964" x2="980" y1="280" y2="280"/>
<line marker-end="url(#triangle)" x1="980" x2="980" y1="280" y2="316"/>
<line x1="980" x2="1004" y1="280" y2="280"/>
</g>
<g>
<line x1="964" x2="964" y1="328" y2="392"/>
<line x1="964" x2="1004" y1="328" y2="328"/>
<line x1="964" x2="1004" y1="392" y2="392"/>
<line x1="1004" x2="1004" y1="328" y2="344"/>
<line x1="1004" x2="1004" y1="344" y2="376"/>
<line x1="1004" x2="1016" y1="344" y2="344"/>
<line x1="1004" x2="1004" y1="376" y2="392"/>
<line x1="1004" x2="1016" y1="376" y2="376"/>
<path d="M 1016 344 A 8 8 0 0 0 1022 340"/>
<path d="M 1016 376 A 8 8 0 0 0 1022 372"/>
</g>
<g>
<line x1="1024" x2="1048" y1="24" y2="24"/>
</g>
<g>
<line x1="1030" x2="1044" y1="140" y2="168"/>
<line x1="1044" x2="1030" y1="168" y2="196"/>
<line x1="1044" x2="1076" y1="168" y2="232"/>
<line x1="1052" x2="1044" y1="152" y2="168"/>
<line x1="1052" x2="1066" y1="152" y2="180"/>
<line x1="1066" x2="1052" y1="124" y2="152"/>
<line x1="1076" x2="1022" y1="232" y2="340"/>
<line x1="1076" x2="1082" y1="232" y2="244"/>
<line x1="1090" x2="1076" y1="204" y2="232"/>
<path d="M 1066 180 A 8 8 0 0 0 1072 184"/>
<path d="M 1072 120 A 8 8 0 0 0 1066 124"/>
<path d="M 1082 244 A 8 8 0 0 0 1088 248"/>
<path d="M 1096 200 A 8 8 0 0 0 1090 204"/>
</g>
<g>
<line x1="1038" x2="1052" y1="124" y2="152"/>
</g>
<g>
<line marker-end="url(#triangle)" x1="1072" x2="1124" y1="120" y2="120"/>
</g>
<g>
<line marker-end="url(#triangle)" x1="1072" x2="1108" y1="184" y2="184"/>
</g>
<g>
<line x1="1074" x2="1022" y1="268" y2="372"/>
<path d="M 1080 264 A 8 8 0 0 0 1074 268"/>
</g>
<g>
<line marker-end="url(#triangle)" x1="1080" x2="1124" y1="264" y2="264"/>
</g>
<g>
<line marker-end="url(#triangle)" x1="1088" x2="1124" y1="248" y2="248"/>
</g>
<g>
<line marker-end="url(#triangle)" x1="1096" x2="1108" y1="200" y2="200"/>
</g>
<g>
<line x1="1116" x2="1116" y1="168" y2="232"/>
<line x1="1116" x2="1156" y1="168" y2="168"/>
<line x1="1116" x2="1132" y1="232" y2="232"/>
<line x1="1156" x2="1156" y1="168" y2="200"/>
<line x1="1156" x2="1156" y1="200" y2="216"/>
<line x1="1156" x2="1184" y1="200" y2="200"/>
<line x1="1156" x2="1172" y1="216" y2="216"/>
<line x1="1172" x2="1172" y1="216" y2="280"/>
<path d="M 1188 204 A 4 4 0 0 0 1184 200"/>
</g>
<g>
<line x1="1132" x2="1132" y1="88" y2="152"/>
<line x1="1132" x2="1172" y1="88" y2="88"/>
<line x1="1132" x2="1172" y1="152" y2="152"/>
<line x1="1172" x2="1172" y1="88" y2="104"/>
<line x1="1172" x2="1172" y1="104" y2="152"/>
<line x1="1172" x2="1216" y1="104" y2="104"/>
<path d="M 1220 108 A 4 4 0 0 0 1216 104"/>
</g>
<g>
<line x1="1132" x2="1132" y1="216" y2="280"/>
<line x1="1132" x2="1156" y1="216" y2="216"/>
<line x1="1132" x2="1148" y1="280" y2="280"/>
<line marker-end="url(#triangle)" x1="1148" x2="1148" y1="280" y2="316"/>
<line x1="1148" x2="1172" y1="280" y2="280"/>
</g>
<g>
<line x1="1132" x2="1132" y1="328" y2="392"/>
<line x1="1132" x2="1172" y1="328" y2="328"/>
<line x1="1132" x2="1172" y1="392" y2="392"/>
<line x1="1172" x2="1172" y1="328" y2="344"/>
<line x1="1172" x2="1172" y1="344" y2="392"/>
<line x1="1172" x2="1232" y1="344" y2="344"/>
<path d="M 1232 344 A 4 4 0 0 0 1236 340"/>
</g>
<g>
<line x1="1188" x2="1188" y1="204" y2="244"/>
<path d="M 1188 244 A 4 4 0 0 0 1192 248"/>
</g>
<g>
<line x1="1192" x2="1216" y1="248" y2="248"/>
<path d="M 1216 248 A 4 4 0 0 0 1220 244"/>
</g>
<g>
<line x1="1212" x2="1212" y1="168" y2="200"/>
<line x1="1212" x2="1268" y1="168" y2="168"/>
<line x1="1212" x2="1268" y1="200" y2="200"/>
<line x1="1268" x2="1268" y1="168" y2="200"/>
</g>
<g>
<line marker-end="url(#triangle)" x1="1220" x2="1220" y1="108" y2="156"/>
</g>
<g>
<line marker-end="url(#triangle)" x1="1220" x2="1220" y1="224" y2="212"/>
<line x1="1220" x2="1220" y1="224" y2="244"/>
</g>
<g>
<line marker-end="url(#triangle)" x1="1236" x2="1236" y1="224" y2="212"/>
<line x1="1236" x2="1236" y1="224" y2="340"/>
</g>
<g>
<text x="17" y="188">
SOURCE
</text>
</g>
<g>
<text x="113" y="108">
A0
</text>
</g>
<g>
<text x="113" y="236">
B0
</text>
</g>
<g>
<text x="113" y="348">
C0
</text>
</g>
<g>
<text x="121" y="60">
z
</text>
</g>
<g>
<text x="169" y="12">
ALL POSSIBLE LEFT-HAND SIDES
</text>
</g>
<g>
<text x="249" y="28">
forward
</text>
</g>
<g>
<text x="265" y="108">
A1
</text>
</g>
<g>
<text x="265" y="236">
B1
</text>
</g>
<g>
<text x="265" y="348">
C1
</text>
</g>
<g>
<text x="273" y="60">
z
</text>
</g>
<g>
<text x="417" y="108">
A2
</text>
</g>
<g>
<text x="417" y="236">
B2
</text>
</g>
<g>
<text x="417" y="348">
C2
</text>
</g>
<g>
<text x="425" y="60">
y
</text>
</g>
<g>
<text x="481" y="188">
SINK
</text>
</g>
<g>
<text x="697" y="172">
SOURCE
</text>
</g>
<g>
<text x="793" y="188">
B0
</text>
</g>
<g>
<text x="809" y="108">
A0
</text>
</g>
<g>
<text x="809" y="236">
B0
</text>
</g>
<g>
<text x="809" y="348">
C0
</text>
</g>
<g>
<text x="817" y="60">
z
</text>
</g>
<g>
<text x="857" y="12">
ALL POSSIBLE RIGHT-HAND SIDES
</text>
</g>
<g>
<text x="953" y="28">
backward
</text>
</g>
<g>
<text x="961" y="188">
B1
</text>
</g>
<g>
<text x="977" y="108">
A1
</text>
</g>
<g>
<text x="977" y="236">
B1
</text>
</g>
<g>
<text x="977" y="348">
C1
</text>
</g>
<g>
<text x="985" y="60">
y
</text>
</g>
<g>
<text x="1129" y="188">
B2
</text>
</g>
<g>
<text x="1145" y="60">
z
</text>
</g>
<g>
<text x="1145" y="108">
A2
</text>
</g>
<g>
<text x="1145" y="236">
B2
</text>
</g>
<g>
<text x="1145" y="348">
C2
</text>
</g>
<g>
<text x="1225" y="188">
SINK
</text>
</g>
</svg>
