<svg class="bob" font-family="arial" font-size="14" height="48" width="1016" xmlns="http://www.w3.org/2000/svg">
<defs>
<marker id="triangle" markerHeight="8" markerWidth="8" orient="auto" refX="4" refY="2" viewBox="0 0 8 4">
<polygon class="fg_fill" points="0,0 0,4 8,2 0,0"/>
</marker>
<marker id="clear_triangle" markerHeight="10" markerWidth="10" orient="auto" refX="1" refY="7" viewBox="0 0 20 14">
<polygon class="bg_fill" points="2,2 2,12 18,7 2,2"/>
</marker>
<marker id="circle" markerHeight="5" markerWidth="5" orient="auto" refX="10" refY="10" viewBox="0 0 20 20">
<circle class="fg_fill" cx="10" cy="10" r="8"/>
</marker>
<marker id="square" markerHeight="5" markerWidth="5" orient="auto" refX="10" refY="10" viewBox="0 0 20 20">
<rect class="fg_fill" height="20" width="20" x="0" y="0"/>
</marker>
<marker id="open_circle" markerHeight="10" markerWidth="10" orient="auto" refX="10" refY="10" viewBox="0 0 20 20">
<circle class="bg_fill" cx="10" cy="10" r="4"/>
</marker>
<marker id="big_open_circle" markerHeight="20" markerWidth="20" orient="auto" refX="20" refY="20" viewBox="0 0 40 40">
<circle class="bg_fill" cx="20" cy="20" r="6"/>
</marker>
</defs>
<style type="text/css">

rect.backdrop {
    fill: white;
}
text{
    fill: black;
}

circle {
    fill: none;
    stroke: black;
    stroke-width: 2;
}

line {
    stroke: black;
    stroke-width: 2;
    stroke-opacity: 1;
    fill-opacity: 1;
    stroke-linecap: round;
    stroke-linejoin: miter;
}

path {
    fill: none;
    stroke: black;
    stroke-width: 2;
    stroke-opacity: 1;
    fill-opacity: 1;
    stroke-linecap: round;
    stroke-linejoin: miter;
}

line.dashed {
    stroke-dasharray: 5;
}

.fg_fill {
    fill: black;
}


.bg_fill {
    fill: white;
    stroke: black;
    stroke-width: 2;
}

tspan.head{
    fill: none;
    stroke: none;
}
    
</style>
<rect class="backdrop" height="48" width="1016" x="0" y="0"/>
<g>
<line marker-end="url(#triangle)" x1="0" x2="20" y1="24" y2="24"/>
</g>
<g>
<line marker-end="url(#triangle)" x1="24" x2="28" y1="24" y2="24"/>
</g>
<g>
<line marker-end="url(#triangle)" x1="32" x2="36" y1="24" y2="24"/>
</g>
<g>
<line marker-end="url(#triangle)" x1="40" x2="44" y1="24" y2="24"/>
</g>
<g>
<line marker-end="url(#triangle)" x1="48" x2="52" y1="24" y2="24"/>
</g>
<g>
<line marker-end="url(#triangle)" x1="56" x2="60" y1="24" y2="24"/>
</g>
<g>
<line marker-end="url(#triangle)" x1="64" x2="68" y1="24" y2="24"/>
</g>
<g>
<line marker-end="url(#triangle)" x1="72" x2="76" y1="24" y2="24"/>
</g>
<g>
<line marker-end="url(#triangle)" x1="80" x2="84" y1="24" y2="24"/>
</g>
<g>
<line marker-end="url(#triangle)" x1="88" x2="92" y1="24" y2="24"/>
</g>
<g>
<line marker-end="url(#triangle)" x1="96" x2="100" y1="24" y2="24"/>
</g>
<g>
<line marker-end="url(#triangle)" x1="104" x2="108" y1="24" y2="24"/>
</g>
<g>
<line marker-end="url(#triangle)" x1="112" x2="116" y1="24" y2="24"/>
</g>
<g>
<line marker-start="url(#triangle)" x1="120" x2="124" y1="24" y2="24"/>
<line marker-end="url(#triangle)" x1="120" x2="124" y1="24" y2="24"/>
</g>
<g>
<line marker-end="url(#triangle)" x1="128" x2="172" y1="24" y2="24"/>
</g>
<g>
<line marker-end="url(#triangle)" x1="176" x2="180" y1="24" y2="24"/>
</g>
<g>
<line marker-end="url(#triangle)" x1="184" x2="188" y1="24" y2="24"/>
</g>
<g>
<line marker-end="url(#triangle)" x1="192" x2="196" y1="24" y2="24"/>
</g>
<g>
<line marker-end="url(#triangle)" x1="200" x2="204" y1="24" y2="24"/>
</g>
<g>
<line marker-end="url(#triangle)" x1="208" x2="212" y1="24" y2="24"/>
</g>
<g>
<line marker-start="url(#triangle)" x1="216" x2="220" y1="24" y2="24"/>
<line marker-end="url(#triangle)" x1="216" x2="220" y1="24" y2="24"/>
</g>
<g>
<line marker-end="url(#triangle)" x1="224" x2="252" y1="24" y2="24"/>
</g>
<g>
<line marker-end="url(#triangle)" x1="256" x2="260" y1="24" y2="24"/>
</g>
<g>
<line marker-end="url(#triangle)" x1="264" x2="268" y1="24" y2="24"/>
</g>
<g>
<line marker-end="url(#triangle)" x1="272" x2="276" y1="24" y2="24"/>
</g>
<g>
<line marker-end="url(#triangle)" x1="280" x2="284" y1="24" y2="24"/>
</g>
<g>
<line marker-end="url(#triangle)" x1="288" x2="292" y1="24" y2="24"/>
</g>
<g>
<line marker-start="url(#triangle)" x1="296" x2="300" y1="24" y2="24"/>
<line marker-end="url(#triangle)" x1="296" x2="300" y1="24" y2="24"/>
</g>
<g>
<line marker-end="url(#triangle)" x1="304" x2="412" y1="24" y2="24"/>
</g>
<g>
<line marker-end="url(#triangle)" x1="416" x2="420" y1="24" y2="24"/>
</g>
<g>
<line marker-end="url(#triangle)" x1="424" x2="428" y1="24" y2="24"/>
</g>
<g>
<line marker-end="url(#triangle)" x1="432" x2="436" y1="24" y2="24"/>
</g>
<g>
<line marker-end="url(#triangle)" x1="440" x2="444" y1="24" y2="24"/>
</g>
<g>
<line marker-end="url(#triangle)" x1="448" x2="452" y1="24" y2="24"/>
</g>
<g>
<line marker-start="url(#triangle)" x1="456" x2="460" y1="24" y2="24"/>
<line marker-end="url(#triangle)" x1="456" x2="460" y1="24" y2="24"/>
</g>
<g>
<line x1="464" x2="536" y1="24" y2="24"/>
</g>
<g>
<line x1="656" x2="672" y1="24" y2="24"/>
</g>
<g>
<line marker-start="url(#triangle)" x1="680" x2="676" y1="24" y2="24"/>
<line marker-end="url(#triangle)" x1="680" x2="676" y1="24" y2="24"/>
</g>
<g>
<line marker-end="url(#triangle)" x1="688" x2="684" y1="24" y2="24"/>
</g>
<g>
<line marker-end="url(#triangle)" x1="696" x2="692" y1="24" y2="24"/>
</g>
<g>
<line marker-end="url(#triangle)" x1="704" x2="700" y1="24" y2="24"/>
</g>
<g>
<line marker-end="url(#triangle)" x1="712" x2="708" y1="24" y2="24"/>
</g>
<g>
<line marker-end="url(#triangle)" x1="720" x2="716" y1="24" y2="24"/>
</g>
<g>
<line marker-end="url(#triangle)" x1="728" x2="724" y1="24" y2="24"/>
<line x1="728" x2="744" y1="24" y2="24"/>
</g>
<g>
<line marker-start="url(#triangle)" x1="752" x2="748" y1="24" y2="24"/>
<line marker-end="url(#triangle)" x1="752" x2="748" y1="24" y2="24"/>
</g>
<g>
<line marker-end="url(#triangle)" x1="760" x2="756" y1="24" y2="24"/>
</g>
<g>
<line marker-end="url(#triangle)" x1="768" x2="764" y1="24" y2="24"/>
</g>
<g>
<line marker-end="url(#triangle)" x1="776" x2="772" y1="24" y2="24"/>
</g>
<g>
<line marker-end="url(#triangle)" x1="784" x2="780" y1="24" y2="24"/>
</g>
<g>
<line marker-end="url(#triangle)" x1="792" x2="788" y1="24" y2="24"/>
</g>
<g>
<line marker-end="url(#triangle)" x1="800" x2="796" y1="24" y2="24"/>
<line marker-end="url(#triangle)" x1="800" x2="820" y1="24" y2="24"/>
</g>
<g>
<line marker-end="url(#triangle)" x1="824" x2="828" y1="24" y2="24"/>
</g>
<g>
<line marker-end="url(#triangle)" x1="832" x2="836" y1="24" y2="24"/>
</g>
<g>
<line marker-end="url(#triangle)" x1="840" x2="844" y1="24" y2="24"/>
</g>
<g>
<line marker-end="url(#triangle)" x1="848" x2="852" y1="24" y2="24"/>
</g>
<g>
<line marker-end="url(#triangle)" x1="856" x2="860" y1="24" y2="24"/>
</g>
<g>
<line marker-start="url(#triangle)" x1="864" x2="868" y1="24" y2="24"/>
<line marker-end="url(#triangle)" x1="864" x2="868" y1="24" y2="24"/>
</g>
<g>
<line x1="872" x2="888" y1="24" y2="24"/>
</g>
<g>
<line marker-start="url(#triangle)" x1="896" x2="892" y1="24" y2="24"/>
<line marker-end="url(#triangle)" x1="896" x2="892" y1="24" y2="24"/>
</g>
<g>
<line marker-end="url(#triangle)" x1="904" x2="900" y1="24" y2="24"/>
</g>
<g>
<line marker-end="url(#triangle)" x1="912" x2="908" y1="24" y2="24"/>
</g>
<g>
<line marker-end="url(#triangle)" x1="920" x2="916" y1="24" y2="24"/>
</g>
<g>
<line marker-end="url(#triangle)" x1="928" x2="924" y1="24" y2="24"/>
</g>
<g>
<line marker-end="url(#triangle)" x1="936" x2="932" y1="24" y2="24"/>
</g>
<g>
<line marker-end="url(#triangle)" x1="944" x2="940" y1="24" y2="24"/>
</g>
<g>
<line marker-end="url(#triangle)" x1="952" x2="948" y1="24" y2="24"/>
</g>
<g>
<line marker-end="url(#triangle)" x1="960" x2="956" y1="24" y2="24"/>
</g>
<g>
<line marker-end="url(#triangle)" x1="968" x2="964" y1="24" y2="24"/>
</g>
<g>
<line marker-end="url(#triangle)" x1="976" x2="972" y1="24" y2="24"/>
</g>
<g>
<line marker-end="url(#triangle)" x1="984" x2="980" y1="24" y2="24"/>
</g>
<g>
<line marker-end="url(#triangle)" x1="992" x2="988" y1="24" y2="24"/>
</g>
<g>
<line marker-end="url(#triangle)" x1="1000" x2="996" y1="24" y2="24"/>
<line x1="1000" x2="1016" y1="24" y2="24"/>
</g>
<g>
<text x="9" y="44">
5&#39;
</text>
</g>
<g>
<text x="57" y="12">
+A
</text>
</g>
<g>
<text x="185" y="12">
+B
</text>
</g>
<g>
<text x="233" y="44">
desired
</text>
</g>
<g>
<text x="265" y="12">
+C
</text>
</g>
<g>
<text x="425" y="12">
+D
</text>
</g>
<g>
<text x="513" y="44">
3&#39;
</text>
</g>
<g>
<text x="585" y="28">
vs
</text>
</g>
<g>
<text x="665" y="44">
5&#39;
</text>
</g>
<g>
<text x="689" y="12">
-D
</text>
</g>
<g>
<text x="761" y="12">
-B
</text>
</g>
<g>
<text x="825" y="44">
undesired
</text>
</g>
<g>
<text x="833" y="12">
+C
</text>
</g>
<g>
<text x="929" y="12">
-A
</text>
</g>
<g>
<text x="993" y="44">
3&#39;
</text>
</g>
</svg>
