<svg class="bob" font-family="arial" font-size="14" height="560" width="656" xmlns="http://www.w3.org/2000/svg">
<defs>
<marker id="triangle" markerHeight="8" markerWidth="8" orient="auto" refX="4" refY="2" viewBox="0 0 8 4">
<polygon class="fg_fill" points="0,0 0,4 8,2 0,0"/>
</marker>
<marker id="clear_triangle" markerHeight="10" markerWidth="10" orient="auto" refX="1" refY="7" viewBox="0 0 20 14">
<polygon class="bg_fill" points="2,2 2,12 18,7 2,2"/>
</marker>
<marker id="circle" markerHeight="5" markerWidth="5" orient="auto" refX="10" refY="10" viewBox="0 0 20 20">
<circle class="fg_fill" cx="10" cy="10" r="8"/>
</marker>
<marker id="square" markerHeight="5" markerWidth="5" orient="auto" refX="10" refY="10" viewBox="0 0 20 20">
<rect class="fg_fill" height="20" width="20" x="0" y="0"/>
</marker>
<marker id="open_circle" markerHeight="10" markerWidth="10" orient="auto" refX="10" refY="10" viewBox="0 0 20 20">
<circle class="bg_fill" cx="10" cy="10" r="4"/>
</marker>
<marker id="big_open_circle" markerHeight="20" markerWidth="20" orient="auto" refX="20" refY="20" viewBox="0 0 40 40">
<circle class="bg_fill" cx="20" cy="20" r="6"/>
</marker>
</defs>
<style type="text/css">

rect.backdrop {
    fill: white;
}
text{
    fill: black;
}

circle {
    fill: none;
    stroke: black;
    stroke-width: 2;
}

line {
    stroke: black;
    stroke-width: 2;
    stroke-opacity: 1;
    fill-opacity: 1;
    stroke-linecap: round;
    stroke-linejoin: miter;
}

path {
    fill: none;
    stroke: black;
    stroke-width: 2;
    stroke-opacity: 1;
    fill-opacity: 1;
    stroke-linecap: round;
    stroke-linejoin: miter;
}

line.dashed {
    stroke-dasharray: 5;
}

.fg_fill {
    fill: black;
}


.bg_fill {
    fill: white;
    stroke: black;
    stroke-width: 2;
}

tspan.head{
    fill: none;
    stroke: none;
}
    
</style>
<rect class="backdrop" height="560" width="656" x="0" y="0"/>
<g>
<text x="1" y="12">
* Each diagonal edge is a replacement / keep matching
</text>
</g>
<g>
<text x="1" y="28">
* Each horizontal edge is an indel where the top is kept
</text>
</g>
<g>
<text x="1" y="44">
* Each vertical edge is an indel where the left is kept
</text>
</g>
<g>
<text x="1" y="188">
M
</text>
</g>
<g>
<text x="1" y="268">
A
</text>
</g>
<g>
<text x="1" y="348">
P
</text>
</g>
<g>
<text x="1" y="428">
L
</text>
</g>
<g>
<text x="1" y="508">
E
</text>
</g>
<g>
<text x="25" y="140">
T
</text>
</g>
<g>
<text x="33" y="76">
Complete
</text>
</g>
<g>
<text x="57" y="140">
A
</text>
</g>
<g>
<text x="89" y="140">
B
</text>
</g>
<g>
<text x="105" y="76">
graph
</text>
</g>
<g>
<text x="121" y="140">
L
</text>
</g>
<g>
<text x="153" y="140">
E
</text>
</g>
<g>
<text x="241" y="188">
M
</text>
</g>
<g>
<text x="241" y="268">
A
</text>
</g>
<g>
<text x="241" y="348">
P
</text>
</g>
<g>
<text x="241" y="428">
L
</text>
</g>
<g>
<text x="241" y="508">
E
</text>
</g>
<g>
<text x="249" y="316">
o
</text>
</g>
<g>
<text x="249" y="396">
o
</text>
</g>
<g>
<text x="249" y="476">
o
</text>
</g>
<g>
<text x="249" y="556">
o
</text>
</g>
<g>
<text x="265" y="76">
Example
</text>
</g>
<g>
<text x="265" y="140">
T
</text>
</g>
<g>
<text x="281" y="156">
o
</text>
</g>
<g>
<text x="281" y="316">
o
</text>
</g>
<g>
<text x="281" y="396">
o
</text>
</g>
<g>
<text x="281" y="476">
o
</text>
</g>
<g>
<text x="281" y="556">
o
</text>
</g>
<g>
<text x="297" y="140">
A
</text>
</g>
<g>
<text x="313" y="92">
M-APLE
</text>
</g>
<g>
<text x="313" y="108">
-TABLE
</text>
</g>
<g>
<text x="313" y="156">
o
</text>
</g>
<g>
<text x="313" y="236">
o
</text>
</g>
<g>
<text x="313" y="396">
o
</text>
</g>
<g>
<text x="313" y="476">
o
</text>
</g>
<g>
<text x="313" y="556">
o
</text>
</g>
<g>
<text x="329" y="76">
alignment
</text>
</g>
<g>
<text x="329" y="140">
B
</text>
</g>
<g>
<text x="345" y="156">
o
</text>
</g>
<g>
<text x="345" y="236">
o
</text>
</g>
<g>
<text x="345" y="316">
o
</text>
</g>
<g>
<text x="345" y="476">
o
</text>
</g>
<g>
<text x="345" y="556">
o
</text>
</g>
<g>
<text x="361" y="140">
L
</text>
</g>
<g>
<text x="377" y="156">
o
</text>
</g>
<g>
<text x="377" y="236">
o
</text>
</g>
<g>
<text x="377" y="316">
o
</text>
</g>
<g>
<text x="377" y="396">
o
</text>
</g>
<g>
<text x="377" y="556">
o
</text>
</g>
<g>
<text x="393" y="140">
E
</text>
</g>
<g>
<text x="409" y="76">
1
</text>
</g>
<g>
<text x="409" y="156">
o
</text>
</g>
<g>
<text x="409" y="236">
o
</text>
</g>
<g>
<text x="409" y="316">
o
</text>
</g>
<g>
<text x="409" y="396">
o
</text>
</g>
<g>
<text x="409" y="476">
o
</text>
</g>
<g>
<text x="409" y="556">
o
</text>
</g>
<g>
<text x="481" y="188">
M
</text>
</g>
<g>
<text x="481" y="268">
A
</text>
</g>
<g>
<text x="481" y="348">
P
</text>
</g>
<g>
<text x="481" y="428">
L
</text>
</g>
<g>
<text x="481" y="508">
E
</text>
</g>
<g>
<text x="489" y="236">
o
</text>
</g>
<g>
<text x="489" y="316">
o
</text>
</g>
<g>
<text x="489" y="396">
o
</text>
</g>
<g>
<text x="489" y="476">
o
</text>
</g>
<g>
<text x="489" y="556">
o
</text>
</g>
<g>
<text x="505" y="76">
Example
</text>
</g>
<g>
<text x="505" y="140">
T
</text>
</g>
<g>
<text x="521" y="156">
o
</text>
</g>
<g>
<text x="521" y="316">
o
</text>
</g>
<g>
<text x="521" y="396">
o
</text>
</g>
<g>
<text x="521" y="476">
o
</text>
</g>
<g>
<text x="521" y="556">
o
</text>
</g>
<g>
<text x="537" y="140">
A
</text>
</g>
<g>
<text x="553" y="92">
MAPLE
</text>
</g>
<g>
<text x="553" y="108">
TABLE
</text>
</g>
<g>
<text x="553" y="156">
o
</text>
</g>
<g>
<text x="553" y="236">
o
</text>
</g>
<g>
<text x="553" y="396">
o
</text>
</g>
<g>
<text x="553" y="476">
o
</text>
</g>
<g>
<text x="553" y="556">
o
</text>
</g>
<g>
<text x="569" y="76">
alignment
</text>
</g>
<g>
<text x="569" y="140">
B
</text>
</g>
<g>
<text x="585" y="156">
o
</text>
</g>
<g>
<text x="585" y="236">
o
</text>
</g>
<g>
<text x="585" y="316">
o
</text>
</g>
<g>
<text x="585" y="476">
o
</text>
</g>
<g>
<text x="585" y="556">
o
</text>
</g>
<g>
<text x="601" y="140">
L
</text>
</g>
<g>
<text x="617" y="156">
o
</text>
</g>
<g>
<text x="617" y="236">
o
</text>
</g>
<g>
<text x="617" y="316">
o
</text>
</g>
<g>
<text x="617" y="396">
o
</text>
</g>
<g>
<text x="617" y="556">
o
</text>
</g>
<g>
<text x="633" y="140">
E
</text>
</g>
<g>
<text x="649" y="76">
2
</text>
</g>
<g>
<text x="649" y="156">
o
</text>
</g>
<g>
<text x="649" y="236">
o
</text>
</g>
<g>
<text x="649" y="316">
o
</text>
</g>
<g>
<text x="649" y="396">
o
</text>
</g>
<g>
<text x="649" y="476">
o
</text>
</g>
<g>
<text x="649" y="556">
o
</text>
</g>
<g>
<line marker-end="url(#triangle)" marker-start="url(#open_circle)" x1="12" x2="12" y1="152" y2="220"/>
<line marker-end="url(#triangle)" marker-start="url(#open_circle)" x1="12" x2="36" y1="152" y2="152"/>
<line marker-end="url(#triangle)" marker-start="url(#open_circle)" x1="12" x2="46" y1="152" y2="220"/>
</g>
<g>
<line marker-end="url(#triangle)" marker-start="url(#open_circle)" x1="12" x2="12" y1="232" y2="300"/>
<line marker-end="url(#triangle)" marker-start="url(#open_circle)" x1="12" x2="36" y1="232" y2="232"/>
<line marker-end="url(#triangle)" marker-start="url(#open_circle)" x1="12" x2="46" y1="232" y2="300"/>
</g>
<g>
<line marker-end="url(#triangle)" marker-start="url(#open_circle)" x1="12" x2="12" y1="312" y2="380"/>
<line marker-end="url(#triangle)" marker-start="url(#open_circle)" x1="12" x2="36" y1="312" y2="312"/>
<line marker-end="url(#triangle)" marker-start="url(#open_circle)" x1="12" x2="46" y1="312" y2="380"/>
</g>
<g>
<line marker-end="url(#triangle)" marker-start="url(#open_circle)" x1="12" x2="12" y1="392" y2="460"/>
<line marker-end="url(#triangle)" marker-start="url(#open_circle)" x1="12" x2="36" y1="392" y2="392"/>
<line marker-end="url(#triangle)" marker-start="url(#open_circle)" x1="12" x2="46" y1="392" y2="460"/>
</g>
<g>
<line marker-end="url(#triangle)" marker-start="url(#open_circle)" x1="12" x2="12" y1="472" y2="540"/>
<line marker-end="url(#triangle)" marker-start="url(#open_circle)" x1="12" x2="36" y1="472" y2="472"/>
<line marker-end="url(#triangle)" marker-start="url(#open_circle)" x1="12" x2="46" y1="472" y2="540"/>
</g>
<g>
<line marker-end="url(#triangle)" marker-start="url(#open_circle)" x1="12" x2="36" y1="552" y2="552"/>
</g>
<g>
<line marker-start="url(#open_circle)" x1="44" x2="40" y1="152" y2="152"/>
<line marker-end="url(#triangle)" marker-start="url(#open_circle)" x1="44" x2="44" y1="152" y2="220"/>
<line marker-end="url(#triangle)" marker-start="url(#open_circle)" x1="44" x2="68" y1="152" y2="152"/>
<line marker-end="url(#triangle)" marker-start="url(#open_circle)" x1="44" x2="78" y1="152" y2="220"/>
</g>
<g>
<line marker-start="url(#open_circle)" x1="44" x2="40" y1="232" y2="232"/>
<line marker-end="url(#triangle)" marker-start="url(#open_circle)" x1="44" x2="44" y1="232" y2="300"/>
<line marker-end="url(#triangle)" marker-start="url(#open_circle)" x1="44" x2="68" y1="232" y2="232"/>
<line marker-end="url(#triangle)" marker-start="url(#open_circle)" x1="44" x2="78" y1="232" y2="300"/>
</g>
<g>
<line marker-start="url(#open_circle)" x1="44" x2="40" y1="312" y2="312"/>
<line marker-end="url(#triangle)" marker-start="url(#open_circle)" x1="44" x2="44" y1="312" y2="380"/>
<line marker-end="url(#triangle)" marker-start="url(#open_circle)" x1="44" x2="68" y1="312" y2="312"/>
<line marker-end="url(#triangle)" marker-start="url(#open_circle)" x1="44" x2="78" y1="312" y2="380"/>
</g>
<g>
<line marker-start="url(#open_circle)" x1="44" x2="40" y1="392" y2="392"/>
<line marker-end="url(#triangle)" marker-start="url(#open_circle)" x1="44" x2="44" y1="392" y2="460"/>
<line marker-end="url(#triangle)" marker-start="url(#open_circle)" x1="44" x2="68" y1="392" y2="392"/>
<line marker-end="url(#triangle)" marker-start="url(#open_circle)" x1="44" x2="78" y1="392" y2="460"/>
</g>
<g>
<line marker-start="url(#open_circle)" x1="44" x2="40" y1="472" y2="472"/>
<line marker-end="url(#triangle)" marker-start="url(#open_circle)" x1="44" x2="44" y1="472" y2="540"/>
<line marker-end="url(#triangle)" marker-start="url(#open_circle)" x1="44" x2="68" y1="472" y2="472"/>
<line marker-end="url(#triangle)" marker-start="url(#open_circle)" x1="44" x2="78" y1="472" y2="540"/>
</g>
<g>
<line marker-start="url(#open_circle)" x1="44" x2="40" y1="552" y2="552"/>
<line marker-end="url(#triangle)" marker-start="url(#open_circle)" x1="44" x2="68" y1="552" y2="552"/>
</g>
<g>
<line marker-start="url(#open_circle)" x1="76" x2="72" y1="152" y2="152"/>
<line marker-end="url(#triangle)" marker-start="url(#open_circle)" x1="76" x2="76" y1="152" y2="220"/>
<line marker-end="url(#triangle)" marker-start="url(#open_circle)" x1="76" x2="100" y1="152" y2="152"/>
<line marker-end="url(#triangle)" marker-start="url(#open_circle)" x1="76" x2="110" y1="152" y2="220"/>
</g>
<g>
<line marker-start="url(#open_circle)" x1="76" x2="72" y1="232" y2="232"/>
<line marker-end="url(#triangle)" marker-start="url(#open_circle)" x1="76" x2="76" y1="232" y2="300"/>
<line marker-end="url(#triangle)" marker-start="url(#open_circle)" x1="76" x2="100" y1="232" y2="232"/>
<line marker-end="url(#triangle)" marker-start="url(#open_circle)" x1="76" x2="110" y1="232" y2="300"/>
</g>
<g>
<line marker-start="url(#open_circle)" x1="76" x2="72" y1="312" y2="312"/>
<line marker-end="url(#triangle)" marker-start="url(#open_circle)" x1="76" x2="76" y1="312" y2="380"/>
<line marker-end="url(#triangle)" marker-start="url(#open_circle)" x1="76" x2="100" y1="312" y2="312"/>
<line marker-end="url(#triangle)" marker-start="url(#open_circle)" x1="76" x2="110" y1="312" y2="380"/>
</g>
<g>
<line marker-start="url(#open_circle)" x1="76" x2="72" y1="392" y2="392"/>
<line marker-end="url(#triangle)" marker-start="url(#open_circle)" x1="76" x2="76" y1="392" y2="460"/>
<line marker-end="url(#triangle)" marker-start="url(#open_circle)" x1="76" x2="100" y1="392" y2="392"/>
<line marker-end="url(#triangle)" marker-start="url(#open_circle)" x1="76" x2="110" y1="392" y2="460"/>
</g>
<g>
<line marker-start="url(#open_circle)" x1="76" x2="72" y1="472" y2="472"/>
<line marker-end="url(#triangle)" marker-start="url(#open_circle)" x1="76" x2="76" y1="472" y2="540"/>
<line marker-end="url(#triangle)" marker-start="url(#open_circle)" x1="76" x2="100" y1="472" y2="472"/>
<line marker-end="url(#triangle)" marker-start="url(#open_circle)" x1="76" x2="110" y1="472" y2="540"/>
</g>
<g>
<line marker-start="url(#open_circle)" x1="76" x2="72" y1="552" y2="552"/>
<line marker-end="url(#triangle)" marker-start="url(#open_circle)" x1="76" x2="100" y1="552" y2="552"/>
</g>
<g>
<line marker-start="url(#open_circle)" x1="108" x2="104" y1="152" y2="152"/>
<line marker-end="url(#triangle)" marker-start="url(#open_circle)" x1="108" x2="108" y1="152" y2="220"/>
<line marker-end="url(#triangle)" marker-start="url(#open_circle)" x1="108" x2="132" y1="152" y2="152"/>
<line marker-end="url(#triangle)" marker-start="url(#open_circle)" x1="108" x2="142" y1="152" y2="220"/>
</g>
<g>
<line marker-start="url(#open_circle)" x1="108" x2="104" y1="232" y2="232"/>
<line marker-end="url(#triangle)" marker-start="url(#open_circle)" x1="108" x2="108" y1="232" y2="300"/>
<line marker-end="url(#triangle)" marker-start="url(#open_circle)" x1="108" x2="132" y1="232" y2="232"/>
<line marker-end="url(#triangle)" marker-start="url(#open_circle)" x1="108" x2="142" y1="232" y2="300"/>
</g>
<g>
<line marker-start="url(#open_circle)" x1="108" x2="104" y1="312" y2="312"/>
<line marker-end="url(#triangle)" marker-start="url(#open_circle)" x1="108" x2="108" y1="312" y2="380"/>
<line marker-end="url(#triangle)" marker-start="url(#open_circle)" x1="108" x2="132" y1="312" y2="312"/>
<line marker-end="url(#triangle)" marker-start="url(#open_circle)" x1="108" x2="142" y1="312" y2="380"/>
</g>
<g>
<line marker-start="url(#open_circle)" x1="108" x2="104" y1="392" y2="392"/>
<line marker-end="url(#triangle)" marker-start="url(#open_circle)" x1="108" x2="108" y1="392" y2="460"/>
<line marker-end="url(#triangle)" marker-start="url(#open_circle)" x1="108" x2="132" y1="392" y2="392"/>
<line marker-end="url(#triangle)" marker-start="url(#open_circle)" x1="108" x2="142" y1="392" y2="460"/>
</g>
<g>
<line marker-start="url(#open_circle)" x1="108" x2="104" y1="472" y2="472"/>
<line marker-end="url(#triangle)" marker-start="url(#open_circle)" x1="108" x2="108" y1="472" y2="540"/>
<line marker-end="url(#triangle)" marker-start="url(#open_circle)" x1="108" x2="132" y1="472" y2="472"/>
<line marker-end="url(#triangle)" marker-start="url(#open_circle)" x1="108" x2="142" y1="472" y2="540"/>
</g>
<g>
<line marker-start="url(#open_circle)" x1="108" x2="104" y1="552" y2="552"/>
<line marker-end="url(#triangle)" marker-start="url(#open_circle)" x1="108" x2="132" y1="552" y2="552"/>
</g>
<g>
<line marker-start="url(#open_circle)" x1="140" x2="136" y1="152" y2="152"/>
<line marker-end="url(#triangle)" marker-start="url(#open_circle)" x1="140" x2="140" y1="152" y2="220"/>
<line marker-end="url(#triangle)" marker-start="url(#open_circle)" x1="140" x2="164" y1="152" y2="152"/>
<line marker-end="url(#triangle)" marker-start="url(#open_circle)" x1="140" x2="174" y1="152" y2="220"/>
</g>
<g>
<line marker-start="url(#open_circle)" x1="140" x2="136" y1="232" y2="232"/>
<line marker-end="url(#triangle)" marker-start="url(#open_circle)" x1="140" x2="140" y1="232" y2="300"/>
<line marker-end="url(#triangle)" marker-start="url(#open_circle)" x1="140" x2="164" y1="232" y2="232"/>
<line marker-end="url(#triangle)" marker-start="url(#open_circle)" x1="140" x2="174" y1="232" y2="300"/>
</g>
<g>
<line marker-start="url(#open_circle)" x1="140" x2="136" y1="312" y2="312"/>
<line marker-end="url(#triangle)" marker-start="url(#open_circle)" x1="140" x2="140" y1="312" y2="380"/>
<line marker-end="url(#triangle)" marker-start="url(#open_circle)" x1="140" x2="164" y1="312" y2="312"/>
<line marker-end="url(#triangle)" marker-start="url(#open_circle)" x1="140" x2="174" y1="312" y2="380"/>
</g>
<g>
<line marker-start="url(#open_circle)" x1="140" x2="136" y1="392" y2="392"/>
<line marker-end="url(#triangle)" marker-start="url(#open_circle)" x1="140" x2="140" y1="392" y2="460"/>
<line marker-end="url(#triangle)" marker-start="url(#open_circle)" x1="140" x2="164" y1="392" y2="392"/>
<line marker-end="url(#triangle)" marker-start="url(#open_circle)" x1="140" x2="174" y1="392" y2="460"/>
</g>
<g>
<line marker-start="url(#open_circle)" x1="140" x2="136" y1="472" y2="472"/>
<line marker-end="url(#triangle)" marker-start="url(#open_circle)" x1="140" x2="140" y1="472" y2="540"/>
<line marker-end="url(#triangle)" marker-start="url(#open_circle)" x1="140" x2="164" y1="472" y2="472"/>
<line marker-end="url(#triangle)" marker-start="url(#open_circle)" x1="140" x2="174" y1="472" y2="540"/>
</g>
<g>
<line marker-start="url(#open_circle)" x1="140" x2="136" y1="552" y2="552"/>
<line marker-end="url(#triangle)" marker-start="url(#open_circle)" x1="140" x2="164" y1="552" y2="552"/>
</g>
<g>
<line marker-start="url(#open_circle)" x1="172" x2="168" y1="152" y2="152"/>
<line marker-end="url(#triangle)" marker-start="url(#open_circle)" x1="172" x2="172" y1="152" y2="220"/>
</g>
<g>
<line marker-start="url(#open_circle)" x1="172" x2="168" y1="232" y2="232"/>
<line marker-end="url(#triangle)" marker-start="url(#open_circle)" x1="172" x2="172" y1="232" y2="300"/>
</g>
<g>
<line marker-start="url(#open_circle)" x1="172" x2="168" y1="312" y2="312"/>
<line marker-end="url(#triangle)" marker-start="url(#open_circle)" x1="172" x2="172" y1="312" y2="380"/>
</g>
<g>
<line marker-start="url(#open_circle)" x1="172" x2="168" y1="392" y2="392"/>
<line marker-end="url(#triangle)" marker-start="url(#open_circle)" x1="172" x2="172" y1="392" y2="460"/>
</g>
<g>
<line marker-start="url(#open_circle)" x1="172" x2="168" y1="472" y2="472"/>
<line marker-end="url(#triangle)" marker-start="url(#open_circle)" x1="172" x2="172" y1="472" y2="540"/>
</g>
<g>
<line marker-start="url(#open_circle)" x1="172" x2="168" y1="552" y2="552"/>
</g>
<g>
<line marker-end="url(#triangle)" marker-start="url(#open_circle)" x1="252" x2="252" y1="152" y2="220"/>
</g>
<g>
<line marker-end="url(#triangle)" marker-start="url(#open_circle)" x1="252" x2="276" y1="232" y2="232"/>
</g>
<g>
<line marker-start="url(#open_circle)" x1="284" x2="280" y1="232" y2="232"/>
<line marker-end="url(#triangle)" marker-start="url(#open_circle)" x1="284" x2="318" y1="232" y2="300"/>
</g>
<g>
<line marker-end="url(#triangle)" marker-start="url(#open_circle)" x1="316" x2="350" y1="312" y2="380"/>
</g>
<g>
<line marker-end="url(#triangle)" marker-start="url(#open_circle)" x1="348" x2="382" y1="392" y2="460"/>
</g>
<g>
<line marker-end="url(#triangle)" marker-start="url(#open_circle)" x1="380" x2="414" y1="472" y2="540"/>
</g>
<g>
<line marker-end="url(#triangle)" marker-start="url(#open_circle)" x1="492" x2="526" y1="152" y2="220"/>
</g>
<g>
<line marker-end="url(#triangle)" marker-start="url(#open_circle)" x1="524" x2="558" y1="232" y2="300"/>
</g>
<g>
<line marker-end="url(#triangle)" marker-start="url(#open_circle)" x1="556" x2="590" y1="312" y2="380"/>
</g>
<g>
<line marker-end="url(#triangle)" marker-start="url(#open_circle)" x1="588" x2="622" y1="392" y2="460"/>
</g>
<g>
<line marker-end="url(#triangle)" marker-start="url(#open_circle)" x1="620" x2="654" y1="472" y2="540"/>
</g>
</svg>
