<svg class="bob" font-family="arial" font-size="14" height="272" width="352" xmlns="http://www.w3.org/2000/svg">
<defs>
<marker id="triangle" markerHeight="8" markerWidth="8" orient="auto" refX="4" refY="2" viewBox="0 0 8 4">
<polygon class="fg_fill" points="0,0 0,4 8,2 0,0"/>
</marker>
<marker id="clear_triangle" markerHeight="10" markerWidth="10" orient="auto" refX="1" refY="7" viewBox="0 0 20 14">
<polygon class="bg_fill" points="2,2 2,12 18,7 2,2"/>
</marker>
<marker id="circle" markerHeight="5" markerWidth="5" orient="auto" refX="10" refY="10" viewBox="0 0 20 20">
<circle class="fg_fill" cx="10" cy="10" r="8"/>
</marker>
<marker id="square" markerHeight="5" markerWidth="5" orient="auto" refX="10" refY="10" viewBox="0 0 20 20">
<rect class="fg_fill" height="20" width="20" x="0" y="0"/>
</marker>
<marker id="open_circle" markerHeight="10" markerWidth="10" orient="auto" refX="10" refY="10" viewBox="0 0 20 20">
<circle class="bg_fill" cx="10" cy="10" r="4"/>
</marker>
<marker id="big_open_circle" markerHeight="20" markerWidth="20" orient="auto" refX="20" refY="20" viewBox="0 0 40 40">
<circle class="bg_fill" cx="20" cy="20" r="6"/>
</marker>
</defs>
<style type="text/css">

rect.backdrop {
    fill: white;
}
text{
    fill: black;
}

circle {
    fill: none;
    stroke: black;
    stroke-width: 2;
}

line {
    stroke: black;
    stroke-width: 2;
    stroke-opacity: 1;
    fill-opacity: 1;
    stroke-linecap: round;
    stroke-linejoin: miter;
}

path {
    fill: none;
    stroke: black;
    stroke-width: 2;
    stroke-opacity: 1;
    fill-opacity: 1;
    stroke-linecap: round;
    stroke-linejoin: miter;
}

line.dashed {
    stroke-dasharray: 5;
}

.fg_fill {
    fill: black;
}


.bg_fill {
    fill: white;
    stroke: black;
    stroke-width: 2;
}

tspan.head{
    fill: none;
    stroke: none;
}
    
</style>
<rect class="backdrop" height="272" width="352" x="0" y="0"/>
<g>
<line marker-end="url(#triangle)" x1="8" x2="28" y1="72" y2="72"/>
<path d="M 8 72 A 4 4 0 0 0 4 76"/>
<line marker-end="url(#open_circle)" x1="4" x2="4" y1="76" y2="200"/>
<line marker-start="url(#open_circle)" x1="4" x2="4" y1="200" y2="228"/>
<line marker-end="url(#triangle)" marker-start="url(#open_circle)" x1="4" x2="28" y1="200" y2="200"/>
</g>
<g>
<line marker-end="url(#triangle)" x1="8" x2="28" y1="168" y2="168"/>
</g>
<g>
<line marker-end="url(#triangle)" x1="8" x2="28" y1="232" y2="232"/>
<path d="M 4 228 A 4 4 0 0 0 8 232"/>
</g>
<g>
<line marker-start="url(#circle)" x1="36" x2="32" y1="72" y2="72"/>
<line marker-end="url(#triangle)" marker-start="url(#circle)" x1="36" x2="60" y1="72" y2="72"/>
</g>
<g>
<line marker-end="url(#circle)" x1="36" x2="36" y1="140" y2="168"/>
<line marker-start="url(#circle)" x1="36" x2="32" y1="168" y2="168"/>
<line marker-end="url(#triangle)" marker-start="url(#circle)" x1="36" x2="60" y1="168" y2="168"/>
<path d="M 40 136 A 4 4 0 0 0 36 140"/>
</g>
<g>
<line marker-start="url(#circle)" x1="36" x2="32" y1="200" y2="200"/>
</g>
<g>
<line marker-end="url(#triangle)" x1="40" x2="60" y1="136" y2="136"/>
</g>
<g>
<line marker-start="url(#circle)" x1="68" x2="64" y1="72" y2="72"/>
<line marker-end="url(#triangle)" marker-start="url(#circle)" x1="68" x2="92" y1="72" y2="72"/>
</g>
<g>
<line marker-start="url(#circle)" x1="68" x2="64" y1="136" y2="136"/>
<line marker-end="url(#triangle)" marker-start="url(#circle)" x1="68" x2="92" y1="136" y2="136"/>
</g>
<g>
<line marker-start="url(#circle)" x1="68" x2="64" y1="168" y2="168"/>
</g>
<g>
<line marker-end="url(#triangle)" x1="72" x2="92" y1="264" y2="264"/>
<path d="M 68 260 A 4 4 0 0 0 72 264"/>
<line marker-start="url(#open_circle)" x1="68" x2="68" y1="232" y2="260"/>
<line marker-end="url(#triangle)" marker-start="url(#open_circle)" x1="68" x2="92" y1="232" y2="232"/>
</g>
<g>
<line marker-start="url(#circle)" x1="100" x2="96" y1="72" y2="72"/>
<line marker-end="url(#triangle)" marker-start="url(#circle)" x1="100" x2="124" y1="72" y2="72"/>
</g>
<g>
<line marker-end="url(#circle)" x1="100" x2="100" y1="108" y2="136"/>
<line marker-start="url(#circle)" x1="100" x2="96" y1="136" y2="136"/>
<line marker-end="url(#triangle)" marker-start="url(#circle)" x1="100" x2="124" y1="136" y2="136"/>
<path d="M 104 104 A 4 4 0 0 0 100 108"/>
</g>
<g>
<line marker-start="url(#circle)" x1="100" x2="96" y1="232" y2="232"/>
</g>
<g>
<line marker-end="url(#triangle)" x1="104" x2="124" y1="104" y2="104"/>
</g>
<g>
<line marker-start="url(#circle)" x1="132" x2="128" y1="72" y2="72"/>
<line marker-end="url(#triangle)" marker-start="url(#circle)" x1="132" x2="156" y1="72" y2="72"/>
</g>
<g>
<line marker-start="url(#circle)" x1="132" x2="128" y1="104" y2="104"/>
<line marker-end="url(#triangle)" marker-start="url(#circle)" x1="132" x2="156" y1="104" y2="104"/>
</g>
<g>
<line marker-start="url(#circle)" x1="132" x2="128" y1="136" y2="136"/>
</g>
<g>
<line marker-start="url(#circle)" x1="132" x2="128" y1="264" y2="264"/>
<line marker-end="url(#triangle)" marker-start="url(#circle)" x1="132" x2="156" y1="264" y2="264"/>
</g>
<g>
<line marker-start="url(#circle)" x1="164" x2="160" y1="72" y2="72"/>
<line marker-end="url(#triangle)" marker-start="url(#circle)" x1="164" x2="188" y1="72" y2="72"/>
</g>
<g>
<line marker-start="url(#circle)" x1="164" x2="160" y1="104" y2="104"/>
<line marker-end="url(#triangle)" marker-start="url(#circle)" x1="164" x2="188" y1="104" y2="104"/>
</g>
<g>
<line marker-start="url(#circle)" x1="164" x2="160" y1="264" y2="264"/>
</g>
<g>
<line marker-start="url(#circle)" x1="196" x2="192" y1="72" y2="72"/>
<line marker-end="url(#triangle)" marker-start="url(#circle)" x1="196" x2="220" y1="72" y2="72"/>
</g>
<g>
<line marker-start="url(#circle)" x1="196" x2="192" y1="104" y2="104"/>
</g>
<g>
<line marker-start="url(#circle)" x1="228" x2="224" y1="72" y2="72"/>
</g>
<g>
<text x="1" y="12">
*
</text>
</g>
<g>
<text x="17" y="12">
Search for nan in banana
</text>
</g>
<g>
<text x="17" y="28">
(path for nan denoted by unfilled nodes)
</text>
</g>
<g>
<text x="17" y="60">
b
</text>
</g>
<g>
<text x="17" y="156">
a
</text>
</g>
<g>
<text x="17" y="188">
¶
</text>
</g>
<g>
<text x="17" y="220">
n
</text>
</g>
<g>
<text x="49" y="60">
a
</text>
</g>
<g>
<text x="49" y="124">
n
</text>
</g>
<g>
<text x="49" y="156">
¶
</text>
</g>
<g>
<text x="49" y="220">
a
</text>
</g>
<g>
<text x="81" y="60">
n
</text>
</g>
<g>
<text x="81" y="124">
a
</text>
</g>
<g>
<text x="81" y="220">
¶
</text>
</g>
<g>
<text x="81" y="252">
n
</text>
</g>
<g>
<text x="113" y="60">
a
</text>
</g>
<g>
<text x="113" y="92">
n
</text>
</g>
<g>
<text x="113" y="124">
¶
</text>
</g>
<g>
<text x="113" y="252">
a
</text>
</g>
<g>
<text x="145" y="60">
n
</text>
</g>
<g>
<text x="145" y="92">
a
</text>
</g>
<g>
<text x="145" y="252">
¶
</text>
</g>
<g>
<text x="177" y="60">
a
</text>
</g>
<g>
<text x="177" y="92">
¶
</text>
</g>
<g>
<text x="209" y="60">
¶
</text>
</g>
<g>
<line marker-start="url(#open_circle)" x1="36" x2="32" y1="232" y2="232"/>
<line marker-end="url(#triangle)" marker-start="url(#open_circle)" x1="36" x2="60" y1="232" y2="232"/>
</g>
<g>
<line marker-start="url(#open_circle)" x1="68" x2="64" y1="232" y2="232"/>
</g>
<g>
<line marker-start="url(#open_circle)" x1="100" x2="96" y1="264" y2="264"/>
<line marker-end="url(#triangle)" marker-start="url(#open_circle)" x1="100" x2="124" y1="264" y2="264"/>
</g>
</svg>
