<svg class="bob" font-family="arial" font-size="14" height="304" width="336" xmlns="http://www.w3.org/2000/svg">
<defs>
<marker id="triangle" markerHeight="8" markerWidth="8" orient="auto" refX="4" refY="2" viewBox="0 0 8 4">
<polygon class="fg_fill" points="0,0 0,4 8,2 0,0"/>
</marker>
<marker id="clear_triangle" markerHeight="10" markerWidth="10" orient="auto" refX="1" refY="7" viewBox="0 0 20 14">
<polygon class="bg_fill" points="2,2 2,12 18,7 2,2"/>
</marker>
<marker id="circle" markerHeight="5" markerWidth="5" orient="auto" refX="10" refY="10" viewBox="0 0 20 20">
<circle class="fg_fill" cx="10" cy="10" r="8"/>
</marker>
<marker id="square" markerHeight="5" markerWidth="5" orient="auto" refX="10" refY="10" viewBox="0 0 20 20">
<rect class="fg_fill" height="20" width="20" x="0" y="0"/>
</marker>
<marker id="open_circle" markerHeight="10" markerWidth="10" orient="auto" refX="10" refY="10" viewBox="0 0 20 20">
<circle class="bg_fill" cx="10" cy="10" r="4"/>
</marker>
<marker id="big_open_circle" markerHeight="20" markerWidth="20" orient="auto" refX="20" refY="20" viewBox="0 0 40 40">
<circle class="bg_fill" cx="20" cy="20" r="6"/>
</marker>
</defs>
<style type="text/css">

rect.backdrop {
    fill: white;
}
text{
    fill: black;
}

circle {
    fill: none;
    stroke: black;
    stroke-width: 2;
}

line {
    stroke: black;
    stroke-width: 2;
    stroke-opacity: 1;
    fill-opacity: 1;
    stroke-linecap: round;
    stroke-linejoin: miter;
}

path {
    fill: none;
    stroke: black;
    stroke-width: 2;
    stroke-opacity: 1;
    fill-opacity: 1;
    stroke-linecap: round;
    stroke-linejoin: miter;
}

line.dashed {
    stroke-dasharray: 5;
}

.fg_fill {
    fill: black;
}


.bg_fill {
    fill: white;
    stroke: black;
    stroke-width: 2;
}

tspan.head{
    fill: none;
    stroke: none;
}
    
</style>
<rect class="backdrop" height="304" width="336" x="0" y="0"/>
<g>
<line x1="4" x2="4" y1="168" y2="200"/>
<line x1="4" x2="20" y1="168" y2="168"/>
<line x1="4" x2="20" y1="200" y2="200"/>
<line x1="20" x2="20" y1="136" y2="168"/>
<line x1="20" x2="36" y1="168" y2="168"/>
<line marker-end="url(#triangle)" x1="20" x2="20" y1="200" y2="252"/>
<line x1="20" x2="36" y1="200" y2="200"/>
<line x1="36" x2="36" y1="168" y2="184"/>
<line x1="36" x2="36" y1="184" y2="200"/>
<line marker-end="url(#triangle)" x1="36" x2="84" y1="184" y2="184"/>
<line x1="42" x2="20" y1="92" y2="136"/>
<path d="M 48 88 A 8 8 0 0 0 42 92"/>
</g>
<g>
<line x1="4" x2="4" y1="264" y2="296"/>
<line x1="4" x2="44" y1="264" y2="264"/>
<line x1="4" x2="52" y1="296" y2="296"/>
<line x1="44" x2="44" y1="236" y2="264"/>
<line x1="44" x2="52" y1="264" y2="264"/>
<line x1="52" x2="52" y1="264" y2="296"/>
<path d="M 46 228 A 16 16 0 0 0 44 236"/>
</g>
<g>
<line marker-end="url(#triangle)" x1="48" x2="84" y1="88" y2="88"/>
</g>
<g>
<line x1="58" x2="46" y1="204" y2="228"/>
<path d="M 64 200 A 8 8 0 0 0 58 204"/>
</g>
<g>
<line marker-end="url(#triangle)" x1="64" x2="84" y1="200" y2="200"/>
</g>
<g>
<line x1="92" x2="92" y1="72" y2="104"/>
<line x1="92" x2="140" y1="72" y2="72"/>
<line x1="92" x2="116" y1="104" y2="104"/>
<line x1="116" x2="116" y1="104" y2="132"/>
<line x1="116" x2="140" y1="104" y2="104"/>
<line x1="140" x2="140" y1="72" y2="104"/>
<path d="M 116 132 A 4 4 0 0 0 120 136"/>
</g>
<g>
<line x1="92" x2="92" y1="168" y2="200"/>
<line x1="92" x2="140" y1="168" y2="168"/>
<line x1="92" x2="88" y1="200" y2="200"/>
<line x1="92" x2="140" y1="200" y2="200"/>
<line x1="140" x2="140" y1="168" y2="184"/>
<line x1="140" x2="140" y1="184" y2="200"/>
<line x1="140" x2="160" y1="184" y2="184"/>
</g>
<g>
<line x1="92" x2="92" y1="264" y2="296"/>
<line x1="92" x2="140" y1="264" y2="264"/>
<line x1="92" x2="140" y1="296" y2="296"/>
<line x1="140" x2="140" y1="264" y2="280"/>
<line x1="140" x2="140" y1="280" y2="296"/>
<line x1="140" x2="160" y1="280" y2="280"/>
<path d="M 160 280 A 8 8 0 0 0 166 276"/>
</g>
<g>
<line x1="120" x2="144" y1="136" y2="136"/>
<path d="M 148 140 A 4 4 0 0 0 144 136"/>
</g>
<g>
<line marker-end="url(#triangle)" x1="124" x2="124" y1="236" y2="252"/>
<path d="M 128 232 A 4 4 0 0 0 124 236"/>
</g>
<g>
<line x1="128" x2="144" y1="232" y2="232"/>
<path d="M 144 232 A 4 4 0 0 0 148 228"/>
</g>
<g>
<line x1="148" x2="148" y1="140" y2="144"/>
<line x1="148" x2="148" y1="144" y2="152"/>
<line x1="148" x2="152" y1="152" y2="160"/>
<line x1="152" x2="160" y1="160" y2="176"/>
<line x1="160" x2="164" y1="176" y2="176"/>
<line x1="164" x2="164" y1="176" y2="192"/>
<line x1="164" x2="160" y1="192" y2="192"/>
</g>
<g>
<line x1="148" x2="152" y1="216" y2="208"/>
<line x1="148" x2="148" y1="224" y2="216"/>
<line x1="148" x2="148" y1="228" y2="224"/>
<line x1="152" x2="160" y1="208" y2="192"/>
</g>
<g>
<line marker-end="url(#triangle)" x1="166" x2="198" y1="276" y2="212"/>
</g>
<g>
<line marker-end="url(#triangle)" x1="168" x2="180" y1="184" y2="184"/>
</g>
<g>
<line x1="188" x2="188" y1="168" y2="200"/>
<line x1="188" x2="236" y1="168" y2="168"/>
<line x1="188" x2="236" y1="200" y2="200"/>
<line x1="236" x2="236" y1="168" y2="184"/>
<line x1="236" x2="236" y1="184" y2="200"/>
<line marker-end="url(#triangle)" x1="236" x2="268" y1="184" y2="184"/>
</g>
<g>
<line x1="276" x2="276" y1="168" y2="200"/>
<line x1="276" x2="332" y1="168" y2="168"/>
<line x1="276" x2="332" y1="200" y2="200"/>
<line x1="332" x2="332" y1="168" y2="200"/>
</g>
<g>
<text x="17" y="188">
S
</text>
</g>
<g>
<text x="17" y="284">
D01
</text>
</g>
<g>
<text x="49" y="12">
Viterbi from [n]&#39;s perspective
</text>
</g>
<g>
<text x="105" y="92">
E10
</text>
</g>
<g>
<text x="105" y="188">
E11
</text>
</g>
<g>
<text x="105" y="284">
D11
</text>
</g>
<g>
<text x="113" y="60">
n
</text>
</g>
<g>
<text x="121" y="28">
(with T)
</text>
</g>
<g>
<text x="201" y="60">
?
</text>
</g>
<g>
<text x="201" y="188">
T
</text>
</g>
<g>
<text x="289" y="188">
SINK
</text>
</g>
</svg>
