<svg class="bob" font-family="arial" font-size="14" height="288" width="288" xmlns="http://www.w3.org/2000/svg">
<defs>
<marker id="triangle" markerHeight="8" markerWidth="8" orient="auto" refX="4" refY="2" viewBox="0 0 8 4">
<polygon class="fg_fill" points="0,0 0,4 8,2 0,0"/>
</marker>
<marker id="clear_triangle" markerHeight="10" markerWidth="10" orient="auto" refX="1" refY="7" viewBox="0 0 20 14">
<polygon class="bg_fill" points="2,2 2,12 18,7 2,2"/>
</marker>
<marker id="circle" markerHeight="5" markerWidth="5" orient="auto" refX="10" refY="10" viewBox="0 0 20 20">
<circle class="fg_fill" cx="10" cy="10" r="8"/>
</marker>
<marker id="square" markerHeight="5" markerWidth="5" orient="auto" refX="10" refY="10" viewBox="0 0 20 20">
<rect class="fg_fill" height="20" width="20" x="0" y="0"/>
</marker>
<marker id="open_circle" markerHeight="10" markerWidth="10" orient="auto" refX="10" refY="10" viewBox="0 0 20 20">
<circle class="bg_fill" cx="10" cy="10" r="4"/>
</marker>
<marker id="big_open_circle" markerHeight="20" markerWidth="20" orient="auto" refX="20" refY="20" viewBox="0 0 40 40">
<circle class="bg_fill" cx="20" cy="20" r="6"/>
</marker>
</defs>
<style type="text/css">

rect.backdrop {
    fill: white;
}
text{
    fill: black;
}

circle {
    fill: none;
    stroke: black;
    stroke-width: 2;
}

line {
    stroke: black;
    stroke-width: 2;
    stroke-opacity: 1;
    fill-opacity: 1;
    stroke-linecap: round;
    stroke-linejoin: miter;
}

path {
    fill: none;
    stroke: black;
    stroke-width: 2;
    stroke-opacity: 1;
    fill-opacity: 1;
    stroke-linecap: round;
    stroke-linejoin: miter;
}

line.dashed {
    stroke-dasharray: 5;
}

.fg_fill {
    fill: black;
}


.bg_fill {
    fill: white;
    stroke: black;
    stroke-width: 2;
}

tspan.head{
    fill: none;
    stroke: none;
}
    
</style>
<rect class="backdrop" height="288" width="288" x="0" y="0"/>
<g>
<line marker-end="url(#triangle)" x1="192" x2="188" y1="280" y2="280"/>
<line x1="192" x2="208" y1="280" y2="280"/>
<path d="M 208 280 A 8 8 0 0 0 214 276"/>
</g>
<g>
<line marker-end="url(#triangle)" x1="202" x2="186" y1="236" y2="268"/>
<path d="M 202 236 A 16 16 0 0 0 204 228"/>
</g>
<g>
<line x1="204" x2="204" y1="172" y2="228"/>
<path d="M 204 172 A 16 16 0 0 0 202 164"/>
<line marker-start="url(#open_circle)" x1="180" x2="202" y1="120" y2="164"/>
</g>
<g>
<line marker-end="url(#triangle)" x1="210" x2="186" y1="140" y2="188"/>
<path d="M 210 140 A 16 16 0 0 0 212 132"/>
</g>
<g>
<line x1="212" x2="212" y1="108" y2="132"/>
<path d="M 212 108 A 16 16 0 0 0 210 100"/>
<line marker-start="url(#open_circle)" x1="180" x2="210" y1="40" y2="100"/>
</g>
<g>
<line x1="214" x2="242" y1="44" y2="100"/>
<path d="M 214 44 A 8 8 0 0 0 208 40"/>
<path d="M 244 108 A 16 16 0 0 0 242 100"/>
<line marker-start="url(#open_circle)" x1="180" x2="208" y1="40" y2="40"/>
</g>
<g>
<line x1="214" x2="242" y1="276" y2="220"/>
<path d="M 242 220 A 16 16 0 0 0 244 212"/>
</g>
<g>
<line x1="244" x2="244" y1="108" y2="212"/>
</g>
<g>
<text x="1" y="12">
Column before:
</text>
</g>
<g>
<text x="1" y="76">
G
</text>
</g>
<g>
<text x="1" y="156">
A
</text>
</g>
<g>
<text x="1" y="236">
G
</text>
</g>
<g>
<text x="9" y="284">
o
</text>
</g>
<g>
<text x="169" y="12">
Column after:
</text>
</g>
<g>
<text x="169" y="76">
G
</text>
</g>
<g>
<text x="169" y="156">
A
</text>
</g>
<g>
<text x="169" y="236">
G
</text>
</g>
<g>
<text x="209" y="204">
AG
</text>
</g>
<g>
<text x="217" y="124">
GA
</text>
</g>
<g>
<text x="249" y="156">
GAG
</text>
</g>
<g>
<line marker-end="url(#triangle)" marker-start="url(#open_circle)" x1="12" x2="12" y1="40" y2="108"/>
</g>
<g>
<line marker-end="url(#triangle)" marker-start="url(#open_circle)" x1="12" x2="12" y1="120" y2="188"/>
</g>
<g>
<line marker-end="url(#triangle)" marker-start="url(#open_circle)" x1="12" x2="12" y1="200" y2="268"/>
</g>
<g>
<line marker-end="url(#triangle)" marker-start="url(#open_circle)" x1="180" x2="180" y1="40" y2="108"/>
</g>
<g>
<line marker-end="url(#triangle)" marker-start="url(#open_circle)" x1="180" x2="180" y1="120" y2="188"/>
</g>
<g>
<line marker-end="url(#triangle)" marker-start="url(#open_circle)" x1="180" x2="180" y1="200" y2="268"/>
</g>
<g>
<line marker-start="url(#open_circle)" x1="180" x2="184" y1="280" y2="280"/>
</g>
</svg>
