<svg class="bob" font-family="arial" font-size="14" height="176" width="616" xmlns="http://www.w3.org/2000/svg">
<defs>
<marker id="triangle" markerHeight="8" markerWidth="8" orient="auto" refX="4" refY="2" viewBox="0 0 8 4">
<polygon class="fg_fill" points="0,0 0,4 8,2 0,0"/>
</marker>
<marker id="clear_triangle" markerHeight="10" markerWidth="10" orient="auto" refX="1" refY="7" viewBox="0 0 20 14">
<polygon class="bg_fill" points="2,2 2,12 18,7 2,2"/>
</marker>
<marker id="circle" markerHeight="5" markerWidth="5" orient="auto" refX="10" refY="10" viewBox="0 0 20 20">
<circle class="fg_fill" cx="10" cy="10" r="8"/>
</marker>
<marker id="square" markerHeight="5" markerWidth="5" orient="auto" refX="10" refY="10" viewBox="0 0 20 20">
<rect class="fg_fill" height="20" width="20" x="0" y="0"/>
</marker>
<marker id="open_circle" markerHeight="10" markerWidth="10" orient="auto" refX="10" refY="10" viewBox="0 0 20 20">
<circle class="bg_fill" cx="10" cy="10" r="4"/>
</marker>
<marker id="big_open_circle" markerHeight="20" markerWidth="20" orient="auto" refX="20" refY="20" viewBox="0 0 40 40">
<circle class="bg_fill" cx="20" cy="20" r="6"/>
</marker>
</defs>
<style type="text/css">

rect.backdrop {
    fill: white;
}
text{
    fill: black;
}

circle {
    fill: none;
    stroke: black;
    stroke-width: 2;
}

line {
    stroke: black;
    stroke-width: 2;
    stroke-opacity: 1;
    fill-opacity: 1;
    stroke-linecap: round;
    stroke-linejoin: miter;
}

path {
    fill: none;
    stroke: black;
    stroke-width: 2;
    stroke-opacity: 1;
    fill-opacity: 1;
    stroke-linecap: round;
    stroke-linejoin: miter;
}

line.dashed {
    stroke-dasharray: 5;
}

.fg_fill {
    fill: black;
}


.bg_fill {
    fill: white;
    stroke: black;
    stroke-width: 2;
}

tspan.head{
    fill: none;
    stroke: none;
}
    
</style>
<rect class="backdrop" height="176" width="616" x="0" y="0"/>
<g>
<line x1="4" x2="4" y1="40" y2="168"/>
<line x1="4" x2="28" y1="40" y2="40"/>
<line x1="4" x2="28" y1="168" y2="168"/>
<line x1="28" x2="28" y1="40" y2="168"/>
<line x1="28" x2="60" y1="40" y2="40"/>
<line x1="28" x2="60" y1="168" y2="168"/>
<line x1="60" x2="60" y1="40" y2="168"/>
<line x1="60" x2="84" y1="40" y2="40"/>
<line x1="60" x2="84" y1="168" y2="168"/>
<line x1="84" x2="84" y1="40" y2="168"/>
</g>
<g>
<line x1="84" x2="144" y1="72" y2="72"/>
<path d="M 148 76 A 4 4 0 0 0 144 72"/>
</g>
<g>
<line x1="84" x2="128" y1="88" y2="88"/>
<path d="M 132 92 A 4 4 0 0 0 128 88"/>
</g>
<g>
<line x1="132" x2="132" y1="92" y2="148"/>
<path d="M 132 148 A 4 4 0 0 0 136 152"/>
</g>
<g>
<line marker-end="url(#triangle)" x1="136" x2="164" y1="152" y2="152"/>
</g>
<g>
<line x1="148" x2="148" y1="76" y2="132"/>
<path d="M 148 132 A 4 4 0 0 0 152 136"/>
</g>
<g>
<line marker-end="url(#triangle)" x1="152" x2="164" y1="136" y2="136"/>
</g>
<g>
<line x1="180" x2="180" y1="40" y2="168"/>
<line x1="180" x2="204" y1="40" y2="40"/>
<line x1="180" x2="204" y1="168" y2="168"/>
<line x1="204" x2="204" y1="40" y2="168"/>
<line x1="204" x2="236" y1="40" y2="40"/>
<line x1="204" x2="236" y1="168" y2="168"/>
<line x1="236" x2="236" y1="40" y2="168"/>
<line x1="236" x2="260" y1="40" y2="40"/>
<line x1="236" x2="260" y1="168" y2="168"/>
<line x1="260" x2="260" y1="40" y2="168"/>
</g>
<g>
<line x1="260" x2="304" y1="136" y2="136"/>
<path d="M 304 136 A 4 4 0 0 0 308 132"/>
</g>
<g>
<line x1="260" x2="320" y1="152" y2="152"/>
<path d="M 320 152 A 4 4 0 0 0 324 148"/>
</g>
<g>
<line x1="308" x2="308" y1="92" y2="132"/>
<path d="M 312 88 A 4 4 0 0 0 308 92"/>
</g>
<g>
<line marker-end="url(#triangle)" x1="312" x2="340" y1="88" y2="88"/>
</g>
<g>
<line x1="324" x2="324" y1="108" y2="148"/>
<path d="M 328 104 A 4 4 0 0 0 324 108"/>
</g>
<g>
<line marker-end="url(#triangle)" x1="328" x2="340" y1="104" y2="104"/>
</g>
<g>
<line x1="356" x2="356" y1="40" y2="168"/>
<line x1="356" x2="380" y1="40" y2="40"/>
<line x1="356" x2="380" y1="168" y2="168"/>
<line x1="380" x2="380" y1="40" y2="168"/>
<line x1="380" x2="412" y1="40" y2="40"/>
<line x1="380" x2="412" y1="168" y2="168"/>
<line x1="412" x2="412" y1="40" y2="168"/>
<line x1="412" x2="436" y1="40" y2="40"/>
<line x1="412" x2="436" y1="168" y2="168"/>
<line x1="436" x2="436" y1="40" y2="168"/>
</g>
<g>
<line x1="436" x2="496" y1="88" y2="88"/>
<path d="M 500 92 A 4 4 0 0 0 496 88"/>
</g>
<g>
<line x1="500" x2="500" y1="92" y2="148"/>
<path d="M 500 148 A 4 4 0 0 0 504 152"/>
</g>
<g>
<line marker-end="url(#triangle)" x1="504" x2="516" y1="152" y2="152"/>
</g>
<g>
<line x1="532" x2="532" y1="40" y2="168"/>
<line x1="532" x2="556" y1="40" y2="40"/>
<line x1="532" x2="556" y1="168" y2="168"/>
<line x1="556" x2="556" y1="40" y2="168"/>
<line x1="556" x2="588" y1="40" y2="40"/>
<line x1="556" x2="588" y1="168" y2="168"/>
<line x1="588" x2="588" y1="40" y2="168"/>
<line x1="588" x2="612" y1="40" y2="40"/>
<line x1="588" x2="612" y1="168" y2="168"/>
<line x1="612" x2="612" y1="40" y2="168"/>
</g>
<g>
<text x="1" y="12">
* nana occurs 1 time in banana¶ (at index 2)
</text>
</g>
<g>
<text x="9" y="60">
¶1
</text>
</g>
<g>
<text x="9" y="76">
a3
</text>
</g>
<g>
<text x="9" y="92">
a2
</text>
</g>
<g>
<text x="9" y="108">
a1
</text>
</g>
<g>
<text x="9" y="124">
b1
</text>
</g>
<g>
<text x="9" y="140">
n2
</text>
</g>
<g>
<text x="9" y="156">
n1
</text>
</g>
<g>
<text x="41" y="60">
6
</text>
</g>
<g>
<text x="41" y="76">
5
</text>
</g>
<g>
<text x="41" y="92">
3
</text>
</g>
<g>
<text x="41" y="108">
1
</text>
</g>
<g>
<text x="41" y="124">
0
</text>
</g>
<g>
<text x="41" y="140">
4
</text>
</g>
<g>
<text x="41" y="156">
2
</text>
</g>
<g>
<text x="65" y="60">
a3
</text>
</g>
<g>
<text x="65" y="76">
n2
</text>
</g>
<g>
<text x="65" y="92">
n1
</text>
</g>
<g>
<text x="65" y="108">
b1
</text>
</g>
<g>
<text x="65" y="124">
¶1
</text>
</g>
<g>
<text x="65" y="140">
a2
</text>
</g>
<g>
<text x="65" y="156">
a1
</text>
</g>
<g>
<text x="129" y="60">
na
</text>
</g>
<g>
<text x="185" y="60">
¶1
</text>
</g>
<g>
<text x="185" y="76">
a3
</text>
</g>
<g>
<text x="185" y="92">
a2
</text>
</g>
<g>
<text x="185" y="108">
a1
</text>
</g>
<g>
<text x="185" y="124">
b1
</text>
</g>
<g>
<text x="185" y="140">
n2
</text>
</g>
<g>
<text x="185" y="156">
n1
</text>
</g>
<g>
<text x="217" y="60">
6
</text>
</g>
<g>
<text x="217" y="76">
5
</text>
</g>
<g>
<text x="217" y="92">
3
</text>
</g>
<g>
<text x="217" y="108">
1
</text>
</g>
<g>
<text x="217" y="124">
0
</text>
</g>
<g>
<text x="217" y="140">
4
</text>
</g>
<g>
<text x="217" y="156">
2
</text>
</g>
<g>
<text x="241" y="60">
a3
</text>
</g>
<g>
<text x="241" y="76">
n2
</text>
</g>
<g>
<text x="241" y="92">
n1
</text>
</g>
<g>
<text x="241" y="108">
b1
</text>
</g>
<g>
<text x="241" y="124">
¶1
</text>
</g>
<g>
<text x="241" y="140">
a2
</text>
</g>
<g>
<text x="241" y="156">
a1
</text>
</g>
<g>
<text x="297" y="172">
ana
</text>
</g>
<g>
<text x="361" y="60">
¶1
</text>
</g>
<g>
<text x="361" y="76">
a3
</text>
</g>
<g>
<text x="361" y="92">
a2
</text>
</g>
<g>
<text x="361" y="108">
a1
</text>
</g>
<g>
<text x="361" y="124">
b1
</text>
</g>
<g>
<text x="361" y="140">
n2
</text>
</g>
<g>
<text x="361" y="156">
n1
</text>
</g>
<g>
<text x="393" y="60">
6
</text>
</g>
<g>
<text x="393" y="76">
5
</text>
</g>
<g>
<text x="393" y="92">
3
</text>
</g>
<g>
<text x="393" y="108">
1
</text>
</g>
<g>
<text x="393" y="124">
0
</text>
</g>
<g>
<text x="393" y="140">
4
</text>
</g>
<g>
<text x="393" y="156">
2
</text>
</g>
<g>
<text x="417" y="60">
a3
</text>
</g>
<g>
<text x="417" y="76">
n2
</text>
</g>
<g>
<text x="417" y="92">
n1
</text>
</g>
<g>
<text x="417" y="108">
b1
</text>
</g>
<g>
<text x="417" y="124">
¶1
</text>
</g>
<g>
<text x="417" y="140">
a2
</text>
</g>
<g>
<text x="417" y="156">
a1
</text>
</g>
<g>
<text x="465" y="76">
nana
</text>
</g>
<g>
<text x="537" y="60">
¶1
</text>
</g>
<g>
<text x="537" y="76">
a3
</text>
</g>
<g>
<text x="537" y="92">
a2
</text>
</g>
<g>
<text x="537" y="108">
a1
</text>
</g>
<g>
<text x="537" y="124">
b1
</text>
</g>
<g>
<text x="537" y="140">
n2
</text>
</g>
<g>
<text x="537" y="156">
n1
</text>
</g>
<g>
<text x="569" y="60">
6
</text>
</g>
<g>
<text x="569" y="76">
5
</text>
</g>
<g>
<text x="569" y="92">
3
</text>
</g>
<g>
<text x="569" y="108">
1
</text>
</g>
<g>
<text x="569" y="124">
0
</text>
</g>
<g>
<text x="569" y="140">
4
</text>
</g>
<g>
<text x="569" y="156">
2
</text>
</g>
<g>
<text x="593" y="60">
a3
</text>
</g>
<g>
<text x="593" y="76">
n2
</text>
</g>
<g>
<text x="593" y="92">
n1
</text>
</g>
<g>
<text x="593" y="108">
b1
</text>
</g>
<g>
<text x="593" y="124">
¶1
</text>
</g>
<g>
<text x="593" y="140">
a2
</text>
</g>
<g>
<text x="593" y="156">
a1
</text>
</g>
</svg>
