<svg class="bob" font-family="arial" font-size="14" height="160" width="288" xmlns="http://www.w3.org/2000/svg">
<defs>
<marker id="triangle" markerHeight="8" markerWidth="8" orient="auto" refX="4" refY="2" viewBox="0 0 8 4">
<polygon class="fg_fill" points="0,0 0,4 8,2 0,0"/>
</marker>
<marker id="clear_triangle" markerHeight="10" markerWidth="10" orient="auto" refX="1" refY="7" viewBox="0 0 20 14">
<polygon class="bg_fill" points="2,2 2,12 18,7 2,2"/>
</marker>
<marker id="circle" markerHeight="5" markerWidth="5" orient="auto" refX="10" refY="10" viewBox="0 0 20 20">
<circle class="fg_fill" cx="10" cy="10" r="8"/>
</marker>
<marker id="square" markerHeight="5" markerWidth="5" orient="auto" refX="10" refY="10" viewBox="0 0 20 20">
<rect class="fg_fill" height="20" width="20" x="0" y="0"/>
</marker>
<marker id="open_circle" markerHeight="10" markerWidth="10" orient="auto" refX="10" refY="10" viewBox="0 0 20 20">
<circle class="bg_fill" cx="10" cy="10" r="4"/>
</marker>
<marker id="big_open_circle" markerHeight="20" markerWidth="20" orient="auto" refX="20" refY="20" viewBox="0 0 40 40">
<circle class="bg_fill" cx="20" cy="20" r="6"/>
</marker>
</defs>
<style type="text/css">

rect.backdrop {
    fill: white;
}
text{
    fill: black;
}

circle {
    fill: none;
    stroke: black;
    stroke-width: 2;
}

line {
    stroke: black;
    stroke-width: 2;
    stroke-opacity: 1;
    fill-opacity: 1;
    stroke-linecap: round;
    stroke-linejoin: miter;
}

path {
    fill: none;
    stroke: black;
    stroke-width: 2;
    stroke-opacity: 1;
    fill-opacity: 1;
    stroke-linecap: round;
    stroke-linejoin: miter;
}

line.dashed {
    stroke-dasharray: 5;
}

.fg_fill {
    fill: black;
}


.bg_fill {
    fill: white;
    stroke: black;
    stroke-width: 2;
}

tspan.head{
    fill: none;
    stroke: none;
}
    
</style>
<rect class="backdrop" height="160" width="288" x="0" y="0"/>
<g>
<line x1="16" x2="32" y1="72" y2="72"/>
</g>
<g>
<line x1="48" x2="56" y1="64" y2="48"/>
</g>
<g>
<line x1="48" x2="56" y1="80" y2="96"/>
</g>
<g>
<line x1="120" x2="136" y1="72" y2="72"/>
</g>
<g>
<line x1="152" x2="160" y1="64" y2="48"/>
</g>
<g>
<line x1="152" x2="160" y1="80" y2="96"/>
</g>
<g>
<line x1="160" x2="176" y1="72" y2="72"/>
</g>
<g>
<line x1="248" x2="264" y1="72" y2="72"/>
</g>
<g>
<text x="1" y="76">
0
</text>
</g>
<g>
<text x="1" y="140">
*
</text>
</g>
<g>
<text x="1" y="156">
*
</text>
</g>
<g>
<text x="17" y="140">
Letter are internal nodes
</text>
</g>
<g>
<text x="17" y="156">
Numbers are leaf nodes
</text>
</g>
<g>
<text x="25" y="12">
YES
</text>
</g>
<g>
<text x="41" y="76">
a
</text>
</g>
<g>
<text x="57" y="44">
1
</text>
</g>
<g>
<text x="57" y="108">
2
</text>
</g>
<g>
<text x="105" y="76">
0
</text>
</g>
<g>
<text x="137" y="12">
NO
</text>
</g>
<g>
<text x="145" y="76">
a
</text>
</g>
<g>
<text x="161" y="44">
1
</text>
</g>
<g>
<text x="161" y="108">
2
</text>
</g>
<g>
<text x="185" y="76">
3
</text>
</g>
<g>
<text x="233" y="76">
0
</text>
</g>
<g>
<text x="241" y="12">
NO
</text>
</g>
<g>
<text x="273" y="76">
1
</text>
</g>
</svg>
