<svg class="bob" font-family="arial" font-size="14" height="240" width="264" xmlns="http://www.w3.org/2000/svg">
<defs>
<marker id="triangle" markerHeight="8" markerWidth="8" orient="auto" refX="4" refY="2" viewBox="0 0 8 4">
<polygon class="fg_fill" points="0,0 0,4 8,2 0,0"/>
</marker>
<marker id="clear_triangle" markerHeight="10" markerWidth="10" orient="auto" refX="1" refY="7" viewBox="0 0 20 14">
<polygon class="bg_fill" points="2,2 2,12 18,7 2,2"/>
</marker>
<marker id="circle" markerHeight="5" markerWidth="5" orient="auto" refX="10" refY="10" viewBox="0 0 20 20">
<circle class="fg_fill" cx="10" cy="10" r="8"/>
</marker>
<marker id="square" markerHeight="5" markerWidth="5" orient="auto" refX="10" refY="10" viewBox="0 0 20 20">
<rect class="fg_fill" height="20" width="20" x="0" y="0"/>
</marker>
<marker id="open_circle" markerHeight="10" markerWidth="10" orient="auto" refX="10" refY="10" viewBox="0 0 20 20">
<circle class="bg_fill" cx="10" cy="10" r="4"/>
</marker>
<marker id="big_open_circle" markerHeight="20" markerWidth="20" orient="auto" refX="20" refY="20" viewBox="0 0 40 40">
<circle class="bg_fill" cx="20" cy="20" r="6"/>
</marker>
</defs>
<style type="text/css">

rect.backdrop {
    fill: white;
}
text{
    fill: black;
}

circle {
    fill: none;
    stroke: black;
    stroke-width: 2;
}

line {
    stroke: black;
    stroke-width: 2;
    stroke-opacity: 1;
    fill-opacity: 1;
    stroke-linecap: round;
    stroke-linejoin: miter;
}

path {
    fill: none;
    stroke: black;
    stroke-width: 2;
    stroke-opacity: 1;
    fill-opacity: 1;
    stroke-linecap: round;
    stroke-linejoin: miter;
}

line.dashed {
    stroke-dasharray: 5;
}

.fg_fill {
    fill: black;
}


.bg_fill {
    fill: white;
    stroke: black;
    stroke-width: 2;
}

tspan.head{
    fill: none;
    stroke: none;
}
    
</style>
<rect class="backdrop" height="240" width="264" x="0" y="0"/>
<g>
<line x1="4" x2="4" y1="40" y2="72"/>
<line x1="4" x2="44" y1="40" y2="40"/>
<line x1="4" x2="20" y1="72" y2="72"/>
<line marker-end="url(#triangle)" x1="20" x2="20" y1="72" y2="188"/>
<line x1="20" x2="44" y1="72" y2="72"/>
<line x1="44" x2="44" y1="40" y2="56"/>
<line x1="44" x2="44" y1="56" y2="72"/>
<line marker-end="url(#triangle)" x1="44" x2="92" y1="56" y2="56"/>
<line marker-end="url(#triangle)" x1="44" x2="102" y1="72" y2="188"/>
</g>
<g>
<line x1="4" x2="4" y1="200" y2="232"/>
<line x1="4" x2="44" y1="200" y2="200"/>
<line x1="4" x2="44" y1="232" y2="232"/>
<line x1="44" x2="44" y1="200" y2="216"/>
<line x1="44" x2="44" y1="216" y2="232"/>
<line marker-end="url(#triangle)" x1="44" x2="92" y1="216" y2="216"/>
</g>
<g>
<line x1="100" x2="100" y1="40" y2="72"/>
<line x1="100" x2="140" y1="40" y2="40"/>
<line x1="100" x2="124" y1="72" y2="72"/>
<line marker-end="url(#triangle)" x1="124" x2="124" y1="72" y2="108"/>
<line x1="124" x2="140" y1="72" y2="72"/>
<line x1="140" x2="140" y1="40" y2="56"/>
<line x1="140" x2="140" y1="56" y2="72"/>
<line x1="140" x2="144" y1="56" y2="56"/>
<line class="dashed" x1="144" x2="216" y1="56" y2="56"/>
</g>
<g>
<line x1="100" x2="100" y1="120" y2="152"/>
<line x1="100" x2="140" y1="120" y2="120"/>
<line x1="100" x2="124" y1="152" y2="152"/>
<line x1="124" x2="124" y1="152" y2="164"/>
<line x1="124" x2="140" y1="152" y2="152"/>
<line x1="140" x2="140" y1="120" y2="136"/>
<line x1="140" x2="140" y1="136" y2="152"/>
<path d="M 124 164 A 4 4 0 0 0 128 168"/>
</g>
<g>
<line x1="100" x2="100" y1="200" y2="232"/>
<line x1="100" x2="124" y1="200" y2="200"/>
<line x1="100" x2="140" y1="232" y2="232"/>
<line x1="124" x2="124" y1="188" y2="200"/>
<line x1="124" x2="140" y1="200" y2="200"/>
<line x1="140" x2="140" y1="200" y2="216"/>
<line x1="140" x2="140" y1="216" y2="232"/>
<line x1="140" x2="144" y1="216" y2="216"/>
<line class="dashed" x1="144" x2="232" y1="216" y2="216"/>
<path d="M 128 184 A 4 4 0 0 0 124 188"/>
<path d="M 232 216 A 4 4 0 0 0 236 212"/>
</g>
<g>
<line marker-end="url(#triangle)" x1="128" x2="148" y1="168" y2="168"/>
</g>
<g>
<line marker-end="url(#triangle)" x1="128" x2="148" y1="184" y2="184"/>
</g>
<g>
<line x1="156" x2="156" y1="72" y2="80"/>
<line x1="156" x2="168" y1="72" y2="72"/>
<line class="dashed" x1="156" x2="156" y1="80" y2="96"/>
</g>
<g>
<line x1="156" x2="156" y1="104" y2="96"/>
<line x1="156" x2="168" y1="104" y2="104"/>
</g>
<g>
<line x1="156" x2="156" y1="152" y2="184"/>
<line x1="156" x2="172" y1="152" y2="152"/>
<line x1="156" x2="152" y1="184" y2="184"/>
<line x1="156" x2="188" y1="184" y2="184"/>
<line x1="172" x2="172" y1="128" y2="152"/>
<line x1="172" x2="188" y1="152" y2="152"/>
<line x1="188" x2="188" y1="152" y2="184"/>
</g>
<g>
<line marker-end="url(#triangle)" x1="172" x2="172" y1="128" y2="116"/>
</g>
<g>
<line x1="176" x2="188" y1="72" y2="72"/>
<line x1="188" x2="188" y1="72" y2="80"/>
<line class="dashed" x1="188" x2="188" y1="80" y2="96"/>
</g>
<g>
<line x1="176" x2="188" y1="104" y2="104"/>
<line x1="188" x2="188" y1="104" y2="96"/>
</g>
<g>
<line marker-end="url(#triangle)" x1="216" x2="220" y1="56" y2="56"/>
</g>
<g>
<line x1="228" x2="228" y1="40" y2="48"/>
<line x1="228" x2="240" y1="40" y2="40"/>
<line class="dashed" x1="228" x2="228" y1="48" y2="64"/>
</g>
<g>
<line x1="228" x2="228" y1="72" y2="64"/>
<line x1="228" x2="240" y1="72" y2="72"/>
</g>
<g>
<line marker-end="url(#triangle)" x1="236" x2="236" y1="96" y2="84"/>
<line class="dashed" x1="236" x2="236" y1="96" y2="208"/>
</g>
<g>
<line x1="236" x2="236" y1="212" y2="208"/>
</g>
<g>
<line x1="248" x2="260" y1="40" y2="40"/>
<line x1="260" x2="260" y1="40" y2="48"/>
<line class="dashed" x1="260" x2="260" y1="48" y2="64"/>
</g>
<g>
<line x1="248" x2="260" y1="72" y2="72"/>
<line x1="260" x2="260" y1="72" y2="64"/>
</g>
<g>
<text x="9" y="220">
D01
</text>
</g>
<g>
<text x="17" y="60">
S
</text>
</g>
<g>
<text x="25" y="12">
HMM from [n]&#39;s perspective
</text>
</g>
<g>
<text x="105" y="60">
E10
</text>
</g>
<g>
<text x="105" y="140">
D11
</text>
</g>
<g>
<text x="105" y="220">
E11
</text>
</g>
<g>
<text x="169" y="92">
?
</text>
</g>
<g>
<text x="169" y="172">
T
</text>
</g>
<g>
<text x="241" y="60">
n
</text>
</g>
</svg>
