<svg class="bob" font-family="arial" font-size="14" height="208" width="656" xmlns="http://www.w3.org/2000/svg">
<defs>
<marker id="triangle" markerHeight="8" markerWidth="8" orient="auto" refX="4" refY="2" viewBox="0 0 8 4">
<polygon class="fg_fill" points="0,0 0,4 8,2 0,0"/>
</marker>
<marker id="clear_triangle" markerHeight="10" markerWidth="10" orient="auto" refX="1" refY="7" viewBox="0 0 20 14">
<polygon class="bg_fill" points="2,2 2,12 18,7 2,2"/>
</marker>
<marker id="circle" markerHeight="5" markerWidth="5" orient="auto" refX="10" refY="10" viewBox="0 0 20 20">
<circle class="fg_fill" cx="10" cy="10" r="8"/>
</marker>
<marker id="square" markerHeight="5" markerWidth="5" orient="auto" refX="10" refY="10" viewBox="0 0 20 20">
<rect class="fg_fill" height="20" width="20" x="0" y="0"/>
</marker>
<marker id="open_circle" markerHeight="10" markerWidth="10" orient="auto" refX="10" refY="10" viewBox="0 0 20 20">
<circle class="bg_fill" cx="10" cy="10" r="4"/>
</marker>
<marker id="big_open_circle" markerHeight="20" markerWidth="20" orient="auto" refX="20" refY="20" viewBox="0 0 40 40">
<circle class="bg_fill" cx="20" cy="20" r="6"/>
</marker>
</defs>
<style type="text/css">

rect.backdrop {
    fill: white;
}
text{
    fill: black;
}

circle {
    fill: none;
    stroke: black;
    stroke-width: 2;
}

line {
    stroke: black;
    stroke-width: 2;
    stroke-opacity: 1;
    fill-opacity: 1;
    stroke-linecap: round;
    stroke-linejoin: miter;
}

path {
    fill: none;
    stroke: black;
    stroke-width: 2;
    stroke-opacity: 1;
    fill-opacity: 1;
    stroke-linecap: round;
    stroke-linejoin: miter;
}

line.dashed {
    stroke-dasharray: 5;
}

.fg_fill {
    fill: black;
}


.bg_fill {
    fill: white;
    stroke: black;
    stroke-width: 2;
}

tspan.head{
    fill: none;
    stroke: none;
}
    
</style>
<rect class="backdrop" height="208" width="656" x="0" y="0"/>
<g>
<line x1="4" x2="4" y1="12" y2="52"/>
<path d="M 4 52 A 4 4 0 0 0 8 56"/>
<path d="M 8 8 A 4 4 0 0 0 4 12"/>
</g>
<g>
<line x1="8" x2="104" y1="8" y2="8"/>
<path d="M 108 12 A 4 4 0 0 0 104 8"/>
</g>
<g>
<line x1="8" x2="40" y1="56" y2="56"/>
<path d="M 44 60 A 4 4 0 0 0 40 56"/>
</g>
<g>
<line x1="64" x2="104" y1="56" y2="56"/>
<path d="M 64 56 A 4 4 0 0 0 60 60"/>
<path d="M 104 56 A 4 4 0 0 0 108 52"/>
</g>
<g>
<line x1="108" x2="108" y1="12" y2="52"/>
</g>
<g>
<line x1="140" x2="140" y1="12" y2="52"/>
<path d="M 140 52 A 4 4 0 0 0 144 56"/>
<path d="M 144 8 A 4 4 0 0 0 140 12"/>
</g>
<g>
<line x1="144" x2="240" y1="8" y2="8"/>
<path d="M 244 12 A 4 4 0 0 0 240 8"/>
</g>
<g>
<line x1="144" x2="176" y1="56" y2="56"/>
<path d="M 180 60 A 4 4 0 0 0 176 56"/>
</g>
<g>
<line x1="188" x2="188" y1="80" y2="96"/>
</g>
<g>
<line x1="200" x2="240" y1="56" y2="56"/>
<path d="M 200 56 A 4 4 0 0 0 196 60"/>
<path d="M 240 56 A 4 4 0 0 0 244 52"/>
</g>
<g>
<line x1="244" x2="244" y1="12" y2="52"/>
</g>
<g>
<line x1="276" x2="276" y1="12" y2="52"/>
<path d="M 276 52 A 4 4 0 0 0 280 56"/>
<path d="M 280 8 A 4 4 0 0 0 276 12"/>
</g>
<g>
<line x1="280" x2="376" y1="8" y2="8"/>
<path d="M 380 12 A 4 4 0 0 0 376 8"/>
</g>
<g>
<line x1="280" x2="312" y1="56" y2="56"/>
<path d="M 316 60 A 4 4 0 0 0 312 56"/>
</g>
<g>
<line x1="324" x2="324" y1="80" y2="96"/>
</g>
<g>
<line x1="324" x2="324" y1="112" y2="128"/>
</g>
<g>
<line x1="336" x2="376" y1="56" y2="56"/>
<path d="M 336 56 A 4 4 0 0 0 332 60"/>
<path d="M 376 56 A 4 4 0 0 0 380 52"/>
</g>
<g>
<line x1="380" x2="380" y1="12" y2="52"/>
</g>
<g>
<line x1="412" x2="412" y1="12" y2="52"/>
<path d="M 412 52 A 4 4 0 0 0 416 56"/>
<path d="M 416 8 A 4 4 0 0 0 412 12"/>
</g>
<g>
<line x1="416" x2="512" y1="8" y2="8"/>
<path d="M 516 12 A 4 4 0 0 0 512 8"/>
</g>
<g>
<line x1="416" x2="448" y1="56" y2="56"/>
<path d="M 452 60 A 4 4 0 0 0 448 56"/>
</g>
<g>
<line x1="460" x2="460" y1="80" y2="96"/>
</g>
<g>
<line x1="460" x2="460" y1="112" y2="128"/>
</g>
<g>
<line x1="460" x2="460" y1="144" y2="160"/>
</g>
<g>
<line x1="472" x2="512" y1="56" y2="56"/>
<path d="M 472 56 A 4 4 0 0 0 468 60"/>
<path d="M 512 56 A 4 4 0 0 0 516 52"/>
</g>
<g>
<line x1="516" x2="516" y1="12" y2="52"/>
</g>
<g>
<line x1="548" x2="548" y1="12" y2="52"/>
<path d="M 548 52 A 4 4 0 0 0 552 56"/>
<path d="M 552 8 A 4 4 0 0 0 548 12"/>
</g>
<g>
<line x1="552" x2="648" y1="8" y2="8"/>
<path d="M 652 12 A 4 4 0 0 0 648 8"/>
</g>
<g>
<line x1="552" x2="584" y1="56" y2="56"/>
<path d="M 588 60 A 4 4 0 0 0 584 56"/>
</g>
<g>
<line x1="596" x2="596" y1="80" y2="96"/>
</g>
<g>
<line x1="596" x2="596" y1="112" y2="128"/>
</g>
<g>
<line x1="596" x2="596" y1="144" y2="160"/>
</g>
<g>
<line x1="596" x2="596" y1="176" y2="192"/>
</g>
<g>
<line x1="608" x2="648" y1="56" y2="56"/>
<path d="M 608 56 A 4 4 0 0 0 604 60"/>
<path d="M 648 56 A 4 4 0 0 0 652 52"/>
</g>
<g>
<line x1="652" x2="652" y1="12" y2="52"/>
</g>
<g>
<text x="17" y="44">
synthetase
</text>
</g>
<g>
<text x="33" y="28">
NRP
</text>
</g>
<g>
<text x="49" y="76">
N
</text>
</g>
<g>
<text x="153" y="44">
synthetase
</text>
</g>
<g>
<text x="169" y="28">
NRP
</text>
</g>
<g>
<text x="185" y="76">
K
</text>
</g>
<g>
<text x="185" y="108">
N
</text>
</g>
<g>
<text x="289" y="44">
synthetase
</text>
</g>
<g>
<text x="305" y="28">
NRP
</text>
</g>
<g>
<text x="321" y="76">
S
</text>
</g>
<g>
<text x="321" y="108">
K
</text>
</g>
<g>
<text x="321" y="140">
N
</text>
</g>
<g>
<text x="425" y="44">
synthetase
</text>
</g>
<g>
<text x="441" y="28">
NRP
</text>
</g>
<g>
<text x="457" y="76">
N
</text>
</g>
<g>
<text x="457" y="108">
S
</text>
</g>
<g>
<text x="457" y="140">
K
</text>
</g>
<g>
<text x="457" y="172">
N
</text>
</g>
<g>
<text x="561" y="44">
synthetase
</text>
</g>
<g>
<text x="577" y="28">
NRP
</text>
</g>
<g>
<text x="593" y="76">
G
</text>
</g>
<g>
<text x="593" y="108">
N
</text>
</g>
<g>
<text x="593" y="140">
S
</text>
</g>
<g>
<text x="593" y="172">
K
</text>
</g>
<g>
<text x="593" y="204">
N
</text>
</g>
</svg>
