<svg class="bob" font-family="arial" font-size="14" height="480" width="856" xmlns="http://www.w3.org/2000/svg">
<defs>
<marker id="triangle" markerHeight="8" markerWidth="8" orient="auto" refX="4" refY="2" viewBox="0 0 8 4">
<polygon class="fg_fill" points="0,0 0,4 8,2 0,0"/>
</marker>
<marker id="clear_triangle" markerHeight="10" markerWidth="10" orient="auto" refX="1" refY="7" viewBox="0 0 20 14">
<polygon class="bg_fill" points="2,2 2,12 18,7 2,2"/>
</marker>
<marker id="circle" markerHeight="5" markerWidth="5" orient="auto" refX="10" refY="10" viewBox="0 0 20 20">
<circle class="fg_fill" cx="10" cy="10" r="8"/>
</marker>
<marker id="square" markerHeight="5" markerWidth="5" orient="auto" refX="10" refY="10" viewBox="0 0 20 20">
<rect class="fg_fill" height="20" width="20" x="0" y="0"/>
</marker>
<marker id="open_circle" markerHeight="10" markerWidth="10" orient="auto" refX="10" refY="10" viewBox="0 0 20 20">
<circle class="bg_fill" cx="10" cy="10" r="4"/>
</marker>
<marker id="big_open_circle" markerHeight="20" markerWidth="20" orient="auto" refX="20" refY="20" viewBox="0 0 40 40">
<circle class="bg_fill" cx="20" cy="20" r="6"/>
</marker>
</defs>
<style type="text/css">

rect.backdrop {
    fill: white;
}
text{
    fill: black;
}

circle {
    fill: none;
    stroke: black;
    stroke-width: 2;
}

line {
    stroke: black;
    stroke-width: 2;
    stroke-opacity: 1;
    fill-opacity: 1;
    stroke-linecap: round;
    stroke-linejoin: miter;
}

path {
    fill: none;
    stroke: black;
    stroke-width: 2;
    stroke-opacity: 1;
    fill-opacity: 1;
    stroke-linecap: round;
    stroke-linejoin: miter;
}

line.dashed {
    stroke-dasharray: 5;
}

.fg_fill {
    fill: black;
}


.bg_fill {
    fill: white;
    stroke: black;
    stroke-width: 2;
}

tspan.head{
    fill: none;
    stroke: none;
}
    
</style>
<rect class="backdrop" height="480" width="856" x="0" y="0"/>
<g>
<line x1="4" x2="4" y1="136" y2="168"/>
<line x1="4" x2="60" y1="136" y2="136"/>
<line x1="4" x2="60" y1="168" y2="168"/>
<line x1="60" x2="60" y1="108" y2="136"/>
<line x1="60" x2="76" y1="136" y2="136"/>
<line x1="60" x2="60" y1="168" y2="196"/>
<line x1="60" x2="76" y1="168" y2="168"/>
<line x1="76" x2="76" y1="136" y2="168"/>
<path d="M 60 196 A 4 4 0 0 0 64 200"/>
<path d="M 64 104 A 4 4 0 0 0 60 108"/>
</g>
<g>
<line marker-end="url(#triangle)" x1="64" x2="132" y1="104" y2="104"/>
</g>
<g>
<line marker-end="url(#triangle)" x1="64" x2="132" y1="200" y2="200"/>
</g>
<g>
<line x1="140" x2="140" y1="72" y2="120"/>
<line x1="140" x2="172" y1="72" y2="72"/>
<line x1="140" x2="172" y1="120" y2="120"/>
<line x1="172" x2="172" y1="72" y2="88"/>
<line x1="172" x2="172" y1="88" y2="104"/>
<line marker-end="url(#triangle)" x1="172" x2="276" y1="88" y2="88"/>
<line x1="172" x2="172" y1="104" y2="120"/>
<line x1="172" x2="176" y1="104" y2="104"/>
<path d="M 182 108 A 8 8 0 0 0 176 104"/>
</g>
<g>
<line x1="140" x2="140" y1="184" y2="248"/>
<line x1="140" x2="172" y1="184" y2="184"/>
<line x1="140" x2="156" y1="248" y2="248"/>
<line marker-end="url(#triangle)" x1="156" x2="156" y1="248" y2="300"/>
<line x1="156" x2="172" y1="248" y2="248"/>
<line x1="172" x2="172" y1="184" y2="200"/>
<line x1="172" x2="172" y1="200" y2="248"/>
<line x1="172" x2="176" y1="200" y2="200"/>
<path d="M 176 200 A 8 8 0 0 0 182 196"/>
</g>
<g>
<line x1="140" x2="140" y1="312" y2="360"/>
<line x1="140" x2="172" y1="312" y2="312"/>
<line x1="140" x2="156" y1="360" y2="360"/>
<line marker-end="url(#triangle)" x1="156" x2="156" y1="360" y2="412"/>
<line x1="156" x2="172" y1="360" y2="360"/>
<line x1="172" x2="172" y1="312" y2="328"/>
<line x1="172" x2="172" y1="328" y2="360"/>
<line x1="172" x2="176" y1="328" y2="328"/>
<path d="M 176 328 A 8 8 0 0 0 182 324"/>
</g>
<g>
<line x1="140" x2="140" y1="424" y2="472"/>
<line x1="140" x2="172" y1="424" y2="424"/>
<line x1="140" x2="172" y1="472" y2="472"/>
<line x1="172" x2="172" y1="424" y2="440"/>
<line x1="172" x2="172" y1="440" y2="472"/>
<line x1="172" x2="176" y1="440" y2="440"/>
<path d="M 176 440 A 8 8 0 0 0 182 436"/>
</g>
<g>
<line x1="182" x2="204" y1="108" y2="152"/>
<line x1="204" x2="182" y1="152" y2="196"/>
<line x1="204" x2="226" y1="152" y2="196"/>
<line x1="226" x2="204" y1="108" y2="152"/>
<path d="M 226 196 A 8 8 0 0 0 232 200"/>
<path d="M 232 104 A 8 8 0 0 0 226 108"/>
</g>
<g>
<line x1="182" x2="226" y1="436" y2="348"/>
<path d="M 226 348 A 16 16 0 0 0 228 340"/>
</g>
<g>
<line x1="228" x2="228" y1="268" y2="340"/>
<path d="M 230 260 A 16 16 0 0 0 228 268"/>
</g>
<g>
<line marker-end="url(#triangle)" x1="232" x2="276" y1="104" y2="104"/>
</g>
<g>
<line marker-end="url(#triangle)" x1="232" x2="276" y1="200" y2="200"/>
</g>
<g>
<line x1="234" x2="182" y1="220" y2="324"/>
<path d="M 240 216 A 8 8 0 0 0 234 220"/>
</g>
<g>
<line marker-end="url(#triangle)" x1="240" x2="276" y1="216" y2="216"/>
</g>
<g>
<line x1="242" x2="230" y1="236" y2="260"/>
<path d="M 248 232 A 8 8 0 0 0 242 236"/>
</g>
<g>
<line marker-end="url(#triangle)" x1="248" x2="276" y1="232" y2="232"/>
</g>
<g>
<line x1="284" x2="284" y1="72" y2="120"/>
<line x1="284" x2="316" y1="72" y2="72"/>
<line x1="284" x2="316" y1="120" y2="120"/>
<line x1="316" x2="316" y1="72" y2="88"/>
<line x1="316" x2="316" y1="88" y2="104"/>
<line marker-end="url(#triangle)" x1="316" x2="420" y1="88" y2="88"/>
<line x1="316" x2="316" y1="104" y2="120"/>
<line x1="316" x2="320" y1="104" y2="104"/>
<path d="M 326 108 A 8 8 0 0 0 320 104"/>
</g>
<g>
<line x1="284" x2="284" y1="184" y2="248"/>
<line x1="284" x2="316" y1="184" y2="184"/>
<line x1="284" x2="300" y1="248" y2="248"/>
<line marker-end="url(#triangle)" x1="300" x2="300" y1="248" y2="300"/>
<line x1="300" x2="316" y1="248" y2="248"/>
<line x1="316" x2="316" y1="184" y2="200"/>
<line x1="316" x2="316" y1="200" y2="248"/>
<line x1="316" x2="320" y1="200" y2="200"/>
<path d="M 320 200 A 8 8 0 0 0 326 196"/>
</g>
<g>
<line x1="284" x2="284" y1="312" y2="360"/>
<line x1="284" x2="316" y1="312" y2="312"/>
<line x1="284" x2="300" y1="360" y2="360"/>
<line marker-end="url(#triangle)" x1="300" x2="300" y1="360" y2="412"/>
<line x1="300" x2="316" y1="360" y2="360"/>
<line x1="316" x2="316" y1="312" y2="328"/>
<line x1="316" x2="316" y1="328" y2="360"/>
<line x1="316" x2="320" y1="328" y2="328"/>
<path d="M 320 328 A 8 8 0 0 0 326 324"/>
</g>
<g>
<line x1="284" x2="284" y1="424" y2="472"/>
<line x1="284" x2="316" y1="424" y2="424"/>
<line x1="284" x2="316" y1="472" y2="472"/>
<line x1="316" x2="316" y1="424" y2="440"/>
<line x1="316" x2="316" y1="440" y2="472"/>
<line x1="316" x2="320" y1="440" y2="440"/>
<path d="M 320 440 A 8 8 0 0 0 326 436"/>
</g>
<g>
<line x1="326" x2="348" y1="108" y2="152"/>
<line x1="348" x2="326" y1="152" y2="196"/>
<line x1="348" x2="370" y1="152" y2="196"/>
<line x1="370" x2="348" y1="108" y2="152"/>
<path d="M 370 196 A 8 8 0 0 0 376 200"/>
<path d="M 376 104 A 8 8 0 0 0 370 108"/>
</g>
<g>
<line x1="326" x2="370" y1="436" y2="348"/>
<path d="M 370 348 A 16 16 0 0 0 372 340"/>
</g>
<g>
<line x1="372" x2="372" y1="268" y2="340"/>
<path d="M 374 260 A 16 16 0 0 0 372 268"/>
</g>
<g>
<line marker-end="url(#triangle)" x1="376" x2="420" y1="104" y2="104"/>
</g>
<g>
<line marker-end="url(#triangle)" x1="376" x2="420" y1="200" y2="200"/>
</g>
<g>
<line x1="378" x2="326" y1="220" y2="324"/>
<path d="M 384 216 A 8 8 0 0 0 378 220"/>
</g>
<g>
<line marker-end="url(#triangle)" x1="384" x2="420" y1="216" y2="216"/>
</g>
<g>
<line x1="386" x2="374" y1="236" y2="260"/>
<path d="M 392 232 A 8 8 0 0 0 386 236"/>
</g>
<g>
<line marker-end="url(#triangle)" x1="392" x2="420" y1="232" y2="232"/>
</g>
<g>
<line x1="428" x2="428" y1="72" y2="120"/>
<line x1="428" x2="460" y1="72" y2="72"/>
<line x1="428" x2="460" y1="120" y2="120"/>
<line x1="460" x2="460" y1="72" y2="88"/>
<line x1="460" x2="460" y1="88" y2="104"/>
<line marker-end="url(#triangle)" x1="460" x2="564" y1="88" y2="88"/>
<line x1="460" x2="460" y1="104" y2="120"/>
<line x1="460" x2="464" y1="104" y2="104"/>
<path d="M 470 108 A 8 8 0 0 0 464 104"/>
</g>
<g>
<line x1="428" x2="428" y1="184" y2="248"/>
<line x1="428" x2="460" y1="184" y2="184"/>
<line x1="428" x2="444" y1="248" y2="248"/>
<line marker-end="url(#triangle)" x1="444" x2="444" y1="248" y2="300"/>
<line x1="444" x2="460" y1="248" y2="248"/>
<line x1="460" x2="460" y1="184" y2="200"/>
<line x1="460" x2="460" y1="200" y2="248"/>
<line x1="460" x2="464" y1="200" y2="200"/>
<path d="M 464 200 A 8 8 0 0 0 470 196"/>
</g>
<g>
<line x1="428" x2="428" y1="312" y2="360"/>
<line x1="428" x2="460" y1="312" y2="312"/>
<line x1="428" x2="444" y1="360" y2="360"/>
<line marker-end="url(#triangle)" x1="444" x2="444" y1="360" y2="412"/>
<line x1="444" x2="460" y1="360" y2="360"/>
<line x1="460" x2="460" y1="312" y2="328"/>
<line x1="460" x2="460" y1="328" y2="360"/>
<line x1="460" x2="464" y1="328" y2="328"/>
<path d="M 464 328 A 8 8 0 0 0 470 324"/>
</g>
<g>
<line x1="428" x2="428" y1="424" y2="472"/>
<line x1="428" x2="460" y1="424" y2="424"/>
<line x1="428" x2="460" y1="472" y2="472"/>
<line x1="460" x2="460" y1="424" y2="440"/>
<line x1="460" x2="460" y1="440" y2="472"/>
<line x1="460" x2="464" y1="440" y2="440"/>
<path d="M 464 440 A 8 8 0 0 0 470 436"/>
</g>
<g>
<line x1="470" x2="492" y1="108" y2="152"/>
<line x1="492" x2="470" y1="152" y2="196"/>
<line x1="492" x2="514" y1="152" y2="196"/>
<line x1="514" x2="492" y1="108" y2="152"/>
<path d="M 514 196 A 8 8 0 0 0 520 200"/>
<path d="M 520 104 A 8 8 0 0 0 514 108"/>
</g>
<g>
<line x1="470" x2="514" y1="436" y2="348"/>
<path d="M 514 348 A 16 16 0 0 0 516 340"/>
</g>
<g>
<line x1="516" x2="516" y1="268" y2="340"/>
<path d="M 518 260 A 16 16 0 0 0 516 268"/>
</g>
<g>
<line marker-end="url(#triangle)" x1="520" x2="564" y1="104" y2="104"/>
</g>
<g>
<line marker-end="url(#triangle)" x1="520" x2="564" y1="200" y2="200"/>
</g>
<g>
<line x1="522" x2="470" y1="220" y2="324"/>
<path d="M 528 216 A 8 8 0 0 0 522 220"/>
</g>
<g>
<line marker-end="url(#triangle)" x1="528" x2="564" y1="216" y2="216"/>
</g>
<g>
<line x1="530" x2="518" y1="236" y2="260"/>
<path d="M 536 232 A 8 8 0 0 0 530 236"/>
</g>
<g>
<line marker-end="url(#triangle)" x1="536" x2="564" y1="232" y2="232"/>
</g>
<g>
<line x1="572" x2="572" y1="72" y2="120"/>
<line x1="572" x2="604" y1="72" y2="72"/>
<line x1="572" x2="604" y1="120" y2="120"/>
<line x1="604" x2="604" y1="72" y2="88"/>
<line x1="604" x2="604" y1="88" y2="104"/>
<line marker-end="url(#triangle)" x1="604" x2="708" y1="88" y2="88"/>
<line x1="604" x2="604" y1="104" y2="120"/>
<line x1="604" x2="608" y1="104" y2="104"/>
<path d="M 614 108 A 8 8 0 0 0 608 104"/>
</g>
<g>
<line x1="572" x2="572" y1="184" y2="248"/>
<line x1="572" x2="604" y1="184" y2="184"/>
<line x1="572" x2="588" y1="248" y2="248"/>
<line marker-end="url(#triangle)" x1="588" x2="588" y1="248" y2="300"/>
<line x1="588" x2="604" y1="248" y2="248"/>
<line x1="604" x2="604" y1="184" y2="200"/>
<line x1="604" x2="604" y1="200" y2="248"/>
<line x1="604" x2="608" y1="200" y2="200"/>
<path d="M 608 200 A 8 8 0 0 0 614 196"/>
</g>
<g>
<line x1="572" x2="572" y1="312" y2="360"/>
<line x1="572" x2="604" y1="312" y2="312"/>
<line x1="572" x2="588" y1="360" y2="360"/>
<line marker-end="url(#triangle)" x1="588" x2="588" y1="360" y2="412"/>
<line x1="588" x2="604" y1="360" y2="360"/>
<line x1="604" x2="604" y1="312" y2="328"/>
<line x1="604" x2="604" y1="328" y2="360"/>
<line x1="604" x2="608" y1="328" y2="328"/>
<path d="M 608 328 A 8 8 0 0 0 614 324"/>
</g>
<g>
<line x1="572" x2="572" y1="424" y2="472"/>
<line x1="572" x2="604" y1="424" y2="424"/>
<line x1="572" x2="604" y1="472" y2="472"/>
<line x1="604" x2="604" y1="424" y2="440"/>
<line x1="604" x2="604" y1="440" y2="472"/>
<line x1="604" x2="608" y1="440" y2="440"/>
<path d="M 608 440 A 8 8 0 0 0 614 436"/>
</g>
<g>
<line x1="614" x2="636" y1="108" y2="152"/>
<line x1="636" x2="614" y1="152" y2="196"/>
<line x1="636" x2="658" y1="152" y2="196"/>
<line x1="658" x2="636" y1="108" y2="152"/>
<path d="M 658 196 A 8 8 0 0 0 664 200"/>
<path d="M 664 104 A 8 8 0 0 0 658 108"/>
</g>
<g>
<line x1="614" x2="658" y1="436" y2="348"/>
<path d="M 658 348 A 16 16 0 0 0 660 340"/>
</g>
<g>
<line x1="660" x2="660" y1="268" y2="340"/>
<path d="M 662 260 A 16 16 0 0 0 660 268"/>
</g>
<g>
<line marker-end="url(#triangle)" x1="664" x2="708" y1="104" y2="104"/>
</g>
<g>
<line marker-end="url(#triangle)" x1="664" x2="708" y1="200" y2="200"/>
</g>
<g>
<line x1="666" x2="614" y1="220" y2="324"/>
<path d="M 672 216 A 8 8 0 0 0 666 220"/>
</g>
<g>
<line marker-end="url(#triangle)" x1="672" x2="708" y1="216" y2="216"/>
</g>
<g>
<line x1="674" x2="662" y1="236" y2="260"/>
<path d="M 680 232 A 8 8 0 0 0 674 236"/>
</g>
<g>
<line marker-end="url(#triangle)" x1="680" x2="708" y1="232" y2="232"/>
</g>
<g>
<line x1="716" x2="716" y1="72" y2="120"/>
<line x1="716" x2="748" y1="72" y2="72"/>
<line x1="716" x2="748" y1="120" y2="120"/>
<line x1="748" x2="748" y1="72" y2="88"/>
<line x1="748" x2="748" y1="88" y2="120"/>
<line x1="748" x2="800" y1="88" y2="88"/>
<path d="M 804 92 A 4 4 0 0 0 800 88"/>
</g>
<g>
<line x1="716" x2="716" y1="184" y2="248"/>
<line x1="716" x2="748" y1="184" y2="184"/>
<line x1="716" x2="732" y1="248" y2="248"/>
<line marker-end="url(#triangle)" x1="732" x2="732" y1="248" y2="300"/>
<line x1="732" x2="748" y1="248" y2="248"/>
<line x1="748" x2="748" y1="184" y2="216"/>
<line x1="748" x2="748" y1="216" y2="248"/>
<line x1="748" x2="800" y1="216" y2="216"/>
<path d="M 800 216 A 4 4 0 0 0 804 212"/>
</g>
<g>
<line x1="716" x2="716" y1="312" y2="360"/>
<line x1="716" x2="748" y1="312" y2="312"/>
<line x1="716" x2="732" y1="360" y2="360"/>
<line marker-end="url(#triangle)" x1="732" x2="732" y1="360" y2="412"/>
<line x1="732" x2="748" y1="360" y2="360"/>
<line x1="748" x2="748" y1="312" y2="328"/>
<line x1="748" x2="748" y1="328" y2="360"/>
<line x1="748" x2="816" y1="328" y2="328"/>
<path d="M 816 328 A 4 4 0 0 0 820 324"/>
</g>
<g>
<line x1="716" x2="716" y1="424" y2="472"/>
<line x1="716" x2="748" y1="424" y2="424"/>
<line x1="716" x2="748" y1="472" y2="472"/>
<line x1="748" x2="748" y1="424" y2="440"/>
<line x1="748" x2="748" y1="440" y2="472"/>
<line x1="748" x2="832" y1="440" y2="440"/>
<path d="M 832 440 A 4 4 0 0 0 836 436"/>
</g>
<g>
<line x1="796" x2="796" y1="136" y2="168"/>
<line x1="796" x2="852" y1="136" y2="136"/>
<line x1="796" x2="852" y1="168" y2="168"/>
<line x1="852" x2="852" y1="136" y2="168"/>
</g>
<g>
<line marker-end="url(#triangle)" x1="804" x2="804" y1="92" y2="124"/>
</g>
<g>
<line marker-end="url(#triangle)" x1="804" x2="804" y1="192" y2="180"/>
<line x1="804" x2="804" y1="192" y2="212"/>
</g>
<g>
<line marker-end="url(#triangle)" x1="820" x2="820" y1="192" y2="180"/>
<line x1="820" x2="820" y1="192" y2="324"/>
</g>
<g>
<line marker-end="url(#triangle)" x1="836" x2="836" y1="192" y2="180"/>
<line x1="836" x2="836" y1="192" y2="436"/>
</g>
<g>
<text x="1" y="12">
*
</text>
</g>
<g>
<text x="17" y="12">
Weights have been rounded for brevity.
</text>
</g>
<g>
<text x="17" y="156">
SOURCE
</text>
</g>
<g>
<text x="89" y="92">
0.114
</text>
</g>
<g>
<text x="89" y="220">
0.102
</text>
</g>
<g>
<text x="105" y="284">
0.699
</text>
</g>
<g>
<text x="121" y="396">
0.1
</text>
</g>
<g>
<text x="153" y="44">
z
</text>
</g>
<g>
<text x="153" y="92">
A
</text>
</g>
<g>
<text x="153" y="204">
B
</text>
</g>
<g>
<text x="153" y="332">
C
</text>
</g>
<g>
<text x="153" y="444">
D
</text>
</g>
<g>
<text x="185" y="220">
0.183
</text>
</g>
<g>
<text x="209" y="412">
0.203
</text>
</g>
<g>
<text x="233" y="76">
0.086
</text>
</g>
<g>
<text x="233" y="124">
0.069
</text>
</g>
<g>
<text x="233" y="188">
0.126
</text>
</g>
<g>
<text x="249" y="284">
0.699
</text>
</g>
<g>
<text x="265" y="396">
0.1
</text>
</g>
<g>
<text x="297" y="44">
z
</text>
</g>
<g>
<text x="297" y="92">
A
</text>
</g>
<g>
<text x="297" y="204">
B
</text>
</g>
<g>
<text x="297" y="332">
C
</text>
</g>
<g>
<text x="297" y="444">
D
</text>
</g>
<g>
<text x="329" y="220">
0.203
</text>
</g>
<g>
<text x="353" y="412">
0.225
</text>
</g>
<g>
<text x="377" y="76">
0.066
</text>
</g>
<g>
<text x="377" y="124">
0.053
</text>
</g>
<g>
<text x="377" y="188">
0.140
</text>
</g>
<g>
<text x="393" y="284">
0.699
</text>
</g>
<g>
<text x="409" y="396">
0.1
</text>
</g>
<g>
<text x="441" y="44">
x
</text>
</g>
<g>
<text x="441" y="92">
A
</text>
</g>
<g>
<text x="441" y="204">
B
</text>
</g>
<g>
<text x="441" y="332">
C
</text>
</g>
<g>
<text x="441" y="444">
D
</text>
</g>
<g>
<text x="473" y="220">
0.203
</text>
</g>
<g>
<text x="497" y="412">
0.225
</text>
</g>
<g>
<text x="521" y="76">
0.066
</text>
</g>
<g>
<text x="521" y="124">
0.053
</text>
</g>
<g>
<text x="521" y="188">
0.140
</text>
</g>
<g>
<text x="537" y="284">
0.699
</text>
</g>
<g>
<text x="553" y="396">
0.1
</text>
</g>
<g>
<text x="585" y="44">
x
</text>
</g>
<g>
<text x="585" y="92">
A
</text>
</g>
<g>
<text x="585" y="204">
B
</text>
</g>
<g>
<text x="585" y="332">
C
</text>
</g>
<g>
<text x="585" y="444">
D
</text>
</g>
<g>
<text x="617" y="220">
0.515
</text>
</g>
<g>
<text x="641" y="412">
0.572
</text>
</g>
<g>
<text x="665" y="76">
0.225
</text>
</g>
<g>
<text x="665" y="124">
0.179
</text>
</g>
<g>
<text x="665" y="188">
0.356
</text>
</g>
<g>
<text x="681" y="284">
0.699
</text>
</g>
<g>
<text x="697" y="396">
0.1
</text>
</g>
<g>
<text x="729" y="44">
y
</text>
</g>
<g>
<text x="729" y="92">
A
</text>
</g>
<g>
<text x="729" y="204">
B
</text>
</g>
<g>
<text x="729" y="332">
C
</text>
</g>
<g>
<text x="729" y="444">
D
</text>
</g>
<g>
<text x="761" y="108">
1.0
</text>
</g>
<g>
<text x="761" y="204">
1.0
</text>
</g>
<g>
<text x="761" y="316">
1.0
</text>
</g>
<g>
<text x="761" y="428">
1.0
</text>
</g>
<g>
<text x="809" y="156">
SINK
</text>
</g>
</svg>
