<svg class="bob" font-family="arial" font-size="14" height="816" width="712" xmlns="http://www.w3.org/2000/svg">
<defs>
<marker id="triangle" markerHeight="8" markerWidth="8" orient="auto" refX="4" refY="2" viewBox="0 0 8 4">
<polygon class="fg_fill" points="0,0 0,4 8,2 0,0"/>
</marker>
<marker id="clear_triangle" markerHeight="10" markerWidth="10" orient="auto" refX="1" refY="7" viewBox="0 0 20 14">
<polygon class="bg_fill" points="2,2 2,12 18,7 2,2"/>
</marker>
<marker id="circle" markerHeight="5" markerWidth="5" orient="auto" refX="10" refY="10" viewBox="0 0 20 20">
<circle class="fg_fill" cx="10" cy="10" r="8"/>
</marker>
<marker id="square" markerHeight="5" markerWidth="5" orient="auto" refX="10" refY="10" viewBox="0 0 20 20">
<rect class="fg_fill" height="20" width="20" x="0" y="0"/>
</marker>
<marker id="open_circle" markerHeight="10" markerWidth="10" orient="auto" refX="10" refY="10" viewBox="0 0 20 20">
<circle class="bg_fill" cx="10" cy="10" r="4"/>
</marker>
<marker id="big_open_circle" markerHeight="20" markerWidth="20" orient="auto" refX="20" refY="20" viewBox="0 0 40 40">
<circle class="bg_fill" cx="20" cy="20" r="6"/>
</marker>
</defs>
<style type="text/css">

rect.backdrop {
    fill: white;
}
text{
    fill: black;
}

circle {
    fill: none;
    stroke: black;
    stroke-width: 2;
}

line {
    stroke: black;
    stroke-width: 2;
    stroke-opacity: 1;
    fill-opacity: 1;
    stroke-linecap: round;
    stroke-linejoin: miter;
}

path {
    fill: none;
    stroke: black;
    stroke-width: 2;
    stroke-opacity: 1;
    fill-opacity: 1;
    stroke-linecap: round;
    stroke-linejoin: miter;
}

line.dashed {
    stroke-dasharray: 5;
}

.fg_fill {
    fill: black;
}


.bg_fill {
    fill: white;
    stroke: black;
    stroke-width: 2;
}

tspan.head{
    fill: none;
    stroke: none;
}
    
</style>
<rect class="backdrop" height="816" width="712" x="0" y="0"/>
<g>
<line x1="52" x2="52" y1="80" y2="760"/>
<line x1="52" x2="576" y1="760" y2="760"/>
</g>
<g>
<line marker-end="url(#triangle)" marker-start="url(#circle)" x1="60" x2="126" y1="440" y2="572"/>
</g>
<g>
<line marker-end="url(#triangle)" marker-start="url(#circle)" x1="268" x2="334" y1="216" y2="84"/>
</g>
<g>
<line marker-end="url(#triangle)" marker-start="url(#circle)" x1="396" x2="462" y1="376" y2="244"/>
</g>
<g>
<line marker-end="url(#triangle)" marker-start="url(#circle)" x1="508" x2="574" y1="728" y2="596"/>
</g>
<g>
<text x="1" y="12">
Consider each shared 5-mer, shown as a line, to be a dot.
</text>
</g>
<g>
<text x="1" y="28">
*
</text>
</g>
<g>
<text x="1" y="44">
*
</text>
</g>
<g>
<text x="1" y="348">
g
</text>
</g>
<g>
<text x="1" y="364">
e
</text>
</g>
<g>
<text x="1" y="380">
n
</text>
</g>
<g>
<text x="1" y="396">
o
</text>
</g>
<g>
<text x="1" y="412">
m
</text>
</g>
<g>
<text x="1" y="428">
e
</text>
</g>
<g>
<text x="1" y="444">
1
</text>
</g>
<g>
<text x="9" y="76">
3&#39;
</text>
</g>
<g>
<text x="9" y="748">
5&#39;
</text>
</g>
<g>
<text x="17" y="28">
N = normal match
</text>
</g>
<g>
<text x="17" y="44">
R = reverse complement match
</text>
</g>
<g>
<text x="17" y="92">
A
</text>
</g>
<g>
<text x="17" y="124">
C
</text>
</g>
<g>
<text x="17" y="156">
T
</text>
</g>
<g>
<text x="17" y="188">
G
</text>
</g>
<g>
<text x="17" y="220">
G
</text>
</g>
<g>
<text x="17" y="252">
G
</text>
</g>
<g>
<text x="17" y="284">
T
</text>
</g>
<g>
<text x="17" y="316">
C
</text>
</g>
<g>
<text x="17" y="348">
A
</text>
</g>
<g>
<text x="17" y="380">
G
</text>
</g>
<g>
<text x="17" y="412">
C
</text>
</g>
<g>
<text x="17" y="444">
C
</text>
</g>
<g>
<text x="17" y="476">
C
</text>
</g>
<g>
<text x="17" y="508">
A
</text>
</g>
<g>
<text x="17" y="540">
A
</text>
</g>
<g>
<text x="17" y="572">
A
</text>
</g>
<g>
<text x="17" y="604">
G
</text>
</g>
<g>
<text x="17" y="636">
G
</text>
</g>
<g>
<text x="17" y="668">
G
</text>
</g>
<g>
<text x="17" y="700">
G
</text>
</g>
<g>
<text x="17" y="732">
G
</text>
</g>
<g>
<text x="33" y="76">
5&#39;
</text>
</g>
<g>
<text x="33" y="92">
T
</text>
</g>
<g>
<text x="33" y="124">
G
</text>
</g>
<g>
<text x="33" y="156">
A
</text>
</g>
<g>
<text x="33" y="188">
C
</text>
</g>
<g>
<text x="33" y="220">
C
</text>
</g>
<g>
<text x="33" y="252">
C
</text>
</g>
<g>
<text x="33" y="284">
A
</text>
</g>
<g>
<text x="33" y="316">
G
</text>
</g>
<g>
<text x="33" y="348">
T
</text>
</g>
<g>
<text x="33" y="380">
C
</text>
</g>
<g>
<text x="33" y="412">
G
</text>
</g>
<g>
<text x="33" y="444">
G
</text>
</g>
<g>
<text x="33" y="476">
G
</text>
</g>
<g>
<text x="33" y="508">
T
</text>
</g>
<g>
<text x="33" y="540">
T
</text>
</g>
<g>
<text x="33" y="572">
T
</text>
</g>
<g>
<text x="33" y="604">
C
</text>
</g>
<g>
<text x="33" y="636">
C
</text>
</g>
<g>
<text x="33" y="668">
C
</text>
</g>
<g>
<text x="33" y="700">
C
</text>
</g>
<g>
<text x="33" y="732">
C
</text>
</g>
<g>
<text x="33" y="748">
3&#39;
</text>
</g>
<g>
<text x="33" y="780">
5&#39;
</text>
</g>
<g>
<text x="33" y="796">
3&#39;
</text>
</g>
<g>
<text x="57" y="780">
G
</text>
</g>
<g>
<text x="57" y="796">
C
</text>
</g>
<g>
<text x="73" y="780">
G
</text>
</g>
<g>
<text x="73" y="796">
C
</text>
</g>
<g>
<text x="89" y="780">
T
</text>
</g>
<g>
<text x="89" y="796">
A
</text>
</g>
<g>
<text x="105" y="508">
R:
</text>
</g>
<g>
<text x="105" y="780">
T
</text>
</g>
<g>
<text x="105" y="796">
A
</text>
</g>
<g>
<text x="121" y="780">
T
</text>
</g>
<g>
<text x="121" y="796">
A
</text>
</g>
<g>
<text x="129" y="508">
AAACC vs GGTTT
</text>
</g>
<g>
<text x="137" y="780">
A
</text>
</g>
<g>
<text x="137" y="796">
T
</text>
</g>
<g>
<text x="153" y="780">
G
</text>
</g>
<g>
<text x="153" y="796">
C
</text>
</g>
<g>
<text x="169" y="780">
G
</text>
</g>
<g>
<text x="169" y="796">
C
</text>
</g>
<g>
<text x="185" y="780">
T
</text>
</g>
<g>
<text x="185" y="796">
A
</text>
</g>
<g>
<text x="201" y="780">
G
</text>
</g>
<g>
<text x="201" y="796">
C
</text>
</g>
<g>
<text x="217" y="780">
A
</text>
</g>
<g>
<text x="217" y="796">
T
</text>
</g>
<g>
<text x="233" y="780">
C
</text>
</g>
<g>
<text x="233" y="796">
G
</text>
</g>
<g>
<text x="249" y="780">
T
</text>
</g>
<g>
<text x="249" y="796">
A
</text>
</g>
<g>
<text x="265" y="780">
T
</text>
</g>
<g>
<text x="265" y="796">
A
</text>
</g>
<g>
<text x="281" y="780">
A
</text>
</g>
<g>
<text x="281" y="796">
T
</text>
</g>
<g>
<text x="281" y="812">
genome2
</text>
</g>
<g>
<text x="297" y="780">
C
</text>
</g>
<g>
<text x="297" y="796">
G
</text>
</g>
<g>
<text x="313" y="156">
N:
</text>
</g>
<g>
<text x="313" y="780">
T
</text>
</g>
<g>
<text x="313" y="796">
A
</text>
</g>
<g>
<text x="329" y="780">
G
</text>
</g>
<g>
<text x="329" y="796">
C
</text>
</g>
<g>
<text x="337" y="156">
ACTGG vs ACTGG
</text>
</g>
<g>
<text x="345" y="780">
G
</text>
</g>
<g>
<text x="345" y="796">
C
</text>
</g>
<g>
<text x="361" y="780">
A
</text>
</g>
<g>
<text x="361" y="796">
T
</text>
</g>
<g>
<text x="377" y="780">
A
</text>
</g>
<g>
<text x="377" y="796">
T
</text>
</g>
<g>
<text x="393" y="780">
C
</text>
</g>
<g>
<text x="393" y="796">
G
</text>
</g>
<g>
<text x="409" y="780">
A
</text>
</g>
<g>
<text x="409" y="796">
T
</text>
</g>
<g>
<text x="425" y="780">
G
</text>
</g>
<g>
<text x="425" y="796">
C
</text>
</g>
<g>
<text x="441" y="316">
N:
</text>
</g>
<g>
<text x="441" y="780">
T
</text>
</g>
<g>
<text x="441" y="796">
A
</text>
</g>
<g>
<text x="457" y="780">
C
</text>
</g>
<g>
<text x="457" y="796">
G
</text>
</g>
<g>
<text x="465" y="316">
CATGC vs CATGC
</text>
</g>
<g>
<text x="473" y="780">
T
</text>
</g>
<g>
<text x="473" y="796">
T
</text>
</g>
<g>
<text x="489" y="780">
T
</text>
</g>
<g>
<text x="489" y="796">
T
</text>
</g>
<g>
<text x="505" y="780">
G
</text>
</g>
<g>
<text x="505" y="796">
C
</text>
</g>
<g>
<text x="521" y="780">
G
</text>
</g>
<g>
<text x="521" y="796">
C
</text>
</g>
<g>
<text x="537" y="780">
G
</text>
</g>
<g>
<text x="537" y="796">
C
</text>
</g>
<g>
<text x="553" y="668">
N:
</text>
</g>
<g>
<text x="553" y="780">
G
</text>
</g>
<g>
<text x="553" y="796">
C
</text>
</g>
<g>
<text x="569" y="780">
G
</text>
</g>
<g>
<text x="569" y="796">
C
</text>
</g>
<g>
<text x="577" y="668">
GGGGG vs GGGGG
</text>
</g>
<g>
<text x="585" y="780">
3&#39;
</text>
</g>
<g>
<text x="585" y="796">
5&#39;
</text>
</g>
</svg>
