<svg class="bob" font-family="arial" font-size="14" height="464" width="392" xmlns="http://www.w3.org/2000/svg">
<defs>
<marker id="triangle" markerHeight="8" markerWidth="8" orient="auto" refX="4" refY="2" viewBox="0 0 8 4">
<polygon class="fg_fill" points="0,0 0,4 8,2 0,0"/>
</marker>
<marker id="clear_triangle" markerHeight="10" markerWidth="10" orient="auto" refX="1" refY="7" viewBox="0 0 20 14">
<polygon class="bg_fill" points="2,2 2,12 18,7 2,2"/>
</marker>
<marker id="circle" markerHeight="5" markerWidth="5" orient="auto" refX="10" refY="10" viewBox="0 0 20 20">
<circle class="fg_fill" cx="10" cy="10" r="8"/>
</marker>
<marker id="square" markerHeight="5" markerWidth="5" orient="auto" refX="10" refY="10" viewBox="0 0 20 20">
<rect class="fg_fill" height="20" width="20" x="0" y="0"/>
</marker>
<marker id="open_circle" markerHeight="10" markerWidth="10" orient="auto" refX="10" refY="10" viewBox="0 0 20 20">
<circle class="bg_fill" cx="10" cy="10" r="4"/>
</marker>
<marker id="big_open_circle" markerHeight="20" markerWidth="20" orient="auto" refX="20" refY="20" viewBox="0 0 40 40">
<circle class="bg_fill" cx="20" cy="20" r="6"/>
</marker>
</defs>
<style type="text/css">

rect.backdrop {
    fill: white;
}
text{
    fill: black;
}

circle {
    fill: none;
    stroke: black;
    stroke-width: 2;
}

line {
    stroke: black;
    stroke-width: 2;
    stroke-opacity: 1;
    fill-opacity: 1;
    stroke-linecap: round;
    stroke-linejoin: miter;
}

path {
    fill: none;
    stroke: black;
    stroke-width: 2;
    stroke-opacity: 1;
    fill-opacity: 1;
    stroke-linecap: round;
    stroke-linejoin: miter;
}

line.dashed {
    stroke-dasharray: 5;
}

.fg_fill {
    fill: black;
}


.bg_fill {
    fill: white;
    stroke: black;
    stroke-width: 2;
}

tspan.head{
    fill: none;
    stroke: none;
}
    
</style>
<rect class="backdrop" height="464" width="392" x="0" y="0"/>
<g>
<line x1="4" x2="4" y1="280" y2="312"/>
<line x1="4" x2="52" y1="280" y2="280"/>
<line x1="4" x2="68" y1="312" y2="312"/>
<line x1="52" x2="52" y1="280" y2="272"/>
<line x1="52" x2="68" y1="280" y2="280"/>
<line x1="68" x2="68" y1="280" y2="272"/>
<line x1="68" x2="92" y1="280" y2="280"/>
<line x1="68" x2="68" y1="312" y2="320"/>
<line x1="68" x2="124" y1="312" y2="312"/>
<line x1="92" x2="92" y1="252" y2="280"/>
<line x1="92" x2="108" y1="280" y2="280"/>
<line x1="108" x2="108" y1="268" y2="280"/>
<line x1="108" x2="124" y1="280" y2="280"/>
<line x1="124" x2="124" y1="280" y2="312"/>
<line class="dashed" x1="52" x2="52" y1="128" y2="272"/>
<line class="dashed" x1="68" x2="68" y1="208" y2="272"/>
<line class="dashed" x1="68" x2="68" y1="320" y2="432"/>
<path d="M 96 248 A 4 4 0 0 0 92 252"/>
<path d="M 112 264 A 4 4 0 0 0 108 268"/>
</g>
<g>
<line marker-end="url(#triangle)" x1="28" x2="28" y1="60" y2="268"/>
<path d="M 32 56 A 4 4 0 0 0 28 60"/>
</g>
<g>
<line x1="32" x2="176" y1="56" y2="56"/>
<path d="M 176 56 A 4 4 0 0 0 180 52"/>
</g>
<g>
<line x1="52" x2="52" y1="124" y2="128"/>
<path d="M 56 120 A 4 4 0 0 0 52 124"/>
</g>
<g>
<line x1="68" x2="68" y1="204" y2="208"/>
<path d="M 72 200 A 4 4 0 0 0 68 204"/>
</g>
<g>
<line x1="68" x2="68" y1="436" y2="432"/>
<path d="M 68 436 A 4 4 0 0 0 72 440"/>
</g>
<g>
<line marker-end="url(#triangle)" x1="92" x2="92" y1="336" y2="324"/>
<line x1="92" x2="92" y1="336" y2="372"/>
<path d="M 92 372 A 4 4 0 0 0 96 376"/>
</g>
<g>
<line x1="96" x2="296" y1="248" y2="248"/>
<path d="M 300 252 A 4 4 0 0 0 296 248"/>
</g>
<g>
<line x1="96" x2="296" y1="376" y2="376"/>
<path d="M 296 376 A 4 4 0 0 0 300 372"/>
</g>
<g>
<line marker-end="url(#triangle)" x1="108" x2="108" y1="336" y2="324"/>
<line x1="108" x2="108" y1="336" y2="356"/>
<path d="M 108 356 A 4 4 0 0 0 112 360"/>
</g>
<g>
<line x1="112" x2="136" y1="264" y2="264"/>
<path d="M 140 268 A 4 4 0 0 0 136 264"/>
</g>
<g>
<line x1="112" x2="136" y1="360" y2="360"/>
<path d="M 136 360 A 4 4 0 0 0 140 356"/>
</g>
<g>
<line x1="140" x2="140" y1="268" y2="356"/>
</g>
<g>
<line marker-end="url(#triangle)" x1="160" x2="164" y1="120" y2="120"/>
<line class="dashed" x1="56" x2="160" y1="120" y2="120"/>
</g>
<g>
<line marker-end="url(#triangle)" x1="160" x2="164" y1="200" y2="200"/>
<line class="dashed" x1="72" x2="160" y1="200" y2="200"/>
</g>
<g>
<line marker-end="url(#triangle)" x1="160" x2="164" y1="440" y2="440"/>
<line class="dashed" x1="72" x2="160" y1="440" y2="440"/>
</g>
<g>
<line x1="164" x2="164" y1="8" y2="40"/>
<line x1="164" x2="244" y1="8" y2="8"/>
<line x1="164" x2="180" y1="40" y2="40"/>
<line x1="180" x2="180" y1="40" y2="52"/>
<line x1="180" x2="228" y1="40" y2="40"/>
<line x1="228" x2="228" y1="40" y2="52"/>
<line x1="228" x2="244" y1="40" y2="40"/>
<line x1="244" x2="244" y1="8" y2="40"/>
<path d="M 228 52 A 4 4 0 0 0 232 56"/>
</g>
<g>
<line x1="172" x2="172" y1="104" y2="112"/>
<line x1="172" x2="176" y1="104" y2="104"/>
<line class="dashed" x1="172" x2="172" y1="112" y2="128"/>
<line class="dashed" x1="176" x2="232" y1="104" y2="104"/>
</g>
<g>
<line x1="172" x2="172" y1="136" y2="128"/>
<line x1="172" x2="176" y1="136" y2="136"/>
<line class="dashed" x1="176" x2="232" y1="136" y2="136"/>
</g>
<g>
<line x1="172" x2="172" y1="184" y2="192"/>
<line x1="172" x2="176" y1="184" y2="184"/>
<line class="dashed" x1="172" x2="172" y1="192" y2="208"/>
<line class="dashed" x1="176" x2="232" y1="184" y2="184"/>
</g>
<g>
<line x1="172" x2="172" y1="216" y2="208"/>
<line x1="172" x2="176" y1="216" y2="216"/>
<line class="dashed" x1="176" x2="232" y1="216" y2="216"/>
</g>
<g>
<line x1="172" x2="172" y1="424" y2="432"/>
<line x1="172" x2="176" y1="424" y2="424"/>
<line class="dashed" x1="172" x2="172" y1="432" y2="448"/>
<line class="dashed" x1="176" x2="232" y1="424" y2="424"/>
</g>
<g>
<line x1="172" x2="172" y1="456" y2="448"/>
<line x1="172" x2="176" y1="456" y2="456"/>
<line class="dashed" x1="176" x2="232" y1="456" y2="456"/>
</g>
<g>
<line x1="232" x2="360" y1="56" y2="56"/>
<path d="M 364 60 A 4 4 0 0 0 360 56"/>
</g>
<g>
<line x1="236" x2="232" y1="104" y2="104"/>
<line x1="236" x2="236" y1="104" y2="112"/>
<line class="dashed" x1="236" x2="236" y1="112" y2="128"/>
</g>
<g>
<line x1="236" x2="232" y1="136" y2="136"/>
<line x1="236" x2="236" y1="136" y2="128"/>
</g>
<g>
<line x1="236" x2="232" y1="184" y2="184"/>
<line x1="236" x2="236" y1="184" y2="192"/>
<line class="dashed" x1="236" x2="236" y1="192" y2="208"/>
</g>
<g>
<line x1="236" x2="232" y1="216" y2="216"/>
<line x1="236" x2="236" y1="216" y2="208"/>
</g>
<g>
<line x1="236" x2="232" y1="424" y2="424"/>
<line x1="236" x2="236" y1="424" y2="432"/>
<line class="dashed" x1="236" x2="236" y1="432" y2="448"/>
</g>
<g>
<line x1="236" x2="232" y1="456" y2="456"/>
<line x1="236" x2="236" y1="456" y2="448"/>
</g>
<g>
<line marker-end="url(#triangle)" x1="248" x2="244" y1="120" y2="120"/>
<line class="dashed" x1="248" x2="336" y1="120" y2="120"/>
<path d="M 340 124 A 4 4 0 0 0 336 120"/>
</g>
<g>
<line marker-end="url(#triangle)" x1="248" x2="244" y1="200" y2="200"/>
<line class="dashed" x1="248" x2="320" y1="200" y2="200"/>
<path d="M 324 204 A 4 4 0 0 0 320 200"/>
</g>
<g>
<line marker-end="url(#triangle)" x1="248" x2="244" y1="440" y2="440"/>
<line class="dashed" x1="248" x2="320" y1="440" y2="440"/>
<path d="M 320 440 A 4 4 0 0 0 324 436"/>
</g>
<g>
<line x1="252" x2="252" y1="268" y2="356"/>
<path d="M 252 356 A 4 4 0 0 0 256 360"/>
<path d="M 256 264 A 4 4 0 0 0 252 268"/>
</g>
<g>
<line x1="256" x2="280" y1="264" y2="264"/>
<path d="M 284 268 A 4 4 0 0 0 280 264"/>
</g>
<g>
<line x1="256" x2="280" y1="360" y2="360"/>
<path d="M 280 360 A 4 4 0 0 0 284 356"/>
</g>
<g>
<line x1="268" x2="268" y1="280" y2="312"/>
<line x1="268" x2="284" y1="280" y2="280"/>
<line x1="268" x2="300" y1="312" y2="312"/>
<line x1="284" x2="284" y1="268" y2="280"/>
<line x1="284" x2="324" y1="280" y2="280"/>
<line x1="300" x2="300" y1="312" y2="372"/>
<line x1="300" x2="324" y1="312" y2="312"/>
<line x1="324" x2="324" y1="280" y2="272"/>
<line x1="324" x2="340" y1="280" y2="280"/>
<line x1="324" x2="324" y1="312" y2="320"/>
<line x1="324" x2="388" y1="312" y2="312"/>
<line x1="340" x2="340" y1="280" y2="272"/>
<line x1="340" x2="388" y1="280" y2="280"/>
<line x1="388" x2="388" y1="280" y2="312"/>
<line class="dashed" x1="324" x2="324" y1="208" y2="272"/>
<line class="dashed" x1="324" x2="324" y1="320" y2="432"/>
<line class="dashed" x1="340" x2="340" y1="128" y2="272"/>
</g>
<g>
<line marker-end="url(#triangle)" x1="284" x2="284" y1="336" y2="324"/>
<line x1="284" x2="284" y1="336" y2="356"/>
</g>
<g>
<line marker-end="url(#triangle)" x1="300" x2="300" y1="252" y2="268"/>
</g>
<g>
<line x1="324" x2="324" y1="204" y2="208"/>
</g>
<g>
<line x1="324" x2="324" y1="436" y2="432"/>
</g>
<g>
<line x1="340" x2="340" y1="124" y2="128"/>
</g>
<g>
<line marker-end="url(#triangle)" x1="364" x2="364" y1="60" y2="268"/>
</g>
<g>
<text x="17" y="300">
hitter bat
</text>
</g>
<g>
<text x="65" y="44">
0.5
</text>
</g>
<g>
<text x="89" y="108">
0.75
</text>
</g>
<g>
<text x="97" y="188">
0.1
</text>
</g>
<g>
<text x="113" y="428">
0.15
</text>
</g>
<g>
<text x="145" y="316">
0.9
</text>
</g>
<g>
<text x="177" y="28">
SOURCE
</text>
</g>
<g>
<text x="185" y="204">
miss
</text>
</g>
<g>
<text x="185" y="268">
0.1
</text>
</g>
<g>
<text x="185" y="364">
0.1
</text>
</g>
<g>
<text x="185" y="444">
foul
</text>
</g>
<g>
<text x="193" y="124">
hit
</text>
</g>
<g>
<text x="225" y="316">
0.9
</text>
</g>
<g>
<text x="257" y="428">
0.4
</text>
</g>
<g>
<text x="281" y="108">
0.5
</text>
</g>
<g>
<text x="281" y="188">
0.1
</text>
</g>
<g>
<text x="281" y="300">
fouler bat
</text>
</g>
<g>
<text x="305" y="44">
0.5
</text>
</g>
</svg>
