<svg class="bob" font-family="arial" font-size="14" height="288" width="584" xmlns="http://www.w3.org/2000/svg">
<defs>
<marker id="triangle" markerHeight="8" markerWidth="8" orient="auto" refX="4" refY="2" viewBox="0 0 8 4">
<polygon class="fg_fill" points="0,0 0,4 8,2 0,0"/>
</marker>
<marker id="clear_triangle" markerHeight="10" markerWidth="10" orient="auto" refX="1" refY="7" viewBox="0 0 20 14">
<polygon class="bg_fill" points="2,2 2,12 18,7 2,2"/>
</marker>
<marker id="circle" markerHeight="5" markerWidth="5" orient="auto" refX="10" refY="10" viewBox="0 0 20 20">
<circle class="fg_fill" cx="10" cy="10" r="8"/>
</marker>
<marker id="square" markerHeight="5" markerWidth="5" orient="auto" refX="10" refY="10" viewBox="0 0 20 20">
<rect class="fg_fill" height="20" width="20" x="0" y="0"/>
</marker>
<marker id="open_circle" markerHeight="10" markerWidth="10" orient="auto" refX="10" refY="10" viewBox="0 0 20 20">
<circle class="bg_fill" cx="10" cy="10" r="4"/>
</marker>
<marker id="big_open_circle" markerHeight="20" markerWidth="20" orient="auto" refX="20" refY="20" viewBox="0 0 40 40">
<circle class="bg_fill" cx="20" cy="20" r="6"/>
</marker>
</defs>
<style type="text/css">

rect.backdrop {
    fill: white;
}
text{
    fill: black;
}

circle {
    fill: none;
    stroke: black;
    stroke-width: 2;
}

line {
    stroke: black;
    stroke-width: 2;
    stroke-opacity: 1;
    fill-opacity: 1;
    stroke-linecap: round;
    stroke-linejoin: miter;
}

path {
    fill: none;
    stroke: black;
    stroke-width: 2;
    stroke-opacity: 1;
    fill-opacity: 1;
    stroke-linecap: round;
    stroke-linejoin: miter;
}

line.dashed {
    stroke-dasharray: 5;
}

.fg_fill {
    fill: black;
}


.bg_fill {
    fill: white;
    stroke: black;
    stroke-width: 2;
}

tspan.head{
    fill: none;
    stroke: none;
}
    
</style>
<rect class="backdrop" height="288" width="584" x="0" y="0"/>
<g>
<line marker-end="url(#triangle)" x1="68" x2="68" y1="80" y2="108"/>
</g>
<g>
<line marker-end="url(#triangle)" x1="104" x2="124" y1="280" y2="280"/>
<path d="M 100 276 A 4 4 0 0 0 104 280"/>
<line marker-start="url(#open_circle)" x1="100" x2="100" y1="232" y2="276"/>
<line marker-end="url(#triangle)" marker-start="url(#open_circle)" x1="100" x2="124" y1="232" y2="232"/>
</g>
<g>
<line marker-start="url(#circle)" x1="132" x2="128" y1="280" y2="280"/>
<line marker-end="url(#triangle)" marker-start="url(#circle)" x1="132" x2="156" y1="280" y2="280"/>
</g>
<g>
<line marker-end="url(#triangle)" x1="136" x2="156" y1="184" y2="184"/>
<path d="M 136 184 A 4 4 0 0 0 132 188"/>
<line marker-end="url(#open_circle)" x1="132" x2="132" y1="188" y2="232"/>
<line marker-start="url(#open_circle)" x1="132" x2="128" y1="232" y2="232"/>
<line marker-end="url(#triangle)" marker-start="url(#open_circle)" x1="132" x2="156" y1="232" y2="232"/>
</g>
<g>
<line marker-start="url(#circle)" x1="164" x2="160" y1="232" y2="232"/>
<line marker-end="url(#triangle)" marker-start="url(#circle)" x1="164" x2="188" y1="232" y2="232"/>
</g>
<g>
<line marker-start="url(#circle)" x1="164" x2="160" y1="280" y2="280"/>
<line marker-end="url(#triangle)" marker-start="url(#circle)" x1="164" x2="188" y1="280" y2="280"/>
</g>
<g>
<line marker-start="url(#circle)" x1="196" x2="192" y1="232" y2="232"/>
<line marker-end="url(#triangle)" marker-start="url(#circle)" x1="196" x2="220" y1="232" y2="232"/>
</g>
<g>
<line marker-start="url(#circle)" x1="196" x2="192" y1="280" y2="280"/>
<line marker-end="url(#triangle)" marker-start="url(#circle)" x1="196" x2="220" y1="280" y2="280"/>
</g>
<g>
<line marker-start="url(#circle)" x1="228" x2="224" y1="184" y2="184"/>
</g>
<g>
<line marker-start="url(#circle)" x1="228" x2="224" y1="232" y2="232"/>
</g>
<g>
<line marker-start="url(#circle)" x1="228" x2="224" y1="280" y2="280"/>
<line marker-end="url(#triangle)" marker-start="url(#circle)" x1="228" x2="252" y1="280" y2="280"/>
</g>
<g>
<line marker-start="url(#circle)" x1="260" x2="256" y1="280" y2="280"/>
</g>
<g>
<text x="1" y="12">
*
</text>
</g>
<g>
<text x="1" y="124">
T
</text>
</g>
<g>
<text x="17" y="12">
Searching for {rating, ration, rattle}. The highlighted scan position
</text>
</g>
<g>
<text x="17" y="28">
matches the trie walk below (hollow nodes are the nodes walked)
</text>
</g>
<g>
<text x="17" y="124">
h
</text>
</g>
<g>
<text x="17" y="220">
r
</text>
</g>
<g>
<text x="25" y="76">
scan position
</text>
</g>
<g>
<text x="33" y="124">
e
</text>
</g>
<g>
<text x="49" y="220">
a
</text>
</g>
<g>
<text x="65" y="124">
r
</text>
</g>
<g>
<text x="81" y="124">
a
</text>
</g>
<g>
<text x="81" y="220">
t
</text>
</g>
<g>
<text x="97" y="124">
t
</text>
</g>
<g>
<text x="113" y="124">
i
</text>
</g>
<g>
<text x="113" y="220">
i
</text>
</g>
<g>
<text x="113" y="268">
t
</text>
</g>
<g>
<text x="129" y="124">
n
</text>
</g>
<g>
<text x="145" y="124">
g
</text>
</g>
<g>
<text x="145" y="172">
n
</text>
</g>
<g>
<text x="145" y="220">
o
</text>
</g>
<g>
<text x="145" y="268">
t
</text>
</g>
<g>
<text x="177" y="124">
o
</text>
</g>
<g>
<text x="177" y="172">
g
</text>
</g>
<g>
<text x="177" y="220">
n
</text>
</g>
<g>
<text x="177" y="268">
l
</text>
</g>
<g>
<text x="193" y="124">
f
</text>
</g>
<g>
<text x="209" y="172">
¶
</text>
</g>
<g>
<text x="209" y="220">
¶
</text>
</g>
<g>
<text x="209" y="268">
e
</text>
</g>
<g>
<text x="225" y="124">
t
</text>
</g>
<g>
<text x="241" y="124">
h
</text>
</g>
<g>
<text x="241" y="268">
¶
</text>
</g>
<g>
<text x="257" y="124">
e
</text>
</g>
<g>
<text x="289" y="124">
m
</text>
</g>
<g>
<text x="305" y="124">
o
</text>
</g>
<g>
<text x="321" y="124">
v
</text>
</g>
<g>
<text x="337" y="124">
i
</text>
</g>
<g>
<text x="353" y="124">
e
</text>
</g>
<g>
<text x="385" y="124">
w
</text>
</g>
<g>
<text x="401" y="124">
a
</text>
</g>
<g>
<text x="417" y="124">
s
</text>
</g>
<g>
<text x="449" y="124">
g
</text>
</g>
<g>
<text x="465" y="124">
o
</text>
</g>
<g>
<text x="481" y="124">
o
</text>
</g>
<g>
<text x="497" y="124">
d
</text>
</g>
<g>
<text x="513" y="124">
.
</text>
</g>
<g>
<line marker-end="url(#triangle)" marker-start="url(#open_circle)" x1="4" x2="28" y1="232" y2="232"/>
</g>
<g>
<line marker-start="url(#open_circle)" x1="36" x2="32" y1="232" y2="232"/>
<line marker-end="url(#triangle)" marker-start="url(#open_circle)" x1="36" x2="60" y1="232" y2="232"/>
</g>
<g>
<line marker-start="url(#open_circle)" x1="68" x2="64" y1="232" y2="232"/>
<line marker-end="url(#triangle)" marker-start="url(#open_circle)" x1="68" x2="92" y1="232" y2="232"/>
</g>
<g>
<line marker-start="url(#open_circle)" x1="100" x2="96" y1="232" y2="232"/>
</g>
<g>
<line marker-start="url(#open_circle)" x1="164" x2="160" y1="184" y2="184"/>
<line marker-end="url(#triangle)" marker-start="url(#open_circle)" x1="164" x2="188" y1="184" y2="184"/>
</g>
<g>
<line marker-start="url(#open_circle)" x1="196" x2="192" y1="184" y2="184"/>
<line marker-end="url(#triangle)" marker-start="url(#open_circle)" x1="196" x2="220" y1="184" y2="184"/>
</g>
</svg>
