<svg class="bob" font-family="arial" font-size="14" height="272" width="504" xmlns="http://www.w3.org/2000/svg">
<defs>
<marker id="triangle" markerHeight="8" markerWidth="8" orient="auto" refX="4" refY="2" viewBox="0 0 8 4">
<polygon class="fg_fill" points="0,0 0,4 8,2 0,0"/>
</marker>
<marker id="clear_triangle" markerHeight="10" markerWidth="10" orient="auto" refX="1" refY="7" viewBox="0 0 20 14">
<polygon class="bg_fill" points="2,2 2,12 18,7 2,2"/>
</marker>
<marker id="circle" markerHeight="5" markerWidth="5" orient="auto" refX="10" refY="10" viewBox="0 0 20 20">
<circle class="fg_fill" cx="10" cy="10" r="8"/>
</marker>
<marker id="square" markerHeight="5" markerWidth="5" orient="auto" refX="10" refY="10" viewBox="0 0 20 20">
<rect class="fg_fill" height="20" width="20" x="0" y="0"/>
</marker>
<marker id="open_circle" markerHeight="10" markerWidth="10" orient="auto" refX="10" refY="10" viewBox="0 0 20 20">
<circle class="bg_fill" cx="10" cy="10" r="4"/>
</marker>
<marker id="big_open_circle" markerHeight="20" markerWidth="20" orient="auto" refX="20" refY="20" viewBox="0 0 40 40">
<circle class="bg_fill" cx="20" cy="20" r="6"/>
</marker>
</defs>
<style type="text/css">

rect.backdrop {
    fill: white;
}
text{
    fill: black;
}

circle {
    fill: none;
    stroke: black;
    stroke-width: 2;
}

line {
    stroke: black;
    stroke-width: 2;
    stroke-opacity: 1;
    fill-opacity: 1;
    stroke-linecap: round;
    stroke-linejoin: miter;
}

path {
    fill: none;
    stroke: black;
    stroke-width: 2;
    stroke-opacity: 1;
    fill-opacity: 1;
    stroke-linecap: round;
    stroke-linejoin: miter;
}

line.dashed {
    stroke-dasharray: 5;
}

.fg_fill {
    fill: black;
}


.bg_fill {
    fill: white;
    stroke: black;
    stroke-width: 2;
}

tspan.head{
    fill: none;
    stroke: none;
}
    
</style>
<rect class="backdrop" height="272" width="504" x="0" y="0"/>
<g>
<line x1="4" x2="236" y1="248" y2="248"/>
</g>
<g>
<line marker-end="url(#triangle)" marker-start="url(#circle)" x1="52" x2="100" y1="232" y2="232"/>
</g>
<g>
<line x1="60" x2="452" y1="88" y2="88"/>
</g>
<g>
<line marker-end="url(#triangle)" marker-start="url(#circle)" x1="76" x2="124" y1="72" y2="72"/>
</g>
<g>
<line marker-end="url(#triangle)" marker-start="url(#circle)" x1="124" x2="172" y1="232" y2="232"/>
</g>
<g>
<line marker-end="url(#triangle)" marker-start="url(#circle)" x1="148" x2="196" y1="72" y2="72"/>
</g>
<g>
<line marker-end="url(#triangle)" marker-start="url(#circle)" x1="244" x2="292" y1="72" y2="72"/>
</g>
<g>
<line x1="268" x2="500" y1="248" y2="248"/>
</g>
<g>
<line marker-end="url(#triangle)" marker-start="url(#circle)" x1="300" x2="348" y1="232" y2="232"/>
</g>
<g>
<line marker-end="url(#triangle)" marker-start="url(#circle)" x1="316" x2="420" y1="72" y2="72"/>
</g>
<g>
<line marker-end="url(#triangle)" marker-start="url(#circle)" x1="372" x2="476" y1="232" y2="232"/>
</g>
<g>
<text x="9" y="268">
5&#39;
</text>
</g>
<g>
<text x="41" y="268">
circular
</text>
</g>
<g>
<text x="65" y="108">
5&#39;
</text>
</g>
<g>
<text x="73" y="220">
A
</text>
</g>
<g>
<text x="97" y="60">
A
</text>
</g>
<g>
<text x="113" y="268">
chromosome1
</text>
</g>
<g>
<text x="145" y="220">
B
</text>
</g>
<g>
<text x="169" y="60">
B
</text>
</g>
<g>
<text x="193" y="108">
circular
</text>
</g>
<g>
<text x="217" y="268">
3&#39;
</text>
</g>
<g>
<text x="225" y="12">
BEFORE...
</text>
</g>
<g>
<text x="225" y="172">
AFTER...
</text>
</g>
<g>
<text x="265" y="60">
C
</text>
</g>
<g>
<text x="265" y="108">
chromosome
</text>
</g>
<g>
<text x="273" y="268">
5&#39;
</text>
</g>
<g>
<text x="305" y="268">
circular
</text>
</g>
<g>
<text x="321" y="220">
C
</text>
</g>
<g>
<text x="361" y="60">
D
</text>
</g>
<g>
<text x="377" y="268">
chromosome2
</text>
</g>
<g>
<text x="417" y="220">
D
</text>
</g>
<g>
<text x="433" y="108">
3&#39;
</text>
</g>
<g>
<text x="481" y="268">
3&#39;
</text>
</g>
</svg>
