<svg class="bob" font-family="arial" font-size="14" height="240" width="464" xmlns="http://www.w3.org/2000/svg">
<defs>
<marker id="triangle" markerHeight="8" markerWidth="8" orient="auto" refX="4" refY="2" viewBox="0 0 8 4">
<polygon class="fg_fill" points="0,0 0,4 8,2 0,0"/>
</marker>
<marker id="clear_triangle" markerHeight="10" markerWidth="10" orient="auto" refX="1" refY="7" viewBox="0 0 20 14">
<polygon class="bg_fill" points="2,2 2,12 18,7 2,2"/>
</marker>
<marker id="circle" markerHeight="5" markerWidth="5" orient="auto" refX="10" refY="10" viewBox="0 0 20 20">
<circle class="fg_fill" cx="10" cy="10" r="8"/>
</marker>
<marker id="square" markerHeight="5" markerWidth="5" orient="auto" refX="10" refY="10" viewBox="0 0 20 20">
<rect class="fg_fill" height="20" width="20" x="0" y="0"/>
</marker>
<marker id="open_circle" markerHeight="10" markerWidth="10" orient="auto" refX="10" refY="10" viewBox="0 0 20 20">
<circle class="bg_fill" cx="10" cy="10" r="4"/>
</marker>
<marker id="big_open_circle" markerHeight="20" markerWidth="20" orient="auto" refX="20" refY="20" viewBox="0 0 40 40">
<circle class="bg_fill" cx="20" cy="20" r="6"/>
</marker>
</defs>
<style type="text/css">

rect.backdrop {
    fill: white;
}
text{
    fill: black;
}

circle {
    fill: none;
    stroke: black;
    stroke-width: 2;
}

line {
    stroke: black;
    stroke-width: 2;
    stroke-opacity: 1;
    fill-opacity: 1;
    stroke-linecap: round;
    stroke-linejoin: miter;
}

path {
    fill: none;
    stroke: black;
    stroke-width: 2;
    stroke-opacity: 1;
    fill-opacity: 1;
    stroke-linecap: round;
    stroke-linejoin: miter;
}

line.dashed {
    stroke-dasharray: 5;
}

.fg_fill {
    fill: black;
}


.bg_fill {
    fill: white;
    stroke: black;
    stroke-width: 2;
}

tspan.head{
    fill: none;
    stroke: none;
}
    
</style>
<rect class="backdrop" height="240" width="464" x="0" y="0"/>
<g>
<line marker-end="url(#triangle)" x1="4" x2="4" y1="48" y2="76"/>
</g>
<g>
<line marker-end="url(#triangle)" x1="52" x2="52" y1="48" y2="76"/>
</g>
<g>
<line marker-end="url(#triangle)" x1="52" x2="52" y1="192" y2="220"/>
</g>
<g>
<line marker-end="url(#triangle)" x1="100" x2="100" y1="192" y2="220"/>
</g>
<g>
<text x="1" y="12">
*
</text>
</g>
<g>
<text x="1" y="44">
0
</text>
</g>
<g>
<text x="1" y="92">
a
</text>
</g>
<g>
<text x="1" y="140">
*
</text>
</g>
<g>
<text x="1" y="236">
a
</text>
</g>
<g>
<text x="17" y="12">
scan position 0 starts at index 0 and stops at index 3
</text>
</g>
<g>
<text x="17" y="92">
r
</text>
</g>
<g>
<text x="17" y="140">
scan position 1 hops ahead to start at index 4
</text>
</g>
<g>
<text x="17" y="156">
(instead of index 1) and stops at index 7
</text>
</g>
<g>
<text x="17" y="236">
r
</text>
</g>
<g>
<text x="33" y="92">
a
</text>
</g>
<g>
<text x="33" y="236">
a
</text>
</g>
<g>
<text x="49" y="44">
3
</text>
</g>
<g>
<text x="49" y="92">
t
</text>
</g>
<g>
<text x="49" y="188">
4
</text>
</g>
<g>
<text x="49" y="236">
t
</text>
</g>
<g>
<text x="65" y="92">
i
</text>
</g>
<g>
<text x="65" y="236">
i
</text>
</g>
<g>
<text x="81" y="92">
o
</text>
</g>
<g>
<text x="81" y="236">
o
</text>
</g>
<g>
<text x="97" y="92">
n
</text>
</g>
<g>
<text x="97" y="188">
7
</text>
</g>
<g>
<text x="97" y="236">
n
</text>
</g>
<g>
<text x="113" y="92">
s
</text>
</g>
<g>
<text x="113" y="236">
s
</text>
</g>
</svg>
