<svg class="bob" font-family="arial" font-size="14" height="208" width="320" xmlns="http://www.w3.org/2000/svg">
<defs>
<marker id="triangle" markerHeight="8" markerWidth="8" orient="auto" refX="4" refY="2" viewBox="0 0 8 4">
<polygon class="fg_fill" points="0,0 0,4 8,2 0,0"/>
</marker>
<marker id="clear_triangle" markerHeight="10" markerWidth="10" orient="auto" refX="1" refY="7" viewBox="0 0 20 14">
<polygon class="bg_fill" points="2,2 2,12 18,7 2,2"/>
</marker>
<marker id="circle" markerHeight="5" markerWidth="5" orient="auto" refX="10" refY="10" viewBox="0 0 20 20">
<circle class="fg_fill" cx="10" cy="10" r="8"/>
</marker>
<marker id="square" markerHeight="5" markerWidth="5" orient="auto" refX="10" refY="10" viewBox="0 0 20 20">
<rect class="fg_fill" height="20" width="20" x="0" y="0"/>
</marker>
<marker id="open_circle" markerHeight="10" markerWidth="10" orient="auto" refX="10" refY="10" viewBox="0 0 20 20">
<circle class="bg_fill" cx="10" cy="10" r="4"/>
</marker>
<marker id="big_open_circle" markerHeight="20" markerWidth="20" orient="auto" refX="20" refY="20" viewBox="0 0 40 40">
<circle class="bg_fill" cx="20" cy="20" r="6"/>
</marker>
</defs>
<style type="text/css">

rect.backdrop {
    fill: white;
}
text{
    fill: black;
}

circle {
    fill: none;
    stroke: black;
    stroke-width: 2;
}

line {
    stroke: black;
    stroke-width: 2;
    stroke-opacity: 1;
    fill-opacity: 1;
    stroke-linecap: round;
    stroke-linejoin: miter;
}

path {
    fill: none;
    stroke: black;
    stroke-width: 2;
    stroke-opacity: 1;
    fill-opacity: 1;
    stroke-linecap: round;
    stroke-linejoin: miter;
}

line.dashed {
    stroke-dasharray: 5;
}

.fg_fill {
    fill: black;
}


.bg_fill {
    fill: white;
    stroke: black;
    stroke-width: 2;
}

tspan.head{
    fill: none;
    stroke: none;
}
    
</style>
<rect class="backdrop" height="208" width="320" x="0" y="0"/>
<g>
<line x1="80" x2="112" y1="176" y2="112"/>
</g>
<g>
<line x1="120" x2="160" y1="96" y2="16"/>
</g>
<g>
<line x1="120" x2="152" y1="112" y2="176"/>
</g>
<g>
<line x1="168" x2="224" y1="16" y2="128"/>
</g>
<g>
<line x1="208" x2="224" y1="176" y2="144"/>
</g>
<g>
<line x1="232" x2="248" y1="144" y2="176"/>
</g>
<g>
<text x="1" y="188">
(age=0)
</text>
</g>
<g>
<text x="33" y="108">
(age=1.5)
</text>
</g>
<g>
<text x="65" y="140">
1.5
</text>
</g>
<g>
<text x="73" y="188">
a
</text>
</g>
<g>
<text x="105" y="60">
0.5
</text>
</g>
<g>
<text x="113" y="108">
f
</text>
</g>
<g>
<text x="113" y="204">
(age=0)
</text>
</g>
<g>
<text x="145" y="140">
1.5
</text>
</g>
<g>
<text x="153" y="188">
b
</text>
</g>
<g>
<text x="161" y="12">
g
</text>
</g>
<g>
<text x="177" y="12">
(age=2)
</text>
</g>
<g>
<text x="193" y="204">
(age=0)
</text>
</g>
<g>
<text x="201" y="60">
1
</text>
</g>
<g>
<text x="201" y="156">
1
</text>
</g>
<g>
<text x="201" y="188">
c
</text>
</g>
<g>
<text x="225" y="140">
e
</text>
</g>
<g>
<text x="241" y="140">
(age=1)
</text>
</g>
<g>
<text x="249" y="156">
1
</text>
</g>
<g>
<text x="249" y="188">
d
</text>
</g>
<g>
<text x="265" y="188">
(age=0)
</text>
</g>
</svg>
