<svg class="bob" font-family="arial" font-size="14" height="1024" width="768" xmlns="http://www.w3.org/2000/svg">
<defs>
<marker id="triangle" markerHeight="8" markerWidth="8" orient="auto" refX="4" refY="2" viewBox="0 0 8 4">
<polygon class="fg_fill" points="0,0 0,4 8,2 0,0"/>
</marker>
<marker id="clear_triangle" markerHeight="10" markerWidth="10" orient="auto" refX="1" refY="7" viewBox="0 0 20 14">
<polygon class="bg_fill" points="2,2 2,12 18,7 2,2"/>
</marker>
<marker id="circle" markerHeight="5" markerWidth="5" orient="auto" refX="10" refY="10" viewBox="0 0 20 20">
<circle class="fg_fill" cx="10" cy="10" r="8"/>
</marker>
<marker id="square" markerHeight="5" markerWidth="5" orient="auto" refX="10" refY="10" viewBox="0 0 20 20">
<rect class="fg_fill" height="20" width="20" x="0" y="0"/>
</marker>
<marker id="open_circle" markerHeight="10" markerWidth="10" orient="auto" refX="10" refY="10" viewBox="0 0 20 20">
<circle class="bg_fill" cx="10" cy="10" r="4"/>
</marker>
<marker id="big_open_circle" markerHeight="20" markerWidth="20" orient="auto" refX="20" refY="20" viewBox="0 0 40 40">
<circle class="bg_fill" cx="20" cy="20" r="6"/>
</marker>
</defs>
<style type="text/css">

rect.backdrop {
    fill: white;
}
text{
    fill: black;
}

circle {
    fill: none;
    stroke: black;
    stroke-width: 2;
}

line {
    stroke: black;
    stroke-width: 2;
    stroke-opacity: 1;
    fill-opacity: 1;
    stroke-linecap: round;
    stroke-linejoin: miter;
}

path {
    fill: none;
    stroke: black;
    stroke-width: 2;
    stroke-opacity: 1;
    fill-opacity: 1;
    stroke-linecap: round;
    stroke-linejoin: miter;
}

line.dashed {
    stroke-dasharray: 5;
}

.fg_fill {
    fill: black;
}


.bg_fill {
    fill: white;
    stroke: black;
    stroke-width: 2;
}

tspan.head{
    fill: none;
    stroke: none;
}
    
</style>
<rect class="backdrop" height="1024" width="768" x="0" y="0"/>
<g>
<line marker-end="url(#circle)" marker-start="url(#circle)" x1="4" x2="20" y1="40" y2="40"/>
<line marker-end="url(#circle)" marker-start="url(#circle)" x1="20" x2="36" y1="40" y2="40"/>
<line marker-end="url(#circle)" marker-start="url(#circle)" x1="36" x2="52" y1="40" y2="40"/>
<line marker-end="url(#circle)" marker-start="url(#circle)" x1="52" x2="324" y1="40" y2="40"/>
</g>
<g>
<line marker-end="url(#circle)" marker-start="url(#circle)" x1="4" x2="20" y1="136" y2="136"/>
<line marker-end="url(#circle)" marker-start="url(#circle)" x1="20" x2="36" y1="136" y2="136"/>
<line marker-end="url(#circle)" marker-start="url(#circle)" x1="36" x2="52" y1="136" y2="136"/>
<line marker-end="url(#circle)" marker-start="url(#circle)" x1="52" x2="324" y1="136" y2="136"/>
</g>
<g>
<line marker-end="url(#circle)" marker-start="url(#circle)" x1="4" x2="20" y1="232" y2="232"/>
<line marker-end="url(#circle)" marker-start="url(#circle)" x1="20" x2="36" y1="232" y2="232"/>
<line marker-end="url(#circle)" marker-start="url(#circle)" x1="36" x2="52" y1="232" y2="232"/>
<line marker-end="url(#circle)" marker-start="url(#circle)" x1="52" x2="324" y1="232" y2="232"/>
</g>
<g>
<line marker-end="url(#circle)" marker-start="url(#circle)" x1="4" x2="20" y1="328" y2="328"/>
<line marker-end="url(#circle)" marker-start="url(#circle)" x1="20" x2="36" y1="328" y2="328"/>
<line marker-end="url(#circle)" marker-start="url(#circle)" x1="36" x2="52" y1="328" y2="328"/>
<line marker-end="url(#circle)" marker-start="url(#circle)" x1="52" x2="324" y1="328" y2="328"/>
</g>
<g>
<line marker-end="url(#circle)" marker-start="url(#circle)" x1="4" x2="20" y1="424" y2="424"/>
<line marker-end="url(#circle)" marker-start="url(#circle)" x1="20" x2="36" y1="424" y2="424"/>
<line marker-end="url(#circle)" marker-start="url(#circle)" x1="36" x2="52" y1="424" y2="424"/>
<line marker-end="url(#circle)" marker-start="url(#circle)" x1="52" x2="324" y1="424" y2="424"/>
</g>
<g>
<line marker-end="url(#circle)" marker-start="url(#circle)" x1="4" x2="20" y1="520" y2="520"/>
<line marker-end="url(#circle)" marker-start="url(#circle)" x1="20" x2="36" y1="520" y2="520"/>
<line marker-end="url(#circle)" marker-start="url(#circle)" x1="36" x2="52" y1="520" y2="520"/>
<line marker-end="url(#circle)" marker-start="url(#circle)" x1="52" x2="324" y1="520" y2="520"/>
</g>
<g>
<line marker-end="url(#circle)" marker-start="url(#circle)" x1="4" x2="20" y1="616" y2="616"/>
<line marker-end="url(#circle)" marker-start="url(#circle)" x1="20" x2="36" y1="616" y2="616"/>
<line marker-end="url(#circle)" marker-start="url(#circle)" x1="36" x2="52" y1="616" y2="616"/>
<line marker-end="url(#circle)" marker-start="url(#circle)" x1="52" x2="324" y1="616" y2="616"/>
</g>
<g>
<line marker-end="url(#circle)" marker-start="url(#circle)" x1="4" x2="20" y1="712" y2="712"/>
<line marker-end="url(#circle)" marker-start="url(#circle)" x1="20" x2="36" y1="712" y2="712"/>
<line marker-end="url(#circle)" marker-start="url(#circle)" x1="36" x2="52" y1="712" y2="712"/>
<line marker-end="url(#circle)" marker-start="url(#circle)" x1="52" x2="324" y1="712" y2="712"/>
</g>
<g>
<line marker-end="url(#circle)" marker-start="url(#circle)" x1="4" x2="20" y1="808" y2="808"/>
<line marker-end="url(#circle)" marker-start="url(#circle)" x1="20" x2="36" y1="808" y2="808"/>
<line marker-end="url(#circle)" marker-start="url(#circle)" x1="36" x2="52" y1="808" y2="808"/>
<line marker-end="url(#circle)" marker-start="url(#circle)" x1="52" x2="324" y1="808" y2="808"/>
</g>
<g>
<line marker-end="url(#circle)" marker-start="url(#circle)" x1="4" x2="20" y1="904" y2="904"/>
<line marker-end="url(#circle)" marker-start="url(#circle)" x1="20" x2="36" y1="904" y2="904"/>
<line marker-end="url(#circle)" marker-start="url(#circle)" x1="36" x2="52" y1="904" y2="904"/>
<line marker-end="url(#circle)" marker-start="url(#circle)" x1="52" x2="324" y1="904" y2="904"/>
</g>
<g>
<line marker-end="url(#triangle)" x1="4" x2="4" y1="960" y2="988"/>
</g>
<g>
<line marker-end="url(#circle)" marker-start="url(#circle)" x1="4" x2="20" y1="1000" y2="1000"/>
<line marker-end="url(#circle)" marker-start="url(#circle)" x1="20" x2="36" y1="1000" y2="1000"/>
<line marker-end="url(#circle)" marker-start="url(#circle)" x1="36" x2="52" y1="1000" y2="1000"/>
<line marker-end="url(#circle)" marker-start="url(#circle)" x1="52" x2="324" y1="1000" y2="1000"/>
</g>
<g>
<line marker-end="url(#triangle)" x1="36" x2="36" y1="864" y2="892"/>
</g>
<g>
<line marker-end="url(#triangle)" x1="68" x2="68" y1="768" y2="796"/>
</g>
<g>
<line marker-end="url(#triangle)" x1="100" x2="100" y1="672" y2="700"/>
</g>
<g>
<line marker-end="url(#triangle)" x1="132" x2="132" y1="576" y2="604"/>
</g>
<g>
<line marker-end="url(#triangle)" x1="164" x2="164" y1="480" y2="508"/>
</g>
<g>
<line marker-end="url(#triangle)" x1="196" x2="196" y1="384" y2="412"/>
</g>
<g>
<line marker-end="url(#triangle)" x1="228" x2="228" y1="288" y2="316"/>
</g>
<g>
<line marker-end="url(#triangle)" x1="260" x2="260" y1="192" y2="220"/>
</g>
<g>
<line marker-end="url(#triangle)" x1="292" x2="292" y1="96" y2="124"/>
</g>
<g>
<line marker-end="url(#triangle)" x1="324" x2="324" y1="0" y2="28"/>
</g>
<g>
<text x="1" y="60">
0
</text>
</g>
<g>
<text x="1" y="156">
0
</text>
</g>
<g>
<text x="1" y="252">
0
</text>
</g>
<g>
<text x="1" y="348">
0
</text>
</g>
<g>
<text x="1" y="444">
0
</text>
</g>
<g>
<text x="1" y="540">
0
</text>
</g>
<g>
<text x="1" y="636">
0
</text>
</g>
<g>
<text x="1" y="732">
0
</text>
</g>
<g>
<text x="1" y="828">
0
</text>
</g>
<g>
<text x="1" y="924">
0
</text>
</g>
<g>
<text x="1" y="1020">
0
</text>
</g>
<g>
<text x="33" y="60">
1
</text>
</g>
<g>
<text x="33" y="156">
1
</text>
</g>
<g>
<text x="33" y="252">
1
</text>
</g>
<g>
<text x="33" y="348">
1
</text>
</g>
<g>
<text x="33" y="444">
1
</text>
</g>
<g>
<text x="33" y="540">
1
</text>
</g>
<g>
<text x="33" y="636">
1
</text>
</g>
<g>
<text x="33" y="732">
1
</text>
</g>
<g>
<text x="33" y="828">
1
</text>
</g>
<g>
<text x="33" y="924">
1
</text>
</g>
<g>
<text x="33" y="1020">
1
</text>
</g>
<g>
<text x="65" y="60">
2
</text>
</g>
<g>
<text x="65" y="156">
2
</text>
</g>
<g>
<text x="65" y="252">
2
</text>
</g>
<g>
<text x="65" y="348">
2
</text>
</g>
<g>
<text x="65" y="444">
2
</text>
</g>
<g>
<text x="65" y="540">
2
</text>
</g>
<g>
<text x="65" y="636">
2
</text>
</g>
<g>
<text x="65" y="732">
2
</text>
</g>
<g>
<text x="65" y="828">
2
</text>
</g>
<g>
<text x="65" y="924">
2
</text>
</g>
<g>
<text x="65" y="1020">
2
</text>
</g>
<g>
<text x="97" y="60">
3
</text>
</g>
<g>
<text x="97" y="156">
3
</text>
</g>
<g>
<text x="97" y="252">
3
</text>
</g>
<g>
<text x="97" y="348">
3
</text>
</g>
<g>
<text x="97" y="444">
3
</text>
</g>
<g>
<text x="97" y="540">
3
</text>
</g>
<g>
<text x="97" y="636">
3
</text>
</g>
<g>
<text x="97" y="732">
3
</text>
</g>
<g>
<text x="97" y="828">
3
</text>
</g>
<g>
<text x="97" y="924">
3
</text>
</g>
<g>
<text x="97" y="1020">
3
</text>
</g>
<g>
<text x="129" y="60">
4
</text>
</g>
<g>
<text x="129" y="156">
4
</text>
</g>
<g>
<text x="129" y="252">
4
</text>
</g>
<g>
<text x="129" y="348">
4
</text>
</g>
<g>
<text x="129" y="444">
4
</text>
</g>
<g>
<text x="129" y="540">
4
</text>
</g>
<g>
<text x="129" y="636">
4
</text>
</g>
<g>
<text x="129" y="732">
4
</text>
</g>
<g>
<text x="129" y="828">
4
</text>
</g>
<g>
<text x="129" y="924">
4
</text>
</g>
<g>
<text x="129" y="1020">
4
</text>
</g>
<g>
<text x="161" y="60">
5
</text>
</g>
<g>
<text x="161" y="156">
5
</text>
</g>
<g>
<text x="161" y="252">
5
</text>
</g>
<g>
<text x="161" y="348">
5
</text>
</g>
<g>
<text x="161" y="444">
5
</text>
</g>
<g>
<text x="161" y="540">
5
</text>
</g>
<g>
<text x="161" y="636">
5
</text>
</g>
<g>
<text x="161" y="732">
5
</text>
</g>
<g>
<text x="161" y="828">
5
</text>
</g>
<g>
<text x="161" y="924">
5
</text>
</g>
<g>
<text x="161" y="1020">
5
</text>
</g>
<g>
<text x="193" y="60">
6
</text>
</g>
<g>
<text x="193" y="156">
6
</text>
</g>
<g>
<text x="193" y="252">
6
</text>
</g>
<g>
<text x="193" y="348">
6
</text>
</g>
<g>
<text x="193" y="444">
6
</text>
</g>
<g>
<text x="193" y="540">
6
</text>
</g>
<g>
<text x="193" y="636">
6
</text>
</g>
<g>
<text x="193" y="732">
6
</text>
</g>
<g>
<text x="193" y="828">
6
</text>
</g>
<g>
<text x="193" y="924">
6
</text>
</g>
<g>
<text x="193" y="1020">
6
</text>
</g>
<g>
<text x="225" y="60">
7
</text>
</g>
<g>
<text x="225" y="156">
7
</text>
</g>
<g>
<text x="225" y="252">
7
</text>
</g>
<g>
<text x="225" y="348">
7
</text>
</g>
<g>
<text x="225" y="444">
7
</text>
</g>
<g>
<text x="225" y="540">
7
</text>
</g>
<g>
<text x="225" y="636">
7
</text>
</g>
<g>
<text x="225" y="732">
7
</text>
</g>
<g>
<text x="225" y="828">
7
</text>
</g>
<g>
<text x="225" y="924">
7
</text>
</g>
<g>
<text x="225" y="1020">
7
</text>
</g>
<g>
<text x="257" y="60">
8
</text>
</g>
<g>
<text x="257" y="156">
8
</text>
</g>
<g>
<text x="257" y="252">
8
</text>
</g>
<g>
<text x="257" y="348">
8
</text>
</g>
<g>
<text x="257" y="444">
8
</text>
</g>
<g>
<text x="257" y="540">
8
</text>
</g>
<g>
<text x="257" y="636">
8
</text>
</g>
<g>
<text x="257" y="732">
8
</text>
</g>
<g>
<text x="257" y="828">
8
</text>
</g>
<g>
<text x="257" y="924">
8
</text>
</g>
<g>
<text x="257" y="1020">
8
</text>
</g>
<g>
<text x="289" y="60">
9
</text>
</g>
<g>
<text x="289" y="156">
9
</text>
</g>
<g>
<text x="289" y="252">
9
</text>
</g>
<g>
<text x="289" y="348">
9
</text>
</g>
<g>
<text x="289" y="444">
9
</text>
</g>
<g>
<text x="289" y="540">
9
</text>
</g>
<g>
<text x="289" y="636">
9
</text>
</g>
<g>
<text x="289" y="732">
9
</text>
</g>
<g>
<text x="289" y="828">
9
</text>
</g>
<g>
<text x="289" y="924">
9
</text>
</g>
<g>
<text x="289" y="1020">
9
</text>
</g>
<g>
<text x="321" y="60">
10
</text>
</g>
<g>
<text x="321" y="156">
10
</text>
</g>
<g>
<text x="321" y="252">
10
</text>
</g>
<g>
<text x="321" y="348">
10
</text>
</g>
<g>
<text x="321" y="444">
10
</text>
</g>
<g>
<text x="321" y="540">
10
</text>
</g>
<g>
<text x="321" y="636">
10
</text>
</g>
<g>
<text x="321" y="732">
10
</text>
</g>
<g>
<text x="321" y="828">
10
</text>
</g>
<g>
<text x="321" y="924">
10
</text>
</g>
<g>
<text x="321" y="1020">
10
</text>
</g>
<g>
<text x="345" y="12">
center: 10
</text>
</g>
<g>
<text x="345" y="28">
k-centers score: 10
</text>
</g>
<g>
<text x="345" y="44">
k-means score: 68.7
</text>
</g>
<g>
<text x="345" y="108">
center: 9
</text>
</g>
<g>
<text x="345" y="124">
k-centers score: 9
</text>
</g>
<g>
<text x="345" y="140">
k-means score: 54.9
</text>
</g>
<g>
<text x="345" y="204">
center: 8
</text>
</g>
<g>
<text x="345" y="220">
k-centers score: 8
</text>
</g>
<g>
<text x="345" y="236">
k-means score: 43.1
</text>
</g>
<g>
<text x="345" y="300">
center: 7
</text>
</g>
<g>
<text x="345" y="316">
k-centers score: 7
</text>
</g>
<g>
<text x="345" y="332">
k-means score: 33.3
</text>
</g>
<g>
<text x="345" y="396">
center: 6
</text>
</g>
<g>
<text x="345" y="412">
k-centers score: 6
</text>
</g>
<g>
<text x="345" y="428">
k-means score: 25.5
</text>
</g>
<g>
<text x="345" y="492">
center: 5
</text>
</g>
<g>
<text x="345" y="508">
k-centers score: 5  (LOWEST K-CENTERS SCORE IN SET)
</text>
</g>
<g>
<text x="345" y="524">
k-means score: 19.7
</text>
</g>
<g>
<text x="345" y="588">
center: 4
</text>
</g>
<g>
<text x="345" y="604">
k-centers score: 6
</text>
</g>
<g>
<text x="345" y="620">
k-means score: 15.9
</text>
</g>
<g>
<text x="345" y="684">
center: 3
</text>
</g>
<g>
<text x="345" y="700">
k-centers score: 7
</text>
</g>
<g>
<text x="345" y="716">
k-means score: 14.1  (LOWEST K-MEANS SCORE IN SET)
</text>
</g>
<g>
<text x="345" y="780">
center: 2
</text>
</g>
<g>
<text x="345" y="796">
k-centers score: 8
</text>
</g>
<g>
<text x="345" y="812">
k-means score: 14.3
</text>
</g>
<g>
<text x="345" y="876">
center: 1
</text>
</g>
<g>
<text x="345" y="892">
k-centers score: 9
</text>
</g>
<g>
<text x="345" y="908">
k-means score: 16.5
</text>
</g>
<g>
<text x="345" y="972">
center: 0
</text>
</g>
<g>
<text x="345" y="988">
k-centers score: 10
</text>
</g>
<g>
<text x="345" y="1004">
k-means score: 20.7
</text>
</g>
</svg>
