<svg class="bob" font-family="arial" font-size="14" height="416" width="1160" xmlns="http://www.w3.org/2000/svg">
<defs>
<marker id="triangle" markerHeight="8" markerWidth="8" orient="auto" refX="4" refY="2" viewBox="0 0 8 4">
<polygon class="fg_fill" points="0,0 0,4 8,2 0,0"/>
</marker>
<marker id="clear_triangle" markerHeight="10" markerWidth="10" orient="auto" refX="1" refY="7" viewBox="0 0 20 14">
<polygon class="bg_fill" points="2,2 2,12 18,7 2,2"/>
</marker>
<marker id="circle" markerHeight="5" markerWidth="5" orient="auto" refX="10" refY="10" viewBox="0 0 20 20">
<circle class="fg_fill" cx="10" cy="10" r="8"/>
</marker>
<marker id="square" markerHeight="5" markerWidth="5" orient="auto" refX="10" refY="10" viewBox="0 0 20 20">
<rect class="fg_fill" height="20" width="20" x="0" y="0"/>
</marker>
<marker id="open_circle" markerHeight="10" markerWidth="10" orient="auto" refX="10" refY="10" viewBox="0 0 20 20">
<circle class="bg_fill" cx="10" cy="10" r="4"/>
</marker>
<marker id="big_open_circle" markerHeight="20" markerWidth="20" orient="auto" refX="20" refY="20" viewBox="0 0 40 40">
<circle class="bg_fill" cx="20" cy="20" r="6"/>
</marker>
</defs>
<style type="text/css">

rect.backdrop {
    fill: white;
}
text{
    fill: black;
}

circle {
    fill: none;
    stroke: black;
    stroke-width: 2;
}

line {
    stroke: black;
    stroke-width: 2;
    stroke-opacity: 1;
    fill-opacity: 1;
    stroke-linecap: round;
    stroke-linejoin: miter;
}

path {
    fill: none;
    stroke: black;
    stroke-width: 2;
    stroke-opacity: 1;
    fill-opacity: 1;
    stroke-linecap: round;
    stroke-linejoin: miter;
}

line.dashed {
    stroke-dasharray: 5;
}

.fg_fill {
    fill: black;
}


.bg_fill {
    fill: white;
    stroke: black;
    stroke-width: 2;
}

tspan.head{
    fill: none;
    stroke: none;
}
    
</style>
<rect class="backdrop" height="416" width="1160" x="0" y="0"/>
<g>
<line x1="36" x2="36" y1="112" y2="376"/>
<line x1="36" x2="312" y1="376" y2="376"/>
</g>
<g>
<line x1="48" x2="168" y1="352" y2="112"/>
</g>
<g>
<line x1="436" x2="436" y1="112" y2="376"/>
<line x1="436" x2="712" y1="376" y2="376"/>
</g>
<g>
<line x1="464" x2="576" y1="112" y2="336"/>
</g>
<g>
<line x1="836" x2="836" y1="112" y2="376"/>
<line x1="836" x2="1112" y1="376" y2="376"/>
</g>
<g>
<line x1="856" x2="1080" y1="264" y2="264"/>
</g>
<g>
<text x="1" y="12">
* r is the proximity quantity described above.
</text>
</g>
<g>
<text x="1" y="44">
vector A = (0, 1, 1, 0, 5,  2, 1, 6)
</text>
</g>
<g>
<text x="1" y="60">
vector B = (1, 0, 2, 0, 10, 0, 2, 14)
</text>
</g>
<g>
<text x="1" y="236">
B
</text>
</g>
<g>
<text x="17" y="124">
15
</text>
</g>
<g>
<text x="17" y="156">
13
</text>
</g>
<g>
<text x="17" y="188">
11
</text>
</g>
<g>
<text x="25" y="220">
9
</text>
</g>
<g>
<text x="25" y="252">
7
</text>
</g>
<g>
<text x="25" y="284">
5
</text>
</g>
<g>
<text x="25" y="316">
3
</text>
</g>
<g>
<text x="25" y="348">
1
</text>
</g>
<g>
<text x="41" y="348">
●
</text>
</g>
<g>
<text x="41" y="364">
●
</text>
</g>
<g>
<text x="65" y="332">
●
</text>
</g>
<g>
<text x="65" y="364">
●
</text>
</g>
<g>
<text x="65" y="396">
1
</text>
</g>
<g>
<text x="81" y="348">
●
</text>
</g>
<g>
<text x="97" y="396">
3
</text>
</g>
<g>
<text x="129" y="204">
●
</text>
</g>
<g>
<text x="129" y="396">
5
</text>
</g>
<g>
<text x="137" y="92">
r = 0.95
</text>
</g>
<g>
<text x="145" y="140">
●
</text>
</g>
<g>
<text x="161" y="396">
7
</text>
</g>
<g>
<text x="177" y="412">
A
</text>
</g>
<g>
<text x="193" y="396">
9
</text>
</g>
<g>
<text x="225" y="396">
11
</text>
</g>
<g>
<text x="257" y="396">
13
</text>
</g>
<g>
<text x="289" y="396">
15
</text>
</g>
<g>
<text x="401" y="44">
vector A = (1,  2.5, 3, 6.5, 8, 8.5, 9.5)
</text>
</g>
<g>
<text x="401" y="60">
vector B = (14, 11,  13,  2, 3, 2,   2)
</text>
</g>
<g>
<text x="401" y="236">
B
</text>
</g>
<g>
<text x="417" y="124">
15
</text>
</g>
<g>
<text x="417" y="156">
13
</text>
</g>
<g>
<text x="417" y="188">
11
</text>
</g>
<g>
<text x="425" y="220">
9
</text>
</g>
<g>
<text x="425" y="252">
7
</text>
</g>
<g>
<text x="425" y="284">
5
</text>
</g>
<g>
<text x="425" y="316">
3
</text>
</g>
<g>
<text x="425" y="348">
1
</text>
</g>
<g>
<text x="465" y="140">
●
</text>
</g>
<g>
<text x="465" y="396">
1
</text>
</g>
<g>
<text x="489" y="188">
●
</text>
</g>
<g>
<text x="497" y="156">
●
</text>
</g>
<g>
<text x="497" y="396">
3
</text>
</g>
<g>
<text x="529" y="92">
r = -0.95
</text>
</g>
<g>
<text x="529" y="396">
5
</text>
</g>
<g>
<text x="553" y="332">
●
</text>
</g>
<g>
<text x="561" y="396">
7
</text>
</g>
<g>
<text x="577" y="316">
●
</text>
</g>
<g>
<text x="577" y="412">
A
</text>
</g>
<g>
<text x="585" y="332">
●
</text>
</g>
<g>
<text x="593" y="396">
9
</text>
</g>
<g>
<text x="601" y="332">
●
</text>
</g>
<g>
<text x="625" y="396">
11
</text>
</g>
<g>
<text x="657" y="396">
13
</text>
</g>
<g>
<text x="689" y="396">
15
</text>
</g>
<g>
<text x="801" y="44">
vector A = (1, 3, 5, 7, 9, 11, 13)
</text>
</g>
<g>
<text x="801" y="60">
vector B = (5, 7, 5, 7, 5, 7,  5)
</text>
</g>
<g>
<text x="801" y="236">
B
</text>
</g>
<g>
<text x="817" y="124">
15
</text>
</g>
<g>
<text x="817" y="156">
13
</text>
</g>
<g>
<text x="817" y="188">
11
</text>
</g>
<g>
<text x="825" y="220">
9
</text>
</g>
<g>
<text x="825" y="252">
7
</text>
</g>
<g>
<text x="825" y="284">
5
</text>
</g>
<g>
<text x="825" y="316">
3
</text>
</g>
<g>
<text x="825" y="348">
1
</text>
</g>
<g>
<text x="865" y="284">
●
</text>
</g>
<g>
<text x="865" y="396">
1
</text>
</g>
<g>
<text x="897" y="252">
●
</text>
</g>
<g>
<text x="897" y="396">
3
</text>
</g>
<g>
<text x="921" y="92">
r = 0.0
</text>
</g>
<g>
<text x="929" y="284">
●
</text>
</g>
<g>
<text x="929" y="396">
5
</text>
</g>
<g>
<text x="961" y="252">
●
</text>
</g>
<g>
<text x="961" y="396">
7
</text>
</g>
<g>
<text x="977" y="412">
A
</text>
</g>
<g>
<text x="993" y="284">
●
</text>
</g>
<g>
<text x="993" y="396">
9
</text>
</g>
<g>
<text x="1025" y="252">
●
</text>
</g>
<g>
<text x="1025" y="396">
11
</text>
</g>
<g>
<text x="1057" y="284">
●
</text>
</g>
<g>
<text x="1057" y="396">
13
</text>
</g>
<g>
<text x="1089" y="396">
15
</text>
</g>
</svg>
