<svg class="bob" font-family="arial" font-size="14" height="416" width="696" xmlns="http://www.w3.org/2000/svg">
<defs>
<marker id="triangle" markerHeight="8" markerWidth="8" orient="auto" refX="4" refY="2" viewBox="0 0 8 4">
<polygon class="fg_fill" points="0,0 0,4 8,2 0,0"/>
</marker>
<marker id="clear_triangle" markerHeight="10" markerWidth="10" orient="auto" refX="1" refY="7" viewBox="0 0 20 14">
<polygon class="bg_fill" points="2,2 2,12 18,7 2,2"/>
</marker>
<marker id="circle" markerHeight="5" markerWidth="5" orient="auto" refX="10" refY="10" viewBox="0 0 20 20">
<circle class="fg_fill" cx="10" cy="10" r="8"/>
</marker>
<marker id="square" markerHeight="5" markerWidth="5" orient="auto" refX="10" refY="10" viewBox="0 0 20 20">
<rect class="fg_fill" height="20" width="20" x="0" y="0"/>
</marker>
<marker id="open_circle" markerHeight="10" markerWidth="10" orient="auto" refX="10" refY="10" viewBox="0 0 20 20">
<circle class="bg_fill" cx="10" cy="10" r="4"/>
</marker>
<marker id="big_open_circle" markerHeight="20" markerWidth="20" orient="auto" refX="20" refY="20" viewBox="0 0 40 40">
<circle class="bg_fill" cx="20" cy="20" r="6"/>
</marker>
</defs>
<style type="text/css">

rect.backdrop {
    fill: white;
}
text{
    fill: black;
}

circle {
    fill: none;
    stroke: black;
    stroke-width: 2;
}

line {
    stroke: black;
    stroke-width: 2;
    stroke-opacity: 1;
    fill-opacity: 1;
    stroke-linecap: round;
    stroke-linejoin: miter;
}

path {
    fill: none;
    stroke: black;
    stroke-width: 2;
    stroke-opacity: 1;
    fill-opacity: 1;
    stroke-linecap: round;
    stroke-linejoin: miter;
}

line.dashed {
    stroke-dasharray: 5;
}

.fg_fill {
    fill: black;
}


.bg_fill {
    fill: white;
    stroke: black;
    stroke-width: 2;
}

tspan.head{
    fill: none;
    stroke: none;
}
    
</style>
<rect class="backdrop" height="416" width="696" x="0" y="0"/>
<g>
<text x="1" y="12">
*
</text>
</g>
<g>
<text x="17" y="12">
I know the maximum alignment path travels through
</text>
</g>
<g>
<text x="17" y="28">
the node at row 2 column 2 (denoted by a larger
</text>
</g>
<g>
<text x="17" y="44">
circle). Sub-divide the graph at that node.
</text>
</g>
<g>
<text x="297" y="236">
sub-divide to...
</text>
</g>
<g>
<text x="433" y="412">
sub-graph1
</text>
</g>
<g>
<text x="569" y="412">
sub-graph 2
</text>
</g>
<g>
<line marker-end="url(#triangle)" marker-start="url(#open_circle)" x1="4" x2="4" y1="72" y2="140"/>
<line marker-end="url(#triangle)" marker-start="url(#open_circle)" x1="4" x2="36" y1="72" y2="72"/>
<line marker-end="url(#triangle)" marker-start="url(#open_circle)" x1="4" x2="38" y1="72" y2="140"/>
</g>
<g>
<line marker-end="url(#triangle)" marker-start="url(#open_circle)" x1="4" x2="4" y1="152" y2="220"/>
<line marker-end="url(#triangle)" marker-start="url(#open_circle)" x1="4" x2="36" y1="152" y2="152"/>
<line marker-end="url(#triangle)" marker-start="url(#open_circle)" x1="4" x2="38" y1="152" y2="220"/>
</g>
<g>
<line marker-end="url(#triangle)" marker-start="url(#open_circle)" x1="4" x2="4" y1="232" y2="300"/>
<line marker-end="url(#triangle)" marker-start="url(#open_circle)" x1="4" x2="36" y1="232" y2="232"/>
<line marker-end="url(#triangle)" marker-start="url(#open_circle)" x1="4" x2="38" y1="232" y2="300"/>
</g>
<g>
<line marker-end="url(#triangle)" marker-start="url(#open_circle)" x1="4" x2="4" y1="312" y2="380"/>
<line marker-end="url(#triangle)" marker-start="url(#open_circle)" x1="4" x2="36" y1="312" y2="312"/>
<line marker-end="url(#triangle)" marker-start="url(#open_circle)" x1="4" x2="38" y1="312" y2="380"/>
</g>
<g>
<line marker-end="url(#triangle)" marker-start="url(#open_circle)" x1="4" x2="36" y1="392" y2="392"/>
</g>
<g>
<line marker-start="url(#open_circle)" x1="44" x2="40" y1="72" y2="72"/>
<line marker-end="url(#triangle)" marker-start="url(#open_circle)" x1="44" x2="44" y1="72" y2="140"/>
<line marker-end="url(#triangle)" marker-start="url(#open_circle)" x1="44" x2="76" y1="72" y2="72"/>
<line marker-end="url(#triangle)" marker-start="url(#open_circle)" x1="44" x2="78" y1="72" y2="140"/>
</g>
<g>
<line marker-start="url(#open_circle)" x1="44" x2="40" y1="152" y2="152"/>
<line marker-end="url(#triangle)" marker-start="url(#open_circle)" x1="44" x2="44" y1="152" y2="220"/>
<line marker-end="url(#triangle)" marker-start="url(#open_circle)" x1="44" x2="76" y1="152" y2="152"/>
<line marker-end="url(#triangle)" marker-start="url(#open_circle)" x1="44" x2="78" y1="152" y2="220"/>
</g>
<g>
<line marker-start="url(#open_circle)" x1="44" x2="40" y1="232" y2="232"/>
<line marker-end="url(#triangle)" marker-start="url(#open_circle)" x1="44" x2="44" y1="232" y2="300"/>
<line marker-end="url(#triangle)" marker-start="url(#open_circle)" x1="44" x2="76" y1="232" y2="232"/>
<line marker-end="url(#triangle)" marker-start="url(#open_circle)" x1="44" x2="78" y1="232" y2="300"/>
</g>
<g>
<line marker-start="url(#open_circle)" x1="44" x2="40" y1="312" y2="312"/>
<line marker-end="url(#triangle)" marker-start="url(#open_circle)" x1="44" x2="44" y1="312" y2="380"/>
<line marker-end="url(#triangle)" marker-start="url(#open_circle)" x1="44" x2="76" y1="312" y2="312"/>
<line marker-end="url(#triangle)" marker-start="url(#open_circle)" x1="44" x2="78" y1="312" y2="380"/>
</g>
<g>
<line marker-start="url(#open_circle)" x1="44" x2="40" y1="392" y2="392"/>
<line marker-end="url(#triangle)" marker-start="url(#open_circle)" x1="44" x2="76" y1="392" y2="392"/>
</g>
<g>
<line marker-start="url(#open_circle)" x1="84" x2="80" y1="72" y2="72"/>
<line marker-end="url(#triangle)" marker-start="url(#open_circle)" x1="84" x2="84" y1="72" y2="140"/>
<line marker-end="url(#triangle)" marker-start="url(#open_circle)" x1="84" x2="116" y1="72" y2="72"/>
<line marker-end="url(#triangle)" marker-start="url(#open_circle)" x1="84" x2="118" y1="72" y2="140"/>
</g>
<g>
<line marker-start="url(#open_circle)" x1="84" x2="80" y1="152" y2="152"/>
<line marker-end="url(#triangle)" marker-start="url(#open_circle)" x1="84" x2="84" y1="152" y2="220"/>
<line marker-end="url(#triangle)" marker-start="url(#open_circle)" x1="84" x2="116" y1="152" y2="152"/>
<line marker-end="url(#triangle)" marker-start="url(#open_circle)" x1="84" x2="118" y1="152" y2="220"/>
</g>
<g>
<line marker-start="url(#big_open_circle)" x1="84" x2="80" y1="232" y2="232"/>
<line marker-end="url(#triangle)" marker-start="url(#big_open_circle)" x1="84" x2="84" y1="232" y2="300"/>
<line marker-end="url(#triangle)" marker-start="url(#big_open_circle)" x1="84" x2="116" y1="232" y2="232"/>
<line marker-end="url(#triangle)" marker-start="url(#big_open_circle)" x1="84" x2="118" y1="232" y2="300"/>
</g>
<g>
<line marker-start="url(#open_circle)" x1="84" x2="80" y1="312" y2="312"/>
<line marker-end="url(#triangle)" marker-start="url(#open_circle)" x1="84" x2="84" y1="312" y2="380"/>
<line marker-end="url(#triangle)" marker-start="url(#open_circle)" x1="84" x2="116" y1="312" y2="312"/>
<line marker-end="url(#triangle)" marker-start="url(#open_circle)" x1="84" x2="118" y1="312" y2="380"/>
</g>
<g>
<line marker-start="url(#open_circle)" x1="84" x2="80" y1="392" y2="392"/>
<line marker-end="url(#triangle)" marker-start="url(#open_circle)" x1="84" x2="116" y1="392" y2="392"/>
</g>
<g>
<line marker-start="url(#open_circle)" x1="124" x2="120" y1="72" y2="72"/>
<line marker-end="url(#triangle)" marker-start="url(#open_circle)" x1="124" x2="124" y1="72" y2="140"/>
<line marker-end="url(#triangle)" marker-start="url(#open_circle)" x1="124" x2="156" y1="72" y2="72"/>
<line marker-end="url(#triangle)" marker-start="url(#open_circle)" x1="124" x2="158" y1="72" y2="140"/>
</g>
<g>
<line marker-start="url(#open_circle)" x1="124" x2="120" y1="152" y2="152"/>
<line marker-end="url(#triangle)" marker-start="url(#open_circle)" x1="124" x2="124" y1="152" y2="220"/>
<line marker-end="url(#triangle)" marker-start="url(#open_circle)" x1="124" x2="156" y1="152" y2="152"/>
<line marker-end="url(#triangle)" marker-start="url(#open_circle)" x1="124" x2="158" y1="152" y2="220"/>
</g>
<g>
<line marker-start="url(#open_circle)" x1="124" x2="120" y1="232" y2="232"/>
<line marker-end="url(#triangle)" marker-start="url(#open_circle)" x1="124" x2="124" y1="232" y2="300"/>
<line marker-end="url(#triangle)" marker-start="url(#open_circle)" x1="124" x2="156" y1="232" y2="232"/>
<line marker-end="url(#triangle)" marker-start="url(#open_circle)" x1="124" x2="158" y1="232" y2="300"/>
</g>
<g>
<line marker-start="url(#open_circle)" x1="124" x2="120" y1="312" y2="312"/>
<line marker-end="url(#triangle)" marker-start="url(#open_circle)" x1="124" x2="124" y1="312" y2="380"/>
<line marker-end="url(#triangle)" marker-start="url(#open_circle)" x1="124" x2="156" y1="312" y2="312"/>
<line marker-end="url(#triangle)" marker-start="url(#open_circle)" x1="124" x2="158" y1="312" y2="380"/>
</g>
<g>
<line marker-start="url(#open_circle)" x1="124" x2="120" y1="392" y2="392"/>
<line marker-end="url(#triangle)" marker-start="url(#open_circle)" x1="124" x2="156" y1="392" y2="392"/>
</g>
<g>
<line marker-start="url(#open_circle)" x1="164" x2="160" y1="72" y2="72"/>
<line marker-end="url(#triangle)" marker-start="url(#open_circle)" x1="164" x2="164" y1="72" y2="140"/>
<line marker-end="url(#triangle)" marker-start="url(#open_circle)" x1="164" x2="196" y1="72" y2="72"/>
<line marker-end="url(#triangle)" marker-start="url(#open_circle)" x1="164" x2="198" y1="72" y2="140"/>
</g>
<g>
<line marker-start="url(#open_circle)" x1="164" x2="160" y1="152" y2="152"/>
<line marker-end="url(#triangle)" marker-start="url(#open_circle)" x1="164" x2="164" y1="152" y2="220"/>
<line marker-end="url(#triangle)" marker-start="url(#open_circle)" x1="164" x2="196" y1="152" y2="152"/>
<line marker-end="url(#triangle)" marker-start="url(#open_circle)" x1="164" x2="198" y1="152" y2="220"/>
</g>
<g>
<line marker-start="url(#open_circle)" x1="164" x2="160" y1="232" y2="232"/>
<line marker-end="url(#triangle)" marker-start="url(#open_circle)" x1="164" x2="164" y1="232" y2="300"/>
<line marker-end="url(#triangle)" marker-start="url(#open_circle)" x1="164" x2="196" y1="232" y2="232"/>
<line marker-end="url(#triangle)" marker-start="url(#open_circle)" x1="164" x2="198" y1="232" y2="300"/>
</g>
<g>
<line marker-start="url(#open_circle)" x1="164" x2="160" y1="312" y2="312"/>
<line marker-end="url(#triangle)" marker-start="url(#open_circle)" x1="164" x2="164" y1="312" y2="380"/>
<line marker-end="url(#triangle)" marker-start="url(#open_circle)" x1="164" x2="196" y1="312" y2="312"/>
<line marker-end="url(#triangle)" marker-start="url(#open_circle)" x1="164" x2="198" y1="312" y2="380"/>
</g>
<g>
<line marker-start="url(#open_circle)" x1="164" x2="160" y1="392" y2="392"/>
<line marker-end="url(#triangle)" marker-start="url(#open_circle)" x1="164" x2="196" y1="392" y2="392"/>
</g>
<g>
<line marker-start="url(#open_circle)" x1="204" x2="200" y1="72" y2="72"/>
<line marker-end="url(#triangle)" marker-start="url(#open_circle)" x1="204" x2="204" y1="72" y2="140"/>
</g>
<g>
<line marker-start="url(#open_circle)" x1="204" x2="200" y1="152" y2="152"/>
<line marker-end="url(#triangle)" marker-start="url(#open_circle)" x1="204" x2="204" y1="152" y2="220"/>
</g>
<g>
<line marker-start="url(#open_circle)" x1="204" x2="200" y1="232" y2="232"/>
<line marker-end="url(#triangle)" marker-start="url(#open_circle)" x1="204" x2="204" y1="232" y2="300"/>
</g>
<g>
<line marker-start="url(#open_circle)" x1="204" x2="200" y1="312" y2="312"/>
<line marker-end="url(#triangle)" marker-start="url(#open_circle)" x1="204" x2="204" y1="312" y2="380"/>
</g>
<g>
<line marker-start="url(#open_circle)" x1="204" x2="200" y1="392" y2="392"/>
</g>
<g>
<line marker-end="url(#triangle)" marker-start="url(#open_circle)" x1="436" x2="436" y1="72" y2="140"/>
<line marker-end="url(#triangle)" marker-start="url(#open_circle)" x1="436" x2="468" y1="72" y2="72"/>
<line marker-end="url(#triangle)" marker-start="url(#open_circle)" x1="436" x2="470" y1="72" y2="140"/>
</g>
<g>
<line marker-end="url(#triangle)" marker-start="url(#open_circle)" x1="436" x2="436" y1="152" y2="220"/>
<line marker-end="url(#triangle)" marker-start="url(#open_circle)" x1="436" x2="468" y1="152" y2="152"/>
<line marker-end="url(#triangle)" marker-start="url(#open_circle)" x1="436" x2="470" y1="152" y2="220"/>
</g>
<g>
<line marker-end="url(#triangle)" marker-start="url(#open_circle)" x1="436" x2="436" y1="232" y2="300"/>
<line marker-end="url(#triangle)" marker-start="url(#open_circle)" x1="436" x2="468" y1="232" y2="232"/>
<line marker-end="url(#triangle)" marker-start="url(#open_circle)" x1="436" x2="470" y1="232" y2="300"/>
</g>
<g>
<line marker-end="url(#triangle)" marker-start="url(#open_circle)" x1="436" x2="436" y1="312" y2="380"/>
<line marker-end="url(#triangle)" marker-start="url(#open_circle)" x1="436" x2="468" y1="312" y2="312"/>
<line marker-end="url(#triangle)" marker-start="url(#open_circle)" x1="436" x2="470" y1="312" y2="380"/>
</g>
<g>
<line marker-end="url(#triangle)" marker-start="url(#open_circle)" x1="436" x2="468" y1="392" y2="392"/>
</g>
<g>
<line marker-start="url(#open_circle)" x1="476" x2="472" y1="72" y2="72"/>
<line marker-end="url(#triangle)" marker-start="url(#open_circle)" x1="476" x2="476" y1="72" y2="140"/>
<line marker-end="url(#triangle)" marker-start="url(#open_circle)" x1="476" x2="508" y1="72" y2="72"/>
<line marker-end="url(#triangle)" marker-start="url(#open_circle)" x1="476" x2="510" y1="72" y2="140"/>
</g>
<g>
<line marker-start="url(#open_circle)" x1="476" x2="472" y1="152" y2="152"/>
<line marker-end="url(#triangle)" marker-start="url(#open_circle)" x1="476" x2="476" y1="152" y2="220"/>
<line marker-end="url(#triangle)" marker-start="url(#open_circle)" x1="476" x2="508" y1="152" y2="152"/>
<line marker-end="url(#triangle)" marker-start="url(#open_circle)" x1="476" x2="510" y1="152" y2="220"/>
</g>
<g>
<line marker-start="url(#open_circle)" x1="476" x2="472" y1="232" y2="232"/>
<line marker-end="url(#triangle)" marker-start="url(#open_circle)" x1="476" x2="476" y1="232" y2="300"/>
<line marker-end="url(#triangle)" marker-start="url(#open_circle)" x1="476" x2="508" y1="232" y2="232"/>
<line marker-end="url(#triangle)" marker-start="url(#open_circle)" x1="476" x2="510" y1="232" y2="300"/>
</g>
<g>
<line marker-start="url(#open_circle)" x1="476" x2="472" y1="312" y2="312"/>
<line marker-end="url(#triangle)" marker-start="url(#open_circle)" x1="476" x2="476" y1="312" y2="380"/>
<line marker-end="url(#triangle)" marker-start="url(#open_circle)" x1="476" x2="508" y1="312" y2="312"/>
<line marker-end="url(#triangle)" marker-start="url(#open_circle)" x1="476" x2="510" y1="312" y2="380"/>
</g>
<g>
<line marker-start="url(#open_circle)" x1="476" x2="472" y1="392" y2="392"/>
<line marker-end="url(#triangle)" marker-start="url(#open_circle)" x1="476" x2="508" y1="392" y2="392"/>
</g>
<g>
<line marker-start="url(#open_circle)" x1="516" x2="512" y1="72" y2="72"/>
<line marker-end="url(#triangle)" marker-start="url(#open_circle)" x1="516" x2="516" y1="72" y2="140"/>
</g>
<g>
<line marker-start="url(#open_circle)" x1="516" x2="512" y1="152" y2="152"/>
<line marker-end="url(#triangle)" marker-start="url(#open_circle)" x1="516" x2="516" y1="152" y2="220"/>
</g>
<g>
<line marker-start="url(#big_open_circle)" x1="516" x2="512" y1="232" y2="232"/>
<line marker-end="url(#triangle)" marker-start="url(#big_open_circle)" x1="516" x2="516" y1="232" y2="300"/>
</g>
<g>
<line marker-start="url(#open_circle)" x1="516" x2="512" y1="312" y2="312"/>
<line marker-end="url(#triangle)" marker-start="url(#open_circle)" x1="516" x2="516" y1="312" y2="380"/>
</g>
<g>
<line marker-start="url(#open_circle)" x1="516" x2="512" y1="392" y2="392"/>
</g>
<g>
<line marker-end="url(#triangle)" marker-start="url(#open_circle)" x1="556" x2="556" y1="72" y2="140"/>
<line marker-end="url(#triangle)" marker-start="url(#open_circle)" x1="556" x2="588" y1="72" y2="72"/>
<line marker-end="url(#triangle)" marker-start="url(#open_circle)" x1="556" x2="590" y1="72" y2="140"/>
</g>
<g>
<line marker-end="url(#triangle)" marker-start="url(#open_circle)" x1="556" x2="556" y1="152" y2="220"/>
<line marker-end="url(#triangle)" marker-start="url(#open_circle)" x1="556" x2="588" y1="152" y2="152"/>
<line marker-end="url(#triangle)" marker-start="url(#open_circle)" x1="556" x2="590" y1="152" y2="220"/>
</g>
<g>
<line marker-end="url(#triangle)" marker-start="url(#big_open_circle)" x1="556" x2="556" y1="232" y2="300"/>
<line marker-end="url(#triangle)" marker-start="url(#big_open_circle)" x1="556" x2="588" y1="232" y2="232"/>
<line marker-end="url(#triangle)" marker-start="url(#big_open_circle)" x1="556" x2="590" y1="232" y2="300"/>
</g>
<g>
<line marker-end="url(#triangle)" marker-start="url(#open_circle)" x1="556" x2="556" y1="312" y2="380"/>
<line marker-end="url(#triangle)" marker-start="url(#open_circle)" x1="556" x2="588" y1="312" y2="312"/>
<line marker-end="url(#triangle)" marker-start="url(#open_circle)" x1="556" x2="590" y1="312" y2="380"/>
</g>
<g>
<line marker-end="url(#triangle)" marker-start="url(#open_circle)" x1="556" x2="588" y1="392" y2="392"/>
</g>
<g>
<line marker-start="url(#open_circle)" x1="596" x2="592" y1="72" y2="72"/>
<line marker-end="url(#triangle)" marker-start="url(#open_circle)" x1="596" x2="596" y1="72" y2="140"/>
<line marker-end="url(#triangle)" marker-start="url(#open_circle)" x1="596" x2="628" y1="72" y2="72"/>
<line marker-end="url(#triangle)" marker-start="url(#open_circle)" x1="596" x2="630" y1="72" y2="140"/>
</g>
<g>
<line marker-start="url(#open_circle)" x1="596" x2="592" y1="152" y2="152"/>
<line marker-end="url(#triangle)" marker-start="url(#open_circle)" x1="596" x2="596" y1="152" y2="220"/>
<line marker-end="url(#triangle)" marker-start="url(#open_circle)" x1="596" x2="628" y1="152" y2="152"/>
<line marker-end="url(#triangle)" marker-start="url(#open_circle)" x1="596" x2="630" y1="152" y2="220"/>
</g>
<g>
<line marker-start="url(#open_circle)" x1="596" x2="592" y1="232" y2="232"/>
<line marker-end="url(#triangle)" marker-start="url(#open_circle)" x1="596" x2="596" y1="232" y2="300"/>
<line marker-end="url(#triangle)" marker-start="url(#open_circle)" x1="596" x2="628" y1="232" y2="232"/>
<line marker-end="url(#triangle)" marker-start="url(#open_circle)" x1="596" x2="630" y1="232" y2="300"/>
</g>
<g>
<line marker-start="url(#open_circle)" x1="596" x2="592" y1="312" y2="312"/>
<line marker-end="url(#triangle)" marker-start="url(#open_circle)" x1="596" x2="596" y1="312" y2="380"/>
<line marker-end="url(#triangle)" marker-start="url(#open_circle)" x1="596" x2="628" y1="312" y2="312"/>
<line marker-end="url(#triangle)" marker-start="url(#open_circle)" x1="596" x2="630" y1="312" y2="380"/>
</g>
<g>
<line marker-start="url(#open_circle)" x1="596" x2="592" y1="392" y2="392"/>
<line marker-end="url(#triangle)" marker-start="url(#open_circle)" x1="596" x2="628" y1="392" y2="392"/>
</g>
<g>
<line marker-start="url(#open_circle)" x1="636" x2="632" y1="72" y2="72"/>
<line marker-end="url(#triangle)" marker-start="url(#open_circle)" x1="636" x2="636" y1="72" y2="140"/>
<line marker-end="url(#triangle)" marker-start="url(#open_circle)" x1="636" x2="668" y1="72" y2="72"/>
<line marker-end="url(#triangle)" marker-start="url(#open_circle)" x1="636" x2="670" y1="72" y2="140"/>
</g>
<g>
<line marker-start="url(#open_circle)" x1="636" x2="632" y1="152" y2="152"/>
<line marker-end="url(#triangle)" marker-start="url(#open_circle)" x1="636" x2="636" y1="152" y2="220"/>
<line marker-end="url(#triangle)" marker-start="url(#open_circle)" x1="636" x2="668" y1="152" y2="152"/>
<line marker-end="url(#triangle)" marker-start="url(#open_circle)" x1="636" x2="670" y1="152" y2="220"/>
</g>
<g>
<line marker-start="url(#open_circle)" x1="636" x2="632" y1="232" y2="232"/>
<line marker-end="url(#triangle)" marker-start="url(#open_circle)" x1="636" x2="636" y1="232" y2="300"/>
<line marker-end="url(#triangle)" marker-start="url(#open_circle)" x1="636" x2="668" y1="232" y2="232"/>
<line marker-end="url(#triangle)" marker-start="url(#open_circle)" x1="636" x2="670" y1="232" y2="300"/>
</g>
<g>
<line marker-start="url(#open_circle)" x1="636" x2="632" y1="312" y2="312"/>
<line marker-end="url(#triangle)" marker-start="url(#open_circle)" x1="636" x2="636" y1="312" y2="380"/>
<line marker-end="url(#triangle)" marker-start="url(#open_circle)" x1="636" x2="668" y1="312" y2="312"/>
<line marker-end="url(#triangle)" marker-start="url(#open_circle)" x1="636" x2="670" y1="312" y2="380"/>
</g>
<g>
<line marker-start="url(#open_circle)" x1="636" x2="632" y1="392" y2="392"/>
<line marker-end="url(#triangle)" marker-start="url(#open_circle)" x1="636" x2="668" y1="392" y2="392"/>
</g>
<g>
<line marker-start="url(#open_circle)" x1="676" x2="672" y1="72" y2="72"/>
<line marker-end="url(#triangle)" marker-start="url(#open_circle)" x1="676" x2="676" y1="72" y2="140"/>
</g>
<g>
<line marker-start="url(#open_circle)" x1="676" x2="672" y1="152" y2="152"/>
<line marker-end="url(#triangle)" marker-start="url(#open_circle)" x1="676" x2="676" y1="152" y2="220"/>
</g>
<g>
<line marker-start="url(#open_circle)" x1="676" x2="672" y1="232" y2="232"/>
<line marker-end="url(#triangle)" marker-start="url(#open_circle)" x1="676" x2="676" y1="232" y2="300"/>
</g>
<g>
<line marker-start="url(#open_circle)" x1="676" x2="672" y1="312" y2="312"/>
<line marker-end="url(#triangle)" marker-start="url(#open_circle)" x1="676" x2="676" y1="312" y2="380"/>
</g>
<g>
<line marker-start="url(#open_circle)" x1="676" x2="672" y1="392" y2="392"/>
</g>
</svg>
