<svg class="bob" font-family="arial" font-size="14" height="80" width="616" xmlns="http://www.w3.org/2000/svg">
<defs>
<marker id="triangle" markerHeight="8" markerWidth="8" orient="auto" refX="4" refY="2" viewBox="0 0 8 4">
<polygon class="fg_fill" points="0,0 0,4 8,2 0,0"/>
</marker>
<marker id="clear_triangle" markerHeight="10" markerWidth="10" orient="auto" refX="1" refY="7" viewBox="0 0 20 14">
<polygon class="bg_fill" points="2,2 2,12 18,7 2,2"/>
</marker>
<marker id="circle" markerHeight="5" markerWidth="5" orient="auto" refX="10" refY="10" viewBox="0 0 20 20">
<circle class="fg_fill" cx="10" cy="10" r="8"/>
</marker>
<marker id="square" markerHeight="5" markerWidth="5" orient="auto" refX="10" refY="10" viewBox="0 0 20 20">
<rect class="fg_fill" height="20" width="20" x="0" y="0"/>
</marker>
<marker id="open_circle" markerHeight="10" markerWidth="10" orient="auto" refX="10" refY="10" viewBox="0 0 20 20">
<circle class="bg_fill" cx="10" cy="10" r="4"/>
</marker>
<marker id="big_open_circle" markerHeight="20" markerWidth="20" orient="auto" refX="20" refY="20" viewBox="0 0 40 40">
<circle class="bg_fill" cx="20" cy="20" r="6"/>
</marker>
</defs>
<style type="text/css">

rect.backdrop {
    fill: white;
}
text{
    fill: black;
}

circle {
    fill: none;
    stroke: black;
    stroke-width: 2;
}

line {
    stroke: black;
    stroke-width: 2;
    stroke-opacity: 1;
    fill-opacity: 1;
    stroke-linecap: round;
    stroke-linejoin: miter;
}

path {
    fill: none;
    stroke: black;
    stroke-width: 2;
    stroke-opacity: 1;
    fill-opacity: 1;
    stroke-linecap: round;
    stroke-linejoin: miter;
}

line.dashed {
    stroke-dasharray: 5;
}

.fg_fill {
    fill: black;
}


.bg_fill {
    fill: white;
    stroke: black;
    stroke-width: 2;
}

tspan.head{
    fill: none;
    stroke: none;
}
    
</style>
<rect class="backdrop" height="80" width="616" x="0" y="0"/>
<g>
<line x1="32" x2="40" y1="8" y2="8"/>
</g>
<g>
<line x1="64" x2="72" y1="8" y2="8"/>
</g>
<g>
<line x1="96" x2="104" y1="8" y2="8"/>
</g>
<g>
<line x1="128" x2="136" y1="8" y2="8"/>
</g>
<g>
<line x1="160" x2="168" y1="8" y2="8"/>
</g>
<g>
<line x1="192" x2="200" y1="8" y2="8"/>
</g>
<g>
<line x1="224" x2="232" y1="8" y2="8"/>
</g>
<g>
<line x1="256" x2="264" y1="8" y2="8"/>
<path d="M 268 12 A 4 4 0 0 0 264 8"/>
</g>
<g>
<line x1="268" x2="268" y1="12" y2="24"/>
<line x1="268" x2="268" y1="24" y2="40"/>
<line x1="268" x2="280" y1="24" y2="24"/>
<line x1="268" x2="268" y1="40" y2="56"/>
<line x1="268" x2="280" y1="40" y2="40"/>
<line x1="268" x2="268" y1="56" y2="68"/>
<line x1="268" x2="280" y1="56" y2="56"/>
<path d="M 268 68 A 4 4 0 0 0 272 72"/>
</g>
<g>
<line x1="272" x2="280" y1="72" y2="72"/>
</g>
<g>
<line x1="304" x2="316" y1="24" y2="24"/>
<line x1="316" x2="316" y1="12" y2="24"/>
<line x1="316" x2="316" y1="24" y2="40"/>
<line x1="316" x2="316" y1="40" y2="56"/>
<line x1="316" x2="316" y1="56" y2="68"/>
<path d="M 312 72 A 4 4 0 0 0 316 68"/>
<path d="M 320 8 A 4 4 0 0 0 316 12"/>
</g>
<g>
<line x1="304" x2="316" y1="40" y2="40"/>
</g>
<g>
<line x1="304" x2="316" y1="56" y2="56"/>
</g>
<g>
<line x1="304" x2="312" y1="72" y2="72"/>
</g>
<g>
<line x1="320" x2="328" y1="8" y2="8"/>
</g>
<g>
<line x1="352" x2="360" y1="8" y2="8"/>
</g>
<g>
<line x1="384" x2="392" y1="8" y2="8"/>
</g>
<g>
<line x1="416" x2="424" y1="8" y2="8"/>
</g>
<g>
<line x1="448" x2="456" y1="8" y2="8"/>
</g>
<g>
<line x1="480" x2="488" y1="8" y2="8"/>
</g>
<g>
<text x="1" y="12">
...
</text>
</g>
<g>
<text x="49" y="12">
A
</text>
</g>
<g>
<text x="81" y="12">
C
</text>
</g>
<g>
<text x="113" y="12">
T
</text>
</g>
<g>
<text x="145" y="12">
G
</text>
</g>
<g>
<text x="177" y="12">
T
</text>
</g>
<g>
<text x="209" y="12">
G
</text>
</g>
<g>
<text x="241" y="12">
C
</text>
</g>
<g>
<text x="289" y="28">
A
</text>
</g>
<g>
<text x="289" y="44">
T
</text>
</g>
<g>
<text x="289" y="60">
C
</text>
</g>
<g>
<text x="289" y="76">
G
</text>
</g>
<g>
<text x="329" y="28">
(80% frequency -- SNP)
</text>
</g>
<g>
<text x="329" y="44">
(5% frequency -- SNP)
</text>
</g>
<g>
<text x="329" y="60">
(4.5% frequency -- SNP)
</text>
</g>
<g>
<text x="329" y="76">
(0.5% frequency -- point mutation)
</text>
</g>
<g>
<text x="337" y="12">
A
</text>
</g>
<g>
<text x="369" y="12">
T
</text>
</g>
<g>
<text x="401" y="12">
T
</text>
</g>
<g>
<text x="433" y="12">
A
</text>
</g>
<g>
<text x="465" y="12">
G
</text>
</g>
<g>
<text x="497" y="12">
...
</text>
</g>
</svg>
