<svg class="bob" font-family="arial" font-size="14" height="352" width="1440" xmlns="http://www.w3.org/2000/svg">
<defs>
<marker id="triangle" markerHeight="8" markerWidth="8" orient="auto" refX="4" refY="2" viewBox="0 0 8 4">
<polygon class="fg_fill" points="0,0 0,4 8,2 0,0"/>
</marker>
<marker id="clear_triangle" markerHeight="10" markerWidth="10" orient="auto" refX="1" refY="7" viewBox="0 0 20 14">
<polygon class="bg_fill" points="2,2 2,12 18,7 2,2"/>
</marker>
<marker id="circle" markerHeight="5" markerWidth="5" orient="auto" refX="10" refY="10" viewBox="0 0 20 20">
<circle class="fg_fill" cx="10" cy="10" r="8"/>
</marker>
<marker id="square" markerHeight="5" markerWidth="5" orient="auto" refX="10" refY="10" viewBox="0 0 20 20">
<rect class="fg_fill" height="20" width="20" x="0" y="0"/>
</marker>
<marker id="open_circle" markerHeight="10" markerWidth="10" orient="auto" refX="10" refY="10" viewBox="0 0 20 20">
<circle class="bg_fill" cx="10" cy="10" r="4"/>
</marker>
<marker id="big_open_circle" markerHeight="20" markerWidth="20" orient="auto" refX="20" refY="20" viewBox="0 0 40 40">
<circle class="bg_fill" cx="20" cy="20" r="6"/>
</marker>
</defs>
<style type="text/css">

rect.backdrop {
    fill: white;
}
text{
    fill: black;
}

circle {
    fill: none;
    stroke: black;
    stroke-width: 2;
}

line {
    stroke: black;
    stroke-width: 2;
    stroke-opacity: 1;
    fill-opacity: 1;
    stroke-linecap: round;
    stroke-linejoin: miter;
}

path {
    fill: none;
    stroke: black;
    stroke-width: 2;
    stroke-opacity: 1;
    fill-opacity: 1;
    stroke-linecap: round;
    stroke-linejoin: miter;
}

line.dashed {
    stroke-dasharray: 5;
}

.fg_fill {
    fill: black;
}


.bg_fill {
    fill: white;
    stroke: black;
    stroke-width: 2;
}

tspan.head{
    fill: none;
    stroke: none;
}
    
</style>
<rect class="backdrop" height="352" width="1440" x="0" y="0"/>
<g>
<line marker-end="url(#triangle)" marker-start="url(#circle)" x1="4" x2="4" y1="24" y2="92"/>
<line marker-end="url(#triangle)" marker-start="url(#circle)" x1="4" x2="36" y1="24" y2="24"/>
<line marker-end="url(#triangle)" marker-start="url(#circle)" x1="4" x2="38" y1="24" y2="92"/>
</g>
<g>
<line marker-end="url(#triangle)" marker-start="url(#circle)" x1="4" x2="4" y1="104" y2="172"/>
<line marker-end="url(#triangle)" marker-start="url(#circle)" x1="4" x2="36" y1="104" y2="104"/>
<line marker-end="url(#triangle)" marker-start="url(#circle)" x1="4" x2="38" y1="104" y2="172"/>
</g>
<g>
<line marker-end="url(#triangle)" marker-start="url(#circle)" x1="4" x2="4" y1="184" y2="252"/>
<line marker-end="url(#triangle)" marker-start="url(#circle)" x1="4" x2="36" y1="184" y2="184"/>
<line marker-end="url(#triangle)" marker-start="url(#circle)" x1="4" x2="38" y1="184" y2="252"/>
</g>
<g>
<line marker-end="url(#triangle)" marker-start="url(#circle)" x1="4" x2="4" y1="264" y2="332"/>
<line marker-end="url(#triangle)" marker-start="url(#circle)" x1="4" x2="36" y1="264" y2="264"/>
<line marker-end="url(#triangle)" marker-start="url(#circle)" x1="4" x2="38" y1="264" y2="332"/>
</g>
<g>
<line marker-end="url(#triangle)" marker-start="url(#circle)" x1="4" x2="36" y1="344" y2="344"/>
</g>
<g>
<line marker-start="url(#circle)" x1="44" x2="40" y1="24" y2="24"/>
<line marker-end="url(#triangle)" marker-start="url(#circle)" x1="44" x2="44" y1="24" y2="92"/>
<line marker-end="url(#triangle)" marker-start="url(#circle)" x1="44" x2="76" y1="24" y2="24"/>
<line marker-end="url(#triangle)" marker-start="url(#circle)" x1="44" x2="78" y1="24" y2="92"/>
</g>
<g>
<line marker-start="url(#circle)" x1="44" x2="40" y1="104" y2="104"/>
<line marker-end="url(#triangle)" marker-start="url(#circle)" x1="44" x2="44" y1="104" y2="172"/>
<line marker-end="url(#triangle)" marker-start="url(#circle)" x1="44" x2="76" y1="104" y2="104"/>
<line marker-end="url(#triangle)" marker-start="url(#circle)" x1="44" x2="78" y1="104" y2="172"/>
</g>
<g>
<line marker-start="url(#circle)" x1="44" x2="40" y1="184" y2="184"/>
<line marker-end="url(#triangle)" marker-start="url(#circle)" x1="44" x2="44" y1="184" y2="252"/>
<line marker-end="url(#triangle)" marker-start="url(#circle)" x1="44" x2="76" y1="184" y2="184"/>
<line marker-end="url(#triangle)" marker-start="url(#circle)" x1="44" x2="78" y1="184" y2="252"/>
</g>
<g>
<line marker-start="url(#circle)" x1="44" x2="40" y1="264" y2="264"/>
<line marker-end="url(#triangle)" marker-start="url(#circle)" x1="44" x2="44" y1="264" y2="332"/>
<line marker-end="url(#triangle)" marker-start="url(#circle)" x1="44" x2="76" y1="264" y2="264"/>
<line marker-end="url(#triangle)" marker-start="url(#circle)" x1="44" x2="78" y1="264" y2="332"/>
</g>
<g>
<line marker-start="url(#circle)" x1="44" x2="40" y1="344" y2="344"/>
<line marker-end="url(#triangle)" marker-start="url(#circle)" x1="44" x2="76" y1="344" y2="344"/>
</g>
<g>
<line marker-start="url(#circle)" x1="84" x2="80" y1="24" y2="24"/>
<line marker-end="url(#triangle)" marker-start="url(#circle)" x1="84" x2="84" y1="24" y2="92"/>
<line marker-end="url(#triangle)" marker-start="url(#circle)" x1="84" x2="116" y1="24" y2="24"/>
<line marker-end="url(#triangle)" marker-start="url(#circle)" x1="84" x2="118" y1="24" y2="92"/>
</g>
<g>
<line marker-start="url(#circle)" x1="84" x2="80" y1="104" y2="104"/>
<line marker-end="url(#triangle)" marker-start="url(#circle)" x1="84" x2="84" y1="104" y2="172"/>
<line marker-end="url(#triangle)" marker-start="url(#circle)" x1="84" x2="116" y1="104" y2="104"/>
<line marker-end="url(#triangle)" marker-start="url(#circle)" x1="84" x2="118" y1="104" y2="172"/>
</g>
<g>
<line marker-start="url(#circle)" x1="84" x2="80" y1="184" y2="184"/>
<line marker-end="url(#triangle)" marker-start="url(#circle)" x1="84" x2="84" y1="184" y2="252"/>
<line marker-end="url(#triangle)" marker-start="url(#circle)" x1="84" x2="116" y1="184" y2="184"/>
<line marker-end="url(#triangle)" marker-start="url(#circle)" x1="84" x2="118" y1="184" y2="252"/>
</g>
<g>
<line marker-start="url(#circle)" x1="84" x2="80" y1="264" y2="264"/>
<line marker-end="url(#triangle)" marker-start="url(#circle)" x1="84" x2="84" y1="264" y2="332"/>
<line marker-end="url(#triangle)" marker-start="url(#circle)" x1="84" x2="116" y1="264" y2="264"/>
<line marker-end="url(#triangle)" marker-start="url(#circle)" x1="84" x2="118" y1="264" y2="332"/>
</g>
<g>
<line marker-start="url(#circle)" x1="84" x2="80" y1="344" y2="344"/>
<line marker-end="url(#triangle)" marker-start="url(#circle)" x1="84" x2="116" y1="344" y2="344"/>
</g>
<g>
<line marker-start="url(#circle)" x1="124" x2="120" y1="24" y2="24"/>
<line marker-end="url(#triangle)" marker-start="url(#circle)" x1="124" x2="124" y1="24" y2="92"/>
<line marker-end="url(#triangle)" marker-start="url(#circle)" x1="124" x2="156" y1="24" y2="24"/>
<line marker-end="url(#triangle)" marker-start="url(#circle)" x1="124" x2="158" y1="24" y2="92"/>
</g>
<g>
<line marker-start="url(#circle)" x1="124" x2="120" y1="104" y2="104"/>
<line marker-end="url(#triangle)" marker-start="url(#circle)" x1="124" x2="124" y1="104" y2="172"/>
<line marker-end="url(#triangle)" marker-start="url(#circle)" x1="124" x2="156" y1="104" y2="104"/>
<line marker-end="url(#triangle)" marker-start="url(#circle)" x1="124" x2="158" y1="104" y2="172"/>
</g>
<g>
<line marker-start="url(#circle)" x1="124" x2="120" y1="184" y2="184"/>
<line marker-end="url(#triangle)" marker-start="url(#circle)" x1="124" x2="124" y1="184" y2="252"/>
<line marker-end="url(#triangle)" marker-start="url(#circle)" x1="124" x2="156" y1="184" y2="184"/>
<line marker-end="url(#triangle)" marker-start="url(#circle)" x1="124" x2="158" y1="184" y2="252"/>
</g>
<g>
<line marker-start="url(#circle)" x1="124" x2="120" y1="264" y2="264"/>
<line marker-end="url(#triangle)" marker-start="url(#circle)" x1="124" x2="124" y1="264" y2="332"/>
<line marker-end="url(#triangle)" marker-start="url(#circle)" x1="124" x2="156" y1="264" y2="264"/>
<line marker-end="url(#triangle)" marker-start="url(#circle)" x1="124" x2="158" y1="264" y2="332"/>
</g>
<g>
<line marker-start="url(#circle)" x1="124" x2="120" y1="344" y2="344"/>
<line marker-end="url(#triangle)" marker-start="url(#circle)" x1="124" x2="156" y1="344" y2="344"/>
</g>
<g>
<line marker-start="url(#circle)" x1="164" x2="160" y1="24" y2="24"/>
<line marker-end="url(#triangle)" marker-start="url(#circle)" x1="164" x2="164" y1="24" y2="92"/>
<line marker-end="url(#triangle)" marker-start="url(#circle)" x1="164" x2="196" y1="24" y2="24"/>
<line marker-end="url(#triangle)" marker-start="url(#circle)" x1="164" x2="198" y1="24" y2="92"/>
</g>
<g>
<line marker-start="url(#circle)" x1="164" x2="160" y1="104" y2="104"/>
<line marker-end="url(#triangle)" marker-start="url(#circle)" x1="164" x2="164" y1="104" y2="172"/>
<line marker-end="url(#triangle)" marker-start="url(#circle)" x1="164" x2="196" y1="104" y2="104"/>
<line marker-end="url(#triangle)" marker-start="url(#circle)" x1="164" x2="198" y1="104" y2="172"/>
</g>
<g>
<line marker-start="url(#circle)" x1="164" x2="160" y1="184" y2="184"/>
<line marker-end="url(#triangle)" marker-start="url(#circle)" x1="164" x2="164" y1="184" y2="252"/>
<line marker-end="url(#triangle)" marker-start="url(#circle)" x1="164" x2="196" y1="184" y2="184"/>
<line marker-end="url(#triangle)" marker-start="url(#circle)" x1="164" x2="198" y1="184" y2="252"/>
</g>
<g>
<line marker-start="url(#circle)" x1="164" x2="160" y1="264" y2="264"/>
<line marker-end="url(#triangle)" marker-start="url(#circle)" x1="164" x2="164" y1="264" y2="332"/>
<line marker-end="url(#triangle)" marker-start="url(#circle)" x1="164" x2="196" y1="264" y2="264"/>
<line marker-end="url(#triangle)" marker-start="url(#circle)" x1="164" x2="198" y1="264" y2="332"/>
</g>
<g>
<line marker-start="url(#circle)" x1="164" x2="160" y1="344" y2="344"/>
<line marker-end="url(#triangle)" marker-start="url(#circle)" x1="164" x2="196" y1="344" y2="344"/>
</g>
<g>
<line marker-start="url(#circle)" x1="204" x2="200" y1="24" y2="24"/>
<line marker-end="url(#triangle)" marker-start="url(#circle)" x1="204" x2="204" y1="24" y2="92"/>
</g>
<g>
<line marker-start="url(#circle)" x1="204" x2="200" y1="104" y2="104"/>
<line marker-end="url(#triangle)" marker-start="url(#circle)" x1="204" x2="204" y1="104" y2="172"/>
</g>
<g>
<line marker-start="url(#circle)" x1="204" x2="200" y1="184" y2="184"/>
<line marker-end="url(#triangle)" marker-start="url(#circle)" x1="204" x2="204" y1="184" y2="252"/>
</g>
<g>
<line marker-start="url(#circle)" x1="204" x2="200" y1="264" y2="264"/>
<line marker-end="url(#triangle)" marker-start="url(#circle)" x1="204" x2="204" y1="264" y2="332"/>
</g>
<g>
<line marker-start="url(#circle)" x1="204" x2="200" y1="344" y2="344"/>
</g>
<g>
<line marker-end="url(#triangle)" marker-start="url(#circle)" x1="268" x2="268" y1="104" y2="172"/>
<line marker-end="url(#triangle)" marker-start="url(#circle)" x1="268" x2="300" y1="104" y2="104"/>
<line marker-end="url(#triangle)" marker-start="url(#circle)" x1="268" x2="302" y1="104" y2="172"/>
</g>
<g>
<line marker-end="url(#triangle)" marker-start="url(#circle)" x1="268" x2="268" y1="184" y2="252"/>
<line marker-end="url(#triangle)" marker-start="url(#circle)" x1="268" x2="300" y1="184" y2="184"/>
<line marker-end="url(#triangle)" marker-start="url(#circle)" x1="268" x2="302" y1="184" y2="252"/>
</g>
<g>
<line marker-end="url(#triangle)" marker-start="url(#circle)" x1="268" x2="268" y1="264" y2="332"/>
<line marker-end="url(#triangle)" marker-start="url(#circle)" x1="268" x2="300" y1="264" y2="264"/>
<line marker-end="url(#triangle)" marker-start="url(#circle)" x1="268" x2="302" y1="264" y2="332"/>
</g>
<g>
<line marker-end="url(#triangle)" marker-start="url(#circle)" x1="268" x2="300" y1="344" y2="344"/>
</g>
<g>
<line marker-start="url(#circle)" x1="308" x2="304" y1="104" y2="104"/>
<line marker-end="url(#triangle)" marker-start="url(#circle)" x1="308" x2="308" y1="104" y2="172"/>
<line marker-end="url(#triangle)" marker-start="url(#circle)" x1="308" x2="340" y1="104" y2="104"/>
<line marker-end="url(#triangle)" marker-start="url(#circle)" x1="308" x2="342" y1="104" y2="172"/>
</g>
<g>
<line marker-start="url(#circle)" x1="308" x2="304" y1="184" y2="184"/>
<line marker-end="url(#triangle)" marker-start="url(#circle)" x1="308" x2="308" y1="184" y2="252"/>
<line marker-end="url(#triangle)" marker-start="url(#circle)" x1="308" x2="340" y1="184" y2="184"/>
<line marker-end="url(#triangle)" marker-start="url(#circle)" x1="308" x2="342" y1="184" y2="252"/>
</g>
<g>
<line marker-start="url(#circle)" x1="308" x2="304" y1="264" y2="264"/>
<line marker-end="url(#triangle)" marker-start="url(#circle)" x1="308" x2="308" y1="264" y2="332"/>
<line marker-end="url(#triangle)" marker-start="url(#circle)" x1="308" x2="340" y1="264" y2="264"/>
<line marker-end="url(#triangle)" marker-start="url(#circle)" x1="308" x2="342" y1="264" y2="332"/>
</g>
<g>
<line marker-start="url(#circle)" x1="308" x2="304" y1="344" y2="344"/>
<line marker-end="url(#triangle)" marker-start="url(#circle)" x1="308" x2="340" y1="344" y2="344"/>
</g>
<g>
<line marker-start="url(#circle)" x1="348" x2="344" y1="104" y2="104"/>
<line marker-end="url(#triangle)" marker-start="url(#circle)" x1="348" x2="348" y1="104" y2="172"/>
<line marker-end="url(#triangle)" marker-start="url(#circle)" x1="348" x2="380" y1="104" y2="104"/>
<line marker-end="url(#triangle)" marker-start="url(#circle)" x1="348" x2="382" y1="104" y2="172"/>
</g>
<g>
<line marker-start="url(#circle)" x1="348" x2="344" y1="184" y2="184"/>
<line marker-end="url(#triangle)" marker-start="url(#circle)" x1="348" x2="348" y1="184" y2="252"/>
<line marker-end="url(#triangle)" marker-start="url(#circle)" x1="348" x2="380" y1="184" y2="184"/>
<line marker-end="url(#triangle)" marker-start="url(#circle)" x1="348" x2="382" y1="184" y2="252"/>
</g>
<g>
<line marker-start="url(#circle)" x1="348" x2="344" y1="264" y2="264"/>
<line marker-end="url(#triangle)" marker-start="url(#circle)" x1="348" x2="348" y1="264" y2="332"/>
<line marker-end="url(#triangle)" marker-start="url(#circle)" x1="348" x2="380" y1="264" y2="264"/>
<line marker-end="url(#triangle)" marker-start="url(#circle)" x1="348" x2="382" y1="264" y2="332"/>
</g>
<g>
<line marker-start="url(#circle)" x1="348" x2="344" y1="344" y2="344"/>
<line marker-end="url(#triangle)" marker-start="url(#circle)" x1="348" x2="380" y1="344" y2="344"/>
</g>
<g>
<line marker-start="url(#circle)" x1="388" x2="384" y1="104" y2="104"/>
<line marker-end="url(#triangle)" marker-start="url(#circle)" x1="388" x2="388" y1="104" y2="172"/>
<line marker-end="url(#triangle)" marker-start="url(#circle)" x1="388" x2="420" y1="104" y2="104"/>
<line marker-end="url(#triangle)" marker-start="url(#circle)" x1="388" x2="422" y1="104" y2="172"/>
</g>
<g>
<line marker-start="url(#circle)" x1="388" x2="384" y1="184" y2="184"/>
<line marker-end="url(#triangle)" marker-start="url(#circle)" x1="388" x2="388" y1="184" y2="252"/>
<line marker-end="url(#triangle)" marker-start="url(#circle)" x1="388" x2="420" y1="184" y2="184"/>
<line marker-end="url(#triangle)" marker-start="url(#circle)" x1="388" x2="422" y1="184" y2="252"/>
</g>
<g>
<line marker-start="url(#circle)" x1="388" x2="384" y1="264" y2="264"/>
<line marker-end="url(#triangle)" marker-start="url(#circle)" x1="388" x2="388" y1="264" y2="332"/>
<line marker-end="url(#triangle)" marker-start="url(#circle)" x1="388" x2="420" y1="264" y2="264"/>
<line marker-end="url(#triangle)" marker-start="url(#circle)" x1="388" x2="422" y1="264" y2="332"/>
</g>
<g>
<line marker-start="url(#circle)" x1="388" x2="384" y1="344" y2="344"/>
<line marker-end="url(#triangle)" marker-start="url(#circle)" x1="388" x2="420" y1="344" y2="344"/>
</g>
<g>
<line marker-start="url(#circle)" x1="428" x2="424" y1="104" y2="104"/>
<line marker-end="url(#triangle)" marker-start="url(#circle)" x1="428" x2="428" y1="104" y2="172"/>
<line marker-end="url(#triangle)" marker-start="url(#circle)" x1="428" x2="460" y1="104" y2="104"/>
<line marker-end="url(#triangle)" marker-start="url(#circle)" x1="428" x2="462" y1="104" y2="172"/>
</g>
<g>
<line marker-start="url(#circle)" x1="428" x2="424" y1="184" y2="184"/>
<line marker-end="url(#triangle)" marker-start="url(#circle)" x1="428" x2="428" y1="184" y2="252"/>
<line marker-end="url(#triangle)" marker-start="url(#circle)" x1="428" x2="460" y1="184" y2="184"/>
<line marker-end="url(#triangle)" marker-start="url(#circle)" x1="428" x2="462" y1="184" y2="252"/>
</g>
<g>
<line marker-start="url(#circle)" x1="428" x2="424" y1="264" y2="264"/>
<line marker-end="url(#triangle)" marker-start="url(#circle)" x1="428" x2="428" y1="264" y2="332"/>
<line marker-end="url(#triangle)" marker-start="url(#circle)" x1="428" x2="460" y1="264" y2="264"/>
<line marker-end="url(#triangle)" marker-start="url(#circle)" x1="428" x2="462" y1="264" y2="332"/>
</g>
<g>
<line marker-start="url(#circle)" x1="428" x2="424" y1="344" y2="344"/>
<line marker-end="url(#triangle)" marker-start="url(#circle)" x1="428" x2="460" y1="344" y2="344"/>
</g>
<g>
<line marker-start="url(#circle)" x1="468" x2="464" y1="104" y2="104"/>
<line marker-end="url(#triangle)" marker-start="url(#circle)" x1="468" x2="468" y1="104" y2="172"/>
</g>
<g>
<line marker-start="url(#circle)" x1="468" x2="464" y1="184" y2="184"/>
<line marker-end="url(#triangle)" marker-start="url(#circle)" x1="468" x2="468" y1="184" y2="252"/>
</g>
<g>
<line marker-start="url(#circle)" x1="468" x2="464" y1="264" y2="264"/>
<line marker-end="url(#triangle)" marker-start="url(#circle)" x1="468" x2="468" y1="264" y2="332"/>
</g>
<g>
<line marker-start="url(#circle)" x1="468" x2="464" y1="344" y2="344"/>
</g>
<g>
<line marker-start="url(#circle)" x1="572" x2="568" y1="104" y2="104"/>
<line marker-end="url(#triangle)" marker-start="url(#circle)" x1="572" x2="572" y1="104" y2="172"/>
<line marker-end="url(#triangle)" marker-start="url(#circle)" x1="572" x2="604" y1="104" y2="104"/>
<line marker-end="url(#triangle)" marker-start="url(#circle)" x1="572" x2="606" y1="104" y2="172"/>
</g>
<g>
<line marker-start="url(#circle)" x1="572" x2="568" y1="184" y2="184"/>
<line marker-end="url(#triangle)" marker-start="url(#circle)" x1="572" x2="572" y1="184" y2="252"/>
<line marker-end="url(#triangle)" marker-start="url(#circle)" x1="572" x2="604" y1="184" y2="184"/>
<line marker-end="url(#triangle)" marker-start="url(#circle)" x1="572" x2="606" y1="184" y2="252"/>
</g>
<g>
<line marker-start="url(#circle)" x1="572" x2="568" y1="264" y2="264"/>
<line marker-end="url(#triangle)" marker-start="url(#circle)" x1="572" x2="572" y1="264" y2="332"/>
<line marker-end="url(#triangle)" marker-start="url(#circle)" x1="572" x2="604" y1="264" y2="264"/>
<line marker-end="url(#triangle)" marker-start="url(#circle)" x1="572" x2="606" y1="264" y2="332"/>
</g>
<g>
<line marker-start="url(#circle)" x1="572" x2="568" y1="344" y2="344"/>
<line marker-end="url(#triangle)" marker-start="url(#circle)" x1="572" x2="604" y1="344" y2="344"/>
</g>
<g>
<line marker-start="url(#circle)" x1="612" x2="608" y1="104" y2="104"/>
<line marker-end="url(#triangle)" marker-start="url(#circle)" x1="612" x2="612" y1="104" y2="172"/>
<line marker-end="url(#triangle)" marker-start="url(#circle)" x1="612" x2="644" y1="104" y2="104"/>
<line marker-end="url(#triangle)" marker-start="url(#circle)" x1="612" x2="646" y1="104" y2="172"/>
</g>
<g>
<line marker-start="url(#circle)" x1="612" x2="608" y1="184" y2="184"/>
<line marker-end="url(#triangle)" marker-start="url(#circle)" x1="612" x2="612" y1="184" y2="252"/>
<line marker-end="url(#triangle)" marker-start="url(#circle)" x1="612" x2="644" y1="184" y2="184"/>
<line marker-end="url(#triangle)" marker-start="url(#circle)" x1="612" x2="646" y1="184" y2="252"/>
</g>
<g>
<line marker-start="url(#circle)" x1="612" x2="608" y1="264" y2="264"/>
<line marker-end="url(#triangle)" marker-start="url(#circle)" x1="612" x2="612" y1="264" y2="332"/>
<line marker-end="url(#triangle)" marker-start="url(#circle)" x1="612" x2="644" y1="264" y2="264"/>
<line marker-end="url(#triangle)" marker-start="url(#circle)" x1="612" x2="646" y1="264" y2="332"/>
</g>
<g>
<line marker-start="url(#circle)" x1="612" x2="608" y1="344" y2="344"/>
<line marker-end="url(#triangle)" marker-start="url(#circle)" x1="612" x2="644" y1="344" y2="344"/>
</g>
<g>
<line marker-start="url(#circle)" x1="652" x2="648" y1="104" y2="104"/>
<line marker-end="url(#triangle)" marker-start="url(#circle)" x1="652" x2="652" y1="104" y2="172"/>
<line marker-end="url(#triangle)" marker-start="url(#circle)" x1="652" x2="684" y1="104" y2="104"/>
<line marker-end="url(#triangle)" marker-start="url(#circle)" x1="652" x2="686" y1="104" y2="172"/>
</g>
<g>
<line marker-start="url(#circle)" x1="652" x2="648" y1="184" y2="184"/>
<line marker-end="url(#triangle)" marker-start="url(#circle)" x1="652" x2="652" y1="184" y2="252"/>
<line marker-end="url(#triangle)" marker-start="url(#circle)" x1="652" x2="684" y1="184" y2="184"/>
<line marker-end="url(#triangle)" marker-start="url(#circle)" x1="652" x2="686" y1="184" y2="252"/>
</g>
<g>
<line marker-start="url(#circle)" x1="652" x2="648" y1="264" y2="264"/>
<line marker-end="url(#triangle)" marker-start="url(#circle)" x1="652" x2="652" y1="264" y2="332"/>
<line marker-end="url(#triangle)" marker-start="url(#circle)" x1="652" x2="684" y1="264" y2="264"/>
<line marker-end="url(#triangle)" marker-start="url(#circle)" x1="652" x2="686" y1="264" y2="332"/>
</g>
<g>
<line marker-start="url(#circle)" x1="652" x2="648" y1="344" y2="344"/>
<line marker-end="url(#triangle)" marker-start="url(#circle)" x1="652" x2="684" y1="344" y2="344"/>
</g>
<g>
<line marker-start="url(#circle)" x1="692" x2="688" y1="104" y2="104"/>
<line marker-end="url(#triangle)" marker-start="url(#circle)" x1="692" x2="692" y1="104" y2="172"/>
<line marker-end="url(#triangle)" marker-start="url(#circle)" x1="692" x2="724" y1="104" y2="104"/>
<line marker-end="url(#triangle)" marker-start="url(#circle)" x1="692" x2="726" y1="104" y2="172"/>
</g>
<g>
<line marker-start="url(#circle)" x1="692" x2="688" y1="184" y2="184"/>
<line marker-end="url(#triangle)" marker-start="url(#circle)" x1="692" x2="692" y1="184" y2="252"/>
<line marker-end="url(#triangle)" marker-start="url(#circle)" x1="692" x2="724" y1="184" y2="184"/>
<line marker-end="url(#triangle)" marker-start="url(#circle)" x1="692" x2="726" y1="184" y2="252"/>
</g>
<g>
<line marker-start="url(#circle)" x1="692" x2="688" y1="264" y2="264"/>
<line marker-end="url(#triangle)" marker-start="url(#circle)" x1="692" x2="692" y1="264" y2="332"/>
<line marker-end="url(#triangle)" marker-start="url(#circle)" x1="692" x2="724" y1="264" y2="264"/>
<line marker-end="url(#triangle)" marker-start="url(#circle)" x1="692" x2="726" y1="264" y2="332"/>
</g>
<g>
<line marker-start="url(#circle)" x1="692" x2="688" y1="344" y2="344"/>
<line marker-end="url(#triangle)" marker-start="url(#circle)" x1="692" x2="724" y1="344" y2="344"/>
</g>
<g>
<line marker-start="url(#circle)" x1="732" x2="728" y1="104" y2="104"/>
<line marker-end="url(#triangle)" marker-start="url(#circle)" x1="732" x2="732" y1="104" y2="172"/>
</g>
<g>
<line marker-start="url(#circle)" x1="732" x2="728" y1="184" y2="184"/>
<line marker-end="url(#triangle)" marker-start="url(#circle)" x1="732" x2="732" y1="184" y2="252"/>
</g>
<g>
<line marker-start="url(#circle)" x1="732" x2="728" y1="264" y2="264"/>
<line marker-end="url(#triangle)" marker-start="url(#circle)" x1="732" x2="732" y1="264" y2="332"/>
</g>
<g>
<line marker-start="url(#circle)" x1="732" x2="728" y1="344" y2="344"/>
</g>
<g>
<line marker-start="url(#circle)" x1="876" x2="872" y1="104" y2="104"/>
<line marker-end="url(#triangle)" marker-start="url(#circle)" x1="876" x2="876" y1="104" y2="172"/>
<line marker-end="url(#triangle)" marker-start="url(#circle)" x1="876" x2="908" y1="104" y2="104"/>
<line marker-end="url(#triangle)" marker-start="url(#circle)" x1="876" x2="910" y1="104" y2="172"/>
</g>
<g>
<line marker-start="url(#circle)" x1="876" x2="872" y1="184" y2="184"/>
<line marker-end="url(#triangle)" marker-start="url(#circle)" x1="876" x2="876" y1="184" y2="252"/>
<line marker-end="url(#triangle)" marker-start="url(#circle)" x1="876" x2="908" y1="184" y2="184"/>
<line marker-end="url(#triangle)" marker-start="url(#circle)" x1="876" x2="910" y1="184" y2="252"/>
</g>
<g>
<line marker-start="url(#circle)" x1="876" x2="872" y1="264" y2="264"/>
<line marker-end="url(#triangle)" marker-start="url(#circle)" x1="876" x2="876" y1="264" y2="332"/>
<line marker-end="url(#triangle)" marker-start="url(#circle)" x1="876" x2="908" y1="264" y2="264"/>
<line marker-end="url(#triangle)" marker-start="url(#circle)" x1="876" x2="910" y1="264" y2="332"/>
</g>
<g>
<line marker-start="url(#circle)" x1="876" x2="872" y1="344" y2="344"/>
<line marker-end="url(#triangle)" marker-start="url(#circle)" x1="876" x2="908" y1="344" y2="344"/>
</g>
<g>
<line marker-start="url(#circle)" x1="916" x2="912" y1="104" y2="104"/>
<line marker-end="url(#triangle)" marker-start="url(#circle)" x1="916" x2="916" y1="104" y2="172"/>
<line marker-end="url(#triangle)" marker-start="url(#circle)" x1="916" x2="948" y1="104" y2="104"/>
<line marker-end="url(#triangle)" marker-start="url(#circle)" x1="916" x2="950" y1="104" y2="172"/>
</g>
<g>
<line marker-start="url(#circle)" x1="916" x2="912" y1="184" y2="184"/>
<line marker-end="url(#triangle)" marker-start="url(#circle)" x1="916" x2="916" y1="184" y2="252"/>
<line marker-end="url(#triangle)" marker-start="url(#circle)" x1="916" x2="948" y1="184" y2="184"/>
<line marker-end="url(#triangle)" marker-start="url(#circle)" x1="916" x2="950" y1="184" y2="252"/>
</g>
<g>
<line marker-start="url(#circle)" x1="916" x2="912" y1="264" y2="264"/>
<line marker-end="url(#triangle)" marker-start="url(#circle)" x1="916" x2="916" y1="264" y2="332"/>
<line marker-end="url(#triangle)" marker-start="url(#circle)" x1="916" x2="948" y1="264" y2="264"/>
<line marker-end="url(#triangle)" marker-start="url(#circle)" x1="916" x2="950" y1="264" y2="332"/>
</g>
<g>
<line marker-start="url(#circle)" x1="916" x2="912" y1="344" y2="344"/>
<line marker-end="url(#triangle)" marker-start="url(#circle)" x1="916" x2="948" y1="344" y2="344"/>
</g>
<g>
<line marker-start="url(#circle)" x1="956" x2="952" y1="104" y2="104"/>
<line marker-end="url(#triangle)" marker-start="url(#circle)" x1="956" x2="956" y1="104" y2="172"/>
<line marker-end="url(#triangle)" marker-start="url(#circle)" x1="956" x2="988" y1="104" y2="104"/>
<line marker-end="url(#triangle)" marker-start="url(#circle)" x1="956" x2="990" y1="104" y2="172"/>
</g>
<g>
<line marker-start="url(#circle)" x1="956" x2="952" y1="184" y2="184"/>
<line marker-end="url(#triangle)" marker-start="url(#circle)" x1="956" x2="956" y1="184" y2="252"/>
<line marker-end="url(#triangle)" marker-start="url(#circle)" x1="956" x2="988" y1="184" y2="184"/>
<line marker-end="url(#triangle)" marker-start="url(#circle)" x1="956" x2="990" y1="184" y2="252"/>
</g>
<g>
<line marker-start="url(#circle)" x1="956" x2="952" y1="264" y2="264"/>
<line marker-end="url(#triangle)" marker-start="url(#circle)" x1="956" x2="956" y1="264" y2="332"/>
<line marker-end="url(#triangle)" marker-start="url(#circle)" x1="956" x2="988" y1="264" y2="264"/>
<line marker-end="url(#triangle)" marker-start="url(#circle)" x1="956" x2="990" y1="264" y2="332"/>
</g>
<g>
<line marker-start="url(#circle)" x1="956" x2="952" y1="344" y2="344"/>
<line marker-end="url(#triangle)" marker-start="url(#circle)" x1="956" x2="988" y1="344" y2="344"/>
</g>
<g>
<line marker-start="url(#circle)" x1="996" x2="992" y1="104" y2="104"/>
<line marker-end="url(#triangle)" marker-start="url(#circle)" x1="996" x2="996" y1="104" y2="172"/>
</g>
<g>
<line marker-start="url(#circle)" x1="996" x2="992" y1="184" y2="184"/>
<line marker-end="url(#triangle)" marker-start="url(#circle)" x1="996" x2="996" y1="184" y2="252"/>
</g>
<g>
<line marker-start="url(#circle)" x1="996" x2="992" y1="264" y2="264"/>
<line marker-end="url(#triangle)" marker-start="url(#circle)" x1="996" x2="996" y1="264" y2="332"/>
</g>
<g>
<line marker-start="url(#circle)" x1="996" x2="992" y1="344" y2="344"/>
</g>
<g>
<line marker-start="url(#circle)" x1="1180" x2="1176" y1="104" y2="104"/>
<line marker-end="url(#triangle)" marker-start="url(#circle)" x1="1180" x2="1180" y1="104" y2="172"/>
<line marker-end="url(#triangle)" marker-start="url(#circle)" x1="1180" x2="1212" y1="104" y2="104"/>
<line marker-end="url(#triangle)" marker-start="url(#circle)" x1="1180" x2="1214" y1="104" y2="172"/>
</g>
<g>
<line marker-start="url(#circle)" x1="1180" x2="1176" y1="184" y2="184"/>
<line marker-end="url(#triangle)" marker-start="url(#circle)" x1="1180" x2="1180" y1="184" y2="252"/>
<line marker-end="url(#triangle)" marker-start="url(#circle)" x1="1180" x2="1212" y1="184" y2="184"/>
<line marker-end="url(#triangle)" marker-start="url(#circle)" x1="1180" x2="1214" y1="184" y2="252"/>
</g>
<g>
<line marker-start="url(#circle)" x1="1180" x2="1176" y1="264" y2="264"/>
<line marker-end="url(#triangle)" marker-start="url(#circle)" x1="1180" x2="1180" y1="264" y2="332"/>
<line marker-end="url(#triangle)" marker-start="url(#circle)" x1="1180" x2="1212" y1="264" y2="264"/>
<line marker-end="url(#triangle)" marker-start="url(#circle)" x1="1180" x2="1214" y1="264" y2="332"/>
</g>
<g>
<line marker-start="url(#circle)" x1="1180" x2="1176" y1="344" y2="344"/>
<line marker-end="url(#triangle)" marker-start="url(#circle)" x1="1180" x2="1212" y1="344" y2="344"/>
</g>
<g>
<line marker-start="url(#circle)" x1="1220" x2="1216" y1="104" y2="104"/>
<line marker-end="url(#triangle)" marker-start="url(#circle)" x1="1220" x2="1220" y1="104" y2="172"/>
<line marker-end="url(#triangle)" marker-start="url(#circle)" x1="1220" x2="1252" y1="104" y2="104"/>
<line marker-end="url(#triangle)" marker-start="url(#circle)" x1="1220" x2="1254" y1="104" y2="172"/>
</g>
<g>
<line marker-start="url(#circle)" x1="1220" x2="1216" y1="184" y2="184"/>
<line marker-end="url(#triangle)" marker-start="url(#circle)" x1="1220" x2="1220" y1="184" y2="252"/>
<line marker-end="url(#triangle)" marker-start="url(#circle)" x1="1220" x2="1252" y1="184" y2="184"/>
<line marker-end="url(#triangle)" marker-start="url(#circle)" x1="1220" x2="1254" y1="184" y2="252"/>
</g>
<g>
<line marker-start="url(#circle)" x1="1220" x2="1216" y1="264" y2="264"/>
<line marker-end="url(#triangle)" marker-start="url(#circle)" x1="1220" x2="1220" y1="264" y2="332"/>
<line marker-end="url(#triangle)" marker-start="url(#circle)" x1="1220" x2="1252" y1="264" y2="264"/>
<line marker-end="url(#triangle)" marker-start="url(#circle)" x1="1220" x2="1254" y1="264" y2="332"/>
</g>
<g>
<line marker-start="url(#circle)" x1="1220" x2="1216" y1="344" y2="344"/>
<line marker-end="url(#triangle)" marker-start="url(#circle)" x1="1220" x2="1252" y1="344" y2="344"/>
</g>
<g>
<line marker-start="url(#circle)" x1="1260" x2="1256" y1="104" y2="104"/>
<line marker-end="url(#triangle)" marker-start="url(#circle)" x1="1260" x2="1260" y1="104" y2="172"/>
</g>
<g>
<line marker-start="url(#circle)" x1="1260" x2="1256" y1="184" y2="184"/>
<line marker-end="url(#triangle)" marker-start="url(#circle)" x1="1260" x2="1260" y1="184" y2="252"/>
</g>
<g>
<line marker-start="url(#circle)" x1="1260" x2="1256" y1="264" y2="264"/>
<line marker-end="url(#triangle)" marker-start="url(#circle)" x1="1260" x2="1260" y1="264" y2="332"/>
</g>
<g>
<line marker-start="url(#circle)" x1="1260" x2="1256" y1="344" y2="344"/>
</g>
<g>
<text x="57" y="12">
Create graph
</text>
</g>
<g>
<text x="313" y="12">
Calc first row
</text>
</g>
<g>
<text x="585" y="12">
Calc col 1
</text>
</g>
<g>
<text x="849" y="12">
Calc col 2
</text>
</g>
<g>
<text x="1113" y="12">
Calc col 3
</text>
</g>
<g>
<text x="1313" y="156">
do the rest...
</text>
</g>
<g>
<line marker-end="url(#triangle)" marker-start="url(#open_circle)" x1="268" x2="268" y1="24" y2="92"/>
<line marker-end="url(#triangle)" marker-start="url(#open_circle)" x1="268" x2="300" y1="24" y2="24"/>
<line marker-end="url(#triangle)" marker-start="url(#open_circle)" x1="268" x2="302" y1="24" y2="92"/>
</g>
<g>
<line marker-start="url(#open_circle)" x1="308" x2="304" y1="24" y2="24"/>
<line marker-end="url(#triangle)" marker-start="url(#open_circle)" x1="308" x2="308" y1="24" y2="92"/>
<line marker-end="url(#triangle)" marker-start="url(#open_circle)" x1="308" x2="340" y1="24" y2="24"/>
<line marker-end="url(#triangle)" marker-start="url(#open_circle)" x1="308" x2="342" y1="24" y2="92"/>
</g>
<g>
<line marker-start="url(#open_circle)" x1="348" x2="344" y1="24" y2="24"/>
<line marker-end="url(#triangle)" marker-start="url(#open_circle)" x1="348" x2="348" y1="24" y2="92"/>
<line marker-end="url(#triangle)" marker-start="url(#open_circle)" x1="348" x2="380" y1="24" y2="24"/>
<line marker-end="url(#triangle)" marker-start="url(#open_circle)" x1="348" x2="382" y1="24" y2="92"/>
</g>
<g>
<line marker-start="url(#open_circle)" x1="388" x2="384" y1="24" y2="24"/>
<line marker-end="url(#triangle)" marker-start="url(#open_circle)" x1="388" x2="388" y1="24" y2="92"/>
<line marker-end="url(#triangle)" marker-start="url(#open_circle)" x1="388" x2="420" y1="24" y2="24"/>
<line marker-end="url(#triangle)" marker-start="url(#open_circle)" x1="388" x2="422" y1="24" y2="92"/>
</g>
<g>
<line marker-start="url(#open_circle)" x1="428" x2="424" y1="24" y2="24"/>
<line marker-end="url(#triangle)" marker-start="url(#open_circle)" x1="428" x2="428" y1="24" y2="92"/>
<line marker-end="url(#triangle)" marker-start="url(#open_circle)" x1="428" x2="460" y1="24" y2="24"/>
<line marker-end="url(#triangle)" marker-start="url(#open_circle)" x1="428" x2="462" y1="24" y2="92"/>
</g>
<g>
<line marker-start="url(#open_circle)" x1="468" x2="464" y1="24" y2="24"/>
<line marker-end="url(#triangle)" marker-start="url(#open_circle)" x1="468" x2="468" y1="24" y2="92"/>
</g>
<g>
<line marker-end="url(#triangle)" marker-start="url(#open_circle)" x1="532" x2="532" y1="24" y2="92"/>
<line marker-end="url(#triangle)" marker-start="url(#open_circle)" x1="532" x2="564" y1="24" y2="24"/>
<line marker-end="url(#triangle)" marker-start="url(#open_circle)" x1="532" x2="566" y1="24" y2="92"/>
</g>
<g>
<line marker-end="url(#triangle)" marker-start="url(#open_circle)" x1="532" x2="532" y1="104" y2="172"/>
<line marker-end="url(#triangle)" marker-start="url(#open_circle)" x1="532" x2="564" y1="104" y2="104"/>
<line marker-end="url(#triangle)" marker-start="url(#open_circle)" x1="532" x2="566" y1="104" y2="172"/>
</g>
<g>
<line marker-end="url(#triangle)" marker-start="url(#open_circle)" x1="532" x2="532" y1="184" y2="252"/>
<line marker-end="url(#triangle)" marker-start="url(#open_circle)" x1="532" x2="564" y1="184" y2="184"/>
<line marker-end="url(#triangle)" marker-start="url(#open_circle)" x1="532" x2="566" y1="184" y2="252"/>
</g>
<g>
<line marker-end="url(#triangle)" marker-start="url(#open_circle)" x1="532" x2="532" y1="264" y2="332"/>
<line marker-end="url(#triangle)" marker-start="url(#open_circle)" x1="532" x2="564" y1="264" y2="264"/>
<line marker-end="url(#triangle)" marker-start="url(#open_circle)" x1="532" x2="566" y1="264" y2="332"/>
</g>
<g>
<line marker-end="url(#triangle)" marker-start="url(#open_circle)" x1="532" x2="564" y1="344" y2="344"/>
</g>
<g>
<line marker-start="url(#open_circle)" x1="572" x2="568" y1="24" y2="24"/>
<line marker-end="url(#triangle)" marker-start="url(#open_circle)" x1="572" x2="572" y1="24" y2="92"/>
<line marker-end="url(#triangle)" marker-start="url(#open_circle)" x1="572" x2="604" y1="24" y2="24"/>
<line marker-end="url(#triangle)" marker-start="url(#open_circle)" x1="572" x2="606" y1="24" y2="92"/>
</g>
<g>
<line marker-start="url(#open_circle)" x1="612" x2="608" y1="24" y2="24"/>
<line marker-end="url(#triangle)" marker-start="url(#open_circle)" x1="612" x2="612" y1="24" y2="92"/>
<line marker-end="url(#triangle)" marker-start="url(#open_circle)" x1="612" x2="644" y1="24" y2="24"/>
<line marker-end="url(#triangle)" marker-start="url(#open_circle)" x1="612" x2="646" y1="24" y2="92"/>
</g>
<g>
<line marker-start="url(#open_circle)" x1="652" x2="648" y1="24" y2="24"/>
<line marker-end="url(#triangle)" marker-start="url(#open_circle)" x1="652" x2="652" y1="24" y2="92"/>
<line marker-end="url(#triangle)" marker-start="url(#open_circle)" x1="652" x2="684" y1="24" y2="24"/>
<line marker-end="url(#triangle)" marker-start="url(#open_circle)" x1="652" x2="686" y1="24" y2="92"/>
</g>
<g>
<line marker-start="url(#open_circle)" x1="692" x2="688" y1="24" y2="24"/>
<line marker-end="url(#triangle)" marker-start="url(#open_circle)" x1="692" x2="692" y1="24" y2="92"/>
<line marker-end="url(#triangle)" marker-start="url(#open_circle)" x1="692" x2="724" y1="24" y2="24"/>
<line marker-end="url(#triangle)" marker-start="url(#open_circle)" x1="692" x2="726" y1="24" y2="92"/>
</g>
<g>
<line marker-start="url(#open_circle)" x1="732" x2="728" y1="24" y2="24"/>
<line marker-end="url(#triangle)" marker-start="url(#open_circle)" x1="732" x2="732" y1="24" y2="92"/>
</g>
<g>
<line marker-end="url(#triangle)" marker-start="url(#open_circle)" x1="796" x2="796" y1="24" y2="92"/>
<line marker-end="url(#triangle)" marker-start="url(#open_circle)" x1="796" x2="828" y1="24" y2="24"/>
<line marker-end="url(#triangle)" marker-start="url(#open_circle)" x1="796" x2="830" y1="24" y2="92"/>
</g>
<g>
<line marker-end="url(#triangle)" marker-start="url(#open_circle)" x1="796" x2="796" y1="104" y2="172"/>
<line marker-end="url(#triangle)" marker-start="url(#open_circle)" x1="796" x2="828" y1="104" y2="104"/>
<line marker-end="url(#triangle)" marker-start="url(#open_circle)" x1="796" x2="830" y1="104" y2="172"/>
</g>
<g>
<line marker-end="url(#triangle)" marker-start="url(#open_circle)" x1="796" x2="796" y1="184" y2="252"/>
<line marker-end="url(#triangle)" marker-start="url(#open_circle)" x1="796" x2="828" y1="184" y2="184"/>
<line marker-end="url(#triangle)" marker-start="url(#open_circle)" x1="796" x2="830" y1="184" y2="252"/>
</g>
<g>
<line marker-end="url(#triangle)" marker-start="url(#open_circle)" x1="796" x2="796" y1="264" y2="332"/>
<line marker-end="url(#triangle)" marker-start="url(#open_circle)" x1="796" x2="828" y1="264" y2="264"/>
<line marker-end="url(#triangle)" marker-start="url(#open_circle)" x1="796" x2="830" y1="264" y2="332"/>
</g>
<g>
<line marker-end="url(#triangle)" marker-start="url(#open_circle)" x1="796" x2="828" y1="344" y2="344"/>
</g>
<g>
<line marker-start="url(#open_circle)" x1="836" x2="832" y1="24" y2="24"/>
<line marker-end="url(#triangle)" marker-start="url(#open_circle)" x1="836" x2="836" y1="24" y2="92"/>
<line marker-end="url(#triangle)" marker-start="url(#open_circle)" x1="836" x2="868" y1="24" y2="24"/>
<line marker-end="url(#triangle)" marker-start="url(#open_circle)" x1="836" x2="870" y1="24" y2="92"/>
</g>
<g>
<line marker-start="url(#open_circle)" x1="836" x2="832" y1="104" y2="104"/>
<line marker-end="url(#triangle)" marker-start="url(#open_circle)" x1="836" x2="836" y1="104" y2="172"/>
<line marker-end="url(#triangle)" marker-start="url(#open_circle)" x1="836" x2="868" y1="104" y2="104"/>
<line marker-end="url(#triangle)" marker-start="url(#open_circle)" x1="836" x2="870" y1="104" y2="172"/>
</g>
<g>
<line marker-start="url(#open_circle)" x1="836" x2="832" y1="184" y2="184"/>
<line marker-end="url(#triangle)" marker-start="url(#open_circle)" x1="836" x2="836" y1="184" y2="252"/>
<line marker-end="url(#triangle)" marker-start="url(#open_circle)" x1="836" x2="868" y1="184" y2="184"/>
<line marker-end="url(#triangle)" marker-start="url(#open_circle)" x1="836" x2="870" y1="184" y2="252"/>
</g>
<g>
<line marker-start="url(#open_circle)" x1="836" x2="832" y1="264" y2="264"/>
<line marker-end="url(#triangle)" marker-start="url(#open_circle)" x1="836" x2="836" y1="264" y2="332"/>
<line marker-end="url(#triangle)" marker-start="url(#open_circle)" x1="836" x2="868" y1="264" y2="264"/>
<line marker-end="url(#triangle)" marker-start="url(#open_circle)" x1="836" x2="870" y1="264" y2="332"/>
</g>
<g>
<line marker-start="url(#open_circle)" x1="836" x2="832" y1="344" y2="344"/>
<line marker-end="url(#triangle)" marker-start="url(#open_circle)" x1="836" x2="868" y1="344" y2="344"/>
</g>
<g>
<line marker-start="url(#open_circle)" x1="876" x2="872" y1="24" y2="24"/>
<line marker-end="url(#triangle)" marker-start="url(#open_circle)" x1="876" x2="876" y1="24" y2="92"/>
<line marker-end="url(#triangle)" marker-start="url(#open_circle)" x1="876" x2="908" y1="24" y2="24"/>
<line marker-end="url(#triangle)" marker-start="url(#open_circle)" x1="876" x2="910" y1="24" y2="92"/>
</g>
<g>
<line marker-start="url(#open_circle)" x1="916" x2="912" y1="24" y2="24"/>
<line marker-end="url(#triangle)" marker-start="url(#open_circle)" x1="916" x2="916" y1="24" y2="92"/>
<line marker-end="url(#triangle)" marker-start="url(#open_circle)" x1="916" x2="948" y1="24" y2="24"/>
<line marker-end="url(#triangle)" marker-start="url(#open_circle)" x1="916" x2="950" y1="24" y2="92"/>
</g>
<g>
<line marker-start="url(#open_circle)" x1="956" x2="952" y1="24" y2="24"/>
<line marker-end="url(#triangle)" marker-start="url(#open_circle)" x1="956" x2="956" y1="24" y2="92"/>
<line marker-end="url(#triangle)" marker-start="url(#open_circle)" x1="956" x2="988" y1="24" y2="24"/>
<line marker-end="url(#triangle)" marker-start="url(#open_circle)" x1="956" x2="990" y1="24" y2="92"/>
</g>
<g>
<line marker-start="url(#open_circle)" x1="996" x2="992" y1="24" y2="24"/>
<line marker-end="url(#triangle)" marker-start="url(#open_circle)" x1="996" x2="996" y1="24" y2="92"/>
</g>
<g>
<line marker-end="url(#triangle)" marker-start="url(#open_circle)" x1="1060" x2="1060" y1="24" y2="92"/>
<line marker-end="url(#triangle)" marker-start="url(#open_circle)" x1="1060" x2="1092" y1="24" y2="24"/>
<line marker-end="url(#triangle)" marker-start="url(#open_circle)" x1="1060" x2="1094" y1="24" y2="92"/>
</g>
<g>
<line marker-end="url(#triangle)" marker-start="url(#open_circle)" x1="1060" x2="1060" y1="104" y2="172"/>
<line marker-end="url(#triangle)" marker-start="url(#open_circle)" x1="1060" x2="1092" y1="104" y2="104"/>
<line marker-end="url(#triangle)" marker-start="url(#open_circle)" x1="1060" x2="1094" y1="104" y2="172"/>
</g>
<g>
<line marker-end="url(#triangle)" marker-start="url(#open_circle)" x1="1060" x2="1060" y1="184" y2="252"/>
<line marker-end="url(#triangle)" marker-start="url(#open_circle)" x1="1060" x2="1092" y1="184" y2="184"/>
<line marker-end="url(#triangle)" marker-start="url(#open_circle)" x1="1060" x2="1094" y1="184" y2="252"/>
</g>
<g>
<line marker-end="url(#triangle)" marker-start="url(#open_circle)" x1="1060" x2="1060" y1="264" y2="332"/>
<line marker-end="url(#triangle)" marker-start="url(#open_circle)" x1="1060" x2="1092" y1="264" y2="264"/>
<line marker-end="url(#triangle)" marker-start="url(#open_circle)" x1="1060" x2="1094" y1="264" y2="332"/>
</g>
<g>
<line marker-end="url(#triangle)" marker-start="url(#open_circle)" x1="1060" x2="1092" y1="344" y2="344"/>
</g>
<g>
<line marker-start="url(#open_circle)" x1="1100" x2="1096" y1="24" y2="24"/>
<line marker-end="url(#triangle)" marker-start="url(#open_circle)" x1="1100" x2="1100" y1="24" y2="92"/>
<line marker-end="url(#triangle)" marker-start="url(#open_circle)" x1="1100" x2="1132" y1="24" y2="24"/>
<line marker-end="url(#triangle)" marker-start="url(#open_circle)" x1="1100" x2="1134" y1="24" y2="92"/>
</g>
<g>
<line marker-start="url(#open_circle)" x1="1100" x2="1096" y1="104" y2="104"/>
<line marker-end="url(#triangle)" marker-start="url(#open_circle)" x1="1100" x2="1100" y1="104" y2="172"/>
<line marker-end="url(#triangle)" marker-start="url(#open_circle)" x1="1100" x2="1132" y1="104" y2="104"/>
<line marker-end="url(#triangle)" marker-start="url(#open_circle)" x1="1100" x2="1134" y1="104" y2="172"/>
</g>
<g>
<line marker-start="url(#open_circle)" x1="1100" x2="1096" y1="184" y2="184"/>
<line marker-end="url(#triangle)" marker-start="url(#open_circle)" x1="1100" x2="1100" y1="184" y2="252"/>
<line marker-end="url(#triangle)" marker-start="url(#open_circle)" x1="1100" x2="1132" y1="184" y2="184"/>
<line marker-end="url(#triangle)" marker-start="url(#open_circle)" x1="1100" x2="1134" y1="184" y2="252"/>
</g>
<g>
<line marker-start="url(#open_circle)" x1="1100" x2="1096" y1="264" y2="264"/>
<line marker-end="url(#triangle)" marker-start="url(#open_circle)" x1="1100" x2="1100" y1="264" y2="332"/>
<line marker-end="url(#triangle)" marker-start="url(#open_circle)" x1="1100" x2="1132" y1="264" y2="264"/>
<line marker-end="url(#triangle)" marker-start="url(#open_circle)" x1="1100" x2="1134" y1="264" y2="332"/>
</g>
<g>
<line marker-start="url(#open_circle)" x1="1100" x2="1096" y1="344" y2="344"/>
<line marker-end="url(#triangle)" marker-start="url(#open_circle)" x1="1100" x2="1132" y1="344" y2="344"/>
</g>
<g>
<line marker-start="url(#open_circle)" x1="1140" x2="1136" y1="24" y2="24"/>
<line marker-end="url(#triangle)" marker-start="url(#open_circle)" x1="1140" x2="1140" y1="24" y2="92"/>
<line marker-end="url(#triangle)" marker-start="url(#open_circle)" x1="1140" x2="1172" y1="24" y2="24"/>
<line marker-end="url(#triangle)" marker-start="url(#open_circle)" x1="1140" x2="1174" y1="24" y2="92"/>
</g>
<g>
<line marker-start="url(#open_circle)" x1="1140" x2="1136" y1="104" y2="104"/>
<line marker-end="url(#triangle)" marker-start="url(#open_circle)" x1="1140" x2="1140" y1="104" y2="172"/>
<line marker-end="url(#triangle)" marker-start="url(#open_circle)" x1="1140" x2="1172" y1="104" y2="104"/>
<line marker-end="url(#triangle)" marker-start="url(#open_circle)" x1="1140" x2="1174" y1="104" y2="172"/>
</g>
<g>
<line marker-start="url(#open_circle)" x1="1140" x2="1136" y1="184" y2="184"/>
<line marker-end="url(#triangle)" marker-start="url(#open_circle)" x1="1140" x2="1140" y1="184" y2="252"/>
<line marker-end="url(#triangle)" marker-start="url(#open_circle)" x1="1140" x2="1172" y1="184" y2="184"/>
<line marker-end="url(#triangle)" marker-start="url(#open_circle)" x1="1140" x2="1174" y1="184" y2="252"/>
</g>
<g>
<line marker-start="url(#open_circle)" x1="1140" x2="1136" y1="264" y2="264"/>
<line marker-end="url(#triangle)" marker-start="url(#open_circle)" x1="1140" x2="1140" y1="264" y2="332"/>
<line marker-end="url(#triangle)" marker-start="url(#open_circle)" x1="1140" x2="1172" y1="264" y2="264"/>
<line marker-end="url(#triangle)" marker-start="url(#open_circle)" x1="1140" x2="1174" y1="264" y2="332"/>
</g>
<g>
<line marker-start="url(#open_circle)" x1="1140" x2="1136" y1="344" y2="344"/>
<line marker-end="url(#triangle)" marker-start="url(#open_circle)" x1="1140" x2="1172" y1="344" y2="344"/>
</g>
<g>
<line marker-start="url(#open_circle)" x1="1180" x2="1176" y1="24" y2="24"/>
<line marker-end="url(#triangle)" marker-start="url(#open_circle)" x1="1180" x2="1180" y1="24" y2="92"/>
<line marker-end="url(#triangle)" marker-start="url(#open_circle)" x1="1180" x2="1212" y1="24" y2="24"/>
<line marker-end="url(#triangle)" marker-start="url(#open_circle)" x1="1180" x2="1214" y1="24" y2="92"/>
</g>
<g>
<line marker-start="url(#open_circle)" x1="1220" x2="1216" y1="24" y2="24"/>
<line marker-end="url(#triangle)" marker-start="url(#open_circle)" x1="1220" x2="1220" y1="24" y2="92"/>
<line marker-end="url(#triangle)" marker-start="url(#open_circle)" x1="1220" x2="1252" y1="24" y2="24"/>
<line marker-end="url(#triangle)" marker-start="url(#open_circle)" x1="1220" x2="1254" y1="24" y2="92"/>
</g>
<g>
<line marker-start="url(#open_circle)" x1="1260" x2="1256" y1="24" y2="24"/>
<line marker-end="url(#triangle)" marker-start="url(#open_circle)" x1="1260" x2="1260" y1="24" y2="92"/>
</g>
</svg>
