<svg class="bob" font-family="arial" font-size="14" height="464" width="752" xmlns="http://www.w3.org/2000/svg">
<defs>
<marker id="triangle" markerHeight="8" markerWidth="8" orient="auto" refX="4" refY="2" viewBox="0 0 8 4">
<polygon class="fg_fill" points="0,0 0,4 8,2 0,0"/>
</marker>
<marker id="clear_triangle" markerHeight="10" markerWidth="10" orient="auto" refX="1" refY="7" viewBox="0 0 20 14">
<polygon class="bg_fill" points="2,2 2,12 18,7 2,2"/>
</marker>
<marker id="circle" markerHeight="5" markerWidth="5" orient="auto" refX="10" refY="10" viewBox="0 0 20 20">
<circle class="fg_fill" cx="10" cy="10" r="8"/>
</marker>
<marker id="square" markerHeight="5" markerWidth="5" orient="auto" refX="10" refY="10" viewBox="0 0 20 20">
<rect class="fg_fill" height="20" width="20" x="0" y="0"/>
</marker>
<marker id="open_circle" markerHeight="10" markerWidth="10" orient="auto" refX="10" refY="10" viewBox="0 0 20 20">
<circle class="bg_fill" cx="10" cy="10" r="4"/>
</marker>
<marker id="big_open_circle" markerHeight="20" markerWidth="20" orient="auto" refX="20" refY="20" viewBox="0 0 40 40">
<circle class="bg_fill" cx="20" cy="20" r="6"/>
</marker>
</defs>
<style type="text/css">

rect.backdrop {
    fill: white;
}
text{
    fill: black;
}

circle {
    fill: none;
    stroke: black;
    stroke-width: 2;
}

line {
    stroke: black;
    stroke-width: 2;
    stroke-opacity: 1;
    fill-opacity: 1;
    stroke-linecap: round;
    stroke-linejoin: miter;
}

path {
    fill: none;
    stroke: black;
    stroke-width: 2;
    stroke-opacity: 1;
    fill-opacity: 1;
    stroke-linecap: round;
    stroke-linejoin: miter;
}

line.dashed {
    stroke-dasharray: 5;
}

.fg_fill {
    fill: black;
}


.bg_fill {
    fill: white;
    stroke: black;
    stroke-width: 2;
}

tspan.head{
    fill: none;
    stroke: none;
}
    
</style>
<rect class="backdrop" height="464" width="752" x="0" y="0"/>
<g>
<line marker-end="url(#triangle)" x1="532" x2="532" y1="64" y2="52"/>
<line marker-end="url(#open_circle)" x1="532" x2="532" y1="64" y2="120"/>
<line marker-start="url(#open_circle)" x1="532" x2="536" y1="120" y2="120"/>
</g>
<g>
<line marker-end="url(#triangle)" x1="532" x2="532" y1="144" y2="132"/>
<line marker-end="url(#open_circle)" x1="532" x2="532" y1="144" y2="200"/>
<line marker-start="url(#open_circle)" x1="532" x2="536" y1="200" y2="200"/>
</g>
<g>
<line marker-end="url(#triangle)" x1="532" x2="532" y1="224" y2="212"/>
<line marker-end="url(#open_circle)" x1="532" x2="532" y1="224" y2="280"/>
<line marker-start="url(#open_circle)" x1="532" x2="536" y1="280" y2="280"/>
</g>
<g>
<line marker-end="url(#triangle)" x1="532" x2="532" y1="304" y2="292"/>
<line marker-end="url(#open_circle)" x1="532" x2="532" y1="304" y2="360"/>
<line marker-start="url(#open_circle)" x1="532" x2="536" y1="360" y2="360"/>
</g>
<g>
<line marker-end="url(#triangle)" x1="544" x2="540" y1="40" y2="40"/>
<line marker-end="url(#open_circle)" x1="544" x2="572" y1="40" y2="40"/>
<line marker-start="url(#open_circle)" x1="572" x2="576" y1="40" y2="40"/>
</g>
<g>
<line marker-end="url(#triangle)" x1="544" x2="538" y1="64" y2="52"/>
<line marker-end="url(#open_circle)" x1="544" x2="572" y1="64" y2="120"/>
<line marker-end="url(#open_circle)" x1="544" x2="572" y1="120" y2="120"/>
<line marker-end="url(#open_circle)" x1="572" x2="572" y1="64" y2="120"/>
<line marker-start="url(#open_circle)" x1="572" x2="576" y1="120" y2="120"/>
</g>
<g>
<line marker-end="url(#triangle)" x1="544" x2="540" y1="120" y2="120"/>
</g>
<g>
<line marker-end="url(#triangle)" x1="544" x2="538" y1="144" y2="132"/>
<line marker-end="url(#open_circle)" x1="544" x2="572" y1="144" y2="200"/>
<line marker-end="url(#open_circle)" x1="544" x2="572" y1="200" y2="200"/>
<line marker-end="url(#open_circle)" x1="572" x2="572" y1="144" y2="200"/>
<line marker-start="url(#open_circle)" x1="572" x2="576" y1="200" y2="200"/>
</g>
<g>
<line marker-end="url(#triangle)" x1="544" x2="540" y1="200" y2="200"/>
</g>
<g>
<line marker-end="url(#triangle)" x1="544" x2="538" y1="224" y2="212"/>
<line marker-end="url(#open_circle)" x1="544" x2="572" y1="224" y2="280"/>
<line marker-end="url(#open_circle)" x1="544" x2="572" y1="280" y2="280"/>
<line marker-end="url(#open_circle)" x1="572" x2="572" y1="224" y2="280"/>
<line marker-start="url(#open_circle)" x1="572" x2="576" y1="280" y2="280"/>
</g>
<g>
<line marker-end="url(#triangle)" x1="544" x2="540" y1="280" y2="280"/>
</g>
<g>
<line marker-end="url(#triangle)" x1="544" x2="538" y1="304" y2="292"/>
<line marker-end="url(#open_circle)" x1="544" x2="572" y1="304" y2="360"/>
<line marker-end="url(#open_circle)" x1="544" x2="572" y1="360" y2="360"/>
<line marker-end="url(#open_circle)" x1="572" x2="572" y1="304" y2="360"/>
<line marker-start="url(#open_circle)" x1="572" x2="576" y1="360" y2="360"/>
</g>
<g>
<line marker-end="url(#triangle)" x1="544" x2="540" y1="360" y2="360"/>
</g>
<g>
<line marker-end="url(#triangle)" x1="572" x2="572" y1="64" y2="52"/>
</g>
<g>
<line marker-end="url(#triangle)" x1="572" x2="572" y1="144" y2="132"/>
</g>
<g>
<line marker-end="url(#triangle)" x1="572" x2="572" y1="224" y2="212"/>
</g>
<g>
<line marker-end="url(#triangle)" x1="572" x2="572" y1="304" y2="292"/>
</g>
<g>
<line marker-end="url(#triangle)" x1="584" x2="580" y1="40" y2="40"/>
<line marker-end="url(#open_circle)" x1="584" x2="612" y1="40" y2="40"/>
<line marker-start="url(#open_circle)" x1="612" x2="616" y1="40" y2="40"/>
</g>
<g>
<line marker-end="url(#triangle)" x1="584" x2="578" y1="64" y2="52"/>
<line marker-end="url(#open_circle)" x1="584" x2="612" y1="64" y2="120"/>
<line marker-end="url(#open_circle)" x1="584" x2="612" y1="120" y2="120"/>
<line marker-end="url(#open_circle)" x1="612" x2="612" y1="64" y2="120"/>
<line marker-start="url(#open_circle)" x1="612" x2="616" y1="120" y2="120"/>
</g>
<g>
<line marker-end="url(#triangle)" x1="584" x2="580" y1="120" y2="120"/>
</g>
<g>
<line marker-end="url(#triangle)" x1="584" x2="578" y1="144" y2="132"/>
<line marker-end="url(#open_circle)" x1="584" x2="612" y1="144" y2="200"/>
<line marker-end="url(#open_circle)" x1="584" x2="612" y1="200" y2="200"/>
<line marker-end="url(#open_circle)" x1="612" x2="612" y1="144" y2="200"/>
<line marker-start="url(#open_circle)" x1="612" x2="616" y1="200" y2="200"/>
</g>
<g>
<line marker-end="url(#triangle)" x1="584" x2="580" y1="200" y2="200"/>
</g>
<g>
<line marker-end="url(#triangle)" x1="584" x2="578" y1="224" y2="212"/>
<line marker-end="url(#open_circle)" x1="584" x2="612" y1="224" y2="280"/>
<line marker-end="url(#open_circle)" x1="584" x2="612" y1="280" y2="280"/>
<line marker-end="url(#open_circle)" x1="612" x2="612" y1="224" y2="280"/>
<line marker-start="url(#open_circle)" x1="612" x2="616" y1="280" y2="280"/>
</g>
<g>
<line marker-end="url(#triangle)" x1="584" x2="580" y1="280" y2="280"/>
</g>
<g>
<line marker-end="url(#triangle)" x1="584" x2="578" y1="304" y2="292"/>
<line marker-end="url(#open_circle)" x1="584" x2="612" y1="304" y2="360"/>
<line marker-end="url(#open_circle)" x1="584" x2="612" y1="360" y2="360"/>
<line marker-end="url(#open_circle)" x1="612" x2="612" y1="304" y2="360"/>
<line marker-start="url(#open_circle)" x1="612" x2="616" y1="360" y2="360"/>
</g>
<g>
<line marker-end="url(#triangle)" x1="584" x2="580" y1="360" y2="360"/>
</g>
<g>
<line marker-end="url(#triangle)" x1="612" x2="612" y1="64" y2="52"/>
</g>
<g>
<line marker-end="url(#triangle)" x1="612" x2="612" y1="144" y2="132"/>
</g>
<g>
<line marker-end="url(#triangle)" x1="612" x2="612" y1="224" y2="212"/>
</g>
<g>
<line marker-end="url(#triangle)" x1="612" x2="612" y1="304" y2="292"/>
</g>
<g>
<line marker-end="url(#triangle)" x1="624" x2="620" y1="40" y2="40"/>
<line marker-end="url(#open_circle)" x1="624" x2="652" y1="40" y2="40"/>
<line marker-start="url(#open_circle)" x1="652" x2="656" y1="40" y2="40"/>
</g>
<g>
<line marker-end="url(#triangle)" x1="624" x2="618" y1="64" y2="52"/>
<line marker-end="url(#open_circle)" x1="624" x2="652" y1="64" y2="120"/>
<line marker-end="url(#open_circle)" x1="624" x2="652" y1="120" y2="120"/>
<line marker-end="url(#open_circle)" x1="652" x2="652" y1="64" y2="120"/>
<line marker-start="url(#open_circle)" x1="652" x2="656" y1="120" y2="120"/>
</g>
<g>
<line marker-end="url(#triangle)" x1="624" x2="620" y1="120" y2="120"/>
</g>
<g>
<line marker-end="url(#triangle)" x1="624" x2="618" y1="144" y2="132"/>
<line marker-end="url(#open_circle)" x1="624" x2="652" y1="144" y2="200"/>
<line marker-end="url(#open_circle)" x1="624" x2="652" y1="200" y2="200"/>
<line marker-end="url(#open_circle)" x1="652" x2="652" y1="144" y2="200"/>
<line marker-start="url(#open_circle)" x1="652" x2="656" y1="200" y2="200"/>
</g>
<g>
<line marker-end="url(#triangle)" x1="624" x2="620" y1="200" y2="200"/>
</g>
<g>
<line marker-end="url(#triangle)" x1="624" x2="618" y1="224" y2="212"/>
<line marker-end="url(#open_circle)" x1="624" x2="652" y1="224" y2="280"/>
<line marker-end="url(#open_circle)" x1="624" x2="652" y1="280" y2="280"/>
<line marker-end="url(#open_circle)" x1="652" x2="652" y1="224" y2="280"/>
<line marker-start="url(#open_circle)" x1="652" x2="656" y1="280" y2="280"/>
</g>
<g>
<line marker-end="url(#triangle)" x1="624" x2="620" y1="280" y2="280"/>
</g>
<g>
<line marker-end="url(#triangle)" x1="624" x2="618" y1="304" y2="292"/>
<line marker-end="url(#open_circle)" x1="624" x2="652" y1="304" y2="360"/>
<line marker-end="url(#open_circle)" x1="624" x2="652" y1="360" y2="360"/>
<line marker-end="url(#open_circle)" x1="652" x2="652" y1="304" y2="360"/>
<line marker-start="url(#open_circle)" x1="652" x2="656" y1="360" y2="360"/>
</g>
<g>
<line marker-end="url(#triangle)" x1="624" x2="620" y1="360" y2="360"/>
</g>
<g>
<line marker-end="url(#triangle)" x1="652" x2="652" y1="64" y2="52"/>
</g>
<g>
<line marker-end="url(#triangle)" x1="652" x2="652" y1="144" y2="132"/>
</g>
<g>
<line marker-end="url(#triangle)" x1="652" x2="652" y1="224" y2="212"/>
</g>
<g>
<line marker-end="url(#triangle)" x1="652" x2="652" y1="304" y2="292"/>
</g>
<g>
<line marker-end="url(#triangle)" x1="664" x2="660" y1="40" y2="40"/>
<line marker-end="url(#open_circle)" x1="664" x2="692" y1="40" y2="40"/>
<line marker-start="url(#open_circle)" x1="692" x2="696" y1="40" y2="40"/>
</g>
<g>
<line marker-end="url(#triangle)" x1="664" x2="658" y1="64" y2="52"/>
<line marker-end="url(#open_circle)" x1="664" x2="692" y1="64" y2="120"/>
<line marker-end="url(#open_circle)" x1="664" x2="692" y1="120" y2="120"/>
<line marker-end="url(#open_circle)" x1="692" x2="692" y1="64" y2="120"/>
<line marker-start="url(#open_circle)" x1="692" x2="696" y1="120" y2="120"/>
</g>
<g>
<line marker-end="url(#triangle)" x1="664" x2="660" y1="120" y2="120"/>
</g>
<g>
<line marker-end="url(#triangle)" x1="664" x2="658" y1="144" y2="132"/>
<line marker-end="url(#open_circle)" x1="664" x2="692" y1="144" y2="200"/>
<line marker-end="url(#open_circle)" x1="664" x2="692" y1="200" y2="200"/>
<line marker-end="url(#open_circle)" x1="692" x2="692" y1="144" y2="200"/>
<line marker-start="url(#open_circle)" x1="692" x2="696" y1="200" y2="200"/>
</g>
<g>
<line marker-end="url(#triangle)" x1="664" x2="660" y1="200" y2="200"/>
</g>
<g>
<line marker-end="url(#triangle)" x1="664" x2="658" y1="224" y2="212"/>
<line marker-end="url(#open_circle)" x1="664" x2="692" y1="224" y2="280"/>
<line marker-end="url(#open_circle)" x1="664" x2="692" y1="280" y2="280"/>
<line marker-end="url(#open_circle)" x1="692" x2="692" y1="224" y2="280"/>
<line marker-start="url(#open_circle)" x1="692" x2="696" y1="280" y2="280"/>
</g>
<g>
<line marker-end="url(#triangle)" x1="664" x2="660" y1="280" y2="280"/>
</g>
<g>
<line marker-end="url(#triangle)" x1="664" x2="658" y1="304" y2="292"/>
<line marker-end="url(#open_circle)" x1="664" x2="692" y1="304" y2="360"/>
<line marker-end="url(#open_circle)" x1="664" x2="692" y1="360" y2="360"/>
<line marker-end="url(#open_circle)" x1="692" x2="692" y1="304" y2="360"/>
<line marker-start="url(#open_circle)" x1="692" x2="696" y1="360" y2="360"/>
</g>
<g>
<line marker-end="url(#triangle)" x1="664" x2="660" y1="360" y2="360"/>
</g>
<g>
<line marker-end="url(#triangle)" x1="692" x2="692" y1="64" y2="52"/>
</g>
<g>
<line marker-end="url(#triangle)" x1="692" x2="692" y1="144" y2="132"/>
</g>
<g>
<line marker-end="url(#triangle)" x1="692" x2="692" y1="224" y2="212"/>
</g>
<g>
<line marker-end="url(#triangle)" x1="692" x2="692" y1="304" y2="292"/>
</g>
<g>
<line marker-end="url(#triangle)" x1="704" x2="700" y1="40" y2="40"/>
<line marker-end="url(#open_circle)" x1="704" x2="732" y1="40" y2="40"/>
</g>
<g>
<line marker-end="url(#triangle)" x1="704" x2="698" y1="64" y2="52"/>
<line marker-end="url(#open_circle)" x1="704" x2="732" y1="64" y2="120"/>
<line marker-end="url(#open_circle)" x1="704" x2="732" y1="120" y2="120"/>
<line marker-end="url(#open_circle)" x1="732" x2="732" y1="64" y2="120"/>
</g>
<g>
<line marker-end="url(#triangle)" x1="704" x2="700" y1="120" y2="120"/>
</g>
<g>
<line marker-end="url(#triangle)" x1="704" x2="698" y1="144" y2="132"/>
<line marker-end="url(#open_circle)" x1="704" x2="732" y1="144" y2="200"/>
<line marker-end="url(#open_circle)" x1="704" x2="732" y1="200" y2="200"/>
<line marker-end="url(#open_circle)" x1="732" x2="732" y1="144" y2="200"/>
</g>
<g>
<line marker-end="url(#triangle)" x1="704" x2="700" y1="200" y2="200"/>
</g>
<g>
<line marker-end="url(#triangle)" x1="704" x2="698" y1="224" y2="212"/>
<line marker-end="url(#open_circle)" x1="704" x2="732" y1="224" y2="280"/>
<line marker-end="url(#open_circle)" x1="704" x2="732" y1="280" y2="280"/>
<line marker-end="url(#open_circle)" x1="732" x2="732" y1="224" y2="280"/>
</g>
<g>
<line marker-end="url(#triangle)" x1="704" x2="700" y1="280" y2="280"/>
</g>
<g>
<line marker-end="url(#triangle)" x1="704" x2="698" y1="304" y2="292"/>
<line marker-end="url(#open_circle)" x1="704" x2="732" y1="304" y2="360"/>
<line marker-end="url(#open_circle)" x1="704" x2="732" y1="360" y2="360"/>
<line marker-end="url(#open_circle)" x1="732" x2="732" y1="304" y2="360"/>
</g>
<g>
<line marker-end="url(#triangle)" x1="704" x2="700" y1="360" y2="360"/>
</g>
<g>
<line marker-end="url(#triangle)" x1="732" x2="732" y1="64" y2="52"/>
</g>
<g>
<line marker-end="url(#triangle)" x1="732" x2="732" y1="144" y2="132"/>
</g>
<g>
<line marker-end="url(#triangle)" x1="732" x2="732" y1="224" y2="212"/>
</g>
<g>
<line marker-end="url(#triangle)" x1="732" x2="732" y1="304" y2="292"/>
</g>
<g>
<text x="1" y="76">
A
</text>
</g>
<g>
<text x="1" y="156">
J
</text>
</g>
<g>
<text x="1" y="236">
A
</text>
</g>
<g>
<text x="1" y="316">
X
</text>
</g>
<g>
<text x="1" y="412">
*
</text>
</g>
<g>
<text x="17" y="412">
The alignment graph for reversed strings and reversed edges are the
</text>
</g>
<g>
<text x="17" y="428">
same. They just look different because reversed strings starts at the
</text>
</g>
<g>
<text x="17" y="444">
top-left and flows towards down-right, while reversed edges starts
</text>
</g>
<g>
<text x="17" y="460">
bottom-right and flows towards top-left.
</text>
</g>
<g>
<text x="25" y="28">
S
</text>
</g>
<g>
<text x="65" y="12">
Original
</text>
</g>
<g>
<text x="65" y="28">
N
</text>
</g>
<g>
<text x="105" y="28">
A
</text>
</g>
<g>
<text x="145" y="28">
C
</text>
</g>
<g>
<text x="185" y="28">
K
</text>
</g>
<g>
<text x="265" y="76">
X
</text>
</g>
<g>
<text x="265" y="156">
A
</text>
</g>
<g>
<text x="265" y="236">
J
</text>
</g>
<g>
<text x="265" y="316">
A
</text>
</g>
<g>
<text x="289" y="28">
K
</text>
</g>
<g>
<text x="313" y="12">
Reversed strings
</text>
</g>
<g>
<text x="329" y="28">
C
</text>
</g>
<g>
<text x="369" y="28">
A
</text>
</g>
<g>
<text x="409" y="28">
N
</text>
</g>
<g>
<text x="449" y="28">
S
</text>
</g>
<g>
<text x="553" y="380">
S
</text>
</g>
<g>
<text x="569" y="12">
Reversed edges
</text>
</g>
<g>
<text x="593" y="380">
N
</text>
</g>
<g>
<text x="633" y="380">
A
</text>
</g>
<g>
<text x="673" y="380">
C
</text>
</g>
<g>
<text x="705" y="380">
K
</text>
</g>
<g>
<text x="737" y="92">
A
</text>
</g>
<g>
<text x="737" y="172">
J
</text>
</g>
<g>
<text x="737" y="252">
A
</text>
</g>
<g>
<text x="737" y="332">
X
</text>
</g>
<g>
<line marker-end="url(#triangle)" marker-start="url(#open_circle)" x1="12" x2="12" y1="40" y2="108"/>
<line marker-end="url(#triangle)" marker-start="url(#open_circle)" x1="12" x2="44" y1="40" y2="40"/>
<line marker-end="url(#triangle)" marker-start="url(#open_circle)" x1="12" x2="46" y1="40" y2="108"/>
</g>
<g>
<line marker-end="url(#triangle)" marker-start="url(#open_circle)" x1="12" x2="12" y1="120" y2="188"/>
<line marker-end="url(#triangle)" marker-start="url(#open_circle)" x1="12" x2="44" y1="120" y2="120"/>
<line marker-end="url(#triangle)" marker-start="url(#open_circle)" x1="12" x2="46" y1="120" y2="188"/>
</g>
<g>
<line marker-end="url(#triangle)" marker-start="url(#open_circle)" x1="12" x2="12" y1="200" y2="268"/>
<line marker-end="url(#triangle)" marker-start="url(#open_circle)" x1="12" x2="44" y1="200" y2="200"/>
<line marker-end="url(#triangle)" marker-start="url(#open_circle)" x1="12" x2="46" y1="200" y2="268"/>
</g>
<g>
<line marker-end="url(#triangle)" marker-start="url(#open_circle)" x1="12" x2="12" y1="280" y2="348"/>
<line marker-end="url(#triangle)" marker-start="url(#open_circle)" x1="12" x2="44" y1="280" y2="280"/>
<line marker-end="url(#triangle)" marker-start="url(#open_circle)" x1="12" x2="46" y1="280" y2="348"/>
</g>
<g>
<line marker-end="url(#triangle)" marker-start="url(#open_circle)" x1="12" x2="44" y1="360" y2="360"/>
</g>
<g>
<line marker-start="url(#open_circle)" x1="52" x2="48" y1="40" y2="40"/>
<line marker-end="url(#triangle)" marker-start="url(#open_circle)" x1="52" x2="52" y1="40" y2="108"/>
<line marker-end="url(#triangle)" marker-start="url(#open_circle)" x1="52" x2="84" y1="40" y2="40"/>
<line marker-end="url(#triangle)" marker-start="url(#open_circle)" x1="52" x2="86" y1="40" y2="108"/>
</g>
<g>
<line marker-start="url(#open_circle)" x1="52" x2="48" y1="120" y2="120"/>
<line marker-end="url(#triangle)" marker-start="url(#open_circle)" x1="52" x2="52" y1="120" y2="188"/>
<line marker-end="url(#triangle)" marker-start="url(#open_circle)" x1="52" x2="84" y1="120" y2="120"/>
<line marker-end="url(#triangle)" marker-start="url(#open_circle)" x1="52" x2="86" y1="120" y2="188"/>
</g>
<g>
<line marker-start="url(#open_circle)" x1="52" x2="48" y1="200" y2="200"/>
<line marker-end="url(#triangle)" marker-start="url(#open_circle)" x1="52" x2="52" y1="200" y2="268"/>
<line marker-end="url(#triangle)" marker-start="url(#open_circle)" x1="52" x2="84" y1="200" y2="200"/>
<line marker-end="url(#triangle)" marker-start="url(#open_circle)" x1="52" x2="86" y1="200" y2="268"/>
</g>
<g>
<line marker-start="url(#open_circle)" x1="52" x2="48" y1="280" y2="280"/>
<line marker-end="url(#triangle)" marker-start="url(#open_circle)" x1="52" x2="52" y1="280" y2="348"/>
<line marker-end="url(#triangle)" marker-start="url(#open_circle)" x1="52" x2="84" y1="280" y2="280"/>
<line marker-end="url(#triangle)" marker-start="url(#open_circle)" x1="52" x2="86" y1="280" y2="348"/>
</g>
<g>
<line marker-start="url(#open_circle)" x1="52" x2="48" y1="360" y2="360"/>
<line marker-end="url(#triangle)" marker-start="url(#open_circle)" x1="52" x2="84" y1="360" y2="360"/>
</g>
<g>
<line marker-start="url(#open_circle)" x1="92" x2="88" y1="40" y2="40"/>
<line marker-end="url(#triangle)" marker-start="url(#open_circle)" x1="92" x2="92" y1="40" y2="108"/>
<line marker-end="url(#triangle)" marker-start="url(#open_circle)" x1="92" x2="124" y1="40" y2="40"/>
<line marker-end="url(#triangle)" marker-start="url(#open_circle)" x1="92" x2="126" y1="40" y2="108"/>
</g>
<g>
<line marker-start="url(#open_circle)" x1="92" x2="88" y1="120" y2="120"/>
<line marker-end="url(#triangle)" marker-start="url(#open_circle)" x1="92" x2="92" y1="120" y2="188"/>
<line marker-end="url(#triangle)" marker-start="url(#open_circle)" x1="92" x2="124" y1="120" y2="120"/>
<line marker-end="url(#triangle)" marker-start="url(#open_circle)" x1="92" x2="126" y1="120" y2="188"/>
</g>
<g>
<line marker-start="url(#open_circle)" x1="92" x2="88" y1="200" y2="200"/>
<line marker-end="url(#triangle)" marker-start="url(#open_circle)" x1="92" x2="92" y1="200" y2="268"/>
<line marker-end="url(#triangle)" marker-start="url(#open_circle)" x1="92" x2="124" y1="200" y2="200"/>
<line marker-end="url(#triangle)" marker-start="url(#open_circle)" x1="92" x2="126" y1="200" y2="268"/>
</g>
<g>
<line marker-start="url(#open_circle)" x1="92" x2="88" y1="280" y2="280"/>
<line marker-end="url(#triangle)" marker-start="url(#open_circle)" x1="92" x2="92" y1="280" y2="348"/>
<line marker-end="url(#triangle)" marker-start="url(#open_circle)" x1="92" x2="124" y1="280" y2="280"/>
<line marker-end="url(#triangle)" marker-start="url(#open_circle)" x1="92" x2="126" y1="280" y2="348"/>
</g>
<g>
<line marker-start="url(#open_circle)" x1="92" x2="88" y1="360" y2="360"/>
<line marker-end="url(#triangle)" marker-start="url(#open_circle)" x1="92" x2="124" y1="360" y2="360"/>
</g>
<g>
<line marker-start="url(#open_circle)" x1="132" x2="128" y1="40" y2="40"/>
<line marker-end="url(#triangle)" marker-start="url(#open_circle)" x1="132" x2="132" y1="40" y2="108"/>
<line marker-end="url(#triangle)" marker-start="url(#open_circle)" x1="132" x2="164" y1="40" y2="40"/>
<line marker-end="url(#triangle)" marker-start="url(#open_circle)" x1="132" x2="166" y1="40" y2="108"/>
</g>
<g>
<line marker-start="url(#open_circle)" x1="132" x2="128" y1="120" y2="120"/>
<line marker-end="url(#triangle)" marker-start="url(#open_circle)" x1="132" x2="132" y1="120" y2="188"/>
<line marker-end="url(#triangle)" marker-start="url(#open_circle)" x1="132" x2="164" y1="120" y2="120"/>
<line marker-end="url(#triangle)" marker-start="url(#open_circle)" x1="132" x2="166" y1="120" y2="188"/>
</g>
<g>
<line marker-start="url(#open_circle)" x1="132" x2="128" y1="200" y2="200"/>
<line marker-end="url(#triangle)" marker-start="url(#open_circle)" x1="132" x2="132" y1="200" y2="268"/>
<line marker-end="url(#triangle)" marker-start="url(#open_circle)" x1="132" x2="164" y1="200" y2="200"/>
<line marker-end="url(#triangle)" marker-start="url(#open_circle)" x1="132" x2="166" y1="200" y2="268"/>
</g>
<g>
<line marker-start="url(#open_circle)" x1="132" x2="128" y1="280" y2="280"/>
<line marker-end="url(#triangle)" marker-start="url(#open_circle)" x1="132" x2="132" y1="280" y2="348"/>
<line marker-end="url(#triangle)" marker-start="url(#open_circle)" x1="132" x2="164" y1="280" y2="280"/>
<line marker-end="url(#triangle)" marker-start="url(#open_circle)" x1="132" x2="166" y1="280" y2="348"/>
</g>
<g>
<line marker-start="url(#open_circle)" x1="132" x2="128" y1="360" y2="360"/>
<line marker-end="url(#triangle)" marker-start="url(#open_circle)" x1="132" x2="164" y1="360" y2="360"/>
</g>
<g>
<line marker-start="url(#open_circle)" x1="172" x2="168" y1="40" y2="40"/>
<line marker-end="url(#triangle)" marker-start="url(#open_circle)" x1="172" x2="172" y1="40" y2="108"/>
<line marker-end="url(#triangle)" marker-start="url(#open_circle)" x1="172" x2="204" y1="40" y2="40"/>
<line marker-end="url(#triangle)" marker-start="url(#open_circle)" x1="172" x2="206" y1="40" y2="108"/>
</g>
<g>
<line marker-start="url(#open_circle)" x1="172" x2="168" y1="120" y2="120"/>
<line marker-end="url(#triangle)" marker-start="url(#open_circle)" x1="172" x2="172" y1="120" y2="188"/>
<line marker-end="url(#triangle)" marker-start="url(#open_circle)" x1="172" x2="204" y1="120" y2="120"/>
<line marker-end="url(#triangle)" marker-start="url(#open_circle)" x1="172" x2="206" y1="120" y2="188"/>
</g>
<g>
<line marker-start="url(#open_circle)" x1="172" x2="168" y1="200" y2="200"/>
<line marker-end="url(#triangle)" marker-start="url(#open_circle)" x1="172" x2="172" y1="200" y2="268"/>
<line marker-end="url(#triangle)" marker-start="url(#open_circle)" x1="172" x2="204" y1="200" y2="200"/>
<line marker-end="url(#triangle)" marker-start="url(#open_circle)" x1="172" x2="206" y1="200" y2="268"/>
</g>
<g>
<line marker-start="url(#open_circle)" x1="172" x2="168" y1="280" y2="280"/>
<line marker-end="url(#triangle)" marker-start="url(#open_circle)" x1="172" x2="172" y1="280" y2="348"/>
<line marker-end="url(#triangle)" marker-start="url(#open_circle)" x1="172" x2="204" y1="280" y2="280"/>
<line marker-end="url(#triangle)" marker-start="url(#open_circle)" x1="172" x2="206" y1="280" y2="348"/>
</g>
<g>
<line marker-start="url(#open_circle)" x1="172" x2="168" y1="360" y2="360"/>
<line marker-end="url(#triangle)" marker-start="url(#open_circle)" x1="172" x2="204" y1="360" y2="360"/>
</g>
<g>
<line marker-start="url(#open_circle)" x1="212" x2="208" y1="40" y2="40"/>
<line marker-end="url(#triangle)" marker-start="url(#open_circle)" x1="212" x2="212" y1="40" y2="108"/>
</g>
<g>
<line marker-start="url(#open_circle)" x1="212" x2="208" y1="120" y2="120"/>
<line marker-end="url(#triangle)" marker-start="url(#open_circle)" x1="212" x2="212" y1="120" y2="188"/>
</g>
<g>
<line marker-start="url(#open_circle)" x1="212" x2="208" y1="200" y2="200"/>
<line marker-end="url(#triangle)" marker-start="url(#open_circle)" x1="212" x2="212" y1="200" y2="268"/>
</g>
<g>
<line marker-start="url(#open_circle)" x1="212" x2="208" y1="280" y2="280"/>
<line marker-end="url(#triangle)" marker-start="url(#open_circle)" x1="212" x2="212" y1="280" y2="348"/>
</g>
<g>
<line marker-start="url(#open_circle)" x1="212" x2="208" y1="360" y2="360"/>
</g>
<g>
<line marker-end="url(#triangle)" marker-start="url(#open_circle)" x1="276" x2="276" y1="40" y2="108"/>
<line marker-end="url(#triangle)" marker-start="url(#open_circle)" x1="276" x2="308" y1="40" y2="40"/>
<line marker-end="url(#triangle)" marker-start="url(#open_circle)" x1="276" x2="310" y1="40" y2="108"/>
</g>
<g>
<line marker-end="url(#triangle)" marker-start="url(#open_circle)" x1="276" x2="276" y1="120" y2="188"/>
<line marker-end="url(#triangle)" marker-start="url(#open_circle)" x1="276" x2="308" y1="120" y2="120"/>
<line marker-end="url(#triangle)" marker-start="url(#open_circle)" x1="276" x2="310" y1="120" y2="188"/>
</g>
<g>
<line marker-end="url(#triangle)" marker-start="url(#open_circle)" x1="276" x2="276" y1="200" y2="268"/>
<line marker-end="url(#triangle)" marker-start="url(#open_circle)" x1="276" x2="308" y1="200" y2="200"/>
<line marker-end="url(#triangle)" marker-start="url(#open_circle)" x1="276" x2="310" y1="200" y2="268"/>
</g>
<g>
<line marker-end="url(#triangle)" marker-start="url(#open_circle)" x1="276" x2="276" y1="280" y2="348"/>
<line marker-end="url(#triangle)" marker-start="url(#open_circle)" x1="276" x2="308" y1="280" y2="280"/>
<line marker-end="url(#triangle)" marker-start="url(#open_circle)" x1="276" x2="310" y1="280" y2="348"/>
</g>
<g>
<line marker-end="url(#triangle)" marker-start="url(#open_circle)" x1="276" x2="308" y1="360" y2="360"/>
</g>
<g>
<line marker-start="url(#open_circle)" x1="316" x2="312" y1="40" y2="40"/>
<line marker-end="url(#triangle)" marker-start="url(#open_circle)" x1="316" x2="316" y1="40" y2="108"/>
<line marker-end="url(#triangle)" marker-start="url(#open_circle)" x1="316" x2="348" y1="40" y2="40"/>
<line marker-end="url(#triangle)" marker-start="url(#open_circle)" x1="316" x2="350" y1="40" y2="108"/>
</g>
<g>
<line marker-start="url(#open_circle)" x1="316" x2="312" y1="120" y2="120"/>
<line marker-end="url(#triangle)" marker-start="url(#open_circle)" x1="316" x2="316" y1="120" y2="188"/>
<line marker-end="url(#triangle)" marker-start="url(#open_circle)" x1="316" x2="348" y1="120" y2="120"/>
<line marker-end="url(#triangle)" marker-start="url(#open_circle)" x1="316" x2="350" y1="120" y2="188"/>
</g>
<g>
<line marker-start="url(#open_circle)" x1="316" x2="312" y1="200" y2="200"/>
<line marker-end="url(#triangle)" marker-start="url(#open_circle)" x1="316" x2="316" y1="200" y2="268"/>
<line marker-end="url(#triangle)" marker-start="url(#open_circle)" x1="316" x2="348" y1="200" y2="200"/>
<line marker-end="url(#triangle)" marker-start="url(#open_circle)" x1="316" x2="350" y1="200" y2="268"/>
</g>
<g>
<line marker-start="url(#open_circle)" x1="316" x2="312" y1="280" y2="280"/>
<line marker-end="url(#triangle)" marker-start="url(#open_circle)" x1="316" x2="316" y1="280" y2="348"/>
<line marker-end="url(#triangle)" marker-start="url(#open_circle)" x1="316" x2="348" y1="280" y2="280"/>
<line marker-end="url(#triangle)" marker-start="url(#open_circle)" x1="316" x2="350" y1="280" y2="348"/>
</g>
<g>
<line marker-start="url(#open_circle)" x1="316" x2="312" y1="360" y2="360"/>
<line marker-end="url(#triangle)" marker-start="url(#open_circle)" x1="316" x2="348" y1="360" y2="360"/>
</g>
<g>
<line marker-start="url(#open_circle)" x1="356" x2="352" y1="40" y2="40"/>
<line marker-end="url(#triangle)" marker-start="url(#open_circle)" x1="356" x2="356" y1="40" y2="108"/>
<line marker-end="url(#triangle)" marker-start="url(#open_circle)" x1="356" x2="388" y1="40" y2="40"/>
<line marker-end="url(#triangle)" marker-start="url(#open_circle)" x1="356" x2="390" y1="40" y2="108"/>
</g>
<g>
<line marker-start="url(#open_circle)" x1="356" x2="352" y1="120" y2="120"/>
<line marker-end="url(#triangle)" marker-start="url(#open_circle)" x1="356" x2="356" y1="120" y2="188"/>
<line marker-end="url(#triangle)" marker-start="url(#open_circle)" x1="356" x2="388" y1="120" y2="120"/>
<line marker-end="url(#triangle)" marker-start="url(#open_circle)" x1="356" x2="390" y1="120" y2="188"/>
</g>
<g>
<line marker-start="url(#open_circle)" x1="356" x2="352" y1="200" y2="200"/>
<line marker-end="url(#triangle)" marker-start="url(#open_circle)" x1="356" x2="356" y1="200" y2="268"/>
<line marker-end="url(#triangle)" marker-start="url(#open_circle)" x1="356" x2="388" y1="200" y2="200"/>
<line marker-end="url(#triangle)" marker-start="url(#open_circle)" x1="356" x2="390" y1="200" y2="268"/>
</g>
<g>
<line marker-start="url(#open_circle)" x1="356" x2="352" y1="280" y2="280"/>
<line marker-end="url(#triangle)" marker-start="url(#open_circle)" x1="356" x2="356" y1="280" y2="348"/>
<line marker-end="url(#triangle)" marker-start="url(#open_circle)" x1="356" x2="388" y1="280" y2="280"/>
<line marker-end="url(#triangle)" marker-start="url(#open_circle)" x1="356" x2="390" y1="280" y2="348"/>
</g>
<g>
<line marker-start="url(#open_circle)" x1="356" x2="352" y1="360" y2="360"/>
<line marker-end="url(#triangle)" marker-start="url(#open_circle)" x1="356" x2="388" y1="360" y2="360"/>
</g>
<g>
<line marker-start="url(#open_circle)" x1="396" x2="392" y1="40" y2="40"/>
<line marker-end="url(#triangle)" marker-start="url(#open_circle)" x1="396" x2="396" y1="40" y2="108"/>
<line marker-end="url(#triangle)" marker-start="url(#open_circle)" x1="396" x2="428" y1="40" y2="40"/>
<line marker-end="url(#triangle)" marker-start="url(#open_circle)" x1="396" x2="430" y1="40" y2="108"/>
</g>
<g>
<line marker-start="url(#open_circle)" x1="396" x2="392" y1="120" y2="120"/>
<line marker-end="url(#triangle)" marker-start="url(#open_circle)" x1="396" x2="396" y1="120" y2="188"/>
<line marker-end="url(#triangle)" marker-start="url(#open_circle)" x1="396" x2="428" y1="120" y2="120"/>
<line marker-end="url(#triangle)" marker-start="url(#open_circle)" x1="396" x2="430" y1="120" y2="188"/>
</g>
<g>
<line marker-start="url(#open_circle)" x1="396" x2="392" y1="200" y2="200"/>
<line marker-end="url(#triangle)" marker-start="url(#open_circle)" x1="396" x2="396" y1="200" y2="268"/>
<line marker-end="url(#triangle)" marker-start="url(#open_circle)" x1="396" x2="428" y1="200" y2="200"/>
<line marker-end="url(#triangle)" marker-start="url(#open_circle)" x1="396" x2="430" y1="200" y2="268"/>
</g>
<g>
<line marker-start="url(#open_circle)" x1="396" x2="392" y1="280" y2="280"/>
<line marker-end="url(#triangle)" marker-start="url(#open_circle)" x1="396" x2="396" y1="280" y2="348"/>
<line marker-end="url(#triangle)" marker-start="url(#open_circle)" x1="396" x2="428" y1="280" y2="280"/>
<line marker-end="url(#triangle)" marker-start="url(#open_circle)" x1="396" x2="430" y1="280" y2="348"/>
</g>
<g>
<line marker-start="url(#open_circle)" x1="396" x2="392" y1="360" y2="360"/>
<line marker-end="url(#triangle)" marker-start="url(#open_circle)" x1="396" x2="428" y1="360" y2="360"/>
</g>
<g>
<line marker-start="url(#open_circle)" x1="436" x2="432" y1="40" y2="40"/>
<line marker-end="url(#triangle)" marker-start="url(#open_circle)" x1="436" x2="436" y1="40" y2="108"/>
<line marker-end="url(#triangle)" marker-start="url(#open_circle)" x1="436" x2="468" y1="40" y2="40"/>
<line marker-end="url(#triangle)" marker-start="url(#open_circle)" x1="436" x2="470" y1="40" y2="108"/>
</g>
<g>
<line marker-start="url(#open_circle)" x1="436" x2="432" y1="120" y2="120"/>
<line marker-end="url(#triangle)" marker-start="url(#open_circle)" x1="436" x2="436" y1="120" y2="188"/>
<line marker-end="url(#triangle)" marker-start="url(#open_circle)" x1="436" x2="468" y1="120" y2="120"/>
<line marker-end="url(#triangle)" marker-start="url(#open_circle)" x1="436" x2="470" y1="120" y2="188"/>
</g>
<g>
<line marker-start="url(#open_circle)" x1="436" x2="432" y1="200" y2="200"/>
<line marker-end="url(#triangle)" marker-start="url(#open_circle)" x1="436" x2="436" y1="200" y2="268"/>
<line marker-end="url(#triangle)" marker-start="url(#open_circle)" x1="436" x2="468" y1="200" y2="200"/>
<line marker-end="url(#triangle)" marker-start="url(#open_circle)" x1="436" x2="470" y1="200" y2="268"/>
</g>
<g>
<line marker-start="url(#open_circle)" x1="436" x2="432" y1="280" y2="280"/>
<line marker-end="url(#triangle)" marker-start="url(#open_circle)" x1="436" x2="436" y1="280" y2="348"/>
<line marker-end="url(#triangle)" marker-start="url(#open_circle)" x1="436" x2="468" y1="280" y2="280"/>
<line marker-end="url(#triangle)" marker-start="url(#open_circle)" x1="436" x2="470" y1="280" y2="348"/>
</g>
<g>
<line marker-start="url(#open_circle)" x1="436" x2="432" y1="360" y2="360"/>
<line marker-end="url(#triangle)" marker-start="url(#open_circle)" x1="436" x2="468" y1="360" y2="360"/>
</g>
<g>
<line marker-start="url(#open_circle)" x1="476" x2="472" y1="40" y2="40"/>
<line marker-end="url(#triangle)" marker-start="url(#open_circle)" x1="476" x2="476" y1="40" y2="108"/>
</g>
<g>
<line marker-start="url(#open_circle)" x1="476" x2="472" y1="120" y2="120"/>
<line marker-end="url(#triangle)" marker-start="url(#open_circle)" x1="476" x2="476" y1="120" y2="188"/>
</g>
<g>
<line marker-start="url(#open_circle)" x1="476" x2="472" y1="200" y2="200"/>
<line marker-end="url(#triangle)" marker-start="url(#open_circle)" x1="476" x2="476" y1="200" y2="268"/>
</g>
<g>
<line marker-start="url(#open_circle)" x1="476" x2="472" y1="280" y2="280"/>
<line marker-end="url(#triangle)" marker-start="url(#open_circle)" x1="476" x2="476" y1="280" y2="348"/>
</g>
<g>
<line marker-start="url(#open_circle)" x1="476" x2="472" y1="360" y2="360"/>
</g>
<g>
<line marker-start="url(#open_circle)" x1="532" x2="536" y1="40" y2="40"/>
</g>
</svg>
