<svg class="bob" font-family="arial" font-size="14" height="1088" width="1120" xmlns="http://www.w3.org/2000/svg">
<defs>
<marker id="triangle" markerHeight="8" markerWidth="8" orient="auto" refX="4" refY="2" viewBox="0 0 8 4">
<polygon class="fg_fill" points="0,0 0,4 8,2 0,0"/>
</marker>
<marker id="clear_triangle" markerHeight="10" markerWidth="10" orient="auto" refX="1" refY="7" viewBox="0 0 20 14">
<polygon class="bg_fill" points="2,2 2,12 18,7 2,2"/>
</marker>
<marker id="circle" markerHeight="5" markerWidth="5" orient="auto" refX="10" refY="10" viewBox="0 0 20 20">
<circle class="fg_fill" cx="10" cy="10" r="8"/>
</marker>
<marker id="square" markerHeight="5" markerWidth="5" orient="auto" refX="10" refY="10" viewBox="0 0 20 20">
<rect class="fg_fill" height="20" width="20" x="0" y="0"/>
</marker>
<marker id="open_circle" markerHeight="10" markerWidth="10" orient="auto" refX="10" refY="10" viewBox="0 0 20 20">
<circle class="bg_fill" cx="10" cy="10" r="4"/>
</marker>
<marker id="big_open_circle" markerHeight="20" markerWidth="20" orient="auto" refX="20" refY="20" viewBox="0 0 40 40">
<circle class="bg_fill" cx="20" cy="20" r="6"/>
</marker>
</defs>
<style type="text/css">

rect.backdrop {
    fill: white;
}
text{
    fill: black;
}

circle {
    fill: none;
    stroke: black;
    stroke-width: 2;
}

line {
    stroke: black;
    stroke-width: 2;
    stroke-opacity: 1;
    fill-opacity: 1;
    stroke-linecap: round;
    stroke-linejoin: miter;
}

path {
    fill: none;
    stroke: black;
    stroke-width: 2;
    stroke-opacity: 1;
    fill-opacity: 1;
    stroke-linecap: round;
    stroke-linejoin: miter;
}

line.dashed {
    stroke-dasharray: 5;
}

.fg_fill {
    fill: black;
}


.bg_fill {
    fill: white;
    stroke: black;
    stroke-width: 2;
}

tspan.head{
    fill: none;
    stroke: none;
}
    
</style>
<rect class="backdrop" height="1088" width="1120" x="0" y="0"/>
<g>
<line x1="4" x2="4" y1="504" y2="536"/>
<line x1="4" x2="60" y1="504" y2="504"/>
<line x1="4" x2="60" y1="536" y2="536"/>
<line x1="60" x2="60" y1="476" y2="504"/>
<line x1="60" x2="76" y1="504" y2="504"/>
<line x1="60" x2="60" y1="536" y2="564"/>
<line x1="60" x2="76" y1="536" y2="536"/>
<line x1="76" x2="76" y1="504" y2="536"/>
<path d="M 60 564 A 4 4 0 0 0 64 568"/>
<path d="M 64 472 A 4 4 0 0 0 60 476"/>
</g>
<g>
<line x1="4" x2="4" y1="904" y2="936"/>
<line x1="4" x2="60" y1="904" y2="904"/>
<line x1="4" x2="60" y1="936" y2="936"/>
<line x1="60" x2="60" y1="876" y2="904"/>
<line x1="60" x2="76" y1="904" y2="904"/>
<line x1="60" x2="60" y1="936" y2="964"/>
<line x1="60" x2="76" y1="936" y2="936"/>
<line x1="76" x2="76" y1="904" y2="936"/>
<path d="M 60 964 A 4 4 0 0 0 64 968"/>
<path d="M 64 872 A 4 4 0 0 0 60 876"/>
</g>
<g>
<line marker-end="url(#triangle)" x1="64" x2="92" y1="472" y2="472"/>
</g>
<g>
<line marker-end="url(#triangle)" x1="64" x2="92" y1="568" y2="568"/>
</g>
<g>
<line marker-end="url(#triangle)" x1="64" x2="92" y1="872" y2="872"/>
</g>
<g>
<line marker-end="url(#triangle)" x1="64" x2="92" y1="968" y2="968"/>
</g>
<g>
<line x1="100" x2="100" y1="440" y2="488"/>
<line x1="100" x2="140" y1="440" y2="440"/>
<line x1="100" x2="140" y1="488" y2="488"/>
<line x1="140" x2="140" y1="440" y2="472"/>
<line x1="140" x2="140" y1="472" y2="488"/>
<line x1="140" x2="144" y1="472" y2="472"/>
<path d="M 150 476 A 8 8 0 0 0 144 472"/>
</g>
<g>
<line x1="100" x2="100" y1="552" y2="600"/>
<line x1="100" x2="140" y1="552" y2="552"/>
<line x1="100" x2="116" y1="600" y2="600"/>
<line marker-end="url(#triangle)" x1="116" x2="116" y1="600" y2="636"/>
<line x1="116" x2="140" y1="600" y2="600"/>
<line x1="140" x2="140" y1="552" y2="600"/>
</g>
<g>
<line x1="100" x2="100" y1="648" y2="680"/>
<line x1="100" x2="140" y1="648" y2="648"/>
<line x1="100" x2="140" y1="680" y2="680"/>
<line x1="140" x2="140" y1="648" y2="664"/>
<line x1="140" x2="140" y1="664" y2="680"/>
<line x1="140" x2="144" y1="664" y2="664"/>
<path d="M 144 664 A 8 8 0 0 0 150 660"/>
</g>
<g>
<line x1="100" x2="100" y1="840" y2="888"/>
<line x1="100" x2="140" y1="840" y2="840"/>
<line x1="100" x2="140" y1="888" y2="888"/>
<line x1="140" x2="140" y1="840" y2="872"/>
<line x1="140" x2="140" y1="872" y2="888"/>
<line x1="140" x2="144" y1="872" y2="872"/>
<path d="M 150 876 A 8 8 0 0 0 144 872"/>
</g>
<g>
<line x1="100" x2="100" y1="952" y2="1000"/>
<line x1="100" x2="140" y1="952" y2="952"/>
<line x1="100" x2="116" y1="1000" y2="1000"/>
<line marker-end="url(#triangle)" x1="116" x2="116" y1="1000" y2="1036"/>
<line x1="116" x2="140" y1="1000" y2="1000"/>
<line x1="140" x2="140" y1="952" y2="1000"/>
</g>
<g>
<line x1="100" x2="100" y1="1048" y2="1080"/>
<line x1="100" x2="140" y1="1048" y2="1048"/>
<line x1="100" x2="140" y1="1080" y2="1080"/>
<line x1="140" x2="140" y1="1048" y2="1064"/>
<line x1="140" x2="140" y1="1064" y2="1080"/>
<line x1="140" x2="144" y1="1064" y2="1064"/>
<path d="M 144 1064 A 8 8 0 0 0 150 1060"/>
</g>
<g>
<line x1="150" x2="194" y1="476" y2="564"/>
<path d="M 194 564 A 8 8 0 0 0 200 568"/>
</g>
<g>
<line x1="150" x2="194" y1="876" y2="964"/>
<path d="M 194 964 A 8 8 0 0 0 200 968"/>
</g>
<g>
<line x1="186" x2="150" y1="588" y2="660"/>
<path d="M 192 584 A 8 8 0 0 0 186 588"/>
</g>
<g>
<line x1="186" x2="150" y1="988" y2="1060"/>
<path d="M 192 984 A 8 8 0 0 0 186 988"/>
</g>
<g>
<line marker-end="url(#triangle)" x1="192" x2="244" y1="584" y2="584"/>
</g>
<g>
<line marker-end="url(#triangle)" x1="192" x2="244" y1="984" y2="984"/>
</g>
<g>
<line x1="196" x2="196" y1="120" y2="152"/>
<line x1="196" x2="252" y1="120" y2="120"/>
<line x1="196" x2="252" y1="152" y2="152"/>
<line x1="252" x2="252" y1="92" y2="120"/>
<line x1="252" x2="268" y1="120" y2="120"/>
<line x1="252" x2="252" y1="152" y2="180"/>
<line x1="252" x2="268" y1="152" y2="152"/>
<line x1="268" x2="268" y1="120" y2="152"/>
<path d="M 252 180 A 4 4 0 0 0 256 184"/>
<path d="M 256 88 A 4 4 0 0 0 252 92"/>
</g>
<g>
<line marker-end="url(#triangle)" x1="200" x2="244" y1="568" y2="568"/>
</g>
<g>
<line marker-end="url(#triangle)" x1="200" x2="244" y1="968" y2="968"/>
</g>
<g>
<line x1="252" x2="252" y1="552" y2="600"/>
<line x1="252" x2="292" y1="552" y2="552"/>
<line x1="252" x2="292" y1="600" y2="600"/>
<line x1="292" x2="292" y1="552" y2="568"/>
<line x1="292" x2="292" y1="568" y2="600"/>
</g>
<g>
<line x1="252" x2="252" y1="952" y2="1000"/>
<line x1="252" x2="292" y1="952" y2="952"/>
<line x1="252" x2="292" y1="1000" y2="1000"/>
<line x1="292" x2="292" y1="952" y2="968"/>
<line x1="292" x2="292" y1="968" y2="1000"/>
<line x1="292" x2="296" y1="968" y2="968"/>
<path d="M 296 968 A 8 8 0 0 0 302 964"/>
</g>
<g>
<line marker-end="url(#triangle)" x1="256" x2="284" y1="88" y2="88"/>
</g>
<g>
<line marker-end="url(#triangle)" x1="256" x2="284" y1="184" y2="184"/>
</g>
<g>
<line x1="292" x2="292" y1="56" y2="104"/>
<line x1="292" x2="332" y1="56" y2="56"/>
<line x1="292" x2="332" y1="104" y2="104"/>
<line x1="332" x2="332" y1="56" y2="88"/>
<line x1="332" x2="332" y1="88" y2="104"/>
<line x1="332" x2="336" y1="88" y2="88"/>
<path d="M 342 92 A 8 8 0 0 0 336 88"/>
</g>
<g>
<line x1="292" x2="292" y1="168" y2="216"/>
<line x1="292" x2="332" y1="168" y2="168"/>
<line x1="292" x2="308" y1="216" y2="216"/>
<line marker-end="url(#triangle)" x1="308" x2="308" y1="216" y2="252"/>
<line x1="308" x2="332" y1="216" y2="216"/>
<line x1="332" x2="332" y1="168" y2="216"/>
</g>
<g>
<line x1="292" x2="292" y1="264" y2="296"/>
<line x1="292" x2="332" y1="264" y2="264"/>
<line x1="292" x2="332" y1="296" y2="296"/>
<line x1="332" x2="332" y1="264" y2="280"/>
<line x1="332" x2="332" y1="280" y2="296"/>
<line x1="332" x2="336" y1="280" y2="280"/>
<path d="M 336 280 A 8 8 0 0 0 342 276"/>
</g>
<g>
<line x1="342" x2="386" y1="92" y2="180"/>
<path d="M 386 180 A 8 8 0 0 0 392 184"/>
</g>
<g>
<line x1="346" x2="302" y1="876" y2="964"/>
<path d="M 352 872 A 8 8 0 0 0 346 876"/>
</g>
<g>
<line marker-end="url(#triangle)" x1="352" x2="396" y1="872" y2="872"/>
</g>
<g>
<line x1="378" x2="342" y1="204" y2="276"/>
<path d="M 384 200 A 8 8 0 0 0 378 204"/>
</g>
<g>
<line marker-end="url(#triangle)" x1="384" x2="436" y1="200" y2="200"/>
</g>
<g>
<line marker-end="url(#triangle)" x1="392" x2="436" y1="184" y2="184"/>
</g>
<g>
<line x1="404" x2="404" y1="840" y2="888"/>
<line x1="404" x2="444" y1="840" y2="840"/>
<line x1="404" x2="444" y1="888" y2="888"/>
<line x1="444" x2="444" y1="840" y2="856"/>
<line x1="444" x2="444" y1="856" y2="872"/>
<line x1="444" x2="444" y1="872" y2="888"/>
</g>
<g>
<line x1="444" x2="444" y1="168" y2="216"/>
<line x1="444" x2="484" y1="168" y2="168"/>
<line x1="444" x2="484" y1="216" y2="216"/>
<line x1="484" x2="484" y1="168" y2="184"/>
<line x1="484" x2="484" y1="184" y2="216"/>
<line x1="484" x2="488" y1="184" y2="184"/>
<path d="M 488 184 A 8 8 0 0 0 494 180"/>
</g>
<g>
<line x1="538" x2="494" y1="92" y2="180"/>
<path d="M 544 88 A 8 8 0 0 0 538 92"/>
</g>
<g>
<line marker-end="url(#triangle)" x1="544" x2="588" y1="88" y2="88"/>
</g>
<g>
<line x1="596" x2="596" y1="56" y2="104"/>
<line x1="596" x2="636" y1="56" y2="56"/>
<line x1="596" x2="636" y1="104" y2="104"/>
<line x1="636" x2="636" y1="56" y2="72"/>
<line x1="636" x2="636" y1="72" y2="88"/>
<line marker-end="url(#triangle)" x1="636" x2="740" y1="72" y2="72"/>
<line x1="636" x2="636" y1="88" y2="104"/>
<line x1="636" x2="640" y1="88" y2="88"/>
<path d="M 646 92 A 8 8 0 0 0 640 88"/>
</g>
<g>
<line x1="646" x2="690" y1="92" y2="180"/>
<path d="M 690 180 A 8 8 0 0 0 696 184"/>
</g>
<g>
<line x1="692" x2="692" y1="552" y2="600"/>
<line x1="692" x2="732" y1="552" y2="552"/>
<line x1="692" x2="732" y1="600" y2="600"/>
<line x1="732" x2="732" y1="552" y2="568"/>
<line x1="732" x2="732" y1="568" y2="600"/>
<line x1="732" x2="736" y1="568" y2="568"/>
<path d="M 736 568 A 8 8 0 0 0 742 564"/>
</g>
<g>
<line x1="692" x2="692" y1="840" y2="888"/>
<line x1="692" x2="732" y1="840" y2="840"/>
<line x1="692" x2="732" y1="888" y2="888"/>
<line x1="732" x2="732" y1="840" y2="856"/>
<line x1="732" x2="732" y1="856" y2="872"/>
<line marker-end="url(#triangle)" x1="732" x2="836" y1="856" y2="856"/>
<line x1="732" x2="732" y1="872" y2="888"/>
<line x1="732" x2="736" y1="872" y2="872"/>
<path d="M 742 876 A 8 8 0 0 0 736 872"/>
</g>
<g>
<line marker-end="url(#triangle)" x1="696" x2="740" y1="184" y2="184"/>
</g>
<g>
<line x1="742" x2="786" y1="876" y2="964"/>
<path d="M 786 964 A 8 8 0 0 0 792 968"/>
</g>
<g>
<line x1="748" x2="748" y1="56" y2="104"/>
<line x1="748" x2="788" y1="56" y2="56"/>
<line x1="748" x2="788" y1="104" y2="104"/>
<line x1="788" x2="788" y1="56" y2="72"/>
<line x1="788" x2="788" y1="72" y2="104"/>
<line x1="788" x2="816" y1="72" y2="72"/>
<path d="M 820 76 A 4 4 0 0 0 816 72"/>
</g>
<g>
<line x1="748" x2="748" y1="168" y2="216"/>
<line x1="748" x2="788" y1="168" y2="168"/>
<line x1="748" x2="764" y1="216" y2="216"/>
<line marker-end="url(#triangle)" x1="764" x2="764" y1="216" y2="252"/>
<line x1="764" x2="788" y1="216" y2="216"/>
<line x1="788" x2="788" y1="168" y2="200"/>
<line x1="788" x2="788" y1="200" y2="216"/>
<line x1="788" x2="816" y1="200" y2="200"/>
<path d="M 816 200 A 4 4 0 0 0 820 196"/>
</g>
<g>
<line x1="748" x2="748" y1="264" y2="296"/>
<line x1="748" x2="788" y1="264" y2="264"/>
<line x1="748" x2="788" y1="296" y2="296"/>
<line x1="788" x2="788" y1="264" y2="280"/>
<line x1="788" x2="788" y1="280" y2="296"/>
<line x1="788" x2="832" y1="280" y2="280"/>
<path d="M 832 280 A 4 4 0 0 0 836 276"/>
</g>
<g>
<line x1="786" x2="742" y1="476" y2="564"/>
<path d="M 792 472 A 8 8 0 0 0 786 476"/>
</g>
<g>
<line marker-end="url(#triangle)" x1="792" x2="836" y1="472" y2="472"/>
</g>
<g>
<line marker-end="url(#triangle)" x1="792" x2="836" y1="968" y2="968"/>
</g>
<g>
<line x1="812" x2="812" y1="120" y2="152"/>
<line x1="812" x2="868" y1="120" y2="120"/>
<line x1="812" x2="868" y1="152" y2="152"/>
<line x1="868" x2="868" y1="120" y2="152"/>
</g>
<g>
<line marker-end="url(#triangle)" x1="820" x2="820" y1="76" y2="108"/>
</g>
<g>
<line marker-end="url(#triangle)" x1="820" x2="820" y1="176" y2="164"/>
<line x1="820" x2="820" y1="176" y2="196"/>
</g>
<g>
<line marker-end="url(#triangle)" x1="836" x2="836" y1="176" y2="164"/>
<line x1="836" x2="836" y1="176" y2="276"/>
</g>
<g>
<line x1="844" x2="844" y1="440" y2="488"/>
<line x1="844" x2="884" y1="440" y2="440"/>
<line x1="844" x2="884" y1="488" y2="488"/>
<line x1="884" x2="884" y1="440" y2="456"/>
<line x1="884" x2="884" y1="456" y2="472"/>
<line marker-end="url(#triangle)" x1="884" x2="988" y1="456" y2="456"/>
<line x1="884" x2="884" y1="472" y2="488"/>
<line x1="884" x2="888" y1="472" y2="472"/>
<path d="M 894 476 A 8 8 0 0 0 888 472"/>
</g>
<g>
<line x1="844" x2="844" y1="840" y2="888"/>
<line x1="844" x2="884" y1="840" y2="840"/>
<line x1="844" x2="884" y1="888" y2="888"/>
<line x1="884" x2="884" y1="840" y2="856"/>
<line x1="884" x2="884" y1="856" y2="888"/>
<line x1="884" x2="912" y1="856" y2="856"/>
<path d="M 916 860 A 4 4 0 0 0 912 856"/>
</g>
<g>
<line x1="844" x2="844" y1="952" y2="1000"/>
<line x1="844" x2="884" y1="952" y2="952"/>
<line x1="844" x2="860" y1="1000" y2="1000"/>
<line marker-end="url(#triangle)" x1="860" x2="860" y1="1000" y2="1036"/>
<line x1="860" x2="884" y1="1000" y2="1000"/>
<line x1="884" x2="884" y1="952" y2="984"/>
<line x1="884" x2="884" y1="984" y2="1000"/>
<line x1="884" x2="912" y1="984" y2="984"/>
<path d="M 912 984 A 4 4 0 0 0 916 980"/>
</g>
<g>
<line x1="844" x2="844" y1="1048" y2="1080"/>
<line x1="844" x2="884" y1="1048" y2="1048"/>
<line x1="844" x2="884" y1="1080" y2="1080"/>
<line x1="884" x2="884" y1="1048" y2="1064"/>
<line x1="884" x2="884" y1="1064" y2="1080"/>
<line x1="884" x2="928" y1="1064" y2="1064"/>
<path d="M 928 1064 A 4 4 0 0 0 932 1060"/>
</g>
<g>
<line x1="894" x2="938" y1="476" y2="564"/>
<path d="M 938 564 A 8 8 0 0 0 944 568"/>
</g>
<g>
<line x1="908" x2="908" y1="904" y2="936"/>
<line x1="908" x2="964" y1="904" y2="904"/>
<line x1="908" x2="964" y1="936" y2="936"/>
<line x1="964" x2="964" y1="904" y2="936"/>
</g>
<g>
<line marker-end="url(#triangle)" x1="916" x2="916" y1="860" y2="892"/>
</g>
<g>
<line marker-end="url(#triangle)" x1="916" x2="916" y1="960" y2="948"/>
<line x1="916" x2="916" y1="960" y2="980"/>
</g>
<g>
<line marker-end="url(#triangle)" x1="932" x2="932" y1="960" y2="948"/>
<line x1="932" x2="932" y1="960" y2="1060"/>
</g>
<g>
<line marker-end="url(#triangle)" x1="944" x2="988" y1="568" y2="568"/>
</g>
<g>
<line x1="996" x2="996" y1="440" y2="488"/>
<line x1="996" x2="1036" y1="440" y2="440"/>
<line x1="996" x2="1036" y1="488" y2="488"/>
<line x1="1036" x2="1036" y1="440" y2="456"/>
<line x1="1036" x2="1036" y1="456" y2="488"/>
<line x1="1036" x2="1064" y1="456" y2="456"/>
<path d="M 1068 460 A 4 4 0 0 0 1064 456"/>
</g>
<g>
<line x1="996" x2="996" y1="552" y2="600"/>
<line x1="996" x2="1036" y1="552" y2="552"/>
<line x1="996" x2="1012" y1="600" y2="600"/>
<line marker-end="url(#triangle)" x1="1012" x2="1012" y1="600" y2="636"/>
<line x1="1012" x2="1036" y1="600" y2="600"/>
<line x1="1036" x2="1036" y1="552" y2="584"/>
<line x1="1036" x2="1036" y1="584" y2="600"/>
<line x1="1036" x2="1064" y1="584" y2="584"/>
<path d="M 1064 584 A 4 4 0 0 0 1068 580"/>
</g>
<g>
<line x1="996" x2="996" y1="648" y2="680"/>
<line x1="996" x2="1036" y1="648" y2="648"/>
<line x1="996" x2="1036" y1="680" y2="680"/>
<line x1="1036" x2="1036" y1="648" y2="664"/>
<line x1="1036" x2="1036" y1="664" y2="680"/>
<line x1="1036" x2="1080" y1="664" y2="664"/>
<path d="M 1080 664 A 4 4 0 0 0 1084 660"/>
</g>
<g>
<line x1="1060" x2="1060" y1="504" y2="536"/>
<line x1="1060" x2="1116" y1="504" y2="504"/>
<line x1="1060" x2="1116" y1="536" y2="536"/>
<line x1="1116" x2="1116" y1="504" y2="536"/>
</g>
<g>
<line marker-end="url(#triangle)" x1="1068" x2="1068" y1="460" y2="492"/>
</g>
<g>
<line marker-end="url(#triangle)" x1="1068" x2="1068" y1="560" y2="548"/>
<line x1="1068" x2="1068" y1="560" y2="580"/>
</g>
<g>
<line marker-end="url(#triangle)" x1="1084" x2="1084" y1="560" y2="548"/>
<line x1="1084" x2="1084" y1="560" y2="660"/>
</g>
<g>
<text x="17" y="524">
SOURCE
</text>
</g>
<g>
<text x="17" y="924">
SOURCE
</text>
</g>
<g>
<text x="73" y="380">
LEFT-HAND SIDE
</text>
</g>
<g>
<text x="73" y="396">
(up to B1)
</text>
</g>
<g>
<text x="73" y="780">
LEFT-HAND SIDE
</text>
</g>
<g>
<text x="73" y="796">
(up to A2)
</text>
</g>
<g>
<text x="113" y="460">
A0
</text>
</g>
<g>
<text x="113" y="572">
B0
</text>
</g>
<g>
<text x="113" y="668">
C0
</text>
</g>
<g>
<text x="113" y="860">
A0
</text>
</g>
<g>
<text x="113" y="972">
B0
</text>
</g>
<g>
<text x="113" y="1068">
C0
</text>
</g>
<g>
<text x="121" y="412">
y
</text>
</g>
<g>
<text x="121" y="812">
y
</text>
</g>
<g>
<text x="209" y="140">
SOURCE
</text>
</g>
<g>
<text x="265" y="572">
B1
</text>
</g>
<g>
<text x="265" y="972">
B1
</text>
</g>
<g>
<text x="273" y="412">
y
</text>
</g>
<g>
<text x="273" y="812">
y
</text>
</g>
<g>
<text x="305" y="76">
A0
</text>
</g>
<g>
<text x="305" y="188">
B0
</text>
</g>
<g>
<text x="305" y="284">
C0
</text>
</g>
<g>
<text x="313" y="28">
y
</text>
</g>
<g>
<text x="417" y="860">
A2
</text>
</g>
<g>
<text x="425" y="812">
z
</text>
</g>
<g>
<text x="457" y="188">
B1
</text>
</g>
<g>
<text x="465" y="28">
y
</text>
</g>
<g>
<text x="513" y="364">
SPLIT ON B1
</text>
</g>
<g>
<text x="513" y="764">
SPLIT ON A2
</text>
</g>
<g>
<text x="521" y="12">
FULL
</text>
</g>
<g>
<text x="609" y="76">
A2
</text>
</g>
<g>
<text x="617" y="28">
z
</text>
</g>
<g>
<text x="705" y="572">
B1
</text>
</g>
<g>
<text x="705" y="812">
z
</text>
</g>
<g>
<text x="705" y="860">
A2
</text>
</g>
<g>
<text x="713" y="412">
y
</text>
</g>
<g>
<text x="761" y="76">
A3
</text>
</g>
<g>
<text x="761" y="188">
B3
</text>
</g>
<g>
<text x="761" y="284">
C3
</text>
</g>
<g>
<text x="769" y="28">
z
</text>
</g>
<g>
<text x="809" y="380">
RIGHT-HAND SIDE
</text>
</g>
<g>
<text x="809" y="396">
(from B1)
</text>
</g>
<g>
<text x="809" y="780">
RIGHT-HAND SIDE
</text>
</g>
<g>
<text x="809" y="796">
(from A2)
</text>
</g>
<g>
<text x="825" y="140">
SINK
</text>
</g>
<g>
<text x="857" y="460">
A2
</text>
</g>
<g>
<text x="857" y="812">
z
</text>
</g>
<g>
<text x="857" y="860">
A3
</text>
</g>
<g>
<text x="857" y="972">
B3
</text>
</g>
<g>
<text x="857" y="1068">
C3
</text>
</g>
<g>
<text x="865" y="412">
z
</text>
</g>
<g>
<text x="921" y="924">
SINK
</text>
</g>
<g>
<text x="1009" y="460">
A3
</text>
</g>
<g>
<text x="1009" y="572">
B3
</text>
</g>
<g>
<text x="1009" y="668">
C3
</text>
</g>
<g>
<text x="1017" y="412">
z
</text>
</g>
<g>
<text x="1073" y="524">
SINK
</text>
</g>
</svg>
