<svg class="bob" font-family="arial" font-size="14" height="160" width="488" xmlns="http://www.w3.org/2000/svg">
<defs>
<marker id="triangle" markerHeight="8" markerWidth="8" orient="auto" refX="4" refY="2" viewBox="0 0 8 4">
<polygon class="fg_fill" points="0,0 0,4 8,2 0,0"/>
</marker>
<marker id="clear_triangle" markerHeight="10" markerWidth="10" orient="auto" refX="1" refY="7" viewBox="0 0 20 14">
<polygon class="bg_fill" points="2,2 2,12 18,7 2,2"/>
</marker>
<marker id="circle" markerHeight="5" markerWidth="5" orient="auto" refX="10" refY="10" viewBox="0 0 20 20">
<circle class="fg_fill" cx="10" cy="10" r="8"/>
</marker>
<marker id="square" markerHeight="5" markerWidth="5" orient="auto" refX="10" refY="10" viewBox="0 0 20 20">
<rect class="fg_fill" height="20" width="20" x="0" y="0"/>
</marker>
<marker id="open_circle" markerHeight="10" markerWidth="10" orient="auto" refX="10" refY="10" viewBox="0 0 20 20">
<circle class="bg_fill" cx="10" cy="10" r="4"/>
</marker>
<marker id="big_open_circle" markerHeight="20" markerWidth="20" orient="auto" refX="20" refY="20" viewBox="0 0 40 40">
<circle class="bg_fill" cx="20" cy="20" r="6"/>
</marker>
</defs>
<style type="text/css">

rect.backdrop {
    fill: white;
}
text{
    fill: black;
}

circle {
    fill: none;
    stroke: black;
    stroke-width: 2;
}

line {
    stroke: black;
    stroke-width: 2;
    stroke-opacity: 1;
    fill-opacity: 1;
    stroke-linecap: round;
    stroke-linejoin: miter;
}

path {
    fill: none;
    stroke: black;
    stroke-width: 2;
    stroke-opacity: 1;
    fill-opacity: 1;
    stroke-linecap: round;
    stroke-linejoin: miter;
}

line.dashed {
    stroke-dasharray: 5;
}

.fg_fill {
    fill: black;
}


.bg_fill {
    fill: white;
    stroke: black;
    stroke-width: 2;
}

tspan.head{
    fill: none;
    stroke: none;
}
    
</style>
<rect class="backdrop" height="160" width="488" x="0" y="0"/>
<g>
<line x1="4" x2="4" y1="24" y2="152"/>
<line x1="4" x2="28" y1="24" y2="24"/>
<line x1="4" x2="28" y1="152" y2="152"/>
<line x1="28" x2="28" y1="24" y2="152"/>
<line x1="28" x2="52" y1="24" y2="24"/>
<line x1="28" x2="52" y1="152" y2="152"/>
<line x1="52" x2="52" y1="24" y2="152"/>
</g>
<g>
<line x1="52" x2="112" y1="56" y2="56"/>
<path d="M 116 60 A 4 4 0 0 0 112 56"/>
</g>
<g>
<line x1="116" x2="116" y1="60" y2="116"/>
<path d="M 116 116 A 4 4 0 0 0 120 120"/>
</g>
<g>
<line marker-end="url(#triangle)" x1="120" x2="132" y1="120" y2="120"/>
</g>
<g>
<line x1="148" x2="148" y1="24" y2="152"/>
<line x1="148" x2="172" y1="24" y2="24"/>
<line x1="148" x2="172" y1="152" y2="152"/>
<line x1="172" x2="172" y1="24" y2="152"/>
<line x1="172" x2="196" y1="24" y2="24"/>
<line x1="172" x2="196" y1="152" y2="152"/>
<line x1="196" x2="196" y1="24" y2="152"/>
</g>
<g>
<line x1="196" x2="256" y1="120" y2="120"/>
<path d="M 256 120 A 4 4 0 0 0 260 116"/>
</g>
<g>
<line x1="260" x2="260" y1="76" y2="116"/>
<path d="M 264 72 A 4 4 0 0 0 260 76"/>
</g>
<g>
<line marker-end="url(#triangle)" x1="264" x2="276" y1="72" y2="72"/>
</g>
<g>
<line x1="292" x2="292" y1="24" y2="152"/>
<line x1="292" x2="316" y1="24" y2="24"/>
<line x1="292" x2="316" y1="152" y2="152"/>
<line x1="316" x2="316" y1="24" y2="152"/>
<line x1="316" x2="340" y1="24" y2="24"/>
<line x1="316" x2="340" y1="152" y2="152"/>
<line x1="340" x2="340" y1="24" y2="152"/>
</g>
<g>
<line x1="340" x2="400" y1="72" y2="72"/>
<path d="M 404 76 A 4 4 0 0 0 400 72"/>
</g>
<g>
<line x1="404" x2="404" y1="76" y2="132"/>
<path d="M 404 132 A 4 4 0 0 0 408 136"/>
</g>
<g>
<line marker-end="url(#triangle)" x1="408" x2="420" y1="136" y2="136"/>
</g>
<g>
<line x1="436" x2="436" y1="24" y2="152"/>
<line x1="436" x2="460" y1="24" y2="24"/>
<line x1="436" x2="460" y1="152" y2="152"/>
<line x1="460" x2="460" y1="24" y2="152"/>
<line x1="460" x2="484" y1="24" y2="24"/>
<line x1="460" x2="484" y1="152" y2="152"/>
<line x1="484" x2="484" y1="24" y2="152"/>
</g>
<g>
<text x="9" y="44">
¶1
</text>
</g>
<g>
<text x="9" y="60">
a3
</text>
</g>
<g>
<text x="9" y="76">
a2
</text>
</g>
<g>
<text x="9" y="92">
a1
</text>
</g>
<g>
<text x="9" y="108">
b1
</text>
</g>
<g>
<text x="9" y="124">
n2
</text>
</g>
<g>
<text x="9" y="140">
n1
</text>
</g>
<g>
<text x="33" y="44">
a3
</text>
</g>
<g>
<text x="33" y="60">
n2
</text>
</g>
<g>
<text x="33" y="76">
n1
</text>
</g>
<g>
<text x="33" y="92">
b1
</text>
</g>
<g>
<text x="33" y="108">
¶1
</text>
</g>
<g>
<text x="33" y="124">
a2
</text>
</g>
<g>
<text x="33" y="140">
a1
</text>
</g>
<g>
<text x="73" y="12">
step1
</text>
</g>
<g>
<text x="97" y="44">
na
</text>
</g>
<g>
<text x="153" y="44">
¶1
</text>
</g>
<g>
<text x="153" y="60">
a3
</text>
</g>
<g>
<text x="153" y="76">
a2
</text>
</g>
<g>
<text x="153" y="92">
a1
</text>
</g>
<g>
<text x="153" y="108">
b1
</text>
</g>
<g>
<text x="153" y="124">
n2
</text>
</g>
<g>
<text x="153" y="140">
n1
</text>
</g>
<g>
<text x="177" y="44">
a3
</text>
</g>
<g>
<text x="177" y="60">
n2
</text>
</g>
<g>
<text x="177" y="76">
n1
</text>
</g>
<g>
<text x="177" y="92">
b1
</text>
</g>
<g>
<text x="177" y="108">
¶1
</text>
</g>
<g>
<text x="177" y="124">
a2
</text>
</g>
<g>
<text x="177" y="140">
a1
</text>
</g>
<g>
<text x="217" y="12">
step2
</text>
</g>
<g>
<text x="233" y="140">
ana
</text>
</g>
<g>
<text x="297" y="44">
¶1
</text>
</g>
<g>
<text x="297" y="60">
a3
</text>
</g>
<g>
<text x="297" y="76">
a2
</text>
</g>
<g>
<text x="297" y="92">
a1
</text>
</g>
<g>
<text x="297" y="108">
b1
</text>
</g>
<g>
<text x="297" y="124">
n2
</text>
</g>
<g>
<text x="297" y="140">
n1
</text>
</g>
<g>
<text x="321" y="44">
a3
</text>
</g>
<g>
<text x="321" y="60">
n2
</text>
</g>
<g>
<text x="321" y="76">
n1
</text>
</g>
<g>
<text x="321" y="92">
b1
</text>
</g>
<g>
<text x="321" y="108">
¶1
</text>
</g>
<g>
<text x="321" y="124">
a2
</text>
</g>
<g>
<text x="321" y="140">
a1
</text>
</g>
<g>
<text x="361" y="12">
step3
</text>
</g>
<g>
<text x="369" y="60">
nana
</text>
</g>
<g>
<text x="441" y="44">
¶1
</text>
</g>
<g>
<text x="441" y="60">
a3
</text>
</g>
<g>
<text x="441" y="76">
a2
</text>
</g>
<g>
<text x="441" y="92">
a1
</text>
</g>
<g>
<text x="441" y="108">
b1
</text>
</g>
<g>
<text x="441" y="124">
n2
</text>
</g>
<g>
<text x="441" y="140">
n1
</text>
</g>
<g>
<text x="465" y="44">
a3
</text>
</g>
<g>
<text x="465" y="60">
n2
</text>
</g>
<g>
<text x="465" y="76">
n1
</text>
</g>
<g>
<text x="465" y="92">
b1
</text>
</g>
<g>
<text x="465" y="108">
¶1
</text>
</g>
<g>
<text x="465" y="124">
a2
</text>
</g>
<g>
<text x="465" y="140">
a1
</text>
</g>
</svg>
