<svg class="bob" font-family="arial" font-size="14" height="192" width="400" xmlns="http://www.w3.org/2000/svg">
<defs>
<marker id="triangle" markerHeight="8" markerWidth="8" orient="auto" refX="4" refY="2" viewBox="0 0 8 4">
<polygon class="fg_fill" points="0,0 0,4 8,2 0,0"/>
</marker>
<marker id="clear_triangle" markerHeight="10" markerWidth="10" orient="auto" refX="1" refY="7" viewBox="0 0 20 14">
<polygon class="bg_fill" points="2,2 2,12 18,7 2,2"/>
</marker>
<marker id="circle" markerHeight="5" markerWidth="5" orient="auto" refX="10" refY="10" viewBox="0 0 20 20">
<circle class="fg_fill" cx="10" cy="10" r="8"/>
</marker>
<marker id="square" markerHeight="5" markerWidth="5" orient="auto" refX="10" refY="10" viewBox="0 0 20 20">
<rect class="fg_fill" height="20" width="20" x="0" y="0"/>
</marker>
<marker id="open_circle" markerHeight="10" markerWidth="10" orient="auto" refX="10" refY="10" viewBox="0 0 20 20">
<circle class="bg_fill" cx="10" cy="10" r="4"/>
</marker>
<marker id="big_open_circle" markerHeight="20" markerWidth="20" orient="auto" refX="20" refY="20" viewBox="0 0 40 40">
<circle class="bg_fill" cx="20" cy="20" r="6"/>
</marker>
</defs>
<style type="text/css">

rect.backdrop {
    fill: white;
}
text{
    fill: black;
}

circle {
    fill: none;
    stroke: black;
    stroke-width: 2;
}

line {
    stroke: black;
    stroke-width: 2;
    stroke-opacity: 1;
    fill-opacity: 1;
    stroke-linecap: round;
    stroke-linejoin: miter;
}

path {
    fill: none;
    stroke: black;
    stroke-width: 2;
    stroke-opacity: 1;
    fill-opacity: 1;
    stroke-linecap: round;
    stroke-linejoin: miter;
}

line.dashed {
    stroke-dasharray: 5;
}

.fg_fill {
    fill: black;
}


.bg_fill {
    fill: white;
    stroke: black;
    stroke-width: 2;
}

tspan.head{
    fill: none;
    stroke: none;
}
    
</style>
<rect class="backdrop" height="192" width="400" x="0" y="0"/>
<g>
<line x1="4" x2="396" y1="40" y2="40"/>
</g>
<g>
<line x1="4" x2="396" y1="168" y2="168"/>
</g>
<g>
<line marker-end="url(#triangle)" marker-start="url(#circle)" x1="20" x2="68" y1="152" y2="152"/>
</g>
<g>
<line marker-end="url(#triangle)" x1="24" x2="20" y1="24" y2="24"/>
<line marker-end="url(#circle)" x1="24" x2="68" y1="24" y2="24"/>
</g>
<g>
<line marker-end="url(#triangle)" marker-start="url(#circle)" x1="92" x2="140" y1="152" y2="152"/>
</g>
<g>
<line marker-end="url(#triangle)" x1="96" x2="92" y1="24" y2="24"/>
<line marker-end="url(#circle)" x1="96" x2="140" y1="24" y2="24"/>
</g>
<g>
<line marker-end="url(#triangle)" marker-start="url(#circle)" x1="188" x2="236" y1="24" y2="24"/>
</g>
<g>
<line marker-end="url(#triangle)" marker-start="url(#circle)" x1="188" x2="236" y1="152" y2="152"/>
</g>
<g>
<line marker-end="url(#triangle)" marker-start="url(#circle)" x1="260" x2="364" y1="24" y2="24"/>
</g>
<g>
<line marker-end="url(#triangle)" marker-start="url(#circle)" x1="260" x2="364" y1="152" y2="152"/>
</g>
<g>
<text x="9" y="60">
5&#39;
</text>
</g>
<g>
<text x="9" y="188">
5&#39;
</text>
</g>
<g>
<text x="41" y="12">
B
</text>
</g>
<g>
<text x="41" y="140">
A
</text>
</g>
<g>
<text x="113" y="12">
A
</text>
</g>
<g>
<text x="113" y="140">
B
</text>
</g>
<g>
<text x="129" y="108">
REVERSE [B, A] ...
</text>
</g>
<g>
<text x="137" y="60">
circular
</text>
</g>
<g>
<text x="137" y="188">
circular
</text>
</g>
<g>
<text x="209" y="12">
C
</text>
</g>
<g>
<text x="209" y="60">
chromosome
</text>
</g>
<g>
<text x="209" y="140">
C
</text>
</g>
<g>
<text x="209" y="188">
chromosome
</text>
</g>
<g>
<text x="305" y="12">
D
</text>
</g>
<g>
<text x="305" y="140">
D
</text>
</g>
<g>
<text x="377" y="60">
3&#39;
</text>
</g>
<g>
<text x="377" y="188">
3&#39;
</text>
</g>
</svg>
