<svg class="bob" font-family="arial" font-size="14" height="224" width="744" xmlns="http://www.w3.org/2000/svg">
<defs>
<marker id="triangle" markerHeight="8" markerWidth="8" orient="auto" refX="4" refY="2" viewBox="0 0 8 4">
<polygon class="fg_fill" points="0,0 0,4 8,2 0,0"/>
</marker>
<marker id="clear_triangle" markerHeight="10" markerWidth="10" orient="auto" refX="1" refY="7" viewBox="0 0 20 14">
<polygon class="bg_fill" points="2,2 2,12 18,7 2,2"/>
</marker>
<marker id="circle" markerHeight="5" markerWidth="5" orient="auto" refX="10" refY="10" viewBox="0 0 20 20">
<circle class="fg_fill" cx="10" cy="10" r="8"/>
</marker>
<marker id="square" markerHeight="5" markerWidth="5" orient="auto" refX="10" refY="10" viewBox="0 0 20 20">
<rect class="fg_fill" height="20" width="20" x="0" y="0"/>
</marker>
<marker id="open_circle" markerHeight="10" markerWidth="10" orient="auto" refX="10" refY="10" viewBox="0 0 20 20">
<circle class="bg_fill" cx="10" cy="10" r="4"/>
</marker>
<marker id="big_open_circle" markerHeight="20" markerWidth="20" orient="auto" refX="20" refY="20" viewBox="0 0 40 40">
<circle class="bg_fill" cx="20" cy="20" r="6"/>
</marker>
</defs>
<style type="text/css">

rect.backdrop {
    fill: white;
}
text{
    fill: black;
}

circle {
    fill: none;
    stroke: black;
    stroke-width: 2;
}

line {
    stroke: black;
    stroke-width: 2;
    stroke-opacity: 1;
    fill-opacity: 1;
    stroke-linecap: round;
    stroke-linejoin: miter;
}

path {
    fill: none;
    stroke: black;
    stroke-width: 2;
    stroke-opacity: 1;
    fill-opacity: 1;
    stroke-linecap: round;
    stroke-linejoin: miter;
}

line.dashed {
    stroke-dasharray: 5;
}

.fg_fill {
    fill: black;
}


.bg_fill {
    fill: white;
    stroke: black;
    stroke-width: 2;
}

tspan.head{
    fill: none;
    stroke: none;
}
    
</style>
<rect class="backdrop" height="224" width="744" x="0" y="0"/>
<g>
<line x1="4" x2="4" y1="156" y2="212"/>
<path d="M 4 212 A 4 4 0 0 0 8 216"/>
<path d="M 8 152 A 4 4 0 0 0 4 156"/>
</g>
<g>
<line x1="8" x2="124" y1="152" y2="152"/>
<line x1="124" x2="124" y1="124" y2="152"/>
<line x1="124" x2="224" y1="152" y2="152"/>
<path d="M 128 120 A 4 4 0 0 0 124 124"/>
<path d="M 228 156 A 4 4 0 0 0 224 152"/>
</g>
<g>
<line x1="8" x2="224" y1="216" y2="216"/>
<path d="M 224 216 A 4 4 0 0 0 228 212"/>
</g>
<g>
<line x1="128" x2="352" y1="120" y2="120"/>
<path d="M 352 120 A 8 8 0 0 0 358 116"/>
</g>
<g>
<line x1="228" x2="228" y1="156" y2="212"/>
</g>
<g>
<line x1="260" x2="260" y1="28" y2="84"/>
<path d="M 260 84 A 4 4 0 0 0 264 88"/>
<path d="M 264 24 A 4 4 0 0 0 260 28"/>
</g>
<g>
<line x1="260" x2="260" y1="156" y2="212"/>
<path d="M 260 212 A 4 4 0 0 0 264 216"/>
<path d="M 264 152 A 4 4 0 0 0 260 156"/>
</g>
<g>
<line x1="264" x2="372" y1="24" y2="24"/>
<line x1="372" x2="372" y1="0" y2="24"/>
<line x1="372" x2="480" y1="24" y2="24"/>
<path d="M 484 28 A 4 4 0 0 0 480 24"/>
</g>
<g>
<line x1="264" x2="372" y1="88" y2="88"/>
<line x1="372" x2="358" y1="88" y2="116"/>
<line x1="372" x2="372" y1="88" y2="152"/>
<line x1="372" x2="386" y1="88" y2="116"/>
<line x1="372" x2="480" y1="88" y2="88"/>
<line x1="372" x2="480" y1="152" y2="152"/>
<path d="M 386 116 A 8 8 0 0 0 392 120"/>
<path d="M 480 88 A 4 4 0 0 0 484 84"/>
<path d="M 484 156 A 4 4 0 0 0 480 152"/>
</g>
<g>
<line x1="264" x2="372" y1="152" y2="152"/>
</g>
<g>
<line x1="264" x2="480" y1="216" y2="216"/>
<path d="M 480 216 A 4 4 0 0 0 484 212"/>
</g>
<g>
<line x1="392" x2="616" y1="120" y2="120"/>
<path d="M 620 124 A 4 4 0 0 0 616 120"/>
</g>
<g>
<line x1="484" x2="484" y1="28" y2="84"/>
</g>
<g>
<line x1="484" x2="484" y1="156" y2="212"/>
</g>
<g>
<line x1="516" x2="516" y1="156" y2="212"/>
<path d="M 516 212 A 4 4 0 0 0 520 216"/>
<path d="M 520 152 A 4 4 0 0 0 516 156"/>
</g>
<g>
<line x1="520" x2="620" y1="152" y2="152"/>
<line x1="620" x2="620" y1="124" y2="152"/>
<line x1="620" x2="736" y1="152" y2="152"/>
<path d="M 740 156 A 4 4 0 0 0 736 152"/>
</g>
<g>
<line x1="520" x2="736" y1="216" y2="216"/>
<path d="M 736 216 A 4 4 0 0 0 740 212"/>
</g>
<g>
<line x1="740" x2="740" y1="156" y2="212"/>
</g>
<g>
<text x="17" y="204">
idx3: {A=2,C=4,T=1,G=4}
</text>
</g>
<g>
<text x="121" y="172">
N2
</text>
</g>
<g>
<text x="273" y="76">
idx3: {A=?            }
</text>
</g>
<g>
<text x="273" y="204">
idx3: {A=2,C=3,T=1,G=0}
</text>
</g>
<g>
<text x="369" y="44">
N1
</text>
</g>
<g>
<text x="369" y="172">
N3
</text>
</g>
<g>
<text x="529" y="204">
idx3: {A=1,C=3,T=1,G=0}
</text>
</g>
<g>
<text x="617" y="172">
N4
</text>
</g>
</svg>
