<svg class="bob" font-family="arial" font-size="14" height="144" width="320" xmlns="http://www.w3.org/2000/svg">
<defs>
<marker id="triangle" markerHeight="8" markerWidth="8" orient="auto" refX="4" refY="2" viewBox="0 0 8 4">
<polygon class="fg_fill" points="0,0 0,4 8,2 0,0"/>
</marker>
<marker id="clear_triangle" markerHeight="10" markerWidth="10" orient="auto" refX="1" refY="7" viewBox="0 0 20 14">
<polygon class="bg_fill" points="2,2 2,12 18,7 2,2"/>
</marker>
<marker id="circle" markerHeight="5" markerWidth="5" orient="auto" refX="10" refY="10" viewBox="0 0 20 20">
<circle class="fg_fill" cx="10" cy="10" r="8"/>
</marker>
<marker id="square" markerHeight="5" markerWidth="5" orient="auto" refX="10" refY="10" viewBox="0 0 20 20">
<rect class="fg_fill" height="20" width="20" x="0" y="0"/>
</marker>
<marker id="open_circle" markerHeight="10" markerWidth="10" orient="auto" refX="10" refY="10" viewBox="0 0 20 20">
<circle class="bg_fill" cx="10" cy="10" r="4"/>
</marker>
<marker id="big_open_circle" markerHeight="20" markerWidth="20" orient="auto" refX="20" refY="20" viewBox="0 0 40 40">
<circle class="bg_fill" cx="20" cy="20" r="6"/>
</marker>
</defs>
<style type="text/css">

rect.backdrop {
    fill: white;
}
text{
    fill: black;
}

circle {
    fill: none;
    stroke: black;
    stroke-width: 2;
}

line {
    stroke: black;
    stroke-width: 2;
    stroke-opacity: 1;
    fill-opacity: 1;
    stroke-linecap: round;
    stroke-linejoin: miter;
}

path {
    fill: none;
    stroke: black;
    stroke-width: 2;
    stroke-opacity: 1;
    fill-opacity: 1;
    stroke-linecap: round;
    stroke-linejoin: miter;
}

line.dashed {
    stroke-dasharray: 5;
}

.fg_fill {
    fill: black;
}


.bg_fill {
    fill: white;
    stroke: black;
    stroke-width: 2;
}

tspan.head{
    fill: none;
    stroke: none;
}
    
</style>
<rect class="backdrop" height="144" width="320" x="0" y="0"/>
<g>
<line x1="212" x2="212" y1="80" y2="96"/>
</g>
<g>
<line marker-end="url(#triangle)" x1="216" x2="212" y1="120" y2="120"/>
<line x1="216" x2="272" y1="120" y2="120"/>
</g>
<g>
<line x1="236" x2="236" y1="80" y2="96"/>
</g>
<g>
<line marker-end="url(#triangle)" x1="260" x2="260" y1="16" y2="60"/>
</g>
<g>
<line x1="260" x2="260" y1="80" y2="96"/>
</g>
<g>
<text x="1" y="60">
first_indexes:
</text>
</g>
<g>
<text x="1" y="76">
sequence:
</text>
</g>
<g>
<text x="137" y="60">
0
</text>
</g>
<g>
<text x="137" y="76">
b1
</text>
</g>
<g>
<text x="161" y="76">
a1
</text>
</g>
<g>
<text x="185" y="76">
n1
</text>
</g>
<g>
<text x="193" y="140">
walk direction
</text>
</g>
<g>
<text x="209" y="60">
3
</text>
</g>
<g>
<text x="209" y="76">
a2
</text>
</g>
<g>
<text x="209" y="108">
a2
</text>
</g>
<g>
<text x="225" y="12">
start here
</text>
</g>
<g>
<text x="233" y="76">
n2
</text>
</g>
<g>
<text x="233" y="108">
n2
</text>
</g>
<g>
<text x="257" y="76">
a3
</text>
</g>
<g>
<text x="257" y="108">
a3
</text>
</g>
<g>
<text x="281" y="60">
6
</text>
</g>
<g>
<text x="281" y="76">
¶1
</text>
</g>
</svg>
