<svg class="bob" font-family="arial" font-size="14" height="400" width="1344" xmlns="http://www.w3.org/2000/svg">
<defs>
<marker id="triangle" markerHeight="8" markerWidth="8" orient="auto" refX="4" refY="2" viewBox="0 0 8 4">
<polygon class="fg_fill" points="0,0 0,4 8,2 0,0"/>
</marker>
<marker id="clear_triangle" markerHeight="10" markerWidth="10" orient="auto" refX="1" refY="7" viewBox="0 0 20 14">
<polygon class="bg_fill" points="2,2 2,12 18,7 2,2"/>
</marker>
<marker id="circle" markerHeight="5" markerWidth="5" orient="auto" refX="10" refY="10" viewBox="0 0 20 20">
<circle class="fg_fill" cx="10" cy="10" r="8"/>
</marker>
<marker id="square" markerHeight="5" markerWidth="5" orient="auto" refX="10" refY="10" viewBox="0 0 20 20">
<rect class="fg_fill" height="20" width="20" x="0" y="0"/>
</marker>
<marker id="open_circle" markerHeight="10" markerWidth="10" orient="auto" refX="10" refY="10" viewBox="0 0 20 20">
<circle class="bg_fill" cx="10" cy="10" r="4"/>
</marker>
<marker id="big_open_circle" markerHeight="20" markerWidth="20" orient="auto" refX="20" refY="20" viewBox="0 0 40 40">
<circle class="bg_fill" cx="20" cy="20" r="6"/>
</marker>
</defs>
<style type="text/css">

rect.backdrop {
    fill: white;
}
text{
    fill: black;
}

circle {
    fill: none;
    stroke: black;
    stroke-width: 2;
}

line {
    stroke: black;
    stroke-width: 2;
    stroke-opacity: 1;
    fill-opacity: 1;
    stroke-linecap: round;
    stroke-linejoin: miter;
}

path {
    fill: none;
    stroke: black;
    stroke-width: 2;
    stroke-opacity: 1;
    fill-opacity: 1;
    stroke-linecap: round;
    stroke-linejoin: miter;
}

line.dashed {
    stroke-dasharray: 5;
}

.fg_fill {
    fill: black;
}


.bg_fill {
    fill: white;
    stroke: black;
    stroke-width: 2;
}

tspan.head{
    fill: none;
    stroke: none;
}
    
</style>
<rect class="backdrop" height="400" width="1344" x="0" y="0"/>
<g>
<line x1="4" x2="4" y1="168" y2="200"/>
<line x1="4" x2="60" y1="168" y2="168"/>
<line x1="4" x2="60" y1="200" y2="200"/>
<line x1="60" x2="60" y1="140" y2="168"/>
<line x1="60" x2="76" y1="168" y2="168"/>
<line x1="60" x2="60" y1="200" y2="228"/>
<line x1="60" x2="76" y1="200" y2="200"/>
<line x1="76" x2="76" y1="168" y2="200"/>
<path d="M 60 228 A 4 4 0 0 0 64 232"/>
<path d="M 64 136 A 4 4 0 0 0 60 140"/>
</g>
<g>
<line marker-end="url(#triangle)" x1="64" x2="84" y1="136" y2="136"/>
</g>
<g>
<line marker-end="url(#triangle)" x1="64" x2="84" y1="232" y2="232"/>
</g>
<g>
<line x1="92" x2="92" y1="88" y2="152"/>
<line x1="92" x2="132" y1="88" y2="88"/>
<line x1="92" x2="132" y1="152" y2="152"/>
<line x1="132" x2="132" y1="88" y2="104"/>
<line x1="132" x2="132" y1="104" y2="136"/>
<line marker-end="url(#triangle)" x1="132" x2="204" y1="104" y2="104"/>
<line x1="132" x2="132" y1="136" y2="152"/>
<line x1="132" x2="136" y1="136" y2="136"/>
<path d="M 142 140 A 8 8 0 0 0 136 136"/>
</g>
<g>
<line x1="92" x2="92" y1="216" y2="280"/>
<line x1="92" x2="132" y1="216" y2="216"/>
<line x1="92" x2="108" y1="280" y2="280"/>
<line marker-end="url(#triangle)" x1="108" x2="108" y1="280" y2="316"/>
<line x1="108" x2="132" y1="280" y2="280"/>
<line x1="132" x2="132" y1="216" y2="232"/>
<line x1="132" x2="132" y1="232" y2="280"/>
<line x1="132" x2="136" y1="232" y2="232"/>
<path d="M 136 232 A 8 8 0 0 0 142 228"/>
</g>
<g>
<line x1="92" x2="92" y1="328" y2="392"/>
<line x1="92" x2="132" y1="328" y2="328"/>
<line x1="92" x2="132" y1="392" y2="392"/>
<line x1="132" x2="132" y1="328" y2="344"/>
<line x1="132" x2="132" y1="344" y2="392"/>
<line x1="132" x2="136" y1="344" y2="344"/>
<path d="M 136 344 A 8 8 0 0 0 142 340"/>
</g>
<g>
<line x1="142" x2="164" y1="140" y2="184"/>
<line x1="164" x2="142" y1="184" y2="228"/>
<line x1="164" x2="186" y1="184" y2="228"/>
<line x1="186" x2="164" y1="140" y2="184"/>
<path d="M 186 228 A 8 8 0 0 0 192 232"/>
<path d="M 192 136 A 8 8 0 0 0 186 140"/>
</g>
<g>
<line x1="186" x2="142" y1="252" y2="340"/>
<path d="M 192 248 A 8 8 0 0 0 186 252"/>
</g>
<g>
<line marker-end="url(#triangle)" x1="192" x2="204" y1="136" y2="136"/>
</g>
<g>
<line marker-end="url(#triangle)" x1="192" x2="204" y1="232" y2="232"/>
</g>
<g>
<line marker-end="url(#triangle)" x1="192" x2="204" y1="248" y2="248"/>
</g>
<g>
<line x1="212" x2="212" y1="88" y2="152"/>
<line x1="212" x2="252" y1="88" y2="88"/>
<line x1="212" x2="252" y1="152" y2="152"/>
<line x1="252" x2="252" y1="88" y2="104"/>
<line x1="252" x2="252" y1="104" y2="136"/>
<line marker-end="url(#triangle)" x1="252" x2="324" y1="104" y2="104"/>
<line x1="252" x2="252" y1="136" y2="152"/>
<line x1="252" x2="256" y1="136" y2="136"/>
<path d="M 262 140 A 8 8 0 0 0 256 136"/>
</g>
<g>
<line x1="212" x2="212" y1="216" y2="280"/>
<line x1="212" x2="252" y1="216" y2="216"/>
<line x1="212" x2="228" y1="280" y2="280"/>
<line marker-end="url(#triangle)" x1="228" x2="228" y1="280" y2="316"/>
<line x1="228" x2="252" y1="280" y2="280"/>
<line x1="252" x2="252" y1="216" y2="232"/>
<line x1="252" x2="252" y1="232" y2="280"/>
<line x1="252" x2="256" y1="232" y2="232"/>
<path d="M 256 232 A 8 8 0 0 0 262 228"/>
</g>
<g>
<line x1="212" x2="212" y1="328" y2="392"/>
<line x1="212" x2="252" y1="328" y2="328"/>
<line x1="212" x2="252" y1="392" y2="392"/>
<line x1="252" x2="252" y1="328" y2="344"/>
<line x1="252" x2="252" y1="344" y2="392"/>
<line x1="252" x2="256" y1="344" y2="344"/>
<path d="M 256 344 A 8 8 0 0 0 262 340"/>
</g>
<g>
<line x1="224" x2="256" y1="24" y2="24"/>
</g>
<g>
<line x1="262" x2="284" y1="140" y2="184"/>
<line x1="284" x2="262" y1="184" y2="228"/>
<line x1="284" x2="306" y1="184" y2="228"/>
<line x1="306" x2="284" y1="140" y2="184"/>
<path d="M 306 228 A 8 8 0 0 0 312 232"/>
<path d="M 312 136 A 8 8 0 0 0 306 140"/>
</g>
<g>
<line x1="306" x2="262" y1="252" y2="340"/>
<path d="M 312 248 A 8 8 0 0 0 306 252"/>
</g>
<g>
<line marker-end="url(#triangle)" x1="312" x2="324" y1="136" y2="136"/>
</g>
<g>
<line marker-end="url(#triangle)" x1="312" x2="324" y1="232" y2="232"/>
</g>
<g>
<line marker-end="url(#triangle)" x1="312" x2="324" y1="248" y2="248"/>
</g>
<g>
<line marker-end="url(#triangle)" x1="328" x2="348" y1="24" y2="24"/>
</g>
<g>
<line x1="332" x2="332" y1="88" y2="152"/>
<line x1="332" x2="372" y1="88" y2="88"/>
<line x1="332" x2="372" y1="152" y2="152"/>
<line x1="372" x2="372" y1="88" y2="104"/>
<line x1="372" x2="372" y1="104" y2="136"/>
<line marker-end="url(#triangle)" x1="372" x2="444" y1="104" y2="104"/>
<line x1="372" x2="372" y1="136" y2="152"/>
<line x1="372" x2="376" y1="136" y2="136"/>
<path d="M 382 140 A 8 8 0 0 0 376 136"/>
</g>
<g>
<line x1="332" x2="332" y1="216" y2="280"/>
<line x1="332" x2="372" y1="216" y2="216"/>
<line x1="332" x2="348" y1="280" y2="280"/>
<line marker-end="url(#triangle)" x1="348" x2="348" y1="280" y2="316"/>
<line x1="348" x2="372" y1="280" y2="280"/>
<line x1="372" x2="372" y1="216" y2="232"/>
<line x1="372" x2="372" y1="232" y2="248"/>
<line x1="372" x2="376" y1="232" y2="232"/>
<line x1="372" x2="372" y1="248" y2="280"/>
<path d="M 376 232 A 8 8 0 0 0 382 228"/>
</g>
<g>
<line x1="332" x2="332" y1="328" y2="392"/>
<line x1="332" x2="372" y1="328" y2="328"/>
<line x1="332" x2="372" y1="392" y2="392"/>
<line x1="372" x2="372" y1="328" y2="344"/>
<line x1="372" x2="372" y1="344" y2="392"/>
<line x1="372" x2="376" y1="344" y2="344"/>
<path d="M 376 344 A 8 8 0 0 0 382 340"/>
</g>
<g>
<line x1="382" x2="404" y1="140" y2="184"/>
<line x1="404" x2="382" y1="184" y2="228"/>
<line x1="404" x2="426" y1="184" y2="228"/>
<line x1="426" x2="404" y1="140" y2="184"/>
<path d="M 426 228 A 8 8 0 0 0 432 232"/>
<path d="M 432 136 A 8 8 0 0 0 426 140"/>
</g>
<g>
<line x1="426" x2="382" y1="252" y2="340"/>
<path d="M 432 248 A 8 8 0 0 0 426 252"/>
</g>
<g>
<line marker-end="url(#triangle)" x1="432" x2="444" y1="136" y2="136"/>
</g>
<g>
<line marker-end="url(#triangle)" x1="432" x2="444" y1="232" y2="232"/>
</g>
<g>
<line marker-end="url(#triangle)" x1="432" x2="444" y1="248" y2="248"/>
</g>
<g>
<line x1="452" x2="452" y1="88" y2="152"/>
<line x1="452" x2="492" y1="88" y2="88"/>
<line x1="452" x2="492" y1="152" y2="152"/>
<line x1="492" x2="492" y1="88" y2="104"/>
<line x1="492" x2="492" y1="104" y2="152"/>
<line x1="492" x2="512" y1="104" y2="104"/>
<path d="M 516 108 A 4 4 0 0 0 512 104"/>
</g>
<g>
<line x1="452" x2="452" y1="216" y2="280"/>
<line x1="452" x2="492" y1="216" y2="216"/>
<line x1="452" x2="468" y1="280" y2="280"/>
<line marker-end="url(#triangle)" x1="468" x2="468" y1="280" y2="316"/>
<line x1="468" x2="492" y1="280" y2="280"/>
<line x1="492" x2="492" y1="216" y2="248"/>
<line x1="492" x2="492" y1="248" y2="280"/>
<line x1="492" x2="512" y1="248" y2="248"/>
<path d="M 512 248 A 4 4 0 0 0 516 244"/>
</g>
<g>
<line x1="452" x2="452" y1="328" y2="392"/>
<line x1="452" x2="492" y1="328" y2="328"/>
<line x1="452" x2="492" y1="392" y2="392"/>
<line x1="492" x2="492" y1="328" y2="344"/>
<line x1="492" x2="492" y1="344" y2="392"/>
<line x1="492" x2="528" y1="344" y2="344"/>
<path d="M 528 344 A 4 4 0 0 0 532 340"/>
</g>
<g>
<line x1="508" x2="508" y1="168" y2="200"/>
<line x1="508" x2="564" y1="168" y2="168"/>
<line x1="508" x2="564" y1="200" y2="200"/>
<line x1="564" x2="564" y1="168" y2="200"/>
</g>
<g>
<line marker-end="url(#triangle)" x1="516" x2="516" y1="108" y2="156"/>
</g>
<g>
<line marker-end="url(#triangle)" x1="516" x2="516" y1="224" y2="212"/>
<line x1="516" x2="516" y1="224" y2="244"/>
</g>
<g>
<line marker-end="url(#triangle)" x1="532" x2="532" y1="224" y2="212"/>
<line x1="532" x2="532" y1="224" y2="340"/>
</g>
<g>
<line x1="628" x2="628" y1="152" y2="184"/>
<line x1="628" x2="684" y1="152" y2="152"/>
<line x1="628" x2="668" y1="184" y2="184"/>
<line x1="668" x2="668" y1="184" y2="244"/>
<line x1="668" x2="684" y1="184" y2="184"/>
<line x1="684" x2="684" y1="124" y2="152"/>
<line x1="684" x2="700" y1="152" y2="152"/>
<line x1="684" x2="684" y1="184" y2="212"/>
<line x1="684" x2="700" y1="184" y2="184"/>
<line x1="700" x2="700" y1="152" y2="184"/>
<path d="M 668 244 A 4 4 0 0 0 672 248"/>
<path d="M 684 212 A 4 4 0 0 0 688 216"/>
<path d="M 688 120 A 4 4 0 0 0 684 124"/>
</g>
<g>
<line marker-end="url(#triangle)" x1="672" x2="724" y1="248" y2="248"/>
</g>
<g>
<line marker-end="url(#triangle)" x1="688" x2="724" y1="120" y2="120"/>
</g>
<g>
<line marker-end="url(#triangle)" x1="688" x2="708" y1="216" y2="216"/>
</g>
<g>
<line x1="716" x2="716" y1="168" y2="232"/>
<line x1="716" x2="756" y1="168" y2="168"/>
<line x1="716" x2="732" y1="232" y2="232"/>
<line x1="756" x2="756" y1="168" y2="200"/>
<line x1="756" x2="756" y1="200" y2="216"/>
<line x1="756" x2="784" y1="200" y2="200"/>
<line x1="756" x2="772" y1="216" y2="216"/>
<line x1="772" x2="772" y1="216" y2="280"/>
<path d="M 784 200 A 8 8 0 0 0 790 196"/>
</g>
<g>
<line x1="732" x2="732" y1="88" y2="152"/>
<line x1="732" x2="772" y1="88" y2="88"/>
<line x1="732" x2="772" y1="152" y2="152"/>
<line x1="772" x2="772" y1="88" y2="104"/>
<line x1="772" x2="772" y1="104" y2="120"/>
<line marker-end="url(#triangle)" x1="772" x2="884" y1="104" y2="104"/>
<line x1="772" x2="772" y1="120" y2="136"/>
<line x1="772" x2="792" y1="120" y2="120"/>
<line x1="772" x2="772" y1="136" y2="152"/>
<line x1="772" x2="784" y1="136" y2="136"/>
<path d="M 790 140 A 8 8 0 0 0 784 136"/>
<path d="M 798 124 A 8 8 0 0 0 792 120"/>
</g>
<g>
<line x1="732" x2="732" y1="216" y2="280"/>
<line x1="732" x2="756" y1="216" y2="216"/>
<line x1="732" x2="748" y1="280" y2="280"/>
<line marker-end="url(#triangle)" x1="748" x2="748" y1="280" y2="316"/>
<line x1="748" x2="772" y1="280" y2="280"/>
</g>
<g>
<line x1="732" x2="732" y1="328" y2="392"/>
<line x1="732" x2="772" y1="328" y2="328"/>
<line x1="732" x2="772" y1="392" y2="392"/>
<line x1="772" x2="772" y1="328" y2="344"/>
<line x1="772" x2="772" y1="344" y2="376"/>
<line x1="772" x2="776" y1="344" y2="344"/>
<line x1="772" x2="772" y1="376" y2="392"/>
<line x1="772" x2="776" y1="376" y2="376"/>
<path d="M 776 344 A 8 8 0 0 0 782 340"/>
<path d="M 776 376 A 8 8 0 0 0 782 372"/>
</g>
<g>
<line x1="790" x2="804" y1="140" y2="168"/>
<line x1="804" x2="790" y1="168" y2="196"/>
<line x1="804" x2="836" y1="168" y2="232"/>
<line x1="812" x2="804" y1="152" y2="168"/>
<line x1="812" x2="826" y1="152" y2="180"/>
<line x1="826" x2="812" y1="124" y2="152"/>
<line x1="836" x2="782" y1="232" y2="340"/>
<line x1="836" x2="842" y1="232" y2="244"/>
<line x1="850" x2="836" y1="204" y2="232"/>
<path d="M 826 180 A 8 8 0 0 0 832 184"/>
<path d="M 832 120 A 8 8 0 0 0 826 124"/>
<path d="M 842 244 A 8 8 0 0 0 848 248"/>
<path d="M 856 200 A 8 8 0 0 0 850 204"/>
</g>
<g>
<line x1="798" x2="812" y1="124" y2="152"/>
</g>
<g>
<line marker-end="url(#triangle)" x1="832" x2="884" y1="120" y2="120"/>
</g>
<g>
<line marker-end="url(#triangle)" x1="832" x2="868" y1="184" y2="184"/>
</g>
<g>
<line x1="834" x2="782" y1="268" y2="372"/>
<path d="M 840 264 A 8 8 0 0 0 834 268"/>
</g>
<g>
<line marker-end="url(#triangle)" x1="840" x2="884" y1="264" y2="264"/>
</g>
<g>
<line marker-end="url(#triangle)" x1="848" x2="884" y1="248" y2="248"/>
</g>
<g>
<line marker-end="url(#triangle)" x1="856" x2="868" y1="200" y2="200"/>
</g>
<g>
<line x1="876" x2="876" y1="168" y2="232"/>
<line x1="876" x2="916" y1="168" y2="168"/>
<line x1="876" x2="892" y1="232" y2="232"/>
<line x1="916" x2="916" y1="168" y2="200"/>
<line x1="916" x2="916" y1="200" y2="216"/>
<line x1="916" x2="944" y1="200" y2="200"/>
<line x1="916" x2="932" y1="216" y2="216"/>
<line x1="932" x2="932" y1="216" y2="280"/>
<path d="M 944 200 A 8 8 0 0 0 950 196"/>
</g>
<g>
<line x1="892" x2="892" y1="88" y2="152"/>
<line x1="892" x2="932" y1="88" y2="88"/>
<line x1="892" x2="932" y1="152" y2="152"/>
<line x1="932" x2="932" y1="88" y2="104"/>
<line x1="932" x2="932" y1="104" y2="120"/>
<line marker-end="url(#triangle)" x1="932" x2="1044" y1="104" y2="104"/>
<line x1="932" x2="932" y1="120" y2="136"/>
<line x1="932" x2="952" y1="120" y2="120"/>
<line x1="932" x2="932" y1="136" y2="152"/>
<line x1="932" x2="944" y1="136" y2="136"/>
<path d="M 950 140 A 8 8 0 0 0 944 136"/>
<path d="M 958 124 A 8 8 0 0 0 952 120"/>
</g>
<g>
<line x1="892" x2="892" y1="216" y2="280"/>
<line x1="892" x2="916" y1="216" y2="216"/>
<line x1="892" x2="908" y1="280" y2="280"/>
<line marker-end="url(#triangle)" x1="908" x2="908" y1="280" y2="316"/>
<line x1="908" x2="932" y1="280" y2="280"/>
</g>
<g>
<line x1="892" x2="892" y1="328" y2="392"/>
<line x1="892" x2="932" y1="328" y2="328"/>
<line x1="892" x2="932" y1="392" y2="392"/>
<line x1="932" x2="932" y1="328" y2="344"/>
<line x1="932" x2="932" y1="344" y2="376"/>
<line x1="932" x2="936" y1="344" y2="344"/>
<line x1="932" x2="932" y1="376" y2="392"/>
<line x1="932" x2="936" y1="376" y2="376"/>
<path d="M 936 344 A 8 8 0 0 0 942 340"/>
<path d="M 936 376 A 8 8 0 0 0 942 372"/>
</g>
<g>
<line marker-end="url(#triangle)" x1="920" x2="916" y1="24" y2="24"/>
<line x1="920" x2="944" y1="24" y2="24"/>
</g>
<g>
<line x1="950" x2="964" y1="140" y2="168"/>
<line x1="964" x2="950" y1="168" y2="196"/>
<line x1="964" x2="996" y1="168" y2="232"/>
<line x1="972" x2="964" y1="152" y2="168"/>
<line x1="972" x2="986" y1="152" y2="180"/>
<line x1="986" x2="972" y1="124" y2="152"/>
<line x1="996" x2="942" y1="232" y2="340"/>
<line x1="996" x2="1002" y1="232" y2="244"/>
<line x1="1010" x2="996" y1="204" y2="232"/>
<path d="M 986 180 A 8 8 0 0 0 992 184"/>
<path d="M 992 120 A 8 8 0 0 0 986 124"/>
<path d="M 1002 244 A 8 8 0 0 0 1008 248"/>
<path d="M 1016 200 A 8 8 0 0 0 1010 204"/>
</g>
<g>
<line x1="958" x2="972" y1="124" y2="152"/>
</g>
<g>
<line marker-end="url(#triangle)" x1="992" x2="1044" y1="120" y2="120"/>
</g>
<g>
<line marker-end="url(#triangle)" x1="992" x2="1028" y1="184" y2="184"/>
</g>
<g>
<line x1="994" x2="942" y1="268" y2="372"/>
<path d="M 1000 264 A 8 8 0 0 0 994 268"/>
</g>
<g>
<line marker-end="url(#triangle)" x1="1000" x2="1044" y1="264" y2="264"/>
</g>
<g>
<line marker-end="url(#triangle)" x1="1008" x2="1044" y1="248" y2="248"/>
</g>
<g>
<line marker-end="url(#triangle)" x1="1016" x2="1028" y1="200" y2="200"/>
</g>
<g>
<line x1="1024" x2="1048" y1="24" y2="24"/>
</g>
<g>
<line x1="1036" x2="1036" y1="168" y2="232"/>
<line x1="1036" x2="1076" y1="168" y2="168"/>
<line x1="1036" x2="1052" y1="232" y2="232"/>
<line x1="1076" x2="1076" y1="168" y2="200"/>
<line x1="1076" x2="1076" y1="200" y2="216"/>
<line x1="1076" x2="1104" y1="200" y2="200"/>
<line x1="1076" x2="1092" y1="216" y2="216"/>
<line x1="1092" x2="1092" y1="216" y2="280"/>
<path d="M 1104 200 A 8 8 0 0 0 1110 196"/>
</g>
<g>
<line x1="1052" x2="1052" y1="88" y2="152"/>
<line x1="1052" x2="1092" y1="88" y2="88"/>
<line x1="1052" x2="1092" y1="152" y2="152"/>
<line x1="1092" x2="1092" y1="88" y2="104"/>
<line x1="1092" x2="1092" y1="104" y2="120"/>
<line marker-end="url(#triangle)" x1="1092" x2="1204" y1="104" y2="104"/>
<line x1="1092" x2="1092" y1="120" y2="136"/>
<line x1="1092" x2="1112" y1="120" y2="120"/>
<line x1="1092" x2="1092" y1="136" y2="152"/>
<line x1="1092" x2="1104" y1="136" y2="136"/>
<path d="M 1110 140 A 8 8 0 0 0 1104 136"/>
<path d="M 1118 124 A 8 8 0 0 0 1112 120"/>
</g>
<g>
<line x1="1052" x2="1052" y1="216" y2="280"/>
<line x1="1052" x2="1076" y1="216" y2="216"/>
<line x1="1052" x2="1068" y1="280" y2="280"/>
<line marker-end="url(#triangle)" x1="1068" x2="1068" y1="280" y2="316"/>
<line x1="1068" x2="1092" y1="280" y2="280"/>
</g>
<g>
<line x1="1052" x2="1052" y1="328" y2="392"/>
<line x1="1052" x2="1092" y1="328" y2="328"/>
<line x1="1052" x2="1092" y1="392" y2="392"/>
<line x1="1092" x2="1092" y1="328" y2="344"/>
<line x1="1092" x2="1092" y1="344" y2="376"/>
<line x1="1092" x2="1096" y1="344" y2="344"/>
<line x1="1092" x2="1092" y1="376" y2="392"/>
<line x1="1092" x2="1096" y1="376" y2="376"/>
<path d="M 1096 344 A 8 8 0 0 0 1102 340"/>
<path d="M 1096 376 A 8 8 0 0 0 1102 372"/>
</g>
<g>
<line x1="1110" x2="1124" y1="140" y2="168"/>
<line x1="1124" x2="1110" y1="168" y2="196"/>
<line x1="1124" x2="1156" y1="168" y2="232"/>
<line x1="1132" x2="1124" y1="152" y2="168"/>
<line x1="1132" x2="1146" y1="152" y2="180"/>
<line x1="1146" x2="1132" y1="124" y2="152"/>
<line x1="1156" x2="1102" y1="232" y2="340"/>
<line x1="1156" x2="1162" y1="232" y2="244"/>
<line x1="1170" x2="1156" y1="204" y2="232"/>
<path d="M 1146 180 A 8 8 0 0 0 1152 184"/>
<path d="M 1152 120 A 8 8 0 0 0 1146 124"/>
<path d="M 1162 244 A 8 8 0 0 0 1168 248"/>
<path d="M 1176 200 A 8 8 0 0 0 1170 204"/>
</g>
<g>
<line x1="1118" x2="1132" y1="124" y2="152"/>
</g>
<g>
<line marker-end="url(#triangle)" x1="1152" x2="1204" y1="120" y2="120"/>
</g>
<g>
<line marker-end="url(#triangle)" x1="1152" x2="1188" y1="184" y2="184"/>
</g>
<g>
<line x1="1154" x2="1102" y1="268" y2="372"/>
<path d="M 1160 264 A 8 8 0 0 0 1154 268"/>
</g>
<g>
<line marker-end="url(#triangle)" x1="1160" x2="1204" y1="264" y2="264"/>
</g>
<g>
<line marker-end="url(#triangle)" x1="1168" x2="1204" y1="248" y2="248"/>
</g>
<g>
<line marker-end="url(#triangle)" x1="1176" x2="1188" y1="200" y2="200"/>
</g>
<g>
<line x1="1196" x2="1196" y1="168" y2="232"/>
<line x1="1196" x2="1236" y1="168" y2="168"/>
<line x1="1196" x2="1212" y1="232" y2="232"/>
<line x1="1236" x2="1236" y1="168" y2="200"/>
<line x1="1236" x2="1236" y1="200" y2="216"/>
<line x1="1236" x2="1264" y1="200" y2="200"/>
<line x1="1236" x2="1252" y1="216" y2="216"/>
<line x1="1252" x2="1252" y1="216" y2="280"/>
<path d="M 1268 204 A 4 4 0 0 0 1264 200"/>
</g>
<g>
<line x1="1212" x2="1212" y1="88" y2="152"/>
<line x1="1212" x2="1252" y1="88" y2="88"/>
<line x1="1212" x2="1252" y1="152" y2="152"/>
<line x1="1252" x2="1252" y1="88" y2="104"/>
<line x1="1252" x2="1252" y1="104" y2="152"/>
<line x1="1252" x2="1288" y1="104" y2="104"/>
<path d="M 1292 108 A 4 4 0 0 0 1288 104"/>
</g>
<g>
<line x1="1212" x2="1212" y1="216" y2="280"/>
<line x1="1212" x2="1236" y1="216" y2="216"/>
<line x1="1212" x2="1228" y1="280" y2="280"/>
<line marker-end="url(#triangle)" x1="1228" x2="1228" y1="280" y2="316"/>
<line x1="1228" x2="1252" y1="280" y2="280"/>
</g>
<g>
<line x1="1212" x2="1212" y1="328" y2="392"/>
<line x1="1212" x2="1252" y1="328" y2="328"/>
<line x1="1212" x2="1252" y1="392" y2="392"/>
<line x1="1252" x2="1252" y1="328" y2="344"/>
<line x1="1252" x2="1252" y1="344" y2="392"/>
<line x1="1252" x2="1304" y1="344" y2="344"/>
<path d="M 1304 344 A 4 4 0 0 0 1308 340"/>
</g>
<g>
<line x1="1268" x2="1268" y1="204" y2="244"/>
<path d="M 1268 244 A 4 4 0 0 0 1272 248"/>
</g>
<g>
<line x1="1272" x2="1288" y1="248" y2="248"/>
<path d="M 1288 248 A 4 4 0 0 0 1292 244"/>
</g>
<g>
<line x1="1284" x2="1284" y1="168" y2="200"/>
<line x1="1284" x2="1340" y1="168" y2="168"/>
<line x1="1284" x2="1340" y1="200" y2="200"/>
<line x1="1340" x2="1340" y1="168" y2="200"/>
</g>
<g>
<line marker-end="url(#triangle)" x1="1292" x2="1292" y1="108" y2="156"/>
</g>
<g>
<line marker-end="url(#triangle)" x1="1292" x2="1292" y1="224" y2="212"/>
<line x1="1292" x2="1292" y1="224" y2="244"/>
</g>
<g>
<line marker-end="url(#triangle)" x1="1308" x2="1308" y1="224" y2="212"/>
<line x1="1308" x2="1308" y1="224" y2="340"/>
</g>
<g>
<text x="17" y="188">
SOURCE
</text>
</g>
<g>
<text x="105" y="108">
A0
</text>
</g>
<g>
<text x="105" y="236">
B0
</text>
</g>
<g>
<text x="105" y="348">
C0
</text>
</g>
<g>
<text x="113" y="60">
y
</text>
</g>
<g>
<text x="145" y="12">
ALL POSSIBLE LEFT-HAND AND MIDDLE SIDES
</text>
</g>
<g>
<text x="225" y="108">
A1
</text>
</g>
<g>
<text x="225" y="236">
B1
</text>
</g>
<g>
<text x="225" y="348">
C1
</text>
</g>
<g>
<text x="233" y="60">
y
</text>
</g>
<g>
<text x="265" y="28">
forward
</text>
</g>
<g>
<text x="345" y="108">
A2
</text>
</g>
<g>
<text x="345" y="236">
B2
</text>
</g>
<g>
<text x="345" y="348">
C2
</text>
</g>
<g>
<text x="353" y="60">
z
</text>
</g>
<g>
<text x="465" y="108">
A3
</text>
</g>
<g>
<text x="465" y="236">
B3
</text>
</g>
<g>
<text x="465" y="348">
C3
</text>
</g>
<g>
<text x="473" y="60">
z
</text>
</g>
<g>
<text x="521" y="188">
SINK
</text>
</g>
<g>
<text x="641" y="172">
SOURCE
</text>
</g>
<g>
<text x="729" y="188">
B0
</text>
</g>
<g>
<text x="745" y="108">
A0
</text>
</g>
<g>
<text x="745" y="236">
B0
</text>
</g>
<g>
<text x="745" y="348">
C0
</text>
</g>
<g>
<text x="753" y="60">
y
</text>
</g>
<g>
<text x="873" y="12">
ALL POSSIBLE RIGHT-HAND SIDES
</text>
</g>
<g>
<text x="889" y="188">
B1
</text>
</g>
<g>
<text x="905" y="108">
A1
</text>
</g>
<g>
<text x="905" y="236">
B1
</text>
</g>
<g>
<text x="905" y="348">
C1
</text>
</g>
<g>
<text x="913" y="60">
y
</text>
</g>
<g>
<text x="953" y="28">
backward
</text>
</g>
<g>
<text x="1049" y="188">
B2
</text>
</g>
<g>
<text x="1065" y="60">
z
</text>
</g>
<g>
<text x="1065" y="108">
A2
</text>
</g>
<g>
<text x="1065" y="236">
B2
</text>
</g>
<g>
<text x="1065" y="348">
C2
</text>
</g>
<g>
<text x="1209" y="188">
B3
</text>
</g>
<g>
<text x="1225" y="60">
z
</text>
</g>
<g>
<text x="1225" y="108">
A3
</text>
</g>
<g>
<text x="1225" y="236">
B3
</text>
</g>
<g>
<text x="1225" y="348">
C3
</text>
</g>
<g>
<text x="1297" y="188">
SINK
</text>
</g>
</svg>
