<svg class="bob" font-family="arial" font-size="14" height="752" width="936" xmlns="http://www.w3.org/2000/svg">
<defs>
<marker id="triangle" markerHeight="8" markerWidth="8" orient="auto" refX="4" refY="2" viewBox="0 0 8 4">
<polygon class="fg_fill" points="0,0 0,4 8,2 0,0"/>
</marker>
<marker id="clear_triangle" markerHeight="10" markerWidth="10" orient="auto" refX="1" refY="7" viewBox="0 0 20 14">
<polygon class="bg_fill" points="2,2 2,12 18,7 2,2"/>
</marker>
<marker id="circle" markerHeight="5" markerWidth="5" orient="auto" refX="10" refY="10" viewBox="0 0 20 20">
<circle class="fg_fill" cx="10" cy="10" r="8"/>
</marker>
<marker id="square" markerHeight="5" markerWidth="5" orient="auto" refX="10" refY="10" viewBox="0 0 20 20">
<rect class="fg_fill" height="20" width="20" x="0" y="0"/>
</marker>
<marker id="open_circle" markerHeight="10" markerWidth="10" orient="auto" refX="10" refY="10" viewBox="0 0 20 20">
<circle class="bg_fill" cx="10" cy="10" r="4"/>
</marker>
<marker id="big_open_circle" markerHeight="20" markerWidth="20" orient="auto" refX="20" refY="20" viewBox="0 0 40 40">
<circle class="bg_fill" cx="20" cy="20" r="6"/>
</marker>
</defs>
<style type="text/css">

rect.backdrop {
    fill: white;
}
text{
    fill: black;
}

circle {
    fill: none;
    stroke: black;
    stroke-width: 2;
}

line {
    stroke: black;
    stroke-width: 2;
    stroke-opacity: 1;
    fill-opacity: 1;
    stroke-linecap: round;
    stroke-linejoin: miter;
}

path {
    fill: none;
    stroke: black;
    stroke-width: 2;
    stroke-opacity: 1;
    fill-opacity: 1;
    stroke-linecap: round;
    stroke-linejoin: miter;
}

line.dashed {
    stroke-dasharray: 5;
}

.fg_fill {
    fill: black;
}


.bg_fill {
    fill: white;
    stroke: black;
    stroke-width: 2;
}

tspan.head{
    fill: none;
    stroke: none;
}
    
</style>
<rect class="backdrop" height="752" width="936" x="0" y="0"/>
<g>
<line x1="4" x2="4" y1="504" y2="536"/>
<line x1="4" x2="60" y1="504" y2="504"/>
<line x1="4" x2="60" y1="536" y2="536"/>
<line x1="60" x2="60" y1="476" y2="504"/>
<line x1="60" x2="76" y1="504" y2="504"/>
<line x1="60" x2="60" y1="536" y2="564"/>
<line x1="60" x2="76" y1="536" y2="536"/>
<line x1="76" x2="76" y1="504" y2="536"/>
<path d="M 60 564 A 4 4 0 0 0 64 568"/>
<path d="M 64 472 A 4 4 0 0 0 60 476"/>
</g>
<g>
<line marker-end="url(#triangle)" x1="64" x2="92" y1="472" y2="472"/>
</g>
<g>
<line marker-end="url(#triangle)" x1="64" x2="92" y1="568" y2="568"/>
</g>
<g>
<line x1="100" x2="100" y1="440" y2="488"/>
<line x1="100" x2="140" y1="440" y2="440"/>
<line x1="100" x2="140" y1="488" y2="488"/>
<line x1="140" x2="140" y1="440" y2="472"/>
<line x1="140" x2="140" y1="472" y2="488"/>
<line x1="140" x2="144" y1="472" y2="472"/>
<path d="M 150 476 A 8 8 0 0 0 144 472"/>
</g>
<g>
<line x1="100" x2="100" y1="552" y2="600"/>
<line x1="100" x2="140" y1="552" y2="552"/>
<line x1="100" x2="116" y1="600" y2="600"/>
<line marker-end="url(#triangle)" x1="116" x2="116" y1="600" y2="636"/>
<line x1="116" x2="140" y1="600" y2="600"/>
<line x1="140" x2="140" y1="552" y2="600"/>
</g>
<g>
<line x1="100" x2="100" y1="648" y2="680"/>
<line x1="100" x2="140" y1="648" y2="648"/>
<line x1="100" x2="140" y1="680" y2="680"/>
<line x1="140" x2="140" y1="648" y2="664"/>
<line x1="140" x2="140" y1="664" y2="680"/>
<line x1="140" x2="144" y1="664" y2="664"/>
<path d="M 144 664 A 8 8 0 0 0 150 660"/>
</g>
<g>
<line x1="148" x2="148" y1="120" y2="152"/>
<line x1="148" x2="204" y1="120" y2="120"/>
<line x1="148" x2="204" y1="152" y2="152"/>
<line x1="204" x2="204" y1="92" y2="120"/>
<line x1="204" x2="220" y1="120" y2="120"/>
<line x1="204" x2="204" y1="152" y2="180"/>
<line x1="204" x2="220" y1="152" y2="152"/>
<line x1="220" x2="220" y1="120" y2="152"/>
<path d="M 204 180 A 4 4 0 0 0 208 184"/>
<path d="M 208 88 A 4 4 0 0 0 204 92"/>
</g>
<g>
<line x1="150" x2="194" y1="476" y2="564"/>
<path d="M 194 564 A 8 8 0 0 0 200 568"/>
</g>
<g>
<line x1="186" x2="150" y1="588" y2="660"/>
<path d="M 192 584 A 8 8 0 0 0 186 588"/>
</g>
<g>
<line marker-end="url(#triangle)" x1="192" x2="244" y1="584" y2="584"/>
</g>
<g>
<line marker-end="url(#triangle)" x1="200" x2="244" y1="568" y2="568"/>
</g>
<g>
<line marker-end="url(#triangle)" x1="208" x2="236" y1="88" y2="88"/>
</g>
<g>
<line marker-end="url(#triangle)" x1="208" x2="236" y1="184" y2="184"/>
</g>
<g>
<line x1="244" x2="244" y1="56" y2="104"/>
<line x1="244" x2="284" y1="56" y2="56"/>
<line x1="244" x2="284" y1="104" y2="104"/>
<line x1="284" x2="284" y1="56" y2="88"/>
<line x1="284" x2="284" y1="88" y2="104"/>
<line x1="284" x2="288" y1="88" y2="88"/>
<path d="M 294 92 A 8 8 0 0 0 288 88"/>
</g>
<g>
<line x1="244" x2="244" y1="168" y2="216"/>
<line x1="244" x2="284" y1="168" y2="168"/>
<line x1="244" x2="260" y1="216" y2="216"/>
<line marker-end="url(#triangle)" x1="260" x2="260" y1="216" y2="252"/>
<line x1="260" x2="284" y1="216" y2="216"/>
<line x1="284" x2="284" y1="168" y2="216"/>
</g>
<g>
<line x1="244" x2="244" y1="264" y2="296"/>
<line x1="244" x2="284" y1="264" y2="264"/>
<line x1="244" x2="284" y1="296" y2="296"/>
<line x1="284" x2="284" y1="264" y2="280"/>
<line x1="284" x2="284" y1="280" y2="296"/>
<line x1="284" x2="288" y1="280" y2="280"/>
<path d="M 288 280 A 8 8 0 0 0 294 276"/>
</g>
<g>
<line x1="252" x2="252" y1="552" y2="600"/>
<line x1="252" x2="292" y1="552" y2="552"/>
<line x1="252" x2="292" y1="600" y2="600"/>
<line x1="292" x2="292" y1="552" y2="600"/>
</g>
<g>
<line x1="294" x2="338" y1="92" y2="180"/>
<path d="M 338 180 A 8 8 0 0 0 344 184"/>
</g>
<g>
<line x1="330" x2="294" y1="204" y2="276"/>
<path d="M 336 200 A 8 8 0 0 0 330 204"/>
</g>
<g>
<line marker-end="url(#triangle)" x1="336" x2="388" y1="200" y2="200"/>
</g>
<g>
<line marker-end="url(#triangle)" x1="344" x2="388" y1="184" y2="184"/>
</g>
<g>
<line x1="396" x2="396" y1="168" y2="216"/>
<line x1="396" x2="436" y1="168" y2="168"/>
<line x1="396" x2="412" y1="216" y2="216"/>
<line marker-end="url(#triangle)" x1="412" x2="412" y1="216" y2="252"/>
<line x1="412" x2="436" y1="216" y2="216"/>
<line x1="436" x2="436" y1="168" y2="184"/>
<line x1="436" x2="436" y1="184" y2="216"/>
<line x1="436" x2="440" y1="184" y2="184"/>
<path d="M 440 184 A 8 8 0 0 0 446 180"/>
</g>
<g>
<line x1="396" x2="396" y1="264" y2="296"/>
<line x1="396" x2="436" y1="264" y2="264"/>
<line x1="396" x2="436" y1="296" y2="296"/>
<line x1="436" x2="436" y1="264" y2="280"/>
<line x1="436" x2="436" y1="280" y2="296"/>
<line x1="436" x2="440" y1="280" y2="280"/>
<path d="M 440 280 A 8 8 0 0 0 446 276"/>
</g>
<g>
<line x1="482" x2="446" y1="204" y2="276"/>
<path d="M 488 200 A 8 8 0 0 0 482 204"/>
</g>
<g>
<line marker-end="url(#triangle)" x1="488" x2="540" y1="200" y2="200"/>
</g>
<g>
<line x1="490" x2="446" y1="92" y2="180"/>
<path d="M 496 88 A 8 8 0 0 0 490 92"/>
</g>
<g>
<line marker-end="url(#triangle)" x1="496" x2="540" y1="88" y2="88"/>
</g>
<g>
<line x1="548" x2="548" y1="56" y2="104"/>
<line x1="548" x2="588" y1="56" y2="56"/>
<line x1="548" x2="588" y1="104" y2="104"/>
<line x1="588" x2="588" y1="56" y2="72"/>
<line x1="588" x2="588" y1="72" y2="104"/>
<line x1="588" x2="616" y1="72" y2="72"/>
<path d="M 620 76 A 4 4 0 0 0 616 72"/>
</g>
<g>
<line x1="548" x2="548" y1="168" y2="216"/>
<line x1="548" x2="588" y1="168" y2="168"/>
<line x1="548" x2="564" y1="216" y2="216"/>
<line marker-end="url(#triangle)" x1="564" x2="564" y1="216" y2="252"/>
<line x1="564" x2="588" y1="216" y2="216"/>
<line x1="588" x2="588" y1="168" y2="200"/>
<line x1="588" x2="588" y1="200" y2="216"/>
<line x1="588" x2="616" y1="200" y2="200"/>
<path d="M 616 200 A 4 4 0 0 0 620 196"/>
</g>
<g>
<line x1="548" x2="548" y1="264" y2="296"/>
<line x1="548" x2="588" y1="264" y2="264"/>
<line x1="548" x2="588" y1="296" y2="296"/>
<line x1="588" x2="588" y1="264" y2="280"/>
<line x1="588" x2="588" y1="280" y2="296"/>
<line x1="588" x2="632" y1="280" y2="280"/>
<path d="M 632 280 A 4 4 0 0 0 636 276"/>
</g>
<g>
<line x1="556" x2="556" y1="552" y2="600"/>
<line x1="556" x2="596" y1="552" y2="552"/>
<line x1="556" x2="572" y1="600" y2="600"/>
<line marker-end="url(#triangle)" x1="572" x2="572" y1="600" y2="636"/>
<line x1="572" x2="596" y1="600" y2="600"/>
<line x1="596" x2="596" y1="552" y2="568"/>
<line x1="596" x2="596" y1="568" y2="600"/>
<line x1="596" x2="600" y1="568" y2="568"/>
<path d="M 600 568 A 8 8 0 0 0 606 564"/>
</g>
<g>
<line x1="556" x2="556" y1="648" y2="680"/>
<line x1="556" x2="596" y1="648" y2="648"/>
<line x1="556" x2="596" y1="680" y2="680"/>
<line x1="596" x2="596" y1="648" y2="664"/>
<line x1="596" x2="596" y1="664" y2="680"/>
<line x1="596" x2="600" y1="664" y2="664"/>
<path d="M 600 664 A 8 8 0 0 0 606 660"/>
</g>
<g>
<line x1="612" x2="612" y1="120" y2="152"/>
<line x1="612" x2="668" y1="120" y2="120"/>
<line x1="612" x2="668" y1="152" y2="152"/>
<line x1="668" x2="668" y1="120" y2="152"/>
</g>
<g>
<line marker-end="url(#triangle)" x1="620" x2="620" y1="76" y2="108"/>
</g>
<g>
<line marker-end="url(#triangle)" x1="620" x2="620" y1="176" y2="164"/>
<line x1="620" x2="620" y1="176" y2="196"/>
</g>
<g>
<line marker-end="url(#triangle)" x1="636" x2="636" y1="176" y2="164"/>
<line x1="636" x2="636" y1="176" y2="276"/>
</g>
<g>
<line x1="642" x2="606" y1="588" y2="660"/>
<path d="M 648 584 A 8 8 0 0 0 642 588"/>
</g>
<g>
<line marker-end="url(#triangle)" x1="648" x2="700" y1="584" y2="584"/>
</g>
<g>
<line x1="650" x2="606" y1="476" y2="564"/>
<path d="M 656 472 A 8 8 0 0 0 650 476"/>
</g>
<g>
<line marker-end="url(#triangle)" x1="656" x2="700" y1="472" y2="472"/>
</g>
<g>
<line x1="708" x2="708" y1="440" y2="488"/>
<line x1="708" x2="748" y1="440" y2="440"/>
<line x1="708" x2="748" y1="488" y2="488"/>
<line x1="748" x2="748" y1="440" y2="456"/>
<line x1="748" x2="748" y1="456" y2="488"/>
<line x1="748" x2="776" y1="456" y2="456"/>
<path d="M 780 460 A 4 4 0 0 0 776 456"/>
</g>
<g>
<line x1="708" x2="708" y1="552" y2="600"/>
<line x1="708" x2="748" y1="552" y2="552"/>
<line x1="708" x2="724" y1="600" y2="600"/>
<line marker-end="url(#triangle)" x1="724" x2="724" y1="600" y2="636"/>
<line x1="724" x2="748" y1="600" y2="600"/>
<line x1="748" x2="748" y1="552" y2="584"/>
<line x1="748" x2="748" y1="584" y2="600"/>
<line x1="748" x2="776" y1="584" y2="584"/>
<path d="M 776 584 A 4 4 0 0 0 780 580"/>
</g>
<g>
<line x1="708" x2="708" y1="648" y2="680"/>
<line x1="708" x2="748" y1="648" y2="648"/>
<line x1="708" x2="748" y1="680" y2="680"/>
<line x1="748" x2="748" y1="648" y2="664"/>
<line x1="748" x2="748" y1="664" y2="680"/>
<line x1="748" x2="792" y1="664" y2="664"/>
<path d="M 792 664 A 4 4 0 0 0 796 660"/>
</g>
<g>
<line x1="772" x2="772" y1="504" y2="536"/>
<line x1="772" x2="828" y1="504" y2="504"/>
<line x1="772" x2="828" y1="536" y2="536"/>
<line x1="828" x2="828" y1="504" y2="536"/>
</g>
<g>
<line marker-end="url(#triangle)" x1="780" x2="780" y1="460" y2="492"/>
</g>
<g>
<line marker-end="url(#triangle)" x1="780" x2="780" y1="560" y2="548"/>
<line x1="780" x2="780" y1="560" y2="580"/>
</g>
<g>
<line marker-end="url(#triangle)" x1="796" x2="796" y1="560" y2="548"/>
<line x1="796" x2="796" y1="560" y2="660"/>
</g>
<g>
<text x="1" y="716">
a + b =
</text>
</g>
<g>
<text x="17" y="524">
SOURCE
</text>
</g>
<g>
<text x="73" y="380">
LEFT-HAND SIDE
</text>
</g>
<g>
<text x="73" y="396">
(up to B1)
</text>
</g>
<g>
<text x="81" y="716">
Pr(z|SOURCE-&gt;A) * Pr(z|A-&gt;B) +
</text>
</g>
<g>
<text x="81" y="732">
Pr(z|SOURCE-&gt;B) * Pr(B-&gt;C) * Pr(z|C-&gt;B)
</text>
</g>
<g>
<text x="113" y="460">
A0
</text>
</g>
<g>
<text x="113" y="572">
B0
</text>
</g>
<g>
<text x="113" y="668">
C0
</text>
</g>
<g>
<text x="121" y="412">
z
</text>
</g>
<g>
<text x="161" y="140">
SOURCE
</text>
</g>
<g>
<text x="257" y="76">
A0
</text>
</g>
<g>
<text x="257" y="188">
B0
</text>
</g>
<g>
<text x="257" y="284">
C0
</text>
</g>
<g>
<text x="265" y="28">
z
</text>
</g>
<g>
<text x="265" y="572">
B1
</text>
</g>
<g>
<text x="273" y="412">
z
</text>
</g>
<g>
<text x="401" y="12">
FULL
</text>
</g>
<g>
<text x="409" y="188">
B1
</text>
</g>
<g>
<text x="409" y="284">
C1
</text>
</g>
<g>
<text x="417" y="28">
z
</text>
</g>
<g>
<text x="441" y="716">
*
</text>
</g>
<g>
<text x="553" y="716">
c + d + e =
</text>
</g>
<g>
<text x="561" y="76">
A2
</text>
</g>
<g>
<text x="561" y="188">
B2
</text>
</g>
<g>
<text x="561" y="284">
C2
</text>
</g>
<g>
<text x="569" y="28">
y
</text>
</g>
<g>
<text x="569" y="572">
B1
</text>
</g>
<g>
<text x="569" y="668">
C1
</text>
</g>
<g>
<text x="577" y="412">
z
</text>
</g>
<g>
<text x="609" y="380">
RIGHT-HAND SIDE
</text>
</g>
<g>
<text x="609" y="396">
(from B1)
</text>
</g>
<g>
<text x="625" y="140">
SINK
</text>
</g>
<g>
<text x="665" y="716">
Pr(y|B-&gt;A) +
</text>
</g>
<g>
<text x="665" y="732">
Pr(B-&gt;C) * Pr(y|C-&gt;B) +
</text>
</g>
<g>
<text x="665" y="748">
Pr(B-&gt;C) * Pr(y|C-&gt;B) * Pr(B-&gt;C)
</text>
</g>
<g>
<text x="721" y="460">
A2
</text>
</g>
<g>
<text x="721" y="572">
B2
</text>
</g>
<g>
<text x="721" y="668">
C2
</text>
</g>
<g>
<text x="729" y="412">
y
</text>
</g>
<g>
<text x="785" y="524">
SINK
</text>
</g>
</svg>
