<svg class="bob" font-family="arial" font-size="14" height="272" width="200" xmlns="http://www.w3.org/2000/svg">
<defs>
<marker id="triangle" markerHeight="8" markerWidth="8" orient="auto" refX="4" refY="2" viewBox="0 0 8 4">
<polygon class="fg_fill" points="0,0 0,4 8,2 0,0"/>
</marker>
<marker id="clear_triangle" markerHeight="10" markerWidth="10" orient="auto" refX="1" refY="7" viewBox="0 0 20 14">
<polygon class="bg_fill" points="2,2 2,12 18,7 2,2"/>
</marker>
<marker id="circle" markerHeight="5" markerWidth="5" orient="auto" refX="10" refY="10" viewBox="0 0 20 20">
<circle class="fg_fill" cx="10" cy="10" r="8"/>
</marker>
<marker id="square" markerHeight="5" markerWidth="5" orient="auto" refX="10" refY="10" viewBox="0 0 20 20">
<rect class="fg_fill" height="20" width="20" x="0" y="0"/>
</marker>
<marker id="open_circle" markerHeight="10" markerWidth="10" orient="auto" refX="10" refY="10" viewBox="0 0 20 20">
<circle class="bg_fill" cx="10" cy="10" r="4"/>
</marker>
<marker id="big_open_circle" markerHeight="20" markerWidth="20" orient="auto" refX="20" refY="20" viewBox="0 0 40 40">
<circle class="bg_fill" cx="20" cy="20" r="6"/>
</marker>
</defs>
<style type="text/css">

rect.backdrop {
    fill: white;
}
text{
    fill: black;
}

circle {
    fill: none;
    stroke: black;
    stroke-width: 2;
}

line {
    stroke: black;
    stroke-width: 2;
    stroke-opacity: 1;
    fill-opacity: 1;
    stroke-linecap: round;
    stroke-linejoin: miter;
}

path {
    fill: none;
    stroke: black;
    stroke-width: 2;
    stroke-opacity: 1;
    fill-opacity: 1;
    stroke-linecap: round;
    stroke-linejoin: miter;
}

line.dashed {
    stroke-dasharray: 5;
}

.fg_fill {
    fill: black;
}


.bg_fill {
    fill: white;
    stroke: black;
    stroke-width: 2;
}

tspan.head{
    fill: none;
    stroke: none;
}
    
</style>
<rect class="backdrop" height="272" width="200" x="0" y="0"/>
<g>
<line x1="18" x2="6" y1="156" y2="180"/>
<path d="M 6 180 A 16 16 0 0 0 4 188"/>
<path d="M 24 152 A 8 8 0 0 0 18 156"/>
<line marker-end="url(#open_circle)" x1="4" x2="4" y1="188" y2="264"/>
<line marker-end="url(#triangle)" marker-start="url(#open_circle)" x1="4" x2="60" y1="264" y2="264"/>
<line marker-end="url(#open_circle)" x1="34" x2="4" y1="204" y2="264"/>
</g>
<g>
<line x1="24" x2="176" y1="152" y2="152"/>
<path d="M 182 156 A 8 8 0 0 0 176 152"/>
</g>
<g>
<line x1="40" x2="96" y1="200" y2="200"/>
<path d="M 40 200 A 8 8 0 0 0 34 204"/>
<path d="M 102 204 A 8 8 0 0 0 96 200"/>
</g>
<g>
<line x1="96" x2="108" y1="216" y2="216"/>
<line x1="108" x2="168" y1="216" y2="216"/>
<path d="M 96 216 A 8 8 0 0 0 90 220"/>
<path d="M 174 220 A 8 8 0 0 0 168 216"/>
<line marker-end="url(#open_circle)" x1="90" x2="68" y1="220" y2="264"/>
</g>
<g>
<line marker-end="url(#triangle)" x1="102" x2="126" y1="204" y2="252"/>
</g>
<g>
<line marker-end="url(#triangle)" x1="174" x2="190" y1="220" y2="252"/>
</g>
<g>
<line x1="182" x2="194" y1="156" y2="180"/>
<path d="M 196 188 A 16 16 0 0 0 194 180"/>
</g>
<g>
<line marker-end="url(#triangle)" x1="196" x2="196" y1="188" y2="252"/>
</g>
<g>
<text x="1" y="12">
Row before:
</text>
</g>
<g>
<text x="1" y="108">
Row after:
</text>
</g>
<g>
<text x="33" y="44">
T
</text>
</g>
<g>
<text x="33" y="252">
T
</text>
</g>
<g>
<text x="65" y="188">
TA
</text>
</g>
<g>
<text x="89" y="140">
TAA
</text>
</g>
<g>
<text x="97" y="44">
A
</text>
</g>
<g>
<text x="97" y="252">
A
</text>
</g>
<g>
<text x="129" y="204">
AA
</text>
</g>
<g>
<text x="161" y="44">
A
</text>
</g>
<g>
<text x="161" y="252">
A
</text>
</g>
<g>
<line marker-end="url(#triangle)" marker-start="url(#open_circle)" x1="4" x2="60" y1="56" y2="56"/>
</g>
<g>
<line marker-start="url(#open_circle)" x1="68" x2="64" y1="56" y2="56"/>
<line marker-end="url(#triangle)" marker-start="url(#open_circle)" x1="68" x2="124" y1="56" y2="56"/>
</g>
<g>
<line marker-start="url(#open_circle)" x1="68" x2="64" y1="264" y2="264"/>
<line marker-end="url(#triangle)" marker-start="url(#open_circle)" x1="68" x2="124" y1="264" y2="264"/>
</g>
<g>
<line marker-start="url(#open_circle)" x1="132" x2="128" y1="56" y2="56"/>
<line marker-end="url(#triangle)" marker-start="url(#open_circle)" x1="132" x2="188" y1="56" y2="56"/>
</g>
<g>
<line marker-start="url(#open_circle)" x1="132" x2="128" y1="264" y2="264"/>
<line marker-end="url(#triangle)" marker-start="url(#open_circle)" x1="132" x2="188" y1="264" y2="264"/>
</g>
<g>
<line marker-start="url(#open_circle)" x1="196" x2="192" y1="56" y2="56"/>
</g>
<g>
<line marker-start="url(#open_circle)" x1="196" x2="192" y1="264" y2="264"/>
</g>
</svg>
