<svg class="bob" font-family="arial" font-size="14" height="160" width="560" xmlns="http://www.w3.org/2000/svg">
<defs>
<marker id="triangle" markerHeight="8" markerWidth="8" orient="auto" refX="4" refY="2" viewBox="0 0 8 4">
<polygon class="fg_fill" points="0,0 0,4 8,2 0,0"/>
</marker>
<marker id="clear_triangle" markerHeight="10" markerWidth="10" orient="auto" refX="1" refY="7" viewBox="0 0 20 14">
<polygon class="bg_fill" points="2,2 2,12 18,7 2,2"/>
</marker>
<marker id="circle" markerHeight="5" markerWidth="5" orient="auto" refX="10" refY="10" viewBox="0 0 20 20">
<circle class="fg_fill" cx="10" cy="10" r="8"/>
</marker>
<marker id="square" markerHeight="5" markerWidth="5" orient="auto" refX="10" refY="10" viewBox="0 0 20 20">
<rect class="fg_fill" height="20" width="20" x="0" y="0"/>
</marker>
<marker id="open_circle" markerHeight="10" markerWidth="10" orient="auto" refX="10" refY="10" viewBox="0 0 20 20">
<circle class="bg_fill" cx="10" cy="10" r="4"/>
</marker>
<marker id="big_open_circle" markerHeight="20" markerWidth="20" orient="auto" refX="20" refY="20" viewBox="0 0 40 40">
<circle class="bg_fill" cx="20" cy="20" r="6"/>
</marker>
</defs>
<style type="text/css">

rect.backdrop {
    fill: white;
}
text{
    fill: black;
}

circle {
    fill: none;
    stroke: black;
    stroke-width: 2;
}

line {
    stroke: black;
    stroke-width: 2;
    stroke-opacity: 1;
    fill-opacity: 1;
    stroke-linecap: round;
    stroke-linejoin: miter;
}

path {
    fill: none;
    stroke: black;
    stroke-width: 2;
    stroke-opacity: 1;
    fill-opacity: 1;
    stroke-linecap: round;
    stroke-linejoin: miter;
}

line.dashed {
    stroke-dasharray: 5;
}

.fg_fill {
    fill: black;
}


.bg_fill {
    fill: white;
    stroke: black;
    stroke-width: 2;
}

tspan.head{
    fill: none;
    stroke: none;
}
    
</style>
<rect class="backdrop" height="160" width="560" x="0" y="0"/>
<g>
<line x1="104" x2="140" y1="72" y2="72"/>
<line x1="140" x2="140" y1="28" y2="72"/>
<line x1="140" x2="168" y1="72" y2="72"/>
<path d="M 104 72 A 4 4 0 0 0 100 76"/>
<path d="M 144 24 A 4 4 0 0 0 140 28"/>
<path d="M 172 76 A 4 4 0 0 0 168 72"/>
</g>
<g>
<line marker-end="url(#triangle)" x1="128" x2="140" y1="88" y2="88"/>
</g>
<g>
<line marker-end="url(#triangle)" x1="128" x2="140" y1="104" y2="104"/>
</g>
<g>
<line x1="144" x2="552" y1="24" y2="24"/>
<path d="M 556 28 A 4 4 0 0 0 552 24"/>
</g>
<g>
<line x1="152" x2="212" y1="120" y2="120"/>
<line x1="212" x2="212" y1="120" y2="132"/>
<line x1="212" x2="264" y1="120" y2="120"/>
<path d="M 148 116 A 4 4 0 0 0 152 120"/>
<path d="M 212 132 A 4 4 0 0 0 216 136"/>
<path d="M 264 120 A 4 4 0 0 0 268 116"/>
</g>
<g>
<line marker-end="url(#triangle)" x1="176" x2="188" y1="88" y2="88"/>
</g>
<g>
<line marker-end="url(#triangle)" x1="184" x2="180" y1="104" y2="104"/>
<line x1="184" x2="192" y1="104" y2="104"/>
</g>
<g>
<line x1="216" x2="476" y1="136" y2="136"/>
<line x1="476" x2="476" y1="120" y2="136"/>
<line x1="476" x2="504" y1="120" y2="120"/>
<line x1="476" x2="476" y1="136" y2="148"/>
<line x1="476" x2="528" y1="136" y2="136"/>
<path d="M 476 148 A 4 4 0 0 0 480 152"/>
<path d="M 504 120 A 4 4 0 0 0 508 116"/>
<path d="M 528 136 A 4 4 0 0 0 532 132"/>
</g>
<g>
<line marker-end="url(#triangle)" x1="224" x2="236" y1="88" y2="88"/>
</g>
<g>
<line marker-end="url(#triangle)" x1="232" x2="228" y1="104" y2="104"/>
<line x1="232" x2="240" y1="104" y2="104"/>
</g>
<g>
<line x1="248" x2="308" y1="72" y2="72"/>
<line x1="308" x2="308" y1="60" y2="72"/>
<line x1="308" x2="360" y1="72" y2="72"/>
<path d="M 248 72 A 4 4 0 0 0 244 76"/>
<path d="M 312 56 A 4 4 0 0 0 308 60"/>
<path d="M 364 76 A 4 4 0 0 0 360 72"/>
</g>
<g>
<line marker-end="url(#triangle)" x1="272" x2="284" y1="88" y2="88"/>
</g>
<g>
<line marker-end="url(#triangle)" x1="272" x2="284" y1="104" y2="104"/>
</g>
<g>
<line x1="312" x2="528" y1="56" y2="56"/>
<path d="M 532 60 A 4 4 0 0 0 528 56"/>
</g>
<g>
<line marker-end="url(#triangle)" x1="320" x2="332" y1="88" y2="88"/>
</g>
<g>
<line marker-end="url(#triangle)" x1="320" x2="332" y1="104" y2="104"/>
</g>
<g>
<line marker-end="url(#triangle)" x1="368" x2="380" y1="88" y2="88"/>
</g>
<g>
<line marker-end="url(#triangle)" x1="368" x2="380" y1="104" y2="104"/>
</g>
<g>
<line marker-end="url(#triangle)" x1="416" x2="428" y1="88" y2="88"/>
</g>
<g>
<line marker-end="url(#triangle)" x1="416" x2="428" y1="104" y2="104"/>
</g>
<g>
<line x1="440" x2="476" y1="120" y2="120"/>
<path d="M 436 116 A 4 4 0 0 0 440 120"/>
</g>
<g>
<line marker-end="url(#triangle)" x1="464" x2="476" y1="88" y2="88"/>
</g>
<g>
<line marker-end="url(#triangle)" x1="464" x2="476" y1="104" y2="104"/>
</g>
<g>
<line x1="480" x2="552" y1="152" y2="152"/>
<path d="M 552 152 A 4 4 0 0 0 556 148"/>
</g>
<g>
<line x1="532" x2="532" y1="60" y2="132"/>
</g>
<g>
<line x1="556" x2="556" y1="28" y2="148"/>
</g>
<g>
<text x="1" y="92">
GENOME1:
</text>
</g>
<g>
<text x="1" y="108">
GENOME2:
</text>
</g>
<g>
<text x="105" y="92">
G1
</text>
</g>
<g>
<text x="105" y="108">
G3
</text>
</g>
<g>
<text x="153" y="92">
G2
</text>
</g>
<g>
<text x="153" y="108">
G6
</text>
</g>
<g>
<text x="201" y="92">
G3
</text>
</g>
<g>
<text x="201" y="108">
G5
</text>
</g>
<g>
<text x="249" y="92">
G4
</text>
</g>
<g>
<text x="249" y="108">
G4
</text>
</g>
<g>
<text x="289" y="12">
translocate
</text>
</g>
<g>
<text x="297" y="92">
G5
</text>
</g>
<g>
<text x="297" y="108">
G7
</text>
</g>
<g>
<text x="345" y="92">
G6
</text>
</g>
<g>
<text x="345" y="108">
G8
</text>
</g>
<g>
<text x="385" y="44">
reverse
</text>
</g>
<g>
<text x="393" y="92">
G7
</text>
</g>
<g>
<text x="393" y="108">
G9
</text>
</g>
<g>
<text x="441" y="92">
G8
</text>
</g>
<g>
<text x="441" y="108">
G1
</text>
</g>
<g>
<text x="489" y="92">
G9
</text>
</g>
<g>
<text x="489" y="108">
G2
</text>
</g>
</svg>
