<?xml version="1.0" encoding="utf-8" standalone="no"?>
<!DOCTYPE svg PUBLIC "-//W3C//DTD SVG 1.1//EN"
  "http://www.w3.org/Graphics/SVG/1.1/DTD/svg11.dtd">
<svg xmlns:xlink="http://www.w3.org/1999/xlink" width="460.8pt" height="345.6pt" viewBox="0 0 460.8 345.6" xmlns="http://www.w3.org/2000/svg" version="1.1">
 <metadata>
  <rdf:RDF xmlns:dc="http://purl.org/dc/elements/1.1/" xmlns:cc="http://creativecommons.org/ns#" xmlns:rdf="http://www.w3.org/1999/02/22-rdf-syntax-ns#">
   <cc:Work>
    <dc:type rdf:resource="http://purl.org/dc/dcmitype/StillImage"/>
    <dc:date>2022-01-29T23:01:16.365199</dc:date>
    <dc:format>image/svg+xml</dc:format>
    <dc:creator>
     <cc:Agent>
      <dc:title>Matplotlib v3.5.1, https://matplotlib.org/</dc:title>
     </cc:Agent>
    </dc:creator>
   </cc:Work>
  </rdf:RDF>
 </metadata>
 <defs>
  <style type="text/css">*{stroke-linejoin: round; stroke-linecap: butt}</style>
 </defs>
 <g id="figure_1">
  <g id="patch_1">
   <path d="M 0 345.6 
L 460.8 345.6 
L 460.8 0 
L 0 0 
z
" style="fill: #ffffff"/>
  </g>
  <g id="axes_1">
   <g id="patch_2">
    <path d="M 57.6 307.584 
L 414.72 307.584 
L 414.72 41.472 
L 57.6 41.472 
z
" style="fill: #ffffff"/>
   </g>
   <g id="PathCollection_1">
    <defs>
     <path id="m7dd71cda73" d="M -6.324555 6.324555 
L 6.324555 -6.324555 
M -6.324555 -6.324555 
L 6.324555 6.324555 
" style="stroke: #1f77b4; stroke-width: 1.5"/>
    </defs>
    <g clip-path="url(#p7616b7c3c0)">
     <use xlink:href="#m7dd71cda73" x="298.631624" y="142.757385" style="fill: #1f77b4; stroke: #1f77b4; stroke-width: 1.5"/>
    </g>
   </g>
   <g id="PathCollection_2">
    <path d="M 73.832727 264.090278 
C 74.671373 264.090278 75.475783 263.75708 76.068795 263.164068 
C 76.661807 262.571056 76.995005 261.766646 76.995005 260.928 
C 76.995005 260.089354 76.661807 259.284944 76.068795 258.691932 
C 75.475783 258.09892 74.671373 257.765722 73.832727 257.765722 
C 72.994081 257.765722 72.189671 258.09892 71.596659 258.691932 
C 71.003647 259.284944 70.67045 260.089354 70.67045 260.928 
C 70.67045 261.766646 71.003647 262.571056 71.596659 263.164068 
C 72.189671 263.75708 72.994081 264.090278 73.832727 264.090278 
z
" clip-path="url(#p7616b7c3c0)" style="fill: #ff7f0e; stroke: #ff7f0e"/>
    <path d="M 73.832727 194.970278 
C 74.671373 194.970278 75.475783 194.63708 76.068795 194.044068 
C 76.661807 193.451056 76.995005 192.646646 76.995005 191.808 
C 76.995005 190.969354 76.661807 190.164944 76.068795 189.571932 
C 75.475783 188.97892 74.671373 188.645722 73.832727 188.645722 
C 72.994081 188.645722 72.189671 188.97892 71.596659 189.571932 
C 71.003647 190.164944 70.67045 190.969354 70.67045 191.808 
C 70.67045 192.646646 71.003647 193.451056 71.596659 194.044068 
C 72.189671 194.63708 72.994081 194.970278 73.832727 194.970278 
z
" clip-path="url(#p7616b7c3c0)" style="fill: #ff7f0e; stroke: #ff7f0e"/>
    <path d="M 94.123636 125.850278 
C 94.962282 125.850278 95.766692 125.51708 96.359704 124.924068 
C 96.952717 124.331056 97.285914 123.526646 97.285914 122.688 
C 97.285914 121.849354 96.952717 121.044944 96.359704 120.451932 
C 95.766692 119.85892 94.962282 119.525722 94.123636 119.525722 
C 93.284991 119.525722 92.480581 119.85892 91.887568 120.451932 
C 91.294556 121.044944 90.961359 121.849354 90.961359 122.688 
C 90.961359 123.526646 91.294556 124.331056 91.887568 124.924068 
C 92.480581 125.51708 93.284991 125.850278 94.123636 125.850278 
z
" clip-path="url(#p7616b7c3c0)" style="fill: #ff7f0e; stroke: #ff7f0e"/>
    <path d="M 134.705455 264.090278 
C 135.5441 264.090278 136.34851 263.75708 136.941523 263.164068 
C 137.534535 262.571056 137.867732 261.766646 137.867732 260.928 
C 137.867732 260.089354 137.534535 259.284944 136.941523 258.691932 
C 136.34851 258.09892 135.5441 257.765722 134.705455 257.765722 
C 133.866809 257.765722 133.062399 258.09892 132.469387 258.691932 
C 131.876374 259.284944 131.543177 260.089354 131.543177 260.928 
C 131.543177 261.766646 131.876374 262.571056 132.469387 263.164068 
C 133.062399 263.75708 133.866809 264.090278 134.705455 264.090278 
z
" clip-path="url(#p7616b7c3c0)" style="fill: #ff7f0e; stroke: #ff7f0e"/>
    <path d="M 154.996364 229.530278 
C 155.835009 229.530278 156.639419 229.19708 157.232432 228.604068 
C 157.825444 228.011056 158.158641 227.206646 158.158641 226.368 
C 158.158641 225.529354 157.825444 224.724944 157.232432 224.131932 
C 156.639419 223.53892 155.835009 223.205722 154.996364 223.205722 
C 154.157718 223.205722 153.353308 223.53892 152.760296 224.131932 
C 152.167283 224.724944 151.834086 225.529354 151.834086 226.368 
C 151.834086 227.206646 152.167283 228.011056 152.760296 228.604068 
C 153.353308 229.19708 154.157718 229.530278 154.996364 229.530278 
z
" clip-path="url(#p7616b7c3c0)" style="fill: #ff7f0e; stroke: #ff7f0e"/>
    <path d="M 154.996364 160.410278 
C 155.835009 160.410278 156.639419 160.07708 157.232432 159.484068 
C 157.825444 158.891056 158.158641 158.086646 158.158641 157.248 
C 158.158641 156.409354 157.825444 155.604944 157.232432 155.011932 
C 156.639419 154.41892 155.835009 154.085722 154.996364 154.085722 
C 154.157718 154.085722 153.353308 154.41892 152.760296 155.011932 
C 152.167283 155.604944 151.834086 156.409354 151.834086 157.248 
C 151.834086 158.086646 152.167283 158.891056 152.760296 159.484068 
C 153.353308 160.07708 154.157718 160.410278 154.996364 160.410278 
z
" clip-path="url(#p7616b7c3c0)" style="fill: #ff7f0e; stroke: #ff7f0e"/>
    <path d="M 175.287273 194.970278 
C 176.125919 194.970278 176.930329 194.63708 177.523341 194.044068 
C 178.116353 193.451056 178.44955 192.646646 178.44955 191.808 
C 178.44955 190.969354 178.116353 190.164944 177.523341 189.571932 
C 176.930329 188.97892 176.125919 188.645722 175.287273 188.645722 
C 174.448627 188.645722 173.644217 188.97892 173.051205 189.571932 
C 172.458193 190.164944 172.124995 190.969354 172.124995 191.808 
C 172.124995 192.646646 172.458193 193.451056 173.051205 194.044068 
C 173.644217 194.63708 174.448627 194.970278 175.287273 194.970278 
z
" clip-path="url(#p7616b7c3c0)" style="fill: #ff7f0e; stroke: #ff7f0e"/>
    <path d="M 276.741818 264.090278 
C 277.580464 264.090278 278.384874 263.75708 278.977886 263.164068 
C 279.570898 262.571056 279.904096 261.766646 279.904096 260.928 
C 279.904096 260.089354 279.570898 259.284944 278.977886 258.691932 
C 278.384874 258.09892 277.580464 257.765722 276.741818 257.765722 
C 275.903172 257.765722 275.098762 258.09892 274.50575 258.691932 
C 273.912738 259.284944 273.579541 260.089354 273.579541 260.928 
C 273.579541 261.766646 273.912738 262.571056 274.50575 263.164068 
C 275.098762 263.75708 275.903172 264.090278 276.741818 264.090278 
z
" clip-path="url(#p7616b7c3c0)" style="fill: #ff7f0e; stroke: #ff7f0e"/>
    <path d="M 297.032727 229.530278 
C 297.871373 229.530278 298.675783 229.19708 299.268795 228.604068 
C 299.861807 228.011056 300.195005 227.206646 300.195005 226.368 
C 300.195005 225.529354 299.861807 224.724944 299.268795 224.131932 
C 298.675783 223.53892 297.871373 223.205722 297.032727 223.205722 
C 296.194081 223.205722 295.389671 223.53892 294.796659 224.131932 
C 294.203647 224.724944 293.87045 225.529354 293.87045 226.368 
C 293.87045 227.206646 294.203647 228.011056 294.796659 228.604068 
C 295.389671 229.19708 296.194081 229.530278 297.032727 229.530278 
z
" clip-path="url(#p7616b7c3c0)" style="fill: #ff7f0e; stroke: #ff7f0e"/>
    <path d="M 317.323636 298.650278 
C 318.162282 298.650278 318.966692 298.31708 319.559704 297.724068 
C 320.152717 297.131056 320.485914 296.326646 320.485914 295.488 
C 320.485914 294.649354 320.152717 293.844944 319.559704 293.251932 
C 318.966692 292.65892 318.162282 292.325722 317.323636 292.325722 
C 316.484991 292.325722 315.680581 292.65892 315.087568 293.251932 
C 314.494556 293.844944 314.161359 294.649354 314.161359 295.488 
C 314.161359 296.326646 314.494556 297.131056 315.087568 297.724068 
C 315.680581 298.31708 316.484991 298.650278 317.323636 298.650278 
z
" clip-path="url(#p7616b7c3c0)" style="fill: #ff7f0e; stroke: #ff7f0e"/>
    <path d="M 357.905455 264.090278 
C 358.7441 264.090278 359.54851 263.75708 360.141523 263.164068 
C 360.734535 262.571056 361.067732 261.766646 361.067732 260.928 
C 361.067732 260.089354 360.734535 259.284944 360.141523 258.691932 
C 359.54851 258.09892 358.7441 257.765722 357.905455 257.765722 
C 357.066809 257.765722 356.262399 258.09892 355.669387 258.691932 
C 355.076374 259.284944 354.743177 260.089354 354.743177 260.928 
C 354.743177 261.766646 355.076374 262.571056 355.669387 263.164068 
C 356.262399 263.75708 357.066809 264.090278 357.905455 264.090278 
z
" clip-path="url(#p7616b7c3c0)" style="fill: #ff7f0e; stroke: #ff7f0e"/>
    <path d="M 317.323636 91.290278 
C 318.162282 91.290278 318.966692 90.95708 319.559704 90.364068 
C 320.152717 89.771056 320.485914 88.966646 320.485914 88.128 
C 320.485914 87.289354 320.152717 86.484944 319.559704 85.891932 
C 318.966692 85.29892 318.162282 84.965722 317.323636 84.965722 
C 316.484991 84.965722 315.680581 85.29892 315.087568 85.891932 
C 314.494556 86.484944 314.161359 87.289354 314.161359 88.128 
C 314.161359 88.966646 314.494556 89.771056 315.087568 90.364068 
C 315.680581 90.95708 316.484991 91.290278 317.323636 91.290278 
z
" clip-path="url(#p7616b7c3c0)" style="fill: #ff7f0e; stroke: #ff7f0e"/>
    <path d="M 337.614545 56.730278 
C 338.453191 56.730278 339.257601 56.39708 339.850613 55.804068 
C 340.443626 55.211056 340.776823 54.406646 340.776823 53.568 
C 340.776823 52.729354 340.443626 51.924944 339.850613 51.331932 
C 339.257601 50.73892 338.453191 50.405722 337.614545 50.405722 
C 336.7759 50.405722 335.97149 50.73892 335.378477 51.331932 
C 334.785465 51.924944 334.452268 52.729354 334.452268 53.568 
C 334.452268 54.406646 334.785465 55.211056 335.378477 55.804068 
C 335.97149 56.39708 336.7759 56.730278 337.614545 56.730278 
z
" clip-path="url(#p7616b7c3c0)" style="fill: #ff7f0e; stroke: #ff7f0e"/>
    <path d="M 357.905455 125.850278 
C 358.7441 125.850278 359.54851 125.51708 360.141523 124.924068 
C 360.734535 124.331056 361.067732 123.526646 361.067732 122.688 
C 361.067732 121.849354 360.734535 121.044944 360.141523 120.451932 
C 359.54851 119.85892 358.7441 119.525722 357.905455 119.525722 
C 357.066809 119.525722 356.262399 119.85892 355.669387 120.451932 
C 355.076374 121.044944 354.743177 121.849354 354.743177 122.688 
C 354.743177 123.526646 355.076374 124.331056 355.669387 124.924068 
C 356.262399 125.51708 357.066809 125.850278 357.905455 125.850278 
z
" clip-path="url(#p7616b7c3c0)" style="fill: #ff7f0e; stroke: #ff7f0e"/>
    <path d="M 398.487273 91.290278 
C 399.325919 91.290278 400.130329 90.95708 400.723341 90.364068 
C 401.316353 89.771056 401.64955 88.966646 401.64955 88.128 
C 401.64955 87.289354 401.316353 86.484944 400.723341 85.891932 
C 400.130329 85.29892 399.325919 84.965722 398.487273 84.965722 
C 397.648627 84.965722 396.844217 85.29892 396.251205 85.891932 
C 395.658193 86.484944 395.324995 87.289354 395.324995 88.128 
C 395.324995 88.966646 395.658193 89.771056 396.251205 90.364068 
C 396.844217 90.95708 397.648627 91.290278 398.487273 91.290278 
z
" clip-path="url(#p7616b7c3c0)" style="fill: #ff7f0e; stroke: #ff7f0e"/>
   </g>
   <g id="PathCollection_3">
    <defs>
     <path id="m9de2cc8d04" d="M -6.324555 6.324555 
L 6.324555 -6.324555 
M -6.324555 -6.324555 
L 6.324555 6.324555 
" style="stroke: #2ca02c; stroke-width: 1.5"/>
    </defs>
    <g clip-path="url(#p7616b7c3c0)">
     <use xlink:href="#m9de2cc8d04" x="265.755276" y="188.371072" style="fill: #2ca02c; stroke: #2ca02c; stroke-width: 1.5"/>
    </g>
   </g>
   <g id="PathCollection_4">
    <path d="M 73.832727 264.090278 
C 74.671373 264.090278 75.475783 263.75708 76.068795 263.164068 
C 76.661807 262.571056 76.995005 261.766646 76.995005 260.928 
C 76.995005 260.089354 76.661807 259.284944 76.068795 258.691932 
C 75.475783 258.09892 74.671373 257.765722 73.832727 257.765722 
C 72.994081 257.765722 72.189671 258.09892 71.596659 258.691932 
C 71.003647 259.284944 70.67045 260.089354 70.67045 260.928 
C 70.67045 261.766646 71.003647 262.571056 71.596659 263.164068 
C 72.189671 263.75708 72.994081 264.090278 73.832727 264.090278 
z
" clip-path="url(#p7616b7c3c0)" style="fill: #d62728; stroke: #d62728"/>
    <path d="M 73.832727 194.970278 
C 74.671373 194.970278 75.475783 194.63708 76.068795 194.044068 
C 76.661807 193.451056 76.995005 192.646646 76.995005 191.808 
C 76.995005 190.969354 76.661807 190.164944 76.068795 189.571932 
C 75.475783 188.97892 74.671373 188.645722 73.832727 188.645722 
C 72.994081 188.645722 72.189671 188.97892 71.596659 189.571932 
C 71.003647 190.164944 70.67045 190.969354 70.67045 191.808 
C 70.67045 192.646646 71.003647 193.451056 71.596659 194.044068 
C 72.189671 194.63708 72.994081 194.970278 73.832727 194.970278 
z
" clip-path="url(#p7616b7c3c0)" style="fill: #d62728; stroke: #d62728"/>
    <path d="M 94.123636 125.850278 
C 94.962282 125.850278 95.766692 125.51708 96.359704 124.924068 
C 96.952717 124.331056 97.285914 123.526646 97.285914 122.688 
C 97.285914 121.849354 96.952717 121.044944 96.359704 120.451932 
C 95.766692 119.85892 94.962282 119.525722 94.123636 119.525722 
C 93.284991 119.525722 92.480581 119.85892 91.887568 120.451932 
C 91.294556 121.044944 90.961359 121.849354 90.961359 122.688 
C 90.961359 123.526646 91.294556 124.331056 91.887568 124.924068 
C 92.480581 125.51708 93.284991 125.850278 94.123636 125.850278 
z
" clip-path="url(#p7616b7c3c0)" style="fill: #d62728; stroke: #d62728"/>
    <path d="M 134.705455 264.090278 
C 135.5441 264.090278 136.34851 263.75708 136.941523 263.164068 
C 137.534535 262.571056 137.867732 261.766646 137.867732 260.928 
C 137.867732 260.089354 137.534535 259.284944 136.941523 258.691932 
C 136.34851 258.09892 135.5441 257.765722 134.705455 257.765722 
C 133.866809 257.765722 133.062399 258.09892 132.469387 258.691932 
C 131.876374 259.284944 131.543177 260.089354 131.543177 260.928 
C 131.543177 261.766646 131.876374 262.571056 132.469387 263.164068 
C 133.062399 263.75708 133.866809 264.090278 134.705455 264.090278 
z
" clip-path="url(#p7616b7c3c0)" style="fill: #d62728; stroke: #d62728"/>
    <path d="M 154.996364 229.530278 
C 155.835009 229.530278 156.639419 229.19708 157.232432 228.604068 
C 157.825444 228.011056 158.158641 227.206646 158.158641 226.368 
C 158.158641 225.529354 157.825444 224.724944 157.232432 224.131932 
C 156.639419 223.53892 155.835009 223.205722 154.996364 223.205722 
C 154.157718 223.205722 153.353308 223.53892 152.760296 224.131932 
C 152.167283 224.724944 151.834086 225.529354 151.834086 226.368 
C 151.834086 227.206646 152.167283 228.011056 152.760296 228.604068 
C 153.353308 229.19708 154.157718 229.530278 154.996364 229.530278 
z
" clip-path="url(#p7616b7c3c0)" style="fill: #d62728; stroke: #d62728"/>
    <path d="M 154.996364 160.410278 
C 155.835009 160.410278 156.639419 160.07708 157.232432 159.484068 
C 157.825444 158.891056 158.158641 158.086646 158.158641 157.248 
C 158.158641 156.409354 157.825444 155.604944 157.232432 155.011932 
C 156.639419 154.41892 155.835009 154.085722 154.996364 154.085722 
C 154.157718 154.085722 153.353308 154.41892 152.760296 155.011932 
C 152.167283 155.604944 151.834086 156.409354 151.834086 157.248 
C 151.834086 158.086646 152.167283 158.891056 152.760296 159.484068 
C 153.353308 160.07708 154.157718 160.410278 154.996364 160.410278 
z
" clip-path="url(#p7616b7c3c0)" style="fill: #d62728; stroke: #d62728"/>
    <path d="M 175.287273 194.970278 
C 176.125919 194.970278 176.930329 194.63708 177.523341 194.044068 
C 178.116353 193.451056 178.44955 192.646646 178.44955 191.808 
C 178.44955 190.969354 178.116353 190.164944 177.523341 189.571932 
C 176.930329 188.97892 176.125919 188.645722 175.287273 188.645722 
C 174.448627 188.645722 173.644217 188.97892 173.051205 189.571932 
C 172.458193 190.164944 172.124995 190.969354 172.124995 191.808 
C 172.124995 192.646646 172.458193 193.451056 173.051205 194.044068 
C 173.644217 194.63708 174.448627 194.970278 175.287273 194.970278 
z
" clip-path="url(#p7616b7c3c0)" style="fill: #d62728; stroke: #d62728"/>
    <path d="M 276.741818 264.090278 
C 277.580464 264.090278 278.384874 263.75708 278.977886 263.164068 
C 279.570898 262.571056 279.904096 261.766646 279.904096 260.928 
C 279.904096 260.089354 279.570898 259.284944 278.977886 258.691932 
C 278.384874 258.09892 277.580464 257.765722 276.741818 257.765722 
C 275.903172 257.765722 275.098762 258.09892 274.50575 258.691932 
C 273.912738 259.284944 273.579541 260.089354 273.579541 260.928 
C 273.579541 261.766646 273.912738 262.571056 274.50575 263.164068 
C 275.098762 263.75708 275.903172 264.090278 276.741818 264.090278 
z
" clip-path="url(#p7616b7c3c0)" style="fill: #d62728; stroke: #d62728"/>
    <path d="M 297.032727 229.530278 
C 297.871373 229.530278 298.675783 229.19708 299.268795 228.604068 
C 299.861807 228.011056 300.195005 227.206646 300.195005 226.368 
C 300.195005 225.529354 299.861807 224.724944 299.268795 224.131932 
C 298.675783 223.53892 297.871373 223.205722 297.032727 223.205722 
C 296.194081 223.205722 295.389671 223.53892 294.796659 224.131932 
C 294.203647 224.724944 293.87045 225.529354 293.87045 226.368 
C 293.87045 227.206646 294.203647 228.011056 294.796659 228.604068 
C 295.389671 229.19708 296.194081 229.530278 297.032727 229.530278 
z
" clip-path="url(#p7616b7c3c0)" style="fill: #d62728; stroke: #d62728"/>
    <path d="M 317.323636 298.650278 
C 318.162282 298.650278 318.966692 298.31708 319.559704 297.724068 
C 320.152717 297.131056 320.485914 296.326646 320.485914 295.488 
C 320.485914 294.649354 320.152717 293.844944 319.559704 293.251932 
C 318.966692 292.65892 318.162282 292.325722 317.323636 292.325722 
C 316.484991 292.325722 315.680581 292.65892 315.087568 293.251932 
C 314.494556 293.844944 314.161359 294.649354 314.161359 295.488 
C 314.161359 296.326646 314.494556 297.131056 315.087568 297.724068 
C 315.680581 298.31708 316.484991 298.650278 317.323636 298.650278 
z
" clip-path="url(#p7616b7c3c0)" style="fill: #d62728; stroke: #d62728"/>
    <path d="M 357.905455 264.090278 
C 358.7441 264.090278 359.54851 263.75708 360.141523 263.164068 
C 360.734535 262.571056 361.067732 261.766646 361.067732 260.928 
C 361.067732 260.089354 360.734535 259.284944 360.141523 258.691932 
C 359.54851 258.09892 358.7441 257.765722 357.905455 257.765722 
C 357.066809 257.765722 356.262399 258.09892 355.669387 258.691932 
C 355.076374 259.284944 354.743177 260.089354 354.743177 260.928 
C 354.743177 261.766646 355.076374 262.571056 355.669387 263.164068 
C 356.262399 263.75708 357.066809 264.090278 357.905455 264.090278 
z
" clip-path="url(#p7616b7c3c0)" style="fill: #d62728; stroke: #d62728"/>
    <path d="M 317.323636 91.290278 
C 318.162282 91.290278 318.966692 90.95708 319.559704 90.364068 
C 320.152717 89.771056 320.485914 88.966646 320.485914 88.128 
C 320.485914 87.289354 320.152717 86.484944 319.559704 85.891932 
C 318.966692 85.29892 318.162282 84.965722 317.323636 84.965722 
C 316.484991 84.965722 315.680581 85.29892 315.087568 85.891932 
C 314.494556 86.484944 314.161359 87.289354 314.161359 88.128 
C 314.161359 88.966646 314.494556 89.771056 315.087568 90.364068 
C 315.680581 90.95708 316.484991 91.290278 317.323636 91.290278 
z
" clip-path="url(#p7616b7c3c0)" style="fill: #d62728; stroke: #d62728"/>
    <path d="M 337.614545 56.730278 
C 338.453191 56.730278 339.257601 56.39708 339.850613 55.804068 
C 340.443626 55.211056 340.776823 54.406646 340.776823 53.568 
C 340.776823 52.729354 340.443626 51.924944 339.850613 51.331932 
C 339.257601 50.73892 338.453191 50.405722 337.614545 50.405722 
C 336.7759 50.405722 335.97149 50.73892 335.378477 51.331932 
C 334.785465 51.924944 334.452268 52.729354 334.452268 53.568 
C 334.452268 54.406646 334.785465 55.211056 335.378477 55.804068 
C 335.97149 56.39708 336.7759 56.730278 337.614545 56.730278 
z
" clip-path="url(#p7616b7c3c0)" style="fill: #d62728; stroke: #d62728"/>
    <path d="M 357.905455 125.850278 
C 358.7441 125.850278 359.54851 125.51708 360.141523 124.924068 
C 360.734535 124.331056 361.067732 123.526646 361.067732 122.688 
C 361.067732 121.849354 360.734535 121.044944 360.141523 120.451932 
C 359.54851 119.85892 358.7441 119.525722 357.905455 119.525722 
C 357.066809 119.525722 356.262399 119.85892 355.669387 120.451932 
C 355.076374 121.044944 354.743177 121.849354 354.743177 122.688 
C 354.743177 123.526646 355.076374 124.331056 355.669387 124.924068 
C 356.262399 125.51708 357.066809 125.850278 357.905455 125.850278 
z
" clip-path="url(#p7616b7c3c0)" style="fill: #d62728; stroke: #d62728"/>
    <path d="M 398.487273 91.290278 
C 399.325919 91.290278 400.130329 90.95708 400.723341 90.364068 
C 401.316353 89.771056 401.64955 88.966646 401.64955 88.128 
C 401.64955 87.289354 401.316353 86.484944 400.723341 85.891932 
C 400.130329 85.29892 399.325919 84.965722 398.487273 84.965722 
C 397.648627 84.965722 396.844217 85.29892 396.251205 85.891932 
C 395.658193 86.484944 395.324995 87.289354 395.324995 88.128 
C 395.324995 88.966646 395.658193 89.771056 396.251205 90.364068 
C 396.844217 90.95708 397.648627 91.290278 398.487273 91.290278 
z
" clip-path="url(#p7616b7c3c0)" style="fill: #d62728; stroke: #d62728"/>
   </g>
   <g id="PathCollection_5">
    <defs>
     <path id="maf7112499b" d="M -6.324555 6.324555 
L 6.324555 -6.324555 
M -6.324555 -6.324555 
L 6.324555 6.324555 
" style="stroke: #9467bd; stroke-width: 1.5"/>
    </defs>
    <g clip-path="url(#p7616b7c3c0)">
     <use xlink:href="#maf7112499b" x="167.729114" y="217.891046" style="fill: #9467bd; stroke: #9467bd; stroke-width: 1.5"/>
    </g>
   </g>
   <g id="PathCollection_6">
    <path d="M 73.832727 264.090278 
C 74.671373 264.090278 75.475783 263.75708 76.068795 263.164068 
C 76.661807 262.571056 76.995005 261.766646 76.995005 260.928 
C 76.995005 260.089354 76.661807 259.284944 76.068795 258.691932 
C 75.475783 258.09892 74.671373 257.765722 73.832727 257.765722 
C 72.994081 257.765722 72.189671 258.09892 71.596659 258.691932 
C 71.003647 259.284944 70.67045 260.089354 70.67045 260.928 
C 70.67045 261.766646 71.003647 262.571056 71.596659 263.164068 
C 72.189671 263.75708 72.994081 264.090278 73.832727 264.090278 
z
" clip-path="url(#p7616b7c3c0)" style="fill: #8c564b; stroke: #8c564b"/>
    <path d="M 73.832727 194.970278 
C 74.671373 194.970278 75.475783 194.63708 76.068795 194.044068 
C 76.661807 193.451056 76.995005 192.646646 76.995005 191.808 
C 76.995005 190.969354 76.661807 190.164944 76.068795 189.571932 
C 75.475783 188.97892 74.671373 188.645722 73.832727 188.645722 
C 72.994081 188.645722 72.189671 188.97892 71.596659 189.571932 
C 71.003647 190.164944 70.67045 190.969354 70.67045 191.808 
C 70.67045 192.646646 71.003647 193.451056 71.596659 194.044068 
C 72.189671 194.63708 72.994081 194.970278 73.832727 194.970278 
z
" clip-path="url(#p7616b7c3c0)" style="fill: #8c564b; stroke: #8c564b"/>
    <path d="M 94.123636 125.850278 
C 94.962282 125.850278 95.766692 125.51708 96.359704 124.924068 
C 96.952717 124.331056 97.285914 123.526646 97.285914 122.688 
C 97.285914 121.849354 96.952717 121.044944 96.359704 120.451932 
C 95.766692 119.85892 94.962282 119.525722 94.123636 119.525722 
C 93.284991 119.525722 92.480581 119.85892 91.887568 120.451932 
C 91.294556 121.044944 90.961359 121.849354 90.961359 122.688 
C 90.961359 123.526646 91.294556 124.331056 91.887568 124.924068 
C 92.480581 125.51708 93.284991 125.850278 94.123636 125.850278 
z
" clip-path="url(#p7616b7c3c0)" style="fill: #8c564b; stroke: #8c564b"/>
    <path d="M 134.705455 264.090278 
C 135.5441 264.090278 136.34851 263.75708 136.941523 263.164068 
C 137.534535 262.571056 137.867732 261.766646 137.867732 260.928 
C 137.867732 260.089354 137.534535 259.284944 136.941523 258.691932 
C 136.34851 258.09892 135.5441 257.765722 134.705455 257.765722 
C 133.866809 257.765722 133.062399 258.09892 132.469387 258.691932 
C 131.876374 259.284944 131.543177 260.089354 131.543177 260.928 
C 131.543177 261.766646 131.876374 262.571056 132.469387 263.164068 
C 133.062399 263.75708 133.866809 264.090278 134.705455 264.090278 
z
" clip-path="url(#p7616b7c3c0)" style="fill: #8c564b; stroke: #8c564b"/>
    <path d="M 154.996364 229.530278 
C 155.835009 229.530278 156.639419 229.19708 157.232432 228.604068 
C 157.825444 228.011056 158.158641 227.206646 158.158641 226.368 
C 158.158641 225.529354 157.825444 224.724944 157.232432 224.131932 
C 156.639419 223.53892 155.835009 223.205722 154.996364 223.205722 
C 154.157718 223.205722 153.353308 223.53892 152.760296 224.131932 
C 152.167283 224.724944 151.834086 225.529354 151.834086 226.368 
C 151.834086 227.206646 152.167283 228.011056 152.760296 228.604068 
C 153.353308 229.19708 154.157718 229.530278 154.996364 229.530278 
z
" clip-path="url(#p7616b7c3c0)" style="fill: #8c564b; stroke: #8c564b"/>
    <path d="M 154.996364 160.410278 
C 155.835009 160.410278 156.639419 160.07708 157.232432 159.484068 
C 157.825444 158.891056 158.158641 158.086646 158.158641 157.248 
C 158.158641 156.409354 157.825444 155.604944 157.232432 155.011932 
C 156.639419 154.41892 155.835009 154.085722 154.996364 154.085722 
C 154.157718 154.085722 153.353308 154.41892 152.760296 155.011932 
C 152.167283 155.604944 151.834086 156.409354 151.834086 157.248 
C 151.834086 158.086646 152.167283 158.891056 152.760296 159.484068 
C 153.353308 160.07708 154.157718 160.410278 154.996364 160.410278 
z
" clip-path="url(#p7616b7c3c0)" style="fill: #8c564b; stroke: #8c564b"/>
    <path d="M 175.287273 194.970278 
C 176.125919 194.970278 176.930329 194.63708 177.523341 194.044068 
C 178.116353 193.451056 178.44955 192.646646 178.44955 191.808 
C 178.44955 190.969354 178.116353 190.164944 177.523341 189.571932 
C 176.930329 188.97892 176.125919 188.645722 175.287273 188.645722 
C 174.448627 188.645722 173.644217 188.97892 173.051205 189.571932 
C 172.458193 190.164944 172.124995 190.969354 172.124995 191.808 
C 172.124995 192.646646 172.458193 193.451056 173.051205 194.044068 
C 173.644217 194.63708 174.448627 194.970278 175.287273 194.970278 
z
" clip-path="url(#p7616b7c3c0)" style="fill: #8c564b; stroke: #8c564b"/>
    <path d="M 276.741818 264.090278 
C 277.580464 264.090278 278.384874 263.75708 278.977886 263.164068 
C 279.570898 262.571056 279.904096 261.766646 279.904096 260.928 
C 279.904096 260.089354 279.570898 259.284944 278.977886 258.691932 
C 278.384874 258.09892 277.580464 257.765722 276.741818 257.765722 
C 275.903172 257.765722 275.098762 258.09892 274.50575 258.691932 
C 273.912738 259.284944 273.579541 260.089354 273.579541 260.928 
C 273.579541 261.766646 273.912738 262.571056 274.50575 263.164068 
C 275.098762 263.75708 275.903172 264.090278 276.741818 264.090278 
z
" clip-path="url(#p7616b7c3c0)" style="fill: #8c564b; stroke: #8c564b"/>
    <path d="M 297.032727 229.530278 
C 297.871373 229.530278 298.675783 229.19708 299.268795 228.604068 
C 299.861807 228.011056 300.195005 227.206646 300.195005 226.368 
C 300.195005 225.529354 299.861807 224.724944 299.268795 224.131932 
C 298.675783 223.53892 297.871373 223.205722 297.032727 223.205722 
C 296.194081 223.205722 295.389671 223.53892 294.796659 224.131932 
C 294.203647 224.724944 293.87045 225.529354 293.87045 226.368 
C 293.87045 227.206646 294.203647 228.011056 294.796659 228.604068 
C 295.389671 229.19708 296.194081 229.530278 297.032727 229.530278 
z
" clip-path="url(#p7616b7c3c0)" style="fill: #8c564b; stroke: #8c564b"/>
    <path d="M 317.323636 298.650278 
C 318.162282 298.650278 318.966692 298.31708 319.559704 297.724068 
C 320.152717 297.131056 320.485914 296.326646 320.485914 295.488 
C 320.485914 294.649354 320.152717 293.844944 319.559704 293.251932 
C 318.966692 292.65892 318.162282 292.325722 317.323636 292.325722 
C 316.484991 292.325722 315.680581 292.65892 315.087568 293.251932 
C 314.494556 293.844944 314.161359 294.649354 314.161359 295.488 
C 314.161359 296.326646 314.494556 297.131056 315.087568 297.724068 
C 315.680581 298.31708 316.484991 298.650278 317.323636 298.650278 
z
" clip-path="url(#p7616b7c3c0)" style="fill: #8c564b; stroke: #8c564b"/>
    <path d="M 357.905455 264.090278 
C 358.7441 264.090278 359.54851 263.75708 360.141523 263.164068 
C 360.734535 262.571056 361.067732 261.766646 361.067732 260.928 
C 361.067732 260.089354 360.734535 259.284944 360.141523 258.691932 
C 359.54851 258.09892 358.7441 257.765722 357.905455 257.765722 
C 357.066809 257.765722 356.262399 258.09892 355.669387 258.691932 
C 355.076374 259.284944 354.743177 260.089354 354.743177 260.928 
C 354.743177 261.766646 355.076374 262.571056 355.669387 263.164068 
C 356.262399 263.75708 357.066809 264.090278 357.905455 264.090278 
z
" clip-path="url(#p7616b7c3c0)" style="fill: #8c564b; stroke: #8c564b"/>
    <path d="M 317.323636 91.290278 
C 318.162282 91.290278 318.966692 90.95708 319.559704 90.364068 
C 320.152717 89.771056 320.485914 88.966646 320.485914 88.128 
C 320.485914 87.289354 320.152717 86.484944 319.559704 85.891932 
C 318.966692 85.29892 318.162282 84.965722 317.323636 84.965722 
C 316.484991 84.965722 315.680581 85.29892 315.087568 85.891932 
C 314.494556 86.484944 314.161359 87.289354 314.161359 88.128 
C 314.161359 88.966646 314.494556 89.771056 315.087568 90.364068 
C 315.680581 90.95708 316.484991 91.290278 317.323636 91.290278 
z
" clip-path="url(#p7616b7c3c0)" style="fill: #8c564b; stroke: #8c564b"/>
    <path d="M 337.614545 56.730278 
C 338.453191 56.730278 339.257601 56.39708 339.850613 55.804068 
C 340.443626 55.211056 340.776823 54.406646 340.776823 53.568 
C 340.776823 52.729354 340.443626 51.924944 339.850613 51.331932 
C 339.257601 50.73892 338.453191 50.405722 337.614545 50.405722 
C 336.7759 50.405722 335.97149 50.73892 335.378477 51.331932 
C 334.785465 51.924944 334.452268 52.729354 334.452268 53.568 
C 334.452268 54.406646 334.785465 55.211056 335.378477 55.804068 
C 335.97149 56.39708 336.7759 56.730278 337.614545 56.730278 
z
" clip-path="url(#p7616b7c3c0)" style="fill: #8c564b; stroke: #8c564b"/>
    <path d="M 357.905455 125.850278 
C 358.7441 125.850278 359.54851 125.51708 360.141523 124.924068 
C 360.734535 124.331056 361.067732 123.526646 361.067732 122.688 
C 361.067732 121.849354 360.734535 121.044944 360.141523 120.451932 
C 359.54851 119.85892 358.7441 119.525722 357.905455 119.525722 
C 357.066809 119.525722 356.262399 119.85892 355.669387 120.451932 
C 355.076374 121.044944 354.743177 121.849354 354.743177 122.688 
C 354.743177 123.526646 355.076374 124.331056 355.669387 124.924068 
C 356.262399 125.51708 357.066809 125.850278 357.905455 125.850278 
z
" clip-path="url(#p7616b7c3c0)" style="fill: #8c564b; stroke: #8c564b"/>
    <path d="M 398.487273 91.290278 
C 399.325919 91.290278 400.130329 90.95708 400.723341 90.364068 
C 401.316353 89.771056 401.64955 88.966646 401.64955 88.128 
C 401.64955 87.289354 401.316353 86.484944 400.723341 85.891932 
C 400.130329 85.29892 399.325919 84.965722 398.487273 84.965722 
C 397.648627 84.965722 396.844217 85.29892 396.251205 85.891932 
C 395.658193 86.484944 395.324995 87.289354 395.324995 88.128 
C 395.324995 88.966646 395.658193 89.771056 396.251205 90.364068 
C 396.844217 90.95708 397.648627 91.290278 398.487273 91.290278 
z
" clip-path="url(#p7616b7c3c0)" style="fill: #8c564b; stroke: #8c564b"/>
   </g>
   <g id="matplotlib.axis_1">
    <g id="xtick_1">
     <g id="line2d_1">
      <defs>
       <path id="mefd914dba9" d="M 0 0 
L 0 3.5 
" style="stroke: #000000; stroke-width: 0.8"/>
      </defs>
      <g>
       <use xlink:href="#mefd914dba9" x="73.832727" y="307.584" style="stroke: #000000; stroke-width: 0.8"/>
      </g>
     </g>
     <g id="text_1">
      <!-- 2 -->
      <g transform="translate(70.651477 322.182437)scale(0.1 -0.1)">
       <defs>
        <path id="DejaVuSans-32" d="M 1228 531 
L 3431 531 
L 3431 0 
L 469 0 
L 469 531 
Q 828 903 1448 1529 
Q 2069 2156 2228 2338 
Q 2531 2678 2651 2914 
Q 2772 3150 2772 3378 
Q 2772 3750 2511 3984 
Q 2250 4219 1831 4219 
Q 1534 4219 1204 4116 
Q 875 4013 500 3803 
L 500 4441 
Q 881 4594 1212 4672 
Q 1544 4750 1819 4750 
Q 2544 4750 2975 4387 
Q 3406 4025 3406 3419 
Q 3406 3131 3298 2873 
Q 3191 2616 2906 2266 
Q 2828 2175 2409 1742 
Q 1991 1309 1228 531 
z
" transform="scale(0.015625)"/>
       </defs>
       <use xlink:href="#DejaVuSans-32"/>
      </g>
     </g>
    </g>
    <g id="xtick_2">
     <g id="line2d_2">
      <g>
       <use xlink:href="#mefd914dba9" x="114.414545" y="307.584" style="stroke: #000000; stroke-width: 0.8"/>
      </g>
     </g>
     <g id="text_2">
      <!-- 3 -->
      <g transform="translate(111.233295 322.182437)scale(0.1 -0.1)">
       <defs>
        <path id="DejaVuSans-33" d="M 2597 2516 
Q 3050 2419 3304 2112 
Q 3559 1806 3559 1356 
Q 3559 666 3084 287 
Q 2609 -91 1734 -91 
Q 1441 -91 1130 -33 
Q 819 25 488 141 
L 488 750 
Q 750 597 1062 519 
Q 1375 441 1716 441 
Q 2309 441 2620 675 
Q 2931 909 2931 1356 
Q 2931 1769 2642 2001 
Q 2353 2234 1838 2234 
L 1294 2234 
L 1294 2753 
L 1863 2753 
Q 2328 2753 2575 2939 
Q 2822 3125 2822 3475 
Q 2822 3834 2567 4026 
Q 2313 4219 1838 4219 
Q 1578 4219 1281 4162 
Q 984 4106 628 3988 
L 628 4550 
Q 988 4650 1302 4700 
Q 1616 4750 1894 4750 
Q 2613 4750 3031 4423 
Q 3450 4097 3450 3541 
Q 3450 3153 3228 2886 
Q 3006 2619 2597 2516 
z
" transform="scale(0.015625)"/>
       </defs>
       <use xlink:href="#DejaVuSans-33"/>
      </g>
     </g>
    </g>
    <g id="xtick_3">
     <g id="line2d_3">
      <g>
       <use xlink:href="#mefd914dba9" x="154.996364" y="307.584" style="stroke: #000000; stroke-width: 0.8"/>
      </g>
     </g>
     <g id="text_3">
      <!-- 4 -->
      <g transform="translate(151.815114 322.182437)scale(0.1 -0.1)">
       <defs>
        <path id="DejaVuSans-34" d="M 2419 4116 
L 825 1625 
L 2419 1625 
L 2419 4116 
z
M 2253 4666 
L 3047 4666 
L 3047 1625 
L 3713 1625 
L 3713 1100 
L 3047 1100 
L 3047 0 
L 2419 0 
L 2419 1100 
L 313 1100 
L 313 1709 
L 2253 4666 
z
" transform="scale(0.015625)"/>
       </defs>
       <use xlink:href="#DejaVuSans-34"/>
      </g>
     </g>
    </g>
    <g id="xtick_4">
     <g id="line2d_4">
      <g>
       <use xlink:href="#mefd914dba9" x="195.578182" y="307.584" style="stroke: #000000; stroke-width: 0.8"/>
      </g>
     </g>
     <g id="text_4">
      <!-- 5 -->
      <g transform="translate(192.396932 322.182437)scale(0.1 -0.1)">
       <defs>
        <path id="DejaVuSans-35" d="M 691 4666 
L 3169 4666 
L 3169 4134 
L 1269 4134 
L 1269 2991 
Q 1406 3038 1543 3061 
Q 1681 3084 1819 3084 
Q 2600 3084 3056 2656 
Q 3513 2228 3513 1497 
Q 3513 744 3044 326 
Q 2575 -91 1722 -91 
Q 1428 -91 1123 -41 
Q 819 9 494 109 
L 494 744 
Q 775 591 1075 516 
Q 1375 441 1709 441 
Q 2250 441 2565 725 
Q 2881 1009 2881 1497 
Q 2881 1984 2565 2268 
Q 2250 2553 1709 2553 
Q 1456 2553 1204 2497 
Q 953 2441 691 2322 
L 691 4666 
z
" transform="scale(0.015625)"/>
       </defs>
       <use xlink:href="#DejaVuSans-35"/>
      </g>
     </g>
    </g>
    <g id="xtick_5">
     <g id="line2d_5">
      <g>
       <use xlink:href="#mefd914dba9" x="236.16" y="307.584" style="stroke: #000000; stroke-width: 0.8"/>
      </g>
     </g>
     <g id="text_5">
      <!-- 6 -->
      <g transform="translate(232.97875 322.182437)scale(0.1 -0.1)">
       <defs>
        <path id="DejaVuSans-36" d="M 2113 2584 
Q 1688 2584 1439 2293 
Q 1191 2003 1191 1497 
Q 1191 994 1439 701 
Q 1688 409 2113 409 
Q 2538 409 2786 701 
Q 3034 994 3034 1497 
Q 3034 2003 2786 2293 
Q 2538 2584 2113 2584 
z
M 3366 4563 
L 3366 3988 
Q 3128 4100 2886 4159 
Q 2644 4219 2406 4219 
Q 1781 4219 1451 3797 
Q 1122 3375 1075 2522 
Q 1259 2794 1537 2939 
Q 1816 3084 2150 3084 
Q 2853 3084 3261 2657 
Q 3669 2231 3669 1497 
Q 3669 778 3244 343 
Q 2819 -91 2113 -91 
Q 1303 -91 875 529 
Q 447 1150 447 2328 
Q 447 3434 972 4092 
Q 1497 4750 2381 4750 
Q 2619 4750 2861 4703 
Q 3103 4656 3366 4563 
z
" transform="scale(0.015625)"/>
       </defs>
       <use xlink:href="#DejaVuSans-36"/>
      </g>
     </g>
    </g>
    <g id="xtick_6">
     <g id="line2d_6">
      <g>
       <use xlink:href="#mefd914dba9" x="276.741818" y="307.584" style="stroke: #000000; stroke-width: 0.8"/>
      </g>
     </g>
     <g id="text_6">
      <!-- 7 -->
      <g transform="translate(273.560568 322.182437)scale(0.1 -0.1)">
       <defs>
        <path id="DejaVuSans-37" d="M 525 4666 
L 3525 4666 
L 3525 4397 
L 1831 0 
L 1172 0 
L 2766 4134 
L 525 4134 
L 525 4666 
z
" transform="scale(0.015625)"/>
       </defs>
       <use xlink:href="#DejaVuSans-37"/>
      </g>
     </g>
    </g>
    <g id="xtick_7">
     <g id="line2d_7">
      <g>
       <use xlink:href="#mefd914dba9" x="317.323636" y="307.584" style="stroke: #000000; stroke-width: 0.8"/>
      </g>
     </g>
     <g id="text_7">
      <!-- 8 -->
      <g transform="translate(314.142386 322.182437)scale(0.1 -0.1)">
       <defs>
        <path id="DejaVuSans-38" d="M 2034 2216 
Q 1584 2216 1326 1975 
Q 1069 1734 1069 1313 
Q 1069 891 1326 650 
Q 1584 409 2034 409 
Q 2484 409 2743 651 
Q 3003 894 3003 1313 
Q 3003 1734 2745 1975 
Q 2488 2216 2034 2216 
z
M 1403 2484 
Q 997 2584 770 2862 
Q 544 3141 544 3541 
Q 544 4100 942 4425 
Q 1341 4750 2034 4750 
Q 2731 4750 3128 4425 
Q 3525 4100 3525 3541 
Q 3525 3141 3298 2862 
Q 3072 2584 2669 2484 
Q 3125 2378 3379 2068 
Q 3634 1759 3634 1313 
Q 3634 634 3220 271 
Q 2806 -91 2034 -91 
Q 1263 -91 848 271 
Q 434 634 434 1313 
Q 434 1759 690 2068 
Q 947 2378 1403 2484 
z
M 1172 3481 
Q 1172 3119 1398 2916 
Q 1625 2713 2034 2713 
Q 2441 2713 2670 2916 
Q 2900 3119 2900 3481 
Q 2900 3844 2670 4047 
Q 2441 4250 2034 4250 
Q 1625 4250 1398 4047 
Q 1172 3844 1172 3481 
z
" transform="scale(0.015625)"/>
       </defs>
       <use xlink:href="#DejaVuSans-38"/>
      </g>
     </g>
    </g>
    <g id="xtick_8">
     <g id="line2d_8">
      <g>
       <use xlink:href="#mefd914dba9" x="357.905455" y="307.584" style="stroke: #000000; stroke-width: 0.8"/>
      </g>
     </g>
     <g id="text_8">
      <!-- 9 -->
      <g transform="translate(354.724205 322.182437)scale(0.1 -0.1)">
       <defs>
        <path id="DejaVuSans-39" d="M 703 97 
L 703 672 
Q 941 559 1184 500 
Q 1428 441 1663 441 
Q 2288 441 2617 861 
Q 2947 1281 2994 2138 
Q 2813 1869 2534 1725 
Q 2256 1581 1919 1581 
Q 1219 1581 811 2004 
Q 403 2428 403 3163 
Q 403 3881 828 4315 
Q 1253 4750 1959 4750 
Q 2769 4750 3195 4129 
Q 3622 3509 3622 2328 
Q 3622 1225 3098 567 
Q 2575 -91 1691 -91 
Q 1453 -91 1209 -44 
Q 966 3 703 97 
z
M 1959 2075 
Q 2384 2075 2632 2365 
Q 2881 2656 2881 3163 
Q 2881 3666 2632 3958 
Q 2384 4250 1959 4250 
Q 1534 4250 1286 3958 
Q 1038 3666 1038 3163 
Q 1038 2656 1286 2365 
Q 1534 2075 1959 2075 
z
" transform="scale(0.015625)"/>
       </defs>
       <use xlink:href="#DejaVuSans-39"/>
      </g>
     </g>
    </g>
    <g id="xtick_9">
     <g id="line2d_9">
      <g>
       <use xlink:href="#mefd914dba9" x="398.487273" y="307.584" style="stroke: #000000; stroke-width: 0.8"/>
      </g>
     </g>
     <g id="text_9">
      <!-- 10 -->
      <g transform="translate(392.124773 322.182437)scale(0.1 -0.1)">
       <defs>
        <path id="DejaVuSans-31" d="M 794 531 
L 1825 531 
L 1825 4091 
L 703 3866 
L 703 4441 
L 1819 4666 
L 2450 4666 
L 2450 531 
L 3481 531 
L 3481 0 
L 794 0 
L 794 531 
z
" transform="scale(0.015625)"/>
        <path id="DejaVuSans-30" d="M 2034 4250 
Q 1547 4250 1301 3770 
Q 1056 3291 1056 2328 
Q 1056 1369 1301 889 
Q 1547 409 2034 409 
Q 2525 409 2770 889 
Q 3016 1369 3016 2328 
Q 3016 3291 2770 3770 
Q 2525 4250 2034 4250 
z
M 2034 4750 
Q 2819 4750 3233 4129 
Q 3647 3509 3647 2328 
Q 3647 1150 3233 529 
Q 2819 -91 2034 -91 
Q 1250 -91 836 529 
Q 422 1150 422 2328 
Q 422 3509 836 4129 
Q 1250 4750 2034 4750 
z
" transform="scale(0.015625)"/>
       </defs>
       <use xlink:href="#DejaVuSans-31"/>
       <use xlink:href="#DejaVuSans-30" x="63.623047"/>
      </g>
     </g>
    </g>
   </g>
   <g id="matplotlib.axis_2">
    <g id="ytick_1">
     <g id="line2d_10">
      <defs>
       <path id="m2591674dc0" d="M 0 0 
L -3.5 0 
" style="stroke: #000000; stroke-width: 0.8"/>
      </defs>
      <g>
       <use xlink:href="#m2591674dc0" x="57.6" y="295.488" style="stroke: #000000; stroke-width: 0.8"/>
      </g>
     </g>
     <g id="text_10">
      <!-- 1 -->
      <g transform="translate(44.2375 299.287219)scale(0.1 -0.1)">
       <use xlink:href="#DejaVuSans-31"/>
      </g>
     </g>
    </g>
    <g id="ytick_2">
     <g id="line2d_11">
      <g>
       <use xlink:href="#m2591674dc0" x="57.6" y="260.928" style="stroke: #000000; stroke-width: 0.8"/>
      </g>
     </g>
     <g id="text_11">
      <!-- 2 -->
      <g transform="translate(44.2375 264.727219)scale(0.1 -0.1)">
       <use xlink:href="#DejaVuSans-32"/>
      </g>
     </g>
    </g>
    <g id="ytick_3">
     <g id="line2d_12">
      <g>
       <use xlink:href="#m2591674dc0" x="57.6" y="226.368" style="stroke: #000000; stroke-width: 0.8"/>
      </g>
     </g>
     <g id="text_12">
      <!-- 3 -->
      <g transform="translate(44.2375 230.167219)scale(0.1 -0.1)">
       <use xlink:href="#DejaVuSans-33"/>
      </g>
     </g>
    </g>
    <g id="ytick_4">
     <g id="line2d_13">
      <g>
       <use xlink:href="#m2591674dc0" x="57.6" y="191.808" style="stroke: #000000; stroke-width: 0.8"/>
      </g>
     </g>
     <g id="text_13">
      <!-- 4 -->
      <g transform="translate(44.2375 195.607219)scale(0.1 -0.1)">
       <use xlink:href="#DejaVuSans-34"/>
      </g>
     </g>
    </g>
    <g id="ytick_5">
     <g id="line2d_14">
      <g>
       <use xlink:href="#m2591674dc0" x="57.6" y="157.248" style="stroke: #000000; stroke-width: 0.8"/>
      </g>
     </g>
     <g id="text_14">
      <!-- 5 -->
      <g transform="translate(44.2375 161.047219)scale(0.1 -0.1)">
       <use xlink:href="#DejaVuSans-35"/>
      </g>
     </g>
    </g>
    <g id="ytick_6">
     <g id="line2d_15">
      <g>
       <use xlink:href="#m2591674dc0" x="57.6" y="122.688" style="stroke: #000000; stroke-width: 0.8"/>
      </g>
     </g>
     <g id="text_15">
      <!-- 6 -->
      <g transform="translate(44.2375 126.487219)scale(0.1 -0.1)">
       <use xlink:href="#DejaVuSans-36"/>
      </g>
     </g>
    </g>
    <g id="ytick_7">
     <g id="line2d_16">
      <g>
       <use xlink:href="#m2591674dc0" x="57.6" y="88.128" style="stroke: #000000; stroke-width: 0.8"/>
      </g>
     </g>
     <g id="text_16">
      <!-- 7 -->
      <g transform="translate(44.2375 91.927219)scale(0.1 -0.1)">
       <use xlink:href="#DejaVuSans-37"/>
      </g>
     </g>
    </g>
    <g id="ytick_8">
     <g id="line2d_17">
      <g>
       <use xlink:href="#m2591674dc0" x="57.6" y="53.568" style="stroke: #000000; stroke-width: 0.8"/>
      </g>
     </g>
     <g id="text_17">
      <!-- 8 -->
      <g transform="translate(44.2375 57.367219)scale(0.1 -0.1)">
       <use xlink:href="#DejaVuSans-38"/>
      </g>
     </g>
    </g>
   </g>
   <g id="patch_3">
    <path d="M 57.6 307.584 
L 57.6 41.472 
" style="fill: none; stroke: #000000; stroke-width: 0.8; stroke-linejoin: miter; stroke-linecap: square"/>
   </g>
   <g id="patch_4">
    <path d="M 414.72 307.584 
L 414.72 41.472 
" style="fill: none; stroke: #000000; stroke-width: 0.8; stroke-linejoin: miter; stroke-linecap: square"/>
   </g>
   <g id="patch_5">
    <path d="M 57.6 307.584 
L 414.72 307.584 
" style="fill: none; stroke: #000000; stroke-width: 0.8; stroke-linejoin: miter; stroke-linecap: square"/>
   </g>
   <g id="patch_6">
    <path d="M 57.6 41.472 
L 414.72 41.472 
" style="fill: none; stroke: #000000; stroke-width: 0.8; stroke-linejoin: miter; stroke-linecap: square"/>
   </g>
   <g id="text_18">
    <!--  -->
    <g transform="translate(73.832727 217.334562)scale(0.1 -0.1)"/>
    <!-- 0=0.05 -->
    <g transform="translate(55.328821 228.532375)scale(0.1 -0.1)">
     <defs>
      <path id="DejaVuSans-3d" d="M 678 2906 
L 4684 2906 
L 4684 2381 
L 678 2381 
L 678 2906 
z
M 678 1631 
L 4684 1631 
L 4684 1100 
L 678 1100 
L 678 1631 
z
" transform="scale(0.015625)"/>
      <path id="DejaVuSans-2e" d="M 684 794 
L 1344 794 
L 1344 0 
L 684 0 
L 684 794 
z
" transform="scale(0.015625)"/>
     </defs>
     <use xlink:href="#DejaVuSans-30"/>
     <use xlink:href="#DejaVuSans-3d" x="63.623047"/>
     <use xlink:href="#DejaVuSans-30" x="147.412109"/>
     <use xlink:href="#DejaVuSans-2e" x="211.035156"/>
     <use xlink:href="#DejaVuSans-30" x="242.822266"/>
     <use xlink:href="#DejaVuSans-35" x="306.445312"/>
    </g>
    <!-- 1=0.12 -->
    <g transform="translate(55.328821 239.730187)scale(0.1 -0.1)">
     <use xlink:href="#DejaVuSans-31"/>
     <use xlink:href="#DejaVuSans-3d" x="63.623047"/>
     <use xlink:href="#DejaVuSans-30" x="147.412109"/>
     <use xlink:href="#DejaVuSans-2e" x="211.035156"/>
     <use xlink:href="#DejaVuSans-31" x="242.822266"/>
     <use xlink:href="#DejaVuSans-32" x="306.445312"/>
    </g>
    <!-- 2=0.83 -->
    <g transform="translate(55.328821 250.928)scale(0.1 -0.1)">
     <use xlink:href="#DejaVuSans-32"/>
     <use xlink:href="#DejaVuSans-3d" x="63.623047"/>
     <use xlink:href="#DejaVuSans-30" x="147.412109"/>
     <use xlink:href="#DejaVuSans-2e" x="211.035156"/>
     <use xlink:href="#DejaVuSans-38" x="242.822266"/>
     <use xlink:href="#DejaVuSans-33" x="306.445312"/>
    </g>
   </g>
   <g id="text_19">
    <!--  -->
    <g transform="translate(73.832727 148.214562)scale(0.1 -0.1)"/>
    <!-- 0=0.07 -->
    <g transform="translate(55.328821 159.412375)scale(0.1 -0.1)">
     <use xlink:href="#DejaVuSans-30"/>
     <use xlink:href="#DejaVuSans-3d" x="63.623047"/>
     <use xlink:href="#DejaVuSans-30" x="147.412109"/>
     <use xlink:href="#DejaVuSans-2e" x="211.035156"/>
     <use xlink:href="#DejaVuSans-30" x="242.822266"/>
     <use xlink:href="#DejaVuSans-37" x="306.445312"/>
    </g>
    <!-- 1=0.14 -->
    <g transform="translate(55.328821 170.610187)scale(0.1 -0.1)">
     <use xlink:href="#DejaVuSans-31"/>
     <use xlink:href="#DejaVuSans-3d" x="63.623047"/>
     <use xlink:href="#DejaVuSans-30" x="147.412109"/>
     <use xlink:href="#DejaVuSans-2e" x="211.035156"/>
     <use xlink:href="#DejaVuSans-31" x="242.822266"/>
     <use xlink:href="#DejaVuSans-34" x="306.445312"/>
    </g>
    <!-- 2=0.79 -->
    <g transform="translate(55.328821 181.808)scale(0.1 -0.1)">
     <use xlink:href="#DejaVuSans-32"/>
     <use xlink:href="#DejaVuSans-3d" x="63.623047"/>
     <use xlink:href="#DejaVuSans-30" x="147.412109"/>
     <use xlink:href="#DejaVuSans-2e" x="211.035156"/>
     <use xlink:href="#DejaVuSans-37" x="242.822266"/>
     <use xlink:href="#DejaVuSans-39" x="306.445312"/>
    </g>
   </g>
   <g id="text_20">
    <!--  -->
    <g transform="translate(94.123636 79.094562)scale(0.1 -0.1)"/>
    <!-- 0=0.16 -->
    <g transform="translate(75.61973 90.292375)scale(0.1 -0.1)">
     <use xlink:href="#DejaVuSans-30"/>
     <use xlink:href="#DejaVuSans-3d" x="63.623047"/>
     <use xlink:href="#DejaVuSans-30" x="147.412109"/>
     <use xlink:href="#DejaVuSans-2e" x="211.035156"/>
     <use xlink:href="#DejaVuSans-31" x="242.822266"/>
     <use xlink:href="#DejaVuSans-36" x="306.445312"/>
    </g>
    <!-- 1=0.22 -->
    <g transform="translate(75.61973 101.490187)scale(0.1 -0.1)">
     <use xlink:href="#DejaVuSans-31"/>
     <use xlink:href="#DejaVuSans-3d" x="63.623047"/>
     <use xlink:href="#DejaVuSans-30" x="147.412109"/>
     <use xlink:href="#DejaVuSans-2e" x="211.035156"/>
     <use xlink:href="#DejaVuSans-32" x="242.822266"/>
     <use xlink:href="#DejaVuSans-32" x="306.445312"/>
    </g>
    <!-- 2=0.61 -->
    <g transform="translate(75.61973 112.688)scale(0.1 -0.1)">
     <use xlink:href="#DejaVuSans-32"/>
     <use xlink:href="#DejaVuSans-3d" x="63.623047"/>
     <use xlink:href="#DejaVuSans-30" x="147.412109"/>
     <use xlink:href="#DejaVuSans-2e" x="211.035156"/>
     <use xlink:href="#DejaVuSans-36" x="242.822266"/>
     <use xlink:href="#DejaVuSans-31" x="306.445312"/>
    </g>
   </g>
   <g id="text_21">
    <!--  -->
    <g transform="translate(134.705455 217.334562)scale(0.1 -0.1)"/>
    <!-- 0=0.05 -->
    <g transform="translate(116.201548 228.532375)scale(0.1 -0.1)">
     <use xlink:href="#DejaVuSans-30"/>
     <use xlink:href="#DejaVuSans-3d" x="63.623047"/>
     <use xlink:href="#DejaVuSans-30" x="147.412109"/>
     <use xlink:href="#DejaVuSans-2e" x="211.035156"/>
     <use xlink:href="#DejaVuSans-30" x="242.822266"/>
     <use xlink:href="#DejaVuSans-35" x="306.445312"/>
    </g>
    <!-- 1=0.14 -->
    <g transform="translate(116.201548 239.730187)scale(0.1 -0.1)">
     <use xlink:href="#DejaVuSans-31"/>
     <use xlink:href="#DejaVuSans-3d" x="63.623047"/>
     <use xlink:href="#DejaVuSans-30" x="147.412109"/>
     <use xlink:href="#DejaVuSans-2e" x="211.035156"/>
     <use xlink:href="#DejaVuSans-31" x="242.822266"/>
     <use xlink:href="#DejaVuSans-34" x="306.445312"/>
    </g>
    <!-- 2=0.81 -->
    <g transform="translate(116.201548 250.928)scale(0.1 -0.1)">
     <use xlink:href="#DejaVuSans-32"/>
     <use xlink:href="#DejaVuSans-3d" x="63.623047"/>
     <use xlink:href="#DejaVuSans-30" x="147.412109"/>
     <use xlink:href="#DejaVuSans-2e" x="211.035156"/>
     <use xlink:href="#DejaVuSans-38" x="242.822266"/>
     <use xlink:href="#DejaVuSans-31" x="306.445312"/>
    </g>
   </g>
   <g id="text_22">
    <!--  -->
    <g transform="translate(154.996364 182.774562)scale(0.1 -0.1)"/>
    <!-- 0=0.04 -->
    <g transform="translate(136.492457 193.972375)scale(0.1 -0.1)">
     <use xlink:href="#DejaVuSans-30"/>
     <use xlink:href="#DejaVuSans-3d" x="63.623047"/>
     <use xlink:href="#DejaVuSans-30" x="147.412109"/>
     <use xlink:href="#DejaVuSans-2e" x="211.035156"/>
     <use xlink:href="#DejaVuSans-30" x="242.822266"/>
     <use xlink:href="#DejaVuSans-34" x="306.445312"/>
    </g>
    <!-- 1=0.12 -->
    <g transform="translate(136.492457 205.170187)scale(0.1 -0.1)">
     <use xlink:href="#DejaVuSans-31"/>
     <use xlink:href="#DejaVuSans-3d" x="63.623047"/>
     <use xlink:href="#DejaVuSans-30" x="147.412109"/>
     <use xlink:href="#DejaVuSans-2e" x="211.035156"/>
     <use xlink:href="#DejaVuSans-31" x="242.822266"/>
     <use xlink:href="#DejaVuSans-32" x="306.445312"/>
    </g>
    <!-- 2=0.83 -->
    <g transform="translate(136.492457 216.368)scale(0.1 -0.1)">
     <use xlink:href="#DejaVuSans-32"/>
     <use xlink:href="#DejaVuSans-3d" x="63.623047"/>
     <use xlink:href="#DejaVuSans-30" x="147.412109"/>
     <use xlink:href="#DejaVuSans-2e" x="211.035156"/>
     <use xlink:href="#DejaVuSans-38" x="242.822266"/>
     <use xlink:href="#DejaVuSans-33" x="306.445312"/>
    </g>
   </g>
   <g id="text_23">
    <!--  -->
    <g transform="translate(154.996364 113.654562)scale(0.1 -0.1)"/>
    <!-- 0=0.15 -->
    <g transform="translate(136.492457 124.852375)scale(0.1 -0.1)">
     <use xlink:href="#DejaVuSans-30"/>
     <use xlink:href="#DejaVuSans-3d" x="63.623047"/>
     <use xlink:href="#DejaVuSans-30" x="147.412109"/>
     <use xlink:href="#DejaVuSans-2e" x="211.035156"/>
     <use xlink:href="#DejaVuSans-31" x="242.822266"/>
     <use xlink:href="#DejaVuSans-35" x="306.445312"/>
    </g>
    <!-- 1=0.26 -->
    <g transform="translate(136.492457 136.050187)scale(0.1 -0.1)">
     <use xlink:href="#DejaVuSans-31"/>
     <use xlink:href="#DejaVuSans-3d" x="63.623047"/>
     <use xlink:href="#DejaVuSans-30" x="147.412109"/>
     <use xlink:href="#DejaVuSans-2e" x="211.035156"/>
     <use xlink:href="#DejaVuSans-32" x="242.822266"/>
     <use xlink:href="#DejaVuSans-36" x="306.445312"/>
    </g>
    <!-- 2=0.59 -->
    <g transform="translate(136.492457 147.248)scale(0.1 -0.1)">
     <use xlink:href="#DejaVuSans-32"/>
     <use xlink:href="#DejaVuSans-3d" x="63.623047"/>
     <use xlink:href="#DejaVuSans-30" x="147.412109"/>
     <use xlink:href="#DejaVuSans-2e" x="211.035156"/>
     <use xlink:href="#DejaVuSans-35" x="242.822266"/>
     <use xlink:href="#DejaVuSans-39" x="306.445312"/>
    </g>
   </g>
   <g id="text_24">
    <!--  -->
    <g transform="translate(175.287273 148.214562)scale(0.1 -0.1)"/>
    <!-- 0=0.10 -->
    <g transform="translate(156.783366 159.412375)scale(0.1 -0.1)">
     <use xlink:href="#DejaVuSans-30"/>
     <use xlink:href="#DejaVuSans-3d" x="63.623047"/>
     <use xlink:href="#DejaVuSans-30" x="147.412109"/>
     <use xlink:href="#DejaVuSans-2e" x="211.035156"/>
     <use xlink:href="#DejaVuSans-31" x="242.822266"/>
     <use xlink:href="#DejaVuSans-30" x="306.445312"/>
    </g>
    <!-- 1=0.23 -->
    <g transform="translate(156.783366 170.610187)scale(0.1 -0.1)">
     <use xlink:href="#DejaVuSans-31"/>
     <use xlink:href="#DejaVuSans-3d" x="63.623047"/>
     <use xlink:href="#DejaVuSans-30" x="147.412109"/>
     <use xlink:href="#DejaVuSans-2e" x="211.035156"/>
     <use xlink:href="#DejaVuSans-32" x="242.822266"/>
     <use xlink:href="#DejaVuSans-33" x="306.445312"/>
    </g>
    <!-- 2=0.68 -->
    <g transform="translate(156.783366 181.808)scale(0.1 -0.1)">
     <use xlink:href="#DejaVuSans-32"/>
     <use xlink:href="#DejaVuSans-3d" x="63.623047"/>
     <use xlink:href="#DejaVuSans-30" x="147.412109"/>
     <use xlink:href="#DejaVuSans-2e" x="211.035156"/>
     <use xlink:href="#DejaVuSans-36" x="242.822266"/>
     <use xlink:href="#DejaVuSans-38" x="306.445312"/>
    </g>
   </g>
   <g id="text_25">
    <!--  -->
    <g transform="translate(276.741818 217.334562)scale(0.1 -0.1)"/>
    <!-- 0=0.19 -->
    <g transform="translate(258.237912 228.532375)scale(0.1 -0.1)">
     <use xlink:href="#DejaVuSans-30"/>
     <use xlink:href="#DejaVuSans-3d" x="63.623047"/>
     <use xlink:href="#DejaVuSans-30" x="147.412109"/>
     <use xlink:href="#DejaVuSans-2e" x="211.035156"/>
     <use xlink:href="#DejaVuSans-31" x="242.822266"/>
     <use xlink:href="#DejaVuSans-39" x="306.445312"/>
    </g>
    <!-- 1=0.53 -->
    <g transform="translate(258.237912 239.730187)scale(0.1 -0.1)">
     <use xlink:href="#DejaVuSans-31"/>
     <use xlink:href="#DejaVuSans-3d" x="63.623047"/>
     <use xlink:href="#DejaVuSans-30" x="147.412109"/>
     <use xlink:href="#DejaVuSans-2e" x="211.035156"/>
     <use xlink:href="#DejaVuSans-35" x="242.822266"/>
     <use xlink:href="#DejaVuSans-33" x="306.445312"/>
    </g>
    <!-- 2=0.28 -->
    <g transform="translate(258.237912 250.928)scale(0.1 -0.1)">
     <use xlink:href="#DejaVuSans-32"/>
     <use xlink:href="#DejaVuSans-3d" x="63.623047"/>
     <use xlink:href="#DejaVuSans-30" x="147.412109"/>
     <use xlink:href="#DejaVuSans-2e" x="211.035156"/>
     <use xlink:href="#DejaVuSans-32" x="242.822266"/>
     <use xlink:href="#DejaVuSans-38" x="306.445312"/>
    </g>
   </g>
   <g id="text_26">
    <!--  -->
    <g transform="translate(297.032727 182.774562)scale(0.1 -0.1)"/>
    <!-- 0=0.26 -->
    <g transform="translate(278.528821 193.972375)scale(0.1 -0.1)">
     <use xlink:href="#DejaVuSans-30"/>
     <use xlink:href="#DejaVuSans-3d" x="63.623047"/>
     <use xlink:href="#DejaVuSans-30" x="147.412109"/>
     <use xlink:href="#DejaVuSans-2e" x="211.035156"/>
     <use xlink:href="#DejaVuSans-32" x="242.822266"/>
     <use xlink:href="#DejaVuSans-36" x="306.445312"/>
    </g>
    <!-- 1=0.59 -->
    <g transform="translate(278.528821 205.170187)scale(0.1 -0.1)">
     <use xlink:href="#DejaVuSans-31"/>
     <use xlink:href="#DejaVuSans-3d" x="63.623047"/>
     <use xlink:href="#DejaVuSans-30" x="147.412109"/>
     <use xlink:href="#DejaVuSans-2e" x="211.035156"/>
     <use xlink:href="#DejaVuSans-35" x="242.822266"/>
     <use xlink:href="#DejaVuSans-39" x="306.445312"/>
    </g>
    <!-- 2=0.15 -->
    <g transform="translate(278.528821 216.368)scale(0.1 -0.1)">
     <use xlink:href="#DejaVuSans-32"/>
     <use xlink:href="#DejaVuSans-3d" x="63.623047"/>
     <use xlink:href="#DejaVuSans-30" x="147.412109"/>
     <use xlink:href="#DejaVuSans-2e" x="211.035156"/>
     <use xlink:href="#DejaVuSans-31" x="242.822266"/>
     <use xlink:href="#DejaVuSans-35" x="306.445312"/>
    </g>
   </g>
   <g id="text_27">
    <!--  -->
    <g transform="translate(317.323636 251.894562)scale(0.1 -0.1)"/>
    <!-- 0=0.23 -->
    <g transform="translate(298.81973 263.092375)scale(0.1 -0.1)">
     <use xlink:href="#DejaVuSans-30"/>
     <use xlink:href="#DejaVuSans-3d" x="63.623047"/>
     <use xlink:href="#DejaVuSans-30" x="147.412109"/>
     <use xlink:href="#DejaVuSans-2e" x="211.035156"/>
     <use xlink:href="#DejaVuSans-32" x="242.822266"/>
     <use xlink:href="#DejaVuSans-33" x="306.445312"/>
    </g>
    <!-- 1=0.52 -->
    <g transform="translate(298.81973 274.290188)scale(0.1 -0.1)">
     <use xlink:href="#DejaVuSans-31"/>
     <use xlink:href="#DejaVuSans-3d" x="63.623047"/>
     <use xlink:href="#DejaVuSans-30" x="147.412109"/>
     <use xlink:href="#DejaVuSans-2e" x="211.035156"/>
     <use xlink:href="#DejaVuSans-35" x="242.822266"/>
     <use xlink:href="#DejaVuSans-32" x="306.445312"/>
    </g>
    <!-- 2=0.25 -->
    <g transform="translate(298.81973 285.488)scale(0.1 -0.1)">
     <use xlink:href="#DejaVuSans-32"/>
     <use xlink:href="#DejaVuSans-3d" x="63.623047"/>
     <use xlink:href="#DejaVuSans-30" x="147.412109"/>
     <use xlink:href="#DejaVuSans-2e" x="211.035156"/>
     <use xlink:href="#DejaVuSans-32" x="242.822266"/>
     <use xlink:href="#DejaVuSans-35" x="306.445312"/>
    </g>
   </g>
   <g id="text_28">
    <!--  -->
    <g transform="translate(357.905455 217.334562)scale(0.1 -0.1)"/>
    <!-- 0=0.33 -->
    <g transform="translate(339.401548 228.532375)scale(0.1 -0.1)">
     <use xlink:href="#DejaVuSans-30"/>
     <use xlink:href="#DejaVuSans-3d" x="63.623047"/>
     <use xlink:href="#DejaVuSans-30" x="147.412109"/>
     <use xlink:href="#DejaVuSans-2e" x="211.035156"/>
     <use xlink:href="#DejaVuSans-33" x="242.822266"/>
     <use xlink:href="#DejaVuSans-33" x="306.445312"/>
    </g>
    <!-- 1=0.53 -->
    <g transform="translate(339.401548 239.730187)scale(0.1 -0.1)">
     <use xlink:href="#DejaVuSans-31"/>
     <use xlink:href="#DejaVuSans-3d" x="63.623047"/>
     <use xlink:href="#DejaVuSans-30" x="147.412109"/>
     <use xlink:href="#DejaVuSans-2e" x="211.035156"/>
     <use xlink:href="#DejaVuSans-35" x="242.822266"/>
     <use xlink:href="#DejaVuSans-33" x="306.445312"/>
    </g>
    <!-- 2=0.14 -->
    <g transform="translate(339.401548 250.928)scale(0.1 -0.1)">
     <use xlink:href="#DejaVuSans-32"/>
     <use xlink:href="#DejaVuSans-3d" x="63.623047"/>
     <use xlink:href="#DejaVuSans-30" x="147.412109"/>
     <use xlink:href="#DejaVuSans-2e" x="211.035156"/>
     <use xlink:href="#DejaVuSans-31" x="242.822266"/>
     <use xlink:href="#DejaVuSans-34" x="306.445312"/>
    </g>
   </g>
   <g id="text_29">
    <!--  -->
    <g transform="translate(317.323636 44.534562)scale(0.1 -0.1)"/>
    <!-- 0=0.72 -->
    <g transform="translate(298.81973 55.732375)scale(0.1 -0.1)">
     <use xlink:href="#DejaVuSans-30"/>
     <use xlink:href="#DejaVuSans-3d" x="63.623047"/>
     <use xlink:href="#DejaVuSans-30" x="147.412109"/>
     <use xlink:href="#DejaVuSans-2e" x="211.035156"/>
     <use xlink:href="#DejaVuSans-37" x="242.822266"/>
     <use xlink:href="#DejaVuSans-32" x="306.445312"/>
    </g>
    <!-- 1=0.23 -->
    <g transform="translate(298.81973 66.930187)scale(0.1 -0.1)">
     <use xlink:href="#DejaVuSans-31"/>
     <use xlink:href="#DejaVuSans-3d" x="63.623047"/>
     <use xlink:href="#DejaVuSans-30" x="147.412109"/>
     <use xlink:href="#DejaVuSans-2e" x="211.035156"/>
     <use xlink:href="#DejaVuSans-32" x="242.822266"/>
     <use xlink:href="#DejaVuSans-33" x="306.445312"/>
    </g>
    <!-- 2=0.05 -->
    <g transform="translate(298.81973 78.128)scale(0.1 -0.1)">
     <use xlink:href="#DejaVuSans-32"/>
     <use xlink:href="#DejaVuSans-3d" x="63.623047"/>
     <use xlink:href="#DejaVuSans-30" x="147.412109"/>
     <use xlink:href="#DejaVuSans-2e" x="211.035156"/>
     <use xlink:href="#DejaVuSans-30" x="242.822266"/>
     <use xlink:href="#DejaVuSans-35" x="306.445312"/>
    </g>
   </g>
   <g id="text_30">
    <!--  -->
    <g transform="translate(337.614545 9.974562)scale(0.1 -0.1)"/>
    <!-- 0=0.72 -->
    <g transform="translate(319.110639 21.172375)scale(0.1 -0.1)">
     <use xlink:href="#DejaVuSans-30"/>
     <use xlink:href="#DejaVuSans-3d" x="63.623047"/>
     <use xlink:href="#DejaVuSans-30" x="147.412109"/>
     <use xlink:href="#DejaVuSans-2e" x="211.035156"/>
     <use xlink:href="#DejaVuSans-37" x="242.822266"/>
     <use xlink:href="#DejaVuSans-32" x="306.445312"/>
    </g>
    <!-- 1=0.23 -->
    <g transform="translate(319.110639 32.370187)scale(0.1 -0.1)">
     <use xlink:href="#DejaVuSans-31"/>
     <use xlink:href="#DejaVuSans-3d" x="63.623047"/>
     <use xlink:href="#DejaVuSans-30" x="147.412109"/>
     <use xlink:href="#DejaVuSans-2e" x="211.035156"/>
     <use xlink:href="#DejaVuSans-32" x="242.822266"/>
     <use xlink:href="#DejaVuSans-33" x="306.445312"/>
    </g>
    <!-- 2=0.05 -->
    <g transform="translate(319.110639 43.568)scale(0.1 -0.1)">
     <use xlink:href="#DejaVuSans-32"/>
     <use xlink:href="#DejaVuSans-3d" x="63.623047"/>
     <use xlink:href="#DejaVuSans-30" x="147.412109"/>
     <use xlink:href="#DejaVuSans-2e" x="211.035156"/>
     <use xlink:href="#DejaVuSans-30" x="242.822266"/>
     <use xlink:href="#DejaVuSans-35" x="306.445312"/>
    </g>
   </g>
   <g id="text_31">
    <!--  -->
    <g transform="translate(357.905455 79.094562)scale(0.1 -0.1)"/>
    <!-- 0=0.71 -->
    <g transform="translate(339.401548 90.292375)scale(0.1 -0.1)">
     <use xlink:href="#DejaVuSans-30"/>
     <use xlink:href="#DejaVuSans-3d" x="63.623047"/>
     <use xlink:href="#DejaVuSans-30" x="147.412109"/>
     <use xlink:href="#DejaVuSans-2e" x="211.035156"/>
     <use xlink:href="#DejaVuSans-37" x="242.822266"/>
     <use xlink:href="#DejaVuSans-31" x="306.445312"/>
    </g>
    <!-- 1=0.25 -->
    <g transform="translate(339.401548 101.490187)scale(0.1 -0.1)">
     <use xlink:href="#DejaVuSans-31"/>
     <use xlink:href="#DejaVuSans-3d" x="63.623047"/>
     <use xlink:href="#DejaVuSans-30" x="147.412109"/>
     <use xlink:href="#DejaVuSans-2e" x="211.035156"/>
     <use xlink:href="#DejaVuSans-32" x="242.822266"/>
     <use xlink:href="#DejaVuSans-35" x="306.445312"/>
    </g>
    <!-- 2=0.04 -->
    <g transform="translate(339.401548 112.688)scale(0.1 -0.1)">
     <use xlink:href="#DejaVuSans-32"/>
     <use xlink:href="#DejaVuSans-3d" x="63.623047"/>
     <use xlink:href="#DejaVuSans-30" x="147.412109"/>
     <use xlink:href="#DejaVuSans-2e" x="211.035156"/>
     <use xlink:href="#DejaVuSans-30" x="242.822266"/>
     <use xlink:href="#DejaVuSans-34" x="306.445312"/>
    </g>
   </g>
   <g id="text_32">
    <!--  -->
    <g transform="translate(398.487273 44.534562)scale(0.1 -0.1)"/>
    <!-- 0=0.72 -->
    <g transform="translate(379.983366 55.732375)scale(0.1 -0.1)">
     <use xlink:href="#DejaVuSans-30"/>
     <use xlink:href="#DejaVuSans-3d" x="63.623047"/>
     <use xlink:href="#DejaVuSans-30" x="147.412109"/>
     <use xlink:href="#DejaVuSans-2e" x="211.035156"/>
     <use xlink:href="#DejaVuSans-37" x="242.822266"/>
     <use xlink:href="#DejaVuSans-32" x="306.445312"/>
    </g>
    <!-- 1=0.24 -->
    <g transform="translate(379.983366 66.930187)scale(0.1 -0.1)">
     <use xlink:href="#DejaVuSans-31"/>
     <use xlink:href="#DejaVuSans-3d" x="63.623047"/>
     <use xlink:href="#DejaVuSans-30" x="147.412109"/>
     <use xlink:href="#DejaVuSans-2e" x="211.035156"/>
     <use xlink:href="#DejaVuSans-32" x="242.822266"/>
     <use xlink:href="#DejaVuSans-34" x="306.445312"/>
    </g>
    <!-- 2=0.04 -->
    <g transform="translate(379.983366 78.128)scale(0.1 -0.1)">
     <use xlink:href="#DejaVuSans-32"/>
     <use xlink:href="#DejaVuSans-3d" x="63.623047"/>
     <use xlink:href="#DejaVuSans-30" x="147.412109"/>
     <use xlink:href="#DejaVuSans-2e" x="211.035156"/>
     <use xlink:href="#DejaVuSans-30" x="242.822266"/>
     <use xlink:href="#DejaVuSans-34" x="306.445312"/>
    </g>
   </g>
   <g id="text_33">
    <!-- 0 -->
    <g transform="translate(295.450374 132.757385)scale(0.1 -0.1)">
     <use xlink:href="#DejaVuSans-30"/>
    </g>
   </g>
   <g id="text_34">
    <!-- 1 -->
    <g transform="translate(262.574026 178.371072)scale(0.1 -0.1)">
     <use xlink:href="#DejaVuSans-31"/>
    </g>
   </g>
   <g id="text_35">
    <!-- 2 -->
    <g transform="translate(164.547864 207.891046)scale(0.1 -0.1)">
     <use xlink:href="#DejaVuSans-32"/>
    </g>
   </g>
  </g>
 </g>
 <defs>
  <clipPath id="p7616b7c3c0">
   <rect x="57.6" y="41.472" width="357.12" height="266.112"/>
  </clipPath>
 </defs>
</svg>
