<?xml version="1.0" encoding="UTF-8" standalone="no"?>
<!DOCTYPE svg PUBLIC "-//W3C//DTD SVG 1.1//EN"
 "http://www.w3.org/Graphics/SVG/1.1/DTD/svg11.dtd">
<!-- Generated by graphviz version 2.40.1 (0)
 -->
<!-- Title: G Pages: 1 -->
<svg width="133pt" height="131pt"
 viewBox="0.00 0.00 133.00 131.00" xmlns="http://www.w3.org/2000/svg" xmlns:xlink="http://www.w3.org/1999/xlink">
<g id="graph0" class="graph" transform="scale(1 1) rotate(0) translate(4 127)">
<title>G</title>
<polygon fill="#ffffff" stroke="transparent" points="-4,4 -4,-127 129,-127 129,4 -4,4"/>
<!-- N1 -->
<g id="node1" class="node">
<title>N1</title>
<ellipse fill="none" stroke="#000000" cx="110.5" cy="-108.5" rx="14.5" ry="14.5"/>
<text text-anchor="middle" x="110.5" y="-106" font-family="Courier,monospace" font-weight="bold" font-size="10.00" fill="#000000">N1</text>
</g>
<!-- N2 -->
<g id="node2" class="node">
<title>N2</title>
<ellipse fill="none" stroke="#000000" cx="14.5" cy="-61.5" rx="14.5" ry="14.5"/>
<text text-anchor="middle" x="14.5" y="-59" font-family="Courier,monospace" font-weight="bold" font-size="10.00" fill="#000000">N2</text>
</g>
<!-- N2&#45;&#45;N1 -->
<g id="edge1" class="edge">
<title>N2&#45;&#45;N1</title>
<path fill="none" stroke="#000000" d="M27.8484,-68.0351C46.1895,-77.0146 78.9837,-93.0701 97.265,-102.0204"/>
<text text-anchor="middle" x="62.5" y="-94.5" font-family="Courier,monospace" font-weight="bold" font-size="10.00" fill="#000000">3.75</text>
</g>
<!-- v2 -->
<g id="node3" class="node">
<title>v2</title>
<ellipse fill="none" stroke="#000000" cx="110.5" cy="-61.5" rx="14.5" ry="14.5"/>
<text text-anchor="middle" x="110.5" y="-59" font-family="Courier,monospace" font-weight="bold" font-size="10.00" fill="#000000">v2</text>
</g>
<!-- N2&#45;&#45;v2 -->
<g id="edge2" class="edge">
<title>N2&#45;&#45;v2</title>
<path fill="none" stroke="#000000" d="M29.0803,-61.5C47.124,-61.5 77.6756,-61.5 95.7825,-61.5"/>
<text text-anchor="middle" x="62.5" y="-64.5" font-family="Courier,monospace" font-weight="bold" font-size="10.00" fill="#000000">5.75</text>
</g>
<!-- v3 -->
<g id="node4" class="node">
<title>v3</title>
<ellipse fill="none" stroke="#000000" cx="110.5" cy="-14.5" rx="14.5" ry="14.5"/>
<text text-anchor="middle" x="110.5" y="-12" font-family="Courier,monospace" font-weight="bold" font-size="10.00" fill="#000000">v3</text>
</g>
<!-- N2&#45;&#45;v3 -->
<g id="edge3" class="edge">
<title>N2&#45;&#45;v3</title>
<path fill="none" stroke="#000000" d="M27.8484,-54.9649C46.1895,-45.9854 78.9837,-29.9299 97.265,-20.9796"/>
<text text-anchor="middle" x="62.5" y="-47.5" font-family="Courier,monospace" font-weight="bold" font-size="10.00" fill="#000000">5.25</text>
</g>
</g>
</svg>
