<svg class="bob" font-family="arial" font-size="14" height="400" width="872" xmlns="http://www.w3.org/2000/svg">
<defs>
<marker id="triangle" markerHeight="8" markerWidth="8" orient="auto" refX="4" refY="2" viewBox="0 0 8 4">
<polygon class="fg_fill" points="0,0 0,4 8,2 0,0"/>
</marker>
<marker id="clear_triangle" markerHeight="10" markerWidth="10" orient="auto" refX="1" refY="7" viewBox="0 0 20 14">
<polygon class="bg_fill" points="2,2 2,12 18,7 2,2"/>
</marker>
<marker id="circle" markerHeight="5" markerWidth="5" orient="auto" refX="10" refY="10" viewBox="0 0 20 20">
<circle class="fg_fill" cx="10" cy="10" r="8"/>
</marker>
<marker id="square" markerHeight="5" markerWidth="5" orient="auto" refX="10" refY="10" viewBox="0 0 20 20">
<rect class="fg_fill" height="20" width="20" x="0" y="0"/>
</marker>
<marker id="open_circle" markerHeight="10" markerWidth="10" orient="auto" refX="10" refY="10" viewBox="0 0 20 20">
<circle class="bg_fill" cx="10" cy="10" r="4"/>
</marker>
<marker id="big_open_circle" markerHeight="20" markerWidth="20" orient="auto" refX="20" refY="20" viewBox="0 0 40 40">
<circle class="bg_fill" cx="20" cy="20" r="6"/>
</marker>
</defs>
<style type="text/css">

rect.backdrop {
    fill: white;
}
text{
    fill: black;
}

circle {
    fill: none;
    stroke: black;
    stroke-width: 2;
}

line {
    stroke: black;
    stroke-width: 2;
    stroke-opacity: 1;
    fill-opacity: 1;
    stroke-linecap: round;
    stroke-linejoin: miter;
}

path {
    fill: none;
    stroke: black;
    stroke-width: 2;
    stroke-opacity: 1;
    fill-opacity: 1;
    stroke-linecap: round;
    stroke-linejoin: miter;
}

line.dashed {
    stroke-dasharray: 5;
}

.fg_fill {
    fill: black;
}


.bg_fill {
    fill: white;
    stroke: black;
    stroke-width: 2;
}

tspan.head{
    fill: none;
    stroke: none;
}
    
</style>
<rect class="backdrop" height="400" width="872" x="0" y="0"/>
<g>
<text x="1" y="12">
Alignment path for row 1: [G, -, T, -, C]
</text>
</g>
<g>
<text x="1" y="76">
TTTT-
</text>
</g>
<g>
<text x="1" y="156">
Alignment path for row 3: [-, T, T, A, -]
</text>
</g>
<g>
<text x="1" y="220">
TTTT-
</text>
</g>
<g>
<text x="1" y="300">
Alignment path for row 5: [G, -, -, -, -]
</text>
</g>
<g>
<text x="1" y="364">
TTTT-
</text>
</g>
<g>
<text x="57" y="108">
o
</text>
</g>
<g>
<text x="57" y="252">
o
</text>
</g>
<g>
<text x="57" y="396">
o
</text>
</g>
<g>
<text x="73" y="28">
G
</text>
</g>
<g>
<text x="73" y="172">
T
</text>
</g>
<g>
<text x="73" y="316">
G
</text>
</g>
<g>
<text x="89" y="108">
o
</text>
</g>
<g>
<text x="89" y="252">
o
</text>
</g>
<g>
<text x="89" y="396">
o
</text>
</g>
<g>
<text x="105" y="28">
T
</text>
</g>
<g>
<text x="105" y="172">
T
</text>
</g>
<g>
<text x="121" y="44">
o
</text>
</g>
<g>
<text x="121" y="188">
o
</text>
</g>
<g>
<text x="137" y="28">
C
</text>
</g>
<g>
<text x="137" y="172">
A
</text>
</g>
<g>
<text x="153" y="44">
o
</text>
</g>
<g>
<text x="153" y="188">
o
</text>
</g>
<g>
<text x="529" y="12">
Alignment path for row 2: [-, C, T, A, -]
</text>
</g>
<g>
<text x="529" y="76">
TTTT-
</text>
</g>
<g>
<text x="529" y="156">
Alignment path for row 4: [-, -, T, -, C]
</text>
</g>
<g>
<text x="529" y="220">
TTTT-
</text>
</g>
<g>
<text x="585" y="108">
o
</text>
</g>
<g>
<text x="585" y="252">
o
</text>
</g>
<g>
<text x="601" y="28">
C
</text>
</g>
<g>
<text x="601" y="172">
T
</text>
</g>
<g>
<text x="617" y="108">
o
</text>
</g>
<g>
<text x="617" y="188">
o
</text>
</g>
<g>
<text x="633" y="28">
T
</text>
</g>
<g>
<text x="633" y="172">
C
</text>
</g>
<g>
<text x="649" y="44">
o
</text>
</g>
<g>
<text x="649" y="188">
o
</text>
</g>
<g>
<text x="665" y="28">
A
</text>
</g>
<g>
<text x="681" y="44">
o
</text>
</g>
<g>
<line marker-end="url(#triangle)" marker-start="url(#open_circle)" x1="60" x2="84" y1="40" y2="40"/>
</g>
<g>
<line marker-end="url(#triangle)" marker-start="url(#open_circle)" x1="60" x2="84" y1="184" y2="184"/>
</g>
<g>
<line marker-end="url(#triangle)" marker-start="url(#open_circle)" x1="60" x2="84" y1="328" y2="328"/>
</g>
<g>
<line marker-start="url(#open_circle)" x1="92" x2="88" y1="40" y2="40"/>
<line marker-end="url(#triangle)" marker-start="url(#open_circle)" x1="92" x2="118" y1="40" y2="92"/>
</g>
<g>
<line marker-start="url(#open_circle)" x1="92" x2="88" y1="184" y2="184"/>
<line marker-end="url(#triangle)" marker-start="url(#open_circle)" x1="92" x2="118" y1="184" y2="236"/>
</g>
<g>
<line marker-start="url(#open_circle)" x1="92" x2="88" y1="328" y2="328"/>
<line marker-end="url(#triangle)" marker-start="url(#open_circle)" x1="92" x2="92" y1="328" y2="380"/>
</g>
<g>
<line marker-end="url(#triangle)" marker-start="url(#open_circle)" x1="124" x2="148" y1="104" y2="104"/>
</g>
<g>
<line marker-end="url(#triangle)" marker-start="url(#open_circle)" x1="124" x2="148" y1="248" y2="248"/>
</g>
<g>
<line marker-start="url(#open_circle)" x1="156" x2="152" y1="104" y2="104"/>
</g>
<g>
<line marker-start="url(#open_circle)" x1="156" x2="152" y1="248" y2="248"/>
</g>
<g>
<line marker-end="url(#triangle)" marker-start="url(#open_circle)" x1="588" x2="612" y1="40" y2="40"/>
</g>
<g>
<line marker-end="url(#triangle)" marker-start="url(#open_circle)" x1="588" x2="614" y1="184" y2="236"/>
</g>
<g>
<line marker-start="url(#open_circle)" x1="620" x2="616" y1="40" y2="40"/>
<line marker-end="url(#triangle)" marker-start="url(#open_circle)" x1="620" x2="646" y1="40" y2="92"/>
</g>
<g>
<line marker-end="url(#triangle)" marker-start="url(#open_circle)" x1="620" x2="644" y1="248" y2="248"/>
</g>
<g>
<line marker-end="url(#triangle)" marker-start="url(#open_circle)" x1="652" x2="676" y1="104" y2="104"/>
</g>
<g>
<line marker-start="url(#open_circle)" x1="652" x2="648" y1="248" y2="248"/>
</g>
<g>
<line marker-start="url(#open_circle)" x1="684" x2="680" y1="104" y2="104"/>
</g>
</svg>
