<?xml version="1.0" encoding="UTF-8" standalone="no"?>
<!DOCTYPE svg PUBLIC "-//W3C//DTD SVG 1.1//EN"
 "http://www.w3.org/Graphics/SVG/1.1/DTD/svg11.dtd">
<!-- Generated by graphviz version 2.40.1 (0)
 -->
<!-- Title: G Pages: 1 -->
<svg width="410pt" height="364pt"
 viewBox="0.00 0.00 410.00 364.00" xmlns="http://www.w3.org/2000/svg" xmlns:xlink="http://www.w3.org/1999/xlink">
<g id="graph0" class="graph" transform="scale(1 1) rotate(0) translate(4 360)">
<title>G</title>
<polygon fill="#ffffff" stroke="transparent" points="-4,4 -4,-360 406,-360 406,4 -4,4"/>
<text text-anchor="middle" x="201" y="-340.8" font-family="Times,serif" font-size="14.00" fill="#000000">HMM diagram for &quot;hi&quot; vs &quot;qi&quot;</text>
<text text-anchor="middle" x="201" y="-325.8" font-family="Times,serif" font-size="14.00" fill="#000000">(from &quot;hi&quot;&#39;s perspective)</text>
<!-- S -->
<g id="node1" class="node">
<title>S</title>
<text text-anchor="middle" x="23" y="-299.3" font-family="Times,serif" font-size="14.00" fill="#ff0000">S</text>
</g>
<!-- D01 -->
<g id="node2" class="node">
<title>D01</title>
<text text-anchor="middle" x="23" y="-155.3" font-family="Times,serif" font-size="14.00" fill="#000000">D01</text>
</g>
<!-- S&#45;&gt;D01 -->
<g id="edge1" class="edge">
<title>S&#45;&gt;D01</title>
<path fill="none" stroke="#000000" d="M23,-295.2579C23,-273.0872 23,-208.9188 23,-177.195"/>
<polygon fill="#000000" stroke="#000000" points="26.5001,-176.7803 23,-166.7803 19.5001,-176.7804 26.5001,-176.7803"/>
<text text-anchor="middle" x="11.5" y="-240.0265" font-family="Times,serif" font-size="14.00" fill="#000000">0.4</text>
</g>
<!-- I10 -->
<g id="node4" class="node">
<title>I10</title>
<text text-anchor="middle" x="167" y="-299.3" font-family="Times,serif" font-size="14.00" fill="#ff0000">I10 (h)</text>
</g>
<!-- S&#45;&gt;I10 -->
<g id="edge2" class="edge">
<title>S&#45;&gt;I10</title>
<path fill="none" stroke="#ff0000" d="M27.1543,-303C42.054,-303 93.841,-303 130.0249,-303"/>
<polygon fill="#ff0000" stroke="#ff0000" points="130.2338,-306.5001 140.2338,-303 130.2337,-299.5001 130.2338,-306.5001"/>
<text text-anchor="middle" x="67.0896" y="-306.8" font-family="Times,serif" font-size="14.00" fill="#ff0000">0.6</text>
</g>
<!-- M11 -->
<g id="node6" class="node">
<title>M11</title>
<text text-anchor="middle" x="159.8" y="-169.7" font-family="Times,serif" font-size="14.00" fill="#000000">M11 (h)</text>
</g>
<!-- S&#45;&gt;M11 -->
<g id="edge3" class="edge">
<title>S&#45;&gt;M11</title>
<path fill="none" stroke="#000000" d="M27.2442,-298.9792C44.9629,-282.193 113.5435,-217.222 144.4931,-187.9013"/>
<polygon fill="#000000" stroke="#000000" points="146.9731,-190.3731 151.8256,-180.9547 142.1589,-185.2914 146.9731,-190.3731"/>
<text text-anchor="middle" x="74.3686" y="-247.2403" font-family="Times,serif" font-size="14.00" fill="#000000">0.0</text>
</g>
<!-- D02 -->
<g id="node3" class="node">
<title>D02</title>
<text text-anchor="middle" x="23" y="-11.3" font-family="Times,serif" font-size="14.00" fill="#000000">D02</text>
</g>
<!-- D01&#45;&gt;D02 -->
<g id="edge7" class="edge">
<title>D01&#45;&gt;D02</title>
<path fill="none" stroke="#000000" d="M23,-151.2579C23,-129.0872 23,-64.9188 23,-33.195"/>
<polygon fill="#000000" stroke="#000000" points="26.5001,-32.7803 23,-22.7803 19.5001,-32.7804 26.5001,-32.7803"/>
<text text-anchor="middle" x="11.5" y="-96.0265" font-family="Times,serif" font-size="14.00" fill="#000000">0.5</text>
</g>
<!-- I11 -->
<g id="node5" class="node">
<title>I11</title>
<text text-anchor="middle" x="152.6" y="-155.3" font-family="Times,serif" font-size="14.00" fill="#000000">I11 (h)</text>
</g>
<!-- D01&#45;&gt;I11 -->
<g id="edge8" class="edge">
<title>D01&#45;&gt;I11</title>
<path fill="none" stroke="#000000" d="M34.5011,-159C52.5736,-159 88.3927,-159 115.8676,-159"/>
<polygon fill="#000000" stroke="#000000" points="115.9346,-162.5001 125.9346,-159 115.9346,-155.5001 115.9346,-162.5001"/>
<text text-anchor="middle" x="63.6843" y="-162.8" font-family="Times,serif" font-size="14.00" fill="#000000">0.5</text>
</g>
<!-- M12 -->
<g id="node13" class="node">
<title>M12</title>
<text text-anchor="middle" x="159.8" y="-25.7" font-family="Times,serif" font-size="14.00" fill="#000000">M12 (h)</text>
</g>
<!-- D01&#45;&gt;M12 -->
<g id="edge9" class="edge">
<title>D01&#45;&gt;M12</title>
<path fill="none" stroke="#000000" d="M31.1478,-151.281C53.3453,-130.2518 115.1684,-71.6826 144.2733,-44.1095"/>
<polygon fill="#000000" stroke="#000000" points="147.0138,-46.3345 151.8663,-36.9162 142.1996,-41.2528 147.0138,-46.3345"/>
<text text-anchor="middle" x="76.2105" y="-101.4953" font-family="Times,serif" font-size="14.00" fill="#000000">0.0</text>
</g>
<!-- I12 -->
<g id="node12" class="node">
<title>I12</title>
<text text-anchor="middle" x="152.6" y="-11.3" font-family="Times,serif" font-size="14.00" fill="#000000">I12 (h)</text>
</g>
<!-- D02&#45;&gt;I12 -->
<g id="edge20" class="edge">
<title>D02&#45;&gt;I12</title>
<path fill="none" stroke="#000000" d="M34.5011,-15C52.5736,-15 88.3927,-15 115.8676,-15"/>
<polygon fill="#000000" stroke="#000000" points="115.9346,-18.5001 125.9346,-15 115.9346,-11.5001 115.9346,-18.5001"/>
<text text-anchor="middle" x="63.6843" y="-18.8" font-family="Times,serif" font-size="14.00" fill="#000000">1.0</text>
</g>
<!-- D11 -->
<g id="node7" class="node">
<title>D11</title>
<text text-anchor="middle" x="167" y="-184.1" font-family="Times,serif" font-size="14.00" fill="#ff0000">D11</text>
</g>
<!-- I10&#45;&gt;D11 -->
<g id="edge5" class="edge">
<title>I10&#45;&gt;D11</title>
<path fill="none" stroke="#ff0000" d="M167,-295.4414C167,-277.3835 167,-231.3342 167,-205.7032"/>
<polygon fill="#ff0000" stroke="#ff0000" points="170.5001,-205.5374 167,-195.5375 163.5001,-205.5375 170.5001,-205.5374"/>
<text text-anchor="middle" x="155.5" y="-254.3723" font-family="Times,serif" font-size="14.00" fill="#ff0000">0.6</text>
</g>
<!-- I20 -->
<g id="node8" class="node">
<title>I20</title>
<text text-anchor="middle" x="311" y="-299.3" font-family="Times,serif" font-size="14.00" fill="#000000">I20 (i)</text>
</g>
<!-- I10&#45;&gt;I20 -->
<g id="edge4" class="edge">
<title>I10&#45;&gt;I20</title>
<path fill="none" stroke="#000000" d="M193.7478,-303C216.3794,-303 249.0423,-303 274.1492,-303"/>
<polygon fill="#000000" stroke="#000000" points="274.3955,-306.5001 284.3954,-303 274.3954,-299.5001 274.3955,-306.5001"/>
<text text-anchor="middle" x="222.4485" y="-306.8" font-family="Times,serif" font-size="14.00" fill="#000000">0.4</text>
</g>
<!-- M21 -->
<g id="node10" class="node">
<title>M21</title>
<text text-anchor="middle" x="303.8" y="-169.7" font-family="Times,serif" font-size="14.00" fill="#000000">M21 (i)</text>
</g>
<!-- I10&#45;&gt;M21 -->
<g id="edge6" class="edge">
<title>I10&#45;&gt;M21</title>
<path fill="none" stroke="#000000" d="M175.1478,-295.281C197.3453,-274.2518 259.1684,-215.6826 288.2733,-188.1095"/>
<polygon fill="#000000" stroke="#000000" points="291.0138,-190.3345 295.8663,-180.9162 286.1996,-185.2528 291.0138,-190.3345"/>
<text text-anchor="middle" x="220.2105" y="-245.4953" font-family="Times,serif" font-size="14.00" fill="#000000">0.0</text>
</g>
<!-- I21 -->
<g id="node9" class="node">
<title>I21</title>
<text text-anchor="middle" x="296.6" y="-155.3" font-family="Times,serif" font-size="14.00" fill="#000000">I21 (i)</text>
</g>
<!-- I11&#45;&gt;I21 -->
<g id="edge15" class="edge">
<title>I11&#45;&gt;I21</title>
<path fill="none" stroke="#000000" d="M179.3478,-159C201.9794,-159 234.6423,-159 259.7492,-159"/>
<polygon fill="#000000" stroke="#000000" points="259.9955,-162.5001 269.9954,-159 259.9954,-155.5001 259.9955,-162.5001"/>
<text text-anchor="middle" x="208.0485" y="-162.8" font-family="Times,serif" font-size="14.00" fill="#000000">0.0</text>
</g>
<!-- D12 -->
<g id="node14" class="node">
<title>D12</title>
<text text-anchor="middle" x="167" y="-40.1" font-family="Times,serif" font-size="14.00" fill="#000000">D12</text>
</g>
<!-- I11&#45;&gt;D12 -->
<g id="edge14" class="edge">
<title>I11&#45;&gt;D12</title>
<path fill="none" stroke="#000000" d="M153.5448,-151.4414C155.8021,-133.3835 161.5582,-87.3342 164.7621,-61.7032"/>
<polygon fill="#000000" stroke="#000000" points="168.2654,-61.8944 166.0328,-51.5375 161.3194,-61.0261 168.2654,-61.8944"/>
<text text-anchor="middle" x="147.6535" y="-110.3723" font-family="Times,serif" font-size="14.00" fill="#000000">0.0</text>
</g>
<!-- M22 -->
<g id="node16" class="node">
<title>M22</title>
<text text-anchor="middle" x="303.8" y="-25.7" font-family="Times,serif" font-size="14.00" fill="#ff0000">M22 (i)</text>
</g>
<!-- I11&#45;&gt;M22 -->
<g id="edge16" class="edge">
<title>I11&#45;&gt;M22</title>
<path fill="none" stroke="#000000" d="M161.6055,-151.281C186.2449,-130.1616 255.0577,-71.1791 287.0511,-43.7562"/>
<polygon fill="#000000" stroke="#000000" points="289.7163,-46.0815 295.0312,-36.9162 285.1608,-40.7667 289.7163,-46.0815"/>
<text text-anchor="middle" x="212.8283" y="-101.3186" font-family="Times,serif" font-size="14.00" fill="#000000">1.0</text>
</g>
<!-- M11&#45;&gt;I21 -->
<g id="edge12" class="edge">
<title>M11&#45;&gt;I21</title>
<path fill="none" stroke="#000000" d="M186.5012,-170.5893C207.4043,-168.389 236.7092,-165.3043 259.8304,-162.8705"/>
<polygon fill="#000000" stroke="#000000" points="260.3876,-166.3313 269.9662,-161.8036 259.6547,-159.3697 260.3876,-166.3313"/>
<text text-anchor="middle" x="234.6658" y="-170.5299" font-family="Times,serif" font-size="14.00" fill="#000000">0.0</text>
</g>
<!-- M11&#45;&gt;D12 -->
<g id="edge11" class="edge">
<title>M11&#45;&gt;D12</title>
<path fill="none" stroke="#000000" d="M160.2288,-165.681C161.357,-145.3738 164.43,-90.0602 166.0191,-61.4565"/>
<polygon fill="#000000" stroke="#000000" points="169.5223,-61.4949 166.5824,-51.3162 162.533,-61.1066 169.5223,-61.4949"/>
<text text-anchor="middle" x="174.624" y="-102.3688" font-family="Times,serif" font-size="14.00" fill="#000000">0.0</text>
</g>
<!-- M11&#45;&gt;M22 -->
<g id="edge13" class="edge">
<title>M11&#45;&gt;M22</title>
<path fill="none" stroke="#000000" d="M167.5421,-165.6579C190.4942,-142.7058 258.4563,-74.7437 288.8349,-44.3651"/>
<polygon fill="#000000" stroke="#000000" points="291.4234,-46.7263 296.0197,-37.1803 286.4737,-41.7766 291.4234,-46.7263"/>
<text text-anchor="middle" x="239.6885" y="-93.8115" font-family="Times,serif" font-size="14.00" fill="#000000">1.0</text>
</g>
<!-- D11&#45;&gt;I21 -->
<g id="edge18" class="edge">
<title>D11&#45;&gt;I21</title>
<path fill="none" stroke="#000000" d="M178.5011,-185.2442C196.5736,-181.2281 232.3927,-173.2683 259.8676,-167.1628"/>
<polygon fill="#000000" stroke="#000000" points="260.932,-170.5117 269.9346,-164.9256 259.4134,-163.6784 260.932,-170.5117"/>
<text text-anchor="middle" x="207.6843" y="-180.0035" font-family="Times,serif" font-size="14.00" fill="#000000">0.0</text>
</g>
<!-- D11&#45;&gt;D12 -->
<g id="edge17" class="edge">
<title>D11&#45;&gt;D12</title>
<path fill="none" stroke="#000000" d="M167,-180.0579C167,-157.8872 167,-93.7188 167,-61.995"/>
<polygon fill="#000000" stroke="#000000" points="170.5001,-61.5803 167,-51.5803 163.5001,-61.5804 170.5001,-61.5803"/>
<text text-anchor="middle" x="178.5" y="-124.8265" font-family="Times,serif" font-size="14.00" fill="#000000">0.0</text>
</g>
<!-- D11&#45;&gt;M22 -->
<g id="edge19" class="edge">
<title>D11&#45;&gt;M22</title>
<path fill="none" stroke="#ff0000" d="M173.5982,-180.16C194.8614,-155.5395 261.8676,-77.9533 290.5553,-44.736"/>
<polygon fill="#ff0000" stroke="#ff0000" points="293.3807,-46.8192 297.2681,-36.9633 288.0829,-42.2439 293.3807,-46.8192"/>
<text text-anchor="middle" x="243.5767" y="-116.248" font-family="Times,serif" font-size="14.00" fill="#ff0000">1.0</text>
</g>
<!-- D21 -->
<g id="node11" class="node">
<title>D21</title>
<text text-anchor="middle" x="311" y="-184.1" font-family="Times,serif" font-size="14.00" fill="#000000">D21</text>
</g>
<!-- I20&#45;&gt;D21 -->
<g id="edge23" class="edge">
<title>I20&#45;&gt;D21</title>
<path fill="none" stroke="#000000" d="M311,-295.4414C311,-277.3835 311,-231.3342 311,-205.7032"/>
<polygon fill="#000000" stroke="#000000" points="314.5001,-205.5374 311,-195.5375 307.5001,-205.5375 314.5001,-205.5374"/>
<text text-anchor="middle" x="299.5" y="-254.3723" font-family="Times,serif" font-size="14.00" fill="#000000">1.0</text>
</g>
<!-- D22 -->
<g id="node17" class="node">
<title>D22</title>
<text text-anchor="middle" x="311" y="-40.1" font-family="Times,serif" font-size="14.00" fill="#000000">D22</text>
</g>
<!-- I21&#45;&gt;D22 -->
<g id="edge25" class="edge">
<title>I21&#45;&gt;D22</title>
<path fill="none" stroke="#000000" d="M297.5448,-151.4414C299.8021,-133.3835 305.5582,-87.3342 308.7621,-61.7032"/>
<polygon fill="#000000" stroke="#000000" points="312.2654,-61.8944 310.0328,-51.5375 305.3194,-61.0261 312.2654,-61.8944"/>
<text text-anchor="middle" x="291.6535" y="-110.3723" font-family="Times,serif" font-size="14.00" fill="#000000">1.0</text>
</g>
<!-- M21&#45;&gt;D22 -->
<g id="edge26" class="edge">
<title>M21&#45;&gt;D22</title>
<path fill="none" stroke="#000000" d="M304.2288,-165.681C305.357,-145.3738 308.43,-90.0602 310.0191,-61.4565"/>
<polygon fill="#000000" stroke="#000000" points="313.5223,-61.4949 310.5824,-51.3162 306.533,-61.1066 313.5223,-61.4949"/>
<text text-anchor="middle" x="318.624" y="-102.3688" font-family="Times,serif" font-size="14.00" fill="#000000">1.0</text>
</g>
<!-- D21&#45;&gt;D22 -->
<g id="edge24" class="edge">
<title>D21&#45;&gt;D22</title>
<path fill="none" stroke="#000000" d="M311,-180.0579C311,-157.8872 311,-93.7188 311,-61.995"/>
<polygon fill="#000000" stroke="#000000" points="314.5001,-61.5803 311,-51.5803 307.5001,-61.5804 314.5001,-61.5803"/>
<text text-anchor="middle" x="322.5" y="-124.8265" font-family="Times,serif" font-size="14.00" fill="#000000">1.0</text>
</g>
<!-- I22 -->
<g id="node15" class="node">
<title>I22</title>
<text text-anchor="middle" x="296.6" y="-11.3" font-family="Times,serif" font-size="14.00" fill="#000000">I22 (i)</text>
</g>
<!-- I12&#45;&gt;I22 -->
<g id="edge21" class="edge">
<title>I12&#45;&gt;I22</title>
<path fill="none" stroke="#000000" d="M179.3478,-15C201.9794,-15 234.6423,-15 259.7492,-15"/>
<polygon fill="#000000" stroke="#000000" points="259.9955,-18.5001 269.9954,-15 259.9954,-11.5001 259.9955,-18.5001"/>
<text text-anchor="middle" x="208.0485" y="-18.8" font-family="Times,serif" font-size="14.00" fill="#000000">1.0</text>
</g>
<!-- M12&#45;&gt;I22 -->
<g id="edge22" class="edge">
<title>M12&#45;&gt;I22</title>
<path fill="none" stroke="#000000" d="M186.5012,-26.5893C207.4043,-24.389 236.7092,-21.3043 259.8304,-18.8705"/>
<polygon fill="#000000" stroke="#000000" points="260.3876,-22.3313 269.9662,-17.8036 259.6547,-15.3697 260.3876,-22.3313"/>
<text text-anchor="middle" x="234.6658" y="-26.5299" font-family="Times,serif" font-size="14.00" fill="#000000">1.0</text>
</g>
<!-- D12&#45;&gt;I22 -->
<g id="edge10" class="edge">
<title>D12&#45;&gt;I22</title>
<path fill="none" stroke="#000000" d="M178.5011,-41.2442C196.5736,-37.2281 232.3927,-29.2683 259.8676,-23.1628"/>
<polygon fill="#000000" stroke="#000000" points="260.932,-26.5117 269.9346,-20.9256 259.4134,-19.6784 260.932,-26.5117"/>
<text text-anchor="middle" x="207.6843" y="-36.0035" font-family="Times,serif" font-size="14.00" fill="#000000">1.0</text>
</g>
<!-- T -->
<g id="node18" class="node">
<title>T</title>
<text text-anchor="middle" x="383" y="-11.3" font-family="Times,serif" font-size="14.00" fill="#ff0000">T (?)</text>
</g>
<!-- I22&#45;&gt;T -->
<g id="edge29" class="edge">
<title>I22&#45;&gt;T</title>
<path fill="none" stroke="#000000" d="M323.4639,-15C333.0679,-15 343.9351,-15 353.7318,-15"/>
<polygon fill="#000000" stroke="#000000" points="353.8318,-18.5001 363.8317,-15 353.8317,-11.5001 353.8318,-18.5001"/>
<text text-anchor="middle" x="350.0979" y="-3.8" font-family="Times,serif" font-size="14.00" fill="#000000">1.0</text>
</g>
<!-- M22&#45;&gt;T -->
<g id="edge28" class="edge">
<title>M22&#45;&gt;T</title>
<path fill="none" stroke="#ff0000" d="M330.6135,-24.5248C338.1415,-23.1561 346.36,-21.6618 354.0086,-20.2712"/>
<polygon fill="#ff0000" stroke="#ff0000" points="354.7541,-23.6931 363.9667,-18.4606 353.5018,-16.806 354.7541,-23.6931"/>
<text text-anchor="middle" x="353.811" y="-26.198" font-family="Times,serif" font-size="14.00" fill="#ff0000">1.0</text>
</g>
<!-- D22&#45;&gt;T -->
<g id="edge27" class="edge">
<title>D22&#45;&gt;T</title>
<path fill="none" stroke="#000000" d="M322.5681,-39.1728C331.2382,-35.7047 343.4882,-30.8047 354.6946,-26.3222"/>
<polygon fill="#000000" stroke="#000000" points="356.1729,-29.5005 364.1578,-22.5369 353.5731,-23.0012 356.1729,-29.5005"/>
<text text-anchor="middle" x="350.1313" y="-36.5475" font-family="Times,serif" font-size="14.00" fill="#000000">1.0</text>
</g>
</g>
</svg>
